{
    "header": {
        "PPQ": 480,
        "timeSignature": [
            4,
            8
        ],
        "bpm": 69.03002460920378,
        "name": "Chopin Ballade in G minor Opus 32"
    },
    "startTime": 0,
    "duration": 1009.3434037499992,
    "tracks": [
        {
            "startTime": 0,
            "duration": 0,
            "length": 0,
            "notes": [],
            "controlChanges": {},
            "id": 0,
            "name": "Chopin Ballade in G minor Opus 32"
        },
        {
            "startTime": 0.0018108062499999997,
            "duration": 1009.3434037499992,
            "length": 2852,
            "notes": [
                {
                    "name": "C3",
                    "midi": 48,
                    "time": 0.0018108062499999997,
                    "velocity": 0.7086614173228346,
                    "duration": 2.17115669375
                },
                {
                    "name": "D#3",
                    "midi": 51,
                    "time": 2.1729675,
                    "velocity": 0.6220472440944882,
                    "duration": 0.4345935000000001
                },
                {
                    "name": "G#3",
                    "midi": 56,
                    "time": 2.607561,
                    "velocity": 0.6535433070866141,
                    "duration": 0.4345935000000001
                },
                {
                    "name": "A#3",
                    "midi": 58,
                    "time": 3.0421545,
                    "velocity": 0.5984251968503937,
                    "duration": 0.4345935000000001
                },
                {
                    "name": "C4",
                    "midi": 60,
                    "time": 3.476748,
                    "velocity": 0.6535433070866141,
                    "duration": 0.4345935000000001
                },
                {
                    "name": "G#3",
                    "midi": 56,
                    "time": 3.9113415000000002,
                    "velocity": 0.5905511811023622,
                    "duration": 0.43459349999999963
                },
                {
                    "name": "D#4",
                    "midi": 63,
                    "time": 4.345935,
                    "velocity": 0.5984251968503937,
                    "duration": 0.4345935000000001
                },
                {
                    "name": "A#4",
                    "midi": 70,
                    "time": 4.7805285,
                    "velocity": 0.5669291338582677,
                    "duration": 0.4345935000000001
                },
                {
                    "name": "C5",
                    "midi": 72,
                    "time": 5.215122,
                    "velocity": 0.5748031496062992,
                    "duration": 0.4345935000000001
                },
                {
                    "name": "G#4",
                    "midi": 68,
                    "time": 5.6497155,
                    "velocity": 0.5354330708661418,
                    "duration": 0.4345935000000001
                },
                {
                    "name": "D#5",
                    "midi": 75,
                    "time": 6.084309,
                    "velocity": 0.5984251968503937,
                    "duration": 0.4345935000000001
                },
                {
                    "name": "A#5",
                    "midi": 82,
                    "time": 6.5189025,
                    "velocity": 0.5354330708661418,
                    "duration": 0.4345935000000001
                },
                {
                    "name": "C6",
                    "midi": 84,
                    "time": 6.953496,
                    "velocity": 0.5433070866141733,
                    "duration": 0.4345935000000001
                },
                {
                    "name": "G5",
                    "midi": 79,
                    "time": 7.3880895,
                    "velocity": 0.4566929133858268,
                    "duration": 0.4345935000000001
                },
                {
                    "name": "A#5",
                    "midi": 82,
                    "time": 7.8226830000000005,
                    "velocity": 0.4645669291338583,
                    "duration": 0.4345934999999992
                },
                {
                    "name": "G#5",
                    "midi": 80,
                    "time": 8.2572765,
                    "velocity": 0.41732283464566927,
                    "duration": 0.4345935000000001
                },
                {
                    "name": "G5",
                    "midi": 79,
                    "time": 8.69187,
                    "velocity": 0.3858267716535433,
                    "duration": 0.8691870000000002
                },
                {
                    "name": "F#5",
                    "midi": 78,
                    "time": 9.561057,
                    "velocity": 0.3464566929133858,
                    "duration": 0.4345935000000001
                },
                {
                    "name": "F#5",
                    "midi": 78,
                    "time": 10.8648375,
                    "velocity": 0.31496062992125984,
                    "duration": 0.4345935000000001
                },
                {
                    "name": "G5",
                    "midi": 79,
                    "time": 11.299431,
                    "velocity": 0.3464566929133858,
                    "duration": 0.4345935000000001
                },
                {
                    "name": "F#5",
                    "midi": 78,
                    "time": 11.7340245,
                    "velocity": 0.3228346456692913,
                    "duration": 0.4345935000000001
                },
                {
                    "name": "F5",
                    "midi": 77,
                    "time": 12.168618,
                    "velocity": 0.3464566929133858,
                    "duration": 0.4345935000000001
                },
                {
                    "name": "F#5",
                    "midi": 78,
                    "time": 12.6032115,
                    "velocity": 0.3228346456692913,
                    "duration": 0.4345935000000001
                },
                {
                    "name": "A5",
                    "midi": 81,
                    "time": 13.037805,
                    "velocity": 0.3543307086614173,
                    "duration": 0.28972899999999946
                },
                {
                    "name": "G5",
                    "midi": 79,
                    "time": 13.327534,
                    "velocity": 0.3228346456692913,
                    "duration": 0.28972899999999946
                },
                {
                    "name": "D#5",
                    "midi": 75,
                    "time": 13.617263,
                    "velocity": 0.3464566929133858,
                    "duration": 0.28972899999999946
                },
                {
                    "name": "D#5",
                    "midi": 75,
                    "time": 13.906991999999999,
                    "velocity": 0.33858267716535434,
                    "duration": 0.6518902499999992
                },
                {
                    "name": "D5",
                    "midi": 74,
                    "time": 14.558882249999998,
                    "velocity": 0.30708661417322836,
                    "duration": 0.21729674999999915
                },
                {
                    "name": "F5",
                    "midi": 77,
                    "time": 14.776178999999997,
                    "velocity": 0.31496062992125984,
                    "duration": 0.28972899999999946
                },
                {
                    "name": "D#5",
                    "midi": 75,
                    "time": 15.065907999999997,
                    "velocity": 0.30708661417322836,
                    "duration": 0.28972899999999946
                },
                {
                    "name": "D5",
                    "midi": 74,
                    "time": 15.355636999999996,
                    "velocity": 0.25984251968503935,
                    "duration": 0.26075610000000005
                },
                {
                    "name": "D5",
                    "midi": 74,
                    "time": 15.645365999999996,
                    "velocity": 0.2440944881889764,
                    "duration": 0.8691870000000002
                },
                {
                    "name": "C5",
                    "midi": 72,
                    "time": 19.122113999999996,
                    "velocity": 0.33858267716535434,
                    "duration": 1.3037804999999985
                },
                {
                    "name": "G4",
                    "midi": 67,
                    "time": 20.425894499999995,
                    "velocity": 0.36220472440944884,
                    "duration": 0.4345934999999983
                },
                {
                    "name": "A#4",
                    "midi": 70,
                    "time": 21.29508149999999,
                    "velocity": 0.4881889763779528,
                    "duration": 6.953495999999998
                },
                {
                    "name": "C4",
                    "midi": 60,
                    "time": 27.379390499999992,
                    "velocity": 0.3779527559055118,
                    "duration": 2.1729674999999915
                },
                {
                    "name": "D4",
                    "midi": 62,
                    "time": 27.81398399999999,
                    "velocity": 0.3464566929133858,
                    "duration": 1.7383739999999932
                },
                {
                    "name": "F#4",
                    "midi": 66,
                    "time": 28.24857749999999,
                    "velocity": 0.3464566929133858,
                    "duration": 0.4345934999999983
                },
                {
                    "name": "A#4",
                    "midi": 70,
                    "time": 28.683170999999987,
                    "velocity": 0.3858267716535433,
                    "duration": 0.4345934999999983
                },
                {
                    "name": "A4",
                    "midi": 69,
                    "time": 29.117764499999986,
                    "velocity": 0.3700787401574803,
                    "duration": 0.4345934999999983
                },
                {
                    "name": "G4",
                    "midi": 67,
                    "time": 29.552357999999984,
                    "velocity": 0.3464566929133858,
                    "duration": 2.607561000000004
                },
                {
                    "name": "A#3",
                    "midi": 58,
                    "time": 30.421544999999984,
                    "velocity": 0.2204724409448819,
                    "duration": 0.8601329687500012
                },
                {
                    "name": "D4",
                    "midi": 62,
                    "time": 30.421544999999984,
                    "velocity": 0.25984251968503935,
                    "duration": 0.8601329687500012
                },
                {
                    "name": "A#3",
                    "midi": 58,
                    "time": 31.290731999999984,
                    "velocity": 0.2204724409448819,
                    "duration": 0.8601329687500012
                },
                {
                    "name": "D4",
                    "midi": 62,
                    "time": 31.290731999999984,
                    "velocity": 0.25984251968503935,
                    "duration": 0.8601329687500012
                },
                {
                    "name": "D5",
                    "midi": 74,
                    "time": 32.15991899999999,
                    "velocity": 0.3700787401574803,
                    "duration": 2.607561000000004
                },
                {
                    "name": "D4",
                    "midi": 62,
                    "time": 33.029105999999985,
                    "velocity": 0.2204724409448819,
                    "duration": 0.8601329687500012
                },
                {
                    "name": "G4",
                    "midi": 67,
                    "time": 33.029105999999985,
                    "velocity": 0.25984251968503935,
                    "duration": 0.8601329687500012
                },
                {
                    "name": "D4",
                    "midi": 62,
                    "time": 33.89829299999999,
                    "velocity": 0.2204724409448819,
                    "duration": 0.8601329687500012
                },
                {
                    "name": "G4",
                    "midi": 67,
                    "time": 33.89829299999999,
                    "velocity": 0.25984251968503935,
                    "duration": 0.8601329687500012
                },
                {
                    "name": "C5",
                    "midi": 72,
                    "time": 34.76747999999999,
                    "velocity": 0.3700787401574803,
                    "duration": 2.607561000000004
                },
                {
                    "name": "C4",
                    "midi": 60,
                    "time": 35.63666699999999,
                    "velocity": 0.1732283464566929,
                    "duration": 0.8601329687500012
                },
                {
                    "name": "D#4",
                    "midi": 63,
                    "time": 35.63666699999999,
                    "velocity": 0.18110236220472442,
                    "duration": 0.8601329687500012
                },
                {
                    "name": "G4",
                    "midi": 67,
                    "time": 35.63666699999999,
                    "velocity": 0.2204724409448819,
                    "duration": 0.8601329687500012
                },
                {
                    "name": "C4",
                    "midi": 60,
                    "time": 36.50585399999999,
                    "velocity": 0.1732283464566929,
                    "duration": 0.8601329687500012
                },
                {
                    "name": "D#4",
                    "midi": 63,
                    "time": 36.50585399999999,
                    "velocity": 0.18110236220472442,
                    "duration": 0.8601329687500012
                },
                {
                    "name": "G4",
                    "midi": 67,
                    "time": 36.50585399999999,
                    "velocity": 0.2204724409448819,
                    "duration": 0.8601329687500012
                },
                {
                    "name": "C4",
                    "midi": 60,
                    "time": 37.809634499999994,
                    "velocity": 0.3779527559055118,
                    "duration": 2.1729674999999915
                },
                {
                    "name": "D4",
                    "midi": 62,
                    "time": 38.24422799999999,
                    "velocity": 0.3464566929133858,
                    "duration": 1.7383739999999932
                },
                {
                    "name": "F#4",
                    "midi": 66,
                    "time": 38.67882149999999,
                    "velocity": 0.3464566929133858,
                    "duration": 0.4345934999999983
                },
                {
                    "name": "A#4",
                    "midi": 70,
                    "time": 39.11341499999999,
                    "velocity": 0.3858267716535433,
                    "duration": 0.4345934999999983
                },
                {
                    "name": "A4",
                    "midi": 69,
                    "time": 39.54800849999999,
                    "velocity": 0.3700787401574803,
                    "duration": 0.4345934999999983
                },
                {
                    "name": "G4",
                    "midi": 67,
                    "time": 39.982601999999986,
                    "velocity": 0.3464566929133858,
                    "duration": 2.607561000000004
                },
                {
                    "name": "A#3",
                    "midi": 58,
                    "time": 40.85178899999998,
                    "velocity": 0.2204724409448819,
                    "duration": 0.8601329687500012
                },
                {
                    "name": "D4",
                    "midi": 62,
                    "time": 40.85178899999998,
                    "velocity": 0.25984251968503935,
                    "duration": 0.8601329687500012
                },
                {
                    "name": "A#3",
                    "midi": 58,
                    "time": 41.720975999999986,
                    "velocity": 0.2204724409448819,
                    "duration": 0.8601329687500012
                },
                {
                    "name": "D4",
                    "midi": 62,
                    "time": 41.720975999999986,
                    "velocity": 0.25984251968503935,
                    "duration": 0.8601329687500012
                },
                {
                    "name": "E4",
                    "midi": 64,
                    "time": 42.59016299999999,
                    "velocity": 0.3464566929133858,
                    "duration": 2.607561000000004
                },
                {
                    "name": "A3",
                    "midi": 57,
                    "time": 43.459349999999986,
                    "velocity": 0.2204724409448819,
                    "duration": 0.8601329687500012
                },
                {
                    "name": "G3",
                    "midi": 55,
                    "time": 43.459349999999986,
                    "velocity": 0.2204724409448819,
                    "duration": 0.8601329687500012
                },
                {
                    "name": "C#4",
                    "midi": 61,
                    "time": 43.459349999999986,
                    "velocity": 0.25984251968503935,
                    "duration": 0.8601329687500012
                },
                {
                    "name": "A3",
                    "midi": 57,
                    "time": 44.32853699999999,
                    "velocity": 0.2204724409448819,
                    "duration": 0.8601329687500012
                },
                {
                    "name": "G3",
                    "midi": 55,
                    "time": 44.32853699999999,
                    "velocity": 0.2204724409448819,
                    "duration": 0.8601329687500012
                },
                {
                    "name": "C#4",
                    "midi": 61,
                    "time": 44.32853699999999,
                    "velocity": 0.25984251968503935,
                    "duration": 0.8601329687500012
                },
                {
                    "name": "F#4",
                    "midi": 66,
                    "time": 45.197723999999994,
                    "velocity": 0.3464566929133858,
                    "duration": 2.607561000000004
                },
                {
                    "name": "F#3",
                    "midi": 54,
                    "time": 46.06691099999999,
                    "velocity": 0.15748031496062992,
                    "duration": 0.8601329687500012
                },
                {
                    "name": "A3",
                    "midi": 57,
                    "time": 46.06691099999999,
                    "velocity": 0.18110236220472442,
                    "duration": 0.8601329687500012
                },
                {
                    "name": "D4",
                    "midi": 62,
                    "time": 46.06691099999999,
                    "velocity": 0.2204724409448819,
                    "duration": 0.8601329687500012
                },
                {
                    "name": "F#3",
                    "midi": 54,
                    "time": 46.936097999999994,
                    "velocity": 0.15748031496062992,
                    "duration": 0.8601329687500012
                },
                {
                    "name": "A3",
                    "midi": 57,
                    "time": 46.936097999999994,
                    "velocity": 0.18110236220472442,
                    "duration": 0.8601329687500012
                },
                {
                    "name": "D4",
                    "midi": 62,
                    "time": 46.936097999999994,
                    "velocity": 0.2204724409448819,
                    "duration": 0.8601329687500012
                },
                {
                    "name": "C4",
                    "midi": 60,
                    "time": 48.239878499999996,
                    "velocity": 0.3779527559055118,
                    "duration": 2.1729674999999915
                },
                {
                    "name": "D4",
                    "midi": 62,
                    "time": 48.674471999999994,
                    "velocity": 0.3464566929133858,
                    "duration": 1.7383739999999932
                },
                {
                    "name": "F#4",
                    "midi": 66,
                    "time": 49.10906549999999,
                    "velocity": 0.3464566929133858,
                    "duration": 0.4345934999999983
                },
                {
                    "name": "A#4",
                    "midi": 70,
                    "time": 49.54365899999999,
                    "velocity": 0.3858267716535433,
                    "duration": 0.4345934999999983
                },
                {
                    "name": "A4",
                    "midi": 69,
                    "time": 49.97825249999999,
                    "velocity": 0.3700787401574803,
                    "duration": 0.4345934999999983
                },
                {
                    "name": "G4",
                    "midi": 67,
                    "time": 50.41284599999999,
                    "velocity": 0.3464566929133858,
                    "duration": 2.607561000000004
                },
                {
                    "name": "A#3",
                    "midi": 58,
                    "time": 51.282032999999984,
                    "velocity": 0.2204724409448819,
                    "duration": 0.8601329687500012
                },
                {
                    "name": "D4",
                    "midi": 62,
                    "time": 51.282032999999984,
                    "velocity": 0.25984251968503935,
                    "duration": 0.8601329687500012
                },
                {
                    "name": "A#3",
                    "midi": 58,
                    "time": 52.15121999999999,
                    "velocity": 0.2204724409448819,
                    "duration": 0.8601329687500012
                },
                {
                    "name": "D4",
                    "midi": 62,
                    "time": 52.15121999999999,
                    "velocity": 0.25984251968503935,
                    "duration": 0.8601329687500012
                },
                {
                    "name": "G5",
                    "midi": 79,
                    "time": 53.02040699999999,
                    "velocity": 0.41732283464566927,
                    "duration": 2.607561000000004
                },
                {
                    "name": "A#4",
                    "midi": 70,
                    "time": 53.88959399999999,
                    "velocity": 0.2204724409448819,
                    "duration": 0.8601329687500012
                },
                {
                    "name": "G4",
                    "midi": 67,
                    "time": 53.88959399999999,
                    "velocity": 0.2204724409448819,
                    "duration": 0.8601329687500012
                },
                {
                    "name": "C#5",
                    "midi": 73,
                    "time": 53.88959399999999,
                    "velocity": 0.25984251968503935,
                    "duration": 0.8601329687500012
                },
                {
                    "name": "A#4",
                    "midi": 70,
                    "time": 54.75878099999999,
                    "velocity": 0.2204724409448819,
                    "duration": 0.8601329687500012
                },
                {
                    "name": "G4",
                    "midi": 67,
                    "time": 54.75878099999999,
                    "velocity": 0.2204724409448819,
                    "duration": 0.8601329687500012
                },
                {
                    "name": "C#5",
                    "midi": 73,
                    "time": 54.75878099999999,
                    "velocity": 0.25984251968503935,
                    "duration": 0.8601329687500012
                },
                {
                    "name": "F5",
                    "midi": 77,
                    "time": 55.627967999999996,
                    "velocity": 0.3937007874015748,
                    "duration": 2.607561000000004
                },
                {
                    "name": "A#4",
                    "midi": 70,
                    "time": 56.49715499999999,
                    "velocity": 0.2283464566929134,
                    "duration": 0.8601329687500012
                },
                {
                    "name": "C5",
                    "midi": 72,
                    "time": 56.49715499999999,
                    "velocity": 0.2677165354330709,
                    "duration": 0.8601329687500012
                },
                {
                    "name": "A#4",
                    "midi": 70,
                    "time": 57.366341999999996,
                    "velocity": 0.2283464566929134,
                    "duration": 0.8601329687500012
                },
                {
                    "name": "C5",
                    "midi": 72,
                    "time": 57.366341999999996,
                    "velocity": 0.2755905511811024,
                    "duration": 0.8601329687500012
                },
                {
                    "name": "D#4",
                    "midi": 63,
                    "time": 58.235529,
                    "velocity": 0.3779527559055118,
                    "duration": 2.60756099999999
                },
                {
                    "name": "F4",
                    "midi": 65,
                    "time": 58.6701225,
                    "velocity": 0.3779527559055118,
                    "duration": 0.4345934999999983
                },
                {
                    "name": "A4",
                    "midi": 69,
                    "time": 59.104715999999996,
                    "velocity": 0.3464566929133858,
                    "duration": 1.7383739999999932
                },
                {
                    "name": "D#5",
                    "midi": 75,
                    "time": 59.539309499999995,
                    "velocity": 0.36220472440944884,
                    "duration": 0.4345934999999983
                },
                {
                    "name": "D5",
                    "midi": 74,
                    "time": 59.97390299999999,
                    "velocity": 0.4015748031496063,
                    "duration": 0.4345934999999983
                },
                {
                    "name": "C#5",
                    "midi": 73,
                    "time": 60.625793249999994,
                    "velocity": 0.3858267716535433,
                    "duration": 0.19918868749999774
                },
                {
                    "name": "C#5",
                    "midi": 73,
                    "time": 60.84308999999999,
                    "velocity": 0.36220472440944884,
                    "duration": 2.607561000000004
                },
                {
                    "name": "D#4",
                    "midi": 63,
                    "time": 61.712276999999986,
                    "velocity": 0.15748031496062992,
                    "duration": 0.8601329687500012
                },
                {
                    "name": "F4",
                    "midi": 65,
                    "time": 61.712276999999986,
                    "velocity": 0.18110236220472442,
                    "duration": 0.8601329687500012
                },
                {
                    "name": "A4",
                    "midi": 69,
                    "time": 61.712276999999986,
                    "velocity": 0.2204724409448819,
                    "duration": 0.8601329687500012
                },
                {
                    "name": "D#4",
                    "midi": 63,
                    "time": 62.58146399999999,
                    "velocity": 0.15748031496062992,
                    "duration": 0.8601329687500012
                },
                {
                    "name": "F4",
                    "midi": 65,
                    "time": 62.58146399999999,
                    "velocity": 0.18110236220472442,
                    "duration": 0.8601329687500012
                },
                {
                    "name": "A4",
                    "midi": 69,
                    "time": 62.58146399999999,
                    "velocity": 0.2204724409448819,
                    "duration": 0.8601329687500012
                },
                {
                    "name": "D5",
                    "midi": 74,
                    "time": 63.45065099999999,
                    "velocity": 0.36220472440944884,
                    "duration": 2.60756099999999
                },
                {
                    "name": "F4",
                    "midi": 65,
                    "time": 64.31983799999999,
                    "velocity": 0.18110236220472442,
                    "duration": 0.8601329687499941
                },
                {
                    "name": "D4",
                    "midi": 62,
                    "time": 64.31983799999999,
                    "velocity": 0.14960629921259844,
                    "duration": 0.8601329687499941
                },
                {
                    "name": "A#4",
                    "midi": 70,
                    "time": 64.31983799999999,
                    "velocity": 0.2204724409448819,
                    "duration": 0.8601329687499941
                },
                {
                    "name": "F4",
                    "midi": 65,
                    "time": 65.18902499999999,
                    "velocity": 0.18110236220472442,
                    "duration": 0.8601329687499941
                },
                {
                    "name": "D4",
                    "midi": 62,
                    "time": 65.18902499999999,
                    "velocity": 0.14173228346456693,
                    "duration": 0.8601329687499941
                },
                {
                    "name": "A#4",
                    "midi": 70,
                    "time": 65.18902499999999,
                    "velocity": 0.2204724409448819,
                    "duration": 0.8601329687499941
                },
                {
                    "name": "C5",
                    "midi": 72,
                    "time": 66.05821199999998,
                    "velocity": 0.3700787401574803,
                    "duration": 2.60756099999999
                },
                {
                    "name": "D#4",
                    "midi": 63,
                    "time": 66.92739899999998,
                    "velocity": 0.2204724409448819,
                    "duration": 0.8601329687499941
                },
                {
                    "name": "G4",
                    "midi": 67,
                    "time": 66.92739899999998,
                    "velocity": 0.25984251968503935,
                    "duration": 0.8601329687499941
                },
                {
                    "name": "D#4",
                    "midi": 63,
                    "time": 67.79658599999998,
                    "velocity": 0.2204724409448819,
                    "duration": 0.8601329687499941
                },
                {
                    "name": "G4",
                    "midi": 67,
                    "time": 67.79658599999998,
                    "velocity": 0.2677165354330709,
                    "duration": 0.8601329687499941
                },
                {
                    "name": "C4",
                    "midi": 60,
                    "time": 69.10036649999998,
                    "velocity": 0.3779527559055118,
                    "duration": 2.172967500000027
                },
                {
                    "name": "D4",
                    "midi": 62,
                    "time": 69.53495999999998,
                    "velocity": 0.3464566929133858,
                    "duration": 1.7383740000000216
                },
                {
                    "name": "F#4",
                    "midi": 66,
                    "time": 69.96955349999999,
                    "velocity": 0.3464566929133858,
                    "duration": 0.4345935000000054
                },
                {
                    "name": "A#4",
                    "midi": 70,
                    "time": 70.404147,
                    "velocity": 0.3858267716535433,
                    "duration": 0.4345935000000054
                },
                {
                    "name": "A4",
                    "midi": 69,
                    "time": 70.8387405,
                    "velocity": 0.3700787401574803,
                    "duration": 0.4345935000000054
                },
                {
                    "name": "G4",
                    "midi": 67,
                    "time": 71.273334,
                    "velocity": 0.3464566929133858,
                    "duration": 2.60756099999999
                },
                {
                    "name": "A#3",
                    "midi": 58,
                    "time": 72.142521,
                    "velocity": 0.2204724409448819,
                    "duration": 0.8601329687499941
                },
                {
                    "name": "D4",
                    "midi": 62,
                    "time": 72.142521,
                    "velocity": 0.25984251968503935,
                    "duration": 0.8601329687499941
                },
                {
                    "name": "A#3",
                    "midi": 58,
                    "time": 73.011708,
                    "velocity": 0.2204724409448819,
                    "duration": 0.8601329687499941
                },
                {
                    "name": "D4",
                    "midi": 62,
                    "time": 73.011708,
                    "velocity": 0.25984251968503935,
                    "duration": 0.8601329687499941
                },
                {
                    "name": "D5",
                    "midi": 74,
                    "time": 73.880895,
                    "velocity": 0.3700787401574803,
                    "duration": 2.60756099999999
                },
                {
                    "name": "D4",
                    "midi": 62,
                    "time": 74.75008199999999,
                    "velocity": 0.2204724409448819,
                    "duration": 0.8601329687499941
                },
                {
                    "name": "G4",
                    "midi": 67,
                    "time": 74.75008199999999,
                    "velocity": 0.25984251968503935,
                    "duration": 0.8601329687499941
                },
                {
                    "name": "D4",
                    "midi": 62,
                    "time": 75.61926899999999,
                    "velocity": 0.2204724409448819,
                    "duration": 0.8601329687499941
                },
                {
                    "name": "G4",
                    "midi": 67,
                    "time": 75.61926899999999,
                    "velocity": 0.25984251968503935,
                    "duration": 0.8601329687499941
                },
                {
                    "name": "C5",
                    "midi": 72,
                    "time": 76.48845599999999,
                    "velocity": 0.3700787401574803,
                    "duration": 2.60756099999999
                },
                {
                    "name": "C4",
                    "midi": 60,
                    "time": 77.35764299999998,
                    "velocity": 0.18110236220472442,
                    "duration": 0.8601329687499941
                },
                {
                    "name": "D#4",
                    "midi": 63,
                    "time": 77.35764299999998,
                    "velocity": 0.18110236220472442,
                    "duration": 0.8601329687499941
                },
                {
                    "name": "G4",
                    "midi": 67,
                    "time": 77.35764299999998,
                    "velocity": 0.2204724409448819,
                    "duration": 0.8601329687499941
                },
                {
                    "name": "C4",
                    "midi": 60,
                    "time": 78.22682999999998,
                    "velocity": 0.18110236220472442,
                    "duration": 0.8601329687499941
                },
                {
                    "name": "D#4",
                    "midi": 63,
                    "time": 78.22682999999998,
                    "velocity": 0.18110236220472442,
                    "duration": 0.8601329687499941
                },
                {
                    "name": "G4",
                    "midi": 67,
                    "time": 78.22682999999998,
                    "velocity": 0.2204724409448819,
                    "duration": 0.8601329687499941
                },
                {
                    "name": "C4",
                    "midi": 60,
                    "time": 79.53061049999998,
                    "velocity": 0.3779527559055118,
                    "duration": 2.172967500000027
                },
                {
                    "name": "D4",
                    "midi": 62,
                    "time": 79.96520399999999,
                    "velocity": 0.3464566929133858,
                    "duration": 1.7383740000000216
                },
                {
                    "name": "F#4",
                    "midi": 66,
                    "time": 80.39979749999999,
                    "velocity": 0.3464566929133858,
                    "duration": 0.4345935000000054
                },
                {
                    "name": "A#4",
                    "midi": 70,
                    "time": 80.834391,
                    "velocity": 0.3858267716535433,
                    "duration": 0.4345935000000054
                },
                {
                    "name": "A4",
                    "midi": 69,
                    "time": 81.2689845,
                    "velocity": 0.3700787401574803,
                    "duration": 0.4345935000000054
                },
                {
                    "name": "G4",
                    "midi": 67,
                    "time": 81.70357800000001,
                    "velocity": 0.3464566929133858,
                    "duration": 2.60756099999999
                },
                {
                    "name": "A#3",
                    "midi": 58,
                    "time": 82.572765,
                    "velocity": 0.2204724409448819,
                    "duration": 0.8601329687499941
                },
                {
                    "name": "D4",
                    "midi": 62,
                    "time": 82.572765,
                    "velocity": 0.25984251968503935,
                    "duration": 0.8601329687499941
                },
                {
                    "name": "A#3",
                    "midi": 58,
                    "time": 83.441952,
                    "velocity": 0.2204724409448819,
                    "duration": 0.8601329687499941
                },
                {
                    "name": "D4",
                    "midi": 62,
                    "time": 83.441952,
                    "velocity": 0.25984251968503935,
                    "duration": 0.8601329687499941
                },
                {
                    "name": "E4",
                    "midi": 64,
                    "time": 84.311139,
                    "velocity": 0.3464566929133858,
                    "duration": 2.60756099999999
                },
                {
                    "name": "A3",
                    "midi": 57,
                    "time": 85.180326,
                    "velocity": 0.18110236220472442,
                    "duration": 0.8601329687499941
                },
                {
                    "name": "G3",
                    "midi": 55,
                    "time": 85.180326,
                    "velocity": 0.18110236220472442,
                    "duration": 0.8601329687499941
                },
                {
                    "name": "C#4",
                    "midi": 61,
                    "time": 85.180326,
                    "velocity": 0.2204724409448819,
                    "duration": 0.8601329687499941
                },
                {
                    "name": "A3",
                    "midi": 57,
                    "time": 86.04951299999999,
                    "velocity": 0.18110236220472442,
                    "duration": 0.8601329687499941
                },
                {
                    "name": "G3",
                    "midi": 55,
                    "time": 86.04951299999999,
                    "velocity": 0.18110236220472442,
                    "duration": 0.8601329687499941
                },
                {
                    "name": "C#4",
                    "midi": 61,
                    "time": 86.04951299999999,
                    "velocity": 0.2204724409448819,
                    "duration": 0.8601329687499941
                },
                {
                    "name": "F#4",
                    "midi": 66,
                    "time": 86.91869999999999,
                    "velocity": 0.3464566929133858,
                    "duration": 2.60756099999999
                },
                {
                    "name": "F#3",
                    "midi": 54,
                    "time": 87.78788699999998,
                    "velocity": 0.13385826771653545,
                    "duration": 0.8601329687499941
                },
                {
                    "name": "A3",
                    "midi": 57,
                    "time": 87.78788699999998,
                    "velocity": 0.14960629921259844,
                    "duration": 0.8601329687499941
                },
                {
                    "name": "D4",
                    "midi": 62,
                    "time": 87.78788699999998,
                    "velocity": 0.18110236220472442,
                    "duration": 0.8601329687499941
                },
                {
                    "name": "F#3",
                    "midi": 54,
                    "time": 88.65707399999998,
                    "velocity": 0.13385826771653545,
                    "duration": 0.8601329687499941
                },
                {
                    "name": "A3",
                    "midi": 57,
                    "time": 88.65707399999998,
                    "velocity": 0.14960629921259844,
                    "duration": 0.8601329687499941
                },
                {
                    "name": "D4",
                    "midi": 62,
                    "time": 88.65707399999998,
                    "velocity": 0.18110236220472442,
                    "duration": 0.8601329687499941
                },
                {
                    "name": "C4",
                    "midi": 60,
                    "time": 89.96085449999998,
                    "velocity": 0.3779527559055118,
                    "duration": 2.172967500000027
                },
                {
                    "name": "D4",
                    "midi": 62,
                    "time": 90.39544799999999,
                    "velocity": 0.3464566929133858,
                    "duration": 1.7383740000000216
                },
                {
                    "name": "F#4",
                    "midi": 66,
                    "time": 90.8300415,
                    "velocity": 0.3464566929133858,
                    "duration": 0.4345935000000054
                },
                {
                    "name": "A#4",
                    "midi": 70,
                    "time": 91.264635,
                    "velocity": 0.3858267716535433,
                    "duration": 0.4345935000000054
                },
                {
                    "name": "A4",
                    "midi": 69,
                    "time": 91.6992285,
                    "velocity": 0.3700787401574803,
                    "duration": 0.4345935000000054
                },
                {
                    "name": "G4",
                    "midi": 67,
                    "time": 92.13382200000001,
                    "velocity": 0.3464566929133858,
                    "duration": 2.60756099999999
                },
                {
                    "name": "D4",
                    "midi": 62,
                    "time": 93.003009,
                    "velocity": 0.2204724409448819,
                    "duration": 0.8601329687499941
                },
                {
                    "name": "B3",
                    "midi": 59,
                    "time": 93.003009,
                    "velocity": 0.2204724409448819,
                    "duration": 0.8601329687499941
                },
                {
                    "name": "F4",
                    "midi": 65,
                    "time": 93.003009,
                    "velocity": 0.25984251968503935,
                    "duration": 0.8601329687499941
                },
                {
                    "name": "D4",
                    "midi": 62,
                    "time": 93.872196,
                    "velocity": 0.2204724409448819,
                    "duration": 0.8601329687499941
                },
                {
                    "name": "B3",
                    "midi": 59,
                    "time": 93.872196,
                    "velocity": 0.2204724409448819,
                    "duration": 0.8601329687499941
                },
                {
                    "name": "F4",
                    "midi": 65,
                    "time": 93.872196,
                    "velocity": 0.25984251968503935,
                    "duration": 0.8601329687499941
                },
                {
                    "name": "G5",
                    "midi": 79,
                    "time": 94.741383,
                    "velocity": 0.4566929133858268,
                    "duration": 2.60756099999999
                },
                {
                    "name": "F4",
                    "midi": 65,
                    "time": 95.61057,
                    "velocity": 0.2204724409448819,
                    "duration": 0.8601329687499941
                },
                {
                    "name": "B4",
                    "midi": 71,
                    "time": 95.61057,
                    "velocity": 0.2440944881889764,
                    "duration": 0.8601329687499941
                },
                {
                    "name": "G4",
                    "midi": 67,
                    "time": 95.61057,
                    "velocity": 0.2440944881889764,
                    "duration": 0.8601329687499941
                },
                {
                    "name": "D5",
                    "midi": 74,
                    "time": 95.61057,
                    "velocity": 0.28346456692913385,
                    "duration": 0.8601329687499941
                },
                {
                    "name": "F4",
                    "midi": 65,
                    "time": 96.47975699999999,
                    "velocity": 0.25196850393700787,
                    "duration": 0.8601329687499941
                },
                {
                    "name": "B4",
                    "midi": 71,
                    "time": 96.47975699999999,
                    "velocity": 0.25196850393700787,
                    "duration": 0.8601329687499941
                },
                {
                    "name": "G4",
                    "midi": 67,
                    "time": 96.47975699999999,
                    "velocity": 0.2204724409448819,
                    "duration": 0.8601329687499941
                },
                {
                    "name": "D5",
                    "midi": 74,
                    "time": 96.47975699999999,
                    "velocity": 0.29133858267716534,
                    "duration": 0.8601329687499941
                },
                {
                    "name": "G5",
                    "midi": 79,
                    "time": 97.34894399999999,
                    "velocity": 0.4881889763779528,
                    "duration": 2.60756099999999
                },
                {
                    "name": "G4",
                    "midi": 67,
                    "time": 98.21813099999999,
                    "velocity": 0.25984251968503935,
                    "duration": 0.8601329687499941
                },
                {
                    "name": "C5",
                    "midi": 72,
                    "time": 98.21813099999999,
                    "velocity": 0.25984251968503935,
                    "duration": 0.8601329687499941
                },
                {
                    "name": "D#5",
                    "midi": 75,
                    "time": 98.21813099999999,
                    "velocity": 0.30708661417322836,
                    "duration": 0.8601329687499941
                },
                {
                    "name": "G4",
                    "midi": 67,
                    "time": 99.08731799999998,
                    "velocity": 0.2677165354330709,
                    "duration": 0.8601329687499941
                },
                {
                    "name": "C5",
                    "midi": 72,
                    "time": 99.08731799999998,
                    "velocity": 0.2677165354330709,
                    "duration": 0.8601329687499941
                },
                {
                    "name": "D#5",
                    "midi": 75,
                    "time": 99.08731799999998,
                    "velocity": 0.31496062992125984,
                    "duration": 0.8601329687499941
                },
                {
                    "name": "D5",
                    "midi": 74,
                    "time": 99.95650499999998,
                    "velocity": 0.5196850393700787,
                    "duration": 2.60756099999999
                },
                {
                    "name": "D4",
                    "midi": 62,
                    "time": 100.82569199999998,
                    "velocity": 0.2755905511811024,
                    "duration": 0.8601329687499941
                },
                {
                    "name": "G4",
                    "midi": 67,
                    "time": 100.82569199999998,
                    "velocity": 0.3228346456692913,
                    "duration": 0.8601329687499941
                },
                {
                    "name": "D4",
                    "midi": 62,
                    "time": 101.69487899999997,
                    "velocity": 0.28346456692913385,
                    "duration": 0.8601329687499941
                },
                {
                    "name": "G4",
                    "midi": 67,
                    "time": 101.69487899999997,
                    "velocity": 0.33070866141732286,
                    "duration": 0.8601329687499941
                },
                {
                    "name": "C5",
                    "midi": 72,
                    "time": 102.56406599999997,
                    "velocity": 0.4566929133858268,
                    "duration": 2.60756099999999
                },
                {
                    "name": "C4",
                    "midi": 60,
                    "time": 103.43325299999997,
                    "velocity": 0.2755905511811024,
                    "duration": 0.8601329687499941
                },
                {
                    "name": "G4",
                    "midi": 67,
                    "time": 103.43325299999997,
                    "velocity": 0.3228346456692913,
                    "duration": 0.8601329687499941
                },
                {
                    "name": "C4",
                    "midi": 60,
                    "time": 104.30243999999996,
                    "velocity": 0.2677165354330709,
                    "duration": 0.8601329687499941
                },
                {
                    "name": "G4",
                    "midi": 67,
                    "time": 104.30243999999996,
                    "velocity": 0.31496062992125984,
                    "duration": 0.8601329687499941
                },
                {
                    "name": "G4",
                    "midi": 67,
                    "time": 105.17162699999996,
                    "velocity": 0.4881889763779528,
                    "duration": 2.60756099999999
                },
                {
                    "name": "A#3",
                    "midi": 58,
                    "time": 106.04081399999995,
                    "velocity": 0.2440944881889764,
                    "duration": 0.8601329687499941
                },
                {
                    "name": "D4",
                    "midi": 62,
                    "time": 106.04081399999995,
                    "velocity": 0.29133858267716534,
                    "duration": 0.8601329687499941
                },
                {
                    "name": "A#3",
                    "midi": 58,
                    "time": 106.91000099999995,
                    "velocity": 0.23622047244094488,
                    "duration": 0.8601329687499941
                },
                {
                    "name": "D4",
                    "midi": 62,
                    "time": 106.91000099999995,
                    "velocity": 0.28346456692913385,
                    "duration": 0.8601329687499941
                },
                {
                    "name": "G5",
                    "midi": 79,
                    "time": 107.77918799999995,
                    "velocity": 0.4881889763779528,
                    "duration": 2.60756099999999
                },
                {
                    "name": "G4",
                    "midi": 67,
                    "time": 108.64837499999994,
                    "velocity": 0.25984251968503935,
                    "duration": 0.8601329687499941
                },
                {
                    "name": "C5",
                    "midi": 72,
                    "time": 108.64837499999994,
                    "velocity": 0.25984251968503935,
                    "duration": 0.8601329687499941
                },
                {
                    "name": "D#5",
                    "midi": 75,
                    "time": 108.64837499999994,
                    "velocity": 0.30708661417322836,
                    "duration": 0.8601329687499941
                },
                {
                    "name": "G4",
                    "midi": 67,
                    "time": 109.51756199999994,
                    "velocity": 0.2677165354330709,
                    "duration": 0.8601329687499941
                },
                {
                    "name": "C5",
                    "midi": 72,
                    "time": 109.51756199999994,
                    "velocity": 0.2677165354330709,
                    "duration": 0.8601329687499941
                },
                {
                    "name": "D#5",
                    "midi": 75,
                    "time": 109.51756199999994,
                    "velocity": 0.31496062992125984,
                    "duration": 0.8601329687499941
                },
                {
                    "name": "D5",
                    "midi": 74,
                    "time": 110.38674899999994,
                    "velocity": 0.4645669291338583,
                    "duration": 2.60756099999999
                },
                {
                    "name": "D4",
                    "midi": 62,
                    "time": 111.25593599999993,
                    "velocity": 0.2755905511811024,
                    "duration": 0.8601329687499941
                },
                {
                    "name": "G4",
                    "midi": 67,
                    "time": 111.25593599999993,
                    "velocity": 0.3228346456692913,
                    "duration": 0.8601329687499941
                },
                {
                    "name": "D4",
                    "midi": 62,
                    "time": 112.12512299999993,
                    "velocity": 0.28346456692913385,
                    "duration": 0.8601329687499941
                },
                {
                    "name": "G4",
                    "midi": 67,
                    "time": 112.12512299999993,
                    "velocity": 0.33070866141732286,
                    "duration": 0.8601329687499941
                },
                {
                    "name": "C5",
                    "midi": 72,
                    "time": 112.99430999999993,
                    "velocity": 0.5039370078740157,
                    "duration": 2.60756099999999
                },
                {
                    "name": "C4",
                    "midi": 60,
                    "time": 113.86349699999992,
                    "velocity": 0.2755905511811024,
                    "duration": 0.8601329687499941
                },
                {
                    "name": "G4",
                    "midi": 67,
                    "time": 113.86349699999992,
                    "velocity": 0.3228346456692913,
                    "duration": 0.8601329687499941
                },
                {
                    "name": "C4",
                    "midi": 60,
                    "time": 114.73268399999992,
                    "velocity": 0.2677165354330709,
                    "duration": 0.8601329687499941
                },
                {
                    "name": "G4",
                    "midi": 67,
                    "time": 114.73268399999992,
                    "velocity": 0.31496062992125984,
                    "duration": 0.8601329687499941
                },
                {
                    "name": "G4",
                    "midi": 67,
                    "time": 115.60187099999992,
                    "velocity": 0.4881889763779528,
                    "duration": 2.60756099999999
                },
                {
                    "name": "A#3",
                    "midi": 58,
                    "time": 116.47105799999991,
                    "velocity": 0.2440944881889764,
                    "duration": 0.8601329687499941
                },
                {
                    "name": "C#4",
                    "midi": 61,
                    "time": 116.47105799999991,
                    "velocity": 0.29133858267716534,
                    "duration": 0.8601329687499941
                },
                {
                    "name": "A#3",
                    "midi": 58,
                    "time": 117.34024499999991,
                    "velocity": 0.23622047244094488,
                    "duration": 0.8601329687499941
                },
                {
                    "name": "C#4",
                    "midi": 61,
                    "time": 117.34024499999991,
                    "velocity": 0.28346456692913385,
                    "duration": 0.8601329687499941
                },
                {
                    "name": "F4",
                    "midi": 65,
                    "time": 118.20943199999991,
                    "velocity": 0.44881889763779526,
                    "duration": 2.60756099999999
                },
                {
                    "name": "A#3",
                    "midi": 58,
                    "time": 119.0786189999999,
                    "velocity": 0.2755905511811024,
                    "duration": 0.8601329687499941
                },
                {
                    "name": "D4",
                    "midi": 62,
                    "time": 119.0786189999999,
                    "velocity": 0.33070866141732286,
                    "duration": 0.8601329687499941
                },
                {
                    "name": "A#3",
                    "midi": 58,
                    "time": 119.9478059999999,
                    "velocity": 0.2755905511811024,
                    "duration": 0.8601329687499941
                },
                {
                    "name": "D4",
                    "midi": 62,
                    "time": 119.9478059999999,
                    "velocity": 0.33070866141732286,
                    "duration": 0.8601329687499941
                },
                {
                    "name": "D5",
                    "midi": 74,
                    "time": 120.8169929999999,
                    "velocity": 0.47244094488188976,
                    "duration": 3.368099624999985
                },
                {
                    "name": "F4",
                    "midi": 65,
                    "time": 121.6861799999999,
                    "velocity": 0.2992125984251969,
                    "duration": 0.8601329687499941
                },
                {
                    "name": "D4",
                    "midi": 62,
                    "time": 121.6861799999999,
                    "velocity": 0.2992125984251969,
                    "duration": 0.8601329687499941
                },
                {
                    "name": "A#4",
                    "midi": 70,
                    "time": 121.6861799999999,
                    "velocity": 0.3543307086614173,
                    "duration": 0.8601329687499941
                },
                {
                    "name": "F4",
                    "midi": 65,
                    "time": 122.55536699999989,
                    "velocity": 0.2992125984251969,
                    "duration": 0.8601329687499941
                },
                {
                    "name": "D4",
                    "midi": 62,
                    "time": 122.55536699999989,
                    "velocity": 0.2992125984251969,
                    "duration": 0.8601329687499941
                },
                {
                    "name": "A#4",
                    "midi": 70,
                    "time": 122.55536699999989,
                    "velocity": 0.3543307086614173,
                    "duration": 0.8601329687499941
                },
                {
                    "name": "D#4",
                    "midi": 63,
                    "time": 123.42455399999989,
                    "velocity": 0.4015748031496063,
                    "duration": 0.8691869999999966
                },
                {
                    "name": "A4",
                    "midi": 69,
                    "time": 123.42455399999989,
                    "velocity": 0.4015748031496063,
                    "duration": 0.8691869999999966
                },
                {
                    "name": "D5",
                    "midi": 74,
                    "time": 124.18509262499988,
                    "velocity": 0.4330708661417323,
                    "duration": 0.10864837500000135
                },
                {
                    "name": "D#4",
                    "midi": 63,
                    "time": 124.29374099999988,
                    "velocity": 0.3779527559055118,
                    "duration": 0.8691869999999966
                },
                {
                    "name": "A4",
                    "midi": 69,
                    "time": 124.29374099999988,
                    "velocity": 0.3779527559055118,
                    "duration": 0.8691869999999966
                },
                {
                    "name": "C5",
                    "midi": 72,
                    "time": 124.29374099999988,
                    "velocity": 0.4881889763779528,
                    "duration": 0.8691869999999966
                },
                {
                    "name": "D#4",
                    "midi": 63,
                    "time": 125.16292799999988,
                    "velocity": 0.3543307086614173,
                    "duration": 0.8691869999999966
                },
                {
                    "name": "A4",
                    "midi": 69,
                    "time": 125.16292799999988,
                    "velocity": 0.3543307086614173,
                    "duration": 0.8691869999999966
                },
                {
                    "name": "B4",
                    "midi": 71,
                    "time": 125.16292799999988,
                    "velocity": 0.4566929133858268,
                    "duration": 0.8691869999999966
                },
                {
                    "name": "D#4",
                    "midi": 63,
                    "time": 126.03211499999988,
                    "velocity": 0.3937007874015748,
                    "duration": 0.8691869999999966
                },
                {
                    "name": "A4",
                    "midi": 69,
                    "time": 126.03211499999988,
                    "velocity": 0.3937007874015748,
                    "duration": 0.8691869999999966
                },
                {
                    "name": "C5",
                    "midi": 72,
                    "time": 126.03211499999988,
                    "velocity": 0.5118110236220472,
                    "duration": 0.8691869999999966
                },
                {
                    "name": "D#4",
                    "midi": 63,
                    "time": 126.90130199999987,
                    "velocity": 0.3858267716535433,
                    "duration": 0.8691869999999966
                },
                {
                    "name": "A4",
                    "midi": 69,
                    "time": 126.90130199999987,
                    "velocity": 0.3858267716535433,
                    "duration": 0.8691869999999966
                },
                {
                    "name": "D5",
                    "midi": 74,
                    "time": 126.90130199999987,
                    "velocity": 0.5039370078740157,
                    "duration": 0.8691869999999966
                },
                {
                    "name": "D#4",
                    "midi": 63,
                    "time": 127.77048899999987,
                    "velocity": 0.4015748031496063,
                    "duration": 0.8691869999999966
                },
                {
                    "name": "A4",
                    "midi": 69,
                    "time": 127.77048899999987,
                    "velocity": 0.4015748031496063,
                    "duration": 0.8691869999999966
                },
                {
                    "name": "D#5",
                    "midi": 75,
                    "time": 127.77048899999987,
                    "velocity": 0.5196850393700787,
                    "duration": 0.8691869999999966
                },
                {
                    "name": "D#5",
                    "midi": 75,
                    "time": 128.63967599999987,
                    "velocity": 0.5590551181102362,
                    "duration": 2.6075610000000324
                },
                {
                    "name": "D#4",
                    "midi": 63,
                    "time": 129.50886299999988,
                    "velocity": 0.3858267716535433,
                    "duration": 0.8691870000000108
                },
                {
                    "name": "A#4",
                    "midi": 70,
                    "time": 129.50886299999988,
                    "velocity": 0.3858267716535433,
                    "duration": 0.8691870000000108
                },
                {
                    "name": "D#4",
                    "midi": 63,
                    "time": 130.3780499999999,
                    "velocity": 0.3858267716535433,
                    "duration": 0.8691870000000108
                },
                {
                    "name": "A#4",
                    "midi": 70,
                    "time": 130.3780499999999,
                    "velocity": 0.3858267716535433,
                    "duration": 0.8691870000000108
                },
                {
                    "name": "D4",
                    "midi": 62,
                    "time": 131.2472369999999,
                    "velocity": 0.33858267716535434,
                    "duration": 0.8691870000000108
                },
                {
                    "name": "A#4",
                    "midi": 70,
                    "time": 131.2472369999999,
                    "velocity": 0.33858267716535434,
                    "duration": 0.8691870000000108
                },
                {
                    "name": "D5",
                    "midi": 74,
                    "time": 131.2472369999999,
                    "velocity": 0.4409448818897638,
                    "duration": 2.6075610000000324
                },
                {
                    "name": "D4",
                    "midi": 62,
                    "time": 132.1164239999999,
                    "velocity": 0.33858267716535434,
                    "duration": 0.8691870000000108
                },
                {
                    "name": "A#4",
                    "midi": 70,
                    "time": 132.1164239999999,
                    "velocity": 0.33858267716535434,
                    "duration": 0.8691870000000108
                },
                {
                    "name": "D4",
                    "midi": 62,
                    "time": 132.98561099999992,
                    "velocity": 0.33858267716535434,
                    "duration": 0.8691870000000108
                },
                {
                    "name": "A#4",
                    "midi": 70,
                    "time": 132.98561099999992,
                    "velocity": 0.33858267716535434,
                    "duration": 0.8691870000000108
                },
                {
                    "name": "C4",
                    "midi": 60,
                    "time": 133.85479799999993,
                    "velocity": 0.4015748031496063,
                    "duration": 0.8691870000000108
                },
                {
                    "name": "F#4",
                    "midi": 66,
                    "time": 133.85479799999993,
                    "velocity": 0.4015748031496063,
                    "duration": 0.8691870000000108
                },
                {
                    "name": "A#4",
                    "midi": 70,
                    "time": 134.61533662499994,
                    "velocity": 0.3937007874015748,
                    "duration": 0.10864837500000135
                },
                {
                    "name": "C4",
                    "midi": 60,
                    "time": 134.72398499999994,
                    "velocity": 0.3779527559055118,
                    "duration": 0.8691870000000108
                },
                {
                    "name": "F#4",
                    "midi": 66,
                    "time": 134.72398499999994,
                    "velocity": 0.3779527559055118,
                    "duration": 0.8691870000000108
                },
                {
                    "name": "A4",
                    "midi": 69,
                    "time": 134.72398499999994,
                    "velocity": 0.44881889763779526,
                    "duration": 0.8691870000000108
                },
                {
                    "name": "C4",
                    "midi": 60,
                    "time": 135.59317199999995,
                    "velocity": 0.33858267716535434,
                    "duration": 0.8691870000000108
                },
                {
                    "name": "F#4",
                    "midi": 66,
                    "time": 135.59317199999995,
                    "velocity": 0.33858267716535434,
                    "duration": 0.8691870000000108
                },
                {
                    "name": "G#4",
                    "midi": 68,
                    "time": 135.59317199999995,
                    "velocity": 0.4251968503937008,
                    "duration": 0.8691870000000108
                },
                {
                    "name": "C4",
                    "midi": 60,
                    "time": 136.46235899999996,
                    "velocity": 0.3779527559055118,
                    "duration": 0.8691870000000108
                },
                {
                    "name": "F#4",
                    "midi": 66,
                    "time": 136.46235899999996,
                    "velocity": 0.3779527559055118,
                    "duration": 0.8691870000000108
                },
                {
                    "name": "A4",
                    "midi": 69,
                    "time": 136.46235899999996,
                    "velocity": 0.44881889763779526,
                    "duration": 0.8691870000000108
                },
                {
                    "name": "C4",
                    "midi": 60,
                    "time": 137.33154599999997,
                    "velocity": 0.3700787401574803,
                    "duration": 0.8691870000000108
                },
                {
                    "name": "F#4",
                    "midi": 66,
                    "time": 137.33154599999997,
                    "velocity": 0.3700787401574803,
                    "duration": 0.8691870000000108
                },
                {
                    "name": "A#4",
                    "midi": 70,
                    "time": 137.33154599999997,
                    "velocity": 0.4409448818897638,
                    "duration": 0.8691870000000108
                },
                {
                    "name": "C4",
                    "midi": 60,
                    "time": 138.20073299999999,
                    "velocity": 0.3858267716535433,
                    "duration": 0.8691870000000108
                },
                {
                    "name": "F#4",
                    "midi": 66,
                    "time": 138.20073299999999,
                    "velocity": 0.3858267716535433,
                    "duration": 0.8691870000000108
                },
                {
                    "name": "C5",
                    "midi": 72,
                    "time": 138.20073299999999,
                    "velocity": 0.4566929133858268,
                    "duration": 0.8691870000000108
                },
                {
                    "name": "C5",
                    "midi": 72,
                    "time": 139.06992,
                    "velocity": 0.5275590551181102,
                    "duration": 2.6075610000000324
                },
                {
                    "name": "C4",
                    "midi": 60,
                    "time": 139.939107,
                    "velocity": 0.3858267716535433,
                    "duration": 0.8691870000000108
                },
                {
                    "name": "G4",
                    "midi": 67,
                    "time": 139.939107,
                    "velocity": 0.3858267716535433,
                    "duration": 0.8691870000000108
                },
                {
                    "name": "C4",
                    "midi": 60,
                    "time": 140.80829400000002,
                    "velocity": 0.3858267716535433,
                    "duration": 0.8691870000000108
                },
                {
                    "name": "G4",
                    "midi": 67,
                    "time": 140.80829400000002,
                    "velocity": 0.3858267716535433,
                    "duration": 0.8691870000000108
                },
                {
                    "name": "A#3",
                    "midi": 58,
                    "time": 141.67748100000003,
                    "velocity": 0.33858267716535434,
                    "duration": 0.8691870000000108
                },
                {
                    "name": "G4",
                    "midi": 67,
                    "time": 141.67748100000003,
                    "velocity": 0.33858267716535434,
                    "duration": 0.8691870000000108
                },
                {
                    "name": "A#4",
                    "midi": 70,
                    "time": 141.67748100000003,
                    "velocity": 0.4015748031496063,
                    "duration": 2.6075610000000324
                },
                {
                    "name": "A#3",
                    "midi": 58,
                    "time": 142.54666800000004,
                    "velocity": 0.33858267716535434,
                    "duration": 0.8691870000000108
                },
                {
                    "name": "G4",
                    "midi": 67,
                    "time": 142.54666800000004,
                    "velocity": 0.33858267716535434,
                    "duration": 0.8691870000000108
                },
                {
                    "name": "A#3",
                    "midi": 58,
                    "time": 143.41585500000005,
                    "velocity": 0.33858267716535434,
                    "duration": 0.8691870000000108
                },
                {
                    "name": "G4",
                    "midi": 67,
                    "time": 143.41585500000005,
                    "velocity": 0.33858267716535434,
                    "duration": 0.8691870000000108
                },
                {
                    "name": "D#4",
                    "midi": 63,
                    "time": 144.28504200000006,
                    "velocity": 0.3937007874015748,
                    "duration": 0.8691870000000108
                },
                {
                    "name": "G4",
                    "midi": 67,
                    "time": 144.28504200000006,
                    "velocity": 0.3937007874015748,
                    "duration": 0.8691870000000108
                },
                {
                    "name": "A4",
                    "midi": 69,
                    "time": 144.28504200000006,
                    "velocity": 0.4409448818897638,
                    "duration": 2.6075610000000324
                },
                {
                    "name": "D#4",
                    "midi": 63,
                    "time": 145.15422900000007,
                    "velocity": 0.3937007874015748,
                    "duration": 0.8691870000000108
                },
                {
                    "name": "G4",
                    "midi": 67,
                    "time": 145.15422900000007,
                    "velocity": 0.3937007874015748,
                    "duration": 0.8691870000000108
                },
                {
                    "name": "D#4",
                    "midi": 63,
                    "time": 146.02341600000008,
                    "velocity": 0.3937007874015748,
                    "duration": 0.8691870000000108
                },
                {
                    "name": "G4",
                    "midi": 67,
                    "time": 146.02341600000008,
                    "velocity": 0.3937007874015748,
                    "duration": 0.8691870000000108
                },
                {
                    "name": "D4",
                    "midi": 62,
                    "time": 146.8926030000001,
                    "velocity": 0.33070866141732286,
                    "duration": 0.8691870000000108
                },
                {
                    "name": "F#4",
                    "midi": 66,
                    "time": 146.8926030000001,
                    "velocity": 0.33070866141732286,
                    "duration": 0.8691870000000108
                },
                {
                    "name": "A4",
                    "midi": 69,
                    "time": 146.8926030000001,
                    "velocity": 0.4015748031496063,
                    "duration": 2.172967500000027
                },
                {
                    "name": "D4",
                    "midi": 62,
                    "time": 147.7617900000001,
                    "velocity": 0.33070866141732286,
                    "duration": 0.8691870000000108
                },
                {
                    "name": "F#4",
                    "midi": 66,
                    "time": 147.7617900000001,
                    "velocity": 0.33070866141732286,
                    "duration": 0.8691870000000108
                },
                {
                    "name": "D4",
                    "midi": 62,
                    "time": 148.63097700000012,
                    "velocity": 0.33070866141732286,
                    "duration": 0.8691870000000108
                },
                {
                    "name": "F#4",
                    "midi": 66,
                    "time": 148.63097700000012,
                    "velocity": 0.33070866141732286,
                    "duration": 0.8691870000000108
                },
                {
                    "name": "A4",
                    "midi": 69,
                    "time": 149.06557050000012,
                    "velocity": 0.4015748031496063,
                    "duration": 0.2172967500000027
                },
                {
                    "name": "A3",
                    "midi": 57,
                    "time": 149.28286725000012,
                    "velocity": 0.4015748031496063,
                    "duration": 1.0864837500000135
                },
                {
                    "name": "E4",
                    "midi": 64,
                    "time": 149.39151562500012,
                    "velocity": 0.4015748031496063,
                    "duration": 0.9778353750000122
                },
                {
                    "name": "A4",
                    "midi": 69,
                    "time": 149.50016400000013,
                    "velocity": 0.4015748031496063,
                    "duration": 4.345934999999997
                },
                {
                    "name": "A4",
                    "midi": 69,
                    "time": 153.84609900000012,
                    "velocity": 0.5196850393700787,
                    "duration": 1.0864837500000135
                },
                {
                    "name": "A#4",
                    "midi": 70,
                    "time": 154.93258275000014,
                    "velocity": 0.4409448818897638,
                    "duration": 0.2172967500000027
                },
                {
                    "name": "A4",
                    "midi": 69,
                    "time": 155.14987950000014,
                    "velocity": 0.4409448818897638,
                    "duration": 0.2172967500000027
                },
                {
                    "name": "G#4",
                    "midi": 68,
                    "time": 155.36717625000014,
                    "velocity": 0.44881889763779526,
                    "duration": 0.2172967500000027
                },
                {
                    "name": "A4",
                    "midi": 69,
                    "time": 155.58447300000014,
                    "velocity": 0.4566929133858268,
                    "duration": 0.2172967500000027
                },
                {
                    "name": "G5",
                    "midi": 79,
                    "time": 155.80176975000015,
                    "velocity": 0.47244094488188976,
                    "duration": 0.2172967500000027
                },
                {
                    "name": "E5",
                    "midi": 76,
                    "time": 156.01906650000015,
                    "velocity": 0.48031496062992124,
                    "duration": 0.2172967500000027
                },
                {
                    "name": "F5",
                    "midi": 77,
                    "time": 156.23636325000015,
                    "velocity": 0.4881889763779528,
                    "duration": 0.2172967500000027
                },
                {
                    "name": "F5",
                    "midi": 77,
                    "time": 156.45366000000016,
                    "velocity": 0.49606299212598426,
                    "duration": 0.2172967500000027
                },
                {
                    "name": "G6",
                    "midi": 91,
                    "time": 156.67095675000016,
                    "velocity": 0.5039370078740157,
                    "duration": 0.2172967500000027
                },
                {
                    "name": "F6",
                    "midi": 89,
                    "time": 156.88825350000016,
                    "velocity": 0.5196850393700787,
                    "duration": 0.2172967500000027
                },
                {
                    "name": "E6",
                    "midi": 88,
                    "time": 157.10555025000016,
                    "velocity": 0.5196850393700787,
                    "duration": 0.2172967500000027
                },
                {
                    "name": "D#6",
                    "midi": 87,
                    "time": 157.32284700000017,
                    "velocity": 0.5275590551181102,
                    "duration": 0.14486450000001128
                },
                {
                    "name": "C6",
                    "midi": 84,
                    "time": 157.46771150000018,
                    "velocity": 0.4566929133858268,
                    "duration": 0.14486450000001128
                },
                {
                    "name": "A5",
                    "midi": 81,
                    "time": 157.6125760000002,
                    "velocity": 0.4566929133858268,
                    "duration": 0.14486450000001128
                },
                {
                    "name": "A#5",
                    "midi": 82,
                    "time": 157.7574405000002,
                    "velocity": 0.4881889763779528,
                    "duration": 0.14486450000001128
                },
                {
                    "name": "D6",
                    "midi": 86,
                    "time": 157.9023050000002,
                    "velocity": 0.4566929133858268,
                    "duration": 0.14486450000001128
                },
                {
                    "name": "C6",
                    "midi": 84,
                    "time": 158.04716950000022,
                    "velocity": 0.4566929133858268,
                    "duration": 0.14486450000001128
                },
                {
                    "name": "A#5",
                    "midi": 82,
                    "time": 158.19203400000023,
                    "velocity": 0.5196850393700787,
                    "duration": 0.14486450000001128
                },
                {
                    "name": "G5",
                    "midi": 79,
                    "time": 158.33689850000025,
                    "velocity": 0.4566929133858268,
                    "duration": 0.14486450000001128
                },
                {
                    "name": "F5",
                    "midi": 77,
                    "time": 158.48176300000026,
                    "velocity": 0.4566929133858268,
                    "duration": 0.14486450000001128
                },
                {
                    "name": "D5",
                    "midi": 74,
                    "time": 158.62662750000027,
                    "velocity": 0.4881889763779528,
                    "duration": 0.14486450000001128
                },
                {
                    "name": "D#5",
                    "midi": 75,
                    "time": 158.77149200000028,
                    "velocity": 0.4566929133858268,
                    "duration": 0.14486450000001128
                },
                {
                    "name": "E5",
                    "midi": 76,
                    "time": 158.9163565000003,
                    "velocity": 0.4566929133858268,
                    "duration": 0.14486450000001128
                },
                {
                    "name": "F5",
                    "midi": 77,
                    "time": 159.0612210000003,
                    "velocity": 0.49606299212598426,
                    "duration": 0.14486450000001128
                },
                {
                    "name": "F#5",
                    "midi": 78,
                    "time": 159.2060855000003,
                    "velocity": 0.4566929133858268,
                    "duration": 0.14486450000001128
                },
                {
                    "name": "A5",
                    "midi": 81,
                    "time": 159.35095000000032,
                    "velocity": 0.4566929133858268,
                    "duration": 0.14486450000001128
                },
                {
                    "name": "G5",
                    "midi": 79,
                    "time": 159.49581450000034,
                    "velocity": 0.4566929133858268,
                    "duration": 0.14486450000001128
                },
                {
                    "name": "F5",
                    "midi": 77,
                    "time": 159.64067900000035,
                    "velocity": 0.4409448818897638,
                    "duration": 0.14486450000001128
                },
                {
                    "name": "D#5",
                    "midi": 75,
                    "time": 159.78554350000036,
                    "velocity": 0.4409448818897638,
                    "duration": 0.14486450000001128
                },
                {
                    "name": "C#5",
                    "midi": 73,
                    "time": 159.93040800000037,
                    "velocity": 0.5039370078740157,
                    "duration": 0.4345935000000054
                },
                {
                    "name": "D5",
                    "midi": 74,
                    "time": 160.79959500000038,
                    "velocity": 0.5196850393700787,
                    "duration": 2.607561000000004
                },
                {
                    "name": "C5",
                    "midi": 72,
                    "time": 163.40715600000038,
                    "velocity": 0.4409448818897638,
                    "duration": 0.8691870000000108
                },
                {
                    "name": "G4",
                    "midi": 67,
                    "time": 164.2763430000004,
                    "velocity": 0.44881889763779526,
                    "duration": 0.8691870000000108
                },
                {
                    "name": "A#4",
                    "midi": 70,
                    "time": 165.1455300000004,
                    "velocity": 0.4881889763779528,
                    "duration": 2.607561000000004
                },
                {
                    "name": "F#4",
                    "midi": 66,
                    "time": 167.7530910000004,
                    "velocity": 0.41732283464566927,
                    "duration": 2.607561000000004
                },
                {
                    "name": "G4",
                    "midi": 67,
                    "time": 170.3606520000004,
                    "velocity": 0.3700787401574803,
                    "duration": 0.8691870000000108
                },
                {
                    "name": "A#4",
                    "midi": 70,
                    "time": 171.22983900000042,
                    "velocity": 0.2204724409448819,
                    "duration": 0.4345935000000054
                },
                {
                    "name": "A#5",
                    "midi": 82,
                    "time": 171.22983900000042,
                    "velocity": 0.3937007874015748,
                    "duration": 0.4345935000000054
                },
                {
                    "name": "D5",
                    "midi": 74,
                    "time": 171.66443250000043,
                    "velocity": 0.3543307086614173,
                    "duration": 0.4345935000000054
                },
                {
                    "name": "F5",
                    "midi": 77,
                    "time": 172.09902600000044,
                    "velocity": 0.3779527559055118,
                    "duration": 0.4345935000000054
                },
                {
                    "name": "D#5",
                    "midi": 75,
                    "time": 172.53361950000044,
                    "velocity": 0.3543307086614173,
                    "duration": 1.3037804999999878
                },
                {
                    "name": "A4",
                    "midi": 69,
                    "time": 173.83740000000043,
                    "velocity": 0.2440944881889764,
                    "duration": 0.4345935000000054
                },
                {
                    "name": "A5",
                    "midi": 81,
                    "time": 173.83740000000043,
                    "velocity": 0.3937007874015748,
                    "duration": 0.4345935000000054
                },
                {
                    "name": "C#5",
                    "midi": 73,
                    "time": 174.27199350000043,
                    "velocity": 0.3464566929133858,
                    "duration": 0.4345935000000054
                },
                {
                    "name": "D#5",
                    "midi": 75,
                    "time": 174.70658700000044,
                    "velocity": 0.3858267716535433,
                    "duration": 0.4345935000000054
                },
                {
                    "name": "D5",
                    "midi": 74,
                    "time": 175.14118050000044,
                    "velocity": 0.3543307086614173,
                    "duration": 1.3037804999999878
                },
                {
                    "name": "A#4",
                    "midi": 70,
                    "time": 176.44496100000043,
                    "velocity": 0.23622047244094488,
                    "duration": 0.4345935000000054
                },
                {
                    "name": "A#5",
                    "midi": 82,
                    "time": 176.44496100000043,
                    "velocity": 0.3937007874015748,
                    "duration": 0.4345935000000054
                },
                {
                    "name": "D5",
                    "midi": 74,
                    "time": 176.87955450000044,
                    "velocity": 0.3779527559055118,
                    "duration": 0.4345935000000054
                },
                {
                    "name": "F5",
                    "midi": 77,
                    "time": 177.31414800000044,
                    "velocity": 0.3937007874015748,
                    "duration": 0.4345935000000054
                },
                {
                    "name": "D#5",
                    "midi": 75,
                    "time": 177.74874150000045,
                    "velocity": 0.3700787401574803,
                    "duration": 1.3037804999999878
                },
                {
                    "name": "G#4",
                    "midi": 68,
                    "time": 179.05252200000044,
                    "velocity": 0.25196850393700787,
                    "duration": 0.4345935000000054
                },
                {
                    "name": "G#5",
                    "midi": 80,
                    "time": 179.05252200000044,
                    "velocity": 0.4015748031496063,
                    "duration": 0.4345935000000054
                },
                {
                    "name": "C#5",
                    "midi": 73,
                    "time": 179.48711550000044,
                    "velocity": 0.3700787401574803,
                    "duration": 0.4345935000000054
                },
                {
                    "name": "D#5",
                    "midi": 75,
                    "time": 179.92170900000045,
                    "velocity": 0.4094488188976378,
                    "duration": 0.4345935000000054
                },
                {
                    "name": "D5",
                    "midi": 74,
                    "time": 180.35630250000045,
                    "velocity": 0.3700787401574803,
                    "duration": 1.3037804999999878
                },
                {
                    "name": "G4",
                    "midi": 67,
                    "time": 181.66008300000044,
                    "velocity": 0.25196850393700787,
                    "duration": 0.4345935000000054
                },
                {
                    "name": "G5",
                    "midi": 79,
                    "time": 181.66008300000044,
                    "velocity": 0.41732283464566927,
                    "duration": 0.4345935000000054
                },
                {
                    "name": "B4",
                    "midi": 71,
                    "time": 182.09467650000045,
                    "velocity": 0.3937007874015748,
                    "duration": 0.4345935000000054
                },
                {
                    "name": "D5",
                    "midi": 74,
                    "time": 182.52927000000045,
                    "velocity": 0.41732283464566927,
                    "duration": 0.4345935000000054
                },
                {
                    "name": "C5",
                    "midi": 72,
                    "time": 182.96386350000046,
                    "velocity": 0.3858267716535433,
                    "duration": 1.3037804999999878
                },
                {
                    "name": "C4",
                    "midi": 60,
                    "time": 184.26764400000044,
                    "velocity": 0.3228346456692913,
                    "duration": 0.4345935000000054
                },
                {
                    "name": "C5",
                    "midi": 72,
                    "time": 184.26764400000044,
                    "velocity": 0.4251968503937008,
                    "duration": 0.4345935000000054
                },
                {
                    "name": "G#4",
                    "midi": 68,
                    "time": 184.70223750000045,
                    "velocity": 0.3858267716535433,
                    "duration": 0.4345935000000054
                },
                {
                    "name": "A#4",
                    "midi": 70,
                    "time": 185.13683100000046,
                    "velocity": 0.4330708661417323,
                    "duration": 0.4345935000000054
                },
                {
                    "name": "A4",
                    "midi": 69,
                    "time": 185.57142450000046,
                    "velocity": 0.3858267716535433,
                    "duration": 1.3037804999999878
                },
                {
                    "name": "D#4",
                    "midi": 63,
                    "time": 186.87520500000045,
                    "velocity": 0.33858267716535434,
                    "duration": 0.4345935000000054
                },
                {
                    "name": "D#5",
                    "midi": 75,
                    "time": 186.87520500000045,
                    "velocity": 0.4330708661417323,
                    "duration": 0.4345935000000054
                },
                {
                    "name": "B4",
                    "midi": 71,
                    "time": 187.30979850000045,
                    "velocity": 0.41732283464566927,
                    "duration": 0.4345935000000054
                },
                {
                    "name": "D5",
                    "midi": 74,
                    "time": 187.74439200000046,
                    "velocity": 0.4409448818897638,
                    "duration": 0.4345935000000054
                },
                {
                    "name": "C5",
                    "midi": 72,
                    "time": 188.17898550000046,
                    "velocity": 0.4094488188976378,
                    "duration": 1.3037804999999878
                },
                {
                    "name": "D#4",
                    "midi": 63,
                    "time": 189.48276600000045,
                    "velocity": 0.3779527559055118,
                    "duration": 0.4345935000000054
                },
                {
                    "name": "G4",
                    "midi": 67,
                    "time": 189.48276600000045,
                    "velocity": 0.44881889763779526,
                    "duration": 0.8691870000000108
                },
                {
                    "name": "D4",
                    "midi": 62,
                    "time": 189.91735950000046,
                    "velocity": 0.4015748031496063,
                    "duration": 0.4345935000000054
                },
                {
                    "name": "C#4",
                    "midi": 61,
                    "time": 190.35195300000046,
                    "velocity": 0.4094488188976378,
                    "duration": 0.4345935000000054
                },
                {
                    "name": "F#4",
                    "midi": 66,
                    "time": 190.35195300000046,
                    "velocity": 0.3700787401574803,
                    "duration": 0.8691870000000108
                },
                {
                    "name": "A4",
                    "midi": 69,
                    "time": 190.35195300000046,
                    "velocity": 0.44881889763779526,
                    "duration": 0.8691870000000108
                },
                {
                    "name": "C4",
                    "midi": 60,
                    "time": 190.78654650000047,
                    "velocity": 0.4094488188976378,
                    "duration": 0.4345935000000054
                },
                {
                    "name": "A#3",
                    "midi": 58,
                    "time": 191.22114000000047,
                    "velocity": 0.47244094488188976,
                    "duration": 0.8691870000000108
                },
                {
                    "name": "G4",
                    "midi": 67,
                    "time": 191.22114000000047,
                    "velocity": 0.47244094488188976,
                    "duration": 0.8691870000000108
                },
                {
                    "name": "A#4",
                    "midi": 70,
                    "time": 191.22114000000047,
                    "velocity": 0.5590551181102362,
                    "duration": 0.8691870000000108
                },
                {
                    "name": "A#4",
                    "midi": 70,
                    "time": 192.09032700000049,
                    "velocity": 0.4094488188976378,
                    "duration": 1.7383740000000216
                },
                {
                    "name": "A#5",
                    "midi": 82,
                    "time": 192.09032700000049,
                    "velocity": 0.5590551181102362,
                    "duration": 1.7383740000000216
                },
                {
                    "name": "D5",
                    "midi": 74,
                    "time": 192.5249205000005,
                    "velocity": 0.5275590551181102,
                    "duration": 0.4345935000000054
                },
                {
                    "name": "F5",
                    "midi": 77,
                    "time": 192.9595140000005,
                    "velocity": 0.5590551181102362,
                    "duration": 0.4345935000000054
                },
                {
                    "name": "D#5",
                    "midi": 75,
                    "time": 193.3941075000005,
                    "velocity": 0.5196850393700787,
                    "duration": 1.3037805000000162
                },
                {
                    "name": "A4",
                    "midi": 69,
                    "time": 194.69788800000052,
                    "velocity": 0.44881889763779526,
                    "duration": 1.7383740000000216
                },
                {
                    "name": "A5",
                    "midi": 81,
                    "time": 194.69788800000052,
                    "velocity": 0.5590551181102362,
                    "duration": 1.7383740000000216
                },
                {
                    "name": "C#5",
                    "midi": 73,
                    "time": 195.13248150000052,
                    "velocity": 0.5118110236220472,
                    "duration": 0.4345935000000054
                },
                {
                    "name": "D#5",
                    "midi": 75,
                    "time": 195.56707500000053,
                    "velocity": 0.5669291338582677,
                    "duration": 0.4345935000000054
                },
                {
                    "name": "D5",
                    "midi": 74,
                    "time": 196.00166850000053,
                    "velocity": 0.5196850393700787,
                    "duration": 1.3037805000000162
                },
                {
                    "name": "A#4",
                    "midi": 70,
                    "time": 197.30544900000055,
                    "velocity": 0.4409448818897638,
                    "duration": 1.7383740000000216
                },
                {
                    "name": "A#5",
                    "midi": 82,
                    "time": 197.30544900000055,
                    "velocity": 0.5669291338582677,
                    "duration": 1.7383740000000216
                },
                {
                    "name": "D5",
                    "midi": 74,
                    "time": 197.74004250000056,
                    "velocity": 0.5433070866141733,
                    "duration": 0.4345935000000054
                },
                {
                    "name": "F5",
                    "midi": 77,
                    "time": 198.17463600000056,
                    "velocity": 0.5748031496062992,
                    "duration": 0.4345935000000054
                },
                {
                    "name": "D#5",
                    "midi": 75,
                    "time": 198.60922950000057,
                    "velocity": 0.5275590551181102,
                    "duration": 0.4345935000000054
                },
                {
                    "name": "G#4",
                    "midi": 68,
                    "time": 199.91301000000058,
                    "velocity": 0.44881889763779526,
                    "duration": 1.7383740000000216
                },
                {
                    "name": "G#5",
                    "midi": 80,
                    "time": 199.91301000000058,
                    "velocity": 0.5826771653543307,
                    "duration": 1.7383740000000216
                },
                {
                    "name": "C#5",
                    "midi": 73,
                    "time": 200.3476035000006,
                    "velocity": 0.5275590551181102,
                    "duration": 0.4345935000000054
                },
                {
                    "name": "D#5",
                    "midi": 75,
                    "time": 200.7821970000006,
                    "velocity": 0.5826771653543307,
                    "duration": 0.4345935000000054
                },
                {
                    "name": "D5",
                    "midi": 74,
                    "time": 201.2167905000006,
                    "velocity": 0.5275590551181102,
                    "duration": 0.4345935000000054
                },
                {
                    "name": "G4",
                    "midi": 67,
                    "time": 202.52057100000061,
                    "velocity": 0.44881889763779526,
                    "duration": 1.7383740000000216
                },
                {
                    "name": "G5",
                    "midi": 79,
                    "time": 202.52057100000061,
                    "velocity": 0.5905511811023622,
                    "duration": 1.7383740000000216
                },
                {
                    "name": "B4",
                    "midi": 71,
                    "time": 202.95516450000062,
                    "velocity": 0.5590551181102362,
                    "duration": 0.4345935000000054
                },
                {
                    "name": "D5",
                    "midi": 74,
                    "time": 203.38975800000063,
                    "velocity": 0.5905511811023622,
                    "duration": 0.4345935000000054
                },
                {
                    "name": "C5",
                    "midi": 72,
                    "time": 203.82435150000063,
                    "velocity": 0.5511811023622047,
                    "duration": 0.4345935000000054
                },
                {
                    "name": "C4",
                    "midi": 60,
                    "time": 205.12813200000065,
                    "velocity": 0.44881889763779526,
                    "duration": 1.7383740000000216
                },
                {
                    "name": "C5",
                    "midi": 72,
                    "time": 205.12813200000065,
                    "velocity": 0.5905511811023622,
                    "duration": 1.7383740000000216
                },
                {
                    "name": "G#4",
                    "midi": 68,
                    "time": 205.56272550000065,
                    "velocity": 0.5433070866141733,
                    "duration": 0.4345935000000054
                },
                {
                    "name": "A#4",
                    "midi": 70,
                    "time": 205.99731900000066,
                    "velocity": 0.5984251968503937,
                    "duration": 0.4345935000000054
                },
                {
                    "name": "A4",
                    "midi": 69,
                    "time": 206.43191250000066,
                    "velocity": 0.5433070866141733,
                    "duration": 0.4345935000000054
                },
                {
                    "name": "D#4",
                    "midi": 63,
                    "time": 207.73569300000068,
                    "velocity": 0.4645669291338583,
                    "duration": 1.7383740000000216
                },
                {
                    "name": "D#5",
                    "midi": 75,
                    "time": 207.73569300000068,
                    "velocity": 0.5984251968503937,
                    "duration": 1.7383740000000216
                },
                {
                    "name": "B4",
                    "midi": 71,
                    "time": 208.17028650000069,
                    "velocity": 0.5748031496062992,
                    "duration": 0.4345935000000054
                },
                {
                    "name": "D5",
                    "midi": 74,
                    "time": 208.6048800000007,
                    "velocity": 0.6062992125984252,
                    "duration": 0.4345935000000054
                },
                {
                    "name": "C5",
                    "midi": 72,
                    "time": 209.0394735000007,
                    "velocity": 0.5590551181102362,
                    "duration": 0.4345935000000054
                },
                {
                    "name": "F#3",
                    "midi": 54,
                    "time": 210.3432540000007,
                    "velocity": 0.6141732283464567,
                    "duration": 1.7383740000000216
                },
                {
                    "name": "F#4",
                    "midi": 66,
                    "time": 210.3432540000007,
                    "velocity": 0.6141732283464567,
                    "duration": 1.7383740000000216
                },
                {
                    "name": "C#4",
                    "midi": 61,
                    "time": 210.77784750000072,
                    "velocity": 0.5590551181102362,
                    "duration": 0.4345935000000054
                },
                {
                    "name": "D#4",
                    "midi": 63,
                    "time": 211.21244100000072,
                    "velocity": 0.5590551181102362,
                    "duration": 0.4345935000000054
                },
                {
                    "name": "D4",
                    "midi": 62,
                    "time": 211.64703450000073,
                    "velocity": 0.5590551181102362,
                    "duration": 0.4345935000000054
                },
                {
                    "name": "G4",
                    "midi": 67,
                    "time": 212.08162800000073,
                    "velocity": 0.6220472440944882,
                    "duration": 0.4345935000000054
                },
                {
                    "name": "A#3",
                    "midi": 58,
                    "time": 212.08162800000073,
                    "velocity": 0.5275590551181102,
                    "duration": 0.4345935000000054
                },
                {
                    "name": "C4",
                    "midi": 60,
                    "time": 212.51622150000074,
                    "velocity": 0.6141732283464567,
                    "duration": 0.2172967500000027
                },
                {
                    "name": "G3",
                    "midi": 55,
                    "time": 212.51622150000074,
                    "velocity": 0.41732283464566927,
                    "duration": 0.2172967500000027
                },
                {
                    "name": "A#3",
                    "midi": 58,
                    "time": 212.73351825000074,
                    "velocity": 0.5118110236220472,
                    "duration": 0.2172967500000027
                },
                {
                    "name": "A3",
                    "midi": 57,
                    "time": 212.95081500000074,
                    "velocity": 0.5039370078740157,
                    "duration": 0.2172967500000027
                },
                {
                    "name": "G3",
                    "midi": 55,
                    "time": 213.16811175000075,
                    "velocity": 0.5118110236220472,
                    "duration": 0.2172967500000027
                },
                {
                    "name": "A#3",
                    "midi": 58,
                    "time": 213.38540850000075,
                    "velocity": 0.6062992125984252,
                    "duration": 0.4345935000000054
                },
                {
                    "name": "G4",
                    "midi": 67,
                    "time": 213.38540850000075,
                    "velocity": 0.6062992125984252,
                    "duration": 0.4345935000000054
                },
                {
                    "name": "C4",
                    "midi": 60,
                    "time": 213.82000200000076,
                    "velocity": 0.6062992125984252,
                    "duration": 0.2172967500000027
                },
                {
                    "name": "G3",
                    "midi": 55,
                    "time": 213.82000200000076,
                    "velocity": 0.4094488188976378,
                    "duration": 0.2172967500000027
                },
                {
                    "name": "A#3",
                    "midi": 58,
                    "time": 214.03729875000076,
                    "velocity": 0.5039370078740157,
                    "duration": 0.2172967500000027
                },
                {
                    "name": "A3",
                    "midi": 57,
                    "time": 214.25459550000076,
                    "velocity": 0.5039370078740157,
                    "duration": 0.2172967500000027
                },
                {
                    "name": "G3",
                    "midi": 55,
                    "time": 214.47189225000076,
                    "velocity": 0.49606299212598426,
                    "duration": 0.2172967500000027
                },
                {
                    "name": "F4",
                    "midi": 65,
                    "time": 214.68918900000077,
                    "velocity": 0.5433070866141733,
                    "duration": 0.2172967500000027
                },
                {
                    "name": "C4",
                    "midi": 60,
                    "time": 214.90648575000077,
                    "velocity": 0.4094488188976378,
                    "duration": 0.2172967500000027
                },
                {
                    "name": "D#4",
                    "midi": 63,
                    "time": 215.12378250000077,
                    "velocity": 0.4251968503937008,
                    "duration": 0.2172967500000027
                },
                {
                    "name": "F#3",
                    "midi": 54,
                    "time": 215.34107925000077,
                    "velocity": 0.4330708661417323,
                    "duration": 0.2172967500000027
                },
                {
                    "name": "C4",
                    "midi": 60,
                    "time": 215.55837600000078,
                    "velocity": 0.44881889763779526,
                    "duration": 0.2172967500000027
                },
                {
                    "name": "D#4",
                    "midi": 63,
                    "time": 215.77567275000078,
                    "velocity": 0.4566929133858268,
                    "duration": 0.2172967500000027
                },
                {
                    "name": "F#4",
                    "midi": 66,
                    "time": 215.99296950000078,
                    "velocity": 0.47244094488188976,
                    "duration": 0.2172967500000027
                },
                {
                    "name": "C5",
                    "midi": 72,
                    "time": 216.21026625000079,
                    "velocity": 0.4881889763779528,
                    "duration": 0.2172967500000027
                },
                {
                    "name": "F5",
                    "midi": 77,
                    "time": 216.4275630000008,
                    "velocity": 0.49606299212598426,
                    "duration": 0.2172967500000027
                },
                {
                    "name": "D#5",
                    "midi": 75,
                    "time": 216.6448597500008,
                    "velocity": 0.5118110236220472,
                    "duration": 0.2172967500000027
                },
                {
                    "name": "D5",
                    "midi": 74,
                    "time": 216.8621565000008,
                    "velocity": 0.5275590551181102,
                    "duration": 0.2172967500000027
                },
                {
                    "name": "C5",
                    "midi": 72,
                    "time": 217.0794532500008,
                    "velocity": 0.5354330708661418,
                    "duration": 0.2172967500000027
                },
                {
                    "name": "G5",
                    "midi": 79,
                    "time": 217.2967500000008,
                    "velocity": 0.6220472440944882,
                    "duration": 0.2172967500000027
                },
                {
                    "name": "A#4",
                    "midi": 70,
                    "time": 217.2967500000008,
                    "velocity": 0.5275590551181102,
                    "duration": 0.2172967500000027
                },
                {
                    "name": "G4",
                    "midi": 67,
                    "time": 217.7313435000008,
                    "velocity": 0.41732283464566927,
                    "duration": 0.2172967500000027
                },
                {
                    "name": "C5",
                    "midi": 72,
                    "time": 217.7313435000008,
                    "velocity": 0.6141732283464567,
                    "duration": 0.2172967500000027
                },
                {
                    "name": "A#4",
                    "midi": 70,
                    "time": 217.9486402500008,
                    "velocity": 0.5118110236220472,
                    "duration": 0.2172967500000027
                },
                {
                    "name": "A4",
                    "midi": 69,
                    "time": 218.1659370000008,
                    "velocity": 0.5039370078740157,
                    "duration": 0.2172967500000027
                },
                {
                    "name": "G4",
                    "midi": 67,
                    "time": 218.3832337500008,
                    "velocity": 0.5118110236220472,
                    "duration": 0.2172967500000027
                },
                {
                    "name": "A#4",
                    "midi": 70,
                    "time": 218.60053050000081,
                    "velocity": 0.5433070866141733,
                    "duration": 0.4345935000000054
                },
                {
                    "name": "G5",
                    "midi": 79,
                    "time": 218.60053050000081,
                    "velocity": 0.6062992125984252,
                    "duration": 0.4345935000000054
                },
                {
                    "name": "C5",
                    "midi": 72,
                    "time": 219.03512400000082,
                    "velocity": 0.6062992125984252,
                    "duration": 0.2172967500000027
                },
                {
                    "name": "G4",
                    "midi": 67,
                    "time": 219.03512400000082,
                    "velocity": 0.4094488188976378,
                    "duration": 0.2172967500000027
                },
                {
                    "name": "A#4",
                    "midi": 70,
                    "time": 219.25242075000082,
                    "velocity": 0.5039370078740157,
                    "duration": 0.2172967500000027
                },
                {
                    "name": "A4",
                    "midi": 69,
                    "time": 219.46971750000083,
                    "velocity": 0.5039370078740157,
                    "duration": 0.2172967500000027
                },
                {
                    "name": "G4",
                    "midi": 67,
                    "time": 219.68701425000083,
                    "velocity": 0.49606299212598426,
                    "duration": 0.2172967500000027
                },
                {
                    "name": "F5",
                    "midi": 77,
                    "time": 219.90431100000083,
                    "velocity": 0.5433070866141733,
                    "duration": 0.2172967500000027
                },
                {
                    "name": "C5",
                    "midi": 72,
                    "time": 220.12160775000083,
                    "velocity": 0.4094488188976378,
                    "duration": 0.2172967500000027
                },
                {
                    "name": "D#5",
                    "midi": 75,
                    "time": 220.33890450000084,
                    "velocity": 0.4251968503937008,
                    "duration": 0.2172967500000027
                },
                {
                    "name": "F#4",
                    "midi": 66,
                    "time": 220.55620125000084,
                    "velocity": 0.4330708661417323,
                    "duration": 0.2172967500000027
                },
                {
                    "name": "C5",
                    "midi": 72,
                    "time": 220.77349800000084,
                    "velocity": 0.44881889763779526,
                    "duration": 0.2172967500000027
                },
                {
                    "name": "D#5",
                    "midi": 75,
                    "time": 220.99079475000084,
                    "velocity": 0.4566929133858268,
                    "duration": 0.2172967500000027
                },
                {
                    "name": "F#5",
                    "midi": 78,
                    "time": 221.20809150000085,
                    "velocity": 0.47244094488188976,
                    "duration": 0.2172967500000027
                },
                {
                    "name": "C6",
                    "midi": 84,
                    "time": 221.42538825000085,
                    "velocity": 0.4881889763779528,
                    "duration": 0.2172967500000027
                },
                {
                    "name": "F6",
                    "midi": 89,
                    "time": 221.64268500000085,
                    "velocity": 0.49606299212598426,
                    "duration": 0.2172967500000027
                },
                {
                    "name": "D#6",
                    "midi": 87,
                    "time": 221.85998175000086,
                    "velocity": 0.5118110236220472,
                    "duration": 0.2172967500000027
                },
                {
                    "name": "D6",
                    "midi": 86,
                    "time": 222.07727850000086,
                    "velocity": 0.5275590551181102,
                    "duration": 0.2172967500000027
                },
                {
                    "name": "C6",
                    "midi": 84,
                    "time": 222.29457525000086,
                    "velocity": 0.5354330708661418,
                    "duration": 0.2172967500000027
                },
                {
                    "name": "G6",
                    "midi": 91,
                    "time": 222.51187200000086,
                    "velocity": 0.5984251968503937,
                    "duration": 0.2172967500000027
                },
                {
                    "name": "A#5",
                    "midi": 82,
                    "time": 222.51187200000086,
                    "velocity": 0.5039370078740157,
                    "duration": 0.2172967500000027
                },
                {
                    "name": "G6",
                    "midi": 91,
                    "time": 223.16376225000087,
                    "velocity": 0.49606299212598426,
                    "duration": 0.2172967500000027
                },
                {
                    "name": "C7",
                    "midi": 96,
                    "time": 223.16376225000087,
                    "velocity": 0.5905511811023622,
                    "duration": 0.2172967500000027
                },
                {
                    "name": "A#6",
                    "midi": 94,
                    "time": 223.38105900000087,
                    "velocity": 0.5354330708661418,
                    "duration": 0.2172967500000027
                },
                {
                    "name": "D6",
                    "midi": 86,
                    "time": 223.59835575000088,
                    "velocity": 0.5354330708661418,
                    "duration": 0.2172967500000027
                },
                {
                    "name": "A#6",
                    "midi": 94,
                    "time": 223.81565250000088,
                    "velocity": 0.5748031496062992,
                    "duration": 0.2172967500000027
                },
                {
                    "name": "F#6",
                    "midi": 90,
                    "time": 223.81565250000088,
                    "velocity": 0.4881889763779528,
                    "duration": 0.2172967500000027
                },
                {
                    "name": "A6",
                    "midi": 93,
                    "time": 224.03294925000088,
                    "velocity": 0.5275590551181102,
                    "duration": 0.2172967500000027
                },
                {
                    "name": "D6",
                    "midi": 86,
                    "time": 224.25024600000089,
                    "velocity": 0.5196850393700787,
                    "duration": 0.2172967500000027
                },
                {
                    "name": "F#5",
                    "midi": 78,
                    "time": 224.4675427500009,
                    "velocity": 0.47244094488188976,
                    "duration": 0.2172967500000027
                },
                {
                    "name": "A#5",
                    "midi": 82,
                    "time": 224.4675427500009,
                    "velocity": 0.5590551181102362,
                    "duration": 0.2172967500000027
                },
                {
                    "name": "A5",
                    "midi": 81,
                    "time": 224.6848395000009,
                    "velocity": 0.5039370078740157,
                    "duration": 0.2172967500000027
                },
                {
                    "name": "D5",
                    "midi": 74,
                    "time": 224.9021362500009,
                    "velocity": 0.5039370078740157,
                    "duration": 0.2172967500000027
                },
                {
                    "name": "C6",
                    "midi": 84,
                    "time": 225.1194330000009,
                    "velocity": 0.5196850393700787,
                    "duration": 0.2172967500000027
                },
                {
                    "name": "G5",
                    "midi": 79,
                    "time": 225.1194330000009,
                    "velocity": 0.4409448818897638,
                    "duration": 0.2172967500000027
                },
                {
                    "name": "A#5",
                    "midi": 82,
                    "time": 225.3367297500009,
                    "velocity": 0.47244094488188976,
                    "duration": 0.2172967500000027
                },
                {
                    "name": "D6",
                    "midi": 86,
                    "time": 225.5540265000009,
                    "velocity": 0.47244094488188976,
                    "duration": 0.2172967500000027
                },
                {
                    "name": "G6",
                    "midi": 91,
                    "time": 225.7713232500009,
                    "velocity": 0.4881889763779528,
                    "duration": 0.2172967500000027
                },
                {
                    "name": "C7",
                    "midi": 96,
                    "time": 225.7713232500009,
                    "velocity": 0.5826771653543307,
                    "duration": 0.2172967500000027
                },
                {
                    "name": "A#6",
                    "midi": 94,
                    "time": 225.9886200000009,
                    "velocity": 0.5354330708661418,
                    "duration": 0.2172967500000027
                },
                {
                    "name": "D6",
                    "midi": 86,
                    "time": 226.2059167500009,
                    "velocity": 0.5433070866141733,
                    "duration": 0.2172967500000027
                },
                {
                    "name": "A#6",
                    "midi": 94,
                    "time": 226.4232135000009,
                    "velocity": 0.5590551181102362,
                    "duration": 0.2172967500000027
                },
                {
                    "name": "F#6",
                    "midi": 90,
                    "time": 226.4232135000009,
                    "velocity": 0.47244094488188976,
                    "duration": 0.2172967500000027
                },
                {
                    "name": "A6",
                    "midi": 93,
                    "time": 226.64051025000091,
                    "velocity": 0.5039370078740157,
                    "duration": 0.2172967500000027
                },
                {
                    "name": "D6",
                    "midi": 86,
                    "time": 226.85780700000092,
                    "velocity": 0.49606299212598426,
                    "duration": 0.2172967500000027
                },
                {
                    "name": "F#5",
                    "midi": 78,
                    "time": 227.07510375000092,
                    "velocity": 0.4409448818897638,
                    "duration": 0.2172967500000027
                },
                {
                    "name": "A#5",
                    "midi": 82,
                    "time": 227.07510375000092,
                    "velocity": 0.5196850393700787,
                    "duration": 0.2172967500000027
                },
                {
                    "name": "A5",
                    "midi": 81,
                    "time": 227.29240050000092,
                    "velocity": 0.47244094488188976,
                    "duration": 0.2172967500000027
                },
                {
                    "name": "D5",
                    "midi": 74,
                    "time": 227.50969725000093,
                    "velocity": 0.47244094488188976,
                    "duration": 0.2172967500000027
                },
                {
                    "name": "G5",
                    "midi": 79,
                    "time": 227.72699400000093,
                    "velocity": 0.4409448818897638,
                    "duration": 0.2172967500000027
                },
                {
                    "name": "C6",
                    "midi": 84,
                    "time": 227.72699400000093,
                    "velocity": 0.5196850393700787,
                    "duration": 0.2172967500000027
                },
                {
                    "name": "A#5",
                    "midi": 82,
                    "time": 227.94429075000093,
                    "velocity": 0.47244094488188976,
                    "duration": 0.2172967500000027
                },
                {
                    "name": "D6",
                    "midi": 86,
                    "time": 228.16158750000093,
                    "velocity": 0.47244094488188976,
                    "duration": 0.2172967500000027
                },
                {
                    "name": "G6",
                    "midi": 91,
                    "time": 228.37888425000094,
                    "velocity": 0.4881889763779528,
                    "duration": 0.2172967500000027
                },
                {
                    "name": "C7",
                    "midi": 96,
                    "time": 228.37888425000094,
                    "velocity": 0.5826771653543307,
                    "duration": 0.2172967500000027
                },
                {
                    "name": "A#6",
                    "midi": 94,
                    "time": 228.59618100000094,
                    "velocity": 0.5354330708661418,
                    "duration": 0.2172967500000027
                },
                {
                    "name": "D6",
                    "midi": 86,
                    "time": 228.81347775000094,
                    "velocity": 0.5433070866141733,
                    "duration": 0.2172967500000027
                },
                {
                    "name": "A#6",
                    "midi": 94,
                    "time": 229.03077450000094,
                    "velocity": 0.5590551181102362,
                    "duration": 0.2172967500000027
                },
                {
                    "name": "F#6",
                    "midi": 90,
                    "time": 229.03077450000094,
                    "velocity": 0.47244094488188976,
                    "duration": 0.2172967500000027
                },
                {
                    "name": "A6",
                    "midi": 93,
                    "time": 229.24807125000095,
                    "velocity": 0.5039370078740157,
                    "duration": 0.2172967500000027
                },
                {
                    "name": "D6",
                    "midi": 86,
                    "time": 229.46536800000095,
                    "velocity": 0.49606299212598426,
                    "duration": 0.2172967500000027
                },
                {
                    "name": "F#5",
                    "midi": 78,
                    "time": 229.68266475000095,
                    "velocity": 0.4409448818897638,
                    "duration": 0.2172967500000027
                },
                {
                    "name": "A#5",
                    "midi": 82,
                    "time": 229.68266475000095,
                    "velocity": 0.5196850393700787,
                    "duration": 0.2172967500000027
                },
                {
                    "name": "A5",
                    "midi": 81,
                    "time": 229.89996150000096,
                    "velocity": 0.47244094488188976,
                    "duration": 0.2172967500000027
                },
                {
                    "name": "D5",
                    "midi": 74,
                    "time": 230.11725825000096,
                    "velocity": 0.47244094488188976,
                    "duration": 0.2172967500000027
                },
                {
                    "name": "C5",
                    "midi": 72,
                    "time": 230.33455500000096,
                    "velocity": 0.4645669291338583,
                    "duration": 0.2172967500000027
                },
                {
                    "name": "G4",
                    "midi": 67,
                    "time": 230.33455500000096,
                    "velocity": 0.3937007874015748,
                    "duration": 0.2172967500000027
                },
                {
                    "name": "A#4",
                    "midi": 70,
                    "time": 230.55185175000096,
                    "velocity": 0.4251968503937008,
                    "duration": 0.2172967500000027
                },
                {
                    "name": "D5",
                    "midi": 74,
                    "time": 230.76914850000097,
                    "velocity": 0.4251968503937008,
                    "duration": 0.2172967500000027
                },
                {
                    "name": "C6",
                    "midi": 84,
                    "time": 230.98644525000097,
                    "velocity": 0.5196850393700787,
                    "duration": 0.2172967500000027
                },
                {
                    "name": "G5",
                    "midi": 79,
                    "time": 230.98644525000097,
                    "velocity": 0.4330708661417323,
                    "duration": 0.2172967500000027
                },
                {
                    "name": "A#5",
                    "midi": 82,
                    "time": 231.20374200000097,
                    "velocity": 0.48031496062992124,
                    "duration": 0.2172967500000027
                },
                {
                    "name": "D5",
                    "midi": 74,
                    "time": 231.42103875000097,
                    "velocity": 0.4881889763779528,
                    "duration": 0.2172967500000027
                },
                {
                    "name": "A#5",
                    "midi": 82,
                    "time": 231.63833550000098,
                    "velocity": 0.49606299212598426,
                    "duration": 0.2172967500000027
                },
                {
                    "name": "F#5",
                    "midi": 78,
                    "time": 231.63833550000098,
                    "velocity": 0.4251968503937008,
                    "duration": 0.2172967500000027
                },
                {
                    "name": "A5",
                    "midi": 81,
                    "time": 231.85563225000098,
                    "velocity": 0.44881889763779526,
                    "duration": 0.2172967500000027
                },
                {
                    "name": "D5",
                    "midi": 74,
                    "time": 232.07292900000098,
                    "velocity": 0.4409448818897638,
                    "duration": 0.2172967500000027
                },
                {
                    "name": "A#4",
                    "midi": 70,
                    "time": 232.29022575000099,
                    "velocity": 0.4645669291338583,
                    "duration": 0.2172967500000027
                },
                {
                    "name": "F#4",
                    "midi": 66,
                    "time": 232.29022575000099,
                    "velocity": 0.3937007874015748,
                    "duration": 0.2172967500000027
                },
                {
                    "name": "A4",
                    "midi": 69,
                    "time": 232.507522500001,
                    "velocity": 0.4251968503937008,
                    "duration": 0.2172967500000027
                },
                {
                    "name": "D4",
                    "midi": 62,
                    "time": 232.724819250001,
                    "velocity": 0.4251968503937008,
                    "duration": 0.2172967500000027
                },
                {
                    "name": "C5",
                    "midi": 72,
                    "time": 232.942116000001,
                    "velocity": 0.4645669291338583,
                    "duration": 0.2172967500000027
                },
                {
                    "name": "G4",
                    "midi": 67,
                    "time": 232.942116000001,
                    "velocity": 0.3937007874015748,
                    "duration": 0.2172967500000027
                },
                {
                    "name": "A#4",
                    "midi": 70,
                    "time": 233.159412750001,
                    "velocity": 0.4251968503937008,
                    "duration": 0.2172967500000027
                },
                {
                    "name": "D5",
                    "midi": 74,
                    "time": 233.376709500001,
                    "velocity": 0.4251968503937008,
                    "duration": 0.2172967500000027
                },
                {
                    "name": "C6",
                    "midi": 84,
                    "time": 233.594006250001,
                    "velocity": 0.4645669291338583,
                    "duration": 0.2172967500000027
                },
                {
                    "name": "G5",
                    "midi": 79,
                    "time": 233.594006250001,
                    "velocity": 0.3858267716535433,
                    "duration": 0.2172967500000027
                },
                {
                    "name": "A#5",
                    "midi": 82,
                    "time": 233.811303000001,
                    "velocity": 0.4251968503937008,
                    "duration": 0.2172967500000027
                },
                {
                    "name": "D5",
                    "midi": 74,
                    "time": 234.028599750001,
                    "velocity": 0.4330708661417323,
                    "duration": 0.2172967500000027
                },
                {
                    "name": "A5",
                    "midi": 81,
                    "time": 234.245896500001,
                    "velocity": 0.4409448818897638,
                    "duration": 0.2172967500000027
                },
                {
                    "name": "D5",
                    "midi": 74,
                    "time": 234.245896500001,
                    "velocity": 0.3779527559055118,
                    "duration": 0.2172967500000027
                },
                {
                    "name": "G5",
                    "midi": 79,
                    "time": 234.463193250001,
                    "velocity": 0.4015748031496063,
                    "duration": 0.2172967500000027
                },
                {
                    "name": "A#4",
                    "midi": 70,
                    "time": 234.68049000000102,
                    "velocity": 0.3937007874015748,
                    "duration": 0.2172967500000027
                },
                {
                    "name": "D#5",
                    "midi": 75,
                    "time": 234.89778675000102,
                    "velocity": 0.41732283464566927,
                    "duration": 0.2172967500000027
                },
                {
                    "name": "A#4",
                    "midi": 70,
                    "time": 234.89778675000102,
                    "velocity": 0.3543307086614173,
                    "duration": 0.2172967500000027
                },
                {
                    "name": "D5",
                    "midi": 74,
                    "time": 235.11508350000102,
                    "velocity": 0.3779527559055118,
                    "duration": 0.2172967500000027
                },
                {
                    "name": "G4",
                    "midi": 67,
                    "time": 235.33238025000102,
                    "velocity": 0.3779527559055118,
                    "duration": 0.2172967500000027
                },
                {
                    "name": "C5",
                    "midi": 72,
                    "time": 235.54967700000103,
                    "velocity": 0.3543307086614173,
                    "duration": 0.2172967500000027
                },
                {
                    "name": "G4",
                    "midi": 67,
                    "time": 235.54967700000103,
                    "velocity": 0.2992125984251969,
                    "duration": 0.2172967500000027
                },
                {
                    "name": "A#4",
                    "midi": 70,
                    "time": 235.76697375000103,
                    "velocity": 0.31496062992125984,
                    "duration": 0.2172967500000027
                },
                {
                    "name": "D4",
                    "midi": 62,
                    "time": 235.98427050000103,
                    "velocity": 0.31496062992125984,
                    "duration": 0.2172967500000027
                },
                {
                    "name": "D4",
                    "midi": 62,
                    "time": 236.20156725000103,
                    "velocity": 0.3228346456692913,
                    "duration": 0.2172967500000027
                },
                {
                    "name": "A4",
                    "midi": 69,
                    "time": 236.20156725000103,
                    "velocity": 0.3937007874015748,
                    "duration": 0.2172967500000027
                },
                {
                    "name": "G4",
                    "midi": 67,
                    "time": 236.41886400000104,
                    "velocity": 0.3543307086614173,
                    "duration": 0.2172967500000027
                },
                {
                    "name": "A#3",
                    "midi": 58,
                    "time": 236.63616075000104,
                    "velocity": 0.36220472440944884,
                    "duration": 0.2172967500000027
                },
                {
                    "name": "D#4",
                    "midi": 63,
                    "time": 236.85345750000104,
                    "velocity": 0.3700787401574803,
                    "duration": 0.2172967500000027
                },
                {
                    "name": "A#3",
                    "midi": 58,
                    "time": 236.85345750000104,
                    "velocity": 0.31496062992125984,
                    "duration": 0.2172967500000027
                },
                {
                    "name": "D4",
                    "midi": 62,
                    "time": 237.07075425000104,
                    "velocity": 0.33858267716535434,
                    "duration": 0.2172967500000027
                },
                {
                    "name": "G3",
                    "midi": 55,
                    "time": 237.28805100000105,
                    "velocity": 0.33070866141732286,
                    "duration": 0.2172967500000027
                },
                {
                    "name": "G3",
                    "midi": 55,
                    "time": 237.50534775000105,
                    "velocity": 0.2992125984251969,
                    "duration": 0.2172967500000027
                },
                {
                    "name": "C4",
                    "midi": 60,
                    "time": 237.50534775000105,
                    "velocity": 0.3543307086614173,
                    "duration": 0.2172967500000027
                },
                {
                    "name": "A#3",
                    "midi": 58,
                    "time": 237.72264450000105,
                    "velocity": 0.31496062992125984,
                    "duration": 0.2172967500000027
                },
                {
                    "name": "D3",
                    "midi": 50,
                    "time": 237.93994125000106,
                    "velocity": 0.31496062992125984,
                    "duration": 0.2172967500000027
                },
                {
                    "name": "G3",
                    "midi": 55,
                    "time": 238.15723800000106,
                    "velocity": 0.3543307086614173,
                    "duration": 0.2172967500000027
                },
                {
                    "name": "C4",
                    "midi": 60,
                    "time": 238.15723800000106,
                    "velocity": 0.41732283464566927,
                    "duration": 0.2172967500000027
                },
                {
                    "name": "A#3",
                    "midi": 58,
                    "time": 238.37453475000106,
                    "velocity": 0.3779527559055118,
                    "duration": 0.2172967500000027
                },
                {
                    "name": "D3",
                    "midi": 50,
                    "time": 238.59183150000106,
                    "velocity": 0.3779527559055118,
                    "duration": 0.2172967500000027
                },
                {
                    "name": "G3",
                    "midi": 55,
                    "time": 238.80912825000107,
                    "velocity": 0.36220472440944884,
                    "duration": 0.2172967500000027
                },
                {
                    "name": "D4",
                    "midi": 62,
                    "time": 238.80912825000107,
                    "velocity": 0.4330708661417323,
                    "duration": 0.2172967500000027
                },
                {
                    "name": "C4",
                    "midi": 60,
                    "time": 239.02642500000107,
                    "velocity": 0.3937007874015748,
                    "duration": 0.2172967500000027
                },
                {
                    "name": "D#3",
                    "midi": 51,
                    "time": 239.24372175000107,
                    "velocity": 0.4015748031496063,
                    "duration": 0.2172967500000027
                },
                {
                    "name": "G3",
                    "midi": 55,
                    "time": 239.46101850000107,
                    "velocity": 0.3543307086614173,
                    "duration": 0.2172967500000027
                },
                {
                    "name": "C4",
                    "midi": 60,
                    "time": 239.46101850000107,
                    "velocity": 0.4251968503937008,
                    "duration": 0.2172967500000027
                },
                {
                    "name": "A#3",
                    "midi": 58,
                    "time": 239.67831525000108,
                    "velocity": 0.3937007874015748,
                    "duration": 0.2172967500000027
                },
                {
                    "name": "D3",
                    "midi": 50,
                    "time": 239.89561200000108,
                    "velocity": 0.3937007874015748,
                    "duration": 0.2172967500000027
                },
                {
                    "name": "G3",
                    "midi": 55,
                    "time": 240.11290875000108,
                    "velocity": 0.3543307086614173,
                    "duration": 0.2172967500000027
                },
                {
                    "name": "D4",
                    "midi": 62,
                    "time": 240.11290875000108,
                    "velocity": 0.41732283464566927,
                    "duration": 0.2172967500000027
                },
                {
                    "name": "C4",
                    "midi": 60,
                    "time": 240.33020550000109,
                    "velocity": 0.3779527559055118,
                    "duration": 0.2172967500000027
                },
                {
                    "name": "D#3",
                    "midi": 51,
                    "time": 240.5475022500011,
                    "velocity": 0.3779527559055118,
                    "duration": 0.2172967500000027
                },
                {
                    "name": "G3",
                    "midi": 55,
                    "time": 240.7647990000011,
                    "velocity": 0.3543307086614173,
                    "duration": 0.2172967500000027
                },
                {
                    "name": "C4",
                    "midi": 60,
                    "time": 240.7647990000011,
                    "velocity": 0.41732283464566927,
                    "duration": 0.2172967500000027
                },
                {
                    "name": "A#3",
                    "midi": 58,
                    "time": 240.9820957500011,
                    "velocity": 0.3779527559055118,
                    "duration": 0.2172967500000027
                },
                {
                    "name": "D3",
                    "midi": 50,
                    "time": 241.1993925000011,
                    "velocity": 0.3779527559055118,
                    "duration": 0.2172967500000027
                },
                {
                    "name": "D4",
                    "midi": 62,
                    "time": 241.4166892500011,
                    "velocity": 0.4330708661417323,
                    "duration": 0.2172967500000027
                },
                {
                    "name": "G3",
                    "midi": 55,
                    "time": 241.4166892500011,
                    "velocity": 0.36220472440944884,
                    "duration": 0.2172967500000027
                },
                {
                    "name": "C4",
                    "midi": 60,
                    "time": 241.6339860000011,
                    "velocity": 0.3937007874015748,
                    "duration": 0.2172967500000027
                },
                {
                    "name": "D#3",
                    "midi": 51,
                    "time": 241.8512827500011,
                    "velocity": 0.4015748031496063,
                    "duration": 0.2172967500000027
                },
                {
                    "name": "G3",
                    "midi": 55,
                    "time": 242.0685795000011,
                    "velocity": 0.3543307086614173,
                    "duration": 0.2172967500000027
                },
                {
                    "name": "C4",
                    "midi": 60,
                    "time": 242.0685795000011,
                    "velocity": 0.4251968503937008,
                    "duration": 0.2172967500000027
                },
                {
                    "name": "A#3",
                    "midi": 58,
                    "time": 242.2858762500011,
                    "velocity": 0.3937007874015748,
                    "duration": 0.2172967500000027
                },
                {
                    "name": "D3",
                    "midi": 50,
                    "time": 242.5031730000011,
                    "velocity": 0.3937007874015748,
                    "duration": 0.2172967500000027
                },
                {
                    "name": "D4",
                    "midi": 62,
                    "time": 242.72046975000112,
                    "velocity": 0.41732283464566927,
                    "duration": 0.2172967500000027
                },
                {
                    "name": "G3",
                    "midi": 55,
                    "time": 242.72046975000112,
                    "velocity": 0.3543307086614173,
                    "duration": 0.2172967500000027
                },
                {
                    "name": "C4",
                    "midi": 60,
                    "time": 242.93776650000112,
                    "velocity": 0.3779527559055118,
                    "duration": 0.2172967500000027
                },
                {
                    "name": "D#3",
                    "midi": 51,
                    "time": 243.15506325000112,
                    "velocity": 0.3779527559055118,
                    "duration": 0.2172967500000027
                },
                {
                    "name": "G3",
                    "midi": 55,
                    "time": 243.37236000000112,
                    "velocity": 0.3937007874015748,
                    "duration": 0.2172967500000027
                },
                {
                    "name": "D4",
                    "midi": 62,
                    "time": 243.58965675000113,
                    "velocity": 0.4015748031496063,
                    "duration": 0.2172967500000027
                },
                {
                    "name": "A#3",
                    "midi": 58,
                    "time": 243.80695350000113,
                    "velocity": 0.4094488188976378,
                    "duration": 0.2172967500000027
                },
                {
                    "name": "D4",
                    "midi": 62,
                    "time": 244.02425025000113,
                    "velocity": 0.41732283464566927,
                    "duration": 0.2172967500000027
                },
                {
                    "name": "G4",
                    "midi": 67,
                    "time": 244.24154700000113,
                    "velocity": 0.4330708661417323,
                    "duration": 0.2172967500000027
                },
                {
                    "name": "A#4",
                    "midi": 70,
                    "time": 244.45884375000114,
                    "velocity": 0.4409448818897638,
                    "duration": 0.2172967500000027
                },
                {
                    "name": "D5",
                    "midi": 74,
                    "time": 244.67614050000114,
                    "velocity": 0.44881889763779526,
                    "duration": 0.2172967500000027
                },
                {
                    "name": "G5",
                    "midi": 79,
                    "time": 244.89343725000114,
                    "velocity": 0.4566929133858268,
                    "duration": 0.2172967500000027
                },
                {
                    "name": "A#5",
                    "midi": 82,
                    "time": 245.11073400000114,
                    "velocity": 0.4645669291338583,
                    "duration": 0.2172967500000027
                },
                {
                    "name": "D6",
                    "midi": 86,
                    "time": 245.32803075000115,
                    "velocity": 0.48031496062992124,
                    "duration": 0.2172967500000027
                },
                {
                    "name": "G6",
                    "midi": 91,
                    "time": 245.54532750000115,
                    "velocity": 0.4881889763779528,
                    "duration": 0.2172967500000027
                },
                {
                    "name": "D7",
                    "midi": 98,
                    "time": 245.76262425000115,
                    "velocity": 0.49606299212598426,
                    "duration": 0.2172967500000027
                },
                {
                    "name": "A#6",
                    "midi": 94,
                    "time": 245.97992100000116,
                    "velocity": 0.49606299212598426,
                    "duration": 0.2172967500000027
                },
                {
                    "name": "D7",
                    "midi": 98,
                    "time": 246.19721775000116,
                    "velocity": 0.47244094488188976,
                    "duration": 0.2172967500000027
                },
                {
                    "name": "G6",
                    "midi": 91,
                    "time": 246.41451450000116,
                    "velocity": 0.4645669291338583,
                    "duration": 0.2172967500000027
                },
                {
                    "name": "D6",
                    "midi": 86,
                    "time": 246.63181125000116,
                    "velocity": 0.4566929133858268,
                    "duration": 0.2172967500000027
                },
                {
                    "name": "A#5",
                    "midi": 82,
                    "time": 246.84910800000117,
                    "velocity": 0.4566929133858268,
                    "duration": 0.2172967500000027
                },
                {
                    "name": "G5",
                    "midi": 79,
                    "time": 247.06640475000117,
                    "velocity": 0.44881889763779526,
                    "duration": 0.2172967500000027
                },
                {
                    "name": "D5",
                    "midi": 74,
                    "time": 247.28370150000117,
                    "velocity": 0.4409448818897638,
                    "duration": 0.2172967500000027
                },
                {
                    "name": "A#4",
                    "midi": 70,
                    "time": 247.50099825000117,
                    "velocity": 0.4409448818897638,
                    "duration": 0.2172967500000027
                },
                {
                    "name": "G4",
                    "midi": 67,
                    "time": 247.71829500000118,
                    "velocity": 0.4330708661417323,
                    "duration": 0.2172967500000027
                },
                {
                    "name": "D4",
                    "midi": 62,
                    "time": 247.93559175000118,
                    "velocity": 0.4251968503937008,
                    "duration": 0.2172967500000027
                },
                {
                    "name": "A#3",
                    "midi": 58,
                    "time": 248.15288850000118,
                    "velocity": 0.41732283464566927,
                    "duration": 0.2172967500000027
                },
                {
                    "name": "D3",
                    "midi": 50,
                    "time": 248.37018525000119,
                    "velocity": 0.41732283464566927,
                    "duration": 0.2172967500000027
                },
                {
                    "name": "G3",
                    "midi": 55,
                    "time": 248.5874820000012,
                    "velocity": 0.3858267716535433,
                    "duration": 0.2172967500000027
                },
                {
                    "name": "D4",
                    "midi": 62,
                    "time": 248.8047787500012,
                    "velocity": 0.3937007874015748,
                    "duration": 0.2172967500000027
                },
                {
                    "name": "A#3",
                    "midi": 58,
                    "time": 249.0220755000012,
                    "velocity": 0.4094488188976378,
                    "duration": 0.2172967500000027
                },
                {
                    "name": "D4",
                    "midi": 62,
                    "time": 249.2393722500012,
                    "velocity": 0.4251968503937008,
                    "duration": 0.2172967500000027
                },
                {
                    "name": "G4",
                    "midi": 67,
                    "time": 249.4566690000012,
                    "velocity": 0.4330708661417323,
                    "duration": 0.2172967500000027
                },
                {
                    "name": "D5",
                    "midi": 74,
                    "time": 249.6739657500012,
                    "velocity": 0.44881889763779526,
                    "duration": 0.2172967500000027
                },
                {
                    "name": "A#4",
                    "midi": 70,
                    "time": 249.8912625000012,
                    "velocity": 0.44881889763779526,
                    "duration": 0.2172967500000027
                },
                {
                    "name": "D5",
                    "midi": 74,
                    "time": 250.1085592500012,
                    "velocity": 0.4409448818897638,
                    "duration": 0.2172967500000027
                },
                {
                    "name": "G4",
                    "midi": 67,
                    "time": 250.3258560000012,
                    "velocity": 0.4251968503937008,
                    "duration": 0.2172967500000027
                },
                {
                    "name": "D4",
                    "midi": 62,
                    "time": 250.5431527500012,
                    "velocity": 0.41732283464566927,
                    "duration": 0.2172967500000027
                },
                {
                    "name": "A#3",
                    "midi": 58,
                    "time": 250.76044950000122,
                    "velocity": 0.4015748031496063,
                    "duration": 0.2172967500000027
                },
                {
                    "name": "D3",
                    "midi": 50,
                    "time": 250.97774625000122,
                    "velocity": 0.3858267716535433,
                    "duration": 0.2172967500000027
                },
                {
                    "name": "F#3",
                    "midi": 54,
                    "time": 251.19504300000122,
                    "velocity": 0.3858267716535433,
                    "duration": 0.2172967500000027
                },
                {
                    "name": "D4",
                    "midi": 62,
                    "time": 251.41233975000122,
                    "velocity": 0.3937007874015748,
                    "duration": 0.2172967500000027
                },
                {
                    "name": "A#3",
                    "midi": 58,
                    "time": 251.62963650000123,
                    "velocity": 0.4094488188976378,
                    "duration": 0.2172967500000027
                },
                {
                    "name": "D4",
                    "midi": 62,
                    "time": 251.84693325000123,
                    "velocity": 0.4251968503937008,
                    "duration": 0.2172967500000027
                },
                {
                    "name": "F#4",
                    "midi": 66,
                    "time": 252.06423000000123,
                    "velocity": 0.4330708661417323,
                    "duration": 0.2172967500000027
                },
                {
                    "name": "D5",
                    "midi": 74,
                    "time": 252.28152675000123,
                    "velocity": 0.44881889763779526,
                    "duration": 0.2172967500000027
                },
                {
                    "name": "A#4",
                    "midi": 70,
                    "time": 252.49882350000124,
                    "velocity": 0.44881889763779526,
                    "duration": 0.2172967500000027
                },
                {
                    "name": "D5",
                    "midi": 74,
                    "time": 252.71612025000124,
                    "velocity": 0.4409448818897638,
                    "duration": 0.2172967500000027
                },
                {
                    "name": "F#4",
                    "midi": 66,
                    "time": 252.93341700000124,
                    "velocity": 0.4251968503937008,
                    "duration": 0.2172967500000027
                },
                {
                    "name": "D4",
                    "midi": 62,
                    "time": 253.15071375000124,
                    "velocity": 0.41732283464566927,
                    "duration": 0.2172967500000027
                },
                {
                    "name": "A#3",
                    "midi": 58,
                    "time": 253.36801050000125,
                    "velocity": 0.4015748031496063,
                    "duration": 0.2172967500000027
                },
                {
                    "name": "D3",
                    "midi": 50,
                    "time": 253.58530725000125,
                    "velocity": 0.3858267716535433,
                    "duration": 0.2172967500000027
                },
                {
                    "name": "G3",
                    "midi": 55,
                    "time": 253.80260400000125,
                    "velocity": 0.3937007874015748,
                    "duration": 0.2172967500000027
                },
                {
                    "name": "D4",
                    "midi": 62,
                    "time": 254.01990075000126,
                    "velocity": 0.4015748031496063,
                    "duration": 0.2172967500000027
                },
                {
                    "name": "A#3",
                    "midi": 58,
                    "time": 254.23719750000126,
                    "velocity": 0.4094488188976378,
                    "duration": 0.2172967500000027
                },
                {
                    "name": "D4",
                    "midi": 62,
                    "time": 254.45449425000126,
                    "velocity": 0.41732283464566927,
                    "duration": 0.2172967500000027
                },
                {
                    "name": "G4",
                    "midi": 67,
                    "time": 254.67179100000126,
                    "velocity": 0.4330708661417323,
                    "duration": 0.2172967500000027
                },
                {
                    "name": "A#4",
                    "midi": 70,
                    "time": 254.88908775000127,
                    "velocity": 0.4409448818897638,
                    "duration": 0.2172967500000027
                },
                {
                    "name": "D5",
                    "midi": 74,
                    "time": 255.10638450000127,
                    "velocity": 0.44881889763779526,
                    "duration": 0.2172967500000027
                },
                {
                    "name": "G5",
                    "midi": 79,
                    "time": 255.32368125000127,
                    "velocity": 0.4566929133858268,
                    "duration": 0.2172967500000027
                },
                {
                    "name": "A#5",
                    "midi": 82,
                    "time": 255.54097800000127,
                    "velocity": 0.4645669291338583,
                    "duration": 0.2172967500000027
                },
                {
                    "name": "D6",
                    "midi": 86,
                    "time": 255.75827475000128,
                    "velocity": 0.48031496062992124,
                    "duration": 0.2172967500000027
                },
                {
                    "name": "G6",
                    "midi": 91,
                    "time": 255.97557150000128,
                    "velocity": 0.4881889763779528,
                    "duration": 0.21729674999997428
                },
                {
                    "name": "D7",
                    "midi": 98,
                    "time": 256.19286825000125,
                    "velocity": 0.49606299212598426,
                    "duration": 0.2172967500000027
                },
                {
                    "name": "A#6",
                    "midi": 94,
                    "time": 256.41016500000126,
                    "velocity": 0.49606299212598426,
                    "duration": 0.2172967500000027
                },
                {
                    "name": "D7",
                    "midi": 98,
                    "time": 256.62746175000126,
                    "velocity": 0.47244094488188976,
                    "duration": 0.2172967500000027
                },
                {
                    "name": "G6",
                    "midi": 91,
                    "time": 256.84475850000126,
                    "velocity": 0.4645669291338583,
                    "duration": 0.2172967500000027
                },
                {
                    "name": "D6",
                    "midi": 86,
                    "time": 257.06205525000126,
                    "velocity": 0.4566929133858268,
                    "duration": 0.2172967500000027
                },
                {
                    "name": "A#5",
                    "midi": 82,
                    "time": 257.27935200000127,
                    "velocity": 0.4566929133858268,
                    "duration": 0.2172967500000027
                },
                {
                    "name": "G5",
                    "midi": 79,
                    "time": 257.49664875000127,
                    "velocity": 0.44881889763779526,
                    "duration": 0.2172967500000027
                },
                {
                    "name": "D5",
                    "midi": 74,
                    "time": 257.7139455000013,
                    "velocity": 0.4409448818897638,
                    "duration": 0.2172967500000027
                },
                {
                    "name": "A#4",
                    "midi": 70,
                    "time": 257.9312422500013,
                    "velocity": 0.4409448818897638,
                    "duration": 0.2172967500000027
                },
                {
                    "name": "G4",
                    "midi": 67,
                    "time": 258.1485390000013,
                    "velocity": 0.4330708661417323,
                    "duration": 0.2172967500000027
                },
                {
                    "name": "D4",
                    "midi": 62,
                    "time": 258.3658357500013,
                    "velocity": 0.4251968503937008,
                    "duration": 0.2172967500000027
                },
                {
                    "name": "A#3",
                    "midi": 58,
                    "time": 258.5831325000013,
                    "velocity": 0.41732283464566927,
                    "duration": 0.2172967500000027
                },
                {
                    "name": "D3",
                    "midi": 50,
                    "time": 258.8004292500013,
                    "velocity": 0.41732283464566927,
                    "duration": 0.2172967500000027
                },
                {
                    "name": "F#3",
                    "midi": 54,
                    "time": 259.0177260000013,
                    "velocity": 0.3858267716535433,
                    "duration": 0.2172967500000027
                },
                {
                    "name": "D4",
                    "midi": 62,
                    "time": 259.2350227500013,
                    "velocity": 0.3937007874015748,
                    "duration": 0.2172967500000027
                },
                {
                    "name": "A#3",
                    "midi": 58,
                    "time": 259.4523195000013,
                    "velocity": 0.4094488188976378,
                    "duration": 0.2172967500000027
                },
                {
                    "name": "D4",
                    "midi": 62,
                    "time": 259.6696162500013,
                    "velocity": 0.4251968503937008,
                    "duration": 0.2172967500000027
                },
                {
                    "name": "F#4",
                    "midi": 66,
                    "time": 259.8869130000013,
                    "velocity": 0.4330708661417323,
                    "duration": 0.2172967500000027
                },
                {
                    "name": "D5",
                    "midi": 74,
                    "time": 260.1042097500013,
                    "velocity": 0.44881889763779526,
                    "duration": 0.2172967500000027
                },
                {
                    "name": "A#4",
                    "midi": 70,
                    "time": 260.3215065000013,
                    "velocity": 0.44881889763779526,
                    "duration": 0.2172967500000027
                },
                {
                    "name": "D5",
                    "midi": 74,
                    "time": 260.5388032500013,
                    "velocity": 0.4409448818897638,
                    "duration": 0.2172967500000027
                },
                {
                    "name": "F#4",
                    "midi": 66,
                    "time": 260.7561000000013,
                    "velocity": 0.4251968503937008,
                    "duration": 0.2172967500000027
                },
                {
                    "name": "D4",
                    "midi": 62,
                    "time": 260.9733967500013,
                    "velocity": 0.41732283464566927,
                    "duration": 0.2172967500000027
                },
                {
                    "name": "A#3",
                    "midi": 58,
                    "time": 261.1906935000013,
                    "velocity": 0.4015748031496063,
                    "duration": 0.2172967500000027
                },
                {
                    "name": "D3",
                    "midi": 50,
                    "time": 261.4079902500013,
                    "velocity": 0.3858267716535433,
                    "duration": 0.2172967500000027
                },
                {
                    "name": "F3",
                    "midi": 53,
                    "time": 261.6252870000013,
                    "velocity": 0.3858267716535433,
                    "duration": 0.2172967500000027
                },
                {
                    "name": "D4",
                    "midi": 62,
                    "time": 261.8425837500013,
                    "velocity": 0.3937007874015748,
                    "duration": 0.2172967500000027
                },
                {
                    "name": "A#3",
                    "midi": 58,
                    "time": 262.0598805000013,
                    "velocity": 0.4094488188976378,
                    "duration": 0.2172967500000027
                },
                {
                    "name": "D4",
                    "midi": 62,
                    "time": 262.27717725000133,
                    "velocity": 0.4251968503937008,
                    "duration": 0.2172967500000027
                },
                {
                    "name": "F4",
                    "midi": 65,
                    "time": 262.49447400000133,
                    "velocity": 0.4330708661417323,
                    "duration": 0.2172967500000027
                },
                {
                    "name": "D5",
                    "midi": 74,
                    "time": 262.71177075000134,
                    "velocity": 0.44881889763779526,
                    "duration": 0.2172967500000027
                },
                {
                    "name": "A#4",
                    "midi": 70,
                    "time": 262.92906750000134,
                    "velocity": 0.44881889763779526,
                    "duration": 0.2172967500000027
                },
                {
                    "name": "D5",
                    "midi": 74,
                    "time": 263.14636425000134,
                    "velocity": 0.4409448818897638,
                    "duration": 0.2172967500000027
                },
                {
                    "name": "F4",
                    "midi": 65,
                    "time": 263.36366100000134,
                    "velocity": 0.4251968503937008,
                    "duration": 0.2172967500000027
                },
                {
                    "name": "D4",
                    "midi": 62,
                    "time": 263.58095775000135,
                    "velocity": 0.41732283464566927,
                    "duration": 0.2172967500000027
                },
                {
                    "name": "A#3",
                    "midi": 58,
                    "time": 263.79825450000135,
                    "velocity": 0.4015748031496063,
                    "duration": 0.2172967500000027
                },
                {
                    "name": "D3",
                    "midi": 50,
                    "time": 264.01555125000135,
                    "velocity": 0.3858267716535433,
                    "duration": 0.2172967500000027
                },
                {
                    "name": "F3",
                    "midi": 53,
                    "time": 264.23284800000135,
                    "velocity": 0.3937007874015748,
                    "duration": 0.2172967500000027
                },
                {
                    "name": "C4",
                    "midi": 60,
                    "time": 264.45014475000136,
                    "velocity": 0.4015748031496063,
                    "duration": 0.2172967500000027
                },
                {
                    "name": "A3",
                    "midi": 57,
                    "time": 264.66744150000136,
                    "velocity": 0.4094488188976378,
                    "duration": 0.2172967500000027
                },
                {
                    "name": "C4",
                    "midi": 60,
                    "time": 264.88473825000136,
                    "velocity": 0.41732283464566927,
                    "duration": 0.2172967500000027
                },
                {
                    "name": "F4",
                    "midi": 65,
                    "time": 265.10203500000137,
                    "velocity": 0.4330708661417323,
                    "duration": 0.2172967500000027
                },
                {
                    "name": "A4",
                    "midi": 69,
                    "time": 265.31933175000137,
                    "velocity": 0.4409448818897638,
                    "duration": 0.2172967500000027
                },
                {
                    "name": "C5",
                    "midi": 72,
                    "time": 265.53662850000137,
                    "velocity": 0.44881889763779526,
                    "duration": 0.2172967500000027
                },
                {
                    "name": "F5",
                    "midi": 77,
                    "time": 265.7539252500014,
                    "velocity": 0.4566929133858268,
                    "duration": 0.2172967500000027
                },
                {
                    "name": "A5",
                    "midi": 81,
                    "time": 265.9712220000014,
                    "velocity": 0.4645669291338583,
                    "duration": 0.2172967500000027
                },
                {
                    "name": "C6",
                    "midi": 84,
                    "time": 266.1885187500014,
                    "velocity": 0.48031496062992124,
                    "duration": 0.2172967500000027
                },
                {
                    "name": "F6",
                    "midi": 89,
                    "time": 266.4058155000014,
                    "velocity": 0.4881889763779528,
                    "duration": 0.2172967500000027
                },
                {
                    "name": "A6",
                    "midi": 93,
                    "time": 266.6231122500014,
                    "velocity": 0.49606299212598426,
                    "duration": 0.2172967500000027
                },
                {
                    "name": "F7",
                    "midi": 101,
                    "time": 266.8404090000014,
                    "velocity": 0.49606299212598426,
                    "duration": 0.4345935000000054
                },
                {
                    "name": "C4",
                    "midi": 60,
                    "time": 274.22849850000136,
                    "velocity": 0.23622047244094488,
                    "duration": 3.042154499999981
                },
                {
                    "name": "F4",
                    "midi": 65,
                    "time": 274.22849850000136,
                    "velocity": 0.28346456692913385,
                    "duration": 3.042154499999981
                },
                {
                    "name": "D4",
                    "midi": 62,
                    "time": 277.27065300000135,
                    "velocity": 0.2677165354330709,
                    "duration": 2.6075610000000324
                },
                {
                    "name": "G4",
                    "midi": 67,
                    "time": 277.27065300000135,
                    "velocity": 0.33070866141732286,
                    "duration": 1.7383740000000216
                },
                {
                    "name": "G4",
                    "midi": 67,
                    "time": 279.00902700000137,
                    "velocity": 0.29133858267716534,
                    "duration": 0.8691870000000108
                },
                {
                    "name": "D#4",
                    "midi": 63,
                    "time": 279.8782140000014,
                    "velocity": 0.33070866141732286,
                    "duration": 3.4767479999999864
                },
                {
                    "name": "D#5",
                    "midi": 75,
                    "time": 283.35496200000136,
                    "velocity": 0.3937007874015748,
                    "duration": 1.3037805000000162
                },
                {
                    "name": "D5",
                    "midi": 74,
                    "time": 284.6587425000014,
                    "velocity": 0.31496062992125984,
                    "duration": 0.4345935000000054
                },
                {
                    "name": "G4",
                    "midi": 67,
                    "time": 285.0933360000014,
                    "velocity": 0.25984251968503935,
                    "duration": 2.6075609999999756
                },
                {
                    "name": "C5",
                    "midi": 72,
                    "time": 285.0933360000014,
                    "velocity": 0.3858267716535433,
                    "duration": 2.6075609999999756
                },
                {
                    "name": "D5",
                    "midi": 74,
                    "time": 287.70089700000136,
                    "velocity": 0.3779527559055118,
                    "duration": 1.7383740000000216
                },
                {
                    "name": "A4",
                    "midi": 69,
                    "time": 287.70089700000136,
                    "velocity": 0.29133858267716534,
                    "duration": 2.6075610000000324
                },
                {
                    "name": "D5",
                    "midi": 74,
                    "time": 289.4392710000014,
                    "velocity": 0.29133858267716534,
                    "duration": 0.8691870000000108
                },
                {
                    "name": "A#4",
                    "midi": 70,
                    "time": 290.3084580000014,
                    "velocity": 0.31496062992125984,
                    "duration": 2.6075609999999756
                },
                {
                    "name": "A#5",
                    "midi": 82,
                    "time": 292.91601900000137,
                    "velocity": 0.47244094488188976,
                    "duration": 1.7383740000000216
                },
                {
                    "name": "A#5",
                    "midi": 82,
                    "time": 294.6543930000014,
                    "velocity": 0.4409448818897638,
                    "duration": 0.8691870000000108
                },
                {
                    "name": "A#5",
                    "midi": 82,
                    "time": 295.5235800000014,
                    "velocity": 0.4645669291338583,
                    "duration": 1.7383740000000216
                },
                {
                    "name": "G#5",
                    "midi": 80,
                    "time": 297.2619540000014,
                    "velocity": 0.4330708661417323,
                    "duration": 0.8221060375000206
                },
                {
                    "name": "G#5",
                    "midi": 80,
                    "time": 298.13114100000143,
                    "velocity": 0.4645669291338583,
                    "duration": 0.8691870000000108
                },
                {
                    "name": "G5",
                    "midi": 79,
                    "time": 299.00032800000145,
                    "velocity": 0.4409448818897638,
                    "duration": 0.8691870000000108
                },
                {
                    "name": "F#5",
                    "midi": 78,
                    "time": 299.86951500000146,
                    "velocity": 0.4330708661417323,
                    "duration": 0.8329708750000009
                },
                {
                    "name": "F#5",
                    "midi": 78,
                    "time": 300.73870200000147,
                    "velocity": 0.4566929133858268,
                    "duration": 1.7383740000000216
                },
                {
                    "name": "G5",
                    "midi": 79,
                    "time": 302.4770760000015,
                    "velocity": 0.4409448818897638,
                    "duration": 1.7383740000000216
                },
                {
                    "name": "G#5",
                    "midi": 80,
                    "time": 304.2154500000015,
                    "velocity": 0.4881889763779528,
                    "duration": 1.3037805000000162
                },
                {
                    "name": "D#5",
                    "midi": 75,
                    "time": 305.5192305000015,
                    "velocity": 0.4409448818897638,
                    "duration": 0.4345935000000054
                },
                {
                    "name": "G5",
                    "midi": 79,
                    "time": 305.95382400000153,
                    "velocity": 0.4645669291338583,
                    "duration": 1.7383740000000216
                },
                {
                    "name": "F5",
                    "midi": 77,
                    "time": 307.69219800000155,
                    "velocity": 0.3937007874015748,
                    "duration": 1.7383740000000216
                },
                {
                    "name": "G5",
                    "midi": 79,
                    "time": 309.4305720000016,
                    "velocity": 0.4645669291338583,
                    "duration": 1.3037805000000162
                },
                {
                    "name": "D5",
                    "midi": 74,
                    "time": 310.7343525000016,
                    "velocity": 0.41732283464566927,
                    "duration": 0.4345935000000054
                },
                {
                    "name": "F5",
                    "midi": 77,
                    "time": 311.1689460000016,
                    "velocity": 0.4645669291338583,
                    "duration": 0.8691870000000108
                },
                {
                    "name": "D#5",
                    "midi": 75,
                    "time": 312.0381330000016,
                    "velocity": 0.4330708661417323,
                    "duration": 0.8691870000000108
                },
                {
                    "name": "D5",
                    "midi": 74,
                    "time": 312.9073200000016,
                    "velocity": 0.4330708661417323,
                    "duration": 0.8691870000000108
                },
                {
                    "name": "C5",
                    "midi": 72,
                    "time": 313.77650700000163,
                    "velocity": 0.4330708661417323,
                    "duration": 0.28972900000002255
                },
                {
                    "name": "D5",
                    "midi": 74,
                    "time": 314.06623600000165,
                    "velocity": 0.3937007874015748,
                    "duration": 0.28972900000002255
                },
                {
                    "name": "C5",
                    "midi": 72,
                    "time": 314.3559650000017,
                    "velocity": 0.3937007874015748,
                    "duration": 0.28972900000002255
                },
                {
                    "name": "B4",
                    "midi": 71,
                    "time": 314.6456940000017,
                    "velocity": 0.41732283464566927,
                    "duration": 0.4345935000000054
                },
                {
                    "name": "C5",
                    "midi": 72,
                    "time": 315.0802875000017,
                    "velocity": 0.3937007874015748,
                    "duration": 0.4345935000000054
                },
                {
                    "name": "D5",
                    "midi": 74,
                    "time": 315.5148810000017,
                    "velocity": 0.3937007874015748,
                    "duration": 0.4345935000000054
                },
                {
                    "name": "D#5",
                    "midi": 75,
                    "time": 315.9494745000017,
                    "velocity": 0.3937007874015748,
                    "duration": 0.32594512499997563
                },
                {
                    "name": "C4",
                    "midi": 60,
                    "time": 316.2754196250017,
                    "velocity": 0.23622047244094488,
                    "duration": 2.7162093749999485
                },
                {
                    "name": "F4",
                    "midi": 65,
                    "time": 316.38406800000166,
                    "velocity": 0.28346456692913385,
                    "duration": 2.6075609999999756
                },
                {
                    "name": "D4",
                    "midi": 62,
                    "time": 318.99162900000164,
                    "velocity": 0.2677165354330709,
                    "duration": 2.6075610000000324
                },
                {
                    "name": "G4",
                    "midi": 67,
                    "time": 318.99162900000164,
                    "velocity": 0.33070866141732286,
                    "duration": 1.7383740000000216
                },
                {
                    "name": "G4",
                    "midi": 67,
                    "time": 320.73000300000166,
                    "velocity": 0.29133858267716534,
                    "duration": 0.8691870000000108
                },
                {
                    "name": "D#4",
                    "midi": 63,
                    "time": 321.59919000000167,
                    "velocity": 0.33070866141732286,
                    "duration": 3.4767479999999864
                },
                {
                    "name": "D#5",
                    "midi": 75,
                    "time": 325.07593800000166,
                    "velocity": 0.4330708661417323,
                    "duration": 1.3037805000000162
                },
                {
                    "name": "D5",
                    "midi": 74,
                    "time": 326.3797185000017,
                    "velocity": 0.3464566929133858,
                    "duration": 0.4345935000000054
                },
                {
                    "name": "G4",
                    "midi": 67,
                    "time": 326.8143120000017,
                    "velocity": 0.2677165354330709,
                    "duration": 2.6075609999999756
                },
                {
                    "name": "C5",
                    "midi": 72,
                    "time": 326.8143120000017,
                    "velocity": 0.41732283464566927,
                    "duration": 2.6075609999999756
                },
                {
                    "name": "A4",
                    "midi": 69,
                    "time": 329.42187300000165,
                    "velocity": 0.31496062992125984,
                    "duration": 2.6075610000000324
                },
                {
                    "name": "D5",
                    "midi": 74,
                    "time": 329.42187300000165,
                    "velocity": 0.4094488188976378,
                    "duration": 1.7202659375000167
                },
                {
                    "name": "D5",
                    "midi": 74,
                    "time": 331.1602470000017,
                    "velocity": 0.3700787401574803,
                    "duration": 0.8691870000000108
                },
                {
                    "name": "A#4",
                    "midi": 70,
                    "time": 332.0294340000017,
                    "velocity": 0.3858267716535433,
                    "duration": 2.6075609999999756
                },
                {
                    "name": "A#5",
                    "midi": 82,
                    "time": 334.63699500000166,
                    "velocity": 0.5196850393700787,
                    "duration": 1.7202659375000167
                },
                {
                    "name": "A#5",
                    "midi": 82,
                    "time": 336.3753690000017,
                    "velocity": 0.47244094488188976,
                    "duration": 0.8329708750000009
                },
                {
                    "name": "A#5",
                    "midi": 82,
                    "time": 337.2445560000017,
                    "velocity": 0.5354330708661418,
                    "duration": 2.6075609999999756
                },
                {
                    "name": "C5",
                    "midi": 72,
                    "time": 339.85211700000167,
                    "velocity": 0.48031496062992124,
                    "duration": 1.7383740000000216
                },
                {
                    "name": "D5",
                    "midi": 74,
                    "time": 341.5904910000017,
                    "velocity": 0.4330708661417323,
                    "duration": 0.8691870000000108
                },
                {
                    "name": "D#5",
                    "midi": 75,
                    "time": 342.4596780000017,
                    "velocity": 0.47244094488188976,
                    "duration": 0.28972900000002255
                },
                {
                    "name": "F5",
                    "midi": 77,
                    "time": 342.7494070000017,
                    "velocity": 0.41732283464566927,
                    "duration": 0.28972900000002255
                },
                {
                    "name": "D#5",
                    "midi": 75,
                    "time": 343.03913600000175,
                    "velocity": 0.41732283464566927,
                    "duration": 0.28972900000002255
                },
                {
                    "name": "D5",
                    "midi": 74,
                    "time": 343.32886500000177,
                    "velocity": 0.4094488188976378,
                    "duration": 0.8691870000000108
                },
                {
                    "name": "D#5",
                    "midi": 75,
                    "time": 344.1980520000018,
                    "velocity": 0.4330708661417323,
                    "duration": 0.8691870000000108
                },
                {
                    "name": "G5",
                    "midi": 79,
                    "time": 345.0672390000018,
                    "velocity": 0.4409448818897638,
                    "duration": 0.8583221624999737
                },
                {
                    "name": "G5",
                    "midi": 79,
                    "time": 345.93642600000175,
                    "velocity": 0.48031496062992124,
                    "duration": 1.1589159999999765
                },
                {
                    "name": "F5",
                    "midi": 77,
                    "time": 347.0953420000017,
                    "velocity": 0.3779527559055118,
                    "duration": 0.28972900000002255
                },
                {
                    "name": "D#5",
                    "midi": 75,
                    "time": 347.38507100000174,
                    "velocity": 0.3779527559055118,
                    "duration": 0.2535128750000126
                },
                {
                    "name": "D#5",
                    "midi": 75,
                    "time": 347.67480000000177,
                    "velocity": 0.3937007874015748,
                    "duration": 2.6075609999999756
                },
                {
                    "name": "G4",
                    "midi": 67,
                    "time": 351.15154800000175,
                    "velocity": 0.28346456692913385,
                    "duration": 0.4345935000000054
                },
                {
                    "name": "G#4",
                    "midi": 68,
                    "time": 351.58614150000176,
                    "velocity": 0.2677165354330709,
                    "duration": 0.4345935000000054
                },
                {
                    "name": "A#4",
                    "midi": 70,
                    "time": 352.02073500000176,
                    "velocity": 0.29133858267716534,
                    "duration": 0.28972900000002255
                },
                {
                    "name": "D5",
                    "midi": 74,
                    "time": 352.3104640000018,
                    "velocity": 0.2677165354330709,
                    "duration": 0.28972900000002255
                },
                {
                    "name": "C5",
                    "midi": 72,
                    "time": 352.6001930000018,
                    "velocity": 0.2677165354330709,
                    "duration": 0.28972900000002255
                },
                {
                    "name": "A#4",
                    "midi": 70,
                    "time": 352.88992200000183,
                    "velocity": 0.33070866141732286,
                    "duration": 2.6075609999999756
                },
                {
                    "name": "G4",
                    "midi": 67,
                    "time": 356.3666700000018,
                    "velocity": 0.28346456692913385,
                    "duration": 0.4345935000000054
                },
                {
                    "name": "G#4",
                    "midi": 68,
                    "time": 356.8012635000018,
                    "velocity": 0.2677165354330709,
                    "duration": 0.4345935000000054
                },
                {
                    "name": "A#4",
                    "midi": 70,
                    "time": 357.23585700000183,
                    "velocity": 0.29133858267716534,
                    "duration": 0.28972900000002255
                },
                {
                    "name": "D5",
                    "midi": 74,
                    "time": 357.52558600000185,
                    "velocity": 0.2677165354330709,
                    "duration": 0.28972900000002255
                },
                {
                    "name": "C5",
                    "midi": 72,
                    "time": 357.8153150000019,
                    "velocity": 0.2677165354330709,
                    "duration": 0.28972900000002255
                },
                {
                    "name": "A#4",
                    "midi": 70,
                    "time": 358.1050440000019,
                    "velocity": 0.33070866141732286,
                    "duration": 2.6075609999999756
                },
                {
                    "name": "F4",
                    "midi": 65,
                    "time": 361.5817920000019,
                    "velocity": 0.28346456692913385,
                    "duration": 0.4345935000000054
                },
                {
                    "name": "G#4",
                    "midi": 68,
                    "time": 362.0163855000019,
                    "velocity": 0.2677165354330709,
                    "duration": 0.4345935000000054
                },
                {
                    "name": "A#4",
                    "midi": 70,
                    "time": 362.4509790000019,
                    "velocity": 0.29133858267716534,
                    "duration": 0.28972900000002255
                },
                {
                    "name": "D5",
                    "midi": 74,
                    "time": 362.7407080000019,
                    "velocity": 0.2677165354330709,
                    "duration": 0.28972900000002255
                },
                {
                    "name": "C5",
                    "midi": 72,
                    "time": 363.03043700000194,
                    "velocity": 0.2677165354330709,
                    "duration": 0.28972900000002255
                },
                {
                    "name": "A#4",
                    "midi": 70,
                    "time": 363.32016600000196,
                    "velocity": 0.33070866141732286,
                    "duration": 1.1589159999999765
                },
                {
                    "name": "C#4",
                    "midi": 61,
                    "time": 364.47908200000194,
                    "velocity": 0.2677165354330709,
                    "duration": 0.8691870000000677
                },
                {
                    "name": "D#4",
                    "midi": 63,
                    "time": 364.76881100000196,
                    "velocity": 0.2677165354330709,
                    "duration": 0.28972900000002255
                },
                {
                    "name": "G4",
                    "midi": 67,
                    "time": 365.058540000002,
                    "velocity": 0.30708661417322836,
                    "duration": 0.28972900000002255
                },
                {
                    "name": "C5",
                    "midi": 72,
                    "time": 365.348269000002,
                    "velocity": 0.2677165354330709,
                    "duration": 0.28972900000002255
                },
                {
                    "name": "A#4",
                    "midi": 70,
                    "time": 365.637998000002,
                    "velocity": 0.2755905511811024,
                    "duration": 0.28972900000002255
                },
                {
                    "name": "G#4",
                    "midi": 68,
                    "time": 365.92772700000205,
                    "velocity": 0.2992125984251969,
                    "duration": 1.3037805000000162
                },
                {
                    "name": "B3",
                    "midi": 59,
                    "time": 367.23150750000207,
                    "velocity": 0.29133858267716534,
                    "duration": 0.8691870000000108
                },
                {
                    "name": "D#4",
                    "midi": 63,
                    "time": 367.6661010000021,
                    "velocity": 0.2992125984251969,
                    "duration": 0.4345935000000054
                },
                {
                    "name": "F4",
                    "midi": 65,
                    "time": 368.1006945000021,
                    "velocity": 0.2755905511811024,
                    "duration": 0.4345935000000054
                },
                {
                    "name": "G4",
                    "midi": 67,
                    "time": 368.5352880000021,
                    "velocity": 0.36220472440944884,
                    "duration": 2.6075609999999756
                },
                {
                    "name": "G4",
                    "midi": 67,
                    "time": 372.01203600000207,
                    "velocity": 0.28346456692913385,
                    "duration": 0.4345935000000054
                },
                {
                    "name": "G#4",
                    "midi": 68,
                    "time": 372.4466295000021,
                    "velocity": 0.2677165354330709,
                    "duration": 0.4345935000000054
                },
                {
                    "name": "A#4",
                    "midi": 70,
                    "time": 372.8812230000021,
                    "velocity": 0.29133858267716534,
                    "duration": 0.28972900000002255
                },
                {
                    "name": "D5",
                    "midi": 74,
                    "time": 373.1709520000021,
                    "velocity": 0.2677165354330709,
                    "duration": 0.28972900000002255
                },
                {
                    "name": "C5",
                    "midi": 72,
                    "time": 373.4606810000021,
                    "velocity": 0.2677165354330709,
                    "duration": 0.28972900000002255
                },
                {
                    "name": "A#4",
                    "midi": 70,
                    "time": 373.75041000000215,
                    "velocity": 0.33070866141732286,
                    "duration": 0.8691870000000108
                },
                {
                    "name": "A#5",
                    "midi": 82,
                    "time": 374.61959700000216,
                    "velocity": 0.4015748031496063,
                    "duration": 2.6075609999999756
                },
                {
                    "name": "G4",
                    "midi": 67,
                    "time": 377.51688700000216,
                    "velocity": 0.28346456692913385,
                    "duration": 0.28972900000002255
                },
                {
                    "name": "G#4",
                    "midi": 68,
                    "time": 377.8066160000022,
                    "velocity": 0.2677165354330709,
                    "duration": 0.28972900000002255
                },
                {
                    "name": "A#4",
                    "midi": 70,
                    "time": 378.0963450000022,
                    "velocity": 0.29133858267716534,
                    "duration": 0.28972900000002255
                },
                {
                    "name": "D5",
                    "midi": 74,
                    "time": 378.3860740000022,
                    "velocity": 0.2677165354330709,
                    "duration": 0.28972900000002255
                },
                {
                    "name": "C5",
                    "midi": 72,
                    "time": 378.67580300000225,
                    "velocity": 0.2677165354330709,
                    "duration": 0.28972900000002255
                },
                {
                    "name": "A#4",
                    "midi": 70,
                    "time": 378.96553200000227,
                    "velocity": 0.33070866141732286,
                    "duration": 0.8691870000000108
                },
                {
                    "name": "A#5",
                    "midi": 82,
                    "time": 379.8347190000023,
                    "velocity": 0.3937007874015748,
                    "duration": 2.6075609999999756
                },
                {
                    "name": "F4",
                    "midi": 65,
                    "time": 382.7320090000023,
                    "velocity": 0.28346456692913385,
                    "duration": 0.28972900000002255
                },
                {
                    "name": "G#4",
                    "midi": 68,
                    "time": 383.0217380000023,
                    "velocity": 0.2677165354330709,
                    "duration": 0.28972900000002255
                },
                {
                    "name": "A#4",
                    "midi": 70,
                    "time": 383.3114670000023,
                    "velocity": 0.29133858267716534,
                    "duration": 0.28972900000002255
                },
                {
                    "name": "D5",
                    "midi": 74,
                    "time": 383.60119600000235,
                    "velocity": 0.2677165354330709,
                    "duration": 0.28972900000002255
                },
                {
                    "name": "C5",
                    "midi": 72,
                    "time": 383.89092500000237,
                    "velocity": 0.2677165354330709,
                    "duration": 0.28972900000002255
                },
                {
                    "name": "A#4",
                    "midi": 70,
                    "time": 384.1806540000024,
                    "velocity": 0.33070866141732286,
                    "duration": 1.1589159999999765
                },
                {
                    "name": "C#4",
                    "midi": 61,
                    "time": 385.33957000000237,
                    "velocity": 0.2677165354330709,
                    "duration": 0.8691870000000677
                },
                {
                    "name": "D#4",
                    "midi": 63,
                    "time": 385.6292990000024,
                    "velocity": 0.2677165354330709,
                    "duration": 0.28972900000002255
                },
                {
                    "name": "G4",
                    "midi": 67,
                    "time": 385.9190280000024,
                    "velocity": 0.30708661417322836,
                    "duration": 0.28972900000002255
                },
                {
                    "name": "C5",
                    "midi": 72,
                    "time": 386.20875700000244,
                    "velocity": 0.2677165354330709,
                    "duration": 0.28972900000002255
                },
                {
                    "name": "A#4",
                    "midi": 70,
                    "time": 386.49848600000246,
                    "velocity": 0.2755905511811024,
                    "duration": 0.28972900000002255
                },
                {
                    "name": "G#4",
                    "midi": 68,
                    "time": 386.7882150000025,
                    "velocity": 0.2992125984251969,
                    "duration": 1.3037805000000162
                },
                {
                    "name": "B3",
                    "midi": 59,
                    "time": 388.0919955000025,
                    "velocity": 0.29133858267716534,
                    "duration": 0.8691870000000108
                },
                {
                    "name": "D#4",
                    "midi": 63,
                    "time": 388.5265890000025,
                    "velocity": 0.2992125984251969,
                    "duration": 0.4345935000000054
                },
                {
                    "name": "F4",
                    "midi": 65,
                    "time": 388.9611825000025,
                    "velocity": 0.2755905511811024,
                    "duration": 0.4345935000000054
                },
                {
                    "name": "G4",
                    "midi": 67,
                    "time": 389.3957760000025,
                    "velocity": 0.36220472440944884,
                    "duration": 3.042154499999981
                },
                {
                    "name": "G4",
                    "midi": 67,
                    "time": 392.4379305000025,
                    "velocity": 0.2677165354330709,
                    "duration": 0.4345935000000054
                },
                {
                    "name": "A#4",
                    "midi": 70,
                    "time": 392.8725240000025,
                    "velocity": 0.28346456692913385,
                    "duration": 0.4345935000000054
                },
                {
                    "name": "G5",
                    "midi": 79,
                    "time": 393.3071175000025,
                    "velocity": 0.29133858267716534,
                    "duration": 0.4345935000000054
                },
                {
                    "name": "F5",
                    "midi": 77,
                    "time": 393.7417110000025,
                    "velocity": 0.31496062992125984,
                    "duration": 0.4345935000000054
                },
                {
                    "name": "D#5",
                    "midi": 75,
                    "time": 394.1763045000025,
                    "velocity": 0.29133858267716534,
                    "duration": 0.4345935000000054
                },
                {
                    "name": "D5",
                    "midi": 74,
                    "time": 394.6108980000025,
                    "velocity": 0.36220472440944884,
                    "duration": 3.042154499999981
                },
                {
                    "name": "A#4",
                    "midi": 70,
                    "time": 397.6530525000025,
                    "velocity": 0.2677165354330709,
                    "duration": 0.4345935000000054
                },
                {
                    "name": "D5",
                    "midi": 74,
                    "time": 398.0876460000025,
                    "velocity": 0.28346456692913385,
                    "duration": 0.4345935000000054
                },
                {
                    "name": "A#5",
                    "midi": 82,
                    "time": 398.5222395000025,
                    "velocity": 0.29133858267716534,
                    "duration": 0.4345935000000054
                },
                {
                    "name": "D5",
                    "midi": 74,
                    "time": 398.9568330000025,
                    "velocity": 0.31496062992125984,
                    "duration": 0.4345935000000054
                },
                {
                    "name": "D#5",
                    "midi": 75,
                    "time": 399.3914265000025,
                    "velocity": 0.29133858267716534,
                    "duration": 0.4345935000000054
                },
                {
                    "name": "E5",
                    "midi": 76,
                    "time": 399.82602000000253,
                    "velocity": 0.36220472440944884,
                    "duration": 0.8691870000000108
                },
                {
                    "name": "F5",
                    "midi": 77,
                    "time": 400.69520700000254,
                    "velocity": 0.36220472440944884,
                    "duration": 2.172967500000027
                },
                {
                    "name": "D5",
                    "midi": 74,
                    "time": 402.86817450000257,
                    "velocity": 0.30708661417322836,
                    "duration": 0.4345935000000054
                },
                {
                    "name": "F5",
                    "midi": 77,
                    "time": 403.3027680000026,
                    "velocity": 0.33858267716535434,
                    "duration": 0.4345935000000054
                },
                {
                    "name": "D6",
                    "midi": 86,
                    "time": 403.7373615000026,
                    "velocity": 0.3937007874015748,
                    "duration": 0.4345935000000054
                },
                {
                    "name": "C6",
                    "midi": 84,
                    "time": 404.1719550000026,
                    "velocity": 0.36220472440944884,
                    "duration": 0.4345935000000054
                },
                {
                    "name": "A#5",
                    "midi": 82,
                    "time": 404.6065485000026,
                    "velocity": 0.3228346456692913,
                    "duration": 0.4345935000000054
                },
                {
                    "name": "G#5",
                    "midi": 80,
                    "time": 405.0411420000026,
                    "velocity": 0.3543307086614173,
                    "duration": 0.4345935000000054
                },
                {
                    "name": "A5",
                    "midi": 81,
                    "time": 405.4757355000026,
                    "velocity": 0.31496062992125984,
                    "duration": 0.4345935000000054
                },
                {
                    "name": "F6",
                    "midi": 89,
                    "time": 405.9103290000026,
                    "velocity": 0.4015748031496063,
                    "duration": 0.4345935000000054
                },
                {
                    "name": "E6",
                    "midi": 88,
                    "time": 406.3449225000026,
                    "velocity": 0.36220472440944884,
                    "duration": 0.4345935000000054
                },
                {
                    "name": "D6",
                    "midi": 86,
                    "time": 406.7795160000026,
                    "velocity": 0.3543307086614173,
                    "duration": 0.4345935000000054
                },
                {
                    "name": "A5",
                    "midi": 81,
                    "time": 407.2141095000026,
                    "velocity": 0.31496062992125984,
                    "duration": 0.4345935000000054
                },
                {
                    "name": "D5",
                    "midi": 74,
                    "time": 407.6487030000026,
                    "velocity": 0.31496062992125984,
                    "duration": 0.4345935000000054
                },
                {
                    "name": "A4",
                    "midi": 69,
                    "time": 408.08329650000263,
                    "velocity": 0.28346456692913385,
                    "duration": 0.4345935000000054
                },
                {
                    "name": "F4",
                    "midi": 65,
                    "time": 408.51789000000264,
                    "velocity": 0.30708661417322836,
                    "duration": 0.4345935000000054
                },
                {
                    "name": "D4",
                    "midi": 62,
                    "time": 408.95248350000264,
                    "velocity": 0.2677165354330709,
                    "duration": 0.4345935000000054
                },
                {
                    "name": "E4",
                    "midi": 64,
                    "time": 409.38707700000265,
                    "velocity": 0.30708661417322836,
                    "duration": 0.32594512499997563
                },
                {
                    "name": "G4",
                    "midi": 67,
                    "time": 409.7130221250026,
                    "velocity": 0.2440944881889764,
                    "duration": 0.10864837499997293
                },
                {
                    "name": "F4",
                    "midi": 65,
                    "time": 409.8216705000026,
                    "velocity": 0.28346456692913385,
                    "duration": 0.4345935000000054
                },
                {
                    "name": "D4",
                    "midi": 62,
                    "time": 413.2984185000026,
                    "velocity": 0.2992125984251969,
                    "duration": 2.172967500000027
                },
                {
                    "name": "E4",
                    "midi": 64,
                    "time": 413.7330120000026,
                    "velocity": 0.29133858267716534,
                    "duration": 1.7383740000000216
                },
                {
                    "name": "G#4",
                    "midi": 68,
                    "time": 414.1676055000026,
                    "velocity": 0.29133858267716534,
                    "duration": 0.4345935000000054
                },
                {
                    "name": "C5",
                    "midi": 72,
                    "time": 414.6021990000026,
                    "velocity": 0.3228346456692913,
                    "duration": 0.4345935000000054
                },
                {
                    "name": "B4",
                    "midi": 71,
                    "time": 415.0367925000026,
                    "velocity": 0.30708661417322836,
                    "duration": 0.4345935000000054
                },
                {
                    "name": "A4",
                    "midi": 69,
                    "time": 415.4713860000026,
                    "velocity": 0.29133858267716534,
                    "duration": 2.6075610000000324
                },
                {
                    "name": "C4",
                    "midi": 60,
                    "time": 416.3405730000026,
                    "velocity": 0.18110236220472442,
                    "duration": 0.8601329687500083
                },
                {
                    "name": "E4",
                    "midi": 64,
                    "time": 416.3405730000026,
                    "velocity": 0.2204724409448819,
                    "duration": 0.8601329687500083
                },
                {
                    "name": "C4",
                    "midi": 60,
                    "time": 417.20976000000263,
                    "velocity": 0.18110236220472442,
                    "duration": 0.8601329687500083
                },
                {
                    "name": "E4",
                    "midi": 64,
                    "time": 417.20976000000263,
                    "velocity": 0.2204724409448819,
                    "duration": 0.8601329687500083
                },
                {
                    "name": "E5",
                    "midi": 76,
                    "time": 418.07894700000264,
                    "velocity": 0.3228346456692913,
                    "duration": 2.6075610000000324
                },
                {
                    "name": "A4",
                    "midi": 69,
                    "time": 418.94813400000265,
                    "velocity": 0.2204724409448819,
                    "duration": 0.8601329687500083
                },
                {
                    "name": "A4",
                    "midi": 69,
                    "time": 419.81732100000266,
                    "velocity": 0.2204724409448819,
                    "duration": 0.8601329687500083
                },
                {
                    "name": "D5",
                    "midi": 74,
                    "time": 420.6865080000027,
                    "velocity": 0.30708661417322836,
                    "duration": 2.6075610000000324
                },
                {
                    "name": "A4",
                    "midi": 69,
                    "time": 421.5556950000027,
                    "velocity": 0.2204724409448819,
                    "duration": 0.8601329687500083
                },
                {
                    "name": "F4",
                    "midi": 65,
                    "time": 421.5556950000027,
                    "velocity": 0.18110236220472442,
                    "duration": 0.8601329687500083
                },
                {
                    "name": "F4",
                    "midi": 65,
                    "time": 422.4248820000027,
                    "velocity": 0.18110236220472442,
                    "duration": 0.8601329687500083
                },
                {
                    "name": "A4",
                    "midi": 69,
                    "time": 422.4248820000027,
                    "velocity": 0.2204724409448819,
                    "duration": 0.8601329687500083
                },
                {
                    "name": "D4",
                    "midi": 62,
                    "time": 423.7286625000027,
                    "velocity": 0.31496062992125984,
                    "duration": 2.172967500000027
                },
                {
                    "name": "E4",
                    "midi": 64,
                    "time": 424.1632560000027,
                    "velocity": 0.29133858267716534,
                    "duration": 1.7383740000000216
                },
                {
                    "name": "G#4",
                    "midi": 68,
                    "time": 424.5978495000027,
                    "velocity": 0.29133858267716534,
                    "duration": 0.4345935000000054
                },
                {
                    "name": "C5",
                    "midi": 72,
                    "time": 425.03244300000273,
                    "velocity": 0.3228346456692913,
                    "duration": 0.4345935000000054
                },
                {
                    "name": "B4",
                    "midi": 71,
                    "time": 425.46703650000273,
                    "velocity": 0.30708661417322836,
                    "duration": 0.4345935000000054
                },
                {
                    "name": "A4",
                    "midi": 69,
                    "time": 425.90163000000274,
                    "velocity": 0.29133858267716534,
                    "duration": 2.6075610000000324
                },
                {
                    "name": "C4",
                    "midi": 60,
                    "time": 426.77081700000275,
                    "velocity": 0.18110236220472442,
                    "duration": 0.8601329687500083
                },
                {
                    "name": "E4",
                    "midi": 64,
                    "time": 426.77081700000275,
                    "velocity": 0.2204724409448819,
                    "duration": 0.8601329687500083
                },
                {
                    "name": "C4",
                    "midi": 60,
                    "time": 427.64000400000276,
                    "velocity": 0.18110236220472442,
                    "duration": 0.8601329687500083
                },
                {
                    "name": "E4",
                    "midi": 64,
                    "time": 427.64000400000276,
                    "velocity": 0.2204724409448819,
                    "duration": 0.8601329687500083
                },
                {
                    "name": "F#4",
                    "midi": 66,
                    "time": 428.5091910000028,
                    "velocity": 0.29133858267716534,
                    "duration": 2.6075610000000324
                },
                {
                    "name": "E4",
                    "midi": 64,
                    "time": 429.3783780000028,
                    "velocity": 0.2204724409448819,
                    "duration": 0.8601329687500083
                },
                {
                    "name": "A3",
                    "midi": 57,
                    "time": 429.3783780000028,
                    "velocity": 0.18110236220472442,
                    "duration": 0.8601329687500083
                },
                {
                    "name": "C4",
                    "midi": 60,
                    "time": 429.3783780000028,
                    "velocity": 0.18110236220472442,
                    "duration": 0.8601329687500083
                },
                {
                    "name": "E4",
                    "midi": 64,
                    "time": 430.2475650000028,
                    "velocity": 0.2204724409448819,
                    "duration": 0.8601329687500083
                },
                {
                    "name": "A3",
                    "midi": 57,
                    "time": 430.2475650000028,
                    "velocity": 0.18110236220472442,
                    "duration": 0.8601329687500083
                },
                {
                    "name": "C4",
                    "midi": 60,
                    "time": 430.2475650000028,
                    "velocity": 0.18110236220472442,
                    "duration": 0.8601329687500083
                },
                {
                    "name": "G#4",
                    "midi": 68,
                    "time": 431.1167520000028,
                    "velocity": 0.29133858267716534,
                    "duration": 2.6075610000000324
                },
                {
                    "name": "B3",
                    "midi": 59,
                    "time": 431.9859390000028,
                    "velocity": 0.14960629921259844,
                    "duration": 0.8601329687500083
                },
                {
                    "name": "E4",
                    "midi": 64,
                    "time": 431.9859390000028,
                    "velocity": 0.18110236220472442,
                    "duration": 0.8601329687500083
                },
                {
                    "name": "B3",
                    "midi": 59,
                    "time": 432.8551260000028,
                    "velocity": 0.14960629921259844,
                    "duration": 0.8601329687500083
                },
                {
                    "name": "E4",
                    "midi": 64,
                    "time": 432.8551260000028,
                    "velocity": 0.18110236220472442,
                    "duration": 0.8601329687500083
                },
                {
                    "name": "D4",
                    "midi": 62,
                    "time": 434.15890650000284,
                    "velocity": 0.31496062992125984,
                    "duration": 2.172967500000027
                },
                {
                    "name": "E4",
                    "midi": 64,
                    "time": 434.59350000000285,
                    "velocity": 0.29133858267716534,
                    "duration": 1.7383740000000216
                },
                {
                    "name": "G#4",
                    "midi": 68,
                    "time": 435.02809350000285,
                    "velocity": 0.29133858267716534,
                    "duration": 0.4345935000000054
                },
                {
                    "name": "C5",
                    "midi": 72,
                    "time": 435.46268700000286,
                    "velocity": 0.3228346456692913,
                    "duration": 0.4345935000000054
                },
                {
                    "name": "B4",
                    "midi": 71,
                    "time": 435.89728050000286,
                    "velocity": 0.30708661417322836,
                    "duration": 0.4345935000000054
                },
                {
                    "name": "A4",
                    "midi": 69,
                    "time": 436.33187400000287,
                    "velocity": 0.29133858267716534,
                    "duration": 2.6075610000000324
                },
                {
                    "name": "C4",
                    "midi": 60,
                    "time": 437.2010610000029,
                    "velocity": 0.18110236220472442,
                    "duration": 0.8601329687500083
                },
                {
                    "name": "E4",
                    "midi": 64,
                    "time": 437.2010610000029,
                    "velocity": 0.2204724409448819,
                    "duration": 0.8601329687500083
                },
                {
                    "name": "C4",
                    "midi": 60,
                    "time": 438.0702480000029,
                    "velocity": 0.18110236220472442,
                    "duration": 0.8601329687500083
                },
                {
                    "name": "E4",
                    "midi": 64,
                    "time": 438.0702480000029,
                    "velocity": 0.2204724409448819,
                    "duration": 0.8601329687500083
                },
                {
                    "name": "E5",
                    "midi": 76,
                    "time": 438.9394350000029,
                    "velocity": 0.41732283464566927,
                    "duration": 2.6075610000000324
                },
                {
                    "name": "C5",
                    "midi": 72,
                    "time": 439.8086220000029,
                    "velocity": 0.25196850393700787,
                    "duration": 0.8601329687500083
                },
                {
                    "name": "A4",
                    "midi": 69,
                    "time": 439.8086220000029,
                    "velocity": 0.2047244094488189,
                    "duration": 0.8601329687500083
                },
                {
                    "name": "A4",
                    "midi": 69,
                    "time": 440.6778090000029,
                    "velocity": 0.2047244094488189,
                    "duration": 0.8601329687500083
                },
                {
                    "name": "C5",
                    "midi": 72,
                    "time": 440.6778090000029,
                    "velocity": 0.25196850393700787,
                    "duration": 0.8601329687500083
                },
                {
                    "name": "F#5",
                    "midi": 78,
                    "time": 441.54699600000293,
                    "velocity": 0.41732283464566927,
                    "duration": 2.6075610000000324
                },
                {
                    "name": "E4",
                    "midi": 64,
                    "time": 442.41618300000295,
                    "velocity": 0.2047244094488189,
                    "duration": 0.8601329687500083
                },
                {
                    "name": "A4",
                    "midi": 69,
                    "time": 442.41618300000295,
                    "velocity": 0.2047244094488189,
                    "duration": 0.8601329687500083
                },
                {
                    "name": "C5",
                    "midi": 72,
                    "time": 442.41618300000295,
                    "velocity": 0.25196850393700787,
                    "duration": 0.8601329687500083
                },
                {
                    "name": "A4",
                    "midi": 69,
                    "time": 443.28537000000296,
                    "velocity": 0.2047244094488189,
                    "duration": 0.8601329687500083
                },
                {
                    "name": "C5",
                    "midi": 72,
                    "time": 443.28537000000296,
                    "velocity": 0.25196850393700787,
                    "duration": 0.8601329687500083
                },
                {
                    "name": "E4",
                    "midi": 64,
                    "time": 443.28537000000296,
                    "velocity": 0.2047244094488189,
                    "duration": 0.8601329687500083
                },
                {
                    "name": "C4",
                    "midi": 60,
                    "time": 444.589150500003,
                    "velocity": 0.31496062992125984,
                    "duration": 2.172967500000027
                },
                {
                    "name": "E4",
                    "midi": 64,
                    "time": 445.023744000003,
                    "velocity": 0.29133858267716534,
                    "duration": 1.7383740000000216
                },
                {
                    "name": "G#4",
                    "midi": 68,
                    "time": 445.458337500003,
                    "velocity": 0.29133858267716534,
                    "duration": 0.4345935000000054
                },
                {
                    "name": "B4",
                    "midi": 71,
                    "time": 445.892931000003,
                    "velocity": 0.3228346456692913,
                    "duration": 0.4345935000000054
                },
                {
                    "name": "A4",
                    "midi": 69,
                    "time": 446.327524500003,
                    "velocity": 0.30708661417322836,
                    "duration": 0.4345935000000054
                },
                {
                    "name": "A4",
                    "midi": 69,
                    "time": 446.762118000003,
                    "velocity": 0.29133858267716534,
                    "duration": 2.6075610000000324
                },
                {
                    "name": "E4",
                    "midi": 64,
                    "time": 447.631305000003,
                    "velocity": 0.2204724409448819,
                    "duration": 0.8601329687500083
                },
                {
                    "name": "C4",
                    "midi": 60,
                    "time": 447.631305000003,
                    "velocity": 0.18110236220472442,
                    "duration": 0.8601329687500083
                },
                {
                    "name": "C4",
                    "midi": 60,
                    "time": 448.500492000003,
                    "velocity": 0.18110236220472442,
                    "duration": 0.8601329687500083
                },
                {
                    "name": "E4",
                    "midi": 64,
                    "time": 448.500492000003,
                    "velocity": 0.2204724409448819,
                    "duration": 0.8601329687500083
                },
                {
                    "name": "F#5",
                    "midi": 78,
                    "time": 449.36967900000303,
                    "velocity": 0.4330708661417323,
                    "duration": 2.6075610000000324
                },
                {
                    "name": "E4",
                    "midi": 64,
                    "time": 450.23886600000304,
                    "velocity": 0.2204724409448819,
                    "duration": 0.8601329687500083
                },
                {
                    "name": "A4",
                    "midi": 69,
                    "time": 450.23886600000304,
                    "velocity": 0.2204724409448819,
                    "duration": 0.8601329687500083
                },
                {
                    "name": "C5",
                    "midi": 72,
                    "time": 450.23886600000304,
                    "velocity": 0.2677165354330709,
                    "duration": 0.8601329687500083
                },
                {
                    "name": "E4",
                    "midi": 64,
                    "time": 451.10805300000305,
                    "velocity": 0.2204724409448819,
                    "duration": 0.8601329687500083
                },
                {
                    "name": "A4",
                    "midi": 69,
                    "time": 451.10805300000305,
                    "velocity": 0.2204724409448819,
                    "duration": 0.8601329687500083
                },
                {
                    "name": "C5",
                    "midi": 72,
                    "time": 451.10805300000305,
                    "velocity": 0.28346456692913385,
                    "duration": 0.8601329687500083
                },
                {
                    "name": "G#5",
                    "midi": 80,
                    "time": 451.97724000000306,
                    "velocity": 0.4566929133858268,
                    "duration": 2.6075610000000324
                },
                {
                    "name": "A4",
                    "midi": 69,
                    "time": 452.8464270000031,
                    "velocity": 0.23622047244094488,
                    "duration": 0.8601329687500083
                },
                {
                    "name": "C5",
                    "midi": 72,
                    "time": 452.8464270000031,
                    "velocity": 0.23622047244094488,
                    "duration": 0.8601329687500083
                },
                {
                    "name": "D#5",
                    "midi": 75,
                    "time": 452.8464270000031,
                    "velocity": 0.28346456692913385,
                    "duration": 0.8601329687500083
                },
                {
                    "name": "D#5",
                    "midi": 75,
                    "time": 453.7156140000031,
                    "velocity": 0.29133858267716534,
                    "duration": 0.8601329687500083
                },
                {
                    "name": "C5",
                    "midi": 72,
                    "time": 453.7156140000031,
                    "velocity": 0.23622047244094488,
                    "duration": 0.8601329687500083
                },
                {
                    "name": "A4",
                    "midi": 69,
                    "time": 453.7156140000031,
                    "velocity": 0.23622047244094488,
                    "duration": 0.8601329687500083
                },
                {
                    "name": "F#5",
                    "midi": 78,
                    "time": 454.5848010000031,
                    "velocity": 0.4881889763779528,
                    "duration": 1.7383740000000216
                },
                {
                    "name": "A4",
                    "midi": 69,
                    "time": 455.4539880000031,
                    "velocity": 0.2440944881889764,
                    "duration": 0.8691870000000108
                },
                {
                    "name": "D#5",
                    "midi": 75,
                    "time": 455.4539880000031,
                    "velocity": 0.30708661417322836,
                    "duration": 0.8691870000000108
                },
                {
                    "name": "C5",
                    "midi": 72,
                    "time": 455.4539880000031,
                    "velocity": 0.2440944881889764,
                    "duration": 0.8691870000000108
                },
                {
                    "name": "G#5",
                    "midi": 80,
                    "time": 456.7577685000031,
                    "velocity": 0.5118110236220472,
                    "duration": 0.3983773749999955
                },
                {
                    "name": "G#5",
                    "midi": 80,
                    "time": 457.19236200000313,
                    "velocity": 0.5196850393700787,
                    "duration": 2.6075610000000324
                },
                {
                    "name": "D#5",
                    "midi": 75,
                    "time": 458.06154900000314,
                    "velocity": 0.3543307086614173,
                    "duration": 0.8601329687500083
                },
                {
                    "name": "C5",
                    "midi": 72,
                    "time": 458.06154900000314,
                    "velocity": 0.2755905511811024,
                    "duration": 0.8601329687500083
                },
                {
                    "name": "A4",
                    "midi": 69,
                    "time": 458.06154900000314,
                    "velocity": 0.2755905511811024,
                    "duration": 0.8601329687500083
                },
                {
                    "name": "D#5",
                    "midi": 75,
                    "time": 458.93073600000315,
                    "velocity": 0.3543307086614173,
                    "duration": 0.8601329687500083
                },
                {
                    "name": "C5",
                    "midi": 72,
                    "time": 458.93073600000315,
                    "velocity": 0.2755905511811024,
                    "duration": 0.8601329687500083
                },
                {
                    "name": "A4",
                    "midi": 69,
                    "time": 458.93073600000315,
                    "velocity": 0.2755905511811024,
                    "duration": 0.8601329687500083
                },
                {
                    "name": "F#5",
                    "midi": 78,
                    "time": 459.79992300000316,
                    "velocity": 0.5433070866141733,
                    "duration": 1.7383740000000216
                },
                {
                    "name": "A4",
                    "midi": 69,
                    "time": 460.6691100000032,
                    "velocity": 0.2992125984251969,
                    "duration": 0.8691870000000108
                },
                {
                    "name": "C5",
                    "midi": 72,
                    "time": 460.6691100000032,
                    "velocity": 0.2992125984251969,
                    "duration": 0.8691870000000108
                },
                {
                    "name": "D#5",
                    "midi": 75,
                    "time": 460.6691100000032,
                    "velocity": 0.3700787401574803,
                    "duration": 0.8691870000000108
                },
                {
                    "name": "G#5",
                    "midi": 80,
                    "time": 461.9728905000032,
                    "velocity": 0.5590551181102362,
                    "duration": 0.3983773749999955
                },
                {
                    "name": "G#5",
                    "midi": 80,
                    "time": 462.4074840000032,
                    "velocity": 0.5826771653543307,
                    "duration": 2.6075610000000324
                },
                {
                    "name": "D#5",
                    "midi": 75,
                    "time": 463.2766710000032,
                    "velocity": 0.3937007874015748,
                    "duration": 0.8601329687500083
                },
                {
                    "name": "C5",
                    "midi": 72,
                    "time": 463.2766710000032,
                    "velocity": 0.30708661417322836,
                    "duration": 0.8601329687500083
                },
                {
                    "name": "A4",
                    "midi": 69,
                    "time": 463.2766710000032,
                    "velocity": 0.30708661417322836,
                    "duration": 0.8601329687500083
                },
                {
                    "name": "D#5",
                    "midi": 75,
                    "time": 464.1458580000032,
                    "velocity": 0.3937007874015748,
                    "duration": 0.8601329687500083
                },
                {
                    "name": "C5",
                    "midi": 72,
                    "time": 464.1458580000032,
                    "velocity": 0.31496062992125984,
                    "duration": 0.8601329687500083
                },
                {
                    "name": "A4",
                    "midi": 69,
                    "time": 464.1458580000032,
                    "velocity": 0.31496062992125984,
                    "duration": 0.8601329687500083
                },
                {
                    "name": "F#5",
                    "midi": 78,
                    "time": 465.0150450000032,
                    "velocity": 0.6377952755905512,
                    "duration": 1.7383740000000216
                },
                {
                    "name": "D#5",
                    "midi": 75,
                    "time": 465.88423200000324,
                    "velocity": 0.41732283464566927,
                    "duration": 0.8691870000000108
                },
                {
                    "name": "A4",
                    "midi": 69,
                    "time": 465.88423200000324,
                    "velocity": 0.33070866141732286,
                    "duration": 0.8691870000000108
                },
                {
                    "name": "C5",
                    "midi": 72,
                    "time": 465.88423200000324,
                    "velocity": 0.33070866141732286,
                    "duration": 0.8691870000000108
                },
                {
                    "name": "G#5",
                    "midi": 80,
                    "time": 467.18801250000325,
                    "velocity": 0.6062992125984252,
                    "duration": 0.4345935000000054
                },
                {
                    "name": "A5",
                    "midi": 81,
                    "time": 467.62260600000326,
                    "velocity": 0.6141732283464567,
                    "duration": 2.6075610000000324
                },
                {
                    "name": "F#5",
                    "midi": 78,
                    "time": 468.49179300000327,
                    "velocity": 0.44881889763779526,
                    "duration": 0.8601329687500083
                },
                {
                    "name": "C5",
                    "midi": 72,
                    "time": 468.49179300000327,
                    "velocity": 0.3700787401574803,
                    "duration": 0.8601329687500083
                },
                {
                    "name": "D#5",
                    "midi": 75,
                    "time": 468.49179300000327,
                    "velocity": 0.3700787401574803,
                    "duration": 0.8601329687500083
                },
                {
                    "name": "F#5",
                    "midi": 78,
                    "time": 469.3609800000033,
                    "velocity": 0.4645669291338583,
                    "duration": 0.8601329687500083
                },
                {
                    "name": "D#5",
                    "midi": 75,
                    "time": 469.3609800000033,
                    "velocity": 0.3779527559055118,
                    "duration": 0.8601329687500083
                },
                {
                    "name": "C5",
                    "midi": 72,
                    "time": 469.3609800000033,
                    "velocity": 0.3779527559055118,
                    "duration": 0.8601329687500083
                },
                {
                    "name": "G#5",
                    "midi": 80,
                    "time": 470.2301670000033,
                    "velocity": 0.7401574803149606,
                    "duration": 1.7383740000000216
                },
                {
                    "name": "F#5",
                    "midi": 78,
                    "time": 471.0993540000033,
                    "velocity": 0.49606299212598426,
                    "duration": 0.8601329687500083
                },
                {
                    "name": "D#5",
                    "midi": 75,
                    "time": 471.0993540000033,
                    "velocity": 0.3937007874015748,
                    "duration": 0.8601329687500083
                },
                {
                    "name": "C5",
                    "midi": 72,
                    "time": 471.0993540000033,
                    "velocity": 0.3937007874015748,
                    "duration": 0.8601329687500083
                },
                {
                    "name": "D#5",
                    "midi": 75,
                    "time": 471.9685410000033,
                    "velocity": 0.3937007874015748,
                    "duration": 0.8601329687500083
                },
                {
                    "name": "C5",
                    "midi": 72,
                    "time": 471.9685410000033,
                    "velocity": 0.3937007874015748,
                    "duration": 0.8601329687500083
                },
                {
                    "name": "F#5",
                    "midi": 78,
                    "time": 471.9685410000033,
                    "velocity": 0.48031496062992124,
                    "duration": 0.8601329687500083
                },
                {
                    "name": "A5",
                    "midi": 81,
                    "time": 471.9685410000033,
                    "velocity": 0.7874015748031497,
                    "duration": 0.8601329687500083
                },
                {
                    "name": "B4",
                    "midi": 71,
                    "time": 472.8377280000033,
                    "velocity": 0.6456692913385826,
                    "duration": 2.6075609999999756
                },
                {
                    "name": "D5",
                    "midi": 74,
                    "time": 472.8377280000033,
                    "velocity": 0.6456692913385826,
                    "duration": 2.6075609999999756
                },
                {
                    "name": "B5",
                    "midi": 83,
                    "time": 472.8377280000033,
                    "velocity": 0.7795275590551181,
                    "duration": 2.6075609999999756
                },
                {
                    "name": "G#5",
                    "midi": 80,
                    "time": 472.8377280000033,
                    "velocity": 0.6456692913385826,
                    "duration": 2.6075609999999756
                },
                {
                    "name": "E5",
                    "midi": 76,
                    "time": 472.8377280000033,
                    "velocity": 0.6456692913385826,
                    "duration": 2.6075609999999756
                },
                {
                    "name": "E5",
                    "midi": 76,
                    "time": 475.4452890000033,
                    "velocity": 0.6377952755905512,
                    "duration": 1.7383740000000216
                },
                {
                    "name": "D5",
                    "midi": 74,
                    "time": 475.4452890000033,
                    "velocity": 0.6377952755905512,
                    "duration": 1.7383740000000216
                },
                {
                    "name": "G#5",
                    "midi": 80,
                    "time": 475.4452890000033,
                    "velocity": 0.6377952755905512,
                    "duration": 1.7383740000000216
                },
                {
                    "name": "C#6",
                    "midi": 85,
                    "time": 475.4452890000033,
                    "velocity": 0.7559055118110236,
                    "duration": 1.7383740000000216
                },
                {
                    "name": "D5",
                    "midi": 74,
                    "time": 477.1836630000033,
                    "velocity": 0.6062992125984252,
                    "duration": 0.8691870000000108
                },
                {
                    "name": "E5",
                    "midi": 76,
                    "time": 477.1836630000033,
                    "velocity": 0.6062992125984252,
                    "duration": 0.8691870000000108
                },
                {
                    "name": "G#5",
                    "midi": 80,
                    "time": 477.1836630000033,
                    "velocity": 0.6062992125984252,
                    "duration": 0.8691870000000108
                },
                {
                    "name": "C#6",
                    "midi": 85,
                    "time": 477.1836630000033,
                    "velocity": 0.7165354330708661,
                    "duration": 0.8691870000000108
                },
                {
                    "name": "A5",
                    "midi": 81,
                    "time": 478.05285000000333,
                    "velocity": 0.7559055118110236,
                    "duration": 2.6075609999999756
                },
                {
                    "name": "C#5",
                    "midi": 73,
                    "time": 478.05285000000333,
                    "velocity": 0.6377952755905512,
                    "duration": 2.6075609999999756
                },
                {
                    "name": "A4",
                    "midi": 69,
                    "time": 478.05285000000333,
                    "velocity": 0.6377952755905512,
                    "duration": 2.6075609999999756
                },
                {
                    "name": "A5",
                    "midi": 81,
                    "time": 480.6604110000033,
                    "velocity": 0.7007874015748031,
                    "duration": 1.7383740000000216
                },
                {
                    "name": "C#6",
                    "midi": 85,
                    "time": 480.6604110000033,
                    "velocity": 0.7007874015748031,
                    "duration": 1.7383740000000216
                },
                {
                    "name": "A6",
                    "midi": 93,
                    "time": 480.6604110000033,
                    "velocity": 0.8267716535433071,
                    "duration": 1.7383740000000216
                },
                {
                    "name": "G#5",
                    "midi": 80,
                    "time": 482.39878500000333,
                    "velocity": 0.6692913385826772,
                    "duration": 0.8691870000000108
                },
                {
                    "name": "C#6",
                    "midi": 85,
                    "time": 482.39878500000333,
                    "velocity": 0.6692913385826772,
                    "duration": 0.8691870000000108
                },
                {
                    "name": "G#6",
                    "midi": 92,
                    "time": 482.39878500000333,
                    "velocity": 0.7952755905511811,
                    "duration": 0.8691870000000108
                },
                {
                    "name": "F#5",
                    "midi": 78,
                    "time": 483.26797200000334,
                    "velocity": 0.6692913385826772,
                    "duration": 2.6075609999999756
                },
                {
                    "name": "C#6",
                    "midi": 85,
                    "time": 483.26797200000334,
                    "velocity": 0.7007874015748031,
                    "duration": 2.6075609999999756
                },
                {
                    "name": "F#6",
                    "midi": 90,
                    "time": 483.26797200000334,
                    "velocity": 0.8110236220472441,
                    "duration": 2.6075609999999756
                },
                {
                    "name": "B5",
                    "midi": 83,
                    "time": 485.8755330000033,
                    "velocity": 0.6771653543307087,
                    "duration": 1.7383740000000216
                },
                {
                    "name": "D#6",
                    "midi": 87,
                    "time": 485.8755330000033,
                    "velocity": 0.6771653543307087,
                    "duration": 1.7383740000000216
                },
                {
                    "name": "G#6",
                    "midi": 92,
                    "time": 485.8755330000033,
                    "velocity": 0.8031496062992126,
                    "duration": 1.7383740000000216
                },
                {
                    "name": "G#6",
                    "midi": 92,
                    "time": 487.61390700000334,
                    "velocity": 0.7322834645669292,
                    "duration": 0.8691870000000108
                },
                {
                    "name": "D#6",
                    "midi": 87,
                    "time": 487.61390700000334,
                    "velocity": 0.6220472440944882,
                    "duration": 0.8691870000000108
                },
                {
                    "name": "A5",
                    "midi": 81,
                    "time": 487.61390700000334,
                    "velocity": 0.6220472440944882,
                    "duration": 0.8691870000000108
                },
                {
                    "name": "E6",
                    "midi": 88,
                    "time": 488.48309400000335,
                    "velocity": 0.8110236220472441,
                    "duration": 2.6075609999999756
                },
                {
                    "name": "G#5",
                    "midi": 80,
                    "time": 488.48309400000335,
                    "velocity": 0.6929133858267716,
                    "duration": 2.6075609999999756
                },
                {
                    "name": "E5",
                    "midi": 76,
                    "time": 488.48309400000335,
                    "velocity": 0.6929133858267716,
                    "duration": 2.6075609999999756
                },
                {
                    "name": "E6",
                    "midi": 88,
                    "time": 491.0906550000033,
                    "velocity": 0.889763779527559,
                    "duration": 1.7383740000000216
                },
                {
                    "name": "E5",
                    "midi": 76,
                    "time": 491.0906550000033,
                    "velocity": 0.7559055118110236,
                    "duration": 1.7383740000000216
                },
                {
                    "name": "E5",
                    "midi": 76,
                    "time": 492.82902900000335,
                    "velocity": 0.7559055118110236,
                    "duration": 0.8691870000000108
                },
                {
                    "name": "E6",
                    "midi": 88,
                    "time": 492.82902900000335,
                    "velocity": 0.889763779527559,
                    "duration": 0.8691870000000108
                },
                {
                    "name": "A5",
                    "midi": 81,
                    "time": 493.69821600000336,
                    "velocity": 0.6771653543307087,
                    "duration": 2.6075610000000324
                },
                {
                    "name": "E5",
                    "midi": 76,
                    "time": 493.69821600000336,
                    "velocity": 0.7401574803149606,
                    "duration": 1.7383740000000216
                },
                {
                    "name": "E6",
                    "midi": 88,
                    "time": 493.69821600000336,
                    "velocity": 0.889763779527559,
                    "duration": 1.7383740000000216
                },
                {
                    "name": "D5",
                    "midi": 74,
                    "time": 495.4365900000034,
                    "velocity": 0.6456692913385826,
                    "duration": 0.8691870000000108
                },
                {
                    "name": "D6",
                    "midi": 86,
                    "time": 495.4365900000034,
                    "velocity": 0.7637795275590551,
                    "duration": 0.8691870000000108
                },
                {
                    "name": "D6",
                    "midi": 86,
                    "time": 496.3057770000034,
                    "velocity": 0.7480314960629921,
                    "duration": 0.28972900000002255
                },
                {
                    "name": "D5",
                    "midi": 74,
                    "time": 496.3057770000034,
                    "velocity": 0.6377952755905512,
                    "duration": 0.28972900000002255
                },
                {
                    "name": "E5",
                    "midi": 76,
                    "time": 496.5955060000034,
                    "velocity": 0.6220472440944882,
                    "duration": 0.28972900000002255
                },
                {
                    "name": "E6",
                    "midi": 88,
                    "time": 496.5955060000034,
                    "velocity": 0.7322834645669292,
                    "duration": 0.28972900000002255
                },
                {
                    "name": "D5",
                    "midi": 74,
                    "time": 496.88523500000343,
                    "velocity": 0.5905511811023622,
                    "duration": 0.28972900000002255
                },
                {
                    "name": "D6",
                    "midi": 86,
                    "time": 496.88523500000343,
                    "velocity": 0.7086614173228346,
                    "duration": 0.28972900000002255
                },
                {
                    "name": "C#5",
                    "midi": 73,
                    "time": 497.17496400000346,
                    "velocity": 0.6456692913385826,
                    "duration": 0.4345935000000054
                },
                {
                    "name": "C#6",
                    "midi": 85,
                    "time": 497.17496400000346,
                    "velocity": 0.7637795275590551,
                    "duration": 0.4345935000000054
                },
                {
                    "name": "D6",
                    "midi": 86,
                    "time": 497.60955750000346,
                    "velocity": 0.7322834645669292,
                    "duration": 0.4345935000000054
                },
                {
                    "name": "D5",
                    "midi": 74,
                    "time": 497.60955750000346,
                    "velocity": 0.6220472440944882,
                    "duration": 0.4345935000000054
                },
                {
                    "name": "F#6",
                    "midi": 90,
                    "time": 498.04415100000347,
                    "velocity": 0.7637795275590551,
                    "duration": 0.4345935000000054
                },
                {
                    "name": "F#5",
                    "midi": 78,
                    "time": 498.04415100000347,
                    "velocity": 0.6456692913385826,
                    "duration": 0.4345935000000054
                },
                {
                    "name": "E6",
                    "midi": 88,
                    "time": 498.4787445000035,
                    "velocity": 0.7244094488188977,
                    "duration": 0.4345935000000054
                },
                {
                    "name": "E5",
                    "midi": 76,
                    "time": 498.4787445000035,
                    "velocity": 0.6141732283464567,
                    "duration": 0.4345935000000054
                },
                {
                    "name": "D5",
                    "midi": 74,
                    "time": 498.9133380000035,
                    "velocity": 0.7401574803149606,
                    "duration": 1.7383740000000216
                },
                {
                    "name": "G#5",
                    "midi": 80,
                    "time": 498.9133380000035,
                    "velocity": 0.6771653543307087,
                    "duration": 2.6075610000000324
                },
                {
                    "name": "D6",
                    "midi": 86,
                    "time": 498.9133380000035,
                    "velocity": 0.889763779527559,
                    "duration": 1.7383740000000216
                },
                {
                    "name": "C#5",
                    "midi": 73,
                    "time": 500.6517120000035,
                    "velocity": 0.6456692913385826,
                    "duration": 0.8691870000000108
                },
                {
                    "name": "C#6",
                    "midi": 85,
                    "time": 500.6517120000035,
                    "velocity": 0.7637795275590551,
                    "duration": 0.8691870000000108
                },
                {
                    "name": "C#6",
                    "midi": 85,
                    "time": 501.5208990000035,
                    "velocity": 0.7480314960629921,
                    "duration": 0.28972900000002255
                },
                {
                    "name": "C#5",
                    "midi": 73,
                    "time": 501.5208990000035,
                    "velocity": 0.6377952755905512,
                    "duration": 0.28972900000002255
                },
                {
                    "name": "D5",
                    "midi": 74,
                    "time": 501.81062800000353,
                    "velocity": 0.6220472440944882,
                    "duration": 0.28972900000002255
                },
                {
                    "name": "D6",
                    "midi": 86,
                    "time": 501.81062800000353,
                    "velocity": 0.7322834645669292,
                    "duration": 0.28972900000002255
                },
                {
                    "name": "C#5",
                    "midi": 73,
                    "time": 502.10035700000356,
                    "velocity": 0.5905511811023622,
                    "duration": 0.28972900000002255
                },
                {
                    "name": "C#6",
                    "midi": 85,
                    "time": 502.10035700000356,
                    "velocity": 0.7086614173228346,
                    "duration": 0.28972900000002255
                },
                {
                    "name": "C5",
                    "midi": 72,
                    "time": 502.3900860000036,
                    "velocity": 0.6456692913385826,
                    "duration": 0.4345935000000054
                },
                {
                    "name": "C6",
                    "midi": 84,
                    "time": 502.3900860000036,
                    "velocity": 0.7637795275590551,
                    "duration": 0.4345935000000054
                },
                {
                    "name": "C#6",
                    "midi": 85,
                    "time": 502.8246795000036,
                    "velocity": 0.7322834645669292,
                    "duration": 0.4345935000000054
                },
                {
                    "name": "C#5",
                    "midi": 73,
                    "time": 502.8246795000036,
                    "velocity": 0.6220472440944882,
                    "duration": 0.4345935000000054
                },
                {
                    "name": "E5",
                    "midi": 76,
                    "time": 503.2592730000036,
                    "velocity": 0.6456692913385826,
                    "duration": 0.4345935000000054
                },
                {
                    "name": "E6",
                    "midi": 88,
                    "time": 503.2592730000036,
                    "velocity": 0.7637795275590551,
                    "duration": 0.4345935000000054
                },
                {
                    "name": "D5",
                    "midi": 74,
                    "time": 503.6938665000036,
                    "velocity": 0.6141732283464567,
                    "duration": 0.4345935000000054
                },
                {
                    "name": "D6",
                    "midi": 86,
                    "time": 503.6938665000036,
                    "velocity": 0.7244094488188977,
                    "duration": 0.4345935000000054
                },
                {
                    "name": "F#5",
                    "midi": 78,
                    "time": 504.1284600000036,
                    "velocity": 0.6771653543307087,
                    "duration": 2.6075610000000324
                },
                {
                    "name": "C#5",
                    "midi": 73,
                    "time": 504.1284600000036,
                    "velocity": 0.7401574803149606,
                    "duration": 0.8691870000000108
                },
                {
                    "name": "C#6",
                    "midi": 85,
                    "time": 504.1284600000036,
                    "velocity": 0.8661417322834646,
                    "duration": 0.8691870000000108
                },
                {
                    "name": "B4",
                    "midi": 71,
                    "time": 504.9976470000036,
                    "velocity": 0.6456692913385826,
                    "duration": 1.3037805000000162
                },
                {
                    "name": "B5",
                    "midi": 83,
                    "time": 504.9976470000036,
                    "velocity": 0.7637795275590551,
                    "duration": 1.3037805000000162
                },
                {
                    "name": "A#4",
                    "midi": 70,
                    "time": 506.3014275000036,
                    "velocity": 0.6456692913385826,
                    "duration": 0.4345935000000054
                },
                {
                    "name": "A#5",
                    "midi": 82,
                    "time": 506.3014275000036,
                    "velocity": 0.7637795275590551,
                    "duration": 0.4345935000000054
                },
                {
                    "name": "B5",
                    "midi": 83,
                    "time": 506.73602100000363,
                    "velocity": 0.7637795275590551,
                    "duration": 0.6518902500000081
                },
                {
                    "name": "B4",
                    "midi": 71,
                    "time": 506.73602100000363,
                    "velocity": 0.6456692913385826,
                    "duration": 0.6518902500000081
                },
                {
                    "name": "F5",
                    "midi": 77,
                    "time": 506.73602100000363,
                    "velocity": 0.6771653543307087,
                    "duration": 2.6075610000000324
                },
                {
                    "name": "C5",
                    "midi": 72,
                    "time": 507.38791125000364,
                    "velocity": 0.6220472440944882,
                    "duration": 0.6518902500000081
                },
                {
                    "name": "C6",
                    "midi": 84,
                    "time": 507.38791125000364,
                    "velocity": 0.7322834645669292,
                    "duration": 0.6518902500000081
                },
                {
                    "name": "C#6",
                    "midi": 85,
                    "time": 508.03980150000365,
                    "velocity": 0.7637795275590551,
                    "duration": 0.6518902500000081
                },
                {
                    "name": "C#5",
                    "midi": 73,
                    "time": 508.03980150000365,
                    "velocity": 0.6456692913385826,
                    "duration": 0.6518902500000081
                },
                {
                    "name": "G#4",
                    "midi": 68,
                    "time": 508.69169175000366,
                    "velocity": 0.6141732283464567,
                    "duration": 0.6518902500000081
                },
                {
                    "name": "G#5",
                    "midi": 80,
                    "time": 508.69169175000366,
                    "velocity": 0.7244094488188977,
                    "duration": 0.6518902500000081
                },
                {
                    "name": "C#5",
                    "midi": 73,
                    "time": 509.34358200000366,
                    "velocity": 0.6062992125984252,
                    "duration": 1.7383740000000216
                },
                {
                    "name": "F#5",
                    "midi": 78,
                    "time": 509.34358200000366,
                    "velocity": 0.6377952755905512,
                    "duration": 1.7383740000000216
                },
                {
                    "name": "B4",
                    "midi": 71,
                    "time": 509.34358200000366,
                    "velocity": 0.7401574803149606,
                    "duration": 0.8691870000000108
                },
                {
                    "name": "B5",
                    "midi": 83,
                    "time": 509.34358200000366,
                    "velocity": 0.889763779527559,
                    "duration": 0.8691870000000108
                },
                {
                    "name": "A5",
                    "midi": 81,
                    "time": 510.2127690000037,
                    "velocity": 0.7637795275590551,
                    "duration": 1.3037805000000162
                },
                {
                    "name": "A4",
                    "midi": 69,
                    "time": 510.2127690000037,
                    "velocity": 0.6456692913385826,
                    "duration": 1.7383739999999648
                },
                {
                    "name": "G#5",
                    "midi": 80,
                    "time": 511.5165495000037,
                    "velocity": 0.7637795275590551,
                    "duration": 0.2172967500000027
                },
                {
                    "name": "F#5",
                    "midi": 78,
                    "time": 511.7338462500037,
                    "velocity": 0.6299212598425197,
                    "duration": 0.10864837499997293
                },
                {
                    "name": "G#5",
                    "midi": 80,
                    "time": 511.84249462500367,
                    "velocity": 0.6220472440944882,
                    "duration": 0.10864837499997293
                },
                {
                    "name": "A4",
                    "midi": 69,
                    "time": 511.95114300000364,
                    "velocity": 0.6456692913385826,
                    "duration": 0.8691870000000108
                },
                {
                    "name": "F#5",
                    "midi": 78,
                    "time": 511.95114300000364,
                    "velocity": 0.7637795275590551,
                    "duration": 0.8691870000000108
                },
                {
                    "name": "D#5",
                    "midi": 75,
                    "time": 511.95114300000364,
                    "velocity": 0.6456692913385826,
                    "duration": 0.8691870000000108
                },
                {
                    "name": "B4",
                    "midi": 71,
                    "time": 511.95114300000364,
                    "velocity": 0.6456692913385826,
                    "duration": 0.8691870000000108
                },
                {
                    "name": "A4",
                    "midi": 69,
                    "time": 512.8203300000037,
                    "velocity": 0.5590551181102362,
                    "duration": 0.3983773749999955
                },
                {
                    "name": "F5",
                    "midi": 77,
                    "time": 512.8203300000037,
                    "velocity": 0.6614173228346457,
                    "duration": 0.3983773749999955
                },
                {
                    "name": "D#5",
                    "midi": 75,
                    "time": 512.8203300000037,
                    "velocity": 0.5590551181102362,
                    "duration": 0.3983773749999955
                },
                {
                    "name": "B4",
                    "midi": 71,
                    "time": 512.8203300000037,
                    "velocity": 0.5590551181102362,
                    "duration": 0.3983773749999955
                },
                {
                    "name": "B4",
                    "midi": 71,
                    "time": 513.2549235000037,
                    "velocity": 0.5826771653543307,
                    "duration": 0.3983773749999955
                },
                {
                    "name": "A4",
                    "midi": 69,
                    "time": 513.2549235000037,
                    "velocity": 0.5826771653543307,
                    "duration": 0.3983773749999955
                },
                {
                    "name": "D#5",
                    "midi": 75,
                    "time": 513.2549235000037,
                    "velocity": 0.5826771653543307,
                    "duration": 0.3983773749999955
                },
                {
                    "name": "F#5",
                    "midi": 78,
                    "time": 513.2549235000037,
                    "velocity": 0.6929133858267716,
                    "duration": 0.3983773749999955
                },
                {
                    "name": "A4",
                    "midi": 69,
                    "time": 513.6895170000037,
                    "velocity": 0.6062992125984252,
                    "duration": 0.3983773749999955
                },
                {
                    "name": "B4",
                    "midi": 71,
                    "time": 513.6895170000037,
                    "velocity": 0.6062992125984252,
                    "duration": 0.3983773749999955
                },
                {
                    "name": "D#5",
                    "midi": 75,
                    "time": 513.6895170000037,
                    "velocity": 0.6062992125984252,
                    "duration": 0.3983773749999955
                },
                {
                    "name": "G#5",
                    "midi": 80,
                    "time": 513.6895170000037,
                    "velocity": 0.7165354330708661,
                    "duration": 0.3983773749999955
                },
                {
                    "name": "B4",
                    "midi": 71,
                    "time": 514.1241105000037,
                    "velocity": 0.6299212598425197,
                    "duration": 0.3983773749999955
                },
                {
                    "name": "D#5",
                    "midi": 75,
                    "time": 514.1241105000037,
                    "velocity": 0.6299212598425197,
                    "duration": 0.3983773749999955
                },
                {
                    "name": "A4",
                    "midi": 69,
                    "time": 514.1241105000037,
                    "velocity": 0.6299212598425197,
                    "duration": 0.3983773749999955
                },
                {
                    "name": "A5",
                    "midi": 81,
                    "time": 514.1241105000037,
                    "velocity": 0.7401574803149606,
                    "duration": 0.3983773749999955
                },
                {
                    "name": "G#4",
                    "midi": 68,
                    "time": 514.5587040000037,
                    "velocity": 0.6456692913385826,
                    "duration": 2.6075610000000324
                },
                {
                    "name": "E4",
                    "midi": 64,
                    "time": 514.5587040000037,
                    "velocity": 0.6456692913385826,
                    "duration": 2.6075610000000324
                },
                {
                    "name": "D4",
                    "midi": 62,
                    "time": 514.5587040000037,
                    "velocity": 0.6456692913385826,
                    "duration": 2.6075610000000324
                },
                {
                    "name": "B4",
                    "midi": 71,
                    "time": 514.5587040000037,
                    "velocity": 0.7795275590551181,
                    "duration": 2.6075610000000324
                },
                {
                    "name": "C#5",
                    "midi": 73,
                    "time": 517.1662650000037,
                    "velocity": 0.6377952755905512,
                    "duration": 1.7383740000000216
                },
                {
                    "name": "E5",
                    "midi": 76,
                    "time": 517.1662650000037,
                    "velocity": 0.7559055118110236,
                    "duration": 1.7383740000000216
                },
                {
                    "name": "E4",
                    "midi": 64,
                    "time": 517.1662650000037,
                    "velocity": 0.6377952755905512,
                    "duration": 1.7383740000000216
                },
                {
                    "name": "G#4",
                    "midi": 68,
                    "time": 517.1662650000037,
                    "velocity": 0.6377952755905512,
                    "duration": 1.7383740000000216
                },
                {
                    "name": "D4",
                    "midi": 62,
                    "time": 518.9046390000037,
                    "velocity": 0.6062992125984252,
                    "duration": 0.8691870000000108
                },
                {
                    "name": "E5",
                    "midi": 76,
                    "time": 518.9046390000037,
                    "velocity": 0.7165354330708661,
                    "duration": 0.8691870000000108
                },
                {
                    "name": "E4",
                    "midi": 64,
                    "time": 518.9046390000037,
                    "velocity": 0.6062992125984252,
                    "duration": 0.8691870000000108
                },
                {
                    "name": "G#4",
                    "midi": 68,
                    "time": 518.9046390000037,
                    "velocity": 0.6062992125984252,
                    "duration": 0.8691870000000108
                },
                {
                    "name": "C#5",
                    "midi": 73,
                    "time": 518.9046390000037,
                    "velocity": 0.6062992125984252,
                    "duration": 0.8691870000000108
                },
                {
                    "name": "C#4",
                    "midi": 61,
                    "time": 519.7738260000037,
                    "velocity": 0.6377952755905512,
                    "duration": 0.8691870000000108
                },
                {
                    "name": "A3",
                    "midi": 57,
                    "time": 519.7738260000037,
                    "velocity": 0.6377952755905512,
                    "duration": 0.8691870000000108
                },
                {
                    "name": "A4",
                    "midi": 69,
                    "time": 519.7738260000037,
                    "velocity": 0.7559055118110236,
                    "duration": 0.8691870000000108
                },
                {
                    "name": "C#5",
                    "midi": 73,
                    "time": 521.5122000000038,
                    "velocity": 0.6377952755905512,
                    "duration": 0.8691870000000108
                },
                {
                    "name": "A4",
                    "midi": 69,
                    "time": 521.5122000000038,
                    "velocity": 0.6377952755905512,
                    "duration": 0.8691870000000108
                },
                {
                    "name": "A5",
                    "midi": 81,
                    "time": 521.5122000000038,
                    "velocity": 0.7559055118110236,
                    "duration": 0.8691870000000108
                },
                {
                    "name": "A6",
                    "midi": 93,
                    "time": 522.3813870000038,
                    "velocity": 0.8267716535433071,
                    "duration": 1.7383740000000216
                },
                {
                    "name": "A5",
                    "midi": 81,
                    "time": 522.3813870000038,
                    "velocity": 0.7007874015748031,
                    "duration": 1.7383740000000216
                },
                {
                    "name": "C#6",
                    "midi": 85,
                    "time": 522.3813870000038,
                    "velocity": 0.7007874015748031,
                    "duration": 1.7383740000000216
                },
                {
                    "name": "G#6",
                    "midi": 92,
                    "time": 524.1197610000038,
                    "velocity": 0.7952755905511811,
                    "duration": 0.8691870000000108
                },
                {
                    "name": "C#6",
                    "midi": 85,
                    "time": 524.1197610000038,
                    "velocity": 0.6692913385826772,
                    "duration": 0.8691870000000108
                },
                {
                    "name": "G#5",
                    "midi": 80,
                    "time": 524.1197610000038,
                    "velocity": 0.6692913385826772,
                    "duration": 0.8691870000000108
                },
                {
                    "name": "C#6",
                    "midi": 85,
                    "time": 524.9889480000038,
                    "velocity": 0.7007874015748031,
                    "duration": 2.6075610000000324
                },
                {
                    "name": "F#5",
                    "midi": 78,
                    "time": 524.9889480000038,
                    "velocity": 0.6850393700787402,
                    "duration": 2.6075610000000324
                },
                {
                    "name": "F#6",
                    "midi": 90,
                    "time": 524.9889480000038,
                    "velocity": 0.8110236220472441,
                    "duration": 2.6075610000000324
                },
                {
                    "name": "G#6",
                    "midi": 92,
                    "time": 527.5965090000038,
                    "velocity": 0.8031496062992126,
                    "duration": 1.7383740000000216
                },
                {
                    "name": "D#6",
                    "midi": 87,
                    "time": 527.5965090000038,
                    "velocity": 0.6771653543307087,
                    "duration": 1.7383740000000216
                },
                {
                    "name": "B5",
                    "midi": 83,
                    "time": 527.5965090000038,
                    "velocity": 0.6771653543307087,
                    "duration": 1.7383740000000216
                },
                {
                    "name": "G#6",
                    "midi": 92,
                    "time": 529.3348830000039,
                    "velocity": 0.7322834645669292,
                    "duration": 0.8691870000000108
                },
                {
                    "name": "D#6",
                    "midi": 87,
                    "time": 529.3348830000039,
                    "velocity": 0.6220472440944882,
                    "duration": 0.8691870000000108
                },
                {
                    "name": "A5",
                    "midi": 81,
                    "time": 529.3348830000039,
                    "velocity": 0.6220472440944882,
                    "duration": 0.8691870000000108
                },
                {
                    "name": "G#5",
                    "midi": 80,
                    "time": 530.2040700000039,
                    "velocity": 0.6929133858267716,
                    "duration": 2.6075610000000324
                },
                {
                    "name": "E5",
                    "midi": 76,
                    "time": 530.2040700000039,
                    "velocity": 0.6929133858267716,
                    "duration": 2.6075610000000324
                },
                {
                    "name": "E6",
                    "midi": 88,
                    "time": 530.2040700000039,
                    "velocity": 0.8110236220472441,
                    "duration": 2.6075610000000324
                },
                {
                    "name": "E6",
                    "midi": 88,
                    "time": 532.8116310000039,
                    "velocity": 0.7007874015748031,
                    "duration": 2.390264249999973
                },
                {
                    "name": "E7",
                    "midi": 100,
                    "time": 532.8116310000039,
                    "velocity": 0.8188976377952756,
                    "duration": 2.390264249999973
                },
                {
                    "name": "E6",
                    "midi": 88,
                    "time": 535.2018952500039,
                    "velocity": 0.7007874015748031,
                    "duration": 0.21729674999994586
                },
                {
                    "name": "E7",
                    "midi": 100,
                    "time": 535.2018952500039,
                    "velocity": 0.8188976377952756,
                    "duration": 0.21729674999994586
                },
                {
                    "name": "E6",
                    "midi": 88,
                    "time": 535.4191920000038,
                    "velocity": 0.6850393700787402,
                    "duration": 0.4345935000000054
                },
                {
                    "name": "E7",
                    "midi": 100,
                    "time": 535.4191920000038,
                    "velocity": 0.8188976377952756,
                    "duration": 0.4345935000000054
                },
                {
                    "name": "F#4",
                    "midi": 66,
                    "time": 538.0267530000039,
                    "velocity": 0.6299212598425197,
                    "duration": 3.4767480000000432
                },
                {
                    "name": "F#5",
                    "midi": 78,
                    "time": 538.0267530000039,
                    "velocity": 0.7401574803149606,
                    "duration": 3.4767480000000432
                },
                {
                    "name": "F#5",
                    "midi": 78,
                    "time": 541.5035010000039,
                    "velocity": 0.6220472440944882,
                    "duration": 0.21729674999994586
                },
                {
                    "name": "F#4",
                    "midi": 66,
                    "time": 541.5035010000039,
                    "velocity": 0.5275590551181102,
                    "duration": 0.21729674999994586
                },
                {
                    "name": "G#4",
                    "midi": 68,
                    "time": 541.7207977500038,
                    "velocity": 0.5275590551181102,
                    "duration": 0.21729674999994586
                },
                {
                    "name": "G#5",
                    "midi": 80,
                    "time": 541.7207977500038,
                    "velocity": 0.6220472440944882,
                    "duration": 0.21729674999994586
                },
                {
                    "name": "F#4",
                    "midi": 66,
                    "time": 541.9380945000038,
                    "velocity": 0.5511811023622047,
                    "duration": 0.4345935000000054
                },
                {
                    "name": "F#5",
                    "midi": 78,
                    "time": 541.9380945000038,
                    "velocity": 0.6535433070866141,
                    "duration": 0.4345935000000054
                },
                {
                    "name": "F4",
                    "midi": 65,
                    "time": 542.3726880000038,
                    "velocity": 0.5039370078740157,
                    "duration": 0.4345935000000054
                },
                {
                    "name": "F5",
                    "midi": 77,
                    "time": 542.3726880000038,
                    "velocity": 0.6062992125984252,
                    "duration": 0.4345935000000054
                },
                {
                    "name": "F#4",
                    "midi": 66,
                    "time": 542.8072815000038,
                    "velocity": 0.5275590551181102,
                    "duration": 0.4345935000000054
                },
                {
                    "name": "F#5",
                    "midi": 78,
                    "time": 542.8072815000038,
                    "velocity": 0.6220472440944882,
                    "duration": 0.4345935000000054
                },
                {
                    "name": "G#4",
                    "midi": 68,
                    "time": 543.2418750000038,
                    "velocity": 0.5354330708661418,
                    "duration": 0.4345935000000054
                },
                {
                    "name": "G#5",
                    "midi": 80,
                    "time": 543.2418750000038,
                    "velocity": 0.6377952755905512,
                    "duration": 0.4345935000000054
                },
                {
                    "name": "A#4",
                    "midi": 70,
                    "time": 543.6764685000038,
                    "velocity": 0.5590551181102362,
                    "duration": 0.4345935000000054
                },
                {
                    "name": "A#5",
                    "midi": 82,
                    "time": 543.6764685000038,
                    "velocity": 0.6614173228346457,
                    "duration": 0.4345935000000054
                },
                {
                    "name": "B4",
                    "midi": 71,
                    "time": 544.1110620000038,
                    "velocity": 0.5748031496062992,
                    "duration": 0.4345935000000054
                },
                {
                    "name": "B5",
                    "midi": 83,
                    "time": 544.1110620000038,
                    "velocity": 0.6771653543307087,
                    "duration": 0.4345935000000054
                },
                {
                    "name": "C#5",
                    "midi": 73,
                    "time": 544.5456555000038,
                    "velocity": 0.5826771653543307,
                    "duration": 0.4345935000000054
                },
                {
                    "name": "C#6",
                    "midi": 85,
                    "time": 544.5456555000038,
                    "velocity": 0.7007874015748031,
                    "duration": 0.4345935000000054
                },
                {
                    "name": "D6",
                    "midi": 86,
                    "time": 544.9802490000038,
                    "velocity": 0.7165354330708661,
                    "duration": 0.4345935000000054
                },
                {
                    "name": "D5",
                    "midi": 74,
                    "time": 544.9802490000038,
                    "velocity": 0.6062992125984252,
                    "duration": 0.4345935000000054
                },
                {
                    "name": "E5",
                    "midi": 76,
                    "time": 545.4148425000038,
                    "velocity": 0.6299212598425197,
                    "duration": 0.4345935000000054
                },
                {
                    "name": "E6",
                    "midi": 88,
                    "time": 545.4148425000038,
                    "velocity": 0.7401574803149606,
                    "duration": 0.4345935000000054
                },
                {
                    "name": "F#5",
                    "midi": 78,
                    "time": 545.8494360000038,
                    "velocity": 0.7401574803149606,
                    "duration": 0.4345935000000054
                },
                {
                    "name": "F#6",
                    "midi": 90,
                    "time": 545.8494360000038,
                    "velocity": 0.889763779527559,
                    "duration": 0.4345935000000054
                },
                {
                    "name": "G#4",
                    "midi": 68,
                    "time": 548.4569970000039,
                    "velocity": 0.6299212598425197,
                    "duration": 1.7383740000000216
                },
                {
                    "name": "G#5",
                    "midi": 80,
                    "time": 548.4569970000039,
                    "velocity": 0.7401574803149606,
                    "duration": 1.7383740000000216
                },
                {
                    "name": "G#5",
                    "midi": 80,
                    "time": 550.1953710000039,
                    "velocity": 0.7401574803149606,
                    "duration": 0.8691870000000108
                },
                {
                    "name": "G#4",
                    "midi": 68,
                    "time": 550.1953710000039,
                    "velocity": 0.6299212598425197,
                    "duration": 0.8691870000000108
                },
                {
                    "name": "G#4",
                    "midi": 68,
                    "time": 551.0645580000039,
                    "velocity": 0.6220472440944882,
                    "duration": 1.7383740000000216
                },
                {
                    "name": "G#5",
                    "midi": 80,
                    "time": 551.4991515000039,
                    "velocity": 0.5826771653543307,
                    "duration": 0.4345935000000054
                },
                {
                    "name": "A5",
                    "midi": 81,
                    "time": 551.9337450000039,
                    "velocity": 0.6220472440944882,
                    "duration": 0.4345935000000054
                },
                {
                    "name": "G#5",
                    "midi": 80,
                    "time": 552.3683385000039,
                    "velocity": 0.5826771653543307,
                    "duration": 0.4345935000000054
                },
                {
                    "name": "G4",
                    "midi": 67,
                    "time": 552.8029320000039,
                    "velocity": 0.5039370078740157,
                    "duration": 0.4345935000000054
                },
                {
                    "name": "G5",
                    "midi": 79,
                    "time": 552.8029320000039,
                    "velocity": 0.6062992125984252,
                    "duration": 0.4345935000000054
                },
                {
                    "name": "G#4",
                    "midi": 68,
                    "time": 553.2375255000039,
                    "velocity": 0.5275590551181102,
                    "duration": 0.4345935000000054
                },
                {
                    "name": "G#5",
                    "midi": 80,
                    "time": 553.2375255000039,
                    "velocity": 0.6220472440944882,
                    "duration": 0.4345935000000054
                },
                {
                    "name": "A#4",
                    "midi": 70,
                    "time": 553.6721190000039,
                    "velocity": 0.5354330708661418,
                    "duration": 0.4345935000000054
                },
                {
                    "name": "A#5",
                    "midi": 82,
                    "time": 553.6721190000039,
                    "velocity": 0.6377952755905512,
                    "duration": 0.4345935000000054
                },
                {
                    "name": "C5",
                    "midi": 72,
                    "time": 554.1067125000039,
                    "velocity": 0.5590551181102362,
                    "duration": 0.4345935000000054
                },
                {
                    "name": "C6",
                    "midi": 84,
                    "time": 554.1067125000039,
                    "velocity": 0.6614173228346457,
                    "duration": 0.4345935000000054
                },
                {
                    "name": "C#5",
                    "midi": 73,
                    "time": 554.5413060000039,
                    "velocity": 0.5748031496062992,
                    "duration": 0.4345935000000054
                },
                {
                    "name": "C#6",
                    "midi": 85,
                    "time": 554.5413060000039,
                    "velocity": 0.6771653543307087,
                    "duration": 0.4345935000000054
                },
                {
                    "name": "D#5",
                    "midi": 75,
                    "time": 554.975899500004,
                    "velocity": 0.5826771653543307,
                    "duration": 0.4345935000000054
                },
                {
                    "name": "D#6",
                    "midi": 87,
                    "time": 554.975899500004,
                    "velocity": 0.7007874015748031,
                    "duration": 0.4345935000000054
                },
                {
                    "name": "E5",
                    "midi": 76,
                    "time": 555.410493000004,
                    "velocity": 0.6062992125984252,
                    "duration": 0.4345935000000054
                },
                {
                    "name": "E6",
                    "midi": 88,
                    "time": 555.410493000004,
                    "velocity": 0.7165354330708661,
                    "duration": 0.4345935000000054
                },
                {
                    "name": "F#6",
                    "midi": 90,
                    "time": 555.845086500004,
                    "velocity": 0.7401574803149606,
                    "duration": 0.4345935000000054
                },
                {
                    "name": "F#5",
                    "midi": 78,
                    "time": 555.845086500004,
                    "velocity": 0.6299212598425197,
                    "duration": 0.4345935000000054
                },
                {
                    "name": "G#5",
                    "midi": 80,
                    "time": 556.279680000004,
                    "velocity": 0.7401574803149606,
                    "duration": 0.4345935000000054
                },
                {
                    "name": "G#6",
                    "midi": 92,
                    "time": 556.279680000004,
                    "velocity": 0.889763779527559,
                    "duration": 0.4345935000000054
                },
                {
                    "name": "G#4",
                    "midi": 68,
                    "time": 558.887241000004,
                    "velocity": 0.6299212598425197,
                    "duration": 1.7383740000000216
                },
                {
                    "name": "G#5",
                    "midi": 80,
                    "time": 558.887241000004,
                    "velocity": 0.7401574803149606,
                    "duration": 1.7383740000000216
                },
                {
                    "name": "G#4",
                    "midi": 68,
                    "time": 560.625615000004,
                    "velocity": 0.6299212598425197,
                    "duration": 0.8691870000000108
                },
                {
                    "name": "G#5",
                    "midi": 80,
                    "time": 560.625615000004,
                    "velocity": 0.7401574803149606,
                    "duration": 0.8691870000000108
                },
                {
                    "name": "G#5",
                    "midi": 80,
                    "time": 561.494802000004,
                    "velocity": 0.6299212598425197,
                    "duration": 0.21729674999994586
                },
                {
                    "name": "G#4",
                    "midi": 68,
                    "time": 561.494802000004,
                    "velocity": 0.5354330708661418,
                    "duration": 0.21729674999994586
                },
                {
                    "name": "A#4",
                    "midi": 70,
                    "time": 561.712098750004,
                    "velocity": 0.4881889763779528,
                    "duration": 0.21729674999994586
                },
                {
                    "name": "A#5",
                    "midi": 82,
                    "time": 561.712098750004,
                    "velocity": 0.5826771653543307,
                    "duration": 0.21729674999994586
                },
                {
                    "name": "G#4",
                    "midi": 68,
                    "time": 561.9293955000039,
                    "velocity": 0.4881889763779528,
                    "duration": 0.4345935000000054
                },
                {
                    "name": "G#5",
                    "midi": 80,
                    "time": 561.9293955000039,
                    "velocity": 0.5826771653543307,
                    "duration": 0.4345935000000054
                },
                {
                    "name": "G4",
                    "midi": 67,
                    "time": 562.3639890000039,
                    "velocity": 0.5039370078740157,
                    "duration": 0.4345935000000054
                },
                {
                    "name": "G5",
                    "midi": 79,
                    "time": 562.3639890000039,
                    "velocity": 0.6062992125984252,
                    "duration": 0.4345935000000054
                },
                {
                    "name": "G#4",
                    "midi": 68,
                    "time": 562.7985825000039,
                    "velocity": 0.5275590551181102,
                    "duration": 0.4345935000000054
                },
                {
                    "name": "G#5",
                    "midi": 80,
                    "time": 562.7985825000039,
                    "velocity": 0.6220472440944882,
                    "duration": 0.4345935000000054
                },
                {
                    "name": "A#5",
                    "midi": 82,
                    "time": 563.2331760000039,
                    "velocity": 0.6456692913385826,
                    "duration": 0.4345935000000054
                },
                {
                    "name": "A#4",
                    "midi": 70,
                    "time": 563.2331760000039,
                    "velocity": 0.5433070866141733,
                    "duration": 0.4345935000000054
                },
                {
                    "name": "B4",
                    "midi": 71,
                    "time": 563.6677695000039,
                    "velocity": 0.5669291338582677,
                    "duration": 0.4345935000000054
                },
                {
                    "name": "B5",
                    "midi": 83,
                    "time": 563.6677695000039,
                    "velocity": 0.6771653543307087,
                    "duration": 0.4345935000000054
                },
                {
                    "name": "C#5",
                    "midi": 73,
                    "time": 564.102363000004,
                    "velocity": 0.5905511811023622,
                    "duration": 0.4345935000000054
                },
                {
                    "name": "C#6",
                    "midi": 85,
                    "time": 564.102363000004,
                    "velocity": 0.7086614173228346,
                    "duration": 0.4345935000000054
                },
                {
                    "name": "D#5",
                    "midi": 75,
                    "time": 564.536956500004,
                    "velocity": 0.6141732283464567,
                    "duration": 0.4345935000000054
                },
                {
                    "name": "D#6",
                    "midi": 87,
                    "time": 564.536956500004,
                    "velocity": 0.7322834645669292,
                    "duration": 0.4345935000000054
                },
                {
                    "name": "F6",
                    "midi": 89,
                    "time": 564.971550000004,
                    "velocity": 0.7480314960629921,
                    "duration": 0.4345935000000054
                },
                {
                    "name": "F5",
                    "midi": 77,
                    "time": 564.971550000004,
                    "velocity": 0.6377952755905512,
                    "duration": 0.4345935000000054
                },
                {
                    "name": "G5",
                    "midi": 79,
                    "time": 565.406143500004,
                    "velocity": 0.6692913385826772,
                    "duration": 0.4345935000000054
                },
                {
                    "name": "G6",
                    "midi": 91,
                    "time": 565.406143500004,
                    "velocity": 0.7952755905511811,
                    "duration": 0.4345935000000054
                },
                {
                    "name": "G#5",
                    "midi": 80,
                    "time": 565.840737000004,
                    "velocity": 0.6692913385826772,
                    "duration": 0.4345935000000054
                },
                {
                    "name": "G#6",
                    "midi": 92,
                    "time": 565.840737000004,
                    "velocity": 0.7952755905511811,
                    "duration": 0.4345935000000054
                },
                {
                    "name": "A#5",
                    "midi": 82,
                    "time": 566.275330500004,
                    "velocity": 0.6771653543307087,
                    "duration": 0.4345935000000054
                },
                {
                    "name": "A#6",
                    "midi": 94,
                    "time": 566.275330500004,
                    "velocity": 0.8031496062992126,
                    "duration": 0.4345935000000054
                },
                {
                    "name": "B5",
                    "midi": 83,
                    "time": 566.709924000004,
                    "velocity": 0.7401574803149606,
                    "duration": 0.21729674999994586
                },
                {
                    "name": "B6",
                    "midi": 95,
                    "time": 566.709924000004,
                    "velocity": 0.8818897637795275,
                    "duration": 0.21729674999994586
                },
                {
                    "name": "G#6",
                    "midi": 92,
                    "time": 567.1445175000039,
                    "velocity": 0.6692913385826772,
                    "duration": 0.21729674999994586
                },
                {
                    "name": "B6",
                    "midi": 95,
                    "time": 567.1445175000039,
                    "velocity": 0.6692913385826772,
                    "duration": 0.21729674999994586
                },
                {
                    "name": "F6",
                    "midi": 89,
                    "time": 567.3618142500038,
                    "velocity": 0.6220472440944882,
                    "duration": 0.21729674999994586
                },
                {
                    "name": "D#6",
                    "midi": 87,
                    "time": 567.5791110000038,
                    "velocity": 0.6141732283464567,
                    "duration": 0.21729674999994586
                },
                {
                    "name": "B5",
                    "midi": 83,
                    "time": 567.7964077500037,
                    "velocity": 0.6062992125984252,
                    "duration": 0.21729674999994586
                },
                {
                    "name": "G#5",
                    "midi": 80,
                    "time": 568.0137045000037,
                    "velocity": 0.6299212598425197,
                    "duration": 0.21729674999994586
                },
                {
                    "name": "B5",
                    "midi": 83,
                    "time": 568.0137045000037,
                    "velocity": 0.6299212598425197,
                    "duration": 0.21729674999994586
                },
                {
                    "name": "F5",
                    "midi": 77,
                    "time": 568.2310012500036,
                    "velocity": 0.6141732283464567,
                    "duration": 0.21729674999994586
                },
                {
                    "name": "D#5",
                    "midi": 75,
                    "time": 568.4482980000035,
                    "velocity": 0.5748031496062992,
                    "duration": 0.21729674999994586
                },
                {
                    "name": "B4",
                    "midi": 71,
                    "time": 568.6655947500035,
                    "velocity": 0.5748031496062992,
                    "duration": 0.21729674999994586
                },
                {
                    "name": "B4",
                    "midi": 71,
                    "time": 568.8828915000034,
                    "velocity": 0.5826771653543307,
                    "duration": 0.21729674999994586
                },
                {
                    "name": "G#4",
                    "midi": 68,
                    "time": 568.8828915000034,
                    "velocity": 0.5826771653543307,
                    "duration": 0.21729674999994586
                },
                {
                    "name": "F4",
                    "midi": 65,
                    "time": 569.1001882500034,
                    "velocity": 0.5039370078740157,
                    "duration": 0.21729674999994586
                },
                {
                    "name": "D#4",
                    "midi": 63,
                    "time": 569.3174850000033,
                    "velocity": 0.5039370078740157,
                    "duration": 0.21729674999994586
                },
                {
                    "name": "B3",
                    "midi": 59,
                    "time": 569.5347817500033,
                    "velocity": 0.49606299212598426,
                    "duration": 0.21729674999994586
                },
                {
                    "name": "G#3",
                    "midi": 56,
                    "time": 569.7520785000032,
                    "velocity": 0.5433070866141733,
                    "duration": 0.21729674999994586
                },
                {
                    "name": "B3",
                    "midi": 59,
                    "time": 569.7520785000032,
                    "velocity": 0.5433070866141733,
                    "duration": 0.21729674999994586
                },
                {
                    "name": "F3",
                    "midi": 53,
                    "time": 569.9693752500032,
                    "velocity": 0.48031496062992124,
                    "duration": 0.21729674999994586
                },
                {
                    "name": "D#3",
                    "midi": 51,
                    "time": 570.1866720000031,
                    "velocity": 0.47244094488188976,
                    "duration": 0.21729674999994586
                },
                {
                    "name": "B2",
                    "midi": 47,
                    "time": 570.4039687500031,
                    "velocity": 0.47244094488188976,
                    "duration": 0.21729674999994586
                },
                {
                    "name": "B3",
                    "midi": 59,
                    "time": 570.621265500003,
                    "velocity": 0.47244094488188976,
                    "duration": 0.21729674999994586
                },
                {
                    "name": "G#3",
                    "midi": 56,
                    "time": 570.621265500003,
                    "velocity": 0.47244094488188976,
                    "duration": 0.21729674999994586
                },
                {
                    "name": "F3",
                    "midi": 53,
                    "time": 570.838562250003,
                    "velocity": 0.4881889763779528,
                    "duration": 0.21729674999994586
                },
                {
                    "name": "D#3",
                    "midi": 51,
                    "time": 571.0558590000029,
                    "velocity": 0.4094488188976378,
                    "duration": 0.21729674999994586
                },
                {
                    "name": "B2",
                    "midi": 47,
                    "time": 571.2731557500028,
                    "velocity": 0.4094488188976378,
                    "duration": 0.21729674999994586
                },
                {
                    "name": "G#3",
                    "midi": 56,
                    "time": 571.4904525000028,
                    "velocity": 0.4094488188976378,
                    "duration": 0.21729674999994586
                },
                {
                    "name": "B3",
                    "midi": 59,
                    "time": 571.4904525000028,
                    "velocity": 0.4094488188976378,
                    "duration": 0.4345934999998917
                },
                {
                    "name": "F3",
                    "midi": 53,
                    "time": 571.7077492500027,
                    "velocity": 0.4015748031496063,
                    "duration": 0.21729674999994586
                },
                {
                    "name": "A#3",
                    "midi": 58,
                    "time": 571.9250460000027,
                    "velocity": 0.4094488188976378,
                    "duration": 0.23540481249995082
                },
                {
                    "name": "G#3",
                    "midi": 56,
                    "time": 572.1423427500026,
                    "velocity": 0.3779527559055118,
                    "duration": 0.2354048125000645
                },
                {
                    "name": "B3",
                    "midi": 59,
                    "time": 572.3596395000027,
                    "velocity": 0.4094488188976378,
                    "duration": 0.2354048125000645
                },
                {
                    "name": "F3",
                    "midi": 53,
                    "time": 572.5769362500027,
                    "velocity": 0.3700787401574803,
                    "duration": 0.2354048125000645
                },
                {
                    "name": "A#3",
                    "midi": 58,
                    "time": 572.7942330000028,
                    "velocity": 0.3700787401574803,
                    "duration": 0.2354048125000645
                },
                {
                    "name": "G#3",
                    "midi": 56,
                    "time": 573.0115297500029,
                    "velocity": 0.3700787401574803,
                    "duration": 0.2354048125000645
                },
                {
                    "name": "B3",
                    "midi": 59,
                    "time": 573.2288265000029,
                    "velocity": 0.4094488188976378,
                    "duration": 0.2354048125000645
                },
                {
                    "name": "F3",
                    "midi": 53,
                    "time": 573.446123250003,
                    "velocity": 0.3700787401574803,
                    "duration": 0.2354048125000645
                },
                {
                    "name": "A#3",
                    "midi": 58,
                    "time": 573.663420000003,
                    "velocity": 0.4094488188976378,
                    "duration": 0.2354048125000645
                },
                {
                    "name": "G#3",
                    "midi": 56,
                    "time": 573.8807167500031,
                    "velocity": 0.3700787401574803,
                    "duration": 0.2354048125000645
                },
                {
                    "name": "B3",
                    "midi": 59,
                    "time": 574.0980135000032,
                    "velocity": 0.3700787401574803,
                    "duration": 0.2354048125000645
                },
                {
                    "name": "F3",
                    "midi": 53,
                    "time": 574.3153102500032,
                    "velocity": 0.3700787401574803,
                    "duration": 0.2354048125000645
                },
                {
                    "name": "A#3",
                    "midi": 58,
                    "time": 574.5326070000033,
                    "velocity": 0.4094488188976378,
                    "duration": 0.2354048125000645
                },
                {
                    "name": "G#3",
                    "midi": 56,
                    "time": 574.7499037500033,
                    "velocity": 0.3779527559055118,
                    "duration": 0.2354048125000645
                },
                {
                    "name": "B3",
                    "midi": 59,
                    "time": 574.9672005000034,
                    "velocity": 0.4094488188976378,
                    "duration": 0.2354048125000645
                },
                {
                    "name": "F3",
                    "midi": 53,
                    "time": 575.1844972500035,
                    "velocity": 0.3700787401574803,
                    "duration": 0.2354048125000645
                },
                {
                    "name": "A#3",
                    "midi": 58,
                    "time": 575.4017940000035,
                    "velocity": 0.3700787401574803,
                    "duration": 0.2354048125000645
                },
                {
                    "name": "G#3",
                    "midi": 56,
                    "time": 575.6190907500036,
                    "velocity": 0.3700787401574803,
                    "duration": 0.2354048125000645
                },
                {
                    "name": "B3",
                    "midi": 59,
                    "time": 575.8363875000036,
                    "velocity": 0.4094488188976378,
                    "duration": 0.2354048125000645
                },
                {
                    "name": "F3",
                    "midi": 53,
                    "time": 576.0536842500037,
                    "velocity": 0.3700787401574803,
                    "duration": 0.2354048125000645
                },
                {
                    "name": "A#3",
                    "midi": 58,
                    "time": 576.2709810000038,
                    "velocity": 0.4094488188976378,
                    "duration": 0.2354048125000645
                },
                {
                    "name": "G#3",
                    "midi": 56,
                    "time": 576.4882777500038,
                    "velocity": 0.3700787401574803,
                    "duration": 0.2354048125000645
                },
                {
                    "name": "B3",
                    "midi": 59,
                    "time": 576.7055745000039,
                    "velocity": 0.3700787401574803,
                    "duration": 0.2354048125000645
                },
                {
                    "name": "F3",
                    "midi": 53,
                    "time": 576.9228712500039,
                    "velocity": 0.3700787401574803,
                    "duration": 0.2354048125000645
                },
                {
                    "name": "A#3",
                    "midi": 58,
                    "time": 577.140168000004,
                    "velocity": 0.4094488188976378,
                    "duration": 0.2354048125000645
                },
                {
                    "name": "G#3",
                    "midi": 56,
                    "time": 577.357464750004,
                    "velocity": 0.3779527559055118,
                    "duration": 0.2354048125000645
                },
                {
                    "name": "B3",
                    "midi": 59,
                    "time": 577.5747615000041,
                    "velocity": 0.41732283464566927,
                    "duration": 0.2354048125000645
                },
                {
                    "name": "F3",
                    "midi": 53,
                    "time": 577.7920582500042,
                    "velocity": 0.3779527559055118,
                    "duration": 0.2354048125000645
                },
                {
                    "name": "A#3",
                    "midi": 58,
                    "time": 578.0093550000042,
                    "velocity": 0.3779527559055118,
                    "duration": 0.2354048125000645
                },
                {
                    "name": "G#3",
                    "midi": 56,
                    "time": 578.2266517500043,
                    "velocity": 0.3858267716535433,
                    "duration": 0.2354048125000645
                },
                {
                    "name": "B3",
                    "midi": 59,
                    "time": 578.4439485000044,
                    "velocity": 0.4330708661417323,
                    "duration": 0.2354048125000645
                },
                {
                    "name": "F3",
                    "midi": 53,
                    "time": 578.6612452500044,
                    "velocity": 0.3937007874015748,
                    "duration": 0.2354048125000645
                },
                {
                    "name": "A#3",
                    "midi": 58,
                    "time": 578.8785420000045,
                    "velocity": 0.4409448818897638,
                    "duration": 0.2354048125000645
                },
                {
                    "name": "G#3",
                    "midi": 56,
                    "time": 579.0958387500045,
                    "velocity": 0.4015748031496063,
                    "duration": 0.2354048125000645
                },
                {
                    "name": "B3",
                    "midi": 59,
                    "time": 579.3131355000046,
                    "velocity": 0.4015748031496063,
                    "duration": 0.2354048125000645
                },
                {
                    "name": "F3",
                    "midi": 53,
                    "time": 579.5304322500047,
                    "velocity": 0.4094488188976378,
                    "duration": 0.2354048125000645
                },
                {
                    "name": "A#3",
                    "midi": 58,
                    "time": 579.7477290000047,
                    "velocity": 0.4566929133858268,
                    "duration": 0.2354048125000645
                },
                {
                    "name": "G#3",
                    "midi": 56,
                    "time": 579.9650257500048,
                    "velocity": 0.4251968503937008,
                    "duration": 0.2354048125000645
                },
                {
                    "name": "B3",
                    "midi": 59,
                    "time": 580.1823225000048,
                    "velocity": 0.4645669291338583,
                    "duration": 0.2354048125000645
                },
                {
                    "name": "F3",
                    "midi": 53,
                    "time": 580.3996192500049,
                    "velocity": 0.4251968503937008,
                    "duration": 0.2354048125000645
                },
                {
                    "name": "A#3",
                    "midi": 58,
                    "time": 580.616916000005,
                    "velocity": 0.4251968503937008,
                    "duration": 0.2354048125000645
                },
                {
                    "name": "G#3",
                    "midi": 56,
                    "time": 580.834212750005,
                    "velocity": 0.4251968503937008,
                    "duration": 0.2354048125000645
                },
                {
                    "name": "B3",
                    "midi": 59,
                    "time": 581.0515095000051,
                    "velocity": 0.48031496062992124,
                    "duration": 0.2354048125000645
                },
                {
                    "name": "F3",
                    "midi": 53,
                    "time": 581.2688062500051,
                    "velocity": 0.4330708661417323,
                    "duration": 0.2354048125000645
                },
                {
                    "name": "A#3",
                    "midi": 58,
                    "time": 581.4861030000052,
                    "velocity": 0.4881889763779528,
                    "duration": 0.2354048125000645
                },
                {
                    "name": "G#3",
                    "midi": 56,
                    "time": 581.7033997500052,
                    "velocity": 0.4409448818897638,
                    "duration": 0.2354048125000645
                },
                {
                    "name": "B3",
                    "midi": 59,
                    "time": 581.9206965000053,
                    "velocity": 0.44881889763779526,
                    "duration": 0.2354048125000645
                },
                {
                    "name": "F3",
                    "midi": 53,
                    "time": 582.1379932500054,
                    "velocity": 0.44881889763779526,
                    "duration": 0.2354048125000645
                },
                {
                    "name": "A#3",
                    "midi": 58,
                    "time": 582.3552900000054,
                    "velocity": 0.5118110236220472,
                    "duration": 0.4345935000000054
                },
                {
                    "name": "A#3",
                    "midi": 58,
                    "time": 582.7898835000054,
                    "velocity": 0.5118110236220472,
                    "duration": 0.23540481249995082
                },
                {
                    "name": "D4",
                    "midi": 62,
                    "time": 583.0071802500054,
                    "velocity": 0.4409448818897638,
                    "duration": 0.2354048125000645
                },
                {
                    "name": "B3",
                    "midi": 59,
                    "time": 583.2244770000054,
                    "velocity": 0.5118110236220472,
                    "duration": 0.2354048125000645
                },
                {
                    "name": "D4",
                    "midi": 62,
                    "time": 583.4417737500055,
                    "velocity": 0.4566929133858268,
                    "duration": 0.2354048125000645
                },
                {
                    "name": "C#4",
                    "midi": 61,
                    "time": 583.6590705000056,
                    "velocity": 0.5118110236220472,
                    "duration": 0.2354048125000645
                },
                {
                    "name": "F4",
                    "midi": 65,
                    "time": 583.8763672500056,
                    "velocity": 0.4566929133858268,
                    "duration": 0.2354048125000645
                },
                {
                    "name": "D4",
                    "midi": 62,
                    "time": 584.0936640000057,
                    "velocity": 0.5118110236220472,
                    "duration": 0.2354048125000645
                },
                {
                    "name": "G#4",
                    "midi": 68,
                    "time": 584.3109607500057,
                    "velocity": 0.4566929133858268,
                    "duration": 0.2354048125000645
                },
                {
                    "name": "E4",
                    "midi": 64,
                    "time": 584.5282575000058,
                    "velocity": 0.5118110236220472,
                    "duration": 0.2354048125000645
                },
                {
                    "name": "G#4",
                    "midi": 68,
                    "time": 584.7455542500059,
                    "velocity": 0.4566929133858268,
                    "duration": 0.2354048125000645
                },
                {
                    "name": "F4",
                    "midi": 65,
                    "time": 584.9628510000059,
                    "velocity": 0.5118110236220472,
                    "duration": 0.2354048125000645
                },
                {
                    "name": "B4",
                    "midi": 71,
                    "time": 585.180147750006,
                    "velocity": 0.4566929133858268,
                    "duration": 0.2354048125000645
                },
                {
                    "name": "G4",
                    "midi": 67,
                    "time": 585.397444500006,
                    "velocity": 0.5118110236220472,
                    "duration": 0.2354048125000645
                },
                {
                    "name": "B4",
                    "midi": 71,
                    "time": 585.6147412500061,
                    "velocity": 0.4566929133858268,
                    "duration": 0.2354048125000645
                },
                {
                    "name": "G#4",
                    "midi": 68,
                    "time": 585.8320380000062,
                    "velocity": 0.5039370078740157,
                    "duration": 0.2354048125000645
                },
                {
                    "name": "D5",
                    "midi": 74,
                    "time": 586.0493347500062,
                    "velocity": 0.44881889763779526,
                    "duration": 0.2354048125000645
                },
                {
                    "name": "A#4",
                    "midi": 70,
                    "time": 586.2666315000063,
                    "velocity": 0.49606299212598426,
                    "duration": 0.2354048125000645
                },
                {
                    "name": "D5",
                    "midi": 74,
                    "time": 586.4839282500063,
                    "velocity": 0.4409448818897638,
                    "duration": 0.2354048125000645
                },
                {
                    "name": "B4",
                    "midi": 71,
                    "time": 586.7012250000064,
                    "velocity": 0.49606299212598426,
                    "duration": 0.2354048125000645
                },
                {
                    "name": "D5",
                    "midi": 74,
                    "time": 586.9185217500064,
                    "velocity": 0.44881889763779526,
                    "duration": 0.2354048125000645
                },
                {
                    "name": "C#5",
                    "midi": 73,
                    "time": 587.1358185000065,
                    "velocity": 0.4881889763779528,
                    "duration": 0.2354048125000645
                },
                {
                    "name": "F5",
                    "midi": 77,
                    "time": 587.3531152500066,
                    "velocity": 0.4409448818897638,
                    "duration": 0.2354048125000645
                },
                {
                    "name": "D5",
                    "midi": 74,
                    "time": 587.5704120000066,
                    "velocity": 0.4881889763779528,
                    "duration": 0.2354048125000645
                },
                {
                    "name": "G#5",
                    "midi": 80,
                    "time": 587.7877087500067,
                    "velocity": 0.4409448818897638,
                    "duration": 0.2354048125000645
                },
                {
                    "name": "E5",
                    "midi": 76,
                    "time": 588.0050055000067,
                    "velocity": 0.4881889763779528,
                    "duration": 0.2354048125000645
                },
                {
                    "name": "G#5",
                    "midi": 80,
                    "time": 588.2223022500068,
                    "velocity": 0.4330708661417323,
                    "duration": 0.2354048125000645
                },
                {
                    "name": "F5",
                    "midi": 77,
                    "time": 588.4395990000069,
                    "velocity": 0.48031496062992124,
                    "duration": 0.2354048125000645
                },
                {
                    "name": "B5",
                    "midi": 83,
                    "time": 588.6568957500069,
                    "velocity": 0.4330708661417323,
                    "duration": 0.2354048125000645
                },
                {
                    "name": "G5",
                    "midi": 79,
                    "time": 588.874192500007,
                    "velocity": 0.48031496062992124,
                    "duration": 0.2354048125000645
                },
                {
                    "name": "B5",
                    "midi": 83,
                    "time": 589.091489250007,
                    "velocity": 0.4251968503937008,
                    "duration": 0.2354048125000645
                },
                {
                    "name": "G#5",
                    "midi": 80,
                    "time": 589.3087860000071,
                    "velocity": 0.47244094488188976,
                    "duration": 0.2354048125000645
                },
                {
                    "name": "D6",
                    "midi": 86,
                    "time": 589.5260827500072,
                    "velocity": 0.4251968503937008,
                    "duration": 0.2354048125000645
                },
                {
                    "name": "A#5",
                    "midi": 82,
                    "time": 589.7433795000072,
                    "velocity": 0.47244094488188976,
                    "duration": 0.2354048125000645
                },
                {
                    "name": "D6",
                    "midi": 86,
                    "time": 589.9606762500073,
                    "velocity": 0.4251968503937008,
                    "duration": 0.2354048125000645
                },
                {
                    "name": "B5",
                    "midi": 83,
                    "time": 590.1779730000073,
                    "velocity": 0.4645669291338583,
                    "duration": 0.2354048125000645
                },
                {
                    "name": "D6",
                    "midi": 86,
                    "time": 590.3952697500074,
                    "velocity": 0.4094488188976378,
                    "duration": 0.2354048125000645
                },
                {
                    "name": "C#6",
                    "midi": 85,
                    "time": 590.6125665000075,
                    "velocity": 0.4645669291338583,
                    "duration": 0.2354048125000645
                },
                {
                    "name": "F6",
                    "midi": 89,
                    "time": 590.8298632500075,
                    "velocity": 0.41732283464566927,
                    "duration": 0.2354048125000645
                },
                {
                    "name": "D6",
                    "midi": 86,
                    "time": 591.0471600000076,
                    "velocity": 0.4645669291338583,
                    "duration": 0.2354048125000645
                },
                {
                    "name": "G#6",
                    "midi": 92,
                    "time": 591.2644567500076,
                    "velocity": 0.4251968503937008,
                    "duration": 0.2354048125000645
                },
                {
                    "name": "E6",
                    "midi": 88,
                    "time": 591.4817535000077,
                    "velocity": 0.4566929133858268,
                    "duration": 0.2354048125000645
                },
                {
                    "name": "G#6",
                    "midi": 92,
                    "time": 591.6990502500078,
                    "velocity": 0.4251968503937008,
                    "duration": 0.2354048125000645
                },
                {
                    "name": "F6",
                    "midi": 89,
                    "time": 591.9163470000078,
                    "velocity": 0.4566929133858268,
                    "duration": 0.2354048125000645
                },
                {
                    "name": "B6",
                    "midi": 95,
                    "time": 592.1336437500079,
                    "velocity": 0.41732283464566927,
                    "duration": 0.2354048125000645
                },
                {
                    "name": "G6",
                    "midi": 91,
                    "time": 592.3509405000079,
                    "velocity": 0.44881889763779526,
                    "duration": 0.2354048125000645
                },
                {
                    "name": "B6",
                    "midi": 95,
                    "time": 592.568237250008,
                    "velocity": 0.4251968503937008,
                    "duration": 0.2354048125000645
                },
                {
                    "name": "A#6",
                    "midi": 94,
                    "time": 592.785534000008,
                    "velocity": 0.44881889763779526,
                    "duration": 0.2354048125000645
                },
                {
                    "name": "G#6",
                    "midi": 92,
                    "time": 593.0028307500081,
                    "velocity": 0.4015748031496063,
                    "duration": 0.2354048125000645
                },
                {
                    "name": "B6",
                    "midi": 95,
                    "time": 593.2201275000082,
                    "velocity": 0.44881889763779526,
                    "duration": 0.2354048125000645
                },
                {
                    "name": "F6",
                    "midi": 89,
                    "time": 593.4374242500082,
                    "velocity": 0.4015748031496063,
                    "duration": 0.2354048125000645
                },
                {
                    "name": "A#6",
                    "midi": 94,
                    "time": 593.6547210000083,
                    "velocity": 0.44881889763779526,
                    "duration": 0.2354048125000645
                },
                {
                    "name": "G#6",
                    "midi": 92,
                    "time": 593.8720177500084,
                    "velocity": 0.4015748031496063,
                    "duration": 0.2354048125000645
                },
                {
                    "name": "C7",
                    "midi": 96,
                    "time": 594.0893145000084,
                    "velocity": 0.44881889763779526,
                    "duration": 0.2354048125000645
                },
                {
                    "name": "F6",
                    "midi": 89,
                    "time": 594.3066112500085,
                    "velocity": 0.3937007874015748,
                    "duration": 0.2354048125000645
                },
                {
                    "name": "A#6",
                    "midi": 94,
                    "time": 594.5239080000085,
                    "velocity": 0.44881889763779526,
                    "duration": 0.2354048125000645
                },
                {
                    "name": "G#6",
                    "midi": 92,
                    "time": 594.7412047500086,
                    "velocity": 0.4094488188976378,
                    "duration": 0.2354048125000645
                },
                {
                    "name": "C#7",
                    "midi": 97,
                    "time": 594.9585015000087,
                    "velocity": 0.47244094488188976,
                    "duration": 0.2354048125000645
                },
                {
                    "name": "F6",
                    "midi": 89,
                    "time": 595.1757982500087,
                    "velocity": 0.4015748031496063,
                    "duration": 0.2354048125000645
                },
                {
                    "name": "A#6",
                    "midi": 94,
                    "time": 595.3930950000088,
                    "velocity": 0.48031496062992124,
                    "duration": 0.2354048125000645
                },
                {
                    "name": "G#6",
                    "midi": 92,
                    "time": 595.6103917500088,
                    "velocity": 0.4015748031496063,
                    "duration": 0.2354048125000645
                },
                {
                    "name": "D7",
                    "midi": 98,
                    "time": 595.8276885000089,
                    "velocity": 0.49606299212598426,
                    "duration": 0.2354048125000645
                },
                {
                    "name": "F6",
                    "midi": 89,
                    "time": 596.044985250009,
                    "velocity": 0.4015748031496063,
                    "duration": 0.2354048125000645
                },
                {
                    "name": "A#6",
                    "midi": 94,
                    "time": 596.262282000009,
                    "velocity": 0.44881889763779526,
                    "duration": 0.2354048125000645
                },
                {
                    "name": "G#6",
                    "midi": 92,
                    "time": 596.4795787500091,
                    "velocity": 0.4094488188976378,
                    "duration": 0.2354048125000645
                },
                {
                    "name": "D#7",
                    "midi": 99,
                    "time": 596.6968755000091,
                    "velocity": 0.49606299212598426,
                    "duration": 0.2354048125000645
                },
                {
                    "name": "F6",
                    "midi": 89,
                    "time": 596.9141722500092,
                    "velocity": 0.4094488188976378,
                    "duration": 0.2354048125000645
                },
                {
                    "name": "A#6",
                    "midi": 94,
                    "time": 597.1314690000092,
                    "velocity": 0.48031496062992124,
                    "duration": 0.2354048125000645
                },
                {
                    "name": "G#6",
                    "midi": 92,
                    "time": 597.3487657500093,
                    "velocity": 0.4094488188976378,
                    "duration": 0.2354048125000645
                },
                {
                    "name": "E7",
                    "midi": 100,
                    "time": 597.5660625000094,
                    "velocity": 0.4645669291338583,
                    "duration": 0.2354048125000645
                },
                {
                    "name": "F6",
                    "midi": 89,
                    "time": 597.7833592500094,
                    "velocity": 0.4015748031496063,
                    "duration": 0.2354048125000645
                },
                {
                    "name": "F7",
                    "midi": 101,
                    "time": 598.0006560000095,
                    "velocity": 0.49606299212598426,
                    "duration": 0.2354048125000645
                },
                {
                    "name": "D7",
                    "midi": 98,
                    "time": 598.2179527500095,
                    "velocity": 0.4015748031496063,
                    "duration": 0.2354048125000645
                },
                {
                    "name": "C#7",
                    "midi": 97,
                    "time": 598.4352495000096,
                    "velocity": 0.4094488188976378,
                    "duration": 0.2354048125000645
                },
                {
                    "name": "E7",
                    "midi": 100,
                    "time": 598.6525462500097,
                    "velocity": 0.4094488188976378,
                    "duration": 0.2354048125000645
                },
                {
                    "name": "D#7",
                    "midi": 99,
                    "time": 598.8698430000097,
                    "velocity": 0.44881889763779526,
                    "duration": 0.2354048125000645
                },
                {
                    "name": "C7",
                    "midi": 96,
                    "time": 599.0871397500098,
                    "velocity": 0.41732283464566927,
                    "duration": 0.2354048125000645
                },
                {
                    "name": "B6",
                    "midi": 95,
                    "time": 599.3044365000098,
                    "velocity": 0.44881889763779526,
                    "duration": 0.2354048125000645
                },
                {
                    "name": "D7",
                    "midi": 98,
                    "time": 599.5217332500099,
                    "velocity": 0.4094488188976378,
                    "duration": 0.2354048125000645
                },
                {
                    "name": "C#7",
                    "midi": 97,
                    "time": 599.73903000001,
                    "velocity": 0.4094488188976378,
                    "duration": 0.2354048125000645
                },
                {
                    "name": "A#6",
                    "midi": 94,
                    "time": 599.95632675001,
                    "velocity": 0.4094488188976378,
                    "duration": 0.2354048125000645
                },
                {
                    "name": "A6",
                    "midi": 93,
                    "time": 600.1736235000101,
                    "velocity": 0.44881889763779526,
                    "duration": 0.2354048125000645
                },
                {
                    "name": "C7",
                    "midi": 96,
                    "time": 600.3909202500101,
                    "velocity": 0.4094488188976378,
                    "duration": 0.2354048125000645
                },
                {
                    "name": "B6",
                    "midi": 95,
                    "time": 600.6082170000102,
                    "velocity": 0.44881889763779526,
                    "duration": 0.2354048125000645
                },
                {
                    "name": "G#6",
                    "midi": 92,
                    "time": 600.8255137500103,
                    "velocity": 0.4094488188976378,
                    "duration": 0.2354048125000645
                },
                {
                    "name": "G6",
                    "midi": 91,
                    "time": 601.0428105000103,
                    "velocity": 0.4094488188976378,
                    "duration": 0.2354048125000645
                },
                {
                    "name": "A#6",
                    "midi": 94,
                    "time": 601.2601072500104,
                    "velocity": 0.41732283464566927,
                    "duration": 0.2354048125000645
                },
                {
                    "name": "G#6",
                    "midi": 92,
                    "time": 601.4774040000104,
                    "velocity": 0.44881889763779526,
                    "duration": 0.2354048125000645
                },
                {
                    "name": "F6",
                    "midi": 89,
                    "time": 601.6947007500105,
                    "velocity": 0.4330708661417323,
                    "duration": 0.2354048125000645
                },
                {
                    "name": "D6",
                    "midi": 86,
                    "time": 601.9119975000106,
                    "velocity": 0.44881889763779526,
                    "duration": 0.2354048125000645
                },
                {
                    "name": "A#5",
                    "midi": 82,
                    "time": 602.1292942500106,
                    "velocity": 0.4094488188976378,
                    "duration": 0.2354048125000645
                },
                {
                    "name": "A5",
                    "midi": 81,
                    "time": 602.3465910000107,
                    "velocity": 0.4094488188976378,
                    "duration": 0.2354048125000645
                },
                {
                    "name": "A#5",
                    "midi": 82,
                    "time": 602.5638877500107,
                    "velocity": 0.4094488188976378,
                    "duration": 0.2354048125000645
                },
                {
                    "name": "G#5",
                    "midi": 80,
                    "time": 602.7811845000108,
                    "velocity": 0.44881889763779526,
                    "duration": 0.2354048125000645
                },
                {
                    "name": "A#5",
                    "midi": 82,
                    "time": 602.9984812500109,
                    "velocity": 0.4094488188976378,
                    "duration": 0.2354048125000645
                },
                {
                    "name": "F#5",
                    "midi": 78,
                    "time": 603.2157780000109,
                    "velocity": 0.4409448818897638,
                    "duration": 0.2354048125000645
                },
                {
                    "name": "G5",
                    "midi": 79,
                    "time": 603.433074750011,
                    "velocity": 0.3779527559055118,
                    "duration": 0.2354048125000645
                },
                {
                    "name": "G6",
                    "midi": 91,
                    "time": 603.650371500011,
                    "velocity": 0.3700787401574803,
                    "duration": 0.2354048125000645
                },
                {
                    "name": "D6",
                    "midi": 86,
                    "time": 603.8676682500111,
                    "velocity": 0.3700787401574803,
                    "duration": 0.2354048125000645
                },
                {
                    "name": "D#6",
                    "midi": 87,
                    "time": 604.0849650000112,
                    "velocity": 0.4015748031496063,
                    "duration": 0.2354048125000645
                },
                {
                    "name": "B5",
                    "midi": 83,
                    "time": 604.3022617500112,
                    "velocity": 0.3464566929133858,
                    "duration": 0.2354048125000645
                },
                {
                    "name": "C6",
                    "midi": 84,
                    "time": 604.5195585000113,
                    "velocity": 0.3858267716535433,
                    "duration": 0.2354048125000645
                },
                {
                    "name": "G5",
                    "midi": 79,
                    "time": 604.7368552500113,
                    "velocity": 0.36220472440944884,
                    "duration": 0.2354048125000645
                },
                {
                    "name": "A#5",
                    "midi": 82,
                    "time": 604.9541520000114,
                    "velocity": 0.3937007874015748,
                    "duration": 0.2354048125000645
                },
                {
                    "name": "G#5",
                    "midi": 80,
                    "time": 605.1714487500115,
                    "velocity": 0.3779527559055118,
                    "duration": 0.2354048125000645
                },
                {
                    "name": "G5",
                    "midi": 79,
                    "time": 605.3887455000115,
                    "velocity": 0.3700787401574803,
                    "duration": 0.2354048125000645
                },
                {
                    "name": "F5",
                    "midi": 77,
                    "time": 605.6060422500116,
                    "velocity": 0.3779527559055118,
                    "duration": 0.21729675000005955
                },
                {
                    "name": "F#5",
                    "midi": 78,
                    "time": 605.8233390000116,
                    "velocity": 0.4094488188976378,
                    "duration": 0.23540481249995082
                },
                {
                    "name": "G5",
                    "midi": 79,
                    "time": 606.0406357500116,
                    "velocity": 0.3543307086614173,
                    "duration": 0.2354048125000645
                },
                {
                    "name": "G6",
                    "midi": 91,
                    "time": 606.2579325000116,
                    "velocity": 0.3700787401574803,
                    "duration": 0.2354048125000645
                },
                {
                    "name": "D6",
                    "midi": 86,
                    "time": 606.4752292500117,
                    "velocity": 0.3543307086614173,
                    "duration": 0.2354048125000645
                },
                {
                    "name": "D#6",
                    "midi": 87,
                    "time": 606.6925260000118,
                    "velocity": 0.3937007874015748,
                    "duration": 0.2354048125000645
                },
                {
                    "name": "B5",
                    "midi": 83,
                    "time": 606.9098227500118,
                    "velocity": 0.3543307086614173,
                    "duration": 0.2354048125000645
                },
                {
                    "name": "C6",
                    "midi": 84,
                    "time": 607.1271195000119,
                    "velocity": 0.3858267716535433,
                    "duration": 0.2354048125000645
                },
                {
                    "name": "G5",
                    "midi": 79,
                    "time": 607.3444162500119,
                    "velocity": 0.36220472440944884,
                    "duration": 0.2354048125000645
                },
                {
                    "name": "A#5",
                    "midi": 82,
                    "time": 607.561713000012,
                    "velocity": 0.3779527559055118,
                    "duration": 0.2354048125000645
                },
                {
                    "name": "G#5",
                    "midi": 80,
                    "time": 607.779009750012,
                    "velocity": 0.3779527559055118,
                    "duration": 0.2354048125000645
                },
                {
                    "name": "G5",
                    "midi": 79,
                    "time": 607.9963065000121,
                    "velocity": 0.3700787401574803,
                    "duration": 0.2354048125000645
                },
                {
                    "name": "F5",
                    "midi": 77,
                    "time": 608.2136032500122,
                    "velocity": 0.3779527559055118,
                    "duration": 0.21729675000005955
                },
                {
                    "name": "F#5",
                    "midi": 78,
                    "time": 608.4309000000122,
                    "velocity": 0.4094488188976378,
                    "duration": 0.23540481249995082
                },
                {
                    "name": "G5",
                    "midi": 79,
                    "time": 608.6481967500122,
                    "velocity": 0.3543307086614173,
                    "duration": 0.2354048125000645
                },
                {
                    "name": "G6",
                    "midi": 91,
                    "time": 608.8654935000122,
                    "velocity": 0.3700787401574803,
                    "duration": 0.2354048125000645
                },
                {
                    "name": "D6",
                    "midi": 86,
                    "time": 609.0827902500123,
                    "velocity": 0.36220472440944884,
                    "duration": 0.2354048125000645
                },
                {
                    "name": "D#6",
                    "midi": 87,
                    "time": 609.3000870000124,
                    "velocity": 0.4094488188976378,
                    "duration": 0.2354048125000645
                },
                {
                    "name": "B5",
                    "midi": 83,
                    "time": 609.5173837500124,
                    "velocity": 0.3700787401574803,
                    "duration": 0.2354048125000645
                },
                {
                    "name": "C6",
                    "midi": 84,
                    "time": 609.7346805000125,
                    "velocity": 0.4094488188976378,
                    "duration": 0.2354048125000645
                },
                {
                    "name": "G5",
                    "midi": 79,
                    "time": 609.9519772500125,
                    "velocity": 0.3858267716535433,
                    "duration": 0.2354048125000645
                },
                {
                    "name": "A#5",
                    "midi": 82,
                    "time": 610.1692740000126,
                    "velocity": 0.4094488188976378,
                    "duration": 0.2354048125000645
                },
                {
                    "name": "G#5",
                    "midi": 80,
                    "time": 610.3865707500127,
                    "velocity": 0.41732283464566927,
                    "duration": 0.2354048125000645
                },
                {
                    "name": "G5",
                    "midi": 79,
                    "time": 610.6038675000127,
                    "velocity": 0.4094488188976378,
                    "duration": 0.2354048125000645
                },
                {
                    "name": "F5",
                    "midi": 77,
                    "time": 610.8211642500128,
                    "velocity": 0.4251968503937008,
                    "duration": 0.21729675000005955
                },
                {
                    "name": "D#5",
                    "midi": 75,
                    "time": 611.0384610000128,
                    "velocity": 0.5039370078740157,
                    "duration": 0.4345934999998917
                },
                {
                    "name": "A5",
                    "midi": 81,
                    "time": 611.2557577500128,
                    "velocity": 0.3858267716535433,
                    "duration": 0.21729674999994586
                },
                {
                    "name": "F5",
                    "midi": 77,
                    "time": 611.4730545000127,
                    "velocity": 0.3779527559055118,
                    "duration": 0.21729674999994586
                },
                {
                    "name": "D5",
                    "midi": 74,
                    "time": 611.6903512500127,
                    "velocity": 0.4566929133858268,
                    "duration": 0.4345934999998917
                },
                {
                    "name": "A5",
                    "midi": 81,
                    "time": 611.9076480000126,
                    "velocity": 0.3779527559055118,
                    "duration": 0.21729674999994586
                },
                {
                    "name": "F5",
                    "midi": 77,
                    "time": 612.1249447500126,
                    "velocity": 0.3779527559055118,
                    "duration": 0.21729674999994586
                },
                {
                    "name": "C5",
                    "midi": 72,
                    "time": 612.3422415000125,
                    "velocity": 0.4409448818897638,
                    "duration": 0.4345934999998917
                },
                {
                    "name": "A5",
                    "midi": 81,
                    "time": 612.5595382500125,
                    "velocity": 0.3779527559055118,
                    "duration": 0.21729674999994586
                },
                {
                    "name": "F5",
                    "midi": 77,
                    "time": 612.7768350000124,
                    "velocity": 0.3779527559055118,
                    "duration": 0.21729674999994586
                },
                {
                    "name": "A#4",
                    "midi": 70,
                    "time": 612.9941317500123,
                    "velocity": 0.4251968503937008,
                    "duration": 0.4345934999998917
                },
                {
                    "name": "A5",
                    "midi": 81,
                    "time": 613.2114285000123,
                    "velocity": 0.3700787401574803,
                    "duration": 0.21729674999994586
                },
                {
                    "name": "F5",
                    "midi": 77,
                    "time": 613.4287252500122,
                    "velocity": 0.3700787401574803,
                    "duration": 0.21729674999994586
                },
                {
                    "name": "F#5",
                    "midi": 78,
                    "time": 613.6460220000122,
                    "velocity": 0.4409448818897638,
                    "duration": 0.23540481249995082
                },
                {
                    "name": "G5",
                    "midi": 79,
                    "time": 613.8633187500121,
                    "velocity": 0.3779527559055118,
                    "duration": 0.2354048125000645
                },
                {
                    "name": "G6",
                    "midi": 91,
                    "time": 614.0806155000122,
                    "velocity": 0.3700787401574803,
                    "duration": 0.2354048125000645
                },
                {
                    "name": "D6",
                    "midi": 86,
                    "time": 614.2979122500122,
                    "velocity": 0.3700787401574803,
                    "duration": 0.2354048125000645
                },
                {
                    "name": "D#6",
                    "midi": 87,
                    "time": 614.5152090000123,
                    "velocity": 0.4015748031496063,
                    "duration": 0.2354048125000645
                },
                {
                    "name": "B5",
                    "midi": 83,
                    "time": 614.7325057500124,
                    "velocity": 0.3464566929133858,
                    "duration": 0.2354048125000645
                },
                {
                    "name": "C6",
                    "midi": 84,
                    "time": 614.9498025000124,
                    "velocity": 0.4015748031496063,
                    "duration": 0.2354048125000645
                },
                {
                    "name": "G5",
                    "midi": 79,
                    "time": 615.1670992500125,
                    "velocity": 0.36220472440944884,
                    "duration": 0.2354048125000645
                },
                {
                    "name": "A#5",
                    "midi": 82,
                    "time": 615.3843960000125,
                    "velocity": 0.3937007874015748,
                    "duration": 0.2354048125000645
                },
                {
                    "name": "G#5",
                    "midi": 80,
                    "time": 615.6016927500126,
                    "velocity": 0.3779527559055118,
                    "duration": 0.2354048125000645
                },
                {
                    "name": "G5",
                    "midi": 79,
                    "time": 615.8189895000127,
                    "velocity": 0.3700787401574803,
                    "duration": 0.2354048125000645
                },
                {
                    "name": "F5",
                    "midi": 77,
                    "time": 616.0362862500127,
                    "velocity": 0.3779527559055118,
                    "duration": 0.21729675000005955
                },
                {
                    "name": "F#5",
                    "midi": 78,
                    "time": 616.2535830000128,
                    "velocity": 0.4094488188976378,
                    "duration": 0.23540481249995082
                },
                {
                    "name": "G5",
                    "midi": 79,
                    "time": 616.4708797500127,
                    "velocity": 0.3543307086614173,
                    "duration": 0.2354048125000645
                },
                {
                    "name": "G6",
                    "midi": 91,
                    "time": 616.6881765000128,
                    "velocity": 0.3700787401574803,
                    "duration": 0.2354048125000645
                },
                {
                    "name": "D6",
                    "midi": 86,
                    "time": 616.9054732500128,
                    "velocity": 0.3543307086614173,
                    "duration": 0.2354048125000645
                },
                {
                    "name": "D#6",
                    "midi": 87,
                    "time": 617.1227700000129,
                    "velocity": 0.3937007874015748,
                    "duration": 0.2354048125000645
                },
                {
                    "name": "B5",
                    "midi": 83,
                    "time": 617.340066750013,
                    "velocity": 0.3543307086614173,
                    "duration": 0.2354048125000645
                },
                {
                    "name": "C6",
                    "midi": 84,
                    "time": 617.557363500013,
                    "velocity": 0.3858267716535433,
                    "duration": 0.2354048125000645
                },
                {
                    "name": "G5",
                    "midi": 79,
                    "time": 617.7746602500131,
                    "velocity": 0.36220472440944884,
                    "duration": 0.2354048125000645
                },
                {
                    "name": "A#5",
                    "midi": 82,
                    "time": 617.9919570000131,
                    "velocity": 0.3779527559055118,
                    "duration": 0.2354048125000645
                },
                {
                    "name": "G#5",
                    "midi": 80,
                    "time": 618.2092537500132,
                    "velocity": 0.3779527559055118,
                    "duration": 0.2354048125000645
                },
                {
                    "name": "G5",
                    "midi": 79,
                    "time": 618.4265505000133,
                    "velocity": 0.3700787401574803,
                    "duration": 0.2354048125000645
                },
                {
                    "name": "F5",
                    "midi": 77,
                    "time": 618.6438472500133,
                    "velocity": 0.3779527559055118,
                    "duration": 0.21729675000005955
                },
                {
                    "name": "F#5",
                    "midi": 78,
                    "time": 618.8611440000134,
                    "velocity": 0.4094488188976378,
                    "duration": 0.23540481249995082
                },
                {
                    "name": "G5",
                    "midi": 79,
                    "time": 619.0784407500133,
                    "velocity": 0.3543307086614173,
                    "duration": 0.2354048125000645
                },
                {
                    "name": "G6",
                    "midi": 91,
                    "time": 619.2957375000134,
                    "velocity": 0.3700787401574803,
                    "duration": 0.2354048125000645
                },
                {
                    "name": "D6",
                    "midi": 86,
                    "time": 619.5130342500134,
                    "velocity": 0.36220472440944884,
                    "duration": 0.2354048125000645
                },
                {
                    "name": "D#6",
                    "midi": 87,
                    "time": 619.7303310000135,
                    "velocity": 0.4094488188976378,
                    "duration": 0.2354048125000645
                },
                {
                    "name": "B5",
                    "midi": 83,
                    "time": 619.9476277500136,
                    "velocity": 0.3700787401574803,
                    "duration": 0.2354048125000645
                },
                {
                    "name": "C6",
                    "midi": 84,
                    "time": 620.1649245000136,
                    "velocity": 0.4094488188976378,
                    "duration": 0.2354048125000645
                },
                {
                    "name": "G5",
                    "midi": 79,
                    "time": 620.3822212500137,
                    "velocity": 0.3858267716535433,
                    "duration": 0.2354048125000645
                },
                {
                    "name": "A#5",
                    "midi": 82,
                    "time": 620.5995180000137,
                    "velocity": 0.4094488188976378,
                    "duration": 0.2354048125000645
                },
                {
                    "name": "G#5",
                    "midi": 80,
                    "time": 620.8168147500138,
                    "velocity": 0.41732283464566927,
                    "duration": 0.2354048125000645
                },
                {
                    "name": "G5",
                    "midi": 79,
                    "time": 621.0341115000139,
                    "velocity": 0.4094488188976378,
                    "duration": 0.2354048125000645
                },
                {
                    "name": "F5",
                    "midi": 77,
                    "time": 621.2514082500139,
                    "velocity": 0.4251968503937008,
                    "duration": 0.21729675000005955
                },
                {
                    "name": "E5",
                    "midi": 76,
                    "time": 621.468705000014,
                    "velocity": 0.4409448818897638,
                    "duration": 0.21729674999994586
                },
                {
                    "name": "D#5",
                    "midi": 75,
                    "time": 621.6860017500139,
                    "velocity": 0.4409448818897638,
                    "duration": 0.21729674999994586
                },
                {
                    "name": "D5",
                    "midi": 74,
                    "time": 621.9032985000139,
                    "velocity": 0.4330708661417323,
                    "duration": 0.21729674999994586
                },
                {
                    "name": "C#5",
                    "midi": 73,
                    "time": 622.1205952500138,
                    "velocity": 0.4251968503937008,
                    "duration": 0.21729674999994586
                },
                {
                    "name": "C5",
                    "midi": 72,
                    "time": 622.3378920000138,
                    "velocity": 0.4094488188976378,
                    "duration": 0.21729674999994586
                },
                {
                    "name": "B4",
                    "midi": 71,
                    "time": 622.5551887500137,
                    "velocity": 0.4015748031496063,
                    "duration": 0.21729674999994586
                },
                {
                    "name": "A#4",
                    "midi": 70,
                    "time": 622.7724855000137,
                    "velocity": 0.3937007874015748,
                    "duration": 0.21729674999994586
                },
                {
                    "name": "A4",
                    "midi": 69,
                    "time": 622.9897822500136,
                    "velocity": 0.3858267716535433,
                    "duration": 0.21729674999994586
                },
                {
                    "name": "C5",
                    "midi": 72,
                    "time": 623.2070790000136,
                    "velocity": 0.3937007874015748,
                    "duration": 0.21729674999994586
                },
                {
                    "name": "A#4",
                    "midi": 70,
                    "time": 623.4243757500135,
                    "velocity": 0.3937007874015748,
                    "duration": 0.21729674999994586
                },
                {
                    "name": "A4",
                    "midi": 69,
                    "time": 623.6416725000134,
                    "velocity": 0.3779527559055118,
                    "duration": 0.21729674999994586
                },
                {
                    "name": "G#4",
                    "midi": 68,
                    "time": 623.8589692500134,
                    "velocity": 0.3779527559055118,
                    "duration": 0.21729674999994586
                },
                {
                    "name": "G4",
                    "midi": 67,
                    "time": 624.0762660000133,
                    "velocity": 0.3858267716535433,
                    "duration": 0.23540481249995082
                },
                {
                    "name": "G#4",
                    "midi": 68,
                    "time": 624.2935627500133,
                    "velocity": 0.3858267716535433,
                    "duration": 0.2354048125000645
                },
                {
                    "name": "A4",
                    "midi": 69,
                    "time": 624.5108595000133,
                    "velocity": 0.3937007874015748,
                    "duration": 0.2354048125000645
                },
                {
                    "name": "A#4",
                    "midi": 70,
                    "time": 624.7281562500134,
                    "velocity": 0.4094488188976378,
                    "duration": 0.2354048125000645
                },
                {
                    "name": "C5",
                    "midi": 72,
                    "time": 624.9454530000135,
                    "velocity": 0.4094488188976378,
                    "duration": 0.2354048125000645
                },
                {
                    "name": "A#4",
                    "midi": 70,
                    "time": 625.1627497500135,
                    "velocity": 0.41732283464566927,
                    "duration": 0.2354048125000645
                },
                {
                    "name": "G#4",
                    "midi": 68,
                    "time": 625.3800465000136,
                    "velocity": 0.4094488188976378,
                    "duration": 0.2354048125000645
                },
                {
                    "name": "A#4",
                    "midi": 70,
                    "time": 625.5973432500136,
                    "velocity": 0.41732283464566927,
                    "duration": 0.2354048125000645
                },
                {
                    "name": "B4",
                    "midi": 71,
                    "time": 625.8146400000137,
                    "velocity": 0.4409448818897638,
                    "duration": 0.2354048125000645
                },
                {
                    "name": "C5",
                    "midi": 72,
                    "time": 626.0319367500138,
                    "velocity": 0.4566929133858268,
                    "duration": 0.2354048125000645
                },
                {
                    "name": "C#5",
                    "midi": 73,
                    "time": 626.2492335000138,
                    "velocity": 0.4645669291338583,
                    "duration": 0.2354048125000645
                },
                {
                    "name": "C5",
                    "midi": 72,
                    "time": 626.4665302500139,
                    "velocity": 0.44881889763779526,
                    "duration": 0.21729675000005955
                },
                {
                    "name": "A4",
                    "midi": 69,
                    "time": 626.6838270000139,
                    "velocity": 0.3858267716535433,
                    "duration": 0.23540481249995082
                },
                {
                    "name": "A#4",
                    "midi": 70,
                    "time": 626.9011237500139,
                    "velocity": 0.3858267716535433,
                    "duration": 0.2354048125000645
                },
                {
                    "name": "B4",
                    "midi": 71,
                    "time": 627.1184205000139,
                    "velocity": 0.3937007874015748,
                    "duration": 0.2354048125000645
                },
                {
                    "name": "C5",
                    "midi": 72,
                    "time": 627.335717250014,
                    "velocity": 0.4094488188976378,
                    "duration": 0.2354048125000645
                },
                {
                    "name": "D5",
                    "midi": 74,
                    "time": 627.5530140000141,
                    "velocity": 0.4094488188976378,
                    "duration": 0.2354048125000645
                },
                {
                    "name": "C5",
                    "midi": 72,
                    "time": 627.7703107500141,
                    "velocity": 0.41732283464566927,
                    "duration": 0.2354048125000645
                },
                {
                    "name": "A#4",
                    "midi": 70,
                    "time": 627.9876075000142,
                    "velocity": 0.4094488188976378,
                    "duration": 0.2354048125000645
                },
                {
                    "name": "C5",
                    "midi": 72,
                    "time": 628.2049042500142,
                    "velocity": 0.41732283464566927,
                    "duration": 0.2354048125000645
                },
                {
                    "name": "C#5",
                    "midi": 73,
                    "time": 628.4222010000143,
                    "velocity": 0.4409448818897638,
                    "duration": 0.2354048125000645
                },
                {
                    "name": "D5",
                    "midi": 74,
                    "time": 628.6394977500144,
                    "velocity": 0.4566929133858268,
                    "duration": 0.2354048125000645
                },
                {
                    "name": "D#5",
                    "midi": 75,
                    "time": 628.8567945000144,
                    "velocity": 0.4645669291338583,
                    "duration": 0.2354048125000645
                },
                {
                    "name": "D5",
                    "midi": 74,
                    "time": 629.0740912500145,
                    "velocity": 0.44881889763779526,
                    "duration": 0.2354048125000645
                },
                {
                    "name": "B4",
                    "midi": 71,
                    "time": 629.2913880000145,
                    "velocity": 0.3858267716535433,
                    "duration": 0.2354048125000645
                },
                {
                    "name": "C5",
                    "midi": 72,
                    "time": 629.5086847500146,
                    "velocity": 0.3858267716535433,
                    "duration": 0.2354048125000645
                },
                {
                    "name": "C#5",
                    "midi": 73,
                    "time": 629.7259815000147,
                    "velocity": 0.3937007874015748,
                    "duration": 0.2354048125000645
                },
                {
                    "name": "D5",
                    "midi": 74,
                    "time": 629.9432782500147,
                    "velocity": 0.4094488188976378,
                    "duration": 0.2354048125000645
                },
                {
                    "name": "D#5",
                    "midi": 75,
                    "time": 630.1605750000148,
                    "velocity": 0.4094488188976378,
                    "duration": 0.2354048125000645
                },
                {
                    "name": "D5",
                    "midi": 74,
                    "time": 630.3778717500148,
                    "velocity": 0.41732283464566927,
                    "duration": 0.2354048125000645
                },
                {
                    "name": "C5",
                    "midi": 72,
                    "time": 630.5951685000149,
                    "velocity": 0.4094488188976378,
                    "duration": 0.2354048125000645
                },
                {
                    "name": "C#5",
                    "midi": 73,
                    "time": 630.812465250015,
                    "velocity": 0.41732283464566927,
                    "duration": 0.2354048125000645
                },
                {
                    "name": "D5",
                    "midi": 74,
                    "time": 631.029762000015,
                    "velocity": 0.4409448818897638,
                    "duration": 0.2354048125000645
                },
                {
                    "name": "D#5",
                    "midi": 75,
                    "time": 631.2470587500151,
                    "velocity": 0.4566929133858268,
                    "duration": 0.2354048125000645
                },
                {
                    "name": "E5",
                    "midi": 76,
                    "time": 631.4643555000151,
                    "velocity": 0.4645669291338583,
                    "duration": 0.2354048125000645
                },
                {
                    "name": "F5",
                    "midi": 77,
                    "time": 631.6816522500152,
                    "velocity": 0.44881889763779526,
                    "duration": 0.2354048125000645
                },
                {
                    "name": "G5",
                    "midi": 79,
                    "time": 631.8989490000153,
                    "velocity": 0.5118110236220472,
                    "duration": 0.2354048125000645
                },
                {
                    "name": "F5",
                    "midi": 77,
                    "time": 632.1162457500153,
                    "velocity": 0.5039370078740157,
                    "duration": 0.2354048125000645
                },
                {
                    "name": "E5",
                    "midi": 76,
                    "time": 632.3335425000154,
                    "velocity": 0.4881889763779528,
                    "duration": 0.2354048125000645
                },
                {
                    "name": "D#5",
                    "midi": 75,
                    "time": 632.5508392500154,
                    "velocity": 0.48031496062992124,
                    "duration": 0.2354048125000645
                },
                {
                    "name": "D5",
                    "midi": 74,
                    "time": 632.7681360000155,
                    "velocity": 0.4566929133858268,
                    "duration": 0.2354048125000645
                },
                {
                    "name": "C#5",
                    "midi": 73,
                    "time": 632.9854327500155,
                    "velocity": 0.4409448818897638,
                    "duration": 0.2354048125000645
                },
                {
                    "name": "C5",
                    "midi": 72,
                    "time": 633.2027295000156,
                    "velocity": 0.4330708661417323,
                    "duration": 0.2354048125000645
                },
                {
                    "name": "B4",
                    "midi": 71,
                    "time": 633.4200262500157,
                    "velocity": 0.41732283464566927,
                    "duration": 0.2354048125000645
                },
                {
                    "name": "A#4",
                    "midi": 70,
                    "time": 633.6373230000157,
                    "velocity": 0.4251968503937008,
                    "duration": 0.2354048125000645
                },
                {
                    "name": "A4",
                    "midi": 69,
                    "time": 633.8546197500158,
                    "velocity": 0.4251968503937008,
                    "duration": 0.2354048125000645
                },
                {
                    "name": "A#4",
                    "midi": 70,
                    "time": 634.0719165000158,
                    "velocity": 0.4015748031496063,
                    "duration": 0.2354048125000645
                },
                {
                    "name": "G#4",
                    "midi": 68,
                    "time": 634.2892132500159,
                    "velocity": 0.3937007874015748,
                    "duration": 0.2354048125000645
                },
                {
                    "name": "G4",
                    "midi": 67,
                    "time": 634.506510000016,
                    "velocity": 0.41732283464566927,
                    "duration": 0.4345935000000054
                },
                {
                    "name": "A#3",
                    "midi": 58,
                    "time": 634.941103500016,
                    "velocity": 0.41732283464566927,
                    "duration": 0.21729674999994586
                },
                {
                    "name": "A#4",
                    "midi": 70,
                    "time": 635.1584002500159,
                    "velocity": 0.3858267716535433,
                    "duration": 0.21729674999994586
                },
                {
                    "name": "D4",
                    "midi": 62,
                    "time": 635.3756970000159,
                    "velocity": 0.4251968503937008,
                    "duration": 0.21729674999994586
                },
                {
                    "name": "B4",
                    "midi": 71,
                    "time": 635.5929937500158,
                    "velocity": 0.3937007874015748,
                    "duration": 0.21729674999994586
                },
                {
                    "name": "A#3",
                    "midi": 58,
                    "time": 635.8102905000158,
                    "velocity": 0.4330708661417323,
                    "duration": 0.21729674999994586
                },
                {
                    "name": "A#4",
                    "midi": 70,
                    "time": 636.0275872500157,
                    "velocity": 0.4015748031496063,
                    "duration": 0.21729674999994586
                },
                {
                    "name": "D#4",
                    "midi": 63,
                    "time": 636.2448840000156,
                    "velocity": 0.47244094488188976,
                    "duration": 0.4345934999998917
                },
                {
                    "name": "G4",
                    "midi": 67,
                    "time": 636.4621807500156,
                    "velocity": 0.4251968503937008,
                    "duration": 0.21729674999994586
                },
                {
                    "name": "E4",
                    "midi": 64,
                    "time": 636.6794775000155,
                    "velocity": 0.49606299212598426,
                    "duration": 0.4345934999998917
                },
                {
                    "name": "C#5",
                    "midi": 73,
                    "time": 636.8967742500155,
                    "velocity": 0.41732283464566927,
                    "duration": 0.21729674999994586
                },
                {
                    "name": "C4",
                    "midi": 60,
                    "time": 637.1140710000154,
                    "velocity": 0.4645669291338583,
                    "duration": 0.21729674999994586
                },
                {
                    "name": "C5",
                    "midi": 72,
                    "time": 637.3313677500154,
                    "velocity": 0.4094488188976378,
                    "duration": 0.21729674999994586
                },
                {
                    "name": "F4",
                    "midi": 65,
                    "time": 637.5486645000153,
                    "velocity": 0.5196850393700787,
                    "duration": 0.4345934999998917
                },
                {
                    "name": "A4",
                    "midi": 69,
                    "time": 637.7659612500153,
                    "velocity": 0.4094488188976378,
                    "duration": 0.21729674999994586
                },
                {
                    "name": "E4",
                    "midi": 64,
                    "time": 637.9832580000152,
                    "velocity": 0.48031496062992124,
                    "duration": 0.21729674999994586
                },
                {
                    "name": "C#5",
                    "midi": 73,
                    "time": 638.2005547500152,
                    "velocity": 0.4330708661417323,
                    "duration": 0.21729674999994586
                },
                {
                    "name": "C4",
                    "midi": 60,
                    "time": 638.4178515000151,
                    "velocity": 0.49606299212598426,
                    "duration": 0.21729674999994586
                },
                {
                    "name": "C5",
                    "midi": 72,
                    "time": 638.635148250015,
                    "velocity": 0.4409448818897638,
                    "duration": 0.21729674999994586
                },
                {
                    "name": "F4",
                    "midi": 65,
                    "time": 638.852445000015,
                    "velocity": 0.5511811023622047,
                    "duration": 0.4345934999998917
                },
                {
                    "name": "A4",
                    "midi": 69,
                    "time": 639.0697417500149,
                    "velocity": 0.48031496062992124,
                    "duration": 0.21729674999994586
                },
                {
                    "name": "F#4",
                    "midi": 66,
                    "time": 639.2870385000149,
                    "velocity": 0.5354330708661418,
                    "duration": 0.4345934999998917
                },
                {
                    "name": "D#5",
                    "midi": 75,
                    "time": 639.5043352500148,
                    "velocity": 0.48031496062992124,
                    "duration": 0.21729674999994586
                },
                {
                    "name": "D4",
                    "midi": 62,
                    "time": 639.7216320000148,
                    "velocity": 0.5511811023622047,
                    "duration": 0.21729674999994586
                },
                {
                    "name": "D5",
                    "midi": 74,
                    "time": 639.9389287500147,
                    "velocity": 0.48031496062992124,
                    "duration": 0.21729674999994586
                },
                {
                    "name": "G4",
                    "midi": 67,
                    "time": 640.1562255000147,
                    "velocity": 0.5905511811023622,
                    "duration": 0.4345934999998917
                },
                {
                    "name": "B4",
                    "midi": 71,
                    "time": 640.3735222500146,
                    "velocity": 0.5275590551181102,
                    "duration": 0.21729674999994586
                },
                {
                    "name": "F#4",
                    "midi": 66,
                    "time": 640.5908190000146,
                    "velocity": 0.5984251968503937,
                    "duration": 0.4345934999998917
                },
                {
                    "name": "D#5",
                    "midi": 75,
                    "time": 640.8081157500145,
                    "velocity": 0.5354330708661418,
                    "duration": 0.21729674999994586
                },
                {
                    "name": "D4",
                    "midi": 62,
                    "time": 641.0254125000145,
                    "velocity": 0.5905511811023622,
                    "duration": 0.21729674999994586
                },
                {
                    "name": "D5",
                    "midi": 74,
                    "time": 641.2427092500144,
                    "velocity": 0.5354330708661418,
                    "duration": 0.21729674999994586
                },
                {
                    "name": "G4",
                    "midi": 67,
                    "time": 641.4600060000143,
                    "velocity": 0.6299212598425197,
                    "duration": 0.4345934999998917
                },
                {
                    "name": "A#4",
                    "midi": 70,
                    "time": 641.6773027500143,
                    "velocity": 0.5433070866141733,
                    "duration": 0.21729674999994586
                },
                {
                    "name": "G#4",
                    "midi": 68,
                    "time": 641.8945995000142,
                    "velocity": 0.6299212598425197,
                    "duration": 0.4345934999998917
                },
                {
                    "name": "F5",
                    "midi": 77,
                    "time": 642.1118962500142,
                    "velocity": 0.5590551181102362,
                    "duration": 0.21729674999994586
                },
                {
                    "name": "E4",
                    "midi": 64,
                    "time": 642.3291930000141,
                    "velocity": 0.6299212598425197,
                    "duration": 0.21729674999994586
                },
                {
                    "name": "E5",
                    "midi": 76,
                    "time": 642.5464897500141,
                    "velocity": 0.5905511811023622,
                    "duration": 0.21729674999994586
                },
                {
                    "name": "A4",
                    "midi": 69,
                    "time": 642.763786500014,
                    "velocity": 0.6771653543307087,
                    "duration": 0.4345934999998917
                },
                {
                    "name": "C#5",
                    "midi": 73,
                    "time": 642.981083250014,
                    "velocity": 0.5748031496062992,
                    "duration": 0.21729674999994586
                },
                {
                    "name": "A#4",
                    "midi": 70,
                    "time": 643.1983800000139,
                    "velocity": 0.7007874015748031,
                    "duration": 0.4345934999998917
                },
                {
                    "name": "G5",
                    "midi": 79,
                    "time": 643.4156767500139,
                    "velocity": 0.5984251968503937,
                    "duration": 0.21729674999994586
                },
                {
                    "name": "F#4",
                    "midi": 66,
                    "time": 643.6329735000138,
                    "velocity": 0.7007874015748031,
                    "duration": 0.21729674999994586
                },
                {
                    "name": "F#5",
                    "midi": 78,
                    "time": 643.8502702500138,
                    "velocity": 0.6220472440944882,
                    "duration": 0.21729674999994586
                },
                {
                    "name": "B4",
                    "midi": 71,
                    "time": 644.0675670000137,
                    "velocity": 0.7165354330708661,
                    "duration": 0.4345934999998917
                },
                {
                    "name": "D#5",
                    "midi": 75,
                    "time": 644.2848637500136,
                    "velocity": 0.6456692913385826,
                    "duration": 0.21729674999994586
                },
                {
                    "name": "C5",
                    "midi": 72,
                    "time": 644.5021605000136,
                    "velocity": 0.7322834645669292,
                    "duration": 0.4345934999998917
                },
                {
                    "name": "A5",
                    "midi": 81,
                    "time": 644.7194572500135,
                    "velocity": 0.6692913385826772,
                    "duration": 0.6518902499999513
                },
                {
                    "name": "C#5",
                    "midi": 73,
                    "time": 644.9367540000135,
                    "velocity": 0.6456692913385826,
                    "duration": 0.4345935000000054
                },
                {
                    "name": "C#6",
                    "midi": 85,
                    "time": 644.9367540000135,
                    "velocity": 0.7716535433070866,
                    "duration": 0.4345935000000054
                },
                {
                    "name": "F#5",
                    "midi": 78,
                    "time": 644.9367540000135,
                    "velocity": 0.6456692913385826,
                    "duration": 0.4345935000000054
                },
                {
                    "name": "C5",
                    "midi": 72,
                    "time": 645.3713475000135,
                    "velocity": 0.5039370078740157,
                    "duration": 0.21729674999994586
                },
                {
                    "name": "C#5",
                    "midi": 73,
                    "time": 645.5886442500134,
                    "velocity": 0.5039370078740157,
                    "duration": 0.21729674999994586
                },
                {
                    "name": "D#5",
                    "midi": 75,
                    "time": 645.8059410000134,
                    "velocity": 0.5118110236220472,
                    "duration": 0.21729674999994586
                },
                {
                    "name": "F5",
                    "midi": 77,
                    "time": 646.0232377500133,
                    "velocity": 0.5196850393700787,
                    "duration": 0.21729674999994586
                },
                {
                    "name": "F#5",
                    "midi": 78,
                    "time": 646.2405345000133,
                    "velocity": 0.5275590551181102,
                    "duration": 0.21729674999994586
                },
                {
                    "name": "G#5",
                    "midi": 80,
                    "time": 646.4578312500132,
                    "velocity": 0.5275590551181102,
                    "duration": 0.21729674999994586
                },
                {
                    "name": "A5",
                    "midi": 81,
                    "time": 646.6751280000132,
                    "velocity": 0.5354330708661418,
                    "duration": 0.21729674999994586
                },
                {
                    "name": "B5",
                    "midi": 83,
                    "time": 646.8924247500131,
                    "velocity": 0.5433070866141733,
                    "duration": 0.21729674999994586
                },
                {
                    "name": "C#6",
                    "midi": 85,
                    "time": 647.109721500013,
                    "velocity": 0.5511811023622047,
                    "duration": 0.21729674999994586
                },
                {
                    "name": "D#6",
                    "midi": 87,
                    "time": 647.327018250013,
                    "velocity": 0.5590551181102362,
                    "duration": 0.21729674999994586
                },
                {
                    "name": "F6",
                    "midi": 89,
                    "time": 647.544315000013,
                    "velocity": 0.5590551181102362,
                    "duration": 0.21729674999994586
                },
                {
                    "name": "F#6",
                    "midi": 90,
                    "time": 647.7616117500129,
                    "velocity": 0.5669291338582677,
                    "duration": 0.21729674999994586
                },
                {
                    "name": "G#6",
                    "midi": 92,
                    "time": 647.9789085000128,
                    "velocity": 0.5748031496062992,
                    "duration": 0.21729674999994586
                },
                {
                    "name": "A6",
                    "midi": 93,
                    "time": 648.1962052500128,
                    "velocity": 0.5826771653543307,
                    "duration": 0.21729674999994586
                },
                {
                    "name": "F#6",
                    "midi": 90,
                    "time": 648.4135020000127,
                    "velocity": 0.5905511811023622,
                    "duration": 0.21729674999994586
                },
                {
                    "name": "C#6",
                    "midi": 85,
                    "time": 648.6307987500127,
                    "velocity": 0.5905511811023622,
                    "duration": 0.21729674999994586
                },
                {
                    "name": "A5",
                    "midi": 81,
                    "time": 648.8480955000126,
                    "velocity": 0.5984251968503937,
                    "duration": 0.21729674999994586
                },
                {
                    "name": "F#5",
                    "midi": 78,
                    "time": 649.0653922500126,
                    "velocity": 0.5984251968503937,
                    "duration": 0.21729674999994586
                },
                {
                    "name": "C#5",
                    "midi": 73,
                    "time": 649.2826890000125,
                    "velocity": 0.5826771653543307,
                    "duration": 0.21729674999994586
                },
                {
                    "name": "A4",
                    "midi": 69,
                    "time": 649.4999857500125,
                    "velocity": 0.5669291338582677,
                    "duration": 0.21729674999994586
                },
                {
                    "name": "F#4",
                    "midi": 66,
                    "time": 649.7172825000124,
                    "velocity": 0.5590551181102362,
                    "duration": 0.21729674999994586
                },
                {
                    "name": "C#4",
                    "midi": 61,
                    "time": 649.9345792500123,
                    "velocity": 0.5433070866141733,
                    "duration": 0.21729674999994586
                },
                {
                    "name": "A3",
                    "midi": 57,
                    "time": 650.1518760000123,
                    "velocity": 0.5196850393700787,
                    "duration": 0.21729674999994586
                },
                {
                    "name": "F#4",
                    "midi": 66,
                    "time": 650.3691727500122,
                    "velocity": 0.5275590551181102,
                    "duration": 0.21729674999994586
                },
                {
                    "name": "D#4",
                    "midi": 63,
                    "time": 650.5864695000122,
                    "velocity": 0.5354330708661418,
                    "duration": 0.21729674999994586
                },
                {
                    "name": "A4",
                    "midi": 69,
                    "time": 650.8037662500121,
                    "velocity": 0.5433070866141733,
                    "duration": 0.19918868750005458
                },
                {
                    "name": "A4",
                    "midi": 69,
                    "time": 651.0210630000122,
                    "velocity": 0.5511811023622047,
                    "duration": 0.21729674999994586
                },
                {
                    "name": "F#5",
                    "midi": 78,
                    "time": 651.2383597500121,
                    "velocity": 0.5669291338582677,
                    "duration": 0.21729674999994586
                },
                {
                    "name": "D#5",
                    "midi": 75,
                    "time": 651.4556565000121,
                    "velocity": 0.5748031496062992,
                    "duration": 0.21729674999994586
                },
                {
                    "name": "A5",
                    "midi": 81,
                    "time": 651.672953250012,
                    "velocity": 0.5826771653543307,
                    "duration": 0.19918868750005458
                },
                {
                    "name": "A5",
                    "midi": 81,
                    "time": 651.8902500000121,
                    "velocity": 0.5905511811023622,
                    "duration": 0.21729674999994586
                },
                {
                    "name": "F#6",
                    "midi": 90,
                    "time": 652.107546750012,
                    "velocity": 0.5984251968503937,
                    "duration": 0.21729674999994586
                },
                {
                    "name": "D#6",
                    "midi": 87,
                    "time": 652.324843500012,
                    "velocity": 0.6062992125984252,
                    "duration": 0.21729674999994586
                },
                {
                    "name": "A6",
                    "midi": 93,
                    "time": 652.5421402500119,
                    "velocity": 0.6220472440944882,
                    "duration": 0.21729674999994586
                },
                {
                    "name": "F#6",
                    "midi": 90,
                    "time": 652.7594370000119,
                    "velocity": 0.6299212598425197,
                    "duration": 0.21729674999994586
                },
                {
                    "name": "A6",
                    "midi": 93,
                    "time": 652.9767337500118,
                    "velocity": 0.6141732283464567,
                    "duration": 0.21729674999994586
                },
                {
                    "name": "D#6",
                    "midi": 87,
                    "time": 653.1940305000118,
                    "velocity": 0.6062992125984252,
                    "duration": 0.21729674999994586
                },
                {
                    "name": "A5",
                    "midi": 81,
                    "time": 653.4113272500117,
                    "velocity": 0.5984251968503937,
                    "duration": 0.21729674999994586
                },
                {
                    "name": "F#5",
                    "midi": 78,
                    "time": 653.6286240000117,
                    "velocity": 0.5905511811023622,
                    "duration": 0.21729674999994586
                },
                {
                    "name": "A5",
                    "midi": 81,
                    "time": 653.8459207500116,
                    "velocity": 0.5905511811023622,
                    "duration": 0.21729674999994586
                },
                {
                    "name": "D#5",
                    "midi": 75,
                    "time": 654.0632175000115,
                    "velocity": 0.5826771653543307,
                    "duration": 0.21729674999994586
                },
                {
                    "name": "A4",
                    "midi": 69,
                    "time": 654.2805142500115,
                    "velocity": 0.5748031496062992,
                    "duration": 0.21729674999994586
                },
                {
                    "name": "F#4",
                    "midi": 66,
                    "time": 654.4978110000114,
                    "velocity": 0.5669291338582677,
                    "duration": 0.21729674999994586
                },
                {
                    "name": "A4",
                    "midi": 69,
                    "time": 654.7151077500114,
                    "velocity": 0.5669291338582677,
                    "duration": 0.21729674999994586
                },
                {
                    "name": "D#4",
                    "midi": 63,
                    "time": 654.9324045000113,
                    "velocity": 0.5590551181102362,
                    "duration": 0.21729674999994586
                },
                {
                    "name": "A3",
                    "midi": 57,
                    "time": 655.1497012500113,
                    "velocity": 0.5511811023622047,
                    "duration": 0.21729674999994586
                },
                {
                    "name": "A#4",
                    "midi": 70,
                    "time": 655.3669980000112,
                    "velocity": 0.5590551181102362,
                    "duration": 0.4345935000000054
                },
                {
                    "name": "A#3",
                    "midi": 58,
                    "time": 655.3669980000112,
                    "velocity": 0.5590551181102362,
                    "duration": 0.4345935000000054
                },
                {
                    "name": "G4",
                    "midi": 67,
                    "time": 655.3669980000112,
                    "velocity": 0.5590551181102362,
                    "duration": 0.4345935000000054
                },
                {
                    "name": "D#4",
                    "midi": 63,
                    "time": 655.3669980000112,
                    "velocity": 0.5590551181102362,
                    "duration": 0.4345935000000054
                },
                {
                    "name": "A3",
                    "midi": 57,
                    "time": 655.8015915000112,
                    "velocity": 0.36220472440944884,
                    "duration": 0.23540481249995082
                },
                {
                    "name": "A#3",
                    "midi": 58,
                    "time": 656.0188882500112,
                    "velocity": 0.36220472440944884,
                    "duration": 0.2354048125000645
                },
                {
                    "name": "C4",
                    "midi": 60,
                    "time": 656.2361850000112,
                    "velocity": 0.3700787401574803,
                    "duration": 0.2354048125000645
                },
                {
                    "name": "D4",
                    "midi": 62,
                    "time": 656.4534817500113,
                    "velocity": 0.3700787401574803,
                    "duration": 0.2354048125000645
                },
                {
                    "name": "D#4",
                    "midi": 63,
                    "time": 656.6707785000114,
                    "velocity": 0.3779527559055118,
                    "duration": 0.2354048125000645
                },
                {
                    "name": "E4",
                    "midi": 64,
                    "time": 656.8880752500114,
                    "velocity": 0.3858267716535433,
                    "duration": 0.2354048125000645
                },
                {
                    "name": "G4",
                    "midi": 67,
                    "time": 657.1053720000115,
                    "velocity": 0.3858267716535433,
                    "duration": 0.2354048125000645
                },
                {
                    "name": "F4",
                    "midi": 65,
                    "time": 657.3226687500115,
                    "velocity": 0.3937007874015748,
                    "duration": 0.2354048125000645
                },
                {
                    "name": "G4",
                    "midi": 67,
                    "time": 657.5399655000116,
                    "velocity": 0.3937007874015748,
                    "duration": 0.2354048125000645
                },
                {
                    "name": "F4",
                    "midi": 65,
                    "time": 657.7572622500116,
                    "velocity": 0.4015748031496063,
                    "duration": 0.2354048125000645
                },
                {
                    "name": "C5",
                    "midi": 72,
                    "time": 657.9745590000117,
                    "velocity": 0.4094488188976378,
                    "duration": 0.2354048125000645
                },
                {
                    "name": "A#4",
                    "midi": 70,
                    "time": 658.1918557500118,
                    "velocity": 0.4094488188976378,
                    "duration": 0.2354048125000645
                },
                {
                    "name": "A4",
                    "midi": 69,
                    "time": 658.4091525000118,
                    "velocity": 0.41732283464566927,
                    "duration": 0.2354048125000645
                },
                {
                    "name": "A#4",
                    "midi": 70,
                    "time": 658.6264492500119,
                    "velocity": 0.41732283464566927,
                    "duration": 0.2354048125000645
                },
                {
                    "name": "C5",
                    "midi": 72,
                    "time": 658.843746000012,
                    "velocity": 0.4251968503937008,
                    "duration": 0.2354048125000645
                },
                {
                    "name": "D5",
                    "midi": 74,
                    "time": 659.061042750012,
                    "velocity": 0.4251968503937008,
                    "duration": 0.2354048125000645
                },
                {
                    "name": "D#5",
                    "midi": 75,
                    "time": 659.2783395000121,
                    "velocity": 0.4330708661417323,
                    "duration": 0.2354048125000645
                },
                {
                    "name": "E5",
                    "midi": 76,
                    "time": 659.4956362500121,
                    "velocity": 0.4409448818897638,
                    "duration": 0.2354048125000645
                },
                {
                    "name": "G5",
                    "midi": 79,
                    "time": 659.7129330000122,
                    "velocity": 0.4409448818897638,
                    "duration": 0.2354048125000645
                },
                {
                    "name": "F5",
                    "midi": 77,
                    "time": 659.9302297500122,
                    "velocity": 0.44881889763779526,
                    "duration": 0.2354048125000645
                },
                {
                    "name": "G5",
                    "midi": 79,
                    "time": 660.1475265000123,
                    "velocity": 0.44881889763779526,
                    "duration": 0.2354048125000645
                },
                {
                    "name": "F5",
                    "midi": 77,
                    "time": 660.3648232500124,
                    "velocity": 0.4566929133858268,
                    "duration": 0.2354048125000645
                },
                {
                    "name": "C6",
                    "midi": 84,
                    "time": 660.5821200000124,
                    "velocity": 0.4645669291338583,
                    "duration": 0.2354048125000645
                },
                {
                    "name": "A#5",
                    "midi": 82,
                    "time": 660.7994167500125,
                    "velocity": 0.4645669291338583,
                    "duration": 0.2354048125000645
                },
                {
                    "name": "A5",
                    "midi": 81,
                    "time": 661.0167135000125,
                    "velocity": 0.47244094488188976,
                    "duration": 0.2354048125000645
                },
                {
                    "name": "A#5",
                    "midi": 82,
                    "time": 661.2340102500126,
                    "velocity": 0.47244094488188976,
                    "duration": 0.2354048125000645
                },
                {
                    "name": "C6",
                    "midi": 84,
                    "time": 661.4513070000127,
                    "velocity": 0.48031496062992124,
                    "duration": 0.2354048125000645
                },
                {
                    "name": "D6",
                    "midi": 86,
                    "time": 661.6686037500127,
                    "velocity": 0.48031496062992124,
                    "duration": 0.2354048125000645
                },
                {
                    "name": "D#6",
                    "midi": 87,
                    "time": 661.8859005000128,
                    "velocity": 0.4881889763779528,
                    "duration": 0.2354048125000645
                },
                {
                    "name": "E6",
                    "midi": 88,
                    "time": 662.1031972500128,
                    "velocity": 0.49606299212598426,
                    "duration": 0.2354048125000645
                },
                {
                    "name": "G6",
                    "midi": 91,
                    "time": 662.3204940000129,
                    "velocity": 0.49606299212598426,
                    "duration": 0.2354048125000645
                },
                {
                    "name": "F6",
                    "midi": 89,
                    "time": 662.537790750013,
                    "velocity": 0.5039370078740157,
                    "duration": 0.2354048125000645
                },
                {
                    "name": "G6",
                    "midi": 91,
                    "time": 662.755087500013,
                    "velocity": 0.5039370078740157,
                    "duration": 0.2354048125000645
                },
                {
                    "name": "F6",
                    "midi": 89,
                    "time": 662.9723842500131,
                    "velocity": 0.5118110236220472,
                    "duration": 0.2354048125000645
                },
                {
                    "name": "A#6",
                    "midi": 94,
                    "time": 663.1896810000131,
                    "velocity": 0.5196850393700787,
                    "duration": 0.4345935000000054
                },
                {
                    "name": "A5",
                    "midi": 81,
                    "time": 663.6242745000131,
                    "velocity": 0.5039370078740157,
                    "duration": 0.23540481249995082
                },
                {
                    "name": "A#5",
                    "midi": 82,
                    "time": 663.8415712500131,
                    "velocity": 0.5118110236220472,
                    "duration": 0.2354048125000645
                },
                {
                    "name": "C6",
                    "midi": 84,
                    "time": 664.0588680000131,
                    "velocity": 0.5118110236220472,
                    "duration": 0.2354048125000645
                },
                {
                    "name": "D6",
                    "midi": 86,
                    "time": 664.2761647500132,
                    "velocity": 0.5196850393700787,
                    "duration": 0.2354048125000645
                },
                {
                    "name": "D#6",
                    "midi": 87,
                    "time": 664.4934615000133,
                    "velocity": 0.5275590551181102,
                    "duration": 0.2354048125000645
                },
                {
                    "name": "E6",
                    "midi": 88,
                    "time": 664.7107582500133,
                    "velocity": 0.5354330708661418,
                    "duration": 0.2354048125000645
                },
                {
                    "name": "G6",
                    "midi": 91,
                    "time": 664.9280550000134,
                    "velocity": 0.5590551181102362,
                    "duration": 0.2354048125000645
                },
                {
                    "name": "F6",
                    "midi": 89,
                    "time": 665.1453517500134,
                    "velocity": 0.5354330708661418,
                    "duration": 0.2354048125000645
                },
                {
                    "name": "G6",
                    "midi": 91,
                    "time": 665.3626485000135,
                    "velocity": 0.5590551181102362,
                    "duration": 0.2354048125000645
                },
                {
                    "name": "F6",
                    "midi": 89,
                    "time": 665.5799452500136,
                    "velocity": 0.5354330708661418,
                    "duration": 0.2354048125000645
                },
                {
                    "name": "A#6",
                    "midi": 94,
                    "time": 665.7972420000136,
                    "velocity": 0.5354330708661418,
                    "duration": 0.21729675000005955
                },
                {
                    "name": "F6",
                    "midi": 89,
                    "time": 666.9923741250137,
                    "velocity": 0.6062992125984252,
                    "duration": 0.10864837500002977
                },
                {
                    "name": "F7",
                    "midi": 101,
                    "time": 667.1010225000138,
                    "velocity": 0.7007874015748031,
                    "duration": 0.21729674999994586
                },
                {
                    "name": "E7",
                    "midi": 100,
                    "time": 667.3183192500137,
                    "velocity": 0.6614173228346457,
                    "duration": 0.21729674999994586
                },
                {
                    "name": "D#7",
                    "midi": 99,
                    "time": 667.5356160000136,
                    "velocity": 0.6535433070866141,
                    "duration": 0.21729674999994586
                },
                {
                    "name": "D7",
                    "midi": 98,
                    "time": 667.7529127500136,
                    "velocity": 0.6456692913385826,
                    "duration": 0.21729674999994586
                },
                {
                    "name": "C7",
                    "midi": 96,
                    "time": 667.9702095000135,
                    "velocity": 0.6377952755905512,
                    "duration": 0.21729674999994586
                },
                {
                    "name": "A#6",
                    "midi": 94,
                    "time": 668.1875062500135,
                    "velocity": 0.6220472440944882,
                    "duration": 0.21729674999994586
                },
                {
                    "name": "A6",
                    "midi": 93,
                    "time": 668.4048030000134,
                    "velocity": 0.6141732283464567,
                    "duration": 0.21729674999994586
                },
                {
                    "name": "G6",
                    "midi": 91,
                    "time": 668.6220997500134,
                    "velocity": 0.6062992125984252,
                    "duration": 0.21729674999994586
                },
                {
                    "name": "F6",
                    "midi": 89,
                    "time": 668.8393965000133,
                    "velocity": 0.5984251968503937,
                    "duration": 0.21729674999994586
                },
                {
                    "name": "E6",
                    "midi": 88,
                    "time": 669.0566932500133,
                    "velocity": 0.5905511811023622,
                    "duration": 0.21729674999994586
                },
                {
                    "name": "D#6",
                    "midi": 87,
                    "time": 669.2739900000132,
                    "velocity": 0.5826771653543307,
                    "duration": 0.21729674999994586
                },
                {
                    "name": "D6",
                    "midi": 86,
                    "time": 669.4912867500132,
                    "velocity": 0.5748031496062992,
                    "duration": 0.21729674999994586
                },
                {
                    "name": "C6",
                    "midi": 84,
                    "time": 669.7085835000131,
                    "velocity": 0.5669291338582677,
                    "duration": 0.21729674999994586
                },
                {
                    "name": "A#5",
                    "midi": 82,
                    "time": 669.925880250013,
                    "velocity": 0.5590551181102362,
                    "duration": 0.21729674999994586
                },
                {
                    "name": "A5",
                    "midi": 81,
                    "time": 670.143177000013,
                    "velocity": 0.5511811023622047,
                    "duration": 0.21729674999994586
                },
                {
                    "name": "G5",
                    "midi": 79,
                    "time": 670.3604737500129,
                    "velocity": 0.5433070866141733,
                    "duration": 0.21729674999994586
                },
                {
                    "name": "F5",
                    "midi": 77,
                    "time": 670.5777705000129,
                    "velocity": 0.5354330708661418,
                    "duration": 0.21729674999994586
                },
                {
                    "name": "E5",
                    "midi": 76,
                    "time": 670.7950672500128,
                    "velocity": 0.5275590551181102,
                    "duration": 0.21729674999994586
                },
                {
                    "name": "D#5",
                    "midi": 75,
                    "time": 671.0123640000128,
                    "velocity": 0.5196850393700787,
                    "duration": 0.21729674999994586
                },
                {
                    "name": "C#5",
                    "midi": 73,
                    "time": 671.2296607500127,
                    "velocity": 0.5118110236220472,
                    "duration": 0.21729674999994586
                },
                {
                    "name": "B4",
                    "midi": 71,
                    "time": 671.4469575000127,
                    "velocity": 0.5039370078740157,
                    "duration": 0.21729674999994586
                },
                {
                    "name": "A#4",
                    "midi": 70,
                    "time": 671.6642542500126,
                    "velocity": 0.49606299212598426,
                    "duration": 0.21729674999994586
                },
                {
                    "name": "G#4",
                    "midi": 68,
                    "time": 671.8815510000126,
                    "velocity": 0.4881889763779528,
                    "duration": 0.21729674999994586
                },
                {
                    "name": "F#4",
                    "midi": 66,
                    "time": 672.0988477500125,
                    "velocity": 0.48031496062992124,
                    "duration": 0.21729674999994586
                },
                {
                    "name": "F4",
                    "midi": 65,
                    "time": 672.3161445000125,
                    "velocity": 0.47244094488188976,
                    "duration": 0.21729674999994586
                },
                {
                    "name": "D#4",
                    "midi": 63,
                    "time": 672.5334412500124,
                    "velocity": 0.4645669291338583,
                    "duration": 0.21729674999994586
                },
                {
                    "name": "C#4",
                    "midi": 61,
                    "time": 672.7507380000123,
                    "velocity": 0.4566929133858268,
                    "duration": 0.21729674999994586
                },
                {
                    "name": "B3",
                    "midi": 59,
                    "time": 672.9680347500123,
                    "velocity": 0.44881889763779526,
                    "duration": 0.21729674999994586
                },
                {
                    "name": "A#3",
                    "midi": 58,
                    "time": 673.1853315000122,
                    "velocity": 0.4409448818897638,
                    "duration": 0.21729674999994586
                },
                {
                    "name": "G#3",
                    "midi": 56,
                    "time": 673.4026282500122,
                    "velocity": 0.4330708661417323,
                    "duration": 0.21729674999994586
                },
                {
                    "name": "F#3",
                    "midi": 54,
                    "time": 673.6199250000121,
                    "velocity": 0.44881889763779526,
                    "duration": 0.21729674999994586
                },
                {
                    "name": "F3",
                    "midi": 53,
                    "time": 673.8372217500121,
                    "velocity": 0.4645669291338583,
                    "duration": 0.21729674999994586
                },
                {
                    "name": "D#3",
                    "midi": 51,
                    "time": 674.054518500012,
                    "velocity": 0.4881889763779528,
                    "duration": 0.21729674999994586
                },
                {
                    "name": "C#3",
                    "midi": 49,
                    "time": 674.271815250012,
                    "velocity": 0.5039370078740157,
                    "duration": 0.21729674999994586
                },
                {
                    "name": "B2",
                    "midi": 47,
                    "time": 674.4891120000119,
                    "velocity": 0.5196850393700787,
                    "duration": 0.21729674999994586
                },
                {
                    "name": "A#2",
                    "midi": 46,
                    "time": 674.7064087500119,
                    "velocity": 0.5354330708661418,
                    "duration": 0.21729674999994586
                },
                {
                    "name": "G#2",
                    "midi": 44,
                    "time": 674.9237055000118,
                    "velocity": 0.5511811023622047,
                    "duration": 0.21729674999994586
                },
                {
                    "name": "F#2",
                    "midi": 42,
                    "time": 675.1410022500118,
                    "velocity": 0.5669291338582677,
                    "duration": 0.21729674999994586
                },
                {
                    "name": "F2",
                    "midi": 41,
                    "time": 675.3582990000117,
                    "velocity": 0.5905511811023622,
                    "duration": 0.21729674999994586
                },
                {
                    "name": "D#2",
                    "midi": 39,
                    "time": 675.5755957500116,
                    "velocity": 0.6062992125984252,
                    "duration": 0.21729674999994586
                },
                {
                    "name": "C#2",
                    "midi": 37,
                    "time": 675.7928925000116,
                    "velocity": 0.6220472440944882,
                    "duration": 0.21729674999994586
                },
                {
                    "name": "B1",
                    "midi": 35,
                    "time": 676.0101892500115,
                    "velocity": 0.6377952755905512,
                    "duration": 0.21729674999994586
                },
                {
                    "name": "G4",
                    "midi": 67,
                    "time": 678.8350470000115,
                    "velocity": 0.6141732283464567,
                    "duration": 1.7383740000000216
                },
                {
                    "name": "D4",
                    "midi": 62,
                    "time": 678.8350470000115,
                    "velocity": 0.5196850393700787,
                    "duration": 1.7383740000000216
                },
                {
                    "name": "A#3",
                    "midi": 58,
                    "time": 678.8350470000115,
                    "velocity": 0.5196850393700787,
                    "duration": 1.7383740000000216
                },
                {
                    "name": "D4",
                    "midi": 62,
                    "time": 680.5734210000115,
                    "velocity": 0.48031496062992124,
                    "duration": 0.8691870000000108
                },
                {
                    "name": "G#3",
                    "midi": 56,
                    "time": 680.5734210000115,
                    "velocity": 0.48031496062992124,
                    "duration": 0.8691870000000108
                },
                {
                    "name": "G4",
                    "midi": 67,
                    "time": 680.5734210000115,
                    "velocity": 0.5748031496062992,
                    "duration": 0.8691870000000108
                },
                {
                    "name": "G3",
                    "midi": 55,
                    "time": 681.4426080000115,
                    "velocity": 0.5118110236220472,
                    "duration": 0.8691870000000108
                },
                {
                    "name": "D#4",
                    "midi": 63,
                    "time": 681.4426080000115,
                    "velocity": 0.5984251968503937,
                    "duration": 0.8691870000000108
                },
                {
                    "name": "D#4",
                    "midi": 63,
                    "time": 683.1809820000116,
                    "velocity": 0.5196850393700787,
                    "duration": 2.6075610000000324
                },
                {
                    "name": "G4",
                    "midi": 67,
                    "time": 683.1809820000116,
                    "velocity": 0.5196850393700787,
                    "duration": 2.6075610000000324
                },
                {
                    "name": "D#5",
                    "midi": 75,
                    "time": 683.1809820000116,
                    "velocity": 0.6141732283464567,
                    "duration": 2.6075610000000324
                },
                {
                    "name": "D5",
                    "midi": 74,
                    "time": 685.7885430000116,
                    "velocity": 0.5748031496062992,
                    "duration": 0.8691870000000108
                },
                {
                    "name": "A#4",
                    "midi": 70,
                    "time": 685.7885430000116,
                    "velocity": 0.48031496062992124,
                    "duration": 0.8691870000000108
                },
                {
                    "name": "D#4",
                    "midi": 63,
                    "time": 685.7885430000116,
                    "velocity": 0.48031496062992124,
                    "duration": 0.8691870000000108
                },
                {
                    "name": "D#4",
                    "midi": 63,
                    "time": 686.6577300000116,
                    "velocity": 0.5118110236220472,
                    "duration": 2.6075610000000324
                },
                {
                    "name": "A#4",
                    "midi": 70,
                    "time": 686.6577300000116,
                    "velocity": 0.5118110236220472,
                    "duration": 2.6075610000000324
                },
                {
                    "name": "C5",
                    "midi": 72,
                    "time": 686.6577300000116,
                    "velocity": 0.6062992125984252,
                    "duration": 2.6075610000000324
                },
                {
                    "name": "F4",
                    "midi": 65,
                    "time": 689.2652910000116,
                    "velocity": 0.5275590551181102,
                    "duration": 1.7383740000000216
                },
                {
                    "name": "D5",
                    "midi": 74,
                    "time": 689.2652910000116,
                    "velocity": 0.6220472440944882,
                    "duration": 1.7383740000000216
                },
                {
                    "name": "A4",
                    "midi": 69,
                    "time": 689.2652910000116,
                    "velocity": 0.5275590551181102,
                    "duration": 1.7383740000000216
                },
                {
                    "name": "D#4",
                    "midi": 63,
                    "time": 691.0036650000117,
                    "velocity": 0.49606299212598426,
                    "duration": 0.8691870000000108
                },
                {
                    "name": "A4",
                    "midi": 69,
                    "time": 691.0036650000117,
                    "velocity": 0.49606299212598426,
                    "duration": 0.8691870000000108
                },
                {
                    "name": "D5",
                    "midi": 74,
                    "time": 691.0036650000117,
                    "velocity": 0.5826771653543307,
                    "duration": 0.8691870000000108
                },
                {
                    "name": "D4",
                    "midi": 62,
                    "time": 691.8728520000117,
                    "velocity": 0.4645669291338583,
                    "duration": 0.8691870000000108
                },
                {
                    "name": "A#4",
                    "midi": 70,
                    "time": 691.8728520000117,
                    "velocity": 0.5590551181102362,
                    "duration": 0.8691870000000108
                },
                {
                    "name": "A#4",
                    "midi": 70,
                    "time": 694.4804130000117,
                    "velocity": 0.5039370078740157,
                    "duration": 1.7383740000000216
                },
                {
                    "name": "A#5",
                    "midi": 82,
                    "time": 694.4804130000117,
                    "velocity": 0.5905511811023622,
                    "duration": 1.7383740000000216
                },
                {
                    "name": "B4",
                    "midi": 71,
                    "time": 696.2187870000117,
                    "velocity": 0.5118110236220472,
                    "duration": 0.8691870000000108
                },
                {
                    "name": "B5",
                    "midi": 83,
                    "time": 696.2187870000117,
                    "velocity": 0.6062992125984252,
                    "duration": 0.8691870000000108
                },
                {
                    "name": "C5",
                    "midi": 72,
                    "time": 697.0879740000117,
                    "velocity": 0.5118110236220472,
                    "duration": 0.32594512499997563
                },
                {
                    "name": "C6",
                    "midi": 84,
                    "time": 697.0879740000117,
                    "velocity": 0.6062992125984252,
                    "duration": 0.32594512499997563
                },
                {
                    "name": "C#6",
                    "midi": 85,
                    "time": 697.6094862000117,
                    "velocity": 0.5669291338582677,
                    "duration": 0.32594512499997563
                },
                {
                    "name": "A#5",
                    "midi": 82,
                    "time": 697.6094862000117,
                    "velocity": 0.47244094488188976,
                    "duration": 0.32594512499997563
                },
                {
                    "name": "E5",
                    "midi": 76,
                    "time": 698.1309984000117,
                    "velocity": 0.48031496062992124,
                    "duration": 0.32594512499997563
                },
                {
                    "name": "C6",
                    "midi": 84,
                    "time": 698.1309984000117,
                    "velocity": 0.5748031496062992,
                    "duration": 0.32594512499997563
                },
                {
                    "name": "A#5",
                    "midi": 82,
                    "time": 698.6525106000116,
                    "velocity": 0.49606299212598426,
                    "duration": 0.32594512499997563
                },
                {
                    "name": "B5",
                    "midi": 83,
                    "time": 698.6525106000116,
                    "velocity": 0.5826771653543307,
                    "duration": 0.32594512499997563
                },
                {
                    "name": "E5",
                    "midi": 76,
                    "time": 699.1740228000116,
                    "velocity": 0.5275590551181102,
                    "duration": 0.30421545000001515
                },
                {
                    "name": "C6",
                    "midi": 84,
                    "time": 699.1740228000116,
                    "velocity": 0.6220472440944882,
                    "duration": 0.30421545000001515
                },
                {
                    "name": "G#5",
                    "midi": 80,
                    "time": 699.4782382500116,
                    "velocity": 0.44881889763779526,
                    "duration": 0.21729674999994586
                },
                {
                    "name": "C6",
                    "midi": 84,
                    "time": 699.4782382500116,
                    "velocity": 0.5433070866141733,
                    "duration": 0.21729674999994586
                },
                {
                    "name": "G#5",
                    "midi": 80,
                    "time": 699.6955350000115,
                    "velocity": 0.5748031496062992,
                    "duration": 0.4345935000000054
                },
                {
                    "name": "G#6",
                    "midi": 92,
                    "time": 699.6955350000115,
                    "velocity": 0.6850393700787402,
                    "duration": 0.4345935000000054
                },
                {
                    "name": "C6",
                    "midi": 84,
                    "time": 701.8685025000116,
                    "velocity": 0.6377952755905512,
                    "duration": 0.4345935000000054
                },
                {
                    "name": "D#5",
                    "midi": 75,
                    "time": 701.8685025000116,
                    "velocity": 0.5433070866141733,
                    "duration": 0.4345935000000054
                },
                {
                    "name": "D5",
                    "midi": 74,
                    "time": 702.3030960000116,
                    "velocity": 0.5118110236220472,
                    "duration": 0.32594512499997563
                },
                {
                    "name": "A#5",
                    "midi": 82,
                    "time": 702.3030960000116,
                    "velocity": 0.6062992125984252,
                    "duration": 0.32594512499997563
                },
                {
                    "name": "G#5",
                    "midi": 80,
                    "time": 702.8246082000115,
                    "velocity": 0.47244094488188976,
                    "duration": 0.32594512499997563
                },
                {
                    "name": "C6",
                    "midi": 84,
                    "time": 702.8246082000115,
                    "velocity": 0.5669291338582677,
                    "duration": 0.32594512499997563
                },
                {
                    "name": "A#5",
                    "midi": 82,
                    "time": 703.3461204000115,
                    "velocity": 0.5748031496062992,
                    "duration": 0.32594512499997563
                },
                {
                    "name": "D5",
                    "midi": 74,
                    "time": 703.3461204000115,
                    "velocity": 0.48031496062992124,
                    "duration": 0.32594512499997563
                },
                {
                    "name": "A5",
                    "midi": 81,
                    "time": 703.8676326000115,
                    "velocity": 0.5826771653543307,
                    "duration": 0.32594512499997563
                },
                {
                    "name": "G#5",
                    "midi": 80,
                    "time": 703.8676326000115,
                    "velocity": 0.49606299212598426,
                    "duration": 0.32594512499997563
                },
                {
                    "name": "A#5",
                    "midi": 82,
                    "time": 704.3891448000114,
                    "velocity": 0.6220472440944882,
                    "duration": 0.30421545000001515
                },
                {
                    "name": "D5",
                    "midi": 74,
                    "time": 704.3891448000114,
                    "velocity": 0.5275590551181102,
                    "duration": 0.30421545000001515
                },
                {
                    "name": "A#5",
                    "midi": 82,
                    "time": 704.6933602500114,
                    "velocity": 0.5433070866141733,
                    "duration": 0.21729674999994586
                },
                {
                    "name": "G5",
                    "midi": 79,
                    "time": 704.6933602500114,
                    "velocity": 0.44881889763779526,
                    "duration": 0.21729674999994586
                },
                {
                    "name": "G5",
                    "midi": 79,
                    "time": 704.9106570000114,
                    "velocity": 0.5748031496062992,
                    "duration": 0.4345935000000054
                },
                {
                    "name": "G6",
                    "midi": 91,
                    "time": 704.9106570000114,
                    "velocity": 0.6850393700787402,
                    "duration": 0.4345935000000054
                },
                {
                    "name": "D5",
                    "midi": 74,
                    "time": 707.0836245000114,
                    "velocity": 0.5433070866141733,
                    "duration": 0.4345935000000054
                },
                {
                    "name": "A#5",
                    "midi": 82,
                    "time": 707.0836245000114,
                    "velocity": 0.6377952755905512,
                    "duration": 0.4345935000000054
                },
                {
                    "name": "C5",
                    "midi": 72,
                    "time": 707.5182180000114,
                    "velocity": 0.5118110236220472,
                    "duration": 0.32594512499997563
                },
                {
                    "name": "G#5",
                    "midi": 80,
                    "time": 707.5182180000114,
                    "velocity": 0.6062992125984252,
                    "duration": 0.32594512499997563
                },
                {
                    "name": "D#5",
                    "midi": 75,
                    "time": 708.0397302000114,
                    "velocity": 0.47244094488188976,
                    "duration": 0.32594512499997563
                },
                {
                    "name": "A#5",
                    "midi": 82,
                    "time": 708.0397302000114,
                    "velocity": 0.5669291338582677,
                    "duration": 0.32594512499997563
                },
                {
                    "name": "C5",
                    "midi": 72,
                    "time": 708.5612424000113,
                    "velocity": 0.48031496062992124,
                    "duration": 0.32594512499997563
                },
                {
                    "name": "G#5",
                    "midi": 80,
                    "time": 708.5612424000113,
                    "velocity": 0.5748031496062992,
                    "duration": 0.32594512499997563
                },
                {
                    "name": "D#5",
                    "midi": 75,
                    "time": 709.0827546000113,
                    "velocity": 0.49606299212598426,
                    "duration": 0.32594512499997563
                },
                {
                    "name": "G5",
                    "midi": 79,
                    "time": 709.0827546000113,
                    "velocity": 0.5826771653543307,
                    "duration": 0.32594512499997563
                },
                {
                    "name": "G#5",
                    "midi": 80,
                    "time": 709.6042668000113,
                    "velocity": 0.6220472440944882,
                    "duration": 0.30421545000001515
                },
                {
                    "name": "C5",
                    "midi": 72,
                    "time": 709.6042668000113,
                    "velocity": 0.5275590551181102,
                    "duration": 0.30421545000001515
                },
                {
                    "name": "F5",
                    "midi": 77,
                    "time": 709.9084822500113,
                    "velocity": 0.44881889763779526,
                    "duration": 0.21729674999994586
                },
                {
                    "name": "G#5",
                    "midi": 80,
                    "time": 709.9084822500113,
                    "velocity": 0.5433070866141733,
                    "duration": 0.21729674999994586
                },
                {
                    "name": "F6",
                    "midi": 89,
                    "time": 710.1257790000112,
                    "velocity": 0.6850393700787402,
                    "duration": 0.4345935000000054
                },
                {
                    "name": "F5",
                    "midi": 77,
                    "time": 710.1257790000112,
                    "velocity": 0.5748031496062992,
                    "duration": 0.4345935000000054
                },
                {
                    "name": "G#5",
                    "midi": 80,
                    "time": 711.8641530000112,
                    "velocity": 0.6141732283464567,
                    "duration": 0.8691870000000108
                },
                {
                    "name": "F5",
                    "midi": 77,
                    "time": 711.8641530000112,
                    "velocity": 0.6141732283464567,
                    "duration": 0.8691870000000108
                },
                {
                    "name": "G5",
                    "midi": 79,
                    "time": 712.7333400000113,
                    "velocity": 0.6141732283464567,
                    "duration": 0.6518902499999513
                },
                {
                    "name": "F5",
                    "midi": 77,
                    "time": 712.7333400000113,
                    "velocity": 0.5196850393700787,
                    "duration": 0.6518902499999513
                },
                {
                    "name": "A#5",
                    "midi": 82,
                    "time": 713.3852302500112,
                    "velocity": 0.5590551181102362,
                    "duration": 0.21729674999994586
                },
                {
                    "name": "F5",
                    "midi": 77,
                    "time": 713.6025270000112,
                    "velocity": 0.5433070866141733,
                    "duration": 1.3037805000000162
                },
                {
                    "name": "G#5",
                    "midi": 80,
                    "time": 713.6025270000112,
                    "velocity": 0.6377952755905512,
                    "duration": 1.3037805000000162
                },
                {
                    "name": "G5",
                    "midi": 79,
                    "time": 714.9063075000112,
                    "velocity": 0.5905511811023622,
                    "duration": 0.4345935000000054
                },
                {
                    "name": "F5",
                    "midi": 77,
                    "time": 714.9063075000112,
                    "velocity": 0.5039370078740157,
                    "duration": 0.4345935000000054
                },
                {
                    "name": "D#5",
                    "midi": 75,
                    "time": 715.3409010000112,
                    "velocity": 0.49606299212598426,
                    "duration": 0.8329708750000009
                },
                {
                    "name": "G5",
                    "midi": 79,
                    "time": 715.3409010000112,
                    "velocity": 0.5826771653543307,
                    "duration": 0.8329708750000009
                },
                {
                    "name": "D#5",
                    "midi": 75,
                    "time": 716.2100880000112,
                    "velocity": 0.5275590551181102,
                    "duration": 0.8329708750000009
                },
                {
                    "name": "G#5",
                    "midi": 80,
                    "time": 716.2100880000112,
                    "velocity": 0.6220472440944882,
                    "duration": 0.8329708750000009
                },
                {
                    "name": "A5",
                    "midi": 81,
                    "time": 717.0792750000112,
                    "velocity": 0.6614173228346457,
                    "duration": 0.8329708750000009
                },
                {
                    "name": "D#5",
                    "midi": 75,
                    "time": 717.0792750000112,
                    "velocity": 0.5590551181102362,
                    "duration": 0.8329708750000009
                },
                {
                    "name": "G#4",
                    "midi": 68,
                    "time": 717.9484620000112,
                    "velocity": 0.5590551181102362,
                    "duration": 2.6075610000000324
                },
                {
                    "name": "A#4",
                    "midi": 70,
                    "time": 717.9484620000112,
                    "velocity": 0.5590551181102362,
                    "duration": 2.6075610000000324
                },
                {
                    "name": "F5",
                    "midi": 77,
                    "time": 717.9484620000112,
                    "velocity": 0.5590551181102362,
                    "duration": 2.6075610000000324
                },
                {
                    "name": "A#5",
                    "midi": 82,
                    "time": 717.9484620000112,
                    "velocity": 0.6614173228346457,
                    "duration": 2.6075610000000324
                },
                {
                    "name": "G#4",
                    "midi": 68,
                    "time": 720.5560230000112,
                    "velocity": 0.5196850393700787,
                    "duration": 1.7383740000000216
                },
                {
                    "name": "A#4",
                    "midi": 70,
                    "time": 720.5560230000112,
                    "velocity": 0.5196850393700787,
                    "duration": 1.7383740000000216
                },
                {
                    "name": "D5",
                    "midi": 74,
                    "time": 720.5560230000112,
                    "velocity": 0.5196850393700787,
                    "duration": 1.7383740000000216
                },
                {
                    "name": "G5",
                    "midi": 79,
                    "time": 720.5560230000112,
                    "velocity": 0.5196850393700787,
                    "duration": 1.7383740000000216
                },
                {
                    "name": "A#5",
                    "midi": 82,
                    "time": 720.5560230000112,
                    "velocity": 0.6141732283464567,
                    "duration": 1.7383740000000216
                },
                {
                    "name": "G#4",
                    "midi": 68,
                    "time": 722.2943970000113,
                    "velocity": 0.48031496062992124,
                    "duration": 0.8691870000000108
                },
                {
                    "name": "G5",
                    "midi": 79,
                    "time": 722.2943970000113,
                    "velocity": 0.48031496062992124,
                    "duration": 0.8691870000000108
                },
                {
                    "name": "A#5",
                    "midi": 82,
                    "time": 722.2943970000113,
                    "velocity": 0.5748031496062992,
                    "duration": 0.8691870000000108
                },
                {
                    "name": "A#4",
                    "midi": 70,
                    "time": 722.2943970000113,
                    "velocity": 0.48031496062992124,
                    "duration": 0.8691870000000108
                },
                {
                    "name": "D5",
                    "midi": 74,
                    "time": 722.2943970000113,
                    "velocity": 0.48031496062992124,
                    "duration": 0.8691870000000108
                },
                {
                    "name": "G4",
                    "midi": 67,
                    "time": 723.1635840000113,
                    "velocity": 0.5118110236220472,
                    "duration": 0.8691870000000108
                },
                {
                    "name": "D#5",
                    "midi": 75,
                    "time": 723.1635840000113,
                    "velocity": 0.5984251968503937,
                    "duration": 0.8691870000000108
                },
                {
                    "name": "G5",
                    "midi": 79,
                    "time": 725.7711450000113,
                    "velocity": 0.5669291338582677,
                    "duration": 1.7383740000000216
                },
                {
                    "name": "D#6",
                    "midi": 87,
                    "time": 725.7711450000113,
                    "velocity": 0.6771653543307087,
                    "duration": 1.7383740000000216
                },
                {
                    "name": "D#5",
                    "midi": 75,
                    "time": 725.7711450000113,
                    "velocity": 0.5669291338582677,
                    "duration": 1.7383740000000216
                },
                {
                    "name": "D6",
                    "midi": 86,
                    "time": 727.5095190000113,
                    "velocity": 0.6299212598425197,
                    "duration": 0.8691870000000108
                },
                {
                    "name": "A#5",
                    "midi": 82,
                    "time": 727.5095190000113,
                    "velocity": 0.5275590551181102,
                    "duration": 0.8691870000000108
                },
                {
                    "name": "D#5",
                    "midi": 75,
                    "time": 727.5095190000113,
                    "velocity": 0.5275590551181102,
                    "duration": 0.8691870000000108
                },
                {
                    "name": "A#5",
                    "midi": 82,
                    "time": 728.3787060000113,
                    "velocity": 0.5590551181102362,
                    "duration": 2.6075610000000324
                },
                {
                    "name": "D#5",
                    "midi": 75,
                    "time": 728.3787060000113,
                    "velocity": 0.5590551181102362,
                    "duration": 2.6075610000000324
                },
                {
                    "name": "C6",
                    "midi": 84,
                    "time": 728.3787060000113,
                    "velocity": 0.6692913385826772,
                    "duration": 2.6075610000000324
                },
                {
                    "name": "D6",
                    "midi": 86,
                    "time": 730.9862670000114,
                    "velocity": 0.6850393700787402,
                    "duration": 1.7383740000000216
                },
                {
                    "name": "A5",
                    "midi": 81,
                    "time": 730.9862670000114,
                    "velocity": 0.5748031496062992,
                    "duration": 1.7383740000000216
                },
                {
                    "name": "F5",
                    "midi": 77,
                    "time": 730.9862670000114,
                    "velocity": 0.5748031496062992,
                    "duration": 1.7383740000000216
                },
                {
                    "name": "D6",
                    "midi": 86,
                    "time": 732.7246410000114,
                    "velocity": 0.6377952755905512,
                    "duration": 0.8691870000000108
                },
                {
                    "name": "A5",
                    "midi": 81,
                    "time": 732.7246410000114,
                    "velocity": 0.5433070866141733,
                    "duration": 0.8691870000000108
                },
                {
                    "name": "D#5",
                    "midi": 75,
                    "time": 732.7246410000114,
                    "velocity": 0.5433070866141733,
                    "duration": 0.8691870000000108
                },
                {
                    "name": "D5",
                    "midi": 74,
                    "time": 733.5938280000114,
                    "velocity": 0.5118110236220472,
                    "duration": 0.8691870000000108
                },
                {
                    "name": "A#5",
                    "midi": 82,
                    "time": 733.5938280000114,
                    "velocity": 0.6062992125984252,
                    "duration": 0.8691870000000108
                },
                {
                    "name": "A#5",
                    "midi": 82,
                    "time": 736.2013890000114,
                    "velocity": 0.6141732283464567,
                    "duration": 1.7383740000000216
                },
                {
                    "name": "A#6",
                    "midi": 94,
                    "time": 736.2013890000114,
                    "velocity": 0.7401574803149606,
                    "duration": 1.7383740000000216
                },
                {
                    "name": "A#5",
                    "midi": 82,
                    "time": 738.3743565000115,
                    "velocity": 0.5826771653543307,
                    "duration": 0.41648543750000044
                },
                {
                    "name": "A#6",
                    "midi": 94,
                    "time": 738.3743565000115,
                    "velocity": 0.6929133858267716,
                    "duration": 0.41648543750000044
                },
                {
                    "name": "A#5",
                    "midi": 82,
                    "time": 738.8089500000115,
                    "velocity": 0.6141732283464567,
                    "duration": 1.7383740000000216
                },
                {
                    "name": "A#6",
                    "midi": 94,
                    "time": 738.8089500000115,
                    "velocity": 0.7401574803149606,
                    "duration": 1.7383740000000216
                },
                {
                    "name": "C4",
                    "midi": 60,
                    "time": 741.4165110000115,
                    "velocity": 0.5118110236220472,
                    "duration": 0.8691870000000108
                },
                {
                    "name": "C5",
                    "midi": 72,
                    "time": 741.4165110000115,
                    "velocity": 0.6062992125984252,
                    "duration": 1.7383740000000216
                },
                {
                    "name": "D4",
                    "midi": 62,
                    "time": 743.1548850000115,
                    "velocity": 0.48031496062992124,
                    "duration": 0.8691870000000108
                },
                {
                    "name": "D5",
                    "midi": 74,
                    "time": 743.1548850000115,
                    "velocity": 0.5748031496062992,
                    "duration": 0.8691870000000108
                },
                {
                    "name": "D#4",
                    "midi": 63,
                    "time": 744.0240720000115,
                    "velocity": 0.44881889763779526,
                    "duration": 0.651890250000065
                },
                {
                    "name": "D#5",
                    "midi": 75,
                    "time": 744.0240720000115,
                    "velocity": 0.5433070866141733,
                    "duration": 0.16297256250004466
                },
                {
                    "name": "F5",
                    "midi": 77,
                    "time": 744.1870445625116,
                    "velocity": 0.5433070866141733,
                    "duration": 0.16297256250004466
                },
                {
                    "name": "D#5",
                    "midi": 75,
                    "time": 744.3500171250116,
                    "velocity": 0.5433070866141733,
                    "duration": 0.32594512499997563
                },
                {
                    "name": "D4",
                    "midi": 62,
                    "time": 744.6759622500116,
                    "velocity": 0.41732283464566927,
                    "duration": 0.6518902499999513
                },
                {
                    "name": "D5",
                    "midi": 74,
                    "time": 744.6759622500116,
                    "velocity": 0.5039370078740157,
                    "duration": 0.6518902499999513
                },
                {
                    "name": "D#4",
                    "midi": 63,
                    "time": 745.3278525000115,
                    "velocity": 0.41732283464566927,
                    "duration": 0.6518902499999513
                },
                {
                    "name": "D#5",
                    "midi": 75,
                    "time": 745.3278525000115,
                    "velocity": 0.5039370078740157,
                    "duration": 0.6518902499999513
                },
                {
                    "name": "G5",
                    "midi": 79,
                    "time": 745.9797427500115,
                    "velocity": 0.5039370078740157,
                    "duration": 0.6518902499999513
                },
                {
                    "name": "G4",
                    "midi": 67,
                    "time": 745.9797427500115,
                    "velocity": 0.41732283464566927,
                    "duration": 0.6518902499999513
                },
                {
                    "name": "D5",
                    "midi": 74,
                    "time": 745.9797427500115,
                    "velocity": 0.41732283464566927,
                    "duration": 0.6518902499999513
                },
                {
                    "name": "D5",
                    "midi": 74,
                    "time": 746.6316330000114,
                    "velocity": 0.47244094488188976,
                    "duration": 1.7383740000000216
                },
                {
                    "name": "G#4",
                    "midi": 68,
                    "time": 746.6316330000114,
                    "velocity": 0.5196850393700787,
                    "duration": 0.8691870000000108
                },
                {
                    "name": "G5",
                    "midi": 79,
                    "time": 746.6316330000114,
                    "velocity": 0.5669291338582677,
                    "duration": 2.0281029999999873
                },
                {
                    "name": "A#4",
                    "midi": 70,
                    "time": 747.5008200000115,
                    "velocity": 0.5196850393700787,
                    "duration": 0.8691870000000108
                },
                {
                    "name": "G#4",
                    "midi": 68,
                    "time": 748.3700070000115,
                    "velocity": 0.48031496062992124,
                    "duration": 0.8691869999998971
                },
                {
                    "name": "F5",
                    "midi": 77,
                    "time": 748.6597360000114,
                    "velocity": 0.48031496062992124,
                    "duration": 0.2897289999999657
                },
                {
                    "name": "D#5",
                    "midi": 75,
                    "time": 748.9494650000114,
                    "velocity": 0.48031496062992124,
                    "duration": 0.2535128749999558
                },
                {
                    "name": "G4",
                    "midi": 67,
                    "time": 749.2391940000114,
                    "velocity": 0.5354330708661418,
                    "duration": 2.6075610000000324
                },
                {
                    "name": "D#5",
                    "midi": 75,
                    "time": 749.2391940000114,
                    "velocity": 0.5354330708661418,
                    "duration": 2.6075610000000324
                },
                {
                    "name": "G4",
                    "midi": 67,
                    "time": 753.0056710000114,
                    "velocity": 0.48031496062992124,
                    "duration": 0.2897289999999657
                },
                {
                    "name": "G#4",
                    "midi": 68,
                    "time": 753.2954000000113,
                    "velocity": 0.44881889763779526,
                    "duration": 0.2897289999999657
                },
                {
                    "name": "A#4",
                    "midi": 70,
                    "time": 753.5851290000113,
                    "velocity": 0.49606299212598426,
                    "duration": 0.2897289999999657
                },
                {
                    "name": "D5",
                    "midi": 74,
                    "time": 753.8748580000113,
                    "velocity": 0.5354330708661418,
                    "duration": 0.2897289999999657
                },
                {
                    "name": "C5",
                    "midi": 72,
                    "time": 754.1645870000112,
                    "velocity": 0.49606299212598426,
                    "duration": 0.2897289999999657
                },
                {
                    "name": "A#4",
                    "midi": 70,
                    "time": 754.4543160000112,
                    "velocity": 0.5511811023622047,
                    "duration": 2.6075610000000324
                },
                {
                    "name": "G4",
                    "midi": 67,
                    "time": 758.2207930000112,
                    "velocity": 0.44881889763779526,
                    "duration": 0.2897289999999657
                },
                {
                    "name": "G#4",
                    "midi": 68,
                    "time": 758.5105220000112,
                    "velocity": 0.47244094488188976,
                    "duration": 0.2897289999999657
                },
                {
                    "name": "A#4",
                    "midi": 70,
                    "time": 758.8002510000111,
                    "velocity": 0.5118110236220472,
                    "duration": 0.2897289999999657
                },
                {
                    "name": "D5",
                    "midi": 74,
                    "time": 759.0899800000111,
                    "velocity": 0.5354330708661418,
                    "duration": 0.2897289999999657
                },
                {
                    "name": "C5",
                    "midi": 72,
                    "time": 759.3797090000111,
                    "velocity": 0.48031496062992124,
                    "duration": 0.2897289999999657
                },
                {
                    "name": "A#4",
                    "midi": 70,
                    "time": 759.669438000011,
                    "velocity": 0.5511811023622047,
                    "duration": 2.6075610000000324
                },
                {
                    "name": "F4",
                    "midi": 65,
                    "time": 763.435915000011,
                    "velocity": 0.4251968503937008,
                    "duration": 0.2897289999999657
                },
                {
                    "name": "G#4",
                    "midi": 68,
                    "time": 763.725644000011,
                    "velocity": 0.4645669291338583,
                    "duration": 0.2897289999999657
                },
                {
                    "name": "A#4",
                    "midi": 70,
                    "time": 764.015373000011,
                    "velocity": 0.5039370078740157,
                    "duration": 0.2897289999999657
                },
                {
                    "name": "D5",
                    "midi": 74,
                    "time": 764.305102000011,
                    "velocity": 0.5354330708661418,
                    "duration": 0.2897289999999657
                },
                {
                    "name": "C5",
                    "midi": 72,
                    "time": 764.5948310000109,
                    "velocity": 0.49606299212598426,
                    "duration": 0.2897289999999657
                },
                {
                    "name": "A#4",
                    "midi": 70,
                    "time": 764.8845600000109,
                    "velocity": 0.5511811023622047,
                    "duration": 0.8691870000000108
                },
                {
                    "name": "C#4",
                    "midi": 61,
                    "time": 766.0434760000109,
                    "velocity": 0.44881889763779526,
                    "duration": 0.8691869999998971
                },
                {
                    "name": "D#4",
                    "midi": 63,
                    "time": 766.3332050000108,
                    "velocity": 0.4409448818897638,
                    "duration": 0.2897289999999657
                },
                {
                    "name": "G4",
                    "midi": 67,
                    "time": 766.6229340000108,
                    "velocity": 0.47244094488188976,
                    "duration": 0.2897289999999657
                },
                {
                    "name": "C5",
                    "midi": 72,
                    "time": 766.9126630000108,
                    "velocity": 0.5118110236220472,
                    "duration": 0.2897289999999657
                },
                {
                    "name": "A#4",
                    "midi": 70,
                    "time": 767.2023920000107,
                    "velocity": 0.4645669291338583,
                    "duration": 0.2897289999999657
                },
                {
                    "name": "G#4",
                    "midi": 68,
                    "time": 767.4921210000107,
                    "velocity": 0.5118110236220472,
                    "duration": 1.3037805000000162
                },
                {
                    "name": "B3",
                    "midi": 59,
                    "time": 768.7959015000107,
                    "velocity": 0.47244094488188976,
                    "duration": 0.8691870000000108
                },
                {
                    "name": "D#4",
                    "midi": 63,
                    "time": 769.2304950000107,
                    "velocity": 0.4881889763779528,
                    "duration": 0.4345935000000054
                },
                {
                    "name": "F4",
                    "midi": 65,
                    "time": 769.6650885000107,
                    "velocity": 0.44881889763779526,
                    "duration": 0.4345935000000054
                },
                {
                    "name": "G4",
                    "midi": 67,
                    "time": 770.0996820000107,
                    "velocity": 0.5511811023622047,
                    "duration": 0.8691870000000108
                },
                {
                    "name": "G4",
                    "midi": 67,
                    "time": 773.8661590000107,
                    "velocity": 0.48031496062992124,
                    "duration": 0.2897289999999657
                },
                {
                    "name": "G#4",
                    "midi": 68,
                    "time": 774.1558880000107,
                    "velocity": 0.4566929133858268,
                    "duration": 0.2897289999999657
                },
                {
                    "name": "A#4",
                    "midi": 70,
                    "time": 774.4456170000107,
                    "velocity": 0.5039370078740157,
                    "duration": 0.2897289999999657
                },
                {
                    "name": "D5",
                    "midi": 74,
                    "time": 774.7353460000106,
                    "velocity": 0.5354330708661418,
                    "duration": 0.2897289999999657
                },
                {
                    "name": "C5",
                    "midi": 72,
                    "time": 775.0250750000106,
                    "velocity": 0.4566929133858268,
                    "duration": 0.2897289999999657
                },
                {
                    "name": "A#4",
                    "midi": 70,
                    "time": 775.3148040000106,
                    "velocity": 0.5669291338582677,
                    "duration": 0.21729674999994586
                },
                {
                    "name": "A#5",
                    "midi": 82,
                    "time": 775.7493975000104,
                    "velocity": 0.5669291338582677,
                    "duration": 0.21729674999994586
                },
                {
                    "name": "A#6",
                    "midi": 94,
                    "time": 776.1839910000103,
                    "velocity": 0.6850393700787402,
                    "duration": 0.4345935000000054
                },
                {
                    "name": "G4",
                    "midi": 67,
                    "time": 779.0812810000103,
                    "velocity": 0.2992125984251969,
                    "duration": 0.2897289999999657
                },
                {
                    "name": "G#4",
                    "midi": 68,
                    "time": 779.3710100000103,
                    "velocity": 0.33070866141732286,
                    "duration": 0.2897289999999657
                },
                {
                    "name": "A#4",
                    "midi": 70,
                    "time": 779.6607390000103,
                    "velocity": 0.36220472440944884,
                    "duration": 0.2897289999999657
                },
                {
                    "name": "D5",
                    "midi": 74,
                    "time": 779.9504680000102,
                    "velocity": 0.3937007874015748,
                    "duration": 0.2897289999999657
                },
                {
                    "name": "C5",
                    "midi": 72,
                    "time": 780.2401970000102,
                    "velocity": 0.3543307086614173,
                    "duration": 0.2897289999999657
                },
                {
                    "name": "A#4",
                    "midi": 70,
                    "time": 780.5299260000102,
                    "velocity": 0.4409448818897638,
                    "duration": 0.21729674999994586
                },
                {
                    "name": "A#5",
                    "midi": 82,
                    "time": 780.96451950001,
                    "velocity": 0.4409448818897638,
                    "duration": 0.21729674999994586
                },
                {
                    "name": "A#6",
                    "midi": 94,
                    "time": 781.39911300001,
                    "velocity": 0.5275590551181102,
                    "duration": 0.4345935000000054
                },
                {
                    "name": "F4",
                    "midi": 65,
                    "time": 784.29640300001,
                    "velocity": 0.30708661417322836,
                    "duration": 0.2897289999999657
                },
                {
                    "name": "G#4",
                    "midi": 68,
                    "time": 784.5861320000099,
                    "velocity": 0.33070866141732286,
                    "duration": 0.2897289999999657
                },
                {
                    "name": "A#4",
                    "midi": 70,
                    "time": 784.8758610000099,
                    "velocity": 0.3543307086614173,
                    "duration": 0.2897289999999657
                },
                {
                    "name": "D5",
                    "midi": 74,
                    "time": 785.1655900000098,
                    "velocity": 0.3779527559055118,
                    "duration": 0.2897289999999657
                },
                {
                    "name": "C5",
                    "midi": 72,
                    "time": 785.4553190000098,
                    "velocity": 0.3543307086614173,
                    "duration": 0.2897289999999657
                },
                {
                    "name": "A#4",
                    "midi": 70,
                    "time": 785.7450480000098,
                    "velocity": 0.4409448818897638,
                    "duration": 1.1589159999999765
                },
                {
                    "name": "C#4",
                    "midi": 61,
                    "time": 786.9039640000098,
                    "velocity": 0.30708661417322836,
                    "duration": 0.8691869999998971
                },
                {
                    "name": "D#4",
                    "midi": 63,
                    "time": 787.1936930000097,
                    "velocity": 0.33858267716535434,
                    "duration": 0.2897289999999657
                },
                {
                    "name": "G4",
                    "midi": 67,
                    "time": 787.4834220000097,
                    "velocity": 0.36220472440944884,
                    "duration": 0.2897289999999657
                },
                {
                    "name": "C5",
                    "midi": 72,
                    "time": 787.7731510000096,
                    "velocity": 0.3937007874015748,
                    "duration": 0.2897289999999657
                },
                {
                    "name": "A#4",
                    "midi": 70,
                    "time": 788.0628800000096,
                    "velocity": 0.36220472440944884,
                    "duration": 0.2897289999999657
                },
                {
                    "name": "G#4",
                    "midi": 68,
                    "time": 788.3526090000096,
                    "velocity": 0.4015748031496063,
                    "duration": 1.3037805000000162
                },
                {
                    "name": "B3",
                    "midi": 59,
                    "time": 789.6563895000096,
                    "velocity": 0.3858267716535433,
                    "duration": 0.8691870000000108
                },
                {
                    "name": "D#4",
                    "midi": 63,
                    "time": 790.0909830000096,
                    "velocity": 0.4015748031496063,
                    "duration": 0.4345935000000054
                },
                {
                    "name": "F4",
                    "midi": 65,
                    "time": 790.5255765000096,
                    "velocity": 0.36220472440944884,
                    "duration": 0.4345935000000054
                },
                {
                    "name": "G4",
                    "midi": 67,
                    "time": 790.9601700000096,
                    "velocity": 0.4881889763779528,
                    "duration": 3.042154500000038
                },
                {
                    "name": "G4",
                    "midi": 67,
                    "time": 794.0023245000096,
                    "velocity": 0.4015748031496063,
                    "duration": 0.4345935000000054
                },
                {
                    "name": "A#4",
                    "midi": 70,
                    "time": 794.4369180000097,
                    "velocity": 0.4251968503937008,
                    "duration": 0.4345935000000054
                },
                {
                    "name": "G5",
                    "midi": 79,
                    "time": 794.8715115000097,
                    "velocity": 0.4330708661417323,
                    "duration": 0.4345935000000054
                },
                {
                    "name": "F5",
                    "midi": 77,
                    "time": 795.3061050000097,
                    "velocity": 0.47244094488188976,
                    "duration": 0.4345935000000054
                },
                {
                    "name": "D#5",
                    "midi": 75,
                    "time": 795.7406985000097,
                    "velocity": 0.4330708661417323,
                    "duration": 0.4345935000000054
                },
                {
                    "name": "A#4",
                    "midi": 70,
                    "time": 796.1752920000097,
                    "velocity": 0.5196850393700787,
                    "duration": 3.042154500000038
                },
                {
                    "name": "G4",
                    "midi": 67,
                    "time": 799.2174465000097,
                    "velocity": 0.4015748031496063,
                    "duration": 0.4345935000000054
                },
                {
                    "name": "A#4",
                    "midi": 70,
                    "time": 799.6520400000097,
                    "velocity": 0.4251968503937008,
                    "duration": 0.4345935000000054
                },
                {
                    "name": "G5",
                    "midi": 79,
                    "time": 800.0866335000097,
                    "velocity": 0.4330708661417323,
                    "duration": 0.4345935000000054
                },
                {
                    "name": "F5",
                    "midi": 77,
                    "time": 800.5212270000097,
                    "velocity": 0.47244094488188976,
                    "duration": 0.4345935000000054
                },
                {
                    "name": "D#5",
                    "midi": 75,
                    "time": 800.9558205000097,
                    "velocity": 0.4330708661417323,
                    "duration": 0.4345935000000054
                },
                {
                    "name": "D5",
                    "midi": 74,
                    "time": 801.3904140000097,
                    "velocity": 0.5196850393700787,
                    "duration": 3.042154500000038
                },
                {
                    "name": "A#4",
                    "midi": 70,
                    "time": 804.4325685000098,
                    "velocity": 0.4015748031496063,
                    "duration": 0.4345935000000054
                },
                {
                    "name": "D5",
                    "midi": 74,
                    "time": 804.8671620000098,
                    "velocity": 0.4251968503937008,
                    "duration": 0.4345935000000054
                },
                {
                    "name": "A#5",
                    "midi": 82,
                    "time": 805.3017555000098,
                    "velocity": 0.4330708661417323,
                    "duration": 0.4345935000000054
                },
                {
                    "name": "A5",
                    "midi": 81,
                    "time": 805.7363490000098,
                    "velocity": 0.47244094488188976,
                    "duration": 0.4345935000000054
                },
                {
                    "name": "G5",
                    "midi": 79,
                    "time": 806.1709425000098,
                    "velocity": 0.4330708661417323,
                    "duration": 0.4345935000000054
                },
                {
                    "name": "D5",
                    "midi": 74,
                    "time": 806.6055360000098,
                    "velocity": 0.5433070866141733,
                    "duration": 3.042154500000038
                },
                {
                    "name": "A#4",
                    "midi": 70,
                    "time": 809.6476905000098,
                    "velocity": 0.4015748031496063,
                    "duration": 0.4345935000000054
                },
                {
                    "name": "D5",
                    "midi": 74,
                    "time": 810.0822840000098,
                    "velocity": 0.4251968503937008,
                    "duration": 0.4345935000000054
                },
                {
                    "name": "A#5",
                    "midi": 82,
                    "time": 810.5168775000099,
                    "velocity": 0.4330708661417323,
                    "duration": 0.4345935000000054
                },
                {
                    "name": "A5",
                    "midi": 81,
                    "time": 810.9514710000099,
                    "velocity": 0.47244094488188976,
                    "duration": 0.4345935000000054
                },
                {
                    "name": "G5",
                    "midi": 79,
                    "time": 811.3860645000099,
                    "velocity": 0.4330708661417323,
                    "duration": 0.4345935000000054
                },
                {
                    "name": "D5",
                    "midi": 74,
                    "time": 811.8206580000099,
                    "velocity": 0.4645669291338583,
                    "duration": 0.4345935000000054
                },
                {
                    "name": "A#4",
                    "midi": 70,
                    "time": 812.2552515000099,
                    "velocity": 0.4330708661417323,
                    "duration": 0.4345935000000054
                },
                {
                    "name": "D5",
                    "midi": 74,
                    "time": 812.6898450000099,
                    "velocity": 0.4251968503937008,
                    "duration": 0.4345935000000054
                },
                {
                    "name": "A#5",
                    "midi": 82,
                    "time": 813.1244385000099,
                    "velocity": 0.41732283464566927,
                    "duration": 0.4345935000000054
                },
                {
                    "name": "A5",
                    "midi": 81,
                    "time": 813.5590320000099,
                    "velocity": 0.4409448818897638,
                    "duration": 0.4345935000000054
                },
                {
                    "name": "G5",
                    "midi": 79,
                    "time": 813.9936255000099,
                    "velocity": 0.4015748031496063,
                    "duration": 0.4345935000000054
                },
                {
                    "name": "D5",
                    "midi": 74,
                    "time": 814.4282190000099,
                    "velocity": 0.4409448818897638,
                    "duration": 0.4345935000000054
                },
                {
                    "name": "A#4",
                    "midi": 70,
                    "time": 814.8628125000099,
                    "velocity": 0.4015748031496063,
                    "duration": 0.4345935000000054
                },
                {
                    "name": "D5",
                    "midi": 74,
                    "time": 815.2974060000099,
                    "velocity": 0.4015748031496063,
                    "duration": 0.4345935000000054
                },
                {
                    "name": "A#5",
                    "midi": 82,
                    "time": 815.7319995000099,
                    "velocity": 0.4251968503937008,
                    "duration": 0.4345935000000054
                },
                {
                    "name": "A5",
                    "midi": 81,
                    "time": 816.1665930000099,
                    "velocity": 0.3937007874015748,
                    "duration": 0.4345935000000054
                },
                {
                    "name": "G5",
                    "midi": 79,
                    "time": 816.6011865000099,
                    "velocity": 0.3858267716535433,
                    "duration": 0.4345935000000054
                },
                {
                    "name": "D5",
                    "midi": 74,
                    "time": 817.0357800000099,
                    "velocity": 0.3779527559055118,
                    "duration": 0.4345935000000054
                },
                {
                    "name": "A5",
                    "midi": 81,
                    "time": 817.4703735000099,
                    "velocity": 0.3543307086614173,
                    "duration": 0.4345935000000054
                },
                {
                    "name": "C6",
                    "midi": 84,
                    "time": 817.90496700001,
                    "velocity": 0.4094488188976378,
                    "duration": 0.4345935000000054
                },
                {
                    "name": "A#5",
                    "midi": 82,
                    "time": 818.33956050001,
                    "velocity": 0.3700787401574803,
                    "duration": 0.4345935000000054
                },
                {
                    "name": "G5",
                    "midi": 79,
                    "time": 818.77415400001,
                    "velocity": 0.3937007874015748,
                    "duration": 0.4345935000000054
                },
                {
                    "name": "D#5",
                    "midi": 75,
                    "time": 819.20874750001,
                    "velocity": 0.36220472440944884,
                    "duration": 0.4345935000000054
                },
                {
                    "name": "A#4",
                    "midi": 70,
                    "time": 819.64334100001,
                    "velocity": 0.3543307086614173,
                    "duration": 0.4345935000000054
                },
                {
                    "name": "G4",
                    "midi": 67,
                    "time": 820.07793450001,
                    "velocity": 0.3543307086614173,
                    "duration": 0.4345935000000054
                },
                {
                    "name": "C4",
                    "midi": 60,
                    "time": 820.51252800001,
                    "velocity": 0.33858267716535434,
                    "duration": 0.4345935000000054
                },
                {
                    "name": "D4",
                    "midi": 62,
                    "time": 820.94712150001,
                    "velocity": 0.33070866141732286,
                    "duration": 0.4345935000000054
                },
                {
                    "name": "F4",
                    "midi": 65,
                    "time": 821.38171500001,
                    "velocity": 0.3228346456692913,
                    "duration": 0.4345935000000054
                },
                {
                    "name": "D#4",
                    "midi": 63,
                    "time": 821.81630850001,
                    "velocity": 0.30708661417322836,
                    "duration": 0.4345935000000054
                },
                {
                    "name": "C4",
                    "midi": 60,
                    "time": 825.29305650001,
                    "velocity": 0.2992125984251969,
                    "duration": 2.172967500000027
                },
                {
                    "name": "D4",
                    "midi": 62,
                    "time": 825.72765000001,
                    "velocity": 0.29133858267716534,
                    "duration": 1.7383740000000216
                },
                {
                    "name": "F#4",
                    "midi": 66,
                    "time": 826.16224350001,
                    "velocity": 0.29133858267716534,
                    "duration": 0.4345935000000054
                },
                {
                    "name": "A#4",
                    "midi": 70,
                    "time": 826.59683700001,
                    "velocity": 0.3228346456692913,
                    "duration": 0.4345935000000054
                },
                {
                    "name": "A4",
                    "midi": 69,
                    "time": 827.0314305000101,
                    "velocity": 0.30708661417322836,
                    "duration": 0.4345935000000054
                },
                {
                    "name": "G4",
                    "midi": 67,
                    "time": 827.4660240000101,
                    "velocity": 0.29133858267716534,
                    "duration": 2.6075610000000324
                },
                {
                    "name": "D4",
                    "midi": 62,
                    "time": 828.3352110000101,
                    "velocity": 0.2204724409448819,
                    "duration": 0.8601329687500083
                },
                {
                    "name": "A#3",
                    "midi": 58,
                    "time": 828.3352110000101,
                    "velocity": 0.18110236220472442,
                    "duration": 0.8601329687500083
                },
                {
                    "name": "A#3",
                    "midi": 58,
                    "time": 829.2043980000101,
                    "velocity": 0.18110236220472442,
                    "duration": 0.8601329687500083
                },
                {
                    "name": "D4",
                    "midi": 62,
                    "time": 829.2043980000101,
                    "velocity": 0.2204724409448819,
                    "duration": 0.8601329687500083
                },
                {
                    "name": "D5",
                    "midi": 74,
                    "time": 830.0735850000101,
                    "velocity": 0.3228346456692913,
                    "duration": 2.6075610000000324
                },
                {
                    "name": "G4",
                    "midi": 67,
                    "time": 830.9427720000101,
                    "velocity": 0.2204724409448819,
                    "duration": 0.8601329687500083
                },
                {
                    "name": "G4",
                    "midi": 67,
                    "time": 831.8119590000101,
                    "velocity": 0.2204724409448819,
                    "duration": 0.8601329687500083
                },
                {
                    "name": "C5",
                    "midi": 72,
                    "time": 832.6811460000101,
                    "velocity": 0.30708661417322836,
                    "duration": 2.6075610000000324
                },
                {
                    "name": "G4",
                    "midi": 67,
                    "time": 833.5503330000101,
                    "velocity": 0.2204724409448819,
                    "duration": 0.8601329687500083
                },
                {
                    "name": "D#4",
                    "midi": 63,
                    "time": 833.5503330000101,
                    "velocity": 0.18110236220472442,
                    "duration": 0.8601329687500083
                },
                {
                    "name": "G4",
                    "midi": 67,
                    "time": 834.4195200000102,
                    "velocity": 0.2204724409448819,
                    "duration": 0.8601329687500083
                },
                {
                    "name": "D#4",
                    "midi": 63,
                    "time": 834.4195200000102,
                    "velocity": 0.18110236220472442,
                    "duration": 0.8601329687500083
                },
                {
                    "name": "C4",
                    "midi": 60,
                    "time": 835.7233005000102,
                    "velocity": 0.31496062992125984,
                    "duration": 2.172967500000027
                },
                {
                    "name": "D4",
                    "midi": 62,
                    "time": 836.1578940000102,
                    "velocity": 0.29133858267716534,
                    "duration": 1.7383740000000216
                },
                {
                    "name": "F#4",
                    "midi": 66,
                    "time": 836.5924875000102,
                    "velocity": 0.29133858267716534,
                    "duration": 0.4345935000000054
                },
                {
                    "name": "A#4",
                    "midi": 70,
                    "time": 837.0270810000102,
                    "velocity": 0.3228346456692913,
                    "duration": 0.4345935000000054
                },
                {
                    "name": "A4",
                    "midi": 69,
                    "time": 837.4616745000102,
                    "velocity": 0.30708661417322836,
                    "duration": 0.4345935000000054
                },
                {
                    "name": "G4",
                    "midi": 67,
                    "time": 837.8962680000102,
                    "velocity": 0.29133858267716534,
                    "duration": 2.6075610000000324
                },
                {
                    "name": "D4",
                    "midi": 62,
                    "time": 838.7654550000102,
                    "velocity": 0.2204724409448819,
                    "duration": 0.8601329687500083
                },
                {
                    "name": "A#3",
                    "midi": 58,
                    "time": 838.7654550000102,
                    "velocity": 0.18110236220472442,
                    "duration": 0.8601329687500083
                },
                {
                    "name": "A#3",
                    "midi": 58,
                    "time": 839.6346420000102,
                    "velocity": 0.18110236220472442,
                    "duration": 0.8601329687500083
                },
                {
                    "name": "D4",
                    "midi": 62,
                    "time": 839.6346420000102,
                    "velocity": 0.2204724409448819,
                    "duration": 0.8601329687500083
                },
                {
                    "name": "E4",
                    "midi": 64,
                    "time": 840.5038290000102,
                    "velocity": 0.29133858267716534,
                    "duration": 2.6075610000000324
                },
                {
                    "name": "A3",
                    "midi": 57,
                    "time": 841.3730160000102,
                    "velocity": 0.18110236220472442,
                    "duration": 0.8601329687500083
                },
                {
                    "name": "G3",
                    "midi": 55,
                    "time": 841.3730160000102,
                    "velocity": 0.18110236220472442,
                    "duration": 0.8601329687500083
                },
                {
                    "name": "C#4",
                    "midi": 61,
                    "time": 841.3730160000102,
                    "velocity": 0.2204724409448819,
                    "duration": 0.8601329687500083
                },
                {
                    "name": "A3",
                    "midi": 57,
                    "time": 842.2422030000102,
                    "velocity": 0.18110236220472442,
                    "duration": 0.8601329687500083
                },
                {
                    "name": "C#4",
                    "midi": 61,
                    "time": 842.2422030000102,
                    "velocity": 0.2204724409448819,
                    "duration": 0.8601329687500083
                },
                {
                    "name": "G3",
                    "midi": 55,
                    "time": 842.2422030000102,
                    "velocity": 0.18110236220472442,
                    "duration": 0.8601329687500083
                },
                {
                    "name": "F#4",
                    "midi": 66,
                    "time": 843.1113900000103,
                    "velocity": 0.29133858267716534,
                    "duration": 2.6075610000000324
                },
                {
                    "name": "D4",
                    "midi": 62,
                    "time": 843.9805770000103,
                    "velocity": 0.18110236220472442,
                    "duration": 0.8601329687500083
                },
                {
                    "name": "A3",
                    "midi": 57,
                    "time": 843.9805770000103,
                    "velocity": 0.14960629921259844,
                    "duration": 0.8601329687500083
                },
                {
                    "name": "F#3",
                    "midi": 54,
                    "time": 843.9805770000103,
                    "velocity": 0.14960629921259844,
                    "duration": 0.8601329687500083
                },
                {
                    "name": "F#3",
                    "midi": 54,
                    "time": 844.8497640000103,
                    "velocity": 0.14960629921259844,
                    "duration": 0.8601329687500083
                },
                {
                    "name": "A3",
                    "midi": 57,
                    "time": 844.8497640000103,
                    "velocity": 0.14960629921259844,
                    "duration": 0.8601329687500083
                },
                {
                    "name": "D4",
                    "midi": 62,
                    "time": 844.8497640000103,
                    "velocity": 0.18110236220472442,
                    "duration": 0.8601329687500083
                },
                {
                    "name": "C4",
                    "midi": 60,
                    "time": 846.1535445000103,
                    "velocity": 0.31496062992125984,
                    "duration": 2.172967500000027
                },
                {
                    "name": "D4",
                    "midi": 62,
                    "time": 846.5881380000103,
                    "velocity": 0.29133858267716534,
                    "duration": 1.7383740000000216
                },
                {
                    "name": "F#4",
                    "midi": 66,
                    "time": 847.0227315000103,
                    "velocity": 0.29133858267716534,
                    "duration": 0.4345935000000054
                },
                {
                    "name": "A#4",
                    "midi": 70,
                    "time": 847.4573250000103,
                    "velocity": 0.3228346456692913,
                    "duration": 0.4345935000000054
                },
                {
                    "name": "A4",
                    "midi": 69,
                    "time": 847.8919185000103,
                    "velocity": 0.30708661417322836,
                    "duration": 0.4345935000000054
                },
                {
                    "name": "G4",
                    "midi": 67,
                    "time": 848.3265120000103,
                    "velocity": 0.29133858267716534,
                    "duration": 2.6075610000000324
                },
                {
                    "name": "A#3",
                    "midi": 58,
                    "time": 849.1956990000103,
                    "velocity": 0.18110236220472442,
                    "duration": 0.8601329687500083
                },
                {
                    "name": "D4",
                    "midi": 62,
                    "time": 849.1956990000103,
                    "velocity": 0.2204724409448819,
                    "duration": 0.8601329687500083
                },
                {
                    "name": "A#3",
                    "midi": 58,
                    "time": 850.0648860000103,
                    "velocity": 0.18110236220472442,
                    "duration": 0.8601329687500083
                },
                {
                    "name": "D4",
                    "midi": 62,
                    "time": 850.0648860000103,
                    "velocity": 0.2204724409448819,
                    "duration": 0.8601329687500083
                },
                {
                    "name": "D5",
                    "midi": 74,
                    "time": 850.9340730000104,
                    "velocity": 0.4566929133858268,
                    "duration": 2.6075610000000324
                },
                {
                    "name": "G4",
                    "midi": 67,
                    "time": 851.8032600000104,
                    "velocity": 0.2283464566929134,
                    "duration": 0.8601329687500083
                },
                {
                    "name": "A#4",
                    "midi": 70,
                    "time": 851.8032600000104,
                    "velocity": 0.28346456692913385,
                    "duration": 0.8601329687500083
                },
                {
                    "name": "G4",
                    "midi": 67,
                    "time": 852.6724470000104,
                    "velocity": 0.2283464566929134,
                    "duration": 0.8601329687500083
                },
                {
                    "name": "A#4",
                    "midi": 70,
                    "time": 852.6724470000104,
                    "velocity": 0.28346456692913385,
                    "duration": 0.8601329687500083
                },
                {
                    "name": "E5",
                    "midi": 76,
                    "time": 853.5416340000104,
                    "velocity": 0.4645669291338583,
                    "duration": 2.6075610000000324
                },
                {
                    "name": "G4",
                    "midi": 67,
                    "time": 854.4108210000104,
                    "velocity": 0.2283464566929134,
                    "duration": 0.8601329687500083
                },
                {
                    "name": "A#4",
                    "midi": 70,
                    "time": 854.4108210000104,
                    "velocity": 0.28346456692913385,
                    "duration": 0.8601329687500083
                },
                {
                    "name": "G4",
                    "midi": 67,
                    "time": 855.2800080000104,
                    "velocity": 0.2283464566929134,
                    "duration": 0.8601329687500083
                },
                {
                    "name": "A#4",
                    "midi": 70,
                    "time": 855.2800080000104,
                    "velocity": 0.28346456692913385,
                    "duration": 0.8601329687500083
                },
                {
                    "name": "A#3",
                    "midi": 58,
                    "time": 856.5837885000104,
                    "velocity": 0.31496062992125984,
                    "duration": 2.172967500000027
                },
                {
                    "name": "C#4",
                    "midi": 61,
                    "time": 857.0183820000104,
                    "velocity": 0.29133858267716534,
                    "duration": 1.7383740000000216
                },
                {
                    "name": "E4",
                    "midi": 64,
                    "time": 857.4529755000104,
                    "velocity": 0.29133858267716534,
                    "duration": 0.4345935000000054
                },
                {
                    "name": "A4",
                    "midi": 69,
                    "time": 857.8875690000104,
                    "velocity": 0.3228346456692913,
                    "duration": 0.4345935000000054
                },
                {
                    "name": "G4",
                    "midi": 67,
                    "time": 858.3221625000104,
                    "velocity": 0.30708661417322836,
                    "duration": 0.4345935000000054
                },
                {
                    "name": "G4",
                    "midi": 67,
                    "time": 858.7567560000105,
                    "velocity": 0.29133858267716534,
                    "duration": 2.6075610000000324
                },
                {
                    "name": "C#4",
                    "midi": 61,
                    "time": 859.6259430000105,
                    "velocity": 0.2125984251968504,
                    "duration": 0.8601329687500083
                },
                {
                    "name": "A#3",
                    "midi": 58,
                    "time": 859.6259430000105,
                    "velocity": 0.2125984251968504,
                    "duration": 0.8601329687500083
                },
                {
                    "name": "E4",
                    "midi": 64,
                    "time": 859.6259430000105,
                    "velocity": 0.25984251968503935,
                    "duration": 0.8601329687500083
                },
                {
                    "name": "A#3",
                    "midi": 58,
                    "time": 860.4951300000105,
                    "velocity": 0.2125984251968504,
                    "duration": 0.8601329687500083
                },
                {
                    "name": "E4",
                    "midi": 64,
                    "time": 860.4951300000105,
                    "velocity": 0.25984251968503935,
                    "duration": 0.8601329687500083
                },
                {
                    "name": "C#4",
                    "midi": 61,
                    "time": 860.4951300000105,
                    "velocity": 0.2125984251968504,
                    "duration": 0.8601329687500083
                },
                {
                    "name": "E5",
                    "midi": 76,
                    "time": 861.3643170000105,
                    "velocity": 0.4881889763779528,
                    "duration": 2.6075610000000324
                },
                {
                    "name": "C#5",
                    "midi": 73,
                    "time": 862.2335040000105,
                    "velocity": 0.30708661417322836,
                    "duration": 0.8601329687500083
                },
                {
                    "name": "A#4",
                    "midi": 70,
                    "time": 862.2335040000105,
                    "velocity": 0.25196850393700787,
                    "duration": 0.8601329687500083
                },
                {
                    "name": "G4",
                    "midi": 67,
                    "time": 862.2335040000105,
                    "velocity": 0.25196850393700787,
                    "duration": 0.8601329687500083
                },
                {
                    "name": "C#5",
                    "midi": 73,
                    "time": 863.1026910000105,
                    "velocity": 0.3228346456692913,
                    "duration": 0.8601329687500083
                },
                {
                    "name": "A#4",
                    "midi": 70,
                    "time": 863.1026910000105,
                    "velocity": 0.25196850393700787,
                    "duration": 0.8601329687500083
                },
                {
                    "name": "G4",
                    "midi": 67,
                    "time": 863.1026910000105,
                    "velocity": 0.25196850393700787,
                    "duration": 0.8601329687500083
                },
                {
                    "name": "F#5",
                    "midi": 78,
                    "time": 863.9718780000105,
                    "velocity": 0.5039370078740157,
                    "duration": 2.6075610000000324
                },
                {
                    "name": "G4",
                    "midi": 67,
                    "time": 864.8410650000105,
                    "velocity": 0.2755905511811024,
                    "duration": 0.8601329687500083
                },
                {
                    "name": "A#4",
                    "midi": 70,
                    "time": 864.8410650000105,
                    "velocity": 0.2755905511811024,
                    "duration": 0.8601329687500083
                },
                {
                    "name": "C#5",
                    "midi": 73,
                    "time": 864.8410650000105,
                    "velocity": 0.3228346456692913,
                    "duration": 0.8601329687500083
                },
                {
                    "name": "G4",
                    "midi": 67,
                    "time": 865.7102520000105,
                    "velocity": 0.2755905511811024,
                    "duration": 0.8601329687500083
                },
                {
                    "name": "A#4",
                    "midi": 70,
                    "time": 865.7102520000105,
                    "velocity": 0.2755905511811024,
                    "duration": 0.8601329687500083
                },
                {
                    "name": "C#5",
                    "midi": 73,
                    "time": 865.7102520000105,
                    "velocity": 0.33858267716535434,
                    "duration": 0.8601329687500083
                },
                {
                    "name": "E5",
                    "midi": 76,
                    "time": 866.5794390000106,
                    "velocity": 0.49606299212598426,
                    "duration": 1.7383740000000216
                },
                {
                    "name": "C#5",
                    "midi": 73,
                    "time": 867.4486260000106,
                    "velocity": 0.3464566929133858,
                    "duration": 0.8601329687500083
                },
                {
                    "name": "A#4",
                    "midi": 70,
                    "time": 867.4486260000106,
                    "velocity": 0.28346456692913385,
                    "duration": 0.8601329687500083
                },
                {
                    "name": "G4",
                    "midi": 67,
                    "time": 867.4486260000106,
                    "velocity": 0.28346456692913385,
                    "duration": 0.8601329687500083
                },
                {
                    "name": "F#5",
                    "midi": 78,
                    "time": 868.7524065000106,
                    "velocity": 0.5275590551181102,
                    "duration": 0.3983773749999955
                },
                {
                    "name": "F#5",
                    "midi": 78,
                    "time": 869.1870000000106,
                    "velocity": 0.5275590551181102,
                    "duration": 2.6075610000000324
                },
                {
                    "name": "C#5",
                    "midi": 73,
                    "time": 870.0561870000106,
                    "velocity": 0.3700787401574803,
                    "duration": 0.8601329687500083
                },
                {
                    "name": "G4",
                    "midi": 67,
                    "time": 870.0561870000106,
                    "velocity": 0.29133858267716534,
                    "duration": 0.8601329687500083
                },
                {
                    "name": "A#4",
                    "midi": 70,
                    "time": 870.0561870000106,
                    "velocity": 0.29133858267716534,
                    "duration": 0.8601329687500083
                },
                {
                    "name": "A#4",
                    "midi": 70,
                    "time": 870.9253740000106,
                    "velocity": 0.29133858267716534,
                    "duration": 0.8601329687500083
                },
                {
                    "name": "G4",
                    "midi": 67,
                    "time": 870.9253740000106,
                    "velocity": 0.29133858267716534,
                    "duration": 0.8601329687500083
                },
                {
                    "name": "C#5",
                    "midi": 73,
                    "time": 870.9253740000106,
                    "velocity": 0.3700787401574803,
                    "duration": 0.8601329687500083
                },
                {
                    "name": "E5",
                    "midi": 76,
                    "time": 871.7945610000106,
                    "velocity": 0.5748031496062992,
                    "duration": 1.7383740000000216
                },
                {
                    "name": "G4",
                    "midi": 67,
                    "time": 872.6637480000106,
                    "velocity": 0.31496062992125984,
                    "duration": 0.8691870000000108
                },
                {
                    "name": "A#4",
                    "midi": 70,
                    "time": 872.6637480000106,
                    "velocity": 0.31496062992125984,
                    "duration": 0.8691870000000108
                },
                {
                    "name": "C#5",
                    "midi": 73,
                    "time": 872.6637480000106,
                    "velocity": 0.3937007874015748,
                    "duration": 0.8691870000000108
                },
                {
                    "name": "F#5",
                    "midi": 78,
                    "time": 873.9675285000106,
                    "velocity": 0.5748031496062992,
                    "duration": 0.3983773749999955
                },
                {
                    "name": "F#5",
                    "midi": 78,
                    "time": 874.4021220000106,
                    "velocity": 0.5748031496062992,
                    "duration": 2.6075610000000324
                },
                {
                    "name": "C#5",
                    "midi": 73,
                    "time": 875.2713090000107,
                    "velocity": 0.4094488188976378,
                    "duration": 0.8601329687500083
                },
                {
                    "name": "A#4",
                    "midi": 70,
                    "time": 875.2713090000107,
                    "velocity": 0.3228346456692913,
                    "duration": 0.8601329687500083
                },
                {
                    "name": "G4",
                    "midi": 67,
                    "time": 875.2713090000107,
                    "velocity": 0.3228346456692913,
                    "duration": 0.8601329687500083
                },
                {
                    "name": "A#4",
                    "midi": 70,
                    "time": 876.1404960000107,
                    "velocity": 0.33858267716535434,
                    "duration": 0.8601329687500083
                },
                {
                    "name": "G4",
                    "midi": 67,
                    "time": 876.1404960000107,
                    "velocity": 0.33858267716535434,
                    "duration": 0.8601329687500083
                },
                {
                    "name": "C#5",
                    "midi": 73,
                    "time": 876.1404960000107,
                    "velocity": 0.4094488188976378,
                    "duration": 0.8601329687500083
                },
                {
                    "name": "E5",
                    "midi": 76,
                    "time": 877.0096830000107,
                    "velocity": 0.5905511811023622,
                    "duration": 1.7383740000000216
                },
                {
                    "name": "G4",
                    "midi": 67,
                    "time": 877.8788700000107,
                    "velocity": 0.3700787401574803,
                    "duration": 0.8691870000000108
                },
                {
                    "name": "A#4",
                    "midi": 70,
                    "time": 877.8788700000107,
                    "velocity": 0.3700787401574803,
                    "duration": 0.8691870000000108
                },
                {
                    "name": "C#5",
                    "midi": 73,
                    "time": 877.8788700000107,
                    "velocity": 0.4645669291338583,
                    "duration": 0.8691870000000108
                },
                {
                    "name": "F#5",
                    "midi": 78,
                    "time": 879.1826505000107,
                    "velocity": 0.6062992125984252,
                    "duration": 0.4345935000000054
                },
                {
                    "name": "A5",
                    "midi": 81,
                    "time": 879.6172440000107,
                    "velocity": 0.6299212598425197,
                    "duration": 2.6075610000000324
                },
                {
                    "name": "C#5",
                    "midi": 73,
                    "time": 880.4864310000107,
                    "velocity": 0.4566929133858268,
                    "duration": 0.8601329687500083
                },
                {
                    "name": "A#4",
                    "midi": 70,
                    "time": 880.4864310000107,
                    "velocity": 0.4566929133858268,
                    "duration": 0.8601329687500083
                },
                {
                    "name": "E5",
                    "midi": 76,
                    "time": 880.4864310000107,
                    "velocity": 0.5669291338582677,
                    "duration": 0.8601329687500083
                },
                {
                    "name": "E5",
                    "midi": 76,
                    "time": 881.3556180000107,
                    "velocity": 0.5748031496062992,
                    "duration": 0.8601329687500083
                },
                {
                    "name": "C#5",
                    "midi": 73,
                    "time": 881.3556180000107,
                    "velocity": 0.4566929133858268,
                    "duration": 0.8601329687500083
                },
                {
                    "name": "A#4",
                    "midi": 70,
                    "time": 881.3556180000107,
                    "velocity": 0.4566929133858268,
                    "duration": 0.8601329687500083
                },
                {
                    "name": "G5",
                    "midi": 79,
                    "time": 882.2248050000107,
                    "velocity": 0.6692913385826772,
                    "duration": 1.7383740000000216
                },
                {
                    "name": "A#4",
                    "midi": 70,
                    "time": 883.0939920000108,
                    "velocity": 0.4881889763779528,
                    "duration": 0.8691870000000108
                },
                {
                    "name": "E5",
                    "midi": 76,
                    "time": 883.0939920000108,
                    "velocity": 0.6220472440944882,
                    "duration": 0.8691870000000108
                },
                {
                    "name": "C#5",
                    "midi": 73,
                    "time": 883.0939920000108,
                    "velocity": 0.4881889763779528,
                    "duration": 0.8691870000000108
                },
                {
                    "name": "A5",
                    "midi": 81,
                    "time": 883.9631790000108,
                    "velocity": 0.7322834645669292,
                    "duration": 0.8691870000000108
                },
                {
                    "name": "D5",
                    "midi": 74,
                    "time": 884.8323660000108,
                    "velocity": 0.6771653543307087,
                    "duration": 0.8691870000000108
                },
                {
                    "name": "A#4",
                    "midi": 70,
                    "time": 884.8323660000108,
                    "velocity": 0.6771653543307087,
                    "duration": 0.8691870000000108
                },
                {
                    "name": "A#5",
                    "midi": 82,
                    "time": 884.8323660000108,
                    "velocity": 0.7952755905511811,
                    "duration": 0.8691870000000108
                },
                {
                    "name": "D6",
                    "midi": 86,
                    "time": 886.1361465000108,
                    "velocity": 0.6299212598425197,
                    "duration": 0.3983773749999955
                },
                {
                    "name": "A#6",
                    "midi": 94,
                    "time": 886.1361465000108,
                    "velocity": 0.7480314960629921,
                    "duration": 0.3983773749999955
                },
                {
                    "name": "C7",
                    "midi": 96,
                    "time": 886.5707400000108,
                    "velocity": 0.7952755905511811,
                    "duration": 0.3983773749999955
                },
                {
                    "name": "D#6",
                    "midi": 87,
                    "time": 886.5707400000108,
                    "velocity": 0.6771653543307087,
                    "duration": 0.3983773749999955
                },
                {
                    "name": "D6",
                    "midi": 86,
                    "time": 887.0053335000108,
                    "velocity": 0.6299212598425197,
                    "duration": 0.3983773749999955
                },
                {
                    "name": "A#6",
                    "midi": 94,
                    "time": 887.0053335000108,
                    "velocity": 0.7480314960629921,
                    "duration": 0.3983773749999955
                },
                {
                    "name": "A6",
                    "midi": 93,
                    "time": 887.4399270000108,
                    "velocity": 0.7637795275590551,
                    "duration": 0.3983773749999955
                },
                {
                    "name": "C6",
                    "midi": 84,
                    "time": 887.4399270000108,
                    "velocity": 0.6456692913385826,
                    "duration": 0.3983773749999955
                },
                {
                    "name": "A#5",
                    "midi": 82,
                    "time": 887.8745205000108,
                    "velocity": 0.6299212598425197,
                    "duration": 0.3983773749999955
                },
                {
                    "name": "G6",
                    "midi": 91,
                    "time": 887.8745205000108,
                    "velocity": 0.7480314960629921,
                    "duration": 0.3983773749999955
                },
                {
                    "name": "A5",
                    "midi": 81,
                    "time": 888.3091140000108,
                    "velocity": 0.6299212598425197,
                    "duration": 0.3983773749999955
                },
                {
                    "name": "F#6",
                    "midi": 90,
                    "time": 888.3091140000108,
                    "velocity": 0.7401574803149606,
                    "duration": 0.3983773749999955
                },
                {
                    "name": "A#5",
                    "midi": 82,
                    "time": 888.7437075000108,
                    "velocity": 0.6220472440944882,
                    "duration": 0.3983773749999955
                },
                {
                    "name": "G6",
                    "midi": 91,
                    "time": 888.7437075000108,
                    "velocity": 0.7322834645669292,
                    "duration": 0.3983773749999955
                },
                {
                    "name": "F6",
                    "midi": 89,
                    "time": 889.1783010000108,
                    "velocity": 0.7322834645669292,
                    "duration": 0.3983773749999955
                },
                {
                    "name": "A5",
                    "midi": 81,
                    "time": 889.1783010000108,
                    "velocity": 0.6220472440944882,
                    "duration": 0.3983773749999955
                },
                {
                    "name": "D#6",
                    "midi": 87,
                    "time": 889.8301912500108,
                    "velocity": 0.7244094488188977,
                    "duration": 0.16297256250004466
                },
                {
                    "name": "G5",
                    "midi": 79,
                    "time": 889.8301912500108,
                    "velocity": 0.6141732283464567,
                    "duration": 0.16297256250004466
                },
                {
                    "name": "D#6",
                    "midi": 87,
                    "time": 890.0474880000108,
                    "velocity": 0.7165354330708661,
                    "duration": 0.3983773749999955
                },
                {
                    "name": "G5",
                    "midi": 79,
                    "time": 890.0474880000108,
                    "velocity": 0.6062992125984252,
                    "duration": 0.3983773749999955
                },
                {
                    "name": "D6",
                    "midi": 86,
                    "time": 890.4820815000108,
                    "velocity": 0.7086614173228346,
                    "duration": 0.3983773749999955
                },
                {
                    "name": "F#5",
                    "midi": 78,
                    "time": 890.4820815000108,
                    "velocity": 0.5905511811023622,
                    "duration": 0.3983773749999955
                },
                {
                    "name": "C6",
                    "midi": 84,
                    "time": 890.9166750000109,
                    "velocity": 0.7007874015748031,
                    "duration": 0.3983773749999955
                },
                {
                    "name": "D#5",
                    "midi": 75,
                    "time": 890.9166750000109,
                    "velocity": 0.5826771653543307,
                    "duration": 0.3983773749999955
                },
                {
                    "name": "D5",
                    "midi": 74,
                    "time": 891.3512685000109,
                    "velocity": 0.5748031496062992,
                    "duration": 0.3983773749999955
                },
                {
                    "name": "A#5",
                    "midi": 82,
                    "time": 891.3512685000109,
                    "velocity": 0.6771653543307087,
                    "duration": 0.3983773749999955
                },
                {
                    "name": "A5",
                    "midi": 81,
                    "time": 891.7858620000109,
                    "velocity": 0.6692913385826772,
                    "duration": 0.3983773749999955
                },
                {
                    "name": "C5",
                    "midi": 72,
                    "time": 891.7858620000109,
                    "velocity": 0.5669291338582677,
                    "duration": 0.3983773749999955
                },
                {
                    "name": "G5",
                    "midi": 79,
                    "time": 892.2204555000109,
                    "velocity": 0.6535433070866141,
                    "duration": 0.3983773749999955
                },
                {
                    "name": "A#4",
                    "midi": 70,
                    "time": 892.2204555000109,
                    "velocity": 0.5511811023622047,
                    "duration": 0.3983773749999955
                },
                {
                    "name": "A4",
                    "midi": 69,
                    "time": 892.6550490000109,
                    "velocity": 0.5669291338582677,
                    "duration": 0.2535128749999558
                },
                {
                    "name": "F#5",
                    "midi": 78,
                    "time": 892.6550490000109,
                    "velocity": 0.6692913385826772,
                    "duration": 0.2535128749999558
                },
                {
                    "name": "D#5",
                    "midi": 75,
                    "time": 892.9447780000108,
                    "velocity": 0.6692913385826772,
                    "duration": 0.2535128749999558
                },
                {
                    "name": "C5",
                    "midi": 72,
                    "time": 892.9447780000108,
                    "velocity": 0.5669291338582677,
                    "duration": 0.2535128749999558
                },
                {
                    "name": "D5",
                    "midi": 74,
                    "time": 893.2345070000108,
                    "velocity": 0.6771653543307087,
                    "duration": 0.2535128749999558
                },
                {
                    "name": "C5",
                    "midi": 72,
                    "time": 893.2345070000108,
                    "velocity": 0.5748031496062992,
                    "duration": 0.2535128749999558
                },
                {
                    "name": "D5",
                    "midi": 74,
                    "time": 893.5242360000108,
                    "velocity": 0.6929133858267716,
                    "duration": 0.16297256250004466
                },
                {
                    "name": "B4",
                    "midi": 71,
                    "time": 893.5242360000108,
                    "velocity": 0.5826771653543307,
                    "duration": 0.16297256250004466
                },
                {
                    "name": "D5",
                    "midi": 74,
                    "time": 893.6980734000108,
                    "velocity": 0.6929133858267716,
                    "duration": 0.16297256250004466
                },
                {
                    "name": "A#4",
                    "midi": 70,
                    "time": 893.6980734000108,
                    "velocity": 0.5826771653543307,
                    "duration": 0.16297256250004466
                },
                {
                    "name": "D5",
                    "midi": 74,
                    "time": 893.8719108000108,
                    "velocity": 0.6929133858267716,
                    "duration": 0.16297256250004466
                },
                {
                    "name": "A4",
                    "midi": 69,
                    "time": 893.8719108000108,
                    "velocity": 0.5826771653543307,
                    "duration": 0.16297256250004466
                },
                {
                    "name": "D5",
                    "midi": 74,
                    "time": 894.0457482000108,
                    "velocity": 0.7007874015748031,
                    "duration": 0.16297256250004466
                },
                {
                    "name": "G#4",
                    "midi": 68,
                    "time": 894.0457482000108,
                    "velocity": 0.5826771653543307,
                    "duration": 0.16297256250004466
                },
                {
                    "name": "A4",
                    "midi": 69,
                    "time": 894.2195856000109,
                    "velocity": 0.5826771653543307,
                    "duration": 0.16297256250004466
                },
                {
                    "name": "D5",
                    "midi": 74,
                    "time": 894.2195856000109,
                    "velocity": 0.7007874015748031,
                    "duration": 0.16297256250004466
                },
                {
                    "name": "A#4",
                    "midi": 70,
                    "time": 894.3934230000109,
                    "velocity": 0.5905511811023622,
                    "duration": 0.18108062500004962
                },
                {
                    "name": "D5",
                    "midi": 74,
                    "time": 894.3934230000109,
                    "velocity": 0.7086614173228346,
                    "duration": 0.18108062500004962
                },
                {
                    "name": "A4",
                    "midi": 69,
                    "time": 894.610719750011,
                    "velocity": 0.5905511811023622,
                    "duration": 0.18108062500004962
                },
                {
                    "name": "D5",
                    "midi": 74,
                    "time": 894.610719750011,
                    "velocity": 0.7086614173228346,
                    "duration": 0.18108062500004962
                },
                {
                    "name": "C5",
                    "midi": 72,
                    "time": 894.828016500011,
                    "velocity": 0.6062992125984252,
                    "duration": 0.18108062500004962
                },
                {
                    "name": "D5",
                    "midi": 74,
                    "time": 894.828016500011,
                    "velocity": 0.7165354330708661,
                    "duration": 0.18108062500004962
                },
                {
                    "name": "D5",
                    "midi": 74,
                    "time": 895.0453132500111,
                    "velocity": 0.7165354330708661,
                    "duration": 0.18108062500004962
                },
                {
                    "name": "A#4",
                    "midi": 70,
                    "time": 895.0453132500111,
                    "velocity": 0.6062992125984252,
                    "duration": 0.18108062500004962
                },
                {
                    "name": "G4",
                    "midi": 67,
                    "time": 895.2626100000111,
                    "velocity": 0.6692913385826772,
                    "duration": 0.18108062500004962
                },
                {
                    "name": "D5",
                    "midi": 74,
                    "time": 895.2626100000111,
                    "velocity": 0.7165354330708661,
                    "duration": 0.18108062500004962
                },
                {
                    "name": "D6",
                    "midi": 86,
                    "time": 895.6972035000111,
                    "velocity": 0.5748031496062992,
                    "duration": 0.18108062500004962
                },
                {
                    "name": "G6",
                    "midi": 91,
                    "time": 895.6972035000111,
                    "velocity": 0.5748031496062992,
                    "duration": 0.18108062500004962
                },
                {
                    "name": "A#6",
                    "midi": 94,
                    "time": 895.6972035000111,
                    "velocity": 0.6850393700787402,
                    "duration": 0.18108062500004962
                },
                {
                    "name": "A5",
                    "midi": 81,
                    "time": 895.9145002500112,
                    "velocity": 0.5984251968503937,
                    "duration": 0.18108062500004962
                },
                {
                    "name": "D6",
                    "midi": 86,
                    "time": 896.3490937500112,
                    "velocity": 0.5275590551181102,
                    "duration": 0.18108062500004962
                },
                {
                    "name": "G6",
                    "midi": 91,
                    "time": 896.3490937500112,
                    "velocity": 0.6220472440944882,
                    "duration": 0.18108062500004962
                },
                {
                    "name": "A#5",
                    "midi": 82,
                    "time": 896.3490937500112,
                    "velocity": 0.5275590551181102,
                    "duration": 0.18108062500004962
                },
                {
                    "name": "G6",
                    "midi": 91,
                    "time": 896.5663905000113,
                    "velocity": 0.6850393700787402,
                    "duration": 0.18108062500004962
                },
                {
                    "name": "D6",
                    "midi": 86,
                    "time": 896.5663905000113,
                    "velocity": 0.5748031496062992,
                    "duration": 0.18108062500004962
                },
                {
                    "name": "A#5",
                    "midi": 82,
                    "time": 896.5663905000113,
                    "velocity": 0.5748031496062992,
                    "duration": 0.18108062500004962
                },
                {
                    "name": "F#5",
                    "midi": 78,
                    "time": 896.7836872500113,
                    "velocity": 0.5905511811023622,
                    "duration": 0.18108062500004962
                },
                {
                    "name": "G5",
                    "midi": 79,
                    "time": 897.2182807500113,
                    "velocity": 0.5275590551181102,
                    "duration": 0.18108062500004962
                },
                {
                    "name": "A#5",
                    "midi": 82,
                    "time": 897.2182807500113,
                    "velocity": 0.5275590551181102,
                    "duration": 0.18108062500004962
                },
                {
                    "name": "D6",
                    "midi": 86,
                    "time": 897.2182807500113,
                    "velocity": 0.6220472440944882,
                    "duration": 0.18108062500004962
                },
                {
                    "name": "A#5",
                    "midi": 82,
                    "time": 897.4355775000114,
                    "velocity": 0.5748031496062992,
                    "duration": 0.18108062500004962
                },
                {
                    "name": "G5",
                    "midi": 79,
                    "time": 897.4355775000114,
                    "velocity": 0.5748031496062992,
                    "duration": 0.18108062500004962
                },
                {
                    "name": "D6",
                    "midi": 86,
                    "time": 897.4355775000114,
                    "velocity": 0.6850393700787402,
                    "duration": 0.18108062500004962
                },
                {
                    "name": "C#5",
                    "midi": 73,
                    "time": 897.6528742500115,
                    "velocity": 0.6141732283464567,
                    "duration": 0.18108062500004962
                },
                {
                    "name": "A#5",
                    "midi": 82,
                    "time": 898.0874677500115,
                    "velocity": 0.6141732283464567,
                    "duration": 0.18108062500004962
                },
                {
                    "name": "G5",
                    "midi": 79,
                    "time": 898.0874677500115,
                    "velocity": 0.5196850393700787,
                    "duration": 0.18108062500004962
                },
                {
                    "name": "D5",
                    "midi": 74,
                    "time": 898.0874677500115,
                    "velocity": 0.5196850393700787,
                    "duration": 0.18108062500004962
                },
                {
                    "name": "D5",
                    "midi": 74,
                    "time": 898.3047645000115,
                    "velocity": 0.5748031496062992,
                    "duration": 0.18108062500004962
                },
                {
                    "name": "G5",
                    "midi": 79,
                    "time": 898.3047645000115,
                    "velocity": 0.5748031496062992,
                    "duration": 0.18108062500004962
                },
                {
                    "name": "A#5",
                    "midi": 82,
                    "time": 898.3047645000115,
                    "velocity": 0.6850393700787402,
                    "duration": 0.18108062500004962
                },
                {
                    "name": "A#4",
                    "midi": 70,
                    "time": 898.5220612500116,
                    "velocity": 0.5905511811023622,
                    "duration": 0.18108062500004962
                },
                {
                    "name": "C6",
                    "midi": 84,
                    "time": 898.9566547500116,
                    "velocity": 0.6141732283464567,
                    "duration": 0.18108062500004962
                },
                {
                    "name": "G5",
                    "midi": 79,
                    "time": 898.9566547500116,
                    "velocity": 0.5196850393700787,
                    "duration": 0.18108062500004962
                },
                {
                    "name": "D#5",
                    "midi": 75,
                    "time": 898.9566547500116,
                    "velocity": 0.5196850393700787,
                    "duration": 0.18108062500004962
                },
                {
                    "name": "C6",
                    "midi": 84,
                    "time": 899.1739515000116,
                    "velocity": 0.6850393700787402,
                    "duration": 0.18108062500004962
                },
                {
                    "name": "G5",
                    "midi": 79,
                    "time": 899.1739515000116,
                    "velocity": 0.5748031496062992,
                    "duration": 0.18108062500004962
                },
                {
                    "name": "D#5",
                    "midi": 75,
                    "time": 899.1739515000116,
                    "velocity": 0.5748031496062992,
                    "duration": 0.18108062500004962
                },
                {
                    "name": "D5",
                    "midi": 74,
                    "time": 899.3912482500117,
                    "velocity": 0.5905511811023622,
                    "duration": 0.18108062500004962
                },
                {
                    "name": "C#5",
                    "midi": 73,
                    "time": 899.6085450000118,
                    "velocity": 0.5905511811023622,
                    "duration": 0.18108062500004962
                },
                {
                    "name": "C5",
                    "midi": 72,
                    "time": 899.8258417500118,
                    "velocity": 0.5905511811023622,
                    "duration": 0.18108062500004962
                },
                {
                    "name": "G5",
                    "midi": 79,
                    "time": 900.0431385000119,
                    "velocity": 0.5748031496062992,
                    "duration": 0.18108062500004962
                },
                {
                    "name": "C6",
                    "midi": 84,
                    "time": 900.0431385000119,
                    "velocity": 0.6850393700787402,
                    "duration": 0.18108062500004962
                },
                {
                    "name": "D#5",
                    "midi": 75,
                    "time": 900.0431385000119,
                    "velocity": 0.5748031496062992,
                    "duration": 0.18108062500004962
                },
                {
                    "name": "D5",
                    "midi": 74,
                    "time": 900.2604352500119,
                    "velocity": 0.5826771653543307,
                    "duration": 0.18108062500004962
                },
                {
                    "name": "C#5",
                    "midi": 73,
                    "time": 900.477732000012,
                    "velocity": 0.5984251968503937,
                    "duration": 0.18108062500004962
                },
                {
                    "name": "C5",
                    "midi": 72,
                    "time": 900.695028750012,
                    "velocity": 0.5984251968503937,
                    "duration": 0.18108062500004962
                },
                {
                    "name": "D#5",
                    "midi": 75,
                    "time": 900.9123255000121,
                    "velocity": 0.5748031496062992,
                    "duration": 0.18108062500004962
                },
                {
                    "name": "F#5",
                    "midi": 78,
                    "time": 900.9123255000121,
                    "velocity": 0.5748031496062992,
                    "duration": 0.18108062500004962
                },
                {
                    "name": "C6",
                    "midi": 84,
                    "time": 900.9123255000121,
                    "velocity": 0.6850393700787402,
                    "duration": 0.18108062500004962
                },
                {
                    "name": "D5",
                    "midi": 74,
                    "time": 901.1296222500122,
                    "velocity": 0.5984251968503937,
                    "duration": 0.18108062500004962
                },
                {
                    "name": "C#5",
                    "midi": 73,
                    "time": 901.3469190000122,
                    "velocity": 0.5984251968503937,
                    "duration": 0.18108062500004962
                },
                {
                    "name": "C5",
                    "midi": 72,
                    "time": 901.5642157500123,
                    "velocity": 0.5984251968503937,
                    "duration": 0.18108062500004962
                },
                {
                    "name": "D5",
                    "midi": 74,
                    "time": 901.7815125000124,
                    "velocity": 0.5748031496062992,
                    "duration": 0.18108062500004962
                },
                {
                    "name": "F#5",
                    "midi": 78,
                    "time": 901.7815125000124,
                    "velocity": 0.5748031496062992,
                    "duration": 0.18108062500004962
                },
                {
                    "name": "A5",
                    "midi": 81,
                    "time": 901.7815125000124,
                    "velocity": 0.6850393700787402,
                    "duration": 0.18108062500004962
                },
                {
                    "name": "C5",
                    "midi": 72,
                    "time": 901.9988092500124,
                    "velocity": 0.5984251968503937,
                    "duration": 0.18108062500004962
                },
                {
                    "name": "G5",
                    "midi": 79,
                    "time": 902.2161060000125,
                    "velocity": 0.5748031496062992,
                    "duration": 0.4345935000000054
                },
                {
                    "name": "A#5",
                    "midi": 82,
                    "time": 902.2161060000125,
                    "velocity": 0.6850393700787402,
                    "duration": 0.4345935000000054
                },
                {
                    "name": "A#4",
                    "midi": 70,
                    "time": 902.2161060000125,
                    "velocity": 0.5748031496062992,
                    "duration": 0.4345935000000054
                },
                {
                    "name": "D5",
                    "midi": 74,
                    "time": 902.2161060000125,
                    "velocity": 0.5748031496062992,
                    "duration": 0.4345935000000054
                },
                {
                    "name": "D6",
                    "midi": 86,
                    "time": 902.6506995000125,
                    "velocity": 0.5748031496062992,
                    "duration": 0.18108062500004962
                },
                {
                    "name": "A#6",
                    "midi": 94,
                    "time": 902.6506995000125,
                    "velocity": 0.6850393700787402,
                    "duration": 0.18108062500004962
                },
                {
                    "name": "G6",
                    "midi": 91,
                    "time": 902.6506995000125,
                    "velocity": 0.5748031496062992,
                    "duration": 0.18108062500004962
                },
                {
                    "name": "A5",
                    "midi": 81,
                    "time": 902.8679962500125,
                    "velocity": 0.5984251968503937,
                    "duration": 0.18108062500004962
                },
                {
                    "name": "A#5",
                    "midi": 82,
                    "time": 903.3025897500125,
                    "velocity": 0.5275590551181102,
                    "duration": 0.18108062500004962
                },
                {
                    "name": "G6",
                    "midi": 91,
                    "time": 903.3025897500125,
                    "velocity": 0.6220472440944882,
                    "duration": 0.18108062500004962
                },
                {
                    "name": "D6",
                    "midi": 86,
                    "time": 903.3025897500125,
                    "velocity": 0.5275590551181102,
                    "duration": 0.18108062500004962
                },
                {
                    "name": "G6",
                    "midi": 91,
                    "time": 903.5198865000126,
                    "velocity": 0.6850393700787402,
                    "duration": 0.18108062500004962
                },
                {
                    "name": "A#5",
                    "midi": 82,
                    "time": 903.5198865000126,
                    "velocity": 0.5748031496062992,
                    "duration": 0.18108062500004962
                },
                {
                    "name": "D6",
                    "midi": 86,
                    "time": 903.5198865000126,
                    "velocity": 0.5748031496062992,
                    "duration": 0.18108062500004962
                },
                {
                    "name": "F#5",
                    "midi": 78,
                    "time": 903.7371832500127,
                    "velocity": 0.5905511811023622,
                    "duration": 0.18108062500004962
                },
                {
                    "name": "G5",
                    "midi": 79,
                    "time": 904.1717767500127,
                    "velocity": 0.5275590551181102,
                    "duration": 0.18108062500004962
                },
                {
                    "name": "A#5",
                    "midi": 82,
                    "time": 904.1717767500127,
                    "velocity": 0.5275590551181102,
                    "duration": 0.18108062500004962
                },
                {
                    "name": "D6",
                    "midi": 86,
                    "time": 904.1717767500127,
                    "velocity": 0.6220472440944882,
                    "duration": 0.18108062500004962
                },
                {
                    "name": "G5",
                    "midi": 79,
                    "time": 904.3890735000127,
                    "velocity": 0.5748031496062992,
                    "duration": 0.18108062500004962
                },
                {
                    "name": "A#5",
                    "midi": 82,
                    "time": 904.3890735000127,
                    "velocity": 0.5748031496062992,
                    "duration": 0.18108062500004962
                },
                {
                    "name": "D6",
                    "midi": 86,
                    "time": 904.3890735000127,
                    "velocity": 0.6850393700787402,
                    "duration": 0.18108062500004962
                },
                {
                    "name": "C#5",
                    "midi": 73,
                    "time": 904.6063702500128,
                    "velocity": 0.6141732283464567,
                    "duration": 0.18108062500004962
                },
                {
                    "name": "A#5",
                    "midi": 82,
                    "time": 905.0409637500128,
                    "velocity": 0.6141732283464567,
                    "duration": 0.18108062500004962
                },
                {
                    "name": "G5",
                    "midi": 79,
                    "time": 905.0409637500128,
                    "velocity": 0.5196850393700787,
                    "duration": 0.18108062500004962
                },
                {
                    "name": "D5",
                    "midi": 74,
                    "time": 905.0409637500128,
                    "velocity": 0.5196850393700787,
                    "duration": 0.18108062500004962
                },
                {
                    "name": "D5",
                    "midi": 74,
                    "time": 905.2582605000129,
                    "velocity": 0.5748031496062992,
                    "duration": 0.18108062500004962
                },
                {
                    "name": "G5",
                    "midi": 79,
                    "time": 905.2582605000129,
                    "velocity": 0.5748031496062992,
                    "duration": 0.18108062500004962
                },
                {
                    "name": "A#5",
                    "midi": 82,
                    "time": 905.2582605000129,
                    "velocity": 0.6850393700787402,
                    "duration": 0.18108062500004962
                },
                {
                    "name": "A#4",
                    "midi": 70,
                    "time": 905.4755572500129,
                    "velocity": 0.5905511811023622,
                    "duration": 0.18108062500004962
                },
                {
                    "name": "G5",
                    "midi": 79,
                    "time": 905.9101507500129,
                    "velocity": 0.5196850393700787,
                    "duration": 0.18108062500004962
                },
                {
                    "name": "D#5",
                    "midi": 75,
                    "time": 905.9101507500129,
                    "velocity": 0.5196850393700787,
                    "duration": 0.18108062500004962
                },
                {
                    "name": "C6",
                    "midi": 84,
                    "time": 905.9101507500129,
                    "velocity": 0.6141732283464567,
                    "duration": 0.18108062500004962
                },
                {
                    "name": "C6",
                    "midi": 84,
                    "time": 906.127447500013,
                    "velocity": 0.6850393700787402,
                    "duration": 0.18108062500004962
                },
                {
                    "name": "G5",
                    "midi": 79,
                    "time": 906.127447500013,
                    "velocity": 0.5748031496062992,
                    "duration": 0.18108062500004962
                },
                {
                    "name": "D#5",
                    "midi": 75,
                    "time": 906.127447500013,
                    "velocity": 0.5748031496062992,
                    "duration": 0.18108062500004962
                },
                {
                    "name": "D5",
                    "midi": 74,
                    "time": 906.344744250013,
                    "velocity": 0.5905511811023622,
                    "duration": 0.18108062500004962
                },
                {
                    "name": "C#5",
                    "midi": 73,
                    "time": 906.5620410000131,
                    "velocity": 0.5905511811023622,
                    "duration": 0.18108062500004962
                },
                {
                    "name": "C5",
                    "midi": 72,
                    "time": 906.7793377500132,
                    "velocity": 0.5905511811023622,
                    "duration": 0.18108062500004962
                },
                {
                    "name": "D#5",
                    "midi": 75,
                    "time": 906.9966345000132,
                    "velocity": 0.5748031496062992,
                    "duration": 0.18108062500004962
                },
                {
                    "name": "G5",
                    "midi": 79,
                    "time": 906.9966345000132,
                    "velocity": 0.5748031496062992,
                    "duration": 0.18108062500004962
                },
                {
                    "name": "C6",
                    "midi": 84,
                    "time": 906.9966345000132,
                    "velocity": 0.6850393700787402,
                    "duration": 0.18108062500004962
                },
                {
                    "name": "D5",
                    "midi": 74,
                    "time": 907.2139312500133,
                    "velocity": 0.5826771653543307,
                    "duration": 0.18108062500004962
                },
                {
                    "name": "C#5",
                    "midi": 73,
                    "time": 907.4312280000133,
                    "velocity": 0.5984251968503937,
                    "duration": 0.18108062500004962
                },
                {
                    "name": "C5",
                    "midi": 72,
                    "time": 907.6485247500134,
                    "velocity": 0.5984251968503937,
                    "duration": 0.18108062500004962
                },
                {
                    "name": "C6",
                    "midi": 84,
                    "time": 907.8658215000135,
                    "velocity": 0.6850393700787402,
                    "duration": 0.18108062500004962
                },
                {
                    "name": "F#5",
                    "midi": 78,
                    "time": 907.8658215000135,
                    "velocity": 0.5748031496062992,
                    "duration": 0.18108062500004962
                },
                {
                    "name": "D#5",
                    "midi": 75,
                    "time": 907.8658215000135,
                    "velocity": 0.5748031496062992,
                    "duration": 0.18108062500004962
                },
                {
                    "name": "D5",
                    "midi": 74,
                    "time": 908.0831182500135,
                    "velocity": 0.5984251968503937,
                    "duration": 0.18108062500004962
                },
                {
                    "name": "C#5",
                    "midi": 73,
                    "time": 908.3004150000136,
                    "velocity": 0.5984251968503937,
                    "duration": 0.18108062500004962
                },
                {
                    "name": "C5",
                    "midi": 72,
                    "time": 908.5177117500136,
                    "velocity": 0.5984251968503937,
                    "duration": 0.18108062500004962
                },
                {
                    "name": "A5",
                    "midi": 81,
                    "time": 908.7350085000137,
                    "velocity": 0.6850393700787402,
                    "duration": 0.18108062500004962
                },
                {
                    "name": "F#5",
                    "midi": 78,
                    "time": 908.7350085000137,
                    "velocity": 0.5748031496062992,
                    "duration": 0.18108062500004962
                },
                {
                    "name": "D5",
                    "midi": 74,
                    "time": 908.7350085000137,
                    "velocity": 0.5748031496062992,
                    "duration": 0.18108062500004962
                },
                {
                    "name": "C5",
                    "midi": 72,
                    "time": 908.9523052500138,
                    "velocity": 0.5984251968503937,
                    "duration": 0.18108062500004962
                },
                {
                    "name": "D5",
                    "midi": 74,
                    "time": 909.1696020000138,
                    "velocity": 0.5748031496062992,
                    "duration": 0.4345935000000054
                },
                {
                    "name": "A#4",
                    "midi": 70,
                    "time": 909.1696020000138,
                    "velocity": 0.5748031496062992,
                    "duration": 0.4345935000000054
                },
                {
                    "name": "G5",
                    "midi": 79,
                    "time": 909.1696020000138,
                    "velocity": 0.5748031496062992,
                    "duration": 0.4345935000000054
                },
                {
                    "name": "A#5",
                    "midi": 82,
                    "time": 909.1696020000138,
                    "velocity": 0.6850393700787402,
                    "duration": 0.4345935000000054
                },
                {
                    "name": "G#5",
                    "midi": 80,
                    "time": 909.6041955000138,
                    "velocity": 0.5511811023622047,
                    "duration": 0.21729674999994586
                },
                {
                    "name": "G#6",
                    "midi": 92,
                    "time": 909.8214922500138,
                    "velocity": 0.5669291338582677,
                    "duration": 0.21729674999994586
                },
                {
                    "name": "D#6",
                    "midi": 87,
                    "time": 909.8214922500138,
                    "velocity": 0.47244094488188976,
                    "duration": 0.21729674999994586
                },
                {
                    "name": "G#5",
                    "midi": 80,
                    "time": 910.0387890000137,
                    "velocity": 0.5669291338582677,
                    "duration": 0.21729674999994586
                },
                {
                    "name": "D#5",
                    "midi": 75,
                    "time": 910.2560857500137,
                    "velocity": 0.49606299212598426,
                    "duration": 0.21729674999994586
                },
                {
                    "name": "G#5",
                    "midi": 80,
                    "time": 910.2560857500137,
                    "velocity": 0.5905511811023622,
                    "duration": 0.21729674999994586
                },
                {
                    "name": "G4",
                    "midi": 67,
                    "time": 910.4733825000136,
                    "velocity": 0.6062992125984252,
                    "duration": 0.4345934999998917
                },
                {
                    "name": "G5",
                    "midi": 79,
                    "time": 910.6906792500135,
                    "velocity": 0.6062992125984252,
                    "duration": 0.21729674999994586
                },
                {
                    "name": "D#5",
                    "midi": 75,
                    "time": 910.6906792500135,
                    "velocity": 0.5118110236220472,
                    "duration": 0.21729674999994586
                },
                {
                    "name": "F#4",
                    "midi": 66,
                    "time": 910.9079760000135,
                    "velocity": 0.6850393700787402,
                    "duration": 0.4345934999998917
                },
                {
                    "name": "A4",
                    "midi": 69,
                    "time": 911.1252727500134,
                    "velocity": 0.5118110236220472,
                    "duration": 0.21729674999994586
                },
                {
                    "name": "F#5",
                    "midi": 78,
                    "time": 911.1252727500134,
                    "velocity": 0.6062992125984252,
                    "duration": 0.21729674999994586
                },
                {
                    "name": "F#5",
                    "midi": 78,
                    "time": 911.3425695000134,
                    "velocity": 0.6062992125984252,
                    "duration": 0.21729674999994586
                },
                {
                    "name": "F#6",
                    "midi": 90,
                    "time": 911.5598662500133,
                    "velocity": 0.6062992125984252,
                    "duration": 0.21729674999994586
                },
                {
                    "name": "A5",
                    "midi": 81,
                    "time": 911.5598662500133,
                    "velocity": 0.5118110236220472,
                    "duration": 0.21729674999994586
                },
                {
                    "name": "G5",
                    "midi": 79,
                    "time": 911.7771630000133,
                    "velocity": 0.6850393700787402,
                    "duration": 0.4345934999998917
                },
                {
                    "name": "G6",
                    "midi": 91,
                    "time": 911.9944597500132,
                    "velocity": 0.5905511811023622,
                    "duration": 0.21729674999994586
                },
                {
                    "name": "A#5",
                    "midi": 82,
                    "time": 911.9944597500132,
                    "velocity": 0.5039370078740157,
                    "duration": 0.21729674999994586
                },
                {
                    "name": "G5",
                    "midi": 79,
                    "time": 912.2117565000132,
                    "velocity": 0.5905511811023622,
                    "duration": 0.21729674999994586
                },
                {
                    "name": "A#4",
                    "midi": 70,
                    "time": 912.4290532500131,
                    "velocity": 0.5039370078740157,
                    "duration": 0.21729674999994586
                },
                {
                    "name": "G5",
                    "midi": 79,
                    "time": 912.4290532500131,
                    "velocity": 0.5905511811023622,
                    "duration": 0.21729674999994586
                },
                {
                    "name": "G#4",
                    "midi": 68,
                    "time": 912.6463500000131,
                    "velocity": 0.6062992125984252,
                    "duration": 0.4345934999998917
                },
                {
                    "name": "G#5",
                    "midi": 80,
                    "time": 912.863646750013,
                    "velocity": 0.5669291338582677,
                    "duration": 0.21729674999994586
                },
                {
                    "name": "D#5",
                    "midi": 75,
                    "time": 912.863646750013,
                    "velocity": 0.47244094488188976,
                    "duration": 0.21729674999994586
                },
                {
                    "name": "G#5",
                    "midi": 80,
                    "time": 913.080943500013,
                    "velocity": 0.5826771653543307,
                    "duration": 0.4345934999998917
                },
                {
                    "name": "D#6",
                    "midi": 87,
                    "time": 913.2982402500129,
                    "velocity": 0.5118110236220472,
                    "duration": 0.21729674999994586
                },
                {
                    "name": "G#6",
                    "midi": 92,
                    "time": 913.2982402500129,
                    "velocity": 0.5984251968503937,
                    "duration": 0.21729674999994586
                },
                {
                    "name": "G#5",
                    "midi": 80,
                    "time": 913.5155370000128,
                    "velocity": 0.5984251968503937,
                    "duration": 0.21729674999994586
                },
                {
                    "name": "G#5",
                    "midi": 80,
                    "time": 913.7328337500128,
                    "velocity": 0.6141732283464567,
                    "duration": 0.21729674999994586
                },
                {
                    "name": "D#5",
                    "midi": 75,
                    "time": 913.7328337500128,
                    "velocity": 0.5118110236220472,
                    "duration": 0.21729674999994586
                },
                {
                    "name": "G4",
                    "midi": 67,
                    "time": 913.9501305000127,
                    "velocity": 0.6062992125984252,
                    "duration": 0.4345934999998917
                },
                {
                    "name": "G5",
                    "midi": 79,
                    "time": 914.1674272500127,
                    "velocity": 0.6062992125984252,
                    "duration": 0.21729674999994586
                },
                {
                    "name": "D#5",
                    "midi": 75,
                    "time": 914.1674272500127,
                    "velocity": 0.5118110236220472,
                    "duration": 0.21729674999994586
                },
                {
                    "name": "F#4",
                    "midi": 66,
                    "time": 914.3847240000126,
                    "velocity": 0.6850393700787402,
                    "duration": 0.4345934999998917
                },
                {
                    "name": "F#5",
                    "midi": 78,
                    "time": 914.6020207500126,
                    "velocity": 0.6062992125984252,
                    "duration": 0.21729674999994586
                },
                {
                    "name": "A4",
                    "midi": 69,
                    "time": 914.6020207500126,
                    "velocity": 0.5118110236220472,
                    "duration": 0.21729674999994586
                },
                {
                    "name": "F#5",
                    "midi": 78,
                    "time": 914.8193175000125,
                    "velocity": 0.6062992125984252,
                    "duration": 0.21729674999994586
                },
                {
                    "name": "A5",
                    "midi": 81,
                    "time": 915.0366142500125,
                    "velocity": 0.5118110236220472,
                    "duration": 0.21729674999994586
                },
                {
                    "name": "F#6",
                    "midi": 90,
                    "time": 915.0366142500125,
                    "velocity": 0.6062992125984252,
                    "duration": 0.21729674999994586
                },
                {
                    "name": "G5",
                    "midi": 79,
                    "time": 915.2539110000124,
                    "velocity": 0.6850393700787402,
                    "duration": 0.4345934999998917
                },
                {
                    "name": "G6",
                    "midi": 91,
                    "time": 915.4712077500124,
                    "velocity": 0.5905511811023622,
                    "duration": 0.21729674999994586
                },
                {
                    "name": "A#5",
                    "midi": 82,
                    "time": 915.4712077500124,
                    "velocity": 0.5039370078740157,
                    "duration": 0.21729674999994586
                },
                {
                    "name": "G5",
                    "midi": 79,
                    "time": 915.6885045000123,
                    "velocity": 0.5905511811023622,
                    "duration": 0.21729674999994586
                },
                {
                    "name": "A#4",
                    "midi": 70,
                    "time": 915.9058012500122,
                    "velocity": 0.5039370078740157,
                    "duration": 0.21729674999994586
                },
                {
                    "name": "G5",
                    "midi": 79,
                    "time": 915.9058012500122,
                    "velocity": 0.5905511811023622,
                    "duration": 0.21729674999994586
                },
                {
                    "name": "F4",
                    "midi": 65,
                    "time": 916.1230980000122,
                    "velocity": 0.6062992125984252,
                    "duration": 0.4345934999998917
                },
                {
                    "name": "F5",
                    "midi": 77,
                    "time": 916.3403947500121,
                    "velocity": 0.5590551181102362,
                    "duration": 0.21729674999994586
                },
                {
                    "name": "G#4",
                    "midi": 68,
                    "time": 916.3403947500121,
                    "velocity": 0.4645669291338583,
                    "duration": 0.21729674999994586
                },
                {
                    "name": "F5",
                    "midi": 77,
                    "time": 916.5576915000121,
                    "velocity": 0.5511811023622047,
                    "duration": 0.21729674999994586
                },
                {
                    "name": "G#5",
                    "midi": 80,
                    "time": 916.774988250012,
                    "velocity": 0.4645669291338583,
                    "duration": 0.21729674999994586
                },
                {
                    "name": "F6",
                    "midi": 89,
                    "time": 916.774988250012,
                    "velocity": 0.5590551181102362,
                    "duration": 0.21729674999994586
                },
                {
                    "name": "F5",
                    "midi": 77,
                    "time": 916.992285000012,
                    "velocity": 0.5354330708661418,
                    "duration": 0.21729674999994586
                },
                {
                    "name": "G#4",
                    "midi": 68,
                    "time": 917.2095817500119,
                    "velocity": 0.5196850393700787,
                    "duration": 0.21729674999994586
                },
                {
                    "name": "D#5",
                    "midi": 75,
                    "time": 917.2095817500119,
                    "velocity": 0.6062992125984252,
                    "duration": 0.21729674999994586
                },
                {
                    "name": "D#4",
                    "midi": 63,
                    "time": 917.4268785000119,
                    "velocity": 0.5433070866141733,
                    "duration": 0.4345934999998917
                },
                {
                    "name": "G#4",
                    "midi": 68,
                    "time": 917.6441752500118,
                    "velocity": 0.44881889763779526,
                    "duration": 0.21729674999994586
                },
                {
                    "name": "D#5",
                    "midi": 75,
                    "time": 917.6441752500118,
                    "velocity": 0.5433070866141733,
                    "duration": 0.21729674999994586
                },
                {
                    "name": "D4",
                    "midi": 62,
                    "time": 917.8614720000118,
                    "velocity": 0.6062992125984252,
                    "duration": 0.4345934999998917
                },
                {
                    "name": "G#4",
                    "midi": 68,
                    "time": 918.0787687500117,
                    "velocity": 0.44881889763779526,
                    "duration": 0.21729674999994586
                },
                {
                    "name": "D5",
                    "midi": 74,
                    "time": 918.0787687500117,
                    "velocity": 0.5433070866141733,
                    "duration": 0.21729674999994586
                },
                {
                    "name": "D5",
                    "midi": 74,
                    "time": 918.2960655000117,
                    "velocity": 0.5433070866141733,
                    "duration": 0.21729674999994586
                },
                {
                    "name": "D6",
                    "midi": 86,
                    "time": 918.5133622500116,
                    "velocity": 0.5433070866141733,
                    "duration": 0.21729674999994586
                },
                {
                    "name": "G#5",
                    "midi": 80,
                    "time": 918.5133622500116,
                    "velocity": 0.44881889763779526,
                    "duration": 0.21729674999994586
                },
                {
                    "name": "D5",
                    "midi": 74,
                    "time": 918.7306590000115,
                    "velocity": 0.6062992125984252,
                    "duration": 0.21729674999994586
                },
                {
                    "name": "C5",
                    "midi": 72,
                    "time": 918.9479557500115,
                    "velocity": 0.5275590551181102,
                    "duration": 0.21729674999994586
                },
                {
                    "name": "G#4",
                    "midi": 68,
                    "time": 918.9479557500115,
                    "velocity": 0.4409448818897638,
                    "duration": 0.21729674999994586
                },
                {
                    "name": "C4",
                    "midi": 60,
                    "time": 919.1652525000114,
                    "velocity": 0.5275590551181102,
                    "duration": 0.21729674999994586
                },
                {
                    "name": "G#4",
                    "midi": 68,
                    "time": 919.3825492500114,
                    "velocity": 0.4409448818897638,
                    "duration": 0.21729674999994586
                },
                {
                    "name": "C5",
                    "midi": 72,
                    "time": 919.3825492500114,
                    "velocity": 0.5275590551181102,
                    "duration": 0.21729674999994586
                },
                {
                    "name": "C4",
                    "midi": 60,
                    "time": 919.5998460000113,
                    "velocity": 0.6062992125984252,
                    "duration": 0.4345934999998917
                },
                {
                    "name": "C5",
                    "midi": 72,
                    "time": 919.8171427500113,
                    "velocity": 0.5433070866141733,
                    "duration": 0.21729674999994586
                },
                {
                    "name": "D#4",
                    "midi": 63,
                    "time": 919.8171427500113,
                    "velocity": 0.44881889763779526,
                    "duration": 0.21729674999994586
                },
                {
                    "name": "C5",
                    "midi": 72,
                    "time": 920.0344395000112,
                    "velocity": 0.5433070866141733,
                    "duration": 0.4345934999998917
                },
                {
                    "name": "C6",
                    "midi": 84,
                    "time": 920.2517362500112,
                    "velocity": 0.5433070866141733,
                    "duration": 0.21729674999994586
                },
                {
                    "name": "D#5",
                    "midi": 75,
                    "time": 920.2517362500112,
                    "velocity": 0.44881889763779526,
                    "duration": 0.21729674999994586
                },
                {
                    "name": "C5",
                    "midi": 72,
                    "time": 920.4690330000111,
                    "velocity": 0.6062992125984252,
                    "duration": 0.4345934999998917
                },
                {
                    "name": "D#5",
                    "midi": 75,
                    "time": 920.686329750011,
                    "velocity": 0.4409448818897638,
                    "duration": 0.21729674999994586
                },
                {
                    "name": "C6",
                    "midi": 84,
                    "time": 920.686329750011,
                    "velocity": 0.5275590551181102,
                    "duration": 0.21729674999994586
                },
                {
                    "name": "A#4",
                    "midi": 70,
                    "time": 920.903626500011,
                    "velocity": 0.5275590551181102,
                    "duration": 0.4345934999998917
                },
                {
                    "name": "D5",
                    "midi": 74,
                    "time": 921.120923250011,
                    "velocity": 0.4409448818897638,
                    "duration": 0.21729674999994586
                },
                {
                    "name": "A#5",
                    "midi": 82,
                    "time": 921.120923250011,
                    "velocity": 0.5275590551181102,
                    "duration": 0.21729674999994586
                },
                {
                    "name": "A#4",
                    "midi": 70,
                    "time": 921.3382200000109,
                    "velocity": 0.6062992125984252,
                    "duration": 0.4345934999998917
                },
                {
                    "name": "A#5",
                    "midi": 82,
                    "time": 921.5555167500108,
                    "velocity": 0.5433070866141733,
                    "duration": 0.21729674999994586
                },
                {
                    "name": "D5",
                    "midi": 74,
                    "time": 921.5555167500108,
                    "velocity": 0.44881889763779526,
                    "duration": 0.21729674999994586
                },
                {
                    "name": "A4",
                    "midi": 69,
                    "time": 921.7728135000108,
                    "velocity": 0.5433070866141733,
                    "duration": 0.4345934999998917
                },
                {
                    "name": "C5",
                    "midi": 72,
                    "time": 921.9901102500107,
                    "velocity": 0.44881889763779526,
                    "duration": 0.21729674999994586
                },
                {
                    "name": "A5",
                    "midi": 81,
                    "time": 921.9901102500107,
                    "velocity": 0.5433070866141733,
                    "duration": 0.21729674999994586
                },
                {
                    "name": "G4",
                    "midi": 67,
                    "time": 922.2074070000107,
                    "velocity": 0.6062992125984252,
                    "duration": 0.4345934999998917
                },
                {
                    "name": "G5",
                    "midi": 79,
                    "time": 922.4247037500106,
                    "velocity": 0.5275590551181102,
                    "duration": 0.21729674999994586
                },
                {
                    "name": "A#4",
                    "midi": 70,
                    "time": 922.4247037500106,
                    "velocity": 0.4409448818897638,
                    "duration": 0.21729674999994586
                },
                {
                    "name": "F#4",
                    "midi": 66,
                    "time": 922.6420005000106,
                    "velocity": 0.5275590551181102,
                    "duration": 0.4345934999998917
                },
                {
                    "name": "A4",
                    "midi": 69,
                    "time": 922.8592972500105,
                    "velocity": 0.4409448818897638,
                    "duration": 0.21729674999994586
                },
                {
                    "name": "F#5",
                    "midi": 78,
                    "time": 922.8592972500105,
                    "velocity": 0.5275590551181102,
                    "duration": 0.21729674999994586
                },
                {
                    "name": "G5",
                    "midi": 79,
                    "time": 923.0765940000105,
                    "velocity": 0.6850393700787402,
                    "duration": 0.21729674999994586
                },
                {
                    "name": "G4",
                    "midi": 67,
                    "time": 923.0765940000105,
                    "velocity": 0.5748031496062992,
                    "duration": 0.21729674999994586
                },
                {
                    "name": "A#4",
                    "midi": 70,
                    "time": 923.0765940000105,
                    "velocity": 0.5748031496062992,
                    "duration": 0.21729674999994586
                },
                {
                    "name": "G#5",
                    "midi": 80,
                    "time": 923.5111875000104,
                    "velocity": 0.5511811023622047,
                    "duration": 0.4345934999998917
                },
                {
                    "name": "G#6",
                    "midi": 92,
                    "time": 923.7284842500103,
                    "velocity": 0.5669291338582677,
                    "duration": 0.21729674999994586
                },
                {
                    "name": "D#6",
                    "midi": 87,
                    "time": 923.7284842500103,
                    "velocity": 0.47244094488188976,
                    "duration": 0.21729674999994586
                },
                {
                    "name": "G#5",
                    "midi": 80,
                    "time": 923.9457810000102,
                    "velocity": 0.5669291338582677,
                    "duration": 0.21729674999994586
                },
                {
                    "name": "D#5",
                    "midi": 75,
                    "time": 924.1630777500102,
                    "velocity": 0.49606299212598426,
                    "duration": 0.21729674999994586
                },
                {
                    "name": "G#5",
                    "midi": 80,
                    "time": 924.1630777500102,
                    "velocity": 0.5905511811023622,
                    "duration": 0.21729674999994586
                },
                {
                    "name": "G4",
                    "midi": 67,
                    "time": 924.3803745000101,
                    "velocity": 0.6062992125984252,
                    "duration": 0.4345934999998917
                },
                {
                    "name": "D#5",
                    "midi": 75,
                    "time": 924.5976712500101,
                    "velocity": 0.5118110236220472,
                    "duration": 0.21729674999994586
                },
                {
                    "name": "G5",
                    "midi": 79,
                    "time": 924.5976712500101,
                    "velocity": 0.6062992125984252,
                    "duration": 0.21729674999994586
                },
                {
                    "name": "F#4",
                    "midi": 66,
                    "time": 924.81496800001,
                    "velocity": 0.6850393700787402,
                    "duration": 0.4345934999998917
                },
                {
                    "name": "F#5",
                    "midi": 78,
                    "time": 925.03226475001,
                    "velocity": 0.6062992125984252,
                    "duration": 0.21729674999994586
                },
                {
                    "name": "A4",
                    "midi": 69,
                    "time": 925.03226475001,
                    "velocity": 0.5118110236220472,
                    "duration": 0.21729674999994586
                },
                {
                    "name": "F#5",
                    "midi": 78,
                    "time": 925.2495615000099,
                    "velocity": 0.6062992125984252,
                    "duration": 0.21729674999994586
                },
                {
                    "name": "F#6",
                    "midi": 90,
                    "time": 925.4668582500099,
                    "velocity": 0.6062992125984252,
                    "duration": 0.21729674999994586
                },
                {
                    "name": "A5",
                    "midi": 81,
                    "time": 925.4668582500099,
                    "velocity": 0.5118110236220472,
                    "duration": 0.21729674999994586
                },
                {
                    "name": "G5",
                    "midi": 79,
                    "time": 925.6841550000098,
                    "velocity": 0.6850393700787402,
                    "duration": 0.4345934999998917
                },
                {
                    "name": "A#5",
                    "midi": 82,
                    "time": 925.9014517500098,
                    "velocity": 0.5039370078740157,
                    "duration": 0.21729674999994586
                },
                {
                    "name": "G6",
                    "midi": 91,
                    "time": 925.9014517500098,
                    "velocity": 0.5905511811023622,
                    "duration": 0.21729674999994586
                },
                {
                    "name": "G5",
                    "midi": 79,
                    "time": 926.1187485000097,
                    "velocity": 0.5905511811023622,
                    "duration": 0.21729674999994586
                },
                {
                    "name": "A#4",
                    "midi": 70,
                    "time": 926.3360452500096,
                    "velocity": 0.5039370078740157,
                    "duration": 0.21729674999994586
                },
                {
                    "name": "G5",
                    "midi": 79,
                    "time": 926.3360452500096,
                    "velocity": 0.5905511811023622,
                    "duration": 0.21729674999994586
                },
                {
                    "name": "G#4",
                    "midi": 68,
                    "time": 926.5533420000096,
                    "velocity": 0.6062992125984252,
                    "duration": 0.4345934999998917
                },
                {
                    "name": "D#5",
                    "midi": 75,
                    "time": 926.7706387500095,
                    "velocity": 0.47244094488188976,
                    "duration": 0.21729674999994586
                },
                {
                    "name": "G#5",
                    "midi": 80,
                    "time": 926.7706387500095,
                    "velocity": 0.5669291338582677,
                    "duration": 0.21729674999994586
                },
                {
                    "name": "G#5",
                    "midi": 80,
                    "time": 926.9879355000095,
                    "velocity": 0.5826771653543307,
                    "duration": 0.4345934999998917
                },
                {
                    "name": "G#6",
                    "midi": 92,
                    "time": 927.2052322500094,
                    "velocity": 0.5984251968503937,
                    "duration": 0.21729674999994586
                },
                {
                    "name": "D#6",
                    "midi": 87,
                    "time": 927.2052322500094,
                    "velocity": 0.5118110236220472,
                    "duration": 0.21729674999994586
                },
                {
                    "name": "G#5",
                    "midi": 80,
                    "time": 927.4225290000094,
                    "velocity": 0.5984251968503937,
                    "duration": 0.21729674999994586
                },
                {
                    "name": "D#5",
                    "midi": 75,
                    "time": 927.6398257500093,
                    "velocity": 0.5118110236220472,
                    "duration": 0.21729674999994586
                },
                {
                    "name": "G#5",
                    "midi": 80,
                    "time": 927.6398257500093,
                    "velocity": 0.6141732283464567,
                    "duration": 0.21729674999994586
                },
                {
                    "name": "G4",
                    "midi": 67,
                    "time": 927.8571225000093,
                    "velocity": 0.6062992125984252,
                    "duration": 0.4345934999998917
                },
                {
                    "name": "G5",
                    "midi": 79,
                    "time": 928.0744192500092,
                    "velocity": 0.6062992125984252,
                    "duration": 0.21729674999994586
                },
                {
                    "name": "C5",
                    "midi": 72,
                    "time": 928.0744192500092,
                    "velocity": 0.5118110236220472,
                    "duration": 0.21729674999994586
                },
                {
                    "name": "F#4",
                    "midi": 66,
                    "time": 928.2917160000092,
                    "velocity": 0.6850393700787402,
                    "duration": 0.4345934999998917
                },
                {
                    "name": "A4",
                    "midi": 69,
                    "time": 928.5090127500091,
                    "velocity": 0.5118110236220472,
                    "duration": 0.21729674999994586
                },
                {
                    "name": "F#5",
                    "midi": 78,
                    "time": 928.5090127500091,
                    "velocity": 0.6062992125984252,
                    "duration": 0.21729674999994586
                },
                {
                    "name": "F#5",
                    "midi": 78,
                    "time": 928.726309500009,
                    "velocity": 0.6062992125984252,
                    "duration": 0.21729674999994586
                },
                {
                    "name": "A5",
                    "midi": 81,
                    "time": 928.943606250009,
                    "velocity": 0.5118110236220472,
                    "duration": 0.21729674999994586
                },
                {
                    "name": "F#6",
                    "midi": 90,
                    "time": 928.943606250009,
                    "velocity": 0.6062992125984252,
                    "duration": 0.21729674999994586
                },
                {
                    "name": "G5",
                    "midi": 79,
                    "time": 929.160903000009,
                    "velocity": 0.6850393700787402,
                    "duration": 0.4345934999998917
                },
                {
                    "name": "G6",
                    "midi": 91,
                    "time": 929.3781997500089,
                    "velocity": 0.5905511811023622,
                    "duration": 0.21729674999994586
                },
                {
                    "name": "A#5",
                    "midi": 82,
                    "time": 929.3781997500089,
                    "velocity": 0.5039370078740157,
                    "duration": 0.21729674999994586
                },
                {
                    "name": "G5",
                    "midi": 79,
                    "time": 929.5954965000088,
                    "velocity": 0.5905511811023622,
                    "duration": 0.21729674999994586
                },
                {
                    "name": "A#4",
                    "midi": 70,
                    "time": 929.8127932500088,
                    "velocity": 0.5039370078740157,
                    "duration": 0.21729674999994586
                },
                {
                    "name": "G5",
                    "midi": 79,
                    "time": 929.8127932500088,
                    "velocity": 0.5905511811023622,
                    "duration": 0.21729674999994586
                },
                {
                    "name": "F4",
                    "midi": 65,
                    "time": 930.0300900000087,
                    "velocity": 0.6062992125984252,
                    "duration": 0.4345934999998917
                },
                {
                    "name": "G#4",
                    "midi": 68,
                    "time": 930.2473867500087,
                    "velocity": 0.4645669291338583,
                    "duration": 0.21729674999994586
                },
                {
                    "name": "F5",
                    "midi": 77,
                    "time": 930.2473867500087,
                    "velocity": 0.5590551181102362,
                    "duration": 0.21729674999994586
                },
                {
                    "name": "F5",
                    "midi": 77,
                    "time": 930.4646835000086,
                    "velocity": 0.5511811023622047,
                    "duration": 0.21729674999994586
                },
                {
                    "name": "G#5",
                    "midi": 80,
                    "time": 930.6819802500086,
                    "velocity": 0.4645669291338583,
                    "duration": 0.21729674999994586
                },
                {
                    "name": "F6",
                    "midi": 89,
                    "time": 930.6819802500086,
                    "velocity": 0.5590551181102362,
                    "duration": 0.21729674999994586
                },
                {
                    "name": "F5",
                    "midi": 77,
                    "time": 930.8992770000085,
                    "velocity": 0.5354330708661418,
                    "duration": 0.21729674999994586
                },
                {
                    "name": "G4",
                    "midi": 67,
                    "time": 931.1165737500085,
                    "velocity": 0.5196850393700787,
                    "duration": 0.21729674999994586
                },
                {
                    "name": "D#5",
                    "midi": 75,
                    "time": 931.1165737500085,
                    "velocity": 0.6062992125984252,
                    "duration": 0.21729674999994586
                },
                {
                    "name": "D#4",
                    "midi": 63,
                    "time": 931.3338705000084,
                    "velocity": 0.5433070866141733,
                    "duration": 0.4345934999998917
                },
                {
                    "name": "G4",
                    "midi": 67,
                    "time": 931.5511672500083,
                    "velocity": 0.44881889763779526,
                    "duration": 0.21729674999994586
                },
                {
                    "name": "D#5",
                    "midi": 75,
                    "time": 931.5511672500083,
                    "velocity": 0.5433070866141733,
                    "duration": 0.21729674999994586
                },
                {
                    "name": "D4",
                    "midi": 62,
                    "time": 931.7684640000083,
                    "velocity": 0.6062992125984252,
                    "duration": 0.4345934999998917
                },
                {
                    "name": "F#4",
                    "midi": 66,
                    "time": 931.9857607500082,
                    "velocity": 0.4645669291338583,
                    "duration": 0.21729674999994586
                },
                {
                    "name": "D5",
                    "midi": 74,
                    "time": 931.9857607500082,
                    "velocity": 0.5590551181102362,
                    "duration": 0.21729674999994586
                },
                {
                    "name": "D5",
                    "midi": 74,
                    "time": 932.2030575000082,
                    "velocity": 0.5511811023622047,
                    "duration": 0.21729674999994586
                },
                {
                    "name": "F#5",
                    "midi": 78,
                    "time": 932.4203542500081,
                    "velocity": 0.4645669291338583,
                    "duration": 0.21729674999994586
                },
                {
                    "name": "D6",
                    "midi": 86,
                    "time": 932.4203542500081,
                    "velocity": 0.5590551181102362,
                    "duration": 0.21729674999994586
                },
                {
                    "name": "D5",
                    "midi": 74,
                    "time": 932.6376510000081,
                    "velocity": 0.5354330708661418,
                    "duration": 0.21729674999994586
                },
                {
                    "name": "C#5",
                    "midi": 73,
                    "time": 932.854947750008,
                    "velocity": 0.6062992125984252,
                    "duration": 0.21729674999994586
                },
                {
                    "name": "E4",
                    "midi": 64,
                    "time": 932.854947750008,
                    "velocity": 0.5196850393700787,
                    "duration": 0.21729674999994586
                },
                {
                    "name": "C#4",
                    "midi": 61,
                    "time": 933.072244500008,
                    "velocity": 0.5433070866141733,
                    "duration": 0.4345934999998917
                },
                {
                    "name": "C#5",
                    "midi": 73,
                    "time": 933.2895412500079,
                    "velocity": 0.5433070866141733,
                    "duration": 0.21729674999994586
                },
                {
                    "name": "E4",
                    "midi": 64,
                    "time": 933.2895412500079,
                    "velocity": 0.44881889763779526,
                    "duration": 0.21729674999994586
                },
                {
                    "name": "C4",
                    "midi": 60,
                    "time": 933.5068380000079,
                    "velocity": 0.6062992125984252,
                    "duration": 0.4345934999998917
                },
                {
                    "name": "D#4",
                    "midi": 63,
                    "time": 933.7241347500078,
                    "velocity": 0.4645669291338583,
                    "duration": 0.21729674999994586
                },
                {
                    "name": "C5",
                    "midi": 72,
                    "time": 933.7241347500078,
                    "velocity": 0.5590551181102362,
                    "duration": 0.21729674999994586
                },
                {
                    "name": "C5",
                    "midi": 72,
                    "time": 933.9414315000078,
                    "velocity": 0.5511811023622047,
                    "duration": 0.4345934999998917
                },
                {
                    "name": "D#5",
                    "midi": 75,
                    "time": 934.1587282500077,
                    "velocity": 0.4645669291338583,
                    "duration": 0.21729674999994586
                },
                {
                    "name": "C6",
                    "midi": 84,
                    "time": 934.1587282500077,
                    "velocity": 0.5590551181102362,
                    "duration": 0.21729674999994586
                },
                {
                    "name": "B4",
                    "midi": 71,
                    "time": 934.3760250000076,
                    "velocity": 0.5354330708661418,
                    "duration": 0.4345934999998917
                },
                {
                    "name": "B5",
                    "midi": 83,
                    "time": 934.5933217500076,
                    "velocity": 0.5748031496062992,
                    "duration": 0.21729674999994586
                },
                {
                    "name": "D#5",
                    "midi": 75,
                    "time": 934.5933217500076,
                    "velocity": 0.5039370078740157,
                    "duration": 0.21729674999994586
                },
                {
                    "name": "C5",
                    "midi": 72,
                    "time": 934.8106185000075,
                    "velocity": 0.5511811023622047,
                    "duration": 0.4345934999998917
                },
                {
                    "name": "C6",
                    "midi": 84,
                    "time": 935.0279152500075,
                    "velocity": 0.5511811023622047,
                    "duration": 0.21729674999994586
                },
                {
                    "name": "D#5",
                    "midi": 75,
                    "time": 935.0279152500075,
                    "velocity": 0.4566929133858268,
                    "duration": 0.21729674999994586
                },
                {
                    "name": "C5",
                    "midi": 72,
                    "time": 935.2452120000074,
                    "velocity": 0.6220472440944882,
                    "duration": 0.4345934999998917
                },
                {
                    "name": "C6",
                    "midi": 84,
                    "time": 935.4625087500074,
                    "velocity": 0.5748031496062992,
                    "duration": 0.21729674999994586
                },
                {
                    "name": "D#5",
                    "midi": 75,
                    "time": 935.4625087500074,
                    "velocity": 0.48031496062992124,
                    "duration": 0.21729674999994586
                },
                {
                    "name": "D#5",
                    "midi": 75,
                    "time": 935.6798055000073,
                    "velocity": 0.5669291338582677,
                    "duration": 0.4345934999998917
                },
                {
                    "name": "F#5",
                    "midi": 78,
                    "time": 935.8971022500073,
                    "velocity": 0.48031496062992124,
                    "duration": 0.21729674999994586
                },
                {
                    "name": "D#6",
                    "midi": 87,
                    "time": 935.8971022500073,
                    "velocity": 0.5826771653543307,
                    "duration": 0.21729674999994586
                },
                {
                    "name": "D5",
                    "midi": 74,
                    "time": 936.1143990000072,
                    "velocity": 0.5590551181102362,
                    "duration": 0.4345934999998917
                },
                {
                    "name": "F#5",
                    "midi": 78,
                    "time": 936.3316957500072,
                    "velocity": 0.5433070866141733,
                    "duration": 0.21729674999994586
                },
                {
                    "name": "D6",
                    "midi": 86,
                    "time": 936.3316957500072,
                    "velocity": 0.6377952755905512,
                    "duration": 0.21729674999994586
                },
                {
                    "name": "D#5",
                    "midi": 75,
                    "time": 936.5489925000071,
                    "velocity": 0.5669291338582677,
                    "duration": 0.4345934999998917
                },
                {
                    "name": "F#5",
                    "midi": 78,
                    "time": 936.766289250007,
                    "velocity": 0.47244094488188976,
                    "duration": 0.21729674999994586
                },
                {
                    "name": "D#6",
                    "midi": 87,
                    "time": 936.766289250007,
                    "velocity": 0.5748031496062992,
                    "duration": 0.21729674999994586
                },
                {
                    "name": "D#5",
                    "midi": 75,
                    "time": 936.983586000007,
                    "velocity": 0.6456692913385826,
                    "duration": 0.4345934999998917
                },
                {
                    "name": "F#5",
                    "midi": 78,
                    "time": 937.2008827500069,
                    "velocity": 0.49606299212598426,
                    "duration": 0.21729674999994586
                },
                {
                    "name": "D#6",
                    "midi": 87,
                    "time": 937.2008827500069,
                    "velocity": 0.5905511811023622,
                    "duration": 0.21729674999994586
                },
                {
                    "name": "F#5",
                    "midi": 78,
                    "time": 937.4181795000069,
                    "velocity": 0.5905511811023622,
                    "duration": 0.4345934999998917
                },
                {
                    "name": "A#5",
                    "midi": 82,
                    "time": 937.6354762500068,
                    "velocity": 0.5039370078740157,
                    "duration": 0.21729674999994586
                },
                {
                    "name": "F#6",
                    "midi": 90,
                    "time": 937.6354762500068,
                    "velocity": 0.5984251968503937,
                    "duration": 0.21729674999994586
                },
                {
                    "name": "F5",
                    "midi": 77,
                    "time": 937.8527730000068,
                    "velocity": 0.5748031496062992,
                    "duration": 0.4345934999998917
                },
                {
                    "name": "F6",
                    "midi": 89,
                    "time": 938.0700697500067,
                    "velocity": 0.6614173228346457,
                    "duration": 0.21729674999994586
                },
                {
                    "name": "G#5",
                    "midi": 80,
                    "time": 938.0700697500067,
                    "velocity": 0.5590551181102362,
                    "duration": 0.21729674999994586
                },
                {
                    "name": "F#5",
                    "midi": 78,
                    "time": 938.2873665000067,
                    "velocity": 0.5905511811023622,
                    "duration": 0.4345934999998917
                },
                {
                    "name": "F#6",
                    "midi": 90,
                    "time": 938.5046632500066,
                    "velocity": 0.5905511811023622,
                    "duration": 0.21729674999994586
                },
                {
                    "name": "A5",
                    "midi": 81,
                    "time": 938.5046632500066,
                    "velocity": 0.49606299212598426,
                    "duration": 0.21729674999994586
                },
                {
                    "name": "F#5",
                    "midi": 78,
                    "time": 938.7219600000066,
                    "velocity": 0.6771653543307087,
                    "duration": 0.4345934999998917
                },
                {
                    "name": "A5",
                    "midi": 81,
                    "time": 938.9392567500065,
                    "velocity": 0.5196850393700787,
                    "duration": 0.21729674999994586
                },
                {
                    "name": "F#6",
                    "midi": 90,
                    "time": 938.9392567500065,
                    "velocity": 0.6141732283464567,
                    "duration": 0.21729674999994586
                },
                {
                    "name": "A5",
                    "midi": 81,
                    "time": 939.1565535000065,
                    "velocity": 0.6141732283464567,
                    "duration": 0.4345934999998917
                },
                {
                    "name": "A6",
                    "midi": 93,
                    "time": 939.3738502500064,
                    "velocity": 0.6220472440944882,
                    "duration": 0.21729674999994586
                },
                {
                    "name": "C6",
                    "midi": 84,
                    "time": 939.3738502500064,
                    "velocity": 0.5196850393700787,
                    "duration": 0.21729674999994586
                },
                {
                    "name": "A#5",
                    "midi": 82,
                    "time": 939.5911470000063,
                    "velocity": 0.5984251968503937,
                    "duration": 0.4345934999998917
                },
                {
                    "name": "A#6",
                    "midi": 94,
                    "time": 939.8084437500063,
                    "velocity": 0.6850393700787402,
                    "duration": 0.21729674999994586
                },
                {
                    "name": "D6",
                    "midi": 86,
                    "time": 939.8084437500063,
                    "velocity": 0.5826771653543307,
                    "duration": 0.21729674999994586
                },
                {
                    "name": "C6",
                    "midi": 84,
                    "time": 940.0257405000062,
                    "velocity": 0.6141732283464567,
                    "duration": 0.4345934999998917
                },
                {
                    "name": "C7",
                    "midi": 96,
                    "time": 940.2430372500062,
                    "velocity": 0.6141732283464567,
                    "duration": 0.21729674999994586
                },
                {
                    "name": "D#6",
                    "midi": 87,
                    "time": 940.2430372500062,
                    "velocity": 0.5118110236220472,
                    "duration": 0.21729674999994586
                },
                {
                    "name": "C6",
                    "midi": 84,
                    "time": 940.4603340000061,
                    "velocity": 0.7007874015748031,
                    "duration": 0.4345934999998917
                },
                {
                    "name": "D#6",
                    "midi": 87,
                    "time": 940.6776307500061,
                    "velocity": 0.5354330708661418,
                    "duration": 0.21729674999994586
                },
                {
                    "name": "C7",
                    "midi": 96,
                    "time": 940.6776307500061,
                    "velocity": 0.6377952755905512,
                    "duration": 0.21729674999994586
                },
                {
                    "name": "A#5",
                    "midi": 82,
                    "time": 940.894927500006,
                    "velocity": 0.6299212598425197,
                    "duration": 0.4345934999998917
                },
                {
                    "name": "D6",
                    "midi": 86,
                    "time": 941.112224250006,
                    "velocity": 0.5354330708661418,
                    "duration": 0.21729674999994586
                },
                {
                    "name": "A#6",
                    "midi": 94,
                    "time": 941.112224250006,
                    "velocity": 0.6377952755905512,
                    "duration": 0.21729674999994586
                },
                {
                    "name": "A#5",
                    "midi": 82,
                    "time": 941.3295210000059,
                    "velocity": 0.6062992125984252,
                    "duration": 0.4345934999998917
                },
                {
                    "name": "D6",
                    "midi": 86,
                    "time": 941.5468177500059,
                    "velocity": 0.5905511811023622,
                    "duration": 0.21729674999994586
                },
                {
                    "name": "A#6",
                    "midi": 94,
                    "time": 941.5468177500059,
                    "velocity": 0.7007874015748031,
                    "duration": 0.21729674999994586
                },
                {
                    "name": "A5",
                    "midi": 81,
                    "time": 941.7641145000058,
                    "velocity": 0.6141732283464567,
                    "duration": 0.4345934999998917
                },
                {
                    "name": "A6",
                    "midi": 93,
                    "time": 941.9814112500057,
                    "velocity": 0.6141732283464567,
                    "duration": 0.21729674999994586
                },
                {
                    "name": "C6",
                    "midi": 84,
                    "time": 941.9814112500057,
                    "velocity": 0.5196850393700787,
                    "duration": 0.21729674999994586
                },
                {
                    "name": "A5",
                    "midi": 81,
                    "time": 942.1987080000057,
                    "velocity": 0.7007874015748031,
                    "duration": 0.4345934999998917
                },
                {
                    "name": "A6",
                    "midi": 93,
                    "time": 942.4160047500056,
                    "velocity": 0.6377952755905512,
                    "duration": 0.21729674999994586
                },
                {
                    "name": "C6",
                    "midi": 84,
                    "time": 942.4160047500056,
                    "velocity": 0.5354330708661418,
                    "duration": 0.21729674999994586
                },
                {
                    "name": "G5",
                    "midi": 79,
                    "time": 942.6333015000056,
                    "velocity": 0.6299212598425197,
                    "duration": 0.4345934999998917
                },
                {
                    "name": "A#5",
                    "midi": 82,
                    "time": 942.8505982500055,
                    "velocity": 0.5354330708661418,
                    "duration": 0.21729674999994586
                },
                {
                    "name": "G6",
                    "midi": 91,
                    "time": 942.8505982500055,
                    "velocity": 0.6377952755905512,
                    "duration": 0.21729674999994586
                },
                {
                    "name": "G5",
                    "midi": 79,
                    "time": 943.0678950000055,
                    "velocity": 0.6062992125984252,
                    "duration": 0.4345934999998917
                },
                {
                    "name": "A#5",
                    "midi": 82,
                    "time": 943.2851917500054,
                    "velocity": 0.5905511811023622,
                    "duration": 0.21729674999994586
                },
                {
                    "name": "G6",
                    "midi": 91,
                    "time": 943.2851917500054,
                    "velocity": 0.7007874015748031,
                    "duration": 0.21729674999994586
                },
                {
                    "name": "D5",
                    "midi": 74,
                    "time": 943.5024885000054,
                    "velocity": 0.6141732283464567,
                    "duration": 0.4345934999998917
                },
                {
                    "name": "F#5",
                    "midi": 78,
                    "time": 943.7197852500053,
                    "velocity": 0.5196850393700787,
                    "duration": 0.21729674999994586
                },
                {
                    "name": "D6",
                    "midi": 86,
                    "time": 943.7197852500053,
                    "velocity": 0.6141732283464567,
                    "duration": 0.21729674999994586
                },
                {
                    "name": "A#5",
                    "midi": 82,
                    "time": 944.1543787500052,
                    "velocity": 0.6062992125984252,
                    "duration": 0.21729674999994586
                },
                {
                    "name": "D6",
                    "midi": 86,
                    "time": 944.3716755000052,
                    "velocity": 0.5590551181102362,
                    "duration": 0.21729674999994586
                },
                {
                    "name": "A#6",
                    "midi": 94,
                    "time": 944.3716755000052,
                    "velocity": 0.6614173228346457,
                    "duration": 0.21729674999994586
                },
                {
                    "name": "A#5",
                    "midi": 82,
                    "time": 944.5889722500051,
                    "velocity": 0.6299212598425197,
                    "duration": 0.21729674999994586
                },
                {
                    "name": "A#6",
                    "midi": 94,
                    "time": 944.806269000005,
                    "velocity": 0.6456692913385826,
                    "duration": 0.21729674999994586
                },
                {
                    "name": "C#6",
                    "midi": 85,
                    "time": 944.806269000005,
                    "velocity": 0.5511811023622047,
                    "duration": 0.21729674999994586
                },
                {
                    "name": "A#5",
                    "midi": 82,
                    "time": 945.023565750005,
                    "velocity": 0.6220472440944882,
                    "duration": 0.21729674999994586
                },
                {
                    "name": "A6",
                    "midi": 93,
                    "time": 945.2408625000049,
                    "velocity": 0.6692913385826772,
                    "duration": 0.21729674999994586
                },
                {
                    "name": "C6",
                    "midi": 84,
                    "time": 945.2408625000049,
                    "velocity": 0.5669291338582677,
                    "duration": 0.21729674999994586
                },
                {
                    "name": "A5",
                    "midi": 81,
                    "time": 945.4581592500049,
                    "velocity": 0.6377952755905512,
                    "duration": 0.21729674999994586
                },
                {
                    "name": "A6",
                    "midi": 93,
                    "time": 945.6754560000048,
                    "velocity": 0.6929133858267716,
                    "duration": 0.21729674999994586
                },
                {
                    "name": "C6",
                    "midi": 84,
                    "time": 945.6754560000048,
                    "velocity": 0.5826771653543307,
                    "duration": 0.21729674999994586
                },
                {
                    "name": "A5",
                    "midi": 81,
                    "time": 945.8927527500048,
                    "velocity": 0.6220472440944882,
                    "duration": 0.21729674999994586
                },
                {
                    "name": "A#5",
                    "midi": 82,
                    "time": 946.1100495000047,
                    "velocity": 0.5826771653543307,
                    "duration": 0.21729674999994586
                },
                {
                    "name": "G6",
                    "midi": 91,
                    "time": 946.1100495000047,
                    "velocity": 0.6850393700787402,
                    "duration": 0.21729674999994586
                },
                {
                    "name": "G5",
                    "midi": 79,
                    "time": 946.3273462500047,
                    "velocity": 0.6299212598425197,
                    "duration": 0.21729674999994586
                },
                {
                    "name": "A#5",
                    "midi": 82,
                    "time": 946.5446430000046,
                    "velocity": 0.5905511811023622,
                    "duration": 0.21729674999994586
                },
                {
                    "name": "G6",
                    "midi": 91,
                    "time": 946.5446430000046,
                    "velocity": 0.7007874015748031,
                    "duration": 0.21729674999994586
                },
                {
                    "name": "G5",
                    "midi": 79,
                    "time": 946.7619397500046,
                    "velocity": 0.6220472440944882,
                    "duration": 0.21729674999994586
                },
                {
                    "name": "D6",
                    "midi": 86,
                    "time": 946.9792365000045,
                    "velocity": 0.7007874015748031,
                    "duration": 0.21729674999994586
                },
                {
                    "name": "F#5",
                    "midi": 78,
                    "time": 946.9792365000045,
                    "velocity": 0.5905511811023622,
                    "duration": 0.21729674999994586
                },
                {
                    "name": "D5",
                    "midi": 74,
                    "time": 947.1965332500044,
                    "velocity": 0.6377952755905512,
                    "duration": 0.21729674999994586
                },
                {
                    "name": "D6",
                    "midi": 86,
                    "time": 947.6311267500043,
                    "velocity": 0.6850393700787402,
                    "duration": 0.21729674999994586
                },
                {
                    "name": "G6",
                    "midi": 91,
                    "time": 947.8484235000043,
                    "velocity": 0.6299212598425197,
                    "duration": 0.21729674999994586
                },
                {
                    "name": "A#6",
                    "midi": 94,
                    "time": 947.8484235000043,
                    "velocity": 0.6299212598425197,
                    "duration": 0.21729674999994586
                },
                {
                    "name": "D7",
                    "midi": 98,
                    "time": 947.8484235000043,
                    "velocity": 0.7480314960629921,
                    "duration": 0.21729674999994586
                },
                {
                    "name": "D6",
                    "midi": 86,
                    "time": 948.0657202500042,
                    "velocity": 0.6771653543307087,
                    "duration": 0.21729674999994586
                },
                {
                    "name": "D6",
                    "midi": 86,
                    "time": 948.7176105000042,
                    "velocity": 0.6929133858267716,
                    "duration": 0.21729674999994586
                },
                {
                    "name": "A#5",
                    "midi": 82,
                    "time": 948.7176105000042,
                    "velocity": 0.5826771653543307,
                    "duration": 0.21729674999994586
                },
                {
                    "name": "G5",
                    "midi": 79,
                    "time": 948.7176105000042,
                    "velocity": 0.5826771653543307,
                    "duration": 0.21729674999994586
                },
                {
                    "name": "D5",
                    "midi": 74,
                    "time": 948.9349072500041,
                    "velocity": 0.6141732283464567,
                    "duration": 0.21729674999994586
                },
                {
                    "name": "G4",
                    "midi": 67,
                    "time": 949.5867975000041,
                    "velocity": 0.5511811023622047,
                    "duration": 0.21729674999994586
                },
                {
                    "name": "A#4",
                    "midi": 70,
                    "time": 949.5867975000041,
                    "velocity": 0.5511811023622047,
                    "duration": 0.21729674999994586
                },
                {
                    "name": "D5",
                    "midi": 74,
                    "time": 949.5867975000041,
                    "velocity": 0.6456692913385826,
                    "duration": 0.21729674999994586
                },
                {
                    "name": "D4",
                    "midi": 62,
                    "time": 949.804094250004,
                    "velocity": 0.5984251968503937,
                    "duration": 0.21729674999994586
                },
                {
                    "name": "A#3",
                    "midi": 58,
                    "time": 950.455984500004,
                    "velocity": 0.5511811023622047,
                    "duration": 0.21729674999994586
                },
                {
                    "name": "D4",
                    "midi": 62,
                    "time": 950.455984500004,
                    "velocity": 0.6456692913385826,
                    "duration": 0.21729674999994586
                },
                {
                    "name": "G3",
                    "midi": 55,
                    "time": 950.455984500004,
                    "velocity": 0.5511811023622047,
                    "duration": 0.21729674999994586
                },
                {
                    "name": "D3",
                    "midi": 50,
                    "time": 950.6732812500039,
                    "velocity": 0.5039370078740157,
                    "duration": 0.21729674999994586
                },
                {
                    "name": "E4",
                    "midi": 64,
                    "time": 951.3251715000039,
                    "velocity": 0.7086614173228346,
                    "duration": 0.21729674999994586
                },
                {
                    "name": "A#3",
                    "midi": 58,
                    "time": 951.3251715000039,
                    "velocity": 0.5905511811023622,
                    "duration": 0.21729674999994586
                },
                {
                    "name": "G3",
                    "midi": 55,
                    "time": 951.3251715000039,
                    "velocity": 0.5905511811023622,
                    "duration": 0.21729674999994586
                },
                {
                    "name": "D3",
                    "midi": 50,
                    "time": 951.5424682500038,
                    "velocity": 0.6062992125984252,
                    "duration": 0.21729674999994586
                },
                {
                    "name": "G3",
                    "midi": 55,
                    "time": 952.1943585000038,
                    "velocity": 0.5905511811023622,
                    "duration": 0.21729674999994586
                },
                {
                    "name": "A#3",
                    "midi": 58,
                    "time": 952.1943585000038,
                    "velocity": 0.5905511811023622,
                    "duration": 0.21729674999994586
                },
                {
                    "name": "E4",
                    "midi": 64,
                    "time": 952.1943585000038,
                    "velocity": 0.7086614173228346,
                    "duration": 0.21729674999994586
                },
                {
                    "name": "D3",
                    "midi": 50,
                    "time": 952.4116552500037,
                    "velocity": 0.6377952755905512,
                    "duration": 0.21729674999994586
                },
                {
                    "name": "A#3",
                    "midi": 58,
                    "time": 953.0635455000037,
                    "velocity": 0.5905511811023622,
                    "duration": 0.21729674999994586
                },
                {
                    "name": "G3",
                    "midi": 55,
                    "time": 953.0635455000037,
                    "velocity": 0.5905511811023622,
                    "duration": 0.21729674999994586
                },
                {
                    "name": "E4",
                    "midi": 64,
                    "time": 953.0635455000037,
                    "velocity": 0.7086614173228346,
                    "duration": 0.21729674999994586
                },
                {
                    "name": "D3",
                    "midi": 50,
                    "time": 953.2808422500036,
                    "velocity": 0.6062992125984252,
                    "duration": 0.21729674999994586
                },
                {
                    "name": "A#3",
                    "midi": 58,
                    "time": 953.9327325000036,
                    "velocity": 0.5905511811023622,
                    "duration": 0.21729674999994586
                },
                {
                    "name": "G3",
                    "midi": 55,
                    "time": 953.9327325000036,
                    "velocity": 0.5905511811023622,
                    "duration": 0.21729674999994586
                },
                {
                    "name": "E4",
                    "midi": 64,
                    "time": 953.9327325000036,
                    "velocity": 0.7086614173228346,
                    "duration": 0.21729674999994586
                },
                {
                    "name": "D3",
                    "midi": 50,
                    "time": 954.1500292500035,
                    "velocity": 0.6377952755905512,
                    "duration": 0.21729674999994586
                },
                {
                    "name": "G3",
                    "midi": 55,
                    "time": 955.2365130000035,
                    "velocity": 0.4251968503937008,
                    "duration": 0.1448645000000397
                },
                {
                    "name": "G#3",
                    "midi": 56,
                    "time": 955.3813775000035,
                    "velocity": 0.4251968503937008,
                    "duration": 0.1448645000000397
                },
                {
                    "name": "A3",
                    "midi": 57,
                    "time": 955.5262420000035,
                    "velocity": 0.4330708661417323,
                    "duration": 0.1448645000000397
                },
                {
                    "name": "A#3",
                    "midi": 58,
                    "time": 955.6711065000036,
                    "velocity": 0.4330708661417323,
                    "duration": 0.1448645000000397
                },
                {
                    "name": "B3",
                    "midi": 59,
                    "time": 955.8159710000036,
                    "velocity": 0.4409448818897638,
                    "duration": 0.1448645000000397
                },
                {
                    "name": "C4",
                    "midi": 60,
                    "time": 955.9608355000037,
                    "velocity": 0.4409448818897638,
                    "duration": 0.1448645000000397
                },
                {
                    "name": "C#4",
                    "midi": 61,
                    "time": 956.1057000000037,
                    "velocity": 0.4409448818897638,
                    "duration": 0.1448645000000397
                },
                {
                    "name": "D4",
                    "midi": 62,
                    "time": 956.2505645000037,
                    "velocity": 0.44881889763779526,
                    "duration": 0.1448645000000397
                },
                {
                    "name": "D#4",
                    "midi": 63,
                    "time": 956.3954290000038,
                    "velocity": 0.44881889763779526,
                    "duration": 0.1448645000000397
                },
                {
                    "name": "E4",
                    "midi": 64,
                    "time": 956.5402935000038,
                    "velocity": 0.4566929133858268,
                    "duration": 0.1448645000000397
                },
                {
                    "name": "F4",
                    "midi": 65,
                    "time": 956.6851580000039,
                    "velocity": 0.4566929133858268,
                    "duration": 0.1448645000000397
                },
                {
                    "name": "F#4",
                    "midi": 66,
                    "time": 956.8300225000039,
                    "velocity": 0.4566929133858268,
                    "duration": 0.1448645000000397
                },
                {
                    "name": "G4",
                    "midi": 67,
                    "time": 956.974887000004,
                    "velocity": 0.4645669291338583,
                    "duration": 0.1448645000000397
                },
                {
                    "name": "G#4",
                    "midi": 68,
                    "time": 957.119751500004,
                    "velocity": 0.4645669291338583,
                    "duration": 0.1448645000000397
                },
                {
                    "name": "A4",
                    "midi": 69,
                    "time": 957.264616000004,
                    "velocity": 0.47244094488188976,
                    "duration": 0.1448645000000397
                },
                {
                    "name": "A#4",
                    "midi": 70,
                    "time": 957.4094805000041,
                    "velocity": 0.47244094488188976,
                    "duration": 0.1448645000000397
                },
                {
                    "name": "B4",
                    "midi": 71,
                    "time": 957.5543450000041,
                    "velocity": 0.47244094488188976,
                    "duration": 0.1448645000000397
                },
                {
                    "name": "C5",
                    "midi": 72,
                    "time": 957.6992095000041,
                    "velocity": 0.48031496062992124,
                    "duration": 0.1448645000000397
                },
                {
                    "name": "C#5",
                    "midi": 73,
                    "time": 957.8440740000042,
                    "velocity": 0.48031496062992124,
                    "duration": 0.1448645000000397
                },
                {
                    "name": "D5",
                    "midi": 74,
                    "time": 957.9889385000042,
                    "velocity": 0.49606299212598426,
                    "duration": 0.1448645000000397
                },
                {
                    "name": "D#5",
                    "midi": 75,
                    "time": 958.1338030000043,
                    "velocity": 0.49606299212598426,
                    "duration": 0.1448645000000397
                },
                {
                    "name": "E5",
                    "midi": 76,
                    "time": 958.2786675000043,
                    "velocity": 0.5039370078740157,
                    "duration": 0.1448645000000397
                },
                {
                    "name": "F5",
                    "midi": 77,
                    "time": 958.4235320000043,
                    "velocity": 0.5039370078740157,
                    "duration": 0.1448645000000397
                },
                {
                    "name": "F#5",
                    "midi": 78,
                    "time": 958.5683965000044,
                    "velocity": 0.5039370078740157,
                    "duration": 0.1448645000000397
                },
                {
                    "name": "G5",
                    "midi": 79,
                    "time": 958.7132610000044,
                    "velocity": 0.5118110236220472,
                    "duration": 0.1448645000000397
                },
                {
                    "name": "G#5",
                    "midi": 80,
                    "time": 958.8581255000045,
                    "velocity": 0.5118110236220472,
                    "duration": 0.1448645000000397
                },
                {
                    "name": "A5",
                    "midi": 81,
                    "time": 959.0029900000045,
                    "velocity": 0.5196850393700787,
                    "duration": 0.1448645000000397
                },
                {
                    "name": "A#5",
                    "midi": 82,
                    "time": 959.1478545000045,
                    "velocity": 0.5196850393700787,
                    "duration": 0.1448645000000397
                },
                {
                    "name": "B5",
                    "midi": 83,
                    "time": 959.2927190000046,
                    "velocity": 0.5196850393700787,
                    "duration": 0.1448645000000397
                },
                {
                    "name": "C6",
                    "midi": 84,
                    "time": 959.4375835000046,
                    "velocity": 0.5275590551181102,
                    "duration": 0.1448645000000397
                },
                {
                    "name": "C#6",
                    "midi": 85,
                    "time": 959.5824480000047,
                    "velocity": 0.5275590551181102,
                    "duration": 0.1448645000000397
                },
                {
                    "name": "D6",
                    "midi": 86,
                    "time": 959.7273125000047,
                    "velocity": 0.5354330708661418,
                    "duration": 0.1448645000000397
                },
                {
                    "name": "D#6",
                    "midi": 87,
                    "time": 959.8721770000047,
                    "velocity": 0.5354330708661418,
                    "duration": 0.1448645000000397
                },
                {
                    "name": "E6",
                    "midi": 88,
                    "time": 960.0170415000048,
                    "velocity": 0.5354330708661418,
                    "duration": 0.1448645000000397
                },
                {
                    "name": "F6",
                    "midi": 89,
                    "time": 960.1619060000048,
                    "velocity": 0.5433070866141733,
                    "duration": 0.1448645000000397
                },
                {
                    "name": "F#6",
                    "midi": 90,
                    "time": 960.3067705000049,
                    "velocity": 0.5433070866141733,
                    "duration": 0.1448645000000397
                },
                {
                    "name": "G6",
                    "midi": 91,
                    "time": 960.4516350000049,
                    "velocity": 0.5511811023622047,
                    "duration": 0.1448645000000397
                },
                {
                    "name": "G#6",
                    "midi": 92,
                    "time": 960.5964995000049,
                    "velocity": 0.5511811023622047,
                    "duration": 0.1448645000000397
                },
                {
                    "name": "A6",
                    "midi": 93,
                    "time": 960.741364000005,
                    "velocity": 0.5511811023622047,
                    "duration": 0.1448645000000397
                },
                {
                    "name": "A#6",
                    "midi": 94,
                    "time": 960.886228500005,
                    "velocity": 0.5590551181102362,
                    "duration": 0.1448645000000397
                },
                {
                    "name": "B6",
                    "midi": 95,
                    "time": 961.0310930000051,
                    "velocity": 0.5590551181102362,
                    "duration": 0.1448645000000397
                },
                {
                    "name": "C#7",
                    "midi": 97,
                    "time": 961.1759575000051,
                    "velocity": 0.5669291338582677,
                    "duration": 0.1448645000000397
                },
                {
                    "name": "D#7",
                    "midi": 99,
                    "time": 961.3208220000051,
                    "velocity": 0.6929133858267716,
                    "duration": 0.21729674999994586
                },
                {
                    "name": "D7",
                    "midi": 98,
                    "time": 961.5381187500051,
                    "velocity": 0.6299212598425197,
                    "duration": 0.21729674999994586
                },
                {
                    "name": "F7",
                    "midi": 101,
                    "time": 961.755415500005,
                    "velocity": 0.6299212598425197,
                    "duration": 0.21729674999994586
                },
                {
                    "name": "D#7",
                    "midi": 99,
                    "time": 961.972712250005,
                    "velocity": 0.6377952755905512,
                    "duration": 0.21729674999994586
                },
                {
                    "name": "D7",
                    "midi": 98,
                    "time": 962.1900090000049,
                    "velocity": 0.6220472440944882,
                    "duration": 0.21729674999994586
                },
                {
                    "name": "C7",
                    "midi": 96,
                    "time": 962.4073057500049,
                    "velocity": 0.6220472440944882,
                    "duration": 0.21729674999994586
                },
                {
                    "name": "B6",
                    "midi": 95,
                    "time": 962.6246025000048,
                    "velocity": 0.6220472440944882,
                    "duration": 0.21729674999994586
                },
                {
                    "name": "D7",
                    "midi": 98,
                    "time": 962.8418992500048,
                    "velocity": 0.6220472440944882,
                    "duration": 0.21729674999994586
                },
                {
                    "name": "C7",
                    "midi": 96,
                    "time": 963.0591960000047,
                    "velocity": 0.6220472440944882,
                    "duration": 0.21729674999994586
                },
                {
                    "name": "A#6",
                    "midi": 94,
                    "time": 963.2764927500046,
                    "velocity": 0.6220472440944882,
                    "duration": 0.21729674999994586
                },
                {
                    "name": "A6",
                    "midi": 93,
                    "time": 963.4937895000046,
                    "velocity": 0.6220472440944882,
                    "duration": 0.21729674999994586
                },
                {
                    "name": "G6",
                    "midi": 91,
                    "time": 963.7110862500045,
                    "velocity": 0.6220472440944882,
                    "duration": 0.21729674999994586
                },
                {
                    "name": "F#6",
                    "midi": 90,
                    "time": 963.9283830000045,
                    "velocity": 0.6220472440944882,
                    "duration": 0.21729674999994586
                },
                {
                    "name": "A6",
                    "midi": 93,
                    "time": 964.1456797500044,
                    "velocity": 0.6220472440944882,
                    "duration": 0.21729674999994586
                },
                {
                    "name": "G6",
                    "midi": 91,
                    "time": 964.3629765000044,
                    "velocity": 0.6220472440944882,
                    "duration": 0.21729674999994586
                },
                {
                    "name": "F#6",
                    "midi": 90,
                    "time": 964.5802732500043,
                    "velocity": 0.6614173228346457,
                    "duration": 0.21729674999994586
                },
                {
                    "name": "D#6",
                    "midi": 87,
                    "time": 964.7975700000043,
                    "velocity": 0.6299212598425197,
                    "duration": 0.21729674999994586
                },
                {
                    "name": "D6",
                    "midi": 86,
                    "time": 965.0148667500042,
                    "velocity": 0.6299212598425197,
                    "duration": 0.21729674999994586
                },
                {
                    "name": "D#6",
                    "midi": 87,
                    "time": 965.2321635000042,
                    "velocity": 0.6299212598425197,
                    "duration": 0.21729674999994586
                },
                {
                    "name": "D6",
                    "midi": 86,
                    "time": 965.4494602500041,
                    "velocity": 0.6220472440944882,
                    "duration": 0.21729674999994586
                },
                {
                    "name": "F6",
                    "midi": 89,
                    "time": 965.666757000004,
                    "velocity": 0.6220472440944882,
                    "duration": 0.21729674999994586
                },
                {
                    "name": "D#6",
                    "midi": 87,
                    "time": 965.884053750004,
                    "velocity": 0.6220472440944882,
                    "duration": 0.21729674999994586
                },
                {
                    "name": "D6",
                    "midi": 86,
                    "time": 966.101350500004,
                    "velocity": 0.6141732283464567,
                    "duration": 0.21729674999994586
                },
                {
                    "name": "C6",
                    "midi": 84,
                    "time": 966.3186472500039,
                    "velocity": 0.6062992125984252,
                    "duration": 0.21729674999994586
                },
                {
                    "name": "B5",
                    "midi": 83,
                    "time": 966.5359440000038,
                    "velocity": 0.6062992125984252,
                    "duration": 0.21729674999994586
                },
                {
                    "name": "D6",
                    "midi": 86,
                    "time": 966.7532407500038,
                    "velocity": 0.5984251968503937,
                    "duration": 0.21729674999994586
                },
                {
                    "name": "C6",
                    "midi": 84,
                    "time": 966.9705375000037,
                    "velocity": 0.5984251968503937,
                    "duration": 0.21729674999994586
                },
                {
                    "name": "A#5",
                    "midi": 82,
                    "time": 967.1878342500037,
                    "velocity": 0.5905511811023622,
                    "duration": 0.21729674999994586
                },
                {
                    "name": "A5",
                    "midi": 81,
                    "time": 967.4051310000036,
                    "velocity": 0.5905511811023622,
                    "duration": 0.21729674999994586
                },
                {
                    "name": "G5",
                    "midi": 79,
                    "time": 967.6224277500036,
                    "velocity": 0.5905511811023622,
                    "duration": 0.21729674999994586
                },
                {
                    "name": "F#5",
                    "midi": 78,
                    "time": 967.8397245000035,
                    "velocity": 0.5905511811023622,
                    "duration": 0.21729674999994586
                },
                {
                    "name": "A5",
                    "midi": 81,
                    "time": 968.0570212500035,
                    "velocity": 0.5905511811023622,
                    "duration": 0.21729674999994586
                },
                {
                    "name": "G5",
                    "midi": 79,
                    "time": 968.2743180000034,
                    "velocity": 0.5905511811023622,
                    "duration": 0.21729674999994586
                },
                {
                    "name": "F#5",
                    "midi": 78,
                    "time": 968.4916147500034,
                    "velocity": 0.5905511811023622,
                    "duration": 0.21729674999994586
                },
                {
                    "name": "D#5",
                    "midi": 75,
                    "time": 968.7089115000033,
                    "velocity": 0.5905511811023622,
                    "duration": 0.21729674999994586
                },
                {
                    "name": "D5",
                    "midi": 74,
                    "time": 968.9262082500032,
                    "velocity": 0.5905511811023622,
                    "duration": 0.21729674999994586
                },
                {
                    "name": "D#5",
                    "midi": 75,
                    "time": 969.1435050000032,
                    "velocity": 0.5826771653543307,
                    "duration": 0.21729674999994586
                },
                {
                    "name": "D5",
                    "midi": 74,
                    "time": 969.3608017500031,
                    "velocity": 0.5826771653543307,
                    "duration": 0.21729674999994586
                },
                {
                    "name": "F5",
                    "midi": 77,
                    "time": 969.5780985000031,
                    "velocity": 0.5826771653543307,
                    "duration": 0.21729674999994586
                },
                {
                    "name": "D#5",
                    "midi": 75,
                    "time": 969.795395250003,
                    "velocity": 0.5826771653543307,
                    "duration": 0.21729674999994586
                },
                {
                    "name": "D5",
                    "midi": 74,
                    "time": 970.012692000003,
                    "velocity": 0.5826771653543307,
                    "duration": 0.21729674999994586
                },
                {
                    "name": "C5",
                    "midi": 72,
                    "time": 970.2299887500029,
                    "velocity": 0.5826771653543307,
                    "duration": 0.21729674999994586
                },
                {
                    "name": "B4",
                    "midi": 71,
                    "time": 970.4472855000029,
                    "velocity": 0.5826771653543307,
                    "duration": 0.21729674999994586
                },
                {
                    "name": "D5",
                    "midi": 74,
                    "time": 970.6645822500028,
                    "velocity": 0.5748031496062992,
                    "duration": 0.21729674999994586
                },
                {
                    "name": "C5",
                    "midi": 72,
                    "time": 970.8818790000028,
                    "velocity": 0.5748031496062992,
                    "duration": 0.21729674999994586
                },
                {
                    "name": "A#4",
                    "midi": 70,
                    "time": 971.0991757500027,
                    "velocity": 0.5748031496062992,
                    "duration": 0.21729674999994586
                },
                {
                    "name": "A4",
                    "midi": 69,
                    "time": 971.3164725000026,
                    "velocity": 0.5748031496062992,
                    "duration": 0.21729674999994586
                },
                {
                    "name": "G4",
                    "midi": 67,
                    "time": 971.5337692500026,
                    "velocity": 0.5748031496062992,
                    "duration": 0.21729674999994586
                },
                {
                    "name": "F#4",
                    "midi": 66,
                    "time": 971.7510660000025,
                    "velocity": 0.5826771653543307,
                    "duration": 0.21729674999994586
                },
                {
                    "name": "D#4",
                    "midi": 63,
                    "time": 971.9683627500025,
                    "velocity": 0.5905511811023622,
                    "duration": 0.21729674999994586
                },
                {
                    "name": "D4",
                    "midi": 62,
                    "time": 972.1856595000024,
                    "velocity": 0.5984251968503937,
                    "duration": 0.21729674999994586
                },
                {
                    "name": "C4",
                    "midi": 60,
                    "time": 972.4029562500024,
                    "velocity": 0.5984251968503937,
                    "duration": 0.21729674999994586
                },
                {
                    "name": "A#3",
                    "midi": 58,
                    "time": 972.6202530000023,
                    "velocity": 0.5984251968503937,
                    "duration": 0.21729674999994586
                },
                {
                    "name": "A3",
                    "midi": 57,
                    "time": 972.8375497500023,
                    "velocity": 0.6220472440944882,
                    "duration": 0.21729674999994586
                },
                {
                    "name": "G3",
                    "midi": 55,
                    "time": 973.0548465000022,
                    "velocity": 0.6377952755905512,
                    "duration": 0.21729674999994586
                },
                {
                    "name": "F#3",
                    "midi": 54,
                    "time": 973.2721432500022,
                    "velocity": 0.6535433070866141,
                    "duration": 0.21729674999994586
                },
                {
                    "name": "D#3",
                    "midi": 51,
                    "time": 973.4894400000021,
                    "velocity": 0.6614173228346457,
                    "duration": 0.21729674999994586
                },
                {
                    "name": "D3",
                    "midi": 50,
                    "time": 973.706736750002,
                    "velocity": 0.6614173228346457,
                    "duration": 0.21729674999994586
                },
                {
                    "name": "C3",
                    "midi": 48,
                    "time": 973.924033500002,
                    "velocity": 0.6692913385826772,
                    "duration": 0.21729674999994586
                },
                {
                    "name": "A#2",
                    "midi": 46,
                    "time": 974.1413302500019,
                    "velocity": 0.6771653543307087,
                    "duration": 0.21729674999994586
                },
                {
                    "name": "A2",
                    "midi": 45,
                    "time": 974.3586270000019,
                    "velocity": 0.6929133858267716,
                    "duration": 0.21729674999994586
                },
                {
                    "name": "G2",
                    "midi": 43,
                    "time": 974.5759237500018,
                    "velocity": 0.7007874015748031,
                    "duration": 0.21729674999994586
                },
                {
                    "name": "F#2",
                    "midi": 42,
                    "time": 974.7932205000018,
                    "velocity": 0.7165354330708661,
                    "duration": 0.21729674999994586
                },
                {
                    "name": "D#2",
                    "midi": 39,
                    "time": 975.0105172500017,
                    "velocity": 0.7322834645669292,
                    "duration": 0.21729674999994586
                },
                {
                    "name": "D2",
                    "midi": 38,
                    "time": 975.2278140000017,
                    "velocity": 0.7401574803149606,
                    "duration": 0.21729674999994586
                },
                {
                    "name": "C2",
                    "midi": 36,
                    "time": 975.4451107500016,
                    "velocity": 0.7401574803149606,
                    "duration": 0.21729674999994586
                },
                {
                    "name": "A#1",
                    "midi": 34,
                    "time": 975.6624075000016,
                    "velocity": 0.7480314960629921,
                    "duration": 0.21729674999994586
                },
                {
                    "name": "A1",
                    "midi": 33,
                    "time": 975.8797042500015,
                    "velocity": 0.7637795275590551,
                    "duration": 0.21729674999994586
                },
                {
                    "name": "A2",
                    "midi": 45,
                    "time": 978.0526717500014,
                    "velocity": 0.5905511811023622,
                    "duration": 0.21729674999994586
                },
                {
                    "name": "A#2",
                    "midi": 46,
                    "time": 978.2699685000014,
                    "velocity": 0.5905511811023622,
                    "duration": 0.21729674999994586
                },
                {
                    "name": "C3",
                    "midi": 48,
                    "time": 978.4872652500013,
                    "velocity": 0.5984251968503937,
                    "duration": 0.21729674999994586
                },
                {
                    "name": "D3",
                    "midi": 50,
                    "time": 978.7045620000013,
                    "velocity": 0.6062992125984252,
                    "duration": 0.21729674999994586
                },
                {
                    "name": "E3",
                    "midi": 52,
                    "time": 978.9218587500012,
                    "velocity": 0.6062992125984252,
                    "duration": 0.21729674999994586
                },
                {
                    "name": "F#3",
                    "midi": 54,
                    "time": 979.1391555000012,
                    "velocity": 0.6141732283464567,
                    "duration": 0.21729674999994586
                },
                {
                    "name": "G3",
                    "midi": 55,
                    "time": 979.3564522500011,
                    "velocity": 0.6141732283464567,
                    "duration": 0.21729674999994586
                },
                {
                    "name": "A3",
                    "midi": 57,
                    "time": 979.573749000001,
                    "velocity": 0.6220472440944882,
                    "duration": 0.21729674999994586
                },
                {
                    "name": "A#3",
                    "midi": 58,
                    "time": 979.791045750001,
                    "velocity": 0.6299212598425197,
                    "duration": 0.21729674999994586
                },
                {
                    "name": "C4",
                    "midi": 60,
                    "time": 980.0083425000009,
                    "velocity": 0.6299212598425197,
                    "duration": 0.21729674999994586
                },
                {
                    "name": "D4",
                    "midi": 62,
                    "time": 980.2256392500009,
                    "velocity": 0.6377952755905512,
                    "duration": 0.21729674999994586
                },
                {
                    "name": "E4",
                    "midi": 64,
                    "time": 980.4429360000008,
                    "velocity": 0.6377952755905512,
                    "duration": 0.21729674999994586
                },
                {
                    "name": "F#4",
                    "midi": 66,
                    "time": 980.6602327500008,
                    "velocity": 0.6456692913385826,
                    "duration": 0.21729674999994586
                },
                {
                    "name": "G4",
                    "midi": 67,
                    "time": 980.8775295000007,
                    "velocity": 0.6535433070866141,
                    "duration": 0.21729674999994586
                },
                {
                    "name": "A4",
                    "midi": 69,
                    "time": 981.0948262500007,
                    "velocity": 0.6535433070866141,
                    "duration": 0.21729674999994586
                },
                {
                    "name": "A#4",
                    "midi": 70,
                    "time": 981.3121230000006,
                    "velocity": 0.6614173228346457,
                    "duration": 0.21729674999994586
                },
                {
                    "name": "C5",
                    "midi": 72,
                    "time": 981.5294197500006,
                    "velocity": 0.6614173228346457,
                    "duration": 0.21729674999994586
                },
                {
                    "name": "D5",
                    "midi": 74,
                    "time": 981.7467165000005,
                    "velocity": 0.6692913385826772,
                    "duration": 0.21729674999994586
                },
                {
                    "name": "E5",
                    "midi": 76,
                    "time": 981.9640132500004,
                    "velocity": 0.6771653543307087,
                    "duration": 0.21729674999994586
                },
                {
                    "name": "F#5",
                    "midi": 78,
                    "time": 982.1813100000004,
                    "velocity": 0.6771653543307087,
                    "duration": 0.21729674999994586
                },
                {
                    "name": "G5",
                    "midi": 79,
                    "time": 982.3986067500003,
                    "velocity": 0.7007874015748031,
                    "duration": 0.21729674999994586
                },
                {
                    "name": "A#2",
                    "midi": 46,
                    "time": 986.7445417500003,
                    "velocity": 0.6692913385826772,
                    "duration": 1.0864837499999567
                },
                {
                    "name": "C3",
                    "midi": 48,
                    "time": 987.8310255000002,
                    "velocity": 0.5590551181102362,
                    "duration": 0.21729674999994586
                },
                {
                    "name": "D3",
                    "midi": 50,
                    "time": 988.0483222500002,
                    "velocity": 0.5590551181102362,
                    "duration": 0.21729674999994586
                },
                {
                    "name": "E3",
                    "midi": 52,
                    "time": 988.2656190000001,
                    "velocity": 0.5590551181102362,
                    "duration": 0.21729674999994586
                },
                {
                    "name": "F#3",
                    "midi": 54,
                    "time": 988.4829157500001,
                    "velocity": 0.5669291338582677,
                    "duration": 0.21729674999994586
                },
                {
                    "name": "G3",
                    "midi": 55,
                    "time": 988.7002125,
                    "velocity": 0.5669291338582677,
                    "duration": 0.21729674999994586
                },
                {
                    "name": "A3",
                    "midi": 57,
                    "time": 988.91750925,
                    "velocity": 0.5669291338582677,
                    "duration": 0.21729674999994586
                },
                {
                    "name": "A#3",
                    "midi": 58,
                    "time": 989.1348059999999,
                    "velocity": 0.5748031496062992,
                    "duration": 0.21729674999994586
                },
                {
                    "name": "C4",
                    "midi": 60,
                    "time": 989.3521027499999,
                    "velocity": 0.5748031496062992,
                    "duration": 0.21729674999994586
                },
                {
                    "name": "D4",
                    "midi": 62,
                    "time": 989.5693994999998,
                    "velocity": 0.5748031496062992,
                    "duration": 0.21729674999994586
                },
                {
                    "name": "E4",
                    "midi": 64,
                    "time": 989.7866962499997,
                    "velocity": 0.5826771653543307,
                    "duration": 0.21729674999994586
                },
                {
                    "name": "F#4",
                    "midi": 66,
                    "time": 990.0039929999997,
                    "velocity": 0.5826771653543307,
                    "duration": 0.21729674999994586
                },
                {
                    "name": "G4",
                    "midi": 67,
                    "time": 990.2212897499996,
                    "velocity": 0.5826771653543307,
                    "duration": 0.21729674999994586
                },
                {
                    "name": "A4",
                    "midi": 69,
                    "time": 990.4385864999996,
                    "velocity": 0.5905511811023622,
                    "duration": 0.21729674999994586
                },
                {
                    "name": "A#4",
                    "midi": 70,
                    "time": 990.6558832499995,
                    "velocity": 0.5905511811023622,
                    "duration": 0.21729674999994586
                },
                {
                    "name": "C5",
                    "midi": 72,
                    "time": 990.8731799999995,
                    "velocity": 0.5905511811023622,
                    "duration": 0.21729674999994586
                },
                {
                    "name": "D5",
                    "midi": 74,
                    "time": 991.0904767499994,
                    "velocity": 0.5984251968503937,
                    "duration": 0.21729674999994586
                },
                {
                    "name": "E5",
                    "midi": 76,
                    "time": 991.3077734999994,
                    "velocity": 0.5984251968503937,
                    "duration": 0.21729674999994586
                },
                {
                    "name": "F#5",
                    "midi": 78,
                    "time": 991.5250702499993,
                    "velocity": 0.5984251968503937,
                    "duration": 0.21729674999994586
                },
                {
                    "name": "G5",
                    "midi": 79,
                    "time": 991.7423669999993,
                    "velocity": 0.6062992125984252,
                    "duration": 0.21729674999994586
                },
                {
                    "name": "A5",
                    "midi": 81,
                    "time": 991.9596637499992,
                    "velocity": 0.6062992125984252,
                    "duration": 0.21729674999994586
                },
                {
                    "name": "A#5",
                    "midi": 82,
                    "time": 992.1769604999992,
                    "velocity": 0.6062992125984252,
                    "duration": 0.21729674999994586
                },
                {
                    "name": "C6",
                    "midi": 84,
                    "time": 992.3942572499991,
                    "velocity": 0.6141732283464567,
                    "duration": 0.21729674999994586
                },
                {
                    "name": "D6",
                    "midi": 86,
                    "time": 992.611553999999,
                    "velocity": 0.6141732283464567,
                    "duration": 0.21729674999994586
                },
                {
                    "name": "E6",
                    "midi": 88,
                    "time": 992.828850749999,
                    "velocity": 0.6141732283464567,
                    "duration": 0.21729674999994586
                },
                {
                    "name": "F#6",
                    "midi": 90,
                    "time": 993.0461474999989,
                    "velocity": 0.6220472440944882,
                    "duration": 0.21729674999994586
                },
                {
                    "name": "G6",
                    "midi": 91,
                    "time": 993.2634442499989,
                    "velocity": 0.6220472440944882,
                    "duration": 0.21729674999994586
                },
                {
                    "name": "A6",
                    "midi": 93,
                    "time": 993.4807409999988,
                    "velocity": 0.6220472440944882,
                    "duration": 0.21729674999994586
                },
                {
                    "name": "A#6",
                    "midi": 94,
                    "time": 993.6980377499988,
                    "velocity": 0.6850393700787402,
                    "duration": 0.21729674999994586
                },
                {
                    "name": "D3",
                    "midi": 50,
                    "time": 994.5672247499987,
                    "velocity": 0.29133858267716534,
                    "duration": 0.6518902499999513
                },
                {
                    "name": "D4",
                    "midi": 62,
                    "time": 994.5672247499987,
                    "velocity": 0.3543307086614173,
                    "duration": 0.6518902499999513
                },
                {
                    "name": "A#3",
                    "midi": 58,
                    "time": 994.5672247499987,
                    "velocity": 0.29133858267716534,
                    "duration": 0.6518902499999513
                },
                {
                    "name": "G3",
                    "midi": 55,
                    "time": 994.5672247499987,
                    "velocity": 0.29133858267716534,
                    "duration": 0.6518902499999513
                },
                {
                    "name": "D3",
                    "midi": 50,
                    "time": 995.2191149999986,
                    "velocity": 0.29133858267716534,
                    "duration": 0.21729674999994586
                },
                {
                    "name": "D4",
                    "midi": 62,
                    "time": 995.2191149999986,
                    "velocity": 0.3543307086614173,
                    "duration": 0.21729674999994586
                },
                {
                    "name": "A#3",
                    "midi": 58,
                    "time": 995.2191149999986,
                    "velocity": 0.29133858267716534,
                    "duration": 0.21729674999994586
                },
                {
                    "name": "G3",
                    "midi": 55,
                    "time": 995.2191149999986,
                    "velocity": 0.29133858267716534,
                    "duration": 0.21729674999994586
                },
                {
                    "name": "G3",
                    "midi": 55,
                    "time": 995.4364117499986,
                    "velocity": 0.29133858267716534,
                    "duration": 0.8691870000000108
                },
                {
                    "name": "D3",
                    "midi": 50,
                    "time": 995.4364117499986,
                    "velocity": 0.29133858267716534,
                    "duration": 0.8691870000000108
                },
                {
                    "name": "A#3",
                    "midi": 58,
                    "time": 995.4364117499986,
                    "velocity": 0.29133858267716534,
                    "duration": 0.8691870000000108
                },
                {
                    "name": "D4",
                    "midi": 62,
                    "time": 995.4364117499986,
                    "velocity": 0.3543307086614173,
                    "duration": 0.8691870000000108
                },
                {
                    "name": "D4",
                    "midi": 62,
                    "time": 996.4504632499986,
                    "velocity": 0.7401574803149606,
                    "duration": 0.1448645000000397
                },
                {
                    "name": "G4",
                    "midi": 67,
                    "time": 996.5953277499987,
                    "velocity": 0.7401574803149606,
                    "duration": 0.1448645000000397
                },
                {
                    "name": "A#4",
                    "midi": 70,
                    "time": 996.7401922499987,
                    "velocity": 0.7795275590551181,
                    "duration": 0.1448645000000397
                },
                {
                    "name": "D#5",
                    "midi": 75,
                    "time": 996.8850567499987,
                    "velocity": 0.7874015748031497,
                    "duration": 0.1448645000000397
                },
                {
                    "name": "D5",
                    "midi": 74,
                    "time": 997.0299212499988,
                    "velocity": 0.7401574803149606,
                    "duration": 0.12675643750003474
                },
                {
                    "name": "D5",
                    "midi": 74,
                    "time": 997.1747857499988,
                    "velocity": 0.7401574803149606,
                    "duration": 0.21729674999994586
                },
                {
                    "name": "E7",
                    "midi": 100,
                    "time": 997.9896485624988,
                    "velocity": 0.8188976377952756,
                    "duration": 0.2354048125000645
                },
                {
                    "name": "E6",
                    "midi": 88,
                    "time": 998.0439727499988,
                    "velocity": 0.8582677165354331,
                    "duration": 0.18108062500004962
                },
                {
                    "name": "D#7",
                    "midi": 99,
                    "time": 998.2793775624989,
                    "velocity": 0.8346456692913385,
                    "duration": 0.2354048125000645
                },
                {
                    "name": "D#6",
                    "midi": 87,
                    "time": 998.3337017499989,
                    "velocity": 0.8503937007874016,
                    "duration": 0.18108062500004962
                },
                {
                    "name": "D7",
                    "midi": 98,
                    "time": 998.569106562499,
                    "velocity": 0.8188976377952756,
                    "duration": 0.2354048125000645
                },
                {
                    "name": "D6",
                    "midi": 86,
                    "time": 998.623430749999,
                    "velocity": 0.84251968503937,
                    "duration": 0.18108062500004962
                },
                {
                    "name": "C#7",
                    "midi": 97,
                    "time": 998.858835562499,
                    "velocity": 0.7874015748031497,
                    "duration": 0.2354048125000645
                },
                {
                    "name": "C#6",
                    "midi": 85,
                    "time": 998.9131597499991,
                    "velocity": 0.8346456692913385,
                    "duration": 0.18108062500004962
                },
                {
                    "name": "C7",
                    "midi": 96,
                    "time": 999.1485645624991,
                    "velocity": 0.8031496062992126,
                    "duration": 0.2354048125000645
                },
                {
                    "name": "C6",
                    "midi": 84,
                    "time": 999.2028887499991,
                    "velocity": 0.8110236220472441,
                    "duration": 0.18108062500004962
                },
                {
                    "name": "B6",
                    "midi": 95,
                    "time": 999.4382935624992,
                    "velocity": 0.8110236220472441,
                    "duration": 0.2354048125000645
                },
                {
                    "name": "B5",
                    "midi": 83,
                    "time": 999.4926177499992,
                    "velocity": 0.8031496062992126,
                    "duration": 0.18108062500004962
                },
                {
                    "name": "A#6",
                    "midi": 94,
                    "time": 999.7280225624993,
                    "velocity": 0.8031496062992126,
                    "duration": 0.2354048125000645
                },
                {
                    "name": "A#5",
                    "midi": 82,
                    "time": 999.7823467499993,
                    "velocity": 0.7952755905511811,
                    "duration": 0.18108062500004962
                },
                {
                    "name": "A6",
                    "midi": 93,
                    "time": 1000.0177515624994,
                    "velocity": 0.7952755905511811,
                    "duration": 0.2354048125000645
                },
                {
                    "name": "A5",
                    "midi": 81,
                    "time": 1000.0720757499994,
                    "velocity": 0.7874015748031497,
                    "duration": 0.18108062500004962
                },
                {
                    "name": "G#6",
                    "midi": 92,
                    "time": 1000.3074805624994,
                    "velocity": 0.7795275590551181,
                    "duration": 0.2354048125000645
                },
                {
                    "name": "G#5",
                    "midi": 80,
                    "time": 1000.3618047499995,
                    "velocity": 0.7795275590551181,
                    "duration": 0.18108062500004962
                },
                {
                    "name": "G5",
                    "midi": 79,
                    "time": 1000.6515337499995,
                    "velocity": 0.6929133858267716,
                    "duration": 0.21729674999994586
                },
                {
                    "name": "G6",
                    "midi": 91,
                    "time": 1000.6515337499995,
                    "velocity": 0.7716535433070866,
                    "duration": 0.21729674999994586
                },
                {
                    "name": "F#6",
                    "midi": 90,
                    "time": 1000.9412627499995,
                    "velocity": 0.7637795275590551,
                    "duration": 0.21729674999994586
                },
                {
                    "name": "F#5",
                    "midi": 78,
                    "time": 1000.9412627499995,
                    "velocity": 0.6850393700787402,
                    "duration": 0.21729674999994586
                },
                {
                    "name": "F6",
                    "midi": 89,
                    "time": 1001.2309917499995,
                    "velocity": 0.7637795275590551,
                    "duration": 0.21729674999994586
                },
                {
                    "name": "F5",
                    "midi": 77,
                    "time": 1001.2309917499995,
                    "velocity": 0.6850393700787402,
                    "duration": 0.21729674999994586
                },
                {
                    "name": "E5",
                    "midi": 76,
                    "time": 1001.5207207499994,
                    "velocity": 0.6771653543307087,
                    "duration": 0.21729674999994586
                },
                {
                    "name": "E6",
                    "midi": 88,
                    "time": 1001.5207207499994,
                    "velocity": 0.7559055118110236,
                    "duration": 0.21729674999994586
                },
                {
                    "name": "D#6",
                    "midi": 87,
                    "time": 1001.8104497499994,
                    "velocity": 0.7480314960629921,
                    "duration": 0.21729674999994586
                },
                {
                    "name": "D#5",
                    "midi": 75,
                    "time": 1001.8104497499994,
                    "velocity": 0.6692913385826772,
                    "duration": 0.21729674999994586
                },
                {
                    "name": "D5",
                    "midi": 74,
                    "time": 1002.1001787499994,
                    "velocity": 0.6614173228346457,
                    "duration": 0.21729674999994586
                },
                {
                    "name": "D6",
                    "midi": 86,
                    "time": 1002.1001787499994,
                    "velocity": 0.7401574803149606,
                    "duration": 0.21729674999994586
                },
                {
                    "name": "C#6",
                    "midi": 85,
                    "time": 1002.3899077499993,
                    "velocity": 0.7322834645669292,
                    "duration": 0.21729674999994586
                },
                {
                    "name": "C#5",
                    "midi": 73,
                    "time": 1002.3899077499993,
                    "velocity": 0.6535433070866141,
                    "duration": 0.21729674999994586
                },
                {
                    "name": "C6",
                    "midi": 84,
                    "time": 1002.6796367499993,
                    "velocity": 0.7165354330708661,
                    "duration": 0.21729674999994586
                },
                {
                    "name": "C5",
                    "midi": 72,
                    "time": 1002.6796367499993,
                    "velocity": 0.6377952755905512,
                    "duration": 0.21729674999994586
                },
                {
                    "name": "B5",
                    "midi": 83,
                    "time": 1002.9693657499993,
                    "velocity": 0.7480314960629921,
                    "duration": 0.21729674999994586
                },
                {
                    "name": "B4",
                    "midi": 71,
                    "time": 1002.9693657499993,
                    "velocity": 0.6692913385826772,
                    "duration": 0.21729674999994586
                },
                {
                    "name": "A#4",
                    "midi": 70,
                    "time": 1003.2590947499992,
                    "velocity": 0.7007874015748031,
                    "duration": 0.21729674999994586
                },
                {
                    "name": "A#5",
                    "midi": 82,
                    "time": 1003.2590947499992,
                    "velocity": 0.7795275590551181,
                    "duration": 0.21729674999994586
                },
                {
                    "name": "A5",
                    "midi": 81,
                    "time": 1003.5488237499992,
                    "velocity": 0.8110236220472441,
                    "duration": 0.21729674999994586
                },
                {
                    "name": "A4",
                    "midi": 69,
                    "time": 1003.5488237499992,
                    "velocity": 0.7244094488188977,
                    "duration": 0.21729674999994586
                },
                {
                    "name": "G#4",
                    "midi": 68,
                    "time": 1003.8385527499992,
                    "velocity": 0.7637795275590551,
                    "duration": 0.21729674999994586
                },
                {
                    "name": "G#5",
                    "midi": 80,
                    "time": 1003.8385527499992,
                    "velocity": 0.8503937007874016,
                    "duration": 0.21729674999994586
                },
                {
                    "name": "G4",
                    "midi": 67,
                    "time": 1004.1282817499991,
                    "velocity": 0.7559055118110236,
                    "duration": 0.8691870000000108
                },
                {
                    "name": "G5",
                    "midi": 79,
                    "time": 1004.1282817499991,
                    "velocity": 0.889763779527559,
                    "duration": 0.8691870000000108
                },
                {
                    "name": "D6",
                    "midi": 86,
                    "time": 1005.8666557499992,
                    "velocity": 0.7244094488188977,
                    "duration": 1.7383740000000216
                },
                {
                    "name": "A#5",
                    "midi": 82,
                    "time": 1005.8666557499992,
                    "velocity": 0.7244094488188977,
                    "duration": 1.7383740000000216
                },
                {
                    "name": "G6",
                    "midi": 91,
                    "time": 1005.8666557499992,
                    "velocity": 0.8503937007874016,
                    "duration": 1.7383740000000216
                },
                {
                    "name": "A#6",
                    "midi": 94,
                    "time": 1005.8666557499992,
                    "velocity": 0.8503937007874016,
                    "duration": 1.7383740000000216
                },
                {
                    "name": "G3",
                    "midi": 55,
                    "time": 1007.6050297499992,
                    "velocity": 0.9212598425196851,
                    "duration": 1.7383740000000216
                }
            ],
            "controlChanges": {
                "7": [
                    {
                        "number": 7,
                        "time": 0,
                        "value": 0.7874015748031497
                    }
                ],
                "10": [
                    {
                        "number": 10,
                        "time": 0,
                        "value": 0.5039370078740157
                    }
                ],
                "91": [
                    {
                        "number": 91,
                        "time": 0,
                        "value": 1
                    }
                ]
            },
            "id": 1,
            "name": "Piano right",
            "instrumentNumber": 0,
            "instrument": "acoustic grand piano",
            "instrumentFamily": "piano",
            "channelNumber": 0,
            "isPercussion": false
        },
        {
            "startTime": 0.0018108062499999997,
            "duration": 1009.343403749998,
            "length": 2176,
            "notes": [
                {
                    "name": "C2",
                    "midi": 36,
                    "time": 0.0018108062499999997,
                    "velocity": 0.5826771653543307,
                    "duration": 2.17115669375
                },
                {
                    "name": "D#2",
                    "midi": 39,
                    "time": 2.1729675,
                    "velocity": 0.5196850393700787,
                    "duration": 0.4345935000000001
                },
                {
                    "name": "G#2",
                    "midi": 44,
                    "time": 2.607561,
                    "velocity": 0.5511811023622047,
                    "duration": 0.4345935000000001
                },
                {
                    "name": "A#2",
                    "midi": 46,
                    "time": 3.0421545,
                    "velocity": 0.5039370078740157,
                    "duration": 0.4345935000000001
                },
                {
                    "name": "C3",
                    "midi": 48,
                    "time": 3.476748,
                    "velocity": 0.5511811023622047,
                    "duration": 0.4345935000000001
                },
                {
                    "name": "G#2",
                    "midi": 44,
                    "time": 3.9113415000000002,
                    "velocity": 0.49606299212598426,
                    "duration": 0.43459349999999963
                },
                {
                    "name": "D#3",
                    "midi": 51,
                    "time": 4.345935,
                    "velocity": 0.49606299212598426,
                    "duration": 0.4345935000000001
                },
                {
                    "name": "A#3",
                    "midi": 58,
                    "time": 4.7805285,
                    "velocity": 0.4330708661417323,
                    "duration": 0.4345935000000001
                },
                {
                    "name": "C4",
                    "midi": 60,
                    "time": 5.215122,
                    "velocity": 0.4566929133858268,
                    "duration": 0.4345935000000001
                },
                {
                    "name": "G#3",
                    "midi": 56,
                    "time": 5.6497155,
                    "velocity": 0.4251968503937008,
                    "duration": 0.4345935000000001
                },
                {
                    "name": "D#4",
                    "midi": 63,
                    "time": 6.084309,
                    "velocity": 0.4881889763779528,
                    "duration": 0.4345935000000001
                },
                {
                    "name": "A#4",
                    "midi": 70,
                    "time": 6.5189025,
                    "velocity": 0.4251968503937008,
                    "duration": 0.4345935000000001
                },
                {
                    "name": "C5",
                    "midi": 72,
                    "time": 6.953496,
                    "velocity": 0.44881889763779526,
                    "duration": 0.4345935000000001
                },
                {
                    "name": "G4",
                    "midi": 67,
                    "time": 7.3880895,
                    "velocity": 0.3779527559055118,
                    "duration": 0.4345935000000001
                },
                {
                    "name": "A#4",
                    "midi": 70,
                    "time": 7.8226830000000005,
                    "velocity": 0.41732283464566927,
                    "duration": 0.4345934999999992
                },
                {
                    "name": "G#4",
                    "midi": 68,
                    "time": 8.2572765,
                    "velocity": 0.2755905511811024,
                    "duration": 0.4345935000000001
                },
                {
                    "name": "G4",
                    "midi": 67,
                    "time": 8.69187,
                    "velocity": 0.25196850393700787,
                    "duration": 0.8691870000000002
                },
                {
                    "name": "F#4",
                    "midi": 66,
                    "time": 9.561057,
                    "velocity": 0.2125984251968504,
                    "duration": 0.4345935000000001
                },
                {
                    "name": "F#4",
                    "midi": 66,
                    "time": 10.8648375,
                    "velocity": 0.2677165354330709,
                    "duration": 0.4345935000000001
                },
                {
                    "name": "G4",
                    "midi": 67,
                    "time": 11.299431,
                    "velocity": 0.29133858267716534,
                    "duration": 0.4345935000000001
                },
                {
                    "name": "F#4",
                    "midi": 66,
                    "time": 11.7340245,
                    "velocity": 0.2677165354330709,
                    "duration": 0.4345935000000001
                },
                {
                    "name": "F4",
                    "midi": 65,
                    "time": 12.168618,
                    "velocity": 0.29133858267716534,
                    "duration": 0.4345935000000001
                },
                {
                    "name": "F#4",
                    "midi": 66,
                    "time": 12.6032115,
                    "velocity": 0.2677165354330709,
                    "duration": 0.4345935000000001
                },
                {
                    "name": "A4",
                    "midi": 69,
                    "time": 13.037805,
                    "velocity": 0.2992125984251969,
                    "duration": 0.28972899999999946
                },
                {
                    "name": "G4",
                    "midi": 67,
                    "time": 13.327534,
                    "velocity": 0.2677165354330709,
                    "duration": 0.28972899999999946
                },
                {
                    "name": "D#4",
                    "midi": 63,
                    "time": 13.617263,
                    "velocity": 0.29133858267716534,
                    "duration": 0.28972899999999946
                },
                {
                    "name": "D#4",
                    "midi": 63,
                    "time": 13.906991999999999,
                    "velocity": 0.28346456692913385,
                    "duration": 0.6518902499999992
                },
                {
                    "name": "D4",
                    "midi": 62,
                    "time": 14.558882249999998,
                    "velocity": 0.25984251968503935,
                    "duration": 0.21729674999999915
                },
                {
                    "name": "F4",
                    "midi": 65,
                    "time": 14.776178999999997,
                    "velocity": 0.2677165354330709,
                    "duration": 0.28972899999999946
                },
                {
                    "name": "D#4",
                    "midi": 63,
                    "time": 15.065907999999997,
                    "velocity": 0.25984251968503935,
                    "duration": 0.28972899999999946
                },
                {
                    "name": "D4",
                    "midi": 62,
                    "time": 15.355636999999996,
                    "velocity": 0.2047244094488189,
                    "duration": 0.26075610000000005
                },
                {
                    "name": "D4",
                    "midi": 62,
                    "time": 15.645365999999996,
                    "velocity": 0.1889763779527559,
                    "duration": 0.8691870000000002
                },
                {
                    "name": "G3",
                    "midi": 55,
                    "time": 19.122113999999996,
                    "velocity": 0.33070866141732286,
                    "duration": 1.7383740000000003
                },
                {
                    "name": "D#3",
                    "midi": 51,
                    "time": 19.122113999999996,
                    "velocity": 0.33070866141732286,
                    "duration": 1.7383740000000003
                },
                {
                    "name": "C4",
                    "midi": 60,
                    "time": 19.122113999999996,
                    "velocity": 0.33070866141732286,
                    "duration": 1.7383740000000003
                },
                {
                    "name": "D3",
                    "midi": 50,
                    "time": 20.860487999999997,
                    "velocity": 0.3464566929133858,
                    "duration": 3.476747999999997
                },
                {
                    "name": "G3",
                    "midi": 55,
                    "time": 21.077784749999996,
                    "velocity": 0.3779527559055118,
                    "duration": 3.259451249999998
                },
                {
                    "name": "D#4",
                    "midi": 63,
                    "time": 21.295081499999995,
                    "velocity": 0.4409448818897638,
                    "duration": 3.0421544999999988
                },
                {
                    "name": "D2",
                    "midi": 38,
                    "time": 26.944796999999994,
                    "velocity": 0.36220472440944884,
                    "duration": 0.4345934999999983
                },
                {
                    "name": "G2",
                    "midi": 43,
                    "time": 30.42154499999999,
                    "velocity": 0.2125984251968504,
                    "duration": 0.8601329687500012
                },
                {
                    "name": "G2",
                    "midi": 43,
                    "time": 31.29073199999999,
                    "velocity": 0.2125984251968504,
                    "duration": 0.8601329687500012
                },
                {
                    "name": "A#3",
                    "midi": 58,
                    "time": 33.02910599999999,
                    "velocity": 0.1968503937007874,
                    "duration": 0.8601329687500012
                },
                {
                    "name": "A#3",
                    "midi": 58,
                    "time": 33.898292999999995,
                    "velocity": 0.1968503937007874,
                    "duration": 0.8601329687500012
                },
                {
                    "name": "A3",
                    "midi": 57,
                    "time": 35.636666999999996,
                    "velocity": 0.1732283464566929,
                    "duration": 0.8601329687500012
                },
                {
                    "name": "A3",
                    "midi": 57,
                    "time": 36.505854,
                    "velocity": 0.1732283464566929,
                    "duration": 0.8601329687500012
                },
                {
                    "name": "D2",
                    "midi": 38,
                    "time": 38.244228,
                    "velocity": 0.36220472440944884,
                    "duration": 0.4345934999999983
                },
                {
                    "name": "D2",
                    "midi": 38,
                    "time": 39.113414999999996,
                    "velocity": 0.36220472440944884,
                    "duration": 0.4345934999999983
                },
                {
                    "name": "G2",
                    "midi": 43,
                    "time": 40.85178899999999,
                    "velocity": 0.2125984251968504,
                    "duration": 0.8601329687500012
                },
                {
                    "name": "G2",
                    "midi": 43,
                    "time": 41.72097599999999,
                    "velocity": 0.2125984251968504,
                    "duration": 0.8601329687500012
                },
                {
                    "name": "A2",
                    "midi": 45,
                    "time": 43.45934999999999,
                    "velocity": 0.1968503937007874,
                    "duration": 0.8601329687500012
                },
                {
                    "name": "A2",
                    "midi": 45,
                    "time": 44.328537,
                    "velocity": 0.1968503937007874,
                    "duration": 0.8601329687500012
                },
                {
                    "name": "D2",
                    "midi": 38,
                    "time": 46.066911,
                    "velocity": 0.14960629921259844,
                    "duration": 0.8601329687500012
                },
                {
                    "name": "D2",
                    "midi": 38,
                    "time": 46.936098,
                    "velocity": 0.14960629921259844,
                    "duration": 0.8601329687500012
                },
                {
                    "name": "D3",
                    "midi": 50,
                    "time": 48.67447200000001,
                    "velocity": 0.36220472440944884,
                    "duration": 0.8601329687500012
                },
                {
                    "name": "D3",
                    "midi": 50,
                    "time": 49.54365900000001,
                    "velocity": 0.36220472440944884,
                    "duration": 0.8601329687500012
                },
                {
                    "name": "G2",
                    "midi": 43,
                    "time": 51.28203300000001,
                    "velocity": 0.2125984251968504,
                    "duration": 0.8601329687500012
                },
                {
                    "name": "G2",
                    "midi": 43,
                    "time": 52.151220000000016,
                    "velocity": 0.2125984251968504,
                    "duration": 0.8601329687500012
                },
                {
                    "name": "E4",
                    "midi": 64,
                    "time": 53.88959400000002,
                    "velocity": 0.1968503937007874,
                    "duration": 0.8601329687500012
                },
                {
                    "name": "E4",
                    "midi": 64,
                    "time": 54.75878100000002,
                    "velocity": 0.1968503937007874,
                    "duration": 0.8601329687500012
                },
                {
                    "name": "F4",
                    "midi": 65,
                    "time": 56.49715500000002,
                    "velocity": 0.2204724409448819,
                    "duration": 0.8601329687500012
                },
                {
                    "name": "F4",
                    "midi": 65,
                    "time": 57.366342000000024,
                    "velocity": 0.2204724409448819,
                    "duration": 0.8601329687500012
                },
                {
                    "name": "F2",
                    "midi": 41,
                    "time": 59.104716000000025,
                    "velocity": 0.36220472440944884,
                    "duration": 0.8601329687500012
                },
                {
                    "name": "F2",
                    "midi": 41,
                    "time": 59.97390300000003,
                    "velocity": 0.36220472440944884,
                    "duration": 0.8601329687500012
                },
                {
                    "name": "A#2",
                    "midi": 46,
                    "time": 61.71227700000003,
                    "velocity": 0.14960629921259844,
                    "duration": 0.8601329687500012
                },
                {
                    "name": "A#2",
                    "midi": 46,
                    "time": 62.58146400000003,
                    "velocity": 0.14960629921259844,
                    "duration": 0.8601329687500012
                },
                {
                    "name": "A#3",
                    "midi": 58,
                    "time": 64.31983800000003,
                    "velocity": 0.16535433070866143,
                    "duration": 0.8601329687499941
                },
                {
                    "name": "A#3",
                    "midi": 58,
                    "time": 65.18902500000003,
                    "velocity": 0.16535433070866143,
                    "duration": 0.8601329687499941
                },
                {
                    "name": "A3",
                    "midi": 57,
                    "time": 66.92739900000002,
                    "velocity": 0.2125984251968504,
                    "duration": 0.8601329687499941
                },
                {
                    "name": "A3",
                    "midi": 57,
                    "time": 67.79658600000002,
                    "velocity": 0.2125984251968504,
                    "duration": 0.8601329687499941
                },
                {
                    "name": "D2",
                    "midi": 38,
                    "time": 69.53496000000001,
                    "velocity": 0.36220472440944884,
                    "duration": 0.8601329687499941
                },
                {
                    "name": "D2",
                    "midi": 38,
                    "time": 70.40414700000001,
                    "velocity": 0.36220472440944884,
                    "duration": 0.8601329687499941
                },
                {
                    "name": "G2",
                    "midi": 43,
                    "time": 72.142521,
                    "velocity": 0.2125984251968504,
                    "duration": 0.8601329687499941
                },
                {
                    "name": "G2",
                    "midi": 43,
                    "time": 73.011708,
                    "velocity": 0.2125984251968504,
                    "duration": 0.8601329687499941
                },
                {
                    "name": "A#3",
                    "midi": 58,
                    "time": 74.75008199999999,
                    "velocity": 0.1968503937007874,
                    "duration": 0.8601329687499941
                },
                {
                    "name": "A#3",
                    "midi": 58,
                    "time": 75.61926899999999,
                    "velocity": 0.1968503937007874,
                    "duration": 0.8601329687499941
                },
                {
                    "name": "A3",
                    "midi": 57,
                    "time": 77.35764299999998,
                    "velocity": 0.1732283464566929,
                    "duration": 0.8601329687499941
                },
                {
                    "name": "A3",
                    "midi": 57,
                    "time": 78.22682999999998,
                    "velocity": 0.1732283464566929,
                    "duration": 0.8601329687499941
                },
                {
                    "name": "D2",
                    "midi": 38,
                    "time": 79.96520399999997,
                    "velocity": 0.36220472440944884,
                    "duration": 0.8601329687499941
                },
                {
                    "name": "D2",
                    "midi": 38,
                    "time": 80.83439099999997,
                    "velocity": 0.36220472440944884,
                    "duration": 0.8601329687499941
                },
                {
                    "name": "G2",
                    "midi": 43,
                    "time": 82.57276499999996,
                    "velocity": 0.2125984251968504,
                    "duration": 0.8601329687499941
                },
                {
                    "name": "G2",
                    "midi": 43,
                    "time": 83.44195199999996,
                    "velocity": 0.2125984251968504,
                    "duration": 0.8601329687499941
                },
                {
                    "name": "A2",
                    "midi": 45,
                    "time": 85.18032599999995,
                    "velocity": 0.16535433070866143,
                    "duration": 0.8601329687499941
                },
                {
                    "name": "A2",
                    "midi": 45,
                    "time": 86.04951299999995,
                    "velocity": 0.16535433070866143,
                    "duration": 0.8601329687499941
                },
                {
                    "name": "D2",
                    "midi": 38,
                    "time": 87.78788699999994,
                    "velocity": 0.13385826771653545,
                    "duration": 0.8601329687499941
                },
                {
                    "name": "D2",
                    "midi": 38,
                    "time": 88.65707399999994,
                    "velocity": 0.13385826771653545,
                    "duration": 0.8601329687499941
                },
                {
                    "name": "D3",
                    "midi": 50,
                    "time": 90.39544799999993,
                    "velocity": 0.36220472440944884,
                    "duration": 0.8601329687499941
                },
                {
                    "name": "D3",
                    "midi": 50,
                    "time": 91.26463499999993,
                    "velocity": 0.36220472440944884,
                    "duration": 0.8601329687499941
                },
                {
                    "name": "G3",
                    "midi": 55,
                    "time": 93.00300899999992,
                    "velocity": 0.2125984251968504,
                    "duration": 0.8601329687499941
                },
                {
                    "name": "G3",
                    "midi": 55,
                    "time": 93.87219599999992,
                    "velocity": 0.2125984251968504,
                    "duration": 0.8601329687499941
                },
                {
                    "name": "G2",
                    "midi": 43,
                    "time": 95.61056999999991,
                    "velocity": 0.2204724409448819,
                    "duration": 0.8601329687499941
                },
                {
                    "name": "G2",
                    "midi": 43,
                    "time": 96.4797569999999,
                    "velocity": 0.2204724409448819,
                    "duration": 0.8601329687499941
                },
                {
                    "name": "C3",
                    "midi": 48,
                    "time": 98.2181309999999,
                    "velocity": 0.25196850393700787,
                    "duration": 1.7383739999999932
                },
                {
                    "name": "C2",
                    "midi": 36,
                    "time": 98.2181309999999,
                    "velocity": 0.2755905511811024,
                    "duration": 0.8601329687499941
                },
                {
                    "name": "G3",
                    "midi": 55,
                    "time": 99.0873179999999,
                    "velocity": 0.33858267716535434,
                    "duration": 0.8601329687499941
                },
                {
                    "name": "D3",
                    "midi": 50,
                    "time": 100.8256919999999,
                    "velocity": 0.2440944881889764,
                    "duration": 1.7383739999999932
                },
                {
                    "name": "D2",
                    "midi": 38,
                    "time": 100.8256919999999,
                    "velocity": 0.2677165354330709,
                    "duration": 0.8601329687499941
                },
                {
                    "name": "G3",
                    "midi": 55,
                    "time": 101.6948789999999,
                    "velocity": 0.3464566929133858,
                    "duration": 0.8601329687499941
                },
                {
                    "name": "D#3",
                    "midi": 51,
                    "time": 103.4332529999999,
                    "velocity": 0.25984251968503935,
                    "duration": 1.7383739999999932
                },
                {
                    "name": "D#2",
                    "midi": 39,
                    "time": 103.4332529999999,
                    "velocity": 0.28346456692913385,
                    "duration": 0.8601329687499941
                },
                {
                    "name": "G3",
                    "midi": 55,
                    "time": 104.30243999999989,
                    "velocity": 0.33858267716535434,
                    "duration": 0.8601329687499941
                },
                {
                    "name": "D3",
                    "midi": 50,
                    "time": 106.0408139999999,
                    "velocity": 0.2204724409448819,
                    "duration": 1.7383739999999932
                },
                {
                    "name": "D2",
                    "midi": 38,
                    "time": 106.0408139999999,
                    "velocity": 0.2440944881889764,
                    "duration": 0.8601329687499941
                },
                {
                    "name": "G3",
                    "midi": 55,
                    "time": 106.9100009999999,
                    "velocity": 0.28346456692913385,
                    "duration": 0.8601329687499941
                },
                {
                    "name": "B2",
                    "midi": 47,
                    "time": 107.77918799999989,
                    "velocity": 0.4094488188976378,
                    "duration": 0.4345935000000054
                },
                {
                    "name": "C3",
                    "midi": 48,
                    "time": 108.2137814999999,
                    "velocity": 0.33070866141732286,
                    "duration": 0.4345935000000054
                },
                {
                    "name": "D3",
                    "midi": 50,
                    "time": 108.6483749999999,
                    "velocity": 0.33070866141732286,
                    "duration": 0.4345935000000054
                },
                {
                    "name": "C3",
                    "midi": 48,
                    "time": 109.08296849999991,
                    "velocity": 0.33070866141732286,
                    "duration": 0.4345935000000054
                },
                {
                    "name": "G3",
                    "midi": 55,
                    "time": 109.51756199999991,
                    "velocity": 0.4015748031496063,
                    "duration": 0.8691869999999966
                },
                {
                    "name": "C#3",
                    "midi": 49,
                    "time": 110.38674899999991,
                    "velocity": 0.41732283464566927,
                    "duration": 0.4345935000000054
                },
                {
                    "name": "D3",
                    "midi": 50,
                    "time": 110.82134249999991,
                    "velocity": 0.33858267716535434,
                    "duration": 0.4345935000000054
                },
                {
                    "name": "D#3",
                    "midi": 51,
                    "time": 111.25593599999992,
                    "velocity": 0.3700787401574803,
                    "duration": 0.4345935000000054
                },
                {
                    "name": "D3",
                    "midi": 50,
                    "time": 111.69052949999993,
                    "velocity": 0.33070866141732286,
                    "duration": 0.4345935000000054
                },
                {
                    "name": "G3",
                    "midi": 55,
                    "time": 112.12512299999993,
                    "velocity": 0.4094488188976378,
                    "duration": 0.8691869999999966
                },
                {
                    "name": "D3",
                    "midi": 50,
                    "time": 112.99430999999993,
                    "velocity": 0.44881889763779526,
                    "duration": 0.4345935000000054
                },
                {
                    "name": "D#3",
                    "midi": 51,
                    "time": 113.42890349999993,
                    "velocity": 0.3779527559055118,
                    "duration": 0.4345935000000054
                },
                {
                    "name": "F3",
                    "midi": 53,
                    "time": 113.86349699999994,
                    "velocity": 0.3779527559055118,
                    "duration": 0.4345935000000054
                },
                {
                    "name": "D#3",
                    "midi": 51,
                    "time": 114.29809049999994,
                    "velocity": 0.3779527559055118,
                    "duration": 0.4345935000000054
                },
                {
                    "name": "G3",
                    "midi": 55,
                    "time": 114.73268399999995,
                    "velocity": 0.4251968503937008,
                    "duration": 0.6518902499999939
                },
                {
                    "name": "D#3",
                    "midi": 51,
                    "time": 115.38457424999994,
                    "velocity": 0.28346456692913385,
                    "duration": 0.0072432249999963005
                },
                {
                    "name": "E3",
                    "midi": 52,
                    "time": 115.45700649999993,
                    "velocity": 0.28346456692913385,
                    "duration": 0.07243225000000564
                },
                {
                    "name": "F3",
                    "midi": 53,
                    "time": 115.52943874999994,
                    "velocity": 0.2755905511811024,
                    "duration": 0.07243225000000564
                },
                {
                    "name": "E3",
                    "midi": 52,
                    "time": 115.60187099999995,
                    "velocity": 0.2755905511811024,
                    "duration": 0.10864837499998714
                },
                {
                    "name": "F3",
                    "midi": 53,
                    "time": 115.71051937499993,
                    "velocity": 0.28346456692913385,
                    "duration": 0.10864837500000135
                },
                {
                    "name": "E3",
                    "midi": 52,
                    "time": 115.81916774999993,
                    "velocity": 0.28346456692913385,
                    "duration": 0.10864837500000135
                },
                {
                    "name": "F3",
                    "midi": 53,
                    "time": 115.92781612499994,
                    "velocity": 0.29133858267716534,
                    "duration": 0.10864837500000135
                },
                {
                    "name": "E3",
                    "midi": 52,
                    "time": 116.03646449999994,
                    "velocity": 0.29133858267716534,
                    "duration": 0.10864837500000135
                },
                {
                    "name": "F3",
                    "midi": 53,
                    "time": 116.14511287499994,
                    "velocity": 0.2992125984251969,
                    "duration": 0.10864837500000135
                },
                {
                    "name": "E3",
                    "midi": 52,
                    "time": 116.25376124999994,
                    "velocity": 0.2992125984251969,
                    "duration": 0.10864837500000135
                },
                {
                    "name": "F3",
                    "midi": 53,
                    "time": 116.36240962499994,
                    "velocity": 0.30708661417322836,
                    "duration": 0.10864837500000135
                },
                {
                    "name": "E3",
                    "midi": 52,
                    "time": 116.47105799999994,
                    "velocity": 0.30708661417322836,
                    "duration": 0.10864837500000135
                },
                {
                    "name": "F3",
                    "midi": 53,
                    "time": 116.57970637499994,
                    "velocity": 0.30708661417322836,
                    "duration": 0.10864837500000135
                },
                {
                    "name": "E3",
                    "midi": 52,
                    "time": 116.68835474999995,
                    "velocity": 0.31496062992125984,
                    "duration": 0.10864837500000135
                },
                {
                    "name": "F3",
                    "midi": 53,
                    "time": 116.79700312499995,
                    "velocity": 0.31496062992125984,
                    "duration": 0.10864837500000135
                },
                {
                    "name": "E3",
                    "midi": 52,
                    "time": 116.90565149999995,
                    "velocity": 0.33070866141732286,
                    "duration": 0.10864837500000135
                },
                {
                    "name": "F3",
                    "midi": 53,
                    "time": 117.01429987499995,
                    "velocity": 0.33070866141732286,
                    "duration": 0.10864837500000135
                },
                {
                    "name": "E3",
                    "midi": 52,
                    "time": 117.12294824999995,
                    "velocity": 0.33858267716535434,
                    "duration": 0.10864837500000135
                },
                {
                    "name": "F3",
                    "midi": 53,
                    "time": 117.23159662499995,
                    "velocity": 0.33858267716535434,
                    "duration": 0.10864837500000135
                },
                {
                    "name": "E3",
                    "midi": 52,
                    "time": 117.34024499999995,
                    "velocity": 0.3464566929133858,
                    "duration": 0.10864837500000135
                },
                {
                    "name": "F3",
                    "midi": 53,
                    "time": 117.44889337499995,
                    "velocity": 0.3464566929133858,
                    "duration": 0.10864837500000135
                },
                {
                    "name": "E3",
                    "midi": 52,
                    "time": 117.55754174999996,
                    "velocity": 0.36220472440944884,
                    "duration": 0.10864837500000135
                },
                {
                    "name": "F3",
                    "midi": 53,
                    "time": 117.66619012499996,
                    "velocity": 0.36220472440944884,
                    "duration": 0.10864837500000135
                },
                {
                    "name": "E3",
                    "midi": 52,
                    "time": 117.77483849999996,
                    "velocity": 0.3700787401574803,
                    "duration": 0.10864837500000135
                },
                {
                    "name": "D#3",
                    "midi": 51,
                    "time": 117.88348687499996,
                    "velocity": 0.3700787401574803,
                    "duration": 0.16297256250000203
                },
                {
                    "name": "E3",
                    "midi": 52,
                    "time": 118.04645943749996,
                    "velocity": 0.3779527559055118,
                    "duration": 0.16297256250000203
                },
                {
                    "name": "F3",
                    "midi": 53,
                    "time": 118.20943199999996,
                    "velocity": 0.4330708661417323,
                    "duration": 3.4767480000000006
                },
                {
                    "name": "E2",
                    "midi": 40,
                    "time": 121.68617999999996,
                    "velocity": 0.29133858267716534,
                    "duration": 0.8691869999999966
                },
                {
                    "name": "E3",
                    "midi": 52,
                    "time": 121.68617999999996,
                    "velocity": 0.36220472440944884,
                    "duration": 0.8691869999999966
                },
                {
                    "name": "F2",
                    "midi": 41,
                    "time": 122.55536699999996,
                    "velocity": 0.29133858267716534,
                    "duration": 0.8691869999999966
                },
                {
                    "name": "F3",
                    "midi": 53,
                    "time": 122.55536699999996,
                    "velocity": 0.36220472440944884,
                    "duration": 0.8691869999999966
                },
                {
                    "name": "F#2",
                    "midi": 42,
                    "time": 123.42455399999996,
                    "velocity": 0.33070866141732286,
                    "duration": 3.4767480000000006
                },
                {
                    "name": "F#3",
                    "midi": 54,
                    "time": 123.42455399999996,
                    "velocity": 0.4015748031496063,
                    "duration": 3.4767480000000006
                },
                {
                    "name": "F2",
                    "midi": 41,
                    "time": 126.90130199999996,
                    "velocity": 0.2677165354330709,
                    "duration": 0.8691869999999966
                },
                {
                    "name": "F3",
                    "midi": 53,
                    "time": 126.90130199999996,
                    "velocity": 0.31496062992125984,
                    "duration": 0.8691869999999966
                },
                {
                    "name": "F#2",
                    "midi": 42,
                    "time": 127.77048899999996,
                    "velocity": 0.29133858267716534,
                    "duration": 0.8691869999999966
                },
                {
                    "name": "F#3",
                    "midi": 54,
                    "time": 127.77048899999996,
                    "velocity": 0.3464566929133858,
                    "duration": 0.8691869999999966
                },
                {
                    "name": "G2",
                    "midi": 43,
                    "time": 128.63967599999995,
                    "velocity": 0.31496062992125984,
                    "duration": 5.215122000000008
                },
                {
                    "name": "G3",
                    "midi": 55,
                    "time": 128.63967599999995,
                    "velocity": 0.3779527559055118,
                    "duration": 5.215122000000008
                },
                {
                    "name": "D2",
                    "midi": 38,
                    "time": 133.85479799999996,
                    "velocity": 0.25196850393700787,
                    "duration": 5.215122000000008
                },
                {
                    "name": "D3",
                    "midi": 50,
                    "time": 133.85479799999996,
                    "velocity": 0.2992125984251969,
                    "duration": 5.215122000000008
                },
                {
                    "name": "D#2",
                    "midi": 39,
                    "time": 139.06991999999997,
                    "velocity": 0.25984251968503935,
                    "duration": 5.215122000000008
                },
                {
                    "name": "D#3",
                    "midi": 51,
                    "time": 139.06991999999997,
                    "velocity": 0.30708661417322836,
                    "duration": 5.215122000000008
                },
                {
                    "name": "C2",
                    "midi": 36,
                    "time": 144.28504199999998,
                    "velocity": 0.30708661417322836,
                    "duration": 2.607561000000004
                },
                {
                    "name": "C3",
                    "midi": 48,
                    "time": 144.28504199999998,
                    "velocity": 0.30708661417322836,
                    "duration": 2.607561000000004
                },
                {
                    "name": "D2",
                    "midi": 38,
                    "time": 146.89260299999998,
                    "velocity": 0.25984251968503935,
                    "duration": 2.607561000000004
                },
                {
                    "name": "D3",
                    "midi": 50,
                    "time": 146.89260299999998,
                    "velocity": 0.30708661417322836,
                    "duration": 2.607561000000004
                },
                {
                    "name": "C#2",
                    "midi": 37,
                    "time": 149.50016399999998,
                    "velocity": 0.25984251968503935,
                    "duration": 0.8691870000000108
                },
                {
                    "name": "C#3",
                    "midi": 49,
                    "time": 149.50016399999998,
                    "velocity": 0.30708661417322836,
                    "duration": 0.8691870000000108
                },
                {
                    "name": "E3",
                    "midi": 52,
                    "time": 150.369351,
                    "velocity": 0.23622047244094488,
                    "duration": 0.8601329687500083
                },
                {
                    "name": "A3",
                    "midi": 57,
                    "time": 150.369351,
                    "velocity": 0.23622047244094488,
                    "duration": 0.8601329687500083
                },
                {
                    "name": "E4",
                    "midi": 64,
                    "time": 150.369351,
                    "velocity": 0.28346456692913385,
                    "duration": 0.8601329687500083
                },
                {
                    "name": "E3",
                    "midi": 52,
                    "time": 151.238538,
                    "velocity": 0.2204724409448819,
                    "duration": 0.8601329687500083
                },
                {
                    "name": "A3",
                    "midi": 57,
                    "time": 151.238538,
                    "velocity": 0.2204724409448819,
                    "duration": 0.8601329687500083
                },
                {
                    "name": "E4",
                    "midi": 64,
                    "time": 151.238538,
                    "velocity": 0.2677165354330709,
                    "duration": 0.8601329687500083
                },
                {
                    "name": "E3",
                    "midi": 52,
                    "time": 152.10772500000002,
                    "velocity": 0.2204724409448819,
                    "duration": 0.8601329687500083
                },
                {
                    "name": "A3",
                    "midi": 57,
                    "time": 152.10772500000002,
                    "velocity": 0.2204724409448819,
                    "duration": 0.8601329687500083
                },
                {
                    "name": "E4",
                    "midi": 64,
                    "time": 152.10772500000002,
                    "velocity": 0.2677165354330709,
                    "duration": 0.8601329687500083
                },
                {
                    "name": "E3",
                    "midi": 52,
                    "time": 152.97691200000003,
                    "velocity": 0.2204724409448819,
                    "duration": 0.8601329687500083
                },
                {
                    "name": "A3",
                    "midi": 57,
                    "time": 152.97691200000003,
                    "velocity": 0.2204724409448819,
                    "duration": 0.8601329687500083
                },
                {
                    "name": "E4",
                    "midi": 64,
                    "time": 152.97691200000003,
                    "velocity": 0.2677165354330709,
                    "duration": 0.8601329687500083
                },
                {
                    "name": "E3",
                    "midi": 52,
                    "time": 153.84609900000004,
                    "velocity": 0.2283464566929134,
                    "duration": 0.8601329687500083
                },
                {
                    "name": "A3",
                    "midi": 57,
                    "time": 153.84609900000004,
                    "velocity": 0.2283464566929134,
                    "duration": 0.8601329687500083
                },
                {
                    "name": "E4",
                    "midi": 64,
                    "time": 153.84609900000004,
                    "velocity": 0.2755905511811024,
                    "duration": 0.8601329687500083
                },
                {
                    "name": "C2",
                    "midi": 36,
                    "time": 154.71528600000005,
                    "velocity": 0.28346456692913385,
                    "duration": 0.8691870000000108
                },
                {
                    "name": "C3",
                    "midi": 48,
                    "time": 154.71528600000005,
                    "velocity": 0.33070866141732286,
                    "duration": 0.8691870000000108
                },
                {
                    "name": "F3",
                    "midi": 53,
                    "time": 155.58447300000006,
                    "velocity": 0.25984251968503935,
                    "duration": 0.8601329687500083
                },
                {
                    "name": "A3",
                    "midi": 57,
                    "time": 155.58447300000006,
                    "velocity": 0.25984251968503935,
                    "duration": 0.8601329687500083
                },
                {
                    "name": "D#4",
                    "midi": 63,
                    "time": 155.58447300000006,
                    "velocity": 0.25984251968503935,
                    "duration": 0.8601329687500083
                },
                {
                    "name": "F4",
                    "midi": 65,
                    "time": 155.58447300000006,
                    "velocity": 0.30708661417322836,
                    "duration": 0.8601329687500083
                },
                {
                    "name": "F3",
                    "midi": 53,
                    "time": 156.45366000000007,
                    "velocity": 0.25984251968503935,
                    "duration": 0.8601329687500083
                },
                {
                    "name": "A3",
                    "midi": 57,
                    "time": 156.45366000000007,
                    "velocity": 0.25984251968503935,
                    "duration": 0.8601329687500083
                },
                {
                    "name": "D#4",
                    "midi": 63,
                    "time": 156.45366000000007,
                    "velocity": 0.25984251968503935,
                    "duration": 0.8601329687500083
                },
                {
                    "name": "F4",
                    "midi": 65,
                    "time": 156.45366000000007,
                    "velocity": 0.30708661417322836,
                    "duration": 0.8601329687500083
                },
                {
                    "name": "F3",
                    "midi": 53,
                    "time": 157.32284700000008,
                    "velocity": 0.25984251968503935,
                    "duration": 0.8601329687500083
                },
                {
                    "name": "A3",
                    "midi": 57,
                    "time": 157.32284700000008,
                    "velocity": 0.25984251968503935,
                    "duration": 0.8601329687500083
                },
                {
                    "name": "D#4",
                    "midi": 63,
                    "time": 157.32284700000008,
                    "velocity": 0.25984251968503935,
                    "duration": 0.8601329687500083
                },
                {
                    "name": "F4",
                    "midi": 65,
                    "time": 157.32284700000008,
                    "velocity": 0.30708661417322836,
                    "duration": 0.8601329687500083
                },
                {
                    "name": "F3",
                    "midi": 53,
                    "time": 158.1920340000001,
                    "velocity": 0.25984251968503935,
                    "duration": 0.8601329687500083
                },
                {
                    "name": "A3",
                    "midi": 57,
                    "time": 158.1920340000001,
                    "velocity": 0.25984251968503935,
                    "duration": 0.8601329687500083
                },
                {
                    "name": "D#4",
                    "midi": 63,
                    "time": 158.1920340000001,
                    "velocity": 0.25984251968503935,
                    "duration": 0.8601329687500083
                },
                {
                    "name": "F4",
                    "midi": 65,
                    "time": 158.1920340000001,
                    "velocity": 0.30708661417322836,
                    "duration": 0.8601329687500083
                },
                {
                    "name": "F3",
                    "midi": 53,
                    "time": 159.0612210000001,
                    "velocity": 0.25984251968503935,
                    "duration": 0.8601329687500083
                },
                {
                    "name": "A3",
                    "midi": 57,
                    "time": 159.0612210000001,
                    "velocity": 0.25984251968503935,
                    "duration": 0.8601329687500083
                },
                {
                    "name": "D#4",
                    "midi": 63,
                    "time": 159.0612210000001,
                    "velocity": 0.25984251968503935,
                    "duration": 0.8601329687500083
                },
                {
                    "name": "F4",
                    "midi": 65,
                    "time": 159.0612210000001,
                    "velocity": 0.30708661417322836,
                    "duration": 0.8601329687500083
                },
                {
                    "name": "A#1",
                    "midi": 34,
                    "time": 159.9304080000001,
                    "velocity": 0.2992125984251969,
                    "duration": 0.8691870000000108
                },
                {
                    "name": "A#2",
                    "midi": 46,
                    "time": 159.9304080000001,
                    "velocity": 0.3543307086614173,
                    "duration": 0.8691870000000108
                },
                {
                    "name": "D3",
                    "midi": 50,
                    "time": 160.79959500000012,
                    "velocity": 0.2440944881889764,
                    "duration": 0.8691870000000108
                },
                {
                    "name": "F3",
                    "midi": 53,
                    "time": 160.79959500000012,
                    "velocity": 0.2440944881889764,
                    "duration": 0.8691870000000108
                },
                {
                    "name": "A#3",
                    "midi": 58,
                    "time": 160.79959500000012,
                    "velocity": 0.30708661417322836,
                    "duration": 0.8691870000000108
                },
                {
                    "name": "F3",
                    "midi": 53,
                    "time": 161.66878200000014,
                    "velocity": 0.25984251968503935,
                    "duration": 0.8691870000000108
                },
                {
                    "name": "A#3",
                    "midi": 58,
                    "time": 161.66878200000014,
                    "velocity": 0.25984251968503935,
                    "duration": 0.8691870000000108
                },
                {
                    "name": "D4",
                    "midi": 62,
                    "time": 161.66878200000014,
                    "velocity": 0.30708661417322836,
                    "duration": 0.8691870000000108
                },
                {
                    "name": "D#2",
                    "midi": 39,
                    "time": 162.53796900000015,
                    "velocity": 0.31496062992125984,
                    "duration": 0.8691870000000108
                },
                {
                    "name": "D#3",
                    "midi": 51,
                    "time": 163.40715600000016,
                    "velocity": 0.2440944881889764,
                    "duration": 0.8691870000000108
                },
                {
                    "name": "G3",
                    "midi": 55,
                    "time": 163.40715600000016,
                    "velocity": 0.2440944881889764,
                    "duration": 0.8691870000000108
                },
                {
                    "name": "C4",
                    "midi": 60,
                    "time": 163.40715600000016,
                    "velocity": 0.29133858267716534,
                    "duration": 0.8691870000000108
                },
                {
                    "name": "G3",
                    "midi": 55,
                    "time": 164.27634300000017,
                    "velocity": 0.2440944881889764,
                    "duration": 0.8691870000000108
                },
                {
                    "name": "C4",
                    "midi": 60,
                    "time": 164.27634300000017,
                    "velocity": 0.2440944881889764,
                    "duration": 0.8691870000000108
                },
                {
                    "name": "D#4",
                    "midi": 63,
                    "time": 164.27634300000017,
                    "velocity": 0.29133858267716534,
                    "duration": 0.8691870000000108
                },
                {
                    "name": "D2",
                    "midi": 38,
                    "time": 165.14553000000018,
                    "velocity": 0.33070866141732286,
                    "duration": 0.8691869999999824
                },
                {
                    "name": "G3",
                    "midi": 55,
                    "time": 166.01471700000016,
                    "velocity": 0.2283464566929134,
                    "duration": 0.8691870000000108
                },
                {
                    "name": "A#3",
                    "midi": 58,
                    "time": 166.01471700000016,
                    "velocity": 0.2283464566929134,
                    "duration": 0.8691870000000108
                },
                {
                    "name": "D#4",
                    "midi": 63,
                    "time": 166.01471700000016,
                    "velocity": 0.2755905511811024,
                    "duration": 0.8691870000000108
                },
                {
                    "name": "D4",
                    "midi": 62,
                    "time": 166.88390400000017,
                    "velocity": 0.2755905511811024,
                    "duration": 1.7383740000000216
                },
                {
                    "name": "A#3",
                    "midi": 58,
                    "time": 166.88390400000017,
                    "velocity": 0.2283464566929134,
                    "duration": 1.7383740000000216
                },
                {
                    "name": "G3",
                    "midi": 55,
                    "time": 166.88390400000017,
                    "velocity": 0.2283464566929134,
                    "duration": 0.8691870000000108
                },
                {
                    "name": "D3",
                    "midi": 50,
                    "time": 167.75309100000018,
                    "velocity": 0.30708661417322836,
                    "duration": 2.6075610000000324
                },
                {
                    "name": "C#4",
                    "midi": 61,
                    "time": 168.6222780000002,
                    "velocity": 0.2755905511811024,
                    "duration": 0.8691870000000108
                },
                {
                    "name": "A#3",
                    "midi": 58,
                    "time": 168.6222780000002,
                    "velocity": 0.2283464566929134,
                    "duration": 0.8691870000000108
                },
                {
                    "name": "A3",
                    "midi": 57,
                    "time": 169.4914650000002,
                    "velocity": 0.23622047244094488,
                    "duration": 0.8691870000000108
                },
                {
                    "name": "C4",
                    "midi": 60,
                    "time": 169.4914650000002,
                    "velocity": 0.28346456692913385,
                    "duration": 0.8691870000000108
                },
                {
                    "name": "G2",
                    "midi": 43,
                    "time": 170.36065200000021,
                    "velocity": 0.28346456692913385,
                    "duration": 0.4345935000000054
                },
                {
                    "name": "F4",
                    "midi": 65,
                    "time": 171.22983900000023,
                    "velocity": 0.2204724409448819,
                    "duration": 0.8691870000000108
                },
                {
                    "name": "A#3",
                    "midi": 58,
                    "time": 171.22983900000023,
                    "velocity": 0.14960629921259844,
                    "duration": 1.7383740000000216
                },
                {
                    "name": "G3",
                    "midi": 55,
                    "time": 171.22983900000023,
                    "velocity": 0.14960629921259844,
                    "duration": 1.7383740000000216
                },
                {
                    "name": "D#4",
                    "midi": 63,
                    "time": 172.09902600000024,
                    "velocity": 0.2283464566929134,
                    "duration": 0.8691870000000108
                },
                {
                    "name": "F#2",
                    "midi": 42,
                    "time": 172.96821300000025,
                    "velocity": 0.2992125984251969,
                    "duration": 0.4345935000000054
                },
                {
                    "name": "D#4",
                    "midi": 63,
                    "time": 173.83740000000026,
                    "velocity": 0.2204724409448819,
                    "duration": 0.8691870000000108
                },
                {
                    "name": "F#3",
                    "midi": 54,
                    "time": 173.83740000000026,
                    "velocity": 0.14960629921259844,
                    "duration": 1.7383740000000216
                },
                {
                    "name": "A3",
                    "midi": 57,
                    "time": 173.83740000000026,
                    "velocity": 0.14960629921259844,
                    "duration": 1.7383740000000216
                },
                {
                    "name": "D4",
                    "midi": 62,
                    "time": 174.70658700000027,
                    "velocity": 0.2283464566929134,
                    "duration": 0.8691870000000108
                },
                {
                    "name": "G2",
                    "midi": 43,
                    "time": 175.57577400000028,
                    "velocity": 0.2992125984251969,
                    "duration": 0.4345935000000054
                },
                {
                    "name": "F4",
                    "midi": 65,
                    "time": 176.4449610000003,
                    "velocity": 0.23622047244094488,
                    "duration": 0.8691870000000108
                },
                {
                    "name": "A#3",
                    "midi": 58,
                    "time": 176.4449610000003,
                    "velocity": 0.15748031496062992,
                    "duration": 1.7383740000000216
                },
                {
                    "name": "G3",
                    "midi": 55,
                    "time": 176.4449610000003,
                    "velocity": 0.15748031496062992,
                    "duration": 1.7383740000000216
                },
                {
                    "name": "D#4",
                    "midi": 63,
                    "time": 177.3141480000003,
                    "velocity": 0.23622047244094488,
                    "duration": 0.8691870000000108
                },
                {
                    "name": "F2",
                    "midi": 41,
                    "time": 178.1833350000003,
                    "velocity": 0.31496062992125984,
                    "duration": 0.4345935000000054
                },
                {
                    "name": "B3",
                    "midi": 59,
                    "time": 179.05252200000032,
                    "velocity": 0.15748031496062992,
                    "duration": 1.7383740000000216
                },
                {
                    "name": "D#4",
                    "midi": 63,
                    "time": 179.05252200000032,
                    "velocity": 0.23622047244094488,
                    "duration": 0.8691870000000108
                },
                {
                    "name": "F3",
                    "midi": 53,
                    "time": 179.05252200000032,
                    "velocity": 0.15748031496062992,
                    "duration": 1.7383740000000216
                },
                {
                    "name": "G#3",
                    "midi": 56,
                    "time": 179.05252200000032,
                    "velocity": 0.15748031496062992,
                    "duration": 1.7383740000000216
                },
                {
                    "name": "D4",
                    "midi": 62,
                    "time": 179.92170900000033,
                    "velocity": 0.23622047244094488,
                    "duration": 0.8691870000000108
                },
                {
                    "name": "D#2",
                    "midi": 39,
                    "time": 180.79089600000034,
                    "velocity": 0.3228346456692913,
                    "duration": 0.4345935000000054
                },
                {
                    "name": "D4",
                    "midi": 62,
                    "time": 181.66008300000036,
                    "velocity": 0.25196850393700787,
                    "duration": 0.8691870000000108
                },
                {
                    "name": "G3",
                    "midi": 55,
                    "time": 181.66008300000036,
                    "velocity": 0.16535433070866143,
                    "duration": 1.7383740000000216
                },
                {
                    "name": "D#3",
                    "midi": 51,
                    "time": 181.66008300000036,
                    "velocity": 0.16535433070866143,
                    "duration": 1.7383740000000216
                },
                {
                    "name": "C4",
                    "midi": 60,
                    "time": 182.52927000000037,
                    "velocity": 0.25196850393700787,
                    "duration": 0.8691870000000108
                },
                {
                    "name": "C2",
                    "midi": 36,
                    "time": 183.39845700000038,
                    "velocity": 0.33070866141732286,
                    "duration": 0.4345935000000054
                },
                {
                    "name": "A#3",
                    "midi": 58,
                    "time": 184.2676440000004,
                    "velocity": 0.2440944881889764,
                    "duration": 0.8691870000000108
                },
                {
                    "name": "D#3",
                    "midi": 51,
                    "time": 184.2676440000004,
                    "velocity": 0.2047244094488189,
                    "duration": 1.7383740000000216
                },
                {
                    "name": "A3",
                    "midi": 57,
                    "time": 185.1368310000004,
                    "velocity": 0.25196850393700787,
                    "duration": 0.8691870000000108
                },
                {
                    "name": "D2",
                    "midi": 38,
                    "time": 186.0060180000004,
                    "velocity": 0.33858267716535434,
                    "duration": 0.4345935000000054
                },
                {
                    "name": "G3",
                    "midi": 55,
                    "time": 186.87520500000042,
                    "velocity": 0.25984251968503935,
                    "duration": 0.8691870000000108
                },
                {
                    "name": "C4",
                    "midi": 60,
                    "time": 186.87520500000042,
                    "velocity": 0.2204724409448819,
                    "duration": 1.7383740000000216
                },
                {
                    "name": "D3",
                    "midi": 50,
                    "time": 186.87520500000042,
                    "velocity": 0.2204724409448819,
                    "duration": 1.7383740000000216
                },
                {
                    "name": "F#3",
                    "midi": 54,
                    "time": 187.74439200000043,
                    "velocity": 0.25984251968503935,
                    "duration": 0.8691870000000108
                },
                {
                    "name": "D2",
                    "midi": 38,
                    "time": 188.61357900000044,
                    "velocity": 0.3464566929133858,
                    "duration": 0.4345935000000054
                },
                {
                    "name": "A3",
                    "midi": 57,
                    "time": 189.48276600000045,
                    "velocity": 0.29133858267716534,
                    "duration": 0.8691870000000108
                },
                {
                    "name": "D3",
                    "midi": 50,
                    "time": 190.35195300000046,
                    "velocity": 0.2992125984251969,
                    "duration": 0.8691870000000108
                },
                {
                    "name": "G3",
                    "midi": 55,
                    "time": 191.22114000000047,
                    "velocity": 0.4645669291338583,
                    "duration": 0.4345935000000054
                },
                {
                    "name": "G2",
                    "midi": 43,
                    "time": 191.22114000000047,
                    "velocity": 0.4645669291338583,
                    "duration": 0.4345935000000054
                },
                {
                    "name": "F4",
                    "midi": 65,
                    "time": 192.09032700000049,
                    "velocity": 0.33858267716535434,
                    "duration": 0.8691870000000108
                },
                {
                    "name": "G3",
                    "midi": 55,
                    "time": 192.09032700000049,
                    "velocity": 0.28346456692913385,
                    "duration": 1.7383740000000216
                },
                {
                    "name": "A#3",
                    "midi": 58,
                    "time": 192.9595140000005,
                    "velocity": 0.28346456692913385,
                    "duration": 0.8691870000000108
                },
                {
                    "name": "D#4",
                    "midi": 63,
                    "time": 192.9595140000005,
                    "velocity": 0.33858267716535434,
                    "duration": 0.8691870000000108
                },
                {
                    "name": "F#3",
                    "midi": 54,
                    "time": 193.8287010000005,
                    "velocity": 0.4881889763779528,
                    "duration": 0.4345935000000054
                },
                {
                    "name": "F#2",
                    "midi": 42,
                    "time": 193.8287010000005,
                    "velocity": 0.4881889763779528,
                    "duration": 0.4345935000000054
                },
                {
                    "name": "D#4",
                    "midi": 63,
                    "time": 194.69788800000052,
                    "velocity": 0.3228346456692913,
                    "duration": 0.8691870000000108
                },
                {
                    "name": "F#3",
                    "midi": 54,
                    "time": 194.69788800000052,
                    "velocity": 0.2755905511811024,
                    "duration": 1.7383740000000216
                },
                {
                    "name": "A3",
                    "midi": 57,
                    "time": 195.56707500000053,
                    "velocity": 0.2755905511811024,
                    "duration": 0.8691870000000108
                },
                {
                    "name": "D4",
                    "midi": 62,
                    "time": 195.56707500000053,
                    "velocity": 0.33070866141732286,
                    "duration": 0.8691870000000108
                },
                {
                    "name": "G3",
                    "midi": 55,
                    "time": 196.43626200000054,
                    "velocity": 0.48031496062992124,
                    "duration": 0.4345935000000054
                },
                {
                    "name": "G2",
                    "midi": 43,
                    "time": 196.43626200000054,
                    "velocity": 0.48031496062992124,
                    "duration": 0.4345935000000054
                },
                {
                    "name": "F4",
                    "midi": 65,
                    "time": 197.30544900000055,
                    "velocity": 0.3464566929133858,
                    "duration": 0.8691870000000108
                },
                {
                    "name": "G3",
                    "midi": 55,
                    "time": 197.30544900000055,
                    "velocity": 0.28346456692913385,
                    "duration": 1.7383740000000216
                },
                {
                    "name": "A#3",
                    "midi": 58,
                    "time": 198.17463600000056,
                    "velocity": 0.29133858267716534,
                    "duration": 0.8691870000000108
                },
                {
                    "name": "D#4",
                    "midi": 63,
                    "time": 198.17463600000056,
                    "velocity": 0.3464566929133858,
                    "duration": 0.8691870000000108
                },
                {
                    "name": "F3",
                    "midi": 53,
                    "time": 199.04382300000057,
                    "velocity": 0.49606299212598426,
                    "duration": 0.4345935000000054
                },
                {
                    "name": "F2",
                    "midi": 41,
                    "time": 199.04382300000057,
                    "velocity": 0.49606299212598426,
                    "duration": 0.4345935000000054
                },
                {
                    "name": "D#4",
                    "midi": 63,
                    "time": 199.91301000000058,
                    "velocity": 0.33858267716535434,
                    "duration": 0.8691870000000108
                },
                {
                    "name": "F3",
                    "midi": 53,
                    "time": 199.91301000000058,
                    "velocity": 0.28346456692913385,
                    "duration": 1.7383740000000216
                },
                {
                    "name": "G#3",
                    "midi": 56,
                    "time": 200.7821970000006,
                    "velocity": 0.28346456692913385,
                    "duration": 0.8691870000000108
                },
                {
                    "name": "B3",
                    "midi": 59,
                    "time": 200.7821970000006,
                    "velocity": 0.28346456692913385,
                    "duration": 0.8691870000000108
                },
                {
                    "name": "D4",
                    "midi": 62,
                    "time": 200.7821970000006,
                    "velocity": 0.33858267716535434,
                    "duration": 0.8691870000000108
                },
                {
                    "name": "D#3",
                    "midi": 51,
                    "time": 201.6513840000006,
                    "velocity": 0.4881889763779528,
                    "duration": 0.4345935000000054
                },
                {
                    "name": "D#2",
                    "midi": 39,
                    "time": 201.6513840000006,
                    "velocity": 0.4881889763779528,
                    "duration": 0.4345935000000054
                },
                {
                    "name": "D4",
                    "midi": 62,
                    "time": 202.52057100000061,
                    "velocity": 0.3543307086614173,
                    "duration": 0.8691870000000108
                },
                {
                    "name": "D#3",
                    "midi": 51,
                    "time": 202.52057100000061,
                    "velocity": 0.2992125984251969,
                    "duration": 1.7383740000000216
                },
                {
                    "name": "G3",
                    "midi": 55,
                    "time": 203.38975800000063,
                    "velocity": 0.2992125984251969,
                    "duration": 0.8691870000000108
                },
                {
                    "name": "C4",
                    "midi": 60,
                    "time": 203.38975800000063,
                    "velocity": 0.3543307086614173,
                    "duration": 0.8691870000000108
                },
                {
                    "name": "C3",
                    "midi": 48,
                    "time": 204.25894500000064,
                    "velocity": 0.5196850393700787,
                    "duration": 0.4345935000000054
                },
                {
                    "name": "C2",
                    "midi": 36,
                    "time": 204.25894500000064,
                    "velocity": 0.5196850393700787,
                    "duration": 0.4345935000000054
                },
                {
                    "name": "A#3",
                    "midi": 58,
                    "time": 205.12813200000065,
                    "velocity": 0.3464566929133858,
                    "duration": 0.8691870000000108
                },
                {
                    "name": "C3",
                    "midi": 48,
                    "time": 205.12813200000065,
                    "velocity": 0.29133858267716534,
                    "duration": 1.7383740000000216
                },
                {
                    "name": "D#3",
                    "midi": 51,
                    "time": 205.99731900000066,
                    "velocity": 0.29133858267716534,
                    "duration": 0.8691870000000108
                },
                {
                    "name": "A3",
                    "midi": 57,
                    "time": 205.99731900000066,
                    "velocity": 0.3464566929133858,
                    "duration": 0.8691870000000108
                },
                {
                    "name": "D2",
                    "midi": 38,
                    "time": 206.86650600000067,
                    "velocity": 0.5039370078740157,
                    "duration": 0.4345935000000054
                },
                {
                    "name": "A2",
                    "midi": 45,
                    "time": 207.73569300000068,
                    "velocity": 0.36220472440944884,
                    "duration": 0.8691870000000108
                },
                {
                    "name": "G3",
                    "midi": 55,
                    "time": 207.73569300000068,
                    "velocity": 0.36220472440944884,
                    "duration": 0.8691870000000108
                },
                {
                    "name": "C3",
                    "midi": 48,
                    "time": 208.6048800000007,
                    "velocity": 0.30708661417322836,
                    "duration": 0.8691870000000108
                },
                {
                    "name": "F#3",
                    "midi": 54,
                    "time": 208.6048800000007,
                    "velocity": 0.3700787401574803,
                    "duration": 0.8691870000000108
                },
                {
                    "name": "D2",
                    "midi": 38,
                    "time": 209.4740670000007,
                    "velocity": 0.5275590551181102,
                    "duration": 0.4345935000000054
                },
                {
                    "name": "A2",
                    "midi": 45,
                    "time": 210.3432540000007,
                    "velocity": 0.4015748031496063,
                    "duration": 0.8691870000000108
                },
                {
                    "name": "D#3",
                    "midi": 51,
                    "time": 210.3432540000007,
                    "velocity": 0.4015748031496063,
                    "duration": 0.8691870000000108
                },
                {
                    "name": "C3",
                    "midi": 48,
                    "time": 211.21244100000072,
                    "velocity": 0.4015748031496063,
                    "duration": 0.8691870000000108
                },
                {
                    "name": "D3",
                    "midi": 50,
                    "time": 211.21244100000072,
                    "velocity": 0.4015748031496063,
                    "duration": 1.3037805000000162
                },
                {
                    "name": "G2",
                    "midi": 43,
                    "time": 212.08162800000073,
                    "velocity": 0.4015748031496063,
                    "duration": 0.4345935000000054
                },
                {
                    "name": "G1",
                    "midi": 31,
                    "time": 212.51622150000074,
                    "velocity": 0.25196850393700787,
                    "duration": 0.4345935000000054
                },
                {
                    "name": "G2",
                    "midi": 43,
                    "time": 212.51622150000074,
                    "velocity": 0.2992125984251969,
                    "duration": 0.4345935000000054
                },
                {
                    "name": "D3",
                    "midi": 50,
                    "time": 213.38540850000075,
                    "velocity": 0.4015748031496063,
                    "duration": 0.4345935000000054
                },
                {
                    "name": "G2",
                    "midi": 43,
                    "time": 213.38540850000075,
                    "velocity": 0.2992125984251969,
                    "duration": 0.4345935000000054
                },
                {
                    "name": "G2",
                    "midi": 43,
                    "time": 213.82000200000076,
                    "velocity": 0.25196850393700787,
                    "duration": 0.8691870000000108
                },
                {
                    "name": "D#3",
                    "midi": 51,
                    "time": 213.82000200000076,
                    "velocity": 0.33858267716535434,
                    "duration": 0.2172967500000027
                },
                {
                    "name": "D3",
                    "midi": 50,
                    "time": 214.03729875000076,
                    "velocity": 0.3543307086614173,
                    "duration": 0.2172967500000027
                },
                {
                    "name": "C3",
                    "midi": 48,
                    "time": 214.68918900000077,
                    "velocity": 0.33858267716535434,
                    "duration": 1.7383739999999932
                },
                {
                    "name": "G2",
                    "midi": 43,
                    "time": 214.68918900000077,
                    "velocity": 0.33858267716535434,
                    "duration": 1.7383739999999932
                },
                {
                    "name": "D#3",
                    "midi": 51,
                    "time": 214.68918900000077,
                    "velocity": 0.4015748031496063,
                    "duration": 1.7383739999999932
                },
                {
                    "name": "A3",
                    "midi": 57,
                    "time": 215.12378250000077,
                    "velocity": 0.3858267716535433,
                    "duration": 1.3037804999999878
                },
                {
                    "name": "G2",
                    "midi": 43,
                    "time": 216.42756300000076,
                    "velocity": 0.33858267716535434,
                    "duration": 0.4345935000000054
                },
                {
                    "name": "G3",
                    "midi": 55,
                    "time": 216.42756300000076,
                    "velocity": 0.4015748031496063,
                    "duration": 0.4345935000000054
                },
                {
                    "name": "D#4",
                    "midi": 63,
                    "time": 216.86215650000076,
                    "velocity": 0.4330708661417323,
                    "duration": 0.4345935000000054
                },
                {
                    "name": "D#3",
                    "midi": 51,
                    "time": 216.86215650000076,
                    "velocity": 0.36220472440944884,
                    "duration": 0.4345935000000054
                },
                {
                    "name": "D3",
                    "midi": 50,
                    "time": 217.29675000000077,
                    "velocity": 0.36220472440944884,
                    "duration": 0.2172967500000027
                },
                {
                    "name": "D4",
                    "midi": 62,
                    "time": 217.29675000000077,
                    "velocity": 0.4015748031496063,
                    "duration": 0.2172967500000027
                },
                {
                    "name": "G2",
                    "midi": 43,
                    "time": 217.73134350000078,
                    "velocity": 0.25196850393700787,
                    "duration": 0.8691870000000108
                },
                {
                    "name": "G3",
                    "midi": 55,
                    "time": 217.73134350000078,
                    "velocity": 0.2992125984251969,
                    "duration": 0.8691870000000108
                },
                {
                    "name": "D4",
                    "midi": 62,
                    "time": 218.6005305000008,
                    "velocity": 0.3543307086614173,
                    "duration": 0.4345935000000054
                },
                {
                    "name": "G3",
                    "midi": 55,
                    "time": 218.6005305000008,
                    "velocity": 0.2992125984251969,
                    "duration": 0.4345935000000054
                },
                {
                    "name": "G3",
                    "midi": 55,
                    "time": 219.0351240000008,
                    "velocity": 0.25196850393700787,
                    "duration": 0.8691870000000108
                },
                {
                    "name": "D#4",
                    "midi": 63,
                    "time": 219.0351240000008,
                    "velocity": 0.33858267716535434,
                    "duration": 0.2172967500000027
                },
                {
                    "name": "D4",
                    "midi": 62,
                    "time": 219.2524207500008,
                    "velocity": 0.3543307086614173,
                    "duration": 0.2172967500000027
                },
                {
                    "name": "C4",
                    "midi": 60,
                    "time": 219.9043110000008,
                    "velocity": 0.33858267716535434,
                    "duration": 1.7383739999999932
                },
                {
                    "name": "G3",
                    "midi": 55,
                    "time": 219.9043110000008,
                    "velocity": 0.33858267716535434,
                    "duration": 1.7383739999999932
                },
                {
                    "name": "D#4",
                    "midi": 63,
                    "time": 219.9043110000008,
                    "velocity": 0.4015748031496063,
                    "duration": 1.7383739999999932
                },
                {
                    "name": "A4",
                    "midi": 69,
                    "time": 220.3389045000008,
                    "velocity": 0.3858267716535433,
                    "duration": 1.3037804999999878
                },
                {
                    "name": "G3",
                    "midi": 55,
                    "time": 221.6426850000008,
                    "velocity": 0.33858267716535434,
                    "duration": 0.4345935000000054
                },
                {
                    "name": "G4",
                    "midi": 67,
                    "time": 221.6426850000008,
                    "velocity": 0.4015748031496063,
                    "duration": 0.4345935000000054
                },
                {
                    "name": "D#5",
                    "midi": 75,
                    "time": 222.0772785000008,
                    "velocity": 0.4330708661417323,
                    "duration": 0.4345935000000054
                },
                {
                    "name": "D#4",
                    "midi": 63,
                    "time": 222.0772785000008,
                    "velocity": 0.36220472440944884,
                    "duration": 0.4345935000000054
                },
                {
                    "name": "G4",
                    "midi": 67,
                    "time": 222.5118720000008,
                    "velocity": 0.4330708661417323,
                    "duration": 0.2172967500000027
                },
                {
                    "name": "D5",
                    "midi": 74,
                    "time": 222.5118720000008,
                    "velocity": 0.4330708661417323,
                    "duration": 0.2172967500000027
                },
                {
                    "name": "D#5",
                    "midi": 75,
                    "time": 223.81565250000082,
                    "velocity": 0.5196850393700787,
                    "duration": 0.4345935000000054
                },
                {
                    "name": "D#4",
                    "midi": 63,
                    "time": 223.81565250000082,
                    "velocity": 0.2992125984251969,
                    "duration": 0.4345935000000054
                },
                {
                    "name": "F#4",
                    "midi": 66,
                    "time": 223.81565250000082,
                    "velocity": 0.2992125984251969,
                    "duration": 0.4345935000000054
                },
                {
                    "name": "A4",
                    "midi": 69,
                    "time": 223.81565250000082,
                    "velocity": 0.3779527559055118,
                    "duration": 0.4345935000000054
                },
                {
                    "name": "D5",
                    "midi": 74,
                    "time": 224.25024600000083,
                    "velocity": 0.4094488188976378,
                    "duration": 0.4345935000000054
                },
                {
                    "name": "D4",
                    "midi": 62,
                    "time": 224.68483950000083,
                    "velocity": 0.4094488188976378,
                    "duration": 0.4345935000000054
                },
                {
                    "name": "G3",
                    "midi": 55,
                    "time": 225.11943300000084,
                    "velocity": 0.4330708661417323,
                    "duration": 0.2172967500000027
                },
                {
                    "name": "D4",
                    "midi": 62,
                    "time": 225.55402650000084,
                    "velocity": 0.4015748031496063,
                    "duration": 0.8691870000000108
                },
                {
                    "name": "D5",
                    "midi": 74,
                    "time": 225.98862000000085,
                    "velocity": 0.4015748031496063,
                    "duration": 0.4345935000000054
                },
                {
                    "name": "F#4",
                    "midi": 66,
                    "time": 226.42321350000086,
                    "velocity": 0.2992125984251969,
                    "duration": 0.4345935000000054
                },
                {
                    "name": "D#4",
                    "midi": 63,
                    "time": 226.42321350000086,
                    "velocity": 0.2992125984251969,
                    "duration": 0.4345935000000054
                },
                {
                    "name": "D#5",
                    "midi": 75,
                    "time": 226.42321350000086,
                    "velocity": 0.5196850393700787,
                    "duration": 0.4345935000000054
                },
                {
                    "name": "A4",
                    "midi": 69,
                    "time": 226.42321350000086,
                    "velocity": 0.3779527559055118,
                    "duration": 0.4345935000000054
                },
                {
                    "name": "D5",
                    "midi": 74,
                    "time": 226.85780700000086,
                    "velocity": 0.3937007874015748,
                    "duration": 0.4345935000000054
                },
                {
                    "name": "D4",
                    "midi": 62,
                    "time": 227.29240050000087,
                    "velocity": 0.41732283464566927,
                    "duration": 0.4345935000000054
                },
                {
                    "name": "G3",
                    "midi": 55,
                    "time": 227.72699400000087,
                    "velocity": 0.4330708661417323,
                    "duration": 0.4345935000000054
                },
                {
                    "name": "D3",
                    "midi": 50,
                    "time": 228.59618100000088,
                    "velocity": 0.4015748031496063,
                    "duration": 0.4345935000000054
                },
                {
                    "name": "F#3",
                    "midi": 54,
                    "time": 229.0307745000009,
                    "velocity": 0.2992125984251969,
                    "duration": 0.4345935000000054
                },
                {
                    "name": "D#4",
                    "midi": 63,
                    "time": 229.0307745000009,
                    "velocity": 0.5196850393700787,
                    "duration": 0.4345935000000054
                },
                {
                    "name": "A3",
                    "midi": 57,
                    "time": 229.0307745000009,
                    "velocity": 0.3779527559055118,
                    "duration": 0.4345935000000054
                },
                {
                    "name": "D#3",
                    "midi": 51,
                    "time": 229.0307745000009,
                    "velocity": 0.2992125984251969,
                    "duration": 0.4345935000000054
                },
                {
                    "name": "D4",
                    "midi": 62,
                    "time": 229.4653680000009,
                    "velocity": 0.3937007874015748,
                    "duration": 0.4345935000000054
                },
                {
                    "name": "D3",
                    "midi": 50,
                    "time": 229.8999615000009,
                    "velocity": 0.41732283464566927,
                    "duration": 0.4345935000000054
                },
                {
                    "name": "G2",
                    "midi": 43,
                    "time": 230.3345550000009,
                    "velocity": 0.3858267716535433,
                    "duration": 0.2172967500000027
                },
                {
                    "name": "D3",
                    "midi": 50,
                    "time": 230.7691485000009,
                    "velocity": 0.3543307086614173,
                    "duration": 0.8691870000000108
                },
                {
                    "name": "D4",
                    "midi": 62,
                    "time": 231.20374200000091,
                    "velocity": 0.3543307086614173,
                    "duration": 0.4345935000000054
                },
                {
                    "name": "D#4",
                    "midi": 63,
                    "time": 231.63833550000092,
                    "velocity": 0.44881889763779526,
                    "duration": 0.4345935000000338
                },
                {
                    "name": "D#3",
                    "midi": 51,
                    "time": 231.63833550000092,
                    "velocity": 0.2677165354330709,
                    "duration": 0.4345935000000338
                },
                {
                    "name": "F#3",
                    "midi": 54,
                    "time": 231.63833550000092,
                    "velocity": 0.2677165354330709,
                    "duration": 0.4345935000000338
                },
                {
                    "name": "A3",
                    "midi": 57,
                    "time": 231.63833550000092,
                    "velocity": 0.33070866141732286,
                    "duration": 0.4345935000000338
                },
                {
                    "name": "D4",
                    "midi": 62,
                    "time": 232.07292900000095,
                    "velocity": 0.3543307086614173,
                    "duration": 0.4345935000000054
                },
                {
                    "name": "D3",
                    "midi": 50,
                    "time": 232.50752250000096,
                    "velocity": 0.3700787401574803,
                    "duration": 0.4345935000000054
                },
                {
                    "name": "G2",
                    "midi": 43,
                    "time": 232.94211600000096,
                    "velocity": 0.4566929133858268,
                    "duration": 0.4345935000000054
                },
                {
                    "name": "A#3",
                    "midi": 58,
                    "time": 233.37670950000097,
                    "velocity": 0.3543307086614173,
                    "duration": 0.4345935000000054
                },
                {
                    "name": "D3",
                    "midi": 50,
                    "time": 233.37670950000097,
                    "velocity": 0.3543307086614173,
                    "duration": 0.4345935000000054
                },
                {
                    "name": "C#2",
                    "midi": 37,
                    "time": 234.24589650000098,
                    "velocity": 0.36220472440944884,
                    "duration": 0.4345935000000054
                },
                {
                    "name": "C#3",
                    "midi": 49,
                    "time": 234.24589650000098,
                    "velocity": 0.4566929133858268,
                    "duration": 0.4345935000000054
                },
                {
                    "name": "D2",
                    "midi": 38,
                    "time": 234.680490000001,
                    "velocity": 0.30708661417322836,
                    "duration": 0.4345935000000054
                },
                {
                    "name": "D3",
                    "midi": 50,
                    "time": 234.680490000001,
                    "velocity": 0.3543307086614173,
                    "duration": 0.4345935000000054
                },
                {
                    "name": "G2",
                    "midi": 43,
                    "time": 235.549677000001,
                    "velocity": 0.3858267716535433,
                    "duration": 0.434593499999977
                },
                {
                    "name": "G1",
                    "midi": 31,
                    "time": 235.549677000001,
                    "velocity": 0.3858267716535433,
                    "duration": 0.434593499999977
                },
                {
                    "name": "A#2",
                    "midi": 46,
                    "time": 235.98427050000097,
                    "velocity": 0.2992125984251969,
                    "duration": 0.4345935000000054
                },
                {
                    "name": "C#2",
                    "midi": 37,
                    "time": 236.85345750000099,
                    "velocity": 0.3858267716535433,
                    "duration": 0.4345935000000054
                },
                {
                    "name": "D2",
                    "midi": 38,
                    "time": 237.288051000001,
                    "velocity": 0.2992125984251969,
                    "duration": 0.4345935000000054
                },
                {
                    "name": "G2",
                    "midi": 43,
                    "time": 238.157238000001,
                    "velocity": 0.3858267716535433,
                    "duration": 0.4345935000000054
                },
                {
                    "name": "G1",
                    "midi": 31,
                    "time": 238.157238000001,
                    "velocity": 0.3858267716535433,
                    "duration": 0.4345935000000054
                },
                {
                    "name": "C2",
                    "midi": 36,
                    "time": 239.026425000001,
                    "velocity": 0.3543307086614173,
                    "duration": 0.4345935000000054
                },
                {
                    "name": "G1",
                    "midi": 31,
                    "time": 239.46101850000102,
                    "velocity": 0.3858267716535433,
                    "duration": 0.4345935000000054
                },
                {
                    "name": "G2",
                    "midi": 43,
                    "time": 239.46101850000102,
                    "velocity": 0.3858267716535433,
                    "duration": 0.4345935000000054
                },
                {
                    "name": "C2",
                    "midi": 36,
                    "time": 240.33020550000103,
                    "velocity": 0.3543307086614173,
                    "duration": 0.4345935000000054
                },
                {
                    "name": "G1",
                    "midi": 31,
                    "time": 240.76479900000103,
                    "velocity": 0.3858267716535433,
                    "duration": 0.4345935000000054
                },
                {
                    "name": "G2",
                    "midi": 43,
                    "time": 240.76479900000103,
                    "velocity": 0.3858267716535433,
                    "duration": 0.4345935000000054
                },
                {
                    "name": "C2",
                    "midi": 36,
                    "time": 241.63398600000104,
                    "velocity": 0.3543307086614173,
                    "duration": 0.4345935000000054
                },
                {
                    "name": "G2",
                    "midi": 43,
                    "time": 242.06857950000105,
                    "velocity": 0.3858267716535433,
                    "duration": 0.4345935000000054
                },
                {
                    "name": "G1",
                    "midi": 31,
                    "time": 242.06857950000105,
                    "velocity": 0.3858267716535433,
                    "duration": 0.4345935000000054
                },
                {
                    "name": "C2",
                    "midi": 36,
                    "time": 242.93776650000106,
                    "velocity": 0.3543307086614173,
                    "duration": 0.4345935000000054
                },
                {
                    "name": "G1",
                    "midi": 31,
                    "time": 243.37236000000107,
                    "velocity": 0.3228346456692913,
                    "duration": 1.3037804999999878
                },
                {
                    "name": "G2",
                    "midi": 43,
                    "time": 243.37236000000107,
                    "velocity": 0.3858267716535433,
                    "duration": 1.3037804999999878
                },
                {
                    "name": "D4",
                    "midi": 62,
                    "time": 245.11073400000106,
                    "velocity": 0.3779527559055118,
                    "duration": 0.3983773749999955
                },
                {
                    "name": "G4",
                    "midi": 67,
                    "time": 245.11073400000106,
                    "velocity": 0.44881889763779526,
                    "duration": 0.3983773749999955
                },
                {
                    "name": "D4",
                    "midi": 62,
                    "time": 245.54532750000106,
                    "velocity": 0.41732283464566927,
                    "duration": 0.3983773749999955
                },
                {
                    "name": "G3",
                    "midi": 55,
                    "time": 245.54532750000106,
                    "velocity": 0.3543307086614173,
                    "duration": 0.3983773749999955
                },
                {
                    "name": "D4",
                    "midi": 62,
                    "time": 245.97992100000107,
                    "velocity": 0.3779527559055118,
                    "duration": 0.8691870000000108
                },
                {
                    "name": "G4",
                    "midi": 67,
                    "time": 245.97992100000107,
                    "velocity": 0.44881889763779526,
                    "duration": 0.8691870000000108
                },
                {
                    "name": "D2",
                    "midi": 38,
                    "time": 248.15288850000107,
                    "velocity": 0.3858267716535433,
                    "duration": 0.4345935000000054
                },
                {
                    "name": "G1",
                    "midi": 31,
                    "time": 248.58748200000107,
                    "velocity": 0.3464566929133858,
                    "duration": 2.1729674999999986
                },
                {
                    "name": "G2",
                    "midi": 43,
                    "time": 248.58748200000107,
                    "velocity": 0.4094488188976378,
                    "duration": 2.1729674999999986
                },
                {
                    "name": "D2",
                    "midi": 38,
                    "time": 250.76044950000107,
                    "velocity": 0.3700787401574803,
                    "duration": 0.4345935000000054
                },
                {
                    "name": "F#1",
                    "midi": 30,
                    "time": 251.19504300000108,
                    "velocity": 0.3464566929133858,
                    "duration": 2.1729674999999986
                },
                {
                    "name": "F#2",
                    "midi": 42,
                    "time": 251.19504300000108,
                    "velocity": 0.4094488188976378,
                    "duration": 2.1729674999999986
                },
                {
                    "name": "D2",
                    "midi": 38,
                    "time": 253.36801050000108,
                    "velocity": 0.3700787401574803,
                    "duration": 0.4345935000000054
                },
                {
                    "name": "G2",
                    "midi": 43,
                    "time": 253.80260400000108,
                    "velocity": 0.3858267716535433,
                    "duration": 1.3037804999999878
                },
                {
                    "name": "G1",
                    "midi": 31,
                    "time": 253.80260400000108,
                    "velocity": 0.3228346456692913,
                    "duration": 1.3037804999999878
                },
                {
                    "name": "G3",
                    "midi": 55,
                    "time": 255.54097800000108,
                    "velocity": 0.44881889763779526,
                    "duration": 0.3983773749999955
                },
                {
                    "name": "D3",
                    "midi": 50,
                    "time": 255.54097800000108,
                    "velocity": 0.3779527559055118,
                    "duration": 0.3983773749999955
                },
                {
                    "name": "G2",
                    "midi": 43,
                    "time": 255.97557150000108,
                    "velocity": 0.3543307086614173,
                    "duration": 0.3983773749999955
                },
                {
                    "name": "D3",
                    "midi": 50,
                    "time": 255.97557150000108,
                    "velocity": 0.41732283464566927,
                    "duration": 0.3983773749999955
                },
                {
                    "name": "D3",
                    "midi": 50,
                    "time": 256.4101650000011,
                    "velocity": 0.3779527559055118,
                    "duration": 0.8691870000000108
                },
                {
                    "name": "G3",
                    "midi": 55,
                    "time": 256.4101650000011,
                    "velocity": 0.44881889763779526,
                    "duration": 0.8691870000000108
                },
                {
                    "name": "D2",
                    "midi": 38,
                    "time": 258.5831325000011,
                    "velocity": 0.3858267716535433,
                    "duration": 0.4345935000000054
                },
                {
                    "name": "F#2",
                    "midi": 42,
                    "time": 259.0177260000011,
                    "velocity": 0.4094488188976378,
                    "duration": 2.172967500000027
                },
                {
                    "name": "F#1",
                    "midi": 30,
                    "time": 259.0177260000011,
                    "velocity": 0.3464566929133858,
                    "duration": 2.172967500000027
                },
                {
                    "name": "D2",
                    "midi": 38,
                    "time": 261.19069350000115,
                    "velocity": 0.3700787401574803,
                    "duration": 0.4345935000000054
                },
                {
                    "name": "F2",
                    "midi": 41,
                    "time": 261.62528700000115,
                    "velocity": 0.4094488188976378,
                    "duration": 2.172967500000027
                },
                {
                    "name": "F1",
                    "midi": 29,
                    "time": 261.62528700000115,
                    "velocity": 0.3464566929133858,
                    "duration": 3.4767480000000432
                },
                {
                    "name": "G2",
                    "midi": 43,
                    "time": 263.7982545000012,
                    "velocity": 0.3700787401574803,
                    "duration": 0.4345935000000054
                },
                {
                    "name": "A2",
                    "midi": 45,
                    "time": 264.2328480000012,
                    "velocity": 0.3858267716535433,
                    "duration": 0.8691870000000108
                },
                {
                    "name": "C4",
                    "midi": 60,
                    "time": 265.9712220000012,
                    "velocity": 0.3464566929133858,
                    "duration": 0.3983773749999955
                },
                {
                    "name": "F4",
                    "midi": 65,
                    "time": 265.9712220000012,
                    "velocity": 0.4094488188976378,
                    "duration": 0.3983773749999955
                },
                {
                    "name": "C4",
                    "midi": 60,
                    "time": 266.4058155000012,
                    "velocity": 0.3464566929133858,
                    "duration": 0.3983773749999955
                },
                {
                    "name": "F3",
                    "midi": 53,
                    "time": 266.4058155000012,
                    "velocity": 0.28346456692913385,
                    "duration": 0.3983773749999955
                },
                {
                    "name": "F4",
                    "midi": 65,
                    "time": 266.8404090000012,
                    "velocity": 0.4094488188976378,
                    "duration": 2.172967500000027
                },
                {
                    "name": "C4",
                    "midi": 60,
                    "time": 266.8404090000012,
                    "velocity": 0.3464566929133858,
                    "duration": 2.172967500000027
                },
                {
                    "name": "F3",
                    "midi": 53,
                    "time": 269.01337650000124,
                    "velocity": 0.2755905511811024,
                    "duration": 0.4345935000000054
                },
                {
                    "name": "C4",
                    "midi": 60,
                    "time": 269.01337650000124,
                    "velocity": 0.3228346456692913,
                    "duration": 0.4345935000000054
                },
                {
                    "name": "F4",
                    "midi": 65,
                    "time": 269.44797000000125,
                    "velocity": 0.36220472440944884,
                    "duration": 2.172967500000027
                },
                {
                    "name": "C4",
                    "midi": 60,
                    "time": 269.44797000000125,
                    "velocity": 0.30708661417322836,
                    "duration": 2.172967500000027
                },
                {
                    "name": "F3",
                    "midi": 53,
                    "time": 271.6209375000013,
                    "velocity": 0.2440944881889764,
                    "duration": 0.4345935000000054
                },
                {
                    "name": "C4",
                    "midi": 60,
                    "time": 271.6209375000013,
                    "velocity": 0.28346456692913385,
                    "duration": 0.4345935000000054
                },
                {
                    "name": "C4",
                    "midi": 60,
                    "time": 272.0555310000013,
                    "velocity": 0.2677165354330709,
                    "duration": 0.8691870000000108
                },
                {
                    "name": "F4",
                    "midi": 65,
                    "time": 272.0555310000013,
                    "velocity": 0.31496062992125984,
                    "duration": 0.8691870000000108
                },
                {
                    "name": "F3",
                    "midi": 53,
                    "time": 272.9247180000013,
                    "velocity": 0.2204724409448819,
                    "duration": 0.4345935000000054
                },
                {
                    "name": "C4",
                    "midi": 60,
                    "time": 272.9247180000013,
                    "velocity": 0.2677165354330709,
                    "duration": 0.4345935000000054
                },
                {
                    "name": "F4",
                    "midi": 65,
                    "time": 273.3593115000013,
                    "velocity": 0.29133858267716534,
                    "duration": 0.4345935000000054
                },
                {
                    "name": "C4",
                    "midi": 60,
                    "time": 273.3593115000013,
                    "velocity": 0.2440944881889764,
                    "duration": 0.4345935000000054
                },
                {
                    "name": "F3",
                    "midi": 53,
                    "time": 273.7939050000013,
                    "velocity": 0.23622047244094488,
                    "duration": 0.41648543750000044
                },
                {
                    "name": "C4",
                    "midi": 60,
                    "time": 273.7939050000013,
                    "velocity": 0.28346456692913385,
                    "duration": 0.41648543750000044
                },
                {
                    "name": "A#1",
                    "midi": 34,
                    "time": 274.6630920000013,
                    "velocity": 0.28346456692913385,
                    "duration": 0.8691870000000108
                },
                {
                    "name": "A#2",
                    "midi": 46,
                    "time": 275.5322790000013,
                    "velocity": 0.2283464566929134,
                    "duration": 0.8691870000000108
                },
                {
                    "name": "G#3",
                    "midi": 56,
                    "time": 276.40146600000134,
                    "velocity": 0.2283464566929134,
                    "duration": 0.8691870000000108
                },
                {
                    "name": "F3",
                    "midi": 53,
                    "time": 277.27065300000135,
                    "velocity": 0.2440944881889764,
                    "duration": 0.8691870000000108
                },
                {
                    "name": "C4",
                    "midi": 60,
                    "time": 278.13984000000136,
                    "velocity": 0.2440944881889764,
                    "duration": 0.8691870000000108
                },
                {
                    "name": "A#3",
                    "midi": 58,
                    "time": 279.00902700000137,
                    "velocity": 0.2440944881889764,
                    "duration": 0.8691870000000108
                },
                {
                    "name": "D#2",
                    "midi": 39,
                    "time": 279.8782140000014,
                    "velocity": 0.28346456692913385,
                    "duration": 0.8691870000000108
                },
                {
                    "name": "A#2",
                    "midi": 46,
                    "time": 280.7474010000014,
                    "velocity": 0.2125984251968504,
                    "duration": 0.8691870000000108
                },
                {
                    "name": "D#3",
                    "midi": 51,
                    "time": 281.6165880000014,
                    "velocity": 0.2047244094488189,
                    "duration": 0.8691870000000108
                },
                {
                    "name": "G3",
                    "midi": 55,
                    "time": 282.4857750000014,
                    "velocity": 0.25196850393700787,
                    "duration": 0.8691870000000108
                },
                {
                    "name": "A#3",
                    "midi": 58,
                    "time": 283.3549620000014,
                    "velocity": 0.2440944881889764,
                    "duration": 0.8691870000000108
                },
                {
                    "name": "D#4",
                    "midi": 63,
                    "time": 284.22414900000143,
                    "velocity": 0.2440944881889764,
                    "duration": 0.8691870000000108
                },
                {
                    "name": "C4",
                    "midi": 60,
                    "time": 285.09333600000144,
                    "velocity": 0.25984251968503935,
                    "duration": 0.8691870000000108
                },
                {
                    "name": "D#4",
                    "midi": 63,
                    "time": 285.96252300000145,
                    "velocity": 0.23622047244094488,
                    "duration": 0.8691870000000108
                },
                {
                    "name": "F3",
                    "midi": 53,
                    "time": 286.83171000000146,
                    "velocity": 0.1968503937007874,
                    "duration": 0.8691870000000108
                },
                {
                    "name": "D#4",
                    "midi": 63,
                    "time": 287.7008970000015,
                    "velocity": 0.25984251968503935,
                    "duration": 0.8691870000000108
                },
                {
                    "name": "G4",
                    "midi": 67,
                    "time": 288.5700840000015,
                    "velocity": 0.23622047244094488,
                    "duration": 0.8691870000000108
                },
                {
                    "name": "F4",
                    "midi": 65,
                    "time": 289.4392710000015,
                    "velocity": 0.23622047244094488,
                    "duration": 0.8691870000000108
                },
                {
                    "name": "A#2",
                    "midi": 46,
                    "time": 290.3084580000015,
                    "velocity": 0.28346456692913385,
                    "duration": 0.869186999999954
                },
                {
                    "name": "F3",
                    "midi": 53,
                    "time": 291.17764500000146,
                    "velocity": 0.2283464566929134,
                    "duration": 0.8691870000000108
                },
                {
                    "name": "A#3",
                    "midi": 58,
                    "time": 292.0468320000015,
                    "velocity": 0.2283464566929134,
                    "duration": 0.8691870000000108
                },
                {
                    "name": "D4",
                    "midi": 62,
                    "time": 292.9160190000015,
                    "velocity": 0.25196850393700787,
                    "duration": 0.8691870000000108
                },
                {
                    "name": "F4",
                    "midi": 65,
                    "time": 293.7852060000015,
                    "velocity": 0.25196850393700787,
                    "duration": 0.8691870000000108
                },
                {
                    "name": "A#4",
                    "midi": 70,
                    "time": 294.6543930000015,
                    "velocity": 0.25196850393700787,
                    "duration": 0.8691870000000108
                },
                {
                    "name": "C4",
                    "midi": 60,
                    "time": 295.5235800000015,
                    "velocity": 0.28346456692913385,
                    "duration": 0.8691870000000108
                },
                {
                    "name": "D#4",
                    "midi": 63,
                    "time": 296.3927670000015,
                    "velocity": 0.23622047244094488,
                    "duration": 0.8691870000000108
                },
                {
                    "name": "F3",
                    "midi": 53,
                    "time": 297.26195400000154,
                    "velocity": 0.23622047244094488,
                    "duration": 0.8691870000000108
                },
                {
                    "name": "A#3",
                    "midi": 58,
                    "time": 298.13114100000155,
                    "velocity": 0.25984251968503935,
                    "duration": 0.8691870000000108
                },
                {
                    "name": "D4",
                    "midi": 62,
                    "time": 299.00032800000156,
                    "velocity": 0.2047244094488189,
                    "duration": 0.8691870000000108
                },
                {
                    "name": "G#4",
                    "midi": 68,
                    "time": 299.86951500000157,
                    "velocity": 0.2204724409448819,
                    "duration": 0.8691870000000108
                },
                {
                    "name": "A#3",
                    "midi": 58,
                    "time": 300.7387020000016,
                    "velocity": 0.28346456692913385,
                    "duration": 0.8691870000000108
                },
                {
                    "name": "D4",
                    "midi": 62,
                    "time": 301.6078890000016,
                    "velocity": 0.2283464566929134,
                    "duration": 0.8691870000000108
                },
                {
                    "name": "D#3",
                    "midi": 51,
                    "time": 302.4770760000016,
                    "velocity": 0.2283464566929134,
                    "duration": 0.8691870000000108
                },
                {
                    "name": "G#3",
                    "midi": 56,
                    "time": 303.3462630000016,
                    "velocity": 0.2204724409448819,
                    "duration": 0.8691870000000108
                },
                {
                    "name": "C4",
                    "midi": 60,
                    "time": 304.2154500000016,
                    "velocity": 0.2283464566929134,
                    "duration": 0.8691870000000108
                },
                {
                    "name": "G4",
                    "midi": 67,
                    "time": 305.08463700000163,
                    "velocity": 0.2283464566929134,
                    "duration": 0.8691870000000108
                },
                {
                    "name": "G#3",
                    "midi": 56,
                    "time": 305.95382400000165,
                    "velocity": 0.28346456692913385,
                    "duration": 0.8691870000000108
                },
                {
                    "name": "C4",
                    "midi": 60,
                    "time": 306.82301100000166,
                    "velocity": 0.2440944881889764,
                    "duration": 0.8691870000000108
                },
                {
                    "name": "D3",
                    "midi": 50,
                    "time": 307.69219800000167,
                    "velocity": 0.25196850393700787,
                    "duration": 0.8691870000000108
                },
                {
                    "name": "G3",
                    "midi": 55,
                    "time": 308.5613850000017,
                    "velocity": 0.23622047244094488,
                    "duration": 0.8691870000000108
                },
                {
                    "name": "B3",
                    "midi": 59,
                    "time": 309.4305720000017,
                    "velocity": 0.28346456692913385,
                    "duration": 0.8691870000000108
                },
                {
                    "name": "F4",
                    "midi": 65,
                    "time": 310.2997590000017,
                    "velocity": 0.23622047244094488,
                    "duration": 0.8691870000000108
                },
                {
                    "name": "G3",
                    "midi": 55,
                    "time": 311.1689460000017,
                    "velocity": 0.28346456692913385,
                    "duration": 0.869186999999954
                },
                {
                    "name": "C4",
                    "midi": 60,
                    "time": 312.03813300000166,
                    "velocity": 0.2440944881889764,
                    "duration": 0.8691870000000108
                },
                {
                    "name": "C3",
                    "midi": 48,
                    "time": 312.9073200000017,
                    "velocity": 0.2440944881889764,
                    "duration": 0.8691870000000108
                },
                {
                    "name": "F3",
                    "midi": 53,
                    "time": 313.7765070000017,
                    "velocity": 0.25984251968503935,
                    "duration": 0.8691870000000108
                },
                {
                    "name": "A3",
                    "midi": 57,
                    "time": 314.6456940000017,
                    "velocity": 0.25984251968503935,
                    "duration": 0.8691870000000108
                },
                {
                    "name": "D#4",
                    "midi": 63,
                    "time": 315.5148810000017,
                    "velocity": 0.25984251968503935,
                    "duration": 0.8691870000000108
                },
                {
                    "name": "F3",
                    "midi": 53,
                    "time": 316.3840680000017,
                    "velocity": 0.28346456692913385,
                    "duration": 0.8691870000000108
                },
                {
                    "name": "G#3",
                    "midi": 56,
                    "time": 317.25325500000173,
                    "velocity": 0.2283464566929134,
                    "duration": 0.8691870000000108
                },
                {
                    "name": "A#2",
                    "midi": 46,
                    "time": 318.12244200000174,
                    "velocity": 0.2283464566929134,
                    "duration": 0.8691870000000108
                },
                {
                    "name": "G#3",
                    "midi": 56,
                    "time": 318.99162900000175,
                    "velocity": 0.2440944881889764,
                    "duration": 0.8691870000000108
                },
                {
                    "name": "C4",
                    "midi": 60,
                    "time": 319.86081600000176,
                    "velocity": 0.2440944881889764,
                    "duration": 0.8691870000000108
                },
                {
                    "name": "A#3",
                    "midi": 58,
                    "time": 320.7300030000018,
                    "velocity": 0.2440944881889764,
                    "duration": 0.8691870000000108
                },
                {
                    "name": "D#2",
                    "midi": 39,
                    "time": 321.5991900000018,
                    "velocity": 0.28346456692913385,
                    "duration": 0.8691870000000108
                },
                {
                    "name": "A#2",
                    "midi": 46,
                    "time": 322.4683770000018,
                    "velocity": 0.23622047244094488,
                    "duration": 0.8691870000000108
                },
                {
                    "name": "D#3",
                    "midi": 51,
                    "time": 323.3375640000018,
                    "velocity": 0.2125984251968504,
                    "duration": 0.8691870000000108
                },
                {
                    "name": "G3",
                    "midi": 55,
                    "time": 324.2067510000018,
                    "velocity": 0.2440944881889764,
                    "duration": 0.8691870000000108
                },
                {
                    "name": "A#3",
                    "midi": 58,
                    "time": 325.0759380000018,
                    "velocity": 0.2440944881889764,
                    "duration": 0.8691870000000108
                },
                {
                    "name": "D#4",
                    "midi": 63,
                    "time": 325.94512500000184,
                    "velocity": 0.2204724409448819,
                    "duration": 0.8691870000000108
                },
                {
                    "name": "C4",
                    "midi": 60,
                    "time": 326.81431200000185,
                    "velocity": 0.23622047244094488,
                    "duration": 0.8691870000000108
                },
                {
                    "name": "D#4",
                    "midi": 63,
                    "time": 327.68349900000186,
                    "velocity": 0.23622047244094488,
                    "duration": 0.8691870000000108
                },
                {
                    "name": "F3",
                    "midi": 53,
                    "time": 328.55268600000187,
                    "velocity": 0.1968503937007874,
                    "duration": 0.8691870000000108
                },
                {
                    "name": "D#4",
                    "midi": 63,
                    "time": 329.4218730000019,
                    "velocity": 0.25984251968503935,
                    "duration": 0.8691870000000108
                },
                {
                    "name": "G4",
                    "midi": 67,
                    "time": 330.2910600000019,
                    "velocity": 0.23622047244094488,
                    "duration": 0.8691870000000108
                },
                {
                    "name": "F4",
                    "midi": 65,
                    "time": 331.1602470000019,
                    "velocity": 0.23622047244094488,
                    "duration": 0.8691870000000108
                },
                {
                    "name": "A#2",
                    "midi": 46,
                    "time": 332.0294340000019,
                    "velocity": 0.28346456692913385,
                    "duration": 0.8691870000000108
                },
                {
                    "name": "F3",
                    "midi": 53,
                    "time": 332.8986210000019,
                    "velocity": 0.25196850393700787,
                    "duration": 0.8691870000000108
                },
                {
                    "name": "A#3",
                    "midi": 58,
                    "time": 333.76780800000193,
                    "velocity": 0.25196850393700787,
                    "duration": 0.8691870000000108
                },
                {
                    "name": "D4",
                    "midi": 62,
                    "time": 334.63699500000195,
                    "velocity": 0.2677165354330709,
                    "duration": 0.8691870000000108
                },
                {
                    "name": "F4",
                    "midi": 65,
                    "time": 335.50618200000196,
                    "velocity": 0.29133858267716534,
                    "duration": 0.8691870000000108
                },
                {
                    "name": "A#4",
                    "midi": 70,
                    "time": 336.37536900000197,
                    "velocity": 0.33070866141732286,
                    "duration": 0.8691870000000108
                },
                {
                    "name": "C2",
                    "midi": 36,
                    "time": 337.244556000002,
                    "velocity": 0.3464566929133858,
                    "duration": 0.8691870000000108
                },
                {
                    "name": "E4",
                    "midi": 64,
                    "time": 338.113743000002,
                    "velocity": 0.23622047244094488,
                    "duration": 0.8691870000000108
                },
                {
                    "name": "A#3",
                    "midi": 58,
                    "time": 338.982930000002,
                    "velocity": 0.2047244094488189,
                    "duration": 0.8691870000000108
                },
                {
                    "name": "G3",
                    "midi": 55,
                    "time": 339.852117000002,
                    "velocity": 0.23622047244094488,
                    "duration": 2.6075610000000324
                },
                {
                    "name": "E4",
                    "midi": 64,
                    "time": 340.721304000002,
                    "velocity": 0.2125984251968504,
                    "duration": 0.8691870000000108
                },
                {
                    "name": "A#3",
                    "midi": 58,
                    "time": 341.59049100000203,
                    "velocity": 0.2125984251968504,
                    "duration": 0.8691870000000108
                },
                {
                    "name": "F3",
                    "midi": 53,
                    "time": 342.45967800000204,
                    "velocity": 0.28346456692913385,
                    "duration": 2.6075610000000324
                },
                {
                    "name": "D#4",
                    "midi": 63,
                    "time": 343.32886500000205,
                    "velocity": 0.2440944881889764,
                    "duration": 0.8691870000000108
                },
                {
                    "name": "A3",
                    "midi": 57,
                    "time": 344.19805200000206,
                    "velocity": 0.2440944881889764,
                    "duration": 0.8691870000000108
                },
                {
                    "name": "A#2",
                    "midi": 46,
                    "time": 345.0672390000021,
                    "velocity": 0.28346456692913385,
                    "duration": 0.8691870000000108
                },
                {
                    "name": "D4",
                    "midi": 62,
                    "time": 345.9364260000021,
                    "velocity": 0.2440944881889764,
                    "duration": 0.8691870000000108
                },
                {
                    "name": "G#3",
                    "midi": 56,
                    "time": 346.8056130000021,
                    "velocity": 0.2440944881889764,
                    "duration": 0.8691870000000108
                },
                {
                    "name": "D#2",
                    "midi": 39,
                    "time": 347.6748000000021,
                    "velocity": 0.2992125984251969,
                    "duration": 0.4345935000000054
                },
                {
                    "name": "A#2",
                    "midi": 46,
                    "time": 348.1093935000021,
                    "velocity": 0.2047244094488189,
                    "duration": 0.4345935000000054
                },
                {
                    "name": "G3",
                    "midi": 55,
                    "time": 348.5439870000021,
                    "velocity": 0.2440944881889764,
                    "duration": 0.4345935000000054
                },
                {
                    "name": "D#3",
                    "midi": 51,
                    "time": 348.9785805000021,
                    "velocity": 0.2125984251968504,
                    "duration": 0.4345935000000054
                },
                {
                    "name": "A#3",
                    "midi": 58,
                    "time": 349.41317400000213,
                    "velocity": 0.2440944881889764,
                    "duration": 0.4345935000000054
                },
                {
                    "name": "G3",
                    "midi": 55,
                    "time": 349.84776750000213,
                    "velocity": 0.2125984251968504,
                    "duration": 0.4345935000000054
                },
                {
                    "name": "D#4",
                    "midi": 63,
                    "time": 350.28236100000214,
                    "velocity": 0.25196850393700787,
                    "duration": 0.8691870000000108
                },
                {
                    "name": "D#2",
                    "midi": 39,
                    "time": 352.8899220000021,
                    "velocity": 0.25196850393700787,
                    "duration": 0.4345935000000054
                },
                {
                    "name": "A#2",
                    "midi": 46,
                    "time": 353.3245155000021,
                    "velocity": 0.1732283464566929,
                    "duration": 0.4345935000000054
                },
                {
                    "name": "G3",
                    "midi": 55,
                    "time": 353.7591090000021,
                    "velocity": 0.2047244094488189,
                    "duration": 0.4345935000000054
                },
                {
                    "name": "D#3",
                    "midi": 51,
                    "time": 354.19370250000213,
                    "velocity": 0.1732283464566929,
                    "duration": 0.4345935000000054
                },
                {
                    "name": "A#3",
                    "midi": 58,
                    "time": 354.62829600000214,
                    "velocity": 0.2047244094488189,
                    "duration": 0.4345935000000054
                },
                {
                    "name": "G3",
                    "midi": 55,
                    "time": 355.06288950000214,
                    "velocity": 0.1732283464566929,
                    "duration": 0.4345935000000054
                },
                {
                    "name": "D#4",
                    "midi": 63,
                    "time": 355.49748300000215,
                    "velocity": 0.2125984251968504,
                    "duration": 0.8691870000000108
                },
                {
                    "name": "D#2",
                    "midi": 39,
                    "time": 358.1050440000022,
                    "velocity": 0.25196850393700787,
                    "duration": 0.4345935000000054
                },
                {
                    "name": "A#2",
                    "midi": 46,
                    "time": 358.5396375000022,
                    "velocity": 0.1732283464566929,
                    "duration": 0.4345935000000054
                },
                {
                    "name": "G#3",
                    "midi": 56,
                    "time": 358.9742310000022,
                    "velocity": 0.2047244094488189,
                    "duration": 0.4345935000000054
                },
                {
                    "name": "F3",
                    "midi": 53,
                    "time": 359.4088245000022,
                    "velocity": 0.1732283464566929,
                    "duration": 0.4345935000000054
                },
                {
                    "name": "A#3",
                    "midi": 58,
                    "time": 359.8434180000022,
                    "velocity": 0.2047244094488189,
                    "duration": 0.4345935000000054
                },
                {
                    "name": "G#3",
                    "midi": 56,
                    "time": 360.2780115000022,
                    "velocity": 0.1732283464566929,
                    "duration": 0.4345935000000054
                },
                {
                    "name": "D4",
                    "midi": 62,
                    "time": 360.7126050000022,
                    "velocity": 0.2125984251968504,
                    "duration": 0.8691870000000108
                },
                {
                    "name": "D#2",
                    "midi": 39,
                    "time": 363.32016600000225,
                    "velocity": 0.25196850393700787,
                    "duration": 0.4345935000000054
                },
                {
                    "name": "A#2",
                    "midi": 46,
                    "time": 363.75475950000225,
                    "velocity": 0.1968503937007874,
                    "duration": 0.4345935000000054
                },
                {
                    "name": "G3",
                    "midi": 55,
                    "time": 364.18935300000226,
                    "velocity": 0.2204724409448819,
                    "duration": 0.8691870000000108
                },
                {
                    "name": "D#2",
                    "midi": 39,
                    "time": 365.9277270000023,
                    "velocity": 0.25196850393700787,
                    "duration": 0.4345935000000054
                },
                {
                    "name": "D#3",
                    "midi": 51,
                    "time": 366.3623205000023,
                    "velocity": 0.1968503937007874,
                    "duration": 0.4345935000000054
                },
                {
                    "name": "G#3",
                    "midi": 56,
                    "time": 366.7969140000023,
                    "velocity": 0.2283464566929134,
                    "duration": 0.8691870000000108
                },
                {
                    "name": "D#2",
                    "midi": 39,
                    "time": 368.5352880000023,
                    "velocity": 0.25196850393700787,
                    "duration": 0.4345935000000054
                },
                {
                    "name": "A#2",
                    "midi": 46,
                    "time": 368.9698815000023,
                    "velocity": 0.1732283464566929,
                    "duration": 0.4345935000000054
                },
                {
                    "name": "G3",
                    "midi": 55,
                    "time": 369.4044750000023,
                    "velocity": 0.2047244094488189,
                    "duration": 0.4345935000000054
                },
                {
                    "name": "D#3",
                    "midi": 51,
                    "time": 369.8390685000023,
                    "velocity": 0.1732283464566929,
                    "duration": 0.4345935000000054
                },
                {
                    "name": "A#3",
                    "midi": 58,
                    "time": 370.27366200000233,
                    "velocity": 0.2047244094488189,
                    "duration": 0.4345935000000054
                },
                {
                    "name": "G3",
                    "midi": 55,
                    "time": 370.70825550000234,
                    "velocity": 0.1732283464566929,
                    "duration": 0.4345935000000054
                },
                {
                    "name": "D#4",
                    "midi": 63,
                    "time": 371.14284900000234,
                    "velocity": 0.2125984251968504,
                    "duration": 0.8691870000000108
                },
                {
                    "name": "D#2",
                    "midi": 39,
                    "time": 373.7504100000023,
                    "velocity": 0.25196850393700787,
                    "duration": 0.4345935000000054
                },
                {
                    "name": "A#2",
                    "midi": 46,
                    "time": 374.1850035000023,
                    "velocity": 0.1732283464566929,
                    "duration": 0.4345935000000054
                },
                {
                    "name": "G3",
                    "midi": 55,
                    "time": 374.61959700000233,
                    "velocity": 0.2047244094488189,
                    "duration": 0.4345935000000054
                },
                {
                    "name": "D#3",
                    "midi": 51,
                    "time": 375.05419050000233,
                    "velocity": 0.1732283464566929,
                    "duration": 0.4345935000000054
                },
                {
                    "name": "A#3",
                    "midi": 58,
                    "time": 375.48878400000234,
                    "velocity": 0.2047244094488189,
                    "duration": 0.4345935000000054
                },
                {
                    "name": "G3",
                    "midi": 55,
                    "time": 375.92337750000235,
                    "velocity": 0.1732283464566929,
                    "duration": 0.4345935000000054
                },
                {
                    "name": "D#4",
                    "midi": 63,
                    "time": 376.35797100000235,
                    "velocity": 0.2125984251968504,
                    "duration": 0.8691870000000108
                },
                {
                    "name": "D#2",
                    "midi": 39,
                    "time": 378.9655320000024,
                    "velocity": 0.25196850393700787,
                    "duration": 0.4345935000000054
                },
                {
                    "name": "A#2",
                    "midi": 46,
                    "time": 379.4001255000024,
                    "velocity": 0.1732283464566929,
                    "duration": 0.4345935000000054
                },
                {
                    "name": "G#3",
                    "midi": 56,
                    "time": 379.8347190000024,
                    "velocity": 0.2047244094488189,
                    "duration": 0.4345935000000054
                },
                {
                    "name": "F3",
                    "midi": 53,
                    "time": 380.2693125000024,
                    "velocity": 0.1732283464566929,
                    "duration": 0.4345935000000054
                },
                {
                    "name": "A#3",
                    "midi": 58,
                    "time": 380.7039060000024,
                    "velocity": 0.2047244094488189,
                    "duration": 0.4345935000000054
                },
                {
                    "name": "G#3",
                    "midi": 56,
                    "time": 381.1384995000024,
                    "velocity": 0.1732283464566929,
                    "duration": 0.4345935000000054
                },
                {
                    "name": "D4",
                    "midi": 62,
                    "time": 381.5730930000024,
                    "velocity": 0.2125984251968504,
                    "duration": 0.8691870000000108
                },
                {
                    "name": "D#2",
                    "midi": 39,
                    "time": 384.18065400000245,
                    "velocity": 0.25196850393700787,
                    "duration": 0.43459349999994856
                },
                {
                    "name": "A#2",
                    "midi": 46,
                    "time": 384.6152475000024,
                    "velocity": 0.1968503937007874,
                    "duration": 0.4345935000000054
                },
                {
                    "name": "G3",
                    "midi": 55,
                    "time": 385.0498410000024,
                    "velocity": 0.2204724409448819,
                    "duration": 0.8691870000000108
                },
                {
                    "name": "D#2",
                    "midi": 39,
                    "time": 386.7882150000024,
                    "velocity": 0.25196850393700787,
                    "duration": 0.4345935000000054
                },
                {
                    "name": "D#3",
                    "midi": 51,
                    "time": 387.22280850000243,
                    "velocity": 0.1968503937007874,
                    "duration": 0.4345935000000054
                },
                {
                    "name": "G#3",
                    "midi": 56,
                    "time": 387.65740200000243,
                    "velocity": 0.2283464566929134,
                    "duration": 0.8691870000000108
                },
                {
                    "name": "D#2",
                    "midi": 39,
                    "time": 389.3957760000024,
                    "velocity": 0.25196850393700787,
                    "duration": 0.4345935000000054
                },
                {
                    "name": "A#2",
                    "midi": 46,
                    "time": 389.8303695000024,
                    "velocity": 0.1732283464566929,
                    "duration": 0.4345935000000054
                },
                {
                    "name": "G3",
                    "midi": 55,
                    "time": 390.2649630000024,
                    "velocity": 0.2047244094488189,
                    "duration": 0.4345935000000054
                },
                {
                    "name": "D#3",
                    "midi": 51,
                    "time": 390.6995565000024,
                    "velocity": 0.1732283464566929,
                    "duration": 0.4345935000000054
                },
                {
                    "name": "A#3",
                    "midi": 58,
                    "time": 391.1341500000024,
                    "velocity": 0.2047244094488189,
                    "duration": 0.4345935000000054
                },
                {
                    "name": "G3",
                    "midi": 55,
                    "time": 391.5687435000024,
                    "velocity": 0.1732283464566929,
                    "duration": 0.4345935000000054
                },
                {
                    "name": "D#4",
                    "midi": 63,
                    "time": 392.00333700000243,
                    "velocity": 0.2125984251968504,
                    "duration": 0.8691870000000108
                },
                {
                    "name": "G2",
                    "midi": 43,
                    "time": 394.61089800000246,
                    "velocity": 0.25196850393700787,
                    "duration": 0.4345935000000054
                },
                {
                    "name": "D3",
                    "midi": 50,
                    "time": 395.04549150000247,
                    "velocity": 0.1732283464566929,
                    "duration": 0.4345935000000054
                },
                {
                    "name": "A#3",
                    "midi": 58,
                    "time": 395.4800850000025,
                    "velocity": 0.2047244094488189,
                    "duration": 0.4345935000000054
                },
                {
                    "name": "G3",
                    "midi": 55,
                    "time": 395.9146785000025,
                    "velocity": 0.1732283464566929,
                    "duration": 0.4345935000000054
                },
                {
                    "name": "D4",
                    "midi": 62,
                    "time": 396.3492720000025,
                    "velocity": 0.2047244094488189,
                    "duration": 0.4345935000000054
                },
                {
                    "name": "A#3",
                    "midi": 58,
                    "time": 396.7838655000025,
                    "velocity": 0.1732283464566929,
                    "duration": 0.4345935000000054
                },
                {
                    "name": "G4",
                    "midi": 67,
                    "time": 397.2184590000025,
                    "velocity": 0.2125984251968504,
                    "duration": 0.8691870000000108
                },
                {
                    "name": "A#2",
                    "midi": 46,
                    "time": 399.82602000000253,
                    "velocity": 0.25196850393700787,
                    "duration": 0.4345935000000054
                },
                {
                    "name": "F3",
                    "midi": 53,
                    "time": 400.26061350000253,
                    "velocity": 0.1732283464566929,
                    "duration": 0.4345935000000054
                },
                {
                    "name": "D4",
                    "midi": 62,
                    "time": 400.69520700000254,
                    "velocity": 0.2047244094488189,
                    "duration": 0.4345935000000054
                },
                {
                    "name": "A#3",
                    "midi": 58,
                    "time": 401.12980050000255,
                    "velocity": 0.1732283464566929,
                    "duration": 0.4345935000000054
                },
                {
                    "name": "F4",
                    "midi": 65,
                    "time": 401.56439400000255,
                    "velocity": 0.2047244094488189,
                    "duration": 0.4345935000000054
                },
                {
                    "name": "D4",
                    "midi": 62,
                    "time": 401.99898750000256,
                    "velocity": 0.1732283464566929,
                    "duration": 0.4345935000000054
                },
                {
                    "name": "A#4",
                    "midi": 70,
                    "time": 402.43358100000256,
                    "velocity": 0.2125984251968504,
                    "duration": 0.8691870000000108
                },
                {
                    "name": "D3",
                    "midi": 50,
                    "time": 405.0411420000026,
                    "velocity": 0.2440944881889764,
                    "duration": 0.4345935000000054
                },
                {
                    "name": "A3",
                    "midi": 57,
                    "time": 405.4757355000026,
                    "velocity": 0.2047244094488189,
                    "duration": 0.4345935000000054
                },
                {
                    "name": "F4",
                    "midi": 65,
                    "time": 405.9103290000026,
                    "velocity": 0.2440944881889764,
                    "duration": 0.4345935000000054
                },
                {
                    "name": "D4",
                    "midi": 62,
                    "time": 406.3449225000026,
                    "velocity": 0.2047244094488189,
                    "duration": 0.4345935000000054
                },
                {
                    "name": "A4",
                    "midi": 69,
                    "time": 406.7795160000026,
                    "velocity": 0.2440944881889764,
                    "duration": 0.4345935000000054
                },
                {
                    "name": "F4",
                    "midi": 65,
                    "time": 407.2141095000026,
                    "velocity": 0.2047244094488189,
                    "duration": 0.4345935000000054
                },
                {
                    "name": "E3",
                    "midi": 52,
                    "time": 410.2562640000026,
                    "velocity": 0.2204724409448819,
                    "duration": 2.6075610000000324
                },
                {
                    "name": "E2",
                    "midi": 40,
                    "time": 411.1254510000026,
                    "velocity": 0.1968503937007874,
                    "duration": 0.8691870000000108
                },
                {
                    "name": "E2",
                    "midi": 40,
                    "time": 411.9946380000026,
                    "velocity": 0.1968503937007874,
                    "duration": 0.8691870000000108
                },
                {
                    "name": "E2",
                    "midi": 40,
                    "time": 413.73301200000265,
                    "velocity": 0.30708661417322836,
                    "duration": 0.4345935000000054
                },
                {
                    "name": "E2",
                    "midi": 40,
                    "time": 414.60219900000266,
                    "velocity": 0.30708661417322836,
                    "duration": 0.4345935000000054
                },
                {
                    "name": "E2",
                    "midi": 40,
                    "time": 416.3405730000026,
                    "velocity": 0.1732283464566929,
                    "duration": 0.8601329687500083
                },
                {
                    "name": "E2",
                    "midi": 40,
                    "time": 417.20976000000263,
                    "velocity": 0.1732283464566929,
                    "duration": 0.8601329687500083
                },
                {
                    "name": "E4",
                    "midi": 64,
                    "time": 418.07894700000264,
                    "velocity": 0.2677165354330709,
                    "duration": 2.6075610000000324
                },
                {
                    "name": "E3",
                    "midi": 52,
                    "time": 418.94813400000265,
                    "velocity": 0.16535433070866143,
                    "duration": 0.8601329687500083
                },
                {
                    "name": "A3",
                    "midi": 57,
                    "time": 418.94813400000265,
                    "velocity": 0.16535433070866143,
                    "duration": 0.8601329687500083
                },
                {
                    "name": "A3",
                    "midi": 57,
                    "time": 419.81732100000266,
                    "velocity": 0.16535433070866143,
                    "duration": 0.8601329687500083
                },
                {
                    "name": "E3",
                    "midi": 52,
                    "time": 419.81732100000266,
                    "velocity": 0.16535433070866143,
                    "duration": 0.8601329687500083
                },
                {
                    "name": "D4",
                    "midi": 62,
                    "time": 420.6865080000027,
                    "velocity": 0.2677165354330709,
                    "duration": 2.6075610000000324
                },
                {
                    "name": "A3",
                    "midi": 57,
                    "time": 421.5556950000027,
                    "velocity": 0.1732283464566929,
                    "duration": 0.8601329687500083
                },
                {
                    "name": "E3",
                    "midi": 52,
                    "time": 421.5556950000027,
                    "velocity": 0.1732283464566929,
                    "duration": 0.8601329687500083
                },
                {
                    "name": "E3",
                    "midi": 52,
                    "time": 422.4248820000027,
                    "velocity": 0.1732283464566929,
                    "duration": 0.8601329687500083
                },
                {
                    "name": "A3",
                    "midi": 57,
                    "time": 422.4248820000027,
                    "velocity": 0.1732283464566929,
                    "duration": 0.8601329687500083
                },
                {
                    "name": "E2",
                    "midi": 40,
                    "time": 424.1632560000027,
                    "velocity": 0.30708661417322836,
                    "duration": 0.4345935000000054
                },
                {
                    "name": "E2",
                    "midi": 40,
                    "time": 425.03244300000273,
                    "velocity": 0.30708661417322836,
                    "duration": 0.4345935000000054
                },
                {
                    "name": "E2",
                    "midi": 40,
                    "time": 426.77081700000275,
                    "velocity": 0.1732283464566929,
                    "duration": 0.8601329687500083
                },
                {
                    "name": "E2",
                    "midi": 40,
                    "time": 427.64000400000276,
                    "velocity": 0.1732283464566929,
                    "duration": 0.8601329687500083
                },
                {
                    "name": "F#3",
                    "midi": 54,
                    "time": 428.5091910000028,
                    "velocity": 0.2440944881889764,
                    "duration": 2.6075609999999756
                },
                {
                    "name": "E2",
                    "midi": 40,
                    "time": 429.3783780000027,
                    "velocity": 0.16535433070866143,
                    "duration": 0.8601329687500083
                },
                {
                    "name": "E2",
                    "midi": 40,
                    "time": 430.24756500000274,
                    "velocity": 0.16535433070866143,
                    "duration": 0.8601329687500083
                },
                {
                    "name": "G#3",
                    "midi": 56,
                    "time": 431.11675200000275,
                    "velocity": 0.2440944881889764,
                    "duration": 2.6075609999999756
                },
                {
                    "name": "E2",
                    "midi": 40,
                    "time": 431.9859390000027,
                    "velocity": 0.12598425196850394,
                    "duration": 0.8601329687500083
                },
                {
                    "name": "E2",
                    "midi": 40,
                    "time": 432.8551260000027,
                    "velocity": 0.12598425196850394,
                    "duration": 0.8601329687500083
                },
                {
                    "name": "E2",
                    "midi": 40,
                    "time": 434.59350000000273,
                    "velocity": 0.30708661417322836,
                    "duration": 0.8601329687500083
                },
                {
                    "name": "E2",
                    "midi": 40,
                    "time": 435.46268700000275,
                    "velocity": 0.30708661417322836,
                    "duration": 0.8601329687500083
                },
                {
                    "name": "E2",
                    "midi": 40,
                    "time": 437.20106100000277,
                    "velocity": 0.1732283464566929,
                    "duration": 0.8601329687500083
                },
                {
                    "name": "E2",
                    "midi": 40,
                    "time": 438.0702480000028,
                    "velocity": 0.1732283464566929,
                    "duration": 0.8601329687500083
                },
                {
                    "name": "E4",
                    "midi": 64,
                    "time": 438.9394350000028,
                    "velocity": 0.3228346456692913,
                    "duration": 2.6075610000000324
                },
                {
                    "name": "C4",
                    "midi": 60,
                    "time": 439.8086220000028,
                    "velocity": 0.1889763779527559,
                    "duration": 0.8601329687500083
                },
                {
                    "name": "E3",
                    "midi": 52,
                    "time": 439.8086220000028,
                    "velocity": 0.14960629921259844,
                    "duration": 0.8601329687500083
                },
                {
                    "name": "A3",
                    "midi": 57,
                    "time": 439.8086220000028,
                    "velocity": 0.14960629921259844,
                    "duration": 0.8601329687500083
                },
                {
                    "name": "E3",
                    "midi": 52,
                    "time": 440.6778090000028,
                    "velocity": 0.14960629921259844,
                    "duration": 0.8601329687500083
                },
                {
                    "name": "C4",
                    "midi": 60,
                    "time": 440.6778090000028,
                    "velocity": 0.1889763779527559,
                    "duration": 0.8601329687500083
                },
                {
                    "name": "A3",
                    "midi": 57,
                    "time": 440.6778090000028,
                    "velocity": 0.14960629921259844,
                    "duration": 0.8601329687500083
                },
                {
                    "name": "F#4",
                    "midi": 66,
                    "time": 441.5469960000028,
                    "velocity": 0.3228346456692913,
                    "duration": 2.6075610000000324
                },
                {
                    "name": "E3",
                    "midi": 52,
                    "time": 442.41618300000283,
                    "velocity": 0.14960629921259844,
                    "duration": 0.8601329687500083
                },
                {
                    "name": "C4",
                    "midi": 60,
                    "time": 442.41618300000283,
                    "velocity": 0.1889763779527559,
                    "duration": 0.8601329687500083
                },
                {
                    "name": "A3",
                    "midi": 57,
                    "time": 442.41618300000283,
                    "velocity": 0.14960629921259844,
                    "duration": 0.8601329687500083
                },
                {
                    "name": "C4",
                    "midi": 60,
                    "time": 443.28537000000284,
                    "velocity": 0.1889763779527559,
                    "duration": 0.8601329687500083
                },
                {
                    "name": "E3",
                    "midi": 52,
                    "time": 443.28537000000284,
                    "velocity": 0.14960629921259844,
                    "duration": 0.8601329687500083
                },
                {
                    "name": "A3",
                    "midi": 57,
                    "time": 443.28537000000284,
                    "velocity": 0.14960629921259844,
                    "duration": 0.8601329687500083
                },
                {
                    "name": "E2",
                    "midi": 40,
                    "time": 445.02374400000286,
                    "velocity": 0.30708661417322836,
                    "duration": 0.8601329687500083
                },
                {
                    "name": "E2",
                    "midi": 40,
                    "time": 445.8929310000029,
                    "velocity": 0.30708661417322836,
                    "duration": 0.8601329687500083
                },
                {
                    "name": "E2",
                    "midi": 40,
                    "time": 447.63130500000284,
                    "velocity": 0.1732283464566929,
                    "duration": 0.8601329687500083
                },
                {
                    "name": "E2",
                    "midi": 40,
                    "time": 448.50049200000285,
                    "velocity": 0.1732283464566929,
                    "duration": 0.8601329687500083
                },
                {
                    "name": "F#4",
                    "midi": 66,
                    "time": 449.36967900000286,
                    "velocity": 0.3543307086614173,
                    "duration": 2.6075610000000324
                },
                {
                    "name": "E3",
                    "midi": 52,
                    "time": 450.2388660000029,
                    "velocity": 0.16535433070866143,
                    "duration": 0.8601329687500083
                },
                {
                    "name": "C4",
                    "midi": 60,
                    "time": 450.2388660000029,
                    "velocity": 0.2047244094488189,
                    "duration": 0.8601329687500083
                },
                {
                    "name": "A3",
                    "midi": 57,
                    "time": 450.2388660000029,
                    "velocity": 0.16535433070866143,
                    "duration": 0.8601329687500083
                },
                {
                    "name": "A3",
                    "midi": 57,
                    "time": 451.1080530000029,
                    "velocity": 0.16535433070866143,
                    "duration": 0.8601329687500083
                },
                {
                    "name": "E3",
                    "midi": 52,
                    "time": 451.1080530000029,
                    "velocity": 0.16535433070866143,
                    "duration": 0.8601329687500083
                },
                {
                    "name": "C4",
                    "midi": 60,
                    "time": 451.1080530000029,
                    "velocity": 0.2047244094488189,
                    "duration": 0.8601329687500083
                },
                {
                    "name": "G#4",
                    "midi": 68,
                    "time": 451.9772400000029,
                    "velocity": 0.3700787401574803,
                    "duration": 2.6075610000000324
                },
                {
                    "name": "E3",
                    "midi": 52,
                    "time": 452.8464270000029,
                    "velocity": 0.16535433070866143,
                    "duration": 0.8601329687500083
                },
                {
                    "name": "C4",
                    "midi": 60,
                    "time": 452.8464270000029,
                    "velocity": 0.2204724409448819,
                    "duration": 0.8601329687500083
                },
                {
                    "name": "A3",
                    "midi": 57,
                    "time": 452.8464270000029,
                    "velocity": 0.16535433070866143,
                    "duration": 0.8601329687500083
                },
                {
                    "name": "A3",
                    "midi": 57,
                    "time": 453.7156140000029,
                    "velocity": 0.16535433070866143,
                    "duration": 0.8601329687500083
                },
                {
                    "name": "E3",
                    "midi": 52,
                    "time": 453.7156140000029,
                    "velocity": 0.16535433070866143,
                    "duration": 0.8601329687500083
                },
                {
                    "name": "C4",
                    "midi": 60,
                    "time": 453.7156140000029,
                    "velocity": 0.2204724409448819,
                    "duration": 0.8601329687500083
                },
                {
                    "name": "F#4",
                    "midi": 66,
                    "time": 454.5848010000029,
                    "velocity": 0.3937007874015748,
                    "duration": 1.7383739999999648
                },
                {
                    "name": "A3",
                    "midi": 57,
                    "time": 455.4539880000029,
                    "velocity": 0.18110236220472442,
                    "duration": 0.8691870000000108
                },
                {
                    "name": "E3",
                    "midi": 52,
                    "time": 455.4539880000029,
                    "velocity": 0.18110236220472442,
                    "duration": 0.8691870000000108
                },
                {
                    "name": "C4",
                    "midi": 60,
                    "time": 455.4539880000029,
                    "velocity": 0.2204724409448819,
                    "duration": 0.8691870000000108
                },
                {
                    "name": "G#4",
                    "midi": 68,
                    "time": 456.7577685000029,
                    "velocity": 0.41732283464566927,
                    "duration": 0.3983773749999955
                },
                {
                    "name": "G#4",
                    "midi": 68,
                    "time": 457.1923620000029,
                    "velocity": 0.41732283464566927,
                    "duration": 2.6075610000000324
                },
                {
                    "name": "E3",
                    "midi": 52,
                    "time": 458.0615490000029,
                    "velocity": 0.1968503937007874,
                    "duration": 0.8601329687500083
                },
                {
                    "name": "C4",
                    "midi": 60,
                    "time": 458.0615490000029,
                    "velocity": 0.25196850393700787,
                    "duration": 0.8601329687500083
                },
                {
                    "name": "A3",
                    "midi": 57,
                    "time": 458.0615490000029,
                    "velocity": 0.1968503937007874,
                    "duration": 0.8601329687500083
                },
                {
                    "name": "E3",
                    "midi": 52,
                    "time": 458.9307360000029,
                    "velocity": 0.2047244094488189,
                    "duration": 0.8601329687500083
                },
                {
                    "name": "C4",
                    "midi": 60,
                    "time": 458.9307360000029,
                    "velocity": 0.25984251968503935,
                    "duration": 0.8601329687500083
                },
                {
                    "name": "A3",
                    "midi": 57,
                    "time": 458.9307360000029,
                    "velocity": 0.2047244094488189,
                    "duration": 0.8601329687500083
                },
                {
                    "name": "F#4",
                    "midi": 66,
                    "time": 459.79992300000293,
                    "velocity": 0.44881889763779526,
                    "duration": 1.7383739999999648
                },
                {
                    "name": "C4",
                    "midi": 60,
                    "time": 460.6691100000029,
                    "velocity": 0.2677165354330709,
                    "duration": 0.8691870000000108
                },
                {
                    "name": "E3",
                    "midi": 52,
                    "time": 460.6691100000029,
                    "velocity": 0.2125984251968504,
                    "duration": 0.8691870000000108
                },
                {
                    "name": "A3",
                    "midi": 57,
                    "time": 460.6691100000029,
                    "velocity": 0.2125984251968504,
                    "duration": 0.8691870000000108
                },
                {
                    "name": "G#4",
                    "midi": 68,
                    "time": 461.9728905000029,
                    "velocity": 0.4645669291338583,
                    "duration": 0.3983773749999955
                },
                {
                    "name": "G#4",
                    "midi": 68,
                    "time": 462.4074840000029,
                    "velocity": 0.4645669291338583,
                    "duration": 2.6075610000000324
                },
                {
                    "name": "E3",
                    "midi": 52,
                    "time": 463.2766710000029,
                    "velocity": 0.2283464566929134,
                    "duration": 0.8601329687500083
                },
                {
                    "name": "A3",
                    "midi": 57,
                    "time": 463.2766710000029,
                    "velocity": 0.2283464566929134,
                    "duration": 0.8601329687500083
                },
                {
                    "name": "C4",
                    "midi": 60,
                    "time": 463.2766710000029,
                    "velocity": 0.28346456692913385,
                    "duration": 0.8601329687500083
                },
                {
                    "name": "E3",
                    "midi": 52,
                    "time": 464.14585800000293,
                    "velocity": 0.2283464566929134,
                    "duration": 0.8601329687500083
                },
                {
                    "name": "C4",
                    "midi": 60,
                    "time": 464.14585800000293,
                    "velocity": 0.29133858267716534,
                    "duration": 0.8601329687500083
                },
                {
                    "name": "A3",
                    "midi": 57,
                    "time": 464.14585800000293,
                    "velocity": 0.2283464566929134,
                    "duration": 0.8601329687500083
                },
                {
                    "name": "F#4",
                    "midi": 66,
                    "time": 465.01504500000294,
                    "velocity": 0.5118110236220472,
                    "duration": 1.7383739999999648
                },
                {
                    "name": "A3",
                    "midi": 57,
                    "time": 465.8842320000029,
                    "velocity": 0.2440944881889764,
                    "duration": 0.8691870000000108
                },
                {
                    "name": "E3",
                    "midi": 52,
                    "time": 465.8842320000029,
                    "velocity": 0.2440944881889764,
                    "duration": 0.8691870000000108
                },
                {
                    "name": "C4",
                    "midi": 60,
                    "time": 465.8842320000029,
                    "velocity": 0.30708661417322836,
                    "duration": 0.8691870000000108
                },
                {
                    "name": "G#4",
                    "midi": 68,
                    "time": 467.1880125000029,
                    "velocity": 0.48031496062992124,
                    "duration": 0.4345935000000054
                },
                {
                    "name": "A4",
                    "midi": 69,
                    "time": 467.6226060000029,
                    "velocity": 0.49606299212598426,
                    "duration": 2.6075610000000324
                },
                {
                    "name": "A3",
                    "midi": 57,
                    "time": 468.49179300000293,
                    "velocity": 0.2677165354330709,
                    "duration": 0.8601329687500083
                },
                {
                    "name": "E3",
                    "midi": 52,
                    "time": 468.49179300000293,
                    "velocity": 0.2677165354330709,
                    "duration": 0.8601329687500083
                },
                {
                    "name": "C4",
                    "midi": 60,
                    "time": 468.49179300000293,
                    "velocity": 0.3228346456692913,
                    "duration": 0.8601329687500083
                },
                {
                    "name": "C4",
                    "midi": 60,
                    "time": 469.36098000000294,
                    "velocity": 0.36220472440944884,
                    "duration": 0.8601329687500083
                },
                {
                    "name": "E3",
                    "midi": 52,
                    "time": 469.36098000000294,
                    "velocity": 0.2677165354330709,
                    "duration": 0.8601329687500083
                },
                {
                    "name": "A3",
                    "midi": 57,
                    "time": 469.36098000000294,
                    "velocity": 0.2677165354330709,
                    "duration": 0.8601329687500083
                },
                {
                    "name": "G#4",
                    "midi": 68,
                    "time": 470.23016700000295,
                    "velocity": 0.5826771653543307,
                    "duration": 1.4124288749999323
                },
                {
                    "name": "A3",
                    "midi": 57,
                    "time": 471.0993540000029,
                    "velocity": 0.2755905511811024,
                    "duration": 0.5432418749999783
                },
                {
                    "name": "E3",
                    "midi": 52,
                    "time": 471.0993540000029,
                    "velocity": 0.2755905511811024,
                    "duration": 0.5432418749999783
                },
                {
                    "name": "C4",
                    "midi": 60,
                    "time": 471.0993540000029,
                    "velocity": 0.36220472440944884,
                    "duration": 0.5432418749999783
                },
                {
                    "name": "E3",
                    "midi": 52,
                    "time": 471.6425958750029,
                    "velocity": 0.2755905511811024,
                    "duration": 1.1951321249999296
                },
                {
                    "name": "A3",
                    "midi": 57,
                    "time": 471.75124425000286,
                    "velocity": 0.28346456692913385,
                    "duration": 1.0864837499999567
                },
                {
                    "name": "C4",
                    "midi": 60,
                    "time": 471.85989262500283,
                    "velocity": 0.36220472440944884,
                    "duration": 0.9778353749999837
                },
                {
                    "name": "A4",
                    "midi": 69,
                    "time": 471.9685410000028,
                    "velocity": 0.6299212598425197,
                    "duration": 0.8691870000000108
                },
                {
                    "name": "E1",
                    "midi": 28,
                    "time": 472.8377280000028,
                    "velocity": 0.5511811023622047,
                    "duration": 0.8691870000000108
                },
                {
                    "name": "E2",
                    "midi": 40,
                    "time": 472.8377280000028,
                    "velocity": 0.6614173228346457,
                    "duration": 0.8691870000000108
                },
                {
                    "name": "E3",
                    "midi": 52,
                    "time": 473.7069150000028,
                    "velocity": 0.48031496062992124,
                    "duration": 0.8691870000000108
                },
                {
                    "name": "D4",
                    "midi": 62,
                    "time": 473.7069150000028,
                    "velocity": 0.5669291338582677,
                    "duration": 0.8691870000000108
                },
                {
                    "name": "G#3",
                    "midi": 56,
                    "time": 473.7069150000028,
                    "velocity": 0.48031496062992124,
                    "duration": 0.8691870000000108
                },
                {
                    "name": "D4",
                    "midi": 62,
                    "time": 474.57610200000283,
                    "velocity": 0.48031496062992124,
                    "duration": 0.8691870000000108
                },
                {
                    "name": "E4",
                    "midi": 64,
                    "time": 474.57610200000283,
                    "velocity": 0.5748031496062992,
                    "duration": 0.8691870000000108
                },
                {
                    "name": "G#3",
                    "midi": 56,
                    "time": 474.57610200000283,
                    "velocity": 0.48031496062992124,
                    "duration": 0.8691870000000108
                },
                {
                    "name": "G#4",
                    "midi": 68,
                    "time": 475.44528900000284,
                    "velocity": 0.6614173228346457,
                    "duration": 0.8691870000000108
                },
                {
                    "name": "B3",
                    "midi": 59,
                    "time": 475.44528900000284,
                    "velocity": 0.5511811023622047,
                    "duration": 0.8691870000000108
                },
                {
                    "name": "D4",
                    "midi": 62,
                    "time": 475.44528900000284,
                    "velocity": 0.5511811023622047,
                    "duration": 0.8691870000000108
                },
                {
                    "name": "E4",
                    "midi": 64,
                    "time": 476.31447600000286,
                    "velocity": 0.5669291338582677,
                    "duration": 0.8691870000000108
                },
                {
                    "name": "G#3",
                    "midi": 56,
                    "time": 476.31447600000286,
                    "velocity": 0.48031496062992124,
                    "duration": 0.8691870000000108
                },
                {
                    "name": "D4",
                    "midi": 62,
                    "time": 476.31447600000286,
                    "velocity": 0.48031496062992124,
                    "duration": 0.8691870000000108
                },
                {
                    "name": "D4",
                    "midi": 62,
                    "time": 477.18366300000287,
                    "velocity": 0.5748031496062992,
                    "duration": 0.8691870000000108
                },
                {
                    "name": "E3",
                    "midi": 52,
                    "time": 477.18366300000287,
                    "velocity": 0.48031496062992124,
                    "duration": 0.8691870000000108
                },
                {
                    "name": "G#3",
                    "midi": 56,
                    "time": 477.18366300000287,
                    "velocity": 0.48031496062992124,
                    "duration": 0.8691870000000108
                },
                {
                    "name": "A2",
                    "midi": 45,
                    "time": 478.0528500000029,
                    "velocity": 0.6614173228346457,
                    "duration": 0.8691870000000108
                },
                {
                    "name": "A1",
                    "midi": 33,
                    "time": 478.0528500000029,
                    "velocity": 0.5511811023622047,
                    "duration": 0.8691870000000108
                },
                {
                    "name": "E3",
                    "midi": 52,
                    "time": 478.9220370000029,
                    "velocity": 0.48031496062992124,
                    "duration": 0.8691870000000108
                },
                {
                    "name": "C#4",
                    "midi": 61,
                    "time": 478.9220370000029,
                    "velocity": 0.5748031496062992,
                    "duration": 0.8691870000000108
                },
                {
                    "name": "A3",
                    "midi": 57,
                    "time": 479.7912240000029,
                    "velocity": 0.4881889763779528,
                    "duration": 0.8691870000000108
                },
                {
                    "name": "E4",
                    "midi": 64,
                    "time": 479.7912240000029,
                    "velocity": 0.5826771653543307,
                    "duration": 0.8691870000000108
                },
                {
                    "name": "C#4",
                    "midi": 61,
                    "time": 480.6604110000029,
                    "velocity": 0.5511811023622047,
                    "duration": 0.8691870000000108
                },
                {
                    "name": "A4",
                    "midi": 69,
                    "time": 480.6604110000029,
                    "velocity": 0.6614173228346457,
                    "duration": 0.8691870000000108
                },
                {
                    "name": "E4",
                    "midi": 64,
                    "time": 481.5295980000029,
                    "velocity": 0.5748031496062992,
                    "duration": 0.8691870000000108
                },
                {
                    "name": "A3",
                    "midi": 57,
                    "time": 481.5295980000029,
                    "velocity": 0.48031496062992124,
                    "duration": 0.8691870000000108
                },
                {
                    "name": "C#4",
                    "midi": 61,
                    "time": 482.39878500000293,
                    "velocity": 0.5748031496062992,
                    "duration": 0.8691870000000108
                },
                {
                    "name": "E3",
                    "midi": 52,
                    "time": 482.39878500000293,
                    "velocity": 0.48031496062992124,
                    "duration": 0.8691870000000108
                },
                {
                    "name": "B2",
                    "midi": 47,
                    "time": 483.26797200000294,
                    "velocity": 0.6614173228346457,
                    "duration": 0.869186999999954
                },
                {
                    "name": "B1",
                    "midi": 35,
                    "time": 483.26797200000294,
                    "velocity": 0.5511811023622047,
                    "duration": 0.869186999999954
                },
                {
                    "name": "B3",
                    "midi": 59,
                    "time": 484.1371590000029,
                    "velocity": 0.5748031496062992,
                    "duration": 0.8691870000000108
                },
                {
                    "name": "F#3",
                    "midi": 54,
                    "time": 484.1371590000029,
                    "velocity": 0.48031496062992124,
                    "duration": 0.8691870000000108
                },
                {
                    "name": "D#4",
                    "midi": 63,
                    "time": 485.0063460000029,
                    "velocity": 0.5748031496062992,
                    "duration": 0.8691870000000108
                },
                {
                    "name": "A3",
                    "midi": 57,
                    "time": 485.0063460000029,
                    "velocity": 0.48031496062992124,
                    "duration": 0.8691870000000108
                },
                {
                    "name": "F#4",
                    "midi": 66,
                    "time": 485.8755330000029,
                    "velocity": 0.6614173228346457,
                    "duration": 0.8691870000000108
                },
                {
                    "name": "B3",
                    "midi": 59,
                    "time": 485.8755330000029,
                    "velocity": 0.5511811023622047,
                    "duration": 0.8691870000000108
                },
                {
                    "name": "A3",
                    "midi": 57,
                    "time": 486.7447200000029,
                    "velocity": 0.48031496062992124,
                    "duration": 0.8691870000000108
                },
                {
                    "name": "D#4",
                    "midi": 63,
                    "time": 486.7447200000029,
                    "velocity": 0.5669291338582677,
                    "duration": 0.8691870000000108
                },
                {
                    "name": "B3",
                    "midi": 59,
                    "time": 487.61390700000294,
                    "velocity": 0.5669291338582677,
                    "duration": 0.8691870000000108
                },
                {
                    "name": "F#3",
                    "midi": 54,
                    "time": 487.61390700000294,
                    "velocity": 0.48031496062992124,
                    "duration": 0.8691870000000108
                },
                {
                    "name": "E3",
                    "midi": 52,
                    "time": 488.48309400000295,
                    "velocity": 0.6614173228346457,
                    "duration": 0.8691870000000108
                },
                {
                    "name": "E2",
                    "midi": 40,
                    "time": 488.48309400000295,
                    "velocity": 0.5511811023622047,
                    "duration": 0.8691870000000108
                },
                {
                    "name": "E3",
                    "midi": 52,
                    "time": 489.35228100000296,
                    "velocity": 0.4881889763779528,
                    "duration": 0.8691870000000108
                },
                {
                    "name": "B3",
                    "midi": 59,
                    "time": 489.35228100000296,
                    "velocity": 0.5826771653543307,
                    "duration": 0.8691870000000108
                },
                {
                    "name": "G#3",
                    "midi": 56,
                    "time": 490.221468000003,
                    "velocity": 0.4881889763779528,
                    "duration": 0.8691870000000108
                },
                {
                    "name": "E4",
                    "midi": 64,
                    "time": 490.221468000003,
                    "velocity": 0.5826771653543307,
                    "duration": 0.8691870000000108
                },
                {
                    "name": "G#4",
                    "midi": 68,
                    "time": 491.090655000003,
                    "velocity": 0.6614173228346457,
                    "duration": 0.8691870000000108
                },
                {
                    "name": "B3",
                    "midi": 59,
                    "time": 491.090655000003,
                    "velocity": 0.5511811023622047,
                    "duration": 0.8691870000000108
                },
                {
                    "name": "G#3",
                    "midi": 56,
                    "time": 491.959842000003,
                    "velocity": 0.4881889763779528,
                    "duration": 0.8691870000000108
                },
                {
                    "name": "E4",
                    "midi": 64,
                    "time": 491.959842000003,
                    "velocity": 0.5826771653543307,
                    "duration": 0.8691870000000108
                },
                {
                    "name": "B3",
                    "midi": 59,
                    "time": 492.829029000003,
                    "velocity": 0.5826771653543307,
                    "duration": 0.8691870000000108
                },
                {
                    "name": "E3",
                    "midi": 52,
                    "time": 492.829029000003,
                    "velocity": 0.4881889763779528,
                    "duration": 0.8691870000000108
                },
                {
                    "name": "F#2",
                    "midi": 42,
                    "time": 493.698216000003,
                    "velocity": 0.5511811023622047,
                    "duration": 0.8691870000000108
                },
                {
                    "name": "F#3",
                    "midi": 54,
                    "time": 493.698216000003,
                    "velocity": 0.6614173228346457,
                    "duration": 0.8691870000000108
                },
                {
                    "name": "F#3",
                    "midi": 54,
                    "time": 494.567403000003,
                    "velocity": 0.4881889763779528,
                    "duration": 0.8691870000000108
                },
                {
                    "name": "D4",
                    "midi": 62,
                    "time": 494.567403000003,
                    "velocity": 0.5826771653543307,
                    "duration": 0.8691870000000108
                },
                {
                    "name": "A4",
                    "midi": 69,
                    "time": 495.43659000000304,
                    "velocity": 0.5826771653543307,
                    "duration": 0.8691870000000108
                },
                {
                    "name": "A3",
                    "midi": 57,
                    "time": 495.43659000000304,
                    "velocity": 0.4881889763779528,
                    "duration": 0.8691870000000108
                },
                {
                    "name": "B1",
                    "midi": 35,
                    "time": 496.30577700000305,
                    "velocity": 0.5511811023622047,
                    "duration": 0.869186999999954
                },
                {
                    "name": "B2",
                    "midi": 47,
                    "time": 496.30577700000305,
                    "velocity": 0.6614173228346457,
                    "duration": 0.869186999999954
                },
                {
                    "name": "F#3",
                    "midi": 54,
                    "time": 497.174964000003,
                    "velocity": 0.4881889763779528,
                    "duration": 0.8691870000000108
                },
                {
                    "name": "D4",
                    "midi": 62,
                    "time": 497.174964000003,
                    "velocity": 0.5826771653543307,
                    "duration": 1.7383740000000216
                },
                {
                    "name": "A4",
                    "midi": 69,
                    "time": 498.044151000003,
                    "velocity": 0.5826771653543307,
                    "duration": 0.8691870000000108
                },
                {
                    "name": "B3",
                    "midi": 59,
                    "time": 498.044151000003,
                    "velocity": 0.4881889763779528,
                    "duration": 0.8691870000000108
                },
                {
                    "name": "E3",
                    "midi": 52,
                    "time": 498.913338000003,
                    "velocity": 0.6614173228346457,
                    "duration": 0.8691870000000108
                },
                {
                    "name": "E2",
                    "midi": 40,
                    "time": 498.913338000003,
                    "velocity": 0.5511811023622047,
                    "duration": 0.8691870000000108
                },
                {
                    "name": "E3",
                    "midi": 52,
                    "time": 499.78252500000303,
                    "velocity": 0.4881889763779528,
                    "duration": 0.8691870000000108
                },
                {
                    "name": "C#4",
                    "midi": 61,
                    "time": 499.78252500000303,
                    "velocity": 0.5826771653543307,
                    "duration": 0.8691870000000108
                },
                {
                    "name": "G#3",
                    "midi": 56,
                    "time": 500.65171200000304,
                    "velocity": 0.4881889763779528,
                    "duration": 0.8691870000000108
                },
                {
                    "name": "G#4",
                    "midi": 68,
                    "time": 500.65171200000304,
                    "velocity": 0.5826771653543307,
                    "duration": 0.8691870000000108
                },
                {
                    "name": "A2",
                    "midi": 45,
                    "time": 501.52089900000306,
                    "velocity": 0.6614173228346457,
                    "duration": 0.8691870000000108
                },
                {
                    "name": "A1",
                    "midi": 33,
                    "time": 501.52089900000306,
                    "velocity": 0.5511811023622047,
                    "duration": 0.8691870000000108
                },
                {
                    "name": "C#4",
                    "midi": 61,
                    "time": 502.39008600000307,
                    "velocity": 0.5826771653543307,
                    "duration": 1.7383740000000216
                },
                {
                    "name": "E3",
                    "midi": 52,
                    "time": 502.39008600000307,
                    "velocity": 0.4881889763779528,
                    "duration": 0.8691870000000108
                },
                {
                    "name": "G#4",
                    "midi": 68,
                    "time": 503.2592730000031,
                    "velocity": 0.5826771653543307,
                    "duration": 0.8691870000000108
                },
                {
                    "name": "A3",
                    "midi": 57,
                    "time": 503.2592730000031,
                    "velocity": 0.4881889763779528,
                    "duration": 0.8691870000000108
                },
                {
                    "name": "D2",
                    "midi": 38,
                    "time": 504.1284600000031,
                    "velocity": 0.5511811023622047,
                    "duration": 0.8691870000000108
                },
                {
                    "name": "D3",
                    "midi": 50,
                    "time": 504.1284600000031,
                    "velocity": 0.6614173228346457,
                    "duration": 0.8691870000000108
                },
                {
                    "name": "D3",
                    "midi": 50,
                    "time": 504.9976470000031,
                    "velocity": 0.4881889763779528,
                    "duration": 0.8691870000000108
                },
                {
                    "name": "B3",
                    "midi": 59,
                    "time": 504.9976470000031,
                    "velocity": 0.5826771653543307,
                    "duration": 0.8691870000000108
                },
                {
                    "name": "F#3",
                    "midi": 54,
                    "time": 505.8668340000031,
                    "velocity": 0.4881889763779528,
                    "duration": 0.8691870000000108
                },
                {
                    "name": "F#4",
                    "midi": 66,
                    "time": 505.8668340000031,
                    "velocity": 0.5826771653543307,
                    "duration": 0.8691870000000108
                },
                {
                    "name": "C#2",
                    "midi": 37,
                    "time": 506.7360210000031,
                    "velocity": 0.5511811023622047,
                    "duration": 0.869186999999954
                },
                {
                    "name": "C#3",
                    "midi": 49,
                    "time": 506.7360210000031,
                    "velocity": 0.6614173228346457,
                    "duration": 0.869186999999954
                },
                {
                    "name": "C#4",
                    "midi": 61,
                    "time": 507.6052080000031,
                    "velocity": 0.5826771653543307,
                    "duration": 0.8691870000000108
                },
                {
                    "name": "G#3",
                    "midi": 56,
                    "time": 507.6052080000031,
                    "velocity": 0.4881889763779528,
                    "duration": 0.8691870000000108
                },
                {
                    "name": "F4",
                    "midi": 65,
                    "time": 508.4743950000031,
                    "velocity": 0.5826771653543307,
                    "duration": 0.8691870000000108
                },
                {
                    "name": "B3",
                    "midi": 59,
                    "time": 508.4743950000031,
                    "velocity": 0.4881889763779528,
                    "duration": 0.8691870000000108
                },
                {
                    "name": "F#2",
                    "midi": 42,
                    "time": 509.3435820000031,
                    "velocity": 0.6614173228346457,
                    "duration": 0.8691870000000108
                },
                {
                    "name": "F#1",
                    "midi": 30,
                    "time": 509.3435820000031,
                    "velocity": 0.5511811023622047,
                    "duration": 0.8691870000000108
                },
                {
                    "name": "F#3",
                    "midi": 54,
                    "time": 510.2127690000031,
                    "velocity": 0.4881889763779528,
                    "duration": 1.7383740000000216
                },
                {
                    "name": "C#4",
                    "midi": 61,
                    "time": 510.2127690000031,
                    "velocity": 0.5826771653543307,
                    "duration": 0.8691870000000108
                },
                {
                    "name": "A3",
                    "midi": 57,
                    "time": 511.0819560000031,
                    "velocity": 0.4881889763779528,
                    "duration": 0.8691870000000108
                },
                {
                    "name": "F#4",
                    "midi": 66,
                    "time": 511.0819560000031,
                    "velocity": 0.5826771653543307,
                    "duration": 0.8691870000000108
                },
                {
                    "name": "B1",
                    "midi": 35,
                    "time": 511.9511430000031,
                    "velocity": 0.5511811023622047,
                    "duration": 0.869186999999954
                },
                {
                    "name": "B2",
                    "midi": 47,
                    "time": 511.9511430000031,
                    "velocity": 0.6614173228346457,
                    "duration": 0.869186999999954
                },
                {
                    "name": "B3",
                    "midi": 59,
                    "time": 512.8203300000031,
                    "velocity": 0.5826771653543307,
                    "duration": 0.8691870000000108
                },
                {
                    "name": "F3",
                    "midi": 53,
                    "time": 512.8203300000031,
                    "velocity": 0.4881889763779528,
                    "duration": 1.7383740000000216
                },
                {
                    "name": "D#4",
                    "midi": 63,
                    "time": 513.6895170000031,
                    "velocity": 0.5826771653543307,
                    "duration": 0.8691870000000108
                },
                {
                    "name": "A3",
                    "midi": 57,
                    "time": 513.6895170000031,
                    "velocity": 0.4881889763779528,
                    "duration": 0.8691870000000108
                },
                {
                    "name": "E2",
                    "midi": 40,
                    "time": 514.5587040000031,
                    "velocity": 0.6614173228346457,
                    "duration": 0.8691870000001245
                },
                {
                    "name": "E1",
                    "midi": 28,
                    "time": 514.5587040000031,
                    "velocity": 0.5511811023622047,
                    "duration": 0.8691870000001245
                },
                {
                    "name": "G#3",
                    "midi": 56,
                    "time": 515.4278910000032,
                    "velocity": 0.5669291338582677,
                    "duration": 0.8691870000000108
                },
                {
                    "name": "B2",
                    "midi": 47,
                    "time": 515.4278910000032,
                    "velocity": 0.48031496062992124,
                    "duration": 0.8691870000000108
                },
                {
                    "name": "B3",
                    "midi": 59,
                    "time": 516.2970780000032,
                    "velocity": 0.5748031496062992,
                    "duration": 0.8691870000000108
                },
                {
                    "name": "E3",
                    "midi": 52,
                    "time": 516.2970780000032,
                    "velocity": 0.48031496062992124,
                    "duration": 0.8691870000000108
                },
                {
                    "name": "G#3",
                    "midi": 56,
                    "time": 517.1662650000032,
                    "velocity": 0.5511811023622047,
                    "duration": 0.8691870000000108
                },
                {
                    "name": "D4",
                    "midi": 62,
                    "time": 517.1662650000032,
                    "velocity": 0.6614173228346457,
                    "duration": 0.8691870000000108
                },
                {
                    "name": "B3",
                    "midi": 59,
                    "time": 518.0354520000033,
                    "velocity": 0.5669291338582677,
                    "duration": 0.8691870000000108
                },
                {
                    "name": "E3",
                    "midi": 52,
                    "time": 518.0354520000033,
                    "velocity": 0.48031496062992124,
                    "duration": 0.8691870000000108
                },
                {
                    "name": "B2",
                    "midi": 47,
                    "time": 518.9046390000033,
                    "velocity": 0.48031496062992124,
                    "duration": 0.8691870000000108
                },
                {
                    "name": "G#3",
                    "midi": 56,
                    "time": 518.9046390000033,
                    "velocity": 0.5748031496062992,
                    "duration": 0.8691870000000108
                },
                {
                    "name": "A1",
                    "midi": 33,
                    "time": 519.7738260000033,
                    "velocity": 0.5511811023622047,
                    "duration": 0.8691869999998971
                },
                {
                    "name": "A2",
                    "midi": 45,
                    "time": 519.7738260000033,
                    "velocity": 0.6614173228346457,
                    "duration": 0.8691869999998971
                },
                {
                    "name": "E3",
                    "midi": 52,
                    "time": 520.6430130000032,
                    "velocity": 0.48031496062992124,
                    "duration": 0.8691870000000108
                },
                {
                    "name": "C#4",
                    "midi": 61,
                    "time": 520.6430130000032,
                    "velocity": 0.5748031496062992,
                    "duration": 0.8691870000000108
                },
                {
                    "name": "A3",
                    "midi": 57,
                    "time": 521.5122000000032,
                    "velocity": 0.4881889763779528,
                    "duration": 0.8691870000000108
                },
                {
                    "name": "E4",
                    "midi": 64,
                    "time": 521.5122000000032,
                    "velocity": 0.5826771653543307,
                    "duration": 0.8691870000000108
                },
                {
                    "name": "C#4",
                    "midi": 61,
                    "time": 522.3813870000032,
                    "velocity": 0.5511811023622047,
                    "duration": 0.8691870000000108
                },
                {
                    "name": "A4",
                    "midi": 69,
                    "time": 522.3813870000032,
                    "velocity": 0.6614173228346457,
                    "duration": 0.8691870000000108
                },
                {
                    "name": "E4",
                    "midi": 64,
                    "time": 523.2505740000032,
                    "velocity": 0.5748031496062992,
                    "duration": 0.8691870000000108
                },
                {
                    "name": "A3",
                    "midi": 57,
                    "time": 523.2505740000032,
                    "velocity": 0.48031496062992124,
                    "duration": 0.8691870000000108
                },
                {
                    "name": "C#4",
                    "midi": 61,
                    "time": 524.1197610000032,
                    "velocity": 0.5748031496062992,
                    "duration": 0.8691870000000108
                },
                {
                    "name": "E3",
                    "midi": 52,
                    "time": 524.1197610000032,
                    "velocity": 0.48031496062992124,
                    "duration": 0.8691870000000108
                },
                {
                    "name": "B1",
                    "midi": 35,
                    "time": 524.9889480000032,
                    "velocity": 0.5511811023622047,
                    "duration": 0.8691869999998971
                },
                {
                    "name": "B2",
                    "midi": 47,
                    "time": 524.9889480000032,
                    "velocity": 0.6614173228346457,
                    "duration": 0.8691869999998971
                },
                {
                    "name": "B3",
                    "midi": 59,
                    "time": 525.8581350000031,
                    "velocity": 0.5748031496062992,
                    "duration": 0.8691870000000108
                },
                {
                    "name": "F#3",
                    "midi": 54,
                    "time": 525.8581350000031,
                    "velocity": 0.48031496062992124,
                    "duration": 0.8691870000000108
                },
                {
                    "name": "D#4",
                    "midi": 63,
                    "time": 526.7273220000031,
                    "velocity": 0.5748031496062992,
                    "duration": 0.8691870000000108
                },
                {
                    "name": "A3",
                    "midi": 57,
                    "time": 526.7273220000031,
                    "velocity": 0.48031496062992124,
                    "duration": 0.8691870000000108
                },
                {
                    "name": "B3",
                    "midi": 59,
                    "time": 527.5965090000032,
                    "velocity": 0.5511811023622047,
                    "duration": 0.8691870000000108
                },
                {
                    "name": "F#4",
                    "midi": 66,
                    "time": 527.5965090000032,
                    "velocity": 0.6614173228346457,
                    "duration": 0.8691870000000108
                },
                {
                    "name": "A3",
                    "midi": 57,
                    "time": 528.4656960000032,
                    "velocity": 0.48031496062992124,
                    "duration": 0.8691870000000108
                },
                {
                    "name": "D#4",
                    "midi": 63,
                    "time": 528.4656960000032,
                    "velocity": 0.5669291338582677,
                    "duration": 0.8691870000000108
                },
                {
                    "name": "B3",
                    "midi": 59,
                    "time": 529.3348830000032,
                    "velocity": 0.5669291338582677,
                    "duration": 0.8691870000000108
                },
                {
                    "name": "F#3",
                    "midi": 54,
                    "time": 529.3348830000032,
                    "velocity": 0.48031496062992124,
                    "duration": 0.8691870000000108
                },
                {
                    "name": "E3",
                    "midi": 52,
                    "time": 530.2040700000032,
                    "velocity": 0.6614173228346457,
                    "duration": 0.8691870000000108
                },
                {
                    "name": "E2",
                    "midi": 40,
                    "time": 530.2040700000032,
                    "velocity": 0.5511811023622047,
                    "duration": 0.8691870000000108
                },
                {
                    "name": "E3",
                    "midi": 52,
                    "time": 531.0732570000032,
                    "velocity": 0.4881889763779528,
                    "duration": 0.8691870000000108
                },
                {
                    "name": "B3",
                    "midi": 59,
                    "time": 531.0732570000032,
                    "velocity": 0.5826771653543307,
                    "duration": 0.8691870000000108
                },
                {
                    "name": "G#3",
                    "midi": 56,
                    "time": 531.9424440000032,
                    "velocity": 0.4881889763779528,
                    "duration": 0.8691870000000108
                },
                {
                    "name": "E4",
                    "midi": 64,
                    "time": 531.9424440000032,
                    "velocity": 0.5826771653543307,
                    "duration": 0.8691870000000108
                },
                {
                    "name": "B3",
                    "midi": 59,
                    "time": 532.8116310000032,
                    "velocity": 0.5511811023622047,
                    "duration": 0.8691870000000108
                },
                {
                    "name": "G#4",
                    "midi": 68,
                    "time": 532.8116310000032,
                    "velocity": 0.6614173228346457,
                    "duration": 0.8691870000000108
                },
                {
                    "name": "G#3",
                    "midi": 56,
                    "time": 533.6808180000032,
                    "velocity": 0.4881889763779528,
                    "duration": 0.8691870000000108
                },
                {
                    "name": "E4",
                    "midi": 64,
                    "time": 533.6808180000032,
                    "velocity": 0.5826771653543307,
                    "duration": 0.8691870000000108
                },
                {
                    "name": "B3",
                    "midi": 59,
                    "time": 534.5500050000032,
                    "velocity": 0.5826771653543307,
                    "duration": 0.8691870000000108
                },
                {
                    "name": "E3",
                    "midi": 52,
                    "time": 534.5500050000032,
                    "velocity": 0.4881889763779528,
                    "duration": 0.8691870000000108
                },
                {
                    "name": "E3",
                    "midi": 52,
                    "time": 535.4191920000032,
                    "velocity": 0.6614173228346457,
                    "duration": 0.8691870000000108
                },
                {
                    "name": "E2",
                    "midi": 40,
                    "time": 535.4191920000032,
                    "velocity": 0.5511811023622047,
                    "duration": 0.8691870000000108
                },
                {
                    "name": "A#3",
                    "midi": 58,
                    "time": 536.2883790000033,
                    "velocity": 0.5826771653543307,
                    "duration": 0.8691870000000108
                },
                {
                    "name": "E3",
                    "midi": 52,
                    "time": 536.2883790000033,
                    "velocity": 0.4881889763779528,
                    "duration": 0.8691870000000108
                },
                {
                    "name": "C#4",
                    "midi": 61,
                    "time": 537.1575660000033,
                    "velocity": 0.5826771653543307,
                    "duration": 0.8691870000000108
                },
                {
                    "name": "F#3",
                    "midi": 54,
                    "time": 537.1575660000033,
                    "velocity": 0.4881889763779528,
                    "duration": 0.8691870000000108
                },
                {
                    "name": "A#3",
                    "midi": 58,
                    "time": 538.0267530000033,
                    "velocity": 0.5511811023622047,
                    "duration": 0.8691870000000108
                },
                {
                    "name": "E4",
                    "midi": 64,
                    "time": 538.0267530000033,
                    "velocity": 0.6614173228346457,
                    "duration": 0.8691870000000108
                },
                {
                    "name": "F#3",
                    "midi": 54,
                    "time": 538.8959400000033,
                    "velocity": 0.4881889763779528,
                    "duration": 0.8691870000000108
                },
                {
                    "name": "C#4",
                    "midi": 61,
                    "time": 538.8959400000033,
                    "velocity": 0.5826771653543307,
                    "duration": 0.8691870000000108
                },
                {
                    "name": "E3",
                    "midi": 52,
                    "time": 539.7651270000033,
                    "velocity": 0.4881889763779528,
                    "duration": 0.8691870000000108
                },
                {
                    "name": "A#3",
                    "midi": 58,
                    "time": 539.7651270000033,
                    "velocity": 0.5826771653543307,
                    "duration": 0.8691870000000108
                },
                {
                    "name": "E1",
                    "midi": 28,
                    "time": 540.6343140000033,
                    "velocity": 0.5511811023622047,
                    "duration": 0.8691870000000108
                },
                {
                    "name": "E2",
                    "midi": 40,
                    "time": 540.6343140000033,
                    "velocity": 0.6614173228346457,
                    "duration": 0.8691870000000108
                },
                {
                    "name": "E3",
                    "midi": 52,
                    "time": 541.5035010000033,
                    "velocity": 0.4881889763779528,
                    "duration": 0.8691870000000108
                },
                {
                    "name": "A#3",
                    "midi": 58,
                    "time": 541.5035010000033,
                    "velocity": 0.5826771653543307,
                    "duration": 0.8691870000000108
                },
                {
                    "name": "F#3",
                    "midi": 54,
                    "time": 542.3726880000033,
                    "velocity": 0.4881889763779528,
                    "duration": 0.8691870000000108
                },
                {
                    "name": "C#4",
                    "midi": 61,
                    "time": 542.3726880000033,
                    "velocity": 0.5826771653543307,
                    "duration": 0.8691870000000108
                },
                {
                    "name": "E4",
                    "midi": 64,
                    "time": 543.2418750000033,
                    "velocity": 0.6614173228346457,
                    "duration": 0.8691870000000108
                },
                {
                    "name": "A#3",
                    "midi": 58,
                    "time": 543.2418750000033,
                    "velocity": 0.5511811023622047,
                    "duration": 0.8691870000000108
                },
                {
                    "name": "C#4",
                    "midi": 61,
                    "time": 544.1110620000034,
                    "velocity": 0.5826771653543307,
                    "duration": 0.8691870000000108
                },
                {
                    "name": "F#3",
                    "midi": 54,
                    "time": 544.1110620000034,
                    "velocity": 0.4881889763779528,
                    "duration": 0.8691870000000108
                },
                {
                    "name": "E3",
                    "midi": 52,
                    "time": 544.9802490000034,
                    "velocity": 0.4881889763779528,
                    "duration": 0.8691870000000108
                },
                {
                    "name": "A#3",
                    "midi": 58,
                    "time": 544.9802490000034,
                    "velocity": 0.5826771653543307,
                    "duration": 0.8691870000000108
                },
                {
                    "name": "E2",
                    "midi": 40,
                    "time": 545.8494360000034,
                    "velocity": 0.5511811023622047,
                    "duration": 0.8691870000000108
                },
                {
                    "name": "E3",
                    "midi": 52,
                    "time": 545.8494360000034,
                    "velocity": 0.6614173228346457,
                    "duration": 0.8691870000000108
                },
                {
                    "name": "E3",
                    "midi": 52,
                    "time": 546.7186230000034,
                    "velocity": 0.4881889763779528,
                    "duration": 0.8691870000000108
                },
                {
                    "name": "C4",
                    "midi": 60,
                    "time": 546.7186230000034,
                    "velocity": 0.5826771653543307,
                    "duration": 0.8691870000000108
                },
                {
                    "name": "G#3",
                    "midi": 56,
                    "time": 547.5878100000034,
                    "velocity": 0.4881889763779528,
                    "duration": 0.8691870000000108
                },
                {
                    "name": "D#4",
                    "midi": 63,
                    "time": 547.5878100000034,
                    "velocity": 0.5826771653543307,
                    "duration": 0.8691870000000108
                },
                {
                    "name": "F#4",
                    "midi": 66,
                    "time": 548.4569970000034,
                    "velocity": 0.6614173228346457,
                    "duration": 0.8691870000000108
                },
                {
                    "name": "C4",
                    "midi": 60,
                    "time": 548.4569970000034,
                    "velocity": 0.5511811023622047,
                    "duration": 0.8691870000000108
                },
                {
                    "name": "G#3",
                    "midi": 56,
                    "time": 549.3261840000034,
                    "velocity": 0.4881889763779528,
                    "duration": 0.8691870000000108
                },
                {
                    "name": "D#4",
                    "midi": 63,
                    "time": 549.3261840000034,
                    "velocity": 0.5826771653543307,
                    "duration": 0.8691870000000108
                },
                {
                    "name": "E3",
                    "midi": 52,
                    "time": 550.1953710000034,
                    "velocity": 0.4881889763779528,
                    "duration": 0.8691870000000108
                },
                {
                    "name": "C4",
                    "midi": 60,
                    "time": 550.1953710000034,
                    "velocity": 0.5826771653543307,
                    "duration": 0.8691870000000108
                },
                {
                    "name": "E2",
                    "midi": 40,
                    "time": 551.0645580000034,
                    "velocity": 0.6614173228346457,
                    "duration": 0.8691870000000108
                },
                {
                    "name": "E1",
                    "midi": 28,
                    "time": 551.0645580000034,
                    "velocity": 0.5511811023622047,
                    "duration": 0.8691870000000108
                },
                {
                    "name": "E3",
                    "midi": 52,
                    "time": 551.9337450000035,
                    "velocity": 0.4881889763779528,
                    "duration": 0.8691870000000108
                },
                {
                    "name": "B3",
                    "midi": 59,
                    "time": 551.9337450000035,
                    "velocity": 0.5826771653543307,
                    "duration": 0.8691870000000108
                },
                {
                    "name": "G#3",
                    "midi": 56,
                    "time": 552.8029320000035,
                    "velocity": 0.4881889763779528,
                    "duration": 0.8691870000000108
                },
                {
                    "name": "D#4",
                    "midi": 63,
                    "time": 552.8029320000035,
                    "velocity": 0.5826771653543307,
                    "duration": 0.8691870000000108
                },
                {
                    "name": "C4",
                    "midi": 60,
                    "time": 553.6721190000035,
                    "velocity": 0.5511811023622047,
                    "duration": 0.8691870000000108
                },
                {
                    "name": "F#4",
                    "midi": 66,
                    "time": 553.6721190000035,
                    "velocity": 0.6614173228346457,
                    "duration": 0.8691870000000108
                },
                {
                    "name": "D#4",
                    "midi": 63,
                    "time": 554.5413060000035,
                    "velocity": 0.5826771653543307,
                    "duration": 0.8691870000000108
                },
                {
                    "name": "G#3",
                    "midi": 56,
                    "time": 554.5413060000035,
                    "velocity": 0.4881889763779528,
                    "duration": 0.8691870000000108
                },
                {
                    "name": "C4",
                    "midi": 60,
                    "time": 555.4104930000035,
                    "velocity": 0.5826771653543307,
                    "duration": 0.8691870000000108
                },
                {
                    "name": "E3",
                    "midi": 52,
                    "time": 555.4104930000035,
                    "velocity": 0.4881889763779528,
                    "duration": 0.8691870000000108
                },
                {
                    "name": "E2",
                    "midi": 40,
                    "time": 556.2796800000035,
                    "velocity": 0.5511811023622047,
                    "duration": 0.8691870000000108
                },
                {
                    "name": "E3",
                    "midi": 52,
                    "time": 556.2796800000035,
                    "velocity": 0.6614173228346457,
                    "duration": 0.8691870000000108
                },
                {
                    "name": "E3",
                    "midi": 52,
                    "time": 557.1488670000035,
                    "velocity": 0.5826771653543307,
                    "duration": 0.8691870000000108
                },
                {
                    "name": "C#4",
                    "midi": 61,
                    "time": 557.1488670000035,
                    "velocity": 0.4881889763779528,
                    "duration": 0.8691870000000108
                },
                {
                    "name": "G#3",
                    "midi": 56,
                    "time": 558.0180540000035,
                    "velocity": 0.4881889763779528,
                    "duration": 0.8691870000000108
                },
                {
                    "name": "E4",
                    "midi": 64,
                    "time": 558.0180540000035,
                    "velocity": 0.5826771653543307,
                    "duration": 0.8691870000000108
                },
                {
                    "name": "D#2",
                    "midi": 39,
                    "time": 558.8872410000035,
                    "velocity": 0.5511811023622047,
                    "duration": 0.8691870000000108
                },
                {
                    "name": "D#3",
                    "midi": 51,
                    "time": 558.8872410000035,
                    "velocity": 0.6614173228346457,
                    "duration": 0.8691870000000108
                },
                {
                    "name": "D#3",
                    "midi": 51,
                    "time": 559.7564280000036,
                    "velocity": 0.4881889763779528,
                    "duration": 0.8691870000000108
                },
                {
                    "name": "B3",
                    "midi": 59,
                    "time": 559.7564280000036,
                    "velocity": 0.5826771653543307,
                    "duration": 0.8691870000000108
                },
                {
                    "name": "D#4",
                    "midi": 63,
                    "time": 560.6256150000036,
                    "velocity": 0.5826771653543307,
                    "duration": 0.8691870000000108
                },
                {
                    "name": "G#3",
                    "midi": 56,
                    "time": 560.6256150000036,
                    "velocity": 0.4881889763779528,
                    "duration": 0.8691870000000108
                },
                {
                    "name": "C#2",
                    "midi": 37,
                    "time": 561.4948020000036,
                    "velocity": 0.5511811023622047,
                    "duration": 0.8691870000000108
                },
                {
                    "name": "C#3",
                    "midi": 49,
                    "time": 561.4948020000036,
                    "velocity": 0.6614173228346457,
                    "duration": 0.8691870000000108
                },
                {
                    "name": "G#3",
                    "midi": 56,
                    "time": 562.3639890000036,
                    "velocity": 0.5826771653543307,
                    "duration": 0.8691870000000108
                },
                {
                    "name": "C#3",
                    "midi": 49,
                    "time": 562.3639890000036,
                    "velocity": 0.4881889763779528,
                    "duration": 0.8691870000000108
                },
                {
                    "name": "C#4",
                    "midi": 61,
                    "time": 563.2331760000036,
                    "velocity": 0.5905511811023622,
                    "duration": 0.8691870000000108
                },
                {
                    "name": "E3",
                    "midi": 52,
                    "time": 563.2331760000036,
                    "velocity": 0.49606299212598426,
                    "duration": 0.8691870000000108
                },
                {
                    "name": "G#1",
                    "midi": 32,
                    "time": 564.1023630000036,
                    "velocity": 0.5669291338582677,
                    "duration": 0.8691870000000108
                },
                {
                    "name": "G#2",
                    "midi": 44,
                    "time": 564.1023630000036,
                    "velocity": 0.6929133858267716,
                    "duration": 0.8691870000000108
                },
                {
                    "name": "B2",
                    "midi": 47,
                    "time": 564.9715500000036,
                    "velocity": 0.5196850393700787,
                    "duration": 0.8691870000000108
                },
                {
                    "name": "G#3",
                    "midi": 56,
                    "time": 564.9715500000036,
                    "velocity": 0.6220472440944882,
                    "duration": 0.8691870000000108
                },
                {
                    "name": "D#3",
                    "midi": 51,
                    "time": 565.8407370000036,
                    "velocity": 0.5275590551181102,
                    "duration": 0.8691870000000108
                },
                {
                    "name": "B3",
                    "midi": 59,
                    "time": 565.8407370000036,
                    "velocity": 0.6299212598425197,
                    "duration": 0.8691870000000108
                },
                {
                    "name": "F2",
                    "midi": 41,
                    "time": 566.7099240000036,
                    "velocity": 0.6929133858267716,
                    "duration": 0.4345935000000054
                },
                {
                    "name": "F1",
                    "midi": 29,
                    "time": 566.7099240000036,
                    "velocity": 0.5669291338582677,
                    "duration": 0.4345935000000054
                },
                {
                    "name": "F3",
                    "midi": 53,
                    "time": 567.8507319375036,
                    "velocity": 0.4094488188976378,
                    "duration": 1.0321595625000555
                },
                {
                    "name": "B3",
                    "midi": 59,
                    "time": 567.9050561250036,
                    "velocity": 0.4251968503937008,
                    "duration": 0.9778353750000406
                },
                {
                    "name": "D#4",
                    "midi": 63,
                    "time": 567.9593803125036,
                    "velocity": 0.4409448818897638,
                    "duration": 0.9235111875000257
                },
                {
                    "name": "G#4",
                    "midi": 68,
                    "time": 568.0137045000037,
                    "velocity": 0.4645669291338583,
                    "duration": 0.8691870000000108
                },
                {
                    "name": "A#1",
                    "midi": 34,
                    "time": 571.9250460000036,
                    "velocity": 0.3464566929133858,
                    "duration": 0.4345935000000054
                },
                {
                    "name": "D3",
                    "midi": 50,
                    "time": 572.3596395000036,
                    "velocity": 0.2677165354330709,
                    "duration": 0.4345935000000054
                },
                {
                    "name": "A#1",
                    "midi": 34,
                    "time": 573.2288265000036,
                    "velocity": 0.3464566929133858,
                    "duration": 0.4345935000000054
                },
                {
                    "name": "D3",
                    "midi": 50,
                    "time": 573.6634200000036,
                    "velocity": 0.2677165354330709,
                    "duration": 0.4345935000000054
                },
                {
                    "name": "A#1",
                    "midi": 34,
                    "time": 574.5326070000036,
                    "velocity": 0.36220472440944884,
                    "duration": 0.4345935000000054
                },
                {
                    "name": "D3",
                    "midi": 50,
                    "time": 574.9672005000036,
                    "velocity": 0.2677165354330709,
                    "duration": 0.4345935000000054
                },
                {
                    "name": "A#1",
                    "midi": 34,
                    "time": 575.8363875000036,
                    "velocity": 0.3779527559055118,
                    "duration": 0.4345935000000054
                },
                {
                    "name": "D3",
                    "midi": 50,
                    "time": 576.2709810000036,
                    "velocity": 0.2677165354330709,
                    "duration": 0.4345935000000054
                },
                {
                    "name": "D3",
                    "midi": 50,
                    "time": 577.1401680000037,
                    "velocity": 0.3858267716535433,
                    "duration": 0.4345935000000054
                },
                {
                    "name": "F4",
                    "midi": 65,
                    "time": 577.5747615000037,
                    "velocity": 0.2677165354330709,
                    "duration": 0.4345935000000054
                },
                {
                    "name": "D3",
                    "midi": 50,
                    "time": 578.4439485000037,
                    "velocity": 0.4094488188976378,
                    "duration": 0.4345935000000054
                },
                {
                    "name": "F4",
                    "midi": 65,
                    "time": 578.8785420000037,
                    "velocity": 0.28346456692913385,
                    "duration": 0.4345935000000054
                },
                {
                    "name": "D3",
                    "midi": 50,
                    "time": 579.7477290000037,
                    "velocity": 0.41732283464566927,
                    "duration": 0.4345935000000054
                },
                {
                    "name": "F4",
                    "midi": 65,
                    "time": 580.1823225000037,
                    "velocity": 0.2992125984251969,
                    "duration": 0.4345935000000054
                },
                {
                    "name": "D3",
                    "midi": 50,
                    "time": 581.0515095000037,
                    "velocity": 0.4330708661417323,
                    "duration": 0.4345935000000054
                },
                {
                    "name": "F4",
                    "midi": 65,
                    "time": 581.4861030000037,
                    "velocity": 0.31496062992125984,
                    "duration": 0.4345935000000054
                },
                {
                    "name": "A#1",
                    "midi": 34,
                    "time": 582.3552900000037,
                    "velocity": 0.3937007874015748,
                    "duration": 0.4345934999998917
                },
                {
                    "name": "G#3",
                    "midi": 56,
                    "time": 583.6590705000036,
                    "velocity": 0.3543307086614173,
                    "duration": 0.4345935000000054
                },
                {
                    "name": "F3",
                    "midi": 53,
                    "time": 583.6590705000036,
                    "velocity": 0.29133858267716534,
                    "duration": 0.4345935000000054
                },
                {
                    "name": "A#2",
                    "midi": 46,
                    "time": 583.6590705000036,
                    "velocity": 0.29133858267716534,
                    "duration": 0.4345935000000054
                },
                {
                    "name": "F3",
                    "midi": 53,
                    "time": 584.9628510000036,
                    "velocity": 0.29133858267716534,
                    "duration": 0.4345935000000054
                },
                {
                    "name": "D4",
                    "midi": 62,
                    "time": 584.9628510000036,
                    "velocity": 0.3543307086614173,
                    "duration": 0.4345935000000054
                },
                {
                    "name": "G#3",
                    "midi": 56,
                    "time": 584.9628510000036,
                    "velocity": 0.29133858267716534,
                    "duration": 0.4345935000000054
                },
                {
                    "name": "D4",
                    "midi": 62,
                    "time": 586.2666315000037,
                    "velocity": 0.28346456692913385,
                    "duration": 0.4345935000000054
                },
                {
                    "name": "G#3",
                    "midi": 56,
                    "time": 586.2666315000037,
                    "velocity": 0.28346456692913385,
                    "duration": 0.4345935000000054
                },
                {
                    "name": "F4",
                    "midi": 65,
                    "time": 586.2666315000037,
                    "velocity": 0.3464566929133858,
                    "duration": 0.4345935000000054
                },
                {
                    "name": "G#4",
                    "midi": 68,
                    "time": 587.5704120000037,
                    "velocity": 0.33858267716535434,
                    "duration": 0.4345935000000054
                },
                {
                    "name": "A#3",
                    "midi": 58,
                    "time": 587.5704120000037,
                    "velocity": 0.28346456692913385,
                    "duration": 0.4345935000000054
                },
                {
                    "name": "F4",
                    "midi": 65,
                    "time": 587.5704120000037,
                    "velocity": 0.28346456692913385,
                    "duration": 0.4345935000000054
                },
                {
                    "name": "F4",
                    "midi": 65,
                    "time": 588.8741925000037,
                    "velocity": 0.2755905511811024,
                    "duration": 0.4345935000000054
                },
                {
                    "name": "G#4",
                    "midi": 68,
                    "time": 588.8741925000037,
                    "velocity": 0.2755905511811024,
                    "duration": 0.4345935000000054
                },
                {
                    "name": "D5",
                    "midi": 74,
                    "time": 588.8741925000037,
                    "velocity": 0.33070866141732286,
                    "duration": 0.4345935000000054
                },
                {
                    "name": "G#4",
                    "midi": 68,
                    "time": 590.1779730000037,
                    "velocity": 0.30708661417322836,
                    "duration": 0.4345935000000054
                },
                {
                    "name": "D5",
                    "midi": 74,
                    "time": 590.1779730000037,
                    "velocity": 0.30708661417322836,
                    "duration": 0.4345935000000054
                },
                {
                    "name": "F5",
                    "midi": 77,
                    "time": 590.1779730000037,
                    "velocity": 0.36220472440944884,
                    "duration": 0.4345935000000054
                },
                {
                    "name": "G#5",
                    "midi": 80,
                    "time": 591.4817535000037,
                    "velocity": 0.3543307086614173,
                    "duration": 0.4345935000000054
                },
                {
                    "name": "F5",
                    "midi": 77,
                    "time": 591.4817535000037,
                    "velocity": 0.2992125984251969,
                    "duration": 0.4345935000000054
                },
                {
                    "name": "A#4",
                    "midi": 70,
                    "time": 591.4817535000037,
                    "velocity": 0.2992125984251969,
                    "duration": 0.4345935000000054
                },
                {
                    "name": "F5",
                    "midi": 77,
                    "time": 592.7855340000037,
                    "velocity": 0.29133858267716534,
                    "duration": 3.9113415000000487
                },
                {
                    "name": "G#5",
                    "midi": 80,
                    "time": 592.7855340000037,
                    "velocity": 0.29133858267716534,
                    "duration": 3.9113415000000487
                },
                {
                    "name": "D6",
                    "midi": 86,
                    "time": 592.7855340000037,
                    "velocity": 0.3464566929133858,
                    "duration": 3.9113415000000487
                },
                {
                    "name": "C6",
                    "midi": 84,
                    "time": 596.6968755000038,
                    "velocity": 0.3464566929133858,
                    "duration": 1.3037805000000162
                },
                {
                    "name": "D#5",
                    "midi": 75,
                    "time": 596.6968755000038,
                    "velocity": 0.29133858267716534,
                    "duration": 1.3037805000000162
                },
                {
                    "name": "G#5",
                    "midi": 80,
                    "time": 596.6968755000038,
                    "velocity": 0.29133858267716534,
                    "duration": 1.3037805000000162
                },
                {
                    "name": "D#5",
                    "midi": 75,
                    "time": 598.0006560000038,
                    "velocity": 0.29133858267716534,
                    "duration": 1.3037805000000162
                },
                {
                    "name": "C6",
                    "midi": 84,
                    "time": 598.0006560000038,
                    "velocity": 0.3464566929133858,
                    "duration": 1.3037805000000162
                },
                {
                    "name": "G#5",
                    "midi": 80,
                    "time": 598.0006560000038,
                    "velocity": 0.29133858267716534,
                    "duration": 1.7383740000000216
                },
                {
                    "name": "D5",
                    "midi": 74,
                    "time": 599.3044365000038,
                    "velocity": 0.29133858267716534,
                    "duration": 0.4345935000000054
                },
                {
                    "name": "A#5",
                    "midi": 82,
                    "time": 599.3044365000038,
                    "velocity": 0.3464566929133858,
                    "duration": 0.4345935000000054
                },
                {
                    "name": "D#3",
                    "midi": 51,
                    "time": 603.2157780000039,
                    "velocity": 0.33070866141732286,
                    "duration": 0.21729674999994586
                },
                {
                    "name": "D#4",
                    "midi": 63,
                    "time": 603.6503715000038,
                    "velocity": 0.2204724409448819,
                    "duration": 0.8691870000000108
                },
                {
                    "name": "G4",
                    "midi": 67,
                    "time": 603.6503715000038,
                    "velocity": 0.2204724409448819,
                    "duration": 0.8691870000000108
                },
                {
                    "name": "C5",
                    "midi": 72,
                    "time": 603.6503715000038,
                    "velocity": 0.3779527559055118,
                    "duration": 0.4345935000000054
                },
                {
                    "name": "A#4",
                    "midi": 70,
                    "time": 604.0849650000038,
                    "velocity": 0.2755905511811024,
                    "duration": 0.4345935000000054
                },
                {
                    "name": "A#2",
                    "midi": 46,
                    "time": 604.5195585000038,
                    "velocity": 0.3228346456692913,
                    "duration": 0.21729674999994586
                },
                {
                    "name": "D4",
                    "midi": 62,
                    "time": 604.9541520000037,
                    "velocity": 0.18110236220472442,
                    "duration": 0.8691870000000108
                },
                {
                    "name": "G#4",
                    "midi": 68,
                    "time": 604.9541520000037,
                    "velocity": 0.2125984251968504,
                    "duration": 0.8691870000000108
                },
                {
                    "name": "A3",
                    "midi": 57,
                    "time": 604.9541520000037,
                    "velocity": 0.25984251968503935,
                    "duration": 0.4345935000000054
                },
                {
                    "name": "A#3",
                    "midi": 58,
                    "time": 605.3887455000037,
                    "velocity": 0.25984251968503935,
                    "duration": 0.4345935000000054
                },
                {
                    "name": "D#3",
                    "midi": 51,
                    "time": 605.8233390000037,
                    "velocity": 0.33070866141732286,
                    "duration": 0.21729674999994586
                },
                {
                    "name": "G4",
                    "midi": 67,
                    "time": 606.2579325000036,
                    "velocity": 0.2204724409448819,
                    "duration": 0.8691870000000108
                },
                {
                    "name": "D#4",
                    "midi": 63,
                    "time": 606.2579325000036,
                    "velocity": 0.2204724409448819,
                    "duration": 0.8691870000000108
                },
                {
                    "name": "C5",
                    "midi": 72,
                    "time": 606.2579325000036,
                    "velocity": 0.3779527559055118,
                    "duration": 0.4345935000000054
                },
                {
                    "name": "A#4",
                    "midi": 70,
                    "time": 606.6925260000036,
                    "velocity": 0.2755905511811024,
                    "duration": 0.4345935000000054
                },
                {
                    "name": "A#2",
                    "midi": 46,
                    "time": 607.1271195000036,
                    "velocity": 0.3228346456692913,
                    "duration": 0.21729674999994586
                },
                {
                    "name": "D4",
                    "midi": 62,
                    "time": 607.5617130000035,
                    "velocity": 0.18110236220472442,
                    "duration": 0.8691870000000108
                },
                {
                    "name": "A3",
                    "midi": 57,
                    "time": 607.5617130000035,
                    "velocity": 0.25984251968503935,
                    "duration": 0.4345935000000054
                },
                {
                    "name": "G#4",
                    "midi": 68,
                    "time": 607.5617130000035,
                    "velocity": 0.2125984251968504,
                    "duration": 0.8691870000000108
                },
                {
                    "name": "A#3",
                    "midi": 58,
                    "time": 607.9963065000035,
                    "velocity": 0.25984251968503935,
                    "duration": 0.4345935000000054
                },
                {
                    "name": "D#3",
                    "midi": 51,
                    "time": 608.4309000000035,
                    "velocity": 0.33070866141732286,
                    "duration": 0.21729674999994586
                },
                {
                    "name": "A#3",
                    "midi": 58,
                    "time": 608.8654935000034,
                    "velocity": 0.2204724409448819,
                    "duration": 0.8691870000000108
                },
                {
                    "name": "D#4",
                    "midi": 63,
                    "time": 608.8654935000034,
                    "velocity": 0.2204724409448819,
                    "duration": 0.8691870000000108
                },
                {
                    "name": "G#4",
                    "midi": 68,
                    "time": 608.8654935000034,
                    "velocity": 0.3779527559055118,
                    "duration": 0.4345935000000054
                },
                {
                    "name": "G4",
                    "midi": 67,
                    "time": 609.3000870000034,
                    "velocity": 0.28346456692913385,
                    "duration": 0.4345935000000054
                },
                {
                    "name": "G#2",
                    "midi": 44,
                    "time": 609.7346805000034,
                    "velocity": 0.33858267716535434,
                    "duration": 0.21729674999994586
                },
                {
                    "name": "C4",
                    "midi": 60,
                    "time": 610.1692740000033,
                    "velocity": 0.2283464566929134,
                    "duration": 0.8691870000000108
                },
                {
                    "name": "G4",
                    "midi": 67,
                    "time": 610.1692740000033,
                    "velocity": 0.3937007874015748,
                    "duration": 0.4345935000000054
                },
                {
                    "name": "G#3",
                    "midi": 56,
                    "time": 610.1692740000033,
                    "velocity": 0.2283464566929134,
                    "duration": 0.8691870000000108
                },
                {
                    "name": "F4",
                    "midi": 65,
                    "time": 610.6038675000033,
                    "velocity": 0.29133858267716534,
                    "duration": 0.4345935000000054
                },
                {
                    "name": "A#2",
                    "midi": 46,
                    "time": 611.0384610000033,
                    "velocity": 0.3543307086614173,
                    "duration": 0.21729675000005955
                },
                {
                    "name": "D#4",
                    "midi": 63,
                    "time": 611.4730545000033,
                    "velocity": 0.3937007874015748,
                    "duration": 0.4345935000000054
                },
                {
                    "name": "F3",
                    "midi": 53,
                    "time": 611.4730545000033,
                    "velocity": 0.2283464566929134,
                    "duration": 0.8691870000000108
                },
                {
                    "name": "G#3",
                    "midi": 56,
                    "time": 611.4730545000033,
                    "velocity": 0.2283464566929134,
                    "duration": 0.8691870000000108
                },
                {
                    "name": "D4",
                    "midi": 62,
                    "time": 611.9076480000033,
                    "velocity": 0.28346456692913385,
                    "duration": 0.4345935000000054
                },
                {
                    "name": "A#2",
                    "midi": 46,
                    "time": 612.3422415000033,
                    "velocity": 0.3228346456692913,
                    "duration": 0.21729675000005955
                },
                {
                    "name": "F3",
                    "midi": 53,
                    "time": 612.7768350000033,
                    "velocity": 0.2125984251968504,
                    "duration": 0.8691870000000108
                },
                {
                    "name": "G#3",
                    "midi": 56,
                    "time": 612.7768350000033,
                    "velocity": 0.2125984251968504,
                    "duration": 0.8691870000000108
                },
                {
                    "name": "C4",
                    "midi": 60,
                    "time": 612.7768350000033,
                    "velocity": 0.36220472440944884,
                    "duration": 0.4345935000000054
                },
                {
                    "name": "A#3",
                    "midi": 58,
                    "time": 613.2114285000033,
                    "velocity": 0.2677165354330709,
                    "duration": 0.4345935000000054
                },
                {
                    "name": "D#3",
                    "midi": 51,
                    "time": 613.6460220000033,
                    "velocity": 0.33070866141732286,
                    "duration": 0.21729675000005955
                },
                {
                    "name": "D#4",
                    "midi": 63,
                    "time": 614.0806155000033,
                    "velocity": 0.2204724409448819,
                    "duration": 0.8691870000000108
                },
                {
                    "name": "G4",
                    "midi": 67,
                    "time": 614.0806155000033,
                    "velocity": 0.2204724409448819,
                    "duration": 0.8691870000000108
                },
                {
                    "name": "C5",
                    "midi": 72,
                    "time": 614.0806155000033,
                    "velocity": 0.3779527559055118,
                    "duration": 0.4345935000000054
                },
                {
                    "name": "A#4",
                    "midi": 70,
                    "time": 614.5152090000033,
                    "velocity": 0.2755905511811024,
                    "duration": 0.4345935000000054
                },
                {
                    "name": "A#2",
                    "midi": 46,
                    "time": 614.9498025000033,
                    "velocity": 0.3228346456692913,
                    "duration": 0.21729674999994586
                },
                {
                    "name": "A3",
                    "midi": 57,
                    "time": 615.3843960000032,
                    "velocity": 0.25984251968503935,
                    "duration": 0.4345935000000054
                },
                {
                    "name": "G#4",
                    "midi": 68,
                    "time": 615.3843960000032,
                    "velocity": 0.2125984251968504,
                    "duration": 0.8691870000000108
                },
                {
                    "name": "D4",
                    "midi": 62,
                    "time": 615.3843960000032,
                    "velocity": 0.18110236220472442,
                    "duration": 0.8691870000000108
                },
                {
                    "name": "A#3",
                    "midi": 58,
                    "time": 615.8189895000032,
                    "velocity": 0.25984251968503935,
                    "duration": 0.4345935000000054
                },
                {
                    "name": "D#3",
                    "midi": 51,
                    "time": 616.2535830000032,
                    "velocity": 0.33070866141732286,
                    "duration": 0.21729674999994586
                },
                {
                    "name": "C5",
                    "midi": 72,
                    "time": 616.6881765000031,
                    "velocity": 0.3779527559055118,
                    "duration": 0.4345934999998917
                },
                {
                    "name": "D#4",
                    "midi": 63,
                    "time": 616.6881765000031,
                    "velocity": 0.2204724409448819,
                    "duration": 0.8691869999998971
                },
                {
                    "name": "G4",
                    "midi": 67,
                    "time": 616.6881765000031,
                    "velocity": 0.2204724409448819,
                    "duration": 0.8691869999998971
                },
                {
                    "name": "A#4",
                    "midi": 70,
                    "time": 617.122770000003,
                    "velocity": 0.2755905511811024,
                    "duration": 0.4345935000000054
                },
                {
                    "name": "A#2",
                    "midi": 46,
                    "time": 617.557363500003,
                    "velocity": 0.3228346456692913,
                    "duration": 0.21729674999994586
                },
                {
                    "name": "D4",
                    "midi": 62,
                    "time": 617.9919570000029,
                    "velocity": 0.18110236220472442,
                    "duration": 0.8691870000000108
                },
                {
                    "name": "G#4",
                    "midi": 68,
                    "time": 617.9919570000029,
                    "velocity": 0.2125984251968504,
                    "duration": 0.8691870000000108
                },
                {
                    "name": "A3",
                    "midi": 57,
                    "time": 617.9919570000029,
                    "velocity": 0.25984251968503935,
                    "duration": 0.4345935000000054
                },
                {
                    "name": "A#3",
                    "midi": 58,
                    "time": 618.4265505000029,
                    "velocity": 0.25984251968503935,
                    "duration": 0.4345935000000054
                },
                {
                    "name": "D#3",
                    "midi": 51,
                    "time": 618.8611440000029,
                    "velocity": 0.33070866141732286,
                    "duration": 0.21729674999994586
                },
                {
                    "name": "G4",
                    "midi": 67,
                    "time": 619.2957375000028,
                    "velocity": 0.2204724409448819,
                    "duration": 0.8691869999998971
                },
                {
                    "name": "F5",
                    "midi": 77,
                    "time": 619.2957375000028,
                    "velocity": 0.3779527559055118,
                    "duration": 0.4345934999998917
                },
                {
                    "name": "A#4",
                    "midi": 70,
                    "time": 619.2957375000028,
                    "velocity": 0.2204724409448819,
                    "duration": 0.8691869999998971
                },
                {
                    "name": "D#5",
                    "midi": 75,
                    "time": 619.7303310000027,
                    "velocity": 0.28346456692913385,
                    "duration": 0.4345935000000054
                },
                {
                    "name": "G#2",
                    "midi": 44,
                    "time": 620.1649245000027,
                    "velocity": 0.33858267716535434,
                    "duration": 0.21729674999994586
                },
                {
                    "name": "G4",
                    "midi": 67,
                    "time": 620.5995180000026,
                    "velocity": 0.3937007874015748,
                    "duration": 0.4345934999998917
                },
                {
                    "name": "C4",
                    "midi": 60,
                    "time": 620.5995180000026,
                    "velocity": 0.2283464566929134,
                    "duration": 0.8691869999998971
                },
                {
                    "name": "G#3",
                    "midi": 56,
                    "time": 620.5995180000026,
                    "velocity": 0.2283464566929134,
                    "duration": 0.8691869999998971
                },
                {
                    "name": "F4",
                    "midi": 65,
                    "time": 621.0341115000025,
                    "velocity": 0.29133858267716534,
                    "duration": 0.4345935000000054
                },
                {
                    "name": "A#2",
                    "midi": 46,
                    "time": 621.4687050000025,
                    "velocity": 0.3779527559055118,
                    "duration": 0.4345935000000054
                },
                {
                    "name": "D4",
                    "midi": 62,
                    "time": 622.3378920000025,
                    "velocity": 0.2992125984251969,
                    "duration": 0.4345935000000054
                },
                {
                    "name": "G#3",
                    "midi": 56,
                    "time": 622.3378920000025,
                    "velocity": 0.2992125984251969,
                    "duration": 0.4345935000000054
                },
                {
                    "name": "F3",
                    "midi": 53,
                    "time": 622.3378920000025,
                    "velocity": 0.2992125984251969,
                    "duration": 0.4345935000000054
                },
                {
                    "name": "G#3",
                    "midi": 56,
                    "time": 622.7724855000025,
                    "velocity": 0.2992125984251969,
                    "duration": 0.4345935000000054
                },
                {
                    "name": "F3",
                    "midi": 53,
                    "time": 622.7724855000025,
                    "velocity": 0.2992125984251969,
                    "duration": 0.4345935000000054
                },
                {
                    "name": "D4",
                    "midi": 62,
                    "time": 622.7724855000025,
                    "velocity": 0.2992125984251969,
                    "duration": 0.4345935000000054
                },
                {
                    "name": "F3",
                    "midi": 53,
                    "time": 623.2070790000025,
                    "velocity": 0.2992125984251969,
                    "duration": 0.4345935000000054
                },
                {
                    "name": "G#3",
                    "midi": 56,
                    "time": 623.2070790000025,
                    "velocity": 0.2992125984251969,
                    "duration": 0.4345935000000054
                },
                {
                    "name": "D4",
                    "midi": 62,
                    "time": 623.2070790000025,
                    "velocity": 0.2992125984251969,
                    "duration": 0.4345935000000054
                },
                {
                    "name": "G#3",
                    "midi": 56,
                    "time": 623.6416725000025,
                    "velocity": 0.2992125984251969,
                    "duration": 0.4345935000000054
                },
                {
                    "name": "D4",
                    "midi": 62,
                    "time": 623.6416725000025,
                    "velocity": 0.2992125984251969,
                    "duration": 0.4345935000000054
                },
                {
                    "name": "F3",
                    "midi": 53,
                    "time": 623.6416725000025,
                    "velocity": 0.2992125984251969,
                    "duration": 0.4345935000000054
                },
                {
                    "name": "A#3",
                    "midi": 58,
                    "time": 624.0762660000025,
                    "velocity": 0.3858267716535433,
                    "duration": 0.4345935000000054
                },
                {
                    "name": "C#4",
                    "midi": 61,
                    "time": 624.0762660000025,
                    "velocity": 0.4566929133858268,
                    "duration": 0.4345935000000054
                },
                {
                    "name": "D#3",
                    "midi": 51,
                    "time": 624.0762660000025,
                    "velocity": 0.3858267716535433,
                    "duration": 0.4345935000000054
                },
                {
                    "name": "D#3",
                    "midi": 51,
                    "time": 624.7281562500025,
                    "velocity": 0.3858267716535433,
                    "duration": 0.21729674999994586
                },
                {
                    "name": "D#2",
                    "midi": 39,
                    "time": 624.7281562500025,
                    "velocity": 0.3228346456692913,
                    "duration": 0.21729674999994586
                },
                {
                    "name": "D#3",
                    "midi": 51,
                    "time": 624.9454530000024,
                    "velocity": 0.3937007874015748,
                    "duration": 0.21729674999994586
                },
                {
                    "name": "D#2",
                    "midi": 39,
                    "time": 624.9454530000024,
                    "velocity": 0.3228346456692913,
                    "duration": 0.21729674999994586
                },
                {
                    "name": "G#3",
                    "midi": 56,
                    "time": 625.3800465000023,
                    "velocity": 0.33070866141732286,
                    "duration": 0.21729674999994586
                },
                {
                    "name": "C4",
                    "midi": 60,
                    "time": 625.3800465000023,
                    "velocity": 0.4015748031496063,
                    "duration": 0.21729674999994586
                },
                {
                    "name": "G2",
                    "midi": 43,
                    "time": 625.8146400000022,
                    "velocity": 0.33070866141732286,
                    "duration": 0.21729674999994586
                },
                {
                    "name": "G3",
                    "midi": 55,
                    "time": 625.8146400000022,
                    "velocity": 0.4015748031496063,
                    "duration": 0.21729674999994586
                },
                {
                    "name": "F#2",
                    "midi": 42,
                    "time": 626.2492335000021,
                    "velocity": 0.3464566929133858,
                    "duration": 0.21729674999994586
                },
                {
                    "name": "F#3",
                    "midi": 54,
                    "time": 626.2492335000021,
                    "velocity": 0.4094488188976378,
                    "duration": 0.21729674999994586
                },
                {
                    "name": "A3",
                    "midi": 57,
                    "time": 626.683827000002,
                    "velocity": 0.3858267716535433,
                    "duration": 0.4345935000000054
                },
                {
                    "name": "D#4",
                    "midi": 63,
                    "time": 626.683827000002,
                    "velocity": 0.4566929133858268,
                    "duration": 0.4345935000000054
                },
                {
                    "name": "F3",
                    "midi": 53,
                    "time": 627.335717250002,
                    "velocity": 0.3858267716535433,
                    "duration": 0.21729674999994586
                },
                {
                    "name": "F2",
                    "midi": 41,
                    "time": 627.335717250002,
                    "velocity": 0.3228346456692913,
                    "duration": 0.21729674999994586
                },
                {
                    "name": "F2",
                    "midi": 41,
                    "time": 627.5530140000019,
                    "velocity": 0.3228346456692913,
                    "duration": 0.21729674999994586
                },
                {
                    "name": "F3",
                    "midi": 53,
                    "time": 627.5530140000019,
                    "velocity": 0.3937007874015748,
                    "duration": 0.21729674999994586
                },
                {
                    "name": "D4",
                    "midi": 62,
                    "time": 627.9876075000018,
                    "velocity": 0.4015748031496063,
                    "duration": 0.21729674999994586
                },
                {
                    "name": "A#3",
                    "midi": 58,
                    "time": 627.9876075000018,
                    "velocity": 0.33070866141732286,
                    "duration": 0.21729674999994586
                },
                {
                    "name": "A2",
                    "midi": 45,
                    "time": 628.4222010000017,
                    "velocity": 0.33070866141732286,
                    "duration": 0.21729674999994586
                },
                {
                    "name": "A3",
                    "midi": 57,
                    "time": 628.4222010000017,
                    "velocity": 0.4015748031496063,
                    "duration": 0.21729674999994586
                },
                {
                    "name": "G#2",
                    "midi": 44,
                    "time": 628.8567945000016,
                    "velocity": 0.3464566929133858,
                    "duration": 0.21729674999994586
                },
                {
                    "name": "G#3",
                    "midi": 56,
                    "time": 628.8567945000016,
                    "velocity": 0.4094488188976378,
                    "duration": 0.21729674999994586
                },
                {
                    "name": "B3",
                    "midi": 59,
                    "time": 629.2913880000015,
                    "velocity": 0.3858267716535433,
                    "duration": 0.4345935000000054
                },
                {
                    "name": "F4",
                    "midi": 65,
                    "time": 629.2913880000015,
                    "velocity": 0.4566929133858268,
                    "duration": 0.4345935000000054
                },
                {
                    "name": "G2",
                    "midi": 43,
                    "time": 629.9432782500014,
                    "velocity": 0.3228346456692913,
                    "duration": 0.21729674999994586
                },
                {
                    "name": "G3",
                    "midi": 55,
                    "time": 629.9432782500014,
                    "velocity": 0.3858267716535433,
                    "duration": 0.21729674999994586
                },
                {
                    "name": "G2",
                    "midi": 43,
                    "time": 630.1605750000014,
                    "velocity": 0.3228346456692913,
                    "duration": 0.21729674999994586
                },
                {
                    "name": "G3",
                    "midi": 55,
                    "time": 630.1605750000014,
                    "velocity": 0.3937007874015748,
                    "duration": 0.21729674999994586
                },
                {
                    "name": "D#4",
                    "midi": 63,
                    "time": 630.5951685000013,
                    "velocity": 0.4015748031496063,
                    "duration": 0.21729674999994586
                },
                {
                    "name": "C4",
                    "midi": 60,
                    "time": 630.5951685000013,
                    "velocity": 0.33070866141732286,
                    "duration": 0.21729674999994586
                },
                {
                    "name": "C3",
                    "midi": 48,
                    "time": 631.0297620000011,
                    "velocity": 0.4015748031496063,
                    "duration": 0.4345935000000054
                },
                {
                    "name": "C2",
                    "midi": 36,
                    "time": 631.0297620000011,
                    "velocity": 0.33070866141732286,
                    "duration": 0.4345935000000054
                },
                {
                    "name": "G#3",
                    "midi": 56,
                    "time": 631.8989490000012,
                    "velocity": 0.36220472440944884,
                    "duration": 0.4345935000000054
                },
                {
                    "name": "D#4",
                    "midi": 63,
                    "time": 631.8989490000012,
                    "velocity": 0.41732283464566927,
                    "duration": 0.4345935000000054
                },
                {
                    "name": "B2",
                    "midi": 47,
                    "time": 632.3335425000012,
                    "velocity": 0.4881889763779528,
                    "duration": 0.4345935000000054
                },
                {
                    "name": "G#3",
                    "midi": 56,
                    "time": 633.2027295000012,
                    "velocity": 0.33070866141732286,
                    "duration": 0.4345935000000054
                },
                {
                    "name": "D4",
                    "midi": 62,
                    "time": 633.2027295000012,
                    "velocity": 0.4015748031496063,
                    "duration": 0.4345935000000054
                },
                {
                    "name": "A#2",
                    "midi": 46,
                    "time": 633.6373230000012,
                    "velocity": 0.47244094488188976,
                    "duration": 0.4345935000000054
                },
                {
                    "name": "D#3",
                    "midi": 51,
                    "time": 634.5065100000012,
                    "velocity": 0.29133858267716534,
                    "duration": 0.4345935000000054
                },
                {
                    "name": "D#2",
                    "midi": 39,
                    "time": 634.5065100000012,
                    "velocity": 0.2440944881889764,
                    "duration": 0.4345935000000054
                },
                {
                    "name": "G2",
                    "midi": 43,
                    "time": 634.9411035000012,
                    "velocity": 0.2440944881889764,
                    "duration": 0.4345935000000054
                },
                {
                    "name": "G3",
                    "midi": 55,
                    "time": 634.9411035000012,
                    "velocity": 0.29133858267716534,
                    "duration": 0.4345935000000054
                },
                {
                    "name": "G#3",
                    "midi": 56,
                    "time": 635.3756970000012,
                    "velocity": 0.2992125984251969,
                    "duration": 0.4345935000000054
                },
                {
                    "name": "G#2",
                    "midi": 44,
                    "time": 635.3756970000012,
                    "velocity": 0.25196850393700787,
                    "duration": 0.4345935000000054
                },
                {
                    "name": "G3",
                    "midi": 55,
                    "time": 635.8102905000012,
                    "velocity": 0.36220472440944884,
                    "duration": 0.4345935000000054
                },
                {
                    "name": "G2",
                    "midi": 43,
                    "time": 635.8102905000012,
                    "velocity": 0.2992125984251969,
                    "duration": 0.4345935000000054
                },
                {
                    "name": "D#2",
                    "midi": 39,
                    "time": 636.2448840000012,
                    "velocity": 0.25984251968503935,
                    "duration": 0.4345935000000054
                },
                {
                    "name": "D#3",
                    "midi": 51,
                    "time": 636.2448840000012,
                    "velocity": 0.30708661417322836,
                    "duration": 0.4345935000000054
                },
                {
                    "name": "A#2",
                    "midi": 46,
                    "time": 636.6794775000012,
                    "velocity": 0.2677165354330709,
                    "duration": 0.4345935000000054
                },
                {
                    "name": "A#3",
                    "midi": 58,
                    "time": 636.6794775000012,
                    "velocity": 0.3228346456692913,
                    "duration": 0.4345935000000054
                },
                {
                    "name": "A2",
                    "midi": 45,
                    "time": 637.1140710000012,
                    "velocity": 0.30708661417322836,
                    "duration": 0.4345934999998917
                },
                {
                    "name": "A3",
                    "midi": 57,
                    "time": 637.1140710000012,
                    "velocity": 0.3858267716535433,
                    "duration": 0.4345934999998917
                },
                {
                    "name": "F2",
                    "midi": 41,
                    "time": 637.5486645000011,
                    "velocity": 0.28346456692913385,
                    "duration": 0.4345935000000054
                },
                {
                    "name": "F3",
                    "midi": 53,
                    "time": 637.5486645000011,
                    "velocity": 0.3464566929133858,
                    "duration": 0.4345935000000054
                },
                {
                    "name": "A#2",
                    "midi": 46,
                    "time": 637.9832580000011,
                    "velocity": 0.3543307086614173,
                    "duration": 0.4345935000000054
                },
                {
                    "name": "A#3",
                    "midi": 58,
                    "time": 637.9832580000011,
                    "velocity": 0.3543307086614173,
                    "duration": 0.4345935000000054
                },
                {
                    "name": "A2",
                    "midi": 45,
                    "time": 638.4178515000011,
                    "velocity": 0.3464566929133858,
                    "duration": 0.4345935000000054
                },
                {
                    "name": "A3",
                    "midi": 57,
                    "time": 638.4178515000011,
                    "velocity": 0.41732283464566927,
                    "duration": 0.4345935000000054
                },
                {
                    "name": "F2",
                    "midi": 41,
                    "time": 638.8524450000011,
                    "velocity": 0.2992125984251969,
                    "duration": 0.4345935000000054
                },
                {
                    "name": "F3",
                    "midi": 53,
                    "time": 638.8524450000011,
                    "velocity": 0.3700787401574803,
                    "duration": 0.4345935000000054
                },
                {
                    "name": "C4",
                    "midi": 60,
                    "time": 639.2870385000011,
                    "velocity": 0.3858267716535433,
                    "duration": 0.4345935000000054
                },
                {
                    "name": "C3",
                    "midi": 48,
                    "time": 639.2870385000011,
                    "velocity": 0.30708661417322836,
                    "duration": 0.4345935000000054
                },
                {
                    "name": "B3",
                    "midi": 59,
                    "time": 639.7216320000011,
                    "velocity": 0.4645669291338583,
                    "duration": 0.4345935000000054
                },
                {
                    "name": "B2",
                    "midi": 47,
                    "time": 639.7216320000011,
                    "velocity": 0.4094488188976378,
                    "duration": 0.4345935000000054
                },
                {
                    "name": "G2",
                    "midi": 43,
                    "time": 640.1562255000011,
                    "velocity": 0.33858267716535434,
                    "duration": 0.4345935000000054
                },
                {
                    "name": "G3",
                    "midi": 55,
                    "time": 640.1562255000011,
                    "velocity": 0.4094488188976378,
                    "duration": 0.4345935000000054
                },
                {
                    "name": "C4",
                    "midi": 60,
                    "time": 640.5908190000011,
                    "velocity": 0.41732283464566927,
                    "duration": 0.4345935000000054
                },
                {
                    "name": "C3",
                    "midi": 48,
                    "time": 640.5908190000011,
                    "velocity": 0.33858267716535434,
                    "duration": 0.4345935000000054
                },
                {
                    "name": "B3",
                    "midi": 59,
                    "time": 641.0254125000012,
                    "velocity": 0.49606299212598426,
                    "duration": 0.4345935000000054
                },
                {
                    "name": "B2",
                    "midi": 47,
                    "time": 641.0254125000012,
                    "velocity": 0.4251968503937008,
                    "duration": 0.4345935000000054
                },
                {
                    "name": "G3",
                    "midi": 55,
                    "time": 641.4600060000012,
                    "velocity": 0.4330708661417323,
                    "duration": 0.4345935000000054
                },
                {
                    "name": "G2",
                    "midi": 43,
                    "time": 641.4600060000012,
                    "velocity": 0.36220472440944884,
                    "duration": 0.4345935000000054
                },
                {
                    "name": "D4",
                    "midi": 62,
                    "time": 641.8945995000012,
                    "velocity": 0.4330708661417323,
                    "duration": 0.4345935000000054
                },
                {
                    "name": "D3",
                    "midi": 50,
                    "time": 641.8945995000012,
                    "velocity": 0.3700787401574803,
                    "duration": 0.4345935000000054
                },
                {
                    "name": "C#3",
                    "midi": 49,
                    "time": 642.3291930000012,
                    "velocity": 0.4409448818897638,
                    "duration": 0.4345935000000054
                },
                {
                    "name": "C#4",
                    "midi": 61,
                    "time": 642.3291930000012,
                    "velocity": 0.5354330708661418,
                    "duration": 0.4345935000000054
                },
                {
                    "name": "A2",
                    "midi": 45,
                    "time": 642.7637865000012,
                    "velocity": 0.3779527559055118,
                    "duration": 0.4345935000000054
                },
                {
                    "name": "A3",
                    "midi": 57,
                    "time": 642.7637865000012,
                    "velocity": 0.44881889763779526,
                    "duration": 0.4345935000000054
                },
                {
                    "name": "E3",
                    "midi": 52,
                    "time": 643.1983800000012,
                    "velocity": 0.4881889763779528,
                    "duration": 0.4345935000000054
                },
                {
                    "name": "E4",
                    "midi": 64,
                    "time": 643.1983800000012,
                    "velocity": 0.5905511811023622,
                    "duration": 0.4345935000000054
                },
                {
                    "name": "D#3",
                    "midi": 51,
                    "time": 643.6329735000012,
                    "velocity": 0.3937007874015748,
                    "duration": 0.4345935000000054
                },
                {
                    "name": "D#4",
                    "midi": 63,
                    "time": 643.6329735000012,
                    "velocity": 0.4645669291338583,
                    "duration": 0.4345935000000054
                },
                {
                    "name": "B2",
                    "midi": 47,
                    "time": 644.0675670000012,
                    "velocity": 0.47244094488188976,
                    "duration": 0.4345934999998917
                },
                {
                    "name": "B3",
                    "midi": 59,
                    "time": 644.0675670000012,
                    "velocity": 0.5826771653543307,
                    "duration": 0.4345934999998917
                },
                {
                    "name": "D3",
                    "midi": 50,
                    "time": 644.5021605000011,
                    "velocity": 0.41732283464566927,
                    "duration": 0.4345935000000054
                },
                {
                    "name": "D4",
                    "midi": 62,
                    "time": 644.5021605000011,
                    "velocity": 0.4881889763779528,
                    "duration": 0.4345935000000054
                },
                {
                    "name": "C#2",
                    "midi": 37,
                    "time": 644.9367540000011,
                    "velocity": 0.48031496062992124,
                    "duration": 0.4345935000000054
                },
                {
                    "name": "C#3",
                    "midi": 49,
                    "time": 644.9367540000011,
                    "velocity": 0.5748031496062992,
                    "duration": 0.4345935000000054
                },
                {
                    "name": "C#4",
                    "midi": 61,
                    "time": 645.588644250001,
                    "velocity": 0.3464566929133858,
                    "duration": 0.21729674999994586
                },
                {
                    "name": "A3",
                    "midi": 57,
                    "time": 645.588644250001,
                    "velocity": 0.3464566929133858,
                    "duration": 0.21729674999994586
                },
                {
                    "name": "A4",
                    "midi": 69,
                    "time": 645.588644250001,
                    "velocity": 0.41732283464566927,
                    "duration": 0.21729674999994586
                },
                {
                    "name": "F#4",
                    "midi": 66,
                    "time": 645.588644250001,
                    "velocity": 0.41732283464566927,
                    "duration": 0.21729674999994586
                },
                {
                    "name": "A4",
                    "midi": 69,
                    "time": 645.805941000001,
                    "velocity": 0.4330708661417323,
                    "duration": 0.4345935000000054
                },
                {
                    "name": "F#4",
                    "midi": 66,
                    "time": 645.805941000001,
                    "velocity": 0.4330708661417323,
                    "duration": 0.4345935000000054
                },
                {
                    "name": "C#4",
                    "midi": 61,
                    "time": 645.805941000001,
                    "velocity": 0.36220472440944884,
                    "duration": 0.4345935000000054
                },
                {
                    "name": "A3",
                    "midi": 57,
                    "time": 645.805941000001,
                    "velocity": 0.36220472440944884,
                    "duration": 0.4345935000000054
                },
                {
                    "name": "F#4",
                    "midi": 66,
                    "time": 646.240534500001,
                    "velocity": 0.4409448818897638,
                    "duration": 0.4345935000000054
                },
                {
                    "name": "A4",
                    "midi": 69,
                    "time": 646.240534500001,
                    "velocity": 0.4409448818897638,
                    "duration": 0.4345935000000054
                },
                {
                    "name": "A3",
                    "midi": 57,
                    "time": 646.240534500001,
                    "velocity": 0.3700787401574803,
                    "duration": 0.4345935000000054
                },
                {
                    "name": "C#4",
                    "midi": 61,
                    "time": 646.240534500001,
                    "velocity": 0.3700787401574803,
                    "duration": 0.4345935000000054
                },
                {
                    "name": "A4",
                    "midi": 69,
                    "time": 646.675128000001,
                    "velocity": 0.4566929133858268,
                    "duration": 0.4345935000000054
                },
                {
                    "name": "C#4",
                    "midi": 61,
                    "time": 646.675128000001,
                    "velocity": 0.3858267716535433,
                    "duration": 0.4345935000000054
                },
                {
                    "name": "A3",
                    "midi": 57,
                    "time": 646.675128000001,
                    "velocity": 0.3858267716535433,
                    "duration": 0.4345935000000054
                },
                {
                    "name": "F#4",
                    "midi": 66,
                    "time": 646.675128000001,
                    "velocity": 0.4566929133858268,
                    "duration": 0.4345935000000054
                },
                {
                    "name": "A3",
                    "midi": 57,
                    "time": 647.109721500001,
                    "velocity": 0.3937007874015748,
                    "duration": 0.4345935000000054
                },
                {
                    "name": "F#4",
                    "midi": 66,
                    "time": 647.109721500001,
                    "velocity": 0.4645669291338583,
                    "duration": 0.4345935000000054
                },
                {
                    "name": "A4",
                    "midi": 69,
                    "time": 647.109721500001,
                    "velocity": 0.4645669291338583,
                    "duration": 0.4345935000000054
                },
                {
                    "name": "C#4",
                    "midi": 61,
                    "time": 647.109721500001,
                    "velocity": 0.3937007874015748,
                    "duration": 0.4345935000000054
                },
                {
                    "name": "A3",
                    "midi": 57,
                    "time": 647.544315000001,
                    "velocity": 0.47244094488188976,
                    "duration": 1.3037805000000162
                },
                {
                    "name": "A4",
                    "midi": 69,
                    "time": 647.544315000001,
                    "velocity": 0.5669291338582677,
                    "duration": 1.3037805000000162
                },
                {
                    "name": "C#4",
                    "midi": 61,
                    "time": 647.544315000001,
                    "velocity": 0.47244094488188976,
                    "duration": 1.3037805000000162
                },
                {
                    "name": "F#4",
                    "midi": 66,
                    "time": 647.544315000001,
                    "velocity": 0.5669291338582677,
                    "duration": 1.3037805000000162
                },
                {
                    "name": "C#2",
                    "midi": 37,
                    "time": 649.717282500001,
                    "velocity": 0.4566929133858268,
                    "duration": 0.4345935000000054
                },
                {
                    "name": "C#3",
                    "midi": 49,
                    "time": 649.717282500001,
                    "velocity": 0.5433070866141733,
                    "duration": 0.4345935000000054
                },
                {
                    "name": "C3",
                    "midi": 48,
                    "time": 650.151876000001,
                    "velocity": 0.6771653543307087,
                    "duration": 0.4345935000000054
                },
                {
                    "name": "C2",
                    "midi": 36,
                    "time": 650.151876000001,
                    "velocity": 0.5748031496062992,
                    "duration": 0.4345935000000054
                },
                {
                    "name": "F#3",
                    "midi": 54,
                    "time": 650.803766250001,
                    "velocity": 0.3543307086614173,
                    "duration": 0.21729674999994586
                },
                {
                    "name": "D#4",
                    "midi": 63,
                    "time": 650.803766250001,
                    "velocity": 0.41732283464566927,
                    "duration": 0.21729674999994586
                },
                {
                    "name": "A3",
                    "midi": 57,
                    "time": 650.803766250001,
                    "velocity": 0.3543307086614173,
                    "duration": 0.21729674999994586
                },
                {
                    "name": "D#4",
                    "midi": 63,
                    "time": 651.0210630000009,
                    "velocity": 0.4330708661417323,
                    "duration": 0.4345935000000054
                },
                {
                    "name": "F#3",
                    "midi": 54,
                    "time": 651.0210630000009,
                    "velocity": 0.3700787401574803,
                    "duration": 0.4345935000000054
                },
                {
                    "name": "A3",
                    "midi": 57,
                    "time": 651.0210630000009,
                    "velocity": 0.3700787401574803,
                    "duration": 0.4345935000000054
                },
                {
                    "name": "F#3",
                    "midi": 54,
                    "time": 651.4556565000009,
                    "velocity": 0.4251968503937008,
                    "duration": 0.4345935000000054
                },
                {
                    "name": "A3",
                    "midi": 57,
                    "time": 651.4556565000009,
                    "velocity": 0.4251968503937008,
                    "duration": 0.4345935000000054
                },
                {
                    "name": "D#4",
                    "midi": 63,
                    "time": 651.4556565000009,
                    "velocity": 0.5118110236220472,
                    "duration": 0.4345935000000054
                },
                {
                    "name": "C2",
                    "midi": 36,
                    "time": 652.324843500001,
                    "velocity": 0.47244094488188976,
                    "duration": 0.4345935000000054
                },
                {
                    "name": "C3",
                    "midi": 48,
                    "time": 652.324843500001,
                    "velocity": 0.5669291338582677,
                    "duration": 0.4345935000000054
                },
                {
                    "name": "B1",
                    "midi": 35,
                    "time": 652.759437000001,
                    "velocity": 0.5826771653543307,
                    "duration": 0.4345935000000054
                },
                {
                    "name": "B2",
                    "midi": 47,
                    "time": 652.759437000001,
                    "velocity": 0.6929133858267716,
                    "duration": 0.4345935000000054
                },
                {
                    "name": "D#4",
                    "midi": 63,
                    "time": 653.4113272500009,
                    "velocity": 0.4645669291338583,
                    "duration": 0.21729674999994586
                },
                {
                    "name": "F#3",
                    "midi": 54,
                    "time": 653.4113272500009,
                    "velocity": 0.3937007874015748,
                    "duration": 0.21729674999994586
                },
                {
                    "name": "A3",
                    "midi": 57,
                    "time": 653.4113272500009,
                    "velocity": 0.3937007874015748,
                    "duration": 0.21729674999994586
                },
                {
                    "name": "D#4",
                    "midi": 63,
                    "time": 653.6286240000009,
                    "velocity": 0.4566929133858268,
                    "duration": 0.4345935000000054
                },
                {
                    "name": "F#3",
                    "midi": 54,
                    "time": 653.6286240000009,
                    "velocity": 0.3858267716535433,
                    "duration": 0.4345935000000054
                },
                {
                    "name": "A3",
                    "midi": 57,
                    "time": 653.6286240000009,
                    "velocity": 0.3858267716535433,
                    "duration": 0.4345935000000054
                },
                {
                    "name": "A3",
                    "midi": 57,
                    "time": 654.0632175000009,
                    "velocity": 0.3779527559055118,
                    "duration": 0.4345935000000054
                },
                {
                    "name": "F#3",
                    "midi": 54,
                    "time": 654.0632175000009,
                    "velocity": 0.3779527559055118,
                    "duration": 0.4345935000000054
                },
                {
                    "name": "D#4",
                    "midi": 63,
                    "time": 654.0632175000009,
                    "velocity": 0.44881889763779526,
                    "duration": 0.4345935000000054
                },
                {
                    "name": "B2",
                    "midi": 47,
                    "time": 654.9324045000009,
                    "velocity": 0.5669291338582677,
                    "duration": 0.4345935000000054
                },
                {
                    "name": "B1",
                    "midi": 35,
                    "time": 654.9324045000009,
                    "velocity": 0.47244094488188976,
                    "duration": 0.4345935000000054
                },
                {
                    "name": "A#2",
                    "midi": 46,
                    "time": 655.3669980000009,
                    "velocity": 0.6929133858267716,
                    "duration": 0.4345935000000054
                },
                {
                    "name": "A#1",
                    "midi": 34,
                    "time": 655.3669980000009,
                    "velocity": 0.5826771653543307,
                    "duration": 0.4345935000000054
                },
                {
                    "name": "D#4",
                    "midi": 63,
                    "time": 657.1053720000009,
                    "velocity": 0.3464566929133858,
                    "duration": 0.4345935000000054
                },
                {
                    "name": "A3",
                    "midi": 57,
                    "time": 657.1053720000009,
                    "velocity": 0.3464566929133858,
                    "duration": 0.4345935000000054
                },
                {
                    "name": "C4",
                    "midi": 60,
                    "time": 657.1053720000009,
                    "velocity": 0.3464566929133858,
                    "duration": 0.4345935000000054
                },
                {
                    "name": "A#3",
                    "midi": 58,
                    "time": 657.5399655000009,
                    "velocity": 0.33858267716535434,
                    "duration": 0.4345935000000054
                },
                {
                    "name": "D4",
                    "midi": 62,
                    "time": 657.5399655000009,
                    "velocity": 0.33858267716535434,
                    "duration": 0.4345935000000054
                },
                {
                    "name": "G#3",
                    "midi": 56,
                    "time": 657.5399655000009,
                    "velocity": 0.33858267716535434,
                    "duration": 0.4345935000000054
                },
                {
                    "name": "A#3",
                    "midi": 58,
                    "time": 657.9745590000009,
                    "velocity": 0.3700787401574803,
                    "duration": 0.4345935000000054
                },
                {
                    "name": "G3",
                    "midi": 55,
                    "time": 657.9745590000009,
                    "velocity": 0.3700787401574803,
                    "duration": 0.4345935000000054
                },
                {
                    "name": "D#4",
                    "midi": 63,
                    "time": 657.9745590000009,
                    "velocity": 0.3700787401574803,
                    "duration": 0.4345935000000054
                },
                {
                    "name": "A4",
                    "midi": 69,
                    "time": 659.7129330000009,
                    "velocity": 0.36220472440944884,
                    "duration": 0.4345935000000054
                },
                {
                    "name": "C5",
                    "midi": 72,
                    "time": 659.7129330000009,
                    "velocity": 0.36220472440944884,
                    "duration": 0.4345935000000054
                },
                {
                    "name": "D#5",
                    "midi": 75,
                    "time": 659.7129330000009,
                    "velocity": 0.36220472440944884,
                    "duration": 0.4345935000000054
                },
                {
                    "name": "A#4",
                    "midi": 70,
                    "time": 660.1475265000009,
                    "velocity": 0.36220472440944884,
                    "duration": 0.4345935000000054
                },
                {
                    "name": "D5",
                    "midi": 74,
                    "time": 660.1475265000009,
                    "velocity": 0.36220472440944884,
                    "duration": 0.4345935000000054
                },
                {
                    "name": "G#4",
                    "midi": 68,
                    "time": 660.1475265000009,
                    "velocity": 0.36220472440944884,
                    "duration": 0.4345935000000054
                },
                {
                    "name": "G4",
                    "midi": 67,
                    "time": 660.5821200000009,
                    "velocity": 0.36220472440944884,
                    "duration": 0.4345935000000054
                },
                {
                    "name": "D#5",
                    "midi": 75,
                    "time": 660.5821200000009,
                    "velocity": 0.36220472440944884,
                    "duration": 0.4345935000000054
                },
                {
                    "name": "A#4",
                    "midi": 70,
                    "time": 660.5821200000009,
                    "velocity": 0.36220472440944884,
                    "duration": 0.4345935000000054
                },
                {
                    "name": "D#6",
                    "midi": 87,
                    "time": 662.320494000001,
                    "velocity": 0.4409448818897638,
                    "duration": 0.4345935000000054
                },
                {
                    "name": "A5",
                    "midi": 81,
                    "time": 662.320494000001,
                    "velocity": 0.4409448818897638,
                    "duration": 0.4345935000000054
                },
                {
                    "name": "C6",
                    "midi": 84,
                    "time": 662.320494000001,
                    "velocity": 0.4409448818897638,
                    "duration": 0.4345935000000054
                },
                {
                    "name": "A#5",
                    "midi": 82,
                    "time": 662.755087500001,
                    "velocity": 0.4409448818897638,
                    "duration": 0.4345935000000054
                },
                {
                    "name": "G#5",
                    "midi": 80,
                    "time": 662.755087500001,
                    "velocity": 0.4409448818897638,
                    "duration": 0.4345935000000054
                },
                {
                    "name": "D6",
                    "midi": 86,
                    "time": 662.755087500001,
                    "velocity": 0.4409448818897638,
                    "duration": 0.4345935000000054
                },
                {
                    "name": "A#5",
                    "midi": 82,
                    "time": 663.189681000001,
                    "velocity": 0.44881889763779526,
                    "duration": 0.4345935000000054
                },
                {
                    "name": "G5",
                    "midi": 79,
                    "time": 663.189681000001,
                    "velocity": 0.44881889763779526,
                    "duration": 0.4345935000000054
                },
                {
                    "name": "D#6",
                    "midi": 87,
                    "time": 663.189681000001,
                    "velocity": 0.44881889763779526,
                    "duration": 0.4345935000000054
                },
                {
                    "name": "A5",
                    "midi": 81,
                    "time": 664.928055000001,
                    "velocity": 0.4566929133858268,
                    "duration": 0.4345935000000054
                },
                {
                    "name": "C6",
                    "midi": 84,
                    "time": 664.928055000001,
                    "velocity": 0.4566929133858268,
                    "duration": 0.4345935000000054
                },
                {
                    "name": "D#6",
                    "midi": 87,
                    "time": 664.928055000001,
                    "velocity": 0.4566929133858268,
                    "duration": 0.4345935000000054
                },
                {
                    "name": "A#5",
                    "midi": 82,
                    "time": 665.362648500001,
                    "velocity": 0.4566929133858268,
                    "duration": 0.4345935000000054
                },
                {
                    "name": "G#5",
                    "midi": 80,
                    "time": 665.362648500001,
                    "velocity": 0.4566929133858268,
                    "duration": 0.4345935000000054
                },
                {
                    "name": "D6",
                    "midi": 86,
                    "time": 665.362648500001,
                    "velocity": 0.4566929133858268,
                    "duration": 0.4345935000000054
                },
                {
                    "name": "A#5",
                    "midi": 82,
                    "time": 665.797242000001,
                    "velocity": 0.4645669291338583,
                    "duration": 0.4345935000000054
                },
                {
                    "name": "D#6",
                    "midi": 87,
                    "time": 665.797242000001,
                    "velocity": 0.4645669291338583,
                    "duration": 0.4345935000000054
                },
                {
                    "name": "G5",
                    "midi": 79,
                    "time": 665.797242000001,
                    "velocity": 0.4645669291338583,
                    "duration": 0.4345935000000054
                },
                {
                    "name": "A4",
                    "midi": 69,
                    "time": 667.101022500001,
                    "velocity": 0.5669291338582677,
                    "duration": 0.4345935000000054
                },
                {
                    "name": "C4",
                    "midi": 60,
                    "time": 667.101022500001,
                    "velocity": 0.5669291338582677,
                    "duration": 0.4345935000000054
                },
                {
                    "name": "D#4",
                    "midi": 63,
                    "time": 667.101022500001,
                    "velocity": 0.5669291338582677,
                    "duration": 0.4345935000000054
                },
                {
                    "name": "F4",
                    "midi": 65,
                    "time": 667.101022500001,
                    "velocity": 0.5669291338582677,
                    "duration": 0.4345935000000054
                },
                {
                    "name": "B2",
                    "midi": 47,
                    "time": 670.8493914375011,
                    "velocity": 0.5433070866141733,
                    "duration": 0.5975660625000501
                },
                {
                    "name": "D#3",
                    "midi": 51,
                    "time": 670.9037156250012,
                    "velocity": 0.5748031496062992,
                    "duration": 0.5432418750000352
                },
                {
                    "name": "G#3",
                    "midi": 56,
                    "time": 670.9580398125012,
                    "velocity": 0.6062992125984252,
                    "duration": 0.4889176875000203
                },
                {
                    "name": "D#4",
                    "midi": 63,
                    "time": 671.0123640000012,
                    "velocity": 0.6299212598425197,
                    "duration": 0.4345935000000054
                },
                {
                    "name": "B1",
                    "midi": 35,
                    "time": 673.6199250000011,
                    "velocity": 0.7165354330708661,
                    "duration": 0.4345935000000054
                },
                {
                    "name": "A#1",
                    "midi": 34,
                    "time": 676.2274860000011,
                    "velocity": 0.6299212598425197,
                    "duration": 0.4345935000000054
                },
                {
                    "name": "F2",
                    "midi": 41,
                    "time": 676.6620795000011,
                    "velocity": 0.4330708661417323,
                    "duration": 0.4345935000000054
                },
                {
                    "name": "A#2",
                    "midi": 46,
                    "time": 677.0966730000011,
                    "velocity": 0.4330708661417323,
                    "duration": 0.4345935000000054
                },
                {
                    "name": "D3",
                    "midi": 50,
                    "time": 677.5312665000012,
                    "velocity": 0.4330708661417323,
                    "duration": 0.4345935000000054
                },
                {
                    "name": "A#2",
                    "midi": 46,
                    "time": 677.9658600000012,
                    "velocity": 0.4330708661417323,
                    "duration": 0.4345935000000054
                },
                {
                    "name": "F2",
                    "midi": 41,
                    "time": 678.4004535000012,
                    "velocity": 0.4330708661417323,
                    "duration": 0.4345935000000054
                },
                {
                    "name": "A#1",
                    "midi": 34,
                    "time": 678.8350470000012,
                    "velocity": 0.5196850393700787,
                    "duration": 0.4345935000000054
                },
                {
                    "name": "F2",
                    "midi": 41,
                    "time": 679.2696405000012,
                    "velocity": 0.4330708661417323,
                    "duration": 0.4345935000000054
                },
                {
                    "name": "A#2",
                    "midi": 46,
                    "time": 679.7042340000012,
                    "velocity": 0.4330708661417323,
                    "duration": 0.4345935000000054
                },
                {
                    "name": "F3",
                    "midi": 53,
                    "time": 680.1388275000012,
                    "velocity": 0.4330708661417323,
                    "duration": 0.4345935000000054
                },
                {
                    "name": "A#2",
                    "midi": 46,
                    "time": 680.5734210000012,
                    "velocity": 0.4330708661417323,
                    "duration": 0.4345935000000054
                },
                {
                    "name": "F2",
                    "midi": 41,
                    "time": 681.0080145000012,
                    "velocity": 0.4330708661417323,
                    "duration": 0.4345935000000054
                },
                {
                    "name": "D#2",
                    "midi": 39,
                    "time": 681.4426080000012,
                    "velocity": 0.47244094488188976,
                    "duration": 0.4345935000000054
                },
                {
                    "name": "A#2",
                    "midi": 46,
                    "time": 681.8772015000012,
                    "velocity": 0.4251968503937008,
                    "duration": 0.4345935000000054
                },
                {
                    "name": "D#3",
                    "midi": 51,
                    "time": 682.3117950000012,
                    "velocity": 0.4251968503937008,
                    "duration": 0.4345935000000054
                },
                {
                    "name": "G3",
                    "midi": 55,
                    "time": 682.7463885000012,
                    "velocity": 0.4251968503937008,
                    "duration": 0.4345935000000054
                },
                {
                    "name": "D#3",
                    "midi": 51,
                    "time": 683.1809820000012,
                    "velocity": 0.4251968503937008,
                    "duration": 0.4345935000000054
                },
                {
                    "name": "A#2",
                    "midi": 46,
                    "time": 683.6155755000012,
                    "velocity": 0.41732283464566927,
                    "duration": 0.4345935000000054
                },
                {
                    "name": "D#2",
                    "midi": 39,
                    "time": 684.0501690000012,
                    "velocity": 0.47244094488188976,
                    "duration": 0.4345935000000054
                },
                {
                    "name": "C3",
                    "midi": 48,
                    "time": 684.4847625000012,
                    "velocity": 0.41732283464566927,
                    "duration": 0.4345935000000054
                },
                {
                    "name": "D#3",
                    "midi": 51,
                    "time": 684.9193560000012,
                    "velocity": 0.41732283464566927,
                    "duration": 0.4345935000000054
                },
                {
                    "name": "A#3",
                    "midi": 58,
                    "time": 685.3539495000012,
                    "velocity": 0.41732283464566927,
                    "duration": 0.4345935000000054
                },
                {
                    "name": "D#3",
                    "midi": 51,
                    "time": 685.7885430000013,
                    "velocity": 0.41732283464566927,
                    "duration": 0.4345935000000054
                },
                {
                    "name": "C3",
                    "midi": 48,
                    "time": 686.2231365000013,
                    "velocity": 0.41732283464566927,
                    "duration": 0.4345935000000054
                },
                {
                    "name": "F2",
                    "midi": 41,
                    "time": 686.6577300000013,
                    "velocity": 0.47244094488188976,
                    "duration": 0.4345935000001191
                },
                {
                    "name": "C3",
                    "midi": 48,
                    "time": 687.0923235000014,
                    "velocity": 0.4094488188976378,
                    "duration": 0.4345935000000054
                },
                {
                    "name": "D#3",
                    "midi": 51,
                    "time": 687.5269170000014,
                    "velocity": 0.4094488188976378,
                    "duration": 0.4345935000000054
                },
                {
                    "name": "A#3",
                    "midi": 58,
                    "time": 687.9615105000014,
                    "velocity": 0.41732283464566927,
                    "duration": 0.4345935000000054
                },
                {
                    "name": "D#3",
                    "midi": 51,
                    "time": 688.3961040000014,
                    "velocity": 0.41732283464566927,
                    "duration": 0.4345935000000054
                },
                {
                    "name": "C3",
                    "midi": 48,
                    "time": 688.8306975000014,
                    "velocity": 0.41732283464566927,
                    "duration": 0.4345935000000054
                },
                {
                    "name": "F2",
                    "midi": 41,
                    "time": 689.2652910000014,
                    "velocity": 0.47244094488188976,
                    "duration": 0.4345935000000054
                },
                {
                    "name": "C3",
                    "midi": 48,
                    "time": 689.6998845000014,
                    "velocity": 0.41732283464566927,
                    "duration": 0.4345935000000054
                },
                {
                    "name": "D#3",
                    "midi": 51,
                    "time": 690.1344780000014,
                    "velocity": 0.41732283464566927,
                    "duration": 0.4345935000000054
                },
                {
                    "name": "A3",
                    "midi": 57,
                    "time": 690.5690715000014,
                    "velocity": 0.4251968503937008,
                    "duration": 0.4345935000000054
                },
                {
                    "name": "D#3",
                    "midi": 51,
                    "time": 691.0036650000014,
                    "velocity": 0.4251968503937008,
                    "duration": 0.4345935000000054
                },
                {
                    "name": "C3",
                    "midi": 48,
                    "time": 691.4382585000014,
                    "velocity": 0.4251968503937008,
                    "duration": 0.4345935000000054
                },
                {
                    "name": "A#2",
                    "midi": 46,
                    "time": 691.8728520000014,
                    "velocity": 0.4645669291338583,
                    "duration": 0.4345935000000054
                },
                {
                    "name": "F3",
                    "midi": 53,
                    "time": 692.3074455000014,
                    "velocity": 0.4015748031496063,
                    "duration": 0.4345935000000054
                },
                {
                    "name": "A#3",
                    "midi": 58,
                    "time": 692.7420390000015,
                    "velocity": 0.4015748031496063,
                    "duration": 0.4345935000000054
                },
                {
                    "name": "D4",
                    "midi": 62,
                    "time": 693.1766325000015,
                    "velocity": 0.4015748031496063,
                    "duration": 0.4345935000000054
                },
                {
                    "name": "A#3",
                    "midi": 58,
                    "time": 693.6112260000015,
                    "velocity": 0.4015748031496063,
                    "duration": 0.4345935000000054
                },
                {
                    "name": "F3",
                    "midi": 53,
                    "time": 694.0458195000015,
                    "velocity": 0.4015748031496063,
                    "duration": 0.4345935000000054
                },
                {
                    "name": "A#2",
                    "midi": 46,
                    "time": 694.4804130000015,
                    "velocity": 0.4251968503937008,
                    "duration": 0.4345935000000054
                },
                {
                    "name": "F3",
                    "midi": 53,
                    "time": 694.9150065000015,
                    "velocity": 0.4015748031496063,
                    "duration": 0.4345935000000054
                },
                {
                    "name": "A#3",
                    "midi": 58,
                    "time": 695.3496000000015,
                    "velocity": 0.4015748031496063,
                    "duration": 0.4345935000000054
                },
                {
                    "name": "F4",
                    "midi": 65,
                    "time": 695.7841935000015,
                    "velocity": 0.4015748031496063,
                    "duration": 0.4345935000000054
                },
                {
                    "name": "A#3",
                    "midi": 58,
                    "time": 696.2187870000015,
                    "velocity": 0.4015748031496063,
                    "duration": 0.4345935000000054
                },
                {
                    "name": "F3",
                    "midi": 53,
                    "time": 696.6533805000015,
                    "velocity": 0.4015748031496063,
                    "duration": 0.4345935000000054
                },
                {
                    "name": "A#2",
                    "midi": 46,
                    "time": 697.0879740000015,
                    "velocity": 0.4566929133858268,
                    "duration": 0.4345935000000054
                },
                {
                    "name": "G3",
                    "midi": 55,
                    "time": 697.5225675000015,
                    "velocity": 0.3700787401574803,
                    "duration": 0.4345935000000054
                },
                {
                    "name": "C4",
                    "midi": 60,
                    "time": 697.9571610000015,
                    "velocity": 0.3779527559055118,
                    "duration": 0.4345935000000054
                },
                {
                    "name": "E4",
                    "midi": 64,
                    "time": 698.3917545000015,
                    "velocity": 0.3937007874015748,
                    "duration": 0.4345935000000054
                },
                {
                    "name": "C4",
                    "midi": 60,
                    "time": 698.8263480000015,
                    "velocity": 0.4015748031496063,
                    "duration": 0.4345935000000054
                },
                {
                    "name": "G3",
                    "midi": 55,
                    "time": 699.2609415000015,
                    "velocity": 0.41732283464566927,
                    "duration": 0.4345935000000054
                },
                {
                    "name": "A#2",
                    "midi": 46,
                    "time": 699.6955350000015,
                    "velocity": 0.4251968503937008,
                    "duration": 0.4345935000000054
                },
                {
                    "name": "G#3",
                    "midi": 56,
                    "time": 700.1301285000015,
                    "velocity": 0.4015748031496063,
                    "duration": 0.4345935000000054
                },
                {
                    "name": "C4",
                    "midi": 60,
                    "time": 700.5647220000016,
                    "velocity": 0.4015748031496063,
                    "duration": 0.4345935000000054
                },
                {
                    "name": "F4",
                    "midi": 65,
                    "time": 700.9993155000016,
                    "velocity": 0.4015748031496063,
                    "duration": 0.4345935000000054
                },
                {
                    "name": "C4",
                    "midi": 60,
                    "time": 701.4339090000016,
                    "velocity": 0.4015748031496063,
                    "duration": 0.4345935000000054
                },
                {
                    "name": "G#3",
                    "midi": 56,
                    "time": 701.8685025000016,
                    "velocity": 0.4015748031496063,
                    "duration": 0.4345935000000054
                },
                {
                    "name": "A#2",
                    "midi": 46,
                    "time": 702.3030960000016,
                    "velocity": 0.4566929133858268,
                    "duration": 0.4345935000000054
                },
                {
                    "name": "F3",
                    "midi": 53,
                    "time": 702.7376895000016,
                    "velocity": 0.3700787401574803,
                    "duration": 0.4345935000000054
                },
                {
                    "name": "G#3",
                    "midi": 56,
                    "time": 703.1722830000016,
                    "velocity": 0.3779527559055118,
                    "duration": 0.4345935000000054
                },
                {
                    "name": "D4",
                    "midi": 62,
                    "time": 703.6068765000016,
                    "velocity": 0.3937007874015748,
                    "duration": 0.4345935000000054
                },
                {
                    "name": "G#3",
                    "midi": 56,
                    "time": 704.0414700000016,
                    "velocity": 0.4015748031496063,
                    "duration": 0.4345935000000054
                },
                {
                    "name": "F3",
                    "midi": 53,
                    "time": 704.4760635000016,
                    "velocity": 0.41732283464566927,
                    "duration": 0.4345935000000054
                },
                {
                    "name": "A#2",
                    "midi": 46,
                    "time": 704.9106570000016,
                    "velocity": 0.4251968503937008,
                    "duration": 0.4345935000000054
                },
                {
                    "name": "D#3",
                    "midi": 51,
                    "time": 705.3452505000016,
                    "velocity": 0.4015748031496063,
                    "duration": 0.4345935000000054
                },
                {
                    "name": "G3",
                    "midi": 55,
                    "time": 705.7798440000016,
                    "velocity": 0.4015748031496063,
                    "duration": 0.4345935000000054
                },
                {
                    "name": "D#4",
                    "midi": 63,
                    "time": 706.2144375000016,
                    "velocity": 0.4015748031496063,
                    "duration": 0.4345935000000054
                },
                {
                    "name": "G3",
                    "midi": 55,
                    "time": 706.6490310000016,
                    "velocity": 0.4015748031496063,
                    "duration": 0.4345935000000054
                },
                {
                    "name": "D#3",
                    "midi": 51,
                    "time": 707.0836245000016,
                    "velocity": 0.4015748031496063,
                    "duration": 0.4345935000000054
                },
                {
                    "name": "A#2",
                    "midi": 46,
                    "time": 707.5182180000016,
                    "velocity": 0.4566929133858268,
                    "duration": 0.4345935000000054
                },
                {
                    "name": "D#3",
                    "midi": 51,
                    "time": 707.9528115000016,
                    "velocity": 0.3700787401574803,
                    "duration": 0.4345935000000054
                },
                {
                    "name": "G#3",
                    "midi": 56,
                    "time": 708.3874050000016,
                    "velocity": 0.3779527559055118,
                    "duration": 0.4345935000000054
                },
                {
                    "name": "C4",
                    "midi": 60,
                    "time": 708.8219985000017,
                    "velocity": 0.3937007874015748,
                    "duration": 0.4345935000000054
                },
                {
                    "name": "G#3",
                    "midi": 56,
                    "time": 709.2565920000017,
                    "velocity": 0.4015748031496063,
                    "duration": 0.4345935000000054
                },
                {
                    "name": "D#3",
                    "midi": 51,
                    "time": 709.6911855000017,
                    "velocity": 0.41732283464566927,
                    "duration": 0.4345935000000054
                },
                {
                    "name": "A#2",
                    "midi": 46,
                    "time": 710.1257790000017,
                    "velocity": 0.4251968503937008,
                    "duration": 0.4345935000000054
                },
                {
                    "name": "F3",
                    "midi": 53,
                    "time": 710.5603725000017,
                    "velocity": 0.4015748031496063,
                    "duration": 0.4345935000000054
                },
                {
                    "name": "G#3",
                    "midi": 56,
                    "time": 710.9949660000017,
                    "velocity": 0.4015748031496063,
                    "duration": 0.4345935000000054
                },
                {
                    "name": "D4",
                    "midi": 62,
                    "time": 711.4295595000017,
                    "velocity": 0.4015748031496063,
                    "duration": 0.4345935000000054
                },
                {
                    "name": "G#3",
                    "midi": 56,
                    "time": 711.8641530000017,
                    "velocity": 0.4015748031496063,
                    "duration": 0.4345935000000054
                },
                {
                    "name": "F3",
                    "midi": 53,
                    "time": 712.2987465000017,
                    "velocity": 0.4015748031496063,
                    "duration": 0.4345935000000054
                },
                {
                    "name": "B2",
                    "midi": 47,
                    "time": 712.7333400000017,
                    "velocity": 0.4251968503937008,
                    "duration": 0.4345935000000054
                },
                {
                    "name": "F3",
                    "midi": 53,
                    "time": 713.1679335000017,
                    "velocity": 0.3779527559055118,
                    "duration": 0.4345935000000054
                },
                {
                    "name": "G3",
                    "midi": 55,
                    "time": 713.6025270000017,
                    "velocity": 0.3779527559055118,
                    "duration": 0.4345935000000054
                },
                {
                    "name": "D4",
                    "midi": 62,
                    "time": 714.0371205000017,
                    "velocity": 0.3779527559055118,
                    "duration": 0.4345935000000054
                },
                {
                    "name": "G3",
                    "midi": 55,
                    "time": 714.4717140000017,
                    "velocity": 0.3779527559055118,
                    "duration": 0.4345935000000054
                },
                {
                    "name": "F3",
                    "midi": 53,
                    "time": 714.9063075000017,
                    "velocity": 0.3779527559055118,
                    "duration": 0.4345935000000054
                },
                {
                    "name": "C3",
                    "midi": 48,
                    "time": 715.3409010000017,
                    "velocity": 0.4251968503937008,
                    "duration": 0.4345935000000054
                },
                {
                    "name": "D#3",
                    "midi": 51,
                    "time": 715.7754945000017,
                    "velocity": 0.36220472440944884,
                    "duration": 0.4345935000000054
                },
                {
                    "name": "G3",
                    "midi": 55,
                    "time": 716.2100880000017,
                    "velocity": 0.3779527559055118,
                    "duration": 0.4345935000000054
                },
                {
                    "name": "D#4",
                    "midi": 63,
                    "time": 716.6446815000018,
                    "velocity": 0.4015748031496063,
                    "duration": 0.4345935000000054
                },
                {
                    "name": "F#3",
                    "midi": 54,
                    "time": 717.0792750000018,
                    "velocity": 0.41732283464566927,
                    "duration": 0.4345935000000054
                },
                {
                    "name": "D#3",
                    "midi": 51,
                    "time": 717.5138685000018,
                    "velocity": 0.3858267716535433,
                    "duration": 0.4345935000000054
                },
                {
                    "name": "D3",
                    "midi": 50,
                    "time": 717.9484620000018,
                    "velocity": 0.6299212598425197,
                    "duration": 0.4345935000000054
                },
                {
                    "name": "G#3",
                    "midi": 56,
                    "time": 718.3830555000018,
                    "velocity": 0.4330708661417323,
                    "duration": 0.4345935000000054
                },
                {
                    "name": "A#3",
                    "midi": 58,
                    "time": 718.8176490000018,
                    "velocity": 0.4330708661417323,
                    "duration": 0.4345935000000054
                },
                {
                    "name": "F4",
                    "midi": 65,
                    "time": 719.2522425000018,
                    "velocity": 0.4330708661417323,
                    "duration": 0.4345935000000054
                },
                {
                    "name": "A#3",
                    "midi": 58,
                    "time": 719.6868360000018,
                    "velocity": 0.4330708661417323,
                    "duration": 0.4345935000000054
                },
                {
                    "name": "G#3",
                    "midi": 56,
                    "time": 720.1214295000018,
                    "velocity": 0.4330708661417323,
                    "duration": 0.4345935000000054
                },
                {
                    "name": "A#2",
                    "midi": 46,
                    "time": 720.5560230000018,
                    "velocity": 0.5196850393700787,
                    "duration": 0.4345935000000054
                },
                {
                    "name": "F3",
                    "midi": 53,
                    "time": 720.9906165000018,
                    "velocity": 0.4330708661417323,
                    "duration": 0.4345935000000054
                },
                {
                    "name": "A#3",
                    "midi": 58,
                    "time": 721.4252100000018,
                    "velocity": 0.4330708661417323,
                    "duration": 0.4345935000000054
                },
                {
                    "name": "D4",
                    "midi": 62,
                    "time": 721.8598035000018,
                    "velocity": 0.4330708661417323,
                    "duration": 0.4345935000000054
                },
                {
                    "name": "A#3",
                    "midi": 58,
                    "time": 722.2943970000018,
                    "velocity": 0.4330708661417323,
                    "duration": 0.4345935000000054
                },
                {
                    "name": "F3",
                    "midi": 53,
                    "time": 722.7289905000018,
                    "velocity": 0.4330708661417323,
                    "duration": 0.4345935000000054
                },
                {
                    "name": "D#2",
                    "midi": 39,
                    "time": 723.1635840000018,
                    "velocity": 0.47244094488188976,
                    "duration": 0.4345935000001191
                },
                {
                    "name": "A#2",
                    "midi": 46,
                    "time": 723.598177500002,
                    "velocity": 0.4251968503937008,
                    "duration": 0.4345935000000054
                },
                {
                    "name": "D#3",
                    "midi": 51,
                    "time": 724.032771000002,
                    "velocity": 0.4251968503937008,
                    "duration": 0.4345935000000054
                },
                {
                    "name": "G3",
                    "midi": 55,
                    "time": 724.467364500002,
                    "velocity": 0.4251968503937008,
                    "duration": 0.4345935000000054
                },
                {
                    "name": "A#3",
                    "midi": 58,
                    "time": 724.901958000002,
                    "velocity": 0.4251968503937008,
                    "duration": 0.4345935000000054
                },
                {
                    "name": "D#4",
                    "midi": 63,
                    "time": 725.336551500002,
                    "velocity": 0.41732283464566927,
                    "duration": 0.4345935000000054
                },
                {
                    "name": "G4",
                    "midi": 67,
                    "time": 725.771145000002,
                    "velocity": 0.47244094488188976,
                    "duration": 0.4345935000000054
                },
                {
                    "name": "D#4",
                    "midi": 63,
                    "time": 726.205738500002,
                    "velocity": 0.41732283464566927,
                    "duration": 0.4345935000000054
                },
                {
                    "name": "A#3",
                    "midi": 58,
                    "time": 726.640332000002,
                    "velocity": 0.41732283464566927,
                    "duration": 0.4345935000000054
                },
                {
                    "name": "G3",
                    "midi": 55,
                    "time": 727.074925500002,
                    "velocity": 0.41732283464566927,
                    "duration": 0.4345935000000054
                },
                {
                    "name": "D#3",
                    "midi": 51,
                    "time": 727.509519000002,
                    "velocity": 0.41732283464566927,
                    "duration": 0.4345935000000054
                },
                {
                    "name": "A#2",
                    "midi": 46,
                    "time": 727.944112500002,
                    "velocity": 0.41732283464566927,
                    "duration": 0.4345935000000054
                },
                {
                    "name": "F2",
                    "midi": 41,
                    "time": 728.378706000002,
                    "velocity": 0.47244094488188976,
                    "duration": 0.4345935000001191
                },
                {
                    "name": "C3",
                    "midi": 48,
                    "time": 728.8132995000021,
                    "velocity": 0.4094488188976378,
                    "duration": 0.4345935000000054
                },
                {
                    "name": "D#3",
                    "midi": 51,
                    "time": 729.2478930000021,
                    "velocity": 0.4094488188976378,
                    "duration": 0.4345935000000054
                },
                {
                    "name": "A#3",
                    "midi": 58,
                    "time": 729.6824865000021,
                    "velocity": 0.41732283464566927,
                    "duration": 0.4345935000000054
                },
                {
                    "name": "D#3",
                    "midi": 51,
                    "time": 730.1170800000021,
                    "velocity": 0.41732283464566927,
                    "duration": 0.4345935000000054
                },
                {
                    "name": "C3",
                    "midi": 48,
                    "time": 730.5516735000022,
                    "velocity": 0.41732283464566927,
                    "duration": 0.4345935000000054
                },
                {
                    "name": "F2",
                    "midi": 41,
                    "time": 730.9862670000022,
                    "velocity": 0.47244094488188976,
                    "duration": 0.4345935000000054
                },
                {
                    "name": "C3",
                    "midi": 48,
                    "time": 731.4208605000022,
                    "velocity": 0.41732283464566927,
                    "duration": 0.4345935000000054
                },
                {
                    "name": "D#3",
                    "midi": 51,
                    "time": 731.8554540000022,
                    "velocity": 0.41732283464566927,
                    "duration": 0.4345935000000054
                },
                {
                    "name": "A3",
                    "midi": 57,
                    "time": 732.2900475000022,
                    "velocity": 0.4251968503937008,
                    "duration": 0.4345935000000054
                },
                {
                    "name": "D#3",
                    "midi": 51,
                    "time": 732.7246410000022,
                    "velocity": 0.4251968503937008,
                    "duration": 0.4345935000000054
                },
                {
                    "name": "C3",
                    "midi": 48,
                    "time": 733.1592345000022,
                    "velocity": 0.4251968503937008,
                    "duration": 0.4345935000000054
                },
                {
                    "name": "A#1",
                    "midi": 34,
                    "time": 733.5938280000022,
                    "velocity": 0.4645669291338583,
                    "duration": 0.4345934999998917
                },
                {
                    "name": "A#2",
                    "midi": 46,
                    "time": 734.0284215000021,
                    "velocity": 0.41732283464566927,
                    "duration": 0.4345935000000054
                },
                {
                    "name": "F3",
                    "midi": 53,
                    "time": 734.4630150000021,
                    "velocity": 0.4330708661417323,
                    "duration": 0.4345935000000054
                },
                {
                    "name": "A#3",
                    "midi": 58,
                    "time": 734.8976085000021,
                    "velocity": 0.44881889763779526,
                    "duration": 0.4345935000000054
                },
                {
                    "name": "D4",
                    "midi": 62,
                    "time": 735.3322020000021,
                    "velocity": 0.4566929133858268,
                    "duration": 0.4345935000000054
                },
                {
                    "name": "F4",
                    "midi": 65,
                    "time": 735.7667955000021,
                    "velocity": 0.47244094488188976,
                    "duration": 0.4345935000000054
                },
                {
                    "name": "D5",
                    "midi": 74,
                    "time": 736.2013890000021,
                    "velocity": 0.48031496062992124,
                    "duration": 0.4345935000000054
                },
                {
                    "name": "A#4",
                    "midi": 70,
                    "time": 736.6359825000021,
                    "velocity": 0.4645669291338583,
                    "duration": 0.4345935000000054
                },
                {
                    "name": "F4",
                    "midi": 65,
                    "time": 737.0705760000021,
                    "velocity": 0.44881889763779526,
                    "duration": 0.4345935000000054
                },
                {
                    "name": "D4",
                    "midi": 62,
                    "time": 737.5051695000021,
                    "velocity": 0.4330708661417323,
                    "duration": 0.4345935000000054
                },
                {
                    "name": "A#3",
                    "midi": 58,
                    "time": 737.9397630000021,
                    "velocity": 0.41732283464566927,
                    "duration": 0.4345935000000054
                },
                {
                    "name": "F3",
                    "midi": 53,
                    "time": 738.3743565000021,
                    "velocity": 0.4015748031496063,
                    "duration": 0.4345935000000054
                },
                {
                    "name": "A#2",
                    "midi": 46,
                    "time": 738.8089500000021,
                    "velocity": 0.44881889763779526,
                    "duration": 0.4345935000000054
                },
                {
                    "name": "E3",
                    "midi": 52,
                    "time": 739.2435435000021,
                    "velocity": 0.3858267716535433,
                    "duration": 0.4345935000000054
                },
                {
                    "name": "G3",
                    "midi": 55,
                    "time": 739.6781370000022,
                    "velocity": 0.3858267716535433,
                    "duration": 0.4345935000000054
                },
                {
                    "name": "C4",
                    "midi": 60,
                    "time": 740.1127305000022,
                    "velocity": 0.3858267716535433,
                    "duration": 0.4345935000000054
                },
                {
                    "name": "G3",
                    "midi": 55,
                    "time": 740.5473240000022,
                    "velocity": 0.3858267716535433,
                    "duration": 0.4345935000000054
                },
                {
                    "name": "E3",
                    "midi": 52,
                    "time": 740.9819175000022,
                    "velocity": 0.3858267716535433,
                    "duration": 0.4345935000000054
                },
                {
                    "name": "A#2",
                    "midi": 46,
                    "time": 741.4165110000022,
                    "velocity": 0.3700787401574803,
                    "duration": 0.4345935000000054
                },
                {
                    "name": "E3",
                    "midi": 52,
                    "time": 741.8511045000022,
                    "velocity": 0.3700787401574803,
                    "duration": 0.4345935000000054
                },
                {
                    "name": "G3",
                    "midi": 55,
                    "time": 742.2856980000022,
                    "velocity": 0.41732283464566927,
                    "duration": 0.4345935000000054
                },
                {
                    "name": "C4",
                    "midi": 60,
                    "time": 742.7202915000022,
                    "velocity": 0.3700787401574803,
                    "duration": 0.4345935000000054
                },
                {
                    "name": "G3",
                    "midi": 55,
                    "time": 743.1548850000022,
                    "velocity": 0.3700787401574803,
                    "duration": 0.4345935000000054
                },
                {
                    "name": "E3",
                    "midi": 52,
                    "time": 743.5894785000022,
                    "velocity": 0.3700787401574803,
                    "duration": 0.4345935000000054
                },
                {
                    "name": "A#2",
                    "midi": 46,
                    "time": 744.0240720000022,
                    "velocity": 0.4330708661417323,
                    "duration": 0.4345934999998917
                },
                {
                    "name": "F3",
                    "midi": 53,
                    "time": 744.4586655000021,
                    "velocity": 0.36220472440944884,
                    "duration": 0.4345935000000054
                },
                {
                    "name": "A3",
                    "midi": 57,
                    "time": 744.8932590000021,
                    "velocity": 0.36220472440944884,
                    "duration": 0.4345935000000054
                },
                {
                    "name": "C4",
                    "midi": 60,
                    "time": 745.3278525000021,
                    "velocity": 0.36220472440944884,
                    "duration": 0.4345935000000054
                },
                {
                    "name": "A3",
                    "midi": 57,
                    "time": 745.7624460000021,
                    "velocity": 0.3700787401574803,
                    "duration": 0.4345935000000054
                },
                {
                    "name": "F3",
                    "midi": 53,
                    "time": 746.1970395000021,
                    "velocity": 0.3700787401574803,
                    "duration": 0.4345935000000054
                },
                {
                    "name": "A#2",
                    "midi": 46,
                    "time": 746.6316330000021,
                    "velocity": 0.4094488188976378,
                    "duration": 0.4345935000000054
                },
                {
                    "name": "F3",
                    "midi": 53,
                    "time": 747.0662265000021,
                    "velocity": 0.3700787401574803,
                    "duration": 0.4345935000000054
                },
                {
                    "name": "G#3",
                    "midi": 56,
                    "time": 747.5008200000021,
                    "velocity": 0.3700787401574803,
                    "duration": 0.4345935000000054
                },
                {
                    "name": "D4",
                    "midi": 62,
                    "time": 747.9354135000021,
                    "velocity": 0.3700787401574803,
                    "duration": 0.4345935000000054
                },
                {
                    "name": "G#3",
                    "midi": 56,
                    "time": 748.3700070000021,
                    "velocity": 0.3700787401574803,
                    "duration": 0.4345935000000054
                },
                {
                    "name": "F3",
                    "midi": 53,
                    "time": 748.8046005000022,
                    "velocity": 0.3700787401574803,
                    "duration": 0.4345935000000054
                },
                {
                    "name": "D#2",
                    "midi": 39,
                    "time": 749.2391940000022,
                    "velocity": 0.44881889763779526,
                    "duration": 0.4345935000000054
                },
                {
                    "name": "A#2",
                    "midi": 46,
                    "time": 749.6737875000022,
                    "velocity": 0.31496062992125984,
                    "duration": 0.4345935000000054
                },
                {
                    "name": "D#3",
                    "midi": 51,
                    "time": 750.1083810000022,
                    "velocity": 0.3779527559055118,
                    "duration": 0.4345935000000054
                },
                {
                    "name": "G3",
                    "midi": 55,
                    "time": 750.5429745000022,
                    "velocity": 0.33070866141732286,
                    "duration": 0.4345935000000054
                },
                {
                    "name": "D#3",
                    "midi": 51,
                    "time": 750.9775680000022,
                    "velocity": 0.4251968503937008,
                    "duration": 0.4345935000000054
                },
                {
                    "name": "A#2",
                    "midi": 46,
                    "time": 751.4121615000022,
                    "velocity": 0.3937007874015748,
                    "duration": 0.4345935000000054
                },
                {
                    "name": "D#2",
                    "midi": 39,
                    "time": 751.8467550000022,
                    "velocity": 0.4330708661417323,
                    "duration": 0.4345935000000054
                },
                {
                    "name": "A#2",
                    "midi": 46,
                    "time": 752.2813485000022,
                    "velocity": 0.3543307086614173,
                    "duration": 0.4345935000000054
                },
                {
                    "name": "D#3",
                    "midi": 51,
                    "time": 752.7159420000022,
                    "velocity": 0.3543307086614173,
                    "duration": 0.4345935000000054
                },
                {
                    "name": "A#3",
                    "midi": 58,
                    "time": 753.1505355000022,
                    "velocity": 0.3543307086614173,
                    "duration": 0.4345935000000054
                },
                {
                    "name": "D#3",
                    "midi": 51,
                    "time": 753.5851290000022,
                    "velocity": 0.3543307086614173,
                    "duration": 0.4345935000000054
                },
                {
                    "name": "A#2",
                    "midi": 46,
                    "time": 754.0197225000022,
                    "velocity": 0.3543307086614173,
                    "duration": 0.4345935000000054
                },
                {
                    "name": "D#2",
                    "midi": 39,
                    "time": 754.4543160000022,
                    "velocity": 0.3937007874015748,
                    "duration": 0.4345935000000054
                },
                {
                    "name": "A#2",
                    "midi": 46,
                    "time": 754.8889095000022,
                    "velocity": 0.29133858267716534,
                    "duration": 0.4345935000000054
                },
                {
                    "name": "D#3",
                    "midi": 51,
                    "time": 755.3235030000022,
                    "velocity": 0.4015748031496063,
                    "duration": 0.4345935000000054
                },
                {
                    "name": "G3",
                    "midi": 55,
                    "time": 755.7580965000022,
                    "velocity": 0.36220472440944884,
                    "duration": 0.4345935000000054
                },
                {
                    "name": "D#3",
                    "midi": 51,
                    "time": 756.1926900000022,
                    "velocity": 0.4330708661417323,
                    "duration": 0.4345935000000054
                },
                {
                    "name": "A#2",
                    "midi": 46,
                    "time": 756.6272835000022,
                    "velocity": 0.3858267716535433,
                    "duration": 0.4345935000000054
                },
                {
                    "name": "D#2",
                    "midi": 39,
                    "time": 757.0618770000023,
                    "velocity": 0.3937007874015748,
                    "duration": 0.4345935000000054
                },
                {
                    "name": "A#2",
                    "midi": 46,
                    "time": 757.4964705000023,
                    "velocity": 0.31496062992125984,
                    "duration": 0.4345935000000054
                },
                {
                    "name": "D#3",
                    "midi": 51,
                    "time": 757.9310640000023,
                    "velocity": 0.31496062992125984,
                    "duration": 0.4345935000000054
                },
                {
                    "name": "A#3",
                    "midi": 58,
                    "time": 758.3656575000023,
                    "velocity": 0.31496062992125984,
                    "duration": 0.4345935000000054
                },
                {
                    "name": "D#3",
                    "midi": 51,
                    "time": 758.8002510000023,
                    "velocity": 0.31496062992125984,
                    "duration": 0.4345935000001191
                },
                {
                    "name": "A#2",
                    "midi": 46,
                    "time": 759.2348445000024,
                    "velocity": 0.31496062992125984,
                    "duration": 0.4345935000000054
                },
                {
                    "name": "D#2",
                    "midi": 39,
                    "time": 759.6694380000024,
                    "velocity": 0.4251968503937008,
                    "duration": 0.4345935000000054
                },
                {
                    "name": "A#2",
                    "midi": 46,
                    "time": 760.1040315000024,
                    "velocity": 0.29133858267716534,
                    "duration": 0.4345935000000054
                },
                {
                    "name": "D3",
                    "midi": 50,
                    "time": 760.5386250000024,
                    "velocity": 0.3700787401574803,
                    "duration": 0.4345935000000054
                },
                {
                    "name": "G#3",
                    "midi": 56,
                    "time": 760.9732185000024,
                    "velocity": 0.29133858267716534,
                    "duration": 0.4345935000000054
                },
                {
                    "name": "D3",
                    "midi": 50,
                    "time": 761.4078120000024,
                    "velocity": 0.3937007874015748,
                    "duration": 0.4345935000000054
                },
                {
                    "name": "A#2",
                    "midi": 46,
                    "time": 761.8424055000024,
                    "velocity": 0.36220472440944884,
                    "duration": 0.4345935000000054
                },
                {
                    "name": "D#2",
                    "midi": 39,
                    "time": 762.2769990000024,
                    "velocity": 0.3700787401574803,
                    "duration": 0.4345935000000054
                },
                {
                    "name": "A#2",
                    "midi": 46,
                    "time": 762.7115925000024,
                    "velocity": 0.31496062992125984,
                    "duration": 0.4345935000000054
                },
                {
                    "name": "D3",
                    "midi": 50,
                    "time": 763.1461860000024,
                    "velocity": 0.31496062992125984,
                    "duration": 0.4345935000000054
                },
                {
                    "name": "A#3",
                    "midi": 58,
                    "time": 763.5807795000024,
                    "velocity": 0.31496062992125984,
                    "duration": 0.4345935000000054
                },
                {
                    "name": "D3",
                    "midi": 50,
                    "time": 764.0153730000025,
                    "velocity": 0.31496062992125984,
                    "duration": 0.4345935000000054
                },
                {
                    "name": "A#2",
                    "midi": 46,
                    "time": 764.4499665000025,
                    "velocity": 0.31496062992125984,
                    "duration": 0.4345935000000054
                },
                {
                    "name": "D#2",
                    "midi": 39,
                    "time": 764.8845600000025,
                    "velocity": 0.4251968503937008,
                    "duration": 0.4345935000000054
                },
                {
                    "name": "A#2",
                    "midi": 46,
                    "time": 765.3191535000025,
                    "velocity": 0.33070866141732286,
                    "duration": 0.4345935000000054
                },
                {
                    "name": "D#3",
                    "midi": 51,
                    "time": 765.7537470000025,
                    "velocity": 0.3858267716535433,
                    "duration": 0.4345935000000054
                },
                {
                    "name": "G3",
                    "midi": 55,
                    "time": 766.1883405000025,
                    "velocity": 0.33070866141732286,
                    "duration": 0.4345935000000054
                },
                {
                    "name": "D#3",
                    "midi": 51,
                    "time": 766.6229340000025,
                    "velocity": 0.33070866141732286,
                    "duration": 0.4345935000000054
                },
                {
                    "name": "A#2",
                    "midi": 46,
                    "time": 767.0575275000025,
                    "velocity": 0.33070866141732286,
                    "duration": 0.4345935000000054
                },
                {
                    "name": "D#2",
                    "midi": 39,
                    "time": 767.4921210000025,
                    "velocity": 0.36220472440944884,
                    "duration": 0.4345935000000054
                },
                {
                    "name": "B2",
                    "midi": 47,
                    "time": 767.9267145000025,
                    "velocity": 0.33070866141732286,
                    "duration": 0.4345935000000054
                },
                {
                    "name": "D#3",
                    "midi": 51,
                    "time": 768.3613080000025,
                    "velocity": 0.33070866141732286,
                    "duration": 0.4345935000000054
                },
                {
                    "name": "G#3",
                    "midi": 56,
                    "time": 768.7959015000025,
                    "velocity": 0.33070866141732286,
                    "duration": 0.4345935000000054
                },
                {
                    "name": "D#3",
                    "midi": 51,
                    "time": 769.2304950000025,
                    "velocity": 0.33070866141732286,
                    "duration": 0.4345935000000054
                },
                {
                    "name": "B2",
                    "midi": 47,
                    "time": 769.6650885000025,
                    "velocity": 0.33070866141732286,
                    "duration": 0.4345935000000054
                },
                {
                    "name": "D#2",
                    "midi": 39,
                    "time": 770.0996820000025,
                    "velocity": 0.4251968503937008,
                    "duration": 0.4345935000000054
                },
                {
                    "name": "A#2",
                    "midi": 46,
                    "time": 770.5342755000025,
                    "velocity": 0.29133858267716534,
                    "duration": 0.4345935000000054
                },
                {
                    "name": "D#3",
                    "midi": 51,
                    "time": 770.9688690000025,
                    "velocity": 0.3464566929133858,
                    "duration": 0.4345935000000054
                },
                {
                    "name": "G3",
                    "midi": 55,
                    "time": 771.4034625000025,
                    "velocity": 0.29133858267716534,
                    "duration": 0.4345935000000054
                },
                {
                    "name": "D#3",
                    "midi": 51,
                    "time": 771.8380560000026,
                    "velocity": 0.3464566929133858,
                    "duration": 0.4345935000000054
                },
                {
                    "name": "A#2",
                    "midi": 46,
                    "time": 772.2726495000026,
                    "velocity": 0.29133858267716534,
                    "duration": 0.4345935000000054
                },
                {
                    "name": "D#2",
                    "midi": 39,
                    "time": 772.7072430000026,
                    "velocity": 0.3700787401574803,
                    "duration": 0.4345935000000054
                },
                {
                    "name": "A#2",
                    "midi": 46,
                    "time": 773.1418365000026,
                    "velocity": 0.29133858267716534,
                    "duration": 0.4345935000000054
                },
                {
                    "name": "D#3",
                    "midi": 51,
                    "time": 773.5764300000026,
                    "velocity": 0.29133858267716534,
                    "duration": 0.4345935000000054
                },
                {
                    "name": "A#3",
                    "midi": 58,
                    "time": 774.0110235000026,
                    "velocity": 0.29133858267716534,
                    "duration": 0.4345935000000054
                },
                {
                    "name": "D#3",
                    "midi": 51,
                    "time": 774.4456170000026,
                    "velocity": 0.29133858267716534,
                    "duration": 0.4345935000000054
                },
                {
                    "name": "A#2",
                    "midi": 46,
                    "time": 774.8802105000026,
                    "velocity": 0.29133858267716534,
                    "duration": 0.4345935000000054
                },
                {
                    "name": "D#2",
                    "midi": 39,
                    "time": 775.3148040000026,
                    "velocity": 0.4251968503937008,
                    "duration": 0.4345935000000054
                },
                {
                    "name": "A#2",
                    "midi": 46,
                    "time": 775.7493975000026,
                    "velocity": 0.29133858267716534,
                    "duration": 0.4345935000000054
                },
                {
                    "name": "D#3",
                    "midi": 51,
                    "time": 776.1839910000026,
                    "velocity": 0.3464566929133858,
                    "duration": 0.4345935000000054
                },
                {
                    "name": "G3",
                    "midi": 55,
                    "time": 776.6185845000026,
                    "velocity": 0.29133858267716534,
                    "duration": 0.4345935000000054
                },
                {
                    "name": "D#3",
                    "midi": 51,
                    "time": 777.0531780000026,
                    "velocity": 0.3464566929133858,
                    "duration": 0.4345935000000054
                },
                {
                    "name": "A#2",
                    "midi": 46,
                    "time": 777.4877715000026,
                    "velocity": 0.29133858267716534,
                    "duration": 0.4345935000000054
                },
                {
                    "name": "D#2",
                    "midi": 39,
                    "time": 777.9223650000026,
                    "velocity": 0.3228346456692913,
                    "duration": 0.4345935000000054
                },
                {
                    "name": "A#2",
                    "midi": 46,
                    "time": 778.3569585000026,
                    "velocity": 0.2283464566929134,
                    "duration": 0.4345935000000054
                },
                {
                    "name": "D#3",
                    "midi": 51,
                    "time": 778.7915520000026,
                    "velocity": 0.2283464566929134,
                    "duration": 0.4345935000000054
                },
                {
                    "name": "A#3",
                    "midi": 58,
                    "time": 779.2261455000026,
                    "velocity": 0.2283464566929134,
                    "duration": 0.4345935000000054
                },
                {
                    "name": "D#3",
                    "midi": 51,
                    "time": 779.6607390000026,
                    "velocity": 0.2283464566929134,
                    "duration": 0.4345935000000054
                },
                {
                    "name": "A#2",
                    "midi": 46,
                    "time": 780.0953325000027,
                    "velocity": 0.2283464566929134,
                    "duration": 0.4345935000000054
                },
                {
                    "name": "D#2",
                    "midi": 39,
                    "time": 780.5299260000027,
                    "velocity": 0.33858267716535434,
                    "duration": 0.4345935000000054
                },
                {
                    "name": "A#2",
                    "midi": 46,
                    "time": 780.9645195000027,
                    "velocity": 0.2283464566929134,
                    "duration": 0.4345935000000054
                },
                {
                    "name": "D3",
                    "midi": 50,
                    "time": 781.3991130000027,
                    "velocity": 0.2755905511811024,
                    "duration": 0.4345935000000054
                },
                {
                    "name": "G#3",
                    "midi": 56,
                    "time": 781.8337065000027,
                    "velocity": 0.2283464566929134,
                    "duration": 0.4345935000000054
                },
                {
                    "name": "D3",
                    "midi": 50,
                    "time": 782.2683000000027,
                    "velocity": 0.2755905511811024,
                    "duration": 0.4345935000000054
                },
                {
                    "name": "A#2",
                    "midi": 46,
                    "time": 782.7028935000027,
                    "velocity": 0.2283464566929134,
                    "duration": 0.4345935000000054
                },
                {
                    "name": "D#2",
                    "midi": 39,
                    "time": 783.1374870000027,
                    "velocity": 0.29133858267716534,
                    "duration": 0.4345935000000054
                },
                {
                    "name": "A#2",
                    "midi": 46,
                    "time": 783.5720805000027,
                    "velocity": 0.2283464566929134,
                    "duration": 0.4345935000000054
                },
                {
                    "name": "D3",
                    "midi": 50,
                    "time": 784.0066740000027,
                    "velocity": 0.2283464566929134,
                    "duration": 0.4345935000000054
                },
                {
                    "name": "A#3",
                    "midi": 58,
                    "time": 784.4412675000027,
                    "velocity": 0.2283464566929134,
                    "duration": 0.4345935000000054
                },
                {
                    "name": "D3",
                    "midi": 50,
                    "time": 784.8758610000027,
                    "velocity": 0.2283464566929134,
                    "duration": 0.4345935000000054
                },
                {
                    "name": "A#2",
                    "midi": 46,
                    "time": 785.3104545000027,
                    "velocity": 0.2283464566929134,
                    "duration": 0.4345935000000054
                },
                {
                    "name": "D#2",
                    "midi": 39,
                    "time": 785.7450480000027,
                    "velocity": 0.33858267716535434,
                    "duration": 0.4345935000000054
                },
                {
                    "name": "A#2",
                    "midi": 46,
                    "time": 786.1796415000027,
                    "velocity": 0.25984251968503935,
                    "duration": 0.4345935000000054
                },
                {
                    "name": "D#3",
                    "midi": 51,
                    "time": 786.6142350000027,
                    "velocity": 0.25984251968503935,
                    "duration": 0.4345935000000054
                },
                {
                    "name": "G3",
                    "midi": 55,
                    "time": 787.0488285000027,
                    "velocity": 0.25984251968503935,
                    "duration": 0.4345935000000054
                },
                {
                    "name": "D#3",
                    "midi": 51,
                    "time": 787.4834220000027,
                    "velocity": 0.25984251968503935,
                    "duration": 0.4345935000000054
                },
                {
                    "name": "A#2",
                    "midi": 46,
                    "time": 787.9180155000028,
                    "velocity": 0.25984251968503935,
                    "duration": 0.4345935000000054
                },
                {
                    "name": "D#2",
                    "midi": 39,
                    "time": 788.3526090000028,
                    "velocity": 0.2992125984251969,
                    "duration": 0.4345935000000054
                },
                {
                    "name": "B2",
                    "midi": 47,
                    "time": 788.7872025000028,
                    "velocity": 0.25984251968503935,
                    "duration": 0.4345935000000054
                },
                {
                    "name": "D#3",
                    "midi": 51,
                    "time": 789.2217960000028,
                    "velocity": 0.25984251968503935,
                    "duration": 0.4345935000000054
                },
                {
                    "name": "G#3",
                    "midi": 56,
                    "time": 789.6563895000028,
                    "velocity": 0.25984251968503935,
                    "duration": 0.4345935000000054
                },
                {
                    "name": "D#3",
                    "midi": 51,
                    "time": 790.0909830000028,
                    "velocity": 0.25984251968503935,
                    "duration": 0.4345935000000054
                },
                {
                    "name": "B2",
                    "midi": 47,
                    "time": 790.5255765000028,
                    "velocity": 0.25984251968503935,
                    "duration": 0.4345935000000054
                },
                {
                    "name": "D#2",
                    "midi": 39,
                    "time": 790.9601700000028,
                    "velocity": 0.33858267716535434,
                    "duration": 0.4345935000000054
                },
                {
                    "name": "A#2",
                    "midi": 46,
                    "time": 791.3947635000028,
                    "velocity": 0.2283464566929134,
                    "duration": 0.4345935000000054
                },
                {
                    "name": "D#3",
                    "midi": 51,
                    "time": 791.8293570000028,
                    "velocity": 0.2755905511811024,
                    "duration": 0.4345935000000054
                },
                {
                    "name": "G3",
                    "midi": 55,
                    "time": 792.2639505000028,
                    "velocity": 0.2283464566929134,
                    "duration": 0.4345935000000054
                },
                {
                    "name": "D#3",
                    "midi": 51,
                    "time": 792.6985440000028,
                    "velocity": 0.2755905511811024,
                    "duration": 0.4345935000000054
                },
                {
                    "name": "A#2",
                    "midi": 46,
                    "time": 793.1331375000028,
                    "velocity": 0.2283464566929134,
                    "duration": 0.4345935000000054
                },
                {
                    "name": "D#2",
                    "midi": 39,
                    "time": 793.5677310000028,
                    "velocity": 0.3228346456692913,
                    "duration": 0.4345935000000054
                },
                {
                    "name": "A#2",
                    "midi": 46,
                    "time": 794.0023245000028,
                    "velocity": 0.25984251968503935,
                    "duration": 0.4345935000000054
                },
                {
                    "name": "D#3",
                    "midi": 51,
                    "time": 794.4369180000028,
                    "velocity": 0.25984251968503935,
                    "duration": 0.4345935000000054
                },
                {
                    "name": "A#3",
                    "midi": 58,
                    "time": 794.8715115000028,
                    "velocity": 0.25984251968503935,
                    "duration": 0.4345935000000054
                },
                {
                    "name": "D#3",
                    "midi": 51,
                    "time": 795.3061050000028,
                    "velocity": 0.25984251968503935,
                    "duration": 0.4345935000000054
                },
                {
                    "name": "A#2",
                    "midi": 46,
                    "time": 795.7406985000028,
                    "velocity": 0.25984251968503935,
                    "duration": 0.4345935000000054
                },
                {
                    "name": "D#2",
                    "midi": 39,
                    "time": 796.1752920000029,
                    "velocity": 0.3543307086614173,
                    "duration": 0.4345935000000054
                },
                {
                    "name": "A#2",
                    "midi": 46,
                    "time": 796.6098855000029,
                    "velocity": 0.25984251968503935,
                    "duration": 0.4345935000000054
                },
                {
                    "name": "D#3",
                    "midi": 51,
                    "time": 797.0444790000029,
                    "velocity": 0.2755905511811024,
                    "duration": 0.4345935000000054
                },
                {
                    "name": "G3",
                    "midi": 55,
                    "time": 797.4790725000029,
                    "velocity": 0.2755905511811024,
                    "duration": 0.4345935000000054
                },
                {
                    "name": "D#3",
                    "midi": 51,
                    "time": 797.9136660000029,
                    "velocity": 0.2755905511811024,
                    "duration": 0.4345935000000054
                },
                {
                    "name": "A#2",
                    "midi": 46,
                    "time": 798.3482595000029,
                    "velocity": 0.25984251968503935,
                    "duration": 0.4345935000000054
                },
                {
                    "name": "D#2",
                    "midi": 39,
                    "time": 798.7828530000029,
                    "velocity": 0.3228346456692913,
                    "duration": 0.4345935000000054
                },
                {
                    "name": "A#2",
                    "midi": 46,
                    "time": 799.2174465000029,
                    "velocity": 0.25984251968503935,
                    "duration": 0.4345935000000054
                },
                {
                    "name": "D#3",
                    "midi": 51,
                    "time": 799.6520400000029,
                    "velocity": 0.25984251968503935,
                    "duration": 0.4345935000000054
                },
                {
                    "name": "A#3",
                    "midi": 58,
                    "time": 800.0866335000029,
                    "velocity": 0.25984251968503935,
                    "duration": 0.4345935000000054
                },
                {
                    "name": "D#3",
                    "midi": 51,
                    "time": 800.5212270000029,
                    "velocity": 0.2047244094488189,
                    "duration": 0.4345935000000054
                },
                {
                    "name": "A#2",
                    "midi": 46,
                    "time": 800.9558205000029,
                    "velocity": 0.1968503937007874,
                    "duration": 0.4345935000000054
                },
                {
                    "name": "G2",
                    "midi": 43,
                    "time": 801.3904140000029,
                    "velocity": 0.3779527559055118,
                    "duration": 0.4345935000000054
                },
                {
                    "name": "D3",
                    "midi": 50,
                    "time": 801.8250075000029,
                    "velocity": 0.25984251968503935,
                    "duration": 0.4345935000000054
                },
                {
                    "name": "G3",
                    "midi": 55,
                    "time": 802.2596010000029,
                    "velocity": 0.2440944881889764,
                    "duration": 0.4345935000000054
                },
                {
                    "name": "A#3",
                    "midi": 58,
                    "time": 802.6941945000029,
                    "velocity": 0.2677165354330709,
                    "duration": 0.4345935000000054
                },
                {
                    "name": "D4",
                    "midi": 62,
                    "time": 803.1287880000029,
                    "velocity": 0.29133858267716534,
                    "duration": 0.4345935000000054
                },
                {
                    "name": "A#3",
                    "midi": 58,
                    "time": 803.563381500003,
                    "velocity": 0.31496062992125984,
                    "duration": 0.4345935000000054
                },
                {
                    "name": "G4",
                    "midi": 67,
                    "time": 803.997975000003,
                    "velocity": 0.3543307086614173,
                    "duration": 0.4345935000000054
                },
                {
                    "name": "D4",
                    "midi": 62,
                    "time": 804.432568500003,
                    "velocity": 0.31496062992125984,
                    "duration": 0.4345935000000054
                },
                {
                    "name": "A#3",
                    "midi": 58,
                    "time": 804.867162000003,
                    "velocity": 0.30708661417322836,
                    "duration": 0.4345935000000054
                },
                {
                    "name": "G3",
                    "midi": 55,
                    "time": 805.301755500003,
                    "velocity": 0.2992125984251969,
                    "duration": 0.4345935000000054
                },
                {
                    "name": "D3",
                    "midi": 50,
                    "time": 805.736349000003,
                    "velocity": 0.29133858267716534,
                    "duration": 0.4345935000000054
                },
                {
                    "name": "G2",
                    "midi": 43,
                    "time": 806.170942500003,
                    "velocity": 0.2755905511811024,
                    "duration": 0.4345935000000054
                },
                {
                    "name": "G1",
                    "midi": 31,
                    "time": 806.605536000003,
                    "velocity": 0.33070866141732286,
                    "duration": 0.4345935000000054
                },
                {
                    "name": "G2",
                    "midi": 43,
                    "time": 807.040129500003,
                    "velocity": 0.25196850393700787,
                    "duration": 0.4345935000000054
                },
                {
                    "name": "D3",
                    "midi": 50,
                    "time": 807.474723000003,
                    "velocity": 0.2677165354330709,
                    "duration": 0.4345935000000054
                },
                {
                    "name": "G3",
                    "midi": 55,
                    "time": 807.909316500003,
                    "velocity": 0.29133858267716534,
                    "duration": 0.4345935000000054
                },
                {
                    "name": "A#3",
                    "midi": 58,
                    "time": 808.343910000003,
                    "velocity": 0.30708661417322836,
                    "duration": 0.4345935000000054
                },
                {
                    "name": "D4",
                    "midi": 62,
                    "time": 808.778503500003,
                    "velocity": 0.3228346456692913,
                    "duration": 0.4345935000000054
                },
                {
                    "name": "A#4",
                    "midi": 70,
                    "time": 809.213097000003,
                    "velocity": 0.33070866141732286,
                    "duration": 0.4345935000000054
                },
                {
                    "name": "G4",
                    "midi": 67,
                    "time": 809.647690500003,
                    "velocity": 0.3228346456692913,
                    "duration": 0.4345935000000054
                },
                {
                    "name": "D4",
                    "midi": 62,
                    "time": 810.082284000003,
                    "velocity": 0.30708661417322836,
                    "duration": 0.4345935000000054
                },
                {
                    "name": "A#3",
                    "midi": 58,
                    "time": 810.516877500003,
                    "velocity": 0.2992125984251969,
                    "duration": 0.4345935000000054
                },
                {
                    "name": "G3",
                    "midi": 55,
                    "time": 810.951471000003,
                    "velocity": 0.28346456692913385,
                    "duration": 0.4345935000000054
                },
                {
                    "name": "D3",
                    "midi": 50,
                    "time": 811.386064500003,
                    "velocity": 0.2755905511811024,
                    "duration": 0.4345935000000054
                },
                {
                    "name": "G2",
                    "midi": 43,
                    "time": 811.820658000003,
                    "velocity": 0.29133858267716534,
                    "duration": 0.4345935000000054
                },
                {
                    "name": "D3",
                    "midi": 50,
                    "time": 812.255251500003,
                    "velocity": 0.25984251968503935,
                    "duration": 0.4345935000000054
                },
                {
                    "name": "D4",
                    "midi": 62,
                    "time": 812.6898450000031,
                    "velocity": 0.25984251968503935,
                    "duration": 0.8691870000000108
                },
                {
                    "name": "D3",
                    "midi": 50,
                    "time": 822.2509020000031,
                    "velocity": 0.2204724409448819,
                    "duration": 2.6075610000000324
                },
                {
                    "name": "D2",
                    "midi": 38,
                    "time": 823.1200890000031,
                    "velocity": 0.1968503937007874,
                    "duration": 0.8601329687500083
                },
                {
                    "name": "D2",
                    "midi": 38,
                    "time": 823.9892760000031,
                    "velocity": 0.1968503937007874,
                    "duration": 0.8601329687500083
                },
                {
                    "name": "D2",
                    "midi": 38,
                    "time": 825.7276500000031,
                    "velocity": 0.30708661417322836,
                    "duration": 0.8601329687500083
                },
                {
                    "name": "D2",
                    "midi": 38,
                    "time": 826.5968370000031,
                    "velocity": 0.30708661417322836,
                    "duration": 0.8601329687500083
                },
                {
                    "name": "D2",
                    "midi": 38,
                    "time": 828.3352110000031,
                    "velocity": 0.1732283464566929,
                    "duration": 0.8601329687500083
                },
                {
                    "name": "D2",
                    "midi": 38,
                    "time": 829.2043980000032,
                    "velocity": 0.1732283464566929,
                    "duration": 0.8601329687500083
                },
                {
                    "name": "D4",
                    "midi": 62,
                    "time": 830.0735850000032,
                    "velocity": 0.2677165354330709,
                    "duration": 2.6075610000000324
                },
                {
                    "name": "D3",
                    "midi": 50,
                    "time": 830.9427720000032,
                    "velocity": 0.16535433070866143,
                    "duration": 0.8601329687500083
                },
                {
                    "name": "G3",
                    "midi": 55,
                    "time": 830.9427720000032,
                    "velocity": 0.16535433070866143,
                    "duration": 0.8601329687500083
                },
                {
                    "name": "G3",
                    "midi": 55,
                    "time": 831.8119590000032,
                    "velocity": 0.16535433070866143,
                    "duration": 0.8601329687500083
                },
                {
                    "name": "D3",
                    "midi": 50,
                    "time": 831.8119590000032,
                    "velocity": 0.16535433070866143,
                    "duration": 0.8601329687500083
                },
                {
                    "name": "C4",
                    "midi": 60,
                    "time": 832.6811460000032,
                    "velocity": 0.2677165354330709,
                    "duration": 2.607561000000146
                },
                {
                    "name": "G3",
                    "midi": 55,
                    "time": 833.5503330000033,
                    "velocity": 0.1732283464566929,
                    "duration": 0.8601329687500083
                },
                {
                    "name": "D3",
                    "midi": 50,
                    "time": 833.5503330000033,
                    "velocity": 0.1732283464566929,
                    "duration": 0.8601329687500083
                },
                {
                    "name": "D3",
                    "midi": 50,
                    "time": 834.4195200000033,
                    "velocity": 0.1732283464566929,
                    "duration": 0.8601329687500083
                },
                {
                    "name": "G3",
                    "midi": 55,
                    "time": 834.4195200000033,
                    "velocity": 0.1732283464566929,
                    "duration": 0.8601329687500083
                },
                {
                    "name": "D2",
                    "midi": 38,
                    "time": 836.1578940000034,
                    "velocity": 0.30708661417322836,
                    "duration": 0.8601329687500083
                },
                {
                    "name": "D2",
                    "midi": 38,
                    "time": 837.0270810000034,
                    "velocity": 0.30708661417322836,
                    "duration": 0.8601329687500083
                },
                {
                    "name": "D2",
                    "midi": 38,
                    "time": 838.7654550000034,
                    "velocity": 0.1732283464566929,
                    "duration": 0.8601329687500083
                },
                {
                    "name": "D2",
                    "midi": 38,
                    "time": 839.6346420000034,
                    "velocity": 0.1732283464566929,
                    "duration": 0.8601329687500083
                },
                {
                    "name": "D2",
                    "midi": 38,
                    "time": 841.3730160000034,
                    "velocity": 0.16535433070866143,
                    "duration": 0.8601329687500083
                },
                {
                    "name": "D2",
                    "midi": 38,
                    "time": 842.2422030000034,
                    "velocity": 0.16535433070866143,
                    "duration": 0.8601329687500083
                },
                {
                    "name": "D2",
                    "midi": 38,
                    "time": 843.9805770000034,
                    "velocity": 0.12598425196850394,
                    "duration": 0.8601329687500083
                },
                {
                    "name": "D2",
                    "midi": 38,
                    "time": 844.8497640000035,
                    "velocity": 0.12598425196850394,
                    "duration": 0.8601329687500083
                },
                {
                    "name": "D2",
                    "midi": 38,
                    "time": 846.5881380000035,
                    "velocity": 0.30708661417322836,
                    "duration": 0.8601329687500083
                },
                {
                    "name": "D2",
                    "midi": 38,
                    "time": 847.4573250000035,
                    "velocity": 0.30708661417322836,
                    "duration": 0.8601329687500083
                },
                {
                    "name": "D2",
                    "midi": 38,
                    "time": 849.1956990000035,
                    "velocity": 0.1732283464566929,
                    "duration": 0.8601329687500083
                },
                {
                    "name": "D2",
                    "midi": 38,
                    "time": 850.0648860000035,
                    "velocity": 0.1732283464566929,
                    "duration": 0.8601329687500083
                },
                {
                    "name": "D4",
                    "midi": 62,
                    "time": 850.9340730000035,
                    "velocity": 0.33858267716535434,
                    "duration": 2.6075610000000324
                },
                {
                    "name": "G3",
                    "midi": 55,
                    "time": 851.8032600000035,
                    "velocity": 0.16535433070866143,
                    "duration": 0.8601329687500083
                },
                {
                    "name": "A#3",
                    "midi": 58,
                    "time": 851.8032600000035,
                    "velocity": 0.2125984251968504,
                    "duration": 0.8601329687500083
                },
                {
                    "name": "D3",
                    "midi": 50,
                    "time": 851.8032600000035,
                    "velocity": 0.16535433070866143,
                    "duration": 0.8601329687500083
                },
                {
                    "name": "A#3",
                    "midi": 58,
                    "time": 852.6724470000036,
                    "velocity": 0.2125984251968504,
                    "duration": 0.8601329687500083
                },
                {
                    "name": "G3",
                    "midi": 55,
                    "time": 852.6724470000036,
                    "velocity": 0.16535433070866143,
                    "duration": 0.8601329687500083
                },
                {
                    "name": "D3",
                    "midi": 50,
                    "time": 852.6724470000036,
                    "velocity": 0.16535433070866143,
                    "duration": 0.8601329687500083
                },
                {
                    "name": "E4",
                    "midi": 64,
                    "time": 853.5416340000036,
                    "velocity": 0.3543307086614173,
                    "duration": 2.6075609999999187
                },
                {
                    "name": "A#3",
                    "midi": 58,
                    "time": 854.4108210000035,
                    "velocity": 0.2125984251968504,
                    "duration": 0.8601329687500083
                },
                {
                    "name": "D3",
                    "midi": 50,
                    "time": 854.4108210000035,
                    "velocity": 0.16535433070866143,
                    "duration": 0.8601329687500083
                },
                {
                    "name": "G3",
                    "midi": 55,
                    "time": 854.4108210000035,
                    "velocity": 0.16535433070866143,
                    "duration": 0.8601329687500083
                },
                {
                    "name": "G3",
                    "midi": 55,
                    "time": 855.2800080000035,
                    "velocity": 0.16535433070866143,
                    "duration": 0.8601329687500083
                },
                {
                    "name": "D3",
                    "midi": 50,
                    "time": 855.2800080000035,
                    "velocity": 0.16535433070866143,
                    "duration": 0.8601329687500083
                },
                {
                    "name": "A#3",
                    "midi": 58,
                    "time": 855.2800080000035,
                    "velocity": 0.2125984251968504,
                    "duration": 0.8601329687500083
                },
                {
                    "name": "D2",
                    "midi": 38,
                    "time": 857.0183820000035,
                    "velocity": 0.30708661417322836,
                    "duration": 0.8601329687500083
                },
                {
                    "name": "D2",
                    "midi": 38,
                    "time": 857.8875690000035,
                    "velocity": 0.30708661417322836,
                    "duration": 0.8601329687500083
                },
                {
                    "name": "D2",
                    "midi": 38,
                    "time": 859.6259430000035,
                    "velocity": 0.2047244094488189,
                    "duration": 0.8601329687500083
                },
                {
                    "name": "D2",
                    "midi": 38,
                    "time": 860.4951300000035,
                    "velocity": 0.2047244094488189,
                    "duration": 0.8601329687500083
                },
                {
                    "name": "E4",
                    "midi": 64,
                    "time": 861.3643170000036,
                    "velocity": 0.3779527559055118,
                    "duration": 2.6075610000000324
                },
                {
                    "name": "A#3",
                    "midi": 58,
                    "time": 862.2335040000036,
                    "velocity": 0.2283464566929134,
                    "duration": 0.8601329687500083
                },
                {
                    "name": "G3",
                    "midi": 55,
                    "time": 862.2335040000036,
                    "velocity": 0.1889763779527559,
                    "duration": 0.8601329687500083
                },
                {
                    "name": "D3",
                    "midi": 50,
                    "time": 862.2335040000036,
                    "velocity": 0.1889763779527559,
                    "duration": 0.8601329687500083
                },
                {
                    "name": "G3",
                    "midi": 55,
                    "time": 863.1026910000036,
                    "velocity": 0.1889763779527559,
                    "duration": 0.8601329687500083
                },
                {
                    "name": "D3",
                    "midi": 50,
                    "time": 863.1026910000036,
                    "velocity": 0.1889763779527559,
                    "duration": 0.8601329687500083
                },
                {
                    "name": "A#3",
                    "midi": 58,
                    "time": 863.1026910000036,
                    "velocity": 0.2283464566929134,
                    "duration": 0.8601329687500083
                },
                {
                    "name": "F#4",
                    "midi": 66,
                    "time": 863.9718780000036,
                    "velocity": 0.4094488188976378,
                    "duration": 2.607561000000146
                },
                {
                    "name": "A#3",
                    "midi": 58,
                    "time": 864.8410650000037,
                    "velocity": 0.25196850393700787,
                    "duration": 0.8601329687500083
                },
                {
                    "name": "D3",
                    "midi": 50,
                    "time": 864.8410650000037,
                    "velocity": 0.1889763779527559,
                    "duration": 0.8601329687500083
                },
                {
                    "name": "G3",
                    "midi": 55,
                    "time": 864.8410650000037,
                    "velocity": 0.1889763779527559,
                    "duration": 0.8601329687500083
                },
                {
                    "name": "G3",
                    "midi": 55,
                    "time": 865.7102520000037,
                    "velocity": 0.1889763779527559,
                    "duration": 0.8601329687500083
                },
                {
                    "name": "A#3",
                    "midi": 58,
                    "time": 865.7102520000037,
                    "velocity": 0.25196850393700787,
                    "duration": 0.8601329687500083
                },
                {
                    "name": "D3",
                    "midi": 50,
                    "time": 865.7102520000037,
                    "velocity": 0.1889763779527559,
                    "duration": 0.8601329687500083
                },
                {
                    "name": "E4",
                    "midi": 64,
                    "time": 866.5794390000037,
                    "velocity": 0.4015748031496063,
                    "duration": 1.7383740000000216
                },
                {
                    "name": "G3",
                    "midi": 55,
                    "time": 867.4486260000037,
                    "velocity": 0.2047244094488189,
                    "duration": 0.8601329687500083
                },
                {
                    "name": "A#3",
                    "midi": 58,
                    "time": 867.4486260000037,
                    "velocity": 0.25196850393700787,
                    "duration": 0.8601329687500083
                },
                {
                    "name": "D3",
                    "midi": 50,
                    "time": 867.4486260000037,
                    "velocity": 0.2047244094488189,
                    "duration": 0.8601329687500083
                },
                {
                    "name": "F#4",
                    "midi": 66,
                    "time": 868.7524065000038,
                    "velocity": 0.41732283464566927,
                    "duration": 0.3983773749999955
                },
                {
                    "name": "F#4",
                    "midi": 66,
                    "time": 869.1870000000038,
                    "velocity": 0.41732283464566927,
                    "duration": 2.6075610000000324
                },
                {
                    "name": "D3",
                    "midi": 50,
                    "time": 870.0561870000038,
                    "velocity": 0.2047244094488189,
                    "duration": 0.8601329687500083
                },
                {
                    "name": "G3",
                    "midi": 55,
                    "time": 870.0561870000038,
                    "velocity": 0.2047244094488189,
                    "duration": 0.8601329687500083
                },
                {
                    "name": "A#3",
                    "midi": 58,
                    "time": 870.0561870000038,
                    "velocity": 0.2755905511811024,
                    "duration": 0.8601329687500083
                },
                {
                    "name": "G3",
                    "midi": 55,
                    "time": 870.9253740000038,
                    "velocity": 0.2125984251968504,
                    "duration": 0.8601329687500083
                },
                {
                    "name": "A#3",
                    "midi": 58,
                    "time": 870.9253740000038,
                    "velocity": 0.28346456692913385,
                    "duration": 0.8601329687500083
                },
                {
                    "name": "D3",
                    "midi": 50,
                    "time": 870.9253740000038,
                    "velocity": 0.2125984251968504,
                    "duration": 0.8601329687500083
                },
                {
                    "name": "E4",
                    "midi": 64,
                    "time": 871.7945610000038,
                    "velocity": 0.4409448818897638,
                    "duration": 1.7383740000001353
                },
                {
                    "name": "D3",
                    "midi": 50,
                    "time": 872.6637480000039,
                    "velocity": 0.2125984251968504,
                    "duration": 0.8691870000000108
                },
                {
                    "name": "A#3",
                    "midi": 58,
                    "time": 872.6637480000039,
                    "velocity": 0.28346456692913385,
                    "duration": 0.8691870000000108
                },
                {
                    "name": "G3",
                    "midi": 55,
                    "time": 872.6637480000039,
                    "velocity": 0.2125984251968504,
                    "duration": 0.8691870000000108
                },
                {
                    "name": "F#4",
                    "midi": 66,
                    "time": 873.9675285000039,
                    "velocity": 0.4409448818897638,
                    "duration": 0.3983773749999955
                },
                {
                    "name": "F#4",
                    "midi": 66,
                    "time": 874.4021220000039,
                    "velocity": 0.4409448818897638,
                    "duration": 2.6075610000000324
                },
                {
                    "name": "A#3",
                    "midi": 58,
                    "time": 875.271309000004,
                    "velocity": 0.29133858267716534,
                    "duration": 0.8601329687500083
                },
                {
                    "name": "G3",
                    "midi": 55,
                    "time": 875.271309000004,
                    "velocity": 0.2283464566929134,
                    "duration": 0.8601329687500083
                },
                {
                    "name": "D3",
                    "midi": 50,
                    "time": 875.271309000004,
                    "velocity": 0.2283464566929134,
                    "duration": 0.8601329687500083
                },
                {
                    "name": "D3",
                    "midi": 50,
                    "time": 876.140496000004,
                    "velocity": 0.2283464566929134,
                    "duration": 0.8601329687500083
                },
                {
                    "name": "G3",
                    "midi": 55,
                    "time": 876.140496000004,
                    "velocity": 0.2283464566929134,
                    "duration": 0.8601329687500083
                },
                {
                    "name": "A#3",
                    "midi": 58,
                    "time": 876.140496000004,
                    "velocity": 0.30708661417322836,
                    "duration": 0.8601329687500083
                },
                {
                    "name": "E4",
                    "midi": 64,
                    "time": 877.009683000004,
                    "velocity": 0.47244094488188976,
                    "duration": 1.7383740000000216
                },
                {
                    "name": "G3",
                    "midi": 55,
                    "time": 877.878870000004,
                    "velocity": 0.2755905511811024,
                    "duration": 0.8691870000000108
                },
                {
                    "name": "A#3",
                    "midi": 58,
                    "time": 877.878870000004,
                    "velocity": 0.3464566929133858,
                    "duration": 0.8691870000000108
                },
                {
                    "name": "D3",
                    "midi": 50,
                    "time": 877.878870000004,
                    "velocity": 0.2755905511811024,
                    "duration": 0.8691870000000108
                },
                {
                    "name": "F#4",
                    "midi": 66,
                    "time": 879.182650500004,
                    "velocity": 0.5196850393700787,
                    "duration": 0.4345935000000054
                },
                {
                    "name": "A4",
                    "midi": 69,
                    "time": 879.617244000004,
                    "velocity": 0.5433070866141733,
                    "duration": 2.6075610000000324
                },
                {
                    "name": "E4",
                    "midi": 64,
                    "time": 880.486431000004,
                    "velocity": 0.4094488188976378,
                    "duration": 0.8601329687500083
                },
                {
                    "name": "A#3",
                    "midi": 58,
                    "time": 880.486431000004,
                    "velocity": 0.33070866141732286,
                    "duration": 0.8601329687500083
                },
                {
                    "name": "C#4",
                    "midi": 61,
                    "time": 880.486431000004,
                    "velocity": 0.33070866141732286,
                    "duration": 0.8601329687500083
                },
                {
                    "name": "A#3",
                    "midi": 58,
                    "time": 881.355618000004,
                    "velocity": 0.33070866141732286,
                    "duration": 0.8601329687500083
                },
                {
                    "name": "E4",
                    "midi": 64,
                    "time": 881.355618000004,
                    "velocity": 0.4330708661417323,
                    "duration": 0.8601329687500083
                },
                {
                    "name": "C#4",
                    "midi": 61,
                    "time": 881.355618000004,
                    "velocity": 0.33070866141732286,
                    "duration": 0.8601329687500083
                },
                {
                    "name": "G4",
                    "midi": 67,
                    "time": 882.224805000004,
                    "velocity": 0.5354330708661418,
                    "duration": 1.7383740000000216
                },
                {
                    "name": "E4",
                    "midi": 64,
                    "time": 883.093992000004,
                    "velocity": 0.44881889763779526,
                    "duration": 0.8691870000000108
                },
                {
                    "name": "A#3",
                    "midi": 58,
                    "time": 883.093992000004,
                    "velocity": 0.3543307086614173,
                    "duration": 0.8691870000000108
                },
                {
                    "name": "C#4",
                    "midi": 61,
                    "time": 883.093992000004,
                    "velocity": 0.3543307086614173,
                    "duration": 0.8691870000000108
                },
                {
                    "name": "A4",
                    "midi": 69,
                    "time": 883.9631790000041,
                    "velocity": 0.5905511811023622,
                    "duration": 0.8691870000000108
                },
                {
                    "name": "D1",
                    "midi": 26,
                    "time": 884.8323660000041,
                    "velocity": 0.5511811023622047,
                    "duration": 0.8691870000000108
                },
                {
                    "name": "D2",
                    "midi": 38,
                    "time": 884.8323660000041,
                    "velocity": 0.6456692913385826,
                    "duration": 0.8691870000000108
                },
                {
                    "name": "D3",
                    "midi": 50,
                    "time": 885.7015530000041,
                    "velocity": 0.4409448818897638,
                    "duration": 0.8691870000000108
                },
                {
                    "name": "A#3",
                    "midi": 58,
                    "time": 885.7015530000041,
                    "velocity": 0.5196850393700787,
                    "duration": 0.8691870000000108
                },
                {
                    "name": "D4",
                    "midi": 62,
                    "time": 886.5707400000041,
                    "velocity": 0.5196850393700787,
                    "duration": 0.8691870000000108
                },
                {
                    "name": "G3",
                    "midi": 55,
                    "time": 886.5707400000041,
                    "velocity": 0.4409448818897638,
                    "duration": 0.8691870000000108
                },
                {
                    "name": "A#3",
                    "midi": 58,
                    "time": 887.4399270000041,
                    "velocity": 0.4409448818897638,
                    "duration": 0.8691870000000108
                },
                {
                    "name": "G4",
                    "midi": 67,
                    "time": 887.4399270000041,
                    "velocity": 0.5196850393700787,
                    "duration": 0.8691870000000108
                },
                {
                    "name": "G3",
                    "midi": 55,
                    "time": 888.3091140000041,
                    "velocity": 0.4409448818897638,
                    "duration": 0.8691870000000108
                },
                {
                    "name": "D4",
                    "midi": 62,
                    "time": 888.3091140000041,
                    "velocity": 0.5196850393700787,
                    "duration": 0.8691870000000108
                },
                {
                    "name": "A#3",
                    "midi": 58,
                    "time": 889.1783010000041,
                    "velocity": 0.6220472440944882,
                    "duration": 0.8691870000000108
                },
                {
                    "name": "D3",
                    "midi": 50,
                    "time": 889.1783010000041,
                    "velocity": 0.5275590551181102,
                    "duration": 0.8691870000000108
                },
                {
                    "name": "D1",
                    "midi": 26,
                    "time": 890.0474880000041,
                    "velocity": 0.4409448818897638,
                    "duration": 0.8691870000000108
                },
                {
                    "name": "D2",
                    "midi": 38,
                    "time": 890.0474880000041,
                    "velocity": 0.5196850393700787,
                    "duration": 0.8691870000000108
                },
                {
                    "name": "D3",
                    "midi": 50,
                    "time": 890.9166750000041,
                    "velocity": 0.4409448818897638,
                    "duration": 0.8691870000000108
                },
                {
                    "name": "C4",
                    "midi": 60,
                    "time": 890.9166750000041,
                    "velocity": 0.5196850393700787,
                    "duration": 0.8691870000000108
                },
                {
                    "name": "F#3",
                    "midi": 54,
                    "time": 890.9166750000041,
                    "velocity": 0.4409448818897638,
                    "duration": 0.8691870000000108
                },
                {
                    "name": "D4",
                    "midi": 62,
                    "time": 891.7858620000042,
                    "velocity": 0.4645669291338583,
                    "duration": 0.8691870000000108
                },
                {
                    "name": "F#3",
                    "midi": 54,
                    "time": 891.7858620000042,
                    "velocity": 0.3858267716535433,
                    "duration": 0.8691870000000108
                },
                {
                    "name": "C4",
                    "midi": 60,
                    "time": 891.7858620000042,
                    "velocity": 0.3858267716535433,
                    "duration": 0.8691870000000108
                },
                {
                    "name": "C4",
                    "midi": 60,
                    "time": 892.6550490000042,
                    "velocity": 0.4330708661417323,
                    "duration": 0.8691870000000108
                },
                {
                    "name": "F#4",
                    "midi": 66,
                    "time": 892.6550490000042,
                    "velocity": 0.5039370078740157,
                    "duration": 0.8691870000000108
                },
                {
                    "name": "C4",
                    "midi": 60,
                    "time": 893.5242360000042,
                    "velocity": 0.4566929133858268,
                    "duration": 0.8691870000000108
                },
                {
                    "name": "F#3",
                    "midi": 54,
                    "time": 893.5242360000042,
                    "velocity": 0.4566929133858268,
                    "duration": 0.8691870000000108
                },
                {
                    "name": "D4",
                    "midi": 62,
                    "time": 893.5242360000042,
                    "velocity": 0.5433070866141733,
                    "duration": 0.8691870000000108
                },
                {
                    "name": "D3",
                    "midi": 50,
                    "time": 894.3934230000042,
                    "velocity": 0.48031496062992124,
                    "duration": 0.8691870000000108
                },
                {
                    "name": "F#3",
                    "midi": 54,
                    "time": 894.3934230000042,
                    "velocity": 0.48031496062992124,
                    "duration": 0.8691870000000108
                },
                {
                    "name": "C4",
                    "midi": 60,
                    "time": 894.3934230000042,
                    "velocity": 0.5748031496062992,
                    "duration": 0.8691870000000108
                },
                {
                    "name": "G2",
                    "midi": 43,
                    "time": 895.2626100000042,
                    "velocity": 0.5748031496062992,
                    "duration": 0.4345935000000054
                },
                {
                    "name": "G1",
                    "midi": 31,
                    "time": 895.2626100000042,
                    "velocity": 0.5748031496062992,
                    "duration": 0.4345935000000054
                },
                {
                    "name": "D4",
                    "midi": 62,
                    "time": 896.1317970000042,
                    "velocity": 0.4330708661417323,
                    "duration": 0.4345935000000054
                },
                {
                    "name": "G4",
                    "midi": 67,
                    "time": 896.1317970000042,
                    "velocity": 0.5196850393700787,
                    "duration": 0.4345935000000054
                },
                {
                    "name": "A#3",
                    "midi": 58,
                    "time": 896.1317970000042,
                    "velocity": 0.4330708661417323,
                    "duration": 0.4345935000000054
                },
                {
                    "name": "A#2",
                    "midi": 46,
                    "time": 896.5663905000042,
                    "velocity": 0.41732283464566927,
                    "duration": 0.21729674999994586
                },
                {
                    "name": "G4",
                    "midi": 67,
                    "time": 897.0009840000042,
                    "velocity": 0.5039370078740157,
                    "duration": 0.4345935000000054
                },
                {
                    "name": "A#3",
                    "midi": 58,
                    "time": 897.0009840000042,
                    "velocity": 0.41732283464566927,
                    "duration": 0.4345935000000054
                },
                {
                    "name": "D4",
                    "midi": 62,
                    "time": 897.0009840000042,
                    "velocity": 0.41732283464566927,
                    "duration": 0.4345935000000054
                },
                {
                    "name": "D3",
                    "midi": 50,
                    "time": 897.4355775000042,
                    "velocity": 0.44881889763779526,
                    "duration": 0.21729674999994586
                },
                {
                    "name": "G4",
                    "midi": 67,
                    "time": 897.8701710000042,
                    "velocity": 0.5039370078740157,
                    "duration": 0.4345935000000054
                },
                {
                    "name": "D4",
                    "midi": 62,
                    "time": 897.8701710000042,
                    "velocity": 0.41732283464566927,
                    "duration": 0.4345935000000054
                },
                {
                    "name": "A#3",
                    "midi": 58,
                    "time": 897.8701710000042,
                    "velocity": 0.41732283464566927,
                    "duration": 0.4345935000000054
                },
                {
                    "name": "G3",
                    "midi": 55,
                    "time": 898.3047645000042,
                    "velocity": 0.4251968503937008,
                    "duration": 0.21729674999994586
                },
                {
                    "name": "D#4",
                    "midi": 63,
                    "time": 898.7393580000042,
                    "velocity": 0.41732283464566927,
                    "duration": 0.4345935000000054
                },
                {
                    "name": "C4",
                    "midi": 60,
                    "time": 898.7393580000042,
                    "velocity": 0.41732283464566927,
                    "duration": 0.4345935000000054
                },
                {
                    "name": "A3",
                    "midi": 57,
                    "time": 898.7393580000042,
                    "velocity": 0.41732283464566927,
                    "duration": 0.4345935000000054
                },
                {
                    "name": "G4",
                    "midi": 67,
                    "time": 898.7393580000042,
                    "velocity": 0.5039370078740157,
                    "duration": 0.4345935000000054
                },
                {
                    "name": "A2",
                    "midi": 45,
                    "time": 899.1739515000043,
                    "velocity": 0.4330708661417323,
                    "duration": 0.21729674999994586
                },
                {
                    "name": "C4",
                    "midi": 60,
                    "time": 899.6085450000041,
                    "velocity": 0.41732283464566927,
                    "duration": 0.4345934999998917
                },
                {
                    "name": "G4",
                    "midi": 67,
                    "time": 899.6085450000041,
                    "velocity": 0.5039370078740157,
                    "duration": 0.4345934999998917
                },
                {
                    "name": "D#4",
                    "midi": 63,
                    "time": 899.6085450000041,
                    "velocity": 0.41732283464566927,
                    "duration": 0.4345934999998917
                },
                {
                    "name": "A3",
                    "midi": 57,
                    "time": 900.043138500004,
                    "velocity": 0.4330708661417323,
                    "duration": 0.21729674999994586
                },
                {
                    "name": "F#4",
                    "midi": 66,
                    "time": 900.477732000004,
                    "velocity": 0.5039370078740157,
                    "duration": 0.4345935000000054
                },
                {
                    "name": "D4",
                    "midi": 62,
                    "time": 900.477732000004,
                    "velocity": 0.41732283464566927,
                    "duration": 0.4345935000000054
                },
                {
                    "name": "C4",
                    "midi": 60,
                    "time": 900.477732000004,
                    "velocity": 0.41732283464566927,
                    "duration": 0.4345935000000054
                },
                {
                    "name": "D3",
                    "midi": 50,
                    "time": 900.912325500004,
                    "velocity": 0.4409448818897638,
                    "duration": 0.21729674999994586
                },
                {
                    "name": "C4",
                    "midi": 60,
                    "time": 901.346919000004,
                    "velocity": 0.41732283464566927,
                    "duration": 0.4345935000000054
                },
                {
                    "name": "F#4",
                    "midi": 66,
                    "time": 901.346919000004,
                    "velocity": 0.49606299212598426,
                    "duration": 0.4345935000000054
                },
                {
                    "name": "D4",
                    "midi": 62,
                    "time": 901.346919000004,
                    "velocity": 0.41732283464566927,
                    "duration": 0.4345935000000054
                },
                {
                    "name": "A3",
                    "midi": 57,
                    "time": 901.781512500004,
                    "velocity": 0.4409448818897638,
                    "duration": 0.21729674999994586
                },
                {
                    "name": "G3",
                    "midi": 55,
                    "time": 902.216106000004,
                    "velocity": 0.4330708661417323,
                    "duration": 0.4345935000000054
                },
                {
                    "name": "D4",
                    "midi": 62,
                    "time": 902.216106000004,
                    "velocity": 0.4330708661417323,
                    "duration": 0.4345935000000054
                },
                {
                    "name": "G4",
                    "midi": 67,
                    "time": 902.216106000004,
                    "velocity": 0.5196850393700787,
                    "duration": 0.4345935000000054
                },
                {
                    "name": "G2",
                    "midi": 43,
                    "time": 902.650699500004,
                    "velocity": 0.41732283464566927,
                    "duration": 0.21729674999994586
                },
                {
                    "name": "D4",
                    "midi": 62,
                    "time": 903.0852930000038,
                    "velocity": 0.4330708661417323,
                    "duration": 0.4345935000000054
                },
                {
                    "name": "G4",
                    "midi": 67,
                    "time": 903.0852930000038,
                    "velocity": 0.5196850393700787,
                    "duration": 0.4345935000000054
                },
                {
                    "name": "A#3",
                    "midi": 58,
                    "time": 903.0852930000038,
                    "velocity": 0.4330708661417323,
                    "duration": 0.4345935000000054
                },
                {
                    "name": "A#2",
                    "midi": 46,
                    "time": 903.5198865000038,
                    "velocity": 0.41732283464566927,
                    "duration": 0.21729674999994586
                },
                {
                    "name": "A#3",
                    "midi": 58,
                    "time": 903.9544800000039,
                    "velocity": 0.41732283464566927,
                    "duration": 0.4345935000000054
                },
                {
                    "name": "G4",
                    "midi": 67,
                    "time": 903.9544800000039,
                    "velocity": 0.5039370078740157,
                    "duration": 0.4345935000000054
                },
                {
                    "name": "D4",
                    "midi": 62,
                    "time": 903.9544800000039,
                    "velocity": 0.41732283464566927,
                    "duration": 0.4345935000000054
                },
                {
                    "name": "D3",
                    "midi": 50,
                    "time": 904.3890735000039,
                    "velocity": 0.44881889763779526,
                    "duration": 0.21729674999994586
                },
                {
                    "name": "G4",
                    "midi": 67,
                    "time": 904.8236670000039,
                    "velocity": 0.5039370078740157,
                    "duration": 0.4345935000000054
                },
                {
                    "name": "D4",
                    "midi": 62,
                    "time": 904.8236670000039,
                    "velocity": 0.41732283464566927,
                    "duration": 0.4345935000000054
                },
                {
                    "name": "A#3",
                    "midi": 58,
                    "time": 904.8236670000039,
                    "velocity": 0.41732283464566927,
                    "duration": 0.4345935000000054
                },
                {
                    "name": "G3",
                    "midi": 55,
                    "time": 905.2582605000039,
                    "velocity": 0.4251968503937008,
                    "duration": 0.21729674999994586
                },
                {
                    "name": "D#4",
                    "midi": 63,
                    "time": 905.6928540000038,
                    "velocity": 0.41732283464566927,
                    "duration": 0.4345935000000054
                },
                {
                    "name": "C4",
                    "midi": 60,
                    "time": 905.6928540000038,
                    "velocity": 0.41732283464566927,
                    "duration": 0.4345935000000054
                },
                {
                    "name": "A3",
                    "midi": 57,
                    "time": 905.6928540000038,
                    "velocity": 0.41732283464566927,
                    "duration": 0.4345935000000054
                },
                {
                    "name": "G4",
                    "midi": 67,
                    "time": 905.6928540000038,
                    "velocity": 0.5039370078740157,
                    "duration": 0.4345935000000054
                },
                {
                    "name": "A2",
                    "midi": 45,
                    "time": 906.1274475000038,
                    "velocity": 0.4330708661417323,
                    "duration": 0.21729674999994586
                },
                {
                    "name": "G4",
                    "midi": 67,
                    "time": 906.5620410000037,
                    "velocity": 0.5039370078740157,
                    "duration": 0.4345934999998917
                },
                {
                    "name": "D#4",
                    "midi": 63,
                    "time": 906.5620410000037,
                    "velocity": 0.41732283464566927,
                    "duration": 0.4345934999998917
                },
                {
                    "name": "C4",
                    "midi": 60,
                    "time": 906.5620410000037,
                    "velocity": 0.41732283464566927,
                    "duration": 0.4345934999998917
                },
                {
                    "name": "A3",
                    "midi": 57,
                    "time": 906.9966345000036,
                    "velocity": 0.4330708661417323,
                    "duration": 0.21729674999994586
                },
                {
                    "name": "D4",
                    "midi": 62,
                    "time": 907.4312280000034,
                    "velocity": 0.41732283464566927,
                    "duration": 0.4345935000000054
                },
                {
                    "name": "F#4",
                    "midi": 66,
                    "time": 907.4312280000034,
                    "velocity": 0.5039370078740157,
                    "duration": 0.4345935000000054
                },
                {
                    "name": "C4",
                    "midi": 60,
                    "time": 907.4312280000034,
                    "velocity": 0.41732283464566927,
                    "duration": 0.4345935000000054
                },
                {
                    "name": "D3",
                    "midi": 50,
                    "time": 907.8658215000034,
                    "velocity": 0.4409448818897638,
                    "duration": 0.21729674999994586
                },
                {
                    "name": "D4",
                    "midi": 62,
                    "time": 908.3004150000033,
                    "velocity": 0.41732283464566927,
                    "duration": 0.4345935000000054
                },
                {
                    "name": "C4",
                    "midi": 60,
                    "time": 908.3004150000033,
                    "velocity": 0.41732283464566927,
                    "duration": 0.4345935000000054
                },
                {
                    "name": "F#4",
                    "midi": 66,
                    "time": 908.3004150000033,
                    "velocity": 0.49606299212598426,
                    "duration": 0.4345935000000054
                },
                {
                    "name": "A3",
                    "midi": 57,
                    "time": 908.7350085000033,
                    "velocity": 0.4409448818897638,
                    "duration": 0.21729674999994586
                },
                {
                    "name": "D4",
                    "midi": 62,
                    "time": 909.1696020000032,
                    "velocity": 0.41732283464566927,
                    "duration": 0.4345935000000054
                },
                {
                    "name": "G3",
                    "midi": 55,
                    "time": 909.1696020000032,
                    "velocity": 0.41732283464566927,
                    "duration": 0.4345935000000054
                },
                {
                    "name": "G4",
                    "midi": 67,
                    "time": 909.1696020000032,
                    "velocity": 0.49606299212598426,
                    "duration": 0.4345935000000054
                },
                {
                    "name": "C3",
                    "midi": 48,
                    "time": 909.6041955000032,
                    "velocity": 0.5118110236220472,
                    "duration": 1.3037805000000162
                },
                {
                    "name": "G#3",
                    "midi": 56,
                    "time": 910.4733825000033,
                    "velocity": 0.3700787401574803,
                    "duration": 0.4345935000000054
                },
                {
                    "name": "D#4",
                    "midi": 63,
                    "time": 910.4733825000033,
                    "velocity": 0.4409448818897638,
                    "duration": 0.4345935000000054
                },
                {
                    "name": "D3",
                    "midi": 50,
                    "time": 910.9079760000033,
                    "velocity": 0.49606299212598426,
                    "duration": 0.21729674999994586
                },
                {
                    "name": "A3",
                    "midi": 57,
                    "time": 911.3425695000032,
                    "velocity": 0.3779527559055118,
                    "duration": 0.4345935000000054
                },
                {
                    "name": "D4",
                    "midi": 62,
                    "time": 911.3425695000032,
                    "velocity": 0.44881889763779526,
                    "duration": 0.4345935000000054
                },
                {
                    "name": "C4",
                    "midi": 60,
                    "time": 911.3425695000032,
                    "velocity": 0.3779527559055118,
                    "duration": 0.4345935000000054
                },
                {
                    "name": "G2",
                    "midi": 43,
                    "time": 911.7771630000032,
                    "velocity": 0.49606299212598426,
                    "duration": 0.21729675000005955
                },
                {
                    "name": "A#3",
                    "midi": 58,
                    "time": 912.2117565000032,
                    "velocity": 0.3700787401574803,
                    "duration": 0.4345935000000054
                },
                {
                    "name": "G3",
                    "midi": 55,
                    "time": 912.2117565000032,
                    "velocity": 0.3700787401574803,
                    "duration": 0.4345935000000054
                },
                {
                    "name": "D4",
                    "midi": 62,
                    "time": 912.2117565000032,
                    "velocity": 0.4330708661417323,
                    "duration": 0.4345935000000054
                },
                {
                    "name": "C3",
                    "midi": 48,
                    "time": 912.6463500000032,
                    "velocity": 0.5118110236220472,
                    "duration": 1.7383740000000216
                },
                {
                    "name": "D#4",
                    "midi": 63,
                    "time": 913.0809435000032,
                    "velocity": 0.41732283464566927,
                    "duration": 0.8691870000000108
                },
                {
                    "name": "G#3",
                    "midi": 56,
                    "time": 913.0809435000032,
                    "velocity": 0.3464566929133858,
                    "duration": 0.8691870000000108
                },
                {
                    "name": "G#3",
                    "midi": 56,
                    "time": 913.9501305000032,
                    "velocity": 0.3700787401574803,
                    "duration": 0.4345935000000054
                },
                {
                    "name": "D#4",
                    "midi": 63,
                    "time": 913.9501305000032,
                    "velocity": 0.4409448818897638,
                    "duration": 0.4345935000000054
                },
                {
                    "name": "D3",
                    "midi": 50,
                    "time": 914.3847240000032,
                    "velocity": 0.49606299212598426,
                    "duration": 0.21729674999994586
                },
                {
                    "name": "D4",
                    "midi": 62,
                    "time": 914.8193175000031,
                    "velocity": 0.44881889763779526,
                    "duration": 0.4345935000000054
                },
                {
                    "name": "C4",
                    "midi": 60,
                    "time": 914.8193175000031,
                    "velocity": 0.3779527559055118,
                    "duration": 0.4345935000000054
                },
                {
                    "name": "A3",
                    "midi": 57,
                    "time": 914.8193175000031,
                    "velocity": 0.3779527559055118,
                    "duration": 0.4345935000000054
                },
                {
                    "name": "G2",
                    "midi": 43,
                    "time": 915.2539110000031,
                    "velocity": 0.49606299212598426,
                    "duration": 0.21729674999994586
                },
                {
                    "name": "A#3",
                    "midi": 58,
                    "time": 915.688504500003,
                    "velocity": 0.3700787401574803,
                    "duration": 0.4345935000000054
                },
                {
                    "name": "G3",
                    "midi": 55,
                    "time": 915.688504500003,
                    "velocity": 0.3700787401574803,
                    "duration": 0.4345935000000054
                },
                {
                    "name": "D4",
                    "midi": 62,
                    "time": 915.688504500003,
                    "velocity": 0.4330708661417323,
                    "duration": 0.4345935000000054
                },
                {
                    "name": "B2",
                    "midi": 47,
                    "time": 916.123098000003,
                    "velocity": 0.5118110236220472,
                    "duration": 0.21729674999994586
                },
                {
                    "name": "G#3",
                    "midi": 56,
                    "time": 916.5576915000029,
                    "velocity": 0.33858267716535434,
                    "duration": 0.4345935000000054
                },
                {
                    "name": "F3",
                    "midi": 53,
                    "time": 916.5576915000029,
                    "velocity": 0.33858267716535434,
                    "duration": 0.4345935000000054
                },
                {
                    "name": "D4",
                    "midi": 62,
                    "time": 916.5576915000029,
                    "velocity": 0.4015748031496063,
                    "duration": 0.4345935000000054
                },
                {
                    "name": "C3",
                    "midi": 48,
                    "time": 916.9922850000029,
                    "velocity": 0.47244094488188976,
                    "duration": 0.8691870000000108
                },
                {
                    "name": "G#3",
                    "midi": 56,
                    "time": 917.4268785000029,
                    "velocity": 0.33070866141732286,
                    "duration": 0.4345935000000054
                },
                {
                    "name": "D#3",
                    "midi": 51,
                    "time": 917.4268785000029,
                    "velocity": 0.33070866141732286,
                    "duration": 0.4345935000000054
                },
                {
                    "name": "C4",
                    "midi": 60,
                    "time": 917.4268785000029,
                    "velocity": 0.3937007874015748,
                    "duration": 0.4345935000000054
                },
                {
                    "name": "D3",
                    "midi": 50,
                    "time": 917.8614720000029,
                    "velocity": 0.4409448818897638,
                    "duration": 0.8691870000000108
                },
                {
                    "name": "G#3",
                    "midi": 56,
                    "time": 918.2960655000029,
                    "velocity": 0.33858267716535434,
                    "duration": 0.4345935000000054
                },
                {
                    "name": "F3",
                    "midi": 53,
                    "time": 918.2960655000029,
                    "velocity": 0.33858267716535434,
                    "duration": 0.4345935000000054
                },
                {
                    "name": "B3",
                    "midi": 59,
                    "time": 918.2960655000029,
                    "velocity": 0.4015748031496063,
                    "duration": 0.4345935000000054
                },
                {
                    "name": "D#3",
                    "midi": 51,
                    "time": 918.7306590000029,
                    "velocity": 0.4409448818897638,
                    "duration": 0.8691870000000108
                },
                {
                    "name": "G#3",
                    "midi": 56,
                    "time": 919.1652525000029,
                    "velocity": 0.3858267716535433,
                    "duration": 0.4345935000000054
                },
                {
                    "name": "F#2",
                    "midi": 42,
                    "time": 919.5998460000029,
                    "velocity": 0.4409448818897638,
                    "duration": 0.21729674999994586
                },
                {
                    "name": "C4",
                    "midi": 60,
                    "time": 920.0344395000028,
                    "velocity": 0.33858267716535434,
                    "duration": 0.4345935000000054
                },
                {
                    "name": "F#3",
                    "midi": 54,
                    "time": 920.0344395000028,
                    "velocity": 0.33858267716535434,
                    "duration": 0.4345935000000054
                },
                {
                    "name": "D#4",
                    "midi": 63,
                    "time": 920.0344395000028,
                    "velocity": 0.4015748031496063,
                    "duration": 0.4345935000000054
                },
                {
                    "name": "G3",
                    "midi": 55,
                    "time": 920.4690330000028,
                    "velocity": 0.33858267716535434,
                    "duration": 0.4345935000000054
                },
                {
                    "name": "D4",
                    "midi": 62,
                    "time": 920.4690330000028,
                    "velocity": 0.41732283464566927,
                    "duration": 0.4345935000000054
                },
                {
                    "name": "A#3",
                    "midi": 58,
                    "time": 920.4690330000028,
                    "velocity": 0.33858267716535434,
                    "duration": 0.4345935000000054
                },
                {
                    "name": "G2",
                    "midi": 43,
                    "time": 920.9036265000028,
                    "velocity": 0.4409448818897638,
                    "duration": 0.21729674999994586
                },
                {
                    "name": "C3",
                    "midi": 48,
                    "time": 921.3382200000027,
                    "velocity": 0.4409448818897638,
                    "duration": 0.21729674999994586
                },
                {
                    "name": "G4",
                    "midi": 67,
                    "time": 921.7728135000026,
                    "velocity": 0.4015748031496063,
                    "duration": 0.4309718875000499
                },
                {
                    "name": "A3",
                    "midi": 57,
                    "time": 921.7728135000026,
                    "velocity": 0.33858267716535434,
                    "duration": 0.4345935000000054
                },
                {
                    "name": "D#4",
                    "midi": 63,
                    "time": 921.7728135000026,
                    "velocity": 0.33858267716535434,
                    "duration": 0.4345935000000054
                },
                {
                    "name": "D3",
                    "midi": 50,
                    "time": 922.2074070000026,
                    "velocity": 0.4409448818897638,
                    "duration": 0.8691870000000108
                },
                {
                    "name": "A3",
                    "midi": 57,
                    "time": 922.6420005000026,
                    "velocity": 0.33858267716535434,
                    "duration": 0.4345935000000054
                },
                {
                    "name": "C4",
                    "midi": 60,
                    "time": 922.6420005000026,
                    "velocity": 0.33858267716535434,
                    "duration": 0.4345935000000054
                },
                {
                    "name": "D4",
                    "midi": 62,
                    "time": 922.6420005000026,
                    "velocity": 0.4015748031496063,
                    "duration": 0.4345935000000054
                },
                {
                    "name": "G3",
                    "midi": 55,
                    "time": 923.0765940000026,
                    "velocity": 0.41732283464566927,
                    "duration": 0.21729674999994586
                },
                {
                    "name": "D4",
                    "midi": 62,
                    "time": 923.0765940000026,
                    "velocity": 0.49606299212598426,
                    "duration": 0.21729674999994586
                },
                {
                    "name": "A#3",
                    "midi": 58,
                    "time": 923.0874588375026,
                    "velocity": 0.41732283464566927,
                    "duration": 0.21729674999994586
                },
                {
                    "name": "C3",
                    "midi": 48,
                    "time": 923.5111875000025,
                    "velocity": 0.5118110236220472,
                    "duration": 1.3037805000000162
                },
                {
                    "name": "G#3",
                    "midi": 56,
                    "time": 924.3803745000025,
                    "velocity": 0.3700787401574803,
                    "duration": 0.4345935000000054
                },
                {
                    "name": "D#4",
                    "midi": 63,
                    "time": 924.3803745000025,
                    "velocity": 0.4409448818897638,
                    "duration": 0.4345935000000054
                },
                {
                    "name": "D3",
                    "midi": 50,
                    "time": 924.8149680000025,
                    "velocity": 0.49606299212598426,
                    "duration": 0.21729674999994586
                },
                {
                    "name": "D4",
                    "midi": 62,
                    "time": 925.2495615000024,
                    "velocity": 0.44881889763779526,
                    "duration": 0.4345935000000054
                },
                {
                    "name": "A3",
                    "midi": 57,
                    "time": 925.2495615000024,
                    "velocity": 0.3779527559055118,
                    "duration": 0.4345935000000054
                },
                {
                    "name": "C4",
                    "midi": 60,
                    "time": 925.2495615000024,
                    "velocity": 0.3779527559055118,
                    "duration": 0.4345935000000054
                },
                {
                    "name": "G2",
                    "midi": 43,
                    "time": 925.6841550000024,
                    "velocity": 0.49606299212598426,
                    "duration": 0.21729674999994586
                },
                {
                    "name": "A#3",
                    "midi": 58,
                    "time": 926.1187485000023,
                    "velocity": 0.3700787401574803,
                    "duration": 0.4345935000000054
                },
                {
                    "name": "G3",
                    "midi": 55,
                    "time": 926.1187485000023,
                    "velocity": 0.3700787401574803,
                    "duration": 0.4345935000000054
                },
                {
                    "name": "D4",
                    "midi": 62,
                    "time": 926.1187485000023,
                    "velocity": 0.4330708661417323,
                    "duration": 0.4345935000000054
                },
                {
                    "name": "C3",
                    "midi": 48,
                    "time": 926.5533420000023,
                    "velocity": 0.5118110236220472,
                    "duration": 1.7383740000000216
                },
                {
                    "name": "G#3",
                    "midi": 56,
                    "time": 926.9879355000023,
                    "velocity": 0.3464566929133858,
                    "duration": 1.3037805000000162
                },
                {
                    "name": "D#4",
                    "midi": 63,
                    "time": 926.9879355000023,
                    "velocity": 0.41732283464566927,
                    "duration": 1.3037805000000162
                },
                {
                    "name": "D3",
                    "midi": 50,
                    "time": 927.4225290000023,
                    "velocity": 0.5669291338582677,
                    "duration": 0.4345935000000054
                },
                {
                    "name": "D#3",
                    "midi": 51,
                    "time": 927.8571225000023,
                    "velocity": 0.5669291338582677,
                    "duration": 0.4345935000000054
                },
                {
                    "name": "D3",
                    "midi": 50,
                    "time": 928.2917160000023,
                    "velocity": 0.49606299212598426,
                    "duration": 0.21729674999994586
                },
                {
                    "name": "D4",
                    "midi": 62,
                    "time": 928.7263095000022,
                    "velocity": 0.44881889763779526,
                    "duration": 0.4345935000000054
                },
                {
                    "name": "A3",
                    "midi": 57,
                    "time": 928.7263095000022,
                    "velocity": 0.3779527559055118,
                    "duration": 0.4345935000000054
                },
                {
                    "name": "C4",
                    "midi": 60,
                    "time": 928.7263095000022,
                    "velocity": 0.3779527559055118,
                    "duration": 0.4345935000000054
                },
                {
                    "name": "G2",
                    "midi": 43,
                    "time": 929.1609030000022,
                    "velocity": 0.49606299212598426,
                    "duration": 0.21729675000005955
                },
                {
                    "name": "D4",
                    "midi": 62,
                    "time": 929.5954965000022,
                    "velocity": 0.4330708661417323,
                    "duration": 0.4345935000000054
                },
                {
                    "name": "G3",
                    "midi": 55,
                    "time": 929.5954965000022,
                    "velocity": 0.3700787401574803,
                    "duration": 0.4345935000000054
                },
                {
                    "name": "A#3",
                    "midi": 58,
                    "time": 929.5954965000022,
                    "velocity": 0.3700787401574803,
                    "duration": 0.4345935000000054
                },
                {
                    "name": "B2",
                    "midi": 47,
                    "time": 930.0300900000022,
                    "velocity": 0.5118110236220472,
                    "duration": 0.21729674999994586
                },
                {
                    "name": "B1",
                    "midi": 35,
                    "time": 930.0300900000022,
                    "velocity": 0.4251968503937008,
                    "duration": 0.21729674999994586
                },
                {
                    "name": "F3",
                    "midi": 53,
                    "time": 930.4646835000021,
                    "velocity": 0.33858267716535434,
                    "duration": 0.4345935000000054
                },
                {
                    "name": "D4",
                    "midi": 62,
                    "time": 930.4646835000021,
                    "velocity": 0.4015748031496063,
                    "duration": 0.4345935000000054
                },
                {
                    "name": "G#3",
                    "midi": 56,
                    "time": 930.4646835000021,
                    "velocity": 0.33858267716535434,
                    "duration": 0.4345935000000054
                },
                {
                    "name": "C3",
                    "midi": 48,
                    "time": 930.8992770000021,
                    "velocity": 0.47244094488188976,
                    "duration": 0.21729675000005955
                },
                {
                    "name": "C2",
                    "midi": 36,
                    "time": 930.8992770000021,
                    "velocity": 0.4015748031496063,
                    "duration": 0.21729675000005955
                },
                {
                    "name": "C4",
                    "midi": 60,
                    "time": 931.3338705000021,
                    "velocity": 0.3937007874015748,
                    "duration": 0.4345935000000054
                },
                {
                    "name": "D#3",
                    "midi": 51,
                    "time": 931.3338705000021,
                    "velocity": 0.33070866141732286,
                    "duration": 0.4345935000000054
                },
                {
                    "name": "G3",
                    "midi": 55,
                    "time": 931.3338705000021,
                    "velocity": 0.33070866141732286,
                    "duration": 0.4345935000000054
                },
                {
                    "name": "D2",
                    "midi": 38,
                    "time": 931.7684640000022,
                    "velocity": 0.4251968503937008,
                    "duration": 0.21729674999994586
                },
                {
                    "name": "D3",
                    "midi": 50,
                    "time": 931.7684640000022,
                    "velocity": 0.5118110236220472,
                    "duration": 0.21729674999994586
                },
                {
                    "name": "F#3",
                    "midi": 54,
                    "time": 932.203057500002,
                    "velocity": 0.33858267716535434,
                    "duration": 0.4345935000000054
                },
                {
                    "name": "A3",
                    "midi": 57,
                    "time": 932.203057500002,
                    "velocity": 0.4015748031496063,
                    "duration": 0.4345935000000054
                },
                {
                    "name": "E2",
                    "midi": 40,
                    "time": 932.637651000002,
                    "velocity": 0.4015748031496063,
                    "duration": 0.21729674999994586
                },
                {
                    "name": "E3",
                    "midi": 52,
                    "time": 932.637651000002,
                    "velocity": 0.47244094488188976,
                    "duration": 0.21729674999994586
                },
                {
                    "name": "A#3",
                    "midi": 58,
                    "time": 933.072244500002,
                    "velocity": 0.3937007874015748,
                    "duration": 0.4345935000000054
                },
                {
                    "name": "G3",
                    "midi": 55,
                    "time": 933.072244500002,
                    "velocity": 0.33070866141732286,
                    "duration": 0.4345935000000054
                },
                {
                    "name": "F#3",
                    "midi": 54,
                    "time": 933.506838000002,
                    "velocity": 0.5118110236220472,
                    "duration": 0.21729674999994586
                },
                {
                    "name": "F#2",
                    "midi": 42,
                    "time": 933.506838000002,
                    "velocity": 0.4251968503937008,
                    "duration": 0.21729674999994586
                },
                {
                    "name": "C4",
                    "midi": 60,
                    "time": 933.9414315000018,
                    "velocity": 0.33858267716535434,
                    "duration": 0.4345935000000054
                },
                {
                    "name": "D#4",
                    "midi": 63,
                    "time": 933.9414315000018,
                    "velocity": 0.4015748031496063,
                    "duration": 0.4345935000000054
                },
                {
                    "name": "F#3",
                    "midi": 54,
                    "time": 933.9414315000018,
                    "velocity": 0.33858267716535434,
                    "duration": 0.4345935000000054
                },
                {
                    "name": "G3",
                    "midi": 55,
                    "time": 934.3760250000018,
                    "velocity": 0.33858267716535434,
                    "duration": 0.4345935000000054
                },
                {
                    "name": "C4",
                    "midi": 60,
                    "time": 934.3760250000018,
                    "velocity": 0.33858267716535434,
                    "duration": 0.4345935000000054
                },
                {
                    "name": "D#4",
                    "midi": 63,
                    "time": 934.3760250000018,
                    "velocity": 0.4015748031496063,
                    "duration": 0.4345935000000054
                },
                {
                    "name": "G2",
                    "midi": 43,
                    "time": 934.8106185000019,
                    "velocity": 0.3779527559055118,
                    "duration": 0.21729674999994586
                },
                {
                    "name": "G3",
                    "midi": 55,
                    "time": 934.8106185000019,
                    "velocity": 0.4566929133858268,
                    "duration": 0.21729674999994586
                },
                {
                    "name": "G#2",
                    "midi": 44,
                    "time": 935.2452120000017,
                    "velocity": 0.4330708661417323,
                    "duration": 0.21729675000005955
                },
                {
                    "name": "G#3",
                    "midi": 56,
                    "time": 935.2452120000017,
                    "velocity": 0.5196850393700787,
                    "duration": 0.21729675000005955
                },
                {
                    "name": "D#4",
                    "midi": 63,
                    "time": 935.6798055000017,
                    "velocity": 0.3464566929133858,
                    "duration": 0.4345935000000054
                },
                {
                    "name": "G4",
                    "midi": 67,
                    "time": 935.6798055000017,
                    "velocity": 0.4094488188976378,
                    "duration": 0.4345935000000054
                },
                {
                    "name": "G#3",
                    "midi": 56,
                    "time": 935.6798055000017,
                    "velocity": 0.3464566929133858,
                    "duration": 0.4345935000000054
                },
                {
                    "name": "A3",
                    "midi": 57,
                    "time": 936.1143990000018,
                    "velocity": 0.3543307086614173,
                    "duration": 0.4345935000000054
                },
                {
                    "name": "G4",
                    "midi": 67,
                    "time": 936.1143990000018,
                    "velocity": 0.41732283464566927,
                    "duration": 0.4345935000000054
                },
                {
                    "name": "D#4",
                    "midi": 63,
                    "time": 936.1143990000018,
                    "velocity": 0.3543307086614173,
                    "duration": 0.4345935000000054
                },
                {
                    "name": "A2",
                    "midi": 45,
                    "time": 936.5489925000018,
                    "velocity": 0.3937007874015748,
                    "duration": 0.21729674999994586
                },
                {
                    "name": "A3",
                    "midi": 57,
                    "time": 936.5489925000018,
                    "velocity": 0.47244094488188976,
                    "duration": 0.21729674999994586
                },
                {
                    "name": "A#3",
                    "midi": 58,
                    "time": 936.9835860000017,
                    "velocity": 0.5433070866141733,
                    "duration": 0.21729674999994586
                },
                {
                    "name": "A#2",
                    "midi": 46,
                    "time": 936.9835860000017,
                    "velocity": 0.44881889763779526,
                    "duration": 0.21729674999994586
                },
                {
                    "name": "D#4",
                    "midi": 63,
                    "time": 937.4181795000015,
                    "velocity": 0.36220472440944884,
                    "duration": 0.4345935000000054
                },
                {
                    "name": "A#3",
                    "midi": 58,
                    "time": 937.4181795000015,
                    "velocity": 0.36220472440944884,
                    "duration": 0.4345935000000054
                },
                {
                    "name": "F#4",
                    "midi": 66,
                    "time": 937.4181795000015,
                    "velocity": 0.4251968503937008,
                    "duration": 0.4345935000000054
                },
                {
                    "name": "A4",
                    "midi": 69,
                    "time": 937.8527730000015,
                    "velocity": 0.4330708661417323,
                    "duration": 0.4345935000000054
                },
                {
                    "name": "B3",
                    "midi": 59,
                    "time": 937.8527730000015,
                    "velocity": 0.36220472440944884,
                    "duration": 0.4345935000000054
                },
                {
                    "name": "D#4",
                    "midi": 63,
                    "time": 937.8527730000015,
                    "velocity": 0.36220472440944884,
                    "duration": 0.4345935000000054
                },
                {
                    "name": "B2",
                    "midi": 47,
                    "time": 938.2873665000016,
                    "velocity": 0.4094488188976378,
                    "duration": 0.21729674999994586
                },
                {
                    "name": "B3",
                    "midi": 59,
                    "time": 938.2873665000016,
                    "velocity": 0.49606299212598426,
                    "duration": 0.21729674999994586
                },
                {
                    "name": "C3",
                    "midi": 48,
                    "time": 938.7219600000014,
                    "velocity": 0.4645669291338583,
                    "duration": 0.21729675000005955
                },
                {
                    "name": "C4",
                    "midi": 60,
                    "time": 938.7219600000014,
                    "velocity": 0.5590551181102362,
                    "duration": 0.21729675000005955
                },
                {
                    "name": "F#4",
                    "midi": 66,
                    "time": 939.1565535000015,
                    "velocity": 0.3700787401574803,
                    "duration": 0.8691870000000108
                },
                {
                    "name": "D4",
                    "midi": 62,
                    "time": 939.1565535000015,
                    "velocity": 0.3700787401574803,
                    "duration": 0.8691870000000108
                },
                {
                    "name": "C4",
                    "midi": 60,
                    "time": 939.1565535000015,
                    "velocity": 0.3700787401574803,
                    "duration": 0.8691870000000108
                },
                {
                    "name": "A4",
                    "midi": 69,
                    "time": 939.1565535000015,
                    "velocity": 0.4409448818897638,
                    "duration": 0.8691870000000108
                },
                {
                    "name": "C4",
                    "midi": 60,
                    "time": 940.0257405000015,
                    "velocity": 0.44881889763779526,
                    "duration": 0.4345935000000054
                },
                {
                    "name": "F#4",
                    "midi": 66,
                    "time": 940.0257405000015,
                    "velocity": 0.3779527559055118,
                    "duration": 0.4345935000000054
                },
                {
                    "name": "D4",
                    "midi": 62,
                    "time": 940.0257405000015,
                    "velocity": 0.44881889763779526,
                    "duration": 0.4345935000000054
                },
                {
                    "name": "A4",
                    "midi": 69,
                    "time": 940.0257405000015,
                    "velocity": 0.44881889763779526,
                    "duration": 0.4345935000000054
                },
                {
                    "name": "A#3",
                    "midi": 58,
                    "time": 940.4603340000015,
                    "velocity": 0.5826771653543307,
                    "duration": 0.21729675000005955
                },
                {
                    "name": "A#2",
                    "midi": 46,
                    "time": 940.4603340000015,
                    "velocity": 0.48031496062992124,
                    "duration": 0.21729675000005955
                },
                {
                    "name": "G3",
                    "midi": 55,
                    "time": 940.8949275000015,
                    "velocity": 0.3858267716535433,
                    "duration": 0.4345935000000054
                },
                {
                    "name": "D4",
                    "midi": 62,
                    "time": 940.8949275000015,
                    "velocity": 0.3858267716535433,
                    "duration": 0.4345935000000054
                },
                {
                    "name": "G4",
                    "midi": 67,
                    "time": 940.8949275000015,
                    "velocity": 0.4566929133858268,
                    "duration": 0.4345935000000054
                },
                {
                    "name": "C3",
                    "midi": 48,
                    "time": 941.3295210000015,
                    "velocity": 0.4251968503937008,
                    "duration": 0.21729674999994586
                },
                {
                    "name": "C4",
                    "midi": 60,
                    "time": 941.3295210000015,
                    "velocity": 0.5196850393700787,
                    "duration": 0.21729674999994586
                },
                {
                    "name": "A3",
                    "midi": 57,
                    "time": 941.7641145000014,
                    "velocity": 0.4251968503937008,
                    "duration": 0.4345935000000054
                },
                {
                    "name": "G4",
                    "midi": 67,
                    "time": 941.7641145000014,
                    "velocity": 0.5196850393700787,
                    "duration": 0.4345935000000054
                },
                {
                    "name": "D#4",
                    "midi": 63,
                    "time": 941.7641145000014,
                    "velocity": 0.4251968503937008,
                    "duration": 0.4345935000000054
                },
                {
                    "name": "D4",
                    "midi": 62,
                    "time": 942.1987080000014,
                    "velocity": 0.5826771653543307,
                    "duration": 0.21729675000005955
                },
                {
                    "name": "D3",
                    "midi": 50,
                    "time": 942.1987080000014,
                    "velocity": 0.48031496062992124,
                    "duration": 0.21729675000005955
                },
                {
                    "name": "A#4",
                    "midi": 70,
                    "time": 942.6333015000014,
                    "velocity": 0.4566929133858268,
                    "duration": 0.4345935000000054
                },
                {
                    "name": "G4",
                    "midi": 67,
                    "time": 942.6333015000014,
                    "velocity": 0.3858267716535433,
                    "duration": 0.4345935000000054
                },
                {
                    "name": "D4",
                    "midi": 62,
                    "time": 942.6333015000014,
                    "velocity": 0.3858267716535433,
                    "duration": 0.4345935000000054
                },
                {
                    "name": "C3",
                    "midi": 48,
                    "time": 943.0678950000014,
                    "velocity": 0.4251968503937008,
                    "duration": 0.21729674999994586
                },
                {
                    "name": "C4",
                    "midi": 60,
                    "time": 943.0678950000014,
                    "velocity": 0.5196850393700787,
                    "duration": 0.21729674999994586
                },
                {
                    "name": "F#4",
                    "midi": 66,
                    "time": 943.5024885000013,
                    "velocity": 0.4251968503937008,
                    "duration": 0.4345935000000054
                },
                {
                    "name": "A4",
                    "midi": 69,
                    "time": 943.5024885000013,
                    "velocity": 0.5196850393700787,
                    "duration": 0.4345935000000054
                },
                {
                    "name": "D4",
                    "midi": 62,
                    "time": 943.5024885000013,
                    "velocity": 0.4251968503937008,
                    "duration": 0.4345935000000054
                },
                {
                    "name": "C4",
                    "midi": 60,
                    "time": 943.5024885000013,
                    "velocity": 0.4251968503937008,
                    "duration": 0.4345935000000054
                },
                {
                    "name": "A#2",
                    "midi": 46,
                    "time": 943.9370820000013,
                    "velocity": 0.4094488188976378,
                    "duration": 0.21729674999994586
                },
                {
                    "name": "A#3",
                    "midi": 58,
                    "time": 943.9370820000013,
                    "velocity": 0.48031496062992124,
                    "duration": 0.21729674999994586
                },
                {
                    "name": "D4",
                    "midi": 62,
                    "time": 944.3716755000012,
                    "velocity": 0.36220472440944884,
                    "duration": 0.4345935000000054
                },
                {
                    "name": "G3",
                    "midi": 55,
                    "time": 944.3716755000012,
                    "velocity": 0.36220472440944884,
                    "duration": 0.4345935000000054
                },
                {
                    "name": "G4",
                    "midi": 67,
                    "time": 944.3716755000012,
                    "velocity": 0.4251968503937008,
                    "duration": 0.4345935000000054
                },
                {
                    "name": "C4",
                    "midi": 60,
                    "time": 944.8062690000012,
                    "velocity": 0.4566929133858268,
                    "duration": 0.21729674999994586
                },
                {
                    "name": "C3",
                    "midi": 48,
                    "time": 944.8062690000012,
                    "velocity": 0.3779527559055118,
                    "duration": 0.21729674999994586
                },
                {
                    "name": "A3",
                    "midi": 57,
                    "time": 945.2408625000011,
                    "velocity": 0.3779527559055118,
                    "duration": 0.4345935000000054
                },
                {
                    "name": "D#4",
                    "midi": 63,
                    "time": 945.2408625000011,
                    "velocity": 0.3779527559055118,
                    "duration": 0.4345935000000054
                },
                {
                    "name": "G4",
                    "midi": 67,
                    "time": 945.2408625000011,
                    "velocity": 0.44881889763779526,
                    "duration": 0.4345935000000054
                },
                {
                    "name": "D3",
                    "midi": 50,
                    "time": 945.6754560000011,
                    "velocity": 0.4409448818897638,
                    "duration": 0.21729675000005955
                },
                {
                    "name": "D4",
                    "midi": 62,
                    "time": 945.6754560000011,
                    "velocity": 0.5354330708661418,
                    "duration": 0.21729675000005955
                },
                {
                    "name": "G4",
                    "midi": 67,
                    "time": 946.1100495000011,
                    "velocity": 0.3858267716535433,
                    "duration": 0.4345935000000054
                },
                {
                    "name": "A#4",
                    "midi": 70,
                    "time": 946.1100495000011,
                    "velocity": 0.4566929133858268,
                    "duration": 0.4345935000000054
                },
                {
                    "name": "D4",
                    "midi": 62,
                    "time": 946.1100495000011,
                    "velocity": 0.3858267716535433,
                    "duration": 0.4345935000000054
                },
                {
                    "name": "C3",
                    "midi": 48,
                    "time": 946.5446430000011,
                    "velocity": 0.4015748031496063,
                    "duration": 0.21729674999994586
                },
                {
                    "name": "C4",
                    "midi": 60,
                    "time": 946.5446430000011,
                    "velocity": 0.47244094488188976,
                    "duration": 0.21729674999994586
                },
                {
                    "name": "D4",
                    "midi": 62,
                    "time": 946.979236500001,
                    "velocity": 0.3858267716535433,
                    "duration": 0.4345935000000054
                },
                {
                    "name": "A4",
                    "midi": 69,
                    "time": 946.979236500001,
                    "velocity": 0.3858267716535433,
                    "duration": 0.4345935000000054
                },
                {
                    "name": "F#4",
                    "midi": 66,
                    "time": 946.979236500001,
                    "velocity": 0.3858267716535433,
                    "duration": 0.4345935000000054
                },
                {
                    "name": "C4",
                    "midi": 60,
                    "time": 946.979236500001,
                    "velocity": 0.3858267716535433,
                    "duration": 0.4345935000000054
                },
                {
                    "name": "A#3",
                    "midi": 58,
                    "time": 947.413830000001,
                    "velocity": 0.6850393700787402,
                    "duration": 0.21729674999994586
                },
                {
                    "name": "A#2",
                    "midi": 46,
                    "time": 947.413830000001,
                    "velocity": 0.5748031496062992,
                    "duration": 0.21729674999994586
                },
                {
                    "name": "A#5",
                    "midi": 82,
                    "time": 948.2830170000009,
                    "velocity": 0.5748031496062992,
                    "duration": 0.21729674999994586
                },
                {
                    "name": "D6",
                    "midi": 86,
                    "time": 948.2830170000009,
                    "velocity": 0.6771653543307087,
                    "duration": 0.21729674999994586
                },
                {
                    "name": "G5",
                    "midi": 79,
                    "time": 948.2830170000009,
                    "velocity": 0.5748031496062992,
                    "duration": 0.21729674999994586
                },
                {
                    "name": "D5",
                    "midi": 74,
                    "time": 948.5003137500008,
                    "velocity": 0.6141732283464567,
                    "duration": 0.21729674999994586
                },
                {
                    "name": "A#4",
                    "midi": 70,
                    "time": 949.1522040000008,
                    "velocity": 0.5433070866141733,
                    "duration": 0.21729674999994586
                },
                {
                    "name": "D5",
                    "midi": 74,
                    "time": 949.1522040000008,
                    "velocity": 0.6377952755905512,
                    "duration": 0.21729674999994586
                },
                {
                    "name": "G4",
                    "midi": 67,
                    "time": 949.1522040000008,
                    "velocity": 0.5433070866141733,
                    "duration": 0.21729674999994586
                },
                {
                    "name": "D4",
                    "midi": 62,
                    "time": 949.3695007500007,
                    "velocity": 0.6062992125984252,
                    "duration": 0.21729674999994586
                },
                {
                    "name": "D4",
                    "midi": 62,
                    "time": 950.0213910000007,
                    "velocity": 0.6456692913385826,
                    "duration": 0.21729674999994586
                },
                {
                    "name": "A#3",
                    "midi": 58,
                    "time": 950.0213910000007,
                    "velocity": 0.5511811023622047,
                    "duration": 0.21729674999994586
                },
                {
                    "name": "G3",
                    "midi": 55,
                    "time": 950.0213910000007,
                    "velocity": 0.5511811023622047,
                    "duration": 0.21729674999994586
                },
                {
                    "name": "D3",
                    "midi": 50,
                    "time": 950.2386877500006,
                    "velocity": 0.5826771653543307,
                    "duration": 0.21729674999994586
                },
                {
                    "name": "F#2",
                    "midi": 42,
                    "time": 950.8905780000006,
                    "velocity": 0.7322834645669292,
                    "duration": 0.21729674999994586
                },
                {
                    "name": "F#1",
                    "midi": 30,
                    "time": 950.8905780000006,
                    "velocity": 0.6141732283464567,
                    "duration": 0.21729674999994586
                },
                {
                    "name": "G2",
                    "midi": 43,
                    "time": 951.1078747500005,
                    "velocity": 0.6377952755905512,
                    "duration": 0.21729674999994586
                },
                {
                    "name": "G1",
                    "midi": 31,
                    "time": 951.1078747500005,
                    "velocity": 0.5433070866141733,
                    "duration": 0.21729674999994586
                },
                {
                    "name": "C#2",
                    "midi": 37,
                    "time": 951.7597650000005,
                    "velocity": 0.6141732283464567,
                    "duration": 0.21729674999994586
                },
                {
                    "name": "C#3",
                    "midi": 49,
                    "time": 951.7597650000005,
                    "velocity": 0.7322834645669292,
                    "duration": 0.21729674999994586
                },
                {
                    "name": "D2",
                    "midi": 38,
                    "time": 951.9770617500004,
                    "velocity": 0.5669291338582677,
                    "duration": 0.21729674999994586
                },
                {
                    "name": "D3",
                    "midi": 50,
                    "time": 951.9770617500004,
                    "velocity": 0.6692913385826772,
                    "duration": 0.21729674999994586
                },
                {
                    "name": "F#2",
                    "midi": 42,
                    "time": 952.6289520000004,
                    "velocity": 0.7322834645669292,
                    "duration": 0.21729674999994586
                },
                {
                    "name": "F#1",
                    "midi": 30,
                    "time": 952.6289520000004,
                    "velocity": 0.6141732283464567,
                    "duration": 0.21729674999994586
                },
                {
                    "name": "G2",
                    "midi": 43,
                    "time": 952.8462487500003,
                    "velocity": 0.6377952755905512,
                    "duration": 0.21729674999994586
                },
                {
                    "name": "G1",
                    "midi": 31,
                    "time": 952.8462487500003,
                    "velocity": 0.5433070866141733,
                    "duration": 0.21729674999994586
                },
                {
                    "name": "C#3",
                    "midi": 49,
                    "time": 953.4981390000003,
                    "velocity": 0.7322834645669292,
                    "duration": 0.21729674999994586
                },
                {
                    "name": "C#2",
                    "midi": 37,
                    "time": 953.4981390000003,
                    "velocity": 0.6141732283464567,
                    "duration": 0.21729674999994586
                },
                {
                    "name": "D3",
                    "midi": 50,
                    "time": 953.7154357500002,
                    "velocity": 0.6692913385826772,
                    "duration": 0.21729674999994586
                },
                {
                    "name": "D2",
                    "midi": 38,
                    "time": 953.7154357500002,
                    "velocity": 0.5669291338582677,
                    "duration": 0.21729674999994586
                },
                {
                    "name": "D2",
                    "midi": 38,
                    "time": 954.3673260000002,
                    "velocity": 0.7637795275590551,
                    "duration": 0.8691870000000108
                },
                {
                    "name": "D1",
                    "midi": 26,
                    "time": 954.3673260000002,
                    "velocity": 0.6377952755905512,
                    "duration": 0.8691870000000108
                },
                {
                    "name": "E4",
                    "midi": 64,
                    "time": 956.9748870000001,
                    "velocity": 0.5433070866141733,
                    "duration": 0.6518902499999513
                },
                {
                    "name": "C#4",
                    "midi": 61,
                    "time": 956.9748870000001,
                    "velocity": 0.5433070866141733,
                    "duration": 0.6518902499999513
                },
                {
                    "name": "A#3",
                    "midi": 58,
                    "time": 956.9748870000001,
                    "velocity": 0.5433070866141733,
                    "duration": 0.6518902499999513
                },
                {
                    "name": "G3",
                    "midi": 55,
                    "time": 956.9748870000001,
                    "velocity": 0.5433070866141733,
                    "duration": 0.6518902499999513
                },
                {
                    "name": "A#3",
                    "midi": 58,
                    "time": 957.62677725,
                    "velocity": 0.4881889763779528,
                    "duration": 0.21729674999994586
                },
                {
                    "name": "G3",
                    "midi": 55,
                    "time": 957.62677725,
                    "velocity": 0.4881889763779528,
                    "duration": 0.21729674999994586
                },
                {
                    "name": "E4",
                    "midi": 64,
                    "time": 957.62677725,
                    "velocity": 0.4881889763779528,
                    "duration": 0.21729674999994586
                },
                {
                    "name": "C#4",
                    "midi": 61,
                    "time": 957.62677725,
                    "velocity": 0.4881889763779528,
                    "duration": 0.21729674999994586
                },
                {
                    "name": "F#4",
                    "midi": 66,
                    "time": 957.844074,
                    "velocity": 0.5433070866141733,
                    "duration": 0.8691870000000108
                },
                {
                    "name": "A#3",
                    "midi": 58,
                    "time": 957.844074,
                    "velocity": 0.5433070866141733,
                    "duration": 0.8691870000000108
                },
                {
                    "name": "G3",
                    "midi": 55,
                    "time": 957.844074,
                    "velocity": 0.5433070866141733,
                    "duration": 0.8691870000000108
                },
                {
                    "name": "C#4",
                    "midi": 61,
                    "time": 957.844074,
                    "velocity": 0.5433070866141733,
                    "duration": 0.8691870000000108
                },
                {
                    "name": "C#4",
                    "midi": 61,
                    "time": 958.713261,
                    "velocity": 0.5433070866141733,
                    "duration": 0.6518902499999513
                },
                {
                    "name": "G3",
                    "midi": 55,
                    "time": 958.713261,
                    "velocity": 0.5433070866141733,
                    "duration": 0.6518902499999513
                },
                {
                    "name": "A#3",
                    "midi": 58,
                    "time": 958.713261,
                    "velocity": 0.5433070866141733,
                    "duration": 0.6518902499999513
                },
                {
                    "name": "E4",
                    "midi": 64,
                    "time": 958.713261,
                    "velocity": 0.5433070866141733,
                    "duration": 0.6518902499999513
                },
                {
                    "name": "E4",
                    "midi": 64,
                    "time": 959.3651512499999,
                    "velocity": 0.4881889763779528,
                    "duration": 0.21729674999994586
                },
                {
                    "name": "C#4",
                    "midi": 61,
                    "time": 959.3651512499999,
                    "velocity": 0.4881889763779528,
                    "duration": 0.21729674999994586
                },
                {
                    "name": "G3",
                    "midi": 55,
                    "time": 959.3651512499999,
                    "velocity": 0.4881889763779528,
                    "duration": 0.21729674999994586
                },
                {
                    "name": "A#3",
                    "midi": 58,
                    "time": 959.3651512499999,
                    "velocity": 0.4881889763779528,
                    "duration": 0.21729674999994586
                },
                {
                    "name": "A#3",
                    "midi": 58,
                    "time": 959.5824479999999,
                    "velocity": 0.5433070866141733,
                    "duration": 0.8691870000000108
                },
                {
                    "name": "C#4",
                    "midi": 61,
                    "time": 959.5824479999999,
                    "velocity": 0.5433070866141733,
                    "duration": 0.8691870000000108
                },
                {
                    "name": "G3",
                    "midi": 55,
                    "time": 959.5824479999999,
                    "velocity": 0.5433070866141733,
                    "duration": 0.8691870000000108
                },
                {
                    "name": "F#4",
                    "midi": 66,
                    "time": 959.5824479999999,
                    "velocity": 0.5433070866141733,
                    "duration": 0.8691870000000108
                },
                {
                    "name": "C#4",
                    "midi": 61,
                    "time": 960.4516349999999,
                    "velocity": 0.5433070866141733,
                    "duration": 0.5432418749999215
                },
                {
                    "name": "G3",
                    "midi": 55,
                    "time": 960.4516349999999,
                    "velocity": 0.5433070866141733,
                    "duration": 0.5432418749999215
                },
                {
                    "name": "A#3",
                    "midi": 58,
                    "time": 960.4516349999999,
                    "velocity": 0.5433070866141733,
                    "duration": 0.5432418749999215
                },
                {
                    "name": "E4",
                    "midi": 64,
                    "time": 960.4516349999999,
                    "velocity": 0.5433070866141733,
                    "duration": 0.5432418749999215
                },
                {
                    "name": "D3",
                    "midi": 50,
                    "time": 960.9948768749998,
                    "velocity": 0.5275590551181102,
                    "duration": 10.756189125000105
                },
                {
                    "name": "A3",
                    "midi": 57,
                    "time": 961.1035252499998,
                    "velocity": 0.5354330708661418,
                    "duration": 10.647540750000076
                },
                {
                    "name": "C4",
                    "midi": 60,
                    "time": 961.2121736249999,
                    "velocity": 0.5511811023622047,
                    "duration": 10.538892375000046
                },
                {
                    "name": "G4",
                    "midi": 67,
                    "time": 961.3208219999999,
                    "velocity": 0.6141732283464567,
                    "duration": 6.3016057500000215
                },
                {
                    "name": "F#4",
                    "midi": 66,
                    "time": 967.6224277499999,
                    "velocity": 0.6299212598425197,
                    "duration": 4.125016637500039
                },
                {
                    "name": "G1",
                    "midi": 31,
                    "time": 976.097001,
                    "velocity": 0.905511811023622,
                    "duration": 1.9556707499999675
                },
                {
                    "name": "A1",
                    "midi": 33,
                    "time": 978.05267175,
                    "velocity": 0.5118110236220472,
                    "duration": 0.21729674999994586
                },
                {
                    "name": "A#1",
                    "midi": 34,
                    "time": 978.2699684999999,
                    "velocity": 0.5118110236220472,
                    "duration": 0.21729674999994586
                },
                {
                    "name": "C2",
                    "midi": 36,
                    "time": 978.4872652499998,
                    "velocity": 0.5196850393700787,
                    "duration": 0.21729674999994586
                },
                {
                    "name": "D2",
                    "midi": 38,
                    "time": 978.7045619999998,
                    "velocity": 0.5275590551181102,
                    "duration": 0.21729674999994586
                },
                {
                    "name": "E2",
                    "midi": 40,
                    "time": 978.9218587499997,
                    "velocity": 0.5275590551181102,
                    "duration": 0.21729674999994586
                },
                {
                    "name": "F#2",
                    "midi": 42,
                    "time": 979.1391554999997,
                    "velocity": 0.5354330708661418,
                    "duration": 0.21729674999994586
                },
                {
                    "name": "G2",
                    "midi": 43,
                    "time": 979.3564522499996,
                    "velocity": 0.5354330708661418,
                    "duration": 0.21729674999994586
                },
                {
                    "name": "A2",
                    "midi": 45,
                    "time": 979.5737489999996,
                    "velocity": 0.5433070866141733,
                    "duration": 0.21729674999994586
                },
                {
                    "name": "A#2",
                    "midi": 46,
                    "time": 979.7910457499995,
                    "velocity": 0.5433070866141733,
                    "duration": 0.21729674999994586
                },
                {
                    "name": "C3",
                    "midi": 48,
                    "time": 980.0083424999995,
                    "velocity": 0.5511811023622047,
                    "duration": 0.21729674999994586
                },
                {
                    "name": "D3",
                    "midi": 50,
                    "time": 980.2256392499994,
                    "velocity": 0.5511811023622047,
                    "duration": 0.21729674999994586
                },
                {
                    "name": "E3",
                    "midi": 52,
                    "time": 980.4429359999993,
                    "velocity": 0.5590551181102362,
                    "duration": 0.21729674999994586
                },
                {
                    "name": "F#3",
                    "midi": 54,
                    "time": 980.6602327499993,
                    "velocity": 0.5669291338582677,
                    "duration": 0.21729674999994586
                },
                {
                    "name": "G3",
                    "midi": 55,
                    "time": 980.8775294999992,
                    "velocity": 0.5669291338582677,
                    "duration": 0.21729674999994586
                },
                {
                    "name": "A3",
                    "midi": 57,
                    "time": 981.0948262499992,
                    "velocity": 0.5748031496062992,
                    "duration": 0.21729674999994586
                },
                {
                    "name": "A#3",
                    "midi": 58,
                    "time": 981.3121229999991,
                    "velocity": 0.5748031496062992,
                    "duration": 0.21729674999994586
                },
                {
                    "name": "C4",
                    "midi": 60,
                    "time": 981.5294197499991,
                    "velocity": 0.5826771653543307,
                    "duration": 0.21729674999994586
                },
                {
                    "name": "D4",
                    "midi": 62,
                    "time": 981.746716499999,
                    "velocity": 0.5826771653543307,
                    "duration": 0.21729674999994586
                },
                {
                    "name": "E4",
                    "midi": 64,
                    "time": 981.964013249999,
                    "velocity": 0.5905511811023622,
                    "duration": 0.21729674999994586
                },
                {
                    "name": "F#4",
                    "midi": 66,
                    "time": 982.1813099999989,
                    "velocity": 0.5984251968503937,
                    "duration": 0.21729674999994586
                },
                {
                    "name": "G4",
                    "midi": 67,
                    "time": 982.3986067499989,
                    "velocity": 0.6535433070866141,
                    "duration": 0.21729674999994586
                },
                {
                    "name": "D3",
                    "midi": 50,
                    "time": 983.2677937499988,
                    "velocity": 0.2440944881889764,
                    "duration": 0.651890250000065
                },
                {
                    "name": "G2",
                    "midi": 43,
                    "time": 983.2677937499988,
                    "velocity": 0.2047244094488189,
                    "duration": 0.651890250000065
                },
                {
                    "name": "G1",
                    "midi": 31,
                    "time": 983.2677937499988,
                    "velocity": 0.2047244094488189,
                    "duration": 0.651890250000065
                },
                {
                    "name": "G3",
                    "midi": 55,
                    "time": 983.2677937499988,
                    "velocity": 0.2440944881889764,
                    "duration": 0.651890250000065
                },
                {
                    "name": "A#3",
                    "midi": 58,
                    "time": 983.2677937499988,
                    "velocity": 0.2992125984251969,
                    "duration": 0.651890250000065
                },
                {
                    "name": "G1",
                    "midi": 31,
                    "time": 983.9196839999988,
                    "velocity": 0.2047244094488189,
                    "duration": 0.21729674999994586
                },
                {
                    "name": "G3",
                    "midi": 55,
                    "time": 983.9196839999988,
                    "velocity": 0.2440944881889764,
                    "duration": 0.21729674999994586
                },
                {
                    "name": "A#3",
                    "midi": 58,
                    "time": 983.9196839999988,
                    "velocity": 0.2992125984251969,
                    "duration": 0.21729674999994586
                },
                {
                    "name": "G2",
                    "midi": 43,
                    "time": 983.9196839999988,
                    "velocity": 0.2047244094488189,
                    "duration": 0.21729674999994586
                },
                {
                    "name": "D3",
                    "midi": 50,
                    "time": 983.9196839999988,
                    "velocity": 0.2440944881889764,
                    "duration": 0.21729674999994586
                },
                {
                    "name": "G1",
                    "midi": 31,
                    "time": 984.1369807499988,
                    "velocity": 0.2047244094488189,
                    "duration": 0.8691870000000108
                },
                {
                    "name": "G2",
                    "midi": 43,
                    "time": 984.1369807499988,
                    "velocity": 0.2047244094488189,
                    "duration": 0.8691870000000108
                },
                {
                    "name": "G3",
                    "midi": 55,
                    "time": 984.1369807499988,
                    "velocity": 0.2440944881889764,
                    "duration": 0.8691870000000108
                },
                {
                    "name": "A#3",
                    "midi": 58,
                    "time": 984.1369807499988,
                    "velocity": 0.2992125984251969,
                    "duration": 0.8691870000000108
                },
                {
                    "name": "D3",
                    "midi": 50,
                    "time": 984.1369807499988,
                    "velocity": 0.2440944881889764,
                    "duration": 0.8691870000000108
                },
                {
                    "name": "D3",
                    "midi": 50,
                    "time": 985.1510322499988,
                    "velocity": 0.6614173228346457,
                    "duration": 0.1448645000000397
                },
                {
                    "name": "D2",
                    "midi": 38,
                    "time": 985.1510322499988,
                    "velocity": 0.5905511811023622,
                    "duration": 0.1448645000000397
                },
                {
                    "name": "G2",
                    "midi": 43,
                    "time": 985.2958967499989,
                    "velocity": 0.5590551181102362,
                    "duration": 0.1448645000000397
                },
                {
                    "name": "G3",
                    "midi": 55,
                    "time": 985.2958967499989,
                    "velocity": 0.6299212598425197,
                    "duration": 0.1448645000000397
                },
                {
                    "name": "A2",
                    "midi": 45,
                    "time": 985.4407612499989,
                    "velocity": 0.6062992125984252,
                    "duration": 0.1448645000000397
                },
                {
                    "name": "A3",
                    "midi": 57,
                    "time": 985.4407612499989,
                    "velocity": 0.6692913385826772,
                    "duration": 0.1448645000000397
                },
                {
                    "name": "C3",
                    "midi": 48,
                    "time": 985.5856257499989,
                    "velocity": 0.6220472440944882,
                    "duration": 0.1448645000000397
                },
                {
                    "name": "C4",
                    "midi": 60,
                    "time": 985.5856257499989,
                    "velocity": 0.7007874015748031,
                    "duration": 0.1448645000000397
                },
                {
                    "name": "A#2",
                    "midi": 46,
                    "time": 985.730490249999,
                    "velocity": 0.5826771653543307,
                    "duration": 0.12675643750003474
                },
                {
                    "name": "A#3",
                    "midi": 58,
                    "time": 985.730490249999,
                    "velocity": 0.6535433070866141,
                    "duration": 0.12675643750003474
                },
                {
                    "name": "A#2",
                    "midi": 46,
                    "time": 985.875354749999,
                    "velocity": 0.6456692913385826,
                    "duration": 0.21729674999994586
                },
                {
                    "name": "A#3",
                    "midi": 58,
                    "time": 985.875354749999,
                    "velocity": 0.7244094488188977,
                    "duration": 0.21729674999994586
                },
                {
                    "name": "G1",
                    "midi": 31,
                    "time": 986.7445417499989,
                    "velocity": 0.6220472440944882,
                    "duration": 1.0864837499999567
                },
                {
                    "name": "A1",
                    "midi": 33,
                    "time": 987.8310254999989,
                    "velocity": 0.4094488188976378,
                    "duration": 0.21729674999994586
                },
                {
                    "name": "A#1",
                    "midi": 34,
                    "time": 988.0483222499988,
                    "velocity": 0.4094488188976378,
                    "duration": 0.21729674999994586
                },
                {
                    "name": "C2",
                    "midi": 36,
                    "time": 988.2656189999988,
                    "velocity": 0.41732283464566927,
                    "duration": 0.21729674999994586
                },
                {
                    "name": "D2",
                    "midi": 38,
                    "time": 988.4829157499987,
                    "velocity": 0.41732283464566927,
                    "duration": 0.21729674999994586
                },
                {
                    "name": "E2",
                    "midi": 40,
                    "time": 988.7002124999987,
                    "velocity": 0.4251968503937008,
                    "duration": 0.21729674999994586
                },
                {
                    "name": "F#2",
                    "midi": 42,
                    "time": 988.9175092499986,
                    "velocity": 0.4251968503937008,
                    "duration": 0.21729674999994586
                },
                {
                    "name": "G2",
                    "midi": 43,
                    "time": 989.1348059999985,
                    "velocity": 0.4330708661417323,
                    "duration": 0.21729674999994586
                },
                {
                    "name": "A2",
                    "midi": 45,
                    "time": 989.3521027499985,
                    "velocity": 0.4330708661417323,
                    "duration": 0.21729674999994586
                },
                {
                    "name": "A#2",
                    "midi": 46,
                    "time": 989.5693994999984,
                    "velocity": 0.4409448818897638,
                    "duration": 0.21729674999994586
                },
                {
                    "name": "C3",
                    "midi": 48,
                    "time": 989.7866962499984,
                    "velocity": 0.4409448818897638,
                    "duration": 0.21729674999994586
                },
                {
                    "name": "D3",
                    "midi": 50,
                    "time": 990.0039929999983,
                    "velocity": 0.44881889763779526,
                    "duration": 0.21729674999994586
                },
                {
                    "name": "E3",
                    "midi": 52,
                    "time": 990.2212897499983,
                    "velocity": 0.44881889763779526,
                    "duration": 0.21729674999994586
                },
                {
                    "name": "F#3",
                    "midi": 54,
                    "time": 990.4385864999982,
                    "velocity": 0.4566929133858268,
                    "duration": 0.21729674999994586
                },
                {
                    "name": "G3",
                    "midi": 55,
                    "time": 990.6558832499982,
                    "velocity": 0.4566929133858268,
                    "duration": 0.21729674999994586
                },
                {
                    "name": "A3",
                    "midi": 57,
                    "time": 990.8731799999981,
                    "velocity": 0.4645669291338583,
                    "duration": 0.21729674999994586
                },
                {
                    "name": "A#3",
                    "midi": 58,
                    "time": 991.0904767499981,
                    "velocity": 0.47244094488188976,
                    "duration": 0.21729674999994586
                },
                {
                    "name": "C4",
                    "midi": 60,
                    "time": 991.307773499998,
                    "velocity": 0.47244094488188976,
                    "duration": 0.21729674999994586
                },
                {
                    "name": "D4",
                    "midi": 62,
                    "time": 991.525070249998,
                    "velocity": 0.48031496062992124,
                    "duration": 0.21729674999994586
                },
                {
                    "name": "E4",
                    "midi": 64,
                    "time": 991.7423669999979,
                    "velocity": 0.48031496062992124,
                    "duration": 0.21729674999994586
                },
                {
                    "name": "F#4",
                    "midi": 66,
                    "time": 991.9596637499978,
                    "velocity": 0.4881889763779528,
                    "duration": 0.21729674999994586
                },
                {
                    "name": "G4",
                    "midi": 67,
                    "time": 992.1769604999978,
                    "velocity": 0.4881889763779528,
                    "duration": 0.21729674999994586
                },
                {
                    "name": "A4",
                    "midi": 69,
                    "time": 992.3942572499977,
                    "velocity": 0.49606299212598426,
                    "duration": 0.21729674999994586
                },
                {
                    "name": "A#4",
                    "midi": 70,
                    "time": 992.6115539999977,
                    "velocity": 0.49606299212598426,
                    "duration": 0.21729674999994586
                },
                {
                    "name": "C5",
                    "midi": 72,
                    "time": 992.8288507499976,
                    "velocity": 0.5039370078740157,
                    "duration": 0.21729674999994586
                },
                {
                    "name": "D5",
                    "midi": 74,
                    "time": 993.0461474999976,
                    "velocity": 0.5039370078740157,
                    "duration": 0.21729674999994586
                },
                {
                    "name": "E5",
                    "midi": 76,
                    "time": 993.2634442499975,
                    "velocity": 0.5118110236220472,
                    "duration": 0.21729674999994586
                },
                {
                    "name": "F#5",
                    "midi": 78,
                    "time": 993.4807409999975,
                    "velocity": 0.5118110236220472,
                    "duration": 0.21729675000005955
                },
                {
                    "name": "G5",
                    "midi": 79,
                    "time": 993.6980377499975,
                    "velocity": 0.5511811023622047,
                    "duration": 0.21729674999994586
                },
                {
                    "name": "G2",
                    "midi": 43,
                    "time": 994.5672247499974,
                    "velocity": 0.2047244094488189,
                    "duration": 0.6518902499999513
                },
                {
                    "name": "G1",
                    "midi": 31,
                    "time": 994.5672247499974,
                    "velocity": 0.2047244094488189,
                    "duration": 0.6518902499999513
                },
                {
                    "name": "G1",
                    "midi": 31,
                    "time": 995.2191149999974,
                    "velocity": 0.2047244094488189,
                    "duration": 0.21729674999994586
                },
                {
                    "name": "G2",
                    "midi": 43,
                    "time": 995.2191149999974,
                    "velocity": 0.2047244094488189,
                    "duration": 0.21729674999994586
                },
                {
                    "name": "G1",
                    "midi": 31,
                    "time": 995.4364117499973,
                    "velocity": 0.2047244094488189,
                    "duration": 0.8691870000000108
                },
                {
                    "name": "G2",
                    "midi": 43,
                    "time": 995.4364117499973,
                    "velocity": 0.2047244094488189,
                    "duration": 0.8691870000000108
                },
                {
                    "name": "D3",
                    "midi": 50,
                    "time": 996.4504632499974,
                    "velocity": 0.6771653543307087,
                    "duration": 0.1448645000000397
                },
                {
                    "name": "G3",
                    "midi": 55,
                    "time": 996.5953277499974,
                    "velocity": 0.6771653543307087,
                    "duration": 0.1448645000000397
                },
                {
                    "name": "A#3",
                    "midi": 58,
                    "time": 996.7401922499974,
                    "velocity": 0.7007874015748031,
                    "duration": 0.1448645000000397
                },
                {
                    "name": "D#4",
                    "midi": 63,
                    "time": 996.8850567499975,
                    "velocity": 0.7086614173228346,
                    "duration": 0.1448645000000397
                },
                {
                    "name": "D4",
                    "midi": 62,
                    "time": 997.0299212499975,
                    "velocity": 0.6771653543307087,
                    "duration": 0.12675643750003474
                },
                {
                    "name": "D4",
                    "midi": 62,
                    "time": 997.1747857499976,
                    "velocity": 0.6771653543307087,
                    "duration": 0.21729674999994586
                },
                {
                    "name": "A#1",
                    "midi": 34,
                    "time": 997.9896485624976,
                    "velocity": 0.5826771653543307,
                    "duration": 0.29153980624994347
                },
                {
                    "name": "A#2",
                    "midi": 46,
                    "time": 998.0439727499976,
                    "velocity": 0.6062992125984252,
                    "duration": 0.18108062499993594
                },
                {
                    "name": "B1",
                    "midi": 35,
                    "time": 998.2793775624975,
                    "velocity": 0.5984251968503937,
                    "duration": 0.2354048125000645
                },
                {
                    "name": "B2",
                    "midi": 47,
                    "time": 998.3337017499975,
                    "velocity": 0.5984251968503937,
                    "duration": 0.18108062500004962
                },
                {
                    "name": "C2",
                    "midi": 36,
                    "time": 998.5691065624976,
                    "velocity": 0.5905511811023622,
                    "duration": 0.2354048125000645
                },
                {
                    "name": "C3",
                    "midi": 48,
                    "time": 998.6234307499976,
                    "velocity": 0.5905511811023622,
                    "duration": 0.18108062500004962
                },
                {
                    "name": "C#2",
                    "midi": 37,
                    "time": 998.8588355624977,
                    "velocity": 0.5826771653543307,
                    "duration": 0.23540481249995082
                },
                {
                    "name": "C#3",
                    "midi": 49,
                    "time": 998.9131597499977,
                    "velocity": 0.5826771653543307,
                    "duration": 0.18108062499993594
                },
                {
                    "name": "D2",
                    "midi": 38,
                    "time": 999.1485645624977,
                    "velocity": 0.5748031496062992,
                    "duration": 0.2354048125000645
                },
                {
                    "name": "D3",
                    "midi": 50,
                    "time": 999.2028887499977,
                    "velocity": 0.5748031496062992,
                    "duration": 0.18108062500004962
                },
                {
                    "name": "D#2",
                    "midi": 39,
                    "time": 999.4382935624977,
                    "velocity": 0.5905511811023622,
                    "duration": 0.2354048125000645
                },
                {
                    "name": "D#3",
                    "midi": 51,
                    "time": 999.4926177499977,
                    "velocity": 0.5669291338582677,
                    "duration": 0.18108062500004962
                },
                {
                    "name": "E2",
                    "midi": 40,
                    "time": 999.7280225624978,
                    "velocity": 0.5826771653543307,
                    "duration": 0.2354048125000645
                },
                {
                    "name": "E3",
                    "midi": 52,
                    "time": 999.7823467499978,
                    "velocity": 0.5748031496062992,
                    "duration": 0.18108062500004962
                },
                {
                    "name": "F2",
                    "midi": 41,
                    "time": 1000.0177515624979,
                    "velocity": 0.5669291338582677,
                    "duration": 0.2354048125000645
                },
                {
                    "name": "F3",
                    "midi": 53,
                    "time": 1000.0720757499979,
                    "velocity": 0.5669291338582677,
                    "duration": 0.18108062500004962
                },
                {
                    "name": "F#2",
                    "midi": 42,
                    "time": 1000.307480562498,
                    "velocity": 0.5669291338582677,
                    "duration": 0.2354048125000645
                },
                {
                    "name": "F#3",
                    "midi": 54,
                    "time": 1000.361804749998,
                    "velocity": 0.5669291338582677,
                    "duration": 0.18108062500004962
                },
                {
                    "name": "G3",
                    "midi": 55,
                    "time": 1000.6515337499981,
                    "velocity": 0.5669291338582677,
                    "duration": 0.21729675000005955
                },
                {
                    "name": "G2",
                    "midi": 43,
                    "time": 1000.6515337499981,
                    "velocity": 0.5196850393700787,
                    "duration": 0.21729675000005955
                },
                {
                    "name": "F#2",
                    "midi": 42,
                    "time": 1000.9412627499981,
                    "velocity": 0.5196850393700787,
                    "duration": 0.21729674999994586
                },
                {
                    "name": "F#3",
                    "midi": 54,
                    "time": 1000.9412627499981,
                    "velocity": 0.5669291338582677,
                    "duration": 0.21729674999994586
                },
                {
                    "name": "F2",
                    "midi": 41,
                    "time": 1001.2309917499981,
                    "velocity": 0.5118110236220472,
                    "duration": 0.21729674999994586
                },
                {
                    "name": "F3",
                    "midi": 53,
                    "time": 1001.2309917499981,
                    "velocity": 0.5590551181102362,
                    "duration": 0.21729674999994586
                },
                {
                    "name": "E3",
                    "midi": 52,
                    "time": 1001.5207207499981,
                    "velocity": 0.5511811023622047,
                    "duration": 0.21729674999994586
                },
                {
                    "name": "E2",
                    "midi": 40,
                    "time": 1001.5207207499981,
                    "velocity": 0.5039370078740157,
                    "duration": 0.21729674999994586
                },
                {
                    "name": "D#3",
                    "midi": 51,
                    "time": 1001.810449749998,
                    "velocity": 0.5433070866141733,
                    "duration": 0.21729674999994586
                },
                {
                    "name": "D#2",
                    "midi": 39,
                    "time": 1001.810449749998,
                    "velocity": 0.49606299212598426,
                    "duration": 0.21729674999994586
                },
                {
                    "name": "D3",
                    "midi": 50,
                    "time": 1002.100178749998,
                    "velocity": 0.5275590551181102,
                    "duration": 0.21729674999994586
                },
                {
                    "name": "D2",
                    "midi": 38,
                    "time": 1002.100178749998,
                    "velocity": 0.48031496062992124,
                    "duration": 0.21729674999994586
                },
                {
                    "name": "C#3",
                    "midi": 49,
                    "time": 1002.389907749998,
                    "velocity": 0.5196850393700787,
                    "duration": 0.21729674999994586
                },
                {
                    "name": "C#2",
                    "midi": 37,
                    "time": 1002.389907749998,
                    "velocity": 0.47244094488188976,
                    "duration": 0.21729674999994586
                },
                {
                    "name": "C3",
                    "midi": 48,
                    "time": 1002.6796367499979,
                    "velocity": 0.5196850393700787,
                    "duration": 0.21729674999994586
                },
                {
                    "name": "C2",
                    "midi": 36,
                    "time": 1002.6796367499979,
                    "velocity": 0.47244094488188976,
                    "duration": 0.21729674999994586
                },
                {
                    "name": "B1",
                    "midi": 35,
                    "time": 1002.9693657499979,
                    "velocity": 0.47244094488188976,
                    "duration": 0.21729674999994586
                },
                {
                    "name": "B2",
                    "midi": 47,
                    "time": 1002.9693657499979,
                    "velocity": 0.5196850393700787,
                    "duration": 0.21729674999994586
                },
                {
                    "name": "A#1",
                    "midi": 34,
                    "time": 1003.2590947499979,
                    "velocity": 0.5275590551181102,
                    "duration": 0.21729674999994586
                },
                {
                    "name": "A#2",
                    "midi": 46,
                    "time": 1003.2590947499979,
                    "velocity": 0.5748031496062992,
                    "duration": 0.21729674999994586
                },
                {
                    "name": "A1",
                    "midi": 33,
                    "time": 1003.5488237499978,
                    "velocity": 0.5669291338582677,
                    "duration": 0.21729674999994586
                },
                {
                    "name": "A2",
                    "midi": 45,
                    "time": 1003.5488237499978,
                    "velocity": 0.6220472440944882,
                    "duration": 0.21729674999994586
                },
                {
                    "name": "G#1",
                    "midi": 32,
                    "time": 1003.8385527499978,
                    "velocity": 0.6062992125984252,
                    "duration": 0.21729674999994586
                },
                {
                    "name": "G#2",
                    "midi": 44,
                    "time": 1003.8385527499978,
                    "velocity": 0.6614173228346457,
                    "duration": 0.21729674999994586
                },
                {
                    "name": "G1",
                    "midi": 31,
                    "time": 1004.1282817499978,
                    "velocity": 0.5590551181102362,
                    "duration": 0.8691870000001245
                },
                {
                    "name": "G2",
                    "midi": 43,
                    "time": 1004.1282817499978,
                    "velocity": 0.6535433070866141,
                    "duration": 0.8691870000001245
                },
                {
                    "name": "G4",
                    "midi": 67,
                    "time": 1005.8666557499979,
                    "velocity": 0.7480314960629921,
                    "duration": 1.7383740000000216
                },
                {
                    "name": "G3",
                    "midi": 55,
                    "time": 1005.8666557499979,
                    "velocity": 0.6299212598425197,
                    "duration": 1.7383740000000216
                },
                {
                    "name": "D4",
                    "midi": 62,
                    "time": 1005.8666557499979,
                    "velocity": 0.6299212598425197,
                    "duration": 1.7383740000000216
                },
                {
                    "name": "G2",
                    "midi": 43,
                    "time": 1007.6050297499979,
                    "velocity": 0.7480314960629921,
                    "duration": 1.7383740000000216
                },
                {
                    "name": "G1",
                    "midi": 31,
                    "time": 1007.6050297499979,
                    "velocity": 0.6299212598425197,
                    "duration": 1.7383740000000216
                }
            ],
            "controlChanges": {
                "7": [
                    {
                        "number": 7,
                        "time": 0,
                        "value": 0.7874015748031497
                    }
                ],
                "10": [
                    {
                        "number": 10,
                        "time": 0,
                        "value": 0.5039370078740157
                    }
                ],
                "64": [
                    {
                        "number": 64,
                        "time": 0,
                        "value": 0
                    },
                    {
                        "number": 64,
                        "time": 26.903148456249994,
                        "value": 1
                    },
                    {
                        "number": 64,
                        "time": 29.56503364374999,
                        "value": 0
                    },
                    {
                        "number": 64,
                        "time": 37.8929315875,
                        "value": 1
                    },
                    {
                        "number": 64,
                        "time": 39.99708844999999,
                        "value": 0
                    },
                    {
                        "number": 64,
                        "time": 48.457175250000006,
                        "value": 1
                    },
                    {
                        "number": 64,
                        "time": 50.42190003125001,
                        "value": 0
                    },
                    {
                        "number": 64,
                        "time": 58.561474125000025,
                        "value": 1
                    },
                    {
                        "number": 64,
                        "time": 60.63484728125003,
                        "value": 0
                    },
                    {
                        "number": 64,
                        "time": 69.24523100000002,
                        "value": 1
                    },
                    {
                        "number": 64,
                        "time": 71.28782045,
                        "value": 0
                    },
                    {
                        "number": 64,
                        "time": 79.61390758749997,
                        "value": 1
                    },
                    {
                        "number": 64,
                        "time": 81.71263203124997,
                        "value": 0
                    },
                    {
                        "number": 64,
                        "time": 90.31939413749993,
                        "value": 1
                    },
                    {
                        "number": 64,
                        "time": 92.14287603124993,
                        "value": 0
                    },
                    {
                        "number": 64,
                        "time": 92.61368565624993,
                        "value": 1
                    },
                    {
                        "number": 64,
                        "time": 94.7685450937499,
                        "value": 0
                    },
                    {
                        "number": 64,
                        "time": 95.85140723124991,
                        "value": 1
                    },
                    {
                        "number": 64,
                        "time": 97.3688628687499,
                        "value": 0
                    },
                    {
                        "number": 64,
                        "time": 98.0732664999999,
                        "value": 1
                    },
                    {
                        "number": 64,
                        "time": 99.9746130624999,
                        "value": 0
                    },
                    {
                        "number": 64,
                        "time": 100.4870712312499,
                        "value": 1
                    },
                    {
                        "number": 64,
                        "time": 102.5894172874999,
                        "value": 0
                    },
                    {
                        "number": 64,
                        "time": 103.67409023124989,
                        "value": 1
                    },
                    {
                        "number": 64,
                        "time": 105.18973506249989,
                        "value": 0
                    },
                    {
                        "number": 64,
                        "time": 105.7021932312499,
                        "value": 1
                    },
                    {
                        "number": 64,
                        "time": 107.77918799999989,
                        "value": 0
                    },
                    {
                        "number": 64,
                        "time": 108.8149691749999,
                        "value": 1
                    },
                    {
                        "number": 64,
                        "time": 109.53748086874991,
                        "value": 0
                    },
                    {
                        "number": 64,
                        "time": 111.40985453124992,
                        "value": 1
                    },
                    {
                        "number": 64,
                        "time": 112.14504186874993,
                        "value": 0
                    },
                    {
                        "number": 64,
                        "time": 115.62903309374994,
                        "value": 1
                    },
                    {
                        "number": 64,
                        "time": 118.22572925624996,
                        "value": 0
                    },
                    {
                        "number": 64,
                        "time": 118.74724145624997,
                        "value": 1
                    },
                    {
                        "number": 64,
                        "time": 120.82604703124997,
                        "value": 0
                    },
                    {
                        "number": 64,
                        "time": 128.66683809374996,
                        "value": 0
                    },
                    {
                        "number": 64,
                        "time": 129.31510673124995,
                        "value": 1
                    },
                    {
                        "number": 64,
                        "time": 131.27439909374996,
                        "value": 0
                    },
                    {
                        "number": 64,
                        "time": 132.02045126874995,
                        "value": 1
                    },
                    {
                        "number": 64,
                        "time": 133.85479799999996,
                        "value": 0
                    },
                    {
                        "number": 64,
                        "time": 139.08078483749998,
                        "value": 0
                    },
                    {
                        "number": 64,
                        "time": 139.50451349999997,
                        "value": 1
                    },
                    {
                        "number": 64,
                        "time": 141.70464309374998,
                        "value": 0
                    },
                    {
                        "number": 64,
                        "time": 142.35472253749998,
                        "value": 1
                    },
                    {
                        "number": 64,
                        "time": 144.29590683749998,
                        "value": 0
                    },
                    {
                        "number": 64,
                        "time": 144.36833908749998,
                        "value": 1
                    },
                    {
                        "number": 64,
                        "time": 146.91614348124997,
                        "value": 0
                    },
                    {
                        "number": 64,
                        "time": 147.05376475624996,
                        "value": 1
                    },
                    {
                        "number": 64,
                        "time": 149.30459692499997,
                        "value": 0
                    },
                    {
                        "number": 64,
                        "time": 149.38246159374998,
                        "value": 1
                    },
                    {
                        "number": 64,
                        "time": 154.72615083750006,
                        "value": 0
                    },
                    {
                        "number": 64,
                        "time": 154.80944792500006,
                        "value": 1
                    },
                    {
                        "number": 64,
                        "time": 159.0811398687501,
                        "value": 0
                    },
                    {
                        "number": 64,
                        "time": 160.07527250000012,
                        "value": 1
                    },
                    {
                        "number": 64,
                        "time": 162.56513109375015,
                        "value": 0
                    },
                    {
                        "number": 64,
                        "time": 162.97256250000015,
                        "value": 1
                    },
                    {
                        "number": 64,
                        "time": 165.15277322500017,
                        "value": 0
                    },
                    {
                        "number": 64,
                        "time": 165.47509673750017,
                        "value": 1
                    },
                    {
                        "number": 64,
                        "time": 167.7802530937502,
                        "value": 0
                    },
                    {
                        "number": 64,
                        "time": 170.67211067500023,
                        "value": 1
                    },
                    {
                        "number": 64,
                        "time": 172.12799890000025,
                        "value": 0
                    },
                    {
                        "number": 64,
                        "time": 173.17464491250024,
                        "value": 1
                    },
                    {
                        "number": 64,
                        "time": 174.73374909375028,
                        "value": 0
                    },
                    {
                        "number": 64,
                        "time": 175.65907108750028,
                        "value": 1
                    },
                    {
                        "number": 64,
                        "time": 177.34312090000032,
                        "value": 0
                    },
                    {
                        "number": 64,
                        "time": 178.3897669125003,
                        "value": 1
                    },
                    {
                        "number": 64,
                        "time": 179.95068190000035,
                        "value": 0
                    },
                    {
                        "number": 64,
                        "time": 180.95749017500034,
                        "value": 1
                    },
                    {
                        "number": 64,
                        "time": 182.55824290000038,
                        "value": 0
                    },
                    {
                        "number": 64,
                        "time": 183.60488891250037,
                        "value": 1
                    },
                    {
                        "number": 64,
                        "time": 185.1658039000004,
                        "value": 0
                    },
                    {
                        "number": 64,
                        "time": 186.2540984562504,
                        "value": 1
                    },
                    {
                        "number": 64,
                        "time": 187.77336490000044,
                        "value": 0
                    },
                    {
                        "number": 64,
                        "time": 188.82001091250044,
                        "value": 1
                    },
                    {
                        "number": 64,
                        "time": 190.38092590000048,
                        "value": 0
                    },
                    {
                        "number": 64,
                        "time": 191.38592336875047,
                        "value": 1
                    },
                    {
                        "number": 64,
                        "time": 192.9884869000005,
                        "value": 0
                    },
                    {
                        "number": 64,
                        "time": 194.0351329125005,
                        "value": 1
                    },
                    {
                        "number": 64,
                        "time": 195.59423709375054,
                        "value": 0
                    },
                    {
                        "number": 64,
                        "time": 196.78755841250054,
                        "value": 1
                    },
                    {
                        "number": 64,
                        "time": 198.20360890000057,
                        "value": 0
                    },
                    {
                        "number": 64,
                        "time": 199.25025491250057,
                        "value": 1
                    },
                    {
                        "number": 64,
                        "time": 200.8093590937506,
                        "value": 0
                    },
                    {
                        "number": 64,
                        "time": 201.8161673687506,
                        "value": 1
                    },
                    {
                        "number": 64,
                        "time": 203.41873090000064,
                        "value": 0
                    },
                    {
                        "number": 64,
                        "time": 204.54867400000063,
                        "value": 1
                    },
                    {
                        "number": 64,
                        "time": 206.02448109375067,
                        "value": 0
                    },
                    {
                        "number": 64,
                        "time": 207.13631613125068,
                        "value": 1
                    },
                    {
                        "number": 64,
                        "time": 208.6338529000007,
                        "value": 0
                    },
                    {
                        "number": 64,
                        "time": 209.6804989125007,
                        "value": 1
                    },
                    {
                        "number": 64,
                        "time": 211.23960309375073,
                        "value": 0
                    },
                    {
                        "number": 64,
                        "time": 214.77248608750077,
                        "value": 1
                    },
                    {
                        "number": 64,
                        "time": 216.44748186875077,
                        "value": 0
                    },
                    {
                        "number": 64,
                        "time": 220.0183917937508,
                        "value": 1
                    },
                    {
                        "number": 64,
                        "time": 221.6607930625008,
                        "value": 0
                    },
                    {
                        "number": 64,
                        "time": 224.00216554375083,
                        "value": 1
                    },
                    {
                        "number": 64,
                        "time": 225.13935186875085,
                        "value": 0
                    },
                    {
                        "number": 64,
                        "time": 225.28602717500084,
                        "value": 1
                    },
                    {
                        "number": 64,
                        "time": 226.45037559375086,
                        "value": 0
                    },
                    {
                        "number": 64,
                        "time": 226.64051025000086,
                        "value": 1
                    },
                    {
                        "number": 64,
                        "time": 227.73604803125087,
                        "value": 0
                    },
                    {
                        "number": 64,
                        "time": 227.75053448125087,
                        "value": 0
                    },
                    {
                        "number": 64,
                        "time": 227.90264220625087,
                        "value": 1
                    },
                    {
                        "number": 64,
                        "time": 229.0597474000009,
                        "value": 0
                    },
                    {
                        "number": 64,
                        "time": 229.2480712500009,
                        "value": 1
                    },
                    {
                        "number": 64,
                        "time": 230.3472306437509,
                        "value": 0
                    },
                    {
                        "number": 64,
                        "time": 230.5319328812509,
                        "value": 1
                    },
                    {
                        "number": 64,
                        "time": 231.66730840000093,
                        "value": 0
                    },
                    {
                        "number": 64,
                        "time": 231.79406483750094,
                        "value": 1
                    },
                    {
                        "number": 64,
                        "time": 232.95117003125097,
                        "value": 0
                    },
                    {
                        "number": 64,
                        "time": 233.13406146250097,
                        "value": 1
                    },
                    {
                        "number": 64,
                        "time": 234.273058593751,
                        "value": 0
                    },
                    {
                        "number": 64,
                        "time": 235.56235264375098,
                        "value": 0
                    },
                    {
                        "number": 64,
                        "time": 235.79232503750097,
                        "value": 1
                    },
                    {
                        "number": 64,
                        "time": 236.880619593751,
                        "value": 0
                    },
                    {
                        "number": 64,
                        "time": 238.229670250001,
                        "value": 1
                    },
                    {
                        "number": 64,
                        "time": 239.04634386875102,
                        "value": 0
                    },
                    {
                        "number": 64,
                        "time": 239.58958574375103,
                        "value": 1
                    },
                    {
                        "number": 64,
                        "time": 240.35736759375104,
                        "value": 0
                    },
                    {
                        "number": 64,
                        "time": 240.83723125000103,
                        "value": 1
                    },
                    {
                        "number": 64,
                        "time": 241.65933728750105,
                        "value": 0
                    },
                    {
                        "number": 64,
                        "time": 242.19714674375106,
                        "value": 1
                    },
                    {
                        "number": 64,
                        "time": 242.95768536875107,
                        "value": 0
                    },
                    {
                        "number": 64,
                        "time": 243.57698110625105,
                        "value": 1
                    },
                    {
                        "number": 64,
                        "time": 248.17823978750107,
                        "value": 0
                    },
                    {
                        "number": 64,
                        "time": 248.37018525000107,
                        "value": 1
                    },
                    {
                        "number": 64,
                        "time": 248.61283328750108,
                        "value": 0
                    },
                    {
                        "number": 64,
                        "time": 248.7160492437511,
                        "value": 1
                    },
                    {
                        "number": 64,
                        "time": 250.7894224000011,
                        "value": 0
                    },
                    {
                        "number": 64,
                        "time": 250.9397193187511,
                        "value": 1
                    },
                    {
                        "number": 64,
                        "time": 251.2149618687511,
                        "value": 0
                    },
                    {
                        "number": 64,
                        "time": 251.36163717500108,
                        "value": 1
                    },
                    {
                        "number": 64,
                        "time": 253.3969834000011,
                        "value": 0
                    },
                    {
                        "number": 64,
                        "time": 253.5128750000011,
                        "value": 1
                    },
                    {
                        "number": 64,
                        "time": 253.81709045000107,
                        "value": 0
                    },
                    {
                        "number": 64,
                        "time": 253.99454946250108,
                        "value": 1
                    },
                    {
                        "number": 64,
                        "time": 258.6102945937511,
                        "value": 0
                    },
                    {
                        "number": 64,
                        "time": 258.82578053750115,
                        "value": 1
                    },
                    {
                        "number": 64,
                        "time": 259.03402325625115,
                        "value": 0
                    },
                    {
                        "number": 64,
                        "time": 259.20423904375116,
                        "value": 1
                    },
                    {
                        "number": 64,
                        "time": 261.21423398125114,
                        "value": 0
                    },
                    {
                        "number": 64,
                        "time": 261.35728767500115,
                        "value": 1
                    },
                    {
                        "number": 64,
                        "time": 261.65244909375116,
                        "value": 0
                    },
                    {
                        "number": 64,
                        "time": 261.8679350375012,
                        "value": 1
                    },
                    {
                        "number": 64,
                        "time": 263.82722740000116,
                        "value": 0
                    },
                    {
                        "number": 64,
                        "time": 264.0155512500012,
                        "value": 1
                    },
                    {
                        "number": 64,
                        "time": 264.2600100937512,
                        "value": 0
                    },
                    {
                        "number": 64,
                        "time": 264.43746910625117,
                        "value": 1
                    },
                    {
                        "number": 64,
                        "time": 274.2556605937513,
                        "value": 0
                    },
                    {
                        "number": 64,
                        "time": 274.86952391250134,
                        "value": 1
                    },
                    {
                        "number": 64,
                        "time": 277.29419348125134,
                        "value": 0
                    },
                    {
                        "number": 64,
                        "time": 277.93340808750133,
                        "value": 1
                    },
                    {
                        "number": 64,
                        "time": 279.8945112562514,
                        "value": 0
                    },
                    {
                        "number": 64,
                        "time": 280.3906721687514,
                        "value": 1
                    },
                    {
                        "number": 64,
                        "time": 285.10963325625147,
                        "value": 0
                    },
                    {
                        "number": 64,
                        "time": 285.72168576875146,
                        "value": 1
                    },
                    {
                        "number": 64,
                        "time": 287.72443748125147,
                        "value": 0
                    },
                    {
                        "number": 64,
                        "time": 288.3292467687515,
                        "value": 1
                    },
                    {
                        "number": 64,
                        "time": 290.3084580000015,
                        "value": 0
                    },
                    {
                        "number": 64,
                        "time": 290.7919432687515,
                        "value": 1
                    },
                    {
                        "number": 64,
                        "time": 295.5235800000015,
                        "value": 0
                    },
                    {
                        "number": 64,
                        "time": 295.89660608750154,
                        "value": 1
                    },
                    {
                        "number": 64,
                        "time": 297.28549448125153,
                        "value": 0
                    },
                    {
                        "number": 64,
                        "time": 298.54581563125157,
                        "value": 1
                    },
                    {
                        "number": 64,
                        "time": 300.7531884500016,
                        "value": 0
                    },
                    {
                        "number": 64,
                        "time": 301.27651145625157,
                        "value": 1
                    },
                    {
                        "number": 64,
                        "time": 303.3716142875016,
                        "value": 0
                    },
                    {
                        "number": 64,
                        "time": 303.6794513500016,
                        "value": 1
                    },
                    {
                        "number": 64,
                        "time": 305.96287803125165,
                        "value": 0
                    },
                    {
                        "number": 64,
                        "time": 306.28701235000165,
                        "value": 1
                    },
                    {
                        "number": 64,
                        "time": 308.5740606437517,
                        "value": 0
                    },
                    {
                        "number": 64,
                        "time": 309.0213297875017,
                        "value": 1
                    },
                    {
                        "number": 64,
                        "time": 311.1798108375017,
                        "value": 0
                    },
                    {
                        "number": 64,
                        "time": 311.3101888875017,
                        "value": 1
                    },
                    {
                        "number": 64,
                        "time": 313.7946150625017,
                        "value": 0
                    },
                    {
                        "number": 64,
                        "time": 313.9177498875017,
                        "value": 1
                    },
                    {
                        "number": 64,
                        "time": 316.3931220312517,
                        "value": 0
                    },
                    {
                        "number": 64,
                        "time": 317.0468230875017,
                        "value": 1
                    },
                    {
                        "number": 64,
                        "time": 319.01516948125175,
                        "value": 0
                    },
                    {
                        "number": 64,
                        "time": 319.57108700000174,
                        "value": 1
                    },
                    {
                        "number": 64,
                        "time": 321.61005483750176,
                        "value": 0
                    },
                    {
                        "number": 64,
                        "time": 322.0337835000018,
                        "value": 1
                    },
                    {
                        "number": 64,
                        "time": 326.8306092562519,
                        "value": 0
                    },
                    {
                        "number": 64,
                        "time": 327.44266176875186,
                        "value": 1
                    },
                    {
                        "number": 64,
                        "time": 329.4454134812519,
                        "value": 0
                    },
                    {
                        "number": 64,
                        "time": 330.0502227687519,
                        "value": 1
                    },
                    {
                        "number": 64,
                        "time": 332.0402988375019,
                        "value": 0
                    },
                    {
                        "number": 64,
                        "time": 332.8026482687519,
                        "value": 1
                    },
                    {
                        "number": 64,
                        "time": 337.257231643752,
                        "value": 0
                    },
                    {
                        "number": 64,
                        "time": 337.742527718752,
                        "value": 1
                    },
                    {
                        "number": 64,
                        "time": 339.879279093752,
                        "value": 0
                    },
                    {
                        "number": 64,
                        "time": 340.431575000002,
                        "value": 1
                    },
                    {
                        "number": 64,
                        "time": 342.479596868752,
                        "value": 0
                    },
                    {
                        "number": 64,
                        "time": 342.62627217500204,
                        "value": 1
                    },
                    {
                        "number": 64,
                        "time": 345.0944010937521,
                        "value": 0
                    },
                    {
                        "number": 64,
                        "time": 345.38775170625206,
                        "value": 1
                    },
                    {
                        "number": 64,
                        "time": 347.4701788937521,
                        "value": 0
                    },
                    {
                        "number": 64,
                        "time": 347.9427993250021,
                        "value": 1
                    },
                    {
                        "number": 64,
                        "time": 352.03703225625213,
                        "value": 0
                    },
                    {
                        "number": 64,
                        "time": 352.1873291750021,
                        "value": 1
                    },
                    {
                        "number": 64,
                        "time": 352.9170840937521,
                        "value": 0
                    },
                    {
                        "number": 64,
                        "time": 353.19775906250214,
                        "value": 1
                    },
                    {
                        "number": 64,
                        "time": 357.2630190937522,
                        "value": 0
                    },
                    {
                        "number": 64,
                        "time": 357.5310184187522,
                        "value": 1
                    },
                    {
                        "number": 64,
                        "time": 358.1231520625022,
                        "value": 0
                    },
                    {
                        "number": 64,
                        "time": 358.4382323500022,
                        "value": 1
                    },
                    {
                        "number": 64,
                        "time": 362.47814109375224,
                        "value": 0
                    },
                    {
                        "number": 64,
                        "time": 362.63024881875225,
                        "value": 1
                    },
                    {
                        "number": 64,
                        "time": 363.34732809375225,
                        "value": 0
                    },
                    {
                        "number": 64,
                        "time": 363.59359774375224,
                        "value": 1
                    },
                    {
                        "number": 64,
                        "time": 365.0712156437523,
                        "value": 0
                    },
                    {
                        "number": 64,
                        "time": 365.14726950625226,
                        "value": 1
                    },
                    {
                        "number": 64,
                        "time": 365.94764586875226,
                        "value": 0
                    },
                    {
                        "number": 64,
                        "time": 366.0888887562523,
                        "value": 1
                    },
                    {
                        "number": 64,
                        "time": 367.6950739000023,
                        "value": 0
                    },
                    {
                        "number": 64,
                        "time": 367.8381275937523,
                        "value": 1
                    },
                    {
                        "number": 64,
                        "time": 368.6801525000023,
                        "value": 0
                    },
                    {
                        "number": 64,
                        "time": 369.1147460000023,
                        "value": 1
                    },
                    {
                        "number": 64,
                        "time": 372.88846622500233,
                        "value": 0
                    },
                    {
                        "number": 64,
                        "time": 373.07316846250234,
                        "value": 1
                    },
                    {
                        "number": 64,
                        "time": 373.7739504812523,
                        "value": 0
                    },
                    {
                        "number": 64,
                        "time": 374.0835983500023,
                        "value": 1
                    },
                    {
                        "number": 64,
                        "time": 378.1235070937524,
                        "value": 0
                    },
                    {
                        "number": 64,
                        "time": 378.2756148187524,
                        "value": 1
                    },
                    {
                        "number": 64,
                        "time": 378.9836400625024,
                        "value": 0
                    },
                    {
                        "number": 64,
                        "time": 379.2842339000024,
                        "value": 1
                    },
                    {
                        "number": 64,
                        "time": 383.33862909375244,
                        "value": 0
                    },
                    {
                        "number": 64,
                        "time": 383.49073681875245,
                        "value": 1
                    },
                    {
                        "number": 64,
                        "time": 384.32551850000243,
                        "value": 0
                    },
                    {
                        "number": 64,
                        "time": 384.4649505812524,
                        "value": 1
                    },
                    {
                        "number": 64,
                        "time": 385.9371360625024,
                        "value": 0
                    },
                    {
                        "number": 64,
                        "time": 386.03310879375243,
                        "value": 1
                    },
                    {
                        "number": 64,
                        "time": 386.7882150000024,
                        "value": 0
                    },
                    {
                        "number": 64,
                        "time": 386.8769445062524,
                        "value": 1
                    },
                    {
                        "number": 64,
                        "time": 388.5465078687524,
                        "value": 0
                    },
                    {
                        "number": 64,
                        "time": 388.6823183375024,
                        "value": 1
                    },
                    {
                        "number": 64,
                        "time": 389.3957760000024,
                        "value": 0
                    },
                    {
                        "number": 64,
                        "time": 389.6003971062524,
                        "value": 1
                    },
                    {
                        "number": 64,
                        "time": 394.6235736437525,
                        "value": 0
                    },
                    {
                        "number": 64,
                        "time": 394.94408635000246,
                        "value": 1
                    },
                    {
                        "number": 64,
                        "time": 399.85318209375254,
                        "value": 0
                    },
                    {
                        "number": 64,
                        "time": 400.15920835000253,
                        "value": 1
                    },
                    {
                        "number": 64,
                        "time": 405.0628716750026,
                        "value": 0
                    },
                    {
                        "number": 64,
                        "time": 405.1045202187526,
                        "value": 1
                    },
                    {
                        "number": 64,
                        "time": 409.4124282875026,
                        "value": 0
                    },
                    {
                        "number": 64,
                        "time": 410.8846137687526,
                        "value": 1
                    },
                    {
                        "number": 64,
                        "time": 415.48225083750265,
                        "value": 0
                    },
                    {
                        "number": 64,
                        "time": 415.96935771875263,
                        "value": 1
                    },
                    {
                        "number": 64,
                        "time": 420.7028052562527,
                        "value": 0
                    },
                    {
                        "number": 64,
                        "time": 421.1011826312527,
                        "value": 1
                    },
                    {
                        "number": 64,
                        "time": 423.2940690000027,
                        "value": 0
                    },
                    {
                        "number": 64,
                        "time": 423.8119595875027,
                        "value": 1
                    },
                    {
                        "number": 64,
                        "time": 425.9124948375027,
                        "value": 0
                    },
                    {
                        "number": 64,
                        "time": 426.5227365437527,
                        "value": 1
                    },
                    {
                        "number": 64,
                        "time": 428.53816390000276,
                        "value": 0
                    },
                    {
                        "number": 64,
                        "time": 428.92386563125274,
                        "value": 1
                    },
                    {
                        "number": 64,
                        "time": 431.1276168375027,
                        "value": 0
                    },
                    {
                        "number": 64,
                        "time": 431.4064810000027,
                        "value": 1
                    },
                    {
                        "number": 64,
                        "time": 433.74604267500274,
                        "value": 0
                    },
                    {
                        "number": 64,
                        "time": 434.24220358750273,
                        "value": 1
                    },
                    {
                        "number": 64,
                        "time": 436.34636045000275,
                        "value": 0
                    },
                    {
                        "number": 64,
                        "time": 437.4074929125028,
                        "value": 1
                    },
                    {
                        "number": 64,
                        "time": 444.18352990000284,
                        "value": 0
                    },
                    {
                        "number": 64,
                        "time": 444.67244758750286,
                        "value": 1
                    },
                    {
                        "number": 64,
                        "time": 446.77298283750287,
                        "value": 0
                    },
                    {
                        "number": 64,
                        "time": 447.83773691250286,
                        "value": 1
                    },
                    {
                        "number": 64,
                        "time": 451.9881048375029,
                        "value": 0
                    },
                    {
                        "number": 64,
                        "time": 452.3611309250029,
                        "value": 1
                    },
                    {
                        "number": 64,
                        "time": 454.60290906250293,
                        "value": 0
                    },
                    {
                        "number": 64,
                        "time": 455.0954483625029,
                        "value": 1
                    },
                    {
                        "number": 64,
                        "time": 456.7704441437529,
                        "value": 0
                    },
                    {
                        "number": 64,
                        "time": 457.4621721312529,
                        "value": 1
                    },
                    {
                        "number": 64,
                        "time": 459.8198418687529,
                        "value": 0
                    },
                    {
                        "number": 64,
                        "time": 460.3105703625029,
                        "value": 1
                    },
                    {
                        "number": 64,
                        "time": 461.9837553375029,
                        "value": 0
                    },
                    {
                        "number": 64,
                        "time": 462.6772941312529,
                        "value": 1
                    },
                    {
                        "number": 64,
                        "time": 465.0349638687529,
                        "value": 0
                    },
                    {
                        "number": 64,
                        "time": 465.5256923625029,
                        "value": 1
                    },
                    {
                        "number": 64,
                        "time": 467.6316600312529,
                        "value": 0
                    },
                    {
                        "number": 64,
                        "time": 467.8924161312529,
                        "value": 1
                    },
                    {
                        "number": 64,
                        "time": 470.24465345000294,
                        "value": 0
                    },
                    {
                        "number": 64,
                        "time": 470.74081436250293,
                        "value": 1
                    },
                    {
                        "number": 64,
                        "time": 472.84497122500284,
                        "value": 0
                    },
                    {
                        "number": 64,
                        "time": 473.43710486875284,
                        "value": 1
                    },
                    {
                        "number": 64,
                        "time": 478.0709580625029,
                        "value": 0
                    },
                    {
                        "number": 64,
                        "time": 478.63230800000287,
                        "value": 1
                    },
                    {
                        "number": 64,
                        "time": 483.28245845000293,
                        "value": 0
                    },
                    {
                        "number": 64,
                        "time": 483.7659437187529,
                        "value": 1
                    },
                    {
                        "number": 64,
                        "time": 488.49395883750293,
                        "value": 0
                    },
                    {
                        "number": 64,
                        "time": 489.02090345625294,
                        "value": 1
                    },
                    {
                        "number": 64,
                        "time": 493.698216000003,
                        "value": 0
                    },
                    {
                        "number": 64,
                        "time": 493.712702450003,
                        "value": 0
                    },
                    {
                        "number": 64,
                        "time": 494.236025456253,
                        "value": 1
                    },
                    {
                        "number": 64,
                        "time": 496.331128287503,
                        "value": 0
                    },
                    {
                        "number": 64,
                        "time": 496.535749393753,
                        "value": 1
                    },
                    {
                        "number": 64,
                        "time": 498.913338000003,
                        "value": 0
                    },
                    {
                        "number": 64,
                        "time": 498.913338000003,
                        "value": 0
                    },
                    {
                        "number": 64,
                        "time": 499.451147456253,
                        "value": 1
                    },
                    {
                        "number": 64,
                        "time": 501.54806109375306,
                        "value": 0
                    },
                    {
                        "number": 64,
                        "time": 501.7508713937531,
                        "value": 1
                    },
                    {
                        "number": 64,
                        "time": 504.1284600000031,
                        "value": 0
                    },
                    {
                        "number": 64,
                        "time": 504.13932483750307,
                        "value": 0
                    },
                    {
                        "number": 64,
                        "time": 504.6662694562531,
                        "value": 1
                    },
                    {
                        "number": 64,
                        "time": 506.7559398687531,
                        "value": 0
                    },
                    {
                        "number": 64,
                        "time": 506.9659933937531,
                        "value": 1
                    },
                    {
                        "number": 64,
                        "time": 509.3435820000031,
                        "value": 0
                    },
                    {
                        "number": 64,
                        "time": 509.3616900625031,
                        "value": 0
                    },
                    {
                        "number": 64,
                        "time": 509.8813914562531,
                        "value": 1
                    },
                    {
                        "number": 64,
                        "time": 511.9746834812531,
                        "value": 0
                    },
                    {
                        "number": 64,
                        "time": 512.1811153937531,
                        "value": 1
                    },
                    {
                        "number": 64,
                        "time": 514.5731904500032,
                        "value": 0
                    },
                    {
                        "number": 64,
                        "time": 515.0965134562532,
                        "value": 1
                    },
                    {
                        "number": 64,
                        "time": 519.7865016437532,
                        "value": 0
                    },
                    {
                        "number": 64,
                        "time": 520.3532840000032,
                        "value": 1
                    },
                    {
                        "number": 64,
                        "time": 525.0016236437532,
                        "value": 0
                    },
                    {
                        "number": 64,
                        "time": 525.4036226312531,
                        "value": 1
                    },
                    {
                        "number": 64,
                        "time": 530.2203672562532,
                        "value": 0
                    },
                    {
                        "number": 64,
                        "time": 530.7418794562532,
                        "value": 1
                    },
                    {
                        "number": 64,
                        "time": 535.4191920000032,
                        "value": 0
                    },
                    {
                        "number": 64,
                        "time": 535.4191920000032,
                        "value": 0
                    },
                    {
                        "number": 64,
                        "time": 535.9570014562532,
                        "value": 1
                    },
                    {
                        "number": 64,
                        "time": 540.6343140000033,
                        "value": 0
                    },
                    {
                        "number": 64,
                        "time": 540.6343140000033,
                        "value": 0
                    },
                    {
                        "number": 64,
                        "time": 541.1721234562533,
                        "value": 1
                    },
                    {
                        "number": 64,
                        "time": 543.2726587062533,
                        "value": 0
                    },
                    {
                        "number": 64,
                        "time": 543.4718473937534,
                        "value": 1
                    },
                    {
                        "number": 64,
                        "time": 545.8494360000034,
                        "value": 0
                    },
                    {
                        "number": 64,
                        "time": 545.8566792250034,
                        "value": 0
                    },
                    {
                        "number": 64,
                        "time": 546.1192461312534,
                        "value": 1
                    },
                    {
                        "number": 64,
                        "time": 551.0645580000034,
                        "value": 0
                    },
                    {
                        "number": 64,
                        "time": 551.0754228375034,
                        "value": 0
                    },
                    {
                        "number": 64,
                        "time": 551.2709899125034,
                        "value": 1
                    },
                    {
                        "number": 64,
                        "time": 553.6847946437534,
                        "value": 0
                    },
                    {
                        "number": 64,
                        "time": 554.0451450875034,
                        "value": 1
                    },
                    {
                        "number": 64,
                        "time": 556.2796800000035,
                        "value": 0
                    },
                    {
                        "number": 64,
                        "time": 556.2905448375035,
                        "value": 0
                    },
                    {
                        "number": 64,
                        "time": 556.8174894562535,
                        "value": 1
                    },
                    {
                        "number": 64,
                        "time": 558.8999166437535,
                        "value": 0
                    },
                    {
                        "number": 64,
                        "time": 559.3435641750035,
                        "value": 1
                    },
                    {
                        "number": 64,
                        "time": 561.4948020000036,
                        "value": 0
                    },
                    {
                        "number": 64,
                        "time": 561.5020452250036,
                        "value": 0
                    },
                    {
                        "number": 64,
                        "time": 562.0018277500036,
                        "value": 1
                    },
                    {
                        "number": 64,
                        "time": 564.1204710625036,
                        "value": 0
                    },
                    {
                        "number": 64,
                        "time": 564.3323353937536,
                        "value": 1
                    },
                    {
                        "number": 64,
                        "time": 566.7298428687536,
                        "value": 0
                    },
                    {
                        "number": 64,
                        "time": 566.9797341312536,
                        "value": 1
                    },
                    {
                        "number": 64,
                        "time": 571.5049389500036,
                        "value": 0
                    },
                    {
                        "number": 64,
                        "time": 582.4802356312537,
                        "value": 1
                    },
                    {
                        "number": 64,
                        "time": 583.2443958687536,
                        "value": 0
                    },
                    {
                        "number": 64,
                        "time": 603.6304526312538,
                        "value": 1
                    },
                    {
                        "number": 64,
                        "time": 604.1121270937538,
                        "value": 0
                    },
                    {
                        "number": 64,
                        "time": 604.9849357062536,
                        "value": 1
                    },
                    {
                        "number": 64,
                        "time": 605.4032319500037,
                        "value": 0
                    },
                    {
                        "number": 64,
                        "time": 606.2796621750035,
                        "value": 1
                    },
                    {
                        "number": 64,
                        "time": 606.7106340625036,
                        "value": 0
                    },
                    {
                        "number": 64,
                        "time": 607.6142263812535,
                        "value": 1
                    },
                    {
                        "number": 64,
                        "time": 608.0071713375035,
                        "value": 0
                    },
                    {
                        "number": 64,
                        "time": 608.8926555937534,
                        "value": 1
                    },
                    {
                        "number": 64,
                        "time": 609.3254382875034,
                        "value": 0
                    },
                    {
                        "number": 64,
                        "time": 610.1964360937533,
                        "value": 1
                    },
                    {
                        "number": 64,
                        "time": 610.6237863687533,
                        "value": 0
                    },
                    {
                        "number": 64,
                        "time": 611.1108932500033,
                        "value": 1
                    },
                    {
                        "number": 64,
                        "time": 612.3694035937533,
                        "value": 0
                    },
                    {
                        "number": 64,
                        "time": 612.5595382500034,
                        "value": 1
                    },
                    {
                        "number": 64,
                        "time": 613.6460220000033,
                        "value": 0
                    },
                    {
                        "number": 64,
                        "time": 613.6695624812534,
                        "value": 0
                    },
                    {
                        "number": 64,
                        "time": 614.1747774250033,
                        "value": 1
                    },
                    {
                        "number": 64,
                        "time": 614.5333170625033,
                        "value": 0
                    },
                    {
                        "number": 64,
                        "time": 615.4984767937532,
                        "value": 1
                    },
                    {
                        "number": 64,
                        "time": 615.8370975625032,
                        "value": 0
                    },
                    {
                        "number": 64,
                        "time": 616.8131221312531,
                        "value": 1
                    },
                    {
                        "number": 64,
                        "time": 617.142688868753,
                        "value": 0
                    },
                    {
                        "number": 64,
                        "time": 618.127767468753,
                        "value": 1
                    },
                    {
                        "number": 64,
                        "time": 618.4392261437529,
                        "value": 0
                    },
                    {
                        "number": 64,
                        "time": 619.4206831312528,
                        "value": 1
                    },
                    {
                        "number": 64,
                        "time": 619.7502498687527,
                        "value": 0
                    },
                    {
                        "number": 64,
                        "time": 620.7244636312525,
                        "value": 1
                    },
                    {
                        "number": 64,
                        "time": 621.0594627875025,
                        "value": 0
                    },
                    {
                        "number": 64,
                        "time": 621.4922454812526,
                        "value": 0
                    },
                    {
                        "number": 64,
                        "time": 621.5411372500025,
                        "value": 1
                    },
                    {
                        "number": 64,
                        "time": 622.7996475937525,
                        "value": 0
                    },
                    {
                        "number": 64,
                        "time": 622.9897822500026,
                        "value": 1
                    },
                    {
                        "number": 64,
                        "time": 624.0871308375025,
                        "value": 0
                    },
                    {
                        "number": 64,
                        "time": 634.5065100000012,
                        "value": 0
                    },
                    {
                        "number": 64,
                        "time": 634.6097259562512,
                        "value": 1
                    },
                    {
                        "number": 64,
                        "time": 635.3883726437512,
                        "value": 0
                    },
                    {
                        "number": 64,
                        "time": 635.5513452062512,
                        "value": 1
                    },
                    {
                        "number": 64,
                        "time": 636.2738569000012,
                        "value": 0
                    },
                    {
                        "number": 64,
                        "time": 636.3897485000012,
                        "value": 1
                    },
                    {
                        "number": 64,
                        "time": 637.1267466437512,
                        "value": 0
                    },
                    {
                        "number": 64,
                        "time": 637.2390166312512,
                        "value": 1
                    },
                    {
                        "number": 64,
                        "time": 638.0086092875011,
                        "value": 0
                    },
                    {
                        "number": 64,
                        "time": 638.1281225000012,
                        "value": 1
                    },
                    {
                        "number": 64,
                        "time": 638.8832287062511,
                        "value": 0
                    },
                    {
                        "number": 64,
                        "time": 639.0498228812511,
                        "value": 1
                    },
                    {
                        "number": 64,
                        "time": 639.7216320000011,
                        "value": 0
                    },
                    {
                        "number": 64,
                        "time": 639.8248479562511,
                        "value": 1
                    },
                    {
                        "number": 64,
                        "time": 640.6433323812512,
                        "value": 0
                    },
                    {
                        "number": 64,
                        "time": 640.7574131750011,
                        "value": 1
                    },
                    {
                        "number": 64,
                        "time": 641.4907897062511,
                        "value": 0
                    },
                    {
                        "number": 64,
                        "time": 641.5740867937511,
                        "value": 1
                    },
                    {
                        "number": 64,
                        "time": 642.3473010625012,
                        "value": 0
                    },
                    {
                        "number": 64,
                        "time": 642.4124900875012,
                        "value": 1
                    },
                    {
                        "number": 64,
                        "time": 643.2182988687512,
                        "value": 0
                    },
                    {
                        "number": 64,
                        "time": 643.3015959562512,
                        "value": 1
                    },
                    {
                        "number": 64,
                        "time": 644.0983507062512,
                        "value": 0
                    },
                    {
                        "number": 64,
                        "time": 644.2015666625011,
                        "value": 1
                    },
                    {
                        "number": 64,
                        "time": 644.9367540000011,
                        "value": 0
                    },
                    {
                        "number": 64,
                        "time": 645.3713475000011,
                        "value": 1
                    },
                    {
                        "number": 64,
                        "time": 650.173605675001,
                        "value": 0
                    },
                    {
                        "number": 64,
                        "time": 650.265956793751,
                        "value": 1
                    },
                    {
                        "number": 64,
                        "time": 652.7793558687509,
                        "value": 0
                    },
                    {
                        "number": 64,
                        "time": 652.859031343751,
                        "value": 1
                    },
                    {
                        "number": 64,
                        "time": 655.3832952562509,
                        "value": 0
                    },
                    {
                        "number": 64,
                        "time": 655.5118625000009,
                        "value": 1
                    },
                    {
                        "number": 64,
                        "time": 655.7708077937509,
                        "value": 0
                    },
                    {
                        "number": 64,
                        "time": 667.177076362501,
                        "value": 1
                    },
                    {
                        "number": 64,
                        "time": 669.7339347875011,
                        "value": 0
                    },
                    {
                        "number": 64,
                        "time": 669.8226642937511,
                        "value": 1
                    },
                    {
                        "number": 64,
                        "time": 671.0359044812512,
                        "value": 0
                    },
                    {
                        "number": 64,
                        "time": 671.1662825312512,
                        "value": 1
                    },
                    {
                        "number": 64,
                        "time": 672.3487390125011,
                        "value": 0
                    },
                    {
                        "number": 64,
                        "time": 672.4121172312512,
                        "value": 1
                    },
                    {
                        "number": 64,
                        "time": 673.6307898375011,
                        "value": 0
                    },
                    {
                        "number": 64,
                        "time": 673.7756543375011,
                        "value": 1
                    },
                    {
                        "number": 64,
                        "time": 676.2347292250012,
                        "value": 0
                    },
                    {
                        "number": 64,
                        "time": 676.5860256375012,
                        "value": 1
                    },
                    {
                        "number": 64,
                        "time": 681.4426080000012,
                        "value": 0
                    },
                    {
                        "number": 64,
                        "time": 681.6979316812512,
                        "value": 1
                    },
                    {
                        "number": 64,
                        "time": 686.6722164500013,
                        "value": 0
                    },
                    {
                        "number": 64,
                        "time": 686.9384049687513,
                        "value": 1
                    },
                    {
                        "number": 64,
                        "time": 689.2888314812515,
                        "value": 0
                    },
                    {
                        "number": 64,
                        "time": 689.6238306375014,
                        "value": 1
                    },
                    {
                        "number": 64,
                        "time": 691.9000140937515,
                        "value": 0
                    },
                    {
                        "number": 64,
                        "time": 692.4088506500015,
                        "value": 1
                    },
                    {
                        "number": 64,
                        "time": 697.1151360937515,
                        "value": 0
                    },
                    {
                        "number": 64,
                        "time": 697.1821359250015,
                        "value": 1
                    },
                    {
                        "number": 64,
                        "time": 699.7082106437515,
                        "value": 0
                    },
                    {
                        "number": 64,
                        "time": 699.7715888625015,
                        "value": 1
                    },
                    {
                        "number": 64,
                        "time": 702.3302580937516,
                        "value": 0
                    },
                    {
                        "number": 64,
                        "time": 702.3972579250016,
                        "value": 1
                    },
                    {
                        "number": 64,
                        "time": 704.9269542562516,
                        "value": 0
                    },
                    {
                        "number": 64,
                        "time": 704.9867108625016,
                        "value": 1
                    },
                    {
                        "number": 64,
                        "time": 707.5453800937516,
                        "value": 0
                    },
                    {
                        "number": 64,
                        "time": 707.6123799250016,
                        "value": 1
                    },
                    {
                        "number": 64,
                        "time": 710.1366438375017,
                        "value": 0
                    },
                    {
                        "number": 64,
                        "time": 710.2018328625016,
                        "value": 1
                    },
                    {
                        "number": 64,
                        "time": 712.7623129000017,
                        "value": 0
                    },
                    {
                        "number": 64,
                        "time": 712.9198530437517,
                        "value": 1
                    },
                    {
                        "number": 64,
                        "time": 715.3553874500018,
                        "value": 0
                    },
                    {
                        "number": 64,
                        "time": 715.4658466312518,
                        "value": 1
                    },
                    {
                        "number": 64,
                        "time": 717.9484620000018,
                        "value": 0
                    },
                    {
                        "number": 64,
                        "time": 718.2291369687517,
                        "value": 1
                    },
                    {
                        "number": 64,
                        "time": 720.5686986437518,
                        "value": 0
                    },
                    {
                        "number": 64,
                        "time": 720.7624549125018,
                        "value": 1
                    },
                    {
                        "number": 64,
                        "time": 723.1780704500019,
                        "value": 0
                    },
                    {
                        "number": 64,
                        "time": 723.4714210625019,
                        "value": 1
                    },
                    {
                        "number": 64,
                        "time": 728.3931924500021,
                        "value": 0
                    },
                    {
                        "number": 64,
                        "time": 728.6593809687521,
                        "value": 1
                    },
                    {
                        "number": 64,
                        "time": 731.0098074812522,
                        "value": 0
                    },
                    {
                        "number": 64,
                        "time": 731.3448066375022,
                        "value": 1
                    },
                    {
                        "number": 64,
                        "time": 733.6046928375022,
                        "value": 0
                    },
                    {
                        "number": 64,
                        "time": 733.8491516812521,
                        "value": 1
                    },
                    {
                        "number": 64,
                        "time": 738.3779781125021,
                        "value": 0
                    },
                    {
                        "number": 64,
                        "time": 739.0570304562522,
                        "value": 1
                    },
                    {
                        "number": 64,
                        "time": 744.0458016750022,
                        "value": 0
                    },
                    {
                        "number": 64,
                        "time": 744.1779905312521,
                        "value": 1
                    },
                    {
                        "number": 64,
                        "time": 746.6533626750021,
                        "value": 0
                    },
                    {
                        "number": 64,
                        "time": 746.7982271750021,
                        "value": 1
                    },
                    {
                        "number": 64,
                        "time": 749.2699777062521,
                        "value": 0
                    },
                    {
                        "number": 64,
                        "time": 749.4818420375021,
                        "value": 1
                    },
                    {
                        "number": 64,
                        "time": 753.6122910937522,
                        "value": 0
                    },
                    {
                        "number": 64,
                        "time": 753.8151013937522,
                        "value": 1
                    },
                    {
                        "number": 64,
                        "time": 754.5991805000023,
                        "value": 0
                    },
                    {
                        "number": 64,
                        "time": 754.7875043500022,
                        "value": 1
                    },
                    {
                        "number": 64,
                        "time": 758.8636292187523,
                        "value": 0
                    },
                    {
                        "number": 64,
                        "time": 758.9795208187523,
                        "value": 1
                    },
                    {
                        "number": 64,
                        "time": 759.8143025000024,
                        "value": 0
                    },
                    {
                        "number": 64,
                        "time": 759.9754642562524,
                        "value": 1
                    },
                    {
                        "number": 64,
                        "time": 764.0425350937525,
                        "value": 0
                    },
                    {
                        "number": 64,
                        "time": 764.1946428187524,
                        "value": 1
                    },
                    {
                        "number": 64,
                        "time": 764.9135329000025,
                        "value": 0
                    },
                    {
                        "number": 64,
                        "time": 765.0819378812524,
                        "value": 1
                    },
                    {
                        "number": 64,
                        "time": 767.5011750312525,
                        "value": 0
                    },
                    {
                        "number": 64,
                        "time": 767.6894988812525,
                        "value": 1
                    },
                    {
                        "number": 64,
                        "time": 770.1268440937525,
                        "value": 0
                    },
                    {
                        "number": 64,
                        "time": 770.3803569687525,
                        "value": 1
                    },
                    {
                        "number": 64,
                        "time": 774.4619142562526,
                        "value": 0
                    },
                    {
                        "number": 64,
                        "time": 774.6375624625026,
                        "value": 1
                    },
                    {
                        "number": 64,
                        "time": 775.3329120625026,
                        "value": 0
                    },
                    {
                        "number": 64,
                        "time": 775.5574520375026,
                        "value": 1
                    },
                    {
                        "number": 64,
                        "time": 779.6879010937527,
                        "value": 0
                    },
                    {
                        "number": 64,
                        "time": 779.8400088187526,
                        "value": 1
                    },
                    {
                        "number": 64,
                        "time": 780.5552772875027,
                        "value": 0
                    },
                    {
                        "number": 64,
                        "time": 780.7725740375026,
                        "value": 1
                    },
                    {
                        "number": 64,
                        "time": 784.9030230937527,
                        "value": 0
                    },
                    {
                        "number": 64,
                        "time": 785.0551308187527,
                        "value": 1
                    },
                    {
                        "number": 64,
                        "time": 785.7776425125028,
                        "value": 0
                    },
                    {
                        "number": 64,
                        "time": 785.9623447500028,
                        "value": 1
                    },
                    {
                        "number": 64,
                        "time": 788.3616630312528,
                        "value": 0
                    },
                    {
                        "number": 64,
                        "time": 788.4413385062528,
                        "value": 1
                    },
                    {
                        "number": 64,
                        "time": 790.9728456437527,
                        "value": 0
                    },
                    {
                        "number": 64,
                        "time": 791.2933583500028,
                        "value": 1
                    },
                    {
                        "number": 64,
                        "time": 796.1843460312529,
                        "value": 0
                    },
                    {
                        "number": 64,
                        "time": 796.3799131062528,
                        "value": 1
                    },
                    {
                        "number": 64,
                        "time": 801.397657225003,
                        "value": 0
                    },
                    {
                        "number": 64,
                        "time": 801.672899775003,
                        "value": 1
                    },
                    {
                        "number": 64,
                        "time": 806.621833256253,
                        "value": 0
                    },
                    {
                        "number": 64,
                        "time": 806.938724350003,
                        "value": 1
                    },
                    {
                        "number": 64,
                        "time": 811.8478200937531,
                        "value": 0
                    },
                    {
                        "number": 64,
                        "time": 812.101332968753,
                        "value": 1
                    },
                    {
                        "number": 64,
                        "time": 814.4553810937531,
                        "value": 0
                    },
                    {
                        "number": 64,
                        "time": 822.8792517687531,
                        "value": 1
                    },
                    {
                        "number": 64,
                        "time": 827.4913752875032,
                        "value": 0
                    },
                    {
                        "number": 64,
                        "time": 827.8806986312532,
                        "value": 1
                    },
                    {
                        "number": 64,
                        "time": 832.6974432562532,
                        "value": 0
                    },
                    {
                        "number": 64,
                        "time": 833.1374691750033,
                        "value": 1
                    },
                    {
                        "number": 64,
                        "time": 835.3194907062533,
                        "value": 0
                    },
                    {
                        "number": 64,
                        "time": 835.8065975875033,
                        "value": 1
                    },
                    {
                        "number": 64,
                        "time": 837.9071328375034,
                        "value": 0
                    },
                    {
                        "number": 64,
                        "time": 838.5173745437534,
                        "value": 1
                    },
                    {
                        "number": 64,
                        "time": 840.5328019000034,
                        "value": 0
                    },
                    {
                        "number": 64,
                        "time": 840.9185036312534,
                        "value": 1
                    },
                    {
                        "number": 64,
                        "time": 843.1222548375034,
                        "value": 0
                    },
                    {
                        "number": 64,
                        "time": 843.4011190000034,
                        "value": 1
                    },
                    {
                        "number": 64,
                        "time": 845.7443022875035,
                        "value": 0
                    },
                    {
                        "number": 64,
                        "time": 846.2368415875035,
                        "value": 1
                    },
                    {
                        "number": 64,
                        "time": 848.3409984500036,
                        "value": 0
                    },
                    {
                        "number": 64,
                        "time": 849.0019427312535,
                        "value": 1
                    },
                    {
                        "number": 64,
                        "time": 853.5524988375035,
                        "value": 0
                    },
                    {
                        "number": 64,
                        "time": 853.7697955875035,
                        "value": 1
                    },
                    {
                        "number": 64,
                        "time": 856.1292761312535,
                        "value": 0
                    },
                    {
                        "number": 64,
                        "time": 856.6670855875035,
                        "value": 1
                    },
                    {
                        "number": 64,
                        "time": 858.7784856750035,
                        "value": 0
                    },
                    {
                        "number": 64,
                        "time": 859.8323749125035,
                        "value": 1
                    },
                    {
                        "number": 64,
                        "time": 863.9863644500036,
                        "value": 0
                    },
                    {
                        "number": 64,
                        "time": 864.2416881312537,
                        "value": 1
                    },
                    {
                        "number": 64,
                        "time": 866.5993578687537,
                        "value": 0
                    },
                    {
                        "number": 64,
                        "time": 867.0900863625037,
                        "value": 1
                    },
                    {
                        "number": 64,
                        "time": 868.7777577875038,
                        "value": 0
                    },
                    {
                        "number": 64,
                        "time": 869.4568101312537,
                        "value": 1
                    },
                    {
                        "number": 64,
                        "time": 871.8181014812538,
                        "value": 0
                    },
                    {
                        "number": 64,
                        "time": 872.3052083625039,
                        "value": 1
                    },
                    {
                        "number": 64,
                        "time": 873.9856365625039,
                        "value": 0
                    },
                    {
                        "number": 64,
                        "time": 874.6719321312539,
                        "value": 1
                    },
                    {
                        "number": 64,
                        "time": 877.036845093754,
                        "value": 0
                    },
                    {
                        "number": 64,
                        "time": 877.520330362504,
                        "value": 1
                    },
                    {
                        "number": 64,
                        "time": 879.626298031254,
                        "value": 0
                    },
                    {
                        "number": 64,
                        "time": 880.006567343754,
                        "value": 1
                    },
                    {
                        "number": 64,
                        "time": 882.251967093754,
                        "value": 0
                    },
                    {
                        "number": 64,
                        "time": 882.735452362504,
                        "value": 1
                    },
                    {
                        "number": 64,
                        "time": 884.8414200312541,
                        "value": 0
                    },
                    {
                        "number": 64,
                        "time": 885.0243114625041,
                        "value": 1
                    },
                    {
                        "number": 64,
                        "time": 889.1909766437541,
                        "value": 0
                    },
                    {
                        "number": 64,
                        "time": 890.1398391187541,
                        "value": 1
                    },
                    {
                        "number": 64,
                        "time": 892.6804002875042,
                        "value": 0
                    },
                    {
                        "number": 64,
                        "time": 895.3658259562542,
                        "value": 1
                    },
                    {
                        "number": 64,
                        "time": 896.8017953125042,
                        "value": 0
                    },
                    {
                        "number": 64,
                        "time": 897.0118488375042,
                        "value": 1
                    },
                    {
                        "number": 64,
                        "time": 897.6709823125042,
                        "value": 0
                    },
                    {
                        "number": 64,
                        "time": 897.9534680875042,
                        "value": 1
                    },
                    {
                        "number": 64,
                        "time": 898.5401693125042,
                        "value": 0
                    },
                    {
                        "number": 64,
                        "time": 898.7701417062542,
                        "value": 1
                    },
                    {
                        "number": 64,
                        "time": 899.4039238937542,
                        "value": 0
                    },
                    {
                        "number": 64,
                        "time": 899.6501935437541,
                        "value": 1
                    },
                    {
                        "number": 64,
                        "time": 900.278543312504,
                        "value": 0
                    },
                    {
                        "number": 64,
                        "time": 900.508515706254,
                        "value": 1
                    },
                    {
                        "number": 64,
                        "time": 901.136865475004,
                        "value": 0
                    },
                    {
                        "number": 64,
                        "time": 901.384945931254,
                        "value": 1
                    },
                    {
                        "number": 64,
                        "time": 902.020538925004,
                        "value": 0
                    },
                    {
                        "number": 64,
                        "time": 902.3193219562539,
                        "value": 1
                    },
                    {
                        "number": 64,
                        "time": 903.7552913125038,
                        "value": 0
                    },
                    {
                        "number": 64,
                        "time": 904.0160474125039,
                        "value": 1
                    },
                    {
                        "number": 64,
                        "time": 904.6208567000039,
                        "value": 0
                    },
                    {
                        "number": 64,
                        "time": 904.9069640875039,
                        "value": 1
                    },
                    {
                        "number": 64,
                        "time": 905.4846112812538,
                        "value": 0
                    },
                    {
                        "number": 64,
                        "time": 905.7236377062537,
                        "value": 1
                    },
                    {
                        "number": 64,
                        "time": 906.3574198937537,
                        "value": 0
                    },
                    {
                        "number": 64,
                        "time": 906.6036895437536,
                        "value": 1
                    },
                    {
                        "number": 64,
                        "time": 907.2356609250035,
                        "value": 0
                    },
                    {
                        "number": 64,
                        "time": 907.4620117062534,
                        "value": 1
                    },
                    {
                        "number": 64,
                        "time": 908.0921722812534,
                        "value": 0
                    },
                    {
                        "number": 64,
                        "time": 908.3384419312533,
                        "value": 1
                    },
                    {
                        "number": 64,
                        "time": 908.9613592812533,
                        "value": 0
                    },
                    {
                        "number": 64,
                        "time": 909.6041955000032,
                        "value": 1
                    },
                    {
                        "number": 64,
                        "time": 910.4951121750032,
                        "value": 0
                    },
                    {
                        "number": 64,
                        "time": 911.0111919562532,
                        "value": 1
                    },
                    {
                        "number": 64,
                        "time": 911.8043250937532,
                        "value": 0
                    },
                    {
                        "number": 64,
                        "time": 911.9220275000032,
                        "value": 1
                    },
                    {
                        "number": 64,
                        "time": 912.6463500000032,
                        "value": 0
                    },
                    {
                        "number": 64,
                        "time": 912.7495659562532,
                        "value": 1
                    },
                    {
                        "number": 64,
                        "time": 913.9754817875032,
                        "value": 0
                    },
                    {
                        "number": 64,
                        "time": 914.4770751187532,
                        "value": 1
                    },
                    {
                        "number": 64,
                        "time": 915.2828839000031,
                        "value": 0
                    },
                    {
                        "number": 64,
                        "time": 915.451288881253,
                        "value": 1
                    },
                    {
                        "number": 64,
                        "time": 916.1357736437529,
                        "value": 0
                    },
                    {
                        "number": 64,
                        "time": 916.226313956253,
                        "value": 1
                    },
                    {
                        "number": 64,
                        "time": 917.0122038687529,
                        "value": 0
                    },
                    {
                        "number": 64,
                        "time": 917.1063657937528,
                        "value": 1
                    },
                    {
                        "number": 64,
                        "time": 917.8723368375029,
                        "value": 0
                    },
                    {
                        "number": 64,
                        "time": 918.0479850437529,
                        "value": 1
                    },
                    {
                        "number": 64,
                        "time": 918.7596319000029,
                        "value": 0
                    },
                    {
                        "number": 64,
                        "time": 918.9787394562529,
                        "value": 1
                    },
                    {
                        "number": 64,
                        "time": 919.5998460000029,
                        "value": 0
                    },
                    {
                        "number": 64,
                        "time": 919.6921971187529,
                        "value": 1
                    },
                    {
                        "number": 64,
                        "time": 920.4961950937528,
                        "value": 0
                    },
                    {
                        "number": 64,
                        "time": 921.3382200000027,
                        "value": 0
                    },
                    {
                        "number": 64,
                        "time": 921.4305711187527,
                        "value": 1
                    },
                    {
                        "number": 64,
                        "time": 922.2599203812526,
                        "value": 0
                    },
                    {
                        "number": 64,
                        "time": 923.0765940000026,
                        "value": 0
                    },
                    {
                        "number": 64,
                        "time": 923.1689451187526,
                        "value": 1
                    },
                    {
                        "number": 64,
                        "time": 924.4002933687525,
                        "value": 0
                    },
                    {
                        "number": 64,
                        "time": 924.8982650875025,
                        "value": 1
                    },
                    {
                        "number": 64,
                        "time": 925.7131279000024,
                        "value": 0
                    },
                    {
                        "number": 64,
                        "time": 925.9123165875023,
                        "value": 1
                    },
                    {
                        "number": 64,
                        "time": 926.5533420000023,
                        "value": 0
                    },
                    {
                        "number": 64,
                        "time": 926.7199361750023,
                        "value": 1
                    },
                    {
                        "number": 64,
                        "time": 927.4134749687523,
                        "value": 0
                    },
                    {
                        "number": 64,
                        "time": 928.3025808375023,
                        "value": 0
                    },
                    {
                        "number": 64,
                        "time": 928.4583101750023,
                        "value": 1
                    },
                    {
                        "number": 64,
                        "time": 929.1880650937522,
                        "value": 0
                    },
                    {
                        "number": 64,
                        "time": 929.3691457187523,
                        "value": 1
                    },
                    {
                        "number": 64,
                        "time": 930.0391440312522,
                        "value": 0
                    },
                    {
                        "number": 64,
                        "time": 930.1333059562522,
                        "value": 1
                    },
                    {
                        "number": 64,
                        "time": 930.9282499000021,
                        "value": 0
                    },
                    {
                        "number": 64,
                        "time": 931.0350874687522,
                        "value": 1
                    },
                    {
                        "number": 64,
                        "time": 931.7847612562522,
                        "value": 0
                    },
                    {
                        "number": 64,
                        "time": 931.9441122062522,
                        "value": 1
                    },
                    {
                        "number": 64,
                        "time": 932.668434706252,
                        "value": 0
                    },
                    {
                        "number": 64,
                        "time": 932.773461468752,
                        "value": 1
                    },
                    {
                        "number": 64,
                        "time": 933.506838000002,
                        "value": 0
                    },
                    {
                        "number": 64,
                        "time": 933.6100539562519,
                        "value": 1
                    },
                    {
                        "number": 64,
                        "time": 934.4031870937519,
                        "value": 0
                    },
                    {
                        "number": 64,
                        "time": 935.2596984500018,
                        "value": 0
                    },
                    {
                        "number": 64,
                        "time": 935.3484279562518,
                        "value": 1
                    },
                    {
                        "number": 64,
                        "time": 936.1433719000017,
                        "value": 0
                    },
                    {
                        "number": 64,
                        "time": 936.9835860000017,
                        "value": 0
                    },
                    {
                        "number": 64,
                        "time": 937.0868019562516,
                        "value": 1
                    },
                    {
                        "number": 64,
                        "time": 937.8726918687515,
                        "value": 0
                    },
                    {
                        "number": 64,
                        "time": 938.0103131437515,
                        "value": 1
                    },
                    {
                        "number": 64,
                        "time": 938.7364464500015,
                        "value": 0
                    },
                    {
                        "number": 64,
                        "time": 938.8251759562515,
                        "value": 1
                    },
                    {
                        "number": 64,
                        "time": 939.6201199000014,
                        "value": 0
                    },
                    {
                        "number": 64,
                        "time": 939.7776600437514,
                        "value": 1
                    },
                    {
                        "number": 64,
                        "time": 940.4748204500015,
                        "value": 0
                    },
                    {
                        "number": 64,
                        "time": 940.6396038187515,
                        "value": 1
                    },
                    {
                        "number": 64,
                        "time": 941.3548722875015,
                        "value": 0
                    },
                    {
                        "number": 64,
                        "time": 941.5341421062515,
                        "value": 1
                    },
                    {
                        "number": 64,
                        "time": 942.2131944500014,
                        "value": 0
                    },
                    {
                        "number": 64,
                        "time": 942.3019239562515,
                        "value": 1
                    },
                    {
                        "number": 64,
                        "time": 943.0860030625014,
                        "value": 0
                    },
                    {
                        "number": 64,
                        "time": 943.2435432062514,
                        "value": 1
                    },
                    {
                        "number": 64,
                        "time": 943.9570008687513,
                        "value": 0
                    },
                    {
                        "number": 64,
                        "time": 944.0402979562513,
                        "value": 1
                    },
                    {
                        "number": 64,
                        "time": 944.8243770625012,
                        "value": 0
                    },
                    {
                        "number": 64,
                        "time": 944.9728631750012,
                        "value": 1
                    },
                    {
                        "number": 64,
                        "time": 945.6899424500011,
                        "value": 0
                    },
                    {
                        "number": 64,
                        "time": 945.7786719562512,
                        "value": 1
                    },
                    {
                        "number": 64,
                        "time": 946.5718050937511,
                        "value": 0
                    },
                    {
                        "number": 64,
                        "time": 946.7202912062511,
                        "value": 1
                    },
                    {
                        "number": 64,
                        "time": 947.433748868751,
                        "value": 0
                    },
                    {
                        "number": 64,
                        "time": 947.6311267500009,
                        "value": 1
                    },
                    {
                        "number": 64,
                        "time": 950.8905780000006,
                        "value": 0
                    },
                    {
                        "number": 64,
                        "time": 952.6289520000004,
                        "value": 0
                    },
                    {
                        "number": 64,
                        "time": 955.2672967062501,
                        "value": 1
                    },
                    {
                        "number": 64,
                        "time": 957.85856045,
                        "value": 0
                    },
                    {
                        "number": 64,
                        "time": 957.9056414125,
                        "value": 1
                    },
                    {
                        "number": 64,
                        "time": 958.73317986875,
                        "value": 0
                    },
                    {
                        "number": 64,
                        "time": 958.8019905062499,
                        "value": 1
                    },
                    {
                        "number": 64,
                        "time": 959.5987452562499,
                        "value": 0
                    },
                    {
                        "number": 64,
                        "time": 959.66031266875,
                        "value": 1
                    },
                    {
                        "number": 64,
                        "time": 960.4715538687499,
                        "value": 0
                    },
                    {
                        "number": 64,
                        "time": 960.5294996687498,
                        "value": 1
                    },
                    {
                        "number": 64,
                        "time": 961.33530845,
                        "value": 0
                    },
                    {
                        "number": 64,
                        "time": 961.44576763125,
                        "value": 1
                    },
                    {
                        "number": 64,
                        "time": 964.5947596999999,
                        "value": 0
                    },
                    {
                        "number": 64,
                        "time": 964.70521888125,
                        "value": 1
                    },
                    {
                        "number": 64,
                        "time": 967.6314817812499,
                        "value": 0
                    },
                    {
                        "number": 64,
                        "time": 967.76729225,
                        "value": 1
                    },
                    {
                        "number": 64,
                        "time": 969.50566625,
                        "value": 0
                    },
                    {
                        "number": 64,
                        "time": 979.8218294562495,
                        "value": 0
                    },
                    {
                        "number": 64,
                        "time": 979.9051265437495,
                        "value": 1
                    },
                    {
                        "number": 64,
                        "time": 982.3986067499989,
                        "value": 0
                    },
                    {
                        "number": 64,
                        "time": 983.3836853499988,
                        "value": 1
                    },
                    {
                        "number": 64,
                        "time": 984.9301138874988,
                        "value": 0
                    },
                    {
                        "number": 64,
                        "time": 988.8034284562486,
                        "value": 1
                    },
                    {
                        "number": 64,
                        "time": 993.6455243687475,
                        "value": 0
                    },
                    {
                        "number": 64,
                        "time": 994.5799003937474,
                        "value": 1
                    },
                    {
                        "number": 64,
                        "time": 996.2168692437473,
                        "value": 0
                    },
                    {
                        "number": 64,
                        "time": 998.0548375874976,
                        "value": 1
                    },
                    {
                        "number": 64,
                        "time": 998.9240245874977,
                        "value": 0
                    },
                    {
                        "number": 64,
                        "time": 998.9747271624976,
                        "value": 1
                    },
                    {
                        "number": 64,
                        "time": 999.8076980374979,
                        "value": 0
                    },
                    {
                        "number": 64,
                        "time": 999.8746978687478,
                        "value": 1
                    },
                    {
                        "number": 64,
                        "time": 1000.6786958437481,
                        "value": 0
                    },
                    {
                        "number": 64,
                        "time": 1000.7855334124981,
                        "value": 1
                    },
                    {
                        "number": 64,
                        "time": 1001.5352071999981,
                        "value": 0
                    },
                    {
                        "number": 64,
                        "time": 1001.5768557437481,
                        "value": 1
                    },
                    {
                        "number": 64,
                        "time": 1002.400772587498,
                        "value": 0
                    },
                    {
                        "number": 64,
                        "time": 1002.473204837498,
                        "value": 1
                    },
                    {
                        "number": 64,
                        "time": 1003.2772028124979,
                        "value": 0
                    },
                    {
                        "number": 64,
                        "time": 1003.3623107062479,
                        "value": 1
                    },
                    {
                        "number": 64,
                        "time": 1004.1518222312478,
                        "value": 0
                    },
                    {
                        "number": 64,
                        "time": 1004.6117670187479,
                        "value": 1
                    },
                    {
                        "number": 64,
                        "time": 1011.081777749998,
                        "value": 0
                    }
                ]
            },
            "id": 2,
            "name": "Piano left",
            "instrumentNumber": 0,
            "instrument": "acoustic grand piano",
            "instrumentFamily": "piano",
            "channelNumber": 0,
            "isPercussion": false
        },
        {
            "startTime": 0,
            "duration": 0,
            "length": 0,
            "notes": [],
            "controlChanges": {},
            "id": 3,
            "name": "Chopin: Ballade in G minor Op. 32"
        },
        {
            "startTime": 0,
            "duration": 0,
            "length": 0,
            "notes": [],
            "controlChanges": {},
            "id": 4,
            "name": "Copyright  2003 by Bernd Krueger"
        },
        {
            "startTime": 0,
            "duration": 0,
            "length": 0,
            "notes": [],
            "controlChanges": {},
            "id": 5,
            "name": "http://www.piano-midi.de"
        },
        {
            "startTime": 0,
            "duration": 0,
            "length": 0,
            "notes": [],
            "controlChanges": {},
            "id": 6,
            "name": "Edition: 2014-02-15"
        },
        {
            "startTime": 0,
            "duration": 0,
            "length": 0,
            "notes": [],
            "controlChanges": {},
            "id": 7,
            "name": "Spur 7"
        }
    ]
}