{
    "header": {
        "PPQ": 480,
        "timeSignature": [
            3,
            4
        ],
        "bpm": 204.08996285562677,
        "name": "Chopin Prelude  No. 19, Opus 28"
    },
    "startTime": 0,
    "duration": 63.50140800000034,
    "tracks": [
        {
            "startTime": 0,
            "duration": 0,
            "length": 0,
            "notes": [],
            "controlChanges": {},
            "id": 0,
            "name": "Chopin Prelude  No. 19, Opus 28"
        },
        {
            "startTime": 0.5879759999999999,
            "duration": 63.50140800000034,
            "length": 619,
            "notes": [
                {
                    "name": "A#4",
                    "midi": 70,
                    "time": 0.5879759999999999,
                    "velocity": 0.3858267716535433,
                    "duration": 0.293988
                },
                {
                    "name": "A#4",
                    "midi": 70,
                    "time": 0.881964,
                    "velocity": 0.3779527559055118,
                    "duration": 0.09799599999999997
                },
                {
                    "name": "A#3",
                    "midi": 58,
                    "time": 0.9799599999999999,
                    "velocity": 0.29133858267716534,
                    "duration": 0.09799599999999997
                },
                {
                    "name": "G4",
                    "midi": 67,
                    "time": 1.077956,
                    "velocity": 0.29133858267716534,
                    "duration": 0.09799599999999997
                },
                {
                    "name": "D#5",
                    "midi": 75,
                    "time": 1.1759519999999999,
                    "velocity": 0.4094488188976378,
                    "duration": 0.09799599999999997
                },
                {
                    "name": "D#4",
                    "midi": 63,
                    "time": 1.2739479999999999,
                    "velocity": 0.30708661417322836,
                    "duration": 0.09799599999999997
                },
                {
                    "name": "A#4",
                    "midi": 70,
                    "time": 1.3719439999999998,
                    "velocity": 0.31496062992125984,
                    "duration": 0.09799599999999997
                },
                {
                    "name": "G5",
                    "midi": 79,
                    "time": 1.4699399999999998,
                    "velocity": 0.4409448818897638,
                    "duration": 0.09799599999999997
                },
                {
                    "name": "G4",
                    "midi": 67,
                    "time": 1.5679359999999998,
                    "velocity": 0.3228346456692913,
                    "duration": 0.09799599999999997
                },
                {
                    "name": "D#5",
                    "midi": 75,
                    "time": 1.6659319999999997,
                    "velocity": 0.3464566929133858,
                    "duration": 0.09799599999999997
                },
                {
                    "name": "A#5",
                    "midi": 82,
                    "time": 1.7639279999999997,
                    "velocity": 0.49606299212598426,
                    "duration": 0.09799599999999997
                },
                {
                    "name": "A#4",
                    "midi": 70,
                    "time": 1.8619239999999997,
                    "velocity": 0.3858267716535433,
                    "duration": 0.09799599999999997
                },
                {
                    "name": "G5",
                    "midi": 79,
                    "time": 1.9599199999999997,
                    "velocity": 0.3937007874015748,
                    "duration": 0.09799599999999997
                },
                {
                    "name": "D#6",
                    "midi": 87,
                    "time": 2.0579159999999996,
                    "velocity": 0.5354330708661418,
                    "duration": 0.0979960000000002
                },
                {
                    "name": "D#5",
                    "midi": 75,
                    "time": 2.155912,
                    "velocity": 0.4094488188976378,
                    "duration": 0.0979960000000002
                },
                {
                    "name": "A#5",
                    "midi": 82,
                    "time": 2.253908,
                    "velocity": 0.4330708661417323,
                    "duration": 0.0979960000000002
                },
                {
                    "name": "G6",
                    "midi": 91,
                    "time": 2.351904,
                    "velocity": 0.5590551181102362,
                    "duration": 0.0979960000000002
                },
                {
                    "name": "G5",
                    "midi": 79,
                    "time": 2.4499000000000004,
                    "velocity": 0.4251968503937008,
                    "duration": 0.0979960000000002
                },
                {
                    "name": "A#5",
                    "midi": 82,
                    "time": 2.5478960000000006,
                    "velocity": 0.44881889763779526,
                    "duration": 0.0979960000000002
                },
                {
                    "name": "F6",
                    "midi": 89,
                    "time": 2.645892000000001,
                    "velocity": 0.5905511811023622,
                    "duration": 0.0979960000000002
                },
                {
                    "name": "D5",
                    "midi": 74,
                    "time": 2.743888000000001,
                    "velocity": 0.4566929133858268,
                    "duration": 0.0979960000000002
                },
                {
                    "name": "G#5",
                    "midi": 80,
                    "time": 2.841884000000001,
                    "velocity": 0.4409448818897638,
                    "duration": 0.0979960000000002
                },
                {
                    "name": "D#6",
                    "midi": 87,
                    "time": 2.9398800000000014,
                    "velocity": 0.5669291338582677,
                    "duration": 0.0979960000000002
                },
                {
                    "name": "D#5",
                    "midi": 75,
                    "time": 3.0378760000000016,
                    "velocity": 0.4409448818897638,
                    "duration": 0.0979960000000002
                },
                {
                    "name": "G#5",
                    "midi": 80,
                    "time": 3.1358720000000018,
                    "velocity": 0.4330708661417323,
                    "duration": 0.0979960000000002
                },
                {
                    "name": "C6",
                    "midi": 84,
                    "time": 3.233868000000002,
                    "velocity": 0.5354330708661418,
                    "duration": 0.0979960000000002
                },
                {
                    "name": "C5",
                    "midi": 72,
                    "time": 3.331864000000002,
                    "velocity": 0.4015748031496063,
                    "duration": 0.0979960000000002
                },
                {
                    "name": "G#5",
                    "midi": 80,
                    "time": 3.4298600000000024,
                    "velocity": 0.3858267716535433,
                    "duration": 0.0979960000000002
                },
                {
                    "name": "C6",
                    "midi": 84,
                    "time": 3.5278560000000025,
                    "velocity": 0.5511811023622047,
                    "duration": 0.0979960000000002
                },
                {
                    "name": "C5",
                    "midi": 72,
                    "time": 3.6258520000000027,
                    "velocity": 0.4015748031496063,
                    "duration": 0.0979960000000002
                },
                {
                    "name": "G5",
                    "midi": 79,
                    "time": 3.723848000000003,
                    "velocity": 0.36220472440944884,
                    "duration": 0.0979960000000002
                },
                {
                    "name": "A#5",
                    "midi": 82,
                    "time": 3.821844000000003,
                    "velocity": 0.4881889763779528,
                    "duration": 0.0979960000000002
                },
                {
                    "name": "A#4",
                    "midi": 70,
                    "time": 3.9198400000000033,
                    "velocity": 0.33858267716535434,
                    "duration": 0.0979960000000002
                },
                {
                    "name": "D#5",
                    "midi": 75,
                    "time": 4.0178360000000035,
                    "velocity": 0.33858267716535434,
                    "duration": 0.0979960000000002
                },
                {
                    "name": "G5",
                    "midi": 79,
                    "time": 4.115832000000004,
                    "velocity": 0.47244094488188976,
                    "duration": 0.0979960000000002
                },
                {
                    "name": "G4",
                    "midi": 67,
                    "time": 4.213828000000004,
                    "velocity": 0.33858267716535434,
                    "duration": 0.0979960000000002
                },
                {
                    "name": "A#4",
                    "midi": 70,
                    "time": 4.311824000000004,
                    "velocity": 0.3228346456692913,
                    "duration": 0.0979960000000002
                },
                {
                    "name": "D#5",
                    "midi": 75,
                    "time": 4.409820000000004,
                    "velocity": 0.41732283464566927,
                    "duration": 0.0979960000000002
                },
                {
                    "name": "D#4",
                    "midi": 63,
                    "time": 4.5078160000000045,
                    "velocity": 0.2992125984251969,
                    "duration": 0.0979960000000002
                },
                {
                    "name": "A4",
                    "midi": 69,
                    "time": 4.605812000000005,
                    "velocity": 0.2992125984251969,
                    "duration": 0.0979960000000002
                },
                {
                    "name": "D5",
                    "midi": 74,
                    "time": 4.703808000000005,
                    "velocity": 0.4251968503937008,
                    "duration": 0.0979960000000002
                },
                {
                    "name": "D4",
                    "midi": 62,
                    "time": 4.801804000000005,
                    "velocity": 0.3464566929133858,
                    "duration": 0.0979960000000002
                },
                {
                    "name": "A4",
                    "midi": 69,
                    "time": 4.899800000000005,
                    "velocity": 0.3779527559055118,
                    "duration": 0.0979960000000002
                },
                {
                    "name": "D#5",
                    "midi": 75,
                    "time": 4.9977960000000055,
                    "velocity": 0.5039370078740157,
                    "duration": 0.0979960000000002
                },
                {
                    "name": "D#4",
                    "midi": 63,
                    "time": 5.095792000000006,
                    "velocity": 0.4015748031496063,
                    "duration": 0.0979960000000002
                },
                {
                    "name": "A4",
                    "midi": 69,
                    "time": 5.193788000000006,
                    "velocity": 0.4330708661417323,
                    "duration": 0.0979960000000002
                },
                {
                    "name": "G5",
                    "midi": 79,
                    "time": 5.291784000000006,
                    "velocity": 0.5511811023622047,
                    "duration": 0.0979960000000002
                },
                {
                    "name": "G4",
                    "midi": 67,
                    "time": 5.389780000000006,
                    "velocity": 0.4330708661417323,
                    "duration": 0.0979960000000002
                },
                {
                    "name": "A#4",
                    "midi": 70,
                    "time": 5.487776000000006,
                    "velocity": 0.41732283464566927,
                    "duration": 0.0979960000000002
                },
                {
                    "name": "F5",
                    "midi": 77,
                    "time": 5.585772000000007,
                    "velocity": 0.5118110236220472,
                    "duration": 0.0979960000000002
                },
                {
                    "name": "F4",
                    "midi": 65,
                    "time": 5.683768000000007,
                    "velocity": 0.3858267716535433,
                    "duration": 0.0979960000000002
                },
                {
                    "name": "A#4",
                    "midi": 70,
                    "time": 5.781764000000007,
                    "velocity": 0.3700787401574803,
                    "duration": 0.0979960000000002
                },
                {
                    "name": "D5",
                    "midi": 74,
                    "time": 5.879760000000007,
                    "velocity": 0.49606299212598426,
                    "duration": 0.0979960000000002
                },
                {
                    "name": "D4",
                    "midi": 62,
                    "time": 5.977756000000007,
                    "velocity": 0.33070866141732286,
                    "duration": 0.0979960000000002
                },
                {
                    "name": "F4",
                    "midi": 65,
                    "time": 6.075752000000008,
                    "velocity": 0.3228346456692913,
                    "duration": 0.0979960000000002
                },
                {
                    "name": "D#5",
                    "midi": 75,
                    "time": 6.173748000000008,
                    "velocity": 0.41732283464566927,
                    "duration": 0.0979960000000002
                },
                {
                    "name": "D#4",
                    "midi": 63,
                    "time": 6.271744000000008,
                    "velocity": 0.2992125984251969,
                    "duration": 0.0979960000000002
                },
                {
                    "name": "A4",
                    "midi": 69,
                    "time": 6.369740000000008,
                    "velocity": 0.2992125984251969,
                    "duration": 0.0979960000000002
                },
                {
                    "name": "D5",
                    "midi": 74,
                    "time": 6.467736000000008,
                    "velocity": 0.4251968503937008,
                    "duration": 0.0979960000000002
                },
                {
                    "name": "D4",
                    "midi": 62,
                    "time": 6.565732000000009,
                    "velocity": 0.3464566929133858,
                    "duration": 0.0979960000000002
                },
                {
                    "name": "A4",
                    "midi": 69,
                    "time": 6.663728000000009,
                    "velocity": 0.3700787401574803,
                    "duration": 0.0979960000000002
                },
                {
                    "name": "D#5",
                    "midi": 75,
                    "time": 6.761724000000009,
                    "velocity": 0.4645669291338583,
                    "duration": 0.0979960000000002
                },
                {
                    "name": "D#4",
                    "midi": 63,
                    "time": 6.859720000000009,
                    "velocity": 0.3937007874015748,
                    "duration": 0.0979960000000002
                },
                {
                    "name": "A4",
                    "midi": 69,
                    "time": 6.957716000000009,
                    "velocity": 0.4251968503937008,
                    "duration": 0.0979960000000002
                },
                {
                    "name": "G5",
                    "midi": 79,
                    "time": 7.0557120000000095,
                    "velocity": 0.5275590551181102,
                    "duration": 0.0979960000000002
                },
                {
                    "name": "G4",
                    "midi": 67,
                    "time": 7.15370800000001,
                    "velocity": 0.3858267716535433,
                    "duration": 0.0979960000000002
                },
                {
                    "name": "C5",
                    "midi": 72,
                    "time": 7.25170400000001,
                    "velocity": 0.3779527559055118,
                    "duration": 0.0979960000000002
                },
                {
                    "name": "F5",
                    "midi": 77,
                    "time": 7.34970000000001,
                    "velocity": 0.47244094488188976,
                    "duration": 0.0979960000000002
                },
                {
                    "name": "F4",
                    "midi": 65,
                    "time": 7.44769600000001,
                    "velocity": 0.33858267716535434,
                    "duration": 0.0979960000000002
                },
                {
                    "name": "G#4",
                    "midi": 68,
                    "time": 7.5456920000000105,
                    "velocity": 0.33070866141732286,
                    "duration": 0.0979960000000002
                },
                {
                    "name": "C5",
                    "midi": 72,
                    "time": 7.643688000000011,
                    "velocity": 0.4566929133858268,
                    "duration": 0.0979960000000002
                },
                {
                    "name": "C4",
                    "midi": 60,
                    "time": 7.741684000000011,
                    "velocity": 0.33070866141732286,
                    "duration": 0.0979960000000002
                },
                {
                    "name": "F4",
                    "midi": 65,
                    "time": 7.839680000000011,
                    "velocity": 0.3228346456692913,
                    "duration": 0.0979960000000002
                },
                {
                    "name": "A#4",
                    "midi": 70,
                    "time": 7.937676000000011,
                    "velocity": 0.41732283464566927,
                    "duration": 0.0979959999999993
                },
                {
                    "name": "A#3",
                    "midi": 58,
                    "time": 8.03567200000001,
                    "velocity": 0.2992125984251969,
                    "duration": 0.0979960000000002
                },
                {
                    "name": "G4",
                    "midi": 67,
                    "time": 8.13366800000001,
                    "velocity": 0.29133858267716534,
                    "duration": 0.0979960000000002
                },
                {
                    "name": "D#5",
                    "midi": 75,
                    "time": 8.231664000000011,
                    "velocity": 0.4094488188976378,
                    "duration": 0.0979960000000002
                },
                {
                    "name": "D#4",
                    "midi": 63,
                    "time": 8.329660000000011,
                    "velocity": 0.30708661417322836,
                    "duration": 0.0979960000000002
                },
                {
                    "name": "A#4",
                    "midi": 70,
                    "time": 8.427656000000011,
                    "velocity": 0.31496062992125984,
                    "duration": 0.0979960000000002
                },
                {
                    "name": "G5",
                    "midi": 79,
                    "time": 8.525652000000012,
                    "velocity": 0.4409448818897638,
                    "duration": 0.0979960000000002
                },
                {
                    "name": "G4",
                    "midi": 67,
                    "time": 8.623648000000012,
                    "velocity": 0.3228346456692913,
                    "duration": 0.0979960000000002
                },
                {
                    "name": "D#5",
                    "midi": 75,
                    "time": 8.721644000000012,
                    "velocity": 0.3464566929133858,
                    "duration": 0.0979960000000002
                },
                {
                    "name": "A#5",
                    "midi": 82,
                    "time": 8.819640000000012,
                    "velocity": 0.5433070866141733,
                    "duration": 0.0979960000000002
                },
                {
                    "name": "A#4",
                    "midi": 70,
                    "time": 8.917636000000012,
                    "velocity": 0.3858267716535433,
                    "duration": 0.0979960000000002
                },
                {
                    "name": "G5",
                    "midi": 79,
                    "time": 9.015632000000013,
                    "velocity": 0.3937007874015748,
                    "duration": 0.0979960000000002
                },
                {
                    "name": "D#6",
                    "midi": 87,
                    "time": 9.113628000000013,
                    "velocity": 0.5826771653543307,
                    "duration": 0.0979960000000002
                },
                {
                    "name": "D#5",
                    "midi": 75,
                    "time": 9.211624000000013,
                    "velocity": 0.4094488188976378,
                    "duration": 0.0979960000000002
                },
                {
                    "name": "A#5",
                    "midi": 82,
                    "time": 9.309620000000013,
                    "velocity": 0.4330708661417323,
                    "duration": 0.0979960000000002
                },
                {
                    "name": "G6",
                    "midi": 91,
                    "time": 9.407616000000013,
                    "velocity": 0.6062992125984252,
                    "duration": 0.0979960000000002
                },
                {
                    "name": "G5",
                    "midi": 79,
                    "time": 9.505612000000013,
                    "velocity": 0.49606299212598426,
                    "duration": 0.0979960000000002
                },
                {
                    "name": "A#5",
                    "midi": 82,
                    "time": 9.603608000000014,
                    "velocity": 0.5354330708661418,
                    "duration": 0.0979960000000002
                },
                {
                    "name": "F6",
                    "midi": 89,
                    "time": 9.701604000000014,
                    "velocity": 0.6377952755905512,
                    "duration": 0.0979960000000002
                },
                {
                    "name": "D5",
                    "midi": 74,
                    "time": 9.799600000000014,
                    "velocity": 0.5039370078740157,
                    "duration": 0.0979960000000002
                },
                {
                    "name": "G#5",
                    "midi": 80,
                    "time": 9.897596000000014,
                    "velocity": 0.48031496062992124,
                    "duration": 0.0979960000000002
                },
                {
                    "name": "D#6",
                    "midi": 87,
                    "time": 9.995592000000014,
                    "velocity": 0.5905511811023622,
                    "duration": 0.0979960000000002
                },
                {
                    "name": "D#5",
                    "midi": 75,
                    "time": 10.093588000000015,
                    "velocity": 0.4409448818897638,
                    "duration": 0.0979960000000002
                },
                {
                    "name": "G#5",
                    "midi": 80,
                    "time": 10.191584000000015,
                    "velocity": 0.4330708661417323,
                    "duration": 0.0979960000000002
                },
                {
                    "name": "C6",
                    "midi": 84,
                    "time": 10.289580000000015,
                    "velocity": 0.5275590551181102,
                    "duration": 0.0979960000000002
                },
                {
                    "name": "C5",
                    "midi": 72,
                    "time": 10.387576000000015,
                    "velocity": 0.4015748031496063,
                    "duration": 0.0979960000000002
                },
                {
                    "name": "G#5",
                    "midi": 80,
                    "time": 10.485572000000015,
                    "velocity": 0.3858267716535433,
                    "duration": 0.0979960000000002
                },
                {
                    "name": "C6",
                    "midi": 84,
                    "time": 10.583568000000016,
                    "velocity": 0.5511811023622047,
                    "duration": 0.0979960000000002
                },
                {
                    "name": "C5",
                    "midi": 72,
                    "time": 10.681564000000016,
                    "velocity": 0.33070866141732286,
                    "duration": 0.0979960000000002
                },
                {
                    "name": "G5",
                    "midi": 79,
                    "time": 10.779560000000016,
                    "velocity": 0.33858267716535434,
                    "duration": 0.0979960000000002
                },
                {
                    "name": "A#5",
                    "midi": 82,
                    "time": 10.877556000000016,
                    "velocity": 0.4881889763779528,
                    "duration": 0.0979960000000002
                },
                {
                    "name": "A#4",
                    "midi": 70,
                    "time": 10.975552000000016,
                    "velocity": 0.33858267716535434,
                    "duration": 0.0979960000000002
                },
                {
                    "name": "D#5",
                    "midi": 75,
                    "time": 11.073548000000017,
                    "velocity": 0.33858267716535434,
                    "duration": 0.0979960000000002
                },
                {
                    "name": "G5",
                    "midi": 79,
                    "time": 11.171544000000017,
                    "velocity": 0.47244094488188976,
                    "duration": 0.0979960000000002
                },
                {
                    "name": "G4",
                    "midi": 67,
                    "time": 11.269540000000017,
                    "velocity": 0.33858267716535434,
                    "duration": 0.0979960000000002
                },
                {
                    "name": "D#5",
                    "midi": 75,
                    "time": 11.367536000000017,
                    "velocity": 0.3228346456692913,
                    "duration": 0.0979960000000002
                },
                {
                    "name": "F#5",
                    "midi": 78,
                    "time": 11.465532000000017,
                    "velocity": 0.44881889763779526,
                    "duration": 0.0979960000000002
                },
                {
                    "name": "F#4",
                    "midi": 66,
                    "time": 11.563528000000018,
                    "velocity": 0.2992125984251969,
                    "duration": 0.0979960000000002
                },
                {
                    "name": "D#5",
                    "midi": 75,
                    "time": 11.661524000000018,
                    "velocity": 0.29133858267716534,
                    "duration": 0.0979960000000002
                },
                {
                    "name": "F5",
                    "midi": 77,
                    "time": 11.759520000000018,
                    "velocity": 0.41732283464566927,
                    "duration": 0.0979960000000002
                },
                {
                    "name": "F4",
                    "midi": 65,
                    "time": 11.857516000000018,
                    "velocity": 0.30708661417322836,
                    "duration": 0.0979960000000002
                },
                {
                    "name": "D#5",
                    "midi": 75,
                    "time": 11.955512000000018,
                    "velocity": 0.31496062992125984,
                    "duration": 0.0979960000000002
                },
                {
                    "name": "F#5",
                    "midi": 78,
                    "time": 12.053508000000019,
                    "velocity": 0.4645669291338583,
                    "duration": 0.0979960000000002
                },
                {
                    "name": "F#4",
                    "midi": 66,
                    "time": 12.151504000000019,
                    "velocity": 0.3228346456692913,
                    "duration": 0.0979960000000002
                },
                {
                    "name": "D#5",
                    "midi": 75,
                    "time": 12.249500000000019,
                    "velocity": 0.3464566929133858,
                    "duration": 0.0979960000000002
                },
                {
                    "name": "G5",
                    "midi": 79,
                    "time": 12.34749600000002,
                    "velocity": 0.49606299212598426,
                    "duration": 0.0979960000000002
                },
                {
                    "name": "G4",
                    "midi": 67,
                    "time": 12.44549200000002,
                    "velocity": 0.33070866141732286,
                    "duration": 0.0979960000000002
                },
                {
                    "name": "D5",
                    "midi": 74,
                    "time": 12.54348800000002,
                    "velocity": 0.33070866141732286,
                    "duration": 0.0979960000000002
                },
                {
                    "name": "A5",
                    "midi": 81,
                    "time": 12.64148400000002,
                    "velocity": 0.5275590551181102,
                    "duration": 0.0979960000000002
                },
                {
                    "name": "A4",
                    "midi": 69,
                    "time": 12.73948000000002,
                    "velocity": 0.3700787401574803,
                    "duration": 0.0979960000000002
                },
                {
                    "name": "D5",
                    "midi": 74,
                    "time": 12.83747600000002,
                    "velocity": 0.4094488188976378,
                    "duration": 0.0979960000000002
                },
                {
                    "name": "A#5",
                    "midi": 82,
                    "time": 12.93547200000002,
                    "velocity": 0.5511811023622047,
                    "duration": 0.0979960000000002
                },
                {
                    "name": "A#4",
                    "midi": 70,
                    "time": 13.03346800000002,
                    "velocity": 0.4015748031496063,
                    "duration": 0.0979960000000002
                },
                {
                    "name": "D5",
                    "midi": 74,
                    "time": 13.13146400000002,
                    "velocity": 0.4330708661417323,
                    "duration": 0.0979960000000002
                },
                {
                    "name": "C6",
                    "midi": 84,
                    "time": 13.22946000000002,
                    "velocity": 0.5905511811023622,
                    "duration": 0.0979960000000002
                },
                {
                    "name": "C5",
                    "midi": 72,
                    "time": 13.327456000000021,
                    "velocity": 0.4330708661417323,
                    "duration": 0.0979960000000002
                },
                {
                    "name": "F5",
                    "midi": 77,
                    "time": 13.425452000000021,
                    "velocity": 0.4330708661417323,
                    "duration": 0.0979960000000002
                },
                {
                    "name": "D6",
                    "midi": 86,
                    "time": 13.523448000000021,
                    "velocity": 0.5669291338582677,
                    "duration": 0.0979960000000002
                },
                {
                    "name": "D5",
                    "midi": 74,
                    "time": 13.621444000000022,
                    "velocity": 0.4251968503937008,
                    "duration": 0.0979960000000002
                },
                {
                    "name": "F5",
                    "midi": 77,
                    "time": 13.719440000000022,
                    "velocity": 0.3779527559055118,
                    "duration": 0.0979960000000002
                },
                {
                    "name": "A5",
                    "midi": 81,
                    "time": 13.817436000000022,
                    "velocity": 0.5275590551181102,
                    "duration": 0.0979960000000002
                },
                {
                    "name": "A4",
                    "midi": 69,
                    "time": 13.915432000000022,
                    "velocity": 0.3779527559055118,
                    "duration": 0.0979960000000002
                },
                {
                    "name": "F5",
                    "midi": 77,
                    "time": 14.013428000000022,
                    "velocity": 0.3937007874015748,
                    "duration": 0.0979960000000002
                },
                {
                    "name": "C6",
                    "midi": 84,
                    "time": 14.111424000000023,
                    "velocity": 0.5354330708661418,
                    "duration": 0.0979960000000002
                },
                {
                    "name": "C5",
                    "midi": 72,
                    "time": 14.209420000000023,
                    "velocity": 0.4094488188976378,
                    "duration": 0.0979960000000002
                },
                {
                    "name": "F5",
                    "midi": 77,
                    "time": 14.307416000000023,
                    "velocity": 0.3779527559055118,
                    "duration": 0.0979960000000002
                },
                {
                    "name": "A#5",
                    "midi": 82,
                    "time": 14.405412000000023,
                    "velocity": 0.5275590551181102,
                    "duration": 0.0979960000000002
                },
                {
                    "name": "A#4",
                    "midi": 70,
                    "time": 14.503408000000023,
                    "velocity": 0.33858267716535434,
                    "duration": 0.0979960000000002
                },
                {
                    "name": "F5",
                    "midi": 77,
                    "time": 14.601404000000024,
                    "velocity": 0.33070866141732286,
                    "duration": 0.0979960000000002
                },
                {
                    "name": "F5",
                    "midi": 77,
                    "time": 14.699400000000024,
                    "velocity": 0.5118110236220472,
                    "duration": 0.0979960000000002
                },
                {
                    "name": "F4",
                    "midi": 65,
                    "time": 14.797396000000024,
                    "velocity": 0.33070866141732286,
                    "duration": 0.0979960000000002
                },
                {
                    "name": "A#4",
                    "midi": 70,
                    "time": 14.895392000000024,
                    "velocity": 0.3228346456692913,
                    "duration": 0.0979960000000002
                },
                {
                    "name": "F5",
                    "midi": 77,
                    "time": 14.993388000000024,
                    "velocity": 0.4645669291338583,
                    "duration": 0.0979960000000002
                },
                {
                    "name": "F4",
                    "midi": 65,
                    "time": 15.091384000000025,
                    "velocity": 0.3700787401574803,
                    "duration": 0.0979960000000002
                },
                {
                    "name": "B4",
                    "midi": 71,
                    "time": 15.189380000000025,
                    "velocity": 0.3228346456692913,
                    "duration": 0.0979960000000002
                },
                {
                    "name": "D#5",
                    "midi": 75,
                    "time": 15.287376000000025,
                    "velocity": 0.4251968503937008,
                    "duration": 0.0979960000000002
                },
                {
                    "name": "D#4",
                    "midi": 63,
                    "time": 15.385372000000025,
                    "velocity": 0.3228346456692913,
                    "duration": 0.0979960000000002
                },
                {
                    "name": "A#4",
                    "midi": 70,
                    "time": 15.483368000000025,
                    "velocity": 0.33858267716535434,
                    "duration": 0.0979960000000002
                },
                {
                    "name": "F5",
                    "midi": 77,
                    "time": 15.581364000000026,
                    "velocity": 0.5039370078740157,
                    "duration": 0.0979960000000002
                },
                {
                    "name": "C#4",
                    "midi": 61,
                    "time": 15.679360000000026,
                    "velocity": 0.3464566929133858,
                    "duration": 0.0979960000000002
                },
                {
                    "name": "G#4",
                    "midi": 68,
                    "time": 15.777356000000026,
                    "velocity": 0.3700787401574803,
                    "duration": 0.0979960000000002
                },
                {
                    "name": "G#5",
                    "midi": 80,
                    "time": 15.875352000000026,
                    "velocity": 0.5511811023622047,
                    "duration": 0.0979960000000002
                },
                {
                    "name": "C#4",
                    "midi": 61,
                    "time": 15.973348000000026,
                    "velocity": 0.41732283464566927,
                    "duration": 0.09799599999999842
                },
                {
                    "name": "A#4",
                    "midi": 70,
                    "time": 16.071344000000025,
                    "velocity": 0.4094488188976378,
                    "duration": 0.09799599999999842
                },
                {
                    "name": "F#5",
                    "midi": 78,
                    "time": 16.169340000000023,
                    "velocity": 0.5275590551181102,
                    "duration": 0.09799599999999842
                },
                {
                    "name": "C#4",
                    "midi": 61,
                    "time": 16.26733600000002,
                    "velocity": 0.33858267716535434,
                    "duration": 0.09799599999999842
                },
                {
                    "name": "A#4",
                    "midi": 70,
                    "time": 16.36533200000002,
                    "velocity": 0.33070866141732286,
                    "duration": 0.09799599999999842
                },
                {
                    "name": "C#5",
                    "midi": 73,
                    "time": 16.46332800000002,
                    "velocity": 0.4881889763779528,
                    "duration": 0.09799599999999842
                },
                {
                    "name": "C#4",
                    "midi": 61,
                    "time": 16.561324000000017,
                    "velocity": 0.33070866141732286,
                    "duration": 0.09799599999999842
                },
                {
                    "name": "A#4",
                    "midi": 70,
                    "time": 16.659320000000015,
                    "velocity": 0.3228346456692913,
                    "duration": 0.09799599999999842
                },
                {
                    "name": "F5",
                    "midi": 77,
                    "time": 16.757316000000014,
                    "velocity": 0.41732283464566927,
                    "duration": 0.09799599999999842
                },
                {
                    "name": "C#4",
                    "midi": 61,
                    "time": 16.855312000000012,
                    "velocity": 0.2992125984251969,
                    "duration": 0.09799599999999842
                },
                {
                    "name": "B4",
                    "midi": 71,
                    "time": 16.95330800000001,
                    "velocity": 0.2992125984251969,
                    "duration": 0.09799599999999842
                },
                {
                    "name": "D#5",
                    "midi": 75,
                    "time": 17.05130400000001,
                    "velocity": 0.4251968503937008,
                    "duration": 0.09799599999999842
                },
                {
                    "name": "C#4",
                    "midi": 61,
                    "time": 17.149300000000007,
                    "velocity": 0.3228346456692913,
                    "duration": 0.09799599999999842
                },
                {
                    "name": "A#4",
                    "midi": 70,
                    "time": 17.247296000000006,
                    "velocity": 0.33858267716535434,
                    "duration": 0.09799599999999842
                },
                {
                    "name": "F5",
                    "midi": 77,
                    "time": 17.345292000000004,
                    "velocity": 0.4645669291338583,
                    "duration": 0.09799599999999842
                },
                {
                    "name": "C#4",
                    "midi": 61,
                    "time": 17.443288000000003,
                    "velocity": 0.3858267716535433,
                    "duration": 0.09799599999999842
                },
                {
                    "name": "G#4",
                    "midi": 68,
                    "time": 17.541284,
                    "velocity": 0.3700787401574803,
                    "duration": 0.09799599999999842
                },
                {
                    "name": "G#5",
                    "midi": 80,
                    "time": 17.63928,
                    "velocity": 0.5433070866141733,
                    "duration": 0.09799599999999842
                },
                {
                    "name": "C#4",
                    "midi": 61,
                    "time": 17.737275999999998,
                    "velocity": 0.4015748031496063,
                    "duration": 0.09799599999999842
                },
                {
                    "name": "A#4",
                    "midi": 70,
                    "time": 17.835271999999996,
                    "velocity": 0.3937007874015748,
                    "duration": 0.09799599999999842
                },
                {
                    "name": "F#5",
                    "midi": 78,
                    "time": 17.933267999999995,
                    "velocity": 0.5275590551181102,
                    "duration": 0.09799599999999842
                },
                {
                    "name": "C#4",
                    "midi": 61,
                    "time": 18.031263999999993,
                    "velocity": 0.33858267716535434,
                    "duration": 0.09799599999999842
                },
                {
                    "name": "A#4",
                    "midi": 70,
                    "time": 18.12925999999999,
                    "velocity": 0.33070866141732286,
                    "duration": 0.09799599999999842
                },
                {
                    "name": "C#5",
                    "midi": 73,
                    "time": 18.22725599999999,
                    "velocity": 0.4881889763779528,
                    "duration": 0.09799599999999842
                },
                {
                    "name": "C#4",
                    "midi": 61,
                    "time": 18.32525199999999,
                    "velocity": 0.33070866141732286,
                    "duration": 0.09799599999999842
                },
                {
                    "name": "A#4",
                    "midi": 70,
                    "time": 18.423247999999987,
                    "velocity": 0.3228346456692913,
                    "duration": 0.09799599999999842
                },
                {
                    "name": "E5",
                    "midi": 76,
                    "time": 18.521243999999985,
                    "velocity": 0.4566929133858268,
                    "duration": 0.09799599999999842
                },
                {
                    "name": "E4",
                    "midi": 64,
                    "time": 18.619239999999984,
                    "velocity": 0.2992125984251969,
                    "duration": 0.09799599999999842
                },
                {
                    "name": "A#4",
                    "midi": 70,
                    "time": 18.717235999999982,
                    "velocity": 0.2992125984251969,
                    "duration": 0.09799599999999842
                },
                {
                    "name": "A#5",
                    "midi": 82,
                    "time": 18.81523199999998,
                    "velocity": 0.49606299212598426,
                    "duration": 0.09799599999999842
                },
                {
                    "name": "E4",
                    "midi": 64,
                    "time": 18.91322799999998,
                    "velocity": 0.3464566929133858,
                    "duration": 0.09799599999999842
                },
                {
                    "name": "C#5",
                    "midi": 73,
                    "time": 19.011223999999977,
                    "velocity": 0.3543307086614173,
                    "duration": 0.09799599999999842
                },
                {
                    "name": "C#6",
                    "midi": 85,
                    "time": 19.109219999999976,
                    "velocity": 0.5354330708661418,
                    "duration": 0.09799599999999842
                },
                {
                    "name": "A#4",
                    "midi": 70,
                    "time": 19.207215999999974,
                    "velocity": 0.3779527559055118,
                    "duration": 0.09799599999999842
                },
                {
                    "name": "E5",
                    "midi": 76,
                    "time": 19.305211999999973,
                    "velocity": 0.4015748031496063,
                    "duration": 0.09799599999999842
                },
                {
                    "name": "D6",
                    "midi": 86,
                    "time": 19.40320799999997,
                    "velocity": 0.5984251968503937,
                    "duration": 0.09799599999999842
                },
                {
                    "name": "A#4",
                    "midi": 70,
                    "time": 19.50120399999997,
                    "velocity": 0.41732283464566927,
                    "duration": 0.09799599999999842
                },
                {
                    "name": "F5",
                    "midi": 77,
                    "time": 19.599199999999968,
                    "velocity": 0.4094488188976378,
                    "duration": 0.09799599999999842
                },
                {
                    "name": "D#6",
                    "midi": 87,
                    "time": 19.697195999999966,
                    "velocity": 0.5669291338582677,
                    "duration": 0.09799599999999842
                },
                {
                    "name": "A#4",
                    "midi": 70,
                    "time": 19.795191999999965,
                    "velocity": 0.33858267716535434,
                    "duration": 0.09799599999999842
                },
                {
                    "name": "G5",
                    "midi": 79,
                    "time": 19.893187999999963,
                    "velocity": 0.33858267716535434,
                    "duration": 0.09799599999999842
                },
                {
                    "name": "B5",
                    "midi": 83,
                    "time": 19.99118399999996,
                    "velocity": 0.5196850393700787,
                    "duration": 0.09799599999999842
                },
                {
                    "name": "G#4",
                    "midi": 68,
                    "time": 20.08917999999996,
                    "velocity": 0.41732283464566927,
                    "duration": 0.09799599999999842
                },
                {
                    "name": "D5",
                    "midi": 74,
                    "time": 20.18717599999996,
                    "velocity": 0.4251968503937008,
                    "duration": 0.09799599999999842
                },
                {
                    "name": "C6",
                    "midi": 84,
                    "time": 20.285171999999957,
                    "velocity": 0.5590551181102362,
                    "duration": 0.09799599999999842
                },
                {
                    "name": "A4",
                    "midi": 69,
                    "time": 20.383167999999955,
                    "velocity": 0.4330708661417323,
                    "duration": 0.09799599999999842
                },
                {
                    "name": "D#5",
                    "midi": 75,
                    "time": 20.481163999999954,
                    "velocity": 0.4094488188976378,
                    "duration": 0.09799599999999842
                },
                {
                    "name": "D6",
                    "midi": 86,
                    "time": 20.579159999999952,
                    "velocity": 0.5511811023622047,
                    "duration": 0.09799599999999842
                },
                {
                    "name": "A4",
                    "midi": 69,
                    "time": 20.67715599999995,
                    "velocity": 0.4015748031496063,
                    "duration": 0.09799599999999842
                },
                {
                    "name": "F5",
                    "midi": 77,
                    "time": 20.77515199999995,
                    "velocity": 0.3700787401574803,
                    "duration": 0.09799599999999842
                },
                {
                    "name": "A5",
                    "midi": 81,
                    "time": 20.873147999999947,
                    "velocity": 0.4881889763779528,
                    "duration": 0.09799599999999842
                },
                {
                    "name": "A4",
                    "midi": 69,
                    "time": 20.971143999999946,
                    "velocity": 0.33070866141732286,
                    "duration": 0.09799599999999842
                },
                {
                    "name": "C5",
                    "midi": 72,
                    "time": 21.069139999999944,
                    "velocity": 0.33858267716535434,
                    "duration": 0.09799599999999842
                },
                {
                    "name": "C6",
                    "midi": 84,
                    "time": 21.167135999999942,
                    "velocity": 0.5511811023622047,
                    "duration": 0.09799599999999842
                },
                {
                    "name": "F4",
                    "midi": 65,
                    "time": 21.26513199999994,
                    "velocity": 0.3779527559055118,
                    "duration": 0.09799599999999842
                },
                {
                    "name": "D#5",
                    "midi": 75,
                    "time": 21.36312799999994,
                    "velocity": 0.3700787401574803,
                    "duration": 0.09799599999999842
                },
                {
                    "name": "A#5",
                    "midi": 82,
                    "time": 21.461123999999938,
                    "velocity": 0.5118110236220472,
                    "duration": 0.09799599999999842
                },
                {
                    "name": "F4",
                    "midi": 65,
                    "time": 21.559119999999936,
                    "velocity": 0.33858267716535434,
                    "duration": 0.09799599999999842
                },
                {
                    "name": "D5",
                    "midi": 74,
                    "time": 21.657115999999935,
                    "velocity": 0.33070866141732286,
                    "duration": 0.09799599999999842
                },
                {
                    "name": "F5",
                    "midi": 77,
                    "time": 21.755111999999933,
                    "velocity": 0.4645669291338583,
                    "duration": 0.09799599999999842
                },
                {
                    "name": "F4",
                    "midi": 65,
                    "time": 21.85310799999993,
                    "velocity": 0.33070866141732286,
                    "duration": 0.09799599999999842
                },
                {
                    "name": "A#4",
                    "midi": 70,
                    "time": 21.95110399999993,
                    "velocity": 0.3228346456692913,
                    "duration": 0.09799599999999842
                },
                {
                    "name": "F5",
                    "midi": 77,
                    "time": 22.049099999999928,
                    "velocity": 0.44881889763779526,
                    "duration": 0.09799599999999842
                },
                {
                    "name": "F4",
                    "midi": 65,
                    "time": 22.147095999999927,
                    "velocity": 0.2992125984251969,
                    "duration": 0.09799599999999842
                },
                {
                    "name": "B4",
                    "midi": 71,
                    "time": 22.245091999999925,
                    "velocity": 0.2992125984251969,
                    "duration": 0.09799599999999842
                },
                {
                    "name": "D#5",
                    "midi": 75,
                    "time": 22.343087999999923,
                    "velocity": 0.4645669291338583,
                    "duration": 0.09799599999999842
                },
                {
                    "name": "D#4",
                    "midi": 63,
                    "time": 22.441083999999922,
                    "velocity": 0.3543307086614173,
                    "duration": 0.09799599999999842
                },
                {
                    "name": "A#4",
                    "midi": 70,
                    "time": 22.53907999999992,
                    "velocity": 0.3700787401574803,
                    "duration": 0.09799599999999842
                },
                {
                    "name": "F5",
                    "midi": 77,
                    "time": 22.63707599999992,
                    "velocity": 0.5196850393700787,
                    "duration": 0.09799599999999842
                },
                {
                    "name": "C#4",
                    "midi": 61,
                    "time": 22.735071999999917,
                    "velocity": 0.41732283464566927,
                    "duration": 0.09799599999999842
                },
                {
                    "name": "G#4",
                    "midi": 68,
                    "time": 22.833067999999916,
                    "velocity": 0.4409448818897638,
                    "duration": 0.09799599999999842
                },
                {
                    "name": "G#5",
                    "midi": 80,
                    "time": 22.931063999999914,
                    "velocity": 0.5590551181102362,
                    "duration": 0.09799599999999842
                },
                {
                    "name": "C#4",
                    "midi": 61,
                    "time": 23.029059999999912,
                    "velocity": 0.41732283464566927,
                    "duration": 0.09799599999999842
                },
                {
                    "name": "A#4",
                    "midi": 70,
                    "time": 23.12705599999991,
                    "velocity": 0.4094488188976378,
                    "duration": 0.09799599999999842
                },
                {
                    "name": "F#5",
                    "midi": 78,
                    "time": 23.22505199999991,
                    "velocity": 0.5196850393700787,
                    "duration": 0.09799599999999842
                },
                {
                    "name": "C#4",
                    "midi": 61,
                    "time": 23.323047999999908,
                    "velocity": 0.3858267716535433,
                    "duration": 0.09799599999999842
                },
                {
                    "name": "A#4",
                    "midi": 70,
                    "time": 23.421043999999906,
                    "velocity": 0.36220472440944884,
                    "duration": 0.09799599999999842
                },
                {
                    "name": "C#5",
                    "midi": 73,
                    "time": 23.519039999999904,
                    "velocity": 0.4645669291338583,
                    "duration": 0.09799599999999842
                },
                {
                    "name": "C#4",
                    "midi": 61,
                    "time": 23.617035999999903,
                    "velocity": 0.33070866141732286,
                    "duration": 0.09799599999999842
                },
                {
                    "name": "A#4",
                    "midi": 70,
                    "time": 23.7150319999999,
                    "velocity": 0.3228346456692913,
                    "duration": 0.09799599999999842
                },
                {
                    "name": "F5",
                    "midi": 77,
                    "time": 23.8130279999999,
                    "velocity": 0.4409448818897638,
                    "duration": 0.09799599999999842
                },
                {
                    "name": "C#4",
                    "midi": 61,
                    "time": 23.911023999999898,
                    "velocity": 0.2992125984251969,
                    "duration": 0.09799599999999842
                },
                {
                    "name": "B4",
                    "midi": 71,
                    "time": 24.009019999999897,
                    "velocity": 0.2992125984251969,
                    "duration": 0.09799599999999842
                },
                {
                    "name": "D#5",
                    "midi": 75,
                    "time": 24.107015999999895,
                    "velocity": 0.4409448818897638,
                    "duration": 0.09799599999999842
                },
                {
                    "name": "C#4",
                    "midi": 61,
                    "time": 24.205011999999893,
                    "velocity": 0.33858267716535434,
                    "duration": 0.09799599999999842
                },
                {
                    "name": "A#4",
                    "midi": 70,
                    "time": 24.303007999999892,
                    "velocity": 0.3700787401574803,
                    "duration": 0.09799599999999842
                },
                {
                    "name": "F5",
                    "midi": 77,
                    "time": 24.40100399999989,
                    "velocity": 0.5196850393700787,
                    "duration": 0.09799599999999842
                },
                {
                    "name": "C#4",
                    "midi": 61,
                    "time": 24.49899999999989,
                    "velocity": 0.3858267716535433,
                    "duration": 0.09799599999999842
                },
                {
                    "name": "G#4",
                    "midi": 68,
                    "time": 24.596995999999887,
                    "velocity": 0.4251968503937008,
                    "duration": 0.09799599999999842
                },
                {
                    "name": "G#5",
                    "midi": 80,
                    "time": 24.694991999999885,
                    "velocity": 0.5669291338582677,
                    "duration": 0.09799599999999842
                },
                {
                    "name": "C#4",
                    "midi": 61,
                    "time": 24.792987999999884,
                    "velocity": 0.41732283464566927,
                    "duration": 0.09799599999999842
                },
                {
                    "name": "A#4",
                    "midi": 70,
                    "time": 24.890983999999882,
                    "velocity": 0.4094488188976378,
                    "duration": 0.09799599999999842
                },
                {
                    "name": "F#5",
                    "midi": 78,
                    "time": 24.98897999999988,
                    "velocity": 0.5354330708661418,
                    "duration": 0.09799599999999842
                },
                {
                    "name": "C#4",
                    "midi": 61,
                    "time": 25.08697599999988,
                    "velocity": 0.33858267716535434,
                    "duration": 0.09799599999999842
                },
                {
                    "name": "A#4",
                    "midi": 70,
                    "time": 25.184971999999878,
                    "velocity": 0.33070866141732286,
                    "duration": 0.09799599999999842
                },
                {
                    "name": "F5",
                    "midi": 77,
                    "time": 25.282967999999876,
                    "velocity": 0.49606299212598426,
                    "duration": 0.09799599999999842
                },
                {
                    "name": "C#4",
                    "midi": 61,
                    "time": 25.380963999999874,
                    "velocity": 0.33070866141732286,
                    "duration": 0.09799599999999842
                },
                {
                    "name": "A#4",
                    "midi": 70,
                    "time": 25.478959999999873,
                    "velocity": 0.3228346456692913,
                    "duration": 0.09799599999999842
                },
                {
                    "name": "E5",
                    "midi": 76,
                    "time": 25.57695599999987,
                    "velocity": 0.47244094488188976,
                    "duration": 0.09799599999999842
                },
                {
                    "name": "C#4",
                    "midi": 61,
                    "time": 25.67495199999987,
                    "velocity": 0.33858267716535434,
                    "duration": 0.09799599999999842
                },
                {
                    "name": "A#4",
                    "midi": 70,
                    "time": 25.772947999999868,
                    "velocity": 0.33858267716535434,
                    "duration": 0.09799599999999842
                },
                {
                    "name": "G5",
                    "midi": 79,
                    "time": 25.870943999999866,
                    "velocity": 0.5275590551181102,
                    "duration": 0.09799599999999842
                },
                {
                    "name": "E4",
                    "midi": 64,
                    "time": 25.968939999999865,
                    "velocity": 0.3464566929133858,
                    "duration": 0.09799599999999842
                },
                {
                    "name": "C#5",
                    "midi": 73,
                    "time": 26.066935999999863,
                    "velocity": 0.36220472440944884,
                    "duration": 0.09799599999999842
                },
                {
                    "name": "F#5",
                    "midi": 78,
                    "time": 26.16493199999986,
                    "velocity": 0.49606299212598426,
                    "duration": 0.09799599999999842
                },
                {
                    "name": "D#4",
                    "midi": 63,
                    "time": 26.26292799999986,
                    "velocity": 0.36220472440944884,
                    "duration": 0.09799599999999842
                },
                {
                    "name": "C5",
                    "midi": 72,
                    "time": 26.36092399999986,
                    "velocity": 0.3858267716535433,
                    "duration": 0.09799599999999842
                },
                {
                    "name": "A5",
                    "midi": 81,
                    "time": 26.458919999999857,
                    "velocity": 0.5669291338582677,
                    "duration": 0.09799599999999842
                },
                {
                    "name": "F#4",
                    "midi": 66,
                    "time": 26.556915999999855,
                    "velocity": 0.3700787401574803,
                    "duration": 0.09799599999999842
                },
                {
                    "name": "D#5",
                    "midi": 75,
                    "time": 26.654911999999854,
                    "velocity": 0.36220472440944884,
                    "duration": 0.09799599999999842
                },
                {
                    "name": "G#5",
                    "midi": 80,
                    "time": 26.752907999999852,
                    "velocity": 0.5590551181102362,
                    "duration": 0.09799599999999842
                },
                {
                    "name": "F4",
                    "midi": 65,
                    "time": 26.85090399999985,
                    "velocity": 0.3779527559055118,
                    "duration": 0.09799599999999842
                },
                {
                    "name": "D5",
                    "midi": 74,
                    "time": 26.94889999999985,
                    "velocity": 0.3858267716535433,
                    "duration": 0.09799599999999842
                },
                {
                    "name": "B5",
                    "midi": 83,
                    "time": 27.046895999999848,
                    "velocity": 0.6062992125984252,
                    "duration": 0.09799599999999842
                },
                {
                    "name": "G#4",
                    "midi": 68,
                    "time": 27.144891999999846,
                    "velocity": 0.4015748031496063,
                    "duration": 0.09799599999999842
                },
                {
                    "name": "F5",
                    "midi": 77,
                    "time": 27.242887999999844,
                    "velocity": 0.41732283464566927,
                    "duration": 0.09799599999999842
                },
                {
                    "name": "A#5",
                    "midi": 82,
                    "time": 27.340883999999843,
                    "velocity": 0.5826771653543307,
                    "duration": 0.09799599999999842
                },
                {
                    "name": "G4",
                    "midi": 67,
                    "time": 27.43887999999984,
                    "velocity": 0.4566929133858268,
                    "duration": 0.09799599999999842
                },
                {
                    "name": "E5",
                    "midi": 76,
                    "time": 27.53687599999984,
                    "velocity": 0.49606299212598426,
                    "duration": 0.09799599999999842
                },
                {
                    "name": "C#6",
                    "midi": 85,
                    "time": 27.634871999999838,
                    "velocity": 0.6929133858267716,
                    "duration": 0.09799599999999842
                },
                {
                    "name": "A#4",
                    "midi": 70,
                    "time": 27.732867999999836,
                    "velocity": 0.5196850393700787,
                    "duration": 0.09799599999999842
                },
                {
                    "name": "G5",
                    "midi": 79,
                    "time": 27.830863999999835,
                    "velocity": 0.5354330708661418,
                    "duration": 0.09799599999999842
                },
                {
                    "name": "C6",
                    "midi": 84,
                    "time": 27.928859999999833,
                    "velocity": 0.6614173228346457,
                    "duration": 0.09799599999999842
                },
                {
                    "name": "A4",
                    "midi": 69,
                    "time": 28.02685599999983,
                    "velocity": 0.5354330708661418,
                    "duration": 0.09799599999999842
                },
                {
                    "name": "F#5",
                    "midi": 78,
                    "time": 28.12485199999983,
                    "velocity": 0.5196850393700787,
                    "duration": 0.09799599999999842
                },
                {
                    "name": "D#6",
                    "midi": 87,
                    "time": 28.22284799999983,
                    "velocity": 0.7401574803149606,
                    "duration": 0.09799599999999842
                },
                {
                    "name": "C5",
                    "midi": 72,
                    "time": 28.320843999999827,
                    "velocity": 0.5433070866141733,
                    "duration": 0.09799599999999842
                },
                {
                    "name": "A5",
                    "midi": 81,
                    "time": 28.418839999999825,
                    "velocity": 0.5511811023622047,
                    "duration": 0.09799599999999842
                },
                {
                    "name": "D6",
                    "midi": 86,
                    "time": 28.516835999999824,
                    "velocity": 0.6929133858267716,
                    "duration": 0.09799599999999842
                },
                {
                    "name": "B4",
                    "midi": 71,
                    "time": 28.614831999999822,
                    "velocity": 0.49606299212598426,
                    "duration": 0.09799599999999842
                },
                {
                    "name": "G#5",
                    "midi": 80,
                    "time": 28.71282799999982,
                    "velocity": 0.5039370078740157,
                    "duration": 0.09799599999999842
                },
                {
                    "name": "F6",
                    "midi": 89,
                    "time": 28.81082399999982,
                    "velocity": 0.6692913385826772,
                    "duration": 0.1469939999999994
                },
                {
                    "name": "A#4",
                    "midi": 70,
                    "time": 29.104811999999818,
                    "velocity": 0.3779527559055118,
                    "duration": 0.09799599999999842
                },
                {
                    "name": "A#3",
                    "midi": 58,
                    "time": 29.202807999999816,
                    "velocity": 0.29133858267716534,
                    "duration": 0.09799599999999842
                },
                {
                    "name": "G4",
                    "midi": 67,
                    "time": 29.300803999999815,
                    "velocity": 0.29133858267716534,
                    "duration": 0.09799599999999842
                },
                {
                    "name": "D#5",
                    "midi": 75,
                    "time": 29.398799999999813,
                    "velocity": 0.4094488188976378,
                    "duration": 0.09799599999999842
                },
                {
                    "name": "D#4",
                    "midi": 63,
                    "time": 29.49679599999981,
                    "velocity": 0.33070866141732286,
                    "duration": 0.09799599999999842
                },
                {
                    "name": "A#4",
                    "midi": 70,
                    "time": 29.59479199999981,
                    "velocity": 0.3464566929133858,
                    "duration": 0.09799599999999842
                },
                {
                    "name": "G5",
                    "midi": 79,
                    "time": 29.69278799999981,
                    "velocity": 0.48031496062992124,
                    "duration": 0.09799599999999842
                },
                {
                    "name": "G4",
                    "midi": 67,
                    "time": 29.790783999999807,
                    "velocity": 0.4015748031496063,
                    "duration": 0.09799599999999842
                },
                {
                    "name": "D#5",
                    "midi": 75,
                    "time": 29.888779999999805,
                    "velocity": 0.4251968503937008,
                    "duration": 0.09799599999999842
                },
                {
                    "name": "A#5",
                    "midi": 82,
                    "time": 29.986775999999804,
                    "velocity": 0.5196850393700787,
                    "duration": 0.09799599999999842
                },
                {
                    "name": "A#4",
                    "midi": 70,
                    "time": 30.084771999999802,
                    "velocity": 0.44881889763779526,
                    "duration": 0.09799599999999842
                },
                {
                    "name": "G5",
                    "midi": 79,
                    "time": 30.1827679999998,
                    "velocity": 0.44881889763779526,
                    "duration": 0.09799599999999842
                },
                {
                    "name": "D#6",
                    "midi": 87,
                    "time": 30.2807639999998,
                    "velocity": 0.5826771653543307,
                    "duration": 0.09799599999999842
                },
                {
                    "name": "D#5",
                    "midi": 75,
                    "time": 30.378759999999797,
                    "velocity": 0.4645669291338583,
                    "duration": 0.09799599999999842
                },
                {
                    "name": "A#5",
                    "midi": 82,
                    "time": 30.476755999999796,
                    "velocity": 0.4881889763779528,
                    "duration": 0.09799599999999842
                },
                {
                    "name": "G6",
                    "midi": 91,
                    "time": 30.574751999999794,
                    "velocity": 0.5748031496062992,
                    "duration": 0.09799599999999842
                },
                {
                    "name": "G5",
                    "midi": 79,
                    "time": 30.672747999999793,
                    "velocity": 0.47244094488188976,
                    "duration": 0.09799599999999842
                },
                {
                    "name": "A#5",
                    "midi": 82,
                    "time": 30.77074399999979,
                    "velocity": 0.5118110236220472,
                    "duration": 0.09799599999999842
                },
                {
                    "name": "F6",
                    "midi": 89,
                    "time": 30.86873999999979,
                    "velocity": 0.6220472440944882,
                    "duration": 0.09799599999999842
                },
                {
                    "name": "D5",
                    "midi": 74,
                    "time": 30.966735999999788,
                    "velocity": 0.4566929133858268,
                    "duration": 0.09799599999999842
                },
                {
                    "name": "G#5",
                    "midi": 80,
                    "time": 31.064731999999786,
                    "velocity": 0.4094488188976378,
                    "duration": 0.09799599999999842
                },
                {
                    "name": "D#6",
                    "midi": 87,
                    "time": 31.162727999999785,
                    "velocity": 0.5984251968503937,
                    "duration": 0.09799599999999842
                },
                {
                    "name": "D#5",
                    "midi": 75,
                    "time": 31.260723999999783,
                    "velocity": 0.4409448818897638,
                    "duration": 0.09799599999999842
                },
                {
                    "name": "G#5",
                    "midi": 80,
                    "time": 31.35871999999978,
                    "velocity": 0.4015748031496063,
                    "duration": 0.09799599999999842
                },
                {
                    "name": "C6",
                    "midi": 84,
                    "time": 31.45671599999978,
                    "velocity": 0.5511811023622047,
                    "duration": 0.09799599999999842
                },
                {
                    "name": "C5",
                    "midi": 72,
                    "time": 31.55471199999978,
                    "velocity": 0.4015748031496063,
                    "duration": 0.09799599999999842
                },
                {
                    "name": "G#5",
                    "midi": 80,
                    "time": 31.652707999999777,
                    "velocity": 0.3858267716535433,
                    "duration": 0.09799599999999842
                },
                {
                    "name": "C6",
                    "midi": 84,
                    "time": 31.750703999999775,
                    "velocity": 0.5511811023622047,
                    "duration": 0.09799599999999842
                },
                {
                    "name": "C5",
                    "midi": 72,
                    "time": 31.848699999999774,
                    "velocity": 0.33070866141732286,
                    "duration": 0.09799599999999842
                },
                {
                    "name": "G5",
                    "midi": 79,
                    "time": 31.946695999999772,
                    "velocity": 0.33858267716535434,
                    "duration": 0.09799599999999842
                },
                {
                    "name": "A#5",
                    "midi": 82,
                    "time": 32.04469199999977,
                    "velocity": 0.4881889763779528,
                    "duration": 0.09799600000000197
                },
                {
                    "name": "A#4",
                    "midi": 70,
                    "time": 32.14268799999977,
                    "velocity": 0.33858267716535434,
                    "duration": 0.09799600000000197
                },
                {
                    "name": "D#5",
                    "midi": 75,
                    "time": 32.240683999999774,
                    "velocity": 0.33858267716535434,
                    "duration": 0.09799600000000197
                },
                {
                    "name": "G5",
                    "midi": 79,
                    "time": 32.338679999999776,
                    "velocity": 0.47244094488188976,
                    "duration": 0.09799600000000197
                },
                {
                    "name": "G4",
                    "midi": 67,
                    "time": 32.43667599999978,
                    "velocity": 0.33858267716535434,
                    "duration": 0.09799600000000197
                },
                {
                    "name": "A#4",
                    "midi": 70,
                    "time": 32.53467199999978,
                    "velocity": 0.3228346456692913,
                    "duration": 0.09799600000000197
                },
                {
                    "name": "D#5",
                    "midi": 75,
                    "time": 32.63266799999978,
                    "velocity": 0.41732283464566927,
                    "duration": 0.09799600000000197
                },
                {
                    "name": "D#4",
                    "midi": 63,
                    "time": 32.730663999999784,
                    "velocity": 0.2992125984251969,
                    "duration": 0.09799600000000197
                },
                {
                    "name": "A4",
                    "midi": 69,
                    "time": 32.828659999999786,
                    "velocity": 0.2992125984251969,
                    "duration": 0.09799600000000197
                },
                {
                    "name": "D5",
                    "midi": 74,
                    "time": 32.92665599999979,
                    "velocity": 0.4251968503937008,
                    "duration": 0.09799600000000197
                },
                {
                    "name": "D4",
                    "midi": 62,
                    "time": 33.02465199999979,
                    "velocity": 0.3228346456692913,
                    "duration": 0.09799600000000197
                },
                {
                    "name": "A4",
                    "midi": 69,
                    "time": 33.12264799999979,
                    "velocity": 0.33858267716535434,
                    "duration": 0.09799600000000197
                },
                {
                    "name": "D#5",
                    "midi": 75,
                    "time": 33.220643999999794,
                    "velocity": 0.5039370078740157,
                    "duration": 0.09799600000000197
                },
                {
                    "name": "D#4",
                    "midi": 63,
                    "time": 33.318639999999796,
                    "velocity": 0.4015748031496063,
                    "duration": 0.09799600000000197
                },
                {
                    "name": "A4",
                    "midi": 69,
                    "time": 33.4166359999998,
                    "velocity": 0.44881889763779526,
                    "duration": 0.09799600000000197
                },
                {
                    "name": "G5",
                    "midi": 79,
                    "time": 33.5146319999998,
                    "velocity": 0.5590551181102362,
                    "duration": 0.09799600000000197
                },
                {
                    "name": "G4",
                    "midi": 67,
                    "time": 33.6126279999998,
                    "velocity": 0.4015748031496063,
                    "duration": 0.09799600000000197
                },
                {
                    "name": "A#4",
                    "midi": 70,
                    "time": 33.710623999999804,
                    "velocity": 0.4015748031496063,
                    "duration": 0.09799600000000197
                },
                {
                    "name": "F5",
                    "midi": 77,
                    "time": 33.808619999999806,
                    "velocity": 0.5275590551181102,
                    "duration": 0.09799600000000197
                },
                {
                    "name": "F4",
                    "midi": 65,
                    "time": 33.90661599999981,
                    "velocity": 0.33858267716535434,
                    "duration": 0.09799600000000197
                },
                {
                    "name": "A#4",
                    "midi": 70,
                    "time": 34.00461199999981,
                    "velocity": 0.33070866141732286,
                    "duration": 0.09799600000000197
                },
                {
                    "name": "D5",
                    "midi": 74,
                    "time": 34.10260799999981,
                    "velocity": 0.49606299212598426,
                    "duration": 0.09799600000000197
                },
                {
                    "name": "D4",
                    "midi": 62,
                    "time": 34.200603999999814,
                    "velocity": 0.33070866141732286,
                    "duration": 0.09799600000000197
                },
                {
                    "name": "F4",
                    "midi": 65,
                    "time": 34.298599999999816,
                    "velocity": 0.3228346456692913,
                    "duration": 0.09799600000000197
                },
                {
                    "name": "D#5",
                    "midi": 75,
                    "time": 34.39659599999982,
                    "velocity": 0.41732283464566927,
                    "duration": 0.09799600000000197
                },
                {
                    "name": "D#4",
                    "midi": 63,
                    "time": 34.49459199999982,
                    "velocity": 0.2992125984251969,
                    "duration": 0.09799600000000197
                },
                {
                    "name": "A4",
                    "midi": 69,
                    "time": 34.59258799999982,
                    "velocity": 0.2992125984251969,
                    "duration": 0.09799600000000197
                },
                {
                    "name": "D5",
                    "midi": 74,
                    "time": 34.690583999999824,
                    "velocity": 0.4251968503937008,
                    "duration": 0.09799600000000197
                },
                {
                    "name": "D4",
                    "midi": 62,
                    "time": 34.788579999999826,
                    "velocity": 0.3228346456692913,
                    "duration": 0.09799600000000197
                },
                {
                    "name": "A4",
                    "midi": 69,
                    "time": 34.88657599999983,
                    "velocity": 0.33858267716535434,
                    "duration": 0.09799600000000197
                },
                {
                    "name": "D#5",
                    "midi": 75,
                    "time": 34.98457199999983,
                    "velocity": 0.5118110236220472,
                    "duration": 0.09799600000000197
                },
                {
                    "name": "D#4",
                    "midi": 63,
                    "time": 35.08256799999983,
                    "velocity": 0.4015748031496063,
                    "duration": 0.09799600000000197
                },
                {
                    "name": "A4",
                    "midi": 69,
                    "time": 35.18056399999983,
                    "velocity": 0.4566929133858268,
                    "duration": 0.09799600000000197
                },
                {
                    "name": "G5",
                    "midi": 79,
                    "time": 35.278559999999835,
                    "velocity": 0.5590551181102362,
                    "duration": 0.09799600000000197
                },
                {
                    "name": "G4",
                    "midi": 67,
                    "time": 35.37655599999984,
                    "velocity": 0.4251968503937008,
                    "duration": 0.09799600000000197
                },
                {
                    "name": "C5",
                    "midi": 72,
                    "time": 35.47455199999984,
                    "velocity": 0.4015748031496063,
                    "duration": 0.09799600000000197
                },
                {
                    "name": "F5",
                    "midi": 77,
                    "time": 35.57254799999984,
                    "velocity": 0.47244094488188976,
                    "duration": 0.09799600000000197
                },
                {
                    "name": "F4",
                    "midi": 65,
                    "time": 35.67054399999984,
                    "velocity": 0.33858267716535434,
                    "duration": 0.09799600000000197
                },
                {
                    "name": "G#4",
                    "midi": 68,
                    "time": 35.768539999999845,
                    "velocity": 0.33070866141732286,
                    "duration": 0.09799600000000197
                },
                {
                    "name": "C5",
                    "midi": 72,
                    "time": 35.86653599999985,
                    "velocity": 0.4566929133858268,
                    "duration": 0.09799600000000197
                },
                {
                    "name": "C4",
                    "midi": 60,
                    "time": 35.96453199999985,
                    "velocity": 0.33070866141732286,
                    "duration": 0.09799600000000197
                },
                {
                    "name": "F4",
                    "midi": 65,
                    "time": 36.06252799999985,
                    "velocity": 0.3228346456692913,
                    "duration": 0.09799600000000197
                },
                {
                    "name": "A#4",
                    "midi": 70,
                    "time": 36.16052399999985,
                    "velocity": 0.41732283464566927,
                    "duration": 0.09799600000000197
                },
                {
                    "name": "A#3",
                    "midi": 58,
                    "time": 36.258519999999855,
                    "velocity": 0.2992125984251969,
                    "duration": 0.09799600000000197
                },
                {
                    "name": "G4",
                    "midi": 67,
                    "time": 36.35651599999986,
                    "velocity": 0.29133858267716534,
                    "duration": 0.09799600000000197
                },
                {
                    "name": "D#5",
                    "midi": 75,
                    "time": 36.45451199999986,
                    "velocity": 0.4015748031496063,
                    "duration": 0.09799600000000197
                },
                {
                    "name": "D#4",
                    "midi": 63,
                    "time": 36.55250799999986,
                    "velocity": 0.2992125984251969,
                    "duration": 0.09799600000000197
                },
                {
                    "name": "A#4",
                    "midi": 70,
                    "time": 36.65050399999986,
                    "velocity": 0.31496062992125984,
                    "duration": 0.09799600000000197
                },
                {
                    "name": "G5",
                    "midi": 79,
                    "time": 36.748499999999865,
                    "velocity": 0.4251968503937008,
                    "duration": 0.09799600000000197
                },
                {
                    "name": "G4",
                    "midi": 67,
                    "time": 36.84649599999987,
                    "velocity": 0.31496062992125984,
                    "duration": 0.09799600000000197
                },
                {
                    "name": "D#5",
                    "midi": 75,
                    "time": 36.94449199999987,
                    "velocity": 0.33858267716535434,
                    "duration": 0.09799600000000197
                },
                {
                    "name": "A#5",
                    "midi": 82,
                    "time": 37.04248799999987,
                    "velocity": 0.5118110236220472,
                    "duration": 0.09799600000000197
                },
                {
                    "name": "A#4",
                    "midi": 70,
                    "time": 37.14048399999987,
                    "velocity": 0.3700787401574803,
                    "duration": 0.09799600000000197
                },
                {
                    "name": "G5",
                    "midi": 79,
                    "time": 37.238479999999875,
                    "velocity": 0.3700787401574803,
                    "duration": 0.09799600000000197
                },
                {
                    "name": "D#6",
                    "midi": 87,
                    "time": 37.33647599999988,
                    "velocity": 0.5511811023622047,
                    "duration": 0.09799600000000197
                },
                {
                    "name": "D#5",
                    "midi": 75,
                    "time": 37.43447199999988,
                    "velocity": 0.3858267716535433,
                    "duration": 0.09799600000000197
                },
                {
                    "name": "A#5",
                    "midi": 82,
                    "time": 37.53246799999988,
                    "velocity": 0.4015748031496063,
                    "duration": 0.09799600000000197
                },
                {
                    "name": "G6",
                    "midi": 91,
                    "time": 37.63046399999988,
                    "velocity": 0.5748031496062992,
                    "duration": 0.09799600000000197
                },
                {
                    "name": "G5",
                    "midi": 79,
                    "time": 37.728459999999885,
                    "velocity": 0.4015748031496063,
                    "duration": 0.09799600000000197
                },
                {
                    "name": "A#5",
                    "midi": 82,
                    "time": 37.82645599999989,
                    "velocity": 0.41732283464566927,
                    "duration": 0.09799600000000197
                },
                {
                    "name": "F#6",
                    "midi": 90,
                    "time": 37.92445199999989,
                    "velocity": 0.6377952755905512,
                    "duration": 0.09799600000000197
                },
                {
                    "name": "D#5",
                    "midi": 75,
                    "time": 38.02244799999989,
                    "velocity": 0.44881889763779526,
                    "duration": 0.09799600000000197
                },
                {
                    "name": "A5",
                    "midi": 81,
                    "time": 38.12044399999989,
                    "velocity": 0.4645669291338583,
                    "duration": 0.09799600000000197
                },
                {
                    "name": "F6",
                    "midi": 89,
                    "time": 38.218439999999894,
                    "velocity": 0.6062992125984252,
                    "duration": 0.09799600000000197
                },
                {
                    "name": "D5",
                    "midi": 74,
                    "time": 38.3164359999999,
                    "velocity": 0.44881889763779526,
                    "duration": 0.09799600000000197
                },
                {
                    "name": "G#5",
                    "midi": 80,
                    "time": 38.4144319999999,
                    "velocity": 0.4566929133858268,
                    "duration": 0.09799600000000197
                },
                {
                    "name": "E6",
                    "midi": 88,
                    "time": 38.5124279999999,
                    "velocity": 0.5984251968503937,
                    "duration": 0.09799600000000197
                },
                {
                    "name": "C#5",
                    "midi": 73,
                    "time": 38.6104239999999,
                    "velocity": 0.4094488188976378,
                    "duration": 0.09799600000000197
                },
                {
                    "name": "G5",
                    "midi": 79,
                    "time": 38.708419999999904,
                    "velocity": 0.4015748031496063,
                    "duration": 0.09799600000000197
                },
                {
                    "name": "D#6",
                    "midi": 87,
                    "time": 38.806415999999906,
                    "velocity": 0.6614173228346457,
                    "duration": 0.09799600000000197
                },
                {
                    "name": "C5",
                    "midi": 72,
                    "time": 38.90441199999991,
                    "velocity": 0.41732283464566927,
                    "duration": 0.09799600000000197
                },
                {
                    "name": "F#5",
                    "midi": 78,
                    "time": 39.00240799999991,
                    "velocity": 0.41732283464566927,
                    "duration": 0.09799600000000197
                },
                {
                    "name": "D6",
                    "midi": 86,
                    "time": 39.10040399999991,
                    "velocity": 0.5905511811023622,
                    "duration": 0.09799600000000197
                },
                {
                    "name": "B4",
                    "midi": 71,
                    "time": 39.198399999999914,
                    "velocity": 0.4094488188976378,
                    "duration": 0.09799600000000197
                },
                {
                    "name": "F5",
                    "midi": 77,
                    "time": 39.296395999999916,
                    "velocity": 0.3779527559055118,
                    "duration": 0.09799600000000197
                },
                {
                    "name": "C#6",
                    "midi": 85,
                    "time": 39.39439199999992,
                    "velocity": 0.5511811023622047,
                    "duration": 0.09799600000000197
                },
                {
                    "name": "C#5",
                    "midi": 73,
                    "time": 39.49238799999992,
                    "velocity": 0.4094488188976378,
                    "duration": 0.09799600000000197
                },
                {
                    "name": "G5",
                    "midi": 79,
                    "time": 39.59038399999992,
                    "velocity": 0.4015748031496063,
                    "duration": 0.09799600000000197
                },
                {
                    "name": "C6",
                    "midi": 84,
                    "time": 39.688379999999924,
                    "velocity": 0.5826771653543307,
                    "duration": 0.09799600000000197
                },
                {
                    "name": "C5",
                    "midi": 72,
                    "time": 39.786375999999926,
                    "velocity": 0.3937007874015748,
                    "duration": 0.09799600000000197
                },
                {
                    "name": "F5",
                    "midi": 77,
                    "time": 39.88437199999993,
                    "velocity": 0.3858267716535433,
                    "duration": 0.09799600000000197
                },
                {
                    "name": "D6",
                    "midi": 86,
                    "time": 39.98236799999993,
                    "velocity": 0.6220472440944882,
                    "duration": 0.09799600000000197
                },
                {
                    "name": "C5",
                    "midi": 72,
                    "time": 40.08036399999993,
                    "velocity": 0.4409448818897638,
                    "duration": 0.09799600000000197
                },
                {
                    "name": "F5",
                    "midi": 77,
                    "time": 40.178359999999934,
                    "velocity": 0.4566929133858268,
                    "duration": 0.09799600000000197
                },
                {
                    "name": "D#6",
                    "midi": 87,
                    "time": 40.276355999999936,
                    "velocity": 0.6771653543307087,
                    "duration": 0.09799600000000197
                },
                {
                    "name": "C5",
                    "midi": 72,
                    "time": 40.37435199999994,
                    "velocity": 0.48031496062992124,
                    "duration": 0.09799600000000197
                },
                {
                    "name": "F5",
                    "midi": 77,
                    "time": 40.47234799999994,
                    "velocity": 0.5118110236220472,
                    "duration": 0.09799600000000197
                },
                {
                    "name": "F6",
                    "midi": 89,
                    "time": 40.57034399999994,
                    "velocity": 0.7007874015748031,
                    "duration": 0.09799600000000197
                },
                {
                    "name": "F5",
                    "midi": 77,
                    "time": 40.668339999999944,
                    "velocity": 0.4881889763779528,
                    "duration": 0.09799600000000197
                },
                {
                    "name": "C6",
                    "midi": 84,
                    "time": 40.766335999999946,
                    "velocity": 0.49606299212598426,
                    "duration": 0.09799600000000197
                },
                {
                    "name": "G6",
                    "midi": 91,
                    "time": 40.86433199999995,
                    "velocity": 0.6299212598425197,
                    "duration": 0.09799600000000197
                },
                {
                    "name": "G5",
                    "midi": 79,
                    "time": 40.96232799999995,
                    "velocity": 0.3937007874015748,
                    "duration": 0.09799600000000197
                },
                {
                    "name": "C6",
                    "midi": 84,
                    "time": 41.06032399999995,
                    "velocity": 0.4015748031496063,
                    "duration": 0.09799600000000197
                },
                {
                    "name": "F6",
                    "midi": 89,
                    "time": 41.158319999999954,
                    "velocity": 0.5905511811023622,
                    "duration": 0.09799600000000197
                },
                {
                    "name": "F5",
                    "midi": 77,
                    "time": 41.256315999999956,
                    "velocity": 0.3700787401574803,
                    "duration": 0.09799600000000197
                },
                {
                    "name": "G#5",
                    "midi": 80,
                    "time": 41.35431199999996,
                    "velocity": 0.3779527559055118,
                    "duration": 0.09799600000000197
                },
                {
                    "name": "C6",
                    "midi": 84,
                    "time": 41.45230799999996,
                    "velocity": 0.5511811023622047,
                    "duration": 0.09799600000000197
                },
                {
                    "name": "C5",
                    "midi": 72,
                    "time": 41.55030399999996,
                    "velocity": 0.4015748031496063,
                    "duration": 0.09799600000000197
                },
                {
                    "name": "F5",
                    "midi": 77,
                    "time": 41.64829999999996,
                    "velocity": 0.3937007874015748,
                    "duration": 0.09799600000000197
                },
                {
                    "name": "D6",
                    "midi": 86,
                    "time": 41.746295999999965,
                    "velocity": 0.5354330708661418,
                    "duration": 0.09799600000000197
                },
                {
                    "name": "D5",
                    "midi": 74,
                    "time": 41.84429199999997,
                    "velocity": 0.41732283464566927,
                    "duration": 0.09799600000000197
                },
                {
                    "name": "F5",
                    "midi": 77,
                    "time": 41.94228799999997,
                    "velocity": 0.3858267716535433,
                    "duration": 0.09799600000000197
                },
                {
                    "name": "C6",
                    "midi": 84,
                    "time": 42.04028399999997,
                    "velocity": 0.48031496062992124,
                    "duration": 0.09799600000000197
                },
                {
                    "name": "C5",
                    "midi": 72,
                    "time": 42.13827999999997,
                    "velocity": 0.3464566929133858,
                    "duration": 0.09799600000000197
                },
                {
                    "name": "F5",
                    "midi": 77,
                    "time": 42.236275999999975,
                    "velocity": 0.36220472440944884,
                    "duration": 0.09799600000000197
                },
                {
                    "name": "F5",
                    "midi": 77,
                    "time": 42.33427199999998,
                    "velocity": 0.44881889763779526,
                    "duration": 0.09799600000000197
                },
                {
                    "name": "F4",
                    "midi": 65,
                    "time": 42.43226799999998,
                    "velocity": 0.33070866141732286,
                    "duration": 0.09799600000000197
                },
                {
                    "name": "C5",
                    "midi": 72,
                    "time": 42.53026399999998,
                    "velocity": 0.3228346456692913,
                    "duration": 0.09799600000000197
                },
                {
                    "name": "G5",
                    "midi": 79,
                    "time": 42.62825999999998,
                    "velocity": 0.4330708661417323,
                    "duration": 0.09799600000000197
                },
                {
                    "name": "F4",
                    "midi": 65,
                    "time": 42.726255999999985,
                    "velocity": 0.3464566929133858,
                    "duration": 0.09799600000000197
                },
                {
                    "name": "C5",
                    "midi": 72,
                    "time": 42.82425199999999,
                    "velocity": 0.3464566929133858,
                    "duration": 0.09799600000000197
                },
                {
                    "name": "D5",
                    "midi": 74,
                    "time": 42.92224799999999,
                    "velocity": 0.3937007874015748,
                    "duration": 0.09799600000000197
                },
                {
                    "name": "D4",
                    "midi": 62,
                    "time": 43.02024399999999,
                    "velocity": 0.28346456692913385,
                    "duration": 0.09799600000000197
                },
                {
                    "name": "A#4",
                    "midi": 70,
                    "time": 43.11823999999999,
                    "velocity": 0.29133858267716534,
                    "duration": 0.09799600000000197
                },
                {
                    "name": "D#5",
                    "midi": 75,
                    "time": 43.216235999999995,
                    "velocity": 0.4094488188976378,
                    "duration": 0.09799600000000197
                },
                {
                    "name": "D#4",
                    "midi": 63,
                    "time": 43.314232,
                    "velocity": 0.31496062992125984,
                    "duration": 0.09799600000000197
                },
                {
                    "name": "A#4",
                    "midi": 70,
                    "time": 43.412228,
                    "velocity": 0.3228346456692913,
                    "duration": 0.09799600000000197
                },
                {
                    "name": "A#5",
                    "midi": 82,
                    "time": 43.510224,
                    "velocity": 0.48031496062992124,
                    "duration": 0.09799600000000197
                },
                {
                    "name": "G4",
                    "midi": 67,
                    "time": 43.60822,
                    "velocity": 0.3464566929133858,
                    "duration": 0.09799600000000197
                },
                {
                    "name": "D#5",
                    "midi": 75,
                    "time": 43.706216000000005,
                    "velocity": 0.3700787401574803,
                    "duration": 0.09799600000000197
                },
                {
                    "name": "B5",
                    "midi": 83,
                    "time": 43.80421200000001,
                    "velocity": 0.5354330708661418,
                    "duration": 0.09799600000000197
                },
                {
                    "name": "G4",
                    "midi": 67,
                    "time": 43.90220800000001,
                    "velocity": 0.3779527559055118,
                    "duration": 0.09799600000000197
                },
                {
                    "name": "D#5",
                    "midi": 75,
                    "time": 44.00020400000001,
                    "velocity": 0.4015748031496063,
                    "duration": 0.09799600000000197
                },
                {
                    "name": "A#5",
                    "midi": 82,
                    "time": 44.09820000000001,
                    "velocity": 0.5354330708661418,
                    "duration": 0.09799600000000197
                },
                {
                    "name": "G#4",
                    "midi": 68,
                    "time": 44.196196000000015,
                    "velocity": 0.4015748031496063,
                    "duration": 0.09799600000000197
                },
                {
                    "name": "D5",
                    "midi": 74,
                    "time": 44.29419200000002,
                    "velocity": 0.3858267716535433,
                    "duration": 0.09799600000000197
                },
                {
                    "name": "A5",
                    "midi": 81,
                    "time": 44.39218800000002,
                    "velocity": 0.5433070866141733,
                    "duration": 0.09799600000000197
                },
                {
                    "name": "G#4",
                    "midi": 68,
                    "time": 44.49018400000002,
                    "velocity": 0.3858267716535433,
                    "duration": 0.09799600000000197
                },
                {
                    "name": "D5",
                    "midi": 74,
                    "time": 44.58818000000002,
                    "velocity": 0.36220472440944884,
                    "duration": 0.09799600000000197
                },
                {
                    "name": "G#5",
                    "midi": 80,
                    "time": 44.686176000000025,
                    "velocity": 0.49606299212598426,
                    "duration": 0.09799600000000197
                },
                {
                    "name": "G#4",
                    "midi": 68,
                    "time": 44.78417200000003,
                    "velocity": 0.3543307086614173,
                    "duration": 0.09799600000000197
                },
                {
                    "name": "D5",
                    "midi": 74,
                    "time": 44.88216800000003,
                    "velocity": 0.31496062992125984,
                    "duration": 0.09799600000000197
                },
                {
                    "name": "G5",
                    "midi": 79,
                    "time": 44.98016400000003,
                    "velocity": 0.4094488188976378,
                    "duration": 0.09799600000000197
                },
                {
                    "name": "G4",
                    "midi": 67,
                    "time": 45.07816000000003,
                    "velocity": 0.31496062992125984,
                    "duration": 0.09799600000000197
                },
                {
                    "name": "D#5",
                    "midi": 75,
                    "time": 45.176156000000034,
                    "velocity": 0.3228346456692913,
                    "duration": 0.09799600000000197
                },
                {
                    "name": "A#5",
                    "midi": 82,
                    "time": 45.274152000000036,
                    "velocity": 0.48031496062992124,
                    "duration": 0.09799600000000197
                },
                {
                    "name": "G4",
                    "midi": 67,
                    "time": 45.37214800000004,
                    "velocity": 0.3464566929133858,
                    "duration": 0.09799600000000197
                },
                {
                    "name": "D#5",
                    "midi": 75,
                    "time": 45.47014400000004,
                    "velocity": 0.3700787401574803,
                    "duration": 0.09799600000000197
                },
                {
                    "name": "C6",
                    "midi": 84,
                    "time": 45.56814000000004,
                    "velocity": 0.5275590551181102,
                    "duration": 0.09799600000000197
                },
                {
                    "name": "G4",
                    "midi": 67,
                    "time": 45.666136000000044,
                    "velocity": 0.3779527559055118,
                    "duration": 0.09799600000000197
                },
                {
                    "name": "D#5",
                    "midi": 75,
                    "time": 45.764132000000046,
                    "velocity": 0.4015748031496063,
                    "duration": 0.09799600000000197
                },
                {
                    "name": "A#5",
                    "midi": 82,
                    "time": 45.86212800000005,
                    "velocity": 0.5433070866141733,
                    "duration": 0.09799600000000197
                },
                {
                    "name": "G#4",
                    "midi": 68,
                    "time": 45.96012400000005,
                    "velocity": 0.4015748031496063,
                    "duration": 0.09799600000000197
                },
                {
                    "name": "D5",
                    "midi": 74,
                    "time": 46.05812000000005,
                    "velocity": 0.3858267716535433,
                    "duration": 0.09799600000000197
                },
                {
                    "name": "A5",
                    "midi": 81,
                    "time": 46.156116000000054,
                    "velocity": 0.4881889763779528,
                    "duration": 0.09799600000000197
                },
                {
                    "name": "G#4",
                    "midi": 68,
                    "time": 46.254112000000056,
                    "velocity": 0.3858267716535433,
                    "duration": 0.09799600000000197
                },
                {
                    "name": "D5",
                    "midi": 74,
                    "time": 46.35210800000006,
                    "velocity": 0.36220472440944884,
                    "duration": 0.09799600000000197
                },
                {
                    "name": "G#5",
                    "midi": 80,
                    "time": 46.45010400000006,
                    "velocity": 0.4330708661417323,
                    "duration": 0.09799600000000197
                },
                {
                    "name": "G#4",
                    "midi": 68,
                    "time": 46.54810000000006,
                    "velocity": 0.3543307086614173,
                    "duration": 0.09799600000000197
                },
                {
                    "name": "D5",
                    "midi": 74,
                    "time": 46.646096000000064,
                    "velocity": 0.31496062992125984,
                    "duration": 0.09799600000000197
                },
                {
                    "name": "G5",
                    "midi": 79,
                    "time": 46.744092000000066,
                    "velocity": 0.4094488188976378,
                    "duration": 0.09799600000000197
                },
                {
                    "name": "G4",
                    "midi": 67,
                    "time": 46.84208800000007,
                    "velocity": 0.31496062992125984,
                    "duration": 0.09799600000000197
                },
                {
                    "name": "D#5",
                    "midi": 75,
                    "time": 46.94008400000007,
                    "velocity": 0.33070866141732286,
                    "duration": 0.09799600000000197
                },
                {
                    "name": "A#5",
                    "midi": 82,
                    "time": 47.03808000000007,
                    "velocity": 0.5118110236220472,
                    "duration": 0.09799600000000197
                },
                {
                    "name": "G4",
                    "midi": 67,
                    "time": 47.136076000000074,
                    "velocity": 0.3779527559055118,
                    "duration": 0.09799600000000197
                },
                {
                    "name": "G5",
                    "midi": 79,
                    "time": 47.234072000000076,
                    "velocity": 0.3937007874015748,
                    "duration": 0.09799600000000197
                },
                {
                    "name": "D#6",
                    "midi": 87,
                    "time": 47.33206800000008,
                    "velocity": 0.5905511811023622,
                    "duration": 0.09799600000000197
                },
                {
                    "name": "D#5",
                    "midi": 75,
                    "time": 47.43006400000008,
                    "velocity": 0.4251968503937008,
                    "duration": 0.09799600000000197
                },
                {
                    "name": "A#5",
                    "midi": 82,
                    "time": 47.52806000000008,
                    "velocity": 0.4566929133858268,
                    "duration": 0.09799600000000197
                },
                {
                    "name": "G6",
                    "midi": 91,
                    "time": 47.626056000000084,
                    "velocity": 0.6456692913385826,
                    "duration": 0.09799600000000197
                },
                {
                    "name": "D5",
                    "midi": 74,
                    "time": 47.724052000000086,
                    "velocity": 0.4645669291338583,
                    "duration": 0.09799600000000197
                },
                {
                    "name": "B5",
                    "midi": 83,
                    "time": 47.82204800000009,
                    "velocity": 0.4409448818897638,
                    "duration": 0.09799600000000197
                },
                {
                    "name": "F6",
                    "midi": 89,
                    "time": 47.92004400000009,
                    "velocity": 0.5826771653543307,
                    "duration": 0.09799600000000197
                },
                {
                    "name": "D5",
                    "midi": 74,
                    "time": 48.01804000000009,
                    "velocity": 0.4330708661417323,
                    "duration": 0.09799600000000197
                },
                {
                    "name": "G5",
                    "midi": 79,
                    "time": 48.11603600000009,
                    "velocity": 0.41732283464566927,
                    "duration": 0.09799600000000197
                },
                {
                    "name": "D#6",
                    "midi": 87,
                    "time": 48.214032000000095,
                    "velocity": 0.5590551181102362,
                    "duration": 0.09799600000000197
                },
                {
                    "name": "C5",
                    "midi": 72,
                    "time": 48.3120280000001,
                    "velocity": 0.4094488188976378,
                    "duration": 0.09799600000000197
                },
                {
                    "name": "G5",
                    "midi": 79,
                    "time": 48.4100240000001,
                    "velocity": 0.4015748031496063,
                    "duration": 0.09799600000000197
                },
                {
                    "name": "D#6",
                    "midi": 87,
                    "time": 48.5080200000001,
                    "velocity": 0.5905511811023622,
                    "duration": 0.09799600000000197
                },
                {
                    "name": "C5",
                    "midi": 72,
                    "time": 48.6060160000001,
                    "velocity": 0.44881889763779526,
                    "duration": 0.09799600000000197
                },
                {
                    "name": "F#5",
                    "midi": 78,
                    "time": 48.704012000000105,
                    "velocity": 0.4015748031496063,
                    "duration": 0.09799600000000197
                },
                {
                    "name": "D6",
                    "midi": 86,
                    "time": 48.80200800000011,
                    "velocity": 0.5511811023622047,
                    "duration": 0.09799600000000197
                },
                {
                    "name": "B4",
                    "midi": 71,
                    "time": 48.90000400000011,
                    "velocity": 0.4015748031496063,
                    "duration": 0.09799600000000197
                },
                {
                    "name": "F#5",
                    "midi": 78,
                    "time": 48.99800000000011,
                    "velocity": 0.3937007874015748,
                    "duration": 0.09799600000000197
                },
                {
                    "name": "C6",
                    "midi": 84,
                    "time": 49.09599600000011,
                    "velocity": 0.5118110236220472,
                    "duration": 0.09799600000000197
                },
                {
                    "name": "C5",
                    "midi": 72,
                    "time": 49.193992000000115,
                    "velocity": 0.3543307086614173,
                    "duration": 0.09799600000000197
                },
                {
                    "name": "F#5",
                    "midi": 78,
                    "time": 49.29198800000012,
                    "velocity": 0.3464566929133858,
                    "duration": 0.09799600000000197
                },
                {
                    "name": "C6",
                    "midi": 84,
                    "time": 49.38998400000012,
                    "velocity": 0.48031496062992124,
                    "duration": 0.09799600000000197
                },
                {
                    "name": "G#4",
                    "midi": 68,
                    "time": 49.48798000000012,
                    "velocity": 0.36220472440944884,
                    "duration": 0.09799600000000197
                },
                {
                    "name": "F5",
                    "midi": 77,
                    "time": 49.58597600000012,
                    "velocity": 0.3543307086614173,
                    "duration": 0.09799600000000197
                },
                {
                    "name": "A#5",
                    "midi": 82,
                    "time": 49.683972000000125,
                    "velocity": 0.4566929133858268,
                    "duration": 0.09799600000000197
                },
                {
                    "name": "G4",
                    "midi": 67,
                    "time": 49.78196800000013,
                    "velocity": 0.3464566929133858,
                    "duration": 0.09799600000000197
                },
                {
                    "name": "C5",
                    "midi": 72,
                    "time": 49.87996400000013,
                    "velocity": 0.33858267716535434,
                    "duration": 0.09799600000000197
                },
                {
                    "name": "G#5",
                    "midi": 80,
                    "time": 49.97796000000013,
                    "velocity": 0.4330708661417323,
                    "duration": 0.09799600000000197
                },
                {
                    "name": "F4",
                    "midi": 65,
                    "time": 50.07595600000013,
                    "velocity": 0.33858267716535434,
                    "duration": 0.09799600000000197
                },
                {
                    "name": "D5",
                    "midi": 74,
                    "time": 50.173952000000135,
                    "velocity": 0.30708661417322836,
                    "duration": 0.09799600000000197
                },
                {
                    "name": "G5",
                    "midi": 79,
                    "time": 50.27194800000014,
                    "velocity": 0.4094488188976378,
                    "duration": 0.09799600000000197
                },
                {
                    "name": "D#4",
                    "midi": 63,
                    "time": 50.36994400000014,
                    "velocity": 0.31496062992125984,
                    "duration": 0.09799600000000197
                },
                {
                    "name": "D#5",
                    "midi": 75,
                    "time": 50.46794000000014,
                    "velocity": 0.3228346456692913,
                    "duration": 0.09799600000000197
                },
                {
                    "name": "A#5",
                    "midi": 82,
                    "time": 50.56593600000014,
                    "velocity": 0.48031496062992124,
                    "duration": 0.09799600000000197
                },
                {
                    "name": "G4",
                    "midi": 67,
                    "time": 50.663932000000145,
                    "velocity": 0.3858267716535433,
                    "duration": 0.09799600000000197
                },
                {
                    "name": "D#5",
                    "midi": 75,
                    "time": 50.76192800000015,
                    "velocity": 0.4015748031496063,
                    "duration": 0.09799600000000197
                },
                {
                    "name": "B5",
                    "midi": 83,
                    "time": 50.85992400000015,
                    "velocity": 0.5433070866141733,
                    "duration": 0.09799600000000197
                },
                {
                    "name": "G4",
                    "midi": 67,
                    "time": 50.95792000000015,
                    "velocity": 0.4330708661417323,
                    "duration": 0.09799600000000197
                },
                {
                    "name": "D#5",
                    "midi": 75,
                    "time": 51.05591600000015,
                    "velocity": 0.4094488188976378,
                    "duration": 0.09799600000000197
                },
                {
                    "name": "A#5",
                    "midi": 82,
                    "time": 51.153912000000155,
                    "velocity": 0.5354330708661418,
                    "duration": 0.09799600000000197
                },
                {
                    "name": "G#4",
                    "midi": 68,
                    "time": 51.25190800000016,
                    "velocity": 0.4015748031496063,
                    "duration": 0.09799600000000197
                },
                {
                    "name": "D5",
                    "midi": 74,
                    "time": 51.34990400000016,
                    "velocity": 0.3858267716535433,
                    "duration": 0.09799600000000197
                },
                {
                    "name": "A5",
                    "midi": 81,
                    "time": 51.44790000000016,
                    "velocity": 0.5118110236220472,
                    "duration": 0.09799600000000197
                },
                {
                    "name": "G#4",
                    "midi": 68,
                    "time": 51.54589600000016,
                    "velocity": 0.3858267716535433,
                    "duration": 0.09799600000000197
                },
                {
                    "name": "D5",
                    "midi": 74,
                    "time": 51.643892000000164,
                    "velocity": 0.36220472440944884,
                    "duration": 0.09799600000000197
                },
                {
                    "name": "G#5",
                    "midi": 80,
                    "time": 51.741888000000166,
                    "velocity": 0.49606299212598426,
                    "duration": 0.09799600000000197
                },
                {
                    "name": "G#4",
                    "midi": 68,
                    "time": 51.83988400000017,
                    "velocity": 0.3543307086614173,
                    "duration": 0.09799600000000197
                },
                {
                    "name": "D5",
                    "midi": 74,
                    "time": 51.93788000000017,
                    "velocity": 0.31496062992125984,
                    "duration": 0.09799600000000197
                },
                {
                    "name": "G5",
                    "midi": 79,
                    "time": 52.03587600000017,
                    "velocity": 0.4094488188976378,
                    "duration": 0.09799600000000197
                },
                {
                    "name": "G4",
                    "midi": 67,
                    "time": 52.133872000000174,
                    "velocity": 0.31496062992125984,
                    "duration": 0.09799600000000197
                },
                {
                    "name": "D#5",
                    "midi": 75,
                    "time": 52.231868000000176,
                    "velocity": 0.3228346456692913,
                    "duration": 0.09799600000000197
                },
                {
                    "name": "A#5",
                    "midi": 82,
                    "time": 52.32986400000018,
                    "velocity": 0.48031496062992124,
                    "duration": 0.09799600000000197
                },
                {
                    "name": "G4",
                    "midi": 67,
                    "time": 52.42786000000018,
                    "velocity": 0.3464566929133858,
                    "duration": 0.09799600000000197
                },
                {
                    "name": "D#5",
                    "midi": 75,
                    "time": 52.52585600000018,
                    "velocity": 0.3700787401574803,
                    "duration": 0.09799600000000197
                },
                {
                    "name": "C6",
                    "midi": 84,
                    "time": 52.623852000000184,
                    "velocity": 0.5275590551181102,
                    "duration": 0.09799600000000197
                },
                {
                    "name": "G4",
                    "midi": 67,
                    "time": 52.721848000000186,
                    "velocity": 0.3779527559055118,
                    "duration": 0.09799600000000197
                },
                {
                    "name": "D#5",
                    "midi": 75,
                    "time": 52.81984400000019,
                    "velocity": 0.4015748031496063,
                    "duration": 0.09799600000000197
                },
                {
                    "name": "A#5",
                    "midi": 82,
                    "time": 52.91784000000019,
                    "velocity": 0.5196850393700787,
                    "duration": 0.09799600000000197
                },
                {
                    "name": "G#4",
                    "midi": 68,
                    "time": 53.01583600000019,
                    "velocity": 0.4015748031496063,
                    "duration": 0.09799600000000197
                },
                {
                    "name": "D5",
                    "midi": 74,
                    "time": 53.113832000000194,
                    "velocity": 0.3858267716535433,
                    "duration": 0.09799600000000197
                },
                {
                    "name": "A5",
                    "midi": 81,
                    "time": 53.211828000000196,
                    "velocity": 0.4881889763779528,
                    "duration": 0.09799600000000197
                },
                {
                    "name": "G#4",
                    "midi": 68,
                    "time": 53.3098240000002,
                    "velocity": 0.3858267716535433,
                    "duration": 0.09799600000000197
                },
                {
                    "name": "D5",
                    "midi": 74,
                    "time": 53.4078200000002,
                    "velocity": 0.36220472440944884,
                    "duration": 0.09799600000000197
                },
                {
                    "name": "G#5",
                    "midi": 80,
                    "time": 53.5058160000002,
                    "velocity": 0.4330708661417323,
                    "duration": 0.09799600000000197
                },
                {
                    "name": "G#4",
                    "midi": 68,
                    "time": 53.603812000000204,
                    "velocity": 0.3543307086614173,
                    "duration": 0.09799600000000197
                },
                {
                    "name": "D5",
                    "midi": 74,
                    "time": 53.701808000000206,
                    "velocity": 0.31496062992125984,
                    "duration": 0.09799600000000197
                },
                {
                    "name": "G5",
                    "midi": 79,
                    "time": 53.79980400000021,
                    "velocity": 0.4094488188976378,
                    "duration": 0.09799600000000197
                },
                {
                    "name": "G4",
                    "midi": 67,
                    "time": 53.89780000000021,
                    "velocity": 0.31496062992125984,
                    "duration": 0.09799600000000197
                },
                {
                    "name": "D#5",
                    "midi": 75,
                    "time": 53.99579600000021,
                    "velocity": 0.33070866141732286,
                    "duration": 0.09799600000000197
                },
                {
                    "name": "A#5",
                    "midi": 82,
                    "time": 54.093792000000214,
                    "velocity": 0.5118110236220472,
                    "duration": 0.09799600000000197
                },
                {
                    "name": "A#4",
                    "midi": 70,
                    "time": 54.191788000000216,
                    "velocity": 0.3779527559055118,
                    "duration": 0.09799600000000197
                },
                {
                    "name": "G5",
                    "midi": 79,
                    "time": 54.28978400000022,
                    "velocity": 0.3937007874015748,
                    "duration": 0.09799600000000197
                },
                {
                    "name": "D#6",
                    "midi": 87,
                    "time": 54.38778000000022,
                    "velocity": 0.5905511811023622,
                    "duration": 0.09799600000000197
                },
                {
                    "name": "D#5",
                    "midi": 75,
                    "time": 54.48577600000022,
                    "velocity": 0.4251968503937008,
                    "duration": 0.09799600000000197
                },
                {
                    "name": "A#5",
                    "midi": 82,
                    "time": 54.583772000000224,
                    "velocity": 0.4566929133858268,
                    "duration": 0.09799600000000197
                },
                {
                    "name": "G6",
                    "midi": 91,
                    "time": 54.681768000000226,
                    "velocity": 0.5433070866141733,
                    "duration": 0.09799600000000197
                },
                {
                    "name": "D5",
                    "midi": 74,
                    "time": 54.77976400000023,
                    "velocity": 0.4251968503937008,
                    "duration": 0.09799600000000197
                },
                {
                    "name": "B5",
                    "midi": 83,
                    "time": 54.87776000000023,
                    "velocity": 0.41732283464566927,
                    "duration": 0.09799600000000197
                },
                {
                    "name": "F6",
                    "midi": 89,
                    "time": 54.97575600000023,
                    "velocity": 0.5354330708661418,
                    "duration": 0.09799600000000197
                },
                {
                    "name": "D5",
                    "midi": 74,
                    "time": 55.07375200000023,
                    "velocity": 0.4330708661417323,
                    "duration": 0.09799600000000197
                },
                {
                    "name": "B5",
                    "midi": 83,
                    "time": 55.171748000000235,
                    "velocity": 0.4409448818897638,
                    "duration": 0.09799600000000197
                },
                {
                    "name": "E6",
                    "midi": 88,
                    "time": 55.26974400000024,
                    "velocity": 0.5748031496062992,
                    "duration": 0.09799600000000197
                },
                {
                    "name": "D5",
                    "midi": 74,
                    "time": 55.36774000000024,
                    "velocity": 0.4645669291338583,
                    "duration": 0.09799600000000197
                },
                {
                    "name": "B5",
                    "midi": 83,
                    "time": 55.46573600000024,
                    "velocity": 0.4566929133858268,
                    "duration": 0.09799600000000197
                },
                {
                    "name": "E6",
                    "midi": 88,
                    "time": 55.56373200000024,
                    "velocity": 0.5984251968503937,
                    "duration": 0.09799600000000197
                },
                {
                    "name": "C#5",
                    "midi": 73,
                    "time": 55.661728000000245,
                    "velocity": 0.4251968503937008,
                    "duration": 0.09799600000000197
                },
                {
                    "name": "A5",
                    "midi": 81,
                    "time": 55.75972400000025,
                    "velocity": 0.4015748031496063,
                    "duration": 0.09799600000000197
                },
                {
                    "name": "D#6",
                    "midi": 87,
                    "time": 55.85772000000025,
                    "velocity": 0.5511811023622047,
                    "duration": 0.09799600000000197
                },
                {
                    "name": "C5",
                    "midi": 72,
                    "time": 55.95571600000025,
                    "velocity": 0.41732283464566927,
                    "duration": 0.09799600000000197
                },
                {
                    "name": "A5",
                    "midi": 81,
                    "time": 56.05371200000025,
                    "velocity": 0.41732283464566927,
                    "duration": 0.09799600000000197
                },
                {
                    "name": "C6",
                    "midi": 84,
                    "time": 56.151708000000255,
                    "velocity": 0.5196850393700787,
                    "duration": 0.09799600000000197
                },
                {
                    "name": "A4",
                    "midi": 69,
                    "time": 56.24970400000026,
                    "velocity": 0.3700787401574803,
                    "duration": 0.09799600000000197
                },
                {
                    "name": "D#5",
                    "midi": 75,
                    "time": 56.34770000000026,
                    "velocity": 0.3700787401574803,
                    "duration": 0.09799600000000197
                },
                {
                    "name": "C6",
                    "midi": 84,
                    "time": 56.44569600000026,
                    "velocity": 0.5118110236220472,
                    "duration": 0.09799600000000197
                },
                {
                    "name": "A4",
                    "midi": 69,
                    "time": 56.54369200000026,
                    "velocity": 0.3779527559055118,
                    "duration": 0.09799600000000197
                },
                {
                    "name": "D#5",
                    "midi": 75,
                    "time": 56.641688000000265,
                    "velocity": 0.3700787401574803,
                    "duration": 0.09799600000000197
                },
                {
                    "name": "A#5",
                    "midi": 82,
                    "time": 56.73968400000027,
                    "velocity": 0.47244094488188976,
                    "duration": 0.09799600000000197
                },
                {
                    "name": "A#4",
                    "midi": 70,
                    "time": 56.83768000000027,
                    "velocity": 0.3543307086614173,
                    "duration": 0.09799600000000197
                },
                {
                    "name": "D#5",
                    "midi": 75,
                    "time": 56.93567600000027,
                    "velocity": 0.33858267716535434,
                    "duration": 0.09799600000000197
                },
                {
                    "name": "D5",
                    "midi": 74,
                    "time": 57.03367200000027,
                    "velocity": 0.4330708661417323,
                    "duration": 0.09799600000000197
                },
                {
                    "name": "D4",
                    "midi": 62,
                    "time": 57.131668000000275,
                    "velocity": 0.33858267716535434,
                    "duration": 0.09799600000000197
                },
                {
                    "name": "A#4",
                    "midi": 70,
                    "time": 57.22966400000028,
                    "velocity": 0.30708661417322836,
                    "duration": 0.09799600000000197
                },
                {
                    "name": "D#5",
                    "midi": 75,
                    "time": 57.32766000000028,
                    "velocity": 0.4094488188976378,
                    "duration": 0.09799600000000197
                },
                {
                    "name": "D#4",
                    "midi": 63,
                    "time": 57.42565600000028,
                    "velocity": 0.31496062992125984,
                    "duration": 0.09799600000000197
                },
                {
                    "name": "A#4",
                    "midi": 70,
                    "time": 57.52365200000028,
                    "velocity": 0.31496062992125984,
                    "duration": 0.09799600000000197
                },
                {
                    "name": "A#5",
                    "midi": 82,
                    "time": 57.621648000000285,
                    "velocity": 0.5196850393700787,
                    "duration": 0.09799600000000197
                },
                {
                    "name": "D#4",
                    "midi": 63,
                    "time": 57.71964400000029,
                    "velocity": 0.3543307086614173,
                    "duration": 0.09799600000000197
                },
                {
                    "name": "A#4",
                    "midi": 70,
                    "time": 57.81764000000029,
                    "velocity": 0.3543307086614173,
                    "duration": 0.09799600000000197
                },
                {
                    "name": "D#5",
                    "midi": 75,
                    "time": 57.91563600000029,
                    "velocity": 0.4881889763779528,
                    "duration": 0.09799600000000197
                },
                {
                    "name": "D#4",
                    "midi": 63,
                    "time": 58.01363200000029,
                    "velocity": 0.3464566929133858,
                    "duration": 0.09799600000000197
                },
                {
                    "name": "A#4",
                    "midi": 70,
                    "time": 58.111628000000294,
                    "velocity": 0.36220472440944884,
                    "duration": 0.09799600000000197
                },
                {
                    "name": "A5",
                    "midi": 81,
                    "time": 58.2096240000003,
                    "velocity": 0.5590551181102362,
                    "duration": 0.09799600000000197
                },
                {
                    "name": "D#4",
                    "midi": 63,
                    "time": 58.3076200000003,
                    "velocity": 0.4094488188976378,
                    "duration": 0.09799600000000197
                },
                {
                    "name": "A#4",
                    "midi": 70,
                    "time": 58.4056160000003,
                    "velocity": 0.4094488188976378,
                    "duration": 0.09799600000000197
                },
                {
                    "name": "D#5",
                    "midi": 75,
                    "time": 58.5036120000003,
                    "velocity": 0.5275590551181102,
                    "duration": 0.09799600000000197
                },
                {
                    "name": "D#4",
                    "midi": 63,
                    "time": 58.601608000000304,
                    "velocity": 0.3858267716535433,
                    "duration": 0.09799600000000197
                },
                {
                    "name": "A#4",
                    "midi": 70,
                    "time": 58.699604000000306,
                    "velocity": 0.3779527559055118,
                    "duration": 0.09799600000000197
                },
                {
                    "name": "G#5",
                    "midi": 80,
                    "time": 58.79760000000031,
                    "velocity": 0.5905511811023622,
                    "duration": 0.09799600000000197
                },
                {
                    "name": "D#4",
                    "midi": 63,
                    "time": 58.89559600000031,
                    "velocity": 0.4330708661417323,
                    "duration": 0.09799600000000197
                },
                {
                    "name": "A#4",
                    "midi": 70,
                    "time": 58.99359200000031,
                    "velocity": 0.4094488188976378,
                    "duration": 0.09799600000000197
                },
                {
                    "name": "D#5",
                    "midi": 75,
                    "time": 59.091588000000314,
                    "velocity": 0.5433070866141733,
                    "duration": 0.09799600000000197
                },
                {
                    "name": "D#4",
                    "midi": 63,
                    "time": 59.189584000000316,
                    "velocity": 0.3858267716535433,
                    "duration": 0.09799600000000197
                },
                {
                    "name": "A#4",
                    "midi": 70,
                    "time": 59.28758000000032,
                    "velocity": 0.3858267716535433,
                    "duration": 0.09799600000000197
                },
                {
                    "name": "G5",
                    "midi": 79,
                    "time": 59.38557600000032,
                    "velocity": 0.5984251968503937,
                    "duration": 0.09799600000000197
                },
                {
                    "name": "D#4",
                    "midi": 63,
                    "time": 59.48357200000032,
                    "velocity": 0.4094488188976378,
                    "duration": 0.09799600000000197
                },
                {
                    "name": "A#4",
                    "midi": 70,
                    "time": 59.581568000000324,
                    "velocity": 0.4094488188976378,
                    "duration": 0.09799600000000197
                },
                {
                    "name": "D#5",
                    "midi": 75,
                    "time": 59.679564000000326,
                    "velocity": 0.5118110236220472,
                    "duration": 0.09799600000000197
                },
                {
                    "name": "D#4",
                    "midi": 63,
                    "time": 59.77756000000033,
                    "velocity": 0.3858267716535433,
                    "duration": 0.09799600000000197
                },
                {
                    "name": "A#4",
                    "midi": 70,
                    "time": 59.87555600000033,
                    "velocity": 0.4094488188976378,
                    "duration": 0.09799600000000197
                },
                {
                    "name": "F#5",
                    "midi": 78,
                    "time": 59.97355200000033,
                    "velocity": 0.5590551181102362,
                    "duration": 0.09799600000000197
                },
                {
                    "name": "D#4",
                    "midi": 63,
                    "time": 60.071548000000334,
                    "velocity": 0.41732283464566927,
                    "duration": 0.09799600000000197
                },
                {
                    "name": "A#4",
                    "midi": 70,
                    "time": 60.169544000000336,
                    "velocity": 0.4094488188976378,
                    "duration": 0.09799600000000197
                },
                {
                    "name": "D#5",
                    "midi": 75,
                    "time": 60.26754000000034,
                    "velocity": 0.5039370078740157,
                    "duration": 0.09799600000000197
                },
                {
                    "name": "D#4",
                    "midi": 63,
                    "time": 60.36553600000034,
                    "velocity": 0.3543307086614173,
                    "duration": 0.09799600000000197
                },
                {
                    "name": "A#4",
                    "midi": 70,
                    "time": 60.46353200000034,
                    "velocity": 0.33858267716535434,
                    "duration": 0.09799600000000197
                },
                {
                    "name": "G5",
                    "midi": 79,
                    "time": 60.561528000000344,
                    "velocity": 0.49606299212598426,
                    "duration": 0.09799600000000197
                },
                {
                    "name": "D#4",
                    "midi": 63,
                    "time": 60.659524000000346,
                    "velocity": 0.36220472440944884,
                    "duration": 0.09799600000000197
                },
                {
                    "name": "A#4",
                    "midi": 70,
                    "time": 60.75752000000035,
                    "velocity": 0.3228346456692913,
                    "duration": 0.09799600000000197
                },
                {
                    "name": "D#5",
                    "midi": 75,
                    "time": 60.85551600000035,
                    "velocity": 0.4251968503937008,
                    "duration": 0.2939879999999988
                },
                {
                    "name": "A#6",
                    "midi": 94,
                    "time": 61.737480000000346,
                    "velocity": 0.6850393700787402,
                    "duration": 0.2939879999999988
                },
                {
                    "name": "D#7",
                    "midi": 99,
                    "time": 61.737480000000346,
                    "velocity": 0.8031496062992126,
                    "duration": 0.2939879999999988
                },
                {
                    "name": "D#6",
                    "midi": 87,
                    "time": 61.737480000000346,
                    "velocity": 0.6850393700787402,
                    "duration": 0.2939879999999988
                },
                {
                    "name": "G4",
                    "midi": 67,
                    "time": 62.61944400000034,
                    "velocity": 0.7716535433070866,
                    "duration": 0.8819639999999964
                },
                {
                    "name": "G3",
                    "midi": 55,
                    "time": 62.61944400000034,
                    "velocity": 0.6377952755905512,
                    "duration": 0.8819639999999964
                },
                {
                    "name": "A#3",
                    "midi": 58,
                    "time": 62.61944400000034,
                    "velocity": 0.6377952755905512,
                    "duration": 0.8819639999999964
                },
                {
                    "name": "D#4",
                    "midi": 63,
                    "time": 62.61944400000034,
                    "velocity": 0.7716535433070866,
                    "duration": 0.8819639999999964
                }
            ],
            "controlChanges": {
                "7": [
                    {
                        "number": 7,
                        "time": 0,
                        "value": 0.7874015748031497
                    }
                ],
                "10": [
                    {
                        "number": 10,
                        "time": 0,
                        "value": 0.5039370078740157
                    }
                ],
                "64": [
                    {
                        "number": 64,
                        "time": 0,
                        "value": 0
                    }
                ],
                "91": [
                    {
                        "number": 91,
                        "time": 0,
                        "value": 1
                    }
                ]
            },
            "id": 1,
            "name": "Piano right",
            "instrumentNumber": 0,
            "instrument": "acoustic grand piano",
            "instrumentFamily": "piano",
            "channelNumber": 0,
            "isPercussion": false
        },
        {
            "startTime": 0.881964,
            "duration": 63.50140800000014,
            "length": 618,
            "notes": [
                {
                    "name": "D#2",
                    "midi": 39,
                    "time": 0.881964,
                    "velocity": 0.28346456692913385,
                    "duration": 0.09799599999999997
                },
                {
                    "name": "G3",
                    "midi": 55,
                    "time": 0.9799599999999999,
                    "velocity": 0.2204724409448819,
                    "duration": 0.09799599999999997
                },
                {
                    "name": "A#2",
                    "midi": 46,
                    "time": 1.077956,
                    "velocity": 0.2204724409448819,
                    "duration": 0.09799599999999997
                },
                {
                    "name": "D#2",
                    "midi": 39,
                    "time": 1.1759519999999999,
                    "velocity": 0.25984251968503935,
                    "duration": 0.09799599999999997
                },
                {
                    "name": "G3",
                    "midi": 55,
                    "time": 1.2739479999999999,
                    "velocity": 0.2283464566929134,
                    "duration": 0.09799599999999997
                },
                {
                    "name": "A#2",
                    "midi": 46,
                    "time": 1.3719439999999998,
                    "velocity": 0.23622047244094488,
                    "duration": 0.09799599999999997
                },
                {
                    "name": "D#2",
                    "midi": 39,
                    "time": 1.4699399999999998,
                    "velocity": 0.28346456692913385,
                    "duration": 0.09799599999999997
                },
                {
                    "name": "A#3",
                    "midi": 58,
                    "time": 1.5679359999999998,
                    "velocity": 0.25196850393700787,
                    "duration": 0.09799599999999997
                },
                {
                    "name": "A#2",
                    "midi": 46,
                    "time": 1.6659319999999997,
                    "velocity": 0.25196850393700787,
                    "duration": 0.09799599999999997
                },
                {
                    "name": "D#2",
                    "midi": 39,
                    "time": 1.7639279999999997,
                    "velocity": 0.3228346456692913,
                    "duration": 0.09799599999999997
                },
                {
                    "name": "D#4",
                    "midi": 63,
                    "time": 1.8619239999999997,
                    "velocity": 0.25984251968503935,
                    "duration": 0.09799599999999997
                },
                {
                    "name": "G3",
                    "midi": 55,
                    "time": 1.9599199999999997,
                    "velocity": 0.2677165354330709,
                    "duration": 0.09799599999999997
                },
                {
                    "name": "A#2",
                    "midi": 46,
                    "time": 2.0579159999999996,
                    "velocity": 0.33070866141732286,
                    "duration": 0.0979960000000002
                },
                {
                    "name": "G4",
                    "midi": 67,
                    "time": 2.155912,
                    "velocity": 0.2755905511811024,
                    "duration": 0.0979960000000002
                },
                {
                    "name": "A#3",
                    "midi": 58,
                    "time": 2.253908,
                    "velocity": 0.29133858267716534,
                    "duration": 0.0979960000000002
                },
                {
                    "name": "D#3",
                    "midi": 51,
                    "time": 2.351904,
                    "velocity": 0.3700787401574803,
                    "duration": 0.0979960000000002
                },
                {
                    "name": "A#4",
                    "midi": 70,
                    "time": 2.4499000000000004,
                    "velocity": 0.30708661417322836,
                    "duration": 0.0979960000000002
                },
                {
                    "name": "A#3",
                    "midi": 58,
                    "time": 2.5478960000000006,
                    "velocity": 0.3543307086614173,
                    "duration": 0.0979960000000002
                },
                {
                    "name": "D#3",
                    "midi": 51,
                    "time": 2.645892000000001,
                    "velocity": 0.4330708661417323,
                    "duration": 0.0979960000000002
                },
                {
                    "name": "B4",
                    "midi": 71,
                    "time": 2.743888000000001,
                    "velocity": 0.30708661417322836,
                    "duration": 0.0979960000000002
                },
                {
                    "name": "B3",
                    "midi": 59,
                    "time": 2.841884000000001,
                    "velocity": 0.2992125984251969,
                    "duration": 0.0979960000000002
                },
                {
                    "name": "D#3",
                    "midi": 51,
                    "time": 2.9398800000000014,
                    "velocity": 0.3858267716535433,
                    "duration": 0.09799599999999975
                },
                {
                    "name": "C5",
                    "midi": 72,
                    "time": 3.037876000000001,
                    "velocity": 0.2992125984251969,
                    "duration": 0.0979960000000002
                },
                {
                    "name": "C4",
                    "midi": 60,
                    "time": 3.1358720000000013,
                    "velocity": 0.28346456692913385,
                    "duration": 0.0979960000000002
                },
                {
                    "name": "D#3",
                    "midi": 51,
                    "time": 3.2338680000000015,
                    "velocity": 0.3228346456692913,
                    "duration": 0.0979960000000002
                },
                {
                    "name": "G#4",
                    "midi": 68,
                    "time": 3.3318640000000017,
                    "velocity": 0.25984251968503935,
                    "duration": 0.0979960000000002
                },
                {
                    "name": "D4",
                    "midi": 62,
                    "time": 3.429860000000002,
                    "velocity": 0.25196850393700787,
                    "duration": 0.0979960000000002
                },
                {
                    "name": "D#3",
                    "midi": 51,
                    "time": 3.527856000000002,
                    "velocity": 0.36220472440944884,
                    "duration": 0.0979960000000002
                },
                {
                    "name": "G4",
                    "midi": 67,
                    "time": 3.6258520000000023,
                    "velocity": 0.28346456692913385,
                    "duration": 0.0979960000000002
                },
                {
                    "name": "D#4",
                    "midi": 63,
                    "time": 3.7238480000000025,
                    "velocity": 0.25196850393700787,
                    "duration": 0.0979960000000002
                },
                {
                    "name": "A#3",
                    "midi": 58,
                    "time": 3.8218440000000027,
                    "velocity": 0.30708661417322836,
                    "duration": 0.09799599999999975
                },
                {
                    "name": "G4",
                    "midi": 67,
                    "time": 3.9198400000000024,
                    "velocity": 0.23622047244094488,
                    "duration": 0.0979960000000002
                },
                {
                    "name": "D#4",
                    "midi": 63,
                    "time": 4.017836000000003,
                    "velocity": 0.23622047244094488,
                    "duration": 0.0979960000000002
                },
                {
                    "name": "D#3",
                    "midi": 51,
                    "time": 4.115832000000003,
                    "velocity": 0.2755905511811024,
                    "duration": 0.0979960000000002
                },
                {
                    "name": "D#4",
                    "midi": 63,
                    "time": 4.213828000000003,
                    "velocity": 0.2283464566929134,
                    "duration": 0.0979960000000002
                },
                {
                    "name": "G3",
                    "midi": 55,
                    "time": 4.311824000000003,
                    "velocity": 0.2283464566929134,
                    "duration": 0.0979960000000002
                },
                {
                    "name": "F2",
                    "midi": 41,
                    "time": 4.409820000000003,
                    "velocity": 0.28346456692913385,
                    "duration": 0.0979960000000002
                },
                {
                    "name": "C4",
                    "midi": 60,
                    "time": 4.507816000000004,
                    "velocity": 0.2204724409448819,
                    "duration": 0.0979960000000002
                },
                {
                    "name": "F3",
                    "midi": 53,
                    "time": 4.605812000000004,
                    "velocity": 0.2283464566929134,
                    "duration": 0.0979960000000002
                },
                {
                    "name": "C3",
                    "midi": 48,
                    "time": 4.703808000000004,
                    "velocity": 0.2677165354330709,
                    "duration": 0.0979960000000002
                },
                {
                    "name": "C4",
                    "midi": 60,
                    "time": 4.801804000000004,
                    "velocity": 0.23622047244094488,
                    "duration": 0.0979960000000002
                },
                {
                    "name": "F3",
                    "midi": 53,
                    "time": 4.899800000000004,
                    "velocity": 0.25196850393700787,
                    "duration": 0.0979960000000002
                },
                {
                    "name": "F2",
                    "midi": 41,
                    "time": 4.997796000000005,
                    "velocity": 0.3228346456692913,
                    "duration": 0.0979960000000002
                },
                {
                    "name": "C4",
                    "midi": 60,
                    "time": 5.095792000000005,
                    "velocity": 0.29133858267716534,
                    "duration": 0.0979960000000002
                },
                {
                    "name": "F3",
                    "midi": 53,
                    "time": 5.193788000000005,
                    "velocity": 0.33070866141732286,
                    "duration": 0.0979960000000002
                },
                {
                    "name": "A#2",
                    "midi": 46,
                    "time": 5.291784000000005,
                    "velocity": 0.3937007874015748,
                    "duration": 0.0979959999999993
                },
                {
                    "name": "D#4",
                    "midi": 63,
                    "time": 5.3897800000000045,
                    "velocity": 0.2755905511811024,
                    "duration": 0.0979960000000002
                },
                {
                    "name": "F3",
                    "midi": 53,
                    "time": 5.487776000000005,
                    "velocity": 0.2755905511811024,
                    "duration": 0.0979960000000002
                },
                {
                    "name": "D3",
                    "midi": 50,
                    "time": 5.585772000000005,
                    "velocity": 0.33858267716535434,
                    "duration": 0.09799600000000108
                },
                {
                    "name": "D4",
                    "midi": 62,
                    "time": 5.683768000000006,
                    "velocity": 0.28346456692913385,
                    "duration": 0.0979960000000002
                },
                {
                    "name": "F3",
                    "midi": 53,
                    "time": 5.781764000000006,
                    "velocity": 0.2677165354330709,
                    "duration": 0.0979960000000002
                },
                {
                    "name": "A#2",
                    "midi": 46,
                    "time": 5.879760000000006,
                    "velocity": 0.30708661417322836,
                    "duration": 0.0979960000000002
                },
                {
                    "name": "A#3",
                    "midi": 58,
                    "time": 5.9777560000000065,
                    "velocity": 0.2677165354330709,
                    "duration": 0.0979960000000002
                },
                {
                    "name": "F3",
                    "midi": 53,
                    "time": 6.075752000000007,
                    "velocity": 0.25984251968503935,
                    "duration": 0.0979960000000002
                },
                {
                    "name": "F2",
                    "midi": 41,
                    "time": 6.173748000000007,
                    "velocity": 0.28346456692913385,
                    "duration": 0.0979960000000002
                },
                {
                    "name": "C4",
                    "midi": 60,
                    "time": 6.271744000000007,
                    "velocity": 0.2204724409448819,
                    "duration": 0.0979960000000002
                },
                {
                    "name": "F3",
                    "midi": 53,
                    "time": 6.369740000000007,
                    "velocity": 0.2283464566929134,
                    "duration": 0.0979960000000002
                },
                {
                    "name": "C3",
                    "midi": 48,
                    "time": 6.4677360000000075,
                    "velocity": 0.2677165354330709,
                    "duration": 0.0979960000000002
                },
                {
                    "name": "B3",
                    "midi": 59,
                    "time": 6.565732000000008,
                    "velocity": 0.23622047244094488,
                    "duration": 0.0979960000000002
                },
                {
                    "name": "F3",
                    "midi": 53,
                    "time": 6.663728000000008,
                    "velocity": 0.25196850393700787,
                    "duration": 0.0979960000000002
                },
                {
                    "name": "F2",
                    "midi": 41,
                    "time": 6.761724000000008,
                    "velocity": 0.2992125984251969,
                    "duration": 0.0979960000000002
                },
                {
                    "name": "C4",
                    "midi": 60,
                    "time": 6.859720000000008,
                    "velocity": 0.2677165354330709,
                    "duration": 0.0979960000000002
                },
                {
                    "name": "F3",
                    "midi": 53,
                    "time": 6.9577160000000084,
                    "velocity": 0.2755905511811024,
                    "duration": 0.0979960000000002
                },
                {
                    "name": "A#2",
                    "midi": 46,
                    "time": 7.055712000000009,
                    "velocity": 0.3858267716535433,
                    "duration": 0.0979959999999993
                },
                {
                    "name": "D#4",
                    "midi": 63,
                    "time": 7.153708000000008,
                    "velocity": 0.2755905511811024,
                    "duration": 0.0979960000000002
                },
                {
                    "name": "G#3",
                    "midi": 56,
                    "time": 7.251704000000008,
                    "velocity": 0.2755905511811024,
                    "duration": 0.0979960000000002
                },
                {
                    "name": "F3",
                    "midi": 53,
                    "time": 7.349700000000008,
                    "velocity": 0.33858267716535434,
                    "duration": 0.0979960000000002
                },
                {
                    "name": "D4",
                    "midi": 62,
                    "time": 7.4476960000000085,
                    "velocity": 0.2755905511811024,
                    "duration": 0.0979960000000002
                },
                {
                    "name": "F3",
                    "midi": 53,
                    "time": 7.545692000000009,
                    "velocity": 0.2677165354330709,
                    "duration": 0.0979960000000002
                },
                {
                    "name": "A#2",
                    "midi": 46,
                    "time": 7.643688000000009,
                    "velocity": 0.30708661417322836,
                    "duration": 0.0979960000000002
                },
                {
                    "name": "G#3",
                    "midi": 56,
                    "time": 7.741684000000009,
                    "velocity": 0.25984251968503935,
                    "duration": 0.0979960000000002
                },
                {
                    "name": "D3",
                    "midi": 50,
                    "time": 7.839680000000009,
                    "velocity": 0.25196850393700787,
                    "duration": 0.0979960000000002
                },
                {
                    "name": "D#2",
                    "midi": 39,
                    "time": 7.9376760000000095,
                    "velocity": 0.28346456692913385,
                    "duration": 0.09799600000000108
                },
                {
                    "name": "G3",
                    "midi": 55,
                    "time": 8.03567200000001,
                    "velocity": 0.2204724409448819,
                    "duration": 0.0979960000000002
                },
                {
                    "name": "A#2",
                    "midi": 46,
                    "time": 8.13366800000001,
                    "velocity": 0.2204724409448819,
                    "duration": 0.0979960000000002
                },
                {
                    "name": "D#2",
                    "midi": 39,
                    "time": 8.231664000000011,
                    "velocity": 0.25984251968503935,
                    "duration": 0.0979960000000002
                },
                {
                    "name": "G3",
                    "midi": 55,
                    "time": 8.329660000000011,
                    "velocity": 0.2283464566929134,
                    "duration": 0.0979960000000002
                },
                {
                    "name": "A#2",
                    "midi": 46,
                    "time": 8.427656000000011,
                    "velocity": 0.23622047244094488,
                    "duration": 0.0979960000000002
                },
                {
                    "name": "D#2",
                    "midi": 39,
                    "time": 8.525652000000012,
                    "velocity": 0.28346456692913385,
                    "duration": 0.0979960000000002
                },
                {
                    "name": "A#3",
                    "midi": 58,
                    "time": 8.623648000000012,
                    "velocity": 0.25196850393700787,
                    "duration": 0.0979960000000002
                },
                {
                    "name": "A#2",
                    "midi": 46,
                    "time": 8.721644000000012,
                    "velocity": 0.25196850393700787,
                    "duration": 0.0979960000000002
                },
                {
                    "name": "D#2",
                    "midi": 39,
                    "time": 8.819640000000012,
                    "velocity": 0.31496062992125984,
                    "duration": 0.0979960000000002
                },
                {
                    "name": "D#4",
                    "midi": 63,
                    "time": 8.917636000000012,
                    "velocity": 0.25984251968503935,
                    "duration": 0.0979960000000002
                },
                {
                    "name": "G3",
                    "midi": 55,
                    "time": 9.015632000000013,
                    "velocity": 0.2677165354330709,
                    "duration": 0.0979960000000002
                },
                {
                    "name": "A#2",
                    "midi": 46,
                    "time": 9.113628000000013,
                    "velocity": 0.33070866141732286,
                    "duration": 0.0979960000000002
                },
                {
                    "name": "G4",
                    "midi": 67,
                    "time": 9.211624000000013,
                    "velocity": 0.2755905511811024,
                    "duration": 0.0979960000000002
                },
                {
                    "name": "A#3",
                    "midi": 58,
                    "time": 9.309620000000013,
                    "velocity": 0.29133858267716534,
                    "duration": 0.0979960000000002
                },
                {
                    "name": "D#3",
                    "midi": 51,
                    "time": 9.407616000000013,
                    "velocity": 0.3937007874015748,
                    "duration": 0.0979960000000002
                },
                {
                    "name": "A#4",
                    "midi": 70,
                    "time": 9.505612000000013,
                    "velocity": 0.30708661417322836,
                    "duration": 0.0979960000000002
                },
                {
                    "name": "A#3",
                    "midi": 58,
                    "time": 9.603608000000014,
                    "velocity": 0.3464566929133858,
                    "duration": 0.0979960000000002
                },
                {
                    "name": "D#3",
                    "midi": 51,
                    "time": 9.701604000000014,
                    "velocity": 0.4251968503937008,
                    "duration": 0.09799599999999842
                },
                {
                    "name": "B4",
                    "midi": 71,
                    "time": 9.799600000000012,
                    "velocity": 0.30708661417322836,
                    "duration": 0.0979960000000002
                },
                {
                    "name": "B3",
                    "midi": 59,
                    "time": 9.897596000000012,
                    "velocity": 0.2992125984251969,
                    "duration": 0.0979960000000002
                },
                {
                    "name": "D#3",
                    "midi": 51,
                    "time": 9.995592000000013,
                    "velocity": 0.3858267716535433,
                    "duration": 0.09799599999999842
                },
                {
                    "name": "C5",
                    "midi": 72,
                    "time": 10.093588000000011,
                    "velocity": 0.2992125984251969,
                    "duration": 0.0979960000000002
                },
                {
                    "name": "C4",
                    "midi": 60,
                    "time": 10.191584000000011,
                    "velocity": 0.28346456692913385,
                    "duration": 0.0979960000000002
                },
                {
                    "name": "D#3",
                    "midi": 51,
                    "time": 10.289580000000011,
                    "velocity": 0.3228346456692913,
                    "duration": 0.09799599999999842
                },
                {
                    "name": "G#4",
                    "midi": 68,
                    "time": 10.38757600000001,
                    "velocity": 0.25984251968503935,
                    "duration": 0.0979960000000002
                },
                {
                    "name": "D4",
                    "midi": 62,
                    "time": 10.48557200000001,
                    "velocity": 0.25196850393700787,
                    "duration": 0.0979960000000002
                },
                {
                    "name": "D#3",
                    "midi": 51,
                    "time": 10.58356800000001,
                    "velocity": 0.36220472440944884,
                    "duration": 0.0979960000000002
                },
                {
                    "name": "G4",
                    "midi": 67,
                    "time": 10.68156400000001,
                    "velocity": 0.23622047244094488,
                    "duration": 0.0979960000000002
                },
                {
                    "name": "D#4",
                    "midi": 63,
                    "time": 10.77956000000001,
                    "velocity": 0.2440944881889764,
                    "duration": 0.0979960000000002
                },
                {
                    "name": "A#3",
                    "midi": 58,
                    "time": 10.87755600000001,
                    "velocity": 0.30708661417322836,
                    "duration": 0.0979960000000002
                },
                {
                    "name": "G4",
                    "midi": 67,
                    "time": 10.975552000000011,
                    "velocity": 0.23622047244094488,
                    "duration": 0.0979960000000002
                },
                {
                    "name": "D#4",
                    "midi": 63,
                    "time": 11.073548000000011,
                    "velocity": 0.23622047244094488,
                    "duration": 0.0979960000000002
                },
                {
                    "name": "D#3",
                    "midi": 51,
                    "time": 11.171544000000011,
                    "velocity": 0.2755905511811024,
                    "duration": 0.0979960000000002
                },
                {
                    "name": "D#4",
                    "midi": 63,
                    "time": 11.269540000000012,
                    "velocity": 0.2283464566929134,
                    "duration": 0.0979960000000002
                },
                {
                    "name": "G3",
                    "midi": 55,
                    "time": 11.367536000000012,
                    "velocity": 0.2283464566929134,
                    "duration": 0.0979960000000002
                },
                {
                    "name": "B2",
                    "midi": 47,
                    "time": 11.465532000000012,
                    "velocity": 0.28346456692913385,
                    "duration": 0.0979960000000002
                },
                {
                    "name": "D#4",
                    "midi": 63,
                    "time": 11.563528000000012,
                    "velocity": 0.2204724409448819,
                    "duration": 0.0979960000000002
                },
                {
                    "name": "A3",
                    "midi": 57,
                    "time": 11.661524000000012,
                    "velocity": 0.2204724409448819,
                    "duration": 0.0979960000000002
                },
                {
                    "name": "D#3",
                    "midi": 51,
                    "time": 11.759520000000013,
                    "velocity": 0.25984251968503935,
                    "duration": 0.0979960000000002
                },
                {
                    "name": "D#4",
                    "midi": 63,
                    "time": 11.857516000000013,
                    "velocity": 0.2283464566929134,
                    "duration": 0.0979960000000002
                },
                {
                    "name": "A3",
                    "midi": 57,
                    "time": 11.955512000000013,
                    "velocity": 0.23622047244094488,
                    "duration": 0.0979960000000002
                },
                {
                    "name": "B2",
                    "midi": 47,
                    "time": 12.053508000000013,
                    "velocity": 0.28346456692913385,
                    "duration": 0.0979960000000002
                },
                {
                    "name": "D#4",
                    "midi": 63,
                    "time": 12.151504000000013,
                    "velocity": 0.25196850393700787,
                    "duration": 0.0979960000000002
                },
                {
                    "name": "A3",
                    "midi": 57,
                    "time": 12.249500000000014,
                    "velocity": 0.25196850393700787,
                    "duration": 0.0979960000000002
                },
                {
                    "name": "A#2",
                    "midi": 46,
                    "time": 12.347496000000014,
                    "velocity": 0.31496062992125984,
                    "duration": 0.0979960000000002
                },
                {
                    "name": "D4",
                    "midi": 62,
                    "time": 12.445492000000014,
                    "velocity": 0.2440944881889764,
                    "duration": 0.0979960000000002
                },
                {
                    "name": "G3",
                    "midi": 55,
                    "time": 12.543488000000014,
                    "velocity": 0.25196850393700787,
                    "duration": 0.0979960000000002
                },
                {
                    "name": "A2",
                    "midi": 45,
                    "time": 12.641484000000014,
                    "velocity": 0.2992125984251969,
                    "duration": 0.0979960000000002
                },
                {
                    "name": "D4",
                    "midi": 62,
                    "time": 12.739480000000015,
                    "velocity": 0.25196850393700787,
                    "duration": 0.0979960000000002
                },
                {
                    "name": "F#3",
                    "midi": 54,
                    "time": 12.837476000000015,
                    "velocity": 0.2677165354330709,
                    "duration": 0.0979960000000002
                },
                {
                    "name": "G2",
                    "midi": 43,
                    "time": 12.935472000000015,
                    "velocity": 0.3543307086614173,
                    "duration": 0.0979960000000002
                },
                {
                    "name": "D4",
                    "midi": 62,
                    "time": 13.033468000000015,
                    "velocity": 0.28346456692913385,
                    "duration": 0.0979960000000002
                },
                {
                    "name": "G3",
                    "midi": 55,
                    "time": 13.131464000000015,
                    "velocity": 0.31496062992125984,
                    "duration": 0.0979960000000002
                },
                {
                    "name": "F2",
                    "midi": 41,
                    "time": 13.229460000000016,
                    "velocity": 0.4251968503937008,
                    "duration": 0.0979960000000002
                },
                {
                    "name": "A#4",
                    "midi": 70,
                    "time": 13.327456000000016,
                    "velocity": 0.33070866141732286,
                    "duration": 0.0979960000000002
                },
                {
                    "name": "D#4",
                    "midi": 63,
                    "time": 13.425452000000016,
                    "velocity": 0.3543307086614173,
                    "duration": 0.0979960000000002
                },
                {
                    "name": "F3",
                    "midi": 53,
                    "time": 13.523448000000016,
                    "velocity": 0.4094488188976378,
                    "duration": 0.0979960000000002
                },
                {
                    "name": "A#4",
                    "midi": 70,
                    "time": 13.621444000000016,
                    "velocity": 0.33070866141732286,
                    "duration": 0.0979960000000002
                },
                {
                    "name": "D#4",
                    "midi": 63,
                    "time": 13.719440000000017,
                    "velocity": 0.2755905511811024,
                    "duration": 0.0979960000000002
                },
                {
                    "name": "C4",
                    "midi": 60,
                    "time": 13.817436000000017,
                    "velocity": 0.33070866141732286,
                    "duration": 0.0979960000000002
                },
                {
                    "name": "F4",
                    "midi": 65,
                    "time": 13.915432000000017,
                    "velocity": 0.29133858267716534,
                    "duration": 0.0979960000000002
                },
                {
                    "name": "D#4",
                    "midi": 63,
                    "time": 14.013428000000017,
                    "velocity": 0.29133858267716534,
                    "duration": 0.0979960000000002
                },
                {
                    "name": "A#2",
                    "midi": 46,
                    "time": 14.111424000000017,
                    "velocity": 0.3937007874015748,
                    "duration": 0.0979960000000002
                },
                {
                    "name": "D#4",
                    "midi": 63,
                    "time": 14.209420000000017,
                    "velocity": 0.28346456692913385,
                    "duration": 0.0979960000000002
                },
                {
                    "name": "F3",
                    "midi": 53,
                    "time": 14.307416000000018,
                    "velocity": 0.29133858267716534,
                    "duration": 0.0979960000000002
                },
                {
                    "name": "A#2",
                    "midi": 46,
                    "time": 14.405412000000018,
                    "velocity": 0.33858267716535434,
                    "duration": 0.0979960000000002
                },
                {
                    "name": "D4",
                    "midi": 62,
                    "time": 14.503408000000018,
                    "velocity": 0.28346456692913385,
                    "duration": 0.0979960000000002
                },
                {
                    "name": "F3",
                    "midi": 53,
                    "time": 14.601404000000018,
                    "velocity": 0.2677165354330709,
                    "duration": 0.0979960000000002
                },
                {
                    "name": "A#2",
                    "midi": 46,
                    "time": 14.699400000000018,
                    "velocity": 0.30708661417322836,
                    "duration": 0.0979960000000002
                },
                {
                    "name": "C#4",
                    "midi": 61,
                    "time": 14.797396000000019,
                    "velocity": 0.2677165354330709,
                    "duration": 0.0979960000000002
                },
                {
                    "name": "F3",
                    "midi": 53,
                    "time": 14.895392000000019,
                    "velocity": 0.25984251968503935,
                    "duration": 0.0979960000000002
                },
                {
                    "name": "G#2",
                    "midi": 44,
                    "time": 14.993388000000019,
                    "velocity": 0.28346456692913385,
                    "duration": 0.0979960000000002
                },
                {
                    "name": "B3",
                    "midi": 59,
                    "time": 15.09138400000002,
                    "velocity": 0.2204724409448819,
                    "duration": 0.0979960000000002
                },
                {
                    "name": "F3",
                    "midi": 53,
                    "time": 15.18938000000002,
                    "velocity": 0.2283464566929134,
                    "duration": 0.0979960000000002
                },
                {
                    "name": "C#3",
                    "midi": 49,
                    "time": 15.28737600000002,
                    "velocity": 0.2677165354330709,
                    "duration": 0.0979960000000002
                },
                {
                    "name": "B3",
                    "midi": 59,
                    "time": 15.38537200000002,
                    "velocity": 0.23622047244094488,
                    "duration": 0.0979960000000002
                },
                {
                    "name": "F3",
                    "midi": 53,
                    "time": 15.48336800000002,
                    "velocity": 0.25196850393700787,
                    "duration": 0.0979960000000002
                },
                {
                    "name": "C#2",
                    "midi": 37,
                    "time": 15.58136400000002,
                    "velocity": 0.2992125984251969,
                    "duration": 0.0979960000000002
                },
                {
                    "name": "B3",
                    "midi": 59,
                    "time": 15.67936000000002,
                    "velocity": 0.2677165354330709,
                    "duration": 0.0979960000000002
                },
                {
                    "name": "F3",
                    "midi": 53,
                    "time": 15.77735600000002,
                    "velocity": 0.2755905511811024,
                    "duration": 0.0979960000000002
                },
                {
                    "name": "F#2",
                    "midi": 42,
                    "time": 15.87535200000002,
                    "velocity": 0.3858267716535433,
                    "duration": 0.0979960000000002
                },
                {
                    "name": "A#3",
                    "midi": 58,
                    "time": 15.973348000000021,
                    "velocity": 0.2755905511811024,
                    "duration": 0.0979960000000002
                },
                {
                    "name": "F#3",
                    "midi": 54,
                    "time": 16.07134400000002,
                    "velocity": 0.2755905511811024,
                    "duration": 0.09799599999999842
                },
                {
                    "name": "C#3",
                    "midi": 49,
                    "time": 16.16934000000002,
                    "velocity": 0.33858267716535434,
                    "duration": 0.09799599999999842
                },
                {
                    "name": "A#3",
                    "midi": 58,
                    "time": 16.267336000000018,
                    "velocity": 0.28346456692913385,
                    "duration": 0.09799599999999842
                },
                {
                    "name": "F#3",
                    "midi": 54,
                    "time": 16.365332000000016,
                    "velocity": 0.2677165354330709,
                    "duration": 0.09799599999999842
                },
                {
                    "name": "F#2",
                    "midi": 42,
                    "time": 16.463328000000015,
                    "velocity": 0.30708661417322836,
                    "duration": 0.09799599999999842
                },
                {
                    "name": "A#3",
                    "midi": 58,
                    "time": 16.561324000000013,
                    "velocity": 0.2677165354330709,
                    "duration": 0.09799599999999842
                },
                {
                    "name": "C#3",
                    "midi": 49,
                    "time": 16.65932000000001,
                    "velocity": 0.25984251968503935,
                    "duration": 0.09799599999999842
                },
                {
                    "name": "C#2",
                    "midi": 37,
                    "time": 16.75731600000001,
                    "velocity": 0.28346456692913385,
                    "duration": 0.09799599999999842
                },
                {
                    "name": "B3",
                    "midi": 59,
                    "time": 16.85531200000001,
                    "velocity": 0.2204724409448819,
                    "duration": 0.09799599999999842
                },
                {
                    "name": "F3",
                    "midi": 53,
                    "time": 16.953308000000007,
                    "velocity": 0.2283464566929134,
                    "duration": 0.09799599999999842
                },
                {
                    "name": "G#2",
                    "midi": 44,
                    "time": 17.051304000000005,
                    "velocity": 0.2677165354330709,
                    "duration": 0.09799599999999842
                },
                {
                    "name": "B3",
                    "midi": 59,
                    "time": 17.149300000000004,
                    "velocity": 0.23622047244094488,
                    "duration": 0.09799599999999842
                },
                {
                    "name": "F3",
                    "midi": 53,
                    "time": 17.247296000000002,
                    "velocity": 0.25196850393700787,
                    "duration": 0.09799599999999842
                },
                {
                    "name": "C#2",
                    "midi": 37,
                    "time": 17.345292,
                    "velocity": 0.2992125984251969,
                    "duration": 0.09799599999999842
                },
                {
                    "name": "B3",
                    "midi": 59,
                    "time": 17.443288,
                    "velocity": 0.2677165354330709,
                    "duration": 0.09799599999999842
                },
                {
                    "name": "F3",
                    "midi": 53,
                    "time": 17.541283999999997,
                    "velocity": 0.2755905511811024,
                    "duration": 0.09799599999999842
                },
                {
                    "name": "F#2",
                    "midi": 42,
                    "time": 17.639279999999996,
                    "velocity": 0.3937007874015748,
                    "duration": 0.09799599999999842
                },
                {
                    "name": "A#3",
                    "midi": 58,
                    "time": 17.737275999999994,
                    "velocity": 0.2755905511811024,
                    "duration": 0.09799599999999842
                },
                {
                    "name": "F#3",
                    "midi": 54,
                    "time": 17.835271999999993,
                    "velocity": 0.2755905511811024,
                    "duration": 0.09799599999999842
                },
                {
                    "name": "C#3",
                    "midi": 49,
                    "time": 17.93326799999999,
                    "velocity": 0.33858267716535434,
                    "duration": 0.09799599999999842
                },
                {
                    "name": "A#3",
                    "midi": 58,
                    "time": 18.03126399999999,
                    "velocity": 0.28346456692913385,
                    "duration": 0.09799599999999842
                },
                {
                    "name": "F#3",
                    "midi": 54,
                    "time": 18.129259999999988,
                    "velocity": 0.2677165354330709,
                    "duration": 0.09799599999999842
                },
                {
                    "name": "F#2",
                    "midi": 42,
                    "time": 18.227255999999986,
                    "velocity": 0.30708661417322836,
                    "duration": 0.09799599999999842
                },
                {
                    "name": "A#3",
                    "midi": 58,
                    "time": 18.325251999999985,
                    "velocity": 0.2677165354330709,
                    "duration": 0.09799599999999842
                },
                {
                    "name": "C#3",
                    "midi": 49,
                    "time": 18.423247999999983,
                    "velocity": 0.25984251968503935,
                    "duration": 0.09799599999999842
                },
                {
                    "name": "F#2",
                    "midi": 42,
                    "time": 18.52124399999998,
                    "velocity": 0.28346456692913385,
                    "duration": 0.09799599999999842
                },
                {
                    "name": "A#3",
                    "midi": 58,
                    "time": 18.61923999999998,
                    "velocity": 0.2204724409448819,
                    "duration": 0.09799599999999842
                },
                {
                    "name": "C#3",
                    "midi": 49,
                    "time": 18.71723599999998,
                    "velocity": 0.2283464566929134,
                    "duration": 0.09799599999999842
                },
                {
                    "name": "F#2",
                    "midi": 42,
                    "time": 18.815231999999977,
                    "velocity": 0.2992125984251969,
                    "duration": 0.09799599999999842
                },
                {
                    "name": "C#4",
                    "midi": 61,
                    "time": 18.913227999999975,
                    "velocity": 0.23622047244094488,
                    "duration": 0.09799599999999842
                },
                {
                    "name": "F#3",
                    "midi": 54,
                    "time": 19.011223999999974,
                    "velocity": 0.25196850393700787,
                    "duration": 0.09799599999999842
                },
                {
                    "name": "F#2",
                    "midi": 42,
                    "time": 19.109219999999972,
                    "velocity": 0.33070866141732286,
                    "duration": 0.09799599999999842
                },
                {
                    "name": "E4",
                    "midi": 64,
                    "time": 19.20721599999997,
                    "velocity": 0.2677165354330709,
                    "duration": 0.09799599999999842
                },
                {
                    "name": "A#3",
                    "midi": 58,
                    "time": 19.30521199999997,
                    "velocity": 0.28346456692913385,
                    "duration": 0.09799599999999842
                },
                {
                    "name": "F2",
                    "midi": 41,
                    "time": 19.403207999999967,
                    "velocity": 0.3858267716535433,
                    "duration": 0.09799599999999842
                },
                {
                    "name": "F4",
                    "midi": 65,
                    "time": 19.501203999999966,
                    "velocity": 0.28346456692913385,
                    "duration": 0.09799599999999842
                },
                {
                    "name": "A#3",
                    "midi": 58,
                    "time": 19.599199999999964,
                    "velocity": 0.2755905511811024,
                    "duration": 0.09799599999999842
                },
                {
                    "name": "F3",
                    "midi": 53,
                    "time": 19.697195999999963,
                    "velocity": 0.2992125984251969,
                    "duration": 0.09799599999999842
                },
                {
                    "name": "G4",
                    "midi": 67,
                    "time": 19.79519199999996,
                    "velocity": 0.25196850393700787,
                    "duration": 0.09799599999999842
                },
                {
                    "name": "A#3",
                    "midi": 58,
                    "time": 19.89318799999996,
                    "velocity": 0.25196850393700787,
                    "duration": 0.09799599999999842
                },
                {
                    "name": "F3",
                    "midi": 53,
                    "time": 19.991183999999958,
                    "velocity": 0.30708661417322836,
                    "duration": 0.09799599999999842
                },
                {
                    "name": "F4",
                    "midi": 65,
                    "time": 20.089179999999956,
                    "velocity": 0.25984251968503935,
                    "duration": 0.09799599999999842
                },
                {
                    "name": "B3",
                    "midi": 59,
                    "time": 20.187175999999955,
                    "velocity": 0.25984251968503935,
                    "duration": 0.09799599999999842
                },
                {
                    "name": "F3",
                    "midi": 53,
                    "time": 20.285171999999953,
                    "velocity": 0.3779527559055118,
                    "duration": 0.09799599999999842
                },
                {
                    "name": "F4",
                    "midi": 65,
                    "time": 20.38316799999995,
                    "velocity": 0.2755905511811024,
                    "duration": 0.09799599999999842
                },
                {
                    "name": "C4",
                    "midi": 60,
                    "time": 20.48116399999995,
                    "velocity": 0.29133858267716534,
                    "duration": 0.09799599999999842
                },
                {
                    "name": "F3",
                    "midi": 53,
                    "time": 20.57915999999995,
                    "velocity": 0.3543307086614173,
                    "duration": 0.09799599999999842
                },
                {
                    "name": "F4",
                    "midi": 65,
                    "time": 20.677155999999947,
                    "velocity": 0.2992125984251969,
                    "duration": 0.09799599999999842
                },
                {
                    "name": "D#4",
                    "midi": 63,
                    "time": 20.775151999999945,
                    "velocity": 0.23622047244094488,
                    "duration": 0.09799599999999842
                },
                {
                    "name": "F3",
                    "midi": 53,
                    "time": 20.873147999999944,
                    "velocity": 0.29133858267716534,
                    "duration": 0.09799599999999842
                },
                {
                    "name": "D#4",
                    "midi": 63,
                    "time": 20.971143999999942,
                    "velocity": 0.25196850393700787,
                    "duration": 0.09799599999999842
                },
                {
                    "name": "A3",
                    "midi": 57,
                    "time": 21.06913999999994,
                    "velocity": 0.2440944881889764,
                    "duration": 0.09799599999999842
                },
                {
                    "name": "A#2",
                    "midi": 46,
                    "time": 21.16713599999994,
                    "velocity": 0.3937007874015748,
                    "duration": 0.09799599999999842
                },
                {
                    "name": "D#4",
                    "midi": 63,
                    "time": 21.265131999999937,
                    "velocity": 0.28346456692913385,
                    "duration": 0.09799599999999842
                },
                {
                    "name": "F3",
                    "midi": 53,
                    "time": 21.363127999999936,
                    "velocity": 0.29133858267716534,
                    "duration": 0.09799599999999842
                },
                {
                    "name": "A#2",
                    "midi": 46,
                    "time": 21.461123999999934,
                    "velocity": 0.33858267716535434,
                    "duration": 0.09799599999999842
                },
                {
                    "name": "D4",
                    "midi": 62,
                    "time": 21.559119999999933,
                    "velocity": 0.28346456692913385,
                    "duration": 0.09799599999999842
                },
                {
                    "name": "F3",
                    "midi": 53,
                    "time": 21.65711599999993,
                    "velocity": 0.2677165354330709,
                    "duration": 0.09799599999999842
                },
                {
                    "name": "A#2",
                    "midi": 46,
                    "time": 21.75511199999993,
                    "velocity": 0.30708661417322836,
                    "duration": 0.09799600000000197
                },
                {
                    "name": "C#4",
                    "midi": 61,
                    "time": 21.85310799999993,
                    "velocity": 0.2677165354330709,
                    "duration": 0.09799599999999842
                },
                {
                    "name": "F3",
                    "midi": 53,
                    "time": 21.95110399999993,
                    "velocity": 0.25984251968503935,
                    "duration": 0.09799599999999842
                },
                {
                    "name": "G#2",
                    "midi": 44,
                    "time": 22.049099999999928,
                    "velocity": 0.33858267716535434,
                    "duration": 0.09799599999999842
                },
                {
                    "name": "B3",
                    "midi": 59,
                    "time": 22.147095999999927,
                    "velocity": 0.2204724409448819,
                    "duration": 0.09799599999999842
                },
                {
                    "name": "F3",
                    "midi": 53,
                    "time": 22.245091999999925,
                    "velocity": 0.2283464566929134,
                    "duration": 0.09799599999999842
                },
                {
                    "name": "C#3",
                    "midi": 49,
                    "time": 22.343087999999923,
                    "velocity": 0.31496062992125984,
                    "duration": 0.09799599999999842
                },
                {
                    "name": "B3",
                    "midi": 59,
                    "time": 22.441083999999922,
                    "velocity": 0.23622047244094488,
                    "duration": 0.09799599999999842
                },
                {
                    "name": "F3",
                    "midi": 53,
                    "time": 22.53907999999992,
                    "velocity": 0.25196850393700787,
                    "duration": 0.09799599999999842
                },
                {
                    "name": "C#2",
                    "midi": 37,
                    "time": 22.63707599999992,
                    "velocity": 0.33070866141732286,
                    "duration": 0.09799599999999842
                },
                {
                    "name": "B3",
                    "midi": 59,
                    "time": 22.735071999999917,
                    "velocity": 0.2677165354330709,
                    "duration": 0.09799599999999842
                },
                {
                    "name": "F3",
                    "midi": 53,
                    "time": 22.833067999999916,
                    "velocity": 0.2755905511811024,
                    "duration": 0.09799599999999842
                },
                {
                    "name": "F#2",
                    "midi": 42,
                    "time": 22.931063999999914,
                    "velocity": 0.3700787401574803,
                    "duration": 0.09799599999999842
                },
                {
                    "name": "A#3",
                    "midi": 58,
                    "time": 23.029059999999912,
                    "velocity": 0.2755905511811024,
                    "duration": 0.09799599999999842
                },
                {
                    "name": "F#3",
                    "midi": 54,
                    "time": 23.12705599999991,
                    "velocity": 0.2755905511811024,
                    "duration": 0.09799599999999842
                },
                {
                    "name": "C#3",
                    "midi": 49,
                    "time": 23.22505199999991,
                    "velocity": 0.33858267716535434,
                    "duration": 0.09799599999999842
                },
                {
                    "name": "A#3",
                    "midi": 58,
                    "time": 23.323047999999908,
                    "velocity": 0.28346456692913385,
                    "duration": 0.09799599999999842
                },
                {
                    "name": "F#3",
                    "midi": 54,
                    "time": 23.421043999999906,
                    "velocity": 0.2440944881889764,
                    "duration": 0.09799599999999842
                },
                {
                    "name": "F#2",
                    "midi": 42,
                    "time": 23.519039999999904,
                    "velocity": 0.30708661417322836,
                    "duration": 0.09799599999999842
                },
                {
                    "name": "A#3",
                    "midi": 58,
                    "time": 23.617035999999903,
                    "velocity": 0.2677165354330709,
                    "duration": 0.09799599999999842
                },
                {
                    "name": "C#3",
                    "midi": 49,
                    "time": 23.7150319999999,
                    "velocity": 0.25984251968503935,
                    "duration": 0.09799599999999842
                },
                {
                    "name": "C#2",
                    "midi": 37,
                    "time": 23.8130279999999,
                    "velocity": 0.28346456692913385,
                    "duration": 0.09799600000000197
                },
                {
                    "name": "B3",
                    "midi": 59,
                    "time": 23.9110239999999,
                    "velocity": 0.2204724409448819,
                    "duration": 0.09799599999999842
                },
                {
                    "name": "F3",
                    "midi": 53,
                    "time": 24.0090199999999,
                    "velocity": 0.2283464566929134,
                    "duration": 0.09799599999999842
                },
                {
                    "name": "G#2",
                    "midi": 44,
                    "time": 24.1070159999999,
                    "velocity": 0.2677165354330709,
                    "duration": 0.09799599999999842
                },
                {
                    "name": "B3",
                    "midi": 59,
                    "time": 24.205011999999897,
                    "velocity": 0.23622047244094488,
                    "duration": 0.09799599999999842
                },
                {
                    "name": "F3",
                    "midi": 53,
                    "time": 24.303007999999895,
                    "velocity": 0.25196850393700787,
                    "duration": 0.09799599999999842
                },
                {
                    "name": "C#2",
                    "midi": 37,
                    "time": 24.401003999999894,
                    "velocity": 0.2992125984251969,
                    "duration": 0.09799599999999842
                },
                {
                    "name": "B3",
                    "midi": 59,
                    "time": 24.498999999999892,
                    "velocity": 0.2755905511811024,
                    "duration": 0.09799599999999842
                },
                {
                    "name": "F3",
                    "midi": 53,
                    "time": 24.59699599999989,
                    "velocity": 0.2992125984251969,
                    "duration": 0.09799599999999842
                },
                {
                    "name": "F#2",
                    "midi": 42,
                    "time": 24.69499199999989,
                    "velocity": 0.3700787401574803,
                    "duration": 0.09799599999999842
                },
                {
                    "name": "A#3",
                    "midi": 58,
                    "time": 24.792987999999887,
                    "velocity": 0.2755905511811024,
                    "duration": 0.09799599999999842
                },
                {
                    "name": "F#3",
                    "midi": 54,
                    "time": 24.890983999999886,
                    "velocity": 0.2755905511811024,
                    "duration": 0.09799599999999842
                },
                {
                    "name": "C#3",
                    "midi": 49,
                    "time": 24.988979999999884,
                    "velocity": 0.33858267716535434,
                    "duration": 0.09799599999999842
                },
                {
                    "name": "A#3",
                    "midi": 58,
                    "time": 25.086975999999883,
                    "velocity": 0.28346456692913385,
                    "duration": 0.09799599999999842
                },
                {
                    "name": "F#3",
                    "midi": 54,
                    "time": 25.18497199999988,
                    "velocity": 0.2677165354330709,
                    "duration": 0.09799599999999842
                },
                {
                    "name": "F#2",
                    "midi": 42,
                    "time": 25.28296799999988,
                    "velocity": 0.30708661417322836,
                    "duration": 0.09799600000000197
                },
                {
                    "name": "A#3",
                    "midi": 58,
                    "time": 25.38096399999988,
                    "velocity": 0.2677165354330709,
                    "duration": 0.09799599999999842
                },
                {
                    "name": "C#3",
                    "midi": 49,
                    "time": 25.47895999999988,
                    "velocity": 0.25984251968503935,
                    "duration": 0.09799599999999842
                },
                {
                    "name": "G2",
                    "midi": 43,
                    "time": 25.57695599999988,
                    "velocity": 0.31496062992125984,
                    "duration": 0.09799599999999842
                },
                {
                    "name": "A#3",
                    "midi": 58,
                    "time": 25.674951999999877,
                    "velocity": 0.2440944881889764,
                    "duration": 0.09799599999999842
                },
                {
                    "name": "E3",
                    "midi": 52,
                    "time": 25.772947999999875,
                    "velocity": 0.25196850393700787,
                    "duration": 0.09799599999999842
                },
                {
                    "name": "A#2",
                    "midi": 46,
                    "time": 25.870943999999874,
                    "velocity": 0.33858267716535434,
                    "duration": 0.09799599999999842
                },
                {
                    "name": "C#4",
                    "midi": 61,
                    "time": 25.968939999999872,
                    "velocity": 0.2755905511811024,
                    "duration": 0.09799599999999842
                },
                {
                    "name": "E3",
                    "midi": 52,
                    "time": 26.06693599999987,
                    "velocity": 0.2677165354330709,
                    "duration": 0.09799599999999842
                },
                {
                    "name": "A2",
                    "midi": 45,
                    "time": 26.16493199999987,
                    "velocity": 0.30708661417322836,
                    "duration": 0.09799599999999842
                },
                {
                    "name": "C4",
                    "midi": 60,
                    "time": 26.262927999999867,
                    "velocity": 0.2755905511811024,
                    "duration": 0.09799599999999842
                },
                {
                    "name": "D#3",
                    "midi": 51,
                    "time": 26.360923999999866,
                    "velocity": 0.28346456692913385,
                    "duration": 0.09799599999999842
                },
                {
                    "name": "C3",
                    "midi": 48,
                    "time": 26.458919999999864,
                    "velocity": 0.3779527559055118,
                    "duration": 0.09799599999999842
                },
                {
                    "name": "D#4",
                    "midi": 63,
                    "time": 26.556915999999863,
                    "velocity": 0.30708661417322836,
                    "duration": 0.09799599999999842
                },
                {
                    "name": "F#3",
                    "midi": 54,
                    "time": 26.65491199999986,
                    "velocity": 0.31496062992125984,
                    "duration": 0.09799599999999842
                },
                {
                    "name": "B2",
                    "midi": 47,
                    "time": 26.75290799999986,
                    "velocity": 0.3464566929133858,
                    "duration": 0.09799599999999842
                },
                {
                    "name": "D4",
                    "midi": 62,
                    "time": 26.850903999999858,
                    "velocity": 0.28346456692913385,
                    "duration": 0.09799599999999842
                },
                {
                    "name": "F3",
                    "midi": 53,
                    "time": 26.948899999999856,
                    "velocity": 0.31496062992125984,
                    "duration": 0.09799599999999842
                },
                {
                    "name": "D3",
                    "midi": 50,
                    "time": 27.046895999999855,
                    "velocity": 0.4330708661417323,
                    "duration": 0.09799599999999842
                },
                {
                    "name": "F4",
                    "midi": 65,
                    "time": 27.144891999999853,
                    "velocity": 0.33858267716535434,
                    "duration": 0.09799599999999842
                },
                {
                    "name": "G#3",
                    "midi": 56,
                    "time": 27.24288799999985,
                    "velocity": 0.33858267716535434,
                    "duration": 0.09799599999999842
                },
                {
                    "name": "C#3",
                    "midi": 49,
                    "time": 27.34088399999985,
                    "velocity": 0.4251968503937008,
                    "duration": 0.09799599999999842
                },
                {
                    "name": "E4",
                    "midi": 64,
                    "time": 27.43887999999985,
                    "velocity": 0.3228346456692913,
                    "duration": 0.09799599999999842
                },
                {
                    "name": "G3",
                    "midi": 55,
                    "time": 27.536875999999847,
                    "velocity": 0.36220472440944884,
                    "duration": 0.09799599999999842
                },
                {
                    "name": "E3",
                    "midi": 52,
                    "time": 27.634871999999845,
                    "velocity": 0.47244094488188976,
                    "duration": 0.09799599999999842
                },
                {
                    "name": "G4",
                    "midi": 67,
                    "time": 27.732867999999844,
                    "velocity": 0.3779527559055118,
                    "duration": 0.09799599999999842
                },
                {
                    "name": "A#3",
                    "midi": 58,
                    "time": 27.830863999999842,
                    "velocity": 0.3779527559055118,
                    "duration": 0.09799599999999842
                },
                {
                    "name": "D#3",
                    "midi": 51,
                    "time": 27.92885999999984,
                    "velocity": 0.4566929133858268,
                    "duration": 0.09799599999999842
                },
                {
                    "name": "F#4",
                    "midi": 66,
                    "time": 28.02685599999984,
                    "velocity": 0.3464566929133858,
                    "duration": 0.09799599999999842
                },
                {
                    "name": "A3",
                    "midi": 57,
                    "time": 28.124851999999837,
                    "velocity": 0.3858267716535433,
                    "duration": 0.09799599999999842
                },
                {
                    "name": "F#3",
                    "midi": 54,
                    "time": 28.222847999999836,
                    "velocity": 0.5433070866141733,
                    "duration": 0.09799599999999842
                },
                {
                    "name": "A4",
                    "midi": 69,
                    "time": 28.320843999999834,
                    "velocity": 0.3858267716535433,
                    "duration": 0.09799599999999842
                },
                {
                    "name": "C4",
                    "midi": 60,
                    "time": 28.418839999999832,
                    "velocity": 0.3937007874015748,
                    "duration": 0.09799599999999842
                },
                {
                    "name": "F3",
                    "midi": 53,
                    "time": 28.51683599999983,
                    "velocity": 0.4881889763779528,
                    "duration": 0.09799599999999842
                },
                {
                    "name": "G#4",
                    "midi": 68,
                    "time": 28.61483199999983,
                    "velocity": 0.4015748031496063,
                    "duration": 0.09799599999999842
                },
                {
                    "name": "B3",
                    "midi": 59,
                    "time": 28.712827999999828,
                    "velocity": 0.4015748031496063,
                    "duration": 0.09799599999999842
                },
                {
                    "name": "A#3",
                    "midi": 58,
                    "time": 28.810823999999826,
                    "velocity": 0.5275590551181102,
                    "duration": 0.1469939999999994
                },
                {
                    "name": "D#2",
                    "midi": 39,
                    "time": 29.104811999999825,
                    "velocity": 0.28346456692913385,
                    "duration": 0.09799599999999842
                },
                {
                    "name": "G3",
                    "midi": 55,
                    "time": 29.202807999999823,
                    "velocity": 0.2204724409448819,
                    "duration": 0.09799599999999842
                },
                {
                    "name": "A#2",
                    "midi": 46,
                    "time": 29.30080399999982,
                    "velocity": 0.2440944881889764,
                    "duration": 0.09799599999999842
                },
                {
                    "name": "D#2",
                    "midi": 39,
                    "time": 29.39879999999982,
                    "velocity": 0.30708661417322836,
                    "duration": 0.09799599999999842
                },
                {
                    "name": "G3",
                    "midi": 55,
                    "time": 29.49679599999982,
                    "velocity": 0.25984251968503935,
                    "duration": 0.09799599999999842
                },
                {
                    "name": "A#2",
                    "midi": 46,
                    "time": 29.594791999999817,
                    "velocity": 0.28346456692913385,
                    "duration": 0.09799599999999842
                },
                {
                    "name": "D#2",
                    "midi": 39,
                    "time": 29.692787999999815,
                    "velocity": 0.28346456692913385,
                    "duration": 0.09799599999999842
                },
                {
                    "name": "A#3",
                    "midi": 58,
                    "time": 29.790783999999814,
                    "velocity": 0.25196850393700787,
                    "duration": 0.09799599999999842
                },
                {
                    "name": "A#2",
                    "midi": 46,
                    "time": 29.888779999999812,
                    "velocity": 0.25196850393700787,
                    "duration": 0.09799599999999842
                },
                {
                    "name": "D#2",
                    "midi": 39,
                    "time": 29.98677599999981,
                    "velocity": 0.33070866141732286,
                    "duration": 0.09799599999999842
                },
                {
                    "name": "D#4",
                    "midi": 63,
                    "time": 30.08477199999981,
                    "velocity": 0.25984251968503935,
                    "duration": 0.09799599999999842
                },
                {
                    "name": "G3",
                    "midi": 55,
                    "time": 30.182767999999808,
                    "velocity": 0.2677165354330709,
                    "duration": 0.09799599999999842
                },
                {
                    "name": "A#2",
                    "midi": 46,
                    "time": 30.280763999999806,
                    "velocity": 0.33070866141732286,
                    "duration": 0.09799599999999842
                },
                {
                    "name": "G4",
                    "midi": 67,
                    "time": 30.378759999999804,
                    "velocity": 0.2755905511811024,
                    "duration": 0.09799599999999842
                },
                {
                    "name": "A#3",
                    "midi": 58,
                    "time": 30.476755999999803,
                    "velocity": 0.29133858267716534,
                    "duration": 0.09799599999999842
                },
                {
                    "name": "D#3",
                    "midi": 51,
                    "time": 30.5747519999998,
                    "velocity": 0.3700787401574803,
                    "duration": 0.09799599999999842
                },
                {
                    "name": "A#4",
                    "midi": 70,
                    "time": 30.6727479999998,
                    "velocity": 0.30708661417322836,
                    "duration": 0.09799599999999842
                },
                {
                    "name": "A#3",
                    "midi": 58,
                    "time": 30.770743999999798,
                    "velocity": 0.3228346456692913,
                    "duration": 0.09799599999999842
                },
                {
                    "name": "D#3",
                    "midi": 51,
                    "time": 30.868739999999796,
                    "velocity": 0.4251968503937008,
                    "duration": 0.09799599999999842
                },
                {
                    "name": "B4",
                    "midi": 71,
                    "time": 30.966735999999795,
                    "velocity": 0.30708661417322836,
                    "duration": 0.09799599999999842
                },
                {
                    "name": "B3",
                    "midi": 59,
                    "time": 31.064731999999793,
                    "velocity": 0.28346456692913385,
                    "duration": 0.09799599999999842
                },
                {
                    "name": "D#3",
                    "midi": 51,
                    "time": 31.16272799999979,
                    "velocity": 0.3858267716535433,
                    "duration": 0.09799599999999842
                },
                {
                    "name": "C5",
                    "midi": 72,
                    "time": 31.26072399999979,
                    "velocity": 0.2992125984251969,
                    "duration": 0.09799599999999842
                },
                {
                    "name": "C4",
                    "midi": 60,
                    "time": 31.35871999999979,
                    "velocity": 0.25984251968503935,
                    "duration": 0.09799599999999842
                },
                {
                    "name": "D#3",
                    "midi": 51,
                    "time": 31.456715999999787,
                    "velocity": 0.3228346456692913,
                    "duration": 0.09799600000000197
                },
                {
                    "name": "G#4",
                    "midi": 68,
                    "time": 31.55471199999979,
                    "velocity": 0.25984251968503935,
                    "duration": 0.09799599999999842
                },
                {
                    "name": "D4",
                    "midi": 62,
                    "time": 31.652707999999787,
                    "velocity": 0.25196850393700787,
                    "duration": 0.09799599999999842
                },
                {
                    "name": "D#3",
                    "midi": 51,
                    "time": 31.750703999999786,
                    "velocity": 0.36220472440944884,
                    "duration": 0.09799599999999842
                },
                {
                    "name": "G4",
                    "midi": 67,
                    "time": 31.848699999999784,
                    "velocity": 0.23622047244094488,
                    "duration": 0.09799599999999842
                },
                {
                    "name": "D#4",
                    "midi": 63,
                    "time": 31.946695999999783,
                    "velocity": 0.2440944881889764,
                    "duration": 0.09799600000000197
                },
                {
                    "name": "A#3",
                    "midi": 58,
                    "time": 32.044691999999785,
                    "velocity": 0.30708661417322836,
                    "duration": 0.09799599999999486
                },
                {
                    "name": "G4",
                    "midi": 67,
                    "time": 32.14268799999978,
                    "velocity": 0.23622047244094488,
                    "duration": 0.09799600000000197
                },
                {
                    "name": "D#4",
                    "midi": 63,
                    "time": 32.24068399999978,
                    "velocity": 0.23622047244094488,
                    "duration": 0.09799600000000197
                },
                {
                    "name": "D#3",
                    "midi": 51,
                    "time": 32.33867999999978,
                    "velocity": 0.2755905511811024,
                    "duration": 0.09799600000000197
                },
                {
                    "name": "D#4",
                    "midi": 63,
                    "time": 32.436675999999785,
                    "velocity": 0.2283464566929134,
                    "duration": 0.09799600000000197
                },
                {
                    "name": "G3",
                    "midi": 55,
                    "time": 32.53467199999979,
                    "velocity": 0.2283464566929134,
                    "duration": 0.09799600000000197
                },
                {
                    "name": "F2",
                    "midi": 41,
                    "time": 32.63266799999979,
                    "velocity": 0.28346456692913385,
                    "duration": 0.09799599999999486
                },
                {
                    "name": "C4",
                    "midi": 60,
                    "time": 32.730663999999784,
                    "velocity": 0.2204724409448819,
                    "duration": 0.09799600000000197
                },
                {
                    "name": "F3",
                    "midi": 53,
                    "time": 32.828659999999786,
                    "velocity": 0.2283464566929134,
                    "duration": 0.09799600000000197
                },
                {
                    "name": "C3",
                    "midi": 48,
                    "time": 32.92665599999979,
                    "velocity": 0.2677165354330709,
                    "duration": 0.09799600000000197
                },
                {
                    "name": "C4",
                    "midi": 60,
                    "time": 33.02465199999979,
                    "velocity": 0.23622047244094488,
                    "duration": 0.09799600000000197
                },
                {
                    "name": "F3",
                    "midi": 53,
                    "time": 33.12264799999979,
                    "velocity": 0.25196850393700787,
                    "duration": 0.09799600000000197
                },
                {
                    "name": "F2",
                    "midi": 41,
                    "time": 33.220643999999794,
                    "velocity": 0.3543307086614173,
                    "duration": 0.09799600000000197
                },
                {
                    "name": "C4",
                    "midi": 60,
                    "time": 33.318639999999796,
                    "velocity": 0.2677165354330709,
                    "duration": 0.09799600000000197
                },
                {
                    "name": "F3",
                    "midi": 53,
                    "time": 33.4166359999998,
                    "velocity": 0.31496062992125984,
                    "duration": 0.09799600000000197
                },
                {
                    "name": "A#2",
                    "midi": 46,
                    "time": 33.5146319999998,
                    "velocity": 0.3937007874015748,
                    "duration": 0.09799600000000197
                },
                {
                    "name": "D#4",
                    "midi": 63,
                    "time": 33.6126279999998,
                    "velocity": 0.2755905511811024,
                    "duration": 0.09799600000000197
                },
                {
                    "name": "F3",
                    "midi": 53,
                    "time": 33.710623999999804,
                    "velocity": 0.2755905511811024,
                    "duration": 0.09799600000000197
                },
                {
                    "name": "D3",
                    "midi": 50,
                    "time": 33.808619999999806,
                    "velocity": 0.33858267716535434,
                    "duration": 0.09799599999999486
                },
                {
                    "name": "D4",
                    "midi": 62,
                    "time": 33.9066159999998,
                    "velocity": 0.28346456692913385,
                    "duration": 0.09799600000000197
                },
                {
                    "name": "F3",
                    "midi": 53,
                    "time": 34.0046119999998,
                    "velocity": 0.2677165354330709,
                    "duration": 0.09799600000000197
                },
                {
                    "name": "A#2",
                    "midi": 46,
                    "time": 34.102607999999805,
                    "velocity": 0.30708661417322836,
                    "duration": 0.09799600000000197
                },
                {
                    "name": "A#3",
                    "midi": 58,
                    "time": 34.20060399999981,
                    "velocity": 0.2677165354330709,
                    "duration": 0.09799600000000197
                },
                {
                    "name": "F3",
                    "midi": 53,
                    "time": 34.29859999999981,
                    "velocity": 0.25984251968503935,
                    "duration": 0.09799600000000197
                },
                {
                    "name": "F2",
                    "midi": 41,
                    "time": 34.39659599999981,
                    "velocity": 0.28346456692913385,
                    "duration": 0.09799599999999486
                },
                {
                    "name": "C4",
                    "midi": 60,
                    "time": 34.494591999999805,
                    "velocity": 0.2204724409448819,
                    "duration": 0.09799600000000197
                },
                {
                    "name": "F3",
                    "midi": 53,
                    "time": 34.59258799999981,
                    "velocity": 0.2283464566929134,
                    "duration": 0.09799600000000197
                },
                {
                    "name": "C3",
                    "midi": 48,
                    "time": 34.69058399999981,
                    "velocity": 0.2677165354330709,
                    "duration": 0.09799600000000197
                },
                {
                    "name": "B3",
                    "midi": 59,
                    "time": 34.78857999999981,
                    "velocity": 0.23622047244094488,
                    "duration": 0.09799600000000197
                },
                {
                    "name": "F3",
                    "midi": 53,
                    "time": 34.88657599999981,
                    "velocity": 0.25196850393700787,
                    "duration": 0.09799600000000197
                },
                {
                    "name": "F2",
                    "midi": 41,
                    "time": 34.984571999999815,
                    "velocity": 0.2992125984251969,
                    "duration": 0.09799600000000197
                },
                {
                    "name": "C4",
                    "midi": 60,
                    "time": 35.08256799999982,
                    "velocity": 0.28346456692913385,
                    "duration": 0.09799600000000197
                },
                {
                    "name": "F3",
                    "midi": 53,
                    "time": 35.18056399999982,
                    "velocity": 0.2755905511811024,
                    "duration": 0.09799600000000197
                },
                {
                    "name": "A#2",
                    "midi": 46,
                    "time": 35.27855999999982,
                    "velocity": 0.4015748031496063,
                    "duration": 0.09799600000000197
                },
                {
                    "name": "D#4",
                    "midi": 63,
                    "time": 35.37655599999982,
                    "velocity": 0.2755905511811024,
                    "duration": 0.09799600000000197
                },
                {
                    "name": "G#3",
                    "midi": 56,
                    "time": 35.474551999999825,
                    "velocity": 0.2755905511811024,
                    "duration": 0.09799600000000197
                },
                {
                    "name": "F3",
                    "midi": 53,
                    "time": 35.57254799999983,
                    "velocity": 0.33858267716535434,
                    "duration": 0.09799599999999486
                },
                {
                    "name": "D4",
                    "midi": 62,
                    "time": 35.67054399999982,
                    "velocity": 0.2755905511811024,
                    "duration": 0.09799600000000197
                },
                {
                    "name": "F3",
                    "midi": 53,
                    "time": 35.768539999999824,
                    "velocity": 0.2677165354330709,
                    "duration": 0.09799600000000197
                },
                {
                    "name": "A#2",
                    "midi": 46,
                    "time": 35.866535999999826,
                    "velocity": 0.30708661417322836,
                    "duration": 0.09799600000000197
                },
                {
                    "name": "G#3",
                    "midi": 56,
                    "time": 35.96453199999983,
                    "velocity": 0.25984251968503935,
                    "duration": 0.09799600000000197
                },
                {
                    "name": "D3",
                    "midi": 50,
                    "time": 36.06252799999983,
                    "velocity": 0.25196850393700787,
                    "duration": 0.09799600000000197
                },
                {
                    "name": "D#2",
                    "midi": 39,
                    "time": 36.16052399999983,
                    "velocity": 0.28346456692913385,
                    "duration": 0.09799599999999486
                },
                {
                    "name": "G3",
                    "midi": 55,
                    "time": 36.25851999999983,
                    "velocity": 0.2204724409448819,
                    "duration": 0.09799600000000197
                },
                {
                    "name": "A#2",
                    "midi": 46,
                    "time": 36.35651599999983,
                    "velocity": 0.2204724409448819,
                    "duration": 0.09799600000000197
                },
                {
                    "name": "D#2",
                    "midi": 39,
                    "time": 36.45451199999983,
                    "velocity": 0.25984251968503935,
                    "duration": 0.09799600000000197
                },
                {
                    "name": "G3",
                    "midi": 55,
                    "time": 36.55250799999983,
                    "velocity": 0.2204724409448819,
                    "duration": 0.09799600000000197
                },
                {
                    "name": "A#2",
                    "midi": 46,
                    "time": 36.650503999999835,
                    "velocity": 0.2283464566929134,
                    "duration": 0.09799600000000197
                },
                {
                    "name": "D#2",
                    "midi": 39,
                    "time": 36.74849999999984,
                    "velocity": 0.2755905511811024,
                    "duration": 0.09799600000000197
                },
                {
                    "name": "A#3",
                    "midi": 58,
                    "time": 36.84649599999984,
                    "velocity": 0.2440944881889764,
                    "duration": 0.09799600000000197
                },
                {
                    "name": "A#2",
                    "midi": 46,
                    "time": 36.94449199999984,
                    "velocity": 0.2440944881889764,
                    "duration": 0.09799600000000197
                },
                {
                    "name": "D#2",
                    "midi": 39,
                    "time": 37.04248799999984,
                    "velocity": 0.30708661417322836,
                    "duration": 0.09799600000000197
                },
                {
                    "name": "D#4",
                    "midi": 63,
                    "time": 37.140483999999844,
                    "velocity": 0.2440944881889764,
                    "duration": 0.09799600000000197
                },
                {
                    "name": "G3",
                    "midi": 55,
                    "time": 37.238479999999846,
                    "velocity": 0.25196850393700787,
                    "duration": 0.09799600000000197
                },
                {
                    "name": "A#2",
                    "midi": 46,
                    "time": 37.33647599999985,
                    "velocity": 0.31496062992125984,
                    "duration": 0.09799600000000197
                },
                {
                    "name": "G4",
                    "midi": 67,
                    "time": 37.43447199999985,
                    "velocity": 0.25984251968503935,
                    "duration": 0.09799600000000197
                },
                {
                    "name": "A#3",
                    "midi": 58,
                    "time": 37.53246799999985,
                    "velocity": 0.2755905511811024,
                    "duration": 0.09799600000000197
                },
                {
                    "name": "D#3",
                    "midi": 51,
                    "time": 37.630463999999854,
                    "velocity": 0.3464566929133858,
                    "duration": 0.09799600000000197
                },
                {
                    "name": "A#4",
                    "midi": 70,
                    "time": 37.728459999999856,
                    "velocity": 0.29133858267716534,
                    "duration": 0.09799600000000197
                },
                {
                    "name": "A#3",
                    "midi": 58,
                    "time": 37.82645599999986,
                    "velocity": 0.2992125984251969,
                    "duration": 0.09799600000000197
                },
                {
                    "name": "A2",
                    "midi": 45,
                    "time": 37.92445199999986,
                    "velocity": 0.4330708661417323,
                    "duration": 0.09799600000000197
                },
                {
                    "name": "C4",
                    "midi": 60,
                    "time": 38.02244799999986,
                    "velocity": 0.28346456692913385,
                    "duration": 0.09799600000000197
                },
                {
                    "name": "F#3",
                    "midi": 54,
                    "time": 38.120443999999864,
                    "velocity": 0.28346456692913385,
                    "duration": 0.09799600000000197
                },
                {
                    "name": "B2",
                    "midi": 47,
                    "time": 38.218439999999866,
                    "velocity": 0.3858267716535433,
                    "duration": 0.09799600000000197
                },
                {
                    "name": "D4",
                    "midi": 62,
                    "time": 38.31643599999987,
                    "velocity": 0.29133858267716534,
                    "duration": 0.09799600000000197
                },
                {
                    "name": "G#3",
                    "midi": 56,
                    "time": 38.41443199999987,
                    "velocity": 0.28346456692913385,
                    "duration": 0.09799600000000197
                },
                {
                    "name": "C#3",
                    "midi": 49,
                    "time": 38.51242799999987,
                    "velocity": 0.3700787401574803,
                    "duration": 0.09799599999999486
                },
                {
                    "name": "E4",
                    "midi": 64,
                    "time": 38.61042399999987,
                    "velocity": 0.2677165354330709,
                    "duration": 0.09799600000000197
                },
                {
                    "name": "A#3",
                    "midi": 58,
                    "time": 38.70841999999987,
                    "velocity": 0.25984251968503935,
                    "duration": 0.09799600000000197
                },
                {
                    "name": "D#3",
                    "midi": 51,
                    "time": 38.80641599999987,
                    "velocity": 0.4251968503937008,
                    "duration": 0.09799600000000197
                },
                {
                    "name": "F#4",
                    "midi": 66,
                    "time": 38.90441199999987,
                    "velocity": 0.2992125984251969,
                    "duration": 0.09799600000000197
                },
                {
                    "name": "C4",
                    "midi": 60,
                    "time": 39.002407999999875,
                    "velocity": 0.2755905511811024,
                    "duration": 0.09799600000000197
                },
                {
                    "name": "F3",
                    "midi": 53,
                    "time": 39.10040399999988,
                    "velocity": 0.36220472440944884,
                    "duration": 0.09799599999999486
                },
                {
                    "name": "G#4",
                    "midi": 68,
                    "time": 39.19839999999987,
                    "velocity": 0.2677165354330709,
                    "duration": 0.09799600000000197
                },
                {
                    "name": "D4",
                    "midi": 62,
                    "time": 39.29639599999987,
                    "velocity": 0.2677165354330709,
                    "duration": 0.09799600000000197
                },
                {
                    "name": "G3",
                    "midi": 55,
                    "time": 39.394391999999876,
                    "velocity": 0.33070866141732286,
                    "duration": 0.09799600000000197
                },
                {
                    "name": "A#4",
                    "midi": 70,
                    "time": 39.49238799999988,
                    "velocity": 0.2755905511811024,
                    "duration": 0.09799600000000197
                },
                {
                    "name": "E4",
                    "midi": 64,
                    "time": 39.59038399999988,
                    "velocity": 0.2755905511811024,
                    "duration": 0.09799600000000197
                },
                {
                    "name": "G#3",
                    "midi": 56,
                    "time": 39.68837999999988,
                    "velocity": 0.3700787401574803,
                    "duration": 0.09799600000000197
                },
                {
                    "name": "G#4",
                    "midi": 68,
                    "time": 39.78637599999988,
                    "velocity": 0.28346456692913385,
                    "duration": 0.09799600000000197
                },
                {
                    "name": "F4",
                    "midi": 65,
                    "time": 39.884371999999885,
                    "velocity": 0.33858267716535434,
                    "duration": 0.09799600000000197
                },
                {
                    "name": "C4",
                    "midi": 60,
                    "time": 39.98236799999989,
                    "velocity": 0.4251968503937008,
                    "duration": 0.09799600000000197
                },
                {
                    "name": "G#4",
                    "midi": 68,
                    "time": 40.08036399999989,
                    "velocity": 0.33070866141732286,
                    "duration": 0.09799600000000197
                },
                {
                    "name": "F4",
                    "midi": 65,
                    "time": 40.17835999999989,
                    "velocity": 0.33070866141732286,
                    "duration": 0.09799600000000197
                },
                {
                    "name": "G#3",
                    "midi": 56,
                    "time": 40.27635599999989,
                    "velocity": 0.47244094488188976,
                    "duration": 0.09799600000000197
                },
                {
                    "name": "G#4",
                    "midi": 68,
                    "time": 40.374351999999895,
                    "velocity": 0.36220472440944884,
                    "duration": 0.09799600000000197
                },
                {
                    "name": "F4",
                    "midi": 65,
                    "time": 40.4723479999999,
                    "velocity": 0.3858267716535433,
                    "duration": 0.09799600000000197
                },
                {
                    "name": "F3",
                    "midi": 53,
                    "time": 40.5703439999999,
                    "velocity": 0.4881889763779528,
                    "duration": 0.09799599999999486
                },
                {
                    "name": "D#5",
                    "midi": 75,
                    "time": 40.668339999999894,
                    "velocity": 0.36220472440944884,
                    "duration": 0.09799600000000197
                },
                {
                    "name": "G#4",
                    "midi": 68,
                    "time": 40.766335999999896,
                    "velocity": 0.36220472440944884,
                    "duration": 0.09799600000000197
                },
                {
                    "name": "D#4",
                    "midi": 63,
                    "time": 40.8643319999999,
                    "velocity": 0.3937007874015748,
                    "duration": 0.09799600000000197
                },
                {
                    "name": "D#5",
                    "midi": 75,
                    "time": 40.9623279999999,
                    "velocity": 0.29133858267716534,
                    "duration": 0.09799600000000197
                },
                {
                    "name": "G#4",
                    "midi": 68,
                    "time": 41.0603239999999,
                    "velocity": 0.2992125984251969,
                    "duration": 0.09799600000000197
                },
                {
                    "name": "G#3",
                    "midi": 56,
                    "time": 41.158319999999904,
                    "velocity": 0.36220472440944884,
                    "duration": 0.09799600000000197
                },
                {
                    "name": "D#5",
                    "midi": 75,
                    "time": 41.256315999999906,
                    "velocity": 0.29133858267716534,
                    "duration": 0.09799600000000197
                },
                {
                    "name": "G#4",
                    "midi": 68,
                    "time": 41.35431199999991,
                    "velocity": 0.2755905511811024,
                    "duration": 0.09799600000000197
                },
                {
                    "name": "G#2",
                    "midi": 44,
                    "time": 41.45230799999991,
                    "velocity": 0.36220472440944884,
                    "duration": 0.09799600000000197
                },
                {
                    "name": "G#4",
                    "midi": 68,
                    "time": 41.55030399999991,
                    "velocity": 0.2755905511811024,
                    "duration": 0.09799600000000197
                },
                {
                    "name": "F4",
                    "midi": 65,
                    "time": 41.648299999999914,
                    "velocity": 0.2992125984251969,
                    "duration": 0.09799600000000197
                },
                {
                    "name": "C4",
                    "midi": 60,
                    "time": 41.746295999999916,
                    "velocity": 0.3700787401574803,
                    "duration": 0.09799600000000197
                },
                {
                    "name": "G#4",
                    "midi": 68,
                    "time": 41.84429199999992,
                    "velocity": 0.2992125984251969,
                    "duration": 0.09799600000000197
                },
                {
                    "name": "F4",
                    "midi": 65,
                    "time": 41.94228799999992,
                    "velocity": 0.25196850393700787,
                    "duration": 0.09799600000000197
                },
                {
                    "name": "F3",
                    "midi": 53,
                    "time": 42.04028399999992,
                    "velocity": 0.2992125984251969,
                    "duration": 0.09799600000000197
                },
                {
                    "name": "G#4",
                    "midi": 68,
                    "time": 42.138279999999924,
                    "velocity": 0.2677165354330709,
                    "duration": 0.09799600000000197
                },
                {
                    "name": "D#4",
                    "midi": 63,
                    "time": 42.236275999999926,
                    "velocity": 0.2677165354330709,
                    "duration": 0.09799600000000197
                },
                {
                    "name": "A#2",
                    "midi": 46,
                    "time": 42.33427199999993,
                    "velocity": 0.29133858267716534,
                    "duration": 0.09799599999999486
                },
                {
                    "name": "D#4",
                    "midi": 63,
                    "time": 42.43226799999992,
                    "velocity": 0.2204724409448819,
                    "duration": 0.09799600000000197
                },
                {
                    "name": "G#3",
                    "midi": 56,
                    "time": 42.530263999999924,
                    "velocity": 0.2440944881889764,
                    "duration": 0.09799600000000197
                },
                {
                    "name": "F3",
                    "midi": 53,
                    "time": 42.628259999999926,
                    "velocity": 0.2992125984251969,
                    "duration": 0.09799600000000197
                },
                {
                    "name": "D4",
                    "midi": 62,
                    "time": 42.72625599999993,
                    "velocity": 0.2440944881889764,
                    "duration": 0.09799600000000197
                },
                {
                    "name": "G#3",
                    "midi": 56,
                    "time": 42.82425199999993,
                    "velocity": 0.25196850393700787,
                    "duration": 0.09799600000000197
                },
                {
                    "name": "A#2",
                    "midi": 46,
                    "time": 42.92224799999993,
                    "velocity": 0.2440944881889764,
                    "duration": 0.09799600000000197
                },
                {
                    "name": "A#3",
                    "midi": 58,
                    "time": 43.020243999999934,
                    "velocity": 0.2125984251968504,
                    "duration": 0.09799600000000197
                },
                {
                    "name": "G#3",
                    "midi": 56,
                    "time": 43.118239999999936,
                    "velocity": 0.2125984251968504,
                    "duration": 0.09799600000000197
                },
                {
                    "name": "D#2",
                    "midi": 39,
                    "time": 43.21623599999994,
                    "velocity": 0.25196850393700787,
                    "duration": 0.09799600000000197
                },
                {
                    "name": "G3",
                    "midi": 55,
                    "time": 43.31423199999994,
                    "velocity": 0.2125984251968504,
                    "duration": 0.09799600000000197
                },
                {
                    "name": "A#2",
                    "midi": 46,
                    "time": 43.41222799999994,
                    "velocity": 0.2204724409448819,
                    "duration": 0.09799600000000197
                },
                {
                    "name": "D#2",
                    "midi": 39,
                    "time": 43.510223999999944,
                    "velocity": 0.28346456692913385,
                    "duration": 0.09799600000000197
                },
                {
                    "name": "A#3",
                    "midi": 58,
                    "time": 43.608219999999946,
                    "velocity": 0.2283464566929134,
                    "duration": 0.09799600000000197
                },
                {
                    "name": "A#2",
                    "midi": 46,
                    "time": 43.70621599999995,
                    "velocity": 0.25196850393700787,
                    "duration": 0.09799600000000197
                },
                {
                    "name": "D#2",
                    "midi": 39,
                    "time": 43.80421199999995,
                    "velocity": 0.31496062992125984,
                    "duration": 0.09799600000000197
                },
                {
                    "name": "A#3",
                    "midi": 58,
                    "time": 43.90220799999995,
                    "velocity": 0.2677165354330709,
                    "duration": 0.09799600000000197
                },
                {
                    "name": "A#2",
                    "midi": 46,
                    "time": 44.000203999999954,
                    "velocity": 0.28346456692913385,
                    "duration": 0.09799600000000197
                },
                {
                    "name": "D#2",
                    "midi": 39,
                    "time": 44.098199999999956,
                    "velocity": 0.36220472440944884,
                    "duration": 0.09799599999999486
                },
                {
                    "name": "G#3",
                    "midi": 56,
                    "time": 44.19619599999995,
                    "velocity": 0.4251968503937008,
                    "duration": 0.09799600000000197
                },
                {
                    "name": "A#2",
                    "midi": 46,
                    "time": 44.29419199999995,
                    "velocity": 0.25984251968503935,
                    "duration": 0.09799600000000197
                },
                {
                    "name": "D#2",
                    "midi": 39,
                    "time": 44.392187999999955,
                    "velocity": 0.33070866141732286,
                    "duration": 0.09799600000000197
                },
                {
                    "name": "A#3",
                    "midi": 58,
                    "time": 44.49018399999996,
                    "velocity": 0.25196850393700787,
                    "duration": 0.09799600000000197
                },
                {
                    "name": "A#2",
                    "midi": 46,
                    "time": 44.58817999999996,
                    "velocity": 0.23622047244094488,
                    "duration": 0.09799600000000197
                },
                {
                    "name": "D#2",
                    "midi": 39,
                    "time": 44.68617599999996,
                    "velocity": 0.2677165354330709,
                    "duration": 0.09799600000000197
                },
                {
                    "name": "A#3",
                    "midi": 58,
                    "time": 44.78417199999996,
                    "velocity": 0.2204724409448819,
                    "duration": 0.09799600000000197
                },
                {
                    "name": "A#2",
                    "midi": 46,
                    "time": 44.882167999999965,
                    "velocity": 0.2047244094488189,
                    "duration": 0.09799600000000197
                },
                {
                    "name": "D#2",
                    "midi": 39,
                    "time": 44.98016399999997,
                    "velocity": 0.25196850393700787,
                    "duration": 0.09799599999999486
                },
                {
                    "name": "A#3",
                    "midi": 58,
                    "time": 45.07815999999996,
                    "velocity": 0.2125984251968504,
                    "duration": 0.09799600000000197
                },
                {
                    "name": "A#2",
                    "midi": 46,
                    "time": 45.17615599999996,
                    "velocity": 0.2204724409448819,
                    "duration": 0.09799600000000197
                },
                {
                    "name": "D#2",
                    "midi": 39,
                    "time": 45.274151999999965,
                    "velocity": 0.28346456692913385,
                    "duration": 0.09799600000000197
                },
                {
                    "name": "A#3",
                    "midi": 58,
                    "time": 45.37214799999997,
                    "velocity": 0.2283464566929134,
                    "duration": 0.09799600000000197
                },
                {
                    "name": "A#2",
                    "midi": 46,
                    "time": 45.47014399999997,
                    "velocity": 0.25196850393700787,
                    "duration": 0.09799600000000197
                },
                {
                    "name": "D#2",
                    "midi": 39,
                    "time": 45.56813999999997,
                    "velocity": 0.31496062992125984,
                    "duration": 0.09799600000000197
                },
                {
                    "name": "A#3",
                    "midi": 58,
                    "time": 45.66613599999997,
                    "velocity": 0.2677165354330709,
                    "duration": 0.09799600000000197
                },
                {
                    "name": "A#2",
                    "midi": 46,
                    "time": 45.764131999999975,
                    "velocity": 0.28346456692913385,
                    "duration": 0.09799600000000197
                },
                {
                    "name": "D#2",
                    "midi": 39,
                    "time": 45.86212799999998,
                    "velocity": 0.31496062992125984,
                    "duration": 0.09799599999999486
                },
                {
                    "name": "G#3",
                    "midi": 56,
                    "time": 45.96012399999997,
                    "velocity": 0.33070866141732286,
                    "duration": 0.09799600000000197
                },
                {
                    "name": "A#2",
                    "midi": 46,
                    "time": 46.058119999999974,
                    "velocity": 0.25984251968503935,
                    "duration": 0.09799600000000197
                },
                {
                    "name": "D#2",
                    "midi": 39,
                    "time": 46.156115999999976,
                    "velocity": 0.33070866141732286,
                    "duration": 0.09799600000000197
                },
                {
                    "name": "A#3",
                    "midi": 58,
                    "time": 46.25411199999998,
                    "velocity": 0.25196850393700787,
                    "duration": 0.09799600000000197
                },
                {
                    "name": "A#2",
                    "midi": 46,
                    "time": 46.35210799999998,
                    "velocity": 0.23622047244094488,
                    "duration": 0.09799600000000197
                },
                {
                    "name": "D#2",
                    "midi": 39,
                    "time": 46.45010399999998,
                    "velocity": 0.2677165354330709,
                    "duration": 0.09799600000000197
                },
                {
                    "name": "A#3",
                    "midi": 58,
                    "time": 46.548099999999984,
                    "velocity": 0.2204724409448819,
                    "duration": 0.09799600000000197
                },
                {
                    "name": "A#2",
                    "midi": 46,
                    "time": 46.646095999999986,
                    "velocity": 0.2047244094488189,
                    "duration": 0.09799600000000197
                },
                {
                    "name": "D#2",
                    "midi": 39,
                    "time": 46.74409199999999,
                    "velocity": 0.25196850393700787,
                    "duration": 0.09799599999999486
                },
                {
                    "name": "A#3",
                    "midi": 58,
                    "time": 46.84208799999998,
                    "velocity": 0.2125984251968504,
                    "duration": 0.09799600000000197
                },
                {
                    "name": "A#2",
                    "midi": 46,
                    "time": 46.940083999999985,
                    "velocity": 0.2204724409448819,
                    "duration": 0.09799600000000197
                },
                {
                    "name": "D#2",
                    "midi": 39,
                    "time": 47.03807999999999,
                    "velocity": 0.30708661417322836,
                    "duration": 0.09799600000000197
                },
                {
                    "name": "A#3",
                    "midi": 58,
                    "time": 47.13607599999999,
                    "velocity": 0.2283464566929134,
                    "duration": 0.09799600000000197
                },
                {
                    "name": "A#2",
                    "midi": 46,
                    "time": 47.23407199999999,
                    "velocity": 0.25196850393700787,
                    "duration": 0.09799600000000197
                },
                {
                    "name": "G2",
                    "midi": 43,
                    "time": 47.33206799999999,
                    "velocity": 0.3543307086614173,
                    "duration": 0.09799600000000197
                },
                {
                    "name": "A#3",
                    "midi": 58,
                    "time": 47.430063999999994,
                    "velocity": 0.2755905511811024,
                    "duration": 0.09799600000000197
                },
                {
                    "name": "D#3",
                    "midi": 51,
                    "time": 47.528059999999996,
                    "velocity": 0.29133858267716534,
                    "duration": 0.09799600000000197
                },
                {
                    "name": "G2",
                    "midi": 43,
                    "time": 47.626056,
                    "velocity": 0.41732283464566927,
                    "duration": 0.09799599999999486
                },
                {
                    "name": "F4",
                    "midi": 65,
                    "time": 47.72405199999999,
                    "velocity": 0.2755905511811024,
                    "duration": 0.09799600000000197
                },
                {
                    "name": "B3",
                    "midi": 59,
                    "time": 47.822047999999995,
                    "velocity": 0.2755905511811024,
                    "duration": 0.09799600000000197
                },
                {
                    "name": "D3",
                    "midi": 50,
                    "time": 47.920044,
                    "velocity": 0.3700787401574803,
                    "duration": 0.09799600000000197
                },
                {
                    "name": "F4",
                    "midi": 65,
                    "time": 48.01804,
                    "velocity": 0.2677165354330709,
                    "duration": 0.09799600000000197
                },
                {
                    "name": "B3",
                    "midi": 59,
                    "time": 48.116036,
                    "velocity": 0.25984251968503935,
                    "duration": 0.09799600000000197
                },
                {
                    "name": "C3",
                    "midi": 48,
                    "time": 48.214032,
                    "velocity": 0.3543307086614173,
                    "duration": 0.09799599999999486
                },
                {
                    "name": "D#4",
                    "midi": 63,
                    "time": 48.312028,
                    "velocity": 0.2440944881889764,
                    "duration": 0.09799600000000197
                },
                {
                    "name": "G3",
                    "midi": 55,
                    "time": 48.410024,
                    "velocity": 0.2283464566929134,
                    "duration": 0.09799600000000197
                },
                {
                    "name": "A2",
                    "midi": 45,
                    "time": 48.50802,
                    "velocity": 0.3464566929133858,
                    "duration": 0.09799600000000197
                },
                {
                    "name": "D#4",
                    "midi": 63,
                    "time": 48.606016000000004,
                    "velocity": 0.25984251968503935,
                    "duration": 0.09799600000000197
                },
                {
                    "name": "F#3",
                    "midi": 54,
                    "time": 48.704012000000006,
                    "velocity": 0.25984251968503935,
                    "duration": 0.09799600000000197
                },
                {
                    "name": "D#3",
                    "midi": 51,
                    "time": 48.80200800000001,
                    "velocity": 0.31496062992125984,
                    "duration": 0.09799600000000197
                },
                {
                    "name": "D#4",
                    "midi": 63,
                    "time": 48.90000400000001,
                    "velocity": 0.2440944881889764,
                    "duration": 0.09799600000000197
                },
                {
                    "name": "F#3",
                    "midi": 54,
                    "time": 48.99800000000001,
                    "velocity": 0.2283464566929134,
                    "duration": 0.09799600000000197
                },
                {
                    "name": "G#2",
                    "midi": 44,
                    "time": 49.095996000000014,
                    "velocity": 0.25984251968503935,
                    "duration": 0.09799599999999486
                },
                {
                    "name": "D#4",
                    "midi": 63,
                    "time": 49.19399200000001,
                    "velocity": 0.2125984251968504,
                    "duration": 0.09799600000000197
                },
                {
                    "name": "F#3",
                    "midi": 54,
                    "time": 49.29198800000001,
                    "velocity": 0.2047244094488189,
                    "duration": 0.09799600000000197
                },
                {
                    "name": "A#2",
                    "midi": 46,
                    "time": 49.38998400000001,
                    "velocity": 0.2755905511811024,
                    "duration": 0.09799600000000197
                },
                {
                    "name": "D4",
                    "midi": 62,
                    "time": 49.487980000000015,
                    "velocity": 0.2283464566929134,
                    "duration": 0.09799600000000197
                },
                {
                    "name": "G#3",
                    "midi": 56,
                    "time": 49.58597600000002,
                    "velocity": 0.2283464566929134,
                    "duration": 0.09799600000000197
                },
                {
                    "name": "F3",
                    "midi": 53,
                    "time": 49.68397200000002,
                    "velocity": 0.25984251968503935,
                    "duration": 0.09799600000000197
                },
                {
                    "name": "D4",
                    "midi": 62,
                    "time": 49.78196800000002,
                    "velocity": 0.2204724409448819,
                    "duration": 0.09799600000000197
                },
                {
                    "name": "G#3",
                    "midi": 56,
                    "time": 49.87996400000002,
                    "velocity": 0.2204724409448819,
                    "duration": 0.09799600000000197
                },
                {
                    "name": "A#2",
                    "midi": 46,
                    "time": 49.977960000000024,
                    "velocity": 0.25196850393700787,
                    "duration": 0.09799599999999486
                },
                {
                    "name": "A#3",
                    "midi": 58,
                    "time": 50.07595600000002,
                    "velocity": 0.2125984251968504,
                    "duration": 0.09799600000000197
                },
                {
                    "name": "G#3",
                    "midi": 56,
                    "time": 50.17395200000002,
                    "velocity": 0.2047244094488189,
                    "duration": 0.09799600000000197
                },
                {
                    "name": "D#2",
                    "midi": 39,
                    "time": 50.27194800000002,
                    "velocity": 0.25196850393700787,
                    "duration": 0.09799600000000197
                },
                {
                    "name": "G3",
                    "midi": 55,
                    "time": 50.369944000000025,
                    "velocity": 0.2125984251968504,
                    "duration": 0.09799600000000197
                },
                {
                    "name": "A#2",
                    "midi": 46,
                    "time": 50.46794000000003,
                    "velocity": 0.2204724409448819,
                    "duration": 0.09799600000000197
                },
                {
                    "name": "D#2",
                    "midi": 39,
                    "time": 50.56593600000003,
                    "velocity": 0.28346456692913385,
                    "duration": 0.09799600000000197
                },
                {
                    "name": "A#3",
                    "midi": 58,
                    "time": 50.66393200000003,
                    "velocity": 0.2283464566929134,
                    "duration": 0.09799600000000197
                },
                {
                    "name": "A#2",
                    "midi": 46,
                    "time": 50.76192800000003,
                    "velocity": 0.25196850393700787,
                    "duration": 0.09799600000000197
                },
                {
                    "name": "D#2",
                    "midi": 39,
                    "time": 50.859924000000035,
                    "velocity": 0.31496062992125984,
                    "duration": 0.09799600000000197
                },
                {
                    "name": "A#3",
                    "midi": 58,
                    "time": 50.95792000000004,
                    "velocity": 0.2677165354330709,
                    "duration": 0.09799600000000197
                },
                {
                    "name": "A#2",
                    "midi": 46,
                    "time": 51.05591600000004,
                    "velocity": 0.25984251968503935,
                    "duration": 0.09799600000000197
                },
                {
                    "name": "D#2",
                    "midi": 39,
                    "time": 51.15391200000004,
                    "velocity": 0.36220472440944884,
                    "duration": 0.09799600000000197
                },
                {
                    "name": "G#3",
                    "midi": 56,
                    "time": 51.25190800000004,
                    "velocity": 0.2677165354330709,
                    "duration": 0.09799600000000197
                },
                {
                    "name": "A#2",
                    "midi": 46,
                    "time": 51.349904000000045,
                    "velocity": 0.25984251968503935,
                    "duration": 0.09799600000000197
                },
                {
                    "name": "D#2",
                    "midi": 39,
                    "time": 51.44790000000005,
                    "velocity": 0.33070866141732286,
                    "duration": 0.09799600000000197
                },
                {
                    "name": "A#3",
                    "midi": 58,
                    "time": 51.54589600000005,
                    "velocity": 0.25196850393700787,
                    "duration": 0.09799600000000197
                },
                {
                    "name": "A#2",
                    "midi": 46,
                    "time": 51.64389200000005,
                    "velocity": 0.23622047244094488,
                    "duration": 0.09799600000000197
                },
                {
                    "name": "D#2",
                    "midi": 39,
                    "time": 51.74188800000005,
                    "velocity": 0.2677165354330709,
                    "duration": 0.09799600000000197
                },
                {
                    "name": "A#3",
                    "midi": 58,
                    "time": 51.839884000000055,
                    "velocity": 0.2204724409448819,
                    "duration": 0.09799600000000197
                },
                {
                    "name": "A#2",
                    "midi": 46,
                    "time": 51.93788000000006,
                    "velocity": 0.2047244094488189,
                    "duration": 0.09799600000000197
                },
                {
                    "name": "D#2",
                    "midi": 39,
                    "time": 52.03587600000006,
                    "velocity": 0.25196850393700787,
                    "duration": 0.09799599999999486
                },
                {
                    "name": "A#3",
                    "midi": 58,
                    "time": 52.13387200000005,
                    "velocity": 0.2125984251968504,
                    "duration": 0.09799600000000197
                },
                {
                    "name": "A#2",
                    "midi": 46,
                    "time": 52.231868000000055,
                    "velocity": 0.2204724409448819,
                    "duration": 0.09799600000000197
                },
                {
                    "name": "D#2",
                    "midi": 39,
                    "time": 52.32986400000006,
                    "velocity": 0.28346456692913385,
                    "duration": 0.09799600000000197
                },
                {
                    "name": "A#3",
                    "midi": 58,
                    "time": 52.42786000000006,
                    "velocity": 0.2283464566929134,
                    "duration": 0.09799600000000197
                },
                {
                    "name": "A#2",
                    "midi": 46,
                    "time": 52.52585600000006,
                    "velocity": 0.25196850393700787,
                    "duration": 0.09799600000000197
                },
                {
                    "name": "D#2",
                    "midi": 39,
                    "time": 52.62385200000006,
                    "velocity": 0.31496062992125984,
                    "duration": 0.09799600000000197
                },
                {
                    "name": "A#3",
                    "midi": 58,
                    "time": 52.721848000000065,
                    "velocity": 0.2677165354330709,
                    "duration": 0.09799600000000197
                },
                {
                    "name": "A#2",
                    "midi": 46,
                    "time": 52.81984400000007,
                    "velocity": 0.28346456692913385,
                    "duration": 0.09799600000000197
                },
                {
                    "name": "D#2",
                    "midi": 39,
                    "time": 52.91784000000007,
                    "velocity": 0.31496062992125984,
                    "duration": 0.09799599999999486
                },
                {
                    "name": "G#3",
                    "midi": 56,
                    "time": 53.015836000000064,
                    "velocity": 0.31496062992125984,
                    "duration": 0.09799600000000197
                },
                {
                    "name": "A#2",
                    "midi": 46,
                    "time": 53.113832000000066,
                    "velocity": 0.25984251968503935,
                    "duration": 0.09799600000000197
                },
                {
                    "name": "D#2",
                    "midi": 39,
                    "time": 53.21182800000007,
                    "velocity": 0.33070866141732286,
                    "duration": 0.09799600000000197
                },
                {
                    "name": "A#3",
                    "midi": 58,
                    "time": 53.30982400000007,
                    "velocity": 0.25196850393700787,
                    "duration": 0.09799600000000197
                },
                {
                    "name": "A#2",
                    "midi": 46,
                    "time": 53.40782000000007,
                    "velocity": 0.23622047244094488,
                    "duration": 0.09799600000000197
                },
                {
                    "name": "D#2",
                    "midi": 39,
                    "time": 53.505816000000074,
                    "velocity": 0.2677165354330709,
                    "duration": 0.09799600000000197
                },
                {
                    "name": "A#3",
                    "midi": 58,
                    "time": 53.603812000000076,
                    "velocity": 0.2204724409448819,
                    "duration": 0.09799600000000197
                },
                {
                    "name": "A#2",
                    "midi": 46,
                    "time": 53.70180800000008,
                    "velocity": 0.2047244094488189,
                    "duration": 0.09799600000000197
                },
                {
                    "name": "D#2",
                    "midi": 39,
                    "time": 53.79980400000008,
                    "velocity": 0.25196850393700787,
                    "duration": 0.09799599999999486
                },
                {
                    "name": "A#3",
                    "midi": 58,
                    "time": 53.897800000000075,
                    "velocity": 0.2125984251968504,
                    "duration": 0.09799600000000197
                },
                {
                    "name": "A#2",
                    "midi": 46,
                    "time": 53.99579600000008,
                    "velocity": 0.2204724409448819,
                    "duration": 0.09799600000000197
                },
                {
                    "name": "D#2",
                    "midi": 39,
                    "time": 54.09379200000008,
                    "velocity": 0.30708661417322836,
                    "duration": 0.09799600000000197
                },
                {
                    "name": "A#3",
                    "midi": 58,
                    "time": 54.19178800000008,
                    "velocity": 0.2283464566929134,
                    "duration": 0.09799600000000197
                },
                {
                    "name": "A#2",
                    "midi": 46,
                    "time": 54.28978400000008,
                    "velocity": 0.25196850393700787,
                    "duration": 0.09799600000000197
                },
                {
                    "name": "D#2",
                    "midi": 39,
                    "time": 54.387780000000085,
                    "velocity": 0.3543307086614173,
                    "duration": 0.09799600000000197
                },
                {
                    "name": "A#3",
                    "midi": 58,
                    "time": 54.48577600000009,
                    "velocity": 0.2755905511811024,
                    "duration": 0.09799600000000197
                },
                {
                    "name": "D#3",
                    "midi": 51,
                    "time": 54.58377200000009,
                    "velocity": 0.29133858267716534,
                    "duration": 0.09799600000000197
                },
                {
                    "name": "G1",
                    "midi": 31,
                    "time": 54.68176800000009,
                    "velocity": 0.33858267716535434,
                    "duration": 0.09799599999999486
                },
                {
                    "name": "B3",
                    "midi": 59,
                    "time": 54.779764000000085,
                    "velocity": 0.23622047244094488,
                    "duration": 0.09799600000000197
                },
                {
                    "name": "F3",
                    "midi": 53,
                    "time": 54.87776000000009,
                    "velocity": 0.23622047244094488,
                    "duration": 0.09799600000000197
                },
                {
                    "name": "G2",
                    "midi": 43,
                    "time": 54.97575600000009,
                    "velocity": 0.3543307086614173,
                    "duration": 0.09799600000000197
                },
                {
                    "name": "B3",
                    "midi": 59,
                    "time": 55.07375200000009,
                    "velocity": 0.2755905511811024,
                    "duration": 0.09799600000000197
                },
                {
                    "name": "F3",
                    "midi": 53,
                    "time": 55.17174800000009,
                    "velocity": 0.25984251968503935,
                    "duration": 0.09799600000000197
                },
                {
                    "name": "G#2",
                    "midi": 44,
                    "time": 55.269744000000095,
                    "velocity": 0.3543307086614173,
                    "duration": 0.09799599999999486
                },
                {
                    "name": "B3",
                    "midi": 59,
                    "time": 55.36774000000009,
                    "velocity": 0.2440944881889764,
                    "duration": 0.09799600000000197
                },
                {
                    "name": "E3",
                    "midi": 52,
                    "time": 55.46573600000009,
                    "velocity": 0.23622047244094488,
                    "duration": 0.28970067499999885
                },
                {
                    "name": "A2",
                    "midi": 45,
                    "time": 55.563732000000094,
                    "velocity": 0.3543307086614173,
                    "duration": 0.09799599999999486
                },
                {
                    "name": "C#4",
                    "midi": 61,
                    "time": 55.66172800000009,
                    "velocity": 0.2677165354330709,
                    "duration": 0.09799600000000197
                },
                {
                    "name": "E3",
                    "midi": 52,
                    "time": 55.75972400000009,
                    "velocity": 0.2677165354330709,
                    "duration": 0.2939880000000059
                },
                {
                    "name": "A2",
                    "midi": 45,
                    "time": 55.85772000000009,
                    "velocity": 0.3228346456692913,
                    "duration": 0.09799600000000197
                },
                {
                    "name": "C4",
                    "midi": 60,
                    "time": 55.955716000000095,
                    "velocity": 0.25196850393700787,
                    "duration": 0.09799600000000197
                },
                {
                    "name": "F3",
                    "midi": 53,
                    "time": 56.0537120000001,
                    "velocity": 0.2440944881889764,
                    "duration": 0.2939880000000059
                },
                {
                    "name": "A2",
                    "midi": 45,
                    "time": 56.1517080000001,
                    "velocity": 0.2755905511811024,
                    "duration": 0.09799600000000197
                },
                {
                    "name": "D#4",
                    "midi": 63,
                    "time": 56.2497040000001,
                    "velocity": 0.2283464566929134,
                    "duration": 0.09799600000000197
                },
                {
                    "name": "F#3",
                    "midi": 54,
                    "time": 56.3477000000001,
                    "velocity": 0.2204724409448819,
                    "duration": 0.2939880000000059
                },
                {
                    "name": "A#2",
                    "midi": 46,
                    "time": 56.445696000000105,
                    "velocity": 0.29133858267716534,
                    "duration": 0.09799600000000197
                },
                {
                    "name": "D#4",
                    "midi": 63,
                    "time": 56.54369200000011,
                    "velocity": 0.23622047244094488,
                    "duration": 0.09799600000000197
                },
                {
                    "name": "F#3",
                    "midi": 54,
                    "time": 56.64168800000011,
                    "velocity": 0.23622047244094488,
                    "duration": 0.09799600000000197
                },
                {
                    "name": "A#2",
                    "midi": 46,
                    "time": 56.73968400000011,
                    "velocity": 0.2677165354330709,
                    "duration": 0.09799600000000197
                },
                {
                    "name": "D#4",
                    "midi": 63,
                    "time": 56.83768000000011,
                    "velocity": 0.2204724409448819,
                    "duration": 0.09799600000000197
                },
                {
                    "name": "G3",
                    "midi": 55,
                    "time": 56.935676000000115,
                    "velocity": 0.2204724409448819,
                    "duration": 0.09799600000000197
                },
                {
                    "name": "A#1",
                    "midi": 34,
                    "time": 57.03367200000012,
                    "velocity": 0.25196850393700787,
                    "duration": 0.09799599999999486
                },
                {
                    "name": "G#3",
                    "midi": 56,
                    "time": 57.13166800000011,
                    "velocity": 0.2125984251968504,
                    "duration": 0.09799600000000197
                },
                {
                    "name": "A#2",
                    "midi": 46,
                    "time": 57.22966400000011,
                    "velocity": 0.2047244094488189,
                    "duration": 0.09799600000000197
                },
                {
                    "name": "D#2",
                    "midi": 39,
                    "time": 57.327660000000115,
                    "velocity": 0.25196850393700787,
                    "duration": 0.09799599999999486
                },
                {
                    "name": "G3",
                    "midi": 55,
                    "time": 57.42565600000011,
                    "velocity": 0.2125984251968504,
                    "duration": 0.09799600000000197
                },
                {
                    "name": "A#2",
                    "midi": 46,
                    "time": 57.52365200000011,
                    "velocity": 0.2125984251968504,
                    "duration": 0.09799600000000197
                },
                {
                    "name": "D#2",
                    "midi": 39,
                    "time": 57.621648000000114,
                    "velocity": 0.3543307086614173,
                    "duration": 0.09799600000000197
                },
                {
                    "name": "A#3",
                    "midi": 58,
                    "time": 57.719644000000116,
                    "velocity": 0.2125984251968504,
                    "duration": 0.09799600000000197
                },
                {
                    "name": "A#2",
                    "midi": 46,
                    "time": 57.81764000000012,
                    "velocity": 0.2283464566929134,
                    "duration": 0.09799600000000197
                },
                {
                    "name": "D#2",
                    "midi": 39,
                    "time": 57.91563600000012,
                    "velocity": 0.30708661417322836,
                    "duration": 0.09799600000000197
                },
                {
                    "name": "G3",
                    "midi": 55,
                    "time": 58.01363200000012,
                    "velocity": 0.2204724409448819,
                    "duration": 0.09799600000000197
                },
                {
                    "name": "A#2",
                    "midi": 46,
                    "time": 58.111628000000124,
                    "velocity": 0.2204724409448819,
                    "duration": 0.09799600000000197
                },
                {
                    "name": "D#2",
                    "midi": 39,
                    "time": 58.209624000000126,
                    "velocity": 0.3779527559055118,
                    "duration": 0.09799599999999486
                },
                {
                    "name": "A#3",
                    "midi": 58,
                    "time": 58.30762000000012,
                    "velocity": 0.2440944881889764,
                    "duration": 0.09799600000000197
                },
                {
                    "name": "A#2",
                    "midi": 46,
                    "time": 58.40561600000012,
                    "velocity": 0.2440944881889764,
                    "duration": 0.09799600000000197
                },
                {
                    "name": "D#2",
                    "midi": 39,
                    "time": 58.503612000000125,
                    "velocity": 0.33858267716535434,
                    "duration": 0.09799600000000197
                },
                {
                    "name": "G3",
                    "midi": 55,
                    "time": 58.60160800000013,
                    "velocity": 0.2440944881889764,
                    "duration": 0.09799600000000197
                },
                {
                    "name": "A#2",
                    "midi": 46,
                    "time": 58.69960400000013,
                    "velocity": 0.23622047244094488,
                    "duration": 0.09799600000000197
                },
                {
                    "name": "D#2",
                    "midi": 39,
                    "time": 58.79760000000013,
                    "velocity": 0.4094488188976378,
                    "duration": 0.09799599999999486
                },
                {
                    "name": "A#3",
                    "midi": 58,
                    "time": 58.895596000000126,
                    "velocity": 0.2440944881889764,
                    "duration": 0.09799600000000197
                },
                {
                    "name": "A#2",
                    "midi": 46,
                    "time": 58.99359200000013,
                    "velocity": 0.23622047244094488,
                    "duration": 0.09799600000000197
                },
                {
                    "name": "D#2",
                    "midi": 39,
                    "time": 59.09158800000013,
                    "velocity": 0.3464566929133858,
                    "duration": 0.09799600000000197
                },
                {
                    "name": "G3",
                    "midi": 55,
                    "time": 59.18958400000013,
                    "velocity": 0.25196850393700787,
                    "duration": 0.09799600000000197
                },
                {
                    "name": "A#2",
                    "midi": 46,
                    "time": 59.28758000000013,
                    "velocity": 0.25196850393700787,
                    "duration": 0.09799600000000197
                },
                {
                    "name": "D#2",
                    "midi": 39,
                    "time": 59.385576000000135,
                    "velocity": 0.3779527559055118,
                    "duration": 0.09799599999999486
                },
                {
                    "name": "A#3",
                    "midi": 58,
                    "time": 59.48357200000013,
                    "velocity": 0.2440944881889764,
                    "duration": 0.09799600000000197
                },
                {
                    "name": "A#2",
                    "midi": 46,
                    "time": 59.58156800000013,
                    "velocity": 0.25984251968503935,
                    "duration": 0.09799600000000197
                },
                {
                    "name": "D#2",
                    "midi": 39,
                    "time": 59.679564000000134,
                    "velocity": 0.3464566929133858,
                    "duration": 0.09799600000000197
                },
                {
                    "name": "G3",
                    "midi": 55,
                    "time": 59.777560000000136,
                    "velocity": 0.2440944881889764,
                    "duration": 0.09799600000000197
                },
                {
                    "name": "A#2",
                    "midi": 46,
                    "time": 59.87555600000014,
                    "velocity": 0.28346456692913385,
                    "duration": 0.09799600000000197
                },
                {
                    "name": "D#2",
                    "midi": 39,
                    "time": 59.97355200000014,
                    "velocity": 0.4094488188976378,
                    "duration": 0.09799599999999486
                },
                {
                    "name": "A#3",
                    "midi": 58,
                    "time": 60.071548000000135,
                    "velocity": 0.2677165354330709,
                    "duration": 0.09799600000000197
                },
                {
                    "name": "A#2",
                    "midi": 46,
                    "time": 60.16954400000014,
                    "velocity": 0.25984251968503935,
                    "duration": 0.09799600000000197
                },
                {
                    "name": "D#2",
                    "midi": 39,
                    "time": 60.26754000000014,
                    "velocity": 0.33070866141732286,
                    "duration": 0.09799600000000197
                },
                {
                    "name": "G3",
                    "midi": 55,
                    "time": 60.36553600000014,
                    "velocity": 0.2283464566929134,
                    "duration": 0.09799600000000197
                },
                {
                    "name": "A#2",
                    "midi": 46,
                    "time": 60.46353200000014,
                    "velocity": 0.2283464566929134,
                    "duration": 0.09799600000000197
                },
                {
                    "name": "D#2",
                    "midi": 39,
                    "time": 60.561528000000145,
                    "velocity": 0.2992125984251969,
                    "duration": 0.09799599999999486
                },
                {
                    "name": "A#3",
                    "midi": 58,
                    "time": 60.65952400000014,
                    "velocity": 0.2283464566929134,
                    "duration": 0.09799600000000197
                },
                {
                    "name": "A#2",
                    "midi": 46,
                    "time": 60.75752000000014,
                    "velocity": 0.2125984251968504,
                    "duration": 0.09799600000000197
                },
                {
                    "name": "D#2",
                    "midi": 39,
                    "time": 60.855516000000144,
                    "velocity": 0.25984251968503935,
                    "duration": 0.2939879999999988
                },
                {
                    "name": "G4",
                    "midi": 67,
                    "time": 61.73748000000014,
                    "velocity": 0.5433070866141733,
                    "duration": 0.2939879999999988
                },
                {
                    "name": "A#4",
                    "midi": 70,
                    "time": 61.73748000000014,
                    "velocity": 0.5748031496062992,
                    "duration": 0.2939879999999988
                },
                {
                    "name": "D#5",
                    "midi": 75,
                    "time": 61.73748000000014,
                    "velocity": 0.5748031496062992,
                    "duration": 0.2939879999999988
                },
                {
                    "name": "G5",
                    "midi": 79,
                    "time": 61.73748000000014,
                    "velocity": 0.6929133858267716,
                    "duration": 0.2939879999999988
                },
                {
                    "name": "D#2",
                    "midi": 39,
                    "time": 62.619444000000136,
                    "velocity": 0.5275590551181102,
                    "duration": 0.8819640000000035
                },
                {
                    "name": "A#2",
                    "midi": 46,
                    "time": 62.619444000000136,
                    "velocity": 0.5275590551181102,
                    "duration": 0.8819640000000035
                },
                {
                    "name": "D#3",
                    "midi": 51,
                    "time": 62.619444000000136,
                    "velocity": 0.6220472440944882,
                    "duration": 0.8819640000000035
                }
            ],
            "controlChanges": {
                "7": [
                    {
                        "number": 7,
                        "time": 0,
                        "value": 0.7874015748031497
                    }
                ],
                "10": [
                    {
                        "number": 10,
                        "time": 0,
                        "value": 0.5039370078740157
                    }
                ],
                "64": [
                    {
                        "number": 64,
                        "time": 0.9211623999999999,
                        "value": 1
                    },
                    {
                        "number": 64,
                        "time": 2.651404275000001,
                        "value": 0
                    },
                    {
                        "number": 64,
                        "time": 2.680803075000001,
                        "value": 1
                    },
                    {
                        "number": 64,
                        "time": 2.9435548500000013,
                        "value": 0
                    },
                    {
                        "number": 64,
                        "time": 2.9680538500000013,
                        "value": 1
                    },
                    {
                        "number": 64,
                        "time": 3.2424426500000014,
                        "value": 0
                    },
                    {
                        "number": 64,
                        "time": 3.2828660000000016,
                        "value": 1
                    },
                    {
                        "number": 64,
                        "time": 3.532143325000002,
                        "value": 0
                    },
                    {
                        "number": 64,
                        "time": 3.571341725000002,
                        "value": 1
                    },
                    {
                        "number": 64,
                        "time": 3.8291937000000025,
                        "value": 0
                    },
                    {
                        "number": 64,
                        "time": 3.8824790250000025,
                        "value": 1
                    },
                    {
                        "number": 64,
                        "time": 4.414107325000003,
                        "value": 0
                    },
                    {
                        "number": 64,
                        "time": 4.4447310750000035,
                        "value": 1
                    },
                    {
                        "number": 64,
                        "time": 4.710545225000004,
                        "value": 0
                    },
                    {
                        "number": 64,
                        "time": 4.731981850000004,
                        "value": 1
                    },
                    {
                        "number": 64,
                        "time": 5.001470850000005,
                        "value": 0
                    },
                    {
                        "number": 64,
                        "time": 5.032707075000005,
                        "value": 1
                    },
                    {
                        "number": 64,
                        "time": 5.296071325000005,
                        "value": 0
                    },
                    {
                        "number": 64,
                        "time": 5.326082600000005,
                        "value": 1
                    },
                    {
                        "number": 64,
                        "time": 5.594959125000005,
                        "value": 0
                    },
                    {
                        "number": 64,
                        "time": 5.637832375000006,
                        "value": 1
                    },
                    {
                        "number": 64,
                        "time": 6.178035325000007,
                        "value": 0
                    },
                    {
                        "number": 64,
                        "time": 6.208659075000007,
                        "value": 1
                    },
                    {
                        "number": 64,
                        "time": 6.474473225000008,
                        "value": 0
                    },
                    {
                        "number": 64,
                        "time": 6.495909850000007,
                        "value": 1
                    },
                    {
                        "number": 64,
                        "time": 6.765398850000008,
                        "value": 0
                    },
                    {
                        "number": 64,
                        "time": 6.796635075000008,
                        "value": 1
                    },
                    {
                        "number": 64,
                        "time": 7.059999325000009,
                        "value": 0
                    },
                    {
                        "number": 64,
                        "time": 7.090010600000008,
                        "value": 1
                    },
                    {
                        "number": 64,
                        "time": 7.652875125000009,
                        "value": 0
                    },
                    {
                        "number": 64,
                        "time": 7.725759650000009,
                        "value": 1
                    },
                    {
                        "number": 64,
                        "time": 7.94870055000001,
                        "value": 0
                    },
                    {
                        "number": 64,
                        "time": 8.01117300000001,
                        "value": 1
                    },
                    {
                        "number": 64,
                        "time": 9.707116275000013,
                        "value": 0
                    },
                    {
                        "number": 64,
                        "time": 9.736515075000012,
                        "value": 1
                    },
                    {
                        "number": 64,
                        "time": 9.999266850000012,
                        "value": 0
                    },
                    {
                        "number": 64,
                        "time": 10.044590000000012,
                        "value": 1
                    },
                    {
                        "number": 64,
                        "time": 10.298154650000011,
                        "value": 0
                    },
                    {
                        "number": 64,
                        "time": 10.33857800000001,
                        "value": 1
                    },
                    {
                        "number": 64,
                        "time": 10.58785532500001,
                        "value": 0
                    },
                    {
                        "number": 64,
                        "time": 10.62705372500001,
                        "value": 1
                    },
                    {
                        "number": 64,
                        "time": 10.884905700000012,
                        "value": 0
                    },
                    {
                        "number": 64,
                        "time": 10.93819102500001,
                        "value": 1
                    },
                    {
                        "number": 64,
                        "time": 11.469819325000012,
                        "value": 0
                    },
                    {
                        "number": 64,
                        "time": 11.500443075000012,
                        "value": 1
                    },
                    {
                        "number": 64,
                        "time": 11.766257225000013,
                        "value": 0
                    },
                    {
                        "number": 64,
                        "time": 11.798105925000012,
                        "value": 1
                    },
                    {
                        "number": 64,
                        "time": 12.057182850000013,
                        "value": 0
                    },
                    {
                        "number": 64,
                        "time": 12.088419075000013,
                        "value": 1
                    },
                    {
                        "number": 64,
                        "time": 12.351783325000014,
                        "value": 0
                    },
                    {
                        "number": 64,
                        "time": 12.382407075000014,
                        "value": 1
                    },
                    {
                        "number": 64,
                        "time": 12.648221225000015,
                        "value": 0
                    },
                    {
                        "number": 64,
                        "time": 12.687419625000015,
                        "value": 1
                    },
                    {
                        "number": 64,
                        "time": 12.939146850000014,
                        "value": 0
                    },
                    {
                        "number": 64,
                        "time": 12.970383075000015,
                        "value": 1
                    },
                    {
                        "number": 64,
                        "time": 13.233747325000015,
                        "value": 0
                    },
                    {
                        "number": 64,
                        "time": 13.264371075000016,
                        "value": 1
                    },
                    {
                        "number": 64,
                        "time": 13.821110850000016,
                        "value": 0
                    },
                    {
                        "number": 64,
                        "time": 13.852347075000017,
                        "value": 1
                    },
                    {
                        "number": 64,
                        "time": 14.115098850000017,
                        "value": 0
                    },
                    {
                        "number": 64,
                        "time": 14.145722600000017,
                        "value": 1
                    },
                    {
                        "number": 64,
                        "time": 14.415211600000017,
                        "value": 0
                    },
                    {
                        "number": 64,
                        "time": 14.457472375000018,
                        "value": 1
                    },
                    {
                        "number": 64,
                        "time": 14.708587125000019,
                        "value": 0
                    },
                    {
                        "number": 64,
                        "time": 14.781471650000018,
                        "value": 1
                    },
                    {
                        "number": 64,
                        "time": 14.997675325000019,
                        "value": 0
                    },
                    {
                        "number": 64,
                        "time": 15.02829907500002,
                        "value": 1
                    },
                    {
                        "number": 64,
                        "time": 15.58503885000002,
                        "value": 0
                    },
                    {
                        "number": 64,
                        "time": 15.61627507500002,
                        "value": 1
                    },
                    {
                        "number": 64,
                        "time": 15.87963932500002,
                        "value": 0
                    },
                    {
                        "number": 64,
                        "time": 15.90965060000002,
                        "value": 1
                    },
                    {
                        "number": 64,
                        "time": 16.472515125000015,
                        "value": 0
                    },
                    {
                        "number": 64,
                        "time": 16.519063225000014,
                        "value": 1
                    },
                    {
                        "number": 64,
                        "time": 16.76160332500001,
                        "value": 0
                    },
                    {
                        "number": 64,
                        "time": 16.80080172500001,
                        "value": 1
                    },
                    {
                        "number": 64,
                        "time": 17.644179799999996,
                        "value": 0
                    },
                    {
                        "number": 64,
                        "time": 17.673578599999995,
                        "value": 1
                    },
                    {
                        "number": 64,
                        "time": 18.52553132499998,
                        "value": 0
                    },
                    {
                        "number": 64,
                        "time": 18.55615507499998,
                        "value": 1
                    },
                    {
                        "number": 64,
                        "time": 19.407495324999967,
                        "value": 0
                    },
                    {
                        "number": 64,
                        "time": 19.438119074999967,
                        "value": 1
                    },
                    {
                        "number": 64,
                        "time": 19.70393322499996,
                        "value": 0
                    },
                    {
                        "number": 64,
                        "time": 19.74619399999996,
                        "value": 1
                    },
                    {
                        "number": 64,
                        "time": 19.994858849999957,
                        "value": 0
                    },
                    {
                        "number": 64,
                        "time": 20.026095074999958,
                        "value": 1
                    },
                    {
                        "number": 64,
                        "time": 20.289459324999953,
                        "value": 0
                    },
                    {
                        "number": 64,
                        "time": 20.320083074999953,
                        "value": 1
                    },
                    {
                        "number": 64,
                        "time": 20.585897224999947,
                        "value": 0
                    },
                    {
                        "number": 64,
                        "time": 20.628157999999946,
                        "value": 1
                    },
                    {
                        "number": 64,
                        "time": 20.876822849999943,
                        "value": 0
                    },
                    {
                        "number": 64,
                        "time": 20.908059074999944,
                        "value": 1
                    },
                    {
                        "number": 64,
                        "time": 21.17142332499994,
                        "value": 0
                    },
                    {
                        "number": 64,
                        "time": 21.20143459999994,
                        "value": 1
                    },
                    {
                        "number": 64,
                        "time": 21.470311124999935,
                        "value": 0
                    },
                    {
                        "number": 64,
                        "time": 21.517471699999934,
                        "value": 1
                    },
                    {
                        "number": 64,
                        "time": 21.76429912499993,
                        "value": 0
                    },
                    {
                        "number": 64,
                        "time": 21.80410999999993,
                        "value": 1
                    },
                    {
                        "number": 64,
                        "time": 22.053387324999928,
                        "value": 0
                    },
                    {
                        "number": 64,
                        "time": 22.08401107499993,
                        "value": 1
                    },
                    {
                        "number": 64,
                        "time": 22.640750849999918,
                        "value": 0
                    },
                    {
                        "number": 64,
                        "time": 22.67198707499992,
                        "value": 1
                    },
                    {
                        "number": 64,
                        "time": 22.935963799999914,
                        "value": 0
                    },
                    {
                        "number": 64,
                        "time": 22.965362599999914,
                        "value": 1
                    },
                    {
                        "number": 64,
                        "time": 23.528227124999905,
                        "value": 0
                    },
                    {
                        "number": 64,
                        "time": 23.561300774999903,
                        "value": 1
                    },
                    {
                        "number": 64,
                        "time": 23.8173153249999,
                        "value": 0
                    },
                    {
                        "number": 64,
                        "time": 23.8571261999999,
                        "value": 1
                    },
                    {
                        "number": 64,
                        "time": 24.404678849999893,
                        "value": 0
                    },
                    {
                        "number": 64,
                        "time": 24.435915074999894,
                        "value": 1
                    },
                    {
                        "number": 64,
                        "time": 24.69866684999989,
                        "value": 0
                    },
                    {
                        "number": 64,
                        "time": 24.73419039999989,
                        "value": 1
                    },
                    {
                        "number": 64,
                        "time": 25.29215512499988,
                        "value": 0
                    },
                    {
                        "number": 64,
                        "time": 25.33564084999988,
                        "value": 1
                    },
                    {
                        "number": 64,
                        "time": 25.58124332499988,
                        "value": 0
                    },
                    {
                        "number": 64,
                        "time": 25.61186707499988,
                        "value": 1
                    },
                    {
                        "number": 64,
                        "time": 26.16860684999987,
                        "value": 0
                    },
                    {
                        "number": 64,
                        "time": 26.19984307499987,
                        "value": 1
                    },
                    {
                        "number": 64,
                        "time": 26.759645224999858,
                        "value": 0
                    },
                    {
                        "number": 64,
                        "time": 26.801905999999857,
                        "value": 1
                    },
                    {
                        "number": 64,
                        "time": 27.34517132499985,
                        "value": 0
                    },
                    {
                        "number": 64,
                        "time": 27.37579507499985,
                        "value": 1
                    },
                    {
                        "number": 64,
                        "time": 27.93253484999984,
                        "value": 0
                    },
                    {
                        "number": 64,
                        "time": 27.96377107499984,
                        "value": 1
                    },
                    {
                        "number": 64,
                        "time": 28.52602312499983,
                        "value": 0
                    },
                    {
                        "number": 64,
                        "time": 28.56889637499983,
                        "value": 1
                    },
                    {
                        "number": 64,
                        "time": 28.820011124999827,
                        "value": 0
                    },
                    {
                        "number": 64,
                        "time": 28.892895649999826,
                        "value": 1
                    },
                    {
                        "number": 64,
                        "time": 28.967617599999826,
                        "value": 0
                    },
                    {
                        "number": 64,
                        "time": 29.144010399999825,
                        "value": 1
                    },
                    {
                        "number": 64,
                        "time": 30.873639799999797,
                        "value": 0
                    },
                    {
                        "number": 64,
                        "time": 30.903651074999797,
                        "value": 1
                    },
                    {
                        "number": 64,
                        "time": 31.16640284999979,
                        "value": 0
                    },
                    {
                        "number": 64,
                        "time": 31.19090184999979,
                        "value": 1
                    },
                    {
                        "number": 64,
                        "time": 31.465290649999787,
                        "value": 0
                    },
                    {
                        "number": 64,
                        "time": 31.505713999999788,
                        "value": 1
                    },
                    {
                        "number": 64,
                        "time": 31.754991324999786,
                        "value": 0
                    },
                    {
                        "number": 64,
                        "time": 31.794189724999786,
                        "value": 1
                    },
                    {
                        "number": 64,
                        "time": 32.05204169999978,
                        "value": 0
                    },
                    {
                        "number": 64,
                        "time": 32.10532702499978,
                        "value": 1
                    },
                    {
                        "number": 64,
                        "time": 32.63695532499979,
                        "value": 0
                    },
                    {
                        "number": 64,
                        "time": 32.667579074999786,
                        "value": 1
                    },
                    {
                        "number": 64,
                        "time": 32.93339322499979,
                        "value": 0
                    },
                    {
                        "number": 64,
                        "time": 32.97932884999979,
                        "value": 1
                    },
                    {
                        "number": 64,
                        "time": 33.2243188499998,
                        "value": 0
                    },
                    {
                        "number": 64,
                        "time": 33.2555550749998,
                        "value": 1
                    },
                    {
                        "number": 64,
                        "time": 33.5170818999998,
                        "value": 0
                    },
                    {
                        "number": 64,
                        "time": 33.5489305999998,
                        "value": 1
                    },
                    {
                        "number": 64,
                        "time": 33.8178071249998,
                        "value": 0
                    },
                    {
                        "number": 64,
                        "time": 33.8606803749998,
                        "value": 1
                    },
                    {
                        "number": 64,
                        "time": 34.40088332499981,
                        "value": 0
                    },
                    {
                        "number": 64,
                        "time": 34.43150707499981,
                        "value": 1
                    },
                    {
                        "number": 64,
                        "time": 34.69732122499981,
                        "value": 0
                    },
                    {
                        "number": 64,
                        "time": 34.72916992499981,
                        "value": 1
                    },
                    {
                        "number": 64,
                        "time": 34.98824684999982,
                        "value": 0
                    },
                    {
                        "number": 64,
                        "time": 35.01948307499982,
                        "value": 1
                    },
                    {
                        "number": 64,
                        "time": 35.28407227499982,
                        "value": 0
                    },
                    {
                        "number": 64,
                        "time": 35.326333049999825,
                        "value": 1
                    },
                    {
                        "number": 64,
                        "time": 35.581735124999824,
                        "value": 0
                    },
                    {
                        "number": 64,
                        "time": 35.62460837499982,
                        "value": 1
                    },
                    {
                        "number": 64,
                        "time": 36.16971112499983,
                        "value": 0
                    },
                    {
                        "number": 64,
                        "time": 36.21687169999983,
                        "value": 1
                    },
                    {
                        "number": 64,
                        "time": 37.92690189999986,
                        "value": 0
                    },
                    {
                        "number": 64,
                        "time": 37.959363074999864,
                        "value": 1
                    },
                    {
                        "number": 64,
                        "time": 38.22211484999987,
                        "value": 0
                    },
                    {
                        "number": 64,
                        "time": 38.24661384999987,
                        "value": 1
                    },
                    {
                        "number": 64,
                        "time": 38.52100264999987,
                        "value": 0
                    },
                    {
                        "number": 64,
                        "time": 38.56142599999987,
                        "value": 1
                    },
                    {
                        "number": 64,
                        "time": 38.81070332499987,
                        "value": 0
                    },
                    {
                        "number": 64,
                        "time": 38.83091499999987,
                        "value": 1
                    },
                    {
                        "number": 64,
                        "time": 39.107753699999876,
                        "value": 0
                    },
                    {
                        "number": 64,
                        "time": 39.16103902499987,
                        "value": 1
                    },
                    {
                        "number": 64,
                        "time": 39.39929179999987,
                        "value": 0
                    },
                    {
                        "number": 64,
                        "time": 39.440327624999874,
                        "value": 1
                    },
                    {
                        "number": 64,
                        "time": 39.69389227499988,
                        "value": 0
                    },
                    {
                        "number": 64,
                        "time": 39.72941582499988,
                        "value": 1
                    },
                    {
                        "number": 64,
                        "time": 40.5746313249999,
                        "value": 0
                    },
                    {
                        "number": 64,
                        "time": 40.605255074999896,
                        "value": 1
                    },
                    {
                        "number": 64,
                        "time": 42.33855932499993,
                        "value": 0
                    },
                    {
                        "number": 64,
                        "time": 42.377757724999924,
                        "value": 1
                    },
                    {
                        "number": 64,
                        "time": 42.63499722499993,
                        "value": 0
                    },
                    {
                        "number": 64,
                        "time": 42.68032037499993,
                        "value": 1
                    },
                    {
                        "number": 64,
                        "time": 42.925922849999935,
                        "value": 0
                    },
                    {
                        "number": 64,
                        "time": 42.978595699999936,
                        "value": 1
                    },
                    {
                        "number": 64,
                        "time": 43.21991084999994,
                        "value": 0
                    },
                    {
                        "number": 64,
                        "time": 43.25849677499994,
                        "value": 1
                    },
                    {
                        "number": 64,
                        "time": 44.10309979999995,
                        "value": 0
                    },
                    {
                        "number": 64,
                        "time": 44.13311107499995,
                        "value": 1
                    },
                    {
                        "number": 64,
                        "time": 44.98445132499997,
                        "value": 0
                    },
                    {
                        "number": 64,
                        "time": 45.02364972499996,
                        "value": 1
                    },
                    {
                        "number": 64,
                        "time": 45.86641532499998,
                        "value": 0
                    },
                    {
                        "number": 64,
                        "time": 45.897039074999974,
                        "value": 1
                    },
                    {
                        "number": 64,
                        "time": 46.75266664999999,
                        "value": 0
                    },
                    {
                        "number": 64,
                        "time": 46.783290399999984,
                        "value": 1
                    },
                    {
                        "number": 64,
                        "time": 47.626056,
                        "value": 0
                    },
                    {
                        "number": 64,
                        "time": 47.660967074999995,
                        "value": 1
                    },
                    {
                        "number": 64,
                        "time": 48.22260665,
                        "value": 0
                    },
                    {
                        "number": 64,
                        "time": 48.26303,
                        "value": 1
                    },
                    {
                        "number": 64,
                        "time": 48.511694850000005,
                        "value": 0
                    },
                    {
                        "number": 64,
                        "time": 48.542931075000006,
                        "value": 1
                    },
                    {
                        "number": 64,
                        "time": 48.80568285000001,
                        "value": 0
                    },
                    {
                        "number": 64,
                        "time": 48.83018185000001,
                        "value": 1
                    },
                    {
                        "number": 64,
                        "time": 49.10089580000001,
                        "value": 0
                    },
                    {
                        "number": 64,
                        "time": 49.12416985000001,
                        "value": 1
                    },
                    {
                        "number": 64,
                        "time": 49.39427132500001,
                        "value": 0
                    },
                    {
                        "number": 64,
                        "time": 49.442044375000016,
                        "value": 1
                    },
                    {
                        "number": 64,
                        "time": 49.986534650000024,
                        "value": 0
                    },
                    {
                        "number": 64,
                        "time": 50.02695800000002,
                        "value": 1
                    },
                    {
                        "number": 64,
                        "time": 50.277460275000024,
                        "value": 0
                    },
                    {
                        "number": 64,
                        "time": 50.324620850000024,
                        "value": 1
                    },
                    {
                        "number": 64,
                        "time": 51.157586850000044,
                        "value": 0
                    },
                    {
                        "number": 64,
                        "time": 51.188823075000045,
                        "value": 1
                    },
                    {
                        "number": 64,
                        "time": 52.03893837500006,
                        "value": 0
                    },
                    {
                        "number": 64,
                        "time": 52.083649050000055,
                        "value": 1
                    },
                    {
                        "number": 64,
                        "time": 52.922739800000066,
                        "value": 0
                    },
                    {
                        "number": 64,
                        "time": 52.952751075000066,
                        "value": 1
                    },
                    {
                        "number": 64,
                        "time": 53.80470380000008,
                        "value": 0
                    },
                    {
                        "number": 64,
                        "time": 53.847577050000076,
                        "value": 1
                    },
                    {
                        "number": 64,
                        "time": 54.68605532500009,
                        "value": 0
                    },
                    {
                        "number": 64,
                        "time": 54.71667907500009,
                        "value": 1
                    },
                    {
                        "number": 64,
                        "time": 55.278318650000095,
                        "value": 0
                    },
                    {
                        "number": 64,
                        "time": 55.31874200000009,
                        "value": 1
                    },
                    {
                        "number": 64,
                        "time": 55.56985675000009,
                        "value": 0
                    },
                    {
                        "number": 64,
                        "time": 55.59864307500009,
                        "value": 1
                    },
                    {
                        "number": 64,
                        "time": 55.861394850000096,
                        "value": 0
                    },
                    {
                        "number": 64,
                        "time": 55.898755825000094,
                        "value": 1
                    },
                    {
                        "number": 64,
                        "time": 56.451208275000106,
                        "value": 0
                    },
                    {
                        "number": 64,
                        "time": 56.48060707500011,
                        "value": 1
                    },
                    {
                        "number": 64,
                        "time": 57.042246650000116,
                        "value": 0
                    },
                    {
                        "number": 64,
                        "time": 57.082670000000114,
                        "value": 1
                    },
                    {
                        "number": 64,
                        "time": 57.331947325000115,
                        "value": 0
                    },
                    {
                        "number": 64,
                        "time": 57.37114572500011,
                        "value": 1
                    },
                    {
                        "number": 64,
                        "time": 58.213911325000126,
                        "value": 0
                    },
                    {
                        "number": 64,
                        "time": 58.24453507500012,
                        "value": 1
                    },
                    {
                        "number": 64,
                        "time": 58.80617465000013,
                        "value": 0
                    },
                    {
                        "number": 64,
                        "time": 58.84659800000013,
                        "value": 1
                    },
                    {
                        "number": 64,
                        "time": 59.39476312500013,
                        "value": 0
                    },
                    {
                        "number": 64,
                        "time": 59.43334905000013,
                        "value": 1
                    },
                    {
                        "number": 64,
                        "time": 59.97845180000014,
                        "value": 0
                    },
                    {
                        "number": 64,
                        "time": 60.00846307500014,
                        "value": 1
                    },
                    {
                        "number": 64,
                        "time": 60.570102650000145,
                        "value": 0
                    },
                    {
                        "number": 64,
                        "time": 60.61052600000014,
                        "value": 1
                    },
                    {
                        "number": 64,
                        "time": 64.04038600000014,
                        "value": 0
                    }
                ]
            },
            "id": 2,
            "name": "Piano left",
            "instrumentNumber": 0,
            "instrument": "acoustic grand piano",
            "instrumentFamily": "piano",
            "channelNumber": 0,
            "isPercussion": false
        },
        {
            "startTime": 0,
            "duration": 0,
            "length": 0,
            "notes": [],
            "controlChanges": {},
            "id": 3,
            "name": "Chopin: Prelude No.19 in Eb Major Op. 28"
        },
        {
            "startTime": 0,
            "duration": 0,
            "length": 0,
            "notes": [],
            "controlChanges": {},
            "id": 4,
            "name": "Copyright  2002 by Bernd Krueger"
        },
        {
            "startTime": 0,
            "duration": 0,
            "length": 0,
            "notes": [],
            "controlChanges": {},
            "id": 5,
            "name": "http://www.piano-midi.de"
        },
        {
            "startTime": 0,
            "duration": 0,
            "length": 0,
            "notes": [],
            "controlChanges": {},
            "id": 6,
            "name": "Edition: 2014-02-22"
        },
        {
            "startTime": 0,
            "duration": 0,
            "length": 0,
            "notes": [],
            "controlChanges": {},
            "id": 7,
            "name": "Spur 7"
        }
    ]
}