{
    "header": {
        "PPQ": 480,
        "timeSignature": [
            3,
            4
        ],
        "bpm": 109.99990833340972,
        "name": "Chopin Polonaise in Ab major Opus 53"
    },
    "startTime": 0,
    "duration": 297.272974999992,
    "tracks": [
        {
            "startTime": 0,
            "duration": 0,
            "length": 0,
            "notes": [],
            "controlChanges": {},
            "id": 0,
            "name": "Chopin Polonaise in Ab major Opus 53"
        },
        {
            "startTime": 0,
            "duration": 297.272974999992,
            "length": 3036,
            "notes": [
                {
                    "name": "D#3",
                    "midi": 51,
                    "time": 0,
                    "velocity": 0.5826771653543307,
                    "duration": 0.545455
                },
                {
                    "name": "D#4",
                    "midi": 63,
                    "time": 0,
                    "velocity": 0.6929133858267716,
                    "duration": 0.545455
                },
                {
                    "name": "A#3",
                    "midi": 58,
                    "time": 1.636365,
                    "velocity": 0.44881889763779526,
                    "duration": 0.13636375000000012
                },
                {
                    "name": "D#4",
                    "midi": 63,
                    "time": 1.636365,
                    "velocity": 0.5354330708661418,
                    "duration": 0.13636375000000012
                },
                {
                    "name": "G3",
                    "midi": 55,
                    "time": 2.18182,
                    "velocity": 0.4015748031496063,
                    "duration": 0.13636375000000012
                },
                {
                    "name": "A#3",
                    "midi": 58,
                    "time": 2.18182,
                    "velocity": 0.48031496062992124,
                    "duration": 0.13636375000000012
                },
                {
                    "name": "G#3",
                    "midi": 56,
                    "time": 2.727275,
                    "velocity": 0.2440944881889764,
                    "duration": 0.545455
                },
                {
                    "name": "E4",
                    "midi": 64,
                    "time": 2.727275,
                    "velocity": 0.2440944881889764,
                    "duration": 0.545455
                },
                {
                    "name": "G#4",
                    "midi": 68,
                    "time": 2.727275,
                    "velocity": 0.29133858267716534,
                    "duration": 0.545455
                },
                {
                    "name": "G3",
                    "midi": 55,
                    "time": 3.27273,
                    "velocity": 0.2204724409448819,
                    "duration": 0.27272750000000023
                },
                {
                    "name": "D#4",
                    "midi": 63,
                    "time": 3.27273,
                    "velocity": 0.2204724409448819,
                    "duration": 0.27272750000000023
                },
                {
                    "name": "G4",
                    "midi": 67,
                    "time": 3.27273,
                    "velocity": 0.25196850393700787,
                    "duration": 0.27272750000000023
                },
                {
                    "name": "B3",
                    "midi": 59,
                    "time": 6.54546,
                    "velocity": 0.5826771653543307,
                    "duration": 0.5454550000000005
                },
                {
                    "name": "G#3",
                    "midi": 56,
                    "time": 6.54546,
                    "velocity": 0.5826771653543307,
                    "duration": 0.5454550000000005
                },
                {
                    "name": "E3",
                    "midi": 52,
                    "time": 6.54546,
                    "velocity": 0.5826771653543307,
                    "duration": 0.5454550000000005
                },
                {
                    "name": "E4",
                    "midi": 64,
                    "time": 6.54546,
                    "velocity": 0.6929133858267716,
                    "duration": 0.5454550000000005
                },
                {
                    "name": "B3",
                    "midi": 59,
                    "time": 8.181825,
                    "velocity": 0.44881889763779526,
                    "duration": 0.13636374999999923
                },
                {
                    "name": "E4",
                    "midi": 64,
                    "time": 8.181825,
                    "velocity": 0.5354330708661418,
                    "duration": 0.13636374999999923
                },
                {
                    "name": "E3",
                    "midi": 52,
                    "time": 8.727279999999999,
                    "velocity": 0.3543307086614173,
                    "duration": 0.13636374999999923
                },
                {
                    "name": "G#3",
                    "midi": 56,
                    "time": 8.727279999999999,
                    "velocity": 0.3543307086614173,
                    "duration": 0.13636374999999923
                },
                {
                    "name": "B3",
                    "midi": 59,
                    "time": 8.727279999999999,
                    "velocity": 0.4251968503937008,
                    "duration": 0.13636374999999923
                },
                {
                    "name": "C#4",
                    "midi": 61,
                    "time": 9.272734999999997,
                    "velocity": 0.2440944881889764,
                    "duration": 0.5454550000000005
                },
                {
                    "name": "A#4",
                    "midi": 70,
                    "time": 9.272734999999997,
                    "velocity": 0.2440944881889764,
                    "duration": 0.5454550000000005
                },
                {
                    "name": "C#5",
                    "midi": 73,
                    "time": 9.272734999999997,
                    "velocity": 0.29133858267716534,
                    "duration": 0.5454550000000005
                },
                {
                    "name": "G#4",
                    "midi": 68,
                    "time": 9.818189999999998,
                    "velocity": 0.2204724409448819,
                    "duration": 0.27272750000000023
                },
                {
                    "name": "B4",
                    "midi": 71,
                    "time": 9.818189999999998,
                    "velocity": 0.25196850393700787,
                    "duration": 0.27272750000000023
                },
                {
                    "name": "C4",
                    "midi": 60,
                    "time": 13.090919999999997,
                    "velocity": 0.5826771653543307,
                    "duration": 0.5454550000000005
                },
                {
                    "name": "A3",
                    "midi": 57,
                    "time": 13.090919999999997,
                    "velocity": 0.5826771653543307,
                    "duration": 0.5454550000000005
                },
                {
                    "name": "F3",
                    "midi": 53,
                    "time": 13.090919999999997,
                    "velocity": 0.5826771653543307,
                    "duration": 0.5454550000000005
                },
                {
                    "name": "F4",
                    "midi": 65,
                    "time": 13.090919999999997,
                    "velocity": 0.6929133858267716,
                    "duration": 0.5454550000000005
                },
                {
                    "name": "A3",
                    "midi": 57,
                    "time": 13.909102499999998,
                    "velocity": 0.3543307086614173,
                    "duration": 0.13636374999999923
                },
                {
                    "name": "D4",
                    "midi": 62,
                    "time": 13.909102499999998,
                    "velocity": 0.41732283464566927,
                    "duration": 0.13636374999999923
                },
                {
                    "name": "A#3",
                    "midi": 58,
                    "time": 14.045466249999997,
                    "velocity": 0.3700787401574803,
                    "duration": 0.13636374999999923
                },
                {
                    "name": "D#4",
                    "midi": 63,
                    "time": 14.045466249999997,
                    "velocity": 0.4409448818897638,
                    "duration": 0.13636374999999923
                },
                {
                    "name": "B3",
                    "midi": 59,
                    "time": 14.181829999999996,
                    "velocity": 0.3937007874015748,
                    "duration": 0.13636374999999923
                },
                {
                    "name": "E4",
                    "midi": 64,
                    "time": 14.181829999999996,
                    "velocity": 0.4645669291338583,
                    "duration": 0.13636374999999923
                },
                {
                    "name": "C4",
                    "midi": 60,
                    "time": 14.318193749999995,
                    "velocity": 0.4094488188976378,
                    "duration": 0.13636374999999923
                },
                {
                    "name": "F4",
                    "midi": 65,
                    "time": 14.318193749999995,
                    "velocity": 0.4645669291338583,
                    "duration": 0.13636374999999923
                },
                {
                    "name": "C#4",
                    "midi": 61,
                    "time": 14.454557499999995,
                    "velocity": 0.4330708661417323,
                    "duration": 0.13636374999999923
                },
                {
                    "name": "G4",
                    "midi": 67,
                    "time": 14.454557499999995,
                    "velocity": 0.5118110236220472,
                    "duration": 0.13636374999999923
                },
                {
                    "name": "D4",
                    "midi": 62,
                    "time": 14.590921249999994,
                    "velocity": 0.5354330708661418,
                    "duration": 0.13636374999999923
                },
                {
                    "name": "G#4",
                    "midi": 68,
                    "time": 14.590921249999994,
                    "velocity": 0.5354330708661418,
                    "duration": 0.13636374999999923
                },
                {
                    "name": "D#4",
                    "midi": 63,
                    "time": 14.727284999999993,
                    "velocity": 0.5039370078740157,
                    "duration": 0.13636374999999923
                },
                {
                    "name": "A4",
                    "midi": 69,
                    "time": 14.727284999999993,
                    "velocity": 0.5984251968503937,
                    "duration": 0.13636374999999923
                },
                {
                    "name": "A3",
                    "midi": 57,
                    "time": 15.272739999999992,
                    "velocity": 0.4881889763779528,
                    "duration": 0.13636374999999923
                },
                {
                    "name": "F3",
                    "midi": 53,
                    "time": 15.272739999999992,
                    "velocity": 0.4881889763779528,
                    "duration": 0.13636374999999923
                },
                {
                    "name": "C4",
                    "midi": 60,
                    "time": 15.272739999999992,
                    "velocity": 0.4881889763779528,
                    "duration": 0.13636374999999923
                },
                {
                    "name": "F4",
                    "midi": 65,
                    "time": 15.272739999999992,
                    "velocity": 0.5826771653543307,
                    "duration": 0.13636374999999923
                },
                {
                    "name": "C4",
                    "midi": 60,
                    "time": 15.81819499999999,
                    "velocity": 0.5196850393700787,
                    "duration": 0.5454549999999987
                },
                {
                    "name": "F4",
                    "midi": 65,
                    "time": 15.81819499999999,
                    "velocity": 0.5196850393700787,
                    "duration": 0.5454549999999987
                },
                {
                    "name": "C5",
                    "midi": 72,
                    "time": 15.81819499999999,
                    "velocity": 0.6141732283464567,
                    "duration": 0.5454549999999987
                },
                {
                    "name": "G#3",
                    "midi": 56,
                    "time": 16.36364999999999,
                    "velocity": 0.4881889763779528,
                    "duration": 0.27272749999999846
                },
                {
                    "name": "A#3",
                    "midi": 58,
                    "time": 16.36364999999999,
                    "velocity": 0.4881889763779528,
                    "duration": 0.27272749999999846
                },
                {
                    "name": "D4",
                    "midi": 62,
                    "time": 16.36364999999999,
                    "velocity": 0.4881889763779528,
                    "duration": 0.27272749999999846
                },
                {
                    "name": "F4",
                    "midi": 65,
                    "time": 16.36364999999999,
                    "velocity": 0.4881889763779528,
                    "duration": 0.27272749999999846
                },
                {
                    "name": "A#4",
                    "midi": 70,
                    "time": 16.36364999999999,
                    "velocity": 0.5748031496062992,
                    "duration": 0.27272749999999846
                },
                {
                    "name": "B3",
                    "midi": 59,
                    "time": 17.181832499999988,
                    "velocity": 0.3858267716535433,
                    "duration": 0.136363750000001
                },
                {
                    "name": "E4",
                    "midi": 64,
                    "time": 17.181832499999988,
                    "velocity": 0.4566929133858268,
                    "duration": 0.136363750000001
                },
                {
                    "name": "C4",
                    "midi": 60,
                    "time": 17.31819624999999,
                    "velocity": 0.4015748031496063,
                    "duration": 0.136363750000001
                },
                {
                    "name": "F4",
                    "midi": 65,
                    "time": 17.31819624999999,
                    "velocity": 0.48031496062992124,
                    "duration": 0.136363750000001
                },
                {
                    "name": "C#4",
                    "midi": 61,
                    "time": 17.45455999999999,
                    "velocity": 0.4330708661417323,
                    "duration": 0.136363750000001
                },
                {
                    "name": "F#4",
                    "midi": 66,
                    "time": 17.45455999999999,
                    "velocity": 0.5039370078740157,
                    "duration": 0.136363750000001
                },
                {
                    "name": "D4",
                    "midi": 62,
                    "time": 17.59092374999999,
                    "velocity": 0.44881889763779526,
                    "duration": 0.136363750000001
                },
                {
                    "name": "G4",
                    "midi": 67,
                    "time": 17.59092374999999,
                    "velocity": 0.5039370078740157,
                    "duration": 0.136363750000001
                },
                {
                    "name": "D#4",
                    "midi": 63,
                    "time": 17.727287499999992,
                    "velocity": 0.47244094488188976,
                    "duration": 0.136363750000001
                },
                {
                    "name": "G#4",
                    "midi": 68,
                    "time": 17.727287499999992,
                    "velocity": 0.5590551181102362,
                    "duration": 0.136363750000001
                },
                {
                    "name": "E4",
                    "midi": 64,
                    "time": 17.863651249999993,
                    "velocity": 0.5826771653543307,
                    "duration": 0.136363750000001
                },
                {
                    "name": "A4",
                    "midi": 69,
                    "time": 17.863651249999993,
                    "velocity": 0.5826771653543307,
                    "duration": 0.136363750000001
                },
                {
                    "name": "F4",
                    "midi": 65,
                    "time": 18.000014999999994,
                    "velocity": 0.5039370078740157,
                    "duration": 0.136363750000001
                },
                {
                    "name": "A#4",
                    "midi": 70,
                    "time": 18.000014999999994,
                    "velocity": 0.5984251968503937,
                    "duration": 0.136363750000001
                },
                {
                    "name": "A#3",
                    "midi": 58,
                    "time": 18.545469999999995,
                    "velocity": 0.49606299212598426,
                    "duration": 0.136363750000001
                },
                {
                    "name": "F3",
                    "midi": 53,
                    "time": 18.545469999999995,
                    "velocity": 0.49606299212598426,
                    "duration": 0.136363750000001
                },
                {
                    "name": "D4",
                    "midi": 62,
                    "time": 18.545469999999995,
                    "velocity": 0.5905511811023622,
                    "duration": 0.136363750000001
                },
                {
                    "name": "F4",
                    "midi": 65,
                    "time": 18.545469999999995,
                    "velocity": 0.5905511811023622,
                    "duration": 0.136363750000001
                },
                {
                    "name": "F4",
                    "midi": 65,
                    "time": 19.090924999999995,
                    "velocity": 0.5511811023622047,
                    "duration": 0.5454550000000005
                },
                {
                    "name": "A#4",
                    "midi": 70,
                    "time": 19.090924999999995,
                    "velocity": 0.5511811023622047,
                    "duration": 0.5454550000000005
                },
                {
                    "name": "F5",
                    "midi": 77,
                    "time": 19.090924999999995,
                    "velocity": 0.6456692913385826,
                    "duration": 0.5454550000000005
                },
                {
                    "name": "C#4",
                    "midi": 61,
                    "time": 19.636379999999996,
                    "velocity": 0.5118110236220472,
                    "duration": 0.27272749999999846
                },
                {
                    "name": "D#4",
                    "midi": 63,
                    "time": 19.636379999999996,
                    "velocity": 0.5118110236220472,
                    "duration": 0.27272749999999846
                },
                {
                    "name": "G4",
                    "midi": 67,
                    "time": 19.636379999999996,
                    "velocity": 0.5118110236220472,
                    "duration": 0.27272749999999846
                },
                {
                    "name": "A#4",
                    "midi": 70,
                    "time": 19.636379999999996,
                    "velocity": 0.5118110236220472,
                    "duration": 0.27272749999999846
                },
                {
                    "name": "D#5",
                    "midi": 75,
                    "time": 19.636379999999996,
                    "velocity": 0.6062992125984252,
                    "duration": 0.27272749999999846
                },
                {
                    "name": "C#5",
                    "midi": 73,
                    "time": 20.181834999999992,
                    "velocity": 0.6062992125984252,
                    "duration": 0.136363750000001
                },
                {
                    "name": "F5",
                    "midi": 77,
                    "time": 20.181834999999992,
                    "velocity": 0.6062992125984252,
                    "duration": 0.136363750000001
                },
                {
                    "name": "G#4",
                    "midi": 68,
                    "time": 20.318198749999993,
                    "velocity": 0.5669291338582677,
                    "duration": 0.136363750000001
                },
                {
                    "name": "G4",
                    "midi": 67,
                    "time": 20.454562499999994,
                    "velocity": 0.5669291338582677,
                    "duration": 0.136363750000001
                },
                {
                    "name": "D#5",
                    "midi": 75,
                    "time": 20.590926249999995,
                    "velocity": 0.5669291338582677,
                    "duration": 0.136363750000001
                },
                {
                    "name": "C#5",
                    "midi": 73,
                    "time": 20.727289999999996,
                    "velocity": 0.6062992125984252,
                    "duration": 0.136363750000001
                },
                {
                    "name": "F5",
                    "midi": 77,
                    "time": 20.727289999999996,
                    "velocity": 0.6062992125984252,
                    "duration": 0.136363750000001
                },
                {
                    "name": "G#4",
                    "midi": 68,
                    "time": 20.863653749999997,
                    "velocity": 0.5511811023622047,
                    "duration": 0.136363750000001
                },
                {
                    "name": "G4",
                    "midi": 67,
                    "time": 21.0000175,
                    "velocity": 0.5511811023622047,
                    "duration": 0.136363750000001
                },
                {
                    "name": "D#5",
                    "midi": 75,
                    "time": 21.13638125,
                    "velocity": 0.5511811023622047,
                    "duration": 0.136363750000001
                },
                {
                    "name": "A#4",
                    "midi": 70,
                    "time": 21.272745,
                    "velocity": 0.6062992125984252,
                    "duration": 0.136363750000001
                },
                {
                    "name": "F5",
                    "midi": 77,
                    "time": 21.272745,
                    "velocity": 0.6062992125984252,
                    "duration": 0.136363750000001
                },
                {
                    "name": "G4",
                    "midi": 67,
                    "time": 21.40910875,
                    "velocity": 0.5590551181102362,
                    "duration": 0.136363750000001
                },
                {
                    "name": "D#4",
                    "midi": 63,
                    "time": 21.545472500000002,
                    "velocity": 0.5590551181102362,
                    "duration": 0.136363750000001
                },
                {
                    "name": "D#5",
                    "midi": 75,
                    "time": 21.681836250000003,
                    "velocity": 0.5590551181102362,
                    "duration": 0.136363750000001
                },
                {
                    "name": "C5",
                    "midi": 72,
                    "time": 21.818200000000004,
                    "velocity": 0.6062992125984252,
                    "duration": 0.136363750000001
                },
                {
                    "name": "F5",
                    "midi": 77,
                    "time": 21.818200000000004,
                    "velocity": 0.6062992125984252,
                    "duration": 0.136363750000001
                },
                {
                    "name": "G4",
                    "midi": 67,
                    "time": 21.954563750000005,
                    "velocity": 0.5669291338582677,
                    "duration": 0.136363750000001
                },
                {
                    "name": "D#4",
                    "midi": 63,
                    "time": 22.090927500000006,
                    "velocity": 0.5669291338582677,
                    "duration": 0.136363750000001
                },
                {
                    "name": "D#5",
                    "midi": 75,
                    "time": 22.227291250000007,
                    "velocity": 0.5669291338582677,
                    "duration": 0.136363750000001
                },
                {
                    "name": "C#5",
                    "midi": 73,
                    "time": 22.36365500000001,
                    "velocity": 0.6062992125984252,
                    "duration": 0.136363750000001
                },
                {
                    "name": "F5",
                    "midi": 77,
                    "time": 22.36365500000001,
                    "velocity": 0.6062992125984252,
                    "duration": 0.136363750000001
                },
                {
                    "name": "A#4",
                    "midi": 70,
                    "time": 22.50001875000001,
                    "velocity": 0.5590551181102362,
                    "duration": 0.136363750000001
                },
                {
                    "name": "D#4",
                    "midi": 63,
                    "time": 22.63638250000001,
                    "velocity": 0.5590551181102362,
                    "duration": 0.136363750000001
                },
                {
                    "name": "D#5",
                    "midi": 75,
                    "time": 22.77274625000001,
                    "velocity": 0.5590551181102362,
                    "duration": 0.136363750000001
                },
                {
                    "name": "C#5",
                    "midi": 73,
                    "time": 22.909110000000013,
                    "velocity": 0.5748031496062992,
                    "duration": 0.136363750000001
                },
                {
                    "name": "F5",
                    "midi": 77,
                    "time": 22.909110000000013,
                    "velocity": 0.5748031496062992,
                    "duration": 0.136363750000001
                },
                {
                    "name": "A#4",
                    "midi": 70,
                    "time": 23.045473750000014,
                    "velocity": 0.5275590551181102,
                    "duration": 0.136363750000001
                },
                {
                    "name": "D#4",
                    "midi": 63,
                    "time": 23.181837500000015,
                    "velocity": 0.5354330708661418,
                    "duration": 0.136363750000001
                },
                {
                    "name": "D#5",
                    "midi": 75,
                    "time": 23.318201250000016,
                    "velocity": 0.5354330708661418,
                    "duration": 0.136363750000001
                },
                {
                    "name": "C#5",
                    "midi": 73,
                    "time": 23.454565000000017,
                    "velocity": 0.5905511811023622,
                    "duration": 0.136363750000001
                },
                {
                    "name": "F5",
                    "midi": 77,
                    "time": 23.454565000000017,
                    "velocity": 0.5905511811023622,
                    "duration": 0.136363750000001
                },
                {
                    "name": "A#4",
                    "midi": 70,
                    "time": 23.590928750000018,
                    "velocity": 0.5511811023622047,
                    "duration": 0.136363750000001
                },
                {
                    "name": "D#4",
                    "midi": 63,
                    "time": 23.72729250000002,
                    "velocity": 0.5590551181102362,
                    "duration": 0.136363750000001
                },
                {
                    "name": "D#5",
                    "midi": 75,
                    "time": 23.86365625000002,
                    "velocity": 0.5590551181102362,
                    "duration": 0.136363750000001
                },
                {
                    "name": "C#5",
                    "midi": 73,
                    "time": 24.00002000000002,
                    "velocity": 0.6062992125984252,
                    "duration": 0.136363750000001
                },
                {
                    "name": "F5",
                    "midi": 77,
                    "time": 24.00002000000002,
                    "velocity": 0.6062992125984252,
                    "duration": 0.136363750000001
                },
                {
                    "name": "A#4",
                    "midi": 70,
                    "time": 24.13638375000002,
                    "velocity": 0.5669291338582677,
                    "duration": 0.136363750000001
                },
                {
                    "name": "D#4",
                    "midi": 63,
                    "time": 24.272747500000023,
                    "velocity": 0.5748031496062992,
                    "duration": 0.136363750000001
                },
                {
                    "name": "D#5",
                    "midi": 75,
                    "time": 24.409111250000024,
                    "velocity": 0.5748031496062992,
                    "duration": 0.136363750000001
                },
                {
                    "name": "C#5",
                    "midi": 73,
                    "time": 24.545475000000025,
                    "velocity": 0.6299212598425197,
                    "duration": 0.136363750000001
                },
                {
                    "name": "F5",
                    "midi": 77,
                    "time": 24.545475000000025,
                    "velocity": 0.6299212598425197,
                    "duration": 0.136363750000001
                },
                {
                    "name": "A#4",
                    "midi": 70,
                    "time": 24.681838750000026,
                    "velocity": 0.5826771653543307,
                    "duration": 0.136363750000001
                },
                {
                    "name": "D#4",
                    "midi": 63,
                    "time": 24.818202500000027,
                    "velocity": 0.5905511811023622,
                    "duration": 0.136363750000001
                },
                {
                    "name": "D#5",
                    "midi": 75,
                    "time": 24.954566250000028,
                    "velocity": 0.6062992125984252,
                    "duration": 0.136363750000001
                },
                {
                    "name": "C#5",
                    "midi": 73,
                    "time": 25.09093000000003,
                    "velocity": 0.6535433070866141,
                    "duration": 0.136363750000001
                },
                {
                    "name": "F5",
                    "midi": 77,
                    "time": 25.09093000000003,
                    "velocity": 0.6535433070866141,
                    "duration": 0.136363750000001
                },
                {
                    "name": "A#4",
                    "midi": 70,
                    "time": 25.22729375000003,
                    "velocity": 0.6141732283464567,
                    "duration": 0.136363750000001
                },
                {
                    "name": "D#4",
                    "midi": 63,
                    "time": 25.36365750000003,
                    "velocity": 0.6220472440944882,
                    "duration": 0.136363750000001
                },
                {
                    "name": "D#5",
                    "midi": 75,
                    "time": 25.50002125000003,
                    "velocity": 0.6220472440944882,
                    "duration": 0.136363750000001
                },
                {
                    "name": "C#5",
                    "midi": 73,
                    "time": 25.636385000000033,
                    "velocity": 0.6692913385826772,
                    "duration": 0.136363750000001
                },
                {
                    "name": "F5",
                    "midi": 77,
                    "time": 25.636385000000033,
                    "velocity": 0.6692913385826772,
                    "duration": 0.136363750000001
                },
                {
                    "name": "A#4",
                    "midi": 70,
                    "time": 25.772748750000034,
                    "velocity": 0.6299212598425197,
                    "duration": 0.136363750000001
                },
                {
                    "name": "D#4",
                    "midi": 63,
                    "time": 25.909112500000035,
                    "velocity": 0.6377952755905512,
                    "duration": 0.136363750000001
                },
                {
                    "name": "D#5",
                    "midi": 75,
                    "time": 26.045476250000036,
                    "velocity": 0.6456692913385826,
                    "duration": 0.136363750000001
                },
                {
                    "name": "C#5",
                    "midi": 73,
                    "time": 26.181840000000037,
                    "velocity": 0.5905511811023622,
                    "duration": 0.40909124999999946
                },
                {
                    "name": "F5",
                    "midi": 77,
                    "time": 26.181840000000037,
                    "velocity": 0.7007874015748031,
                    "duration": 0.40909124999999946
                },
                {
                    "name": "C5",
                    "midi": 72,
                    "time": 26.590931250000036,
                    "velocity": 0.5669291338582677,
                    "duration": 0.1227273750000002
                },
                {
                    "name": "D#5",
                    "midi": 75,
                    "time": 26.590931250000036,
                    "velocity": 0.6692913385826772,
                    "duration": 0.1227273750000002
                },
                {
                    "name": "C5",
                    "midi": 72,
                    "time": 26.727295000000037,
                    "velocity": 0.5669291338582677,
                    "duration": 0.5454550000000005
                },
                {
                    "name": "D#5",
                    "midi": 75,
                    "time": 26.727295000000037,
                    "velocity": 0.6692913385826772,
                    "duration": 0.5454550000000005
                },
                {
                    "name": "G#4",
                    "midi": 68,
                    "time": 27.545477500000036,
                    "velocity": 0.5354330708661418,
                    "duration": 0.136363750000001
                },
                {
                    "name": "C5",
                    "midi": 72,
                    "time": 27.545477500000036,
                    "velocity": 0.6299212598425197,
                    "duration": 0.136363750000001
                },
                {
                    "name": "A#4",
                    "midi": 70,
                    "time": 27.681841250000037,
                    "velocity": 0.5275590551181102,
                    "duration": 0.136363750000001
                },
                {
                    "name": "C#5",
                    "midi": 73,
                    "time": 27.681841250000037,
                    "velocity": 0.6220472440944882,
                    "duration": 0.136363750000001
                },
                {
                    "name": "C#5",
                    "midi": 73,
                    "time": 27.818205000000038,
                    "velocity": 0.5669291338582677,
                    "duration": 0.136363750000001
                },
                {
                    "name": "F5",
                    "midi": 77,
                    "time": 27.818205000000038,
                    "velocity": 0.6692913385826772,
                    "duration": 0.136363750000001
                },
                {
                    "name": "C5",
                    "midi": 72,
                    "time": 27.95456875000004,
                    "velocity": 0.5354330708661418,
                    "duration": 0.272727500000002
                },
                {
                    "name": "D#5",
                    "midi": 75,
                    "time": 27.95456875000004,
                    "velocity": 0.6299212598425197,
                    "duration": 0.0681818750000005
                },
                {
                    "name": "F5",
                    "midi": 77,
                    "time": 28.02275062500004,
                    "velocity": 0.5826771653543307,
                    "duration": 0.0681818750000005
                },
                {
                    "name": "D#5",
                    "midi": 75,
                    "time": 28.09093250000004,
                    "velocity": 0.6692913385826772,
                    "duration": 0.136363750000001
                },
                {
                    "name": "B4",
                    "midi": 71,
                    "time": 28.22729625000004,
                    "velocity": 0.5354330708661418,
                    "duration": 0.136363750000001
                },
                {
                    "name": "D5",
                    "midi": 74,
                    "time": 28.22729625000004,
                    "velocity": 0.6299212598425197,
                    "duration": 0.136363750000001
                },
                {
                    "name": "C5",
                    "midi": 72,
                    "time": 28.363660000000042,
                    "velocity": 0.5354330708661418,
                    "duration": 0.5454550000000005
                },
                {
                    "name": "D#5",
                    "midi": 75,
                    "time": 28.363660000000042,
                    "velocity": 0.6299212598425197,
                    "duration": 0.5454550000000005
                },
                {
                    "name": "G#4",
                    "midi": 68,
                    "time": 29.18184250000004,
                    "velocity": 0.5354330708661418,
                    "duration": 0.136363750000001
                },
                {
                    "name": "C5",
                    "midi": 72,
                    "time": 29.18184250000004,
                    "velocity": 0.6299212598425197,
                    "duration": 0.136363750000001
                },
                {
                    "name": "A#4",
                    "midi": 70,
                    "time": 29.318206250000042,
                    "velocity": 0.5275590551181102,
                    "duration": 0.136363750000001
                },
                {
                    "name": "C#5",
                    "midi": 73,
                    "time": 29.318206250000042,
                    "velocity": 0.6220472440944882,
                    "duration": 0.136363750000001
                },
                {
                    "name": "C#5",
                    "midi": 73,
                    "time": 29.454570000000043,
                    "velocity": 0.5669291338582677,
                    "duration": 0.136363750000001
                },
                {
                    "name": "F5",
                    "midi": 77,
                    "time": 29.454570000000043,
                    "velocity": 0.6692913385826772,
                    "duration": 0.136363750000001
                },
                {
                    "name": "C5",
                    "midi": 72,
                    "time": 29.590933750000044,
                    "velocity": 0.5354330708661418,
                    "duration": 0.272727500000002
                },
                {
                    "name": "D#5",
                    "midi": 75,
                    "time": 29.590933750000044,
                    "velocity": 0.6299212598425197,
                    "duration": 0.0681818750000005
                },
                {
                    "name": "F5",
                    "midi": 77,
                    "time": 29.659115625000045,
                    "velocity": 0.5826771653543307,
                    "duration": 0.0681818750000005
                },
                {
                    "name": "D#5",
                    "midi": 75,
                    "time": 29.727297500000045,
                    "velocity": 0.6692913385826772,
                    "duration": 0.136363750000001
                },
                {
                    "name": "B4",
                    "midi": 71,
                    "time": 29.863661250000046,
                    "velocity": 0.5354330708661418,
                    "duration": 0.136363750000001
                },
                {
                    "name": "D5",
                    "midi": 74,
                    "time": 29.863661250000046,
                    "velocity": 0.6299212598425197,
                    "duration": 0.136363750000001
                },
                {
                    "name": "C#5",
                    "midi": 73,
                    "time": 30.000025000000047,
                    "velocity": 0.5669291338582677,
                    "duration": 0.136363750000001
                },
                {
                    "name": "F5",
                    "midi": 77,
                    "time": 30.000025000000047,
                    "velocity": 0.6692913385826772,
                    "duration": 0.0681818750000005
                },
                {
                    "name": "C5",
                    "midi": 72,
                    "time": 30.136388750000048,
                    "velocity": 0.5354330708661418,
                    "duration": 0.272727500000002
                },
                {
                    "name": "D#5",
                    "midi": 75,
                    "time": 30.136388750000048,
                    "velocity": 0.6299212598425197,
                    "duration": 0.136363750000001
                },
                {
                    "name": "F5",
                    "midi": 77,
                    "time": 30.20457062500005,
                    "velocity": 0.5826771653543307,
                    "duration": 0.0681818750000005
                },
                {
                    "name": "D#5",
                    "midi": 75,
                    "time": 30.27275250000005,
                    "velocity": 0.6692913385826772,
                    "duration": 0.136363750000001
                },
                {
                    "name": "B4",
                    "midi": 71,
                    "time": 30.40911625000005,
                    "velocity": 0.5354330708661418,
                    "duration": 0.136363750000001
                },
                {
                    "name": "D5",
                    "midi": 74,
                    "time": 30.40911625000005,
                    "velocity": 0.6299212598425197,
                    "duration": 0.136363750000001
                },
                {
                    "name": "C5",
                    "midi": 72,
                    "time": 30.54548000000005,
                    "velocity": 0.5354330708661418,
                    "duration": 0.2045456250000015
                },
                {
                    "name": "D#5",
                    "midi": 75,
                    "time": 30.54548000000005,
                    "velocity": 0.6299212598425197,
                    "duration": 0.2045456250000015
                },
                {
                    "name": "D#4",
                    "midi": 63,
                    "time": 30.750025625000053,
                    "velocity": 0.5196850393700787,
                    "duration": 0.34090937499999896
                },
                {
                    "name": "A#4",
                    "midi": 70,
                    "time": 30.784116562500053,
                    "velocity": 0.5196850393700787,
                    "duration": 0.3068184374999987
                },
                {
                    "name": "F#5",
                    "midi": 78,
                    "time": 30.818207500000053,
                    "velocity": 0.6141732283464567,
                    "duration": 0.27272749999999846
                },
                {
                    "name": "D#4",
                    "midi": 63,
                    "time": 31.09093500000005,
                    "velocity": 0.5039370078740157,
                    "duration": 0.27272749999999846
                },
                {
                    "name": "A4",
                    "midi": 69,
                    "time": 31.09093500000005,
                    "velocity": 0.5039370078740157,
                    "duration": 0.27272749999999846
                },
                {
                    "name": "F5",
                    "midi": 77,
                    "time": 31.09093500000005,
                    "velocity": 0.5984251968503937,
                    "duration": 0.27272749999999846
                },
                {
                    "name": "F4",
                    "midi": 65,
                    "time": 31.36366250000005,
                    "velocity": 0.5039370078740157,
                    "duration": 0.27272749999999846
                },
                {
                    "name": "A4",
                    "midi": 69,
                    "time": 31.36366250000005,
                    "velocity": 0.5039370078740157,
                    "duration": 0.27272749999999846
                },
                {
                    "name": "C5",
                    "midi": 72,
                    "time": 31.36366250000005,
                    "velocity": 0.5984251968503937,
                    "duration": 0.27272749999999846
                },
                {
                    "name": "F4",
                    "midi": 65,
                    "time": 31.63639000000005,
                    "velocity": 0.5039370078740157,
                    "duration": 0.27272749999999846
                },
                {
                    "name": "A#4",
                    "midi": 70,
                    "time": 31.63639000000005,
                    "velocity": 0.5039370078740157,
                    "duration": 0.27272749999999846
                },
                {
                    "name": "C#5",
                    "midi": 73,
                    "time": 31.63639000000005,
                    "velocity": 0.5984251968503937,
                    "duration": 0.27272749999999846
                },
                {
                    "name": "F#4",
                    "midi": 66,
                    "time": 31.909117500000047,
                    "velocity": 0.5748031496062992,
                    "duration": 0.09090916666666615
                },
                {
                    "name": "F#3",
                    "midi": 54,
                    "time": 32.00002666666671,
                    "velocity": 0.5748031496062992,
                    "duration": 0.0909091666666697
                },
                {
                    "name": "F#4",
                    "midi": 66,
                    "time": 32.09093583333338,
                    "velocity": 0.5748031496062992,
                    "duration": 0.0909091666666697
                },
                {
                    "name": "F3",
                    "midi": 53,
                    "time": 32.18184500000005,
                    "velocity": 0.5118110236220472,
                    "duration": 0.272727500000002
                },
                {
                    "name": "F4",
                    "midi": 65,
                    "time": 32.18184500000005,
                    "velocity": 0.6062992125984252,
                    "duration": 0.272727500000002
                },
                {
                    "name": "C#4",
                    "midi": 61,
                    "time": 32.454572500000054,
                    "velocity": 0.5669291338582677,
                    "duration": 0.2045456250000015
                },
                {
                    "name": "F#4",
                    "midi": 66,
                    "time": 32.659118125000056,
                    "velocity": 0.6141732283464567,
                    "duration": 0.0681818750000005
                },
                {
                    "name": "D#5",
                    "midi": 75,
                    "time": 32.72730000000006,
                    "velocity": 0.5905511811023622,
                    "duration": 0.409091250000003
                },
                {
                    "name": "F#5",
                    "midi": 78,
                    "time": 32.72730000000006,
                    "velocity": 0.7007874015748031,
                    "duration": 0.409091250000003
                },
                {
                    "name": "C#5",
                    "midi": 73,
                    "time": 33.13639125000006,
                    "velocity": 0.5669291338582677,
                    "duration": 0.12272737499999664
                },
                {
                    "name": "F5",
                    "midi": 77,
                    "time": 33.13639125000006,
                    "velocity": 0.6692913385826772,
                    "duration": 0.12272737499999664
                },
                {
                    "name": "C#5",
                    "midi": 73,
                    "time": 33.27275500000005,
                    "velocity": 0.5669291338582677,
                    "duration": 0.5454549999999969
                },
                {
                    "name": "F5",
                    "midi": 77,
                    "time": 33.27275500000005,
                    "velocity": 0.6692913385826772,
                    "duration": 0.5454549999999969
                },
                {
                    "name": "A#4",
                    "midi": 70,
                    "time": 34.09093750000005,
                    "velocity": 0.5354330708661418,
                    "duration": 0.136363750000001
                },
                {
                    "name": "C#5",
                    "midi": 73,
                    "time": 34.09093750000005,
                    "velocity": 0.6299212598425197,
                    "duration": 0.136363750000001
                },
                {
                    "name": "C5",
                    "midi": 72,
                    "time": 34.22730125000005,
                    "velocity": 0.5275590551181102,
                    "duration": 0.136363750000001
                },
                {
                    "name": "D#5",
                    "midi": 75,
                    "time": 34.22730125000005,
                    "velocity": 0.6220472440944882,
                    "duration": 0.136363750000001
                },
                {
                    "name": "D#5",
                    "midi": 75,
                    "time": 34.363665000000054,
                    "velocity": 0.5669291338582677,
                    "duration": 0.136363750000001
                },
                {
                    "name": "F#5",
                    "midi": 78,
                    "time": 34.363665000000054,
                    "velocity": 0.6692913385826772,
                    "duration": 0.136363750000001
                },
                {
                    "name": "C#5",
                    "midi": 73,
                    "time": 34.500028750000055,
                    "velocity": 0.5354330708661418,
                    "duration": 0.272727500000002
                },
                {
                    "name": "F5",
                    "midi": 77,
                    "time": 34.500028750000055,
                    "velocity": 0.6299212598425197,
                    "duration": 0.0681818750000005
                },
                {
                    "name": "F#5",
                    "midi": 78,
                    "time": 34.568210625000056,
                    "velocity": 0.5826771653543307,
                    "duration": 0.0681818750000005
                },
                {
                    "name": "F5",
                    "midi": 77,
                    "time": 34.636392500000056,
                    "velocity": 0.6692913385826772,
                    "duration": 0.136363750000001
                },
                {
                    "name": "C5",
                    "midi": 72,
                    "time": 34.77275625000006,
                    "velocity": 0.5354330708661418,
                    "duration": 0.136363750000001
                },
                {
                    "name": "E5",
                    "midi": 76,
                    "time": 34.77275625000006,
                    "velocity": 0.6299212598425197,
                    "duration": 0.136363750000001
                },
                {
                    "name": "C#5",
                    "midi": 73,
                    "time": 34.90912000000006,
                    "velocity": 0.5354330708661418,
                    "duration": 0.5454549999999969
                },
                {
                    "name": "F5",
                    "midi": 77,
                    "time": 34.90912000000006,
                    "velocity": 0.6299212598425197,
                    "duration": 0.5454549999999969
                },
                {
                    "name": "G4",
                    "midi": 67,
                    "time": 35.72730250000006,
                    "velocity": 0.5354330708661418,
                    "duration": 0.136363750000001
                },
                {
                    "name": "C#5",
                    "midi": 73,
                    "time": 35.72730250000006,
                    "velocity": 0.5354330708661418,
                    "duration": 0.136363750000001
                },
                {
                    "name": "G5",
                    "midi": 79,
                    "time": 35.72730250000006,
                    "velocity": 0.6299212598425197,
                    "duration": 0.136363750000001
                },
                {
                    "name": "G#4",
                    "midi": 68,
                    "time": 35.86366625000006,
                    "velocity": 0.5275590551181102,
                    "duration": 0.136363750000001
                },
                {
                    "name": "G#5",
                    "midi": 80,
                    "time": 35.86366625000006,
                    "velocity": 0.6220472440944882,
                    "duration": 0.136363750000001
                },
                {
                    "name": "C5",
                    "midi": 72,
                    "time": 36.00003000000006,
                    "velocity": 0.5590551181102362,
                    "duration": 0.136363750000001
                },
                {
                    "name": "C6",
                    "midi": 84,
                    "time": 36.00003000000006,
                    "velocity": 0.6614173228346457,
                    "duration": 0.136363750000001
                },
                {
                    "name": "G5",
                    "midi": 79,
                    "time": 36.13639375000006,
                    "velocity": 0.5748031496062992,
                    "duration": 0.136363750000001
                },
                {
                    "name": "D#5",
                    "midi": 75,
                    "time": 36.13639375000006,
                    "velocity": 0.4881889763779528,
                    "duration": 0.136363750000001
                },
                {
                    "name": "C5",
                    "midi": 72,
                    "time": 36.27275750000006,
                    "velocity": 0.5196850393700787,
                    "duration": 0.136363750000001
                },
                {
                    "name": "C6",
                    "midi": 84,
                    "time": 36.27275750000006,
                    "velocity": 0.6141732283464567,
                    "duration": 0.136363750000001
                },
                {
                    "name": "A#4",
                    "midi": 70,
                    "time": 36.47730312500006,
                    "velocity": 0.5118110236220472,
                    "duration": 0.06136368749999832
                },
                {
                    "name": "A#5",
                    "midi": 82,
                    "time": 36.47730312500006,
                    "velocity": 0.6062992125984252,
                    "duration": 0.06136368749999832
                },
                {
                    "name": "A#4",
                    "midi": 70,
                    "time": 36.54548500000006,
                    "velocity": 0.5354330708661418,
                    "duration": 0.136363750000001
                },
                {
                    "name": "A#5",
                    "midi": 82,
                    "time": 36.54548500000006,
                    "velocity": 0.6377952755905512,
                    "duration": 0.136363750000001
                },
                {
                    "name": "D#5",
                    "midi": 75,
                    "time": 36.681848750000064,
                    "velocity": 0.5511811023622047,
                    "duration": 0.136363750000001
                },
                {
                    "name": "C5",
                    "midi": 72,
                    "time": 36.681848750000064,
                    "velocity": 0.4645669291338583,
                    "duration": 0.136363750000001
                },
                {
                    "name": "A#4",
                    "midi": 70,
                    "time": 36.818212500000065,
                    "velocity": 0.49606299212598426,
                    "duration": 0.136363750000001
                },
                {
                    "name": "A#5",
                    "midi": 82,
                    "time": 36.818212500000065,
                    "velocity": 0.5905511811023622,
                    "duration": 0.136363750000001
                },
                {
                    "name": "G#4",
                    "midi": 68,
                    "time": 37.02275812500007,
                    "velocity": 0.44881889763779526,
                    "duration": 0.06136368749999832
                },
                {
                    "name": "G#5",
                    "midi": 80,
                    "time": 37.02275812500007,
                    "velocity": 0.5275590551181102,
                    "duration": 0.06136368749999832
                },
                {
                    "name": "G#4",
                    "midi": 68,
                    "time": 37.09094000000007,
                    "velocity": 0.5196850393700787,
                    "duration": 0.136363750000001
                },
                {
                    "name": "G#5",
                    "midi": 80,
                    "time": 37.09094000000007,
                    "velocity": 0.6141732283464567,
                    "duration": 0.136363750000001
                },
                {
                    "name": "D#5",
                    "midi": 75,
                    "time": 37.22730375000007,
                    "velocity": 0.5196850393700787,
                    "duration": 0.136363750000001
                },
                {
                    "name": "A#4",
                    "midi": 70,
                    "time": 37.22730375000007,
                    "velocity": 0.4409448818897638,
                    "duration": 0.136363750000001
                },
                {
                    "name": "G#4",
                    "midi": 68,
                    "time": 37.36366750000007,
                    "velocity": 0.4881889763779528,
                    "duration": 0.136363750000001
                },
                {
                    "name": "G#5",
                    "midi": 80,
                    "time": 37.36366750000007,
                    "velocity": 0.5748031496062992,
                    "duration": 0.136363750000001
                },
                {
                    "name": "G4",
                    "midi": 67,
                    "time": 37.56821312500007,
                    "velocity": 0.4409448818897638,
                    "duration": 0.06136368749999832
                },
                {
                    "name": "G5",
                    "midi": 79,
                    "time": 37.56821312500007,
                    "velocity": 0.5196850393700787,
                    "duration": 0.06136368749999832
                },
                {
                    "name": "G4",
                    "midi": 67,
                    "time": 37.63639500000007,
                    "velocity": 0.49606299212598426,
                    "duration": 0.136363750000001
                },
                {
                    "name": "G5",
                    "midi": 79,
                    "time": 37.63639500000007,
                    "velocity": 0.5905511811023622,
                    "duration": 0.136363750000001
                },
                {
                    "name": "D5",
                    "midi": 74,
                    "time": 37.77275875000007,
                    "velocity": 0.5118110236220472,
                    "duration": 0.136363750000001
                },
                {
                    "name": "A#4",
                    "midi": 70,
                    "time": 37.77275875000007,
                    "velocity": 0.4330708661417323,
                    "duration": 0.136363750000001
                },
                {
                    "name": "G4",
                    "midi": 67,
                    "time": 37.90912250000007,
                    "velocity": 0.47244094488188976,
                    "duration": 0.136363750000001
                },
                {
                    "name": "G5",
                    "midi": 79,
                    "time": 37.90912250000007,
                    "velocity": 0.5590551181102362,
                    "duration": 0.136363750000001
                },
                {
                    "name": "F4",
                    "midi": 65,
                    "time": 38.113668125000075,
                    "velocity": 0.44881889763779526,
                    "duration": 0.06136368749999832
                },
                {
                    "name": "F5",
                    "midi": 77,
                    "time": 38.113668125000075,
                    "velocity": 0.5354330708661418,
                    "duration": 0.06136368749999832
                },
                {
                    "name": "F4",
                    "midi": 65,
                    "time": 38.181850000000075,
                    "velocity": 0.48031496062992124,
                    "duration": 0.136363750000001
                },
                {
                    "name": "F5",
                    "midi": 77,
                    "time": 38.181850000000075,
                    "velocity": 0.5748031496062992,
                    "duration": 0.136363750000001
                },
                {
                    "name": "A#4",
                    "midi": 70,
                    "time": 38.318213750000076,
                    "velocity": 0.49606299212598426,
                    "duration": 0.136363750000001
                },
                {
                    "name": "G4",
                    "midi": 67,
                    "time": 38.318213750000076,
                    "velocity": 0.4251968503937008,
                    "duration": 0.136363750000001
                },
                {
                    "name": "F4",
                    "midi": 65,
                    "time": 38.45457750000008,
                    "velocity": 0.4566929133858268,
                    "duration": 0.136363750000001
                },
                {
                    "name": "F5",
                    "midi": 77,
                    "time": 38.45457750000008,
                    "velocity": 0.5433070866141733,
                    "duration": 0.136363750000001
                },
                {
                    "name": "D#4",
                    "midi": 63,
                    "time": 38.65912312500008,
                    "velocity": 0.4251968503937008,
                    "duration": 0.0681818750000005
                },
                {
                    "name": "D#5",
                    "midi": 75,
                    "time": 38.65912312500008,
                    "velocity": 0.49606299212598426,
                    "duration": 0.0681818750000005
                },
                {
                    "name": "C#4",
                    "midi": 61,
                    "time": 38.72730500000008,
                    "velocity": 0.49606299212598426,
                    "duration": 0.136363750000001
                },
                {
                    "name": "C#5",
                    "midi": 73,
                    "time": 38.72730500000008,
                    "velocity": 0.5905511811023622,
                    "duration": 0.136363750000001
                },
                {
                    "name": "G#4",
                    "midi": 68,
                    "time": 38.86366875000008,
                    "velocity": 0.49606299212598426,
                    "duration": 0.136363750000001
                },
                {
                    "name": "F4",
                    "midi": 65,
                    "time": 38.86366875000008,
                    "velocity": 0.4251968503937008,
                    "duration": 0.136363750000001
                },
                {
                    "name": "C#4",
                    "midi": 61,
                    "time": 39.00003250000008,
                    "velocity": 0.4645669291338583,
                    "duration": 0.136363750000001
                },
                {
                    "name": "C#5",
                    "midi": 73,
                    "time": 39.00003250000008,
                    "velocity": 0.5511811023622047,
                    "duration": 0.136363750000001
                },
                {
                    "name": "C4",
                    "midi": 60,
                    "time": 39.20457812500008,
                    "velocity": 0.41732283464566927,
                    "duration": 0.0681818750000005
                },
                {
                    "name": "C5",
                    "midi": 72,
                    "time": 39.20457812500008,
                    "velocity": 0.4881889763779528,
                    "duration": 0.0681818750000005
                },
                {
                    "name": "F4",
                    "midi": 65,
                    "time": 39.27276000000008,
                    "velocity": 0.49606299212598426,
                    "duration": 0.5454549999999969
                },
                {
                    "name": "G4",
                    "midi": 67,
                    "time": 39.81821500000008,
                    "velocity": 0.4251968503937008,
                    "duration": 0.0681818750000005
                },
                {
                    "name": "G#4",
                    "midi": 68,
                    "time": 39.88639687500008,
                    "velocity": 0.4330708661417323,
                    "duration": 0.0681818750000005
                },
                {
                    "name": "G4",
                    "midi": 67,
                    "time": 39.95457875000008,
                    "velocity": 0.4330708661417323,
                    "duration": 0.0681818750000005
                },
                {
                    "name": "G#4",
                    "midi": 68,
                    "time": 40.02276062500008,
                    "velocity": 0.4409448818897638,
                    "duration": 0.0681818750000005
                },
                {
                    "name": "F4",
                    "midi": 65,
                    "time": 40.09094250000008,
                    "velocity": 0.4409448818897638,
                    "duration": 0.136363750000001
                },
                {
                    "name": "G4",
                    "midi": 67,
                    "time": 40.22730625000008,
                    "velocity": 0.44881889763779526,
                    "duration": 0.136363750000001
                },
                {
                    "name": "G#4",
                    "midi": 68,
                    "time": 40.363670000000084,
                    "velocity": 0.4566929133858268,
                    "duration": 0.0681818750000005
                },
                {
                    "name": "A#4",
                    "midi": 70,
                    "time": 40.431851875000085,
                    "velocity": 0.4645669291338583,
                    "duration": 0.0681818750000005
                },
                {
                    "name": "G#4",
                    "midi": 68,
                    "time": 40.500033750000085,
                    "velocity": 0.4645669291338583,
                    "duration": 0.0681818750000005
                },
                {
                    "name": "A#4",
                    "midi": 70,
                    "time": 40.568215625000086,
                    "velocity": 0.47244094488188976,
                    "duration": 0.0681818750000005
                },
                {
                    "name": "G4",
                    "midi": 67,
                    "time": 40.636397500000086,
                    "velocity": 0.47244094488188976,
                    "duration": 0.136363750000001
                },
                {
                    "name": "G#4",
                    "midi": 68,
                    "time": 40.77276125000009,
                    "velocity": 0.48031496062992124,
                    "duration": 0.136363750000001
                },
                {
                    "name": "C#4",
                    "midi": 61,
                    "time": 40.90912500000009,
                    "velocity": 0.33070866141732286,
                    "duration": 0.272727500000002
                },
                {
                    "name": "G4",
                    "midi": 67,
                    "time": 40.90912500000009,
                    "velocity": 0.33070866141732286,
                    "duration": 0.272727500000002
                },
                {
                    "name": "A4",
                    "midi": 69,
                    "time": 40.90912500000009,
                    "velocity": 0.47244094488188976,
                    "duration": 0.136363750000001
                },
                {
                    "name": "A#4",
                    "midi": 70,
                    "time": 41.04548875000009,
                    "velocity": 0.4409448818897638,
                    "duration": 0.136363750000001
                },
                {
                    "name": "C#4",
                    "midi": 61,
                    "time": 41.18185250000009,
                    "velocity": 0.30708661417322836,
                    "duration": 0.272727500000002
                },
                {
                    "name": "G4",
                    "midi": 67,
                    "time": 41.18185250000009,
                    "velocity": 0.30708661417322836,
                    "duration": 0.272727500000002
                },
                {
                    "name": "C5",
                    "midi": 72,
                    "time": 41.18185250000009,
                    "velocity": 0.4409448818897638,
                    "duration": 0.136363750000001
                },
                {
                    "name": "C#5",
                    "midi": 73,
                    "time": 41.31821625000009,
                    "velocity": 0.4409448818897638,
                    "duration": 0.136363750000001
                },
                {
                    "name": "C4",
                    "midi": 60,
                    "time": 41.45458000000009,
                    "velocity": 0.3937007874015748,
                    "duration": 0.272727500000002
                },
                {
                    "name": "G#4",
                    "midi": 68,
                    "time": 41.45458000000009,
                    "velocity": 0.3937007874015748,
                    "duration": 0.272727500000002
                },
                {
                    "name": "C5",
                    "midi": 72,
                    "time": 41.45458000000009,
                    "velocity": 0.47244094488188976,
                    "duration": 0.272727500000002
                },
                {
                    "name": "B3",
                    "midi": 59,
                    "time": 41.727307500000094,
                    "velocity": 0.44881889763779526,
                    "duration": 0.2045456250000015
                },
                {
                    "name": "D4",
                    "midi": 62,
                    "time": 41.727307500000094,
                    "velocity": 0.44881889763779526,
                    "duration": 0.2045456250000015
                },
                {
                    "name": "F4",
                    "midi": 65,
                    "time": 41.727307500000094,
                    "velocity": 0.44881889763779526,
                    "duration": 0.2045456250000015
                },
                {
                    "name": "G#4",
                    "midi": 68,
                    "time": 41.727307500000094,
                    "velocity": 0.44881889763779526,
                    "duration": 0.2045456250000015
                },
                {
                    "name": "F5",
                    "midi": 77,
                    "time": 41.727307500000094,
                    "velocity": 0.5354330708661418,
                    "duration": 0.2045456250000015
                },
                {
                    "name": "C4",
                    "midi": 60,
                    "time": 41.931853125000096,
                    "velocity": 0.4094488188976378,
                    "duration": 0.06136368749999832
                },
                {
                    "name": "D#4",
                    "midi": 63,
                    "time": 41.931853125000096,
                    "velocity": 0.4094488188976378,
                    "duration": 0.06136368749999832
                },
                {
                    "name": "G#4",
                    "midi": 68,
                    "time": 41.931853125000096,
                    "velocity": 0.4094488188976378,
                    "duration": 0.06136368749999832
                },
                {
                    "name": "D#5",
                    "midi": 75,
                    "time": 41.931853125000096,
                    "velocity": 0.4881889763779528,
                    "duration": 0.06136368749999832
                },
                {
                    "name": "C4",
                    "midi": 60,
                    "time": 42.000035000000096,
                    "velocity": 0.4566929133858268,
                    "duration": 0.136363750000001
                },
                {
                    "name": "D#4",
                    "midi": 63,
                    "time": 42.000035000000096,
                    "velocity": 0.4566929133858268,
                    "duration": 0.136363750000001
                },
                {
                    "name": "G#4",
                    "midi": 68,
                    "time": 42.000035000000096,
                    "velocity": 0.4566929133858268,
                    "duration": 0.136363750000001
                },
                {
                    "name": "D#5",
                    "midi": 75,
                    "time": 42.000035000000096,
                    "velocity": 0.5433070866141733,
                    "duration": 0.136363750000001
                },
                {
                    "name": "G#4",
                    "midi": 68,
                    "time": 42.1363987500001,
                    "velocity": 0.5039370078740157,
                    "duration": 0.272727500000002
                },
                {
                    "name": "G#5",
                    "midi": 80,
                    "time": 42.2727625000001,
                    "velocity": 0.5984251968503937,
                    "duration": 0.136363750000001
                },
                {
                    "name": "G4",
                    "midi": 67,
                    "time": 42.4773081250001,
                    "velocity": 0.4645669291338583,
                    "duration": 0.0681818750000005
                },
                {
                    "name": "G5",
                    "midi": 79,
                    "time": 42.4773081250001,
                    "velocity": 0.5511811023622047,
                    "duration": 0.0681818750000005
                },
                {
                    "name": "F4",
                    "midi": 65,
                    "time": 42.5454900000001,
                    "velocity": 0.4645669291338583,
                    "duration": 0.5454549999999969
                },
                {
                    "name": "F5",
                    "midi": 77,
                    "time": 42.5454900000001,
                    "velocity": 0.5511811023622047,
                    "duration": 0.5454549999999969
                },
                {
                    "name": "G4",
                    "midi": 67,
                    "time": 43.0909450000001,
                    "velocity": 0.5039370078740157,
                    "duration": 0.136363750000001
                },
                {
                    "name": "G5",
                    "midi": 79,
                    "time": 43.2273087500001,
                    "velocity": 0.5118110236220472,
                    "duration": 0.0454545833333313
                },
                {
                    "name": "G#5",
                    "midi": 80,
                    "time": 43.27276333333343,
                    "velocity": 0.5196850393700787,
                    "duration": 0.0454545833333313
                },
                {
                    "name": "G5",
                    "midi": 79,
                    "time": 43.31821791666676,
                    "velocity": 0.5118110236220472,
                    "duration": 0.0454545833333313
                },
                {
                    "name": "F4",
                    "midi": 65,
                    "time": 43.36367250000009,
                    "velocity": 0.4409448818897638,
                    "duration": 0.136363750000001
                },
                {
                    "name": "F5",
                    "midi": 77,
                    "time": 43.36367250000009,
                    "velocity": 0.5196850393700787,
                    "duration": 0.136363750000001
                },
                {
                    "name": "G4",
                    "midi": 67,
                    "time": 43.50003625000009,
                    "velocity": 0.4409448818897638,
                    "duration": 0.136363750000001
                },
                {
                    "name": "G5",
                    "midi": 79,
                    "time": 43.50003625000009,
                    "velocity": 0.5275590551181102,
                    "duration": 0.136363750000001
                },
                {
                    "name": "G#4",
                    "midi": 68,
                    "time": 43.636400000000094,
                    "velocity": 0.5039370078740157,
                    "duration": 0.136363750000001
                },
                {
                    "name": "G#5",
                    "midi": 80,
                    "time": 43.772763750000095,
                    "velocity": 0.5118110236220472,
                    "duration": 0.0454545833333313
                },
                {
                    "name": "A#5",
                    "midi": 82,
                    "time": 43.81821833333343,
                    "velocity": 0.5118110236220472,
                    "duration": 0.0454545833333313
                },
                {
                    "name": "G#5",
                    "midi": 80,
                    "time": 43.86367291666676,
                    "velocity": 0.5118110236220472,
                    "duration": 0.0454545833333313
                },
                {
                    "name": "G4",
                    "midi": 67,
                    "time": 43.90912750000009,
                    "velocity": 0.47244094488188976,
                    "duration": 0.136363750000001
                },
                {
                    "name": "G5",
                    "midi": 79,
                    "time": 43.90912750000009,
                    "velocity": 0.5590551181102362,
                    "duration": 0.136363750000001
                },
                {
                    "name": "G#4",
                    "midi": 68,
                    "time": 44.04549125000009,
                    "velocity": 0.48031496062992124,
                    "duration": 0.136363750000001
                },
                {
                    "name": "G#5",
                    "midi": 80,
                    "time": 44.04549125000009,
                    "velocity": 0.5669291338582677,
                    "duration": 0.136363750000001
                },
                {
                    "name": "A4",
                    "midi": 69,
                    "time": 44.18185500000009,
                    "velocity": 0.44881889763779526,
                    "duration": 0.136363750000001
                },
                {
                    "name": "D#5",
                    "midi": 75,
                    "time": 44.18185500000009,
                    "velocity": 0.49606299212598426,
                    "duration": 0.136363750000001
                },
                {
                    "name": "A5",
                    "midi": 81,
                    "time": 44.18185500000009,
                    "velocity": 0.5905511811023622,
                    "duration": 0.136363750000001
                },
                {
                    "name": "A#4",
                    "midi": 70,
                    "time": 44.31821875000009,
                    "velocity": 0.49606299212598426,
                    "duration": 0.136363750000001
                },
                {
                    "name": "A#5",
                    "midi": 82,
                    "time": 44.31821875000009,
                    "velocity": 0.5511811023622047,
                    "duration": 0.136363750000001
                },
                {
                    "name": "C5",
                    "midi": 72,
                    "time": 44.45458250000009,
                    "velocity": 0.4645669291338583,
                    "duration": 0.136363750000001
                },
                {
                    "name": "G5",
                    "midi": 79,
                    "time": 44.45458250000009,
                    "velocity": 0.4645669291338583,
                    "duration": 0.136363750000001
                },
                {
                    "name": "C6",
                    "midi": 84,
                    "time": 44.45458250000009,
                    "velocity": 0.5511811023622047,
                    "duration": 0.136363750000001
                },
                {
                    "name": "C#5",
                    "midi": 73,
                    "time": 44.590946250000094,
                    "velocity": 0.4645669291338583,
                    "duration": 0.136363750000001
                },
                {
                    "name": "C#6",
                    "midi": 85,
                    "time": 44.590946250000094,
                    "velocity": 0.5511811023622047,
                    "duration": 0.136363750000001
                },
                {
                    "name": "C5",
                    "midi": 72,
                    "time": 44.727310000000095,
                    "velocity": 0.49606299212598426,
                    "duration": 0.136363750000001
                },
                {
                    "name": "G#5",
                    "midi": 80,
                    "time": 44.727310000000095,
                    "velocity": 0.49606299212598426,
                    "duration": 0.136363750000001
                },
                {
                    "name": "C6",
                    "midi": 84,
                    "time": 44.727310000000095,
                    "velocity": 0.5905511811023622,
                    "duration": 0.136363750000001
                },
                {
                    "name": "F5",
                    "midi": 77,
                    "time": 45.0000375000001,
                    "velocity": 0.5039370078740157,
                    "duration": 0.2045456250000015
                },
                {
                    "name": "G#5",
                    "midi": 80,
                    "time": 45.0000375000001,
                    "velocity": 0.5039370078740157,
                    "duration": 0.2045456250000015
                },
                {
                    "name": "F6",
                    "midi": 89,
                    "time": 45.0000375000001,
                    "velocity": 0.5984251968503937,
                    "duration": 0.2045456250000015
                },
                {
                    "name": "D#5",
                    "midi": 75,
                    "time": 45.2045831250001,
                    "velocity": 0.4566929133858268,
                    "duration": 0.06136368749999832
                },
                {
                    "name": "G#5",
                    "midi": 80,
                    "time": 45.2045831250001,
                    "velocity": 0.4566929133858268,
                    "duration": 0.06136368749999832
                },
                {
                    "name": "D#6",
                    "midi": 87,
                    "time": 45.2045831250001,
                    "velocity": 0.5433070866141733,
                    "duration": 0.06136368749999832
                },
                {
                    "name": "D#5",
                    "midi": 75,
                    "time": 45.2727650000001,
                    "velocity": 0.5118110236220472,
                    "duration": 0.136363750000001
                },
                {
                    "name": "G#5",
                    "midi": 80,
                    "time": 45.2727650000001,
                    "velocity": 0.5118110236220472,
                    "duration": 0.136363750000001
                },
                {
                    "name": "D#6",
                    "midi": 87,
                    "time": 45.2727650000001,
                    "velocity": 0.6062992125984252,
                    "duration": 0.136363750000001
                },
                {
                    "name": "D#6",
                    "midi": 87,
                    "time": 45.4773106250001,
                    "velocity": 0.47244094488188976,
                    "duration": 0.0681818750000005
                },
                {
                    "name": "D#5",
                    "midi": 75,
                    "time": 45.4773106250001,
                    "velocity": 0.47244094488188976,
                    "duration": 0.0681818750000005
                },
                {
                    "name": "C#5",
                    "midi": 73,
                    "time": 45.5454925000001,
                    "velocity": 0.5039370078740157,
                    "duration": 0.2045456250000015
                },
                {
                    "name": "A5",
                    "midi": 81,
                    "time": 45.5454925000001,
                    "velocity": 0.5039370078740157,
                    "duration": 0.2045456250000015
                },
                {
                    "name": "C#6",
                    "midi": 85,
                    "time": 45.5454925000001,
                    "velocity": 0.5984251968503937,
                    "duration": 0.2045456250000015
                },
                {
                    "name": "C5",
                    "midi": 72,
                    "time": 45.7500381250001,
                    "velocity": 0.4645669291338583,
                    "duration": 0.0681818750000005
                },
                {
                    "name": "C6",
                    "midi": 84,
                    "time": 45.7500381250001,
                    "velocity": 0.5511811023622047,
                    "duration": 0.0681818750000005
                },
                {
                    "name": "A#4",
                    "midi": 70,
                    "time": 45.8182200000001,
                    "velocity": 0.5039370078740157,
                    "duration": 0.136363750000001
                },
                {
                    "name": "A#5",
                    "midi": 82,
                    "time": 45.8182200000001,
                    "velocity": 0.5984251968503937,
                    "duration": 0.136363750000001
                },
                {
                    "name": "A#3",
                    "midi": 58,
                    "time": 46.090947500000105,
                    "velocity": 0.4645669291338583,
                    "duration": 0.2045456250000015
                },
                {
                    "name": "F#4",
                    "midi": 66,
                    "time": 46.090947500000105,
                    "velocity": 0.4645669291338583,
                    "duration": 0.2045456250000015
                },
                {
                    "name": "A#4",
                    "midi": 70,
                    "time": 46.090947500000105,
                    "velocity": 0.5511811023622047,
                    "duration": 0.2045456250000015
                },
                {
                    "name": "C4",
                    "midi": 60,
                    "time": 46.29549312500011,
                    "velocity": 0.4645669291338583,
                    "duration": 0.0681818750000005
                },
                {
                    "name": "C5",
                    "midi": 72,
                    "time": 46.29549312500011,
                    "velocity": 0.5511811023622047,
                    "duration": 0.0681818750000005
                },
                {
                    "name": "C#4",
                    "midi": 61,
                    "time": 46.36367500000011,
                    "velocity": 0.4881889763779528,
                    "duration": 0.272727500000002
                },
                {
                    "name": "F4",
                    "midi": 65,
                    "time": 46.36367500000011,
                    "velocity": 0.4881889763779528,
                    "duration": 0.272727500000002
                },
                {
                    "name": "C#5",
                    "midi": 73,
                    "time": 46.36367500000011,
                    "velocity": 0.5826771653543307,
                    "duration": 0.272727500000002
                },
                {
                    "name": "C#4",
                    "midi": 61,
                    "time": 46.63640250000011,
                    "velocity": 0.48031496062992124,
                    "duration": 0.2045456250000015
                },
                {
                    "name": "D#4",
                    "midi": 63,
                    "time": 46.63640250000011,
                    "velocity": 0.48031496062992124,
                    "duration": 0.2045456250000015
                },
                {
                    "name": "F#4",
                    "midi": 66,
                    "time": 46.63640250000011,
                    "velocity": 0.48031496062992124,
                    "duration": 0.2045456250000015
                },
                {
                    "name": "C#5",
                    "midi": 73,
                    "time": 46.63640250000011,
                    "velocity": 0.5669291338582677,
                    "duration": 0.2045456250000015
                },
                {
                    "name": "C4",
                    "midi": 60,
                    "time": 46.84094812500011,
                    "velocity": 0.4566929133858268,
                    "duration": 0.0681818750000005
                },
                {
                    "name": "C5",
                    "midi": 72,
                    "time": 46.84094812500011,
                    "velocity": 0.5433070866141733,
                    "duration": 0.0681818750000005
                },
                {
                    "name": "A#3",
                    "midi": 58,
                    "time": 46.90913000000011,
                    "velocity": 0.49606299212598426,
                    "duration": 0.272727500000002
                },
                {
                    "name": "F4",
                    "midi": 65,
                    "time": 46.90913000000011,
                    "velocity": 0.49606299212598426,
                    "duration": 0.272727500000002
                },
                {
                    "name": "A#4",
                    "midi": 70,
                    "time": 46.90913000000011,
                    "velocity": 0.5905511811023622,
                    "duration": 0.272727500000002
                },
                {
                    "name": "G#3",
                    "midi": 56,
                    "time": 47.18185750000011,
                    "velocity": 0.48031496062992124,
                    "duration": 0.2045456250000015
                },
                {
                    "name": "A#3",
                    "midi": 58,
                    "time": 47.18185750000011,
                    "velocity": 0.48031496062992124,
                    "duration": 0.2045456250000015
                },
                {
                    "name": "D#4",
                    "midi": 63,
                    "time": 47.18185750000011,
                    "velocity": 0.48031496062992124,
                    "duration": 0.2045456250000015
                },
                {
                    "name": "G#4",
                    "midi": 68,
                    "time": 47.18185750000011,
                    "velocity": 0.5669291338582677,
                    "duration": 0.2045456250000015
                },
                {
                    "name": "F#3",
                    "midi": 54,
                    "time": 47.386403125000115,
                    "velocity": 0.44881889763779526,
                    "duration": 0.0681818750000005
                },
                {
                    "name": "F#4",
                    "midi": 66,
                    "time": 47.386403125000115,
                    "velocity": 0.5354330708661418,
                    "duration": 0.0681818750000005
                },
                {
                    "name": "F3",
                    "midi": 53,
                    "time": 47.454585000000115,
                    "velocity": 0.47244094488188976,
                    "duration": 0.136363750000001
                },
                {
                    "name": "C#4",
                    "midi": 61,
                    "time": 47.454585000000115,
                    "velocity": 0.47244094488188976,
                    "duration": 0.136363750000001
                },
                {
                    "name": "F4",
                    "midi": 65,
                    "time": 47.454585000000115,
                    "velocity": 0.5590551181102362,
                    "duration": 0.136363750000001
                },
                {
                    "name": "A2",
                    "midi": 45,
                    "time": 47.72731250000012,
                    "velocity": 0.4645669291338583,
                    "duration": 0.0681818750000005
                },
                {
                    "name": "A#2",
                    "midi": 46,
                    "time": 47.79549437500012,
                    "velocity": 0.4645669291338583,
                    "duration": 0.0681818750000005
                },
                {
                    "name": "C3",
                    "midi": 48,
                    "time": 47.86367625000012,
                    "velocity": 0.47244094488188976,
                    "duration": 0.0681818750000005
                },
                {
                    "name": "C#3",
                    "midi": 49,
                    "time": 47.93185812500012,
                    "velocity": 0.48031496062992124,
                    "duration": 0.0681818750000005
                },
                {
                    "name": "D#3",
                    "midi": 51,
                    "time": 48.00004000000012,
                    "velocity": 0.48031496062992124,
                    "duration": 0.0681818750000005
                },
                {
                    "name": "F3",
                    "midi": 53,
                    "time": 48.06822187500012,
                    "velocity": 0.4881889763779528,
                    "duration": 0.0681818750000005
                },
                {
                    "name": "G3",
                    "midi": 55,
                    "time": 48.13640375000012,
                    "velocity": 0.49606299212598426,
                    "duration": 0.0681818750000005
                },
                {
                    "name": "A3",
                    "midi": 57,
                    "time": 48.20458562500012,
                    "velocity": 0.49606299212598426,
                    "duration": 0.0681818750000005
                },
                {
                    "name": "A#3",
                    "midi": 58,
                    "time": 48.27276750000012,
                    "velocity": 0.5039370078740157,
                    "duration": 0.0681818750000005
                },
                {
                    "name": "C4",
                    "midi": 60,
                    "time": 48.34094937500012,
                    "velocity": 0.5118110236220472,
                    "duration": 0.0681818750000005
                },
                {
                    "name": "C#4",
                    "midi": 61,
                    "time": 48.40913125000012,
                    "velocity": 0.5118110236220472,
                    "duration": 0.0681818750000005
                },
                {
                    "name": "D#4",
                    "midi": 63,
                    "time": 48.47731312500012,
                    "velocity": 0.5196850393700787,
                    "duration": 0.0681818750000005
                },
                {
                    "name": "F4",
                    "midi": 65,
                    "time": 48.54549500000012,
                    "velocity": 0.5275590551181102,
                    "duration": 0.0681818750000005
                },
                {
                    "name": "G4",
                    "midi": 67,
                    "time": 48.613676875000124,
                    "velocity": 0.5275590551181102,
                    "duration": 0.0681818750000005
                },
                {
                    "name": "A4",
                    "midi": 69,
                    "time": 48.681858750000124,
                    "velocity": 0.5354330708661418,
                    "duration": 0.0681818750000005
                },
                {
                    "name": "A#4",
                    "midi": 70,
                    "time": 48.750040625000125,
                    "velocity": 0.5354330708661418,
                    "duration": 0.0681818750000005
                },
                {
                    "name": "C5",
                    "midi": 72,
                    "time": 48.818222500000125,
                    "velocity": 0.5433070866141733,
                    "duration": 0.0681818750000005
                },
                {
                    "name": "C#5",
                    "midi": 73,
                    "time": 48.886404375000126,
                    "velocity": 0.5511811023622047,
                    "duration": 0.0681818750000005
                },
                {
                    "name": "D#5",
                    "midi": 75,
                    "time": 48.954586250000126,
                    "velocity": 0.5511811023622047,
                    "duration": 0.0681818750000005
                },
                {
                    "name": "F5",
                    "midi": 77,
                    "time": 49.02276812500013,
                    "velocity": 0.5590551181102362,
                    "duration": 0.0681818750000005
                },
                {
                    "name": "G5",
                    "midi": 79,
                    "time": 49.09095000000013,
                    "velocity": 0.5669291338582677,
                    "duration": 0.0681818750000005
                },
                {
                    "name": "A5",
                    "midi": 81,
                    "time": 49.15913187500013,
                    "velocity": 0.5669291338582677,
                    "duration": 0.0681818750000005
                },
                {
                    "name": "A#5",
                    "midi": 82,
                    "time": 49.22731375000013,
                    "velocity": 0.6062992125984252,
                    "duration": 0.136363750000001
                },
                {
                    "name": "A#4",
                    "midi": 70,
                    "time": 49.22731375000013,
                    "velocity": 0.6062992125984252,
                    "duration": 0.136363750000001
                },
                {
                    "name": "C6",
                    "midi": 84,
                    "time": 49.43185937500013,
                    "velocity": 0.5590551181102362,
                    "duration": 0.0681818750000005
                },
                {
                    "name": "C#5",
                    "midi": 73,
                    "time": 49.50004125000013,
                    "velocity": 0.5039370078740157,
                    "duration": 0.136363750000001
                },
                {
                    "name": "A#5",
                    "midi": 82,
                    "time": 49.50004125000013,
                    "velocity": 0.5984251968503937,
                    "duration": 0.136363750000001
                },
                {
                    "name": "G5",
                    "midi": 79,
                    "time": 49.50004125000013,
                    "velocity": 0.5984251968503937,
                    "duration": 0.136363750000001
                },
                {
                    "name": "A5",
                    "midi": 81,
                    "time": 49.63640500000013,
                    "velocity": 0.5590551181102362,
                    "duration": 0.136363750000001
                },
                {
                    "name": "F#5",
                    "midi": 78,
                    "time": 49.63640500000013,
                    "velocity": 0.5590551181102362,
                    "duration": 0.136363750000001
                },
                {
                    "name": "C5",
                    "midi": 72,
                    "time": 49.63640500000013,
                    "velocity": 0.47244094488188976,
                    "duration": 0.136363750000001
                },
                {
                    "name": "C#5",
                    "midi": 73,
                    "time": 49.77276875000013,
                    "velocity": 0.49606299212598426,
                    "duration": 0.272727500000002
                },
                {
                    "name": "G5",
                    "midi": 79,
                    "time": 49.77276875000013,
                    "velocity": 0.5905511811023622,
                    "duration": 0.272727500000002
                },
                {
                    "name": "A#5",
                    "midi": 82,
                    "time": 49.77276875000013,
                    "velocity": 0.5905511811023622,
                    "duration": 0.272727500000002
                },
                {
                    "name": "C5",
                    "midi": 72,
                    "time": 50.045496250000134,
                    "velocity": 0.47244094488188976,
                    "duration": 0.272727500000002
                },
                {
                    "name": "G5",
                    "midi": 79,
                    "time": 50.045496250000134,
                    "velocity": 0.5590551181102362,
                    "duration": 0.272727500000002
                },
                {
                    "name": "C6",
                    "midi": 84,
                    "time": 50.045496250000134,
                    "velocity": 0.5590551181102362,
                    "duration": 0.272727500000002
                },
                {
                    "name": "G#4",
                    "midi": 68,
                    "time": 50.318223750000136,
                    "velocity": 0.4881889763779528,
                    "duration": 0.272727500000002
                },
                {
                    "name": "C5",
                    "midi": 72,
                    "time": 50.318223750000136,
                    "velocity": 0.4881889763779528,
                    "duration": 0.272727500000002
                },
                {
                    "name": "G#5",
                    "midi": 80,
                    "time": 50.318223750000136,
                    "velocity": 0.5748031496062992,
                    "duration": 0.272727500000002
                },
                {
                    "name": "D#4",
                    "midi": 63,
                    "time": 50.59095125000014,
                    "velocity": 0.47244094488188976,
                    "duration": 0.272727500000002
                },
                {
                    "name": "G#4",
                    "midi": 68,
                    "time": 50.59095125000014,
                    "velocity": 0.47244094488188976,
                    "duration": 0.272727500000002
                },
                {
                    "name": "D#5",
                    "midi": 75,
                    "time": 50.59095125000014,
                    "velocity": 0.5590551181102362,
                    "duration": 0.272727500000002
                },
                {
                    "name": "F4",
                    "midi": 65,
                    "time": 50.86367875000014,
                    "velocity": 0.5118110236220472,
                    "duration": 0.272727500000002
                },
                {
                    "name": "G#4",
                    "midi": 68,
                    "time": 50.86367875000014,
                    "velocity": 0.5118110236220472,
                    "duration": 0.272727500000002
                },
                {
                    "name": "F5",
                    "midi": 77,
                    "time": 50.86367875000014,
                    "velocity": 0.6062992125984252,
                    "duration": 0.272727500000002
                },
                {
                    "name": "G#4",
                    "midi": 68,
                    "time": 51.13640625000014,
                    "velocity": 0.48031496062992124,
                    "duration": 0.272727500000002
                },
                {
                    "name": "C5",
                    "midi": 72,
                    "time": 51.13640625000014,
                    "velocity": 0.48031496062992124,
                    "duration": 0.272727500000002
                },
                {
                    "name": "G#5",
                    "midi": 80,
                    "time": 51.13640625000014,
                    "velocity": 0.5669291338582677,
                    "duration": 0.272727500000002
                },
                {
                    "name": "C#4",
                    "midi": 61,
                    "time": 51.409133750000144,
                    "velocity": 0.5433070866141733,
                    "duration": 0.272727500000002
                },
                {
                    "name": "F4",
                    "midi": 65,
                    "time": 51.409133750000144,
                    "velocity": 0.5433070866141733,
                    "duration": 0.272727500000002
                },
                {
                    "name": "A#4",
                    "midi": 70,
                    "time": 51.409133750000144,
                    "velocity": 0.6377952755905512,
                    "duration": 0.272727500000002
                },
                {
                    "name": "C#5",
                    "midi": 73,
                    "time": 51.409133750000144,
                    "velocity": 0.6377952755905512,
                    "duration": 0.272727500000002
                },
                {
                    "name": "F4",
                    "midi": 65,
                    "time": 51.681861250000146,
                    "velocity": 0.5196850393700787,
                    "duration": 0.272727500000002
                },
                {
                    "name": "G#4",
                    "midi": 68,
                    "time": 51.681861250000146,
                    "velocity": 0.5196850393700787,
                    "duration": 0.272727500000002
                },
                {
                    "name": "C#5",
                    "midi": 73,
                    "time": 51.681861250000146,
                    "velocity": 0.6141732283464567,
                    "duration": 0.272727500000002
                },
                {
                    "name": "F5",
                    "midi": 77,
                    "time": 51.681861250000146,
                    "velocity": 0.6141732283464567,
                    "duration": 0.272727500000002
                },
                {
                    "name": "A#3",
                    "midi": 58,
                    "time": 51.95458875000015,
                    "velocity": 0.5826771653543307,
                    "duration": 0.272727500000002
                },
                {
                    "name": "D#4",
                    "midi": 63,
                    "time": 51.95458875000015,
                    "velocity": 0.5826771653543307,
                    "duration": 0.272727500000002
                },
                {
                    "name": "G#4",
                    "midi": 68,
                    "time": 51.95458875000015,
                    "velocity": 0.6850393700787402,
                    "duration": 0.272727500000002
                },
                {
                    "name": "A#4",
                    "midi": 70,
                    "time": 51.95458875000015,
                    "velocity": 0.6850393700787402,
                    "duration": 0.272727500000002
                },
                {
                    "name": "C#4",
                    "midi": 61,
                    "time": 52.22731625000015,
                    "velocity": 0.5433070866141733,
                    "duration": 0.272727500000002
                },
                {
                    "name": "D#4",
                    "midi": 63,
                    "time": 52.22731625000015,
                    "velocity": 0.5433070866141733,
                    "duration": 0.272727500000002
                },
                {
                    "name": "G4",
                    "midi": 67,
                    "time": 52.22731625000015,
                    "velocity": 0.5433070866141733,
                    "duration": 0.272727500000002
                },
                {
                    "name": "A#4",
                    "midi": 70,
                    "time": 52.22731625000015,
                    "velocity": 0.6456692913385826,
                    "duration": 0.272727500000002
                },
                {
                    "name": "D#5",
                    "midi": 75,
                    "time": 52.22731625000015,
                    "velocity": 0.6456692913385826,
                    "duration": 0.272727500000002
                },
                {
                    "name": "F5",
                    "midi": 77,
                    "time": 52.50004375000015,
                    "velocity": 0.6456692913385826,
                    "duration": 0.409091250000003
                },
                {
                    "name": "C#6",
                    "midi": 85,
                    "time": 52.50004375000015,
                    "velocity": 0.6456692913385826,
                    "duration": 0.409091250000003
                },
                {
                    "name": "F6",
                    "midi": 89,
                    "time": 52.50004375000015,
                    "velocity": 0.7637795275590551,
                    "duration": 0.409091250000003
                },
                {
                    "name": "D#5",
                    "midi": 75,
                    "time": 52.909135000000155,
                    "velocity": 0.6220472440944882,
                    "duration": 0.12272737499999664
                },
                {
                    "name": "C6",
                    "midi": 84,
                    "time": 52.909135000000155,
                    "velocity": 0.6220472440944882,
                    "duration": 0.12272737499999664
                },
                {
                    "name": "D#6",
                    "midi": 87,
                    "time": 52.909135000000155,
                    "velocity": 0.7322834645669292,
                    "duration": 0.12272737499999664
                },
                {
                    "name": "D#5",
                    "midi": 75,
                    "time": 53.04549875000015,
                    "velocity": 0.6220472440944882,
                    "duration": 0.272727500000002
                },
                {
                    "name": "C6",
                    "midi": 84,
                    "time": 53.04549875000015,
                    "velocity": 0.6220472440944882,
                    "duration": 0.272727500000002
                },
                {
                    "name": "D#6",
                    "midi": 87,
                    "time": 53.04549875000015,
                    "velocity": 0.7322834645669292,
                    "duration": 0.272727500000002
                },
                {
                    "name": "D#4",
                    "midi": 63,
                    "time": 53.25004437500015,
                    "velocity": 0.5590551181102362,
                    "duration": 0.0681818750000005
                },
                {
                    "name": "D#4",
                    "midi": 63,
                    "time": 53.31822625000015,
                    "velocity": 0.5590551181102362,
                    "duration": 0.054545500000003244
                },
                {
                    "name": "F4",
                    "midi": 65,
                    "time": 53.372771750000155,
                    "velocity": 0.5590551181102362,
                    "duration": 0.054545500000003244
                },
                {
                    "name": "D#4",
                    "midi": 63,
                    "time": 53.42731725000016,
                    "velocity": 0.5590551181102362,
                    "duration": 0.054545500000003244
                },
                {
                    "name": "D4",
                    "midi": 62,
                    "time": 53.48186275000016,
                    "velocity": 0.5590551181102362,
                    "duration": 0.054545500000003244
                },
                {
                    "name": "D#4",
                    "midi": 63,
                    "time": 53.536408250000164,
                    "velocity": 0.5590551181102362,
                    "duration": 0.054545500000003244
                },
                {
                    "name": "G#4",
                    "midi": 68,
                    "time": 53.59095375000017,
                    "velocity": 0.6850393700787402,
                    "duration": 0.136363750000001
                },
                {
                    "name": "C5",
                    "midi": 72,
                    "time": 53.86368125000017,
                    "velocity": 0.5826771653543307,
                    "duration": 0.136363750000001
                },
                {
                    "name": "G#5",
                    "midi": 80,
                    "time": 53.86368125000017,
                    "velocity": 0.5826771653543307,
                    "duration": 0.136363750000001
                },
                {
                    "name": "C6",
                    "midi": 84,
                    "time": 53.86368125000017,
                    "velocity": 0.6929133858267716,
                    "duration": 0.136363750000001
                },
                {
                    "name": "C#5",
                    "midi": 73,
                    "time": 54.00004500000017,
                    "velocity": 0.5748031496062992,
                    "duration": 0.136363750000001
                },
                {
                    "name": "A#5",
                    "midi": 82,
                    "time": 54.00004500000017,
                    "velocity": 0.5748031496062992,
                    "duration": 0.136363750000001
                },
                {
                    "name": "C#6",
                    "midi": 85,
                    "time": 54.00004500000017,
                    "velocity": 0.6771653543307087,
                    "duration": 0.136363750000001
                },
                {
                    "name": "F5",
                    "midi": 77,
                    "time": 54.13640875000017,
                    "velocity": 0.6220472440944882,
                    "duration": 0.136363750000001
                },
                {
                    "name": "C#6",
                    "midi": 85,
                    "time": 54.13640875000017,
                    "velocity": 0.6220472440944882,
                    "duration": 0.136363750000001
                },
                {
                    "name": "F6",
                    "midi": 89,
                    "time": 54.13640875000017,
                    "velocity": 0.7322834645669292,
                    "duration": 0.136363750000001
                },
                {
                    "name": "D#5",
                    "midi": 75,
                    "time": 54.34095437500017,
                    "velocity": 0.5826771653543307,
                    "duration": 0.06136368749999832
                },
                {
                    "name": "C6",
                    "midi": 84,
                    "time": 54.34095437500017,
                    "velocity": 0.5826771653543307,
                    "duration": 0.06136368749999832
                },
                {
                    "name": "D#6",
                    "midi": 87,
                    "time": 54.34095437500017,
                    "velocity": 0.6929133858267716,
                    "duration": 0.06136368749999832
                },
                {
                    "name": "D#5",
                    "midi": 75,
                    "time": 54.409136250000174,
                    "velocity": 0.5826771653543307,
                    "duration": 0.136363750000001
                },
                {
                    "name": "C6",
                    "midi": 84,
                    "time": 54.409136250000174,
                    "velocity": 0.5826771653543307,
                    "duration": 0.136363750000001
                },
                {
                    "name": "D#6",
                    "midi": 87,
                    "time": 54.409136250000174,
                    "velocity": 0.7322834645669292,
                    "duration": 0.136363750000001
                },
                {
                    "name": "D5",
                    "midi": 74,
                    "time": 54.545500000000175,
                    "velocity": 0.5826771653543307,
                    "duration": 0.136363750000001
                },
                {
                    "name": "B5",
                    "midi": 83,
                    "time": 54.545500000000175,
                    "velocity": 0.5826771653543307,
                    "duration": 0.136363750000001
                },
                {
                    "name": "D6",
                    "midi": 86,
                    "time": 54.545500000000175,
                    "velocity": 0.6929133858267716,
                    "duration": 0.136363750000001
                },
                {
                    "name": "D#5",
                    "midi": 75,
                    "time": 54.681863750000176,
                    "velocity": 0.5826771653543307,
                    "duration": 0.272727500000002
                },
                {
                    "name": "C6",
                    "midi": 84,
                    "time": 54.681863750000176,
                    "velocity": 0.5826771653543307,
                    "duration": 0.272727500000002
                },
                {
                    "name": "D#6",
                    "midi": 87,
                    "time": 54.681863750000176,
                    "velocity": 0.6929133858267716,
                    "duration": 0.272727500000002
                },
                {
                    "name": "D#4",
                    "midi": 63,
                    "time": 54.88640937500018,
                    "velocity": 0.5511811023622047,
                    "duration": 0.0681818750000005
                },
                {
                    "name": "D#4",
                    "midi": 63,
                    "time": 54.95459125000018,
                    "velocity": 0.5511811023622047,
                    "duration": 0.054545500000003244
                },
                {
                    "name": "F4",
                    "midi": 65,
                    "time": 55.00913675000018,
                    "velocity": 0.5511811023622047,
                    "duration": 0.054545500000003244
                },
                {
                    "name": "D#4",
                    "midi": 63,
                    "time": 55.063682250000184,
                    "velocity": 0.5511811023622047,
                    "duration": 0.054545500000003244
                },
                {
                    "name": "D4",
                    "midi": 62,
                    "time": 55.11822775000019,
                    "velocity": 0.5511811023622047,
                    "duration": 0.054545500000003244
                },
                {
                    "name": "D#4",
                    "midi": 63,
                    "time": 55.17277325000019,
                    "velocity": 0.5511811023622047,
                    "duration": 0.054545500000003244
                },
                {
                    "name": "G#4",
                    "midi": 68,
                    "time": 55.227318750000194,
                    "velocity": 0.6850393700787402,
                    "duration": 0.136363750000001
                },
                {
                    "name": "C6",
                    "midi": 84,
                    "time": 55.500046250000196,
                    "velocity": 0.6929133858267716,
                    "duration": 0.136363750000001
                },
                {
                    "name": "C5",
                    "midi": 72,
                    "time": 55.500046250000196,
                    "velocity": 0.5826771653543307,
                    "duration": 0.136363750000001
                },
                {
                    "name": "G#5",
                    "midi": 80,
                    "time": 55.500046250000196,
                    "velocity": 0.5826771653543307,
                    "duration": 0.136363750000001
                },
                {
                    "name": "C#6",
                    "midi": 85,
                    "time": 55.6364100000002,
                    "velocity": 0.6771653543307087,
                    "duration": 0.136363750000001
                },
                {
                    "name": "C#5",
                    "midi": 73,
                    "time": 55.6364100000002,
                    "velocity": 0.5748031496062992,
                    "duration": 0.136363750000001
                },
                {
                    "name": "A#5",
                    "midi": 82,
                    "time": 55.6364100000002,
                    "velocity": 0.5748031496062992,
                    "duration": 0.136363750000001
                },
                {
                    "name": "C#6",
                    "midi": 85,
                    "time": 55.7727737500002,
                    "velocity": 0.6220472440944882,
                    "duration": 0.136363750000001
                },
                {
                    "name": "F6",
                    "midi": 89,
                    "time": 55.7727737500002,
                    "velocity": 0.7322834645669292,
                    "duration": 0.136363750000001
                },
                {
                    "name": "F5",
                    "midi": 77,
                    "time": 55.7727737500002,
                    "velocity": 0.6220472440944882,
                    "duration": 0.136363750000001
                },
                {
                    "name": "D#5",
                    "midi": 75,
                    "time": 55.9091375000002,
                    "velocity": 0.5826771653543307,
                    "duration": 0.272727500000002
                },
                {
                    "name": "C6",
                    "midi": 84,
                    "time": 55.9091375000002,
                    "velocity": 0.5826771653543307,
                    "duration": 0.272727500000002
                },
                {
                    "name": "D#6",
                    "midi": 87,
                    "time": 55.9091375000002,
                    "velocity": 0.6929133858267716,
                    "duration": 0.0681818750000005
                },
                {
                    "name": "F6",
                    "midi": 89,
                    "time": 55.9773193750002,
                    "velocity": 0.6377952755905512,
                    "duration": 0.0681818750000005
                },
                {
                    "name": "D#6",
                    "midi": 87,
                    "time": 56.0455012500002,
                    "velocity": 0.7322834645669292,
                    "duration": 0.136363750000001
                },
                {
                    "name": "B5",
                    "midi": 83,
                    "time": 56.1818650000002,
                    "velocity": 0.5826771653543307,
                    "duration": 0.136363750000001
                },
                {
                    "name": "D6",
                    "midi": 86,
                    "time": 56.1818650000002,
                    "velocity": 0.6929133858267716,
                    "duration": 0.136363750000001
                },
                {
                    "name": "D5",
                    "midi": 74,
                    "time": 56.1818650000002,
                    "velocity": 0.5826771653543307,
                    "duration": 0.136363750000001
                },
                {
                    "name": "C#6",
                    "midi": 85,
                    "time": 56.3182287500002,
                    "velocity": 0.6220472440944882,
                    "duration": 0.136363750000001
                },
                {
                    "name": "F6",
                    "midi": 89,
                    "time": 56.3182287500002,
                    "velocity": 0.7322834645669292,
                    "duration": 0.136363750000001
                },
                {
                    "name": "F5",
                    "midi": 77,
                    "time": 56.3182287500002,
                    "velocity": 0.6220472440944882,
                    "duration": 0.136363750000001
                },
                {
                    "name": "C6",
                    "midi": 84,
                    "time": 56.4545925000002,
                    "velocity": 0.5826771653543307,
                    "duration": 0.272727500000002
                },
                {
                    "name": "D#6",
                    "midi": 87,
                    "time": 56.4545925000002,
                    "velocity": 0.6929133858267716,
                    "duration": 0.0681818750000005
                },
                {
                    "name": "D#5",
                    "midi": 75,
                    "time": 56.4545925000002,
                    "velocity": 0.5826771653543307,
                    "duration": 0.272727500000002
                },
                {
                    "name": "F6",
                    "midi": 89,
                    "time": 56.5227743750002,
                    "velocity": 0.6377952755905512,
                    "duration": 0.0681818750000005
                },
                {
                    "name": "D#6",
                    "midi": 87,
                    "time": 56.590956250000204,
                    "velocity": 0.7322834645669292,
                    "duration": 0.136363750000001
                },
                {
                    "name": "D5",
                    "midi": 74,
                    "time": 56.727320000000205,
                    "velocity": 0.5826771653543307,
                    "duration": 0.136363750000001
                },
                {
                    "name": "B5",
                    "midi": 83,
                    "time": 56.727320000000205,
                    "velocity": 0.5826771653543307,
                    "duration": 0.136363750000001
                },
                {
                    "name": "D6",
                    "midi": 86,
                    "time": 56.727320000000205,
                    "velocity": 0.6929133858267716,
                    "duration": 0.136363750000001
                },
                {
                    "name": "D#5",
                    "midi": 75,
                    "time": 56.863683750000206,
                    "velocity": 0.5826771653543307,
                    "duration": 0.2045456250000015
                },
                {
                    "name": "C6",
                    "midi": 84,
                    "time": 56.863683750000206,
                    "velocity": 0.5826771653543307,
                    "duration": 0.2045456250000015
                },
                {
                    "name": "D#6",
                    "midi": 87,
                    "time": 56.863683750000206,
                    "velocity": 0.6929133858267716,
                    "duration": 0.2045456250000015
                },
                {
                    "name": "D#5",
                    "midi": 75,
                    "time": 57.06822937500021,
                    "velocity": 0.5669291338582677,
                    "duration": 0.2727274999999949
                },
                {
                    "name": "A#5",
                    "midi": 82,
                    "time": 57.102320312500204,
                    "velocity": 0.5669291338582677,
                    "duration": 0.2386365624999982
                },
                {
                    "name": "F#6",
                    "midi": 90,
                    "time": 57.1364112500002,
                    "velocity": 0.6692913385826772,
                    "duration": 0.2045456250000015
                },
                {
                    "name": "D#5",
                    "midi": 75,
                    "time": 57.3409568750002,
                    "velocity": 0.5511811023622047,
                    "duration": 0.2727274999999878
                },
                {
                    "name": "A5",
                    "midi": 81,
                    "time": 57.3750478125002,
                    "velocity": 0.5511811023622047,
                    "duration": 0.2386365624999911
                },
                {
                    "name": "F6",
                    "midi": 89,
                    "time": 57.409138750000196,
                    "velocity": 0.6535433070866141,
                    "duration": 0.2045456249999944
                },
                {
                    "name": "C5",
                    "midi": 72,
                    "time": 57.57959343750019,
                    "velocity": 0.5511811023622047,
                    "duration": 0.3068184374999916
                },
                {
                    "name": "D#5",
                    "midi": 75,
                    "time": 57.61368437500019,
                    "velocity": 0.5511811023622047,
                    "duration": 0.2727274999999949
                },
                {
                    "name": "F5",
                    "midi": 77,
                    "time": 57.64777531250019,
                    "velocity": 0.5511811023622047,
                    "duration": 0.2386365624999982
                },
                {
                    "name": "C6",
                    "midi": 84,
                    "time": 57.68186625000018,
                    "velocity": 0.6535433070866141,
                    "duration": 0.2045456250000015
                },
                {
                    "name": "A#4",
                    "midi": 70,
                    "time": 57.886411875000185,
                    "velocity": 0.5511811023622047,
                    "duration": 0.2727274999999949
                },
                {
                    "name": "F5",
                    "midi": 77,
                    "time": 57.92050281250018,
                    "velocity": 0.5511811023622047,
                    "duration": 0.2386365624999982
                },
                {
                    "name": "C#6",
                    "midi": 85,
                    "time": 57.95459375000018,
                    "velocity": 0.6535433070866141,
                    "duration": 0.2045456250000015
                },
                {
                    "name": "F#5",
                    "midi": 78,
                    "time": 58.22732125000018,
                    "velocity": 0.6299212598425197,
                    "duration": 0.0909091666666697
                },
                {
                    "name": "F#4",
                    "midi": 66,
                    "time": 58.31823041666685,
                    "velocity": 0.6299212598425197,
                    "duration": 0.0909091666666697
                },
                {
                    "name": "F#5",
                    "midi": 78,
                    "time": 58.40913958333352,
                    "velocity": 0.6299212598425197,
                    "duration": 0.0909091666666697
                },
                {
                    "name": "F4",
                    "midi": 65,
                    "time": 58.50004875000019,
                    "velocity": 0.5590551181102362,
                    "duration": 0.272727500000002
                },
                {
                    "name": "F5",
                    "midi": 77,
                    "time": 58.50004875000019,
                    "velocity": 0.6614173228346457,
                    "duration": 0.272727500000002
                },
                {
                    "name": "C#4",
                    "midi": 61,
                    "time": 58.77277625000019,
                    "velocity": 0.5826771653543307,
                    "duration": 0.272727500000002
                },
                {
                    "name": "C#5",
                    "midi": 73,
                    "time": 58.77277625000019,
                    "velocity": 0.6220472440944882,
                    "duration": 0.272727500000002
                },
                {
                    "name": "F#5",
                    "midi": 78,
                    "time": 59.045503750000194,
                    "velocity": 0.6456692913385826,
                    "duration": 0.409091250000003
                },
                {
                    "name": "D#6",
                    "midi": 87,
                    "time": 59.045503750000194,
                    "velocity": 0.6456692913385826,
                    "duration": 0.409091250000003
                },
                {
                    "name": "F#6",
                    "midi": 90,
                    "time": 59.045503750000194,
                    "velocity": 0.7637795275590551,
                    "duration": 0.409091250000003
                },
                {
                    "name": "F5",
                    "midi": 77,
                    "time": 59.4545950000002,
                    "velocity": 0.6220472440944882,
                    "duration": 0.12272737499999664
                },
                {
                    "name": "C#6",
                    "midi": 85,
                    "time": 59.4545950000002,
                    "velocity": 0.6220472440944882,
                    "duration": 0.12272737499999664
                },
                {
                    "name": "F6",
                    "midi": 89,
                    "time": 59.4545950000002,
                    "velocity": 0.7322834645669292,
                    "duration": 0.12272737499999664
                },
                {
                    "name": "F5",
                    "midi": 77,
                    "time": 59.59095875000019,
                    "velocity": 0.6220472440944882,
                    "duration": 0.272727500000002
                },
                {
                    "name": "C#6",
                    "midi": 85,
                    "time": 59.59095875000019,
                    "velocity": 0.6220472440944882,
                    "duration": 0.272727500000002
                },
                {
                    "name": "F6",
                    "midi": 89,
                    "time": 59.59095875000019,
                    "velocity": 0.7322834645669292,
                    "duration": 0.272727500000002
                },
                {
                    "name": "F4",
                    "midi": 65,
                    "time": 59.79550437500019,
                    "velocity": 0.5590551181102362,
                    "duration": 0.0681818750000005
                },
                {
                    "name": "F4",
                    "midi": 65,
                    "time": 59.86368625000019,
                    "velocity": 0.5590551181102362,
                    "duration": 0.054545500000003244
                },
                {
                    "name": "F#4",
                    "midi": 66,
                    "time": 59.918231750000196,
                    "velocity": 0.5590551181102362,
                    "duration": 0.054545500000003244
                },
                {
                    "name": "F4",
                    "midi": 65,
                    "time": 59.9727772500002,
                    "velocity": 0.5590551181102362,
                    "duration": 0.054545500000003244
                },
                {
                    "name": "E4",
                    "midi": 64,
                    "time": 60.0273227500002,
                    "velocity": 0.5590551181102362,
                    "duration": 0.054545500000003244
                },
                {
                    "name": "F4",
                    "midi": 65,
                    "time": 60.081868250000205,
                    "velocity": 0.5590551181102362,
                    "duration": 0.054545500000003244
                },
                {
                    "name": "A#4",
                    "midi": 70,
                    "time": 60.13641375000021,
                    "velocity": 0.6850393700787402,
                    "duration": 0.136363750000001
                },
                {
                    "name": "C#5",
                    "midi": 73,
                    "time": 60.40914125000021,
                    "velocity": 0.5826771653543307,
                    "duration": 0.136363750000001
                },
                {
                    "name": "C#6",
                    "midi": 85,
                    "time": 60.40914125000021,
                    "velocity": 0.6929133858267716,
                    "duration": 0.136363750000001
                },
                {
                    "name": "A#5",
                    "midi": 82,
                    "time": 60.40914125000021,
                    "velocity": 0.5826771653543307,
                    "duration": 0.136363750000001
                },
                {
                    "name": "D#5",
                    "midi": 75,
                    "time": 60.54550500000021,
                    "velocity": 0.5748031496062992,
                    "duration": 0.136363750000001
                },
                {
                    "name": "C6",
                    "midi": 84,
                    "time": 60.54550500000021,
                    "velocity": 0.5748031496062992,
                    "duration": 0.136363750000001
                },
                {
                    "name": "D#6",
                    "midi": 87,
                    "time": 60.54550500000021,
                    "velocity": 0.6771653543307087,
                    "duration": 0.136363750000001
                },
                {
                    "name": "F#6",
                    "midi": 90,
                    "time": 60.68186875000021,
                    "velocity": 0.7322834645669292,
                    "duration": 0.136363750000001
                },
                {
                    "name": "F#5",
                    "midi": 78,
                    "time": 60.68186875000021,
                    "velocity": 0.6220472440944882,
                    "duration": 0.136363750000001
                },
                {
                    "name": "D#6",
                    "midi": 87,
                    "time": 60.68186875000021,
                    "velocity": 0.6220472440944882,
                    "duration": 0.136363750000001
                },
                {
                    "name": "F5",
                    "midi": 77,
                    "time": 60.886414375000214,
                    "velocity": 0.5826771653543307,
                    "duration": 0.06136368749999832
                },
                {
                    "name": "C#6",
                    "midi": 85,
                    "time": 60.886414375000214,
                    "velocity": 0.5826771653543307,
                    "duration": 0.06136368749999832
                },
                {
                    "name": "F6",
                    "midi": 89,
                    "time": 60.886414375000214,
                    "velocity": 0.6929133858267716,
                    "duration": 0.06136368749999832
                },
                {
                    "name": "C#6",
                    "midi": 85,
                    "time": 60.954596250000215,
                    "velocity": 0.5826771653543307,
                    "duration": 0.136363750000001
                },
                {
                    "name": "F5",
                    "midi": 77,
                    "time": 60.954596250000215,
                    "velocity": 0.5826771653543307,
                    "duration": 0.136363750000001
                },
                {
                    "name": "F6",
                    "midi": 89,
                    "time": 60.954596250000215,
                    "velocity": 0.7322834645669292,
                    "duration": 0.136363750000001
                },
                {
                    "name": "E5",
                    "midi": 76,
                    "time": 61.090960000000216,
                    "velocity": 0.5826771653543307,
                    "duration": 0.136363750000001
                },
                {
                    "name": "E6",
                    "midi": 88,
                    "time": 61.090960000000216,
                    "velocity": 0.6929133858267716,
                    "duration": 0.136363750000001
                },
                {
                    "name": "C6",
                    "midi": 84,
                    "time": 61.090960000000216,
                    "velocity": 0.5826771653543307,
                    "duration": 0.136363750000001
                },
                {
                    "name": "F5",
                    "midi": 77,
                    "time": 61.22732375000022,
                    "velocity": 0.6929133858267716,
                    "duration": 0.272727500000002
                },
                {
                    "name": "C#6",
                    "midi": 85,
                    "time": 61.22732375000022,
                    "velocity": 0.5826771653543307,
                    "duration": 0.272727500000002
                },
                {
                    "name": "F6",
                    "midi": 89,
                    "time": 61.22732375000022,
                    "velocity": 0.6929133858267716,
                    "duration": 0.272727500000002
                },
                {
                    "name": "F4",
                    "midi": 65,
                    "time": 61.43186937500022,
                    "velocity": 0.5590551181102362,
                    "duration": 0.0681818750000005
                },
                {
                    "name": "F4",
                    "midi": 65,
                    "time": 61.50005125000022,
                    "velocity": 0.5590551181102362,
                    "duration": 0.054545500000003244
                },
                {
                    "name": "F#4",
                    "midi": 66,
                    "time": 61.55459675000022,
                    "velocity": 0.5590551181102362,
                    "duration": 0.054545500000003244
                },
                {
                    "name": "F4",
                    "midi": 65,
                    "time": 61.609142250000225,
                    "velocity": 0.5590551181102362,
                    "duration": 0.054545500000003244
                },
                {
                    "name": "E4",
                    "midi": 64,
                    "time": 61.66368775000023,
                    "velocity": 0.5590551181102362,
                    "duration": 0.054545500000003244
                },
                {
                    "name": "F4",
                    "midi": 65,
                    "time": 61.71823325000023,
                    "velocity": 0.5590551181102362,
                    "duration": 0.054545500000003244
                },
                {
                    "name": "A#4",
                    "midi": 70,
                    "time": 61.772778750000235,
                    "velocity": 0.6850393700787402,
                    "duration": 0.272727500000002
                },
                {
                    "name": "G5",
                    "midi": 79,
                    "time": 62.04550625000024,
                    "velocity": 0.6377952755905512,
                    "duration": 0.136363750000001
                },
                {
                    "name": "G6",
                    "midi": 91,
                    "time": 62.04550625000024,
                    "velocity": 0.7559055118110236,
                    "duration": 0.136363750000001
                },
                {
                    "name": "C#6",
                    "midi": 85,
                    "time": 62.04550625000024,
                    "velocity": 0.6377952755905512,
                    "duration": 0.136363750000001
                },
                {
                    "name": "G#5",
                    "midi": 80,
                    "time": 62.18187000000024,
                    "velocity": 0.6299212598425197,
                    "duration": 0.136363750000001
                },
                {
                    "name": "G#6",
                    "midi": 92,
                    "time": 62.18187000000024,
                    "velocity": 0.7401574803149606,
                    "duration": 0.136363750000001
                },
                {
                    "name": "C6",
                    "midi": 84,
                    "time": 62.31823375000024,
                    "velocity": 0.6692913385826772,
                    "duration": 0.136363750000001
                },
                {
                    "name": "C7",
                    "midi": 96,
                    "time": 62.31823375000024,
                    "velocity": 0.7952755905511811,
                    "duration": 0.136363750000001
                },
                {
                    "name": "D#6",
                    "midi": 87,
                    "time": 62.45459750000024,
                    "velocity": 0.5826771653543307,
                    "duration": 0.136363750000001
                },
                {
                    "name": "G6",
                    "midi": 91,
                    "time": 62.45459750000024,
                    "velocity": 0.6929133858267716,
                    "duration": 0.136363750000001
                },
                {
                    "name": "C7",
                    "midi": 96,
                    "time": 62.59096125000024,
                    "velocity": 0.7322834645669292,
                    "duration": 0.136363750000001
                },
                {
                    "name": "C6",
                    "midi": 84,
                    "time": 62.59096125000024,
                    "velocity": 0.6220472440944882,
                    "duration": 0.136363750000001
                },
                {
                    "name": "A#6",
                    "midi": 94,
                    "time": 62.79550687500024,
                    "velocity": 0.7244094488188977,
                    "duration": 0.06136368749999832
                },
                {
                    "name": "A#5",
                    "midi": 82,
                    "time": 62.79550687500024,
                    "velocity": 0.6141732283464567,
                    "duration": 0.06136368749999832
                },
                {
                    "name": "A#5",
                    "midi": 82,
                    "time": 62.86368875000024,
                    "velocity": 0.6377952755905512,
                    "duration": 0.136363750000001
                },
                {
                    "name": "A#6",
                    "midi": 94,
                    "time": 62.86368875000024,
                    "velocity": 0.7637795275590551,
                    "duration": 0.136363750000001
                },
                {
                    "name": "C6",
                    "midi": 84,
                    "time": 63.000052500000244,
                    "velocity": 0.5511811023622047,
                    "duration": 0.136363750000001
                },
                {
                    "name": "D#6",
                    "midi": 87,
                    "time": 63.000052500000244,
                    "velocity": 0.6614173228346457,
                    "duration": 0.136363750000001
                },
                {
                    "name": "A#6",
                    "midi": 94,
                    "time": 63.136416250000245,
                    "velocity": 0.7086614173228346,
                    "duration": 0.136363750000001
                },
                {
                    "name": "A#5",
                    "midi": 82,
                    "time": 63.136416250000245,
                    "velocity": 0.5905511811023622,
                    "duration": 0.136363750000001
                },
                {
                    "name": "G#5",
                    "midi": 80,
                    "time": 63.34096187500025,
                    "velocity": 0.5354330708661418,
                    "duration": 0.06136368749999832
                },
                {
                    "name": "G#6",
                    "midi": 92,
                    "time": 63.34096187500025,
                    "velocity": 0.6299212598425197,
                    "duration": 0.06136368749999832
                },
                {
                    "name": "G#5",
                    "midi": 80,
                    "time": 63.40914375000025,
                    "velocity": 0.6220472440944882,
                    "duration": 0.136363750000001
                },
                {
                    "name": "G#6",
                    "midi": 92,
                    "time": 63.40914375000025,
                    "velocity": 0.7322834645669292,
                    "duration": 0.136363750000001
                },
                {
                    "name": "D#6",
                    "midi": 87,
                    "time": 63.54550750000025,
                    "velocity": 0.6220472440944882,
                    "duration": 0.136363750000001
                },
                {
                    "name": "A#5",
                    "midi": 82,
                    "time": 63.54550750000025,
                    "velocity": 0.5275590551181102,
                    "duration": 0.136363750000001
                },
                {
                    "name": "G#6",
                    "midi": 92,
                    "time": 63.68187125000025,
                    "velocity": 0.6929133858267716,
                    "duration": 0.136363750000001
                },
                {
                    "name": "G#5",
                    "midi": 80,
                    "time": 63.68187125000025,
                    "velocity": 0.5826771653543307,
                    "duration": 0.136363750000001
                },
                {
                    "name": "G6",
                    "midi": 91,
                    "time": 63.88641687500025,
                    "velocity": 0.6220472440944882,
                    "duration": 0.06136368749999832
                },
                {
                    "name": "G5",
                    "midi": 79,
                    "time": 63.88641687500025,
                    "velocity": 0.5275590551181102,
                    "duration": 0.06136368749999832
                },
                {
                    "name": "G5",
                    "midi": 79,
                    "time": 63.95459875000025,
                    "velocity": 0.5905511811023622,
                    "duration": 0.1363637499999939
                },
                {
                    "name": "G6",
                    "midi": 91,
                    "time": 63.95459875000025,
                    "velocity": 0.7086614173228346,
                    "duration": 0.1363637499999939
                },
                {
                    "name": "D6",
                    "midi": 86,
                    "time": 64.09096250000024,
                    "velocity": 0.6141732283464567,
                    "duration": 0.136363750000001
                },
                {
                    "name": "A#5",
                    "midi": 82,
                    "time": 64.09096250000024,
                    "velocity": 0.5196850393700787,
                    "duration": 0.136363750000001
                },
                {
                    "name": "G5",
                    "midi": 79,
                    "time": 64.22732625000025,
                    "velocity": 0.5669291338582677,
                    "duration": 0.136363750000001
                },
                {
                    "name": "G6",
                    "midi": 91,
                    "time": 64.22732625000025,
                    "velocity": 0.6692913385826772,
                    "duration": 0.136363750000001
                },
                {
                    "name": "F6",
                    "midi": 89,
                    "time": 64.43187187500024,
                    "velocity": 0.6377952755905512,
                    "duration": 0.061363687500005426
                },
                {
                    "name": "F5",
                    "midi": 77,
                    "time": 64.43187187500024,
                    "velocity": 0.5354330708661418,
                    "duration": 0.061363687500005426
                },
                {
                    "name": "F6",
                    "midi": 89,
                    "time": 64.50005375000025,
                    "velocity": 0.6929133858267716,
                    "duration": 0.136363750000001
                },
                {
                    "name": "F5",
                    "midi": 77,
                    "time": 64.50005375000025,
                    "velocity": 0.5748031496062992,
                    "duration": 0.136363750000001
                },
                {
                    "name": "A#5",
                    "midi": 82,
                    "time": 64.63641750000025,
                    "velocity": 0.5905511811023622,
                    "duration": 0.136363750000001
                },
                {
                    "name": "G5",
                    "midi": 79,
                    "time": 64.63641750000025,
                    "velocity": 0.5039370078740157,
                    "duration": 0.136363750000001
                },
                {
                    "name": "F5",
                    "midi": 77,
                    "time": 64.77278125000025,
                    "velocity": 0.5433070866141733,
                    "duration": 0.136363750000001
                },
                {
                    "name": "F6",
                    "midi": 89,
                    "time": 64.77278125000025,
                    "velocity": 0.6456692913385826,
                    "duration": 0.136363750000001
                },
                {
                    "name": "D#5",
                    "midi": 75,
                    "time": 64.97732687500024,
                    "velocity": 0.5039370078740157,
                    "duration": 0.0681818749999934
                },
                {
                    "name": "D#6",
                    "midi": 87,
                    "time": 64.97732687500024,
                    "velocity": 0.5905511811023622,
                    "duration": 0.0681818749999934
                },
                {
                    "name": "C#5",
                    "midi": 73,
                    "time": 65.04550875000024,
                    "velocity": 0.5905511811023622,
                    "duration": 0.136363750000001
                },
                {
                    "name": "C#6",
                    "midi": 85,
                    "time": 65.04550875000024,
                    "velocity": 0.7086614173228346,
                    "duration": 0.136363750000001
                },
                {
                    "name": "F5",
                    "midi": 77,
                    "time": 65.18187250000024,
                    "velocity": 0.5039370078740157,
                    "duration": 0.136363750000001
                },
                {
                    "name": "G#5",
                    "midi": 80,
                    "time": 65.18187250000024,
                    "velocity": 0.5905511811023622,
                    "duration": 0.136363750000001
                },
                {
                    "name": "C#6",
                    "midi": 85,
                    "time": 65.31823625000024,
                    "velocity": 0.6614173228346457,
                    "duration": 0.136363750000001
                },
                {
                    "name": "C#5",
                    "midi": 73,
                    "time": 65.31823625000024,
                    "velocity": 0.5511811023622047,
                    "duration": 0.136363750000001
                },
                {
                    "name": "C6",
                    "midi": 84,
                    "time": 65.52278187500023,
                    "velocity": 0.5826771653543307,
                    "duration": 0.0681818749999934
                },
                {
                    "name": "C5",
                    "midi": 72,
                    "time": 65.52278187500023,
                    "velocity": 0.49606299212598426,
                    "duration": 0.0681818749999934
                },
                {
                    "name": "F4",
                    "midi": 65,
                    "time": 65.59096375000023,
                    "velocity": 0.7244094488188977,
                    "duration": 0.545455000000004
                },
                {
                    "name": "G4",
                    "midi": 67,
                    "time": 66.13641875000023,
                    "velocity": 0.5511811023622047,
                    "duration": 0.0681818749999934
                },
                {
                    "name": "G#4",
                    "midi": 68,
                    "time": 66.20460062500023,
                    "velocity": 0.5590551181102362,
                    "duration": 0.0681818749999934
                },
                {
                    "name": "G4",
                    "midi": 67,
                    "time": 66.27278250000022,
                    "velocity": 0.5590551181102362,
                    "duration": 0.0681818749999934
                },
                {
                    "name": "G#4",
                    "midi": 68,
                    "time": 66.34096437500021,
                    "velocity": 0.5669291338582677,
                    "duration": 0.0681818749999934
                },
                {
                    "name": "F4",
                    "midi": 65,
                    "time": 66.4091462500002,
                    "velocity": 0.5669291338582677,
                    "duration": 0.136363750000001
                },
                {
                    "name": "G4",
                    "midi": 67,
                    "time": 66.5455100000002,
                    "velocity": 0.5748031496062992,
                    "duration": 0.136363750000001
                },
                {
                    "name": "G#4",
                    "midi": 68,
                    "time": 66.68187375000021,
                    "velocity": 0.5905511811023622,
                    "duration": 0.0681818749999934
                },
                {
                    "name": "A#4",
                    "midi": 70,
                    "time": 66.7500556250002,
                    "velocity": 0.5905511811023622,
                    "duration": 0.0681818749999934
                },
                {
                    "name": "G#4",
                    "midi": 68,
                    "time": 66.8182375000002,
                    "velocity": 0.6062992125984252,
                    "duration": 0.0681818749999934
                },
                {
                    "name": "A#4",
                    "midi": 70,
                    "time": 66.88641937500019,
                    "velocity": 0.6062992125984252,
                    "duration": 0.0681818749999934
                },
                {
                    "name": "G4",
                    "midi": 67,
                    "time": 66.95460125000018,
                    "velocity": 0.6141732283464567,
                    "duration": 0.136363750000001
                },
                {
                    "name": "G#4",
                    "midi": 68,
                    "time": 67.09096500000018,
                    "velocity": 0.6220472440944882,
                    "duration": 0.136363750000001
                },
                {
                    "name": "C#4",
                    "midi": 61,
                    "time": 67.22732875000018,
                    "velocity": 0.3779527559055118,
                    "duration": 0.272727500000002
                },
                {
                    "name": "G4",
                    "midi": 67,
                    "time": 67.22732875000018,
                    "velocity": 0.3779527559055118,
                    "duration": 0.272727500000002
                },
                {
                    "name": "A4",
                    "midi": 69,
                    "time": 67.22732875000018,
                    "velocity": 0.6456692913385826,
                    "duration": 0.136363750000001
                },
                {
                    "name": "A#4",
                    "midi": 70,
                    "time": 67.36369250000018,
                    "velocity": 0.6062992125984252,
                    "duration": 0.136363750000001
                },
                {
                    "name": "C#4",
                    "midi": 61,
                    "time": 67.50005625000018,
                    "velocity": 0.3464566929133858,
                    "duration": 0.272727500000002
                },
                {
                    "name": "G4",
                    "midi": 67,
                    "time": 67.50005625000018,
                    "velocity": 0.3464566929133858,
                    "duration": 0.272727500000002
                },
                {
                    "name": "C5",
                    "midi": 72,
                    "time": 67.50005625000018,
                    "velocity": 0.6062992125984252,
                    "duration": 0.136363750000001
                },
                {
                    "name": "C#5",
                    "midi": 73,
                    "time": 67.63642000000019,
                    "velocity": 0.6062992125984252,
                    "duration": 0.136363750000001
                },
                {
                    "name": "C4",
                    "midi": 60,
                    "time": 67.77278375000019,
                    "velocity": 0.5433070866141733,
                    "duration": 0.272727500000002
                },
                {
                    "name": "G#4",
                    "midi": 68,
                    "time": 67.77278375000019,
                    "velocity": 0.5433070866141733,
                    "duration": 0.272727500000002
                },
                {
                    "name": "C5",
                    "midi": 72,
                    "time": 67.77278375000019,
                    "velocity": 0.6456692913385826,
                    "duration": 0.272727500000002
                },
                {
                    "name": "F5",
                    "midi": 77,
                    "time": 68.04551125000019,
                    "velocity": 0.6535433070866141,
                    "duration": 0.2045456249999944
                },
                {
                    "name": "B3",
                    "midi": 59,
                    "time": 68.04551125000019,
                    "velocity": 0.5511811023622047,
                    "duration": 0.2045456249999944
                },
                {
                    "name": "D4",
                    "midi": 62,
                    "time": 68.04551125000019,
                    "velocity": 0.5511811023622047,
                    "duration": 0.2045456249999944
                },
                {
                    "name": "F4",
                    "midi": 65,
                    "time": 68.04551125000019,
                    "velocity": 0.5511811023622047,
                    "duration": 0.2045456249999944
                },
                {
                    "name": "G#4",
                    "midi": 68,
                    "time": 68.04551125000019,
                    "velocity": 0.5511811023622047,
                    "duration": 0.2045456249999944
                },
                {
                    "name": "D#4",
                    "midi": 63,
                    "time": 68.25005687500018,
                    "velocity": 0.49606299212598426,
                    "duration": 0.061363687500005426
                },
                {
                    "name": "C4",
                    "midi": 60,
                    "time": 68.25005687500018,
                    "velocity": 0.49606299212598426,
                    "duration": 0.061363687500005426
                },
                {
                    "name": "D#5",
                    "midi": 75,
                    "time": 68.25005687500018,
                    "velocity": 0.5905511811023622,
                    "duration": 0.061363687500005426
                },
                {
                    "name": "G#4",
                    "midi": 68,
                    "time": 68.25005687500018,
                    "velocity": 0.49606299212598426,
                    "duration": 0.061363687500005426
                },
                {
                    "name": "C4",
                    "midi": 60,
                    "time": 68.31823875000019,
                    "velocity": 0.5590551181102362,
                    "duration": 0.136363750000001
                },
                {
                    "name": "D#5",
                    "midi": 75,
                    "time": 68.31823875000019,
                    "velocity": 0.6614173228346457,
                    "duration": 0.136363750000001
                },
                {
                    "name": "D#4",
                    "midi": 63,
                    "time": 68.31823875000019,
                    "velocity": 0.5590551181102362,
                    "duration": 0.136363750000001
                },
                {
                    "name": "G#4",
                    "midi": 68,
                    "time": 68.31823875000019,
                    "velocity": 0.5590551181102362,
                    "duration": 0.136363750000001
                },
                {
                    "name": "G#4",
                    "midi": 68,
                    "time": 68.45460250000019,
                    "velocity": 0.6220472440944882,
                    "duration": 0.272727500000002
                },
                {
                    "name": "G#5",
                    "midi": 80,
                    "time": 68.59096625000019,
                    "velocity": 0.6535433070866141,
                    "duration": 0.136363750000001
                },
                {
                    "name": "G4",
                    "midi": 67,
                    "time": 68.79551187500019,
                    "velocity": 0.5039370078740157,
                    "duration": 0.0681818749999934
                },
                {
                    "name": "G5",
                    "midi": 79,
                    "time": 68.79551187500019,
                    "velocity": 0.6062992125984252,
                    "duration": 0.0681818749999934
                },
                {
                    "name": "F4",
                    "midi": 65,
                    "time": 68.86369375000018,
                    "velocity": 0.5039370078740157,
                    "duration": 0.545455000000004
                },
                {
                    "name": "F5",
                    "midi": 77,
                    "time": 68.86369375000018,
                    "velocity": 0.6062992125984252,
                    "duration": 0.545455000000004
                },
                {
                    "name": "G4",
                    "midi": 67,
                    "time": 69.40914875000018,
                    "velocity": 0.5511811023622047,
                    "duration": 0.136363750000001
                },
                {
                    "name": "G5",
                    "midi": 79,
                    "time": 69.54551250000019,
                    "velocity": 0.5590551181102362,
                    "duration": 0.045454583333338405
                },
                {
                    "name": "G#5",
                    "midi": 80,
                    "time": 69.59096708333352,
                    "velocity": 0.5669291338582677,
                    "duration": 0.045454583333338405
                },
                {
                    "name": "G5",
                    "midi": 79,
                    "time": 69.63642166666686,
                    "velocity": 0.5590551181102362,
                    "duration": 0.045454583333338405
                },
                {
                    "name": "F4",
                    "midi": 65,
                    "time": 69.6818762500002,
                    "velocity": 0.48031496062992124,
                    "duration": 0.136363750000001
                },
                {
                    "name": "F5",
                    "midi": 77,
                    "time": 69.6818762500002,
                    "velocity": 0.5669291338582677,
                    "duration": 0.136363750000001
                },
                {
                    "name": "G4",
                    "midi": 67,
                    "time": 69.8182400000002,
                    "velocity": 0.48031496062992124,
                    "duration": 0.136363750000001
                },
                {
                    "name": "G5",
                    "midi": 79,
                    "time": 69.8182400000002,
                    "velocity": 0.5748031496062992,
                    "duration": 0.136363750000001
                },
                {
                    "name": "G#4",
                    "midi": 68,
                    "time": 69.9546037500002,
                    "velocity": 0.5511811023622047,
                    "duration": 0.136363750000001
                },
                {
                    "name": "G#5",
                    "midi": 80,
                    "time": 70.0909675000002,
                    "velocity": 0.5590551181102362,
                    "duration": 0.045454583333338405
                },
                {
                    "name": "A#5",
                    "midi": 82,
                    "time": 70.13642208333354,
                    "velocity": 0.5590551181102362,
                    "duration": 0.045454583333338405
                },
                {
                    "name": "G#5",
                    "midi": 80,
                    "time": 70.18187666666688,
                    "velocity": 0.5590551181102362,
                    "duration": 0.045454583333338405
                },
                {
                    "name": "G4",
                    "midi": 67,
                    "time": 70.22733125000022,
                    "velocity": 0.5196850393700787,
                    "duration": 0.136363750000001
                },
                {
                    "name": "G5",
                    "midi": 79,
                    "time": 70.22733125000022,
                    "velocity": 0.6141732283464567,
                    "duration": 0.136363750000001
                },
                {
                    "name": "G#4",
                    "midi": 68,
                    "time": 70.36369500000022,
                    "velocity": 0.5275590551181102,
                    "duration": 0.136363750000001
                },
                {
                    "name": "G#5",
                    "midi": 80,
                    "time": 70.36369500000022,
                    "velocity": 0.6220472440944882,
                    "duration": 0.136363750000001
                },
                {
                    "name": "A4",
                    "midi": 69,
                    "time": 70.50005875000022,
                    "velocity": 0.5433070866141733,
                    "duration": 0.136363750000001
                },
                {
                    "name": "D#5",
                    "midi": 75,
                    "time": 70.50005875000022,
                    "velocity": 0.5433070866141733,
                    "duration": 0.136363750000001
                },
                {
                    "name": "A5",
                    "midi": 81,
                    "time": 70.50005875000022,
                    "velocity": 0.6456692913385826,
                    "duration": 0.136363750000001
                },
                {
                    "name": "A#4",
                    "midi": 70,
                    "time": 70.63642250000022,
                    "velocity": 0.5433070866141733,
                    "duration": 0.136363750000001
                },
                {
                    "name": "A#5",
                    "midi": 82,
                    "time": 70.63642250000022,
                    "velocity": 0.6062992125984252,
                    "duration": 0.136363750000001
                },
                {
                    "name": "C5",
                    "midi": 72,
                    "time": 70.77278625000022,
                    "velocity": 0.5039370078740157,
                    "duration": 0.136363750000001
                },
                {
                    "name": "G5",
                    "midi": 79,
                    "time": 70.77278625000022,
                    "velocity": 0.5039370078740157,
                    "duration": 0.136363750000001
                },
                {
                    "name": "C6",
                    "midi": 84,
                    "time": 70.77278625000022,
                    "velocity": 0.6062992125984252,
                    "duration": 0.136363750000001
                },
                {
                    "name": "C#5",
                    "midi": 73,
                    "time": 70.90915000000022,
                    "velocity": 0.5039370078740157,
                    "duration": 0.136363750000001
                },
                {
                    "name": "C#6",
                    "midi": 85,
                    "time": 70.90915000000022,
                    "velocity": 0.6062992125984252,
                    "duration": 0.136363750000001
                },
                {
                    "name": "C5",
                    "midi": 72,
                    "time": 71.04551375000023,
                    "velocity": 0.5433070866141733,
                    "duration": 0.136363750000001
                },
                {
                    "name": "G#5",
                    "midi": 80,
                    "time": 71.04551375000023,
                    "velocity": 0.5433070866141733,
                    "duration": 0.136363750000001
                },
                {
                    "name": "C6",
                    "midi": 84,
                    "time": 71.04551375000023,
                    "velocity": 0.6456692913385826,
                    "duration": 0.136363750000001
                },
                {
                    "name": "F5",
                    "midi": 77,
                    "time": 71.31824125000023,
                    "velocity": 0.5511811023622047,
                    "duration": 0.2045456249999944
                },
                {
                    "name": "G#5",
                    "midi": 80,
                    "time": 71.31824125000023,
                    "velocity": 0.5511811023622047,
                    "duration": 0.2045456249999944
                },
                {
                    "name": "F6",
                    "midi": 89,
                    "time": 71.31824125000023,
                    "velocity": 0.6535433070866141,
                    "duration": 0.2045456249999944
                },
                {
                    "name": "D#5",
                    "midi": 75,
                    "time": 71.52278687500022,
                    "velocity": 0.49606299212598426,
                    "duration": 0.061363687500005426
                },
                {
                    "name": "G#5",
                    "midi": 80,
                    "time": 71.52278687500022,
                    "velocity": 0.49606299212598426,
                    "duration": 0.061363687500005426
                },
                {
                    "name": "D#6",
                    "midi": 87,
                    "time": 71.52278687500022,
                    "velocity": 0.5905511811023622,
                    "duration": 0.061363687500005426
                },
                {
                    "name": "D#5",
                    "midi": 75,
                    "time": 71.59096875000023,
                    "velocity": 0.5590551181102362,
                    "duration": 0.136363750000001
                },
                {
                    "name": "G#5",
                    "midi": 80,
                    "time": 71.59096875000023,
                    "velocity": 0.5590551181102362,
                    "duration": 0.136363750000001
                },
                {
                    "name": "D#6",
                    "midi": 87,
                    "time": 71.59096875000023,
                    "velocity": 0.6614173228346457,
                    "duration": 0.136363750000001
                },
                {
                    "name": "D#6",
                    "midi": 87,
                    "time": 71.79551437500022,
                    "velocity": 0.5196850393700787,
                    "duration": 0.0681818749999934
                },
                {
                    "name": "D#5",
                    "midi": 75,
                    "time": 71.79551437500022,
                    "velocity": 0.5196850393700787,
                    "duration": 0.0681818749999934
                },
                {
                    "name": "C#5",
                    "midi": 73,
                    "time": 71.86369625000022,
                    "velocity": 0.5511811023622047,
                    "duration": 0.2045456249999944
                },
                {
                    "name": "A5",
                    "midi": 81,
                    "time": 71.86369625000022,
                    "velocity": 0.5511811023622047,
                    "duration": 0.2045456249999944
                },
                {
                    "name": "C#6",
                    "midi": 85,
                    "time": 71.86369625000022,
                    "velocity": 0.6535433070866141,
                    "duration": 0.2045456249999944
                },
                {
                    "name": "C5",
                    "midi": 72,
                    "time": 72.06824187500021,
                    "velocity": 0.5039370078740157,
                    "duration": 0.0681818749999934
                },
                {
                    "name": "C6",
                    "midi": 84,
                    "time": 72.06824187500021,
                    "velocity": 0.6062992125984252,
                    "duration": 0.0681818749999934
                },
                {
                    "name": "A#4",
                    "midi": 70,
                    "time": 72.1364237500002,
                    "velocity": 0.5511811023622047,
                    "duration": 0.136363750000001
                },
                {
                    "name": "A#5",
                    "midi": 82,
                    "time": 72.1364237500002,
                    "velocity": 0.6535433070866141,
                    "duration": 0.136363750000001
                },
                {
                    "name": "A#4",
                    "midi": 70,
                    "time": 72.4091512500002,
                    "velocity": 0.5039370078740157,
                    "duration": 0.2045456249999944
                },
                {
                    "name": "F#5",
                    "midi": 78,
                    "time": 72.4091512500002,
                    "velocity": 0.5039370078740157,
                    "duration": 0.2045456249999944
                },
                {
                    "name": "A#5",
                    "midi": 82,
                    "time": 72.4091512500002,
                    "velocity": 0.6062992125984252,
                    "duration": 0.2045456249999944
                },
                {
                    "name": "C5",
                    "midi": 72,
                    "time": 72.6136968750002,
                    "velocity": 0.5039370078740157,
                    "duration": 0.0681818749999934
                },
                {
                    "name": "C6",
                    "midi": 84,
                    "time": 72.6136968750002,
                    "velocity": 0.6062992125984252,
                    "duration": 0.0681818749999934
                },
                {
                    "name": "C#5",
                    "midi": 73,
                    "time": 72.6818787500002,
                    "velocity": 0.5354330708661418,
                    "duration": 0.272727500000002
                },
                {
                    "name": "F5",
                    "midi": 77,
                    "time": 72.6818787500002,
                    "velocity": 0.5354330708661418,
                    "duration": 0.272727500000002
                },
                {
                    "name": "C#6",
                    "midi": 85,
                    "time": 72.6818787500002,
                    "velocity": 0.6377952755905512,
                    "duration": 0.272727500000002
                },
                {
                    "name": "D#5",
                    "midi": 75,
                    "time": 72.9546062500002,
                    "velocity": 0.5275590551181102,
                    "duration": 0.2045456249999944
                },
                {
                    "name": "C#5",
                    "midi": 73,
                    "time": 72.9546062500002,
                    "velocity": 0.5275590551181102,
                    "duration": 0.2045456249999944
                },
                {
                    "name": "C#6",
                    "midi": 85,
                    "time": 72.9546062500002,
                    "velocity": 0.6220472440944882,
                    "duration": 0.2045456249999944
                },
                {
                    "name": "F#5",
                    "midi": 78,
                    "time": 72.9546062500002,
                    "velocity": 0.5275590551181102,
                    "duration": 0.2045456249999944
                },
                {
                    "name": "C5",
                    "midi": 72,
                    "time": 73.15915187500019,
                    "velocity": 0.49606299212598426,
                    "duration": 0.0681818749999934
                },
                {
                    "name": "C6",
                    "midi": 84,
                    "time": 73.15915187500019,
                    "velocity": 0.5905511811023622,
                    "duration": 0.0681818749999934
                },
                {
                    "name": "A#4",
                    "midi": 70,
                    "time": 73.22733375000018,
                    "velocity": 0.5433070866141733,
                    "duration": 0.272727500000002
                },
                {
                    "name": "F5",
                    "midi": 77,
                    "time": 73.22733375000018,
                    "velocity": 0.5433070866141733,
                    "duration": 0.272727500000002
                },
                {
                    "name": "A#5",
                    "midi": 82,
                    "time": 73.22733375000018,
                    "velocity": 0.6456692913385826,
                    "duration": 0.272727500000002
                },
                {
                    "name": "G#4",
                    "midi": 68,
                    "time": 73.50006125000019,
                    "velocity": 0.5275590551181102,
                    "duration": 0.2045456249999944
                },
                {
                    "name": "D#5",
                    "midi": 75,
                    "time": 73.50006125000019,
                    "velocity": 0.5275590551181102,
                    "duration": 0.2045456249999944
                },
                {
                    "name": "G#5",
                    "midi": 80,
                    "time": 73.50006125000019,
                    "velocity": 0.6220472440944882,
                    "duration": 0.2045456249999944
                },
                {
                    "name": "A#4",
                    "midi": 70,
                    "time": 73.50006125000019,
                    "velocity": 0.5275590551181102,
                    "duration": 0.2045456249999944
                },
                {
                    "name": "F#4",
                    "midi": 66,
                    "time": 73.70460687500018,
                    "velocity": 0.4881889763779528,
                    "duration": 0.0681818749999934
                },
                {
                    "name": "F#5",
                    "midi": 78,
                    "time": 73.70460687500018,
                    "velocity": 0.5826771653543307,
                    "duration": 0.0681818749999934
                },
                {
                    "name": "C#5",
                    "midi": 73,
                    "time": 73.77278875000017,
                    "velocity": 0.5196850393700787,
                    "duration": 0.136363750000001
                },
                {
                    "name": "F5",
                    "midi": 77,
                    "time": 73.77278875000017,
                    "velocity": 0.6141732283464567,
                    "duration": 0.136363750000001
                },
                {
                    "name": "F4",
                    "midi": 65,
                    "time": 73.77278875000017,
                    "velocity": 0.5196850393700787,
                    "duration": 0.136363750000001
                },
                {
                    "name": "A2",
                    "midi": 45,
                    "time": 74.04551625000018,
                    "velocity": 0.5039370078740157,
                    "duration": 0.0681818749999934
                },
                {
                    "name": "A#2",
                    "midi": 46,
                    "time": 74.11369812500017,
                    "velocity": 0.5039370078740157,
                    "duration": 0.0681818749999934
                },
                {
                    "name": "C3",
                    "midi": 48,
                    "time": 74.18188000000016,
                    "velocity": 0.5196850393700787,
                    "duration": 0.0681818749999934
                },
                {
                    "name": "C#3",
                    "midi": 49,
                    "time": 74.25006187500016,
                    "velocity": 0.5275590551181102,
                    "duration": 0.0681818749999934
                },
                {
                    "name": "D#3",
                    "midi": 51,
                    "time": 74.31824375000015,
                    "velocity": 0.5275590551181102,
                    "duration": 0.0681818749999934
                },
                {
                    "name": "F3",
                    "midi": 53,
                    "time": 74.38642562500014,
                    "velocity": 0.5354330708661418,
                    "duration": 0.0681818749999934
                },
                {
                    "name": "G3",
                    "midi": 55,
                    "time": 74.45460750000014,
                    "velocity": 0.5433070866141733,
                    "duration": 0.0681818749999934
                },
                {
                    "name": "A3",
                    "midi": 57,
                    "time": 74.52278937500013,
                    "velocity": 0.5433070866141733,
                    "duration": 0.0681818749999934
                },
                {
                    "name": "A#3",
                    "midi": 58,
                    "time": 74.59097125000012,
                    "velocity": 0.5511811023622047,
                    "duration": 0.0681818749999934
                },
                {
                    "name": "C4",
                    "midi": 60,
                    "time": 74.65915312500012,
                    "velocity": 0.5590551181102362,
                    "duration": 0.0681818749999934
                },
                {
                    "name": "C#4",
                    "midi": 61,
                    "time": 74.72733500000011,
                    "velocity": 0.5590551181102362,
                    "duration": 0.0681818749999934
                },
                {
                    "name": "D#4",
                    "midi": 63,
                    "time": 74.7955168750001,
                    "velocity": 0.5669291338582677,
                    "duration": 0.0681818749999934
                },
                {
                    "name": "F4",
                    "midi": 65,
                    "time": 74.8636987500001,
                    "velocity": 0.5748031496062992,
                    "duration": 0.0681818749999934
                },
                {
                    "name": "G4",
                    "midi": 67,
                    "time": 74.93188062500009,
                    "velocity": 0.5748031496062992,
                    "duration": 0.0681818749999934
                },
                {
                    "name": "A4",
                    "midi": 69,
                    "time": 75.00006250000008,
                    "velocity": 0.5826771653543307,
                    "duration": 0.0681818749999934
                },
                {
                    "name": "A#4",
                    "midi": 70,
                    "time": 75.06824437500008,
                    "velocity": 0.5826771653543307,
                    "duration": 0.0681818749999934
                },
                {
                    "name": "C5",
                    "midi": 72,
                    "time": 75.13642625000007,
                    "velocity": 0.5905511811023622,
                    "duration": 0.0681818749999934
                },
                {
                    "name": "C#5",
                    "midi": 73,
                    "time": 75.20460812500006,
                    "velocity": 0.6062992125984252,
                    "duration": 0.0681818749999934
                },
                {
                    "name": "D#5",
                    "midi": 75,
                    "time": 75.27279000000006,
                    "velocity": 0.6062992125984252,
                    "duration": 0.0681818749999934
                },
                {
                    "name": "F5",
                    "midi": 77,
                    "time": 75.34097187500005,
                    "velocity": 0.6141732283464567,
                    "duration": 0.0681818749999934
                },
                {
                    "name": "G5",
                    "midi": 79,
                    "time": 75.40915375000004,
                    "velocity": 0.6062992125984252,
                    "duration": 0.0681818749999934
                },
                {
                    "name": "A5",
                    "midi": 81,
                    "time": 75.47733562500004,
                    "velocity": 0.6062992125984252,
                    "duration": 0.0681818749999934
                },
                {
                    "name": "A#5",
                    "midi": 82,
                    "time": 75.54551750000003,
                    "velocity": 0.6141732283464567,
                    "duration": 0.0681818749999934
                },
                {
                    "name": "C6",
                    "midi": 84,
                    "time": 75.61369937500002,
                    "velocity": 0.6220472440944882,
                    "duration": 0.0681818749999934
                },
                {
                    "name": "C#6",
                    "midi": 85,
                    "time": 75.68188125000002,
                    "velocity": 0.6299212598425197,
                    "duration": 0.0681818749999934
                },
                {
                    "name": "D#6",
                    "midi": 87,
                    "time": 75.75006312500001,
                    "velocity": 0.6299212598425197,
                    "duration": 0.0681818749999934
                },
                {
                    "name": "F6",
                    "midi": 89,
                    "time": 75.818245,
                    "velocity": 0.6377952755905512,
                    "duration": 0.0681818749999934
                },
                {
                    "name": "G6",
                    "midi": 91,
                    "time": 75.886426875,
                    "velocity": 0.6456692913385826,
                    "duration": 0.1022728125000043
                },
                {
                    "name": "A6",
                    "midi": 93,
                    "time": 75.9886996875,
                    "velocity": 0.6535433070866141,
                    "duration": 0.1022728125000043
                },
                {
                    "name": "A#6",
                    "midi": 94,
                    "time": 76.0909725,
                    "velocity": 0.7244094488188977,
                    "duration": 0.136363750000001
                },
                {
                    "name": "A#5",
                    "midi": 82,
                    "time": 76.0909725,
                    "velocity": 0.7244094488188977,
                    "duration": 0.136363750000001
                },
                {
                    "name": "C7",
                    "midi": 96,
                    "time": 76.295518125,
                    "velocity": 0.6692913385826772,
                    "duration": 0.0681818749999934
                },
                {
                    "name": "C#6",
                    "midi": 85,
                    "time": 76.3637,
                    "velocity": 0.6062992125984252,
                    "duration": 0.136363750000001
                },
                {
                    "name": "A#6",
                    "midi": 94,
                    "time": 76.3637,
                    "velocity": 0.7165354330708661,
                    "duration": 0.136363750000001
                },
                {
                    "name": "G6",
                    "midi": 91,
                    "time": 76.3637,
                    "velocity": 0.7165354330708661,
                    "duration": 0.136363750000001
                },
                {
                    "name": "F#6",
                    "midi": 90,
                    "time": 76.50006375,
                    "velocity": 0.6692913385826772,
                    "duration": 0.136363750000001
                },
                {
                    "name": "C6",
                    "midi": 84,
                    "time": 76.50006375,
                    "velocity": 0.5669291338582677,
                    "duration": 0.136363750000001
                },
                {
                    "name": "A6",
                    "midi": 93,
                    "time": 76.50006375,
                    "velocity": 0.6692913385826772,
                    "duration": 0.136363750000001
                },
                {
                    "name": "C#6",
                    "midi": 85,
                    "time": 76.6364275,
                    "velocity": 0.5905511811023622,
                    "duration": 0.272727500000002
                },
                {
                    "name": "G6",
                    "midi": 91,
                    "time": 76.6364275,
                    "velocity": 0.7086614173228346,
                    "duration": 0.272727500000002
                },
                {
                    "name": "A#6",
                    "midi": 94,
                    "time": 76.6364275,
                    "velocity": 0.7086614173228346,
                    "duration": 0.272727500000002
                },
                {
                    "name": "C6",
                    "midi": 84,
                    "time": 76.909155,
                    "velocity": 0.5669291338582677,
                    "duration": 0.272727500000002
                },
                {
                    "name": "G6",
                    "midi": 91,
                    "time": 76.909155,
                    "velocity": 0.6692913385826772,
                    "duration": 0.272727500000002
                },
                {
                    "name": "C7",
                    "midi": 96,
                    "time": 76.909155,
                    "velocity": 0.6692913385826772,
                    "duration": 0.272727500000002
                },
                {
                    "name": "G#5",
                    "midi": 80,
                    "time": 77.1818825,
                    "velocity": 0.5826771653543307,
                    "duration": 0.272727500000002
                },
                {
                    "name": "C6",
                    "midi": 84,
                    "time": 77.1818825,
                    "velocity": 0.5826771653543307,
                    "duration": 0.272727500000002
                },
                {
                    "name": "G#6",
                    "midi": 92,
                    "time": 77.1818825,
                    "velocity": 0.6929133858267716,
                    "duration": 0.272727500000002
                },
                {
                    "name": "D#5",
                    "midi": 75,
                    "time": 77.45461,
                    "velocity": 0.5669291338582677,
                    "duration": 0.272727500000002
                },
                {
                    "name": "G#5",
                    "midi": 80,
                    "time": 77.45461,
                    "velocity": 0.5669291338582677,
                    "duration": 0.272727500000002
                },
                {
                    "name": "D#6",
                    "midi": 87,
                    "time": 77.45461,
                    "velocity": 0.6692913385826772,
                    "duration": 0.272727500000002
                },
                {
                    "name": "F5",
                    "midi": 77,
                    "time": 77.7273375,
                    "velocity": 0.5669291338582677,
                    "duration": 0.136363750000001
                },
                {
                    "name": "G#5",
                    "midi": 80,
                    "time": 77.7273375,
                    "velocity": 0.5669291338582677,
                    "duration": 0.136363750000001
                },
                {
                    "name": "F6",
                    "midi": 89,
                    "time": 77.7273375,
                    "velocity": 0.6692913385826772,
                    "duration": 0.136363750000001
                },
                {
                    "name": "C#4",
                    "midi": 61,
                    "time": 78.000065,
                    "velocity": 0.5275590551181102,
                    "duration": 0.2045456249999944
                },
                {
                    "name": "G3",
                    "midi": 55,
                    "time": 78.000065,
                    "velocity": 0.4409448818897638,
                    "duration": 0.2045456249999944
                },
                {
                    "name": "D#4",
                    "midi": 63,
                    "time": 78.000065,
                    "velocity": 0.5275590551181102,
                    "duration": 0.545455000000004
                },
                {
                    "name": "G3",
                    "midi": 55,
                    "time": 78.204610625,
                    "velocity": 0.4409448818897638,
                    "duration": 0.061363687500005426
                },
                {
                    "name": "C#4",
                    "midi": 61,
                    "time": 78.204610625,
                    "velocity": 0.5275590551181102,
                    "duration": 0.061363687500005426
                },
                {
                    "name": "G3",
                    "midi": 55,
                    "time": 78.27279250000001,
                    "velocity": 0.48031496062992124,
                    "duration": 0.545455000000004
                },
                {
                    "name": "C#4",
                    "midi": 61,
                    "time": 78.27279250000001,
                    "velocity": 0.5669291338582677,
                    "duration": 0.545455000000004
                },
                {
                    "name": "A#4",
                    "midi": 70,
                    "time": 78.27279250000001,
                    "velocity": 0.5669291338582677,
                    "duration": 0.545455000000004
                },
                {
                    "name": "G#3",
                    "midi": 56,
                    "time": 78.81824750000001,
                    "velocity": 0.4409448818897638,
                    "duration": 0.136363750000001
                },
                {
                    "name": "C4",
                    "midi": 60,
                    "time": 78.81824750000001,
                    "velocity": 0.4409448818897638,
                    "duration": 0.136363750000001
                },
                {
                    "name": "G#4",
                    "midi": 68,
                    "time": 78.81824750000001,
                    "velocity": 0.5275590551181102,
                    "duration": 0.136363750000001
                },
                {
                    "name": "C5",
                    "midi": 72,
                    "time": 79.36370250000002,
                    "velocity": 0.5196850393700787,
                    "duration": 0.136363750000001
                },
                {
                    "name": "C6",
                    "midi": 84,
                    "time": 79.36370250000002,
                    "velocity": 0.6141732283464567,
                    "duration": 0.136363750000001
                },
                {
                    "name": "C4",
                    "midi": 60,
                    "time": 79.63643000000002,
                    "velocity": 0.33070866141732286,
                    "duration": 0.136363750000001
                },
                {
                    "name": "C5",
                    "midi": 72,
                    "time": 79.63643000000002,
                    "velocity": 0.4015748031496063,
                    "duration": 0.136363750000001
                },
                {
                    "name": "C4",
                    "midi": 60,
                    "time": 79.84097562500001,
                    "velocity": 0.31496062992125984,
                    "duration": 0.0681818749999934
                },
                {
                    "name": "C5",
                    "midi": 72,
                    "time": 79.84097562500001,
                    "velocity": 0.3700787401574803,
                    "duration": 0.0681818749999934
                },
                {
                    "name": "C#4",
                    "midi": 61,
                    "time": 79.9091575,
                    "velocity": 0.3543307086614173,
                    "duration": 0.272727500000002
                },
                {
                    "name": "C5",
                    "midi": 72,
                    "time": 79.9091575,
                    "velocity": 0.4330708661417323,
                    "duration": 0.272727500000002
                },
                {
                    "name": "C4",
                    "midi": 60,
                    "time": 80.18188500000001,
                    "velocity": 0.3228346456692913,
                    "duration": 0.136363750000001
                },
                {
                    "name": "C5",
                    "midi": 72,
                    "time": 80.18188500000001,
                    "velocity": 0.4015748031496063,
                    "duration": 0.136363750000001
                },
                {
                    "name": "C4",
                    "midi": 60,
                    "time": 80.386430625,
                    "velocity": 0.30708661417322836,
                    "duration": 0.0681818749999934
                },
                {
                    "name": "C5",
                    "midi": 72,
                    "time": 80.386430625,
                    "velocity": 0.3700787401574803,
                    "duration": 0.0681818749999934
                },
                {
                    "name": "D#4",
                    "midi": 63,
                    "time": 80.4546125,
                    "velocity": 0.3858267716535433,
                    "duration": 0.272727500000002
                },
                {
                    "name": "C5",
                    "midi": 72,
                    "time": 80.4546125,
                    "velocity": 0.4566929133858268,
                    "duration": 0.272727500000002
                },
                {
                    "name": "C4",
                    "midi": 60,
                    "time": 80.72734,
                    "velocity": 0.36220472440944884,
                    "duration": 0.136363750000001
                },
                {
                    "name": "C5",
                    "midi": 72,
                    "time": 80.72734,
                    "velocity": 0.4330708661417323,
                    "duration": 0.136363750000001
                },
                {
                    "name": "C#4",
                    "midi": 61,
                    "time": 80.93188562499999,
                    "velocity": 0.3464566929133858,
                    "duration": 0.0681818749999934
                },
                {
                    "name": "C5",
                    "midi": 72,
                    "time": 80.93188562499999,
                    "velocity": 0.4094488188976378,
                    "duration": 0.0681818749999934
                },
                {
                    "name": "F4",
                    "midi": 65,
                    "time": 81.00006749999999,
                    "velocity": 0.4015748031496063,
                    "duration": 0.272727500000002
                },
                {
                    "name": "C5",
                    "midi": 72,
                    "time": 81.00006749999999,
                    "velocity": 0.4881889763779528,
                    "duration": 0.272727500000002
                },
                {
                    "name": "C4",
                    "midi": 60,
                    "time": 81.27279499999999,
                    "velocity": 0.3858267716535433,
                    "duration": 0.136363750000001
                },
                {
                    "name": "C5",
                    "midi": 72,
                    "time": 81.27279499999999,
                    "velocity": 0.4566929133858268,
                    "duration": 0.136363750000001
                },
                {
                    "name": "E4",
                    "midi": 64,
                    "time": 81.47734062499998,
                    "velocity": 0.3700787401574803,
                    "duration": 0.0681818749999934
                },
                {
                    "name": "C5",
                    "midi": 72,
                    "time": 81.47734062499998,
                    "velocity": 0.4330708661417323,
                    "duration": 0.0681818749999934
                },
                {
                    "name": "G4",
                    "midi": 67,
                    "time": 81.54552249999998,
                    "velocity": 0.4330708661417323,
                    "duration": 0.272727500000002
                },
                {
                    "name": "C5",
                    "midi": 72,
                    "time": 81.54552249999998,
                    "velocity": 0.5275590551181102,
                    "duration": 0.272727500000002
                },
                {
                    "name": "C4",
                    "midi": 60,
                    "time": 81.81824999999998,
                    "velocity": 0.4015748031496063,
                    "duration": 0.136363750000001
                },
                {
                    "name": "C5",
                    "midi": 72,
                    "time": 81.81824999999998,
                    "velocity": 0.48031496062992124,
                    "duration": 0.136363750000001
                },
                {
                    "name": "F4",
                    "midi": 65,
                    "time": 82.02279562499997,
                    "velocity": 0.3779527559055118,
                    "duration": 0.0681818749999934
                },
                {
                    "name": "C5",
                    "midi": 72,
                    "time": 82.02279562499997,
                    "velocity": 0.4409448818897638,
                    "duration": 0.0681818749999934
                },
                {
                    "name": "G#4",
                    "midi": 68,
                    "time": 82.09097749999997,
                    "velocity": 0.4409448818897638,
                    "duration": 0.272727500000002
                },
                {
                    "name": "C5",
                    "midi": 72,
                    "time": 82.09097749999997,
                    "velocity": 0.5354330708661418,
                    "duration": 0.272727500000002
                },
                {
                    "name": "C4",
                    "midi": 60,
                    "time": 82.36370499999997,
                    "velocity": 0.4330708661417323,
                    "duration": 0.136363750000001
                },
                {
                    "name": "C5",
                    "midi": 72,
                    "time": 82.36370499999997,
                    "velocity": 0.5196850393700787,
                    "duration": 0.136363750000001
                },
                {
                    "name": "F#4",
                    "midi": 66,
                    "time": 82.56825062499996,
                    "velocity": 0.4015748031496063,
                    "duration": 0.0681818749999934
                },
                {
                    "name": "C5",
                    "midi": 72,
                    "time": 82.56825062499996,
                    "velocity": 0.48031496062992124,
                    "duration": 0.0681818749999934
                },
                {
                    "name": "G4",
                    "midi": 67,
                    "time": 82.63643249999996,
                    "velocity": 0.4330708661417323,
                    "duration": 0.272727500000002
                },
                {
                    "name": "C5",
                    "midi": 72,
                    "time": 82.63643249999996,
                    "velocity": 0.5354330708661418,
                    "duration": 0.272727500000002
                },
                {
                    "name": "E4",
                    "midi": 64,
                    "time": 82.63643249999996,
                    "velocity": 0.4330708661417323,
                    "duration": 0.272727500000002
                },
                {
                    "name": "E5",
                    "midi": 76,
                    "time": 82.63643249999996,
                    "velocity": 0.5354330708661418,
                    "duration": 0.272727500000002
                },
                {
                    "name": "C6",
                    "midi": 84,
                    "time": 82.90915999999996,
                    "velocity": 0.5590551181102362,
                    "duration": 0.545455000000004
                },
                {
                    "name": "E6",
                    "midi": 88,
                    "time": 82.90915999999996,
                    "velocity": 0.5590551181102362,
                    "duration": 0.545455000000004
                },
                {
                    "name": "E5",
                    "midi": 76,
                    "time": 82.90915999999996,
                    "velocity": 0.5590551181102362,
                    "duration": 0.545455000000004
                },
                {
                    "name": "D5",
                    "midi": 74,
                    "time": 83.45461499999996,
                    "velocity": 0.5196850393700787,
                    "duration": 0.136363750000001
                },
                {
                    "name": "B5",
                    "midi": 83,
                    "time": 83.45461499999996,
                    "velocity": 0.5196850393700787,
                    "duration": 0.136363750000001
                },
                {
                    "name": "D6",
                    "midi": 86,
                    "time": 83.45461499999996,
                    "velocity": 0.5196850393700787,
                    "duration": 0.136363750000001
                },
                {
                    "name": "E5",
                    "midi": 76,
                    "time": 83.59097874999996,
                    "velocity": 0.5433070866141733,
                    "duration": 0.136363750000001
                },
                {
                    "name": "C6",
                    "midi": 84,
                    "time": 83.59097874999996,
                    "velocity": 0.5433070866141733,
                    "duration": 0.136363750000001
                },
                {
                    "name": "E6",
                    "midi": 88,
                    "time": 83.59097874999996,
                    "velocity": 0.5433070866141733,
                    "duration": 0.136363750000001
                },
                {
                    "name": "F6",
                    "midi": 89,
                    "time": 83.72734249999996,
                    "velocity": 0.5590551181102362,
                    "duration": 0.272727500000002
                },
                {
                    "name": "D6",
                    "midi": 86,
                    "time": 83.72734249999996,
                    "velocity": 0.5590551181102362,
                    "duration": 0.272727500000002
                },
                {
                    "name": "F5",
                    "midi": 77,
                    "time": 83.72734249999996,
                    "velocity": 0.5590551181102362,
                    "duration": 0.272727500000002
                },
                {
                    "name": "E5",
                    "midi": 76,
                    "time": 84.00006999999997,
                    "velocity": 0.5590551181102362,
                    "duration": 0.2045456249999944
                },
                {
                    "name": "G5",
                    "midi": 79,
                    "time": 84.00006999999997,
                    "velocity": 0.5590551181102362,
                    "duration": 0.2045456249999944
                },
                {
                    "name": "E6",
                    "midi": 88,
                    "time": 84.00006999999997,
                    "velocity": 0.5590551181102362,
                    "duration": 0.2045456249999944
                },
                {
                    "name": "D5",
                    "midi": 74,
                    "time": 84.20461562499996,
                    "velocity": 0.5354330708661418,
                    "duration": 0.0681818749999934
                },
                {
                    "name": "D6",
                    "midi": 86,
                    "time": 84.20461562499996,
                    "velocity": 0.5354330708661418,
                    "duration": 0.0681818749999934
                },
                {
                    "name": "E5",
                    "midi": 76,
                    "time": 84.27279749999995,
                    "velocity": 0.5354330708661418,
                    "duration": 0.272727500000002
                },
                {
                    "name": "C6",
                    "midi": 84,
                    "time": 84.27279749999995,
                    "velocity": 0.5354330708661418,
                    "duration": 0.272727500000002
                },
                {
                    "name": "E6",
                    "midi": 88,
                    "time": 84.27279749999995,
                    "velocity": 0.5354330708661418,
                    "duration": 0.272727500000002
                },
                {
                    "name": "C4",
                    "midi": 60,
                    "time": 84.54552499999996,
                    "velocity": 0.4645669291338583,
                    "duration": 0.0681818749999934
                },
                {
                    "name": "E4",
                    "midi": 64,
                    "time": 84.61370687499995,
                    "velocity": 0.48031496062992124,
                    "duration": 0.0681818749999934
                },
                {
                    "name": "G4",
                    "midi": 67,
                    "time": 84.68188874999994,
                    "velocity": 0.4881889763779528,
                    "duration": 0.0681818749999934
                },
                {
                    "name": "B4",
                    "midi": 71,
                    "time": 84.75007062499994,
                    "velocity": 0.49606299212598426,
                    "duration": 0.0681818749999934
                },
                {
                    "name": "C5",
                    "midi": 72,
                    "time": 84.81825249999993,
                    "velocity": 0.5039370078740157,
                    "duration": 0.0681818749999934
                },
                {
                    "name": "E5",
                    "midi": 76,
                    "time": 84.88643437499992,
                    "velocity": 0.5196850393700787,
                    "duration": 0.0681818749999934
                },
                {
                    "name": "G5",
                    "midi": 79,
                    "time": 84.95461624999992,
                    "velocity": 0.5354330708661418,
                    "duration": 0.0681818749999934
                },
                {
                    "name": "B5",
                    "midi": 83,
                    "time": 85.02279812499991,
                    "velocity": 0.5354330708661418,
                    "duration": 0.0681818749999934
                },
                {
                    "name": "C6",
                    "midi": 84,
                    "time": 85.0909799999999,
                    "velocity": 0.5511811023622047,
                    "duration": 0.0681818749999934
                },
                {
                    "name": "E6",
                    "midi": 88,
                    "time": 85.1591618749999,
                    "velocity": 0.5669291338582677,
                    "duration": 0.0681818749999934
                },
                {
                    "name": "G6",
                    "midi": 91,
                    "time": 85.22734374999989,
                    "velocity": 0.5748031496062992,
                    "duration": 0.0681818749999934
                },
                {
                    "name": "C7",
                    "midi": 96,
                    "time": 85.29552562499988,
                    "velocity": 0.5826771653543307,
                    "duration": 0.0681818749999934
                },
                {
                    "name": "C#6",
                    "midi": 85,
                    "time": 85.36370749999988,
                    "velocity": 0.49606299212598426,
                    "duration": 0.272727500000002
                },
                {
                    "name": "C#7",
                    "midi": 97,
                    "time": 85.36370749999988,
                    "velocity": 0.5905511811023622,
                    "duration": 0.272727500000002
                },
                {
                    "name": "D6",
                    "midi": 86,
                    "time": 85.63643499999988,
                    "velocity": 0.5275590551181102,
                    "duration": 0.272727500000002
                },
                {
                    "name": "D7",
                    "midi": 98,
                    "time": 85.63643499999988,
                    "velocity": 0.6220472440944882,
                    "duration": 0.272727500000002
                },
                {
                    "name": "D#6",
                    "midi": 87,
                    "time": 85.90916249999988,
                    "velocity": 0.5433070866141733,
                    "duration": 0.136363750000001
                },
                {
                    "name": "D#7",
                    "midi": 99,
                    "time": 85.90916249999988,
                    "velocity": 0.6456692913385826,
                    "duration": 0.136363750000001
                },
                {
                    "name": "D#4",
                    "midi": 63,
                    "time": 86.18188999999988,
                    "velocity": 0.33070866141732286,
                    "duration": 0.136363750000001
                },
                {
                    "name": "D#5",
                    "midi": 75,
                    "time": 86.18188999999988,
                    "velocity": 0.4015748031496063,
                    "duration": 0.136363750000001
                },
                {
                    "name": "D#4",
                    "midi": 63,
                    "time": 86.38643562499988,
                    "velocity": 0.31496062992125984,
                    "duration": 0.0681818749999934
                },
                {
                    "name": "D#5",
                    "midi": 75,
                    "time": 86.38643562499988,
                    "velocity": 0.3700787401574803,
                    "duration": 0.0681818749999934
                },
                {
                    "name": "E4",
                    "midi": 64,
                    "time": 86.45461749999987,
                    "velocity": 0.3543307086614173,
                    "duration": 0.272727500000002
                },
                {
                    "name": "D#5",
                    "midi": 75,
                    "time": 86.45461749999987,
                    "velocity": 0.4330708661417323,
                    "duration": 0.272727500000002
                },
                {
                    "name": "D#4",
                    "midi": 63,
                    "time": 86.72734499999987,
                    "velocity": 0.3228346456692913,
                    "duration": 0.136363750000001
                },
                {
                    "name": "D#5",
                    "midi": 75,
                    "time": 86.72734499999987,
                    "velocity": 0.4015748031496063,
                    "duration": 0.136363750000001
                },
                {
                    "name": "D#4",
                    "midi": 63,
                    "time": 86.93189062499987,
                    "velocity": 0.30708661417322836,
                    "duration": 0.0681818749999934
                },
                {
                    "name": "D#5",
                    "midi": 75,
                    "time": 86.93189062499987,
                    "velocity": 0.3700787401574803,
                    "duration": 0.0681818749999934
                },
                {
                    "name": "F#4",
                    "midi": 66,
                    "time": 87.00007249999986,
                    "velocity": 0.3858267716535433,
                    "duration": 0.272727500000002
                },
                {
                    "name": "D#5",
                    "midi": 75,
                    "time": 87.00007249999986,
                    "velocity": 0.4566929133858268,
                    "duration": 0.272727500000002
                },
                {
                    "name": "D#4",
                    "midi": 63,
                    "time": 87.27279999999986,
                    "velocity": 0.36220472440944884,
                    "duration": 0.136363750000001
                },
                {
                    "name": "D#5",
                    "midi": 75,
                    "time": 87.27279999999986,
                    "velocity": 0.4330708661417323,
                    "duration": 0.136363750000001
                },
                {
                    "name": "E4",
                    "midi": 64,
                    "time": 87.47734562499986,
                    "velocity": 0.3464566929133858,
                    "duration": 0.0681818749999934
                },
                {
                    "name": "D#5",
                    "midi": 75,
                    "time": 87.47734562499986,
                    "velocity": 0.4094488188976378,
                    "duration": 0.0681818749999934
                },
                {
                    "name": "G#4",
                    "midi": 68,
                    "time": 87.54552749999985,
                    "velocity": 0.4015748031496063,
                    "duration": 0.272727500000002
                },
                {
                    "name": "D#5",
                    "midi": 75,
                    "time": 87.54552749999985,
                    "velocity": 0.4881889763779528,
                    "duration": 0.272727500000002
                },
                {
                    "name": "D#4",
                    "midi": 63,
                    "time": 87.81825499999985,
                    "velocity": 0.3858267716535433,
                    "duration": 0.136363750000001
                },
                {
                    "name": "D#5",
                    "midi": 75,
                    "time": 87.81825499999985,
                    "velocity": 0.4566929133858268,
                    "duration": 0.136363750000001
                },
                {
                    "name": "G4",
                    "midi": 67,
                    "time": 88.02280062499985,
                    "velocity": 0.3700787401574803,
                    "duration": 0.0681818749999934
                },
                {
                    "name": "D#5",
                    "midi": 75,
                    "time": 88.02280062499985,
                    "velocity": 0.4330708661417323,
                    "duration": 0.0681818749999934
                },
                {
                    "name": "A#4",
                    "midi": 70,
                    "time": 88.09098249999984,
                    "velocity": 0.4330708661417323,
                    "duration": 0.272727500000002
                },
                {
                    "name": "D#5",
                    "midi": 75,
                    "time": 88.09098249999984,
                    "velocity": 0.5275590551181102,
                    "duration": 0.272727500000002
                },
                {
                    "name": "D#4",
                    "midi": 63,
                    "time": 88.36370999999984,
                    "velocity": 0.4015748031496063,
                    "duration": 0.136363750000001
                },
                {
                    "name": "D#5",
                    "midi": 75,
                    "time": 88.36370999999984,
                    "velocity": 0.48031496062992124,
                    "duration": 0.136363750000001
                },
                {
                    "name": "G#4",
                    "midi": 68,
                    "time": 88.56825562499984,
                    "velocity": 0.3779527559055118,
                    "duration": 0.0681818749999934
                },
                {
                    "name": "D#5",
                    "midi": 75,
                    "time": 88.56825562499984,
                    "velocity": 0.4409448818897638,
                    "duration": 0.0681818749999934
                },
                {
                    "name": "B4",
                    "midi": 71,
                    "time": 88.63643749999983,
                    "velocity": 0.4409448818897638,
                    "duration": 0.272727500000002
                },
                {
                    "name": "D#5",
                    "midi": 75,
                    "time": 88.63643749999983,
                    "velocity": 0.5354330708661418,
                    "duration": 0.272727500000002
                },
                {
                    "name": "D#4",
                    "midi": 63,
                    "time": 88.90916499999983,
                    "velocity": 0.4330708661417323,
                    "duration": 0.136363750000001
                },
                {
                    "name": "D#5",
                    "midi": 75,
                    "time": 88.90916499999983,
                    "velocity": 0.5196850393700787,
                    "duration": 0.136363750000001
                },
                {
                    "name": "A4",
                    "midi": 69,
                    "time": 89.11371062499983,
                    "velocity": 0.4015748031496063,
                    "duration": 0.0681818749999934
                },
                {
                    "name": "D#5",
                    "midi": 75,
                    "time": 89.11371062499983,
                    "velocity": 0.48031496062992124,
                    "duration": 0.0681818749999934
                },
                {
                    "name": "A#4",
                    "midi": 70,
                    "time": 89.18189249999982,
                    "velocity": 0.4330708661417323,
                    "duration": 0.272727500000002
                },
                {
                    "name": "D#5",
                    "midi": 75,
                    "time": 89.18189249999982,
                    "velocity": 0.5354330708661418,
                    "duration": 0.272727500000002
                },
                {
                    "name": "G4",
                    "midi": 67,
                    "time": 89.18189249999982,
                    "velocity": 0.4330708661417323,
                    "duration": 0.272727500000002
                },
                {
                    "name": "G5",
                    "midi": 79,
                    "time": 89.18189249999982,
                    "velocity": 0.5354330708661418,
                    "duration": 0.272727500000002
                },
                {
                    "name": "D#6",
                    "midi": 87,
                    "time": 89.45461999999982,
                    "velocity": 0.5590551181102362,
                    "duration": 0.545455000000004
                },
                {
                    "name": "G6",
                    "midi": 91,
                    "time": 89.45461999999982,
                    "velocity": 0.5590551181102362,
                    "duration": 0.545455000000004
                },
                {
                    "name": "G5",
                    "midi": 79,
                    "time": 89.45461999999982,
                    "velocity": 0.5590551181102362,
                    "duration": 0.545455000000004
                },
                {
                    "name": "F#5",
                    "midi": 78,
                    "time": 90.00007499999982,
                    "velocity": 0.5196850393700787,
                    "duration": 0.136363750000001
                },
                {
                    "name": "D6",
                    "midi": 86,
                    "time": 90.00007499999982,
                    "velocity": 0.5196850393700787,
                    "duration": 0.136363750000001
                },
                {
                    "name": "F#6",
                    "midi": 90,
                    "time": 90.00007499999982,
                    "velocity": 0.5196850393700787,
                    "duration": 0.136363750000001
                },
                {
                    "name": "G5",
                    "midi": 79,
                    "time": 90.13643874999983,
                    "velocity": 0.5433070866141733,
                    "duration": 0.136363750000001
                },
                {
                    "name": "D#6",
                    "midi": 87,
                    "time": 90.13643874999983,
                    "velocity": 0.5433070866141733,
                    "duration": 0.136363750000001
                },
                {
                    "name": "G6",
                    "midi": 91,
                    "time": 90.13643874999983,
                    "velocity": 0.5433070866141733,
                    "duration": 0.136363750000001
                },
                {
                    "name": "G#6",
                    "midi": 92,
                    "time": 90.27280249999983,
                    "velocity": 0.5590551181102362,
                    "duration": 0.272727500000002
                },
                {
                    "name": "D6",
                    "midi": 86,
                    "time": 90.27280249999983,
                    "velocity": 0.5590551181102362,
                    "duration": 0.272727500000002
                },
                {
                    "name": "G#5",
                    "midi": 80,
                    "time": 90.27280249999983,
                    "velocity": 0.5590551181102362,
                    "duration": 0.272727500000002
                },
                {
                    "name": "G5",
                    "midi": 79,
                    "time": 90.54552999999983,
                    "velocity": 0.5590551181102362,
                    "duration": 0.2045456249999944
                },
                {
                    "name": "D6",
                    "midi": 86,
                    "time": 90.54552999999983,
                    "velocity": 0.5590551181102362,
                    "duration": 0.2045456249999944
                },
                {
                    "name": "G6",
                    "midi": 91,
                    "time": 90.54552999999983,
                    "velocity": 0.5590551181102362,
                    "duration": 0.2045456249999944
                },
                {
                    "name": "F5",
                    "midi": 77,
                    "time": 90.75007562499982,
                    "velocity": 0.5354330708661418,
                    "duration": 0.0681818749999934
                },
                {
                    "name": "F6",
                    "midi": 89,
                    "time": 90.75007562499982,
                    "velocity": 0.5354330708661418,
                    "duration": 0.0681818749999934
                },
                {
                    "name": "G5",
                    "midi": 79,
                    "time": 90.81825749999982,
                    "velocity": 0.5354330708661418,
                    "duration": 0.272727500000002
                },
                {
                    "name": "D#6",
                    "midi": 87,
                    "time": 90.81825749999982,
                    "velocity": 0.5354330708661418,
                    "duration": 0.272727500000002
                },
                {
                    "name": "G6",
                    "midi": 91,
                    "time": 90.81825749999982,
                    "velocity": 0.5354330708661418,
                    "duration": 0.272727500000002
                },
                {
                    "name": "G#4",
                    "midi": 68,
                    "time": 91.09098499999982,
                    "velocity": 0.4409448818897638,
                    "duration": 0.2727274999999878
                },
                {
                    "name": "G5",
                    "midi": 79,
                    "time": 91.09098499999982,
                    "velocity": 0.5275590551181102,
                    "duration": 0.2045456249999944
                },
                {
                    "name": "F5",
                    "midi": 77,
                    "time": 91.29553062499981,
                    "velocity": 0.49606299212598426,
                    "duration": 0.0681818749999934
                },
                {
                    "name": "G4",
                    "midi": 67,
                    "time": 91.3637124999998,
                    "velocity": 0.3937007874015748,
                    "duration": 0.272727500000002
                },
                {
                    "name": "D#5",
                    "midi": 75,
                    "time": 91.3637124999998,
                    "velocity": 0.4645669291338583,
                    "duration": 0.272727500000002
                },
                {
                    "name": "G#3",
                    "midi": 56,
                    "time": 91.63643999999981,
                    "velocity": 0.4409448818897638,
                    "duration": 0.2727274999999878
                },
                {
                    "name": "G4",
                    "midi": 67,
                    "time": 91.63643999999981,
                    "velocity": 0.5275590551181102,
                    "duration": 0.2045456249999944
                },
                {
                    "name": "F4",
                    "midi": 65,
                    "time": 91.8409856249998,
                    "velocity": 0.49606299212598426,
                    "duration": 0.0681818749999934
                },
                {
                    "name": "G3",
                    "midi": 55,
                    "time": 91.9091674999998,
                    "velocity": 0.3937007874015748,
                    "duration": 0.272727500000002
                },
                {
                    "name": "D#4",
                    "midi": 63,
                    "time": 91.9091674999998,
                    "velocity": 0.4645669291338583,
                    "duration": 0.272727500000002
                },
                {
                    "name": "F4",
                    "midi": 65,
                    "time": 92.4546224999998,
                    "velocity": 0.5354330708661418,
                    "duration": 1.0909099999999938
                },
                {
                    "name": "A#3",
                    "midi": 58,
                    "time": 93.5455324999998,
                    "velocity": 0.49606299212598426,
                    "duration": 0.545455000000004
                },
                {
                    "name": "C4",
                    "midi": 60,
                    "time": 94.0909874999998,
                    "velocity": 0.5275590551181102,
                    "duration": 0.818182500000006
                },
                {
                    "name": "C4",
                    "midi": 60,
                    "time": 94.9091699999998,
                    "velocity": 0.5039370078740157,
                    "duration": 0.2045456249999944
                },
                {
                    "name": "C#4",
                    "midi": 61,
                    "time": 95.1137156249998,
                    "velocity": 0.4881889763779528,
                    "duration": 0.0681818749999934
                },
                {
                    "name": "C#4",
                    "midi": 61,
                    "time": 95.18189749999979,
                    "velocity": 0.41732283464566927,
                    "duration": 0.0681818749999934
                },
                {
                    "name": "D#4",
                    "midi": 63,
                    "time": 95.25007937499979,
                    "velocity": 0.4251968503937008,
                    "duration": 0.0681818749999934
                },
                {
                    "name": "C#4",
                    "midi": 61,
                    "time": 95.31826124999978,
                    "velocity": 0.4409448818897638,
                    "duration": 0.0681818749999934
                },
                {
                    "name": "D#4",
                    "midi": 63,
                    "time": 95.38644312499977,
                    "velocity": 0.4409448818897638,
                    "duration": 0.0681818749999934
                },
                {
                    "name": "C#4",
                    "midi": 61,
                    "time": 95.45462499999977,
                    "velocity": 0.44881889763779526,
                    "duration": 0.054545500000003244
                },
                {
                    "name": "D#4",
                    "midi": 63,
                    "time": 95.50917049999977,
                    "velocity": 0.44881889763779526,
                    "duration": 0.054545500000003244
                },
                {
                    "name": "C#4",
                    "midi": 61,
                    "time": 95.56371599999977,
                    "velocity": 0.4409448818897638,
                    "duration": 0.054545500000003244
                },
                {
                    "name": "C4",
                    "midi": 60,
                    "time": 95.61826149999978,
                    "velocity": 0.4409448818897638,
                    "duration": 0.054545500000003244
                },
                {
                    "name": "C#4",
                    "midi": 61,
                    "time": 95.67280699999978,
                    "velocity": 0.4330708661417323,
                    "duration": 0.054545500000003244
                },
                {
                    "name": "C4",
                    "midi": 60,
                    "time": 95.72735249999978,
                    "velocity": 0.5275590551181102,
                    "duration": 0.818182500000006
                },
                {
                    "name": "C4",
                    "midi": 60,
                    "time": 96.54553499999979,
                    "velocity": 0.5039370078740157,
                    "duration": 0.2045456249999944
                },
                {
                    "name": "C#4",
                    "midi": 61,
                    "time": 96.75008062499978,
                    "velocity": 0.4881889763779528,
                    "duration": 0.0681818749999934
                },
                {
                    "name": "C#4",
                    "midi": 61,
                    "time": 96.81826249999978,
                    "velocity": 0.41732283464566927,
                    "duration": 0.0681818749999934
                },
                {
                    "name": "D#4",
                    "midi": 63,
                    "time": 96.88644437499977,
                    "velocity": 0.4251968503937008,
                    "duration": 0.0681818749999934
                },
                {
                    "name": "C#4",
                    "midi": 61,
                    "time": 96.95462624999976,
                    "velocity": 0.4409448818897638,
                    "duration": 0.0681818749999934
                },
                {
                    "name": "D#4",
                    "midi": 63,
                    "time": 97.02280812499976,
                    "velocity": 0.4409448818897638,
                    "duration": 0.0681818749999934
                },
                {
                    "name": "C#4",
                    "midi": 61,
                    "time": 97.09098999999975,
                    "velocity": 0.44881889763779526,
                    "duration": 0.054545500000003244
                },
                {
                    "name": "D#4",
                    "midi": 63,
                    "time": 97.14553549999975,
                    "velocity": 0.44881889763779526,
                    "duration": 0.054545500000003244
                },
                {
                    "name": "C#4",
                    "midi": 61,
                    "time": 97.20008099999976,
                    "velocity": 0.4409448818897638,
                    "duration": 0.054545500000003244
                },
                {
                    "name": "C4",
                    "midi": 60,
                    "time": 97.25462649999976,
                    "velocity": 0.4409448818897638,
                    "duration": 0.054545500000003244
                },
                {
                    "name": "C#4",
                    "midi": 61,
                    "time": 97.30917199999976,
                    "velocity": 0.4330708661417323,
                    "duration": 0.054545500000003244
                },
                {
                    "name": "C4",
                    "midi": 60,
                    "time": 97.36371749999977,
                    "velocity": 0.5039370078740157,
                    "duration": 0.272727500000002
                },
                {
                    "name": "D4",
                    "midi": 62,
                    "time": 97.63644499999977,
                    "velocity": 0.4409448818897638,
                    "duration": 0.136363750000001
                },
                {
                    "name": "E4",
                    "midi": 64,
                    "time": 97.77280874999977,
                    "velocity": 0.4566929133858268,
                    "duration": 0.136363750000001
                },
                {
                    "name": "F4",
                    "midi": 65,
                    "time": 97.90917249999977,
                    "velocity": 0.48031496062992124,
                    "duration": 0.272727500000002
                },
                {
                    "name": "G4",
                    "midi": 67,
                    "time": 98.18189999999977,
                    "velocity": 0.5039370078740157,
                    "duration": 0.272727500000002
                },
                {
                    "name": "A#4",
                    "midi": 70,
                    "time": 98.45462749999977,
                    "velocity": 0.49606299212598426,
                    "duration": 0.136363750000001
                },
                {
                    "name": "G#4",
                    "midi": 68,
                    "time": 98.59099124999977,
                    "velocity": 0.4881889763779528,
                    "duration": 0.136363750000001
                },
                {
                    "name": "G4",
                    "midi": 67,
                    "time": 98.72735499999978,
                    "velocity": 0.48031496062992124,
                    "duration": 0.136363750000001
                },
                {
                    "name": "F4",
                    "midi": 65,
                    "time": 98.86371874999978,
                    "velocity": 0.4645669291338583,
                    "duration": 0.0681818749999934
                },
                {
                    "name": "F4",
                    "midi": 65,
                    "time": 98.93190062499977,
                    "velocity": 0.3858267716535433,
                    "duration": 0.0340909374999967
                },
                {
                    "name": "F4",
                    "midi": 65,
                    "time": 98.96599156249977,
                    "velocity": 0.3779527559055118,
                    "duration": 0.0340909374999967
                },
                {
                    "name": "F5",
                    "midi": 77,
                    "time": 99.00008249999976,
                    "velocity": 0.5354330708661418,
                    "duration": 1.0909099999999938
                },
                {
                    "name": "A#3",
                    "midi": 58,
                    "time": 100.09099249999976,
                    "velocity": 0.41732283464566927,
                    "duration": 0.545455000000004
                },
                {
                    "name": "A#4",
                    "midi": 70,
                    "time": 100.09099249999976,
                    "velocity": 0.49606299212598426,
                    "duration": 0.545455000000004
                },
                {
                    "name": "C4",
                    "midi": 60,
                    "time": 100.63644749999976,
                    "velocity": 0.4409448818897638,
                    "duration": 0.818182500000006
                },
                {
                    "name": "C5",
                    "midi": 72,
                    "time": 100.63644749999976,
                    "velocity": 0.5275590551181102,
                    "duration": 0.818182500000006
                },
                {
                    "name": "C5",
                    "midi": 72,
                    "time": 101.45462999999977,
                    "velocity": 0.5039370078740157,
                    "duration": 0.2045456249999944
                },
                {
                    "name": "C#5",
                    "midi": 73,
                    "time": 101.65917562499976,
                    "velocity": 0.4881889763779528,
                    "duration": 0.0340909374999967
                },
                {
                    "name": "C#4",
                    "midi": 61,
                    "time": 101.69326656249976,
                    "velocity": 0.3858267716535433,
                    "duration": 0.0340909374999967
                },
                {
                    "name": "C#5",
                    "midi": 73,
                    "time": 101.72735749999975,
                    "velocity": 0.41732283464566927,
                    "duration": 0.0681818749999934
                },
                {
                    "name": "D#5",
                    "midi": 75,
                    "time": 101.79553937499975,
                    "velocity": 0.4251968503937008,
                    "duration": 0.0681818749999934
                },
                {
                    "name": "C#5",
                    "midi": 73,
                    "time": 101.86372124999974,
                    "velocity": 0.4409448818897638,
                    "duration": 0.0681818749999934
                },
                {
                    "name": "D#5",
                    "midi": 75,
                    "time": 101.93190312499974,
                    "velocity": 0.4409448818897638,
                    "duration": 0.0681818749999934
                },
                {
                    "name": "C#5",
                    "midi": 73,
                    "time": 102.00008499999973,
                    "velocity": 0.44881889763779526,
                    "duration": 0.054545500000003244
                },
                {
                    "name": "D#5",
                    "midi": 75,
                    "time": 102.05463049999973,
                    "velocity": 0.44881889763779526,
                    "duration": 0.054545500000003244
                },
                {
                    "name": "C#5",
                    "midi": 73,
                    "time": 102.10917599999974,
                    "velocity": 0.4409448818897638,
                    "duration": 0.054545500000003244
                },
                {
                    "name": "C5",
                    "midi": 72,
                    "time": 102.16372149999974,
                    "velocity": 0.4409448818897638,
                    "duration": 0.054545500000003244
                },
                {
                    "name": "C#5",
                    "midi": 73,
                    "time": 102.21826699999974,
                    "velocity": 0.4330708661417323,
                    "duration": 0.054545500000003244
                },
                {
                    "name": "C4",
                    "midi": 60,
                    "time": 102.27281249999974,
                    "velocity": 0.4409448818897638,
                    "duration": 0.818182500000006
                },
                {
                    "name": "C5",
                    "midi": 72,
                    "time": 102.27281249999974,
                    "velocity": 0.5275590551181102,
                    "duration": 0.818182500000006
                },
                {
                    "name": "C5",
                    "midi": 72,
                    "time": 103.09099499999975,
                    "velocity": 0.5196850393700787,
                    "duration": 0.2045456249999944
                },
                {
                    "name": "C#5",
                    "midi": 73,
                    "time": 103.29554062499975,
                    "velocity": 0.5039370078740157,
                    "duration": 0.0340909374999967
                },
                {
                    "name": "C#4",
                    "midi": 61,
                    "time": 103.32963156249974,
                    "velocity": 0.4015748031496063,
                    "duration": 0.0340909374999967
                },
                {
                    "name": "C#5",
                    "midi": 73,
                    "time": 103.36372249999974,
                    "velocity": 0.4330708661417323,
                    "duration": 0.0681818749999934
                },
                {
                    "name": "D#5",
                    "midi": 75,
                    "time": 103.43190437499973,
                    "velocity": 0.4409448818897638,
                    "duration": 0.0681818749999934
                },
                {
                    "name": "C#5",
                    "midi": 73,
                    "time": 103.50008624999973,
                    "velocity": 0.4566929133858268,
                    "duration": 0.0681818749999934
                },
                {
                    "name": "D#5",
                    "midi": 75,
                    "time": 103.56826812499972,
                    "velocity": 0.4566929133858268,
                    "duration": 0.0681818749999934
                },
                {
                    "name": "C#5",
                    "midi": 73,
                    "time": 103.63644999999971,
                    "velocity": 0.47244094488188976,
                    "duration": 0.054545500000003244
                },
                {
                    "name": "D#5",
                    "midi": 75,
                    "time": 103.69099549999972,
                    "velocity": 0.47244094488188976,
                    "duration": 0.054545500000003244
                },
                {
                    "name": "C#5",
                    "midi": 73,
                    "time": 103.74554099999972,
                    "velocity": 0.4645669291338583,
                    "duration": 0.054545500000003244
                },
                {
                    "name": "C5",
                    "midi": 72,
                    "time": 103.80008649999972,
                    "velocity": 0.4566929133858268,
                    "duration": 0.054545500000003244
                },
                {
                    "name": "C#5",
                    "midi": 73,
                    "time": 103.85463199999973,
                    "velocity": 0.44881889763779526,
                    "duration": 0.054545500000003244
                },
                {
                    "name": "D5",
                    "midi": 74,
                    "time": 103.90917749999973,
                    "velocity": 0.4409448818897638,
                    "duration": 0.0681818749999934
                },
                {
                    "name": "D#5",
                    "midi": 75,
                    "time": 103.97735937499972,
                    "velocity": 0.44881889763779526,
                    "duration": 0.0681818749999934
                },
                {
                    "name": "D5",
                    "midi": 74,
                    "time": 104.04554124999972,
                    "velocity": 0.4645669291338583,
                    "duration": 0.0681818749999934
                },
                {
                    "name": "D#5",
                    "midi": 75,
                    "time": 104.11372312499971,
                    "velocity": 0.47244094488188976,
                    "duration": 0.0681818749999934
                },
                {
                    "name": "D5",
                    "midi": 74,
                    "time": 104.1819049999997,
                    "velocity": 0.48031496062992124,
                    "duration": 0.054545500000003244
                },
                {
                    "name": "D#5",
                    "midi": 75,
                    "time": 104.2364504999997,
                    "velocity": 0.48031496062992124,
                    "duration": 0.054545500000003244
                },
                {
                    "name": "D5",
                    "midi": 74,
                    "time": 104.29099599999971,
                    "velocity": 0.48031496062992124,
                    "duration": 0.054545500000003244
                },
                {
                    "name": "C#5",
                    "midi": 73,
                    "time": 104.34554149999971,
                    "velocity": 0.47244094488188976,
                    "duration": 0.054545500000003244
                },
                {
                    "name": "D5",
                    "midi": 74,
                    "time": 104.40008699999971,
                    "velocity": 0.4645669291338583,
                    "duration": 0.054545500000003244
                },
                {
                    "name": "D#5",
                    "midi": 75,
                    "time": 104.45463249999972,
                    "velocity": 0.4566929133858268,
                    "duration": 0.0681818749999934
                },
                {
                    "name": "F5",
                    "midi": 77,
                    "time": 104.52281437499971,
                    "velocity": 0.4645669291338583,
                    "duration": 0.0681818749999934
                },
                {
                    "name": "D#5",
                    "midi": 75,
                    "time": 104.5909962499997,
                    "velocity": 0.47244094488188976,
                    "duration": 0.0681818749999934
                },
                {
                    "name": "F5",
                    "midi": 77,
                    "time": 104.6591781249997,
                    "velocity": 0.4881889763779528,
                    "duration": 0.0681818749999934
                },
                {
                    "name": "D#5",
                    "midi": 75,
                    "time": 104.72735999999969,
                    "velocity": 0.4881889763779528,
                    "duration": 0.0681818749999934
                },
                {
                    "name": "F5",
                    "midi": 77,
                    "time": 104.79554187499969,
                    "velocity": 0.49606299212598426,
                    "duration": 0.0681818749999934
                },
                {
                    "name": "D#5",
                    "midi": 75,
                    "time": 104.86372374999968,
                    "velocity": 0.5039370078740157,
                    "duration": 0.0681818749999934
                },
                {
                    "name": "F5",
                    "midi": 77,
                    "time": 104.93190562499967,
                    "velocity": 0.5118110236220472,
                    "duration": 0.0681818749999934
                },
                {
                    "name": "D#5",
                    "midi": 75,
                    "time": 105.00008749999967,
                    "velocity": 0.5196850393700787,
                    "duration": 0.0681818749999934
                },
                {
                    "name": "F5",
                    "midi": 77,
                    "time": 105.06826937499966,
                    "velocity": 0.5354330708661418,
                    "duration": 0.0681818749999934
                },
                {
                    "name": "D#5",
                    "midi": 75,
                    "time": 105.13645124999965,
                    "velocity": 0.5433070866141733,
                    "duration": 0.0681818749999934
                },
                {
                    "name": "D5",
                    "midi": 74,
                    "time": 105.20463312499965,
                    "velocity": 0.5433070866141733,
                    "duration": 0.0681818749999934
                },
                {
                    "name": "D#5",
                    "midi": 75,
                    "time": 105.27281499999964,
                    "velocity": 0.5275590551181102,
                    "duration": 0.0681818749999934
                },
                {
                    "name": "F5",
                    "midi": 77,
                    "time": 105.34099687499963,
                    "velocity": 0.5354330708661418,
                    "duration": 0.0681818749999934
                },
                {
                    "name": "G5",
                    "midi": 79,
                    "time": 105.40917874999963,
                    "velocity": 0.5511811023622047,
                    "duration": 0.0681818749999934
                },
                {
                    "name": "G#5",
                    "midi": 80,
                    "time": 105.47736062499962,
                    "velocity": 0.5590551181102362,
                    "duration": 0.0681818749999934
                },
                {
                    "name": "A#5",
                    "midi": 82,
                    "time": 105.54554249999961,
                    "velocity": 0.5669291338582677,
                    "duration": 0.0681818749999934
                },
                {
                    "name": "C6",
                    "midi": 84,
                    "time": 105.6137243749996,
                    "velocity": 0.5826771653543307,
                    "duration": 0.0681818749999934
                },
                {
                    "name": "C#6",
                    "midi": 85,
                    "time": 105.6819062499996,
                    "velocity": 0.5905511811023622,
                    "duration": 0.0681818749999934
                },
                {
                    "name": "D#6",
                    "midi": 87,
                    "time": 105.75008812499959,
                    "velocity": 0.5984251968503937,
                    "duration": 0.0681818749999934
                },
                {
                    "name": "F5",
                    "midi": 77,
                    "time": 105.81826999999959,
                    "velocity": 0.6456692913385826,
                    "duration": 0.409091250000003
                },
                {
                    "name": "C#6",
                    "midi": 85,
                    "time": 105.81826999999959,
                    "velocity": 0.6456692913385826,
                    "duration": 0.409091250000003
                },
                {
                    "name": "F6",
                    "midi": 89,
                    "time": 105.81826999999959,
                    "velocity": 0.7637795275590551,
                    "duration": 0.409091250000003
                },
                {
                    "name": "D#5",
                    "midi": 75,
                    "time": 106.22736124999959,
                    "velocity": 0.6220472440944882,
                    "duration": 0.12272737499999664
                },
                {
                    "name": "C6",
                    "midi": 84,
                    "time": 106.22736124999959,
                    "velocity": 0.6220472440944882,
                    "duration": 0.12272737499999664
                },
                {
                    "name": "D#6",
                    "midi": 87,
                    "time": 106.22736124999959,
                    "velocity": 0.7322834645669292,
                    "duration": 0.12272737499999664
                },
                {
                    "name": "D#5",
                    "midi": 75,
                    "time": 106.36372499999959,
                    "velocity": 0.6220472440944882,
                    "duration": 0.2727274999999878
                },
                {
                    "name": "C6",
                    "midi": 84,
                    "time": 106.36372499999959,
                    "velocity": 0.6220472440944882,
                    "duration": 0.2727274999999878
                },
                {
                    "name": "D#6",
                    "midi": 87,
                    "time": 106.36372499999959,
                    "velocity": 0.7322834645669292,
                    "duration": 0.2727274999999878
                },
                {
                    "name": "D#4",
                    "midi": 63,
                    "time": 106.56827062499958,
                    "velocity": 0.5590551181102362,
                    "duration": 0.0681818749999934
                },
                {
                    "name": "D#4",
                    "midi": 63,
                    "time": 106.63645249999958,
                    "velocity": 0.5590551181102362,
                    "duration": 0.054545500000003244
                },
                {
                    "name": "F4",
                    "midi": 65,
                    "time": 106.69099799999958,
                    "velocity": 0.5590551181102362,
                    "duration": 0.054545500000003244
                },
                {
                    "name": "D#4",
                    "midi": 63,
                    "time": 106.74554349999958,
                    "velocity": 0.5590551181102362,
                    "duration": 0.054545500000003244
                },
                {
                    "name": "D4",
                    "midi": 62,
                    "time": 106.80008899999959,
                    "velocity": 0.5590551181102362,
                    "duration": 0.054545500000003244
                },
                {
                    "name": "D#4",
                    "midi": 63,
                    "time": 106.85463449999959,
                    "velocity": 0.5590551181102362,
                    "duration": 0.054545500000003244
                },
                {
                    "name": "G#4",
                    "midi": 68,
                    "time": 106.9091799999996,
                    "velocity": 0.6850393700787402,
                    "duration": 0.136363750000001
                },
                {
                    "name": "C5",
                    "midi": 72,
                    "time": 107.1819074999996,
                    "velocity": 0.5826771653543307,
                    "duration": 0.136363750000001
                },
                {
                    "name": "G#5",
                    "midi": 80,
                    "time": 107.1819074999996,
                    "velocity": 0.5826771653543307,
                    "duration": 0.136363750000001
                },
                {
                    "name": "C6",
                    "midi": 84,
                    "time": 107.1819074999996,
                    "velocity": 0.6929133858267716,
                    "duration": 0.136363750000001
                },
                {
                    "name": "C#5",
                    "midi": 73,
                    "time": 107.3182712499996,
                    "velocity": 0.5748031496062992,
                    "duration": 0.136363750000001
                },
                {
                    "name": "A#5",
                    "midi": 82,
                    "time": 107.3182712499996,
                    "velocity": 0.5748031496062992,
                    "duration": 0.136363750000001
                },
                {
                    "name": "C#6",
                    "midi": 85,
                    "time": 107.3182712499996,
                    "velocity": 0.6771653543307087,
                    "duration": 0.136363750000001
                },
                {
                    "name": "F5",
                    "midi": 77,
                    "time": 107.4546349999996,
                    "velocity": 0.6220472440944882,
                    "duration": 0.136363750000001
                },
                {
                    "name": "C#6",
                    "midi": 85,
                    "time": 107.4546349999996,
                    "velocity": 0.6220472440944882,
                    "duration": 0.136363750000001
                },
                {
                    "name": "F6",
                    "midi": 89,
                    "time": 107.4546349999996,
                    "velocity": 0.7322834645669292,
                    "duration": 0.136363750000001
                },
                {
                    "name": "D#5",
                    "midi": 75,
                    "time": 107.65918062499959,
                    "velocity": 0.5826771653543307,
                    "duration": 0.061363687500005426
                },
                {
                    "name": "C6",
                    "midi": 84,
                    "time": 107.65918062499959,
                    "velocity": 0.5826771653543307,
                    "duration": 0.061363687500005426
                },
                {
                    "name": "D#6",
                    "midi": 87,
                    "time": 107.65918062499959,
                    "velocity": 0.6929133858267716,
                    "duration": 0.061363687500005426
                },
                {
                    "name": "D#5",
                    "midi": 75,
                    "time": 107.7273624999996,
                    "velocity": 0.5826771653543307,
                    "duration": 0.136363750000001
                },
                {
                    "name": "C6",
                    "midi": 84,
                    "time": 107.7273624999996,
                    "velocity": 0.5826771653543307,
                    "duration": 0.136363750000001
                },
                {
                    "name": "D#6",
                    "midi": 87,
                    "time": 107.7273624999996,
                    "velocity": 0.7322834645669292,
                    "duration": 0.136363750000001
                },
                {
                    "name": "D5",
                    "midi": 74,
                    "time": 107.8637262499996,
                    "velocity": 0.5826771653543307,
                    "duration": 0.136363750000001
                },
                {
                    "name": "B5",
                    "midi": 83,
                    "time": 107.8637262499996,
                    "velocity": 0.5826771653543307,
                    "duration": 0.136363750000001
                },
                {
                    "name": "D6",
                    "midi": 86,
                    "time": 107.8637262499996,
                    "velocity": 0.6929133858267716,
                    "duration": 0.136363750000001
                },
                {
                    "name": "D#5",
                    "midi": 75,
                    "time": 108.0000899999996,
                    "velocity": 0.5826771653543307,
                    "duration": 0.2727274999999878
                },
                {
                    "name": "C6",
                    "midi": 84,
                    "time": 108.0000899999996,
                    "velocity": 0.5826771653543307,
                    "duration": 0.2727274999999878
                },
                {
                    "name": "D#6",
                    "midi": 87,
                    "time": 108.0000899999996,
                    "velocity": 0.6929133858267716,
                    "duration": 0.2727274999999878
                },
                {
                    "name": "D#4",
                    "midi": 63,
                    "time": 108.2046356249996,
                    "velocity": 0.5511811023622047,
                    "duration": 0.0681818749999934
                },
                {
                    "name": "D#4",
                    "midi": 63,
                    "time": 108.27281749999959,
                    "velocity": 0.5511811023622047,
                    "duration": 0.054545500000003244
                },
                {
                    "name": "F4",
                    "midi": 65,
                    "time": 108.3273629999996,
                    "velocity": 0.5511811023622047,
                    "duration": 0.054545500000003244
                },
                {
                    "name": "D#4",
                    "midi": 63,
                    "time": 108.3819084999996,
                    "velocity": 0.5511811023622047,
                    "duration": 0.054545500000003244
                },
                {
                    "name": "D4",
                    "midi": 62,
                    "time": 108.4364539999996,
                    "velocity": 0.5511811023622047,
                    "duration": 0.054545500000003244
                },
                {
                    "name": "D#4",
                    "midi": 63,
                    "time": 108.4909994999996,
                    "velocity": 0.5511811023622047,
                    "duration": 0.054545500000003244
                },
                {
                    "name": "G#4",
                    "midi": 68,
                    "time": 108.5455449999996,
                    "velocity": 0.6850393700787402,
                    "duration": 0.136363750000001
                },
                {
                    "name": "C6",
                    "midi": 84,
                    "time": 108.81827249999961,
                    "velocity": 0.6929133858267716,
                    "duration": 0.136363750000001
                },
                {
                    "name": "C5",
                    "midi": 72,
                    "time": 108.81827249999961,
                    "velocity": 0.5826771653543307,
                    "duration": 0.136363750000001
                },
                {
                    "name": "G#5",
                    "midi": 80,
                    "time": 108.81827249999961,
                    "velocity": 0.5826771653543307,
                    "duration": 0.136363750000001
                },
                {
                    "name": "C#6",
                    "midi": 85,
                    "time": 108.95463624999961,
                    "velocity": 0.6771653543307087,
                    "duration": 0.136363750000001
                },
                {
                    "name": "C#5",
                    "midi": 73,
                    "time": 108.95463624999961,
                    "velocity": 0.5748031496062992,
                    "duration": 0.136363750000001
                },
                {
                    "name": "A#5",
                    "midi": 82,
                    "time": 108.95463624999961,
                    "velocity": 0.5748031496062992,
                    "duration": 0.136363750000001
                },
                {
                    "name": "C#6",
                    "midi": 85,
                    "time": 109.09099999999961,
                    "velocity": 0.6220472440944882,
                    "duration": 0.136363750000001
                },
                {
                    "name": "F6",
                    "midi": 89,
                    "time": 109.09099999999961,
                    "velocity": 0.7322834645669292,
                    "duration": 0.136363750000001
                },
                {
                    "name": "F5",
                    "midi": 77,
                    "time": 109.09099999999961,
                    "velocity": 0.6220472440944882,
                    "duration": 0.136363750000001
                },
                {
                    "name": "D#5",
                    "midi": 75,
                    "time": 109.22736374999961,
                    "velocity": 0.5826771653543307,
                    "duration": 0.2727274999999878
                },
                {
                    "name": "C6",
                    "midi": 84,
                    "time": 109.22736374999961,
                    "velocity": 0.5826771653543307,
                    "duration": 0.2727274999999878
                },
                {
                    "name": "D#6",
                    "midi": 87,
                    "time": 109.22736374999961,
                    "velocity": 0.6929133858267716,
                    "duration": 0.0681818749999934
                },
                {
                    "name": "F6",
                    "midi": 89,
                    "time": 109.2955456249996,
                    "velocity": 0.6377952755905512,
                    "duration": 0.0681818749999934
                },
                {
                    "name": "D#6",
                    "midi": 87,
                    "time": 109.3637274999996,
                    "velocity": 0.7322834645669292,
                    "duration": 0.136363750000001
                },
                {
                    "name": "B5",
                    "midi": 83,
                    "time": 109.5000912499996,
                    "velocity": 0.5826771653543307,
                    "duration": 0.136363750000001
                },
                {
                    "name": "D6",
                    "midi": 86,
                    "time": 109.5000912499996,
                    "velocity": 0.6929133858267716,
                    "duration": 0.136363750000001
                },
                {
                    "name": "D5",
                    "midi": 74,
                    "time": 109.5000912499996,
                    "velocity": 0.5826771653543307,
                    "duration": 0.136363750000001
                },
                {
                    "name": "C#6",
                    "midi": 85,
                    "time": 109.6364549999996,
                    "velocity": 0.6220472440944882,
                    "duration": 0.136363750000001
                },
                {
                    "name": "F6",
                    "midi": 89,
                    "time": 109.6364549999996,
                    "velocity": 0.7322834645669292,
                    "duration": 0.136363750000001
                },
                {
                    "name": "F5",
                    "midi": 77,
                    "time": 109.6364549999996,
                    "velocity": 0.6220472440944882,
                    "duration": 0.136363750000001
                },
                {
                    "name": "C6",
                    "midi": 84,
                    "time": 109.7728187499996,
                    "velocity": 0.5826771653543307,
                    "duration": 0.2727274999999878
                },
                {
                    "name": "D#6",
                    "midi": 87,
                    "time": 109.7728187499996,
                    "velocity": 0.6929133858267716,
                    "duration": 0.0681818749999934
                },
                {
                    "name": "D#5",
                    "midi": 75,
                    "time": 109.7728187499996,
                    "velocity": 0.5826771653543307,
                    "duration": 0.2727274999999878
                },
                {
                    "name": "F6",
                    "midi": 89,
                    "time": 109.8410006249996,
                    "velocity": 0.6377952755905512,
                    "duration": 0.0681818749999934
                },
                {
                    "name": "D#6",
                    "midi": 87,
                    "time": 109.90918249999959,
                    "velocity": 0.7322834645669292,
                    "duration": 0.136363750000001
                },
                {
                    "name": "D5",
                    "midi": 74,
                    "time": 110.04554624999959,
                    "velocity": 0.5826771653543307,
                    "duration": 0.136363750000001
                },
                {
                    "name": "B5",
                    "midi": 83,
                    "time": 110.04554624999959,
                    "velocity": 0.5826771653543307,
                    "duration": 0.136363750000001
                },
                {
                    "name": "D6",
                    "midi": 86,
                    "time": 110.04554624999959,
                    "velocity": 0.6929133858267716,
                    "duration": 0.136363750000001
                },
                {
                    "name": "D#5",
                    "midi": 75,
                    "time": 110.18190999999959,
                    "velocity": 0.5826771653543307,
                    "duration": 0.2045456249999944
                },
                {
                    "name": "C6",
                    "midi": 84,
                    "time": 110.18190999999959,
                    "velocity": 0.5826771653543307,
                    "duration": 0.2045456249999944
                },
                {
                    "name": "D#6",
                    "midi": 87,
                    "time": 110.18190999999959,
                    "velocity": 0.6929133858267716,
                    "duration": 0.2045456249999944
                },
                {
                    "name": "D#5",
                    "midi": 75,
                    "time": 110.38645562499958,
                    "velocity": 0.5669291338582677,
                    "duration": 0.2727274999999878
                },
                {
                    "name": "A#5",
                    "midi": 82,
                    "time": 110.42054656249958,
                    "velocity": 0.5669291338582677,
                    "duration": 0.2386365624999911
                },
                {
                    "name": "F#6",
                    "midi": 90,
                    "time": 110.45463749999958,
                    "velocity": 0.6692913385826772,
                    "duration": 0.2045456249999944
                },
                {
                    "name": "D#5",
                    "midi": 75,
                    "time": 110.65918312499957,
                    "velocity": 0.5511811023622047,
                    "duration": 0.2727274999999878
                },
                {
                    "name": "A5",
                    "midi": 81,
                    "time": 110.69327406249957,
                    "velocity": 0.5511811023622047,
                    "duration": 0.2386365624999911
                },
                {
                    "name": "F6",
                    "midi": 89,
                    "time": 110.72736499999957,
                    "velocity": 0.6535433070866141,
                    "duration": 0.2045456249999944
                },
                {
                    "name": "C5",
                    "midi": 72,
                    "time": 110.89781968749956,
                    "velocity": 0.5511811023622047,
                    "duration": 0.3068184374999845
                },
                {
                    "name": "D#5",
                    "midi": 75,
                    "time": 110.93191062499956,
                    "velocity": 0.5511811023622047,
                    "duration": 0.2727274999999878
                },
                {
                    "name": "F5",
                    "midi": 77,
                    "time": 110.96600156249956,
                    "velocity": 0.5511811023622047,
                    "duration": 0.2386365624999911
                },
                {
                    "name": "C6",
                    "midi": 84,
                    "time": 111.00009249999955,
                    "velocity": 0.6535433070866141,
                    "duration": 0.2045456249999944
                },
                {
                    "name": "A#4",
                    "midi": 70,
                    "time": 111.20463812499955,
                    "velocity": 0.5511811023622047,
                    "duration": 0.2727274999999878
                },
                {
                    "name": "F5",
                    "midi": 77,
                    "time": 111.23872906249954,
                    "velocity": 0.5511811023622047,
                    "duration": 0.2386365624999911
                },
                {
                    "name": "C#6",
                    "midi": 85,
                    "time": 111.27281999999954,
                    "velocity": 0.6535433070866141,
                    "duration": 0.2045456249999944
                },
                {
                    "name": "F#5",
                    "midi": 78,
                    "time": 111.54554749999953,
                    "velocity": 0.6299212598425197,
                    "duration": 0.0909091666666626
                },
                {
                    "name": "F#4",
                    "midi": 66,
                    "time": 111.63645666666619,
                    "velocity": 0.6299212598425197,
                    "duration": 0.0909091666666626
                },
                {
                    "name": "F#5",
                    "midi": 78,
                    "time": 111.72736583333285,
                    "velocity": 0.6299212598425197,
                    "duration": 0.0909091666666626
                },
                {
                    "name": "F4",
                    "midi": 65,
                    "time": 111.81827499999952,
                    "velocity": 0.5590551181102362,
                    "duration": 0.272727500000002
                },
                {
                    "name": "F5",
                    "midi": 77,
                    "time": 111.81827499999952,
                    "velocity": 0.6614173228346457,
                    "duration": 0.272727500000002
                },
                {
                    "name": "C#4",
                    "midi": 61,
                    "time": 112.09100249999952,
                    "velocity": 0.5826771653543307,
                    "duration": 0.272727500000002
                },
                {
                    "name": "C#5",
                    "midi": 73,
                    "time": 112.09100249999952,
                    "velocity": 0.6220472440944882,
                    "duration": 0.272727500000002
                },
                {
                    "name": "F#5",
                    "midi": 78,
                    "time": 112.36372999999952,
                    "velocity": 0.6456692913385826,
                    "duration": 0.409091250000003
                },
                {
                    "name": "D#6",
                    "midi": 87,
                    "time": 112.36372999999952,
                    "velocity": 0.6456692913385826,
                    "duration": 0.409091250000003
                },
                {
                    "name": "F#6",
                    "midi": 90,
                    "time": 112.36372999999952,
                    "velocity": 0.7637795275590551,
                    "duration": 0.409091250000003
                },
                {
                    "name": "F5",
                    "midi": 77,
                    "time": 112.77282124999952,
                    "velocity": 0.6220472440944882,
                    "duration": 0.12272737499999664
                },
                {
                    "name": "C#6",
                    "midi": 85,
                    "time": 112.77282124999952,
                    "velocity": 0.6220472440944882,
                    "duration": 0.12272737499999664
                },
                {
                    "name": "F6",
                    "midi": 89,
                    "time": 112.77282124999952,
                    "velocity": 0.7322834645669292,
                    "duration": 0.12272737499999664
                },
                {
                    "name": "F5",
                    "midi": 77,
                    "time": 112.90918499999952,
                    "velocity": 0.6220472440944882,
                    "duration": 0.2727274999999878
                },
                {
                    "name": "C#6",
                    "midi": 85,
                    "time": 112.90918499999952,
                    "velocity": 0.6220472440944882,
                    "duration": 0.2727274999999878
                },
                {
                    "name": "F6",
                    "midi": 89,
                    "time": 112.90918499999952,
                    "velocity": 0.7322834645669292,
                    "duration": 0.2727274999999878
                },
                {
                    "name": "F4",
                    "midi": 65,
                    "time": 113.11373062499952,
                    "velocity": 0.5590551181102362,
                    "duration": 0.0681818749999934
                },
                {
                    "name": "F4",
                    "midi": 65,
                    "time": 113.18191249999951,
                    "velocity": 0.5590551181102362,
                    "duration": 0.054545500000003244
                },
                {
                    "name": "F#4",
                    "midi": 66,
                    "time": 113.23645799999952,
                    "velocity": 0.5590551181102362,
                    "duration": 0.054545500000003244
                },
                {
                    "name": "F4",
                    "midi": 65,
                    "time": 113.29100349999952,
                    "velocity": 0.5590551181102362,
                    "duration": 0.054545500000003244
                },
                {
                    "name": "E4",
                    "midi": 64,
                    "time": 113.34554899999952,
                    "velocity": 0.5590551181102362,
                    "duration": 0.054545500000003244
                },
                {
                    "name": "F4",
                    "midi": 65,
                    "time": 113.40009449999953,
                    "velocity": 0.5590551181102362,
                    "duration": 0.054545500000003244
                },
                {
                    "name": "A#4",
                    "midi": 70,
                    "time": 113.45463999999953,
                    "velocity": 0.6850393700787402,
                    "duration": 0.272727500000002
                },
                {
                    "name": "C#5",
                    "midi": 73,
                    "time": 113.72736749999953,
                    "velocity": 0.5826771653543307,
                    "duration": 0.136363750000001
                },
                {
                    "name": "C#6",
                    "midi": 85,
                    "time": 113.72736749999953,
                    "velocity": 0.6929133858267716,
                    "duration": 0.136363750000001
                },
                {
                    "name": "A#5",
                    "midi": 82,
                    "time": 113.72736749999953,
                    "velocity": 0.5826771653543307,
                    "duration": 0.136363750000001
                },
                {
                    "name": "D#5",
                    "midi": 75,
                    "time": 113.86373124999953,
                    "velocity": 0.5748031496062992,
                    "duration": 0.136363750000001
                },
                {
                    "name": "C6",
                    "midi": 84,
                    "time": 113.86373124999953,
                    "velocity": 0.5748031496062992,
                    "duration": 0.136363750000001
                },
                {
                    "name": "D#6",
                    "midi": 87,
                    "time": 113.86373124999953,
                    "velocity": 0.6771653543307087,
                    "duration": 0.136363750000001
                },
                {
                    "name": "F#6",
                    "midi": 90,
                    "time": 114.00009499999953,
                    "velocity": 0.7322834645669292,
                    "duration": 0.136363750000001
                },
                {
                    "name": "F#5",
                    "midi": 78,
                    "time": 114.00009499999953,
                    "velocity": 0.6220472440944882,
                    "duration": 0.136363750000001
                },
                {
                    "name": "D#6",
                    "midi": 87,
                    "time": 114.00009499999953,
                    "velocity": 0.6220472440944882,
                    "duration": 0.136363750000001
                },
                {
                    "name": "F5",
                    "midi": 77,
                    "time": 114.20464062499953,
                    "velocity": 0.5826771653543307,
                    "duration": 0.0681818749999934
                },
                {
                    "name": "C#6",
                    "midi": 85,
                    "time": 114.20464062499953,
                    "velocity": 0.5826771653543307,
                    "duration": 0.0681818749999934
                },
                {
                    "name": "F6",
                    "midi": 89,
                    "time": 114.20464062499953,
                    "velocity": 0.6929133858267716,
                    "duration": 0.0681818749999934
                },
                {
                    "name": "C#6",
                    "midi": 85,
                    "time": 114.27282249999952,
                    "velocity": 0.5826771653543307,
                    "duration": 0.136363750000001
                },
                {
                    "name": "F5",
                    "midi": 77,
                    "time": 114.27282249999952,
                    "velocity": 0.5826771653543307,
                    "duration": 0.136363750000001
                },
                {
                    "name": "F6",
                    "midi": 89,
                    "time": 114.27282249999952,
                    "velocity": 0.7322834645669292,
                    "duration": 0.136363750000001
                },
                {
                    "name": "E5",
                    "midi": 76,
                    "time": 114.40918624999952,
                    "velocity": 0.5826771653543307,
                    "duration": 0.136363750000001
                },
                {
                    "name": "E6",
                    "midi": 88,
                    "time": 114.40918624999952,
                    "velocity": 0.6929133858267716,
                    "duration": 0.136363750000001
                },
                {
                    "name": "C6",
                    "midi": 84,
                    "time": 114.40918624999952,
                    "velocity": 0.5826771653543307,
                    "duration": 0.136363750000001
                },
                {
                    "name": "F5",
                    "midi": 77,
                    "time": 114.54554999999952,
                    "velocity": 0.6929133858267716,
                    "duration": 0.2727274999999878
                },
                {
                    "name": "C#6",
                    "midi": 85,
                    "time": 114.54554999999952,
                    "velocity": 0.5826771653543307,
                    "duration": 0.2727274999999878
                },
                {
                    "name": "F6",
                    "midi": 89,
                    "time": 114.54554999999952,
                    "velocity": 0.6929133858267716,
                    "duration": 0.2727274999999878
                },
                {
                    "name": "F4",
                    "midi": 65,
                    "time": 114.75009562499952,
                    "velocity": 0.5590551181102362,
                    "duration": 0.0681818749999934
                },
                {
                    "name": "F4",
                    "midi": 65,
                    "time": 114.81827749999951,
                    "velocity": 0.5590551181102362,
                    "duration": 0.054545500000003244
                },
                {
                    "name": "F#4",
                    "midi": 66,
                    "time": 114.87282299999951,
                    "velocity": 0.5590551181102362,
                    "duration": 0.054545500000003244
                },
                {
                    "name": "F4",
                    "midi": 65,
                    "time": 114.92736849999952,
                    "velocity": 0.5590551181102362,
                    "duration": 0.054545500000003244
                },
                {
                    "name": "E4",
                    "midi": 64,
                    "time": 114.98191399999952,
                    "velocity": 0.5590551181102362,
                    "duration": 0.054545500000003244
                },
                {
                    "name": "F4",
                    "midi": 65,
                    "time": 115.03645949999952,
                    "velocity": 0.5590551181102362,
                    "duration": 0.054545500000003244
                },
                {
                    "name": "A#4",
                    "midi": 70,
                    "time": 115.09100499999953,
                    "velocity": 0.6850393700787402,
                    "duration": 0.272727500000002
                },
                {
                    "name": "G5",
                    "midi": 79,
                    "time": 115.36373249999953,
                    "velocity": 0.6377952755905512,
                    "duration": 0.136363750000001
                },
                {
                    "name": "G6",
                    "midi": 91,
                    "time": 115.36373249999953,
                    "velocity": 0.7559055118110236,
                    "duration": 0.136363750000001
                },
                {
                    "name": "C#6",
                    "midi": 85,
                    "time": 115.36373249999953,
                    "velocity": 0.6377952755905512,
                    "duration": 0.136363750000001
                },
                {
                    "name": "G#5",
                    "midi": 80,
                    "time": 115.50009624999953,
                    "velocity": 0.6299212598425197,
                    "duration": 0.136363750000001
                },
                {
                    "name": "G#6",
                    "midi": 92,
                    "time": 115.50009624999953,
                    "velocity": 0.7401574803149606,
                    "duration": 0.136363750000001
                },
                {
                    "name": "C6",
                    "midi": 84,
                    "time": 115.63645999999953,
                    "velocity": 0.6692913385826772,
                    "duration": 0.136363750000001
                },
                {
                    "name": "C7",
                    "midi": 96,
                    "time": 115.63645999999953,
                    "velocity": 0.7952755905511811,
                    "duration": 0.136363750000001
                },
                {
                    "name": "D#6",
                    "midi": 87,
                    "time": 115.77282374999953,
                    "velocity": 0.5826771653543307,
                    "duration": 0.136363750000001
                },
                {
                    "name": "G6",
                    "midi": 91,
                    "time": 115.77282374999953,
                    "velocity": 0.6929133858267716,
                    "duration": 0.136363750000001
                },
                {
                    "name": "C7",
                    "midi": 96,
                    "time": 115.90918749999953,
                    "velocity": 0.7322834645669292,
                    "duration": 0.136363750000001
                },
                {
                    "name": "C6",
                    "midi": 84,
                    "time": 115.90918749999953,
                    "velocity": 0.6220472440944882,
                    "duration": 0.136363750000001
                },
                {
                    "name": "A#6",
                    "midi": 94,
                    "time": 116.11373312499953,
                    "velocity": 0.7244094488188977,
                    "duration": 0.061363687500005426
                },
                {
                    "name": "A#5",
                    "midi": 82,
                    "time": 116.11373312499953,
                    "velocity": 0.6141732283464567,
                    "duration": 0.061363687500005426
                },
                {
                    "name": "A#5",
                    "midi": 82,
                    "time": 116.18191499999953,
                    "velocity": 0.6377952755905512,
                    "duration": 0.136363750000001
                },
                {
                    "name": "A#6",
                    "midi": 94,
                    "time": 116.18191499999953,
                    "velocity": 0.7637795275590551,
                    "duration": 0.136363750000001
                },
                {
                    "name": "C6",
                    "midi": 84,
                    "time": 116.31827874999954,
                    "velocity": 0.5511811023622047,
                    "duration": 0.136363750000001
                },
                {
                    "name": "D#6",
                    "midi": 87,
                    "time": 116.31827874999954,
                    "velocity": 0.6614173228346457,
                    "duration": 0.136363750000001
                },
                {
                    "name": "A#6",
                    "midi": 94,
                    "time": 116.45464249999954,
                    "velocity": 0.7086614173228346,
                    "duration": 0.136363750000001
                },
                {
                    "name": "A#5",
                    "midi": 82,
                    "time": 116.45464249999954,
                    "velocity": 0.5905511811023622,
                    "duration": 0.136363750000001
                },
                {
                    "name": "G#5",
                    "midi": 80,
                    "time": 116.65918812499953,
                    "velocity": 0.5354330708661418,
                    "duration": 0.061363687500005426
                },
                {
                    "name": "G#6",
                    "midi": 92,
                    "time": 116.65918812499953,
                    "velocity": 0.6299212598425197,
                    "duration": 0.061363687500005426
                },
                {
                    "name": "G#5",
                    "midi": 80,
                    "time": 116.72736999999954,
                    "velocity": 0.6220472440944882,
                    "duration": 0.136363750000001
                },
                {
                    "name": "G#6",
                    "midi": 92,
                    "time": 116.72736999999954,
                    "velocity": 0.7322834645669292,
                    "duration": 0.136363750000001
                },
                {
                    "name": "D#6",
                    "midi": 87,
                    "time": 116.86373374999954,
                    "velocity": 0.6220472440944882,
                    "duration": 0.136363750000001
                },
                {
                    "name": "A#5",
                    "midi": 82,
                    "time": 116.86373374999954,
                    "velocity": 0.5275590551181102,
                    "duration": 0.136363750000001
                },
                {
                    "name": "G#6",
                    "midi": 92,
                    "time": 117.00009749999954,
                    "velocity": 0.6929133858267716,
                    "duration": 0.136363750000001
                },
                {
                    "name": "G#5",
                    "midi": 80,
                    "time": 117.00009749999954,
                    "velocity": 0.5826771653543307,
                    "duration": 0.136363750000001
                },
                {
                    "name": "G6",
                    "midi": 91,
                    "time": 117.20464312499954,
                    "velocity": 0.6220472440944882,
                    "duration": 0.061363687500005426
                },
                {
                    "name": "G5",
                    "midi": 79,
                    "time": 117.20464312499954,
                    "velocity": 0.5275590551181102,
                    "duration": 0.061363687500005426
                },
                {
                    "name": "G5",
                    "midi": 79,
                    "time": 117.27282499999954,
                    "velocity": 0.5905511811023622,
                    "duration": 0.136363750000001
                },
                {
                    "name": "G6",
                    "midi": 91,
                    "time": 117.27282499999954,
                    "velocity": 0.7086614173228346,
                    "duration": 0.136363750000001
                },
                {
                    "name": "D6",
                    "midi": 86,
                    "time": 117.40918874999954,
                    "velocity": 0.6141732283464567,
                    "duration": 0.136363750000001
                },
                {
                    "name": "A#5",
                    "midi": 82,
                    "time": 117.40918874999954,
                    "velocity": 0.5196850393700787,
                    "duration": 0.136363750000001
                },
                {
                    "name": "G5",
                    "midi": 79,
                    "time": 117.54555249999954,
                    "velocity": 0.5669291338582677,
                    "duration": 0.136363750000001
                },
                {
                    "name": "G6",
                    "midi": 91,
                    "time": 117.54555249999954,
                    "velocity": 0.6692913385826772,
                    "duration": 0.136363750000001
                },
                {
                    "name": "F6",
                    "midi": 89,
                    "time": 117.75009812499954,
                    "velocity": 0.6377952755905512,
                    "duration": 0.061363687500005426
                },
                {
                    "name": "F5",
                    "midi": 77,
                    "time": 117.75009812499954,
                    "velocity": 0.5354330708661418,
                    "duration": 0.061363687500005426
                },
                {
                    "name": "F6",
                    "midi": 89,
                    "time": 117.81827999999955,
                    "velocity": 0.6929133858267716,
                    "duration": 0.136363750000001
                },
                {
                    "name": "F5",
                    "midi": 77,
                    "time": 117.81827999999955,
                    "velocity": 0.5748031496062992,
                    "duration": 0.136363750000001
                },
                {
                    "name": "A#5",
                    "midi": 82,
                    "time": 117.95464374999955,
                    "velocity": 0.5905511811023622,
                    "duration": 0.136363750000001
                },
                {
                    "name": "G5",
                    "midi": 79,
                    "time": 117.95464374999955,
                    "velocity": 0.5039370078740157,
                    "duration": 0.136363750000001
                },
                {
                    "name": "F5",
                    "midi": 77,
                    "time": 118.09100749999955,
                    "velocity": 0.5433070866141733,
                    "duration": 0.136363750000001
                },
                {
                    "name": "F6",
                    "midi": 89,
                    "time": 118.09100749999955,
                    "velocity": 0.6456692913385826,
                    "duration": 0.136363750000001
                },
                {
                    "name": "D#5",
                    "midi": 75,
                    "time": 118.29555312499954,
                    "velocity": 0.5039370078740157,
                    "duration": 0.0681818749999934
                },
                {
                    "name": "D#6",
                    "midi": 87,
                    "time": 118.29555312499954,
                    "velocity": 0.5905511811023622,
                    "duration": 0.0681818749999934
                },
                {
                    "name": "C#5",
                    "midi": 73,
                    "time": 118.36373499999954,
                    "velocity": 0.5905511811023622,
                    "duration": 0.136363750000001
                },
                {
                    "name": "C#6",
                    "midi": 85,
                    "time": 118.36373499999954,
                    "velocity": 0.7086614173228346,
                    "duration": 0.136363750000001
                },
                {
                    "name": "F5",
                    "midi": 77,
                    "time": 118.50009874999954,
                    "velocity": 0.5039370078740157,
                    "duration": 0.136363750000001
                },
                {
                    "name": "G#5",
                    "midi": 80,
                    "time": 118.50009874999954,
                    "velocity": 0.5905511811023622,
                    "duration": 0.136363750000001
                },
                {
                    "name": "C#6",
                    "midi": 85,
                    "time": 118.63646249999954,
                    "velocity": 0.6614173228346457,
                    "duration": 0.136363750000001
                },
                {
                    "name": "C#5",
                    "midi": 73,
                    "time": 118.63646249999954,
                    "velocity": 0.5511811023622047,
                    "duration": 0.136363750000001
                },
                {
                    "name": "C6",
                    "midi": 84,
                    "time": 118.84100812499953,
                    "velocity": 0.5826771653543307,
                    "duration": 0.0681818749999934
                },
                {
                    "name": "C5",
                    "midi": 72,
                    "time": 118.84100812499953,
                    "velocity": 0.49606299212598426,
                    "duration": 0.0681818749999934
                },
                {
                    "name": "F4",
                    "midi": 65,
                    "time": 118.90918999999953,
                    "velocity": 0.7244094488188977,
                    "duration": 0.545455000000004
                },
                {
                    "name": "G4",
                    "midi": 67,
                    "time": 119.45464499999953,
                    "velocity": 0.4409448818897638,
                    "duration": 0.0681818749999934
                },
                {
                    "name": "G#4",
                    "midi": 68,
                    "time": 119.52282687499952,
                    "velocity": 0.4409448818897638,
                    "duration": 0.0681818749999934
                },
                {
                    "name": "G4",
                    "midi": 67,
                    "time": 119.59100874999952,
                    "velocity": 0.4409448818897638,
                    "duration": 0.0681818749999934
                },
                {
                    "name": "G#4",
                    "midi": 68,
                    "time": 119.65919062499951,
                    "velocity": 0.44881889763779526,
                    "duration": 0.0681818749999934
                },
                {
                    "name": "F4",
                    "midi": 65,
                    "time": 119.7273724999995,
                    "velocity": 0.44881889763779526,
                    "duration": 0.136363750000001
                },
                {
                    "name": "G4",
                    "midi": 67,
                    "time": 119.8637362499995,
                    "velocity": 0.4566929133858268,
                    "duration": 0.136363750000001
                },
                {
                    "name": "G#4",
                    "midi": 68,
                    "time": 120.0000999999995,
                    "velocity": 0.47244094488188976,
                    "duration": 0.0681818749999934
                },
                {
                    "name": "A#4",
                    "midi": 70,
                    "time": 120.0682818749995,
                    "velocity": 0.47244094488188976,
                    "duration": 0.0681818749999934
                },
                {
                    "name": "G#4",
                    "midi": 68,
                    "time": 120.13646374999949,
                    "velocity": 0.48031496062992124,
                    "duration": 0.0681818749999934
                },
                {
                    "name": "A#4",
                    "midi": 70,
                    "time": 120.20464562499949,
                    "velocity": 0.48031496062992124,
                    "duration": 0.0681818749999934
                },
                {
                    "name": "G4",
                    "midi": 67,
                    "time": 120.27282749999948,
                    "velocity": 0.4881889763779528,
                    "duration": 0.136363750000001
                },
                {
                    "name": "G#4",
                    "midi": 68,
                    "time": 120.40919124999948,
                    "velocity": 0.49606299212598426,
                    "duration": 0.136363750000001
                },
                {
                    "name": "C#4",
                    "midi": 61,
                    "time": 120.54555499999948,
                    "velocity": 0.36220472440944884,
                    "duration": 0.272727500000002
                },
                {
                    "name": "G4",
                    "midi": 67,
                    "time": 120.54555499999948,
                    "velocity": 0.36220472440944884,
                    "duration": 0.272727500000002
                },
                {
                    "name": "A4",
                    "midi": 69,
                    "time": 120.54555499999948,
                    "velocity": 0.5118110236220472,
                    "duration": 0.136363750000001
                },
                {
                    "name": "A#4",
                    "midi": 70,
                    "time": 120.68191874999948,
                    "velocity": 0.48031496062992124,
                    "duration": 0.136363750000001
                },
                {
                    "name": "C#4",
                    "midi": 61,
                    "time": 120.81828249999948,
                    "velocity": 0.33858267716535434,
                    "duration": 0.272727500000002
                },
                {
                    "name": "G4",
                    "midi": 67,
                    "time": 120.81828249999948,
                    "velocity": 0.33858267716535434,
                    "duration": 0.272727500000002
                },
                {
                    "name": "C5",
                    "midi": 72,
                    "time": 120.81828249999948,
                    "velocity": 0.48031496062992124,
                    "duration": 0.136363750000001
                },
                {
                    "name": "C#5",
                    "midi": 73,
                    "time": 120.95464624999948,
                    "velocity": 0.48031496062992124,
                    "duration": 0.136363750000001
                },
                {
                    "name": "C4",
                    "midi": 60,
                    "time": 121.09100999999949,
                    "velocity": 0.36220472440944884,
                    "duration": 0.272727500000002
                },
                {
                    "name": "G#4",
                    "midi": 68,
                    "time": 121.09100999999949,
                    "velocity": 0.4330708661417323,
                    "duration": 0.272727500000002
                },
                {
                    "name": "C5",
                    "midi": 72,
                    "time": 121.09100999999949,
                    "velocity": 0.5118110236220472,
                    "duration": 0.272727500000002
                },
                {
                    "name": "F5",
                    "midi": 77,
                    "time": 121.36373749999949,
                    "velocity": 0.5196850393700787,
                    "duration": 0.2045456249999944
                },
                {
                    "name": "B3",
                    "midi": 59,
                    "time": 121.36373749999949,
                    "velocity": 0.4409448818897638,
                    "duration": 0.2045456249999944
                },
                {
                    "name": "D4",
                    "midi": 62,
                    "time": 121.36373749999949,
                    "velocity": 0.4409448818897638,
                    "duration": 0.2045456249999944
                },
                {
                    "name": "F4",
                    "midi": 65,
                    "time": 121.36373749999949,
                    "velocity": 0.4409448818897638,
                    "duration": 0.2045456249999944
                },
                {
                    "name": "G#4",
                    "midi": 68,
                    "time": 121.36373749999949,
                    "velocity": 0.4409448818897638,
                    "duration": 0.2045456249999944
                },
                {
                    "name": "D#4",
                    "midi": 63,
                    "time": 121.56828312499948,
                    "velocity": 0.3937007874015748,
                    "duration": 0.061363687500005426
                },
                {
                    "name": "C4",
                    "midi": 60,
                    "time": 121.56828312499948,
                    "velocity": 0.3937007874015748,
                    "duration": 0.061363687500005426
                },
                {
                    "name": "D#5",
                    "midi": 75,
                    "time": 121.56828312499948,
                    "velocity": 0.47244094488188976,
                    "duration": 0.061363687500005426
                },
                {
                    "name": "G#4",
                    "midi": 68,
                    "time": 121.56828312499948,
                    "velocity": 0.3937007874015748,
                    "duration": 0.061363687500005426
                },
                {
                    "name": "C4",
                    "midi": 60,
                    "time": 121.63646499999949,
                    "velocity": 0.4409448818897638,
                    "duration": 0.136363750000001
                },
                {
                    "name": "D#5",
                    "midi": 75,
                    "time": 121.63646499999949,
                    "velocity": 0.5275590551181102,
                    "duration": 0.136363750000001
                },
                {
                    "name": "D#4",
                    "midi": 63,
                    "time": 121.63646499999949,
                    "velocity": 0.4409448818897638,
                    "duration": 0.136363750000001
                },
                {
                    "name": "G#4",
                    "midi": 68,
                    "time": 121.63646499999949,
                    "velocity": 0.4409448818897638,
                    "duration": 0.136363750000001
                },
                {
                    "name": "G#4",
                    "midi": 68,
                    "time": 121.77282874999949,
                    "velocity": 0.49606299212598426,
                    "duration": 0.272727500000002
                },
                {
                    "name": "G#5",
                    "midi": 80,
                    "time": 121.90919249999949,
                    "velocity": 0.5905511811023622,
                    "duration": 0.136363750000001
                },
                {
                    "name": "G4",
                    "midi": 67,
                    "time": 122.11373812499949,
                    "velocity": 0.4566929133858268,
                    "duration": 0.0681818749999934
                },
                {
                    "name": "G5",
                    "midi": 79,
                    "time": 122.11373812499949,
                    "velocity": 0.5511811023622047,
                    "duration": 0.0681818749999934
                },
                {
                    "name": "F4",
                    "midi": 65,
                    "time": 122.18191999999948,
                    "velocity": 0.4566929133858268,
                    "duration": 0.545455000000004
                },
                {
                    "name": "F5",
                    "midi": 77,
                    "time": 122.18191999999948,
                    "velocity": 0.5511811023622047,
                    "duration": 0.545455000000004
                },
                {
                    "name": "G4",
                    "midi": 67,
                    "time": 122.72737499999948,
                    "velocity": 0.5039370078740157,
                    "duration": 0.136363750000001
                },
                {
                    "name": "G5",
                    "midi": 79,
                    "time": 122.86373874999948,
                    "velocity": 0.5039370078740157,
                    "duration": 0.045454583333338405
                },
                {
                    "name": "G#5",
                    "midi": 80,
                    "time": 122.90919333333282,
                    "velocity": 0.5118110236220472,
                    "duration": 0.045454583333338405
                },
                {
                    "name": "G5",
                    "midi": 79,
                    "time": 122.95464791666616,
                    "velocity": 0.5039370078740157,
                    "duration": 0.045454583333338405
                },
                {
                    "name": "F4",
                    "midi": 65,
                    "time": 123.0001024999995,
                    "velocity": 0.4330708661417323,
                    "duration": 0.136363750000001
                },
                {
                    "name": "F5",
                    "midi": 77,
                    "time": 123.0001024999995,
                    "velocity": 0.5118110236220472,
                    "duration": 0.136363750000001
                },
                {
                    "name": "G4",
                    "midi": 67,
                    "time": 123.1364662499995,
                    "velocity": 0.4330708661417323,
                    "duration": 0.136363750000001
                },
                {
                    "name": "G5",
                    "midi": 79,
                    "time": 123.1364662499995,
                    "velocity": 0.5196850393700787,
                    "duration": 0.136363750000001
                },
                {
                    "name": "G#4",
                    "midi": 68,
                    "time": 123.2728299999995,
                    "velocity": 0.5039370078740157,
                    "duration": 0.136363750000001
                },
                {
                    "name": "G#5",
                    "midi": 80,
                    "time": 123.4091937499995,
                    "velocity": 0.5039370078740157,
                    "duration": 0.045454583333338405
                },
                {
                    "name": "A#5",
                    "midi": 82,
                    "time": 123.45464833333284,
                    "velocity": 0.5039370078740157,
                    "duration": 0.045454583333338405
                },
                {
                    "name": "G#5",
                    "midi": 80,
                    "time": 123.50010291666618,
                    "velocity": 0.5039370078740157,
                    "duration": 0.045454583333338405
                },
                {
                    "name": "G4",
                    "midi": 67,
                    "time": 123.54555749999952,
                    "velocity": 0.4645669291338583,
                    "duration": 0.136363750000001
                },
                {
                    "name": "G5",
                    "midi": 79,
                    "time": 123.54555749999952,
                    "velocity": 0.5590551181102362,
                    "duration": 0.136363750000001
                },
                {
                    "name": "G#4",
                    "midi": 68,
                    "time": 123.68192124999952,
                    "velocity": 0.47244094488188976,
                    "duration": 0.136363750000001
                },
                {
                    "name": "G#5",
                    "midi": 80,
                    "time": 123.68192124999952,
                    "velocity": 0.5669291338582677,
                    "duration": 0.136363750000001
                },
                {
                    "name": "A4",
                    "midi": 69,
                    "time": 123.81828499999952,
                    "velocity": 0.4094488188976378,
                    "duration": 0.136363750000001
                },
                {
                    "name": "D#5",
                    "midi": 75,
                    "time": 123.81828499999952,
                    "velocity": 0.4094488188976378,
                    "duration": 0.136363750000001
                },
                {
                    "name": "A5",
                    "midi": 81,
                    "time": 123.81828499999952,
                    "velocity": 0.5826771653543307,
                    "duration": 0.136363750000001
                },
                {
                    "name": "A#4",
                    "midi": 70,
                    "time": 123.95464874999952,
                    "velocity": 0.49606299212598426,
                    "duration": 0.136363750000001
                },
                {
                    "name": "A#5",
                    "midi": 82,
                    "time": 123.95464874999952,
                    "velocity": 0.5511811023622047,
                    "duration": 0.136363750000001
                },
                {
                    "name": "C5",
                    "midi": 72,
                    "time": 124.09101249999952,
                    "velocity": 0.3858267716535433,
                    "duration": 0.136363750000001
                },
                {
                    "name": "G5",
                    "midi": 79,
                    "time": 124.09101249999952,
                    "velocity": 0.4566929133858268,
                    "duration": 0.136363750000001
                },
                {
                    "name": "C6",
                    "midi": 84,
                    "time": 124.09101249999952,
                    "velocity": 0.5511811023622047,
                    "duration": 0.136363750000001
                },
                {
                    "name": "C#5",
                    "midi": 73,
                    "time": 124.22737624999952,
                    "velocity": 0.4566929133858268,
                    "duration": 0.136363750000001
                },
                {
                    "name": "C#6",
                    "midi": 85,
                    "time": 124.22737624999952,
                    "velocity": 0.5511811023622047,
                    "duration": 0.136363750000001
                },
                {
                    "name": "C5",
                    "midi": 72,
                    "time": 124.36373999999952,
                    "velocity": 0.49606299212598426,
                    "duration": 0.136363750000001
                },
                {
                    "name": "G#5",
                    "midi": 80,
                    "time": 124.36373999999952,
                    "velocity": 0.49606299212598426,
                    "duration": 0.136363750000001
                },
                {
                    "name": "C6",
                    "midi": 84,
                    "time": 124.36373999999952,
                    "velocity": 0.5826771653543307,
                    "duration": 0.136363750000001
                },
                {
                    "name": "F5",
                    "midi": 77,
                    "time": 124.63646749999953,
                    "velocity": 0.5039370078740157,
                    "duration": 0.2045456249999944
                },
                {
                    "name": "G#5",
                    "midi": 80,
                    "time": 124.63646749999953,
                    "velocity": 0.5039370078740157,
                    "duration": 0.2045456249999944
                },
                {
                    "name": "F6",
                    "midi": 89,
                    "time": 124.63646749999953,
                    "velocity": 0.5905511811023622,
                    "duration": 0.2045456249999944
                },
                {
                    "name": "D#5",
                    "midi": 75,
                    "time": 124.84101312499952,
                    "velocity": 0.44881889763779526,
                    "duration": 0.061363687500005426
                },
                {
                    "name": "G#5",
                    "midi": 80,
                    "time": 124.84101312499952,
                    "velocity": 0.44881889763779526,
                    "duration": 0.061363687500005426
                },
                {
                    "name": "D#6",
                    "midi": 87,
                    "time": 124.84101312499952,
                    "velocity": 0.5433070866141733,
                    "duration": 0.061363687500005426
                },
                {
                    "name": "D#5",
                    "midi": 75,
                    "time": 124.90919499999953,
                    "velocity": 0.5039370078740157,
                    "duration": 0.136363750000001
                },
                {
                    "name": "G#5",
                    "midi": 80,
                    "time": 124.90919499999953,
                    "velocity": 0.5039370078740157,
                    "duration": 0.136363750000001
                },
                {
                    "name": "D#6",
                    "midi": 87,
                    "time": 124.90919499999953,
                    "velocity": 0.6062992125984252,
                    "duration": 0.136363750000001
                },
                {
                    "name": "D#6",
                    "midi": 87,
                    "time": 125.11374062499952,
                    "velocity": 0.4645669291338583,
                    "duration": 0.0681818749999934
                },
                {
                    "name": "D#5",
                    "midi": 75,
                    "time": 125.11374062499952,
                    "velocity": 0.4645669291338583,
                    "duration": 0.0681818749999934
                },
                {
                    "name": "C#5",
                    "midi": 73,
                    "time": 125.18192249999952,
                    "velocity": 0.5039370078740157,
                    "duration": 0.2045456249999944
                },
                {
                    "name": "A5",
                    "midi": 81,
                    "time": 125.18192249999952,
                    "velocity": 0.5039370078740157,
                    "duration": 0.2045456249999944
                },
                {
                    "name": "C#6",
                    "midi": 85,
                    "time": 125.18192249999952,
                    "velocity": 0.5905511811023622,
                    "duration": 0.2045456249999944
                },
                {
                    "name": "C5",
                    "midi": 72,
                    "time": 125.38646812499951,
                    "velocity": 0.4566929133858268,
                    "duration": 0.0681818749999934
                },
                {
                    "name": "C6",
                    "midi": 84,
                    "time": 125.38646812499951,
                    "velocity": 0.5511811023622047,
                    "duration": 0.0681818749999934
                },
                {
                    "name": "A#4",
                    "midi": 70,
                    "time": 125.4546499999995,
                    "velocity": 0.5039370078740157,
                    "duration": 0.136363750000001
                },
                {
                    "name": "A#5",
                    "midi": 82,
                    "time": 125.4546499999995,
                    "velocity": 0.5905511811023622,
                    "duration": 0.136363750000001
                },
                {
                    "name": "A#4",
                    "midi": 70,
                    "time": 125.7273774999995,
                    "velocity": 0.4566929133858268,
                    "duration": 0.2045456249999944
                },
                {
                    "name": "F#5",
                    "midi": 78,
                    "time": 125.7273774999995,
                    "velocity": 0.4566929133858268,
                    "duration": 0.2045456249999944
                },
                {
                    "name": "A#5",
                    "midi": 82,
                    "time": 125.7273774999995,
                    "velocity": 0.5511811023622047,
                    "duration": 0.2045456249999944
                },
                {
                    "name": "C5",
                    "midi": 72,
                    "time": 125.9319231249995,
                    "velocity": 0.4566929133858268,
                    "duration": 0.0681818749999934
                },
                {
                    "name": "C6",
                    "midi": 84,
                    "time": 125.9319231249995,
                    "velocity": 0.5511811023622047,
                    "duration": 0.0681818749999934
                },
                {
                    "name": "C#5",
                    "midi": 73,
                    "time": 126.0001049999995,
                    "velocity": 0.4881889763779528,
                    "duration": 0.272727500000002
                },
                {
                    "name": "F5",
                    "midi": 77,
                    "time": 126.0001049999995,
                    "velocity": 0.4881889763779528,
                    "duration": 0.272727500000002
                },
                {
                    "name": "C#6",
                    "midi": 85,
                    "time": 126.0001049999995,
                    "velocity": 0.5748031496062992,
                    "duration": 0.272727500000002
                },
                {
                    "name": "D#5",
                    "midi": 75,
                    "time": 126.2728324999995,
                    "velocity": 0.47244094488188976,
                    "duration": 0.2045456249999944
                },
                {
                    "name": "C#5",
                    "midi": 73,
                    "time": 126.2728324999995,
                    "velocity": 0.47244094488188976,
                    "duration": 0.2045456249999944
                },
                {
                    "name": "C#6",
                    "midi": 85,
                    "time": 126.2728324999995,
                    "velocity": 0.5669291338582677,
                    "duration": 0.2045456249999944
                },
                {
                    "name": "F#5",
                    "midi": 78,
                    "time": 126.2728324999995,
                    "velocity": 0.47244094488188976,
                    "duration": 0.2045456249999944
                },
                {
                    "name": "C5",
                    "midi": 72,
                    "time": 126.47737812499949,
                    "velocity": 0.44881889763779526,
                    "duration": 0.0681818749999934
                },
                {
                    "name": "C6",
                    "midi": 84,
                    "time": 126.47737812499949,
                    "velocity": 0.5433070866141733,
                    "duration": 0.0681818749999934
                },
                {
                    "name": "A#4",
                    "midi": 70,
                    "time": 126.54555999999948,
                    "velocity": 0.49606299212598426,
                    "duration": 0.272727500000002
                },
                {
                    "name": "F5",
                    "midi": 77,
                    "time": 126.54555999999948,
                    "velocity": 0.49606299212598426,
                    "duration": 0.272727500000002
                },
                {
                    "name": "A#5",
                    "midi": 82,
                    "time": 126.54555999999948,
                    "velocity": 0.5826771653543307,
                    "duration": 0.272727500000002
                },
                {
                    "name": "G#4",
                    "midi": 68,
                    "time": 126.81828749999949,
                    "velocity": 0.47244094488188976,
                    "duration": 0.2045456249999944
                },
                {
                    "name": "D#5",
                    "midi": 75,
                    "time": 126.81828749999949,
                    "velocity": 0.47244094488188976,
                    "duration": 0.2045456249999944
                },
                {
                    "name": "G#5",
                    "midi": 80,
                    "time": 126.81828749999949,
                    "velocity": 0.5669291338582677,
                    "duration": 0.2045456249999944
                },
                {
                    "name": "A#4",
                    "midi": 70,
                    "time": 126.81828749999949,
                    "velocity": 0.47244094488188976,
                    "duration": 0.2045456249999944
                },
                {
                    "name": "F#4",
                    "midi": 66,
                    "time": 127.02283312499948,
                    "velocity": 0.4409448818897638,
                    "duration": 0.0681818749999934
                },
                {
                    "name": "F#5",
                    "midi": 78,
                    "time": 127.02283312499948,
                    "velocity": 0.5275590551181102,
                    "duration": 0.0681818749999934
                },
                {
                    "name": "C#5",
                    "midi": 73,
                    "time": 127.09101499999947,
                    "velocity": 0.4645669291338583,
                    "duration": 0.136363750000001
                },
                {
                    "name": "F5",
                    "midi": 77,
                    "time": 127.09101499999947,
                    "velocity": 0.5590551181102362,
                    "duration": 0.136363750000001
                },
                {
                    "name": "F4",
                    "midi": 65,
                    "time": 127.09101499999947,
                    "velocity": 0.4645669291338583,
                    "duration": 0.136363750000001
                },
                {
                    "name": "A2",
                    "midi": 45,
                    "time": 127.36374249999947,
                    "velocity": 0.5039370078740157,
                    "duration": 0.0681818749999934
                },
                {
                    "name": "A#2",
                    "midi": 46,
                    "time": 127.43192437499947,
                    "velocity": 0.5039370078740157,
                    "duration": 0.0681818749999934
                },
                {
                    "name": "C3",
                    "midi": 48,
                    "time": 127.50010624999946,
                    "velocity": 0.5196850393700787,
                    "duration": 0.0681818749999934
                },
                {
                    "name": "C#3",
                    "midi": 49,
                    "time": 127.56828812499946,
                    "velocity": 0.5275590551181102,
                    "duration": 0.0681818749999934
                },
                {
                    "name": "D#3",
                    "midi": 51,
                    "time": 127.63646999999945,
                    "velocity": 0.5275590551181102,
                    "duration": 0.0681818749999934
                },
                {
                    "name": "F3",
                    "midi": 53,
                    "time": 127.70465187499944,
                    "velocity": 0.5354330708661418,
                    "duration": 0.0681818749999934
                },
                {
                    "name": "G3",
                    "midi": 55,
                    "time": 127.77283374999944,
                    "velocity": 0.5433070866141733,
                    "duration": 0.0681818749999934
                },
                {
                    "name": "A3",
                    "midi": 57,
                    "time": 127.84101562499943,
                    "velocity": 0.5433070866141733,
                    "duration": 0.0681818749999934
                },
                {
                    "name": "A#3",
                    "midi": 58,
                    "time": 127.90919749999942,
                    "velocity": 0.5511811023622047,
                    "duration": 0.0681818749999934
                },
                {
                    "name": "C4",
                    "midi": 60,
                    "time": 127.97737937499942,
                    "velocity": 0.5590551181102362,
                    "duration": 0.06818187500000761
                },
                {
                    "name": "C#4",
                    "midi": 61,
                    "time": 128.04556124999942,
                    "velocity": 0.5590551181102362,
                    "duration": 0.0681818749999934
                },
                {
                    "name": "D#4",
                    "midi": 63,
                    "time": 128.11374312499942,
                    "velocity": 0.5669291338582677,
                    "duration": 0.0681818749999934
                },
                {
                    "name": "F4",
                    "midi": 65,
                    "time": 128.1819249999994,
                    "velocity": 0.5748031496062992,
                    "duration": 0.0681818749999934
                },
                {
                    "name": "G4",
                    "midi": 67,
                    "time": 128.2501068749994,
                    "velocity": 0.5748031496062992,
                    "duration": 0.0681818749999934
                },
                {
                    "name": "A4",
                    "midi": 69,
                    "time": 128.3182887499994,
                    "velocity": 0.5826771653543307,
                    "duration": 0.0681818749999934
                },
                {
                    "name": "A#4",
                    "midi": 70,
                    "time": 128.3864706249994,
                    "velocity": 0.5826771653543307,
                    "duration": 0.0681818749999934
                },
                {
                    "name": "C5",
                    "midi": 72,
                    "time": 128.45465249999938,
                    "velocity": 0.5905511811023622,
                    "duration": 0.0681818749999934
                },
                {
                    "name": "C#5",
                    "midi": 73,
                    "time": 128.52283437499938,
                    "velocity": 0.6062992125984252,
                    "duration": 0.0681818749999934
                },
                {
                    "name": "D#5",
                    "midi": 75,
                    "time": 128.59101624999937,
                    "velocity": 0.6062992125984252,
                    "duration": 0.0681818749999934
                },
                {
                    "name": "F5",
                    "midi": 77,
                    "time": 128.65919812499936,
                    "velocity": 0.6141732283464567,
                    "duration": 0.0681818749999934
                },
                {
                    "name": "G5",
                    "midi": 79,
                    "time": 128.72737999999936,
                    "velocity": 0.6062992125984252,
                    "duration": 0.0681818749999934
                },
                {
                    "name": "A5",
                    "midi": 81,
                    "time": 128.79556187499935,
                    "velocity": 0.6062992125984252,
                    "duration": 0.0681818749999934
                },
                {
                    "name": "A#5",
                    "midi": 82,
                    "time": 128.86374374999934,
                    "velocity": 0.6141732283464567,
                    "duration": 0.0681818749999934
                },
                {
                    "name": "C6",
                    "midi": 84,
                    "time": 128.93192562499934,
                    "velocity": 0.6220472440944882,
                    "duration": 0.0681818749999934
                },
                {
                    "name": "C#6",
                    "midi": 85,
                    "time": 129.00010749999933,
                    "velocity": 0.6299212598425197,
                    "duration": 0.0681818749999934
                },
                {
                    "name": "D#6",
                    "midi": 87,
                    "time": 129.06828937499932,
                    "velocity": 0.6299212598425197,
                    "duration": 0.0681818749999934
                },
                {
                    "name": "F6",
                    "midi": 89,
                    "time": 129.13647124999932,
                    "velocity": 0.6377952755905512,
                    "duration": 0.0681818749999934
                },
                {
                    "name": "G6",
                    "midi": 91,
                    "time": 129.2046531249993,
                    "velocity": 0.6456692913385826,
                    "duration": 0.1022728124999901
                },
                {
                    "name": "A6",
                    "midi": 93,
                    "time": 129.3069259374993,
                    "velocity": 0.6535433070866141,
                    "duration": 0.1022728124999901
                },
                {
                    "name": "A#6",
                    "midi": 94,
                    "time": 129.4091987499993,
                    "velocity": 0.7244094488188977,
                    "duration": 0.1363637499999868
                },
                {
                    "name": "A#5",
                    "midi": 82,
                    "time": 129.4091987499993,
                    "velocity": 0.7244094488188977,
                    "duration": 0.1363637499999868
                },
                {
                    "name": "C7",
                    "midi": 96,
                    "time": 129.61374437499927,
                    "velocity": 0.6692913385826772,
                    "duration": 0.0681818749999934
                },
                {
                    "name": "C#6",
                    "midi": 85,
                    "time": 129.68192624999926,
                    "velocity": 0.6062992125984252,
                    "duration": 0.1363637499999868
                },
                {
                    "name": "A#6",
                    "midi": 94,
                    "time": 129.68192624999926,
                    "velocity": 0.7165354330708661,
                    "duration": 0.1363637499999868
                },
                {
                    "name": "G6",
                    "midi": 91,
                    "time": 129.68192624999926,
                    "velocity": 0.7165354330708661,
                    "duration": 0.1363637499999868
                },
                {
                    "name": "F#6",
                    "midi": 90,
                    "time": 129.81828999999925,
                    "velocity": 0.6692913385826772,
                    "duration": 0.1363637499999868
                },
                {
                    "name": "C6",
                    "midi": 84,
                    "time": 129.81828999999925,
                    "velocity": 0.5669291338582677,
                    "duration": 0.1363637499999868
                },
                {
                    "name": "A6",
                    "midi": 93,
                    "time": 129.81828999999925,
                    "velocity": 0.6692913385826772,
                    "duration": 0.1363637499999868
                },
                {
                    "name": "C#6",
                    "midi": 85,
                    "time": 129.95465374999924,
                    "velocity": 0.5905511811023622,
                    "duration": 0.272727500000002
                },
                {
                    "name": "G6",
                    "midi": 91,
                    "time": 129.95465374999924,
                    "velocity": 0.7086614173228346,
                    "duration": 0.272727500000002
                },
                {
                    "name": "A#6",
                    "midi": 94,
                    "time": 129.95465374999924,
                    "velocity": 0.7086614173228346,
                    "duration": 0.272727500000002
                },
                {
                    "name": "C6",
                    "midi": 84,
                    "time": 130.22738124999924,
                    "velocity": 0.5669291338582677,
                    "duration": 0.272727500000002
                },
                {
                    "name": "G6",
                    "midi": 91,
                    "time": 130.22738124999924,
                    "velocity": 0.6692913385826772,
                    "duration": 0.272727500000002
                },
                {
                    "name": "C7",
                    "midi": 96,
                    "time": 130.22738124999924,
                    "velocity": 0.6692913385826772,
                    "duration": 0.272727500000002
                },
                {
                    "name": "G#5",
                    "midi": 80,
                    "time": 130.50010874999924,
                    "velocity": 0.5826771653543307,
                    "duration": 0.272727500000002
                },
                {
                    "name": "C6",
                    "midi": 84,
                    "time": 130.50010874999924,
                    "velocity": 0.5826771653543307,
                    "duration": 0.272727500000002
                },
                {
                    "name": "G#6",
                    "midi": 92,
                    "time": 130.50010874999924,
                    "velocity": 0.6929133858267716,
                    "duration": 0.272727500000002
                },
                {
                    "name": "D#5",
                    "midi": 75,
                    "time": 130.77283624999924,
                    "velocity": 0.5669291338582677,
                    "duration": 0.272727500000002
                },
                {
                    "name": "G#5",
                    "midi": 80,
                    "time": 130.77283624999924,
                    "velocity": 0.5669291338582677,
                    "duration": 0.272727500000002
                },
                {
                    "name": "D#6",
                    "midi": 87,
                    "time": 130.77283624999924,
                    "velocity": 0.6692913385826772,
                    "duration": 0.272727500000002
                },
                {
                    "name": "F5",
                    "midi": 77,
                    "time": 131.04556374999925,
                    "velocity": 0.5669291338582677,
                    "duration": 0.1363637499999868
                },
                {
                    "name": "G#5",
                    "midi": 80,
                    "time": 131.04556374999925,
                    "velocity": 0.5669291338582677,
                    "duration": 0.1363637499999868
                },
                {
                    "name": "F6",
                    "midi": 89,
                    "time": 131.04556374999925,
                    "velocity": 0.6692913385826772,
                    "duration": 0.1363637499999868
                },
                {
                    "name": "C#4",
                    "midi": 61,
                    "time": 131.31829124999922,
                    "velocity": 0.5275590551181102,
                    "duration": 0.2045456250000086
                },
                {
                    "name": "G3",
                    "midi": 55,
                    "time": 131.31829124999922,
                    "velocity": 0.4409448818897638,
                    "duration": 0.2045456250000086
                },
                {
                    "name": "D#4",
                    "midi": 63,
                    "time": 131.31829124999922,
                    "velocity": 0.5275590551181102,
                    "duration": 0.545455000000004
                },
                {
                    "name": "G3",
                    "midi": 55,
                    "time": 131.52283687499923,
                    "velocity": 0.4409448818897638,
                    "duration": 0.061363687500005426
                },
                {
                    "name": "C#4",
                    "midi": 61,
                    "time": 131.52283687499923,
                    "velocity": 0.5275590551181102,
                    "duration": 0.061363687500005426
                },
                {
                    "name": "G3",
                    "midi": 55,
                    "time": 131.59101874999922,
                    "velocity": 0.48031496062992124,
                    "duration": 0.545455000000004
                },
                {
                    "name": "C#4",
                    "midi": 61,
                    "time": 131.59101874999922,
                    "velocity": 0.5669291338582677,
                    "duration": 0.545455000000004
                },
                {
                    "name": "A#4",
                    "midi": 70,
                    "time": 131.59101874999922,
                    "velocity": 0.5669291338582677,
                    "duration": 0.545455000000004
                },
                {
                    "name": "G#3",
                    "midi": 56,
                    "time": 132.13647374999923,
                    "velocity": 0.4409448818897638,
                    "duration": 0.1363637499999868
                },
                {
                    "name": "C4",
                    "midi": 60,
                    "time": 132.13647374999923,
                    "velocity": 0.4409448818897638,
                    "duration": 0.1363637499999868
                },
                {
                    "name": "G#4",
                    "midi": 68,
                    "time": 132.13647374999923,
                    "velocity": 0.5275590551181102,
                    "duration": 0.1363637499999868
                },
                {
                    "name": "G#3",
                    "midi": 56,
                    "time": 132.5796559374992,
                    "velocity": 0.5275590551181102,
                    "duration": 0.545455000000004
                },
                {
                    "name": "B3",
                    "midi": 59,
                    "time": 132.6137468749992,
                    "velocity": 0.5511811023622047,
                    "duration": 0.5113640625000073
                },
                {
                    "name": "E4",
                    "midi": 64,
                    "time": 132.6478378124992,
                    "velocity": 0.5826771653543307,
                    "duration": 0.4772731250000106
                },
                {
                    "name": "G#4",
                    "midi": 68,
                    "time": 132.6819287499992,
                    "velocity": 0.6299212598425197,
                    "duration": 0.4431821875000139
                },
                {
                    "name": "G#3",
                    "midi": 56,
                    "time": 133.12511093749922,
                    "velocity": 0.5275590551181102,
                    "duration": 0.545455000000004
                },
                {
                    "name": "B3",
                    "midi": 59,
                    "time": 133.1592018749992,
                    "velocity": 0.5511811023622047,
                    "duration": 0.5113640625000073
                },
                {
                    "name": "E4",
                    "midi": 64,
                    "time": 133.1932928124992,
                    "velocity": 0.5826771653543307,
                    "duration": 0.4772731250000106
                },
                {
                    "name": "G#4",
                    "midi": 68,
                    "time": 133.2273837499992,
                    "velocity": 0.6220472440944882,
                    "duration": 0.4431821875000139
                },
                {
                    "name": "G#3",
                    "midi": 56,
                    "time": 133.67056593749922,
                    "velocity": 0.5196850393700787,
                    "duration": 0.545455000000004
                },
                {
                    "name": "B3",
                    "midi": 59,
                    "time": 133.70465687499922,
                    "velocity": 0.5433070866141733,
                    "duration": 0.5113640625000073
                },
                {
                    "name": "E4",
                    "midi": 64,
                    "time": 133.7387478124992,
                    "velocity": 0.5669291338582677,
                    "duration": 0.4772731250000106
                },
                {
                    "name": "G#4",
                    "midi": 68,
                    "time": 133.7728387499992,
                    "velocity": 0.6141732283464567,
                    "duration": 0.4431821875000139
                },
                {
                    "name": "G#3",
                    "midi": 56,
                    "time": 134.21602093749922,
                    "velocity": 0.5275590551181102,
                    "duration": 0.545455000000004
                },
                {
                    "name": "B3",
                    "midi": 59,
                    "time": 134.25011187499922,
                    "velocity": 0.5511811023622047,
                    "duration": 0.5113640625000073
                },
                {
                    "name": "E4",
                    "midi": 64,
                    "time": 134.28420281249922,
                    "velocity": 0.5826771653543307,
                    "duration": 0.4772731250000106
                },
                {
                    "name": "G#4",
                    "midi": 68,
                    "time": 134.3182937499992,
                    "velocity": 0.6220472440944882,
                    "duration": 0.4431821875000139
                },
                {
                    "name": "G#3",
                    "midi": 56,
                    "time": 134.76147593749923,
                    "velocity": 0.5275590551181102,
                    "duration": 0.545455000000004
                },
                {
                    "name": "B3",
                    "midi": 59,
                    "time": 134.79556687499922,
                    "velocity": 0.5511811023622047,
                    "duration": 0.5113640625000073
                },
                {
                    "name": "E4",
                    "midi": 64,
                    "time": 134.82965781249922,
                    "velocity": 0.5826771653543307,
                    "duration": 0.4772731250000106
                },
                {
                    "name": "G#4",
                    "midi": 68,
                    "time": 134.86374874999922,
                    "velocity": 0.6220472440944882,
                    "duration": 0.4431821875000139
                },
                {
                    "name": "G#3",
                    "midi": 56,
                    "time": 135.30693093749923,
                    "velocity": 0.5275590551181102,
                    "duration": 0.6477278124999941
                },
                {
                    "name": "B3",
                    "midi": 59,
                    "time": 135.34102187499923,
                    "velocity": 0.5511811023622047,
                    "duration": 0.6136368749999974
                },
                {
                    "name": "E4",
                    "midi": 64,
                    "time": 135.37511281249922,
                    "velocity": 0.5905511811023622,
                    "duration": 0.5795459375000007
                },
                {
                    "name": "G#4",
                    "midi": 68,
                    "time": 135.40920374999922,
                    "velocity": 0.6377952755905512,
                    "duration": 0.545455000000004
                },
                {
                    "name": "G#3",
                    "midi": 56,
                    "time": 135.95465874999923,
                    "velocity": 0.5118110236220472,
                    "duration": 0.0681818749999934
                },
                {
                    "name": "B3",
                    "midi": 59,
                    "time": 135.95465874999923,
                    "velocity": 0.5118110236220472,
                    "duration": 0.0681818749999934
                },
                {
                    "name": "E4",
                    "midi": 64,
                    "time": 135.95465874999923,
                    "velocity": 0.5826771653543307,
                    "duration": 0.0681818749999934
                },
                {
                    "name": "G#4",
                    "midi": 68,
                    "time": 135.95465874999923,
                    "velocity": 0.6299212598425197,
                    "duration": 0.0681818749999934
                },
                {
                    "name": "G#3",
                    "midi": 56,
                    "time": 139.22738874999922,
                    "velocity": 0.28346456692913385,
                    "duration": 1.090910000000008
                },
                {
                    "name": "B3",
                    "midi": 59,
                    "time": 139.22738874999922,
                    "velocity": 0.3464566929133858,
                    "duration": 1.090910000000008
                },
                {
                    "name": "A3",
                    "midi": 57,
                    "time": 140.31829874999923,
                    "velocity": 0.2677165354330709,
                    "duration": 0.4090912499999888
                },
                {
                    "name": "B3",
                    "midi": 59,
                    "time": 140.31829874999923,
                    "velocity": 0.3228346456692913,
                    "duration": 0.4090912499999888
                },
                {
                    "name": "A3",
                    "midi": 57,
                    "time": 140.72738999999922,
                    "velocity": 0.28346456692913385,
                    "duration": 0.1363637499999868
                },
                {
                    "name": "B3",
                    "midi": 59,
                    "time": 140.72738999999922,
                    "velocity": 0.33858267716535434,
                    "duration": 0.1363637499999868
                },
                {
                    "name": "G#3",
                    "midi": 56,
                    "time": 140.8637537499992,
                    "velocity": 0.28346456692913385,
                    "duration": 0.4090912499999888
                },
                {
                    "name": "B3",
                    "midi": 59,
                    "time": 140.8637537499992,
                    "velocity": 0.33858267716535434,
                    "duration": 0.4090912499999888
                },
                {
                    "name": "G#3",
                    "midi": 56,
                    "time": 141.2728449999992,
                    "velocity": 0.2755905511811024,
                    "duration": 0.1363637499999868
                },
                {
                    "name": "E4",
                    "midi": 64,
                    "time": 141.2728449999992,
                    "velocity": 0.3228346456692913,
                    "duration": 0.1363637499999868
                },
                {
                    "name": "G#3",
                    "midi": 56,
                    "time": 141.40920874999918,
                    "velocity": 0.30708661417322836,
                    "duration": 0.545455000000004
                },
                {
                    "name": "B3",
                    "midi": 59,
                    "time": 141.40920874999918,
                    "velocity": 0.30708661417322836,
                    "duration": 0.545455000000004
                },
                {
                    "name": "G#4",
                    "midi": 68,
                    "time": 141.40920874999918,
                    "velocity": 0.36220472440944884,
                    "duration": 0.545455000000004
                },
                {
                    "name": "A3",
                    "midi": 57,
                    "time": 141.95466374999918,
                    "velocity": 0.25984251968503935,
                    "duration": 0.545455000000004
                },
                {
                    "name": "B3",
                    "midi": 59,
                    "time": 141.95466374999918,
                    "velocity": 0.25984251968503935,
                    "duration": 0.545455000000004
                },
                {
                    "name": "F#4",
                    "midi": 66,
                    "time": 141.95466374999918,
                    "velocity": 0.31496062992125984,
                    "duration": 0.545455000000004
                },
                {
                    "name": "G#3",
                    "midi": 56,
                    "time": 142.5001187499992,
                    "velocity": 0.2755905511811024,
                    "duration": 0.4090912499999888
                },
                {
                    "name": "B3",
                    "midi": 59,
                    "time": 142.5001187499992,
                    "velocity": 0.33070866141732286,
                    "duration": 0.4090912499999888
                },
                {
                    "name": "G#3",
                    "midi": 56,
                    "time": 142.90920999999918,
                    "velocity": 0.2677165354330709,
                    "duration": 0.1363637499999868
                },
                {
                    "name": "E4",
                    "midi": 64,
                    "time": 142.90920999999918,
                    "velocity": 0.3228346456692913,
                    "duration": 0.1363637499999868
                },
                {
                    "name": "G#3",
                    "midi": 56,
                    "time": 143.04557374999916,
                    "velocity": 0.28346456692913385,
                    "duration": 0.272727500000002
                },
                {
                    "name": "B3",
                    "midi": 59,
                    "time": 143.04557374999916,
                    "velocity": 0.28346456692913385,
                    "duration": 0.272727500000002
                },
                {
                    "name": "G#4",
                    "midi": 68,
                    "time": 143.04557374999916,
                    "velocity": 0.3464566929133858,
                    "duration": 0.272727500000002
                },
                {
                    "name": "A3",
                    "midi": 57,
                    "time": 143.45466499999915,
                    "velocity": 0.2677165354330709,
                    "duration": 0.1363637499999868
                },
                {
                    "name": "D#4",
                    "midi": 63,
                    "time": 143.45466499999915,
                    "velocity": 0.31496062992125984,
                    "duration": 0.1363637499999868
                },
                {
                    "name": "G#3",
                    "midi": 56,
                    "time": 143.59102874999914,
                    "velocity": 0.2677165354330709,
                    "duration": 0.272727500000002
                },
                {
                    "name": "E4",
                    "midi": 64,
                    "time": 143.59102874999914,
                    "velocity": 0.3228346456692913,
                    "duration": 0.272727500000002
                },
                {
                    "name": "G#3",
                    "midi": 56,
                    "time": 143.86375624999914,
                    "velocity": 0.2755905511811024,
                    "duration": 0.272727500000002
                },
                {
                    "name": "E4",
                    "midi": 64,
                    "time": 143.86375624999914,
                    "velocity": 0.2755905511811024,
                    "duration": 0.272727500000002
                },
                {
                    "name": "G#4",
                    "midi": 68,
                    "time": 143.86375624999914,
                    "velocity": 0.3228346456692913,
                    "duration": 0.272727500000002
                },
                {
                    "name": "B3",
                    "midi": 59,
                    "time": 144.13648374999914,
                    "velocity": 0.30708661417322836,
                    "duration": 0.272727500000002
                },
                {
                    "name": "G#4",
                    "midi": 68,
                    "time": 144.13648374999914,
                    "velocity": 0.30708661417322836,
                    "duration": 0.272727500000002
                },
                {
                    "name": "B4",
                    "midi": 71,
                    "time": 144.13648374999914,
                    "velocity": 0.36220472440944884,
                    "duration": 0.272727500000002
                },
                {
                    "name": "C#4",
                    "midi": 61,
                    "time": 144.40921124999915,
                    "velocity": 0.30708661417322836,
                    "duration": 0.0681818749999934
                },
                {
                    "name": "G#4",
                    "midi": 68,
                    "time": 144.40921124999915,
                    "velocity": 0.30708661417322836,
                    "duration": 0.0681818749999934
                },
                {
                    "name": "C#5",
                    "midi": 73,
                    "time": 144.40921124999915,
                    "velocity": 0.3700787401574803,
                    "duration": 0.0681818749999934
                },
                {
                    "name": "D#4",
                    "midi": 63,
                    "time": 144.54557499999913,
                    "velocity": 0.31496062992125984,
                    "duration": 0.0681818749999934
                },
                {
                    "name": "G#4",
                    "midi": 68,
                    "time": 144.54557499999913,
                    "velocity": 0.31496062992125984,
                    "duration": 0.0681818749999934
                },
                {
                    "name": "D#5",
                    "midi": 75,
                    "time": 144.54557499999913,
                    "velocity": 0.3779527559055118,
                    "duration": 0.0681818749999934
                },
                {
                    "name": "E4",
                    "midi": 64,
                    "time": 144.68193874999912,
                    "velocity": 0.33070866141732286,
                    "duration": 0.1363637499999868
                },
                {
                    "name": "G#4",
                    "midi": 68,
                    "time": 144.68193874999912,
                    "velocity": 0.33070866141732286,
                    "duration": 0.1363637499999868
                },
                {
                    "name": "E5",
                    "midi": 76,
                    "time": 144.68193874999912,
                    "velocity": 0.3937007874015748,
                    "duration": 0.1363637499999868
                },
                {
                    "name": "B3",
                    "midi": 59,
                    "time": 144.9546662499991,
                    "velocity": 0.2992125984251969,
                    "duration": 0.1363637499999868
                },
                {
                    "name": "G#4",
                    "midi": 68,
                    "time": 144.9546662499991,
                    "velocity": 0.2992125984251969,
                    "duration": 0.1363637499999868
                },
                {
                    "name": "B4",
                    "midi": 71,
                    "time": 144.9546662499991,
                    "velocity": 0.3543307086614173,
                    "duration": 0.1363637499999868
                },
                {
                    "name": "G#4",
                    "midi": 68,
                    "time": 145.22739374999907,
                    "velocity": 0.3543307086614173,
                    "duration": 0.545455000000004
                },
                {
                    "name": "B4",
                    "midi": 71,
                    "time": 145.22739374999907,
                    "velocity": 0.3543307086614173,
                    "duration": 0.545455000000004
                },
                {
                    "name": "G#5",
                    "midi": 80,
                    "time": 145.22739374999907,
                    "velocity": 0.41732283464566927,
                    "duration": 0.545455000000004
                },
                {
                    "name": "B3",
                    "midi": 59,
                    "time": 145.77284874999907,
                    "velocity": 0.31496062992125984,
                    "duration": 0.818182500000006
                },
                {
                    "name": "F#4",
                    "midi": 66,
                    "time": 145.77284874999907,
                    "velocity": 0.31496062992125984,
                    "duration": 0.818182500000006
                },
                {
                    "name": "A4",
                    "midi": 69,
                    "time": 145.77284874999907,
                    "velocity": 0.31496062992125984,
                    "duration": 0.818182500000006
                },
                {
                    "name": "B4",
                    "midi": 71,
                    "time": 145.77284874999907,
                    "velocity": 0.3779527559055118,
                    "duration": 0.818182500000006
                },
                {
                    "name": "B3",
                    "midi": 59,
                    "time": 146.59103124999908,
                    "velocity": 0.3228346456692913,
                    "duration": 0.0681818749999934
                },
                {
                    "name": "A4",
                    "midi": 69,
                    "time": 146.59103124999908,
                    "velocity": 0.3228346456692913,
                    "duration": 0.0681818749999934
                },
                {
                    "name": "B4",
                    "midi": 71,
                    "time": 146.59103124999908,
                    "velocity": 0.3858267716535433,
                    "duration": 0.0681818749999934
                },
                {
                    "name": "B3",
                    "midi": 59,
                    "time": 146.72739499999906,
                    "velocity": 0.3228346456692913,
                    "duration": 0.0681818749999934
                },
                {
                    "name": "A4",
                    "midi": 69,
                    "time": 146.72739499999906,
                    "velocity": 0.3228346456692913,
                    "duration": 0.0681818749999934
                },
                {
                    "name": "B4",
                    "midi": 71,
                    "time": 146.72739499999906,
                    "velocity": 0.3858267716535433,
                    "duration": 0.0681818749999934
                },
                {
                    "name": "B3",
                    "midi": 59,
                    "time": 146.86375874999905,
                    "velocity": 0.33858267716535434,
                    "duration": 0.1363637499999868
                },
                {
                    "name": "A4",
                    "midi": 69,
                    "time": 146.86375874999905,
                    "velocity": 0.33858267716535434,
                    "duration": 0.1363637499999868
                },
                {
                    "name": "B4",
                    "midi": 71,
                    "time": 146.86375874999905,
                    "velocity": 0.4015748031496063,
                    "duration": 0.1363637499999868
                },
                {
                    "name": "B3",
                    "midi": 59,
                    "time": 147.13648624999902,
                    "velocity": 0.31496062992125984,
                    "duration": 0.1363637499999868
                },
                {
                    "name": "A4",
                    "midi": 69,
                    "time": 147.13648624999902,
                    "velocity": 0.31496062992125984,
                    "duration": 0.1363637499999868
                },
                {
                    "name": "B4",
                    "midi": 71,
                    "time": 147.13648624999902,
                    "velocity": 0.3779527559055118,
                    "duration": 0.1363637499999868
                },
                {
                    "name": "B3",
                    "midi": 59,
                    "time": 147.409213749999,
                    "velocity": 0.3464566929133858,
                    "duration": 0.4090912499999888
                },
                {
                    "name": "G#4",
                    "midi": 68,
                    "time": 147.409213749999,
                    "velocity": 0.3464566929133858,
                    "duration": 0.4090912499999888
                },
                {
                    "name": "B4",
                    "midi": 71,
                    "time": 147.409213749999,
                    "velocity": 0.4094488188976378,
                    "duration": 0.4090912499999888
                },
                {
                    "name": "E4",
                    "midi": 64,
                    "time": 147.818304999999,
                    "velocity": 0.3228346456692913,
                    "duration": 0.12272737500001085
                },
                {
                    "name": "G#4",
                    "midi": 68,
                    "time": 147.818304999999,
                    "velocity": 0.3228346456692913,
                    "duration": 0.12272737500001085
                },
                {
                    "name": "E5",
                    "midi": 76,
                    "time": 147.818304999999,
                    "velocity": 0.3937007874015748,
                    "duration": 0.12272737500001085
                },
                {
                    "name": "E4",
                    "midi": 64,
                    "time": 147.954668749999,
                    "velocity": 0.3464566929133858,
                    "duration": 0.545455000000004
                },
                {
                    "name": "G#4",
                    "midi": 68,
                    "time": 147.954668749999,
                    "velocity": 0.3464566929133858,
                    "duration": 0.545455000000004
                },
                {
                    "name": "E5",
                    "midi": 76,
                    "time": 147.954668749999,
                    "velocity": 0.4094488188976378,
                    "duration": 0.545455000000004
                },
                {
                    "name": "B3",
                    "midi": 59,
                    "time": 148.500123749999,
                    "velocity": 0.31496062992125984,
                    "duration": 0.545455000000004
                },
                {
                    "name": "E4",
                    "midi": 64,
                    "time": 148.500123749999,
                    "velocity": 0.31496062992125984,
                    "duration": 0.545455000000004
                },
                {
                    "name": "G#4",
                    "midi": 68,
                    "time": 148.500123749999,
                    "velocity": 0.3779527559055118,
                    "duration": 0.545455000000004
                },
                {
                    "name": "A3",
                    "midi": 57,
                    "time": 149.045578749999,
                    "velocity": 0.3543307086614173,
                    "duration": 0.272727500000002
                },
                {
                    "name": "B3",
                    "midi": 59,
                    "time": 149.045578749999,
                    "velocity": 0.3543307086614173,
                    "duration": 0.272727500000002
                },
                {
                    "name": "F#4",
                    "midi": 66,
                    "time": 149.045578749999,
                    "velocity": 0.41732283464566927,
                    "duration": 0.8181824999999492
                },
                {
                    "name": "A3",
                    "midi": 57,
                    "time": 149.318306249999,
                    "velocity": 0.33858267716535434,
                    "duration": 0.0681818749999934
                },
                {
                    "name": "B3",
                    "midi": 59,
                    "time": 149.318306249999,
                    "velocity": 0.4015748031496063,
                    "duration": 0.0681818749999934
                },
                {
                    "name": "B3",
                    "midi": 59,
                    "time": 149.454669999999,
                    "velocity": 0.4015748031496063,
                    "duration": 0.0681818749999934
                },
                {
                    "name": "A3",
                    "midi": 57,
                    "time": 149.454669999999,
                    "velocity": 0.33858267716535434,
                    "duration": 0.0681818749999934
                },
                {
                    "name": "A3",
                    "midi": 57,
                    "time": 149.59103374999899,
                    "velocity": 0.3543307086614173,
                    "duration": 0.1363637499999868
                },
                {
                    "name": "B3",
                    "midi": 59,
                    "time": 149.59103374999899,
                    "velocity": 0.4251968503937008,
                    "duration": 0.1363637499999868
                },
                {
                    "name": "A3",
                    "midi": 57,
                    "time": 149.86376124999896,
                    "velocity": 0.3464566929133858,
                    "duration": 0.272727500000002
                },
                {
                    "name": "B3",
                    "midi": 59,
                    "time": 149.86376124999896,
                    "velocity": 0.3464566929133858,
                    "duration": 0.272727500000002
                },
                {
                    "name": "F#4",
                    "midi": 66,
                    "time": 149.86376124999896,
                    "velocity": 0.4094488188976378,
                    "duration": 0.272727500000002
                },
                {
                    "name": "A3",
                    "midi": 57,
                    "time": 150.13648874999896,
                    "velocity": 0.3464566929133858,
                    "duration": 0.0681818749999934
                },
                {
                    "name": "B3",
                    "midi": 59,
                    "time": 150.13648874999896,
                    "velocity": 0.3464566929133858,
                    "duration": 0.0681818749999934
                },
                {
                    "name": "G#4",
                    "midi": 68,
                    "time": 150.13648874999896,
                    "velocity": 0.4094488188976378,
                    "duration": 0.0681818749999934
                },
                {
                    "name": "A3",
                    "midi": 57,
                    "time": 150.27285249999895,
                    "velocity": 0.33858267716535434,
                    "duration": 0.0681818749999934
                },
                {
                    "name": "B3",
                    "midi": 59,
                    "time": 150.27285249999895,
                    "velocity": 0.33858267716535434,
                    "duration": 0.0681818749999934
                },
                {
                    "name": "F#4",
                    "midi": 66,
                    "time": 150.27285249999895,
                    "velocity": 0.4015748031496063,
                    "duration": 0.0681818749999934
                },
                {
                    "name": "A3",
                    "midi": 57,
                    "time": 150.40921624999893,
                    "velocity": 0.33070866141732286,
                    "duration": 0.0681818749999934
                },
                {
                    "name": "B3",
                    "midi": 59,
                    "time": 150.40921624999893,
                    "velocity": 0.33070866141732286,
                    "duration": 0.0681818749999934
                },
                {
                    "name": "E4",
                    "midi": 64,
                    "time": 150.40921624999893,
                    "velocity": 0.3937007874015748,
                    "duration": 0.0681818749999934
                },
                {
                    "name": "D#4",
                    "midi": 63,
                    "time": 150.54557999999892,
                    "velocity": 0.31496062992125984,
                    "duration": 0.0681818749999934
                },
                {
                    "name": "A3",
                    "midi": 57,
                    "time": 150.54557999999892,
                    "velocity": 0.31496062992125984,
                    "duration": 0.0681818749999934
                },
                {
                    "name": "B3",
                    "midi": 59,
                    "time": 150.54557999999892,
                    "velocity": 0.31496062992125984,
                    "duration": 0.0681818749999934
                },
                {
                    "name": "F#4",
                    "midi": 66,
                    "time": 150.54557999999892,
                    "velocity": 0.3779527559055118,
                    "duration": 0.0681818749999934
                },
                {
                    "name": "G#3",
                    "midi": 56,
                    "time": 150.6819437499989,
                    "velocity": 0.4094488188976378,
                    "duration": 0.4090912499999888
                },
                {
                    "name": "E4",
                    "midi": 64,
                    "time": 150.6819437499989,
                    "velocity": 0.3464566929133858,
                    "duration": 0.9545462499999644
                },
                {
                    "name": "G#4",
                    "midi": 68,
                    "time": 150.6819437499989,
                    "velocity": 0.4094488188976378,
                    "duration": 0.9545462499999644
                },
                {
                    "name": "C#4",
                    "midi": 61,
                    "time": 151.0910349999989,
                    "velocity": 0.3937007874015748,
                    "duration": 0.1363637499999868
                },
                {
                    "name": "B3",
                    "midi": 59,
                    "time": 151.22739874999888,
                    "velocity": 0.4094488188976378,
                    "duration": 1.090910000000008
                },
                {
                    "name": "G#4",
                    "midi": 68,
                    "time": 151.63648999999887,
                    "velocity": 0.33070866141732286,
                    "duration": 0.12272737500001085
                },
                {
                    "name": "B4",
                    "midi": 71,
                    "time": 151.63648999999887,
                    "velocity": 0.4015748031496063,
                    "duration": 0.12272737500001085
                },
                {
                    "name": "G#4",
                    "midi": 68,
                    "time": 151.7728537499989,
                    "velocity": 0.33070866141732286,
                    "duration": 0.545455000000004
                },
                {
                    "name": "B4",
                    "midi": 71,
                    "time": 151.7728537499989,
                    "velocity": 0.4015748031496063,
                    "duration": 0.545455000000004
                },
                {
                    "name": "G#3",
                    "midi": 56,
                    "time": 152.3183087499989,
                    "velocity": 0.3543307086614173,
                    "duration": 0.818182500000006
                },
                {
                    "name": "B3",
                    "midi": 59,
                    "time": 152.3183087499989,
                    "velocity": 0.41732283464566927,
                    "duration": 0.818182500000006
                },
                {
                    "name": "G3",
                    "midi": 55,
                    "time": 153.1364912499989,
                    "velocity": 0.3543307086614173,
                    "duration": 0.0681818749999934
                },
                {
                    "name": "B3",
                    "midi": 59,
                    "time": 153.1364912499989,
                    "velocity": 0.4251968503937008,
                    "duration": 0.0681818749999934
                },
                {
                    "name": "G#3",
                    "midi": 56,
                    "time": 153.27285499999888,
                    "velocity": 0.36220472440944884,
                    "duration": 0.0681818749999934
                },
                {
                    "name": "B3",
                    "midi": 59,
                    "time": 153.27285499999888,
                    "velocity": 0.4251968503937008,
                    "duration": 0.0681818749999934
                },
                {
                    "name": "A3",
                    "midi": 57,
                    "time": 153.40921874999887,
                    "velocity": 0.3779527559055118,
                    "duration": 0.1363637499999868
                },
                {
                    "name": "B3",
                    "midi": 59,
                    "time": 153.40921874999887,
                    "velocity": 0.44881889763779526,
                    "duration": 0.1363637499999868
                },
                {
                    "name": "A3",
                    "midi": 57,
                    "time": 153.68194624999884,
                    "velocity": 0.3700787401574803,
                    "duration": 0.0681818749999934
                },
                {
                    "name": "C#4",
                    "midi": 61,
                    "time": 153.68194624999884,
                    "velocity": 0.4330708661417323,
                    "duration": 0.0681818749999934
                },
                {
                    "name": "A3",
                    "midi": 57,
                    "time": 153.81830999999883,
                    "velocity": 0.3779527559055118,
                    "duration": 0.0681818749999934
                },
                {
                    "name": "D#4",
                    "midi": 63,
                    "time": 153.81830999999883,
                    "velocity": 0.44881889763779526,
                    "duration": 0.0681818749999934
                },
                {
                    "name": "G#3",
                    "midi": 56,
                    "time": 153.95467374999882,
                    "velocity": 0.4015748031496063,
                    "duration": 0.4090912499999888
                },
                {
                    "name": "E4",
                    "midi": 64,
                    "time": 153.95467374999882,
                    "velocity": 0.48031496062992124,
                    "duration": 0.4090912499999888
                },
                {
                    "name": "G#3",
                    "midi": 56,
                    "time": 154.3637649999988,
                    "velocity": 0.3858267716535433,
                    "duration": 0.12272737500001085
                },
                {
                    "name": "B3",
                    "midi": 59,
                    "time": 154.3637649999988,
                    "velocity": 0.3858267716535433,
                    "duration": 0.12272737500001085
                },
                {
                    "name": "G#3",
                    "midi": 56,
                    "time": 154.50012874999882,
                    "velocity": 0.4015748031496063,
                    "duration": 0.545455000000004
                },
                {
                    "name": "B3",
                    "midi": 59,
                    "time": 154.50012874999882,
                    "velocity": 0.4015748031496063,
                    "duration": 0.545455000000004
                },
                {
                    "name": "G#4",
                    "midi": 68,
                    "time": 154.50012874999882,
                    "velocity": 0.48031496062992124,
                    "duration": 0.545455000000004
                },
                {
                    "name": "A3",
                    "midi": 57,
                    "time": 155.04558374999883,
                    "velocity": 0.41732283464566927,
                    "duration": 0.545455000000004
                },
                {
                    "name": "B3",
                    "midi": 59,
                    "time": 155.04558374999883,
                    "velocity": 0.41732283464566927,
                    "duration": 0.545455000000004
                },
                {
                    "name": "F#4",
                    "midi": 66,
                    "time": 155.04558374999883,
                    "velocity": 0.49606299212598426,
                    "duration": 0.545455000000004
                },
                {
                    "name": "G#3",
                    "midi": 56,
                    "time": 155.59103874999883,
                    "velocity": 0.44881889763779526,
                    "duration": 0.4090912499999888
                },
                {
                    "name": "B3",
                    "midi": 59,
                    "time": 155.59103874999883,
                    "velocity": 0.5275590551181102,
                    "duration": 0.4090912499999888
                },
                {
                    "name": "G#3",
                    "midi": 56,
                    "time": 156.00012999999882,
                    "velocity": 0.47244094488188976,
                    "duration": 0.12272737500001085
                },
                {
                    "name": "E4",
                    "midi": 64,
                    "time": 156.00012999999882,
                    "velocity": 0.5590551181102362,
                    "duration": 0.12272737500001085
                },
                {
                    "name": "G#3",
                    "midi": 56,
                    "time": 156.13649374999883,
                    "velocity": 0.48031496062992124,
                    "duration": 0.272727500000002
                },
                {
                    "name": "B3",
                    "midi": 59,
                    "time": 156.13649374999883,
                    "velocity": 0.48031496062992124,
                    "duration": 0.272727500000002
                },
                {
                    "name": "G#4",
                    "midi": 68,
                    "time": 156.13649374999883,
                    "velocity": 0.5669291338582677,
                    "duration": 0.272727500000002
                },
                {
                    "name": "A3",
                    "midi": 57,
                    "time": 156.54558499999882,
                    "velocity": 0.4645669291338583,
                    "duration": 0.1363637499999868
                },
                {
                    "name": "D#4",
                    "midi": 63,
                    "time": 156.54558499999882,
                    "velocity": 0.5590551181102362,
                    "duration": 0.1363637499999868
                },
                {
                    "name": "G#3",
                    "midi": 56,
                    "time": 156.6819487499988,
                    "velocity": 0.48031496062992124,
                    "duration": 0.272727500000002
                },
                {
                    "name": "E4",
                    "midi": 64,
                    "time": 156.6819487499988,
                    "velocity": 0.5748031496062992,
                    "duration": 0.272727500000002
                },
                {
                    "name": "G#3",
                    "midi": 56,
                    "time": 156.9546762499988,
                    "velocity": 0.49606299212598426,
                    "duration": 0.272727500000002
                },
                {
                    "name": "E4",
                    "midi": 64,
                    "time": 156.9546762499988,
                    "velocity": 0.49606299212598426,
                    "duration": 0.272727500000002
                },
                {
                    "name": "G#4",
                    "midi": 68,
                    "time": 156.9546762499988,
                    "velocity": 0.5984251968503937,
                    "duration": 0.272727500000002
                },
                {
                    "name": "B3",
                    "midi": 59,
                    "time": 157.2274037499988,
                    "velocity": 0.5196850393700787,
                    "duration": 0.545455000000004
                },
                {
                    "name": "G#4",
                    "midi": 68,
                    "time": 157.2274037499988,
                    "velocity": 0.5196850393700787,
                    "duration": 0.545455000000004
                },
                {
                    "name": "B4",
                    "midi": 71,
                    "time": 157.2274037499988,
                    "velocity": 0.6141732283464567,
                    "duration": 0.545455000000004
                },
                {
                    "name": "C#4",
                    "midi": 61,
                    "time": 157.77285874999882,
                    "velocity": 0.48031496062992124,
                    "duration": 0.1363637499999868
                },
                {
                    "name": "G#4",
                    "midi": 68,
                    "time": 157.77285874999882,
                    "velocity": 0.48031496062992124,
                    "duration": 0.1363637499999868
                },
                {
                    "name": "C#5",
                    "midi": 73,
                    "time": 157.77285874999882,
                    "velocity": 0.5669291338582677,
                    "duration": 0.1363637499999868
                },
                {
                    "name": "D#4",
                    "midi": 63,
                    "time": 157.9092224999988,
                    "velocity": 0.5039370078740157,
                    "duration": 0.1363637499999868
                },
                {
                    "name": "G#4",
                    "midi": 68,
                    "time": 157.9092224999988,
                    "velocity": 0.5039370078740157,
                    "duration": 0.1363637499999868
                },
                {
                    "name": "D#5",
                    "midi": 75,
                    "time": 157.9092224999988,
                    "velocity": 0.5905511811023622,
                    "duration": 0.1363637499999868
                },
                {
                    "name": "E4",
                    "midi": 64,
                    "time": 158.0455862499988,
                    "velocity": 0.5039370078740157,
                    "duration": 0.1363637499999868
                },
                {
                    "name": "G#4",
                    "midi": 68,
                    "time": 158.0455862499988,
                    "velocity": 0.5039370078740157,
                    "duration": 0.1363637499999868
                },
                {
                    "name": "E5",
                    "midi": 76,
                    "time": 158.0455862499988,
                    "velocity": 0.6062992125984252,
                    "duration": 0.1363637499999868
                },
                {
                    "name": "F#4",
                    "midi": 66,
                    "time": 158.18194999999878,
                    "velocity": 0.5354330708661418,
                    "duration": 0.1363637499999868
                },
                {
                    "name": "B4",
                    "midi": 71,
                    "time": 158.18194999999878,
                    "velocity": 0.5354330708661418,
                    "duration": 0.1363637499999868
                },
                {
                    "name": "F#5",
                    "midi": 78,
                    "time": 158.18194999999878,
                    "velocity": 0.6456692913385826,
                    "duration": 0.1363637499999868
                },
                {
                    "name": "B4",
                    "midi": 71,
                    "time": 158.31831374999877,
                    "velocity": 0.6692913385826772,
                    "duration": 0.4090912499999888
                },
                {
                    "name": "G#4",
                    "midi": 68,
                    "time": 158.31831374999877,
                    "velocity": 0.5590551181102362,
                    "duration": 0.5454549999999756
                },
                {
                    "name": "E5",
                    "midi": 76,
                    "time": 158.31831374999877,
                    "velocity": 0.5590551181102362,
                    "duration": 0.5454549999999756
                },
                {
                    "name": "G#5",
                    "midi": 80,
                    "time": 158.31831374999877,
                    "velocity": 0.6692913385826772,
                    "duration": 0.5454549999999756
                },
                {
                    "name": "A#4",
                    "midi": 70,
                    "time": 158.72740499999875,
                    "velocity": 0.6377952755905512,
                    "duration": 0.9545462499999928
                },
                {
                    "name": "G4",
                    "midi": 67,
                    "time": 158.86376874999874,
                    "velocity": 0.5826771653543307,
                    "duration": 0.818182500000006
                },
                {
                    "name": "D#5",
                    "midi": 75,
                    "time": 158.86376874999874,
                    "velocity": 0.5826771653543307,
                    "duration": 0.818182500000006
                },
                {
                    "name": "G5",
                    "midi": 79,
                    "time": 158.86376874999874,
                    "velocity": 0.6929133858267716,
                    "duration": 0.818182500000006
                },
                {
                    "name": "A#3",
                    "midi": 58,
                    "time": 159.68195124999875,
                    "velocity": 0.5669291338582677,
                    "duration": 0.272727500000002
                },
                {
                    "name": "G4",
                    "midi": 67,
                    "time": 159.68195124999875,
                    "velocity": 0.5669291338582677,
                    "duration": 0.272727500000002
                },
                {
                    "name": "A#4",
                    "midi": 70,
                    "time": 159.68195124999875,
                    "velocity": 0.6771653543307087,
                    "duration": 0.545455000000004
                },
                {
                    "name": "D#4",
                    "midi": 63,
                    "time": 159.95467874999875,
                    "velocity": 0.5984251968503937,
                    "duration": 0.272727500000002
                },
                {
                    "name": "G4",
                    "midi": 67,
                    "time": 159.95467874999875,
                    "velocity": 0.5984251968503937,
                    "duration": 0.272727500000002
                },
                {
                    "name": "D#5",
                    "midi": 75,
                    "time": 159.95467874999875,
                    "velocity": 0.7086614173228346,
                    "duration": 0.545455000000004
                },
                {
                    "name": "G4",
                    "midi": 67,
                    "time": 160.22740624999875,
                    "velocity": 0.6377952755905512,
                    "duration": 0.272727500000002
                },
                {
                    "name": "A#4",
                    "midi": 70,
                    "time": 160.22740624999875,
                    "velocity": 0.6377952755905512,
                    "duration": 0.272727500000002
                },
                {
                    "name": "G5",
                    "midi": 79,
                    "time": 160.22740624999875,
                    "velocity": 0.7559055118110236,
                    "duration": 0.272727500000002
                },
                {
                    "name": "A#4",
                    "midi": 70,
                    "time": 160.50013374999875,
                    "velocity": 0.6692913385826772,
                    "duration": 0.4090912499999888
                },
                {
                    "name": "G5",
                    "midi": 79,
                    "time": 160.50013374999875,
                    "velocity": 0.6692913385826772,
                    "duration": 0.4090912499999888
                },
                {
                    "name": "A#5",
                    "midi": 82,
                    "time": 160.50013374999875,
                    "velocity": 0.7952755905511811,
                    "duration": 0.4090912499999888
                },
                {
                    "name": "D#5",
                    "midi": 75,
                    "time": 160.90922499999874,
                    "velocity": 0.6535433070866141,
                    "duration": 0.1363637499999868
                },
                {
                    "name": "G5",
                    "midi": 79,
                    "time": 160.90922499999874,
                    "velocity": 0.6535433070866141,
                    "duration": 0.1363637499999868
                },
                {
                    "name": "D#6",
                    "midi": 87,
                    "time": 160.90922499999874,
                    "velocity": 0.7795275590551181,
                    "duration": 0.9545462499999644
                },
                {
                    "name": "D#5",
                    "midi": 75,
                    "time": 161.04558874999873,
                    "velocity": 0.6614173228346457,
                    "duration": 0.4090912499999888
                },
                {
                    "name": "G5",
                    "midi": 79,
                    "time": 161.04558874999873,
                    "velocity": 0.7874015748031497,
                    "duration": 0.4090912499999888
                },
                {
                    "name": "D#5",
                    "midi": 75,
                    "time": 161.45467999999872,
                    "velocity": 0.6377952755905512,
                    "duration": 0.1363637499999868
                },
                {
                    "name": "G4",
                    "midi": 67,
                    "time": 161.45467999999872,
                    "velocity": 0.6377952755905512,
                    "duration": 0.1363637499999868
                },
                {
                    "name": "G5",
                    "midi": 79,
                    "time": 161.45467999999872,
                    "velocity": 0.7559055118110236,
                    "duration": 0.4090912499999888
                },
                {
                    "name": "G4",
                    "midi": 67,
                    "time": 161.5910437499987,
                    "velocity": 0.6377952755905512,
                    "duration": 0.272727500000002
                },
                {
                    "name": "D#5",
                    "midi": 75,
                    "time": 161.5910437499987,
                    "velocity": 0.6377952755905512,
                    "duration": 0.272727500000002
                },
                {
                    "name": "C5",
                    "midi": 72,
                    "time": 161.8637712499987,
                    "velocity": 0.6141732283464567,
                    "duration": 0.1363637499999868
                },
                {
                    "name": "C6",
                    "midi": 84,
                    "time": 161.8637712499987,
                    "velocity": 0.7244094488188977,
                    "duration": 0.1363637499999868
                },
                {
                    "name": "G5",
                    "midi": 79,
                    "time": 161.8637712499987,
                    "velocity": 0.6141732283464567,
                    "duration": 0.1363637499999868
                },
                {
                    "name": "A#4",
                    "midi": 70,
                    "time": 162.13649874999868,
                    "velocity": 0.6692913385826772,
                    "duration": 0.545455000000004
                },
                {
                    "name": "G5",
                    "midi": 79,
                    "time": 162.13649874999868,
                    "velocity": 0.6692913385826772,
                    "duration": 0.545455000000004
                },
                {
                    "name": "A#5",
                    "midi": 82,
                    "time": 162.13649874999868,
                    "velocity": 0.8031496062992126,
                    "duration": 0.545455000000004
                },
                {
                    "name": "A#3",
                    "midi": 58,
                    "time": 162.95468124999869,
                    "velocity": 0.6535433070866141,
                    "duration": 0.0681818749999934
                },
                {
                    "name": "A#4",
                    "midi": 70,
                    "time": 162.95468124999869,
                    "velocity": 0.7716535433070866,
                    "duration": 0.0681818749999934
                },
                {
                    "name": "A#3",
                    "midi": 58,
                    "time": 163.09104499999867,
                    "velocity": 0.6535433070866141,
                    "duration": 0.0681818749999934
                },
                {
                    "name": "A#4",
                    "midi": 70,
                    "time": 163.09104499999867,
                    "velocity": 0.7716535433070866,
                    "duration": 0.0681818749999934
                },
                {
                    "name": "A#3",
                    "midi": 58,
                    "time": 163.22740874999866,
                    "velocity": 0.7007874015748031,
                    "duration": 0.1363637499999868
                },
                {
                    "name": "A#4",
                    "midi": 70,
                    "time": 163.22740874999866,
                    "velocity": 0.8346456692913385,
                    "duration": 0.1363637499999868
                },
                {
                    "name": "G#4",
                    "midi": 68,
                    "time": 163.22740874999866,
                    "velocity": 0.7007874015748031,
                    "duration": 0.1363637499999868
                },
                {
                    "name": "F4",
                    "midi": 65,
                    "time": 163.50013624999863,
                    "velocity": 0.6771653543307087,
                    "duration": 0.1363637499999868
                },
                {
                    "name": "G#4",
                    "midi": 68,
                    "time": 163.50013624999863,
                    "velocity": 0.6771653543307087,
                    "duration": 0.1363637499999868
                },
                {
                    "name": "A#4",
                    "midi": 70,
                    "time": 163.50013624999863,
                    "velocity": 0.6771653543307087,
                    "duration": 0.1363637499999868
                },
                {
                    "name": "F5",
                    "midi": 77,
                    "time": 163.50013624999863,
                    "velocity": 0.7952755905511811,
                    "duration": 0.1363637499999868
                },
                {
                    "name": "D#4",
                    "midi": 63,
                    "time": 163.7728637499986,
                    "velocity": 0.7401574803149606,
                    "duration": 0.1363637499999868
                },
                {
                    "name": "G4",
                    "midi": 67,
                    "time": 163.7728637499986,
                    "velocity": 0.7401574803149606,
                    "duration": 0.1363637499999868
                },
                {
                    "name": "D#5",
                    "midi": 75,
                    "time": 163.7728637499986,
                    "velocity": 0.8740157480314961,
                    "duration": 0.1363637499999868
                },
                {
                    "name": "D#3",
                    "midi": 51,
                    "time": 163.9433184374986,
                    "velocity": 0.5511811023622047,
                    "duration": 0.272727500000002
                },
                {
                    "name": "A3",
                    "midi": 57,
                    "time": 163.9774093749986,
                    "velocity": 0.5669291338582677,
                    "duration": 0.2386365625000053
                },
                {
                    "name": "B3",
                    "midi": 59,
                    "time": 164.01150031249858,
                    "velocity": 0.5826771653543307,
                    "duration": 0.2045456250000086
                },
                {
                    "name": "D#4",
                    "midi": 63,
                    "time": 164.04559124999858,
                    "velocity": 0.6062992125984252,
                    "duration": 0.17045468750001191
                },
                {
                    "name": "D#3",
                    "midi": 51,
                    "time": 164.2160459374986,
                    "velocity": 0.5669291338582677,
                    "duration": 0.272727500000002
                },
                {
                    "name": "A3",
                    "midi": 57,
                    "time": 164.2501368749986,
                    "velocity": 0.5905511811023622,
                    "duration": 0.2386365625000053
                },
                {
                    "name": "B3",
                    "midi": 59,
                    "time": 164.28422781249859,
                    "velocity": 0.6141732283464567,
                    "duration": 0.2045456250000086
                },
                {
                    "name": "D#4",
                    "midi": 63,
                    "time": 164.31831874999858,
                    "velocity": 0.6377952755905512,
                    "duration": 0.17045468750001191
                },
                {
                    "name": "D#3",
                    "midi": 51,
                    "time": 164.4887734374986,
                    "velocity": 0.5826771653543307,
                    "duration": 0.272727500000002
                },
                {
                    "name": "A3",
                    "midi": 57,
                    "time": 164.5228643749986,
                    "velocity": 0.6141732283464567,
                    "duration": 0.2386365625000053
                },
                {
                    "name": "B3",
                    "midi": 59,
                    "time": 164.5569553124986,
                    "velocity": 0.6299212598425197,
                    "duration": 0.2045456250000086
                },
                {
                    "name": "D#4",
                    "midi": 63,
                    "time": 164.59104624999858,
                    "velocity": 0.6535433070866141,
                    "duration": 0.17045468750001191
                },
                {
                    "name": "D#3",
                    "midi": 51,
                    "time": 164.7615009374986,
                    "velocity": 0.6062992125984252,
                    "duration": 0.272727500000002
                },
                {
                    "name": "A3",
                    "midi": 57,
                    "time": 164.7955918749986,
                    "velocity": 0.6299212598425197,
                    "duration": 0.2386365625000053
                },
                {
                    "name": "B3",
                    "midi": 59,
                    "time": 164.8296828124986,
                    "velocity": 0.6456692913385826,
                    "duration": 0.2045456250000086
                },
                {
                    "name": "D#4",
                    "midi": 63,
                    "time": 164.8637737499986,
                    "velocity": 0.6771653543307087,
                    "duration": 0.17045468750001191
                },
                {
                    "name": "D#3",
                    "midi": 51,
                    "time": 165.0342284374986,
                    "velocity": 0.6299212598425197,
                    "duration": 0.3750003124999921
                },
                {
                    "name": "A3",
                    "midi": 57,
                    "time": 165.0683193749986,
                    "velocity": 0.6535433070866141,
                    "duration": 0.3409093749999954
                },
                {
                    "name": "B3",
                    "midi": 59,
                    "time": 165.1024103124986,
                    "velocity": 0.6692913385826772,
                    "duration": 0.3068184374999987
                },
                {
                    "name": "D#4",
                    "midi": 63,
                    "time": 165.1365012499986,
                    "velocity": 0.7007874015748031,
                    "duration": 0.272727500000002
                },
                {
                    "name": "E3",
                    "midi": 52,
                    "time": 165.4092287499986,
                    "velocity": 0.6614173228346457,
                    "duration": 0.1363637499999868
                },
                {
                    "name": "G#3",
                    "midi": 56,
                    "time": 165.4092287499986,
                    "velocity": 0.6614173228346457,
                    "duration": 0.1363637499999868
                },
                {
                    "name": "E4",
                    "midi": 64,
                    "time": 165.4092287499986,
                    "velocity": 0.7795275590551181,
                    "duration": 0.1363637499999868
                },
                {
                    "name": "G#3",
                    "midi": 56,
                    "time": 165.85241093749858,
                    "velocity": 0.6220472440944882,
                    "duration": 0.545455000000004
                },
                {
                    "name": "B3",
                    "midi": 59,
                    "time": 165.88650187499857,
                    "velocity": 0.6299212598425197,
                    "duration": 0.5113640625000073
                },
                {
                    "name": "E4",
                    "midi": 64,
                    "time": 165.92059281249857,
                    "velocity": 0.6299212598425197,
                    "duration": 0.4772731250000106
                },
                {
                    "name": "G#4",
                    "midi": 68,
                    "time": 165.95468374999857,
                    "velocity": 0.6299212598425197,
                    "duration": 0.4431821875000139
                },
                {
                    "name": "G#3",
                    "midi": 56,
                    "time": 166.39786593749858,
                    "velocity": 0.6141732283464567,
                    "duration": 0.545455000000004
                },
                {
                    "name": "B3",
                    "midi": 59,
                    "time": 166.43195687499858,
                    "velocity": 0.6141732283464567,
                    "duration": 0.5113640625000073
                },
                {
                    "name": "E4",
                    "midi": 64,
                    "time": 166.46604781249857,
                    "velocity": 0.6062992125984252,
                    "duration": 0.4772731250000106
                },
                {
                    "name": "G#4",
                    "midi": 68,
                    "time": 166.50013874999857,
                    "velocity": 0.6062992125984252,
                    "duration": 0.4431821875000139
                },
                {
                    "name": "G#3",
                    "midi": 56,
                    "time": 166.94332093749858,
                    "velocity": 0.5905511811023622,
                    "duration": 0.545455000000004
                },
                {
                    "name": "B3",
                    "midi": 59,
                    "time": 166.97741187499858,
                    "velocity": 0.5905511811023622,
                    "duration": 0.5113640625000073
                },
                {
                    "name": "E4",
                    "midi": 64,
                    "time": 167.01150281249858,
                    "velocity": 0.5905511811023622,
                    "duration": 0.4772731250000106
                },
                {
                    "name": "G#4",
                    "midi": 68,
                    "time": 167.04559374999857,
                    "velocity": 0.5826771653543307,
                    "duration": 0.4431821875000139
                },
                {
                    "name": "G#3",
                    "midi": 56,
                    "time": 167.4887759374986,
                    "velocity": 0.5669291338582677,
                    "duration": 0.545455000000004
                },
                {
                    "name": "B3",
                    "midi": 59,
                    "time": 167.52286687499858,
                    "velocity": 0.5669291338582677,
                    "duration": 0.5113640625000073
                },
                {
                    "name": "E4",
                    "midi": 64,
                    "time": 167.55695781249858,
                    "velocity": 0.5669291338582677,
                    "duration": 0.4772731250000106
                },
                {
                    "name": "G#4",
                    "midi": 68,
                    "time": 167.59104874999858,
                    "velocity": 0.5669291338582677,
                    "duration": 0.4431821875000139
                },
                {
                    "name": "G#3",
                    "midi": 56,
                    "time": 168.0342309374986,
                    "velocity": 0.5433070866141733,
                    "duration": 0.6477278124999941
                },
                {
                    "name": "B3",
                    "midi": 59,
                    "time": 168.0683218749986,
                    "velocity": 0.5433070866141733,
                    "duration": 0.6136368749999974
                },
                {
                    "name": "E4",
                    "midi": 64,
                    "time": 168.10241281249859,
                    "velocity": 0.5433070866141733,
                    "duration": 0.5795459375000007
                },
                {
                    "name": "G#4",
                    "midi": 68,
                    "time": 168.13650374999858,
                    "velocity": 0.5433070866141733,
                    "duration": 0.545455000000004
                },
                {
                    "name": "G#3",
                    "midi": 56,
                    "time": 168.68195874999859,
                    "velocity": 0.5196850393700787,
                    "duration": 0.0681818749999934
                },
                {
                    "name": "B3",
                    "midi": 59,
                    "time": 168.68195874999859,
                    "velocity": 0.5196850393700787,
                    "duration": 0.0681818749999934
                },
                {
                    "name": "E4",
                    "midi": 64,
                    "time": 168.68195874999859,
                    "velocity": 0.5196850393700787,
                    "duration": 0.0681818749999934
                },
                {
                    "name": "G#4",
                    "midi": 68,
                    "time": 168.68195874999859,
                    "velocity": 0.5196850393700787,
                    "duration": 0.0681818749999934
                },
                {
                    "name": "G#3",
                    "midi": 56,
                    "time": 171.95468874999858,
                    "velocity": 0.29133858267716534,
                    "duration": 1.090910000000008
                },
                {
                    "name": "B3",
                    "midi": 59,
                    "time": 171.95468874999858,
                    "velocity": 0.3464566929133858,
                    "duration": 1.090910000000008
                },
                {
                    "name": "A3",
                    "midi": 57,
                    "time": 173.0455987499986,
                    "velocity": 0.2755905511811024,
                    "duration": 0.4090912499999888
                },
                {
                    "name": "B3",
                    "midi": 59,
                    "time": 173.0455987499986,
                    "velocity": 0.33070866141732286,
                    "duration": 0.4090912499999888
                },
                {
                    "name": "A3",
                    "midi": 57,
                    "time": 173.45468999999858,
                    "velocity": 0.28346456692913385,
                    "duration": 0.1363637499999868
                },
                {
                    "name": "B3",
                    "midi": 59,
                    "time": 173.45468999999858,
                    "velocity": 0.3464566929133858,
                    "duration": 0.1363637499999868
                },
                {
                    "name": "G#3",
                    "midi": 56,
                    "time": 173.59105374999857,
                    "velocity": 0.28346456692913385,
                    "duration": 0.4090912499999888
                },
                {
                    "name": "B3",
                    "midi": 59,
                    "time": 173.59105374999857,
                    "velocity": 0.3464566929133858,
                    "duration": 0.4090912499999888
                },
                {
                    "name": "G#3",
                    "midi": 56,
                    "time": 174.00014499999855,
                    "velocity": 0.2755905511811024,
                    "duration": 0.12272737500001085
                },
                {
                    "name": "E4",
                    "midi": 64,
                    "time": 174.00014499999855,
                    "velocity": 0.3228346456692913,
                    "duration": 0.12272737500001085
                },
                {
                    "name": "G#3",
                    "midi": 56,
                    "time": 174.13650874999857,
                    "velocity": 0.30708661417322836,
                    "duration": 0.545455000000004
                },
                {
                    "name": "B3",
                    "midi": 59,
                    "time": 174.13650874999857,
                    "velocity": 0.30708661417322836,
                    "duration": 0.545455000000004
                },
                {
                    "name": "G#4",
                    "midi": 68,
                    "time": 174.13650874999857,
                    "velocity": 0.36220472440944884,
                    "duration": 0.545455000000004
                },
                {
                    "name": "A3",
                    "midi": 57,
                    "time": 174.68196374999857,
                    "velocity": 0.25984251968503935,
                    "duration": 0.545455000000004
                },
                {
                    "name": "B3",
                    "midi": 59,
                    "time": 174.68196374999857,
                    "velocity": 0.25984251968503935,
                    "duration": 0.545455000000004
                },
                {
                    "name": "F#4",
                    "midi": 66,
                    "time": 174.68196374999857,
                    "velocity": 0.31496062992125984,
                    "duration": 0.545455000000004
                },
                {
                    "name": "G#3",
                    "midi": 56,
                    "time": 175.22741874999858,
                    "velocity": 0.2755905511811024,
                    "duration": 0.4090912499999888
                },
                {
                    "name": "B3",
                    "midi": 59,
                    "time": 175.22741874999858,
                    "velocity": 0.33070866141732286,
                    "duration": 0.4090912499999888
                },
                {
                    "name": "G#3",
                    "midi": 56,
                    "time": 175.63650999999857,
                    "velocity": 0.2755905511811024,
                    "duration": 0.12272737500001085
                },
                {
                    "name": "E4",
                    "midi": 64,
                    "time": 175.63650999999857,
                    "velocity": 0.33070866141732286,
                    "duration": 0.12272737500001085
                },
                {
                    "name": "G#3",
                    "midi": 56,
                    "time": 175.77287374999858,
                    "velocity": 0.28346456692913385,
                    "duration": 0.272727500000002
                },
                {
                    "name": "B3",
                    "midi": 59,
                    "time": 175.77287374999858,
                    "velocity": 0.28346456692913385,
                    "duration": 0.272727500000002
                },
                {
                    "name": "G#4",
                    "midi": 68,
                    "time": 175.77287374999858,
                    "velocity": 0.3464566929133858,
                    "duration": 0.272727500000002
                },
                {
                    "name": "A3",
                    "midi": 57,
                    "time": 176.18196499999857,
                    "velocity": 0.2677165354330709,
                    "duration": 0.1363637499999868
                },
                {
                    "name": "D#4",
                    "midi": 63,
                    "time": 176.18196499999857,
                    "velocity": 0.3228346456692913,
                    "duration": 0.1363637499999868
                },
                {
                    "name": "G#3",
                    "midi": 56,
                    "time": 176.31832874999856,
                    "velocity": 0.2755905511811024,
                    "duration": 0.272727500000002
                },
                {
                    "name": "E4",
                    "midi": 64,
                    "time": 176.31832874999856,
                    "velocity": 0.33070866141732286,
                    "duration": 0.272727500000002
                },
                {
                    "name": "G#3",
                    "midi": 56,
                    "time": 176.59105624999856,
                    "velocity": 0.28346456692913385,
                    "duration": 0.272727500000002
                },
                {
                    "name": "E4",
                    "midi": 64,
                    "time": 176.59105624999856,
                    "velocity": 0.28346456692913385,
                    "duration": 0.272727500000002
                },
                {
                    "name": "G#4",
                    "midi": 68,
                    "time": 176.59105624999856,
                    "velocity": 0.33070866141732286,
                    "duration": 0.272727500000002
                },
                {
                    "name": "B3",
                    "midi": 59,
                    "time": 176.86378374999856,
                    "velocity": 0.30708661417322836,
                    "duration": 0.272727500000002
                },
                {
                    "name": "G#4",
                    "midi": 68,
                    "time": 176.86378374999856,
                    "velocity": 0.30708661417322836,
                    "duration": 0.272727500000002
                },
                {
                    "name": "B4",
                    "midi": 71,
                    "time": 176.86378374999856,
                    "velocity": 0.3700787401574803,
                    "duration": 0.272727500000002
                },
                {
                    "name": "C#4",
                    "midi": 61,
                    "time": 177.13651124999856,
                    "velocity": 0.30708661417322836,
                    "duration": 0.0681818749999934
                },
                {
                    "name": "G#4",
                    "midi": 68,
                    "time": 177.13651124999856,
                    "velocity": 0.30708661417322836,
                    "duration": 0.0681818749999934
                },
                {
                    "name": "C#5",
                    "midi": 73,
                    "time": 177.13651124999856,
                    "velocity": 0.3700787401574803,
                    "duration": 0.0681818749999934
                },
                {
                    "name": "D#4",
                    "midi": 63,
                    "time": 177.27287499999855,
                    "velocity": 0.31496062992125984,
                    "duration": 0.0681818749999934
                },
                {
                    "name": "G#4",
                    "midi": 68,
                    "time": 177.27287499999855,
                    "velocity": 0.31496062992125984,
                    "duration": 0.0681818749999934
                },
                {
                    "name": "D#5",
                    "midi": 75,
                    "time": 177.27287499999855,
                    "velocity": 0.3858267716535433,
                    "duration": 0.0681818749999934
                },
                {
                    "name": "E4",
                    "midi": 64,
                    "time": 177.40923874999854,
                    "velocity": 0.33858267716535434,
                    "duration": 0.1363637499999868
                },
                {
                    "name": "G#4",
                    "midi": 68,
                    "time": 177.40923874999854,
                    "velocity": 0.33858267716535434,
                    "duration": 0.1363637499999868
                },
                {
                    "name": "E5",
                    "midi": 76,
                    "time": 177.40923874999854,
                    "velocity": 0.4015748031496063,
                    "duration": 0.1363637499999868
                },
                {
                    "name": "B3",
                    "midi": 59,
                    "time": 177.6819662499985,
                    "velocity": 0.30708661417322836,
                    "duration": 0.1363637499999868
                },
                {
                    "name": "G#4",
                    "midi": 68,
                    "time": 177.6819662499985,
                    "velocity": 0.30708661417322836,
                    "duration": 0.1363637499999868
                },
                {
                    "name": "B4",
                    "midi": 71,
                    "time": 177.6819662499985,
                    "velocity": 0.3543307086614173,
                    "duration": 0.1363637499999868
                },
                {
                    "name": "G#4",
                    "midi": 68,
                    "time": 177.95469374999848,
                    "velocity": 0.3543307086614173,
                    "duration": 0.545455000000004
                },
                {
                    "name": "B4",
                    "midi": 71,
                    "time": 177.95469374999848,
                    "velocity": 0.3543307086614173,
                    "duration": 0.545455000000004
                },
                {
                    "name": "G#5",
                    "midi": 80,
                    "time": 177.95469374999848,
                    "velocity": 0.4251968503937008,
                    "duration": 0.545455000000004
                },
                {
                    "name": "B3",
                    "midi": 59,
                    "time": 178.5001487499985,
                    "velocity": 0.2677165354330709,
                    "duration": 0.818182500000006
                },
                {
                    "name": "F#4",
                    "midi": 66,
                    "time": 178.5001487499985,
                    "velocity": 0.2677165354330709,
                    "duration": 0.818182500000006
                },
                {
                    "name": "A4",
                    "midi": 69,
                    "time": 178.5001487499985,
                    "velocity": 0.3228346456692913,
                    "duration": 0.818182500000006
                },
                {
                    "name": "B4",
                    "midi": 71,
                    "time": 178.5001487499985,
                    "velocity": 0.3858267716535433,
                    "duration": 0.818182500000006
                },
                {
                    "name": "B3",
                    "midi": 59,
                    "time": 179.3183312499985,
                    "velocity": 0.33070866141732286,
                    "duration": 0.0681818749999934
                },
                {
                    "name": "A4",
                    "midi": 69,
                    "time": 179.3183312499985,
                    "velocity": 0.33070866141732286,
                    "duration": 0.0681818749999934
                },
                {
                    "name": "B4",
                    "midi": 71,
                    "time": 179.3183312499985,
                    "velocity": 0.3937007874015748,
                    "duration": 0.0681818749999934
                },
                {
                    "name": "B3",
                    "midi": 59,
                    "time": 179.45469499999848,
                    "velocity": 0.33070866141732286,
                    "duration": 0.0681818749999934
                },
                {
                    "name": "A4",
                    "midi": 69,
                    "time": 179.45469499999848,
                    "velocity": 0.33070866141732286,
                    "duration": 0.0681818749999934
                },
                {
                    "name": "B4",
                    "midi": 71,
                    "time": 179.45469499999848,
                    "velocity": 0.3937007874015748,
                    "duration": 0.0681818749999934
                },
                {
                    "name": "B3",
                    "midi": 59,
                    "time": 179.59105874999847,
                    "velocity": 0.33858267716535434,
                    "duration": 0.1363637499999868
                },
                {
                    "name": "A4",
                    "midi": 69,
                    "time": 179.59105874999847,
                    "velocity": 0.33858267716535434,
                    "duration": 0.1363637499999868
                },
                {
                    "name": "B4",
                    "midi": 71,
                    "time": 179.59105874999847,
                    "velocity": 0.4094488188976378,
                    "duration": 0.1363637499999868
                },
                {
                    "name": "B3",
                    "midi": 59,
                    "time": 179.86378624999844,
                    "velocity": 0.3228346456692913,
                    "duration": 0.1363637499999868
                },
                {
                    "name": "A4",
                    "midi": 69,
                    "time": 179.86378624999844,
                    "velocity": 0.3228346456692913,
                    "duration": 0.1363637499999868
                },
                {
                    "name": "B4",
                    "midi": 71,
                    "time": 179.86378624999844,
                    "velocity": 0.3858267716535433,
                    "duration": 0.1363637499999868
                },
                {
                    "name": "B3",
                    "midi": 59,
                    "time": 180.13651374999841,
                    "velocity": 0.3543307086614173,
                    "duration": 0.4090912499999888
                },
                {
                    "name": "G#4",
                    "midi": 68,
                    "time": 180.13651374999841,
                    "velocity": 0.3543307086614173,
                    "duration": 0.4090912499999888
                },
                {
                    "name": "B4",
                    "midi": 71,
                    "time": 180.13651374999841,
                    "velocity": 0.41732283464566927,
                    "duration": 0.4090912499999888
                },
                {
                    "name": "E4",
                    "midi": 64,
                    "time": 180.5456049999984,
                    "velocity": 0.33070866141732286,
                    "duration": 0.12272737500001085
                },
                {
                    "name": "G#4",
                    "midi": 68,
                    "time": 180.5456049999984,
                    "velocity": 0.33070866141732286,
                    "duration": 0.12272737500001085
                },
                {
                    "name": "E5",
                    "midi": 76,
                    "time": 180.5456049999984,
                    "velocity": 0.3937007874015748,
                    "duration": 0.12272737500001085
                },
                {
                    "name": "E4",
                    "midi": 64,
                    "time": 180.68196874999842,
                    "velocity": 0.3464566929133858,
                    "duration": 0.545455000000004
                },
                {
                    "name": "G#4",
                    "midi": 68,
                    "time": 180.68196874999842,
                    "velocity": 0.3464566929133858,
                    "duration": 0.545455000000004
                },
                {
                    "name": "E5",
                    "midi": 76,
                    "time": 180.68196874999842,
                    "velocity": 0.41732283464566927,
                    "duration": 0.545455000000004
                },
                {
                    "name": "B3",
                    "midi": 59,
                    "time": 181.22742374999842,
                    "velocity": 0.3228346456692913,
                    "duration": 0.545455000000004
                },
                {
                    "name": "E4",
                    "midi": 64,
                    "time": 181.22742374999842,
                    "velocity": 0.3228346456692913,
                    "duration": 0.545455000000004
                },
                {
                    "name": "G#4",
                    "midi": 68,
                    "time": 181.22742374999842,
                    "velocity": 0.3858267716535433,
                    "duration": 0.545455000000004
                },
                {
                    "name": "A3",
                    "midi": 57,
                    "time": 181.77287874999843,
                    "velocity": 0.36220472440944884,
                    "duration": 0.272727500000002
                },
                {
                    "name": "B3",
                    "midi": 59,
                    "time": 181.77287874999843,
                    "velocity": 0.36220472440944884,
                    "duration": 0.272727500000002
                },
                {
                    "name": "F#4",
                    "midi": 66,
                    "time": 181.77287874999843,
                    "velocity": 0.4251968503937008,
                    "duration": 0.8181824999999492
                },
                {
                    "name": "A3",
                    "midi": 57,
                    "time": 182.04560624999843,
                    "velocity": 0.3464566929133858,
                    "duration": 0.0681818749999934
                },
                {
                    "name": "B3",
                    "midi": 59,
                    "time": 182.04560624999843,
                    "velocity": 0.4094488188976378,
                    "duration": 0.0681818749999934
                },
                {
                    "name": "B3",
                    "midi": 59,
                    "time": 182.18196999999842,
                    "velocity": 0.4094488188976378,
                    "duration": 0.0681818749999934
                },
                {
                    "name": "A3",
                    "midi": 57,
                    "time": 182.18196999999842,
                    "velocity": 0.3464566929133858,
                    "duration": 0.0681818749999934
                },
                {
                    "name": "A3",
                    "midi": 57,
                    "time": 182.3183337499984,
                    "velocity": 0.3543307086614173,
                    "duration": 0.1363637499999868
                },
                {
                    "name": "B3",
                    "midi": 59,
                    "time": 182.3183337499984,
                    "velocity": 0.4251968503937008,
                    "duration": 0.1363637499999868
                },
                {
                    "name": "A3",
                    "midi": 57,
                    "time": 182.59106124999838,
                    "velocity": 0.3543307086614173,
                    "duration": 0.272727500000002
                },
                {
                    "name": "B3",
                    "midi": 59,
                    "time": 182.59106124999838,
                    "velocity": 0.3543307086614173,
                    "duration": 0.272727500000002
                },
                {
                    "name": "F#4",
                    "midi": 66,
                    "time": 182.59106124999838,
                    "velocity": 0.4251968503937008,
                    "duration": 0.272727500000002
                },
                {
                    "name": "A3",
                    "midi": 57,
                    "time": 182.86378874999838,
                    "velocity": 0.3543307086614173,
                    "duration": 0.0681818749999934
                },
                {
                    "name": "B3",
                    "midi": 59,
                    "time": 182.86378874999838,
                    "velocity": 0.3543307086614173,
                    "duration": 0.0681818749999934
                },
                {
                    "name": "G#4",
                    "midi": 68,
                    "time": 182.86378874999838,
                    "velocity": 0.41732283464566927,
                    "duration": 0.0681818749999934
                },
                {
                    "name": "A3",
                    "midi": 57,
                    "time": 183.00015249999836,
                    "velocity": 0.3464566929133858,
                    "duration": 0.0681818749999934
                },
                {
                    "name": "B3",
                    "midi": 59,
                    "time": 183.00015249999836,
                    "velocity": 0.3464566929133858,
                    "duration": 0.0681818749999934
                },
                {
                    "name": "F#4",
                    "midi": 66,
                    "time": 183.00015249999836,
                    "velocity": 0.4094488188976378,
                    "duration": 0.0681818749999934
                },
                {
                    "name": "A3",
                    "midi": 57,
                    "time": 183.13651624999835,
                    "velocity": 0.33858267716535434,
                    "duration": 0.0681818749999934
                },
                {
                    "name": "B3",
                    "midi": 59,
                    "time": 183.13651624999835,
                    "velocity": 0.33858267716535434,
                    "duration": 0.0681818749999934
                },
                {
                    "name": "E4",
                    "midi": 64,
                    "time": 183.13651624999835,
                    "velocity": 0.4015748031496063,
                    "duration": 0.0681818749999934
                },
                {
                    "name": "D#4",
                    "midi": 63,
                    "time": 183.27287999999834,
                    "velocity": 0.3228346456692913,
                    "duration": 0.0681818749999934
                },
                {
                    "name": "A3",
                    "midi": 57,
                    "time": 183.27287999999834,
                    "velocity": 0.3228346456692913,
                    "duration": 0.0681818749999934
                },
                {
                    "name": "B3",
                    "midi": 59,
                    "time": 183.27287999999834,
                    "velocity": 0.3228346456692913,
                    "duration": 0.0681818749999934
                },
                {
                    "name": "F#4",
                    "midi": 66,
                    "time": 183.27287999999834,
                    "velocity": 0.3937007874015748,
                    "duration": 0.0681818749999934
                },
                {
                    "name": "G#3",
                    "midi": 56,
                    "time": 183.40924374999832,
                    "velocity": 0.41732283464566927,
                    "duration": 0.4090912499999888
                },
                {
                    "name": "E4",
                    "midi": 64,
                    "time": 183.40924374999832,
                    "velocity": 0.3543307086614173,
                    "duration": 0.9545462499999644
                },
                {
                    "name": "G#4",
                    "midi": 68,
                    "time": 183.40924374999832,
                    "velocity": 0.41732283464566927,
                    "duration": 0.9545462499999644
                },
                {
                    "name": "C#4",
                    "midi": 61,
                    "time": 183.8183349999983,
                    "velocity": 0.4015748031496063,
                    "duration": 0.1363637499999868
                },
                {
                    "name": "B3",
                    "midi": 59,
                    "time": 183.9546987499983,
                    "velocity": 0.4251968503937008,
                    "duration": 1.090910000000008
                },
                {
                    "name": "G#4",
                    "midi": 68,
                    "time": 184.3637899999983,
                    "velocity": 0.33858267716535434,
                    "duration": 0.12272737500001085
                },
                {
                    "name": "B4",
                    "midi": 71,
                    "time": 184.3637899999983,
                    "velocity": 0.4094488188976378,
                    "duration": 0.12272737500001085
                },
                {
                    "name": "G#4",
                    "midi": 68,
                    "time": 184.5001537499983,
                    "velocity": 0.33858267716535434,
                    "duration": 0.545455000000004
                },
                {
                    "name": "B4",
                    "midi": 71,
                    "time": 184.5001537499983,
                    "velocity": 0.4094488188976378,
                    "duration": 0.545455000000004
                },
                {
                    "name": "G#3",
                    "midi": 56,
                    "time": 185.0456087499983,
                    "velocity": 0.3543307086614173,
                    "duration": 0.818182500000006
                },
                {
                    "name": "B3",
                    "midi": 59,
                    "time": 185.0456087499983,
                    "velocity": 0.41732283464566927,
                    "duration": 0.818182500000006
                },
                {
                    "name": "G3",
                    "midi": 55,
                    "time": 185.86379124999831,
                    "velocity": 0.3543307086614173,
                    "duration": 0.0681818749999934
                },
                {
                    "name": "B3",
                    "midi": 59,
                    "time": 185.86379124999831,
                    "velocity": 0.4251968503937008,
                    "duration": 0.0681818749999934
                },
                {
                    "name": "G#3",
                    "midi": 56,
                    "time": 186.0001549999983,
                    "velocity": 0.36220472440944884,
                    "duration": 0.0681818749999934
                },
                {
                    "name": "B3",
                    "midi": 59,
                    "time": 186.0001549999983,
                    "velocity": 0.4251968503937008,
                    "duration": 0.0681818749999934
                },
                {
                    "name": "A3",
                    "midi": 57,
                    "time": 186.1365187499983,
                    "velocity": 0.3779527559055118,
                    "duration": 0.1363637499999868
                },
                {
                    "name": "B3",
                    "midi": 59,
                    "time": 186.1365187499983,
                    "velocity": 0.44881889763779526,
                    "duration": 0.1363637499999868
                },
                {
                    "name": "A3",
                    "midi": 57,
                    "time": 186.40924624999826,
                    "velocity": 0.3700787401574803,
                    "duration": 0.0681818749999934
                },
                {
                    "name": "C#4",
                    "midi": 61,
                    "time": 186.40924624999826,
                    "velocity": 0.4330708661417323,
                    "duration": 0.0681818749999934
                },
                {
                    "name": "A3",
                    "midi": 57,
                    "time": 186.54560999999825,
                    "velocity": 0.3779527559055118,
                    "duration": 0.0681818749999934
                },
                {
                    "name": "D#4",
                    "midi": 63,
                    "time": 186.54560999999825,
                    "velocity": 0.44881889763779526,
                    "duration": 0.0681818749999934
                },
                {
                    "name": "G#3",
                    "midi": 56,
                    "time": 186.68197374999824,
                    "velocity": 0.4015748031496063,
                    "duration": 0.4090912499999888
                },
                {
                    "name": "E4",
                    "midi": 64,
                    "time": 186.68197374999824,
                    "velocity": 0.48031496062992124,
                    "duration": 0.4090912499999888
                },
                {
                    "name": "G#3",
                    "midi": 56,
                    "time": 187.09106499999822,
                    "velocity": 0.3858267716535433,
                    "duration": 0.12272737500001085
                },
                {
                    "name": "B3",
                    "midi": 59,
                    "time": 187.09106499999822,
                    "velocity": 0.3858267716535433,
                    "duration": 0.12272737500001085
                },
                {
                    "name": "G#3",
                    "midi": 56,
                    "time": 187.22742874999824,
                    "velocity": 0.4015748031496063,
                    "duration": 0.545455000000004
                },
                {
                    "name": "B3",
                    "midi": 59,
                    "time": 187.22742874999824,
                    "velocity": 0.4015748031496063,
                    "duration": 0.545455000000004
                },
                {
                    "name": "G#4",
                    "midi": 68,
                    "time": 187.22742874999824,
                    "velocity": 0.48031496062992124,
                    "duration": 0.545455000000004
                },
                {
                    "name": "A3",
                    "midi": 57,
                    "time": 187.77288374999824,
                    "velocity": 0.41732283464566927,
                    "duration": 0.545455000000004
                },
                {
                    "name": "B3",
                    "midi": 59,
                    "time": 187.77288374999824,
                    "velocity": 0.41732283464566927,
                    "duration": 0.545455000000004
                },
                {
                    "name": "F#4",
                    "midi": 66,
                    "time": 187.77288374999824,
                    "velocity": 0.49606299212598426,
                    "duration": 0.545455000000004
                },
                {
                    "name": "G#3",
                    "midi": 56,
                    "time": 188.31833874999825,
                    "velocity": 0.44881889763779526,
                    "duration": 0.4090912499999888
                },
                {
                    "name": "B3",
                    "midi": 59,
                    "time": 188.31833874999825,
                    "velocity": 0.5275590551181102,
                    "duration": 0.4090912499999888
                },
                {
                    "name": "G#3",
                    "midi": 56,
                    "time": 188.72742999999824,
                    "velocity": 0.47244094488188976,
                    "duration": 0.12272737500001085
                },
                {
                    "name": "E4",
                    "midi": 64,
                    "time": 188.72742999999824,
                    "velocity": 0.5590551181102362,
                    "duration": 0.12272737500001085
                },
                {
                    "name": "G#3",
                    "midi": 56,
                    "time": 188.86379374999825,
                    "velocity": 0.48031496062992124,
                    "duration": 0.272727500000002
                },
                {
                    "name": "B3",
                    "midi": 59,
                    "time": 188.86379374999825,
                    "velocity": 0.48031496062992124,
                    "duration": 0.272727500000002
                },
                {
                    "name": "G#4",
                    "midi": 68,
                    "time": 188.86379374999825,
                    "velocity": 0.5669291338582677,
                    "duration": 0.272727500000002
                },
                {
                    "name": "A3",
                    "midi": 57,
                    "time": 189.27288499999824,
                    "velocity": 0.4566929133858268,
                    "duration": 0.1363637499999868
                },
                {
                    "name": "D#4",
                    "midi": 63,
                    "time": 189.27288499999824,
                    "velocity": 0.5511811023622047,
                    "duration": 0.1363637499999868
                },
                {
                    "name": "G#3",
                    "midi": 56,
                    "time": 189.40924874999823,
                    "velocity": 0.48031496062992124,
                    "duration": 0.272727500000002
                },
                {
                    "name": "E4",
                    "midi": 64,
                    "time": 189.40924874999823,
                    "velocity": 0.5748031496062992,
                    "duration": 0.272727500000002
                },
                {
                    "name": "G#3",
                    "midi": 56,
                    "time": 189.68197624999823,
                    "velocity": 0.49606299212598426,
                    "duration": 0.272727500000002
                },
                {
                    "name": "E4",
                    "midi": 64,
                    "time": 189.68197624999823,
                    "velocity": 0.49606299212598426,
                    "duration": 0.272727500000002
                },
                {
                    "name": "G#4",
                    "midi": 68,
                    "time": 189.68197624999823,
                    "velocity": 0.5984251968503937,
                    "duration": 0.272727500000002
                },
                {
                    "name": "B3",
                    "midi": 59,
                    "time": 189.95470374999823,
                    "velocity": 0.5196850393700787,
                    "duration": 0.545455000000004
                },
                {
                    "name": "G#4",
                    "midi": 68,
                    "time": 189.95470374999823,
                    "velocity": 0.5196850393700787,
                    "duration": 0.545455000000004
                },
                {
                    "name": "B4",
                    "midi": 71,
                    "time": 189.95470374999823,
                    "velocity": 0.6141732283464567,
                    "duration": 0.545455000000004
                },
                {
                    "name": "C#4",
                    "midi": 61,
                    "time": 190.50015874999823,
                    "velocity": 0.48031496062992124,
                    "duration": 0.1363637499999868
                },
                {
                    "name": "G#4",
                    "midi": 68,
                    "time": 190.50015874999823,
                    "velocity": 0.48031496062992124,
                    "duration": 0.1363637499999868
                },
                {
                    "name": "C#5",
                    "midi": 73,
                    "time": 190.50015874999823,
                    "velocity": 0.5669291338582677,
                    "duration": 0.1363637499999868
                },
                {
                    "name": "D#4",
                    "midi": 63,
                    "time": 190.63652249999822,
                    "velocity": 0.5039370078740157,
                    "duration": 0.1363637499999868
                },
                {
                    "name": "G#4",
                    "midi": 68,
                    "time": 190.63652249999822,
                    "velocity": 0.5039370078740157,
                    "duration": 0.1363637499999868
                },
                {
                    "name": "D#5",
                    "midi": 75,
                    "time": 190.63652249999822,
                    "velocity": 0.5905511811023622,
                    "duration": 0.1363637499999868
                },
                {
                    "name": "E4",
                    "midi": 64,
                    "time": 190.7728862499982,
                    "velocity": 0.5039370078740157,
                    "duration": 0.1363637499999868
                },
                {
                    "name": "G#4",
                    "midi": 68,
                    "time": 190.7728862499982,
                    "velocity": 0.5039370078740157,
                    "duration": 0.1363637499999868
                },
                {
                    "name": "E5",
                    "midi": 76,
                    "time": 190.7728862499982,
                    "velocity": 0.6062992125984252,
                    "duration": 0.1363637499999868
                },
                {
                    "name": "F#4",
                    "midi": 66,
                    "time": 190.9092499999982,
                    "velocity": 0.5275590551181102,
                    "duration": 0.1363637499999868
                },
                {
                    "name": "B4",
                    "midi": 71,
                    "time": 190.9092499999982,
                    "velocity": 0.5275590551181102,
                    "duration": 0.1363637499999868
                },
                {
                    "name": "F#5",
                    "midi": 78,
                    "time": 190.9092499999982,
                    "velocity": 0.6377952755905512,
                    "duration": 0.1363637499999868
                },
                {
                    "name": "B4",
                    "midi": 71,
                    "time": 191.04561374999818,
                    "velocity": 0.6692913385826772,
                    "duration": 0.4090912499999888
                },
                {
                    "name": "G#4",
                    "midi": 68,
                    "time": 191.04561374999818,
                    "velocity": 0.5590551181102362,
                    "duration": 0.5454549999999756
                },
                {
                    "name": "E5",
                    "midi": 76,
                    "time": 191.04561374999818,
                    "velocity": 0.5590551181102362,
                    "duration": 0.5454549999999756
                },
                {
                    "name": "G#5",
                    "midi": 80,
                    "time": 191.04561374999818,
                    "velocity": 0.6692913385826772,
                    "duration": 0.5454549999999756
                },
                {
                    "name": "A#4",
                    "midi": 70,
                    "time": 191.45470499999817,
                    "velocity": 0.6377952755905512,
                    "duration": 0.9545462499999928
                },
                {
                    "name": "G4",
                    "midi": 67,
                    "time": 191.59106874999816,
                    "velocity": 0.5826771653543307,
                    "duration": 0.818182500000006
                },
                {
                    "name": "D#5",
                    "midi": 75,
                    "time": 191.59106874999816,
                    "velocity": 0.5826771653543307,
                    "duration": 0.818182500000006
                },
                {
                    "name": "G5",
                    "midi": 79,
                    "time": 191.59106874999816,
                    "velocity": 0.6929133858267716,
                    "duration": 0.818182500000006
                },
                {
                    "name": "A#3",
                    "midi": 58,
                    "time": 192.40925124999816,
                    "velocity": 0.5669291338582677,
                    "duration": 0.272727500000002
                },
                {
                    "name": "G4",
                    "midi": 67,
                    "time": 192.40925124999816,
                    "velocity": 0.5669291338582677,
                    "duration": 0.272727500000002
                },
                {
                    "name": "A#4",
                    "midi": 70,
                    "time": 192.40925124999816,
                    "velocity": 0.6771653543307087,
                    "duration": 0.545455000000004
                },
                {
                    "name": "D#4",
                    "midi": 63,
                    "time": 192.68197874999817,
                    "velocity": 0.5984251968503937,
                    "duration": 0.272727500000002
                },
                {
                    "name": "G4",
                    "midi": 67,
                    "time": 192.68197874999817,
                    "velocity": 0.5984251968503937,
                    "duration": 0.272727500000002
                },
                {
                    "name": "D#5",
                    "midi": 75,
                    "time": 192.68197874999817,
                    "velocity": 0.7086614173228346,
                    "duration": 0.545455000000004
                },
                {
                    "name": "G4",
                    "midi": 67,
                    "time": 192.95470624999817,
                    "velocity": 0.6377952755905512,
                    "duration": 0.272727500000002
                },
                {
                    "name": "A#4",
                    "midi": 70,
                    "time": 192.95470624999817,
                    "velocity": 0.6377952755905512,
                    "duration": 0.272727500000002
                },
                {
                    "name": "G5",
                    "midi": 79,
                    "time": 192.95470624999817,
                    "velocity": 0.7559055118110236,
                    "duration": 0.272727500000002
                },
                {
                    "name": "A#4",
                    "midi": 70,
                    "time": 193.22743374999817,
                    "velocity": 0.6692913385826772,
                    "duration": 0.4090912499999888
                },
                {
                    "name": "G5",
                    "midi": 79,
                    "time": 193.22743374999817,
                    "velocity": 0.6692913385826772,
                    "duration": 0.4090912499999888
                },
                {
                    "name": "A#5",
                    "midi": 82,
                    "time": 193.22743374999817,
                    "velocity": 0.7952755905511811,
                    "duration": 0.4090912499999888
                },
                {
                    "name": "D#5",
                    "midi": 75,
                    "time": 193.63652499999816,
                    "velocity": 0.6535433070866141,
                    "duration": 0.1363637499999868
                },
                {
                    "name": "G5",
                    "midi": 79,
                    "time": 193.63652499999816,
                    "velocity": 0.6535433070866141,
                    "duration": 0.1363637499999868
                },
                {
                    "name": "D#6",
                    "midi": 87,
                    "time": 193.63652499999816,
                    "velocity": 0.7795275590551181,
                    "duration": 0.9545462499999644
                },
                {
                    "name": "D#5",
                    "midi": 75,
                    "time": 193.77288874999815,
                    "velocity": 0.6614173228346457,
                    "duration": 0.4090912499999888
                },
                {
                    "name": "G5",
                    "midi": 79,
                    "time": 193.77288874999815,
                    "velocity": 0.7874015748031497,
                    "duration": 0.4090912499999888
                },
                {
                    "name": "D#5",
                    "midi": 75,
                    "time": 194.18197999999813,
                    "velocity": 0.6377952755905512,
                    "duration": 0.1363637499999868
                },
                {
                    "name": "G4",
                    "midi": 67,
                    "time": 194.18197999999813,
                    "velocity": 0.6377952755905512,
                    "duration": 0.1363637499999868
                },
                {
                    "name": "G5",
                    "midi": 79,
                    "time": 194.18197999999813,
                    "velocity": 0.7559055118110236,
                    "duration": 0.4090912499999888
                },
                {
                    "name": "G4",
                    "midi": 67,
                    "time": 194.31834374999812,
                    "velocity": 0.6377952755905512,
                    "duration": 0.272727500000002
                },
                {
                    "name": "D#5",
                    "midi": 75,
                    "time": 194.31834374999812,
                    "velocity": 0.6377952755905512,
                    "duration": 0.272727500000002
                },
                {
                    "name": "C5",
                    "midi": 72,
                    "time": 194.59107124999812,
                    "velocity": 0.6141732283464567,
                    "duration": 0.1363637499999868
                },
                {
                    "name": "C6",
                    "midi": 84,
                    "time": 194.59107124999812,
                    "velocity": 0.7244094488188977,
                    "duration": 0.1363637499999868
                },
                {
                    "name": "G5",
                    "midi": 79,
                    "time": 194.59107124999812,
                    "velocity": 0.6141732283464567,
                    "duration": 0.1363637499999868
                },
                {
                    "name": "A#4",
                    "midi": 70,
                    "time": 194.8637987499981,
                    "velocity": 0.6692913385826772,
                    "duration": 0.545455000000004
                },
                {
                    "name": "G5",
                    "midi": 79,
                    "time": 194.8637987499981,
                    "velocity": 0.6692913385826772,
                    "duration": 0.545455000000004
                },
                {
                    "name": "A#5",
                    "midi": 82,
                    "time": 194.8637987499981,
                    "velocity": 0.8031496062992126,
                    "duration": 0.545455000000004
                },
                {
                    "name": "A#3",
                    "midi": 58,
                    "time": 195.6819812499981,
                    "velocity": 0.6535433070866141,
                    "duration": 0.0681818749999934
                },
                {
                    "name": "A#4",
                    "midi": 70,
                    "time": 195.6819812499981,
                    "velocity": 0.7716535433070866,
                    "duration": 0.0681818749999934
                },
                {
                    "name": "A#3",
                    "midi": 58,
                    "time": 195.8183449999981,
                    "velocity": 0.6535433070866141,
                    "duration": 0.0681818749999934
                },
                {
                    "name": "A#4",
                    "midi": 70,
                    "time": 195.8183449999981,
                    "velocity": 0.7716535433070866,
                    "duration": 0.0681818749999934
                },
                {
                    "name": "A#3",
                    "midi": 58,
                    "time": 195.95470874999808,
                    "velocity": 0.7007874015748031,
                    "duration": 0.1363637499999868
                },
                {
                    "name": "A#4",
                    "midi": 70,
                    "time": 195.95470874999808,
                    "velocity": 0.8346456692913385,
                    "duration": 0.1363637499999868
                },
                {
                    "name": "G#4",
                    "midi": 68,
                    "time": 195.95470874999808,
                    "velocity": 0.7007874015748031,
                    "duration": 0.1363637499999868
                },
                {
                    "name": "F4",
                    "midi": 65,
                    "time": 196.22743624999805,
                    "velocity": 0.6771653543307087,
                    "duration": 0.1363637499999868
                },
                {
                    "name": "G#4",
                    "midi": 68,
                    "time": 196.22743624999805,
                    "velocity": 0.6771653543307087,
                    "duration": 0.1363637499999868
                },
                {
                    "name": "A#4",
                    "midi": 70,
                    "time": 196.22743624999805,
                    "velocity": 0.6771653543307087,
                    "duration": 0.1363637499999868
                },
                {
                    "name": "F5",
                    "midi": 77,
                    "time": 196.22743624999805,
                    "velocity": 0.7952755905511811,
                    "duration": 0.1363637499999868
                },
                {
                    "name": "D#4",
                    "midi": 63,
                    "time": 196.50016374999802,
                    "velocity": 0.6535433070866141,
                    "duration": 0.1363637499999868
                },
                {
                    "name": "G4",
                    "midi": 67,
                    "time": 196.50016374999802,
                    "velocity": 0.7401574803149606,
                    "duration": 0.1363637499999868
                },
                {
                    "name": "D#5",
                    "midi": 75,
                    "time": 196.50016374999802,
                    "velocity": 0.8740157480314961,
                    "duration": 0.1363637499999868
                },
                {
                    "name": "D#4",
                    "midi": 63,
                    "time": 196.772891249998,
                    "velocity": 0.5275590551181102,
                    "duration": 0.0681818749999934
                },
                {
                    "name": "D#5",
                    "midi": 75,
                    "time": 196.772891249998,
                    "velocity": 0.6220472440944882,
                    "duration": 0.0681818749999934
                },
                {
                    "name": "D#4",
                    "midi": 63,
                    "time": 196.90925499999798,
                    "velocity": 0.49606299212598426,
                    "duration": 0.0681818749999934
                },
                {
                    "name": "D#5",
                    "midi": 75,
                    "time": 196.90925499999798,
                    "velocity": 0.5905511811023622,
                    "duration": 0.0681818749999934
                },
                {
                    "name": "D#4",
                    "midi": 63,
                    "time": 197.04561874999797,
                    "velocity": 0.5354330708661418,
                    "duration": 0.272727500000002
                },
                {
                    "name": "D#5",
                    "midi": 75,
                    "time": 197.04561874999797,
                    "velocity": 0.6377952755905512,
                    "duration": 0.272727500000002
                },
                {
                    "name": "D#4",
                    "midi": 63,
                    "time": 197.31834624999797,
                    "velocity": 0.5196850393700787,
                    "duration": 0.0681818749999934
                },
                {
                    "name": "D#5",
                    "midi": 75,
                    "time": 197.31834624999797,
                    "velocity": 0.6141732283464567,
                    "duration": 0.0681818749999934
                },
                {
                    "name": "D#4",
                    "midi": 63,
                    "time": 197.45470999999796,
                    "velocity": 0.4881889763779528,
                    "duration": 0.0681818749999934
                },
                {
                    "name": "D#5",
                    "midi": 75,
                    "time": 197.45470999999796,
                    "velocity": 0.5748031496062992,
                    "duration": 0.0681818749999934
                },
                {
                    "name": "D#4",
                    "midi": 63,
                    "time": 197.59107374999795,
                    "velocity": 0.5275590551181102,
                    "duration": 0.272727500000002
                },
                {
                    "name": "D#5",
                    "midi": 75,
                    "time": 197.59107374999795,
                    "velocity": 0.6220472440944882,
                    "duration": 0.272727500000002
                },
                {
                    "name": "D#4",
                    "midi": 63,
                    "time": 197.86380124999795,
                    "velocity": 0.4881889763779528,
                    "duration": 0.0681818749999934
                },
                {
                    "name": "D#5",
                    "midi": 75,
                    "time": 197.86380124999795,
                    "velocity": 0.5826771653543307,
                    "duration": 0.0681818749999934
                },
                {
                    "name": "D#4",
                    "midi": 63,
                    "time": 198.00016499999793,
                    "velocity": 0.47244094488188976,
                    "duration": 0.0681818749999934
                },
                {
                    "name": "D#5",
                    "midi": 75,
                    "time": 198.00016499999793,
                    "velocity": 0.5590551181102362,
                    "duration": 0.0681818749999934
                },
                {
                    "name": "C#4",
                    "midi": 61,
                    "time": 198.13652874999792,
                    "velocity": 0.4015748031496063,
                    "duration": 0.272727500000002
                },
                {
                    "name": "D#4",
                    "midi": 63,
                    "time": 198.13652874999792,
                    "velocity": 0.4015748031496063,
                    "duration": 0.272727500000002
                },
                {
                    "name": "D#5",
                    "midi": 75,
                    "time": 198.13652874999792,
                    "velocity": 0.6377952755905512,
                    "duration": 0.5454549999999756
                },
                {
                    "name": "D#4",
                    "midi": 63,
                    "time": 198.40925624999792,
                    "velocity": 0.4330708661417323,
                    "duration": 0.0681818749999934
                },
                {
                    "name": "D#4",
                    "midi": 63,
                    "time": 198.5456199999979,
                    "velocity": 0.4251968503937008,
                    "duration": 0.0681818749999934
                },
                {
                    "name": "D#4",
                    "midi": 63,
                    "time": 198.6819837499979,
                    "velocity": 0.4251968503937008,
                    "duration": 0.272727500000002
                },
                {
                    "name": "A#4",
                    "midi": 70,
                    "time": 198.6819837499979,
                    "velocity": 0.5590551181102362,
                    "duration": 0.5454549999999756
                },
                {
                    "name": "D#4",
                    "midi": 63,
                    "time": 198.9547112499979,
                    "velocity": 0.4251968503937008,
                    "duration": 0.0681818749999934
                },
                {
                    "name": "D#4",
                    "midi": 63,
                    "time": 199.0910749999979,
                    "velocity": 0.41732283464566927,
                    "duration": 0.0681818749999934
                },
                {
                    "name": "C4",
                    "midi": 60,
                    "time": 199.22743874999787,
                    "velocity": 0.4566929133858268,
                    "duration": 0.272727500000002
                },
                {
                    "name": "F#4",
                    "midi": 66,
                    "time": 199.22743874999787,
                    "velocity": 0.4566929133858268,
                    "duration": 0.272727500000002
                },
                {
                    "name": "C5",
                    "midi": 72,
                    "time": 199.22743874999787,
                    "velocity": 0.5354330708661418,
                    "duration": 0.272727500000002
                },
                {
                    "name": "F#4",
                    "midi": 66,
                    "time": 199.50016624999787,
                    "velocity": 0.4409448818897638,
                    "duration": 0.1363637499999868
                },
                {
                    "name": "F5",
                    "midi": 77,
                    "time": 199.50016624999787,
                    "velocity": 0.5196850393700787,
                    "duration": 0.1363637499999868
                },
                {
                    "name": "F#4",
                    "midi": 66,
                    "time": 199.63652999999786,
                    "velocity": 0.4251968503937008,
                    "duration": 0.1363637499999868
                },
                {
                    "name": "D#5",
                    "midi": 75,
                    "time": 199.63652999999786,
                    "velocity": 0.5039370078740157,
                    "duration": 0.1363637499999868
                },
                {
                    "name": "F4",
                    "midi": 65,
                    "time": 199.77289374999785,
                    "velocity": 0.44881889763779526,
                    "duration": 0.2727274999999736
                },
                {
                    "name": "D#5",
                    "midi": 75,
                    "time": 199.77289374999785,
                    "velocity": 0.5354330708661418,
                    "duration": 0.1363637499999868
                },
                {
                    "name": "C#5",
                    "midi": 73,
                    "time": 199.90925749999784,
                    "velocity": 0.5039370078740157,
                    "duration": 0.1363637499999868
                },
                {
                    "name": "F4",
                    "midi": 65,
                    "time": 200.04562124999782,
                    "velocity": 0.4251968503937008,
                    "duration": 0.0681818749999934
                },
                {
                    "name": "C#5",
                    "midi": 73,
                    "time": 200.04562124999782,
                    "velocity": 0.5039370078740157,
                    "duration": 0.0681818749999934
                },
                {
                    "name": "F4",
                    "midi": 65,
                    "time": 200.1819849999978,
                    "velocity": 0.3858267716535433,
                    "duration": 0.0681818749999934
                },
                {
                    "name": "C5",
                    "midi": 72,
                    "time": 200.1819849999978,
                    "velocity": 0.4645669291338583,
                    "duration": 0.0681818749999934
                },
                {
                    "name": "F4",
                    "midi": 65,
                    "time": 200.3183487499978,
                    "velocity": 0.4094488188976378,
                    "duration": 0.272727500000002
                },
                {
                    "name": "A#4",
                    "midi": 70,
                    "time": 200.3183487499978,
                    "velocity": 0.4881889763779528,
                    "duration": 0.5454550000000324
                },
                {
                    "name": "F4",
                    "midi": 65,
                    "time": 200.5910762499978,
                    "velocity": 0.41732283464566927,
                    "duration": 0.12272737500001085
                },
                {
                    "name": "F4",
                    "midi": 65,
                    "time": 200.7274399999978,
                    "velocity": 0.41732283464566927,
                    "duration": 0.12272737500001085
                },
                {
                    "name": "C4",
                    "midi": 60,
                    "time": 200.86380374999783,
                    "velocity": 0.4251968503937008,
                    "duration": 0.272727500000002
                },
                {
                    "name": "E4",
                    "midi": 64,
                    "time": 200.86380374999783,
                    "velocity": 0.4251968503937008,
                    "duration": 0.272727500000002
                },
                {
                    "name": "C5",
                    "midi": 72,
                    "time": 200.86380374999783,
                    "velocity": 0.5039370078740157,
                    "duration": 0.5454550000000324
                },
                {
                    "name": "C4",
                    "midi": 60,
                    "time": 201.13653124999783,
                    "velocity": 0.4251968503937008,
                    "duration": 0.12272737500001085
                },
                {
                    "name": "E4",
                    "midi": 64,
                    "time": 201.13653124999783,
                    "velocity": 0.4251968503937008,
                    "duration": 0.12272737500001085
                },
                {
                    "name": "C4",
                    "midi": 60,
                    "time": 201.27289499999785,
                    "velocity": 0.41732283464566927,
                    "duration": 0.12272737500001085
                },
                {
                    "name": "E4",
                    "midi": 64,
                    "time": 201.27289499999785,
                    "velocity": 0.41732283464566927,
                    "duration": 0.12272737500001085
                },
                {
                    "name": "F4",
                    "midi": 65,
                    "time": 201.40925874999786,
                    "velocity": 0.44881889763779526,
                    "duration": 0.2727274999999736
                },
                {
                    "name": "C4",
                    "midi": 60,
                    "time": 201.40925874999786,
                    "velocity": 0.44881889763779526,
                    "duration": 0.2727274999999736
                },
                {
                    "name": "A#4",
                    "midi": 70,
                    "time": 201.40925874999786,
                    "velocity": 0.5354330708661418,
                    "duration": 0.1363637499999868
                },
                {
                    "name": "G#4",
                    "midi": 68,
                    "time": 201.54562249999785,
                    "velocity": 0.5039370078740157,
                    "duration": 0.1363637499999868
                },
                {
                    "name": "C4",
                    "midi": 60,
                    "time": 201.68198624999783,
                    "velocity": 0.4251968503937008,
                    "duration": 0.0681818749999934
                },
                {
                    "name": "G#4",
                    "midi": 68,
                    "time": 201.68198624999783,
                    "velocity": 0.5039370078740157,
                    "duration": 0.0681818749999934
                },
                {
                    "name": "C4",
                    "midi": 60,
                    "time": 201.81834999999782,
                    "velocity": 0.3858267716535433,
                    "duration": 0.0681818749999934
                },
                {
                    "name": "G4",
                    "midi": 67,
                    "time": 201.81834999999782,
                    "velocity": 0.4645669291338583,
                    "duration": 0.0681818749999934
                },
                {
                    "name": "C4",
                    "midi": 60,
                    "time": 201.9547137499978,
                    "velocity": 0.4094488188976378,
                    "duration": 0.272727500000002
                },
                {
                    "name": "F4",
                    "midi": 65,
                    "time": 201.9547137499978,
                    "velocity": 0.4881889763779528,
                    "duration": 0.5454550000000324
                },
                {
                    "name": "C4",
                    "midi": 60,
                    "time": 202.2274412499978,
                    "velocity": 0.3937007874015748,
                    "duration": 0.12272737500001085
                },
                {
                    "name": "D4",
                    "midi": 62,
                    "time": 202.2274412499978,
                    "velocity": 0.3937007874015748,
                    "duration": 0.12272737500001085
                },
                {
                    "name": "C4",
                    "midi": 60,
                    "time": 202.36380499999783,
                    "velocity": 0.3937007874015748,
                    "duration": 0.12272737500001085
                },
                {
                    "name": "D4",
                    "midi": 62,
                    "time": 202.36380499999783,
                    "velocity": 0.3937007874015748,
                    "duration": 0.12272737500001085
                },
                {
                    "name": "B3",
                    "midi": 59,
                    "time": 202.50016874999784,
                    "velocity": 0.4251968503937008,
                    "duration": 0.272727500000002
                },
                {
                    "name": "D4",
                    "midi": 62,
                    "time": 202.50016874999784,
                    "velocity": 0.4251968503937008,
                    "duration": 0.272727500000002
                },
                {
                    "name": "G4",
                    "midi": 67,
                    "time": 202.50016874999784,
                    "velocity": 0.5039370078740157,
                    "duration": 0.5454550000000324
                },
                {
                    "name": "B3",
                    "midi": 59,
                    "time": 202.77289624999784,
                    "velocity": 0.4015748031496063,
                    "duration": 0.12272737500001085
                },
                {
                    "name": "D4",
                    "midi": 62,
                    "time": 202.77289624999784,
                    "velocity": 0.4015748031496063,
                    "duration": 0.12272737500001085
                },
                {
                    "name": "B3",
                    "midi": 59,
                    "time": 202.90925999999786,
                    "velocity": 0.3937007874015748,
                    "duration": 0.12272737500001085
                },
                {
                    "name": "D4",
                    "midi": 62,
                    "time": 202.90925999999786,
                    "velocity": 0.3937007874015748,
                    "duration": 0.12272737500001085
                },
                {
                    "name": "C4",
                    "midi": 60,
                    "time": 203.04562374999787,
                    "velocity": 0.3700787401574803,
                    "duration": 0.2727274999999736
                },
                {
                    "name": "D#4",
                    "midi": 63,
                    "time": 203.04562374999787,
                    "velocity": 0.4409448818897638,
                    "duration": 0.0681818749999934
                },
                {
                    "name": "F4",
                    "midi": 65,
                    "time": 203.11380562499787,
                    "velocity": 0.4409448818897638,
                    "duration": 0.0681818749999934
                },
                {
                    "name": "D#4",
                    "midi": 63,
                    "time": 203.18198749999786,
                    "velocity": 0.4881889763779528,
                    "duration": 0.1363637499999868
                },
                {
                    "name": "B3",
                    "midi": 59,
                    "time": 203.31835124999785,
                    "velocity": 0.3858267716535433,
                    "duration": 0.1363637499999868
                },
                {
                    "name": "D4",
                    "midi": 62,
                    "time": 203.31835124999785,
                    "velocity": 0.4566929133858268,
                    "duration": 0.1363637499999868
                },
                {
                    "name": "C4",
                    "midi": 60,
                    "time": 203.45471499999783,
                    "velocity": 0.3858267716535433,
                    "duration": 0.1363637499999868
                },
                {
                    "name": "D#4",
                    "midi": 63,
                    "time": 203.45471499999783,
                    "velocity": 0.4645669291338583,
                    "duration": 0.1363637499999868
                },
                {
                    "name": "F4",
                    "midi": 65,
                    "time": 203.59107874999782,
                    "velocity": 0.4409448818897638,
                    "duration": 0.0681818749999934
                },
                {
                    "name": "D4",
                    "midi": 62,
                    "time": 203.59107874999782,
                    "velocity": 0.3700787401574803,
                    "duration": 0.2727274999999736
                },
                {
                    "name": "G4",
                    "midi": 67,
                    "time": 203.6592606249978,
                    "velocity": 0.4409448818897638,
                    "duration": 0.0681818749999934
                },
                {
                    "name": "F4",
                    "midi": 65,
                    "time": 203.7274424999978,
                    "velocity": 0.4881889763779528,
                    "duration": 0.1363637499999868
                },
                {
                    "name": "C4",
                    "midi": 60,
                    "time": 203.8638062499978,
                    "velocity": 0.3858267716535433,
                    "duration": 0.1363637499999868
                },
                {
                    "name": "D#4",
                    "midi": 63,
                    "time": 203.8638062499978,
                    "velocity": 0.4566929133858268,
                    "duration": 0.1363637499999868
                },
                {
                    "name": "D4",
                    "midi": 62,
                    "time": 204.00016999999778,
                    "velocity": 0.4645669291338583,
                    "duration": 0.1363637499999868
                },
                {
                    "name": "F4",
                    "midi": 65,
                    "time": 204.00016999999778,
                    "velocity": 0.4645669291338583,
                    "duration": 0.1363637499999868
                },
                {
                    "name": "G3",
                    "midi": 55,
                    "time": 204.13653374999777,
                    "velocity": 0.4251968503937008,
                    "duration": 0.272727500000002
                },
                {
                    "name": "G4",
                    "midi": 67,
                    "time": 204.13653374999777,
                    "velocity": 0.5039370078740157,
                    "duration": 0.5454550000000324
                },
                {
                    "name": "D#4",
                    "midi": 63,
                    "time": 204.13653374999777,
                    "velocity": 0.4251968503937008,
                    "duration": 0.272727500000002
                },
                {
                    "name": "D#4",
                    "midi": 63,
                    "time": 204.40926124999777,
                    "velocity": 0.4015748031496063,
                    "duration": 0.12272737500001085
                },
                {
                    "name": "G3",
                    "midi": 55,
                    "time": 204.40926124999777,
                    "velocity": 0.4015748031496063,
                    "duration": 0.12272737500001085
                },
                {
                    "name": "D#4",
                    "midi": 63,
                    "time": 204.54562499999778,
                    "velocity": 0.3937007874015748,
                    "duration": 0.12272737500001085
                },
                {
                    "name": "G3",
                    "midi": 55,
                    "time": 204.54562499999778,
                    "velocity": 0.3937007874015748,
                    "duration": 0.12272737500001085
                },
                {
                    "name": "D5",
                    "midi": 74,
                    "time": 204.6819887499978,
                    "velocity": 0.4015748031496063,
                    "duration": 0.272727500000002
                },
                {
                    "name": "F4",
                    "midi": 65,
                    "time": 204.6819887499978,
                    "velocity": 0.4015748031496063,
                    "duration": 0.272727500000002
                },
                {
                    "name": "G4",
                    "midi": 67,
                    "time": 204.6819887499978,
                    "velocity": 0.4015748031496063,
                    "duration": 0.272727500000002
                },
                {
                    "name": "G5",
                    "midi": 79,
                    "time": 204.6819887499978,
                    "velocity": 0.6377952755905512,
                    "duration": 0.5454550000000324
                },
                {
                    "name": "G4",
                    "midi": 67,
                    "time": 204.9547162499978,
                    "velocity": 0.4330708661417323,
                    "duration": 0.12272737500001085
                },
                {
                    "name": "F4",
                    "midi": 65,
                    "time": 204.9547162499978,
                    "velocity": 0.4330708661417323,
                    "duration": 0.12272737500001085
                },
                {
                    "name": "G4",
                    "midi": 67,
                    "time": 205.09107999999782,
                    "velocity": 0.4251968503937008,
                    "duration": 0.12272737500001085
                },
                {
                    "name": "F4",
                    "midi": 65,
                    "time": 205.09107999999782,
                    "velocity": 0.4251968503937008,
                    "duration": 0.12272737500001085
                },
                {
                    "name": "G4",
                    "midi": 67,
                    "time": 205.22744374999783,
                    "velocity": 0.4251968503937008,
                    "duration": 0.272727500000002
                },
                {
                    "name": "F4",
                    "midi": 65,
                    "time": 205.22744374999783,
                    "velocity": 0.4251968503937008,
                    "duration": 0.272727500000002
                },
                {
                    "name": "D5",
                    "midi": 74,
                    "time": 205.22744374999783,
                    "velocity": 0.5590551181102362,
                    "duration": 0.5454550000000324
                },
                {
                    "name": "G4",
                    "midi": 67,
                    "time": 205.50017124999783,
                    "velocity": 0.4251968503937008,
                    "duration": 0.12272737500001085
                },
                {
                    "name": "F4",
                    "midi": 65,
                    "time": 205.50017124999783,
                    "velocity": 0.4251968503937008,
                    "duration": 0.12272737500001085
                },
                {
                    "name": "G4",
                    "midi": 67,
                    "time": 205.63653499999785,
                    "velocity": 0.41732283464566927,
                    "duration": 0.12272737500001085
                },
                {
                    "name": "F4",
                    "midi": 65,
                    "time": 205.63653499999785,
                    "velocity": 0.41732283464566927,
                    "duration": 0.12272737500001085
                },
                {
                    "name": "A#4",
                    "midi": 70,
                    "time": 205.77289874999786,
                    "velocity": 0.4566929133858268,
                    "duration": 0.272727500000002
                },
                {
                    "name": "E4",
                    "midi": 64,
                    "time": 205.77289874999786,
                    "velocity": 0.4566929133858268,
                    "duration": 0.272727500000002
                },
                {
                    "name": "C5",
                    "midi": 72,
                    "time": 205.77289874999786,
                    "velocity": 0.4566929133858268,
                    "duration": 0.272727500000002
                },
                {
                    "name": "E5",
                    "midi": 76,
                    "time": 205.77289874999786,
                    "velocity": 0.5354330708661418,
                    "duration": 0.5454550000000324
                },
                {
                    "name": "A#4",
                    "midi": 70,
                    "time": 206.04562624999787,
                    "velocity": 0.4409448818897638,
                    "duration": 0.12272737500001085
                },
                {
                    "name": "E4",
                    "midi": 64,
                    "time": 206.04562624999787,
                    "velocity": 0.4409448818897638,
                    "duration": 0.12272737500001085
                },
                {
                    "name": "C5",
                    "midi": 72,
                    "time": 206.04562624999787,
                    "velocity": 0.4409448818897638,
                    "duration": 0.12272737500001085
                },
                {
                    "name": "A#4",
                    "midi": 70,
                    "time": 206.18198999999788,
                    "velocity": 0.44881889763779526,
                    "duration": 0.12272737500001085
                },
                {
                    "name": "E4",
                    "midi": 64,
                    "time": 206.18198999999788,
                    "velocity": 0.4251968503937008,
                    "duration": 0.12272737500001085
                },
                {
                    "name": "C5",
                    "midi": 72,
                    "time": 206.18198999999788,
                    "velocity": 0.44881889763779526,
                    "duration": 0.12272737500001085
                },
                {
                    "name": "G#4",
                    "midi": 68,
                    "time": 206.3183537499979,
                    "velocity": 0.44881889763779526,
                    "duration": 0.2727274999999736
                },
                {
                    "name": "C5",
                    "midi": 72,
                    "time": 206.3183537499979,
                    "velocity": 0.44881889763779526,
                    "duration": 0.2727274999999736
                },
                {
                    "name": "G5",
                    "midi": 79,
                    "time": 206.3183537499979,
                    "velocity": 0.5354330708661418,
                    "duration": 0.1363637499999868
                },
                {
                    "name": "F5",
                    "midi": 77,
                    "time": 206.45471749999788,
                    "velocity": 0.5039370078740157,
                    "duration": 0.1363637499999868
                },
                {
                    "name": "G#4",
                    "midi": 68,
                    "time": 206.59108124999787,
                    "velocity": 0.4251968503937008,
                    "duration": 0.0681818749999934
                },
                {
                    "name": "C5",
                    "midi": 72,
                    "time": 206.59108124999787,
                    "velocity": 0.4251968503937008,
                    "duration": 0.0681818749999934
                },
                {
                    "name": "F5",
                    "midi": 77,
                    "time": 206.59108124999787,
                    "velocity": 0.5039370078740157,
                    "duration": 0.0681818749999934
                },
                {
                    "name": "G#4",
                    "midi": 68,
                    "time": 206.72744499999786,
                    "velocity": 0.3858267716535433,
                    "duration": 0.0681818749999934
                },
                {
                    "name": "C5",
                    "midi": 72,
                    "time": 206.72744499999786,
                    "velocity": 0.3858267716535433,
                    "duration": 0.0681818749999934
                },
                {
                    "name": "D#5",
                    "midi": 75,
                    "time": 206.72744499999786,
                    "velocity": 0.4645669291338583,
                    "duration": 0.0681818749999934
                },
                {
                    "name": "C5",
                    "midi": 72,
                    "time": 206.86380874999784,
                    "velocity": 0.4094488188976378,
                    "duration": 0.272727500000002
                },
                {
                    "name": "G#4",
                    "midi": 68,
                    "time": 206.86380874999784,
                    "velocity": 0.3464566929133858,
                    "duration": 0.272727500000002
                },
                {
                    "name": "F4",
                    "midi": 65,
                    "time": 206.86380874999784,
                    "velocity": 0.3464566929133858,
                    "duration": 0.272727500000002
                },
                {
                    "name": "D5",
                    "midi": 74,
                    "time": 206.86380874999784,
                    "velocity": 0.4881889763779528,
                    "duration": 0.5454550000000324
                },
                {
                    "name": "C5",
                    "midi": 72,
                    "time": 207.13653624999785,
                    "velocity": 0.41732283464566927,
                    "duration": 0.12272737500001085
                },
                {
                    "name": "G#4",
                    "midi": 68,
                    "time": 207.13653624999785,
                    "velocity": 0.41732283464566927,
                    "duration": 0.12272737500001085
                },
                {
                    "name": "F4",
                    "midi": 65,
                    "time": 207.13653624999785,
                    "velocity": 0.41732283464566927,
                    "duration": 0.12272737500001085
                },
                {
                    "name": "C5",
                    "midi": 72,
                    "time": 207.27289999999786,
                    "velocity": 0.41732283464566927,
                    "duration": 0.12272737500001085
                },
                {
                    "name": "G#4",
                    "midi": 68,
                    "time": 207.27289999999786,
                    "velocity": 0.41732283464566927,
                    "duration": 0.12272737500001085
                },
                {
                    "name": "F4",
                    "midi": 65,
                    "time": 207.27289999999786,
                    "velocity": 0.41732283464566927,
                    "duration": 0.12272737500001085
                },
                {
                    "name": "A#4",
                    "midi": 70,
                    "time": 207.40926374999788,
                    "velocity": 0.4251968503937008,
                    "duration": 0.272727500000002
                },
                {
                    "name": "C5",
                    "midi": 72,
                    "time": 207.40926374999788,
                    "velocity": 0.4251968503937008,
                    "duration": 0.272727500000002
                },
                {
                    "name": "E5",
                    "midi": 76,
                    "time": 207.40926374999788,
                    "velocity": 0.5039370078740157,
                    "duration": 0.5454550000000324
                },
                {
                    "name": "A#4",
                    "midi": 70,
                    "time": 207.68199124999788,
                    "velocity": 0.4251968503937008,
                    "duration": 0.12272737500001085
                },
                {
                    "name": "C5",
                    "midi": 72,
                    "time": 207.68199124999788,
                    "velocity": 0.4251968503937008,
                    "duration": 0.12272737500001085
                },
                {
                    "name": "A#4",
                    "midi": 70,
                    "time": 207.8183549999979,
                    "velocity": 0.41732283464566927,
                    "duration": 0.12272737500001085
                },
                {
                    "name": "C5",
                    "midi": 72,
                    "time": 207.8183549999979,
                    "velocity": 0.41732283464566927,
                    "duration": 0.12272737500001085
                },
                {
                    "name": "G#4",
                    "midi": 68,
                    "time": 207.9547187499979,
                    "velocity": 0.4251968503937008,
                    "duration": 0.2727274999999736
                },
                {
                    "name": "C5",
                    "midi": 72,
                    "time": 207.9547187499979,
                    "velocity": 0.4251968503937008,
                    "duration": 0.2727274999999736
                },
                {
                    "name": "G5",
                    "midi": 79,
                    "time": 207.9547187499979,
                    "velocity": 0.5039370078740157,
                    "duration": 0.1363637499999868
                },
                {
                    "name": "F5",
                    "midi": 77,
                    "time": 208.0910824999979,
                    "velocity": 0.48031496062992124,
                    "duration": 0.1363637499999868
                },
                {
                    "name": "G#4",
                    "midi": 68,
                    "time": 208.22744624999788,
                    "velocity": 0.4015748031496063,
                    "duration": 0.0681818749999934
                },
                {
                    "name": "C5",
                    "midi": 72,
                    "time": 208.22744624999788,
                    "velocity": 0.4015748031496063,
                    "duration": 0.0681818749999934
                },
                {
                    "name": "F5",
                    "midi": 77,
                    "time": 208.22744624999788,
                    "velocity": 0.47244094488188976,
                    "duration": 0.0681818749999934
                },
                {
                    "name": "G#4",
                    "midi": 68,
                    "time": 208.36380999999787,
                    "velocity": 0.3464566929133858,
                    "duration": 0.0681818749999934
                },
                {
                    "name": "C5",
                    "midi": 72,
                    "time": 208.36380999999787,
                    "velocity": 0.3464566929133858,
                    "duration": 0.0681818749999934
                },
                {
                    "name": "D#5",
                    "midi": 75,
                    "time": 208.36380999999787,
                    "velocity": 0.4251968503937008,
                    "duration": 0.0681818749999934
                },
                {
                    "name": "G#4",
                    "midi": 68,
                    "time": 208.50017374999786,
                    "velocity": 0.4015748031496063,
                    "duration": 0.2727274999999736
                },
                {
                    "name": "D#5",
                    "midi": 75,
                    "time": 208.50017374999786,
                    "velocity": 0.48031496062992124,
                    "duration": 0.1363637499999868
                },
                {
                    "name": "D5",
                    "midi": 74,
                    "time": 208.63653749999784,
                    "velocity": 0.4409448818897638,
                    "duration": 0.1363637499999868
                },
                {
                    "name": "F4",
                    "midi": 65,
                    "time": 208.77290124999783,
                    "velocity": 0.36220472440944884,
                    "duration": 0.0681818749999934
                },
                {
                    "name": "G#4",
                    "midi": 68,
                    "time": 208.77290124999783,
                    "velocity": 0.36220472440944884,
                    "duration": 0.0681818749999934
                },
                {
                    "name": "D5",
                    "midi": 74,
                    "time": 208.77290124999783,
                    "velocity": 0.4409448818897638,
                    "duration": 0.0681818749999934
                },
                {
                    "name": "F4",
                    "midi": 65,
                    "time": 208.90926499999782,
                    "velocity": 0.33070866141732286,
                    "duration": 0.0681818749999934
                },
                {
                    "name": "G#4",
                    "midi": 68,
                    "time": 208.90926499999782,
                    "velocity": 0.33070866141732286,
                    "duration": 0.0681818749999934
                },
                {
                    "name": "C5",
                    "midi": 72,
                    "time": 208.90926499999782,
                    "velocity": 0.4015748031496063,
                    "duration": 0.0681818749999934
                },
                {
                    "name": "F4",
                    "midi": 65,
                    "time": 209.0456287499978,
                    "velocity": 0.3858267716535433,
                    "duration": 0.2727274999999736
                },
                {
                    "name": "C5",
                    "midi": 72,
                    "time": 209.0456287499978,
                    "velocity": 0.44881889763779526,
                    "duration": 0.1363637499999868
                },
                {
                    "name": "A#4",
                    "midi": 70,
                    "time": 209.1819924999978,
                    "velocity": 0.41732283464566927,
                    "duration": 0.1363637499999868
                },
                {
                    "name": "D4",
                    "midi": 62,
                    "time": 209.31835624999778,
                    "velocity": 0.33070866141732286,
                    "duration": 0.0681818749999934
                },
                {
                    "name": "F4",
                    "midi": 65,
                    "time": 209.31835624999778,
                    "velocity": 0.33070866141732286,
                    "duration": 0.0681818749999934
                },
                {
                    "name": "A#4",
                    "midi": 70,
                    "time": 209.31835624999778,
                    "velocity": 0.4015748031496063,
                    "duration": 0.0681818749999934
                },
                {
                    "name": "D4",
                    "midi": 62,
                    "time": 209.45471999999776,
                    "velocity": 0.2992125984251969,
                    "duration": 0.0681818749999934
                },
                {
                    "name": "F4",
                    "midi": 65,
                    "time": 209.45471999999776,
                    "velocity": 0.2992125984251969,
                    "duration": 0.0681818749999934
                },
                {
                    "name": "G#4",
                    "midi": 68,
                    "time": 209.45471999999776,
                    "velocity": 0.3543307086614173,
                    "duration": 0.0681818749999934
                },
                {
                    "name": "B3",
                    "midi": 59,
                    "time": 209.59108374999775,
                    "velocity": 0.30708661417322836,
                    "duration": 0.1363637499999868
                },
                {
                    "name": "D4",
                    "midi": 62,
                    "time": 209.59108374999775,
                    "velocity": 0.30708661417322836,
                    "duration": 0.1363637499999868
                },
                {
                    "name": "G4",
                    "midi": 67,
                    "time": 209.59108374999775,
                    "velocity": 0.3700787401574803,
                    "duration": 0.1363637499999868
                },
                {
                    "name": "D#4",
                    "midi": 63,
                    "time": 209.86381124999772,
                    "velocity": 0.25984251968503935,
                    "duration": 0.1363637499999868
                },
                {
                    "name": "C4",
                    "midi": 60,
                    "time": 209.86381124999772,
                    "velocity": 0.25984251968503935,
                    "duration": 0.1363637499999868
                },
                {
                    "name": "G4",
                    "midi": 67,
                    "time": 209.86381124999772,
                    "velocity": 0.30708661417322836,
                    "duration": 0.1363637499999868
                },
                {
                    "name": "C4",
                    "midi": 60,
                    "time": 210.0001749999977,
                    "velocity": 0.25196850393700787,
                    "duration": 0.1363637499999868
                },
                {
                    "name": "A3",
                    "midi": 57,
                    "time": 210.0001749999977,
                    "velocity": 0.25196850393700787,
                    "duration": 0.1363637499999868
                },
                {
                    "name": "G4",
                    "midi": 67,
                    "time": 210.0001749999977,
                    "velocity": 0.2992125984251969,
                    "duration": 0.1363637499999868
                },
                {
                    "name": "B3",
                    "midi": 59,
                    "time": 210.1365387499977,
                    "velocity": 0.2440944881889764,
                    "duration": 0.1363637499999868
                },
                {
                    "name": "D4",
                    "midi": 62,
                    "time": 210.1365387499977,
                    "velocity": 0.2440944881889764,
                    "duration": 0.1363637499999868
                },
                {
                    "name": "G4",
                    "midi": 67,
                    "time": 210.1365387499977,
                    "velocity": 0.3464566929133858,
                    "duration": 0.1363637499999868
                },
                {
                    "name": "D#4",
                    "midi": 63,
                    "time": 210.40926624999767,
                    "velocity": 0.23622047244094488,
                    "duration": 0.1363637499999868
                },
                {
                    "name": "C4",
                    "midi": 60,
                    "time": 210.40926624999767,
                    "velocity": 0.23622047244094488,
                    "duration": 0.1363637499999868
                },
                {
                    "name": "G4",
                    "midi": 67,
                    "time": 210.40926624999767,
                    "velocity": 0.28346456692913385,
                    "duration": 0.1363637499999868
                },
                {
                    "name": "C4",
                    "midi": 60,
                    "time": 210.54562999999766,
                    "velocity": 0.2283464566929134,
                    "duration": 0.1363637499999868
                },
                {
                    "name": "A3",
                    "midi": 57,
                    "time": 210.54562999999766,
                    "velocity": 0.2283464566929134,
                    "duration": 0.1363637499999868
                },
                {
                    "name": "G4",
                    "midi": 67,
                    "time": 210.54562999999766,
                    "velocity": 0.2755905511811024,
                    "duration": 0.1363637499999868
                },
                {
                    "name": "D4",
                    "midi": 62,
                    "time": 210.68199374999764,
                    "velocity": 0.2677165354330709,
                    "duration": 0.1363637499999868
                },
                {
                    "name": "G4",
                    "midi": 67,
                    "time": 210.68199374999764,
                    "velocity": 0.2677165354330709,
                    "duration": 0.1363637499999868
                },
                {
                    "name": "B3",
                    "midi": 59,
                    "time": 210.68199374999764,
                    "velocity": 0.2204724409448819,
                    "duration": 0.1363637499999868
                },
                {
                    "name": "D5",
                    "midi": 74,
                    "time": 210.95472124999762,
                    "velocity": 0.3937007874015748,
                    "duration": 0.4090912499999888
                },
                {
                    "name": "C5",
                    "midi": 72,
                    "time": 211.3638124999976,
                    "velocity": 0.30708661417322836,
                    "duration": 0.1363637499999868
                },
                {
                    "name": "B4",
                    "midi": 71,
                    "time": 211.5001762499976,
                    "velocity": 0.2992125984251969,
                    "duration": 0.1363637499999868
                },
                {
                    "name": "A4",
                    "midi": 69,
                    "time": 211.63653999999758,
                    "velocity": 0.29133858267716534,
                    "duration": 0.1363637499999868
                },
                {
                    "name": "G#4",
                    "midi": 68,
                    "time": 211.77290374999757,
                    "velocity": 0.28346456692913385,
                    "duration": 0.1363637499999868
                },
                {
                    "name": "A4",
                    "midi": 69,
                    "time": 211.90926749999755,
                    "velocity": 0.28346456692913385,
                    "duration": 0.1363637499999868
                },
                {
                    "name": "B4",
                    "midi": 71,
                    "time": 212.04563124999754,
                    "velocity": 0.28346456692913385,
                    "duration": 0.1363637499999868
                },
                {
                    "name": "C5",
                    "midi": 72,
                    "time": 212.18199499999753,
                    "velocity": 0.28346456692913385,
                    "duration": 0.1363637499999868
                },
                {
                    "name": "C#5",
                    "midi": 73,
                    "time": 212.31835874999751,
                    "velocity": 0.28346456692913385,
                    "duration": 0.1363637499999868
                },
                {
                    "name": "D5",
                    "midi": 74,
                    "time": 212.4547224999975,
                    "velocity": 0.28346456692913385,
                    "duration": 0.1363637499999868
                },
                {
                    "name": "G5",
                    "midi": 79,
                    "time": 212.5910862499975,
                    "velocity": 0.31496062992125984,
                    "duration": 0.1363637499999868
                },
                {
                    "name": "E5",
                    "midi": 76,
                    "time": 212.72744999999748,
                    "velocity": 0.28346456692913385,
                    "duration": 0.1363637499999868
                },
                {
                    "name": "C#5",
                    "midi": 73,
                    "time": 212.86381374999746,
                    "velocity": 0.28346456692913385,
                    "duration": 0.1363637499999868
                },
                {
                    "name": "D5",
                    "midi": 74,
                    "time": 213.00017749999745,
                    "velocity": 0.2992125984251969,
                    "duration": 0.1363637499999868
                },
                {
                    "name": "F#5",
                    "midi": 78,
                    "time": 213.13654124999744,
                    "velocity": 0.31496062992125984,
                    "duration": 0.1363637499999868
                },
                {
                    "name": "E5",
                    "midi": 76,
                    "time": 213.27290499999742,
                    "velocity": 0.2992125984251969,
                    "duration": 0.1363637499999868
                },
                {
                    "name": "D5",
                    "midi": 74,
                    "time": 213.4092687499974,
                    "velocity": 0.28346456692913385,
                    "duration": 0.1363637499999868
                },
                {
                    "name": "C5",
                    "midi": 72,
                    "time": 213.5456324999974,
                    "velocity": 0.28346456692913385,
                    "duration": 0.1363637499999868
                },
                {
                    "name": "E4",
                    "midi": 64,
                    "time": 213.68199624999738,
                    "velocity": 0.28346456692913385,
                    "duration": 0.1363637499999868
                },
                {
                    "name": "F#4",
                    "midi": 66,
                    "time": 213.81835999999737,
                    "velocity": 0.28346456692913385,
                    "duration": 0.1363637499999868
                },
                {
                    "name": "G4",
                    "midi": 67,
                    "time": 213.95472374999736,
                    "velocity": 0.25196850393700787,
                    "duration": 0.0340909374999967
                },
                {
                    "name": "A4",
                    "midi": 69,
                    "time": 213.98881468749735,
                    "velocity": 0.25196850393700787,
                    "duration": 0.0340909374999967
                },
                {
                    "name": "G4",
                    "midi": 67,
                    "time": 214.02290562499735,
                    "velocity": 0.28346456692913385,
                    "duration": 0.0681818749999934
                },
                {
                    "name": "F#4",
                    "midi": 66,
                    "time": 214.09108749999734,
                    "velocity": 0.28346456692913385,
                    "duration": 0.1363637499999868
                },
                {
                    "name": "G4",
                    "midi": 67,
                    "time": 214.22745124999733,
                    "velocity": 0.2755905511811024,
                    "duration": 0.1363637499999868
                },
                {
                    "name": "G#4",
                    "midi": 68,
                    "time": 214.36381499999732,
                    "velocity": 0.28346456692913385,
                    "duration": 0.1363637499999868
                },
                {
                    "name": "A4",
                    "midi": 69,
                    "time": 214.5001787499973,
                    "velocity": 0.28346456692913385,
                    "duration": 0.1363637499999868
                },
                {
                    "name": "F#5",
                    "midi": 78,
                    "time": 214.6365424999973,
                    "velocity": 0.31496062992125984,
                    "duration": 0.1363637499999868
                },
                {
                    "name": "E5",
                    "midi": 76,
                    "time": 214.77290624999728,
                    "velocity": 0.29133858267716534,
                    "duration": 0.1363637499999868
                },
                {
                    "name": "D5",
                    "midi": 74,
                    "time": 214.90926999999726,
                    "velocity": 0.28346456692913385,
                    "duration": 0.1363637499999868
                },
                {
                    "name": "C#5",
                    "midi": 73,
                    "time": 215.04563374999725,
                    "velocity": 0.2992125984251969,
                    "duration": 0.1363637499999868
                },
                {
                    "name": "F#5",
                    "midi": 78,
                    "time": 215.18199749999724,
                    "velocity": 0.29133858267716534,
                    "duration": 0.1363637499999868
                },
                {
                    "name": "G5",
                    "midi": 79,
                    "time": 215.31836124999722,
                    "velocity": 0.30708661417322836,
                    "duration": 0.1363637499999868
                },
                {
                    "name": "A5",
                    "midi": 81,
                    "time": 215.4547249999972,
                    "velocity": 0.31496062992125984,
                    "duration": 0.1363637499999868
                },
                {
                    "name": "C6",
                    "midi": 84,
                    "time": 215.5910887499972,
                    "velocity": 0.33070866141732286,
                    "duration": 0.1363637499999868
                },
                {
                    "name": "A#5",
                    "midi": 82,
                    "time": 215.72745249999718,
                    "velocity": 0.31496062992125984,
                    "duration": 0.1363637499999868
                },
                {
                    "name": "G5",
                    "midi": 79,
                    "time": 215.86381624999717,
                    "velocity": 0.2992125984251969,
                    "duration": 0.1363637499999868
                },
                {
                    "name": "C#5",
                    "midi": 73,
                    "time": 216.00017999999716,
                    "velocity": 0.28346456692913385,
                    "duration": 0.1363637499999868
                },
                {
                    "name": "D5",
                    "midi": 74,
                    "time": 216.13654374999714,
                    "velocity": 0.3464566929133858,
                    "duration": 0.2045456250000086
                },
                {
                    "name": "E5",
                    "midi": 76,
                    "time": 216.34108937499715,
                    "velocity": 0.28346456692913385,
                    "duration": 0.0681818749999934
                },
                {
                    "name": "D5",
                    "midi": 74,
                    "time": 216.40927124999715,
                    "velocity": 0.3464566929133858,
                    "duration": 0.2045456250000086
                },
                {
                    "name": "D#5",
                    "midi": 75,
                    "time": 216.61381687499716,
                    "velocity": 0.28346456692913385,
                    "duration": 0.0681818749999934
                },
                {
                    "name": "D5",
                    "midi": 74,
                    "time": 216.68199874999715,
                    "velocity": 0.3464566929133858,
                    "duration": 0.2045456250000086
                },
                {
                    "name": "E5",
                    "midi": 76,
                    "time": 216.88654437499716,
                    "velocity": 0.28346456692913385,
                    "duration": 0.0681818749999934
                },
                {
                    "name": "D5",
                    "midi": 74,
                    "time": 216.95472624999715,
                    "velocity": 0.3464566929133858,
                    "duration": 0.2045456250000086
                },
                {
                    "name": "D#5",
                    "midi": 75,
                    "time": 217.15927187499716,
                    "velocity": 0.28346456692913385,
                    "duration": 0.0681818749999934
                },
                {
                    "name": "D5",
                    "midi": 74,
                    "time": 217.22745374999715,
                    "velocity": 0.3464566929133858,
                    "duration": 0.2045456250000086
                },
                {
                    "name": "E5",
                    "midi": 76,
                    "time": 217.43199937499716,
                    "velocity": 0.28346456692913385,
                    "duration": 0.0681818749999934
                },
                {
                    "name": "D5",
                    "midi": 74,
                    "time": 217.50018124999715,
                    "velocity": 0.3464566929133858,
                    "duration": 0.2045456250000086
                },
                {
                    "name": "D#5",
                    "midi": 75,
                    "time": 217.70472687499716,
                    "velocity": 0.28346456692913385,
                    "duration": 0.0681818749999934
                },
                {
                    "name": "D5",
                    "midi": 74,
                    "time": 217.77290874999716,
                    "velocity": 0.31496062992125984,
                    "duration": 0.1363637499999868
                },
                {
                    "name": "C5",
                    "midi": 72,
                    "time": 217.90927249999714,
                    "velocity": 0.30708661417322836,
                    "duration": 0.1363637499999868
                },
                {
                    "name": "A#4",
                    "midi": 70,
                    "time": 218.04563624999713,
                    "velocity": 0.2992125984251969,
                    "duration": 0.1363637499999868
                },
                {
                    "name": "A4",
                    "midi": 69,
                    "time": 218.18199999999712,
                    "velocity": 0.28346456692913385,
                    "duration": 0.1363637499999868
                },
                {
                    "name": "G#4",
                    "midi": 68,
                    "time": 218.3183637499971,
                    "velocity": 0.28346456692913385,
                    "duration": 0.1363637499999868
                },
                {
                    "name": "A4",
                    "midi": 69,
                    "time": 218.4547274999971,
                    "velocity": 0.28346456692913385,
                    "duration": 0.1363637499999868
                },
                {
                    "name": "A#4",
                    "midi": 70,
                    "time": 218.59109124999708,
                    "velocity": 0.28346456692913385,
                    "duration": 0.1363637499999868
                },
                {
                    "name": "C5",
                    "midi": 72,
                    "time": 218.72745499999706,
                    "velocity": 0.28346456692913385,
                    "duration": 0.1363637499999868
                },
                {
                    "name": "C#5",
                    "midi": 73,
                    "time": 218.86381874999705,
                    "velocity": 0.28346456692913385,
                    "duration": 0.1363637499999868
                },
                {
                    "name": "D5",
                    "midi": 74,
                    "time": 219.00018249999704,
                    "velocity": 0.30708661417322836,
                    "duration": 0.1363637499999868
                },
                {
                    "name": "G5",
                    "midi": 79,
                    "time": 219.13654624999702,
                    "velocity": 0.3700787401574803,
                    "duration": 0.0681818749999934
                },
                {
                    "name": "F#5",
                    "midi": 78,
                    "time": 219.272909999997,
                    "velocity": 0.31496062992125984,
                    "duration": 0.0681818749999934
                },
                {
                    "name": "F5",
                    "midi": 77,
                    "time": 219.409273749997,
                    "velocity": 0.3700787401574803,
                    "duration": 0.0681818749999934
                },
                {
                    "name": "E5",
                    "midi": 76,
                    "time": 219.54563749999699,
                    "velocity": 0.31496062992125984,
                    "duration": 0.0681818749999934
                },
                {
                    "name": "D#5",
                    "midi": 75,
                    "time": 219.68200124999697,
                    "velocity": 0.30708661417322836,
                    "duration": 0.0681818749999934
                },
                {
                    "name": "D5",
                    "midi": 74,
                    "time": 219.81836499999696,
                    "velocity": 0.2992125984251969,
                    "duration": 0.0681818749999934
                },
                {
                    "name": "C#5",
                    "midi": 73,
                    "time": 219.95472874999695,
                    "velocity": 0.28346456692913385,
                    "duration": 0.1363637499999868
                },
                {
                    "name": "C5",
                    "midi": 72,
                    "time": 220.09109249999693,
                    "velocity": 0.28346456692913385,
                    "duration": 0.1363637499999868
                },
                {
                    "name": "A4",
                    "midi": 69,
                    "time": 220.22745624999692,
                    "velocity": 0.28346456692913385,
                    "duration": 0.1363637499999868
                },
                {
                    "name": "A#4",
                    "midi": 70,
                    "time": 220.3638199999969,
                    "velocity": 0.28346456692913385,
                    "duration": 0.1363637499999868
                },
                {
                    "name": "G4",
                    "midi": 67,
                    "time": 220.5001837499969,
                    "velocity": 0.25196850393700787,
                    "duration": 0.0340909374999967
                },
                {
                    "name": "A4",
                    "midi": 69,
                    "time": 220.5342746874969,
                    "velocity": 0.25196850393700787,
                    "duration": 0.0340909374999967
                },
                {
                    "name": "G4",
                    "midi": 67,
                    "time": 220.5683656249969,
                    "velocity": 0.28346456692913385,
                    "duration": 0.0681818749999934
                },
                {
                    "name": "F#4",
                    "midi": 66,
                    "time": 220.63654749999688,
                    "velocity": 0.3228346456692913,
                    "duration": 0.1363637499999868
                },
                {
                    "name": "G4",
                    "midi": 67,
                    "time": 220.77291124999687,
                    "velocity": 0.2755905511811024,
                    "duration": 0.1363637499999868
                },
                {
                    "name": "A4",
                    "midi": 69,
                    "time": 220.90927499999685,
                    "velocity": 0.31496062992125984,
                    "duration": 0.1363637499999868
                },
                {
                    "name": "A#4",
                    "midi": 70,
                    "time": 221.04563874999684,
                    "velocity": 0.3937007874015748,
                    "duration": 0.1363637499999868
                },
                {
                    "name": "A#5",
                    "midi": 82,
                    "time": 221.18200249999683,
                    "velocity": 0.4251968503937008,
                    "duration": 0.1363637499999868
                },
                {
                    "name": "A5",
                    "midi": 81,
                    "time": 221.3183662499968,
                    "velocity": 0.4015748031496063,
                    "duration": 0.1363637499999868
                },
                {
                    "name": "G5",
                    "midi": 79,
                    "time": 221.4547299999968,
                    "velocity": 0.3858267716535433,
                    "duration": 0.1363637499999868
                },
                {
                    "name": "A5",
                    "midi": 81,
                    "time": 221.5910937499968,
                    "velocity": 0.4409448818897638,
                    "duration": 0.1363637499999868
                },
                {
                    "name": "G5",
                    "midi": 79,
                    "time": 221.72745749999677,
                    "velocity": 0.4330708661417323,
                    "duration": 0.1363637499999868
                },
                {
                    "name": "F5",
                    "midi": 77,
                    "time": 221.86382124999676,
                    "velocity": 0.41732283464566927,
                    "duration": 0.1363637499999868
                },
                {
                    "name": "D#5",
                    "midi": 75,
                    "time": 222.00018499999675,
                    "velocity": 0.4015748031496063,
                    "duration": 0.1363637499999868
                },
                {
                    "name": "F5",
                    "midi": 77,
                    "time": 222.13654874999673,
                    "velocity": 0.41732283464566927,
                    "duration": 0.1363637499999868
                },
                {
                    "name": "D#5",
                    "midi": 75,
                    "time": 222.27291249999672,
                    "velocity": 0.4015748031496063,
                    "duration": 0.1363637499999868
                },
                {
                    "name": "A#4",
                    "midi": 70,
                    "time": 222.4092762499967,
                    "velocity": 0.3779527559055118,
                    "duration": 0.1363637499999868
                },
                {
                    "name": "C5",
                    "midi": 72,
                    "time": 222.5456399999967,
                    "velocity": 0.3543307086614173,
                    "duration": 0.1363637499999868
                },
                {
                    "name": "D5",
                    "midi": 74,
                    "time": 222.68200374999668,
                    "velocity": 0.36220472440944884,
                    "duration": 0.0681818749999934
                },
                {
                    "name": "D#5",
                    "midi": 75,
                    "time": 222.75018562499667,
                    "velocity": 0.33858267716535434,
                    "duration": 0.0681818749999934
                },
                {
                    "name": "D5",
                    "midi": 74,
                    "time": 222.81836749999667,
                    "velocity": 0.36220472440944884,
                    "duration": 0.0681818749999934
                },
                {
                    "name": "D#5",
                    "midi": 75,
                    "time": 222.88654937499666,
                    "velocity": 0.3464566929133858,
                    "duration": 0.0681818749999934
                },
                {
                    "name": "D5",
                    "midi": 74,
                    "time": 222.95473124999666,
                    "velocity": 0.36220472440944884,
                    "duration": 0.0681818749999934
                },
                {
                    "name": "D#5",
                    "midi": 75,
                    "time": 223.02291312499665,
                    "velocity": 0.36220472440944884,
                    "duration": 0.0681818749999934
                },
                {
                    "name": "D5",
                    "midi": 74,
                    "time": 223.09109499999664,
                    "velocity": 0.3700787401574803,
                    "duration": 0.045454583333338405
                },
                {
                    "name": "C#5",
                    "midi": 73,
                    "time": 223.13654958332998,
                    "velocity": 0.36220472440944884,
                    "duration": 0.045454583333338405
                },
                {
                    "name": "D5",
                    "midi": 74,
                    "time": 223.18200416666332,
                    "velocity": 0.36220472440944884,
                    "duration": 0.045454583333338405
                },
                {
                    "name": "D#5",
                    "midi": 75,
                    "time": 223.22745874999666,
                    "velocity": 0.3937007874015748,
                    "duration": 0.0681818749999934
                },
                {
                    "name": "F5",
                    "midi": 77,
                    "time": 223.29564062499665,
                    "velocity": 0.3700787401574803,
                    "duration": 0.0681818749999934
                },
                {
                    "name": "D#5",
                    "midi": 75,
                    "time": 223.36382249999664,
                    "velocity": 0.4015748031496063,
                    "duration": 0.0681818749999934
                },
                {
                    "name": "F5",
                    "midi": 77,
                    "time": 223.43200437499664,
                    "velocity": 0.3700787401574803,
                    "duration": 0.0681818749999934
                },
                {
                    "name": "D#5",
                    "midi": 75,
                    "time": 223.50018624999663,
                    "velocity": 0.4094488188976378,
                    "duration": 0.0681818749999934
                },
                {
                    "name": "F5",
                    "midi": 77,
                    "time": 223.56836812499662,
                    "velocity": 0.3858267716535433,
                    "duration": 0.0681818749999934
                },
                {
                    "name": "D#5",
                    "midi": 75,
                    "time": 223.63654999999662,
                    "velocity": 0.4251968503937008,
                    "duration": 0.045454583333338405
                },
                {
                    "name": "D5",
                    "midi": 74,
                    "time": 223.68200458332996,
                    "velocity": 0.4015748031496063,
                    "duration": 0.045454583333338405
                },
                {
                    "name": "D#5",
                    "midi": 75,
                    "time": 223.7274591666633,
                    "velocity": 0.4015748031496063,
                    "duration": 0.045454583333338405
                },
                {
                    "name": "E5",
                    "midi": 76,
                    "time": 223.77291374999663,
                    "velocity": 0.4566929133858268,
                    "duration": 0.0681818749999934
                },
                {
                    "name": "F5",
                    "midi": 77,
                    "time": 223.84109562499663,
                    "velocity": 0.4094488188976378,
                    "duration": 0.0681818749999934
                },
                {
                    "name": "E5",
                    "midi": 76,
                    "time": 223.90927749999662,
                    "velocity": 0.4409448818897638,
                    "duration": 0.0681818749999934
                },
                {
                    "name": "F5",
                    "midi": 77,
                    "time": 223.9774593749966,
                    "velocity": 0.41732283464566927,
                    "duration": 0.0681818749999934
                },
                {
                    "name": "E5",
                    "midi": 76,
                    "time": 224.0456412499966,
                    "velocity": 0.47244094488188976,
                    "duration": 0.0681818749999934
                },
                {
                    "name": "F5",
                    "midi": 77,
                    "time": 224.1138231249966,
                    "velocity": 0.4330708661417323,
                    "duration": 0.0681818749999934
                },
                {
                    "name": "E5",
                    "midi": 76,
                    "time": 224.1820049999966,
                    "velocity": 0.48031496062992124,
                    "duration": 0.045454583333338405
                },
                {
                    "name": "D#5",
                    "midi": 75,
                    "time": 224.22745958332993,
                    "velocity": 0.44881889763779526,
                    "duration": 0.045454583333338405
                },
                {
                    "name": "E5",
                    "midi": 76,
                    "time": 224.27291416666327,
                    "velocity": 0.44881889763779526,
                    "duration": 0.045454583333338405
                },
                {
                    "name": "F5",
                    "midi": 77,
                    "time": 224.3183687499966,
                    "velocity": 0.5039370078740157,
                    "duration": 0.1363637499999868
                },
                {
                    "name": "D#5",
                    "midi": 75,
                    "time": 224.4547324999966,
                    "velocity": 0.4015748031496063,
                    "duration": 0.1363637499999868
                },
                {
                    "name": "C#5",
                    "midi": 73,
                    "time": 224.59109624999658,
                    "velocity": 0.4015748031496063,
                    "duration": 0.1363637499999868
                },
                {
                    "name": "C5",
                    "midi": 72,
                    "time": 224.72745999999657,
                    "velocity": 0.4251968503937008,
                    "duration": 0.1363637499999868
                },
                {
                    "name": "B4",
                    "midi": 71,
                    "time": 224.86382374999656,
                    "velocity": 0.3543307086614173,
                    "duration": 0.1363637499999868
                },
                {
                    "name": "C5",
                    "midi": 72,
                    "time": 225.00018749999654,
                    "velocity": 0.3779527559055118,
                    "duration": 0.1363637499999868
                },
                {
                    "name": "C#5",
                    "midi": 73,
                    "time": 225.13655124999653,
                    "velocity": 0.3543307086614173,
                    "duration": 0.1363637499999868
                },
                {
                    "name": "D#5",
                    "midi": 75,
                    "time": 225.27291499999652,
                    "velocity": 0.36220472440944884,
                    "duration": 0.1363637499999868
                },
                {
                    "name": "E5",
                    "midi": 76,
                    "time": 225.4092787499965,
                    "velocity": 0.4251968503937008,
                    "duration": 0.1363637499999868
                },
                {
                    "name": "F5",
                    "midi": 77,
                    "time": 225.5456424999965,
                    "velocity": 0.3858267716535433,
                    "duration": 0.1363637499999868
                },
                {
                    "name": "A#5",
                    "midi": 82,
                    "time": 225.68200624999648,
                    "velocity": 0.4645669291338583,
                    "duration": 0.1363637499999868
                },
                {
                    "name": "A5",
                    "midi": 81,
                    "time": 225.81836999999646,
                    "velocity": 0.4330708661417323,
                    "duration": 0.1363637499999868
                },
                {
                    "name": "G#5",
                    "midi": 80,
                    "time": 225.95473374999645,
                    "velocity": 0.4645669291338583,
                    "duration": 0.1363637499999868
                },
                {
                    "name": "G5",
                    "midi": 79,
                    "time": 226.09109749999644,
                    "velocity": 0.3779527559055118,
                    "duration": 0.1363637499999868
                },
                {
                    "name": "F#5",
                    "midi": 78,
                    "time": 226.22746124999642,
                    "velocity": 0.4015748031496063,
                    "duration": 0.1363637499999868
                },
                {
                    "name": "F5",
                    "midi": 77,
                    "time": 226.3638249999964,
                    "velocity": 0.4251968503937008,
                    "duration": 0.1363637499999868
                },
                {
                    "name": "E5",
                    "midi": 76,
                    "time": 226.5001887499964,
                    "velocity": 0.3937007874015748,
                    "duration": 0.1363637499999868
                },
                {
                    "name": "D#5",
                    "midi": 75,
                    "time": 226.63655249999638,
                    "velocity": 0.3700787401574803,
                    "duration": 0.1363637499999868
                },
                {
                    "name": "C#5",
                    "midi": 73,
                    "time": 226.77291624999637,
                    "velocity": 0.4015748031496063,
                    "duration": 0.1363637499999868
                },
                {
                    "name": "C5",
                    "midi": 72,
                    "time": 226.90927999999636,
                    "velocity": 0.3858267716535433,
                    "duration": 0.1363637499999868
                },
                {
                    "name": "A#4",
                    "midi": 70,
                    "time": 227.04564374999634,
                    "velocity": 0.3228346456692913,
                    "duration": 0.0340909374999967
                },
                {
                    "name": "C5",
                    "midi": 72,
                    "time": 227.07973468749634,
                    "velocity": 0.3228346456692913,
                    "duration": 0.0340909374999967
                },
                {
                    "name": "A#4",
                    "midi": 70,
                    "time": 227.11382562499634,
                    "velocity": 0.3937007874015748,
                    "duration": 0.0681818749999934
                },
                {
                    "name": "A4",
                    "midi": 69,
                    "time": 227.18200749999633,
                    "velocity": 0.3543307086614173,
                    "duration": 0.1363637499999868
                },
                {
                    "name": "A#4",
                    "midi": 70,
                    "time": 227.31837124999632,
                    "velocity": 0.3937007874015748,
                    "duration": 0.1363637499999868
                },
                {
                    "name": "C5",
                    "midi": 72,
                    "time": 227.4547349999963,
                    "velocity": 0.3543307086614173,
                    "duration": 0.1363637499999868
                },
                {
                    "name": "C#5",
                    "midi": 73,
                    "time": 227.5910987499963,
                    "velocity": 0.3858267716535433,
                    "duration": 0.1363637499999868
                },
                {
                    "name": "C#6",
                    "midi": 85,
                    "time": 227.72746249999628,
                    "velocity": 0.44881889763779526,
                    "duration": 0.1363637499999868
                },
                {
                    "name": "C6",
                    "midi": 84,
                    "time": 227.86382624999627,
                    "velocity": 0.41732283464566927,
                    "duration": 0.1363637499999868
                },
                {
                    "name": "A#5",
                    "midi": 82,
                    "time": 228.00018999999625,
                    "velocity": 0.4015748031496063,
                    "duration": 0.1363637499999868
                },
                {
                    "name": "C6",
                    "midi": 84,
                    "time": 228.13655374999624,
                    "velocity": 0.4409448818897638,
                    "duration": 0.1363637499999868
                },
                {
                    "name": "A#5",
                    "midi": 82,
                    "time": 228.27291749999623,
                    "velocity": 0.4330708661417323,
                    "duration": 0.1363637499999868
                },
                {
                    "name": "G#5",
                    "midi": 80,
                    "time": 228.4092812499962,
                    "velocity": 0.41732283464566927,
                    "duration": 0.1363637499999868
                },
                {
                    "name": "F#5",
                    "midi": 78,
                    "time": 228.5456449999962,
                    "velocity": 0.4015748031496063,
                    "duration": 0.1363637499999868
                },
                {
                    "name": "G#5",
                    "midi": 80,
                    "time": 228.68200874999619,
                    "velocity": 0.41732283464566927,
                    "duration": 0.1363637499999868
                },
                {
                    "name": "F#5",
                    "midi": 78,
                    "time": 228.81837249999617,
                    "velocity": 0.4015748031496063,
                    "duration": 0.1363637499999868
                },
                {
                    "name": "C#5",
                    "midi": 73,
                    "time": 228.95473624999616,
                    "velocity": 0.3779527559055118,
                    "duration": 0.1363637499999868
                },
                {
                    "name": "D#5",
                    "midi": 75,
                    "time": 229.09109999999615,
                    "velocity": 0.3543307086614173,
                    "duration": 0.1363637499999868
                },
                {
                    "name": "F5",
                    "midi": 77,
                    "time": 229.22746374999613,
                    "velocity": 0.36220472440944884,
                    "duration": 0.09090916666667681
                },
                {
                    "name": "F#5",
                    "midi": 78,
                    "time": 229.3183729166628,
                    "velocity": 0.3464566929133858,
                    "duration": 0.09090916666667681
                },
                {
                    "name": "F5",
                    "midi": 77,
                    "time": 229.4092820833295,
                    "velocity": 0.33858267716535434,
                    "duration": 0.09090916666667681
                },
                {
                    "name": "E5",
                    "midi": 76,
                    "time": 229.50019124999616,
                    "velocity": 0.3543307086614173,
                    "duration": 0.09090916666667681
                },
                {
                    "name": "F5",
                    "midi": 77,
                    "time": 229.59110041666284,
                    "velocity": 0.33070866141732286,
                    "duration": 0.09090916666667681
                },
                {
                    "name": "F#5",
                    "midi": 78,
                    "time": 229.68200958332952,
                    "velocity": 0.33858267716535434,
                    "duration": 0.09090916666667681
                },
                {
                    "name": "F5",
                    "midi": 77,
                    "time": 229.7729187499962,
                    "velocity": 0.33858267716535434,
                    "duration": 0.09090916666667681
                },
                {
                    "name": "F#5",
                    "midi": 78,
                    "time": 229.86382791666287,
                    "velocity": 0.33858267716535434,
                    "duration": 0.09090916666667681
                },
                {
                    "name": "F5",
                    "midi": 77,
                    "time": 229.95473708332955,
                    "velocity": 0.3228346456692913,
                    "duration": 0.09090916666667681
                },
                {
                    "name": "E5",
                    "midi": 76,
                    "time": 230.04564624999622,
                    "velocity": 0.33858267716535434,
                    "duration": 0.09090916666667681
                },
                {
                    "name": "F5",
                    "midi": 77,
                    "time": 230.1365554166629,
                    "velocity": 0.31496062992125984,
                    "duration": 0.09090916666667681
                },
                {
                    "name": "F#5",
                    "midi": 78,
                    "time": 230.22746458332958,
                    "velocity": 0.31496062992125984,
                    "duration": 0.09090916666667681
                },
                {
                    "name": "F5",
                    "midi": 77,
                    "time": 230.31837374999625,
                    "velocity": 0.33070866141732286,
                    "duration": 0.09090916666667681
                },
                {
                    "name": "F#5",
                    "midi": 78,
                    "time": 230.40928291666293,
                    "velocity": 0.30708661417322836,
                    "duration": 0.09090916666667681
                },
                {
                    "name": "F5",
                    "midi": 77,
                    "time": 230.5001920833296,
                    "velocity": 0.2992125984251969,
                    "duration": 0.09090916666667681
                },
                {
                    "name": "E5",
                    "midi": 76,
                    "time": 230.59110124999629,
                    "velocity": 0.3228346456692913,
                    "duration": 0.09090916666667681
                },
                {
                    "name": "F5",
                    "midi": 77,
                    "time": 230.68201041666296,
                    "velocity": 0.30708661417322836,
                    "duration": 0.09090916666667681
                },
                {
                    "name": "F#5",
                    "midi": 78,
                    "time": 230.77291958332964,
                    "velocity": 0.2992125984251969,
                    "duration": 0.09090916666667681
                },
                {
                    "name": "F5",
                    "midi": 77,
                    "time": 230.86382874999632,
                    "velocity": 0.33858267716535434,
                    "duration": 0.1363637499999868
                },
                {
                    "name": "D#5",
                    "midi": 75,
                    "time": 231.0001924999963,
                    "velocity": 0.3228346456692913,
                    "duration": 0.1363637499999868
                },
                {
                    "name": "C#5",
                    "midi": 73,
                    "time": 231.1365562499963,
                    "velocity": 0.31496062992125984,
                    "duration": 0.1363637499999868
                },
                {
                    "name": "C5",
                    "midi": 72,
                    "time": 231.27291999999628,
                    "velocity": 0.30708661417322836,
                    "duration": 0.1363637499999868
                },
                {
                    "name": "B4",
                    "midi": 71,
                    "time": 231.40928374999626,
                    "velocity": 0.2992125984251969,
                    "duration": 0.1363637499999868
                },
                {
                    "name": "C5",
                    "midi": 72,
                    "time": 231.54564749999625,
                    "velocity": 0.2992125984251969,
                    "duration": 0.1363637499999868
                },
                {
                    "name": "C#5",
                    "midi": 73,
                    "time": 231.68201124999624,
                    "velocity": 0.2992125984251969,
                    "duration": 0.1363637499999868
                },
                {
                    "name": "D#5",
                    "midi": 75,
                    "time": 231.81837499999622,
                    "velocity": 0.30708661417322836,
                    "duration": 0.1363637499999868
                },
                {
                    "name": "E5",
                    "midi": 76,
                    "time": 231.9547387499962,
                    "velocity": 0.30708661417322836,
                    "duration": 0.1363637499999868
                },
                {
                    "name": "F5",
                    "midi": 77,
                    "time": 232.0911024999962,
                    "velocity": 0.30708661417322836,
                    "duration": 0.1363637499999868
                },
                {
                    "name": "A#5",
                    "midi": 82,
                    "time": 232.22746624999618,
                    "velocity": 0.33858267716535434,
                    "duration": 0.0681818749999934
                },
                {
                    "name": "A5",
                    "midi": 81,
                    "time": 232.43201187499616,
                    "velocity": 0.33070866141732286,
                    "duration": 0.0681818749999934
                },
                {
                    "name": "G#5",
                    "midi": 80,
                    "time": 232.50019374999616,
                    "velocity": 0.3858267716535433,
                    "duration": 0.0681818749999934
                },
                {
                    "name": "G5",
                    "midi": 79,
                    "time": 232.63655749999614,
                    "velocity": 0.33858267716535434,
                    "duration": 0.0681818749999934
                },
                {
                    "name": "F#5",
                    "midi": 78,
                    "time": 232.77292124999613,
                    "velocity": 0.3228346456692913,
                    "duration": 0.0681818749999934
                },
                {
                    "name": "F5",
                    "midi": 77,
                    "time": 232.90928499999612,
                    "velocity": 0.31496062992125984,
                    "duration": 0.0681818749999934
                },
                {
                    "name": "E5",
                    "midi": 76,
                    "time": 233.0456487499961,
                    "velocity": 0.30708661417322836,
                    "duration": 0.1363637499999868
                },
                {
                    "name": "D#5",
                    "midi": 75,
                    "time": 233.1820124999961,
                    "velocity": 0.30708661417322836,
                    "duration": 0.1363637499999868
                },
                {
                    "name": "C5",
                    "midi": 72,
                    "time": 233.31837624999608,
                    "velocity": 0.2992125984251969,
                    "duration": 0.1363637499999868
                },
                {
                    "name": "C#5",
                    "midi": 73,
                    "time": 233.45473999999606,
                    "velocity": 0.2992125984251969,
                    "duration": 0.1363637499999868
                },
                {
                    "name": "A#4",
                    "midi": 70,
                    "time": 233.59110374999605,
                    "velocity": 0.2677165354330709,
                    "duration": 0.0340909374999967
                },
                {
                    "name": "C5",
                    "midi": 72,
                    "time": 233.62519468749605,
                    "velocity": 0.2677165354330709,
                    "duration": 0.0340909374999967
                },
                {
                    "name": "A#4",
                    "midi": 70,
                    "time": 233.65928562499604,
                    "velocity": 0.2992125984251969,
                    "duration": 0.0681818749999934
                },
                {
                    "name": "A4",
                    "midi": 69,
                    "time": 233.72746749999604,
                    "velocity": 0.2992125984251969,
                    "duration": 0.1363637499999868
                },
                {
                    "name": "A#4",
                    "midi": 70,
                    "time": 233.86383124999603,
                    "velocity": 0.29133858267716534,
                    "duration": 0.1363637499999868
                },
                {
                    "name": "C#5",
                    "midi": 73,
                    "time": 234.000194999996,
                    "velocity": 0.2992125984251969,
                    "duration": 0.1363637499999868
                },
                {
                    "name": "C5",
                    "midi": 72,
                    "time": 234.136558749996,
                    "velocity": 0.3700787401574803,
                    "duration": 0.1363637499999868
                },
                {
                    "name": "A#4",
                    "midi": 70,
                    "time": 234.27292249999599,
                    "velocity": 0.3228346456692913,
                    "duration": 0.1363637499999868
                },
                {
                    "name": "G#4",
                    "midi": 68,
                    "time": 234.40928624999597,
                    "velocity": 0.31496062992125984,
                    "duration": 0.1363637499999868
                },
                {
                    "name": "G4",
                    "midi": 67,
                    "time": 234.54564999999596,
                    "velocity": 0.30708661417322836,
                    "duration": 0.1363637499999868
                },
                {
                    "name": "F#4",
                    "midi": 66,
                    "time": 234.68201374999595,
                    "velocity": 0.2992125984251969,
                    "duration": 0.1363637499999868
                },
                {
                    "name": "G4",
                    "midi": 67,
                    "time": 234.81837749999593,
                    "velocity": 0.2992125984251969,
                    "duration": 0.1363637499999868
                },
                {
                    "name": "G#4",
                    "midi": 68,
                    "time": 234.95474124999592,
                    "velocity": 0.2992125984251969,
                    "duration": 0.1363637499999868
                },
                {
                    "name": "A#4",
                    "midi": 70,
                    "time": 235.0911049999959,
                    "velocity": 0.30708661417322836,
                    "duration": 0.1363637499999868
                },
                {
                    "name": "B4",
                    "midi": 71,
                    "time": 235.2274687499959,
                    "velocity": 0.30708661417322836,
                    "duration": 0.1363637499999868
                },
                {
                    "name": "C5",
                    "midi": 72,
                    "time": 235.36383249999588,
                    "velocity": 0.3700787401574803,
                    "duration": 0.1363637499999868
                },
                {
                    "name": "F5",
                    "midi": 77,
                    "time": 235.50019624999587,
                    "velocity": 0.33858267716535434,
                    "duration": 0.1363637499999868
                },
                {
                    "name": "C#5",
                    "midi": 73,
                    "time": 235.63655999999585,
                    "velocity": 0.33070866141732286,
                    "duration": 0.1363637499999868
                },
                {
                    "name": "C5",
                    "midi": 72,
                    "time": 235.77292374999584,
                    "velocity": 0.3700787401574803,
                    "duration": 0.1363637499999868
                },
                {
                    "name": "A#4",
                    "midi": 70,
                    "time": 235.90928749999583,
                    "velocity": 0.3228346456692913,
                    "duration": 0.1363637499999868
                },
                {
                    "name": "G#4",
                    "midi": 68,
                    "time": 236.0456512499958,
                    "velocity": 0.31496062992125984,
                    "duration": 0.1363637499999868
                },
                {
                    "name": "G4",
                    "midi": 67,
                    "time": 236.1820149999958,
                    "velocity": 0.30708661417322836,
                    "duration": 0.1363637499999868
                },
                {
                    "name": "F#4",
                    "midi": 66,
                    "time": 236.3183787499958,
                    "velocity": 0.2992125984251969,
                    "duration": 0.1363637499999868
                },
                {
                    "name": "G4",
                    "midi": 67,
                    "time": 236.45474249999577,
                    "velocity": 0.3543307086614173,
                    "duration": 0.1363637499999868
                },
                {
                    "name": "C5",
                    "midi": 72,
                    "time": 236.59110624999576,
                    "velocity": 0.3700787401574803,
                    "duration": 0.1363637499999868
                },
                {
                    "name": "B4",
                    "midi": 71,
                    "time": 236.72746999999575,
                    "velocity": 0.30708661417322836,
                    "duration": 0.1363637499999868
                },
                {
                    "name": "A#4",
                    "midi": 70,
                    "time": 236.86383374999573,
                    "velocity": 0.30708661417322836,
                    "duration": 0.1363637499999868
                },
                {
                    "name": "G#4",
                    "midi": 68,
                    "time": 237.00019749999572,
                    "velocity": 0.30708661417322836,
                    "duration": 0.1363637499999868
                },
                {
                    "name": "G4",
                    "midi": 67,
                    "time": 237.1365612499957,
                    "velocity": 0.30708661417322836,
                    "duration": 0.1363637499999868
                },
                {
                    "name": "F4",
                    "midi": 65,
                    "time": 237.2729249999957,
                    "velocity": 0.2992125984251969,
                    "duration": 0.1363637499999868
                },
                {
                    "name": "E4",
                    "midi": 64,
                    "time": 237.40928874999568,
                    "velocity": 0.33858267716535434,
                    "duration": 0.1363637499999868
                },
                {
                    "name": "C5",
                    "midi": 72,
                    "time": 237.54565249999567,
                    "velocity": 0.3858267716535433,
                    "duration": 0.1363637499999868
                },
                {
                    "name": "A#4",
                    "midi": 70,
                    "time": 237.68201624999566,
                    "velocity": 0.31496062992125984,
                    "duration": 0.1363637499999868
                },
                {
                    "name": "G#4",
                    "midi": 68,
                    "time": 237.81837999999564,
                    "velocity": 0.30708661417322836,
                    "duration": 0.1363637499999868
                },
                {
                    "name": "F#4",
                    "midi": 66,
                    "time": 237.95474374999563,
                    "velocity": 0.2992125984251969,
                    "duration": 0.1363637499999868
                },
                {
                    "name": "G4",
                    "midi": 67,
                    "time": 238.09110749999562,
                    "velocity": 0.2992125984251969,
                    "duration": 0.1363637499999868
                },
                {
                    "name": "G#4",
                    "midi": 68,
                    "time": 238.2274712499956,
                    "velocity": 0.2992125984251969,
                    "duration": 0.1363637499999868
                },
                {
                    "name": "A#4",
                    "midi": 70,
                    "time": 238.3638349999956,
                    "velocity": 0.30708661417322836,
                    "duration": 0.1363637499999868
                },
                {
                    "name": "B4",
                    "midi": 71,
                    "time": 238.50019874999558,
                    "velocity": 0.30708661417322836,
                    "duration": 0.1363637499999868
                },
                {
                    "name": "C5",
                    "midi": 72,
                    "time": 238.63656249999556,
                    "velocity": 0.3858267716535433,
                    "duration": 0.1363637499999868
                },
                {
                    "name": "F5",
                    "midi": 77,
                    "time": 238.77292624999555,
                    "velocity": 0.33858267716535434,
                    "duration": 0.1363637499999868
                },
                {
                    "name": "C#5",
                    "midi": 73,
                    "time": 238.90928999999554,
                    "velocity": 0.33070866141732286,
                    "duration": 0.1363637499999868
                },
                {
                    "name": "C5",
                    "midi": 72,
                    "time": 239.04565374999552,
                    "velocity": 0.3779527559055118,
                    "duration": 0.1363637499999868
                },
                {
                    "name": "A#4",
                    "midi": 70,
                    "time": 239.1820174999955,
                    "velocity": 0.3228346456692913,
                    "duration": 0.1363637499999868
                },
                {
                    "name": "G#4",
                    "midi": 68,
                    "time": 239.3183812499955,
                    "velocity": 0.31496062992125984,
                    "duration": 0.1363637499999868
                },
                {
                    "name": "G4",
                    "midi": 67,
                    "time": 239.45474499999548,
                    "velocity": 0.30708661417322836,
                    "duration": 0.1363637499999868
                },
                {
                    "name": "F#4",
                    "midi": 66,
                    "time": 239.59110874999547,
                    "velocity": 0.2992125984251969,
                    "duration": 0.1363637499999868
                },
                {
                    "name": "G4",
                    "midi": 67,
                    "time": 239.72747249999546,
                    "velocity": 0.2992125984251969,
                    "duration": 0.1363637499999868
                },
                {
                    "name": "C5",
                    "midi": 72,
                    "time": 239.86383624999544,
                    "velocity": 0.3543307086614173,
                    "duration": 0.1363637499999868
                },
                {
                    "name": "B4",
                    "midi": 71,
                    "time": 240.00019999999543,
                    "velocity": 0.30708661417322836,
                    "duration": 0.1363637499999868
                },
                {
                    "name": "A#4",
                    "midi": 70,
                    "time": 240.13656374999542,
                    "velocity": 0.30708661417322836,
                    "duration": 0.1363637499999868
                },
                {
                    "name": "G#4",
                    "midi": 68,
                    "time": 240.2729274999954,
                    "velocity": 0.30708661417322836,
                    "duration": 0.1363637499999868
                },
                {
                    "name": "G4",
                    "midi": 67,
                    "time": 240.4092912499954,
                    "velocity": 0.30708661417322836,
                    "duration": 0.1363637499999868
                },
                {
                    "name": "F4",
                    "midi": 65,
                    "time": 240.54565499999538,
                    "velocity": 0.2992125984251969,
                    "duration": 0.1363637499999868
                },
                {
                    "name": "E4",
                    "midi": 64,
                    "time": 240.68201874999536,
                    "velocity": 0.33858267716535434,
                    "duration": 0.1363637499999868
                },
                {
                    "name": "C5",
                    "midi": 72,
                    "time": 240.81838249999535,
                    "velocity": 0.36220472440944884,
                    "duration": 0.1363637499999868
                },
                {
                    "name": "A#4",
                    "midi": 70,
                    "time": 240.95474624999534,
                    "velocity": 0.31496062992125984,
                    "duration": 0.1363637499999868
                },
                {
                    "name": "G#4",
                    "midi": 68,
                    "time": 241.09110999999533,
                    "velocity": 0.30708661417322836,
                    "duration": 0.1363637499999868
                },
                {
                    "name": "F#4",
                    "midi": 66,
                    "time": 241.2274737499953,
                    "velocity": 0.2992125984251969,
                    "duration": 0.1363637499999868
                },
                {
                    "name": "G4",
                    "midi": 67,
                    "time": 241.3638374999953,
                    "velocity": 0.2992125984251969,
                    "duration": 0.1363637499999868
                },
                {
                    "name": "G#4",
                    "midi": 68,
                    "time": 241.50020124999529,
                    "velocity": 0.2992125984251969,
                    "duration": 0.1363637499999868
                },
                {
                    "name": "A#4",
                    "midi": 70,
                    "time": 241.63656499999527,
                    "velocity": 0.30708661417322836,
                    "duration": 0.1363637499999868
                },
                {
                    "name": "B4",
                    "midi": 71,
                    "time": 241.77292874999526,
                    "velocity": 0.30708661417322836,
                    "duration": 0.1363637499999868
                },
                {
                    "name": "C5",
                    "midi": 72,
                    "time": 241.90929249999525,
                    "velocity": 0.3858267716535433,
                    "duration": 0.1363637499999868
                },
                {
                    "name": "D#5",
                    "midi": 75,
                    "time": 242.04565624999523,
                    "velocity": 0.33858267716535434,
                    "duration": 0.1363637499999868
                },
                {
                    "name": "C#5",
                    "midi": 73,
                    "time": 242.18201999999522,
                    "velocity": 0.33070866141732286,
                    "duration": 0.1363637499999868
                },
                {
                    "name": "C5",
                    "midi": 72,
                    "time": 242.3183837499952,
                    "velocity": 0.3937007874015748,
                    "duration": 0.1363637499999868
                },
                {
                    "name": "A#4",
                    "midi": 70,
                    "time": 242.4547474999952,
                    "velocity": 0.3228346456692913,
                    "duration": 0.1363637499999868
                },
                {
                    "name": "G#4",
                    "midi": 68,
                    "time": 242.59111124999518,
                    "velocity": 0.31496062992125984,
                    "duration": 0.1363637499999868
                },
                {
                    "name": "G4",
                    "midi": 67,
                    "time": 242.72747499999517,
                    "velocity": 0.30708661417322836,
                    "duration": 0.1363637499999868
                },
                {
                    "name": "F#4",
                    "midi": 66,
                    "time": 242.86383874999515,
                    "velocity": 0.28346456692913385,
                    "duration": 0.1363637499999868
                },
                {
                    "name": "G4",
                    "midi": 67,
                    "time": 243.00020249999514,
                    "velocity": 0.29133858267716534,
                    "duration": 0.1363637499999868
                },
                {
                    "name": "G#4",
                    "midi": 68,
                    "time": 243.13656624999513,
                    "velocity": 0.2992125984251969,
                    "duration": 0.1363637499999868
                },
                {
                    "name": "A#4",
                    "midi": 70,
                    "time": 243.2729299999951,
                    "velocity": 0.30708661417322836,
                    "duration": 0.1363637499999868
                },
                {
                    "name": "B4",
                    "midi": 71,
                    "time": 243.4092937499951,
                    "velocity": 0.30708661417322836,
                    "duration": 0.1363637499999868
                },
                {
                    "name": "C5",
                    "midi": 72,
                    "time": 243.5456574999951,
                    "velocity": 0.3779527559055118,
                    "duration": 0.1363637499999868
                },
                {
                    "name": "C#5",
                    "midi": 73,
                    "time": 243.68202124999507,
                    "velocity": 0.31496062992125984,
                    "duration": 0.1363637499999868
                },
                {
                    "name": "B4",
                    "midi": 71,
                    "time": 243.81838499999506,
                    "velocity": 0.2992125984251969,
                    "duration": 0.1363637499999868
                },
                {
                    "name": "C5",
                    "midi": 72,
                    "time": 243.95474874999505,
                    "velocity": 0.3858267716535433,
                    "duration": 0.1363637499999868
                },
                {
                    "name": "A#4",
                    "midi": 70,
                    "time": 244.09111249999503,
                    "velocity": 0.3228346456692913,
                    "duration": 0.1363637499999868
                },
                {
                    "name": "G#4",
                    "midi": 68,
                    "time": 244.22747624999502,
                    "velocity": 0.31496062992125984,
                    "duration": 0.1363637499999868
                },
                {
                    "name": "G4",
                    "midi": 67,
                    "time": 244.363839999995,
                    "velocity": 0.30708661417322836,
                    "duration": 0.1363637499999868
                },
                {
                    "name": "F#4",
                    "midi": 66,
                    "time": 244.500203749995,
                    "velocity": 0.28346456692913385,
                    "duration": 0.1363637499999868
                },
                {
                    "name": "G4",
                    "midi": 67,
                    "time": 244.63656749999498,
                    "velocity": 0.29133858267716534,
                    "duration": 0.1363637499999868
                },
                {
                    "name": "G#4",
                    "midi": 68,
                    "time": 244.77293124999497,
                    "velocity": 0.2992125984251969,
                    "duration": 0.1363637499999868
                },
                {
                    "name": "A#4",
                    "midi": 70,
                    "time": 244.90929499999496,
                    "velocity": 0.30708661417322836,
                    "duration": 0.1363637499999868
                },
                {
                    "name": "B4",
                    "midi": 71,
                    "time": 245.04565874999494,
                    "velocity": 0.30708661417322836,
                    "duration": 0.1363637499999868
                },
                {
                    "name": "C5",
                    "midi": 72,
                    "time": 245.18202249999493,
                    "velocity": 0.3937007874015748,
                    "duration": 0.1363637499999868
                },
                {
                    "name": "D#5",
                    "midi": 75,
                    "time": 245.31838624999492,
                    "velocity": 0.31496062992125984,
                    "duration": 0.1363637499999868
                },
                {
                    "name": "C#5",
                    "midi": 73,
                    "time": 245.4547499999949,
                    "velocity": 0.2992125984251969,
                    "duration": 0.1363637499999868
                },
                {
                    "name": "C5",
                    "midi": 72,
                    "time": 245.5911137499949,
                    "velocity": 0.3858267716535433,
                    "duration": 0.1363637499999868
                },
                {
                    "name": "A#4",
                    "midi": 70,
                    "time": 245.72747749999488,
                    "velocity": 0.3228346456692913,
                    "duration": 0.1363637499999868
                },
                {
                    "name": "G#4",
                    "midi": 68,
                    "time": 245.86384124999486,
                    "velocity": 0.31496062992125984,
                    "duration": 0.1363637499999868
                },
                {
                    "name": "G4",
                    "midi": 67,
                    "time": 246.00020499999485,
                    "velocity": 0.30708661417322836,
                    "duration": 0.1363637499999868
                },
                {
                    "name": "F#4",
                    "midi": 66,
                    "time": 246.13656874999484,
                    "velocity": 0.28346456692913385,
                    "duration": 0.1363637499999868
                },
                {
                    "name": "G4",
                    "midi": 67,
                    "time": 246.27293249999482,
                    "velocity": 0.29133858267716534,
                    "duration": 0.1363637499999868
                },
                {
                    "name": "G#4",
                    "midi": 68,
                    "time": 246.4092962499948,
                    "velocity": 0.2992125984251969,
                    "duration": 0.1363637499999868
                },
                {
                    "name": "A#4",
                    "midi": 70,
                    "time": 246.5456599999948,
                    "velocity": 0.30708661417322836,
                    "duration": 0.1363637499999868
                },
                {
                    "name": "B4",
                    "midi": 71,
                    "time": 246.68202374999478,
                    "velocity": 0.30708661417322836,
                    "duration": 0.1363637499999868
                },
                {
                    "name": "C5",
                    "midi": 72,
                    "time": 246.81838749999477,
                    "velocity": 0.3937007874015748,
                    "duration": 0.1363637499999868
                },
                {
                    "name": "C#5",
                    "midi": 73,
                    "time": 246.95475124999476,
                    "velocity": 0.31496062992125984,
                    "duration": 0.1363637499999868
                },
                {
                    "name": "B4",
                    "midi": 71,
                    "time": 247.09111499999474,
                    "velocity": 0.2992125984251969,
                    "duration": 0.1363637499999868
                },
                {
                    "name": "C5",
                    "midi": 72,
                    "time": 247.22747874999473,
                    "velocity": 0.3937007874015748,
                    "duration": 0.1363637499999868
                },
                {
                    "name": "A#4",
                    "midi": 70,
                    "time": 247.36384249999472,
                    "velocity": 0.3464566929133858,
                    "duration": 0.1363637499999868
                },
                {
                    "name": "G#4",
                    "midi": 68,
                    "time": 247.5002062499947,
                    "velocity": 0.33858267716535434,
                    "duration": 0.1363637499999868
                },
                {
                    "name": "G4",
                    "midi": 67,
                    "time": 247.6365699999947,
                    "velocity": 0.33070866141732286,
                    "duration": 0.1363637499999868
                },
                {
                    "name": "F#4",
                    "midi": 66,
                    "time": 247.77293374999468,
                    "velocity": 0.3543307086614173,
                    "duration": 0.1363637499999868
                },
                {
                    "name": "G4",
                    "midi": 67,
                    "time": 247.90929749999466,
                    "velocity": 0.36220472440944884,
                    "duration": 0.1363637499999868
                },
                {
                    "name": "G#4",
                    "midi": 68,
                    "time": 248.04566124999465,
                    "velocity": 0.3937007874015748,
                    "duration": 0.1363637499999868
                },
                {
                    "name": "A#4",
                    "midi": 70,
                    "time": 248.18202499999464,
                    "velocity": 0.4330708661417323,
                    "duration": 0.1363637499999868
                },
                {
                    "name": "G#4",
                    "midi": 68,
                    "time": 248.31838874999463,
                    "velocity": 0.44881889763779526,
                    "duration": 0.1363637499999868
                },
                {
                    "name": "G4",
                    "midi": 67,
                    "time": 248.4547524999946,
                    "velocity": 0.44881889763779526,
                    "duration": 0.1363637499999868
                },
                {
                    "name": "F4",
                    "midi": 65,
                    "time": 248.5911162499946,
                    "velocity": 0.44881889763779526,
                    "duration": 0.1363637499999868
                },
                {
                    "name": "E4",
                    "midi": 64,
                    "time": 248.72747999999459,
                    "velocity": 0.4645669291338583,
                    "duration": 0.1363637499999868
                },
                {
                    "name": "D#4",
                    "midi": 63,
                    "time": 248.86384374999457,
                    "velocity": 0.4566929133858268,
                    "duration": 0.1363637499999868
                },
                {
                    "name": "E4",
                    "midi": 64,
                    "time": 249.00020749999456,
                    "velocity": 0.48031496062992124,
                    "duration": 0.1363637499999868
                },
                {
                    "name": "F4",
                    "midi": 65,
                    "time": 249.13657124999455,
                    "velocity": 0.49606299212598426,
                    "duration": 0.1363637499999868
                },
                {
                    "name": "G4",
                    "midi": 67,
                    "time": 249.27293499999453,
                    "velocity": 0.5118110236220472,
                    "duration": 0.1363637499999868
                },
                {
                    "name": "C#4",
                    "midi": 61,
                    "time": 249.40929874999452,
                    "velocity": 0.5826771653543307,
                    "duration": 0.2727274999999736
                },
                {
                    "name": "G4",
                    "midi": 67,
                    "time": 249.5456624999945,
                    "velocity": 0.5196850393700787,
                    "duration": 0.1363637499999868
                },
                {
                    "name": "C4",
                    "midi": 60,
                    "time": 249.6820262499945,
                    "velocity": 0.5590551181102362,
                    "duration": 0.2727274999999736
                },
                {
                    "name": "G4",
                    "midi": 67,
                    "time": 249.81838999999448,
                    "velocity": 0.49606299212598426,
                    "duration": 0.1363637499999868
                },
                {
                    "name": "B3",
                    "midi": 59,
                    "time": 249.95475374999447,
                    "velocity": 0.47244094488188976,
                    "duration": 0.1363637499999868
                },
                {
                    "name": "C4",
                    "midi": 60,
                    "time": 250.09111749999445,
                    "velocity": 0.49606299212598426,
                    "duration": 0.1363637499999868
                },
                {
                    "name": "C#4",
                    "midi": 61,
                    "time": 250.22748124999444,
                    "velocity": 0.5118110236220472,
                    "duration": 0.1363637499999868
                },
                {
                    "name": "D#4",
                    "midi": 63,
                    "time": 250.36384499999443,
                    "velocity": 0.5354330708661418,
                    "duration": 0.1363637499999868
                },
                {
                    "name": "C#4",
                    "midi": 61,
                    "time": 250.5002087499944,
                    "velocity": 0.5511811023622047,
                    "duration": 0.1363637499999868
                },
                {
                    "name": "C4",
                    "midi": 60,
                    "time": 250.6365724999944,
                    "velocity": 0.5354330708661418,
                    "duration": 0.1363637499999868
                },
                {
                    "name": "A#3",
                    "midi": 58,
                    "time": 250.7729362499944,
                    "velocity": 0.5275590551181102,
                    "duration": 0.1363637499999868
                },
                {
                    "name": "G#3",
                    "midi": 56,
                    "time": 250.90929999999437,
                    "velocity": 0.5118110236220472,
                    "duration": 0.1363637499999868
                },
                {
                    "name": "G3",
                    "midi": 55,
                    "time": 251.04566374999436,
                    "velocity": 0.5984251968503937,
                    "duration": 0.4090912499999604
                },
                {
                    "name": "C4",
                    "midi": 60,
                    "time": 251.18202749999435,
                    "velocity": 0.5433070866141733,
                    "duration": 0.1363637499999868
                },
                {
                    "name": "A#3",
                    "midi": 58,
                    "time": 251.31839124999433,
                    "velocity": 0.5511811023622047,
                    "duration": 0.1363637499999868
                },
                {
                    "name": "F#3",
                    "midi": 54,
                    "time": 251.45475499999432,
                    "velocity": 0.5511811023622047,
                    "duration": 0.1363637499999868
                },
                {
                    "name": "F3",
                    "midi": 53,
                    "time": 251.5911187499943,
                    "velocity": 0.5748031496062992,
                    "duration": 0.4090912499999604
                },
                {
                    "name": "C4",
                    "midi": 60,
                    "time": 251.7274824999943,
                    "velocity": 0.5511811023622047,
                    "duration": 0.1363637499999868
                },
                {
                    "name": "A#3",
                    "midi": 58,
                    "time": 251.86384624999428,
                    "velocity": 0.5511811023622047,
                    "duration": 0.1363637499999868
                },
                {
                    "name": "E3",
                    "midi": 52,
                    "time": 252.00020999999427,
                    "velocity": 0.5511811023622047,
                    "duration": 0.1363637499999868
                },
                {
                    "name": "D#3",
                    "midi": 51,
                    "time": 252.13657374999426,
                    "velocity": 0.6220472440944882,
                    "duration": 0.4090912499999604
                },
                {
                    "name": "G#3",
                    "midi": 56,
                    "time": 252.27293749999424,
                    "velocity": 0.5669291338582677,
                    "duration": 0.1363637499999868
                },
                {
                    "name": "G3",
                    "midi": 55,
                    "time": 252.40930124999423,
                    "velocity": 0.5826771653543307,
                    "duration": 0.1363637499999868
                },
                {
                    "name": "D#3",
                    "midi": 51,
                    "time": 252.54566499999422,
                    "velocity": 0.5905511811023622,
                    "duration": 0.1363637499999868
                },
                {
                    "name": "C#3",
                    "midi": 49,
                    "time": 252.6820287499942,
                    "velocity": 0.6456692913385826,
                    "duration": 0.4090912499999604
                },
                {
                    "name": "G3",
                    "midi": 55,
                    "time": 252.8183924999942,
                    "velocity": 0.6141732283464567,
                    "duration": 0.1363637499999868
                },
                {
                    "name": "F3",
                    "midi": 53,
                    "time": 252.95475624999418,
                    "velocity": 0.6377952755905512,
                    "duration": 0.1363637499999868
                },
                {
                    "name": "C#3",
                    "midi": 49,
                    "time": 253.09111999999416,
                    "velocity": 0.6456692913385826,
                    "duration": 0.1363637499999868
                },
                {
                    "name": "C3",
                    "midi": 48,
                    "time": 253.22748374999415,
                    "velocity": 0.6929133858267716,
                    "duration": 0.2727274999999736
                },
                {
                    "name": "D#3",
                    "midi": 51,
                    "time": 253.36384749999414,
                    "velocity": 0.6456692913385826,
                    "duration": 0.1363637499999868
                },
                {
                    "name": "A#2",
                    "midi": 46,
                    "time": 253.50021124999412,
                    "velocity": 0.6614173228346457,
                    "duration": 0.2727274999999736
                },
                {
                    "name": "D#3",
                    "midi": 51,
                    "time": 253.6365749999941,
                    "velocity": 0.6771653543307087,
                    "duration": 0.1363637499999868
                },
                {
                    "name": "F5",
                    "midi": 77,
                    "time": 253.7729387499941,
                    "velocity": 0.6456692913385826,
                    "duration": 0.4090912499999888
                },
                {
                    "name": "C#6",
                    "midi": 85,
                    "time": 253.7729387499941,
                    "velocity": 0.6929133858267716,
                    "duration": 0.4090912499999888
                },
                {
                    "name": "F6",
                    "midi": 89,
                    "time": 253.7729387499941,
                    "velocity": 0.8031496062992126,
                    "duration": 0.4090912499999888
                },
                {
                    "name": "D#5",
                    "midi": 75,
                    "time": 254.18202999999409,
                    "velocity": 0.6220472440944882,
                    "duration": 0.12272737500001085
                },
                {
                    "name": "C6",
                    "midi": 84,
                    "time": 254.18202999999409,
                    "velocity": 0.6220472440944882,
                    "duration": 0.12272737500001085
                },
                {
                    "name": "D#6",
                    "midi": 87,
                    "time": 254.18202999999409,
                    "velocity": 0.7322834645669292,
                    "duration": 0.12272737500001085
                },
                {
                    "name": "D#5",
                    "midi": 75,
                    "time": 254.3183937499941,
                    "velocity": 0.6220472440944882,
                    "duration": 0.272727500000002
                },
                {
                    "name": "C6",
                    "midi": 84,
                    "time": 254.3183937499941,
                    "velocity": 0.6220472440944882,
                    "duration": 0.272727500000002
                },
                {
                    "name": "D#6",
                    "midi": 87,
                    "time": 254.3183937499941,
                    "velocity": 0.7322834645669292,
                    "duration": 0.272727500000002
                },
                {
                    "name": "D#4",
                    "midi": 63,
                    "time": 254.5229393749941,
                    "velocity": 0.5590551181102362,
                    "duration": 0.0681818749999934
                },
                {
                    "name": "D#4",
                    "midi": 63,
                    "time": 254.5911212499941,
                    "velocity": 0.5590551181102362,
                    "duration": 0.05454549999998903
                },
                {
                    "name": "F4",
                    "midi": 65,
                    "time": 254.6456667499941,
                    "velocity": 0.5590551181102362,
                    "duration": 0.05454549999998903
                },
                {
                    "name": "D#4",
                    "midi": 63,
                    "time": 254.70021224999408,
                    "velocity": 0.5590551181102362,
                    "duration": 0.05454549999998903
                },
                {
                    "name": "D4",
                    "midi": 62,
                    "time": 254.75475774999407,
                    "velocity": 0.5590551181102362,
                    "duration": 0.05454549999998903
                },
                {
                    "name": "D#4",
                    "midi": 63,
                    "time": 254.80930324999406,
                    "velocity": 0.5590551181102362,
                    "duration": 0.05454549999998903
                },
                {
                    "name": "G#4",
                    "midi": 68,
                    "time": 254.86384874999405,
                    "velocity": 0.6850393700787402,
                    "duration": 0.1363637499999868
                },
                {
                    "name": "C5",
                    "midi": 72,
                    "time": 255.13657624999402,
                    "velocity": 0.5826771653543307,
                    "duration": 0.1363637499999868
                },
                {
                    "name": "G#5",
                    "midi": 80,
                    "time": 255.13657624999402,
                    "velocity": 0.5826771653543307,
                    "duration": 0.1363637499999868
                },
                {
                    "name": "C6",
                    "midi": 84,
                    "time": 255.13657624999402,
                    "velocity": 0.6929133858267716,
                    "duration": 0.1363637499999868
                },
                {
                    "name": "C#5",
                    "midi": 73,
                    "time": 255.272939999994,
                    "velocity": 0.5748031496062992,
                    "duration": 0.1363637499999868
                },
                {
                    "name": "A#5",
                    "midi": 82,
                    "time": 255.272939999994,
                    "velocity": 0.5748031496062992,
                    "duration": 0.1363637499999868
                },
                {
                    "name": "C#6",
                    "midi": 85,
                    "time": 255.272939999994,
                    "velocity": 0.6771653543307087,
                    "duration": 0.1363637499999868
                },
                {
                    "name": "F5",
                    "midi": 77,
                    "time": 255.409303749994,
                    "velocity": 0.6220472440944882,
                    "duration": 0.1363637499999868
                },
                {
                    "name": "C#6",
                    "midi": 85,
                    "time": 255.409303749994,
                    "velocity": 0.6220472440944882,
                    "duration": 0.1363637499999868
                },
                {
                    "name": "F6",
                    "midi": 89,
                    "time": 255.409303749994,
                    "velocity": 0.7322834645669292,
                    "duration": 0.1363637499999868
                },
                {
                    "name": "D#5",
                    "midi": 75,
                    "time": 255.61384937499398,
                    "velocity": 0.5826771653543307,
                    "duration": 0.061363687500005426
                },
                {
                    "name": "C6",
                    "midi": 84,
                    "time": 255.61384937499398,
                    "velocity": 0.5826771653543307,
                    "duration": 0.061363687500005426
                },
                {
                    "name": "D#6",
                    "midi": 87,
                    "time": 255.61384937499398,
                    "velocity": 0.6929133858267716,
                    "duration": 0.061363687500005426
                },
                {
                    "name": "D#5",
                    "midi": 75,
                    "time": 255.68203124999397,
                    "velocity": 0.5826771653543307,
                    "duration": 0.1363637499999868
                },
                {
                    "name": "C6",
                    "midi": 84,
                    "time": 255.68203124999397,
                    "velocity": 0.5826771653543307,
                    "duration": 0.1363637499999868
                },
                {
                    "name": "D#6",
                    "midi": 87,
                    "time": 255.68203124999397,
                    "velocity": 0.7322834645669292,
                    "duration": 0.1363637499999868
                },
                {
                    "name": "D5",
                    "midi": 74,
                    "time": 255.81839499999396,
                    "velocity": 0.5826771653543307,
                    "duration": 0.1363637499999868
                },
                {
                    "name": "B5",
                    "midi": 83,
                    "time": 255.81839499999396,
                    "velocity": 0.5826771653543307,
                    "duration": 0.1363637499999868
                },
                {
                    "name": "D6",
                    "midi": 86,
                    "time": 255.81839499999396,
                    "velocity": 0.6929133858267716,
                    "duration": 0.1363637499999868
                },
                {
                    "name": "D#5",
                    "midi": 75,
                    "time": 255.95475874999394,
                    "velocity": 0.5826771653543307,
                    "duration": 0.272727500000002
                },
                {
                    "name": "C6",
                    "midi": 84,
                    "time": 255.95475874999394,
                    "velocity": 0.5826771653543307,
                    "duration": 0.272727500000002
                },
                {
                    "name": "D#6",
                    "midi": 87,
                    "time": 255.95475874999394,
                    "velocity": 0.6929133858267716,
                    "duration": 0.272727500000002
                },
                {
                    "name": "D#4",
                    "midi": 63,
                    "time": 256.15930437499395,
                    "velocity": 0.5511811023622047,
                    "duration": 0.0681818749999934
                },
                {
                    "name": "D#4",
                    "midi": 63,
                    "time": 256.22748624999394,
                    "velocity": 0.5511811023622047,
                    "duration": 0.054545500000017455
                },
                {
                    "name": "F4",
                    "midi": 65,
                    "time": 256.28203174999396,
                    "velocity": 0.5511811023622047,
                    "duration": 0.054545500000017455
                },
                {
                    "name": "D#4",
                    "midi": 63,
                    "time": 256.336577249994,
                    "velocity": 0.5511811023622047,
                    "duration": 0.054545500000017455
                },
                {
                    "name": "D4",
                    "midi": 62,
                    "time": 256.391122749994,
                    "velocity": 0.5511811023622047,
                    "duration": 0.054545500000017455
                },
                {
                    "name": "D#4",
                    "midi": 63,
                    "time": 256.445668249994,
                    "velocity": 0.5511811023622047,
                    "duration": 0.054545500000017455
                },
                {
                    "name": "G#4",
                    "midi": 68,
                    "time": 256.50021374999403,
                    "velocity": 0.6850393700787402,
                    "duration": 0.1363637499999868
                },
                {
                    "name": "C6",
                    "midi": 84,
                    "time": 256.772941249994,
                    "velocity": 0.6929133858267716,
                    "duration": 0.1363637499999868
                },
                {
                    "name": "C5",
                    "midi": 72,
                    "time": 256.772941249994,
                    "velocity": 0.5826771653543307,
                    "duration": 0.1363637499999868
                },
                {
                    "name": "G#5",
                    "midi": 80,
                    "time": 256.772941249994,
                    "velocity": 0.5826771653543307,
                    "duration": 0.1363637499999868
                },
                {
                    "name": "C#6",
                    "midi": 85,
                    "time": 256.909304999994,
                    "velocity": 0.6771653543307087,
                    "duration": 0.1363637499999868
                },
                {
                    "name": "C#5",
                    "midi": 73,
                    "time": 256.909304999994,
                    "velocity": 0.5748031496062992,
                    "duration": 0.1363637499999868
                },
                {
                    "name": "A#5",
                    "midi": 82,
                    "time": 256.909304999994,
                    "velocity": 0.5748031496062992,
                    "duration": 0.1363637499999868
                },
                {
                    "name": "C#6",
                    "midi": 85,
                    "time": 257.045668749994,
                    "velocity": 0.6220472440944882,
                    "duration": 0.1363637499999868
                },
                {
                    "name": "F6",
                    "midi": 89,
                    "time": 257.045668749994,
                    "velocity": 0.7322834645669292,
                    "duration": 0.1363637499999868
                },
                {
                    "name": "F5",
                    "midi": 77,
                    "time": 257.045668749994,
                    "velocity": 0.6220472440944882,
                    "duration": 0.1363637499999868
                },
                {
                    "name": "D#5",
                    "midi": 75,
                    "time": 257.18203249999397,
                    "velocity": 0.5826771653543307,
                    "duration": 0.2727274999999736
                },
                {
                    "name": "C6",
                    "midi": 84,
                    "time": 257.18203249999397,
                    "velocity": 0.5826771653543307,
                    "duration": 0.2727274999999736
                },
                {
                    "name": "D#6",
                    "midi": 87,
                    "time": 257.18203249999397,
                    "velocity": 0.6929133858267716,
                    "duration": 0.0681818749999934
                },
                {
                    "name": "F6",
                    "midi": 89,
                    "time": 257.25021437499396,
                    "velocity": 0.6377952755905512,
                    "duration": 0.0681818749999934
                },
                {
                    "name": "D#6",
                    "midi": 87,
                    "time": 257.31839624999395,
                    "velocity": 0.7322834645669292,
                    "duration": 0.1363637499999868
                },
                {
                    "name": "B5",
                    "midi": 83,
                    "time": 257.45475999999394,
                    "velocity": 0.5826771653543307,
                    "duration": 0.1363637499999868
                },
                {
                    "name": "D6",
                    "midi": 86,
                    "time": 257.45475999999394,
                    "velocity": 0.6929133858267716,
                    "duration": 0.1363637499999868
                },
                {
                    "name": "D5",
                    "midi": 74,
                    "time": 257.45475999999394,
                    "velocity": 0.5826771653543307,
                    "duration": 0.1363637499999868
                },
                {
                    "name": "C#6",
                    "midi": 85,
                    "time": 257.5911237499939,
                    "velocity": 0.6220472440944882,
                    "duration": 0.1363637499999868
                },
                {
                    "name": "F6",
                    "midi": 89,
                    "time": 257.5911237499939,
                    "velocity": 0.7322834645669292,
                    "duration": 0.1363637499999868
                },
                {
                    "name": "F5",
                    "midi": 77,
                    "time": 257.5911237499939,
                    "velocity": 0.6220472440944882,
                    "duration": 0.1363637499999868
                },
                {
                    "name": "C6",
                    "midi": 84,
                    "time": 257.7274874999939,
                    "velocity": 0.5826771653543307,
                    "duration": 0.2727274999999736
                },
                {
                    "name": "D#6",
                    "midi": 87,
                    "time": 257.7274874999939,
                    "velocity": 0.6929133858267716,
                    "duration": 0.0681818749999934
                },
                {
                    "name": "D#5",
                    "midi": 75,
                    "time": 257.7274874999939,
                    "velocity": 0.5826771653543307,
                    "duration": 0.2727274999999736
                },
                {
                    "name": "F6",
                    "midi": 89,
                    "time": 257.7956693749939,
                    "velocity": 0.6377952755905512,
                    "duration": 0.0681818749999934
                },
                {
                    "name": "D#6",
                    "midi": 87,
                    "time": 257.8638512499939,
                    "velocity": 0.7322834645669292,
                    "duration": 0.1363637499999868
                },
                {
                    "name": "D5",
                    "midi": 74,
                    "time": 258.0002149999939,
                    "velocity": 0.5826771653543307,
                    "duration": 0.1363637499999868
                },
                {
                    "name": "B5",
                    "midi": 83,
                    "time": 258.0002149999939,
                    "velocity": 0.5826771653543307,
                    "duration": 0.1363637499999868
                },
                {
                    "name": "D6",
                    "midi": 86,
                    "time": 258.0002149999939,
                    "velocity": 0.6929133858267716,
                    "duration": 0.1363637499999868
                },
                {
                    "name": "D#5",
                    "midi": 75,
                    "time": 258.1365787499939,
                    "velocity": 0.5826771653543307,
                    "duration": 0.2045456249999802
                },
                {
                    "name": "C6",
                    "midi": 84,
                    "time": 258.1365787499939,
                    "velocity": 0.5826771653543307,
                    "duration": 0.2045456249999802
                },
                {
                    "name": "D#6",
                    "midi": 87,
                    "time": 258.1365787499939,
                    "velocity": 0.6929133858267716,
                    "duration": 0.2045456249999802
                },
                {
                    "name": "D#5",
                    "midi": 75,
                    "time": 258.34112437499385,
                    "velocity": 0.5669291338582677,
                    "duration": 0.27272750000003043
                },
                {
                    "name": "A#5",
                    "midi": 82,
                    "time": 258.3752153124939,
                    "velocity": 0.5669291338582677,
                    "duration": 0.2386365625000053
                },
                {
                    "name": "F#6",
                    "midi": 90,
                    "time": 258.4093062499939,
                    "velocity": 0.6692913385826772,
                    "duration": 0.2045456249999802
                },
                {
                    "name": "D#5",
                    "midi": 75,
                    "time": 258.6138518749939,
                    "velocity": 0.5511811023622047,
                    "duration": 0.2727275000000873
                },
                {
                    "name": "A5",
                    "midi": 81,
                    "time": 258.6479428124939,
                    "velocity": 0.5511811023622047,
                    "duration": 0.23863656250006215
                },
                {
                    "name": "F6",
                    "midi": 89,
                    "time": 258.68203374999393,
                    "velocity": 0.6535433070866141,
                    "duration": 0.20454562500003703
                },
                {
                    "name": "C5",
                    "midi": 72,
                    "time": 258.85248843749395,
                    "velocity": 0.5511811023622047,
                    "duration": 0.30681843750005555
                },
                {
                    "name": "D#5",
                    "midi": 75,
                    "time": 258.88657937499397,
                    "velocity": 0.5511811023622047,
                    "duration": 0.27272750000003043
                },
                {
                    "name": "F5",
                    "midi": 77,
                    "time": 258.920670312494,
                    "velocity": 0.5511811023622047,
                    "duration": 0.2386365625000053
                },
                {
                    "name": "C6",
                    "midi": 84,
                    "time": 258.954761249994,
                    "velocity": 0.6535433070866141,
                    "duration": 0.2045456249999802
                },
                {
                    "name": "A#4",
                    "midi": 70,
                    "time": 259.159306874994,
                    "velocity": 0.5511811023622047,
                    "duration": 0.27272750000003043
                },
                {
                    "name": "F5",
                    "midi": 77,
                    "time": 259.193397812494,
                    "velocity": 0.5511811023622047,
                    "duration": 0.2386365625000053
                },
                {
                    "name": "C#6",
                    "midi": 85,
                    "time": 259.22748874999405,
                    "velocity": 0.6535433070866141,
                    "duration": 0.2045456249999802
                },
                {
                    "name": "F#5",
                    "midi": 78,
                    "time": 259.500216249994,
                    "velocity": 0.6299212598425197,
                    "duration": 0.09090916666667681
                },
                {
                    "name": "F#4",
                    "midi": 66,
                    "time": 259.5911254166607,
                    "velocity": 0.6299212598425197,
                    "duration": 0.09090916666667681
                },
                {
                    "name": "F#5",
                    "midi": 78,
                    "time": 259.6820345833274,
                    "velocity": 0.6299212598425197,
                    "duration": 0.09090916666667681
                },
                {
                    "name": "F4",
                    "midi": 65,
                    "time": 259.77294374999406,
                    "velocity": 0.5590551181102362,
                    "duration": 0.2727274999999736
                },
                {
                    "name": "F5",
                    "midi": 77,
                    "time": 259.77294374999406,
                    "velocity": 0.6614173228346457,
                    "duration": 0.2727274999999736
                },
                {
                    "name": "C#4",
                    "midi": 61,
                    "time": 260.04567124999403,
                    "velocity": 0.5826771653543307,
                    "duration": 0.2727274999999736
                },
                {
                    "name": "C#5",
                    "midi": 73,
                    "time": 260.04567124999403,
                    "velocity": 0.6220472440944882,
                    "duration": 0.2727274999999736
                },
                {
                    "name": "F#5",
                    "midi": 78,
                    "time": 260.318398749994,
                    "velocity": 0.6456692913385826,
                    "duration": 0.4090912500000172
                },
                {
                    "name": "D#6",
                    "midi": 87,
                    "time": 260.318398749994,
                    "velocity": 0.6456692913385826,
                    "duration": 0.4090912500000172
                },
                {
                    "name": "F#6",
                    "midi": 90,
                    "time": 260.318398749994,
                    "velocity": 0.7637795275590551,
                    "duration": 0.4090912500000172
                },
                {
                    "name": "F5",
                    "midi": 77,
                    "time": 260.727489999994,
                    "velocity": 0.6220472440944882,
                    "duration": 0.12272737500001085
                },
                {
                    "name": "C#6",
                    "midi": 85,
                    "time": 260.727489999994,
                    "velocity": 0.6220472440944882,
                    "duration": 0.12272737500001085
                },
                {
                    "name": "F6",
                    "midi": 89,
                    "time": 260.727489999994,
                    "velocity": 0.7322834645669292,
                    "duration": 0.12272737500001085
                },
                {
                    "name": "F5",
                    "midi": 77,
                    "time": 260.863853749994,
                    "velocity": 0.6220472440944882,
                    "duration": 0.2727274999999736
                },
                {
                    "name": "C#6",
                    "midi": 85,
                    "time": 260.863853749994,
                    "velocity": 0.6220472440944882,
                    "duration": 0.2727274999999736
                },
                {
                    "name": "F6",
                    "midi": 89,
                    "time": 260.863853749994,
                    "velocity": 0.7322834645669292,
                    "duration": 0.2727274999999736
                },
                {
                    "name": "F4",
                    "midi": 65,
                    "time": 261.068399374994,
                    "velocity": 0.5590551181102362,
                    "duration": 0.0681818749999934
                },
                {
                    "name": "F4",
                    "midi": 65,
                    "time": 261.136581249994,
                    "velocity": 0.5590551181102362,
                    "duration": 0.054545500000017455
                },
                {
                    "name": "F#4",
                    "midi": 66,
                    "time": 261.191126749994,
                    "velocity": 0.5590551181102362,
                    "duration": 0.054545500000017455
                },
                {
                    "name": "F4",
                    "midi": 65,
                    "time": 261.245672249994,
                    "velocity": 0.5590551181102362,
                    "duration": 0.054545500000017455
                },
                {
                    "name": "E4",
                    "midi": 64,
                    "time": 261.30021774999403,
                    "velocity": 0.5590551181102362,
                    "duration": 0.054545500000017455
                },
                {
                    "name": "F4",
                    "midi": 65,
                    "time": 261.35476324999405,
                    "velocity": 0.5590551181102362,
                    "duration": 0.054545500000017455
                },
                {
                    "name": "A#4",
                    "midi": 70,
                    "time": 261.40930874999407,
                    "velocity": 0.6850393700787402,
                    "duration": 0.1363637499999868
                },
                {
                    "name": "C#5",
                    "midi": 73,
                    "time": 261.68203624999404,
                    "velocity": 0.5826771653543307,
                    "duration": 0.1363637499999868
                },
                {
                    "name": "C#6",
                    "midi": 85,
                    "time": 261.68203624999404,
                    "velocity": 0.6929133858267716,
                    "duration": 0.1363637499999868
                },
                {
                    "name": "A#5",
                    "midi": 82,
                    "time": 261.68203624999404,
                    "velocity": 0.5826771653543307,
                    "duration": 0.1363637499999868
                },
                {
                    "name": "D#5",
                    "midi": 75,
                    "time": 261.818399999994,
                    "velocity": 0.5748031496062992,
                    "duration": 0.1363637499999868
                },
                {
                    "name": "C6",
                    "midi": 84,
                    "time": 261.818399999994,
                    "velocity": 0.5748031496062992,
                    "duration": 0.1363637499999868
                },
                {
                    "name": "D#6",
                    "midi": 87,
                    "time": 261.818399999994,
                    "velocity": 0.6771653543307087,
                    "duration": 0.1363637499999868
                },
                {
                    "name": "F#6",
                    "midi": 90,
                    "time": 261.954763749994,
                    "velocity": 0.7322834645669292,
                    "duration": 0.1363637499999868
                },
                {
                    "name": "F#5",
                    "midi": 78,
                    "time": 261.954763749994,
                    "velocity": 0.6220472440944882,
                    "duration": 0.1363637499999868
                },
                {
                    "name": "D#6",
                    "midi": 87,
                    "time": 261.954763749994,
                    "velocity": 0.6220472440944882,
                    "duration": 0.1363637499999868
                },
                {
                    "name": "F5",
                    "midi": 77,
                    "time": 262.159309374994,
                    "velocity": 0.5826771653543307,
                    "duration": 0.061363687499977004
                },
                {
                    "name": "C#6",
                    "midi": 85,
                    "time": 262.159309374994,
                    "velocity": 0.5826771653543307,
                    "duration": 0.061363687499977004
                },
                {
                    "name": "F6",
                    "midi": 89,
                    "time": 262.159309374994,
                    "velocity": 0.6929133858267716,
                    "duration": 0.061363687499977004
                },
                {
                    "name": "C#6",
                    "midi": 85,
                    "time": 262.227491249994,
                    "velocity": 0.5826771653543307,
                    "duration": 0.1363637499999868
                },
                {
                    "name": "F5",
                    "midi": 77,
                    "time": 262.227491249994,
                    "velocity": 0.5826771653543307,
                    "duration": 0.1363637499999868
                },
                {
                    "name": "F6",
                    "midi": 89,
                    "time": 262.227491249994,
                    "velocity": 0.7322834645669292,
                    "duration": 0.1363637499999868
                },
                {
                    "name": "E5",
                    "midi": 76,
                    "time": 262.363854999994,
                    "velocity": 0.5826771653543307,
                    "duration": 0.1363637499999868
                },
                {
                    "name": "E6",
                    "midi": 88,
                    "time": 262.363854999994,
                    "velocity": 0.6929133858267716,
                    "duration": 0.1363637499999868
                },
                {
                    "name": "C6",
                    "midi": 84,
                    "time": 262.363854999994,
                    "velocity": 0.5826771653543307,
                    "duration": 0.1363637499999868
                },
                {
                    "name": "F5",
                    "midi": 77,
                    "time": 262.50021874999396,
                    "velocity": 0.6929133858267716,
                    "duration": 0.2727274999999736
                },
                {
                    "name": "C#6",
                    "midi": 85,
                    "time": 262.50021874999396,
                    "velocity": 0.5826771653543307,
                    "duration": 0.2727274999999736
                },
                {
                    "name": "F6",
                    "midi": 89,
                    "time": 262.50021874999396,
                    "velocity": 0.6929133858267716,
                    "duration": 0.2727274999999736
                },
                {
                    "name": "F4",
                    "midi": 65,
                    "time": 262.70476437499394,
                    "velocity": 0.5590551181102362,
                    "duration": 0.0681818749999934
                },
                {
                    "name": "F4",
                    "midi": 65,
                    "time": 262.77294624999394,
                    "velocity": 0.5590551181102362,
                    "duration": 0.054545500000017455
                },
                {
                    "name": "F#4",
                    "midi": 66,
                    "time": 262.82749174999395,
                    "velocity": 0.5590551181102362,
                    "duration": 0.054545500000017455
                },
                {
                    "name": "F4",
                    "midi": 65,
                    "time": 262.88203724999397,
                    "velocity": 0.5590551181102362,
                    "duration": 0.054545500000017455
                },
                {
                    "name": "E4",
                    "midi": 64,
                    "time": 262.936582749994,
                    "velocity": 0.5590551181102362,
                    "duration": 0.054545500000017455
                },
                {
                    "name": "F4",
                    "midi": 65,
                    "time": 262.991128249994,
                    "velocity": 0.5590551181102362,
                    "duration": 0.054545500000017455
                },
                {
                    "name": "A#4",
                    "midi": 70,
                    "time": 263.045673749994,
                    "velocity": 0.6850393700787402,
                    "duration": 0.2727274999999736
                },
                {
                    "name": "G5",
                    "midi": 79,
                    "time": 263.318401249994,
                    "velocity": 0.6377952755905512,
                    "duration": 0.1363637499999868
                },
                {
                    "name": "G6",
                    "midi": 91,
                    "time": 263.318401249994,
                    "velocity": 0.7559055118110236,
                    "duration": 0.1363637499999868
                },
                {
                    "name": "C#6",
                    "midi": 85,
                    "time": 263.318401249994,
                    "velocity": 0.6377952755905512,
                    "duration": 0.1363637499999868
                },
                {
                    "name": "G#5",
                    "midi": 80,
                    "time": 263.454764999994,
                    "velocity": 0.6299212598425197,
                    "duration": 0.1363637499999868
                },
                {
                    "name": "G#6",
                    "midi": 92,
                    "time": 263.454764999994,
                    "velocity": 0.7401574803149606,
                    "duration": 0.1363637499999868
                },
                {
                    "name": "C6",
                    "midi": 84,
                    "time": 263.59112874999397,
                    "velocity": 0.6692913385826772,
                    "duration": 0.1363637499999868
                },
                {
                    "name": "C7",
                    "midi": 96,
                    "time": 263.59112874999397,
                    "velocity": 0.7952755905511811,
                    "duration": 0.1363637499999868
                },
                {
                    "name": "D#6",
                    "midi": 87,
                    "time": 263.72749249999396,
                    "velocity": 0.5826771653543307,
                    "duration": 0.1363637499999868
                },
                {
                    "name": "G6",
                    "midi": 91,
                    "time": 263.72749249999396,
                    "velocity": 0.6929133858267716,
                    "duration": 0.1363637499999868
                },
                {
                    "name": "C7",
                    "midi": 96,
                    "time": 263.86385624999394,
                    "velocity": 0.7322834645669292,
                    "duration": 0.1363637499999868
                },
                {
                    "name": "C6",
                    "midi": 84,
                    "time": 263.86385624999394,
                    "velocity": 0.6220472440944882,
                    "duration": 0.1363637499999868
                },
                {
                    "name": "A#6",
                    "midi": 94,
                    "time": 264.0684018749939,
                    "velocity": 0.7244094488188977,
                    "duration": 0.061363687499977004
                },
                {
                    "name": "A#5",
                    "midi": 82,
                    "time": 264.0684018749939,
                    "velocity": 0.6141732283464567,
                    "duration": 0.061363687499977004
                },
                {
                    "name": "A#5",
                    "midi": 82,
                    "time": 264.1365837499939,
                    "velocity": 0.6377952755905512,
                    "duration": 0.1363637499999868
                },
                {
                    "name": "A#6",
                    "midi": 94,
                    "time": 264.1365837499939,
                    "velocity": 0.7637795275590551,
                    "duration": 0.1363637499999868
                },
                {
                    "name": "C6",
                    "midi": 84,
                    "time": 264.2729474999939,
                    "velocity": 0.5511811023622047,
                    "duration": 0.1363637499999868
                },
                {
                    "name": "D#6",
                    "midi": 87,
                    "time": 264.2729474999939,
                    "velocity": 0.6614173228346457,
                    "duration": 0.1363637499999868
                },
                {
                    "name": "A#6",
                    "midi": 94,
                    "time": 264.4093112499939,
                    "velocity": 0.7086614173228346,
                    "duration": 0.1363637499999868
                },
                {
                    "name": "A#5",
                    "midi": 82,
                    "time": 264.4093112499939,
                    "velocity": 0.5905511811023622,
                    "duration": 0.1363637499999868
                },
                {
                    "name": "G#5",
                    "midi": 80,
                    "time": 264.61385687499387,
                    "velocity": 0.5354330708661418,
                    "duration": 0.061363687499977004
                },
                {
                    "name": "G#6",
                    "midi": 92,
                    "time": 264.61385687499387,
                    "velocity": 0.6299212598425197,
                    "duration": 0.061363687499977004
                },
                {
                    "name": "G#5",
                    "midi": 80,
                    "time": 264.68203874999386,
                    "velocity": 0.6220472440944882,
                    "duration": 0.1363637499999868
                },
                {
                    "name": "G#6",
                    "midi": 92,
                    "time": 264.68203874999386,
                    "velocity": 0.7322834645669292,
                    "duration": 0.1363637499999868
                },
                {
                    "name": "D#6",
                    "midi": 87,
                    "time": 264.81840249999385,
                    "velocity": 0.6220472440944882,
                    "duration": 0.1363637499999868
                },
                {
                    "name": "A#5",
                    "midi": 82,
                    "time": 264.81840249999385,
                    "velocity": 0.5275590551181102,
                    "duration": 0.1363637499999868
                },
                {
                    "name": "G#6",
                    "midi": 92,
                    "time": 264.95476624999384,
                    "velocity": 0.6929133858267716,
                    "duration": 0.1363637499999868
                },
                {
                    "name": "G#5",
                    "midi": 80,
                    "time": 264.95476624999384,
                    "velocity": 0.5826771653543307,
                    "duration": 0.1363637499999868
                },
                {
                    "name": "G6",
                    "midi": 91,
                    "time": 265.1593118749938,
                    "velocity": 0.6220472440944882,
                    "duration": 0.061363687499977004
                },
                {
                    "name": "G5",
                    "midi": 79,
                    "time": 265.1593118749938,
                    "velocity": 0.5275590551181102,
                    "duration": 0.061363687499977004
                },
                {
                    "name": "G5",
                    "midi": 79,
                    "time": 265.2274937499938,
                    "velocity": 0.5905511811023622,
                    "duration": 0.1363637499999868
                },
                {
                    "name": "G6",
                    "midi": 91,
                    "time": 265.2274937499938,
                    "velocity": 0.7086614173228346,
                    "duration": 0.1363637499999868
                },
                {
                    "name": "D6",
                    "midi": 86,
                    "time": 265.3638574999938,
                    "velocity": 0.6141732283464567,
                    "duration": 0.1363637499999868
                },
                {
                    "name": "A#5",
                    "midi": 82,
                    "time": 265.3638574999938,
                    "velocity": 0.5196850393700787,
                    "duration": 0.1363637499999868
                },
                {
                    "name": "G5",
                    "midi": 79,
                    "time": 265.5002212499938,
                    "velocity": 0.5669291338582677,
                    "duration": 0.1363637499999868
                },
                {
                    "name": "G6",
                    "midi": 91,
                    "time": 265.5002212499938,
                    "velocity": 0.6692913385826772,
                    "duration": 0.1363637499999868
                },
                {
                    "name": "F6",
                    "midi": 89,
                    "time": 265.70476687499377,
                    "velocity": 0.6377952755905512,
                    "duration": 0.061363687499977004
                },
                {
                    "name": "F5",
                    "midi": 77,
                    "time": 265.70476687499377,
                    "velocity": 0.5354330708661418,
                    "duration": 0.061363687499977004
                },
                {
                    "name": "F6",
                    "midi": 89,
                    "time": 265.77294874999376,
                    "velocity": 0.6929133858267716,
                    "duration": 0.1363637499999868
                },
                {
                    "name": "F5",
                    "midi": 77,
                    "time": 265.77294874999376,
                    "velocity": 0.5748031496062992,
                    "duration": 0.1363637499999868
                },
                {
                    "name": "A#5",
                    "midi": 82,
                    "time": 265.90931249999375,
                    "velocity": 0.5905511811023622,
                    "duration": 0.1363637499999868
                },
                {
                    "name": "G5",
                    "midi": 79,
                    "time": 265.90931249999375,
                    "velocity": 0.5039370078740157,
                    "duration": 0.1363637499999868
                },
                {
                    "name": "F5",
                    "midi": 77,
                    "time": 266.04567624999373,
                    "velocity": 0.5433070866141733,
                    "duration": 0.1363637499999868
                },
                {
                    "name": "F6",
                    "midi": 89,
                    "time": 266.04567624999373,
                    "velocity": 0.6456692913385826,
                    "duration": 0.1363637499999868
                },
                {
                    "name": "D#5",
                    "midi": 75,
                    "time": 266.2502218749937,
                    "velocity": 0.5039370078740157,
                    "duration": 0.0681818749999934
                },
                {
                    "name": "D#6",
                    "midi": 87,
                    "time": 266.2502218749937,
                    "velocity": 0.5905511811023622,
                    "duration": 0.0681818749999934
                },
                {
                    "name": "C#5",
                    "midi": 73,
                    "time": 266.3184037499937,
                    "velocity": 0.5905511811023622,
                    "duration": 0.1363637499999868
                },
                {
                    "name": "C#6",
                    "midi": 85,
                    "time": 266.3184037499937,
                    "velocity": 0.7086614173228346,
                    "duration": 0.1363637499999868
                },
                {
                    "name": "F5",
                    "midi": 77,
                    "time": 266.4547674999937,
                    "velocity": 0.5039370078740157,
                    "duration": 0.1363637499999868
                },
                {
                    "name": "G#5",
                    "midi": 80,
                    "time": 266.4547674999937,
                    "velocity": 0.5905511811023622,
                    "duration": 0.1363637499999868
                },
                {
                    "name": "C#6",
                    "midi": 85,
                    "time": 266.5911312499937,
                    "velocity": 0.6614173228346457,
                    "duration": 0.1363637499999868
                },
                {
                    "name": "C#5",
                    "midi": 73,
                    "time": 266.5911312499937,
                    "velocity": 0.5511811023622047,
                    "duration": 0.1363637499999868
                },
                {
                    "name": "C6",
                    "midi": 84,
                    "time": 266.79567687499366,
                    "velocity": 0.5590551181102362,
                    "duration": 0.0681818749999934
                },
                {
                    "name": "C5",
                    "midi": 72,
                    "time": 266.79567687499366,
                    "velocity": 0.48031496062992124,
                    "duration": 0.0681818749999934
                },
                {
                    "name": "F4",
                    "midi": 65,
                    "time": 266.86385874999365,
                    "velocity": 0.6929133858267716,
                    "duration": 0.545455000000004
                },
                {
                    "name": "G4",
                    "midi": 67,
                    "time": 267.40931374999366,
                    "velocity": 0.4645669291338583,
                    "duration": 0.0681818749999934
                },
                {
                    "name": "G#4",
                    "midi": 68,
                    "time": 267.47749562499365,
                    "velocity": 0.47244094488188976,
                    "duration": 0.0681818749999934
                },
                {
                    "name": "G4",
                    "midi": 67,
                    "time": 267.54567749999364,
                    "velocity": 0.48031496062992124,
                    "duration": 0.0681818749999934
                },
                {
                    "name": "G#4",
                    "midi": 68,
                    "time": 267.61385937499364,
                    "velocity": 0.48031496062992124,
                    "duration": 0.0681818749999934
                },
                {
                    "name": "F4",
                    "midi": 65,
                    "time": 267.68204124999363,
                    "velocity": 0.4881889763779528,
                    "duration": 0.1363637499999868
                },
                {
                    "name": "G4",
                    "midi": 67,
                    "time": 267.8184049999936,
                    "velocity": 0.5039370078740157,
                    "duration": 0.1363637499999868
                },
                {
                    "name": "G#4",
                    "midi": 68,
                    "time": 267.9547687499936,
                    "velocity": 0.5196850393700787,
                    "duration": 0.0681818749999934
                },
                {
                    "name": "A#4",
                    "midi": 70,
                    "time": 268.0229506249936,
                    "velocity": 0.5275590551181102,
                    "duration": 0.0681818749999934
                },
                {
                    "name": "G#4",
                    "midi": 68,
                    "time": 268.0911324999936,
                    "velocity": 0.5433070866141733,
                    "duration": 0.0681818749999934
                },
                {
                    "name": "A#4",
                    "midi": 70,
                    "time": 268.1593143749936,
                    "velocity": 0.5511811023622047,
                    "duration": 0.0681818749999934
                },
                {
                    "name": "G4",
                    "midi": 67,
                    "time": 268.2274962499936,
                    "velocity": 0.5590551181102362,
                    "duration": 0.1363637499999868
                },
                {
                    "name": "G#4",
                    "midi": 68,
                    "time": 268.36385999999356,
                    "velocity": 0.5748031496062992,
                    "duration": 0.1363637499999868
                },
                {
                    "name": "C#4",
                    "midi": 61,
                    "time": 268.50022374999355,
                    "velocity": 0.3543307086614173,
                    "duration": 0.2727274999999736
                },
                {
                    "name": "G4",
                    "midi": 67,
                    "time": 268.50022374999355,
                    "velocity": 0.4251968503937008,
                    "duration": 0.2727274999999736
                },
                {
                    "name": "A4",
                    "midi": 69,
                    "time": 268.50022374999355,
                    "velocity": 0.6062992125984252,
                    "duration": 0.1363637499999868
                },
                {
                    "name": "A#4",
                    "midi": 70,
                    "time": 268.63658749999354,
                    "velocity": 0.5748031496062992,
                    "duration": 0.1363637499999868
                },
                {
                    "name": "C#4",
                    "midi": 61,
                    "time": 268.7729512499935,
                    "velocity": 0.33858267716535434,
                    "duration": 0.2727274999999736
                },
                {
                    "name": "G4",
                    "midi": 67,
                    "time": 268.7729512499935,
                    "velocity": 0.4015748031496063,
                    "duration": 0.2727274999999736
                },
                {
                    "name": "C5",
                    "midi": 72,
                    "time": 268.7729512499935,
                    "velocity": 0.5748031496062992,
                    "duration": 0.1363637499999868
                },
                {
                    "name": "C#5",
                    "midi": 73,
                    "time": 268.9093149999935,
                    "velocity": 0.5826771653543307,
                    "duration": 0.1363637499999868
                },
                {
                    "name": "C4",
                    "midi": 60,
                    "time": 269.0456787499935,
                    "velocity": 0.44881889763779526,
                    "duration": 0.2727274999999736
                },
                {
                    "name": "G#4",
                    "midi": 68,
                    "time": 269.0456787499935,
                    "velocity": 0.5354330708661418,
                    "duration": 0.2727274999999736
                },
                {
                    "name": "C5",
                    "midi": 72,
                    "time": 269.0456787499935,
                    "velocity": 0.6377952755905512,
                    "duration": 0.2727274999999736
                },
                {
                    "name": "F5",
                    "midi": 77,
                    "time": 269.3184062499935,
                    "velocity": 0.6535433070866141,
                    "duration": 0.2045456249999802
                },
                {
                    "name": "B3",
                    "midi": 59,
                    "time": 269.3184062499935,
                    "velocity": 0.5511811023622047,
                    "duration": 0.2045456249999802
                },
                {
                    "name": "D4",
                    "midi": 62,
                    "time": 269.3184062499935,
                    "velocity": 0.5511811023622047,
                    "duration": 0.2045456249999802
                },
                {
                    "name": "F4",
                    "midi": 65,
                    "time": 269.3184062499935,
                    "velocity": 0.5511811023622047,
                    "duration": 0.2045456249999802
                },
                {
                    "name": "G#4",
                    "midi": 68,
                    "time": 269.3184062499935,
                    "velocity": 0.5511811023622047,
                    "duration": 0.2045456249999802
                },
                {
                    "name": "D#4",
                    "midi": 63,
                    "time": 269.52295187499345,
                    "velocity": 0.49606299212598426,
                    "duration": 0.061363687499977004
                },
                {
                    "name": "C4",
                    "midi": 60,
                    "time": 269.52295187499345,
                    "velocity": 0.49606299212598426,
                    "duration": 0.061363687499977004
                },
                {
                    "name": "D#5",
                    "midi": 75,
                    "time": 269.52295187499345,
                    "velocity": 0.5905511811023622,
                    "duration": 0.061363687499977004
                },
                {
                    "name": "G#4",
                    "midi": 68,
                    "time": 269.52295187499345,
                    "velocity": 0.49606299212598426,
                    "duration": 0.061363687499977004
                },
                {
                    "name": "C4",
                    "midi": 60,
                    "time": 269.59113374999345,
                    "velocity": 0.5590551181102362,
                    "duration": 0.1363637499999868
                },
                {
                    "name": "D#5",
                    "midi": 75,
                    "time": 269.59113374999345,
                    "velocity": 0.6614173228346457,
                    "duration": 0.1363637499999868
                },
                {
                    "name": "D#4",
                    "midi": 63,
                    "time": 269.59113374999345,
                    "velocity": 0.5590551181102362,
                    "duration": 0.1363637499999868
                },
                {
                    "name": "G#4",
                    "midi": 68,
                    "time": 269.59113374999345,
                    "velocity": 0.5590551181102362,
                    "duration": 0.1363637499999868
                },
                {
                    "name": "G#4",
                    "midi": 68,
                    "time": 269.72749749999343,
                    "velocity": 0.6220472440944882,
                    "duration": 0.2727274999999736
                },
                {
                    "name": "G#5",
                    "midi": 80,
                    "time": 269.8638612499934,
                    "velocity": 0.6535433070866141,
                    "duration": 0.1363637499999868
                },
                {
                    "name": "G4",
                    "midi": 67,
                    "time": 270.0684068749934,
                    "velocity": 0.5039370078740157,
                    "duration": 0.0681818749999934
                },
                {
                    "name": "G5",
                    "midi": 79,
                    "time": 270.0684068749934,
                    "velocity": 0.6062992125984252,
                    "duration": 0.0681818749999934
                },
                {
                    "name": "F4",
                    "midi": 65,
                    "time": 270.1365887499934,
                    "velocity": 0.5039370078740157,
                    "duration": 0.545455000000004
                },
                {
                    "name": "F5",
                    "midi": 77,
                    "time": 270.1365887499934,
                    "velocity": 0.6062992125984252,
                    "duration": 0.545455000000004
                },
                {
                    "name": "G4",
                    "midi": 67,
                    "time": 270.6820437499934,
                    "velocity": 0.5511811023622047,
                    "duration": 0.1363637499999868
                },
                {
                    "name": "G5",
                    "midi": 79,
                    "time": 270.8184074999934,
                    "velocity": 0.5590551181102362,
                    "duration": 0.045454583333309984
                },
                {
                    "name": "G#5",
                    "midi": 80,
                    "time": 270.8638620833267,
                    "velocity": 0.5669291338582677,
                    "duration": 0.045454583333309984
                },
                {
                    "name": "G5",
                    "midi": 79,
                    "time": 270.90931666666,
                    "velocity": 0.5590551181102362,
                    "duration": 0.045454583333309984
                },
                {
                    "name": "F4",
                    "midi": 65,
                    "time": 270.9547712499933,
                    "velocity": 0.48031496062992124,
                    "duration": 0.1363637499999868
                },
                {
                    "name": "F5",
                    "midi": 77,
                    "time": 270.9547712499933,
                    "velocity": 0.5669291338582677,
                    "duration": 0.1363637499999868
                },
                {
                    "name": "G4",
                    "midi": 67,
                    "time": 271.0911349999933,
                    "velocity": 0.48031496062992124,
                    "duration": 0.1363637499999868
                },
                {
                    "name": "G5",
                    "midi": 79,
                    "time": 271.0911349999933,
                    "velocity": 0.5748031496062992,
                    "duration": 0.1363637499999868
                },
                {
                    "name": "G#4",
                    "midi": 68,
                    "time": 271.2274987499933,
                    "velocity": 0.5511811023622047,
                    "duration": 0.1363637499999868
                },
                {
                    "name": "G#5",
                    "midi": 80,
                    "time": 271.3638624999933,
                    "velocity": 0.5590551181102362,
                    "duration": 0.045454583333309984
                },
                {
                    "name": "A#5",
                    "midi": 82,
                    "time": 271.4093170833266,
                    "velocity": 0.5590551181102362,
                    "duration": 0.045454583333309984
                },
                {
                    "name": "G#5",
                    "midi": 80,
                    "time": 271.4547716666599,
                    "velocity": 0.5590551181102362,
                    "duration": 0.045454583333309984
                },
                {
                    "name": "G4",
                    "midi": 67,
                    "time": 271.5002262499932,
                    "velocity": 0.5196850393700787,
                    "duration": 0.1363637499999868
                },
                {
                    "name": "G5",
                    "midi": 79,
                    "time": 271.5002262499932,
                    "velocity": 0.6141732283464567,
                    "duration": 0.1363637499999868
                },
                {
                    "name": "G#4",
                    "midi": 68,
                    "time": 271.6365899999932,
                    "velocity": 0.5275590551181102,
                    "duration": 0.1363637499999868
                },
                {
                    "name": "G#5",
                    "midi": 80,
                    "time": 271.6365899999932,
                    "velocity": 0.6220472440944882,
                    "duration": 0.1363637499999868
                },
                {
                    "name": "A4",
                    "midi": 69,
                    "time": 271.7729537499932,
                    "velocity": 0.3858267716535433,
                    "duration": 0.1363637499999868
                },
                {
                    "name": "D#5",
                    "midi": 75,
                    "time": 271.7729537499932,
                    "velocity": 0.5433070866141733,
                    "duration": 0.1363637499999868
                },
                {
                    "name": "A5",
                    "midi": 81,
                    "time": 271.7729537499932,
                    "velocity": 0.6456692913385826,
                    "duration": 0.1363637499999868
                },
                {
                    "name": "A#4",
                    "midi": 70,
                    "time": 271.90931749999316,
                    "velocity": 0.5433070866141733,
                    "duration": 0.1363637499999868
                },
                {
                    "name": "A#5",
                    "midi": 82,
                    "time": 271.90931749999316,
                    "velocity": 0.6062992125984252,
                    "duration": 0.1363637499999868
                },
                {
                    "name": "C5",
                    "midi": 72,
                    "time": 272.04568124999315,
                    "velocity": 0.3543307086614173,
                    "duration": 0.1363637499999868
                },
                {
                    "name": "G5",
                    "midi": 79,
                    "time": 272.04568124999315,
                    "velocity": 0.5039370078740157,
                    "duration": 0.1363637499999868
                },
                {
                    "name": "C6",
                    "midi": 84,
                    "time": 272.04568124999315,
                    "velocity": 0.6062992125984252,
                    "duration": 0.1363637499999868
                },
                {
                    "name": "C#5",
                    "midi": 73,
                    "time": 272.18204499999314,
                    "velocity": 0.5039370078740157,
                    "duration": 0.1363637499999868
                },
                {
                    "name": "C#6",
                    "midi": 85,
                    "time": 272.18204499999314,
                    "velocity": 0.6062992125984252,
                    "duration": 0.1363637499999868
                },
                {
                    "name": "C5",
                    "midi": 72,
                    "time": 272.3184087499931,
                    "velocity": 0.5433070866141733,
                    "duration": 0.1363637499999868
                },
                {
                    "name": "G#5",
                    "midi": 80,
                    "time": 272.3184087499931,
                    "velocity": 0.5433070866141733,
                    "duration": 0.1363637499999868
                },
                {
                    "name": "C6",
                    "midi": 84,
                    "time": 272.3184087499931,
                    "velocity": 0.6456692913385826,
                    "duration": 0.1363637499999868
                },
                {
                    "name": "F5",
                    "midi": 77,
                    "time": 272.5911362499931,
                    "velocity": 0.5511811023622047,
                    "duration": 0.2045456249999802
                },
                {
                    "name": "G#5",
                    "midi": 80,
                    "time": 272.5911362499931,
                    "velocity": 0.5511811023622047,
                    "duration": 0.2045456249999802
                },
                {
                    "name": "F6",
                    "midi": 89,
                    "time": 272.5911362499931,
                    "velocity": 0.6535433070866141,
                    "duration": 0.2045456249999802
                },
                {
                    "name": "D#5",
                    "midi": 75,
                    "time": 272.7956818749931,
                    "velocity": 0.49606299212598426,
                    "duration": 0.061363687499977004
                },
                {
                    "name": "G#5",
                    "midi": 80,
                    "time": 272.7956818749931,
                    "velocity": 0.49606299212598426,
                    "duration": 0.061363687499977004
                },
                {
                    "name": "D#6",
                    "midi": 87,
                    "time": 272.7956818749931,
                    "velocity": 0.5905511811023622,
                    "duration": 0.061363687499977004
                },
                {
                    "name": "D#5",
                    "midi": 75,
                    "time": 272.8638637499931,
                    "velocity": 0.5590551181102362,
                    "duration": 0.1363637499999868
                },
                {
                    "name": "G#5",
                    "midi": 80,
                    "time": 272.8638637499931,
                    "velocity": 0.5590551181102362,
                    "duration": 0.1363637499999868
                },
                {
                    "name": "D#6",
                    "midi": 87,
                    "time": 272.8638637499931,
                    "velocity": 0.6614173228346457,
                    "duration": 0.1363637499999868
                },
                {
                    "name": "D#6",
                    "midi": 87,
                    "time": 273.06840937499305,
                    "velocity": 0.5196850393700787,
                    "duration": 0.0681818749999934
                },
                {
                    "name": "D#5",
                    "midi": 75,
                    "time": 273.06840937499305,
                    "velocity": 0.5196850393700787,
                    "duration": 0.0681818749999934
                },
                {
                    "name": "C#5",
                    "midi": 73,
                    "time": 273.13659124999305,
                    "velocity": 0.5511811023622047,
                    "duration": 0.2045456249999802
                },
                {
                    "name": "A5",
                    "midi": 81,
                    "time": 273.13659124999305,
                    "velocity": 0.5511811023622047,
                    "duration": 0.2045456249999802
                },
                {
                    "name": "C#6",
                    "midi": 85,
                    "time": 273.13659124999305,
                    "velocity": 0.6535433070866141,
                    "duration": 0.2045456249999802
                },
                {
                    "name": "C5",
                    "midi": 72,
                    "time": 273.341136874993,
                    "velocity": 0.5039370078740157,
                    "duration": 0.0681818749999934
                },
                {
                    "name": "C6",
                    "midi": 84,
                    "time": 273.341136874993,
                    "velocity": 0.6062992125984252,
                    "duration": 0.0681818749999934
                },
                {
                    "name": "A#4",
                    "midi": 70,
                    "time": 273.409318749993,
                    "velocity": 0.5511811023622047,
                    "duration": 0.1363637499999868
                },
                {
                    "name": "A#5",
                    "midi": 82,
                    "time": 273.409318749993,
                    "velocity": 0.6535433070866141,
                    "duration": 0.1363637499999868
                },
                {
                    "name": "A#4",
                    "midi": 70,
                    "time": 273.682046249993,
                    "velocity": 0.5039370078740157,
                    "duration": 0.2045456249999802
                },
                {
                    "name": "F#5",
                    "midi": 78,
                    "time": 273.682046249993,
                    "velocity": 0.5039370078740157,
                    "duration": 0.2045456249999802
                },
                {
                    "name": "A#5",
                    "midi": 82,
                    "time": 273.682046249993,
                    "velocity": 0.6062992125984252,
                    "duration": 0.2045456249999802
                },
                {
                    "name": "C5",
                    "midi": 72,
                    "time": 273.886591874993,
                    "velocity": 0.5039370078740157,
                    "duration": 0.0681818749999934
                },
                {
                    "name": "C6",
                    "midi": 84,
                    "time": 273.886591874993,
                    "velocity": 0.6062992125984252,
                    "duration": 0.0681818749999934
                },
                {
                    "name": "C#5",
                    "midi": 73,
                    "time": 273.95477374999297,
                    "velocity": 0.5354330708661418,
                    "duration": 0.2727274999999736
                },
                {
                    "name": "F5",
                    "midi": 77,
                    "time": 273.95477374999297,
                    "velocity": 0.5354330708661418,
                    "duration": 0.2727274999999736
                },
                {
                    "name": "C#6",
                    "midi": 85,
                    "time": 273.95477374999297,
                    "velocity": 0.6377952755905512,
                    "duration": 0.2727274999999736
                },
                {
                    "name": "D#5",
                    "midi": 75,
                    "time": 274.22750124999294,
                    "velocity": 0.5275590551181102,
                    "duration": 0.2045456249999802
                },
                {
                    "name": "C#5",
                    "midi": 73,
                    "time": 274.22750124999294,
                    "velocity": 0.5275590551181102,
                    "duration": 0.2045456249999802
                },
                {
                    "name": "C#6",
                    "midi": 85,
                    "time": 274.22750124999294,
                    "velocity": 0.6220472440944882,
                    "duration": 0.2045456249999802
                },
                {
                    "name": "F#5",
                    "midi": 78,
                    "time": 274.22750124999294,
                    "velocity": 0.5275590551181102,
                    "duration": 0.2045456249999802
                },
                {
                    "name": "C5",
                    "midi": 72,
                    "time": 274.4320468749929,
                    "velocity": 0.49606299212598426,
                    "duration": 0.0681818749999934
                },
                {
                    "name": "C6",
                    "midi": 84,
                    "time": 274.4320468749929,
                    "velocity": 0.5905511811023622,
                    "duration": 0.0681818749999934
                },
                {
                    "name": "A#4",
                    "midi": 70,
                    "time": 274.5002287499929,
                    "velocity": 0.5433070866141733,
                    "duration": 0.2727274999999736
                },
                {
                    "name": "F5",
                    "midi": 77,
                    "time": 274.5002287499929,
                    "velocity": 0.5433070866141733,
                    "duration": 0.2727274999999736
                },
                {
                    "name": "A#5",
                    "midi": 82,
                    "time": 274.5002287499929,
                    "velocity": 0.6456692913385826,
                    "duration": 0.2727274999999736
                },
                {
                    "name": "G#4",
                    "midi": 68,
                    "time": 274.7729562499929,
                    "velocity": 0.5275590551181102,
                    "duration": 0.2045456249999802
                },
                {
                    "name": "D#5",
                    "midi": 75,
                    "time": 274.7729562499929,
                    "velocity": 0.5275590551181102,
                    "duration": 0.2045456249999802
                },
                {
                    "name": "G#5",
                    "midi": 80,
                    "time": 274.7729562499929,
                    "velocity": 0.6220472440944882,
                    "duration": 0.2045456249999802
                },
                {
                    "name": "A#4",
                    "midi": 70,
                    "time": 274.7729562499929,
                    "velocity": 0.5275590551181102,
                    "duration": 0.2045456249999802
                },
                {
                    "name": "F#4",
                    "midi": 66,
                    "time": 274.97750187499287,
                    "velocity": 0.4881889763779528,
                    "duration": 0.0681818749999934
                },
                {
                    "name": "F#5",
                    "midi": 78,
                    "time": 274.97750187499287,
                    "velocity": 0.5826771653543307,
                    "duration": 0.0681818749999934
                },
                {
                    "name": "C#5",
                    "midi": 73,
                    "time": 275.04568374999286,
                    "velocity": 0.5196850393700787,
                    "duration": 0.1363637499999868
                },
                {
                    "name": "F5",
                    "midi": 77,
                    "time": 275.04568374999286,
                    "velocity": 0.6141732283464567,
                    "duration": 0.1363637499999868
                },
                {
                    "name": "F4",
                    "midi": 65,
                    "time": 275.04568374999286,
                    "velocity": 0.5196850393700787,
                    "duration": 0.1363637499999868
                },
                {
                    "name": "A2",
                    "midi": 45,
                    "time": 275.31841124999283,
                    "velocity": 0.5039370078740157,
                    "duration": 0.0681818749999934
                },
                {
                    "name": "A#2",
                    "midi": 46,
                    "time": 275.3865931249928,
                    "velocity": 0.5039370078740157,
                    "duration": 0.0681818749999934
                },
                {
                    "name": "C3",
                    "midi": 48,
                    "time": 275.4547749999928,
                    "velocity": 0.5196850393700787,
                    "duration": 0.0681818749999934
                },
                {
                    "name": "C#3",
                    "midi": 49,
                    "time": 275.5229568749928,
                    "velocity": 0.5275590551181102,
                    "duration": 0.0681818749999934
                },
                {
                    "name": "D#3",
                    "midi": 51,
                    "time": 275.5911387499928,
                    "velocity": 0.5275590551181102,
                    "duration": 0.0681818749999934
                },
                {
                    "name": "F3",
                    "midi": 53,
                    "time": 275.6593206249928,
                    "velocity": 0.5354330708661418,
                    "duration": 0.0681818749999934
                },
                {
                    "name": "G3",
                    "midi": 55,
                    "time": 275.7275024999928,
                    "velocity": 0.5433070866141733,
                    "duration": 0.0681818749999934
                },
                {
                    "name": "A3",
                    "midi": 57,
                    "time": 275.7956843749928,
                    "velocity": 0.5433070866141733,
                    "duration": 0.0681818749999934
                },
                {
                    "name": "A#3",
                    "midi": 58,
                    "time": 275.8638662499928,
                    "velocity": 0.5511811023622047,
                    "duration": 0.0681818749999934
                },
                {
                    "name": "C4",
                    "midi": 60,
                    "time": 275.9320481249928,
                    "velocity": 0.5590551181102362,
                    "duration": 0.0681818749999934
                },
                {
                    "name": "C#4",
                    "midi": 61,
                    "time": 276.00022999999277,
                    "velocity": 0.5590551181102362,
                    "duration": 0.0681818749999934
                },
                {
                    "name": "D#4",
                    "midi": 63,
                    "time": 276.06841187499276,
                    "velocity": 0.5669291338582677,
                    "duration": 0.0681818749999934
                },
                {
                    "name": "F4",
                    "midi": 65,
                    "time": 276.13659374999276,
                    "velocity": 0.5748031496062992,
                    "duration": 0.0681818749999934
                },
                {
                    "name": "G4",
                    "midi": 67,
                    "time": 276.20477562499275,
                    "velocity": 0.5748031496062992,
                    "duration": 0.0681818749999934
                },
                {
                    "name": "A4",
                    "midi": 69,
                    "time": 276.27295749999274,
                    "velocity": 0.5826771653543307,
                    "duration": 0.0681818749999934
                },
                {
                    "name": "A#4",
                    "midi": 70,
                    "time": 276.34113937499274,
                    "velocity": 0.5826771653543307,
                    "duration": 0.0681818749999934
                },
                {
                    "name": "C5",
                    "midi": 72,
                    "time": 276.40932124999273,
                    "velocity": 0.5905511811023622,
                    "duration": 0.0681818749999934
                },
                {
                    "name": "C#5",
                    "midi": 73,
                    "time": 276.4775031249927,
                    "velocity": 0.6062992125984252,
                    "duration": 0.0681818749999934
                },
                {
                    "name": "D#5",
                    "midi": 75,
                    "time": 276.5456849999927,
                    "velocity": 0.6062992125984252,
                    "duration": 0.0681818749999934
                },
                {
                    "name": "F5",
                    "midi": 77,
                    "time": 276.6138668749927,
                    "velocity": 0.6141732283464567,
                    "duration": 0.0681818749999934
                },
                {
                    "name": "G5",
                    "midi": 79,
                    "time": 276.6820487499927,
                    "velocity": 0.6062992125984252,
                    "duration": 0.0681818749999934
                },
                {
                    "name": "A5",
                    "midi": 81,
                    "time": 276.7502306249927,
                    "velocity": 0.6062992125984252,
                    "duration": 0.0681818749999934
                },
                {
                    "name": "A#5",
                    "midi": 82,
                    "time": 276.8184124999927,
                    "velocity": 0.6141732283464567,
                    "duration": 0.0681818749999934
                },
                {
                    "name": "C6",
                    "midi": 84,
                    "time": 276.8865943749927,
                    "velocity": 0.6220472440944882,
                    "duration": 0.0681818749999934
                },
                {
                    "name": "C#6",
                    "midi": 85,
                    "time": 276.9547762499927,
                    "velocity": 0.6299212598425197,
                    "duration": 0.0681818749999934
                },
                {
                    "name": "D#6",
                    "midi": 87,
                    "time": 277.02295812499267,
                    "velocity": 0.6299212598425197,
                    "duration": 0.0681818749999934
                },
                {
                    "name": "F6",
                    "midi": 89,
                    "time": 277.09113999999266,
                    "velocity": 0.6377952755905512,
                    "duration": 0.0681818749999934
                },
                {
                    "name": "G6",
                    "midi": 91,
                    "time": 277.15932187499266,
                    "velocity": 0.6456692913385826,
                    "duration": 0.10227281250001852
                },
                {
                    "name": "A6",
                    "midi": 93,
                    "time": 277.2615946874927,
                    "velocity": 0.6535433070866141,
                    "duration": 0.10227281250001852
                },
                {
                    "name": "A#6",
                    "midi": 94,
                    "time": 277.3638674999927,
                    "velocity": 0.7244094488188977,
                    "duration": 0.1363637499999868
                },
                {
                    "name": "A#5",
                    "midi": 82,
                    "time": 277.3638674999927,
                    "velocity": 0.7244094488188977,
                    "duration": 0.1363637499999868
                },
                {
                    "name": "C7",
                    "midi": 96,
                    "time": 277.5684131249927,
                    "velocity": 0.6692913385826772,
                    "duration": 0.0681818749999934
                },
                {
                    "name": "C#6",
                    "midi": 85,
                    "time": 277.63659499999267,
                    "velocity": 0.6062992125984252,
                    "duration": 0.1363637499999868
                },
                {
                    "name": "A#6",
                    "midi": 94,
                    "time": 277.63659499999267,
                    "velocity": 0.7165354330708661,
                    "duration": 0.1363637499999868
                },
                {
                    "name": "G6",
                    "midi": 91,
                    "time": 277.63659499999267,
                    "velocity": 0.7165354330708661,
                    "duration": 0.1363637499999868
                },
                {
                    "name": "F#6",
                    "midi": 90,
                    "time": 277.77295874999265,
                    "velocity": 0.6692913385826772,
                    "duration": 0.1363637499999868
                },
                {
                    "name": "C6",
                    "midi": 84,
                    "time": 277.77295874999265,
                    "velocity": 0.5669291338582677,
                    "duration": 0.1363637499999868
                },
                {
                    "name": "A6",
                    "midi": 93,
                    "time": 277.77295874999265,
                    "velocity": 0.6692913385826772,
                    "duration": 0.1363637499999868
                },
                {
                    "name": "C#6",
                    "midi": 85,
                    "time": 277.90932249999264,
                    "velocity": 0.5905511811023622,
                    "duration": 0.2727274999999736
                },
                {
                    "name": "G6",
                    "midi": 91,
                    "time": 277.90932249999264,
                    "velocity": 0.7086614173228346,
                    "duration": 0.2727274999999736
                },
                {
                    "name": "A#6",
                    "midi": 94,
                    "time": 277.90932249999264,
                    "velocity": 0.7086614173228346,
                    "duration": 0.2727274999999736
                },
                {
                    "name": "C6",
                    "midi": 84,
                    "time": 278.1820499999926,
                    "velocity": 0.5669291338582677,
                    "duration": 0.2727274999999736
                },
                {
                    "name": "G6",
                    "midi": 91,
                    "time": 278.1820499999926,
                    "velocity": 0.6692913385826772,
                    "duration": 0.2727274999999736
                },
                {
                    "name": "C7",
                    "midi": 96,
                    "time": 278.1820499999926,
                    "velocity": 0.6692913385826772,
                    "duration": 0.2727274999999736
                },
                {
                    "name": "G#5",
                    "midi": 80,
                    "time": 278.4547774999926,
                    "velocity": 0.5826771653543307,
                    "duration": 0.2727274999999736
                },
                {
                    "name": "C6",
                    "midi": 84,
                    "time": 278.4547774999926,
                    "velocity": 0.5826771653543307,
                    "duration": 0.2727274999999736
                },
                {
                    "name": "G#6",
                    "midi": 92,
                    "time": 278.4547774999926,
                    "velocity": 0.6929133858267716,
                    "duration": 0.2727274999999736
                },
                {
                    "name": "D#5",
                    "midi": 75,
                    "time": 278.72750499999256,
                    "velocity": 0.5669291338582677,
                    "duration": 0.2727274999999736
                },
                {
                    "name": "G#5",
                    "midi": 80,
                    "time": 278.72750499999256,
                    "velocity": 0.5669291338582677,
                    "duration": 0.2727274999999736
                },
                {
                    "name": "D#6",
                    "midi": 87,
                    "time": 278.72750499999256,
                    "velocity": 0.6692913385826772,
                    "duration": 0.2727274999999736
                },
                {
                    "name": "F5",
                    "midi": 77,
                    "time": 279.00023249999253,
                    "velocity": 0.5826771653543307,
                    "duration": 0.2727274999999736
                },
                {
                    "name": "G#5",
                    "midi": 80,
                    "time": 279.00023249999253,
                    "velocity": 0.5826771653543307,
                    "duration": 0.2727274999999736
                },
                {
                    "name": "F6",
                    "midi": 89,
                    "time": 279.00023249999253,
                    "velocity": 0.6929133858267716,
                    "duration": 0.2727274999999736
                },
                {
                    "name": "D#5",
                    "midi": 75,
                    "time": 279.2729599999925,
                    "velocity": 0.5669291338582677,
                    "duration": 0.2727274999999736
                },
                {
                    "name": "G#5",
                    "midi": 80,
                    "time": 279.2729599999925,
                    "velocity": 0.5669291338582677,
                    "duration": 0.2727274999999736
                },
                {
                    "name": "D#6",
                    "midi": 87,
                    "time": 279.2729599999925,
                    "velocity": 0.6692913385826772,
                    "duration": 0.2727274999999736
                },
                {
                    "name": "C5",
                    "midi": 72,
                    "time": 279.5456874999925,
                    "velocity": 0.5511811023622047,
                    "duration": 0.2727274999999736
                },
                {
                    "name": "D#5",
                    "midi": 75,
                    "time": 279.5456874999925,
                    "velocity": 0.5511811023622047,
                    "duration": 0.2727274999999736
                },
                {
                    "name": "C6",
                    "midi": 84,
                    "time": 279.5456874999925,
                    "velocity": 0.6535433070866141,
                    "duration": 0.2727274999999736
                },
                {
                    "name": "G#4",
                    "midi": 68,
                    "time": 279.81841499999246,
                    "velocity": 0.5354330708661418,
                    "duration": 0.2727274999999736
                },
                {
                    "name": "C5",
                    "midi": 72,
                    "time": 279.81841499999246,
                    "velocity": 0.5354330708661418,
                    "duration": 0.2727274999999736
                },
                {
                    "name": "G#5",
                    "midi": 80,
                    "time": 279.81841499999246,
                    "velocity": 0.6299212598425197,
                    "duration": 0.2727274999999736
                },
                {
                    "name": "F4",
                    "midi": 65,
                    "time": 280.09114249999243,
                    "velocity": 0.5511811023622047,
                    "duration": 0.2727274999999736
                },
                {
                    "name": "G#4",
                    "midi": 68,
                    "time": 280.09114249999243,
                    "velocity": 0.5511811023622047,
                    "duration": 0.2727274999999736
                },
                {
                    "name": "F5",
                    "midi": 77,
                    "time": 280.09114249999243,
                    "velocity": 0.6535433070866141,
                    "duration": 0.2727274999999736
                },
                {
                    "name": "D#4",
                    "midi": 63,
                    "time": 280.3638699999924,
                    "velocity": 0.5354330708661418,
                    "duration": 0.2727274999999736
                },
                {
                    "name": "G4",
                    "midi": 67,
                    "time": 280.3638699999924,
                    "velocity": 0.5354330708661418,
                    "duration": 0.2727274999999736
                },
                {
                    "name": "D#5",
                    "midi": 75,
                    "time": 280.3638699999924,
                    "velocity": 0.6299212598425197,
                    "duration": 0.2727274999999736
                },
                {
                    "name": "C4",
                    "midi": 60,
                    "time": 280.6365974999924,
                    "velocity": 0.5354330708661418,
                    "duration": 0.1363637499999868
                },
                {
                    "name": "G#4",
                    "midi": 68,
                    "time": 280.6365974999924,
                    "velocity": 0.5354330708661418,
                    "duration": 0.1363637499999868
                },
                {
                    "name": "C5",
                    "midi": 72,
                    "time": 280.6365974999924,
                    "velocity": 0.6299212598425197,
                    "duration": 0.1363637499999868
                },
                {
                    "name": "D#4",
                    "midi": 63,
                    "time": 280.90932499999235,
                    "velocity": 0.5196850393700787,
                    "duration": 0.0681818749999934
                },
                {
                    "name": "F4",
                    "midi": 65,
                    "time": 280.97750687499234,
                    "velocity": 0.48031496062992124,
                    "duration": 0.0681818749999934
                },
                {
                    "name": "D#4",
                    "midi": 63,
                    "time": 281.04568874999234,
                    "velocity": 0.5118110236220472,
                    "duration": 0.0681818749999934
                },
                {
                    "name": "F4",
                    "midi": 65,
                    "time": 281.11387062499233,
                    "velocity": 0.48031496062992124,
                    "duration": 0.0681818749999934
                },
                {
                    "name": "D4",
                    "midi": 62,
                    "time": 281.1820524999923,
                    "velocity": 0.6377952755905512,
                    "duration": 0.2727274999999736
                },
                {
                    "name": "F4",
                    "midi": 65,
                    "time": 281.4547799999923,
                    "velocity": 0.5590551181102362,
                    "duration": 0.09090916666667681
                },
                {
                    "name": "G#4",
                    "midi": 68,
                    "time": 281.545689166659,
                    "velocity": 0.5748031496062992,
                    "duration": 0.09090916666667681
                },
                {
                    "name": "B4",
                    "midi": 71,
                    "time": 281.63659833332565,
                    "velocity": 0.5905511811023622,
                    "duration": 0.09090916666667681
                },
                {
                    "name": "D5",
                    "midi": 74,
                    "time": 281.7275074999923,
                    "velocity": 0.6062992125984252,
                    "duration": 0.09090916666667681
                },
                {
                    "name": "F5",
                    "midi": 77,
                    "time": 281.818416666659,
                    "velocity": 0.6220472440944882,
                    "duration": 0.09090916666667681
                },
                {
                    "name": "G#5",
                    "midi": 80,
                    "time": 281.9093258333257,
                    "velocity": 0.6377952755905512,
                    "duration": 0.09090916666667681
                },
                {
                    "name": "B5",
                    "midi": 83,
                    "time": 282.00023499999236,
                    "velocity": 0.6535433070866141,
                    "duration": 0.09090916666667681
                },
                {
                    "name": "D6",
                    "midi": 86,
                    "time": 282.09114416665903,
                    "velocity": 0.6692913385826772,
                    "duration": 0.09090916666667681
                },
                {
                    "name": "D7",
                    "midi": 98,
                    "time": 282.1820533333257,
                    "velocity": 0.6850393700787402,
                    "duration": 0.09090916666667681
                },
                {
                    "name": "D#6",
                    "midi": 87,
                    "time": 282.2729624999924,
                    "velocity": 0.7007874015748031,
                    "duration": 0.1363637499999868
                },
                {
                    "name": "D#7",
                    "midi": 99,
                    "time": 282.2729624999924,
                    "velocity": 0.7007874015748031,
                    "duration": 0.1363637499999868
                },
                {
                    "name": "A#4",
                    "midi": 70,
                    "time": 282.54568999999236,
                    "velocity": 0.5905511811023622,
                    "duration": 0.0681818749999934
                },
                {
                    "name": "A#5",
                    "midi": 82,
                    "time": 282.54568999999236,
                    "velocity": 0.7007874015748031,
                    "duration": 0.0681818749999934
                },
                {
                    "name": "D#5",
                    "midi": 75,
                    "time": 282.54568999999236,
                    "velocity": 0.5905511811023622,
                    "duration": 0.0681818749999934
                },
                {
                    "name": "A#4",
                    "midi": 70,
                    "time": 282.68205374999235,
                    "velocity": 0.5511811023622047,
                    "duration": 0.0681818749999934
                },
                {
                    "name": "A#5",
                    "midi": 82,
                    "time": 282.68205374999235,
                    "velocity": 0.6535433070866141,
                    "duration": 0.0681818749999934
                },
                {
                    "name": "D#5",
                    "midi": 75,
                    "time": 282.68205374999235,
                    "velocity": 0.5511811023622047,
                    "duration": 0.0681818749999934
                },
                {
                    "name": "A#4",
                    "midi": 70,
                    "time": 282.81841749999234,
                    "velocity": 0.5905511811023622,
                    "duration": 0.1363637499999868
                },
                {
                    "name": "D#5",
                    "midi": 75,
                    "time": 282.81841749999234,
                    "velocity": 0.5905511811023622,
                    "duration": 0.1363637499999868
                },
                {
                    "name": "A#5",
                    "midi": 82,
                    "time": 282.81841749999234,
                    "velocity": 0.7007874015748031,
                    "duration": 0.1363637499999868
                },
                {
                    "name": "A4",
                    "midi": 69,
                    "time": 283.0911449999923,
                    "velocity": 0.5511811023622047,
                    "duration": 0.1363637499999868
                },
                {
                    "name": "D#5",
                    "midi": 75,
                    "time": 283.0911449999923,
                    "velocity": 0.5511811023622047,
                    "duration": 0.1363637499999868
                },
                {
                    "name": "A5",
                    "midi": 81,
                    "time": 283.0911449999923,
                    "velocity": 0.6535433070866141,
                    "duration": 0.1363637499999868
                },
                {
                    "name": "A#4",
                    "midi": 70,
                    "time": 283.2275087499923,
                    "velocity": 0.5748031496062992,
                    "duration": 0.1363637499999868
                },
                {
                    "name": "D#5",
                    "midi": 75,
                    "time": 283.2275087499923,
                    "velocity": 0.5748031496062992,
                    "duration": 0.1363637499999868
                },
                {
                    "name": "A#5",
                    "midi": 82,
                    "time": 283.2275087499923,
                    "velocity": 0.6850393700787402,
                    "duration": 0.1363637499999868
                },
                {
                    "name": "C5",
                    "midi": 72,
                    "time": 283.3638724999923,
                    "velocity": 0.6062992125984252,
                    "duration": 0.2727274999999736
                },
                {
                    "name": "D#5",
                    "midi": 75,
                    "time": 283.3638724999923,
                    "velocity": 0.6062992125984252,
                    "duration": 0.2727274999999736
                },
                {
                    "name": "C6",
                    "midi": 84,
                    "time": 283.3638724999923,
                    "velocity": 0.7165354330708661,
                    "duration": 0.2727274999999736
                },
                {
                    "name": "G4",
                    "midi": 67,
                    "time": 283.63659999999226,
                    "velocity": 0.5905511811023622,
                    "duration": 0.2727274999999736
                },
                {
                    "name": "C#5",
                    "midi": 73,
                    "time": 283.63659999999226,
                    "velocity": 0.5905511811023622,
                    "duration": 0.2727274999999736
                },
                {
                    "name": "D#5",
                    "midi": 75,
                    "time": 283.63659999999226,
                    "velocity": 0.5905511811023622,
                    "duration": 0.2727274999999736
                },
                {
                    "name": "G5",
                    "midi": 79,
                    "time": 283.63659999999226,
                    "velocity": 0.7007874015748031,
                    "duration": 0.2727274999999736
                },
                {
                    "name": "G#4",
                    "midi": 68,
                    "time": 283.90932749999223,
                    "velocity": 0.5826771653543307,
                    "duration": 0.1363637499999868
                },
                {
                    "name": "C5",
                    "midi": 72,
                    "time": 283.90932749999223,
                    "velocity": 0.5826771653543307,
                    "duration": 0.1363637499999868
                },
                {
                    "name": "G#5",
                    "midi": 80,
                    "time": 283.90932749999223,
                    "velocity": 0.6929133858267716,
                    "duration": 0.1363637499999868
                },
                {
                    "name": "D#4",
                    "midi": 63,
                    "time": 284.1820549999922,
                    "velocity": 0.5196850393700787,
                    "duration": 0.0681818749999934
                },
                {
                    "name": "F4",
                    "midi": 65,
                    "time": 284.2502368749922,
                    "velocity": 0.48031496062992124,
                    "duration": 0.0681818749999934
                },
                {
                    "name": "D#4",
                    "midi": 63,
                    "time": 284.3184187499922,
                    "velocity": 0.5118110236220472,
                    "duration": 0.0681818749999934
                },
                {
                    "name": "F4",
                    "midi": 65,
                    "time": 284.3866006249922,
                    "velocity": 0.48031496062992124,
                    "duration": 0.0681818749999934
                },
                {
                    "name": "D4",
                    "midi": 62,
                    "time": 284.4547824999922,
                    "velocity": 0.6377952755905512,
                    "duration": 0.2727274999999736
                },
                {
                    "name": "F4",
                    "midi": 65,
                    "time": 284.72750999999215,
                    "velocity": 0.5590551181102362,
                    "duration": 0.09090916666667681
                },
                {
                    "name": "G#4",
                    "midi": 68,
                    "time": 284.8184191666588,
                    "velocity": 0.5748031496062992,
                    "duration": 0.09090916666667681
                },
                {
                    "name": "B4",
                    "midi": 71,
                    "time": 284.9093283333255,
                    "velocity": 0.5905511811023622,
                    "duration": 0.09090916666667681
                },
                {
                    "name": "D5",
                    "midi": 74,
                    "time": 285.0002374999922,
                    "velocity": 0.6062992125984252,
                    "duration": 0.09090916666667681
                },
                {
                    "name": "F5",
                    "midi": 77,
                    "time": 285.09114666665886,
                    "velocity": 0.6220472440944882,
                    "duration": 0.09090916666667681
                },
                {
                    "name": "G#5",
                    "midi": 80,
                    "time": 285.18205583332553,
                    "velocity": 0.6377952755905512,
                    "duration": 0.09090916666667681
                },
                {
                    "name": "B5",
                    "midi": 83,
                    "time": 285.2729649999922,
                    "velocity": 0.6535433070866141,
                    "duration": 0.09090916666667681
                },
                {
                    "name": "D6",
                    "midi": 86,
                    "time": 285.3638741666589,
                    "velocity": 0.6692913385826772,
                    "duration": 0.09090916666667681
                },
                {
                    "name": "D7",
                    "midi": 98,
                    "time": 285.45478333332557,
                    "velocity": 0.6850393700787402,
                    "duration": 0.09090916666667681
                },
                {
                    "name": "D#6",
                    "midi": 87,
                    "time": 285.54569249999224,
                    "velocity": 0.7007874015748031,
                    "duration": 0.1363637499999868
                },
                {
                    "name": "D#7",
                    "midi": 99,
                    "time": 285.54569249999224,
                    "velocity": 0.7007874015748031,
                    "duration": 0.1363637499999868
                },
                {
                    "name": "A#4",
                    "midi": 70,
                    "time": 285.8184199999922,
                    "velocity": 0.5905511811023622,
                    "duration": 0.0681818749999934
                },
                {
                    "name": "A#5",
                    "midi": 82,
                    "time": 285.8184199999922,
                    "velocity": 0.7007874015748031,
                    "duration": 0.0681818749999934
                },
                {
                    "name": "D#5",
                    "midi": 75,
                    "time": 285.8184199999922,
                    "velocity": 0.5905511811023622,
                    "duration": 0.0681818749999934
                },
                {
                    "name": "A#4",
                    "midi": 70,
                    "time": 285.9547837499922,
                    "velocity": 0.5511811023622047,
                    "duration": 0.0681818749999934
                },
                {
                    "name": "A#5",
                    "midi": 82,
                    "time": 285.9547837499922,
                    "velocity": 0.6535433070866141,
                    "duration": 0.0681818749999934
                },
                {
                    "name": "D#5",
                    "midi": 75,
                    "time": 285.9547837499922,
                    "velocity": 0.5511811023622047,
                    "duration": 0.0681818749999934
                },
                {
                    "name": "A#4",
                    "midi": 70,
                    "time": 286.0911474999922,
                    "velocity": 0.5905511811023622,
                    "duration": 0.1363637499999868
                },
                {
                    "name": "D#5",
                    "midi": 75,
                    "time": 286.0911474999922,
                    "velocity": 0.5905511811023622,
                    "duration": 0.1363637499999868
                },
                {
                    "name": "A#5",
                    "midi": 82,
                    "time": 286.0911474999922,
                    "velocity": 0.7007874015748031,
                    "duration": 0.1363637499999868
                },
                {
                    "name": "C5",
                    "midi": 72,
                    "time": 286.2275112499922,
                    "velocity": 0.49606299212598426,
                    "duration": 0.1363637499999868
                },
                {
                    "name": "D#5",
                    "midi": 75,
                    "time": 286.2275112499922,
                    "velocity": 0.49606299212598426,
                    "duration": 0.1363637499999868
                },
                {
                    "name": "C6",
                    "midi": 84,
                    "time": 286.2275112499922,
                    "velocity": 0.5905511811023622,
                    "duration": 0.1363637499999868
                },
                {
                    "name": "A4",
                    "midi": 69,
                    "time": 286.36387499999216,
                    "velocity": 0.5511811023622047,
                    "duration": 0.1363637499999868
                },
                {
                    "name": "D#5",
                    "midi": 75,
                    "time": 286.36387499999216,
                    "velocity": 0.5511811023622047,
                    "duration": 0.1363637499999868
                },
                {
                    "name": "A5",
                    "midi": 81,
                    "time": 286.36387499999216,
                    "velocity": 0.6535433070866141,
                    "duration": 0.1363637499999868
                },
                {
                    "name": "A#4",
                    "midi": 70,
                    "time": 286.50023874999215,
                    "velocity": 0.5748031496062992,
                    "duration": 0.1363637499999868
                },
                {
                    "name": "D#5",
                    "midi": 75,
                    "time": 286.50023874999215,
                    "velocity": 0.5748031496062992,
                    "duration": 0.1363637499999868
                },
                {
                    "name": "A#5",
                    "midi": 82,
                    "time": 286.50023874999215,
                    "velocity": 0.6850393700787402,
                    "duration": 0.1363637499999868
                },
                {
                    "name": "C5",
                    "midi": 72,
                    "time": 286.63660249999214,
                    "velocity": 0.6062992125984252,
                    "duration": 0.2727274999999736
                },
                {
                    "name": "D#5",
                    "midi": 75,
                    "time": 286.63660249999214,
                    "velocity": 0.6062992125984252,
                    "duration": 0.2727274999999736
                },
                {
                    "name": "C6",
                    "midi": 84,
                    "time": 286.63660249999214,
                    "velocity": 0.7165354330708661,
                    "duration": 0.2727274999999736
                },
                {
                    "name": "G4",
                    "midi": 67,
                    "time": 286.9093299999921,
                    "velocity": 0.5905511811023622,
                    "duration": 0.2727274999999736
                },
                {
                    "name": "C#5",
                    "midi": 73,
                    "time": 286.9093299999921,
                    "velocity": 0.5905511811023622,
                    "duration": 0.2727274999999736
                },
                {
                    "name": "D#5",
                    "midi": 75,
                    "time": 286.9093299999921,
                    "velocity": 0.5905511811023622,
                    "duration": 0.2727274999999736
                },
                {
                    "name": "G5",
                    "midi": 79,
                    "time": 286.9093299999921,
                    "velocity": 0.7007874015748031,
                    "duration": 0.2727274999999736
                },
                {
                    "name": "F5",
                    "midi": 77,
                    "time": 287.1820574999921,
                    "velocity": 0.6692913385826772,
                    "duration": 0.4090912500000172
                },
                {
                    "name": "G#4",
                    "midi": 68,
                    "time": 287.1820574999921,
                    "velocity": 0.6141732283464567,
                    "duration": 0.4090912500000172
                },
                {
                    "name": "C5",
                    "midi": 72,
                    "time": 287.1820574999921,
                    "velocity": 0.6614173228346457,
                    "duration": 0.4090912500000172
                },
                {
                    "name": "G#5",
                    "midi": 80,
                    "time": 287.1820574999921,
                    "velocity": 0.8031496062992126,
                    "duration": 0.4090912500000172
                },
                {
                    "name": "D#5",
                    "midi": 75,
                    "time": 287.5911487499921,
                    "velocity": 0.7322834645669292,
                    "duration": 0.12272737500001085
                },
                {
                    "name": "D#4",
                    "midi": 63,
                    "time": 287.7275124999921,
                    "velocity": 0.6220472440944882,
                    "duration": 0.545455000000004
                },
                {
                    "name": "C5",
                    "midi": 72,
                    "time": 287.7275124999921,
                    "velocity": 0.6220472440944882,
                    "duration": 0.545455000000004
                },
                {
                    "name": "D#5",
                    "midi": 75,
                    "time": 287.7275124999921,
                    "velocity": 0.7322834645669292,
                    "duration": 0.545455000000004
                },
                {
                    "name": "C5",
                    "midi": 72,
                    "time": 288.54569499999207,
                    "velocity": 0.5826771653543307,
                    "duration": 0.1363637499999868
                },
                {
                    "name": "G#5",
                    "midi": 80,
                    "time": 288.54569499999207,
                    "velocity": 0.5826771653543307,
                    "duration": 0.1363637499999868
                },
                {
                    "name": "C6",
                    "midi": 84,
                    "time": 288.54569499999207,
                    "velocity": 0.6929133858267716,
                    "duration": 0.1363637499999868
                },
                {
                    "name": "C#5",
                    "midi": 73,
                    "time": 288.68205874999205,
                    "velocity": 0.5748031496062992,
                    "duration": 0.1363637499999868
                },
                {
                    "name": "A#5",
                    "midi": 82,
                    "time": 288.68205874999205,
                    "velocity": 0.5748031496062992,
                    "duration": 0.1363637499999868
                },
                {
                    "name": "C#6",
                    "midi": 85,
                    "time": 288.68205874999205,
                    "velocity": 0.6771653543307087,
                    "duration": 0.1363637499999868
                },
                {
                    "name": "F5",
                    "midi": 77,
                    "time": 288.81842249999204,
                    "velocity": 0.6456692913385826,
                    "duration": 0.4090912500000172
                },
                {
                    "name": "C#6",
                    "midi": 85,
                    "time": 288.81842249999204,
                    "velocity": 0.6929133858267716,
                    "duration": 0.4090912500000172
                },
                {
                    "name": "F6",
                    "midi": 89,
                    "time": 288.81842249999204,
                    "velocity": 0.8031496062992126,
                    "duration": 0.4090912500000172
                },
                {
                    "name": "D#5",
                    "midi": 75,
                    "time": 289.22751374999206,
                    "velocity": 0.6220472440944882,
                    "duration": 0.12272737500001085
                },
                {
                    "name": "C6",
                    "midi": 84,
                    "time": 289.22751374999206,
                    "velocity": 0.6220472440944882,
                    "duration": 0.12272737500001085
                },
                {
                    "name": "D#6",
                    "midi": 87,
                    "time": 289.22751374999206,
                    "velocity": 0.7322834645669292,
                    "duration": 0.12272737500001085
                },
                {
                    "name": "D#5",
                    "midi": 75,
                    "time": 289.36387749999204,
                    "velocity": 0.6220472440944882,
                    "duration": 0.545455000000004
                },
                {
                    "name": "C6",
                    "midi": 84,
                    "time": 289.36387749999204,
                    "velocity": 0.6220472440944882,
                    "duration": 0.545455000000004
                },
                {
                    "name": "D#6",
                    "midi": 87,
                    "time": 289.36387749999204,
                    "velocity": 0.7322834645669292,
                    "duration": 0.545455000000004
                },
                {
                    "name": "C5",
                    "midi": 72,
                    "time": 290.182059999992,
                    "velocity": 0.5826771653543307,
                    "duration": 0.1363637499999868
                },
                {
                    "name": "G#5",
                    "midi": 80,
                    "time": 290.182059999992,
                    "velocity": 0.5826771653543307,
                    "duration": 0.1363637499999868
                },
                {
                    "name": "C6",
                    "midi": 84,
                    "time": 290.182059999992,
                    "velocity": 0.6929133858267716,
                    "duration": 0.1363637499999868
                },
                {
                    "name": "C#5",
                    "midi": 73,
                    "time": 290.318423749992,
                    "velocity": 0.5748031496062992,
                    "duration": 0.1363637499999868
                },
                {
                    "name": "A#5",
                    "midi": 82,
                    "time": 290.318423749992,
                    "velocity": 0.5748031496062992,
                    "duration": 0.1363637499999868
                },
                {
                    "name": "C#6",
                    "midi": 85,
                    "time": 290.318423749992,
                    "velocity": 0.6771653543307087,
                    "duration": 0.1363637499999868
                },
                {
                    "name": "F5",
                    "midi": 77,
                    "time": 290.454787499992,
                    "velocity": 0.6456692913385826,
                    "duration": 0.4090912500000172
                },
                {
                    "name": "C#6",
                    "midi": 85,
                    "time": 290.454787499992,
                    "velocity": 0.6929133858267716,
                    "duration": 0.4090912500000172
                },
                {
                    "name": "F6",
                    "midi": 89,
                    "time": 290.454787499992,
                    "velocity": 0.8031496062992126,
                    "duration": 0.4090912500000172
                },
                {
                    "name": "D#5",
                    "midi": 75,
                    "time": 290.863878749992,
                    "velocity": 0.6220472440944882,
                    "duration": 0.1363637499999868
                },
                {
                    "name": "C6",
                    "midi": 84,
                    "time": 290.863878749992,
                    "velocity": 0.6220472440944882,
                    "duration": 0.1363637499999868
                },
                {
                    "name": "D#6",
                    "midi": 87,
                    "time": 290.863878749992,
                    "velocity": 0.7322834645669292,
                    "duration": 0.1363637499999868
                },
                {
                    "name": "F5",
                    "midi": 77,
                    "time": 291.000242499992,
                    "velocity": 0.6456692913385826,
                    "duration": 0.4090912500000172
                },
                {
                    "name": "C#6",
                    "midi": 85,
                    "time": 291.000242499992,
                    "velocity": 0.6929133858267716,
                    "duration": 0.4090912500000172
                },
                {
                    "name": "F6",
                    "midi": 89,
                    "time": 291.000242499992,
                    "velocity": 0.8031496062992126,
                    "duration": 0.4090912500000172
                },
                {
                    "name": "D#5",
                    "midi": 75,
                    "time": 291.409333749992,
                    "velocity": 0.6220472440944882,
                    "duration": 0.1363637499999868
                },
                {
                    "name": "C6",
                    "midi": 84,
                    "time": 291.409333749992,
                    "velocity": 0.6220472440944882,
                    "duration": 0.1363637499999868
                },
                {
                    "name": "D#6",
                    "midi": 87,
                    "time": 291.409333749992,
                    "velocity": 0.7322834645669292,
                    "duration": 0.1363637499999868
                },
                {
                    "name": "F5",
                    "midi": 77,
                    "time": 291.545697499992,
                    "velocity": 0.6456692913385826,
                    "duration": 0.4090912500000172
                },
                {
                    "name": "C#6",
                    "midi": 85,
                    "time": 291.545697499992,
                    "velocity": 0.6929133858267716,
                    "duration": 0.4090912500000172
                },
                {
                    "name": "F6",
                    "midi": 89,
                    "time": 291.545697499992,
                    "velocity": 0.8031496062992126,
                    "duration": 0.4090912500000172
                },
                {
                    "name": "D#5",
                    "midi": 75,
                    "time": 291.954788749992,
                    "velocity": 0.6220472440944882,
                    "duration": 0.1363637499999868
                },
                {
                    "name": "C6",
                    "midi": 84,
                    "time": 291.954788749992,
                    "velocity": 0.6220472440944882,
                    "duration": 0.1363637499999868
                },
                {
                    "name": "D#6",
                    "midi": 87,
                    "time": 291.954788749992,
                    "velocity": 0.7322834645669292,
                    "duration": 0.1363637499999868
                },
                {
                    "name": "F5",
                    "midi": 77,
                    "time": 292.091152499992,
                    "velocity": 0.6456692913385826,
                    "duration": 0.4090912500000172
                },
                {
                    "name": "C#6",
                    "midi": 85,
                    "time": 292.091152499992,
                    "velocity": 0.6929133858267716,
                    "duration": 0.4090912500000172
                },
                {
                    "name": "F6",
                    "midi": 89,
                    "time": 292.091152499992,
                    "velocity": 0.8031496062992126,
                    "duration": 0.4090912500000172
                },
                {
                    "name": "D#5",
                    "midi": 75,
                    "time": 292.500243749992,
                    "velocity": 0.6220472440944882,
                    "duration": 0.12272737500001085
                },
                {
                    "name": "C6",
                    "midi": 84,
                    "time": 292.500243749992,
                    "velocity": 0.6220472440944882,
                    "duration": 0.12272737500001085
                },
                {
                    "name": "D#6",
                    "midi": 87,
                    "time": 292.500243749992,
                    "velocity": 0.7322834645669292,
                    "duration": 0.12272737500001085
                },
                {
                    "name": "D#5",
                    "midi": 75,
                    "time": 292.636607499992,
                    "velocity": 0.6220472440944882,
                    "duration": 0.545455000000004
                },
                {
                    "name": "C6",
                    "midi": 84,
                    "time": 292.636607499992,
                    "velocity": 0.6220472440944882,
                    "duration": 0.545455000000004
                },
                {
                    "name": "D#6",
                    "midi": 87,
                    "time": 292.636607499992,
                    "velocity": 0.7322834645669292,
                    "duration": 0.545455000000004
                },
                {
                    "name": "F6",
                    "midi": 89,
                    "time": 293.182062499992,
                    "velocity": 0.7322834645669292,
                    "duration": 0.0681818749999934
                },
                {
                    "name": "C6",
                    "midi": 84,
                    "time": 293.182062499992,
                    "velocity": 0.6220472440944882,
                    "duration": 0.0681818749999934
                },
                {
                    "name": "F5",
                    "midi": 77,
                    "time": 293.182062499992,
                    "velocity": 0.6220472440944882,
                    "duration": 0.0681818749999934
                },
                {
                    "name": "G5",
                    "midi": 79,
                    "time": 293.318426249992,
                    "velocity": 0.6377952755905512,
                    "duration": 0.1363637499999868
                },
                {
                    "name": "C6",
                    "midi": 84,
                    "time": 293.318426249992,
                    "velocity": 0.6377952755905512,
                    "duration": 0.1363637499999868
                },
                {
                    "name": "G6",
                    "midi": 91,
                    "time": 293.318426249992,
                    "velocity": 0.7559055118110236,
                    "duration": 0.1363637499999868
                },
                {
                    "name": "G#5",
                    "midi": 80,
                    "time": 293.454789999992,
                    "velocity": 0.6692913385826772,
                    "duration": 0.1363637499999868
                },
                {
                    "name": "C6",
                    "midi": 84,
                    "time": 293.454789999992,
                    "velocity": 0.6692913385826772,
                    "duration": 0.1363637499999868
                },
                {
                    "name": "G#6",
                    "midi": 92,
                    "time": 293.454789999992,
                    "velocity": 0.7874015748031497,
                    "duration": 0.1363637499999868
                },
                {
                    "name": "A#5",
                    "midi": 82,
                    "time": 293.591153749992,
                    "velocity": 0.7007874015748031,
                    "duration": 0.1363637499999868
                },
                {
                    "name": "D#6",
                    "midi": 87,
                    "time": 293.591153749992,
                    "velocity": 0.7007874015748031,
                    "duration": 0.2727274999999736
                },
                {
                    "name": "A#6",
                    "midi": 94,
                    "time": 293.591153749992,
                    "velocity": 0.8267716535433071,
                    "duration": 0.1363637499999868
                },
                {
                    "name": "C7",
                    "midi": 96,
                    "time": 293.72751749999196,
                    "velocity": 0.8661417322834646,
                    "duration": 0.2727274999999736
                },
                {
                    "name": "G#6",
                    "midi": 92,
                    "time": 293.72751749999196,
                    "velocity": 0.8661417322834646,
                    "duration": 0.2727274999999736
                },
                {
                    "name": "C6",
                    "midi": 84,
                    "time": 293.72751749999196,
                    "velocity": 0.7322834645669292,
                    "duration": 0.2727274999999736
                },
                {
                    "name": "E3",
                    "midi": 52,
                    "time": 294.54569999999194,
                    "velocity": 0.6220472440944882,
                    "duration": 0.0681818749999934
                },
                {
                    "name": "G3",
                    "midi": 55,
                    "time": 294.54569999999194,
                    "velocity": 0.6220472440944882,
                    "duration": 0.0681818749999934
                },
                {
                    "name": "C4",
                    "midi": 60,
                    "time": 294.54569999999194,
                    "velocity": 0.7322834645669292,
                    "duration": 0.0681818749999934
                },
                {
                    "name": "E4",
                    "midi": 64,
                    "time": 294.54569999999194,
                    "velocity": 0.7322834645669292,
                    "duration": 0.0681818749999934
                },
                {
                    "name": "E3",
                    "midi": 52,
                    "time": 294.6820637499919,
                    "velocity": 0.5905511811023622,
                    "duration": 0.0681818749999934
                },
                {
                    "name": "G3",
                    "midi": 55,
                    "time": 294.6820637499919,
                    "velocity": 0.5905511811023622,
                    "duration": 0.0681818749999934
                },
                {
                    "name": "C4",
                    "midi": 60,
                    "time": 294.6820637499919,
                    "velocity": 0.7007874015748031,
                    "duration": 0.0681818749999934
                },
                {
                    "name": "E4",
                    "midi": 64,
                    "time": 294.6820637499919,
                    "velocity": 0.7007874015748031,
                    "duration": 0.0681818749999934
                },
                {
                    "name": "E3",
                    "midi": 52,
                    "time": 294.8184274999919,
                    "velocity": 0.6220472440944882,
                    "duration": 0.1363637499999868
                },
                {
                    "name": "G3",
                    "midi": 55,
                    "time": 294.8184274999919,
                    "velocity": 0.6220472440944882,
                    "duration": 0.1363637499999868
                },
                {
                    "name": "C4",
                    "midi": 60,
                    "time": 294.8184274999919,
                    "velocity": 0.7322834645669292,
                    "duration": 0.1363637499999868
                },
                {
                    "name": "E4",
                    "midi": 64,
                    "time": 294.8184274999919,
                    "velocity": 0.7322834645669292,
                    "duration": 0.1363637499999868
                },
                {
                    "name": "E3",
                    "midi": 52,
                    "time": 295.0911549999919,
                    "velocity": 0.5826771653543307,
                    "duration": 0.1363637499999868
                },
                {
                    "name": "G3",
                    "midi": 55,
                    "time": 295.0911549999919,
                    "velocity": 0.5826771653543307,
                    "duration": 0.1363637499999868
                },
                {
                    "name": "C4",
                    "midi": 60,
                    "time": 295.0911549999919,
                    "velocity": 0.6929133858267716,
                    "duration": 0.1363637499999868
                },
                {
                    "name": "E4",
                    "midi": 64,
                    "time": 295.0911549999919,
                    "velocity": 0.6929133858267716,
                    "duration": 0.1363637499999868
                },
                {
                    "name": "E3",
                    "midi": 52,
                    "time": 295.2616096874919,
                    "velocity": 0.6141732283464567,
                    "duration": 0.37500031250004895
                },
                {
                    "name": "G3",
                    "midi": 55,
                    "time": 295.2957006249919,
                    "velocity": 0.6141732283464567,
                    "duration": 0.34090937500002383
                },
                {
                    "name": "C4",
                    "midi": 60,
                    "time": 295.32979156249195,
                    "velocity": 0.7244094488188977,
                    "duration": 0.3068184374999987
                },
                {
                    "name": "E4",
                    "midi": 64,
                    "time": 295.363882499992,
                    "velocity": 0.7244094488188977,
                    "duration": 0.2727274999999736
                },
                {
                    "name": "E3",
                    "midi": 52,
                    "time": 295.80706468749196,
                    "velocity": 0.6220472440944882,
                    "duration": 0.37500031250004895
                },
                {
                    "name": "G3",
                    "midi": 55,
                    "time": 295.841155624992,
                    "velocity": 0.6220472440944882,
                    "duration": 0.34090937500002383
                },
                {
                    "name": "C4",
                    "midi": 60,
                    "time": 295.875246562492,
                    "velocity": 0.7322834645669292,
                    "duration": 0.3068184374999987
                },
                {
                    "name": "E4",
                    "midi": 64,
                    "time": 295.90933749999203,
                    "velocity": 0.7322834645669292,
                    "duration": 0.2727274999999736
                },
                {
                    "name": "D#3",
                    "midi": 51,
                    "time": 296.352519687492,
                    "velocity": 0.6220472440944882,
                    "duration": 0.37500031250004895
                },
                {
                    "name": "G3",
                    "midi": 55,
                    "time": 296.38661062499204,
                    "velocity": 0.6220472440944882,
                    "duration": 0.34090937500002383
                },
                {
                    "name": "C#4",
                    "midi": 61,
                    "time": 296.42070156249207,
                    "velocity": 0.7322834645669292,
                    "duration": 0.3068184374999987
                },
                {
                    "name": "D#4",
                    "midi": 63,
                    "time": 296.4547924999921,
                    "velocity": 0.7322834645669292,
                    "duration": 0.2727274999999736
                },
                {
                    "name": "G#3",
                    "midi": 56,
                    "time": 297.00024749999204,
                    "velocity": 0.6771653543307087,
                    "duration": 0.2727274999999736
                },
                {
                    "name": "C4",
                    "midi": 60,
                    "time": 297.00024749999204,
                    "velocity": 0.6771653543307087,
                    "duration": 0.2727274999999736
                },
                {
                    "name": "G#4",
                    "midi": 68,
                    "time": 297.00024749999204,
                    "velocity": 0.8031496062992126,
                    "duration": 0.2727274999999736
                }
            ],
            "controlChanges": {
                "7": [
                    {
                        "number": 7,
                        "time": 0,
                        "value": 0.7874015748031497
                    }
                ],
                "10": [
                    {
                        "number": 10,
                        "time": 0,
                        "value": 0.5039370078740157
                    }
                ],
                "91": [
                    {
                        "number": 91,
                        "time": 0,
                        "value": 1
                    },
                    {
                        "number": 91,
                        "time": 6.54546,
                        "value": 1
                    },
                    {
                        "number": 91,
                        "time": 13.090919999999997,
                        "value": 1
                    }
                ]
            },
            "id": 1,
            "name": "Piano right",
            "instrumentNumber": 0,
            "instrument": "acoustic grand piano",
            "instrumentFamily": "piano",
            "channelNumber": 0,
            "isPercussion": false
        },
        {
            "startTime": 0,
            "duration": 297.27297499999116,
            "length": 3016,
            "notes": [
                {
                    "name": "D#1",
                    "midi": 27,
                    "time": 0,
                    "velocity": 0.49606299212598426,
                    "duration": 0.545455
                },
                {
                    "name": "D#2",
                    "midi": 39,
                    "time": 0,
                    "velocity": 0.5905511811023622,
                    "duration": 0.545455
                },
                {
                    "name": "C#3",
                    "midi": 49,
                    "time": 0.8181825,
                    "velocity": 0.31496062992125984,
                    "duration": 0.13636375
                },
                {
                    "name": "E3",
                    "midi": 52,
                    "time": 0.8181825,
                    "velocity": 0.31496062992125984,
                    "duration": 0.13636375
                },
                {
                    "name": "A3",
                    "midi": 57,
                    "time": 0.8181825,
                    "velocity": 0.3700787401574803,
                    "duration": 0.13636375
                },
                {
                    "name": "D3",
                    "midi": 50,
                    "time": 0.95454625,
                    "velocity": 0.33070866141732286,
                    "duration": 0.13636375
                },
                {
                    "name": "F3",
                    "midi": 53,
                    "time": 0.95454625,
                    "velocity": 0.33070866141732286,
                    "duration": 0.13636375
                },
                {
                    "name": "A#3",
                    "midi": 58,
                    "time": 0.95454625,
                    "velocity": 0.3937007874015748,
                    "duration": 0.13636375
                },
                {
                    "name": "D#3",
                    "midi": 51,
                    "time": 1.09091,
                    "velocity": 0.3543307086614173,
                    "duration": 0.13636375000000012
                },
                {
                    "name": "F#3",
                    "midi": 54,
                    "time": 1.09091,
                    "velocity": 0.3543307086614173,
                    "duration": 0.13636375000000012
                },
                {
                    "name": "B3",
                    "midi": 59,
                    "time": 1.09091,
                    "velocity": 0.41732283464566927,
                    "duration": 0.13636375000000012
                },
                {
                    "name": "E3",
                    "midi": 52,
                    "time": 1.2272737500000002,
                    "velocity": 0.36220472440944884,
                    "duration": 0.13636375000000012
                },
                {
                    "name": "G3",
                    "midi": 55,
                    "time": 1.2272737500000002,
                    "velocity": 0.36220472440944884,
                    "duration": 0.13636375000000012
                },
                {
                    "name": "C4",
                    "midi": 60,
                    "time": 1.2272737500000002,
                    "velocity": 0.4330708661417323,
                    "duration": 0.13636375000000012
                },
                {
                    "name": "F3",
                    "midi": 53,
                    "time": 1.3636375000000003,
                    "velocity": 0.3858267716535433,
                    "duration": 0.13636375000000012
                },
                {
                    "name": "G#3",
                    "midi": 56,
                    "time": 1.3636375000000003,
                    "velocity": 0.3858267716535433,
                    "duration": 0.13636375000000012
                },
                {
                    "name": "C#4",
                    "midi": 61,
                    "time": 1.3636375000000003,
                    "velocity": 0.4566929133858268,
                    "duration": 0.13636375000000012
                },
                {
                    "name": "F3",
                    "midi": 53,
                    "time": 1.5000012500000004,
                    "velocity": 0.4015748031496063,
                    "duration": 0.13636375000000012
                },
                {
                    "name": "A3",
                    "midi": 57,
                    "time": 1.5000012500000004,
                    "velocity": 0.48031496062992124,
                    "duration": 0.13636375000000012
                },
                {
                    "name": "D4",
                    "midi": 62,
                    "time": 1.5000012500000004,
                    "velocity": 0.48031496062992124,
                    "duration": 0.13636375000000012
                },
                {
                    "name": "G3",
                    "midi": 55,
                    "time": 1.6363650000000005,
                    "velocity": 0.49606299212598426,
                    "duration": 0.13636375000000012
                },
                {
                    "name": "D#2",
                    "midi": 39,
                    "time": 2.1818200000000005,
                    "velocity": 0.33070866141732286,
                    "duration": 0.13636375000000012
                },
                {
                    "name": "A#2",
                    "midi": 46,
                    "time": 2.1818200000000005,
                    "velocity": 0.3937007874015748,
                    "duration": 0.13636375000000012
                },
                {
                    "name": "D3",
                    "midi": 50,
                    "time": 2.7272750000000006,
                    "velocity": 0.2204724409448819,
                    "duration": 0.545455
                },
                {
                    "name": "B3",
                    "midi": 59,
                    "time": 2.7272750000000006,
                    "velocity": 0.25196850393700787,
                    "duration": 0.545455
                },
                {
                    "name": "D#3",
                    "midi": 51,
                    "time": 3.2727300000000006,
                    "velocity": 0.18110236220472442,
                    "duration": 0.2727274999999998
                },
                {
                    "name": "A#3",
                    "midi": 58,
                    "time": 3.2727300000000006,
                    "velocity": 0.2204724409448819,
                    "duration": 0.2727274999999998
                },
                {
                    "name": "G#2",
                    "midi": 44,
                    "time": 3.8181850000000006,
                    "velocity": 0.28346456692913385,
                    "duration": 0.14772739583333339
                },
                {
                    "name": "B3",
                    "midi": 59,
                    "time": 3.8181850000000006,
                    "velocity": 0.33070866141732286,
                    "duration": 0.14772739583333339
                },
                {
                    "name": "G2",
                    "midi": 43,
                    "time": 3.9545487500000007,
                    "velocity": 0.25984251968503935,
                    "duration": 0.14772739583333383
                },
                {
                    "name": "A#3",
                    "midi": 58,
                    "time": 3.9545487500000007,
                    "velocity": 0.30708661417322836,
                    "duration": 0.14772739583333383
                },
                {
                    "name": "D2",
                    "midi": 38,
                    "time": 4.090912500000001,
                    "velocity": 0.25984251968503935,
                    "duration": 0.14772739583333383
                },
                {
                    "name": "E3",
                    "midi": 52,
                    "time": 4.090912500000001,
                    "velocity": 0.31496062992125984,
                    "duration": 0.14772739583333383
                },
                {
                    "name": "D#2",
                    "midi": 39,
                    "time": 4.227276250000001,
                    "velocity": 0.2755905511811024,
                    "duration": 0.14772739583333383
                },
                {
                    "name": "D#3",
                    "midi": 51,
                    "time": 4.227276250000001,
                    "velocity": 0.33070866141732286,
                    "duration": 0.14772739583333383
                },
                {
                    "name": "G#2",
                    "midi": 44,
                    "time": 4.363640000000001,
                    "velocity": 0.30708661417322836,
                    "duration": 0.14772739583333383
                },
                {
                    "name": "B3",
                    "midi": 59,
                    "time": 4.363640000000001,
                    "velocity": 0.3700787401574803,
                    "duration": 0.14772739583333383
                },
                {
                    "name": "G2",
                    "midi": 43,
                    "time": 4.500003750000001,
                    "velocity": 0.2992125984251969,
                    "duration": 0.14772739583333383
                },
                {
                    "name": "A#3",
                    "midi": 58,
                    "time": 4.500003750000001,
                    "velocity": 0.3543307086614173,
                    "duration": 0.14772739583333383
                },
                {
                    "name": "D2",
                    "midi": 38,
                    "time": 4.636367500000001,
                    "velocity": 0.30708661417322836,
                    "duration": 0.14772739583333383
                },
                {
                    "name": "E3",
                    "midi": 52,
                    "time": 4.636367500000001,
                    "velocity": 0.3700787401574803,
                    "duration": 0.14772739583333383
                },
                {
                    "name": "D#2",
                    "midi": 39,
                    "time": 4.772731250000001,
                    "velocity": 0.31496062992125984,
                    "duration": 0.14772739583333383
                },
                {
                    "name": "D#3",
                    "midi": 51,
                    "time": 4.772731250000001,
                    "velocity": 0.3700787401574803,
                    "duration": 0.14772739583333383
                },
                {
                    "name": "G#2",
                    "midi": 44,
                    "time": 4.9090950000000015,
                    "velocity": 0.3464566929133858,
                    "duration": 0.14772739583333383
                },
                {
                    "name": "B3",
                    "midi": 59,
                    "time": 4.9090950000000015,
                    "velocity": 0.41732283464566927,
                    "duration": 0.14772739583333383
                },
                {
                    "name": "G2",
                    "midi": 43,
                    "time": 5.045458750000002,
                    "velocity": 0.33858267716535434,
                    "duration": 0.14772739583333383
                },
                {
                    "name": "A#3",
                    "midi": 58,
                    "time": 5.045458750000002,
                    "velocity": 0.3937007874015748,
                    "duration": 0.14772739583333383
                },
                {
                    "name": "D2",
                    "midi": 38,
                    "time": 5.181822500000002,
                    "velocity": 0.3464566929133858,
                    "duration": 0.14772739583333383
                },
                {
                    "name": "E3",
                    "midi": 52,
                    "time": 5.181822500000002,
                    "velocity": 0.41732283464566927,
                    "duration": 0.14772739583333383
                },
                {
                    "name": "D#2",
                    "midi": 39,
                    "time": 5.318186250000002,
                    "velocity": 0.36220472440944884,
                    "duration": 0.14772739583333383
                },
                {
                    "name": "D#3",
                    "midi": 51,
                    "time": 5.318186250000002,
                    "velocity": 0.4330708661417323,
                    "duration": 0.14772739583333383
                },
                {
                    "name": "G#2",
                    "midi": 44,
                    "time": 5.454550000000002,
                    "velocity": 0.4094488188976378,
                    "duration": 0.14772739583333383
                },
                {
                    "name": "B3",
                    "midi": 59,
                    "time": 5.454550000000002,
                    "velocity": 0.48031496062992124,
                    "duration": 0.14772739583333383
                },
                {
                    "name": "G2",
                    "midi": 43,
                    "time": 5.590913750000002,
                    "velocity": 0.3858267716535433,
                    "duration": 0.14772739583333383
                },
                {
                    "name": "A#3",
                    "midi": 58,
                    "time": 5.590913750000002,
                    "velocity": 0.4566929133858268,
                    "duration": 0.14772739583333383
                },
                {
                    "name": "D2",
                    "midi": 38,
                    "time": 5.727277500000002,
                    "velocity": 0.3858267716535433,
                    "duration": 0.14772739583333383
                },
                {
                    "name": "E3",
                    "midi": 52,
                    "time": 5.727277500000002,
                    "velocity": 0.4645669291338583,
                    "duration": 0.14772739583333383
                },
                {
                    "name": "D#2",
                    "midi": 39,
                    "time": 5.863641250000002,
                    "velocity": 0.4094488188976378,
                    "duration": 0.14772739583333383
                },
                {
                    "name": "D#3",
                    "midi": 51,
                    "time": 5.863641250000002,
                    "velocity": 0.48031496062992124,
                    "duration": 0.14772739583333383
                },
                {
                    "name": "G#2",
                    "midi": 44,
                    "time": 6.0000050000000025,
                    "velocity": 0.4566929133858268,
                    "duration": 0.14772739583333383
                },
                {
                    "name": "B3",
                    "midi": 59,
                    "time": 6.0000050000000025,
                    "velocity": 0.5511811023622047,
                    "duration": 0.14772739583333383
                },
                {
                    "name": "G2",
                    "midi": 43,
                    "time": 6.136368750000003,
                    "velocity": 0.4330708661417323,
                    "duration": 0.14772739583333383
                },
                {
                    "name": "A#3",
                    "midi": 58,
                    "time": 6.136368750000003,
                    "velocity": 0.5039370078740157,
                    "duration": 0.14772739583333383
                },
                {
                    "name": "D2",
                    "midi": 38,
                    "time": 6.272732500000003,
                    "velocity": 0.4330708661417323,
                    "duration": 0.14772739583333383
                },
                {
                    "name": "E3",
                    "midi": 52,
                    "time": 6.272732500000003,
                    "velocity": 0.5196850393700787,
                    "duration": 0.14772739583333383
                },
                {
                    "name": "D#2",
                    "midi": 39,
                    "time": 6.409096250000003,
                    "velocity": 0.44881889763779526,
                    "duration": 0.13636375000000012
                },
                {
                    "name": "D#3",
                    "midi": 51,
                    "time": 6.409096250000003,
                    "velocity": 0.5354330708661418,
                    "duration": 0.13636375000000012
                },
                {
                    "name": "G#2",
                    "midi": 44,
                    "time": 6.545460000000003,
                    "velocity": 0.49606299212598426,
                    "duration": 0.5454550000000005
                },
                {
                    "name": "D#2",
                    "midi": 39,
                    "time": 6.545460000000003,
                    "velocity": 0.49606299212598426,
                    "duration": 0.5454550000000005
                },
                {
                    "name": "D#3",
                    "midi": 51,
                    "time": 6.545460000000003,
                    "velocity": 0.5905511811023622,
                    "duration": 0.5454550000000005
                },
                {
                    "name": "D3",
                    "midi": 50,
                    "time": 7.363642500000004,
                    "velocity": 0.31496062992125984,
                    "duration": 0.13636375000000012
                },
                {
                    "name": "F3",
                    "midi": 53,
                    "time": 7.363642500000004,
                    "velocity": 0.31496062992125984,
                    "duration": 0.13636375000000012
                },
                {
                    "name": "A#3",
                    "midi": 58,
                    "time": 7.363642500000004,
                    "velocity": 0.3700787401574803,
                    "duration": 0.13636375000000012
                },
                {
                    "name": "D#3",
                    "midi": 51,
                    "time": 7.500006250000004,
                    "velocity": 0.33070866141732286,
                    "duration": 0.13636375000000012
                },
                {
                    "name": "F#3",
                    "midi": 54,
                    "time": 7.500006250000004,
                    "velocity": 0.33070866141732286,
                    "duration": 0.13636375000000012
                },
                {
                    "name": "B3",
                    "midi": 59,
                    "time": 7.500006250000004,
                    "velocity": 0.3937007874015748,
                    "duration": 0.13636375000000012
                },
                {
                    "name": "E3",
                    "midi": 52,
                    "time": 7.636370000000004,
                    "velocity": 0.3543307086614173,
                    "duration": 0.13636375000000012
                },
                {
                    "name": "G3",
                    "midi": 55,
                    "time": 7.636370000000004,
                    "velocity": 0.3543307086614173,
                    "duration": 0.13636375000000012
                },
                {
                    "name": "C4",
                    "midi": 60,
                    "time": 7.636370000000004,
                    "velocity": 0.41732283464566927,
                    "duration": 0.13636375000000012
                },
                {
                    "name": "F3",
                    "midi": 53,
                    "time": 7.772733750000004,
                    "velocity": 0.36220472440944884,
                    "duration": 0.13636375000000012
                },
                {
                    "name": "G#3",
                    "midi": 56,
                    "time": 7.772733750000004,
                    "velocity": 0.36220472440944884,
                    "duration": 0.13636375000000012
                },
                {
                    "name": "C#4",
                    "midi": 61,
                    "time": 7.772733750000004,
                    "velocity": 0.4330708661417323,
                    "duration": 0.13636375000000012
                },
                {
                    "name": "F#3",
                    "midi": 54,
                    "time": 7.909097500000004,
                    "velocity": 0.3858267716535433,
                    "duration": 0.13636375000000012
                },
                {
                    "name": "A3",
                    "midi": 57,
                    "time": 7.909097500000004,
                    "velocity": 0.3858267716535433,
                    "duration": 0.13636375000000012
                },
                {
                    "name": "D4",
                    "midi": 62,
                    "time": 7.909097500000004,
                    "velocity": 0.4566929133858268,
                    "duration": 0.13636375000000012
                },
                {
                    "name": "F#3",
                    "midi": 54,
                    "time": 8.045461250000004,
                    "velocity": 0.4015748031496063,
                    "duration": 0.13636374999999923
                },
                {
                    "name": "A#3",
                    "midi": 58,
                    "time": 8.045461250000004,
                    "velocity": 0.48031496062992124,
                    "duration": 0.13636374999999923
                },
                {
                    "name": "D#4",
                    "midi": 63,
                    "time": 8.045461250000004,
                    "velocity": 0.48031496062992124,
                    "duration": 0.13636374999999923
                },
                {
                    "name": "G#3",
                    "midi": 56,
                    "time": 8.181825000000003,
                    "velocity": 0.49606299212598426,
                    "duration": 0.13636374999999923
                },
                {
                    "name": "D#2",
                    "midi": 39,
                    "time": 8.727280000000002,
                    "velocity": 0.29133858267716534,
                    "duration": 0.13636374999999923
                },
                {
                    "name": "B2",
                    "midi": 47,
                    "time": 8.727280000000002,
                    "velocity": 0.3543307086614173,
                    "duration": 0.13636374999999923
                },
                {
                    "name": "A#3",
                    "midi": 58,
                    "time": 9.272735,
                    "velocity": 0.2204724409448819,
                    "duration": 0.5454550000000005
                },
                {
                    "name": "G3",
                    "midi": 55,
                    "time": 9.272735,
                    "velocity": 0.2204724409448819,
                    "duration": 0.5454550000000005
                },
                {
                    "name": "E4",
                    "midi": 64,
                    "time": 9.272735,
                    "velocity": 0.25196850393700787,
                    "duration": 0.5454550000000005
                },
                {
                    "name": "G#3",
                    "midi": 56,
                    "time": 9.818190000000001,
                    "velocity": 0.18110236220472442,
                    "duration": 0.27272750000000023
                },
                {
                    "name": "B3",
                    "midi": 59,
                    "time": 9.818190000000001,
                    "velocity": 0.18110236220472442,
                    "duration": 0.27272750000000023
                },
                {
                    "name": "E4",
                    "midi": 64,
                    "time": 9.818190000000001,
                    "velocity": 0.2204724409448819,
                    "duration": 0.27272750000000023
                },
                {
                    "name": "A#2",
                    "midi": 46,
                    "time": 10.363645000000002,
                    "velocity": 0.28346456692913385,
                    "duration": 0.14772739583333205
                },
                {
                    "name": "C#4",
                    "midi": 61,
                    "time": 10.363645000000002,
                    "velocity": 0.33070866141732286,
                    "duration": 0.14772739583333205
                },
                {
                    "name": "G#2",
                    "midi": 44,
                    "time": 10.500008750000001,
                    "velocity": 0.25984251968503935,
                    "duration": 0.14772739583333205
                },
                {
                    "name": "B3",
                    "midi": 59,
                    "time": 10.500008750000001,
                    "velocity": 0.30708661417322836,
                    "duration": 0.14772739583333205
                },
                {
                    "name": "D#2",
                    "midi": 39,
                    "time": 10.6363725,
                    "velocity": 0.25984251968503935,
                    "duration": 0.14772739583333205
                },
                {
                    "name": "F#3",
                    "midi": 54,
                    "time": 10.6363725,
                    "velocity": 0.31496062992125984,
                    "duration": 0.14772739583333205
                },
                {
                    "name": "G#2",
                    "midi": 44,
                    "time": 10.77273625,
                    "velocity": 0.2755905511811024,
                    "duration": 0.14772739583333205
                },
                {
                    "name": "E3",
                    "midi": 52,
                    "time": 10.77273625,
                    "velocity": 0.33070866141732286,
                    "duration": 0.14772739583333205
                },
                {
                    "name": "A#2",
                    "midi": 46,
                    "time": 10.909099999999999,
                    "velocity": 0.30708661417322836,
                    "duration": 0.14772739583333205
                },
                {
                    "name": "C#4",
                    "midi": 61,
                    "time": 10.909099999999999,
                    "velocity": 0.3700787401574803,
                    "duration": 0.14772739583333205
                },
                {
                    "name": "G#2",
                    "midi": 44,
                    "time": 11.045463749999998,
                    "velocity": 0.2992125984251969,
                    "duration": 0.14772739583333205
                },
                {
                    "name": "B3",
                    "midi": 59,
                    "time": 11.045463749999998,
                    "velocity": 0.3543307086614173,
                    "duration": 0.14772739583333205
                },
                {
                    "name": "D#2",
                    "midi": 39,
                    "time": 11.181827499999997,
                    "velocity": 0.30708661417322836,
                    "duration": 0.14772739583333205
                },
                {
                    "name": "F#3",
                    "midi": 54,
                    "time": 11.181827499999997,
                    "velocity": 0.3700787401574803,
                    "duration": 0.14772739583333205
                },
                {
                    "name": "G#2",
                    "midi": 44,
                    "time": 11.318191249999996,
                    "velocity": 0.31496062992125984,
                    "duration": 0.14772739583333205
                },
                {
                    "name": "E3",
                    "midi": 52,
                    "time": 11.318191249999996,
                    "velocity": 0.3700787401574803,
                    "duration": 0.14772739583333205
                },
                {
                    "name": "A#2",
                    "midi": 46,
                    "time": 11.454554999999996,
                    "velocity": 0.3464566929133858,
                    "duration": 0.14772739583333205
                },
                {
                    "name": "C#4",
                    "midi": 61,
                    "time": 11.454554999999996,
                    "velocity": 0.41732283464566927,
                    "duration": 0.14772739583333205
                },
                {
                    "name": "G#2",
                    "midi": 44,
                    "time": 11.590918749999995,
                    "velocity": 0.33858267716535434,
                    "duration": 0.14772739583333205
                },
                {
                    "name": "B3",
                    "midi": 59,
                    "time": 11.590918749999995,
                    "velocity": 0.3937007874015748,
                    "duration": 0.14772739583333205
                },
                {
                    "name": "D#2",
                    "midi": 39,
                    "time": 11.727282499999994,
                    "velocity": 0.3464566929133858,
                    "duration": 0.14772739583333205
                },
                {
                    "name": "F#3",
                    "midi": 54,
                    "time": 11.727282499999994,
                    "velocity": 0.41732283464566927,
                    "duration": 0.14772739583333205
                },
                {
                    "name": "G#2",
                    "midi": 44,
                    "time": 11.863646249999993,
                    "velocity": 0.36220472440944884,
                    "duration": 0.14772739583333205
                },
                {
                    "name": "E3",
                    "midi": 52,
                    "time": 11.863646249999993,
                    "velocity": 0.4330708661417323,
                    "duration": 0.14772739583333205
                },
                {
                    "name": "A#2",
                    "midi": 46,
                    "time": 12.000009999999993,
                    "velocity": 0.4094488188976378,
                    "duration": 0.14772739583333205
                },
                {
                    "name": "C#4",
                    "midi": 61,
                    "time": 12.000009999999993,
                    "velocity": 0.48031496062992124,
                    "duration": 0.14772739583333205
                },
                {
                    "name": "G#2",
                    "midi": 44,
                    "time": 12.136373749999992,
                    "velocity": 0.3858267716535433,
                    "duration": 0.14772739583333205
                },
                {
                    "name": "B3",
                    "midi": 59,
                    "time": 12.136373749999992,
                    "velocity": 0.4566929133858268,
                    "duration": 0.14772739583333205
                },
                {
                    "name": "D#2",
                    "midi": 39,
                    "time": 12.272737499999991,
                    "velocity": 0.3858267716535433,
                    "duration": 0.14772739583333205
                },
                {
                    "name": "F#3",
                    "midi": 54,
                    "time": 12.272737499999991,
                    "velocity": 0.4645669291338583,
                    "duration": 0.14772739583333205
                },
                {
                    "name": "G#2",
                    "midi": 44,
                    "time": 12.40910124999999,
                    "velocity": 0.4094488188976378,
                    "duration": 0.14772739583333205
                },
                {
                    "name": "E3",
                    "midi": 52,
                    "time": 12.40910124999999,
                    "velocity": 0.48031496062992124,
                    "duration": 0.14772739583333205
                },
                {
                    "name": "A#2",
                    "midi": 46,
                    "time": 12.54546499999999,
                    "velocity": 0.4566929133858268,
                    "duration": 0.14772739583333205
                },
                {
                    "name": "C#4",
                    "midi": 61,
                    "time": 12.54546499999999,
                    "velocity": 0.5511811023622047,
                    "duration": 0.14772739583333205
                },
                {
                    "name": "G#2",
                    "midi": 44,
                    "time": 12.681828749999989,
                    "velocity": 0.4330708661417323,
                    "duration": 0.14772739583333205
                },
                {
                    "name": "B3",
                    "midi": 59,
                    "time": 12.681828749999989,
                    "velocity": 0.5039370078740157,
                    "duration": 0.14772739583333205
                },
                {
                    "name": "D#2",
                    "midi": 39,
                    "time": 12.818192499999988,
                    "velocity": 0.4330708661417323,
                    "duration": 0.14772739583333205
                },
                {
                    "name": "F#3",
                    "midi": 54,
                    "time": 12.818192499999988,
                    "velocity": 0.5196850393700787,
                    "duration": 0.14772739583333205
                },
                {
                    "name": "G#2",
                    "midi": 44,
                    "time": 12.954556249999987,
                    "velocity": 0.44881889763779526,
                    "duration": 0.13636374999999923
                },
                {
                    "name": "E3",
                    "midi": 52,
                    "time": 12.954556249999987,
                    "velocity": 0.5354330708661418,
                    "duration": 0.13636374999999923
                },
                {
                    "name": "A2",
                    "midi": 45,
                    "time": 13.090919999999986,
                    "velocity": 0.49606299212598426,
                    "duration": 0.5454550000000005
                },
                {
                    "name": "D#2",
                    "midi": 39,
                    "time": 13.090919999999986,
                    "velocity": 0.49606299212598426,
                    "duration": 0.5454550000000005
                },
                {
                    "name": "D#3",
                    "midi": 51,
                    "time": 13.090919999999986,
                    "velocity": 0.5905511811023622,
                    "duration": 0.5454550000000005
                },
                {
                    "name": "F#3",
                    "midi": 54,
                    "time": 13.909102499999987,
                    "velocity": 0.3543307086614173,
                    "duration": 0.13636374999999923
                },
                {
                    "name": "G3",
                    "midi": 55,
                    "time": 14.045466249999986,
                    "velocity": 0.3700787401574803,
                    "duration": 0.13636374999999923
                },
                {
                    "name": "G#3",
                    "midi": 56,
                    "time": 14.181829999999986,
                    "velocity": 0.3937007874015748,
                    "duration": 0.13636374999999923
                },
                {
                    "name": "A3",
                    "midi": 57,
                    "time": 14.318193749999985,
                    "velocity": 0.4094488188976378,
                    "duration": 0.13636374999999923
                },
                {
                    "name": "A#3",
                    "midi": 58,
                    "time": 14.454557499999984,
                    "velocity": 0.4330708661417323,
                    "duration": 0.13636374999999923
                },
                {
                    "name": "B3",
                    "midi": 59,
                    "time": 14.590921249999983,
                    "velocity": 0.44881889763779526,
                    "duration": 0.13636374999999923
                },
                {
                    "name": "C4",
                    "midi": 60,
                    "time": 14.727284999999982,
                    "velocity": 0.5590551181102362,
                    "duration": 0.13636374999999923
                },
                {
                    "name": "D#2",
                    "midi": 39,
                    "time": 15.272739999999981,
                    "velocity": 0.4251968503937008,
                    "duration": 0.136363750000001
                },
                {
                    "name": "D#3",
                    "midi": 51,
                    "time": 15.272739999999981,
                    "velocity": 0.5039370078740157,
                    "duration": 0.136363750000001
                },
                {
                    "name": "A3",
                    "midi": 57,
                    "time": 15.818194999999982,
                    "velocity": 0.5275590551181102,
                    "duration": 0.5454550000000005
                },
                {
                    "name": "D#3",
                    "midi": 51,
                    "time": 15.818194999999982,
                    "velocity": 0.4409448818897638,
                    "duration": 0.5454550000000005
                },
                {
                    "name": "D#4",
                    "midi": 63,
                    "time": 15.818194999999982,
                    "velocity": 0.5275590551181102,
                    "duration": 0.5454550000000005
                },
                {
                    "name": "D#1",
                    "midi": 27,
                    "time": 16.363649999999982,
                    "velocity": 0.4094488188976378,
                    "duration": 0.27272749999999846
                },
                {
                    "name": "D#2",
                    "midi": 39,
                    "time": 16.363649999999982,
                    "velocity": 0.4881889763779528,
                    "duration": 0.27272749999999846
                },
                {
                    "name": "G#3",
                    "midi": 56,
                    "time": 17.18183249999998,
                    "velocity": 0.3858267716535433,
                    "duration": 0.136363750000001
                },
                {
                    "name": "A3",
                    "midi": 57,
                    "time": 17.318196249999982,
                    "velocity": 0.4015748031496063,
                    "duration": 0.136363750000001
                },
                {
                    "name": "A#3",
                    "midi": 58,
                    "time": 17.454559999999983,
                    "velocity": 0.4330708661417323,
                    "duration": 0.136363750000001
                },
                {
                    "name": "B3",
                    "midi": 59,
                    "time": 17.590923749999984,
                    "velocity": 0.44881889763779526,
                    "duration": 0.136363750000001
                },
                {
                    "name": "C4",
                    "midi": 60,
                    "time": 17.727287499999985,
                    "velocity": 0.47244094488188976,
                    "duration": 0.136363750000001
                },
                {
                    "name": "C#4",
                    "midi": 61,
                    "time": 17.863651249999986,
                    "velocity": 0.4881889763779528,
                    "duration": 0.136363750000001
                },
                {
                    "name": "D4",
                    "midi": 62,
                    "time": 18.000014999999987,
                    "velocity": 0.5590551181102362,
                    "duration": 0.136363750000001
                },
                {
                    "name": "D#2",
                    "midi": 39,
                    "time": 18.545469999999987,
                    "velocity": 0.4251968503937008,
                    "duration": 0.136363750000001
                },
                {
                    "name": "D#3",
                    "midi": 51,
                    "time": 18.545469999999987,
                    "velocity": 0.5039370078740157,
                    "duration": 0.136363750000001
                },
                {
                    "name": "A#3",
                    "midi": 58,
                    "time": 19.090924999999988,
                    "velocity": 0.4566929133858268,
                    "duration": 0.5454550000000005
                },
                {
                    "name": "D4",
                    "midi": 62,
                    "time": 19.090924999999988,
                    "velocity": 0.5511811023622047,
                    "duration": 0.5454550000000005
                },
                {
                    "name": "G#3",
                    "midi": 56,
                    "time": 19.090924999999988,
                    "velocity": 0.4566929133858268,
                    "duration": 0.5454550000000005
                },
                {
                    "name": "G#4",
                    "midi": 68,
                    "time": 19.090924999999988,
                    "velocity": 0.5511811023622047,
                    "duration": 0.5454550000000005
                },
                {
                    "name": "D#1",
                    "midi": 27,
                    "time": 19.63637999999999,
                    "velocity": 0.4251968503937008,
                    "duration": 0.27272749999999846
                },
                {
                    "name": "D#2",
                    "midi": 39,
                    "time": 19.63637999999999,
                    "velocity": 0.5118110236220472,
                    "duration": 0.27272749999999846
                },
                {
                    "name": "A#1",
                    "midi": 34,
                    "time": 20.181834999999985,
                    "velocity": 0.4251968503937008,
                    "duration": 0.136363750000001
                },
                {
                    "name": "A#2",
                    "midi": 46,
                    "time": 20.181834999999985,
                    "velocity": 0.5039370078740157,
                    "duration": 0.136363750000001
                },
                {
                    "name": "D#2",
                    "midi": 39,
                    "time": 20.454562499999987,
                    "velocity": 0.36220472440944884,
                    "duration": 0.0681818750000005
                },
                {
                    "name": "D#3",
                    "midi": 51,
                    "time": 20.454562499999987,
                    "velocity": 0.4330708661417323,
                    "duration": 0.0681818750000005
                },
                {
                    "name": "F2",
                    "midi": 41,
                    "time": 20.59092624999999,
                    "velocity": 0.3858267716535433,
                    "duration": 0.0681818750000005
                },
                {
                    "name": "F3",
                    "midi": 53,
                    "time": 20.59092624999999,
                    "velocity": 0.4566929133858268,
                    "duration": 0.0681818750000005
                },
                {
                    "name": "G2",
                    "midi": 43,
                    "time": 20.72728999999999,
                    "velocity": 0.4015748031496063,
                    "duration": 0.0681818750000005
                },
                {
                    "name": "G3",
                    "midi": 55,
                    "time": 20.72728999999999,
                    "velocity": 0.47244094488188976,
                    "duration": 0.0681818750000005
                },
                {
                    "name": "G#2",
                    "midi": 44,
                    "time": 20.86365374999999,
                    "velocity": 0.4094488188976378,
                    "duration": 0.0681818750000005
                },
                {
                    "name": "G#3",
                    "midi": 56,
                    "time": 20.86365374999999,
                    "velocity": 0.4881889763779528,
                    "duration": 0.0681818750000005
                },
                {
                    "name": "A#2",
                    "midi": 46,
                    "time": 21.00001749999999,
                    "velocity": 0.4330708661417323,
                    "duration": 0.0681818750000005
                },
                {
                    "name": "A#3",
                    "midi": 58,
                    "time": 21.00001749999999,
                    "velocity": 0.5118110236220472,
                    "duration": 0.0681818750000005
                },
                {
                    "name": "C3",
                    "midi": 48,
                    "time": 21.136381249999992,
                    "velocity": 0.4409448818897638,
                    "duration": 0.0681818750000005
                },
                {
                    "name": "C4",
                    "midi": 60,
                    "time": 21.136381249999992,
                    "velocity": 0.5275590551181102,
                    "duration": 0.0681818750000005
                },
                {
                    "name": "C#3",
                    "midi": 49,
                    "time": 21.272744999999993,
                    "velocity": 0.4645669291338583,
                    "duration": 0.0681818750000005
                },
                {
                    "name": "C#4",
                    "midi": 61,
                    "time": 21.272744999999993,
                    "velocity": 0.5511811023622047,
                    "duration": 0.0681818750000005
                },
                {
                    "name": "D#2",
                    "midi": 39,
                    "time": 21.818199999999994,
                    "velocity": 0.4251968503937008,
                    "duration": 0.0681818750000005
                },
                {
                    "name": "D#3",
                    "midi": 51,
                    "time": 21.818199999999994,
                    "velocity": 0.5039370078740157,
                    "duration": 0.0681818750000005
                },
                {
                    "name": "G3",
                    "midi": 55,
                    "time": 22.363654999999994,
                    "velocity": 0.4645669291338583,
                    "duration": 0.5454550000000005
                },
                {
                    "name": "G4",
                    "midi": 67,
                    "time": 22.363654999999994,
                    "velocity": 0.5511811023622047,
                    "duration": 0.6818187500000015
                },
                {
                    "name": "C#4",
                    "midi": 61,
                    "time": 23.045473749999996,
                    "velocity": 0.41732283464566927,
                    "duration": 0.136363750000001
                },
                {
                    "name": "A#3",
                    "midi": 58,
                    "time": 23.181837499999997,
                    "velocity": 0.41732283464566927,
                    "duration": 0.136363750000001
                },
                {
                    "name": "D#3",
                    "midi": 51,
                    "time": 23.318201249999998,
                    "velocity": 0.4251968503937008,
                    "duration": 0.136363750000001
                },
                {
                    "name": "G4",
                    "midi": 67,
                    "time": 23.454565,
                    "velocity": 0.49606299212598426,
                    "duration": 0.136363750000001
                },
                {
                    "name": "C#4",
                    "midi": 61,
                    "time": 23.59092875,
                    "velocity": 0.4566929133858268,
                    "duration": 0.136363750000001
                },
                {
                    "name": "A#3",
                    "midi": 58,
                    "time": 23.7272925,
                    "velocity": 0.4566929133858268,
                    "duration": 0.136363750000001
                },
                {
                    "name": "D#3",
                    "midi": 51,
                    "time": 23.863656250000002,
                    "velocity": 0.4566929133858268,
                    "duration": 0.136363750000001
                },
                {
                    "name": "G4",
                    "midi": 67,
                    "time": 24.000020000000003,
                    "velocity": 0.49606299212598426,
                    "duration": 0.136363750000001
                },
                {
                    "name": "C#4",
                    "midi": 61,
                    "time": 24.136383750000004,
                    "velocity": 0.4566929133858268,
                    "duration": 0.136363750000001
                },
                {
                    "name": "A#3",
                    "midi": 58,
                    "time": 24.272747500000005,
                    "velocity": 0.4566929133858268,
                    "duration": 0.136363750000001
                },
                {
                    "name": "D#3",
                    "midi": 51,
                    "time": 24.409111250000006,
                    "velocity": 0.4645669291338583,
                    "duration": 0.136363750000001
                },
                {
                    "name": "G4",
                    "midi": 67,
                    "time": 24.545475000000007,
                    "velocity": 0.5354330708661418,
                    "duration": 0.136363750000001
                },
                {
                    "name": "C#4",
                    "midi": 61,
                    "time": 24.681838750000008,
                    "velocity": 0.47244094488188976,
                    "duration": 0.136363750000001
                },
                {
                    "name": "A#3",
                    "midi": 58,
                    "time": 24.81820250000001,
                    "velocity": 0.48031496062992124,
                    "duration": 0.136363750000001
                },
                {
                    "name": "D#3",
                    "midi": 51,
                    "time": 24.95456625000001,
                    "velocity": 0.4881889763779528,
                    "duration": 0.136363750000001
                },
                {
                    "name": "C#4",
                    "midi": 61,
                    "time": 25.09093000000001,
                    "velocity": 0.5511811023622047,
                    "duration": 0.136363750000001
                },
                {
                    "name": "G3",
                    "midi": 55,
                    "time": 25.227293750000012,
                    "velocity": 0.49606299212598426,
                    "duration": 0.136363750000001
                },
                {
                    "name": "D#3",
                    "midi": 51,
                    "time": 25.363657500000013,
                    "velocity": 0.49606299212598426,
                    "duration": 0.136363750000001
                },
                {
                    "name": "A#2",
                    "midi": 46,
                    "time": 25.500021250000014,
                    "velocity": 0.49606299212598426,
                    "duration": 0.136363750000001
                },
                {
                    "name": "G3",
                    "midi": 55,
                    "time": 25.636385000000015,
                    "velocity": 0.5669291338582677,
                    "duration": 0.136363750000001
                },
                {
                    "name": "C#3",
                    "midi": 49,
                    "time": 25.772748750000016,
                    "velocity": 0.5196850393700787,
                    "duration": 0.136363750000001
                },
                {
                    "name": "A#2",
                    "midi": 46,
                    "time": 25.909112500000017,
                    "velocity": 0.5118110236220472,
                    "duration": 0.136363750000001
                },
                {
                    "name": "D#2",
                    "midi": 39,
                    "time": 26.045476250000018,
                    "velocity": 0.5196850393700787,
                    "duration": 0.136363750000001
                },
                {
                    "name": "G#1",
                    "midi": 32,
                    "time": 26.18184000000002,
                    "velocity": 0.48031496062992124,
                    "duration": 0.136363750000001
                },
                {
                    "name": "G#2",
                    "midi": 44,
                    "time": 26.18184000000002,
                    "velocity": 0.5669291338582677,
                    "duration": 0.136363750000001
                },
                {
                    "name": "D#3",
                    "midi": 51,
                    "time": 26.45456750000002,
                    "velocity": 0.48031496062992124,
                    "duration": 0.27272749999999846
                },
                {
                    "name": "D#4",
                    "midi": 63,
                    "time": 26.45456750000002,
                    "velocity": 0.5669291338582677,
                    "duration": 0.27272749999999846
                },
                {
                    "name": "G#4",
                    "midi": 68,
                    "time": 26.72729500000002,
                    "velocity": 0.5511811023622047,
                    "duration": 0.27272749999999846
                },
                {
                    "name": "C4",
                    "midi": 60,
                    "time": 26.72729500000002,
                    "velocity": 0.5511811023622047,
                    "duration": 0.27272749999999846
                },
                {
                    "name": "G#3",
                    "midi": 56,
                    "time": 26.72729500000002,
                    "velocity": 0.4645669291338583,
                    "duration": 0.27272749999999846
                },
                {
                    "name": "D#2",
                    "midi": 39,
                    "time": 27.000022500000018,
                    "velocity": 0.5196850393700787,
                    "duration": 0.0681818750000005
                },
                {
                    "name": "D#3",
                    "midi": 51,
                    "time": 27.000022500000018,
                    "velocity": 0.6141732283464567,
                    "duration": 0.0681818750000005
                },
                {
                    "name": "G#2",
                    "midi": 44,
                    "time": 27.27275000000002,
                    "velocity": 0.5275590551181102,
                    "duration": 0.136363750000001
                },
                {
                    "name": "G#3",
                    "midi": 56,
                    "time": 27.27275000000002,
                    "velocity": 0.6220472440944882,
                    "duration": 0.136363750000001
                },
                {
                    "name": "D#1",
                    "midi": 27,
                    "time": 27.545477500000022,
                    "velocity": 0.4409448818897638,
                    "duration": 0.27272749999999846
                },
                {
                    "name": "D#2",
                    "midi": 39,
                    "time": 27.545477500000022,
                    "velocity": 0.5275590551181102,
                    "duration": 0.27272749999999846
                },
                {
                    "name": "G#1",
                    "midi": 32,
                    "time": 27.81820500000002,
                    "velocity": 0.48031496062992124,
                    "duration": 0.27272749999999846
                },
                {
                    "name": "G#2",
                    "midi": 44,
                    "time": 27.81820500000002,
                    "velocity": 0.5669291338582677,
                    "duration": 0.27272749999999846
                },
                {
                    "name": "D#4",
                    "midi": 63,
                    "time": 28.09093250000002,
                    "velocity": 0.5275590551181102,
                    "duration": 0.27272749999999846
                },
                {
                    "name": "D#3",
                    "midi": 51,
                    "time": 28.09093250000002,
                    "velocity": 0.4409448818897638,
                    "duration": 0.27272749999999846
                },
                {
                    "name": "G#4",
                    "midi": 68,
                    "time": 28.363660000000017,
                    "velocity": 0.5433070866141733,
                    "duration": 0.272727500000002
                },
                {
                    "name": "C4",
                    "midi": 60,
                    "time": 28.363660000000017,
                    "velocity": 0.5433070866141733,
                    "duration": 0.272727500000002
                },
                {
                    "name": "G#3",
                    "midi": 56,
                    "time": 28.363660000000017,
                    "velocity": 0.4566929133858268,
                    "duration": 0.272727500000002
                },
                {
                    "name": "D#2",
                    "midi": 39,
                    "time": 28.63638750000002,
                    "velocity": 0.48031496062992124,
                    "duration": 0.0681818750000005
                },
                {
                    "name": "D#3",
                    "midi": 51,
                    "time": 28.63638750000002,
                    "velocity": 0.5748031496062992,
                    "duration": 0.0681818750000005
                },
                {
                    "name": "G#2",
                    "midi": 44,
                    "time": 28.90911500000002,
                    "velocity": 0.5275590551181102,
                    "duration": 0.136363750000001
                },
                {
                    "name": "G#3",
                    "midi": 56,
                    "time": 28.90911500000002,
                    "velocity": 0.6220472440944882,
                    "duration": 0.136363750000001
                },
                {
                    "name": "D#1",
                    "midi": 27,
                    "time": 29.181842500000023,
                    "velocity": 0.4409448818897638,
                    "duration": 0.27272749999999846
                },
                {
                    "name": "D#2",
                    "midi": 39,
                    "time": 29.181842500000023,
                    "velocity": 0.5275590551181102,
                    "duration": 0.27272749999999846
                },
                {
                    "name": "G#1",
                    "midi": 32,
                    "time": 29.45457000000002,
                    "velocity": 0.48031496062992124,
                    "duration": 0.272727500000002
                },
                {
                    "name": "G#2",
                    "midi": 44,
                    "time": 29.45457000000002,
                    "velocity": 0.5669291338582677,
                    "duration": 0.272727500000002
                },
                {
                    "name": "D#4",
                    "midi": 63,
                    "time": 29.727297500000024,
                    "velocity": 0.5275590551181102,
                    "duration": 0.27272749999999846
                },
                {
                    "name": "D#3",
                    "midi": 51,
                    "time": 29.727297500000024,
                    "velocity": 0.4409448818897638,
                    "duration": 0.27272749999999846
                },
                {
                    "name": "G#4",
                    "midi": 68,
                    "time": 30.000025000000022,
                    "velocity": 0.5433070866141733,
                    "duration": 0.27272749999999846
                },
                {
                    "name": "C4",
                    "midi": 60,
                    "time": 30.000025000000022,
                    "velocity": 0.5433070866141733,
                    "duration": 0.27272749999999846
                },
                {
                    "name": "G#3",
                    "midi": 56,
                    "time": 30.000025000000022,
                    "velocity": 0.4566929133858268,
                    "duration": 0.27272749999999846
                },
                {
                    "name": "D#2",
                    "midi": 39,
                    "time": 30.27275250000002,
                    "velocity": 0.4409448818897638,
                    "duration": 0.136363750000001
                },
                {
                    "name": "D#3",
                    "midi": 51,
                    "time": 30.27275250000002,
                    "velocity": 0.5275590551181102,
                    "duration": 0.136363750000001
                },
                {
                    "name": "G#2",
                    "midi": 44,
                    "time": 30.545480000000023,
                    "velocity": 0.4645669291338583,
                    "duration": 0.136363750000001
                },
                {
                    "name": "G#3",
                    "midi": 56,
                    "time": 30.545480000000023,
                    "velocity": 0.5511811023622047,
                    "duration": 0.136363750000001
                },
                {
                    "name": "D#2",
                    "midi": 39,
                    "time": 30.750025625000024,
                    "velocity": 0.44881889763779526,
                    "duration": 0.23863656250000176
                },
                {
                    "name": "A#2",
                    "midi": 46,
                    "time": 30.784116562500024,
                    "velocity": 0.44881889763779526,
                    "duration": 0.2045456250000015
                },
                {
                    "name": "F#3",
                    "midi": 54,
                    "time": 30.818207500000025,
                    "velocity": 0.5354330708661418,
                    "duration": 0.17045468750000126
                },
                {
                    "name": "F2",
                    "midi": 41,
                    "time": 30.988662187500026,
                    "velocity": 0.44881889763779526,
                    "duration": 0.27272749999999846
                },
                {
                    "name": "C3",
                    "midi": 48,
                    "time": 31.022753125000026,
                    "velocity": 0.44881889763779526,
                    "duration": 0.34090937499999896
                },
                {
                    "name": "D#3",
                    "midi": 51,
                    "time": 31.056844062500026,
                    "velocity": 0.5354330708661418,
                    "duration": 0.20454562499999795
                },
                {
                    "name": "A3",
                    "midi": 57,
                    "time": 31.090935000000027,
                    "velocity": 0.5354330708661418,
                    "duration": 0.1704546874999977
                },
                {
                    "name": "C3",
                    "midi": 48,
                    "time": 31.261389687500024,
                    "velocity": 0.4409448818897638,
                    "duration": 0.272727500000002
                },
                {
                    "name": "F3",
                    "midi": 53,
                    "time": 31.295480625000025,
                    "velocity": 0.4409448818897638,
                    "duration": 0.23863656250000176
                },
                {
                    "name": "A3",
                    "midi": 57,
                    "time": 31.329571562500025,
                    "velocity": 0.5275590551181102,
                    "duration": 0.2045456250000015
                },
                {
                    "name": "D#4",
                    "midi": 63,
                    "time": 31.363662500000025,
                    "velocity": 0.5275590551181102,
                    "duration": 0.17045468750000126
                },
                {
                    "name": "A#2",
                    "midi": 46,
                    "time": 31.534117187500026,
                    "velocity": 0.4566929133858268,
                    "duration": 0.3750003124999992
                },
                {
                    "name": "F3",
                    "midi": 53,
                    "time": 31.568208125000027,
                    "velocity": 0.4566929133858268,
                    "duration": 0.34090937499999896
                },
                {
                    "name": "A#3",
                    "midi": 58,
                    "time": 31.602299062500027,
                    "velocity": 0.5433070866141733,
                    "duration": 0.3068184374999987
                },
                {
                    "name": "C#4",
                    "midi": 61,
                    "time": 31.636390000000027,
                    "velocity": 0.5433070866141733,
                    "duration": 0.27272749999999846
                },
                {
                    "name": "F#1",
                    "midi": 30,
                    "time": 31.909117500000026,
                    "velocity": 0.4330708661417323,
                    "duration": 0.27272749999999846
                },
                {
                    "name": "F#2",
                    "midi": 42,
                    "time": 31.909117500000026,
                    "velocity": 0.5118110236220472,
                    "duration": 0.27272749999999846
                },
                {
                    "name": "F1",
                    "midi": 29,
                    "time": 32.181845000000024,
                    "velocity": 0.4330708661417323,
                    "duration": 0.272727500000002
                },
                {
                    "name": "F2",
                    "midi": 41,
                    "time": 32.181845000000024,
                    "velocity": 0.5118110236220472,
                    "duration": 0.272727500000002
                },
                {
                    "name": "C#2",
                    "midi": 37,
                    "time": 32.454572500000026,
                    "velocity": 0.41732283464566927,
                    "duration": 0.272727500000002
                },
                {
                    "name": "C#3",
                    "midi": 49,
                    "time": 32.454572500000026,
                    "velocity": 0.49606299212598426,
                    "duration": 0.272727500000002
                },
                {
                    "name": "A#1",
                    "midi": 34,
                    "time": 32.72730000000003,
                    "velocity": 0.48031496062992124,
                    "duration": 0.136363750000001
                },
                {
                    "name": "A#2",
                    "midi": 46,
                    "time": 32.72730000000003,
                    "velocity": 0.5669291338582677,
                    "duration": 0.136363750000001
                },
                {
                    "name": "F3",
                    "midi": 53,
                    "time": 33.00002750000003,
                    "velocity": 0.48031496062992124,
                    "duration": 0.272727500000002
                },
                {
                    "name": "F4",
                    "midi": 65,
                    "time": 33.00002750000003,
                    "velocity": 0.5669291338582677,
                    "duration": 0.272727500000002
                },
                {
                    "name": "A#4",
                    "midi": 70,
                    "time": 33.27275500000003,
                    "velocity": 0.5511811023622047,
                    "duration": 0.272727500000002
                },
                {
                    "name": "C#4",
                    "midi": 61,
                    "time": 33.27275500000003,
                    "velocity": 0.5511811023622047,
                    "duration": 0.272727500000002
                },
                {
                    "name": "A#3",
                    "midi": 58,
                    "time": 33.27275500000003,
                    "velocity": 0.4645669291338583,
                    "duration": 0.272727500000002
                },
                {
                    "name": "F2",
                    "midi": 41,
                    "time": 33.545482500000034,
                    "velocity": 0.5196850393700787,
                    "duration": 0.0681818750000005
                },
                {
                    "name": "F3",
                    "midi": 53,
                    "time": 33.545482500000034,
                    "velocity": 0.6141732283464567,
                    "duration": 0.0681818750000005
                },
                {
                    "name": "A#2",
                    "midi": 46,
                    "time": 33.818210000000036,
                    "velocity": 0.5275590551181102,
                    "duration": 0.136363750000001
                },
                {
                    "name": "A#3",
                    "midi": 58,
                    "time": 33.818210000000036,
                    "velocity": 0.6220472440944882,
                    "duration": 0.136363750000001
                },
                {
                    "name": "F1",
                    "midi": 29,
                    "time": 34.09093750000004,
                    "velocity": 0.4409448818897638,
                    "duration": 0.272727500000002
                },
                {
                    "name": "F2",
                    "midi": 41,
                    "time": 34.09093750000004,
                    "velocity": 0.5275590551181102,
                    "duration": 0.272727500000002
                },
                {
                    "name": "A#1",
                    "midi": 34,
                    "time": 34.36366500000004,
                    "velocity": 0.48031496062992124,
                    "duration": 0.272727500000002
                },
                {
                    "name": "A#2",
                    "midi": 46,
                    "time": 34.36366500000004,
                    "velocity": 0.5669291338582677,
                    "duration": 0.272727500000002
                },
                {
                    "name": "F4",
                    "midi": 65,
                    "time": 34.63639250000004,
                    "velocity": 0.5275590551181102,
                    "duration": 0.272727500000002
                },
                {
                    "name": "F3",
                    "midi": 53,
                    "time": 34.63639250000004,
                    "velocity": 0.4409448818897638,
                    "duration": 0.272727500000002
                },
                {
                    "name": "A#4",
                    "midi": 70,
                    "time": 34.909120000000044,
                    "velocity": 0.5433070866141733,
                    "duration": 0.272727500000002
                },
                {
                    "name": "C#4",
                    "midi": 61,
                    "time": 34.909120000000044,
                    "velocity": 0.5433070866141733,
                    "duration": 0.272727500000002
                },
                {
                    "name": "A#3",
                    "midi": 58,
                    "time": 34.909120000000044,
                    "velocity": 0.4566929133858268,
                    "duration": 0.272727500000002
                },
                {
                    "name": "F2",
                    "midi": 41,
                    "time": 35.181847500000046,
                    "velocity": 0.48031496062992124,
                    "duration": 0.0681818750000005
                },
                {
                    "name": "F3",
                    "midi": 53,
                    "time": 35.181847500000046,
                    "velocity": 0.5748031496062992,
                    "duration": 0.0681818750000005
                },
                {
                    "name": "A#2",
                    "midi": 46,
                    "time": 35.45457500000005,
                    "velocity": 0.5275590551181102,
                    "duration": 0.136363750000001
                },
                {
                    "name": "A#3",
                    "midi": 58,
                    "time": 35.45457500000005,
                    "velocity": 0.6220472440944882,
                    "duration": 0.136363750000001
                },
                {
                    "name": "A#1",
                    "midi": 34,
                    "time": 35.72730250000005,
                    "velocity": 0.4409448818897638,
                    "duration": 0.272727500000002
                },
                {
                    "name": "A#2",
                    "midi": 46,
                    "time": 35.72730250000005,
                    "velocity": 0.5275590551181102,
                    "duration": 0.272727500000002
                },
                {
                    "name": "D#1",
                    "midi": 27,
                    "time": 36.00003000000005,
                    "velocity": 0.48031496062992124,
                    "duration": 0.136363750000001
                },
                {
                    "name": "D#2",
                    "midi": 39,
                    "time": 36.00003000000005,
                    "velocity": 0.5669291338582677,
                    "duration": 0.136363750000001
                },
                {
                    "name": "C#4",
                    "midi": 61,
                    "time": 36.272757500000054,
                    "velocity": 0.4330708661417323,
                    "duration": 0.136363750000001
                },
                {
                    "name": "G4",
                    "midi": 67,
                    "time": 36.272757500000054,
                    "velocity": 0.5196850393700787,
                    "duration": 0.136363750000001
                },
                {
                    "name": "D#4",
                    "midi": 63,
                    "time": 36.272757500000054,
                    "velocity": 0.4330708661417323,
                    "duration": 0.136363750000001
                },
                {
                    "name": "D#2",
                    "midi": 39,
                    "time": 36.545485000000056,
                    "velocity": 0.4645669291338583,
                    "duration": 0.136363750000001
                },
                {
                    "name": "D#3",
                    "midi": 51,
                    "time": 36.545485000000056,
                    "velocity": 0.5433070866141733,
                    "duration": 0.136363750000001
                },
                {
                    "name": "C4",
                    "midi": 60,
                    "time": 36.81821250000006,
                    "velocity": 0.41732283464566927,
                    "duration": 0.136363750000001
                },
                {
                    "name": "D#4",
                    "midi": 63,
                    "time": 36.81821250000006,
                    "velocity": 0.49606299212598426,
                    "duration": 0.136363750000001
                },
                {
                    "name": "D#2",
                    "midi": 39,
                    "time": 37.09094000000006,
                    "velocity": 0.44881889763779526,
                    "duration": 0.136363750000001
                },
                {
                    "name": "D#3",
                    "midi": 51,
                    "time": 37.09094000000006,
                    "velocity": 0.5275590551181102,
                    "duration": 0.136363750000001
                },
                {
                    "name": "A#3",
                    "midi": 58,
                    "time": 37.36366750000006,
                    "velocity": 0.4015748031496063,
                    "duration": 0.136363750000001
                },
                {
                    "name": "D#4",
                    "midi": 63,
                    "time": 37.36366750000006,
                    "velocity": 0.48031496062992124,
                    "duration": 0.136363750000001
                },
                {
                    "name": "A#1",
                    "midi": 34,
                    "time": 37.636395000000064,
                    "velocity": 0.4251968503937008,
                    "duration": 0.136363750000001
                },
                {
                    "name": "A#2",
                    "midi": 46,
                    "time": 37.636395000000064,
                    "velocity": 0.5039370078740157,
                    "duration": 0.136363750000001
                },
                {
                    "name": "G#3",
                    "midi": 56,
                    "time": 37.909122500000066,
                    "velocity": 0.3937007874015748,
                    "duration": 0.136363750000001
                },
                {
                    "name": "D4",
                    "midi": 62,
                    "time": 37.909122500000066,
                    "velocity": 0.47244094488188976,
                    "duration": 0.136363750000001
                },
                {
                    "name": "A#3",
                    "midi": 58,
                    "time": 37.909122500000066,
                    "velocity": 0.3937007874015748,
                    "duration": 0.136363750000001
                },
                {
                    "name": "D#2",
                    "midi": 39,
                    "time": 38.18185000000007,
                    "velocity": 0.4409448818897638,
                    "duration": 0.136363750000001
                },
                {
                    "name": "D#3",
                    "midi": 51,
                    "time": 38.18185000000007,
                    "velocity": 0.5196850393700787,
                    "duration": 0.136363750000001
                },
                {
                    "name": "G3",
                    "midi": 55,
                    "time": 38.45457750000007,
                    "velocity": 0.4094488188976378,
                    "duration": 0.136363750000001
                },
                {
                    "name": "A#3",
                    "midi": 58,
                    "time": 38.45457750000007,
                    "velocity": 0.4881889763779528,
                    "duration": 0.136363750000001
                },
                {
                    "name": "F2",
                    "midi": 41,
                    "time": 38.72730500000007,
                    "velocity": 0.44881889763779526,
                    "duration": 0.272727500000002
                },
                {
                    "name": "F3",
                    "midi": 53,
                    "time": 38.72730500000007,
                    "velocity": 0.5354330708661418,
                    "duration": 0.545455000000004
                },
                {
                    "name": "G#3",
                    "midi": 56,
                    "time": 39.000032500000074,
                    "velocity": 0.4881889763779528,
                    "duration": 0.272727500000002
                },
                {
                    "name": "C#2",
                    "midi": 37,
                    "time": 39.272760000000076,
                    "velocity": 0.4015748031496063,
                    "duration": 0.272727500000002
                },
                {
                    "name": "C#3",
                    "midi": 49,
                    "time": 39.272760000000076,
                    "velocity": 0.48031496062992124,
                    "duration": 0.272727500000002
                },
                {
                    "name": "F3",
                    "midi": 53,
                    "time": 39.54548750000008,
                    "velocity": 0.3543307086614173,
                    "duration": 0.272727500000002
                },
                {
                    "name": "A#3",
                    "midi": 58,
                    "time": 39.54548750000008,
                    "velocity": 0.41732283464566927,
                    "duration": 0.272727500000002
                },
                {
                    "name": "C2",
                    "midi": 36,
                    "time": 39.81821500000008,
                    "velocity": 0.3543307086614173,
                    "duration": 0.272727500000002
                },
                {
                    "name": "C3",
                    "midi": 48,
                    "time": 39.81821500000008,
                    "velocity": 0.4251968503937008,
                    "duration": 0.272727500000002
                },
                {
                    "name": "E3",
                    "midi": 52,
                    "time": 40.09094250000008,
                    "velocity": 0.31496062992125984,
                    "duration": 0.272727500000002
                },
                {
                    "name": "C4",
                    "midi": 60,
                    "time": 40.09094250000008,
                    "velocity": 0.3779527559055118,
                    "duration": 0.272727500000002
                },
                {
                    "name": "A#3",
                    "midi": 58,
                    "time": 40.09094250000008,
                    "velocity": 0.31496062992125984,
                    "duration": 0.272727500000002
                },
                {
                    "name": "F1",
                    "midi": 29,
                    "time": 40.363670000000084,
                    "velocity": 0.3858267716535433,
                    "duration": 0.272727500000002
                },
                {
                    "name": "F2",
                    "midi": 41,
                    "time": 40.363670000000084,
                    "velocity": 0.4566929133858268,
                    "duration": 0.272727500000002
                },
                {
                    "name": "F3",
                    "midi": 53,
                    "time": 40.636397500000086,
                    "velocity": 0.36220472440944884,
                    "duration": 0.272727500000002
                },
                {
                    "name": "G#3",
                    "midi": 56,
                    "time": 40.636397500000086,
                    "velocity": 0.36220472440944884,
                    "duration": 0.272727500000002
                },
                {
                    "name": "C4",
                    "midi": 60,
                    "time": 40.636397500000086,
                    "velocity": 0.4330708661417323,
                    "duration": 0.272727500000002
                },
                {
                    "name": "D#2",
                    "midi": 39,
                    "time": 40.90912500000009,
                    "velocity": 0.3700787401574803,
                    "duration": 0.136363750000001
                },
                {
                    "name": "D#3",
                    "midi": 51,
                    "time": 40.90912500000009,
                    "velocity": 0.4409448818897638,
                    "duration": 0.136363750000001
                },
                {
                    "name": "D#3",
                    "midi": 51,
                    "time": 41.18185250000009,
                    "velocity": 0.3464566929133858,
                    "duration": 0.272727500000002
                },
                {
                    "name": "A#3",
                    "midi": 58,
                    "time": 41.18185250000009,
                    "velocity": 0.4094488188976378,
                    "duration": 0.272727500000002
                },
                {
                    "name": "G#2",
                    "midi": 44,
                    "time": 41.45458000000009,
                    "velocity": 0.3464566929133858,
                    "duration": 0.272727500000002
                },
                {
                    "name": "D#3",
                    "midi": 51,
                    "time": 41.45458000000009,
                    "velocity": 0.3464566929133858,
                    "duration": 0.272727500000002
                },
                {
                    "name": "G#3",
                    "midi": 56,
                    "time": 41.45458000000009,
                    "velocity": 0.4094488188976378,
                    "duration": 0.272727500000002
                },
                {
                    "name": "G#2",
                    "midi": 44,
                    "time": 42.27276250000009,
                    "velocity": 0.4409448818897638,
                    "duration": 0.272727500000002
                },
                {
                    "name": "G#3",
                    "midi": 56,
                    "time": 42.27276250000009,
                    "velocity": 0.5196850393700787,
                    "duration": 0.272727500000002
                },
                {
                    "name": "C#2",
                    "midi": 37,
                    "time": 42.54549000000009,
                    "velocity": 0.44881889763779526,
                    "duration": 0.272727500000002
                },
                {
                    "name": "C#3",
                    "midi": 49,
                    "time": 42.54549000000009,
                    "velocity": 0.5354330708661418,
                    "duration": 0.272727500000002
                },
                {
                    "name": "F3",
                    "midi": 53,
                    "time": 42.818217500000095,
                    "velocity": 0.3937007874015748,
                    "duration": 0.272727500000002
                },
                {
                    "name": "A#3",
                    "midi": 58,
                    "time": 42.818217500000095,
                    "velocity": 0.4645669291338583,
                    "duration": 0.272727500000002
                },
                {
                    "name": "C2",
                    "midi": 36,
                    "time": 43.0909450000001,
                    "velocity": 0.4566929133858268,
                    "duration": 0.272727500000002
                },
                {
                    "name": "C3",
                    "midi": 48,
                    "time": 43.0909450000001,
                    "velocity": 0.5433070866141733,
                    "duration": 0.272727500000002
                },
                {
                    "name": "A#3",
                    "midi": 58,
                    "time": 43.3636725000001,
                    "velocity": 0.4094488188976378,
                    "duration": 0.272727500000002
                },
                {
                    "name": "E4",
                    "midi": 64,
                    "time": 43.3636725000001,
                    "velocity": 0.4881889763779528,
                    "duration": 0.272727500000002
                },
                {
                    "name": "C4",
                    "midi": 60,
                    "time": 43.3636725000001,
                    "velocity": 0.4094488188976378,
                    "duration": 0.272727500000002
                },
                {
                    "name": "F1",
                    "midi": 29,
                    "time": 43.6364000000001,
                    "velocity": 0.47244094488188976,
                    "duration": 0.272727500000002
                },
                {
                    "name": "F2",
                    "midi": 41,
                    "time": 43.6364000000001,
                    "velocity": 0.5590551181102362,
                    "duration": 0.272727500000002
                },
                {
                    "name": "G#3",
                    "midi": 56,
                    "time": 43.9091275000001,
                    "velocity": 0.5275590551181102,
                    "duration": 0.272727500000002
                },
                {
                    "name": "C4",
                    "midi": 60,
                    "time": 43.9091275000001,
                    "velocity": 0.5275590551181102,
                    "duration": 0.272727500000002
                },
                {
                    "name": "F4",
                    "midi": 65,
                    "time": 43.9091275000001,
                    "velocity": 0.5275590551181102,
                    "duration": 0.272727500000002
                },
                {
                    "name": "D#2",
                    "midi": 39,
                    "time": 44.181855000000105,
                    "velocity": 0.4645669291338583,
                    "duration": 0.136363750000001
                },
                {
                    "name": "D#3",
                    "midi": 51,
                    "time": 44.181855000000105,
                    "velocity": 0.5511811023622047,
                    "duration": 0.136363750000001
                },
                {
                    "name": "A#3",
                    "midi": 58,
                    "time": 44.45458250000011,
                    "velocity": 0.4330708661417323,
                    "duration": 0.272727500000002
                },
                {
                    "name": "C#4",
                    "midi": 61,
                    "time": 44.45458250000011,
                    "velocity": 0.4330708661417323,
                    "duration": 0.272727500000002
                },
                {
                    "name": "D#4",
                    "midi": 63,
                    "time": 44.45458250000011,
                    "velocity": 0.4330708661417323,
                    "duration": 0.272727500000002
                },
                {
                    "name": "G4",
                    "midi": 67,
                    "time": 44.45458250000011,
                    "velocity": 0.5118110236220472,
                    "duration": 0.272727500000002
                },
                {
                    "name": "G#3",
                    "midi": 56,
                    "time": 44.72731000000011,
                    "velocity": 0.4330708661417323,
                    "duration": 0.136363750000001
                },
                {
                    "name": "D#4",
                    "midi": 63,
                    "time": 44.72731000000011,
                    "velocity": 0.4330708661417323,
                    "duration": 0.136363750000001
                },
                {
                    "name": "G#4",
                    "midi": 68,
                    "time": 44.72731000000011,
                    "velocity": 0.5118110236220472,
                    "duration": 0.136363750000001
                },
                {
                    "name": "G#4",
                    "midi": 68,
                    "time": 45.00003750000011,
                    "velocity": 0.5039370078740157,
                    "duration": 0.2045456250000015
                },
                {
                    "name": "B3",
                    "midi": 59,
                    "time": 45.00003750000011,
                    "velocity": 0.5039370078740157,
                    "duration": 0.2045456250000015
                },
                {
                    "name": "D4",
                    "midi": 62,
                    "time": 45.00003750000011,
                    "velocity": 0.5039370078740157,
                    "duration": 0.2045456250000015
                },
                {
                    "name": "B4",
                    "midi": 71,
                    "time": 45.00003750000011,
                    "velocity": 0.5039370078740157,
                    "duration": 0.2045456250000015
                },
                {
                    "name": "G#4",
                    "midi": 68,
                    "time": 45.20458312500011,
                    "velocity": 0.4566929133858268,
                    "duration": 0.06136368749999832
                },
                {
                    "name": "C4",
                    "midi": 60,
                    "time": 45.20458312500011,
                    "velocity": 0.4566929133858268,
                    "duration": 0.06136368749999832
                },
                {
                    "name": "C5",
                    "midi": 72,
                    "time": 45.20458312500011,
                    "velocity": 0.4566929133858268,
                    "duration": 0.06136368749999832
                },
                {
                    "name": "D#4",
                    "midi": 63,
                    "time": 45.20458312500011,
                    "velocity": 0.4566929133858268,
                    "duration": 0.06136368749999832
                },
                {
                    "name": "G#4",
                    "midi": 68,
                    "time": 45.27276500000011,
                    "velocity": 0.5118110236220472,
                    "duration": 0.136363750000001
                },
                {
                    "name": "C5",
                    "midi": 72,
                    "time": 45.27276500000011,
                    "velocity": 0.5118110236220472,
                    "duration": 0.136363750000001
                },
                {
                    "name": "C4",
                    "midi": 60,
                    "time": 45.27276500000011,
                    "velocity": 0.5118110236220472,
                    "duration": 0.136363750000001
                },
                {
                    "name": "D#4",
                    "midi": 63,
                    "time": 45.27276500000011,
                    "velocity": 0.5118110236220472,
                    "duration": 0.136363750000001
                },
                {
                    "name": "F3",
                    "midi": 53,
                    "time": 45.477310625000115,
                    "velocity": 0.4409448818897638,
                    "duration": 0.2727274999999949
                },
                {
                    "name": "D#4",
                    "midi": 63,
                    "time": 45.51140156250011,
                    "velocity": 0.4409448818897638,
                    "duration": 0.2386365624999982
                },
                {
                    "name": "A4",
                    "midi": 69,
                    "time": 45.54549250000011,
                    "velocity": 0.5196850393700787,
                    "duration": 0.2045456250000015
                },
                {
                    "name": "A#2",
                    "midi": 46,
                    "time": 45.75003812500011,
                    "velocity": 0.47244094488188976,
                    "duration": 0.2727274999999949
                },
                {
                    "name": "F3",
                    "midi": 53,
                    "time": 45.78412906250011,
                    "velocity": 0.47244094488188976,
                    "duration": 0.2386365624999982
                },
                {
                    "name": "C#4",
                    "midi": 61,
                    "time": 45.8182200000001,
                    "velocity": 0.5590551181102362,
                    "duration": 0.2045456250000015
                },
                {
                    "name": "D#2",
                    "midi": 39,
                    "time": 46.022765625000105,
                    "velocity": 0.4409448818897638,
                    "duration": 0.2727274999999949
                },
                {
                    "name": "A#2",
                    "midi": 46,
                    "time": 46.0568565625001,
                    "velocity": 0.4409448818897638,
                    "duration": 0.2386365624999982
                },
                {
                    "name": "F#3",
                    "midi": 54,
                    "time": 46.0909475000001,
                    "velocity": 0.5196850393700787,
                    "duration": 0.2045456250000015
                },
                {
                    "name": "A#1",
                    "midi": 34,
                    "time": 46.2954931250001,
                    "velocity": 0.4094488188976378,
                    "duration": 0.2727274999999949
                },
                {
                    "name": "F2",
                    "midi": 41,
                    "time": 46.329584062500096,
                    "velocity": 0.4094488188976378,
                    "duration": 0.2727274999999949
                },
                {
                    "name": "C#3",
                    "midi": 49,
                    "time": 46.36367500000009,
                    "velocity": 0.4881889763779528,
                    "duration": 0.2045456250000015
                },
                {
                    "name": "D#1",
                    "midi": 27,
                    "time": 46.63640250000009,
                    "velocity": 0.4094488188976378,
                    "duration": 0.2045456250000015
                },
                {
                    "name": "D#2",
                    "midi": 39,
                    "time": 46.63640250000009,
                    "velocity": 0.4881889763779528,
                    "duration": 0.2045456250000015
                },
                {
                    "name": "A#1",
                    "midi": 34,
                    "time": 46.84094812500009,
                    "velocity": 0.4094488188976378,
                    "duration": 0.272727500000002
                },
                {
                    "name": "F2",
                    "midi": 41,
                    "time": 46.87503906250009,
                    "velocity": 0.4094488188976378,
                    "duration": 0.2386365624999982
                },
                {
                    "name": "C#3",
                    "midi": 49,
                    "time": 46.90913000000009,
                    "velocity": 0.4881889763779528,
                    "duration": 0.2045456250000015
                },
                {
                    "name": "D#2",
                    "midi": 39,
                    "time": 47.11367562500009,
                    "velocity": 0.4015748031496063,
                    "duration": 0.2727274999999949
                },
                {
                    "name": "A#2",
                    "midi": 46,
                    "time": 47.14776656250009,
                    "velocity": 0.4015748031496063,
                    "duration": 0.2386365624999982
                },
                {
                    "name": "D#3",
                    "midi": 51,
                    "time": 47.181857500000085,
                    "velocity": 0.48031496062992124,
                    "duration": 0.2045456250000015
                },
                {
                    "name": "A#1",
                    "midi": 34,
                    "time": 47.386403125000086,
                    "velocity": 0.4409448818897638,
                    "duration": 0.2727274999999949
                },
                {
                    "name": "F2",
                    "midi": 41,
                    "time": 47.42049406250008,
                    "velocity": 0.4409448818897638,
                    "duration": 0.2386365624999982
                },
                {
                    "name": "C#3",
                    "midi": 49,
                    "time": 47.45458500000008,
                    "velocity": 0.5196850393700787,
                    "duration": 0.2045456250000015
                },
                {
                    "name": "A1",
                    "midi": 33,
                    "time": 47.72731250000008,
                    "velocity": 0.3937007874015748,
                    "duration": 0.0681818749999934
                },
                {
                    "name": "A#1",
                    "midi": 34,
                    "time": 47.795494375000075,
                    "velocity": 0.3937007874015748,
                    "duration": 0.0681818750000005
                },
                {
                    "name": "C2",
                    "midi": 36,
                    "time": 47.863676250000076,
                    "velocity": 0.4015748031496063,
                    "duration": 0.0681818750000005
                },
                {
                    "name": "C#2",
                    "midi": 37,
                    "time": 47.931858125000076,
                    "velocity": 0.4015748031496063,
                    "duration": 0.0681818750000005
                },
                {
                    "name": "D#2",
                    "midi": 39,
                    "time": 48.00004000000008,
                    "velocity": 0.4015748031496063,
                    "duration": 0.0681818750000005
                },
                {
                    "name": "F2",
                    "midi": 41,
                    "time": 48.06822187500008,
                    "velocity": 0.4094488188976378,
                    "duration": 0.0681818750000005
                },
                {
                    "name": "G2",
                    "midi": 43,
                    "time": 48.13640375000008,
                    "velocity": 0.41732283464566927,
                    "duration": 0.0681818750000005
                },
                {
                    "name": "A2",
                    "midi": 45,
                    "time": 48.20458562500008,
                    "velocity": 0.41732283464566927,
                    "duration": 0.0681818750000005
                },
                {
                    "name": "A#2",
                    "midi": 46,
                    "time": 48.27276750000008,
                    "velocity": 0.4251968503937008,
                    "duration": 0.0681818750000005
                },
                {
                    "name": "C3",
                    "midi": 48,
                    "time": 48.34094937500008,
                    "velocity": 0.4330708661417323,
                    "duration": 0.0681818750000005
                },
                {
                    "name": "C#3",
                    "midi": 49,
                    "time": 48.40913125000008,
                    "velocity": 0.4330708661417323,
                    "duration": 0.0681818750000005
                },
                {
                    "name": "D#3",
                    "midi": 51,
                    "time": 48.47731312500008,
                    "velocity": 0.4409448818897638,
                    "duration": 0.0681818750000005
                },
                {
                    "name": "F3",
                    "midi": 53,
                    "time": 48.54549500000008,
                    "velocity": 0.4409448818897638,
                    "duration": 0.0681818750000005
                },
                {
                    "name": "G3",
                    "midi": 55,
                    "time": 48.61367687500008,
                    "velocity": 0.4409448818897638,
                    "duration": 0.0681818750000005
                },
                {
                    "name": "A3",
                    "midi": 57,
                    "time": 48.68185875000008,
                    "velocity": 0.44881889763779526,
                    "duration": 0.0681818750000005
                },
                {
                    "name": "A#3",
                    "midi": 58,
                    "time": 48.75004062500008,
                    "velocity": 0.44881889763779526,
                    "duration": 0.0681818750000005
                },
                {
                    "name": "C4",
                    "midi": 60,
                    "time": 48.81822250000008,
                    "velocity": 0.4566929133858268,
                    "duration": 0.0681818750000005
                },
                {
                    "name": "C#4",
                    "midi": 61,
                    "time": 48.88640437500008,
                    "velocity": 0.4645669291338583,
                    "duration": 0.0681818750000005
                },
                {
                    "name": "D#4",
                    "midi": 63,
                    "time": 48.954586250000084,
                    "velocity": 0.4645669291338583,
                    "duration": 0.0681818750000005
                },
                {
                    "name": "F4",
                    "midi": 65,
                    "time": 49.022768125000084,
                    "velocity": 0.47244094488188976,
                    "duration": 0.0681818750000005
                },
                {
                    "name": "G4",
                    "midi": 67,
                    "time": 49.090950000000085,
                    "velocity": 0.48031496062992124,
                    "duration": 0.0681818750000005
                },
                {
                    "name": "A4",
                    "midi": 69,
                    "time": 49.159131875000085,
                    "velocity": 0.48031496062992124,
                    "duration": 0.0681818750000005
                },
                {
                    "name": "D#1",
                    "midi": 27,
                    "time": 49.50004125000009,
                    "velocity": 0.4881889763779528,
                    "duration": 0.136363750000001
                },
                {
                    "name": "D#2",
                    "midi": 39,
                    "time": 49.50004125000009,
                    "velocity": 0.5748031496062992,
                    "duration": 0.136363750000001
                },
                {
                    "name": "D#2",
                    "midi": 39,
                    "time": 49.77276875000009,
                    "velocity": 0.4409448818897638,
                    "duration": 0.136363750000001
                },
                {
                    "name": "D#3",
                    "midi": 51,
                    "time": 49.77276875000009,
                    "velocity": 0.5196850393700787,
                    "duration": 0.136363750000001
                },
                {
                    "name": "D#3",
                    "midi": 51,
                    "time": 50.04549625000009,
                    "velocity": 0.48031496062992124,
                    "duration": 0.2727274999999949
                },
                {
                    "name": "D#4",
                    "midi": 63,
                    "time": 50.04549625000009,
                    "velocity": 0.5669291338582677,
                    "duration": 0.2727274999999949
                },
                {
                    "name": "F4",
                    "midi": 65,
                    "time": 50.31822375000009,
                    "velocity": 0.5511811023622047,
                    "duration": 0.272727500000002
                },
                {
                    "name": "C4",
                    "midi": 60,
                    "time": 50.31822375000009,
                    "velocity": 0.4645669291338583,
                    "duration": 0.272727500000002
                },
                {
                    "name": "F3",
                    "midi": 53,
                    "time": 50.31822375000009,
                    "velocity": 0.4645669291338583,
                    "duration": 0.272727500000002
                },
                {
                    "name": "C3",
                    "midi": 48,
                    "time": 50.59095125000009,
                    "velocity": 0.4409448818897638,
                    "duration": 0.272727500000002
                },
                {
                    "name": "G#3",
                    "midi": 56,
                    "time": 50.59095125000009,
                    "velocity": 0.4409448818897638,
                    "duration": 0.272727500000002
                },
                {
                    "name": "C4",
                    "midi": 60,
                    "time": 50.59095125000009,
                    "velocity": 0.5196850393700787,
                    "duration": 0.272727500000002
                },
                {
                    "name": "C#3",
                    "midi": 49,
                    "time": 50.86367875000009,
                    "velocity": 0.48031496062992124,
                    "duration": 0.272727500000002
                },
                {
                    "name": "G#3",
                    "midi": 56,
                    "time": 50.86367875000009,
                    "velocity": 0.5669291338582677,
                    "duration": 0.272727500000002
                },
                {
                    "name": "C#4",
                    "midi": 61,
                    "time": 50.86367875000009,
                    "velocity": 0.5669291338582677,
                    "duration": 0.272727500000002
                },
                {
                    "name": "F2",
                    "midi": 41,
                    "time": 51.13640625000009,
                    "velocity": 0.4409448818897638,
                    "duration": 0.272727500000002
                },
                {
                    "name": "F3",
                    "midi": 53,
                    "time": 51.13640625000009,
                    "velocity": 0.5196850393700787,
                    "duration": 0.272727500000002
                },
                {
                    "name": "A#2",
                    "midi": 46,
                    "time": 51.409133750000095,
                    "velocity": 0.47244094488188976,
                    "duration": 0.272727500000002
                },
                {
                    "name": "F3",
                    "midi": 53,
                    "time": 51.409133750000095,
                    "velocity": 0.5669291338582677,
                    "duration": 0.272727500000002
                },
                {
                    "name": "A#3",
                    "midi": 58,
                    "time": 51.409133750000095,
                    "velocity": 0.5669291338582677,
                    "duration": 0.272727500000002
                },
                {
                    "name": "A#1",
                    "midi": 34,
                    "time": 51.6818612500001,
                    "velocity": 0.4566929133858268,
                    "duration": 0.272727500000002
                },
                {
                    "name": "A#2",
                    "midi": 46,
                    "time": 51.6818612500001,
                    "velocity": 0.5433070866141733,
                    "duration": 0.272727500000002
                },
                {
                    "name": "D#2",
                    "midi": 39,
                    "time": 51.9545887500001,
                    "velocity": 0.5118110236220472,
                    "duration": 0.272727500000002
                },
                {
                    "name": "D#3",
                    "midi": 51,
                    "time": 51.9545887500001,
                    "velocity": 0.6062992125984252,
                    "duration": 0.272727500000002
                },
                {
                    "name": "D#1",
                    "midi": 27,
                    "time": 52.2273162500001,
                    "velocity": 0.47244094488188976,
                    "duration": 0.272727500000002
                },
                {
                    "name": "D#2",
                    "midi": 39,
                    "time": 52.2273162500001,
                    "velocity": 0.5590551181102362,
                    "duration": 0.272727500000002
                },
                {
                    "name": "G#1",
                    "midi": 32,
                    "time": 52.5000437500001,
                    "velocity": 0.5275590551181102,
                    "duration": 0.136363750000001
                },
                {
                    "name": "G#2",
                    "midi": 44,
                    "time": 52.5000437500001,
                    "velocity": 0.6220472440944882,
                    "duration": 0.136363750000001
                },
                {
                    "name": "C4",
                    "midi": 60,
                    "time": 52.772771250000105,
                    "velocity": 0.5275590551181102,
                    "duration": 0.272727500000002
                },
                {
                    "name": "D#3",
                    "midi": 51,
                    "time": 52.772771250000105,
                    "velocity": 0.5275590551181102,
                    "duration": 0.272727500000002
                },
                {
                    "name": "D#4",
                    "midi": 63,
                    "time": 52.772771250000105,
                    "velocity": 0.6220472440944882,
                    "duration": 0.272727500000002
                },
                {
                    "name": "G#4",
                    "midi": 68,
                    "time": 53.04549875000011,
                    "velocity": 0.6062992125984252,
                    "duration": 0.2727274999999949
                },
                {
                    "name": "C4",
                    "midi": 60,
                    "time": 53.04549875000011,
                    "velocity": 0.6062992125984252,
                    "duration": 0.2727274999999949
                },
                {
                    "name": "G#3",
                    "midi": 56,
                    "time": 53.04549875000011,
                    "velocity": 0.5039370078740157,
                    "duration": 0.2727274999999949
                },
                {
                    "name": "D#2",
                    "midi": 39,
                    "time": 53.3182262500001,
                    "velocity": 0.5669291338582677,
                    "duration": 0.0681818750000005
                },
                {
                    "name": "D#3",
                    "midi": 51,
                    "time": 53.3182262500001,
                    "velocity": 0.6692913385826772,
                    "duration": 0.0681818750000005
                },
                {
                    "name": "G#2",
                    "midi": 44,
                    "time": 53.590953750000104,
                    "velocity": 0.5748031496062992,
                    "duration": 0.136363750000001
                },
                {
                    "name": "G#3",
                    "midi": 56,
                    "time": 53.590953750000104,
                    "velocity": 0.6771653543307087,
                    "duration": 0.136363750000001
                },
                {
                    "name": "D#1",
                    "midi": 27,
                    "time": 53.863681250000106,
                    "velocity": 0.48031496062992124,
                    "duration": 0.272727500000002
                },
                {
                    "name": "D#2",
                    "midi": 39,
                    "time": 53.863681250000106,
                    "velocity": 0.5748031496062992,
                    "duration": 0.272727500000002
                },
                {
                    "name": "G#1",
                    "midi": 32,
                    "time": 54.13640875000011,
                    "velocity": 0.5275590551181102,
                    "duration": 0.272727500000002
                },
                {
                    "name": "G#2",
                    "midi": 44,
                    "time": 54.13640875000011,
                    "velocity": 0.6220472440944882,
                    "duration": 0.272727500000002
                },
                {
                    "name": "C4",
                    "midi": 60,
                    "time": 54.40913625000011,
                    "velocity": 0.48031496062992124,
                    "duration": 0.272727500000002
                },
                {
                    "name": "D#4",
                    "midi": 63,
                    "time": 54.40913625000011,
                    "velocity": 0.5748031496062992,
                    "duration": 0.272727500000002
                },
                {
                    "name": "D#3",
                    "midi": 51,
                    "time": 54.40913625000011,
                    "velocity": 0.48031496062992124,
                    "duration": 0.272727500000002
                },
                {
                    "name": "G#4",
                    "midi": 68,
                    "time": 54.68186375000011,
                    "velocity": 0.5905511811023622,
                    "duration": 0.272727500000002
                },
                {
                    "name": "C4",
                    "midi": 60,
                    "time": 54.68186375000011,
                    "velocity": 0.5905511811023622,
                    "duration": 0.272727500000002
                },
                {
                    "name": "G#3",
                    "midi": 56,
                    "time": 54.68186375000011,
                    "velocity": 0.49606299212598426,
                    "duration": 0.272727500000002
                },
                {
                    "name": "D#2",
                    "midi": 39,
                    "time": 54.954591250000114,
                    "velocity": 0.5275590551181102,
                    "duration": 0.0681818750000005
                },
                {
                    "name": "D#3",
                    "midi": 51,
                    "time": 54.954591250000114,
                    "velocity": 0.6299212598425197,
                    "duration": 0.0681818750000005
                },
                {
                    "name": "G#2",
                    "midi": 44,
                    "time": 55.227318750000116,
                    "velocity": 0.5748031496062992,
                    "duration": 0.136363750000001
                },
                {
                    "name": "G#3",
                    "midi": 56,
                    "time": 55.227318750000116,
                    "velocity": 0.6771653543307087,
                    "duration": 0.136363750000001
                },
                {
                    "name": "D#1",
                    "midi": 27,
                    "time": 55.50004625000012,
                    "velocity": 0.48031496062992124,
                    "duration": 0.272727500000002
                },
                {
                    "name": "D#2",
                    "midi": 39,
                    "time": 55.50004625000012,
                    "velocity": 0.5748031496062992,
                    "duration": 0.272727500000002
                },
                {
                    "name": "G#1",
                    "midi": 32,
                    "time": 55.77277375000012,
                    "velocity": 0.5275590551181102,
                    "duration": 0.272727500000002
                },
                {
                    "name": "G#2",
                    "midi": 44,
                    "time": 55.77277375000012,
                    "velocity": 0.6220472440944882,
                    "duration": 0.272727500000002
                },
                {
                    "name": "C4",
                    "midi": 60,
                    "time": 56.04550125000012,
                    "velocity": 0.48031496062992124,
                    "duration": 0.272727500000002
                },
                {
                    "name": "D#4",
                    "midi": 63,
                    "time": 56.04550125000012,
                    "velocity": 0.5748031496062992,
                    "duration": 0.272727500000002
                },
                {
                    "name": "D#3",
                    "midi": 51,
                    "time": 56.04550125000012,
                    "velocity": 0.48031496062992124,
                    "duration": 0.272727500000002
                },
                {
                    "name": "G#4",
                    "midi": 68,
                    "time": 56.318228750000124,
                    "velocity": 0.5905511811023622,
                    "duration": 0.272727500000002
                },
                {
                    "name": "C4",
                    "midi": 60,
                    "time": 56.318228750000124,
                    "velocity": 0.5905511811023622,
                    "duration": 0.272727500000002
                },
                {
                    "name": "G#3",
                    "midi": 56,
                    "time": 56.318228750000124,
                    "velocity": 0.49606299212598426,
                    "duration": 0.272727500000002
                },
                {
                    "name": "D#2",
                    "midi": 39,
                    "time": 56.590956250000126,
                    "velocity": 0.48031496062992124,
                    "duration": 0.136363750000001
                },
                {
                    "name": "D#3",
                    "midi": 51,
                    "time": 56.590956250000126,
                    "velocity": 0.5748031496062992,
                    "duration": 0.136363750000001
                },
                {
                    "name": "G#2",
                    "midi": 44,
                    "time": 56.86368375000013,
                    "velocity": 0.5039370078740157,
                    "duration": 0.136363750000001
                },
                {
                    "name": "G#3",
                    "midi": 56,
                    "time": 56.86368375000013,
                    "velocity": 0.6062992125984252,
                    "duration": 0.136363750000001
                },
                {
                    "name": "D#2",
                    "midi": 39,
                    "time": 57.06822937500013,
                    "velocity": 0.4881889763779528,
                    "duration": 0.2386365624999911
                },
                {
                    "name": "A#2",
                    "midi": 46,
                    "time": 57.102320312500126,
                    "velocity": 0.4881889763779528,
                    "duration": 0.2045456249999944
                },
                {
                    "name": "F#3",
                    "midi": 54,
                    "time": 57.13641125000012,
                    "velocity": 0.5826771653543307,
                    "duration": 0.1704546874999977
                },
                {
                    "name": "F2",
                    "midi": 41,
                    "time": 57.30686593750012,
                    "velocity": 0.4881889763779528,
                    "duration": 0.2727274999999878
                },
                {
                    "name": "C3",
                    "midi": 48,
                    "time": 57.34095687500012,
                    "velocity": 0.4881889763779528,
                    "duration": 0.3409093749999812
                },
                {
                    "name": "D#3",
                    "midi": 51,
                    "time": 57.375047812500114,
                    "velocity": 0.5826771653543307,
                    "duration": 0.2045456249999944
                },
                {
                    "name": "A3",
                    "midi": 57,
                    "time": 57.40913875000011,
                    "velocity": 0.5826771653543307,
                    "duration": 0.1704546874999977
                },
                {
                    "name": "F3",
                    "midi": 53,
                    "time": 57.57959343750011,
                    "velocity": 0.48031496062992124,
                    "duration": 0.2727274999999878
                },
                {
                    "name": "C4",
                    "midi": 60,
                    "time": 57.613684375000105,
                    "velocity": 0.48031496062992124,
                    "duration": 0.2386365624999911
                },
                {
                    "name": "D#4",
                    "midi": 63,
                    "time": 57.6477753125001,
                    "velocity": 0.5748031496062992,
                    "duration": 0.2045456249999944
                },
                {
                    "name": "A4",
                    "midi": 69,
                    "time": 57.6818662500001,
                    "velocity": 0.5748031496062992,
                    "duration": 0.1704546874999977
                },
                {
                    "name": "A#2",
                    "midi": 46,
                    "time": 57.88641187500009,
                    "velocity": 0.49606299212598426,
                    "duration": 0.3409093749999954
                },
                {
                    "name": "F3",
                    "midi": 53,
                    "time": 57.92050281250009,
                    "velocity": 0.5905511811023622,
                    "duration": 0.3068184374999987
                },
                {
                    "name": "C#4",
                    "midi": 61,
                    "time": 57.954593750000086,
                    "velocity": 0.5905511811023622,
                    "duration": 0.272727500000002
                },
                {
                    "name": "F#2",
                    "midi": 42,
                    "time": 58.22732125000009,
                    "velocity": 0.47244094488188976,
                    "duration": 0.272727500000002
                },
                {
                    "name": "F#3",
                    "midi": 54,
                    "time": 58.22732125000009,
                    "velocity": 0.5590551181102362,
                    "duration": 0.272727500000002
                },
                {
                    "name": "F2",
                    "midi": 41,
                    "time": 58.50004875000009,
                    "velocity": 0.47244094488188976,
                    "duration": 0.272727500000002
                },
                {
                    "name": "F3",
                    "midi": 53,
                    "time": 58.50004875000009,
                    "velocity": 0.5590551181102362,
                    "duration": 0.272727500000002
                },
                {
                    "name": "C#2",
                    "midi": 37,
                    "time": 58.77277625000009,
                    "velocity": 0.4566929133858268,
                    "duration": 0.272727500000002
                },
                {
                    "name": "C#3",
                    "midi": 49,
                    "time": 58.77277625000009,
                    "velocity": 0.5433070866141733,
                    "duration": 0.272727500000002
                },
                {
                    "name": "A#1",
                    "midi": 34,
                    "time": 59.045503750000094,
                    "velocity": 0.5275590551181102,
                    "duration": 0.136363750000001
                },
                {
                    "name": "A#2",
                    "midi": 46,
                    "time": 59.045503750000094,
                    "velocity": 0.6220472440944882,
                    "duration": 0.136363750000001
                },
                {
                    "name": "C#4",
                    "midi": 61,
                    "time": 59.318231250000096,
                    "velocity": 0.6220472440944882,
                    "duration": 0.272727500000002
                },
                {
                    "name": "F3",
                    "midi": 53,
                    "time": 59.318231250000096,
                    "velocity": 0.5275590551181102,
                    "duration": 0.272727500000002
                },
                {
                    "name": "F4",
                    "midi": 65,
                    "time": 59.318231250000096,
                    "velocity": 0.6220472440944882,
                    "duration": 0.272727500000002
                },
                {
                    "name": "A#4",
                    "midi": 70,
                    "time": 59.5909587500001,
                    "velocity": 0.6062992125984252,
                    "duration": 0.272727500000002
                },
                {
                    "name": "C#4",
                    "midi": 61,
                    "time": 59.5909587500001,
                    "velocity": 0.6062992125984252,
                    "duration": 0.272727500000002
                },
                {
                    "name": "A#3",
                    "midi": 58,
                    "time": 59.5909587500001,
                    "velocity": 0.5039370078740157,
                    "duration": 0.272727500000002
                },
                {
                    "name": "F2",
                    "midi": 41,
                    "time": 59.8636862500001,
                    "velocity": 0.5669291338582677,
                    "duration": 0.0681818750000005
                },
                {
                    "name": "F3",
                    "midi": 53,
                    "time": 59.8636862500001,
                    "velocity": 0.6692913385826772,
                    "duration": 0.0681818750000005
                },
                {
                    "name": "A#2",
                    "midi": 46,
                    "time": 60.1364137500001,
                    "velocity": 0.5748031496062992,
                    "duration": 0.136363750000001
                },
                {
                    "name": "A#3",
                    "midi": 58,
                    "time": 60.1364137500001,
                    "velocity": 0.6771653543307087,
                    "duration": 0.136363750000001
                },
                {
                    "name": "F1",
                    "midi": 29,
                    "time": 60.409141250000104,
                    "velocity": 0.48031496062992124,
                    "duration": 0.272727500000002
                },
                {
                    "name": "F2",
                    "midi": 41,
                    "time": 60.409141250000104,
                    "velocity": 0.5748031496062992,
                    "duration": 0.272727500000002
                },
                {
                    "name": "A#1",
                    "midi": 34,
                    "time": 60.681868750000106,
                    "velocity": 0.5275590551181102,
                    "duration": 0.272727500000002
                },
                {
                    "name": "A#2",
                    "midi": 46,
                    "time": 60.681868750000106,
                    "velocity": 0.6220472440944882,
                    "duration": 0.272727500000002
                },
                {
                    "name": "C#4",
                    "midi": 61,
                    "time": 60.95459625000011,
                    "velocity": 0.48031496062992124,
                    "duration": 0.272727500000002
                },
                {
                    "name": "F4",
                    "midi": 65,
                    "time": 60.95459625000011,
                    "velocity": 0.5748031496062992,
                    "duration": 0.272727500000002
                },
                {
                    "name": "F3",
                    "midi": 53,
                    "time": 60.95459625000011,
                    "velocity": 0.48031496062992124,
                    "duration": 0.272727500000002
                },
                {
                    "name": "A#4",
                    "midi": 70,
                    "time": 61.22732375000011,
                    "velocity": 0.5905511811023622,
                    "duration": 0.2727274999999949
                },
                {
                    "name": "C#4",
                    "midi": 61,
                    "time": 61.22732375000011,
                    "velocity": 0.5905511811023622,
                    "duration": 0.2727274999999949
                },
                {
                    "name": "A#3",
                    "midi": 58,
                    "time": 61.22732375000011,
                    "velocity": 0.49606299212598426,
                    "duration": 0.2727274999999949
                },
                {
                    "name": "F2",
                    "midi": 41,
                    "time": 61.500051250000105,
                    "velocity": 0.5275590551181102,
                    "duration": 0.0681818750000005
                },
                {
                    "name": "F3",
                    "midi": 53,
                    "time": 61.500051250000105,
                    "velocity": 0.6299212598425197,
                    "duration": 0.0681818750000005
                },
                {
                    "name": "A#2",
                    "midi": 46,
                    "time": 61.77277875000011,
                    "velocity": 0.5748031496062992,
                    "duration": 0.136363750000001
                },
                {
                    "name": "A#3",
                    "midi": 58,
                    "time": 61.77277875000011,
                    "velocity": 0.6771653543307087,
                    "duration": 0.136363750000001
                },
                {
                    "name": "A#1",
                    "midi": 34,
                    "time": 62.04550625000011,
                    "velocity": 0.48031496062992124,
                    "duration": 0.272727500000002
                },
                {
                    "name": "A#2",
                    "midi": 46,
                    "time": 62.04550625000011,
                    "velocity": 0.5748031496062992,
                    "duration": 0.272727500000002
                },
                {
                    "name": "D#1",
                    "midi": 27,
                    "time": 62.31823375000011,
                    "velocity": 0.5275590551181102,
                    "duration": 0.136363750000001
                },
                {
                    "name": "D#2",
                    "midi": 39,
                    "time": 62.31823375000011,
                    "velocity": 0.6220472440944882,
                    "duration": 0.136363750000001
                },
                {
                    "name": "G4",
                    "midi": 67,
                    "time": 62.59096125000011,
                    "velocity": 0.47244094488188976,
                    "duration": 0.272727500000002
                },
                {
                    "name": "C#4",
                    "midi": 61,
                    "time": 62.59096125000011,
                    "velocity": 0.47244094488188976,
                    "duration": 0.272727500000002
                },
                {
                    "name": "C5",
                    "midi": 72,
                    "time": 62.59096125000011,
                    "velocity": 0.5669291338582677,
                    "duration": 0.136363750000001
                },
                {
                    "name": "D#4",
                    "midi": 63,
                    "time": 62.59096125000011,
                    "velocity": 0.47244094488188976,
                    "duration": 0.272727500000002
                },
                {
                    "name": "A#4",
                    "midi": 70,
                    "time": 62.727325000000114,
                    "velocity": 0.5511811023622047,
                    "duration": 0.136363750000001
                },
                {
                    "name": "D#3",
                    "midi": 51,
                    "time": 62.863688750000115,
                    "velocity": 0.5905511811023622,
                    "duration": 0.136363750000001
                },
                {
                    "name": "A#4",
                    "midi": 70,
                    "time": 63.13641625000012,
                    "velocity": 0.5669291338582677,
                    "duration": 0.136363750000001
                },
                {
                    "name": "C4",
                    "midi": 60,
                    "time": 63.13641625000012,
                    "velocity": 0.4566929133858268,
                    "duration": 0.272727500000002
                },
                {
                    "name": "D#4",
                    "midi": 63,
                    "time": 63.13641625000012,
                    "velocity": 0.5433070866141733,
                    "duration": 0.272727500000002
                },
                {
                    "name": "G#4",
                    "midi": 68,
                    "time": 63.27278000000012,
                    "velocity": 0.5511811023622047,
                    "duration": 0.136363750000001
                },
                {
                    "name": "D#3",
                    "midi": 51,
                    "time": 63.40914375000012,
                    "velocity": 0.5748031496062992,
                    "duration": 0.136363750000001
                },
                {
                    "name": "G#4",
                    "midi": 68,
                    "time": 63.68187125000012,
                    "velocity": 0.5669291338582677,
                    "duration": 0.136363750000001
                },
                {
                    "name": "A#3",
                    "midi": 58,
                    "time": 63.68187125000012,
                    "velocity": 0.4409448818897638,
                    "duration": 0.272727500000002
                },
                {
                    "name": "D#4",
                    "midi": 63,
                    "time": 63.68187125000012,
                    "velocity": 0.5275590551181102,
                    "duration": 0.272727500000002
                },
                {
                    "name": "G4",
                    "midi": 67,
                    "time": 63.81823500000012,
                    "velocity": 0.5511811023622047,
                    "duration": 0.136363750000001
                },
                {
                    "name": "A#2",
                    "midi": 46,
                    "time": 63.95459875000012,
                    "velocity": 0.5511811023622047,
                    "duration": 0.1363637500000081
                },
                {
                    "name": "G4",
                    "midi": 67,
                    "time": 64.22732625000013,
                    "velocity": 0.5669291338582677,
                    "duration": 0.136363750000001
                },
                {
                    "name": "G#3",
                    "midi": 56,
                    "time": 64.22732625000013,
                    "velocity": 0.4330708661417323,
                    "duration": 0.272727500000002
                },
                {
                    "name": "D4",
                    "midi": 62,
                    "time": 64.22732625000013,
                    "velocity": 0.5196850393700787,
                    "duration": 0.272727500000002
                },
                {
                    "name": "A#3",
                    "midi": 58,
                    "time": 64.22732625000013,
                    "velocity": 0.4330708661417323,
                    "duration": 0.272727500000002
                },
                {
                    "name": "F4",
                    "midi": 65,
                    "time": 64.36369000000013,
                    "velocity": 0.5511811023622047,
                    "duration": 0.136363750000001
                },
                {
                    "name": "D#3",
                    "midi": 51,
                    "time": 64.50005375000013,
                    "velocity": 0.5669291338582677,
                    "duration": 0.1363637499999868
                },
                {
                    "name": "F4",
                    "midi": 65,
                    "time": 64.77278125000012,
                    "velocity": 0.5669291338582677,
                    "duration": 0.136363750000001
                },
                {
                    "name": "G3",
                    "midi": 55,
                    "time": 64.77278125000012,
                    "velocity": 0.44881889763779526,
                    "duration": 0.272727500000002
                },
                {
                    "name": "A#3",
                    "midi": 58,
                    "time": 64.77278125000012,
                    "velocity": 0.5354330708661418,
                    "duration": 0.272727500000002
                },
                {
                    "name": "D#4",
                    "midi": 63,
                    "time": 64.90914500000012,
                    "velocity": 0.5511811023622047,
                    "duration": 0.136363750000001
                },
                {
                    "name": "F2",
                    "midi": 41,
                    "time": 65.04550875000012,
                    "velocity": 0.4881889763779528,
                    "duration": 0.272727500000002
                },
                {
                    "name": "F3",
                    "midi": 53,
                    "time": 65.04550875000012,
                    "velocity": 0.5826771653543307,
                    "duration": 0.545455000000004
                },
                {
                    "name": "C#4",
                    "midi": 61,
                    "time": 65.31823625000013,
                    "velocity": 0.5669291338582677,
                    "duration": 0.136363750000001
                },
                {
                    "name": "G#3",
                    "midi": 56,
                    "time": 65.31823625000013,
                    "velocity": 0.5354330708661418,
                    "duration": 0.272727500000002
                },
                {
                    "name": "C4",
                    "midi": 60,
                    "time": 65.45460000000013,
                    "velocity": 0.5511811023622047,
                    "duration": 0.136363750000001
                },
                {
                    "name": "C#2",
                    "midi": 37,
                    "time": 65.59096375000013,
                    "velocity": 0.4881889763779528,
                    "duration": 0.2727274999999878
                },
                {
                    "name": "C#3",
                    "midi": 49,
                    "time": 65.59096375000013,
                    "velocity": 0.5826771653543307,
                    "duration": 0.2727274999999878
                },
                {
                    "name": "F3",
                    "midi": 53,
                    "time": 65.86369125000012,
                    "velocity": 0.4330708661417323,
                    "duration": 0.272727500000002
                },
                {
                    "name": "A#3",
                    "midi": 58,
                    "time": 65.86369125000012,
                    "velocity": 0.5039370078740157,
                    "duration": 0.272727500000002
                },
                {
                    "name": "C2",
                    "midi": 36,
                    "time": 66.13641875000012,
                    "velocity": 0.49606299212598426,
                    "duration": 0.272727500000002
                },
                {
                    "name": "C3",
                    "midi": 48,
                    "time": 66.13641875000012,
                    "velocity": 0.5905511811023622,
                    "duration": 0.272727500000002
                },
                {
                    "name": "E3",
                    "midi": 52,
                    "time": 66.40914625000012,
                    "velocity": 0.44881889763779526,
                    "duration": 0.2727274999999878
                },
                {
                    "name": "C4",
                    "midi": 60,
                    "time": 66.40914625000012,
                    "velocity": 0.5354330708661418,
                    "duration": 0.2727274999999878
                },
                {
                    "name": "A#3",
                    "midi": 58,
                    "time": 66.40914625000012,
                    "velocity": 0.44881889763779526,
                    "duration": 0.2727274999999878
                },
                {
                    "name": "F1",
                    "midi": 29,
                    "time": 66.68187375000011,
                    "velocity": 0.5196850393700787,
                    "duration": 0.2727274999999878
                },
                {
                    "name": "F2",
                    "midi": 41,
                    "time": 66.68187375000011,
                    "velocity": 0.6141732283464567,
                    "duration": 0.2727274999999878
                },
                {
                    "name": "F3",
                    "midi": 53,
                    "time": 66.9546012500001,
                    "velocity": 0.5748031496062992,
                    "duration": 0.2727274999999878
                },
                {
                    "name": "G#3",
                    "midi": 56,
                    "time": 66.9546012500001,
                    "velocity": 0.5748031496062992,
                    "duration": 0.2727274999999878
                },
                {
                    "name": "C4",
                    "midi": 60,
                    "time": 66.9546012500001,
                    "velocity": 0.5748031496062992,
                    "duration": 0.2727274999999878
                },
                {
                    "name": "D#2",
                    "midi": 39,
                    "time": 67.22732875000008,
                    "velocity": 0.44881889763779526,
                    "duration": 0.136363750000001
                },
                {
                    "name": "D#3",
                    "midi": 51,
                    "time": 67.22732875000008,
                    "velocity": 0.5433070866141733,
                    "duration": 0.136363750000001
                },
                {
                    "name": "D#3",
                    "midi": 51,
                    "time": 67.50005625000009,
                    "velocity": 0.4251968503937008,
                    "duration": 0.272727500000002
                },
                {
                    "name": "A#3",
                    "midi": 58,
                    "time": 67.50005625000009,
                    "velocity": 0.49606299212598426,
                    "duration": 0.272727500000002
                },
                {
                    "name": "G#2",
                    "midi": 44,
                    "time": 67.77278375000009,
                    "velocity": 0.47244094488188976,
                    "duration": 0.2727274999999878
                },
                {
                    "name": "D#3",
                    "midi": 51,
                    "time": 67.77278375000009,
                    "velocity": 0.47244094488188976,
                    "duration": 0.2727274999999878
                },
                {
                    "name": "G#3",
                    "midi": 56,
                    "time": 67.77278375000009,
                    "velocity": 0.5590551181102362,
                    "duration": 0.2727274999999878
                },
                {
                    "name": "G#2",
                    "midi": 44,
                    "time": 68.59096625000008,
                    "velocity": 0.48031496062992124,
                    "duration": 0.272727500000002
                },
                {
                    "name": "G#3",
                    "midi": 56,
                    "time": 68.59096625000008,
                    "velocity": 0.5669291338582677,
                    "duration": 0.272727500000002
                },
                {
                    "name": "C#2",
                    "midi": 37,
                    "time": 68.86369375000008,
                    "velocity": 0.4881889763779528,
                    "duration": 0.2727274999999878
                },
                {
                    "name": "C#3",
                    "midi": 49,
                    "time": 68.86369375000008,
                    "velocity": 0.5826771653543307,
                    "duration": 0.2727274999999878
                },
                {
                    "name": "F3",
                    "midi": 53,
                    "time": 69.13642125000007,
                    "velocity": 0.4330708661417323,
                    "duration": 0.272727500000002
                },
                {
                    "name": "A#3",
                    "midi": 58,
                    "time": 69.13642125000007,
                    "velocity": 0.5039370078740157,
                    "duration": 0.272727500000002
                },
                {
                    "name": "C2",
                    "midi": 36,
                    "time": 69.40914875000007,
                    "velocity": 0.49606299212598426,
                    "duration": 0.272727500000002
                },
                {
                    "name": "C3",
                    "midi": 48,
                    "time": 69.40914875000007,
                    "velocity": 0.5905511811023622,
                    "duration": 0.272727500000002
                },
                {
                    "name": "A#3",
                    "midi": 58,
                    "time": 69.68187625000007,
                    "velocity": 0.44881889763779526,
                    "duration": 0.272727500000002
                },
                {
                    "name": "E4",
                    "midi": 64,
                    "time": 69.68187625000007,
                    "velocity": 0.5354330708661418,
                    "duration": 0.272727500000002
                },
                {
                    "name": "C4",
                    "midi": 60,
                    "time": 69.68187625000007,
                    "velocity": 0.44881889763779526,
                    "duration": 0.272727500000002
                },
                {
                    "name": "F1",
                    "midi": 29,
                    "time": 69.95460375000008,
                    "velocity": 0.5196850393700787,
                    "duration": 0.2727274999999878
                },
                {
                    "name": "F2",
                    "midi": 41,
                    "time": 69.95460375000008,
                    "velocity": 0.6141732283464567,
                    "duration": 0.2727274999999878
                },
                {
                    "name": "G#3",
                    "midi": 56,
                    "time": 70.22733125000006,
                    "velocity": 0.5748031496062992,
                    "duration": 0.272727500000002
                },
                {
                    "name": "C4",
                    "midi": 60,
                    "time": 70.22733125000006,
                    "velocity": 0.5748031496062992,
                    "duration": 0.272727500000002
                },
                {
                    "name": "F4",
                    "midi": 65,
                    "time": 70.22733125000006,
                    "velocity": 0.5748031496062992,
                    "duration": 0.272727500000002
                },
                {
                    "name": "D#2",
                    "midi": 39,
                    "time": 70.50005875000006,
                    "velocity": 0.5039370078740157,
                    "duration": 0.1363637499999868
                },
                {
                    "name": "D#3",
                    "midi": 51,
                    "time": 70.50005875000006,
                    "velocity": 0.6062992125984252,
                    "duration": 0.1363637499999868
                },
                {
                    "name": "A#3",
                    "midi": 58,
                    "time": 70.77278625000005,
                    "velocity": 0.47244094488188976,
                    "duration": 0.272727500000002
                },
                {
                    "name": "C#4",
                    "midi": 61,
                    "time": 70.77278625000005,
                    "velocity": 0.47244094488188976,
                    "duration": 0.272727500000002
                },
                {
                    "name": "D#4",
                    "midi": 63,
                    "time": 70.77278625000005,
                    "velocity": 0.47244094488188976,
                    "duration": 0.272727500000002
                },
                {
                    "name": "G4",
                    "midi": 67,
                    "time": 70.77278625000005,
                    "velocity": 0.5590551181102362,
                    "duration": 0.272727500000002
                },
                {
                    "name": "G#3",
                    "midi": 56,
                    "time": 71.04551375000005,
                    "velocity": 0.47244094488188976,
                    "duration": 0.136363750000001
                },
                {
                    "name": "D#4",
                    "midi": 63,
                    "time": 71.04551375000005,
                    "velocity": 0.47244094488188976,
                    "duration": 0.136363750000001
                },
                {
                    "name": "G#4",
                    "midi": 68,
                    "time": 71.04551375000005,
                    "velocity": 0.5590551181102362,
                    "duration": 0.136363750000001
                },
                {
                    "name": "G#4",
                    "midi": 68,
                    "time": 71.31824125000006,
                    "velocity": 0.5511811023622047,
                    "duration": 0.2045456249999944
                },
                {
                    "name": "B3",
                    "midi": 59,
                    "time": 71.31824125000006,
                    "velocity": 0.5511811023622047,
                    "duration": 0.2045456249999944
                },
                {
                    "name": "D4",
                    "midi": 62,
                    "time": 71.31824125000006,
                    "velocity": 0.5511811023622047,
                    "duration": 0.2045456249999944
                },
                {
                    "name": "B4",
                    "midi": 71,
                    "time": 71.31824125000006,
                    "velocity": 0.5511811023622047,
                    "duration": 0.2045456249999944
                },
                {
                    "name": "G#4",
                    "midi": 68,
                    "time": 71.52278687500005,
                    "velocity": 0.49606299212598426,
                    "duration": 0.061363687500005426
                },
                {
                    "name": "C4",
                    "midi": 60,
                    "time": 71.52278687500005,
                    "velocity": 0.49606299212598426,
                    "duration": 0.061363687500005426
                },
                {
                    "name": "C5",
                    "midi": 72,
                    "time": 71.52278687500005,
                    "velocity": 0.49606299212598426,
                    "duration": 0.061363687500005426
                },
                {
                    "name": "D#4",
                    "midi": 63,
                    "time": 71.52278687500005,
                    "velocity": 0.49606299212598426,
                    "duration": 0.061363687500005426
                },
                {
                    "name": "G#4",
                    "midi": 68,
                    "time": 71.59096875000006,
                    "velocity": 0.5590551181102362,
                    "duration": 0.136363750000001
                },
                {
                    "name": "C5",
                    "midi": 72,
                    "time": 71.59096875000006,
                    "velocity": 0.5590551181102362,
                    "duration": 0.136363750000001
                },
                {
                    "name": "C4",
                    "midi": 60,
                    "time": 71.59096875000006,
                    "velocity": 0.5590551181102362,
                    "duration": 0.136363750000001
                },
                {
                    "name": "D#4",
                    "midi": 63,
                    "time": 71.59096875000006,
                    "velocity": 0.5590551181102362,
                    "duration": 0.136363750000001
                },
                {
                    "name": "F3",
                    "midi": 53,
                    "time": 71.76142343750006,
                    "velocity": 0.48031496062992124,
                    "duration": 0.3068184374999845
                },
                {
                    "name": "C4",
                    "midi": 60,
                    "time": 71.79551437500005,
                    "velocity": 0.48031496062992124,
                    "duration": 0.2727274999999878
                },
                {
                    "name": "D#4",
                    "midi": 63,
                    "time": 71.82960531250005,
                    "velocity": 0.48031496062992124,
                    "duration": 0.2386365624999911
                },
                {
                    "name": "A4",
                    "midi": 69,
                    "time": 71.86369625000005,
                    "velocity": 0.5669291338582677,
                    "duration": 0.2045456249999944
                },
                {
                    "name": "A#2",
                    "midi": 46,
                    "time": 72.06824187500004,
                    "velocity": 0.5196850393700787,
                    "duration": 0.2727275000000162
                },
                {
                    "name": "F3",
                    "midi": 53,
                    "time": 72.10233281250005,
                    "velocity": 0.5196850393700787,
                    "duration": 0.2386365625000053
                },
                {
                    "name": "C#4",
                    "midi": 61,
                    "time": 72.13642375000005,
                    "velocity": 0.6141732283464567,
                    "duration": 0.2045456250000086
                },
                {
                    "name": "D#3",
                    "midi": 51,
                    "time": 72.34096937500006,
                    "velocity": 0.48031496062992124,
                    "duration": 0.2727274999999878
                },
                {
                    "name": "A#3",
                    "midi": 58,
                    "time": 72.37506031250005,
                    "velocity": 0.48031496062992124,
                    "duration": 0.2386365624999911
                },
                {
                    "name": "F#4",
                    "midi": 66,
                    "time": 72.40915125000005,
                    "velocity": 0.5669291338582677,
                    "duration": 0.2045456249999944
                },
                {
                    "name": "A#2",
                    "midi": 46,
                    "time": 72.61369687500004,
                    "velocity": 0.44881889763779526,
                    "duration": 0.2727275000000162
                },
                {
                    "name": "F3",
                    "midi": 53,
                    "time": 72.64778781250006,
                    "velocity": 0.44881889763779526,
                    "duration": 0.2386365625000053
                },
                {
                    "name": "C#4",
                    "midi": 61,
                    "time": 72.68187875000005,
                    "velocity": 0.5354330708661418,
                    "duration": 0.2045456250000086
                },
                {
                    "name": "D#2",
                    "midi": 39,
                    "time": 72.88642437500006,
                    "velocity": 0.44881889763779526,
                    "duration": 0.272727500000002
                },
                {
                    "name": "A#2",
                    "midi": 46,
                    "time": 72.92051531250006,
                    "velocity": 0.44881889763779526,
                    "duration": 0.2386365625000053
                },
                {
                    "name": "F#3",
                    "midi": 54,
                    "time": 72.95460625000005,
                    "velocity": 0.5354330708661418,
                    "duration": 0.2045456250000086
                },
                {
                    "name": "A#1",
                    "midi": 34,
                    "time": 73.15915187500006,
                    "velocity": 0.44881889763779526,
                    "duration": 0.272727500000002
                },
                {
                    "name": "F2",
                    "midi": 41,
                    "time": 73.19324281250007,
                    "velocity": 0.44881889763779526,
                    "duration": 0.2386365624999911
                },
                {
                    "name": "C#3",
                    "midi": 49,
                    "time": 73.22733375000007,
                    "velocity": 0.5354330708661418,
                    "duration": 0.2045456249999944
                },
                {
                    "name": "D#2",
                    "midi": 39,
                    "time": 73.43187937500007,
                    "velocity": 0.4409448818897638,
                    "duration": 0.2727274999999878
                },
                {
                    "name": "A#2",
                    "midi": 46,
                    "time": 73.46597031250006,
                    "velocity": 0.4409448818897638,
                    "duration": 0.2386365624999911
                },
                {
                    "name": "F#3",
                    "midi": 54,
                    "time": 73.50006125000006,
                    "velocity": 0.5275590551181102,
                    "duration": 0.2045456249999944
                },
                {
                    "name": "A#2",
                    "midi": 46,
                    "time": 73.70460687500005,
                    "velocity": 0.48031496062992124,
                    "duration": 0.2727274999999878
                },
                {
                    "name": "F3",
                    "midi": 53,
                    "time": 73.73869781250005,
                    "velocity": 0.48031496062992124,
                    "duration": 0.2386365624999911
                },
                {
                    "name": "C#4",
                    "midi": 61,
                    "time": 73.77278875000005,
                    "velocity": 0.5669291338582677,
                    "duration": 0.2045456249999944
                },
                {
                    "name": "A1",
                    "midi": 33,
                    "time": 74.04551625000003,
                    "velocity": 0.4330708661417323,
                    "duration": 0.0681818749999934
                },
                {
                    "name": "A#1",
                    "midi": 34,
                    "time": 74.11369812500003,
                    "velocity": 0.4330708661417323,
                    "duration": 0.0681818749999934
                },
                {
                    "name": "C2",
                    "midi": 36,
                    "time": 74.18188000000002,
                    "velocity": 0.4409448818897638,
                    "duration": 0.0681818749999934
                },
                {
                    "name": "C#2",
                    "midi": 37,
                    "time": 74.25006187500001,
                    "velocity": 0.4409448818897638,
                    "duration": 0.0681818749999934
                },
                {
                    "name": "D#2",
                    "midi": 39,
                    "time": 74.31824375000001,
                    "velocity": 0.4409448818897638,
                    "duration": 0.0681818749999934
                },
                {
                    "name": "F2",
                    "midi": 41,
                    "time": 74.386425625,
                    "velocity": 0.44881889763779526,
                    "duration": 0.0681818749999934
                },
                {
                    "name": "G2",
                    "midi": 43,
                    "time": 74.4546075,
                    "velocity": 0.4566929133858268,
                    "duration": 0.0681818749999934
                },
                {
                    "name": "A2",
                    "midi": 45,
                    "time": 74.52278937499999,
                    "velocity": 0.4566929133858268,
                    "duration": 0.0681818749999934
                },
                {
                    "name": "A#2",
                    "midi": 46,
                    "time": 74.59097124999998,
                    "velocity": 0.4645669291338583,
                    "duration": 0.0681818749999934
                },
                {
                    "name": "C3",
                    "midi": 48,
                    "time": 74.65915312499997,
                    "velocity": 0.47244094488188976,
                    "duration": 0.0681818749999934
                },
                {
                    "name": "C#3",
                    "midi": 49,
                    "time": 74.72733499999997,
                    "velocity": 0.47244094488188976,
                    "duration": 0.0681818749999934
                },
                {
                    "name": "D#3",
                    "midi": 51,
                    "time": 74.79551687499996,
                    "velocity": 0.48031496062992124,
                    "duration": 0.0681818749999934
                },
                {
                    "name": "F3",
                    "midi": 53,
                    "time": 74.86369874999995,
                    "velocity": 0.48031496062992124,
                    "duration": 0.0681818749999934
                },
                {
                    "name": "G3",
                    "midi": 55,
                    "time": 74.93188062499995,
                    "velocity": 0.48031496062992124,
                    "duration": 0.0681818749999934
                },
                {
                    "name": "A3",
                    "midi": 57,
                    "time": 75.00006249999994,
                    "velocity": 0.4881889763779528,
                    "duration": 0.0681818749999934
                },
                {
                    "name": "A#3",
                    "midi": 58,
                    "time": 75.06824437499994,
                    "velocity": 0.4881889763779528,
                    "duration": 0.0681818749999934
                },
                {
                    "name": "C4",
                    "midi": 60,
                    "time": 75.13642624999993,
                    "velocity": 0.49606299212598426,
                    "duration": 0.0681818749999934
                },
                {
                    "name": "C#4",
                    "midi": 61,
                    "time": 75.20460812499992,
                    "velocity": 0.5039370078740157,
                    "duration": 0.0681818749999934
                },
                {
                    "name": "D#4",
                    "midi": 63,
                    "time": 75.27278999999992,
                    "velocity": 0.5039370078740157,
                    "duration": 0.0681818749999934
                },
                {
                    "name": "F4",
                    "midi": 65,
                    "time": 75.34097187499991,
                    "velocity": 0.5196850393700787,
                    "duration": 0.0681818749999934
                },
                {
                    "name": "G4",
                    "midi": 67,
                    "time": 75.4091537499999,
                    "velocity": 0.5275590551181102,
                    "duration": 0.0681818749999934
                },
                {
                    "name": "A4",
                    "midi": 69,
                    "time": 75.4773356249999,
                    "velocity": 0.5118110236220472,
                    "duration": 0.0681818749999934
                },
                {
                    "name": "A#4",
                    "midi": 70,
                    "time": 75.54551749999989,
                    "velocity": 0.5196850393700787,
                    "duration": 0.0681818749999934
                },
                {
                    "name": "C5",
                    "midi": 72,
                    "time": 75.61369937499988,
                    "velocity": 0.5275590551181102,
                    "duration": 0.0681818749999934
                },
                {
                    "name": "C#5",
                    "midi": 73,
                    "time": 75.68188124999988,
                    "velocity": 0.5354330708661418,
                    "duration": 0.0681818749999934
                },
                {
                    "name": "D#5",
                    "midi": 75,
                    "time": 75.75006312499987,
                    "velocity": 0.5433070866141733,
                    "duration": 0.0681818749999934
                },
                {
                    "name": "F5",
                    "midi": 77,
                    "time": 75.81824499999986,
                    "velocity": 0.5511811023622047,
                    "duration": 0.0681818749999934
                },
                {
                    "name": "G5",
                    "midi": 79,
                    "time": 75.88642687499986,
                    "velocity": 0.5590551181102362,
                    "duration": 0.1022728125000043
                },
                {
                    "name": "A5",
                    "midi": 81,
                    "time": 75.98869968749986,
                    "velocity": 0.5669291338582677,
                    "duration": 0.0681818749999934
                },
                {
                    "name": "D#1",
                    "midi": 27,
                    "time": 76.36369999999985,
                    "velocity": 0.5354330708661418,
                    "duration": 0.136363750000001
                },
                {
                    "name": "D#2",
                    "midi": 39,
                    "time": 76.36369999999985,
                    "velocity": 0.6299212598425197,
                    "duration": 0.136363750000001
                },
                {
                    "name": "D#3",
                    "midi": 51,
                    "time": 76.63642749999985,
                    "velocity": 0.48031496062992124,
                    "duration": 0.136363750000001
                },
                {
                    "name": "D#4",
                    "midi": 63,
                    "time": 76.63642749999985,
                    "velocity": 0.5669291338582677,
                    "duration": 0.136363750000001
                },
                {
                    "name": "C5",
                    "midi": 72,
                    "time": 76.90915499999986,
                    "velocity": 0.5275590551181102,
                    "duration": 0.272727500000002
                },
                {
                    "name": "G4",
                    "midi": 67,
                    "time": 76.90915499999986,
                    "velocity": 0.5275590551181102,
                    "duration": 0.272727500000002
                },
                {
                    "name": "D#4",
                    "midi": 63,
                    "time": 76.90915499999986,
                    "velocity": 0.5275590551181102,
                    "duration": 0.272727500000002
                },
                {
                    "name": "D#5",
                    "midi": 75,
                    "time": 76.90915499999986,
                    "velocity": 0.6220472440944882,
                    "duration": 0.272727500000002
                },
                {
                    "name": "F5",
                    "midi": 77,
                    "time": 77.18188249999986,
                    "velocity": 0.6062992125984252,
                    "duration": 0.272727500000002
                },
                {
                    "name": "C5",
                    "midi": 72,
                    "time": 77.18188249999986,
                    "velocity": 0.5039370078740157,
                    "duration": 0.272727500000002
                },
                {
                    "name": "F4",
                    "midi": 65,
                    "time": 77.18188249999986,
                    "velocity": 0.5039370078740157,
                    "duration": 0.272727500000002
                },
                {
                    "name": "C4",
                    "midi": 60,
                    "time": 77.45460999999986,
                    "velocity": 0.48031496062992124,
                    "duration": 0.272727500000002
                },
                {
                    "name": "G#4",
                    "midi": 68,
                    "time": 77.45460999999986,
                    "velocity": 0.48031496062992124,
                    "duration": 0.272727500000002
                },
                {
                    "name": "C5",
                    "midi": 72,
                    "time": 77.45460999999986,
                    "velocity": 0.5669291338582677,
                    "duration": 0.272727500000002
                },
                {
                    "name": "C#4",
                    "midi": 61,
                    "time": 77.72733749999986,
                    "velocity": 0.48031496062992124,
                    "duration": 0.136363750000001
                },
                {
                    "name": "G#4",
                    "midi": 68,
                    "time": 77.72733749999986,
                    "velocity": 0.48031496062992124,
                    "duration": 0.136363750000001
                },
                {
                    "name": "C#5",
                    "midi": 73,
                    "time": 77.72733749999986,
                    "velocity": 0.5669291338582677,
                    "duration": 0.136363750000001
                },
                {
                    "name": "D#2",
                    "midi": 39,
                    "time": 78.00006499999986,
                    "velocity": 0.4566929133858268,
                    "duration": 0.545455000000004
                },
                {
                    "name": "D#3",
                    "midi": 51,
                    "time": 78.00006499999986,
                    "velocity": 0.5433070866141733,
                    "duration": 0.545455000000004
                },
                {
                    "name": "D#1",
                    "midi": 27,
                    "time": 78.54551999999987,
                    "velocity": 0.4015748031496063,
                    "duration": 0.136363750000001
                },
                {
                    "name": "D#2",
                    "midi": 39,
                    "time": 78.54551999999987,
                    "velocity": 0.48031496062992124,
                    "duration": 0.136363750000001
                },
                {
                    "name": "G#1",
                    "midi": 32,
                    "time": 78.81824749999987,
                    "velocity": 0.4015748031496063,
                    "duration": 0.136363750000001
                },
                {
                    "name": "G#2",
                    "midi": 44,
                    "time": 78.81824749999987,
                    "velocity": 0.48031496062992124,
                    "duration": 0.136363750000001
                },
                {
                    "name": "C1",
                    "midi": 24,
                    "time": 79.36370249999987,
                    "velocity": 0.3700787401574803,
                    "duration": 0.136363750000001
                },
                {
                    "name": "C2",
                    "midi": 36,
                    "time": 79.36370249999987,
                    "velocity": 0.4330708661417323,
                    "duration": 0.136363750000001
                },
                {
                    "name": "C2",
                    "midi": 36,
                    "time": 79.63642999999988,
                    "velocity": 0.2677165354330709,
                    "duration": 0.136363750000001
                },
                {
                    "name": "C3",
                    "midi": 48,
                    "time": 79.63642999999988,
                    "velocity": 0.3228346456692913,
                    "duration": 0.136363750000001
                },
                {
                    "name": "C2",
                    "midi": 36,
                    "time": 79.84097562499987,
                    "velocity": 0.25984251968503935,
                    "duration": 0.0681818749999934
                },
                {
                    "name": "C3",
                    "midi": 48,
                    "time": 79.84097562499987,
                    "velocity": 0.30708661417322836,
                    "duration": 0.0681818749999934
                },
                {
                    "name": "E2",
                    "midi": 40,
                    "time": 79.90915749999986,
                    "velocity": 0.3464566929133858,
                    "duration": 0.2727274999999878
                },
                {
                    "name": "C#3",
                    "midi": 49,
                    "time": 79.90915749999986,
                    "velocity": 0.3464566929133858,
                    "duration": 0.2727274999999878
                },
                {
                    "name": "E1",
                    "midi": 28,
                    "time": 80.18188499999985,
                    "velocity": 0.2755905511811024,
                    "duration": 0.136363750000001
                },
                {
                    "name": "E2",
                    "midi": 40,
                    "time": 80.18188499999985,
                    "velocity": 0.33070866141732286,
                    "duration": 0.136363750000001
                },
                {
                    "name": "E2",
                    "midi": 40,
                    "time": 80.38643062499985,
                    "velocity": 0.28346456692913385,
                    "duration": 0.06818187500000761
                },
                {
                    "name": "C3",
                    "midi": 48,
                    "time": 80.38643062499985,
                    "velocity": 0.3464566929133858,
                    "duration": 0.06818187500000761
                },
                {
                    "name": "F2",
                    "midi": 41,
                    "time": 80.45461249999985,
                    "velocity": 0.31496062992125984,
                    "duration": 0.2727274999999878
                },
                {
                    "name": "D#3",
                    "midi": 51,
                    "time": 80.45461249999985,
                    "velocity": 0.3858267716535433,
                    "duration": 0.2727274999999878
                },
                {
                    "name": "F1",
                    "midi": 29,
                    "time": 80.72733999999984,
                    "velocity": 0.30708661417322836,
                    "duration": 0.136363750000001
                },
                {
                    "name": "F2",
                    "midi": 41,
                    "time": 80.72733999999984,
                    "velocity": 0.3700787401574803,
                    "duration": 0.136363750000001
                },
                {
                    "name": "F2",
                    "midi": 41,
                    "time": 80.93188562499984,
                    "velocity": 0.29133858267716534,
                    "duration": 0.0681818749999934
                },
                {
                    "name": "C#3",
                    "midi": 49,
                    "time": 80.93188562499984,
                    "velocity": 0.3543307086614173,
                    "duration": 0.0681818749999934
                },
                {
                    "name": "G2",
                    "midi": 43,
                    "time": 81.00006749999983,
                    "velocity": 0.3464566929133858,
                    "duration": 0.272727500000002
                },
                {
                    "name": "F3",
                    "midi": 53,
                    "time": 81.00006749999983,
                    "velocity": 0.4015748031496063,
                    "duration": 0.272727500000002
                },
                {
                    "name": "G1",
                    "midi": 31,
                    "time": 81.27279499999983,
                    "velocity": 0.30708661417322836,
                    "duration": 0.136363750000001
                },
                {
                    "name": "G2",
                    "midi": 43,
                    "time": 81.27279499999983,
                    "velocity": 0.3779527559055118,
                    "duration": 0.136363750000001
                },
                {
                    "name": "G2",
                    "midi": 43,
                    "time": 81.47734062499983,
                    "velocity": 0.30708661417322836,
                    "duration": 0.06818187500000761
                },
                {
                    "name": "E3",
                    "midi": 52,
                    "time": 81.47734062499983,
                    "velocity": 0.3543307086614173,
                    "duration": 0.06818187500000761
                },
                {
                    "name": "G#2",
                    "midi": 44,
                    "time": 81.54552249999983,
                    "velocity": 0.4015748031496063,
                    "duration": 0.272727500000002
                },
                {
                    "name": "G3",
                    "midi": 55,
                    "time": 81.54552249999983,
                    "velocity": 0.4015748031496063,
                    "duration": 0.272727500000002
                },
                {
                    "name": "G#1",
                    "midi": 32,
                    "time": 81.81824999999984,
                    "velocity": 0.33070866141732286,
                    "duration": 0.136363750000001
                },
                {
                    "name": "G#2",
                    "midi": 44,
                    "time": 81.81824999999984,
                    "velocity": 0.4015748031496063,
                    "duration": 0.136363750000001
                },
                {
                    "name": "G#2",
                    "midi": 44,
                    "time": 82.02279562499983,
                    "velocity": 0.33858267716535434,
                    "duration": 0.06818187500000761
                },
                {
                    "name": "F3",
                    "midi": 53,
                    "time": 82.02279562499983,
                    "velocity": 0.4015748031496063,
                    "duration": 0.06818187500000761
                },
                {
                    "name": "G#2",
                    "midi": 44,
                    "time": 82.09097749999984,
                    "velocity": 0.3779527559055118,
                    "duration": 0.2727274999999878
                },
                {
                    "name": "G#3",
                    "midi": 56,
                    "time": 82.09097749999984,
                    "velocity": 0.4409448818897638,
                    "duration": 0.2727274999999878
                },
                {
                    "name": "G#1",
                    "midi": 32,
                    "time": 82.36370499999983,
                    "velocity": 0.3700787401574803,
                    "duration": 0.136363750000001
                },
                {
                    "name": "G#2",
                    "midi": 44,
                    "time": 82.36370499999983,
                    "velocity": 0.4409448818897638,
                    "duration": 0.136363750000001
                },
                {
                    "name": "G#2",
                    "midi": 44,
                    "time": 82.56825062499982,
                    "velocity": 0.3543307086614173,
                    "duration": 0.06818187500000761
                },
                {
                    "name": "F#3",
                    "midi": 54,
                    "time": 82.56825062499982,
                    "velocity": 0.4094488188976378,
                    "duration": 0.06818187500000761
                },
                {
                    "name": "G2",
                    "midi": 43,
                    "time": 82.63643249999983,
                    "velocity": 0.36220472440944884,
                    "duration": 0.2727274999999878
                },
                {
                    "name": "G3",
                    "midi": 55,
                    "time": 82.63643249999983,
                    "velocity": 0.4330708661417323,
                    "duration": 0.2727274999999878
                },
                {
                    "name": "G3",
                    "midi": 55,
                    "time": 82.90915999999982,
                    "velocity": 0.4094488188976378,
                    "duration": 0.0681818749999934
                },
                {
                    "name": "G4",
                    "midi": 67,
                    "time": 82.90915999999982,
                    "velocity": 0.4094488188976378,
                    "duration": 0.0681818749999934
                },
                {
                    "name": "G3",
                    "midi": 55,
                    "time": 83.0455237499998,
                    "velocity": 0.4251968503937008,
                    "duration": 0.0681818749999934
                },
                {
                    "name": "G4",
                    "midi": 67,
                    "time": 83.0455237499998,
                    "velocity": 0.4251968503937008,
                    "duration": 0.0681818749999934
                },
                {
                    "name": "A3",
                    "midi": 57,
                    "time": 83.18188749999979,
                    "velocity": 0.47244094488188976,
                    "duration": 0.136363750000001
                },
                {
                    "name": "A4",
                    "midi": 69,
                    "time": 83.18188749999979,
                    "velocity": 0.47244094488188976,
                    "duration": 0.136363750000001
                },
                {
                    "name": "G3",
                    "midi": 55,
                    "time": 83.31825124999979,
                    "velocity": 0.4409448818897638,
                    "duration": 0.136363750000001
                },
                {
                    "name": "G4",
                    "midi": 67,
                    "time": 83.31825124999979,
                    "velocity": 0.4409448818897638,
                    "duration": 0.136363750000001
                },
                {
                    "name": "G3",
                    "midi": 55,
                    "time": 83.45461499999979,
                    "velocity": 0.4409448818897638,
                    "duration": 0.06818187500000761
                },
                {
                    "name": "G4",
                    "midi": 67,
                    "time": 83.45461499999979,
                    "velocity": 0.4409448818897638,
                    "duration": 0.06818187500000761
                },
                {
                    "name": "G3",
                    "midi": 55,
                    "time": 83.59097874999979,
                    "velocity": 0.4409448818897638,
                    "duration": 0.0681818749999934
                },
                {
                    "name": "G4",
                    "midi": 67,
                    "time": 83.59097874999979,
                    "velocity": 0.4409448818897638,
                    "duration": 0.0681818749999934
                },
                {
                    "name": "G3",
                    "midi": 55,
                    "time": 83.72734249999978,
                    "velocity": 0.5118110236220472,
                    "duration": 0.136363750000001
                },
                {
                    "name": "G4",
                    "midi": 67,
                    "time": 83.72734249999978,
                    "velocity": 0.5118110236220472,
                    "duration": 0.136363750000001
                },
                {
                    "name": "D4",
                    "midi": 62,
                    "time": 84.00006999999978,
                    "velocity": 0.41732283464566927,
                    "duration": 0.2727274999999878
                },
                {
                    "name": "F4",
                    "midi": 65,
                    "time": 84.00006999999978,
                    "velocity": 0.41732283464566927,
                    "duration": 0.2727274999999878
                },
                {
                    "name": "G4",
                    "midi": 67,
                    "time": 84.00006999999978,
                    "velocity": 0.41732283464566927,
                    "duration": 0.2727274999999878
                },
                {
                    "name": "B4",
                    "midi": 71,
                    "time": 84.00006999999978,
                    "velocity": 0.41732283464566927,
                    "duration": 0.2727274999999878
                },
                {
                    "name": "C4",
                    "midi": 60,
                    "time": 84.27279749999977,
                    "velocity": 0.3858267716535433,
                    "duration": 0.272727500000002
                },
                {
                    "name": "G4",
                    "midi": 67,
                    "time": 84.27279749999977,
                    "velocity": 0.3858267716535433,
                    "duration": 0.272727500000002
                },
                {
                    "name": "C5",
                    "midi": 72,
                    "time": 84.27279749999977,
                    "velocity": 0.3858267716535433,
                    "duration": 0.272727500000002
                },
                {
                    "name": "C3",
                    "midi": 48,
                    "time": 84.54552499999977,
                    "velocity": 0.3937007874015748,
                    "duration": 0.0681818749999934
                },
                {
                    "name": "E3",
                    "midi": 52,
                    "time": 84.61370687499976,
                    "velocity": 0.4015748031496063,
                    "duration": 0.0681818749999934
                },
                {
                    "name": "G3",
                    "midi": 55,
                    "time": 84.68188874999976,
                    "velocity": 0.4094488188976378,
                    "duration": 0.0681818749999934
                },
                {
                    "name": "B3",
                    "midi": 59,
                    "time": 84.75007062499975,
                    "velocity": 0.41732283464566927,
                    "duration": 0.0681818749999934
                },
                {
                    "name": "C4",
                    "midi": 60,
                    "time": 84.81825249999974,
                    "velocity": 0.4251968503937008,
                    "duration": 0.0681818749999934
                },
                {
                    "name": "E4",
                    "midi": 64,
                    "time": 84.88643437499974,
                    "velocity": 0.4409448818897638,
                    "duration": 0.0681818749999934
                },
                {
                    "name": "G4",
                    "midi": 67,
                    "time": 84.95461624999973,
                    "velocity": 0.44881889763779526,
                    "duration": 0.0681818749999934
                },
                {
                    "name": "B4",
                    "midi": 71,
                    "time": 85.02279812499972,
                    "velocity": 0.44881889763779526,
                    "duration": 0.0681818749999934
                },
                {
                    "name": "C5",
                    "midi": 72,
                    "time": 85.09097999999972,
                    "velocity": 0.4881889763779528,
                    "duration": 0.136363750000001
                },
                {
                    "name": "C4",
                    "midi": 60,
                    "time": 85.22734374999972,
                    "velocity": 0.4409448818897638,
                    "duration": 0.136363750000001
                },
                {
                    "name": "C#4",
                    "midi": 61,
                    "time": 85.36370749999972,
                    "velocity": 0.3858267716535433,
                    "duration": 0.2727274999999878
                },
                {
                    "name": "C#5",
                    "midi": 73,
                    "time": 85.36370749999972,
                    "velocity": 0.4566929133858268,
                    "duration": 0.2727274999999878
                },
                {
                    "name": "D4",
                    "midi": 62,
                    "time": 85.63643499999971,
                    "velocity": 0.4094488188976378,
                    "duration": 0.272727500000002
                },
                {
                    "name": "D5",
                    "midi": 74,
                    "time": 85.63643499999971,
                    "velocity": 0.4881889763779528,
                    "duration": 0.272727500000002
                },
                {
                    "name": "D#4",
                    "midi": 63,
                    "time": 85.90916249999971,
                    "velocity": 0.4330708661417323,
                    "duration": 0.1363637499999868
                },
                {
                    "name": "D#5",
                    "midi": 75,
                    "time": 85.90916249999971,
                    "velocity": 0.5118110236220472,
                    "duration": 0.1363637499999868
                },
                {
                    "name": "D#2",
                    "midi": 39,
                    "time": 86.1818899999997,
                    "velocity": 0.2677165354330709,
                    "duration": 0.136363750000001
                },
                {
                    "name": "D#3",
                    "midi": 51,
                    "time": 86.1818899999997,
                    "velocity": 0.3228346456692913,
                    "duration": 0.136363750000001
                },
                {
                    "name": "D#2",
                    "midi": 39,
                    "time": 86.38643562499969,
                    "velocity": 0.25984251968503935,
                    "duration": 0.06818187500000761
                },
                {
                    "name": "D#3",
                    "midi": 51,
                    "time": 86.38643562499969,
                    "velocity": 0.30708661417322836,
                    "duration": 0.06818187500000761
                },
                {
                    "name": "G2",
                    "midi": 43,
                    "time": 86.4546174999997,
                    "velocity": 0.3464566929133858,
                    "duration": 0.2727274999999878
                },
                {
                    "name": "E3",
                    "midi": 52,
                    "time": 86.4546174999997,
                    "velocity": 0.3464566929133858,
                    "duration": 0.2727274999999878
                },
                {
                    "name": "G1",
                    "midi": 31,
                    "time": 86.72734499999969,
                    "velocity": 0.2755905511811024,
                    "duration": 0.136363750000001
                },
                {
                    "name": "G2",
                    "midi": 43,
                    "time": 86.72734499999969,
                    "velocity": 0.33070866141732286,
                    "duration": 0.136363750000001
                },
                {
                    "name": "G2",
                    "midi": 43,
                    "time": 86.93189062499968,
                    "velocity": 0.28346456692913385,
                    "duration": 0.06818187500000761
                },
                {
                    "name": "D#3",
                    "midi": 51,
                    "time": 86.93189062499968,
                    "velocity": 0.3464566929133858,
                    "duration": 0.06818187500000761
                },
                {
                    "name": "G#2",
                    "midi": 44,
                    "time": 87.00007249999969,
                    "velocity": 0.31496062992125984,
                    "duration": 0.2727274999999878
                },
                {
                    "name": "F#3",
                    "midi": 54,
                    "time": 87.00007249999969,
                    "velocity": 0.3858267716535433,
                    "duration": 0.2727274999999878
                },
                {
                    "name": "G#1",
                    "midi": 32,
                    "time": 87.27279999999968,
                    "velocity": 0.30708661417322836,
                    "duration": 0.136363750000001
                },
                {
                    "name": "G#2",
                    "midi": 44,
                    "time": 87.27279999999968,
                    "velocity": 0.3700787401574803,
                    "duration": 0.136363750000001
                },
                {
                    "name": "G#2",
                    "midi": 44,
                    "time": 87.47734562499967,
                    "velocity": 0.29133858267716534,
                    "duration": 0.06818187500000761
                },
                {
                    "name": "E3",
                    "midi": 52,
                    "time": 87.47734562499967,
                    "velocity": 0.3543307086614173,
                    "duration": 0.06818187500000761
                },
                {
                    "name": "A#2",
                    "midi": 46,
                    "time": 87.54552749999968,
                    "velocity": 0.3464566929133858,
                    "duration": 0.272727500000002
                },
                {
                    "name": "G#3",
                    "midi": 56,
                    "time": 87.54552749999968,
                    "velocity": 0.4015748031496063,
                    "duration": 0.272727500000002
                },
                {
                    "name": "A#1",
                    "midi": 34,
                    "time": 87.81825499999968,
                    "velocity": 0.30708661417322836,
                    "duration": 0.136363750000001
                },
                {
                    "name": "A#2",
                    "midi": 46,
                    "time": 87.81825499999968,
                    "velocity": 0.3779527559055118,
                    "duration": 0.136363750000001
                },
                {
                    "name": "A#2",
                    "midi": 46,
                    "time": 88.02280062499968,
                    "velocity": 0.2992125984251969,
                    "duration": 0.0681818749999934
                },
                {
                    "name": "G3",
                    "midi": 55,
                    "time": 88.02280062499968,
                    "velocity": 0.3543307086614173,
                    "duration": 0.0681818749999934
                },
                {
                    "name": "B2",
                    "midi": 47,
                    "time": 88.09098249999967,
                    "velocity": 0.4015748031496063,
                    "duration": 0.272727500000002
                },
                {
                    "name": "A#3",
                    "midi": 58,
                    "time": 88.09098249999967,
                    "velocity": 0.4015748031496063,
                    "duration": 0.272727500000002
                },
                {
                    "name": "B1",
                    "midi": 35,
                    "time": 88.36370999999967,
                    "velocity": 0.33070866141732286,
                    "duration": 0.136363750000001
                },
                {
                    "name": "B2",
                    "midi": 47,
                    "time": 88.36370999999967,
                    "velocity": 0.4015748031496063,
                    "duration": 0.136363750000001
                },
                {
                    "name": "B2",
                    "midi": 47,
                    "time": 88.56825562499967,
                    "velocity": 0.33858267716535434,
                    "duration": 0.0681818749999934
                },
                {
                    "name": "G#3",
                    "midi": 56,
                    "time": 88.56825562499967,
                    "velocity": 0.4015748031496063,
                    "duration": 0.0681818749999934
                },
                {
                    "name": "B2",
                    "midi": 47,
                    "time": 88.63643749999966,
                    "velocity": 0.3779527559055118,
                    "duration": 0.2727274999999878
                },
                {
                    "name": "B3",
                    "midi": 59,
                    "time": 88.63643749999966,
                    "velocity": 0.4409448818897638,
                    "duration": 0.2727274999999878
                },
                {
                    "name": "B1",
                    "midi": 35,
                    "time": 88.90916499999965,
                    "velocity": 0.3700787401574803,
                    "duration": 0.136363750000001
                },
                {
                    "name": "B2",
                    "midi": 47,
                    "time": 88.90916499999965,
                    "velocity": 0.4409448818897638,
                    "duration": 0.136363750000001
                },
                {
                    "name": "B2",
                    "midi": 47,
                    "time": 89.11371062499964,
                    "velocity": 0.3543307086614173,
                    "duration": 0.0681818749999934
                },
                {
                    "name": "A3",
                    "midi": 57,
                    "time": 89.11371062499964,
                    "velocity": 0.4094488188976378,
                    "duration": 0.0681818749999934
                },
                {
                    "name": "A#2",
                    "midi": 46,
                    "time": 89.18189249999963,
                    "velocity": 0.36220472440944884,
                    "duration": 0.2727274999999878
                },
                {
                    "name": "A#3",
                    "midi": 58,
                    "time": 89.18189249999963,
                    "velocity": 0.4330708661417323,
                    "duration": 0.2727274999999878
                },
                {
                    "name": "A#3",
                    "midi": 58,
                    "time": 89.45461999999962,
                    "velocity": 0.4094488188976378,
                    "duration": 0.0681818749999934
                },
                {
                    "name": "A#4",
                    "midi": 70,
                    "time": 89.45461999999962,
                    "velocity": 0.4094488188976378,
                    "duration": 0.0681818749999934
                },
                {
                    "name": "A#3",
                    "midi": 58,
                    "time": 89.59098374999961,
                    "velocity": 0.4251968503937008,
                    "duration": 0.0681818749999934
                },
                {
                    "name": "A#4",
                    "midi": 70,
                    "time": 89.59098374999961,
                    "velocity": 0.4251968503937008,
                    "duration": 0.0681818749999934
                },
                {
                    "name": "C4",
                    "midi": 60,
                    "time": 89.7273474999996,
                    "velocity": 0.47244094488188976,
                    "duration": 0.136363750000001
                },
                {
                    "name": "C5",
                    "midi": 72,
                    "time": 89.7273474999996,
                    "velocity": 0.47244094488188976,
                    "duration": 0.136363750000001
                },
                {
                    "name": "A#3",
                    "midi": 58,
                    "time": 89.8637112499996,
                    "velocity": 0.4409448818897638,
                    "duration": 0.136363750000001
                },
                {
                    "name": "A#4",
                    "midi": 70,
                    "time": 89.8637112499996,
                    "velocity": 0.4409448818897638,
                    "duration": 0.136363750000001
                },
                {
                    "name": "A#3",
                    "midi": 58,
                    "time": 90.0000749999996,
                    "velocity": 0.4409448818897638,
                    "duration": 0.0681818749999934
                },
                {
                    "name": "A#4",
                    "midi": 70,
                    "time": 90.0000749999996,
                    "velocity": 0.4409448818897638,
                    "duration": 0.0681818749999934
                },
                {
                    "name": "A#3",
                    "midi": 58,
                    "time": 90.13643874999958,
                    "velocity": 0.4409448818897638,
                    "duration": 0.0681818749999934
                },
                {
                    "name": "A#4",
                    "midi": 70,
                    "time": 90.13643874999958,
                    "velocity": 0.4409448818897638,
                    "duration": 0.0681818749999934
                },
                {
                    "name": "A#3",
                    "midi": 58,
                    "time": 90.27280249999957,
                    "velocity": 0.5118110236220472,
                    "duration": 0.136363750000001
                },
                {
                    "name": "A#4",
                    "midi": 70,
                    "time": 90.27280249999957,
                    "velocity": 0.5118110236220472,
                    "duration": 0.136363750000001
                },
                {
                    "name": "A#3",
                    "midi": 58,
                    "time": 90.44325718749957,
                    "velocity": 0.41732283464566927,
                    "duration": 0.3750003124999921
                },
                {
                    "name": "F4",
                    "midi": 65,
                    "time": 90.47734812499957,
                    "velocity": 0.41732283464566927,
                    "duration": 0.3409093749999954
                },
                {
                    "name": "G#4",
                    "midi": 68,
                    "time": 90.51143906249956,
                    "velocity": 0.41732283464566927,
                    "duration": 0.3068184374999987
                },
                {
                    "name": "D5",
                    "midi": 74,
                    "time": 90.54552999999956,
                    "velocity": 0.41732283464566927,
                    "duration": 0.272727500000002
                },
                {
                    "name": "D#4",
                    "midi": 63,
                    "time": 90.81825749999956,
                    "velocity": 0.3858267716535433,
                    "duration": 0.272727500000002
                },
                {
                    "name": "G4",
                    "midi": 67,
                    "time": 90.81825749999956,
                    "velocity": 0.3858267716535433,
                    "duration": 0.272727500000002
                },
                {
                    "name": "D#5",
                    "midi": 75,
                    "time": 90.81825749999956,
                    "velocity": 0.3858267716535433,
                    "duration": 0.272727500000002
                },
                {
                    "name": "D#3",
                    "midi": 51,
                    "time": 91.09098499999956,
                    "velocity": 0.31496062992125984,
                    "duration": 0.2727274999999878
                },
                {
                    "name": "B3",
                    "midi": 59,
                    "time": 91.09098499999956,
                    "velocity": 0.31496062992125984,
                    "duration": 0.2727274999999878
                },
                {
                    "name": "D#4",
                    "midi": 63,
                    "time": 91.09098499999956,
                    "velocity": 0.3779527559055118,
                    "duration": 0.2727274999999878
                },
                {
                    "name": "D#3",
                    "midi": 51,
                    "time": 91.36371249999955,
                    "velocity": 0.2992125984251969,
                    "duration": 0.272727500000002
                },
                {
                    "name": "A#3",
                    "midi": 58,
                    "time": 91.36371249999955,
                    "velocity": 0.2992125984251969,
                    "duration": 0.272727500000002
                },
                {
                    "name": "D#4",
                    "midi": 63,
                    "time": 91.36371249999955,
                    "velocity": 0.3543307086614173,
                    "duration": 0.272727500000002
                },
                {
                    "name": "D#2",
                    "midi": 39,
                    "time": 91.63643999999955,
                    "velocity": 0.31496062992125984,
                    "duration": 0.2727274999999878
                },
                {
                    "name": "B2",
                    "midi": 47,
                    "time": 91.63643999999955,
                    "velocity": 0.31496062992125984,
                    "duration": 0.2727274999999878
                },
                {
                    "name": "D#3",
                    "midi": 51,
                    "time": 91.63643999999955,
                    "velocity": 0.3779527559055118,
                    "duration": 0.2727274999999878
                },
                {
                    "name": "D#2",
                    "midi": 39,
                    "time": 91.90916749999954,
                    "velocity": 0.2992125984251969,
                    "duration": 0.272727500000002
                },
                {
                    "name": "A#2",
                    "midi": 46,
                    "time": 91.90916749999954,
                    "velocity": 0.2992125984251969,
                    "duration": 0.272727500000002
                },
                {
                    "name": "D#3",
                    "midi": 51,
                    "time": 91.90916749999954,
                    "velocity": 0.3543307086614173,
                    "duration": 0.272727500000002
                },
                {
                    "name": "D#1",
                    "midi": 27,
                    "time": 92.18189499999954,
                    "velocity": 0.3543307086614173,
                    "duration": 0.136363750000001
                },
                {
                    "name": "D#2",
                    "midi": 39,
                    "time": 92.18189499999954,
                    "velocity": 0.3543307086614173,
                    "duration": 0.136363750000001
                },
                {
                    "name": "C#1",
                    "midi": 25,
                    "time": 92.45462249999953,
                    "velocity": 0.3858267716535433,
                    "duration": 0.136363750000001
                },
                {
                    "name": "C#2",
                    "midi": 37,
                    "time": 92.45462249999953,
                    "velocity": 0.4566929133858268,
                    "duration": 0.136363750000001
                },
                {
                    "name": "F3",
                    "midi": 53,
                    "time": 92.72734999999953,
                    "velocity": 0.2992125984251969,
                    "duration": 0.1022728125000043
                },
                {
                    "name": "G3",
                    "midi": 55,
                    "time": 92.72734999999953,
                    "velocity": 0.3543307086614173,
                    "duration": 0.1022728125000043
                },
                {
                    "name": "F3",
                    "midi": 53,
                    "time": 92.86371374999953,
                    "velocity": 0.30708661417322836,
                    "duration": 0.1022728125000043
                },
                {
                    "name": "G3",
                    "midi": 55,
                    "time": 92.86371374999953,
                    "velocity": 0.3700787401574803,
                    "duration": 0.1022728125000043
                },
                {
                    "name": "F3",
                    "midi": 53,
                    "time": 93.00007749999953,
                    "velocity": 0.3228346456692913,
                    "duration": 0.2045456249999944
                },
                {
                    "name": "G3",
                    "midi": 55,
                    "time": 93.00007749999953,
                    "velocity": 0.3858267716535433,
                    "duration": 0.2045456249999944
                },
                {
                    "name": "F3",
                    "midi": 53,
                    "time": 93.27280499999952,
                    "velocity": 0.2992125984251969,
                    "duration": 0.2045456249999944
                },
                {
                    "name": "G3",
                    "midi": 55,
                    "time": 93.27280499999952,
                    "velocity": 0.3543307086614173,
                    "duration": 0.2045456249999944
                },
                {
                    "name": "F3",
                    "midi": 53,
                    "time": 93.54553249999951,
                    "velocity": 0.2992125984251969,
                    "duration": 0.2045456249999944
                },
                {
                    "name": "G3",
                    "midi": 55,
                    "time": 93.54553249999951,
                    "velocity": 0.3543307086614173,
                    "duration": 0.2045456249999944
                },
                {
                    "name": "F3",
                    "midi": 53,
                    "time": 93.8182599999995,
                    "velocity": 0.2992125984251969,
                    "duration": 0.2045456249999944
                },
                {
                    "name": "G3",
                    "midi": 55,
                    "time": 93.8182599999995,
                    "velocity": 0.3543307086614173,
                    "duration": 0.2045456249999944
                },
                {
                    "name": "C2",
                    "midi": 36,
                    "time": 94.09098749999949,
                    "velocity": 0.3543307086614173,
                    "duration": 0.2727274999999878
                },
                {
                    "name": "C3",
                    "midi": 48,
                    "time": 94.09098749999949,
                    "velocity": 0.41732283464566927,
                    "duration": 1.0909099999999796
                },
                {
                    "name": "E3",
                    "midi": 52,
                    "time": 94.36371499999947,
                    "velocity": 0.30708661417322836,
                    "duration": 0.1022728125000043
                },
                {
                    "name": "G3",
                    "midi": 55,
                    "time": 94.36371499999947,
                    "velocity": 0.3700787401574803,
                    "duration": 0.1022728125000043
                },
                {
                    "name": "E3",
                    "midi": 52,
                    "time": 94.50007874999947,
                    "velocity": 0.30708661417322836,
                    "duration": 0.1022728125000043
                },
                {
                    "name": "G3",
                    "midi": 55,
                    "time": 94.50007874999947,
                    "velocity": 0.3700787401574803,
                    "duration": 0.1022728125000043
                },
                {
                    "name": "E3",
                    "midi": 52,
                    "time": 94.63644249999948,
                    "velocity": 0.33070866141732286,
                    "duration": 0.2045456249999944
                },
                {
                    "name": "G3",
                    "midi": 55,
                    "time": 94.63644249999948,
                    "velocity": 0.3937007874015748,
                    "duration": 0.2045456249999944
                },
                {
                    "name": "E3",
                    "midi": 52,
                    "time": 94.90916999999946,
                    "velocity": 0.2992125984251969,
                    "duration": 0.2045456250000086
                },
                {
                    "name": "G3",
                    "midi": 55,
                    "time": 94.90916999999946,
                    "velocity": 0.3543307086614173,
                    "duration": 0.2045456250000086
                },
                {
                    "name": "A#1",
                    "midi": 34,
                    "time": 95.18189749999947,
                    "velocity": 0.36220472440944884,
                    "duration": 0.272727500000002
                },
                {
                    "name": "A#2",
                    "midi": 46,
                    "time": 95.18189749999947,
                    "velocity": 0.4330708661417323,
                    "duration": 0.272727500000002
                },
                {
                    "name": "G3",
                    "midi": 55,
                    "time": 95.45462499999947,
                    "velocity": 0.3543307086614173,
                    "duration": 0.272727500000002
                },
                {
                    "name": "F3",
                    "midi": 53,
                    "time": 95.45462499999947,
                    "velocity": 0.2992125984251969,
                    "duration": 0.272727500000002
                },
                {
                    "name": "C2",
                    "midi": 36,
                    "time": 95.72735249999947,
                    "velocity": 0.3543307086614173,
                    "duration": 0.272727500000002
                },
                {
                    "name": "C3",
                    "midi": 48,
                    "time": 95.72735249999947,
                    "velocity": 0.41732283464566927,
                    "duration": 1.0909099999999938
                },
                {
                    "name": "E3",
                    "midi": 52,
                    "time": 96.00007999999947,
                    "velocity": 0.30708661417322836,
                    "duration": 0.1022728125000043
                },
                {
                    "name": "G3",
                    "midi": 55,
                    "time": 96.00007999999947,
                    "velocity": 0.3700787401574803,
                    "duration": 0.1022728125000043
                },
                {
                    "name": "E3",
                    "midi": 52,
                    "time": 96.13644374999947,
                    "velocity": 0.30708661417322836,
                    "duration": 0.1022728125000043
                },
                {
                    "name": "G3",
                    "midi": 55,
                    "time": 96.13644374999947,
                    "velocity": 0.3700787401574803,
                    "duration": 0.1022728125000043
                },
                {
                    "name": "G3",
                    "midi": 55,
                    "time": 96.27280749999947,
                    "velocity": 0.3937007874015748,
                    "duration": 0.2045456249999944
                },
                {
                    "name": "E3",
                    "midi": 52,
                    "time": 96.27280749999947,
                    "velocity": 0.33070866141732286,
                    "duration": 0.2045456249999944
                },
                {
                    "name": "E3",
                    "midi": 52,
                    "time": 96.54553499999946,
                    "velocity": 0.2992125984251969,
                    "duration": 0.2045456250000086
                },
                {
                    "name": "G3",
                    "midi": 55,
                    "time": 96.54553499999946,
                    "velocity": 0.3543307086614173,
                    "duration": 0.2045456250000086
                },
                {
                    "name": "A#1",
                    "midi": 34,
                    "time": 96.81826249999946,
                    "velocity": 0.36220472440944884,
                    "duration": 0.272727500000002
                },
                {
                    "name": "A#2",
                    "midi": 46,
                    "time": 96.81826249999946,
                    "velocity": 0.4330708661417323,
                    "duration": 0.272727500000002
                },
                {
                    "name": "F3",
                    "midi": 53,
                    "time": 97.09098999999946,
                    "velocity": 0.2992125984251969,
                    "duration": 0.272727500000002
                },
                {
                    "name": "G3",
                    "midi": 55,
                    "time": 97.09098999999946,
                    "velocity": 0.3543307086614173,
                    "duration": 0.272727500000002
                },
                {
                    "name": "C3",
                    "midi": 48,
                    "time": 97.36371749999947,
                    "velocity": 0.41732283464566927,
                    "duration": 0.272727500000002
                },
                {
                    "name": "C2",
                    "midi": 36,
                    "time": 97.36371749999947,
                    "velocity": 0.3543307086614173,
                    "duration": 0.272727500000002
                },
                {
                    "name": "C4",
                    "midi": 60,
                    "time": 97.63644499999947,
                    "velocity": 0.3700787401574803,
                    "duration": 0.1022728125000043
                },
                {
                    "name": "G3",
                    "midi": 55,
                    "time": 97.63644499999947,
                    "velocity": 0.30708661417322836,
                    "duration": 0.1022728125000043
                },
                {
                    "name": "A#3",
                    "midi": 58,
                    "time": 97.63644499999947,
                    "velocity": 0.30708661417322836,
                    "duration": 0.1022728125000043
                },
                {
                    "name": "G3",
                    "midi": 55,
                    "time": 97.77280874999947,
                    "velocity": 0.30708661417322836,
                    "duration": 0.1022728125000043
                },
                {
                    "name": "A#3",
                    "midi": 58,
                    "time": 97.77280874999947,
                    "velocity": 0.30708661417322836,
                    "duration": 0.1022728125000043
                },
                {
                    "name": "C4",
                    "midi": 60,
                    "time": 97.77280874999947,
                    "velocity": 0.3700787401574803,
                    "duration": 0.1022728125000043
                },
                {
                    "name": "G3",
                    "midi": 55,
                    "time": 97.90917249999947,
                    "velocity": 0.33070866141732286,
                    "duration": 0.2045456249999944
                },
                {
                    "name": "A#3",
                    "midi": 58,
                    "time": 97.90917249999947,
                    "velocity": 0.33070866141732286,
                    "duration": 0.2045456249999944
                },
                {
                    "name": "C4",
                    "midi": 60,
                    "time": 97.90917249999947,
                    "velocity": 0.3937007874015748,
                    "duration": 0.2045456249999944
                },
                {
                    "name": "A#3",
                    "midi": 58,
                    "time": 98.18189999999946,
                    "velocity": 0.2992125984251969,
                    "duration": 0.2045456249999944
                },
                {
                    "name": "G3",
                    "midi": 55,
                    "time": 98.18189999999946,
                    "velocity": 0.2992125984251969,
                    "duration": 0.2045456249999944
                },
                {
                    "name": "C4",
                    "midi": 60,
                    "time": 98.18189999999946,
                    "velocity": 0.3543307086614173,
                    "duration": 0.2045456249999944
                },
                {
                    "name": "F2",
                    "midi": 41,
                    "time": 98.45462749999945,
                    "velocity": 0.36220472440944884,
                    "duration": 0.272727500000002
                },
                {
                    "name": "F3",
                    "midi": 53,
                    "time": 98.45462749999945,
                    "velocity": 0.4330708661417323,
                    "duration": 0.545455000000004
                },
                {
                    "name": "G#3",
                    "midi": 56,
                    "time": 98.72735499999945,
                    "velocity": 0.2992125984251969,
                    "duration": 0.272727500000002
                },
                {
                    "name": "C4",
                    "midi": 60,
                    "time": 98.72735499999945,
                    "velocity": 0.3543307086614173,
                    "duration": 0.272727500000002
                },
                {
                    "name": "C#2",
                    "midi": 37,
                    "time": 99.00008249999945,
                    "velocity": 0.3858267716535433,
                    "duration": 0.272727500000002
                },
                {
                    "name": "C#3",
                    "midi": 49,
                    "time": 99.00008249999945,
                    "velocity": 0.4566929133858268,
                    "duration": 0.272727500000002
                },
                {
                    "name": "A#3",
                    "midi": 58,
                    "time": 99.27280999999945,
                    "velocity": 0.2992125984251969,
                    "duration": 0.1022728125000043
                },
                {
                    "name": "G3",
                    "midi": 55,
                    "time": 99.27280999999945,
                    "velocity": 0.2992125984251969,
                    "duration": 0.1022728125000043
                },
                {
                    "name": "F4",
                    "midi": 65,
                    "time": 99.27280999999945,
                    "velocity": 0.3543307086614173,
                    "duration": 0.1022728125000043
                },
                {
                    "name": "G3",
                    "midi": 55,
                    "time": 99.40917374999945,
                    "velocity": 0.30708661417322836,
                    "duration": 0.1022728125000043
                },
                {
                    "name": "F4",
                    "midi": 65,
                    "time": 99.40917374999945,
                    "velocity": 0.3700787401574803,
                    "duration": 0.1022728125000043
                },
                {
                    "name": "A#3",
                    "midi": 58,
                    "time": 99.40917374999945,
                    "velocity": 0.30708661417322836,
                    "duration": 0.1022728125000043
                },
                {
                    "name": "A#3",
                    "midi": 58,
                    "time": 99.54553749999945,
                    "velocity": 0.3228346456692913,
                    "duration": 0.2045456249999944
                },
                {
                    "name": "G3",
                    "midi": 55,
                    "time": 99.54553749999945,
                    "velocity": 0.3228346456692913,
                    "duration": 0.2045456249999944
                },
                {
                    "name": "F4",
                    "midi": 65,
                    "time": 99.54553749999945,
                    "velocity": 0.3858267716535433,
                    "duration": 0.2045456249999944
                },
                {
                    "name": "G3",
                    "midi": 55,
                    "time": 99.81826499999944,
                    "velocity": 0.2992125984251969,
                    "duration": 0.2045456249999944
                },
                {
                    "name": "A#3",
                    "midi": 58,
                    "time": 99.81826499999944,
                    "velocity": 0.2992125984251969,
                    "duration": 0.2045456249999944
                },
                {
                    "name": "F4",
                    "midi": 65,
                    "time": 99.81826499999944,
                    "velocity": 0.3543307086614173,
                    "duration": 0.2045456249999944
                },
                {
                    "name": "G3",
                    "midi": 55,
                    "time": 100.09099249999943,
                    "velocity": 0.2992125984251969,
                    "duration": 0.2045456249999944
                },
                {
                    "name": "F4",
                    "midi": 65,
                    "time": 100.09099249999943,
                    "velocity": 0.3543307086614173,
                    "duration": 0.2045456249999944
                },
                {
                    "name": "F4",
                    "midi": 65,
                    "time": 100.36371999999942,
                    "velocity": 0.3543307086614173,
                    "duration": 0.2045456249999944
                },
                {
                    "name": "G3",
                    "midi": 55,
                    "time": 100.36371999999942,
                    "velocity": 0.2992125984251969,
                    "duration": 0.2045456249999944
                },
                {
                    "name": "C2",
                    "midi": 36,
                    "time": 100.6364474999994,
                    "velocity": 0.3543307086614173,
                    "duration": 0.272727500000002
                },
                {
                    "name": "C3",
                    "midi": 48,
                    "time": 100.6364474999994,
                    "velocity": 0.41732283464566927,
                    "duration": 0.272727500000002
                },
                {
                    "name": "E4",
                    "midi": 64,
                    "time": 100.90917499999941,
                    "velocity": 0.3700787401574803,
                    "duration": 0.1022728125000043
                },
                {
                    "name": "G3",
                    "midi": 55,
                    "time": 100.90917499999941,
                    "velocity": 0.30708661417322836,
                    "duration": 0.1022728125000043
                },
                {
                    "name": "E4",
                    "midi": 64,
                    "time": 101.04553874999941,
                    "velocity": 0.3700787401574803,
                    "duration": 0.1022728125000043
                },
                {
                    "name": "G3",
                    "midi": 55,
                    "time": 101.04553874999941,
                    "velocity": 0.30708661417322836,
                    "duration": 0.1022728125000043
                },
                {
                    "name": "E4",
                    "midi": 64,
                    "time": 101.18190249999941,
                    "velocity": 0.3937007874015748,
                    "duration": 0.2045456249999944
                },
                {
                    "name": "G3",
                    "midi": 55,
                    "time": 101.18190249999941,
                    "velocity": 0.33070866141732286,
                    "duration": 0.2045456249999944
                },
                {
                    "name": "G3",
                    "midi": 55,
                    "time": 101.4546299999994,
                    "velocity": 0.2992125984251969,
                    "duration": 0.2045456250000086
                },
                {
                    "name": "E4",
                    "midi": 64,
                    "time": 101.4546299999994,
                    "velocity": 0.3543307086614173,
                    "duration": 0.2045456250000086
                },
                {
                    "name": "A#1",
                    "midi": 34,
                    "time": 101.7273574999994,
                    "velocity": 0.36220472440944884,
                    "duration": 0.272727500000002
                },
                {
                    "name": "A#2",
                    "midi": 46,
                    "time": 101.7273574999994,
                    "velocity": 0.4330708661417323,
                    "duration": 0.272727500000002
                },
                {
                    "name": "G#3",
                    "midi": 56,
                    "time": 102.0000849999994,
                    "velocity": 0.2992125984251969,
                    "duration": 0.272727500000002
                },
                {
                    "name": "F3",
                    "midi": 53,
                    "time": 102.0000849999994,
                    "velocity": 0.2992125984251969,
                    "duration": 0.272727500000002
                },
                {
                    "name": "F4",
                    "midi": 65,
                    "time": 102.0000849999994,
                    "velocity": 0.3543307086614173,
                    "duration": 0.272727500000002
                },
                {
                    "name": "C2",
                    "midi": 36,
                    "time": 102.2728124999994,
                    "velocity": 0.3543307086614173,
                    "duration": 0.2727275000000162
                },
                {
                    "name": "C3",
                    "midi": 48,
                    "time": 102.2728124999994,
                    "velocity": 0.41732283464566927,
                    "duration": 0.2727275000000162
                },
                {
                    "name": "E4",
                    "midi": 64,
                    "time": 102.54553999999942,
                    "velocity": 0.3700787401574803,
                    "duration": 0.1022728125000043
                },
                {
                    "name": "G3",
                    "midi": 55,
                    "time": 102.54553999999942,
                    "velocity": 0.30708661417322836,
                    "duration": 0.1022728125000043
                },
                {
                    "name": "E4",
                    "midi": 64,
                    "time": 102.68190374999942,
                    "velocity": 0.3779527559055118,
                    "duration": 0.1022728125000043
                },
                {
                    "name": "G3",
                    "midi": 55,
                    "time": 102.68190374999942,
                    "velocity": 0.31496062992125984,
                    "duration": 0.1022728125000043
                },
                {
                    "name": "E4",
                    "midi": 64,
                    "time": 102.81826749999942,
                    "velocity": 0.3937007874015748,
                    "duration": 0.2045456249999944
                },
                {
                    "name": "G3",
                    "midi": 55,
                    "time": 102.81826749999942,
                    "velocity": 0.33858267716535434,
                    "duration": 0.2045456249999944
                },
                {
                    "name": "G3",
                    "midi": 55,
                    "time": 103.09099499999941,
                    "velocity": 0.30708661417322836,
                    "duration": 0.2045456249999944
                },
                {
                    "name": "E4",
                    "midi": 64,
                    "time": 103.09099499999941,
                    "velocity": 0.36220472440944884,
                    "duration": 0.2045456249999944
                },
                {
                    "name": "A#1",
                    "midi": 34,
                    "time": 103.3637224999994,
                    "velocity": 0.3779527559055118,
                    "duration": 0.272727500000002
                },
                {
                    "name": "A#2",
                    "midi": 46,
                    "time": 103.3637224999994,
                    "velocity": 0.44881889763779526,
                    "duration": 0.272727500000002
                },
                {
                    "name": "G#3",
                    "midi": 56,
                    "time": 103.6364499999994,
                    "velocity": 0.31496062992125984,
                    "duration": 0.272727500000002
                },
                {
                    "name": "F4",
                    "midi": 65,
                    "time": 103.6364499999994,
                    "velocity": 0.3779527559055118,
                    "duration": 0.272727500000002
                },
                {
                    "name": "F3",
                    "midi": 53,
                    "time": 103.6364499999994,
                    "velocity": 0.31496062992125984,
                    "duration": 0.272727500000002
                },
                {
                    "name": "A#1",
                    "midi": 34,
                    "time": 103.9091774999994,
                    "velocity": 0.3858267716535433,
                    "duration": 0.272727500000002
                },
                {
                    "name": "A#2",
                    "midi": 46,
                    "time": 103.9091774999994,
                    "velocity": 0.4566929133858268,
                    "duration": 0.272727500000002
                },
                {
                    "name": "G#3",
                    "midi": 56,
                    "time": 104.1819049999994,
                    "velocity": 0.3228346456692913,
                    "duration": 0.272727500000002
                },
                {
                    "name": "D4",
                    "midi": 62,
                    "time": 104.1819049999994,
                    "velocity": 0.3228346456692913,
                    "duration": 0.272727500000002
                },
                {
                    "name": "G#4",
                    "midi": 68,
                    "time": 104.1819049999994,
                    "velocity": 0.3937007874015748,
                    "duration": 0.272727500000002
                },
                {
                    "name": "A#3",
                    "midi": 58,
                    "time": 104.1819049999994,
                    "velocity": 0.3228346456692913,
                    "duration": 0.272727500000002
                },
                {
                    "name": "D#2",
                    "midi": 39,
                    "time": 104.4546324999994,
                    "velocity": 0.4881889763779528,
                    "duration": 0.272727500000002
                },
                {
                    "name": "D#1",
                    "midi": 27,
                    "time": 104.4546324999994,
                    "velocity": 0.41732283464566927,
                    "duration": 0.272727500000002
                },
                {
                    "name": "C#4",
                    "midi": 61,
                    "time": 104.72735999999941,
                    "velocity": 0.36220472440944884,
                    "duration": 0.272727500000002
                },
                {
                    "name": "A#3",
                    "midi": 58,
                    "time": 104.72735999999941,
                    "velocity": 0.36220472440944884,
                    "duration": 0.272727500000002
                },
                {
                    "name": "D#4",
                    "midi": 63,
                    "time": 104.72735999999941,
                    "velocity": 0.4251968503937008,
                    "duration": 0.272727500000002
                },
                {
                    "name": "G3",
                    "midi": 55,
                    "time": 104.72735999999941,
                    "velocity": 0.36220472440944884,
                    "duration": 0.272727500000002
                },
                {
                    "name": "A#3",
                    "midi": 58,
                    "time": 105.00008749999941,
                    "velocity": 0.44881889763779526,
                    "duration": 0.272727500000002
                },
                {
                    "name": "C#4",
                    "midi": 61,
                    "time": 105.00008749999941,
                    "velocity": 0.44881889763779526,
                    "duration": 0.272727500000002
                },
                {
                    "name": "D#4",
                    "midi": 63,
                    "time": 105.00008749999941,
                    "velocity": 0.44881889763779526,
                    "duration": 0.272727500000002
                },
                {
                    "name": "G4",
                    "midi": 67,
                    "time": 105.00008749999941,
                    "velocity": 0.5354330708661418,
                    "duration": 0.272727500000002
                },
                {
                    "name": "C#4",
                    "midi": 61,
                    "time": 105.27281499999941,
                    "velocity": 0.3858267716535433,
                    "duration": 0.545455000000004
                },
                {
                    "name": "D#4",
                    "midi": 63,
                    "time": 105.27281499999941,
                    "velocity": 0.3858267716535433,
                    "duration": 0.545455000000004
                },
                {
                    "name": "G4",
                    "midi": 67,
                    "time": 105.27281499999941,
                    "velocity": 0.3858267716535433,
                    "duration": 0.545455000000004
                },
                {
                    "name": "C#5",
                    "midi": 73,
                    "time": 105.27281499999941,
                    "velocity": 0.4645669291338583,
                    "duration": 0.545455000000004
                },
                {
                    "name": "G#1",
                    "midi": 32,
                    "time": 105.81826999999942,
                    "velocity": 0.5275590551181102,
                    "duration": 0.136363750000001
                },
                {
                    "name": "G#2",
                    "midi": 44,
                    "time": 105.81826999999942,
                    "velocity": 0.6220472440944882,
                    "duration": 0.136363750000001
                },
                {
                    "name": "C4",
                    "midi": 60,
                    "time": 106.09099749999942,
                    "velocity": 0.5275590551181102,
                    "duration": 0.272727500000002
                },
                {
                    "name": "D#3",
                    "midi": 51,
                    "time": 106.09099749999942,
                    "velocity": 0.5275590551181102,
                    "duration": 0.272727500000002
                },
                {
                    "name": "D#4",
                    "midi": 63,
                    "time": 106.09099749999942,
                    "velocity": 0.6220472440944882,
                    "duration": 0.272727500000002
                },
                {
                    "name": "G#4",
                    "midi": 68,
                    "time": 106.36372499999942,
                    "velocity": 0.6062992125984252,
                    "duration": 0.272727500000002
                },
                {
                    "name": "C4",
                    "midi": 60,
                    "time": 106.36372499999942,
                    "velocity": 0.6062992125984252,
                    "duration": 0.272727500000002
                },
                {
                    "name": "G#3",
                    "midi": 56,
                    "time": 106.36372499999942,
                    "velocity": 0.5039370078740157,
                    "duration": 0.272727500000002
                },
                {
                    "name": "D#2",
                    "midi": 39,
                    "time": 106.63645249999942,
                    "velocity": 0.5669291338582677,
                    "duration": 0.06818187500000761
                },
                {
                    "name": "D#3",
                    "midi": 51,
                    "time": 106.63645249999942,
                    "velocity": 0.6692913385826772,
                    "duration": 0.06818187500000761
                },
                {
                    "name": "G#2",
                    "midi": 44,
                    "time": 106.90917999999942,
                    "velocity": 0.5748031496062992,
                    "duration": 0.136363750000001
                },
                {
                    "name": "G#3",
                    "midi": 56,
                    "time": 106.90917999999942,
                    "velocity": 0.6771653543307087,
                    "duration": 0.136363750000001
                },
                {
                    "name": "D#1",
                    "midi": 27,
                    "time": 107.18190749999943,
                    "velocity": 0.48031496062992124,
                    "duration": 0.272727500000002
                },
                {
                    "name": "D#2",
                    "midi": 39,
                    "time": 107.18190749999943,
                    "velocity": 0.5748031496062992,
                    "duration": 0.272727500000002
                },
                {
                    "name": "G#1",
                    "midi": 32,
                    "time": 107.45463499999943,
                    "velocity": 0.5275590551181102,
                    "duration": 0.272727500000002
                },
                {
                    "name": "G#2",
                    "midi": 44,
                    "time": 107.45463499999943,
                    "velocity": 0.6220472440944882,
                    "duration": 0.272727500000002
                },
                {
                    "name": "C4",
                    "midi": 60,
                    "time": 107.72736249999943,
                    "velocity": 0.48031496062992124,
                    "duration": 0.272727500000002
                },
                {
                    "name": "D#4",
                    "midi": 63,
                    "time": 107.72736249999943,
                    "velocity": 0.5748031496062992,
                    "duration": 0.272727500000002
                },
                {
                    "name": "D#3",
                    "midi": 51,
                    "time": 107.72736249999943,
                    "velocity": 0.48031496062992124,
                    "duration": 0.272727500000002
                },
                {
                    "name": "G#4",
                    "midi": 68,
                    "time": 108.00008999999943,
                    "velocity": 0.5905511811023622,
                    "duration": 0.272727500000002
                },
                {
                    "name": "C4",
                    "midi": 60,
                    "time": 108.00008999999943,
                    "velocity": 0.5905511811023622,
                    "duration": 0.272727500000002
                },
                {
                    "name": "G#3",
                    "midi": 56,
                    "time": 108.00008999999943,
                    "velocity": 0.49606299212598426,
                    "duration": 0.272727500000002
                },
                {
                    "name": "D#2",
                    "midi": 39,
                    "time": 108.27281749999943,
                    "velocity": 0.5275590551181102,
                    "duration": 0.06818187500000761
                },
                {
                    "name": "D#3",
                    "midi": 51,
                    "time": 108.27281749999943,
                    "velocity": 0.6299212598425197,
                    "duration": 0.06818187500000761
                },
                {
                    "name": "G#2",
                    "midi": 44,
                    "time": 108.54554499999944,
                    "velocity": 0.5748031496062992,
                    "duration": 0.136363750000001
                },
                {
                    "name": "G#3",
                    "midi": 56,
                    "time": 108.54554499999944,
                    "velocity": 0.6771653543307087,
                    "duration": 0.136363750000001
                },
                {
                    "name": "D#1",
                    "midi": 27,
                    "time": 108.81827249999944,
                    "velocity": 0.48031496062992124,
                    "duration": 0.272727500000002
                },
                {
                    "name": "D#2",
                    "midi": 39,
                    "time": 108.81827249999944,
                    "velocity": 0.5748031496062992,
                    "duration": 0.272727500000002
                },
                {
                    "name": "G#1",
                    "midi": 32,
                    "time": 109.09099999999944,
                    "velocity": 0.5275590551181102,
                    "duration": 0.272727500000002
                },
                {
                    "name": "G#2",
                    "midi": 44,
                    "time": 109.09099999999944,
                    "velocity": 0.6220472440944882,
                    "duration": 0.272727500000002
                },
                {
                    "name": "C4",
                    "midi": 60,
                    "time": 109.36372749999944,
                    "velocity": 0.48031496062992124,
                    "duration": 0.272727500000002
                },
                {
                    "name": "D#4",
                    "midi": 63,
                    "time": 109.36372749999944,
                    "velocity": 0.5748031496062992,
                    "duration": 0.272727500000002
                },
                {
                    "name": "D#3",
                    "midi": 51,
                    "time": 109.36372749999944,
                    "velocity": 0.48031496062992124,
                    "duration": 0.272727500000002
                },
                {
                    "name": "G#4",
                    "midi": 68,
                    "time": 109.63645499999944,
                    "velocity": 0.5905511811023622,
                    "duration": 0.2727274999999878
                },
                {
                    "name": "C4",
                    "midi": 60,
                    "time": 109.63645499999944,
                    "velocity": 0.5905511811023622,
                    "duration": 0.2727274999999878
                },
                {
                    "name": "G#3",
                    "midi": 56,
                    "time": 109.63645499999944,
                    "velocity": 0.49606299212598426,
                    "duration": 0.2727274999999878
                },
                {
                    "name": "D#2",
                    "midi": 39,
                    "time": 109.90918249999943,
                    "velocity": 0.48031496062992124,
                    "duration": 0.136363750000001
                },
                {
                    "name": "D#3",
                    "midi": 51,
                    "time": 109.90918249999943,
                    "velocity": 0.5748031496062992,
                    "duration": 0.136363750000001
                },
                {
                    "name": "G#2",
                    "midi": 44,
                    "time": 110.18190999999943,
                    "velocity": 0.5039370078740157,
                    "duration": 0.136363750000001
                },
                {
                    "name": "G#3",
                    "midi": 56,
                    "time": 110.18190999999943,
                    "velocity": 0.6062992125984252,
                    "duration": 0.136363750000001
                },
                {
                    "name": "D#2",
                    "midi": 39,
                    "time": 110.38645562499943,
                    "velocity": 0.4881889763779528,
                    "duration": 0.2386365625000053
                },
                {
                    "name": "A#2",
                    "midi": 46,
                    "time": 110.42054656249942,
                    "velocity": 0.4881889763779528,
                    "duration": 0.2045456250000086
                },
                {
                    "name": "F#3",
                    "midi": 54,
                    "time": 110.45463749999942,
                    "velocity": 0.5826771653543307,
                    "duration": 0.17045468750001191
                },
                {
                    "name": "F2",
                    "midi": 41,
                    "time": 110.62509218749943,
                    "velocity": 0.4881889763779528,
                    "duration": 0.2727274999999878
                },
                {
                    "name": "C3",
                    "midi": 48,
                    "time": 110.65918312499943,
                    "velocity": 0.4881889763779528,
                    "duration": 0.3409093749999812
                },
                {
                    "name": "D#3",
                    "midi": 51,
                    "time": 110.69327406249943,
                    "velocity": 0.5826771653543307,
                    "duration": 0.2045456249999944
                },
                {
                    "name": "A3",
                    "midi": 57,
                    "time": 110.72736499999942,
                    "velocity": 0.5826771653543307,
                    "duration": 0.1704546874999977
                },
                {
                    "name": "F3",
                    "midi": 53,
                    "time": 110.89781968749942,
                    "velocity": 0.48031496062992124,
                    "duration": 0.2727274999999878
                },
                {
                    "name": "C4",
                    "midi": 60,
                    "time": 110.93191062499942,
                    "velocity": 0.48031496062992124,
                    "duration": 0.2386365624999911
                },
                {
                    "name": "D#4",
                    "midi": 63,
                    "time": 110.96600156249941,
                    "velocity": 0.5748031496062992,
                    "duration": 0.2045456249999944
                },
                {
                    "name": "A4",
                    "midi": 69,
                    "time": 111.00009249999941,
                    "velocity": 0.5748031496062992,
                    "duration": 0.1704546874999977
                },
                {
                    "name": "A#2",
                    "midi": 46,
                    "time": 111.20463812499942,
                    "velocity": 0.49606299212598426,
                    "duration": 0.3409093749999954
                },
                {
                    "name": "F3",
                    "midi": 53,
                    "time": 111.23872906249942,
                    "velocity": 0.5905511811023622,
                    "duration": 0.3068184374999987
                },
                {
                    "name": "C#4",
                    "midi": 61,
                    "time": 111.27281999999941,
                    "velocity": 0.5905511811023622,
                    "duration": 0.272727500000002
                },
                {
                    "name": "F#2",
                    "midi": 42,
                    "time": 111.54554749999942,
                    "velocity": 0.47244094488188976,
                    "duration": 0.272727500000002
                },
                {
                    "name": "F#3",
                    "midi": 54,
                    "time": 111.54554749999942,
                    "velocity": 0.5590551181102362,
                    "duration": 0.272727500000002
                },
                {
                    "name": "F2",
                    "midi": 41,
                    "time": 111.81827499999942,
                    "velocity": 0.47244094488188976,
                    "duration": 0.272727500000002
                },
                {
                    "name": "F3",
                    "midi": 53,
                    "time": 111.81827499999942,
                    "velocity": 0.5590551181102362,
                    "duration": 0.272727500000002
                },
                {
                    "name": "C#2",
                    "midi": 37,
                    "time": 112.09100249999942,
                    "velocity": 0.4566929133858268,
                    "duration": 0.272727500000002
                },
                {
                    "name": "C#3",
                    "midi": 49,
                    "time": 112.09100249999942,
                    "velocity": 0.5433070866141733,
                    "duration": 0.272727500000002
                },
                {
                    "name": "A#1",
                    "midi": 34,
                    "time": 112.36372999999942,
                    "velocity": 0.5275590551181102,
                    "duration": 0.136363750000001
                },
                {
                    "name": "A#2",
                    "midi": 46,
                    "time": 112.36372999999942,
                    "velocity": 0.6220472440944882,
                    "duration": 0.136363750000001
                },
                {
                    "name": "C#4",
                    "midi": 61,
                    "time": 112.63645749999942,
                    "velocity": 0.6220472440944882,
                    "duration": 0.272727500000002
                },
                {
                    "name": "F3",
                    "midi": 53,
                    "time": 112.63645749999942,
                    "velocity": 0.5275590551181102,
                    "duration": 0.272727500000002
                },
                {
                    "name": "F4",
                    "midi": 65,
                    "time": 112.63645749999942,
                    "velocity": 0.6220472440944882,
                    "duration": 0.272727500000002
                },
                {
                    "name": "A#4",
                    "midi": 70,
                    "time": 112.90918499999943,
                    "velocity": 0.6062992125984252,
                    "duration": 0.272727500000002
                },
                {
                    "name": "C#4",
                    "midi": 61,
                    "time": 112.90918499999943,
                    "velocity": 0.6062992125984252,
                    "duration": 0.272727500000002
                },
                {
                    "name": "A#3",
                    "midi": 58,
                    "time": 112.90918499999943,
                    "velocity": 0.5039370078740157,
                    "duration": 0.272727500000002
                },
                {
                    "name": "F2",
                    "midi": 41,
                    "time": 113.18191249999943,
                    "velocity": 0.5669291338582677,
                    "duration": 0.0681818749999934
                },
                {
                    "name": "F3",
                    "midi": 53,
                    "time": 113.18191249999943,
                    "velocity": 0.6692913385826772,
                    "duration": 0.0681818749999934
                },
                {
                    "name": "A#2",
                    "midi": 46,
                    "time": 113.45463999999942,
                    "velocity": 0.5748031496062992,
                    "duration": 0.136363750000001
                },
                {
                    "name": "A#3",
                    "midi": 58,
                    "time": 113.45463999999942,
                    "velocity": 0.6771653543307087,
                    "duration": 0.136363750000001
                },
                {
                    "name": "F1",
                    "midi": 29,
                    "time": 113.72736749999942,
                    "velocity": 0.48031496062992124,
                    "duration": 0.272727500000002
                },
                {
                    "name": "F2",
                    "midi": 41,
                    "time": 113.72736749999942,
                    "velocity": 0.5748031496062992,
                    "duration": 0.272727500000002
                },
                {
                    "name": "A#1",
                    "midi": 34,
                    "time": 114.00009499999942,
                    "velocity": 0.5275590551181102,
                    "duration": 0.272727500000002
                },
                {
                    "name": "A#2",
                    "midi": 46,
                    "time": 114.00009499999942,
                    "velocity": 0.6220472440944882,
                    "duration": 0.272727500000002
                },
                {
                    "name": "C#4",
                    "midi": 61,
                    "time": 114.27282249999942,
                    "velocity": 0.48031496062992124,
                    "duration": 0.272727500000002
                },
                {
                    "name": "F4",
                    "midi": 65,
                    "time": 114.27282249999942,
                    "velocity": 0.5748031496062992,
                    "duration": 0.272727500000002
                },
                {
                    "name": "F3",
                    "midi": 53,
                    "time": 114.27282249999942,
                    "velocity": 0.48031496062992124,
                    "duration": 0.272727500000002
                },
                {
                    "name": "A#4",
                    "midi": 70,
                    "time": 114.54554999999942,
                    "velocity": 0.5905511811023622,
                    "duration": 0.272727500000002
                },
                {
                    "name": "C#4",
                    "midi": 61,
                    "time": 114.54554999999942,
                    "velocity": 0.5905511811023622,
                    "duration": 0.272727500000002
                },
                {
                    "name": "A#3",
                    "midi": 58,
                    "time": 114.54554999999942,
                    "velocity": 0.49606299212598426,
                    "duration": 0.272727500000002
                },
                {
                    "name": "F2",
                    "midi": 41,
                    "time": 114.81827749999943,
                    "velocity": 0.5275590551181102,
                    "duration": 0.0681818749999934
                },
                {
                    "name": "F3",
                    "midi": 53,
                    "time": 114.81827749999943,
                    "velocity": 0.6299212598425197,
                    "duration": 0.0681818749999934
                },
                {
                    "name": "A#2",
                    "midi": 46,
                    "time": 115.09100499999941,
                    "velocity": 0.5748031496062992,
                    "duration": 0.136363750000001
                },
                {
                    "name": "A#3",
                    "midi": 58,
                    "time": 115.09100499999941,
                    "velocity": 0.6771653543307087,
                    "duration": 0.136363750000001
                },
                {
                    "name": "A#1",
                    "midi": 34,
                    "time": 115.36373249999941,
                    "velocity": 0.48031496062992124,
                    "duration": 0.272727500000002
                },
                {
                    "name": "A#2",
                    "midi": 46,
                    "time": 115.36373249999941,
                    "velocity": 0.5748031496062992,
                    "duration": 0.272727500000002
                },
                {
                    "name": "D#1",
                    "midi": 27,
                    "time": 115.63645999999942,
                    "velocity": 0.5275590551181102,
                    "duration": 0.136363750000001
                },
                {
                    "name": "D#2",
                    "midi": 39,
                    "time": 115.63645999999942,
                    "velocity": 0.6220472440944882,
                    "duration": 0.136363750000001
                },
                {
                    "name": "G4",
                    "midi": 67,
                    "time": 115.90918749999942,
                    "velocity": 0.47244094488188976,
                    "duration": 0.2727274999999878
                },
                {
                    "name": "C#4",
                    "midi": 61,
                    "time": 115.90918749999942,
                    "velocity": 0.47244094488188976,
                    "duration": 0.2727274999999878
                },
                {
                    "name": "C5",
                    "midi": 72,
                    "time": 115.90918749999942,
                    "velocity": 0.5669291338582677,
                    "duration": 0.136363750000001
                },
                {
                    "name": "D#4",
                    "midi": 63,
                    "time": 115.90918749999942,
                    "velocity": 0.47244094488188976,
                    "duration": 0.2727274999999878
                },
                {
                    "name": "A#4",
                    "midi": 70,
                    "time": 116.04555124999942,
                    "velocity": 0.5511811023622047,
                    "duration": 0.1363637499999868
                },
                {
                    "name": "D#3",
                    "midi": 51,
                    "time": 116.1819149999994,
                    "velocity": 0.5905511811023622,
                    "duration": 0.136363750000001
                },
                {
                    "name": "A#4",
                    "midi": 70,
                    "time": 116.45464249999941,
                    "velocity": 0.5669291338582677,
                    "duration": 0.136363750000001
                },
                {
                    "name": "C4",
                    "midi": 60,
                    "time": 116.45464249999941,
                    "velocity": 0.4566929133858268,
                    "duration": 0.272727500000002
                },
                {
                    "name": "D#4",
                    "midi": 63,
                    "time": 116.45464249999941,
                    "velocity": 0.5433070866141733,
                    "duration": 0.272727500000002
                },
                {
                    "name": "G#4",
                    "midi": 68,
                    "time": 116.59100624999941,
                    "velocity": 0.5511811023622047,
                    "duration": 0.136363750000001
                },
                {
                    "name": "D#3",
                    "midi": 51,
                    "time": 116.72736999999941,
                    "velocity": 0.5748031496062992,
                    "duration": 0.136363750000001
                },
                {
                    "name": "G#4",
                    "midi": 68,
                    "time": 117.00009749999941,
                    "velocity": 0.5669291338582677,
                    "duration": 0.136363750000001
                },
                {
                    "name": "A#3",
                    "midi": 58,
                    "time": 117.00009749999941,
                    "velocity": 0.4409448818897638,
                    "duration": 0.272727500000002
                },
                {
                    "name": "D#4",
                    "midi": 63,
                    "time": 117.00009749999941,
                    "velocity": 0.5275590551181102,
                    "duration": 0.272727500000002
                },
                {
                    "name": "G4",
                    "midi": 67,
                    "time": 117.13646124999941,
                    "velocity": 0.5511811023622047,
                    "duration": 0.136363750000001
                },
                {
                    "name": "A#2",
                    "midi": 46,
                    "time": 117.27282499999941,
                    "velocity": 0.5511811023622047,
                    "duration": 0.136363750000001
                },
                {
                    "name": "G4",
                    "midi": 67,
                    "time": 117.54555249999942,
                    "velocity": 0.5669291338582677,
                    "duration": 0.136363750000001
                },
                {
                    "name": "G#3",
                    "midi": 56,
                    "time": 117.54555249999942,
                    "velocity": 0.4330708661417323,
                    "duration": 0.272727500000002
                },
                {
                    "name": "D4",
                    "midi": 62,
                    "time": 117.54555249999942,
                    "velocity": 0.5196850393700787,
                    "duration": 0.272727500000002
                },
                {
                    "name": "A#3",
                    "midi": 58,
                    "time": 117.54555249999942,
                    "velocity": 0.4330708661417323,
                    "duration": 0.272727500000002
                },
                {
                    "name": "F4",
                    "midi": 65,
                    "time": 117.68191624999942,
                    "velocity": 0.5511811023622047,
                    "duration": 0.136363750000001
                },
                {
                    "name": "D#3",
                    "midi": 51,
                    "time": 117.81827999999942,
                    "velocity": 0.5669291338582677,
                    "duration": 0.136363750000001
                },
                {
                    "name": "F4",
                    "midi": 65,
                    "time": 118.09100749999942,
                    "velocity": 0.5669291338582677,
                    "duration": 0.136363750000001
                },
                {
                    "name": "G3",
                    "midi": 55,
                    "time": 118.09100749999942,
                    "velocity": 0.44881889763779526,
                    "duration": 0.272727500000002
                },
                {
                    "name": "A#3",
                    "midi": 58,
                    "time": 118.09100749999942,
                    "velocity": 0.5354330708661418,
                    "duration": 0.272727500000002
                },
                {
                    "name": "D#4",
                    "midi": 63,
                    "time": 118.22737124999942,
                    "velocity": 0.5511811023622047,
                    "duration": 0.136363750000001
                },
                {
                    "name": "F2",
                    "midi": 41,
                    "time": 118.36373499999942,
                    "velocity": 0.4881889763779528,
                    "duration": 0.272727500000002
                },
                {
                    "name": "F3",
                    "midi": 53,
                    "time": 118.36373499999942,
                    "velocity": 0.5826771653543307,
                    "duration": 0.5454549999999898
                },
                {
                    "name": "C#4",
                    "midi": 61,
                    "time": 118.63646249999942,
                    "velocity": 0.5669291338582677,
                    "duration": 0.136363750000001
                },
                {
                    "name": "G#3",
                    "midi": 56,
                    "time": 118.63646249999942,
                    "velocity": 0.5354330708661418,
                    "duration": 0.2727274999999878
                },
                {
                    "name": "C4",
                    "midi": 60,
                    "time": 118.77282624999943,
                    "velocity": 0.5511811023622047,
                    "duration": 0.1363637499999868
                },
                {
                    "name": "C#2",
                    "midi": 37,
                    "time": 118.90918999999941,
                    "velocity": 0.4881889763779528,
                    "duration": 0.2727274999999878
                },
                {
                    "name": "C#3",
                    "midi": 49,
                    "time": 118.90918999999941,
                    "velocity": 0.5826771653543307,
                    "duration": 0.2727274999999878
                },
                {
                    "name": "F3",
                    "midi": 53,
                    "time": 119.1819174999994,
                    "velocity": 0.4330708661417323,
                    "duration": 0.272727500000002
                },
                {
                    "name": "A#3",
                    "midi": 58,
                    "time": 119.1819174999994,
                    "velocity": 0.5039370078740157,
                    "duration": 0.272727500000002
                },
                {
                    "name": "C2",
                    "midi": 36,
                    "time": 119.4546449999994,
                    "velocity": 0.3937007874015748,
                    "duration": 0.272727500000002
                },
                {
                    "name": "C3",
                    "midi": 48,
                    "time": 119.4546449999994,
                    "velocity": 0.47244094488188976,
                    "duration": 0.272727500000002
                },
                {
                    "name": "E3",
                    "midi": 52,
                    "time": 119.7273724999994,
                    "velocity": 0.3543307086614173,
                    "duration": 0.272727500000002
                },
                {
                    "name": "C4",
                    "midi": 60,
                    "time": 119.7273724999994,
                    "velocity": 0.4251968503937008,
                    "duration": 0.272727500000002
                },
                {
                    "name": "A#3",
                    "midi": 58,
                    "time": 119.7273724999994,
                    "velocity": 0.3543307086614173,
                    "duration": 0.272727500000002
                },
                {
                    "name": "F1",
                    "midi": 29,
                    "time": 120.0000999999994,
                    "velocity": 0.4094488188976378,
                    "duration": 0.2727274999999878
                },
                {
                    "name": "F2",
                    "midi": 41,
                    "time": 120.0000999999994,
                    "velocity": 0.4881889763779528,
                    "duration": 0.2727274999999878
                },
                {
                    "name": "F3",
                    "midi": 53,
                    "time": 120.2728274999994,
                    "velocity": 0.4566929133858268,
                    "duration": 0.272727500000002
                },
                {
                    "name": "G#3",
                    "midi": 56,
                    "time": 120.2728274999994,
                    "velocity": 0.4566929133858268,
                    "duration": 0.272727500000002
                },
                {
                    "name": "C4",
                    "midi": 60,
                    "time": 120.2728274999994,
                    "velocity": 0.4566929133858268,
                    "duration": 0.272727500000002
                },
                {
                    "name": "D#2",
                    "midi": 39,
                    "time": 120.5455549999994,
                    "velocity": 0.33858267716535434,
                    "duration": 0.1363637499999868
                },
                {
                    "name": "D#3",
                    "midi": 51,
                    "time": 120.5455549999994,
                    "velocity": 0.4015748031496063,
                    "duration": 0.1363637499999868
                },
                {
                    "name": "D#3",
                    "midi": 51,
                    "time": 120.81828249999938,
                    "velocity": 0.31496062992125984,
                    "duration": 0.272727500000002
                },
                {
                    "name": "A#3",
                    "midi": 58,
                    "time": 120.81828249999938,
                    "velocity": 0.3700787401574803,
                    "duration": 0.272727500000002
                },
                {
                    "name": "G#2",
                    "midi": 44,
                    "time": 121.09100999999939,
                    "velocity": 0.31496062992125984,
                    "duration": 0.272727500000002
                },
                {
                    "name": "D#3",
                    "midi": 51,
                    "time": 121.09100999999939,
                    "velocity": 0.3779527559055118,
                    "duration": 0.272727500000002
                },
                {
                    "name": "G#3",
                    "midi": 56,
                    "time": 121.09100999999939,
                    "velocity": 0.4409448818897638,
                    "duration": 0.272727500000002
                },
                {
                    "name": "G#2",
                    "midi": 44,
                    "time": 121.90919249999939,
                    "velocity": 0.4330708661417323,
                    "duration": 0.272727500000002
                },
                {
                    "name": "G#3",
                    "midi": 56,
                    "time": 121.90919249999939,
                    "velocity": 0.5118110236220472,
                    "duration": 0.272727500000002
                },
                {
                    "name": "C#2",
                    "midi": 37,
                    "time": 122.1819199999994,
                    "velocity": 0.4409448818897638,
                    "duration": 0.2727274999999878
                },
                {
                    "name": "C#3",
                    "midi": 49,
                    "time": 122.1819199999994,
                    "velocity": 0.5275590551181102,
                    "duration": 0.2727274999999878
                },
                {
                    "name": "F3",
                    "midi": 53,
                    "time": 122.45464749999938,
                    "velocity": 0.3937007874015748,
                    "duration": 0.272727500000002
                },
                {
                    "name": "A#3",
                    "midi": 58,
                    "time": 122.45464749999938,
                    "velocity": 0.4566929133858268,
                    "duration": 0.272727500000002
                },
                {
                    "name": "C2",
                    "midi": 36,
                    "time": 122.72737499999938,
                    "velocity": 0.44881889763779526,
                    "duration": 0.272727500000002
                },
                {
                    "name": "C3",
                    "midi": 48,
                    "time": 122.72737499999938,
                    "velocity": 0.5433070866141733,
                    "duration": 0.272727500000002
                },
                {
                    "name": "A#3",
                    "midi": 58,
                    "time": 123.00010249999939,
                    "velocity": 0.4015748031496063,
                    "duration": 0.2727274999999878
                },
                {
                    "name": "E4",
                    "midi": 64,
                    "time": 123.00010249999939,
                    "velocity": 0.4881889763779528,
                    "duration": 0.2727274999999878
                },
                {
                    "name": "C4",
                    "midi": 60,
                    "time": 123.00010249999939,
                    "velocity": 0.4015748031496063,
                    "duration": 0.2727274999999878
                },
                {
                    "name": "F1",
                    "midi": 29,
                    "time": 123.27282999999937,
                    "velocity": 0.4645669291338583,
                    "duration": 0.2727274999999878
                },
                {
                    "name": "F2",
                    "midi": 41,
                    "time": 123.27282999999937,
                    "velocity": 0.5590551181102362,
                    "duration": 0.2727274999999878
                },
                {
                    "name": "G#3",
                    "midi": 56,
                    "time": 123.54555749999936,
                    "velocity": 0.5196850393700787,
                    "duration": 0.272727500000002
                },
                {
                    "name": "C4",
                    "midi": 60,
                    "time": 123.54555749999936,
                    "velocity": 0.5196850393700787,
                    "duration": 0.272727500000002
                },
                {
                    "name": "F4",
                    "midi": 65,
                    "time": 123.54555749999936,
                    "velocity": 0.5196850393700787,
                    "duration": 0.272727500000002
                },
                {
                    "name": "D#2",
                    "midi": 39,
                    "time": 123.81828499999936,
                    "velocity": 0.4566929133858268,
                    "duration": 0.1363637499999868
                },
                {
                    "name": "D#3",
                    "midi": 51,
                    "time": 123.81828499999936,
                    "velocity": 0.5511811023622047,
                    "duration": 0.1363637499999868
                },
                {
                    "name": "A#3",
                    "midi": 58,
                    "time": 124.09101249999935,
                    "velocity": 0.36220472440944884,
                    "duration": 0.272727500000002
                },
                {
                    "name": "C#4",
                    "midi": 61,
                    "time": 124.09101249999935,
                    "velocity": 0.36220472440944884,
                    "duration": 0.272727500000002
                },
                {
                    "name": "D#4",
                    "midi": 63,
                    "time": 124.09101249999935,
                    "velocity": 0.4330708661417323,
                    "duration": 0.272727500000002
                },
                {
                    "name": "G4",
                    "midi": 67,
                    "time": 124.09101249999935,
                    "velocity": 0.5039370078740157,
                    "duration": 0.272727500000002
                },
                {
                    "name": "G#3",
                    "midi": 56,
                    "time": 124.36373999999935,
                    "velocity": 0.4330708661417323,
                    "duration": 0.136363750000001
                },
                {
                    "name": "D#4",
                    "midi": 63,
                    "time": 124.36373999999935,
                    "velocity": 0.4330708661417323,
                    "duration": 0.136363750000001
                },
                {
                    "name": "G#4",
                    "midi": 68,
                    "time": 124.36373999999935,
                    "velocity": 0.5039370078740157,
                    "duration": 0.136363750000001
                },
                {
                    "name": "G#4",
                    "midi": 68,
                    "time": 124.63646749999936,
                    "velocity": 0.5039370078740157,
                    "duration": 0.2045456249999944
                },
                {
                    "name": "B3",
                    "midi": 59,
                    "time": 124.63646749999936,
                    "velocity": 0.5039370078740157,
                    "duration": 0.2045456249999944
                },
                {
                    "name": "D4",
                    "midi": 62,
                    "time": 124.63646749999936,
                    "velocity": 0.5039370078740157,
                    "duration": 0.2045456249999944
                },
                {
                    "name": "B4",
                    "midi": 71,
                    "time": 124.63646749999936,
                    "velocity": 0.5039370078740157,
                    "duration": 0.2045456249999944
                },
                {
                    "name": "G#4",
                    "midi": 68,
                    "time": 124.84101312499935,
                    "velocity": 0.44881889763779526,
                    "duration": 0.061363687500005426
                },
                {
                    "name": "C4",
                    "midi": 60,
                    "time": 124.84101312499935,
                    "velocity": 0.44881889763779526,
                    "duration": 0.061363687500005426
                },
                {
                    "name": "C5",
                    "midi": 72,
                    "time": 124.84101312499935,
                    "velocity": 0.44881889763779526,
                    "duration": 0.061363687500005426
                },
                {
                    "name": "D#4",
                    "midi": 63,
                    "time": 124.84101312499935,
                    "velocity": 0.44881889763779526,
                    "duration": 0.061363687500005426
                },
                {
                    "name": "G#4",
                    "midi": 68,
                    "time": 124.90919499999936,
                    "velocity": 0.5039370078740157,
                    "duration": 0.136363750000001
                },
                {
                    "name": "C5",
                    "midi": 72,
                    "time": 124.90919499999936,
                    "velocity": 0.5039370078740157,
                    "duration": 0.136363750000001
                },
                {
                    "name": "C4",
                    "midi": 60,
                    "time": 124.90919499999936,
                    "velocity": 0.5039370078740157,
                    "duration": 0.136363750000001
                },
                {
                    "name": "D#4",
                    "midi": 63,
                    "time": 124.90919499999936,
                    "velocity": 0.5039370078740157,
                    "duration": 0.136363750000001
                },
                {
                    "name": "F3",
                    "midi": 53,
                    "time": 125.07964968749936,
                    "velocity": 0.4330708661417323,
                    "duration": 0.3068184374999845
                },
                {
                    "name": "C4",
                    "midi": 60,
                    "time": 125.11374062499935,
                    "velocity": 0.4330708661417323,
                    "duration": 0.2727274999999878
                },
                {
                    "name": "D#4",
                    "midi": 63,
                    "time": 125.14783156249935,
                    "velocity": 0.4330708661417323,
                    "duration": 0.2386365624999911
                },
                {
                    "name": "A4",
                    "midi": 69,
                    "time": 125.18192249999935,
                    "velocity": 0.5118110236220472,
                    "duration": 0.2045456249999944
                },
                {
                    "name": "A#2",
                    "midi": 46,
                    "time": 125.38646812499934,
                    "velocity": 0.4645669291338583,
                    "duration": 0.2727275000000162
                },
                {
                    "name": "F3",
                    "midi": 53,
                    "time": 125.42055906249934,
                    "velocity": 0.4645669291338583,
                    "duration": 0.23863656250001952
                },
                {
                    "name": "C#4",
                    "midi": 61,
                    "time": 125.45464999999935,
                    "velocity": 0.5590551181102362,
                    "duration": 0.2045456250000086
                },
                {
                    "name": "D#3",
                    "midi": 51,
                    "time": 125.65919562499936,
                    "velocity": 0.4330708661417323,
                    "duration": 0.2727274999999878
                },
                {
                    "name": "A#3",
                    "midi": 58,
                    "time": 125.69328656249935,
                    "velocity": 0.4330708661417323,
                    "duration": 0.2386365624999911
                },
                {
                    "name": "F#4",
                    "midi": 66,
                    "time": 125.72737749999935,
                    "velocity": 0.5118110236220472,
                    "duration": 0.2045456249999944
                },
                {
                    "name": "A#2",
                    "midi": 46,
                    "time": 125.93192312499934,
                    "velocity": 0.4015748031496063,
                    "duration": 0.2727275000000162
                },
                {
                    "name": "F3",
                    "midi": 53,
                    "time": 125.96601406249935,
                    "velocity": 0.4015748031496063,
                    "duration": 0.2386365625000053
                },
                {
                    "name": "C#4",
                    "midi": 61,
                    "time": 126.00010499999935,
                    "velocity": 0.4881889763779528,
                    "duration": 0.2045456250000086
                },
                {
                    "name": "D#2",
                    "midi": 39,
                    "time": 126.20465062499936,
                    "velocity": 0.4015748031496063,
                    "duration": 0.272727500000002
                },
                {
                    "name": "A#2",
                    "midi": 46,
                    "time": 126.23874156249936,
                    "velocity": 0.4015748031496063,
                    "duration": 0.2386365625000053
                },
                {
                    "name": "F#3",
                    "midi": 54,
                    "time": 126.27283249999935,
                    "velocity": 0.4881889763779528,
                    "duration": 0.2045456250000086
                },
                {
                    "name": "A#1",
                    "midi": 34,
                    "time": 126.47737812499936,
                    "velocity": 0.4015748031496063,
                    "duration": 0.2727274999999878
                },
                {
                    "name": "F2",
                    "midi": 41,
                    "time": 126.51146906249936,
                    "velocity": 0.4015748031496063,
                    "duration": 0.2386365624999911
                },
                {
                    "name": "C#3",
                    "midi": 49,
                    "time": 126.54555999999936,
                    "velocity": 0.4881889763779528,
                    "duration": 0.2045456249999944
                },
                {
                    "name": "D#2",
                    "midi": 39,
                    "time": 126.75010562499935,
                    "velocity": 0.3937007874015748,
                    "duration": 0.272727500000002
                },
                {
                    "name": "A#2",
                    "midi": 46,
                    "time": 126.78419656249935,
                    "velocity": 0.3937007874015748,
                    "duration": 0.2386365625000053
                },
                {
                    "name": "F#3",
                    "midi": 54,
                    "time": 126.81828749999934,
                    "velocity": 0.47244094488188976,
                    "duration": 0.2045456250000086
                },
                {
                    "name": "A#2",
                    "midi": 46,
                    "time": 127.02283312499935,
                    "velocity": 0.4330708661417323,
                    "duration": 0.2727274999999878
                },
                {
                    "name": "F3",
                    "midi": 53,
                    "time": 127.05692406249935,
                    "velocity": 0.4330708661417323,
                    "duration": 0.2386365624999911
                },
                {
                    "name": "C#4",
                    "midi": 61,
                    "time": 127.09101499999935,
                    "velocity": 0.5118110236220472,
                    "duration": 0.2045456249999944
                },
                {
                    "name": "A1",
                    "midi": 33,
                    "time": 127.36374249999933,
                    "velocity": 0.4330708661417323,
                    "duration": 0.06818187500000761
                },
                {
                    "name": "A#1",
                    "midi": 34,
                    "time": 127.43192437499934,
                    "velocity": 0.4330708661417323,
                    "duration": 0.0681818749999934
                },
                {
                    "name": "C2",
                    "midi": 36,
                    "time": 127.50010624999933,
                    "velocity": 0.4409448818897638,
                    "duration": 0.0681818749999934
                },
                {
                    "name": "C#2",
                    "midi": 37,
                    "time": 127.56828812499933,
                    "velocity": 0.4409448818897638,
                    "duration": 0.0681818749999934
                },
                {
                    "name": "D#2",
                    "midi": 39,
                    "time": 127.63646999999932,
                    "velocity": 0.4409448818897638,
                    "duration": 0.0681818749999934
                },
                {
                    "name": "F2",
                    "midi": 41,
                    "time": 127.70465187499931,
                    "velocity": 0.44881889763779526,
                    "duration": 0.0681818749999934
                },
                {
                    "name": "G2",
                    "midi": 43,
                    "time": 127.77283374999931,
                    "velocity": 0.4566929133858268,
                    "duration": 0.0681818749999934
                },
                {
                    "name": "A2",
                    "midi": 45,
                    "time": 127.8410156249993,
                    "velocity": 0.4566929133858268,
                    "duration": 0.0681818749999934
                },
                {
                    "name": "A#2",
                    "midi": 46,
                    "time": 127.9091974999993,
                    "velocity": 0.4645669291338583,
                    "duration": 0.0681818749999934
                },
                {
                    "name": "C3",
                    "midi": 48,
                    "time": 127.97737937499929,
                    "velocity": 0.47244094488188976,
                    "duration": 0.0681818749999934
                },
                {
                    "name": "C#3",
                    "midi": 49,
                    "time": 128.04556124999928,
                    "velocity": 0.47244094488188976,
                    "duration": 0.0681818749999934
                },
                {
                    "name": "D#3",
                    "midi": 51,
                    "time": 128.11374312499927,
                    "velocity": 0.48031496062992124,
                    "duration": 0.0681818749999934
                },
                {
                    "name": "F3",
                    "midi": 53,
                    "time": 128.18192499999927,
                    "velocity": 0.48031496062992124,
                    "duration": 0.0681818749999934
                },
                {
                    "name": "G3",
                    "midi": 55,
                    "time": 128.25010687499926,
                    "velocity": 0.48031496062992124,
                    "duration": 0.0681818749999934
                },
                {
                    "name": "A3",
                    "midi": 57,
                    "time": 128.31828874999925,
                    "velocity": 0.4881889763779528,
                    "duration": 0.0681818749999934
                },
                {
                    "name": "A#3",
                    "midi": 58,
                    "time": 128.38647062499925,
                    "velocity": 0.4881889763779528,
                    "duration": 0.0681818749999934
                },
                {
                    "name": "C4",
                    "midi": 60,
                    "time": 128.45465249999924,
                    "velocity": 0.49606299212598426,
                    "duration": 0.0681818749999934
                },
                {
                    "name": "C#4",
                    "midi": 61,
                    "time": 128.52283437499923,
                    "velocity": 0.5039370078740157,
                    "duration": 0.0681818749999934
                },
                {
                    "name": "D#4",
                    "midi": 63,
                    "time": 128.59101624999923,
                    "velocity": 0.5039370078740157,
                    "duration": 0.0681818749999934
                },
                {
                    "name": "F4",
                    "midi": 65,
                    "time": 128.65919812499922,
                    "velocity": 0.5196850393700787,
                    "duration": 0.0681818749999934
                },
                {
                    "name": "G4",
                    "midi": 67,
                    "time": 128.72737999999921,
                    "velocity": 0.5275590551181102,
                    "duration": 0.0681818749999934
                },
                {
                    "name": "A4",
                    "midi": 69,
                    "time": 128.7955618749992,
                    "velocity": 0.5118110236220472,
                    "duration": 0.0681818749999934
                },
                {
                    "name": "A#4",
                    "midi": 70,
                    "time": 128.8637437499992,
                    "velocity": 0.5196850393700787,
                    "duration": 0.0681818749999934
                },
                {
                    "name": "C5",
                    "midi": 72,
                    "time": 128.9319256249992,
                    "velocity": 0.5275590551181102,
                    "duration": 0.0681818749999934
                },
                {
                    "name": "C#5",
                    "midi": 73,
                    "time": 129.0001074999992,
                    "velocity": 0.5354330708661418,
                    "duration": 0.0681818749999934
                },
                {
                    "name": "D#5",
                    "midi": 75,
                    "time": 129.06828937499918,
                    "velocity": 0.5433070866141733,
                    "duration": 0.0681818749999934
                },
                {
                    "name": "F5",
                    "midi": 77,
                    "time": 129.13647124999918,
                    "velocity": 0.5511811023622047,
                    "duration": 0.0681818749999934
                },
                {
                    "name": "G5",
                    "midi": 79,
                    "time": 129.20465312499917,
                    "velocity": 0.5590551181102362,
                    "duration": 0.1022728124999901
                },
                {
                    "name": "A5",
                    "midi": 81,
                    "time": 129.30692593749916,
                    "velocity": 0.5669291338582677,
                    "duration": 0.0681818749999934
                },
                {
                    "name": "D#1",
                    "midi": 27,
                    "time": 129.68192624999915,
                    "velocity": 0.5354330708661418,
                    "duration": 0.1363637499999868
                },
                {
                    "name": "D#2",
                    "midi": 39,
                    "time": 129.68192624999915,
                    "velocity": 0.6299212598425197,
                    "duration": 0.1363637499999868
                },
                {
                    "name": "D#3",
                    "midi": 51,
                    "time": 129.95465374999912,
                    "velocity": 0.48031496062992124,
                    "duration": 0.1363637499999868
                },
                {
                    "name": "D#4",
                    "midi": 63,
                    "time": 129.95465374999912,
                    "velocity": 0.5669291338582677,
                    "duration": 0.1363637499999868
                },
                {
                    "name": "C5",
                    "midi": 72,
                    "time": 130.2273812499991,
                    "velocity": 0.5275590551181102,
                    "duration": 0.272727500000002
                },
                {
                    "name": "G4",
                    "midi": 67,
                    "time": 130.2273812499991,
                    "velocity": 0.5275590551181102,
                    "duration": 0.272727500000002
                },
                {
                    "name": "D#4",
                    "midi": 63,
                    "time": 130.2273812499991,
                    "velocity": 0.5275590551181102,
                    "duration": 0.272727500000002
                },
                {
                    "name": "D#5",
                    "midi": 75,
                    "time": 130.2273812499991,
                    "velocity": 0.6220472440944882,
                    "duration": 0.272727500000002
                },
                {
                    "name": "F5",
                    "midi": 77,
                    "time": 130.5001087499991,
                    "velocity": 0.6062992125984252,
                    "duration": 0.272727500000002
                },
                {
                    "name": "C5",
                    "midi": 72,
                    "time": 130.5001087499991,
                    "velocity": 0.5039370078740157,
                    "duration": 0.272727500000002
                },
                {
                    "name": "F4",
                    "midi": 65,
                    "time": 130.5001087499991,
                    "velocity": 0.5039370078740157,
                    "duration": 0.272727500000002
                },
                {
                    "name": "C4",
                    "midi": 60,
                    "time": 130.7728362499991,
                    "velocity": 0.48031496062992124,
                    "duration": 0.272727500000002
                },
                {
                    "name": "G#4",
                    "midi": 68,
                    "time": 130.7728362499991,
                    "velocity": 0.48031496062992124,
                    "duration": 0.272727500000002
                },
                {
                    "name": "C5",
                    "midi": 72,
                    "time": 130.7728362499991,
                    "velocity": 0.5669291338582677,
                    "duration": 0.272727500000002
                },
                {
                    "name": "C#4",
                    "midi": 61,
                    "time": 131.0455637499991,
                    "velocity": 0.48031496062992124,
                    "duration": 0.1363637499999868
                },
                {
                    "name": "G#4",
                    "midi": 68,
                    "time": 131.0455637499991,
                    "velocity": 0.48031496062992124,
                    "duration": 0.1363637499999868
                },
                {
                    "name": "C#5",
                    "midi": 73,
                    "time": 131.0455637499991,
                    "velocity": 0.5669291338582677,
                    "duration": 0.1363637499999868
                },
                {
                    "name": "D#2",
                    "midi": 39,
                    "time": 131.31829124999908,
                    "velocity": 0.4566929133858268,
                    "duration": 0.545455000000004
                },
                {
                    "name": "D#3",
                    "midi": 51,
                    "time": 131.31829124999908,
                    "velocity": 0.5433070866141733,
                    "duration": 0.545455000000004
                },
                {
                    "name": "D#1",
                    "midi": 27,
                    "time": 131.86374624999908,
                    "velocity": 0.4015748031496063,
                    "duration": 0.1363637499999868
                },
                {
                    "name": "D#2",
                    "midi": 39,
                    "time": 131.86374624999908,
                    "velocity": 0.48031496062992124,
                    "duration": 0.1363637499999868
                },
                {
                    "name": "G#1",
                    "midi": 32,
                    "time": 132.13647374999906,
                    "velocity": 0.4015748031496063,
                    "duration": 0.1363637499999868
                },
                {
                    "name": "G#2",
                    "midi": 44,
                    "time": 132.13647374999906,
                    "velocity": 0.48031496062992124,
                    "duration": 0.1363637499999868
                },
                {
                    "name": "E2",
                    "midi": 40,
                    "time": 132.61374687499904,
                    "velocity": 0.41732283464566927,
                    "duration": 0.5113640625000073
                },
                {
                    "name": "B2",
                    "midi": 47,
                    "time": 132.64783781249903,
                    "velocity": 0.4409448818897638,
                    "duration": 0.4772731250000106
                },
                {
                    "name": "E3",
                    "midi": 52,
                    "time": 132.68192874999903,
                    "velocity": 0.47244094488188976,
                    "duration": 0.4431821875000139
                },
                {
                    "name": "E2",
                    "midi": 40,
                    "time": 133.15920187499904,
                    "velocity": 0.41732283464566927,
                    "duration": 0.5113640625000073
                },
                {
                    "name": "B2",
                    "midi": 47,
                    "time": 133.19329281249904,
                    "velocity": 0.4409448818897638,
                    "duration": 0.4772731250000106
                },
                {
                    "name": "E3",
                    "midi": 52,
                    "time": 133.22738374999903,
                    "velocity": 0.47244094488188976,
                    "duration": 0.4431821875000139
                },
                {
                    "name": "E2",
                    "midi": 40,
                    "time": 133.70465687499905,
                    "velocity": 0.41732283464566927,
                    "duration": 0.5113640625000073
                },
                {
                    "name": "B2",
                    "midi": 47,
                    "time": 133.73874781249904,
                    "velocity": 0.4409448818897638,
                    "duration": 0.4772731250000106
                },
                {
                    "name": "E3",
                    "midi": 52,
                    "time": 133.77283874999904,
                    "velocity": 0.47244094488188976,
                    "duration": 0.4431821875000139
                },
                {
                    "name": "E2",
                    "midi": 40,
                    "time": 134.25011187499905,
                    "velocity": 0.41732283464566927,
                    "duration": 0.5113640625000073
                },
                {
                    "name": "B2",
                    "midi": 47,
                    "time": 134.28420281249905,
                    "velocity": 0.4409448818897638,
                    "duration": 0.4772731250000106
                },
                {
                    "name": "E3",
                    "midi": 52,
                    "time": 134.31829374999904,
                    "velocity": 0.47244094488188976,
                    "duration": 0.4431821875000139
                },
                {
                    "name": "E2",
                    "midi": 40,
                    "time": 134.79556687499905,
                    "velocity": 0.41732283464566927,
                    "duration": 0.5113640625000073
                },
                {
                    "name": "B2",
                    "midi": 47,
                    "time": 134.82965781249905,
                    "velocity": 0.4409448818897638,
                    "duration": 0.4772731250000106
                },
                {
                    "name": "E3",
                    "midi": 52,
                    "time": 134.86374874999905,
                    "velocity": 0.47244094488188976,
                    "duration": 0.4431821875000139
                },
                {
                    "name": "E2",
                    "midi": 40,
                    "time": 135.34102187499906,
                    "velocity": 0.41732283464566927,
                    "duration": 0.6136368749999974
                },
                {
                    "name": "B2",
                    "midi": 47,
                    "time": 135.37511281249905,
                    "velocity": 0.4409448818897638,
                    "duration": 0.5795459375000007
                },
                {
                    "name": "E3",
                    "midi": 52,
                    "time": 135.40920374999905,
                    "velocity": 0.47244094488188976,
                    "duration": 0.545455000000004
                },
                {
                    "name": "E2",
                    "midi": 40,
                    "time": 135.95465874999906,
                    "velocity": 0.41732283464566927,
                    "duration": 0.0681818749999934
                },
                {
                    "name": "B2",
                    "midi": 47,
                    "time": 135.95465874999906,
                    "velocity": 0.41732283464566927,
                    "duration": 0.0681818749999934
                },
                {
                    "name": "E3",
                    "midi": 52,
                    "time": 135.95465874999906,
                    "velocity": 0.49606299212598426,
                    "duration": 0.0681818749999934
                },
                {
                    "name": "D#2",
                    "midi": 39,
                    "time": 136.09102249999904,
                    "velocity": 0.1889763779527559,
                    "duration": 0.0681818749999934
                },
                {
                    "name": "D#3",
                    "midi": 51,
                    "time": 136.09102249999904,
                    "velocity": 0.2204724409448819,
                    "duration": 0.0681818749999934
                },
                {
                    "name": "C#2",
                    "midi": 37,
                    "time": 136.22738624999903,
                    "velocity": 0.1889763779527559,
                    "duration": 0.0681818749999934
                },
                {
                    "name": "C#3",
                    "midi": 49,
                    "time": 136.22738624999903,
                    "velocity": 0.2204724409448819,
                    "duration": 0.0681818749999934
                },
                {
                    "name": "B1",
                    "midi": 35,
                    "time": 136.36374999999902,
                    "velocity": 0.1889763779527559,
                    "duration": 0.0681818749999934
                },
                {
                    "name": "B2",
                    "midi": 47,
                    "time": 136.36374999999902,
                    "velocity": 0.2204724409448819,
                    "duration": 0.0681818749999934
                },
                {
                    "name": "E2",
                    "midi": 40,
                    "time": 136.500113749999,
                    "velocity": 0.2204724409448819,
                    "duration": 0.0681818749999934
                },
                {
                    "name": "E3",
                    "midi": 52,
                    "time": 136.500113749999,
                    "velocity": 0.2755905511811024,
                    "duration": 0.0681818749999934
                },
                {
                    "name": "D#2",
                    "midi": 39,
                    "time": 136.636477499999,
                    "velocity": 0.2125984251968504,
                    "duration": 0.0681818749999934
                },
                {
                    "name": "D#3",
                    "midi": 51,
                    "time": 136.636477499999,
                    "velocity": 0.25196850393700787,
                    "duration": 0.0681818749999934
                },
                {
                    "name": "C#2",
                    "midi": 37,
                    "time": 136.77284124999898,
                    "velocity": 0.1889763779527559,
                    "duration": 0.0681818749999934
                },
                {
                    "name": "C#3",
                    "midi": 49,
                    "time": 136.77284124999898,
                    "velocity": 0.2204724409448819,
                    "duration": 0.0681818749999934
                },
                {
                    "name": "B1",
                    "midi": 35,
                    "time": 136.90920499999896,
                    "velocity": 0.1889763779527559,
                    "duration": 0.0681818749999934
                },
                {
                    "name": "B2",
                    "midi": 47,
                    "time": 136.90920499999896,
                    "velocity": 0.2204724409448819,
                    "duration": 0.0681818749999934
                },
                {
                    "name": "E2",
                    "midi": 40,
                    "time": 137.04556874999895,
                    "velocity": 0.2204724409448819,
                    "duration": 0.0681818749999934
                },
                {
                    "name": "E3",
                    "midi": 52,
                    "time": 137.04556874999895,
                    "velocity": 0.2755905511811024,
                    "duration": 0.0681818749999934
                },
                {
                    "name": "D#2",
                    "midi": 39,
                    "time": 137.18193249999894,
                    "velocity": 0.1889763779527559,
                    "duration": 0.0681818749999934
                },
                {
                    "name": "D#3",
                    "midi": 51,
                    "time": 137.18193249999894,
                    "velocity": 0.2204724409448819,
                    "duration": 0.0681818749999934
                },
                {
                    "name": "C#2",
                    "midi": 37,
                    "time": 137.31829624999892,
                    "velocity": 0.1889763779527559,
                    "duration": 0.0681818749999934
                },
                {
                    "name": "C#3",
                    "midi": 49,
                    "time": 137.31829624999892,
                    "velocity": 0.2204724409448819,
                    "duration": 0.0681818749999934
                },
                {
                    "name": "B1",
                    "midi": 35,
                    "time": 137.4546599999989,
                    "velocity": 0.1889763779527559,
                    "duration": 0.0681818749999934
                },
                {
                    "name": "B2",
                    "midi": 47,
                    "time": 137.4546599999989,
                    "velocity": 0.2204724409448819,
                    "duration": 0.0681818749999934
                },
                {
                    "name": "E2",
                    "midi": 40,
                    "time": 137.5910237499989,
                    "velocity": 0.2283464566929134,
                    "duration": 0.0681818749999934
                },
                {
                    "name": "E3",
                    "midi": 52,
                    "time": 137.5910237499989,
                    "velocity": 0.2677165354330709,
                    "duration": 0.0681818749999934
                },
                {
                    "name": "D#2",
                    "midi": 39,
                    "time": 137.72738749999888,
                    "velocity": 0.1889763779527559,
                    "duration": 0.0681818749999934
                },
                {
                    "name": "D#3",
                    "midi": 51,
                    "time": 137.72738749999888,
                    "velocity": 0.2204724409448819,
                    "duration": 0.0681818749999934
                },
                {
                    "name": "C#2",
                    "midi": 37,
                    "time": 137.86375124999887,
                    "velocity": 0.1889763779527559,
                    "duration": 0.0681818749999934
                },
                {
                    "name": "C#3",
                    "midi": 49,
                    "time": 137.86375124999887,
                    "velocity": 0.2204724409448819,
                    "duration": 0.0681818749999934
                },
                {
                    "name": "B1",
                    "midi": 35,
                    "time": 138.00011499999886,
                    "velocity": 0.1889763779527559,
                    "duration": 0.0681818749999934
                },
                {
                    "name": "B2",
                    "midi": 47,
                    "time": 138.00011499999886,
                    "velocity": 0.2204724409448819,
                    "duration": 0.0681818749999934
                },
                {
                    "name": "E2",
                    "midi": 40,
                    "time": 138.13647874999884,
                    "velocity": 0.2283464566929134,
                    "duration": 0.0681818749999934
                },
                {
                    "name": "E3",
                    "midi": 52,
                    "time": 138.13647874999884,
                    "velocity": 0.2677165354330709,
                    "duration": 0.0681818749999934
                },
                {
                    "name": "D#2",
                    "midi": 39,
                    "time": 138.27284249999883,
                    "velocity": 0.2047244094488189,
                    "duration": 0.0681818749999934
                },
                {
                    "name": "D#3",
                    "midi": 51,
                    "time": 138.27284249999883,
                    "velocity": 0.25196850393700787,
                    "duration": 0.0681818749999934
                },
                {
                    "name": "C#2",
                    "midi": 37,
                    "time": 138.40920624999882,
                    "velocity": 0.1889763779527559,
                    "duration": 0.0681818749999934
                },
                {
                    "name": "C#3",
                    "midi": 49,
                    "time": 138.40920624999882,
                    "velocity": 0.2283464566929134,
                    "duration": 0.0681818749999934
                },
                {
                    "name": "B1",
                    "midi": 35,
                    "time": 138.5455699999988,
                    "velocity": 0.1889763779527559,
                    "duration": 0.0681818749999934
                },
                {
                    "name": "B2",
                    "midi": 47,
                    "time": 138.5455699999988,
                    "velocity": 0.2283464566929134,
                    "duration": 0.0681818749999934
                },
                {
                    "name": "E2",
                    "midi": 40,
                    "time": 138.6819337499988,
                    "velocity": 0.2283464566929134,
                    "duration": 0.0681818749999934
                },
                {
                    "name": "E3",
                    "midi": 52,
                    "time": 138.6819337499988,
                    "velocity": 0.2755905511811024,
                    "duration": 0.0681818749999934
                },
                {
                    "name": "D#2",
                    "midi": 39,
                    "time": 138.81829749999878,
                    "velocity": 0.18110236220472442,
                    "duration": 0.0681818749999934
                },
                {
                    "name": "D#3",
                    "midi": 51,
                    "time": 138.81829749999878,
                    "velocity": 0.2204724409448819,
                    "duration": 0.0681818749999934
                },
                {
                    "name": "C#2",
                    "midi": 37,
                    "time": 138.95466124999876,
                    "velocity": 0.18110236220472442,
                    "duration": 0.0681818749999934
                },
                {
                    "name": "C#3",
                    "midi": 49,
                    "time": 138.95466124999876,
                    "velocity": 0.2204724409448819,
                    "duration": 0.0681818749999934
                },
                {
                    "name": "B1",
                    "midi": 35,
                    "time": 139.09102499999875,
                    "velocity": 0.18110236220472442,
                    "duration": 0.0681818749999934
                },
                {
                    "name": "B2",
                    "midi": 47,
                    "time": 139.09102499999875,
                    "velocity": 0.2204724409448819,
                    "duration": 0.0681818749999934
                },
                {
                    "name": "E2",
                    "midi": 40,
                    "time": 139.22738874999874,
                    "velocity": 0.23622047244094488,
                    "duration": 0.0681818749999934
                },
                {
                    "name": "E3",
                    "midi": 52,
                    "time": 139.22738874999874,
                    "velocity": 0.28346456692913385,
                    "duration": 0.0681818749999934
                },
                {
                    "name": "D#2",
                    "midi": 39,
                    "time": 139.36375249999872,
                    "velocity": 0.1889763779527559,
                    "duration": 0.0681818749999934
                },
                {
                    "name": "D#3",
                    "midi": 51,
                    "time": 139.36375249999872,
                    "velocity": 0.2283464566929134,
                    "duration": 0.0681818749999934
                },
                {
                    "name": "C#2",
                    "midi": 37,
                    "time": 139.5001162499987,
                    "velocity": 0.1968503937007874,
                    "duration": 0.0681818749999934
                },
                {
                    "name": "C#3",
                    "midi": 49,
                    "time": 139.5001162499987,
                    "velocity": 0.2283464566929134,
                    "duration": 0.0681818749999934
                },
                {
                    "name": "B1",
                    "midi": 35,
                    "time": 139.6364799999987,
                    "velocity": 0.1968503937007874,
                    "duration": 0.0681818749999934
                },
                {
                    "name": "B2",
                    "midi": 47,
                    "time": 139.6364799999987,
                    "velocity": 0.2283464566929134,
                    "duration": 0.0681818749999934
                },
                {
                    "name": "E2",
                    "midi": 40,
                    "time": 139.77284374999869,
                    "velocity": 0.23622047244094488,
                    "duration": 0.0681818749999934
                },
                {
                    "name": "E3",
                    "midi": 52,
                    "time": 139.77284374999869,
                    "velocity": 0.28346456692913385,
                    "duration": 0.0681818749999934
                },
                {
                    "name": "D#2",
                    "midi": 39,
                    "time": 139.90920749999867,
                    "velocity": 0.2204724409448819,
                    "duration": 0.0681818749999934
                },
                {
                    "name": "D#3",
                    "midi": 51,
                    "time": 139.90920749999867,
                    "velocity": 0.2677165354330709,
                    "duration": 0.0681818749999934
                },
                {
                    "name": "C#2",
                    "midi": 37,
                    "time": 140.04557124999866,
                    "velocity": 0.1968503937007874,
                    "duration": 0.0681818749999934
                },
                {
                    "name": "C#3",
                    "midi": 49,
                    "time": 140.04557124999866,
                    "velocity": 0.23622047244094488,
                    "duration": 0.0681818749999934
                },
                {
                    "name": "B1",
                    "midi": 35,
                    "time": 140.18193499999865,
                    "velocity": 0.1968503937007874,
                    "duration": 0.0681818749999934
                },
                {
                    "name": "B2",
                    "midi": 47,
                    "time": 140.18193499999865,
                    "velocity": 0.23622047244094488,
                    "duration": 0.0681818749999934
                },
                {
                    "name": "E2",
                    "midi": 40,
                    "time": 140.31829874999863,
                    "velocity": 0.23622047244094488,
                    "duration": 0.0681818749999934
                },
                {
                    "name": "E3",
                    "midi": 52,
                    "time": 140.31829874999863,
                    "velocity": 0.28346456692913385,
                    "duration": 0.0681818749999934
                },
                {
                    "name": "D#2",
                    "midi": 39,
                    "time": 140.45466249999862,
                    "velocity": 0.1968503937007874,
                    "duration": 0.0681818749999934
                },
                {
                    "name": "D#3",
                    "midi": 51,
                    "time": 140.45466249999862,
                    "velocity": 0.2283464566929134,
                    "duration": 0.0681818749999934
                },
                {
                    "name": "C#2",
                    "midi": 37,
                    "time": 140.5910262499986,
                    "velocity": 0.1968503937007874,
                    "duration": 0.0681818749999934
                },
                {
                    "name": "C#3",
                    "midi": 49,
                    "time": 140.5910262499986,
                    "velocity": 0.2283464566929134,
                    "duration": 0.0681818749999934
                },
                {
                    "name": "B1",
                    "midi": 35,
                    "time": 140.7273899999986,
                    "velocity": 0.2047244094488189,
                    "duration": 0.0681818749999934
                },
                {
                    "name": "B2",
                    "midi": 47,
                    "time": 140.7273899999986,
                    "velocity": 0.23622047244094488,
                    "duration": 0.0681818749999934
                },
                {
                    "name": "E2",
                    "midi": 40,
                    "time": 140.86375374999858,
                    "velocity": 0.2440944881889764,
                    "duration": 0.0681818749999934
                },
                {
                    "name": "E3",
                    "midi": 52,
                    "time": 140.86375374999858,
                    "velocity": 0.28346456692913385,
                    "duration": 0.0681818749999934
                },
                {
                    "name": "D#2",
                    "midi": 39,
                    "time": 141.00011749999857,
                    "velocity": 0.2047244094488189,
                    "duration": 0.0681818749999934
                },
                {
                    "name": "D#3",
                    "midi": 51,
                    "time": 141.00011749999857,
                    "velocity": 0.23622047244094488,
                    "duration": 0.0681818749999934
                },
                {
                    "name": "C#2",
                    "midi": 37,
                    "time": 141.13648124999855,
                    "velocity": 0.2047244094488189,
                    "duration": 0.0681818749999934
                },
                {
                    "name": "C#3",
                    "midi": 49,
                    "time": 141.13648124999855,
                    "velocity": 0.23622047244094488,
                    "duration": 0.0681818749999934
                },
                {
                    "name": "B1",
                    "midi": 35,
                    "time": 141.27284499999854,
                    "velocity": 0.2047244094488189,
                    "duration": 0.0681818749999934
                },
                {
                    "name": "B2",
                    "midi": 47,
                    "time": 141.27284499999854,
                    "velocity": 0.23622047244094488,
                    "duration": 0.0681818749999934
                },
                {
                    "name": "E2",
                    "midi": 40,
                    "time": 141.40920874999853,
                    "velocity": 0.2440944881889764,
                    "duration": 0.0681818749999934
                },
                {
                    "name": "E3",
                    "midi": 52,
                    "time": 141.40920874999853,
                    "velocity": 0.28346456692913385,
                    "duration": 0.0681818749999934
                },
                {
                    "name": "D#2",
                    "midi": 39,
                    "time": 141.5455724999985,
                    "velocity": 0.2204724409448819,
                    "duration": 0.0681818749999934
                },
                {
                    "name": "D#3",
                    "midi": 51,
                    "time": 141.5455724999985,
                    "velocity": 0.25984251968503935,
                    "duration": 0.0681818749999934
                },
                {
                    "name": "C#2",
                    "midi": 37,
                    "time": 141.6819362499985,
                    "velocity": 0.1968503937007874,
                    "duration": 0.0681818749999934
                },
                {
                    "name": "C#3",
                    "midi": 49,
                    "time": 141.6819362499985,
                    "velocity": 0.23622047244094488,
                    "duration": 0.0681818749999934
                },
                {
                    "name": "B1",
                    "midi": 35,
                    "time": 141.8182999999985,
                    "velocity": 0.1968503937007874,
                    "duration": 0.0681818749999934
                },
                {
                    "name": "B2",
                    "midi": 47,
                    "time": 141.8182999999985,
                    "velocity": 0.23622047244094488,
                    "duration": 0.0681818749999934
                },
                {
                    "name": "E2",
                    "midi": 40,
                    "time": 141.95466374999847,
                    "velocity": 0.23622047244094488,
                    "duration": 0.0681818749999934
                },
                {
                    "name": "E3",
                    "midi": 52,
                    "time": 141.95466374999847,
                    "velocity": 0.29133858267716534,
                    "duration": 0.0681818749999934
                },
                {
                    "name": "D#2",
                    "midi": 39,
                    "time": 142.09102749999846,
                    "velocity": 0.1968503937007874,
                    "duration": 0.0681818749999934
                },
                {
                    "name": "D#3",
                    "midi": 51,
                    "time": 142.09102749999846,
                    "velocity": 0.23622047244094488,
                    "duration": 0.0681818749999934
                },
                {
                    "name": "C#2",
                    "midi": 37,
                    "time": 142.22739124999845,
                    "velocity": 0.1968503937007874,
                    "duration": 0.0681818749999934
                },
                {
                    "name": "C#3",
                    "midi": 49,
                    "time": 142.22739124999845,
                    "velocity": 0.23622047244094488,
                    "duration": 0.0681818749999934
                },
                {
                    "name": "B1",
                    "midi": 35,
                    "time": 142.36375499999843,
                    "velocity": 0.1968503937007874,
                    "duration": 0.0681818749999934
                },
                {
                    "name": "B2",
                    "midi": 47,
                    "time": 142.36375499999843,
                    "velocity": 0.23622047244094488,
                    "duration": 0.0681818749999934
                },
                {
                    "name": "E2",
                    "midi": 40,
                    "time": 142.50011874999842,
                    "velocity": 0.23622047244094488,
                    "duration": 0.0681818749999934
                },
                {
                    "name": "E3",
                    "midi": 52,
                    "time": 142.50011874999842,
                    "velocity": 0.29133858267716534,
                    "duration": 0.0681818749999934
                },
                {
                    "name": "D#2",
                    "midi": 39,
                    "time": 142.6364824999984,
                    "velocity": 0.1968503937007874,
                    "duration": 0.0681818749999934
                },
                {
                    "name": "D#3",
                    "midi": 51,
                    "time": 142.6364824999984,
                    "velocity": 0.23622047244094488,
                    "duration": 0.0681818749999934
                },
                {
                    "name": "C#2",
                    "midi": 37,
                    "time": 142.7728462499984,
                    "velocity": 0.1968503937007874,
                    "duration": 0.0681818749999934
                },
                {
                    "name": "C#3",
                    "midi": 49,
                    "time": 142.7728462499984,
                    "velocity": 0.23622047244094488,
                    "duration": 0.0681818749999934
                },
                {
                    "name": "B1",
                    "midi": 35,
                    "time": 142.90920999999838,
                    "velocity": 0.1968503937007874,
                    "duration": 0.0681818749999934
                },
                {
                    "name": "B2",
                    "midi": 47,
                    "time": 142.90920999999838,
                    "velocity": 0.23622047244094488,
                    "duration": 0.0681818749999934
                },
                {
                    "name": "E2",
                    "midi": 40,
                    "time": 143.04557374999837,
                    "velocity": 0.2440944881889764,
                    "duration": 0.0681818749999934
                },
                {
                    "name": "E3",
                    "midi": 52,
                    "time": 143.04557374999837,
                    "velocity": 0.2992125984251969,
                    "duration": 0.0681818749999934
                },
                {
                    "name": "D#2",
                    "midi": 39,
                    "time": 143.18193749999836,
                    "velocity": 0.23622047244094488,
                    "duration": 0.0681818749999934
                },
                {
                    "name": "D#3",
                    "midi": 51,
                    "time": 143.18193749999836,
                    "velocity": 0.2755905511811024,
                    "duration": 0.0681818749999934
                },
                {
                    "name": "C#2",
                    "midi": 37,
                    "time": 143.31830124999834,
                    "velocity": 0.2047244094488189,
                    "duration": 0.0681818749999934
                },
                {
                    "name": "C#3",
                    "midi": 49,
                    "time": 143.31830124999834,
                    "velocity": 0.25984251968503935,
                    "duration": 0.0681818749999934
                },
                {
                    "name": "B1",
                    "midi": 35,
                    "time": 143.45466499999833,
                    "velocity": 0.2047244094488189,
                    "duration": 0.0681818749999934
                },
                {
                    "name": "B2",
                    "midi": 47,
                    "time": 143.45466499999833,
                    "velocity": 0.25984251968503935,
                    "duration": 0.0681818749999934
                },
                {
                    "name": "E2",
                    "midi": 40,
                    "time": 143.59102874999832,
                    "velocity": 0.25984251968503935,
                    "duration": 0.0681818749999934
                },
                {
                    "name": "E3",
                    "midi": 52,
                    "time": 143.59102874999832,
                    "velocity": 0.30708661417322836,
                    "duration": 0.0681818749999934
                },
                {
                    "name": "D#2",
                    "midi": 39,
                    "time": 143.7273924999983,
                    "velocity": 0.2125984251968504,
                    "duration": 0.0681818749999934
                },
                {
                    "name": "D#3",
                    "midi": 51,
                    "time": 143.7273924999983,
                    "velocity": 0.25196850393700787,
                    "duration": 0.0681818749999934
                },
                {
                    "name": "C#2",
                    "midi": 37,
                    "time": 143.8637562499983,
                    "velocity": 0.2125984251968504,
                    "duration": 0.0681818749999934
                },
                {
                    "name": "C#3",
                    "midi": 49,
                    "time": 143.8637562499983,
                    "velocity": 0.25984251968503935,
                    "duration": 0.0681818749999934
                },
                {
                    "name": "B1",
                    "midi": 35,
                    "time": 144.00011999999828,
                    "velocity": 0.2204724409448819,
                    "duration": 0.0681818749999934
                },
                {
                    "name": "B2",
                    "midi": 47,
                    "time": 144.00011999999828,
                    "velocity": 0.25984251968503935,
                    "duration": 0.0681818749999934
                },
                {
                    "name": "E2",
                    "midi": 40,
                    "time": 144.13648374999826,
                    "velocity": 0.2677165354330709,
                    "duration": 0.0681818749999934
                },
                {
                    "name": "E3",
                    "midi": 52,
                    "time": 144.13648374999826,
                    "velocity": 0.3228346456692913,
                    "duration": 0.0681818749999934
                },
                {
                    "name": "D#2",
                    "midi": 39,
                    "time": 144.27284749999825,
                    "velocity": 0.2125984251968504,
                    "duration": 0.0681818749999934
                },
                {
                    "name": "D#3",
                    "midi": 51,
                    "time": 144.27284749999825,
                    "velocity": 0.25984251968503935,
                    "duration": 0.0681818749999934
                },
                {
                    "name": "C#2",
                    "midi": 37,
                    "time": 144.40921124999824,
                    "velocity": 0.2125984251968504,
                    "duration": 0.0681818749999934
                },
                {
                    "name": "C#3",
                    "midi": 49,
                    "time": 144.40921124999824,
                    "velocity": 0.25984251968503935,
                    "duration": 0.0681818749999934
                },
                {
                    "name": "B1",
                    "midi": 35,
                    "time": 144.54557499999822,
                    "velocity": 0.2204724409448819,
                    "duration": 0.0681818749999934
                },
                {
                    "name": "B2",
                    "midi": 47,
                    "time": 144.54557499999822,
                    "velocity": 0.25984251968503935,
                    "duration": 0.0681818749999934
                },
                {
                    "name": "E2",
                    "midi": 40,
                    "time": 144.6819387499982,
                    "velocity": 0.2755905511811024,
                    "duration": 0.0681818749999934
                },
                {
                    "name": "E3",
                    "midi": 52,
                    "time": 144.6819387499982,
                    "velocity": 0.3228346456692913,
                    "duration": 0.0681818749999934
                },
                {
                    "name": "D#2",
                    "midi": 39,
                    "time": 144.8183024999982,
                    "velocity": 0.2440944881889764,
                    "duration": 0.0681818749999934
                },
                {
                    "name": "D#3",
                    "midi": 51,
                    "time": 144.8183024999982,
                    "velocity": 0.2992125984251969,
                    "duration": 0.0681818749999934
                },
                {
                    "name": "C#2",
                    "midi": 37,
                    "time": 144.95466624999818,
                    "velocity": 0.2204724409448819,
                    "duration": 0.0681818749999934
                },
                {
                    "name": "C#3",
                    "midi": 49,
                    "time": 144.95466624999818,
                    "velocity": 0.2755905511811024,
                    "duration": 0.0681818749999934
                },
                {
                    "name": "B1",
                    "midi": 35,
                    "time": 145.09102999999817,
                    "velocity": 0.2204724409448819,
                    "duration": 0.0681818749999934
                },
                {
                    "name": "B2",
                    "midi": 47,
                    "time": 145.09102999999817,
                    "velocity": 0.2755905511811024,
                    "duration": 0.0681818749999934
                },
                {
                    "name": "E2",
                    "midi": 40,
                    "time": 145.22739374999816,
                    "velocity": 0.28346456692913385,
                    "duration": 0.0681818749999934
                },
                {
                    "name": "E3",
                    "midi": 52,
                    "time": 145.22739374999816,
                    "velocity": 0.33070866141732286,
                    "duration": 0.0681818749999934
                },
                {
                    "name": "D#2",
                    "midi": 39,
                    "time": 145.36375749999814,
                    "velocity": 0.2283464566929134,
                    "duration": 0.0681818749999934
                },
                {
                    "name": "D#3",
                    "midi": 51,
                    "time": 145.36375749999814,
                    "velocity": 0.2677165354330709,
                    "duration": 0.0681818749999934
                },
                {
                    "name": "C#2",
                    "midi": 37,
                    "time": 145.50012124999813,
                    "velocity": 0.2283464566929134,
                    "duration": 0.0681818749999934
                },
                {
                    "name": "C#3",
                    "midi": 49,
                    "time": 145.50012124999813,
                    "velocity": 0.2677165354330709,
                    "duration": 0.0681818749999934
                },
                {
                    "name": "B1",
                    "midi": 35,
                    "time": 145.63648499999812,
                    "velocity": 0.2283464566929134,
                    "duration": 0.0681818749999934
                },
                {
                    "name": "B2",
                    "midi": 47,
                    "time": 145.63648499999812,
                    "velocity": 0.2677165354330709,
                    "duration": 0.0681818749999934
                },
                {
                    "name": "E2",
                    "midi": 40,
                    "time": 145.7728487499981,
                    "velocity": 0.2755905511811024,
                    "duration": 0.0681818749999934
                },
                {
                    "name": "E3",
                    "midi": 52,
                    "time": 145.7728487499981,
                    "velocity": 0.3228346456692913,
                    "duration": 0.0681818749999934
                },
                {
                    "name": "D#2",
                    "midi": 39,
                    "time": 145.9092124999981,
                    "velocity": 0.2283464566929134,
                    "duration": 0.0681818749999934
                },
                {
                    "name": "D#3",
                    "midi": 51,
                    "time": 145.9092124999981,
                    "velocity": 0.2677165354330709,
                    "duration": 0.0681818749999934
                },
                {
                    "name": "C#2",
                    "midi": 37,
                    "time": 146.04557624999808,
                    "velocity": 0.2283464566929134,
                    "duration": 0.0681818749999934
                },
                {
                    "name": "C#3",
                    "midi": 49,
                    "time": 146.04557624999808,
                    "velocity": 0.2677165354330709,
                    "duration": 0.0681818749999934
                },
                {
                    "name": "B1",
                    "midi": 35,
                    "time": 146.18193999999806,
                    "velocity": 0.2283464566929134,
                    "duration": 0.0681818749999934
                },
                {
                    "name": "B2",
                    "midi": 47,
                    "time": 146.18193999999806,
                    "velocity": 0.2677165354330709,
                    "duration": 0.0681818749999934
                },
                {
                    "name": "E2",
                    "midi": 40,
                    "time": 146.31830374999805,
                    "velocity": 0.2755905511811024,
                    "duration": 0.0681818749999934
                },
                {
                    "name": "E3",
                    "midi": 52,
                    "time": 146.31830374999805,
                    "velocity": 0.33070866141732286,
                    "duration": 0.0681818749999934
                },
                {
                    "name": "D#2",
                    "midi": 39,
                    "time": 146.45466749999804,
                    "velocity": 0.25984251968503935,
                    "duration": 0.0681818749999934
                },
                {
                    "name": "D#3",
                    "midi": 51,
                    "time": 146.45466749999804,
                    "velocity": 0.30708661417322836,
                    "duration": 0.0681818749999934
                },
                {
                    "name": "C#2",
                    "midi": 37,
                    "time": 146.59103124999803,
                    "velocity": 0.2283464566929134,
                    "duration": 0.0681818749999934
                },
                {
                    "name": "C#3",
                    "midi": 49,
                    "time": 146.59103124999803,
                    "velocity": 0.2755905511811024,
                    "duration": 0.0681818749999934
                },
                {
                    "name": "B1",
                    "midi": 35,
                    "time": 146.727394999998,
                    "velocity": 0.2283464566929134,
                    "duration": 0.0681818749999934
                },
                {
                    "name": "B2",
                    "midi": 47,
                    "time": 146.727394999998,
                    "velocity": 0.2755905511811024,
                    "duration": 0.0681818749999934
                },
                {
                    "name": "E2",
                    "midi": 40,
                    "time": 146.863758749998,
                    "velocity": 0.2755905511811024,
                    "duration": 0.0681818749999934
                },
                {
                    "name": "E3",
                    "midi": 52,
                    "time": 146.863758749998,
                    "velocity": 0.33070866141732286,
                    "duration": 0.0681818749999934
                },
                {
                    "name": "D#2",
                    "midi": 39,
                    "time": 147.00012249999799,
                    "velocity": 0.2204724409448819,
                    "duration": 0.0681818749999934
                },
                {
                    "name": "D#3",
                    "midi": 51,
                    "time": 147.00012249999799,
                    "velocity": 0.2677165354330709,
                    "duration": 0.0681818749999934
                },
                {
                    "name": "C#2",
                    "midi": 37,
                    "time": 147.13648624999797,
                    "velocity": 0.2283464566929134,
                    "duration": 0.0681818749999934
                },
                {
                    "name": "C#3",
                    "midi": 49,
                    "time": 147.13648624999797,
                    "velocity": 0.2677165354330709,
                    "duration": 0.0681818749999934
                },
                {
                    "name": "B1",
                    "midi": 35,
                    "time": 147.27284999999796,
                    "velocity": 0.2283464566929134,
                    "duration": 0.0681818749999934
                },
                {
                    "name": "B2",
                    "midi": 47,
                    "time": 147.27284999999796,
                    "velocity": 0.2677165354330709,
                    "duration": 0.0681818749999934
                },
                {
                    "name": "E2",
                    "midi": 40,
                    "time": 147.40921374999795,
                    "velocity": 0.2755905511811024,
                    "duration": 0.0681818749999934
                },
                {
                    "name": "E3",
                    "midi": 52,
                    "time": 147.40921374999795,
                    "velocity": 0.3228346456692913,
                    "duration": 0.0681818749999934
                },
                {
                    "name": "D#2",
                    "midi": 39,
                    "time": 147.54557749999793,
                    "velocity": 0.2283464566929134,
                    "duration": 0.0681818749999934
                },
                {
                    "name": "D#3",
                    "midi": 51,
                    "time": 147.54557749999793,
                    "velocity": 0.2755905511811024,
                    "duration": 0.0681818749999934
                },
                {
                    "name": "C#2",
                    "midi": 37,
                    "time": 147.68194124999792,
                    "velocity": 0.2283464566929134,
                    "duration": 0.0681818749999934
                },
                {
                    "name": "C#3",
                    "midi": 49,
                    "time": 147.68194124999792,
                    "velocity": 0.2755905511811024,
                    "duration": 0.0681818749999934
                },
                {
                    "name": "B1",
                    "midi": 35,
                    "time": 147.8183049999979,
                    "velocity": 0.2283464566929134,
                    "duration": 0.0681818749999934
                },
                {
                    "name": "B2",
                    "midi": 47,
                    "time": 147.8183049999979,
                    "velocity": 0.2755905511811024,
                    "duration": 0.0681818749999934
                },
                {
                    "name": "E2",
                    "midi": 40,
                    "time": 147.9546687499979,
                    "velocity": 0.28346456692913385,
                    "duration": 0.0681818749999934
                },
                {
                    "name": "E3",
                    "midi": 52,
                    "time": 147.9546687499979,
                    "velocity": 0.33070866141732286,
                    "duration": 0.0681818749999934
                },
                {
                    "name": "D#2",
                    "midi": 39,
                    "time": 148.09103249999788,
                    "velocity": 0.25196850393700787,
                    "duration": 0.0681818749999934
                },
                {
                    "name": "D#3",
                    "midi": 51,
                    "time": 148.09103249999788,
                    "velocity": 0.30708661417322836,
                    "duration": 0.0681818749999934
                },
                {
                    "name": "C#2",
                    "midi": 37,
                    "time": 148.22739624999787,
                    "velocity": 0.2283464566929134,
                    "duration": 0.0681818749999934
                },
                {
                    "name": "C#3",
                    "midi": 49,
                    "time": 148.22739624999787,
                    "velocity": 0.28346456692913385,
                    "duration": 0.0681818749999934
                },
                {
                    "name": "B1",
                    "midi": 35,
                    "time": 148.36375999999785,
                    "velocity": 0.2283464566929134,
                    "duration": 0.0681818749999934
                },
                {
                    "name": "B2",
                    "midi": 47,
                    "time": 148.36375999999785,
                    "velocity": 0.2755905511811024,
                    "duration": 0.0681818749999934
                },
                {
                    "name": "E2",
                    "midi": 40,
                    "time": 148.50012374999784,
                    "velocity": 0.28346456692913385,
                    "duration": 0.0681818749999934
                },
                {
                    "name": "E3",
                    "midi": 52,
                    "time": 148.50012374999784,
                    "velocity": 0.33070866141732286,
                    "duration": 0.0681818749999934
                },
                {
                    "name": "D#2",
                    "midi": 39,
                    "time": 148.63648749999783,
                    "velocity": 0.2283464566929134,
                    "duration": 0.0681818749999934
                },
                {
                    "name": "D#3",
                    "midi": 51,
                    "time": 148.63648749999783,
                    "velocity": 0.2755905511811024,
                    "duration": 0.0681818749999934
                },
                {
                    "name": "C#2",
                    "midi": 37,
                    "time": 148.7728512499978,
                    "velocity": 0.2283464566929134,
                    "duration": 0.0681818749999934
                },
                {
                    "name": "C#3",
                    "midi": 49,
                    "time": 148.7728512499978,
                    "velocity": 0.2755905511811024,
                    "duration": 0.0681818749999934
                },
                {
                    "name": "B1",
                    "midi": 35,
                    "time": 148.9092149999978,
                    "velocity": 0.2283464566929134,
                    "duration": 0.0681818749999934
                },
                {
                    "name": "B2",
                    "midi": 47,
                    "time": 148.9092149999978,
                    "velocity": 0.2755905511811024,
                    "duration": 0.0681818749999934
                },
                {
                    "name": "E2",
                    "midi": 40,
                    "time": 149.0455787499978,
                    "velocity": 0.28346456692913385,
                    "duration": 0.0681818749999934
                },
                {
                    "name": "E3",
                    "midi": 52,
                    "time": 149.0455787499978,
                    "velocity": 0.33070866141732286,
                    "duration": 0.0681818749999934
                },
                {
                    "name": "D#2",
                    "midi": 39,
                    "time": 149.18194249999777,
                    "velocity": 0.2283464566929134,
                    "duration": 0.0681818749999934
                },
                {
                    "name": "D#3",
                    "midi": 51,
                    "time": 149.18194249999777,
                    "velocity": 0.2755905511811024,
                    "duration": 0.0681818749999934
                },
                {
                    "name": "C#2",
                    "midi": 37,
                    "time": 149.31830624999776,
                    "velocity": 0.2283464566929134,
                    "duration": 0.0681818749999934
                },
                {
                    "name": "C#3",
                    "midi": 49,
                    "time": 149.31830624999776,
                    "velocity": 0.2755905511811024,
                    "duration": 0.0681818749999934
                },
                {
                    "name": "B1",
                    "midi": 35,
                    "time": 149.45466999999775,
                    "velocity": 0.2283464566929134,
                    "duration": 0.0681818749999934
                },
                {
                    "name": "B2",
                    "midi": 47,
                    "time": 149.45466999999775,
                    "velocity": 0.2755905511811024,
                    "duration": 0.0681818749999934
                },
                {
                    "name": "E2",
                    "midi": 40,
                    "time": 149.59103374999773,
                    "velocity": 0.28346456692913385,
                    "duration": 0.0681818749999934
                },
                {
                    "name": "E3",
                    "midi": 52,
                    "time": 149.59103374999773,
                    "velocity": 0.33070866141732286,
                    "duration": 0.0681818749999934
                },
                {
                    "name": "D#2",
                    "midi": 39,
                    "time": 149.72739749999772,
                    "velocity": 0.25196850393700787,
                    "duration": 0.0681818749999934
                },
                {
                    "name": "D#3",
                    "midi": 51,
                    "time": 149.72739749999772,
                    "velocity": 0.30708661417322836,
                    "duration": 0.0681818749999934
                },
                {
                    "name": "C#2",
                    "midi": 37,
                    "time": 149.8637612499977,
                    "velocity": 0.2283464566929134,
                    "duration": 0.0681818749999934
                },
                {
                    "name": "C#3",
                    "midi": 49,
                    "time": 149.8637612499977,
                    "velocity": 0.28346456692913385,
                    "duration": 0.0681818749999934
                },
                {
                    "name": "B1",
                    "midi": 35,
                    "time": 150.0001249999977,
                    "velocity": 0.2283464566929134,
                    "duration": 0.0681818749999934
                },
                {
                    "name": "B2",
                    "midi": 47,
                    "time": 150.0001249999977,
                    "velocity": 0.28346456692913385,
                    "duration": 0.0681818749999934
                },
                {
                    "name": "E2",
                    "midi": 40,
                    "time": 150.13648874999768,
                    "velocity": 0.28346456692913385,
                    "duration": 0.0681818749999934
                },
                {
                    "name": "E3",
                    "midi": 52,
                    "time": 150.13648874999768,
                    "velocity": 0.33858267716535434,
                    "duration": 0.0681818749999934
                },
                {
                    "name": "D#2",
                    "midi": 39,
                    "time": 150.27285249999767,
                    "velocity": 0.2283464566929134,
                    "duration": 0.0681818749999934
                },
                {
                    "name": "D#3",
                    "midi": 51,
                    "time": 150.27285249999767,
                    "velocity": 0.28346456692913385,
                    "duration": 0.0681818749999934
                },
                {
                    "name": "C#2",
                    "midi": 37,
                    "time": 150.40921624999766,
                    "velocity": 0.2283464566929134,
                    "duration": 0.0681818749999934
                },
                {
                    "name": "C#3",
                    "midi": 49,
                    "time": 150.40921624999766,
                    "velocity": 0.28346456692913385,
                    "duration": 0.0681818749999934
                },
                {
                    "name": "B1",
                    "midi": 35,
                    "time": 150.54557999999764,
                    "velocity": 0.2283464566929134,
                    "duration": 0.0681818749999934
                },
                {
                    "name": "B2",
                    "midi": 47,
                    "time": 150.54557999999764,
                    "velocity": 0.28346456692913385,
                    "duration": 0.0681818749999934
                },
                {
                    "name": "E2",
                    "midi": 40,
                    "time": 150.68194374999763,
                    "velocity": 0.28346456692913385,
                    "duration": 0.0681818749999934
                },
                {
                    "name": "E3",
                    "midi": 52,
                    "time": 150.68194374999763,
                    "velocity": 0.33858267716535434,
                    "duration": 0.0681818749999934
                },
                {
                    "name": "D#2",
                    "midi": 39,
                    "time": 150.81830749999762,
                    "velocity": 0.2283464566929134,
                    "duration": 0.0681818749999934
                },
                {
                    "name": "D#3",
                    "midi": 51,
                    "time": 150.81830749999762,
                    "velocity": 0.28346456692913385,
                    "duration": 0.0681818749999934
                },
                {
                    "name": "C#2",
                    "midi": 37,
                    "time": 150.9546712499976,
                    "velocity": 0.23622047244094488,
                    "duration": 0.0681818749999934
                },
                {
                    "name": "C#3",
                    "midi": 49,
                    "time": 150.9546712499976,
                    "velocity": 0.28346456692913385,
                    "duration": 0.0681818749999934
                },
                {
                    "name": "B1",
                    "midi": 35,
                    "time": 151.0910349999976,
                    "velocity": 0.23622047244094488,
                    "duration": 0.0681818749999934
                },
                {
                    "name": "B2",
                    "midi": 47,
                    "time": 151.0910349999976,
                    "velocity": 0.2755905511811024,
                    "duration": 0.0681818749999934
                },
                {
                    "name": "E2",
                    "midi": 40,
                    "time": 151.22739874999758,
                    "velocity": 0.29133858267716534,
                    "duration": 0.0681818749999934
                },
                {
                    "name": "E3",
                    "midi": 52,
                    "time": 151.22739874999758,
                    "velocity": 0.33858267716535434,
                    "duration": 0.0681818749999934
                },
                {
                    "name": "D#2",
                    "midi": 39,
                    "time": 151.36376249999756,
                    "velocity": 0.25984251968503935,
                    "duration": 0.0681818749999934
                },
                {
                    "name": "D#3",
                    "midi": 51,
                    "time": 151.36376249999756,
                    "velocity": 0.31496062992125984,
                    "duration": 0.0681818749999934
                },
                {
                    "name": "C#2",
                    "midi": 37,
                    "time": 151.50012624999755,
                    "velocity": 0.23622047244094488,
                    "duration": 0.0681818749999934
                },
                {
                    "name": "C#3",
                    "midi": 49,
                    "time": 151.50012624999755,
                    "velocity": 0.29133858267716534,
                    "duration": 0.0681818749999934
                },
                {
                    "name": "B1",
                    "midi": 35,
                    "time": 151.63648999999754,
                    "velocity": 0.23622047244094488,
                    "duration": 0.0681818749999934
                },
                {
                    "name": "B2",
                    "midi": 47,
                    "time": 151.63648999999754,
                    "velocity": 0.29133858267716534,
                    "duration": 0.0681818749999934
                },
                {
                    "name": "E2",
                    "midi": 40,
                    "time": 151.77285374999752,
                    "velocity": 0.29133858267716534,
                    "duration": 0.0681818749999934
                },
                {
                    "name": "E3",
                    "midi": 52,
                    "time": 151.77285374999752,
                    "velocity": 0.33858267716535434,
                    "duration": 0.0681818749999934
                },
                {
                    "name": "D#2",
                    "midi": 39,
                    "time": 151.9092174999975,
                    "velocity": 0.23622047244094488,
                    "duration": 0.0681818749999934
                },
                {
                    "name": "D#3",
                    "midi": 51,
                    "time": 151.9092174999975,
                    "velocity": 0.28346456692913385,
                    "duration": 0.0681818749999934
                },
                {
                    "name": "C#2",
                    "midi": 37,
                    "time": 152.0455812499975,
                    "velocity": 0.23622047244094488,
                    "duration": 0.0681818749999934
                },
                {
                    "name": "C#3",
                    "midi": 49,
                    "time": 152.0455812499975,
                    "velocity": 0.29133858267716534,
                    "duration": 0.0681818749999934
                },
                {
                    "name": "B1",
                    "midi": 35,
                    "time": 152.18194499999748,
                    "velocity": 0.23622047244094488,
                    "duration": 0.0681818749999934
                },
                {
                    "name": "B2",
                    "midi": 47,
                    "time": 152.18194499999748,
                    "velocity": 0.29133858267716534,
                    "duration": 0.0681818749999934
                },
                {
                    "name": "E2",
                    "midi": 40,
                    "time": 152.31830874999747,
                    "velocity": 0.29133858267716534,
                    "duration": 0.0681818749999934
                },
                {
                    "name": "E3",
                    "midi": 52,
                    "time": 152.31830874999747,
                    "velocity": 0.3464566929133858,
                    "duration": 0.0681818749999934
                },
                {
                    "name": "D#2",
                    "midi": 39,
                    "time": 152.45467249999746,
                    "velocity": 0.2440944881889764,
                    "duration": 0.0681818749999934
                },
                {
                    "name": "D#3",
                    "midi": 51,
                    "time": 152.45467249999746,
                    "velocity": 0.29133858267716534,
                    "duration": 0.0681818749999934
                },
                {
                    "name": "C#2",
                    "midi": 37,
                    "time": 152.59103624999744,
                    "velocity": 0.2440944881889764,
                    "duration": 0.0681818749999934
                },
                {
                    "name": "C#3",
                    "midi": 49,
                    "time": 152.59103624999744,
                    "velocity": 0.29133858267716534,
                    "duration": 0.0681818749999934
                },
                {
                    "name": "B1",
                    "midi": 35,
                    "time": 152.72739999999743,
                    "velocity": 0.2440944881889764,
                    "duration": 0.0681818749999934
                },
                {
                    "name": "B2",
                    "midi": 47,
                    "time": 152.72739999999743,
                    "velocity": 0.2992125984251969,
                    "duration": 0.0681818749999934
                },
                {
                    "name": "E2",
                    "midi": 40,
                    "time": 152.86376374999742,
                    "velocity": 0.2992125984251969,
                    "duration": 0.0681818749999934
                },
                {
                    "name": "E3",
                    "midi": 52,
                    "time": 152.86376374999742,
                    "velocity": 0.3543307086614173,
                    "duration": 0.0681818749999934
                },
                {
                    "name": "D#2",
                    "midi": 39,
                    "time": 153.0001274999974,
                    "velocity": 0.28346456692913385,
                    "duration": 0.0681818749999934
                },
                {
                    "name": "D#3",
                    "midi": 51,
                    "time": 153.0001274999974,
                    "velocity": 0.33070866141732286,
                    "duration": 0.0681818749999934
                },
                {
                    "name": "C#2",
                    "midi": 37,
                    "time": 153.1364912499974,
                    "velocity": 0.2440944881889764,
                    "duration": 0.0681818749999934
                },
                {
                    "name": "C#3",
                    "midi": 49,
                    "time": 153.1364912499974,
                    "velocity": 0.2992125984251969,
                    "duration": 0.0681818749999934
                },
                {
                    "name": "B1",
                    "midi": 35,
                    "time": 153.27285499999738,
                    "velocity": 0.2440944881889764,
                    "duration": 0.0681818749999934
                },
                {
                    "name": "B2",
                    "midi": 47,
                    "time": 153.27285499999738,
                    "velocity": 0.30708661417322836,
                    "duration": 0.0681818749999934
                },
                {
                    "name": "E2",
                    "midi": 40,
                    "time": 153.40921874999736,
                    "velocity": 0.31496062992125984,
                    "duration": 0.0681818749999934
                },
                {
                    "name": "E3",
                    "midi": 52,
                    "time": 153.40921874999736,
                    "velocity": 0.3779527559055118,
                    "duration": 0.0681818749999934
                },
                {
                    "name": "D#2",
                    "midi": 39,
                    "time": 153.54558249999735,
                    "velocity": 0.25984251968503935,
                    "duration": 0.0681818749999934
                },
                {
                    "name": "D#3",
                    "midi": 51,
                    "time": 153.54558249999735,
                    "velocity": 0.31496062992125984,
                    "duration": 0.0681818749999934
                },
                {
                    "name": "C#2",
                    "midi": 37,
                    "time": 153.68194624999734,
                    "velocity": 0.25984251968503935,
                    "duration": 0.0681818749999934
                },
                {
                    "name": "C#3",
                    "midi": 49,
                    "time": 153.68194624999734,
                    "velocity": 0.3228346456692913,
                    "duration": 0.0681818749999934
                },
                {
                    "name": "B1",
                    "midi": 35,
                    "time": 153.81830999999733,
                    "velocity": 0.2677165354330709,
                    "duration": 0.0681818749999934
                },
                {
                    "name": "B2",
                    "midi": 47,
                    "time": 153.81830999999733,
                    "velocity": 0.33070866141732286,
                    "duration": 0.0681818749999934
                },
                {
                    "name": "E2",
                    "midi": 40,
                    "time": 153.9546737499973,
                    "velocity": 0.33858267716535434,
                    "duration": 0.0681818749999934
                },
                {
                    "name": "E3",
                    "midi": 52,
                    "time": 153.9546737499973,
                    "velocity": 0.4015748031496063,
                    "duration": 0.0681818749999934
                },
                {
                    "name": "D#2",
                    "midi": 39,
                    "time": 154.0910374999973,
                    "velocity": 0.2677165354330709,
                    "duration": 0.0681818749999934
                },
                {
                    "name": "D#3",
                    "midi": 51,
                    "time": 154.0910374999973,
                    "velocity": 0.33858267716535434,
                    "duration": 0.0681818749999934
                },
                {
                    "name": "C#2",
                    "midi": 37,
                    "time": 154.22740124999729,
                    "velocity": 0.2755905511811024,
                    "duration": 0.0681818749999934
                },
                {
                    "name": "C#3",
                    "midi": 49,
                    "time": 154.22740124999729,
                    "velocity": 0.33858267716535434,
                    "duration": 0.0681818749999934
                },
                {
                    "name": "B1",
                    "midi": 35,
                    "time": 154.36376499999727,
                    "velocity": 0.29133858267716534,
                    "duration": 0.0681818749999934
                },
                {
                    "name": "B2",
                    "midi": 47,
                    "time": 154.36376499999727,
                    "velocity": 0.33858267716535434,
                    "duration": 0.0681818749999934
                },
                {
                    "name": "E2",
                    "midi": 40,
                    "time": 154.50012874999726,
                    "velocity": 0.3464566929133858,
                    "duration": 0.0681818749999934
                },
                {
                    "name": "E3",
                    "midi": 52,
                    "time": 154.50012874999726,
                    "velocity": 0.41732283464566927,
                    "duration": 0.0681818749999934
                },
                {
                    "name": "D#2",
                    "midi": 39,
                    "time": 154.63649249999725,
                    "velocity": 0.3228346456692913,
                    "duration": 0.0681818749999934
                },
                {
                    "name": "D#3",
                    "midi": 51,
                    "time": 154.63649249999725,
                    "velocity": 0.3858267716535433,
                    "duration": 0.0681818749999934
                },
                {
                    "name": "C#2",
                    "midi": 37,
                    "time": 154.77285624999723,
                    "velocity": 0.2992125984251969,
                    "duration": 0.0681818749999934
                },
                {
                    "name": "C#3",
                    "midi": 49,
                    "time": 154.77285624999723,
                    "velocity": 0.36220472440944884,
                    "duration": 0.0681818749999934
                },
                {
                    "name": "B1",
                    "midi": 35,
                    "time": 154.90921999999722,
                    "velocity": 0.2992125984251969,
                    "duration": 0.0681818749999934
                },
                {
                    "name": "B2",
                    "midi": 47,
                    "time": 154.90921999999722,
                    "velocity": 0.36220472440944884,
                    "duration": 0.0681818749999934
                },
                {
                    "name": "E2",
                    "midi": 40,
                    "time": 155.0455837499972,
                    "velocity": 0.3700787401574803,
                    "duration": 0.0681818749999934
                },
                {
                    "name": "E3",
                    "midi": 52,
                    "time": 155.0455837499972,
                    "velocity": 0.44881889763779526,
                    "duration": 0.0681818749999934
                },
                {
                    "name": "D#2",
                    "midi": 39,
                    "time": 155.1819474999972,
                    "velocity": 0.2992125984251969,
                    "duration": 0.0681818749999934
                },
                {
                    "name": "D#3",
                    "midi": 51,
                    "time": 155.1819474999972,
                    "velocity": 0.36220472440944884,
                    "duration": 0.0681818749999934
                },
                {
                    "name": "C#2",
                    "midi": 37,
                    "time": 155.31831124999718,
                    "velocity": 0.31496062992125984,
                    "duration": 0.0681818749999934
                },
                {
                    "name": "C#3",
                    "midi": 49,
                    "time": 155.31831124999718,
                    "velocity": 0.3700787401574803,
                    "duration": 0.0681818749999934
                },
                {
                    "name": "B1",
                    "midi": 35,
                    "time": 155.45467499999717,
                    "velocity": 0.31496062992125984,
                    "duration": 0.0681818749999934
                },
                {
                    "name": "B2",
                    "midi": 47,
                    "time": 155.45467499999717,
                    "velocity": 0.3779527559055118,
                    "duration": 0.0681818749999934
                },
                {
                    "name": "E2",
                    "midi": 40,
                    "time": 155.59103874999715,
                    "velocity": 0.4015748031496063,
                    "duration": 0.0681818749999934
                },
                {
                    "name": "E3",
                    "midi": 52,
                    "time": 155.59103874999715,
                    "velocity": 0.4645669291338583,
                    "duration": 0.0681818749999934
                },
                {
                    "name": "D#2",
                    "midi": 39,
                    "time": 155.72740249999714,
                    "velocity": 0.3228346456692913,
                    "duration": 0.0681818749999934
                },
                {
                    "name": "D#3",
                    "midi": 51,
                    "time": 155.72740249999714,
                    "velocity": 0.3937007874015748,
                    "duration": 0.0681818749999934
                },
                {
                    "name": "C#2",
                    "midi": 37,
                    "time": 155.86376624999713,
                    "velocity": 0.3228346456692913,
                    "duration": 0.0681818749999934
                },
                {
                    "name": "C#3",
                    "midi": 49,
                    "time": 155.86376624999713,
                    "velocity": 0.3937007874015748,
                    "duration": 0.0681818749999934
                },
                {
                    "name": "B1",
                    "midi": 35,
                    "time": 156.0001299999971,
                    "velocity": 0.33070866141732286,
                    "duration": 0.0681818749999934
                },
                {
                    "name": "B2",
                    "midi": 47,
                    "time": 156.0001299999971,
                    "velocity": 0.4015748031496063,
                    "duration": 0.0681818749999934
                },
                {
                    "name": "E2",
                    "midi": 40,
                    "time": 156.1364937499971,
                    "velocity": 0.4094488188976378,
                    "duration": 0.0681818749999934
                },
                {
                    "name": "E3",
                    "midi": 52,
                    "time": 156.1364937499971,
                    "velocity": 0.48031496062992124,
                    "duration": 0.0681818749999934
                },
                {
                    "name": "D#2",
                    "midi": 39,
                    "time": 156.2728574999971,
                    "velocity": 0.3779527559055118,
                    "duration": 0.0681818749999934
                },
                {
                    "name": "D#3",
                    "midi": 51,
                    "time": 156.2728574999971,
                    "velocity": 0.4566929133858268,
                    "duration": 0.0681818749999934
                },
                {
                    "name": "C#2",
                    "midi": 37,
                    "time": 156.40922124999707,
                    "velocity": 0.3464566929133858,
                    "duration": 0.0681818749999934
                },
                {
                    "name": "C#3",
                    "midi": 49,
                    "time": 156.40922124999707,
                    "velocity": 0.4330708661417323,
                    "duration": 0.0681818749999934
                },
                {
                    "name": "B1",
                    "midi": 35,
                    "time": 156.54558499999706,
                    "velocity": 0.3543307086614173,
                    "duration": 0.0681818749999934
                },
                {
                    "name": "B2",
                    "midi": 47,
                    "time": 156.54558499999706,
                    "velocity": 0.4409448818897638,
                    "duration": 0.0681818749999934
                },
                {
                    "name": "E2",
                    "midi": 40,
                    "time": 156.68194874999705,
                    "velocity": 0.4409448818897638,
                    "duration": 0.0681818749999934
                },
                {
                    "name": "E3",
                    "midi": 52,
                    "time": 156.68194874999705,
                    "velocity": 0.5196850393700787,
                    "duration": 0.0681818749999934
                },
                {
                    "name": "D#2",
                    "midi": 39,
                    "time": 156.81831249999703,
                    "velocity": 0.3543307086614173,
                    "duration": 0.0681818749999934
                },
                {
                    "name": "D#3",
                    "midi": 51,
                    "time": 156.81831249999703,
                    "velocity": 0.41732283464566927,
                    "duration": 0.0681818749999934
                },
                {
                    "name": "C#2",
                    "midi": 37,
                    "time": 156.95467624999702,
                    "velocity": 0.36220472440944884,
                    "duration": 0.0681818749999934
                },
                {
                    "name": "C#3",
                    "midi": 49,
                    "time": 156.95467624999702,
                    "velocity": 0.4251968503937008,
                    "duration": 0.0681818749999934
                },
                {
                    "name": "B1",
                    "midi": 35,
                    "time": 157.091039999997,
                    "velocity": 0.3700787401574803,
                    "duration": 0.0681818749999934
                },
                {
                    "name": "B2",
                    "midi": 47,
                    "time": 157.091039999997,
                    "velocity": 0.44881889763779526,
                    "duration": 0.0681818749999934
                },
                {
                    "name": "E2",
                    "midi": 40,
                    "time": 157.227403749997,
                    "velocity": 0.4566929133858268,
                    "duration": 0.0681818749999934
                },
                {
                    "name": "E3",
                    "midi": 52,
                    "time": 157.227403749997,
                    "velocity": 0.5433070866141733,
                    "duration": 0.0681818749999934
                },
                {
                    "name": "D#2",
                    "midi": 39,
                    "time": 157.36376749999698,
                    "velocity": 0.3700787401574803,
                    "duration": 0.0681818749999934
                },
                {
                    "name": "D#3",
                    "midi": 51,
                    "time": 157.36376749999698,
                    "velocity": 0.44881889763779526,
                    "duration": 0.0681818749999934
                },
                {
                    "name": "C#2",
                    "midi": 37,
                    "time": 157.50013124999697,
                    "velocity": 0.3700787401574803,
                    "duration": 0.0681818749999934
                },
                {
                    "name": "C#3",
                    "midi": 49,
                    "time": 157.50013124999697,
                    "velocity": 0.44881889763779526,
                    "duration": 0.0681818749999934
                },
                {
                    "name": "B1",
                    "midi": 35,
                    "time": 157.63649499999696,
                    "velocity": 0.3779527559055118,
                    "duration": 0.0681818749999934
                },
                {
                    "name": "B2",
                    "midi": 47,
                    "time": 157.63649499999696,
                    "velocity": 0.4566929133858268,
                    "duration": 0.0681818749999934
                },
                {
                    "name": "E2",
                    "midi": 40,
                    "time": 157.77285874999694,
                    "velocity": 0.4881889763779528,
                    "duration": 0.0681818749999934
                },
                {
                    "name": "E3",
                    "midi": 52,
                    "time": 157.77285874999694,
                    "velocity": 0.5748031496062992,
                    "duration": 0.0681818749999934
                },
                {
                    "name": "D#2",
                    "midi": 39,
                    "time": 157.90922249999693,
                    "velocity": 0.4409448818897638,
                    "duration": 0.0681818749999934
                },
                {
                    "name": "D#3",
                    "midi": 51,
                    "time": 157.90922249999693,
                    "velocity": 0.5275590551181102,
                    "duration": 0.0681818749999934
                },
                {
                    "name": "C#2",
                    "midi": 37,
                    "time": 158.04558624999692,
                    "velocity": 0.4094488188976378,
                    "duration": 0.0681818749999934
                },
                {
                    "name": "C#3",
                    "midi": 49,
                    "time": 158.04558624999692,
                    "velocity": 0.49606299212598426,
                    "duration": 0.0681818749999934
                },
                {
                    "name": "B1",
                    "midi": 35,
                    "time": 158.1819499999969,
                    "velocity": 0.4094488188976378,
                    "duration": 0.0681818749999934
                },
                {
                    "name": "B2",
                    "midi": 47,
                    "time": 158.1819499999969,
                    "velocity": 0.49606299212598426,
                    "duration": 0.0681818749999934
                },
                {
                    "name": "E2",
                    "midi": 40,
                    "time": 158.3183137499969,
                    "velocity": 0.5039370078740157,
                    "duration": 0.0681818749999934
                },
                {
                    "name": "E3",
                    "midi": 52,
                    "time": 158.3183137499969,
                    "velocity": 0.6062992125984252,
                    "duration": 0.0681818749999934
                },
                {
                    "name": "D#2",
                    "midi": 39,
                    "time": 158.45467749999688,
                    "velocity": 0.41732283464566927,
                    "duration": 0.0681818749999934
                },
                {
                    "name": "D#3",
                    "midi": 51,
                    "time": 158.45467749999688,
                    "velocity": 0.49606299212598426,
                    "duration": 0.0681818749999934
                },
                {
                    "name": "E2",
                    "midi": 40,
                    "time": 158.59104124999686,
                    "velocity": 0.4251968503937008,
                    "duration": 0.0681818749999934
                },
                {
                    "name": "E3",
                    "midi": 52,
                    "time": 158.59104124999686,
                    "velocity": 0.5039370078740157,
                    "duration": 0.0681818749999934
                },
                {
                    "name": "D2",
                    "midi": 38,
                    "time": 158.72740499999685,
                    "velocity": 0.4330708661417323,
                    "duration": 0.0681818749999934
                },
                {
                    "name": "D3",
                    "midi": 50,
                    "time": 158.72740499999685,
                    "velocity": 0.5118110236220472,
                    "duration": 0.0681818749999934
                },
                {
                    "name": "D#2",
                    "midi": 39,
                    "time": 158.86376874999684,
                    "velocity": 0.5196850393700787,
                    "duration": 0.0681818749999934
                },
                {
                    "name": "D#3",
                    "midi": 51,
                    "time": 158.86376874999684,
                    "velocity": 0.6062992125984252,
                    "duration": 0.0681818749999934
                },
                {
                    "name": "D2",
                    "midi": 38,
                    "time": 159.00013249999682,
                    "velocity": 0.4251968503937008,
                    "duration": 0.0681818749999934
                },
                {
                    "name": "D3",
                    "midi": 50,
                    "time": 159.00013249999682,
                    "velocity": 0.5118110236220472,
                    "duration": 0.0681818749999934
                },
                {
                    "name": "C2",
                    "midi": 36,
                    "time": 159.1364962499968,
                    "velocity": 0.4251968503937008,
                    "duration": 0.0681818749999934
                },
                {
                    "name": "C3",
                    "midi": 48,
                    "time": 159.1364962499968,
                    "velocity": 0.5118110236220472,
                    "duration": 0.0681818749999934
                },
                {
                    "name": "A#1",
                    "midi": 34,
                    "time": 159.2728599999968,
                    "velocity": 0.4251968503937008,
                    "duration": 0.0681818749999934
                },
                {
                    "name": "A#2",
                    "midi": 46,
                    "time": 159.2728599999968,
                    "velocity": 0.5118110236220472,
                    "duration": 0.0681818749999934
                },
                {
                    "name": "D#2",
                    "midi": 39,
                    "time": 159.40922374999678,
                    "velocity": 0.5275590551181102,
                    "duration": 0.0681818749999934
                },
                {
                    "name": "D#3",
                    "midi": 51,
                    "time": 159.40922374999678,
                    "velocity": 0.6220472440944882,
                    "duration": 0.0681818749999934
                },
                {
                    "name": "D2",
                    "midi": 38,
                    "time": 159.54558749999677,
                    "velocity": 0.4881889763779528,
                    "duration": 0.0681818749999934
                },
                {
                    "name": "D3",
                    "midi": 50,
                    "time": 159.54558749999677,
                    "velocity": 0.5905511811023622,
                    "duration": 0.0681818749999934
                },
                {
                    "name": "C2",
                    "midi": 36,
                    "time": 159.68195124999676,
                    "velocity": 0.4566929133858268,
                    "duration": 0.0681818749999934
                },
                {
                    "name": "C3",
                    "midi": 48,
                    "time": 159.68195124999676,
                    "velocity": 0.5433070866141733,
                    "duration": 0.0681818749999934
                },
                {
                    "name": "A#1",
                    "midi": 34,
                    "time": 159.81831499999674,
                    "velocity": 0.4566929133858268,
                    "duration": 0.0681818749999934
                },
                {
                    "name": "A#2",
                    "midi": 46,
                    "time": 159.81831499999674,
                    "velocity": 0.5433070866141733,
                    "duration": 0.0681818749999934
                },
                {
                    "name": "D#2",
                    "midi": 39,
                    "time": 159.95467874999673,
                    "velocity": 0.5433070866141733,
                    "duration": 0.0681818749999934
                },
                {
                    "name": "D#3",
                    "midi": 51,
                    "time": 159.95467874999673,
                    "velocity": 0.6614173228346457,
                    "duration": 0.0681818749999934
                },
                {
                    "name": "D2",
                    "midi": 38,
                    "time": 160.09104249999672,
                    "velocity": 0.4566929133858268,
                    "duration": 0.0681818749999934
                },
                {
                    "name": "D3",
                    "midi": 50,
                    "time": 160.09104249999672,
                    "velocity": 0.5354330708661418,
                    "duration": 0.0681818749999934
                },
                {
                    "name": "C2",
                    "midi": 36,
                    "time": 160.2274062499967,
                    "velocity": 0.4645669291338583,
                    "duration": 0.0681818749999934
                },
                {
                    "name": "C3",
                    "midi": 48,
                    "time": 160.2274062499967,
                    "velocity": 0.5511811023622047,
                    "duration": 0.0681818749999934
                },
                {
                    "name": "A#1",
                    "midi": 34,
                    "time": 160.3637699999967,
                    "velocity": 0.48031496062992124,
                    "duration": 0.0681818749999934
                },
                {
                    "name": "A#2",
                    "midi": 46,
                    "time": 160.3637699999967,
                    "velocity": 0.5590551181102362,
                    "duration": 0.0681818749999934
                },
                {
                    "name": "D#2",
                    "midi": 39,
                    "time": 160.50013374999668,
                    "velocity": 0.5590551181102362,
                    "duration": 0.0681818749999934
                },
                {
                    "name": "D#3",
                    "midi": 51,
                    "time": 160.50013374999668,
                    "velocity": 0.6456692913385826,
                    "duration": 0.0681818749999934
                },
                {
                    "name": "D2",
                    "midi": 38,
                    "time": 160.63649749999666,
                    "velocity": 0.44881889763779526,
                    "duration": 0.0681818749999934
                },
                {
                    "name": "D3",
                    "midi": 50,
                    "time": 160.63649749999666,
                    "velocity": 0.5354330708661418,
                    "duration": 0.0681818749999934
                },
                {
                    "name": "C2",
                    "midi": 36,
                    "time": 160.77286124999665,
                    "velocity": 0.4566929133858268,
                    "duration": 0.0681818749999934
                },
                {
                    "name": "C3",
                    "midi": 48,
                    "time": 160.77286124999665,
                    "velocity": 0.5433070866141733,
                    "duration": 0.0681818749999934
                },
                {
                    "name": "A#1",
                    "midi": 34,
                    "time": 160.90922499999664,
                    "velocity": 0.4566929133858268,
                    "duration": 0.0681818749999934
                },
                {
                    "name": "A#2",
                    "midi": 46,
                    "time": 160.90922499999664,
                    "velocity": 0.5433070866141733,
                    "duration": 0.0681818749999934
                },
                {
                    "name": "D#2",
                    "midi": 39,
                    "time": 161.04558874999663,
                    "velocity": 0.5669291338582677,
                    "duration": 0.0681818749999934
                },
                {
                    "name": "D#3",
                    "midi": 51,
                    "time": 161.04558874999663,
                    "velocity": 0.6692913385826772,
                    "duration": 0.0681818749999934
                },
                {
                    "name": "D2",
                    "midi": 38,
                    "time": 161.1819524999966,
                    "velocity": 0.5039370078740157,
                    "duration": 0.0681818749999934
                },
                {
                    "name": "D3",
                    "midi": 50,
                    "time": 161.1819524999966,
                    "velocity": 0.6141732283464567,
                    "duration": 0.0681818749999934
                },
                {
                    "name": "C2",
                    "midi": 36,
                    "time": 161.3183162499966,
                    "velocity": 0.47244094488188976,
                    "duration": 0.0681818749999934
                },
                {
                    "name": "C3",
                    "midi": 48,
                    "time": 161.3183162499966,
                    "velocity": 0.5748031496062992,
                    "duration": 0.0681818749999934
                },
                {
                    "name": "A#1",
                    "midi": 34,
                    "time": 161.45467999999659,
                    "velocity": 0.47244094488188976,
                    "duration": 0.0681818749999934
                },
                {
                    "name": "A#2",
                    "midi": 46,
                    "time": 161.45467999999659,
                    "velocity": 0.5748031496062992,
                    "duration": 0.0681818749999934
                },
                {
                    "name": "D#2",
                    "midi": 39,
                    "time": 161.59104374999657,
                    "velocity": 0.5748031496062992,
                    "duration": 0.0681818749999934
                },
                {
                    "name": "D#3",
                    "midi": 51,
                    "time": 161.59104374999657,
                    "velocity": 0.6850393700787402,
                    "duration": 0.0681818749999934
                },
                {
                    "name": "D2",
                    "midi": 38,
                    "time": 161.72740749999656,
                    "velocity": 0.47244094488188976,
                    "duration": 0.0681818749999934
                },
                {
                    "name": "D3",
                    "midi": 50,
                    "time": 161.72740749999656,
                    "velocity": 0.5669291338582677,
                    "duration": 0.0681818749999934
                },
                {
                    "name": "C2",
                    "midi": 36,
                    "time": 161.86377124999655,
                    "velocity": 0.47244094488188976,
                    "duration": 0.0681818749999934
                },
                {
                    "name": "C3",
                    "midi": 48,
                    "time": 161.86377124999655,
                    "velocity": 0.5669291338582677,
                    "duration": 0.0681818749999934
                },
                {
                    "name": "A#1",
                    "midi": 34,
                    "time": 162.00013499999653,
                    "velocity": 0.4881889763779528,
                    "duration": 0.0681818749999934
                },
                {
                    "name": "A#2",
                    "midi": 46,
                    "time": 162.00013499999653,
                    "velocity": 0.5826771653543307,
                    "duration": 0.0681818749999934
                },
                {
                    "name": "D#2",
                    "midi": 39,
                    "time": 162.13649874999652,
                    "velocity": 0.5748031496062992,
                    "duration": 0.0681818749999934
                },
                {
                    "name": "D#3",
                    "midi": 51,
                    "time": 162.13649874999652,
                    "velocity": 0.6614173228346457,
                    "duration": 0.0681818749999934
                },
                {
                    "name": "D2",
                    "midi": 38,
                    "time": 162.2728624999965,
                    "velocity": 0.4645669291338583,
                    "duration": 0.0681818749999934
                },
                {
                    "name": "D3",
                    "midi": 50,
                    "time": 162.2728624999965,
                    "velocity": 0.5511811023622047,
                    "duration": 0.0681818749999934
                },
                {
                    "name": "C2",
                    "midi": 36,
                    "time": 162.4092262499965,
                    "velocity": 0.4645669291338583,
                    "duration": 0.0681818749999934
                },
                {
                    "name": "C3",
                    "midi": 48,
                    "time": 162.4092262499965,
                    "velocity": 0.5511811023622047,
                    "duration": 0.0681818749999934
                },
                {
                    "name": "A#1",
                    "midi": 34,
                    "time": 162.54558999999648,
                    "velocity": 0.4645669291338583,
                    "duration": 0.0681818749999934
                },
                {
                    "name": "A#2",
                    "midi": 46,
                    "time": 162.54558999999648,
                    "velocity": 0.5590551181102362,
                    "duration": 0.0681818749999934
                },
                {
                    "name": "D#2",
                    "midi": 39,
                    "time": 162.68195374999647,
                    "velocity": 0.5826771653543307,
                    "duration": 0.0681818749999934
                },
                {
                    "name": "D#3",
                    "midi": 51,
                    "time": 162.68195374999647,
                    "velocity": 0.6850393700787402,
                    "duration": 0.0681818749999934
                },
                {
                    "name": "D2",
                    "midi": 38,
                    "time": 162.81831749999645,
                    "velocity": 0.5196850393700787,
                    "duration": 0.0681818749999934
                },
                {
                    "name": "D3",
                    "midi": 50,
                    "time": 162.81831749999645,
                    "velocity": 0.6299212598425197,
                    "duration": 0.0681818749999934
                },
                {
                    "name": "C2",
                    "midi": 36,
                    "time": 162.95468124999644,
                    "velocity": 0.4881889763779528,
                    "duration": 0.0681818749999934
                },
                {
                    "name": "C3",
                    "midi": 48,
                    "time": 162.95468124999644,
                    "velocity": 0.5826771653543307,
                    "duration": 0.0681818749999934
                },
                {
                    "name": "A#1",
                    "midi": 34,
                    "time": 163.09104499999643,
                    "velocity": 0.4881889763779528,
                    "duration": 0.0681818749999934
                },
                {
                    "name": "A#2",
                    "midi": 46,
                    "time": 163.09104499999643,
                    "velocity": 0.5826771653543307,
                    "duration": 0.0681818749999934
                },
                {
                    "name": "D#2",
                    "midi": 39,
                    "time": 163.2274087499964,
                    "velocity": 0.5905511811023622,
                    "duration": 0.0681818749999934
                },
                {
                    "name": "D#3",
                    "midi": 51,
                    "time": 163.2274087499964,
                    "velocity": 0.7007874015748031,
                    "duration": 0.0681818749999934
                },
                {
                    "name": "D2",
                    "midi": 38,
                    "time": 163.3637724999964,
                    "velocity": 0.4881889763779528,
                    "duration": 0.0681818749999934
                },
                {
                    "name": "D3",
                    "midi": 50,
                    "time": 163.3637724999964,
                    "velocity": 0.5826771653543307,
                    "duration": 0.0681818749999934
                },
                {
                    "name": "C2",
                    "midi": 36,
                    "time": 163.5001362499964,
                    "velocity": 0.4881889763779528,
                    "duration": 0.0681818749999934
                },
                {
                    "name": "C3",
                    "midi": 48,
                    "time": 163.5001362499964,
                    "velocity": 0.5826771653543307,
                    "duration": 0.0681818749999934
                },
                {
                    "name": "A#1",
                    "midi": 34,
                    "time": 163.63649999999637,
                    "velocity": 0.49606299212598426,
                    "duration": 0.0681818749999934
                },
                {
                    "name": "A#2",
                    "midi": 46,
                    "time": 163.63649999999637,
                    "velocity": 0.5905511811023622,
                    "duration": 0.0681818749999934
                },
                {
                    "name": "D#2",
                    "midi": 39,
                    "time": 163.77286374999636,
                    "velocity": 0.5984251968503937,
                    "duration": 0.0681818749999934
                },
                {
                    "name": "D#3",
                    "midi": 51,
                    "time": 163.77286374999636,
                    "velocity": 0.7086614173228346,
                    "duration": 0.0681818749999934
                },
                {
                    "name": "B1",
                    "midi": 35,
                    "time": 163.97740937499634,
                    "velocity": 0.4566929133858268,
                    "duration": 0.272727500000002
                },
                {
                    "name": "F#2",
                    "midi": 42,
                    "time": 164.01150031249634,
                    "velocity": 0.48031496062992124,
                    "duration": 0.2386365625000053
                },
                {
                    "name": "B2",
                    "midi": 47,
                    "time": 164.04559124999633,
                    "velocity": 0.49606299212598426,
                    "duration": 0.2045456250000086
                },
                {
                    "name": "B1",
                    "midi": 35,
                    "time": 164.25013687499634,
                    "velocity": 0.47244094488188976,
                    "duration": 0.272727500000002
                },
                {
                    "name": "F#2",
                    "midi": 42,
                    "time": 164.28422781249634,
                    "velocity": 0.49606299212598426,
                    "duration": 0.2386365625000053
                },
                {
                    "name": "B2",
                    "midi": 47,
                    "time": 164.31831874999634,
                    "velocity": 0.5196850393700787,
                    "duration": 0.2045456250000086
                },
                {
                    "name": "B1",
                    "midi": 35,
                    "time": 164.52286437499635,
                    "velocity": 0.49606299212598426,
                    "duration": 0.272727500000002
                },
                {
                    "name": "F#2",
                    "midi": 42,
                    "time": 164.55695531249634,
                    "velocity": 0.5118110236220472,
                    "duration": 0.2386365625000053
                },
                {
                    "name": "B2",
                    "midi": 47,
                    "time": 164.59104624999634,
                    "velocity": 0.5433070866141733,
                    "duration": 0.2045456250000086
                },
                {
                    "name": "B1",
                    "midi": 35,
                    "time": 164.79559187499635,
                    "velocity": 0.5039370078740157,
                    "duration": 0.272727500000002
                },
                {
                    "name": "F#2",
                    "midi": 42,
                    "time": 164.82968281249634,
                    "velocity": 0.5354330708661418,
                    "duration": 0.2386365625000053
                },
                {
                    "name": "B2",
                    "midi": 47,
                    "time": 164.86377374999634,
                    "velocity": 0.5590551181102362,
                    "duration": 0.2045456250000086
                },
                {
                    "name": "B1",
                    "midi": 35,
                    "time": 165.06831937499635,
                    "velocity": 0.5196850393700787,
                    "duration": 0.3409093749999954
                },
                {
                    "name": "F#2",
                    "midi": 42,
                    "time": 165.10241031249635,
                    "velocity": 0.5511811023622047,
                    "duration": 0.3068184374999987
                },
                {
                    "name": "B2",
                    "midi": 47,
                    "time": 165.13650124999634,
                    "velocity": 0.5748031496062992,
                    "duration": 0.272727500000002
                },
                {
                    "name": "E1",
                    "midi": 28,
                    "time": 165.40922874999634,
                    "velocity": 0.4645669291338583,
                    "duration": 0.13636375000001522
                },
                {
                    "name": "E2",
                    "midi": 40,
                    "time": 165.40922874999634,
                    "velocity": 0.5511811023622047,
                    "duration": 0.13636375000001522
                },
                {
                    "name": "E2",
                    "midi": 40,
                    "time": 165.88650187499636,
                    "velocity": 0.6299212598425197,
                    "duration": 0.5113640625000073
                },
                {
                    "name": "B2",
                    "midi": 47,
                    "time": 165.92059281249635,
                    "velocity": 0.6299212598425197,
                    "duration": 0.4772731250000106
                },
                {
                    "name": "E3",
                    "midi": 52,
                    "time": 165.95468374999635,
                    "velocity": 0.6299212598425197,
                    "duration": 0.4431821875000139
                },
                {
                    "name": "E2",
                    "midi": 40,
                    "time": 166.43195687499636,
                    "velocity": 0.6141732283464567,
                    "duration": 0.5113640625000073
                },
                {
                    "name": "B2",
                    "midi": 47,
                    "time": 166.46604781249636,
                    "velocity": 0.6062992125984252,
                    "duration": 0.4772731250000106
                },
                {
                    "name": "E3",
                    "midi": 52,
                    "time": 166.50013874999635,
                    "velocity": 0.6062992125984252,
                    "duration": 0.4431821875000139
                },
                {
                    "name": "E2",
                    "midi": 40,
                    "time": 166.97741187499636,
                    "velocity": 0.5905511811023622,
                    "duration": 0.5113640625000073
                },
                {
                    "name": "B2",
                    "midi": 47,
                    "time": 167.01150281249636,
                    "velocity": 0.5905511811023622,
                    "duration": 0.4772731250000106
                },
                {
                    "name": "E3",
                    "midi": 52,
                    "time": 167.04559374999636,
                    "velocity": 0.5826771653543307,
                    "duration": 0.4431821875000139
                },
                {
                    "name": "E2",
                    "midi": 40,
                    "time": 167.52286687499637,
                    "velocity": 0.5669291338582677,
                    "duration": 0.5113640625000073
                },
                {
                    "name": "B2",
                    "midi": 47,
                    "time": 167.55695781249636,
                    "velocity": 0.5669291338582677,
                    "duration": 0.4772731250000106
                },
                {
                    "name": "E3",
                    "midi": 52,
                    "time": 167.59104874999636,
                    "velocity": 0.5669291338582677,
                    "duration": 0.4431821875000139
                },
                {
                    "name": "E2",
                    "midi": 40,
                    "time": 168.06832187499637,
                    "velocity": 0.5433070866141733,
                    "duration": 0.6136368749999974
                },
                {
                    "name": "B2",
                    "midi": 47,
                    "time": 168.10241281249637,
                    "velocity": 0.5433070866141733,
                    "duration": 0.5795459375000007
                },
                {
                    "name": "E3",
                    "midi": 52,
                    "time": 168.13650374999636,
                    "velocity": 0.5433070866141733,
                    "duration": 0.545455000000004
                },
                {
                    "name": "E2",
                    "midi": 40,
                    "time": 168.68195874999637,
                    "velocity": 0.5196850393700787,
                    "duration": 0.0681818749999934
                },
                {
                    "name": "B2",
                    "midi": 47,
                    "time": 168.68195874999637,
                    "velocity": 0.5196850393700787,
                    "duration": 0.0681818749999934
                },
                {
                    "name": "E3",
                    "midi": 52,
                    "time": 168.68195874999637,
                    "velocity": 0.5196850393700787,
                    "duration": 0.0681818749999934
                },
                {
                    "name": "D#2",
                    "midi": 39,
                    "time": 168.81832249999636,
                    "velocity": 0.1889763779527559,
                    "duration": 0.0681818749999934
                },
                {
                    "name": "D#3",
                    "midi": 51,
                    "time": 168.81832249999636,
                    "velocity": 0.2204724409448819,
                    "duration": 0.0681818749999934
                },
                {
                    "name": "C#2",
                    "midi": 37,
                    "time": 168.95468624999634,
                    "velocity": 0.1889763779527559,
                    "duration": 0.0681818749999934
                },
                {
                    "name": "C#3",
                    "midi": 49,
                    "time": 168.95468624999634,
                    "velocity": 0.2204724409448819,
                    "duration": 0.0681818749999934
                },
                {
                    "name": "B1",
                    "midi": 35,
                    "time": 169.09104999999633,
                    "velocity": 0.1889763779527559,
                    "duration": 0.0681818749999934
                },
                {
                    "name": "B2",
                    "midi": 47,
                    "time": 169.09104999999633,
                    "velocity": 0.2204724409448819,
                    "duration": 0.0681818749999934
                },
                {
                    "name": "E2",
                    "midi": 40,
                    "time": 169.22741374999632,
                    "velocity": 0.2204724409448819,
                    "duration": 0.0681818749999934
                },
                {
                    "name": "E3",
                    "midi": 52,
                    "time": 169.22741374999632,
                    "velocity": 0.2755905511811024,
                    "duration": 0.0681818749999934
                },
                {
                    "name": "D#2",
                    "midi": 39,
                    "time": 169.3637774999963,
                    "velocity": 0.2125984251968504,
                    "duration": 0.0681818749999934
                },
                {
                    "name": "D#3",
                    "midi": 51,
                    "time": 169.3637774999963,
                    "velocity": 0.25196850393700787,
                    "duration": 0.0681818749999934
                },
                {
                    "name": "C#2",
                    "midi": 37,
                    "time": 169.5001412499963,
                    "velocity": 0.1889763779527559,
                    "duration": 0.0681818749999934
                },
                {
                    "name": "C#3",
                    "midi": 49,
                    "time": 169.5001412499963,
                    "velocity": 0.2204724409448819,
                    "duration": 0.0681818749999934
                },
                {
                    "name": "B1",
                    "midi": 35,
                    "time": 169.63650499999628,
                    "velocity": 0.1889763779527559,
                    "duration": 0.0681818749999934
                },
                {
                    "name": "B2",
                    "midi": 47,
                    "time": 169.63650499999628,
                    "velocity": 0.2204724409448819,
                    "duration": 0.0681818749999934
                },
                {
                    "name": "E2",
                    "midi": 40,
                    "time": 169.77286874999626,
                    "velocity": 0.2204724409448819,
                    "duration": 0.0681818749999934
                },
                {
                    "name": "E3",
                    "midi": 52,
                    "time": 169.77286874999626,
                    "velocity": 0.2755905511811024,
                    "duration": 0.0681818749999934
                },
                {
                    "name": "D#2",
                    "midi": 39,
                    "time": 169.90923249999625,
                    "velocity": 0.1889763779527559,
                    "duration": 0.0681818749999934
                },
                {
                    "name": "D#3",
                    "midi": 51,
                    "time": 169.90923249999625,
                    "velocity": 0.2204724409448819,
                    "duration": 0.0681818749999934
                },
                {
                    "name": "C#2",
                    "midi": 37,
                    "time": 170.04559624999624,
                    "velocity": 0.1889763779527559,
                    "duration": 0.0681818749999934
                },
                {
                    "name": "C#3",
                    "midi": 49,
                    "time": 170.04559624999624,
                    "velocity": 0.2204724409448819,
                    "duration": 0.0681818749999934
                },
                {
                    "name": "B1",
                    "midi": 35,
                    "time": 170.18195999999622,
                    "velocity": 0.1889763779527559,
                    "duration": 0.0681818749999934
                },
                {
                    "name": "B2",
                    "midi": 47,
                    "time": 170.18195999999622,
                    "velocity": 0.2204724409448819,
                    "duration": 0.0681818749999934
                },
                {
                    "name": "E2",
                    "midi": 40,
                    "time": 170.3183237499962,
                    "velocity": 0.2283464566929134,
                    "duration": 0.0681818749999934
                },
                {
                    "name": "E3",
                    "midi": 52,
                    "time": 170.3183237499962,
                    "velocity": 0.2755905511811024,
                    "duration": 0.0681818749999934
                },
                {
                    "name": "D#2",
                    "midi": 39,
                    "time": 170.4546874999962,
                    "velocity": 0.1889763779527559,
                    "duration": 0.0681818749999934
                },
                {
                    "name": "D#3",
                    "midi": 51,
                    "time": 170.4546874999962,
                    "velocity": 0.2204724409448819,
                    "duration": 0.0681818749999934
                },
                {
                    "name": "C#2",
                    "midi": 37,
                    "time": 170.59105124999618,
                    "velocity": 0.1889763779527559,
                    "duration": 0.0681818749999934
                },
                {
                    "name": "C#3",
                    "midi": 49,
                    "time": 170.59105124999618,
                    "velocity": 0.2204724409448819,
                    "duration": 0.0681818749999934
                },
                {
                    "name": "B1",
                    "midi": 35,
                    "time": 170.72741499999617,
                    "velocity": 0.1889763779527559,
                    "duration": 0.0681818749999934
                },
                {
                    "name": "B2",
                    "midi": 47,
                    "time": 170.72741499999617,
                    "velocity": 0.2204724409448819,
                    "duration": 0.0681818749999934
                },
                {
                    "name": "E2",
                    "midi": 40,
                    "time": 170.86377874999616,
                    "velocity": 0.2283464566929134,
                    "duration": 0.0681818749999934
                },
                {
                    "name": "E3",
                    "midi": 52,
                    "time": 170.86377874999616,
                    "velocity": 0.2677165354330709,
                    "duration": 0.0681818749999934
                },
                {
                    "name": "D#2",
                    "midi": 39,
                    "time": 171.00014249999614,
                    "velocity": 0.2047244094488189,
                    "duration": 0.0681818749999934
                },
                {
                    "name": "D#3",
                    "midi": 51,
                    "time": 171.00014249999614,
                    "velocity": 0.25196850393700787,
                    "duration": 0.0681818749999934
                },
                {
                    "name": "C#2",
                    "midi": 37,
                    "time": 171.13650624999613,
                    "velocity": 0.1889763779527559,
                    "duration": 0.0681818749999934
                },
                {
                    "name": "C#3",
                    "midi": 49,
                    "time": 171.13650624999613,
                    "velocity": 0.2283464566929134,
                    "duration": 0.0681818749999934
                },
                {
                    "name": "B1",
                    "midi": 35,
                    "time": 171.27286999999612,
                    "velocity": 0.1889763779527559,
                    "duration": 0.0681818749999934
                },
                {
                    "name": "B2",
                    "midi": 47,
                    "time": 171.27286999999612,
                    "velocity": 0.2283464566929134,
                    "duration": 0.0681818749999934
                },
                {
                    "name": "E2",
                    "midi": 40,
                    "time": 171.4092337499961,
                    "velocity": 0.2283464566929134,
                    "duration": 0.0681818749999934
                },
                {
                    "name": "E3",
                    "midi": 52,
                    "time": 171.4092337499961,
                    "velocity": 0.2755905511811024,
                    "duration": 0.0681818749999934
                },
                {
                    "name": "D#2",
                    "midi": 39,
                    "time": 171.5455974999961,
                    "velocity": 0.1889763779527559,
                    "duration": 0.0681818749999934
                },
                {
                    "name": "D#3",
                    "midi": 51,
                    "time": 171.5455974999961,
                    "velocity": 0.2204724409448819,
                    "duration": 0.0681818749999934
                },
                {
                    "name": "C#2",
                    "midi": 37,
                    "time": 171.68196124999608,
                    "velocity": 0.1889763779527559,
                    "duration": 0.0681818749999934
                },
                {
                    "name": "C#3",
                    "midi": 49,
                    "time": 171.68196124999608,
                    "velocity": 0.2204724409448819,
                    "duration": 0.0681818749999934
                },
                {
                    "name": "B1",
                    "midi": 35,
                    "time": 171.81832499999607,
                    "velocity": 0.1889763779527559,
                    "duration": 0.0681818749999934
                },
                {
                    "name": "B2",
                    "midi": 47,
                    "time": 171.81832499999607,
                    "velocity": 0.2204724409448819,
                    "duration": 0.0681818749999934
                },
                {
                    "name": "E2",
                    "midi": 40,
                    "time": 171.95468874999605,
                    "velocity": 0.2440944881889764,
                    "duration": 0.0681818749999934
                },
                {
                    "name": "E3",
                    "midi": 52,
                    "time": 171.95468874999605,
                    "velocity": 0.28346456692913385,
                    "duration": 0.0681818749999934
                },
                {
                    "name": "D#2",
                    "midi": 39,
                    "time": 172.09105249999604,
                    "velocity": 0.1889763779527559,
                    "duration": 0.0681818749999934
                },
                {
                    "name": "D#3",
                    "midi": 51,
                    "time": 172.09105249999604,
                    "velocity": 0.2283464566929134,
                    "duration": 0.0681818749999934
                },
                {
                    "name": "C#2",
                    "midi": 37,
                    "time": 172.22741624999603,
                    "velocity": 0.1968503937007874,
                    "duration": 0.0681818749999934
                },
                {
                    "name": "C#3",
                    "midi": 49,
                    "time": 172.22741624999603,
                    "velocity": 0.2283464566929134,
                    "duration": 0.0681818749999934
                },
                {
                    "name": "B1",
                    "midi": 35,
                    "time": 172.363779999996,
                    "velocity": 0.1968503937007874,
                    "duration": 0.0681818749999934
                },
                {
                    "name": "B2",
                    "midi": 47,
                    "time": 172.363779999996,
                    "velocity": 0.2283464566929134,
                    "duration": 0.0681818749999934
                },
                {
                    "name": "E2",
                    "midi": 40,
                    "time": 172.500143749996,
                    "velocity": 0.23622047244094488,
                    "duration": 0.0681818749999934
                },
                {
                    "name": "E3",
                    "midi": 52,
                    "time": 172.500143749996,
                    "velocity": 0.28346456692913385,
                    "duration": 0.0681818749999934
                },
                {
                    "name": "D#2",
                    "midi": 39,
                    "time": 172.636507499996,
                    "velocity": 0.2204724409448819,
                    "duration": 0.0681818749999934
                },
                {
                    "name": "D#3",
                    "midi": 51,
                    "time": 172.636507499996,
                    "velocity": 0.2677165354330709,
                    "duration": 0.0681818749999934
                },
                {
                    "name": "C#2",
                    "midi": 37,
                    "time": 172.77287124999597,
                    "velocity": 0.1968503937007874,
                    "duration": 0.0681818749999934
                },
                {
                    "name": "C#3",
                    "midi": 49,
                    "time": 172.77287124999597,
                    "velocity": 0.23622047244094488,
                    "duration": 0.0681818749999934
                },
                {
                    "name": "B1",
                    "midi": 35,
                    "time": 172.90923499999596,
                    "velocity": 0.1968503937007874,
                    "duration": 0.0681818749999934
                },
                {
                    "name": "B2",
                    "midi": 47,
                    "time": 172.90923499999596,
                    "velocity": 0.23622047244094488,
                    "duration": 0.0681818749999934
                },
                {
                    "name": "E2",
                    "midi": 40,
                    "time": 173.04559874999595,
                    "velocity": 0.23622047244094488,
                    "duration": 0.0681818749999934
                },
                {
                    "name": "E3",
                    "midi": 52,
                    "time": 173.04559874999595,
                    "velocity": 0.28346456692913385,
                    "duration": 0.0681818749999934
                },
                {
                    "name": "D#2",
                    "midi": 39,
                    "time": 173.18196249999593,
                    "velocity": 0.1968503937007874,
                    "duration": 0.0681818749999934
                },
                {
                    "name": "D#3",
                    "midi": 51,
                    "time": 173.18196249999593,
                    "velocity": 0.2283464566929134,
                    "duration": 0.0681818749999934
                },
                {
                    "name": "C#2",
                    "midi": 37,
                    "time": 173.31832624999592,
                    "velocity": 0.1968503937007874,
                    "duration": 0.0681818749999934
                },
                {
                    "name": "C#3",
                    "midi": 49,
                    "time": 173.31832624999592,
                    "velocity": 0.2283464566929134,
                    "duration": 0.0681818749999934
                },
                {
                    "name": "B1",
                    "midi": 35,
                    "time": 173.4546899999959,
                    "velocity": 0.2047244094488189,
                    "duration": 0.0681818749999934
                },
                {
                    "name": "B2",
                    "midi": 47,
                    "time": 173.4546899999959,
                    "velocity": 0.23622047244094488,
                    "duration": 0.0681818749999934
                },
                {
                    "name": "E2",
                    "midi": 40,
                    "time": 173.5910537499959,
                    "velocity": 0.2440944881889764,
                    "duration": 0.0681818749999934
                },
                {
                    "name": "E3",
                    "midi": 52,
                    "time": 173.5910537499959,
                    "velocity": 0.28346456692913385,
                    "duration": 0.0681818749999934
                },
                {
                    "name": "D#2",
                    "midi": 39,
                    "time": 173.72741749999588,
                    "velocity": 0.2047244094488189,
                    "duration": 0.0681818749999934
                },
                {
                    "name": "D#3",
                    "midi": 51,
                    "time": 173.72741749999588,
                    "velocity": 0.23622047244094488,
                    "duration": 0.0681818749999934
                },
                {
                    "name": "C#2",
                    "midi": 37,
                    "time": 173.86378124999587,
                    "velocity": 0.2047244094488189,
                    "duration": 0.0681818749999934
                },
                {
                    "name": "C#3",
                    "midi": 49,
                    "time": 173.86378124999587,
                    "velocity": 0.23622047244094488,
                    "duration": 0.0681818749999934
                },
                {
                    "name": "B1",
                    "midi": 35,
                    "time": 174.00014499999585,
                    "velocity": 0.2047244094488189,
                    "duration": 0.0681818749999934
                },
                {
                    "name": "B2",
                    "midi": 47,
                    "time": 174.00014499999585,
                    "velocity": 0.23622047244094488,
                    "duration": 0.0681818749999934
                },
                {
                    "name": "E2",
                    "midi": 40,
                    "time": 174.13650874999584,
                    "velocity": 0.2440944881889764,
                    "duration": 0.0681818749999934
                },
                {
                    "name": "E3",
                    "midi": 52,
                    "time": 174.13650874999584,
                    "velocity": 0.28346456692913385,
                    "duration": 0.0681818749999934
                },
                {
                    "name": "D#2",
                    "midi": 39,
                    "time": 174.27287249999583,
                    "velocity": 0.2204724409448819,
                    "duration": 0.0681818749999934
                },
                {
                    "name": "D#3",
                    "midi": 51,
                    "time": 174.27287249999583,
                    "velocity": 0.25984251968503935,
                    "duration": 0.0681818749999934
                },
                {
                    "name": "C#2",
                    "midi": 37,
                    "time": 174.4092362499958,
                    "velocity": 0.2047244094488189,
                    "duration": 0.0681818749999934
                },
                {
                    "name": "C#3",
                    "midi": 49,
                    "time": 174.4092362499958,
                    "velocity": 0.2440944881889764,
                    "duration": 0.0681818749999934
                },
                {
                    "name": "B1",
                    "midi": 35,
                    "time": 174.5455999999958,
                    "velocity": 0.2047244094488189,
                    "duration": 0.0681818749999934
                },
                {
                    "name": "B2",
                    "midi": 47,
                    "time": 174.5455999999958,
                    "velocity": 0.2440944881889764,
                    "duration": 0.0681818749999934
                },
                {
                    "name": "E2",
                    "midi": 40,
                    "time": 174.6819637499958,
                    "velocity": 0.2440944881889764,
                    "duration": 0.0681818749999934
                },
                {
                    "name": "E3",
                    "midi": 52,
                    "time": 174.6819637499958,
                    "velocity": 0.2992125984251969,
                    "duration": 0.0681818749999934
                },
                {
                    "name": "D#2",
                    "midi": 39,
                    "time": 174.81832749999577,
                    "velocity": 0.2047244094488189,
                    "duration": 0.0681818749999934
                },
                {
                    "name": "D#3",
                    "midi": 51,
                    "time": 174.81832749999577,
                    "velocity": 0.23622047244094488,
                    "duration": 0.0681818749999934
                },
                {
                    "name": "C#2",
                    "midi": 37,
                    "time": 174.95469124999576,
                    "velocity": 0.2047244094488189,
                    "duration": 0.0681818749999934
                },
                {
                    "name": "C#3",
                    "midi": 49,
                    "time": 174.95469124999576,
                    "velocity": 0.23622047244094488,
                    "duration": 0.0681818749999934
                },
                {
                    "name": "B1",
                    "midi": 35,
                    "time": 175.09105499999575,
                    "velocity": 0.2047244094488189,
                    "duration": 0.0681818749999934
                },
                {
                    "name": "B2",
                    "midi": 47,
                    "time": 175.09105499999575,
                    "velocity": 0.23622047244094488,
                    "duration": 0.0681818749999934
                },
                {
                    "name": "E2",
                    "midi": 40,
                    "time": 175.22741874999573,
                    "velocity": 0.2440944881889764,
                    "duration": 0.0681818749999934
                },
                {
                    "name": "E3",
                    "midi": 52,
                    "time": 175.22741874999573,
                    "velocity": 0.2992125984251969,
                    "duration": 0.0681818749999934
                },
                {
                    "name": "D#2",
                    "midi": 39,
                    "time": 175.36378249999572,
                    "velocity": 0.1968503937007874,
                    "duration": 0.0681818749999934
                },
                {
                    "name": "D#3",
                    "midi": 51,
                    "time": 175.36378249999572,
                    "velocity": 0.23622047244094488,
                    "duration": 0.0681818749999934
                },
                {
                    "name": "C#2",
                    "midi": 37,
                    "time": 175.5001462499957,
                    "velocity": 0.1968503937007874,
                    "duration": 0.0681818749999934
                },
                {
                    "name": "C#3",
                    "midi": 49,
                    "time": 175.5001462499957,
                    "velocity": 0.23622047244094488,
                    "duration": 0.0681818749999934
                },
                {
                    "name": "B1",
                    "midi": 35,
                    "time": 175.6365099999957,
                    "velocity": 0.1968503937007874,
                    "duration": 0.0681818749999934
                },
                {
                    "name": "B2",
                    "midi": 47,
                    "time": 175.6365099999957,
                    "velocity": 0.23622047244094488,
                    "duration": 0.0681818749999934
                },
                {
                    "name": "E2",
                    "midi": 40,
                    "time": 175.77287374999568,
                    "velocity": 0.2440944881889764,
                    "duration": 0.0681818749999934
                },
                {
                    "name": "E3",
                    "midi": 52,
                    "time": 175.77287374999568,
                    "velocity": 0.2992125984251969,
                    "duration": 0.0681818749999934
                },
                {
                    "name": "D#2",
                    "midi": 39,
                    "time": 175.90923749999567,
                    "velocity": 0.23622047244094488,
                    "duration": 0.0681818749999934
                },
                {
                    "name": "D#3",
                    "midi": 51,
                    "time": 175.90923749999567,
                    "velocity": 0.28346456692913385,
                    "duration": 0.0681818749999934
                },
                {
                    "name": "C#2",
                    "midi": 37,
                    "time": 176.04560124999566,
                    "velocity": 0.2047244094488189,
                    "duration": 0.0681818749999934
                },
                {
                    "name": "C#3",
                    "midi": 49,
                    "time": 176.04560124999566,
                    "velocity": 0.25984251968503935,
                    "duration": 0.0681818749999934
                },
                {
                    "name": "B1",
                    "midi": 35,
                    "time": 176.18196499999564,
                    "velocity": 0.2047244094488189,
                    "duration": 0.0681818749999934
                },
                {
                    "name": "B2",
                    "midi": 47,
                    "time": 176.18196499999564,
                    "velocity": 0.25984251968503935,
                    "duration": 0.0681818749999934
                },
                {
                    "name": "E2",
                    "midi": 40,
                    "time": 176.31832874999563,
                    "velocity": 0.25984251968503935,
                    "duration": 0.0681818749999934
                },
                {
                    "name": "E3",
                    "midi": 52,
                    "time": 176.31832874999563,
                    "velocity": 0.31496062992125984,
                    "duration": 0.0681818749999934
                },
                {
                    "name": "D#2",
                    "midi": 39,
                    "time": 176.45469249999562,
                    "velocity": 0.2125984251968504,
                    "duration": 0.0681818749999934
                },
                {
                    "name": "D#3",
                    "midi": 51,
                    "time": 176.45469249999562,
                    "velocity": 0.25196850393700787,
                    "duration": 0.0681818749999934
                },
                {
                    "name": "C#2",
                    "midi": 37,
                    "time": 176.5910562499956,
                    "velocity": 0.2125984251968504,
                    "duration": 0.0681818749999934
                },
                {
                    "name": "C#3",
                    "midi": 49,
                    "time": 176.5910562499956,
                    "velocity": 0.25984251968503935,
                    "duration": 0.0681818749999934
                },
                {
                    "name": "B1",
                    "midi": 35,
                    "time": 176.7274199999956,
                    "velocity": 0.2204724409448819,
                    "duration": 0.0681818749999934
                },
                {
                    "name": "B2",
                    "midi": 47,
                    "time": 176.7274199999956,
                    "velocity": 0.25984251968503935,
                    "duration": 0.0681818749999934
                },
                {
                    "name": "E2",
                    "midi": 40,
                    "time": 176.86378374999558,
                    "velocity": 0.2755905511811024,
                    "duration": 0.0681818749999934
                },
                {
                    "name": "E3",
                    "midi": 52,
                    "time": 176.86378374999558,
                    "velocity": 0.33070866141732286,
                    "duration": 0.0681818749999934
                },
                {
                    "name": "D#2",
                    "midi": 39,
                    "time": 177.00014749999556,
                    "velocity": 0.2204724409448819,
                    "duration": 0.0681818749999934
                },
                {
                    "name": "D#3",
                    "midi": 51,
                    "time": 177.00014749999556,
                    "velocity": 0.2677165354330709,
                    "duration": 0.0681818749999934
                },
                {
                    "name": "C#2",
                    "midi": 37,
                    "time": 177.13651124999555,
                    "velocity": 0.2204724409448819,
                    "duration": 0.0681818749999934
                },
                {
                    "name": "C#3",
                    "midi": 49,
                    "time": 177.13651124999555,
                    "velocity": 0.2677165354330709,
                    "duration": 0.0681818749999934
                },
                {
                    "name": "B1",
                    "midi": 35,
                    "time": 177.27287499999554,
                    "velocity": 0.2204724409448819,
                    "duration": 0.0681818749999934
                },
                {
                    "name": "B2",
                    "midi": 47,
                    "time": 177.27287499999554,
                    "velocity": 0.2677165354330709,
                    "duration": 0.0681818749999934
                },
                {
                    "name": "E2",
                    "midi": 40,
                    "time": 177.40923874999552,
                    "velocity": 0.2755905511811024,
                    "duration": 0.0681818749999934
                },
                {
                    "name": "E3",
                    "midi": 52,
                    "time": 177.40923874999552,
                    "velocity": 0.3228346456692913,
                    "duration": 0.0681818749999934
                },
                {
                    "name": "D#2",
                    "midi": 39,
                    "time": 177.5456024999955,
                    "velocity": 0.25196850393700787,
                    "duration": 0.0681818749999934
                },
                {
                    "name": "D#3",
                    "midi": 51,
                    "time": 177.5456024999955,
                    "velocity": 0.30708661417322836,
                    "duration": 0.0681818749999934
                },
                {
                    "name": "C#2",
                    "midi": 37,
                    "time": 177.6819662499955,
                    "velocity": 0.2204724409448819,
                    "duration": 0.0681818749999934
                },
                {
                    "name": "C#3",
                    "midi": 49,
                    "time": 177.6819662499955,
                    "velocity": 0.2755905511811024,
                    "duration": 0.0681818749999934
                },
                {
                    "name": "B1",
                    "midi": 35,
                    "time": 177.81832999999548,
                    "velocity": 0.2204724409448819,
                    "duration": 0.0681818749999934
                },
                {
                    "name": "B2",
                    "midi": 47,
                    "time": 177.81832999999548,
                    "velocity": 0.2755905511811024,
                    "duration": 0.0681818749999934
                },
                {
                    "name": "E2",
                    "midi": 40,
                    "time": 177.95469374999547,
                    "velocity": 0.28346456692913385,
                    "duration": 0.0681818749999934
                },
                {
                    "name": "E3",
                    "midi": 52,
                    "time": 177.95469374999547,
                    "velocity": 0.33070866141732286,
                    "duration": 0.0681818749999934
                },
                {
                    "name": "D#2",
                    "midi": 39,
                    "time": 178.09105749999546,
                    "velocity": 0.2283464566929134,
                    "duration": 0.0681818749999934
                },
                {
                    "name": "D#3",
                    "midi": 51,
                    "time": 178.09105749999546,
                    "velocity": 0.2677165354330709,
                    "duration": 0.0681818749999934
                },
                {
                    "name": "C#2",
                    "midi": 37,
                    "time": 178.22742124999544,
                    "velocity": 0.2283464566929134,
                    "duration": 0.0681818749999934
                },
                {
                    "name": "C#3",
                    "midi": 49,
                    "time": 178.22742124999544,
                    "velocity": 0.2677165354330709,
                    "duration": 0.0681818749999934
                },
                {
                    "name": "B1",
                    "midi": 35,
                    "time": 178.36378499999543,
                    "velocity": 0.2283464566929134,
                    "duration": 0.0681818749999934
                },
                {
                    "name": "B2",
                    "midi": 47,
                    "time": 178.36378499999543,
                    "velocity": 0.2677165354330709,
                    "duration": 0.0681818749999934
                },
                {
                    "name": "E2",
                    "midi": 40,
                    "time": 178.50014874999542,
                    "velocity": 0.28346456692913385,
                    "duration": 0.0681818749999934
                },
                {
                    "name": "E3",
                    "midi": 52,
                    "time": 178.50014874999542,
                    "velocity": 0.33070866141732286,
                    "duration": 0.0681818749999934
                },
                {
                    "name": "D#2",
                    "midi": 39,
                    "time": 178.6365124999954,
                    "velocity": 0.2283464566929134,
                    "duration": 0.0681818749999934
                },
                {
                    "name": "D#3",
                    "midi": 51,
                    "time": 178.6365124999954,
                    "velocity": 0.2755905511811024,
                    "duration": 0.0681818749999934
                },
                {
                    "name": "C#2",
                    "midi": 37,
                    "time": 178.7728762499954,
                    "velocity": 0.2283464566929134,
                    "duration": 0.0681818749999934
                },
                {
                    "name": "C#3",
                    "midi": 49,
                    "time": 178.7728762499954,
                    "velocity": 0.2755905511811024,
                    "duration": 0.0681818749999934
                },
                {
                    "name": "B1",
                    "midi": 35,
                    "time": 178.90923999999538,
                    "velocity": 0.2283464566929134,
                    "duration": 0.0681818749999934
                },
                {
                    "name": "B2",
                    "midi": 47,
                    "time": 178.90923999999538,
                    "velocity": 0.2755905511811024,
                    "duration": 0.0681818749999934
                },
                {
                    "name": "E2",
                    "midi": 40,
                    "time": 179.04560374999537,
                    "velocity": 0.28346456692913385,
                    "duration": 0.0681818749999934
                },
                {
                    "name": "E3",
                    "midi": 52,
                    "time": 179.04560374999537,
                    "velocity": 0.33070866141732286,
                    "duration": 0.0681818749999934
                },
                {
                    "name": "D#2",
                    "midi": 39,
                    "time": 179.18196749999535,
                    "velocity": 0.25984251968503935,
                    "duration": 0.0681818749999934
                },
                {
                    "name": "D#3",
                    "midi": 51,
                    "time": 179.18196749999535,
                    "velocity": 0.30708661417322836,
                    "duration": 0.0681818749999934
                },
                {
                    "name": "C#2",
                    "midi": 37,
                    "time": 179.31833124999534,
                    "velocity": 0.2283464566929134,
                    "duration": 0.0681818749999934
                },
                {
                    "name": "C#3",
                    "midi": 49,
                    "time": 179.31833124999534,
                    "velocity": 0.28346456692913385,
                    "duration": 0.0681818749999934
                },
                {
                    "name": "B1",
                    "midi": 35,
                    "time": 179.45469499999533,
                    "velocity": 0.2283464566929134,
                    "duration": 0.0681818749999934
                },
                {
                    "name": "B2",
                    "midi": 47,
                    "time": 179.45469499999533,
                    "velocity": 0.28346456692913385,
                    "duration": 0.0681818749999934
                },
                {
                    "name": "E2",
                    "midi": 40,
                    "time": 179.5910587499953,
                    "velocity": 0.28346456692913385,
                    "duration": 0.0681818749999934
                },
                {
                    "name": "E3",
                    "midi": 52,
                    "time": 179.5910587499953,
                    "velocity": 0.33070866141732286,
                    "duration": 0.0681818749999934
                },
                {
                    "name": "D#2",
                    "midi": 39,
                    "time": 179.7274224999953,
                    "velocity": 0.2283464566929134,
                    "duration": 0.0681818749999934
                },
                {
                    "name": "D#3",
                    "midi": 51,
                    "time": 179.7274224999953,
                    "velocity": 0.2755905511811024,
                    "duration": 0.0681818749999934
                },
                {
                    "name": "C#2",
                    "midi": 37,
                    "time": 179.8637862499953,
                    "velocity": 0.23622047244094488,
                    "duration": 0.0681818749999934
                },
                {
                    "name": "C#3",
                    "midi": 49,
                    "time": 179.8637862499953,
                    "velocity": 0.2755905511811024,
                    "duration": 0.0681818749999934
                },
                {
                    "name": "B1",
                    "midi": 35,
                    "time": 180.00014999999527,
                    "velocity": 0.23622047244094488,
                    "duration": 0.0681818749999934
                },
                {
                    "name": "B2",
                    "midi": 47,
                    "time": 180.00014999999527,
                    "velocity": 0.2755905511811024,
                    "duration": 0.0681818749999934
                },
                {
                    "name": "E2",
                    "midi": 40,
                    "time": 180.13651374999526,
                    "velocity": 0.28346456692913385,
                    "duration": 0.0681818749999934
                },
                {
                    "name": "E3",
                    "midi": 52,
                    "time": 180.13651374999526,
                    "velocity": 0.33070866141732286,
                    "duration": 0.0681818749999934
                },
                {
                    "name": "D#2",
                    "midi": 39,
                    "time": 180.27287749999525,
                    "velocity": 0.2283464566929134,
                    "duration": 0.0681818749999934
                },
                {
                    "name": "D#3",
                    "midi": 51,
                    "time": 180.27287749999525,
                    "velocity": 0.2755905511811024,
                    "duration": 0.0681818749999934
                },
                {
                    "name": "C#2",
                    "midi": 37,
                    "time": 180.40924124999523,
                    "velocity": 0.2283464566929134,
                    "duration": 0.0681818749999934
                },
                {
                    "name": "C#3",
                    "midi": 49,
                    "time": 180.40924124999523,
                    "velocity": 0.2755905511811024,
                    "duration": 0.0681818749999934
                },
                {
                    "name": "B1",
                    "midi": 35,
                    "time": 180.54560499999522,
                    "velocity": 0.2283464566929134,
                    "duration": 0.0681818749999934
                },
                {
                    "name": "B2",
                    "midi": 47,
                    "time": 180.54560499999522,
                    "velocity": 0.2755905511811024,
                    "duration": 0.0681818749999934
                },
                {
                    "name": "E2",
                    "midi": 40,
                    "time": 180.6819687499952,
                    "velocity": 0.28346456692913385,
                    "duration": 0.0681818749999934
                },
                {
                    "name": "E3",
                    "midi": 52,
                    "time": 180.6819687499952,
                    "velocity": 0.33858267716535434,
                    "duration": 0.0681818749999934
                },
                {
                    "name": "D#2",
                    "midi": 39,
                    "time": 180.8183324999952,
                    "velocity": 0.25984251968503935,
                    "duration": 0.0681818749999934
                },
                {
                    "name": "D#3",
                    "midi": 51,
                    "time": 180.8183324999952,
                    "velocity": 0.30708661417322836,
                    "duration": 0.0681818749999934
                },
                {
                    "name": "C#2",
                    "midi": 37,
                    "time": 180.95469624999518,
                    "velocity": 0.2283464566929134,
                    "duration": 0.0681818749999934
                },
                {
                    "name": "C#3",
                    "midi": 49,
                    "time": 180.95469624999518,
                    "velocity": 0.28346456692913385,
                    "duration": 0.0681818749999934
                },
                {
                    "name": "B1",
                    "midi": 35,
                    "time": 181.09105999999517,
                    "velocity": 0.2283464566929134,
                    "duration": 0.0681818749999934
                },
                {
                    "name": "B2",
                    "midi": 47,
                    "time": 181.09105999999517,
                    "velocity": 0.28346456692913385,
                    "duration": 0.0681818749999934
                },
                {
                    "name": "E2",
                    "midi": 40,
                    "time": 181.22742374999515,
                    "velocity": 0.29133858267716534,
                    "duration": 0.0681818749999934
                },
                {
                    "name": "E3",
                    "midi": 52,
                    "time": 181.22742374999515,
                    "velocity": 0.33858267716535434,
                    "duration": 0.0681818749999934
                },
                {
                    "name": "D#2",
                    "midi": 39,
                    "time": 181.36378749999514,
                    "velocity": 0.23622047244094488,
                    "duration": 0.0681818749999934
                },
                {
                    "name": "D#3",
                    "midi": 51,
                    "time": 181.36378749999514,
                    "velocity": 0.28346456692913385,
                    "duration": 0.0681818749999934
                },
                {
                    "name": "C#2",
                    "midi": 37,
                    "time": 181.50015124999513,
                    "velocity": 0.23622047244094488,
                    "duration": 0.0681818749999934
                },
                {
                    "name": "C#3",
                    "midi": 49,
                    "time": 181.50015124999513,
                    "velocity": 0.28346456692913385,
                    "duration": 0.0681818749999934
                },
                {
                    "name": "B1",
                    "midi": 35,
                    "time": 181.63651499999511,
                    "velocity": 0.23622047244094488,
                    "duration": 0.0681818749999934
                },
                {
                    "name": "B2",
                    "midi": 47,
                    "time": 181.63651499999511,
                    "velocity": 0.28346456692913385,
                    "duration": 0.0681818749999934
                },
                {
                    "name": "E2",
                    "midi": 40,
                    "time": 181.7728787499951,
                    "velocity": 0.29133858267716534,
                    "duration": 0.0681818749999934
                },
                {
                    "name": "E3",
                    "midi": 52,
                    "time": 181.7728787499951,
                    "velocity": 0.33858267716535434,
                    "duration": 0.0681818749999934
                },
                {
                    "name": "D#2",
                    "midi": 39,
                    "time": 181.9092424999951,
                    "velocity": 0.23622047244094488,
                    "duration": 0.0681818749999934
                },
                {
                    "name": "D#3",
                    "midi": 51,
                    "time": 181.9092424999951,
                    "velocity": 0.28346456692913385,
                    "duration": 0.0681818749999934
                },
                {
                    "name": "C#2",
                    "midi": 37,
                    "time": 182.04560624999507,
                    "velocity": 0.23622047244094488,
                    "duration": 0.0681818749999934
                },
                {
                    "name": "C#3",
                    "midi": 49,
                    "time": 182.04560624999507,
                    "velocity": 0.28346456692913385,
                    "duration": 0.0681818749999934
                },
                {
                    "name": "B1",
                    "midi": 35,
                    "time": 182.18196999999506,
                    "velocity": 0.23622047244094488,
                    "duration": 0.0681818749999934
                },
                {
                    "name": "B2",
                    "midi": 47,
                    "time": 182.18196999999506,
                    "velocity": 0.28346456692913385,
                    "duration": 0.0681818749999934
                },
                {
                    "name": "E2",
                    "midi": 40,
                    "time": 182.31833374999505,
                    "velocity": 0.28346456692913385,
                    "duration": 0.0681818749999934
                },
                {
                    "name": "E3",
                    "midi": 52,
                    "time": 182.31833374999505,
                    "velocity": 0.33858267716535434,
                    "duration": 0.0681818749999934
                },
                {
                    "name": "D#2",
                    "midi": 39,
                    "time": 182.45469749999504,
                    "velocity": 0.25196850393700787,
                    "duration": 0.0681818749999934
                },
                {
                    "name": "D#3",
                    "midi": 51,
                    "time": 182.45469749999504,
                    "velocity": 0.31496062992125984,
                    "duration": 0.0681818749999934
                },
                {
                    "name": "C#2",
                    "midi": 37,
                    "time": 182.59106124999502,
                    "velocity": 0.23622047244094488,
                    "duration": 0.0681818749999934
                },
                {
                    "name": "C#3",
                    "midi": 49,
                    "time": 182.59106124999502,
                    "velocity": 0.29133858267716534,
                    "duration": 0.0681818749999934
                },
                {
                    "name": "B1",
                    "midi": 35,
                    "time": 182.727424999995,
                    "velocity": 0.23622047244094488,
                    "duration": 0.0681818749999934
                },
                {
                    "name": "B2",
                    "midi": 47,
                    "time": 182.727424999995,
                    "velocity": 0.29133858267716534,
                    "duration": 0.0681818749999934
                },
                {
                    "name": "E2",
                    "midi": 40,
                    "time": 182.863788749995,
                    "velocity": 0.29133858267716534,
                    "duration": 0.0681818749999934
                },
                {
                    "name": "E3",
                    "midi": 52,
                    "time": 182.863788749995,
                    "velocity": 0.3464566929133858,
                    "duration": 0.0681818749999934
                },
                {
                    "name": "D#2",
                    "midi": 39,
                    "time": 183.00015249999498,
                    "velocity": 0.23622047244094488,
                    "duration": 0.0681818749999934
                },
                {
                    "name": "D#3",
                    "midi": 51,
                    "time": 183.00015249999498,
                    "velocity": 0.28346456692913385,
                    "duration": 0.0681818749999934
                },
                {
                    "name": "C#2",
                    "midi": 37,
                    "time": 183.13651624999497,
                    "velocity": 0.23622047244094488,
                    "duration": 0.0681818749999934
                },
                {
                    "name": "C#3",
                    "midi": 49,
                    "time": 183.13651624999497,
                    "velocity": 0.28346456692913385,
                    "duration": 0.0681818749999934
                },
                {
                    "name": "B1",
                    "midi": 35,
                    "time": 183.27287999999496,
                    "velocity": 0.23622047244094488,
                    "duration": 0.0681818749999934
                },
                {
                    "name": "B2",
                    "midi": 47,
                    "time": 183.27287999999496,
                    "velocity": 0.28346456692913385,
                    "duration": 0.0681818749999934
                },
                {
                    "name": "E2",
                    "midi": 40,
                    "time": 183.40924374999494,
                    "velocity": 0.29133858267716534,
                    "duration": 0.0681818749999934
                },
                {
                    "name": "E3",
                    "midi": 52,
                    "time": 183.40924374999494,
                    "velocity": 0.3464566929133858,
                    "duration": 0.0681818749999934
                },
                {
                    "name": "D#2",
                    "midi": 39,
                    "time": 183.54560749999493,
                    "velocity": 0.2283464566929134,
                    "duration": 0.0681818749999934
                },
                {
                    "name": "D#3",
                    "midi": 51,
                    "time": 183.54560749999493,
                    "velocity": 0.28346456692913385,
                    "duration": 0.0681818749999934
                },
                {
                    "name": "C#2",
                    "midi": 37,
                    "time": 183.68197124999492,
                    "velocity": 0.23622047244094488,
                    "duration": 0.0681818749999934
                },
                {
                    "name": "C#3",
                    "midi": 49,
                    "time": 183.68197124999492,
                    "velocity": 0.28346456692913385,
                    "duration": 0.0681818749999934
                },
                {
                    "name": "B1",
                    "midi": 35,
                    "time": 183.8183349999949,
                    "velocity": 0.23622047244094488,
                    "duration": 0.0681818749999934
                },
                {
                    "name": "B2",
                    "midi": 47,
                    "time": 183.8183349999949,
                    "velocity": 0.28346456692913385,
                    "duration": 0.0681818749999934
                },
                {
                    "name": "E2",
                    "midi": 40,
                    "time": 183.9546987499949,
                    "velocity": 0.2992125984251969,
                    "duration": 0.0681818749999934
                },
                {
                    "name": "E3",
                    "midi": 52,
                    "time": 183.9546987499949,
                    "velocity": 0.3464566929133858,
                    "duration": 0.0681818749999934
                },
                {
                    "name": "D#2",
                    "midi": 39,
                    "time": 184.09106249999488,
                    "velocity": 0.2677165354330709,
                    "duration": 0.0681818749999934
                },
                {
                    "name": "D#3",
                    "midi": 51,
                    "time": 184.09106249999488,
                    "velocity": 0.3228346456692913,
                    "duration": 0.0681818749999934
                },
                {
                    "name": "C#2",
                    "midi": 37,
                    "time": 184.22742624999486,
                    "velocity": 0.2440944881889764,
                    "duration": 0.0681818749999934
                },
                {
                    "name": "C#3",
                    "midi": 49,
                    "time": 184.22742624999486,
                    "velocity": 0.2992125984251969,
                    "duration": 0.0681818749999934
                },
                {
                    "name": "B1",
                    "midi": 35,
                    "time": 184.36378999999485,
                    "velocity": 0.2440944881889764,
                    "duration": 0.0681818749999934
                },
                {
                    "name": "B2",
                    "midi": 47,
                    "time": 184.36378999999485,
                    "velocity": 0.2992125984251969,
                    "duration": 0.0681818749999934
                },
                {
                    "name": "E2",
                    "midi": 40,
                    "time": 184.50015374999484,
                    "velocity": 0.2992125984251969,
                    "duration": 0.0681818749999934
                },
                {
                    "name": "E3",
                    "midi": 52,
                    "time": 184.50015374999484,
                    "velocity": 0.3464566929133858,
                    "duration": 0.0681818749999934
                },
                {
                    "name": "D#2",
                    "midi": 39,
                    "time": 184.63651749999482,
                    "velocity": 0.2440944881889764,
                    "duration": 0.0681818749999934
                },
                {
                    "name": "D#3",
                    "midi": 51,
                    "time": 184.63651749999482,
                    "velocity": 0.29133858267716534,
                    "duration": 0.0681818749999934
                },
                {
                    "name": "C#2",
                    "midi": 37,
                    "time": 184.7728812499948,
                    "velocity": 0.2440944881889764,
                    "duration": 0.0681818749999934
                },
                {
                    "name": "C#3",
                    "midi": 49,
                    "time": 184.7728812499948,
                    "velocity": 0.2992125984251969,
                    "duration": 0.0681818749999934
                },
                {
                    "name": "B1",
                    "midi": 35,
                    "time": 184.9092449999948,
                    "velocity": 0.2440944881889764,
                    "duration": 0.0681818749999934
                },
                {
                    "name": "B2",
                    "midi": 47,
                    "time": 184.9092449999948,
                    "velocity": 0.2992125984251969,
                    "duration": 0.0681818749999934
                },
                {
                    "name": "E2",
                    "midi": 40,
                    "time": 185.04560874999478,
                    "velocity": 0.29133858267716534,
                    "duration": 0.0681818749999934
                },
                {
                    "name": "E3",
                    "midi": 52,
                    "time": 185.04560874999478,
                    "velocity": 0.3464566929133858,
                    "duration": 0.0681818749999934
                },
                {
                    "name": "D#2",
                    "midi": 39,
                    "time": 185.18197249999477,
                    "velocity": 0.2440944881889764,
                    "duration": 0.0681818749999934
                },
                {
                    "name": "D#3",
                    "midi": 51,
                    "time": 185.18197249999477,
                    "velocity": 0.29133858267716534,
                    "duration": 0.0681818749999934
                },
                {
                    "name": "C#2",
                    "midi": 37,
                    "time": 185.31833624999476,
                    "velocity": 0.2440944881889764,
                    "duration": 0.0681818749999934
                },
                {
                    "name": "C#3",
                    "midi": 49,
                    "time": 185.31833624999476,
                    "velocity": 0.29133858267716534,
                    "duration": 0.0681818749999934
                },
                {
                    "name": "B1",
                    "midi": 35,
                    "time": 185.45469999999474,
                    "velocity": 0.2440944881889764,
                    "duration": 0.0681818749999934
                },
                {
                    "name": "B2",
                    "midi": 47,
                    "time": 185.45469999999474,
                    "velocity": 0.2992125984251969,
                    "duration": 0.0681818749999934
                },
                {
                    "name": "E2",
                    "midi": 40,
                    "time": 185.59106374999473,
                    "velocity": 0.2992125984251969,
                    "duration": 0.0681818749999934
                },
                {
                    "name": "E3",
                    "midi": 52,
                    "time": 185.59106374999473,
                    "velocity": 0.3543307086614173,
                    "duration": 0.0681818749999934
                },
                {
                    "name": "D#2",
                    "midi": 39,
                    "time": 185.72742749999472,
                    "velocity": 0.28346456692913385,
                    "duration": 0.0681818749999934
                },
                {
                    "name": "D#3",
                    "midi": 51,
                    "time": 185.72742749999472,
                    "velocity": 0.33070866141732286,
                    "duration": 0.0681818749999934
                },
                {
                    "name": "C#2",
                    "midi": 37,
                    "time": 185.8637912499947,
                    "velocity": 0.2440944881889764,
                    "duration": 0.0681818749999934
                },
                {
                    "name": "C#3",
                    "midi": 49,
                    "time": 185.8637912499947,
                    "velocity": 0.2992125984251969,
                    "duration": 0.0681818749999934
                },
                {
                    "name": "B1",
                    "midi": 35,
                    "time": 186.0001549999947,
                    "velocity": 0.2440944881889764,
                    "duration": 0.0681818749999934
                },
                {
                    "name": "B2",
                    "midi": 47,
                    "time": 186.0001549999947,
                    "velocity": 0.30708661417322836,
                    "duration": 0.0681818749999934
                },
                {
                    "name": "E2",
                    "midi": 40,
                    "time": 186.13651874999468,
                    "velocity": 0.31496062992125984,
                    "duration": 0.0681818749999934
                },
                {
                    "name": "E3",
                    "midi": 52,
                    "time": 186.13651874999468,
                    "velocity": 0.3779527559055118,
                    "duration": 0.0681818749999934
                },
                {
                    "name": "D#2",
                    "midi": 39,
                    "time": 186.27288249999467,
                    "velocity": 0.25984251968503935,
                    "duration": 0.0681818749999934
                },
                {
                    "name": "D#3",
                    "midi": 51,
                    "time": 186.27288249999467,
                    "velocity": 0.31496062992125984,
                    "duration": 0.0681818749999934
                },
                {
                    "name": "C#2",
                    "midi": 37,
                    "time": 186.40924624999465,
                    "velocity": 0.25984251968503935,
                    "duration": 0.0681818749999934
                },
                {
                    "name": "C#3",
                    "midi": 49,
                    "time": 186.40924624999465,
                    "velocity": 0.3228346456692913,
                    "duration": 0.0681818749999934
                },
                {
                    "name": "B1",
                    "midi": 35,
                    "time": 186.54560999999464,
                    "velocity": 0.2677165354330709,
                    "duration": 0.0681818749999934
                },
                {
                    "name": "B2",
                    "midi": 47,
                    "time": 186.54560999999464,
                    "velocity": 0.33070866141732286,
                    "duration": 0.0681818749999934
                },
                {
                    "name": "E2",
                    "midi": 40,
                    "time": 186.68197374999463,
                    "velocity": 0.33858267716535434,
                    "duration": 0.0681818749999934
                },
                {
                    "name": "E3",
                    "midi": 52,
                    "time": 186.68197374999463,
                    "velocity": 0.4015748031496063,
                    "duration": 0.0681818749999934
                },
                {
                    "name": "D#2",
                    "midi": 39,
                    "time": 186.8183374999946,
                    "velocity": 0.2677165354330709,
                    "duration": 0.0681818749999934
                },
                {
                    "name": "D#3",
                    "midi": 51,
                    "time": 186.8183374999946,
                    "velocity": 0.33858267716535434,
                    "duration": 0.0681818749999934
                },
                {
                    "name": "C#2",
                    "midi": 37,
                    "time": 186.9547012499946,
                    "velocity": 0.2755905511811024,
                    "duration": 0.0681818749999934
                },
                {
                    "name": "C#3",
                    "midi": 49,
                    "time": 186.9547012499946,
                    "velocity": 0.33858267716535434,
                    "duration": 0.0681818749999934
                },
                {
                    "name": "B1",
                    "midi": 35,
                    "time": 187.0910649999946,
                    "velocity": 0.29133858267716534,
                    "duration": 0.0681818749999934
                },
                {
                    "name": "B2",
                    "midi": 47,
                    "time": 187.0910649999946,
                    "velocity": 0.33858267716535434,
                    "duration": 0.0681818749999934
                },
                {
                    "name": "E2",
                    "midi": 40,
                    "time": 187.22742874999457,
                    "velocity": 0.3464566929133858,
                    "duration": 0.0681818749999934
                },
                {
                    "name": "E3",
                    "midi": 52,
                    "time": 187.22742874999457,
                    "velocity": 0.41732283464566927,
                    "duration": 0.0681818749999934
                },
                {
                    "name": "D#2",
                    "midi": 39,
                    "time": 187.36379249999456,
                    "velocity": 0.3228346456692913,
                    "duration": 0.0681818749999934
                },
                {
                    "name": "D#3",
                    "midi": 51,
                    "time": 187.36379249999456,
                    "velocity": 0.3858267716535433,
                    "duration": 0.0681818749999934
                },
                {
                    "name": "C#2",
                    "midi": 37,
                    "time": 187.50015624999455,
                    "velocity": 0.2992125984251969,
                    "duration": 0.0681818749999934
                },
                {
                    "name": "C#3",
                    "midi": 49,
                    "time": 187.50015624999455,
                    "velocity": 0.36220472440944884,
                    "duration": 0.0681818749999934
                },
                {
                    "name": "B1",
                    "midi": 35,
                    "time": 187.63651999999453,
                    "velocity": 0.2992125984251969,
                    "duration": 0.0681818749999934
                },
                {
                    "name": "B2",
                    "midi": 47,
                    "time": 187.63651999999453,
                    "velocity": 0.36220472440944884,
                    "duration": 0.0681818749999934
                },
                {
                    "name": "E2",
                    "midi": 40,
                    "time": 187.77288374999452,
                    "velocity": 0.3700787401574803,
                    "duration": 0.0681818749999934
                },
                {
                    "name": "E3",
                    "midi": 52,
                    "time": 187.77288374999452,
                    "velocity": 0.44881889763779526,
                    "duration": 0.0681818749999934
                },
                {
                    "name": "D#2",
                    "midi": 39,
                    "time": 187.9092474999945,
                    "velocity": 0.2992125984251969,
                    "duration": 0.0681818749999934
                },
                {
                    "name": "D#3",
                    "midi": 51,
                    "time": 187.9092474999945,
                    "velocity": 0.36220472440944884,
                    "duration": 0.0681818749999934
                },
                {
                    "name": "C#2",
                    "midi": 37,
                    "time": 188.0456112499945,
                    "velocity": 0.31496062992125984,
                    "duration": 0.0681818749999934
                },
                {
                    "name": "C#3",
                    "midi": 49,
                    "time": 188.0456112499945,
                    "velocity": 0.3700787401574803,
                    "duration": 0.0681818749999934
                },
                {
                    "name": "B1",
                    "midi": 35,
                    "time": 188.18197499999448,
                    "velocity": 0.31496062992125984,
                    "duration": 0.0681818749999934
                },
                {
                    "name": "B2",
                    "midi": 47,
                    "time": 188.18197499999448,
                    "velocity": 0.3779527559055118,
                    "duration": 0.0681818749999934
                },
                {
                    "name": "E2",
                    "midi": 40,
                    "time": 188.31833874999447,
                    "velocity": 0.4015748031496063,
                    "duration": 0.0681818749999934
                },
                {
                    "name": "E3",
                    "midi": 52,
                    "time": 188.31833874999447,
                    "velocity": 0.4645669291338583,
                    "duration": 0.0681818749999934
                },
                {
                    "name": "D#2",
                    "midi": 39,
                    "time": 188.45470249999445,
                    "velocity": 0.3228346456692913,
                    "duration": 0.0681818749999934
                },
                {
                    "name": "D#3",
                    "midi": 51,
                    "time": 188.45470249999445,
                    "velocity": 0.3937007874015748,
                    "duration": 0.0681818749999934
                },
                {
                    "name": "C#2",
                    "midi": 37,
                    "time": 188.59106624999444,
                    "velocity": 0.3228346456692913,
                    "duration": 0.0681818749999934
                },
                {
                    "name": "C#3",
                    "midi": 49,
                    "time": 188.59106624999444,
                    "velocity": 0.3937007874015748,
                    "duration": 0.0681818749999934
                },
                {
                    "name": "B1",
                    "midi": 35,
                    "time": 188.72742999999443,
                    "velocity": 0.33070866141732286,
                    "duration": 0.0681818749999934
                },
                {
                    "name": "B2",
                    "midi": 47,
                    "time": 188.72742999999443,
                    "velocity": 0.4015748031496063,
                    "duration": 0.0681818749999934
                },
                {
                    "name": "E2",
                    "midi": 40,
                    "time": 188.86379374999441,
                    "velocity": 0.4094488188976378,
                    "duration": 0.0681818749999934
                },
                {
                    "name": "E3",
                    "midi": 52,
                    "time": 188.86379374999441,
                    "velocity": 0.48031496062992124,
                    "duration": 0.0681818749999934
                },
                {
                    "name": "D#2",
                    "midi": 39,
                    "time": 189.0001574999944,
                    "velocity": 0.3779527559055118,
                    "duration": 0.0681818749999934
                },
                {
                    "name": "D#3",
                    "midi": 51,
                    "time": 189.0001574999944,
                    "velocity": 0.4566929133858268,
                    "duration": 0.0681818749999934
                },
                {
                    "name": "C#2",
                    "midi": 37,
                    "time": 189.1365212499944,
                    "velocity": 0.3464566929133858,
                    "duration": 0.0681818749999934
                },
                {
                    "name": "C#3",
                    "midi": 49,
                    "time": 189.1365212499944,
                    "velocity": 0.4330708661417323,
                    "duration": 0.0681818749999934
                },
                {
                    "name": "B1",
                    "midi": 35,
                    "time": 189.27288499999437,
                    "velocity": 0.3543307086614173,
                    "duration": 0.0681818749999934
                },
                {
                    "name": "B2",
                    "midi": 47,
                    "time": 189.27288499999437,
                    "velocity": 0.4409448818897638,
                    "duration": 0.0681818749999934
                },
                {
                    "name": "E2",
                    "midi": 40,
                    "time": 189.40924874999436,
                    "velocity": 0.4409448818897638,
                    "duration": 0.0681818749999934
                },
                {
                    "name": "E3",
                    "midi": 52,
                    "time": 189.40924874999436,
                    "velocity": 0.5196850393700787,
                    "duration": 0.0681818749999934
                },
                {
                    "name": "D#2",
                    "midi": 39,
                    "time": 189.54561249999435,
                    "velocity": 0.3543307086614173,
                    "duration": 0.0681818749999934
                },
                {
                    "name": "D#3",
                    "midi": 51,
                    "time": 189.54561249999435,
                    "velocity": 0.41732283464566927,
                    "duration": 0.0681818749999934
                },
                {
                    "name": "C#2",
                    "midi": 37,
                    "time": 189.68197624999434,
                    "velocity": 0.36220472440944884,
                    "duration": 0.0681818749999934
                },
                {
                    "name": "C#3",
                    "midi": 49,
                    "time": 189.68197624999434,
                    "velocity": 0.4251968503937008,
                    "duration": 0.0681818749999934
                },
                {
                    "name": "B1",
                    "midi": 35,
                    "time": 189.81833999999432,
                    "velocity": 0.3700787401574803,
                    "duration": 0.0681818749999934
                },
                {
                    "name": "B2",
                    "midi": 47,
                    "time": 189.81833999999432,
                    "velocity": 0.44881889763779526,
                    "duration": 0.0681818749999934
                },
                {
                    "name": "E2",
                    "midi": 40,
                    "time": 189.9547037499943,
                    "velocity": 0.4566929133858268,
                    "duration": 0.0681818749999934
                },
                {
                    "name": "E3",
                    "midi": 52,
                    "time": 189.9547037499943,
                    "velocity": 0.5433070866141733,
                    "duration": 0.0681818749999934
                },
                {
                    "name": "D#2",
                    "midi": 39,
                    "time": 190.0910674999943,
                    "velocity": 0.3700787401574803,
                    "duration": 0.0681818749999934
                },
                {
                    "name": "D#3",
                    "midi": 51,
                    "time": 190.0910674999943,
                    "velocity": 0.44881889763779526,
                    "duration": 0.0681818749999934
                },
                {
                    "name": "C#2",
                    "midi": 37,
                    "time": 190.22743124999428,
                    "velocity": 0.3700787401574803,
                    "duration": 0.0681818749999934
                },
                {
                    "name": "C#3",
                    "midi": 49,
                    "time": 190.22743124999428,
                    "velocity": 0.44881889763779526,
                    "duration": 0.0681818749999934
                },
                {
                    "name": "B1",
                    "midi": 35,
                    "time": 190.36379499999427,
                    "velocity": 0.3779527559055118,
                    "duration": 0.0681818749999934
                },
                {
                    "name": "B2",
                    "midi": 47,
                    "time": 190.36379499999427,
                    "velocity": 0.4566929133858268,
                    "duration": 0.0681818749999934
                },
                {
                    "name": "E2",
                    "midi": 40,
                    "time": 190.50015874999426,
                    "velocity": 0.4881889763779528,
                    "duration": 0.0681818749999934
                },
                {
                    "name": "E3",
                    "midi": 52,
                    "time": 190.50015874999426,
                    "velocity": 0.5748031496062992,
                    "duration": 0.0681818749999934
                },
                {
                    "name": "D#2",
                    "midi": 39,
                    "time": 190.63652249999424,
                    "velocity": 0.4409448818897638,
                    "duration": 0.0681818749999934
                },
                {
                    "name": "D#3",
                    "midi": 51,
                    "time": 190.63652249999424,
                    "velocity": 0.5275590551181102,
                    "duration": 0.0681818749999934
                },
                {
                    "name": "C#2",
                    "midi": 37,
                    "time": 190.77288624999423,
                    "velocity": 0.4094488188976378,
                    "duration": 0.0681818749999934
                },
                {
                    "name": "C#3",
                    "midi": 49,
                    "time": 190.77288624999423,
                    "velocity": 0.49606299212598426,
                    "duration": 0.0681818749999934
                },
                {
                    "name": "B1",
                    "midi": 35,
                    "time": 190.90924999999422,
                    "velocity": 0.4094488188976378,
                    "duration": 0.0681818749999934
                },
                {
                    "name": "B2",
                    "midi": 47,
                    "time": 190.90924999999422,
                    "velocity": 0.49606299212598426,
                    "duration": 0.0681818749999934
                },
                {
                    "name": "E2",
                    "midi": 40,
                    "time": 191.0456137499942,
                    "velocity": 0.5039370078740157,
                    "duration": 0.0681818749999934
                },
                {
                    "name": "E3",
                    "midi": 52,
                    "time": 191.0456137499942,
                    "velocity": 0.6062992125984252,
                    "duration": 0.0681818749999934
                },
                {
                    "name": "D#2",
                    "midi": 39,
                    "time": 191.1819774999942,
                    "velocity": 0.41732283464566927,
                    "duration": 0.0681818749999934
                },
                {
                    "name": "D#3",
                    "midi": 51,
                    "time": 191.1819774999942,
                    "velocity": 0.49606299212598426,
                    "duration": 0.0681818749999934
                },
                {
                    "name": "E2",
                    "midi": 40,
                    "time": 191.31834124999418,
                    "velocity": 0.4251968503937008,
                    "duration": 0.0681818749999934
                },
                {
                    "name": "E3",
                    "midi": 52,
                    "time": 191.31834124999418,
                    "velocity": 0.5039370078740157,
                    "duration": 0.0681818749999934
                },
                {
                    "name": "D2",
                    "midi": 38,
                    "time": 191.45470499999416,
                    "velocity": 0.4330708661417323,
                    "duration": 0.0681818749999934
                },
                {
                    "name": "D3",
                    "midi": 50,
                    "time": 191.45470499999416,
                    "velocity": 0.5118110236220472,
                    "duration": 0.0681818749999934
                },
                {
                    "name": "D#2",
                    "midi": 39,
                    "time": 191.59106874999415,
                    "velocity": 0.5196850393700787,
                    "duration": 0.0681818749999934
                },
                {
                    "name": "D#3",
                    "midi": 51,
                    "time": 191.59106874999415,
                    "velocity": 0.6062992125984252,
                    "duration": 0.0681818749999934
                },
                {
                    "name": "D2",
                    "midi": 38,
                    "time": 191.72743249999414,
                    "velocity": 0.4251968503937008,
                    "duration": 0.0681818749999934
                },
                {
                    "name": "D3",
                    "midi": 50,
                    "time": 191.72743249999414,
                    "velocity": 0.5118110236220472,
                    "duration": 0.0681818749999934
                },
                {
                    "name": "C2",
                    "midi": 36,
                    "time": 191.86379624999412,
                    "velocity": 0.4251968503937008,
                    "duration": 0.0681818749999934
                },
                {
                    "name": "C3",
                    "midi": 48,
                    "time": 191.86379624999412,
                    "velocity": 0.5118110236220472,
                    "duration": 0.0681818749999934
                },
                {
                    "name": "A#1",
                    "midi": 34,
                    "time": 192.0001599999941,
                    "velocity": 0.4251968503937008,
                    "duration": 0.0681818749999934
                },
                {
                    "name": "A#2",
                    "midi": 46,
                    "time": 192.0001599999941,
                    "velocity": 0.5118110236220472,
                    "duration": 0.0681818749999934
                },
                {
                    "name": "D#2",
                    "midi": 39,
                    "time": 192.1365237499941,
                    "velocity": 0.5275590551181102,
                    "duration": 0.0681818749999934
                },
                {
                    "name": "D#3",
                    "midi": 51,
                    "time": 192.1365237499941,
                    "velocity": 0.6220472440944882,
                    "duration": 0.0681818749999934
                },
                {
                    "name": "D2",
                    "midi": 38,
                    "time": 192.27288749999408,
                    "velocity": 0.4881889763779528,
                    "duration": 0.0681818749999934
                },
                {
                    "name": "D3",
                    "midi": 50,
                    "time": 192.27288749999408,
                    "velocity": 0.5905511811023622,
                    "duration": 0.0681818749999934
                },
                {
                    "name": "C2",
                    "midi": 36,
                    "time": 192.40925124999407,
                    "velocity": 0.4566929133858268,
                    "duration": 0.0681818749999934
                },
                {
                    "name": "C3",
                    "midi": 48,
                    "time": 192.40925124999407,
                    "velocity": 0.5433070866141733,
                    "duration": 0.0681818749999934
                },
                {
                    "name": "A#1",
                    "midi": 34,
                    "time": 192.54561499999406,
                    "velocity": 0.4566929133858268,
                    "duration": 0.0681818749999934
                },
                {
                    "name": "A#2",
                    "midi": 46,
                    "time": 192.54561499999406,
                    "velocity": 0.5433070866141733,
                    "duration": 0.0681818749999934
                },
                {
                    "name": "D#2",
                    "midi": 39,
                    "time": 192.68197874999404,
                    "velocity": 0.5433070866141733,
                    "duration": 0.06818187500002182
                },
                {
                    "name": "D#3",
                    "midi": 51,
                    "time": 192.68197874999404,
                    "velocity": 0.6614173228346457,
                    "duration": 0.06818187500002182
                },
                {
                    "name": "D2",
                    "midi": 38,
                    "time": 192.81834249999406,
                    "velocity": 0.4566929133858268,
                    "duration": 0.06818187500002182
                },
                {
                    "name": "D3",
                    "midi": 50,
                    "time": 192.81834249999406,
                    "velocity": 0.5354330708661418,
                    "duration": 0.06818187500002182
                },
                {
                    "name": "C2",
                    "midi": 36,
                    "time": 192.95470624999408,
                    "velocity": 0.4645669291338583,
                    "duration": 0.0681818749999934
                },
                {
                    "name": "C3",
                    "midi": 48,
                    "time": 192.95470624999408,
                    "velocity": 0.5511811023622047,
                    "duration": 0.0681818749999934
                },
                {
                    "name": "A#1",
                    "midi": 34,
                    "time": 193.09106999999406,
                    "velocity": 0.48031496062992124,
                    "duration": 0.06818187500002182
                },
                {
                    "name": "A#2",
                    "midi": 46,
                    "time": 193.09106999999406,
                    "velocity": 0.5590551181102362,
                    "duration": 0.06818187500002182
                },
                {
                    "name": "D#2",
                    "midi": 39,
                    "time": 193.22743374999408,
                    "velocity": 0.5590551181102362,
                    "duration": 0.0681818749999934
                },
                {
                    "name": "D#3",
                    "midi": 51,
                    "time": 193.22743374999408,
                    "velocity": 0.6456692913385826,
                    "duration": 0.0681818749999934
                },
                {
                    "name": "D2",
                    "midi": 38,
                    "time": 193.36379749999406,
                    "velocity": 0.44881889763779526,
                    "duration": 0.0681818749999934
                },
                {
                    "name": "D3",
                    "midi": 50,
                    "time": 193.36379749999406,
                    "velocity": 0.5354330708661418,
                    "duration": 0.0681818749999934
                },
                {
                    "name": "C2",
                    "midi": 36,
                    "time": 193.50016124999405,
                    "velocity": 0.4566929133858268,
                    "duration": 0.0681818749999934
                },
                {
                    "name": "C3",
                    "midi": 48,
                    "time": 193.50016124999405,
                    "velocity": 0.5433070866141733,
                    "duration": 0.0681818749999934
                },
                {
                    "name": "A#1",
                    "midi": 34,
                    "time": 193.63652499999404,
                    "velocity": 0.4566929133858268,
                    "duration": 0.0681818749999934
                },
                {
                    "name": "A#2",
                    "midi": 46,
                    "time": 193.63652499999404,
                    "velocity": 0.5433070866141733,
                    "duration": 0.0681818749999934
                },
                {
                    "name": "D#2",
                    "midi": 39,
                    "time": 193.77288874999402,
                    "velocity": 0.5669291338582677,
                    "duration": 0.0681818749999934
                },
                {
                    "name": "D#3",
                    "midi": 51,
                    "time": 193.77288874999402,
                    "velocity": 0.6692913385826772,
                    "duration": 0.0681818749999934
                },
                {
                    "name": "D2",
                    "midi": 38,
                    "time": 193.909252499994,
                    "velocity": 0.5039370078740157,
                    "duration": 0.0681818749999934
                },
                {
                    "name": "D3",
                    "midi": 50,
                    "time": 193.909252499994,
                    "velocity": 0.6141732283464567,
                    "duration": 0.0681818749999934
                },
                {
                    "name": "C2",
                    "midi": 36,
                    "time": 194.045616249994,
                    "velocity": 0.47244094488188976,
                    "duration": 0.0681818749999934
                },
                {
                    "name": "C3",
                    "midi": 48,
                    "time": 194.045616249994,
                    "velocity": 0.5748031496062992,
                    "duration": 0.0681818749999934
                },
                {
                    "name": "A#1",
                    "midi": 34,
                    "time": 194.18197999999398,
                    "velocity": 0.47244094488188976,
                    "duration": 0.0681818749999934
                },
                {
                    "name": "A#2",
                    "midi": 46,
                    "time": 194.18197999999398,
                    "velocity": 0.5748031496062992,
                    "duration": 0.0681818749999934
                },
                {
                    "name": "D#2",
                    "midi": 39,
                    "time": 194.31834374999397,
                    "velocity": 0.5748031496062992,
                    "duration": 0.0681818749999934
                },
                {
                    "name": "D#3",
                    "midi": 51,
                    "time": 194.31834374999397,
                    "velocity": 0.6850393700787402,
                    "duration": 0.0681818749999934
                },
                {
                    "name": "D2",
                    "midi": 38,
                    "time": 194.45470749999396,
                    "velocity": 0.47244094488188976,
                    "duration": 0.06818187500002182
                },
                {
                    "name": "D3",
                    "midi": 50,
                    "time": 194.45470749999396,
                    "velocity": 0.5669291338582677,
                    "duration": 0.06818187500002182
                },
                {
                    "name": "C2",
                    "midi": 36,
                    "time": 194.59107124999397,
                    "velocity": 0.47244094488188976,
                    "duration": 0.0681818749999934
                },
                {
                    "name": "C3",
                    "midi": 48,
                    "time": 194.59107124999397,
                    "velocity": 0.5669291338582677,
                    "duration": 0.0681818749999934
                },
                {
                    "name": "A#1",
                    "midi": 34,
                    "time": 194.72743499999396,
                    "velocity": 0.4881889763779528,
                    "duration": 0.06818187500002182
                },
                {
                    "name": "A#2",
                    "midi": 46,
                    "time": 194.72743499999396,
                    "velocity": 0.5826771653543307,
                    "duration": 0.06818187500002182
                },
                {
                    "name": "D#2",
                    "midi": 39,
                    "time": 194.86379874999398,
                    "velocity": 0.5748031496062992,
                    "duration": 0.0681818749999934
                },
                {
                    "name": "D#3",
                    "midi": 51,
                    "time": 194.86379874999398,
                    "velocity": 0.6614173228346457,
                    "duration": 0.0681818749999934
                },
                {
                    "name": "D2",
                    "midi": 38,
                    "time": 195.00016249999396,
                    "velocity": 0.4645669291338583,
                    "duration": 0.0681818749999934
                },
                {
                    "name": "D3",
                    "midi": 50,
                    "time": 195.00016249999396,
                    "velocity": 0.5511811023622047,
                    "duration": 0.0681818749999934
                },
                {
                    "name": "C2",
                    "midi": 36,
                    "time": 195.13652624999395,
                    "velocity": 0.4645669291338583,
                    "duration": 0.0681818749999934
                },
                {
                    "name": "C3",
                    "midi": 48,
                    "time": 195.13652624999395,
                    "velocity": 0.5511811023622047,
                    "duration": 0.0681818749999934
                },
                {
                    "name": "A#1",
                    "midi": 34,
                    "time": 195.27288999999394,
                    "velocity": 0.4645669291338583,
                    "duration": 0.0681818749999934
                },
                {
                    "name": "A#2",
                    "midi": 46,
                    "time": 195.27288999999394,
                    "velocity": 0.5590551181102362,
                    "duration": 0.0681818749999934
                },
                {
                    "name": "D#2",
                    "midi": 39,
                    "time": 195.40925374999392,
                    "velocity": 0.5826771653543307,
                    "duration": 0.0681818749999934
                },
                {
                    "name": "D#3",
                    "midi": 51,
                    "time": 195.40925374999392,
                    "velocity": 0.6850393700787402,
                    "duration": 0.0681818749999934
                },
                {
                    "name": "D2",
                    "midi": 38,
                    "time": 195.5456174999939,
                    "velocity": 0.5196850393700787,
                    "duration": 0.0681818749999934
                },
                {
                    "name": "D3",
                    "midi": 50,
                    "time": 195.5456174999939,
                    "velocity": 0.6299212598425197,
                    "duration": 0.0681818749999934
                },
                {
                    "name": "C2",
                    "midi": 36,
                    "time": 195.6819812499939,
                    "velocity": 0.4881889763779528,
                    "duration": 0.0681818749999934
                },
                {
                    "name": "C3",
                    "midi": 48,
                    "time": 195.6819812499939,
                    "velocity": 0.5826771653543307,
                    "duration": 0.0681818749999934
                },
                {
                    "name": "A#1",
                    "midi": 34,
                    "time": 195.81834499999388,
                    "velocity": 0.4881889763779528,
                    "duration": 0.0681818749999934
                },
                {
                    "name": "A#2",
                    "midi": 46,
                    "time": 195.81834499999388,
                    "velocity": 0.5826771653543307,
                    "duration": 0.0681818749999934
                },
                {
                    "name": "D#2",
                    "midi": 39,
                    "time": 195.95470874999387,
                    "velocity": 0.5905511811023622,
                    "duration": 0.0681818749999934
                },
                {
                    "name": "D#3",
                    "midi": 51,
                    "time": 195.95470874999387,
                    "velocity": 0.7007874015748031,
                    "duration": 0.0681818749999934
                },
                {
                    "name": "D2",
                    "midi": 38,
                    "time": 196.09107249999386,
                    "velocity": 0.4881889763779528,
                    "duration": 0.0681818749999934
                },
                {
                    "name": "D3",
                    "midi": 50,
                    "time": 196.09107249999386,
                    "velocity": 0.5826771653543307,
                    "duration": 0.0681818749999934
                },
                {
                    "name": "C2",
                    "midi": 36,
                    "time": 196.22743624999384,
                    "velocity": 0.4881889763779528,
                    "duration": 0.0681818749999934
                },
                {
                    "name": "C3",
                    "midi": 48,
                    "time": 196.22743624999384,
                    "velocity": 0.5826771653543307,
                    "duration": 0.0681818749999934
                },
                {
                    "name": "A#1",
                    "midi": 34,
                    "time": 196.36379999999386,
                    "velocity": 0.49606299212598426,
                    "duration": 0.0681818749999934
                },
                {
                    "name": "A#2",
                    "midi": 46,
                    "time": 196.36379999999386,
                    "velocity": 0.5905511811023622,
                    "duration": 0.0681818749999934
                },
                {
                    "name": "D#2",
                    "midi": 39,
                    "time": 196.50016374999385,
                    "velocity": 0.5039370078740157,
                    "duration": 0.0681818749999934
                },
                {
                    "name": "D#3",
                    "midi": 51,
                    "time": 196.50016374999385,
                    "velocity": 0.5590551181102362,
                    "duration": 0.0681818749999934
                },
                {
                    "name": "D#2",
                    "midi": 39,
                    "time": 196.77289124999385,
                    "velocity": 0.4251968503937008,
                    "duration": 0.0681818749999934
                },
                {
                    "name": "D#3",
                    "midi": 51,
                    "time": 196.77289124999385,
                    "velocity": 0.5039370078740157,
                    "duration": 0.0681818749999934
                },
                {
                    "name": "D#2",
                    "midi": 39,
                    "time": 196.90925499999383,
                    "velocity": 0.3858267716535433,
                    "duration": 0.0681818749999934
                },
                {
                    "name": "D#3",
                    "midi": 51,
                    "time": 196.90925499999383,
                    "velocity": 0.4566929133858268,
                    "duration": 0.0681818749999934
                },
                {
                    "name": "E2",
                    "midi": 40,
                    "time": 197.04561874999382,
                    "velocity": 0.41732283464566927,
                    "duration": 0.272727500000002
                },
                {
                    "name": "E3",
                    "midi": 52,
                    "time": 197.04561874999382,
                    "velocity": 0.49606299212598426,
                    "duration": 0.272727500000002
                },
                {
                    "name": "E2",
                    "midi": 40,
                    "time": 197.31834624999382,
                    "velocity": 0.4015748031496063,
                    "duration": 0.0681818749999934
                },
                {
                    "name": "E3",
                    "midi": 52,
                    "time": 197.31834624999382,
                    "velocity": 0.48031496062992124,
                    "duration": 0.0681818749999934
                },
                {
                    "name": "E2",
                    "midi": 40,
                    "time": 197.4547099999938,
                    "velocity": 0.3937007874015748,
                    "duration": 0.0681818749999934
                },
                {
                    "name": "E3",
                    "midi": 52,
                    "time": 197.4547099999938,
                    "velocity": 0.4645669291338583,
                    "duration": 0.0681818749999934
                },
                {
                    "name": "F2",
                    "midi": 41,
                    "time": 197.5910737499938,
                    "velocity": 0.4330708661417323,
                    "duration": 0.272727500000002
                },
                {
                    "name": "F3",
                    "midi": 53,
                    "time": 197.5910737499938,
                    "velocity": 0.5118110236220472,
                    "duration": 0.272727500000002
                },
                {
                    "name": "F2",
                    "midi": 41,
                    "time": 197.8638012499938,
                    "velocity": 0.4094488188976378,
                    "duration": 0.0681818749999934
                },
                {
                    "name": "F3",
                    "midi": 53,
                    "time": 197.8638012499938,
                    "velocity": 0.4881889763779528,
                    "duration": 0.0681818749999934
                },
                {
                    "name": "F2",
                    "midi": 41,
                    "time": 198.00016499999379,
                    "velocity": 0.4015748031496063,
                    "duration": 0.0681818749999934
                },
                {
                    "name": "F3",
                    "midi": 53,
                    "time": 198.00016499999379,
                    "velocity": 0.47244094488188976,
                    "duration": 0.0681818749999934
                },
                {
                    "name": "F#2",
                    "midi": 42,
                    "time": 198.13652874999377,
                    "velocity": 0.33858267716535434,
                    "duration": 0.272727500000002
                },
                {
                    "name": "F#3",
                    "midi": 54,
                    "time": 198.13652874999377,
                    "velocity": 0.4015748031496063,
                    "duration": 0.272727500000002
                },
                {
                    "name": "C#4",
                    "midi": 61,
                    "time": 198.40925624999377,
                    "velocity": 0.4015748031496063,
                    "duration": 0.0681818749999934
                },
                {
                    "name": "F#3",
                    "midi": 54,
                    "time": 198.40925624999377,
                    "velocity": 0.33858267716535434,
                    "duration": 0.0681818749999934
                },
                {
                    "name": "C#4",
                    "midi": 61,
                    "time": 198.54561999999376,
                    "velocity": 0.4015748031496063,
                    "duration": 0.0681818749999934
                },
                {
                    "name": "F#3",
                    "midi": 54,
                    "time": 198.54561999999376,
                    "velocity": 0.33858267716535434,
                    "duration": 0.0681818749999934
                },
                {
                    "name": "C#4",
                    "midi": 61,
                    "time": 198.68198374999375,
                    "velocity": 0.4015748031496063,
                    "duration": 0.272727500000002
                },
                {
                    "name": "F#3",
                    "midi": 54,
                    "time": 198.68198374999375,
                    "velocity": 0.33858267716535434,
                    "duration": 0.272727500000002
                },
                {
                    "name": "F#3",
                    "midi": 54,
                    "time": 198.95471124999375,
                    "velocity": 0.33858267716535434,
                    "duration": 0.0681818749999934
                },
                {
                    "name": "C#4",
                    "midi": 61,
                    "time": 198.95471124999375,
                    "velocity": 0.4015748031496063,
                    "duration": 0.0681818749999934
                },
                {
                    "name": "F#3",
                    "midi": 54,
                    "time": 199.09107499999374,
                    "velocity": 0.33858267716535434,
                    "duration": 0.0681818749999934
                },
                {
                    "name": "C#4",
                    "midi": 61,
                    "time": 199.09107499999374,
                    "velocity": 0.4015748031496063,
                    "duration": 0.0681818749999934
                },
                {
                    "name": "G#2",
                    "midi": 44,
                    "time": 199.22743874999372,
                    "velocity": 0.31496062992125984,
                    "duration": 0.272727500000002
                },
                {
                    "name": "D#3",
                    "midi": 51,
                    "time": 199.22743874999372,
                    "velocity": 0.31496062992125984,
                    "duration": 0.272727500000002
                },
                {
                    "name": "G#3",
                    "midi": 56,
                    "time": 199.22743874999372,
                    "velocity": 0.3779527559055118,
                    "duration": 0.272727500000002
                },
                {
                    "name": "D#3",
                    "midi": 51,
                    "time": 199.50016624999373,
                    "velocity": 0.31496062992125984,
                    "duration": 0.0681818749999934
                },
                {
                    "name": "G#3",
                    "midi": 56,
                    "time": 199.50016624999373,
                    "velocity": 0.31496062992125984,
                    "duration": 0.0681818749999934
                },
                {
                    "name": "C4",
                    "midi": 60,
                    "time": 199.50016624999373,
                    "velocity": 0.3779527559055118,
                    "duration": 0.0681818749999934
                },
                {
                    "name": "D#3",
                    "midi": 51,
                    "time": 199.6365299999937,
                    "velocity": 0.31496062992125984,
                    "duration": 0.0681818749999934
                },
                {
                    "name": "G#3",
                    "midi": 56,
                    "time": 199.6365299999937,
                    "velocity": 0.31496062992125984,
                    "duration": 0.0681818749999934
                },
                {
                    "name": "C4",
                    "midi": 60,
                    "time": 199.6365299999937,
                    "velocity": 0.3779527559055118,
                    "duration": 0.0681818749999934
                },
                {
                    "name": "C#3",
                    "midi": 49,
                    "time": 199.7728937499937,
                    "velocity": 0.3543307086614173,
                    "duration": 0.272727500000002
                },
                {
                    "name": "G#3",
                    "midi": 56,
                    "time": 199.7728937499937,
                    "velocity": 0.3543307086614173,
                    "duration": 0.272727500000002
                },
                {
                    "name": "C4",
                    "midi": 60,
                    "time": 199.7728937499937,
                    "velocity": 0.4094488188976378,
                    "duration": 0.272727500000002
                },
                {
                    "name": "C#3",
                    "midi": 49,
                    "time": 200.0456212499937,
                    "velocity": 0.31496062992125984,
                    "duration": 0.0681818749999934
                },
                {
                    "name": "G#3",
                    "midi": 56,
                    "time": 200.0456212499937,
                    "velocity": 0.31496062992125984,
                    "duration": 0.0681818749999934
                },
                {
                    "name": "C#4",
                    "midi": 61,
                    "time": 200.0456212499937,
                    "velocity": 0.3779527559055118,
                    "duration": 0.0681818749999934
                },
                {
                    "name": "C#3",
                    "midi": 49,
                    "time": 200.1819849999937,
                    "velocity": 0.31496062992125984,
                    "duration": 0.0681818749999934
                },
                {
                    "name": "G#3",
                    "midi": 56,
                    "time": 200.1819849999937,
                    "velocity": 0.31496062992125984,
                    "duration": 0.0681818749999934
                },
                {
                    "name": "C#4",
                    "midi": 61,
                    "time": 200.1819849999937,
                    "velocity": 0.3779527559055118,
                    "duration": 0.0681818749999934
                },
                {
                    "name": "C#3",
                    "midi": 49,
                    "time": 200.31834874999367,
                    "velocity": 0.3543307086614173,
                    "duration": 0.272727500000002
                },
                {
                    "name": "G3",
                    "midi": 55,
                    "time": 200.31834874999367,
                    "velocity": 0.3543307086614173,
                    "duration": 0.272727500000002
                },
                {
                    "name": "C#4",
                    "midi": 61,
                    "time": 200.31834874999367,
                    "velocity": 0.4251968503937008,
                    "duration": 0.272727500000002
                },
                {
                    "name": "C#3",
                    "midi": 49,
                    "time": 200.59107624999368,
                    "velocity": 0.33858267716535434,
                    "duration": 0.12272737500001085
                },
                {
                    "name": "G3",
                    "midi": 55,
                    "time": 200.59107624999368,
                    "velocity": 0.33858267716535434,
                    "duration": 0.12272737500001085
                },
                {
                    "name": "C#4",
                    "midi": 61,
                    "time": 200.59107624999368,
                    "velocity": 0.4015748031496063,
                    "duration": 0.12272737500001085
                },
                {
                    "name": "C#3",
                    "midi": 49,
                    "time": 200.7274399999937,
                    "velocity": 0.33858267716535434,
                    "duration": 0.12272737500001085
                },
                {
                    "name": "G3",
                    "midi": 55,
                    "time": 200.7274399999937,
                    "velocity": 0.33858267716535434,
                    "duration": 0.12272737500001085
                },
                {
                    "name": "C#4",
                    "midi": 61,
                    "time": 200.7274399999937,
                    "velocity": 0.4015748031496063,
                    "duration": 0.12272737500001085
                },
                {
                    "name": "C3",
                    "midi": 48,
                    "time": 200.8638037499937,
                    "velocity": 0.3543307086614173,
                    "duration": 0.272727500000002
                },
                {
                    "name": "G3",
                    "midi": 55,
                    "time": 200.8638037499937,
                    "velocity": 0.3543307086614173,
                    "duration": 0.272727500000002
                },
                {
                    "name": "A#3",
                    "midi": 58,
                    "time": 200.8638037499937,
                    "velocity": 0.4251968503937008,
                    "duration": 0.272727500000002
                },
                {
                    "name": "C3",
                    "midi": 48,
                    "time": 201.1365312499937,
                    "velocity": 0.33858267716535434,
                    "duration": 0.12272737500001085
                },
                {
                    "name": "G3",
                    "midi": 55,
                    "time": 201.1365312499937,
                    "velocity": 0.33858267716535434,
                    "duration": 0.12272737500001085
                },
                {
                    "name": "A#3",
                    "midi": 58,
                    "time": 201.1365312499937,
                    "velocity": 0.4015748031496063,
                    "duration": 0.12272737500001085
                },
                {
                    "name": "C3",
                    "midi": 48,
                    "time": 201.27289499999372,
                    "velocity": 0.33858267716535434,
                    "duration": 0.12272737500001085
                },
                {
                    "name": "G3",
                    "midi": 55,
                    "time": 201.27289499999372,
                    "velocity": 0.33858267716535434,
                    "duration": 0.12272737500001085
                },
                {
                    "name": "A#3",
                    "midi": 58,
                    "time": 201.27289499999372,
                    "velocity": 0.4015748031496063,
                    "duration": 0.12272737500001085
                },
                {
                    "name": "F3",
                    "midi": 53,
                    "time": 201.40925874999374,
                    "velocity": 0.3543307086614173,
                    "duration": 0.272727500000002
                },
                {
                    "name": "G#3",
                    "midi": 56,
                    "time": 201.40925874999374,
                    "velocity": 0.4094488188976378,
                    "duration": 0.272727500000002
                },
                {
                    "name": "F3",
                    "midi": 53,
                    "time": 201.68198624999374,
                    "velocity": 0.31496062992125984,
                    "duration": 0.0681818749999934
                },
                {
                    "name": "G#3",
                    "midi": 56,
                    "time": 201.68198624999374,
                    "velocity": 0.3779527559055118,
                    "duration": 0.0681818749999934
                },
                {
                    "name": "D#3",
                    "midi": 51,
                    "time": 201.81834999999373,
                    "velocity": 0.31496062992125984,
                    "duration": 0.0681818749999934
                },
                {
                    "name": "G#3",
                    "midi": 56,
                    "time": 201.81834999999373,
                    "velocity": 0.3779527559055118,
                    "duration": 0.0681818749999934
                },
                {
                    "name": "D3",
                    "midi": 50,
                    "time": 201.95471374999372,
                    "velocity": 0.3543307086614173,
                    "duration": 0.272727500000002
                },
                {
                    "name": "G#3",
                    "midi": 56,
                    "time": 201.95471374999372,
                    "velocity": 0.4251968503937008,
                    "duration": 0.272727500000002
                },
                {
                    "name": "D3",
                    "midi": 50,
                    "time": 202.22744124999372,
                    "velocity": 0.31496062992125984,
                    "duration": 0.12272737500001085
                },
                {
                    "name": "G#3",
                    "midi": 56,
                    "time": 202.22744124999372,
                    "velocity": 0.3779527559055118,
                    "duration": 0.12272737500001085
                },
                {
                    "name": "D3",
                    "midi": 50,
                    "time": 202.36380499999373,
                    "velocity": 0.31496062992125984,
                    "duration": 0.12272737500001085
                },
                {
                    "name": "G#3",
                    "midi": 56,
                    "time": 202.36380499999373,
                    "velocity": 0.3779527559055118,
                    "duration": 0.12272737500001085
                },
                {
                    "name": "G2",
                    "midi": 43,
                    "time": 202.50016874999375,
                    "velocity": 0.3543307086614173,
                    "duration": 0.2727274999999736
                },
                {
                    "name": "D3",
                    "midi": 50,
                    "time": 202.50016874999375,
                    "velocity": 0.3543307086614173,
                    "duration": 0.2727274999999736
                },
                {
                    "name": "G3",
                    "midi": 55,
                    "time": 202.50016874999375,
                    "velocity": 0.4251968503937008,
                    "duration": 0.2727274999999736
                },
                {
                    "name": "G2",
                    "midi": 43,
                    "time": 202.77289624999372,
                    "velocity": 0.31496062992125984,
                    "duration": 0.12272737500001085
                },
                {
                    "name": "D3",
                    "midi": 50,
                    "time": 202.77289624999372,
                    "velocity": 0.31496062992125984,
                    "duration": 0.12272737500001085
                },
                {
                    "name": "G3",
                    "midi": 55,
                    "time": 202.77289624999372,
                    "velocity": 0.3779527559055118,
                    "duration": 0.12272737500001085
                },
                {
                    "name": "G2",
                    "midi": 43,
                    "time": 202.90925999999374,
                    "velocity": 0.31496062992125984,
                    "duration": 0.12272737500001085
                },
                {
                    "name": "D3",
                    "midi": 50,
                    "time": 202.90925999999374,
                    "velocity": 0.31496062992125984,
                    "duration": 0.12272737500001085
                },
                {
                    "name": "G3",
                    "midi": 55,
                    "time": 202.90925999999374,
                    "velocity": 0.3779527559055118,
                    "duration": 0.12272737500001085
                },
                {
                    "name": "C3",
                    "midi": 48,
                    "time": 203.04562374999375,
                    "velocity": 0.33070866141732286,
                    "duration": 0.272727500000002
                },
                {
                    "name": "G3",
                    "midi": 55,
                    "time": 203.04562374999375,
                    "velocity": 0.3858267716535433,
                    "duration": 0.272727500000002
                },
                {
                    "name": "C3",
                    "midi": 48,
                    "time": 203.31835124999375,
                    "velocity": 0.2992125984251969,
                    "duration": 0.12272737500001085
                },
                {
                    "name": "G3",
                    "midi": 55,
                    "time": 203.31835124999375,
                    "velocity": 0.3543307086614173,
                    "duration": 0.12272737500001085
                },
                {
                    "name": "C3",
                    "midi": 48,
                    "time": 203.45471499999377,
                    "velocity": 0.2992125984251969,
                    "duration": 0.12272737500001085
                },
                {
                    "name": "G3",
                    "midi": 55,
                    "time": 203.45471499999377,
                    "velocity": 0.3543307086614173,
                    "duration": 0.12272737500001085
                },
                {
                    "name": "G#3",
                    "midi": 56,
                    "time": 203.59107874999378,
                    "velocity": 0.3858267716535433,
                    "duration": 0.2727274999999736
                },
                {
                    "name": "A#2",
                    "midi": 46,
                    "time": 203.59107874999378,
                    "velocity": 0.33070866141732286,
                    "duration": 0.2727274999999736
                },
                {
                    "name": "G#3",
                    "midi": 56,
                    "time": 203.86380624999376,
                    "velocity": 0.3543307086614173,
                    "duration": 0.12272737500001085
                },
                {
                    "name": "A#2",
                    "midi": 46,
                    "time": 203.86380624999376,
                    "velocity": 0.2992125984251969,
                    "duration": 0.12272737500001085
                },
                {
                    "name": "A#2",
                    "midi": 46,
                    "time": 204.00016999999377,
                    "velocity": 0.2992125984251969,
                    "duration": 0.12272737500001085
                },
                {
                    "name": "G#3",
                    "midi": 56,
                    "time": 204.00016999999377,
                    "velocity": 0.3543307086614173,
                    "duration": 0.12272737500001085
                },
                {
                    "name": "D#2",
                    "midi": 39,
                    "time": 204.1365337499938,
                    "velocity": 0.3543307086614173,
                    "duration": 0.2727274999999736
                },
                {
                    "name": "A#2",
                    "midi": 46,
                    "time": 204.1365337499938,
                    "velocity": 0.3543307086614173,
                    "duration": 0.2727274999999736
                },
                {
                    "name": "D#3",
                    "midi": 51,
                    "time": 204.1365337499938,
                    "velocity": 0.4251968503937008,
                    "duration": 0.2727274999999736
                },
                {
                    "name": "A#2",
                    "midi": 46,
                    "time": 204.40926124999376,
                    "velocity": 0.31496062992125984,
                    "duration": 0.12272737500001085
                },
                {
                    "name": "D#3",
                    "midi": 51,
                    "time": 204.40926124999376,
                    "velocity": 0.3779527559055118,
                    "duration": 0.12272737500001085
                },
                {
                    "name": "D#2",
                    "midi": 39,
                    "time": 204.40926124999376,
                    "velocity": 0.31496062992125984,
                    "duration": 0.12272737500001085
                },
                {
                    "name": "A#2",
                    "midi": 46,
                    "time": 204.54562499999378,
                    "velocity": 0.31496062992125984,
                    "duration": 0.12272737500001085
                },
                {
                    "name": "D#3",
                    "midi": 51,
                    "time": 204.54562499999378,
                    "velocity": 0.3779527559055118,
                    "duration": 0.12272737500001085
                },
                {
                    "name": "D#2",
                    "midi": 39,
                    "time": 204.54562499999378,
                    "velocity": 0.31496062992125984,
                    "duration": 0.12272737500001085
                },
                {
                    "name": "B1",
                    "midi": 35,
                    "time": 204.6819887499938,
                    "velocity": 0.33858267716535434,
                    "duration": 0.272727500000002
                },
                {
                    "name": "B2",
                    "midi": 47,
                    "time": 204.6819887499938,
                    "velocity": 0.4015748031496063,
                    "duration": 0.272727500000002
                },
                {
                    "name": "B2",
                    "midi": 47,
                    "time": 204.9547162499938,
                    "velocity": 0.33858267716535434,
                    "duration": 0.12272737500001085
                },
                {
                    "name": "B3",
                    "midi": 59,
                    "time": 204.9547162499938,
                    "velocity": 0.4015748031496063,
                    "duration": 0.12272737500001085
                },
                {
                    "name": "G3",
                    "midi": 55,
                    "time": 204.9547162499938,
                    "velocity": 0.33858267716535434,
                    "duration": 0.12272737500001085
                },
                {
                    "name": "B2",
                    "midi": 47,
                    "time": 205.0910799999938,
                    "velocity": 0.33858267716535434,
                    "duration": 0.12272737500001085
                },
                {
                    "name": "B3",
                    "midi": 59,
                    "time": 205.0910799999938,
                    "velocity": 0.4015748031496063,
                    "duration": 0.12272737500001085
                },
                {
                    "name": "G3",
                    "midi": 55,
                    "time": 205.0910799999938,
                    "velocity": 0.33858267716535434,
                    "duration": 0.12272737500001085
                },
                {
                    "name": "B2",
                    "midi": 47,
                    "time": 205.22744374999382,
                    "velocity": 0.33858267716535434,
                    "duration": 0.272727500000002
                },
                {
                    "name": "B3",
                    "midi": 59,
                    "time": 205.22744374999382,
                    "velocity": 0.4015748031496063,
                    "duration": 0.272727500000002
                },
                {
                    "name": "G3",
                    "midi": 55,
                    "time": 205.22744374999382,
                    "velocity": 0.33858267716535434,
                    "duration": 0.272727500000002
                },
                {
                    "name": "B2",
                    "midi": 47,
                    "time": 205.50017124999383,
                    "velocity": 0.33858267716535434,
                    "duration": 0.12272737500001085
                },
                {
                    "name": "G3",
                    "midi": 55,
                    "time": 205.50017124999383,
                    "velocity": 0.33858267716535434,
                    "duration": 0.12272737500001085
                },
                {
                    "name": "B3",
                    "midi": 59,
                    "time": 205.50017124999383,
                    "velocity": 0.4015748031496063,
                    "duration": 0.12272737500001085
                },
                {
                    "name": "B2",
                    "midi": 47,
                    "time": 205.63653499999384,
                    "velocity": 0.33858267716535434,
                    "duration": 0.12272737500001085
                },
                {
                    "name": "G3",
                    "midi": 55,
                    "time": 205.63653499999384,
                    "velocity": 0.33858267716535434,
                    "duration": 0.12272737500001085
                },
                {
                    "name": "B3",
                    "midi": 59,
                    "time": 205.63653499999384,
                    "velocity": 0.4015748031496063,
                    "duration": 0.12272737500001085
                },
                {
                    "name": "C3",
                    "midi": 48,
                    "time": 205.77289874999386,
                    "velocity": 0.31496062992125984,
                    "duration": 0.272727500000002
                },
                {
                    "name": "G3",
                    "midi": 55,
                    "time": 205.77289874999386,
                    "velocity": 0.31496062992125984,
                    "duration": 0.272727500000002
                },
                {
                    "name": "C4",
                    "midi": 60,
                    "time": 205.77289874999386,
                    "velocity": 0.3779527559055118,
                    "duration": 0.272727500000002
                },
                {
                    "name": "C3",
                    "midi": 48,
                    "time": 206.04562624999386,
                    "velocity": 0.31496062992125984,
                    "duration": 0.12272737500001085
                },
                {
                    "name": "G3",
                    "midi": 55,
                    "time": 206.04562624999386,
                    "velocity": 0.31496062992125984,
                    "duration": 0.12272737500001085
                },
                {
                    "name": "C4",
                    "midi": 60,
                    "time": 206.04562624999386,
                    "velocity": 0.3779527559055118,
                    "duration": 0.12272737500001085
                },
                {
                    "name": "C3",
                    "midi": 48,
                    "time": 206.18198999999387,
                    "velocity": 0.31496062992125984,
                    "duration": 0.12272737500001085
                },
                {
                    "name": "G3",
                    "midi": 55,
                    "time": 206.18198999999387,
                    "velocity": 0.31496062992125984,
                    "duration": 0.12272737500001085
                },
                {
                    "name": "C4",
                    "midi": 60,
                    "time": 206.18198999999387,
                    "velocity": 0.3779527559055118,
                    "duration": 0.12272737500001085
                },
                {
                    "name": "F3",
                    "midi": 53,
                    "time": 206.3183537499939,
                    "velocity": 0.3543307086614173,
                    "duration": 0.272727500000002
                },
                {
                    "name": "C4",
                    "midi": 60,
                    "time": 206.3183537499939,
                    "velocity": 0.3543307086614173,
                    "duration": 0.272727500000002
                },
                {
                    "name": "E4",
                    "midi": 64,
                    "time": 206.3183537499939,
                    "velocity": 0.4094488188976378,
                    "duration": 0.272727500000002
                },
                {
                    "name": "F3",
                    "midi": 53,
                    "time": 206.5910812499939,
                    "velocity": 0.31496062992125984,
                    "duration": 0.0681818749999934
                },
                {
                    "name": "C4",
                    "midi": 60,
                    "time": 206.5910812499939,
                    "velocity": 0.31496062992125984,
                    "duration": 0.0681818749999934
                },
                {
                    "name": "F4",
                    "midi": 65,
                    "time": 206.5910812499939,
                    "velocity": 0.3779527559055118,
                    "duration": 0.0681818749999934
                },
                {
                    "name": "F3",
                    "midi": 53,
                    "time": 206.72744499999388,
                    "velocity": 0.31496062992125984,
                    "duration": 0.0681818749999934
                },
                {
                    "name": "C4",
                    "midi": 60,
                    "time": 206.72744499999388,
                    "velocity": 0.31496062992125984,
                    "duration": 0.0681818749999934
                },
                {
                    "name": "F4",
                    "midi": 65,
                    "time": 206.72744499999388,
                    "velocity": 0.3779527559055118,
                    "duration": 0.0681818749999934
                },
                {
                    "name": "F3",
                    "midi": 53,
                    "time": 206.86380874999386,
                    "velocity": 0.3543307086614173,
                    "duration": 0.272727500000002
                },
                {
                    "name": "C4",
                    "midi": 60,
                    "time": 206.86380874999386,
                    "velocity": 0.3543307086614173,
                    "duration": 0.272727500000002
                },
                {
                    "name": "D4",
                    "midi": 62,
                    "time": 206.86380874999386,
                    "velocity": 0.4251968503937008,
                    "duration": 0.272727500000002
                },
                {
                    "name": "F3",
                    "midi": 53,
                    "time": 207.13653624999387,
                    "velocity": 0.33858267716535434,
                    "duration": 0.12272737500001085
                },
                {
                    "name": "C4",
                    "midi": 60,
                    "time": 207.13653624999387,
                    "velocity": 0.33858267716535434,
                    "duration": 0.12272737500001085
                },
                {
                    "name": "D4",
                    "midi": 62,
                    "time": 207.13653624999387,
                    "velocity": 0.4015748031496063,
                    "duration": 0.12272737500001085
                },
                {
                    "name": "F3",
                    "midi": 53,
                    "time": 207.27289999999388,
                    "velocity": 0.33858267716535434,
                    "duration": 0.12272737500001085
                },
                {
                    "name": "C4",
                    "midi": 60,
                    "time": 207.27289999999388,
                    "velocity": 0.33858267716535434,
                    "duration": 0.12272737500001085
                },
                {
                    "name": "D4",
                    "midi": 62,
                    "time": 207.27289999999388,
                    "velocity": 0.4015748031496063,
                    "duration": 0.12272737500001085
                },
                {
                    "name": "G3",
                    "midi": 55,
                    "time": 207.4092637499939,
                    "velocity": 0.3543307086614173,
                    "duration": 0.2727274999999736
                },
                {
                    "name": "C4",
                    "midi": 60,
                    "time": 207.4092637499939,
                    "velocity": 0.3543307086614173,
                    "duration": 0.2727274999999736
                },
                {
                    "name": "E4",
                    "midi": 64,
                    "time": 207.4092637499939,
                    "velocity": 0.4251968503937008,
                    "duration": 0.2727274999999736
                },
                {
                    "name": "G3",
                    "midi": 55,
                    "time": 207.68199124999387,
                    "velocity": 0.33858267716535434,
                    "duration": 0.12272737500001085
                },
                {
                    "name": "C4",
                    "midi": 60,
                    "time": 207.68199124999387,
                    "velocity": 0.33858267716535434,
                    "duration": 0.12272737500001085
                },
                {
                    "name": "E4",
                    "midi": 64,
                    "time": 207.68199124999387,
                    "velocity": 0.4015748031496063,
                    "duration": 0.12272737500001085
                },
                {
                    "name": "G3",
                    "midi": 55,
                    "time": 207.8183549999939,
                    "velocity": 0.33858267716535434,
                    "duration": 0.12272737500001085
                },
                {
                    "name": "C4",
                    "midi": 60,
                    "time": 207.8183549999939,
                    "velocity": 0.33858267716535434,
                    "duration": 0.12272737500001085
                },
                {
                    "name": "E4",
                    "midi": 64,
                    "time": 207.8183549999939,
                    "velocity": 0.4015748031496063,
                    "duration": 0.12272737500001085
                },
                {
                    "name": "G#3",
                    "midi": 56,
                    "time": 207.9547187499939,
                    "velocity": 0.33070866141732286,
                    "duration": 0.272727500000002
                },
                {
                    "name": "C4",
                    "midi": 60,
                    "time": 207.9547187499939,
                    "velocity": 0.33070866141732286,
                    "duration": 0.272727500000002
                },
                {
                    "name": "E4",
                    "midi": 64,
                    "time": 207.9547187499939,
                    "velocity": 0.3858267716535433,
                    "duration": 0.272727500000002
                },
                {
                    "name": "G#3",
                    "midi": 56,
                    "time": 208.2274462499939,
                    "velocity": 0.2992125984251969,
                    "duration": 0.0681818749999934
                },
                {
                    "name": "C4",
                    "midi": 60,
                    "time": 208.2274462499939,
                    "velocity": 0.2992125984251969,
                    "duration": 0.0681818749999934
                },
                {
                    "name": "F4",
                    "midi": 65,
                    "time": 208.2274462499939,
                    "velocity": 0.3543307086614173,
                    "duration": 0.0681818749999934
                },
                {
                    "name": "G#3",
                    "midi": 56,
                    "time": 208.3638099999939,
                    "velocity": 0.28346456692913385,
                    "duration": 0.0681818749999934
                },
                {
                    "name": "C4",
                    "midi": 60,
                    "time": 208.3638099999939,
                    "velocity": 0.28346456692913385,
                    "duration": 0.0681818749999934
                },
                {
                    "name": "F4",
                    "midi": 65,
                    "time": 208.3638099999939,
                    "velocity": 0.3464566929133858,
                    "duration": 0.0681818749999934
                },
                {
                    "name": "F3",
                    "midi": 53,
                    "time": 208.50017374999388,
                    "velocity": 0.30708661417322836,
                    "duration": 0.272727500000002
                },
                {
                    "name": "C4",
                    "midi": 60,
                    "time": 208.50017374999388,
                    "velocity": 0.30708661417322836,
                    "duration": 0.272727500000002
                },
                {
                    "name": "F4",
                    "midi": 65,
                    "time": 208.50017374999388,
                    "velocity": 0.3700787401574803,
                    "duration": 0.272727500000002
                },
                {
                    "name": "F3",
                    "midi": 53,
                    "time": 208.77290124999388,
                    "velocity": 0.2755905511811024,
                    "duration": 0.0681818749999934
                },
                {
                    "name": "C4",
                    "midi": 60,
                    "time": 208.77290124999388,
                    "velocity": 0.3228346456692913,
                    "duration": 0.0681818749999934
                },
                {
                    "name": "F3",
                    "midi": 53,
                    "time": 208.90926499999387,
                    "velocity": 0.2755905511811024,
                    "duration": 0.0681818749999934
                },
                {
                    "name": "C4",
                    "midi": 60,
                    "time": 208.90926499999387,
                    "velocity": 0.3228346456692913,
                    "duration": 0.0681818749999934
                },
                {
                    "name": "D3",
                    "midi": 50,
                    "time": 209.04562874999385,
                    "velocity": 0.2992125984251969,
                    "duration": 0.272727500000002
                },
                {
                    "name": "G#3",
                    "midi": 56,
                    "time": 209.04562874999385,
                    "velocity": 0.2992125984251969,
                    "duration": 0.272727500000002
                },
                {
                    "name": "C4",
                    "midi": 60,
                    "time": 209.04562874999385,
                    "velocity": 0.3543307086614173,
                    "duration": 0.272727500000002
                },
                {
                    "name": "D3",
                    "midi": 50,
                    "time": 209.31835624999385,
                    "velocity": 0.2440944881889764,
                    "duration": 0.0681818749999934
                },
                {
                    "name": "G3",
                    "midi": 55,
                    "time": 209.31835624999385,
                    "velocity": 0.2440944881889764,
                    "duration": 0.0681818749999934
                },
                {
                    "name": "C4",
                    "midi": 60,
                    "time": 209.31835624999385,
                    "velocity": 0.2992125984251969,
                    "duration": 0.0681818749999934
                },
                {
                    "name": "D3",
                    "midi": 50,
                    "time": 209.45471999999384,
                    "velocity": 0.2440944881889764,
                    "duration": 0.0681818749999934
                },
                {
                    "name": "F3",
                    "midi": 53,
                    "time": 209.45471999999384,
                    "velocity": 0.2440944881889764,
                    "duration": 0.0681818749999934
                },
                {
                    "name": "C4",
                    "midi": 60,
                    "time": 209.45471999999384,
                    "velocity": 0.2992125984251969,
                    "duration": 0.0681818749999934
                },
                {
                    "name": "G2",
                    "midi": 43,
                    "time": 209.59108374999383,
                    "velocity": 0.2677165354330709,
                    "duration": 0.13636375000001522
                },
                {
                    "name": "D3",
                    "midi": 50,
                    "time": 209.59108374999383,
                    "velocity": 0.2677165354330709,
                    "duration": 0.13636375000001522
                },
                {
                    "name": "G3",
                    "midi": 55,
                    "time": 209.59108374999383,
                    "velocity": 0.30708661417322836,
                    "duration": 0.13636375000001522
                },
                {
                    "name": "G2",
                    "midi": 43,
                    "time": 209.86381124999383,
                    "velocity": 0.23622047244094488,
                    "duration": 0.1363637499999868
                },
                {
                    "name": "C3",
                    "midi": 48,
                    "time": 209.86381124999383,
                    "velocity": 0.23622047244094488,
                    "duration": 0.1363637499999868
                },
                {
                    "name": "G3",
                    "midi": 55,
                    "time": 209.86381124999383,
                    "velocity": 0.28346456692913385,
                    "duration": 0.1363637499999868
                },
                {
                    "name": "G2",
                    "midi": 43,
                    "time": 210.00017499999382,
                    "velocity": 0.23622047244094488,
                    "duration": 0.1363637499999868
                },
                {
                    "name": "D#3",
                    "midi": 51,
                    "time": 210.00017499999382,
                    "velocity": 0.23622047244094488,
                    "duration": 0.1363637499999868
                },
                {
                    "name": "G3",
                    "midi": 55,
                    "time": 210.00017499999382,
                    "velocity": 0.28346456692913385,
                    "duration": 0.1363637499999868
                },
                {
                    "name": "G2",
                    "midi": 43,
                    "time": 210.1365387499938,
                    "velocity": 0.2440944881889764,
                    "duration": 0.1363637499999868
                },
                {
                    "name": "D3",
                    "midi": 50,
                    "time": 210.1365387499938,
                    "velocity": 0.2440944881889764,
                    "duration": 0.1363637499999868
                },
                {
                    "name": "G3",
                    "midi": 55,
                    "time": 210.1365387499938,
                    "velocity": 0.29133858267716534,
                    "duration": 0.1363637499999868
                },
                {
                    "name": "G2",
                    "midi": 43,
                    "time": 210.40926624999378,
                    "velocity": 0.2204724409448819,
                    "duration": 0.1363637499999868
                },
                {
                    "name": "C3",
                    "midi": 48,
                    "time": 210.40926624999378,
                    "velocity": 0.2204724409448819,
                    "duration": 0.1363637499999868
                },
                {
                    "name": "G3",
                    "midi": 55,
                    "time": 210.40926624999378,
                    "velocity": 0.2677165354330709,
                    "duration": 0.1363637499999868
                },
                {
                    "name": "G2",
                    "midi": 43,
                    "time": 210.54562999999376,
                    "velocity": 0.2204724409448819,
                    "duration": 0.1363637499999868
                },
                {
                    "name": "D#3",
                    "midi": 51,
                    "time": 210.54562999999376,
                    "velocity": 0.2204724409448819,
                    "duration": 0.1363637499999868
                },
                {
                    "name": "G3",
                    "midi": 55,
                    "time": 210.54562999999376,
                    "velocity": 0.2677165354330709,
                    "duration": 0.1363637499999868
                },
                {
                    "name": "G2",
                    "midi": 43,
                    "time": 210.68199374999375,
                    "velocity": 0.2125984251968504,
                    "duration": 0.1363637499999868
                },
                {
                    "name": "D3",
                    "midi": 50,
                    "time": 210.68199374999375,
                    "velocity": 0.2125984251968504,
                    "duration": 0.1363637499999868
                },
                {
                    "name": "G3",
                    "midi": 55,
                    "time": 210.68199374999375,
                    "velocity": 0.25984251968503935,
                    "duration": 0.1363637499999868
                },
                {
                    "name": "D4",
                    "midi": 62,
                    "time": 210.95472124999372,
                    "velocity": 0.2992125984251969,
                    "duration": 0.545455000000004
                },
                {
                    "name": "D4",
                    "midi": 62,
                    "time": 211.50017624999373,
                    "velocity": 0.25196850393700787,
                    "duration": 0.545455000000004
                },
                {
                    "name": "F#3",
                    "midi": 54,
                    "time": 211.77290374999373,
                    "velocity": 0.2125984251968504,
                    "duration": 0.272727500000002
                },
                {
                    "name": "C4",
                    "midi": 60,
                    "time": 211.77290374999373,
                    "velocity": 0.25196850393700787,
                    "duration": 0.272727500000002
                },
                {
                    "name": "D3",
                    "midi": 50,
                    "time": 212.04563124999373,
                    "velocity": 0.1889763779527559,
                    "duration": 0.272727500000002
                },
                {
                    "name": "D4",
                    "midi": 62,
                    "time": 212.04563124999373,
                    "velocity": 0.2283464566929134,
                    "duration": 0.272727500000002
                },
                {
                    "name": "G3",
                    "midi": 55,
                    "time": 212.31835874999373,
                    "velocity": 0.2125984251968504,
                    "duration": 0.272727500000002
                },
                {
                    "name": "B3",
                    "midi": 59,
                    "time": 212.31835874999373,
                    "velocity": 0.25196850393700787,
                    "duration": 0.272727500000002
                },
                {
                    "name": "D3",
                    "midi": 50,
                    "time": 212.59108624999374,
                    "velocity": 0.1889763779527559,
                    "duration": 0.272727500000002
                },
                {
                    "name": "D4",
                    "midi": 62,
                    "time": 212.59108624999374,
                    "velocity": 0.2204724409448819,
                    "duration": 0.272727500000002
                },
                {
                    "name": "D2",
                    "midi": 38,
                    "time": 212.86381374999374,
                    "velocity": 0.3700787401574803,
                    "duration": 0.1363637499999868
                },
                {
                    "name": "D3",
                    "midi": 50,
                    "time": 213.1365412499937,
                    "velocity": 0.1889763779527559,
                    "duration": 0.272727500000002
                },
                {
                    "name": "D4",
                    "midi": 62,
                    "time": 213.1365412499937,
                    "velocity": 0.2204724409448819,
                    "duration": 0.272727500000002
                },
                {
                    "name": "A3",
                    "midi": 57,
                    "time": 213.4092687499937,
                    "velocity": 0.2125984251968504,
                    "duration": 0.272727500000002
                },
                {
                    "name": "C4",
                    "midi": 60,
                    "time": 213.4092687499937,
                    "velocity": 0.25196850393700787,
                    "duration": 0.272727500000002
                },
                {
                    "name": "D3",
                    "midi": 50,
                    "time": 213.68199624999372,
                    "velocity": 0.1889763779527559,
                    "duration": 0.272727500000002
                },
                {
                    "name": "D4",
                    "midi": 62,
                    "time": 213.68199624999372,
                    "velocity": 0.2204724409448819,
                    "duration": 0.272727500000002
                },
                {
                    "name": "G3",
                    "midi": 55,
                    "time": 213.95472374999372,
                    "velocity": 0.2125984251968504,
                    "duration": 0.272727500000002
                },
                {
                    "name": "B3",
                    "midi": 59,
                    "time": 213.95472374999372,
                    "velocity": 0.25196850393700787,
                    "duration": 0.272727500000002
                },
                {
                    "name": "D3",
                    "midi": 50,
                    "time": 214.22745124999372,
                    "velocity": 0.1889763779527559,
                    "duration": 0.272727500000002
                },
                {
                    "name": "D4",
                    "midi": 62,
                    "time": 214.22745124999372,
                    "velocity": 0.2283464566929134,
                    "duration": 0.272727500000002
                },
                {
                    "name": "F#3",
                    "midi": 54,
                    "time": 214.50017874999372,
                    "velocity": 0.2125984251968504,
                    "duration": 0.272727500000002
                },
                {
                    "name": "A3",
                    "midi": 57,
                    "time": 214.50017874999372,
                    "velocity": 0.25196850393700787,
                    "duration": 0.272727500000002
                },
                {
                    "name": "D3",
                    "midi": 50,
                    "time": 214.77290624999372,
                    "velocity": 0.1889763779527559,
                    "duration": 0.272727500000002
                },
                {
                    "name": "D4",
                    "midi": 62,
                    "time": 214.77290624999372,
                    "velocity": 0.2204724409448819,
                    "duration": 0.272727500000002
                },
                {
                    "name": "G3",
                    "midi": 55,
                    "time": 215.04563374999373,
                    "velocity": 0.2125984251968504,
                    "duration": 0.272727500000002
                },
                {
                    "name": "A#3",
                    "midi": 58,
                    "time": 215.04563374999373,
                    "velocity": 0.25196850393700787,
                    "duration": 0.272727500000002
                },
                {
                    "name": "D3",
                    "midi": 50,
                    "time": 215.31836124999373,
                    "velocity": 0.2125984251968504,
                    "duration": 0.545455000000004
                },
                {
                    "name": "D4",
                    "midi": 62,
                    "time": 215.31836124999373,
                    "velocity": 0.25196850393700787,
                    "duration": 0.545455000000004
                },
                {
                    "name": "D3",
                    "midi": 50,
                    "time": 215.86381624999373,
                    "velocity": 0.2047244094488189,
                    "duration": 0.272727500000002
                },
                {
                    "name": "D4",
                    "midi": 62,
                    "time": 215.86381624999373,
                    "velocity": 0.2440944881889764,
                    "duration": 0.272727500000002
                },
                {
                    "name": "F#3",
                    "midi": 54,
                    "time": 216.13654374999373,
                    "velocity": 0.2125984251968504,
                    "duration": 0.272727500000002
                },
                {
                    "name": "A3",
                    "midi": 57,
                    "time": 216.13654374999373,
                    "velocity": 0.25196850393700787,
                    "duration": 0.272727500000002
                },
                {
                    "name": "D3",
                    "midi": 50,
                    "time": 216.40927124999374,
                    "velocity": 0.1889763779527559,
                    "duration": 0.272727500000002
                },
                {
                    "name": "D4",
                    "midi": 62,
                    "time": 216.40927124999374,
                    "velocity": 0.2204724409448819,
                    "duration": 0.272727500000002
                },
                {
                    "name": "G3",
                    "midi": 55,
                    "time": 216.68199874999374,
                    "velocity": 0.2125984251968504,
                    "duration": 0.272727500000002
                },
                {
                    "name": "A#3",
                    "midi": 58,
                    "time": 216.68199874999374,
                    "velocity": 0.25196850393700787,
                    "duration": 0.272727500000002
                },
                {
                    "name": "D3",
                    "midi": 50,
                    "time": 216.95472624999374,
                    "velocity": 0.1889763779527559,
                    "duration": 0.272727500000002
                },
                {
                    "name": "D4",
                    "midi": 62,
                    "time": 216.95472624999374,
                    "velocity": 0.2204724409448819,
                    "duration": 0.272727500000002
                },
                {
                    "name": "G#3",
                    "midi": 56,
                    "time": 217.22745374999374,
                    "velocity": 0.2125984251968504,
                    "duration": 0.272727500000002
                },
                {
                    "name": "B3",
                    "midi": 59,
                    "time": 217.22745374999374,
                    "velocity": 0.25196850393700787,
                    "duration": 0.272727500000002
                },
                {
                    "name": "D3",
                    "midi": 50,
                    "time": 217.50018124999374,
                    "velocity": 0.1889763779527559,
                    "duration": 0.272727500000002
                },
                {
                    "name": "D4",
                    "midi": 62,
                    "time": 217.50018124999374,
                    "velocity": 0.2204724409448819,
                    "duration": 0.272727500000002
                },
                {
                    "name": "A3",
                    "midi": 57,
                    "time": 217.77290874999375,
                    "velocity": 0.2125984251968504,
                    "duration": 0.272727500000002
                },
                {
                    "name": "C4",
                    "midi": 60,
                    "time": 217.77290874999375,
                    "velocity": 0.2283464566929134,
                    "duration": 0.272727500000002
                },
                {
                    "name": "D3",
                    "midi": 50,
                    "time": 218.04563624999375,
                    "velocity": 0.1889763779527559,
                    "duration": 0.545455000000004
                },
                {
                    "name": "D4",
                    "midi": 62,
                    "time": 218.04563624999375,
                    "velocity": 0.25196850393700787,
                    "duration": 0.545455000000004
                },
                {
                    "name": "D3",
                    "midi": 50,
                    "time": 218.59109124999375,
                    "velocity": 0.1889763779527559,
                    "duration": 0.272727500000002
                },
                {
                    "name": "D4",
                    "midi": 62,
                    "time": 218.59109124999375,
                    "velocity": 0.2283464566929134,
                    "duration": 0.272727500000002
                },
                {
                    "name": "G3",
                    "midi": 55,
                    "time": 218.86381874999375,
                    "velocity": 0.2125984251968504,
                    "duration": 0.272727500000002
                },
                {
                    "name": "A#3",
                    "midi": 58,
                    "time": 218.86381874999375,
                    "velocity": 0.25196850393700787,
                    "duration": 0.272727500000002
                },
                {
                    "name": "D3",
                    "midi": 50,
                    "time": 219.13654624999376,
                    "velocity": 0.1889763779527559,
                    "duration": 0.272727500000002
                },
                {
                    "name": "D4",
                    "midi": 62,
                    "time": 219.13654624999376,
                    "velocity": 0.2204724409448819,
                    "duration": 0.272727500000002
                },
                {
                    "name": "D2",
                    "midi": 38,
                    "time": 219.40927374999376,
                    "velocity": 0.3700787401574803,
                    "duration": 0.13636375000001522
                },
                {
                    "name": "D3",
                    "midi": 50,
                    "time": 219.68200124999376,
                    "velocity": 0.1889763779527559,
                    "duration": 0.272727500000002
                },
                {
                    "name": "D4",
                    "midi": 62,
                    "time": 219.68200124999376,
                    "velocity": 0.2204724409448819,
                    "duration": 0.272727500000002
                },
                {
                    "name": "F#3",
                    "midi": 54,
                    "time": 219.95472874999376,
                    "velocity": 0.2125984251968504,
                    "duration": 0.272727500000002
                },
                {
                    "name": "C4",
                    "midi": 60,
                    "time": 219.95472874999376,
                    "velocity": 0.25196850393700787,
                    "duration": 0.272727500000002
                },
                {
                    "name": "D3",
                    "midi": 50,
                    "time": 220.22745624999376,
                    "velocity": 0.1889763779527559,
                    "duration": 0.272727500000002
                },
                {
                    "name": "D4",
                    "midi": 62,
                    "time": 220.22745624999376,
                    "velocity": 0.2204724409448819,
                    "duration": 0.272727500000002
                },
                {
                    "name": "G3",
                    "midi": 55,
                    "time": 220.50018374999377,
                    "velocity": 0.2125984251968504,
                    "duration": 0.272727500000002
                },
                {
                    "name": "A#3",
                    "midi": 58,
                    "time": 220.50018374999377,
                    "velocity": 0.25196850393700787,
                    "duration": 0.272727500000002
                },
                {
                    "name": "D3",
                    "midi": 50,
                    "time": 220.77291124999377,
                    "velocity": 0.1889763779527559,
                    "duration": 0.272727500000002
                },
                {
                    "name": "D4",
                    "midi": 62,
                    "time": 220.77291124999377,
                    "velocity": 0.2283464566929134,
                    "duration": 0.272727500000002
                },
                {
                    "name": "G3",
                    "midi": 55,
                    "time": 221.04563874999377,
                    "velocity": 0.2677165354330709,
                    "duration": 0.272727500000002
                },
                {
                    "name": "A#3",
                    "midi": 58,
                    "time": 221.04563874999377,
                    "velocity": 0.31496062992125984,
                    "duration": 0.272727500000002
                },
                {
                    "name": "D3",
                    "midi": 50,
                    "time": 221.31836624999377,
                    "velocity": 0.23622047244094488,
                    "duration": 0.545455000000004
                },
                {
                    "name": "D#4",
                    "midi": 63,
                    "time": 221.31836624999377,
                    "velocity": 0.28346456692913385,
                    "duration": 0.545455000000004
                },
                {
                    "name": "D3",
                    "midi": 50,
                    "time": 221.86382124999378,
                    "velocity": 0.2677165354330709,
                    "duration": 0.272727500000002
                },
                {
                    "name": "D#4",
                    "midi": 63,
                    "time": 221.86382124999378,
                    "velocity": 0.31496062992125984,
                    "duration": 0.272727500000002
                },
                {
                    "name": "G3",
                    "midi": 55,
                    "time": 222.13654874999378,
                    "velocity": 0.25984251968503935,
                    "duration": 0.272727500000002
                },
                {
                    "name": "A#3",
                    "midi": 58,
                    "time": 222.13654874999378,
                    "velocity": 0.30708661417322836,
                    "duration": 0.272727500000002
                },
                {
                    "name": "D3",
                    "midi": 50,
                    "time": 222.40927624999378,
                    "velocity": 0.25984251968503935,
                    "duration": 0.272727500000002
                },
                {
                    "name": "D#4",
                    "midi": 63,
                    "time": 222.40927624999378,
                    "velocity": 0.30708661417322836,
                    "duration": 0.272727500000002
                },
                {
                    "name": "F#3",
                    "midi": 54,
                    "time": 222.68200374999378,
                    "velocity": 0.2283464566929134,
                    "duration": 0.272727500000002
                },
                {
                    "name": "A3",
                    "midi": 57,
                    "time": 222.68200374999378,
                    "velocity": 0.2283464566929134,
                    "duration": 0.272727500000002
                },
                {
                    "name": "D4",
                    "midi": 62,
                    "time": 222.68200374999378,
                    "velocity": 0.2755905511811024,
                    "duration": 0.272727500000002
                },
                {
                    "name": "D3",
                    "midi": 50,
                    "time": 222.95473124999378,
                    "velocity": 0.28346456692913385,
                    "duration": 0.272727500000002
                },
                {
                    "name": "G3",
                    "midi": 55,
                    "time": 223.2274587499938,
                    "velocity": 0.25196850393700787,
                    "duration": 0.272727500000002
                },
                {
                    "name": "A#3",
                    "midi": 58,
                    "time": 223.2274587499938,
                    "velocity": 0.25196850393700787,
                    "duration": 0.272727500000002
                },
                {
                    "name": "D#4",
                    "midi": 63,
                    "time": 223.2274587499938,
                    "velocity": 0.2992125984251969,
                    "duration": 0.272727500000002
                },
                {
                    "name": "C#3",
                    "midi": 49,
                    "time": 223.5001862499938,
                    "velocity": 0.31496062992125984,
                    "duration": 0.272727500000002
                },
                {
                    "name": "G3",
                    "midi": 55,
                    "time": 223.7729137499938,
                    "velocity": 0.28346456692913385,
                    "duration": 0.2727274999999736
                },
                {
                    "name": "A#3",
                    "midi": 58,
                    "time": 223.7729137499938,
                    "velocity": 0.28346456692913385,
                    "duration": 0.2727274999999736
                },
                {
                    "name": "E4",
                    "midi": 64,
                    "time": 223.7729137499938,
                    "velocity": 0.33070866141732286,
                    "duration": 0.2727274999999736
                },
                {
                    "name": "C3",
                    "midi": 48,
                    "time": 224.04564124999376,
                    "velocity": 0.33858267716535434,
                    "duration": 0.272727500000002
                },
                {
                    "name": "F2",
                    "midi": 41,
                    "time": 224.31836874999377,
                    "velocity": 0.4094488188976378,
                    "duration": 0.13636375000001522
                },
                {
                    "name": "F3",
                    "midi": 53,
                    "time": 224.59109624999377,
                    "velocity": 0.2677165354330709,
                    "duration": 0.545455000000004
                },
                {
                    "name": "F4",
                    "midi": 65,
                    "time": 224.59109624999377,
                    "velocity": 0.3464566929133858,
                    "duration": 0.545455000000004
                },
                {
                    "name": "F3",
                    "midi": 53,
                    "time": 225.13655124999377,
                    "velocity": 0.2677165354330709,
                    "duration": 0.272727500000002
                },
                {
                    "name": "F4",
                    "midi": 65,
                    "time": 225.13655124999377,
                    "velocity": 0.31496062992125984,
                    "duration": 0.272727500000002
                },
                {
                    "name": "A#3",
                    "midi": 58,
                    "time": 225.40927874999377,
                    "velocity": 0.29133858267716534,
                    "duration": 0.272727500000002
                },
                {
                    "name": "C#4",
                    "midi": 61,
                    "time": 225.40927874999377,
                    "velocity": 0.3464566929133858,
                    "duration": 0.272727500000002
                },
                {
                    "name": "F3",
                    "midi": 53,
                    "time": 225.68200624999378,
                    "velocity": 0.25984251968503935,
                    "duration": 0.272727500000002
                },
                {
                    "name": "F4",
                    "midi": 65,
                    "time": 225.68200624999378,
                    "velocity": 0.30708661417322836,
                    "duration": 0.272727500000002
                },
                {
                    "name": "F1",
                    "midi": 29,
                    "time": 225.95473374999378,
                    "velocity": 0.4409448818897638,
                    "duration": 0.1363637499999868
                },
                {
                    "name": "F3",
                    "midi": 53,
                    "time": 226.22746124999375,
                    "velocity": 0.25984251968503935,
                    "duration": 0.272727500000002
                },
                {
                    "name": "F4",
                    "midi": 65,
                    "time": 226.22746124999375,
                    "velocity": 0.30708661417322836,
                    "duration": 0.272727500000002
                },
                {
                    "name": "A3",
                    "midi": 57,
                    "time": 226.50018874999375,
                    "velocity": 0.29133858267716534,
                    "duration": 0.272727500000002
                },
                {
                    "name": "D#4",
                    "midi": 63,
                    "time": 226.50018874999375,
                    "velocity": 0.3464566929133858,
                    "duration": 0.272727500000002
                },
                {
                    "name": "F3",
                    "midi": 53,
                    "time": 226.77291624999376,
                    "velocity": 0.25984251968503935,
                    "duration": 0.272727500000002
                },
                {
                    "name": "F4",
                    "midi": 65,
                    "time": 226.77291624999376,
                    "velocity": 0.30708661417322836,
                    "duration": 0.272727500000002
                },
                {
                    "name": "A#3",
                    "midi": 58,
                    "time": 227.04564374999376,
                    "velocity": 0.29133858267716534,
                    "duration": 0.272727500000002
                },
                {
                    "name": "C#4",
                    "midi": 61,
                    "time": 227.04564374999376,
                    "velocity": 0.3464566929133858,
                    "duration": 0.272727500000002
                },
                {
                    "name": "F3",
                    "midi": 53,
                    "time": 227.31837124999376,
                    "velocity": 0.2677165354330709,
                    "duration": 0.272727500000002
                },
                {
                    "name": "F4",
                    "midi": 65,
                    "time": 227.31837124999376,
                    "velocity": 0.31496062992125984,
                    "duration": 0.272727500000002
                },
                {
                    "name": "A#3",
                    "midi": 58,
                    "time": 227.59109874999376,
                    "velocity": 0.29133858267716534,
                    "duration": 0.272727500000002
                },
                {
                    "name": "C#4",
                    "midi": 61,
                    "time": 227.59109874999376,
                    "velocity": 0.3464566929133858,
                    "duration": 0.272727500000002
                },
                {
                    "name": "F3",
                    "midi": 53,
                    "time": 227.86382624999376,
                    "velocity": 0.25984251968503935,
                    "duration": 0.545455000000004
                },
                {
                    "name": "F#4",
                    "midi": 66,
                    "time": 227.86382624999376,
                    "velocity": 0.30708661417322836,
                    "duration": 0.545455000000004
                },
                {
                    "name": "F3",
                    "midi": 53,
                    "time": 228.40928124999377,
                    "velocity": 0.29133858267716534,
                    "duration": 0.272727500000002
                },
                {
                    "name": "F#4",
                    "midi": 66,
                    "time": 228.40928124999377,
                    "velocity": 0.3464566929133858,
                    "duration": 0.272727500000002
                },
                {
                    "name": "A#3",
                    "midi": 58,
                    "time": 228.68200874999377,
                    "velocity": 0.28346456692913385,
                    "duration": 0.272727500000002
                },
                {
                    "name": "C#4",
                    "midi": 61,
                    "time": 228.68200874999377,
                    "velocity": 0.33070866141732286,
                    "duration": 0.272727500000002
                },
                {
                    "name": "F3",
                    "midi": 53,
                    "time": 228.95473624999377,
                    "velocity": 0.28346456692913385,
                    "duration": 0.272727500000002
                },
                {
                    "name": "F#4",
                    "midi": 66,
                    "time": 228.95473624999377,
                    "velocity": 0.33070866141732286,
                    "duration": 0.272727500000002
                },
                {
                    "name": "A3",
                    "midi": 57,
                    "time": 229.22746374999377,
                    "velocity": 0.2440944881889764,
                    "duration": 0.272727500000002
                },
                {
                    "name": "C4",
                    "midi": 60,
                    "time": 229.22746374999377,
                    "velocity": 0.2992125984251969,
                    "duration": 0.272727500000002
                },
                {
                    "name": "F3",
                    "midi": 53,
                    "time": 229.50019124999378,
                    "velocity": 0.25984251968503935,
                    "duration": 0.272727500000002
                },
                {
                    "name": "F4",
                    "midi": 65,
                    "time": 229.50019124999378,
                    "velocity": 0.2992125984251969,
                    "duration": 0.272727500000002
                },
                {
                    "name": "A#3",
                    "midi": 58,
                    "time": 229.77291874999378,
                    "velocity": 0.25196850393700787,
                    "duration": 0.272727500000002
                },
                {
                    "name": "C#4",
                    "midi": 61,
                    "time": 229.77291874999378,
                    "velocity": 0.2992125984251969,
                    "duration": 0.272727500000002
                },
                {
                    "name": "F3",
                    "midi": 53,
                    "time": 230.04564624999378,
                    "velocity": 0.2440944881889764,
                    "duration": 0.272727500000002
                },
                {
                    "name": "F4",
                    "midi": 65,
                    "time": 230.04564624999378,
                    "velocity": 0.2992125984251969,
                    "duration": 0.272727500000002
                },
                {
                    "name": "B3",
                    "midi": 59,
                    "time": 230.31837374999378,
                    "velocity": 0.25196850393700787,
                    "duration": 0.2727274999999736
                },
                {
                    "name": "D4",
                    "midi": 62,
                    "time": 230.31837374999378,
                    "velocity": 0.29133858267716534,
                    "duration": 0.2727274999999736
                },
                {
                    "name": "F3",
                    "midi": 53,
                    "time": 230.59110124999376,
                    "velocity": 0.2283464566929134,
                    "duration": 0.272727500000002
                },
                {
                    "name": "F4",
                    "midi": 65,
                    "time": 230.59110124999376,
                    "velocity": 0.28346456692913385,
                    "duration": 0.272727500000002
                },
                {
                    "name": "C4",
                    "midi": 60,
                    "time": 230.86382874999376,
                    "velocity": 0.2204724409448819,
                    "duration": 0.272727500000002
                },
                {
                    "name": "D#4",
                    "midi": 63,
                    "time": 230.86382874999376,
                    "velocity": 0.2440944881889764,
                    "duration": 0.272727500000002
                },
                {
                    "name": "F3",
                    "midi": 53,
                    "time": 231.13655624999376,
                    "velocity": 0.2047244094488189,
                    "duration": 0.545455000000004
                },
                {
                    "name": "F4",
                    "midi": 65,
                    "time": 231.13655624999376,
                    "velocity": 0.2677165354330709,
                    "duration": 0.545455000000004
                },
                {
                    "name": "F3",
                    "midi": 53,
                    "time": 231.68201124999376,
                    "velocity": 0.2047244094488189,
                    "duration": 0.272727500000002
                },
                {
                    "name": "F4",
                    "midi": 65,
                    "time": 231.68201124999376,
                    "velocity": 0.2440944881889764,
                    "duration": 0.272727500000002
                },
                {
                    "name": "A#3",
                    "midi": 58,
                    "time": 231.95473874999377,
                    "velocity": 0.2204724409448819,
                    "duration": 0.272727500000002
                },
                {
                    "name": "C#4",
                    "midi": 61,
                    "time": 231.95473874999377,
                    "velocity": 0.2677165354330709,
                    "duration": 0.272727500000002
                },
                {
                    "name": "F3",
                    "midi": 53,
                    "time": 232.22746624999377,
                    "velocity": 0.1968503937007874,
                    "duration": 0.272727500000002
                },
                {
                    "name": "F4",
                    "midi": 65,
                    "time": 232.22746624999377,
                    "velocity": 0.23622047244094488,
                    "duration": 0.272727500000002
                },
                {
                    "name": "F1",
                    "midi": 29,
                    "time": 232.50019374999377,
                    "velocity": 0.33858267716535434,
                    "duration": 0.1363637499999868
                },
                {
                    "name": "F3",
                    "midi": 53,
                    "time": 232.77292124999374,
                    "velocity": 0.1968503937007874,
                    "duration": 0.272727500000002
                },
                {
                    "name": "F4",
                    "midi": 65,
                    "time": 232.77292124999374,
                    "velocity": 0.23622047244094488,
                    "duration": 0.272727500000002
                },
                {
                    "name": "A3",
                    "midi": 57,
                    "time": 233.04564874999375,
                    "velocity": 0.2204724409448819,
                    "duration": 0.272727500000002
                },
                {
                    "name": "D#4",
                    "midi": 63,
                    "time": 233.04564874999375,
                    "velocity": 0.2677165354330709,
                    "duration": 0.272727500000002
                },
                {
                    "name": "F3",
                    "midi": 53,
                    "time": 233.31837624999375,
                    "velocity": 0.1968503937007874,
                    "duration": 0.272727500000002
                },
                {
                    "name": "F4",
                    "midi": 65,
                    "time": 233.31837624999375,
                    "velocity": 0.23622047244094488,
                    "duration": 0.272727500000002
                },
                {
                    "name": "A#3",
                    "midi": 58,
                    "time": 233.59110374999375,
                    "velocity": 0.2204724409448819,
                    "duration": 0.272727500000002
                },
                {
                    "name": "C#4",
                    "midi": 61,
                    "time": 233.59110374999375,
                    "velocity": 0.2677165354330709,
                    "duration": 0.272727500000002
                },
                {
                    "name": "F3",
                    "midi": 53,
                    "time": 233.86383124999375,
                    "velocity": 0.2047244094488189,
                    "duration": 0.272727500000002
                },
                {
                    "name": "F4",
                    "midi": 65,
                    "time": 233.86383124999375,
                    "velocity": 0.2440944881889764,
                    "duration": 0.272727500000002
                },
                {
                    "name": "F2",
                    "midi": 41,
                    "time": 234.13655874999375,
                    "velocity": 0.4015748031496063,
                    "duration": 0.13636375000001522
                },
                {
                    "name": "C3",
                    "midi": 48,
                    "time": 234.40928624999376,
                    "velocity": 0.2047244094488189,
                    "duration": 0.545455000000004
                },
                {
                    "name": "C4",
                    "midi": 60,
                    "time": 234.40928624999376,
                    "velocity": 0.2677165354330709,
                    "duration": 0.545455000000004
                },
                {
                    "name": "C3",
                    "midi": 48,
                    "time": 234.95474124999376,
                    "velocity": 0.2047244094488189,
                    "duration": 0.272727500000002
                },
                {
                    "name": "C4",
                    "midi": 60,
                    "time": 234.95474124999376,
                    "velocity": 0.2440944881889764,
                    "duration": 0.272727500000002
                },
                {
                    "name": "F3",
                    "midi": 53,
                    "time": 235.22746874999376,
                    "velocity": 0.2204724409448819,
                    "duration": 0.272727500000002
                },
                {
                    "name": "G#3",
                    "midi": 56,
                    "time": 235.22746874999376,
                    "velocity": 0.2677165354330709,
                    "duration": 0.272727500000002
                },
                {
                    "name": "C3",
                    "midi": 48,
                    "time": 235.50019624999376,
                    "velocity": 0.1968503937007874,
                    "duration": 0.272727500000002
                },
                {
                    "name": "C4",
                    "midi": 60,
                    "time": 235.50019624999376,
                    "velocity": 0.23622047244094488,
                    "duration": 0.272727500000002
                },
                {
                    "name": "D#2",
                    "midi": 39,
                    "time": 235.77292374999377,
                    "velocity": 0.3700787401574803,
                    "duration": 0.13636375000001522
                },
                {
                    "name": "C3",
                    "midi": 48,
                    "time": 236.04565124999377,
                    "velocity": 0.2047244094488189,
                    "duration": 0.545455000000004
                },
                {
                    "name": "C4",
                    "midi": 60,
                    "time": 236.04565124999377,
                    "velocity": 0.2677165354330709,
                    "duration": 0.545455000000004
                },
                {
                    "name": "C3",
                    "midi": 48,
                    "time": 236.59110624999377,
                    "velocity": 0.2047244094488189,
                    "duration": 0.272727500000002
                },
                {
                    "name": "C4",
                    "midi": 60,
                    "time": 236.59110624999377,
                    "velocity": 0.2440944881889764,
                    "duration": 0.272727500000002
                },
                {
                    "name": "C#2",
                    "midi": 37,
                    "time": 236.86383374999377,
                    "velocity": 0.3779527559055118,
                    "duration": 0.1363637499999868
                },
                {
                    "name": "C#3",
                    "midi": 49,
                    "time": 237.13656124999375,
                    "velocity": 0.1968503937007874,
                    "duration": 0.272727500000002
                },
                {
                    "name": "C4",
                    "midi": 60,
                    "time": 237.13656124999375,
                    "velocity": 0.23622047244094488,
                    "duration": 0.272727500000002
                },
                {
                    "name": "C2",
                    "midi": 36,
                    "time": 237.40928874999375,
                    "velocity": 0.3858267716535433,
                    "duration": 0.1363637499999868
                },
                {
                    "name": "C3",
                    "midi": 48,
                    "time": 237.68201624999372,
                    "velocity": 0.2047244094488189,
                    "duration": 0.545455000000004
                },
                {
                    "name": "C4",
                    "midi": 60,
                    "time": 237.68201624999372,
                    "velocity": 0.2677165354330709,
                    "duration": 0.545455000000004
                },
                {
                    "name": "C3",
                    "midi": 48,
                    "time": 238.22747124999373,
                    "velocity": 0.2047244094488189,
                    "duration": 0.272727500000002
                },
                {
                    "name": "C4",
                    "midi": 60,
                    "time": 238.22747124999373,
                    "velocity": 0.2440944881889764,
                    "duration": 0.272727500000002
                },
                {
                    "name": "F3",
                    "midi": 53,
                    "time": 238.50019874999373,
                    "velocity": 0.2204724409448819,
                    "duration": 0.272727500000002
                },
                {
                    "name": "G#3",
                    "midi": 56,
                    "time": 238.50019874999373,
                    "velocity": 0.2677165354330709,
                    "duration": 0.272727500000002
                },
                {
                    "name": "C3",
                    "midi": 48,
                    "time": 238.77292624999373,
                    "velocity": 0.1968503937007874,
                    "duration": 0.272727500000002
                },
                {
                    "name": "C4",
                    "midi": 60,
                    "time": 238.77292624999373,
                    "velocity": 0.23622047244094488,
                    "duration": 0.272727500000002
                },
                {
                    "name": "D#2",
                    "midi": 39,
                    "time": 239.04565374999373,
                    "velocity": 0.3937007874015748,
                    "duration": 0.1363637499999868
                },
                {
                    "name": "C3",
                    "midi": 48,
                    "time": 239.3183812499937,
                    "velocity": 0.2047244094488189,
                    "duration": 0.545455000000004
                },
                {
                    "name": "C4",
                    "midi": 60,
                    "time": 239.3183812499937,
                    "velocity": 0.2677165354330709,
                    "duration": 0.545455000000004
                },
                {
                    "name": "C3",
                    "midi": 48,
                    "time": 239.8638362499937,
                    "velocity": 0.2047244094488189,
                    "duration": 0.272727500000002
                },
                {
                    "name": "C4",
                    "midi": 60,
                    "time": 239.8638362499937,
                    "velocity": 0.2440944881889764,
                    "duration": 0.272727500000002
                },
                {
                    "name": "C#2",
                    "midi": 37,
                    "time": 240.1365637499937,
                    "velocity": 0.4015748031496063,
                    "duration": 0.1363637499999868
                },
                {
                    "name": "C#3",
                    "midi": 49,
                    "time": 240.4092912499937,
                    "velocity": 0.1968503937007874,
                    "duration": 0.272727500000002
                },
                {
                    "name": "C4",
                    "midi": 60,
                    "time": 240.4092912499937,
                    "velocity": 0.23622047244094488,
                    "duration": 0.272727500000002
                },
                {
                    "name": "C2",
                    "midi": 36,
                    "time": 240.6820187499937,
                    "velocity": 0.3858267716535433,
                    "duration": 0.13636375000001522
                },
                {
                    "name": "C3",
                    "midi": 48,
                    "time": 240.9547462499937,
                    "velocity": 0.2047244094488189,
                    "duration": 0.545455000000004
                },
                {
                    "name": "C4",
                    "midi": 60,
                    "time": 240.9547462499937,
                    "velocity": 0.2677165354330709,
                    "duration": 0.545455000000004
                },
                {
                    "name": "C3",
                    "midi": 48,
                    "time": 241.5002012499937,
                    "velocity": 0.2047244094488189,
                    "duration": 0.272727500000002
                },
                {
                    "name": "C4",
                    "midi": 60,
                    "time": 241.5002012499937,
                    "velocity": 0.2440944881889764,
                    "duration": 0.272727500000002
                },
                {
                    "name": "F3",
                    "midi": 53,
                    "time": 241.7729287499937,
                    "velocity": 0.2204724409448819,
                    "duration": 0.272727500000002
                },
                {
                    "name": "G#3",
                    "midi": 56,
                    "time": 241.7729287499937,
                    "velocity": 0.2677165354330709,
                    "duration": 0.272727500000002
                },
                {
                    "name": "C3",
                    "midi": 48,
                    "time": 242.0456562499937,
                    "velocity": 0.1968503937007874,
                    "duration": 0.272727500000002
                },
                {
                    "name": "C4",
                    "midi": 60,
                    "time": 242.0456562499937,
                    "velocity": 0.23622047244094488,
                    "duration": 0.272727500000002
                },
                {
                    "name": "D#3",
                    "midi": 51,
                    "time": 242.3183837499937,
                    "velocity": 0.2204724409448819,
                    "duration": 0.272727500000002
                },
                {
                    "name": "G3",
                    "midi": 55,
                    "time": 242.3183837499937,
                    "velocity": 0.30708661417322836,
                    "duration": 0.272727500000002
                },
                {
                    "name": "C3",
                    "midi": 48,
                    "time": 242.5911112499937,
                    "velocity": 0.2047244094488189,
                    "duration": 0.545455000000004
                },
                {
                    "name": "C4",
                    "midi": 60,
                    "time": 242.5911112499937,
                    "velocity": 0.2677165354330709,
                    "duration": 0.545455000000004
                },
                {
                    "name": "C3",
                    "midi": 48,
                    "time": 243.1365662499937,
                    "velocity": 0.2047244094488189,
                    "duration": 0.272727500000002
                },
                {
                    "name": "C4",
                    "midi": 60,
                    "time": 243.1365662499937,
                    "velocity": 0.2440944881889764,
                    "duration": 0.272727500000002
                },
                {
                    "name": "C#3",
                    "midi": 49,
                    "time": 243.4092937499937,
                    "velocity": 0.2204724409448819,
                    "duration": 0.2727274999999736
                },
                {
                    "name": "F3",
                    "midi": 53,
                    "time": 243.4092937499937,
                    "velocity": 0.2677165354330709,
                    "duration": 0.2727274999999736
                },
                {
                    "name": "C3",
                    "midi": 48,
                    "time": 243.68202124999368,
                    "velocity": 0.1968503937007874,
                    "duration": 0.272727500000002
                },
                {
                    "name": "C4",
                    "midi": 60,
                    "time": 243.68202124999368,
                    "velocity": 0.23622047244094488,
                    "duration": 0.272727500000002
                },
                {
                    "name": "E3",
                    "midi": 52,
                    "time": 243.95474874999368,
                    "velocity": 0.30708661417322836,
                    "duration": 0.272727500000002
                },
                {
                    "name": "C3",
                    "midi": 48,
                    "time": 244.22747624999369,
                    "velocity": 0.2047244094488189,
                    "duration": 0.545455000000004
                },
                {
                    "name": "C4",
                    "midi": 60,
                    "time": 244.22747624999369,
                    "velocity": 0.2677165354330709,
                    "duration": 0.545455000000004
                },
                {
                    "name": "C3",
                    "midi": 48,
                    "time": 244.7729312499937,
                    "velocity": 0.2047244094488189,
                    "duration": 0.272727500000002
                },
                {
                    "name": "C4",
                    "midi": 60,
                    "time": 244.7729312499937,
                    "velocity": 0.2440944881889764,
                    "duration": 0.272727500000002
                },
                {
                    "name": "F3",
                    "midi": 53,
                    "time": 245.0456587499937,
                    "velocity": 0.2204724409448819,
                    "duration": 0.2727274999999736
                },
                {
                    "name": "G#3",
                    "midi": 56,
                    "time": 245.0456587499937,
                    "velocity": 0.2677165354330709,
                    "duration": 0.2727274999999736
                },
                {
                    "name": "C3",
                    "midi": 48,
                    "time": 245.31838624999367,
                    "velocity": 0.1968503937007874,
                    "duration": 0.272727500000002
                },
                {
                    "name": "C4",
                    "midi": 60,
                    "time": 245.31838624999367,
                    "velocity": 0.23622047244094488,
                    "duration": 0.272727500000002
                },
                {
                    "name": "D#3",
                    "midi": 51,
                    "time": 245.59111374999367,
                    "velocity": 0.2204724409448819,
                    "duration": 0.272727500000002
                },
                {
                    "name": "G3",
                    "midi": 55,
                    "time": 245.59111374999367,
                    "velocity": 0.30708661417322836,
                    "duration": 0.272727500000002
                },
                {
                    "name": "C3",
                    "midi": 48,
                    "time": 245.86384124999367,
                    "velocity": 0.2047244094488189,
                    "duration": 0.545455000000004
                },
                {
                    "name": "C4",
                    "midi": 60,
                    "time": 245.86384124999367,
                    "velocity": 0.2677165354330709,
                    "duration": 0.545455000000004
                },
                {
                    "name": "C3",
                    "midi": 48,
                    "time": 246.40929624999367,
                    "velocity": 0.2047244094488189,
                    "duration": 0.272727500000002
                },
                {
                    "name": "C4",
                    "midi": 60,
                    "time": 246.40929624999367,
                    "velocity": 0.2440944881889764,
                    "duration": 0.272727500000002
                },
                {
                    "name": "C#3",
                    "midi": 49,
                    "time": 246.68202374999368,
                    "velocity": 0.2204724409448819,
                    "duration": 0.272727500000002
                },
                {
                    "name": "F3",
                    "midi": 53,
                    "time": 246.68202374999368,
                    "velocity": 0.2677165354330709,
                    "duration": 0.272727500000002
                },
                {
                    "name": "C3",
                    "midi": 48,
                    "time": 246.95475124999368,
                    "velocity": 0.1968503937007874,
                    "duration": 0.545455000000004
                },
                {
                    "name": "C4",
                    "midi": 60,
                    "time": 246.95475124999368,
                    "velocity": 0.23622047244094488,
                    "duration": 0.545455000000004
                },
                {
                    "name": "E3",
                    "midi": 52,
                    "time": 247.22747874999368,
                    "velocity": 0.2677165354330709,
                    "duration": 0.272727500000002
                },
                {
                    "name": "F#3",
                    "midi": 54,
                    "time": 247.77293374999368,
                    "velocity": 0.29133858267716534,
                    "duration": 0.1363637499999868
                },
                {
                    "name": "G3",
                    "midi": 55,
                    "time": 247.90929749999367,
                    "velocity": 0.30708661417322836,
                    "duration": 0.1363637499999868
                },
                {
                    "name": "G#3",
                    "midi": 56,
                    "time": 248.04566124999366,
                    "velocity": 0.33858267716535434,
                    "duration": 0.1363637499999868
                },
                {
                    "name": "A#3",
                    "midi": 58,
                    "time": 248.18202499999364,
                    "velocity": 0.36220472440944884,
                    "duration": 0.1363637499999868
                },
                {
                    "name": "G#3",
                    "midi": 56,
                    "time": 248.31838874999363,
                    "velocity": 0.3779527559055118,
                    "duration": 0.1363637499999868
                },
                {
                    "name": "G3",
                    "midi": 55,
                    "time": 248.45475249999362,
                    "velocity": 0.3779527559055118,
                    "duration": 0.1363637499999868
                },
                {
                    "name": "F3",
                    "midi": 53,
                    "time": 248.5911162499936,
                    "velocity": 0.3779527559055118,
                    "duration": 0.1363637499999868
                },
                {
                    "name": "E3",
                    "midi": 52,
                    "time": 248.7274799999936,
                    "velocity": 0.3858267716535433,
                    "duration": 0.1363637499999868
                },
                {
                    "name": "D#3",
                    "midi": 51,
                    "time": 248.86384374999358,
                    "velocity": 0.3779527559055118,
                    "duration": 0.1363637499999868
                },
                {
                    "name": "E3",
                    "midi": 52,
                    "time": 249.00020749999356,
                    "velocity": 0.4015748031496063,
                    "duration": 0.1363637499999868
                },
                {
                    "name": "F3",
                    "midi": 53,
                    "time": 249.13657124999355,
                    "velocity": 0.41732283464566927,
                    "duration": 0.1363637499999868
                },
                {
                    "name": "G3",
                    "midi": 55,
                    "time": 249.27293499999354,
                    "velocity": 0.4330708661417323,
                    "duration": 0.1363637499999868
                },
                {
                    "name": "C#3",
                    "midi": 49,
                    "time": 249.40929874999352,
                    "velocity": 0.4881889763779528,
                    "duration": 0.272727500000002
                },
                {
                    "name": "G3",
                    "midi": 55,
                    "time": 249.54566249999354,
                    "velocity": 0.4409448818897638,
                    "duration": 0.1363637499999868
                },
                {
                    "name": "C3",
                    "midi": 48,
                    "time": 249.68202624999353,
                    "velocity": 0.47244094488188976,
                    "duration": 0.272727500000002
                },
                {
                    "name": "G3",
                    "midi": 55,
                    "time": 249.8183899999935,
                    "velocity": 0.41732283464566927,
                    "duration": 0.13636375000001522
                },
                {
                    "name": "B2",
                    "midi": 47,
                    "time": 249.95475374999353,
                    "velocity": 0.4015748031496063,
                    "duration": 0.1363637499999868
                },
                {
                    "name": "C3",
                    "midi": 48,
                    "time": 250.09111749999352,
                    "velocity": 0.41732283464566927,
                    "duration": 0.1363637499999868
                },
                {
                    "name": "C#3",
                    "midi": 49,
                    "time": 250.2274812499935,
                    "velocity": 0.4251968503937008,
                    "duration": 0.1363637499999868
                },
                {
                    "name": "D#3",
                    "midi": 51,
                    "time": 250.3638449999935,
                    "velocity": 0.44881889763779526,
                    "duration": 0.1363637499999868
                },
                {
                    "name": "C#3",
                    "midi": 49,
                    "time": 250.50020874999348,
                    "velocity": 0.47244094488188976,
                    "duration": 0.1363637499999868
                },
                {
                    "name": "C3",
                    "midi": 48,
                    "time": 250.63657249999346,
                    "velocity": 0.4566929133858268,
                    "duration": 0.1363637499999868
                },
                {
                    "name": "A#2",
                    "midi": 46,
                    "time": 250.77293624999345,
                    "velocity": 0.4409448818897638,
                    "duration": 0.1363637499999868
                },
                {
                    "name": "G#2",
                    "midi": 44,
                    "time": 250.90929999999344,
                    "velocity": 0.4330708661417323,
                    "duration": 0.1363637499999868
                },
                {
                    "name": "G2",
                    "midi": 43,
                    "time": 251.04566374999342,
                    "velocity": 0.5039370078740157,
                    "duration": 0.4090912499999604
                },
                {
                    "name": "C3",
                    "midi": 48,
                    "time": 251.1820274999934,
                    "velocity": 0.4566929133858268,
                    "duration": 0.1363637499999868
                },
                {
                    "name": "A#2",
                    "midi": 46,
                    "time": 251.3183912499934,
                    "velocity": 0.4566929133858268,
                    "duration": 0.1363637499999868
                },
                {
                    "name": "F#2",
                    "midi": 42,
                    "time": 251.45475499999338,
                    "velocity": 0.4645669291338583,
                    "duration": 0.1363637499999868
                },
                {
                    "name": "F2",
                    "midi": 41,
                    "time": 251.59111874999337,
                    "velocity": 0.4881889763779528,
                    "duration": 0.4090912499999604
                },
                {
                    "name": "C3",
                    "midi": 48,
                    "time": 251.72748249999336,
                    "velocity": 0.4566929133858268,
                    "duration": 0.1363637499999868
                },
                {
                    "name": "A#2",
                    "midi": 46,
                    "time": 251.86384624999334,
                    "velocity": 0.4566929133858268,
                    "duration": 0.1363637499999868
                },
                {
                    "name": "E2",
                    "midi": 40,
                    "time": 252.00020999999333,
                    "velocity": 0.4645669291338583,
                    "duration": 0.1363637499999868
                },
                {
                    "name": "D#2",
                    "midi": 39,
                    "time": 252.13657374999332,
                    "velocity": 0.5196850393700787,
                    "duration": 0.4090912499999604
                },
                {
                    "name": "G#2",
                    "midi": 44,
                    "time": 252.2729374999933,
                    "velocity": 0.47244094488188976,
                    "duration": 0.1363637499999868
                },
                {
                    "name": "G2",
                    "midi": 43,
                    "time": 252.4093012499933,
                    "velocity": 0.48031496062992124,
                    "duration": 0.1363637499999868
                },
                {
                    "name": "D#2",
                    "midi": 39,
                    "time": 252.54566499999328,
                    "velocity": 0.49606299212598426,
                    "duration": 0.1363637499999868
                },
                {
                    "name": "C#2",
                    "midi": 37,
                    "time": 252.68202874999326,
                    "velocity": 0.5433070866141733,
                    "duration": 0.4090912499999604
                },
                {
                    "name": "G2",
                    "midi": 43,
                    "time": 252.81839249999325,
                    "velocity": 0.5118110236220472,
                    "duration": 0.1363637499999868
                },
                {
                    "name": "F2",
                    "midi": 41,
                    "time": 252.95475624999324,
                    "velocity": 0.5354330708661418,
                    "duration": 0.1363637499999868
                },
                {
                    "name": "C#2",
                    "midi": 37,
                    "time": 253.09111999999323,
                    "velocity": 0.5354330708661418,
                    "duration": 0.1363637499999868
                },
                {
                    "name": "C2",
                    "midi": 36,
                    "time": 253.2274837499932,
                    "velocity": 0.5826771653543307,
                    "duration": 0.2727274999999736
                },
                {
                    "name": "D#2",
                    "midi": 39,
                    "time": 253.3638474999932,
                    "velocity": 0.5511811023622047,
                    "duration": 0.1363637499999868
                },
                {
                    "name": "A#1",
                    "midi": 34,
                    "time": 253.50021124999319,
                    "velocity": 0.5590551181102362,
                    "duration": 0.2727274999999736
                },
                {
                    "name": "D#2",
                    "midi": 39,
                    "time": 253.63657499999317,
                    "velocity": 0.5748031496062992,
                    "duration": 0.1363637499999868
                },
                {
                    "name": "G#1",
                    "midi": 32,
                    "time": 253.77293874999316,
                    "velocity": 0.5511811023622047,
                    "duration": 0.13636375000001522
                },
                {
                    "name": "G#2",
                    "midi": 44,
                    "time": 253.77293874999316,
                    "velocity": 0.6614173228346457,
                    "duration": 0.13636375000001522
                },
                {
                    "name": "C4",
                    "midi": 60,
                    "time": 254.04566624999316,
                    "velocity": 0.5275590551181102,
                    "duration": 0.272727500000002
                },
                {
                    "name": "D#3",
                    "midi": 51,
                    "time": 254.04566624999316,
                    "velocity": 0.5275590551181102,
                    "duration": 0.272727500000002
                },
                {
                    "name": "D#4",
                    "midi": 63,
                    "time": 254.04566624999316,
                    "velocity": 0.6220472440944882,
                    "duration": 0.272727500000002
                },
                {
                    "name": "G#4",
                    "midi": 68,
                    "time": 254.31839374999316,
                    "velocity": 0.6062992125984252,
                    "duration": 0.272727500000002
                },
                {
                    "name": "C4",
                    "midi": 60,
                    "time": 254.31839374999316,
                    "velocity": 0.6062992125984252,
                    "duration": 0.272727500000002
                },
                {
                    "name": "G#3",
                    "midi": 56,
                    "time": 254.31839374999316,
                    "velocity": 0.5039370078740157,
                    "duration": 0.272727500000002
                },
                {
                    "name": "D#2",
                    "midi": 39,
                    "time": 254.59112124999317,
                    "velocity": 0.5669291338582677,
                    "duration": 0.0681818749999934
                },
                {
                    "name": "D#3",
                    "midi": 51,
                    "time": 254.59112124999317,
                    "velocity": 0.6692913385826772,
                    "duration": 0.0681818749999934
                },
                {
                    "name": "G#2",
                    "midi": 44,
                    "time": 254.86384874999317,
                    "velocity": 0.5748031496062992,
                    "duration": 0.13636375000001522
                },
                {
                    "name": "G#3",
                    "midi": 56,
                    "time": 254.86384874999317,
                    "velocity": 0.6771653543307087,
                    "duration": 0.13636375000001522
                },
                {
                    "name": "D#1",
                    "midi": 27,
                    "time": 255.13657624999317,
                    "velocity": 0.48031496062992124,
                    "duration": 0.272727500000002
                },
                {
                    "name": "D#2",
                    "midi": 39,
                    "time": 255.13657624999317,
                    "velocity": 0.5748031496062992,
                    "duration": 0.272727500000002
                },
                {
                    "name": "G#1",
                    "midi": 32,
                    "time": 255.40930374999317,
                    "velocity": 0.5275590551181102,
                    "duration": 0.272727500000002
                },
                {
                    "name": "G#2",
                    "midi": 44,
                    "time": 255.40930374999317,
                    "velocity": 0.6220472440944882,
                    "duration": 0.272727500000002
                },
                {
                    "name": "C4",
                    "midi": 60,
                    "time": 255.68203124999317,
                    "velocity": 0.48031496062992124,
                    "duration": 0.272727500000002
                },
                {
                    "name": "D#4",
                    "midi": 63,
                    "time": 255.68203124999317,
                    "velocity": 0.5748031496062992,
                    "duration": 0.272727500000002
                },
                {
                    "name": "D#3",
                    "midi": 51,
                    "time": 255.68203124999317,
                    "velocity": 0.48031496062992124,
                    "duration": 0.272727500000002
                },
                {
                    "name": "G#4",
                    "midi": 68,
                    "time": 255.95475874999318,
                    "velocity": 0.5905511811023622,
                    "duration": 0.27272750000003043
                },
                {
                    "name": "C4",
                    "midi": 60,
                    "time": 255.95475874999318,
                    "velocity": 0.5905511811023622,
                    "duration": 0.27272750000003043
                },
                {
                    "name": "G#3",
                    "midi": 56,
                    "time": 255.95475874999318,
                    "velocity": 0.49606299212598426,
                    "duration": 0.27272750000003043
                },
                {
                    "name": "D#2",
                    "midi": 39,
                    "time": 256.2274862499932,
                    "velocity": 0.5275590551181102,
                    "duration": 0.0681818749999934
                },
                {
                    "name": "D#3",
                    "midi": 51,
                    "time": 256.2274862499932,
                    "velocity": 0.6299212598425197,
                    "duration": 0.0681818749999934
                },
                {
                    "name": "G#2",
                    "midi": 44,
                    "time": 256.5002137499932,
                    "velocity": 0.5748031496062992,
                    "duration": 0.1363637499999868
                },
                {
                    "name": "G#3",
                    "midi": 56,
                    "time": 256.5002137499932,
                    "velocity": 0.6771653543307087,
                    "duration": 0.1363637499999868
                },
                {
                    "name": "D#1",
                    "midi": 27,
                    "time": 256.77294124999315,
                    "velocity": 0.48031496062992124,
                    "duration": 0.2727274999999736
                },
                {
                    "name": "D#2",
                    "midi": 39,
                    "time": 256.77294124999315,
                    "velocity": 0.5748031496062992,
                    "duration": 0.2727274999999736
                },
                {
                    "name": "G#1",
                    "midi": 32,
                    "time": 257.0456687499931,
                    "velocity": 0.5275590551181102,
                    "duration": 0.2727274999999736
                },
                {
                    "name": "G#2",
                    "midi": 44,
                    "time": 257.0456687499931,
                    "velocity": 0.6220472440944882,
                    "duration": 0.2727274999999736
                },
                {
                    "name": "C4",
                    "midi": 60,
                    "time": 257.3183962499931,
                    "velocity": 0.48031496062992124,
                    "duration": 0.2727274999999736
                },
                {
                    "name": "D#4",
                    "midi": 63,
                    "time": 257.3183962499931,
                    "velocity": 0.5748031496062992,
                    "duration": 0.2727274999999736
                },
                {
                    "name": "D#3",
                    "midi": 51,
                    "time": 257.3183962499931,
                    "velocity": 0.48031496062992124,
                    "duration": 0.2727274999999736
                },
                {
                    "name": "G#4",
                    "midi": 68,
                    "time": 257.5911237499931,
                    "velocity": 0.5905511811023622,
                    "duration": 0.2727274999999736
                },
                {
                    "name": "C4",
                    "midi": 60,
                    "time": 257.5911237499931,
                    "velocity": 0.5905511811023622,
                    "duration": 0.2727274999999736
                },
                {
                    "name": "G#3",
                    "midi": 56,
                    "time": 257.5911237499931,
                    "velocity": 0.49606299212598426,
                    "duration": 0.2727274999999736
                },
                {
                    "name": "D#2",
                    "midi": 39,
                    "time": 257.86385124999305,
                    "velocity": 0.48031496062992124,
                    "duration": 0.1363637499999868
                },
                {
                    "name": "D#3",
                    "midi": 51,
                    "time": 257.86385124999305,
                    "velocity": 0.5748031496062992,
                    "duration": 0.1363637499999868
                },
                {
                    "name": "G#2",
                    "midi": 44,
                    "time": 258.136578749993,
                    "velocity": 0.5039370078740157,
                    "duration": 0.1363637499999868
                },
                {
                    "name": "G#3",
                    "midi": 56,
                    "time": 258.136578749993,
                    "velocity": 0.6062992125984252,
                    "duration": 0.1363637499999868
                },
                {
                    "name": "D#2",
                    "midi": 39,
                    "time": 258.341124374993,
                    "velocity": 0.4881889763779528,
                    "duration": 0.23863656250006215
                },
                {
                    "name": "A#2",
                    "midi": 46,
                    "time": 258.375215312493,
                    "velocity": 0.4881889763779528,
                    "duration": 0.20454562500003703
                },
                {
                    "name": "F#3",
                    "midi": 54,
                    "time": 258.40930624999305,
                    "velocity": 0.5826771653543307,
                    "duration": 0.17045468750001191
                },
                {
                    "name": "F2",
                    "midi": 41,
                    "time": 258.57976093749306,
                    "velocity": 0.4881889763779528,
                    "duration": 0.2727275000000873
                },
                {
                    "name": "C3",
                    "midi": 48,
                    "time": 258.6138518749931,
                    "velocity": 0.4881889763779528,
                    "duration": 0.3409093750001375
                },
                {
                    "name": "D#3",
                    "midi": 51,
                    "time": 258.6479428124931,
                    "velocity": 0.5826771653543307,
                    "duration": 0.20454562500003703
                },
                {
                    "name": "A3",
                    "midi": 57,
                    "time": 258.68203374999314,
                    "velocity": 0.5826771653543307,
                    "duration": 0.17045468750001191
                },
                {
                    "name": "F3",
                    "midi": 53,
                    "time": 258.85248843749315,
                    "velocity": 0.48031496062992124,
                    "duration": 0.2727275000000873
                },
                {
                    "name": "C4",
                    "midi": 60,
                    "time": 258.8865793749932,
                    "velocity": 0.48031496062992124,
                    "duration": 0.23863656250006215
                },
                {
                    "name": "D#4",
                    "midi": 63,
                    "time": 258.9206703124932,
                    "velocity": 0.5748031496062992,
                    "duration": 0.20454562500003703
                },
                {
                    "name": "A4",
                    "midi": 69,
                    "time": 258.9547612499932,
                    "velocity": 0.5748031496062992,
                    "duration": 0.17045468750001191
                },
                {
                    "name": "A#2",
                    "midi": 46,
                    "time": 259.15930687499326,
                    "velocity": 0.49606299212598426,
                    "duration": 0.34090937500002383
                },
                {
                    "name": "F3",
                    "midi": 53,
                    "time": 259.1933978124933,
                    "velocity": 0.5905511811023622,
                    "duration": 0.3068184374999987
                },
                {
                    "name": "C#4",
                    "midi": 61,
                    "time": 259.2274887499933,
                    "velocity": 0.5905511811023622,
                    "duration": 0.2727274999999736
                },
                {
                    "name": "F#2",
                    "midi": 42,
                    "time": 259.5002162499933,
                    "velocity": 0.47244094488188976,
                    "duration": 0.2727274999999736
                },
                {
                    "name": "F#3",
                    "midi": 54,
                    "time": 259.5002162499933,
                    "velocity": 0.5590551181102362,
                    "duration": 0.2727274999999736
                },
                {
                    "name": "F2",
                    "midi": 41,
                    "time": 259.77294374999326,
                    "velocity": 0.47244094488188976,
                    "duration": 0.2727274999999736
                },
                {
                    "name": "F3",
                    "midi": 53,
                    "time": 259.77294374999326,
                    "velocity": 0.5590551181102362,
                    "duration": 0.2727274999999736
                },
                {
                    "name": "C#2",
                    "midi": 37,
                    "time": 260.04567124999323,
                    "velocity": 0.4566929133858268,
                    "duration": 0.2727274999999736
                },
                {
                    "name": "C#3",
                    "midi": 49,
                    "time": 260.04567124999323,
                    "velocity": 0.5433070866141733,
                    "duration": 0.2727274999999736
                },
                {
                    "name": "A#1",
                    "midi": 34,
                    "time": 260.3183987499932,
                    "velocity": 0.5275590551181102,
                    "duration": 0.1363637499999868
                },
                {
                    "name": "A#2",
                    "midi": 46,
                    "time": 260.3183987499932,
                    "velocity": 0.6220472440944882,
                    "duration": 0.1363637499999868
                },
                {
                    "name": "C#4",
                    "midi": 61,
                    "time": 260.5911262499932,
                    "velocity": 0.6220472440944882,
                    "duration": 0.2727274999999736
                },
                {
                    "name": "F3",
                    "midi": 53,
                    "time": 260.5911262499932,
                    "velocity": 0.5275590551181102,
                    "duration": 0.2727274999999736
                },
                {
                    "name": "F4",
                    "midi": 65,
                    "time": 260.5911262499932,
                    "velocity": 0.6220472440944882,
                    "duration": 0.2727274999999736
                },
                {
                    "name": "A#4",
                    "midi": 70,
                    "time": 260.86385374999315,
                    "velocity": 0.6062992125984252,
                    "duration": 0.27272750000003043
                },
                {
                    "name": "C#4",
                    "midi": 61,
                    "time": 260.86385374999315,
                    "velocity": 0.6062992125984252,
                    "duration": 0.27272750000003043
                },
                {
                    "name": "A#3",
                    "midi": 58,
                    "time": 260.86385374999315,
                    "velocity": 0.5039370078740157,
                    "duration": 0.27272750000003043
                },
                {
                    "name": "F2",
                    "midi": 41,
                    "time": 261.1365812499932,
                    "velocity": 0.5669291338582677,
                    "duration": 0.0681818749999934
                },
                {
                    "name": "F3",
                    "midi": 53,
                    "time": 261.1365812499932,
                    "velocity": 0.6692913385826772,
                    "duration": 0.0681818749999934
                },
                {
                    "name": "A#2",
                    "midi": 46,
                    "time": 261.40930874999316,
                    "velocity": 0.5748031496062992,
                    "duration": 0.1363637499999868
                },
                {
                    "name": "A#3",
                    "midi": 58,
                    "time": 261.40930874999316,
                    "velocity": 0.6771653543307087,
                    "duration": 0.1363637499999868
                },
                {
                    "name": "F1",
                    "midi": 29,
                    "time": 261.68203624999313,
                    "velocity": 0.48031496062992124,
                    "duration": 0.2727274999999736
                },
                {
                    "name": "F2",
                    "midi": 41,
                    "time": 261.68203624999313,
                    "velocity": 0.5748031496062992,
                    "duration": 0.2727274999999736
                },
                {
                    "name": "A#1",
                    "midi": 34,
                    "time": 261.9547637499931,
                    "velocity": 0.5275590551181102,
                    "duration": 0.2727274999999736
                },
                {
                    "name": "A#2",
                    "midi": 46,
                    "time": 261.9547637499931,
                    "velocity": 0.6220472440944882,
                    "duration": 0.2727274999999736
                },
                {
                    "name": "C#4",
                    "midi": 61,
                    "time": 262.2274912499931,
                    "velocity": 0.48031496062992124,
                    "duration": 0.2727274999999736
                },
                {
                    "name": "F4",
                    "midi": 65,
                    "time": 262.2274912499931,
                    "velocity": 0.5748031496062992,
                    "duration": 0.2727274999999736
                },
                {
                    "name": "F3",
                    "midi": 53,
                    "time": 262.2274912499931,
                    "velocity": 0.48031496062992124,
                    "duration": 0.2727274999999736
                },
                {
                    "name": "A#4",
                    "midi": 70,
                    "time": 262.50021874999305,
                    "velocity": 0.5905511811023622,
                    "duration": 0.2727274999999736
                },
                {
                    "name": "C#4",
                    "midi": 61,
                    "time": 262.50021874999305,
                    "velocity": 0.5905511811023622,
                    "duration": 0.2727274999999736
                },
                {
                    "name": "A#3",
                    "midi": 58,
                    "time": 262.50021874999305,
                    "velocity": 0.49606299212598426,
                    "duration": 0.2727274999999736
                },
                {
                    "name": "F2",
                    "midi": 41,
                    "time": 262.772946249993,
                    "velocity": 0.5275590551181102,
                    "duration": 0.06818187500005024
                },
                {
                    "name": "F3",
                    "midi": 53,
                    "time": 262.772946249993,
                    "velocity": 0.6299212598425197,
                    "duration": 0.06818187500005024
                },
                {
                    "name": "A#2",
                    "midi": 46,
                    "time": 263.04567374999306,
                    "velocity": 0.5748031496062992,
                    "duration": 0.13636375000004364
                },
                {
                    "name": "A#3",
                    "midi": 58,
                    "time": 263.04567374999306,
                    "velocity": 0.6771653543307087,
                    "duration": 0.13636375000004364
                },
                {
                    "name": "A#1",
                    "midi": 34,
                    "time": 263.3184012499931,
                    "velocity": 0.48031496062992124,
                    "duration": 0.2727274999999736
                },
                {
                    "name": "A#2",
                    "midi": 46,
                    "time": 263.3184012499931,
                    "velocity": 0.5748031496062992,
                    "duration": 0.2727274999999736
                },
                {
                    "name": "D#1",
                    "midi": 27,
                    "time": 263.59112874999306,
                    "velocity": 0.5275590551181102,
                    "duration": 0.1363637499999868
                },
                {
                    "name": "D#2",
                    "midi": 39,
                    "time": 263.59112874999306,
                    "velocity": 0.6220472440944882,
                    "duration": 0.1363637499999868
                },
                {
                    "name": "G4",
                    "midi": 67,
                    "time": 263.86385624999303,
                    "velocity": 0.47244094488188976,
                    "duration": 0.2727274999999736
                },
                {
                    "name": "C#4",
                    "midi": 61,
                    "time": 263.86385624999303,
                    "velocity": 0.47244094488188976,
                    "duration": 0.2727274999999736
                },
                {
                    "name": "C5",
                    "midi": 72,
                    "time": 263.86385624999303,
                    "velocity": 0.5669291338582677,
                    "duration": 0.1363637499999868
                },
                {
                    "name": "D#4",
                    "midi": 63,
                    "time": 263.86385624999303,
                    "velocity": 0.47244094488188976,
                    "duration": 0.2727274999999736
                },
                {
                    "name": "A#4",
                    "midi": 70,
                    "time": 264.000219999993,
                    "velocity": 0.5511811023622047,
                    "duration": 0.1363637499999868
                },
                {
                    "name": "D#3",
                    "midi": 51,
                    "time": 264.136583749993,
                    "velocity": 0.5905511811023622,
                    "duration": 0.1363637499999868
                },
                {
                    "name": "A#4",
                    "midi": 70,
                    "time": 264.409311249993,
                    "velocity": 0.5669291338582677,
                    "duration": 0.1363637499999868
                },
                {
                    "name": "C4",
                    "midi": 60,
                    "time": 264.409311249993,
                    "velocity": 0.4566929133858268,
                    "duration": 0.2727274999999736
                },
                {
                    "name": "D#4",
                    "midi": 63,
                    "time": 264.409311249993,
                    "velocity": 0.5433070866141733,
                    "duration": 0.2727274999999736
                },
                {
                    "name": "G#4",
                    "midi": 68,
                    "time": 264.54567499999297,
                    "velocity": 0.5511811023622047,
                    "duration": 0.1363637499999868
                },
                {
                    "name": "D#3",
                    "midi": 51,
                    "time": 264.68203874999296,
                    "velocity": 0.5748031496062992,
                    "duration": 0.1363637499999868
                },
                {
                    "name": "G#4",
                    "midi": 68,
                    "time": 264.95476624999293,
                    "velocity": 0.5669291338582677,
                    "duration": 0.1363637499999868
                },
                {
                    "name": "A#3",
                    "midi": 58,
                    "time": 264.95476624999293,
                    "velocity": 0.4409448818897638,
                    "duration": 0.27272750000003043
                },
                {
                    "name": "D#4",
                    "midi": 63,
                    "time": 264.95476624999293,
                    "velocity": 0.5275590551181102,
                    "duration": 0.27272750000003043
                },
                {
                    "name": "G4",
                    "midi": 67,
                    "time": 265.0911299999929,
                    "velocity": 0.5511811023622047,
                    "duration": 0.13636375000004364
                },
                {
                    "name": "A#2",
                    "midi": 46,
                    "time": 265.22749374999296,
                    "velocity": 0.5511811023622047,
                    "duration": 0.1363637499999868
                },
                {
                    "name": "G4",
                    "midi": 67,
                    "time": 265.50022124999293,
                    "velocity": 0.5669291338582677,
                    "duration": 0.1363637499999868
                },
                {
                    "name": "G#3",
                    "midi": 56,
                    "time": 265.50022124999293,
                    "velocity": 0.4330708661417323,
                    "duration": 0.2727274999999736
                },
                {
                    "name": "D4",
                    "midi": 62,
                    "time": 265.50022124999293,
                    "velocity": 0.5196850393700787,
                    "duration": 0.2727274999999736
                },
                {
                    "name": "A#3",
                    "midi": 58,
                    "time": 265.50022124999293,
                    "velocity": 0.4330708661417323,
                    "duration": 0.2727274999999736
                },
                {
                    "name": "F4",
                    "midi": 65,
                    "time": 265.6365849999929,
                    "velocity": 0.5511811023622047,
                    "duration": 0.1363637499999868
                },
                {
                    "name": "D#3",
                    "midi": 51,
                    "time": 265.7729487499929,
                    "velocity": 0.5669291338582677,
                    "duration": 0.1363637499999868
                },
                {
                    "name": "F4",
                    "midi": 65,
                    "time": 266.0456762499929,
                    "velocity": 0.5669291338582677,
                    "duration": 0.1363637499999868
                },
                {
                    "name": "G3",
                    "midi": 55,
                    "time": 266.0456762499929,
                    "velocity": 0.44881889763779526,
                    "duration": 0.2727274999999736
                },
                {
                    "name": "A#3",
                    "midi": 58,
                    "time": 266.0456762499929,
                    "velocity": 0.5354330708661418,
                    "duration": 0.2727274999999736
                },
                {
                    "name": "D#4",
                    "midi": 63,
                    "time": 266.18203999999287,
                    "velocity": 0.5511811023622047,
                    "duration": 0.1363637499999868
                },
                {
                    "name": "F2",
                    "midi": 41,
                    "time": 266.31840374999285,
                    "velocity": 0.4881889763779528,
                    "duration": 0.2727274999999736
                },
                {
                    "name": "F3",
                    "midi": 53,
                    "time": 266.31840374999285,
                    "velocity": 0.5826771653543307,
                    "duration": 0.5454549999999472
                },
                {
                    "name": "C#4",
                    "midi": 61,
                    "time": 266.5911312499928,
                    "velocity": 0.5669291338582677,
                    "duration": 0.1363637499999868
                },
                {
                    "name": "G#3",
                    "midi": 56,
                    "time": 266.5911312499928,
                    "velocity": 0.5354330708661418,
                    "duration": 0.2727274999999736
                },
                {
                    "name": "C4",
                    "midi": 60,
                    "time": 266.7274949999928,
                    "velocity": 0.5354330708661418,
                    "duration": 0.1363637499999868
                },
                {
                    "name": "C#2",
                    "midi": 37,
                    "time": 266.8638587499928,
                    "velocity": 0.4645669291338583,
                    "duration": 0.2727274999999736
                },
                {
                    "name": "C#3",
                    "midi": 49,
                    "time": 266.8638587499928,
                    "velocity": 0.5590551181102362,
                    "duration": 0.2727274999999736
                },
                {
                    "name": "F3",
                    "midi": 53,
                    "time": 267.1365862499928,
                    "velocity": 0.4015748031496063,
                    "duration": 0.2727274999999736
                },
                {
                    "name": "A#3",
                    "midi": 58,
                    "time": 267.1365862499928,
                    "velocity": 0.4645669291338583,
                    "duration": 0.2727274999999736
                },
                {
                    "name": "C2",
                    "midi": 36,
                    "time": 267.40931374999275,
                    "velocity": 0.41732283464566927,
                    "duration": 0.2727274999999736
                },
                {
                    "name": "C3",
                    "midi": 48,
                    "time": 267.40931374999275,
                    "velocity": 0.49606299212598426,
                    "duration": 0.2727274999999736
                },
                {
                    "name": "E3",
                    "midi": 52,
                    "time": 267.6820412499927,
                    "velocity": 0.3858267716535433,
                    "duration": 0.2727274999999736
                },
                {
                    "name": "C4",
                    "midi": 60,
                    "time": 267.6820412499927,
                    "velocity": 0.4645669291338583,
                    "duration": 0.2727274999999736
                },
                {
                    "name": "A#3",
                    "midi": 58,
                    "time": 267.6820412499927,
                    "velocity": 0.3858267716535433,
                    "duration": 0.2727274999999736
                },
                {
                    "name": "F1",
                    "midi": 29,
                    "time": 267.9547687499927,
                    "velocity": 0.4566929133858268,
                    "duration": 0.2727274999999736
                },
                {
                    "name": "F2",
                    "midi": 41,
                    "time": 267.9547687499927,
                    "velocity": 0.5433070866141733,
                    "duration": 0.2727274999999736
                },
                {
                    "name": "F3",
                    "midi": 53,
                    "time": 268.22749624999267,
                    "velocity": 0.5275590551181102,
                    "duration": 0.2727274999999736
                },
                {
                    "name": "G#3",
                    "midi": 56,
                    "time": 268.22749624999267,
                    "velocity": 0.5275590551181102,
                    "duration": 0.2727274999999736
                },
                {
                    "name": "C4",
                    "midi": 60,
                    "time": 268.22749624999267,
                    "velocity": 0.5275590551181102,
                    "duration": 0.2727274999999736
                },
                {
                    "name": "D#2",
                    "midi": 39,
                    "time": 268.50022374999264,
                    "velocity": 0.4015748031496063,
                    "duration": 0.1363637499999868
                },
                {
                    "name": "D#3",
                    "midi": 51,
                    "time": 268.50022374999264,
                    "velocity": 0.5669291338582677,
                    "duration": 0.1363637499999868
                },
                {
                    "name": "D#3",
                    "midi": 51,
                    "time": 268.7729512499926,
                    "velocity": 0.3779527559055118,
                    "duration": 0.2727274999999736
                },
                {
                    "name": "A#3",
                    "midi": 58,
                    "time": 268.7729512499926,
                    "velocity": 0.5354330708661418,
                    "duration": 0.2727274999999736
                },
                {
                    "name": "G#2",
                    "midi": 44,
                    "time": 269.0456787499926,
                    "velocity": 0.3937007874015748,
                    "duration": 0.2727274999999736
                },
                {
                    "name": "D#3",
                    "midi": 51,
                    "time": 269.0456787499926,
                    "velocity": 0.3937007874015748,
                    "duration": 0.2727274999999736
                },
                {
                    "name": "G#3",
                    "midi": 56,
                    "time": 269.0456787499926,
                    "velocity": 0.5511811023622047,
                    "duration": 0.2727274999999736
                },
                {
                    "name": "G#2",
                    "midi": 44,
                    "time": 269.86386124999257,
                    "velocity": 0.48031496062992124,
                    "duration": 0.2727274999999736
                },
                {
                    "name": "G#3",
                    "midi": 56,
                    "time": 269.86386124999257,
                    "velocity": 0.5669291338582677,
                    "duration": 0.2727274999999736
                },
                {
                    "name": "C#2",
                    "midi": 37,
                    "time": 270.13658874999254,
                    "velocity": 0.4881889763779528,
                    "duration": 0.2727274999999736
                },
                {
                    "name": "C#3",
                    "midi": 49,
                    "time": 270.13658874999254,
                    "velocity": 0.5826771653543307,
                    "duration": 0.2727274999999736
                },
                {
                    "name": "F3",
                    "midi": 53,
                    "time": 270.4093162499925,
                    "velocity": 0.4330708661417323,
                    "duration": 0.2727274999999736
                },
                {
                    "name": "A#3",
                    "midi": 58,
                    "time": 270.4093162499925,
                    "velocity": 0.5039370078740157,
                    "duration": 0.2727274999999736
                },
                {
                    "name": "C2",
                    "midi": 36,
                    "time": 270.6820437499925,
                    "velocity": 0.49606299212598426,
                    "duration": 0.2727274999999736
                },
                {
                    "name": "C3",
                    "midi": 48,
                    "time": 270.6820437499925,
                    "velocity": 0.5905511811023622,
                    "duration": 0.2727274999999736
                },
                {
                    "name": "A#3",
                    "midi": 58,
                    "time": 270.95477124999246,
                    "velocity": 0.44881889763779526,
                    "duration": 0.27272750000003043
                },
                {
                    "name": "E4",
                    "midi": 64,
                    "time": 270.95477124999246,
                    "velocity": 0.5354330708661418,
                    "duration": 0.27272750000003043
                },
                {
                    "name": "C4",
                    "midi": 60,
                    "time": 270.95477124999246,
                    "velocity": 0.44881889763779526,
                    "duration": 0.27272750000003043
                },
                {
                    "name": "F1",
                    "midi": 29,
                    "time": 271.2274987499925,
                    "velocity": 0.5196850393700787,
                    "duration": 0.2727274999999736
                },
                {
                    "name": "F2",
                    "midi": 41,
                    "time": 271.2274987499925,
                    "velocity": 0.6141732283464567,
                    "duration": 0.2727274999999736
                },
                {
                    "name": "F3",
                    "midi": 53,
                    "time": 271.50022624999247,
                    "velocity": 0.5354330708661418,
                    "duration": 0.27272750000003043
                },
                {
                    "name": "G#3",
                    "midi": 56,
                    "time": 271.50022624999247,
                    "velocity": 0.5511811023622047,
                    "duration": 0.27272750000003043
                },
                {
                    "name": "C4",
                    "midi": 60,
                    "time": 271.50022624999247,
                    "velocity": 0.5748031496062992,
                    "duration": 0.27272750000003043
                },
                {
                    "name": "F4",
                    "midi": 65,
                    "time": 271.50022624999247,
                    "velocity": 0.5748031496062992,
                    "duration": 0.27272750000003043
                },
                {
                    "name": "D#2",
                    "midi": 39,
                    "time": 271.7729537499925,
                    "velocity": 0.5039370078740157,
                    "duration": 0.1363637499999868
                },
                {
                    "name": "D#3",
                    "midi": 51,
                    "time": 271.7729537499925,
                    "velocity": 0.6062992125984252,
                    "duration": 0.1363637499999868
                },
                {
                    "name": "A#3",
                    "midi": 58,
                    "time": 272.04568124999247,
                    "velocity": 0.33858267716535434,
                    "duration": 0.2727274999999736
                },
                {
                    "name": "C#4",
                    "midi": 61,
                    "time": 272.04568124999247,
                    "velocity": 0.33858267716535434,
                    "duration": 0.2727274999999736
                },
                {
                    "name": "D#4",
                    "midi": 63,
                    "time": 272.04568124999247,
                    "velocity": 0.47244094488188976,
                    "duration": 0.2727274999999736
                },
                {
                    "name": "G4",
                    "midi": 67,
                    "time": 272.04568124999247,
                    "velocity": 0.5590551181102362,
                    "duration": 0.2727274999999736
                },
                {
                    "name": "G#3",
                    "midi": 56,
                    "time": 272.31840874999244,
                    "velocity": 0.47244094488188976,
                    "duration": 0.1363637499999868
                },
                {
                    "name": "D#4",
                    "midi": 63,
                    "time": 272.31840874999244,
                    "velocity": 0.47244094488188976,
                    "duration": 0.1363637499999868
                },
                {
                    "name": "G#4",
                    "midi": 68,
                    "time": 272.31840874999244,
                    "velocity": 0.5590551181102362,
                    "duration": 0.1363637499999868
                },
                {
                    "name": "G#4",
                    "midi": 68,
                    "time": 272.5911362499924,
                    "velocity": 0.5511811023622047,
                    "duration": 0.2045456249999802
                },
                {
                    "name": "B3",
                    "midi": 59,
                    "time": 272.5911362499924,
                    "velocity": 0.5511811023622047,
                    "duration": 0.2045456249999802
                },
                {
                    "name": "D4",
                    "midi": 62,
                    "time": 272.5911362499924,
                    "velocity": 0.5511811023622047,
                    "duration": 0.2045456249999802
                },
                {
                    "name": "B4",
                    "midi": 71,
                    "time": 272.5911362499924,
                    "velocity": 0.5511811023622047,
                    "duration": 0.2045456249999802
                },
                {
                    "name": "G#4",
                    "midi": 68,
                    "time": 272.7956818749924,
                    "velocity": 0.49606299212598426,
                    "duration": 0.061363687499977004
                },
                {
                    "name": "C4",
                    "midi": 60,
                    "time": 272.7956818749924,
                    "velocity": 0.49606299212598426,
                    "duration": 0.061363687499977004
                },
                {
                    "name": "C5",
                    "midi": 72,
                    "time": 272.7956818749924,
                    "velocity": 0.49606299212598426,
                    "duration": 0.061363687499977004
                },
                {
                    "name": "D#4",
                    "midi": 63,
                    "time": 272.7956818749924,
                    "velocity": 0.49606299212598426,
                    "duration": 0.061363687499977004
                },
                {
                    "name": "G#4",
                    "midi": 68,
                    "time": 272.8638637499924,
                    "velocity": 0.5590551181102362,
                    "duration": 0.1363637499999868
                },
                {
                    "name": "C5",
                    "midi": 72,
                    "time": 272.8638637499924,
                    "velocity": 0.5590551181102362,
                    "duration": 0.1363637499999868
                },
                {
                    "name": "C4",
                    "midi": 60,
                    "time": 272.8638637499924,
                    "velocity": 0.5590551181102362,
                    "duration": 0.1363637499999868
                },
                {
                    "name": "D#4",
                    "midi": 63,
                    "time": 272.8638637499924,
                    "velocity": 0.5590551181102362,
                    "duration": 0.1363637499999868
                },
                {
                    "name": "F3",
                    "midi": 53,
                    "time": 273.0343184374924,
                    "velocity": 0.48031496062992124,
                    "duration": 0.30681843750005555
                },
                {
                    "name": "C4",
                    "midi": 60,
                    "time": 273.0684093749924,
                    "velocity": 0.48031496062992124,
                    "duration": 0.27272750000003043
                },
                {
                    "name": "D#4",
                    "midi": 63,
                    "time": 273.10250031249245,
                    "velocity": 0.48031496062992124,
                    "duration": 0.2386365625000053
                },
                {
                    "name": "A4",
                    "midi": 69,
                    "time": 273.1365912499925,
                    "velocity": 0.5669291338582677,
                    "duration": 0.2045456249999802
                },
                {
                    "name": "A#2",
                    "midi": 46,
                    "time": 273.34113687499246,
                    "velocity": 0.5196850393700787,
                    "duration": 0.2727274999999736
                },
                {
                    "name": "F3",
                    "midi": 53,
                    "time": 273.3752278124925,
                    "velocity": 0.5196850393700787,
                    "duration": 0.23863656249994847
                },
                {
                    "name": "C#4",
                    "midi": 61,
                    "time": 273.40931874999245,
                    "velocity": 0.6141732283464567,
                    "duration": 0.2045456249999802
                },
                {
                    "name": "D#3",
                    "midi": 51,
                    "time": 273.61386437499243,
                    "velocity": 0.48031496062992124,
                    "duration": 0.2727274999999736
                },
                {
                    "name": "A#3",
                    "midi": 58,
                    "time": 273.6479553124924,
                    "velocity": 0.48031496062992124,
                    "duration": 0.2386365625000053
                },
                {
                    "name": "F#4",
                    "midi": 66,
                    "time": 273.6820462499924,
                    "velocity": 0.5669291338582677,
                    "duration": 0.2045456249999802
                },
                {
                    "name": "A#2",
                    "midi": 46,
                    "time": 273.8865918749924,
                    "velocity": 0.44881889763779526,
                    "duration": 0.2727274999999736
                },
                {
                    "name": "F3",
                    "midi": 53,
                    "time": 273.9206828124924,
                    "velocity": 0.44881889763779526,
                    "duration": 0.2386365625000053
                },
                {
                    "name": "C#4",
                    "midi": 61,
                    "time": 273.9547737499924,
                    "velocity": 0.5354330708661418,
                    "duration": 0.2045456249999802
                },
                {
                    "name": "D#2",
                    "midi": 39,
                    "time": 274.1593193749924,
                    "velocity": 0.44881889763779526,
                    "duration": 0.2727275000000873
                },
                {
                    "name": "A#2",
                    "midi": 46,
                    "time": 274.1934103124924,
                    "velocity": 0.44881889763779526,
                    "duration": 0.23863656250006215
                },
                {
                    "name": "F#3",
                    "midi": 54,
                    "time": 274.22750124999243,
                    "velocity": 0.5354330708661418,
                    "duration": 0.20454562500003703
                },
                {
                    "name": "A#1",
                    "midi": 34,
                    "time": 274.43204687499247,
                    "velocity": 0.44881889763779526,
                    "duration": 0.27272750000003043
                },
                {
                    "name": "F2",
                    "midi": 41,
                    "time": 274.46613781249243,
                    "velocity": 0.44881889763779526,
                    "duration": 0.23863656250006215
                },
                {
                    "name": "C#3",
                    "midi": 49,
                    "time": 274.50022874999246,
                    "velocity": 0.5354330708661418,
                    "duration": 0.20454562500003703
                },
                {
                    "name": "D#2",
                    "midi": 39,
                    "time": 274.7047743749925,
                    "velocity": 0.4409448818897638,
                    "duration": 0.2727275000000873
                },
                {
                    "name": "A#2",
                    "midi": 46,
                    "time": 274.7388653124925,
                    "velocity": 0.4409448818897638,
                    "duration": 0.23863656250006215
                },
                {
                    "name": "F#3",
                    "midi": 54,
                    "time": 274.77295624999255,
                    "velocity": 0.5275590551181102,
                    "duration": 0.20454562500003703
                },
                {
                    "name": "A#2",
                    "midi": 46,
                    "time": 274.9775018749926,
                    "velocity": 0.48031496062992124,
                    "duration": 0.2727275000000873
                },
                {
                    "name": "F3",
                    "midi": 53,
                    "time": 275.0115928124926,
                    "velocity": 0.48031496062992124,
                    "duration": 0.23863656250006215
                },
                {
                    "name": "C#4",
                    "midi": 61,
                    "time": 275.04568374999263,
                    "velocity": 0.5669291338582677,
                    "duration": 0.20454562500003703
                },
                {
                    "name": "A1",
                    "midi": 33,
                    "time": 275.31841124999266,
                    "velocity": 0.4330708661417323,
                    "duration": 0.0681818749999934
                },
                {
                    "name": "A#1",
                    "midi": 34,
                    "time": 275.38659312499266,
                    "velocity": 0.4330708661417323,
                    "duration": 0.0681818749999934
                },
                {
                    "name": "C2",
                    "midi": 36,
                    "time": 275.45477499999265,
                    "velocity": 0.4409448818897638,
                    "duration": 0.0681818749999934
                },
                {
                    "name": "C#2",
                    "midi": 37,
                    "time": 275.52295687499264,
                    "velocity": 0.4409448818897638,
                    "duration": 0.0681818749999934
                },
                {
                    "name": "D#2",
                    "midi": 39,
                    "time": 275.59113874999264,
                    "velocity": 0.4409448818897638,
                    "duration": 0.0681818749999934
                },
                {
                    "name": "F2",
                    "midi": 41,
                    "time": 275.65932062499263,
                    "velocity": 0.44881889763779526,
                    "duration": 0.0681818749999934
                },
                {
                    "name": "G2",
                    "midi": 43,
                    "time": 275.7275024999926,
                    "velocity": 0.4566929133858268,
                    "duration": 0.0681818749999934
                },
                {
                    "name": "A2",
                    "midi": 45,
                    "time": 275.7956843749926,
                    "velocity": 0.4566929133858268,
                    "duration": 0.0681818749999934
                },
                {
                    "name": "A#2",
                    "midi": 46,
                    "time": 275.8638662499926,
                    "velocity": 0.4645669291338583,
                    "duration": 0.0681818749999934
                },
                {
                    "name": "C3",
                    "midi": 48,
                    "time": 275.9320481249926,
                    "velocity": 0.47244094488188976,
                    "duration": 0.0681818749999934
                },
                {
                    "name": "C#3",
                    "midi": 49,
                    "time": 276.0002299999926,
                    "velocity": 0.47244094488188976,
                    "duration": 0.0681818749999934
                },
                {
                    "name": "D#3",
                    "midi": 51,
                    "time": 276.0684118749926,
                    "velocity": 0.48031496062992124,
                    "duration": 0.0681818749999934
                },
                {
                    "name": "F3",
                    "midi": 53,
                    "time": 276.1365937499926,
                    "velocity": 0.48031496062992124,
                    "duration": 0.0681818749999934
                },
                {
                    "name": "G3",
                    "midi": 55,
                    "time": 276.2047756249926,
                    "velocity": 0.48031496062992124,
                    "duration": 0.0681818749999934
                },
                {
                    "name": "A3",
                    "midi": 57,
                    "time": 276.2729574999926,
                    "velocity": 0.4881889763779528,
                    "duration": 0.0681818749999934
                },
                {
                    "name": "A#3",
                    "midi": 58,
                    "time": 276.34113937499257,
                    "velocity": 0.4881889763779528,
                    "duration": 0.0681818749999934
                },
                {
                    "name": "C4",
                    "midi": 60,
                    "time": 276.40932124999256,
                    "velocity": 0.49606299212598426,
                    "duration": 0.0681818749999934
                },
                {
                    "name": "C#4",
                    "midi": 61,
                    "time": 276.47750312499255,
                    "velocity": 0.5039370078740157,
                    "duration": 0.0681818749999934
                },
                {
                    "name": "D#4",
                    "midi": 63,
                    "time": 276.54568499999255,
                    "velocity": 0.5039370078740157,
                    "duration": 0.0681818749999934
                },
                {
                    "name": "F4",
                    "midi": 65,
                    "time": 276.61386687499254,
                    "velocity": 0.5196850393700787,
                    "duration": 0.0681818749999934
                },
                {
                    "name": "G4",
                    "midi": 67,
                    "time": 276.68204874999253,
                    "velocity": 0.5275590551181102,
                    "duration": 0.0681818749999934
                },
                {
                    "name": "A4",
                    "midi": 69,
                    "time": 276.7502306249925,
                    "velocity": 0.5118110236220472,
                    "duration": 0.0681818749999934
                },
                {
                    "name": "A#4",
                    "midi": 70,
                    "time": 276.8184124999925,
                    "velocity": 0.5196850393700787,
                    "duration": 0.0681818749999934
                },
                {
                    "name": "C5",
                    "midi": 72,
                    "time": 276.8865943749925,
                    "velocity": 0.5275590551181102,
                    "duration": 0.0681818749999934
                },
                {
                    "name": "C#5",
                    "midi": 73,
                    "time": 276.9547762499925,
                    "velocity": 0.5354330708661418,
                    "duration": 0.0681818749999934
                },
                {
                    "name": "D#5",
                    "midi": 75,
                    "time": 277.0229581249925,
                    "velocity": 0.5433070866141733,
                    "duration": 0.0681818749999934
                },
                {
                    "name": "F5",
                    "midi": 77,
                    "time": 277.0911399999925,
                    "velocity": 0.5511811023622047,
                    "duration": 0.0681818749999934
                },
                {
                    "name": "G5",
                    "midi": 79,
                    "time": 277.1593218749925,
                    "velocity": 0.5590551181102362,
                    "duration": 0.10227281250001852
                },
                {
                    "name": "A5",
                    "midi": 81,
                    "time": 277.2615946874925,
                    "velocity": 0.5669291338582677,
                    "duration": 0.0681818749999934
                },
                {
                    "name": "D#1",
                    "midi": 27,
                    "time": 277.6365949999925,
                    "velocity": 0.5354330708661418,
                    "duration": 0.1363637499999868
                },
                {
                    "name": "D#2",
                    "midi": 39,
                    "time": 277.6365949999925,
                    "velocity": 0.6299212598425197,
                    "duration": 0.1363637499999868
                },
                {
                    "name": "D#3",
                    "midi": 51,
                    "time": 277.90932249999247,
                    "velocity": 0.48031496062992124,
                    "duration": 0.1363637499999868
                },
                {
                    "name": "D#4",
                    "midi": 63,
                    "time": 277.90932249999247,
                    "velocity": 0.5669291338582677,
                    "duration": 0.1363637499999868
                },
                {
                    "name": "C5",
                    "midi": 72,
                    "time": 278.18204999999244,
                    "velocity": 0.5275590551181102,
                    "duration": 0.2727274999999736
                },
                {
                    "name": "G4",
                    "midi": 67,
                    "time": 278.18204999999244,
                    "velocity": 0.5275590551181102,
                    "duration": 0.2727274999999736
                },
                {
                    "name": "D#4",
                    "midi": 63,
                    "time": 278.18204999999244,
                    "velocity": 0.5275590551181102,
                    "duration": 0.2727274999999736
                },
                {
                    "name": "D#5",
                    "midi": 75,
                    "time": 278.18204999999244,
                    "velocity": 0.6220472440944882,
                    "duration": 0.2727274999999736
                },
                {
                    "name": "F5",
                    "midi": 77,
                    "time": 278.4547774999924,
                    "velocity": 0.6062992125984252,
                    "duration": 0.2727274999999736
                },
                {
                    "name": "C5",
                    "midi": 72,
                    "time": 278.4547774999924,
                    "velocity": 0.5039370078740157,
                    "duration": 0.2727274999999736
                },
                {
                    "name": "F4",
                    "midi": 65,
                    "time": 278.4547774999924,
                    "velocity": 0.5039370078740157,
                    "duration": 0.2727274999999736
                },
                {
                    "name": "C4",
                    "midi": 60,
                    "time": 278.7275049999924,
                    "velocity": 0.48031496062992124,
                    "duration": 0.2727274999999736
                },
                {
                    "name": "G#4",
                    "midi": 68,
                    "time": 278.7275049999924,
                    "velocity": 0.48031496062992124,
                    "duration": 0.2727274999999736
                },
                {
                    "name": "C5",
                    "midi": 72,
                    "time": 278.7275049999924,
                    "velocity": 0.5669291338582677,
                    "duration": 0.2727274999999736
                },
                {
                    "name": "C#5",
                    "midi": 73,
                    "time": 279.00023249999236,
                    "velocity": 0.6062992125984252,
                    "duration": 0.2727274999999736
                },
                {
                    "name": "G#4",
                    "midi": 68,
                    "time": 279.00023249999236,
                    "velocity": 0.5039370078740157,
                    "duration": 0.2727274999999736
                },
                {
                    "name": "C#4",
                    "midi": 61,
                    "time": 279.00023249999236,
                    "velocity": 0.5039370078740157,
                    "duration": 0.2727274999999736
                },
                {
                    "name": "C4",
                    "midi": 60,
                    "time": 279.27295999999234,
                    "velocity": 0.48031496062992124,
                    "duration": 0.2727274999999736
                },
                {
                    "name": "G#4",
                    "midi": 68,
                    "time": 279.27295999999234,
                    "velocity": 0.48031496062992124,
                    "duration": 0.2727274999999736
                },
                {
                    "name": "C5",
                    "midi": 72,
                    "time": 279.27295999999234,
                    "velocity": 0.5669291338582677,
                    "duration": 0.2727274999999736
                },
                {
                    "name": "G#4",
                    "midi": 68,
                    "time": 279.5456874999923,
                    "velocity": 0.5748031496062992,
                    "duration": 0.2727274999999736
                },
                {
                    "name": "D#4",
                    "midi": 63,
                    "time": 279.5456874999923,
                    "velocity": 0.47244094488188976,
                    "duration": 0.2727274999999736
                },
                {
                    "name": "G#3",
                    "midi": 56,
                    "time": 279.5456874999923,
                    "velocity": 0.47244094488188976,
                    "duration": 0.2727274999999736
                },
                {
                    "name": "F3",
                    "midi": 53,
                    "time": 279.8184149999923,
                    "velocity": 0.44881889763779526,
                    "duration": 0.2727274999999736
                },
                {
                    "name": "F4",
                    "midi": 65,
                    "time": 279.8184149999923,
                    "velocity": 0.5354330708661418,
                    "duration": 0.2727274999999736
                },
                {
                    "name": "C#4",
                    "midi": 61,
                    "time": 280.09114249999226,
                    "velocity": 0.5748031496062992,
                    "duration": 0.2727274999999736
                },
                {
                    "name": "G#3",
                    "midi": 56,
                    "time": 280.09114249999226,
                    "velocity": 0.47244094488188976,
                    "duration": 0.2727274999999736
                },
                {
                    "name": "C#3",
                    "midi": 49,
                    "time": 280.09114249999226,
                    "velocity": 0.47244094488188976,
                    "duration": 0.2727274999999736
                },
                {
                    "name": "D#3",
                    "midi": 51,
                    "time": 280.36386999999223,
                    "velocity": 0.44881889763779526,
                    "duration": 0.2727274999999736
                },
                {
                    "name": "A#3",
                    "midi": 58,
                    "time": 280.36386999999223,
                    "velocity": 0.44881889763779526,
                    "duration": 0.2727274999999736
                },
                {
                    "name": "C#4",
                    "midi": 61,
                    "time": 280.36386999999223,
                    "velocity": 0.5354330708661418,
                    "duration": 0.2727274999999736
                },
                {
                    "name": "G#1",
                    "midi": 32,
                    "time": 280.6365974999922,
                    "velocity": 0.44881889763779526,
                    "duration": 0.1363637499999868
                },
                {
                    "name": "G#2",
                    "midi": 44,
                    "time": 280.6365974999922,
                    "velocity": 0.5354330708661418,
                    "duration": 0.1363637499999868
                },
                {
                    "name": "D#3",
                    "midi": 51,
                    "time": 280.9093249999922,
                    "velocity": 0.44881889763779526,
                    "duration": 0.2727274999999736
                },
                {
                    "name": "G#3",
                    "midi": 56,
                    "time": 280.9093249999922,
                    "velocity": 0.44881889763779526,
                    "duration": 0.2727274999999736
                },
                {
                    "name": "C4",
                    "midi": 60,
                    "time": 280.9093249999922,
                    "velocity": 0.5354330708661418,
                    "duration": 0.2727274999999736
                },
                {
                    "name": "F3",
                    "midi": 53,
                    "time": 281.18205249999215,
                    "velocity": 0.4881889763779528,
                    "duration": 0.2727274999999736
                },
                {
                    "name": "G#3",
                    "midi": 56,
                    "time": 281.18205249999215,
                    "velocity": 0.4881889763779528,
                    "duration": 0.2727274999999736
                },
                {
                    "name": "B3",
                    "midi": 59,
                    "time": 281.18205249999215,
                    "velocity": 0.5748031496062992,
                    "duration": 0.2727274999999736
                },
                {
                    "name": "F2",
                    "midi": 41,
                    "time": 281.4547799999921,
                    "velocity": 0.44881889763779526,
                    "duration": 0.1363637499999868
                },
                {
                    "name": "F3",
                    "midi": 53,
                    "time": 281.4547799999921,
                    "velocity": 0.5354330708661418,
                    "duration": 0.1363637499999868
                },
                {
                    "name": "F1",
                    "midi": 29,
                    "time": 281.7275074999921,
                    "velocity": 0.4881889763779528,
                    "duration": 0.1363637499999868
                },
                {
                    "name": "F2",
                    "midi": 41,
                    "time": 281.7275074999921,
                    "velocity": 0.5748031496062992,
                    "duration": 0.1363637499999868
                },
                {
                    "name": "E1",
                    "midi": 28,
                    "time": 282.0002349999921,
                    "velocity": 0.49606299212598426,
                    "duration": 0.2727274999999736
                },
                {
                    "name": "E2",
                    "midi": 40,
                    "time": 282.0002349999921,
                    "velocity": 0.5905511811023622,
                    "duration": 0.2727274999999736
                },
                {
                    "name": "D#1",
                    "midi": 27,
                    "time": 282.27296249999205,
                    "velocity": 0.5039370078740157,
                    "duration": 0.1363637499999868
                },
                {
                    "name": "D#2",
                    "midi": 39,
                    "time": 282.27296249999205,
                    "velocity": 0.5984251968503937,
                    "duration": 0.1363637499999868
                },
                {
                    "name": "A#3",
                    "midi": 58,
                    "time": 282.545689999992,
                    "velocity": 0.47244094488188976,
                    "duration": 0.0681818749999934
                },
                {
                    "name": "C#4",
                    "midi": 61,
                    "time": 282.545689999992,
                    "velocity": 0.47244094488188976,
                    "duration": 0.0681818749999934
                },
                {
                    "name": "D#4",
                    "midi": 63,
                    "time": 282.545689999992,
                    "velocity": 0.47244094488188976,
                    "duration": 0.0681818749999934
                },
                {
                    "name": "G4",
                    "midi": 67,
                    "time": 282.545689999992,
                    "velocity": 0.5590551181102362,
                    "duration": 0.0681818749999934
                },
                {
                    "name": "A#3",
                    "midi": 58,
                    "time": 282.682053749992,
                    "velocity": 0.4409448818897638,
                    "duration": 0.0681818749999934
                },
                {
                    "name": "C#4",
                    "midi": 61,
                    "time": 282.682053749992,
                    "velocity": 0.4409448818897638,
                    "duration": 0.0681818749999934
                },
                {
                    "name": "D#4",
                    "midi": 63,
                    "time": 282.682053749992,
                    "velocity": 0.4409448818897638,
                    "duration": 0.0681818749999934
                },
                {
                    "name": "G4",
                    "midi": 67,
                    "time": 282.682053749992,
                    "velocity": 0.5275590551181102,
                    "duration": 0.0681818749999934
                },
                {
                    "name": "A#3",
                    "midi": 58,
                    "time": 282.818417499992,
                    "velocity": 0.47244094488188976,
                    "duration": 0.1363637499999868
                },
                {
                    "name": "C#4",
                    "midi": 61,
                    "time": 282.818417499992,
                    "velocity": 0.47244094488188976,
                    "duration": 0.1363637499999868
                },
                {
                    "name": "D#4",
                    "midi": 63,
                    "time": 282.818417499992,
                    "velocity": 0.47244094488188976,
                    "duration": 0.1363637499999868
                },
                {
                    "name": "G4",
                    "midi": 67,
                    "time": 282.818417499992,
                    "velocity": 0.5590551181102362,
                    "duration": 0.1363637499999868
                },
                {
                    "name": "A#3",
                    "midi": 58,
                    "time": 283.09114499999197,
                    "velocity": 0.4330708661417323,
                    "duration": 0.1363637499999868
                },
                {
                    "name": "C#4",
                    "midi": 61,
                    "time": 283.09114499999197,
                    "velocity": 0.4330708661417323,
                    "duration": 0.1363637499999868
                },
                {
                    "name": "D#4",
                    "midi": 63,
                    "time": 283.09114499999197,
                    "velocity": 0.4330708661417323,
                    "duration": 0.1363637499999868
                },
                {
                    "name": "F#4",
                    "midi": 66,
                    "time": 283.09114499999197,
                    "velocity": 0.5118110236220472,
                    "duration": 0.1363637499999868
                },
                {
                    "name": "A#3",
                    "midi": 58,
                    "time": 283.22750874999196,
                    "velocity": 0.4566929133858268,
                    "duration": 0.1363637499999868
                },
                {
                    "name": "C#4",
                    "midi": 61,
                    "time": 283.22750874999196,
                    "velocity": 0.4566929133858268,
                    "duration": 0.1363637499999868
                },
                {
                    "name": "D#4",
                    "midi": 63,
                    "time": 283.22750874999196,
                    "velocity": 0.4566929133858268,
                    "duration": 0.1363637499999868
                },
                {
                    "name": "G4",
                    "midi": 67,
                    "time": 283.22750874999196,
                    "velocity": 0.5433070866141733,
                    "duration": 0.1363637499999868
                },
                {
                    "name": "A#3",
                    "midi": 58,
                    "time": 283.36387249999194,
                    "velocity": 0.48031496062992124,
                    "duration": 0.27272750000003043
                },
                {
                    "name": "C#4",
                    "midi": 61,
                    "time": 283.36387249999194,
                    "velocity": 0.48031496062992124,
                    "duration": 0.27272750000003043
                },
                {
                    "name": "D#4",
                    "midi": 63,
                    "time": 283.36387249999194,
                    "velocity": 0.48031496062992124,
                    "duration": 0.27272750000003043
                },
                {
                    "name": "G#4",
                    "midi": 68,
                    "time": 283.36387249999194,
                    "velocity": 0.5669291338582677,
                    "duration": 0.27272750000003043
                },
                {
                    "name": "A#3",
                    "midi": 58,
                    "time": 283.636599999992,
                    "velocity": 0.4645669291338583,
                    "duration": 0.2727274999999736
                },
                {
                    "name": "C#4",
                    "midi": 61,
                    "time": 283.636599999992,
                    "velocity": 0.4645669291338583,
                    "duration": 0.2727274999999736
                },
                {
                    "name": "D#4",
                    "midi": 63,
                    "time": 283.636599999992,
                    "velocity": 0.4645669291338583,
                    "duration": 0.2727274999999736
                },
                {
                    "name": "A#4",
                    "midi": 70,
                    "time": 283.636599999992,
                    "velocity": 0.5511811023622047,
                    "duration": 0.2727274999999736
                },
                {
                    "name": "G#2",
                    "midi": 44,
                    "time": 283.90932749999195,
                    "velocity": 0.4881889763779528,
                    "duration": 0.1363637499999868
                },
                {
                    "name": "G#3",
                    "midi": 56,
                    "time": 283.90932749999195,
                    "velocity": 0.5826771653543307,
                    "duration": 0.1363637499999868
                },
                {
                    "name": "D#3",
                    "midi": 51,
                    "time": 284.1820549999919,
                    "velocity": 0.44881889763779526,
                    "duration": 0.2727274999999736
                },
                {
                    "name": "G#3",
                    "midi": 56,
                    "time": 284.1820549999919,
                    "velocity": 0.44881889763779526,
                    "duration": 0.2727274999999736
                },
                {
                    "name": "C4",
                    "midi": 60,
                    "time": 284.1820549999919,
                    "velocity": 0.5354330708661418,
                    "duration": 0.2727274999999736
                },
                {
                    "name": "F3",
                    "midi": 53,
                    "time": 284.4547824999919,
                    "velocity": 0.4881889763779528,
                    "duration": 0.27272750000003043
                },
                {
                    "name": "G#3",
                    "midi": 56,
                    "time": 284.4547824999919,
                    "velocity": 0.4881889763779528,
                    "duration": 0.27272750000003043
                },
                {
                    "name": "B3",
                    "midi": 59,
                    "time": 284.4547824999919,
                    "velocity": 0.5748031496062992,
                    "duration": 0.27272750000003043
                },
                {
                    "name": "F2",
                    "midi": 41,
                    "time": 284.7275099999919,
                    "velocity": 0.44881889763779526,
                    "duration": 0.1363637499999868
                },
                {
                    "name": "F3",
                    "midi": 53,
                    "time": 284.7275099999919,
                    "velocity": 0.5354330708661418,
                    "duration": 0.1363637499999868
                },
                {
                    "name": "F1",
                    "midi": 29,
                    "time": 285.0002374999919,
                    "velocity": 0.4881889763779528,
                    "duration": 0.1363637499999868
                },
                {
                    "name": "F2",
                    "midi": 41,
                    "time": 285.0002374999919,
                    "velocity": 0.5748031496062992,
                    "duration": 0.1363637499999868
                },
                {
                    "name": "E1",
                    "midi": 28,
                    "time": 285.27296499999187,
                    "velocity": 0.49606299212598426,
                    "duration": 0.27272750000003043
                },
                {
                    "name": "E2",
                    "midi": 40,
                    "time": 285.27296499999187,
                    "velocity": 0.5905511811023622,
                    "duration": 0.27272750000003043
                },
                {
                    "name": "D#1",
                    "midi": 27,
                    "time": 285.5456924999919,
                    "velocity": 0.5039370078740157,
                    "duration": 0.1363637499999868
                },
                {
                    "name": "D#2",
                    "midi": 39,
                    "time": 285.5456924999919,
                    "velocity": 0.5984251968503937,
                    "duration": 0.1363637499999868
                },
                {
                    "name": "A#3",
                    "midi": 58,
                    "time": 285.8184199999919,
                    "velocity": 0.47244094488188976,
                    "duration": 0.0681818749999934
                },
                {
                    "name": "C#4",
                    "midi": 61,
                    "time": 285.8184199999919,
                    "velocity": 0.47244094488188976,
                    "duration": 0.0681818749999934
                },
                {
                    "name": "D#4",
                    "midi": 63,
                    "time": 285.8184199999919,
                    "velocity": 0.47244094488188976,
                    "duration": 0.0681818749999934
                },
                {
                    "name": "G4",
                    "midi": 67,
                    "time": 285.8184199999919,
                    "velocity": 0.5590551181102362,
                    "duration": 0.0681818749999934
                },
                {
                    "name": "A#3",
                    "midi": 58,
                    "time": 285.95478374999186,
                    "velocity": 0.4409448818897638,
                    "duration": 0.0681818749999934
                },
                {
                    "name": "C#4",
                    "midi": 61,
                    "time": 285.95478374999186,
                    "velocity": 0.4409448818897638,
                    "duration": 0.0681818749999934
                },
                {
                    "name": "D#4",
                    "midi": 63,
                    "time": 285.95478374999186,
                    "velocity": 0.4409448818897638,
                    "duration": 0.0681818749999934
                },
                {
                    "name": "G4",
                    "midi": 67,
                    "time": 285.95478374999186,
                    "velocity": 0.5275590551181102,
                    "duration": 0.0681818749999934
                },
                {
                    "name": "A#3",
                    "midi": 58,
                    "time": 286.09114749999185,
                    "velocity": 0.47244094488188976,
                    "duration": 0.1363637499999868
                },
                {
                    "name": "C#4",
                    "midi": 61,
                    "time": 286.09114749999185,
                    "velocity": 0.47244094488188976,
                    "duration": 0.1363637499999868
                },
                {
                    "name": "D#4",
                    "midi": 63,
                    "time": 286.09114749999185,
                    "velocity": 0.47244094488188976,
                    "duration": 0.1363637499999868
                },
                {
                    "name": "G4",
                    "midi": 67,
                    "time": 286.09114749999185,
                    "velocity": 0.5590551181102362,
                    "duration": 0.1363637499999868
                },
                {
                    "name": "A#3",
                    "midi": 58,
                    "time": 286.22751124999184,
                    "velocity": 0.4015748031496063,
                    "duration": 0.1363637499999868
                },
                {
                    "name": "C#4",
                    "midi": 61,
                    "time": 286.22751124999184,
                    "velocity": 0.4015748031496063,
                    "duration": 0.1363637499999868
                },
                {
                    "name": "D#4",
                    "midi": 63,
                    "time": 286.22751124999184,
                    "velocity": 0.4015748031496063,
                    "duration": 0.1363637499999868
                },
                {
                    "name": "G#4",
                    "midi": 68,
                    "time": 286.22751124999184,
                    "velocity": 0.47244094488188976,
                    "duration": 0.1363637499999868
                },
                {
                    "name": "A#3",
                    "midi": 58,
                    "time": 286.3638749999918,
                    "velocity": 0.4330708661417323,
                    "duration": 0.1363637499999868
                },
                {
                    "name": "C#4",
                    "midi": 61,
                    "time": 286.3638749999918,
                    "velocity": 0.4330708661417323,
                    "duration": 0.1363637499999868
                },
                {
                    "name": "D#4",
                    "midi": 63,
                    "time": 286.3638749999918,
                    "velocity": 0.4330708661417323,
                    "duration": 0.1363637499999868
                },
                {
                    "name": "F#4",
                    "midi": 66,
                    "time": 286.3638749999918,
                    "velocity": 0.5118110236220472,
                    "duration": 0.1363637499999868
                },
                {
                    "name": "A#3",
                    "midi": 58,
                    "time": 286.5002387499918,
                    "velocity": 0.4566929133858268,
                    "duration": 0.1363637499999868
                },
                {
                    "name": "C#4",
                    "midi": 61,
                    "time": 286.5002387499918,
                    "velocity": 0.4566929133858268,
                    "duration": 0.1363637499999868
                },
                {
                    "name": "D#4",
                    "midi": 63,
                    "time": 286.5002387499918,
                    "velocity": 0.4566929133858268,
                    "duration": 0.1363637499999868
                },
                {
                    "name": "G4",
                    "midi": 67,
                    "time": 286.5002387499918,
                    "velocity": 0.5433070866141733,
                    "duration": 0.1363637499999868
                },
                {
                    "name": "A#3",
                    "midi": 58,
                    "time": 286.6366024999918,
                    "velocity": 0.48031496062992124,
                    "duration": 0.27272750000003043
                },
                {
                    "name": "C#4",
                    "midi": 61,
                    "time": 286.6366024999918,
                    "velocity": 0.48031496062992124,
                    "duration": 0.27272750000003043
                },
                {
                    "name": "D#4",
                    "midi": 63,
                    "time": 286.6366024999918,
                    "velocity": 0.48031496062992124,
                    "duration": 0.27272750000003043
                },
                {
                    "name": "G#4",
                    "midi": 68,
                    "time": 286.6366024999918,
                    "velocity": 0.5669291338582677,
                    "duration": 0.27272750000003043
                },
                {
                    "name": "A#3",
                    "midi": 58,
                    "time": 286.9093299999918,
                    "velocity": 0.4645669291338583,
                    "duration": 0.2727274999999736
                },
                {
                    "name": "C#4",
                    "midi": 61,
                    "time": 286.9093299999918,
                    "velocity": 0.4645669291338583,
                    "duration": 0.2727274999999736
                },
                {
                    "name": "D#4",
                    "midi": 63,
                    "time": 286.9093299999918,
                    "velocity": 0.4645669291338583,
                    "duration": 0.2727274999999736
                },
                {
                    "name": "A#4",
                    "midi": 70,
                    "time": 286.9093299999918,
                    "velocity": 0.5511811023622047,
                    "duration": 0.2727274999999736
                },
                {
                    "name": "G#1",
                    "midi": 32,
                    "time": 287.1820574999918,
                    "velocity": 0.5511811023622047,
                    "duration": 0.1363637499999868
                },
                {
                    "name": "G#2",
                    "midi": 44,
                    "time": 287.1820574999918,
                    "velocity": 0.6614173228346457,
                    "duration": 0.1363637499999868
                },
                {
                    "name": "D#2",
                    "midi": 39,
                    "time": 287.4547849999918,
                    "velocity": 0.5275590551181102,
                    "duration": 0.1363637499999868
                },
                {
                    "name": "D#3",
                    "midi": 51,
                    "time": 287.4547849999918,
                    "velocity": 0.6220472440944882,
                    "duration": 0.1363637499999868
                },
                {
                    "name": "G#3",
                    "midi": 56,
                    "time": 287.72751249999175,
                    "velocity": 0.6062992125984252,
                    "duration": 0.1363637499999868
                },
                {
                    "name": "G#2",
                    "midi": 44,
                    "time": 287.72751249999175,
                    "velocity": 0.5039370078740157,
                    "duration": 0.1363637499999868
                },
                {
                    "name": "D#3",
                    "midi": 51,
                    "time": 288.0002399999917,
                    "velocity": 0.5669291338582677,
                    "duration": 0.0681818749999934
                },
                {
                    "name": "D#4",
                    "midi": 63,
                    "time": 288.0002399999917,
                    "velocity": 0.6692913385826772,
                    "duration": 0.0681818749999934
                },
                {
                    "name": "G#3",
                    "midi": 56,
                    "time": 288.2729674999917,
                    "velocity": 0.5748031496062992,
                    "duration": 0.1363637499999868
                },
                {
                    "name": "G#4",
                    "midi": 68,
                    "time": 288.2729674999917,
                    "velocity": 0.6771653543307087,
                    "duration": 0.1363637499999868
                },
                {
                    "name": "D#4",
                    "midi": 63,
                    "time": 288.54569499999167,
                    "velocity": 0.48031496062992124,
                    "duration": 0.1363637499999868
                },
                {
                    "name": "D#5",
                    "midi": 75,
                    "time": 288.54569499999167,
                    "velocity": 0.5748031496062992,
                    "duration": 0.1363637499999868
                },
                {
                    "name": "G#1",
                    "midi": 32,
                    "time": 288.81842249999164,
                    "velocity": 0.5511811023622047,
                    "duration": 0.13636375000004364
                },
                {
                    "name": "G#2",
                    "midi": 44,
                    "time": 288.81842249999164,
                    "velocity": 0.6614173228346457,
                    "duration": 0.13636375000004364
                },
                {
                    "name": "D#2",
                    "midi": 39,
                    "time": 289.09114999999167,
                    "velocity": 0.5275590551181102,
                    "duration": 0.1363637499999868
                },
                {
                    "name": "D#3",
                    "midi": 51,
                    "time": 289.09114999999167,
                    "velocity": 0.6220472440944882,
                    "duration": 0.1363637499999868
                },
                {
                    "name": "G#3",
                    "midi": 56,
                    "time": 289.36387749999164,
                    "velocity": 0.6062992125984252,
                    "duration": 0.1363637499999868
                },
                {
                    "name": "G#2",
                    "midi": 44,
                    "time": 289.36387749999164,
                    "velocity": 0.5039370078740157,
                    "duration": 0.1363637499999868
                },
                {
                    "name": "D#3",
                    "midi": 51,
                    "time": 289.6366049999916,
                    "velocity": 0.5669291338582677,
                    "duration": 0.0681818749999934
                },
                {
                    "name": "D#4",
                    "midi": 63,
                    "time": 289.6366049999916,
                    "velocity": 0.6692913385826772,
                    "duration": 0.0681818749999934
                },
                {
                    "name": "G#3",
                    "midi": 56,
                    "time": 289.9093324999916,
                    "velocity": 0.5748031496062992,
                    "duration": 0.1363637499999868
                },
                {
                    "name": "G#4",
                    "midi": 68,
                    "time": 289.9093324999916,
                    "velocity": 0.6771653543307087,
                    "duration": 0.1363637499999868
                },
                {
                    "name": "D#4",
                    "midi": 63,
                    "time": 290.18205999999157,
                    "velocity": 0.48031496062992124,
                    "duration": 0.1363637499999868
                },
                {
                    "name": "D#5",
                    "midi": 75,
                    "time": 290.18205999999157,
                    "velocity": 0.5748031496062992,
                    "duration": 0.1363637499999868
                },
                {
                    "name": "G#1",
                    "midi": 32,
                    "time": 290.45478749999154,
                    "velocity": 0.5511811023622047,
                    "duration": 0.1363637499999868
                },
                {
                    "name": "G#2",
                    "midi": 44,
                    "time": 290.45478749999154,
                    "velocity": 0.6614173228346457,
                    "duration": 0.1363637499999868
                },
                {
                    "name": "D#2",
                    "midi": 39,
                    "time": 290.7275149999915,
                    "velocity": 0.5275590551181102,
                    "duration": 0.1363637499999868
                },
                {
                    "name": "D#3",
                    "midi": 51,
                    "time": 290.7275149999915,
                    "velocity": 0.6220472440944882,
                    "duration": 0.1363637499999868
                },
                {
                    "name": "G#3",
                    "midi": 56,
                    "time": 291.0002424999915,
                    "velocity": 0.6062992125984252,
                    "duration": 0.1363637499999868
                },
                {
                    "name": "G#2",
                    "midi": 44,
                    "time": 291.0002424999915,
                    "velocity": 0.5039370078740157,
                    "duration": 0.1363637499999868
                },
                {
                    "name": "D#3",
                    "midi": 51,
                    "time": 291.27296999999146,
                    "velocity": 0.5669291338582677,
                    "duration": 0.0681818749999934
                },
                {
                    "name": "D#4",
                    "midi": 63,
                    "time": 291.27296999999146,
                    "velocity": 0.6692913385826772,
                    "duration": 0.0681818749999934
                },
                {
                    "name": "G#3",
                    "midi": 56,
                    "time": 291.54569749999143,
                    "velocity": 0.5748031496062992,
                    "duration": 0.1363637499999868
                },
                {
                    "name": "G#4",
                    "midi": 68,
                    "time": 291.54569749999143,
                    "velocity": 0.6771653543307087,
                    "duration": 0.1363637499999868
                },
                {
                    "name": "D#3",
                    "midi": 51,
                    "time": 291.8184249999914,
                    "velocity": 0.48031496062992124,
                    "duration": 0.1363637499999868
                },
                {
                    "name": "D#4",
                    "midi": 63,
                    "time": 291.8184249999914,
                    "velocity": 0.5748031496062992,
                    "duration": 0.1363637499999868
                },
                {
                    "name": "G#2",
                    "midi": 44,
                    "time": 292.0911524999914,
                    "velocity": 0.5511811023622047,
                    "duration": 0.1363637499999868
                },
                {
                    "name": "G#3",
                    "midi": 56,
                    "time": 292.0911524999914,
                    "velocity": 0.6614173228346457,
                    "duration": 0.1363637499999868
                },
                {
                    "name": "D#2",
                    "midi": 39,
                    "time": 292.36387999999135,
                    "velocity": 0.5275590551181102,
                    "duration": 0.1363637499999868
                },
                {
                    "name": "D#3",
                    "midi": 51,
                    "time": 292.36387999999135,
                    "velocity": 0.6220472440944882,
                    "duration": 0.1363637499999868
                },
                {
                    "name": "G#1",
                    "midi": 32,
                    "time": 292.6366074999913,
                    "velocity": 0.5590551181102362,
                    "duration": 0.0681818749999934
                },
                {
                    "name": "G#2",
                    "midi": 44,
                    "time": 292.6366074999913,
                    "velocity": 0.6614173228346457,
                    "duration": 0.0681818749999934
                },
                {
                    "name": "G1",
                    "midi": 31,
                    "time": 292.7729712499913,
                    "velocity": 0.5354330708661418,
                    "duration": 0.0681818749999934
                },
                {
                    "name": "G2",
                    "midi": 43,
                    "time": 292.7729712499913,
                    "velocity": 0.6299212598425197,
                    "duration": 0.0681818749999934
                },
                {
                    "name": "F1",
                    "midi": 29,
                    "time": 292.9093349999913,
                    "velocity": 0.5354330708661418,
                    "duration": 0.0681818749999934
                },
                {
                    "name": "F2",
                    "midi": 41,
                    "time": 292.9093349999913,
                    "velocity": 0.6377952755905512,
                    "duration": 0.0681818749999934
                },
                {
                    "name": "D#1",
                    "midi": 27,
                    "time": 293.0456987499913,
                    "velocity": 0.5354330708661418,
                    "duration": 0.0681818749999934
                },
                {
                    "name": "D#2",
                    "midi": 39,
                    "time": 293.0456987499913,
                    "velocity": 0.6377952755905512,
                    "duration": 0.0681818749999934
                },
                {
                    "name": "G#1",
                    "midi": 32,
                    "time": 293.1820624999913,
                    "velocity": 0.5039370078740157,
                    "duration": 0.0681818749999934
                },
                {
                    "name": "G#2",
                    "midi": 44,
                    "time": 293.1820624999913,
                    "velocity": 0.6062992125984252,
                    "duration": 0.0681818749999934
                },
                {
                    "name": "G1",
                    "midi": 31,
                    "time": 293.31842624999126,
                    "velocity": 0.5354330708661418,
                    "duration": 0.0681818749999934
                },
                {
                    "name": "G2",
                    "midi": 43,
                    "time": 293.31842624999126,
                    "velocity": 0.6299212598425197,
                    "duration": 0.0681818749999934
                },
                {
                    "name": "F1",
                    "midi": 29,
                    "time": 293.45478999999125,
                    "velocity": 0.5511811023622047,
                    "duration": 0.0681818749999934
                },
                {
                    "name": "F2",
                    "midi": 41,
                    "time": 293.45478999999125,
                    "velocity": 0.6535433070866141,
                    "duration": 0.0681818749999934
                },
                {
                    "name": "D#1",
                    "midi": 27,
                    "time": 293.59115374999124,
                    "velocity": 0.5748031496062992,
                    "duration": 0.0681818749999934
                },
                {
                    "name": "D#2",
                    "midi": 39,
                    "time": 293.59115374999124,
                    "velocity": 0.6771653543307087,
                    "duration": 0.0681818749999934
                },
                {
                    "name": "G#1",
                    "midi": 32,
                    "time": 293.7275174999912,
                    "velocity": 0.5826771653543307,
                    "duration": 0.2727274999999736
                },
                {
                    "name": "G#2",
                    "midi": 44,
                    "time": 293.7275174999912,
                    "velocity": 0.7007874015748031,
                    "duration": 0.2727274999999736
                },
                {
                    "name": "C2",
                    "midi": 36,
                    "time": 294.5456999999912,
                    "velocity": 0.5118110236220472,
                    "duration": 0.0681818749999934
                },
                {
                    "name": "G2",
                    "midi": 43,
                    "time": 294.5456999999912,
                    "velocity": 0.5118110236220472,
                    "duration": 0.0681818749999934
                },
                {
                    "name": "C3",
                    "midi": 48,
                    "time": 294.5456999999912,
                    "velocity": 0.6062992125984252,
                    "duration": 0.0681818749999934
                },
                {
                    "name": "C2",
                    "midi": 36,
                    "time": 294.6820637499912,
                    "velocity": 0.48031496062992124,
                    "duration": 0.0681818749999934
                },
                {
                    "name": "G2",
                    "midi": 43,
                    "time": 294.6820637499912,
                    "velocity": 0.48031496062992124,
                    "duration": 0.0681818749999934
                },
                {
                    "name": "C3",
                    "midi": 48,
                    "time": 294.6820637499912,
                    "velocity": 0.5669291338582677,
                    "duration": 0.0681818749999934
                },
                {
                    "name": "C2",
                    "midi": 36,
                    "time": 294.8184274999912,
                    "velocity": 0.5118110236220472,
                    "duration": 0.1363637499999868
                },
                {
                    "name": "G2",
                    "midi": 43,
                    "time": 294.8184274999912,
                    "velocity": 0.5118110236220472,
                    "duration": 0.1363637499999868
                },
                {
                    "name": "C3",
                    "midi": 48,
                    "time": 294.8184274999912,
                    "velocity": 0.6062992125984252,
                    "duration": 0.1363637499999868
                },
                {
                    "name": "C2",
                    "midi": 36,
                    "time": 295.09115499999115,
                    "velocity": 0.47244094488188976,
                    "duration": 0.1363637499999868
                },
                {
                    "name": "G2",
                    "midi": 43,
                    "time": 295.09115499999115,
                    "velocity": 0.47244094488188976,
                    "duration": 0.1363637499999868
                },
                {
                    "name": "C3",
                    "midi": 48,
                    "time": 295.09115499999115,
                    "velocity": 0.5590551181102362,
                    "duration": 0.1363637499999868
                },
                {
                    "name": "C2",
                    "midi": 36,
                    "time": 295.2957006249911,
                    "velocity": 0.47244094488188976,
                    "duration": 0.34090937500002383
                },
                {
                    "name": "G2",
                    "midi": 43,
                    "time": 295.32979156249115,
                    "velocity": 0.47244094488188976,
                    "duration": 0.3068184374999987
                },
                {
                    "name": "C3",
                    "midi": 48,
                    "time": 295.3638824999912,
                    "velocity": 0.5590551181102362,
                    "duration": 0.2727274999999736
                },
                {
                    "name": "C2",
                    "midi": 36,
                    "time": 295.84115562499113,
                    "velocity": 0.47244094488188976,
                    "duration": 0.34090937500002383
                },
                {
                    "name": "G2",
                    "midi": 43,
                    "time": 295.87524656249116,
                    "velocity": 0.47244094488188976,
                    "duration": 0.3068184374999987
                },
                {
                    "name": "C3",
                    "midi": 48,
                    "time": 295.9093374999912,
                    "velocity": 0.5590551181102362,
                    "duration": 0.2727274999999736
                },
                {
                    "name": "D#2",
                    "midi": 39,
                    "time": 296.3866106249912,
                    "velocity": 0.47244094488188976,
                    "duration": 0.340909374999967
                },
                {
                    "name": "A#2",
                    "midi": 46,
                    "time": 296.4547924999912,
                    "velocity": 0.5590551181102362,
                    "duration": 0.2727274999999736
                },
                {
                    "name": "G#1",
                    "midi": 32,
                    "time": 297.0002474999912,
                    "velocity": 0.5275590551181102,
                    "duration": 0.2727274999999736
                },
                {
                    "name": "G#2",
                    "midi": 44,
                    "time": 297.0002474999912,
                    "velocity": 0.6220472440944882,
                    "duration": 0.2727274999999736
                }
            ],
            "controlChanges": {
                "7": [
                    {
                        "number": 7,
                        "time": 0,
                        "value": 0.7874015748031497
                    }
                ],
                "10": [
                    {
                        "number": 10,
                        "time": 0,
                        "value": 0.5039370078740157
                    }
                ],
                "64": [
                    {
                        "number": 64,
                        "time": 0,
                        "value": 0
                    },
                    {
                        "number": 64,
                        "time": 0.09772735416666667,
                        "value": 1
                    },
                    {
                        "number": 64,
                        "time": 0.8227279583333333,
                        "value": 0
                    },
                    {
                        "number": 64,
                        "time": 6.676141927083337,
                        "value": 1
                    },
                    {
                        "number": 64,
                        "time": 7.36932432291667,
                        "value": 0
                    },
                    {
                        "number": 64,
                        "time": 13.188647354166653,
                        "value": 1
                    },
                    {
                        "number": 64,
                        "time": 13.636374999999987,
                        "value": 0
                    },
                    {
                        "number": 64,
                        "time": 15.377285541666648,
                        "value": 1
                    },
                    {
                        "number": 64,
                        "time": 16.363649999999982,
                        "value": 0
                    },
                    {
                        "number": 64,
                        "time": 16.454559166666648,
                        "value": 1
                    },
                    {
                        "number": 64,
                        "time": 16.896604989583313,
                        "value": 0
                    },
                    {
                        "number": 64,
                        "time": 18.643197354166656,
                        "value": 1
                    },
                    {
                        "number": 64,
                        "time": 19.63637999999999,
                        "value": 0
                    },
                    {
                        "number": 64,
                        "time": 19.696607322916655,
                        "value": 1
                    },
                    {
                        "number": 64,
                        "time": 19.888652937499987,
                        "value": 0
                    },
                    {
                        "number": 64,
                        "time": 22.431836874999995,
                        "value": 1
                    },
                    {
                        "number": 64,
                        "time": 26.188658187500018,
                        "value": 0
                    },
                    {
                        "number": 64,
                        "time": 26.27047643750002,
                        "value": 1
                    },
                    {
                        "number": 64,
                        "time": 27.00797705208335,
                        "value": 0
                    },
                    {
                        "number": 64,
                        "time": 27.854568666666687,
                        "value": 1
                    },
                    {
                        "number": 64,
                        "time": 28.372750916666686,
                        "value": 0
                    },
                    {
                        "number": 64,
                        "time": 29.546615531250023,
                        "value": 1
                    },
                    {
                        "number": 64,
                        "time": 30.56138910416669,
                        "value": 0
                    },
                    {
                        "number": 64,
                        "time": 30.846616614583358,
                        "value": 1
                    },
                    {
                        "number": 64,
                        "time": 31.090935000000027,
                        "value": 0
                    },
                    {
                        "number": 64,
                        "time": 31.152298687500025,
                        "value": 1
                    },
                    {
                        "number": 64,
                        "time": 31.55570811458336,
                        "value": 0
                    },
                    {
                        "number": 64,
                        "time": 31.68525367708336,
                        "value": 1
                    },
                    {
                        "number": 64,
                        "time": 31.915935687500024,
                        "value": 0
                    },
                    {
                        "number": 64,
                        "time": 32.72730000000003,
                        "value": 0
                    },
                    {
                        "number": 64,
                        "time": 32.81593643750003,
                        "value": 1
                    },
                    {
                        "number": 64,
                        "time": 33.5545734166667,
                        "value": 0
                    },
                    {
                        "number": 64,
                        "time": 34.40002866666671,
                        "value": 1
                    },
                    {
                        "number": 64,
                        "time": 34.92162001041671,
                        "value": 0
                    },
                    {
                        "number": 64,
                        "time": 36.03639366666672,
                        "value": 1
                    },
                    {
                        "number": 64,
                        "time": 36.27730295833339,
                        "value": 0
                    },
                    {
                        "number": 64,
                        "time": 36.58184866666672,
                        "value": 1
                    },
                    {
                        "number": 64,
                        "time": 36.82275795833339,
                        "value": 0
                    },
                    {
                        "number": 64,
                        "time": 37.12730366666673,
                        "value": 1
                    },
                    {
                        "number": 64,
                        "time": 37.36707659375006,
                        "value": 0
                    },
                    {
                        "number": 64,
                        "time": 37.67275866666673,
                        "value": 1
                    },
                    {
                        "number": 64,
                        "time": 37.9170770520834,
                        "value": 0
                    },
                    {
                        "number": 64,
                        "time": 38.218213666666735,
                        "value": 1
                    },
                    {
                        "number": 64,
                        "time": 38.45798659375007,
                        "value": 0
                    },
                    {
                        "number": 64,
                        "time": 38.76366866666674,
                        "value": 1
                    },
                    {
                        "number": 64,
                        "time": 39.00798705208341,
                        "value": 0
                    },
                    {
                        "number": 64,
                        "time": 39.36480553125008,
                        "value": 1
                    },
                    {
                        "number": 64,
                        "time": 39.85457866666675,
                        "value": 0
                    },
                    {
                        "number": 64,
                        "time": 39.90685143750008,
                        "value": 1
                    },
                    {
                        "number": 64,
                        "time": 40.098897052083416,
                        "value": 0
                    },
                    {
                        "number": 64,
                        "time": 40.43980642708342,
                        "value": 1
                    },
                    {
                        "number": 64,
                        "time": 40.65117023958342,
                        "value": 0
                    },
                    {
                        "number": 64,
                        "time": 40.96139777083342,
                        "value": 1
                    },
                    {
                        "number": 64,
                        "time": 41.19776160416676,
                        "value": 0
                    },
                    {
                        "number": 64,
                        "time": 42.58526276041676,
                        "value": 0
                    },
                    {
                        "number": 64,
                        "time": 42.637535531250094,
                        "value": 1
                    },
                    {
                        "number": 64,
                        "time": 43.127308666666764,
                        "value": 0
                    },
                    {
                        "number": 64,
                        "time": 43.1795814375001,
                        "value": 1
                    },
                    {
                        "number": 64,
                        "time": 43.378445239583435,
                        "value": 0
                    },
                    {
                        "number": 64,
                        "time": 43.712536427083435,
                        "value": 1
                    },
                    {
                        "number": 64,
                        "time": 43.9295820625001,
                        "value": 0
                    },
                    {
                        "number": 64,
                        "time": 44.23412777083344,
                        "value": 1
                    },
                    {
                        "number": 64,
                        "time": 44.470491604166774,
                        "value": 0
                    },
                    {
                        "number": 64,
                        "time": 45.477310625000115,
                        "value": 1
                    },
                    {
                        "number": 64,
                        "time": 45.78981088541677,
                        "value": 0
                    },
                    {
                        "number": 64,
                        "time": 45.863674583333434,
                        "value": 1
                    },
                    {
                        "number": 64,
                        "time": 46.05572019791677,
                        "value": 0
                    },
                    {
                        "number": 64,
                        "time": 46.13981117708343,
                        "value": 1
                    },
                    {
                        "number": 64,
                        "time": 46.307993135416766,
                        "value": 0
                    },
                    {
                        "number": 64,
                        "time": 46.409129583333424,
                        "value": 1
                    },
                    {
                        "number": 64,
                        "time": 46.630720677083424,
                        "value": 0
                    },
                    {
                        "number": 64,
                        "time": 46.675038895833424,
                        "value": 1
                    },
                    {
                        "number": 64,
                        "time": 46.84776631250009,
                        "value": 0
                    },
                    {
                        "number": 64,
                        "time": 46.944357302083425,
                        "value": 1
                    },
                    {
                        "number": 64,
                        "time": 47.19663023958342,
                        "value": 0
                    },
                    {
                        "number": 64,
                        "time": 47.29208486458342,
                        "value": 1
                    },
                    {
                        "number": 64,
                        "time": 47.47731229166675,
                        "value": 0
                    },
                    {
                        "number": 64,
                        "time": 47.51935778125008,
                        "value": 1
                    },
                    {
                        "number": 64,
                        "time": 47.74435796875008,
                        "value": 0
                    },
                    {
                        "number": 64,
                        "time": 47.78981255208341,
                        "value": 1
                    },
                    {
                        "number": 64,
                        "time": 49.24322285416675,
                        "value": 0
                    },
                    {
                        "number": 64,
                        "time": 49.512541260416754,
                        "value": 1
                    },
                    {
                        "number": 64,
                        "time": 50.06254171875009,
                        "value": 0
                    },
                    {
                        "number": 64,
                        "time": 51.55345205208343,
                        "value": 1
                    },
                    {
                        "number": 64,
                        "time": 51.969361489583434,
                        "value": 0
                    },
                    {
                        "number": 64,
                        "time": 52.127316166666766,
                        "value": 1
                    },
                    {
                        "number": 64,
                        "time": 52.5000437500001,
                        "value": 0
                    },
                    {
                        "number": 64,
                        "time": 52.5000437500001,
                        "value": 0
                    },
                    {
                        "number": 64,
                        "time": 52.5886801875001,
                        "value": 1
                    },
                    {
                        "number": 64,
                        "time": 53.05118057291677,
                        "value": 0
                    },
                    {
                        "number": 64,
                        "time": 53.3182262500001,
                        "value": 1
                    },
                    {
                        "number": 64,
                        "time": 53.597771937500106,
                        "value": 0
                    },
                    {
                        "number": 64,
                        "time": 54.172772416666774,
                        "value": 1
                    },
                    {
                        "number": 64,
                        "time": 54.688681937500114,
                        "value": 0
                    },
                    {
                        "number": 64,
                        "time": 54.96709126041678,
                        "value": 1
                    },
                    {
                        "number": 64,
                        "time": 55.23754603125012,
                        "value": 0
                    },
                    {
                        "number": 64,
                        "time": 55.809137416666786,
                        "value": 1
                    },
                    {
                        "number": 64,
                        "time": 56.33413785416679,
                        "value": 0
                    },
                    {
                        "number": 64,
                        "time": 56.37504697916679,
                        "value": 1
                    },
                    {
                        "number": 64,
                        "time": 56.88754740625013,
                        "value": 0
                    },
                    {
                        "number": 64,
                        "time": 57.164820364583456,
                        "value": 1
                    },
                    {
                        "number": 64,
                        "time": 57.40913875000011,
                        "value": 0
                    },
                    {
                        "number": 64,
                        "time": 57.47050243750011,
                        "value": 1
                    },
                    {
                        "number": 64,
                        "time": 57.696638989583434,
                        "value": 0
                    },
                    {
                        "number": 64,
                        "time": 57.73072992708343,
                        "value": 1
                    },
                    {
                        "number": 64,
                        "time": 57.96709376041675,
                        "value": 0
                    },
                    {
                        "number": 64,
                        "time": 59.045503750000094,
                        "value": 0
                    },
                    {
                        "number": 64,
                        "time": 59.134140187500094,
                        "value": 1
                    },
                    {
                        "number": 64,
                        "time": 59.5977769375001,
                        "value": 0
                    },
                    {
                        "number": 64,
                        "time": 59.84777714583343,
                        "value": 1
                    },
                    {
                        "number": 64,
                        "time": 60.140959208333435,
                        "value": 0
                    },
                    {
                        "number": 64,
                        "time": 60.71823241666677,
                        "value": 1
                    },
                    {
                        "number": 64,
                        "time": 61.24436921875011,
                        "value": 0
                    },
                    {
                        "number": 64,
                        "time": 61.51027853125011,
                        "value": 1
                    },
                    {
                        "number": 64,
                        "time": 61.77732420833344,
                        "value": 0
                    },
                    {
                        "number": 64,
                        "time": 62.35459741666678,
                        "value": 1
                    },
                    {
                        "number": 64,
                        "time": 62.796643239583446,
                        "value": 0
                    },
                    {
                        "number": 64,
                        "time": 62.93982517708345,
                        "value": 1
                    },
                    {
                        "number": 64,
                        "time": 63.354598250000116,
                        "value": 0
                    },
                    {
                        "number": 64,
                        "time": 63.48528017708345,
                        "value": 1
                    },
                    {
                        "number": 64,
                        "time": 63.89778052083346,
                        "value": 0
                    },
                    {
                        "number": 64,
                        "time": 64.0114169791668,
                        "value": 1
                    },
                    {
                        "number": 64,
                        "time": 64.44664461458346,
                        "value": 0
                    },
                    {
                        "number": 64,
                        "time": 64.5841447291668,
                        "value": 1
                    },
                    {
                        "number": 64,
                        "time": 64.98187233333346,
                        "value": 0
                    },
                    {
                        "number": 64,
                        "time": 65.12619063541679,
                        "value": 1
                    },
                    {
                        "number": 64,
                        "time": 65.53414552083346,
                        "value": 0
                    },
                    {
                        "number": 64,
                        "time": 65.68300928125012,
                        "value": 1
                    },
                    {
                        "number": 64,
                        "time": 66.15005512500012,
                        "value": 0
                    },
                    {
                        "number": 64,
                        "time": 66.22505518750012,
                        "value": 1
                    },
                    {
                        "number": 64,
                        "time": 66.42050989583345,
                        "value": 0
                    },
                    {
                        "number": 64,
                        "time": 66.75801017708343,
                        "value": 1
                    },
                    {
                        "number": 64,
                        "time": 66.95801034375009,
                        "value": 0
                    },
                    {
                        "number": 64,
                        "time": 67.31596518750008,
                        "value": 1
                    },
                    {
                        "number": 64,
                        "time": 67.78414739583341,
                        "value": 0
                    },
                    {
                        "number": 64,
                        "time": 68.90346651041675,
                        "value": 0
                    },
                    {
                        "number": 64,
                        "time": 68.95573928125008,
                        "value": 1
                    },
                    {
                        "number": 64,
                        "time": 69.41937603125007,
                        "value": 0
                    },
                    {
                        "number": 64,
                        "time": 69.49778518750007,
                        "value": 1
                    },
                    {
                        "number": 64,
                        "time": 69.69210353125007,
                        "value": 0
                    },
                    {
                        "number": 64,
                        "time": 70.0307401770834,
                        "value": 1
                    },
                    {
                        "number": 64,
                        "time": 70.23983126041674,
                        "value": 0
                    },
                    {
                        "number": 64,
                        "time": 70.55233152083339,
                        "value": 1
                    },
                    {
                        "number": 64,
                        "time": 70.80460445833339,
                        "value": 0
                    },
                    {
                        "number": 64,
                        "time": 71.87165080208338,
                        "value": 1
                    },
                    {
                        "number": 64,
                        "time": 72.07392369791671,
                        "value": 0
                    },
                    {
                        "number": 64,
                        "time": 72.18187833333339,
                        "value": 1
                    },
                    {
                        "number": 64,
                        "time": 72.37392394791672,
                        "value": 0
                    },
                    {
                        "number": 64,
                        "time": 72.45801492708338,
                        "value": 1
                    },
                    {
                        "number": 64,
                        "time": 72.62619688541672,
                        "value": 0
                    },
                    {
                        "number": 64,
                        "time": 72.72733333333339,
                        "value": 1
                    },
                    {
                        "number": 64,
                        "time": 72.89324256250006,
                        "value": 0
                    },
                    {
                        "number": 64,
                        "time": 72.99324264583339,
                        "value": 1
                    },
                    {
                        "number": 64,
                        "time": 73.16483369791673,
                        "value": 0
                    },
                    {
                        "number": 64,
                        "time": 73.2625610520834,
                        "value": 1
                    },
                    {
                        "number": 64,
                        "time": 73.51028853125005,
                        "value": 0
                    },
                    {
                        "number": 64,
                        "time": 73.61028861458338,
                        "value": 1
                    },
                    {
                        "number": 64,
                        "time": 73.79551604166672,
                        "value": 0
                    },
                    {
                        "number": 64,
                        "time": 73.83756153125005,
                        "value": 1
                    },
                    {
                        "number": 64,
                        "time": 74.06256171875003,
                        "value": 0
                    },
                    {
                        "number": 64,
                        "time": 74.09778902083336,
                        "value": 1
                    },
                    {
                        "number": 64,
                        "time": 76.10801796874985,
                        "value": 0
                    },
                    {
                        "number": 64,
                        "time": 76.37620001041653,
                        "value": 1
                    },
                    {
                        "number": 64,
                        "time": 76.92165501041653,
                        "value": 0
                    },
                    {
                        "number": 64,
                        "time": 78.02392865624986,
                        "value": 1
                    },
                    {
                        "number": 64,
                        "time": 78.55120182291654,
                        "value": 0
                    },
                    {
                        "number": 64,
                        "time": 79.40802071874988,
                        "value": 1
                    },
                    {
                        "number": 64,
                        "time": 79.8523392708332,
                        "value": 0
                    },
                    {
                        "number": 64,
                        "time": 79.99324847916652,
                        "value": 1
                    },
                    {
                        "number": 64,
                        "time": 80.40006699999985,
                        "value": 0
                    },
                    {
                        "number": 64,
                        "time": 80.52279437499985,
                        "value": 1
                    },
                    {
                        "number": 64,
                        "time": 80.94324927083316,
                        "value": 0
                    },
                    {
                        "number": 64,
                        "time": 81.04211298958316,
                        "value": 1
                    },
                    {
                        "number": 64,
                        "time": 81.49097699999983,
                        "value": 0
                    },
                    {
                        "number": 64,
                        "time": 81.60347709374983,
                        "value": 1
                    },
                    {
                        "number": 64,
                        "time": 82.0352956354165,
                        "value": 0
                    },
                    {
                        "number": 64,
                        "time": 82.15915937499983,
                        "value": 1
                    },
                    {
                        "number": 64,
                        "time": 82.58075063541649,
                        "value": 0
                    },
                    {
                        "number": 64,
                        "time": 82.72847803124982,
                        "value": 1
                    },
                    {
                        "number": 64,
                        "time": 83.19779660416646,
                        "value": 0
                    },
                    {
                        "number": 64,
                        "time": 83.48302411458313,
                        "value": 1
                    },
                    {
                        "number": 64,
                        "time": 84.00802455208311,
                        "value": 0
                    },
                    {
                        "number": 64,
                        "time": 84.10007008333311,
                        "value": 1
                    },
                    {
                        "number": 64,
                        "time": 84.27847932291644,
                        "value": 0
                    },
                    {
                        "number": 64,
                        "time": 84.35688847916644,
                        "value": 1
                    },
                    {
                        "number": 64,
                        "time": 85.37961660416639,
                        "value": 0
                    },
                    {
                        "number": 64,
                        "time": 85.44779847916638,
                        "value": 1
                    },
                    {
                        "number": 64,
                        "time": 85.64893501041638,
                        "value": 0
                    },
                    {
                        "number": 64,
                        "time": 85.69211686458304,
                        "value": 1
                    },
                    {
                        "number": 64,
                        "time": 85.9125715937497,
                        "value": 0
                    },
                    {
                        "number": 64,
                        "time": 85.98529892708304,
                        "value": 1
                    },
                    {
                        "number": 64,
                        "time": 86.39893563541636,
                        "value": 0
                    },
                    {
                        "number": 64,
                        "time": 86.53075392708303,
                        "value": 1
                    },
                    {
                        "number": 64,
                        "time": 86.94666336458302,
                        "value": 0
                    },
                    {
                        "number": 64,
                        "time": 87.06825437499968,
                        "value": 1
                    },
                    {
                        "number": 64,
                        "time": 87.48984563541634,
                        "value": 0
                    },
                    {
                        "number": 64,
                        "time": 87.58757298958301,
                        "value": 1
                    },
                    {
                        "number": 64,
                        "time": 88.034164270833,
                        "value": 0
                    },
                    {
                        "number": 64,
                        "time": 88.16257346874967,
                        "value": 1
                    },
                    {
                        "number": 64,
                        "time": 88.58416472916633,
                        "value": 0
                    },
                    {
                        "number": 64,
                        "time": 88.70461937499965,
                        "value": 1
                    },
                    {
                        "number": 64,
                        "time": 89.12166517708297,
                        "value": 0
                    },
                    {
                        "number": 64,
                        "time": 89.27393803124963,
                        "value": 1
                    },
                    {
                        "number": 64,
                        "time": 89.73302932291627,
                        "value": 0
                    },
                    {
                        "number": 64,
                        "time": 90.05234777083292,
                        "value": 1
                    },
                    {
                        "number": 64,
                        "time": 90.48075721874956,
                        "value": 0
                    },
                    {
                        "number": 64,
                        "time": 90.58530276041623,
                        "value": 1
                    },
                    {
                        "number": 64,
                        "time": 90.8262120520829,
                        "value": 0
                    },
                    {
                        "number": 64,
                        "time": 91.15121232291622,
                        "value": 1
                    },
                    {
                        "number": 64,
                        "time": 91.38530342708289,
                        "value": 0
                    },
                    {
                        "number": 64,
                        "time": 91.47280349999956,
                        "value": 1
                    },
                    {
                        "number": 64,
                        "time": 91.65234910416622,
                        "value": 0
                    },
                    {
                        "number": 64,
                        "time": 91.70462187499955,
                        "value": 1
                    },
                    {
                        "number": 64,
                        "time": 91.92962206249955,
                        "value": 0
                    },
                    {
                        "number": 64,
                        "time": 92.00916758333288,
                        "value": 1
                    },
                    {
                        "number": 64,
                        "time": 92.3784860729162,
                        "value": 0
                    },
                    {
                        "number": 64,
                        "time": 92.54098620833287,
                        "value": 1
                    },
                    {
                        "number": 64,
                        "time": 94.09439659374948,
                        "value": 0
                    },
                    {
                        "number": 64,
                        "time": 94.13416935416615,
                        "value": 1
                    },
                    {
                        "number": 64,
                        "time": 94.9239427395828,
                        "value": 0
                    },
                    {
                        "number": 64,
                        "time": 95.22167026041613,
                        "value": 1
                    },
                    {
                        "number": 64,
                        "time": 95.73076159374946,
                        "value": 0
                    },
                    {
                        "number": 64,
                        "time": 95.86371624999947,
                        "value": 1
                    },
                    {
                        "number": 64,
                        "time": 96.5739441145828,
                        "value": 0
                    },
                    {
                        "number": 64,
                        "time": 96.85803526041613,
                        "value": 1
                    },
                    {
                        "number": 64,
                        "time": 97.36939932291614,
                        "value": 0
                    },
                    {
                        "number": 64,
                        "time": 97.4807630520828,
                        "value": 1
                    },
                    {
                        "number": 64,
                        "time": 98.46940023958278,
                        "value": 0
                    },
                    {
                        "number": 64,
                        "time": 98.53871847916612,
                        "value": 1
                    },
                    {
                        "number": 64,
                        "time": 99.00008249999945,
                        "value": 0
                    },
                    {
                        "number": 64,
                        "time": 99.11485532291611,
                        "value": 1
                    },
                    {
                        "number": 64,
                        "time": 100.6398565937494,
                        "value": 0
                    },
                    {
                        "number": 64,
                        "time": 100.7762203437494,
                        "value": 1
                    },
                    {
                        "number": 64,
                        "time": 101.63076651041607,
                        "value": 0
                    },
                    {
                        "number": 64,
                        "time": 101.76713026041607,
                        "value": 1
                    },
                    {
                        "number": 64,
                        "time": 102.27849432291607,
                        "value": 0
                    },
                    {
                        "number": 64,
                        "time": 102.41258534374941,
                        "value": 1
                    },
                    {
                        "number": 64,
                        "time": 103.2989497187494,
                        "value": 0
                    },
                    {
                        "number": 64,
                        "time": 103.40349526041607,
                        "value": 1
                    },
                    {
                        "number": 64,
                        "time": 103.9091774999994,
                        "value": 0
                    },
                    {
                        "number": 64,
                        "time": 103.94895026041607,
                        "value": 1
                    },
                    {
                        "number": 64,
                        "time": 104.46031432291608,
                        "value": 0
                    },
                    {
                        "number": 64,
                        "time": 104.51713255208274,
                        "value": 1
                    },
                    {
                        "number": 64,
                        "time": 105.00917841666607,
                        "value": 0
                    },
                    {
                        "number": 64,
                        "time": 105.04667844791608,
                        "value": 1
                    },
                    {
                        "number": 64,
                        "time": 105.81826999999942,
                        "value": 0
                    },
                    {
                        "number": 64,
                        "time": 105.81826999999942,
                        "value": 0
                    },
                    {
                        "number": 64,
                        "time": 105.95463374999942,
                        "value": 1
                    },
                    {
                        "number": 64,
                        "time": 106.38872502083275,
                        "value": 0
                    },
                    {
                        "number": 64,
                        "time": 106.64099795833276,
                        "value": 1
                    },
                    {
                        "number": 64,
                        "time": 106.92054364583275,
                        "value": 0
                    },
                    {
                        "number": 64,
                        "time": 107.4909986666661,
                        "value": 1
                    },
                    {
                        "number": 64,
                        "time": 108.0228172916661,
                        "value": 0
                    },
                    {
                        "number": 64,
                        "time": 108.2853175104161,
                        "value": 1
                    },
                    {
                        "number": 64,
                        "time": 108.56372683333277,
                        "value": 0
                    },
                    {
                        "number": 64,
                        "time": 109.12736366666611,
                        "value": 1
                    },
                    {
                        "number": 64,
                        "time": 109.64781864583277,
                        "value": 0
                    },
                    {
                        "number": 64,
                        "time": 109.70463687499944,
                        "value": 1
                    },
                    {
                        "number": 64,
                        "time": 110.19895546874943,
                        "value": 0
                    },
                    {
                        "number": 64,
                        "time": 110.48304661458276,
                        "value": 1
                    },
                    {
                        "number": 64,
                        "time": 110.72736499999942,
                        "value": 0
                    },
                    {
                        "number": 64,
                        "time": 110.84100145833276,
                        "value": 1
                    },
                    {
                        "number": 64,
                        "time": 111.19213811458275,
                        "value": 0
                    },
                    {
                        "number": 64,
                        "time": 112.36372999999942,
                        "value": 0
                    },
                    {
                        "number": 64,
                        "time": 112.45236643749942,
                        "value": 1
                    },
                    {
                        "number": 64,
                        "time": 112.9148668229161,
                        "value": 0
                    },
                    {
                        "number": 64,
                        "time": 113.16600339583276,
                        "value": 1
                    },
                    {
                        "number": 64,
                        "time": 113.45463999999942,
                        "value": 0
                    },
                    {
                        "number": 64,
                        "time": 114.03645866666609,
                        "value": 1
                    },
                    {
                        "number": 64,
                        "time": 114.56032273958276,
                        "value": 0
                    },
                    {
                        "number": 64,
                        "time": 114.82850478124942,
                        "value": 1
                    },
                    {
                        "number": 64,
                        "time": 115.10350501041609,
                        "value": 0
                    },
                    {
                        "number": 64,
                        "time": 115.67282366666609,
                        "value": 1
                    },
                    {
                        "number": 64,
                        "time": 116.12168767708275,
                        "value": 0
                    },
                    {
                        "number": 64,
                        "time": 116.21827866666608,
                        "value": 1
                    },
                    {
                        "number": 64,
                        "time": 116.67055177083274,
                        "value": 0
                    },
                    {
                        "number": 64,
                        "time": 116.76373366666608,
                        "value": 1
                    },
                    {
                        "number": 64,
                        "time": 117.21600677083275,
                        "value": 0
                    },
                    {
                        "number": 64,
                        "time": 117.30918866666609,
                        "value": 1
                    },
                    {
                        "number": 64,
                        "time": 117.76146177083275,
                        "value": 0
                    },
                    {
                        "number": 64,
                        "time": 117.85464366666609,
                        "value": 1
                    },
                    {
                        "number": 64,
                        "time": 118.30691677083276,
                        "value": 0
                    },
                    {
                        "number": 64,
                        "time": 118.4000986666661,
                        "value": 1
                    },
                    {
                        "number": 64,
                        "time": 118.84896267708275,
                        "value": 0
                    },
                    {
                        "number": 64,
                        "time": 119.0012355312494,
                        "value": 1
                    },
                    {
                        "number": 64,
                        "time": 119.46600864583273,
                        "value": 0
                    },
                    {
                        "number": 64,
                        "time": 119.5432814374994,
                        "value": 1
                    },
                    {
                        "number": 64,
                        "time": 119.7375997812494,
                        "value": 0
                    },
                    {
                        "number": 64,
                        "time": 120.07623642708273,
                        "value": 1
                    },
                    {
                        "number": 64,
                        "time": 120.28760023958273,
                        "value": 0
                    },
                    {
                        "number": 64,
                        "time": 120.59782777083272,
                        "value": 1
                    },
                    {
                        "number": 64,
                        "time": 121.11260092708272,
                        "value": 0
                    },
                    {
                        "number": 64,
                        "time": 122.22169276041606,
                        "value": 0
                    },
                    {
                        "number": 64,
                        "time": 122.27396553124939,
                        "value": 1
                    },
                    {
                        "number": 64,
                        "time": 122.73987501041606,
                        "value": 0
                    },
                    {
                        "number": 64,
                        "time": 122.81601143749938,
                        "value": 1
                    },
                    {
                        "number": 64,
                        "time": 123.01146614583271,
                        "value": 0
                    },
                    {
                        "number": 64,
                        "time": 123.3489664270827,
                        "value": 1
                    },
                    {
                        "number": 64,
                        "time": 123.56146660416603,
                        "value": 0
                    },
                    {
                        "number": 64,
                        "time": 123.87055777083269,
                        "value": 1
                    },
                    {
                        "number": 64,
                        "time": 124.10805796874935,
                        "value": 0
                    },
                    {
                        "number": 64,
                        "time": 125.11374062499935,
                        "value": 1
                    },
                    {
                        "number": 64,
                        "time": 125.42624088541601,
                        "value": 0
                    },
                    {
                        "number": 64,
                        "time": 125.50010458333269,
                        "value": 1
                    },
                    {
                        "number": 64,
                        "time": 125.69215019791602,
                        "value": 0
                    },
                    {
                        "number": 64,
                        "time": 125.77624117708268,
                        "value": 1
                    },
                    {
                        "number": 64,
                        "time": 125.94442313541602,
                        "value": 0
                    },
                    {
                        "number": 64,
                        "time": 126.04555958333269,
                        "value": 1
                    },
                    {
                        "number": 64,
                        "time": 126.21146881249936,
                        "value": 0
                    },
                    {
                        "number": 64,
                        "time": 126.31146889583269,
                        "value": 1
                    },
                    {
                        "number": 64,
                        "time": 126.51033269791603,
                        "value": 0
                    },
                    {
                        "number": 64,
                        "time": 126.58078730208268,
                        "value": 1
                    },
                    {
                        "number": 64,
                        "time": 126.87396936458268,
                        "value": 0
                    },
                    {
                        "number": 64,
                        "time": 126.92851486458268,
                        "value": 1
                    },
                    {
                        "number": 64,
                        "time": 127.11374229166601,
                        "value": 0
                    },
                    {
                        "number": 64,
                        "time": 127.15578778124934,
                        "value": 1
                    },
                    {
                        "number": 64,
                        "time": 127.38192433333266,
                        "value": 0
                    },
                    {
                        "number": 64,
                        "time": 127.41942436458267,
                        "value": 1
                    },
                    {
                        "number": 64,
                        "time": 129.4341987708325,
                        "value": 0
                    },
                    {
                        "number": 64,
                        "time": 129.6944262604158,
                        "value": 1
                    },
                    {
                        "number": 64,
                        "time": 130.23988126041576,
                        "value": 0
                    },
                    {
                        "number": 64,
                        "time": 131.3830640312491,
                        "value": 1
                    },
                    {
                        "number": 64,
                        "time": 131.87170080208242,
                        "value": 0
                    },
                    {
                        "number": 64,
                        "time": 132.62056506249903,
                        "value": 1
                    },
                    {
                        "number": 64,
                        "time": 136.07852248958238,
                        "value": 0
                    },
                    {
                        "number": 64,
                        "time": 164.04559124999633,
                        "value": 1
                    },
                    {
                        "number": 64,
                        "time": 165.41263784374635,
                        "value": 0
                    },
                    {
                        "number": 64,
                        "time": 165.87854732291302,
                        "value": 1
                    },
                    {
                        "number": 64,
                        "time": 168.8058224895797,
                        "value": 0
                    },
                    {
                        "number": 64,
                        "time": 190.52970422916093,
                        "value": 1
                    },
                    {
                        "number": 64,
                        "time": 191.05811376041086,
                        "value": 0
                    },
                    {
                        "number": 64,
                        "time": 192.71493332291072,
                        "value": 1
                    },
                    {
                        "number": 64,
                        "time": 192.85129707291074,
                        "value": 0
                    },
                    {
                        "number": 64,
                        "time": 192.9933426458274,
                        "value": 1
                    },
                    {
                        "number": 64,
                        "time": 193.12402457291074,
                        "value": 0
                    },
                    {
                        "number": 64,
                        "time": 194.34788922916064,
                        "value": 1
                    },
                    {
                        "number": 64,
                        "time": 194.47402569791063,
                        "value": 0
                    },
                    {
                        "number": 64,
                        "time": 194.65925312499397,
                        "value": 1
                    },
                    {
                        "number": 64,
                        "time": 194.7762986770773,
                        "value": 0
                    },
                    {
                        "number": 64,
                        "time": 195.72743583332723,
                        "value": 1
                    },
                    {
                        "number": 64,
                        "time": 196.2399362604105,
                        "value": 0
                    },
                    {
                        "number": 64,
                        "time": 196.29902721874384,
                        "value": 1
                    },
                    {
                        "number": 64,
                        "time": 196.5126637604105,
                        "value": 0
                    },
                    {
                        "number": 64,
                        "time": 196.55811834374384,
                        "value": 1
                    },
                    {
                        "number": 64,
                        "time": 197.05925512499383,
                        "value": 0
                    },
                    {
                        "number": 64,
                        "time": 197.10698243749383,
                        "value": 1
                    },
                    {
                        "number": 64,
                        "time": 197.6047101249938,
                        "value": 0
                    },
                    {
                        "number": 64,
                        "time": 197.6592556249938,
                        "value": 1
                    },
                    {
                        "number": 64,
                        "time": 198.13993784374378,
                        "value": 0
                    },
                    {
                        "number": 64,
                        "time": 198.18425606249377,
                        "value": 1
                    },
                    {
                        "number": 64,
                        "time": 199.23198420832705,
                        "value": 0
                    },
                    {
                        "number": 64,
                        "time": 199.27516606249372,
                        "value": 1
                    },
                    {
                        "number": 64,
                        "time": 199.7763028437437,
                        "value": 0
                    },
                    {
                        "number": 64,
                        "time": 200.38653062499367,
                        "value": 1
                    },
                    {
                        "number": 64,
                        "time": 200.8728946666604,
                        "value": 0
                    },
                    {
                        "number": 64,
                        "time": 200.9922129479104,
                        "value": 1
                    },
                    {
                        "number": 64,
                        "time": 201.41721330207707,
                        "value": 0
                    },
                    {
                        "number": 64,
                        "time": 202.0228956249937,
                        "value": 1
                    },
                    {
                        "number": 64,
                        "time": 202.50812330207708,
                        "value": 0
                    },
                    {
                        "number": 64,
                        "time": 202.6285779479104,
                        "value": 1
                    },
                    {
                        "number": 64,
                        "time": 203.04562374999375,
                        "value": 0
                    },
                    {
                        "number": 64,
                        "time": 203.11039653124377,
                        "value": 1
                    },
                    {
                        "number": 64,
                        "time": 203.59789693749377,
                        "value": 0
                    },
                    {
                        "number": 64,
                        "time": 203.65585153124377,
                        "value": 1
                    },
                    {
                        "number": 64,
                        "time": 204.1513064895771,
                        "value": 0
                    },
                    {
                        "number": 64,
                        "time": 204.26494294791044,
                        "value": 1
                    },
                    {
                        "number": 64,
                        "time": 204.68653420832712,
                        "value": 0
                    },
                    {
                        "number": 64,
                        "time": 204.85130707291046,
                        "value": 1
                    },
                    {
                        "number": 64,
                        "time": 205.7808533020772,
                        "value": 0
                    },
                    {
                        "number": 64,
                        "time": 205.92289887499385,
                        "value": 1
                    },
                    {
                        "number": 64,
                        "time": 206.3183537499939,
                        "value": 0
                    },
                    {
                        "number": 64,
                        "time": 206.93199062499386,
                        "value": 1
                    },
                    {
                        "number": 64,
                        "time": 207.41380920832722,
                        "value": 0
                    },
                    {
                        "number": 64,
                        "time": 207.53767294791055,
                        "value": 1
                    },
                    {
                        "number": 64,
                        "time": 207.9547187499939,
                        "value": 0
                    },
                    {
                        "number": 64,
                        "time": 208.51949194791055,
                        "value": 1
                    },
                    {
                        "number": 64,
                        "time": 209.0581287604105,
                        "value": 0
                    },
                    {
                        "number": 64,
                        "time": 209.11721971874385,
                        "value": 1
                    },
                    {
                        "number": 64,
                        "time": 209.59108374999383,
                        "value": 0
                    },
                    {
                        "number": 64,
                        "time": 209.59562920832715,
                        "value": 0
                    },
                    {
                        "number": 64,
                        "time": 209.69449292707716,
                        "value": 1
                    },
                    {
                        "number": 64,
                        "time": 209.85699306249384,
                        "value": 0
                    },
                    {
                        "number": 64,
                        "time": 210.95472124999372,
                        "value": 1
                    },
                    {
                        "number": 64,
                        "time": 212.32517693749372,
                        "value": 0
                    },
                    {
                        "number": 64,
                        "time": 212.9035865104104,
                        "value": 1
                    },
                    {
                        "number": 64,
                        "time": 213.95699647916038,
                        "value": 0
                    },
                    {
                        "number": 64,
                        "time": 215.09108833332706,
                        "value": 1
                    },
                    {
                        "number": 64,
                        "time": 216.1456346666604,
                        "value": 0
                    },
                    {
                        "number": 64,
                        "time": 217.8081360520771,
                        "value": 1
                    },
                    {
                        "number": 64,
                        "time": 218.8763187604104,
                        "value": 0
                    },
                    {
                        "number": 64,
                        "time": 219.4547283333271,
                        "value": 1
                    },
                    {
                        "number": 64,
                        "time": 220.50245647916043,
                        "value": 0
                    },
                    {
                        "number": 64,
                        "time": 221.1558661145771,
                        "value": 1
                    },
                    {
                        "number": 64,
                        "time": 222.68200374999378,
                        "value": 0
                    },
                    {
                        "number": 64,
                        "time": 222.7240492395771,
                        "value": 1
                    },
                    {
                        "number": 64,
                        "time": 223.2308678437438,
                        "value": 0
                    },
                    {
                        "number": 64,
                        "time": 223.26950423957712,
                        "value": 1
                    },
                    {
                        "number": 64,
                        "time": 223.77973193749378,
                        "value": 0
                    },
                    {
                        "number": 64,
                        "time": 223.80018649999377,
                        "value": 1
                    },
                    {
                        "number": 64,
                        "time": 224.32859603124376,
                        "value": 0
                    },
                    {
                        "number": 64,
                        "time": 224.37973243749377,
                        "value": 1
                    },
                    {
                        "number": 64,
                        "time": 225.41836966666045,
                        "value": 0
                    },
                    {
                        "number": 64,
                        "time": 226.00132469791043,
                        "value": 1
                    },
                    {
                        "number": 64,
                        "time": 227.04791647916042,
                        "value": 0
                    },
                    {
                        "number": 64,
                        "time": 227.70132611457709,
                        "value": 1
                    },
                    {
                        "number": 64,
                        "time": 229.22746374999377,
                        "value": 0
                    },
                    {
                        "number": 64,
                        "time": 229.2695092395771,
                        "value": 1
                    },
                    {
                        "number": 64,
                        "time": 229.77973693749377,
                        "value": 0
                    },
                    {
                        "number": 64,
                        "time": 229.8149642395771,
                        "value": 1
                    },
                    {
                        "number": 64,
                        "time": 230.32519193749377,
                        "value": 0
                    },
                    {
                        "number": 64,
                        "time": 230.3672374270771,
                        "value": 1
                    },
                    {
                        "number": 64,
                        "time": 230.87405603124375,
                        "value": 0
                    },
                    {
                        "number": 64,
                        "time": 230.92519243749376,
                        "value": 1
                    },
                    {
                        "number": 64,
                        "time": 231.96155693749375,
                        "value": 0
                    },
                    {
                        "number": 64,
                        "time": 232.53996651041044,
                        "value": 1
                    },
                    {
                        "number": 64,
                        "time": 233.5933764791604,
                        "value": 0
                    },
                    {
                        "number": 64,
                        "time": 234.14678603124375,
                        "value": 0
                    },
                    {
                        "number": 64,
                        "time": 234.19792243749376,
                        "value": 1
                    },
                    {
                        "number": 64,
                        "time": 235.23428693749375,
                        "value": 0
                    },
                    {
                        "number": 64,
                        "time": 235.78315103124376,
                        "value": 0
                    },
                    {
                        "number": 64,
                        "time": 235.83428743749377,
                        "value": 1
                    },
                    {
                        "number": 64,
                        "time": 236.87065193749376,
                        "value": 0
                    },
                    {
                        "number": 64,
                        "time": 236.9740611145771,
                        "value": 1
                    },
                    {
                        "number": 64,
                        "time": 237.41951603124375,
                        "value": 0
                    },
                    {
                        "number": 64,
                        "time": 237.5138342916604,
                        "value": 1
                    },
                    {
                        "number": 64,
                        "time": 238.50701693749372,
                        "value": 0
                    },
                    {
                        "number": 64,
                        "time": 239.05588103124373,
                        "value": 0
                    },
                    {
                        "number": 64,
                        "time": 239.15588111457706,
                        "value": 1
                    },
                    {
                        "number": 64,
                        "time": 240.1433819374937,
                        "value": 0
                    },
                    {
                        "number": 64,
                        "time": 240.24110929166036,
                        "value": 1
                    },
                    {
                        "number": 64,
                        "time": 240.69224603124368,
                        "value": 0
                    },
                    {
                        "number": 64,
                        "time": 240.79906430207703,
                        "value": 1
                    },
                    {
                        "number": 64,
                        "time": 241.78201966666037,
                        "value": 0
                    },
                    {
                        "number": 64,
                        "time": 242.3286110312437,
                        "value": 0
                    },
                    {
                        "number": 64,
                        "time": 242.3797474374937,
                        "value": 1
                    },
                    {
                        "number": 64,
                        "time": 243.4161119374937,
                        "value": 0
                    },
                    {
                        "number": 64,
                        "time": 243.50020291666036,
                        "value": 1
                    },
                    {
                        "number": 64,
                        "time": 243.96497603124368,
                        "value": 0
                    },
                    {
                        "number": 64,
                        "time": 244.064976114577,
                        "value": 1
                    },
                    {
                        "number": 64,
                        "time": 245.05247693749368,
                        "value": 0
                    },
                    {
                        "number": 64,
                        "time": 245.13656791666034,
                        "value": 1
                    },
                    {
                        "number": 64,
                        "time": 245.60134103124366,
                        "value": 0
                    },
                    {
                        "number": 64,
                        "time": 245.65247743749367,
                        "value": 1
                    },
                    {
                        "number": 64,
                        "time": 246.68884193749366,
                        "value": 0
                    },
                    {
                        "number": 64,
                        "time": 246.77975110416034,
                        "value": 1
                    },
                    {
                        "number": 64,
                        "time": 247.24338785416035,
                        "value": 0
                    },
                    {
                        "number": 64,
                        "time": 247.337706114577,
                        "value": 1
                    },
                    {
                        "number": 64,
                        "time": 247.50702443749367,
                        "value": 0
                    },
                    {
                        "number": 64,
                        "time": 249.4286169479102,
                        "value": 1
                    },
                    {
                        "number": 64,
                        "time": 249.82975364582686,
                        "value": 0
                    },
                    {
                        "number": 64,
                        "time": 253.77293874999316,
                        "value": 0
                    },
                    {
                        "number": 64,
                        "time": 253.77293874999316,
                        "value": 0
                    },
                    {
                        "number": 64,
                        "time": 253.86157518749317,
                        "value": 1
                    },
                    {
                        "number": 64,
                        "time": 254.33089376040982,
                        "value": 0
                    },
                    {
                        "number": 64,
                        "time": 254.59112124999317,
                        "value": 1
                    },
                    {
                        "number": 64,
                        "time": 254.86953057290984,
                        "value": 0
                    },
                    {
                        "number": 64,
                        "time": 255.44566741665983,
                        "value": 1
                    },
                    {
                        "number": 64,
                        "time": 255.97407694790985,
                        "value": 0
                    },
                    {
                        "number": 64,
                        "time": 256.23998626040986,
                        "value": 1
                    },
                    {
                        "number": 64,
                        "time": 256.51612285415985,
                        "value": 0
                    },
                    {
                        "number": 64,
                        "time": 257.0820324166598,
                        "value": 1
                    },
                    {
                        "number": 64,
                        "time": 257.60816921874306,
                        "value": 0
                    },
                    {
                        "number": 64,
                        "time": 257.65589653124306,
                        "value": 1
                    },
                    {
                        "number": 64,
                        "time": 258.14794239582636,
                        "value": 0
                    },
                    {
                        "number": 64,
                        "time": 258.4377153645764,
                        "value": 1
                    },
                    {
                        "number": 64,
                        "time": 258.68203374999314,
                        "value": 0
                    },
                    {
                        "number": 64,
                        "time": 258.75362471874314,
                        "value": 1
                    },
                    {
                        "number": 64,
                        "time": 259.1672614270766,
                        "value": 0
                    },
                    {
                        "number": 64,
                        "time": 260.3183987499932,
                        "value": 0
                    },
                    {
                        "number": 64,
                        "time": 260.4070351874932,
                        "value": 1
                    },
                    {
                        "number": 64,
                        "time": 260.87067193749317,
                        "value": 0
                    },
                    {
                        "number": 64,
                        "time": 261.1206721458265,
                        "value": 1
                    },
                    {
                        "number": 64,
                        "time": 261.4138542083265,
                        "value": 0
                    },
                    {
                        "number": 64,
                        "time": 261.99112741665977,
                        "value": 1
                    },
                    {
                        "number": 64,
                        "time": 262.51726421874304,
                        "value": 0
                    },
                    {
                        "number": 64,
                        "time": 262.78317353124305,
                        "value": 1
                    },
                    {
                        "number": 64,
                        "time": 263.04794647915975,
                        "value": 0
                    },
                    {
                        "number": 64,
                        "time": 263.6274924166597,
                        "value": 1
                    },
                    {
                        "number": 64,
                        "time": 264.07976552082636,
                        "value": 0
                    },
                    {
                        "number": 64,
                        "time": 264.17294741665967,
                        "value": 1
                    },
                    {
                        "number": 64,
                        "time": 264.6263568854096,
                        "value": 0
                    },
                    {
                        "number": 64,
                        "time": 264.7184024166596,
                        "value": 1
                    },
                    {
                        "number": 64,
                        "time": 265.17294824999294,
                        "value": 0
                    },
                    {
                        "number": 64,
                        "time": 265.2638574166596,
                        "value": 1
                    },
                    {
                        "number": 64,
                        "time": 265.71613052082625,
                        "value": 0
                    },
                    {
                        "number": 64,
                        "time": 265.80931241665957,
                        "value": 1
                    },
                    {
                        "number": 64,
                        "time": 266.2615855208262,
                        "value": 0
                    },
                    {
                        "number": 64,
                        "time": 266.3547674166595,
                        "value": 1
                    },
                    {
                        "number": 64,
                        "time": 266.80704052082615,
                        "value": 0
                    },
                    {
                        "number": 64,
                        "time": 266.9559042812428,
                        "value": 1
                    },
                    {
                        "number": 64,
                        "time": 267.4456774166594,
                        "value": 0
                    },
                    {
                        "number": 64,
                        "time": 267.49795018749273,
                        "value": 1
                    },
                    {
                        "number": 64,
                        "time": 267.6979503541594,
                        "value": 0
                    },
                    {
                        "number": 64,
                        "time": 268.030905177076,
                        "value": 1
                    },
                    {
                        "number": 64,
                        "time": 268.24113262499264,
                        "value": 0
                    },
                    {
                        "number": 64,
                        "time": 268.55249652082597,
                        "value": 1
                    },
                    {
                        "number": 64,
                        "time": 268.7899967187426,
                        "value": 0
                    },
                    {
                        "number": 64,
                        "time": 270.1763615104092,
                        "value": 0
                    },
                    {
                        "number": 64,
                        "time": 270.22863428124253,
                        "value": 1
                    },
                    {
                        "number": 64,
                        "time": 270.71840741665915,
                        "value": 0
                    },
                    {
                        "number": 64,
                        "time": 270.7706801874925,
                        "value": 1
                    },
                    {
                        "number": 64,
                        "time": 270.9649985312425,
                        "value": 0
                    },
                    {
                        "number": 64,
                        "time": 271.3036351770758,
                        "value": 1
                    },
                    {
                        "number": 64,
                        "time": 271.5149989895758,
                        "value": 0
                    },
                    {
                        "number": 64,
                        "time": 271.8252265208258,
                        "value": 1
                    },
                    {
                        "number": 64,
                        "time": 272.06272671874245,
                        "value": 0
                    },
                    {
                        "number": 64,
                        "time": 273.0684093749924,
                        "value": 1
                    },
                    {
                        "number": 64,
                        "time": 273.3809096354091,
                        "value": 0
                    },
                    {
                        "number": 64,
                        "time": 273.45477333332576,
                        "value": 1
                    },
                    {
                        "number": 64,
                        "time": 273.6468189479091,
                        "value": 0
                    },
                    {
                        "number": 64,
                        "time": 273.73090992707574,
                        "value": 1
                    },
                    {
                        "number": 64,
                        "time": 273.89909188540906,
                        "value": 0
                    },
                    {
                        "number": 64,
                        "time": 274.0002283333257,
                        "value": 1
                    },
                    {
                        "number": 64,
                        "time": 274.1661375624924,
                        "value": 0
                    },
                    {
                        "number": 64,
                        "time": 274.2661376458258,
                        "value": 1
                    },
                    {
                        "number": 64,
                        "time": 274.4650014479091,
                        "value": 0
                    },
                    {
                        "number": 64,
                        "time": 274.5354560520758,
                        "value": 1
                    },
                    {
                        "number": 64,
                        "time": 274.8286381145759,
                        "value": 0
                    },
                    {
                        "number": 64,
                        "time": 274.8831836145759,
                        "value": 1
                    },
                    {
                        "number": 64,
                        "time": 275.0684110416593,
                        "value": 0
                    },
                    {
                        "number": 64,
                        "time": 275.1104565312427,
                        "value": 1
                    },
                    {
                        "number": 64,
                        "time": 275.3309112604093,
                        "value": 0
                    },
                    {
                        "number": 64,
                        "time": 275.363865833326,
                        "value": 1
                    },
                    {
                        "number": 64,
                        "time": 277.3786402395758,
                        "value": 0
                    },
                    {
                        "number": 64,
                        "time": 277.64909501040916,
                        "value": 1
                    },
                    {
                        "number": 64,
                        "time": 278.1945500104091,
                        "value": 0
                    },
                    {
                        "number": 64,
                        "time": 280.69568845832555,
                        "value": 1
                    },
                    {
                        "number": 64,
                        "time": 280.8184158333255,
                        "value": 0
                    },
                    {
                        "number": 64,
                        "time": 280.94909776040885,
                        "value": 1
                    },
                    {
                        "number": 64,
                        "time": 281.1877343229088,
                        "value": 0
                    },
                    {
                        "number": 64,
                        "time": 281.24114345832544,
                        "value": 1
                    },
                    {
                        "number": 64,
                        "time": 282.01614410415874,
                        "value": 0
                    },
                    {
                        "number": 64,
                        "time": 282.08432597915873,
                        "value": 1
                    },
                    {
                        "number": 64,
                        "time": 282.2775079583254,
                        "value": 0
                    },
                    {
                        "number": 64,
                        "time": 282.34796256249206,
                        "value": 1
                    },
                    {
                        "number": 64,
                        "time": 283.0513722395753,
                        "value": 0
                    },
                    {
                        "number": 64,
                        "time": 283.1161450208253,
                        "value": 1
                    },
                    {
                        "number": 64,
                        "time": 283.3786452395753,
                        "value": 0
                    },
                    {
                        "number": 64,
                        "time": 283.44228165624196,
                        "value": 1
                    },
                    {
                        "number": 64,
                        "time": 283.91046386457526,
                        "value": 0
                    },
                    {
                        "number": 64,
                        "time": 283.97182755207524,
                        "value": 1
                    },
                    {
                        "number": 64,
                        "time": 284.09114583332524,
                        "value": 0
                    },
                    {
                        "number": 64,
                        "time": 284.4775097916586,
                        "value": 1
                    },
                    {
                        "number": 64,
                        "time": 285.29114683332523,
                        "value": 0
                    },
                    {
                        "number": 64,
                        "time": 285.3570559791586,
                        "value": 1
                    },
                    {
                        "number": 64,
                        "time": 285.5479652291586,
                        "value": 0
                    },
                    {
                        "number": 64,
                        "time": 285.6206925624919,
                        "value": 1
                    },
                    {
                        "number": 64,
                        "time": 286.3775113749918,
                        "value": 0
                    },
                    {
                        "number": 64,
                        "time": 286.44001142707515,
                        "value": 1
                    },
                    {
                        "number": 64,
                        "time": 286.64910251040845,
                        "value": 0
                    },
                    {
                        "number": 64,
                        "time": 286.7150116562418,
                        "value": 1
                    },
                    {
                        "number": 64,
                        "time": 287.1820574999918,
                        "value": 0
                    },
                    {
                        "number": 64,
                        "time": 287.1866029583251,
                        "value": 0
                    },
                    {
                        "number": 64,
                        "time": 287.2706939374918,
                        "value": 1
                    },
                    {
                        "number": 64,
                        "time": 288.81842249999164,
                        "value": 0
                    },
                    {
                        "number": 64,
                        "time": 288.82524068749166,
                        "value": 0
                    },
                    {
                        "number": 64,
                        "time": 288.9070589374917,
                        "value": 1
                    },
                    {
                        "number": 64,
                        "time": 290.45478749999154,
                        "value": 0
                    },
                    {
                        "number": 64,
                        "time": 290.45478749999154,
                        "value": 0
                    },
                    {
                        "number": 64,
                        "time": 290.4604693229082,
                        "value": 0
                    },
                    {
                        "number": 64,
                        "time": 290.5434239374915,
                        "value": 1
                    },
                    {
                        "number": 64,
                        "time": 292.0911524999914,
                        "value": 0
                    },
                    {
                        "number": 64,
                        "time": 292.0911524999914,
                        "value": 0
                    },
                    {
                        "number": 64,
                        "time": 292.0956979583247,
                        "value": 0
                    },
                    {
                        "number": 64,
                        "time": 292.17978893749137,
                        "value": 1
                    },
                    {
                        "number": 64,
                        "time": 292.6127438437413,
                        "value": 0
                    },
                    {
                        "number": 64,
                        "time": 294.55820001040786,
                        "value": 1
                    },
                    {
                        "number": 64,
                        "time": 295.6491100104078,
                        "value": 0
                    },
                    {
                        "number": 64,
                        "time": 295.8900193020745,
                        "value": 1
                    },
                    {
                        "number": 64,
                        "time": 296.27638326040784,
                        "value": 0
                    },
                    {
                        "number": 64,
                        "time": 296.41615610415784,
                        "value": 1
                    },
                    {
                        "number": 64,
                        "time": 296.77411094790784,
                        "value": 0
                    },
                    {
                        "number": 64,
                        "time": 297.0968384895745,
                        "value": 1
                    },
                    {
                        "number": 64,
                        "time": 297.7059299062412,
                        "value": 0
                    }
                ]
            },
            "id": 2,
            "name": "Piano left",
            "instrumentNumber": 0,
            "instrument": "acoustic grand piano",
            "instrumentFamily": "piano",
            "channelNumber": 0,
            "isPercussion": false
        },
        {
            "startTime": 0,
            "duration": 0,
            "length": 0,
            "notes": [],
            "controlChanges": {},
            "id": 3,
            "name": "Chopin: Ballade in Ab major Op. 53"
        },
        {
            "startTime": 0,
            "duration": 0,
            "length": 0,
            "notes": [],
            "controlChanges": {},
            "id": 4,
            "name": "Copyright  2003 by Bernd Krueger"
        },
        {
            "startTime": 0,
            "duration": 0,
            "length": 0,
            "notes": [],
            "controlChanges": {},
            "id": 5,
            "name": "http://www.piano-midi.de"
        },
        {
            "startTime": 0,
            "duration": 0,
            "length": 0,
            "notes": [],
            "controlChanges": {},
            "id": 6,
            "name": "Edition: 2014-02-27"
        },
        {
            "startTime": 0,
            "duration": 0,
            "length": 0,
            "notes": [],
            "controlChanges": {},
            "id": 7,
            "name": "Spur 7"
        }
    ]
}