{
    "header": {
        "PPQ": 480,
        "timeSignature": [
            4,
            4
        ],
        "bpm": 125.62998201397424,
        "name": "Chopin Prelude  No. 18, Opus 28"
    },
    "startTime": 0,
    "duration": 40.59540500000007,
    "tracks": [
        {
            "startTime": 0,
            "duration": 0,
            "length": 0,
            "notes": [],
            "controlChanges": {},
            "id": 0,
            "name": "Chopin Prelude  No. 18, Opus 28"
        },
        {
            "startTime": 0.0009949854166666665,
            "duration": 40.59540500000007,
            "length": 332,
            "notes": [
                {
                    "name": "C4",
                    "midi": 60,
                    "time": 0.0009949854166666665,
                    "velocity": 0.4094488188976378,
                    "duration": 0.12835311875
                },
                {
                    "name": "C#4",
                    "midi": 61,
                    "time": 0.11939825,
                    "velocity": 0.3779527559055118,
                    "duration": 0.12934810416666664
                },
                {
                    "name": "A3",
                    "midi": 57,
                    "time": 0.2387965,
                    "velocity": 0.41732283464566927,
                    "duration": 0.12934810416666667
                },
                {
                    "name": "A#3",
                    "midi": 58,
                    "time": 0.35819475,
                    "velocity": 0.3858267716535433,
                    "duration": 0.12934810416666664
                },
                {
                    "name": "G3",
                    "midi": 55,
                    "time": 0.477593,
                    "velocity": 0.4566929133858268,
                    "duration": 0.1293481041666667
                },
                {
                    "name": "A#3",
                    "midi": 58,
                    "time": 0.59699125,
                    "velocity": 0.4881889763779528,
                    "duration": 0.12934810416666676
                },
                {
                    "name": "G4",
                    "midi": 67,
                    "time": 0.7163895,
                    "velocity": 0.5354330708661418,
                    "duration": 0.12934810416666676
                },
                {
                    "name": "F4",
                    "midi": 65,
                    "time": 0.83578775,
                    "velocity": 0.5511811023622047,
                    "duration": 0.11939825000000004
                },
                {
                    "name": "F4",
                    "midi": 65,
                    "time": 0.9551860000000001,
                    "velocity": 0.5748031496062992,
                    "duration": 0.7163895000000002
                },
                {
                    "name": "G3",
                    "midi": 55,
                    "time": 1.1939825000000002,
                    "velocity": 0.2992125984251969,
                    "duration": 0.22685667500000006
                },
                {
                    "name": "A#3",
                    "midi": 58,
                    "time": 1.1939825000000002,
                    "velocity": 0.36220472440944884,
                    "duration": 0.22685667500000006
                },
                {
                    "name": "G3",
                    "midi": 55,
                    "time": 1.4327790000000002,
                    "velocity": 0.2992125984251969,
                    "duration": 0.22685667500000006
                },
                {
                    "name": "A#3",
                    "midi": 58,
                    "time": 1.4327790000000002,
                    "velocity": 0.36220472440944884,
                    "duration": 0.22685667500000006
                },
                {
                    "name": "E4",
                    "midi": 64,
                    "time": 1.6715755000000003,
                    "velocity": 0.4094488188976378,
                    "duration": 0.23879650000000008
                },
                {
                    "name": "C4",
                    "midi": 60,
                    "time": 1.9103720000000004,
                    "velocity": 0.4094488188976378,
                    "duration": 0.12934810416666642
                },
                {
                    "name": "C#4",
                    "midi": 61,
                    "time": 2.0297702500000003,
                    "velocity": 0.3779527559055118,
                    "duration": 0.1293481041666662
                },
                {
                    "name": "A3",
                    "midi": 57,
                    "time": 2.1491685,
                    "velocity": 0.41732283464566927,
                    "duration": 0.1293481041666662
                },
                {
                    "name": "A#3",
                    "midi": 58,
                    "time": 2.2685667499999997,
                    "velocity": 0.44881889763779526,
                    "duration": 0.1293481041666662
                },
                {
                    "name": "G3",
                    "midi": 55,
                    "time": 2.3879649999999994,
                    "velocity": 0.44881889763779526,
                    "duration": 0.1293481041666662
                },
                {
                    "name": "A#3",
                    "midi": 58,
                    "time": 2.507363249999999,
                    "velocity": 0.48031496062992124,
                    "duration": 0.1293481041666662
                },
                {
                    "name": "G4",
                    "midi": 67,
                    "time": 2.626761499999999,
                    "velocity": 0.49606299212598426,
                    "duration": 0.1293481041666662
                },
                {
                    "name": "F4",
                    "midi": 65,
                    "time": 2.7461597499999986,
                    "velocity": 0.5039370078740157,
                    "duration": 0.1193982499999997
                },
                {
                    "name": "F4",
                    "midi": 65,
                    "time": 2.8655579999999983,
                    "velocity": 0.5275590551181102,
                    "duration": 0.7163894999999996
                },
                {
                    "name": "G3",
                    "midi": 55,
                    "time": 3.104354499999998,
                    "velocity": 0.2992125984251969,
                    "duration": 0.22685667500000006
                },
                {
                    "name": "A#3",
                    "midi": 58,
                    "time": 3.104354499999998,
                    "velocity": 0.36220472440944884,
                    "duration": 0.22685667500000006
                },
                {
                    "name": "G3",
                    "midi": 55,
                    "time": 3.343150999999998,
                    "velocity": 0.2992125984251969,
                    "duration": 0.22685667500000006
                },
                {
                    "name": "A#3",
                    "midi": 58,
                    "time": 3.343150999999998,
                    "velocity": 0.36220472440944884,
                    "duration": 0.22685667500000006
                },
                {
                    "name": "E4",
                    "midi": 64,
                    "time": 3.581947499999998,
                    "velocity": 0.4094488188976378,
                    "duration": 0.23879649999999986
                },
                {
                    "name": "C4",
                    "midi": 60,
                    "time": 3.8207439999999977,
                    "velocity": 0.4094488188976378,
                    "duration": 0.11939825000000015
                },
                {
                    "name": "C#4",
                    "midi": 61,
                    "time": 3.940142249999998,
                    "velocity": 0.3779527559055118,
                    "duration": 0.11939825000000015
                },
                {
                    "name": "A3",
                    "midi": 57,
                    "time": 4.059540499999998,
                    "velocity": 0.4094488188976378,
                    "duration": 0.1193982499999997
                },
                {
                    "name": "A#3",
                    "midi": 58,
                    "time": 4.178938749999998,
                    "velocity": 0.3779527559055118,
                    "duration": 0.1193982499999997
                },
                {
                    "name": "G3",
                    "midi": 55,
                    "time": 4.298336999999997,
                    "velocity": 0.3858267716535433,
                    "duration": 0.1193982499999997
                },
                {
                    "name": "A#3",
                    "midi": 58,
                    "time": 4.417735249999997,
                    "velocity": 0.3937007874015748,
                    "duration": 0.1193982499999997
                },
                {
                    "name": "G4",
                    "midi": 67,
                    "time": 4.537133499999997,
                    "velocity": 0.4251968503937008,
                    "duration": 0.1193982499999997
                },
                {
                    "name": "F4",
                    "midi": 65,
                    "time": 4.6565317499999965,
                    "velocity": 0.4330708661417323,
                    "duration": 0.1193982499999997
                },
                {
                    "name": "D#4",
                    "midi": 63,
                    "time": 4.775929999999996,
                    "velocity": 0.4566929133858268,
                    "duration": 0.1193982499999997
                },
                {
                    "name": "E4",
                    "midi": 64,
                    "time": 4.895328249999996,
                    "velocity": 0.4330708661417323,
                    "duration": 0.1193982499999997
                },
                {
                    "name": "A#4",
                    "midi": 70,
                    "time": 5.014726499999996,
                    "velocity": 0.4645669291338583,
                    "duration": 0.1193982499999997
                },
                {
                    "name": "G#4",
                    "midi": 68,
                    "time": 5.134124749999995,
                    "velocity": 0.44881889763779526,
                    "duration": 0.1193982499999997
                },
                {
                    "name": "F#4",
                    "midi": 66,
                    "time": 5.253522999999995,
                    "velocity": 0.4566929133858268,
                    "duration": 0.1193982499999997
                },
                {
                    "name": "G4",
                    "midi": 67,
                    "time": 5.372921249999995,
                    "velocity": 0.4881889763779528,
                    "duration": 0.1193982499999997
                },
                {
                    "name": "C#5",
                    "midi": 73,
                    "time": 5.4923194999999945,
                    "velocity": 0.5118110236220472,
                    "duration": 0.1193982499999997
                },
                {
                    "name": "C5",
                    "midi": 72,
                    "time": 5.611717749999994,
                    "velocity": 0.48031496062992124,
                    "duration": 0.1193982499999997
                },
                {
                    "name": "A4",
                    "midi": 69,
                    "time": 5.731115999999994,
                    "velocity": 0.5275590551181102,
                    "duration": 0.1193982499999997
                },
                {
                    "name": "A#4",
                    "midi": 70,
                    "time": 5.850514249999994,
                    "velocity": 0.5196850393700787,
                    "duration": 0.1193982499999997
                },
                {
                    "name": "C#6",
                    "midi": 85,
                    "time": 5.969912499999993,
                    "velocity": 0.5590551181102362,
                    "duration": 0.12934810416666664
                },
                {
                    "name": "G5",
                    "midi": 79,
                    "time": 6.089310749999993,
                    "velocity": 0.5275590551181102,
                    "duration": 0.12934810416666753
                },
                {
                    "name": "C6",
                    "midi": 84,
                    "time": 6.208708999999994,
                    "velocity": 0.5590551181102362,
                    "duration": 0.12934810416666753
                },
                {
                    "name": "A#5",
                    "midi": 82,
                    "time": 6.328107249999994,
                    "velocity": 0.5511811023622047,
                    "duration": 0.12934810416666753
                },
                {
                    "name": "G#5",
                    "midi": 80,
                    "time": 6.447505499999995,
                    "velocity": 0.5354330708661418,
                    "duration": 0.12934810416666753
                },
                {
                    "name": "G5",
                    "midi": 79,
                    "time": 6.566903749999995,
                    "velocity": 0.5196850393700787,
                    "duration": 0.12934810416666753
                },
                {
                    "name": "F5",
                    "midi": 77,
                    "time": 6.686301999999996,
                    "velocity": 0.5118110236220472,
                    "duration": 0.12934810416666753
                },
                {
                    "name": "E5",
                    "midi": 76,
                    "time": 6.805700249999997,
                    "velocity": 0.49606299212598426,
                    "duration": 0.12934810416666753
                },
                {
                    "name": "G5",
                    "midi": 79,
                    "time": 6.925098499999997,
                    "velocity": 0.48031496062992124,
                    "duration": 0.12934810416666753
                },
                {
                    "name": "A#4",
                    "midi": 70,
                    "time": 7.044496749999998,
                    "velocity": 0.47244094488188976,
                    "duration": 0.12934810416666753
                },
                {
                    "name": "B4",
                    "midi": 71,
                    "time": 7.163894999999998,
                    "velocity": 0.48031496062992124,
                    "duration": 0.09551860000000012
                },
                {
                    "name": "C5",
                    "midi": 72,
                    "time": 7.2594135999999985,
                    "velocity": 0.4409448818897638,
                    "duration": 0.09551860000000012
                },
                {
                    "name": "C#5",
                    "midi": 73,
                    "time": 7.354932199999999,
                    "velocity": 0.4645669291338583,
                    "duration": 0.09551860000000012
                },
                {
                    "name": "G4",
                    "midi": 67,
                    "time": 7.450450799999999,
                    "velocity": 0.4409448818897638,
                    "duration": 0.09551860000000012
                },
                {
                    "name": "C5",
                    "midi": 72,
                    "time": 7.545969399999999,
                    "velocity": 0.4409448818897638,
                    "duration": 0.09551860000000012
                },
                {
                    "name": "A#4",
                    "midi": 70,
                    "time": 7.641487999999999,
                    "velocity": 0.44881889763779526,
                    "duration": 0.12934810416666664
                },
                {
                    "name": "A4",
                    "midi": 69,
                    "time": 7.760886249999999,
                    "velocity": 0.41732283464566927,
                    "duration": 0.12934810416666753
                },
                {
                    "name": "F4",
                    "midi": 65,
                    "time": 7.880284499999999,
                    "velocity": 0.44881889763779526,
                    "duration": 0.12934810416666753
                },
                {
                    "name": "F#4",
                    "midi": 66,
                    "time": 7.99968275,
                    "velocity": 0.4645669291338583,
                    "duration": 0.12934810416666664
                },
                {
                    "name": "D4",
                    "midi": 62,
                    "time": 8.119081,
                    "velocity": 0.47244094488188976,
                    "duration": 0.12934810416666664
                },
                {
                    "name": "D#4",
                    "midi": 63,
                    "time": 8.23847925,
                    "velocity": 0.5039370078740157,
                    "duration": 0.12934810416666664
                },
                {
                    "name": "C5",
                    "midi": 72,
                    "time": 8.357877499999999,
                    "velocity": 0.5433070866141733,
                    "duration": 0.12934810416666664
                },
                {
                    "name": "A#4",
                    "midi": 70,
                    "time": 8.477275749999999,
                    "velocity": 0.5433070866141733,
                    "duration": 0.1193982499999997
                },
                {
                    "name": "A#4",
                    "midi": 70,
                    "time": 8.596673999999998,
                    "velocity": 0.5826771653543307,
                    "duration": 0.7163895000000018
                },
                {
                    "name": "C4",
                    "midi": 60,
                    "time": 8.835470499999998,
                    "velocity": 0.33070866141732286,
                    "duration": 0.2268566750000005
                },
                {
                    "name": "D#4",
                    "midi": 63,
                    "time": 8.835470499999998,
                    "velocity": 0.4015748031496063,
                    "duration": 0.2268566750000005
                },
                {
                    "name": "C4",
                    "midi": 60,
                    "time": 9.074266999999999,
                    "velocity": 0.33070866141732286,
                    "duration": 0.2268566750000005
                },
                {
                    "name": "D#4",
                    "midi": 63,
                    "time": 9.074266999999999,
                    "velocity": 0.4015748031496063,
                    "duration": 0.2268566750000005
                },
                {
                    "name": "A4",
                    "midi": 69,
                    "time": 9.3130635,
                    "velocity": 0.44881889763779526,
                    "duration": 0.2387964999999994
                },
                {
                    "name": "F4",
                    "midi": 65,
                    "time": 9.55186,
                    "velocity": 0.44881889763779526,
                    "duration": 0.12934810416666664
                },
                {
                    "name": "F#4",
                    "midi": 66,
                    "time": 9.67125825,
                    "velocity": 0.41732283464566927,
                    "duration": 0.12934810416666664
                },
                {
                    "name": "D4",
                    "midi": 62,
                    "time": 9.790656499999999,
                    "velocity": 0.4251968503937008,
                    "duration": 0.12934810416666664
                },
                {
                    "name": "D#4",
                    "midi": 63,
                    "time": 9.910054749999999,
                    "velocity": 0.4251968503937008,
                    "duration": 0.12934810416666664
                },
                {
                    "name": "C4",
                    "midi": 60,
                    "time": 10.029452999999998,
                    "velocity": 0.44881889763779526,
                    "duration": 0.12934810416666664
                },
                {
                    "name": "D#4",
                    "midi": 63,
                    "time": 10.148851249999998,
                    "velocity": 0.5354330708661418,
                    "duration": 0.12934810416666664
                },
                {
                    "name": "C5",
                    "midi": 72,
                    "time": 10.268249499999998,
                    "velocity": 0.5511811023622047,
                    "duration": 0.12934810416666664
                },
                {
                    "name": "A#4",
                    "midi": 70,
                    "time": 10.387647749999998,
                    "velocity": 0.5748031496062992,
                    "duration": 0.1193982499999997
                },
                {
                    "name": "A#4",
                    "midi": 70,
                    "time": 10.507045999999997,
                    "velocity": 0.5984251968503937,
                    "duration": 0.7163895000000018
                },
                {
                    "name": "C4",
                    "midi": 60,
                    "time": 10.745842499999997,
                    "velocity": 0.33070866141732286,
                    "duration": 0.2268566750000005
                },
                {
                    "name": "D#4",
                    "midi": 63,
                    "time": 10.745842499999997,
                    "velocity": 0.4015748031496063,
                    "duration": 0.2268566750000005
                },
                {
                    "name": "C4",
                    "midi": 60,
                    "time": 10.984638999999998,
                    "velocity": 0.33070866141732286,
                    "duration": 0.2268566750000005
                },
                {
                    "name": "D#4",
                    "midi": 63,
                    "time": 10.984638999999998,
                    "velocity": 0.4015748031496063,
                    "duration": 0.2268566750000005
                },
                {
                    "name": "A4",
                    "midi": 69,
                    "time": 11.223435499999999,
                    "velocity": 0.44881889763779526,
                    "duration": 0.2387964999999994
                },
                {
                    "name": "F4",
                    "midi": 65,
                    "time": 11.462231999999998,
                    "velocity": 0.44881889763779526,
                    "duration": 0.1193982499999997
                },
                {
                    "name": "F#4",
                    "midi": 66,
                    "time": 11.581630249999998,
                    "velocity": 0.41732283464566927,
                    "duration": 0.1193982499999997
                },
                {
                    "name": "D4",
                    "midi": 62,
                    "time": 11.701028499999998,
                    "velocity": 0.4094488188976378,
                    "duration": 0.1193982499999997
                },
                {
                    "name": "D#4",
                    "midi": 63,
                    "time": 11.820426749999998,
                    "velocity": 0.3937007874015748,
                    "duration": 0.1193982499999997
                },
                {
                    "name": "C4",
                    "midi": 60,
                    "time": 11.939824999999997,
                    "velocity": 0.4251968503937008,
                    "duration": 0.1193982499999997
                },
                {
                    "name": "D#4",
                    "midi": 63,
                    "time": 12.059223249999997,
                    "velocity": 0.4330708661417323,
                    "duration": 0.1193982499999997
                },
                {
                    "name": "C5",
                    "midi": 72,
                    "time": 12.178621499999997,
                    "velocity": 0.44881889763779526,
                    "duration": 0.12934810416666664
                },
                {
                    "name": "A#4",
                    "midi": 70,
                    "time": 12.298019749999996,
                    "velocity": 0.4645669291338583,
                    "duration": 0.12934810416666664
                },
                {
                    "name": "G#4",
                    "midi": 68,
                    "time": 12.417417999999996,
                    "velocity": 0.49606299212598426,
                    "duration": 0.12934810416666664
                },
                {
                    "name": "A4",
                    "midi": 69,
                    "time": 12.536816249999996,
                    "velocity": 0.44881889763779526,
                    "duration": 0.12934810416666664
                },
                {
                    "name": "F#5",
                    "midi": 78,
                    "time": 12.656214499999995,
                    "velocity": 0.49606299212598426,
                    "duration": 0.12934810416666664
                },
                {
                    "name": "F5",
                    "midi": 77,
                    "time": 12.775612749999995,
                    "velocity": 0.4566929133858268,
                    "duration": 0.12934810416666664
                },
                {
                    "name": "D5",
                    "midi": 74,
                    "time": 12.895010999999995,
                    "velocity": 0.47244094488188976,
                    "duration": 0.12934810416666664
                },
                {
                    "name": "D#5",
                    "midi": 75,
                    "time": 13.014409249999995,
                    "velocity": 0.47244094488188976,
                    "duration": 0.12934810416666664
                },
                {
                    "name": "C#6",
                    "midi": 85,
                    "time": 13.133807499999994,
                    "velocity": 0.5196850393700787,
                    "duration": 0.12934810416666664
                },
                {
                    "name": "C6",
                    "midi": 84,
                    "time": 13.253205749999994,
                    "velocity": 0.5039370078740157,
                    "duration": 0.12934810416666664
                },
                {
                    "name": "A#5",
                    "midi": 82,
                    "time": 13.372603999999994,
                    "velocity": 0.5354330708661418,
                    "duration": 0.12934810416666664
                },
                {
                    "name": "A5",
                    "midi": 81,
                    "time": 13.492002249999993,
                    "velocity": 0.5354330708661418,
                    "duration": 0.12934810416666664
                },
                {
                    "name": "D#6",
                    "midi": 87,
                    "time": 13.611400499999993,
                    "velocity": 0.5669291338582677,
                    "duration": 0.12934810416666664
                },
                {
                    "name": "E5",
                    "midi": 76,
                    "time": 13.730798749999993,
                    "velocity": 0.5511811023622047,
                    "duration": 0.12934810416666664
                },
                {
                    "name": "F5",
                    "midi": 77,
                    "time": 13.850196999999993,
                    "velocity": 0.5590551181102362,
                    "duration": 0.12934810416666664
                },
                {
                    "name": "F#5",
                    "midi": 78,
                    "time": 13.969595249999992,
                    "velocity": 0.5748031496062992,
                    "duration": 0.12934810416666664
                },
                {
                    "name": "C5",
                    "midi": 72,
                    "time": 14.088993499999992,
                    "velocity": 0.5433070866141733,
                    "duration": 0.12934810416666664
                },
                {
                    "name": "C#5",
                    "midi": 73,
                    "time": 14.208391749999992,
                    "velocity": 0.5826771653543307,
                    "duration": 0.12934810416666664
                },
                {
                    "name": "F5",
                    "midi": 77,
                    "time": 14.327789999999991,
                    "velocity": 0.5984251968503937,
                    "duration": 0.12934810416666664
                },
                {
                    "name": "D#5",
                    "midi": 75,
                    "time": 14.447188249999991,
                    "velocity": 0.5984251968503937,
                    "duration": 0.12934810416666664
                },
                {
                    "name": "C#5",
                    "midi": 73,
                    "time": 14.56658649999999,
                    "velocity": 0.5905511811023622,
                    "duration": 0.12934810416666664
                },
                {
                    "name": "C5",
                    "midi": 72,
                    "time": 14.68598474999999,
                    "velocity": 0.5669291338582677,
                    "duration": 0.12934810416666664
                },
                {
                    "name": "A#4",
                    "midi": 70,
                    "time": 14.80538299999999,
                    "velocity": 0.5669291338582677,
                    "duration": 0.09551860000000012
                },
                {
                    "name": "A4",
                    "midi": 69,
                    "time": 14.90090159999999,
                    "velocity": 0.5984251968503937,
                    "duration": 0.09551860000000012
                },
                {
                    "name": "C5",
                    "midi": 72,
                    "time": 14.99642019999999,
                    "velocity": 0.6220472440944882,
                    "duration": 0.09551860000000012
                },
                {
                    "name": "E4",
                    "midi": 64,
                    "time": 15.09193879999999,
                    "velocity": 0.6220472440944882,
                    "duration": 0.09551860000000012
                },
                {
                    "name": "F4",
                    "midi": 65,
                    "time": 15.18745739999999,
                    "velocity": 0.6220472440944882,
                    "duration": 0.09551860000000012
                },
                {
                    "name": "F#4",
                    "midi": 66,
                    "time": 15.28297599999999,
                    "velocity": 0.6535433070866141,
                    "duration": 0.09551860000000012
                },
                {
                    "name": "C4",
                    "midi": 60,
                    "time": 15.378494599999991,
                    "velocity": 0.6535433070866141,
                    "duration": 0.09551860000000012
                },
                {
                    "name": "F4",
                    "midi": 65,
                    "time": 15.474013199999991,
                    "velocity": 0.6535433070866141,
                    "duration": 0.09551860000000012
                },
                {
                    "name": "D#4",
                    "midi": 63,
                    "time": 15.569531799999991,
                    "velocity": 0.6692913385826772,
                    "duration": 0.09551860000000012
                },
                {
                    "name": "C#4",
                    "midi": 61,
                    "time": 15.665050399999991,
                    "velocity": 0.6692913385826772,
                    "duration": 0.09551860000000012
                },
                {
                    "name": "C4",
                    "midi": 60,
                    "time": 15.760568999999991,
                    "velocity": 0.7480314960629921,
                    "duration": 0.2387964999999994
                },
                {
                    "name": "A#3",
                    "midi": 58,
                    "time": 15.99936549999999,
                    "velocity": 0.7007874015748031,
                    "duration": 0.2387965000000012
                },
                {
                    "name": "F3",
                    "midi": 53,
                    "time": 16.238161999999992,
                    "velocity": 0.5275590551181102,
                    "duration": 0.2387964999999994
                },
                {
                    "name": "G3",
                    "midi": 55,
                    "time": 16.238161999999992,
                    "velocity": 0.5354330708661418,
                    "duration": 0.2387964999999994
                },
                {
                    "name": "A#3",
                    "midi": 58,
                    "time": 16.238161999999992,
                    "velocity": 0.5669291338582677,
                    "duration": 0.2387964999999994
                },
                {
                    "name": "C#4",
                    "midi": 61,
                    "time": 16.238161999999992,
                    "velocity": 0.6299212598425197,
                    "duration": 0.2387964999999994
                },
                {
                    "name": "F4",
                    "midi": 65,
                    "time": 16.238161999999992,
                    "velocity": 0.6692913385826772,
                    "duration": 0.2387964999999994
                },
                {
                    "name": "C#5",
                    "midi": 73,
                    "time": 16.71575499999999,
                    "velocity": 0.5196850393700787,
                    "duration": 0.1193982499999997
                },
                {
                    "name": "G4",
                    "midi": 67,
                    "time": 16.83515324999999,
                    "velocity": 0.5433070866141733,
                    "duration": 0.1193982499999997
                },
                {
                    "name": "G#4",
                    "midi": 68,
                    "time": 16.95455149999999,
                    "velocity": 0.5826771653543307,
                    "duration": 0.1193982499999997
                },
                {
                    "name": "A4",
                    "midi": 69,
                    "time": 17.07394974999999,
                    "velocity": 0.5984251968503937,
                    "duration": 0.1193982499999997
                },
                {
                    "name": "C5",
                    "midi": 72,
                    "time": 17.19334799999999,
                    "velocity": 0.6299212598425197,
                    "duration": 0.1193982499999997
                },
                {
                    "name": "A#4",
                    "midi": 70,
                    "time": 17.31274624999999,
                    "velocity": 0.6614173228346457,
                    "duration": 0.1193982499999997
                },
                {
                    "name": "G#4",
                    "midi": 68,
                    "time": 17.43214449999999,
                    "velocity": 0.6929133858267716,
                    "duration": 0.1193982499999997
                },
                {
                    "name": "G4",
                    "midi": 67,
                    "time": 17.55154274999999,
                    "velocity": 0.7244094488188977,
                    "duration": 0.1193982499999997
                },
                {
                    "name": "F4",
                    "midi": 65,
                    "time": 17.67094099999999,
                    "velocity": 0.7480314960629921,
                    "duration": 0.1193982499999997
                },
                {
                    "name": "E4",
                    "midi": 64,
                    "time": 17.790339249999988,
                    "velocity": 0.7322834645669292,
                    "duration": 0.1193982499999997
                },
                {
                    "name": "G3",
                    "midi": 55,
                    "time": 18.148533999999987,
                    "velocity": 0.5590551181102362,
                    "duration": 0.2387964999999994
                },
                {
                    "name": "A#3",
                    "midi": 58,
                    "time": 18.148533999999987,
                    "velocity": 0.5984251968503937,
                    "duration": 0.2387964999999994
                },
                {
                    "name": "C#4",
                    "midi": 61,
                    "time": 18.148533999999987,
                    "velocity": 0.6220472440944882,
                    "duration": 0.2387964999999994
                },
                {
                    "name": "E4",
                    "midi": 64,
                    "time": 18.148533999999987,
                    "velocity": 0.7086614173228346,
                    "duration": 0.2387964999999994
                },
                {
                    "name": "G#5",
                    "midi": 80,
                    "time": 18.626126999999986,
                    "velocity": 0.7086614173228346,
                    "duration": 0.1193982499999997
                },
                {
                    "name": "A#4",
                    "midi": 70,
                    "time": 18.745525249999986,
                    "velocity": 0.6456692913385826,
                    "duration": 0.1193982499999997
                },
                {
                    "name": "G#5",
                    "midi": 80,
                    "time": 18.864923499999986,
                    "velocity": 0.6771653543307087,
                    "duration": 0.1193982499999997
                },
                {
                    "name": "G5",
                    "midi": 79,
                    "time": 18.984321749999985,
                    "velocity": 0.6614173228346457,
                    "duration": 0.1193982499999997
                },
                {
                    "name": "E5",
                    "midi": 76,
                    "time": 19.103719999999985,
                    "velocity": 0.6377952755905512,
                    "duration": 0.1193982499999997
                },
                {
                    "name": "C#5",
                    "midi": 73,
                    "time": 19.223118249999985,
                    "velocity": 0.6141732283464567,
                    "duration": 0.1193982499999997
                },
                {
                    "name": "A#4",
                    "midi": 70,
                    "time": 19.342516499999984,
                    "velocity": 0.5984251968503937,
                    "duration": 0.1193982499999997
                },
                {
                    "name": "G4",
                    "midi": 67,
                    "time": 19.461914749999984,
                    "velocity": 0.5826771653543307,
                    "duration": 0.1193982499999997
                },
                {
                    "name": "E4",
                    "midi": 64,
                    "time": 19.581312999999984,
                    "velocity": 0.5590551181102362,
                    "duration": 0.1193982499999997
                },
                {
                    "name": "F4",
                    "midi": 65,
                    "time": 19.700711249999983,
                    "velocity": 0.5354330708661418,
                    "duration": 0.1193982499999997
                },
                {
                    "name": "F3",
                    "midi": 53,
                    "time": 20.058905999999983,
                    "velocity": 0.5984251968503937,
                    "duration": 0.2387964999999994
                },
                {
                    "name": "C4",
                    "midi": 60,
                    "time": 20.058905999999983,
                    "velocity": 0.5984251968503937,
                    "duration": 0.2387964999999994
                },
                {
                    "name": "F4",
                    "midi": 65,
                    "time": 20.058905999999983,
                    "velocity": 0.7086614173228346,
                    "duration": 0.2387964999999994
                },
                {
                    "name": "C6",
                    "midi": 84,
                    "time": 20.53649899999998,
                    "velocity": 0.6929133858267716,
                    "duration": 0.1193982499999997
                },
                {
                    "name": "F5",
                    "midi": 77,
                    "time": 20.65589724999998,
                    "velocity": 0.6614173228346457,
                    "duration": 0.1193982499999997
                },
                {
                    "name": "F#5",
                    "midi": 78,
                    "time": 20.77529549999998,
                    "velocity": 0.6929133858267716,
                    "duration": 0.1193982499999997
                },
                {
                    "name": "G5",
                    "midi": 79,
                    "time": 20.89469374999998,
                    "velocity": 0.6771653543307087,
                    "duration": 0.1193982499999997
                },
                {
                    "name": "A#5",
                    "midi": 82,
                    "time": 21.01409199999998,
                    "velocity": 0.6377952755905512,
                    "duration": 0.09551859999999834
                },
                {
                    "name": "G#5",
                    "midi": 80,
                    "time": 21.10961059999998,
                    "velocity": 0.6062992125984252,
                    "duration": 0.09551859999999834
                },
                {
                    "name": "F5",
                    "midi": 77,
                    "time": 21.205129199999977,
                    "velocity": 0.5905511811023622,
                    "duration": 0.09551859999999834
                },
                {
                    "name": "C#5",
                    "midi": 73,
                    "time": 21.300647799999975,
                    "velocity": 0.5748031496062992,
                    "duration": 0.09551859999999834
                },
                {
                    "name": "C5",
                    "midi": 72,
                    "time": 21.396166399999974,
                    "velocity": 0.5590551181102362,
                    "duration": 0.09551859999999834
                },
                {
                    "name": "C5",
                    "midi": 72,
                    "time": 21.491684999999972,
                    "velocity": 0.5511811023622047,
                    "duration": 0.1193982499999997
                },
                {
                    "name": "B4",
                    "midi": 71,
                    "time": 21.61108324999997,
                    "velocity": 0.5354330708661418,
                    "duration": 0.1193982499999997
                },
                {
                    "name": "G#3",
                    "midi": 56,
                    "time": 21.96927799999997,
                    "velocity": 0.5748031496062992,
                    "duration": 0.2387964999999994
                },
                {
                    "name": "B3",
                    "midi": 59,
                    "time": 21.96927799999997,
                    "velocity": 0.5984251968503937,
                    "duration": 0.2387964999999994
                },
                {
                    "name": "D4",
                    "midi": 62,
                    "time": 21.96927799999997,
                    "velocity": 0.6062992125984252,
                    "duration": 0.2387964999999994
                },
                {
                    "name": "G#4",
                    "midi": 68,
                    "time": 21.96927799999997,
                    "velocity": 0.7165354330708661,
                    "duration": 0.2387964999999994
                },
                {
                    "name": "G#6",
                    "midi": 92,
                    "time": 22.44687099999997,
                    "velocity": 0.6692913385826772,
                    "duration": 0.05969912500000163
                },
                {
                    "name": "D6",
                    "midi": 86,
                    "time": 22.50657012499997,
                    "velocity": 0.6614173228346457,
                    "duration": 0.05969912500000163
                },
                {
                    "name": "D#6",
                    "midi": 87,
                    "time": 22.566269249999973,
                    "velocity": 0.6614173228346457,
                    "duration": 0.05969912500000163
                },
                {
                    "name": "E6",
                    "midi": 88,
                    "time": 22.625968374999974,
                    "velocity": 0.6535433070866141,
                    "duration": 0.05969912500000163
                },
                {
                    "name": "G6",
                    "midi": 91,
                    "time": 22.685667499999976,
                    "velocity": 0.6377952755905512,
                    "duration": 0.05969912500000163
                },
                {
                    "name": "F6",
                    "midi": 89,
                    "time": 22.745366624999978,
                    "velocity": 0.6377952755905512,
                    "duration": 0.05969912500000163
                },
                {
                    "name": "D6",
                    "midi": 86,
                    "time": 22.80506574999998,
                    "velocity": 0.6299212598425197,
                    "duration": 0.05969912500000163
                },
                {
                    "name": "B5",
                    "midi": 83,
                    "time": 22.86476487499998,
                    "velocity": 0.6220472440944882,
                    "duration": 0.05969912500000163
                },
                {
                    "name": "G5",
                    "midi": 79,
                    "time": 22.924463999999983,
                    "velocity": 0.6220472440944882,
                    "duration": 0.05969912500000163
                },
                {
                    "name": "G#5",
                    "midi": 80,
                    "time": 22.984163124999984,
                    "velocity": 0.6062992125984252,
                    "duration": 0.05969912500000163
                },
                {
                    "name": "F5",
                    "midi": 77,
                    "time": 23.043862249999986,
                    "velocity": 0.5984251968503937,
                    "duration": 0.05969912500000163
                },
                {
                    "name": "D5",
                    "midi": 74,
                    "time": 23.103561374999988,
                    "velocity": 0.5984251968503937,
                    "duration": 0.05969912500000163
                },
                {
                    "name": "B4",
                    "midi": 71,
                    "time": 23.16326049999999,
                    "velocity": 0.5984251968503937,
                    "duration": 0.04775929999999917
                },
                {
                    "name": "G4",
                    "midi": 67,
                    "time": 23.21101979999999,
                    "velocity": 0.5905511811023622,
                    "duration": 0.04775929999999917
                },
                {
                    "name": "G#4",
                    "midi": 68,
                    "time": 23.258779099999987,
                    "velocity": 0.5905511811023622,
                    "duration": 0.04775929999999917
                },
                {
                    "name": "F4",
                    "midi": 65,
                    "time": 23.306538399999987,
                    "velocity": 0.5826771653543307,
                    "duration": 0.04775929999999917
                },
                {
                    "name": "D4",
                    "midi": 62,
                    "time": 23.354297699999986,
                    "velocity": 0.5826771653543307,
                    "duration": 0.04775929999999917
                },
                {
                    "name": "B3",
                    "midi": 59,
                    "time": 23.402056999999985,
                    "velocity": 0.6220472440944882,
                    "duration": 0.1193982499999997
                },
                {
                    "name": "C4",
                    "midi": 60,
                    "time": 23.521455249999985,
                    "velocity": 0.5590551181102362,
                    "duration": 0.1193982499999997
                },
                {
                    "name": "F4",
                    "midi": 65,
                    "time": 23.640853499999984,
                    "velocity": 0.5826771653543307,
                    "duration": 0.1193982499999997
                },
                {
                    "name": "D#4",
                    "midi": 63,
                    "time": 23.760251749999984,
                    "velocity": 0.5511811023622047,
                    "duration": 0.1193982499999997
                },
                {
                    "name": "C4",
                    "midi": 60,
                    "time": 23.879649999999984,
                    "velocity": 0.5039370078740157,
                    "duration": 0.2387964999999994
                },
                {
                    "name": "D#4",
                    "midi": 63,
                    "time": 23.879649999999984,
                    "velocity": 0.5354330708661418,
                    "duration": 0.2387964999999994
                },
                {
                    "name": "G#4",
                    "midi": 68,
                    "time": 23.879649999999984,
                    "velocity": 0.5433070866141733,
                    "duration": 0.2387964999999994
                },
                {
                    "name": "C5",
                    "midi": 72,
                    "time": 23.879649999999984,
                    "velocity": 0.6377952755905512,
                    "duration": 0.2387964999999994
                },
                {
                    "name": "D5",
                    "midi": 74,
                    "time": 24.357242999999983,
                    "velocity": 0.5433070866141733,
                    "duration": 0.15919766666666746
                },
                {
                    "name": "D6",
                    "midi": 86,
                    "time": 24.357242999999983,
                    "velocity": 0.6535433070866141,
                    "duration": 0.15919766666666746
                },
                {
                    "name": "C#5",
                    "midi": 73,
                    "time": 24.51644066666665,
                    "velocity": 0.44881889763779526,
                    "duration": 0.15919766666666746
                },
                {
                    "name": "C#6",
                    "midi": 85,
                    "time": 24.51644066666665,
                    "velocity": 0.5511811023622047,
                    "duration": 0.15919766666666746
                },
                {
                    "name": "C5",
                    "midi": 72,
                    "time": 24.675638333333318,
                    "velocity": 0.44881889763779526,
                    "duration": 0.14327790000000107
                },
                {
                    "name": "C6",
                    "midi": 84,
                    "time": 24.675638333333318,
                    "velocity": 0.5354330708661418,
                    "duration": 0.14327790000000107
                },
                {
                    "name": "C5",
                    "midi": 72,
                    "time": 24.834835999999985,
                    "velocity": 0.44881889763779526,
                    "duration": 0.14327790000000107
                },
                {
                    "name": "C6",
                    "midi": 84,
                    "time": 24.834835999999985,
                    "velocity": 0.5275590551181102,
                    "duration": 0.14327790000000107
                },
                {
                    "name": "C5",
                    "midi": 72,
                    "time": 24.994033666666652,
                    "velocity": 0.4330708661417323,
                    "duration": 0.14327790000000107
                },
                {
                    "name": "C6",
                    "midi": 84,
                    "time": 24.994033666666652,
                    "velocity": 0.5196850393700787,
                    "duration": 0.14327790000000107
                },
                {
                    "name": "C5",
                    "midi": 72,
                    "time": 25.15323133333332,
                    "velocity": 0.4251968503937008,
                    "duration": 0.14327790000000107
                },
                {
                    "name": "C6",
                    "midi": 84,
                    "time": 25.15323133333332,
                    "velocity": 0.5039370078740157,
                    "duration": 0.14327790000000107
                },
                {
                    "name": "B3",
                    "midi": 59,
                    "time": 25.312428999999987,
                    "velocity": 0.5669291338582677,
                    "duration": 0.1193982499999997
                },
                {
                    "name": "C4",
                    "midi": 60,
                    "time": 25.431827249999987,
                    "velocity": 0.5433070866141733,
                    "duration": 0.1193982499999997
                },
                {
                    "name": "F4",
                    "midi": 65,
                    "time": 25.551225499999987,
                    "velocity": 0.5669291338582677,
                    "duration": 0.1193982499999997
                },
                {
                    "name": "E4",
                    "midi": 64,
                    "time": 25.670623749999987,
                    "velocity": 0.5275590551181102,
                    "duration": 0.1193982499999997
                },
                {
                    "name": "C4",
                    "midi": 60,
                    "time": 25.790021999999986,
                    "velocity": 0.5196850393700787,
                    "duration": 0.2387964999999994
                },
                {
                    "name": "E4",
                    "midi": 64,
                    "time": 25.790021999999986,
                    "velocity": 0.5433070866141733,
                    "duration": 0.2387964999999994
                },
                {
                    "name": "G#4",
                    "midi": 68,
                    "time": 25.790021999999986,
                    "velocity": 0.5433070866141733,
                    "duration": 0.2387964999999994
                },
                {
                    "name": "C5",
                    "midi": 72,
                    "time": 25.790021999999986,
                    "velocity": 0.6377952755905512,
                    "duration": 0.2387964999999994
                },
                {
                    "name": "D5",
                    "midi": 74,
                    "time": 26.267614999999985,
                    "velocity": 0.5748031496062992,
                    "duration": 0.15919766666666746
                },
                {
                    "name": "D6",
                    "midi": 86,
                    "time": 26.267614999999985,
                    "velocity": 0.6929133858267716,
                    "duration": 0.15919766666666746
                },
                {
                    "name": "C#5",
                    "midi": 73,
                    "time": 26.426812666666653,
                    "velocity": 0.5118110236220472,
                    "duration": 0.15919766666666746
                },
                {
                    "name": "C#6",
                    "midi": 85,
                    "time": 26.426812666666653,
                    "velocity": 0.5984251968503937,
                    "duration": 0.15919766666666746
                },
                {
                    "name": "C5",
                    "midi": 72,
                    "time": 26.58601033333332,
                    "velocity": 0.49606299212598426,
                    "duration": 0.14327790000000107
                },
                {
                    "name": "C6",
                    "midi": 84,
                    "time": 26.58601033333332,
                    "velocity": 0.5905511811023622,
                    "duration": 0.14327790000000107
                },
                {
                    "name": "C5",
                    "midi": 72,
                    "time": 26.745207999999987,
                    "velocity": 0.4566929133858268,
                    "duration": 0.1074584250000008
                },
                {
                    "name": "C6",
                    "midi": 84,
                    "time": 26.745207999999987,
                    "velocity": 0.5590551181102362,
                    "duration": 0.1074584250000008
                },
                {
                    "name": "C5",
                    "midi": 72,
                    "time": 26.864606249999987,
                    "velocity": 0.4566929133858268,
                    "duration": 0.1074584250000008
                },
                {
                    "name": "C6",
                    "midi": 84,
                    "time": 26.864606249999987,
                    "velocity": 0.5590551181102362,
                    "duration": 0.1074584250000008
                },
                {
                    "name": "C5",
                    "midi": 72,
                    "time": 26.984004499999987,
                    "velocity": 0.44881889763779526,
                    "duration": 0.1074584250000008
                },
                {
                    "name": "C6",
                    "midi": 84,
                    "time": 26.984004499999987,
                    "velocity": 0.5433070866141733,
                    "duration": 0.1074584250000008
                },
                {
                    "name": "C5",
                    "midi": 72,
                    "time": 27.103402749999987,
                    "velocity": 0.44881889763779526,
                    "duration": 0.1074584250000008
                },
                {
                    "name": "C6",
                    "midi": 84,
                    "time": 27.103402749999987,
                    "velocity": 0.5433070866141733,
                    "duration": 0.1074584250000008
                },
                {
                    "name": "B3",
                    "midi": 59,
                    "time": 27.222800999999986,
                    "velocity": 0.5984251968503937,
                    "duration": 0.1193982499999997
                },
                {
                    "name": "C4",
                    "midi": 60,
                    "time": 27.342199249999986,
                    "velocity": 0.5748031496062992,
                    "duration": 0.1193982499999997
                },
                {
                    "name": "G4",
                    "midi": 67,
                    "time": 27.461597499999986,
                    "velocity": 0.5984251968503937,
                    "duration": 0.1193982499999997
                },
                {
                    "name": "F4",
                    "midi": 65,
                    "time": 27.580995749999985,
                    "velocity": 0.5590551181102362,
                    "duration": 0.1193982499999997
                },
                {
                    "name": "C4",
                    "midi": 60,
                    "time": 27.700393999999985,
                    "velocity": 0.5669291338582677,
                    "duration": 0.2387964999999994
                },
                {
                    "name": "F4",
                    "midi": 65,
                    "time": 27.700393999999985,
                    "velocity": 0.5748031496062992,
                    "duration": 0.2387964999999994
                },
                {
                    "name": "G#4",
                    "midi": 68,
                    "time": 27.700393999999985,
                    "velocity": 0.5748031496062992,
                    "duration": 0.2387964999999994
                },
                {
                    "name": "C5",
                    "midi": 72,
                    "time": 27.700393999999985,
                    "velocity": 0.6771653543307087,
                    "duration": 0.2387964999999994
                },
                {
                    "name": "B3",
                    "midi": 59,
                    "time": 28.177986999999984,
                    "velocity": 0.5984251968503937,
                    "duration": 0.1193982499999997
                },
                {
                    "name": "C4",
                    "midi": 60,
                    "time": 28.297385249999984,
                    "velocity": 0.5748031496062992,
                    "duration": 0.1193982499999997
                },
                {
                    "name": "A#4",
                    "midi": 70,
                    "time": 28.416783499999983,
                    "velocity": 0.5984251968503937,
                    "duration": 0.1193982499999997
                },
                {
                    "name": "G#4",
                    "midi": 68,
                    "time": 28.536181749999983,
                    "velocity": 0.5590551181102362,
                    "duration": 0.1193982499999997
                },
                {
                    "name": "C4",
                    "midi": 60,
                    "time": 28.655579999999983,
                    "velocity": 0.5511811023622047,
                    "duration": 0.2387964999999994
                },
                {
                    "name": "D#4",
                    "midi": 63,
                    "time": 28.655579999999983,
                    "velocity": 0.5748031496062992,
                    "duration": 0.2387964999999994
                },
                {
                    "name": "G#4",
                    "midi": 68,
                    "time": 28.655579999999983,
                    "velocity": 0.5748031496062992,
                    "duration": 0.2387964999999994
                },
                {
                    "name": "C5",
                    "midi": 72,
                    "time": 28.655579999999983,
                    "velocity": 0.6771653543307087,
                    "duration": 0.2387964999999994
                },
                {
                    "name": "C4",
                    "midi": 60,
                    "time": 29.13317299999998,
                    "velocity": 0.5118110236220472,
                    "duration": 0.17909737500000134
                },
                {
                    "name": "D#4",
                    "midi": 63,
                    "time": 29.13317299999998,
                    "velocity": 0.48031496062992124,
                    "duration": 0.17909737500000134
                },
                {
                    "name": "G#4",
                    "midi": 68,
                    "time": 29.13317299999998,
                    "velocity": 0.5118110236220472,
                    "duration": 0.17909737500000134
                },
                {
                    "name": "C5",
                    "midi": 72,
                    "time": 29.13317299999998,
                    "velocity": 0.6062992125984252,
                    "duration": 0.17909737500000134
                },
                {
                    "name": "C5",
                    "midi": 72,
                    "time": 29.371969499999985,
                    "velocity": 0.5826771653543307,
                    "duration": 0.2387964999999994
                },
                {
                    "name": "C6",
                    "midi": 84,
                    "time": 29.371969499999985,
                    "velocity": 0.6929133858267716,
                    "duration": 0.2387964999999994
                },
                {
                    "name": "E4",
                    "midi": 64,
                    "time": 29.610765999999984,
                    "velocity": 0.5118110236220472,
                    "duration": 0.17909737500000134
                },
                {
                    "name": "A#4",
                    "midi": 70,
                    "time": 29.610765999999984,
                    "velocity": 0.5118110236220472,
                    "duration": 0.17909737500000134
                },
                {
                    "name": "C#5",
                    "midi": 73,
                    "time": 29.610765999999984,
                    "velocity": 0.5118110236220472,
                    "duration": 0.17909737500000134
                },
                {
                    "name": "E5",
                    "midi": 76,
                    "time": 29.610765999999984,
                    "velocity": 0.6062992125984252,
                    "duration": 0.17909737500000134
                },
                {
                    "name": "C#6",
                    "midi": 85,
                    "time": 29.849562499999987,
                    "velocity": 0.7007874015748031,
                    "duration": 0.2387964999999994
                },
                {
                    "name": "C#5",
                    "midi": 73,
                    "time": 29.849562499999987,
                    "velocity": 0.5984251968503937,
                    "duration": 0.2387964999999994
                },
                {
                    "name": "F4",
                    "midi": 65,
                    "time": 30.088358999999986,
                    "velocity": 0.5118110236220472,
                    "duration": 0.17909737500000134
                },
                {
                    "name": "G#4",
                    "midi": 68,
                    "time": 30.088358999999986,
                    "velocity": 0.5118110236220472,
                    "duration": 0.17909737500000134
                },
                {
                    "name": "C#5",
                    "midi": 73,
                    "time": 30.088358999999986,
                    "velocity": 0.5118110236220472,
                    "duration": 0.17909737500000134
                },
                {
                    "name": "F5",
                    "midi": 77,
                    "time": 30.088358999999986,
                    "velocity": 0.6062992125984252,
                    "duration": 0.17909737500000134
                },
                {
                    "name": "G#6",
                    "midi": 92,
                    "time": 30.32715549999999,
                    "velocity": 0.7007874015748031,
                    "duration": 0.2387964999999994
                },
                {
                    "name": "G#5",
                    "midi": 80,
                    "time": 30.32715549999999,
                    "velocity": 0.5984251968503937,
                    "duration": 0.2387964999999994
                },
                {
                    "name": "G4",
                    "midi": 67,
                    "time": 30.56595199999999,
                    "velocity": 0.5118110236220472,
                    "duration": 0.17909737500000134
                },
                {
                    "name": "C#5",
                    "midi": 73,
                    "time": 30.56595199999999,
                    "velocity": 0.5118110236220472,
                    "duration": 0.17909737500000134
                },
                {
                    "name": "F5",
                    "midi": 77,
                    "time": 30.56595199999999,
                    "velocity": 0.5118110236220472,
                    "duration": 0.17909737500000134
                },
                {
                    "name": "G5",
                    "midi": 79,
                    "time": 30.56595199999999,
                    "velocity": 0.6062992125984252,
                    "duration": 0.17909737500000134
                },
                {
                    "name": "G6",
                    "midi": 91,
                    "time": 30.80474849999999,
                    "velocity": 0.7007874015748031,
                    "duration": 0.2387964999999994
                },
                {
                    "name": "G5",
                    "midi": 79,
                    "time": 30.80474849999999,
                    "velocity": 0.5984251968503937,
                    "duration": 0.2387964999999994
                },
                {
                    "name": "B3",
                    "midi": 59,
                    "time": 31.04354499999999,
                    "velocity": 0.6062992125984252,
                    "duration": 0.2387964999999994
                },
                {
                    "name": "B4",
                    "midi": 71,
                    "time": 31.04354499999999,
                    "velocity": 0.7244094488188977,
                    "duration": 0.2387964999999994
                },
                {
                    "name": "F6",
                    "midi": 89,
                    "time": 31.52113799999999,
                    "velocity": 0.7244094488188977,
                    "duration": 0.29849562500000104
                },
                {
                    "name": "F5",
                    "midi": 77,
                    "time": 31.52113799999999,
                    "velocity": 0.7244094488188977,
                    "duration": 0.29849562500000104
                },
                {
                    "name": "D#6",
                    "midi": 87,
                    "time": 31.81963362499999,
                    "velocity": 0.6692913385826772,
                    "duration": 0.05969912500000163
                },
                {
                    "name": "C#6",
                    "midi": 85,
                    "time": 31.879332749999993,
                    "velocity": 0.6692913385826772,
                    "duration": 0.05969912500000163
                },
                {
                    "name": "G#5",
                    "midi": 80,
                    "time": 31.939031874999994,
                    "velocity": 0.6614173228346457,
                    "duration": 0.05969912500000163
                },
                {
                    "name": "F5",
                    "midi": 77,
                    "time": 31.998730999999996,
                    "velocity": 0.6535433070866141,
                    "duration": 0.05969912499999808
                },
                {
                    "name": "D#5",
                    "midi": 75,
                    "time": 32.058430124999994,
                    "velocity": 0.6535433070866141,
                    "duration": 0.05969912500000163
                },
                {
                    "name": "C#5",
                    "midi": 73,
                    "time": 32.118129249999996,
                    "velocity": 0.6456692913385826,
                    "duration": 0.05969912500000163
                },
                {
                    "name": "G#4",
                    "midi": 68,
                    "time": 32.177828375,
                    "velocity": 0.6377952755905512,
                    "duration": 0.05969912500000163
                },
                {
                    "name": "F5",
                    "midi": 77,
                    "time": 32.2375275,
                    "velocity": 0.6377952755905512,
                    "duration": 0.05969912500000163
                },
                {
                    "name": "D#5",
                    "midi": 75,
                    "time": 32.297226625,
                    "velocity": 0.6299212598425197,
                    "duration": 0.05969912500000163
                },
                {
                    "name": "C#5",
                    "midi": 73,
                    "time": 32.35692575,
                    "velocity": 0.6220472440944882,
                    "duration": 0.05969912500000163
                },
                {
                    "name": "G#4",
                    "midi": 68,
                    "time": 32.416624875000004,
                    "velocity": 0.6220472440944882,
                    "duration": 0.05969912500000163
                },
                {
                    "name": "F4",
                    "midi": 65,
                    "time": 32.476324000000005,
                    "velocity": 0.6141732283464567,
                    "duration": 0.05969912500000163
                },
                {
                    "name": "D#4",
                    "midi": 63,
                    "time": 32.53602312500001,
                    "velocity": 0.6062992125984252,
                    "duration": 0.05969912500000163
                },
                {
                    "name": "C#4",
                    "midi": 61,
                    "time": 32.59572225000001,
                    "velocity": 0.6062992125984252,
                    "duration": 0.05969912500000163
                },
                {
                    "name": "G#3",
                    "midi": 56,
                    "time": 32.65542137500001,
                    "velocity": 0.5984251968503937,
                    "duration": 0.05969912500000163
                },
                {
                    "name": "F3",
                    "midi": 53,
                    "time": 32.71512050000001,
                    "velocity": 0.5984251968503937,
                    "duration": 0.05969912500000163
                },
                {
                    "name": "D#3",
                    "midi": 51,
                    "time": 32.77481962500001,
                    "velocity": 0.5984251968503937,
                    "duration": 0.05969912500000163
                },
                {
                    "name": "C#3",
                    "midi": 49,
                    "time": 32.834518750000015,
                    "velocity": 0.5905511811023622,
                    "duration": 0.05969912500000163
                },
                {
                    "name": "G#2",
                    "midi": 44,
                    "time": 32.89421787500002,
                    "velocity": 0.6299212598425197,
                    "duration": 0.05969912500000163
                },
                {
                    "name": "F2",
                    "midi": 41,
                    "time": 32.95391700000002,
                    "velocity": 0.6929133858267716,
                    "duration": 0.09949854166666938
                },
                {
                    "name": "G2",
                    "midi": 43,
                    "time": 33.033515833333354,
                    "velocity": 0.6220472440944882,
                    "duration": 0.09949854166666938
                },
                {
                    "name": "F2",
                    "midi": 41,
                    "time": 33.11311466666669,
                    "velocity": 0.6535433070866141,
                    "duration": 0.09949854166666938
                },
                {
                    "name": "G2",
                    "midi": 43,
                    "time": 33.192713500000025,
                    "velocity": 0.5984251968503937,
                    "duration": 0.09949854166666938
                },
                {
                    "name": "F2",
                    "midi": 41,
                    "time": 33.27231233333336,
                    "velocity": 0.6220472440944882,
                    "duration": 0.09949854166666938
                },
                {
                    "name": "G2",
                    "midi": 43,
                    "time": 33.351911166666696,
                    "velocity": 0.5669291338582677,
                    "duration": 0.09949854166666938
                },
                {
                    "name": "F2",
                    "midi": 41,
                    "time": 33.43151000000003,
                    "velocity": 0.6220472440944882,
                    "duration": 0.0795988333333355
                },
                {
                    "name": "G2",
                    "midi": 43,
                    "time": 33.49120912500003,
                    "velocity": 0.5354330708661418,
                    "duration": 0.0795988333333355
                },
                {
                    "name": "F2",
                    "midi": 41,
                    "time": 33.550908250000035,
                    "velocity": 0.5826771653543307,
                    "duration": 0.0795988333333355
                },
                {
                    "name": "G2",
                    "midi": 43,
                    "time": 33.610607375000036,
                    "velocity": 0.5354330708661418,
                    "duration": 0.0795988333333355
                },
                {
                    "name": "F2",
                    "midi": 41,
                    "time": 33.67030650000004,
                    "velocity": 0.5984251968503937,
                    "duration": 0.0795988333333355
                },
                {
                    "name": "G2",
                    "midi": 43,
                    "time": 33.73000562500004,
                    "velocity": 0.5354330708661418,
                    "duration": 0.0795988333333355
                },
                {
                    "name": "F2",
                    "midi": 41,
                    "time": 33.78970475000004,
                    "velocity": 0.5905511811023622,
                    "duration": 0.0795988333333355
                },
                {
                    "name": "G2",
                    "midi": 43,
                    "time": 33.84940387500004,
                    "velocity": 0.5196850393700787,
                    "duration": 0.0795988333333355
                },
                {
                    "name": "E2",
                    "midi": 40,
                    "time": 33.909103000000044,
                    "velocity": 0.6377952755905512,
                    "duration": 0.03979941666666775
                },
                {
                    "name": "F2",
                    "midi": 41,
                    "time": 33.98870183333338,
                    "velocity": 0.5984251968503937,
                    "duration": 0.03979941666666775
                },
                {
                    "name": "C#3",
                    "midi": 49,
                    "time": 34.068300666666715,
                    "velocity": 0.6062992125984252,
                    "duration": 0.03979941666666775
                },
                {
                    "name": "C3",
                    "midi": 48,
                    "time": 34.14789950000005,
                    "velocity": 0.6614173228346457,
                    "duration": 0.03979941666666775
                },
                {
                    "name": "G2",
                    "midi": 43,
                    "time": 34.227498333333386,
                    "velocity": 0.6220472440944882,
                    "duration": 0.03979941666666775
                },
                {
                    "name": "B2",
                    "midi": 47,
                    "time": 34.30709716666672,
                    "velocity": 0.6377952755905512,
                    "duration": 0.03979941666666775
                },
                {
                    "name": "F#2",
                    "midi": 42,
                    "time": 34.38669600000006,
                    "velocity": 0.6929133858267716,
                    "duration": 0.03979941666666775
                },
                {
                    "name": "A#2",
                    "midi": 46,
                    "time": 34.46629483333339,
                    "velocity": 0.6614173228346457,
                    "duration": 0.03979941666666775
                },
                {
                    "name": "F2",
                    "midi": 41,
                    "time": 34.54589366666673,
                    "velocity": 0.6692913385826772,
                    "duration": 0.03979941666666775
                },
                {
                    "name": "A2",
                    "midi": 45,
                    "time": 34.625492500000064,
                    "velocity": 0.7244094488188977,
                    "duration": 0.03979941666666775
                },
                {
                    "name": "F2",
                    "midi": 41,
                    "time": 34.7050913333334,
                    "velocity": 0.7007874015748031,
                    "duration": 0.03979941666666775
                },
                {
                    "name": "G#2",
                    "midi": 44,
                    "time": 34.784690166666735,
                    "velocity": 0.7086614173228346,
                    "duration": 0.03979941666666775
                },
                {
                    "name": "C2",
                    "midi": 36,
                    "time": 34.86428900000007,
                    "velocity": 0.8582677165354331,
                    "duration": 0.2387964999999994
                },
                {
                    "name": "C3",
                    "midi": 48,
                    "time": 37.72984700000007,
                    "velocity": 0.6771653543307087,
                    "duration": 0.9551859999999976
                },
                {
                    "name": "G3",
                    "midi": 55,
                    "time": 37.72984700000007,
                    "velocity": 0.7244094488188977,
                    "duration": 0.9551859999999976
                },
                {
                    "name": "C4",
                    "midi": 60,
                    "time": 37.72984700000007,
                    "velocity": 0.8582677165354331,
                    "duration": 0.9551859999999976
                },
                {
                    "name": "C3",
                    "midi": 48,
                    "time": 38.68503300000007,
                    "velocity": 0.6062992125984252,
                    "duration": 1.9103720000000024
                },
                {
                    "name": "F3",
                    "midi": 53,
                    "time": 38.68503300000007,
                    "velocity": 0.6377952755905512,
                    "duration": 1.9103720000000024
                },
                {
                    "name": "G#3",
                    "midi": 56,
                    "time": 38.68503300000007,
                    "velocity": 0.7716535433070866,
                    "duration": 1.9103720000000024
                },
                {
                    "name": "C4",
                    "midi": 60,
                    "time": 38.68503300000007,
                    "velocity": 0.7716535433070866,
                    "duration": 1.9103720000000024
                }
            ],
            "controlChanges": {
                "7": [
                    {
                        "number": 7,
                        "time": 0,
                        "value": 0.7874015748031497
                    }
                ],
                "10": [
                    {
                        "number": 10,
                        "time": 0,
                        "value": 0.5039370078740157
                    }
                ]
            },
            "id": 1,
            "name": "Piano right",
            "instrumentNumber": 0,
            "instrument": "acoustic grand piano",
            "instrumentFamily": "piano",
            "channelNumber": 0,
            "isPercussion": false
        },
        {
            "startTime": 1.1939825,
            "duration": 40.59540500000005,
            "length": 241,
            "notes": [
                {
                    "name": "C2",
                    "midi": 36,
                    "time": 1.1939825,
                    "velocity": 0.23622047244094488,
                    "duration": 0.22685667500000006
                },
                {
                    "name": "C#3",
                    "midi": 49,
                    "time": 1.1939825,
                    "velocity": 0.2755905511811024,
                    "duration": 0.22685667500000006
                },
                {
                    "name": "C#3",
                    "midi": 49,
                    "time": 1.432779,
                    "velocity": 0.2755905511811024,
                    "duration": 0.22685667500000006
                },
                {
                    "name": "C2",
                    "midi": 36,
                    "time": 1.432779,
                    "velocity": 0.23622047244094488,
                    "duration": 0.22685667500000006
                },
                {
                    "name": "C2",
                    "midi": 36,
                    "time": 3.1043545000000003,
                    "velocity": 0.23622047244094488,
                    "duration": 0.22685667500000006
                },
                {
                    "name": "C#3",
                    "midi": 49,
                    "time": 3.1043545000000003,
                    "velocity": 0.2755905511811024,
                    "duration": 0.22685667500000006
                },
                {
                    "name": "C2",
                    "midi": 36,
                    "time": 3.343151,
                    "velocity": 0.23622047244094488,
                    "duration": 0.22685667500000006
                },
                {
                    "name": "C#3",
                    "midi": 49,
                    "time": 3.343151,
                    "velocity": 0.2755905511811024,
                    "duration": 0.22685667500000006
                },
                {
                    "name": "A#3",
                    "midi": 58,
                    "time": 5.0147265,
                    "velocity": 0.3858267716535433,
                    "duration": 0.1193982499999997
                },
                {
                    "name": "G#3",
                    "midi": 56,
                    "time": 5.13412475,
                    "velocity": 0.3700787401574803,
                    "duration": 0.1193982499999997
                },
                {
                    "name": "F#3",
                    "midi": 54,
                    "time": 5.2535229999999995,
                    "velocity": 0.3779527559055118,
                    "duration": 0.1193982499999997
                },
                {
                    "name": "G3",
                    "midi": 55,
                    "time": 5.372921249999999,
                    "velocity": 0.41732283464566927,
                    "duration": 0.1193982499999997
                },
                {
                    "name": "C#4",
                    "midi": 61,
                    "time": 5.492319499999999,
                    "velocity": 0.4409448818897638,
                    "duration": 0.1193982499999997
                },
                {
                    "name": "C4",
                    "midi": 60,
                    "time": 5.611717749999999,
                    "velocity": 0.41732283464566927,
                    "duration": 0.1193982499999997
                },
                {
                    "name": "A3",
                    "midi": 57,
                    "time": 5.731115999999998,
                    "velocity": 0.4409448818897638,
                    "duration": 0.1193982499999997
                },
                {
                    "name": "A#3",
                    "midi": 58,
                    "time": 5.850514249999998,
                    "velocity": 0.4251968503937008,
                    "duration": 0.1193982499999997
                },
                {
                    "name": "C#5",
                    "midi": 73,
                    "time": 5.969912499999998,
                    "velocity": 0.44881889763779526,
                    "duration": 0.12934810416666664
                },
                {
                    "name": "G4",
                    "midi": 67,
                    "time": 6.089310749999997,
                    "velocity": 0.4251968503937008,
                    "duration": 0.12934810416666753
                },
                {
                    "name": "C5",
                    "midi": 72,
                    "time": 6.208708999999998,
                    "velocity": 0.41732283464566927,
                    "duration": 0.12934810416666753
                },
                {
                    "name": "A#4",
                    "midi": 70,
                    "time": 6.328107249999999,
                    "velocity": 0.4094488188976378,
                    "duration": 0.12934810416666753
                },
                {
                    "name": "G#4",
                    "midi": 68,
                    "time": 6.447505499999999,
                    "velocity": 0.4015748031496063,
                    "duration": 0.12934810416666753
                },
                {
                    "name": "G4",
                    "midi": 67,
                    "time": 6.56690375,
                    "velocity": 0.3937007874015748,
                    "duration": 0.12934810416666753
                },
                {
                    "name": "F4",
                    "midi": 65,
                    "time": 6.686302,
                    "velocity": 0.3858267716535433,
                    "duration": 0.12934810416666753
                },
                {
                    "name": "E4",
                    "midi": 64,
                    "time": 6.805700250000001,
                    "velocity": 0.3779527559055118,
                    "duration": 0.12934810416666753
                },
                {
                    "name": "G4",
                    "midi": 67,
                    "time": 6.925098500000002,
                    "velocity": 0.3700787401574803,
                    "duration": 0.12934810416666753
                },
                {
                    "name": "A#3",
                    "midi": 58,
                    "time": 7.044496750000002,
                    "velocity": 0.3700787401574803,
                    "duration": 0.12934810416666753
                },
                {
                    "name": "B3",
                    "midi": 59,
                    "time": 7.163895000000003,
                    "velocity": 0.36220472440944884,
                    "duration": 0.09551860000000012
                },
                {
                    "name": "C4",
                    "midi": 60,
                    "time": 7.259413600000003,
                    "velocity": 0.33070866141732286,
                    "duration": 0.09551860000000012
                },
                {
                    "name": "C#4",
                    "midi": 61,
                    "time": 7.354932200000003,
                    "velocity": 0.3543307086614173,
                    "duration": 0.09551860000000012
                },
                {
                    "name": "G3",
                    "midi": 55,
                    "time": 7.450450800000003,
                    "velocity": 0.3464566929133858,
                    "duration": 0.09551860000000012
                },
                {
                    "name": "C4",
                    "midi": 60,
                    "time": 7.545969400000003,
                    "velocity": 0.33858267716535434,
                    "duration": 0.09551860000000012
                },
                {
                    "name": "A#3",
                    "midi": 58,
                    "time": 7.641488000000003,
                    "velocity": 0.3700787401574803,
                    "duration": 0.12934810416666664
                },
                {
                    "name": "A3",
                    "midi": 57,
                    "time": 7.760886250000003,
                    "velocity": 0.33858267716535434,
                    "duration": 0.12934810416666664
                },
                {
                    "name": "F#3",
                    "midi": 54,
                    "time": 8.835470500000003,
                    "velocity": 0.2992125984251969,
                    "duration": 0.2268566750000005
                },
                {
                    "name": "F2",
                    "midi": 41,
                    "time": 8.835470500000003,
                    "velocity": 0.25984251968503935,
                    "duration": 0.2268566750000005
                },
                {
                    "name": "F#3",
                    "midi": 54,
                    "time": 9.074267000000004,
                    "velocity": 0.2992125984251969,
                    "duration": 0.2268566750000005
                },
                {
                    "name": "F2",
                    "midi": 41,
                    "time": 9.074267000000004,
                    "velocity": 0.25984251968503935,
                    "duration": 0.2268566750000005
                },
                {
                    "name": "F2",
                    "midi": 41,
                    "time": 10.745842500000006,
                    "velocity": 0.25984251968503935,
                    "duration": 0.2268566750000005
                },
                {
                    "name": "F#3",
                    "midi": 54,
                    "time": 10.745842500000006,
                    "velocity": 0.2992125984251969,
                    "duration": 0.2268566750000005
                },
                {
                    "name": "F#3",
                    "midi": 54,
                    "time": 10.984639000000007,
                    "velocity": 0.2992125984251969,
                    "duration": 0.2268566750000005
                },
                {
                    "name": "F2",
                    "midi": 41,
                    "time": 10.984639000000007,
                    "velocity": 0.25984251968503935,
                    "duration": 0.2268566750000005
                },
                {
                    "name": "C4",
                    "midi": 60,
                    "time": 12.178621500000007,
                    "velocity": 0.3779527559055118,
                    "duration": 0.12934810416666664
                },
                {
                    "name": "A#3",
                    "midi": 58,
                    "time": 12.298019750000007,
                    "velocity": 0.3937007874015748,
                    "duration": 0.12934810416666664
                },
                {
                    "name": "G#3",
                    "midi": 56,
                    "time": 12.417418000000007,
                    "velocity": 0.4251968503937008,
                    "duration": 0.12934810416666664
                },
                {
                    "name": "A3",
                    "midi": 57,
                    "time": 12.536816250000006,
                    "velocity": 0.3858267716535433,
                    "duration": 0.12934810416666664
                },
                {
                    "name": "F#4",
                    "midi": 66,
                    "time": 12.656214500000006,
                    "velocity": 0.41732283464566927,
                    "duration": 0.12934810416666664
                },
                {
                    "name": "F4",
                    "midi": 65,
                    "time": 12.775612750000006,
                    "velocity": 0.3858267716535433,
                    "duration": 0.12934810416666664
                },
                {
                    "name": "D4",
                    "midi": 62,
                    "time": 12.895011000000006,
                    "velocity": 0.3937007874015748,
                    "duration": 0.12934810416666664
                },
                {
                    "name": "D#4",
                    "midi": 63,
                    "time": 13.014409250000005,
                    "velocity": 0.4251968503937008,
                    "duration": 0.12934810416666664
                },
                {
                    "name": "C#5",
                    "midi": 73,
                    "time": 13.133807500000005,
                    "velocity": 0.44881889763779526,
                    "duration": 0.12934810416666664
                },
                {
                    "name": "C5",
                    "midi": 72,
                    "time": 13.253205750000005,
                    "velocity": 0.4251968503937008,
                    "duration": 0.12934810416666664
                },
                {
                    "name": "A#4",
                    "midi": 70,
                    "time": 13.372604000000004,
                    "velocity": 0.44881889763779526,
                    "duration": 0.12934810416666664
                },
                {
                    "name": "A4",
                    "midi": 69,
                    "time": 13.492002250000004,
                    "velocity": 0.4094488188976378,
                    "duration": 0.12934810416666664
                },
                {
                    "name": "D#5",
                    "midi": 75,
                    "time": 13.611400500000004,
                    "velocity": 0.4409448818897638,
                    "duration": 0.12934810416666664
                },
                {
                    "name": "E4",
                    "midi": 64,
                    "time": 13.730798750000003,
                    "velocity": 0.41732283464566927,
                    "duration": 0.12934810416666664
                },
                {
                    "name": "F4",
                    "midi": 65,
                    "time": 13.850197000000003,
                    "velocity": 0.4645669291338583,
                    "duration": 0.12934810416666664
                },
                {
                    "name": "F#4",
                    "midi": 66,
                    "time": 13.969595250000003,
                    "velocity": 0.47244094488188976,
                    "duration": 0.12934810416666664
                },
                {
                    "name": "C4",
                    "midi": 60,
                    "time": 14.088993500000003,
                    "velocity": 0.44881889763779526,
                    "duration": 0.12934810416666664
                },
                {
                    "name": "C#4",
                    "midi": 61,
                    "time": 14.208391750000002,
                    "velocity": 0.4330708661417323,
                    "duration": 0.12934810416666664
                },
                {
                    "name": "F4",
                    "midi": 65,
                    "time": 14.327790000000002,
                    "velocity": 0.5039370078740157,
                    "duration": 0.12934810416666664
                },
                {
                    "name": "D#4",
                    "midi": 63,
                    "time": 14.447188250000002,
                    "velocity": 0.4881889763779528,
                    "duration": 0.12934810416666664
                },
                {
                    "name": "C#4",
                    "midi": 61,
                    "time": 14.566586500000001,
                    "velocity": 0.47244094488188976,
                    "duration": 0.12934810416666664
                },
                {
                    "name": "C4",
                    "midi": 60,
                    "time": 14.685984750000001,
                    "velocity": 0.47244094488188976,
                    "duration": 0.12934810416666664
                },
                {
                    "name": "A#3",
                    "midi": 58,
                    "time": 14.805383,
                    "velocity": 0.5354330708661418,
                    "duration": 0.09551860000000012
                },
                {
                    "name": "A3",
                    "midi": 57,
                    "time": 14.900901600000001,
                    "velocity": 0.49606299212598426,
                    "duration": 0.09551860000000012
                },
                {
                    "name": "C4",
                    "midi": 60,
                    "time": 14.996420200000001,
                    "velocity": 0.5118110236220472,
                    "duration": 0.09551860000000012
                },
                {
                    "name": "E3",
                    "midi": 52,
                    "time": 15.091938800000001,
                    "velocity": 0.5196850393700787,
                    "duration": 0.09551860000000012
                },
                {
                    "name": "F3",
                    "midi": 53,
                    "time": 15.187457400000001,
                    "velocity": 0.5275590551181102,
                    "duration": 0.09551860000000012
                },
                {
                    "name": "F#3",
                    "midi": 54,
                    "time": 15.282976000000001,
                    "velocity": 0.5354330708661418,
                    "duration": 0.09551860000000012
                },
                {
                    "name": "C3",
                    "midi": 48,
                    "time": 15.378494600000002,
                    "velocity": 0.5354330708661418,
                    "duration": 0.09551860000000012
                },
                {
                    "name": "F3",
                    "midi": 53,
                    "time": 15.474013200000002,
                    "velocity": 0.5433070866141733,
                    "duration": 0.09551860000000012
                },
                {
                    "name": "D#3",
                    "midi": 51,
                    "time": 15.569531800000002,
                    "velocity": 0.5511811023622047,
                    "duration": 0.09551860000000012
                },
                {
                    "name": "C#3",
                    "midi": 49,
                    "time": 15.665050400000002,
                    "velocity": 0.5590551181102362,
                    "duration": 0.09551860000000012
                },
                {
                    "name": "C3",
                    "midi": 48,
                    "time": 15.760569000000002,
                    "velocity": 0.6692913385826772,
                    "duration": 0.2387964999999994
                },
                {
                    "name": "A#2",
                    "midi": 46,
                    "time": 15.999365500000001,
                    "velocity": 0.6299212598425197,
                    "duration": 0.2387965000000012
                },
                {
                    "name": "A#1",
                    "midi": 34,
                    "time": 16.238162000000003,
                    "velocity": 0.5039370078740157,
                    "duration": 0.2387964999999994
                },
                {
                    "name": "A#2",
                    "midi": 46,
                    "time": 16.238162000000003,
                    "velocity": 0.5826771653543307,
                    "duration": 0.2387964999999994
                },
                {
                    "name": "C#4",
                    "midi": 61,
                    "time": 16.715755,
                    "velocity": 0.4251968503937008,
                    "duration": 0.1193982499999997
                },
                {
                    "name": "G3",
                    "midi": 55,
                    "time": 16.83515325,
                    "velocity": 0.4409448818897638,
                    "duration": 0.1193982499999997
                },
                {
                    "name": "G#3",
                    "midi": 56,
                    "time": 16.9545515,
                    "velocity": 0.4645669291338583,
                    "duration": 0.1193982499999997
                },
                {
                    "name": "A3",
                    "midi": 57,
                    "time": 17.07394975,
                    "velocity": 0.48031496062992124,
                    "duration": 0.1193982499999997
                },
                {
                    "name": "C4",
                    "midi": 60,
                    "time": 17.193348,
                    "velocity": 0.5196850393700787,
                    "duration": 0.1193982499999997
                },
                {
                    "name": "A#3",
                    "midi": 58,
                    "time": 17.31274625,
                    "velocity": 0.5511811023622047,
                    "duration": 0.1193982499999997
                },
                {
                    "name": "G#3",
                    "midi": 56,
                    "time": 17.4321445,
                    "velocity": 0.5748031496062992,
                    "duration": 0.1193982499999997
                },
                {
                    "name": "G3",
                    "midi": 55,
                    "time": 17.55154275,
                    "velocity": 0.6062992125984252,
                    "duration": 0.1193982499999997
                },
                {
                    "name": "F3",
                    "midi": 53,
                    "time": 17.670941,
                    "velocity": 0.6377952755905512,
                    "duration": 0.1193982499999997
                },
                {
                    "name": "E3",
                    "midi": 52,
                    "time": 17.79033925,
                    "velocity": 0.6220472440944882,
                    "duration": 0.1193982499999997
                },
                {
                    "name": "A#2",
                    "midi": 46,
                    "time": 18.148533999999998,
                    "velocity": 0.6141732283464567,
                    "duration": 0.2387964999999994
                },
                {
                    "name": "A#1",
                    "midi": 34,
                    "time": 18.148533999999998,
                    "velocity": 0.5354330708661418,
                    "duration": 0.2387964999999994
                },
                {
                    "name": "G#4",
                    "midi": 68,
                    "time": 18.626126999999997,
                    "velocity": 0.5826771653543307,
                    "duration": 0.1193982499999997
                },
                {
                    "name": "A#3",
                    "midi": 58,
                    "time": 18.745525249999996,
                    "velocity": 0.5118110236220472,
                    "duration": 0.1193982499999997
                },
                {
                    "name": "G#4",
                    "midi": 68,
                    "time": 18.864923499999996,
                    "velocity": 0.5590551181102362,
                    "duration": 0.1193982499999997
                },
                {
                    "name": "G4",
                    "midi": 67,
                    "time": 18.984321749999996,
                    "velocity": 0.5354330708661418,
                    "duration": 0.1193982499999997
                },
                {
                    "name": "E4",
                    "midi": 64,
                    "time": 19.103719999999996,
                    "velocity": 0.5196850393700787,
                    "duration": 0.1193982499999997
                },
                {
                    "name": "C#4",
                    "midi": 61,
                    "time": 19.223118249999995,
                    "velocity": 0.4881889763779528,
                    "duration": 0.1193982499999997
                },
                {
                    "name": "A#3",
                    "midi": 58,
                    "time": 19.342516499999995,
                    "velocity": 0.47244094488188976,
                    "duration": 0.1193982499999997
                },
                {
                    "name": "G3",
                    "midi": 55,
                    "time": 19.461914749999995,
                    "velocity": 0.4566929133858268,
                    "duration": 0.1193982499999997
                },
                {
                    "name": "E3",
                    "midi": 52,
                    "time": 19.581312999999994,
                    "velocity": 0.4566929133858268,
                    "duration": 0.1193982499999997
                },
                {
                    "name": "F3",
                    "midi": 53,
                    "time": 19.700711249999994,
                    "velocity": 0.44881889763779526,
                    "duration": 0.1193982499999997
                },
                {
                    "name": "G#2",
                    "midi": 44,
                    "time": 20.058905999999993,
                    "velocity": 0.6377952755905512,
                    "duration": 0.2387964999999994
                },
                {
                    "name": "G#1",
                    "midi": 32,
                    "time": 20.058905999999993,
                    "velocity": 0.5354330708661418,
                    "duration": 0.2387964999999994
                },
                {
                    "name": "C5",
                    "midi": 72,
                    "time": 20.536498999999992,
                    "velocity": 0.5984251968503937,
                    "duration": 0.11939825000000326
                },
                {
                    "name": "F4",
                    "midi": 65,
                    "time": 20.655897249999995,
                    "velocity": 0.5669291338582677,
                    "duration": 0.1193982499999997
                },
                {
                    "name": "F#4",
                    "midi": 66,
                    "time": 20.775295499999995,
                    "velocity": 0.5826771653543307,
                    "duration": 0.1193982499999997
                },
                {
                    "name": "G4",
                    "midi": 67,
                    "time": 20.894693749999995,
                    "velocity": 0.5669291338582677,
                    "duration": 0.1193982499999997
                },
                {
                    "name": "A#4",
                    "midi": 70,
                    "time": 21.014091999999994,
                    "velocity": 0.5275590551181102,
                    "duration": 0.09551859999999834
                },
                {
                    "name": "G#4",
                    "midi": 68,
                    "time": 21.109610599999993,
                    "velocity": 0.5196850393700787,
                    "duration": 0.09551859999999834
                },
                {
                    "name": "F4",
                    "midi": 65,
                    "time": 21.20512919999999,
                    "velocity": 0.49606299212598426,
                    "duration": 0.09551859999999834
                },
                {
                    "name": "C#4",
                    "midi": 61,
                    "time": 21.30064779999999,
                    "velocity": 0.47244094488188976,
                    "duration": 0.09551859999999834
                },
                {
                    "name": "C4",
                    "midi": 60,
                    "time": 21.396166399999988,
                    "velocity": 0.4645669291338583,
                    "duration": 0.09551859999999834
                },
                {
                    "name": "C4",
                    "midi": 60,
                    "time": 21.491684999999986,
                    "velocity": 0.4566929133858268,
                    "duration": 0.1193982499999997
                },
                {
                    "name": "B3",
                    "midi": 59,
                    "time": 21.611083249999986,
                    "velocity": 0.44881889763779526,
                    "duration": 0.1193982499999997
                },
                {
                    "name": "F2",
                    "midi": 41,
                    "time": 21.969277999999985,
                    "velocity": 0.5905511811023622,
                    "duration": 0.2387964999999994
                },
                {
                    "name": "F1",
                    "midi": 29,
                    "time": 21.969277999999985,
                    "velocity": 0.5354330708661418,
                    "duration": 0.2387964999999994
                },
                {
                    "name": "G#5",
                    "midi": 80,
                    "time": 22.446870999999984,
                    "velocity": 0.5590551181102362,
                    "duration": 0.05969912500000163
                },
                {
                    "name": "D5",
                    "midi": 74,
                    "time": 22.506570124999985,
                    "velocity": 0.5511811023622047,
                    "duration": 0.05969912500000163
                },
                {
                    "name": "D#5",
                    "midi": 75,
                    "time": 22.566269249999987,
                    "velocity": 0.5511811023622047,
                    "duration": 0.05969912500000163
                },
                {
                    "name": "E5",
                    "midi": 76,
                    "time": 22.62596837499999,
                    "velocity": 0.5511811023622047,
                    "duration": 0.05969912500000163
                },
                {
                    "name": "G5",
                    "midi": 79,
                    "time": 22.68566749999999,
                    "velocity": 0.5433070866141733,
                    "duration": 0.05969912500000163
                },
                {
                    "name": "F5",
                    "midi": 77,
                    "time": 22.745366624999992,
                    "velocity": 0.5433070866141733,
                    "duration": 0.05969912500000163
                },
                {
                    "name": "D5",
                    "midi": 74,
                    "time": 22.805065749999994,
                    "velocity": 0.5354330708661418,
                    "duration": 0.05969912500000163
                },
                {
                    "name": "B4",
                    "midi": 71,
                    "time": 22.864764874999995,
                    "velocity": 0.5196850393700787,
                    "duration": 0.05969912500000163
                },
                {
                    "name": "G4",
                    "midi": 67,
                    "time": 22.924463999999997,
                    "velocity": 0.5196850393700787,
                    "duration": 0.05969912500000163
                },
                {
                    "name": "G#4",
                    "midi": 68,
                    "time": 22.984163125,
                    "velocity": 0.5118110236220472,
                    "duration": 0.05969912500000163
                },
                {
                    "name": "F4",
                    "midi": 65,
                    "time": 23.04386225,
                    "velocity": 0.5039370078740157,
                    "duration": 0.05969912500000163
                },
                {
                    "name": "D4",
                    "midi": 62,
                    "time": 23.103561375,
                    "velocity": 0.49606299212598426,
                    "duration": 0.05969912500000163
                },
                {
                    "name": "B3",
                    "midi": 59,
                    "time": 23.163260500000003,
                    "velocity": 0.49606299212598426,
                    "duration": 0.04775929999999917
                },
                {
                    "name": "G3",
                    "midi": 55,
                    "time": 23.211019800000003,
                    "velocity": 0.49606299212598426,
                    "duration": 0.04775929999999917
                },
                {
                    "name": "G#3",
                    "midi": 56,
                    "time": 23.2587791,
                    "velocity": 0.49606299212598426,
                    "duration": 0.04775929999999917
                },
                {
                    "name": "F3",
                    "midi": 53,
                    "time": 23.3065384,
                    "velocity": 0.4881889763779528,
                    "duration": 0.04775929999999917
                },
                {
                    "name": "D3",
                    "midi": 50,
                    "time": 23.3542977,
                    "velocity": 0.4881889763779528,
                    "duration": 0.04775929999999917
                },
                {
                    "name": "B2",
                    "midi": 47,
                    "time": 23.402057,
                    "velocity": 0.5275590551181102,
                    "duration": 0.1193982499999997
                },
                {
                    "name": "C3",
                    "midi": 48,
                    "time": 23.52145525,
                    "velocity": 0.4645669291338583,
                    "duration": 0.1193982499999997
                },
                {
                    "name": "F3",
                    "midi": 53,
                    "time": 23.6408535,
                    "velocity": 0.47244094488188976,
                    "duration": 0.1193982499999997
                },
                {
                    "name": "D#3",
                    "midi": 51,
                    "time": 23.76025175,
                    "velocity": 0.4566929133858268,
                    "duration": 0.1193982499999997
                },
                {
                    "name": "G#2",
                    "midi": 44,
                    "time": 23.879649999999998,
                    "velocity": 0.47244094488188976,
                    "duration": 0.23879649999999586
                },
                {
                    "name": "D#2",
                    "midi": 39,
                    "time": 23.879649999999998,
                    "velocity": 0.47244094488188976,
                    "duration": 0.23879649999999586
                },
                {
                    "name": "D#3",
                    "midi": 51,
                    "time": 23.879649999999998,
                    "velocity": 0.5039370078740157,
                    "duration": 0.23879649999999586
                },
                {
                    "name": "D3",
                    "midi": 50,
                    "time": 24.357242999999993,
                    "velocity": 0.44881889763779526,
                    "duration": 0.15919766666666746
                },
                {
                    "name": "D4",
                    "midi": 62,
                    "time": 24.357242999999993,
                    "velocity": 0.5433070866141733,
                    "duration": 0.15919766666666746
                },
                {
                    "name": "C#4",
                    "midi": 61,
                    "time": 24.51644066666666,
                    "velocity": 0.44881889763779526,
                    "duration": 0.15919766666666746
                },
                {
                    "name": "C#3",
                    "midi": 49,
                    "time": 24.51644066666666,
                    "velocity": 0.3858267716535433,
                    "duration": 0.15919766666666746
                },
                {
                    "name": "C4",
                    "midi": 60,
                    "time": 24.67563833333333,
                    "velocity": 0.44881889763779526,
                    "duration": 0.14327790000000107
                },
                {
                    "name": "C3",
                    "midi": 48,
                    "time": 24.67563833333333,
                    "velocity": 0.3779527559055118,
                    "duration": 0.14327790000000107
                },
                {
                    "name": "C3",
                    "midi": 48,
                    "time": 24.834835999999996,
                    "velocity": 0.3700787401574803,
                    "duration": 0.14327790000000107
                },
                {
                    "name": "C4",
                    "midi": 60,
                    "time": 24.834835999999996,
                    "velocity": 0.44881889763779526,
                    "duration": 0.14327790000000107
                },
                {
                    "name": "C3",
                    "midi": 48,
                    "time": 24.994033666666663,
                    "velocity": 0.3700787401574803,
                    "duration": 0.14327790000000107
                },
                {
                    "name": "C4",
                    "midi": 60,
                    "time": 24.994033666666663,
                    "velocity": 0.4330708661417323,
                    "duration": 0.14327790000000107
                },
                {
                    "name": "C3",
                    "midi": 48,
                    "time": 25.15323133333333,
                    "velocity": 0.3543307086614173,
                    "duration": 0.14327790000000107
                },
                {
                    "name": "C4",
                    "midi": 60,
                    "time": 25.15323133333333,
                    "velocity": 0.4251968503937008,
                    "duration": 0.14327790000000107
                },
                {
                    "name": "B2",
                    "midi": 47,
                    "time": 25.312428999999998,
                    "velocity": 0.4645669291338583,
                    "duration": 0.1193982499999997
                },
                {
                    "name": "C3",
                    "midi": 48,
                    "time": 25.431827249999998,
                    "velocity": 0.44881889763779526,
                    "duration": 0.1193982499999997
                },
                {
                    "name": "F3",
                    "midi": 53,
                    "time": 25.551225499999997,
                    "velocity": 0.4645669291338583,
                    "duration": 0.1193982499999997
                },
                {
                    "name": "E3",
                    "midi": 52,
                    "time": 25.670623749999997,
                    "velocity": 0.4409448818897638,
                    "duration": 0.1193982499999997
                },
                {
                    "name": "E2",
                    "midi": 40,
                    "time": 25.790021999999997,
                    "velocity": 0.47244094488188976,
                    "duration": 0.2387964999999994
                },
                {
                    "name": "C3",
                    "midi": 48,
                    "time": 25.790021999999997,
                    "velocity": 0.47244094488188976,
                    "duration": 0.2387964999999994
                },
                {
                    "name": "E3",
                    "midi": 52,
                    "time": 25.790021999999997,
                    "velocity": 0.5354330708661418,
                    "duration": 0.2387964999999994
                },
                {
                    "name": "D3",
                    "midi": 50,
                    "time": 26.267614999999996,
                    "velocity": 0.48031496062992124,
                    "duration": 0.15919766666666746
                },
                {
                    "name": "D4",
                    "midi": 62,
                    "time": 26.267614999999996,
                    "velocity": 0.5748031496062992,
                    "duration": 0.15919766666666746
                },
                {
                    "name": "C#4",
                    "midi": 61,
                    "time": 26.426812666666663,
                    "velocity": 0.5118110236220472,
                    "duration": 0.15919766666666746
                },
                {
                    "name": "C#3",
                    "midi": 49,
                    "time": 26.426812666666663,
                    "velocity": 0.4251968503937008,
                    "duration": 0.15919766666666746
                },
                {
                    "name": "C3",
                    "midi": 48,
                    "time": 26.58601033333333,
                    "velocity": 0.41732283464566927,
                    "duration": 0.14327790000000107
                },
                {
                    "name": "C4",
                    "midi": 60,
                    "time": 26.58601033333333,
                    "velocity": 0.49606299212598426,
                    "duration": 0.14327790000000107
                },
                {
                    "name": "C4",
                    "midi": 60,
                    "time": 26.745207999999998,
                    "velocity": 0.4566929133858268,
                    "duration": 0.10745842499999725
                },
                {
                    "name": "C3",
                    "midi": 48,
                    "time": 26.745207999999998,
                    "velocity": 0.3937007874015748,
                    "duration": 0.10745842499999725
                },
                {
                    "name": "C3",
                    "midi": 48,
                    "time": 26.864606249999994,
                    "velocity": 0.3937007874015748,
                    "duration": 0.1074584250000008
                },
                {
                    "name": "C4",
                    "midi": 60,
                    "time": 26.864606249999994,
                    "velocity": 0.4566929133858268,
                    "duration": 0.1074584250000008
                },
                {
                    "name": "C3",
                    "midi": 48,
                    "time": 26.984004499999994,
                    "velocity": 0.3779527559055118,
                    "duration": 0.1074584250000008
                },
                {
                    "name": "C4",
                    "midi": 60,
                    "time": 26.984004499999994,
                    "velocity": 0.44881889763779526,
                    "duration": 0.1074584250000008
                },
                {
                    "name": "C4",
                    "midi": 60,
                    "time": 27.103402749999994,
                    "velocity": 0.44881889763779526,
                    "duration": 0.1074584250000008
                },
                {
                    "name": "C3",
                    "midi": 48,
                    "time": 27.103402749999994,
                    "velocity": 0.3779527559055118,
                    "duration": 0.1074584250000008
                },
                {
                    "name": "B2",
                    "midi": 47,
                    "time": 27.222800999999993,
                    "velocity": 0.49606299212598426,
                    "duration": 0.1193982499999997
                },
                {
                    "name": "C3",
                    "midi": 48,
                    "time": 27.342199249999993,
                    "velocity": 0.47244094488188976,
                    "duration": 0.1193982499999997
                },
                {
                    "name": "G3",
                    "midi": 55,
                    "time": 27.461597499999993,
                    "velocity": 0.49606299212598426,
                    "duration": 0.1193982499999997
                },
                {
                    "name": "F3",
                    "midi": 53,
                    "time": 27.580995749999992,
                    "velocity": 0.4645669291338583,
                    "duration": 0.1193982499999997
                },
                {
                    "name": "G#3",
                    "midi": 56,
                    "time": 27.700393999999992,
                    "velocity": 0.5826771653543307,
                    "duration": 0.2387964999999994
                },
                {
                    "name": "F2",
                    "midi": 41,
                    "time": 27.700393999999992,
                    "velocity": 0.5039370078740157,
                    "duration": 0.2387964999999994
                },
                {
                    "name": "C3",
                    "midi": 48,
                    "time": 27.700393999999992,
                    "velocity": 0.5039370078740157,
                    "duration": 0.2387964999999994
                },
                {
                    "name": "B2",
                    "midi": 47,
                    "time": 28.17798699999999,
                    "velocity": 0.49606299212598426,
                    "duration": 0.1193982499999997
                },
                {
                    "name": "C3",
                    "midi": 48,
                    "time": 28.29738524999999,
                    "velocity": 0.47244094488188976,
                    "duration": 0.1193982499999997
                },
                {
                    "name": "A#3",
                    "midi": 58,
                    "time": 28.41678349999999,
                    "velocity": 0.49606299212598426,
                    "duration": 0.11939825000000326
                },
                {
                    "name": "G#3",
                    "midi": 56,
                    "time": 28.536181749999994,
                    "velocity": 0.4645669291338583,
                    "duration": 0.1193982499999997
                },
                {
                    "name": "F#2",
                    "midi": 42,
                    "time": 28.655579999999993,
                    "velocity": 0.4881889763779528,
                    "duration": 0.2387964999999994
                },
                {
                    "name": "F#3",
                    "midi": 54,
                    "time": 28.655579999999993,
                    "velocity": 0.5511811023622047,
                    "duration": 0.2387964999999994
                },
                {
                    "name": "G#2",
                    "midi": 44,
                    "time": 28.655579999999993,
                    "velocity": 0.5039370078740157,
                    "duration": 0.2387964999999994
                },
                {
                    "name": "F#2",
                    "midi": 42,
                    "time": 29.133172999999992,
                    "velocity": 0.4251968503937008,
                    "duration": 0.17909737500000134
                },
                {
                    "name": "F#3",
                    "midi": 54,
                    "time": 29.133172999999992,
                    "velocity": 0.5039370078740157,
                    "duration": 0.17909737500000134
                },
                {
                    "name": "G#2",
                    "midi": 44,
                    "time": 29.133172999999992,
                    "velocity": 0.4251968503937008,
                    "duration": 0.17909737500000134
                },
                {
                    "name": "C3",
                    "midi": 48,
                    "time": 29.371969499999995,
                    "velocity": 0.44881889763779526,
                    "duration": 0.2387964999999994
                },
                {
                    "name": "C4",
                    "midi": 60,
                    "time": 29.371969499999995,
                    "velocity": 0.5511811023622047,
                    "duration": 0.2387964999999994
                },
                {
                    "name": "G3",
                    "midi": 55,
                    "time": 29.610765999999995,
                    "velocity": 0.5039370078740157,
                    "duration": 0.17909737499999778
                },
                {
                    "name": "G2",
                    "midi": 43,
                    "time": 29.610765999999995,
                    "velocity": 0.4251968503937008,
                    "duration": 0.17909737499999778
                },
                {
                    "name": "C#4",
                    "midi": 61,
                    "time": 29.849562499999994,
                    "velocity": 0.5590551181102362,
                    "duration": 0.2387964999999994
                },
                {
                    "name": "C#3",
                    "midi": 49,
                    "time": 29.849562499999994,
                    "velocity": 0.4645669291338583,
                    "duration": 0.2387964999999994
                },
                {
                    "name": "G#2",
                    "midi": 44,
                    "time": 30.088358999999993,
                    "velocity": 0.4251968503937008,
                    "duration": 0.17909737499999778
                },
                {
                    "name": "G#3",
                    "midi": 56,
                    "time": 30.088358999999993,
                    "velocity": 0.5039370078740157,
                    "duration": 0.17909737499999778
                },
                {
                    "name": "C#3",
                    "midi": 49,
                    "time": 30.088358999999993,
                    "velocity": 0.4251968503937008,
                    "duration": 0.17909737499999778
                },
                {
                    "name": "G#3",
                    "midi": 56,
                    "time": 30.327155499999993,
                    "velocity": 0.5590551181102362,
                    "duration": 0.2387964999999994
                },
                {
                    "name": "G#4",
                    "midi": 68,
                    "time": 30.327155499999993,
                    "velocity": 0.5590551181102362,
                    "duration": 0.2387964999999994
                },
                {
                    "name": "C#3",
                    "midi": 49,
                    "time": 30.565951999999992,
                    "velocity": 0.4251968503937008,
                    "duration": 0.17909737499999778
                },
                {
                    "name": "A#2",
                    "midi": 46,
                    "time": 30.565951999999992,
                    "velocity": 0.4251968503937008,
                    "duration": 0.17909737499999778
                },
                {
                    "name": "A#3",
                    "midi": 58,
                    "time": 30.565951999999992,
                    "velocity": 0.5039370078740157,
                    "duration": 0.17909737499999778
                },
                {
                    "name": "G4",
                    "midi": 67,
                    "time": 30.80474849999999,
                    "velocity": 0.5590551181102362,
                    "duration": 0.2387964999999994
                },
                {
                    "name": "G3",
                    "midi": 55,
                    "time": 30.80474849999999,
                    "velocity": 0.4645669291338583,
                    "duration": 0.2387964999999994
                },
                {
                    "name": "B1",
                    "midi": 35,
                    "time": 31.04354499999999,
                    "velocity": 0.5118110236220472,
                    "duration": 0.2387964999999994
                },
                {
                    "name": "B2",
                    "midi": 47,
                    "time": 31.04354499999999,
                    "velocity": 0.5984251968503937,
                    "duration": 0.2387964999999994
                },
                {
                    "name": "B3",
                    "midi": 59,
                    "time": 31.342040624999992,
                    "velocity": 0.5748031496062992,
                    "duration": 0.6566903750000037
                },
                {
                    "name": "C#4",
                    "midi": 61,
                    "time": 31.401739749999994,
                    "velocity": 0.5984251968503937,
                    "duration": 0.5969912500000021
                },
                {
                    "name": "F3",
                    "midi": 53,
                    "time": 31.461438874999995,
                    "velocity": 0.6062992125984252,
                    "duration": 0.5372921250000005
                },
                {
                    "name": "C#4",
                    "midi": 61,
                    "time": 31.521137999999997,
                    "velocity": 0.6377952755905512,
                    "duration": 0.4775929999999988
                },
                {
                    "name": "F1",
                    "midi": 29,
                    "time": 32.953917,
                    "velocity": 0.5433070866141733,
                    "duration": 0.09949854166666938
                },
                {
                    "name": "G1",
                    "midi": 31,
                    "time": 33.03351583333333,
                    "velocity": 0.4330708661417323,
                    "duration": 0.09949854166666938
                },
                {
                    "name": "F1",
                    "midi": 29,
                    "time": 33.11311466666667,
                    "velocity": 0.4881889763779528,
                    "duration": 0.09949854166666938
                },
                {
                    "name": "G1",
                    "midi": 31,
                    "time": 33.1927135,
                    "velocity": 0.4251968503937008,
                    "duration": 0.09949854166666938
                },
                {
                    "name": "F1",
                    "midi": 29,
                    "time": 33.27231233333334,
                    "velocity": 0.47244094488188976,
                    "duration": 0.09949854166666938
                },
                {
                    "name": "G1",
                    "midi": 31,
                    "time": 33.351911166666675,
                    "velocity": 0.4251968503937008,
                    "duration": 0.09949854166666938
                },
                {
                    "name": "F1",
                    "midi": 29,
                    "time": 33.43151000000001,
                    "velocity": 0.5039370078740157,
                    "duration": 0.0795988333333355
                },
                {
                    "name": "G1",
                    "midi": 31,
                    "time": 33.49120912500001,
                    "velocity": 0.4409448818897638,
                    "duration": 0.0795988333333355
                },
                {
                    "name": "F1",
                    "midi": 29,
                    "time": 33.55090825000001,
                    "velocity": 0.48031496062992124,
                    "duration": 0.0795988333333355
                },
                {
                    "name": "G1",
                    "midi": 31,
                    "time": 33.610607375000015,
                    "velocity": 0.4015748031496063,
                    "duration": 0.0795988333333355
                },
                {
                    "name": "F1",
                    "midi": 29,
                    "time": 33.67030650000002,
                    "velocity": 0.44881889763779526,
                    "duration": 0.0795988333333355
                },
                {
                    "name": "G1",
                    "midi": 31,
                    "time": 33.73000562500002,
                    "velocity": 0.4094488188976378,
                    "duration": 0.0795988333333355
                },
                {
                    "name": "F1",
                    "midi": 29,
                    "time": 33.78970475000002,
                    "velocity": 0.4645669291338583,
                    "duration": 0.0795988333333355
                },
                {
                    "name": "G1",
                    "midi": 31,
                    "time": 33.84940387500002,
                    "velocity": 0.3937007874015748,
                    "duration": 0.0795988333333355
                },
                {
                    "name": "E1",
                    "midi": 28,
                    "time": 33.90910300000002,
                    "velocity": 0.5433070866141733,
                    "duration": 0.03979941666666775
                },
                {
                    "name": "F1",
                    "midi": 29,
                    "time": 33.98870183333336,
                    "velocity": 0.49606299212598426,
                    "duration": 0.03979941666666775
                },
                {
                    "name": "C#2",
                    "midi": 37,
                    "time": 34.068300666666694,
                    "velocity": 0.5118110236220472,
                    "duration": 0.03979941666666775
                },
                {
                    "name": "C2",
                    "midi": 36,
                    "time": 34.14789950000003,
                    "velocity": 0.5590551181102362,
                    "duration": 0.03979941666666775
                },
                {
                    "name": "G1",
                    "midi": 31,
                    "time": 34.227498333333365,
                    "velocity": 0.5275590551181102,
                    "duration": 0.03979941666666775
                },
                {
                    "name": "B1",
                    "midi": 35,
                    "time": 34.3070971666667,
                    "velocity": 0.5354330708661418,
                    "duration": 0.03979941666666775
                },
                {
                    "name": "F#1",
                    "midi": 30,
                    "time": 34.386696000000036,
                    "velocity": 0.5905511811023622,
                    "duration": 0.03979941666666775
                },
                {
                    "name": "A#1",
                    "midi": 34,
                    "time": 34.46629483333337,
                    "velocity": 0.5590551181102362,
                    "duration": 0.03979941666666775
                },
                {
                    "name": "F1",
                    "midi": 29,
                    "time": 34.54589366666671,
                    "velocity": 0.5590551181102362,
                    "duration": 0.03979941666666775
                },
                {
                    "name": "A1",
                    "midi": 33,
                    "time": 34.62549250000004,
                    "velocity": 0.6062992125984252,
                    "duration": 0.03979941666666775
                },
                {
                    "name": "F1",
                    "midi": 29,
                    "time": 34.70509133333338,
                    "velocity": 0.5905511811023622,
                    "duration": 0.03979941666666775
                },
                {
                    "name": "G#1",
                    "midi": 32,
                    "time": 34.784690166666714,
                    "velocity": 0.5984251968503937,
                    "duration": 0.03979941666666775
                },
                {
                    "name": "C1",
                    "midi": 24,
                    "time": 34.86428900000005,
                    "velocity": 0.6929133858267716,
                    "duration": 0.23879650000000652
                },
                {
                    "name": "C2",
                    "midi": 36,
                    "time": 37.729847000000056,
                    "velocity": 0.5590551181102362,
                    "duration": 0.9551859999999976
                },
                {
                    "name": "G2",
                    "midi": 43,
                    "time": 37.729847000000056,
                    "velocity": 0.6299212598425197,
                    "duration": 0.9551859999999976
                },
                {
                    "name": "F2",
                    "midi": 41,
                    "time": 38.685033000000054,
                    "velocity": 0.5748031496062992,
                    "duration": 1.9103719999999953
                },
                {
                    "name": "F1",
                    "midi": 29,
                    "time": 38.685033000000054,
                    "velocity": 0.4881889763779528,
                    "duration": 1.9103719999999953
                }
            ],
            "controlChanges": {
                "7": [
                    {
                        "number": 7,
                        "time": 0,
                        "value": 0.7874015748031497
                    }
                ],
                "10": [
                    {
                        "number": 10,
                        "time": 0,
                        "value": 0.5039370078740157
                    }
                ],
                "64": [
                    {
                        "number": 64,
                        "time": 0,
                        "value": 0
                    },
                    {
                        "number": 64,
                        "time": 0.9780706645833332,
                        "value": 1
                    },
                    {
                        "number": 64,
                        "time": 1.6715755,
                        "value": 0
                    },
                    {
                        "number": 64,
                        "time": 2.8884426645833337,
                        "value": 1
                    },
                    {
                        "number": 64,
                        "time": 3.5819475,
                        "value": 0
                    },
                    {
                        "number": 64,
                        "time": 8.665327993750003,
                        "value": 1
                    },
                    {
                        "number": 64,
                        "time": 9.313063500000005,
                        "value": 0
                    },
                    {
                        "number": 64,
                        "time": 10.586644833333338,
                        "value": 1
                    },
                    {
                        "number": 64,
                        "time": 11.223435500000008,
                        "value": 0
                    },
                    {
                        "number": 64,
                        "time": 16.267016577083336,
                        "value": 1
                    },
                    {
                        "number": 64,
                        "time": 16.476958500000002,
                        "value": 0
                    },
                    {
                        "number": 64,
                        "time": 16.76152432916667,
                        "value": 1
                    },
                    {
                        "number": 64,
                        "time": 17.85302333125,
                        "value": 0
                    },
                    {
                        "number": 64,
                        "time": 18.194303329166665,
                        "value": 1
                    },
                    {
                        "number": 64,
                        "time": 18.41021516458333,
                        "value": 0
                    },
                    {
                        "number": 64,
                        "time": 18.677866241666663,
                        "value": 1
                    },
                    {
                        "number": 64,
                        "time": 19.78528501041666,
                        "value": 0
                    },
                    {
                        "number": 64,
                        "time": 20.093730489583326,
                        "value": 1
                    },
                    {
                        "number": 64,
                        "time": 20.22407357916666,
                        "value": 0
                    },
                    {
                        "number": 64,
                        "time": 20.557393693749994,
                        "value": 1
                    },
                    {
                        "number": 64,
                        "time": 21.71953666041665,
                        "value": 0
                    },
                    {
                        "number": 64,
                        "time": 21.99216266458332,
                        "value": 1
                    },
                    {
                        "number": 64,
                        "time": 22.11156091458332,
                        "value": 0
                    },
                    {
                        "number": 64,
                        "time": 22.49562528541665,
                        "value": 1
                    },
                    {
                        "number": 64,
                        "time": 23.40504195625,
                        "value": 0
                    },
                    {
                        "number": 64,
                        "time": 23.655778281249997,
                        "value": 1
                    },
                    {
                        "number": 64,
                        "time": 23.894574781249997,
                        "value": 0
                    },
                    {
                        "number": 64,
                        "time": 23.942334081249996,
                        "value": 1
                    },
                    {
                        "number": 64,
                        "time": 24.018947958333328,
                        "value": 0
                    },
                    {
                        "number": 64,
                        "time": 24.357242999999993,
                        "value": 1
                    },
                    {
                        "number": 64,
                        "time": 24.849760781249994,
                        "value": 0
                    },
                    {
                        "number": 64,
                        "time": 24.925379672916662,
                        "value": 1
                    },
                    {
                        "number": 64,
                        "time": 25.312428999999998,
                        "value": 0
                    },
                    {
                        "number": 64,
                        "time": 25.551225499999997,
                        "value": 1
                    },
                    {
                        "number": 64,
                        "time": 25.804946781249996,
                        "value": 0
                    },
                    {
                        "number": 64,
                        "time": 25.885540599999995,
                        "value": 1
                    },
                    {
                        "number": 64,
                        "time": 25.97409430208333,
                        "value": 0
                    },
                    {
                        "number": 64,
                        "time": 26.297464562499997,
                        "value": 1
                    },
                    {
                        "number": 64,
                        "time": 26.75018292708333,
                        "value": 0
                    },
                    {
                        "number": 64,
                        "time": 26.804907124999996,
                        "value": 1
                    },
                    {
                        "number": 64,
                        "time": 27.222800999999993,
                        "value": 0
                    },
                    {
                        "number": 64,
                        "time": 27.478512252083327,
                        "value": 1
                    },
                    {
                        "number": 64,
                        "time": 27.711338839583327,
                        "value": 0
                    },
                    {
                        "number": 64,
                        "time": 27.763078081249994,
                        "value": 1
                    },
                    {
                        "number": 64,
                        "time": 27.888446243749993,
                        "value": 0
                    },
                    {
                        "number": 64,
                        "time": 28.45061300416666,
                        "value": 1
                    },
                    {
                        "number": 64,
                        "time": 28.672494752083328,
                        "value": 0
                    },
                    {
                        "number": 64,
                        "time": 28.758063497916662,
                        "value": 1
                    },
                    {
                        "number": 64,
                        "time": 28.837662331249994,
                        "value": 0
                    },
                    {
                        "number": 64,
                        "time": 29.14610781041666,
                        "value": 1
                    },
                    {
                        "number": 64,
                        "time": 29.58290640833333,
                        "value": 0
                    },
                    {
                        "number": 64,
                        "time": 29.66847515416666,
                        "value": 1
                    },
                    {
                        "number": 64,
                        "time": 30.039604714583326,
                        "value": 0
                    },
                    {
                        "number": 64,
                        "time": 30.10726372291666,
                        "value": 1
                    },
                    {
                        "number": 64,
                        "time": 30.548042262499994,
                        "value": 0
                    },
                    {
                        "number": 64,
                        "time": 30.61072634374999,
                        "value": 1
                    },
                    {
                        "number": 64,
                        "time": 30.994790714583324,
                        "value": 0
                    },
                    {
                        "number": 64,
                        "time": 31.10025916874999,
                        "value": 1
                    },
                    {
                        "number": 64,
                        "time": 32.96884178125,
                        "value": 0
                    },
                    {
                        "number": 64,
                        "time": 34.90607838750005,
                        "value": 1
                    },
                    {
                        "number": 64,
                        "time": 35.30009261250006,
                        "value": 0
                    },
                    {
                        "number": 64,
                        "time": 37.968643500000056,
                        "value": 1
                    },
                    {
                        "number": 64,
                        "time": 38.690007927083386,
                        "value": 0
                    },
                    {
                        "number": 64,
                        "time": 39.10989177291672,
                        "value": 1
                    },
                    {
                        "number": 64,
                        "time": 43.779358333333384,
                        "value": 0
                    }
                ],
                "91": [
                    {
                        "number": 91,
                        "time": 0,
                        "value": 1
                    }
                ]
            },
            "id": 2,
            "name": "Piano left",
            "instrumentNumber": 0,
            "instrument": "acoustic grand piano",
            "instrumentFamily": "piano",
            "channelNumber": 0,
            "isPercussion": false
        },
        {
            "startTime": 0,
            "duration": 0,
            "length": 0,
            "notes": [],
            "controlChanges": {},
            "id": 3,
            "name": "Chopin: Prelude No.18 in F Minor Op. 28"
        },
        {
            "startTime": 0,
            "duration": 0,
            "length": 0,
            "notes": [],
            "controlChanges": {},
            "id": 4,
            "name": "Copyright  2002 by Bernd Krueger"
        },
        {
            "startTime": 0,
            "duration": 0,
            "length": 0,
            "notes": [],
            "controlChanges": {},
            "id": 5,
            "name": "http://www.piano-midi.de"
        },
        {
            "startTime": 0,
            "duration": 0,
            "length": 0,
            "notes": [],
            "controlChanges": {},
            "id": 6,
            "name": "Edition: 2014-02-21"
        },
        {
            "startTime": 0,
            "duration": 0,
            "length": 0,
            "notes": [],
            "controlChanges": {},
            "id": 7,
            "name": "Spur 7"
        }
    ]
}