{
    "header": {
        "PPQ": 480,
        "timeSignature": [
            2,
            2
        ],
        "bpm": 92.6300448638184,
        "name": "Jimbo's Lullaby"
    },
    "startTime": 0,
    "duration": 207.60002900000063,
    "tracks": [
        {
            "startTime": 0,
            "duration": 0,
            "length": 0,
            "notes": [],
            "controlChanges": {},
            "id": 0,
            "name": "Jimbo's Lullaby"
        },
        {
            "startTime": 8.420594000000001,
            "duration": 204.68520800000036,
            "length": 370,
            "notes": [
                {
                    "name": "F3",
                    "midi": 53,
                    "time": 8.420594000000001,
                    "velocity": 0.16535433070866143,
                    "duration": 0.1619344999999992
                },
                {
                    "name": "G3",
                    "midi": 55,
                    "time": 8.420594000000001,
                    "velocity": 0.1968503937007874,
                    "duration": 0.1619344999999992
                },
                {
                    "name": "F3",
                    "midi": 53,
                    "time": 8.744463,
                    "velocity": 0.16535433070866143,
                    "duration": 0.1619344999999992
                },
                {
                    "name": "G3",
                    "midi": 55,
                    "time": 8.744463,
                    "velocity": 0.1968503937007874,
                    "duration": 0.1619344999999992
                },
                {
                    "name": "F2",
                    "midi": 41,
                    "time": 11.659284,
                    "velocity": 0.14960629921259844,
                    "duration": 0.1619344999999992
                },
                {
                    "name": "G2",
                    "midi": 43,
                    "time": 11.659284,
                    "velocity": 0.18110236220472442,
                    "duration": 0.1619344999999992
                },
                {
                    "name": "G5",
                    "midi": 79,
                    "time": 20.727615999999998,
                    "velocity": 0.31496062992125984,
                    "duration": 2.5909520000000015
                },
                {
                    "name": "F4",
                    "midi": 65,
                    "time": 22.023092,
                    "velocity": 0.13385826771653545,
                    "duration": 0.16193450000000098
                },
                {
                    "name": "G4",
                    "midi": 67,
                    "time": 22.023092,
                    "velocity": 0.16535433070866143,
                    "duration": 0.16193450000000098
                },
                {
                    "name": "F4",
                    "midi": 65,
                    "time": 22.346961,
                    "velocity": 0.13385826771653545,
                    "duration": 1.6193449999999991
                },
                {
                    "name": "G4",
                    "midi": 67,
                    "time": 22.346961,
                    "velocity": 0.16535433070866143,
                    "duration": 1.6193449999999991
                },
                {
                    "name": "F4",
                    "midi": 65,
                    "time": 23.966306,
                    "velocity": 0.13385826771653545,
                    "duration": 2.5909520000000015
                },
                {
                    "name": "G4",
                    "midi": 67,
                    "time": 23.966306,
                    "velocity": 0.16535433070866143,
                    "duration": 2.5909520000000015
                },
                {
                    "name": "D#4",
                    "midi": 63,
                    "time": 25.90952,
                    "velocity": 0.25984251968503935,
                    "duration": 2.5909520000000015
                },
                {
                    "name": "F4",
                    "midi": 65,
                    "time": 26.557258,
                    "velocity": 0.13385826771653545,
                    "duration": 2.5909520000000015
                },
                {
                    "name": "G4",
                    "midi": 67,
                    "time": 26.557258,
                    "velocity": 0.16535433070866143,
                    "duration": 2.5909520000000015
                },
                {
                    "name": "C#4",
                    "midi": 61,
                    "time": 28.500472000000002,
                    "velocity": 0.25984251968503935,
                    "duration": 2.5909520000000015
                },
                {
                    "name": "F4",
                    "midi": 65,
                    "time": 29.148210000000002,
                    "velocity": 0.13385826771653545,
                    "duration": 2.5909520000000015
                },
                {
                    "name": "G4",
                    "midi": 67,
                    "time": 29.148210000000002,
                    "velocity": 0.16535433070866143,
                    "duration": 2.5909520000000015
                },
                {
                    "name": "D#4",
                    "midi": 63,
                    "time": 31.091424000000004,
                    "velocity": 0.25984251968503935,
                    "duration": 1.2954760000000007
                },
                {
                    "name": "F4",
                    "midi": 65,
                    "time": 31.739162000000004,
                    "velocity": 0.13385826771653545,
                    "duration": 2.590951999999998
                },
                {
                    "name": "G4",
                    "midi": 67,
                    "time": 31.739162000000004,
                    "velocity": 0.16535433070866143,
                    "duration": 2.590951999999998
                },
                {
                    "name": "D#4",
                    "midi": 63,
                    "time": 32.386900000000004,
                    "velocity": 0.25984251968503935,
                    "duration": 1.2954760000000007
                },
                {
                    "name": "C#4",
                    "midi": 61,
                    "time": 33.682376000000005,
                    "velocity": 0.2755905511811024,
                    "duration": 2.5909519999999944
                },
                {
                    "name": "F4",
                    "midi": 65,
                    "time": 34.330114,
                    "velocity": 0.13385826771653545,
                    "duration": 1.9432139999999976
                },
                {
                    "name": "G4",
                    "midi": 67,
                    "time": 34.330114,
                    "velocity": 0.16535433070866143,
                    "duration": 1.9432139999999976
                },
                {
                    "name": "F2",
                    "midi": 41,
                    "time": 36.921065999999996,
                    "velocity": 0.1732283464566929,
                    "duration": 0.16193450000000098
                },
                {
                    "name": "G2",
                    "midi": 43,
                    "time": 36.921065999999996,
                    "velocity": 0.2047244094488189,
                    "duration": 0.16193450000000098
                },
                {
                    "name": "F2",
                    "midi": 41,
                    "time": 37.244935,
                    "velocity": 0.1889763779527559,
                    "duration": 0.16193450000000098
                },
                {
                    "name": "G2",
                    "midi": 43,
                    "time": 37.244935,
                    "velocity": 0.2283464566929134,
                    "duration": 0.16193450000000098
                },
                {
                    "name": "F2",
                    "midi": 41,
                    "time": 40.159756,
                    "velocity": 0.14960629921259844,
                    "duration": 0.16193450000000098
                },
                {
                    "name": "G2",
                    "midi": 43,
                    "time": 40.159756,
                    "velocity": 0.18110236220472442,
                    "duration": 0.16193450000000098
                },
                {
                    "name": "F2",
                    "midi": 41,
                    "time": 45.341660000000005,
                    "velocity": 0.14960629921259844,
                    "duration": 0.16193450000000098
                },
                {
                    "name": "G2",
                    "midi": 43,
                    "time": 45.341660000000005,
                    "velocity": 0.18110236220472442,
                    "duration": 0.16193450000000098
                },
                {
                    "name": "G4",
                    "midi": 67,
                    "time": 46.637136000000005,
                    "velocity": 0.2047244094488189,
                    "duration": 0.6477379999999968
                },
                {
                    "name": "F4",
                    "midi": 65,
                    "time": 46.637136000000005,
                    "velocity": 0.2047244094488189,
                    "duration": 0.6477379999999968
                },
                {
                    "name": "C4",
                    "midi": 60,
                    "time": 47.284874,
                    "velocity": 0.13385826771653545,
                    "duration": 0.6477379999999968
                },
                {
                    "name": "D4",
                    "midi": 62,
                    "time": 47.284874,
                    "velocity": 0.16535433070866143,
                    "duration": 0.6477379999999968
                },
                {
                    "name": "F4",
                    "midi": 65,
                    "time": 47.932612,
                    "velocity": 0.1889763779527559,
                    "duration": 0.6477379999999968
                },
                {
                    "name": "G4",
                    "midi": 67,
                    "time": 47.932612,
                    "velocity": 0.1889763779527559,
                    "duration": 0.6477379999999968
                },
                {
                    "name": "C4",
                    "midi": 60,
                    "time": 48.580349999999996,
                    "velocity": 0.13385826771653545,
                    "duration": 0.6477379999999968
                },
                {
                    "name": "D4",
                    "midi": 62,
                    "time": 48.580349999999996,
                    "velocity": 0.16535433070866143,
                    "duration": 0.6477379999999968
                },
                {
                    "name": "G4",
                    "midi": 67,
                    "time": 49.22808799999999,
                    "velocity": 0.1968503937007874,
                    "duration": 0.6477379999999968
                },
                {
                    "name": "F4",
                    "midi": 65,
                    "time": 49.22808799999999,
                    "velocity": 0.16535433070866143,
                    "duration": 0.6477379999999968
                },
                {
                    "name": "C4",
                    "midi": 60,
                    "time": 49.87582599999999,
                    "velocity": 0.13385826771653545,
                    "duration": 0.6477379999999968
                },
                {
                    "name": "D4",
                    "midi": 62,
                    "time": 49.87582599999999,
                    "velocity": 0.16535433070866143,
                    "duration": 0.6477379999999968
                },
                {
                    "name": "F4",
                    "midi": 65,
                    "time": 50.523563999999986,
                    "velocity": 0.14960629921259844,
                    "duration": 0.6477379999999968
                },
                {
                    "name": "G4",
                    "midi": 67,
                    "time": 50.523563999999986,
                    "velocity": 0.18110236220472442,
                    "duration": 0.6477379999999968
                },
                {
                    "name": "C4",
                    "midi": 60,
                    "time": 51.17130199999998,
                    "velocity": 0.13385826771653545,
                    "duration": 0.6477379999999968
                },
                {
                    "name": "D4",
                    "midi": 62,
                    "time": 51.17130199999998,
                    "velocity": 0.16535433070866143,
                    "duration": 0.6477379999999968
                },
                {
                    "name": "F4",
                    "midi": 65,
                    "time": 51.81903999999998,
                    "velocity": 0.23622047244094488,
                    "duration": 0.6477379999999968
                },
                {
                    "name": "D4",
                    "midi": 62,
                    "time": 52.46677799999998,
                    "velocity": 0.28346456692913385,
                    "duration": 1.2954760000000007
                },
                {
                    "name": "F4",
                    "midi": 65,
                    "time": 53.76225399999998,
                    "velocity": 0.2677165354330709,
                    "duration": 0.32386900000000196
                },
                {
                    "name": "G4",
                    "midi": 67,
                    "time": 54.08612299999998,
                    "velocity": 0.2677165354330709,
                    "duration": 0.32386900000000196
                },
                {
                    "name": "C4",
                    "midi": 60,
                    "time": 54.40999199999998,
                    "velocity": 0.28346456692913385,
                    "duration": 0.32386900000000196
                },
                {
                    "name": "D4",
                    "midi": 62,
                    "time": 54.73386099999998,
                    "velocity": 0.23622047244094488,
                    "duration": 0.32386900000000196
                },
                {
                    "name": "F4",
                    "midi": 65,
                    "time": 55.057729999999985,
                    "velocity": 0.28346456692913385,
                    "duration": 1.2954760000000007
                },
                {
                    "name": "D4",
                    "midi": 62,
                    "time": 56.353205999999986,
                    "velocity": 0.23622047244094488,
                    "duration": 0.32386900000000196
                },
                {
                    "name": "C4",
                    "midi": 60,
                    "time": 56.67707499999999,
                    "velocity": 0.2125984251968504,
                    "duration": 0.29687991666666846
                },
                {
                    "name": "C4",
                    "midi": 60,
                    "time": 57.00094399999999,
                    "velocity": 0.2677165354330709,
                    "duration": 0.32386900000000196
                },
                {
                    "name": "D4",
                    "midi": 62,
                    "time": 57.32481299999999,
                    "velocity": 0.2204724409448819,
                    "duration": 0.29687991666666846
                },
                {
                    "name": "D4",
                    "midi": 62,
                    "time": 57.648681999999994,
                    "velocity": 0.2440944881889764,
                    "duration": 0.6477379999999968
                },
                {
                    "name": "C4",
                    "midi": 60,
                    "time": 58.29641999999999,
                    "velocity": 0.2440944881889764,
                    "duration": 0.6477379999999968
                },
                {
                    "name": "F4",
                    "midi": 65,
                    "time": 58.94415799999999,
                    "velocity": 0.2755905511811024,
                    "duration": 0.6477379999999968
                },
                {
                    "name": "D4",
                    "midi": 62,
                    "time": 59.591895999999984,
                    "velocity": 0.2283464566929134,
                    "duration": 2.5909520000000015
                },
                {
                    "name": "C5",
                    "midi": 72,
                    "time": 61.53510999999998,
                    "velocity": 0.25984251968503935,
                    "duration": 0.32386900000000196
                },
                {
                    "name": "A4",
                    "midi": 69,
                    "time": 61.858978999999984,
                    "velocity": 0.2283464566929134,
                    "duration": 0.32386900000000196
                },
                {
                    "name": "C4",
                    "midi": 60,
                    "time": 62.182847999999986,
                    "velocity": 0.16535433070866143,
                    "duration": 2.5909520000000086
                },
                {
                    "name": "D4",
                    "midi": 62,
                    "time": 62.182847999999986,
                    "velocity": 0.16535433070866143,
                    "duration": 2.5909520000000086
                },
                {
                    "name": "G4",
                    "midi": 67,
                    "time": 62.182847999999986,
                    "velocity": 0.25984251968503935,
                    "duration": 0.32386900000000196
                },
                {
                    "name": "F4",
                    "midi": 65,
                    "time": 62.50671699999999,
                    "velocity": 0.25196850393700787,
                    "duration": 0.32386900000000196
                },
                {
                    "name": "G4",
                    "midi": 67,
                    "time": 62.83058599999999,
                    "velocity": 0.25984251968503935,
                    "duration": 1.2954760000000007
                },
                {
                    "name": "A4",
                    "midi": 69,
                    "time": 64.12606199999999,
                    "velocity": 0.29133858267716534,
                    "duration": 0.32386900000000196
                },
                {
                    "name": "C5",
                    "midi": 72,
                    "time": 64.44993099999999,
                    "velocity": 0.25984251968503935,
                    "duration": 0.32386900000000196
                },
                {
                    "name": "C4",
                    "midi": 60,
                    "time": 64.7738,
                    "velocity": 0.16535433070866143,
                    "duration": 2.5909520000000157
                },
                {
                    "name": "D4",
                    "midi": 62,
                    "time": 64.7738,
                    "velocity": 0.16535433070866143,
                    "duration": 2.5909520000000157
                },
                {
                    "name": "G4",
                    "midi": 67,
                    "time": 64.7738,
                    "velocity": 0.33070866141732286,
                    "duration": 0.6477380000000039
                },
                {
                    "name": "D5",
                    "midi": 74,
                    "time": 65.421538,
                    "velocity": 0.33070866141732286,
                    "duration": 0.6477380000000039
                },
                {
                    "name": "C5",
                    "midi": 72,
                    "time": 66.069276,
                    "velocity": 0.2755905511811024,
                    "duration": 0.6477380000000039
                },
                {
                    "name": "A4",
                    "midi": 69,
                    "time": 66.717014,
                    "velocity": 0.25984251968503935,
                    "duration": 0.6477380000000039
                },
                {
                    "name": "C4",
                    "midi": 60,
                    "time": 67.36475200000001,
                    "velocity": 0.16535433070866143,
                    "duration": 2.5909520000000157
                },
                {
                    "name": "D4",
                    "midi": 62,
                    "time": 67.36475200000001,
                    "velocity": 0.16535433070866143,
                    "duration": 2.5909520000000157
                },
                {
                    "name": "G4",
                    "midi": 67,
                    "time": 67.36475200000001,
                    "velocity": 0.25196850393700787,
                    "duration": 0.32386900000000196
                },
                {
                    "name": "F4",
                    "midi": 65,
                    "time": 67.68862100000001,
                    "velocity": 0.2047244094488189,
                    "duration": 0.32386900000000196
                },
                {
                    "name": "G4",
                    "midi": 67,
                    "time": 68.01249000000001,
                    "velocity": 0.25984251968503935,
                    "duration": 0.6477380000000039
                },
                {
                    "name": "A4",
                    "midi": 69,
                    "time": 68.66022800000002,
                    "velocity": 0.2755905511811024,
                    "duration": 0.6477380000000039
                },
                {
                    "name": "C5",
                    "midi": 72,
                    "time": 69.30796600000002,
                    "velocity": 0.3228346456692913,
                    "duration": 0.6477380000000039
                },
                {
                    "name": "C4",
                    "midi": 60,
                    "time": 69.95570400000003,
                    "velocity": 0.16535433070866143,
                    "duration": 2.5909520000000015
                },
                {
                    "name": "D4",
                    "midi": 62,
                    "time": 69.95570400000003,
                    "velocity": 0.16535433070866143,
                    "duration": 2.5909520000000015
                },
                {
                    "name": "G4",
                    "midi": 67,
                    "time": 69.95570400000003,
                    "velocity": 0.2677165354330709,
                    "duration": 2.5909520000000015
                },
                {
                    "name": "G#2",
                    "midi": 44,
                    "time": 73.19439400000003,
                    "velocity": 0.16535433070866143,
                    "duration": 0.16193450000000098
                },
                {
                    "name": "A#2",
                    "midi": 46,
                    "time": 73.19439400000003,
                    "velocity": 0.1968503937007874,
                    "duration": 0.16193450000000098
                },
                {
                    "name": "G#2",
                    "midi": 44,
                    "time": 73.51826300000003,
                    "velocity": 0.16535433070866143,
                    "duration": 0.9716070000000059
                },
                {
                    "name": "A#2",
                    "midi": 46,
                    "time": 73.51826300000003,
                    "velocity": 0.1968503937007874,
                    "duration": 0.9716070000000059
                },
                {
                    "name": "G#2",
                    "midi": 44,
                    "time": 74.48987000000004,
                    "velocity": 0.16535433070866143,
                    "duration": 0.16193450000000098
                },
                {
                    "name": "A#2",
                    "midi": 46,
                    "time": 74.48987000000004,
                    "velocity": 0.1968503937007874,
                    "duration": 0.16193450000000098
                },
                {
                    "name": "A#2",
                    "midi": 46,
                    "time": 76.75695300000004,
                    "velocity": 0.2440944881889764,
                    "duration": 0.6477380000000039
                },
                {
                    "name": "G#2",
                    "midi": 44,
                    "time": 76.75695300000004,
                    "velocity": 0.2047244094488189,
                    "duration": 0.6477380000000039
                },
                {
                    "name": "A#3",
                    "midi": 58,
                    "time": 77.40469100000004,
                    "velocity": 0.29133858267716534,
                    "duration": 0.32386900000000196
                },
                {
                    "name": "G#3",
                    "midi": 56,
                    "time": 77.40469100000004,
                    "velocity": 0.2440944881889764,
                    "duration": 0.32386900000000196
                },
                {
                    "name": "G#2",
                    "midi": 44,
                    "time": 78.37629800000005,
                    "velocity": 0.16535433070866143,
                    "duration": 0.16193450000000098
                },
                {
                    "name": "A#2",
                    "midi": 46,
                    "time": 78.37629800000005,
                    "velocity": 0.1968503937007874,
                    "duration": 0.16193450000000098
                },
                {
                    "name": "G#2",
                    "midi": 44,
                    "time": 78.70016700000005,
                    "velocity": 0.16535433070866143,
                    "duration": 0.9716070000000059
                },
                {
                    "name": "A#2",
                    "midi": 46,
                    "time": 78.70016700000005,
                    "velocity": 0.1968503937007874,
                    "duration": 0.9716070000000059
                },
                {
                    "name": "G#2",
                    "midi": 44,
                    "time": 79.67177400000006,
                    "velocity": 0.16535433070866143,
                    "duration": 0.16193450000000098
                },
                {
                    "name": "A#2",
                    "midi": 46,
                    "time": 79.67177400000006,
                    "velocity": 0.1968503937007874,
                    "duration": 0.16193450000000098
                },
                {
                    "name": "C3",
                    "midi": 48,
                    "time": 80.96725000000006,
                    "velocity": 0.2440944881889764,
                    "duration": 0.16193450000000098
                },
                {
                    "name": "A#2",
                    "midi": 46,
                    "time": 80.96725000000006,
                    "velocity": 0.2047244094488189,
                    "duration": 0.16193450000000098
                },
                {
                    "name": "A#3",
                    "midi": 58,
                    "time": 81.61498800000007,
                    "velocity": 0.2440944881889764,
                    "duration": 0.16193450000000098
                },
                {
                    "name": "C4",
                    "midi": 60,
                    "time": 81.61498800000007,
                    "velocity": 0.29133858267716534,
                    "duration": 0.16193450000000098
                },
                {
                    "name": "A#3",
                    "midi": 58,
                    "time": 83.55820200000007,
                    "velocity": 0.2047244094488189,
                    "duration": 0.16193450000000098
                },
                {
                    "name": "C#4",
                    "midi": 61,
                    "time": 83.55820200000007,
                    "velocity": 0.2047244094488189,
                    "duration": 0.16193450000000098
                },
                {
                    "name": "F#4",
                    "midi": 66,
                    "time": 83.55820200000007,
                    "velocity": 0.2440944881889764,
                    "duration": 0.16193450000000098
                },
                {
                    "name": "A#3",
                    "midi": 58,
                    "time": 83.88207100000007,
                    "velocity": 0.2047244094488189,
                    "duration": 0.16193450000000098
                },
                {
                    "name": "C#4",
                    "midi": 61,
                    "time": 83.88207100000007,
                    "velocity": 0.2047244094488189,
                    "duration": 0.16193450000000098
                },
                {
                    "name": "F#4",
                    "midi": 66,
                    "time": 83.88207100000007,
                    "velocity": 0.2440944881889764,
                    "duration": 0.16193450000000098
                },
                {
                    "name": "F4",
                    "midi": 65,
                    "time": 84.20594000000007,
                    "velocity": 0.2283464566929134,
                    "duration": 0.6477380000000039
                },
                {
                    "name": "C4",
                    "midi": 60,
                    "time": 84.20594000000007,
                    "velocity": 0.1889763779527559,
                    "duration": 0.6477380000000039
                },
                {
                    "name": "G#3",
                    "midi": 56,
                    "time": 84.20594000000007,
                    "velocity": 0.1889763779527559,
                    "duration": 0.6477380000000039
                },
                {
                    "name": "F4",
                    "midi": 65,
                    "time": 84.85367800000007,
                    "velocity": 0.1968503937007874,
                    "duration": 0.6477380000000039
                },
                {
                    "name": "C4",
                    "midi": 60,
                    "time": 84.85367800000007,
                    "velocity": 0.16535433070866143,
                    "duration": 0.6477380000000039
                },
                {
                    "name": "G#3",
                    "midi": 56,
                    "time": 84.85367800000007,
                    "velocity": 0.16535433070866143,
                    "duration": 0.6477380000000039
                },
                {
                    "name": "F#3",
                    "midi": 54,
                    "time": 86.14915400000008,
                    "velocity": 0.2047244094488189,
                    "duration": 0.16193450000000098
                },
                {
                    "name": "A#3",
                    "midi": 58,
                    "time": 86.14915400000008,
                    "velocity": 0.2047244094488189,
                    "duration": 0.16193450000000098
                },
                {
                    "name": "D#4",
                    "midi": 63,
                    "time": 86.14915400000008,
                    "velocity": 0.2440944881889764,
                    "duration": 0.16193450000000098
                },
                {
                    "name": "F#3",
                    "midi": 54,
                    "time": 86.47302300000008,
                    "velocity": 0.2047244094488189,
                    "duration": 0.16193450000000098
                },
                {
                    "name": "A#3",
                    "midi": 58,
                    "time": 86.47302300000008,
                    "velocity": 0.2047244094488189,
                    "duration": 0.16193450000000098
                },
                {
                    "name": "D#4",
                    "midi": 63,
                    "time": 86.47302300000008,
                    "velocity": 0.2440944881889764,
                    "duration": 0.16193450000000098
                },
                {
                    "name": "C#4",
                    "midi": 61,
                    "time": 86.79689200000008,
                    "velocity": 0.2283464566929134,
                    "duration": 0.6477380000000039
                },
                {
                    "name": "G#3",
                    "midi": 56,
                    "time": 86.79689200000008,
                    "velocity": 0.1889763779527559,
                    "duration": 0.6477380000000039
                },
                {
                    "name": "F3",
                    "midi": 53,
                    "time": 86.79689200000008,
                    "velocity": 0.1889763779527559,
                    "duration": 0.6477380000000039
                },
                {
                    "name": "B3",
                    "midi": 59,
                    "time": 87.44463000000009,
                    "velocity": 0.16535433070866143,
                    "duration": 0.6477380000000039
                },
                {
                    "name": "A#4",
                    "midi": 70,
                    "time": 87.44463000000009,
                    "velocity": 0.2755905511811024,
                    "duration": 0.6477380000000039
                },
                {
                    "name": "F4",
                    "midi": 65,
                    "time": 87.44463000000009,
                    "velocity": 0.2125984251968504,
                    "duration": 0.6477380000000039
                },
                {
                    "name": "D4",
                    "midi": 62,
                    "time": 87.44463000000009,
                    "velocity": 0.16535433070866143,
                    "duration": 0.6477380000000039
                },
                {
                    "name": "A#3",
                    "midi": 58,
                    "time": 88.7401060000001,
                    "velocity": 0.2047244094488189,
                    "duration": 0.16193450000000098
                },
                {
                    "name": "C#4",
                    "midi": 61,
                    "time": 88.7401060000001,
                    "velocity": 0.2047244094488189,
                    "duration": 0.16193450000000098
                },
                {
                    "name": "F#4",
                    "midi": 66,
                    "time": 88.7401060000001,
                    "velocity": 0.2440944881889764,
                    "duration": 0.16193450000000098
                },
                {
                    "name": "A#3",
                    "midi": 58,
                    "time": 89.0639750000001,
                    "velocity": 0.2047244094488189,
                    "duration": 0.16193450000000098
                },
                {
                    "name": "C#4",
                    "midi": 61,
                    "time": 89.0639750000001,
                    "velocity": 0.2047244094488189,
                    "duration": 0.16193450000000098
                },
                {
                    "name": "F#4",
                    "midi": 66,
                    "time": 89.0639750000001,
                    "velocity": 0.2440944881889764,
                    "duration": 0.16193450000000098
                },
                {
                    "name": "F4",
                    "midi": 65,
                    "time": 89.3878440000001,
                    "velocity": 0.2283464566929134,
                    "duration": 0.16193450000000098
                },
                {
                    "name": "C4",
                    "midi": 60,
                    "time": 89.3878440000001,
                    "velocity": 0.1889763779527559,
                    "duration": 0.16193450000000098
                },
                {
                    "name": "G#3",
                    "midi": 56,
                    "time": 89.3878440000001,
                    "velocity": 0.1889763779527559,
                    "duration": 0.16193450000000098
                },
                {
                    "name": "G#3",
                    "midi": 56,
                    "time": 89.7117130000001,
                    "velocity": 0.1732283464566929,
                    "duration": 0.16193450000000098
                },
                {
                    "name": "C4",
                    "midi": 60,
                    "time": 89.7117130000001,
                    "velocity": 0.1732283464566929,
                    "duration": 0.16193450000000098
                },
                {
                    "name": "F4",
                    "midi": 65,
                    "time": 89.7117130000001,
                    "velocity": 0.2125984251968504,
                    "duration": 0.16193450000000098
                },
                {
                    "name": "F4",
                    "midi": 65,
                    "time": 90.0355820000001,
                    "velocity": 0.1968503937007874,
                    "duration": 0.16193450000000098
                },
                {
                    "name": "C4",
                    "midi": 60,
                    "time": 90.0355820000001,
                    "velocity": 0.16535433070866143,
                    "duration": 0.16193450000000098
                },
                {
                    "name": "G#3",
                    "midi": 56,
                    "time": 90.0355820000001,
                    "velocity": 0.16535433070866143,
                    "duration": 0.16193450000000098
                },
                {
                    "name": "G#3",
                    "midi": 56,
                    "time": 90.3594510000001,
                    "velocity": 0.14960629921259844,
                    "duration": 0.16193450000000098
                },
                {
                    "name": "C4",
                    "midi": 60,
                    "time": 90.3594510000001,
                    "velocity": 0.14960629921259844,
                    "duration": 0.16193450000000098
                },
                {
                    "name": "F4",
                    "midi": 65,
                    "time": 90.3594510000001,
                    "velocity": 0.18110236220472442,
                    "duration": 0.16193450000000098
                },
                {
                    "name": "F#3",
                    "midi": 54,
                    "time": 91.33105800000011,
                    "velocity": 0.2047244094488189,
                    "duration": 0.16193450000000098
                },
                {
                    "name": "A#3",
                    "midi": 58,
                    "time": 91.33105800000011,
                    "velocity": 0.2047244094488189,
                    "duration": 0.16193450000000098
                },
                {
                    "name": "D#4",
                    "midi": 63,
                    "time": 91.33105800000011,
                    "velocity": 0.2440944881889764,
                    "duration": 0.16193450000000098
                },
                {
                    "name": "F#3",
                    "midi": 54,
                    "time": 91.65492700000011,
                    "velocity": 0.2047244094488189,
                    "duration": 0.16193450000000098
                },
                {
                    "name": "A#3",
                    "midi": 58,
                    "time": 91.65492700000011,
                    "velocity": 0.2047244094488189,
                    "duration": 0.16193450000000098
                },
                {
                    "name": "D#4",
                    "midi": 63,
                    "time": 91.65492700000011,
                    "velocity": 0.2440944881889764,
                    "duration": 0.16193450000000098
                },
                {
                    "name": "C#4",
                    "midi": 61,
                    "time": 91.97879600000012,
                    "velocity": 0.2283464566929134,
                    "duration": 0.6477380000000039
                },
                {
                    "name": "A#3",
                    "midi": 58,
                    "time": 91.97879600000012,
                    "velocity": 0.1889763779527559,
                    "duration": 0.6477380000000039
                },
                {
                    "name": "F#3",
                    "midi": 54,
                    "time": 91.97879600000012,
                    "velocity": 0.1889763779527559,
                    "duration": 0.6477380000000039
                },
                {
                    "name": "F3",
                    "midi": 53,
                    "time": 92.62653400000012,
                    "velocity": 0.16535433070866143,
                    "duration": 0.6477380000000039
                },
                {
                    "name": "D#4",
                    "midi": 63,
                    "time": 92.62653400000012,
                    "velocity": 0.2125984251968504,
                    "duration": 0.6477380000000039
                },
                {
                    "name": "G#3",
                    "midi": 56,
                    "time": 92.62653400000012,
                    "velocity": 0.16535433070866143,
                    "duration": 0.6477380000000039
                },
                {
                    "name": "E3",
                    "midi": 52,
                    "time": 93.27427200000012,
                    "velocity": 0.14960629921259844,
                    "duration": 3.2386900000000054
                },
                {
                    "name": "G3",
                    "midi": 55,
                    "time": 93.27427200000012,
                    "velocity": 0.14960629921259844,
                    "duration": 3.2386900000000054
                },
                {
                    "name": "A#3",
                    "midi": 58,
                    "time": 93.27427200000012,
                    "velocity": 0.1889763779527559,
                    "duration": 3.2386900000000054
                },
                {
                    "name": "D#3",
                    "midi": 51,
                    "time": 98.45617600000013,
                    "velocity": 0.15748031496062992,
                    "duration": 1.2954759999999936
                },
                {
                    "name": "G3",
                    "midi": 55,
                    "time": 98.45617600000013,
                    "velocity": 0.1889763779527559,
                    "duration": 2.5909519999999873
                },
                {
                    "name": "C#3",
                    "midi": 49,
                    "time": 99.75165200000012,
                    "velocity": 0.15748031496062992,
                    "duration": 1.2954759999999936
                },
                {
                    "name": "D#3",
                    "midi": 51,
                    "time": 101.04712800000011,
                    "velocity": 0.15748031496062992,
                    "duration": 0.6477380000000039
                },
                {
                    "name": "G3",
                    "midi": 55,
                    "time": 101.04712800000011,
                    "velocity": 0.1889763779527559,
                    "duration": 2.5909520000000015
                },
                {
                    "name": "D#3",
                    "midi": 51,
                    "time": 101.69486600000012,
                    "velocity": 0.15748031496062992,
                    "duration": 0.6477380000000039
                },
                {
                    "name": "C#3",
                    "midi": 49,
                    "time": 102.34260400000012,
                    "velocity": 0.15748031496062992,
                    "duration": 1.2954759999999936
                },
                {
                    "name": "G4",
                    "midi": 67,
                    "time": 103.63808000000012,
                    "velocity": 0.1889763779527559,
                    "duration": 2.5909520000000015
                },
                {
                    "name": "D#4",
                    "midi": 63,
                    "time": 103.63808000000012,
                    "velocity": 0.1889763779527559,
                    "duration": 2.5909520000000015
                },
                {
                    "name": "G3",
                    "midi": 55,
                    "time": 103.63808000000012,
                    "velocity": 0.1889763779527559,
                    "duration": 2.5909520000000015
                },
                {
                    "name": "C#5",
                    "midi": 73,
                    "time": 106.22903200000012,
                    "velocity": 0.2440944881889764,
                    "duration": 2.5909520000000015
                },
                {
                    "name": "A4",
                    "midi": 69,
                    "time": 106.22903200000012,
                    "velocity": 0.2440944881889764,
                    "duration": 2.5909520000000015
                },
                {
                    "name": "C#4",
                    "midi": 61,
                    "time": 106.22903200000012,
                    "velocity": 0.2440944881889764,
                    "duration": 2.5909520000000015
                },
                {
                    "name": "D#3",
                    "midi": 51,
                    "time": 108.81998400000012,
                    "velocity": 0.15748031496062992,
                    "duration": 1.2954759999999936
                },
                {
                    "name": "G3",
                    "midi": 55,
                    "time": 108.81998400000012,
                    "velocity": 0.1889763779527559,
                    "duration": 2.5909519999999873
                },
                {
                    "name": "C#3",
                    "midi": 49,
                    "time": 110.11546000000011,
                    "velocity": 0.15748031496062992,
                    "duration": 1.2954759999999936
                },
                {
                    "name": "D#3",
                    "midi": 51,
                    "time": 111.4109360000001,
                    "velocity": 0.15748031496062992,
                    "duration": 0.6477380000000039
                },
                {
                    "name": "G3",
                    "midi": 55,
                    "time": 111.4109360000001,
                    "velocity": 0.1889763779527559,
                    "duration": 2.5909520000000015
                },
                {
                    "name": "D#3",
                    "midi": 51,
                    "time": 112.05867400000011,
                    "velocity": 0.15748031496062992,
                    "duration": 0.6477380000000039
                },
                {
                    "name": "C#3",
                    "midi": 49,
                    "time": 112.70641200000011,
                    "velocity": 0.15748031496062992,
                    "duration": 1.2954759999999936
                },
                {
                    "name": "G5",
                    "midi": 79,
                    "time": 114.00188800000011,
                    "velocity": 0.2755905511811024,
                    "duration": 3.886427999999995
                },
                {
                    "name": "B5",
                    "midi": 83,
                    "time": 114.00188800000011,
                    "velocity": 0.29133858267716534,
                    "duration": 3.886427999999995
                },
                {
                    "name": "B4",
                    "midi": 71,
                    "time": 114.00188800000011,
                    "velocity": 0.2440944881889764,
                    "duration": 3.886427999999995
                },
                {
                    "name": "G3",
                    "midi": 55,
                    "time": 119.1837920000001,
                    "velocity": 0.2992125984251969,
                    "duration": 0.6477380000000039
                },
                {
                    "name": "B3",
                    "midi": 59,
                    "time": 119.1837920000001,
                    "velocity": 0.3543307086614173,
                    "duration": 0.6477380000000039
                },
                {
                    "name": "B3",
                    "midi": 59,
                    "time": 119.8315300000001,
                    "velocity": 0.3228346456692913,
                    "duration": 0.16193450000000098
                },
                {
                    "name": "G3",
                    "midi": 55,
                    "time": 119.8315300000001,
                    "velocity": 0.2677165354330709,
                    "duration": 0.16193450000000098
                },
                {
                    "name": "B3",
                    "midi": 59,
                    "time": 120.1553990000001,
                    "velocity": 0.3228346456692913,
                    "duration": 0.16193450000000098
                },
                {
                    "name": "G3",
                    "midi": 55,
                    "time": 120.1553990000001,
                    "velocity": 0.2677165354330709,
                    "duration": 0.16193450000000098
                },
                {
                    "name": "A#3",
                    "midi": 58,
                    "time": 120.4792680000001,
                    "velocity": 0.33858267716535434,
                    "duration": 0.16193450000000098
                },
                {
                    "name": "F#3",
                    "midi": 54,
                    "time": 120.4792680000001,
                    "velocity": 0.28346456692913385,
                    "duration": 0.16193450000000098
                },
                {
                    "name": "A#3",
                    "midi": 58,
                    "time": 120.8031370000001,
                    "velocity": 0.29133858267716534,
                    "duration": 0.16193450000000098
                },
                {
                    "name": "F#3",
                    "midi": 54,
                    "time": 120.8031370000001,
                    "velocity": 0.2440944881889764,
                    "duration": 0.16193450000000098
                },
                {
                    "name": "A#3",
                    "midi": 58,
                    "time": 121.12700600000011,
                    "velocity": 0.29133858267716534,
                    "duration": 0.16193450000000098
                },
                {
                    "name": "F#3",
                    "midi": 54,
                    "time": 121.12700600000011,
                    "velocity": 0.2440944881889764,
                    "duration": 0.16193450000000098
                },
                {
                    "name": "A#3",
                    "midi": 58,
                    "time": 121.45087500000011,
                    "velocity": 0.29133858267716534,
                    "duration": 0.16193450000000098
                },
                {
                    "name": "F#3",
                    "midi": 54,
                    "time": 121.45087500000011,
                    "velocity": 0.2440944881889764,
                    "duration": 0.16193450000000098
                },
                {
                    "name": "F3",
                    "midi": 53,
                    "time": 121.77474400000011,
                    "velocity": 0.2992125984251969,
                    "duration": 0.6477380000000039
                },
                {
                    "name": "A3",
                    "midi": 57,
                    "time": 121.77474400000011,
                    "velocity": 0.3543307086614173,
                    "duration": 0.6477380000000039
                },
                {
                    "name": "A3",
                    "midi": 57,
                    "time": 122.42248200000012,
                    "velocity": 0.3228346456692913,
                    "duration": 0.16193450000000098
                },
                {
                    "name": "F3",
                    "midi": 53,
                    "time": 122.43057872500012,
                    "velocity": 0.2677165354330709,
                    "duration": 0.16193450000000098
                },
                {
                    "name": "A3",
                    "midi": 57,
                    "time": 122.74635100000012,
                    "velocity": 0.3228346456692913,
                    "duration": 0.16193450000000098
                },
                {
                    "name": "F3",
                    "midi": 53,
                    "time": 122.74635100000012,
                    "velocity": 0.2677165354330709,
                    "duration": 0.16193450000000098
                },
                {
                    "name": "G#3",
                    "midi": 56,
                    "time": 123.07022000000012,
                    "velocity": 0.33858267716535434,
                    "duration": 0.6477380000000039
                },
                {
                    "name": "E3",
                    "midi": 52,
                    "time": 123.07022000000012,
                    "velocity": 0.28346456692913385,
                    "duration": 0.6477380000000039
                },
                {
                    "name": "C4",
                    "midi": 60,
                    "time": 123.71795800000012,
                    "velocity": 0.29133858267716534,
                    "duration": 0.6477380000000039
                },
                {
                    "name": "G#3",
                    "midi": 56,
                    "time": 123.71795800000012,
                    "velocity": 0.2440944881889764,
                    "duration": 0.6477380000000039
                },
                {
                    "name": "G3",
                    "midi": 55,
                    "time": 124.36569600000013,
                    "velocity": 0.30708661417322836,
                    "duration": 0.6477380000000039
                },
                {
                    "name": "B3",
                    "midi": 59,
                    "time": 124.36569600000013,
                    "velocity": 0.36220472440944884,
                    "duration": 0.6477380000000039
                },
                {
                    "name": "E4",
                    "midi": 64,
                    "time": 125.01343400000013,
                    "velocity": 0.3543307086614173,
                    "duration": 0.6477380000000039
                },
                {
                    "name": "A3",
                    "midi": 57,
                    "time": 125.01343400000013,
                    "velocity": 0.2992125984251969,
                    "duration": 0.6477380000000039
                },
                {
                    "name": "B3",
                    "midi": 59,
                    "time": 125.66117200000014,
                    "velocity": 0.3464566929133858,
                    "duration": 0.6477380000000039
                },
                {
                    "name": "G4",
                    "midi": 67,
                    "time": 125.66117200000014,
                    "velocity": 0.4094488188976378,
                    "duration": 0.6477380000000039
                },
                {
                    "name": "A3",
                    "midi": 57,
                    "time": 126.30891000000014,
                    "velocity": 0.2992125984251969,
                    "duration": 0.6477380000000039
                },
                {
                    "name": "E4",
                    "midi": 64,
                    "time": 126.30891000000014,
                    "velocity": 0.3543307086614173,
                    "duration": 0.6477380000000039
                },
                {
                    "name": "G3",
                    "midi": 55,
                    "time": 126.95664800000014,
                    "velocity": 0.33070866141732286,
                    "duration": 0.6477380000000039
                },
                {
                    "name": "B3",
                    "midi": 59,
                    "time": 126.95664800000014,
                    "velocity": 0.3937007874015748,
                    "duration": 0.6477380000000039
                },
                {
                    "name": "A3",
                    "midi": 57,
                    "time": 127.60438600000015,
                    "velocity": 0.33858267716535434,
                    "duration": 0.6477380000000039
                },
                {
                    "name": "E3",
                    "midi": 52,
                    "time": 127.60438600000015,
                    "velocity": 0.28346456692913385,
                    "duration": 0.6477380000000039
                },
                {
                    "name": "B3",
                    "midi": 59,
                    "time": 128.25212400000015,
                    "velocity": 0.3700787401574803,
                    "duration": 1.9432140000000118
                },
                {
                    "name": "G3",
                    "midi": 55,
                    "time": 128.25212400000015,
                    "velocity": 0.30708661417322836,
                    "duration": 1.9432140000000118
                },
                {
                    "name": "A3",
                    "midi": 57,
                    "time": 130.19533800000016,
                    "velocity": 0.3543307086614173,
                    "duration": 0.6477380000000039
                },
                {
                    "name": "E3",
                    "midi": 52,
                    "time": 130.19533800000016,
                    "velocity": 0.2992125984251969,
                    "duration": 0.6477380000000039
                },
                {
                    "name": "B3",
                    "midi": 59,
                    "time": 130.84307600000017,
                    "velocity": 0.4094488188976378,
                    "duration": 0.6477380000000039
                },
                {
                    "name": "G3",
                    "midi": 55,
                    "time": 130.84307600000017,
                    "velocity": 0.29133858267716534,
                    "duration": 0.6477380000000039
                },
                {
                    "name": "E4",
                    "midi": 64,
                    "time": 131.49081400000017,
                    "velocity": 0.3937007874015748,
                    "duration": 0.6477380000000039
                },
                {
                    "name": "A3",
                    "midi": 57,
                    "time": 131.49081400000017,
                    "velocity": 0.33070866141732286,
                    "duration": 0.6477380000000039
                },
                {
                    "name": "B3",
                    "midi": 59,
                    "time": 132.13855200000017,
                    "velocity": 0.4251968503937008,
                    "duration": 1.2954760000000078
                },
                {
                    "name": "G3",
                    "midi": 55,
                    "time": 132.13855200000017,
                    "velocity": 0.3543307086614173,
                    "duration": 1.2954760000000078
                },
                {
                    "name": "E3",
                    "midi": 52,
                    "time": 133.43402800000018,
                    "velocity": 0.23622047244094488,
                    "duration": 0.6477380000000039
                },
                {
                    "name": "A3",
                    "midi": 57,
                    "time": 133.43402800000018,
                    "velocity": 0.33858267716535434,
                    "duration": 0.6477380000000039
                },
                {
                    "name": "B3",
                    "midi": 59,
                    "time": 134.0817660000002,
                    "velocity": 0.33070866141732286,
                    "duration": 0.6477380000000039
                },
                {
                    "name": "G3",
                    "midi": 55,
                    "time": 134.0817660000002,
                    "velocity": 0.2755905511811024,
                    "duration": 0.6477380000000039
                },
                {
                    "name": "A#3",
                    "midi": 58,
                    "time": 134.7295040000002,
                    "velocity": 0.3779527559055118,
                    "duration": 2.5909520000000157
                },
                {
                    "name": "C#4",
                    "midi": 61,
                    "time": 134.7295040000002,
                    "velocity": 0.3779527559055118,
                    "duration": 0.6342434583333443
                },
                {
                    "name": "C#3",
                    "midi": 49,
                    "time": 137.6443250000002,
                    "velocity": 0.23622047244094488,
                    "duration": 0.32386900000000196
                },
                {
                    "name": "C#4",
                    "midi": 61,
                    "time": 137.9681940000002,
                    "velocity": 0.2992125984251969,
                    "duration": 0.32386900000000196
                },
                {
                    "name": "A#3",
                    "midi": 58,
                    "time": 137.9681940000002,
                    "velocity": 0.2992125984251969,
                    "duration": 0.32386900000000196
                },
                {
                    "name": "C#3",
                    "midi": 49,
                    "time": 138.2920630000002,
                    "velocity": 0.23622047244094488,
                    "duration": 0.9716070000000059
                },
                {
                    "name": "C#3",
                    "midi": 49,
                    "time": 139.26367000000022,
                    "velocity": 0.25984251968503935,
                    "duration": 0.32386900000000196
                },
                {
                    "name": "C#3",
                    "midi": 49,
                    "time": 140.23527700000022,
                    "velocity": 0.23622047244094488,
                    "duration": 0.32386900000000196
                },
                {
                    "name": "C#4",
                    "midi": 61,
                    "time": 140.55914600000023,
                    "velocity": 0.2992125984251969,
                    "duration": 0.32386900000000196
                },
                {
                    "name": "A#3",
                    "midi": 58,
                    "time": 140.55914600000023,
                    "velocity": 0.2992125984251969,
                    "duration": 0.32386900000000196
                },
                {
                    "name": "C#3",
                    "midi": 49,
                    "time": 140.88301500000023,
                    "velocity": 0.23622047244094488,
                    "duration": 0.32386900000000196
                },
                {
                    "name": "C#3",
                    "midi": 49,
                    "time": 141.53075300000023,
                    "velocity": 0.29133858267716534,
                    "duration": 0.16193450000000098
                },
                {
                    "name": "C#3",
                    "midi": 49,
                    "time": 142.17849100000024,
                    "velocity": 0.3228346456692913,
                    "duration": 0.16193450000000098
                },
                {
                    "name": "C#3",
                    "midi": 49,
                    "time": 142.82622900000024,
                    "velocity": 0.23622047244094488,
                    "duration": 0.32386900000000196
                },
                {
                    "name": "C#4",
                    "midi": 61,
                    "time": 143.15009800000024,
                    "velocity": 0.2992125984251969,
                    "duration": 0.32386900000000196
                },
                {
                    "name": "A#3",
                    "midi": 58,
                    "time": 143.15009800000024,
                    "velocity": 0.2992125984251969,
                    "duration": 0.32386900000000196
                },
                {
                    "name": "C#3",
                    "midi": 49,
                    "time": 143.47396700000024,
                    "velocity": 0.23622047244094488,
                    "duration": 0.9716070000000059
                },
                {
                    "name": "C#3",
                    "midi": 49,
                    "time": 144.44557400000025,
                    "velocity": 0.25984251968503935,
                    "duration": 0.32386900000000196
                },
                {
                    "name": "D#3",
                    "midi": 51,
                    "time": 145.09331200000025,
                    "velocity": 0.23622047244094488,
                    "duration": 1.2954760000000078
                },
                {
                    "name": "A#3",
                    "midi": 58,
                    "time": 145.09331200000025,
                    "velocity": 0.23622047244094488,
                    "duration": 1.2954760000000078
                },
                {
                    "name": "D#4",
                    "midi": 63,
                    "time": 145.09331200000025,
                    "velocity": 0.4015748031496063,
                    "duration": 0.6477380000000039
                },
                {
                    "name": "D#4",
                    "midi": 63,
                    "time": 145.74105000000026,
                    "velocity": 0.3700787401574803,
                    "duration": 0.16193450000000098
                },
                {
                    "name": "D#4",
                    "midi": 63,
                    "time": 146.06491900000026,
                    "velocity": 0.31496062992125984,
                    "duration": 0.16193450000000098
                },
                {
                    "name": "F3",
                    "midi": 53,
                    "time": 146.38878800000026,
                    "velocity": 0.2125984251968504,
                    "duration": 1.2954760000000078
                },
                {
                    "name": "A#3",
                    "midi": 58,
                    "time": 146.38878800000026,
                    "velocity": 0.2125984251968504,
                    "duration": 1.2954760000000078
                },
                {
                    "name": "C#4",
                    "midi": 61,
                    "time": 146.38878800000026,
                    "velocity": 0.36220472440944884,
                    "duration": 0.16193450000000098
                },
                {
                    "name": "C#4",
                    "midi": 61,
                    "time": 146.71265700000026,
                    "velocity": 0.31496062992125984,
                    "duration": 0.16193450000000098
                },
                {
                    "name": "C#4",
                    "midi": 61,
                    "time": 147.03652600000026,
                    "velocity": 0.36220472440944884,
                    "duration": 0.16193450000000098
                },
                {
                    "name": "C#4",
                    "midi": 61,
                    "time": 147.36039500000027,
                    "velocity": 0.3228346456692913,
                    "duration": 0.16193450000000098
                },
                {
                    "name": "F#3",
                    "midi": 54,
                    "time": 147.68426400000027,
                    "velocity": 0.23622047244094488,
                    "duration": 0.6477380000000039
                },
                {
                    "name": "A#3",
                    "midi": 58,
                    "time": 147.68426400000027,
                    "velocity": 0.23622047244094488,
                    "duration": 1.2954760000000078
                },
                {
                    "name": "C4",
                    "midi": 60,
                    "time": 147.68426400000027,
                    "velocity": 0.4015748031496063,
                    "duration": 0.6477380000000039
                },
                {
                    "name": "G3",
                    "midi": 55,
                    "time": 148.33200200000027,
                    "velocity": 0.1968503937007874,
                    "duration": 0.6477380000000039
                },
                {
                    "name": "C4",
                    "midi": 60,
                    "time": 148.33200200000027,
                    "velocity": 0.3464566929133858,
                    "duration": 0.16193450000000098
                },
                {
                    "name": "C4",
                    "midi": 60,
                    "time": 148.65587100000027,
                    "velocity": 0.25984251968503935,
                    "duration": 0.16193450000000098
                },
                {
                    "name": "G#3",
                    "midi": 56,
                    "time": 148.97974000000028,
                    "velocity": 0.18110236220472442,
                    "duration": 1.2954760000000078
                },
                {
                    "name": "B3",
                    "midi": 59,
                    "time": 148.97974000000028,
                    "velocity": 0.30708661417322836,
                    "duration": 1.2954760000000078
                },
                {
                    "name": "F#4",
                    "midi": 66,
                    "time": 149.62747800000028,
                    "velocity": 0.3937007874015748,
                    "duration": 0.6477380000000039
                },
                {
                    "name": "D#4",
                    "midi": 63,
                    "time": 150.27521600000028,
                    "velocity": 0.31496062992125984,
                    "duration": 5.181904000000003
                },
                {
                    "name": "A#3",
                    "midi": 58,
                    "time": 150.27521600000028,
                    "velocity": 0.29133858267716534,
                    "duration": 3.8796807291666653
                },
                {
                    "name": "D#3",
                    "midi": 51,
                    "time": 150.27521600000028,
                    "velocity": 0.29133858267716534,
                    "duration": 5.181904000000003
                },
                {
                    "name": "A#4",
                    "midi": 70,
                    "time": 151.5706920000003,
                    "velocity": 0.29133858267716534,
                    "duration": 0.32386900000000196
                },
                {
                    "name": "A#4",
                    "midi": 70,
                    "time": 151.8945610000003,
                    "velocity": 0.3543307086614173,
                    "duration": 0.32386900000000196
                },
                {
                    "name": "A#3",
                    "midi": 58,
                    "time": 154.16164400000028,
                    "velocity": 0.31496062992125984,
                    "duration": 0.32386900000000196
                },
                {
                    "name": "A#3",
                    "midi": 58,
                    "time": 154.48551300000028,
                    "velocity": 0.25984251968503935,
                    "duration": 0.32386900000000196
                },
                {
                    "name": "D#4",
                    "midi": 63,
                    "time": 155.4571200000003,
                    "velocity": 0.25984251968503935,
                    "duration": 5.181904000000003
                },
                {
                    "name": "A#3",
                    "midi": 58,
                    "time": 155.4571200000003,
                    "velocity": 0.25984251968503935,
                    "duration": 3.8796807291666653
                },
                {
                    "name": "D#3",
                    "midi": 51,
                    "time": 155.4571200000003,
                    "velocity": 0.25984251968503935,
                    "duration": 5.181904000000003
                },
                {
                    "name": "A#4",
                    "midi": 70,
                    "time": 156.7525960000003,
                    "velocity": 0.2440944881889764,
                    "duration": 0.32386900000000196
                },
                {
                    "name": "A#4",
                    "midi": 70,
                    "time": 157.0764650000003,
                    "velocity": 0.29133858267716534,
                    "duration": 0.32386900000000196
                },
                {
                    "name": "A#3",
                    "midi": 58,
                    "time": 159.34354800000028,
                    "velocity": 0.23622047244094488,
                    "duration": 0.32386900000000196
                },
                {
                    "name": "A#3",
                    "midi": 58,
                    "time": 159.66741700000028,
                    "velocity": 0.1889763779527559,
                    "duration": 0.32386900000000196
                },
                {
                    "name": "A#4",
                    "midi": 70,
                    "time": 160.6390240000003,
                    "velocity": 0.23622047244094488,
                    "duration": 0.6477380000000039
                },
                {
                    "name": "F5",
                    "midi": 77,
                    "time": 160.6390240000003,
                    "velocity": 0.25984251968503935,
                    "duration": 0.6477380000000039
                },
                {
                    "name": "A#4",
                    "midi": 70,
                    "time": 161.2867620000003,
                    "velocity": 0.23622047244094488,
                    "duration": 0.16193450000000098
                },
                {
                    "name": "D5",
                    "midi": 74,
                    "time": 161.2867620000003,
                    "velocity": 0.30708661417322836,
                    "duration": 1.2954760000000078
                },
                {
                    "name": "A#4",
                    "midi": 70,
                    "time": 161.6106310000003,
                    "velocity": 0.23622047244094488,
                    "duration": 0.16193450000000098
                },
                {
                    "name": "A4",
                    "midi": 69,
                    "time": 161.9345000000003,
                    "velocity": 0.23622047244094488,
                    "duration": 0.16193450000000098
                },
                {
                    "name": "A4",
                    "midi": 69,
                    "time": 162.2583690000003,
                    "velocity": 0.23622047244094488,
                    "duration": 0.16193450000000098
                },
                {
                    "name": "A4",
                    "midi": 69,
                    "time": 162.5822380000003,
                    "velocity": 0.2204724409448819,
                    "duration": 0.16193450000000098
                },
                {
                    "name": "F5",
                    "midi": 77,
                    "time": 162.5822380000003,
                    "velocity": 0.29133858267716534,
                    "duration": 0.32386900000000196
                },
                {
                    "name": "A4",
                    "midi": 69,
                    "time": 162.9061070000003,
                    "velocity": 0.2204724409448819,
                    "duration": 0.16193450000000098
                },
                {
                    "name": "G5",
                    "midi": 79,
                    "time": 162.9061070000003,
                    "velocity": 0.29133858267716534,
                    "duration": 0.32386900000000196
                },
                {
                    "name": "G4",
                    "midi": 67,
                    "time": 163.2299760000003,
                    "velocity": 0.23622047244094488,
                    "duration": 0.6477380000000039
                },
                {
                    "name": "C5",
                    "midi": 72,
                    "time": 163.2299760000003,
                    "velocity": 0.30708661417322836,
                    "duration": 0.32386900000000196
                },
                {
                    "name": "D5",
                    "midi": 74,
                    "time": 163.5538450000003,
                    "velocity": 0.25984251968503935,
                    "duration": 0.32386900000000196
                },
                {
                    "name": "G4",
                    "midi": 67,
                    "time": 163.8777140000003,
                    "velocity": 0.23622047244094488,
                    "duration": 0.16193450000000098
                },
                {
                    "name": "F5",
                    "midi": 77,
                    "time": 163.8777140000003,
                    "velocity": 0.30708661417322836,
                    "duration": 1.2954760000000078
                },
                {
                    "name": "G4",
                    "midi": 67,
                    "time": 164.2015830000003,
                    "velocity": 0.23622047244094488,
                    "duration": 0.16193450000000098
                },
                {
                    "name": "F4",
                    "midi": 65,
                    "time": 164.5254520000003,
                    "velocity": 0.23622047244094488,
                    "duration": 0.6477380000000039
                },
                {
                    "name": "D5",
                    "midi": 74,
                    "time": 165.17319000000032,
                    "velocity": 0.25984251968503935,
                    "duration": 0.6477379999999755
                },
                {
                    "name": "C5",
                    "midi": 72,
                    "time": 165.49705900000032,
                    "velocity": 0.2125984251968504,
                    "duration": 0.29687991666665425
                },
                {
                    "name": "C5",
                    "midi": 72,
                    "time": 165.8209280000003,
                    "velocity": 0.29133858267716534,
                    "duration": 0.32386900000000196
                },
                {
                    "name": "A#4",
                    "midi": 70,
                    "time": 165.8209280000003,
                    "velocity": 0.23622047244094488,
                    "duration": 0.6477379999999755
                },
                {
                    "name": "D5",
                    "midi": 74,
                    "time": 166.1447970000003,
                    "velocity": 0.23622047244094488,
                    "duration": 0.29687991666665425
                },
                {
                    "name": "D5",
                    "midi": 74,
                    "time": 166.46866600000027,
                    "velocity": 0.2677165354330709,
                    "duration": 0.6477380000000039
                },
                {
                    "name": "A#4",
                    "midi": 70,
                    "time": 166.46866600000027,
                    "velocity": 0.23622047244094488,
                    "duration": 0.16193450000000098
                },
                {
                    "name": "A#4",
                    "midi": 70,
                    "time": 166.79253500000027,
                    "velocity": 0.23622047244094488,
                    "duration": 0.16193450000000098
                },
                {
                    "name": "C5",
                    "midi": 72,
                    "time": 167.11640400000027,
                    "velocity": 0.2677165354330709,
                    "duration": 0.6477380000000039
                },
                {
                    "name": "A4",
                    "midi": 69,
                    "time": 167.11640400000027,
                    "velocity": 0.23622047244094488,
                    "duration": 0.16193450000000098
                },
                {
                    "name": "A4",
                    "midi": 69,
                    "time": 167.44027300000027,
                    "velocity": 0.23622047244094488,
                    "duration": 0.16193450000000098
                },
                {
                    "name": "A4",
                    "midi": 69,
                    "time": 167.76414200000028,
                    "velocity": 0.2204724409448819,
                    "duration": 0.16193450000000098
                },
                {
                    "name": "F5",
                    "midi": 77,
                    "time": 167.76414200000028,
                    "velocity": 0.2992125984251969,
                    "duration": 0.6477380000000039
                },
                {
                    "name": "A4",
                    "midi": 69,
                    "time": 168.08801100000028,
                    "velocity": 0.2204724409448819,
                    "duration": 0.16193450000000098
                },
                {
                    "name": "D5",
                    "midi": 74,
                    "time": 168.41188000000028,
                    "velocity": 0.2440944881889764,
                    "duration": 2.5909520000000157
                },
                {
                    "name": "G4",
                    "midi": 67,
                    "time": 168.41188000000028,
                    "velocity": 0.23622047244094488,
                    "duration": 0.6477380000000039
                },
                {
                    "name": "G4",
                    "midi": 67,
                    "time": 169.05961800000028,
                    "velocity": 0.23622047244094488,
                    "duration": 0.16193450000000098
                },
                {
                    "name": "G4",
                    "midi": 67,
                    "time": 169.3834870000003,
                    "velocity": 0.23622047244094488,
                    "duration": 0.16193450000000098
                },
                {
                    "name": "F4",
                    "midi": 65,
                    "time": 169.7073560000003,
                    "velocity": 0.23622047244094488,
                    "duration": 0.6477380000000039
                },
                {
                    "name": "D4",
                    "midi": 62,
                    "time": 170.3550940000003,
                    "velocity": 0.23622047244094488,
                    "duration": 0.6477380000000039
                },
                {
                    "name": "C5",
                    "midi": 72,
                    "time": 170.3550940000003,
                    "velocity": 0.2440944881889764,
                    "duration": 0.32386900000000196
                },
                {
                    "name": "A4",
                    "midi": 69,
                    "time": 170.6789630000003,
                    "velocity": 0.2204724409448819,
                    "duration": 0.32386900000000196
                },
                {
                    "name": "D4",
                    "midi": 62,
                    "time": 171.0028320000003,
                    "velocity": 0.16535433070866143,
                    "duration": 2.5909520000000157
                },
                {
                    "name": "G4",
                    "midi": 67,
                    "time": 171.0028320000003,
                    "velocity": 0.2440944881889764,
                    "duration": 0.32386900000000196
                },
                {
                    "name": "C4",
                    "midi": 60,
                    "time": 171.0028320000003,
                    "velocity": 0.16535433070866143,
                    "duration": 2.5909520000000157
                },
                {
                    "name": "F4",
                    "midi": 65,
                    "time": 171.3267010000003,
                    "velocity": 0.23622047244094488,
                    "duration": 0.32386900000000196
                },
                {
                    "name": "G4",
                    "midi": 67,
                    "time": 171.6505700000003,
                    "velocity": 0.2440944881889764,
                    "duration": 1.2954760000000078
                },
                {
                    "name": "A4",
                    "midi": 69,
                    "time": 172.9460460000003,
                    "velocity": 0.28346456692913385,
                    "duration": 0.32386900000000196
                },
                {
                    "name": "C5",
                    "midi": 72,
                    "time": 173.2699150000003,
                    "velocity": 0.2440944881889764,
                    "duration": 0.32386900000000196
                },
                {
                    "name": "G4",
                    "midi": 67,
                    "time": 173.5937840000003,
                    "velocity": 0.31496062992125984,
                    "duration": 0.6477380000000039
                },
                {
                    "name": "D4",
                    "midi": 62,
                    "time": 173.5937840000003,
                    "velocity": 0.16535433070866143,
                    "duration": 2.5909520000000157
                },
                {
                    "name": "C4",
                    "midi": 60,
                    "time": 173.5937840000003,
                    "velocity": 0.16535433070866143,
                    "duration": 2.5909520000000157
                },
                {
                    "name": "D5",
                    "midi": 74,
                    "time": 174.24152200000032,
                    "velocity": 0.31496062992125984,
                    "duration": 0.6477380000000039
                },
                {
                    "name": "C5",
                    "midi": 72,
                    "time": 174.88926000000032,
                    "velocity": 0.2677165354330709,
                    "duration": 0.6477380000000039
                },
                {
                    "name": "A4",
                    "midi": 69,
                    "time": 175.53699800000032,
                    "velocity": 0.2440944881889764,
                    "duration": 0.6477380000000039
                },
                {
                    "name": "D4",
                    "midi": 62,
                    "time": 176.18473600000033,
                    "velocity": 0.16535433070866143,
                    "duration": 2.5909520000000157
                },
                {
                    "name": "C4",
                    "midi": 60,
                    "time": 176.18473600000033,
                    "velocity": 0.16535433070866143,
                    "duration": 2.5909520000000157
                },
                {
                    "name": "G4",
                    "midi": 67,
                    "time": 176.18473600000033,
                    "velocity": 0.23622047244094488,
                    "duration": 0.32386900000000196
                },
                {
                    "name": "F4",
                    "midi": 65,
                    "time": 176.50860500000033,
                    "velocity": 0.1968503937007874,
                    "duration": 0.32386900000000196
                },
                {
                    "name": "G4",
                    "midi": 67,
                    "time": 176.83247400000033,
                    "velocity": 0.2440944881889764,
                    "duration": 0.6477380000000039
                },
                {
                    "name": "A4",
                    "midi": 69,
                    "time": 177.48021200000034,
                    "velocity": 0.2677165354330709,
                    "duration": 0.6477380000000039
                },
                {
                    "name": "C5",
                    "midi": 72,
                    "time": 178.12795000000034,
                    "velocity": 0.30708661417322836,
                    "duration": 0.6477380000000039
                },
                {
                    "name": "C4",
                    "midi": 60,
                    "time": 178.77568800000034,
                    "velocity": 0.16535433070866143,
                    "duration": 5.181904000000003
                },
                {
                    "name": "G4",
                    "midi": 67,
                    "time": 178.77568800000034,
                    "velocity": 0.25984251968503935,
                    "duration": 4.858035000000001
                },
                {
                    "name": "D4",
                    "midi": 62,
                    "time": 178.77568800000034,
                    "velocity": 0.16535433070866143,
                    "duration": 5.181904000000003
                },
                {
                    "name": "F4",
                    "midi": 65,
                    "time": 183.63372300000034,
                    "velocity": 0.23622047244094488,
                    "duration": 0.32386900000000196
                },
                {
                    "name": "C4",
                    "midi": 60,
                    "time": 183.95759200000035,
                    "velocity": 0.16535433070866143,
                    "duration": 4.534165999999999
                },
                {
                    "name": "G4",
                    "midi": 67,
                    "time": 183.95759200000035,
                    "velocity": 0.2440944881889764,
                    "duration": 4.534165999999999
                },
                {
                    "name": "D4",
                    "midi": 62,
                    "time": 183.95759200000035,
                    "velocity": 0.16535433070866143,
                    "duration": 4.534165999999999
                },
                {
                    "name": "C3",
                    "midi": 48,
                    "time": 189.13949600000035,
                    "velocity": 0.16535433070866143,
                    "duration": 2.5909519999999873
                },
                {
                    "name": "D3",
                    "midi": 50,
                    "time": 189.13949600000035,
                    "velocity": 0.2204724409448819,
                    "duration": 2.5909519999999873
                },
                {
                    "name": "C3",
                    "midi": 48,
                    "time": 191.73044800000034,
                    "velocity": 0.16535433070866143,
                    "duration": 2.5909519999999873
                },
                {
                    "name": "D3",
                    "midi": 50,
                    "time": 191.73044800000034,
                    "velocity": 0.2204724409448819,
                    "duration": 2.5909519999999873
                },
                {
                    "name": "C3",
                    "midi": 48,
                    "time": 194.32140000000032,
                    "velocity": 0.16535433070866143,
                    "duration": 5.181904000000003
                },
                {
                    "name": "D3",
                    "midi": 50,
                    "time": 194.32140000000032,
                    "velocity": 0.2204724409448819,
                    "duration": 5.181904000000003
                },
                {
                    "name": "F3",
                    "midi": 53,
                    "time": 199.50330400000033,
                    "velocity": 0.16535433070866143,
                    "duration": 7.772856000000019
                },
                {
                    "name": "G3",
                    "midi": 55,
                    "time": 199.50330400000033,
                    "velocity": 0.2204724409448819,
                    "duration": 7.772856000000019
                },
                {
                    "name": "D#5",
                    "midi": 75,
                    "time": 200.79878000000033,
                    "velocity": 0.29133858267716534,
                    "duration": 1.2954760000000078
                },
                {
                    "name": "C#5",
                    "midi": 73,
                    "time": 203.38973200000035,
                    "velocity": 0.28346456692913385,
                    "duration": 1.2954760000000078
                }
            ],
            "controlChanges": {},
            "id": 1,
            "name": "Piano right",
            "instrumentNumber": 0,
            "instrument": "acoustic grand piano",
            "instrumentFamily": "piano",
            "channelNumber": 0,
            "isPercussion": false
        },
        {
            "startTime": 0,
            "duration": 207.60002900000063,
            "length": 340,
            "notes": [
                {
                    "name": "F2",
                    "midi": 41,
                    "time": 0,
                    "velocity": 0.2677165354330709,
                    "duration": 0.647738
                },
                {
                    "name": "D2",
                    "midi": 38,
                    "time": 0.647738,
                    "velocity": 0.31496062992125984,
                    "duration": 1.2954760000000003
                },
                {
                    "name": "F2",
                    "midi": 41,
                    "time": 1.9432140000000002,
                    "velocity": 0.2992125984251969,
                    "duration": 0.3238690000000002
                },
                {
                    "name": "G2",
                    "midi": 43,
                    "time": 2.2670830000000004,
                    "velocity": 0.2992125984251969,
                    "duration": 0.3238690000000002
                },
                {
                    "name": "C2",
                    "midi": 36,
                    "time": 2.5909520000000006,
                    "velocity": 0.31496062992125984,
                    "duration": 0.3238690000000002
                },
                {
                    "name": "D2",
                    "midi": 38,
                    "time": 2.9148210000000008,
                    "velocity": 0.2677165354330709,
                    "duration": 0.3238690000000002
                },
                {
                    "name": "F2",
                    "midi": 41,
                    "time": 3.238690000000001,
                    "velocity": 0.31496062992125984,
                    "duration": 1.2954759999999998
                },
                {
                    "name": "D2",
                    "midi": 38,
                    "time": 4.534166000000001,
                    "velocity": 0.2677165354330709,
                    "duration": 0.3238690000000002
                },
                {
                    "name": "C2",
                    "midi": 36,
                    "time": 4.858035000000001,
                    "velocity": 0.2440944881889764,
                    "duration": 0.2968799166666667
                },
                {
                    "name": "C2",
                    "midi": 36,
                    "time": 5.181904000000001,
                    "velocity": 0.2992125984251969,
                    "duration": 0.3238690000000002
                },
                {
                    "name": "D2",
                    "midi": 38,
                    "time": 5.505773000000001,
                    "velocity": 0.25196850393700787,
                    "duration": 0.2968799166666667
                },
                {
                    "name": "D2",
                    "midi": 38,
                    "time": 5.8296420000000015,
                    "velocity": 0.2755905511811024,
                    "duration": 0.6477380000000004
                },
                {
                    "name": "C2",
                    "midi": 36,
                    "time": 6.477380000000002,
                    "velocity": 0.2755905511811024,
                    "duration": 0.6477380000000004
                },
                {
                    "name": "F2",
                    "midi": 41,
                    "time": 7.125118000000002,
                    "velocity": 0.30708661417322836,
                    "duration": 0.6477380000000004
                },
                {
                    "name": "D2",
                    "midi": 38,
                    "time": 7.772856000000003,
                    "velocity": 0.25984251968503935,
                    "duration": 4.534166000000001
                },
                {
                    "name": "C2",
                    "midi": 36,
                    "time": 12.307022000000003,
                    "velocity": 0.2440944881889764,
                    "duration": 0.3238690000000002
                },
                {
                    "name": "A1",
                    "midi": 33,
                    "time": 12.630891000000004,
                    "velocity": 0.2125984251968504,
                    "duration": 0.3238690000000002
                },
                {
                    "name": "G1",
                    "midi": 31,
                    "time": 12.954760000000004,
                    "velocity": 0.2440944881889764,
                    "duration": 0.3238690000000002
                },
                {
                    "name": "F1",
                    "midi": 29,
                    "time": 13.278629000000004,
                    "velocity": 0.2283464566929134,
                    "duration": 0.3238690000000002
                },
                {
                    "name": "G1",
                    "midi": 31,
                    "time": 13.602498000000004,
                    "velocity": 0.2440944881889764,
                    "duration": 1.2954760000000007
                },
                {
                    "name": "A1",
                    "midi": 33,
                    "time": 14.897974000000005,
                    "velocity": 0.2677165354330709,
                    "duration": 0.3238690000000002
                },
                {
                    "name": "C2",
                    "midi": 36,
                    "time": 15.221843000000005,
                    "velocity": 0.2440944881889764,
                    "duration": 0.3238690000000002
                },
                {
                    "name": "G1",
                    "midi": 31,
                    "time": 15.545712000000005,
                    "velocity": 0.2992125984251969,
                    "duration": 0.6477380000000004
                },
                {
                    "name": "D2",
                    "midi": 38,
                    "time": 16.193450000000006,
                    "velocity": 0.2992125984251969,
                    "duration": 0.6477380000000004
                },
                {
                    "name": "C2",
                    "midi": 36,
                    "time": 16.841188000000006,
                    "velocity": 0.25984251968503935,
                    "duration": 0.6477380000000004
                },
                {
                    "name": "A1",
                    "midi": 33,
                    "time": 17.488926000000006,
                    "velocity": 0.23622047244094488,
                    "duration": 0.6477380000000004
                },
                {
                    "name": "G1",
                    "midi": 31,
                    "time": 18.136664000000007,
                    "velocity": 0.2283464566929134,
                    "duration": 0.3238689999999984
                },
                {
                    "name": "F1",
                    "midi": 29,
                    "time": 18.460533000000005,
                    "velocity": 0.1889763779527559,
                    "duration": 0.3238689999999984
                },
                {
                    "name": "G1",
                    "midi": 31,
                    "time": 18.784402000000004,
                    "velocity": 0.23622047244094488,
                    "duration": 0.6477380000000004
                },
                {
                    "name": "A1",
                    "midi": 33,
                    "time": 19.432140000000004,
                    "velocity": 0.25984251968503935,
                    "duration": 0.6477380000000004
                },
                {
                    "name": "C2",
                    "midi": 36,
                    "time": 20.079878000000004,
                    "velocity": 0.29133858267716534,
                    "duration": 0.6477380000000004
                },
                {
                    "name": "G1",
                    "midi": 31,
                    "time": 20.727616000000005,
                    "velocity": 0.23622047244094488,
                    "duration": 5.181904000000003
                },
                {
                    "name": "G3",
                    "midi": 55,
                    "time": 22.023092000000005,
                    "velocity": 0.11023622047244094,
                    "duration": 0.16193450000000098
                },
                {
                    "name": "F3",
                    "midi": 53,
                    "time": 22.023092000000005,
                    "velocity": 0.08661417322834646,
                    "duration": 0.16193450000000098
                },
                {
                    "name": "G3",
                    "midi": 55,
                    "time": 22.346961000000007,
                    "velocity": 0.11023622047244094,
                    "duration": 1.6193449999999991
                },
                {
                    "name": "F3",
                    "midi": 53,
                    "time": 22.346961000000007,
                    "velocity": 0.08661417322834646,
                    "duration": 1.6193449999999991
                },
                {
                    "name": "F3",
                    "midi": 53,
                    "time": 23.966306000000007,
                    "velocity": 0.08661417322834646,
                    "duration": 2.5909520000000015
                },
                {
                    "name": "G3",
                    "midi": 55,
                    "time": 23.966306000000007,
                    "velocity": 0.11023622047244094,
                    "duration": 2.5909520000000015
                },
                {
                    "name": "F3",
                    "midi": 53,
                    "time": 26.557258000000008,
                    "velocity": 0.08661417322834646,
                    "duration": 2.5909520000000015
                },
                {
                    "name": "G3",
                    "midi": 55,
                    "time": 26.557258000000008,
                    "velocity": 0.11023622047244094,
                    "duration": 2.5909520000000015
                },
                {
                    "name": "F3",
                    "midi": 53,
                    "time": 29.14821000000001,
                    "velocity": 0.08661417322834646,
                    "duration": 2.5909520000000015
                },
                {
                    "name": "G3",
                    "midi": 55,
                    "time": 29.14821000000001,
                    "velocity": 0.11023622047244094,
                    "duration": 2.5909520000000015
                },
                {
                    "name": "F3",
                    "midi": 53,
                    "time": 31.73916200000001,
                    "velocity": 0.08661417322834646,
                    "duration": 2.590951999999998
                },
                {
                    "name": "G3",
                    "midi": 55,
                    "time": 31.73916200000001,
                    "velocity": 0.11023622047244094,
                    "duration": 2.590951999999998
                },
                {
                    "name": "F3",
                    "midi": 53,
                    "time": 34.33011400000001,
                    "velocity": 0.08661417322834646,
                    "duration": 1.9432139999999976
                },
                {
                    "name": "G3",
                    "midi": 55,
                    "time": 34.33011400000001,
                    "velocity": 0.11023622047244094,
                    "duration": 1.9432139999999976
                },
                {
                    "name": "D#2",
                    "midi": 39,
                    "time": 36.27332800000001,
                    "velocity": 0.2047244094488189,
                    "duration": 2.5909520000000015
                },
                {
                    "name": "C#2",
                    "midi": 37,
                    "time": 38.86428000000001,
                    "velocity": 0.2047244094488189,
                    "duration": 3.886428000000002
                },
                {
                    "name": "A#1",
                    "midi": 34,
                    "time": 42.75070800000001,
                    "velocity": 0.2047244094488189,
                    "duration": 1.2954760000000007
                },
                {
                    "name": "F#1",
                    "midi": 30,
                    "time": 44.04618400000001,
                    "velocity": 0.14960629921259844,
                    "duration": 1.2954760000000007
                },
                {
                    "name": "F1",
                    "midi": 29,
                    "time": 45.34166000000001,
                    "velocity": 0.10236220472440945,
                    "duration": 0.16193450000000098
                },
                {
                    "name": "G1",
                    "midi": 31,
                    "time": 45.34166000000001,
                    "velocity": 0.11811023622047244,
                    "duration": 0.16193450000000098
                },
                {
                    "name": "F3",
                    "midi": 53,
                    "time": 46.63713600000001,
                    "velocity": 0.10236220472440945,
                    "duration": 0.6477379999999968
                },
                {
                    "name": "G3",
                    "midi": 55,
                    "time": 46.63713600000001,
                    "velocity": 0.12598425196850394,
                    "duration": 0.6477379999999968
                },
                {
                    "name": "D3",
                    "midi": 50,
                    "time": 47.28487400000001,
                    "velocity": 0.13385826771653545,
                    "duration": 0.6477379999999968
                },
                {
                    "name": "C3",
                    "midi": 48,
                    "time": 47.28487400000001,
                    "velocity": 0.11023622047244094,
                    "duration": 0.6477379999999968
                },
                {
                    "name": "F2",
                    "midi": 41,
                    "time": 47.932612000000006,
                    "velocity": 0.12598425196850394,
                    "duration": 0.6477379999999968
                },
                {
                    "name": "A#1",
                    "midi": 34,
                    "time": 48.58035,
                    "velocity": 0.12598425196850394,
                    "duration": 0.6477379999999968
                },
                {
                    "name": "F3",
                    "midi": 53,
                    "time": 49.228088,
                    "velocity": 0.10236220472440945,
                    "duration": 0.6477379999999968
                },
                {
                    "name": "G3",
                    "midi": 55,
                    "time": 49.228088,
                    "velocity": 0.12598425196850394,
                    "duration": 0.6477379999999968
                },
                {
                    "name": "D3",
                    "midi": 50,
                    "time": 49.875825999999996,
                    "velocity": 0.12598425196850394,
                    "duration": 0.6477379999999968
                },
                {
                    "name": "C3",
                    "midi": 48,
                    "time": 49.875825999999996,
                    "velocity": 0.10236220472440945,
                    "duration": 0.6477379999999968
                },
                {
                    "name": "F2",
                    "midi": 41,
                    "time": 50.52356399999999,
                    "velocity": 0.12598425196850394,
                    "duration": 0.6477379999999968
                },
                {
                    "name": "A#1",
                    "midi": 34,
                    "time": 51.17130199999999,
                    "velocity": 0.12598425196850394,
                    "duration": 0.6477379999999968
                },
                {
                    "name": "F3",
                    "midi": 53,
                    "time": 51.81903999999999,
                    "velocity": 0.10236220472440945,
                    "duration": 0.6477379999999968
                },
                {
                    "name": "G3",
                    "midi": 55,
                    "time": 51.81903999999999,
                    "velocity": 0.12598425196850394,
                    "duration": 0.6477379999999968
                },
                {
                    "name": "D3",
                    "midi": 50,
                    "time": 52.466777999999984,
                    "velocity": 0.12598425196850394,
                    "duration": 0.6477379999999968
                },
                {
                    "name": "C3",
                    "midi": 48,
                    "time": 52.466777999999984,
                    "velocity": 0.10236220472440945,
                    "duration": 0.6477379999999968
                },
                {
                    "name": "F2",
                    "midi": 41,
                    "time": 53.11451599999998,
                    "velocity": 0.12598425196850394,
                    "duration": 0.6477379999999968
                },
                {
                    "name": "A#1",
                    "midi": 34,
                    "time": 53.76225399999998,
                    "velocity": 0.12598425196850394,
                    "duration": 0.6477379999999968
                },
                {
                    "name": "F3",
                    "midi": 53,
                    "time": 54.409991999999974,
                    "velocity": 0.10236220472440945,
                    "duration": 0.6477379999999968
                },
                {
                    "name": "G3",
                    "midi": 55,
                    "time": 54.409991999999974,
                    "velocity": 0.12598425196850394,
                    "duration": 0.6477379999999968
                },
                {
                    "name": "D3",
                    "midi": 50,
                    "time": 55.05772999999997,
                    "velocity": 0.12598425196850394,
                    "duration": 0.6477379999999968
                },
                {
                    "name": "C3",
                    "midi": 48,
                    "time": 55.05772999999997,
                    "velocity": 0.10236220472440945,
                    "duration": 0.6477379999999968
                },
                {
                    "name": "F2",
                    "midi": 41,
                    "time": 55.70546799999997,
                    "velocity": 0.12598425196850394,
                    "duration": 0.6477379999999968
                },
                {
                    "name": "A#1",
                    "midi": 34,
                    "time": 56.353205999999965,
                    "velocity": 0.12598425196850394,
                    "duration": 0.6477379999999968
                },
                {
                    "name": "F3",
                    "midi": 53,
                    "time": 57.00094399999996,
                    "velocity": 0.10236220472440945,
                    "duration": 0.6477379999999968
                },
                {
                    "name": "G3",
                    "midi": 55,
                    "time": 57.00094399999996,
                    "velocity": 0.12598425196850394,
                    "duration": 0.6477379999999968
                },
                {
                    "name": "D3",
                    "midi": 50,
                    "time": 57.64868199999996,
                    "velocity": 0.12598425196850394,
                    "duration": 0.6477379999999968
                },
                {
                    "name": "C3",
                    "midi": 48,
                    "time": 57.64868199999996,
                    "velocity": 0.10236220472440945,
                    "duration": 0.6477379999999968
                },
                {
                    "name": "F2",
                    "midi": 41,
                    "time": 58.296419999999955,
                    "velocity": 0.12598425196850394,
                    "duration": 0.6477379999999968
                },
                {
                    "name": "A#1",
                    "midi": 34,
                    "time": 58.94415799999995,
                    "velocity": 0.12598425196850394,
                    "duration": 0.6477379999999968
                },
                {
                    "name": "F3",
                    "midi": 53,
                    "time": 59.59189599999995,
                    "velocity": 0.10236220472440945,
                    "duration": 0.6477379999999968
                },
                {
                    "name": "G3",
                    "midi": 55,
                    "time": 59.59189599999995,
                    "velocity": 0.12598425196850394,
                    "duration": 0.6477379999999968
                },
                {
                    "name": "D3",
                    "midi": 50,
                    "time": 60.239633999999946,
                    "velocity": 0.12598425196850394,
                    "duration": 0.6477379999999968
                },
                {
                    "name": "C3",
                    "midi": 48,
                    "time": 60.239633999999946,
                    "velocity": 0.10236220472440945,
                    "duration": 0.6477379999999968
                },
                {
                    "name": "F2",
                    "midi": 41,
                    "time": 60.88737199999994,
                    "velocity": 0.12598425196850394,
                    "duration": 0.6477379999999968
                },
                {
                    "name": "A#1",
                    "midi": 34,
                    "time": 61.53510999999994,
                    "velocity": 0.12598425196850394,
                    "duration": 0.6477379999999968
                },
                {
                    "name": "G3",
                    "midi": 55,
                    "time": 62.182847999999936,
                    "velocity": 0.12598425196850394,
                    "duration": 0.6477379999999968
                },
                {
                    "name": "F3",
                    "midi": 53,
                    "time": 62.182847999999936,
                    "velocity": 0.10236220472440945,
                    "duration": 0.6477379999999968
                },
                {
                    "name": "D3",
                    "midi": 50,
                    "time": 62.83058599999993,
                    "velocity": 0.12598425196850394,
                    "duration": 0.6477379999999968
                },
                {
                    "name": "C3",
                    "midi": 48,
                    "time": 62.83058599999993,
                    "velocity": 0.10236220472440945,
                    "duration": 0.6477379999999968
                },
                {
                    "name": "F2",
                    "midi": 41,
                    "time": 63.47832399999993,
                    "velocity": 0.12598425196850394,
                    "duration": 0.6477380000000039
                },
                {
                    "name": "A#1",
                    "midi": 34,
                    "time": 64.12606199999993,
                    "velocity": 0.12598425196850394,
                    "duration": 0.6477380000000039
                },
                {
                    "name": "G3",
                    "midi": 55,
                    "time": 64.77379999999994,
                    "velocity": 0.12598425196850394,
                    "duration": 0.6477380000000039
                },
                {
                    "name": "F3",
                    "midi": 53,
                    "time": 64.77379999999994,
                    "velocity": 0.10236220472440945,
                    "duration": 0.6477380000000039
                },
                {
                    "name": "D3",
                    "midi": 50,
                    "time": 65.42153799999994,
                    "velocity": 0.12598425196850394,
                    "duration": 0.6477380000000039
                },
                {
                    "name": "C3",
                    "midi": 48,
                    "time": 65.42153799999994,
                    "velocity": 0.10236220472440945,
                    "duration": 0.6477380000000039
                },
                {
                    "name": "F2",
                    "midi": 41,
                    "time": 66.06927599999995,
                    "velocity": 0.12598425196850394,
                    "duration": 0.6477380000000039
                },
                {
                    "name": "A#1",
                    "midi": 34,
                    "time": 66.71701399999995,
                    "velocity": 0.12598425196850394,
                    "duration": 0.6477380000000039
                },
                {
                    "name": "F3",
                    "midi": 53,
                    "time": 67.36475199999995,
                    "velocity": 0.10236220472440945,
                    "duration": 0.6477380000000039
                },
                {
                    "name": "G3",
                    "midi": 55,
                    "time": 67.36475199999995,
                    "velocity": 0.12598425196850394,
                    "duration": 0.6477380000000039
                },
                {
                    "name": "C3",
                    "midi": 48,
                    "time": 68.01248999999996,
                    "velocity": 0.10236220472440945,
                    "duration": 0.6477380000000039
                },
                {
                    "name": "D3",
                    "midi": 50,
                    "time": 68.01248999999996,
                    "velocity": 0.12598425196850394,
                    "duration": 0.6477380000000039
                },
                {
                    "name": "F2",
                    "midi": 41,
                    "time": 68.66022799999996,
                    "velocity": 0.12598425196850394,
                    "duration": 0.6477380000000039
                },
                {
                    "name": "A#1",
                    "midi": 34,
                    "time": 69.30796599999996,
                    "velocity": 0.12598425196850394,
                    "duration": 0.6477380000000039
                },
                {
                    "name": "F3",
                    "midi": 53,
                    "time": 69.95570399999997,
                    "velocity": 0.10236220472440945,
                    "duration": 0.6477380000000039
                },
                {
                    "name": "G3",
                    "midi": 55,
                    "time": 69.95570399999997,
                    "velocity": 0.12598425196850394,
                    "duration": 0.6477380000000039
                },
                {
                    "name": "C3",
                    "midi": 48,
                    "time": 70.60344199999997,
                    "velocity": 0.10236220472440945,
                    "duration": 0.6477380000000039
                },
                {
                    "name": "D3",
                    "midi": 50,
                    "time": 70.60344199999997,
                    "velocity": 0.12598425196850394,
                    "duration": 0.6477380000000039
                },
                {
                    "name": "F2",
                    "midi": 41,
                    "time": 71.25117999999998,
                    "velocity": 0.12598425196850394,
                    "duration": 0.6477380000000039
                },
                {
                    "name": "A#1",
                    "midi": 34,
                    "time": 71.89891799999998,
                    "velocity": 0.12598425196850394,
                    "duration": 0.6477380000000039
                },
                {
                    "name": "G#1",
                    "midi": 32,
                    "time": 72.54665599999998,
                    "velocity": 0.25984251968503935,
                    "duration": 2.5909520000000015
                },
                {
                    "name": "G2",
                    "midi": 43,
                    "time": 73.84213199999998,
                    "velocity": 0.2440944881889764,
                    "duration": 0.6477380000000039
                },
                {
                    "name": "G#1",
                    "midi": 32,
                    "time": 75.13760799999999,
                    "velocity": 0.25984251968503935,
                    "duration": 2.5909520000000157
                },
                {
                    "name": "F2",
                    "midi": 41,
                    "time": 75.78534599999999,
                    "velocity": 0.1968503937007874,
                    "duration": 0.16193450000000098
                },
                {
                    "name": "F2",
                    "midi": 41,
                    "time": 76.10921499999999,
                    "velocity": 0.1968503937007874,
                    "duration": 0.16193450000000098
                },
                {
                    "name": "D#2",
                    "midi": 39,
                    "time": 76.433084,
                    "velocity": 0.2440944881889764,
                    "duration": 0.6477380000000039
                },
                {
                    "name": "C3",
                    "midi": 48,
                    "time": 77.080822,
                    "velocity": 0.28346456692913385,
                    "duration": 0.32386900000000196
                },
                {
                    "name": "G#1",
                    "midi": 32,
                    "time": 77.72856,
                    "velocity": 0.25984251968503935,
                    "duration": 4.534165999999999
                },
                {
                    "name": "G2",
                    "midi": 43,
                    "time": 79.024036,
                    "velocity": 0.2440944881889764,
                    "duration": 0.6477380000000039
                },
                {
                    "name": "F2",
                    "midi": 41,
                    "time": 80.319512,
                    "velocity": 0.2440944881889764,
                    "duration": 0.6477380000000039
                },
                {
                    "name": "G#1",
                    "midi": 32,
                    "time": 82.262726,
                    "velocity": 0.2283464566929134,
                    "duration": 0.6477380000000039
                },
                {
                    "name": "G#2",
                    "midi": 44,
                    "time": 82.910464,
                    "velocity": 0.29133858267716534,
                    "duration": 0.6477380000000039
                },
                {
                    "name": "A#2",
                    "midi": 46,
                    "time": 83.55820200000001,
                    "velocity": 0.2677165354330709,
                    "duration": 0.6477380000000039
                },
                {
                    "name": "G#2",
                    "midi": 44,
                    "time": 84.20594000000001,
                    "velocity": 0.23622047244094488,
                    "duration": 0.6477380000000039
                },
                {
                    "name": "G#1",
                    "midi": 32,
                    "time": 84.85367800000002,
                    "velocity": 0.2440944881889764,
                    "duration": 0.6477380000000039
                },
                {
                    "name": "G#2",
                    "midi": 44,
                    "time": 85.50141600000002,
                    "velocity": 0.29133858267716534,
                    "duration": 0.6477380000000039
                },
                {
                    "name": "A#2",
                    "midi": 46,
                    "time": 86.14915400000002,
                    "velocity": 0.2677165354330709,
                    "duration": 0.6477380000000039
                },
                {
                    "name": "G#2",
                    "midi": 44,
                    "time": 86.79689200000003,
                    "velocity": 0.23622047244094488,
                    "duration": 0.6477380000000039
                },
                {
                    "name": "G#1",
                    "midi": 32,
                    "time": 87.44463000000003,
                    "velocity": 0.2440944881889764,
                    "duration": 0.6477380000000039
                },
                {
                    "name": "G#2",
                    "midi": 44,
                    "time": 88.09236800000004,
                    "velocity": 0.29133858267716534,
                    "duration": 0.6477380000000039
                },
                {
                    "name": "A#2",
                    "midi": 46,
                    "time": 88.74010600000004,
                    "velocity": 0.2677165354330709,
                    "duration": 0.6477380000000039
                },
                {
                    "name": "G#2",
                    "midi": 44,
                    "time": 89.38784400000004,
                    "velocity": 0.23622047244094488,
                    "duration": 0.6477380000000039
                },
                {
                    "name": "G#1",
                    "midi": 32,
                    "time": 90.03558200000005,
                    "velocity": 0.2440944881889764,
                    "duration": 0.6477380000000039
                },
                {
                    "name": "G#2",
                    "midi": 44,
                    "time": 90.68332000000005,
                    "velocity": 0.29133858267716534,
                    "duration": 0.6477380000000039
                },
                {
                    "name": "A#2",
                    "midi": 46,
                    "time": 91.33105800000006,
                    "velocity": 0.2677165354330709,
                    "duration": 0.6477380000000039
                },
                {
                    "name": "G#2",
                    "midi": 44,
                    "time": 91.97879600000006,
                    "velocity": 0.23622047244094488,
                    "duration": 0.6477380000000039
                },
                {
                    "name": "G#1",
                    "midi": 32,
                    "time": 92.62653400000006,
                    "velocity": 0.2440944881889764,
                    "duration": 0.6477380000000039
                },
                {
                    "name": "G#2",
                    "midi": 44,
                    "time": 93.27427200000007,
                    "velocity": 0.29133858267716534,
                    "duration": 0.6477380000000039
                },
                {
                    "name": "A#2",
                    "midi": 46,
                    "time": 93.92201000000007,
                    "velocity": 0.2677165354330709,
                    "duration": 0.6477380000000039
                },
                {
                    "name": "G#2",
                    "midi": 44,
                    "time": 94.56974800000008,
                    "velocity": 0.23622047244094488,
                    "duration": 0.6477380000000039
                },
                {
                    "name": "G#1",
                    "midi": 32,
                    "time": 95.21748600000008,
                    "velocity": 0.2440944881889764,
                    "duration": 0.6477380000000039
                },
                {
                    "name": "G#2",
                    "midi": 44,
                    "time": 95.86522400000008,
                    "velocity": 0.29133858267716534,
                    "duration": 0.6477380000000039
                },
                {
                    "name": "A#2",
                    "midi": 46,
                    "time": 96.51296200000009,
                    "velocity": 0.2677165354330709,
                    "duration": 0.6477380000000039
                },
                {
                    "name": "G#2",
                    "midi": 44,
                    "time": 97.16070000000009,
                    "velocity": 0.23622047244094488,
                    "duration": 0.6477380000000039
                },
                {
                    "name": "A#1",
                    "midi": 34,
                    "time": 97.8084380000001,
                    "velocity": 0.2440944881889764,
                    "duration": 0.32386900000000196
                },
                {
                    "name": "A1",
                    "midi": 33,
                    "time": 98.4561760000001,
                    "velocity": 0.2440944881889764,
                    "duration": 0.16193450000000098
                },
                {
                    "name": "A2",
                    "midi": 45,
                    "time": 98.7800450000001,
                    "velocity": 0.1889763779527559,
                    "duration": 0.16193450000000098
                },
                {
                    "name": "B1",
                    "midi": 35,
                    "time": 99.1039140000001,
                    "velocity": 0.25196850393700787,
                    "duration": 0.16193450000000098
                },
                {
                    "name": "B2",
                    "midi": 47,
                    "time": 99.4277830000001,
                    "velocity": 0.1968503937007874,
                    "duration": 0.16193450000000098
                },
                {
                    "name": "A1",
                    "midi": 33,
                    "time": 99.7516520000001,
                    "velocity": 0.2440944881889764,
                    "duration": 0.16193450000000098
                },
                {
                    "name": "A2",
                    "midi": 45,
                    "time": 100.07552100000011,
                    "velocity": 0.1968503937007874,
                    "duration": 0.16193450000000098
                },
                {
                    "name": "B1",
                    "midi": 35,
                    "time": 100.39939000000011,
                    "velocity": 0.2283464566929134,
                    "duration": 0.16193450000000098
                },
                {
                    "name": "B2",
                    "midi": 47,
                    "time": 100.72325900000011,
                    "velocity": 0.1968503937007874,
                    "duration": 0.16193450000000098
                },
                {
                    "name": "A1",
                    "midi": 33,
                    "time": 101.04712800000011,
                    "velocity": 0.2440944881889764,
                    "duration": 0.16193450000000098
                },
                {
                    "name": "A2",
                    "midi": 45,
                    "time": 101.37099700000012,
                    "velocity": 0.1889763779527559,
                    "duration": 0.16193450000000098
                },
                {
                    "name": "B1",
                    "midi": 35,
                    "time": 101.69486600000012,
                    "velocity": 0.25196850393700787,
                    "duration": 0.16193450000000098
                },
                {
                    "name": "B2",
                    "midi": 47,
                    "time": 102.01873500000012,
                    "velocity": 0.1968503937007874,
                    "duration": 0.16193450000000098
                },
                {
                    "name": "A1",
                    "midi": 33,
                    "time": 102.34260400000012,
                    "velocity": 0.2440944881889764,
                    "duration": 0.16193450000000098
                },
                {
                    "name": "A2",
                    "midi": 45,
                    "time": 102.66647300000012,
                    "velocity": 0.1968503937007874,
                    "duration": 0.16193450000000098
                },
                {
                    "name": "B1",
                    "midi": 35,
                    "time": 102.99034200000013,
                    "velocity": 0.2283464566929134,
                    "duration": 0.16193450000000098
                },
                {
                    "name": "B2",
                    "midi": 47,
                    "time": 103.31421100000013,
                    "velocity": 0.1968503937007874,
                    "duration": 0.16193450000000098
                },
                {
                    "name": "A1",
                    "midi": 33,
                    "time": 103.63808000000013,
                    "velocity": 0.2440944881889764,
                    "duration": 0.16193450000000098
                },
                {
                    "name": "A2",
                    "midi": 45,
                    "time": 103.96194900000013,
                    "velocity": 0.1889763779527559,
                    "duration": 0.16193450000000098
                },
                {
                    "name": "B1",
                    "midi": 35,
                    "time": 104.28581800000013,
                    "velocity": 0.25984251968503935,
                    "duration": 0.16193450000000098
                },
                {
                    "name": "B2",
                    "midi": 47,
                    "time": 104.60968700000014,
                    "velocity": 0.2125984251968504,
                    "duration": 0.16193450000000098
                },
                {
                    "name": "C#2",
                    "midi": 37,
                    "time": 104.93355600000014,
                    "velocity": 0.2677165354330709,
                    "duration": 0.16193450000000098
                },
                {
                    "name": "C#3",
                    "midi": 49,
                    "time": 105.25742500000014,
                    "velocity": 0.2204724409448819,
                    "duration": 0.16193450000000098
                },
                {
                    "name": "D#2",
                    "midi": 39,
                    "time": 105.58129400000014,
                    "velocity": 0.2677165354330709,
                    "duration": 0.16193450000000098
                },
                {
                    "name": "D#3",
                    "midi": 51,
                    "time": 105.90516300000014,
                    "velocity": 0.23622047244094488,
                    "duration": 0.16193450000000098
                },
                {
                    "name": "F2",
                    "midi": 41,
                    "time": 106.22903200000015,
                    "velocity": 0.31496062992125984,
                    "duration": 0.16193450000000098
                },
                {
                    "name": "F3",
                    "midi": 53,
                    "time": 106.55290100000015,
                    "velocity": 0.23622047244094488,
                    "duration": 0.16193450000000098
                },
                {
                    "name": "D#2",
                    "midi": 39,
                    "time": 106.87677000000015,
                    "velocity": 0.30708661417322836,
                    "duration": 0.16193450000000098
                },
                {
                    "name": "D#3",
                    "midi": 51,
                    "time": 107.20063900000015,
                    "velocity": 0.2283464566929134,
                    "duration": 0.16193450000000098
                },
                {
                    "name": "C#2",
                    "midi": 37,
                    "time": 107.52450800000015,
                    "velocity": 0.2755905511811024,
                    "duration": 0.16193450000000098
                },
                {
                    "name": "C#3",
                    "midi": 49,
                    "time": 107.84837700000016,
                    "velocity": 0.2204724409448819,
                    "duration": 0.16193450000000098
                },
                {
                    "name": "B1",
                    "midi": 35,
                    "time": 108.17224600000016,
                    "velocity": 0.2440944881889764,
                    "duration": 0.16193450000000098
                },
                {
                    "name": "B2",
                    "midi": 47,
                    "time": 108.49611500000016,
                    "velocity": 0.2047244094488189,
                    "duration": 0.16193450000000098
                },
                {
                    "name": "A1",
                    "midi": 33,
                    "time": 108.81998400000016,
                    "velocity": 0.2440944881889764,
                    "duration": 0.16193450000000098
                },
                {
                    "name": "A2",
                    "midi": 45,
                    "time": 109.14385300000016,
                    "velocity": 0.1889763779527559,
                    "duration": 0.16193450000000098
                },
                {
                    "name": "B1",
                    "midi": 35,
                    "time": 109.46772200000017,
                    "velocity": 0.25196850393700787,
                    "duration": 0.16193450000000098
                },
                {
                    "name": "B2",
                    "midi": 47,
                    "time": 109.79159100000017,
                    "velocity": 0.1968503937007874,
                    "duration": 0.16193450000000098
                },
                {
                    "name": "A1",
                    "midi": 33,
                    "time": 110.11546000000017,
                    "velocity": 0.2440944881889764,
                    "duration": 0.16193450000000098
                },
                {
                    "name": "A2",
                    "midi": 45,
                    "time": 110.43932900000017,
                    "velocity": 0.1968503937007874,
                    "duration": 0.16193450000000098
                },
                {
                    "name": "B1",
                    "midi": 35,
                    "time": 110.76319800000017,
                    "velocity": 0.2283464566929134,
                    "duration": 0.16193450000000098
                },
                {
                    "name": "B2",
                    "midi": 47,
                    "time": 111.08706700000018,
                    "velocity": 0.1968503937007874,
                    "duration": 0.16193450000000098
                },
                {
                    "name": "A1",
                    "midi": 33,
                    "time": 111.41093600000018,
                    "velocity": 0.2440944881889764,
                    "duration": 0.16193450000000098
                },
                {
                    "name": "A2",
                    "midi": 45,
                    "time": 111.73480500000018,
                    "velocity": 0.1889763779527559,
                    "duration": 0.16193450000000098
                },
                {
                    "name": "B1",
                    "midi": 35,
                    "time": 112.05867400000018,
                    "velocity": 0.25196850393700787,
                    "duration": 0.16193450000000098
                },
                {
                    "name": "B2",
                    "midi": 47,
                    "time": 112.38254300000018,
                    "velocity": 0.1968503937007874,
                    "duration": 0.16193450000000098
                },
                {
                    "name": "A1",
                    "midi": 33,
                    "time": 112.70641200000019,
                    "velocity": 0.2440944881889764,
                    "duration": 0.16193450000000098
                },
                {
                    "name": "A2",
                    "midi": 45,
                    "time": 113.03028100000019,
                    "velocity": 0.1968503937007874,
                    "duration": 0.16193450000000098
                },
                {
                    "name": "B1",
                    "midi": 35,
                    "time": 113.35415000000019,
                    "velocity": 0.2283464566929134,
                    "duration": 0.16193450000000098
                },
                {
                    "name": "B2",
                    "midi": 47,
                    "time": 113.67801900000019,
                    "velocity": 0.1968503937007874,
                    "duration": 0.16193450000000098
                },
                {
                    "name": "A1",
                    "midi": 33,
                    "time": 114.00188800000019,
                    "velocity": 0.2440944881889764,
                    "duration": 0.16193450000000098
                },
                {
                    "name": "A2",
                    "midi": 45,
                    "time": 114.3257570000002,
                    "velocity": 0.1889763779527559,
                    "duration": 0.16193450000000098
                },
                {
                    "name": "B1",
                    "midi": 35,
                    "time": 114.6496260000002,
                    "velocity": 0.2677165354330709,
                    "duration": 0.16193450000000098
                },
                {
                    "name": "B2",
                    "midi": 47,
                    "time": 114.9734950000002,
                    "velocity": 0.2125984251968504,
                    "duration": 0.16193450000000098
                },
                {
                    "name": "C#2",
                    "midi": 37,
                    "time": 115.2973640000002,
                    "velocity": 0.2677165354330709,
                    "duration": 0.16193450000000098
                },
                {
                    "name": "C#3",
                    "midi": 49,
                    "time": 115.6212330000002,
                    "velocity": 0.2204724409448819,
                    "duration": 0.16193450000000098
                },
                {
                    "name": "D#2",
                    "midi": 39,
                    "time": 115.9451020000002,
                    "velocity": 0.2992125984251969,
                    "duration": 0.16193450000000098
                },
                {
                    "name": "D#3",
                    "midi": 51,
                    "time": 116.2689710000002,
                    "velocity": 0.2755905511811024,
                    "duration": 0.16193450000000098
                },
                {
                    "name": "F2",
                    "midi": 41,
                    "time": 116.59284000000021,
                    "velocity": 0.31496062992125984,
                    "duration": 0.16193450000000098
                },
                {
                    "name": "F3",
                    "midi": 53,
                    "time": 116.91670900000021,
                    "velocity": 0.25984251968503935,
                    "duration": 0.16193450000000098
                },
                {
                    "name": "G2",
                    "midi": 43,
                    "time": 117.24057800000021,
                    "velocity": 0.33070866141732286,
                    "duration": 0.16193450000000098
                },
                {
                    "name": "G3",
                    "midi": 55,
                    "time": 117.56444700000021,
                    "velocity": 0.2677165354330709,
                    "duration": 0.16193450000000098
                },
                {
                    "name": "A2",
                    "midi": 45,
                    "time": 117.88831600000022,
                    "velocity": 0.3779527559055118,
                    "duration": 0.16193450000000098
                },
                {
                    "name": "A3",
                    "midi": 57,
                    "time": 118.21218500000022,
                    "velocity": 0.30708661417322836,
                    "duration": 0.16193450000000098
                },
                {
                    "name": "B2",
                    "midi": 47,
                    "time": 118.53605400000022,
                    "velocity": 0.3937007874015748,
                    "duration": 0.16193450000000098
                },
                {
                    "name": "B3",
                    "midi": 59,
                    "time": 118.85992300000022,
                    "velocity": 0.33070866141732286,
                    "duration": 0.16193450000000098
                },
                {
                    "name": "C#3",
                    "midi": 49,
                    "time": 119.18379200000022,
                    "velocity": 0.2755905511811024,
                    "duration": 0.16193450000000098
                },
                {
                    "name": "C#4",
                    "midi": 61,
                    "time": 119.50766100000023,
                    "velocity": 0.30708661417322836,
                    "duration": 0.6477380000000039
                },
                {
                    "name": "C#3",
                    "midi": 49,
                    "time": 120.47926800000023,
                    "velocity": 0.2755905511811024,
                    "duration": 0.16193450000000098
                },
                {
                    "name": "C#4",
                    "midi": 61,
                    "time": 120.80313700000023,
                    "velocity": 0.3228346456692913,
                    "duration": 0.6477380000000039
                },
                {
                    "name": "C#3",
                    "midi": 49,
                    "time": 121.77474400000024,
                    "velocity": 0.2755905511811024,
                    "duration": 0.16193450000000098
                },
                {
                    "name": "C#4",
                    "midi": 61,
                    "time": 122.09861300000024,
                    "velocity": 0.30708661417322836,
                    "duration": 0.6477380000000039
                },
                {
                    "name": "C#3",
                    "midi": 49,
                    "time": 123.07022000000025,
                    "velocity": 0.2755905511811024,
                    "duration": 0.16193450000000098
                },
                {
                    "name": "C#4",
                    "midi": 61,
                    "time": 123.39408900000025,
                    "velocity": 0.3228346456692913,
                    "duration": 0.6477380000000039
                },
                {
                    "name": "C#3",
                    "midi": 49,
                    "time": 124.36569600000026,
                    "velocity": 0.2755905511811024,
                    "duration": 0.16193450000000098
                },
                {
                    "name": "C#4",
                    "midi": 61,
                    "time": 124.68956500000026,
                    "velocity": 0.30708661417322836,
                    "duration": 0.6477380000000039
                },
                {
                    "name": "C#4",
                    "midi": 61,
                    "time": 125.66117200000026,
                    "velocity": 0.2755905511811024,
                    "duration": 0.16193450000000098
                },
                {
                    "name": "C#3",
                    "midi": 49,
                    "time": 125.98504100000027,
                    "velocity": 0.3228346456692913,
                    "duration": 0.6477380000000039
                },
                {
                    "name": "C#3",
                    "midi": 49,
                    "time": 126.95664800000027,
                    "velocity": 0.2283464566929134,
                    "duration": 0.16193450000000098
                },
                {
                    "name": "C#4",
                    "midi": 61,
                    "time": 127.28051700000027,
                    "velocity": 0.33070866141732286,
                    "duration": 0.6477380000000039
                },
                {
                    "name": "C#4",
                    "midi": 61,
                    "time": 128.25212400000026,
                    "velocity": 0.23622047244094488,
                    "duration": 0.16193450000000098
                },
                {
                    "name": "C#3",
                    "midi": 49,
                    "time": 128.57599300000027,
                    "velocity": 0.2992125984251969,
                    "duration": 0.6477380000000039
                },
                {
                    "name": "C#3",
                    "midi": 49,
                    "time": 129.54760000000027,
                    "velocity": 0.2755905511811024,
                    "duration": 0.16193450000000098
                },
                {
                    "name": "C#4",
                    "midi": 61,
                    "time": 129.87146900000027,
                    "velocity": 0.30708661417322836,
                    "duration": 0.6477380000000039
                },
                {
                    "name": "C#3",
                    "midi": 49,
                    "time": 130.84307600000028,
                    "velocity": 0.2755905511811024,
                    "duration": 1.2954760000000078
                },
                {
                    "name": "C#3",
                    "midi": 49,
                    "time": 132.1385520000003,
                    "velocity": 0.2283464566929134,
                    "duration": 0.16193450000000098
                },
                {
                    "name": "C#4",
                    "midi": 61,
                    "time": 132.4624210000003,
                    "velocity": 0.30708661417322836,
                    "duration": 0.6477380000000039
                },
                {
                    "name": "C#3",
                    "midi": 49,
                    "time": 133.4340280000003,
                    "velocity": 0.23622047244094488,
                    "duration": 1.2954760000000078
                },
                {
                    "name": "F#2",
                    "midi": 42,
                    "time": 134.7295040000003,
                    "velocity": 0.23622047244094488,
                    "duration": 2.5909520000000157
                },
                {
                    "name": "C#3",
                    "midi": 49,
                    "time": 135.0533730000003,
                    "velocity": 0.23622047244094488,
                    "duration": 0.16193450000000098
                },
                {
                    "name": "C#4",
                    "midi": 61,
                    "time": 135.3772420000003,
                    "velocity": 0.29133858267716534,
                    "duration": 0.16193450000000098
                },
                {
                    "name": "C#3",
                    "midi": 49,
                    "time": 135.7011110000003,
                    "velocity": 0.23622047244094488,
                    "duration": 0.16193450000000098
                },
                {
                    "name": "C#3",
                    "midi": 49,
                    "time": 136.0249800000003,
                    "velocity": 0.23622047244094488,
                    "duration": 0.16193450000000098
                },
                {
                    "name": "C#3",
                    "midi": 49,
                    "time": 136.3488490000003,
                    "velocity": 0.23622047244094488,
                    "duration": 0.16193450000000098
                },
                {
                    "name": "C#4",
                    "midi": 61,
                    "time": 136.67271800000032,
                    "velocity": 0.2677165354330709,
                    "duration": 0.16193450000000098
                },
                {
                    "name": "C#3",
                    "midi": 49,
                    "time": 136.99658700000032,
                    "velocity": 0.23622047244094488,
                    "duration": 0.16193450000000098
                },
                {
                    "name": "F#2",
                    "midi": 42,
                    "time": 137.32045600000032,
                    "velocity": 0.2992125984251969,
                    "duration": 0.6477380000000039
                },
                {
                    "name": "F#2",
                    "midi": 42,
                    "time": 137.96819400000032,
                    "velocity": 0.2755905511811024,
                    "duration": 0.16193450000000098
                },
                {
                    "name": "F#2",
                    "midi": 42,
                    "time": 138.29206300000033,
                    "velocity": 0.23622047244094488,
                    "duration": 0.16193450000000098
                },
                {
                    "name": "F2",
                    "midi": 41,
                    "time": 138.61593200000033,
                    "velocity": 0.2677165354330709,
                    "duration": 0.16193450000000098
                },
                {
                    "name": "F2",
                    "midi": 41,
                    "time": 138.93980100000033,
                    "velocity": 0.23622047244094488,
                    "duration": 0.16193450000000098
                },
                {
                    "name": "F2",
                    "midi": 41,
                    "time": 139.26367000000033,
                    "velocity": 0.2677165354330709,
                    "duration": 0.16193450000000098
                },
                {
                    "name": "F2",
                    "midi": 41,
                    "time": 139.58753900000033,
                    "velocity": 0.2440944881889764,
                    "duration": 0.16193450000000098
                },
                {
                    "name": "E2",
                    "midi": 40,
                    "time": 139.91140800000034,
                    "velocity": 0.2992125984251969,
                    "duration": 0.6477380000000039
                },
                {
                    "name": "E2",
                    "midi": 40,
                    "time": 140.55914600000034,
                    "velocity": 0.25196850393700787,
                    "duration": 0.16193450000000098
                },
                {
                    "name": "E2",
                    "midi": 40,
                    "time": 140.88301500000034,
                    "velocity": 0.1889763779527559,
                    "duration": 0.16193450000000098
                },
                {
                    "name": "D#2",
                    "midi": 39,
                    "time": 141.20688400000034,
                    "velocity": 0.2283464566929134,
                    "duration": 0.6477380000000039
                },
                {
                    "name": "A#2",
                    "midi": 46,
                    "time": 141.85462200000035,
                    "velocity": 0.29133858267716534,
                    "duration": 0.6477380000000039
                },
                {
                    "name": "F#2",
                    "midi": 42,
                    "time": 142.50236000000035,
                    "velocity": 0.2992125984251969,
                    "duration": 0.6477380000000039
                },
                {
                    "name": "F#2",
                    "midi": 42,
                    "time": 143.15009800000036,
                    "velocity": 0.2755905511811024,
                    "duration": 0.16193450000000098
                },
                {
                    "name": "F#2",
                    "midi": 42,
                    "time": 143.47396700000036,
                    "velocity": 0.23622047244094488,
                    "duration": 0.16193450000000098
                },
                {
                    "name": "F2",
                    "midi": 41,
                    "time": 143.79783600000036,
                    "velocity": 0.2677165354330709,
                    "duration": 0.16193450000000098
                },
                {
                    "name": "F2",
                    "midi": 41,
                    "time": 144.12170500000036,
                    "velocity": 0.23622047244094488,
                    "duration": 0.16193450000000098
                },
                {
                    "name": "F2",
                    "midi": 41,
                    "time": 144.44557400000036,
                    "velocity": 0.2677165354330709,
                    "duration": 0.16193450000000098
                },
                {
                    "name": "F2",
                    "midi": 41,
                    "time": 144.76944300000036,
                    "velocity": 0.2440944881889764,
                    "duration": 0.16193450000000098
                },
                {
                    "name": "A#2",
                    "midi": 46,
                    "time": 145.09331200000037,
                    "velocity": 0.23622047244094488,
                    "duration": 0.6477380000000039
                },
                {
                    "name": "D#2",
                    "midi": 39,
                    "time": 145.74105000000037,
                    "velocity": 0.2204724409448819,
                    "duration": 0.6477380000000039
                },
                {
                    "name": "A#2",
                    "midi": 46,
                    "time": 146.38878800000037,
                    "velocity": 0.23622047244094488,
                    "duration": 0.6477380000000039
                },
                {
                    "name": "D#2",
                    "midi": 39,
                    "time": 147.03652600000038,
                    "velocity": 0.1968503937007874,
                    "duration": 0.6477380000000039
                },
                {
                    "name": "A#2",
                    "midi": 46,
                    "time": 147.68426400000038,
                    "velocity": 0.23622047244094488,
                    "duration": 0.6477380000000039
                },
                {
                    "name": "D#2",
                    "midi": 39,
                    "time": 148.3320020000004,
                    "velocity": 0.1968503937007874,
                    "duration": 0.6477380000000039
                },
                {
                    "name": "A#2",
                    "midi": 46,
                    "time": 148.9797400000004,
                    "velocity": 0.23622047244094488,
                    "duration": 0.6477380000000039
                },
                {
                    "name": "D#2",
                    "midi": 39,
                    "time": 149.6274780000004,
                    "velocity": 0.2047244094488189,
                    "duration": 0.6477380000000039
                },
                {
                    "name": "A#2",
                    "midi": 46,
                    "time": 150.2752160000004,
                    "velocity": 0.23622047244094488,
                    "duration": 0.6477380000000039
                },
                {
                    "name": "D#2",
                    "midi": 39,
                    "time": 150.9229540000004,
                    "velocity": 0.1968503937007874,
                    "duration": 0.6477380000000039
                },
                {
                    "name": "A#2",
                    "midi": 46,
                    "time": 151.5706920000004,
                    "velocity": 0.23622047244094488,
                    "duration": 0.6477380000000039
                },
                {
                    "name": "D#2",
                    "midi": 39,
                    "time": 152.2184300000004,
                    "velocity": 0.2047244094488189,
                    "duration": 0.6477380000000039
                },
                {
                    "name": "C#2",
                    "midi": 37,
                    "time": 152.8661680000004,
                    "velocity": 0.23622047244094488,
                    "duration": 0.6477380000000039
                },
                {
                    "name": "D#2",
                    "midi": 39,
                    "time": 153.51390600000042,
                    "velocity": 0.1968503937007874,
                    "duration": 0.6477380000000039
                },
                {
                    "name": "A#1",
                    "midi": 34,
                    "time": 154.16164400000042,
                    "velocity": 0.23622047244094488,
                    "duration": 0.6477380000000039
                },
                {
                    "name": "D#2",
                    "midi": 39,
                    "time": 154.80938200000043,
                    "velocity": 0.2047244094488189,
                    "duration": 0.6477380000000039
                },
                {
                    "name": "A#2",
                    "midi": 46,
                    "time": 155.45712000000043,
                    "velocity": 0.2125984251968504,
                    "duration": 0.6477380000000039
                },
                {
                    "name": "D#2",
                    "midi": 39,
                    "time": 156.10485800000043,
                    "velocity": 0.1732283464566929,
                    "duration": 0.6477380000000039
                },
                {
                    "name": "A#2",
                    "midi": 46,
                    "time": 156.75259600000044,
                    "velocity": 0.1968503937007874,
                    "duration": 0.6477380000000039
                },
                {
                    "name": "D#2",
                    "midi": 39,
                    "time": 157.40033400000044,
                    "velocity": 0.16535433070866143,
                    "duration": 0.6477380000000039
                },
                {
                    "name": "C#2",
                    "midi": 37,
                    "time": 158.04807200000045,
                    "velocity": 0.1889763779527559,
                    "duration": 0.6477380000000039
                },
                {
                    "name": "D#2",
                    "midi": 39,
                    "time": 158.69581000000045,
                    "velocity": 0.14960629921259844,
                    "duration": 0.6477380000000039
                },
                {
                    "name": "B1",
                    "midi": 35,
                    "time": 159.34354800000045,
                    "velocity": 0.1732283464566929,
                    "duration": 0.6477380000000039
                },
                {
                    "name": "D#2",
                    "midi": 39,
                    "time": 159.99128600000046,
                    "velocity": 0.14173228346456693,
                    "duration": 0.6477380000000039
                },
                {
                    "name": "A#1",
                    "midi": 34,
                    "time": 160.63902400000046,
                    "velocity": 0.13385826771653545,
                    "duration": 4.534165999999999
                },
                {
                    "name": "F2",
                    "midi": 41,
                    "time": 160.63902400000046,
                    "velocity": 0.16535433070866143,
                    "duration": 4.534165999999999
                },
                {
                    "name": "F2",
                    "midi": 41,
                    "time": 165.17319000000046,
                    "velocity": 0.16535433070866143,
                    "duration": 5.181904000000003
                },
                {
                    "name": "A#1",
                    "midi": 34,
                    "time": 165.82092800000046,
                    "velocity": 0.13385826771653545,
                    "duration": 4.534165999999999
                },
                {
                    "name": "F2",
                    "midi": 41,
                    "time": 170.35509400000046,
                    "velocity": 0.16535433070866143,
                    "duration": 0.6477380000000039
                },
                {
                    "name": "G3",
                    "midi": 55,
                    "time": 171.00283200000047,
                    "velocity": 0.13385826771653545,
                    "duration": 0.6477380000000039
                },
                {
                    "name": "F3",
                    "midi": 53,
                    "time": 171.00283200000047,
                    "velocity": 0.11023622047244094,
                    "duration": 0.6477380000000039
                },
                {
                    "name": "D3",
                    "midi": 50,
                    "time": 171.65057000000047,
                    "velocity": 0.13385826771653545,
                    "duration": 0.6477380000000039
                },
                {
                    "name": "C3",
                    "midi": 48,
                    "time": 171.65057000000047,
                    "velocity": 0.11023622047244094,
                    "duration": 0.6477380000000039
                },
                {
                    "name": "F2",
                    "midi": 41,
                    "time": 172.29830800000047,
                    "velocity": 0.13385826771653545,
                    "duration": 0.6477380000000039
                },
                {
                    "name": "A#1",
                    "midi": 34,
                    "time": 172.94604600000048,
                    "velocity": 0.13385826771653545,
                    "duration": 0.6477380000000039
                },
                {
                    "name": "G3",
                    "midi": 55,
                    "time": 173.59378400000048,
                    "velocity": 0.13385826771653545,
                    "duration": 0.6477380000000039
                },
                {
                    "name": "F3",
                    "midi": 53,
                    "time": 173.59378400000048,
                    "velocity": 0.11023622047244094,
                    "duration": 0.6477380000000039
                },
                {
                    "name": "D3",
                    "midi": 50,
                    "time": 174.2415220000005,
                    "velocity": 0.13385826771653545,
                    "duration": 0.6477380000000039
                },
                {
                    "name": "C3",
                    "midi": 48,
                    "time": 174.2415220000005,
                    "velocity": 0.11023622047244094,
                    "duration": 0.6477380000000039
                },
                {
                    "name": "F2",
                    "midi": 41,
                    "time": 174.8892600000005,
                    "velocity": 0.13385826771653545,
                    "duration": 0.6477380000000039
                },
                {
                    "name": "A#1",
                    "midi": 34,
                    "time": 175.5369980000005,
                    "velocity": 0.13385826771653545,
                    "duration": 0.6477380000000039
                },
                {
                    "name": "F3",
                    "midi": 53,
                    "time": 176.1847360000005,
                    "velocity": 0.11023622047244094,
                    "duration": 0.6477380000000039
                },
                {
                    "name": "G3",
                    "midi": 55,
                    "time": 176.1847360000005,
                    "velocity": 0.13385826771653545,
                    "duration": 0.6477380000000039
                },
                {
                    "name": "C3",
                    "midi": 48,
                    "time": 176.8324740000005,
                    "velocity": 0.11023622047244094,
                    "duration": 0.6477380000000039
                },
                {
                    "name": "D3",
                    "midi": 50,
                    "time": 176.8324740000005,
                    "velocity": 0.13385826771653545,
                    "duration": 0.6477380000000039
                },
                {
                    "name": "F2",
                    "midi": 41,
                    "time": 177.4802120000005,
                    "velocity": 0.16535433070866143,
                    "duration": 6.477380000000039
                },
                {
                    "name": "A#1",
                    "midi": 34,
                    "time": 178.1279500000005,
                    "velocity": 0.16535433070866143,
                    "duration": 1.2954760000000078
                },
                {
                    "name": "A#1",
                    "midi": 34,
                    "time": 179.42342600000052,
                    "velocity": 0.2125984251968504,
                    "duration": 0.16193450000000098
                },
                {
                    "name": "A#1",
                    "midi": 34,
                    "time": 179.74729500000052,
                    "velocity": 0.2125984251968504,
                    "duration": 0.16193450000000098
                },
                {
                    "name": "A1",
                    "midi": 33,
                    "time": 180.07116400000052,
                    "velocity": 0.2125984251968504,
                    "duration": 0.16193450000000098
                },
                {
                    "name": "A1",
                    "midi": 33,
                    "time": 180.39503300000052,
                    "velocity": 0.2125984251968504,
                    "duration": 0.16193450000000098
                },
                {
                    "name": "A1",
                    "midi": 33,
                    "time": 180.71890200000053,
                    "velocity": 0.1968503937007874,
                    "duration": 0.16193450000000098
                },
                {
                    "name": "A1",
                    "midi": 33,
                    "time": 181.04277100000053,
                    "velocity": 0.1968503937007874,
                    "duration": 0.16193450000000098
                },
                {
                    "name": "G#1",
                    "midi": 32,
                    "time": 181.36664000000053,
                    "velocity": 0.2125984251968504,
                    "duration": 0.6477380000000039
                },
                {
                    "name": "G#1",
                    "midi": 32,
                    "time": 182.01437800000053,
                    "velocity": 0.2125984251968504,
                    "duration": 0.16193450000000098
                },
                {
                    "name": "G#1",
                    "midi": 32,
                    "time": 182.33824700000054,
                    "velocity": 0.2125984251968504,
                    "duration": 0.16193450000000098
                },
                {
                    "name": "G1",
                    "midi": 31,
                    "time": 182.6553687291672,
                    "velocity": 0.2125984251968504,
                    "duration": 0.6477380000000039
                },
                {
                    "name": "D2",
                    "midi": 38,
                    "time": 183.30985400000054,
                    "velocity": 0.2125984251968504,
                    "duration": 0.6477380000000039
                },
                {
                    "name": "F2",
                    "midi": 41,
                    "time": 183.95759200000055,
                    "velocity": 0.16535433070866143,
                    "duration": 4.5341660000000275
                },
                {
                    "name": "A#1",
                    "midi": 34,
                    "time": 184.60533000000055,
                    "velocity": 0.2125984251968504,
                    "duration": 0.16193450000000098
                },
                {
                    "name": "A#1",
                    "midi": 34,
                    "time": 184.92919900000055,
                    "velocity": 0.2125984251968504,
                    "duration": 0.16193450000000098
                },
                {
                    "name": "A1",
                    "midi": 33,
                    "time": 185.25306800000055,
                    "velocity": 0.2125984251968504,
                    "duration": 0.16193450000000098
                },
                {
                    "name": "A1",
                    "midi": 33,
                    "time": 185.57693700000056,
                    "velocity": 0.2125984251968504,
                    "duration": 0.16193450000000098
                },
                {
                    "name": "A1",
                    "midi": 33,
                    "time": 185.90080600000056,
                    "velocity": 0.1968503937007874,
                    "duration": 0.16193450000000098
                },
                {
                    "name": "A1",
                    "midi": 33,
                    "time": 186.22467500000056,
                    "velocity": 0.1968503937007874,
                    "duration": 0.16193450000000098
                },
                {
                    "name": "G#1",
                    "midi": 32,
                    "time": 186.54854400000056,
                    "velocity": 0.2125984251968504,
                    "duration": 0.6477380000000039
                },
                {
                    "name": "G#1",
                    "midi": 32,
                    "time": 187.19628200000056,
                    "velocity": 0.2125984251968504,
                    "duration": 0.16193450000000098
                },
                {
                    "name": "G#1",
                    "midi": 32,
                    "time": 187.52015100000057,
                    "velocity": 0.2125984251968504,
                    "duration": 0.48580350000000294
                },
                {
                    "name": "G1",
                    "midi": 31,
                    "time": 188.49175800000057,
                    "velocity": 0.2125984251968504,
                    "duration": 0.6477380000000039
                },
                {
                    "name": "F#1",
                    "midi": 30,
                    "time": 189.78723400000058,
                    "velocity": 0.2125984251968504,
                    "duration": 0.32386900000000196
                },
                {
                    "name": "F1",
                    "midi": 29,
                    "time": 190.43497200000058,
                    "velocity": 0.15748031496062992,
                    "duration": 0.6477380000000039
                },
                {
                    "name": "D2",
                    "midi": 38,
                    "time": 191.0827100000006,
                    "velocity": 0.13385826771653545,
                    "duration": 0.6477380000000039
                },
                {
                    "name": "F#1",
                    "midi": 30,
                    "time": 192.3781860000006,
                    "velocity": 0.2125984251968504,
                    "duration": 0.32386900000000196
                },
                {
                    "name": "F1",
                    "midi": 29,
                    "time": 193.0259240000006,
                    "velocity": 0.1732283464566929,
                    "duration": 0.6477380000000039
                },
                {
                    "name": "D2",
                    "midi": 38,
                    "time": 193.6736620000006,
                    "velocity": 0.16535433070866143,
                    "duration": 0.6477380000000039
                },
                {
                    "name": "F#1",
                    "midi": 30,
                    "time": 195.61687600000062,
                    "velocity": 0.1732283464566929,
                    "duration": 1.2954760000000078
                },
                {
                    "name": "F1",
                    "midi": 29,
                    "time": 196.91235200000062,
                    "velocity": 0.1732283464566929,
                    "duration": 1.2954760000000078
                },
                {
                    "name": "D1",
                    "midi": 26,
                    "time": 198.20782800000063,
                    "velocity": 0.1732283464566929,
                    "duration": 1.2954760000000078
                },
                {
                    "name": "A#0",
                    "midi": 22,
                    "time": 199.50330400000064,
                    "velocity": 0.1732283464566929,
                    "duration": 7.77285599999999
                },
                {
                    "name": "A#0",
                    "midi": 22,
                    "time": 207.27616000000063,
                    "velocity": 0.1732283464566929,
                    "duration": 0.32386900000000196
                }
            ],
            "controlChanges": {},
            "id": 2,
            "name": "Piano left",
            "instrumentNumber": 0,
            "instrument": "acoustic grand piano",
            "instrumentFamily": "piano",
            "channelNumber": 0,
            "isPercussion": false
        },
        {
            "startTime": 0,
            "duration": 0,
            "length": 0,
            "notes": [],
            "controlChanges": {
                "64": [
                    {
                        "number": 64,
                        "time": 8.4894161625,
                        "value": 1
                    },
                    {
                        "number": 64,
                        "time": 9.052138549999999,
                        "value": 0
                    },
                    {
                        "number": 64,
                        "time": 20.915190129166668,
                        "value": 1
                    },
                    {
                        "number": 64,
                        "time": 36.27332800000001,
                        "value": 0
                    },
                    {
                        "number": 64,
                        "time": 36.96424853333334,
                        "value": 1
                    },
                    {
                        "number": 64,
                        "time": 37.57825017916667,
                        "value": 0
                    },
                    {
                        "number": 64,
                        "time": 46.637136000000005,
                        "value": 1
                    },
                    {
                        "number": 64,
                        "time": 49.22808800000001,
                        "value": 0
                    },
                    {
                        "number": 64,
                        "time": 49.535763550000006,
                        "value": 1
                    },
                    {
                        "number": 64,
                        "time": 51.81904000000001,
                        "value": 0
                    },
                    {
                        "number": 64,
                        "time": 51.990420679166675,
                        "value": 1
                    },
                    {
                        "number": 64,
                        "time": 54.419438179166676,
                        "value": 0
                    },
                    {
                        "number": 64,
                        "time": 54.60026503750001,
                        "value": 1
                    },
                    {
                        "number": 64,
                        "time": 57.009040725000006,
                        "value": 0
                    },
                    {
                        "number": 64,
                        "time": 57.21145885000001,
                        "value": 1
                    },
                    {
                        "number": 64,
                        "time": 59.60134217916667,
                        "value": 0
                    },
                    {
                        "number": 64,
                        "time": 59.80241085000001,
                        "value": 1
                    },
                    {
                        "number": 64,
                        "time": 62.19499308750001,
                        "value": 0
                    },
                    {
                        "number": 64,
                        "time": 62.33533632083334,
                        "value": 1
                    },
                    {
                        "number": 64,
                        "time": 64.78459563333334,
                        "value": 0
                    },
                    {
                        "number": 64,
                        "time": 65.18268461250001,
                        "value": 1
                    },
                    {
                        "number": 64,
                        "time": 67.37689708750001,
                        "value": 0
                    },
                    {
                        "number": 64,
                        "time": 67.57526685,
                        "value": 1
                    },
                    {
                        "number": 64,
                        "time": 69.96649963333334,
                        "value": 0
                    },
                    {
                        "number": 64,
                        "time": 70.36458861250001,
                        "value": 1
                    },
                    {
                        "number": 64,
                        "time": 72.55610217916669,
                        "value": 0
                    },
                    {
                        "number": 64,
                        "time": 73.59923025000002,
                        "value": 1
                    },
                    {
                        "number": 64,
                        "time": 74.50336454166668,
                        "value": 0
                    },
                    {
                        "number": 64,
                        "time": 76.43308400000002,
                        "value": 1
                    },
                    {
                        "number": 64,
                        "time": 77.73800617916669,
                        "value": 0
                    },
                    {
                        "number": 64,
                        "time": 78.78113425000002,
                        "value": 1
                    },
                    {
                        "number": 64,
                        "time": 79.68526854166669,
                        "value": 0
                    },
                    {
                        "number": 64,
                        "time": 83.57439545000003,
                        "value": 1
                    },
                    {
                        "number": 64,
                        "time": 84.22213345000003,
                        "value": 0
                    },
                    {
                        "number": 64,
                        "time": 84.40700867083336,
                        "value": 1
                    },
                    {
                        "number": 64,
                        "time": 85.50141600000003,
                        "value": 0
                    },
                    {
                        "number": 64,
                        "time": 86.16534745000004,
                        "value": 1
                    },
                    {
                        "number": 64,
                        "time": 86.81308545000005,
                        "value": 0
                    },
                    {
                        "number": 64,
                        "time": 86.99796067083338,
                        "value": 1
                    },
                    {
                        "number": 64,
                        "time": 87.46082345000005,
                        "value": 0
                    },
                    {
                        "number": 64,
                        "time": 87.62275795000005,
                        "value": 1
                    },
                    {
                        "number": 64,
                        "time": 88.75629945000006,
                        "value": 1
                    },
                    {
                        "number": 64,
                        "time": 89.40403745000006,
                        "value": 0
                    },
                    {
                        "number": 64,
                        "time": 89.53493450416673,
                        "value": 1
                    },
                    {
                        "number": 64,
                        "time": 90.68332000000007,
                        "value": 0
                    },
                    {
                        "number": 64,
                        "time": 91.34725145000007,
                        "value": 1
                    },
                    {
                        "number": 64,
                        "time": 91.99498945000008,
                        "value": 0
                    },
                    {
                        "number": 64,
                        "time": 92.17986467083341,
                        "value": 1
                    },
                    {
                        "number": 64,
                        "time": 92.64272745000008,
                        "value": 0
                    },
                    {
                        "number": 64,
                        "time": 92.80466195000008,
                        "value": 1
                    },
                    {
                        "number": 64,
                        "time": 93.27427200000008,
                        "value": 0
                    },
                    {
                        "number": 64,
                        "time": 119.25396361666675,
                        "value": 1
                    },
                    {
                        "number": 64,
                        "time": 119.86256744583342,
                        "value": 0
                    },
                    {
                        "number": 64,
                        "time": 120.58722433333342,
                        "value": 1
                    },
                    {
                        "number": 64,
                        "time": 120.83282499166675,
                        "value": 0
                    },
                    {
                        "number": 64,
                        "time": 121.84491561666675,
                        "value": 1
                    },
                    {
                        "number": 64,
                        "time": 122.45351944583342,
                        "value": 0
                    },
                    {
                        "number": 64,
                        "time": 123.17817633333343,
                        "value": 1
                    },
                    {
                        "number": 64,
                        "time": 123.42377699166676,
                        "value": 0
                    },
                    {
                        "number": 64,
                        "time": 124.43586761666675,
                        "value": 1
                    },
                    {
                        "number": 64,
                        "time": 125.04447144583342,
                        "value": 0
                    },
                    {
                        "number": 64,
                        "time": 125.76912833333343,
                        "value": 1
                    },
                    {
                        "number": 64,
                        "time": 126.3089100000001,
                        "value": 0
                    },
                    {
                        "number": 64,
                        "time": 127.02681961666676,
                        "value": 1
                    },
                    {
                        "number": 64,
                        "time": 127.63542344583342,
                        "value": 0
                    },
                    {
                        "number": 64,
                        "time": 128.36008033333343,
                        "value": 1
                    },
                    {
                        "number": 64,
                        "time": 129.5476000000001,
                        "value": 0
                    },
                    {
                        "number": 64,
                        "time": 129.61777161666677,
                        "value": 1
                    },
                    {
                        "number": 64,
                        "time": 130.22637544583344,
                        "value": 0
                    },
                    {
                        "number": 64,
                        "time": 130.95103233333344,
                        "value": 1
                    },
                    {
                        "number": 64,
                        "time": 131.51780308333343,
                        "value": 0
                    },
                    {
                        "number": 64,
                        "time": 131.60686705833342,
                        "value": 1
                    },
                    {
                        "number": 64,
                        "time": 132.1385520000001,
                        "value": 0
                    },
                    {
                        "number": 64,
                        "time": 132.27754577916676,
                        "value": 1
                    },
                    {
                        "number": 64,
                        "time": 132.81732744583343,
                        "value": 0
                    },
                    {
                        "number": 64,
                        "time": 133.54198433333343,
                        "value": 1
                    },
                    {
                        "number": 64,
                        "time": 134.10875508333342,
                        "value": 0
                    },
                    {
                        "number": 64,
                        "time": 134.2747379458334,
                        "value": 1
                    },
                    {
                        "number": 64,
                        "time": 134.72950400000008,
                        "value": 0
                    },
                    {
                        "number": 64,
                        "time": 134.82261633750008,
                        "value": 1
                    },
                    {
                        "number": 64,
                        "time": 137.3204560000001,
                        "value": 0
                    },
                    {
                        "number": 64,
                        "time": 137.43515960416676,
                        "value": 1
                    },
                    {
                        "number": 64,
                        "time": 138.63887272083343,
                        "value": 0
                    },
                    {
                        "number": 64,
                        "time": 139.9114080000001,
                        "value": 0
                    },
                    {
                        "number": 64,
                        "time": 140.02611160416677,
                        "value": 1
                    },
                    {
                        "number": 64,
                        "time": 141.22982472083345,
                        "value": 0
                    },
                    {
                        "number": 64,
                        "time": 141.34992614166677,
                        "value": 1
                    },
                    {
                        "number": 64,
                        "time": 142.5023600000001,
                        "value": 0
                    },
                    {
                        "number": 64,
                        "time": 142.61706360416676,
                        "value": 1
                    },
                    {
                        "number": 64,
                        "time": 143.82077672083344,
                        "value": 0
                    },
                    {
                        "number": 64,
                        "time": 145.0933120000001,
                        "value": 1
                    },
                    {
                        "number": 64,
                        "time": 146.46570688750012,
                        "value": 0
                    },
                    {
                        "number": 64,
                        "time": 146.5439752291668,
                        "value": 1
                    },
                    {
                        "number": 64,
                        "time": 147.68426400000013,
                        "value": 0
                    },
                    {
                        "number": 64,
                        "time": 147.81785996250014,
                        "value": 1
                    },
                    {
                        "number": 64,
                        "time": 148.3576416291668,
                        "value": 0
                    },
                    {
                        "number": 64,
                        "time": 148.46559796250014,
                        "value": 1
                    },
                    {
                        "number": 64,
                        "time": 149.00807853750015,
                        "value": 0
                    },
                    {
                        "number": 64,
                        "time": 149.12278214166682,
                        "value": 1
                    },
                    {
                        "number": 64,
                        "time": 150.27521600000014,
                        "value": 0
                    },
                    {
                        "number": 64,
                        "time": 150.59908500000014,
                        "value": 1
                    },
                    {
                        "number": 64,
                        "time": 152.86616800000016,
                        "value": 0
                    },
                    {
                        "number": 64,
                        "time": 153.05644103750015,
                        "value": 1
                    },
                    {
                        "number": 64,
                        "time": 155.45712000000015,
                        "value": 0
                    },
                    {
                        "number": 64,
                        "time": 155.78098900000015,
                        "value": 1
                    },
                    {
                        "number": 64,
                        "time": 158.04807200000016,
                        "value": 0
                    },
                    {
                        "number": 64,
                        "time": 158.23834503750015,
                        "value": 1
                    },
                    {
                        "number": 64,
                        "time": 160.63902400000015,
                        "value": 0
                    },
                    {
                        "number": 64,
                        "time": 160.81040467916682,
                        "value": 1
                    },
                    {
                        "number": 64,
                        "time": 161.93989781666681,
                        "value": 0
                    },
                    {
                        "number": 64,
                        "time": 162.04920360416682,
                        "value": 1
                    },
                    {
                        "number": 64,
                        "time": 163.34467960416683,
                        "value": 0
                    },
                    {
                        "number": 64,
                        "time": 163.59162971666683,
                        "value": 1
                    },
                    {
                        "number": 64,
                        "time": 165.82902472500015,
                        "value": 0
                    },
                    {
                        "number": 64,
                        "time": 166.03144285000016,
                        "value": 1
                    },
                    {
                        "number": 64,
                        "time": 167.12854908750015,
                        "value": 0
                    },
                    {
                        "number": 64,
                        "time": 167.24999996250014,
                        "value": 1
                    },
                    {
                        "number": 64,
                        "time": 168.54547596250015,
                        "value": 0
                    },
                    {
                        "number": 64,
                        "time": 168.62239485000015,
                        "value": 1
                    },
                    {
                        "number": 64,
                        "time": 171.01497708750014,
                        "value": 0
                    },
                    {
                        "number": 64,
                        "time": 171.15532032083348,
                        "value": 1
                    },
                    {
                        "number": 64,
                        "time": 173.6045796333335,
                        "value": 0
                    },
                    {
                        "number": 64,
                        "time": 174.00266861250014,
                        "value": 1
                    },
                    {
                        "number": 64,
                        "time": 176.19688108750015,
                        "value": 0
                    },
                    {
                        "number": 64,
                        "time": 176.39525085000014,
                        "value": 1
                    },
                    {
                        "number": 64,
                        "time": 178.78648363333346,
                        "value": 0
                    },
                    {
                        "number": 64,
                        "time": 183.96838763333346,
                        "value": 0
                    }
                ]
            },
            "id": 3,
            "name": "Pedale",
            "instrumentNumber": 0,
            "instrument": "acoustic grand piano",
            "instrumentFamily": "piano",
            "channelNumber": 0,
            "isPercussion": false
        },
        {
            "startTime": 0,
            "duration": 0,
            "length": 0,
            "notes": [],
            "controlChanges": {},
            "id": 4,
            "name": "Debussy: Childrens Corner 2"
        },
        {
            "startTime": 0,
            "duration": 0,
            "length": 0,
            "notes": [],
            "controlChanges": {},
            "id": 5,
            "name": "Copyright  2010 by Bernd Krueger"
        },
        {
            "startTime": 0,
            "duration": 0,
            "length": 0,
            "notes": [],
            "controlChanges": {},
            "id": 6,
            "name": "http://www.piano-midi.de/"
        },
        {
            "startTime": 0,
            "duration": 0,
            "length": 0,
            "notes": [],
            "controlChanges": {},
            "id": 7,
            "name": "Edition: 2011-05-24"
        },
        {
            "startTime": 0,
            "duration": 0,
            "length": 0,
            "notes": [],
            "controlChanges": {},
            "id": 8,
            "name": "Spur 8"
        },
        {
            "startTime": 0,
            "duration": 0,
            "length": 0,
            "notes": [],
            "controlChanges": {},
            "id": 9,
            "name": "Spur 9"
        },
        {
            "startTime": 0,
            "duration": 0,
            "length": 0,
            "notes": [],
            "controlChanges": {},
            "id": 10,
            "name": "Spur 10"
        },
        {
            "startTime": 0,
            "duration": 0,
            "length": 0,
            "notes": [],
            "controlChanges": {},
            "id": 11,
            "name": "Spur 11"
        },
        {
            "startTime": 0,
            "duration": 0,
            "length": 0,
            "notes": [],
            "controlChanges": {},
            "id": 12,
            "name": "Spur 12"
        },
        {
            "startTime": 0,
            "duration": 0,
            "length": 0,
            "notes": [],
            "controlChanges": {},
            "id": 13,
            "name": "Spur 13"
        },
        {
            "startTime": 0,
            "duration": 0,
            "length": 0,
            "notes": [],
            "controlChanges": {},
            "id": 14,
            "name": "Spur 14"
        },
        {
            "startTime": 0,
            "duration": 0,
            "length": 0,
            "notes": [],
            "controlChanges": {},
            "id": 15,
            "name": "Spur 15"
        },
        {
            "startTime": 0,
            "duration": 0,
            "length": 0,
            "notes": [],
            "controlChanges": {},
            "id": 16,
            "name": "Spur 16"
        }
    ]
}