{
    "header": {
        "PPQ": 480,
        "timeSignature": [
            6,
            8
        ],
        "bpm": 143.5001602418456,
        "name": "Wilde Jagd"
    },
    "startTime": 0,
    "duration": 283.0658860000116,
    "tracks": [
        {
            "startTime": 0,
            "duration": 0,
            "length": 0,
            "notes": [],
            "controlChanges": {},
            "id": 0,
            "name": "Wilde Jagd"
        },
        {
            "startTime": 1.254354,
            "duration": 283.0658860000116,
            "length": 3201,
            "notes": [
                {
                    "name": "C6",
                    "midi": 84,
                    "time": 1.254354,
                    "velocity": 0.7086614173228346,
                    "duration": 0.10452949999999994
                },
                {
                    "name": "D#5",
                    "midi": 75,
                    "time": 1.254354,
                    "velocity": 0.5984251968503937,
                    "duration": 0.10452949999999994
                },
                {
                    "name": "C5",
                    "midi": 72,
                    "time": 1.254354,
                    "velocity": 0.5984251968503937,
                    "duration": 0.10452949999999994
                },
                {
                    "name": "G5",
                    "midi": 79,
                    "time": 1.5679425,
                    "velocity": 0.6614173228346457,
                    "duration": 0.10452949999999994
                },
                {
                    "name": "D#5",
                    "midi": 75,
                    "time": 1.5679425,
                    "velocity": 0.5590551181102362,
                    "duration": 0.10452949999999994
                },
                {
                    "name": "C5",
                    "midi": 72,
                    "time": 1.5679425,
                    "velocity": 0.5590551181102362,
                    "duration": 0.10452949999999994
                },
                {
                    "name": "G4",
                    "midi": 67,
                    "time": 1.5679425,
                    "velocity": 0.5590551181102362,
                    "duration": 0.10452949999999994
                },
                {
                    "name": "G4",
                    "midi": 67,
                    "time": 1.672472,
                    "velocity": 0.5984251968503937,
                    "duration": 0.10452949999999994
                },
                {
                    "name": "C5",
                    "midi": 72,
                    "time": 1.672472,
                    "velocity": 0.5984251968503937,
                    "duration": 0.10452949999999994
                },
                {
                    "name": "D#5",
                    "midi": 75,
                    "time": 1.672472,
                    "velocity": 0.5984251968503937,
                    "duration": 0.10452949999999994
                },
                {
                    "name": "G5",
                    "midi": 79,
                    "time": 1.672472,
                    "velocity": 0.7086614173228346,
                    "duration": 0.10452949999999994
                },
                {
                    "name": "D#4",
                    "midi": 63,
                    "time": 2.1951194999999997,
                    "velocity": 0.5511811023622047,
                    "duration": 0.10452949999999994
                },
                {
                    "name": "G4",
                    "midi": 67,
                    "time": 2.1951194999999997,
                    "velocity": 0.5511811023622047,
                    "duration": 0.10452949999999994
                },
                {
                    "name": "D#5",
                    "midi": 75,
                    "time": 2.1951194999999997,
                    "velocity": 0.6456692913385826,
                    "duration": 0.10452949999999994
                },
                {
                    "name": "D#4",
                    "midi": 63,
                    "time": 2.2996489999999996,
                    "velocity": 0.5826771653543307,
                    "duration": 0.10452949999999994
                },
                {
                    "name": "G4",
                    "midi": 67,
                    "time": 2.2996489999999996,
                    "velocity": 0.5826771653543307,
                    "duration": 0.10452949999999994
                },
                {
                    "name": "D#5",
                    "midi": 75,
                    "time": 2.2996489999999996,
                    "velocity": 0.7086614173228346,
                    "duration": 0.10452949999999994
                },
                {
                    "name": "D#4",
                    "midi": 63,
                    "time": 2.8222964999999993,
                    "velocity": 0.5118110236220472,
                    "duration": 0.10452949999999994
                },
                {
                    "name": "G4",
                    "midi": 67,
                    "time": 2.8222964999999993,
                    "velocity": 0.5118110236220472,
                    "duration": 0.10452949999999994
                },
                {
                    "name": "C5",
                    "midi": 72,
                    "time": 2.8222964999999993,
                    "velocity": 0.6141732283464567,
                    "duration": 0.10452949999999994
                },
                {
                    "name": "D#4",
                    "midi": 63,
                    "time": 2.9268259999999993,
                    "velocity": 0.5669291338582677,
                    "duration": 0.10452949999999994
                },
                {
                    "name": "G4",
                    "midi": 67,
                    "time": 2.9268259999999993,
                    "velocity": 0.5669291338582677,
                    "duration": 0.10452949999999994
                },
                {
                    "name": "C5",
                    "midi": 72,
                    "time": 2.9268259999999993,
                    "velocity": 0.6692913385826772,
                    "duration": 0.10452949999999994
                },
                {
                    "name": "D#4",
                    "midi": 63,
                    "time": 3.135884999999999,
                    "velocity": 0.5275590551181102,
                    "duration": 0.10452949999999994
                },
                {
                    "name": "G4",
                    "midi": 67,
                    "time": 3.135884999999999,
                    "velocity": 0.5275590551181102,
                    "duration": 0.10452949999999994
                },
                {
                    "name": "B4",
                    "midi": 71,
                    "time": 3.135884999999999,
                    "velocity": 0.6299212598425197,
                    "duration": 0.10452949999999994
                },
                {
                    "name": "D#4",
                    "midi": 63,
                    "time": 3.344943999999999,
                    "velocity": 0.5669291338582677,
                    "duration": 0.10452949999999994
                },
                {
                    "name": "G4",
                    "midi": 67,
                    "time": 3.344943999999999,
                    "velocity": 0.5669291338582677,
                    "duration": 0.10452949999999994
                },
                {
                    "name": "C5",
                    "midi": 72,
                    "time": 3.344943999999999,
                    "velocity": 0.6692913385826772,
                    "duration": 0.10452949999999994
                },
                {
                    "name": "D6",
                    "midi": 86,
                    "time": 5.017415999999999,
                    "velocity": 0.7086614173228346,
                    "duration": 0.10452949999999994
                },
                {
                    "name": "F5",
                    "midi": 77,
                    "time": 5.017415999999999,
                    "velocity": 0.5984251968503937,
                    "duration": 0.10452949999999994
                },
                {
                    "name": "D5",
                    "midi": 74,
                    "time": 5.017415999999999,
                    "velocity": 0.5984251968503937,
                    "duration": 0.10452949999999994
                },
                {
                    "name": "G#5",
                    "midi": 80,
                    "time": 5.331004499999999,
                    "velocity": 0.6614173228346457,
                    "duration": 0.10452949999999994
                },
                {
                    "name": "D5",
                    "midi": 74,
                    "time": 5.331004499999999,
                    "velocity": 0.5590551181102362,
                    "duration": 0.10452949999999994
                },
                {
                    "name": "G#4",
                    "midi": 68,
                    "time": 5.331004499999999,
                    "velocity": 0.5590551181102362,
                    "duration": 0.10452949999999994
                },
                {
                    "name": "G#4",
                    "midi": 68,
                    "time": 5.435533999999999,
                    "velocity": 0.5984251968503937,
                    "duration": 0.10452949999999994
                },
                {
                    "name": "D5",
                    "midi": 74,
                    "time": 5.435533999999999,
                    "velocity": 0.5984251968503937,
                    "duration": 0.10452949999999994
                },
                {
                    "name": "G#5",
                    "midi": 80,
                    "time": 5.435533999999999,
                    "velocity": 0.7086614173228346,
                    "duration": 0.10452949999999994
                },
                {
                    "name": "F4",
                    "midi": 65,
                    "time": 5.9581814999999985,
                    "velocity": 0.5511811023622047,
                    "duration": 0.10452949999999994
                },
                {
                    "name": "G#4",
                    "midi": 68,
                    "time": 5.9581814999999985,
                    "velocity": 0.5511811023622047,
                    "duration": 0.10452949999999994
                },
                {
                    "name": "F5",
                    "midi": 77,
                    "time": 5.9581814999999985,
                    "velocity": 0.6456692913385826,
                    "duration": 0.10452949999999994
                },
                {
                    "name": "F4",
                    "midi": 65,
                    "time": 6.062710999999998,
                    "velocity": 0.5826771653543307,
                    "duration": 0.10452949999999994
                },
                {
                    "name": "G#4",
                    "midi": 68,
                    "time": 6.062710999999998,
                    "velocity": 0.5826771653543307,
                    "duration": 0.10452949999999994
                },
                {
                    "name": "F5",
                    "midi": 77,
                    "time": 6.062710999999998,
                    "velocity": 0.7086614173228346,
                    "duration": 0.10452949999999994
                },
                {
                    "name": "D4",
                    "midi": 62,
                    "time": 6.585358499999998,
                    "velocity": 0.5118110236220472,
                    "duration": 0.10452949999999994
                },
                {
                    "name": "G#4",
                    "midi": 68,
                    "time": 6.585358499999998,
                    "velocity": 0.5118110236220472,
                    "duration": 0.10452949999999994
                },
                {
                    "name": "D5",
                    "midi": 74,
                    "time": 6.585358499999998,
                    "velocity": 0.6141732283464567,
                    "duration": 0.10452949999999994
                },
                {
                    "name": "D4",
                    "midi": 62,
                    "time": 6.689887999999998,
                    "velocity": 0.5669291338582677,
                    "duration": 0.10452949999999994
                },
                {
                    "name": "G#4",
                    "midi": 68,
                    "time": 6.689887999999998,
                    "velocity": 0.5669291338582677,
                    "duration": 0.10452949999999994
                },
                {
                    "name": "D5",
                    "midi": 74,
                    "time": 6.689887999999998,
                    "velocity": 0.6692913385826772,
                    "duration": 0.10452949999999994
                },
                {
                    "name": "C#4",
                    "midi": 61,
                    "time": 6.898946999999998,
                    "velocity": 0.5275590551181102,
                    "duration": 0.10452949999999994
                },
                {
                    "name": "G#4",
                    "midi": 68,
                    "time": 6.898946999999998,
                    "velocity": 0.5275590551181102,
                    "duration": 0.10452949999999994
                },
                {
                    "name": "C#5",
                    "midi": 73,
                    "time": 6.898946999999998,
                    "velocity": 0.6299212598425197,
                    "duration": 0.10452949999999994
                },
                {
                    "name": "D4",
                    "midi": 62,
                    "time": 7.108005999999998,
                    "velocity": 0.5669291338582677,
                    "duration": 0.10452949999999994
                },
                {
                    "name": "G#4",
                    "midi": 68,
                    "time": 7.108005999999998,
                    "velocity": 0.5669291338582677,
                    "duration": 0.10452949999999994
                },
                {
                    "name": "D5",
                    "midi": 74,
                    "time": 7.108005999999998,
                    "velocity": 0.6692913385826772,
                    "duration": 0.10452949999999994
                },
                {
                    "name": "D#4",
                    "midi": 63,
                    "time": 7.7351829999999975,
                    "velocity": 0.3543307086614173,
                    "duration": 0.10452949999999994
                },
                {
                    "name": "G4",
                    "midi": 67,
                    "time": 7.7351829999999975,
                    "velocity": 0.3543307086614173,
                    "duration": 0.10452949999999994
                },
                {
                    "name": "D#5",
                    "midi": 75,
                    "time": 7.7351829999999975,
                    "velocity": 0.41732283464566927,
                    "duration": 0.10452949999999994
                },
                {
                    "name": "C4",
                    "midi": 60,
                    "time": 7.944241999999997,
                    "velocity": 0.31496062992125984,
                    "duration": 0.05226474999999997
                },
                {
                    "name": "D4",
                    "midi": 62,
                    "time": 7.996506749999997,
                    "velocity": 0.3228346456692913,
                    "duration": 0.05226474999999997
                },
                {
                    "name": "D#4",
                    "midi": 63,
                    "time": 8.048771499999997,
                    "velocity": 0.3464566929133858,
                    "duration": 0.05226475000000086
                },
                {
                    "name": "F4",
                    "midi": 65,
                    "time": 8.101036249999998,
                    "velocity": 0.3543307086614173,
                    "duration": 0.05226475000000086
                },
                {
                    "name": "G4",
                    "midi": 67,
                    "time": 8.153300999999999,
                    "velocity": 0.3700787401574803,
                    "duration": 0.10452949999999994
                },
                {
                    "name": "F4",
                    "midi": 65,
                    "time": 8.362359999999999,
                    "velocity": 0.3700787401574803,
                    "duration": 0.0783971250000004
                },
                {
                    "name": "C5",
                    "midi": 72,
                    "time": 8.362359999999999,
                    "velocity": 0.3700787401574803,
                    "duration": 0.0783971250000004
                },
                {
                    "name": "F5",
                    "midi": 77,
                    "time": 8.362359999999999,
                    "velocity": 0.44881889763779526,
                    "duration": 0.0783971250000004
                },
                {
                    "name": "C6",
                    "midi": 84,
                    "time": 8.571418999999999,
                    "velocity": 0.4645669291338583,
                    "duration": 0.0783971250000004
                },
                {
                    "name": "C5",
                    "midi": 72,
                    "time": 8.571418999999999,
                    "velocity": 0.3858267716535433,
                    "duration": 0.0783971250000004
                },
                {
                    "name": "D#5",
                    "midi": 75,
                    "time": 8.571418999999999,
                    "velocity": 0.3858267716535433,
                    "duration": 0.0783971250000004
                },
                {
                    "name": "D5",
                    "midi": 74,
                    "time": 8.780477999999999,
                    "velocity": 0.4015748031496063,
                    "duration": 0.10452949999999994
                },
                {
                    "name": "C5",
                    "midi": 72,
                    "time": 8.780477999999999,
                    "velocity": 0.4015748031496063,
                    "duration": 0.10452949999999994
                },
                {
                    "name": "C6",
                    "midi": 84,
                    "time": 8.780477999999999,
                    "velocity": 0.47244094488188976,
                    "duration": 0.10452949999999994
                },
                {
                    "name": "F4",
                    "midi": 65,
                    "time": 8.989536999999999,
                    "velocity": 0.33070866141732286,
                    "duration": 0.05226475000000086
                },
                {
                    "name": "D#4",
                    "midi": 63,
                    "time": 9.04180175,
                    "velocity": 0.33858267716535434,
                    "duration": 0.05226475000000086
                },
                {
                    "name": "D4",
                    "midi": 62,
                    "time": 9.0940665,
                    "velocity": 0.3543307086614173,
                    "duration": 0.05226475000000086
                },
                {
                    "name": "C4",
                    "midi": 60,
                    "time": 9.146331250000001,
                    "velocity": 0.36220472440944884,
                    "duration": 0.05226475000000086
                },
                {
                    "name": "A#3",
                    "midi": 58,
                    "time": 9.198596000000002,
                    "velocity": 0.3858267716535433,
                    "duration": 0.10452949999999994
                },
                {
                    "name": "A#4",
                    "midi": 70,
                    "time": 9.407655000000002,
                    "velocity": 0.4251968503937008,
                    "duration": 0.0783971250000004
                },
                {
                    "name": "D5",
                    "midi": 74,
                    "time": 9.407655000000002,
                    "velocity": 0.4251968503937008,
                    "duration": 0.0783971250000004
                },
                {
                    "name": "A#5",
                    "midi": 82,
                    "time": 9.407655000000002,
                    "velocity": 0.5039370078740157,
                    "duration": 0.0783971250000004
                },
                {
                    "name": "D#6",
                    "midi": 87,
                    "time": 9.616714000000002,
                    "velocity": 0.5196850393700787,
                    "duration": 0.0783971250000004
                },
                {
                    "name": "D5",
                    "midi": 74,
                    "time": 9.616714000000002,
                    "velocity": 0.4330708661417323,
                    "duration": 0.0783971250000004
                },
                {
                    "name": "A#5",
                    "midi": 82,
                    "time": 9.616714000000002,
                    "velocity": 0.4330708661417323,
                    "duration": 0.0783971250000004
                },
                {
                    "name": "G#5",
                    "midi": 80,
                    "time": 9.825773000000002,
                    "velocity": 0.44881889763779526,
                    "duration": 0.10452949999999994
                },
                {
                    "name": "C5",
                    "midi": 72,
                    "time": 9.825773000000002,
                    "velocity": 0.44881889763779526,
                    "duration": 0.10452949999999994
                },
                {
                    "name": "D#6",
                    "midi": 87,
                    "time": 9.825773000000002,
                    "velocity": 0.5354330708661418,
                    "duration": 0.10452949999999994
                },
                {
                    "name": "G#3",
                    "midi": 56,
                    "time": 10.034832000000002,
                    "velocity": 0.3700787401574803,
                    "duration": 0.05226475000000086
                },
                {
                    "name": "A#3",
                    "midi": 58,
                    "time": 10.087096750000002,
                    "velocity": 0.3779527559055118,
                    "duration": 0.05226475000000086
                },
                {
                    "name": "C4",
                    "midi": 60,
                    "time": 10.139361500000003,
                    "velocity": 0.4015748031496063,
                    "duration": 0.05226475000000086
                },
                {
                    "name": "D4",
                    "midi": 62,
                    "time": 10.191626250000004,
                    "velocity": 0.4094488188976378,
                    "duration": 0.05226475000000086
                },
                {
                    "name": "D#4",
                    "midi": 63,
                    "time": 10.243891000000005,
                    "velocity": 0.4409448818897638,
                    "duration": 0.10452949999999994
                },
                {
                    "name": "G#5",
                    "midi": 80,
                    "time": 10.452950000000005,
                    "velocity": 0.48031496062992124,
                    "duration": 0.0783971250000004
                },
                {
                    "name": "D5",
                    "midi": 74,
                    "time": 10.452950000000005,
                    "velocity": 0.48031496062992124,
                    "duration": 0.0783971250000004
                },
                {
                    "name": "C6",
                    "midi": 84,
                    "time": 10.452950000000005,
                    "velocity": 0.48031496062992124,
                    "duration": 0.0783971250000004
                },
                {
                    "name": "D6",
                    "midi": 86,
                    "time": 10.452950000000005,
                    "velocity": 0.5669291338582677,
                    "duration": 0.0783971250000004
                },
                {
                    "name": "G#6",
                    "midi": 92,
                    "time": 10.662009000000005,
                    "velocity": 0.5905511811023622,
                    "duration": 0.0783971250000004
                },
                {
                    "name": "G#5",
                    "midi": 80,
                    "time": 10.662009000000005,
                    "velocity": 0.49606299212598426,
                    "duration": 0.0783971250000004
                },
                {
                    "name": "C6",
                    "midi": 84,
                    "time": 10.662009000000005,
                    "velocity": 0.49606299212598426,
                    "duration": 0.0783971250000004
                },
                {
                    "name": "B5",
                    "midi": 83,
                    "time": 10.871068000000005,
                    "velocity": 0.5118110236220472,
                    "duration": 0.10452949999999994
                },
                {
                    "name": "G#5",
                    "midi": 80,
                    "time": 10.871068000000005,
                    "velocity": 0.5118110236220472,
                    "duration": 0.10452949999999994
                },
                {
                    "name": "G#6",
                    "midi": 92,
                    "time": 10.871068000000005,
                    "velocity": 0.6062992125984252,
                    "duration": 0.10452949999999994
                },
                {
                    "name": "D4",
                    "midi": 62,
                    "time": 11.080127000000005,
                    "velocity": 0.4015748031496063,
                    "duration": 0.05226475000000086
                },
                {
                    "name": "C4",
                    "midi": 60,
                    "time": 11.132391750000005,
                    "velocity": 0.4094488188976378,
                    "duration": 0.05226475000000086
                },
                {
                    "name": "B3",
                    "midi": 59,
                    "time": 11.184656500000006,
                    "velocity": 0.4251968503937008,
                    "duration": 0.05226475000000086
                },
                {
                    "name": "G#3",
                    "midi": 56,
                    "time": 11.236921250000007,
                    "velocity": 0.4409448818897638,
                    "duration": 0.05226475000000086
                },
                {
                    "name": "G3",
                    "midi": 55,
                    "time": 11.289186000000008,
                    "velocity": 0.48031496062992124,
                    "duration": 0.10452949999999994
                },
                {
                    "name": "G5",
                    "midi": 79,
                    "time": 11.498245000000008,
                    "velocity": 0.5118110236220472,
                    "duration": 0.0783971250000004
                },
                {
                    "name": "A#5",
                    "midi": 82,
                    "time": 11.498245000000008,
                    "velocity": 0.5118110236220472,
                    "duration": 0.0783971250000004
                },
                {
                    "name": "C#6",
                    "midi": 85,
                    "time": 11.498245000000008,
                    "velocity": 0.5118110236220472,
                    "duration": 0.0783971250000004
                },
                {
                    "name": "G6",
                    "midi": 91,
                    "time": 11.498245000000008,
                    "velocity": 0.6220472440944882,
                    "duration": 0.0783971250000004
                },
                {
                    "name": "A#6",
                    "midi": 94,
                    "time": 11.707304000000008,
                    "velocity": 0.5275590551181102,
                    "duration": 0.0783971250000004
                },
                {
                    "name": "C7",
                    "midi": 96,
                    "time": 11.707304000000008,
                    "velocity": 0.6377952755905512,
                    "duration": 0.0783971250000004
                },
                {
                    "name": "C6",
                    "midi": 84,
                    "time": 11.707304000000008,
                    "velocity": 0.5275590551181102,
                    "duration": 0.0783971250000004
                },
                {
                    "name": "G6",
                    "midi": 91,
                    "time": 11.707304000000008,
                    "velocity": 0.5275590551181102,
                    "duration": 0.0783971250000004
                },
                {
                    "name": "G#6",
                    "midi": 92,
                    "time": 11.916363000000008,
                    "velocity": 0.5511811023622047,
                    "duration": 0.10452949999999994
                },
                {
                    "name": "C6",
                    "midi": 84,
                    "time": 11.916363000000008,
                    "velocity": 0.5511811023622047,
                    "duration": 0.10452949999999994
                },
                {
                    "name": "C7",
                    "midi": 96,
                    "time": 11.916363000000008,
                    "velocity": 0.6535433070866141,
                    "duration": 0.10452949999999994
                },
                {
                    "name": "B3",
                    "midi": 59,
                    "time": 12.125422000000007,
                    "velocity": 0.4094488188976378,
                    "duration": 0.05226475000000086
                },
                {
                    "name": "C4",
                    "midi": 60,
                    "time": 12.177686750000008,
                    "velocity": 0.4251968503937008,
                    "duration": 0.05226475000000086
                },
                {
                    "name": "D4",
                    "midi": 62,
                    "time": 12.22995150000001,
                    "velocity": 0.4409448818897638,
                    "duration": 0.05226475000000086
                },
                {
                    "name": "E4",
                    "midi": 64,
                    "time": 12.28221625000001,
                    "velocity": 0.4645669291338583,
                    "duration": 0.05226475000000086
                },
                {
                    "name": "F4",
                    "midi": 65,
                    "time": 12.334481000000011,
                    "velocity": 0.49606299212598426,
                    "duration": 0.10452949999999994
                },
                {
                    "name": "G#6",
                    "midi": 92,
                    "time": 12.54354000000001,
                    "velocity": 0.5669291338582677,
                    "duration": 0.10452949999999994
                },
                {
                    "name": "F6",
                    "midi": 89,
                    "time": 12.54354000000001,
                    "velocity": 0.5669291338582677,
                    "duration": 0.10452949999999994
                },
                {
                    "name": "F7",
                    "midi": 101,
                    "time": 12.54354000000001,
                    "velocity": 0.6692913385826772,
                    "duration": 0.10452949999999994
                },
                {
                    "name": "C#4",
                    "midi": 61,
                    "time": 12.75259900000001,
                    "velocity": 0.3937007874015748,
                    "duration": 0.05226475000000086
                },
                {
                    "name": "D#4",
                    "midi": 63,
                    "time": 12.804863750000012,
                    "velocity": 0.4015748031496063,
                    "duration": 0.05226475000000086
                },
                {
                    "name": "F4",
                    "midi": 65,
                    "time": 12.857128500000012,
                    "velocity": 0.4251968503937008,
                    "duration": 0.05226475000000086
                },
                {
                    "name": "F#4",
                    "midi": 66,
                    "time": 12.909393250000013,
                    "velocity": 0.4330708661417323,
                    "duration": 0.05226475000000086
                },
                {
                    "name": "G#4",
                    "midi": 68,
                    "time": 12.961658000000014,
                    "velocity": 0.5275590551181102,
                    "duration": 0.10452949999999994
                },
                {
                    "name": "C#5",
                    "midi": 73,
                    "time": 13.170717000000014,
                    "velocity": 0.4251968503937008,
                    "duration": 0.05226475000000086
                },
                {
                    "name": "D#5",
                    "midi": 75,
                    "time": 13.222981750000015,
                    "velocity": 0.4330708661417323,
                    "duration": 0.05226475000000086
                },
                {
                    "name": "F5",
                    "midi": 77,
                    "time": 13.275246500000016,
                    "velocity": 0.4566929133858268,
                    "duration": 0.05226475000000086
                },
                {
                    "name": "F#5",
                    "midi": 78,
                    "time": 13.327511250000017,
                    "velocity": 0.47244094488188976,
                    "duration": 0.05226475000000086
                },
                {
                    "name": "G#5",
                    "midi": 80,
                    "time": 13.379776000000017,
                    "velocity": 0.5590551181102362,
                    "duration": 0.10452949999999994
                },
                {
                    "name": "C#6",
                    "midi": 85,
                    "time": 13.588835000000017,
                    "velocity": 0.4566929133858268,
                    "duration": 0.05226475000000086
                },
                {
                    "name": "D#6",
                    "midi": 87,
                    "time": 13.641099750000018,
                    "velocity": 0.4645669291338583,
                    "duration": 0.05226475000000086
                },
                {
                    "name": "F6",
                    "midi": 89,
                    "time": 13.693364500000019,
                    "velocity": 0.4881889763779528,
                    "duration": 0.05226475000000086
                },
                {
                    "name": "F#6",
                    "midi": 90,
                    "time": 13.74562925000002,
                    "velocity": 0.49606299212598426,
                    "duration": 0.05226475000000086
                },
                {
                    "name": "G#6",
                    "midi": 92,
                    "time": 13.79789400000002,
                    "velocity": 0.5905511811023622,
                    "duration": 0.10452949999999994
                },
                {
                    "name": "C#6",
                    "midi": 85,
                    "time": 14.11148250000002,
                    "velocity": 0.6062992125984252,
                    "duration": 0.10452949999999994
                },
                {
                    "name": "F6",
                    "midi": 89,
                    "time": 14.11148250000002,
                    "velocity": 0.6062992125984252,
                    "duration": 0.10452949999999994
                },
                {
                    "name": "C#7",
                    "midi": 97,
                    "time": 14.11148250000002,
                    "velocity": 0.7086614173228346,
                    "duration": 0.10452949999999994
                },
                {
                    "name": "C#7",
                    "midi": 97,
                    "time": 14.21601200000002,
                    "velocity": 0.6771653543307087,
                    "duration": 0.10452949999999994
                },
                {
                    "name": "F6",
                    "midi": 89,
                    "time": 14.21601200000002,
                    "velocity": 0.5669291338582677,
                    "duration": 0.10452949999999994
                },
                {
                    "name": "C#6",
                    "midi": 85,
                    "time": 14.21601200000002,
                    "velocity": 0.5669291338582677,
                    "duration": 0.10452949999999994
                },
                {
                    "name": "G#5",
                    "midi": 80,
                    "time": 14.42507100000002,
                    "velocity": 0.6141732283464567,
                    "duration": 0.10452949999999994
                },
                {
                    "name": "C#6",
                    "midi": 85,
                    "time": 14.42507100000002,
                    "velocity": 0.6141732283464567,
                    "duration": 0.10452949999999994
                },
                {
                    "name": "G#6",
                    "midi": 92,
                    "time": 14.42507100000002,
                    "velocity": 0.7165354330708661,
                    "duration": 0.10452949999999994
                },
                {
                    "name": "F5",
                    "midi": 77,
                    "time": 14.73865950000002,
                    "velocity": 0.5433070866141733,
                    "duration": 0.10452949999999994
                },
                {
                    "name": "G#5",
                    "midi": 80,
                    "time": 14.73865950000002,
                    "velocity": 0.5433070866141733,
                    "duration": 0.10452949999999994
                },
                {
                    "name": "F6",
                    "midi": 89,
                    "time": 14.73865950000002,
                    "velocity": 0.6456692913385826,
                    "duration": 0.10452949999999994
                },
                {
                    "name": "F5",
                    "midi": 77,
                    "time": 14.84318900000002,
                    "velocity": 0.5433070866141733,
                    "duration": 0.10452949999999994
                },
                {
                    "name": "G#5",
                    "midi": 80,
                    "time": 14.84318900000002,
                    "velocity": 0.5433070866141733,
                    "duration": 0.10452949999999994
                },
                {
                    "name": "F6",
                    "midi": 89,
                    "time": 14.84318900000002,
                    "velocity": 0.6456692913385826,
                    "duration": 0.10452949999999994
                },
                {
                    "name": "C#5",
                    "midi": 73,
                    "time": 15.36583650000002,
                    "velocity": 0.5354330708661418,
                    "duration": 0.10452949999999994
                },
                {
                    "name": "F5",
                    "midi": 77,
                    "time": 15.36583650000002,
                    "velocity": 0.5354330708661418,
                    "duration": 0.10452949999999994
                },
                {
                    "name": "G#5",
                    "midi": 80,
                    "time": 15.36583650000002,
                    "velocity": 0.5354330708661418,
                    "duration": 0.10452949999999994
                },
                {
                    "name": "C#6",
                    "midi": 85,
                    "time": 15.36583650000002,
                    "velocity": 0.6377952755905512,
                    "duration": 0.10452949999999994
                },
                {
                    "name": "C#5",
                    "midi": 73,
                    "time": 15.47036600000002,
                    "velocity": 0.5905511811023622,
                    "duration": 0.10452949999999994
                },
                {
                    "name": "F5",
                    "midi": 77,
                    "time": 15.47036600000002,
                    "velocity": 0.5905511811023622,
                    "duration": 0.10452949999999994
                },
                {
                    "name": "G#5",
                    "midi": 80,
                    "time": 15.47036600000002,
                    "velocity": 0.5905511811023622,
                    "duration": 0.10452949999999994
                },
                {
                    "name": "C#6",
                    "midi": 85,
                    "time": 15.47036600000002,
                    "velocity": 0.7007874015748031,
                    "duration": 0.10452949999999994
                },
                {
                    "name": "C5",
                    "midi": 72,
                    "time": 15.67942500000002,
                    "velocity": 0.5511811023622047,
                    "duration": 0.10452949999999994
                },
                {
                    "name": "E5",
                    "midi": 76,
                    "time": 15.67942500000002,
                    "velocity": 0.5511811023622047,
                    "duration": 0.10452949999999994
                },
                {
                    "name": "G#5",
                    "midi": 80,
                    "time": 15.67942500000002,
                    "velocity": 0.5511811023622047,
                    "duration": 0.10452949999999994
                },
                {
                    "name": "C6",
                    "midi": 84,
                    "time": 15.67942500000002,
                    "velocity": 0.6535433070866141,
                    "duration": 0.10452949999999994
                },
                {
                    "name": "C#5",
                    "midi": 73,
                    "time": 15.88848400000002,
                    "velocity": 0.5905511811023622,
                    "duration": 0.10452949999999994
                },
                {
                    "name": "F5",
                    "midi": 77,
                    "time": 15.88848400000002,
                    "velocity": 0.5905511811023622,
                    "duration": 0.10452949999999994
                },
                {
                    "name": "G#5",
                    "midi": 80,
                    "time": 15.88848400000002,
                    "velocity": 0.5905511811023622,
                    "duration": 0.10452949999999994
                },
                {
                    "name": "C#6",
                    "midi": 85,
                    "time": 15.88848400000002,
                    "velocity": 0.7007874015748031,
                    "duration": 0.10452949999999994
                },
                {
                    "name": "F5",
                    "midi": 77,
                    "time": 16.30660200000002,
                    "velocity": 0.5511811023622047,
                    "duration": 0.10452950000000172
                },
                {
                    "name": "G#5",
                    "midi": 80,
                    "time": 16.30660200000002,
                    "velocity": 0.5511811023622047,
                    "duration": 0.10452950000000172
                },
                {
                    "name": "D6",
                    "midi": 86,
                    "time": 16.30660200000002,
                    "velocity": 0.5511811023622047,
                    "duration": 0.10452950000000172
                },
                {
                    "name": "F6",
                    "midi": 89,
                    "time": 16.30660200000002,
                    "velocity": 0.6220472440944882,
                    "duration": 0.10452950000000172
                },
                {
                    "name": "C#5",
                    "midi": 73,
                    "time": 16.62019050000002,
                    "velocity": 0.5748031496062992,
                    "duration": 0.10452950000000172
                },
                {
                    "name": "C#6",
                    "midi": 85,
                    "time": 16.62019050000002,
                    "velocity": 0.6850393700787402,
                    "duration": 0.10452950000000172
                },
                {
                    "name": "D6",
                    "midi": 86,
                    "time": 16.724720000000023,
                    "velocity": 0.6456692913385826,
                    "duration": 0.10452950000000172
                },
                {
                    "name": "D5",
                    "midi": 74,
                    "time": 16.724720000000023,
                    "velocity": 0.5511811023622047,
                    "duration": 0.10452950000000172
                },
                {
                    "name": "D#5",
                    "midi": 75,
                    "time": 16.933779000000026,
                    "velocity": 0.5826771653543307,
                    "duration": 0.10452950000000172
                },
                {
                    "name": "F#5",
                    "midi": 78,
                    "time": 16.933779000000026,
                    "velocity": 0.5826771653543307,
                    "duration": 0.10452950000000172
                },
                {
                    "name": "A5",
                    "midi": 81,
                    "time": 16.933779000000026,
                    "velocity": 0.5826771653543307,
                    "duration": 0.10452950000000172
                },
                {
                    "name": "D#6",
                    "midi": 87,
                    "time": 16.933779000000026,
                    "velocity": 0.6929133858267716,
                    "duration": 0.10452950000000172
                },
                {
                    "name": "B4",
                    "midi": 71,
                    "time": 17.247367500000028,
                    "velocity": 0.5196850393700787,
                    "duration": 0.10452950000000172
                },
                {
                    "name": "B5",
                    "midi": 83,
                    "time": 17.247367500000028,
                    "velocity": 0.6220472440944882,
                    "duration": 0.10452950000000172
                },
                {
                    "name": "C5",
                    "midi": 72,
                    "time": 17.35189700000003,
                    "velocity": 0.5196850393700787,
                    "duration": 0.10452950000000172
                },
                {
                    "name": "C6",
                    "midi": 84,
                    "time": 17.35189700000003,
                    "velocity": 0.6220472440944882,
                    "duration": 0.10452950000000172
                },
                {
                    "name": "G5",
                    "midi": 79,
                    "time": 17.560956000000033,
                    "velocity": 0.5905511811023622,
                    "duration": 0.10452950000000172
                },
                {
                    "name": "B5",
                    "midi": 83,
                    "time": 17.560956000000033,
                    "velocity": 0.6377952755905512,
                    "duration": 0.10452950000000172
                },
                {
                    "name": "G6",
                    "midi": 91,
                    "time": 17.560956000000033,
                    "velocity": 0.7401574803149606,
                    "duration": 0.10452950000000172
                },
                {
                    "name": "D#6",
                    "midi": 87,
                    "time": 18.815310000000036,
                    "velocity": 0.6220472440944882,
                    "duration": 0.10452950000000172
                },
                {
                    "name": "F#5",
                    "midi": 78,
                    "time": 18.815310000000036,
                    "velocity": 0.5196850393700787,
                    "duration": 0.10452950000000172
                },
                {
                    "name": "D#5",
                    "midi": 75,
                    "time": 18.815310000000036,
                    "velocity": 0.5196850393700787,
                    "duration": 0.10452950000000172
                },
                {
                    "name": "C6",
                    "midi": 84,
                    "time": 19.128898500000037,
                    "velocity": 0.5748031496062992,
                    "duration": 0.10452950000000172
                },
                {
                    "name": "D#5",
                    "midi": 75,
                    "time": 19.128898500000037,
                    "velocity": 0.4881889763779528,
                    "duration": 0.10452950000000172
                },
                {
                    "name": "C5",
                    "midi": 72,
                    "time": 19.128898500000037,
                    "velocity": 0.4881889763779528,
                    "duration": 0.10452950000000172
                },
                {
                    "name": "C5",
                    "midi": 72,
                    "time": 19.23342800000004,
                    "velocity": 0.5196850393700787,
                    "duration": 0.10452950000000172
                },
                {
                    "name": "D#5",
                    "midi": 75,
                    "time": 19.23342800000004,
                    "velocity": 0.5196850393700787,
                    "duration": 0.10452950000000172
                },
                {
                    "name": "C6",
                    "midi": 84,
                    "time": 19.23342800000004,
                    "velocity": 0.6220472440944882,
                    "duration": 0.10452950000000172
                },
                {
                    "name": "A4",
                    "midi": 69,
                    "time": 19.75607550000004,
                    "velocity": 0.48031496062992124,
                    "duration": 0.10452950000000172
                },
                {
                    "name": "C5",
                    "midi": 72,
                    "time": 19.75607550000004,
                    "velocity": 0.48031496062992124,
                    "duration": 0.10452950000000172
                },
                {
                    "name": "A5",
                    "midi": 81,
                    "time": 19.75607550000004,
                    "velocity": 0.5669291338582677,
                    "duration": 0.10452950000000172
                },
                {
                    "name": "A4",
                    "midi": 69,
                    "time": 19.860605000000042,
                    "velocity": 0.5039370078740157,
                    "duration": 0.10452950000000172
                },
                {
                    "name": "C5",
                    "midi": 72,
                    "time": 19.860605000000042,
                    "velocity": 0.5039370078740157,
                    "duration": 0.10452950000000172
                },
                {
                    "name": "A5",
                    "midi": 81,
                    "time": 19.860605000000042,
                    "velocity": 0.6220472440944882,
                    "duration": 0.10452950000000172
                },
                {
                    "name": "F#4",
                    "midi": 66,
                    "time": 20.278723000000046,
                    "velocity": 0.48031496062992124,
                    "duration": 0.05226474999999908
                },
                {
                    "name": "F#5",
                    "midi": 78,
                    "time": 20.278723000000046,
                    "velocity": 0.5669291338582677,
                    "duration": 0.05226474999999908
                },
                {
                    "name": "D#4",
                    "midi": 63,
                    "time": 20.383252500000044,
                    "velocity": 0.44881889763779526,
                    "duration": 0.05226474999999908
                },
                {
                    "name": "D#5",
                    "midi": 75,
                    "time": 20.383252500000044,
                    "velocity": 0.5354330708661418,
                    "duration": 0.05226474999999908
                },
                {
                    "name": "D4",
                    "midi": 62,
                    "time": 20.487782000000042,
                    "velocity": 0.44881889763779526,
                    "duration": 0.05226474999999908
                },
                {
                    "name": "D5",
                    "midi": 74,
                    "time": 20.487782000000042,
                    "velocity": 0.5354330708661418,
                    "duration": 0.05226474999999908
                },
                {
                    "name": "C4",
                    "midi": 60,
                    "time": 20.59231150000004,
                    "velocity": 0.44881889763779526,
                    "duration": 0.05226474999999908
                },
                {
                    "name": "C5",
                    "midi": 72,
                    "time": 20.59231150000004,
                    "velocity": 0.5354330708661418,
                    "duration": 0.05226474999999908
                },
                {
                    "name": "G4",
                    "midi": 67,
                    "time": 20.69684100000004,
                    "velocity": 0.5039370078740157,
                    "duration": 0.10452950000000172
                },
                {
                    "name": "B4",
                    "midi": 71,
                    "time": 20.69684100000004,
                    "velocity": 0.5039370078740157,
                    "duration": 0.10452950000000172
                },
                {
                    "name": "G5",
                    "midi": 79,
                    "time": 20.69684100000004,
                    "velocity": 0.5984251968503937,
                    "duration": 0.10452950000000172
                },
                {
                    "name": "D#6",
                    "midi": 87,
                    "time": 21.95119500000004,
                    "velocity": 0.6220472440944882,
                    "duration": 0.10452950000000172
                },
                {
                    "name": "F#5",
                    "midi": 78,
                    "time": 21.95119500000004,
                    "velocity": 0.5196850393700787,
                    "duration": 0.10452950000000172
                },
                {
                    "name": "D#5",
                    "midi": 75,
                    "time": 21.95119500000004,
                    "velocity": 0.5196850393700787,
                    "duration": 0.10452950000000172
                },
                {
                    "name": "C6",
                    "midi": 84,
                    "time": 22.264783500000043,
                    "velocity": 0.5748031496062992,
                    "duration": 0.10452950000000172
                },
                {
                    "name": "D#5",
                    "midi": 75,
                    "time": 22.264783500000043,
                    "velocity": 0.4881889763779528,
                    "duration": 0.10452950000000172
                },
                {
                    "name": "C5",
                    "midi": 72,
                    "time": 22.264783500000043,
                    "velocity": 0.4881889763779528,
                    "duration": 0.10452950000000172
                },
                {
                    "name": "C5",
                    "midi": 72,
                    "time": 22.369313000000044,
                    "velocity": 0.5196850393700787,
                    "duration": 0.10452950000000172
                },
                {
                    "name": "D#5",
                    "midi": 75,
                    "time": 22.369313000000044,
                    "velocity": 0.5196850393700787,
                    "duration": 0.10452950000000172
                },
                {
                    "name": "C6",
                    "midi": 84,
                    "time": 22.369313000000044,
                    "velocity": 0.6220472440944882,
                    "duration": 0.10452950000000172
                },
                {
                    "name": "A4",
                    "midi": 69,
                    "time": 22.891960500000046,
                    "velocity": 0.48031496062992124,
                    "duration": 0.10452950000000172
                },
                {
                    "name": "C5",
                    "midi": 72,
                    "time": 22.891960500000046,
                    "velocity": 0.48031496062992124,
                    "duration": 0.10452950000000172
                },
                {
                    "name": "A5",
                    "midi": 81,
                    "time": 22.891960500000046,
                    "velocity": 0.5669291338582677,
                    "duration": 0.10452950000000172
                },
                {
                    "name": "A4",
                    "midi": 69,
                    "time": 22.996490000000048,
                    "velocity": 0.5039370078740157,
                    "duration": 0.10452950000000172
                },
                {
                    "name": "C5",
                    "midi": 72,
                    "time": 22.996490000000048,
                    "velocity": 0.5039370078740157,
                    "duration": 0.10452950000000172
                },
                {
                    "name": "A5",
                    "midi": 81,
                    "time": 22.996490000000048,
                    "velocity": 0.6220472440944882,
                    "duration": 0.10452950000000172
                },
                {
                    "name": "F#4",
                    "midi": 66,
                    "time": 23.41460800000005,
                    "velocity": 0.48031496062992124,
                    "duration": 0.05226474999999908
                },
                {
                    "name": "F#5",
                    "midi": 78,
                    "time": 23.41460800000005,
                    "velocity": 0.5669291338582677,
                    "duration": 0.05226474999999908
                },
                {
                    "name": "D#4",
                    "midi": 63,
                    "time": 23.51913750000005,
                    "velocity": 0.44881889763779526,
                    "duration": 0.05226474999999908
                },
                {
                    "name": "D#5",
                    "midi": 75,
                    "time": 23.51913750000005,
                    "velocity": 0.5354330708661418,
                    "duration": 0.05226474999999908
                },
                {
                    "name": "D4",
                    "midi": 62,
                    "time": 23.623667000000047,
                    "velocity": 0.44881889763779526,
                    "duration": 0.05226474999999908
                },
                {
                    "name": "D5",
                    "midi": 74,
                    "time": 23.623667000000047,
                    "velocity": 0.5354330708661418,
                    "duration": 0.05226474999999908
                },
                {
                    "name": "C4",
                    "midi": 60,
                    "time": 23.728196500000045,
                    "velocity": 0.44881889763779526,
                    "duration": 0.05226474999999908
                },
                {
                    "name": "C5",
                    "midi": 72,
                    "time": 23.728196500000045,
                    "velocity": 0.5354330708661418,
                    "duration": 0.05226474999999908
                },
                {
                    "name": "G4",
                    "midi": 67,
                    "time": 23.832726000000044,
                    "velocity": 0.5039370078740157,
                    "duration": 0.10452950000000172
                },
                {
                    "name": "B4",
                    "midi": 71,
                    "time": 23.832726000000044,
                    "velocity": 0.5039370078740157,
                    "duration": 0.10452950000000172
                },
                {
                    "name": "G5",
                    "midi": 79,
                    "time": 23.832726000000044,
                    "velocity": 0.5984251968503937,
                    "duration": 0.10452950000000172
                },
                {
                    "name": "D4",
                    "midi": 62,
                    "time": 24.146314500000045,
                    "velocity": 0.4330708661417323,
                    "duration": 0.10452950000000172
                },
                {
                    "name": "C4",
                    "midi": 60,
                    "time": 24.35537350000005,
                    "velocity": 0.4409448818897638,
                    "duration": 0.10452950000000172
                },
                {
                    "name": "B3",
                    "midi": 59,
                    "time": 24.564432500000052,
                    "velocity": 0.4566929133858268,
                    "duration": 0.10452950000000172
                },
                {
                    "name": "A3",
                    "midi": 57,
                    "time": 24.773491500000056,
                    "velocity": 0.4645669291338583,
                    "duration": 0.10452950000000172
                },
                {
                    "name": "G3",
                    "midi": 55,
                    "time": 24.98255050000006,
                    "velocity": 0.48031496062992124,
                    "duration": 0.10452950000000172
                },
                {
                    "name": "G#4",
                    "midi": 68,
                    "time": 25.191609500000062,
                    "velocity": 0.4881889763779528,
                    "duration": 0.10452950000000172
                },
                {
                    "name": "F#4",
                    "midi": 66,
                    "time": 25.400668500000066,
                    "velocity": 0.49606299212598426,
                    "duration": 0.10452950000000172
                },
                {
                    "name": "F4",
                    "midi": 65,
                    "time": 25.60972750000007,
                    "velocity": 0.5118110236220472,
                    "duration": 0.10452950000000172
                },
                {
                    "name": "D#4",
                    "midi": 63,
                    "time": 25.818786500000073,
                    "velocity": 0.5196850393700787,
                    "duration": 0.10452950000000172
                },
                {
                    "name": "C#4",
                    "midi": 61,
                    "time": 26.02349010416674,
                    "velocity": 0.5354330708661418,
                    "duration": 0.10452950000000172
                },
                {
                    "name": "G#5",
                    "midi": 80,
                    "time": 26.132375000000074,
                    "velocity": 0.5354330708661418,
                    "duration": 0.10452950000000172
                },
                {
                    "name": "F5",
                    "midi": 77,
                    "time": 26.132375000000074,
                    "velocity": 0.5354330708661418,
                    "duration": 0.10452950000000172
                },
                {
                    "name": "C#6",
                    "midi": 85,
                    "time": 26.132375000000074,
                    "velocity": 0.5354330708661418,
                    "duration": 0.10452950000000172
                },
                {
                    "name": "F6",
                    "midi": 89,
                    "time": 26.132375000000074,
                    "velocity": 0.6377952755905512,
                    "duration": 0.10452950000000172
                },
                {
                    "name": "D6",
                    "midi": 86,
                    "time": 26.341434000000078,
                    "velocity": 0.5511811023622047,
                    "duration": 0.10452950000000172
                },
                {
                    "name": "B5",
                    "midi": 83,
                    "time": 26.341434000000078,
                    "velocity": 0.5511811023622047,
                    "duration": 0.10452950000000172
                },
                {
                    "name": "G5",
                    "midi": 79,
                    "time": 26.341434000000078,
                    "velocity": 0.5511811023622047,
                    "duration": 0.10452950000000172
                },
                {
                    "name": "G6",
                    "midi": 91,
                    "time": 26.341434000000078,
                    "velocity": 0.6456692913385826,
                    "duration": 0.10452950000000172
                },
                {
                    "name": "D4",
                    "midi": 62,
                    "time": 26.65502250000008,
                    "velocity": 0.48031496062992124,
                    "duration": 0.10452950000000172
                },
                {
                    "name": "C4",
                    "midi": 60,
                    "time": 26.864081500000083,
                    "velocity": 0.4881889763779528,
                    "duration": 0.10452950000000172
                },
                {
                    "name": "B3",
                    "midi": 59,
                    "time": 27.073140500000086,
                    "velocity": 0.49606299212598426,
                    "duration": 0.10452950000000172
                },
                {
                    "name": "A3",
                    "midi": 57,
                    "time": 27.28219950000009,
                    "velocity": 0.5039370078740157,
                    "duration": 0.10452950000000172
                },
                {
                    "name": "G3",
                    "midi": 55,
                    "time": 27.491258500000093,
                    "velocity": 0.5196850393700787,
                    "duration": 0.10452950000000172
                },
                {
                    "name": "G#4",
                    "midi": 68,
                    "time": 27.700317500000097,
                    "velocity": 0.5275590551181102,
                    "duration": 0.10452950000000172
                },
                {
                    "name": "F#4",
                    "midi": 66,
                    "time": 27.9093765000001,
                    "velocity": 0.5511811023622047,
                    "duration": 0.10452950000000172
                },
                {
                    "name": "F4",
                    "midi": 65,
                    "time": 28.118435500000103,
                    "velocity": 0.5669291338582677,
                    "duration": 0.10452950000000172
                },
                {
                    "name": "D#4",
                    "midi": 63,
                    "time": 28.327494500000107,
                    "velocity": 0.5669291338582677,
                    "duration": 0.10452950000000172
                },
                {
                    "name": "C#4",
                    "midi": 61,
                    "time": 28.53655350000011,
                    "velocity": 0.5826771653543307,
                    "duration": 0.10452950000000172
                },
                {
                    "name": "G#5",
                    "midi": 80,
                    "time": 28.641083000000112,
                    "velocity": 0.44881889763779526,
                    "duration": 0.10452950000000172
                },
                {
                    "name": "F5",
                    "midi": 77,
                    "time": 28.641083000000112,
                    "velocity": 0.44881889763779526,
                    "duration": 0.10452950000000172
                },
                {
                    "name": "C#6",
                    "midi": 85,
                    "time": 28.641083000000112,
                    "velocity": 0.44881889763779526,
                    "duration": 0.10452950000000172
                },
                {
                    "name": "F6",
                    "midi": 89,
                    "time": 28.641083000000112,
                    "velocity": 0.5354330708661418,
                    "duration": 0.10452950000000172
                },
                {
                    "name": "G6",
                    "midi": 91,
                    "time": 28.850142000000115,
                    "velocity": 0.5196850393700787,
                    "duration": 0.6271769999999997
                },
                {
                    "name": "D6",
                    "midi": 86,
                    "time": 28.850142000000115,
                    "velocity": 0.5196850393700787,
                    "duration": 0.6271769999999997
                },
                {
                    "name": "B5",
                    "midi": 83,
                    "time": 28.850142000000115,
                    "velocity": 0.5196850393700787,
                    "duration": 0.6271769999999997
                },
                {
                    "name": "B6",
                    "midi": 95,
                    "time": 28.850142000000115,
                    "velocity": 0.6299212598425197,
                    "duration": 0.6271769999999997
                },
                {
                    "name": "C6",
                    "midi": 84,
                    "time": 29.477319000000115,
                    "velocity": 0.5275590551181102,
                    "duration": 0.6271769999999997
                },
                {
                    "name": "F6",
                    "midi": 89,
                    "time": 29.477319000000115,
                    "velocity": 0.5275590551181102,
                    "duration": 0.6271769999999997
                },
                {
                    "name": "G#6",
                    "midi": 92,
                    "time": 29.477319000000115,
                    "velocity": 0.5275590551181102,
                    "duration": 0.6271769999999997
                },
                {
                    "name": "C7",
                    "midi": 96,
                    "time": 29.477319000000115,
                    "velocity": 0.6377952755905512,
                    "duration": 0.6271769999999997
                },
                {
                    "name": "C#6",
                    "midi": 85,
                    "time": 30.104496000000115,
                    "velocity": 0.5669291338582677,
                    "duration": 0.6271769999999997
                },
                {
                    "name": "F6",
                    "midi": 89,
                    "time": 30.104496000000115,
                    "velocity": 0.5669291338582677,
                    "duration": 0.6271769999999997
                },
                {
                    "name": "G#6",
                    "midi": 92,
                    "time": 30.104496000000115,
                    "velocity": 0.5669291338582677,
                    "duration": 0.6271769999999997
                },
                {
                    "name": "C#7",
                    "midi": 97,
                    "time": 30.104496000000115,
                    "velocity": 0.6771653543307087,
                    "duration": 0.6271769999999997
                },
                {
                    "name": "D6",
                    "midi": 86,
                    "time": 30.731673000000114,
                    "velocity": 0.6062992125984252,
                    "duration": 0.6271769999999997
                },
                {
                    "name": "F6",
                    "midi": 89,
                    "time": 30.731673000000114,
                    "velocity": 0.6062992125984252,
                    "duration": 0.6271769999999997
                },
                {
                    "name": "G#6",
                    "midi": 92,
                    "time": 30.731673000000114,
                    "velocity": 0.6062992125984252,
                    "duration": 0.6271769999999997
                },
                {
                    "name": "D7",
                    "midi": 98,
                    "time": 30.731673000000114,
                    "velocity": 0.7165354330708661,
                    "duration": 0.6271769999999997
                },
                {
                    "name": "F7",
                    "midi": 101,
                    "time": 31.358850000000114,
                    "velocity": 0.6771653543307087,
                    "duration": 0.3135885000000016
                },
                {
                    "name": "D7",
                    "midi": 98,
                    "time": 31.358850000000114,
                    "velocity": 0.6771653543307087,
                    "duration": 0.3135885000000016
                },
                {
                    "name": "C7",
                    "midi": 96,
                    "time": 31.358850000000114,
                    "velocity": 0.5669291338582677,
                    "duration": 0.3135885000000016
                },
                {
                    "name": "F6",
                    "midi": 89,
                    "time": 31.358850000000114,
                    "velocity": 0.5669291338582677,
                    "duration": 0.3135885000000016
                },
                {
                    "name": "F6",
                    "midi": 89,
                    "time": 31.672438500000116,
                    "velocity": 0.5669291338582677,
                    "duration": 0.3135885000000016
                },
                {
                    "name": "C7",
                    "midi": 96,
                    "time": 31.672438500000116,
                    "velocity": 0.5669291338582677,
                    "duration": 0.3135885000000016
                },
                {
                    "name": "D7",
                    "midi": 98,
                    "time": 31.672438500000116,
                    "velocity": 0.6771653543307087,
                    "duration": 0.3135885000000016
                },
                {
                    "name": "F7",
                    "midi": 101,
                    "time": 31.672438500000116,
                    "velocity": 0.6771653543307087,
                    "duration": 0.3135885000000016
                },
                {
                    "name": "F6",
                    "midi": 89,
                    "time": 31.986027000000117,
                    "velocity": 0.5669291338582677,
                    "duration": 0.31358849999999805
                },
                {
                    "name": "C7",
                    "midi": 96,
                    "time": 31.986027000000117,
                    "velocity": 0.5669291338582677,
                    "duration": 0.31358849999999805
                },
                {
                    "name": "D7",
                    "midi": 98,
                    "time": 31.986027000000117,
                    "velocity": 0.6771653543307087,
                    "duration": 0.31358849999999805
                },
                {
                    "name": "F7",
                    "midi": 101,
                    "time": 31.986027000000117,
                    "velocity": 0.6771653543307087,
                    "duration": 0.31358849999999805
                },
                {
                    "name": "F6",
                    "midi": 89,
                    "time": 32.299615500000115,
                    "velocity": 0.5669291338582677,
                    "duration": 0.3135885000000016
                },
                {
                    "name": "C7",
                    "midi": 96,
                    "time": 32.299615500000115,
                    "velocity": 0.5669291338582677,
                    "duration": 0.3135885000000016
                },
                {
                    "name": "D7",
                    "midi": 98,
                    "time": 32.299615500000115,
                    "velocity": 0.6771653543307087,
                    "duration": 0.3135885000000016
                },
                {
                    "name": "F7",
                    "midi": 101,
                    "time": 32.299615500000115,
                    "velocity": 0.6771653543307087,
                    "duration": 0.3135885000000016
                },
                {
                    "name": "D3",
                    "midi": 50,
                    "time": 32.61320400000012,
                    "velocity": 0.5669291338582677,
                    "duration": 0.10452949999999817
                },
                {
                    "name": "F3",
                    "midi": 53,
                    "time": 32.61320400000012,
                    "velocity": 0.5669291338582677,
                    "duration": 0.10452949999999817
                },
                {
                    "name": "B3",
                    "midi": 59,
                    "time": 32.61320400000012,
                    "velocity": 0.6220472440944882,
                    "duration": 0.10452949999999817
                },
                {
                    "name": "G#6",
                    "midi": 92,
                    "time": 32.82226300000011,
                    "velocity": 0.5826771653543307,
                    "duration": 0.047038274999998464
                },
                {
                    "name": "G6",
                    "midi": 91,
                    "time": 32.86930127500011,
                    "velocity": 0.5748031496062992,
                    "duration": 0.04616719583333406
                },
                {
                    "name": "F#6",
                    "midi": 90,
                    "time": 32.915468470833446,
                    "velocity": 0.5669291338582677,
                    "duration": 0.047038274999998464
                },
                {
                    "name": "F6",
                    "midi": 89,
                    "time": 32.96163566666678,
                    "velocity": 0.5590551181102362,
                    "duration": 0.047038274999998464
                },
                {
                    "name": "E6",
                    "midi": 88,
                    "time": 33.00867394166678,
                    "velocity": 0.5511811023622047,
                    "duration": 0.04616719583333406
                },
                {
                    "name": "D#6",
                    "midi": 87,
                    "time": 33.05484113750011,
                    "velocity": 0.5433070866141733,
                    "duration": 0.047038274999998464
                },
                {
                    "name": "D6",
                    "midi": 86,
                    "time": 33.10187941250011,
                    "velocity": 0.5275590551181102,
                    "duration": 0.04616719583333406
                },
                {
                    "name": "C#6",
                    "midi": 85,
                    "time": 33.148046608333445,
                    "velocity": 0.5196850393700787,
                    "duration": 0.047038274999998464
                },
                {
                    "name": "C6",
                    "midi": 84,
                    "time": 33.19421380416678,
                    "velocity": 0.5118110236220472,
                    "duration": 0.047038274999998464
                },
                {
                    "name": "B5",
                    "midi": 83,
                    "time": 33.24038100000011,
                    "velocity": 0.6220472440944882,
                    "duration": 0.10452949999999817
                },
                {
                    "name": "G#5",
                    "midi": 80,
                    "time": 33.44944000000011,
                    "velocity": 0.49606299212598426,
                    "duration": 0.047038274999998464
                },
                {
                    "name": "G5",
                    "midi": 79,
                    "time": 33.49647827500011,
                    "velocity": 0.4881889763779528,
                    "duration": 0.04616719583333406
                },
                {
                    "name": "F#5",
                    "midi": 78,
                    "time": 33.54264547083344,
                    "velocity": 0.48031496062992124,
                    "duration": 0.04616719583333406
                },
                {
                    "name": "F5",
                    "midi": 77,
                    "time": 33.588812666666776,
                    "velocity": 0.47244094488188976,
                    "duration": 0.047038274999998464
                },
                {
                    "name": "E5",
                    "midi": 76,
                    "time": 33.63497986250011,
                    "velocity": 0.4645669291338583,
                    "duration": 0.04616719583333406
                },
                {
                    "name": "D#5",
                    "midi": 75,
                    "time": 33.68201813750011,
                    "velocity": 0.4566929133858268,
                    "duration": 0.047038274999998464
                },
                {
                    "name": "D5",
                    "midi": 74,
                    "time": 33.72905641250011,
                    "velocity": 0.4409448818897638,
                    "duration": 0.04616719583333406
                },
                {
                    "name": "C#5",
                    "midi": 73,
                    "time": 33.77522360833344,
                    "velocity": 0.4330708661417323,
                    "duration": 0.04616719583333406
                },
                {
                    "name": "C5",
                    "midi": 72,
                    "time": 33.821390804166775,
                    "velocity": 0.4330708661417323,
                    "duration": 0.047038274999998464
                },
                {
                    "name": "B4",
                    "midi": 71,
                    "time": 33.86755800000011,
                    "velocity": 0.5196850393700787,
                    "duration": 0.10452949999999817
                },
                {
                    "name": "G#4",
                    "midi": 68,
                    "time": 34.076617000000105,
                    "velocity": 0.41732283464566927,
                    "duration": 0.047038274999998464
                },
                {
                    "name": "G4",
                    "midi": 67,
                    "time": 34.123655275000104,
                    "velocity": 0.4094488188976378,
                    "duration": 0.04616719583333406
                },
                {
                    "name": "F#4",
                    "midi": 66,
                    "time": 34.16982247083344,
                    "velocity": 0.4015748031496063,
                    "duration": 0.04616719583333406
                },
                {
                    "name": "F4",
                    "midi": 65,
                    "time": 34.21598966666677,
                    "velocity": 0.3937007874015748,
                    "duration": 0.047038274999998464
                },
                {
                    "name": "E4",
                    "midi": 64,
                    "time": 34.262156862500106,
                    "velocity": 0.3937007874015748,
                    "duration": 0.04616719583333406
                },
                {
                    "name": "D#4",
                    "midi": 63,
                    "time": 34.309195137500105,
                    "velocity": 0.3858267716535433,
                    "duration": 0.047038274999998464
                },
                {
                    "name": "D4",
                    "midi": 62,
                    "time": 34.3562334125001,
                    "velocity": 0.3700787401574803,
                    "duration": 0.04616719583333406
                },
                {
                    "name": "C#4",
                    "midi": 61,
                    "time": 34.40240060833344,
                    "velocity": 0.36220472440944884,
                    "duration": 0.04616719583333406
                },
                {
                    "name": "C4",
                    "midi": 60,
                    "time": 34.44856780416677,
                    "velocity": 0.36220472440944884,
                    "duration": 0.047038274999998464
                },
                {
                    "name": "B3",
                    "midi": 59,
                    "time": 34.494735000000105,
                    "velocity": 0.4330708661417323,
                    "duration": 0.10452949999999817
                },
                {
                    "name": "G#3",
                    "midi": 56,
                    "time": 34.7037940000001,
                    "velocity": 0.41732283464566927,
                    "duration": 0.04616719583333406
                },
                {
                    "name": "G3",
                    "midi": 55,
                    "time": 34.749961195833436,
                    "velocity": 0.4094488188976378,
                    "duration": 0.04616719583333406
                },
                {
                    "name": "F#3",
                    "midi": 54,
                    "time": 34.796999470833434,
                    "velocity": 0.4015748031496063,
                    "duration": 0.04616719583333406
                },
                {
                    "name": "F3",
                    "midi": 53,
                    "time": 34.84316666666677,
                    "velocity": 0.3937007874015748,
                    "duration": 0.04616719583333406
                },
                {
                    "name": "E3",
                    "midi": 52,
                    "time": 34.8893338625001,
                    "velocity": 0.3937007874015748,
                    "duration": 0.04616719583333406
                },
                {
                    "name": "D#3",
                    "midi": 51,
                    "time": 34.9363721375001,
                    "velocity": 0.3858267716535433,
                    "duration": 0.04616719583333406
                },
                {
                    "name": "D3",
                    "midi": 50,
                    "time": 34.982539333333435,
                    "velocity": 0.3700787401574803,
                    "duration": 0.04616719583333406
                },
                {
                    "name": "C#3",
                    "midi": 49,
                    "time": 35.02957760833343,
                    "velocity": 0.36220472440944884,
                    "duration": 0.04616719583333406
                },
                {
                    "name": "C3",
                    "midi": 48,
                    "time": 35.07574480416677,
                    "velocity": 0.36220472440944884,
                    "duration": 0.04616719583333406
                },
                {
                    "name": "B2",
                    "midi": 47,
                    "time": 35.1219120000001,
                    "velocity": 0.33858267716535434,
                    "duration": 0.047038274999998464
                },
                {
                    "name": "C3",
                    "midi": 48,
                    "time": 35.1689502750001,
                    "velocity": 0.3543307086614173,
                    "duration": 0.04616719583333406
                },
                {
                    "name": "C#3",
                    "midi": 49,
                    "time": 35.215117470833434,
                    "velocity": 0.36220472440944884,
                    "duration": 0.04616719583333406
                },
                {
                    "name": "D3",
                    "midi": 50,
                    "time": 35.26128466666677,
                    "velocity": 0.3779527559055118,
                    "duration": 0.04616719583333406
                },
                {
                    "name": "D#3",
                    "midi": 51,
                    "time": 35.3074518625001,
                    "velocity": 0.3937007874015748,
                    "duration": 0.04616719583333406
                },
                {
                    "name": "E3",
                    "midi": 52,
                    "time": 35.3544901375001,
                    "velocity": 0.4015748031496063,
                    "duration": 0.04616719583333406
                },
                {
                    "name": "F3",
                    "midi": 53,
                    "time": 35.400657333333434,
                    "velocity": 0.4251968503937008,
                    "duration": 0.04616719583333406
                },
                {
                    "name": "F#3",
                    "midi": 54,
                    "time": 35.44769560833343,
                    "velocity": 0.4251968503937008,
                    "duration": 0.04616719583333406
                },
                {
                    "name": "G3",
                    "midi": 55,
                    "time": 35.49386280416677,
                    "velocity": 0.4409448818897638,
                    "duration": 0.04616719583333406
                },
                {
                    "name": "G#3",
                    "midi": 56,
                    "time": 35.5400300000001,
                    "velocity": 0.4566929133858268,
                    "duration": 0.04616719583333406
                },
                {
                    "name": "G3",
                    "midi": 55,
                    "time": 35.5870682750001,
                    "velocity": 0.44881889763779526,
                    "duration": 0.04616719583333406
                },
                {
                    "name": "F#3",
                    "midi": 54,
                    "time": 35.633235470833434,
                    "velocity": 0.4330708661417323,
                    "duration": 0.04616719583333406
                },
                {
                    "name": "F3",
                    "midi": 53,
                    "time": 35.68027374583343,
                    "velocity": 0.4251968503937008,
                    "duration": 0.04616719583333406
                },
                {
                    "name": "E3",
                    "midi": 52,
                    "time": 35.726440941666766,
                    "velocity": 0.4251968503937008,
                    "duration": 0.04616719583333406
                },
                {
                    "name": "D#3",
                    "midi": 51,
                    "time": 35.7726081375001,
                    "velocity": 0.4094488188976378,
                    "duration": 0.04616719583333406
                },
                {
                    "name": "D3",
                    "midi": 50,
                    "time": 35.8196464125001,
                    "velocity": 0.4015748031496063,
                    "duration": 0.04616719583333406
                },
                {
                    "name": "C#3",
                    "midi": 49,
                    "time": 35.86581360833343,
                    "velocity": 0.3937007874015748,
                    "duration": 0.04616719583333406
                },
                {
                    "name": "C3",
                    "midi": 48,
                    "time": 35.91285188333343,
                    "velocity": 0.3858267716535433,
                    "duration": 0.04616719583333406
                },
                {
                    "name": "B2",
                    "midi": 47,
                    "time": 35.9581480000001,
                    "velocity": 0.4566929133858268,
                    "duration": 0.20905899999999633
                },
                {
                    "name": "G3",
                    "midi": 55,
                    "time": 36.5853250000001,
                    "velocity": 0.3937007874015748,
                    "duration": 0.20905900000000344
                },
                {
                    "name": "C6",
                    "midi": 84,
                    "time": 39.7212100000001,
                    "velocity": 0.7086614173228346,
                    "duration": 0.10452949999999817
                },
                {
                    "name": "D#5",
                    "midi": 75,
                    "time": 39.7212100000001,
                    "velocity": 0.5984251968503937,
                    "duration": 0.10452949999999817
                },
                {
                    "name": "C5",
                    "midi": 72,
                    "time": 39.7212100000001,
                    "velocity": 0.5984251968503937,
                    "duration": 0.10452949999999817
                },
                {
                    "name": "G5",
                    "midi": 79,
                    "time": 40.0347985000001,
                    "velocity": 0.6614173228346457,
                    "duration": 0.10452949999999817
                },
                {
                    "name": "D#5",
                    "midi": 75,
                    "time": 40.0347985000001,
                    "velocity": 0.5590551181102362,
                    "duration": 0.10452949999999817
                },
                {
                    "name": "C5",
                    "midi": 72,
                    "time": 40.0347985000001,
                    "velocity": 0.5590551181102362,
                    "duration": 0.10452949999999817
                },
                {
                    "name": "G4",
                    "midi": 67,
                    "time": 40.0347985000001,
                    "velocity": 0.5590551181102362,
                    "duration": 0.10452949999999817
                },
                {
                    "name": "G4",
                    "midi": 67,
                    "time": 40.1393280000001,
                    "velocity": 0.5984251968503937,
                    "duration": 0.10452949999999817
                },
                {
                    "name": "C5",
                    "midi": 72,
                    "time": 40.1393280000001,
                    "velocity": 0.5984251968503937,
                    "duration": 0.10452949999999817
                },
                {
                    "name": "D#5",
                    "midi": 75,
                    "time": 40.1393280000001,
                    "velocity": 0.5984251968503937,
                    "duration": 0.10452949999999817
                },
                {
                    "name": "G5",
                    "midi": 79,
                    "time": 40.1393280000001,
                    "velocity": 0.7086614173228346,
                    "duration": 0.10452949999999817
                },
                {
                    "name": "D#4",
                    "midi": 63,
                    "time": 40.661975500000096,
                    "velocity": 0.5511811023622047,
                    "duration": 0.10452949999999817
                },
                {
                    "name": "G4",
                    "midi": 67,
                    "time": 40.661975500000096,
                    "velocity": 0.5511811023622047,
                    "duration": 0.10452949999999817
                },
                {
                    "name": "D#5",
                    "midi": 75,
                    "time": 40.661975500000096,
                    "velocity": 0.6456692913385826,
                    "duration": 0.10452949999999817
                },
                {
                    "name": "D#4",
                    "midi": 63,
                    "time": 40.766505000000095,
                    "velocity": 0.5826771653543307,
                    "duration": 0.10452949999999817
                },
                {
                    "name": "G4",
                    "midi": 67,
                    "time": 40.766505000000095,
                    "velocity": 0.5826771653543307,
                    "duration": 0.10452949999999817
                },
                {
                    "name": "D#5",
                    "midi": 75,
                    "time": 40.766505000000095,
                    "velocity": 0.7086614173228346,
                    "duration": 0.10452949999999817
                },
                {
                    "name": "D#4",
                    "midi": 63,
                    "time": 41.28915250000009,
                    "velocity": 0.5118110236220472,
                    "duration": 0.10452949999999817
                },
                {
                    "name": "G4",
                    "midi": 67,
                    "time": 41.28915250000009,
                    "velocity": 0.5118110236220472,
                    "duration": 0.10452949999999817
                },
                {
                    "name": "C5",
                    "midi": 72,
                    "time": 41.28915250000009,
                    "velocity": 0.6141732283464567,
                    "duration": 0.10452949999999817
                },
                {
                    "name": "D#4",
                    "midi": 63,
                    "time": 41.39368200000009,
                    "velocity": 0.5669291338582677,
                    "duration": 0.10452949999999817
                },
                {
                    "name": "G4",
                    "midi": 67,
                    "time": 41.39368200000009,
                    "velocity": 0.5669291338582677,
                    "duration": 0.10452949999999817
                },
                {
                    "name": "C5",
                    "midi": 72,
                    "time": 41.39368200000009,
                    "velocity": 0.6692913385826772,
                    "duration": 0.10452949999999817
                },
                {
                    "name": "D#4",
                    "midi": 63,
                    "time": 41.60274100000009,
                    "velocity": 0.5275590551181102,
                    "duration": 0.10452949999999817
                },
                {
                    "name": "G4",
                    "midi": 67,
                    "time": 41.60274100000009,
                    "velocity": 0.5275590551181102,
                    "duration": 0.10452949999999817
                },
                {
                    "name": "B4",
                    "midi": 71,
                    "time": 41.60274100000009,
                    "velocity": 0.6299212598425197,
                    "duration": 0.10452949999999817
                },
                {
                    "name": "D#4",
                    "midi": 63,
                    "time": 41.81180000000008,
                    "velocity": 0.5669291338582677,
                    "duration": 0.10452949999999817
                },
                {
                    "name": "G4",
                    "midi": 67,
                    "time": 41.81180000000008,
                    "velocity": 0.5669291338582677,
                    "duration": 0.10452949999999817
                },
                {
                    "name": "C5",
                    "midi": 72,
                    "time": 41.81180000000008,
                    "velocity": 0.6692913385826772,
                    "duration": 0.10452949999999817
                },
                {
                    "name": "C#6",
                    "midi": 85,
                    "time": 43.48427200000008,
                    "velocity": 0.7086614173228346,
                    "duration": 0.10452949999999817
                },
                {
                    "name": "F5",
                    "midi": 77,
                    "time": 43.48427200000008,
                    "velocity": 0.5984251968503937,
                    "duration": 0.10452949999999817
                },
                {
                    "name": "C#5",
                    "midi": 73,
                    "time": 43.48427200000008,
                    "velocity": 0.5984251968503937,
                    "duration": 0.10452949999999817
                },
                {
                    "name": "G#5",
                    "midi": 80,
                    "time": 43.797860500000084,
                    "velocity": 0.6614173228346457,
                    "duration": 0.10452949999999817
                },
                {
                    "name": "C#5",
                    "midi": 73,
                    "time": 43.797860500000084,
                    "velocity": 0.5590551181102362,
                    "duration": 0.10452949999999817
                },
                {
                    "name": "G#4",
                    "midi": 68,
                    "time": 43.797860500000084,
                    "velocity": 0.5590551181102362,
                    "duration": 0.10452949999999817
                },
                {
                    "name": "G#4",
                    "midi": 68,
                    "time": 43.90239000000008,
                    "velocity": 0.5984251968503937,
                    "duration": 0.10452949999999817
                },
                {
                    "name": "C#5",
                    "midi": 73,
                    "time": 43.90239000000008,
                    "velocity": 0.5984251968503937,
                    "duration": 0.10452949999999817
                },
                {
                    "name": "G#5",
                    "midi": 80,
                    "time": 43.90239000000008,
                    "velocity": 0.7086614173228346,
                    "duration": 0.10452949999999817
                },
                {
                    "name": "F4",
                    "midi": 65,
                    "time": 44.42503750000008,
                    "velocity": 0.5511811023622047,
                    "duration": 0.10452949999999817
                },
                {
                    "name": "G#4",
                    "midi": 68,
                    "time": 44.42503750000008,
                    "velocity": 0.5511811023622047,
                    "duration": 0.10452949999999817
                },
                {
                    "name": "F5",
                    "midi": 77,
                    "time": 44.42503750000008,
                    "velocity": 0.6456692913385826,
                    "duration": 0.10452949999999817
                },
                {
                    "name": "F4",
                    "midi": 65,
                    "time": 44.52956700000008,
                    "velocity": 0.5826771653543307,
                    "duration": 0.10452949999999817
                },
                {
                    "name": "G#4",
                    "midi": 68,
                    "time": 44.52956700000008,
                    "velocity": 0.5826771653543307,
                    "duration": 0.10452949999999817
                },
                {
                    "name": "F5",
                    "midi": 77,
                    "time": 44.52956700000008,
                    "velocity": 0.7086614173228346,
                    "duration": 0.10452949999999817
                },
                {
                    "name": "C#4",
                    "midi": 61,
                    "time": 45.052214500000076,
                    "velocity": 0.5118110236220472,
                    "duration": 0.10452949999999817
                },
                {
                    "name": "G#4",
                    "midi": 68,
                    "time": 45.052214500000076,
                    "velocity": 0.5118110236220472,
                    "duration": 0.10452949999999817
                },
                {
                    "name": "C#5",
                    "midi": 73,
                    "time": 45.052214500000076,
                    "velocity": 0.6141732283464567,
                    "duration": 0.10452949999999817
                },
                {
                    "name": "C#4",
                    "midi": 61,
                    "time": 45.156744000000074,
                    "velocity": 0.5669291338582677,
                    "duration": 0.10452949999999817
                },
                {
                    "name": "G#4",
                    "midi": 68,
                    "time": 45.156744000000074,
                    "velocity": 0.5669291338582677,
                    "duration": 0.10452949999999817
                },
                {
                    "name": "C#5",
                    "midi": 73,
                    "time": 45.156744000000074,
                    "velocity": 0.6692913385826772,
                    "duration": 0.10452949999999817
                },
                {
                    "name": "C4",
                    "midi": 60,
                    "time": 45.36580300000007,
                    "velocity": 0.5275590551181102,
                    "duration": 0.10452949999999817
                },
                {
                    "name": "G#4",
                    "midi": 68,
                    "time": 45.36580300000007,
                    "velocity": 0.5275590551181102,
                    "duration": 0.10452949999999817
                },
                {
                    "name": "C5",
                    "midi": 72,
                    "time": 45.36580300000007,
                    "velocity": 0.6299212598425197,
                    "duration": 0.10452949999999817
                },
                {
                    "name": "C#4",
                    "midi": 61,
                    "time": 45.57486200000007,
                    "velocity": 0.5669291338582677,
                    "duration": 0.10452949999999817
                },
                {
                    "name": "G#4",
                    "midi": 68,
                    "time": 45.57486200000007,
                    "velocity": 0.5669291338582677,
                    "duration": 0.10452949999999817
                },
                {
                    "name": "C#5",
                    "midi": 73,
                    "time": 45.57486200000007,
                    "velocity": 0.6692913385826772,
                    "duration": 0.10452949999999817
                },
                {
                    "name": "D4",
                    "midi": 62,
                    "time": 46.20203900000006,
                    "velocity": 0.3543307086614173,
                    "duration": 0.10452949999999817
                },
                {
                    "name": "G4",
                    "midi": 67,
                    "time": 46.20203900000006,
                    "velocity": 0.3543307086614173,
                    "duration": 0.10452949999999817
                },
                {
                    "name": "D5",
                    "midi": 74,
                    "time": 46.20203900000006,
                    "velocity": 0.41732283464566927,
                    "duration": 0.10452949999999817
                },
                {
                    "name": "A#3",
                    "midi": 58,
                    "time": 46.41109800000006,
                    "velocity": 0.31496062992125984,
                    "duration": 0.05226474999999908
                },
                {
                    "name": "C4",
                    "midi": 60,
                    "time": 46.46336275000006,
                    "velocity": 0.3228346456692913,
                    "duration": 0.05226474999999908
                },
                {
                    "name": "D4",
                    "midi": 62,
                    "time": 46.51562750000006,
                    "velocity": 0.3464566929133858,
                    "duration": 0.05226474999999908
                },
                {
                    "name": "D#4",
                    "midi": 63,
                    "time": 46.56789225000006,
                    "velocity": 0.3543307086614173,
                    "duration": 0.05226474999999908
                },
                {
                    "name": "F4",
                    "midi": 65,
                    "time": 46.620157000000056,
                    "velocity": 0.3700787401574803,
                    "duration": 0.10452949999999817
                },
                {
                    "name": "D#4",
                    "midi": 63,
                    "time": 46.82921600000005,
                    "velocity": 0.3700787401574803,
                    "duration": 0.10452949999999817
                },
                {
                    "name": "F#4",
                    "midi": 66,
                    "time": 46.82921600000005,
                    "velocity": 0.3700787401574803,
                    "duration": 0.10452949999999817
                },
                {
                    "name": "D#5",
                    "midi": 75,
                    "time": 46.82921600000005,
                    "velocity": 0.44881889763779526,
                    "duration": 0.10452949999999817
                },
                {
                    "name": "F#5",
                    "midi": 78,
                    "time": 47.03827500000005,
                    "velocity": 0.4645669291338583,
                    "duration": 0.10452949999999817
                },
                {
                    "name": "F#4",
                    "midi": 66,
                    "time": 47.03827500000005,
                    "velocity": 0.3858267716535433,
                    "duration": 0.10452949999999817
                },
                {
                    "name": "A#4",
                    "midi": 70,
                    "time": 47.03827500000005,
                    "velocity": 0.3858267716535433,
                    "duration": 0.10452949999999817
                },
                {
                    "name": "D5",
                    "midi": 74,
                    "time": 47.247334000000045,
                    "velocity": 0.4015748031496063,
                    "duration": 0.10452949999999817
                },
                {
                    "name": "A#4",
                    "midi": 70,
                    "time": 47.247334000000045,
                    "velocity": 0.4015748031496063,
                    "duration": 0.10452949999999817
                },
                {
                    "name": "A#5",
                    "midi": 82,
                    "time": 47.247334000000045,
                    "velocity": 0.47244094488188976,
                    "duration": 0.10452949999999817
                },
                {
                    "name": "F4",
                    "midi": 65,
                    "time": 47.45639300000004,
                    "velocity": 0.33070866141732286,
                    "duration": 0.05226474999999908
                },
                {
                    "name": "D#4",
                    "midi": 63,
                    "time": 47.50865775000004,
                    "velocity": 0.33858267716535434,
                    "duration": 0.05226474999999908
                },
                {
                    "name": "D4",
                    "midi": 62,
                    "time": 47.56092250000004,
                    "velocity": 0.3543307086614173,
                    "duration": 0.05226474999999908
                },
                {
                    "name": "C4",
                    "midi": 60,
                    "time": 47.61318725000004,
                    "velocity": 0.36220472440944884,
                    "duration": 0.05226474999999908
                },
                {
                    "name": "A#3",
                    "midi": 58,
                    "time": 47.66545200000004,
                    "velocity": 0.3858267716535433,
                    "duration": 0.10452949999999817
                },
                {
                    "name": "B4",
                    "midi": 71,
                    "time": 47.874511000000034,
                    "velocity": 0.4251968503937008,
                    "duration": 0.10452949999999817
                },
                {
                    "name": "D#5",
                    "midi": 75,
                    "time": 47.874511000000034,
                    "velocity": 0.4251968503937008,
                    "duration": 0.10452949999999817
                },
                {
                    "name": "B5",
                    "midi": 83,
                    "time": 47.874511000000034,
                    "velocity": 0.5039370078740157,
                    "duration": 0.10452949999999817
                },
                {
                    "name": "D#6",
                    "midi": 87,
                    "time": 48.08357000000003,
                    "velocity": 0.5196850393700787,
                    "duration": 0.10452949999999817
                },
                {
                    "name": "D#5",
                    "midi": 75,
                    "time": 48.08357000000003,
                    "velocity": 0.4330708661417323,
                    "duration": 0.10452949999999817
                },
                {
                    "name": "B5",
                    "midi": 83,
                    "time": 48.08357000000003,
                    "velocity": 0.4330708661417323,
                    "duration": 0.10452949999999817
                },
                {
                    "name": "B5",
                    "midi": 83,
                    "time": 48.29262900000003,
                    "velocity": 0.44881889763779526,
                    "duration": 0.10452949999999817
                },
                {
                    "name": "E5",
                    "midi": 76,
                    "time": 48.29262900000003,
                    "velocity": 0.44881889763779526,
                    "duration": 0.10452949999999817
                },
                {
                    "name": "E6",
                    "midi": 88,
                    "time": 48.29262900000003,
                    "velocity": 0.5354330708661418,
                    "duration": 0.10452949999999817
                },
                {
                    "name": "E4",
                    "midi": 64,
                    "time": 48.50168800000002,
                    "velocity": 0.3700787401574803,
                    "duration": 0.05226474999999908
                },
                {
                    "name": "F#4",
                    "midi": 66,
                    "time": 48.55395275000002,
                    "velocity": 0.3779527559055118,
                    "duration": 0.05226474999999908
                },
                {
                    "name": "G#4",
                    "midi": 68,
                    "time": 48.60621750000002,
                    "velocity": 0.4015748031496063,
                    "duration": 0.05226474999999908
                },
                {
                    "name": "A4",
                    "midi": 69,
                    "time": 48.65848225000002,
                    "velocity": 0.4094488188976378,
                    "duration": 0.05226474999999908
                },
                {
                    "name": "B4",
                    "midi": 71,
                    "time": 48.71074700000002,
                    "velocity": 0.4409448818897638,
                    "duration": 0.10452949999999817
                },
                {
                    "name": "D#5",
                    "midi": 75,
                    "time": 48.919806000000015,
                    "velocity": 0.48031496062992124,
                    "duration": 0.10452949999999817
                },
                {
                    "name": "C6",
                    "midi": 84,
                    "time": 48.919806000000015,
                    "velocity": 0.48031496062992124,
                    "duration": 0.10452949999999817
                },
                {
                    "name": "D#6",
                    "midi": 87,
                    "time": 48.919806000000015,
                    "velocity": 0.5669291338582677,
                    "duration": 0.10452949999999817
                },
                {
                    "name": "C7",
                    "midi": 96,
                    "time": 49.12886500000001,
                    "velocity": 0.5905511811023622,
                    "duration": 0.10452949999999817
                },
                {
                    "name": "C6",
                    "midi": 84,
                    "time": 49.12886500000001,
                    "velocity": 0.49606299212598426,
                    "duration": 0.10452949999999817
                },
                {
                    "name": "D#6",
                    "midi": 87,
                    "time": 49.12886500000001,
                    "velocity": 0.49606299212598426,
                    "duration": 0.10452949999999817
                },
                {
                    "name": "E6",
                    "midi": 88,
                    "time": 49.33792400000001,
                    "velocity": 0.5118110236220472,
                    "duration": 0.10452949999999817
                },
                {
                    "name": "B5",
                    "midi": 83,
                    "time": 49.33792400000001,
                    "velocity": 0.5118110236220472,
                    "duration": 0.10452949999999817
                },
                {
                    "name": "B6",
                    "midi": 95,
                    "time": 49.33792400000001,
                    "velocity": 0.6062992125984252,
                    "duration": 0.10452949999999817
                },
                {
                    "name": "B4",
                    "midi": 71,
                    "time": 49.546983000000004,
                    "velocity": 0.4015748031496063,
                    "duration": 0.05226474999999908
                },
                {
                    "name": "A4",
                    "midi": 69,
                    "time": 49.59924775,
                    "velocity": 0.4094488188976378,
                    "duration": 0.05226474999999908
                },
                {
                    "name": "G#4",
                    "midi": 68,
                    "time": 49.6515125,
                    "velocity": 0.4251968503937008,
                    "duration": 0.05226474999999908
                },
                {
                    "name": "F#4",
                    "midi": 66,
                    "time": 49.70377725,
                    "velocity": 0.4409448818897638,
                    "duration": 0.05226474999999908
                },
                {
                    "name": "E4",
                    "midi": 64,
                    "time": 49.756042,
                    "velocity": 0.48031496062992124,
                    "duration": 0.10452949999999817
                },
                {
                    "name": "A#5",
                    "midi": 82,
                    "time": 49.965101,
                    "velocity": 0.5118110236220472,
                    "duration": 0.10452949999999817
                },
                {
                    "name": "C#6",
                    "midi": 85,
                    "time": 49.965101,
                    "velocity": 0.5118110236220472,
                    "duration": 0.10452949999999817
                },
                {
                    "name": "A#6",
                    "midi": 94,
                    "time": 49.965101,
                    "velocity": 0.6220472440944882,
                    "duration": 0.10452949999999817
                },
                {
                    "name": "C#7",
                    "midi": 97,
                    "time": 50.17415999999999,
                    "velocity": 0.6377952755905512,
                    "duration": 0.10452949999999817
                },
                {
                    "name": "C#6",
                    "midi": 85,
                    "time": 50.17415999999999,
                    "velocity": 0.5275590551181102,
                    "duration": 0.10452949999999817
                },
                {
                    "name": "A#6",
                    "midi": 94,
                    "time": 50.17415999999999,
                    "velocity": 0.5275590551181102,
                    "duration": 0.10452949999999817
                },
                {
                    "name": "A6",
                    "midi": 93,
                    "time": 50.38321899999999,
                    "velocity": 0.5511811023622047,
                    "duration": 0.10452949999999817
                },
                {
                    "name": "D6",
                    "midi": 86,
                    "time": 50.38321899999999,
                    "velocity": 0.5511811023622047,
                    "duration": 0.10452949999999817
                },
                {
                    "name": "D7",
                    "midi": 98,
                    "time": 50.38321899999999,
                    "velocity": 0.6535433070866141,
                    "duration": 0.10452949999999817
                },
                {
                    "name": "D4",
                    "midi": 62,
                    "time": 50.592277999999986,
                    "velocity": 0.4094488188976378,
                    "duration": 0.05226474999999908
                },
                {
                    "name": "E4",
                    "midi": 64,
                    "time": 50.644542749999985,
                    "velocity": 0.4251968503937008,
                    "duration": 0.05226474999999908
                },
                {
                    "name": "F#4",
                    "midi": 66,
                    "time": 50.696807499999984,
                    "velocity": 0.4409448818897638,
                    "duration": 0.05226474999999908
                },
                {
                    "name": "G4",
                    "midi": 67,
                    "time": 50.74907224999998,
                    "velocity": 0.4645669291338583,
                    "duration": 0.05226474999999908
                },
                {
                    "name": "A4",
                    "midi": 69,
                    "time": 50.80133699999998,
                    "velocity": 0.49606299212598426,
                    "duration": 0.10452949999999817
                },
                {
                    "name": "B6",
                    "midi": 95,
                    "time": 51.01039599999998,
                    "velocity": 0.5669291338582677,
                    "duration": 0.10452949999999817
                },
                {
                    "name": "G#6",
                    "midi": 92,
                    "time": 51.01039599999998,
                    "velocity": 0.5669291338582677,
                    "duration": 0.10452949999999817
                },
                {
                    "name": "D6",
                    "midi": 86,
                    "time": 51.01039599999998,
                    "velocity": 0.5669291338582677,
                    "duration": 0.10452949999999817
                },
                {
                    "name": "D7",
                    "midi": 98,
                    "time": 51.01039599999998,
                    "velocity": 0.6692913385826772,
                    "duration": 0.10452949999999817
                },
                {
                    "name": "D4",
                    "midi": 62,
                    "time": 51.219454999999975,
                    "velocity": 0.3937007874015748,
                    "duration": 0.05226474999999908
                },
                {
                    "name": "F4",
                    "midi": 65,
                    "time": 51.271719749999974,
                    "velocity": 0.4015748031496063,
                    "duration": 0.05226474999999908
                },
                {
                    "name": "G#4",
                    "midi": 68,
                    "time": 51.32398449999997,
                    "velocity": 0.4251968503937008,
                    "duration": 0.05226474999999908
                },
                {
                    "name": "A#4",
                    "midi": 70,
                    "time": 51.37624924999997,
                    "velocity": 0.4330708661417323,
                    "duration": 0.05226474999999908
                },
                {
                    "name": "B4",
                    "midi": 71,
                    "time": 51.42851399999997,
                    "velocity": 0.5275590551181102,
                    "duration": 0.10452949999999817
                },
                {
                    "name": "D5",
                    "midi": 74,
                    "time": 51.63757299999997,
                    "velocity": 0.4251968503937008,
                    "duration": 0.05226474999999908
                },
                {
                    "name": "F5",
                    "midi": 77,
                    "time": 51.68983774999997,
                    "velocity": 0.4330708661417323,
                    "duration": 0.05226474999999908
                },
                {
                    "name": "G#5",
                    "midi": 80,
                    "time": 51.742102499999966,
                    "velocity": 0.4566929133858268,
                    "duration": 0.05226474999999908
                },
                {
                    "name": "A#5",
                    "midi": 82,
                    "time": 51.794367249999965,
                    "velocity": 0.47244094488188976,
                    "duration": 0.05226474999999908
                },
                {
                    "name": "B5",
                    "midi": 83,
                    "time": 51.846631999999964,
                    "velocity": 0.5590551181102362,
                    "duration": 0.10452949999999817
                },
                {
                    "name": "D6",
                    "midi": 86,
                    "time": 52.05569099999996,
                    "velocity": 0.4566929133858268,
                    "duration": 0.05226474999999908
                },
                {
                    "name": "F6",
                    "midi": 89,
                    "time": 52.10795574999996,
                    "velocity": 0.4645669291338583,
                    "duration": 0.05226474999999908
                },
                {
                    "name": "G#6",
                    "midi": 92,
                    "time": 52.16022049999996,
                    "velocity": 0.4881889763779528,
                    "duration": 0.05226474999999908
                },
                {
                    "name": "A#6",
                    "midi": 94,
                    "time": 52.21248524999996,
                    "velocity": 0.49606299212598426,
                    "duration": 0.05226474999999908
                },
                {
                    "name": "B6",
                    "midi": 95,
                    "time": 52.26474999999996,
                    "velocity": 0.5905511811023622,
                    "duration": 0.10452949999999817
                },
                {
                    "name": "D#6",
                    "midi": 87,
                    "time": 52.57833849999996,
                    "velocity": 0.6062992125984252,
                    "duration": 0.10452949999999817
                },
                {
                    "name": "B6",
                    "midi": 95,
                    "time": 52.57833849999996,
                    "velocity": 0.6062992125984252,
                    "duration": 0.10452949999999817
                },
                {
                    "name": "D#7",
                    "midi": 99,
                    "time": 52.57833849999996,
                    "velocity": 0.7086614173228346,
                    "duration": 0.10452949999999817
                },
                {
                    "name": "D#7",
                    "midi": 99,
                    "time": 52.68286799999996,
                    "velocity": 0.6771653543307087,
                    "duration": 0.10452949999999817
                },
                {
                    "name": "B6",
                    "midi": 95,
                    "time": 52.68286799999996,
                    "velocity": 0.5669291338582677,
                    "duration": 0.10452949999999817
                },
                {
                    "name": "D#6",
                    "midi": 87,
                    "time": 52.68286799999996,
                    "velocity": 0.5669291338582677,
                    "duration": 0.10452949999999817
                },
                {
                    "name": "B5",
                    "midi": 83,
                    "time": 52.89192699999995,
                    "velocity": 0.6141732283464567,
                    "duration": 0.10452949999999817
                },
                {
                    "name": "D#6",
                    "midi": 87,
                    "time": 52.89192699999995,
                    "velocity": 0.6141732283464567,
                    "duration": 0.10452949999999817
                },
                {
                    "name": "B6",
                    "midi": 95,
                    "time": 52.89192699999995,
                    "velocity": 0.7165354330708661,
                    "duration": 0.10452949999999817
                },
                {
                    "name": "F#5",
                    "midi": 78,
                    "time": 53.205515499999954,
                    "velocity": 0.5433070866141733,
                    "duration": 0.10452949999999817
                },
                {
                    "name": "B5",
                    "midi": 83,
                    "time": 53.205515499999954,
                    "velocity": 0.5433070866141733,
                    "duration": 0.10452949999999817
                },
                {
                    "name": "F#6",
                    "midi": 90,
                    "time": 53.205515499999954,
                    "velocity": 0.6456692913385826,
                    "duration": 0.10452949999999817
                },
                {
                    "name": "F#5",
                    "midi": 78,
                    "time": 53.31004499999995,
                    "velocity": 0.5433070866141733,
                    "duration": 0.10452949999999817
                },
                {
                    "name": "B5",
                    "midi": 83,
                    "time": 53.31004499999995,
                    "velocity": 0.5433070866141733,
                    "duration": 0.10452949999999817
                },
                {
                    "name": "F#6",
                    "midi": 90,
                    "time": 53.31004499999995,
                    "velocity": 0.6456692913385826,
                    "duration": 0.10452949999999817
                },
                {
                    "name": "D#5",
                    "midi": 75,
                    "time": 53.83269249999995,
                    "velocity": 0.5354330708661418,
                    "duration": 0.10452949999999817
                },
                {
                    "name": "B5",
                    "midi": 83,
                    "time": 53.83269249999995,
                    "velocity": 0.5354330708661418,
                    "duration": 0.10452949999999817
                },
                {
                    "name": "D#6",
                    "midi": 87,
                    "time": 53.83269249999995,
                    "velocity": 0.6377952755905512,
                    "duration": 0.10452949999999817
                },
                {
                    "name": "D#5",
                    "midi": 75,
                    "time": 53.93722199999995,
                    "velocity": 0.5905511811023622,
                    "duration": 0.10452949999999817
                },
                {
                    "name": "B5",
                    "midi": 83,
                    "time": 53.93722199999995,
                    "velocity": 0.5905511811023622,
                    "duration": 0.10452949999999817
                },
                {
                    "name": "D#6",
                    "midi": 87,
                    "time": 53.93722199999995,
                    "velocity": 0.7007874015748031,
                    "duration": 0.10452949999999817
                },
                {
                    "name": "D5",
                    "midi": 74,
                    "time": 54.146280999999945,
                    "velocity": 0.5511811023622047,
                    "duration": 0.10452949999999817
                },
                {
                    "name": "B5",
                    "midi": 83,
                    "time": 54.146280999999945,
                    "velocity": 0.5511811023622047,
                    "duration": 0.10452949999999817
                },
                {
                    "name": "D6",
                    "midi": 86,
                    "time": 54.146280999999945,
                    "velocity": 0.6535433070866141,
                    "duration": 0.10452949999999817
                },
                {
                    "name": "D#5",
                    "midi": 75,
                    "time": 54.35533999999994,
                    "velocity": 0.5905511811023622,
                    "duration": 0.10452949999999817
                },
                {
                    "name": "B5",
                    "midi": 83,
                    "time": 54.35533999999994,
                    "velocity": 0.5905511811023622,
                    "duration": 0.10452949999999817
                },
                {
                    "name": "D#6",
                    "midi": 87,
                    "time": 54.35533999999994,
                    "velocity": 0.7007874015748031,
                    "duration": 0.10452949999999817
                },
                {
                    "name": "F#5",
                    "midi": 78,
                    "time": 54.77345799999994,
                    "velocity": 0.5511811023622047,
                    "duration": 0.10452949999999817
                },
                {
                    "name": "B5",
                    "midi": 83,
                    "time": 54.77345799999994,
                    "velocity": 0.5511811023622047,
                    "duration": 0.10452949999999817
                },
                {
                    "name": "F#6",
                    "midi": 90,
                    "time": 54.77345799999994,
                    "velocity": 0.6220472440944882,
                    "duration": 0.10452949999999817
                },
                {
                    "name": "D5",
                    "midi": 74,
                    "time": 55.08704649999994,
                    "velocity": 0.5748031496062992,
                    "duration": 0.10452949999999817
                },
                {
                    "name": "D6",
                    "midi": 86,
                    "time": 55.08704649999994,
                    "velocity": 0.6850393700787402,
                    "duration": 0.10452949999999817
                },
                {
                    "name": "D#6",
                    "midi": 87,
                    "time": 55.19157599999994,
                    "velocity": 0.6456692913385826,
                    "duration": 0.10452949999999817
                },
                {
                    "name": "D#5",
                    "midi": 75,
                    "time": 55.19157599999994,
                    "velocity": 0.5511811023622047,
                    "duration": 0.10452949999999817
                },
                {
                    "name": "F#5",
                    "midi": 78,
                    "time": 55.40063499999994,
                    "velocity": 0.5826771653543307,
                    "duration": 0.10452949999999817
                },
                {
                    "name": "C6",
                    "midi": 84,
                    "time": 55.40063499999994,
                    "velocity": 0.5826771653543307,
                    "duration": 0.10452949999999817
                },
                {
                    "name": "F#6",
                    "midi": 90,
                    "time": 55.40063499999994,
                    "velocity": 0.6929133858267716,
                    "duration": 0.10452949999999817
                },
                {
                    "name": "D5",
                    "midi": 74,
                    "time": 55.71422349999994,
                    "velocity": 0.5196850393700787,
                    "duration": 0.10452949999999817
                },
                {
                    "name": "D6",
                    "midi": 86,
                    "time": 55.71422349999994,
                    "velocity": 0.6220472440944882,
                    "duration": 0.10452949999999817
                },
                {
                    "name": "D#5",
                    "midi": 75,
                    "time": 55.81875299999994,
                    "velocity": 0.5196850393700787,
                    "duration": 0.10452949999999817
                },
                {
                    "name": "D#6",
                    "midi": 87,
                    "time": 55.81875299999994,
                    "velocity": 0.6220472440944882,
                    "duration": 0.10452949999999817
                },
                {
                    "name": "A#5",
                    "midi": 82,
                    "time": 56.02781199999993,
                    "velocity": 0.5905511811023622,
                    "duration": 0.10452949999999817
                },
                {
                    "name": "D6",
                    "midi": 86,
                    "time": 56.02781199999993,
                    "velocity": 0.6377952755905512,
                    "duration": 0.10452949999999817
                },
                {
                    "name": "A#6",
                    "midi": 94,
                    "time": 56.02781199999993,
                    "velocity": 0.7401574803149606,
                    "duration": 0.10452949999999817
                },
                {
                    "name": "F#6",
                    "midi": 90,
                    "time": 57.28216599999993,
                    "velocity": 0.6220472440944882,
                    "duration": 0.10452949999999817
                },
                {
                    "name": "A5",
                    "midi": 81,
                    "time": 57.28216599999993,
                    "velocity": 0.5196850393700787,
                    "duration": 0.10452949999999817
                },
                {
                    "name": "F#5",
                    "midi": 78,
                    "time": 57.28216599999993,
                    "velocity": 0.5196850393700787,
                    "duration": 0.10452949999999817
                },
                {
                    "name": "D#6",
                    "midi": 87,
                    "time": 57.595754499999934,
                    "velocity": 0.5748031496062992,
                    "duration": 0.10452949999999817
                },
                {
                    "name": "F#5",
                    "midi": 78,
                    "time": 57.595754499999934,
                    "velocity": 0.4881889763779528,
                    "duration": 0.10452949999999817
                },
                {
                    "name": "D#5",
                    "midi": 75,
                    "time": 57.595754499999934,
                    "velocity": 0.4881889763779528,
                    "duration": 0.10452949999999817
                },
                {
                    "name": "D#5",
                    "midi": 75,
                    "time": 57.70028399999993,
                    "velocity": 0.5196850393700787,
                    "duration": 0.10452949999999817
                },
                {
                    "name": "F#5",
                    "midi": 78,
                    "time": 57.70028399999993,
                    "velocity": 0.5196850393700787,
                    "duration": 0.10452949999999817
                },
                {
                    "name": "D#6",
                    "midi": 87,
                    "time": 57.70028399999993,
                    "velocity": 0.6220472440944882,
                    "duration": 0.10452949999999817
                },
                {
                    "name": "C5",
                    "midi": 72,
                    "time": 58.22293149999993,
                    "velocity": 0.48031496062992124,
                    "duration": 0.10452949999999817
                },
                {
                    "name": "D#5",
                    "midi": 75,
                    "time": 58.22293149999993,
                    "velocity": 0.48031496062992124,
                    "duration": 0.10452949999999817
                },
                {
                    "name": "C6",
                    "midi": 84,
                    "time": 58.22293149999993,
                    "velocity": 0.5669291338582677,
                    "duration": 0.10452949999999817
                },
                {
                    "name": "C5",
                    "midi": 72,
                    "time": 58.32746099999993,
                    "velocity": 0.5039370078740157,
                    "duration": 0.10452949999999817
                },
                {
                    "name": "D#5",
                    "midi": 75,
                    "time": 58.32746099999993,
                    "velocity": 0.5039370078740157,
                    "duration": 0.10452949999999817
                },
                {
                    "name": "C6",
                    "midi": 84,
                    "time": 58.32746099999993,
                    "velocity": 0.6220472440944882,
                    "duration": 0.10452949999999817
                },
                {
                    "name": "C5",
                    "midi": 72,
                    "time": 58.74557899999993,
                    "velocity": 0.48031496062992124,
                    "duration": 0.05226474999999908
                },
                {
                    "name": "A4",
                    "midi": 69,
                    "time": 58.74557899999993,
                    "velocity": 0.48031496062992124,
                    "duration": 0.05226474999999908
                },
                {
                    "name": "A5",
                    "midi": 81,
                    "time": 58.74557899999993,
                    "velocity": 0.5669291338582677,
                    "duration": 0.05226474999999908
                },
                {
                    "name": "F#4",
                    "midi": 66,
                    "time": 58.850108499999926,
                    "velocity": 0.44881889763779526,
                    "duration": 0.05226474999999908
                },
                {
                    "name": "F#5",
                    "midi": 78,
                    "time": 58.850108499999926,
                    "velocity": 0.5354330708661418,
                    "duration": 0.05226474999999908
                },
                {
                    "name": "F4",
                    "midi": 65,
                    "time": 58.954637999999925,
                    "velocity": 0.44881889763779526,
                    "duration": 0.05226474999999908
                },
                {
                    "name": "F5",
                    "midi": 77,
                    "time": 58.954637999999925,
                    "velocity": 0.5354330708661418,
                    "duration": 0.05226474999999908
                },
                {
                    "name": "D#4",
                    "midi": 63,
                    "time": 59.05916749999992,
                    "velocity": 0.44881889763779526,
                    "duration": 0.05226474999999908
                },
                {
                    "name": "D#5",
                    "midi": 75,
                    "time": 59.05916749999992,
                    "velocity": 0.5354330708661418,
                    "duration": 0.05226474999999908
                },
                {
                    "name": "A#4",
                    "midi": 70,
                    "time": 59.16369699999992,
                    "velocity": 0.5039370078740157,
                    "duration": 0.10452949999999817
                },
                {
                    "name": "D5",
                    "midi": 74,
                    "time": 59.16369699999992,
                    "velocity": 0.5039370078740157,
                    "duration": 0.10452949999999817
                },
                {
                    "name": "A#5",
                    "midi": 82,
                    "time": 59.16369699999992,
                    "velocity": 0.5984251968503937,
                    "duration": 0.10452949999999817
                },
                {
                    "name": "F4",
                    "midi": 65,
                    "time": 59.47728549999992,
                    "velocity": 0.5905511811023622,
                    "duration": 0.10452949999999817
                },
                {
                    "name": "D#4",
                    "midi": 63,
                    "time": 59.68634449999992,
                    "velocity": 0.5669291338582677,
                    "duration": 0.10452949999999817
                },
                {
                    "name": "D4",
                    "midi": 62,
                    "time": 59.895403499999915,
                    "velocity": 0.5511811023622047,
                    "duration": 0.10452949999999817
                },
                {
                    "name": "B3",
                    "midi": 59,
                    "time": 60.10446249999991,
                    "velocity": 0.5196850393700787,
                    "duration": 0.10452949999999817
                },
                {
                    "name": "A#3",
                    "midi": 58,
                    "time": 60.31352149999991,
                    "velocity": 0.49606299212598426,
                    "duration": 0.10452949999999817
                },
                {
                    "name": "D#7",
                    "midi": 99,
                    "time": 60.418050999999906,
                    "velocity": 0.7086614173228346,
                    "duration": 0.10452949999999817
                },
                {
                    "name": "F#6",
                    "midi": 90,
                    "time": 60.418050999999906,
                    "velocity": 0.5984251968503937,
                    "duration": 0.10452949999999817
                },
                {
                    "name": "D#6",
                    "midi": 87,
                    "time": 60.418050999999906,
                    "velocity": 0.5984251968503937,
                    "duration": 0.10452949999999817
                },
                {
                    "name": "C7",
                    "midi": 96,
                    "time": 60.73163949999991,
                    "velocity": 0.6614173228346457,
                    "duration": 0.10452949999999817
                },
                {
                    "name": "D#6",
                    "midi": 87,
                    "time": 60.73163949999991,
                    "velocity": 0.5590551181102362,
                    "duration": 0.10452949999999817
                },
                {
                    "name": "C6",
                    "midi": 84,
                    "time": 60.73163949999991,
                    "velocity": 0.5590551181102362,
                    "duration": 0.10452949999999817
                },
                {
                    "name": "C6",
                    "midi": 84,
                    "time": 60.836168999999906,
                    "velocity": 0.5984251968503937,
                    "duration": 0.10452949999999817
                },
                {
                    "name": "D#6",
                    "midi": 87,
                    "time": 60.836168999999906,
                    "velocity": 0.5984251968503937,
                    "duration": 0.10452949999999817
                },
                {
                    "name": "C7",
                    "midi": 96,
                    "time": 60.836168999999906,
                    "velocity": 0.7086614173228346,
                    "duration": 0.10452949999999817
                },
                {
                    "name": "A5",
                    "midi": 81,
                    "time": 61.358816499999904,
                    "velocity": 0.5511811023622047,
                    "duration": 0.10452949999999817
                },
                {
                    "name": "C6",
                    "midi": 84,
                    "time": 61.358816499999904,
                    "velocity": 0.5511811023622047,
                    "duration": 0.10452949999999817
                },
                {
                    "name": "A6",
                    "midi": 93,
                    "time": 61.358816499999904,
                    "velocity": 0.6456692913385826,
                    "duration": 0.10452949999999817
                },
                {
                    "name": "A5",
                    "midi": 81,
                    "time": 61.4633459999999,
                    "velocity": 0.5748031496062992,
                    "duration": 0.10452949999999817
                },
                {
                    "name": "C6",
                    "midi": 84,
                    "time": 61.4633459999999,
                    "velocity": 0.5748031496062992,
                    "duration": 0.10452949999999817
                },
                {
                    "name": "A6",
                    "midi": 93,
                    "time": 61.4633459999999,
                    "velocity": 0.7086614173228346,
                    "duration": 0.10452949999999817
                },
                {
                    "name": "F#5",
                    "midi": 78,
                    "time": 61.8814639999999,
                    "velocity": 0.5511811023622047,
                    "duration": 0.05226474999999908
                },
                {
                    "name": "A5",
                    "midi": 81,
                    "time": 61.8814639999999,
                    "velocity": 0.5511811023622047,
                    "duration": 0.05226474999999908
                },
                {
                    "name": "F#6",
                    "midi": 90,
                    "time": 61.8814639999999,
                    "velocity": 0.6456692913385826,
                    "duration": 0.05226474999999908
                },
                {
                    "name": "F5",
                    "midi": 77,
                    "time": 61.9859934999999,
                    "velocity": 0.5118110236220472,
                    "duration": 0.05226474999999908
                },
                {
                    "name": "F6",
                    "midi": 89,
                    "time": 61.9859934999999,
                    "velocity": 0.6141732283464567,
                    "duration": 0.05226474999999908
                },
                {
                    "name": "E5",
                    "midi": 76,
                    "time": 62.0905229999999,
                    "velocity": 0.5118110236220472,
                    "duration": 0.05226474999999908
                },
                {
                    "name": "E6",
                    "midi": 88,
                    "time": 62.0905229999999,
                    "velocity": 0.6141732283464567,
                    "duration": 0.05226474999999908
                },
                {
                    "name": "D#5",
                    "midi": 75,
                    "time": 62.195052499999896,
                    "velocity": 0.5118110236220472,
                    "duration": 0.05226474999999908
                },
                {
                    "name": "D#6",
                    "midi": 87,
                    "time": 62.195052499999896,
                    "velocity": 0.6141732283464567,
                    "duration": 0.05226474999999908
                },
                {
                    "name": "A#5",
                    "midi": 82,
                    "time": 62.299581999999894,
                    "velocity": 0.5748031496062992,
                    "duration": 0.10452949999999817
                },
                {
                    "name": "D6",
                    "midi": 86,
                    "time": 62.299581999999894,
                    "velocity": 0.5748031496062992,
                    "duration": 0.10452949999999817
                },
                {
                    "name": "A#6",
                    "midi": 94,
                    "time": 62.299581999999894,
                    "velocity": 0.6850393700787402,
                    "duration": 0.10452949999999817
                },
                {
                    "name": "G#4",
                    "midi": 68,
                    "time": 62.613170499999896,
                    "velocity": 0.3543307086614173,
                    "duration": 0.10452949999999817
                },
                {
                    "name": "A#4",
                    "midi": 70,
                    "time": 62.613170499999896,
                    "velocity": 0.4251968503937008,
                    "duration": 0.10452949999999817
                },
                {
                    "name": "G#4",
                    "midi": 68,
                    "time": 62.82222949999989,
                    "velocity": 0.3700787401574803,
                    "duration": 0.10452949999999817
                },
                {
                    "name": "A#4",
                    "midi": 70,
                    "time": 62.82222949999989,
                    "velocity": 0.4409448818897638,
                    "duration": 0.10452949999999817
                },
                {
                    "name": "G#4",
                    "midi": 68,
                    "time": 63.03128849999989,
                    "velocity": 0.3937007874015748,
                    "duration": 0.10452949999999817
                },
                {
                    "name": "A#4",
                    "midi": 70,
                    "time": 63.03128849999989,
                    "velocity": 0.4645669291338583,
                    "duration": 0.10452949999999817
                },
                {
                    "name": "G#4",
                    "midi": 68,
                    "time": 63.240347499999885,
                    "velocity": 0.4094488188976378,
                    "duration": 0.10452949999999817
                },
                {
                    "name": "A#4",
                    "midi": 70,
                    "time": 63.240347499999885,
                    "velocity": 0.4881889763779528,
                    "duration": 0.10452949999999817
                },
                {
                    "name": "G#4",
                    "midi": 68,
                    "time": 63.44940649999988,
                    "velocity": 0.4251968503937008,
                    "duration": 0.10452949999999817
                },
                {
                    "name": "A#4",
                    "midi": 70,
                    "time": 63.44940649999988,
                    "velocity": 0.5039370078740157,
                    "duration": 0.10452949999999817
                },
                {
                    "name": "B3",
                    "midi": 59,
                    "time": 63.55393599999988,
                    "velocity": 0.5354330708661418,
                    "duration": 0.10452949999999817
                },
                {
                    "name": "B4",
                    "midi": 71,
                    "time": 63.55393599999988,
                    "velocity": 0.5354330708661418,
                    "duration": 0.10452949999999817
                },
                {
                    "name": "E4",
                    "midi": 64,
                    "time": 63.65846549999988,
                    "velocity": 0.4409448818897638,
                    "duration": 0.10452949999999817
                },
                {
                    "name": "G#4",
                    "midi": 68,
                    "time": 63.762994999999876,
                    "velocity": 0.4566929133858268,
                    "duration": 0.10452949999999817
                },
                {
                    "name": "B4",
                    "midi": 71,
                    "time": 63.867524499999874,
                    "velocity": 0.48031496062992124,
                    "duration": 0.10452949999999817
                },
                {
                    "name": "E5",
                    "midi": 76,
                    "time": 63.97205399999987,
                    "velocity": 0.49606299212598426,
                    "duration": 0.10452949999999817
                },
                {
                    "name": "G#5",
                    "midi": 80,
                    "time": 64.07658349999987,
                    "velocity": 0.5039370078740157,
                    "duration": 0.10452949999999817
                },
                {
                    "name": "B5",
                    "midi": 83,
                    "time": 64.18111299999987,
                    "velocity": 0.5196850393700787,
                    "duration": 0.10452949999999817
                },
                {
                    "name": "E6",
                    "midi": 88,
                    "time": 64.28564249999987,
                    "velocity": 0.5354330708661418,
                    "duration": 0.10452949999999817
                },
                {
                    "name": "G#6",
                    "midi": 92,
                    "time": 64.39017199999986,
                    "velocity": 0.5511811023622047,
                    "duration": 0.10452949999999817
                },
                {
                    "name": "A#6",
                    "midi": 94,
                    "time": 64.49470149999986,
                    "velocity": 0.5669291338582677,
                    "duration": 0.10452949999999817
                },
                {
                    "name": "B6",
                    "midi": 95,
                    "time": 64.59923099999986,
                    "velocity": 0.5826771653543307,
                    "duration": 0.10452949999999817
                },
                {
                    "name": "E6",
                    "midi": 88,
                    "time": 64.59923099999986,
                    "velocity": 0.49606299212598426,
                    "duration": 0.10452949999999817
                },
                {
                    "name": "B5",
                    "midi": 83,
                    "time": 64.59923099999986,
                    "velocity": 0.49606299212598426,
                    "duration": 0.10452949999999817
                },
                {
                    "name": "D6",
                    "midi": 86,
                    "time": 64.80828999999986,
                    "velocity": 0.6377952755905512,
                    "duration": 0.10452949999999817
                },
                {
                    "name": "F6",
                    "midi": 89,
                    "time": 64.80828999999986,
                    "velocity": 0.6377952755905512,
                    "duration": 0.10452949999999817
                },
                {
                    "name": "D7",
                    "midi": 98,
                    "time": 64.80828999999986,
                    "velocity": 0.7244094488188977,
                    "duration": 0.10452949999999817
                },
                {
                    "name": "G#4",
                    "midi": 68,
                    "time": 65.12187849999985,
                    "velocity": 0.3700787401574803,
                    "duration": 0.10452949999999817
                },
                {
                    "name": "A#4",
                    "midi": 70,
                    "time": 65.12187849999985,
                    "velocity": 0.4409448818897638,
                    "duration": 0.10452949999999817
                },
                {
                    "name": "G#4",
                    "midi": 68,
                    "time": 65.33093749999985,
                    "velocity": 0.3858267716535433,
                    "duration": 0.10452949999999817
                },
                {
                    "name": "A#4",
                    "midi": 70,
                    "time": 65.33093749999985,
                    "velocity": 0.4645669291338583,
                    "duration": 0.10452949999999817
                },
                {
                    "name": "G#4",
                    "midi": 68,
                    "time": 65.53999649999984,
                    "velocity": 0.4094488188976378,
                    "duration": 0.10452949999999817
                },
                {
                    "name": "A#4",
                    "midi": 70,
                    "time": 65.53999649999984,
                    "velocity": 0.4881889763779528,
                    "duration": 0.10452949999999817
                },
                {
                    "name": "G#4",
                    "midi": 68,
                    "time": 65.74905549999984,
                    "velocity": 0.4251968503937008,
                    "duration": 0.10452949999999817
                },
                {
                    "name": "A#4",
                    "midi": 70,
                    "time": 65.74905549999984,
                    "velocity": 0.5039370078740157,
                    "duration": 0.10452949999999817
                },
                {
                    "name": "G#4",
                    "midi": 68,
                    "time": 65.95811449999984,
                    "velocity": 0.44881889763779526,
                    "duration": 0.10452949999999817
                },
                {
                    "name": "A#4",
                    "midi": 70,
                    "time": 65.95811449999984,
                    "velocity": 0.5275590551181102,
                    "duration": 0.10452949999999817
                },
                {
                    "name": "B3",
                    "midi": 59,
                    "time": 66.06264399999984,
                    "velocity": 0.5590551181102362,
                    "duration": 0.10452949999999817
                },
                {
                    "name": "B4",
                    "midi": 71,
                    "time": 66.06264399999984,
                    "velocity": 0.5590551181102362,
                    "duration": 0.10452949999999817
                },
                {
                    "name": "E4",
                    "midi": 64,
                    "time": 66.16717349999983,
                    "velocity": 0.4645669291338583,
                    "duration": 0.10452949999999817
                },
                {
                    "name": "G#4",
                    "midi": 68,
                    "time": 66.27170299999983,
                    "velocity": 0.48031496062992124,
                    "duration": 0.10452949999999817
                },
                {
                    "name": "B4",
                    "midi": 71,
                    "time": 66.37623249999983,
                    "velocity": 0.49606299212598426,
                    "duration": 0.10452949999999817
                },
                {
                    "name": "E5",
                    "midi": 76,
                    "time": 66.48076199999983,
                    "velocity": 0.5118110236220472,
                    "duration": 0.10452949999999817
                },
                {
                    "name": "G#5",
                    "midi": 80,
                    "time": 66.58529149999983,
                    "velocity": 0.5275590551181102,
                    "duration": 0.10452949999999817
                },
                {
                    "name": "B5",
                    "midi": 83,
                    "time": 66.68982099999982,
                    "velocity": 0.5433070866141733,
                    "duration": 0.10452949999999817
                },
                {
                    "name": "E6",
                    "midi": 88,
                    "time": 66.79435049999982,
                    "velocity": 0.5590551181102362,
                    "duration": 0.10452949999999817
                },
                {
                    "name": "G#6",
                    "midi": 92,
                    "time": 66.89887999999982,
                    "velocity": 0.5669291338582677,
                    "duration": 0.10452949999999817
                },
                {
                    "name": "A#6",
                    "midi": 94,
                    "time": 67.00340949999982,
                    "velocity": 0.5984251968503937,
                    "duration": 0.10452949999999817
                },
                {
                    "name": "B6",
                    "midi": 95,
                    "time": 67.10793899999982,
                    "velocity": 0.6141732283464567,
                    "duration": 0.10452949999999817
                },
                {
                    "name": "E6",
                    "midi": 88,
                    "time": 67.10793899999982,
                    "velocity": 0.5118110236220472,
                    "duration": 0.10452949999999817
                },
                {
                    "name": "B5",
                    "midi": 83,
                    "time": 67.10793899999982,
                    "velocity": 0.5118110236220472,
                    "duration": 0.10452949999999817
                },
                {
                    "name": "D6",
                    "midi": 86,
                    "time": 67.31699799999981,
                    "velocity": 0.6614173228346457,
                    "duration": 0.10452949999999817
                },
                {
                    "name": "F6",
                    "midi": 89,
                    "time": 67.31699799999981,
                    "velocity": 0.6614173228346457,
                    "duration": 0.10452949999999817
                },
                {
                    "name": "D7",
                    "midi": 98,
                    "time": 67.31699799999981,
                    "velocity": 0.7637795275590551,
                    "duration": 0.10452949999999817
                },
                {
                    "name": "A#5",
                    "midi": 82,
                    "time": 67.63058649999981,
                    "velocity": 0.6220472440944882,
                    "duration": 0.10452949999999817
                },
                {
                    "name": "D5",
                    "midi": 74,
                    "time": 67.63058649999981,
                    "velocity": 0.5196850393700787,
                    "duration": 0.10452949999999817
                },
                {
                    "name": "A#4",
                    "midi": 70,
                    "time": 67.63058649999981,
                    "velocity": 0.5196850393700787,
                    "duration": 0.10452949999999817
                },
                {
                    "name": "A#4",
                    "midi": 70,
                    "time": 67.7351159999998,
                    "velocity": 0.49606299212598426,
                    "duration": 0.20905899999999633
                },
                {
                    "name": "D5",
                    "midi": 74,
                    "time": 67.7351159999998,
                    "velocity": 0.49606299212598426,
                    "duration": 0.20905899999999633
                },
                {
                    "name": "A#5",
                    "midi": 82,
                    "time": 67.7351159999998,
                    "velocity": 0.5826771653543307,
                    "duration": 0.20905899999999633
                },
                {
                    "name": "A#4",
                    "midi": 70,
                    "time": 67.9441749999998,
                    "velocity": 0.5275590551181102,
                    "duration": 0.10452949999999817
                },
                {
                    "name": "D5",
                    "midi": 74,
                    "time": 67.9441749999998,
                    "velocity": 0.5275590551181102,
                    "duration": 0.10452949999999817
                },
                {
                    "name": "A#5",
                    "midi": 82,
                    "time": 67.9441749999998,
                    "velocity": 0.6299212598425197,
                    "duration": 0.10452949999999817
                },
                {
                    "name": "B4",
                    "midi": 71,
                    "time": 68.2577634999998,
                    "velocity": 0.5590551181102362,
                    "duration": 0.10452949999999817
                },
                {
                    "name": "D#5",
                    "midi": 75,
                    "time": 68.2577634999998,
                    "velocity": 0.5590551181102362,
                    "duration": 0.10452949999999817
                },
                {
                    "name": "B5",
                    "midi": 83,
                    "time": 68.2577634999998,
                    "velocity": 0.6535433070866141,
                    "duration": 0.10452949999999817
                },
                {
                    "name": "B4",
                    "midi": 71,
                    "time": 68.3622929999998,
                    "velocity": 0.5118110236220472,
                    "duration": 0.20905899999999633
                },
                {
                    "name": "D#5",
                    "midi": 75,
                    "time": 68.3622929999998,
                    "velocity": 0.5118110236220472,
                    "duration": 0.20905899999999633
                },
                {
                    "name": "B5",
                    "midi": 83,
                    "time": 68.3622929999998,
                    "velocity": 0.6062992125984252,
                    "duration": 0.20905899999999633
                },
                {
                    "name": "B4",
                    "midi": 71,
                    "time": 68.57135199999979,
                    "velocity": 0.5590551181102362,
                    "duration": 0.10452949999999817
                },
                {
                    "name": "D#5",
                    "midi": 75,
                    "time": 68.57135199999979,
                    "velocity": 0.5590551181102362,
                    "duration": 0.10452949999999817
                },
                {
                    "name": "B5",
                    "midi": 83,
                    "time": 68.57135199999979,
                    "velocity": 0.6535433070866141,
                    "duration": 0.10452949999999817
                },
                {
                    "name": "C6",
                    "midi": 84,
                    "time": 68.88494049999979,
                    "velocity": 0.6771653543307087,
                    "duration": 0.10452949999999817
                },
                {
                    "name": "E5",
                    "midi": 76,
                    "time": 68.88494049999979,
                    "velocity": 0.5669291338582677,
                    "duration": 0.10452949999999817
                },
                {
                    "name": "C5",
                    "midi": 72,
                    "time": 68.88494049999979,
                    "velocity": 0.5669291338582677,
                    "duration": 0.10452949999999817
                },
                {
                    "name": "C5",
                    "midi": 72,
                    "time": 68.98946999999978,
                    "velocity": 0.5275590551181102,
                    "duration": 0.20905899999999633
                },
                {
                    "name": "E5",
                    "midi": 76,
                    "time": 68.98946999999978,
                    "velocity": 0.5275590551181102,
                    "duration": 0.20905899999999633
                },
                {
                    "name": "C6",
                    "midi": 84,
                    "time": 68.98946999999978,
                    "velocity": 0.6299212598425197,
                    "duration": 0.20905899999999633
                },
                {
                    "name": "C5",
                    "midi": 72,
                    "time": 69.19852899999978,
                    "velocity": 0.5590551181102362,
                    "duration": 0.10452949999999817
                },
                {
                    "name": "E5",
                    "midi": 76,
                    "time": 69.19852899999978,
                    "velocity": 0.5590551181102362,
                    "duration": 0.10452949999999817
                },
                {
                    "name": "C6",
                    "midi": 84,
                    "time": 69.19852899999978,
                    "velocity": 0.6614173228346457,
                    "duration": 0.10452949999999817
                },
                {
                    "name": "C#5",
                    "midi": 73,
                    "time": 69.51211749999977,
                    "velocity": 0.5669291338582677,
                    "duration": 0.10452949999999817
                },
                {
                    "name": "F5",
                    "midi": 77,
                    "time": 69.51211749999977,
                    "velocity": 0.5669291338582677,
                    "duration": 0.10452949999999817
                },
                {
                    "name": "C#6",
                    "midi": 85,
                    "time": 69.51211749999977,
                    "velocity": 0.6771653543307087,
                    "duration": 0.10452949999999817
                },
                {
                    "name": "C#5",
                    "midi": 73,
                    "time": 69.61664699999977,
                    "velocity": 0.5354330708661418,
                    "duration": 0.20905899999999633
                },
                {
                    "name": "F5",
                    "midi": 77,
                    "time": 69.61664699999977,
                    "velocity": 0.5354330708661418,
                    "duration": 0.20905899999999633
                },
                {
                    "name": "C#6",
                    "midi": 85,
                    "time": 69.61664699999977,
                    "velocity": 0.6377952755905512,
                    "duration": 0.20905899999999633
                },
                {
                    "name": "C#5",
                    "midi": 73,
                    "time": 69.82570599999977,
                    "velocity": 0.5669291338582677,
                    "duration": 0.10452949999999817
                },
                {
                    "name": "F5",
                    "midi": 77,
                    "time": 69.82570599999977,
                    "velocity": 0.5669291338582677,
                    "duration": 0.10452949999999817
                },
                {
                    "name": "C#6",
                    "midi": 85,
                    "time": 69.82570599999977,
                    "velocity": 0.6692913385826772,
                    "duration": 0.10452949999999817
                },
                {
                    "name": "F5",
                    "midi": 77,
                    "time": 70.13929449999976,
                    "velocity": 0.5669291338582677,
                    "duration": 0.10452949999999817
                },
                {
                    "name": "F6",
                    "midi": 89,
                    "time": 70.13929449999976,
                    "velocity": 0.6692913385826772,
                    "duration": 0.10452949999999817
                },
                {
                    "name": "C#6",
                    "midi": 85,
                    "time": 70.13929449999976,
                    "velocity": 0.6692913385826772,
                    "duration": 0.10452949999999817
                },
                {
                    "name": "G#5",
                    "midi": 80,
                    "time": 70.13929449999976,
                    "velocity": 0.5669291338582677,
                    "duration": 0.10452949999999817
                },
                {
                    "name": "F5",
                    "midi": 77,
                    "time": 70.24382399999976,
                    "velocity": 0.5433070866141733,
                    "duration": 0.20905899999999633
                },
                {
                    "name": "G#5",
                    "midi": 80,
                    "time": 70.24382399999976,
                    "velocity": 0.5433070866141733,
                    "duration": 0.20905899999999633
                },
                {
                    "name": "C#6",
                    "midi": 85,
                    "time": 70.24382399999976,
                    "velocity": 0.6377952755905512,
                    "duration": 0.20905899999999633
                },
                {
                    "name": "F6",
                    "midi": 89,
                    "time": 70.24382399999976,
                    "velocity": 0.6377952755905512,
                    "duration": 0.20905899999999633
                },
                {
                    "name": "F5",
                    "midi": 77,
                    "time": 70.45288299999976,
                    "velocity": 0.5826771653543307,
                    "duration": 0.10452949999999817
                },
                {
                    "name": "G#5",
                    "midi": 80,
                    "time": 70.45288299999976,
                    "velocity": 0.5826771653543307,
                    "duration": 0.10452949999999817
                },
                {
                    "name": "C#6",
                    "midi": 85,
                    "time": 70.45288299999976,
                    "velocity": 0.6929133858267716,
                    "duration": 0.10452949999999817
                },
                {
                    "name": "F6",
                    "midi": 89,
                    "time": 70.45288299999976,
                    "velocity": 0.6929133858267716,
                    "duration": 0.10452949999999817
                },
                {
                    "name": "G#5",
                    "midi": 80,
                    "time": 70.76647149999975,
                    "velocity": 0.6141732283464567,
                    "duration": 0.10452949999999817
                },
                {
                    "name": "D6",
                    "midi": 86,
                    "time": 70.76647149999975,
                    "velocity": 0.6141732283464567,
                    "duration": 0.10452949999999817
                },
                {
                    "name": "A#6",
                    "midi": 94,
                    "time": 70.76647149999975,
                    "velocity": 0.7244094488188977,
                    "duration": 0.10452949999999817
                },
                {
                    "name": "G#5",
                    "midi": 80,
                    "time": 70.87100099999975,
                    "velocity": 0.5669291338582677,
                    "duration": 0.20905899999999633
                },
                {
                    "name": "D6",
                    "midi": 86,
                    "time": 70.87100099999975,
                    "velocity": 0.5669291338582677,
                    "duration": 0.20905899999999633
                },
                {
                    "name": "A#6",
                    "midi": 94,
                    "time": 70.87100099999975,
                    "velocity": 0.6771653543307087,
                    "duration": 0.20905899999999633
                },
                {
                    "name": "G#5",
                    "midi": 80,
                    "time": 71.08005999999975,
                    "velocity": 0.6299212598425197,
                    "duration": 0.10452949999999817
                },
                {
                    "name": "D6",
                    "midi": 86,
                    "time": 71.08005999999975,
                    "velocity": 0.6299212598425197,
                    "duration": 0.10452949999999817
                },
                {
                    "name": "A#6",
                    "midi": 94,
                    "time": 71.08005999999975,
                    "velocity": 0.7401574803149606,
                    "duration": 0.10452949999999817
                },
                {
                    "name": "A#4",
                    "midi": 70,
                    "time": 71.39364849999974,
                    "velocity": 0.41732283464566927,
                    "duration": 0.05226475000000619
                },
                {
                    "name": "A#4",
                    "midi": 70,
                    "time": 71.49817799999975,
                    "velocity": 0.3779527559055118,
                    "duration": 0.10452949999999817
                },
                {
                    "name": "A#4",
                    "midi": 70,
                    "time": 71.70723699999975,
                    "velocity": 0.4015748031496063,
                    "duration": 0.10452949999999817
                },
                {
                    "name": "A#4",
                    "midi": 70,
                    "time": 72.02082549999975,
                    "velocity": 0.33858267716535434,
                    "duration": 0.05226475000000619
                },
                {
                    "name": "A#4",
                    "midi": 70,
                    "time": 72.12535499999976,
                    "velocity": 0.36220472440944884,
                    "duration": 0.10452949999999817
                },
                {
                    "name": "G4",
                    "midi": 67,
                    "time": 72.33441399999975,
                    "velocity": 0.29133858267716534,
                    "duration": 0.20905899999999633
                },
                {
                    "name": "A#4",
                    "midi": 70,
                    "time": 72.33441399999975,
                    "velocity": 0.29133858267716534,
                    "duration": 0.20905899999999633
                },
                {
                    "name": "G5",
                    "midi": 79,
                    "time": 72.33441399999975,
                    "velocity": 0.41732283464566927,
                    "duration": 0.20905899999999633
                },
                {
                    "name": "A#4",
                    "midi": 70,
                    "time": 72.64800249999975,
                    "velocity": 0.25984251968503935,
                    "duration": 0.05226475000000619
                },
                {
                    "name": "D#5",
                    "midi": 75,
                    "time": 72.64800249999975,
                    "velocity": 0.33858267716535434,
                    "duration": 0.05226475000000619
                },
                {
                    "name": "A#4",
                    "midi": 70,
                    "time": 72.75253199999976,
                    "velocity": 0.25984251968503935,
                    "duration": 0.10452949999999817
                },
                {
                    "name": "D#5",
                    "midi": 75,
                    "time": 72.75253199999976,
                    "velocity": 0.33858267716535434,
                    "duration": 0.10452949999999817
                },
                {
                    "name": "A#4",
                    "midi": 70,
                    "time": 72.96159099999976,
                    "velocity": 0.29133858267716534,
                    "duration": 0.10452949999999817
                },
                {
                    "name": "D#5",
                    "midi": 75,
                    "time": 72.96159099999976,
                    "velocity": 0.3858267716535433,
                    "duration": 0.10452949999999817
                },
                {
                    "name": "G4",
                    "midi": 67,
                    "time": 73.27517949999975,
                    "velocity": 0.2677165354330709,
                    "duration": 0.05226475000000619
                },
                {
                    "name": "A#4",
                    "midi": 70,
                    "time": 73.27517949999975,
                    "velocity": 0.3464566929133858,
                    "duration": 0.05226475000000619
                },
                {
                    "name": "G4",
                    "midi": 67,
                    "time": 73.37970899999976,
                    "velocity": 0.2677165354330709,
                    "duration": 0.10452949999999817
                },
                {
                    "name": "A#4",
                    "midi": 70,
                    "time": 73.37970899999976,
                    "velocity": 0.3464566929133858,
                    "duration": 0.10452949999999817
                },
                {
                    "name": "D#4",
                    "midi": 63,
                    "time": 73.58876799999976,
                    "velocity": 0.30708661417322836,
                    "duration": 0.10452949999999817
                },
                {
                    "name": "G4",
                    "midi": 67,
                    "time": 73.58876799999976,
                    "velocity": 0.4015748031496063,
                    "duration": 0.10452949999999817
                },
                {
                    "name": "C4",
                    "midi": 60,
                    "time": 73.90235649999975,
                    "velocity": 0.28346456692913385,
                    "duration": 0.05226475000000619
                },
                {
                    "name": "D#4",
                    "midi": 63,
                    "time": 73.90235649999975,
                    "velocity": 0.3543307086614173,
                    "duration": 0.05226475000000619
                },
                {
                    "name": "C4",
                    "midi": 60,
                    "time": 74.00688599999977,
                    "velocity": 0.28346456692913385,
                    "duration": 0.10452949999999817
                },
                {
                    "name": "D#4",
                    "midi": 63,
                    "time": 74.00688599999977,
                    "velocity": 0.3543307086614173,
                    "duration": 0.10452949999999817
                },
                {
                    "name": "C4",
                    "midi": 60,
                    "time": 74.21594499999976,
                    "velocity": 0.30708661417322836,
                    "duration": 0.6271770000000032
                },
                {
                    "name": "D#4",
                    "midi": 63,
                    "time": 74.21594499999976,
                    "velocity": 0.4015748031496063,
                    "duration": 0.6271770000000032
                },
                {
                    "name": "A#3",
                    "midi": 58,
                    "time": 74.84312199999977,
                    "velocity": 0.29133858267716534,
                    "duration": 0.20905899999999633
                },
                {
                    "name": "D4",
                    "midi": 62,
                    "time": 74.84312199999977,
                    "velocity": 0.29133858267716534,
                    "duration": 0.20905899999999633
                },
                {
                    "name": "A#4",
                    "midi": 70,
                    "time": 74.84312199999977,
                    "velocity": 0.3858267716535433,
                    "duration": 0.20905899999999633
                },
                {
                    "name": "A#3",
                    "midi": 58,
                    "time": 75.15671049999976,
                    "velocity": 0.2677165354330709,
                    "duration": 0.05226475000000619
                },
                {
                    "name": "F4",
                    "midi": 65,
                    "time": 75.15671049999976,
                    "velocity": 0.3464566929133858,
                    "duration": 0.05226475000000619
                },
                {
                    "name": "A#3",
                    "midi": 58,
                    "time": 75.26123999999977,
                    "velocity": 0.2677165354330709,
                    "duration": 0.10452949999999817
                },
                {
                    "name": "F4",
                    "midi": 65,
                    "time": 75.26123999999977,
                    "velocity": 0.3464566929133858,
                    "duration": 0.10452949999999817
                },
                {
                    "name": "A#3",
                    "midi": 58,
                    "time": 75.47029899999977,
                    "velocity": 0.29133858267716534,
                    "duration": 0.10452949999999817
                },
                {
                    "name": "E4",
                    "midi": 64,
                    "time": 75.47029899999977,
                    "velocity": 0.3858267716535433,
                    "duration": 0.10452949999999817
                },
                {
                    "name": "A#3",
                    "midi": 58,
                    "time": 75.67935799999977,
                    "velocity": 0.30708661417322836,
                    "duration": 0.10452949999999817
                },
                {
                    "name": "F4",
                    "midi": 65,
                    "time": 75.67935799999977,
                    "velocity": 0.4015748031496063,
                    "duration": 0.10452949999999817
                },
                {
                    "name": "A#3",
                    "midi": 58,
                    "time": 75.88841699999976,
                    "velocity": 0.30708661417322836,
                    "duration": 0.10452949999999817
                },
                {
                    "name": "F#4",
                    "midi": 66,
                    "time": 75.88841699999976,
                    "velocity": 0.30708661417322836,
                    "duration": 0.10452949999999817
                },
                {
                    "name": "A#4",
                    "midi": 70,
                    "time": 75.88841699999976,
                    "velocity": 0.4015748031496063,
                    "duration": 0.10452949999999817
                },
                {
                    "name": "A#3",
                    "midi": 58,
                    "time": 76.09747599999976,
                    "velocity": 0.33070866141732286,
                    "duration": 0.6271770000000032
                },
                {
                    "name": "G4",
                    "midi": 67,
                    "time": 76.09747599999976,
                    "velocity": 0.33070866141732286,
                    "duration": 0.6271770000000032
                },
                {
                    "name": "A#4",
                    "midi": 70,
                    "time": 76.09747599999976,
                    "velocity": 0.4251968503937008,
                    "duration": 0.6271770000000032
                },
                {
                    "name": "D#4",
                    "midi": 63,
                    "time": 76.72465299999976,
                    "velocity": 0.29133858267716534,
                    "duration": 0.20905899999999633
                },
                {
                    "name": "G4",
                    "midi": 67,
                    "time": 76.72465299999976,
                    "velocity": 0.3858267716535433,
                    "duration": 0.20905899999999633
                },
                {
                    "name": "A#4",
                    "midi": 70,
                    "time": 77.35182999999977,
                    "velocity": 0.29133858267716534,
                    "duration": 0.20905899999999633
                },
                {
                    "name": "D#5",
                    "midi": 75,
                    "time": 77.35182999999977,
                    "velocity": 0.29133858267716534,
                    "duration": 0.20905899999999633
                },
                {
                    "name": "G5",
                    "midi": 79,
                    "time": 77.35182999999977,
                    "velocity": 0.41732283464566927,
                    "duration": 0.20905899999999633
                },
                {
                    "name": "G4",
                    "midi": 67,
                    "time": 77.66541849999976,
                    "velocity": 0.25984251968503935,
                    "duration": 0.05226475000000619
                },
                {
                    "name": "A#4",
                    "midi": 70,
                    "time": 77.66541849999976,
                    "velocity": 0.25984251968503935,
                    "duration": 0.05226475000000619
                },
                {
                    "name": "D#5",
                    "midi": 75,
                    "time": 77.66541849999976,
                    "velocity": 0.33858267716535434,
                    "duration": 0.05226475000000619
                },
                {
                    "name": "G4",
                    "midi": 67,
                    "time": 77.76994799999977,
                    "velocity": 0.25984251968503935,
                    "duration": 0.10452949999999817
                },
                {
                    "name": "A#4",
                    "midi": 70,
                    "time": 77.76994799999977,
                    "velocity": 0.25984251968503935,
                    "duration": 0.10452949999999817
                },
                {
                    "name": "D#5",
                    "midi": 75,
                    "time": 77.76994799999977,
                    "velocity": 0.33858267716535434,
                    "duration": 0.10452949999999817
                },
                {
                    "name": "G4",
                    "midi": 67,
                    "time": 77.97900699999977,
                    "velocity": 0.29133858267716534,
                    "duration": 0.10452949999999817
                },
                {
                    "name": "A#4",
                    "midi": 70,
                    "time": 77.97900699999977,
                    "velocity": 0.29133858267716534,
                    "duration": 0.10452949999999817
                },
                {
                    "name": "D#5",
                    "midi": 75,
                    "time": 77.97900699999977,
                    "velocity": 0.3858267716535433,
                    "duration": 0.10452949999999817
                },
                {
                    "name": "D#4",
                    "midi": 63,
                    "time": 78.29259549999976,
                    "velocity": 0.2677165354330709,
                    "duration": 0.05226475000000619
                },
                {
                    "name": "G4",
                    "midi": 67,
                    "time": 78.29259549999976,
                    "velocity": 0.2677165354330709,
                    "duration": 0.05226475000000619
                },
                {
                    "name": "A#4",
                    "midi": 70,
                    "time": 78.29259549999976,
                    "velocity": 0.3464566929133858,
                    "duration": 0.05226475000000619
                },
                {
                    "name": "D#4",
                    "midi": 63,
                    "time": 78.39712499999978,
                    "velocity": 0.2677165354330709,
                    "duration": 0.10452949999999817
                },
                {
                    "name": "G4",
                    "midi": 67,
                    "time": 78.39712499999978,
                    "velocity": 0.2677165354330709,
                    "duration": 0.10452949999999817
                },
                {
                    "name": "A#4",
                    "midi": 70,
                    "time": 78.39712499999978,
                    "velocity": 0.3464566929133858,
                    "duration": 0.10452949999999817
                },
                {
                    "name": "D#4",
                    "midi": 63,
                    "time": 78.60618399999977,
                    "velocity": 0.30708661417322836,
                    "duration": 0.10452949999999817
                },
                {
                    "name": "G4",
                    "midi": 67,
                    "time": 78.60618399999977,
                    "velocity": 0.4015748031496063,
                    "duration": 0.10452949999999817
                },
                {
                    "name": "C4",
                    "midi": 60,
                    "time": 78.91977249999977,
                    "velocity": 0.28346456692913385,
                    "duration": 0.05226475000000619
                },
                {
                    "name": "D#4",
                    "midi": 63,
                    "time": 78.91977249999977,
                    "velocity": 0.3543307086614173,
                    "duration": 0.05226475000000619
                },
                {
                    "name": "C4",
                    "midi": 60,
                    "time": 79.02430199999978,
                    "velocity": 0.28346456692913385,
                    "duration": 0.10452949999999817
                },
                {
                    "name": "D#4",
                    "midi": 63,
                    "time": 79.02430199999978,
                    "velocity": 0.3543307086614173,
                    "duration": 0.10452949999999817
                },
                {
                    "name": "C4",
                    "midi": 60,
                    "time": 79.23336099999977,
                    "velocity": 0.30708661417322836,
                    "duration": 0.6271770000000032
                },
                {
                    "name": "D#4",
                    "midi": 63,
                    "time": 79.23336099999977,
                    "velocity": 0.4015748031496063,
                    "duration": 0.6271770000000032
                },
                {
                    "name": "B3",
                    "midi": 59,
                    "time": 79.86053799999978,
                    "velocity": 0.29133858267716534,
                    "duration": 0.20905899999999633
                },
                {
                    "name": "D4",
                    "midi": 62,
                    "time": 79.86053799999978,
                    "velocity": 0.29133858267716534,
                    "duration": 0.20905899999999633
                },
                {
                    "name": "B4",
                    "midi": 71,
                    "time": 79.86053799999978,
                    "velocity": 0.3858267716535433,
                    "duration": 0.20905899999999633
                },
                {
                    "name": "B3",
                    "midi": 59,
                    "time": 80.17412649999977,
                    "velocity": 0.2677165354330709,
                    "duration": 0.05226475000000619
                },
                {
                    "name": "D4",
                    "midi": 62,
                    "time": 80.17412649999977,
                    "velocity": 0.3464566929133858,
                    "duration": 0.05226475000000619
                },
                {
                    "name": "B3",
                    "midi": 59,
                    "time": 80.27865599999978,
                    "velocity": 0.2677165354330709,
                    "duration": 0.10452949999999817
                },
                {
                    "name": "D4",
                    "midi": 62,
                    "time": 80.27865599999978,
                    "velocity": 0.3464566929133858,
                    "duration": 0.10452949999999817
                },
                {
                    "name": "B3",
                    "midi": 59,
                    "time": 80.48771499999978,
                    "velocity": 0.29133858267716534,
                    "duration": 0.10452949999999817
                },
                {
                    "name": "C#4",
                    "midi": 61,
                    "time": 80.48771499999978,
                    "velocity": 0.3858267716535433,
                    "duration": 0.10452949999999817
                },
                {
                    "name": "B3",
                    "midi": 59,
                    "time": 80.69677399999978,
                    "velocity": 0.30708661417322836,
                    "duration": 0.10452949999999817
                },
                {
                    "name": "D4",
                    "midi": 62,
                    "time": 80.69677399999978,
                    "velocity": 0.4015748031496063,
                    "duration": 0.10452949999999817
                },
                {
                    "name": "B3",
                    "midi": 59,
                    "time": 80.90583299999977,
                    "velocity": 0.30708661417322836,
                    "duration": 0.10452949999999817
                },
                {
                    "name": "D4",
                    "midi": 62,
                    "time": 80.90583299999977,
                    "velocity": 0.30708661417322836,
                    "duration": 0.10452949999999817
                },
                {
                    "name": "G4",
                    "midi": 67,
                    "time": 80.90583299999977,
                    "velocity": 0.4015748031496063,
                    "duration": 0.10452949999999817
                },
                {
                    "name": "B3",
                    "midi": 59,
                    "time": 81.11489199999977,
                    "velocity": 0.33070866141732286,
                    "duration": 0.6271770000000032
                },
                {
                    "name": "G4",
                    "midi": 67,
                    "time": 81.11489199999977,
                    "velocity": 0.33070866141732286,
                    "duration": 0.6271770000000032
                },
                {
                    "name": "B4",
                    "midi": 71,
                    "time": 81.11489199999977,
                    "velocity": 0.4251968503937008,
                    "duration": 0.6271770000000032
                },
                {
                    "name": "A#3",
                    "midi": 58,
                    "time": 81.74206899999977,
                    "velocity": 0.29133858267716534,
                    "duration": 0.6271770000000032
                },
                {
                    "name": "D4",
                    "midi": 62,
                    "time": 81.74206899999977,
                    "velocity": 0.29133858267716534,
                    "duration": 0.6271770000000032
                },
                {
                    "name": "A#4",
                    "midi": 70,
                    "time": 81.74206899999977,
                    "velocity": 0.3858267716535433,
                    "duration": 0.6271770000000032
                },
                {
                    "name": "G5",
                    "midi": 79,
                    "time": 82.36924599999978,
                    "velocity": 0.47244094488188976,
                    "duration": 0.20905899999999633
                },
                {
                    "name": "A#5",
                    "midi": 82,
                    "time": 82.36924599999978,
                    "velocity": 0.47244094488188976,
                    "duration": 0.20905899999999633
                },
                {
                    "name": "G6",
                    "midi": 91,
                    "time": 82.36924599999978,
                    "velocity": 0.6141732283464567,
                    "duration": 0.20905899999999633
                },
                {
                    "name": "D#5",
                    "midi": 75,
                    "time": 82.68283449999977,
                    "velocity": 0.4251968503937008,
                    "duration": 0.05226475000000619
                },
                {
                    "name": "G5",
                    "midi": 79,
                    "time": 82.68283449999977,
                    "velocity": 0.4251968503937008,
                    "duration": 0.05226475000000619
                },
                {
                    "name": "D#6",
                    "midi": 87,
                    "time": 82.68283449999977,
                    "velocity": 0.5039370078740157,
                    "duration": 0.05226475000000619
                },
                {
                    "name": "D#5",
                    "midi": 75,
                    "time": 82.78736399999978,
                    "velocity": 0.4251968503937008,
                    "duration": 0.10452949999999817
                },
                {
                    "name": "G5",
                    "midi": 79,
                    "time": 82.78736399999978,
                    "velocity": 0.4251968503937008,
                    "duration": 0.10452949999999817
                },
                {
                    "name": "D#6",
                    "midi": 87,
                    "time": 82.78736399999978,
                    "velocity": 0.5039370078740157,
                    "duration": 0.10452949999999817
                },
                {
                    "name": "D#5",
                    "midi": 75,
                    "time": 82.99642299999978,
                    "velocity": 0.47244094488188976,
                    "duration": 0.10452949999999817
                },
                {
                    "name": "G5",
                    "midi": 79,
                    "time": 82.99642299999978,
                    "velocity": 0.47244094488188976,
                    "duration": 0.10452949999999817
                },
                {
                    "name": "D#6",
                    "midi": 87,
                    "time": 82.99642299999978,
                    "velocity": 0.5669291338582677,
                    "duration": 0.10452949999999817
                },
                {
                    "name": "A#4",
                    "midi": 70,
                    "time": 83.31001149999977,
                    "velocity": 0.41732283464566927,
                    "duration": 0.05226475000000619
                },
                {
                    "name": "D#5",
                    "midi": 75,
                    "time": 83.31001149999977,
                    "velocity": 0.41732283464566927,
                    "duration": 0.05226475000000619
                },
                {
                    "name": "A#5",
                    "midi": 82,
                    "time": 83.31001149999977,
                    "velocity": 0.49606299212598426,
                    "duration": 0.05226475000000619
                },
                {
                    "name": "A#4",
                    "midi": 70,
                    "time": 83.41454099999979,
                    "velocity": 0.41732283464566927,
                    "duration": 0.10452949999999817
                },
                {
                    "name": "D#5",
                    "midi": 75,
                    "time": 83.41454099999979,
                    "velocity": 0.41732283464566927,
                    "duration": 0.10452949999999817
                },
                {
                    "name": "A#5",
                    "midi": 82,
                    "time": 83.41454099999979,
                    "velocity": 0.49606299212598426,
                    "duration": 0.10452949999999817
                },
                {
                    "name": "G4",
                    "midi": 67,
                    "time": 83.62359999999978,
                    "velocity": 0.48031496062992124,
                    "duration": 0.10452949999999817
                },
                {
                    "name": "D#5",
                    "midi": 75,
                    "time": 83.62359999999978,
                    "velocity": 0.48031496062992124,
                    "duration": 0.10452949999999817
                },
                {
                    "name": "G5",
                    "midi": 79,
                    "time": 83.62359999999978,
                    "velocity": 0.5669291338582677,
                    "duration": 0.10452949999999817
                },
                {
                    "name": "G4",
                    "midi": 67,
                    "time": 83.93718849999978,
                    "velocity": 0.4251968503937008,
                    "duration": 0.05226475000000619
                },
                {
                    "name": "C5",
                    "midi": 72,
                    "time": 83.93718849999978,
                    "velocity": 0.4251968503937008,
                    "duration": 0.05226475000000619
                },
                {
                    "name": "D#5",
                    "midi": 75,
                    "time": 83.93718849999978,
                    "velocity": 0.5039370078740157,
                    "duration": 0.05226475000000619
                },
                {
                    "name": "G4",
                    "midi": 67,
                    "time": 84.04171799999979,
                    "velocity": 0.4251968503937008,
                    "duration": 0.10452949999999817
                },
                {
                    "name": "C5",
                    "midi": 72,
                    "time": 84.04171799999979,
                    "velocity": 0.4251968503937008,
                    "duration": 0.10452949999999817
                },
                {
                    "name": "D#5",
                    "midi": 75,
                    "time": 84.04171799999979,
                    "velocity": 0.5039370078740157,
                    "duration": 0.10452949999999817
                },
                {
                    "name": "G4",
                    "midi": 67,
                    "time": 84.25077699999979,
                    "velocity": 0.47244094488188976,
                    "duration": 0.6271770000000032
                },
                {
                    "name": "C5",
                    "midi": 72,
                    "time": 84.25077699999979,
                    "velocity": 0.47244094488188976,
                    "duration": 0.6271770000000032
                },
                {
                    "name": "D#5",
                    "midi": 75,
                    "time": 84.25077699999979,
                    "velocity": 0.5590551181102362,
                    "duration": 0.6271770000000032
                },
                {
                    "name": "G#4",
                    "midi": 68,
                    "time": 84.87795399999979,
                    "velocity": 0.3937007874015748,
                    "duration": 0.20905899999999633
                },
                {
                    "name": "A#4",
                    "midi": 70,
                    "time": 84.87795399999979,
                    "velocity": 0.3937007874015748,
                    "duration": 0.20905899999999633
                },
                {
                    "name": "D5",
                    "midi": 74,
                    "time": 84.87795399999979,
                    "velocity": 0.3937007874015748,
                    "duration": 0.20905899999999633
                },
                {
                    "name": "A#5",
                    "midi": 82,
                    "time": 84.87795399999979,
                    "velocity": 0.47244094488188976,
                    "duration": 0.20905899999999633
                },
                {
                    "name": "G#4",
                    "midi": 68,
                    "time": 85.19154249999978,
                    "velocity": 0.3543307086614173,
                    "duration": 0.05226475000000619
                },
                {
                    "name": "A#4",
                    "midi": 70,
                    "time": 85.19154249999978,
                    "velocity": 0.3543307086614173,
                    "duration": 0.05226475000000619
                },
                {
                    "name": "F5",
                    "midi": 77,
                    "time": 85.19154249999978,
                    "velocity": 0.4251968503937008,
                    "duration": 0.05226475000000619
                },
                {
                    "name": "G#4",
                    "midi": 68,
                    "time": 85.2960719999998,
                    "velocity": 0.3543307086614173,
                    "duration": 0.10452949999999817
                },
                {
                    "name": "A#4",
                    "midi": 70,
                    "time": 85.2960719999998,
                    "velocity": 0.3543307086614173,
                    "duration": 0.10452949999999817
                },
                {
                    "name": "F5",
                    "midi": 77,
                    "time": 85.2960719999998,
                    "velocity": 0.4251968503937008,
                    "duration": 0.10452949999999817
                },
                {
                    "name": "G#4",
                    "midi": 68,
                    "time": 85.50513099999979,
                    "velocity": 0.3937007874015748,
                    "duration": 0.10452949999999817
                },
                {
                    "name": "A#4",
                    "midi": 70,
                    "time": 85.50513099999979,
                    "velocity": 0.3937007874015748,
                    "duration": 0.10452949999999817
                },
                {
                    "name": "E5",
                    "midi": 76,
                    "time": 85.50513099999979,
                    "velocity": 0.47244094488188976,
                    "duration": 0.10452949999999817
                },
                {
                    "name": "G#4",
                    "midi": 68,
                    "time": 85.71418999999979,
                    "velocity": 0.4251968503937008,
                    "duration": 0.10452949999999817
                },
                {
                    "name": "A#4",
                    "midi": 70,
                    "time": 85.71418999999979,
                    "velocity": 0.4251968503937008,
                    "duration": 0.10452949999999817
                },
                {
                    "name": "F5",
                    "midi": 77,
                    "time": 85.71418999999979,
                    "velocity": 0.49606299212598426,
                    "duration": 0.10452949999999817
                },
                {
                    "name": "G#4",
                    "midi": 68,
                    "time": 85.92324899999979,
                    "velocity": 0.4251968503937008,
                    "duration": 0.10452949999999817
                },
                {
                    "name": "A#4",
                    "midi": 70,
                    "time": 85.92324899999979,
                    "velocity": 0.4251968503937008,
                    "duration": 0.10452949999999817
                },
                {
                    "name": "F#5",
                    "midi": 78,
                    "time": 85.92324899999979,
                    "velocity": 0.4251968503937008,
                    "duration": 0.10452949999999817
                },
                {
                    "name": "A#5",
                    "midi": 82,
                    "time": 85.92324899999979,
                    "velocity": 0.49606299212598426,
                    "duration": 0.10452949999999817
                },
                {
                    "name": "A#4",
                    "midi": 70,
                    "time": 86.13230799999978,
                    "velocity": 0.4409448818897638,
                    "duration": 0.6271770000000032
                },
                {
                    "name": "G5",
                    "midi": 79,
                    "time": 86.13230799999978,
                    "velocity": 0.4409448818897638,
                    "duration": 0.6271770000000032
                },
                {
                    "name": "A#5",
                    "midi": 82,
                    "time": 86.13230799999978,
                    "velocity": 0.5275590551181102,
                    "duration": 0.6271770000000032
                },
                {
                    "name": "G4",
                    "midi": 67,
                    "time": 86.75948499999978,
                    "velocity": 0.3937007874015748,
                    "duration": 0.20905899999999633
                },
                {
                    "name": "A#4",
                    "midi": 70,
                    "time": 86.75948499999978,
                    "velocity": 0.3937007874015748,
                    "duration": 0.20905899999999633
                },
                {
                    "name": "G5",
                    "midi": 79,
                    "time": 86.75948499999978,
                    "velocity": 0.47244094488188976,
                    "duration": 0.20905899999999633
                },
                {
                    "name": "D#6",
                    "midi": 87,
                    "time": 87.38666199999979,
                    "velocity": 0.5275590551181102,
                    "duration": 0.20905899999999633
                },
                {
                    "name": "G6",
                    "midi": 91,
                    "time": 87.38666199999979,
                    "velocity": 0.5275590551181102,
                    "duration": 0.20905899999999633
                },
                {
                    "name": "D#7",
                    "midi": 99,
                    "time": 87.38666199999979,
                    "velocity": 0.6850393700787402,
                    "duration": 0.20905899999999633
                },
                {
                    "name": "A#5",
                    "midi": 82,
                    "time": 87.70025049999978,
                    "velocity": 0.47244094488188976,
                    "duration": 0.05226475000000619
                },
                {
                    "name": "D#6",
                    "midi": 87,
                    "time": 87.70025049999978,
                    "velocity": 0.47244094488188976,
                    "duration": 0.05226475000000619
                },
                {
                    "name": "A#6",
                    "midi": 94,
                    "time": 87.70025049999978,
                    "velocity": 0.5669291338582677,
                    "duration": 0.05226475000000619
                },
                {
                    "name": "A#5",
                    "midi": 82,
                    "time": 87.8047799999998,
                    "velocity": 0.48031496062992124,
                    "duration": 0.10452949999999817
                },
                {
                    "name": "D#6",
                    "midi": 87,
                    "time": 87.8047799999998,
                    "velocity": 0.48031496062992124,
                    "duration": 0.10452949999999817
                },
                {
                    "name": "A#6",
                    "midi": 94,
                    "time": 87.8047799999998,
                    "velocity": 0.5669291338582677,
                    "duration": 0.10452949999999817
                },
                {
                    "name": "A#5",
                    "midi": 82,
                    "time": 88.01383899999979,
                    "velocity": 0.5433070866141733,
                    "duration": 0.10452949999999817
                },
                {
                    "name": "D#6",
                    "midi": 87,
                    "time": 88.01383899999979,
                    "velocity": 0.5433070866141733,
                    "duration": 0.10452949999999817
                },
                {
                    "name": "A#6",
                    "midi": 94,
                    "time": 88.01383899999979,
                    "velocity": 0.6456692913385826,
                    "duration": 0.10452949999999817
                },
                {
                    "name": "G5",
                    "midi": 79,
                    "time": 88.32742749999979,
                    "velocity": 0.4881889763779528,
                    "duration": 0.05226475000000619
                },
                {
                    "name": "D#6",
                    "midi": 87,
                    "time": 88.32742749999979,
                    "velocity": 0.4881889763779528,
                    "duration": 0.05226475000000619
                },
                {
                    "name": "G6",
                    "midi": 91,
                    "time": 88.32742749999979,
                    "velocity": 0.5669291338582677,
                    "duration": 0.05226475000000619
                },
                {
                    "name": "G5",
                    "midi": 79,
                    "time": 88.4319569999998,
                    "velocity": 0.4881889763779528,
                    "duration": 0.10452949999999817
                },
                {
                    "name": "D#6",
                    "midi": 87,
                    "time": 88.4319569999998,
                    "velocity": 0.4881889763779528,
                    "duration": 0.10452949999999817
                },
                {
                    "name": "G6",
                    "midi": 91,
                    "time": 88.4319569999998,
                    "velocity": 0.5748031496062992,
                    "duration": 0.10452949999999817
                },
                {
                    "name": "G5",
                    "midi": 79,
                    "time": 88.6410159999998,
                    "velocity": 0.5669291338582677,
                    "duration": 0.10452949999999817
                },
                {
                    "name": "D#6",
                    "midi": 87,
                    "time": 88.6410159999998,
                    "velocity": 0.5669291338582677,
                    "duration": 0.10452949999999817
                },
                {
                    "name": "G6",
                    "midi": 91,
                    "time": 88.6410159999998,
                    "velocity": 0.6771653543307087,
                    "duration": 0.10452949999999817
                },
                {
                    "name": "D#5",
                    "midi": 75,
                    "time": 88.95460449999979,
                    "velocity": 0.5196850393700787,
                    "duration": 0.05226475000000619
                },
                {
                    "name": "C6",
                    "midi": 84,
                    "time": 88.95460449999979,
                    "velocity": 0.5196850393700787,
                    "duration": 0.05226475000000619
                },
                {
                    "name": "D#6",
                    "midi": 87,
                    "time": 88.95460449999979,
                    "velocity": 0.6141732283464567,
                    "duration": 0.05226475000000619
                },
                {
                    "name": "D#5",
                    "midi": 75,
                    "time": 89.0591339999998,
                    "velocity": 0.5196850393700787,
                    "duration": 0.10452949999999817
                },
                {
                    "name": "C6",
                    "midi": 84,
                    "time": 89.0591339999998,
                    "velocity": 0.5196850393700787,
                    "duration": 0.10452949999999817
                },
                {
                    "name": "D#6",
                    "midi": 87,
                    "time": 89.0591339999998,
                    "velocity": 0.6220472440944882,
                    "duration": 0.10452949999999817
                },
                {
                    "name": "D#5",
                    "midi": 75,
                    "time": 89.2681929999998,
                    "velocity": 0.5826771653543307,
                    "duration": 0.6271770000000032
                },
                {
                    "name": "C6",
                    "midi": 84,
                    "time": 89.2681929999998,
                    "velocity": 0.5826771653543307,
                    "duration": 0.6271770000000032
                },
                {
                    "name": "D#6",
                    "midi": 87,
                    "time": 89.2681929999998,
                    "velocity": 0.6850393700787402,
                    "duration": 0.6271770000000032
                },
                {
                    "name": "B5",
                    "midi": 83,
                    "time": 89.8953699999998,
                    "velocity": 0.5669291338582677,
                    "duration": 0.20905899999999633
                },
                {
                    "name": "D6",
                    "midi": 86,
                    "time": 89.8953699999998,
                    "velocity": 0.5669291338582677,
                    "duration": 0.20905899999999633
                },
                {
                    "name": "B6",
                    "midi": 95,
                    "time": 89.8953699999998,
                    "velocity": 0.6850393700787402,
                    "duration": 0.20905899999999633
                },
                {
                    "name": "D5",
                    "midi": 74,
                    "time": 90.2089584999998,
                    "velocity": 0.5039370078740157,
                    "duration": 0.05226475000000619
                },
                {
                    "name": "B5",
                    "midi": 83,
                    "time": 90.2089584999998,
                    "velocity": 0.5039370078740157,
                    "duration": 0.05226475000000619
                },
                {
                    "name": "D6",
                    "midi": 86,
                    "time": 90.2089584999998,
                    "velocity": 0.6141732283464567,
                    "duration": 0.05226475000000619
                },
                {
                    "name": "D5",
                    "midi": 74,
                    "time": 90.31348799999981,
                    "velocity": 0.5039370078740157,
                    "duration": 0.10452949999999817
                },
                {
                    "name": "B5",
                    "midi": 83,
                    "time": 90.31348799999981,
                    "velocity": 0.5039370078740157,
                    "duration": 0.10452949999999817
                },
                {
                    "name": "D6",
                    "midi": 86,
                    "time": 90.31348799999981,
                    "velocity": 0.6141732283464567,
                    "duration": 0.10452949999999817
                },
                {
                    "name": "C#5",
                    "midi": 73,
                    "time": 90.5225469999998,
                    "velocity": 0.5354330708661418,
                    "duration": 0.10452949999999817
                },
                {
                    "name": "A#5",
                    "midi": 82,
                    "time": 90.5225469999998,
                    "velocity": 0.5354330708661418,
                    "duration": 0.10452949999999817
                },
                {
                    "name": "C#6",
                    "midi": 85,
                    "time": 90.5225469999998,
                    "velocity": 0.6456692913385826,
                    "duration": 0.10452949999999817
                },
                {
                    "name": "D5",
                    "midi": 74,
                    "time": 90.7316059999998,
                    "velocity": 0.6062992125984252,
                    "duration": 0.10452949999999817
                },
                {
                    "name": "B5",
                    "midi": 83,
                    "time": 90.7316059999998,
                    "velocity": 0.6062992125984252,
                    "duration": 0.10452949999999817
                },
                {
                    "name": "D6",
                    "midi": 86,
                    "time": 90.7316059999998,
                    "velocity": 0.7086614173228346,
                    "duration": 0.10452949999999817
                },
                {
                    "name": "G5",
                    "midi": 79,
                    "time": 90.9406649999998,
                    "velocity": 0.6062992125984252,
                    "duration": 0.10452949999999817
                },
                {
                    "name": "B5",
                    "midi": 83,
                    "time": 90.9406649999998,
                    "velocity": 0.6062992125984252,
                    "duration": 0.10452949999999817
                },
                {
                    "name": "G6",
                    "midi": 91,
                    "time": 90.9406649999998,
                    "velocity": 0.7086614173228346,
                    "duration": 0.10452949999999817
                },
                {
                    "name": "D6",
                    "midi": 86,
                    "time": 91.1497239999998,
                    "velocity": 0.5669291338582677,
                    "duration": 0.20905899999999633
                },
                {
                    "name": "B6",
                    "midi": 95,
                    "time": 91.1497239999998,
                    "velocity": 0.6850393700787402,
                    "duration": 0.20905899999999633
                },
                {
                    "name": "B5",
                    "midi": 83,
                    "time": 91.1497239999998,
                    "velocity": 0.5669291338582677,
                    "duration": 0.20905899999999633
                },
                {
                    "name": "F#5",
                    "midi": 78,
                    "time": 91.46331249999979,
                    "velocity": 0.5039370078740157,
                    "duration": 0.05226475000000619
                },
                {
                    "name": "F#6",
                    "midi": 90,
                    "time": 91.46331249999979,
                    "velocity": 0.6141732283464567,
                    "duration": 0.05226475000000619
                },
                {
                    "name": "D6",
                    "midi": 86,
                    "time": 91.46331249999979,
                    "velocity": 0.5039370078740157,
                    "duration": 0.05226475000000619
                },
                {
                    "name": "D6",
                    "midi": 86,
                    "time": 91.5678419999998,
                    "velocity": 0.5039370078740157,
                    "duration": 0.10452949999999817
                },
                {
                    "name": "F#5",
                    "midi": 78,
                    "time": 91.5678419999998,
                    "velocity": 0.5039370078740157,
                    "duration": 0.10452949999999817
                },
                {
                    "name": "F#6",
                    "midi": 90,
                    "time": 91.5678419999998,
                    "velocity": 0.6141732283464567,
                    "duration": 0.10452949999999817
                },
                {
                    "name": "F#5",
                    "midi": 78,
                    "time": 91.7769009999998,
                    "velocity": 0.5669291338582677,
                    "duration": 0.6271770000000032
                },
                {
                    "name": "F#6",
                    "midi": 90,
                    "time": 91.7769009999998,
                    "velocity": 0.6850393700787402,
                    "duration": 0.6271770000000032
                },
                {
                    "name": "D6",
                    "midi": 86,
                    "time": 91.7769009999998,
                    "velocity": 0.5669291338582677,
                    "duration": 0.6271770000000032
                },
                {
                    "name": "A#5",
                    "midi": 82,
                    "time": 92.4040779999998,
                    "velocity": 0.5039370078740157,
                    "duration": 0.20905899999999633
                },
                {
                    "name": "C#6",
                    "midi": 85,
                    "time": 92.4040779999998,
                    "velocity": 0.5039370078740157,
                    "duration": 0.20905899999999633
                },
                {
                    "name": "A#6",
                    "midi": 94,
                    "time": 92.4040779999998,
                    "velocity": 0.6141732283464567,
                    "duration": 0.20905899999999633
                },
                {
                    "name": "C#5",
                    "midi": 73,
                    "time": 92.7176664999998,
                    "velocity": 0.44881889763779526,
                    "duration": 0.05226475000000619
                },
                {
                    "name": "A#5",
                    "midi": 82,
                    "time": 92.7176664999998,
                    "velocity": 0.44881889763779526,
                    "duration": 0.05226475000000619
                },
                {
                    "name": "C#6",
                    "midi": 85,
                    "time": 92.7176664999998,
                    "velocity": 0.5511811023622047,
                    "duration": 0.05226475000000619
                },
                {
                    "name": "C#5",
                    "midi": 73,
                    "time": 92.8221959999998,
                    "velocity": 0.44881889763779526,
                    "duration": 0.10452949999999817
                },
                {
                    "name": "A#5",
                    "midi": 82,
                    "time": 92.8221959999998,
                    "velocity": 0.44881889763779526,
                    "duration": 0.10452949999999817
                },
                {
                    "name": "C#6",
                    "midi": 85,
                    "time": 92.8221959999998,
                    "velocity": 0.5511811023622047,
                    "duration": 0.10452949999999817
                },
                {
                    "name": "C5",
                    "midi": 72,
                    "time": 93.0312549999998,
                    "velocity": 0.5039370078740157,
                    "duration": 0.10452949999999817
                },
                {
                    "name": "A5",
                    "midi": 81,
                    "time": 93.0312549999998,
                    "velocity": 0.5039370078740157,
                    "duration": 0.10452949999999817
                },
                {
                    "name": "C6",
                    "midi": 84,
                    "time": 93.0312549999998,
                    "velocity": 0.6141732283464567,
                    "duration": 0.10452949999999817
                },
                {
                    "name": "C#5",
                    "midi": 73,
                    "time": 93.2403139999998,
                    "velocity": 0.5433070866141733,
                    "duration": 0.10452949999999817
                },
                {
                    "name": "A#5",
                    "midi": 82,
                    "time": 93.2403139999998,
                    "velocity": 0.5433070866141733,
                    "duration": 0.10452949999999817
                },
                {
                    "name": "C#6",
                    "midi": 85,
                    "time": 93.2403139999998,
                    "velocity": 0.6377952755905512,
                    "duration": 0.10452949999999817
                },
                {
                    "name": "F#5",
                    "midi": 78,
                    "time": 93.4493729999998,
                    "velocity": 0.5433070866141733,
                    "duration": 0.10452949999999817
                },
                {
                    "name": "A#5",
                    "midi": 82,
                    "time": 93.4493729999998,
                    "velocity": 0.5433070866141733,
                    "duration": 0.10452949999999817
                },
                {
                    "name": "F#6",
                    "midi": 90,
                    "time": 93.4493729999998,
                    "velocity": 0.6377952755905512,
                    "duration": 0.10452949999999817
                },
                {
                    "name": "C#6",
                    "midi": 85,
                    "time": 93.65843199999979,
                    "velocity": 0.5039370078740157,
                    "duration": 0.20905899999999633
                },
                {
                    "name": "A#6",
                    "midi": 94,
                    "time": 93.65843199999979,
                    "velocity": 0.6141732283464567,
                    "duration": 0.20905899999999633
                },
                {
                    "name": "A#5",
                    "midi": 82,
                    "time": 93.65843199999979,
                    "velocity": 0.5039370078740157,
                    "duration": 0.20905899999999633
                },
                {
                    "name": "F5",
                    "midi": 77,
                    "time": 93.97202049999979,
                    "velocity": 0.44881889763779526,
                    "duration": 0.05226475000000619
                },
                {
                    "name": "F6",
                    "midi": 89,
                    "time": 93.97202049999979,
                    "velocity": 0.5511811023622047,
                    "duration": 0.05226475000000619
                },
                {
                    "name": "C#6",
                    "midi": 85,
                    "time": 93.97202049999979,
                    "velocity": 0.44881889763779526,
                    "duration": 0.05226475000000619
                },
                {
                    "name": "C#6",
                    "midi": 85,
                    "time": 94.0765499999998,
                    "velocity": 0.44881889763779526,
                    "duration": 0.10452949999999817
                },
                {
                    "name": "F5",
                    "midi": 77,
                    "time": 94.0765499999998,
                    "velocity": 0.44881889763779526,
                    "duration": 0.10452949999999817
                },
                {
                    "name": "F6",
                    "midi": 89,
                    "time": 94.0765499999998,
                    "velocity": 0.5511811023622047,
                    "duration": 0.10452949999999817
                },
                {
                    "name": "F5",
                    "midi": 77,
                    "time": 94.2856089999998,
                    "velocity": 0.5039370078740157,
                    "duration": 0.6271770000000032
                },
                {
                    "name": "F6",
                    "midi": 89,
                    "time": 94.2856089999998,
                    "velocity": 0.6141732283464567,
                    "duration": 0.6271770000000032
                },
                {
                    "name": "C#6",
                    "midi": 85,
                    "time": 94.2856089999998,
                    "velocity": 0.5039370078740157,
                    "duration": 0.6271770000000032
                },
                {
                    "name": "A5",
                    "midi": 81,
                    "time": 94.9127859999998,
                    "velocity": 0.4645669291338583,
                    "duration": 0.20905899999999633
                },
                {
                    "name": "C6",
                    "midi": 84,
                    "time": 94.9127859999998,
                    "velocity": 0.4645669291338583,
                    "duration": 0.20905899999999633
                },
                {
                    "name": "A6",
                    "midi": 93,
                    "time": 94.9127859999998,
                    "velocity": 0.5511811023622047,
                    "duration": 0.20905899999999633
                },
                {
                    "name": "C5",
                    "midi": 72,
                    "time": 95.22637449999979,
                    "velocity": 0.4015748031496063,
                    "duration": 0.05226475000000619
                },
                {
                    "name": "A5",
                    "midi": 81,
                    "time": 95.22637449999979,
                    "velocity": 0.48031496062992124,
                    "duration": 0.05226475000000619
                },
                {
                    "name": "C6",
                    "midi": 84,
                    "time": 95.22637449999979,
                    "velocity": 0.48031496062992124,
                    "duration": 0.05226475000000619
                },
                {
                    "name": "C5",
                    "midi": 72,
                    "time": 95.3309039999998,
                    "velocity": 0.4015748031496063,
                    "duration": 0.10452949999999817
                },
                {
                    "name": "A5",
                    "midi": 81,
                    "time": 95.3309039999998,
                    "velocity": 0.48031496062992124,
                    "duration": 0.10452949999999817
                },
                {
                    "name": "C6",
                    "midi": 84,
                    "time": 95.3309039999998,
                    "velocity": 0.48031496062992124,
                    "duration": 0.10452949999999817
                },
                {
                    "name": "E5",
                    "midi": 76,
                    "time": 95.5399629999998,
                    "velocity": 0.48031496062992124,
                    "duration": 0.10452949999999817
                },
                {
                    "name": "C6",
                    "midi": 84,
                    "time": 95.5399629999998,
                    "velocity": 0.48031496062992124,
                    "duration": 0.10452949999999817
                },
                {
                    "name": "E6",
                    "midi": 88,
                    "time": 95.5399629999998,
                    "velocity": 0.5669291338582677,
                    "duration": 0.10452949999999817
                },
                {
                    "name": "D#5",
                    "midi": 75,
                    "time": 95.8535514999998,
                    "velocity": 0.4251968503937008,
                    "duration": 0.05226475000000619
                },
                {
                    "name": "B5",
                    "midi": 83,
                    "time": 95.8535514999998,
                    "velocity": 0.4251968503937008,
                    "duration": 0.05226475000000619
                },
                {
                    "name": "D#6",
                    "midi": 87,
                    "time": 95.8535514999998,
                    "velocity": 0.5039370078740157,
                    "duration": 0.05226475000000619
                },
                {
                    "name": "E5",
                    "midi": 76,
                    "time": 95.95808099999981,
                    "velocity": 0.4251968503937008,
                    "duration": 0.10452949999999817
                },
                {
                    "name": "C6",
                    "midi": 84,
                    "time": 95.95808099999981,
                    "velocity": 0.4251968503937008,
                    "duration": 0.10452949999999817
                },
                {
                    "name": "E6",
                    "midi": 88,
                    "time": 95.95808099999981,
                    "velocity": 0.5039370078740157,
                    "duration": 0.10452949999999817
                },
                {
                    "name": "G#5",
                    "midi": 80,
                    "time": 96.1671399999998,
                    "velocity": 0.4645669291338583,
                    "duration": 0.20905899999999633
                },
                {
                    "name": "B5",
                    "midi": 83,
                    "time": 96.1671399999998,
                    "velocity": 0.4645669291338583,
                    "duration": 0.20905899999999633
                },
                {
                    "name": "G#6",
                    "midi": 92,
                    "time": 96.1671399999998,
                    "velocity": 0.5511811023622047,
                    "duration": 0.20905899999999633
                },
                {
                    "name": "B4",
                    "midi": 71,
                    "time": 96.4807284999998,
                    "velocity": 0.4015748031496063,
                    "duration": 0.05226475000000619
                },
                {
                    "name": "G#5",
                    "midi": 80,
                    "time": 96.4807284999998,
                    "velocity": 0.48031496062992124,
                    "duration": 0.05226475000000619
                },
                {
                    "name": "B5",
                    "midi": 83,
                    "time": 96.4807284999998,
                    "velocity": 0.48031496062992124,
                    "duration": 0.05226475000000619
                },
                {
                    "name": "B4",
                    "midi": 71,
                    "time": 96.58525799999981,
                    "velocity": 0.4015748031496063,
                    "duration": 0.10452949999999817
                },
                {
                    "name": "G#5",
                    "midi": 80,
                    "time": 96.58525799999981,
                    "velocity": 0.48031496062992124,
                    "duration": 0.10452949999999817
                },
                {
                    "name": "B5",
                    "midi": 83,
                    "time": 96.58525799999981,
                    "velocity": 0.48031496062992124,
                    "duration": 0.10452949999999817
                },
                {
                    "name": "D#5",
                    "midi": 75,
                    "time": 96.79431699999981,
                    "velocity": 0.48031496062992124,
                    "duration": 0.10452949999999817
                },
                {
                    "name": "B5",
                    "midi": 83,
                    "time": 96.79431699999981,
                    "velocity": 0.48031496062992124,
                    "duration": 0.10452949999999817
                },
                {
                    "name": "D#6",
                    "midi": 87,
                    "time": 96.79431699999981,
                    "velocity": 0.5669291338582677,
                    "duration": 0.10452949999999817
                },
                {
                    "name": "D5",
                    "midi": 74,
                    "time": 97.1079054999998,
                    "velocity": 0.4251968503937008,
                    "duration": 0.05226475000000619
                },
                {
                    "name": "B5",
                    "midi": 83,
                    "time": 97.1079054999998,
                    "velocity": 0.4251968503937008,
                    "duration": 0.05226475000000619
                },
                {
                    "name": "D6",
                    "midi": 86,
                    "time": 97.1079054999998,
                    "velocity": 0.5039370078740157,
                    "duration": 0.05226475000000619
                },
                {
                    "name": "D#5",
                    "midi": 75,
                    "time": 97.21243499999981,
                    "velocity": 0.4251968503937008,
                    "duration": 0.10452949999999817
                },
                {
                    "name": "B5",
                    "midi": 83,
                    "time": 97.21243499999981,
                    "velocity": 0.4251968503937008,
                    "duration": 0.10452949999999817
                },
                {
                    "name": "D#6",
                    "midi": 87,
                    "time": 97.21243499999981,
                    "velocity": 0.5039370078740157,
                    "duration": 0.10452949999999817
                },
                {
                    "name": "G5",
                    "midi": 79,
                    "time": 97.42149399999981,
                    "velocity": 0.4645669291338583,
                    "duration": 0.20905899999999633
                },
                {
                    "name": "A#5",
                    "midi": 82,
                    "time": 97.42149399999981,
                    "velocity": 0.4645669291338583,
                    "duration": 0.20905899999999633
                },
                {
                    "name": "G6",
                    "midi": 91,
                    "time": 97.42149399999981,
                    "velocity": 0.5511811023622047,
                    "duration": 0.20905899999999633
                },
                {
                    "name": "A#4",
                    "midi": 70,
                    "time": 97.7350824999998,
                    "velocity": 0.3937007874015748,
                    "duration": 0.05226475000000619
                },
                {
                    "name": "D#5",
                    "midi": 75,
                    "time": 97.7350824999998,
                    "velocity": 0.47244094488188976,
                    "duration": 0.05226475000000619
                },
                {
                    "name": "G5",
                    "midi": 79,
                    "time": 97.7350824999998,
                    "velocity": 0.47244094488188976,
                    "duration": 0.05226475000000619
                },
                {
                    "name": "A#4",
                    "midi": 70,
                    "time": 97.83961199999982,
                    "velocity": 0.3937007874015748,
                    "duration": 0.10452949999999817
                },
                {
                    "name": "D#5",
                    "midi": 75,
                    "time": 97.83961199999982,
                    "velocity": 0.47244094488188976,
                    "duration": 0.10452949999999817
                },
                {
                    "name": "G5",
                    "midi": 79,
                    "time": 97.83961199999982,
                    "velocity": 0.47244094488188976,
                    "duration": 0.10452949999999817
                },
                {
                    "name": "F#5",
                    "midi": 78,
                    "time": 98.04867099999981,
                    "velocity": 0.4645669291338583,
                    "duration": 0.10452949999999817
                },
                {
                    "name": "A#5",
                    "midi": 82,
                    "time": 98.04867099999981,
                    "velocity": 0.4645669291338583,
                    "duration": 0.10452949999999817
                },
                {
                    "name": "F#6",
                    "midi": 90,
                    "time": 98.04867099999981,
                    "velocity": 0.5590551181102362,
                    "duration": 0.10452949999999817
                },
                {
                    "name": "A#4",
                    "midi": 70,
                    "time": 98.36225949999981,
                    "velocity": 0.41732283464566927,
                    "duration": 0.05226475000000619
                },
                {
                    "name": "D#5",
                    "midi": 75,
                    "time": 98.36225949999981,
                    "velocity": 0.41732283464566927,
                    "duration": 0.05226475000000619
                },
                {
                    "name": "F#5",
                    "midi": 78,
                    "time": 98.36225949999981,
                    "velocity": 0.4881889763779528,
                    "duration": 0.05226475000000619
                },
                {
                    "name": "A#4",
                    "midi": 70,
                    "time": 98.46678899999982,
                    "velocity": 0.4094488188976378,
                    "duration": 0.10452949999999817
                },
                {
                    "name": "D#5",
                    "midi": 75,
                    "time": 98.46678899999982,
                    "velocity": 0.4094488188976378,
                    "duration": 0.10452949999999817
                },
                {
                    "name": "F#5",
                    "midi": 78,
                    "time": 98.46678899999982,
                    "velocity": 0.4881889763779528,
                    "duration": 0.10452949999999817
                },
                {
                    "name": "E5",
                    "midi": 76,
                    "time": 98.67584799999982,
                    "velocity": 0.4330708661417323,
                    "duration": 0.20905899999999633
                },
                {
                    "name": "G#5",
                    "midi": 80,
                    "time": 98.67584799999982,
                    "velocity": 0.4330708661417323,
                    "duration": 0.20905899999999633
                },
                {
                    "name": "E6",
                    "midi": 88,
                    "time": 98.67584799999982,
                    "velocity": 0.5196850393700787,
                    "duration": 0.20905899999999633
                },
                {
                    "name": "G#4",
                    "midi": 68,
                    "time": 98.98943649999981,
                    "velocity": 0.3700787401574803,
                    "duration": 0.05226475000000619
                },
                {
                    "name": "B4",
                    "midi": 71,
                    "time": 98.98943649999981,
                    "velocity": 0.4409448818897638,
                    "duration": 0.05226475000000619
                },
                {
                    "name": "E5",
                    "midi": 76,
                    "time": 98.98943649999981,
                    "velocity": 0.4409448818897638,
                    "duration": 0.05226475000000619
                },
                {
                    "name": "G#4",
                    "midi": 68,
                    "time": 99.09396599999982,
                    "velocity": 0.3700787401574803,
                    "duration": 0.10452949999999817
                },
                {
                    "name": "B4",
                    "midi": 71,
                    "time": 99.09396599999982,
                    "velocity": 0.4409448818897638,
                    "duration": 0.10452949999999817
                },
                {
                    "name": "E5",
                    "midi": 76,
                    "time": 99.09396599999982,
                    "velocity": 0.4409448818897638,
                    "duration": 0.10452949999999817
                },
                {
                    "name": "D#5",
                    "midi": 75,
                    "time": 99.30302499999982,
                    "velocity": 0.4409448818897638,
                    "duration": 0.10452949999999817
                },
                {
                    "name": "F#5",
                    "midi": 78,
                    "time": 99.30302499999982,
                    "velocity": 0.4409448818897638,
                    "duration": 0.10452949999999817
                },
                {
                    "name": "D#6",
                    "midi": 87,
                    "time": 99.30302499999982,
                    "velocity": 0.5275590551181102,
                    "duration": 0.10452949999999817
                },
                {
                    "name": "F#4",
                    "midi": 66,
                    "time": 99.61661349999981,
                    "velocity": 0.3937007874015748,
                    "duration": 0.05226475000000619
                },
                {
                    "name": "A4",
                    "midi": 69,
                    "time": 99.61661349999981,
                    "velocity": 0.3937007874015748,
                    "duration": 0.05226475000000619
                },
                {
                    "name": "D#5",
                    "midi": 75,
                    "time": 99.61661349999981,
                    "velocity": 0.4645669291338583,
                    "duration": 0.05226475000000619
                },
                {
                    "name": "F#4",
                    "midi": 66,
                    "time": 99.72114299999983,
                    "velocity": 0.3858267716535433,
                    "duration": 0.10452949999999817
                },
                {
                    "name": "A4",
                    "midi": 69,
                    "time": 99.72114299999983,
                    "velocity": 0.3858267716535433,
                    "duration": 0.10452949999999817
                },
                {
                    "name": "D#5",
                    "midi": 75,
                    "time": 99.72114299999983,
                    "velocity": 0.4566929133858268,
                    "duration": 0.10452949999999817
                },
                {
                    "name": "D#6",
                    "midi": 87,
                    "time": 99.87793724999983,
                    "velocity": 0.5984251968503937,
                    "duration": 0.05226475000000619
                },
                {
                    "name": "C#5",
                    "midi": 73,
                    "time": 99.93020199999984,
                    "velocity": 0.5511811023622047,
                    "duration": 0.20905899999999633
                },
                {
                    "name": "C#6",
                    "midi": 85,
                    "time": 99.93020199999984,
                    "velocity": 0.6456692913385826,
                    "duration": 0.20905899999999633
                },
                {
                    "name": "F#4",
                    "midi": 66,
                    "time": 100.24379049999983,
                    "velocity": 0.3700787401574803,
                    "duration": 0.05226475000000619
                },
                {
                    "name": "A#4",
                    "midi": 70,
                    "time": 100.24379049999983,
                    "velocity": 0.4409448818897638,
                    "duration": 0.05226475000000619
                },
                {
                    "name": "C#5",
                    "midi": 73,
                    "time": 100.24379049999983,
                    "velocity": 0.4409448818897638,
                    "duration": 0.05226475000000619
                },
                {
                    "name": "G4",
                    "midi": 67,
                    "time": 100.34831999999984,
                    "velocity": 0.3700787401574803,
                    "duration": 0.10452949999999817
                },
                {
                    "name": "A#4",
                    "midi": 70,
                    "time": 100.34831999999984,
                    "velocity": 0.4409448818897638,
                    "duration": 0.10452949999999817
                },
                {
                    "name": "C#5",
                    "midi": 73,
                    "time": 100.34831999999984,
                    "velocity": 0.4409448818897638,
                    "duration": 0.10452949999999817
                },
                {
                    "name": "G4",
                    "midi": 67,
                    "time": 100.55737899999984,
                    "velocity": 0.4409448818897638,
                    "duration": 0.10452949999999817
                },
                {
                    "name": "A#4",
                    "midi": 70,
                    "time": 100.55737899999984,
                    "velocity": 0.4409448818897638,
                    "duration": 0.10452949999999817
                },
                {
                    "name": "C#5",
                    "midi": 73,
                    "time": 100.55737899999984,
                    "velocity": 0.5275590551181102,
                    "duration": 0.10452949999999817
                },
                {
                    "name": "G#4",
                    "midi": 68,
                    "time": 100.87096749999984,
                    "velocity": 0.3937007874015748,
                    "duration": 0.05226475000000619
                },
                {
                    "name": "B4",
                    "midi": 71,
                    "time": 100.87096749999984,
                    "velocity": 0.3937007874015748,
                    "duration": 0.05226475000000619
                },
                {
                    "name": "C#5",
                    "midi": 73,
                    "time": 100.87096749999984,
                    "velocity": 0.4645669291338583,
                    "duration": 0.05226475000000619
                },
                {
                    "name": "F4",
                    "midi": 65,
                    "time": 100.97549699999985,
                    "velocity": 0.3858267716535433,
                    "duration": 0.10452949999999817
                },
                {
                    "name": "G#4",
                    "midi": 68,
                    "time": 100.97549699999985,
                    "velocity": 0.3858267716535433,
                    "duration": 0.10452949999999817
                },
                {
                    "name": "C#5",
                    "midi": 73,
                    "time": 100.97549699999985,
                    "velocity": 0.4566929133858268,
                    "duration": 0.10452949999999817
                },
                {
                    "name": "D#6",
                    "midi": 87,
                    "time": 101.13229124999985,
                    "velocity": 0.5984251968503937,
                    "duration": 0.05226475000000619
                },
                {
                    "name": "C#5",
                    "midi": 73,
                    "time": 101.18455599999986,
                    "velocity": 0.5511811023622047,
                    "duration": 0.20905899999999633
                },
                {
                    "name": "C#6",
                    "midi": 85,
                    "time": 101.18455599999986,
                    "velocity": 0.6456692913385826,
                    "duration": 0.20905899999999633
                },
                {
                    "name": "F#4",
                    "midi": 66,
                    "time": 101.49814449999985,
                    "velocity": 0.3700787401574803,
                    "duration": 0.05226475000000619
                },
                {
                    "name": "A#4",
                    "midi": 70,
                    "time": 101.49814449999985,
                    "velocity": 0.4409448818897638,
                    "duration": 0.05226475000000619
                },
                {
                    "name": "C#5",
                    "midi": 73,
                    "time": 101.49814449999985,
                    "velocity": 0.4409448818897638,
                    "duration": 0.05226475000000619
                },
                {
                    "name": "G4",
                    "midi": 67,
                    "time": 101.60267399999987,
                    "velocity": 0.3700787401574803,
                    "duration": 0.10452949999999817
                },
                {
                    "name": "A#4",
                    "midi": 70,
                    "time": 101.60267399999987,
                    "velocity": 0.4409448818897638,
                    "duration": 0.10452949999999817
                },
                {
                    "name": "C#5",
                    "midi": 73,
                    "time": 101.60267399999987,
                    "velocity": 0.4409448818897638,
                    "duration": 0.10452949999999817
                },
                {
                    "name": "G4",
                    "midi": 67,
                    "time": 101.81173299999986,
                    "velocity": 0.4409448818897638,
                    "duration": 0.10452949999999817
                },
                {
                    "name": "A#4",
                    "midi": 70,
                    "time": 101.81173299999986,
                    "velocity": 0.4409448818897638,
                    "duration": 0.10452949999999817
                },
                {
                    "name": "C#5",
                    "midi": 73,
                    "time": 101.81173299999986,
                    "velocity": 0.5275590551181102,
                    "duration": 0.10452949999999817
                },
                {
                    "name": "G#4",
                    "midi": 68,
                    "time": 102.12532149999986,
                    "velocity": 0.3937007874015748,
                    "duration": 0.05226475000000619
                },
                {
                    "name": "B4",
                    "midi": 71,
                    "time": 102.12532149999986,
                    "velocity": 0.3937007874015748,
                    "duration": 0.05226475000000619
                },
                {
                    "name": "C#5",
                    "midi": 73,
                    "time": 102.12532149999986,
                    "velocity": 0.4645669291338583,
                    "duration": 0.05226475000000619
                },
                {
                    "name": "F4",
                    "midi": 65,
                    "time": 102.22985099999987,
                    "velocity": 0.3858267716535433,
                    "duration": 0.10452949999999817
                },
                {
                    "name": "G#4",
                    "midi": 68,
                    "time": 102.22985099999987,
                    "velocity": 0.3858267716535433,
                    "duration": 0.10452949999999817
                },
                {
                    "name": "C#5",
                    "midi": 73,
                    "time": 102.22985099999987,
                    "velocity": 0.4566929133858268,
                    "duration": 0.10452949999999817
                },
                {
                    "name": "B5",
                    "midi": 83,
                    "time": 102.38664524999987,
                    "velocity": 0.5984251968503937,
                    "duration": 0.05226475000000619
                },
                {
                    "name": "A#4",
                    "midi": 70,
                    "time": 102.43890999999988,
                    "velocity": 0.5511811023622047,
                    "duration": 0.20905899999999633
                },
                {
                    "name": "A#5",
                    "midi": 82,
                    "time": 102.43890999999988,
                    "velocity": 0.6456692913385826,
                    "duration": 0.20905899999999633
                },
                {
                    "name": "D#4",
                    "midi": 63,
                    "time": 102.75249849999987,
                    "velocity": 0.3700787401574803,
                    "duration": 0.05226475000000619
                },
                {
                    "name": "F#4",
                    "midi": 66,
                    "time": 102.75249849999987,
                    "velocity": 0.4409448818897638,
                    "duration": 0.05226475000000619
                },
                {
                    "name": "A#4",
                    "midi": 70,
                    "time": 102.75249849999987,
                    "velocity": 0.4409448818897638,
                    "duration": 0.05226475000000619
                },
                {
                    "name": "E4",
                    "midi": 64,
                    "time": 102.85702799999989,
                    "velocity": 0.3700787401574803,
                    "duration": 0.10452949999999817
                },
                {
                    "name": "G4",
                    "midi": 67,
                    "time": 102.85702799999989,
                    "velocity": 0.4409448818897638,
                    "duration": 0.10452949999999817
                },
                {
                    "name": "A#4",
                    "midi": 70,
                    "time": 102.85702799999989,
                    "velocity": 0.4409448818897638,
                    "duration": 0.10452949999999817
                },
                {
                    "name": "E4",
                    "midi": 64,
                    "time": 103.06608699999988,
                    "velocity": 0.4409448818897638,
                    "duration": 0.10452949999999817
                },
                {
                    "name": "G4",
                    "midi": 67,
                    "time": 103.06608699999988,
                    "velocity": 0.4409448818897638,
                    "duration": 0.10452949999999817
                },
                {
                    "name": "A#4",
                    "midi": 70,
                    "time": 103.06608699999988,
                    "velocity": 0.5275590551181102,
                    "duration": 0.10452949999999817
                },
                {
                    "name": "F4",
                    "midi": 65,
                    "time": 103.37967549999988,
                    "velocity": 0.3937007874015748,
                    "duration": 0.05226475000000619
                },
                {
                    "name": "G#4",
                    "midi": 68,
                    "time": 103.37967549999988,
                    "velocity": 0.3937007874015748,
                    "duration": 0.05226475000000619
                },
                {
                    "name": "A#4",
                    "midi": 70,
                    "time": 103.37967549999988,
                    "velocity": 0.4645669291338583,
                    "duration": 0.05226475000000619
                },
                {
                    "name": "D4",
                    "midi": 62,
                    "time": 103.48420499999989,
                    "velocity": 0.3858267716535433,
                    "duration": 0.10452949999999817
                },
                {
                    "name": "F4",
                    "midi": 65,
                    "time": 103.48420499999989,
                    "velocity": 0.3858267716535433,
                    "duration": 0.10452949999999817
                },
                {
                    "name": "A#4",
                    "midi": 70,
                    "time": 103.48420499999989,
                    "velocity": 0.4566929133858268,
                    "duration": 0.10452949999999817
                },
                {
                    "name": "B5",
                    "midi": 83,
                    "time": 103.6409992499999,
                    "velocity": 0.5984251968503937,
                    "duration": 0.05226475000000619
                },
                {
                    "name": "A#4",
                    "midi": 70,
                    "time": 103.6932639999999,
                    "velocity": 0.5196850393700787,
                    "duration": 0.20905899999999633
                },
                {
                    "name": "A#5",
                    "midi": 82,
                    "time": 103.6932639999999,
                    "velocity": 0.6141732283464567,
                    "duration": 0.20905899999999633
                },
                {
                    "name": "D#4",
                    "midi": 63,
                    "time": 104.0068524999999,
                    "velocity": 0.33070866141732286,
                    "duration": 0.05226475000000619
                },
                {
                    "name": "F#4",
                    "midi": 66,
                    "time": 104.0068524999999,
                    "velocity": 0.3937007874015748,
                    "duration": 0.05226475000000619
                },
                {
                    "name": "A#4",
                    "midi": 70,
                    "time": 104.0068524999999,
                    "velocity": 0.3937007874015748,
                    "duration": 0.05226475000000619
                },
                {
                    "name": "E4",
                    "midi": 64,
                    "time": 104.1113819999999,
                    "velocity": 0.3228346456692913,
                    "duration": 0.10452949999999817
                },
                {
                    "name": "G4",
                    "midi": 67,
                    "time": 104.1113819999999,
                    "velocity": 0.3779527559055118,
                    "duration": 0.10452949999999817
                },
                {
                    "name": "A#4",
                    "midi": 70,
                    "time": 104.1113819999999,
                    "velocity": 0.3779527559055118,
                    "duration": 0.10452949999999817
                },
                {
                    "name": "E4",
                    "midi": 64,
                    "time": 104.3204409999999,
                    "velocity": 0.36220472440944884,
                    "duration": 0.10452949999999817
                },
                {
                    "name": "G4",
                    "midi": 67,
                    "time": 104.3204409999999,
                    "velocity": 0.36220472440944884,
                    "duration": 0.10452949999999817
                },
                {
                    "name": "A#4",
                    "midi": 70,
                    "time": 104.3204409999999,
                    "velocity": 0.4330708661417323,
                    "duration": 0.10452949999999817
                },
                {
                    "name": "F4",
                    "midi": 65,
                    "time": 104.6340294999999,
                    "velocity": 0.2992125984251969,
                    "duration": 0.05226475000000619
                },
                {
                    "name": "G#4",
                    "midi": 68,
                    "time": 104.6340294999999,
                    "velocity": 0.2992125984251969,
                    "duration": 0.05226475000000619
                },
                {
                    "name": "A#4",
                    "midi": 70,
                    "time": 104.6340294999999,
                    "velocity": 0.3543307086614173,
                    "duration": 0.05226475000000619
                },
                {
                    "name": "D4",
                    "midi": 62,
                    "time": 104.73855899999991,
                    "velocity": 0.28346456692913385,
                    "duration": 0.10452949999999817
                },
                {
                    "name": "F4",
                    "midi": 65,
                    "time": 104.73855899999991,
                    "velocity": 0.28346456692913385,
                    "duration": 0.10452949999999817
                },
                {
                    "name": "A#4",
                    "midi": 70,
                    "time": 104.73855899999991,
                    "velocity": 0.33858267716535434,
                    "duration": 0.10452949999999817
                },
                {
                    "name": "G4",
                    "midi": 67,
                    "time": 104.9476179999999,
                    "velocity": 0.3858267716535433,
                    "duration": 1.254353999999978
                },
                {
                    "name": "G3",
                    "midi": 55,
                    "time": 105.0521474999999,
                    "velocity": 0.2204724409448819,
                    "duration": 0.10452949999999817
                },
                {
                    "name": "A#3",
                    "midi": 58,
                    "time": 105.1566769999999,
                    "velocity": 0.2204724409448819,
                    "duration": 0.10452949999999817
                },
                {
                    "name": "F4",
                    "midi": 65,
                    "time": 105.2612064999999,
                    "velocity": 0.3543307086614173,
                    "duration": 0.3135884999999945
                },
                {
                    "name": "G3",
                    "midi": 55,
                    "time": 105.3657359999999,
                    "velocity": 0.2047244094488189,
                    "duration": 0.10452949999999817
                },
                {
                    "name": "A#3",
                    "midi": 58,
                    "time": 105.4702654999999,
                    "velocity": 0.2047244094488189,
                    "duration": 0.10452949999999817
                },
                {
                    "name": "D#4",
                    "midi": 63,
                    "time": 105.5747949999999,
                    "velocity": 0.3543307086614173,
                    "duration": 0.3135884999999945
                },
                {
                    "name": "G3",
                    "midi": 55,
                    "time": 105.6793244999999,
                    "velocity": 0.1968503937007874,
                    "duration": 0.10452949999999817
                },
                {
                    "name": "A#3",
                    "midi": 58,
                    "time": 105.78385399999989,
                    "velocity": 0.2047244094488189,
                    "duration": 0.10452949999999817
                },
                {
                    "name": "D4",
                    "midi": 62,
                    "time": 105.88838349999989,
                    "velocity": 0.3543307086614173,
                    "duration": 0.3135884999999945
                },
                {
                    "name": "G3",
                    "midi": 55,
                    "time": 105.99291299999989,
                    "velocity": 0.2047244094488189,
                    "duration": 0.10452949999999817
                },
                {
                    "name": "A#3",
                    "midi": 58,
                    "time": 106.09744249999989,
                    "velocity": 0.2047244094488189,
                    "duration": 0.10452949999999817
                },
                {
                    "name": "G4",
                    "midi": 67,
                    "time": 106.20197199999988,
                    "velocity": 0.41732283464566927,
                    "duration": 0.627176999999989
                },
                {
                    "name": "G3",
                    "midi": 55,
                    "time": 106.30650149999988,
                    "velocity": 0.2204724409448819,
                    "duration": 0.10452949999999817
                },
                {
                    "name": "A#3",
                    "midi": 58,
                    "time": 106.41103099999988,
                    "velocity": 0.2204724409448819,
                    "duration": 0.10452949999999817
                },
                {
                    "name": "C4",
                    "midi": 60,
                    "time": 106.51556049999988,
                    "velocity": 0.36220472440944884,
                    "duration": 0.3135884999999945
                },
                {
                    "name": "G3",
                    "midi": 55,
                    "time": 106.62008999999988,
                    "velocity": 0.1968503937007874,
                    "duration": 0.10452949999999817
                },
                {
                    "name": "A3",
                    "midi": 57,
                    "time": 106.72461949999987,
                    "velocity": 0.1968503937007874,
                    "duration": 0.10452949999999817
                },
                {
                    "name": "G4",
                    "midi": 67,
                    "time": 106.82914899999987,
                    "velocity": 0.3858267716535433,
                    "duration": 0.627176999999989
                },
                {
                    "name": "G3",
                    "midi": 55,
                    "time": 106.93367849999987,
                    "velocity": 0.2125984251968504,
                    "duration": 0.10452949999999817
                },
                {
                    "name": "A#3",
                    "midi": 58,
                    "time": 107.03820799999987,
                    "velocity": 0.2125984251968504,
                    "duration": 0.10452949999999817
                },
                {
                    "name": "D#4",
                    "midi": 63,
                    "time": 107.14273749999987,
                    "velocity": 0.29133858267716534,
                    "duration": 0.10452949999999817
                },
                {
                    "name": "G3",
                    "midi": 55,
                    "time": 107.24726699999987,
                    "velocity": 0.1968503937007874,
                    "duration": 0.10452949999999817
                },
                {
                    "name": "A#3",
                    "midi": 58,
                    "time": 107.35179649999986,
                    "velocity": 0.1968503937007874,
                    "duration": 0.10452949999999817
                },
                {
                    "name": "G4",
                    "midi": 67,
                    "time": 107.45632599999986,
                    "velocity": 0.3858267716535433,
                    "duration": 0.3135884999999945
                },
                {
                    "name": "G#3",
                    "midi": 56,
                    "time": 107.56085549999986,
                    "velocity": 0.2204724409448819,
                    "duration": 0.10452949999999817
                },
                {
                    "name": "B3",
                    "midi": 59,
                    "time": 107.66538499999986,
                    "velocity": 0.2204724409448819,
                    "duration": 0.10452949999999817
                },
                {
                    "name": "E4",
                    "midi": 64,
                    "time": 107.76991449999986,
                    "velocity": 0.3543307086614173,
                    "duration": 0.3135884999999945
                },
                {
                    "name": "G#3",
                    "midi": 56,
                    "time": 107.87444399999985,
                    "velocity": 0.2125984251968504,
                    "duration": 0.10452949999999817
                },
                {
                    "name": "B3",
                    "midi": 59,
                    "time": 107.97897349999985,
                    "velocity": 0.2125984251968504,
                    "duration": 0.10452949999999817
                },
                {
                    "name": "F4",
                    "midi": 65,
                    "time": 108.08350299999985,
                    "velocity": 0.4094488188976378,
                    "duration": 0.3135884999999945
                },
                {
                    "name": "G#3",
                    "midi": 56,
                    "time": 108.18803249999985,
                    "velocity": 0.2125984251968504,
                    "duration": 0.10452949999999817
                },
                {
                    "name": "B3",
                    "midi": 59,
                    "time": 108.29256199999985,
                    "velocity": 0.2125984251968504,
                    "duration": 0.10452949999999817
                },
                {
                    "name": "G4",
                    "midi": 67,
                    "time": 108.39709149999985,
                    "velocity": 0.4566929133858268,
                    "duration": 0.3135884999999945
                },
                {
                    "name": "G#3",
                    "midi": 56,
                    "time": 108.50162099999984,
                    "velocity": 0.2283464566929134,
                    "duration": 0.10452949999999817
                },
                {
                    "name": "B3",
                    "midi": 59,
                    "time": 108.60615049999984,
                    "velocity": 0.23622047244094488,
                    "duration": 0.10452949999999817
                },
                {
                    "name": "G#4",
                    "midi": 68,
                    "time": 108.71067999999984,
                    "velocity": 0.48031496062992124,
                    "duration": 0.3135884999999945
                },
                {
                    "name": "G#3",
                    "midi": 56,
                    "time": 108.81520949999984,
                    "velocity": 0.25984251968503935,
                    "duration": 0.10452949999999817
                },
                {
                    "name": "D4",
                    "midi": 62,
                    "time": 108.91973899999984,
                    "velocity": 0.25984251968503935,
                    "duration": 0.10452949999999817
                },
                {
                    "name": "A4",
                    "midi": 69,
                    "time": 109.02426849999983,
                    "velocity": 0.48031496062992124,
                    "duration": 0.3135884999999945
                },
                {
                    "name": "G#3",
                    "midi": 56,
                    "time": 109.12879799999983,
                    "velocity": 0.25196850393700787,
                    "duration": 0.10452949999999817
                },
                {
                    "name": "D4",
                    "midi": 62,
                    "time": 109.23332749999983,
                    "velocity": 0.28346456692913385,
                    "duration": 0.10452949999999817
                },
                {
                    "name": "C5",
                    "midi": 72,
                    "time": 109.33785699999983,
                    "velocity": 0.5118110236220472,
                    "duration": 0.3135884999999945
                },
                {
                    "name": "G#3",
                    "midi": 56,
                    "time": 109.44238649999983,
                    "velocity": 0.2755905511811024,
                    "duration": 0.10452949999999817
                },
                {
                    "name": "D4",
                    "midi": 62,
                    "time": 109.54691599999983,
                    "velocity": 0.25984251968503935,
                    "duration": 0.10452949999999817
                },
                {
                    "name": "A#4",
                    "midi": 70,
                    "time": 109.65144549999982,
                    "velocity": 0.4094488188976378,
                    "duration": 0.3135884999999945
                },
                {
                    "name": "G#3",
                    "midi": 56,
                    "time": 109.75597499999982,
                    "velocity": 0.2125984251968504,
                    "duration": 0.10452949999999817
                },
                {
                    "name": "D4",
                    "midi": 62,
                    "time": 109.86050449999982,
                    "velocity": 0.2125984251968504,
                    "duration": 0.10452949999999817
                },
                {
                    "name": "G4",
                    "midi": 67,
                    "time": 109.96503399999982,
                    "velocity": 0.3858267716535433,
                    "duration": 1.254353999999978
                },
                {
                    "name": "G3",
                    "midi": 55,
                    "time": 110.06956349999982,
                    "velocity": 0.2204724409448819,
                    "duration": 0.10452949999999817
                },
                {
                    "name": "A#3",
                    "midi": 58,
                    "time": 110.17409299999981,
                    "velocity": 0.2204724409448819,
                    "duration": 0.10452949999999817
                },
                {
                    "name": "F4",
                    "midi": 65,
                    "time": 110.27862249999981,
                    "velocity": 0.3543307086614173,
                    "duration": 0.3135884999999945
                },
                {
                    "name": "G3",
                    "midi": 55,
                    "time": 110.38315199999981,
                    "velocity": 0.2047244094488189,
                    "duration": 0.10452949999999817
                },
                {
                    "name": "A#3",
                    "midi": 58,
                    "time": 110.48768149999981,
                    "velocity": 0.2047244094488189,
                    "duration": 0.10452949999999817
                },
                {
                    "name": "D#4",
                    "midi": 63,
                    "time": 110.5922109999998,
                    "velocity": 0.3543307086614173,
                    "duration": 0.3135884999999945
                },
                {
                    "name": "G3",
                    "midi": 55,
                    "time": 110.6967404999998,
                    "velocity": 0.1968503937007874,
                    "duration": 0.10452949999999817
                },
                {
                    "name": "A#3",
                    "midi": 58,
                    "time": 110.8012699999998,
                    "velocity": 0.2047244094488189,
                    "duration": 0.10452949999999817
                },
                {
                    "name": "D4",
                    "midi": 62,
                    "time": 110.9057994999998,
                    "velocity": 0.3543307086614173,
                    "duration": 0.3135884999999945
                },
                {
                    "name": "G3",
                    "midi": 55,
                    "time": 111.0103289999998,
                    "velocity": 0.2047244094488189,
                    "duration": 0.10452949999999817
                },
                {
                    "name": "A#3",
                    "midi": 58,
                    "time": 111.1148584999998,
                    "velocity": 0.2047244094488189,
                    "duration": 0.10452949999999817
                },
                {
                    "name": "G4",
                    "midi": 67,
                    "time": 111.2193879999998,
                    "velocity": 0.41732283464566927,
                    "duration": 0.627176999999989
                },
                {
                    "name": "G3",
                    "midi": 55,
                    "time": 111.3239174999998,
                    "velocity": 0.2204724409448819,
                    "duration": 0.10452949999999817
                },
                {
                    "name": "A#3",
                    "midi": 58,
                    "time": 111.42844699999979,
                    "velocity": 0.2204724409448819,
                    "duration": 0.10452949999999817
                },
                {
                    "name": "C4",
                    "midi": 60,
                    "time": 111.53297649999979,
                    "velocity": 0.3464566929133858,
                    "duration": 0.3135884999999945
                },
                {
                    "name": "G3",
                    "midi": 55,
                    "time": 111.63750599999979,
                    "velocity": 0.1968503937007874,
                    "duration": 0.10452949999999817
                },
                {
                    "name": "A3",
                    "midi": 57,
                    "time": 111.74203549999979,
                    "velocity": 0.1968503937007874,
                    "duration": 0.10452949999999817
                },
                {
                    "name": "G4",
                    "midi": 67,
                    "time": 111.84656499999979,
                    "velocity": 0.3858267716535433,
                    "duration": 0.627176999999989
                },
                {
                    "name": "G3",
                    "midi": 55,
                    "time": 111.95109449999978,
                    "velocity": 0.2125984251968504,
                    "duration": 0.10452949999999817
                },
                {
                    "name": "A#3",
                    "midi": 58,
                    "time": 112.05562399999978,
                    "velocity": 0.2125984251968504,
                    "duration": 0.10452949999999817
                },
                {
                    "name": "D#4",
                    "midi": 63,
                    "time": 112.16015349999978,
                    "velocity": 0.29133858267716534,
                    "duration": 0.10452949999999817
                },
                {
                    "name": "G3",
                    "midi": 55,
                    "time": 112.26468299999978,
                    "velocity": 0.1968503937007874,
                    "duration": 0.10452949999999817
                },
                {
                    "name": "A#3",
                    "midi": 58,
                    "time": 112.36921249999978,
                    "velocity": 0.1968503937007874,
                    "duration": 0.10452949999999817
                },
                {
                    "name": "G4",
                    "midi": 67,
                    "time": 112.47374199999977,
                    "velocity": 0.4409448818897638,
                    "duration": 0.3135884999999945
                },
                {
                    "name": "A3",
                    "midi": 57,
                    "time": 112.57827149999977,
                    "velocity": 0.2204724409448819,
                    "duration": 0.10452949999999817
                },
                {
                    "name": "C4",
                    "midi": 60,
                    "time": 112.68280099999977,
                    "velocity": 0.2204724409448819,
                    "duration": 0.10452949999999817
                },
                {
                    "name": "F#4",
                    "midi": 66,
                    "time": 112.78733049999977,
                    "velocity": 0.4409448818897638,
                    "duration": 0.3135884999999945
                },
                {
                    "name": "A3",
                    "midi": 57,
                    "time": 112.89185999999977,
                    "velocity": 0.25196850393700787,
                    "duration": 0.10452949999999817
                },
                {
                    "name": "C4",
                    "midi": 60,
                    "time": 112.99638949999976,
                    "velocity": 0.25196850393700787,
                    "duration": 0.10452949999999817
                },
                {
                    "name": "A#4",
                    "midi": 70,
                    "time": 113.10091899999976,
                    "velocity": 0.49606299212598426,
                    "duration": 0.3135884999999945
                },
                {
                    "name": "C4",
                    "midi": 60,
                    "time": 113.20544849999976,
                    "velocity": 0.23622047244094488,
                    "duration": 0.10452949999999817
                },
                {
                    "name": "D4",
                    "midi": 62,
                    "time": 113.30997799999976,
                    "velocity": 0.25984251968503935,
                    "duration": 0.10452949999999817
                },
                {
                    "name": "A4",
                    "midi": 69,
                    "time": 113.41450749999976,
                    "velocity": 0.4881889763779528,
                    "duration": 0.3135884999999945
                },
                {
                    "name": "C4",
                    "midi": 60,
                    "time": 113.51903699999976,
                    "velocity": 0.2755905511811024,
                    "duration": 0.10452949999999817
                },
                {
                    "name": "D4",
                    "midi": 62,
                    "time": 113.62356649999975,
                    "velocity": 0.2755905511811024,
                    "duration": 0.10452949999999817
                },
                {
                    "name": "C5",
                    "midi": 72,
                    "time": 113.72809599999975,
                    "velocity": 0.5354330708661418,
                    "duration": 0.3135884999999945
                },
                {
                    "name": "A#3",
                    "midi": 58,
                    "time": 113.83262549999975,
                    "velocity": 0.30708661417322836,
                    "duration": 0.10452949999999817
                },
                {
                    "name": "D4",
                    "midi": 62,
                    "time": 113.93715499999975,
                    "velocity": 0.31496062992125984,
                    "duration": 0.10452949999999817
                },
                {
                    "name": "A#4",
                    "midi": 70,
                    "time": 114.04168449999975,
                    "velocity": 0.5275590551181102,
                    "duration": 0.3135884999999945
                },
                {
                    "name": "A#3",
                    "midi": 58,
                    "time": 114.14621399999974,
                    "velocity": 0.28346456692913385,
                    "duration": 0.10452949999999817
                },
                {
                    "name": "D4",
                    "midi": 62,
                    "time": 114.25074349999974,
                    "velocity": 0.31496062992125984,
                    "duration": 0.10452949999999817
                },
                {
                    "name": "D5",
                    "midi": 74,
                    "time": 114.35527299999974,
                    "velocity": 0.5669291338582677,
                    "duration": 0.3135884999999945
                },
                {
                    "name": "D4",
                    "midi": 62,
                    "time": 114.45980249999974,
                    "velocity": 0.3228346456692913,
                    "duration": 0.10452949999999817
                },
                {
                    "name": "F4",
                    "midi": 65,
                    "time": 114.56433199999974,
                    "velocity": 0.2992125984251969,
                    "duration": 0.10452949999999817
                },
                {
                    "name": "C5",
                    "midi": 72,
                    "time": 114.66886149999974,
                    "velocity": 0.47244094488188976,
                    "duration": 0.3135884999999945
                },
                {
                    "name": "D4",
                    "midi": 62,
                    "time": 114.77339099999973,
                    "velocity": 0.25984251968503935,
                    "duration": 0.10452949999999817
                },
                {
                    "name": "A#4",
                    "midi": 70,
                    "time": 114.87792049999973,
                    "velocity": 0.25984251968503935,
                    "duration": 0.10452949999999817
                },
                {
                    "name": "G5",
                    "midi": 79,
                    "time": 114.98244999999973,
                    "velocity": 0.49606299212598426,
                    "duration": 1.254353999999978
                },
                {
                    "name": "G4",
                    "midi": 67,
                    "time": 115.08697949999973,
                    "velocity": 0.3700787401574803,
                    "duration": 0.10452949999999817
                },
                {
                    "name": "A#4",
                    "midi": 70,
                    "time": 115.19150899999973,
                    "velocity": 0.3700787401574803,
                    "duration": 0.10452949999999817
                },
                {
                    "name": "F5",
                    "midi": 77,
                    "time": 115.29603849999972,
                    "velocity": 0.4566929133858268,
                    "duration": 0.3135884999999945
                },
                {
                    "name": "G4",
                    "midi": 67,
                    "time": 115.40056799999972,
                    "velocity": 0.3464566929133858,
                    "duration": 0.10452949999999817
                },
                {
                    "name": "A#4",
                    "midi": 70,
                    "time": 115.50509749999972,
                    "velocity": 0.3464566929133858,
                    "duration": 0.10452949999999817
                },
                {
                    "name": "D#5",
                    "midi": 75,
                    "time": 115.60962699999972,
                    "velocity": 0.44881889763779526,
                    "duration": 0.3135884999999945
                },
                {
                    "name": "G4",
                    "midi": 67,
                    "time": 115.71415649999972,
                    "velocity": 0.33070866141732286,
                    "duration": 0.10452949999999817
                },
                {
                    "name": "A#4",
                    "midi": 70,
                    "time": 115.81868599999972,
                    "velocity": 0.3464566929133858,
                    "duration": 0.10452949999999817
                },
                {
                    "name": "D5",
                    "midi": 74,
                    "time": 115.92321549999971,
                    "velocity": 0.44881889763779526,
                    "duration": 0.3135884999999945
                },
                {
                    "name": "G4",
                    "midi": 67,
                    "time": 116.02774499999971,
                    "velocity": 0.3464566929133858,
                    "duration": 0.10452949999999817
                },
                {
                    "name": "A#4",
                    "midi": 70,
                    "time": 116.13227449999971,
                    "velocity": 0.3464566929133858,
                    "duration": 0.10452949999999817
                },
                {
                    "name": "G5",
                    "midi": 79,
                    "time": 116.23680399999971,
                    "velocity": 0.5275590551181102,
                    "duration": 0.627176999999989
                },
                {
                    "name": "G4",
                    "midi": 67,
                    "time": 116.3413334999997,
                    "velocity": 0.3700787401574803,
                    "duration": 0.10452949999999817
                },
                {
                    "name": "A#4",
                    "midi": 70,
                    "time": 116.4458629999997,
                    "velocity": 0.3700787401574803,
                    "duration": 0.10452949999999817
                },
                {
                    "name": "C5",
                    "midi": 72,
                    "time": 116.5503924999997,
                    "velocity": 0.4409448818897638,
                    "duration": 0.3135884999999945
                },
                {
                    "name": "G4",
                    "midi": 67,
                    "time": 116.6549219999997,
                    "velocity": 0.33070866141732286,
                    "duration": 0.10452949999999817
                },
                {
                    "name": "A4",
                    "midi": 69,
                    "time": 116.7594514999997,
                    "velocity": 0.33070866141732286,
                    "duration": 0.10452949999999817
                },
                {
                    "name": "G5",
                    "midi": 79,
                    "time": 116.8639809999997,
                    "velocity": 0.49606299212598426,
                    "duration": 0.627176999999989
                },
                {
                    "name": "G4",
                    "midi": 67,
                    "time": 116.9685104999997,
                    "velocity": 0.3543307086614173,
                    "duration": 0.10452949999999817
                },
                {
                    "name": "A#4",
                    "midi": 70,
                    "time": 117.0730399999997,
                    "velocity": 0.3543307086614173,
                    "duration": 0.10452949999999817
                },
                {
                    "name": "D#5",
                    "midi": 75,
                    "time": 117.17756949999969,
                    "velocity": 0.44881889763779526,
                    "duration": 0.10452949999999817
                },
                {
                    "name": "G4",
                    "midi": 67,
                    "time": 117.28209899999969,
                    "velocity": 0.33070866141732286,
                    "duration": 0.10452949999999817
                },
                {
                    "name": "A#4",
                    "midi": 70,
                    "time": 117.38662849999969,
                    "velocity": 0.33070866141732286,
                    "duration": 0.10452949999999817
                },
                {
                    "name": "G4",
                    "midi": 67,
                    "time": 117.49115799999969,
                    "velocity": 0.3700787401574803,
                    "duration": 0.10452949999999817
                },
                {
                    "name": "G5",
                    "midi": 79,
                    "time": 117.49115799999969,
                    "velocity": 0.49606299212598426,
                    "duration": 0.3135884999999945
                },
                {
                    "name": "G#4",
                    "midi": 68,
                    "time": 117.59568749999968,
                    "velocity": 0.3700787401574803,
                    "duration": 0.10452949999999817
                },
                {
                    "name": "B4",
                    "midi": 71,
                    "time": 117.70021699999968,
                    "velocity": 0.3700787401574803,
                    "duration": 0.10452949999999817
                },
                {
                    "name": "E4",
                    "midi": 64,
                    "time": 117.80474649999968,
                    "velocity": 0.3543307086614173,
                    "duration": 0.10452949999999817
                },
                {
                    "name": "E5",
                    "midi": 76,
                    "time": 117.80474649999968,
                    "velocity": 0.4566929133858268,
                    "duration": 0.3135884999999945
                },
                {
                    "name": "G#4",
                    "midi": 68,
                    "time": 117.90927599999968,
                    "velocity": 0.3543307086614173,
                    "duration": 0.10452949999999817
                },
                {
                    "name": "B4",
                    "midi": 71,
                    "time": 118.01380549999968,
                    "velocity": 0.3543307086614173,
                    "duration": 0.10452949999999817
                },
                {
                    "name": "F4",
                    "midi": 65,
                    "time": 118.11833499999968,
                    "velocity": 0.3543307086614173,
                    "duration": 0.10452949999999817
                },
                {
                    "name": "F5",
                    "midi": 77,
                    "time": 118.11833499999968,
                    "velocity": 0.5196850393700787,
                    "duration": 0.3135884999999945
                },
                {
                    "name": "G#4",
                    "midi": 68,
                    "time": 118.22286449999967,
                    "velocity": 0.3543307086614173,
                    "duration": 0.10452949999999817
                },
                {
                    "name": "B4",
                    "midi": 71,
                    "time": 118.32739399999967,
                    "velocity": 0.3543307086614173,
                    "duration": 0.10452949999999817
                },
                {
                    "name": "G4",
                    "midi": 67,
                    "time": 118.43192349999967,
                    "velocity": 0.3779527559055118,
                    "duration": 0.10452949999999817
                },
                {
                    "name": "G5",
                    "midi": 79,
                    "time": 118.43192349999967,
                    "velocity": 0.5590551181102362,
                    "duration": 0.3135884999999945
                },
                {
                    "name": "B4",
                    "midi": 71,
                    "time": 118.53645299999967,
                    "velocity": 0.3779527559055118,
                    "duration": 0.10452949999999817
                },
                {
                    "name": "D5",
                    "midi": 74,
                    "time": 118.64098249999967,
                    "velocity": 0.3937007874015748,
                    "duration": 0.10452949999999817
                },
                {
                    "name": "G#4",
                    "midi": 68,
                    "time": 118.74551199999966,
                    "velocity": 0.4251968503937008,
                    "duration": 0.10452949999999817
                },
                {
                    "name": "G#5",
                    "midi": 80,
                    "time": 118.74551199999966,
                    "velocity": 0.5905511811023622,
                    "duration": 0.3135884999999945
                },
                {
                    "name": "D5",
                    "midi": 74,
                    "time": 118.85004149999966,
                    "velocity": 0.4251968503937008,
                    "duration": 0.10452949999999817
                },
                {
                    "name": "F5",
                    "midi": 77,
                    "time": 118.95457099999966,
                    "velocity": 0.4251968503937008,
                    "duration": 0.10452949999999817
                },
                {
                    "name": "A4",
                    "midi": 69,
                    "time": 119.05910049999966,
                    "velocity": 0.4251968503937008,
                    "duration": 0.10452949999999817
                },
                {
                    "name": "A5",
                    "midi": 81,
                    "time": 119.05910049999966,
                    "velocity": 0.5905511811023622,
                    "duration": 0.3135884999999945
                },
                {
                    "name": "D5",
                    "midi": 74,
                    "time": 119.16362999999966,
                    "velocity": 0.4251968503937008,
                    "duration": 0.10452949999999817
                },
                {
                    "name": "F5",
                    "midi": 77,
                    "time": 119.26815949999965,
                    "velocity": 0.47244094488188976,
                    "duration": 0.10452949999999817
                },
                {
                    "name": "C5",
                    "midi": 72,
                    "time": 119.37268899999965,
                    "velocity": 0.44881889763779526,
                    "duration": 0.10452949999999817
                },
                {
                    "name": "C6",
                    "midi": 84,
                    "time": 119.37268899999965,
                    "velocity": 0.6299212598425197,
                    "duration": 0.3135884999999945
                },
                {
                    "name": "D5",
                    "midi": 74,
                    "time": 119.47721849999965,
                    "velocity": 0.44881889763779526,
                    "duration": 0.10452949999999817
                },
                {
                    "name": "F5",
                    "midi": 77,
                    "time": 119.58174799999965,
                    "velocity": 0.4251968503937008,
                    "duration": 0.10452949999999817
                },
                {
                    "name": "A#4",
                    "midi": 70,
                    "time": 119.68627749999965,
                    "velocity": 0.3543307086614173,
                    "duration": 0.10452949999999817
                },
                {
                    "name": "A#5",
                    "midi": 82,
                    "time": 119.68627749999965,
                    "velocity": 0.49606299212598426,
                    "duration": 0.3135884999999945
                },
                {
                    "name": "D5",
                    "midi": 74,
                    "time": 119.79080699999965,
                    "velocity": 0.3543307086614173,
                    "duration": 0.10452949999999817
                },
                {
                    "name": "F5",
                    "midi": 77,
                    "time": 119.89533649999964,
                    "velocity": 0.3543307086614173,
                    "duration": 0.10452949999999817
                },
                {
                    "name": "G5",
                    "midi": 79,
                    "time": 119.99986599999964,
                    "velocity": 0.49606299212598426,
                    "duration": 1.254353999999978
                },
                {
                    "name": "G4",
                    "midi": 67,
                    "time": 120.10439549999964,
                    "velocity": 0.3700787401574803,
                    "duration": 0.10452949999999817
                },
                {
                    "name": "A#4",
                    "midi": 70,
                    "time": 120.20892499999964,
                    "velocity": 0.3700787401574803,
                    "duration": 0.10452949999999817
                },
                {
                    "name": "F5",
                    "midi": 77,
                    "time": 120.31345449999964,
                    "velocity": 0.4566929133858268,
                    "duration": 0.3135884999999945
                },
                {
                    "name": "G4",
                    "midi": 67,
                    "time": 120.41798399999963,
                    "velocity": 0.3464566929133858,
                    "duration": 0.10452949999999817
                },
                {
                    "name": "A#4",
                    "midi": 70,
                    "time": 120.52251349999963,
                    "velocity": 0.3464566929133858,
                    "duration": 0.10452949999999817
                },
                {
                    "name": "D#5",
                    "midi": 75,
                    "time": 120.62704299999963,
                    "velocity": 0.44881889763779526,
                    "duration": 0.3135884999999945
                },
                {
                    "name": "G4",
                    "midi": 67,
                    "time": 120.73157249999963,
                    "velocity": 0.33070866141732286,
                    "duration": 0.10452949999999817
                },
                {
                    "name": "A#4",
                    "midi": 70,
                    "time": 120.83610199999963,
                    "velocity": 0.3464566929133858,
                    "duration": 0.10452949999999817
                },
                {
                    "name": "D5",
                    "midi": 74,
                    "time": 120.94063149999963,
                    "velocity": 0.44881889763779526,
                    "duration": 0.3135884999999945
                },
                {
                    "name": "G4",
                    "midi": 67,
                    "time": 121.04516099999962,
                    "velocity": 0.3464566929133858,
                    "duration": 0.10452949999999817
                },
                {
                    "name": "A#4",
                    "midi": 70,
                    "time": 121.14969049999962,
                    "velocity": 0.3464566929133858,
                    "duration": 0.10452949999999817
                },
                {
                    "name": "G5",
                    "midi": 79,
                    "time": 121.25421999999962,
                    "velocity": 0.5275590551181102,
                    "duration": 0.627176999999989
                },
                {
                    "name": "G4",
                    "midi": 67,
                    "time": 121.35874949999962,
                    "velocity": 0.3700787401574803,
                    "duration": 0.10452949999999817
                },
                {
                    "name": "A#4",
                    "midi": 70,
                    "time": 121.46327899999962,
                    "velocity": 0.3700787401574803,
                    "duration": 0.10452949999999817
                },
                {
                    "name": "C5",
                    "midi": 72,
                    "time": 121.56780849999961,
                    "velocity": 0.4409448818897638,
                    "duration": 0.3135884999999945
                },
                {
                    "name": "G4",
                    "midi": 67,
                    "time": 121.67233799999961,
                    "velocity": 0.33070866141732286,
                    "duration": 0.10452949999999817
                },
                {
                    "name": "A4",
                    "midi": 69,
                    "time": 121.77686749999961,
                    "velocity": 0.33070866141732286,
                    "duration": 0.10452949999999817
                },
                {
                    "name": "G5",
                    "midi": 79,
                    "time": 121.88139699999961,
                    "velocity": 0.49606299212598426,
                    "duration": 0.627176999999989
                },
                {
                    "name": "G4",
                    "midi": 67,
                    "time": 121.98592649999961,
                    "velocity": 0.3543307086614173,
                    "duration": 0.10452949999999817
                },
                {
                    "name": "A#4",
                    "midi": 70,
                    "time": 122.0904559999996,
                    "velocity": 0.3543307086614173,
                    "duration": 0.10452949999999817
                },
                {
                    "name": "D#5",
                    "midi": 75,
                    "time": 122.1949854999996,
                    "velocity": 0.44881889763779526,
                    "duration": 0.10452949999999817
                },
                {
                    "name": "G4",
                    "midi": 67,
                    "time": 122.2995149999996,
                    "velocity": 0.33070866141732286,
                    "duration": 0.10452949999999817
                },
                {
                    "name": "A#4",
                    "midi": 70,
                    "time": 122.4040444999996,
                    "velocity": 0.33070866141732286,
                    "duration": 0.10452949999999817
                },
                {
                    "name": "G4",
                    "midi": 67,
                    "time": 122.5085739999996,
                    "velocity": 0.3700787401574803,
                    "duration": 0.10452949999999817
                },
                {
                    "name": "G5",
                    "midi": 79,
                    "time": 122.5085739999996,
                    "velocity": 0.5669291338582677,
                    "duration": 0.3135884999999945
                },
                {
                    "name": "A4",
                    "midi": 69,
                    "time": 122.6131034999996,
                    "velocity": 0.3700787401574803,
                    "duration": 0.10452949999999817
                },
                {
                    "name": "C5",
                    "midi": 72,
                    "time": 122.7176329999996,
                    "velocity": 0.3700787401574803,
                    "duration": 0.10452949999999817
                },
                {
                    "name": "F#4",
                    "midi": 66,
                    "time": 122.82216249999959,
                    "velocity": 0.4251968503937008,
                    "duration": 0.10452949999999817
                },
                {
                    "name": "F#5",
                    "midi": 78,
                    "time": 122.82216249999959,
                    "velocity": 0.5590551181102362,
                    "duration": 0.3135884999999945
                },
                {
                    "name": "A4",
                    "midi": 69,
                    "time": 122.92669199999959,
                    "velocity": 0.4251968503937008,
                    "duration": 0.10452949999999817
                },
                {
                    "name": "C5",
                    "midi": 72,
                    "time": 123.03122149999959,
                    "velocity": 0.4251968503937008,
                    "duration": 0.10452949999999817
                },
                {
                    "name": "D#5",
                    "midi": 75,
                    "time": 123.13575099999959,
                    "velocity": 0.4094488188976378,
                    "duration": 0.10452949999999817
                },
                {
                    "name": "D#6",
                    "midi": 87,
                    "time": 123.13575099999959,
                    "velocity": 0.6456692913385826,
                    "duration": 0.3135884999999945
                },
                {
                    "name": "F#5",
                    "midi": 78,
                    "time": 123.24028049999959,
                    "velocity": 0.4015748031496063,
                    "duration": 0.10452949999999817
                },
                {
                    "name": "A5",
                    "midi": 81,
                    "time": 123.34480999999958,
                    "velocity": 0.4251968503937008,
                    "duration": 0.10452949999999817
                },
                {
                    "name": "D5",
                    "midi": 74,
                    "time": 123.44933949999958,
                    "velocity": 0.3937007874015748,
                    "duration": 0.10452949999999817
                },
                {
                    "name": "D6",
                    "midi": 86,
                    "time": 123.44933949999958,
                    "velocity": 0.6377952755905512,
                    "duration": 0.3135884999999945
                },
                {
                    "name": "F#5",
                    "midi": 78,
                    "time": 123.55386899999958,
                    "velocity": 0.44881889763779526,
                    "duration": 0.10452949999999817
                },
                {
                    "name": "A5",
                    "midi": 81,
                    "time": 123.65839849999958,
                    "velocity": 0.4566929133858268,
                    "duration": 0.10452949999999817
                },
                {
                    "name": "D5",
                    "midi": 74,
                    "time": 123.76292799999958,
                    "velocity": 0.3937007874015748,
                    "duration": 0.10452949999999817
                },
                {
                    "name": "D6",
                    "midi": 86,
                    "time": 123.76292799999958,
                    "velocity": 0.6535433070866141,
                    "duration": 0.3135884999999945
                },
                {
                    "name": "G5",
                    "midi": 79,
                    "time": 123.86745749999957,
                    "velocity": 0.49606299212598426,
                    "duration": 0.10452949999999817
                },
                {
                    "name": "B5",
                    "midi": 83,
                    "time": 123.97198699999957,
                    "velocity": 0.4881889763779528,
                    "duration": 0.10452949999999817
                },
                {
                    "name": "B4",
                    "midi": 71,
                    "time": 124.07651649999957,
                    "velocity": 0.3779527559055118,
                    "duration": 0.10452949999999817
                },
                {
                    "name": "B5",
                    "midi": 83,
                    "time": 124.07651649999957,
                    "velocity": 0.5511811023622047,
                    "duration": 0.3135884999999945
                },
                {
                    "name": "D5",
                    "midi": 74,
                    "time": 124.18104599999957,
                    "velocity": 0.47244094488188976,
                    "duration": 0.10452949999999817
                },
                {
                    "name": "G5",
                    "midi": 79,
                    "time": 124.28557549999957,
                    "velocity": 0.48031496062992124,
                    "duration": 0.10452949999999817
                },
                {
                    "name": "G4",
                    "midi": 67,
                    "time": 124.39010499999956,
                    "velocity": 0.3700787401574803,
                    "duration": 0.10452949999999817
                },
                {
                    "name": "G5",
                    "midi": 79,
                    "time": 124.39010499999956,
                    "velocity": 0.5196850393700787,
                    "duration": 0.3135884999999945
                },
                {
                    "name": "B4",
                    "midi": 71,
                    "time": 124.49463449999956,
                    "velocity": 0.4251968503937008,
                    "duration": 0.10452949999999817
                },
                {
                    "name": "D5",
                    "midi": 74,
                    "time": 124.59916399999956,
                    "velocity": 0.4251968503937008,
                    "duration": 0.10452949999999817
                },
                {
                    "name": "G4",
                    "midi": 67,
                    "time": 124.70369349999956,
                    "velocity": 0.36220472440944884,
                    "duration": 0.10452949999999817
                },
                {
                    "name": "G5",
                    "midi": 79,
                    "time": 124.70369349999956,
                    "velocity": 0.5196850393700787,
                    "duration": 0.3135884999999945
                },
                {
                    "name": "B4",
                    "midi": 71,
                    "time": 124.80822299999956,
                    "velocity": 0.4251968503937008,
                    "duration": 0.10452949999999817
                },
                {
                    "name": "D5",
                    "midi": 74,
                    "time": 124.91275249999956,
                    "velocity": 0.3937007874015748,
                    "duration": 0.10452949999999817
                },
                {
                    "name": "G5",
                    "midi": 79,
                    "time": 125.01728199999955,
                    "velocity": 0.49606299212598426,
                    "duration": 1.254353999999978
                },
                {
                    "name": "G4",
                    "midi": 67,
                    "time": 125.12181149999955,
                    "velocity": 0.3700787401574803,
                    "duration": 0.10452949999999817
                },
                {
                    "name": "B4",
                    "midi": 71,
                    "time": 125.22634099999955,
                    "velocity": 0.3700787401574803,
                    "duration": 0.10452949999999817
                },
                {
                    "name": "F#5",
                    "midi": 78,
                    "time": 125.33087049999955,
                    "velocity": 0.4566929133858268,
                    "duration": 0.3135884999999945
                },
                {
                    "name": "G4",
                    "midi": 67,
                    "time": 125.43539999999955,
                    "velocity": 0.3464566929133858,
                    "duration": 0.10452949999999817
                },
                {
                    "name": "B4",
                    "midi": 71,
                    "time": 125.53992949999954,
                    "velocity": 0.3464566929133858,
                    "duration": 0.10452949999999817
                },
                {
                    "name": "E5",
                    "midi": 76,
                    "time": 125.64445899999954,
                    "velocity": 0.44881889763779526,
                    "duration": 0.3135884999999945
                },
                {
                    "name": "G4",
                    "midi": 67,
                    "time": 125.74898849999954,
                    "velocity": 0.33070866141732286,
                    "duration": 0.10452949999999817
                },
                {
                    "name": "B4",
                    "midi": 71,
                    "time": 125.85351799999954,
                    "velocity": 0.3464566929133858,
                    "duration": 0.10452949999999817
                },
                {
                    "name": "D5",
                    "midi": 74,
                    "time": 125.95804749999954,
                    "velocity": 0.44881889763779526,
                    "duration": 0.3135884999999945
                },
                {
                    "name": "G4",
                    "midi": 67,
                    "time": 126.06257699999954,
                    "velocity": 0.3464566929133858,
                    "duration": 0.10452949999999817
                },
                {
                    "name": "B4",
                    "midi": 71,
                    "time": 126.16710649999953,
                    "velocity": 0.3464566929133858,
                    "duration": 0.10452949999999817
                },
                {
                    "name": "G5",
                    "midi": 79,
                    "time": 126.27163599999953,
                    "velocity": 0.5275590551181102,
                    "duration": 0.627176999999989
                },
                {
                    "name": "G4",
                    "midi": 67,
                    "time": 126.37616549999953,
                    "velocity": 0.3700787401574803,
                    "duration": 0.10452949999999817
                },
                {
                    "name": "B4",
                    "midi": 71,
                    "time": 126.48069499999953,
                    "velocity": 0.3700787401574803,
                    "duration": 0.10452949999999817
                },
                {
                    "name": "C5",
                    "midi": 72,
                    "time": 126.58522449999953,
                    "velocity": 0.4409448818897638,
                    "duration": 0.3135884999999945
                },
                {
                    "name": "G4",
                    "midi": 67,
                    "time": 126.68975399999952,
                    "velocity": 0.33070866141732286,
                    "duration": 0.10452949999999817
                },
                {
                    "name": "B4",
                    "midi": 71,
                    "time": 126.79428349999952,
                    "velocity": 0.33070866141732286,
                    "duration": 0.10452949999999817
                },
                {
                    "name": "G5",
                    "midi": 79,
                    "time": 126.89881299999952,
                    "velocity": 0.49606299212598426,
                    "duration": 0.627176999999989
                },
                {
                    "name": "G4",
                    "midi": 67,
                    "time": 127.00334249999952,
                    "velocity": 0.3543307086614173,
                    "duration": 0.10452949999999817
                },
                {
                    "name": "B4",
                    "midi": 71,
                    "time": 127.10787199999952,
                    "velocity": 0.3543307086614173,
                    "duration": 0.10452949999999817
                },
                {
                    "name": "E5",
                    "midi": 76,
                    "time": 127.21240149999952,
                    "velocity": 0.44881889763779526,
                    "duration": 0.10452949999999817
                },
                {
                    "name": "G4",
                    "midi": 67,
                    "time": 127.31693099999951,
                    "velocity": 0.33070866141732286,
                    "duration": 0.10452949999999817
                },
                {
                    "name": "B4",
                    "midi": 71,
                    "time": 127.42146049999951,
                    "velocity": 0.33070866141732286,
                    "duration": 0.10452949999999817
                },
                {
                    "name": "G4",
                    "midi": 67,
                    "time": 127.52598999999951,
                    "velocity": 0.3700787401574803,
                    "duration": 0.10452949999999817
                },
                {
                    "name": "G5",
                    "midi": 79,
                    "time": 127.52598999999951,
                    "velocity": 0.49606299212598426,
                    "duration": 0.3135884999999945
                },
                {
                    "name": "A4",
                    "midi": 69,
                    "time": 127.63051949999951,
                    "velocity": 0.3700787401574803,
                    "duration": 0.10452949999999817
                },
                {
                    "name": "D#5",
                    "midi": 75,
                    "time": 127.7350489999995,
                    "velocity": 0.3700787401574803,
                    "duration": 0.10452949999999817
                },
                {
                    "name": "F4",
                    "midi": 65,
                    "time": 127.8395784999995,
                    "velocity": 0.3543307086614173,
                    "duration": 0.10452949999999817
                },
                {
                    "name": "F5",
                    "midi": 77,
                    "time": 127.8395784999995,
                    "velocity": 0.4566929133858268,
                    "duration": 0.3135885000000087
                },
                {
                    "name": "A4",
                    "midi": 69,
                    "time": 127.9441079999995,
                    "velocity": 0.3543307086614173,
                    "duration": 0.10452949999999817
                },
                {
                    "name": "D#5",
                    "midi": 75,
                    "time": 128.0486374999995,
                    "velocity": 0.3543307086614173,
                    "duration": 0.10452950000001238
                },
                {
                    "name": "F#4",
                    "midi": 66,
                    "time": 128.1531669999995,
                    "velocity": 0.3543307086614173,
                    "duration": 0.10452950000001238
                },
                {
                    "name": "F#5",
                    "midi": 78,
                    "time": 128.1531669999995,
                    "velocity": 0.5196850393700787,
                    "duration": 0.31358850000003713
                },
                {
                    "name": "A4",
                    "midi": 69,
                    "time": 128.25769649999953,
                    "velocity": 0.3543307086614173,
                    "duration": 0.10452950000001238
                },
                {
                    "name": "D#5",
                    "midi": 75,
                    "time": 128.36222599999954,
                    "velocity": 0.3543307086614173,
                    "duration": 0.10452950000001238
                },
                {
                    "name": "G4",
                    "midi": 67,
                    "time": 128.46675549999955,
                    "velocity": 0.3779527559055118,
                    "duration": 0.10452950000001238
                },
                {
                    "name": "G5",
                    "midi": 79,
                    "time": 128.46675549999955,
                    "velocity": 0.5669291338582677,
                    "duration": 0.31358850000003713
                },
                {
                    "name": "A4",
                    "midi": 69,
                    "time": 128.57128499999956,
                    "velocity": 0.3779527559055118,
                    "duration": 0.10452950000001238
                },
                {
                    "name": "D#5",
                    "midi": 75,
                    "time": 128.67581449999957,
                    "velocity": 0.3937007874015748,
                    "duration": 0.10452950000001238
                },
                {
                    "name": "G#4",
                    "midi": 68,
                    "time": 128.7803439999996,
                    "velocity": 0.4251968503937008,
                    "duration": 0.10452950000001238
                },
                {
                    "name": "G#5",
                    "midi": 80,
                    "time": 128.7803439999996,
                    "velocity": 0.5905511811023622,
                    "duration": 0.31358850000003713
                },
                {
                    "name": "D#5",
                    "midi": 75,
                    "time": 128.8848734999996,
                    "velocity": 0.4251968503937008,
                    "duration": 0.10452950000001238
                },
                {
                    "name": "F#5",
                    "midi": 78,
                    "time": 128.9894029999996,
                    "velocity": 0.4251968503937008,
                    "duration": 0.10452950000001238
                },
                {
                    "name": "A4",
                    "midi": 69,
                    "time": 129.09393249999962,
                    "velocity": 0.4251968503937008,
                    "duration": 0.10452950000001238
                },
                {
                    "name": "A5",
                    "midi": 81,
                    "time": 129.09393249999962,
                    "velocity": 0.5905511811023622,
                    "duration": 0.31358850000003713
                },
                {
                    "name": "D#5",
                    "midi": 75,
                    "time": 129.19846199999964,
                    "velocity": 0.4251968503937008,
                    "duration": 0.10452950000001238
                },
                {
                    "name": "F#5",
                    "midi": 78,
                    "time": 129.30299149999965,
                    "velocity": 0.47244094488188976,
                    "duration": 0.10452950000001238
                },
                {
                    "name": "C5",
                    "midi": 72,
                    "time": 129.40752099999966,
                    "velocity": 0.44881889763779526,
                    "duration": 0.10452950000001238
                },
                {
                    "name": "C6",
                    "midi": 84,
                    "time": 129.40752099999966,
                    "velocity": 0.6299212598425197,
                    "duration": 0.31358850000003713
                },
                {
                    "name": "D#5",
                    "midi": 75,
                    "time": 129.51205049999967,
                    "velocity": 0.44881889763779526,
                    "duration": 0.10452950000001238
                },
                {
                    "name": "F#5",
                    "midi": 78,
                    "time": 129.6165799999997,
                    "velocity": 0.4251968503937008,
                    "duration": 0.10452950000001238
                },
                {
                    "name": "B4",
                    "midi": 71,
                    "time": 129.7211094999997,
                    "velocity": 0.3543307086614173,
                    "duration": 0.10452950000001238
                },
                {
                    "name": "B5",
                    "midi": 83,
                    "time": 129.7211094999997,
                    "velocity": 0.49606299212598426,
                    "duration": 0.31358850000003713
                },
                {
                    "name": "D#5",
                    "midi": 75,
                    "time": 129.8256389999997,
                    "velocity": 0.3543307086614173,
                    "duration": 0.10452950000001238
                },
                {
                    "name": "F#5",
                    "midi": 78,
                    "time": 129.93016849999972,
                    "velocity": 0.3543307086614173,
                    "duration": 0.10452950000001238
                },
                {
                    "name": "G5",
                    "midi": 79,
                    "time": 130.03469799999974,
                    "velocity": 0.49606299212598426,
                    "duration": 1.2543540000001485
                },
                {
                    "name": "G4",
                    "midi": 67,
                    "time": 130.13922749999975,
                    "velocity": 0.3700787401574803,
                    "duration": 0.10452950000001238
                },
                {
                    "name": "B4",
                    "midi": 71,
                    "time": 130.24375699999976,
                    "velocity": 0.3700787401574803,
                    "duration": 0.10452950000001238
                },
                {
                    "name": "F#5",
                    "midi": 78,
                    "time": 130.34828649999977,
                    "velocity": 0.4566929133858268,
                    "duration": 0.31358850000003713
                },
                {
                    "name": "G4",
                    "midi": 67,
                    "time": 130.45281599999979,
                    "velocity": 0.3464566929133858,
                    "duration": 0.10452950000001238
                },
                {
                    "name": "B4",
                    "midi": 71,
                    "time": 130.5573454999998,
                    "velocity": 0.3464566929133858,
                    "duration": 0.10452950000001238
                },
                {
                    "name": "E5",
                    "midi": 76,
                    "time": 130.6618749999998,
                    "velocity": 0.44881889763779526,
                    "duration": 0.31358850000003713
                },
                {
                    "name": "G4",
                    "midi": 67,
                    "time": 130.76640449999982,
                    "velocity": 0.33070866141732286,
                    "duration": 0.10452950000001238
                },
                {
                    "name": "B4",
                    "midi": 71,
                    "time": 130.87093399999983,
                    "velocity": 0.3464566929133858,
                    "duration": 0.10452950000001238
                },
                {
                    "name": "D5",
                    "midi": 74,
                    "time": 130.97546349999985,
                    "velocity": 0.44881889763779526,
                    "duration": 0.31358850000003713
                },
                {
                    "name": "G4",
                    "midi": 67,
                    "time": 131.07999299999986,
                    "velocity": 0.3464566929133858,
                    "duration": 0.10452950000001238
                },
                {
                    "name": "B4",
                    "midi": 71,
                    "time": 131.18452249999987,
                    "velocity": 0.3464566929133858,
                    "duration": 0.10452950000001238
                },
                {
                    "name": "G5",
                    "midi": 79,
                    "time": 131.28905199999988,
                    "velocity": 0.5275590551181102,
                    "duration": 0.6271770000000743
                },
                {
                    "name": "G4",
                    "midi": 67,
                    "time": 131.3935814999999,
                    "velocity": 0.3700787401574803,
                    "duration": 0.10452950000001238
                },
                {
                    "name": "B4",
                    "midi": 71,
                    "time": 131.4981109999999,
                    "velocity": 0.3700787401574803,
                    "duration": 0.10452950000001238
                },
                {
                    "name": "C5",
                    "midi": 72,
                    "time": 131.60264049999992,
                    "velocity": 0.4409448818897638,
                    "duration": 0.31358850000003713
                },
                {
                    "name": "G4",
                    "midi": 67,
                    "time": 131.70716999999993,
                    "velocity": 0.33070866141732286,
                    "duration": 0.10452950000001238
                },
                {
                    "name": "B4",
                    "midi": 71,
                    "time": 131.81169949999995,
                    "velocity": 0.33070866141732286,
                    "duration": 0.10452950000001238
                },
                {
                    "name": "G5",
                    "midi": 79,
                    "time": 131.91622899999996,
                    "velocity": 0.49606299212598426,
                    "duration": 0.6271770000000743
                },
                {
                    "name": "G4",
                    "midi": 67,
                    "time": 132.02075849999997,
                    "velocity": 0.3543307086614173,
                    "duration": 0.10452950000001238
                },
                {
                    "name": "B4",
                    "midi": 71,
                    "time": 132.12528799999998,
                    "velocity": 0.3543307086614173,
                    "duration": 0.10452950000001238
                },
                {
                    "name": "E5",
                    "midi": 76,
                    "time": 132.2298175,
                    "velocity": 0.44881889763779526,
                    "duration": 0.10452950000001238
                },
                {
                    "name": "G4",
                    "midi": 67,
                    "time": 132.334347,
                    "velocity": 0.33070866141732286,
                    "duration": 0.10452950000001238
                },
                {
                    "name": "B4",
                    "midi": 71,
                    "time": 132.43887650000002,
                    "velocity": 0.33070866141732286,
                    "duration": 0.10452950000001238
                },
                {
                    "name": "G4",
                    "midi": 67,
                    "time": 132.54340600000003,
                    "velocity": 0.3700787401574803,
                    "duration": 0.10452950000001238
                },
                {
                    "name": "G5",
                    "midi": 79,
                    "time": 132.54340600000003,
                    "velocity": 0.5669291338582677,
                    "duration": 0.31358850000003713
                },
                {
                    "name": "A4",
                    "midi": 69,
                    "time": 132.64793550000005,
                    "velocity": 0.3700787401574803,
                    "duration": 0.10452950000001238
                },
                {
                    "name": "C5",
                    "midi": 72,
                    "time": 132.75246500000006,
                    "velocity": 0.3700787401574803,
                    "duration": 0.10452950000001238
                },
                {
                    "name": "F4",
                    "midi": 65,
                    "time": 132.85699450000007,
                    "velocity": 0.5039370078740157,
                    "duration": 0.10452950000001238
                },
                {
                    "name": "F5",
                    "midi": 77,
                    "time": 132.85699450000007,
                    "velocity": 0.5039370078740157,
                    "duration": 0.31358850000003713
                },
                {
                    "name": "A4",
                    "midi": 69,
                    "time": 132.96152400000008,
                    "velocity": 0.4251968503937008,
                    "duration": 0.10452950000001238
                },
                {
                    "name": "C5",
                    "midi": 72,
                    "time": 133.0660535000001,
                    "velocity": 0.4251968503937008,
                    "duration": 0.10452950000001238
                },
                {
                    "name": "F#4",
                    "midi": 66,
                    "time": 133.1705830000001,
                    "velocity": 0.5354330708661418,
                    "duration": 0.10452950000001238
                },
                {
                    "name": "F#5",
                    "midi": 78,
                    "time": 133.1705830000001,
                    "velocity": 0.5354330708661418,
                    "duration": 0.31358850000003713
                },
                {
                    "name": "A4",
                    "midi": 69,
                    "time": 133.27511250000012,
                    "velocity": 0.4015748031496063,
                    "duration": 0.10452950000001238
                },
                {
                    "name": "C5",
                    "midi": 72,
                    "time": 133.37964200000013,
                    "velocity": 0.4251968503937008,
                    "duration": 0.10452950000001238
                },
                {
                    "name": "G4",
                    "midi": 67,
                    "time": 133.48417150000014,
                    "velocity": 0.5669291338582677,
                    "duration": 0.10452950000001238
                },
                {
                    "name": "G5",
                    "midi": 79,
                    "time": 133.48417150000014,
                    "velocity": 0.5669291338582677,
                    "duration": 0.31358850000003713
                },
                {
                    "name": "A4",
                    "midi": 69,
                    "time": 133.58870100000016,
                    "velocity": 0.44881889763779526,
                    "duration": 0.10452950000001238
                },
                {
                    "name": "C5",
                    "midi": 72,
                    "time": 133.69323050000017,
                    "velocity": 0.4566929133858268,
                    "duration": 0.10452950000001238
                },
                {
                    "name": "G#4",
                    "midi": 68,
                    "time": 133.79776000000018,
                    "velocity": 0.6062992125984252,
                    "duration": 0.10452950000001238
                },
                {
                    "name": "G#5",
                    "midi": 80,
                    "time": 133.79776000000018,
                    "velocity": 0.6062992125984252,
                    "duration": 0.31358850000003713
                },
                {
                    "name": "C5",
                    "midi": 72,
                    "time": 133.9022895000002,
                    "velocity": 0.47244094488188976,
                    "duration": 0.10452950000001238
                },
                {
                    "name": "F#5",
                    "midi": 78,
                    "time": 134.0068190000002,
                    "velocity": 0.47244094488188976,
                    "duration": 0.10452950000001238
                },
                {
                    "name": "A4",
                    "midi": 69,
                    "time": 134.11134850000022,
                    "velocity": 0.5669291338582677,
                    "duration": 0.10452950000001238
                },
                {
                    "name": "A5",
                    "midi": 81,
                    "time": 134.11134850000022,
                    "velocity": 0.5669291338582677,
                    "duration": 0.31358850000003713
                },
                {
                    "name": "C5",
                    "midi": 72,
                    "time": 134.21587800000023,
                    "velocity": 0.47244094488188976,
                    "duration": 0.10452950000001238
                },
                {
                    "name": "F#5",
                    "midi": 78,
                    "time": 134.32040750000024,
                    "velocity": 0.44881889763779526,
                    "duration": 0.10452950000001238
                },
                {
                    "name": "D#5",
                    "midi": 75,
                    "time": 134.42493700000026,
                    "velocity": 0.6220472440944882,
                    "duration": 0.10452950000001238
                },
                {
                    "name": "D#6",
                    "midi": 87,
                    "time": 134.42493700000026,
                    "velocity": 0.6220472440944882,
                    "duration": 0.31358850000003713
                },
                {
                    "name": "F#5",
                    "midi": 78,
                    "time": 134.52946650000027,
                    "velocity": 0.4251968503937008,
                    "duration": 0.10452950000001238
                },
                {
                    "name": "A5",
                    "midi": 81,
                    "time": 134.63399600000028,
                    "velocity": 0.4251968503937008,
                    "duration": 0.10452950000001238
                },
                {
                    "name": "D5",
                    "midi": 74,
                    "time": 134.7385255000003,
                    "velocity": 0.36220472440944884,
                    "duration": 0.10452950000001238
                },
                {
                    "name": "D6",
                    "midi": 86,
                    "time": 134.7385255000003,
                    "velocity": 0.5196850393700787,
                    "duration": 0.31358850000003713
                },
                {
                    "name": "F#5",
                    "midi": 78,
                    "time": 134.8430550000003,
                    "velocity": 0.4251968503937008,
                    "duration": 0.10452950000001238
                },
                {
                    "name": "A5",
                    "midi": 81,
                    "time": 134.94758450000032,
                    "velocity": 0.3937007874015748,
                    "duration": 0.10452950000001238
                },
                {
                    "name": "A#5",
                    "midi": 82,
                    "time": 135.05211400000033,
                    "velocity": 0.49606299212598426,
                    "duration": 1.2543540000001485
                },
                {
                    "name": "A#4",
                    "midi": 70,
                    "time": 135.15664350000034,
                    "velocity": 0.3700787401574803,
                    "duration": 0.10452950000001238
                },
                {
                    "name": "D5",
                    "midi": 74,
                    "time": 135.26117300000035,
                    "velocity": 0.3700787401574803,
                    "duration": 0.10452950000001238
                },
                {
                    "name": "A5",
                    "midi": 81,
                    "time": 135.36570250000037,
                    "velocity": 0.47244094488188976,
                    "duration": 0.31358850000003713
                },
                {
                    "name": "A#4",
                    "midi": 70,
                    "time": 135.47023200000038,
                    "velocity": 0.3937007874015748,
                    "duration": 0.10452950000001238
                },
                {
                    "name": "D5",
                    "midi": 74,
                    "time": 135.5747615000004,
                    "velocity": 0.3937007874015748,
                    "duration": 0.10452950000001238
                },
                {
                    "name": "G5",
                    "midi": 79,
                    "time": 135.6792910000004,
                    "velocity": 0.4881889763779528,
                    "duration": 0.31358850000003713
                },
                {
                    "name": "A#4",
                    "midi": 70,
                    "time": 135.78382050000042,
                    "velocity": 0.4015748031496063,
                    "duration": 0.10452950000001238
                },
                {
                    "name": "D5",
                    "midi": 74,
                    "time": 135.88835000000043,
                    "velocity": 0.4251968503937008,
                    "duration": 0.10452950000001238
                },
                {
                    "name": "F5",
                    "midi": 77,
                    "time": 135.99287950000044,
                    "velocity": 0.49606299212598426,
                    "duration": 0.31358850000003713
                },
                {
                    "name": "A#4",
                    "midi": 70,
                    "time": 136.09740900000045,
                    "velocity": 0.41732283464566927,
                    "duration": 0.10452950000001238
                },
                {
                    "name": "D#5",
                    "midi": 75,
                    "time": 136.20193850000047,
                    "velocity": 0.4330708661417323,
                    "duration": 0.10452950000001238
                },
                {
                    "name": "C6",
                    "midi": 84,
                    "time": 136.30646800000048,
                    "velocity": 0.5669291338582677,
                    "duration": 0.6271770000000743
                },
                {
                    "name": "C5",
                    "midi": 72,
                    "time": 136.4109975000005,
                    "velocity": 0.4251968503937008,
                    "duration": 0.10452950000001238
                },
                {
                    "name": "D#5",
                    "midi": 75,
                    "time": 136.5155270000005,
                    "velocity": 0.4409448818897638,
                    "duration": 0.10452950000001238
                },
                {
                    "name": "A#5",
                    "midi": 82,
                    "time": 136.62005650000052,
                    "velocity": 0.5196850393700787,
                    "duration": 0.31358850000003713
                },
                {
                    "name": "C5",
                    "midi": 72,
                    "time": 136.72458600000053,
                    "velocity": 0.4094488188976378,
                    "duration": 0.10452950000001238
                },
                {
                    "name": "D#5",
                    "midi": 75,
                    "time": 136.82911550000054,
                    "velocity": 0.41732283464566927,
                    "duration": 0.10452950000001238
                },
                {
                    "name": "A5",
                    "midi": 81,
                    "time": 136.93364500000055,
                    "velocity": 0.3937007874015748,
                    "duration": 0.10452950000001238
                },
                {
                    "name": "C6",
                    "midi": 84,
                    "time": 136.93364500000055,
                    "velocity": 0.5118110236220472,
                    "duration": 0.6271770000000743
                },
                {
                    "name": "C5",
                    "midi": 72,
                    "time": 137.03817450000057,
                    "velocity": 0.3779527559055118,
                    "duration": 0.10452950000001238
                },
                {
                    "name": "D#5",
                    "midi": 75,
                    "time": 137.14270400000058,
                    "velocity": 0.3779527559055118,
                    "duration": 0.10452950000001238
                },
                {
                    "name": "F#5",
                    "midi": 78,
                    "time": 137.2472335000006,
                    "velocity": 0.49606299212598426,
                    "duration": 0.31358850000003713
                },
                {
                    "name": "C5",
                    "midi": 72,
                    "time": 137.3517630000006,
                    "velocity": 0.36220472440944884,
                    "duration": 0.10452950000001238
                },
                {
                    "name": "D#5",
                    "midi": 75,
                    "time": 137.45629250000061,
                    "velocity": 0.36220472440944884,
                    "duration": 0.10452950000001238
                },
                {
                    "name": "C#6",
                    "midi": 85,
                    "time": 137.56082200000063,
                    "velocity": 0.5669291338582677,
                    "duration": 1.2543540000001485
                },
                {
                    "name": "C#5",
                    "midi": 73,
                    "time": 137.66535150000064,
                    "velocity": 0.4251968503937008,
                    "duration": 0.10452950000001238
                },
                {
                    "name": "F5",
                    "midi": 77,
                    "time": 137.76988100000065,
                    "velocity": 0.4251968503937008,
                    "duration": 0.10452950000001238
                },
                {
                    "name": "C6",
                    "midi": 84,
                    "time": 137.87441050000066,
                    "velocity": 0.5433070866141733,
                    "duration": 0.31358850000003713
                },
                {
                    "name": "C#5",
                    "midi": 73,
                    "time": 137.97894000000068,
                    "velocity": 0.44881889763779526,
                    "duration": 0.10452950000001238
                },
                {
                    "name": "F5",
                    "midi": 77,
                    "time": 138.0834695000007,
                    "velocity": 0.44881889763779526,
                    "duration": 0.10452950000001238
                },
                {
                    "name": "A#5",
                    "midi": 82,
                    "time": 138.1879990000007,
                    "velocity": 0.5590551181102362,
                    "duration": 0.31358850000003713
                },
                {
                    "name": "C#5",
                    "midi": 73,
                    "time": 138.2925285000007,
                    "velocity": 0.4566929133858268,
                    "duration": 0.10452950000001238
                },
                {
                    "name": "F5",
                    "midi": 77,
                    "time": 138.39705800000073,
                    "velocity": 0.4881889763779528,
                    "duration": 0.10452950000001238
                },
                {
                    "name": "G#5",
                    "midi": 80,
                    "time": 138.50158750000074,
                    "velocity": 0.5669291338582677,
                    "duration": 0.31358850000003713
                },
                {
                    "name": "C#5",
                    "midi": 73,
                    "time": 138.60611700000075,
                    "velocity": 0.47244094488188976,
                    "duration": 0.10452950000001238
                },
                {
                    "name": "F#5",
                    "midi": 78,
                    "time": 138.71064650000076,
                    "velocity": 0.49606299212598426,
                    "duration": 0.10452950000001238
                },
                {
                    "name": "D#6",
                    "midi": 87,
                    "time": 138.81517600000078,
                    "velocity": 0.6456692913385826,
                    "duration": 0.6271770000000743
                },
                {
                    "name": "D#5",
                    "midi": 75,
                    "time": 138.9197055000008,
                    "velocity": 0.4881889763779528,
                    "duration": 0.10452950000001238
                },
                {
                    "name": "F#5",
                    "midi": 78,
                    "time": 139.0242350000008,
                    "velocity": 0.5039370078740157,
                    "duration": 0.10452950000001238
                },
                {
                    "name": "C#6",
                    "midi": 85,
                    "time": 139.1287645000008,
                    "velocity": 0.5984251968503937,
                    "duration": 0.31358850000003713
                },
                {
                    "name": "D#5",
                    "midi": 75,
                    "time": 139.23329400000083,
                    "velocity": 0.4645669291338583,
                    "duration": 0.10452950000001238
                },
                {
                    "name": "F#5",
                    "midi": 78,
                    "time": 139.33782350000084,
                    "velocity": 0.47244094488188976,
                    "duration": 0.10452950000001238
                },
                {
                    "name": "C6",
                    "midi": 84,
                    "time": 139.44235300000085,
                    "velocity": 0.44881889763779526,
                    "duration": 0.10452950000001238
                },
                {
                    "name": "D#6",
                    "midi": 87,
                    "time": 139.44235300000085,
                    "velocity": 0.5826771653543307,
                    "duration": 0.6271770000000743
                },
                {
                    "name": "D#5",
                    "midi": 75,
                    "time": 139.54688250000086,
                    "velocity": 0.4330708661417323,
                    "duration": 0.10452950000001238
                },
                {
                    "name": "F#5",
                    "midi": 78,
                    "time": 139.65141200000087,
                    "velocity": 0.4330708661417323,
                    "duration": 0.10452950000001238
                },
                {
                    "name": "A5",
                    "midi": 81,
                    "time": 139.7559415000009,
                    "velocity": 0.5669291338582677,
                    "duration": 0.31358850000003713
                },
                {
                    "name": "D#5",
                    "midi": 75,
                    "time": 139.8604710000009,
                    "velocity": 0.41732283464566927,
                    "duration": 0.10452950000001238
                },
                {
                    "name": "G#5",
                    "midi": 80,
                    "time": 139.9650005000009,
                    "velocity": 0.41732283464566927,
                    "duration": 0.10452950000001238
                },
                {
                    "name": "F6",
                    "midi": 89,
                    "time": 140.06953000000092,
                    "velocity": 0.6220472440944882,
                    "duration": 1.2543540000001485
                },
                {
                    "name": "F5",
                    "midi": 77,
                    "time": 140.17405950000094,
                    "velocity": 0.4645669291338583,
                    "duration": 0.10452950000001238
                },
                {
                    "name": "G#5",
                    "midi": 80,
                    "time": 140.27858900000095,
                    "velocity": 0.4645669291338583,
                    "duration": 0.10452950000001238
                },
                {
                    "name": "D#6",
                    "midi": 87,
                    "time": 140.38311850000096,
                    "velocity": 0.5905511811023622,
                    "duration": 0.31358850000003713
                },
                {
                    "name": "F5",
                    "midi": 77,
                    "time": 140.48764800000097,
                    "velocity": 0.49606299212598426,
                    "duration": 0.10452950000001238
                },
                {
                    "name": "G#5",
                    "midi": 80,
                    "time": 140.592177500001,
                    "velocity": 0.49606299212598426,
                    "duration": 0.10452950000001238
                },
                {
                    "name": "C#6",
                    "midi": 85,
                    "time": 140.696707000001,
                    "velocity": 0.6062992125984252,
                    "duration": 0.31358850000003713
                },
                {
                    "name": "F5",
                    "midi": 77,
                    "time": 140.801236500001,
                    "velocity": 0.49606299212598426,
                    "duration": 0.10452950000001238
                },
                {
                    "name": "G#5",
                    "midi": 80,
                    "time": 140.90576600000102,
                    "velocity": 0.5275590551181102,
                    "duration": 0.10452950000001238
                },
                {
                    "name": "C6",
                    "midi": 84,
                    "time": 141.01029550000104,
                    "velocity": 0.6220472440944882,
                    "duration": 0.31358850000003713
                },
                {
                    "name": "F5",
                    "midi": 77,
                    "time": 141.11482500000105,
                    "velocity": 0.5118110236220472,
                    "duration": 0.10452950000001238
                },
                {
                    "name": "G#5",
                    "midi": 80,
                    "time": 141.21935450000106,
                    "velocity": 0.5511811023622047,
                    "duration": 0.10452950000001238
                },
                {
                    "name": "F6",
                    "midi": 89,
                    "time": 141.32388400000107,
                    "velocity": 0.7086614173228346,
                    "duration": 0.6271770000000743
                },
                {
                    "name": "D#5",
                    "midi": 75,
                    "time": 141.42841350000108,
                    "velocity": 0.5275590551181102,
                    "duration": 0.10452950000001238
                },
                {
                    "name": "G#5",
                    "midi": 80,
                    "time": 141.5329430000011,
                    "velocity": 0.5590551181102362,
                    "duration": 0.10452950000001238
                },
                {
                    "name": "B5",
                    "midi": 83,
                    "time": 141.6374725000011,
                    "velocity": 0.6535433070866141,
                    "duration": 0.31358850000003713
                },
                {
                    "name": "D#5",
                    "midi": 75,
                    "time": 141.74200200000112,
                    "velocity": 0.5039370078740157,
                    "duration": 0.10452950000001238
                },
                {
                    "name": "G#5",
                    "midi": 80,
                    "time": 141.84653150000113,
                    "velocity": 0.5118110236220472,
                    "duration": 0.10452950000001238
                },
                {
                    "name": "F6",
                    "midi": 89,
                    "time": 141.95106100000115,
                    "velocity": 0.6377952755905512,
                    "duration": 0.6271770000000743
                },
                {
                    "name": "D#5",
                    "midi": 75,
                    "time": 142.05559050000116,
                    "velocity": 0.48031496062992124,
                    "duration": 0.10452950000001238
                },
                {
                    "name": "G#5",
                    "midi": 80,
                    "time": 142.16012000000117,
                    "velocity": 0.48031496062992124,
                    "duration": 0.10452950000001238
                },
                {
                    "name": "B5",
                    "midi": 83,
                    "time": 142.26464950000118,
                    "velocity": 0.6299212598425197,
                    "duration": 0.31358850000003713
                },
                {
                    "name": "D#5",
                    "midi": 75,
                    "time": 142.3691790000012,
                    "velocity": 0.44881889763779526,
                    "duration": 0.10452950000001238
                },
                {
                    "name": "G#5",
                    "midi": 80,
                    "time": 142.4737085000012,
                    "velocity": 0.44881889763779526,
                    "duration": 0.10452950000001238
                },
                {
                    "name": "F6",
                    "midi": 89,
                    "time": 142.57823800000122,
                    "velocity": 0.7086614173228346,
                    "duration": 0.31358850000003713
                },
                {
                    "name": "D5",
                    "midi": 74,
                    "time": 142.68276750000123,
                    "velocity": 0.5275590551181102,
                    "duration": 0.10452950000001238
                },
                {
                    "name": "A#5",
                    "midi": 82,
                    "time": 142.78729700000125,
                    "velocity": 0.5590551181102362,
                    "duration": 0.10452950000001238
                },
                {
                    "name": "G#5",
                    "midi": 80,
                    "time": 142.78729700000125,
                    "velocity": 0.4251968503937008,
                    "duration": 0.10452950000001238
                },
                {
                    "name": "F6",
                    "midi": 89,
                    "time": 142.89182650000126,
                    "velocity": 0.6614173228346457,
                    "duration": 0.31358850000003713
                },
                {
                    "name": "D5",
                    "midi": 74,
                    "time": 142.99635600000127,
                    "velocity": 0.5196850393700787,
                    "duration": 0.10452950000001238
                },
                {
                    "name": "A#5",
                    "midi": 82,
                    "time": 143.10088550000128,
                    "velocity": 0.5275590551181102,
                    "duration": 0.10452950000001238
                },
                {
                    "name": "G#5",
                    "midi": 80,
                    "time": 143.10088550000128,
                    "velocity": 0.4251968503937008,
                    "duration": 0.10452950000001238
                },
                {
                    "name": "F#6",
                    "midi": 90,
                    "time": 143.2054150000013,
                    "velocity": 0.6692913385826772,
                    "duration": 0.31358850000003713
                },
                {
                    "name": "D5",
                    "midi": 74,
                    "time": 143.3099445000013,
                    "velocity": 0.49606299212598426,
                    "duration": 0.10452950000001238
                },
                {
                    "name": "A#5",
                    "midi": 82,
                    "time": 143.41447400000132,
                    "velocity": 0.5039370078740157,
                    "duration": 0.10452950000001238
                },
                {
                    "name": "G#5",
                    "midi": 80,
                    "time": 143.41447400000132,
                    "velocity": 0.4251968503937008,
                    "duration": 0.10452950000001238
                },
                {
                    "name": "F#6",
                    "midi": 90,
                    "time": 143.51900350000133,
                    "velocity": 0.6692913385826772,
                    "duration": 0.10452950000001238
                },
                {
                    "name": "D5",
                    "midi": 74,
                    "time": 143.62353300000134,
                    "velocity": 0.4881889763779528,
                    "duration": 0.10452950000001238
                },
                {
                    "name": "A#5",
                    "midi": 82,
                    "time": 143.72806250000136,
                    "velocity": 0.4881889763779528,
                    "duration": 0.10452950000001238
                },
                {
                    "name": "G#5",
                    "midi": 80,
                    "time": 143.72806250000136,
                    "velocity": 0.4251968503937008,
                    "duration": 0.10452950000001238
                },
                {
                    "name": "G5",
                    "midi": 79,
                    "time": 143.83259200000137,
                    "velocity": 0.5905511811023622,
                    "duration": 0.31358850000003713
                },
                {
                    "name": "G6",
                    "midi": 91,
                    "time": 143.83259200000137,
                    "velocity": 0.7086614173228346,
                    "duration": 0.10452950000001238
                },
                {
                    "name": "A#5",
                    "midi": 82,
                    "time": 143.93712150000138,
                    "velocity": 0.4645669291338583,
                    "duration": 0.10452950000001238
                },
                {
                    "name": "D#6",
                    "midi": 87,
                    "time": 144.0416510000014,
                    "velocity": 0.4645669291338583,
                    "duration": 0.10452950000001238
                },
                {
                    "name": "F5",
                    "midi": 77,
                    "time": 144.1461805000014,
                    "velocity": 0.5275590551181102,
                    "duration": 0.31358850000003713
                },
                {
                    "name": "F6",
                    "midi": 89,
                    "time": 144.1461805000014,
                    "velocity": 0.6377952755905512,
                    "duration": 0.10452950000001238
                },
                {
                    "name": "G5",
                    "midi": 79,
                    "time": 144.25071000000142,
                    "velocity": 0.4251968503937008,
                    "duration": 0.10452950000001238
                },
                {
                    "name": "A#5",
                    "midi": 82,
                    "time": 144.35523950000143,
                    "velocity": 0.4251968503937008,
                    "duration": 0.10452950000001238
                },
                {
                    "name": "D#5",
                    "midi": 75,
                    "time": 144.45976900000144,
                    "velocity": 0.5196850393700787,
                    "duration": 0.31358850000003713
                },
                {
                    "name": "D#6",
                    "midi": 87,
                    "time": 144.45976900000144,
                    "velocity": 0.6299212598425197,
                    "duration": 0.10452950000001238
                },
                {
                    "name": "G5",
                    "midi": 79,
                    "time": 144.56429850000146,
                    "velocity": 0.41732283464566927,
                    "duration": 0.10452950000001238
                },
                {
                    "name": "A#5",
                    "midi": 82,
                    "time": 144.66882800000147,
                    "velocity": 0.4251968503937008,
                    "duration": 0.10452950000001238
                },
                {
                    "name": "D5",
                    "midi": 74,
                    "time": 144.77335750000148,
                    "velocity": 0.5275590551181102,
                    "duration": 0.31358850000003713
                },
                {
                    "name": "D6",
                    "midi": 86,
                    "time": 144.77335750000148,
                    "velocity": 0.6377952755905512,
                    "duration": 0.10452950000001238
                },
                {
                    "name": "G5",
                    "midi": 79,
                    "time": 144.8778870000015,
                    "velocity": 0.4251968503937008,
                    "duration": 0.10452950000001238
                },
                {
                    "name": "A#5",
                    "midi": 82,
                    "time": 144.9824165000015,
                    "velocity": 0.4251968503937008,
                    "duration": 0.10452950000001238
                },
                {
                    "name": "C5",
                    "midi": 72,
                    "time": 145.08694600000152,
                    "velocity": 0.5196850393700787,
                    "duration": 0.31358850000003713
                },
                {
                    "name": "C6",
                    "midi": 84,
                    "time": 145.08694600000152,
                    "velocity": 0.6614173228346457,
                    "duration": 0.10452950000001238
                },
                {
                    "name": "D#5",
                    "midi": 75,
                    "time": 145.19147550000153,
                    "velocity": 0.4645669291338583,
                    "duration": 0.10452950000001238
                },
                {
                    "name": "G5",
                    "midi": 79,
                    "time": 145.29600500000154,
                    "velocity": 0.4645669291338583,
                    "duration": 0.10452950000001238
                },
                {
                    "name": "A4",
                    "midi": 69,
                    "time": 145.40053450000156,
                    "velocity": 0.5196850393700787,
                    "duration": 0.31358850000003713
                },
                {
                    "name": "A5",
                    "midi": 81,
                    "time": 145.40053450000156,
                    "velocity": 0.6220472440944882,
                    "duration": 0.10452950000001238
                },
                {
                    "name": "D#5",
                    "midi": 75,
                    "time": 145.50506400000157,
                    "velocity": 0.41732283464566927,
                    "duration": 0.10452950000001238
                },
                {
                    "name": "G5",
                    "midi": 79,
                    "time": 145.60959350000158,
                    "velocity": 0.41732283464566927,
                    "duration": 0.10452950000001238
                },
                {
                    "name": "A#4",
                    "midi": 70,
                    "time": 145.7141230000016,
                    "velocity": 0.5511811023622047,
                    "duration": 0.31358850000003713
                },
                {
                    "name": "A#5",
                    "midi": 82,
                    "time": 145.7141230000016,
                    "velocity": 0.6456692913385826,
                    "duration": 0.10452950000001238
                },
                {
                    "name": "D#5",
                    "midi": 75,
                    "time": 145.8186525000016,
                    "velocity": 0.4409448818897638,
                    "duration": 0.10452950000001238
                },
                {
                    "name": "G5",
                    "midi": 79,
                    "time": 145.92318200000162,
                    "velocity": 0.4409448818897638,
                    "duration": 0.10452950000001238
                },
                {
                    "name": "G5",
                    "midi": 79,
                    "time": 146.02771150000163,
                    "velocity": 0.5748031496062992,
                    "duration": 0.10452950000001238
                },
                {
                    "name": "G6",
                    "midi": 91,
                    "time": 146.02771150000163,
                    "velocity": 0.6850393700787402,
                    "duration": 0.31358850000003713
                },
                {
                    "name": "A#5",
                    "midi": 82,
                    "time": 146.13224100000164,
                    "velocity": 0.41732283464566927,
                    "duration": 0.10452950000001238
                },
                {
                    "name": "D#6",
                    "midi": 87,
                    "time": 146.23677050000165,
                    "velocity": 0.41732283464566927,
                    "duration": 0.10452950000001238
                },
                {
                    "name": "G5",
                    "midi": 79,
                    "time": 146.34130000000167,
                    "velocity": 0.5748031496062992,
                    "duration": 0.10452950000001238
                },
                {
                    "name": "G6",
                    "midi": 91,
                    "time": 146.34130000000167,
                    "velocity": 0.6850393700787402,
                    "duration": 0.31358850000003713
                },
                {
                    "name": "B5",
                    "midi": 83,
                    "time": 146.44582950000168,
                    "velocity": 0.4645669291338583,
                    "duration": 0.10452950000001238
                },
                {
                    "name": "D6",
                    "midi": 86,
                    "time": 146.5503590000017,
                    "velocity": 0.4645669291338583,
                    "duration": 0.10452950000001238
                },
                {
                    "name": "E5",
                    "midi": 76,
                    "time": 146.6548885000017,
                    "velocity": 0.5433070866141733,
                    "duration": 0.10452950000001238
                },
                {
                    "name": "E6",
                    "midi": 88,
                    "time": 146.6548885000017,
                    "velocity": 0.6377952755905512,
                    "duration": 0.31358850000003713
                },
                {
                    "name": "B5",
                    "midi": 83,
                    "time": 146.75941800000172,
                    "velocity": 0.4330708661417323,
                    "duration": 0.10452950000001238
                },
                {
                    "name": "D6",
                    "midi": 86,
                    "time": 146.86394750000173,
                    "velocity": 0.4330708661417323,
                    "duration": 0.10452950000001238
                },
                {
                    "name": "F5",
                    "midi": 77,
                    "time": 146.96847700000174,
                    "velocity": 0.5905511811023622,
                    "duration": 0.10452950000001238
                },
                {
                    "name": "F6",
                    "midi": 89,
                    "time": 146.96847700000174,
                    "velocity": 0.7086614173228346,
                    "duration": 0.31358850000003713
                },
                {
                    "name": "B5",
                    "midi": 83,
                    "time": 147.07300650000175,
                    "velocity": 0.4330708661417323,
                    "duration": 0.10452950000001238
                },
                {
                    "name": "D6",
                    "midi": 86,
                    "time": 147.17753600000177,
                    "velocity": 0.4330708661417323,
                    "duration": 0.10452950000001238
                },
                {
                    "name": "G5",
                    "midi": 79,
                    "time": 147.28206550000178,
                    "velocity": 0.6299212598425197,
                    "duration": 0.10452950000001238
                },
                {
                    "name": "G6",
                    "midi": 91,
                    "time": 147.28206550000178,
                    "velocity": 0.7401574803149606,
                    "duration": 0.31358850000003713
                },
                {
                    "name": "B5",
                    "midi": 83,
                    "time": 147.3865950000018,
                    "velocity": 0.48031496062992124,
                    "duration": 0.10452950000001238
                },
                {
                    "name": "D6",
                    "midi": 86,
                    "time": 147.4911245000018,
                    "velocity": 0.49606299212598426,
                    "duration": 0.10452950000001238
                },
                {
                    "name": "G#5",
                    "midi": 80,
                    "time": 147.59565400000182,
                    "velocity": 0.6377952755905512,
                    "duration": 0.10452950000001238
                },
                {
                    "name": "G#6",
                    "midi": 92,
                    "time": 147.59565400000182,
                    "velocity": 0.7559055118110236,
                    "duration": 0.31358850000003713
                },
                {
                    "name": "D6",
                    "midi": 86,
                    "time": 147.70018350000183,
                    "velocity": 0.5433070866141733,
                    "duration": 0.10452950000001238
                },
                {
                    "name": "F6",
                    "midi": 89,
                    "time": 147.80471300000184,
                    "velocity": 0.5433070866141733,
                    "duration": 0.10452950000001238
                },
                {
                    "name": "A5",
                    "midi": 81,
                    "time": 147.90924250000185,
                    "velocity": 0.6456692913385826,
                    "duration": 0.10452950000001238
                },
                {
                    "name": "A6",
                    "midi": 93,
                    "time": 147.90924250000185,
                    "velocity": 0.7401574803149606,
                    "duration": 0.31358850000003713
                },
                {
                    "name": "D6",
                    "midi": 86,
                    "time": 148.01377200000186,
                    "velocity": 0.5275590551181102,
                    "duration": 0.10452950000001238
                },
                {
                    "name": "F6",
                    "midi": 89,
                    "time": 148.11830150000188,
                    "velocity": 0.5905511811023622,
                    "duration": 0.10452950000001238
                },
                {
                    "name": "C6",
                    "midi": 84,
                    "time": 148.2228310000019,
                    "velocity": 0.7007874015748031,
                    "duration": 0.10452950000001238
                },
                {
                    "name": "C7",
                    "midi": 96,
                    "time": 148.2228310000019,
                    "velocity": 0.7795275590551181,
                    "duration": 0.31358850000003713
                },
                {
                    "name": "D6",
                    "midi": 86,
                    "time": 148.3273605000019,
                    "velocity": 0.5669291338582677,
                    "duration": 0.10452950000001238
                },
                {
                    "name": "F6",
                    "midi": 89,
                    "time": 148.4318900000019,
                    "velocity": 0.5433070866141733,
                    "duration": 0.10452950000001238
                },
                {
                    "name": "A#5",
                    "midi": 82,
                    "time": 148.53641950000193,
                    "velocity": 0.5984251968503937,
                    "duration": 0.10452950000001238
                },
                {
                    "name": "A#6",
                    "midi": 94,
                    "time": 148.53641950000193,
                    "velocity": 0.7086614173228346,
                    "duration": 0.31358850000003713
                },
                {
                    "name": "D6",
                    "midi": 86,
                    "time": 148.64094900000194,
                    "velocity": 0.4409448818897638,
                    "duration": 0.10452950000001238
                },
                {
                    "name": "F6",
                    "midi": 89,
                    "time": 148.74547850000195,
                    "velocity": 0.4409448818897638,
                    "duration": 0.10452950000001238
                },
                {
                    "name": "G5",
                    "midi": 79,
                    "time": 148.85000800000196,
                    "velocity": 0.5905511811023622,
                    "duration": 0.31358850000003713
                },
                {
                    "name": "G6",
                    "midi": 91,
                    "time": 148.85000800000196,
                    "velocity": 0.7086614173228346,
                    "duration": 0.10452950000001238
                },
                {
                    "name": "A#5",
                    "midi": 82,
                    "time": 148.95453750000198,
                    "velocity": 0.4645669291338583,
                    "duration": 0.10452950000001238
                },
                {
                    "name": "D#6",
                    "midi": 87,
                    "time": 149.059067000002,
                    "velocity": 0.4645669291338583,
                    "duration": 0.10452950000001238
                },
                {
                    "name": "F5",
                    "midi": 77,
                    "time": 149.163596500002,
                    "velocity": 0.5275590551181102,
                    "duration": 0.31358850000003713
                },
                {
                    "name": "F6",
                    "midi": 89,
                    "time": 149.163596500002,
                    "velocity": 0.6377952755905512,
                    "duration": 0.10452950000001238
                },
                {
                    "name": "G5",
                    "midi": 79,
                    "time": 149.268126000002,
                    "velocity": 0.4251968503937008,
                    "duration": 0.10452950000001238
                },
                {
                    "name": "A#5",
                    "midi": 82,
                    "time": 149.37265550000203,
                    "velocity": 0.4251968503937008,
                    "duration": 0.10452950000001238
                },
                {
                    "name": "D#5",
                    "midi": 75,
                    "time": 149.47718500000204,
                    "velocity": 0.5196850393700787,
                    "duration": 0.31358850000003713
                },
                {
                    "name": "D#6",
                    "midi": 87,
                    "time": 149.47718500000204,
                    "velocity": 0.6299212598425197,
                    "duration": 0.10452950000001238
                },
                {
                    "name": "G5",
                    "midi": 79,
                    "time": 149.58171450000205,
                    "velocity": 0.41732283464566927,
                    "duration": 0.10452950000001238
                },
                {
                    "name": "A#5",
                    "midi": 82,
                    "time": 149.68624400000206,
                    "velocity": 0.4251968503937008,
                    "duration": 0.10452950000001238
                },
                {
                    "name": "D5",
                    "midi": 74,
                    "time": 149.79077350000208,
                    "velocity": 0.5275590551181102,
                    "duration": 0.31358850000003713
                },
                {
                    "name": "D6",
                    "midi": 86,
                    "time": 149.79077350000208,
                    "velocity": 0.6377952755905512,
                    "duration": 0.10452950000001238
                },
                {
                    "name": "G5",
                    "midi": 79,
                    "time": 149.8953030000021,
                    "velocity": 0.4251968503937008,
                    "duration": 0.10452950000001238
                },
                {
                    "name": "A#5",
                    "midi": 82,
                    "time": 149.9998325000021,
                    "velocity": 0.4251968503937008,
                    "duration": 0.10452950000001238
                },
                {
                    "name": "C5",
                    "midi": 72,
                    "time": 150.1043620000021,
                    "velocity": 0.5196850393700787,
                    "duration": 0.31358850000003713
                },
                {
                    "name": "C6",
                    "midi": 84,
                    "time": 150.1043620000021,
                    "velocity": 0.6614173228346457,
                    "duration": 0.10452950000001238
                },
                {
                    "name": "D#5",
                    "midi": 75,
                    "time": 150.20889150000212,
                    "velocity": 0.4645669291338583,
                    "duration": 0.10452950000001238
                },
                {
                    "name": "G5",
                    "midi": 79,
                    "time": 150.31342100000214,
                    "velocity": 0.4645669291338583,
                    "duration": 0.10452950000001238
                },
                {
                    "name": "A4",
                    "midi": 69,
                    "time": 150.41795050000215,
                    "velocity": 0.5196850393700787,
                    "duration": 0.31358850000003713
                },
                {
                    "name": "A5",
                    "midi": 81,
                    "time": 150.41795050000215,
                    "velocity": 0.6220472440944882,
                    "duration": 0.10452950000001238
                },
                {
                    "name": "D#5",
                    "midi": 75,
                    "time": 150.52248000000216,
                    "velocity": 0.41732283464566927,
                    "duration": 0.10452950000001238
                },
                {
                    "name": "G5",
                    "midi": 79,
                    "time": 150.62700950000217,
                    "velocity": 0.41732283464566927,
                    "duration": 0.10452950000001238
                },
                {
                    "name": "A#4",
                    "midi": 70,
                    "time": 150.7315390000022,
                    "velocity": 0.5511811023622047,
                    "duration": 0.31358850000003713
                },
                {
                    "name": "A#5",
                    "midi": 82,
                    "time": 150.7315390000022,
                    "velocity": 0.6456692913385826,
                    "duration": 0.10452950000001238
                },
                {
                    "name": "D#5",
                    "midi": 75,
                    "time": 150.8360685000022,
                    "velocity": 0.4409448818897638,
                    "duration": 0.10452950000001238
                },
                {
                    "name": "G5",
                    "midi": 79,
                    "time": 150.9405980000022,
                    "velocity": 0.4409448818897638,
                    "duration": 0.10452950000001238
                },
                {
                    "name": "G5",
                    "midi": 79,
                    "time": 151.04512750000222,
                    "velocity": 0.5748031496062992,
                    "duration": 0.10452950000001238
                },
                {
                    "name": "G6",
                    "midi": 91,
                    "time": 151.04512750000222,
                    "velocity": 0.6850393700787402,
                    "duration": 0.10452950000001238
                },
                {
                    "name": "A#5",
                    "midi": 82,
                    "time": 151.14965700000224,
                    "velocity": 0.41732283464566927,
                    "duration": 0.10452950000001238
                },
                {
                    "name": "D#6",
                    "midi": 87,
                    "time": 151.25418650000225,
                    "velocity": 0.41732283464566927,
                    "duration": 0.10452950000001238
                },
                {
                    "name": "G5",
                    "midi": 79,
                    "time": 151.35871600000226,
                    "velocity": 0.5748031496062992,
                    "duration": 0.10452950000001238
                },
                {
                    "name": "G6",
                    "midi": 91,
                    "time": 151.35871600000226,
                    "velocity": 0.6850393700787402,
                    "duration": 0.31358850000003713
                },
                {
                    "name": "A5",
                    "midi": 81,
                    "time": 151.46324550000227,
                    "velocity": 0.4645669291338583,
                    "duration": 0.10452950000001238
                },
                {
                    "name": "C6",
                    "midi": 84,
                    "time": 151.56777500000229,
                    "velocity": 0.4645669291338583,
                    "duration": 0.10452950000001238
                },
                {
                    "name": "F#5",
                    "midi": 78,
                    "time": 151.6723045000023,
                    "velocity": 0.5433070866141733,
                    "duration": 0.10452950000001238
                },
                {
                    "name": "F#6",
                    "midi": 90,
                    "time": 151.6723045000023,
                    "velocity": 0.6377952755905512,
                    "duration": 0.31358850000003713
                },
                {
                    "name": "A5",
                    "midi": 81,
                    "time": 151.7768340000023,
                    "velocity": 0.49606299212598426,
                    "duration": 0.10452950000001238
                },
                {
                    "name": "C6",
                    "midi": 84,
                    "time": 151.88136350000232,
                    "velocity": 0.5039370078740157,
                    "duration": 0.10452950000001238
                },
                {
                    "name": "D#6",
                    "midi": 87,
                    "time": 151.98589300000233,
                    "velocity": 0.7007874015748031,
                    "duration": 0.10452950000001238
                },
                {
                    "name": "D#7",
                    "midi": 99,
                    "time": 151.98589300000233,
                    "velocity": 0.7874015748031497,
                    "duration": 0.31358850000003713
                },
                {
                    "name": "F#6",
                    "midi": 90,
                    "time": 152.09042250000235,
                    "velocity": 0.5275590551181102,
                    "duration": 0.10452950000001238
                },
                {
                    "name": "A6",
                    "midi": 93,
                    "time": 152.19495200000236,
                    "velocity": 0.5275590551181102,
                    "duration": 0.10452950000001238
                },
                {
                    "name": "D6",
                    "midi": 86,
                    "time": 152.29948150000237,
                    "velocity": 0.6456692913385826,
                    "duration": 0.10452950000001238
                },
                {
                    "name": "D7",
                    "midi": 98,
                    "time": 152.29948150000237,
                    "velocity": 0.7559055118110236,
                    "duration": 0.31358850000003713
                },
                {
                    "name": "F#6",
                    "midi": 90,
                    "time": 152.40401100000238,
                    "velocity": 0.5275590551181102,
                    "duration": 0.10452950000001238
                },
                {
                    "name": "A6",
                    "midi": 93,
                    "time": 152.5085405000024,
                    "velocity": 0.5275590551181102,
                    "duration": 0.10452950000001238
                },
                {
                    "name": "D6",
                    "midi": 86,
                    "time": 152.6130700000024,
                    "velocity": 0.6377952755905512,
                    "duration": 0.10452950000001238
                },
                {
                    "name": "D7",
                    "midi": 98,
                    "time": 152.6130700000024,
                    "velocity": 0.7480314960629921,
                    "duration": 0.31358850000003713
                },
                {
                    "name": "G6",
                    "midi": 91,
                    "time": 152.71759950000242,
                    "velocity": 0.5433070866141733,
                    "duration": 0.10452950000001238
                },
                {
                    "name": "B6",
                    "midi": 95,
                    "time": 152.82212900000243,
                    "velocity": 0.5433070866141733,
                    "duration": 0.10452950000001238
                },
                {
                    "name": "B5",
                    "midi": 83,
                    "time": 152.92665850000245,
                    "velocity": 0.6220472440944882,
                    "duration": 0.10452950000001238
                },
                {
                    "name": "B6",
                    "midi": 95,
                    "time": 152.92665850000245,
                    "velocity": 0.7165354330708661,
                    "duration": 0.31358850000003713
                },
                {
                    "name": "D6",
                    "midi": 86,
                    "time": 153.03118800000246,
                    "velocity": 0.5275590551181102,
                    "duration": 0.10452950000001238
                },
                {
                    "name": "G6",
                    "midi": 91,
                    "time": 153.13571750000247,
                    "velocity": 0.5118110236220472,
                    "duration": 0.10452950000001238
                },
                {
                    "name": "G5",
                    "midi": 79,
                    "time": 153.24024700000248,
                    "velocity": 0.5511811023622047,
                    "duration": 0.10452950000001238
                },
                {
                    "name": "G6",
                    "midi": 91,
                    "time": 153.24024700000248,
                    "velocity": 0.6535433070866141,
                    "duration": 0.31358850000003713
                },
                {
                    "name": "B5",
                    "midi": 83,
                    "time": 153.3447765000025,
                    "velocity": 0.49606299212598426,
                    "duration": 0.10452950000001238
                },
                {
                    "name": "D6",
                    "midi": 86,
                    "time": 153.4493060000025,
                    "velocity": 0.49606299212598426,
                    "duration": 0.10452950000001238
                },
                {
                    "name": "G5",
                    "midi": 79,
                    "time": 153.55383550000252,
                    "velocity": 0.5039370078740157,
                    "duration": 0.10452950000001238
                },
                {
                    "name": "G6",
                    "midi": 91,
                    "time": 153.55383550000252,
                    "velocity": 0.7086614173228346,
                    "duration": 0.31358850000003713
                },
                {
                    "name": "B5",
                    "midi": 83,
                    "time": 153.65836500000253,
                    "velocity": 0.4566929133858268,
                    "duration": 0.10452950000001238
                },
                {
                    "name": "D6",
                    "midi": 86,
                    "time": 153.76289450000255,
                    "velocity": 0.4645669291338583,
                    "duration": 0.10452950000001238
                },
                {
                    "name": "G#5",
                    "midi": 80,
                    "time": 153.86742400000256,
                    "velocity": 0.5826771653543307,
                    "duration": 0.10452950000001238
                },
                {
                    "name": "G#6",
                    "midi": 92,
                    "time": 153.86742400000256,
                    "velocity": 0.6929133858267716,
                    "duration": 0.31358850000003713
                },
                {
                    "name": "C6",
                    "midi": 84,
                    "time": 153.97195350000257,
                    "velocity": 0.49606299212598426,
                    "duration": 0.10452950000001238
                },
                {
                    "name": "D#6",
                    "midi": 87,
                    "time": 154.07648300000258,
                    "velocity": 0.49606299212598426,
                    "duration": 0.10452950000001238
                },
                {
                    "name": "G5",
                    "midi": 79,
                    "time": 154.1810125000026,
                    "velocity": 0.5669291338582677,
                    "duration": 0.10452950000001238
                },
                {
                    "name": "G6",
                    "midi": 91,
                    "time": 154.1810125000026,
                    "velocity": 0.6692913385826772,
                    "duration": 0.31358850000003713
                },
                {
                    "name": "C6",
                    "midi": 84,
                    "time": 154.2855420000026,
                    "velocity": 0.4881889763779528,
                    "duration": 0.10452950000001238
                },
                {
                    "name": "D#6",
                    "midi": 87,
                    "time": 154.39007150000262,
                    "velocity": 0.47244094488188976,
                    "duration": 0.10452950000001238
                },
                {
                    "name": "F5",
                    "midi": 77,
                    "time": 154.49460100000263,
                    "velocity": 0.5275590551181102,
                    "duration": 0.10452950000001238
                },
                {
                    "name": "F6",
                    "midi": 89,
                    "time": 154.49460100000263,
                    "velocity": 0.6299212598425197,
                    "duration": 0.31358850000003713
                },
                {
                    "name": "G5",
                    "midi": 79,
                    "time": 154.59913050000264,
                    "velocity": 0.47244094488188976,
                    "duration": 0.10452950000001238
                },
                {
                    "name": "C6",
                    "midi": 84,
                    "time": 154.70366000000266,
                    "velocity": 0.4566929133858268,
                    "duration": 0.10452950000001238
                },
                {
                    "name": "D#5",
                    "midi": 75,
                    "time": 154.80818950000267,
                    "velocity": 0.4645669291338583,
                    "duration": 0.10452950000001238
                },
                {
                    "name": "D#6",
                    "midi": 87,
                    "time": 154.80818950000267,
                    "velocity": 0.6456692913385826,
                    "duration": 0.31358850000003713
                },
                {
                    "name": "G5",
                    "midi": 79,
                    "time": 154.91271900000268,
                    "velocity": 0.4094488188976378,
                    "duration": 0.10452950000001238
                },
                {
                    "name": "C6",
                    "midi": 84,
                    "time": 155.0172485000027,
                    "velocity": 0.4094488188976378,
                    "duration": 0.10452950000001238
                },
                {
                    "name": "D#5",
                    "midi": 75,
                    "time": 155.1217780000027,
                    "velocity": 0.5196850393700787,
                    "duration": 0.10452950000001238
                },
                {
                    "name": "D#6",
                    "midi": 87,
                    "time": 155.1217780000027,
                    "velocity": 0.6220472440944882,
                    "duration": 0.31358850000003713
                },
                {
                    "name": "G#5",
                    "midi": 80,
                    "time": 155.22630750000272,
                    "velocity": 0.4409448818897638,
                    "duration": 0.10452950000001238
                },
                {
                    "name": "C6",
                    "midi": 84,
                    "time": 155.33083700000273,
                    "velocity": 0.4409448818897638,
                    "duration": 0.10452950000001238
                },
                {
                    "name": "D5",
                    "midi": 74,
                    "time": 155.43536650000274,
                    "velocity": 0.5039370078740157,
                    "duration": 0.10452950000001238
                },
                {
                    "name": "D6",
                    "midi": 86,
                    "time": 155.43536650000274,
                    "velocity": 0.5984251968503937,
                    "duration": 0.31358850000003713
                },
                {
                    "name": "G#5",
                    "midi": 80,
                    "time": 155.53989600000276,
                    "velocity": 0.4330708661417323,
                    "duration": 0.10452950000001238
                },
                {
                    "name": "C6",
                    "midi": 84,
                    "time": 155.64442550000277,
                    "velocity": 0.4251968503937008,
                    "duration": 0.10452950000001238
                },
                {
                    "name": "D5",
                    "midi": 74,
                    "time": 155.74895500000278,
                    "velocity": 0.47244094488188976,
                    "duration": 0.10452950000001238
                },
                {
                    "name": "D6",
                    "midi": 86,
                    "time": 155.74895500000278,
                    "velocity": 0.5669291338582677,
                    "duration": 0.31358850000003713
                },
                {
                    "name": "G#5",
                    "midi": 80,
                    "time": 155.8534845000028,
                    "velocity": 0.4251968503937008,
                    "duration": 0.10452950000001238
                },
                {
                    "name": "C6",
                    "midi": 84,
                    "time": 155.9580140000028,
                    "velocity": 0.4094488188976378,
                    "duration": 0.10452950000001238
                },
                {
                    "name": "D5",
                    "midi": 74,
                    "time": 156.06254350000282,
                    "velocity": 0.41732283464566927,
                    "duration": 0.10452950000001238
                },
                {
                    "name": "D6",
                    "midi": 86,
                    "time": 156.06254350000282,
                    "velocity": 0.5748031496062992,
                    "duration": 0.31358850000003713
                },
                {
                    "name": "G#5",
                    "midi": 80,
                    "time": 156.16707300000283,
                    "velocity": 0.36220472440944884,
                    "duration": 0.10452950000001238
                },
                {
                    "name": "C6",
                    "midi": 84,
                    "time": 156.27160250000284,
                    "velocity": 0.36220472440944884,
                    "duration": 0.10452950000001238
                },
                {
                    "name": "D#5",
                    "midi": 75,
                    "time": 156.37613200000285,
                    "velocity": 0.4645669291338583,
                    "duration": 0.10452950000001238
                },
                {
                    "name": "D#6",
                    "midi": 87,
                    "time": 156.37613200000285,
                    "velocity": 0.5590551181102362,
                    "duration": 0.31358850000003713
                },
                {
                    "name": "G5",
                    "midi": 79,
                    "time": 156.48066150000287,
                    "velocity": 0.3937007874015748,
                    "duration": 0.10452950000001238
                },
                {
                    "name": "B5",
                    "midi": 83,
                    "time": 156.58519100000288,
                    "velocity": 0.3937007874015748,
                    "duration": 0.10452950000001238
                },
                {
                    "name": "D5",
                    "midi": 74,
                    "time": 156.6897205000029,
                    "velocity": 0.44881889763779526,
                    "duration": 0.10452950000001238
                },
                {
                    "name": "D6",
                    "midi": 86,
                    "time": 156.6897205000029,
                    "velocity": 0.5354330708661418,
                    "duration": 0.31358850000003713
                },
                {
                    "name": "G5",
                    "midi": 79,
                    "time": 156.7942500000029,
                    "velocity": 0.3858267716535433,
                    "duration": 0.10452950000001238
                },
                {
                    "name": "B5",
                    "midi": 83,
                    "time": 156.89877950000292,
                    "velocity": 0.3779527559055118,
                    "duration": 0.10452950000001238
                },
                {
                    "name": "C5",
                    "midi": 72,
                    "time": 157.00330900000293,
                    "velocity": 0.4251968503937008,
                    "duration": 0.10452950000001238
                },
                {
                    "name": "C6",
                    "midi": 84,
                    "time": 157.00330900000293,
                    "velocity": 0.5039370078740157,
                    "duration": 0.31358850000003713
                },
                {
                    "name": "D5",
                    "midi": 74,
                    "time": 157.10783850000294,
                    "velocity": 0.3779527559055118,
                    "duration": 0.10452950000001238
                },
                {
                    "name": "G5",
                    "midi": 79,
                    "time": 157.21236800000295,
                    "velocity": 0.36220472440944884,
                    "duration": 0.10452950000001238
                },
                {
                    "name": "B4",
                    "midi": 71,
                    "time": 157.31689750000297,
                    "velocity": 0.3700787401574803,
                    "duration": 0.10452950000001238
                },
                {
                    "name": "B5",
                    "midi": 83,
                    "time": 157.31689750000297,
                    "velocity": 0.5118110236220472,
                    "duration": 0.31358850000003713
                },
                {
                    "name": "D5",
                    "midi": 74,
                    "time": 157.42142700000298,
                    "velocity": 0.3228346456692913,
                    "duration": 0.10452950000001238
                },
                {
                    "name": "G5",
                    "midi": 79,
                    "time": 157.525956500003,
                    "velocity": 0.3228346456692913,
                    "duration": 0.10452950000001238
                },
                {
                    "name": "G#4",
                    "midi": 68,
                    "time": 157.630486000003,
                    "velocity": 0.4330708661417323,
                    "duration": 0.10452950000001238
                },
                {
                    "name": "G#5",
                    "midi": 80,
                    "time": 157.630486000003,
                    "velocity": 0.5275590551181102,
                    "duration": 0.31358850000003713
                },
                {
                    "name": "B4",
                    "midi": 71,
                    "time": 157.73501550000302,
                    "velocity": 0.3700787401574803,
                    "duration": 0.10452950000001238
                },
                {
                    "name": "D5",
                    "midi": 74,
                    "time": 157.83954500000303,
                    "velocity": 0.3700787401574803,
                    "duration": 0.10452950000001238
                },
                {
                    "name": "G4",
                    "midi": 67,
                    "time": 157.94407450000304,
                    "velocity": 0.4251968503937008,
                    "duration": 0.10452950000001238
                },
                {
                    "name": "G5",
                    "midi": 79,
                    "time": 157.94407450000304,
                    "velocity": 0.5039370078740157,
                    "duration": 0.31358850000003713
                },
                {
                    "name": "B4",
                    "midi": 71,
                    "time": 158.04860400000305,
                    "velocity": 0.36220472440944884,
                    "duration": 0.10452950000001238
                },
                {
                    "name": "D5",
                    "midi": 74,
                    "time": 158.15313350000307,
                    "velocity": 0.3543307086614173,
                    "duration": 0.10452950000001238
                },
                {
                    "name": "G4",
                    "midi": 67,
                    "time": 158.25766300000308,
                    "velocity": 0.4015748031496063,
                    "duration": 0.10452950000001238
                },
                {
                    "name": "G5",
                    "midi": 79,
                    "time": 158.25766300000308,
                    "velocity": 0.48031496062992124,
                    "duration": 0.31358850000003713
                },
                {
                    "name": "B4",
                    "midi": 71,
                    "time": 158.3621925000031,
                    "velocity": 0.3543307086614173,
                    "duration": 0.10452950000001238
                },
                {
                    "name": "D5",
                    "midi": 74,
                    "time": 158.4667220000031,
                    "velocity": 0.3464566929133858,
                    "duration": 0.10452950000001238
                },
                {
                    "name": "G4",
                    "midi": 67,
                    "time": 158.57125150000311,
                    "velocity": 0.3543307086614173,
                    "duration": 0.10452950000001238
                },
                {
                    "name": "G5",
                    "midi": 79,
                    "time": 158.57125150000311,
                    "velocity": 0.4881889763779528,
                    "duration": 0.31358850000003713
                },
                {
                    "name": "B4",
                    "midi": 71,
                    "time": 158.67578100000313,
                    "velocity": 0.2992125984251969,
                    "duration": 0.10452950000001238
                },
                {
                    "name": "D5",
                    "midi": 74,
                    "time": 158.78031050000314,
                    "velocity": 0.2992125984251969,
                    "duration": 0.10452950000001238
                },
                {
                    "name": "A#4",
                    "midi": 70,
                    "time": 158.88484000000315,
                    "velocity": 0.4094488188976378,
                    "duration": 0.10452950000001238
                },
                {
                    "name": "A#5",
                    "midi": 82,
                    "time": 158.88484000000315,
                    "velocity": 0.49606299212598426,
                    "duration": 0.31358850000003713
                },
                {
                    "name": "C5",
                    "midi": 72,
                    "time": 158.98936950000316,
                    "velocity": 0.3543307086614173,
                    "duration": 0.10452950000001238
                },
                {
                    "name": "D#5",
                    "midi": 75,
                    "time": 159.09389900000318,
                    "velocity": 0.3543307086614173,
                    "duration": 0.10452950000001238
                },
                {
                    "name": "G#4",
                    "midi": 68,
                    "time": 159.1984285000032,
                    "velocity": 0.4015748031496063,
                    "duration": 0.10452950000001238
                },
                {
                    "name": "G#5",
                    "midi": 80,
                    "time": 159.1984285000032,
                    "velocity": 0.48031496062992124,
                    "duration": 0.31358850000003713
                },
                {
                    "name": "C5",
                    "midi": 72,
                    "time": 159.3029580000032,
                    "velocity": 0.3464566929133858,
                    "duration": 0.10452950000001238
                },
                {
                    "name": "D#5",
                    "midi": 75,
                    "time": 159.4074875000032,
                    "velocity": 0.33858267716535434,
                    "duration": 0.10452950000001238
                },
                {
                    "name": "G4",
                    "midi": 67,
                    "time": 159.51201700000323,
                    "velocity": 0.3779527559055118,
                    "duration": 0.10452950000001238
                },
                {
                    "name": "G5",
                    "midi": 79,
                    "time": 159.51201700000323,
                    "velocity": 0.44881889763779526,
                    "duration": 0.31358850000003713
                },
                {
                    "name": "C5",
                    "midi": 72,
                    "time": 159.61654650000324,
                    "velocity": 0.33858267716535434,
                    "duration": 0.10452950000001238
                },
                {
                    "name": "D#5",
                    "midi": 75,
                    "time": 159.72107600000325,
                    "velocity": 0.3228346456692913,
                    "duration": 0.10452950000001238
                },
                {
                    "name": "F4",
                    "midi": 65,
                    "time": 159.82560550000326,
                    "velocity": 0.33070866141732286,
                    "duration": 0.10452950000001238
                },
                {
                    "name": "F5",
                    "midi": 77,
                    "time": 159.82560550000326,
                    "velocity": 0.4566929133858268,
                    "duration": 0.31358850000003713
                },
                {
                    "name": "G4",
                    "midi": 67,
                    "time": 159.93013500000328,
                    "velocity": 0.28346456692913385,
                    "duration": 0.10452950000001238
                },
                {
                    "name": "C5",
                    "midi": 72,
                    "time": 160.0346645000033,
                    "velocity": 0.28346456692913385,
                    "duration": 0.10452950000001238
                },
                {
                    "name": "D#4",
                    "midi": 63,
                    "time": 160.1391940000033,
                    "velocity": 0.3858267716535433,
                    "duration": 0.10452950000001238
                },
                {
                    "name": "D#5",
                    "midi": 75,
                    "time": 160.1391940000033,
                    "velocity": 0.47244094488188976,
                    "duration": 0.31358850000003713
                },
                {
                    "name": "G#4",
                    "midi": 68,
                    "time": 160.2437235000033,
                    "velocity": 0.33070866141732286,
                    "duration": 0.10452950000001238
                },
                {
                    "name": "C5",
                    "midi": 72,
                    "time": 160.34825300000333,
                    "velocity": 0.33070866141732286,
                    "duration": 0.10452950000001238
                },
                {
                    "name": "D4",
                    "midi": 62,
                    "time": 160.45278250000334,
                    "velocity": 0.3779527559055118,
                    "duration": 0.10452950000001238
                },
                {
                    "name": "D5",
                    "midi": 74,
                    "time": 160.45278250000334,
                    "velocity": 0.44881889763779526,
                    "duration": 0.31358850000003713
                },
                {
                    "name": "G#4",
                    "midi": 68,
                    "time": 160.55731200000335,
                    "velocity": 0.3228346456692913,
                    "duration": 0.10452950000001238
                },
                {
                    "name": "C5",
                    "midi": 72,
                    "time": 160.66184150000336,
                    "velocity": 0.31496062992125984,
                    "duration": 0.10452950000001238
                },
                {
                    "name": "D4",
                    "midi": 62,
                    "time": 160.76637100000337,
                    "velocity": 0.3543307086614173,
                    "duration": 0.10452950000001238
                },
                {
                    "name": "D5",
                    "midi": 74,
                    "time": 160.76637100000337,
                    "velocity": 0.4251968503937008,
                    "duration": 0.31358850000003713
                },
                {
                    "name": "G#4",
                    "midi": 68,
                    "time": 160.8709005000034,
                    "velocity": 0.31496062992125984,
                    "duration": 0.10452950000001238
                },
                {
                    "name": "C5",
                    "midi": 72,
                    "time": 160.9754300000034,
                    "velocity": 0.2992125984251969,
                    "duration": 0.10452950000001238
                },
                {
                    "name": "D4",
                    "midi": 62,
                    "time": 161.0799595000034,
                    "velocity": 0.30708661417322836,
                    "duration": 0.10452950000001238
                },
                {
                    "name": "D5",
                    "midi": 74,
                    "time": 161.0799595000034,
                    "velocity": 0.4251968503937008,
                    "duration": 0.31358850000003713
                },
                {
                    "name": "G#4",
                    "midi": 68,
                    "time": 161.18448900000342,
                    "velocity": 0.2677165354330709,
                    "duration": 0.10452950000001238
                },
                {
                    "name": "C5",
                    "midi": 72,
                    "time": 161.28901850000344,
                    "velocity": 0.2677165354330709,
                    "duration": 0.10452950000001238
                },
                {
                    "name": "D#4",
                    "midi": 63,
                    "time": 161.39354800000345,
                    "velocity": 0.3858267716535433,
                    "duration": 0.10452950000001238
                },
                {
                    "name": "D#5",
                    "midi": 75,
                    "time": 161.39354800000345,
                    "velocity": 0.47244094488188976,
                    "duration": 0.31358850000003713
                },
                {
                    "name": "G4",
                    "midi": 67,
                    "time": 161.49807750000346,
                    "velocity": 0.33070866141732286,
                    "duration": 0.10452950000001238
                },
                {
                    "name": "B4",
                    "midi": 71,
                    "time": 161.60260700000347,
                    "velocity": 0.33070866141732286,
                    "duration": 0.10452950000001238
                },
                {
                    "name": "D4",
                    "midi": 62,
                    "time": 161.7071365000035,
                    "velocity": 0.3779527559055118,
                    "duration": 0.10452950000001238
                },
                {
                    "name": "D5",
                    "midi": 74,
                    "time": 161.7071365000035,
                    "velocity": 0.44881889763779526,
                    "duration": 0.31358850000003713
                },
                {
                    "name": "G4",
                    "midi": 67,
                    "time": 161.8116660000035,
                    "velocity": 0.3228346456692913,
                    "duration": 0.10452950000001238
                },
                {
                    "name": "B4",
                    "midi": 71,
                    "time": 161.9161955000035,
                    "velocity": 0.31496062992125984,
                    "duration": 0.10452950000001238
                },
                {
                    "name": "C4",
                    "midi": 60,
                    "time": 162.02072500000352,
                    "velocity": 0.3543307086614173,
                    "duration": 0.10452950000001238
                },
                {
                    "name": "C5",
                    "midi": 72,
                    "time": 162.02072500000352,
                    "velocity": 0.4251968503937008,
                    "duration": 0.31358850000003713
                },
                {
                    "name": "D#4",
                    "midi": 63,
                    "time": 162.12525450000354,
                    "velocity": 0.31496062992125984,
                    "duration": 0.10452950000001238
                },
                {
                    "name": "G4",
                    "midi": 67,
                    "time": 162.22978400000355,
                    "velocity": 0.2992125984251969,
                    "duration": 0.10452950000001238
                },
                {
                    "name": "B3",
                    "midi": 59,
                    "time": 162.33431350000356,
                    "velocity": 0.30708661417322836,
                    "duration": 0.10452950000001238
                },
                {
                    "name": "B4",
                    "midi": 71,
                    "time": 162.33431350000356,
                    "velocity": 0.4251968503937008,
                    "duration": 0.31358850000003713
                },
                {
                    "name": "D4",
                    "midi": 62,
                    "time": 162.43884300000357,
                    "velocity": 0.2677165354330709,
                    "duration": 0.10452950000001238
                },
                {
                    "name": "G4",
                    "midi": 67,
                    "time": 162.54337250000358,
                    "velocity": 0.2677165354330709,
                    "duration": 0.10452950000001238
                },
                {
                    "name": "A#3",
                    "midi": 58,
                    "time": 162.6479020000036,
                    "velocity": 0.3464566929133858,
                    "duration": 0.10452950000001238
                },
                {
                    "name": "A#4",
                    "midi": 70,
                    "time": 162.6479020000036,
                    "velocity": 0.4251968503937008,
                    "duration": 0.31358850000003713
                },
                {
                    "name": "C#4",
                    "midi": 61,
                    "time": 162.7524315000036,
                    "velocity": 0.29133858267716534,
                    "duration": 0.10452950000001238
                },
                {
                    "name": "F4",
                    "midi": 65,
                    "time": 162.85696100000362,
                    "velocity": 0.29133858267716534,
                    "duration": 0.10452950000001238
                },
                {
                    "name": "G#3",
                    "midi": 56,
                    "time": 162.96149050000363,
                    "velocity": 0.33858267716535434,
                    "duration": 0.10452950000001238
                },
                {
                    "name": "G#4",
                    "midi": 68,
                    "time": 162.96149050000363,
                    "velocity": 0.4015748031496063,
                    "duration": 0.31358850000003713
                },
                {
                    "name": "C#4",
                    "midi": 61,
                    "time": 163.06602000000365,
                    "velocity": 0.28346456692913385,
                    "duration": 0.10452950000001238
                },
                {
                    "name": "F4",
                    "midi": 65,
                    "time": 163.17054950000366,
                    "velocity": 0.28346456692913385,
                    "duration": 0.10452950000001238
                },
                {
                    "name": "G3",
                    "midi": 55,
                    "time": 163.27507900000367,
                    "velocity": 0.31496062992125984,
                    "duration": 0.10452950000001238
                },
                {
                    "name": "G4",
                    "midi": 67,
                    "time": 163.27507900000367,
                    "velocity": 0.3779527559055118,
                    "duration": 0.31358850000003713
                },
                {
                    "name": "G#3",
                    "midi": 56,
                    "time": 163.37960850000368,
                    "velocity": 0.28346456692913385,
                    "duration": 0.10452950000001238
                },
                {
                    "name": "C#4",
                    "midi": 61,
                    "time": 163.4841380000037,
                    "velocity": 0.2677165354330709,
                    "duration": 0.10452950000001238
                },
                {
                    "name": "F3",
                    "midi": 53,
                    "time": 163.5886675000037,
                    "velocity": 0.2755905511811024,
                    "duration": 0.10452950000001238
                },
                {
                    "name": "F4",
                    "midi": 65,
                    "time": 163.5886675000037,
                    "velocity": 0.3779527559055118,
                    "duration": 0.31358850000003713
                },
                {
                    "name": "G#3",
                    "midi": 56,
                    "time": 163.69319700000372,
                    "velocity": 0.23622047244094488,
                    "duration": 0.10452950000001238
                },
                {
                    "name": "C#4",
                    "midi": 61,
                    "time": 163.79772650000373,
                    "velocity": 0.23622047244094488,
                    "duration": 0.10452950000001238
                },
                {
                    "name": "D#4",
                    "midi": 63,
                    "time": 163.90225600000375,
                    "velocity": 0.2755905511811024,
                    "duration": 0.10452950000001238
                },
                {
                    "name": "D#5",
                    "midi": 75,
                    "time": 163.90225600000375,
                    "velocity": 0.33070866141732286,
                    "duration": 0.31358850000003713
                },
                {
                    "name": "G4",
                    "midi": 67,
                    "time": 164.00678550000376,
                    "velocity": 0.2283464566929134,
                    "duration": 0.10452950000001238
                },
                {
                    "name": "B4",
                    "midi": 71,
                    "time": 164.11131500000377,
                    "velocity": 0.2283464566929134,
                    "duration": 0.10452950000001238
                },
                {
                    "name": "D4",
                    "midi": 62,
                    "time": 164.21584450000378,
                    "velocity": 0.2677165354330709,
                    "duration": 0.10452950000001238
                },
                {
                    "name": "D5",
                    "midi": 74,
                    "time": 164.21584450000378,
                    "velocity": 0.31496062992125984,
                    "duration": 0.31358850000003713
                },
                {
                    "name": "G4",
                    "midi": 67,
                    "time": 164.3203740000038,
                    "velocity": 0.2283464566929134,
                    "duration": 0.10452950000001238
                },
                {
                    "name": "B4",
                    "midi": 71,
                    "time": 164.4249035000038,
                    "velocity": 0.2204724409448819,
                    "duration": 0.10452950000001238
                },
                {
                    "name": "C4",
                    "midi": 60,
                    "time": 164.52943300000382,
                    "velocity": 0.25196850393700787,
                    "duration": 0.10452950000001238
                },
                {
                    "name": "C5",
                    "midi": 72,
                    "time": 164.52943300000382,
                    "velocity": 0.2992125984251969,
                    "duration": 0.31358850000003713
                },
                {
                    "name": "D#4",
                    "midi": 63,
                    "time": 164.63396250000383,
                    "velocity": 0.2204724409448819,
                    "duration": 0.10452950000001238
                },
                {
                    "name": "G4",
                    "midi": 67,
                    "time": 164.73849200000384,
                    "velocity": 0.2125984251968504,
                    "duration": 0.10452950000001238
                },
                {
                    "name": "B3",
                    "midi": 59,
                    "time": 164.84302150000386,
                    "velocity": 0.2125984251968504,
                    "duration": 0.10452950000001238
                },
                {
                    "name": "B4",
                    "midi": 71,
                    "time": 164.84302150000386,
                    "velocity": 0.2992125984251969,
                    "duration": 0.31358850000003713
                },
                {
                    "name": "D4",
                    "midi": 62,
                    "time": 164.94755100000387,
                    "velocity": 0.1889763779527559,
                    "duration": 0.10452950000001238
                },
                {
                    "name": "G4",
                    "midi": 67,
                    "time": 165.05208050000388,
                    "velocity": 0.1889763779527559,
                    "duration": 0.10452950000001238
                },
                {
                    "name": "A#3",
                    "midi": 58,
                    "time": 165.1566100000039,
                    "velocity": 0.23622047244094488,
                    "duration": 0.10452950000001238
                },
                {
                    "name": "A#4",
                    "midi": 70,
                    "time": 165.1566100000039,
                    "velocity": 0.2992125984251969,
                    "duration": 0.31358850000003713
                },
                {
                    "name": "C#4",
                    "midi": 61,
                    "time": 165.2611395000039,
                    "velocity": 0.2047244094488189,
                    "duration": 0.10452950000001238
                },
                {
                    "name": "F4",
                    "midi": 65,
                    "time": 165.36566900000392,
                    "velocity": 0.2047244094488189,
                    "duration": 0.10452950000001238
                },
                {
                    "name": "G#3",
                    "midi": 56,
                    "time": 165.47019850000393,
                    "velocity": 0.23622047244094488,
                    "duration": 0.10452950000001238
                },
                {
                    "name": "G#4",
                    "midi": 68,
                    "time": 165.47019850000393,
                    "velocity": 0.28346456692913385,
                    "duration": 0.31358850000003713
                },
                {
                    "name": "C#4",
                    "midi": 61,
                    "time": 165.57472800000394,
                    "velocity": 0.1968503937007874,
                    "duration": 0.10452950000001238
                },
                {
                    "name": "F4",
                    "midi": 65,
                    "time": 165.67925750000396,
                    "velocity": 0.1968503937007874,
                    "duration": 0.10452950000001238
                },
                {
                    "name": "G3",
                    "midi": 55,
                    "time": 165.78378700000397,
                    "velocity": 0.2204724409448819,
                    "duration": 0.10452950000001238
                },
                {
                    "name": "G4",
                    "midi": 67,
                    "time": 165.78378700000397,
                    "velocity": 0.2677165354330709,
                    "duration": 0.31358850000003713
                },
                {
                    "name": "G#3",
                    "midi": 56,
                    "time": 165.88831650000398,
                    "velocity": 0.1968503937007874,
                    "duration": 0.10452950000001238
                },
                {
                    "name": "C#4",
                    "midi": 61,
                    "time": 165.992846000004,
                    "velocity": 0.1889763779527559,
                    "duration": 0.10452950000001238
                },
                {
                    "name": "F3",
                    "midi": 53,
                    "time": 166.097375500004,
                    "velocity": 0.1968503937007874,
                    "duration": 0.10452950000001238
                },
                {
                    "name": "F4",
                    "midi": 65,
                    "time": 166.097375500004,
                    "velocity": 0.2677165354330709,
                    "duration": 0.31358850000003713
                },
                {
                    "name": "G#3",
                    "midi": 56,
                    "time": 166.20190500000402,
                    "velocity": 0.15748031496062992,
                    "duration": 0.10452950000001238
                },
                {
                    "name": "C#4",
                    "midi": 61,
                    "time": 166.30643450000403,
                    "velocity": 0.15748031496062992,
                    "duration": 0.10452950000001238
                },
                {
                    "name": "B3",
                    "midi": 59,
                    "time": 166.41096400000404,
                    "velocity": 0.31496062992125984,
                    "duration": 0.10452950000001238
                },
                {
                    "name": "D4",
                    "midi": 62,
                    "time": 166.41096400000404,
                    "velocity": 0.3700787401574803,
                    "duration": 0.10452950000001238
                },
                {
                    "name": "D3",
                    "midi": 50,
                    "time": 166.72455250000405,
                    "velocity": 0.2677165354330709,
                    "duration": 0.10452950000001238
                },
                {
                    "name": "C3",
                    "midi": 48,
                    "time": 166.93361150000408,
                    "velocity": 0.2755905511811024,
                    "duration": 0.10452950000001238
                },
                {
                    "name": "B2",
                    "midi": 47,
                    "time": 167.1426705000041,
                    "velocity": 0.28346456692913385,
                    "duration": 0.10452950000001238
                },
                {
                    "name": "G#2",
                    "midi": 44,
                    "time": 167.35172950000413,
                    "velocity": 0.28346456692913385,
                    "duration": 0.10452950000001238
                },
                {
                    "name": "G2",
                    "midi": 43,
                    "time": 167.56078850000415,
                    "velocity": 0.29133858267716534,
                    "duration": 0.10452950000001238
                },
                {
                    "name": "G#3",
                    "midi": 56,
                    "time": 167.76984750000418,
                    "velocity": 0.2992125984251969,
                    "duration": 0.10452950000001238
                },
                {
                    "name": "G3",
                    "midi": 55,
                    "time": 167.9789065000042,
                    "velocity": 0.30708661417322836,
                    "duration": 0.10452950000001238
                },
                {
                    "name": "F3",
                    "midi": 53,
                    "time": 168.18796550000422,
                    "velocity": 0.31496062992125984,
                    "duration": 0.10452950000001238
                },
                {
                    "name": "D#3",
                    "midi": 51,
                    "time": 168.39702450000425,
                    "velocity": 0.31496062992125984,
                    "duration": 0.10452950000001238
                },
                {
                    "name": "C#3",
                    "midi": 49,
                    "time": 168.60608350000427,
                    "velocity": 0.33070866141732286,
                    "duration": 0.10452950000001238
                },
                {
                    "name": "G#3",
                    "midi": 56,
                    "time": 168.7106130000043,
                    "velocity": 0.33070866141732286,
                    "duration": 0.10452950000001238
                },
                {
                    "name": "C#4",
                    "midi": 61,
                    "time": 168.7106130000043,
                    "velocity": 0.33070866141732286,
                    "duration": 0.10452950000001238
                },
                {
                    "name": "F4",
                    "midi": 65,
                    "time": 168.7106130000043,
                    "velocity": 0.3937007874015748,
                    "duration": 0.10452950000001238
                },
                {
                    "name": "B3",
                    "midi": 59,
                    "time": 168.9196720000043,
                    "velocity": 0.33858267716535434,
                    "duration": 0.10452950000001238
                },
                {
                    "name": "G3",
                    "midi": 55,
                    "time": 168.9196720000043,
                    "velocity": 0.33858267716535434,
                    "duration": 0.10452950000001238
                },
                {
                    "name": "G4",
                    "midi": 67,
                    "time": 168.9196720000043,
                    "velocity": 0.4015748031496063,
                    "duration": 0.10452950000001238
                },
                {
                    "name": "D3",
                    "midi": 50,
                    "time": 169.23326050000432,
                    "velocity": 0.2677165354330709,
                    "duration": 0.10452950000001238
                },
                {
                    "name": "C3",
                    "midi": 48,
                    "time": 169.44231950000434,
                    "velocity": 0.2755905511811024,
                    "duration": 0.10452950000001238
                },
                {
                    "name": "B2",
                    "midi": 47,
                    "time": 169.65137850000437,
                    "velocity": 0.28346456692913385,
                    "duration": 0.10452950000001238
                },
                {
                    "name": "G#2",
                    "midi": 44,
                    "time": 169.8604375000044,
                    "velocity": 0.28346456692913385,
                    "duration": 0.10452950000001238
                },
                {
                    "name": "G2",
                    "midi": 43,
                    "time": 170.06949650000442,
                    "velocity": 0.29133858267716534,
                    "duration": 0.10452950000001238
                },
                {
                    "name": "G#3",
                    "midi": 56,
                    "time": 170.27855550000444,
                    "velocity": 0.2992125984251969,
                    "duration": 0.10452950000001238
                },
                {
                    "name": "G3",
                    "midi": 55,
                    "time": 170.48761450000447,
                    "velocity": 0.30708661417322836,
                    "duration": 0.10452950000001238
                },
                {
                    "name": "F3",
                    "midi": 53,
                    "time": 170.6966735000045,
                    "velocity": 0.31496062992125984,
                    "duration": 0.10452950000001238
                },
                {
                    "name": "D#3",
                    "midi": 51,
                    "time": 170.90573250000452,
                    "velocity": 0.31496062992125984,
                    "duration": 0.10452950000001238
                },
                {
                    "name": "C#3",
                    "midi": 49,
                    "time": 171.11479150000454,
                    "velocity": 0.33070866141732286,
                    "duration": 0.10452950000001238
                },
                {
                    "name": "G#3",
                    "midi": 56,
                    "time": 171.21932100000456,
                    "velocity": 0.33070866141732286,
                    "duration": 0.10452950000001238
                },
                {
                    "name": "C#4",
                    "midi": 61,
                    "time": 171.21932100000456,
                    "velocity": 0.33070866141732286,
                    "duration": 0.10452950000001238
                },
                {
                    "name": "F4",
                    "midi": 65,
                    "time": 171.21932100000456,
                    "velocity": 0.3937007874015748,
                    "duration": 0.10452950000001238
                },
                {
                    "name": "C4",
                    "midi": 60,
                    "time": 171.42838000000458,
                    "velocity": 0.33858267716535434,
                    "duration": 0.10452950000001238
                },
                {
                    "name": "G#3",
                    "midi": 56,
                    "time": 171.42838000000458,
                    "velocity": 0.33858267716535434,
                    "duration": 0.10452950000001238
                },
                {
                    "name": "G#4",
                    "midi": 68,
                    "time": 171.42838000000458,
                    "velocity": 0.4015748031496063,
                    "duration": 0.10452950000001238
                },
                {
                    "name": "D#3",
                    "midi": 51,
                    "time": 171.7419685000046,
                    "velocity": 0.2677165354330709,
                    "duration": 0.10452950000001238
                },
                {
                    "name": "C#3",
                    "midi": 49,
                    "time": 171.9510275000046,
                    "velocity": 0.2755905511811024,
                    "duration": 0.10452950000001238
                },
                {
                    "name": "C3",
                    "midi": 48,
                    "time": 172.16008650000464,
                    "velocity": 0.28346456692913385,
                    "duration": 0.10452950000001238
                },
                {
                    "name": "A#2",
                    "midi": 46,
                    "time": 172.36914550000466,
                    "velocity": 0.28346456692913385,
                    "duration": 0.10452950000001238
                },
                {
                    "name": "G#2",
                    "midi": 44,
                    "time": 172.5782045000047,
                    "velocity": 0.29133858267716534,
                    "duration": 0.10278734166666936
                },
                {
                    "name": "G#3",
                    "midi": 56,
                    "time": 172.78726350000468,
                    "velocity": 0.2992125984251969,
                    "duration": 0.10452950000001238
                },
                {
                    "name": "F#3",
                    "midi": 54,
                    "time": 172.9963225000047,
                    "velocity": 0.30708661417322836,
                    "duration": 0.10452950000001238
                },
                {
                    "name": "E3",
                    "midi": 52,
                    "time": 173.20538150000473,
                    "velocity": 0.31496062992125984,
                    "duration": 0.10452950000001238
                },
                {
                    "name": "D#3",
                    "midi": 51,
                    "time": 173.41444050000476,
                    "velocity": 0.31496062992125984,
                    "duration": 0.10452950000001238
                },
                {
                    "name": "C#3",
                    "midi": 49,
                    "time": 173.62349950000478,
                    "velocity": 0.33070866141732286,
                    "duration": 0.10452950000001238
                },
                {
                    "name": "G#3",
                    "midi": 56,
                    "time": 173.7280290000048,
                    "velocity": 0.33070866141732286,
                    "duration": 0.10452950000001238
                },
                {
                    "name": "C#4",
                    "midi": 61,
                    "time": 173.7280290000048,
                    "velocity": 0.33070866141732286,
                    "duration": 0.10452950000001238
                },
                {
                    "name": "E4",
                    "midi": 64,
                    "time": 173.7280290000048,
                    "velocity": 0.3937007874015748,
                    "duration": 0.10452950000001238
                },
                {
                    "name": "C#4",
                    "midi": 61,
                    "time": 173.93708800000482,
                    "velocity": 0.33858267716535434,
                    "duration": 0.10452950000001238
                },
                {
                    "name": "A3",
                    "midi": 57,
                    "time": 173.93708800000482,
                    "velocity": 0.33858267716535434,
                    "duration": 0.10452950000001238
                },
                {
                    "name": "A4",
                    "midi": 69,
                    "time": 173.93708800000482,
                    "velocity": 0.4015748031496063,
                    "duration": 0.10452950000001238
                },
                {
                    "name": "E3",
                    "midi": 52,
                    "time": 174.25067650000483,
                    "velocity": 0.2677165354330709,
                    "duration": 0.10452950000001238
                },
                {
                    "name": "D3",
                    "midi": 50,
                    "time": 174.45973550000485,
                    "velocity": 0.2755905511811024,
                    "duration": 0.10452950000001238
                },
                {
                    "name": "C#3",
                    "midi": 49,
                    "time": 174.66879450000488,
                    "velocity": 0.28346456692913385,
                    "duration": 0.10452950000001238
                },
                {
                    "name": "A#2",
                    "midi": 46,
                    "time": 174.8778535000049,
                    "velocity": 0.28346456692913385,
                    "duration": 0.10452950000001238
                },
                {
                    "name": "A2",
                    "midi": 45,
                    "time": 175.08691250000493,
                    "velocity": 0.29133858267716534,
                    "duration": 0.10278734166666936
                },
                {
                    "name": "A3",
                    "midi": 57,
                    "time": 175.29597150000492,
                    "velocity": 0.2992125984251969,
                    "duration": 0.10452950000001238
                },
                {
                    "name": "G3",
                    "midi": 55,
                    "time": 175.50503050000495,
                    "velocity": 0.30708661417322836,
                    "duration": 0.10452950000001238
                },
                {
                    "name": "F3",
                    "midi": 53,
                    "time": 175.71408950000497,
                    "velocity": 0.31496062992125984,
                    "duration": 0.10452950000001238
                },
                {
                    "name": "E3",
                    "midi": 52,
                    "time": 175.923148500005,
                    "velocity": 0.31496062992125984,
                    "duration": 0.10452950000001238
                },
                {
                    "name": "D3",
                    "midi": 50,
                    "time": 176.13220750000502,
                    "velocity": 0.33070866141732286,
                    "duration": 0.10452950000001238
                },
                {
                    "name": "A3",
                    "midi": 57,
                    "time": 176.23673700000504,
                    "velocity": 0.33070866141732286,
                    "duration": 0.10452950000001238
                },
                {
                    "name": "D4",
                    "midi": 62,
                    "time": 176.23673700000504,
                    "velocity": 0.33070866141732286,
                    "duration": 0.10452950000001238
                },
                {
                    "name": "F4",
                    "midi": 65,
                    "time": 176.23673700000504,
                    "velocity": 0.3937007874015748,
                    "duration": 0.10452950000001238
                },
                {
                    "name": "D4",
                    "midi": 62,
                    "time": 176.44579600000506,
                    "velocity": 0.33858267716535434,
                    "duration": 0.10452950000001238
                },
                {
                    "name": "A#3",
                    "midi": 58,
                    "time": 176.44579600000506,
                    "velocity": 0.33858267716535434,
                    "duration": 0.10452950000001238
                },
                {
                    "name": "A#4",
                    "midi": 70,
                    "time": 176.44579600000506,
                    "velocity": 0.4015748031496063,
                    "duration": 0.10452950000001238
                },
                {
                    "name": "F3",
                    "midi": 53,
                    "time": 176.75938450000507,
                    "velocity": 0.2677165354330709,
                    "duration": 0.10452950000001238
                },
                {
                    "name": "D#3",
                    "midi": 51,
                    "time": 176.9684435000051,
                    "velocity": 0.2755905511811024,
                    "duration": 0.10452950000001238
                },
                {
                    "name": "D3",
                    "midi": 50,
                    "time": 177.17750250000512,
                    "velocity": 0.28346456692913385,
                    "duration": 0.10452950000001238
                },
                {
                    "name": "B2",
                    "midi": 47,
                    "time": 177.38656150000514,
                    "velocity": 0.28346456692913385,
                    "duration": 0.10452950000001238
                },
                {
                    "name": "A#2",
                    "midi": 46,
                    "time": 177.59562050000517,
                    "velocity": 0.29133858267716534,
                    "duration": 0.10452950000001238
                },
                {
                    "name": "D#4",
                    "midi": 63,
                    "time": 177.70015000000518,
                    "velocity": 0.33858267716535434,
                    "duration": 0.10452950000001238
                },
                {
                    "name": "A#3",
                    "midi": 58,
                    "time": 177.70015000000518,
                    "velocity": 0.33858267716535434,
                    "duration": 0.10452950000001238
                },
                {
                    "name": "A#4",
                    "midi": 70,
                    "time": 177.70015000000518,
                    "velocity": 0.4094488188976378,
                    "duration": 0.10452950000001238
                },
                {
                    "name": "F#3",
                    "midi": 54,
                    "time": 178.0137385000052,
                    "velocity": 0.2755905511811024,
                    "duration": 0.10452950000001238
                },
                {
                    "name": "F3",
                    "midi": 53,
                    "time": 178.2227975000052,
                    "velocity": 0.28346456692913385,
                    "duration": 0.10452950000001238
                },
                {
                    "name": "D#3",
                    "midi": 51,
                    "time": 178.43185650000524,
                    "velocity": 0.28346456692913385,
                    "duration": 0.10452950000001238
                },
                {
                    "name": "B2",
                    "midi": 47,
                    "time": 178.64091550000526,
                    "velocity": 0.29133858267716534,
                    "duration": 0.10452950000001238
                },
                {
                    "name": "A#2",
                    "midi": 46,
                    "time": 178.8499745000053,
                    "velocity": 0.2992125984251969,
                    "duration": 0.10452950000001238
                },
                {
                    "name": "F4",
                    "midi": 65,
                    "time": 178.9545040000053,
                    "velocity": 0.3543307086614173,
                    "duration": 0.10452950000001238
                },
                {
                    "name": "D4",
                    "midi": 62,
                    "time": 178.9545040000053,
                    "velocity": 0.3543307086614173,
                    "duration": 0.10452950000001238
                },
                {
                    "name": "D5",
                    "midi": 74,
                    "time": 178.9545040000053,
                    "velocity": 0.41732283464566927,
                    "duration": 0.10452950000001238
                },
                {
                    "name": "G#3",
                    "midi": 56,
                    "time": 179.2680925000053,
                    "velocity": 0.2755905511811024,
                    "duration": 0.10452950000001238
                },
                {
                    "name": "F3",
                    "midi": 53,
                    "time": 179.47715150000533,
                    "velocity": 0.28346456692913385,
                    "duration": 0.10452950000001238
                },
                {
                    "name": "D3",
                    "midi": 50,
                    "time": 179.68621050000536,
                    "velocity": 0.29133858267716534,
                    "duration": 0.10452950000001238
                },
                {
                    "name": "C#3",
                    "midi": 49,
                    "time": 179.89526950000538,
                    "velocity": 0.2992125984251969,
                    "duration": 0.10452950000001238
                },
                {
                    "name": "B2",
                    "midi": 47,
                    "time": 180.1043285000054,
                    "velocity": 0.30708661417322836,
                    "duration": 0.10452950000001238
                },
                {
                    "name": "A4",
                    "midi": 69,
                    "time": 180.20885800000542,
                    "velocity": 0.3543307086614173,
                    "duration": 0.10452950000001238
                },
                {
                    "name": "F#4",
                    "midi": 66,
                    "time": 180.20885800000542,
                    "velocity": 0.3543307086614173,
                    "duration": 0.10452950000001238
                },
                {
                    "name": "F#5",
                    "midi": 78,
                    "time": 180.20885800000542,
                    "velocity": 0.4251968503937008,
                    "duration": 0.10452950000001238
                },
                {
                    "name": "A3",
                    "midi": 57,
                    "time": 180.52244650000543,
                    "velocity": 0.28346456692913385,
                    "duration": 0.10452950000001238
                },
                {
                    "name": "G#3",
                    "midi": 56,
                    "time": 180.73150550000545,
                    "velocity": 0.29133858267716534,
                    "duration": 0.10452950000001238
                },
                {
                    "name": "F#3",
                    "midi": 54,
                    "time": 180.94056450000548,
                    "velocity": 0.2992125984251969,
                    "duration": 0.10452950000001238
                },
                {
                    "name": "D#3",
                    "midi": 51,
                    "time": 181.1496235000055,
                    "velocity": 0.30708661417322836,
                    "duration": 0.10452950000001238
                },
                {
                    "name": "C3",
                    "midi": 48,
                    "time": 181.35868250000553,
                    "velocity": 0.31496062992125984,
                    "duration": 0.10452950000001238
                },
                {
                    "name": "C#5",
                    "midi": 73,
                    "time": 181.46321200000554,
                    "velocity": 0.29133858267716534,
                    "duration": 0.20905899999999633
                },
                {
                    "name": "F#5",
                    "midi": 78,
                    "time": 181.46321200000554,
                    "velocity": 0.29133858267716534,
                    "duration": 0.20905899999999633
                },
                {
                    "name": "A5",
                    "midi": 81,
                    "time": 181.46321200000554,
                    "velocity": 0.41732283464566927,
                    "duration": 0.20905899999999633
                },
                {
                    "name": "A4",
                    "midi": 69,
                    "time": 181.77680050000555,
                    "velocity": 0.25984251968503935,
                    "duration": 0.05226475000000619
                },
                {
                    "name": "F#5",
                    "midi": 78,
                    "time": 181.77680050000555,
                    "velocity": 0.33858267716535434,
                    "duration": 0.05226475000000619
                },
                {
                    "name": "C#5",
                    "midi": 73,
                    "time": 181.77680050000555,
                    "velocity": 0.25984251968503935,
                    "duration": 0.05226475000000619
                },
                {
                    "name": "A4",
                    "midi": 69,
                    "time": 181.88133000000556,
                    "velocity": 0.25984251968503935,
                    "duration": 0.10452950000001238
                },
                {
                    "name": "C#5",
                    "midi": 73,
                    "time": 181.88133000000556,
                    "velocity": 0.25984251968503935,
                    "duration": 0.10452950000001238
                },
                {
                    "name": "F#5",
                    "midi": 78,
                    "time": 181.88133000000556,
                    "velocity": 0.33858267716535434,
                    "duration": 0.10452950000001238
                },
                {
                    "name": "F#4",
                    "midi": 66,
                    "time": 182.0903890000056,
                    "velocity": 0.29133858267716534,
                    "duration": 0.10452950000001238
                },
                {
                    "name": "A4",
                    "midi": 69,
                    "time": 182.0903890000056,
                    "velocity": 0.29133858267716534,
                    "duration": 0.10452950000001238
                },
                {
                    "name": "C#5",
                    "midi": 73,
                    "time": 182.0903890000056,
                    "velocity": 0.3858267716535433,
                    "duration": 0.10452950000001238
                },
                {
                    "name": "C#4",
                    "midi": 61,
                    "time": 182.4039775000056,
                    "velocity": 0.2677165354330709,
                    "duration": 0.05226475000000619
                },
                {
                    "name": "A4",
                    "midi": 69,
                    "time": 182.4039775000056,
                    "velocity": 0.3464566929133858,
                    "duration": 0.05226475000000619
                },
                {
                    "name": "F#4",
                    "midi": 66,
                    "time": 182.4039775000056,
                    "velocity": 0.2677165354330709,
                    "duration": 0.05226475000000619
                },
                {
                    "name": "C#4",
                    "midi": 61,
                    "time": 182.5085070000056,
                    "velocity": 0.2677165354330709,
                    "duration": 0.10452950000001238
                },
                {
                    "name": "A4",
                    "midi": 69,
                    "time": 182.5085070000056,
                    "velocity": 0.3464566929133858,
                    "duration": 0.10452950000001238
                },
                {
                    "name": "F#4",
                    "midi": 66,
                    "time": 182.5085070000056,
                    "velocity": 0.2677165354330709,
                    "duration": 0.10452950000001238
                },
                {
                    "name": "D3",
                    "midi": 50,
                    "time": 182.82209550000562,
                    "velocity": 0.2992125984251969,
                    "duration": 0.10452950000001238
                },
                {
                    "name": "A3",
                    "midi": 57,
                    "time": 183.03115450000564,
                    "velocity": 0.33858267716535434,
                    "duration": 0.10452950000001238
                },
                {
                    "name": "G3",
                    "midi": 55,
                    "time": 183.24021350000567,
                    "velocity": 0.3543307086614173,
                    "duration": 0.10452950000001238
                },
                {
                    "name": "F#3",
                    "midi": 54,
                    "time": 183.4492725000057,
                    "velocity": 0.33070866141732286,
                    "duration": 0.10452950000001238
                },
                {
                    "name": "E3",
                    "midi": 52,
                    "time": 183.65833150000572,
                    "velocity": 0.30708661417322836,
                    "duration": 0.10452950000001238
                },
                {
                    "name": "D3",
                    "midi": 50,
                    "time": 183.86739050000574,
                    "velocity": 0.28346456692913385,
                    "duration": 0.10452950000001238
                },
                {
                    "name": "D5",
                    "midi": 74,
                    "time": 183.97192000000575,
                    "velocity": 0.29133858267716534,
                    "duration": 0.20905899999999633
                },
                {
                    "name": "G5",
                    "midi": 79,
                    "time": 183.97192000000575,
                    "velocity": 0.29133858267716534,
                    "duration": 0.20905899999999633
                },
                {
                    "name": "A#5",
                    "midi": 82,
                    "time": 183.97192000000575,
                    "velocity": 0.41732283464566927,
                    "duration": 0.20905899999999633
                },
                {
                    "name": "A#4",
                    "midi": 70,
                    "time": 184.28550850000576,
                    "velocity": 0.25984251968503935,
                    "duration": 0.05226475000000619
                },
                {
                    "name": "G5",
                    "midi": 79,
                    "time": 184.28550850000576,
                    "velocity": 0.33858267716535434,
                    "duration": 0.05226475000000619
                },
                {
                    "name": "D5",
                    "midi": 74,
                    "time": 184.28550850000576,
                    "velocity": 0.25984251968503935,
                    "duration": 0.05226475000000619
                },
                {
                    "name": "A#4",
                    "midi": 70,
                    "time": 184.39003800000577,
                    "velocity": 0.25984251968503935,
                    "duration": 0.10452950000001238
                },
                {
                    "name": "D5",
                    "midi": 74,
                    "time": 184.39003800000577,
                    "velocity": 0.25984251968503935,
                    "duration": 0.10452950000001238
                },
                {
                    "name": "G5",
                    "midi": 79,
                    "time": 184.39003800000577,
                    "velocity": 0.33858267716535434,
                    "duration": 0.10452950000001238
                },
                {
                    "name": "G4",
                    "midi": 67,
                    "time": 184.5990970000058,
                    "velocity": 0.29133858267716534,
                    "duration": 0.10452950000001238
                },
                {
                    "name": "A#4",
                    "midi": 70,
                    "time": 184.5990970000058,
                    "velocity": 0.29133858267716534,
                    "duration": 0.10452950000001238
                },
                {
                    "name": "D5",
                    "midi": 74,
                    "time": 184.5990970000058,
                    "velocity": 0.3858267716535433,
                    "duration": 0.10452950000001238
                },
                {
                    "name": "D4",
                    "midi": 62,
                    "time": 184.9126855000058,
                    "velocity": 0.2677165354330709,
                    "duration": 0.05226475000000619
                },
                {
                    "name": "A#4",
                    "midi": 70,
                    "time": 184.9126855000058,
                    "velocity": 0.3464566929133858,
                    "duration": 0.05226475000000619
                },
                {
                    "name": "G4",
                    "midi": 67,
                    "time": 184.9126855000058,
                    "velocity": 0.2677165354330709,
                    "duration": 0.05226475000000619
                },
                {
                    "name": "D4",
                    "midi": 62,
                    "time": 185.01721500000582,
                    "velocity": 0.2677165354330709,
                    "duration": 0.10452950000001238
                },
                {
                    "name": "A#4",
                    "midi": 70,
                    "time": 185.01721500000582,
                    "velocity": 0.3464566929133858,
                    "duration": 0.10452950000001238
                },
                {
                    "name": "G4",
                    "midi": 67,
                    "time": 185.01721500000582,
                    "velocity": 0.2677165354330709,
                    "duration": 0.10452950000001238
                },
                {
                    "name": "D#3",
                    "midi": 51,
                    "time": 185.33080350000583,
                    "velocity": 0.2992125984251969,
                    "duration": 0.10452950000001238
                },
                {
                    "name": "A#3",
                    "midi": 58,
                    "time": 185.53986250000585,
                    "velocity": 0.33858267716535434,
                    "duration": 0.10452950000001238
                },
                {
                    "name": "G#3",
                    "midi": 56,
                    "time": 185.74892150000588,
                    "velocity": 0.3543307086614173,
                    "duration": 0.10452950000001238
                },
                {
                    "name": "G3",
                    "midi": 55,
                    "time": 185.9579805000059,
                    "velocity": 0.33070866141732286,
                    "duration": 0.10452950000001238
                },
                {
                    "name": "F3",
                    "midi": 53,
                    "time": 186.16703950000593,
                    "velocity": 0.30708661417322836,
                    "duration": 0.10452950000001238
                },
                {
                    "name": "D#3",
                    "midi": 51,
                    "time": 186.37609850000595,
                    "velocity": 0.28346456692913385,
                    "duration": 0.10452950000001238
                },
                {
                    "name": "D#5",
                    "midi": 75,
                    "time": 186.48062800000596,
                    "velocity": 0.3228346456692913,
                    "duration": 0.20905899999999633
                },
                {
                    "name": "G#5",
                    "midi": 80,
                    "time": 186.48062800000596,
                    "velocity": 0.3228346456692913,
                    "duration": 0.20905899999999633
                },
                {
                    "name": "B5",
                    "midi": 83,
                    "time": 186.48062800000596,
                    "velocity": 0.44881889763779526,
                    "duration": 0.20905899999999633
                },
                {
                    "name": "B4",
                    "midi": 71,
                    "time": 186.79421650000597,
                    "velocity": 0.28346456692913385,
                    "duration": 0.05226475000000619
                },
                {
                    "name": "G#5",
                    "midi": 80,
                    "time": 186.79421650000597,
                    "velocity": 0.36220472440944884,
                    "duration": 0.05226475000000619
                },
                {
                    "name": "D#5",
                    "midi": 75,
                    "time": 186.79421650000597,
                    "velocity": 0.28346456692913385,
                    "duration": 0.05226475000000619
                },
                {
                    "name": "B4",
                    "midi": 71,
                    "time": 186.89874600000599,
                    "velocity": 0.28346456692913385,
                    "duration": 0.10452950000001238
                },
                {
                    "name": "D#5",
                    "midi": 75,
                    "time": 186.89874600000599,
                    "velocity": 0.28346456692913385,
                    "duration": 0.10452950000001238
                },
                {
                    "name": "G#5",
                    "midi": 80,
                    "time": 186.89874600000599,
                    "velocity": 0.36220472440944884,
                    "duration": 0.10452950000001238
                },
                {
                    "name": "G#4",
                    "midi": 68,
                    "time": 187.107805000006,
                    "velocity": 0.3228346456692913,
                    "duration": 0.10452950000001238
                },
                {
                    "name": "B4",
                    "midi": 71,
                    "time": 187.107805000006,
                    "velocity": 0.3228346456692913,
                    "duration": 0.10452950000001238
                },
                {
                    "name": "D#5",
                    "midi": 75,
                    "time": 187.107805000006,
                    "velocity": 0.4251968503937008,
                    "duration": 0.10452950000001238
                },
                {
                    "name": "D#4",
                    "midi": 63,
                    "time": 187.42139350000602,
                    "velocity": 0.28346456692913385,
                    "duration": 0.05226475000000619
                },
                {
                    "name": "B4",
                    "midi": 71,
                    "time": 187.42139350000602,
                    "velocity": 0.3700787401574803,
                    "duration": 0.05226475000000619
                },
                {
                    "name": "G#4",
                    "midi": 68,
                    "time": 187.42139350000602,
                    "velocity": 0.28346456692913385,
                    "duration": 0.05226475000000619
                },
                {
                    "name": "D#4",
                    "midi": 63,
                    "time": 187.52592300000603,
                    "velocity": 0.28346456692913385,
                    "duration": 0.10452950000001238
                },
                {
                    "name": "B4",
                    "midi": 71,
                    "time": 187.52592300000603,
                    "velocity": 0.3700787401574803,
                    "duration": 0.10452950000001238
                },
                {
                    "name": "G#4",
                    "midi": 68,
                    "time": 187.52592300000603,
                    "velocity": 0.28346456692913385,
                    "duration": 0.10452950000001238
                },
                {
                    "name": "E5",
                    "midi": 76,
                    "time": 187.73498200000606,
                    "velocity": 0.3543307086614173,
                    "duration": 0.20905899999999633
                },
                {
                    "name": "G#5",
                    "midi": 80,
                    "time": 187.73498200000606,
                    "velocity": 0.3543307086614173,
                    "duration": 0.20905899999999633
                },
                {
                    "name": "E6",
                    "midi": 88,
                    "time": 187.73498200000606,
                    "velocity": 0.49606299212598426,
                    "duration": 0.20905899999999633
                },
                {
                    "name": "B4",
                    "midi": 71,
                    "time": 188.04857050000606,
                    "velocity": 0.30708661417322836,
                    "duration": 0.05226475000000619
                },
                {
                    "name": "B5",
                    "midi": 83,
                    "time": 188.04857050000606,
                    "velocity": 0.4094488188976378,
                    "duration": 0.05226475000000619
                },
                {
                    "name": "E5",
                    "midi": 76,
                    "time": 188.04857050000606,
                    "velocity": 0.30708661417322836,
                    "duration": 0.05226475000000619
                },
                {
                    "name": "B4",
                    "midi": 71,
                    "time": 188.15310000000608,
                    "velocity": 0.30708661417322836,
                    "duration": 0.10452950000001238
                },
                {
                    "name": "E5",
                    "midi": 76,
                    "time": 188.15310000000608,
                    "velocity": 0.30708661417322836,
                    "duration": 0.10452950000001238
                },
                {
                    "name": "B5",
                    "midi": 83,
                    "time": 188.15310000000608,
                    "velocity": 0.4094488188976378,
                    "duration": 0.10452950000001238
                },
                {
                    "name": "G#4",
                    "midi": 68,
                    "time": 188.3621590000061,
                    "velocity": 0.3543307086614173,
                    "duration": 0.10452950000001238
                },
                {
                    "name": "B4",
                    "midi": 71,
                    "time": 188.3621590000061,
                    "velocity": 0.3543307086614173,
                    "duration": 0.10452950000001238
                },
                {
                    "name": "G#5",
                    "midi": 80,
                    "time": 188.3621590000061,
                    "velocity": 0.47244094488188976,
                    "duration": 0.10452950000001238
                },
                {
                    "name": "E4",
                    "midi": 64,
                    "time": 188.6757475000061,
                    "velocity": 0.31496062992125984,
                    "duration": 0.05226475000000619
                },
                {
                    "name": "E5",
                    "midi": 76,
                    "time": 188.6757475000061,
                    "velocity": 0.41732283464566927,
                    "duration": 0.05226475000000619
                },
                {
                    "name": "G#4",
                    "midi": 68,
                    "time": 188.6757475000061,
                    "velocity": 0.31496062992125984,
                    "duration": 0.05226475000000619
                },
                {
                    "name": "E4",
                    "midi": 64,
                    "time": 188.78027700000612,
                    "velocity": 0.3228346456692913,
                    "duration": 0.10452950000001238
                },
                {
                    "name": "E5",
                    "midi": 76,
                    "time": 188.78027700000612,
                    "velocity": 0.41732283464566927,
                    "duration": 0.10452950000001238
                },
                {
                    "name": "G#4",
                    "midi": 68,
                    "time": 188.78027700000612,
                    "velocity": 0.3228346456692913,
                    "duration": 0.10452950000001238
                },
                {
                    "name": "E5",
                    "midi": 76,
                    "time": 188.98933600000615,
                    "velocity": 0.3700787401574803,
                    "duration": 0.20905899999999633
                },
                {
                    "name": "A5",
                    "midi": 81,
                    "time": 188.98933600000615,
                    "velocity": 0.3700787401574803,
                    "duration": 0.20905899999999633
                },
                {
                    "name": "E6",
                    "midi": 88,
                    "time": 188.98933600000615,
                    "velocity": 0.5275590551181102,
                    "duration": 0.20905899999999633
                },
                {
                    "name": "C5",
                    "midi": 72,
                    "time": 189.30292450000616,
                    "velocity": 0.33070866141732286,
                    "duration": 0.05226475000000619
                },
                {
                    "name": "C6",
                    "midi": 84,
                    "time": 189.30292450000616,
                    "velocity": 0.4251968503937008,
                    "duration": 0.05226475000000619
                },
                {
                    "name": "E5",
                    "midi": 76,
                    "time": 189.30292450000616,
                    "velocity": 0.33070866141732286,
                    "duration": 0.05226475000000619
                },
                {
                    "name": "C5",
                    "midi": 72,
                    "time": 189.40745400000617,
                    "velocity": 0.33070866141732286,
                    "duration": 0.10452950000001238
                },
                {
                    "name": "E5",
                    "midi": 76,
                    "time": 189.40745400000617,
                    "velocity": 0.33070866141732286,
                    "duration": 0.10452950000001238
                },
                {
                    "name": "C6",
                    "midi": 84,
                    "time": 189.40745400000617,
                    "velocity": 0.4251968503937008,
                    "duration": 0.10452950000001238
                },
                {
                    "name": "A4",
                    "midi": 69,
                    "time": 189.6165130000062,
                    "velocity": 0.3779527559055118,
                    "duration": 0.10452950000001238
                },
                {
                    "name": "C5",
                    "midi": 72,
                    "time": 189.6165130000062,
                    "velocity": 0.3779527559055118,
                    "duration": 0.10452950000001238
                },
                {
                    "name": "A5",
                    "midi": 81,
                    "time": 189.6165130000062,
                    "velocity": 0.49606299212598426,
                    "duration": 0.10452950000001238
                },
                {
                    "name": "E4",
                    "midi": 64,
                    "time": 189.9301015000062,
                    "velocity": 0.33858267716535434,
                    "duration": 0.05226475000000619
                },
                {
                    "name": "E5",
                    "midi": 76,
                    "time": 189.9301015000062,
                    "velocity": 0.4330708661417323,
                    "duration": 0.05226475000000619
                },
                {
                    "name": "A4",
                    "midi": 69,
                    "time": 189.9301015000062,
                    "velocity": 0.33858267716535434,
                    "duration": 0.05226475000000619
                },
                {
                    "name": "E4",
                    "midi": 64,
                    "time": 190.03463100000621,
                    "velocity": 0.33858267716535434,
                    "duration": 0.10452950000001238
                },
                {
                    "name": "E5",
                    "midi": 76,
                    "time": 190.03463100000621,
                    "velocity": 0.4330708661417323,
                    "duration": 0.10452950000001238
                },
                {
                    "name": "A4",
                    "midi": 69,
                    "time": 190.03463100000621,
                    "velocity": 0.33858267716535434,
                    "duration": 0.10452950000001238
                },
                {
                    "name": "F5",
                    "midi": 77,
                    "time": 190.24369000000624,
                    "velocity": 0.4015748031496063,
                    "duration": 0.20905899999999633
                },
                {
                    "name": "A5",
                    "midi": 81,
                    "time": 190.24369000000624,
                    "velocity": 0.4015748031496063,
                    "duration": 0.20905899999999633
                },
                {
                    "name": "F6",
                    "midi": 89,
                    "time": 190.24369000000624,
                    "velocity": 0.5669291338582677,
                    "duration": 0.20905899999999633
                },
                {
                    "name": "C5",
                    "midi": 72,
                    "time": 190.55727850000625,
                    "velocity": 0.3543307086614173,
                    "duration": 0.05226475000000619
                },
                {
                    "name": "C6",
                    "midi": 84,
                    "time": 190.55727850000625,
                    "velocity": 0.4566929133858268,
                    "duration": 0.05226475000000619
                },
                {
                    "name": "F5",
                    "midi": 77,
                    "time": 190.55727850000625,
                    "velocity": 0.3543307086614173,
                    "duration": 0.05226475000000619
                },
                {
                    "name": "C5",
                    "midi": 72,
                    "time": 190.66180800000626,
                    "velocity": 0.3543307086614173,
                    "duration": 0.10452950000001238
                },
                {
                    "name": "F5",
                    "midi": 77,
                    "time": 190.66180800000626,
                    "velocity": 0.3543307086614173,
                    "duration": 0.10452950000001238
                },
                {
                    "name": "C6",
                    "midi": 84,
                    "time": 190.66180800000626,
                    "velocity": 0.4566929133858268,
                    "duration": 0.10452950000001238
                },
                {
                    "name": "A4",
                    "midi": 69,
                    "time": 190.87086700000629,
                    "velocity": 0.4015748031496063,
                    "duration": 0.10452950000001238
                },
                {
                    "name": "C5",
                    "midi": 72,
                    "time": 190.87086700000629,
                    "velocity": 0.4015748031496063,
                    "duration": 0.10452950000001238
                },
                {
                    "name": "A5",
                    "midi": 81,
                    "time": 190.87086700000629,
                    "velocity": 0.5275590551181102,
                    "duration": 0.10452950000001238
                },
                {
                    "name": "F4",
                    "midi": 65,
                    "time": 191.1844555000063,
                    "velocity": 0.3543307086614173,
                    "duration": 0.05226475000000619
                },
                {
                    "name": "F5",
                    "midi": 77,
                    "time": 191.1844555000063,
                    "velocity": 0.4645669291338583,
                    "duration": 0.05226475000000619
                },
                {
                    "name": "A4",
                    "midi": 69,
                    "time": 191.1844555000063,
                    "velocity": 0.3543307086614173,
                    "duration": 0.05226475000000619
                },
                {
                    "name": "F4",
                    "midi": 65,
                    "time": 191.2889850000063,
                    "velocity": 0.3543307086614173,
                    "duration": 0.10452950000001238
                },
                {
                    "name": "F5",
                    "midi": 77,
                    "time": 191.2889850000063,
                    "velocity": 0.4645669291338583,
                    "duration": 0.10452950000001238
                },
                {
                    "name": "A4",
                    "midi": 69,
                    "time": 191.2889850000063,
                    "velocity": 0.3543307086614173,
                    "duration": 0.10452950000001238
                },
                {
                    "name": "F5",
                    "midi": 77,
                    "time": 191.49804400000633,
                    "velocity": 0.4094488188976378,
                    "duration": 0.20905899999999633
                },
                {
                    "name": "G#5",
                    "midi": 80,
                    "time": 191.49804400000633,
                    "velocity": 0.4094488188976378,
                    "duration": 0.20905899999999633
                },
                {
                    "name": "F6",
                    "midi": 89,
                    "time": 191.49804400000633,
                    "velocity": 0.5669291338582677,
                    "duration": 0.20905899999999633
                },
                {
                    "name": "C#5",
                    "midi": 73,
                    "time": 191.81163250000634,
                    "velocity": 0.3543307086614173,
                    "duration": 0.05226475000000619
                },
                {
                    "name": "C#6",
                    "midi": 85,
                    "time": 191.81163250000634,
                    "velocity": 0.4645669291338583,
                    "duration": 0.05226475000000619
                },
                {
                    "name": "C#5",
                    "midi": 73,
                    "time": 191.91616200000635,
                    "velocity": 0.3543307086614173,
                    "duration": 0.10452950000001238
                },
                {
                    "name": "C#6",
                    "midi": 85,
                    "time": 191.91616200000635,
                    "velocity": 0.4645669291338583,
                    "duration": 0.10452950000001238
                },
                {
                    "name": "A#5",
                    "midi": 82,
                    "time": 192.12522100000638,
                    "velocity": 0.4094488188976378,
                    "duration": 0.10452950000001238
                },
                {
                    "name": "F5",
                    "midi": 77,
                    "time": 192.12522100000638,
                    "velocity": 0.4094488188976378,
                    "duration": 0.10452950000001238
                },
                {
                    "name": "C#6",
                    "midi": 85,
                    "time": 192.12522100000638,
                    "velocity": 0.4094488188976378,
                    "duration": 0.10452950000001238
                },
                {
                    "name": "F6",
                    "midi": 89,
                    "time": 192.12522100000638,
                    "velocity": 0.5433070866141733,
                    "duration": 0.10452950000001238
                },
                {
                    "name": "C#6",
                    "midi": 85,
                    "time": 192.43880950000639,
                    "velocity": 0.47244094488188976,
                    "duration": 0.05226475000000619
                },
                {
                    "name": "C#5",
                    "midi": 73,
                    "time": 192.43880950000639,
                    "velocity": 0.36220472440944884,
                    "duration": 0.05226475000000619
                },
                {
                    "name": "C#6",
                    "midi": 85,
                    "time": 192.5433390000064,
                    "velocity": 0.48031496062992124,
                    "duration": 0.10452950000001238
                },
                {
                    "name": "C#5",
                    "midi": 73,
                    "time": 192.5433390000064,
                    "velocity": 0.36220472440944884,
                    "duration": 0.10452950000001238
                },
                {
                    "name": "C#6",
                    "midi": 85,
                    "time": 192.75239800000642,
                    "velocity": 0.41732283464566927,
                    "duration": 0.20905899999999633
                },
                {
                    "name": "F#5",
                    "midi": 78,
                    "time": 192.75239800000642,
                    "velocity": 0.41732283464566927,
                    "duration": 0.20905899999999633
                },
                {
                    "name": "A#5",
                    "midi": 82,
                    "time": 192.75239800000642,
                    "velocity": 0.41732283464566927,
                    "duration": 0.20905899999999633
                },
                {
                    "name": "F#6",
                    "midi": 90,
                    "time": 192.75239800000642,
                    "velocity": 0.5826771653543307,
                    "duration": 0.20905899999999633
                },
                {
                    "name": "C#5",
                    "midi": 73,
                    "time": 193.06598650000643,
                    "velocity": 0.3543307086614173,
                    "duration": 0.05226475000000619
                },
                {
                    "name": "C#6",
                    "midi": 85,
                    "time": 193.06598650000643,
                    "velocity": 0.4645669291338583,
                    "duration": 0.05226475000000619
                },
                {
                    "name": "C#5",
                    "midi": 73,
                    "time": 193.17051600000644,
                    "velocity": 0.3543307086614173,
                    "duration": 0.10452950000001238
                },
                {
                    "name": "C#6",
                    "midi": 85,
                    "time": 193.17051600000644,
                    "velocity": 0.4645669291338583,
                    "duration": 0.10452950000001238
                },
                {
                    "name": "A#5",
                    "midi": 82,
                    "time": 193.37957500000647,
                    "velocity": 0.41732283464566927,
                    "duration": 0.10452950000001238
                },
                {
                    "name": "F#5",
                    "midi": 78,
                    "time": 193.37957500000647,
                    "velocity": 0.41732283464566927,
                    "duration": 0.10452950000001238
                },
                {
                    "name": "D#6",
                    "midi": 87,
                    "time": 193.37957500000647,
                    "velocity": 0.41732283464566927,
                    "duration": 0.10452950000001238
                },
                {
                    "name": "F#6",
                    "midi": 90,
                    "time": 193.37957500000647,
                    "velocity": 0.5511811023622047,
                    "duration": 0.10452950000001238
                },
                {
                    "name": "D#6",
                    "midi": 87,
                    "time": 193.69316350000648,
                    "velocity": 0.48031496062992124,
                    "duration": 0.05226475000000619
                },
                {
                    "name": "D#5",
                    "midi": 75,
                    "time": 193.69316350000648,
                    "velocity": 0.3700787401574803,
                    "duration": 0.05226475000000619
                },
                {
                    "name": "D#6",
                    "midi": 87,
                    "time": 193.7976930000065,
                    "velocity": 0.48031496062992124,
                    "duration": 0.10452950000001238
                },
                {
                    "name": "D#5",
                    "midi": 75,
                    "time": 193.7976930000065,
                    "velocity": 0.3700787401574803,
                    "duration": 0.10452950000001238
                },
                {
                    "name": "F#5",
                    "midi": 78,
                    "time": 194.00675200000651,
                    "velocity": 0.3700787401574803,
                    "duration": 0.10452950000001238
                },
                {
                    "name": "D#6",
                    "midi": 87,
                    "time": 194.00675200000651,
                    "velocity": 0.4409448818897638,
                    "duration": 0.10452950000001238
                },
                {
                    "name": "F#6",
                    "midi": 90,
                    "time": 194.11128150000653,
                    "velocity": 0.3937007874015748,
                    "duration": 0.10452950000001238
                },
                {
                    "name": "F#5",
                    "midi": 78,
                    "time": 194.21581100000654,
                    "velocity": 0.3700787401574803,
                    "duration": 0.10452950000001238
                },
                {
                    "name": "D#6",
                    "midi": 87,
                    "time": 194.21581100000654,
                    "velocity": 0.4409448818897638,
                    "duration": 0.10452950000001238
                },
                {
                    "name": "F#6",
                    "midi": 90,
                    "time": 194.32034050000655,
                    "velocity": 0.3937007874015748,
                    "duration": 0.10452950000001238
                },
                {
                    "name": "F#5",
                    "midi": 78,
                    "time": 194.42487000000656,
                    "velocity": 0.3779527559055118,
                    "duration": 0.10452950000001238
                },
                {
                    "name": "D#6",
                    "midi": 87,
                    "time": 194.42487000000656,
                    "velocity": 0.44881889763779526,
                    "duration": 0.10452950000001238
                },
                {
                    "name": "F#6",
                    "midi": 90,
                    "time": 194.52939950000658,
                    "velocity": 0.4015748031496063,
                    "duration": 0.10452950000001238
                },
                {
                    "name": "F#5",
                    "midi": 78,
                    "time": 194.6339290000066,
                    "velocity": 0.3779527559055118,
                    "duration": 0.10452950000001238
                },
                {
                    "name": "D#6",
                    "midi": 87,
                    "time": 194.6339290000066,
                    "velocity": 0.44881889763779526,
                    "duration": 0.10452950000001238
                },
                {
                    "name": "F#6",
                    "midi": 90,
                    "time": 194.7384585000066,
                    "velocity": 0.4015748031496063,
                    "duration": 0.10452950000001238
                },
                {
                    "name": "F#5",
                    "midi": 78,
                    "time": 194.8429880000066,
                    "velocity": 0.3858267716535433,
                    "duration": 0.10452950000001238
                },
                {
                    "name": "D#6",
                    "midi": 87,
                    "time": 194.8429880000066,
                    "velocity": 0.4566929133858268,
                    "duration": 0.10452950000001238
                },
                {
                    "name": "F#6",
                    "midi": 90,
                    "time": 194.94751750000663,
                    "velocity": 0.41732283464566927,
                    "duration": 0.10452950000001238
                },
                {
                    "name": "F#5",
                    "midi": 78,
                    "time": 195.05204700000664,
                    "velocity": 0.3858267716535433,
                    "duration": 0.10452950000001238
                },
                {
                    "name": "D#6",
                    "midi": 87,
                    "time": 195.05204700000664,
                    "velocity": 0.4645669291338583,
                    "duration": 0.10452950000001238
                },
                {
                    "name": "F#6",
                    "midi": 90,
                    "time": 195.15657650000665,
                    "velocity": 0.41732283464566927,
                    "duration": 0.10452950000001238
                },
                {
                    "name": "G#5",
                    "midi": 80,
                    "time": 195.26110600000666,
                    "velocity": 0.3937007874015748,
                    "duration": 0.10452950000001238
                },
                {
                    "name": "D#6",
                    "midi": 87,
                    "time": 195.26110600000666,
                    "velocity": 0.4645669291338583,
                    "duration": 0.10452950000001238
                },
                {
                    "name": "G#6",
                    "midi": 92,
                    "time": 195.36563550000668,
                    "velocity": 0.41732283464566927,
                    "duration": 0.10452950000001238
                },
                {
                    "name": "G#5",
                    "midi": 80,
                    "time": 195.4701650000067,
                    "velocity": 0.3937007874015748,
                    "duration": 0.10452950000001238
                },
                {
                    "name": "D#6",
                    "midi": 87,
                    "time": 195.4701650000067,
                    "velocity": 0.47244094488188976,
                    "duration": 0.10452950000001238
                },
                {
                    "name": "G#6",
                    "midi": 92,
                    "time": 195.5746945000067,
                    "velocity": 0.41732283464566927,
                    "duration": 0.10452950000001238
                },
                {
                    "name": "G#5",
                    "midi": 80,
                    "time": 195.6792240000067,
                    "velocity": 0.4015748031496063,
                    "duration": 0.10452950000001238
                },
                {
                    "name": "D#6",
                    "midi": 87,
                    "time": 195.6792240000067,
                    "velocity": 0.48031496062992124,
                    "duration": 0.10452950000001238
                },
                {
                    "name": "G#6",
                    "midi": 92,
                    "time": 195.78375350000672,
                    "velocity": 0.4094488188976378,
                    "duration": 0.10452950000001238
                },
                {
                    "name": "G#5",
                    "midi": 80,
                    "time": 195.88828300000674,
                    "velocity": 0.4015748031496063,
                    "duration": 0.10452950000001238
                },
                {
                    "name": "D#6",
                    "midi": 87,
                    "time": 195.88828300000674,
                    "velocity": 0.48031496062992124,
                    "duration": 0.10452950000001238
                },
                {
                    "name": "G#6",
                    "midi": 92,
                    "time": 195.99281250000675,
                    "velocity": 0.41732283464566927,
                    "duration": 0.10452950000001238
                },
                {
                    "name": "G#5",
                    "midi": 80,
                    "time": 196.09734200000676,
                    "velocity": 0.4094488188976378,
                    "duration": 0.10452950000001238
                },
                {
                    "name": "D#6",
                    "midi": 87,
                    "time": 196.09734200000676,
                    "velocity": 0.4881889763779528,
                    "duration": 0.10452950000001238
                },
                {
                    "name": "G#6",
                    "midi": 92,
                    "time": 196.20187150000677,
                    "velocity": 0.4251968503937008,
                    "duration": 0.10452950000001238
                },
                {
                    "name": "G#5",
                    "midi": 80,
                    "time": 196.3064010000068,
                    "velocity": 0.4094488188976378,
                    "duration": 0.10452950000001238
                },
                {
                    "name": "D#6",
                    "midi": 87,
                    "time": 196.3064010000068,
                    "velocity": 0.4881889763779528,
                    "duration": 0.10452950000001238
                },
                {
                    "name": "G#6",
                    "midi": 92,
                    "time": 196.4109305000068,
                    "velocity": 0.4251968503937008,
                    "duration": 0.10452950000001238
                },
                {
                    "name": "B5",
                    "midi": 83,
                    "time": 196.5154600000068,
                    "velocity": 0.41732283464566927,
                    "duration": 0.10452950000001238
                },
                {
                    "name": "D#6",
                    "midi": 87,
                    "time": 196.5154600000068,
                    "velocity": 0.49606299212598426,
                    "duration": 0.10452950000001238
                },
                {
                    "name": "B6",
                    "midi": 95,
                    "time": 196.61998950000682,
                    "velocity": 0.4409448818897638,
                    "duration": 0.10452950000001238
                },
                {
                    "name": "B5",
                    "midi": 83,
                    "time": 196.72451900000684,
                    "velocity": 0.41732283464566927,
                    "duration": 0.10452950000001238
                },
                {
                    "name": "D#6",
                    "midi": 87,
                    "time": 196.72451900000684,
                    "velocity": 0.49606299212598426,
                    "duration": 0.10452950000001238
                },
                {
                    "name": "B6",
                    "midi": 95,
                    "time": 196.82904850000685,
                    "velocity": 0.4409448818897638,
                    "duration": 0.10452950000001238
                },
                {
                    "name": "B5",
                    "midi": 83,
                    "time": 196.93357800000686,
                    "velocity": 0.4251968503937008,
                    "duration": 0.10452950000001238
                },
                {
                    "name": "D#6",
                    "midi": 87,
                    "time": 196.93357800000686,
                    "velocity": 0.49606299212598426,
                    "duration": 0.10452950000001238
                },
                {
                    "name": "B6",
                    "midi": 95,
                    "time": 197.03810750000687,
                    "velocity": 0.44881889763779526,
                    "duration": 0.10452950000001238
                },
                {
                    "name": "B5",
                    "midi": 83,
                    "time": 197.14263700000689,
                    "velocity": 0.4251968503937008,
                    "duration": 0.10452950000001238
                },
                {
                    "name": "D#6",
                    "midi": 87,
                    "time": 197.14263700000689,
                    "velocity": 0.5039370078740157,
                    "duration": 0.10452950000001238
                },
                {
                    "name": "B6",
                    "midi": 95,
                    "time": 197.2471665000069,
                    "velocity": 0.44881889763779526,
                    "duration": 0.10452950000001238
                },
                {
                    "name": "B5",
                    "midi": 83,
                    "time": 197.3516960000069,
                    "velocity": 0.4251968503937008,
                    "duration": 0.10452950000001238
                },
                {
                    "name": "D#6",
                    "midi": 87,
                    "time": 197.3516960000069,
                    "velocity": 0.5118110236220472,
                    "duration": 0.10452950000001238
                },
                {
                    "name": "B6",
                    "midi": 95,
                    "time": 197.45622550000692,
                    "velocity": 0.4645669291338583,
                    "duration": 0.10452950000001238
                },
                {
                    "name": "B5",
                    "midi": 83,
                    "time": 197.56075500000694,
                    "velocity": 0.4330708661417323,
                    "duration": 0.10452950000001238
                },
                {
                    "name": "D#6",
                    "midi": 87,
                    "time": 197.56075500000694,
                    "velocity": 0.5118110236220472,
                    "duration": 0.10452950000001238
                },
                {
                    "name": "B6",
                    "midi": 95,
                    "time": 197.66528450000695,
                    "velocity": 0.47244094488188976,
                    "duration": 0.10452950000001238
                },
                {
                    "name": "B5",
                    "midi": 83,
                    "time": 197.76981400000696,
                    "velocity": 0.4330708661417323,
                    "duration": 0.10452950000001238
                },
                {
                    "name": "D6",
                    "midi": 86,
                    "time": 197.76981400000696,
                    "velocity": 0.5196850393700787,
                    "duration": 0.10452950000001238
                },
                {
                    "name": "B6",
                    "midi": 95,
                    "time": 197.87434350000697,
                    "velocity": 0.4645669291338583,
                    "duration": 0.10452950000001238
                },
                {
                    "name": "B5",
                    "midi": 83,
                    "time": 197.97887300000698,
                    "velocity": 0.4409448818897638,
                    "duration": 0.10452950000001238
                },
                {
                    "name": "D6",
                    "midi": 86,
                    "time": 197.97887300000698,
                    "velocity": 0.5196850393700787,
                    "duration": 0.10452950000001238
                },
                {
                    "name": "B6",
                    "midi": 95,
                    "time": 198.083402500007,
                    "velocity": 0.47244094488188976,
                    "duration": 0.10452950000001238
                },
                {
                    "name": "B5",
                    "midi": 83,
                    "time": 198.187932000007,
                    "velocity": 0.4409448818897638,
                    "duration": 0.10452950000001238
                },
                {
                    "name": "D6",
                    "midi": 86,
                    "time": 198.187932000007,
                    "velocity": 0.5275590551181102,
                    "duration": 0.10452950000001238
                },
                {
                    "name": "B6",
                    "midi": 95,
                    "time": 198.29246150000702,
                    "velocity": 0.4566929133858268,
                    "duration": 0.10452950000001238
                },
                {
                    "name": "B5",
                    "midi": 83,
                    "time": 198.39699100000703,
                    "velocity": 0.44881889763779526,
                    "duration": 0.10452950000001238
                },
                {
                    "name": "D6",
                    "midi": 86,
                    "time": 198.39699100000703,
                    "velocity": 0.5354330708661418,
                    "duration": 0.10452950000001238
                },
                {
                    "name": "B6",
                    "midi": 95,
                    "time": 198.50152050000705,
                    "velocity": 0.47244094488188976,
                    "duration": 0.10452950000001238
                },
                {
                    "name": "B5",
                    "midi": 83,
                    "time": 198.60605000000706,
                    "velocity": 0.44881889763779526,
                    "duration": 0.10452950000001238
                },
                {
                    "name": "D6",
                    "midi": 86,
                    "time": 198.60605000000706,
                    "velocity": 0.5354330708661418,
                    "duration": 0.10452950000001238
                },
                {
                    "name": "B6",
                    "midi": 95,
                    "time": 198.71057950000707,
                    "velocity": 0.47244094488188976,
                    "duration": 0.10452950000001238
                },
                {
                    "name": "B5",
                    "midi": 83,
                    "time": 198.81510900000708,
                    "velocity": 0.4566929133858268,
                    "duration": 0.10452950000001238
                },
                {
                    "name": "D6",
                    "midi": 86,
                    "time": 198.81510900000708,
                    "velocity": 0.5433070866141733,
                    "duration": 0.10452950000001238
                },
                {
                    "name": "B6",
                    "midi": 95,
                    "time": 198.9196385000071,
                    "velocity": 0.48031496062992124,
                    "duration": 0.10452950000001238
                },
                {
                    "name": "C6",
                    "midi": 84,
                    "time": 199.0241680000071,
                    "velocity": 0.4645669291338583,
                    "duration": 0.10452950000001238
                },
                {
                    "name": "D#6",
                    "midi": 87,
                    "time": 199.0241680000071,
                    "velocity": 0.5511811023622047,
                    "duration": 0.10452950000001238
                },
                {
                    "name": "C7",
                    "midi": 96,
                    "time": 199.12869750000712,
                    "velocity": 0.49606299212598426,
                    "duration": 0.10452950000001238
                },
                {
                    "name": "C6",
                    "midi": 84,
                    "time": 199.23322700000713,
                    "velocity": 0.4645669291338583,
                    "duration": 0.10452950000001238
                },
                {
                    "name": "D#6",
                    "midi": 87,
                    "time": 199.23322700000713,
                    "velocity": 0.5590551181102362,
                    "duration": 0.10452950000001238
                },
                {
                    "name": "C7",
                    "midi": 96,
                    "time": 199.33775650000715,
                    "velocity": 0.49606299212598426,
                    "duration": 0.10452950000001238
                },
                {
                    "name": "C6",
                    "midi": 84,
                    "time": 199.44228600000716,
                    "velocity": 0.47244094488188976,
                    "duration": 0.10452950000001238
                },
                {
                    "name": "D#6",
                    "midi": 87,
                    "time": 199.44228600000716,
                    "velocity": 0.5669291338582677,
                    "duration": 0.10452950000001238
                },
                {
                    "name": "C7",
                    "midi": 96,
                    "time": 199.54681550000717,
                    "velocity": 0.48031496062992124,
                    "duration": 0.10452950000001238
                },
                {
                    "name": "C#6",
                    "midi": 85,
                    "time": 199.65134500000718,
                    "velocity": 0.47244094488188976,
                    "duration": 0.10452950000001238
                },
                {
                    "name": "E6",
                    "midi": 88,
                    "time": 199.65134500000718,
                    "velocity": 0.5669291338582677,
                    "duration": 0.10452950000001238
                },
                {
                    "name": "C#7",
                    "midi": 97,
                    "time": 199.7558745000072,
                    "velocity": 0.49606299212598426,
                    "duration": 0.10452950000001238
                },
                {
                    "name": "C#6",
                    "midi": 85,
                    "time": 199.8604040000072,
                    "velocity": 0.4881889763779528,
                    "duration": 0.10452950000001238
                },
                {
                    "name": "E6",
                    "midi": 88,
                    "time": 199.8604040000072,
                    "velocity": 0.5748031496062992,
                    "duration": 0.10452950000001238
                },
                {
                    "name": "C#7",
                    "midi": 97,
                    "time": 199.96493350000722,
                    "velocity": 0.49606299212598426,
                    "duration": 0.10452950000001238
                },
                {
                    "name": "C#6",
                    "midi": 85,
                    "time": 200.06946300000723,
                    "velocity": 0.49606299212598426,
                    "duration": 0.10452950000001238
                },
                {
                    "name": "E6",
                    "midi": 88,
                    "time": 200.06946300000723,
                    "velocity": 0.5826771653543307,
                    "duration": 0.10452950000001238
                },
                {
                    "name": "C#7",
                    "midi": 97,
                    "time": 200.17399250000724,
                    "velocity": 0.5118110236220472,
                    "duration": 0.10452950000001238
                },
                {
                    "name": "D6",
                    "midi": 86,
                    "time": 200.27852200000726,
                    "velocity": 0.49606299212598426,
                    "duration": 0.10452950000001238
                },
                {
                    "name": "F6",
                    "midi": 89,
                    "time": 200.27852200000726,
                    "velocity": 0.5905511811023622,
                    "duration": 0.10452950000001238
                },
                {
                    "name": "D7",
                    "midi": 98,
                    "time": 200.38305150000727,
                    "velocity": 0.5275590551181102,
                    "duration": 0.10452950000001238
                },
                {
                    "name": "D6",
                    "midi": 86,
                    "time": 200.48758100000728,
                    "velocity": 0.49606299212598426,
                    "duration": 0.10452950000001238
                },
                {
                    "name": "F6",
                    "midi": 89,
                    "time": 200.48758100000728,
                    "velocity": 0.6062992125984252,
                    "duration": 0.10452950000001238
                },
                {
                    "name": "D7",
                    "midi": 98,
                    "time": 200.5921105000073,
                    "velocity": 0.5275590551181102,
                    "duration": 0.10452950000001238
                },
                {
                    "name": "D6",
                    "midi": 86,
                    "time": 200.6966400000073,
                    "velocity": 0.5039370078740157,
                    "duration": 0.10452950000001238
                },
                {
                    "name": "F6",
                    "midi": 89,
                    "time": 200.6966400000073,
                    "velocity": 0.6062992125984252,
                    "duration": 0.10452950000001238
                },
                {
                    "name": "D7",
                    "midi": 98,
                    "time": 200.80116950000732,
                    "velocity": 0.5196850393700787,
                    "duration": 0.10452950000001238
                },
                {
                    "name": "D6",
                    "midi": 86,
                    "time": 200.90569900000733,
                    "velocity": 0.5196850393700787,
                    "duration": 0.10452950000001238
                },
                {
                    "name": "F6",
                    "midi": 89,
                    "time": 200.90569900000733,
                    "velocity": 0.6220472440944882,
                    "duration": 0.10452950000001238
                },
                {
                    "name": "D7",
                    "midi": 98,
                    "time": 201.01022850000734,
                    "velocity": 0.5354330708661418,
                    "duration": 0.10452950000001238
                },
                {
                    "name": "D6",
                    "midi": 86,
                    "time": 201.11475800000736,
                    "velocity": 0.5275590551181102,
                    "duration": 0.10452950000001238
                },
                {
                    "name": "F6",
                    "midi": 89,
                    "time": 201.11475800000736,
                    "velocity": 0.6377952755905512,
                    "duration": 0.10452950000001238
                },
                {
                    "name": "D7",
                    "midi": 98,
                    "time": 201.21928750000737,
                    "velocity": 0.5511811023622047,
                    "duration": 0.10452950000001238
                },
                {
                    "name": "D6",
                    "midi": 86,
                    "time": 201.32381700000738,
                    "velocity": 0.5354330708661418,
                    "duration": 0.10452950000001238
                },
                {
                    "name": "F6",
                    "midi": 89,
                    "time": 201.32381700000738,
                    "velocity": 0.6377952755905512,
                    "duration": 0.10452950000001238
                },
                {
                    "name": "D7",
                    "midi": 98,
                    "time": 201.4283465000074,
                    "velocity": 0.5590551181102362,
                    "duration": 0.10452950000001238
                },
                {
                    "name": "D6",
                    "midi": 86,
                    "time": 201.5328760000074,
                    "velocity": 0.5433070866141733,
                    "duration": 0.10452950000001238
                },
                {
                    "name": "F6",
                    "midi": 89,
                    "time": 201.5328760000074,
                    "velocity": 0.6456692913385826,
                    "duration": 0.10452950000001238
                },
                {
                    "name": "D7",
                    "midi": 98,
                    "time": 201.63740550000742,
                    "velocity": 0.5748031496062992,
                    "duration": 0.10452950000001238
                },
                {
                    "name": "D6",
                    "midi": 86,
                    "time": 201.74193500000743,
                    "velocity": 0.5511811023622047,
                    "duration": 0.10452950000001238
                },
                {
                    "name": "F6",
                    "midi": 89,
                    "time": 201.74193500000743,
                    "velocity": 0.6456692913385826,
                    "duration": 0.10452950000001238
                },
                {
                    "name": "D7",
                    "midi": 98,
                    "time": 201.84646450000744,
                    "velocity": 0.5826771653543307,
                    "duration": 0.10452950000001238
                },
                {
                    "name": "D6",
                    "midi": 86,
                    "time": 201.95099400000746,
                    "velocity": 0.5511811023622047,
                    "duration": 0.10452950000001238
                },
                {
                    "name": "F6",
                    "midi": 89,
                    "time": 201.95099400000746,
                    "velocity": 0.6535433070866141,
                    "duration": 0.10452950000001238
                },
                {
                    "name": "D7",
                    "midi": 98,
                    "time": 202.05552350000747,
                    "velocity": 0.5669291338582677,
                    "duration": 0.10452950000001238
                },
                {
                    "name": "D6",
                    "midi": 86,
                    "time": 202.16005300000748,
                    "velocity": 0.5669291338582677,
                    "duration": 0.10452950000001238
                },
                {
                    "name": "F6",
                    "midi": 89,
                    "time": 202.16005300000748,
                    "velocity": 0.6692913385826772,
                    "duration": 0.10452950000001238
                },
                {
                    "name": "D7",
                    "midi": 98,
                    "time": 202.2645825000075,
                    "velocity": 0.5826771653543307,
                    "duration": 0.10452950000001238
                },
                {
                    "name": "D6",
                    "midi": 86,
                    "time": 202.3691120000075,
                    "velocity": 0.5669291338582677,
                    "duration": 0.10452950000001238
                },
                {
                    "name": "F6",
                    "midi": 89,
                    "time": 202.3691120000075,
                    "velocity": 0.6692913385826772,
                    "duration": 0.10452950000001238
                },
                {
                    "name": "D7",
                    "midi": 98,
                    "time": 202.47364150000752,
                    "velocity": 0.5984251968503937,
                    "duration": 0.10452950000001238
                },
                {
                    "name": "D6",
                    "midi": 86,
                    "time": 202.57817100000753,
                    "velocity": 0.5748031496062992,
                    "duration": 0.10452950000001238
                },
                {
                    "name": "F6",
                    "midi": 89,
                    "time": 202.57817100000753,
                    "velocity": 0.6850393700787402,
                    "duration": 0.10452950000001238
                },
                {
                    "name": "D7",
                    "midi": 98,
                    "time": 202.68270050000754,
                    "velocity": 0.5984251968503937,
                    "duration": 0.10452950000001238
                },
                {
                    "name": "D6",
                    "midi": 86,
                    "time": 202.78723000000755,
                    "velocity": 0.5748031496062992,
                    "duration": 0.10452950000001238
                },
                {
                    "name": "F6",
                    "midi": 89,
                    "time": 202.78723000000755,
                    "velocity": 0.7007874015748031,
                    "duration": 0.10452950000001238
                },
                {
                    "name": "D7",
                    "midi": 98,
                    "time": 202.89175950000757,
                    "velocity": 0.6220472440944882,
                    "duration": 0.10452950000001238
                },
                {
                    "name": "D6",
                    "midi": 86,
                    "time": 202.99628900000758,
                    "velocity": 0.5905511811023622,
                    "duration": 0.10452950000001238
                },
                {
                    "name": "F6",
                    "midi": 89,
                    "time": 202.99628900000758,
                    "velocity": 0.7007874015748031,
                    "duration": 0.10452950000001238
                },
                {
                    "name": "D7",
                    "midi": 98,
                    "time": 203.1008185000076,
                    "velocity": 0.6299212598425197,
                    "duration": 0.10452950000001238
                },
                {
                    "name": "D6",
                    "midi": 86,
                    "time": 203.2053480000076,
                    "velocity": 0.5984251968503937,
                    "duration": 0.10452950000001238
                },
                {
                    "name": "F6",
                    "midi": 89,
                    "time": 203.2053480000076,
                    "velocity": 0.7086614173228346,
                    "duration": 0.10452950000001238
                },
                {
                    "name": "D7",
                    "midi": 98,
                    "time": 203.30987750000762,
                    "velocity": 0.6141732283464567,
                    "duration": 0.10452950000001238
                },
                {
                    "name": "D#6",
                    "midi": 87,
                    "time": 203.41440700000763,
                    "velocity": 0.6062992125984252,
                    "duration": 0.10452950000001238
                },
                {
                    "name": "F#6",
                    "midi": 90,
                    "time": 203.41440700000763,
                    "velocity": 0.7086614173228346,
                    "duration": 0.10452950000001238
                },
                {
                    "name": "D#7",
                    "midi": 99,
                    "time": 203.51893650000764,
                    "velocity": 0.6377952755905512,
                    "duration": 0.10452950000001238
                },
                {
                    "name": "D#6",
                    "midi": 87,
                    "time": 203.62346600000765,
                    "velocity": 0.6141732283464567,
                    "duration": 0.10452950000001238
                },
                {
                    "name": "F#6",
                    "midi": 90,
                    "time": 203.62346600000765,
                    "velocity": 0.7244094488188977,
                    "duration": 0.10452950000001238
                },
                {
                    "name": "D#7",
                    "midi": 99,
                    "time": 203.72799550000767,
                    "velocity": 0.6377952755905512,
                    "duration": 0.10452950000001238
                },
                {
                    "name": "D#6",
                    "midi": 87,
                    "time": 203.83252500000768,
                    "velocity": 0.6220472440944882,
                    "duration": 0.10452950000001238
                },
                {
                    "name": "F#6",
                    "midi": 90,
                    "time": 203.83252500000768,
                    "velocity": 0.7401574803149606,
                    "duration": 0.10452950000001238
                },
                {
                    "name": "D#7",
                    "midi": 99,
                    "time": 203.9370545000077,
                    "velocity": 0.6456692913385826,
                    "duration": 0.10452950000001238
                },
                {
                    "name": "C7",
                    "midi": 96,
                    "time": 204.0415840000077,
                    "velocity": 0.5905511811023622,
                    "duration": 0.20905899999999633
                },
                {
                    "name": "E6",
                    "midi": 88,
                    "time": 204.0415840000077,
                    "velocity": 0.5905511811023622,
                    "duration": 0.20905899999999633
                },
                {
                    "name": "G6",
                    "midi": 91,
                    "time": 204.0415840000077,
                    "velocity": 0.5905511811023622,
                    "duration": 0.20905899999999633
                },
                {
                    "name": "E7",
                    "midi": 100,
                    "time": 204.0415840000077,
                    "velocity": 0.8346456692913385,
                    "duration": 0.20905899999999633
                },
                {
                    "name": "C6",
                    "midi": 84,
                    "time": 204.3551725000077,
                    "velocity": 0.5196850393700787,
                    "duration": 0.05226475000000619
                },
                {
                    "name": "E6",
                    "midi": 88,
                    "time": 204.3551725000077,
                    "velocity": 0.5196850393700787,
                    "duration": 0.05226475000000619
                },
                {
                    "name": "G6",
                    "midi": 91,
                    "time": 204.3551725000077,
                    "velocity": 0.5196850393700787,
                    "duration": 0.05226475000000619
                },
                {
                    "name": "C7",
                    "midi": 96,
                    "time": 204.3551725000077,
                    "velocity": 0.6771653543307087,
                    "duration": 0.05226475000000619
                },
                {
                    "name": "E6",
                    "midi": 88,
                    "time": 204.45970200000772,
                    "velocity": 0.5196850393700787,
                    "duration": 0.10452950000001238
                },
                {
                    "name": "C6",
                    "midi": 84,
                    "time": 204.45970200000772,
                    "velocity": 0.5196850393700787,
                    "duration": 0.10452950000001238
                },
                {
                    "name": "G6",
                    "midi": 91,
                    "time": 204.45970200000772,
                    "velocity": 0.5196850393700787,
                    "duration": 0.10452950000001238
                },
                {
                    "name": "C7",
                    "midi": 96,
                    "time": 204.45970200000772,
                    "velocity": 0.6771653543307087,
                    "duration": 0.10452950000001238
                },
                {
                    "name": "C7",
                    "midi": 96,
                    "time": 204.66876100000775,
                    "velocity": 0.7795275590551181,
                    "duration": 0.10452950000001238
                },
                {
                    "name": "E6",
                    "midi": 88,
                    "time": 204.66876100000775,
                    "velocity": 0.5905511811023622,
                    "duration": 0.10452950000001238
                },
                {
                    "name": "C6",
                    "midi": 84,
                    "time": 204.66876100000775,
                    "velocity": 0.5905511811023622,
                    "duration": 0.10452950000001238
                },
                {
                    "name": "G6",
                    "midi": 91,
                    "time": 204.66876100000775,
                    "velocity": 0.5905511811023622,
                    "duration": 0.10452950000001238
                },
                {
                    "name": "G5",
                    "midi": 79,
                    "time": 204.98234950000776,
                    "velocity": 0.5354330708661418,
                    "duration": 0.05226475000000619
                },
                {
                    "name": "C6",
                    "midi": 84,
                    "time": 204.98234950000776,
                    "velocity": 0.5354330708661418,
                    "duration": 0.05226475000000619
                },
                {
                    "name": "E6",
                    "midi": 88,
                    "time": 204.98234950000776,
                    "velocity": 0.5354330708661418,
                    "duration": 0.05226475000000619
                },
                {
                    "name": "G6",
                    "midi": 91,
                    "time": 204.98234950000776,
                    "velocity": 0.6929133858267716,
                    "duration": 0.05226475000000619
                },
                {
                    "name": "G5",
                    "midi": 79,
                    "time": 205.08687900000777,
                    "velocity": 0.5354330708661418,
                    "duration": 0.10452950000001238
                },
                {
                    "name": "C6",
                    "midi": 84,
                    "time": 205.08687900000777,
                    "velocity": 0.5354330708661418,
                    "duration": 0.10452950000001238
                },
                {
                    "name": "E6",
                    "midi": 88,
                    "time": 205.08687900000777,
                    "velocity": 0.5354330708661418,
                    "duration": 0.10452950000001238
                },
                {
                    "name": "G6",
                    "midi": 91,
                    "time": 205.08687900000777,
                    "velocity": 0.6929133858267716,
                    "duration": 0.10452950000001238
                },
                {
                    "name": "C6",
                    "midi": 84,
                    "time": 205.2959380000078,
                    "velocity": 0.6220472440944882,
                    "duration": 0.10452950000001238
                },
                {
                    "name": "A5",
                    "midi": 81,
                    "time": 205.2959380000078,
                    "velocity": 0.6220472440944882,
                    "duration": 0.10452950000001238
                },
                {
                    "name": "E5",
                    "midi": 76,
                    "time": 205.2959380000078,
                    "velocity": 0.6220472440944882,
                    "duration": 0.10452950000001238
                },
                {
                    "name": "E6",
                    "midi": 88,
                    "time": 205.2959380000078,
                    "velocity": 0.8031496062992126,
                    "duration": 0.10452950000001238
                },
                {
                    "name": "C5",
                    "midi": 72,
                    "time": 205.6095265000078,
                    "velocity": 0.5669291338582677,
                    "duration": 0.05226475000000619
                },
                {
                    "name": "E5",
                    "midi": 76,
                    "time": 205.6095265000078,
                    "velocity": 0.5669291338582677,
                    "duration": 0.05226475000000619
                },
                {
                    "name": "A5",
                    "midi": 81,
                    "time": 205.6095265000078,
                    "velocity": 0.5669291338582677,
                    "duration": 0.05226475000000619
                },
                {
                    "name": "C6",
                    "midi": 84,
                    "time": 205.6095265000078,
                    "velocity": 0.7165354330708661,
                    "duration": 0.05226475000000619
                },
                {
                    "name": "C5",
                    "midi": 72,
                    "time": 205.71405600000782,
                    "velocity": 0.5669291338582677,
                    "duration": 0.10452950000001238
                },
                {
                    "name": "E5",
                    "midi": 76,
                    "time": 205.71405600000782,
                    "velocity": 0.5669291338582677,
                    "duration": 0.10452950000001238
                },
                {
                    "name": "A5",
                    "midi": 81,
                    "time": 205.71405600000782,
                    "velocity": 0.5669291338582677,
                    "duration": 0.10452950000001238
                },
                {
                    "name": "C6",
                    "midi": 84,
                    "time": 205.71405600000782,
                    "velocity": 0.7165354330708661,
                    "duration": 0.10452950000001238
                },
                {
                    "name": "C5",
                    "midi": 72,
                    "time": 205.92311500000784,
                    "velocity": 0.6220472440944882,
                    "duration": 0.627176999999989
                },
                {
                    "name": "E5",
                    "midi": 76,
                    "time": 205.92311500000784,
                    "velocity": 0.6220472440944882,
                    "duration": 0.627176999999989
                },
                {
                    "name": "A5",
                    "midi": 81,
                    "time": 205.92311500000784,
                    "velocity": 0.6220472440944882,
                    "duration": 0.627176999999989
                },
                {
                    "name": "C6",
                    "midi": 84,
                    "time": 205.92311500000784,
                    "velocity": 0.8031496062992126,
                    "duration": 0.627176999999989
                },
                {
                    "name": "F5",
                    "midi": 77,
                    "time": 206.55029200000783,
                    "velocity": 0.5905511811023622,
                    "duration": 0.20905899999999633
                },
                {
                    "name": "G5",
                    "midi": 79,
                    "time": 206.55029200000783,
                    "velocity": 0.5905511811023622,
                    "duration": 0.20905899999999633
                },
                {
                    "name": "B5",
                    "midi": 83,
                    "time": 206.55029200000783,
                    "velocity": 0.5905511811023622,
                    "duration": 0.20905899999999633
                },
                {
                    "name": "G6",
                    "midi": 91,
                    "time": 206.55029200000783,
                    "velocity": 0.7795275590551181,
                    "duration": 0.20905899999999633
                },
                {
                    "name": "D5",
                    "midi": 74,
                    "time": 206.86388050000784,
                    "velocity": 0.5354330708661418,
                    "duration": 0.05226475000000619
                },
                {
                    "name": "G5",
                    "midi": 79,
                    "time": 206.86388050000784,
                    "velocity": 0.5354330708661418,
                    "duration": 0.05226475000000619
                },
                {
                    "name": "D6",
                    "midi": 86,
                    "time": 206.86388050000784,
                    "velocity": 0.6929133858267716,
                    "duration": 0.05226475000000619
                },
                {
                    "name": "D5",
                    "midi": 74,
                    "time": 206.96841000000785,
                    "velocity": 0.5354330708661418,
                    "duration": 0.10452950000001238
                },
                {
                    "name": "G5",
                    "midi": 79,
                    "time": 206.96841000000785,
                    "velocity": 0.5354330708661418,
                    "duration": 0.10452950000001238
                },
                {
                    "name": "D6",
                    "midi": 86,
                    "time": 206.96841000000785,
                    "velocity": 0.6929133858267716,
                    "duration": 0.10452950000001238
                },
                {
                    "name": "G5",
                    "midi": 79,
                    "time": 207.17746900000787,
                    "velocity": 0.5905511811023622,
                    "duration": 0.10452950000001238
                },
                {
                    "name": "C#5",
                    "midi": 73,
                    "time": 207.17746900000787,
                    "velocity": 0.5905511811023622,
                    "duration": 0.10452950000001238
                },
                {
                    "name": "C#6",
                    "midi": 85,
                    "time": 207.17746900000787,
                    "velocity": 0.7795275590551181,
                    "duration": 0.10452950000001238
                },
                {
                    "name": "G5",
                    "midi": 79,
                    "time": 207.3865280000079,
                    "velocity": 0.6220472440944882,
                    "duration": 0.10452950000001238
                },
                {
                    "name": "D5",
                    "midi": 74,
                    "time": 207.3865280000079,
                    "velocity": 0.6220472440944882,
                    "duration": 0.10452950000001238
                },
                {
                    "name": "D6",
                    "midi": 86,
                    "time": 207.3865280000079,
                    "velocity": 0.8031496062992126,
                    "duration": 0.10452950000001238
                },
                {
                    "name": "D#5",
                    "midi": 75,
                    "time": 207.59558700000792,
                    "velocity": 0.6220472440944882,
                    "duration": 0.10452950000001238
                },
                {
                    "name": "G5",
                    "midi": 79,
                    "time": 207.59558700000792,
                    "velocity": 0.6220472440944882,
                    "duration": 0.10452950000001238
                },
                {
                    "name": "D#6",
                    "midi": 87,
                    "time": 207.59558700000792,
                    "velocity": 0.8031496062992126,
                    "duration": 0.10452950000001238
                },
                {
                    "name": "E5",
                    "midi": 76,
                    "time": 207.80464600000795,
                    "velocity": 0.6614173228346457,
                    "duration": 0.627176999999989
                },
                {
                    "name": "G5",
                    "midi": 79,
                    "time": 207.80464600000795,
                    "velocity": 0.6614173228346457,
                    "duration": 0.627176999999989
                },
                {
                    "name": "E6",
                    "midi": 88,
                    "time": 207.80464600000795,
                    "velocity": 0.8582677165354331,
                    "duration": 0.627176999999989
                },
                {
                    "name": "C5",
                    "midi": 72,
                    "time": 208.43182300000794,
                    "velocity": 0.5905511811023622,
                    "duration": 0.20905899999999633
                },
                {
                    "name": "G5",
                    "midi": 79,
                    "time": 208.43182300000794,
                    "velocity": 0.5905511811023622,
                    "duration": 0.20905899999999633
                },
                {
                    "name": "C6",
                    "midi": 84,
                    "time": 208.43182300000794,
                    "velocity": 0.7795275590551181,
                    "duration": 0.20905899999999633
                },
                {
                    "name": "C7",
                    "midi": 96,
                    "time": 209.05900000000793,
                    "velocity": 0.5905511811023622,
                    "duration": 0.20905899999999633
                },
                {
                    "name": "E6",
                    "midi": 88,
                    "time": 209.05900000000793,
                    "velocity": 0.5905511811023622,
                    "duration": 0.20905899999999633
                },
                {
                    "name": "G6",
                    "midi": 91,
                    "time": 209.05900000000793,
                    "velocity": 0.5905511811023622,
                    "duration": 0.20905899999999633
                },
                {
                    "name": "E7",
                    "midi": 100,
                    "time": 209.05900000000793,
                    "velocity": 0.8346456692913385,
                    "duration": 0.20905899999999633
                },
                {
                    "name": "C6",
                    "midi": 84,
                    "time": 209.37258850000794,
                    "velocity": 0.5196850393700787,
                    "duration": 0.05226475000000619
                },
                {
                    "name": "E6",
                    "midi": 88,
                    "time": 209.37258850000794,
                    "velocity": 0.5196850393700787,
                    "duration": 0.05226475000000619
                },
                {
                    "name": "G6",
                    "midi": 91,
                    "time": 209.37258850000794,
                    "velocity": 0.5196850393700787,
                    "duration": 0.05226475000000619
                },
                {
                    "name": "C7",
                    "midi": 96,
                    "time": 209.37258850000794,
                    "velocity": 0.6771653543307087,
                    "duration": 0.05226475000000619
                },
                {
                    "name": "E6",
                    "midi": 88,
                    "time": 209.47711800000795,
                    "velocity": 0.5196850393700787,
                    "duration": 0.10452950000001238
                },
                {
                    "name": "C6",
                    "midi": 84,
                    "time": 209.47711800000795,
                    "velocity": 0.5196850393700787,
                    "duration": 0.10452950000001238
                },
                {
                    "name": "G6",
                    "midi": 91,
                    "time": 209.47711800000795,
                    "velocity": 0.5196850393700787,
                    "duration": 0.10452950000001238
                },
                {
                    "name": "C7",
                    "midi": 96,
                    "time": 209.47711800000795,
                    "velocity": 0.6771653543307087,
                    "duration": 0.10452950000001238
                },
                {
                    "name": "C7",
                    "midi": 96,
                    "time": 209.68617700000797,
                    "velocity": 0.7795275590551181,
                    "duration": 0.10452950000001238
                },
                {
                    "name": "E6",
                    "midi": 88,
                    "time": 209.68617700000797,
                    "velocity": 0.5905511811023622,
                    "duration": 0.10452950000001238
                },
                {
                    "name": "C6",
                    "midi": 84,
                    "time": 209.68617700000797,
                    "velocity": 0.5905511811023622,
                    "duration": 0.10452950000001238
                },
                {
                    "name": "G6",
                    "midi": 91,
                    "time": 209.68617700000797,
                    "velocity": 0.5905511811023622,
                    "duration": 0.10452950000001238
                },
                {
                    "name": "G5",
                    "midi": 79,
                    "time": 209.99976550000798,
                    "velocity": 0.5354330708661418,
                    "duration": 0.05226475000000619
                },
                {
                    "name": "C6",
                    "midi": 84,
                    "time": 209.99976550000798,
                    "velocity": 0.5354330708661418,
                    "duration": 0.05226475000000619
                },
                {
                    "name": "E6",
                    "midi": 88,
                    "time": 209.99976550000798,
                    "velocity": 0.5354330708661418,
                    "duration": 0.05226475000000619
                },
                {
                    "name": "G6",
                    "midi": 91,
                    "time": 209.99976550000798,
                    "velocity": 0.6929133858267716,
                    "duration": 0.05226475000000619
                },
                {
                    "name": "G5",
                    "midi": 79,
                    "time": 210.104295000008,
                    "velocity": 0.5354330708661418,
                    "duration": 0.10452950000001238
                },
                {
                    "name": "C6",
                    "midi": 84,
                    "time": 210.104295000008,
                    "velocity": 0.5354330708661418,
                    "duration": 0.10452950000001238
                },
                {
                    "name": "E6",
                    "midi": 88,
                    "time": 210.104295000008,
                    "velocity": 0.5354330708661418,
                    "duration": 0.10452950000001238
                },
                {
                    "name": "G6",
                    "midi": 91,
                    "time": 210.104295000008,
                    "velocity": 0.6929133858267716,
                    "duration": 0.10452950000001238
                },
                {
                    "name": "C6",
                    "midi": 84,
                    "time": 210.31335400000802,
                    "velocity": 0.6220472440944882,
                    "duration": 0.10452950000001238
                },
                {
                    "name": "A5",
                    "midi": 81,
                    "time": 210.31335400000802,
                    "velocity": 0.6220472440944882,
                    "duration": 0.10452950000001238
                },
                {
                    "name": "E5",
                    "midi": 76,
                    "time": 210.31335400000802,
                    "velocity": 0.6220472440944882,
                    "duration": 0.10452950000001238
                },
                {
                    "name": "E6",
                    "midi": 88,
                    "time": 210.31335400000802,
                    "velocity": 0.8031496062992126,
                    "duration": 0.10452950000001238
                },
                {
                    "name": "C5",
                    "midi": 72,
                    "time": 210.62694250000803,
                    "velocity": 0.5669291338582677,
                    "duration": 0.05226475000000619
                },
                {
                    "name": "E5",
                    "midi": 76,
                    "time": 210.62694250000803,
                    "velocity": 0.5669291338582677,
                    "duration": 0.05226475000000619
                },
                {
                    "name": "A5",
                    "midi": 81,
                    "time": 210.62694250000803,
                    "velocity": 0.5669291338582677,
                    "duration": 0.05226475000000619
                },
                {
                    "name": "C6",
                    "midi": 84,
                    "time": 210.62694250000803,
                    "velocity": 0.7165354330708661,
                    "duration": 0.05226475000000619
                },
                {
                    "name": "C5",
                    "midi": 72,
                    "time": 210.73147200000804,
                    "velocity": 0.5669291338582677,
                    "duration": 0.10452950000001238
                },
                {
                    "name": "E5",
                    "midi": 76,
                    "time": 210.73147200000804,
                    "velocity": 0.5669291338582677,
                    "duration": 0.10452950000001238
                },
                {
                    "name": "A5",
                    "midi": 81,
                    "time": 210.73147200000804,
                    "velocity": 0.5669291338582677,
                    "duration": 0.10452950000001238
                },
                {
                    "name": "C6",
                    "midi": 84,
                    "time": 210.73147200000804,
                    "velocity": 0.7165354330708661,
                    "duration": 0.10452950000001238
                },
                {
                    "name": "C5",
                    "midi": 72,
                    "time": 210.94053100000806,
                    "velocity": 0.6220472440944882,
                    "duration": 0.627176999999989
                },
                {
                    "name": "E5",
                    "midi": 76,
                    "time": 210.94053100000806,
                    "velocity": 0.6220472440944882,
                    "duration": 0.627176999999989
                },
                {
                    "name": "A5",
                    "midi": 81,
                    "time": 210.94053100000806,
                    "velocity": 0.6220472440944882,
                    "duration": 0.627176999999989
                },
                {
                    "name": "C6",
                    "midi": 84,
                    "time": 210.94053100000806,
                    "velocity": 0.8031496062992126,
                    "duration": 0.627176999999989
                },
                {
                    "name": "D#5",
                    "midi": 75,
                    "time": 211.56770800000805,
                    "velocity": 0.5905511811023622,
                    "duration": 0.20905899999999633
                },
                {
                    "name": "F#5",
                    "midi": 78,
                    "time": 211.56770800000805,
                    "velocity": 0.5905511811023622,
                    "duration": 0.20905899999999633
                },
                {
                    "name": "D#6",
                    "midi": 87,
                    "time": 211.56770800000805,
                    "velocity": 0.7795275590551181,
                    "duration": 0.20905899999999633
                },
                {
                    "name": "B4",
                    "midi": 71,
                    "time": 211.88129650000806,
                    "velocity": 0.5354330708661418,
                    "duration": 0.05226475000000619
                },
                {
                    "name": "D#5",
                    "midi": 75,
                    "time": 211.88129650000806,
                    "velocity": 0.5354330708661418,
                    "duration": 0.05226475000000619
                },
                {
                    "name": "F#5",
                    "midi": 78,
                    "time": 211.88129650000806,
                    "velocity": 0.6929133858267716,
                    "duration": 0.05226475000000619
                },
                {
                    "name": "B4",
                    "midi": 71,
                    "time": 211.98582600000807,
                    "velocity": 0.5354330708661418,
                    "duration": 0.10452950000001238
                },
                {
                    "name": "D#5",
                    "midi": 75,
                    "time": 211.98582600000807,
                    "velocity": 0.5354330708661418,
                    "duration": 0.10452950000001238
                },
                {
                    "name": "F#5",
                    "midi": 78,
                    "time": 211.98582600000807,
                    "velocity": 0.6929133858267716,
                    "duration": 0.10452950000001238
                },
                {
                    "name": "D#5",
                    "midi": 75,
                    "time": 212.1948850000081,
                    "velocity": 0.5275590551181102,
                    "duration": 0.10452950000001238
                },
                {
                    "name": "B4",
                    "midi": 71,
                    "time": 212.1948850000081,
                    "velocity": 0.5275590551181102,
                    "duration": 0.10452950000001238
                },
                {
                    "name": "F5",
                    "midi": 77,
                    "time": 212.1948850000081,
                    "velocity": 0.7007874015748031,
                    "duration": 0.10452950000001238
                },
                {
                    "name": "D#5",
                    "midi": 75,
                    "time": 212.40394400000812,
                    "velocity": 0.5590551181102362,
                    "duration": 0.10452950000001238
                },
                {
                    "name": "B4",
                    "midi": 71,
                    "time": 212.40394400000812,
                    "velocity": 0.5590551181102362,
                    "duration": 0.10452950000001238
                },
                {
                    "name": "F#5",
                    "midi": 78,
                    "time": 212.40394400000812,
                    "velocity": 0.7165354330708661,
                    "duration": 0.10452950000001238
                },
                {
                    "name": "B4",
                    "midi": 71,
                    "time": 212.61300300000815,
                    "velocity": 0.5590551181102362,
                    "duration": 0.10452950000001238
                },
                {
                    "name": "D#5",
                    "midi": 75,
                    "time": 212.61300300000815,
                    "velocity": 0.5590551181102362,
                    "duration": 0.10452950000001238
                },
                {
                    "name": "B5",
                    "midi": 83,
                    "time": 212.61300300000815,
                    "velocity": 0.7165354330708661,
                    "duration": 0.10452950000001238
                },
                {
                    "name": "D#5",
                    "midi": 75,
                    "time": 212.82206200000817,
                    "velocity": 0.6614173228346457,
                    "duration": 0.627176999999989
                },
                {
                    "name": "F#5",
                    "midi": 78,
                    "time": 212.82206200000817,
                    "velocity": 0.6614173228346457,
                    "duration": 0.627176999999989
                },
                {
                    "name": "D#6",
                    "midi": 87,
                    "time": 212.82206200000817,
                    "velocity": 0.8582677165354331,
                    "duration": 0.627176999999989
                },
                {
                    "name": "F5",
                    "midi": 77,
                    "time": 213.44923900000816,
                    "velocity": 0.5905511811023622,
                    "duration": 0.20905899999999633
                },
                {
                    "name": "D5",
                    "midi": 74,
                    "time": 213.44923900000816,
                    "velocity": 0.5905511811023622,
                    "duration": 0.20905899999999633
                },
                {
                    "name": "G5",
                    "midi": 79,
                    "time": 213.44923900000816,
                    "velocity": 0.5905511811023622,
                    "duration": 0.20905899999999633
                },
                {
                    "name": "D6",
                    "midi": 86,
                    "time": 213.44923900000816,
                    "velocity": 0.7795275590551181,
                    "duration": 0.20905899999999633
                },
                {
                    "name": "E6",
                    "midi": 88,
                    "time": 214.07641600000815,
                    "velocity": 0.5669291338582677,
                    "duration": 0.10452950000001238
                },
                {
                    "name": "C6",
                    "midi": 84,
                    "time": 214.07641600000815,
                    "velocity": 0.5669291338582677,
                    "duration": 0.10452950000001238
                },
                {
                    "name": "G5",
                    "midi": 79,
                    "time": 214.07641600000815,
                    "velocity": 0.48031496062992124,
                    "duration": 0.10452950000001238
                },
                {
                    "name": "E5",
                    "midi": 76,
                    "time": 214.07641600000815,
                    "velocity": 0.48031496062992124,
                    "duration": 0.10452950000001238
                },
                {
                    "name": "C6",
                    "midi": 84,
                    "time": 214.28547500000818,
                    "velocity": 0.5669291338582677,
                    "duration": 0.15679424999999014
                },
                {
                    "name": "G5",
                    "midi": 79,
                    "time": 214.28547500000818,
                    "velocity": 0.48031496062992124,
                    "duration": 0.15679424999999014
                },
                {
                    "name": "E5",
                    "midi": 76,
                    "time": 214.28547500000818,
                    "velocity": 0.48031496062992124,
                    "duration": 0.15679424999999014
                },
                {
                    "name": "C5",
                    "midi": 72,
                    "time": 214.28547500000818,
                    "velocity": 0.48031496062992124,
                    "duration": 0.15679424999999014
                },
                {
                    "name": "G5",
                    "midi": 79,
                    "time": 214.44226925000817,
                    "velocity": 0.49606299212598426,
                    "duration": 0.04703827500000557
                },
                {
                    "name": "E5",
                    "midi": 76,
                    "time": 214.44226925000817,
                    "velocity": 0.41732283464566927,
                    "duration": 0.04703827500000557
                },
                {
                    "name": "C5",
                    "midi": 72,
                    "time": 214.44226925000817,
                    "velocity": 0.41732283464566927,
                    "duration": 0.04703827500000557
                },
                {
                    "name": "G4",
                    "midi": 67,
                    "time": 214.44226925000817,
                    "velocity": 0.41732283464566927,
                    "duration": 0.04703827500000557
                },
                {
                    "name": "G4",
                    "midi": 67,
                    "time": 214.49453400000817,
                    "velocity": 0.48031496062992124,
                    "duration": 0.05226475000000619
                },
                {
                    "name": "C5",
                    "midi": 72,
                    "time": 214.49453400000817,
                    "velocity": 0.48031496062992124,
                    "duration": 0.05226475000000619
                },
                {
                    "name": "E5",
                    "midi": 76,
                    "time": 214.49453400000817,
                    "velocity": 0.48031496062992124,
                    "duration": 0.05226475000000619
                },
                {
                    "name": "G5",
                    "midi": 79,
                    "time": 214.49453400000817,
                    "velocity": 0.5669291338582677,
                    "duration": 0.05226475000000619
                },
                {
                    "name": "E4",
                    "midi": 64,
                    "time": 214.70359300000817,
                    "velocity": 0.48031496062992124,
                    "duration": 0.15679424999999014
                },
                {
                    "name": "G4",
                    "midi": 67,
                    "time": 214.70359300000817,
                    "velocity": 0.48031496062992124,
                    "duration": 0.15679424999999014
                },
                {
                    "name": "C5",
                    "midi": 72,
                    "time": 214.70359300000817,
                    "velocity": 0.48031496062992124,
                    "duration": 0.15679424999999014
                },
                {
                    "name": "E5",
                    "midi": 76,
                    "time": 214.70359300000817,
                    "velocity": 0.5669291338582677,
                    "duration": 0.15679424999999014
                },
                {
                    "name": "C4",
                    "midi": 60,
                    "time": 214.86038725000816,
                    "velocity": 0.4251968503937008,
                    "duration": 0.04703827500000557
                },
                {
                    "name": "E4",
                    "midi": 64,
                    "time": 214.86038725000816,
                    "velocity": 0.4251968503937008,
                    "duration": 0.04703827500000557
                },
                {
                    "name": "A4",
                    "midi": 69,
                    "time": 214.86038725000816,
                    "velocity": 0.4251968503937008,
                    "duration": 0.04703827500000557
                },
                {
                    "name": "C5",
                    "midi": 72,
                    "time": 214.86038725000816,
                    "velocity": 0.49606299212598426,
                    "duration": 0.04703827500000557
                },
                {
                    "name": "C5",
                    "midi": 72,
                    "time": 214.91265200000817,
                    "velocity": 0.5669291338582677,
                    "duration": 0.05226475000000619
                },
                {
                    "name": "A4",
                    "midi": 69,
                    "time": 214.91265200000817,
                    "velocity": 0.5669291338582677,
                    "duration": 0.05226475000000619
                },
                {
                    "name": "E4",
                    "midi": 64,
                    "time": 214.91265200000817,
                    "velocity": 0.48031496062992124,
                    "duration": 0.05226475000000619
                },
                {
                    "name": "C4",
                    "midi": 60,
                    "time": 214.91265200000817,
                    "velocity": 0.48031496062992124,
                    "duration": 0.05226475000000619
                },
                {
                    "name": "A4",
                    "midi": 69,
                    "time": 215.12171100000816,
                    "velocity": 0.5669291338582677,
                    "duration": 0.15679424999999014
                },
                {
                    "name": "E4",
                    "midi": 64,
                    "time": 215.12171100000816,
                    "velocity": 0.48031496062992124,
                    "duration": 0.15679424999999014
                },
                {
                    "name": "C4",
                    "midi": 60,
                    "time": 215.12171100000816,
                    "velocity": 0.48031496062992124,
                    "duration": 0.15679424999999014
                },
                {
                    "name": "A3",
                    "midi": 57,
                    "time": 215.12171100000816,
                    "velocity": 0.48031496062992124,
                    "duration": 0.15679424999999014
                },
                {
                    "name": "E4",
                    "midi": 64,
                    "time": 215.27850525000815,
                    "velocity": 0.49606299212598426,
                    "duration": 0.04703827500000557
                },
                {
                    "name": "C4",
                    "midi": 60,
                    "time": 215.27850525000815,
                    "velocity": 0.41732283464566927,
                    "duration": 0.04703827500000557
                },
                {
                    "name": "A3",
                    "midi": 57,
                    "time": 215.27850525000815,
                    "velocity": 0.41732283464566927,
                    "duration": 0.04703827500000557
                },
                {
                    "name": "E3",
                    "midi": 52,
                    "time": 215.27850525000815,
                    "velocity": 0.41732283464566927,
                    "duration": 0.04703827500000557
                },
                {
                    "name": "E3",
                    "midi": 52,
                    "time": 215.33077000000816,
                    "velocity": 0.48031496062992124,
                    "duration": 0.05226475000000619
                },
                {
                    "name": "A3",
                    "midi": 57,
                    "time": 215.33077000000816,
                    "velocity": 0.48031496062992124,
                    "duration": 0.05226475000000619
                },
                {
                    "name": "C4",
                    "midi": 60,
                    "time": 215.33077000000816,
                    "velocity": 0.48031496062992124,
                    "duration": 0.05226475000000619
                },
                {
                    "name": "E4",
                    "midi": 64,
                    "time": 215.33077000000816,
                    "velocity": 0.5669291338582677,
                    "duration": 0.05226475000000619
                },
                {
                    "name": "C3",
                    "midi": 48,
                    "time": 215.53982900000815,
                    "velocity": 0.48031496062992124,
                    "duration": 0.15679424999999014
                },
                {
                    "name": "E3",
                    "midi": 52,
                    "time": 215.53982900000815,
                    "velocity": 0.48031496062992124,
                    "duration": 0.15679424999999014
                },
                {
                    "name": "A3",
                    "midi": 57,
                    "time": 215.53982900000815,
                    "velocity": 0.48031496062992124,
                    "duration": 0.15679424999999014
                },
                {
                    "name": "C4",
                    "midi": 60,
                    "time": 215.53982900000815,
                    "velocity": 0.5669291338582677,
                    "duration": 0.15679424999999014
                },
                {
                    "name": "E3",
                    "midi": 52,
                    "time": 215.69662325000814,
                    "velocity": 0.4251968503937008,
                    "duration": 0.05226475000000619
                },
                {
                    "name": "E4",
                    "midi": 64,
                    "time": 215.69662325000814,
                    "velocity": 0.49606299212598426,
                    "duration": 0.05226475000000619
                },
                {
                    "name": "F3",
                    "midi": 53,
                    "time": 215.74888800000815,
                    "velocity": 0.47244094488188976,
                    "duration": 0.20905899999999633
                },
                {
                    "name": "B3",
                    "midi": 59,
                    "time": 215.74888800000815,
                    "velocity": 0.47244094488188976,
                    "duration": 0.20905899999999633
                },
                {
                    "name": "G4",
                    "midi": 67,
                    "time": 215.74888800000815,
                    "velocity": 0.6220472440944882,
                    "duration": 0.20905899999999633
                },
                {
                    "name": "F3",
                    "midi": 53,
                    "time": 216.06247650000816,
                    "velocity": 0.4251968503937008,
                    "duration": 0.05226475000000619
                },
                {
                    "name": "B3",
                    "midi": 59,
                    "time": 216.06247650000816,
                    "velocity": 0.4251968503937008,
                    "duration": 0.05226475000000619
                },
                {
                    "name": "D4",
                    "midi": 62,
                    "time": 216.06247650000816,
                    "velocity": 0.5511811023622047,
                    "duration": 0.05226475000000619
                },
                {
                    "name": "F3",
                    "midi": 53,
                    "time": 216.16700600000817,
                    "velocity": 0.4251968503937008,
                    "duration": 0.10452950000001238
                },
                {
                    "name": "B3",
                    "midi": 59,
                    "time": 216.16700600000817,
                    "velocity": 0.4251968503937008,
                    "duration": 0.10452950000001238
                },
                {
                    "name": "D4",
                    "midi": 62,
                    "time": 216.16700600000817,
                    "velocity": 0.5511811023622047,
                    "duration": 0.10452950000001238
                },
                {
                    "name": "A#3",
                    "midi": 58,
                    "time": 216.3760650000082,
                    "velocity": 0.47244094488188976,
                    "duration": 0.10452950000001238
                },
                {
                    "name": "F3",
                    "midi": 53,
                    "time": 216.3760650000082,
                    "velocity": 0.47244094488188976,
                    "duration": 0.10452950000001238
                },
                {
                    "name": "C#4",
                    "midi": 61,
                    "time": 216.3760650000082,
                    "velocity": 0.6220472440944882,
                    "duration": 0.10452950000001238
                },
                {
                    "name": "B3",
                    "midi": 59,
                    "time": 216.58512400000822,
                    "velocity": 0.49606299212598426,
                    "duration": 0.10452950000001238
                },
                {
                    "name": "F3",
                    "midi": 53,
                    "time": 216.58512400000822,
                    "velocity": 0.49606299212598426,
                    "duration": 0.10452950000001238
                },
                {
                    "name": "D4",
                    "midi": 62,
                    "time": 216.58512400000822,
                    "velocity": 0.6377952755905512,
                    "duration": 0.10452950000001238
                },
                {
                    "name": "F3",
                    "midi": 53,
                    "time": 216.79418300000825,
                    "velocity": 0.49606299212598426,
                    "duration": 0.10452950000001238
                },
                {
                    "name": "B3",
                    "midi": 59,
                    "time": 216.79418300000825,
                    "velocity": 0.49606299212598426,
                    "duration": 0.10452950000001238
                },
                {
                    "name": "D#4",
                    "midi": 63,
                    "time": 216.79418300000825,
                    "velocity": 0.6377952755905512,
                    "duration": 0.10452950000001238
                },
                {
                    "name": "E4",
                    "midi": 64,
                    "time": 217.00324200000827,
                    "velocity": 0.6535433070866141,
                    "duration": 0.08885007500001052
                },
                {
                    "name": "C4",
                    "midi": 60,
                    "time": 217.00324200000827,
                    "velocity": 0.6535433070866141,
                    "duration": 0.08885007500001052
                },
                {
                    "name": "G3",
                    "midi": 55,
                    "time": 217.09209207500828,
                    "velocity": 0.5511811023622047,
                    "duration": 0.08885007500001052
                },
                {
                    "name": "E3",
                    "midi": 52,
                    "time": 217.1809421500083,
                    "velocity": 0.5590551181102362,
                    "duration": 0.08885007500001052
                },
                {
                    "name": "G3",
                    "midi": 55,
                    "time": 217.2697922250083,
                    "velocity": 0.5669291338582677,
                    "duration": 0.08885007500001052
                },
                {
                    "name": "C4",
                    "midi": 60,
                    "time": 217.3586423000083,
                    "velocity": 0.5748031496062992,
                    "duration": 0.08885007500001052
                },
                {
                    "name": "E4",
                    "midi": 64,
                    "time": 217.44749237500832,
                    "velocity": 0.5826771653543307,
                    "duration": 0.08885007500001052
                },
                {
                    "name": "G4",
                    "midi": 67,
                    "time": 217.53634245000833,
                    "velocity": 0.5905511811023622,
                    "duration": 0.09407655000001114
                },
                {
                    "name": "C5",
                    "midi": 72,
                    "time": 217.63041900000835,
                    "velocity": 0.5984251968503937,
                    "duration": 0.08885007500001052
                },
                {
                    "name": "E5",
                    "midi": 76,
                    "time": 217.71926907500836,
                    "velocity": 0.6141732283464567,
                    "duration": 0.08885007500001052
                },
                {
                    "name": "G5",
                    "midi": 79,
                    "time": 217.80811915000837,
                    "velocity": 0.6220472440944882,
                    "duration": 0.08885007500001052
                },
                {
                    "name": "C6",
                    "midi": 84,
                    "time": 217.89696922500838,
                    "velocity": 0.6299212598425197,
                    "duration": 0.08885007500001052
                },
                {
                    "name": "E6",
                    "midi": 88,
                    "time": 217.9858193000084,
                    "velocity": 0.6377952755905512,
                    "duration": 0.08885007500001052
                },
                {
                    "name": "G6",
                    "midi": 91,
                    "time": 218.0746693750084,
                    "velocity": 0.6456692913385826,
                    "duration": 0.08885007500001052
                },
                {
                    "name": "C7",
                    "midi": 96,
                    "time": 218.1635194500084,
                    "velocity": 0.6535433070866141,
                    "duration": 0.09407655000001114
                },
                {
                    "name": "E7",
                    "midi": 100,
                    "time": 218.25759600000842,
                    "velocity": 0.6220472440944882,
                    "duration": 0.20905899999999633
                },
                {
                    "name": "C7",
                    "midi": 96,
                    "time": 218.25759600000842,
                    "velocity": 0.6220472440944882,
                    "duration": 0.20905899999999633
                },
                {
                    "name": "G6",
                    "midi": 91,
                    "time": 218.25759600000842,
                    "velocity": 0.5196850393700787,
                    "duration": 0.20905899999999633
                },
                {
                    "name": "E6",
                    "midi": 88,
                    "time": 218.25759600000842,
                    "velocity": 0.5196850393700787,
                    "duration": 0.20905899999999633
                },
                {
                    "name": "C7",
                    "midi": 96,
                    "time": 218.46665500000842,
                    "velocity": 0.6220472440944882,
                    "duration": 0.15679424999999014
                },
                {
                    "name": "G6",
                    "midi": 91,
                    "time": 218.46665500000842,
                    "velocity": 0.5196850393700787,
                    "duration": 0.15679424999999014
                },
                {
                    "name": "E6",
                    "midi": 88,
                    "time": 218.46665500000842,
                    "velocity": 0.5196850393700787,
                    "duration": 0.15679424999999014
                },
                {
                    "name": "C6",
                    "midi": 84,
                    "time": 218.46665500000842,
                    "velocity": 0.5196850393700787,
                    "duration": 0.15679424999999014
                },
                {
                    "name": "G6",
                    "midi": 91,
                    "time": 218.6234492500084,
                    "velocity": 0.5433070866141733,
                    "duration": 0.04703827500000557
                },
                {
                    "name": "E6",
                    "midi": 88,
                    "time": 218.6234492500084,
                    "velocity": 0.44881889763779526,
                    "duration": 0.04703827500000557
                },
                {
                    "name": "C6",
                    "midi": 84,
                    "time": 218.6234492500084,
                    "velocity": 0.44881889763779526,
                    "duration": 0.04703827500000557
                },
                {
                    "name": "G5",
                    "midi": 79,
                    "time": 218.6234492500084,
                    "velocity": 0.44881889763779526,
                    "duration": 0.04703827500000557
                },
                {
                    "name": "G5",
                    "midi": 79,
                    "time": 218.6757140000084,
                    "velocity": 0.5196850393700787,
                    "duration": 0.10452950000001238
                },
                {
                    "name": "C6",
                    "midi": 84,
                    "time": 218.6757140000084,
                    "velocity": 0.5196850393700787,
                    "duration": 0.10452950000001238
                },
                {
                    "name": "E6",
                    "midi": 88,
                    "time": 218.6757140000084,
                    "velocity": 0.5196850393700787,
                    "duration": 0.10452950000001238
                },
                {
                    "name": "G6",
                    "midi": 91,
                    "time": 218.6757140000084,
                    "velocity": 0.6220472440944882,
                    "duration": 0.10452950000001238
                },
                {
                    "name": "E5",
                    "midi": 76,
                    "time": 218.88477300000844,
                    "velocity": 0.5196850393700787,
                    "duration": 0.15679424999999014
                },
                {
                    "name": "G5",
                    "midi": 79,
                    "time": 218.88477300000844,
                    "velocity": 0.5196850393700787,
                    "duration": 0.15679424999999014
                },
                {
                    "name": "C6",
                    "midi": 84,
                    "time": 218.88477300000844,
                    "velocity": 0.5196850393700787,
                    "duration": 0.15679424999999014
                },
                {
                    "name": "E6",
                    "midi": 88,
                    "time": 218.88477300000844,
                    "velocity": 0.6220472440944882,
                    "duration": 0.15679424999999014
                },
                {
                    "name": "C5",
                    "midi": 72,
                    "time": 219.04156725000843,
                    "velocity": 0.4645669291338583,
                    "duration": 0.04703827500000557
                },
                {
                    "name": "E5",
                    "midi": 76,
                    "time": 219.04156725000843,
                    "velocity": 0.4645669291338583,
                    "duration": 0.04703827500000557
                },
                {
                    "name": "A5",
                    "midi": 81,
                    "time": 219.04156725000843,
                    "velocity": 0.4645669291338583,
                    "duration": 0.04703827500000557
                },
                {
                    "name": "C6",
                    "midi": 84,
                    "time": 219.04156725000843,
                    "velocity": 0.5511811023622047,
                    "duration": 0.04703827500000557
                },
                {
                    "name": "C6",
                    "midi": 84,
                    "time": 219.09383200000843,
                    "velocity": 0.6220472440944882,
                    "duration": 0.10452950000001238
                },
                {
                    "name": "A5",
                    "midi": 81,
                    "time": 219.09383200000843,
                    "velocity": 0.6220472440944882,
                    "duration": 0.10452950000001238
                },
                {
                    "name": "E5",
                    "midi": 76,
                    "time": 219.09383200000843,
                    "velocity": 0.5196850393700787,
                    "duration": 0.10452950000001238
                },
                {
                    "name": "C5",
                    "midi": 72,
                    "time": 219.09383200000843,
                    "velocity": 0.5196850393700787,
                    "duration": 0.10452950000001238
                },
                {
                    "name": "A5",
                    "midi": 81,
                    "time": 219.30289100000846,
                    "velocity": 0.6220472440944882,
                    "duration": 0.15679424999999014
                },
                {
                    "name": "E5",
                    "midi": 76,
                    "time": 219.30289100000846,
                    "velocity": 0.5196850393700787,
                    "duration": 0.15679424999999014
                },
                {
                    "name": "C5",
                    "midi": 72,
                    "time": 219.30289100000846,
                    "velocity": 0.5196850393700787,
                    "duration": 0.15679424999999014
                },
                {
                    "name": "A4",
                    "midi": 69,
                    "time": 219.30289100000846,
                    "velocity": 0.5196850393700787,
                    "duration": 0.15679424999999014
                },
                {
                    "name": "E5",
                    "midi": 76,
                    "time": 219.45968525000845,
                    "velocity": 0.5433070866141733,
                    "duration": 0.04703827500000557
                },
                {
                    "name": "C5",
                    "midi": 72,
                    "time": 219.45968525000845,
                    "velocity": 0.44881889763779526,
                    "duration": 0.04703827500000557
                },
                {
                    "name": "A4",
                    "midi": 69,
                    "time": 219.45968525000845,
                    "velocity": 0.44881889763779526,
                    "duration": 0.04703827500000557
                },
                {
                    "name": "E4",
                    "midi": 64,
                    "time": 219.45968525000845,
                    "velocity": 0.44881889763779526,
                    "duration": 0.04703827500000557
                },
                {
                    "name": "E4",
                    "midi": 64,
                    "time": 219.51195000000845,
                    "velocity": 0.5196850393700787,
                    "duration": 0.10452950000001238
                },
                {
                    "name": "A4",
                    "midi": 69,
                    "time": 219.51195000000845,
                    "velocity": 0.5196850393700787,
                    "duration": 0.10452950000001238
                },
                {
                    "name": "C5",
                    "midi": 72,
                    "time": 219.51195000000845,
                    "velocity": 0.5196850393700787,
                    "duration": 0.10452950000001238
                },
                {
                    "name": "E5",
                    "midi": 76,
                    "time": 219.51195000000845,
                    "velocity": 0.6220472440944882,
                    "duration": 0.10452950000001238
                },
                {
                    "name": "C4",
                    "midi": 60,
                    "time": 219.72100900000848,
                    "velocity": 0.5196850393700787,
                    "duration": 0.10452950000001238
                },
                {
                    "name": "E4",
                    "midi": 64,
                    "time": 219.72100900000848,
                    "velocity": 0.5196850393700787,
                    "duration": 0.10452950000001238
                },
                {
                    "name": "A4",
                    "midi": 69,
                    "time": 219.72100900000848,
                    "velocity": 0.5196850393700787,
                    "duration": 0.10452950000001238
                },
                {
                    "name": "C5",
                    "midi": 72,
                    "time": 219.72100900000848,
                    "velocity": 0.6220472440944882,
                    "duration": 0.10452950000001238
                },
                {
                    "name": "G#5",
                    "midi": 80,
                    "time": 219.9300680000085,
                    "velocity": 0.5669291338582677,
                    "duration": 0.10452950000001238
                },
                {
                    "name": "B5",
                    "midi": 83,
                    "time": 219.9300680000085,
                    "velocity": 0.5748031496062992,
                    "duration": 0.10452950000001238
                },
                {
                    "name": "G#6",
                    "midi": 92,
                    "time": 219.9300680000085,
                    "velocity": 0.7086614173228346,
                    "duration": 0.10452950000001238
                },
                {
                    "name": "B4",
                    "midi": 71,
                    "time": 220.2436565000085,
                    "velocity": 0.4251968503937008,
                    "duration": 0.05226475000000619
                },
                {
                    "name": "B5",
                    "midi": 83,
                    "time": 220.2436565000085,
                    "velocity": 0.5511811023622047,
                    "duration": 0.05226475000000619
                },
                {
                    "name": "B4",
                    "midi": 71,
                    "time": 220.34818600000852,
                    "velocity": 0.4251968503937008,
                    "duration": 0.10452950000001238
                },
                {
                    "name": "B5",
                    "midi": 83,
                    "time": 220.34818600000852,
                    "velocity": 0.5511811023622047,
                    "duration": 0.10452950000001238
                },
                {
                    "name": "A#4",
                    "midi": 70,
                    "time": 220.55724500000855,
                    "velocity": 0.47244094488188976,
                    "duration": 0.10452950000001238
                },
                {
                    "name": "A#5",
                    "midi": 82,
                    "time": 220.55724500000855,
                    "velocity": 0.6220472440944882,
                    "duration": 0.10452950000001238
                },
                {
                    "name": "B4",
                    "midi": 71,
                    "time": 220.76630400000857,
                    "velocity": 0.49606299212598426,
                    "duration": 0.10452950000001238
                },
                {
                    "name": "B5",
                    "midi": 83,
                    "time": 220.76630400000857,
                    "velocity": 0.6377952755905512,
                    "duration": 0.10452950000001238
                },
                {
                    "name": "E5",
                    "midi": 76,
                    "time": 220.9753630000086,
                    "velocity": 0.5354330708661418,
                    "duration": 0.10452950000001238
                },
                {
                    "name": "E6",
                    "midi": 88,
                    "time": 220.9753630000086,
                    "velocity": 0.6929133858267716,
                    "duration": 0.10452950000001238
                },
                {
                    "name": "G#5",
                    "midi": 80,
                    "time": 221.18442200000862,
                    "velocity": 0.5669291338582677,
                    "duration": 0.10452950000001238
                },
                {
                    "name": "C6",
                    "midi": 84,
                    "time": 221.18442200000862,
                    "velocity": 0.5748031496062992,
                    "duration": 0.10452950000001238
                },
                {
                    "name": "G#6",
                    "midi": 92,
                    "time": 221.18442200000862,
                    "velocity": 0.7086614173228346,
                    "duration": 0.10452950000001238
                },
                {
                    "name": "D#5",
                    "midi": 75,
                    "time": 221.49801050000863,
                    "velocity": 0.4251968503937008,
                    "duration": 0.05226475000000619
                },
                {
                    "name": "D#6",
                    "midi": 87,
                    "time": 221.49801050000863,
                    "velocity": 0.5511811023622047,
                    "duration": 0.05226475000000619
                },
                {
                    "name": "D#5",
                    "midi": 75,
                    "time": 221.60254000000864,
                    "velocity": 0.4251968503937008,
                    "duration": 0.10452950000001238
                },
                {
                    "name": "D#6",
                    "midi": 87,
                    "time": 221.60254000000864,
                    "velocity": 0.5511811023622047,
                    "duration": 0.10452950000001238
                },
                {
                    "name": "D5",
                    "midi": 74,
                    "time": 221.81159900000867,
                    "velocity": 0.47244094488188976,
                    "duration": 0.10452950000001238
                },
                {
                    "name": "D6",
                    "midi": 86,
                    "time": 221.81159900000867,
                    "velocity": 0.6220472440944882,
                    "duration": 0.10452950000001238
                },
                {
                    "name": "D#5",
                    "midi": 75,
                    "time": 222.0206580000087,
                    "velocity": 0.49606299212598426,
                    "duration": 0.10452950000001238
                },
                {
                    "name": "D#6",
                    "midi": 87,
                    "time": 222.0206580000087,
                    "velocity": 0.6377952755905512,
                    "duration": 0.10452950000001238
                },
                {
                    "name": "D#5",
                    "midi": 75,
                    "time": 222.22971700000872,
                    "velocity": 0.5354330708661418,
                    "duration": 0.10452950000001238
                },
                {
                    "name": "D#6",
                    "midi": 87,
                    "time": 222.22971700000872,
                    "velocity": 0.6929133858267716,
                    "duration": 0.10452950000001238
                },
                {
                    "name": "G5",
                    "midi": 79,
                    "time": 222.43877600000874,
                    "velocity": 0.5669291338582677,
                    "duration": 0.10452950000001238
                },
                {
                    "name": "A#5",
                    "midi": 82,
                    "time": 222.43877600000874,
                    "velocity": 0.5748031496062992,
                    "duration": 0.10452950000001238
                },
                {
                    "name": "G6",
                    "midi": 91,
                    "time": 222.43877600000874,
                    "velocity": 0.7086614173228346,
                    "duration": 0.10452950000001238
                },
                {
                    "name": "A#4",
                    "midi": 70,
                    "time": 222.75236450000875,
                    "velocity": 0.4251968503937008,
                    "duration": 0.05226475000000619
                },
                {
                    "name": "A#5",
                    "midi": 82,
                    "time": 222.75236450000875,
                    "velocity": 0.5511811023622047,
                    "duration": 0.05226475000000619
                },
                {
                    "name": "A#4",
                    "midi": 70,
                    "time": 222.85689400000877,
                    "velocity": 0.4251968503937008,
                    "duration": 0.10452950000001238
                },
                {
                    "name": "A#5",
                    "midi": 82,
                    "time": 222.85689400000877,
                    "velocity": 0.5511811023622047,
                    "duration": 0.10452950000001238
                },
                {
                    "name": "A4",
                    "midi": 69,
                    "time": 223.0659530000088,
                    "velocity": 0.47244094488188976,
                    "duration": 0.10452950000001238
                },
                {
                    "name": "A5",
                    "midi": 81,
                    "time": 223.0659530000088,
                    "velocity": 0.6220472440944882,
                    "duration": 0.10452950000001238
                },
                {
                    "name": "A#4",
                    "midi": 70,
                    "time": 223.27501200000881,
                    "velocity": 0.49606299212598426,
                    "duration": 0.10452950000001238
                },
                {
                    "name": "A#5",
                    "midi": 82,
                    "time": 223.27501200000881,
                    "velocity": 0.6377952755905512,
                    "duration": 0.10452950000001238
                },
                {
                    "name": "D#5",
                    "midi": 75,
                    "time": 223.48407100000884,
                    "velocity": 0.5354330708661418,
                    "duration": 0.10452950000001238
                },
                {
                    "name": "D#6",
                    "midi": 87,
                    "time": 223.48407100000884,
                    "velocity": 0.6929133858267716,
                    "duration": 0.10452950000001238
                },
                {
                    "name": "G5",
                    "midi": 79,
                    "time": 223.69313000000886,
                    "velocity": 0.5669291338582677,
                    "duration": 0.10452950000001238
                },
                {
                    "name": "A#5",
                    "midi": 82,
                    "time": 223.69313000000886,
                    "velocity": 0.5748031496062992,
                    "duration": 0.10452950000001238
                },
                {
                    "name": "G6",
                    "midi": 91,
                    "time": 223.69313000000886,
                    "velocity": 0.7086614173228346,
                    "duration": 0.10452950000001238
                },
                {
                    "name": "D5",
                    "midi": 74,
                    "time": 224.00671850000887,
                    "velocity": 0.4251968503937008,
                    "duration": 0.05226475000000619
                },
                {
                    "name": "D6",
                    "midi": 86,
                    "time": 224.00671850000887,
                    "velocity": 0.5511811023622047,
                    "duration": 0.05226475000000619
                },
                {
                    "name": "D5",
                    "midi": 74,
                    "time": 224.11124800000889,
                    "velocity": 0.4251968503937008,
                    "duration": 0.10452950000001238
                },
                {
                    "name": "D6",
                    "midi": 86,
                    "time": 224.11124800000889,
                    "velocity": 0.5511811023622047,
                    "duration": 0.10452950000001238
                },
                {
                    "name": "C#5",
                    "midi": 73,
                    "time": 224.3203070000089,
                    "velocity": 0.47244094488188976,
                    "duration": 0.10452950000001238
                },
                {
                    "name": "C#6",
                    "midi": 85,
                    "time": 224.3203070000089,
                    "velocity": 0.6220472440944882,
                    "duration": 0.10452950000001238
                },
                {
                    "name": "D5",
                    "midi": 74,
                    "time": 224.52936600000893,
                    "velocity": 0.49606299212598426,
                    "duration": 0.10452950000001238
                },
                {
                    "name": "D6",
                    "midi": 86,
                    "time": 224.52936600000893,
                    "velocity": 0.6377952755905512,
                    "duration": 0.10452950000001238
                },
                {
                    "name": "D5",
                    "midi": 74,
                    "time": 224.73842500000896,
                    "velocity": 0.5354330708661418,
                    "duration": 0.10452950000001238
                },
                {
                    "name": "D6",
                    "midi": 86,
                    "time": 224.73842500000896,
                    "velocity": 0.6929133858267716,
                    "duration": 0.10452950000001238
                },
                {
                    "name": "F#5",
                    "midi": 78,
                    "time": 224.94748400000898,
                    "velocity": 0.5669291338582677,
                    "duration": 0.10452950000001238
                },
                {
                    "name": "A5",
                    "midi": 81,
                    "time": 224.94748400000898,
                    "velocity": 0.5748031496062992,
                    "duration": 0.10452950000001238
                },
                {
                    "name": "F#6",
                    "midi": 90,
                    "time": 224.94748400000898,
                    "velocity": 0.7086614173228346,
                    "duration": 0.10452950000001238
                },
                {
                    "name": "F#5",
                    "midi": 78,
                    "time": 225.156543000009,
                    "velocity": 0.4251968503937008,
                    "duration": 0.10452950000001238
                },
                {
                    "name": "A4",
                    "midi": 69,
                    "time": 225.156543000009,
                    "velocity": 0.4251968503937008,
                    "duration": 0.10452950000001238
                },
                {
                    "name": "A5",
                    "midi": 81,
                    "time": 225.156543000009,
                    "velocity": 0.5511811023622047,
                    "duration": 0.10452950000001238
                },
                {
                    "name": "F#5",
                    "midi": 78,
                    "time": 225.36560200000903,
                    "velocity": 0.4251968503937008,
                    "duration": 0.10452950000001238
                },
                {
                    "name": "B4",
                    "midi": 71,
                    "time": 225.36560200000903,
                    "velocity": 0.4251968503937008,
                    "duration": 0.10452950000001238
                },
                {
                    "name": "B5",
                    "midi": 83,
                    "time": 225.36560200000903,
                    "velocity": 0.5511811023622047,
                    "duration": 0.10452950000001238
                },
                {
                    "name": "A5",
                    "midi": 81,
                    "time": 225.57466100000906,
                    "velocity": 0.5118110236220472,
                    "duration": 0.10452950000001238
                },
                {
                    "name": "C#5",
                    "midi": 73,
                    "time": 225.57466100000906,
                    "velocity": 0.5118110236220472,
                    "duration": 0.10452950000001238
                },
                {
                    "name": "C#6",
                    "midi": 85,
                    "time": 225.57466100000906,
                    "velocity": 0.6771653543307087,
                    "duration": 0.10452950000001238
                },
                {
                    "name": "G#5",
                    "midi": 80,
                    "time": 225.78372000000908,
                    "velocity": 0.49606299212598426,
                    "duration": 0.10452950000001238
                },
                {
                    "name": "C5",
                    "midi": 72,
                    "time": 225.78372000000908,
                    "velocity": 0.49606299212598426,
                    "duration": 0.10452950000001238
                },
                {
                    "name": "C6",
                    "midi": 84,
                    "time": 225.78372000000908,
                    "velocity": 0.6377952755905512,
                    "duration": 0.10452950000001238
                },
                {
                    "name": "A5",
                    "midi": 81,
                    "time": 225.9927790000091,
                    "velocity": 0.5354330708661418,
                    "duration": 0.10452950000001238
                },
                {
                    "name": "C#5",
                    "midi": 73,
                    "time": 225.9927790000091,
                    "velocity": 0.5354330708661418,
                    "duration": 0.10452950000001238
                },
                {
                    "name": "C#6",
                    "midi": 85,
                    "time": 225.9927790000091,
                    "velocity": 0.6929133858267716,
                    "duration": 0.10452950000001238
                },
                {
                    "name": "F5",
                    "midi": 77,
                    "time": 226.20183800000913,
                    "velocity": 0.5669291338582677,
                    "duration": 0.10452950000001238
                },
                {
                    "name": "G#5",
                    "midi": 80,
                    "time": 226.20183800000913,
                    "velocity": 0.5748031496062992,
                    "duration": 0.10452950000001238
                },
                {
                    "name": "F6",
                    "midi": 89,
                    "time": 226.20183800000913,
                    "velocity": 0.7086614173228346,
                    "duration": 0.10452950000001238
                },
                {
                    "name": "F5",
                    "midi": 77,
                    "time": 226.41089700000916,
                    "velocity": 0.4251968503937008,
                    "duration": 0.10452950000001238
                },
                {
                    "name": "G#4",
                    "midi": 68,
                    "time": 226.41089700000916,
                    "velocity": 0.4251968503937008,
                    "duration": 0.10452950000001238
                },
                {
                    "name": "G#5",
                    "midi": 80,
                    "time": 226.41089700000916,
                    "velocity": 0.5511811023622047,
                    "duration": 0.10452950000001238
                },
                {
                    "name": "F5",
                    "midi": 77,
                    "time": 226.61995600000918,
                    "velocity": 0.4251968503937008,
                    "duration": 0.10452950000001238
                },
                {
                    "name": "A#4",
                    "midi": 70,
                    "time": 226.61995600000918,
                    "velocity": 0.4251968503937008,
                    "duration": 0.10452950000001238
                },
                {
                    "name": "A#5",
                    "midi": 82,
                    "time": 226.61995600000918,
                    "velocity": 0.5511811023622047,
                    "duration": 0.10452950000001238
                },
                {
                    "name": "G#5",
                    "midi": 80,
                    "time": 226.8290150000092,
                    "velocity": 0.5118110236220472,
                    "duration": 0.10452950000001238
                },
                {
                    "name": "C5",
                    "midi": 72,
                    "time": 226.8290150000092,
                    "velocity": 0.5118110236220472,
                    "duration": 0.10452950000001238
                },
                {
                    "name": "C6",
                    "midi": 84,
                    "time": 226.8290150000092,
                    "velocity": 0.6771653543307087,
                    "duration": 0.10452950000001238
                },
                {
                    "name": "G5",
                    "midi": 79,
                    "time": 227.03807400000923,
                    "velocity": 0.49606299212598426,
                    "duration": 0.10452950000001238
                },
                {
                    "name": "B4",
                    "midi": 71,
                    "time": 227.03807400000923,
                    "velocity": 0.49606299212598426,
                    "duration": 0.10452950000001238
                },
                {
                    "name": "B5",
                    "midi": 83,
                    "time": 227.03807400000923,
                    "velocity": 0.6377952755905512,
                    "duration": 0.10452950000001238
                },
                {
                    "name": "G#5",
                    "midi": 80,
                    "time": 227.24713300000926,
                    "velocity": 0.5354330708661418,
                    "duration": 0.10452950000001238
                },
                {
                    "name": "C5",
                    "midi": 72,
                    "time": 227.24713300000926,
                    "velocity": 0.5354330708661418,
                    "duration": 0.10452950000001238
                },
                {
                    "name": "C6",
                    "midi": 84,
                    "time": 227.24713300000926,
                    "velocity": 0.6929133858267716,
                    "duration": 0.10452950000001238
                },
                {
                    "name": "E6",
                    "midi": 88,
                    "time": 227.45619200000928,
                    "velocity": 0.5590551181102362,
                    "duration": 0.20905899999999633
                },
                {
                    "name": "G5",
                    "midi": 79,
                    "time": 227.45619200000928,
                    "velocity": 0.4645669291338583,
                    "duration": 0.20905899999999633
                },
                {
                    "name": "E5",
                    "midi": 76,
                    "time": 227.45619200000928,
                    "velocity": 0.4645669291338583,
                    "duration": 0.2038325249999957
                },
                {
                    "name": "G4",
                    "midi": 67,
                    "time": 227.61298625000927,
                    "velocity": 0.4015748031496063,
                    "duration": 0.04703827500000557
                },
                {
                    "name": "C5",
                    "midi": 72,
                    "time": 227.61298625000927,
                    "velocity": 0.4015748031496063,
                    "duration": 0.04703827500000557
                },
                {
                    "name": "E5",
                    "midi": 76,
                    "time": 227.61298625000927,
                    "velocity": 0.4881889763779528,
                    "duration": 0.05226475000000619
                },
                {
                    "name": "E5",
                    "midi": 76,
                    "time": 227.66525100000928,
                    "velocity": 0.5590551181102362,
                    "duration": 0.20905899999999633
                },
                {
                    "name": "C5",
                    "midi": 72,
                    "time": 227.66525100000928,
                    "velocity": 0.4645669291338583,
                    "duration": 0.20905899999999633
                },
                {
                    "name": "G4",
                    "midi": 67,
                    "time": 227.66525100000928,
                    "velocity": 0.4645669291338583,
                    "duration": 0.20905899999999633
                },
                {
                    "name": "D#6",
                    "midi": 87,
                    "time": 227.87431000000927,
                    "velocity": 0.5590551181102362,
                    "duration": 0.20905899999999633
                },
                {
                    "name": "G5",
                    "midi": 79,
                    "time": 227.87431000000927,
                    "velocity": 0.4645669291338583,
                    "duration": 0.20905899999999633
                },
                {
                    "name": "D#5",
                    "midi": 75,
                    "time": 227.87431000000927,
                    "velocity": 0.4645669291338583,
                    "duration": 0.2038325249999957
                },
                {
                    "name": "G4",
                    "midi": 67,
                    "time": 228.03110425000926,
                    "velocity": 0.4015748031496063,
                    "duration": 0.04703827500000557
                },
                {
                    "name": "C5",
                    "midi": 72,
                    "time": 228.03110425000926,
                    "velocity": 0.4015748031496063,
                    "duration": 0.04703827500000557
                },
                {
                    "name": "D#5",
                    "midi": 75,
                    "time": 228.03110425000926,
                    "velocity": 0.4881889763779528,
                    "duration": 0.05226475000000619
                },
                {
                    "name": "D#5",
                    "midi": 75,
                    "time": 228.08336900000927,
                    "velocity": 0.5590551181102362,
                    "duration": 0.20905899999999633
                },
                {
                    "name": "C5",
                    "midi": 72,
                    "time": 228.08336900000927,
                    "velocity": 0.4645669291338583,
                    "duration": 0.20905899999999633
                },
                {
                    "name": "G4",
                    "midi": 67,
                    "time": 228.08336900000927,
                    "velocity": 0.4645669291338583,
                    "duration": 0.20905899999999633
                },
                {
                    "name": "C#6",
                    "midi": 85,
                    "time": 228.29242800000927,
                    "velocity": 0.5590551181102362,
                    "duration": 0.20905899999999633
                },
                {
                    "name": "F5",
                    "midi": 77,
                    "time": 228.29242800000927,
                    "velocity": 0.4645669291338583,
                    "duration": 0.20905899999999633
                },
                {
                    "name": "C#5",
                    "midi": 73,
                    "time": 228.29242800000927,
                    "velocity": 0.4645669291338583,
                    "duration": 0.2038325249999957
                },
                {
                    "name": "F4",
                    "midi": 65,
                    "time": 228.44922225000926,
                    "velocity": 0.4015748031496063,
                    "duration": 0.04703827500000557
                },
                {
                    "name": "G#4",
                    "midi": 68,
                    "time": 228.44922225000926,
                    "velocity": 0.4015748031496063,
                    "duration": 0.04703827500000557
                },
                {
                    "name": "C#5",
                    "midi": 73,
                    "time": 228.44922225000926,
                    "velocity": 0.4881889763779528,
                    "duration": 0.05226475000000619
                },
                {
                    "name": "C#5",
                    "midi": 73,
                    "time": 228.50148700000926,
                    "velocity": 0.5590551181102362,
                    "duration": 0.20905899999999633
                },
                {
                    "name": "G#4",
                    "midi": 68,
                    "time": 228.50148700000926,
                    "velocity": 0.4645669291338583,
                    "duration": 0.20905899999999633
                },
                {
                    "name": "F4",
                    "midi": 65,
                    "time": 228.50148700000926,
                    "velocity": 0.4645669291338583,
                    "duration": 0.20905899999999633
                },
                {
                    "name": "C6",
                    "midi": 84,
                    "time": 228.71054600000926,
                    "velocity": 0.5590551181102362,
                    "duration": 0.20905899999999633
                },
                {
                    "name": "D#5",
                    "midi": 75,
                    "time": 228.71054600000926,
                    "velocity": 0.4645669291338583,
                    "duration": 0.20905899999999633
                },
                {
                    "name": "C5",
                    "midi": 72,
                    "time": 228.71054600000926,
                    "velocity": 0.4645669291338583,
                    "duration": 0.2038325249999957
                },
                {
                    "name": "D#4",
                    "midi": 63,
                    "time": 228.86734025000925,
                    "velocity": 0.4015748031496063,
                    "duration": 0.04703827500000557
                },
                {
                    "name": "F#4",
                    "midi": 66,
                    "time": 228.86734025000925,
                    "velocity": 0.4015748031496063,
                    "duration": 0.04703827500000557
                },
                {
                    "name": "C5",
                    "midi": 72,
                    "time": 228.86734025000925,
                    "velocity": 0.4881889763779528,
                    "duration": 0.05226475000000619
                },
                {
                    "name": "C5",
                    "midi": 72,
                    "time": 228.91960500000926,
                    "velocity": 0.5590551181102362,
                    "duration": 0.20905899999999633
                },
                {
                    "name": "F#4",
                    "midi": 66,
                    "time": 228.91960500000926,
                    "velocity": 0.4645669291338583,
                    "duration": 0.20905899999999633
                },
                {
                    "name": "D#4",
                    "midi": 63,
                    "time": 228.91960500000926,
                    "velocity": 0.4645669291338583,
                    "duration": 0.20905899999999633
                },
                {
                    "name": "A#4",
                    "midi": 70,
                    "time": 229.12866400000925,
                    "velocity": 0.4251968503937008,
                    "duration": 0.10452950000001238
                },
                {
                    "name": "A#5",
                    "midi": 82,
                    "time": 229.12866400000925,
                    "velocity": 0.5118110236220472,
                    "duration": 0.10452950000001238
                },
                {
                    "name": "A#3",
                    "midi": 58,
                    "time": 229.33772300000928,
                    "velocity": 0.3543307086614173,
                    "duration": 0.10452950000001238
                },
                {
                    "name": "A#4",
                    "midi": 70,
                    "time": 229.33772300000928,
                    "velocity": 0.41732283464566927,
                    "duration": 0.10452950000001238
                },
                {
                    "name": "A#5",
                    "midi": 82,
                    "time": 229.5467820000093,
                    "velocity": 0.4409448818897638,
                    "duration": 0.10452950000001238
                },
                {
                    "name": "A#4",
                    "midi": 70,
                    "time": 229.5467820000093,
                    "velocity": 0.3700787401574803,
                    "duration": 0.10452950000001238
                },
                {
                    "name": "A#6",
                    "midi": 94,
                    "time": 229.75584100000933,
                    "velocity": 0.5433070866141733,
                    "duration": 0.10452950000001238
                },
                {
                    "name": "A#5",
                    "midi": 82,
                    "time": 229.75584100000933,
                    "velocity": 0.44881889763779526,
                    "duration": 0.10452950000001238
                },
                {
                    "name": "A#4",
                    "midi": 70,
                    "time": 229.96490000000935,
                    "velocity": 0.36220472440944884,
                    "duration": 0.10452950000001238
                },
                {
                    "name": "A#5",
                    "midi": 82,
                    "time": 229.96490000000935,
                    "velocity": 0.4330708661417323,
                    "duration": 0.10452950000001238
                },
                {
                    "name": "A#3",
                    "midi": 58,
                    "time": 230.17395900000938,
                    "velocity": 0.36220472440944884,
                    "duration": 0.10452950000001238
                },
                {
                    "name": "A#4",
                    "midi": 70,
                    "time": 230.17395900000938,
                    "velocity": 0.4330708661417323,
                    "duration": 0.10452950000001238
                },
                {
                    "name": "A#4",
                    "midi": 70,
                    "time": 230.3830180000094,
                    "velocity": 0.4251968503937008,
                    "duration": 0.10452950000001238
                },
                {
                    "name": "A#5",
                    "midi": 82,
                    "time": 230.3830180000094,
                    "velocity": 0.5118110236220472,
                    "duration": 0.10452950000001238
                },
                {
                    "name": "A#3",
                    "midi": 58,
                    "time": 230.59207700000943,
                    "velocity": 0.3543307086614173,
                    "duration": 0.10452950000001238
                },
                {
                    "name": "A#4",
                    "midi": 70,
                    "time": 230.59207700000943,
                    "velocity": 0.41732283464566927,
                    "duration": 0.10452950000001238
                },
                {
                    "name": "A#5",
                    "midi": 82,
                    "time": 230.80113600000945,
                    "velocity": 0.4409448818897638,
                    "duration": 0.10452950000001238
                },
                {
                    "name": "A#4",
                    "midi": 70,
                    "time": 230.80113600000945,
                    "velocity": 0.3700787401574803,
                    "duration": 0.10452950000001238
                },
                {
                    "name": "A#6",
                    "midi": 94,
                    "time": 231.01019500000947,
                    "velocity": 0.5433070866141733,
                    "duration": 0.10452950000001238
                },
                {
                    "name": "A#5",
                    "midi": 82,
                    "time": 231.01019500000947,
                    "velocity": 0.44881889763779526,
                    "duration": 0.10452950000001238
                },
                {
                    "name": "A#4",
                    "midi": 70,
                    "time": 231.2192540000095,
                    "velocity": 0.36220472440944884,
                    "duration": 0.10452950000001238
                },
                {
                    "name": "A#5",
                    "midi": 82,
                    "time": 231.2192540000095,
                    "velocity": 0.4330708661417323,
                    "duration": 0.10452950000001238
                },
                {
                    "name": "A#3",
                    "midi": 58,
                    "time": 231.42831300000952,
                    "velocity": 0.36220472440944884,
                    "duration": 0.10452950000001238
                },
                {
                    "name": "A#4",
                    "midi": 70,
                    "time": 231.42831300000952,
                    "velocity": 0.4330708661417323,
                    "duration": 0.10452950000001238
                },
                {
                    "name": "C#5",
                    "midi": 73,
                    "time": 231.63737200000955,
                    "velocity": 0.47244094488188976,
                    "duration": 0.10452950000001238
                },
                {
                    "name": "C#6",
                    "midi": 85,
                    "time": 231.63737200000955,
                    "velocity": 0.5669291338582677,
                    "duration": 0.10452950000001238
                },
                {
                    "name": "C#4",
                    "midi": 61,
                    "time": 231.84643100000957,
                    "velocity": 0.3858267716535433,
                    "duration": 0.10452950000001238
                },
                {
                    "name": "C#5",
                    "midi": 73,
                    "time": 231.84643100000957,
                    "velocity": 0.44881889763779526,
                    "duration": 0.10452950000001238
                },
                {
                    "name": "C#6",
                    "midi": 85,
                    "time": 232.0554900000096,
                    "velocity": 0.4881889763779528,
                    "duration": 0.10452950000001238
                },
                {
                    "name": "C#5",
                    "midi": 73,
                    "time": 232.0554900000096,
                    "velocity": 0.4094488188976378,
                    "duration": 0.10452950000001238
                },
                {
                    "name": "C#7",
                    "midi": 97,
                    "time": 232.26454900000962,
                    "velocity": 0.5905511811023622,
                    "duration": 0.10452950000001238
                },
                {
                    "name": "C#6",
                    "midi": 85,
                    "time": 232.26454900000962,
                    "velocity": 0.49606299212598426,
                    "duration": 0.10452950000001238
                },
                {
                    "name": "C#5",
                    "midi": 73,
                    "time": 232.47360800000965,
                    "velocity": 0.4015748031496063,
                    "duration": 0.10452950000001238
                },
                {
                    "name": "C#6",
                    "midi": 85,
                    "time": 232.47360800000965,
                    "velocity": 0.48031496062992124,
                    "duration": 0.10452950000001238
                },
                {
                    "name": "C#4",
                    "midi": 61,
                    "time": 232.68266700000967,
                    "velocity": 0.4015748031496063,
                    "duration": 0.10452950000001238
                },
                {
                    "name": "C#5",
                    "midi": 73,
                    "time": 232.68266700000967,
                    "velocity": 0.48031496062992124,
                    "duration": 0.10452950000001238
                },
                {
                    "name": "C#5",
                    "midi": 73,
                    "time": 232.8917260000097,
                    "velocity": 0.47244094488188976,
                    "duration": 0.10452950000001238
                },
                {
                    "name": "C#6",
                    "midi": 85,
                    "time": 232.8917260000097,
                    "velocity": 0.5669291338582677,
                    "duration": 0.10452950000001238
                },
                {
                    "name": "C#4",
                    "midi": 61,
                    "time": 233.10078500000972,
                    "velocity": 0.3858267716535433,
                    "duration": 0.10452950000001238
                },
                {
                    "name": "C#5",
                    "midi": 73,
                    "time": 233.10078500000972,
                    "velocity": 0.44881889763779526,
                    "duration": 0.10452950000001238
                },
                {
                    "name": "C#6",
                    "midi": 85,
                    "time": 233.30984400000975,
                    "velocity": 0.4881889763779528,
                    "duration": 0.10452950000001238
                },
                {
                    "name": "C#5",
                    "midi": 73,
                    "time": 233.30984400000975,
                    "velocity": 0.4094488188976378,
                    "duration": 0.10452950000001238
                },
                {
                    "name": "C#7",
                    "midi": 97,
                    "time": 233.51890300000977,
                    "velocity": 0.5905511811023622,
                    "duration": 0.10452950000001238
                },
                {
                    "name": "C#6",
                    "midi": 85,
                    "time": 233.51890300000977,
                    "velocity": 0.49606299212598426,
                    "duration": 0.10452950000001238
                },
                {
                    "name": "C#5",
                    "midi": 73,
                    "time": 233.7279620000098,
                    "velocity": 0.4015748031496063,
                    "duration": 0.10452950000001238
                },
                {
                    "name": "C#6",
                    "midi": 85,
                    "time": 233.7279620000098,
                    "velocity": 0.48031496062992124,
                    "duration": 0.10452950000001238
                },
                {
                    "name": "C#4",
                    "midi": 61,
                    "time": 233.93702100000982,
                    "velocity": 0.4015748031496063,
                    "duration": 0.10452950000001238
                },
                {
                    "name": "C#5",
                    "midi": 73,
                    "time": 233.93702100000982,
                    "velocity": 0.48031496062992124,
                    "duration": 0.10452950000001238
                },
                {
                    "name": "E5",
                    "midi": 76,
                    "time": 234.14608000000985,
                    "velocity": 0.47244094488188976,
                    "duration": 0.10452950000001238
                },
                {
                    "name": "E6",
                    "midi": 88,
                    "time": 234.14608000000985,
                    "velocity": 0.5669291338582677,
                    "duration": 0.10452950000001238
                },
                {
                    "name": "E4",
                    "midi": 64,
                    "time": 234.35513900000987,
                    "velocity": 0.3858267716535433,
                    "duration": 0.10452950000001238
                },
                {
                    "name": "E5",
                    "midi": 76,
                    "time": 234.35513900000987,
                    "velocity": 0.44881889763779526,
                    "duration": 0.10452950000001238
                },
                {
                    "name": "E6",
                    "midi": 88,
                    "time": 234.5641980000099,
                    "velocity": 0.4881889763779528,
                    "duration": 0.10452950000001238
                },
                {
                    "name": "E5",
                    "midi": 76,
                    "time": 234.5641980000099,
                    "velocity": 0.4094488188976378,
                    "duration": 0.10452950000001238
                },
                {
                    "name": "E7",
                    "midi": 100,
                    "time": 234.77325700000992,
                    "velocity": 0.6062992125984252,
                    "duration": 0.10452950000001238
                },
                {
                    "name": "E6",
                    "midi": 88,
                    "time": 234.77325700000992,
                    "velocity": 0.49606299212598426,
                    "duration": 0.10452950000001238
                },
                {
                    "name": "E5",
                    "midi": 76,
                    "time": 234.98231600000994,
                    "velocity": 0.4094488188976378,
                    "duration": 0.10452950000001238
                },
                {
                    "name": "E6",
                    "midi": 88,
                    "time": 234.98231600000994,
                    "velocity": 0.49606299212598426,
                    "duration": 0.10452950000001238
                },
                {
                    "name": "E4",
                    "midi": 64,
                    "time": 235.19137500000997,
                    "velocity": 0.41732283464566927,
                    "duration": 0.10452950000001238
                },
                {
                    "name": "E5",
                    "midi": 76,
                    "time": 235.19137500000997,
                    "velocity": 0.49606299212598426,
                    "duration": 0.10452950000001238
                },
                {
                    "name": "G5",
                    "midi": 79,
                    "time": 235.40043400001,
                    "velocity": 0.49606299212598426,
                    "duration": 0.10452950000001238
                },
                {
                    "name": "G6",
                    "midi": 91,
                    "time": 235.40043400001,
                    "velocity": 0.5826771653543307,
                    "duration": 0.10452950000001238
                },
                {
                    "name": "G4",
                    "midi": 67,
                    "time": 235.60949300001002,
                    "velocity": 0.4015748031496063,
                    "duration": 0.10452950000001238
                },
                {
                    "name": "G5",
                    "midi": 79,
                    "time": 235.60949300001002,
                    "velocity": 0.47244094488188976,
                    "duration": 0.10452950000001238
                },
                {
                    "name": "G6",
                    "midi": 91,
                    "time": 235.81855200001004,
                    "velocity": 0.5118110236220472,
                    "duration": 0.10452950000001238
                },
                {
                    "name": "G5",
                    "midi": 79,
                    "time": 235.81855200001004,
                    "velocity": 0.4251968503937008,
                    "duration": 0.10452950000001238
                },
                {
                    "name": "G7",
                    "midi": 103,
                    "time": 236.02761100001007,
                    "velocity": 0.6377952755905512,
                    "duration": 0.10452950000001238
                },
                {
                    "name": "G6",
                    "midi": 91,
                    "time": 236.02761100001007,
                    "velocity": 0.5196850393700787,
                    "duration": 0.10452950000001238
                },
                {
                    "name": "G5",
                    "midi": 79,
                    "time": 236.2366700000101,
                    "velocity": 0.4251968503937008,
                    "duration": 0.10452950000001238
                },
                {
                    "name": "G6",
                    "midi": 91,
                    "time": 236.2366700000101,
                    "velocity": 0.5118110236220472,
                    "duration": 0.10452950000001238
                },
                {
                    "name": "G4",
                    "midi": 67,
                    "time": 236.44572900001012,
                    "velocity": 0.4251968503937008,
                    "duration": 0.10452950000001238
                },
                {
                    "name": "G5",
                    "midi": 79,
                    "time": 236.44572900001012,
                    "velocity": 0.5118110236220472,
                    "duration": 0.10452950000001238
                },
                {
                    "name": "A#5",
                    "midi": 82,
                    "time": 236.65478800001014,
                    "velocity": 0.5118110236220472,
                    "duration": 0.10452950000001238
                },
                {
                    "name": "A#6",
                    "midi": 94,
                    "time": 236.65478800001014,
                    "velocity": 0.6141732283464567,
                    "duration": 0.10452950000001238
                },
                {
                    "name": "A#4",
                    "midi": 70,
                    "time": 236.86384700001017,
                    "velocity": 0.4251968503937008,
                    "duration": 0.10452950000001238
                },
                {
                    "name": "A#5",
                    "midi": 82,
                    "time": 236.86384700001017,
                    "velocity": 0.49606299212598426,
                    "duration": 0.10452950000001238
                },
                {
                    "name": "A#6",
                    "midi": 94,
                    "time": 237.0729060000102,
                    "velocity": 0.5354330708661418,
                    "duration": 0.10452950000001238
                },
                {
                    "name": "A#5",
                    "midi": 82,
                    "time": 237.0729060000102,
                    "velocity": 0.44881889763779526,
                    "duration": 0.10452950000001238
                },
                {
                    "name": "A#7",
                    "midi": 106,
                    "time": 237.28196500001022,
                    "velocity": 0.6535433070866141,
                    "duration": 0.10452950000001238
                },
                {
                    "name": "A#6",
                    "midi": 94,
                    "time": 237.28196500001022,
                    "velocity": 0.5511811023622047,
                    "duration": 0.10452950000001238
                },
                {
                    "name": "A#5",
                    "midi": 82,
                    "time": 237.49102400001024,
                    "velocity": 0.4409448818897638,
                    "duration": 0.10452950000001238
                },
                {
                    "name": "A#6",
                    "midi": 94,
                    "time": 237.49102400001024,
                    "velocity": 0.5354330708661418,
                    "duration": 0.10452950000001238
                },
                {
                    "name": "A#4",
                    "midi": 70,
                    "time": 237.70008300001027,
                    "velocity": 0.44881889763779526,
                    "duration": 0.10452950000001238
                },
                {
                    "name": "A#5",
                    "midi": 82,
                    "time": 237.70008300001027,
                    "velocity": 0.5354330708661418,
                    "duration": 0.10452950000001238
                },
                {
                    "name": "B5",
                    "midi": 83,
                    "time": 237.9091420000103,
                    "velocity": 0.5354330708661418,
                    "duration": 0.10452950000001238
                },
                {
                    "name": "B6",
                    "midi": 95,
                    "time": 237.9091420000103,
                    "velocity": 0.6377952755905512,
                    "duration": 0.10452950000001238
                },
                {
                    "name": "B4",
                    "midi": 71,
                    "time": 238.11820100001032,
                    "velocity": 0.4330708661417323,
                    "duration": 0.10452950000001238
                },
                {
                    "name": "B5",
                    "midi": 83,
                    "time": 238.11820100001032,
                    "velocity": 0.5118110236220472,
                    "duration": 0.10452950000001238
                },
                {
                    "name": "B6",
                    "midi": 95,
                    "time": 238.32726000001034,
                    "velocity": 0.5590551181102362,
                    "duration": 0.10452950000001238
                },
                {
                    "name": "B5",
                    "midi": 83,
                    "time": 238.32726000001034,
                    "velocity": 0.4645669291338583,
                    "duration": 0.10452950000001238
                },
                {
                    "name": "B7",
                    "midi": 107,
                    "time": 238.53631900001037,
                    "velocity": 0.6850393700787402,
                    "duration": 0.10452950000001238
                },
                {
                    "name": "B6",
                    "midi": 95,
                    "time": 238.53631900001037,
                    "velocity": 0.5669291338582677,
                    "duration": 0.10452950000001238
                },
                {
                    "name": "B5",
                    "midi": 83,
                    "time": 238.7453780000104,
                    "velocity": 0.4645669291338583,
                    "duration": 0.10452950000001238
                },
                {
                    "name": "B6",
                    "midi": 95,
                    "time": 238.7453780000104,
                    "velocity": 0.5590551181102362,
                    "duration": 0.10452950000001238
                },
                {
                    "name": "B4",
                    "midi": 71,
                    "time": 238.95443700001042,
                    "velocity": 0.47244094488188976,
                    "duration": 0.10452950000001238
                },
                {
                    "name": "B5",
                    "midi": 83,
                    "time": 238.95443700001042,
                    "velocity": 0.5590551181102362,
                    "duration": 0.10452950000001238
                },
                {
                    "name": "E5",
                    "midi": 76,
                    "time": 239.16349600001044,
                    "velocity": 0.4094488188976378,
                    "duration": 0.31358850000003713
                },
                {
                    "name": "E6",
                    "midi": 88,
                    "time": 239.16349600001044,
                    "velocity": 0.5433070866141733,
                    "duration": 0.31358850000003713
                },
                {
                    "name": "G5",
                    "midi": 79,
                    "time": 239.26802550001045,
                    "velocity": 0.3228346456692913,
                    "duration": 0.10452950000001238
                },
                {
                    "name": "C6",
                    "midi": 84,
                    "time": 239.37255500001046,
                    "velocity": 0.3228346456692913,
                    "duration": 0.10452950000001238
                },
                {
                    "name": "D5",
                    "midi": 74,
                    "time": 239.47708450001048,
                    "velocity": 0.36220472440944884,
                    "duration": 0.31358850000003713
                },
                {
                    "name": "D6",
                    "midi": 86,
                    "time": 239.47708450001048,
                    "velocity": 0.4881889763779528,
                    "duration": 0.31358850000003713
                },
                {
                    "name": "E5",
                    "midi": 76,
                    "time": 239.5816140000105,
                    "velocity": 0.29133858267716534,
                    "duration": 0.10452950000001238
                },
                {
                    "name": "G5",
                    "midi": 79,
                    "time": 239.6861435000105,
                    "velocity": 0.29133858267716534,
                    "duration": 0.10452950000001238
                },
                {
                    "name": "C5",
                    "midi": 72,
                    "time": 239.79067300001051,
                    "velocity": 0.3543307086614173,
                    "duration": 0.31358850000003713
                },
                {
                    "name": "C6",
                    "midi": 84,
                    "time": 239.79067300001051,
                    "velocity": 0.48031496062992124,
                    "duration": 0.31358850000003713
                },
                {
                    "name": "E5",
                    "midi": 76,
                    "time": 239.89520250001053,
                    "velocity": 0.28346456692913385,
                    "duration": 0.10452950000001238
                },
                {
                    "name": "G5",
                    "midi": 79,
                    "time": 239.99973200001054,
                    "velocity": 0.29133858267716534,
                    "duration": 0.10452950000001238
                },
                {
                    "name": "B4",
                    "midi": 71,
                    "time": 240.10426150001055,
                    "velocity": 0.36220472440944884,
                    "duration": 0.31358850000003713
                },
                {
                    "name": "B5",
                    "midi": 83,
                    "time": 240.10426150001055,
                    "velocity": 0.4881889763779528,
                    "duration": 0.31358850000003713
                },
                {
                    "name": "E5",
                    "midi": 76,
                    "time": 240.20879100001056,
                    "velocity": 0.29133858267716534,
                    "duration": 0.10452950000001238
                },
                {
                    "name": "G5",
                    "midi": 79,
                    "time": 240.31332050001058,
                    "velocity": 0.29133858267716534,
                    "duration": 0.10452950000001238
                },
                {
                    "name": "A4",
                    "midi": 69,
                    "time": 240.4178500000106,
                    "velocity": 0.3543307086614173,
                    "duration": 0.31358850000003713
                },
                {
                    "name": "A5",
                    "midi": 81,
                    "time": 240.4178500000106,
                    "velocity": 0.49606299212598426,
                    "duration": 0.31358850000003713
                },
                {
                    "name": "C5",
                    "midi": 72,
                    "time": 240.5223795000106,
                    "velocity": 0.3228346456692913,
                    "duration": 0.10452950000001238
                },
                {
                    "name": "E5",
                    "midi": 76,
                    "time": 240.6269090000106,
                    "velocity": 0.3228346456692913,
                    "duration": 0.10452950000001238
                },
                {
                    "name": "F#4",
                    "midi": 66,
                    "time": 240.73143850001063,
                    "velocity": 0.3543307086614173,
                    "duration": 0.31358850000003713
                },
                {
                    "name": "F#5",
                    "midi": 78,
                    "time": 240.73143850001063,
                    "velocity": 0.47244094488188976,
                    "duration": 0.31358850000003713
                },
                {
                    "name": "C5",
                    "midi": 72,
                    "time": 240.83596800001064,
                    "velocity": 0.28346456692913385,
                    "duration": 0.10452950000001238
                },
                {
                    "name": "E5",
                    "midi": 76,
                    "time": 240.94049750001065,
                    "velocity": 0.28346456692913385,
                    "duration": 0.10452950000001238
                },
                {
                    "name": "G4",
                    "midi": 67,
                    "time": 241.04502700001066,
                    "velocity": 0.3779527559055118,
                    "duration": 0.31358850000003713
                },
                {
                    "name": "G5",
                    "midi": 79,
                    "time": 241.04502700001066,
                    "velocity": 0.49606299212598426,
                    "duration": 0.31358850000003713
                },
                {
                    "name": "C5",
                    "midi": 72,
                    "time": 241.14955650001068,
                    "velocity": 0.30708661417322836,
                    "duration": 0.10452950000001238
                },
                {
                    "name": "E5",
                    "midi": 76,
                    "time": 241.2540860000107,
                    "velocity": 0.30708661417322836,
                    "duration": 0.10452950000001238
                },
                {
                    "name": "E5",
                    "midi": 76,
                    "time": 241.3586155000107,
                    "velocity": 0.4015748031496063,
                    "duration": 0.31358850000003713
                },
                {
                    "name": "E6",
                    "midi": 88,
                    "time": 241.3586155000107,
                    "velocity": 0.5118110236220472,
                    "duration": 0.31358850000003713
                },
                {
                    "name": "G5",
                    "midi": 79,
                    "time": 241.4631450000107,
                    "velocity": 0.28346456692913385,
                    "duration": 0.10452950000001238
                },
                {
                    "name": "C6",
                    "midi": 84,
                    "time": 241.56767450001072,
                    "velocity": 0.28346456692913385,
                    "duration": 0.10452950000001238
                },
                {
                    "name": "E5",
                    "midi": 76,
                    "time": 241.67220400001074,
                    "velocity": 0.4094488188976378,
                    "duration": 0.31358850000003713
                },
                {
                    "name": "E6",
                    "midi": 88,
                    "time": 241.67220400001074,
                    "velocity": 0.5433070866141733,
                    "duration": 0.31358850000003713
                },
                {
                    "name": "F#5",
                    "midi": 78,
                    "time": 241.77673350001075,
                    "velocity": 0.3228346456692913,
                    "duration": 0.10452950000001238
                },
                {
                    "name": "A5",
                    "midi": 81,
                    "time": 241.88126300001076,
                    "velocity": 0.3228346456692913,
                    "duration": 0.10452950000001238
                },
                {
                    "name": "C#5",
                    "midi": 73,
                    "time": 241.98579250001077,
                    "velocity": 0.48031496062992124,
                    "duration": 0.31358850000003713
                },
                {
                    "name": "C#6",
                    "midi": 85,
                    "time": 241.98579250001077,
                    "velocity": 0.5196850393700787,
                    "duration": 0.31358850000003713
                },
                {
                    "name": "F#5",
                    "midi": 78,
                    "time": 242.0903220000108,
                    "velocity": 0.29133858267716534,
                    "duration": 0.10452950000001238
                },
                {
                    "name": "A5",
                    "midi": 81,
                    "time": 242.1948515000108,
                    "velocity": 0.29133858267716534,
                    "duration": 0.10452950000001238
                },
                {
                    "name": "D5",
                    "midi": 74,
                    "time": 242.2993810000108,
                    "velocity": 0.3937007874015748,
                    "duration": 0.31358850000003713
                },
                {
                    "name": "D6",
                    "midi": 86,
                    "time": 242.2993810000108,
                    "velocity": 0.5118110236220472,
                    "duration": 0.31358850000003713
                },
                {
                    "name": "F#5",
                    "midi": 78,
                    "time": 242.40391050001082,
                    "velocity": 0.28346456692913385,
                    "duration": 0.10452950000001238
                },
                {
                    "name": "A5",
                    "midi": 81,
                    "time": 242.50844000001084,
                    "velocity": 0.29133858267716534,
                    "duration": 0.10452950000001238
                },
                {
                    "name": "E5",
                    "midi": 76,
                    "time": 242.61296950001085,
                    "velocity": 0.4251968503937008,
                    "duration": 0.31358850000003713
                },
                {
                    "name": "E6",
                    "midi": 88,
                    "time": 242.61296950001085,
                    "velocity": 0.5511811023622047,
                    "duration": 0.31358850000003713
                },
                {
                    "name": "F#5",
                    "midi": 78,
                    "time": 242.71749900001086,
                    "velocity": 0.29133858267716534,
                    "duration": 0.10452950000001238
                },
                {
                    "name": "A5",
                    "midi": 81,
                    "time": 242.82202850001087,
                    "velocity": 0.29133858267716534,
                    "duration": 0.10452950000001238
                },
                {
                    "name": "F5",
                    "midi": 77,
                    "time": 242.92655800001089,
                    "velocity": 0.4409448818897638,
                    "duration": 0.31358850000003713
                },
                {
                    "name": "F6",
                    "midi": 89,
                    "time": 242.92655800001089,
                    "velocity": 0.5748031496062992,
                    "duration": 0.31358850000003713
                },
                {
                    "name": "B5",
                    "midi": 83,
                    "time": 243.0310875000109,
                    "velocity": 0.3464566929133858,
                    "duration": 0.10452950000001238
                },
                {
                    "name": "D6",
                    "midi": 86,
                    "time": 243.1356170000109,
                    "velocity": 0.3543307086614173,
                    "duration": 0.10452950000001238
                },
                {
                    "name": "F#5",
                    "midi": 78,
                    "time": 243.24014650001092,
                    "velocity": 0.41732283464566927,
                    "duration": 0.31358850000003713
                },
                {
                    "name": "F#6",
                    "midi": 90,
                    "time": 243.24014650001092,
                    "velocity": 0.5433070866141733,
                    "duration": 0.31358850000003713
                },
                {
                    "name": "B5",
                    "midi": 83,
                    "time": 243.34467600001094,
                    "velocity": 0.3543307086614173,
                    "duration": 0.10452950000001238
                },
                {
                    "name": "D6",
                    "midi": 86,
                    "time": 243.44920550001095,
                    "velocity": 0.3543307086614173,
                    "duration": 0.10452950000001238
                },
                {
                    "name": "A5",
                    "midi": 81,
                    "time": 243.55373500001096,
                    "velocity": 0.4566929133858268,
                    "duration": 0.31358850000003713
                },
                {
                    "name": "A6",
                    "midi": 93,
                    "time": 243.55373500001096,
                    "velocity": 0.5905511811023622,
                    "duration": 0.31358850000003713
                },
                {
                    "name": "B5",
                    "midi": 83,
                    "time": 243.65826450001097,
                    "velocity": 0.3779527559055118,
                    "duration": 0.10452950000001238
                },
                {
                    "name": "D6",
                    "midi": 86,
                    "time": 243.76279400001098,
                    "velocity": 0.3858267716535433,
                    "duration": 0.10452950000001238
                },
                {
                    "name": "G5",
                    "midi": 79,
                    "time": 243.867323500011,
                    "velocity": 0.4251968503937008,
                    "duration": 0.31358850000003713
                },
                {
                    "name": "G6",
                    "midi": 91,
                    "time": 243.867323500011,
                    "velocity": 0.5511811023622047,
                    "duration": 0.31358850000003713
                },
                {
                    "name": "B5",
                    "midi": 83,
                    "time": 243.971853000011,
                    "velocity": 0.3700787401574803,
                    "duration": 0.10452950000001238
                },
                {
                    "name": "D6",
                    "midi": 86,
                    "time": 244.07638250001102,
                    "velocity": 0.36220472440944884,
                    "duration": 0.10452950000001238
                },
                {
                    "name": "E5",
                    "midi": 76,
                    "time": 244.18091200001103,
                    "velocity": 0.4094488188976378,
                    "duration": 0.10452950000001238
                },
                {
                    "name": "E6",
                    "midi": 88,
                    "time": 244.18091200001103,
                    "velocity": 0.5433070866141733,
                    "duration": 0.10452950000001238
                },
                {
                    "name": "G5",
                    "midi": 79,
                    "time": 244.28544150001105,
                    "velocity": 0.3228346456692913,
                    "duration": 0.10452950000001238
                },
                {
                    "name": "C6",
                    "midi": 84,
                    "time": 244.38997100001106,
                    "velocity": 0.3228346456692913,
                    "duration": 0.10452950000001238
                },
                {
                    "name": "D5",
                    "midi": 74,
                    "time": 244.49450050001107,
                    "velocity": 0.36220472440944884,
                    "duration": 0.10452950000001238
                },
                {
                    "name": "D6",
                    "midi": 86,
                    "time": 244.49450050001107,
                    "velocity": 0.4881889763779528,
                    "duration": 0.10452950000001238
                },
                {
                    "name": "E5",
                    "midi": 76,
                    "time": 244.59903000001108,
                    "velocity": 0.29133858267716534,
                    "duration": 0.10452950000001238
                },
                {
                    "name": "G5",
                    "midi": 79,
                    "time": 244.7035595000111,
                    "velocity": 0.29133858267716534,
                    "duration": 0.10452950000001238
                },
                {
                    "name": "C5",
                    "midi": 72,
                    "time": 244.8080890000111,
                    "velocity": 0.3543307086614173,
                    "duration": 0.10452950000001238
                },
                {
                    "name": "C6",
                    "midi": 84,
                    "time": 244.8080890000111,
                    "velocity": 0.48031496062992124,
                    "duration": 0.10452950000001238
                },
                {
                    "name": "E5",
                    "midi": 76,
                    "time": 244.91261850001112,
                    "velocity": 0.28346456692913385,
                    "duration": 0.10452950000001238
                },
                {
                    "name": "G5",
                    "midi": 79,
                    "time": 245.01714800001113,
                    "velocity": 0.29133858267716534,
                    "duration": 0.10452950000001238
                },
                {
                    "name": "B4",
                    "midi": 71,
                    "time": 245.12167750001115,
                    "velocity": 0.36220472440944884,
                    "duration": 0.10452950000001238
                },
                {
                    "name": "B5",
                    "midi": 83,
                    "time": 245.12167750001115,
                    "velocity": 0.4881889763779528,
                    "duration": 0.10452950000001238
                },
                {
                    "name": "E5",
                    "midi": 76,
                    "time": 245.22620700001116,
                    "velocity": 0.29133858267716534,
                    "duration": 0.10452950000001238
                },
                {
                    "name": "G5",
                    "midi": 79,
                    "time": 245.33073650001117,
                    "velocity": 0.29133858267716534,
                    "duration": 0.10452950000001238
                },
                {
                    "name": "A4",
                    "midi": 69,
                    "time": 245.43526600001118,
                    "velocity": 0.3543307086614173,
                    "duration": 0.10452950000001238
                },
                {
                    "name": "A5",
                    "midi": 81,
                    "time": 245.43526600001118,
                    "velocity": 0.49606299212598426,
                    "duration": 0.10452950000001238
                },
                {
                    "name": "C5",
                    "midi": 72,
                    "time": 245.5397955000112,
                    "velocity": 0.3228346456692913,
                    "duration": 0.10452950000001238
                },
                {
                    "name": "E5",
                    "midi": 76,
                    "time": 245.6443250000112,
                    "velocity": 0.3228346456692913,
                    "duration": 0.10452950000001238
                },
                {
                    "name": "F#4",
                    "midi": 66,
                    "time": 245.74885450001122,
                    "velocity": 0.3543307086614173,
                    "duration": 0.10452950000001238
                },
                {
                    "name": "F#5",
                    "midi": 78,
                    "time": 245.74885450001122,
                    "velocity": 0.47244094488188976,
                    "duration": 0.10452950000001238
                },
                {
                    "name": "C5",
                    "midi": 72,
                    "time": 245.85338400001123,
                    "velocity": 0.28346456692913385,
                    "duration": 0.10452950000001238
                },
                {
                    "name": "E5",
                    "midi": 76,
                    "time": 245.95791350001124,
                    "velocity": 0.28346456692913385,
                    "duration": 0.10452950000001238
                },
                {
                    "name": "G4",
                    "midi": 67,
                    "time": 246.06244300001126,
                    "velocity": 0.3779527559055118,
                    "duration": 0.10452950000001238
                },
                {
                    "name": "G5",
                    "midi": 79,
                    "time": 246.06244300001126,
                    "velocity": 0.49606299212598426,
                    "duration": 0.10452950000001238
                },
                {
                    "name": "C5",
                    "midi": 72,
                    "time": 246.16697250001127,
                    "velocity": 0.30708661417322836,
                    "duration": 0.10452950000001238
                },
                {
                    "name": "E5",
                    "midi": 76,
                    "time": 246.27150200001128,
                    "velocity": 0.30708661417322836,
                    "duration": 0.10452950000001238
                },
                {
                    "name": "E5",
                    "midi": 76,
                    "time": 246.3760315000113,
                    "velocity": 0.4015748031496063,
                    "duration": 0.10452950000001238
                },
                {
                    "name": "E6",
                    "midi": 88,
                    "time": 246.3760315000113,
                    "velocity": 0.5118110236220472,
                    "duration": 0.10452950000001238
                },
                {
                    "name": "G5",
                    "midi": 79,
                    "time": 246.4805610000113,
                    "velocity": 0.28346456692913385,
                    "duration": 0.10452950000001238
                },
                {
                    "name": "C6",
                    "midi": 84,
                    "time": 246.58509050001132,
                    "velocity": 0.28346456692913385,
                    "duration": 0.10452950000001238
                },
                {
                    "name": "E5",
                    "midi": 76,
                    "time": 246.68962000001133,
                    "velocity": 0.3543307086614173,
                    "duration": 0.10452950000001238
                },
                {
                    "name": "E6",
                    "midi": 88,
                    "time": 246.68962000001133,
                    "velocity": 0.5118110236220472,
                    "duration": 0.10452950000001238
                },
                {
                    "name": "F#5",
                    "midi": 78,
                    "time": 246.79414950001134,
                    "velocity": 0.33858267716535434,
                    "duration": 0.10452950000001238
                },
                {
                    "name": "A5",
                    "midi": 81,
                    "time": 246.89867900001136,
                    "velocity": 0.33858267716535434,
                    "duration": 0.10452950000001238
                },
                {
                    "name": "D#5",
                    "midi": 75,
                    "time": 247.00320850001137,
                    "velocity": 0.41732283464566927,
                    "duration": 0.10452950000001238
                },
                {
                    "name": "D#6",
                    "midi": 87,
                    "time": 247.00320850001137,
                    "velocity": 0.49606299212598426,
                    "duration": 0.10452950000001238
                },
                {
                    "name": "F#5",
                    "midi": 78,
                    "time": 247.10773800001138,
                    "velocity": 0.3779527559055118,
                    "duration": 0.10452950000001238
                },
                {
                    "name": "A5",
                    "midi": 81,
                    "time": 247.2122675000114,
                    "velocity": 0.3858267716535433,
                    "duration": 0.10452950000001238
                },
                {
                    "name": "G5",
                    "midi": 79,
                    "time": 247.3167970000114,
                    "velocity": 0.4645669291338583,
                    "duration": 0.10452950000001238
                },
                {
                    "name": "G6",
                    "midi": 91,
                    "time": 247.3167970000114,
                    "velocity": 0.5511811023622047,
                    "duration": 0.10452950000001238
                },
                {
                    "name": "A5",
                    "midi": 81,
                    "time": 247.42132650001142,
                    "velocity": 0.3858267716535433,
                    "duration": 0.10452950000001238
                },
                {
                    "name": "D#6",
                    "midi": 87,
                    "time": 247.52585600001143,
                    "velocity": 0.4015748031496063,
                    "duration": 0.10452950000001238
                },
                {
                    "name": "F#5",
                    "midi": 78,
                    "time": 247.63038550001144,
                    "velocity": 0.5039370078740157,
                    "duration": 0.10452950000001238
                },
                {
                    "name": "F#6",
                    "midi": 90,
                    "time": 247.63038550001144,
                    "velocity": 0.5984251968503937,
                    "duration": 0.10452950000001238
                },
                {
                    "name": "A5",
                    "midi": 81,
                    "time": 247.73491500001145,
                    "velocity": 0.4094488188976378,
                    "duration": 0.10452950000001238
                },
                {
                    "name": "D#6",
                    "midi": 87,
                    "time": 247.83944450001147,
                    "velocity": 0.4251968503937008,
                    "duration": 0.10452950000001238
                },
                {
                    "name": "A5",
                    "midi": 81,
                    "time": 247.94397400001148,
                    "velocity": 0.5433070866141733,
                    "duration": 0.10452950000001238
                },
                {
                    "name": "A6",
                    "midi": 93,
                    "time": 247.94397400001148,
                    "velocity": 0.6377952755905512,
                    "duration": 0.10452950000001238
                },
                {
                    "name": "B5",
                    "midi": 83,
                    "time": 248.0485035000115,
                    "velocity": 0.4566929133858268,
                    "duration": 0.10452950000001238
                },
                {
                    "name": "E6",
                    "midi": 88,
                    "time": 248.1530330000115,
                    "velocity": 0.4645669291338583,
                    "duration": 0.10452950000001238
                },
                {
                    "name": "G5",
                    "midi": 79,
                    "time": 248.25756250001152,
                    "velocity": 0.5433070866141733,
                    "duration": 0.10452950000001238
                },
                {
                    "name": "G6",
                    "midi": 91,
                    "time": 248.25756250001152,
                    "velocity": 0.6456692913385826,
                    "duration": 0.10452950000001238
                },
                {
                    "name": "B5",
                    "midi": 83,
                    "time": 248.36209200001153,
                    "velocity": 0.47244094488188976,
                    "duration": 0.10452950000001238
                },
                {
                    "name": "E6",
                    "midi": 88,
                    "time": 248.46662150001154,
                    "velocity": 0.49606299212598426,
                    "duration": 0.10452950000001238
                },
                {
                    "name": "B5",
                    "midi": 83,
                    "time": 248.57115100001155,
                    "velocity": 0.6299212598425197,
                    "duration": 0.10452950000001238
                },
                {
                    "name": "B6",
                    "midi": 95,
                    "time": 248.57115100001155,
                    "velocity": 0.7401574803149606,
                    "duration": 0.10452950000001238
                },
                {
                    "name": "D6",
                    "midi": 86,
                    "time": 248.67568050001157,
                    "velocity": 0.49606299212598426,
                    "duration": 0.10452950000001238
                },
                {
                    "name": "F6",
                    "midi": 89,
                    "time": 248.78021000001158,
                    "velocity": 0.5039370078740157,
                    "duration": 0.10452950000001238
                },
                {
                    "name": "A5",
                    "midi": 81,
                    "time": 248.8847395000116,
                    "velocity": 0.5748031496062992,
                    "duration": 0.10452950000001238
                },
                {
                    "name": "A6",
                    "midi": 93,
                    "time": 248.8847395000116,
                    "velocity": 0.6850393700787402,
                    "duration": 0.10452950000001238
                },
                {
                    "name": "D6",
                    "midi": 86,
                    "time": 248.9892690000116,
                    "velocity": 0.3858267716535433,
                    "duration": 0.10452950000001238
                },
                {
                    "name": "F6",
                    "midi": 89,
                    "time": 248.9892690000116,
                    "velocity": 0.4645669291338583,
                    "duration": 0.10452950000001238
                },
                {
                    "name": "G5",
                    "midi": 79,
                    "time": 249.09379850001162,
                    "velocity": 0.4645669291338583,
                    "duration": 0.10452950000001238
                },
                {
                    "name": "G6",
                    "midi": 91,
                    "time": 249.09379850001162,
                    "velocity": 0.4645669291338583,
                    "duration": 0.10452950000001238
                },
                {
                    "name": "G6",
                    "midi": 91,
                    "time": 249.19832800001163,
                    "velocity": 0.6220472440944882,
                    "duration": 0.3135885000000087
                },
                {
                    "name": "E6",
                    "midi": 88,
                    "time": 249.19832800001163,
                    "velocity": 0.6220472440944882,
                    "duration": 0.3135885000000087
                },
                {
                    "name": "E7",
                    "midi": 100,
                    "time": 249.19832800001163,
                    "velocity": 0.7401574803149606,
                    "duration": 0.3135885000000087
                },
                {
                    "name": "G6",
                    "midi": 91,
                    "time": 249.51191650001164,
                    "velocity": 0.5511811023622047,
                    "duration": 0.3135885000000087
                },
                {
                    "name": "E6",
                    "midi": 88,
                    "time": 249.51191650001164,
                    "velocity": 0.5511811023622047,
                    "duration": 0.3135885000000087
                },
                {
                    "name": "D6",
                    "midi": 86,
                    "time": 249.51191650001164,
                    "velocity": 0.5511811023622047,
                    "duration": 0.3135885000000087
                },
                {
                    "name": "D7",
                    "midi": 98,
                    "time": 249.51191650001164,
                    "velocity": 0.6614173228346457,
                    "duration": 0.3135885000000087
                },
                {
                    "name": "G6",
                    "midi": 91,
                    "time": 249.82550500001165,
                    "velocity": 0.5433070866141733,
                    "duration": 0.3135885000000087
                },
                {
                    "name": "E6",
                    "midi": 88,
                    "time": 249.82550500001165,
                    "velocity": 0.5433070866141733,
                    "duration": 0.3135885000000087
                },
                {
                    "name": "C6",
                    "midi": 84,
                    "time": 249.82550500001165,
                    "velocity": 0.5433070866141733,
                    "duration": 0.3135885000000087
                },
                {
                    "name": "C7",
                    "midi": 96,
                    "time": 249.82550500001165,
                    "velocity": 0.6535433070866141,
                    "duration": 0.3135885000000087
                },
                {
                    "name": "G6",
                    "midi": 91,
                    "time": 250.13909350001165,
                    "velocity": 0.5511811023622047,
                    "duration": 0.3135885000000087
                },
                {
                    "name": "E6",
                    "midi": 88,
                    "time": 250.13909350001165,
                    "velocity": 0.5511811023622047,
                    "duration": 0.3135885000000087
                },
                {
                    "name": "B5",
                    "midi": 83,
                    "time": 250.13909350001165,
                    "velocity": 0.5511811023622047,
                    "duration": 0.3135885000000087
                },
                {
                    "name": "B6",
                    "midi": 95,
                    "time": 250.13909350001165,
                    "velocity": 0.6614173228346457,
                    "duration": 0.3135885000000087
                },
                {
                    "name": "E6",
                    "midi": 88,
                    "time": 250.45268200001166,
                    "velocity": 0.5433070866141733,
                    "duration": 0.3135885000000087
                },
                {
                    "name": "C6",
                    "midi": 84,
                    "time": 250.45268200001166,
                    "velocity": 0.5433070866141733,
                    "duration": 0.3135885000000087
                },
                {
                    "name": "A5",
                    "midi": 81,
                    "time": 250.45268200001166,
                    "velocity": 0.5433070866141733,
                    "duration": 0.3135885000000087
                },
                {
                    "name": "A6",
                    "midi": 93,
                    "time": 250.45268200001166,
                    "velocity": 0.6929133858267716,
                    "duration": 0.3135885000000087
                },
                {
                    "name": "E6",
                    "midi": 88,
                    "time": 250.76627050001167,
                    "velocity": 0.5433070866141733,
                    "duration": 0.3135885000000087
                },
                {
                    "name": "C6",
                    "midi": 84,
                    "time": 250.76627050001167,
                    "velocity": 0.5433070866141733,
                    "duration": 0.3135885000000087
                },
                {
                    "name": "F#5",
                    "midi": 78,
                    "time": 250.76627050001167,
                    "velocity": 0.5433070866141733,
                    "duration": 0.3135885000000087
                },
                {
                    "name": "F#6",
                    "midi": 90,
                    "time": 250.76627050001167,
                    "velocity": 0.6456692913385826,
                    "duration": 0.3135885000000087
                },
                {
                    "name": "E6",
                    "midi": 88,
                    "time": 251.07985900001168,
                    "velocity": 0.5669291338582677,
                    "duration": 0.3135885000000087
                },
                {
                    "name": "C6",
                    "midi": 84,
                    "time": 251.07985900001168,
                    "velocity": 0.5669291338582677,
                    "duration": 0.3135885000000087
                },
                {
                    "name": "G5",
                    "midi": 79,
                    "time": 251.07985900001168,
                    "velocity": 0.5669291338582677,
                    "duration": 0.3135885000000087
                },
                {
                    "name": "G6",
                    "midi": 91,
                    "time": 251.07985900001168,
                    "velocity": 0.6771653543307087,
                    "duration": 0.3135885000000087
                },
                {
                    "name": "C7",
                    "midi": 96,
                    "time": 251.3934475000117,
                    "velocity": 0.6062992125984252,
                    "duration": 0.3135885000000087
                },
                {
                    "name": "G6",
                    "midi": 91,
                    "time": 251.3934475000117,
                    "velocity": 0.6062992125984252,
                    "duration": 0.3135885000000087
                },
                {
                    "name": "E6",
                    "midi": 88,
                    "time": 251.3934475000117,
                    "velocity": 0.6062992125984252,
                    "duration": 0.3135885000000087
                },
                {
                    "name": "E7",
                    "midi": 100,
                    "time": 251.3934475000117,
                    "velocity": 0.7086614173228346,
                    "duration": 0.3135885000000087
                },
                {
                    "name": "A6",
                    "midi": 93,
                    "time": 251.7070360000117,
                    "velocity": 0.6062992125984252,
                    "duration": 0.3135885000000087
                },
                {
                    "name": "F#6",
                    "midi": 90,
                    "time": 251.7070360000117,
                    "velocity": 0.6062992125984252,
                    "duration": 0.3135885000000087
                },
                {
                    "name": "E6",
                    "midi": 88,
                    "time": 251.7070360000117,
                    "velocity": 0.6062992125984252,
                    "duration": 0.3135885000000087
                },
                {
                    "name": "E7",
                    "midi": 100,
                    "time": 251.7070360000117,
                    "velocity": 0.7086614173228346,
                    "duration": 0.3135885000000087
                },
                {
                    "name": "A6",
                    "midi": 93,
                    "time": 252.0206245000117,
                    "velocity": 0.5669291338582677,
                    "duration": 0.3135885000000087
                },
                {
                    "name": "F#6",
                    "midi": 90,
                    "time": 252.0206245000117,
                    "velocity": 0.5669291338582677,
                    "duration": 0.3135885000000087
                },
                {
                    "name": "C#6",
                    "midi": 85,
                    "time": 252.0206245000117,
                    "velocity": 0.5669291338582677,
                    "duration": 0.3135885000000087
                },
                {
                    "name": "C#7",
                    "midi": 97,
                    "time": 252.0206245000117,
                    "velocity": 0.6692913385826772,
                    "duration": 0.3135885000000087
                },
                {
                    "name": "A6",
                    "midi": 93,
                    "time": 252.33421300001172,
                    "velocity": 0.6220472440944882,
                    "duration": 0.3135885000000087
                },
                {
                    "name": "F#6",
                    "midi": 90,
                    "time": 252.33421300001172,
                    "velocity": 0.6220472440944882,
                    "duration": 0.3135885000000087
                },
                {
                    "name": "D6",
                    "midi": 86,
                    "time": 252.33421300001172,
                    "velocity": 0.6220472440944882,
                    "duration": 0.3135885000000087
                },
                {
                    "name": "D7",
                    "midi": 98,
                    "time": 252.33421300001172,
                    "velocity": 0.7401574803149606,
                    "duration": 0.3135885000000087
                },
                {
                    "name": "A6",
                    "midi": 93,
                    "time": 252.64780150001172,
                    "velocity": 0.6535433070866141,
                    "duration": 0.3135885000000087
                },
                {
                    "name": "F#6",
                    "midi": 90,
                    "time": 252.64780150001172,
                    "velocity": 0.6535433070866141,
                    "duration": 0.3135885000000087
                },
                {
                    "name": "E6",
                    "midi": 88,
                    "time": 252.64780150001172,
                    "velocity": 0.6535433070866141,
                    "duration": 0.3135885000000087
                },
                {
                    "name": "E7",
                    "midi": 100,
                    "time": 252.64780150001172,
                    "velocity": 0.7795275590551181,
                    "duration": 0.3135885000000087
                },
                {
                    "name": "B6",
                    "midi": 95,
                    "time": 252.96139000001173,
                    "velocity": 0.6692913385826772,
                    "duration": 0.3135885000000087
                },
                {
                    "name": "G#6",
                    "midi": 92,
                    "time": 252.96139000001173,
                    "velocity": 0.6692913385826772,
                    "duration": 0.3135885000000087
                },
                {
                    "name": "F6",
                    "midi": 89,
                    "time": 252.96139000001173,
                    "velocity": 0.6692913385826772,
                    "duration": 0.3135885000000087
                },
                {
                    "name": "F7",
                    "midi": 101,
                    "time": 252.96139000001173,
                    "velocity": 0.7795275590551181,
                    "duration": 0.3135885000000087
                },
                {
                    "name": "G#6",
                    "midi": 92,
                    "time": 253.27497850001174,
                    "velocity": 0.6771653543307087,
                    "duration": 0.3135885000000087
                },
                {
                    "name": "F6",
                    "midi": 89,
                    "time": 253.27497850001174,
                    "velocity": 0.6771653543307087,
                    "duration": 0.3135885000000087
                },
                {
                    "name": "D6",
                    "midi": 86,
                    "time": 253.27497850001174,
                    "velocity": 0.6771653543307087,
                    "duration": 0.3135885000000087
                },
                {
                    "name": "D7",
                    "midi": 98,
                    "time": 253.27497850001174,
                    "velocity": 0.7716535433070866,
                    "duration": 0.3135885000000087
                },
                {
                    "name": "D6",
                    "midi": 86,
                    "time": 253.58856700001175,
                    "velocity": 0.6220472440944882,
                    "duration": 0.3135885000000087
                },
                {
                    "name": "B5",
                    "midi": 83,
                    "time": 253.58856700001175,
                    "velocity": 0.6220472440944882,
                    "duration": 0.3135885000000087
                },
                {
                    "name": "G#5",
                    "midi": 80,
                    "time": 253.58856700001175,
                    "velocity": 0.6220472440944882,
                    "duration": 0.3135885000000087
                },
                {
                    "name": "G#6",
                    "midi": 92,
                    "time": 253.58856700001175,
                    "velocity": 0.7165354330708661,
                    "duration": 0.3135885000000087
                },
                {
                    "name": "D6",
                    "midi": 86,
                    "time": 253.90215550001176,
                    "velocity": 0.5275590551181102,
                    "duration": 0.3135885000000087
                },
                {
                    "name": "B5",
                    "midi": 83,
                    "time": 253.90215550001176,
                    "velocity": 0.5275590551181102,
                    "duration": 0.3135885000000087
                },
                {
                    "name": "G5",
                    "midi": 79,
                    "time": 253.90215550001176,
                    "velocity": 0.5275590551181102,
                    "duration": 0.3135885000000087
                },
                {
                    "name": "G6",
                    "midi": 91,
                    "time": 253.90215550001176,
                    "velocity": 0.6299212598425197,
                    "duration": 0.3135885000000087
                },
                {
                    "name": "G5",
                    "midi": 79,
                    "time": 254.21574400001177,
                    "velocity": 0.4645669291338583,
                    "duration": 0.3135885000000087
                },
                {
                    "name": "E5",
                    "midi": 76,
                    "time": 254.21574400001177,
                    "velocity": 0.4645669291338583,
                    "duration": 0.3135885000000087
                },
                {
                    "name": "E6",
                    "midi": 88,
                    "time": 254.21574400001177,
                    "velocity": 0.5511811023622047,
                    "duration": 0.3135885000000087
                },
                {
                    "name": "G5",
                    "midi": 79,
                    "time": 254.52933250001178,
                    "velocity": 0.4094488188976378,
                    "duration": 0.3135885000000087
                },
                {
                    "name": "E5",
                    "midi": 76,
                    "time": 254.52933250001178,
                    "velocity": 0.4094488188976378,
                    "duration": 0.3135885000000087
                },
                {
                    "name": "D5",
                    "midi": 74,
                    "time": 254.52933250001178,
                    "velocity": 0.4094488188976378,
                    "duration": 0.3135885000000087
                },
                {
                    "name": "D6",
                    "midi": 86,
                    "time": 254.52933250001178,
                    "velocity": 0.49606299212598426,
                    "duration": 0.3135885000000087
                },
                {
                    "name": "G5",
                    "midi": 79,
                    "time": 254.84292100001178,
                    "velocity": 0.4015748031496063,
                    "duration": 0.3135885000000087
                },
                {
                    "name": "E5",
                    "midi": 76,
                    "time": 254.84292100001178,
                    "velocity": 0.4015748031496063,
                    "duration": 0.3135885000000087
                },
                {
                    "name": "C5",
                    "midi": 72,
                    "time": 254.84292100001178,
                    "velocity": 0.4015748031496063,
                    "duration": 0.3135885000000087
                },
                {
                    "name": "C6",
                    "midi": 84,
                    "time": 254.84292100001178,
                    "velocity": 0.4881889763779528,
                    "duration": 0.3135885000000087
                },
                {
                    "name": "G5",
                    "midi": 79,
                    "time": 255.1565095000118,
                    "velocity": 0.4094488188976378,
                    "duration": 0.3135885000000087
                },
                {
                    "name": "E5",
                    "midi": 76,
                    "time": 255.1565095000118,
                    "velocity": 0.4094488188976378,
                    "duration": 0.3135885000000087
                },
                {
                    "name": "B4",
                    "midi": 71,
                    "time": 255.1565095000118,
                    "velocity": 0.4094488188976378,
                    "duration": 0.3135885000000087
                },
                {
                    "name": "B5",
                    "midi": 83,
                    "time": 255.1565095000118,
                    "velocity": 0.49606299212598426,
                    "duration": 0.3135885000000087
                },
                {
                    "name": "E5",
                    "midi": 76,
                    "time": 255.4700980000118,
                    "velocity": 0.4015748031496063,
                    "duration": 0.3135885000000087
                },
                {
                    "name": "C5",
                    "midi": 72,
                    "time": 255.4700980000118,
                    "velocity": 0.4015748031496063,
                    "duration": 0.3135885000000087
                },
                {
                    "name": "A4",
                    "midi": 69,
                    "time": 255.4700980000118,
                    "velocity": 0.4015748031496063,
                    "duration": 0.3135885000000087
                },
                {
                    "name": "A5",
                    "midi": 81,
                    "time": 255.4700980000118,
                    "velocity": 0.5118110236220472,
                    "duration": 0.3135885000000087
                },
                {
                    "name": "E5",
                    "midi": 76,
                    "time": 255.7836865000118,
                    "velocity": 0.4015748031496063,
                    "duration": 0.3135884999999803
                },
                {
                    "name": "C5",
                    "midi": 72,
                    "time": 255.7836865000118,
                    "velocity": 0.4015748031496063,
                    "duration": 0.3135884999999803
                },
                {
                    "name": "F#4",
                    "midi": 66,
                    "time": 255.7836865000118,
                    "velocity": 0.4015748031496063,
                    "duration": 0.3135884999999803
                },
                {
                    "name": "F#5",
                    "midi": 78,
                    "time": 255.7836865000118,
                    "velocity": 0.4881889763779528,
                    "duration": 0.3135884999999803
                },
                {
                    "name": "E5",
                    "midi": 76,
                    "time": 256.0972750000118,
                    "velocity": 0.4251968503937008,
                    "duration": 0.3135884999999803
                },
                {
                    "name": "C5",
                    "midi": 72,
                    "time": 256.0972750000118,
                    "velocity": 0.4251968503937008,
                    "duration": 0.3135884999999803
                },
                {
                    "name": "G4",
                    "midi": 67,
                    "time": 256.0972750000118,
                    "velocity": 0.4251968503937008,
                    "duration": 0.3135884999999803
                },
                {
                    "name": "G5",
                    "midi": 79,
                    "time": 256.0972750000118,
                    "velocity": 0.5039370078740157,
                    "duration": 0.3135884999999803
                },
                {
                    "name": "C6",
                    "midi": 84,
                    "time": 256.41086350001177,
                    "velocity": 0.44881889763779526,
                    "duration": 0.15679425000001856
                },
                {
                    "name": "G5",
                    "midi": 79,
                    "time": 256.41086350001177,
                    "velocity": 0.44881889763779526,
                    "duration": 0.15679425000001856
                },
                {
                    "name": "E5",
                    "midi": 76,
                    "time": 256.41086350001177,
                    "velocity": 0.44881889763779526,
                    "duration": 0.15679425000001856
                },
                {
                    "name": "E6",
                    "midi": 88,
                    "time": 256.41086350001177,
                    "velocity": 0.5275590551181102,
                    "duration": 0.15679425000001856
                },
                {
                    "name": "G#5",
                    "midi": 80,
                    "time": 256.7244520000118,
                    "velocity": 0.5039370078740157,
                    "duration": 0.3135884999999803
                },
                {
                    "name": "F5",
                    "midi": 77,
                    "time": 256.7244520000118,
                    "velocity": 0.5039370078740157,
                    "duration": 0.3135884999999803
                },
                {
                    "name": "F6",
                    "midi": 89,
                    "time": 256.7244520000118,
                    "velocity": 0.6062992125984252,
                    "duration": 0.3135884999999803
                },
                {
                    "name": "G#5",
                    "midi": 80,
                    "time": 257.0380405000118,
                    "velocity": 0.44881889763779526,
                    "duration": 0.3135884999999803
                },
                {
                    "name": "D#5",
                    "midi": 75,
                    "time": 257.0380405000118,
                    "velocity": 0.44881889763779526,
                    "duration": 0.3135884999999803
                },
                {
                    "name": "D#6",
                    "midi": 87,
                    "time": 257.0380405000118,
                    "velocity": 0.5354330708661418,
                    "duration": 0.3135884999999803
                },
                {
                    "name": "G#5",
                    "midi": 80,
                    "time": 257.35162900001177,
                    "velocity": 0.4409448818897638,
                    "duration": 0.3135884999999803
                },
                {
                    "name": "C#5",
                    "midi": 73,
                    "time": 257.35162900001177,
                    "velocity": 0.4409448818897638,
                    "duration": 0.3135884999999803
                },
                {
                    "name": "C#6",
                    "midi": 85,
                    "time": 257.35162900001177,
                    "velocity": 0.5275590551181102,
                    "duration": 0.3135884999999803
                },
                {
                    "name": "G#5",
                    "midi": 80,
                    "time": 257.66521750001175,
                    "velocity": 0.44881889763779526,
                    "duration": 0.3135884999999803
                },
                {
                    "name": "C5",
                    "midi": 72,
                    "time": 257.66521750001175,
                    "velocity": 0.44881889763779526,
                    "duration": 0.3135884999999803
                },
                {
                    "name": "C6",
                    "midi": 84,
                    "time": 257.66521750001175,
                    "velocity": 0.5354330708661418,
                    "duration": 0.3135884999999803
                },
                {
                    "name": "F5",
                    "midi": 77,
                    "time": 257.97880600001173,
                    "velocity": 0.4409448818897638,
                    "duration": 0.3135884999999803
                },
                {
                    "name": "C#5",
                    "midi": 73,
                    "time": 257.97880600001173,
                    "velocity": 0.4409448818897638,
                    "duration": 0.3135884999999803
                },
                {
                    "name": "A#4",
                    "midi": 70,
                    "time": 257.97880600001173,
                    "velocity": 0.4409448818897638,
                    "duration": 0.3135884999999803
                },
                {
                    "name": "A#5",
                    "midi": 82,
                    "time": 257.97880600001173,
                    "velocity": 0.5669291338582677,
                    "duration": 0.3135884999999803
                },
                {
                    "name": "F5",
                    "midi": 77,
                    "time": 258.2923945000117,
                    "velocity": 0.4409448818897638,
                    "duration": 0.3135884999999803
                },
                {
                    "name": "C#5",
                    "midi": 73,
                    "time": 258.2923945000117,
                    "velocity": 0.4409448818897638,
                    "duration": 0.3135884999999803
                },
                {
                    "name": "G4",
                    "midi": 67,
                    "time": 258.2923945000117,
                    "velocity": 0.4409448818897638,
                    "duration": 0.3135884999999803
                },
                {
                    "name": "G5",
                    "midi": 79,
                    "time": 258.2923945000117,
                    "velocity": 0.5275590551181102,
                    "duration": 0.3135884999999803
                },
                {
                    "name": "F5",
                    "midi": 77,
                    "time": 258.6059830000117,
                    "velocity": 0.4645669291338583,
                    "duration": 0.3135884999999803
                },
                {
                    "name": "C#5",
                    "midi": 73,
                    "time": 258.6059830000117,
                    "velocity": 0.4645669291338583,
                    "duration": 0.3135884999999803
                },
                {
                    "name": "G#4",
                    "midi": 68,
                    "time": 258.6059830000117,
                    "velocity": 0.4645669291338583,
                    "duration": 0.3135884999999803
                },
                {
                    "name": "G#5",
                    "midi": 80,
                    "time": 258.6059830000117,
                    "velocity": 0.5511811023622047,
                    "duration": 0.3135884999999803
                },
                {
                    "name": "C#6",
                    "midi": 85,
                    "time": 258.91957150001167,
                    "velocity": 0.49606299212598426,
                    "duration": 0.15679425000001856
                },
                {
                    "name": "G#5",
                    "midi": 80,
                    "time": 258.91957150001167,
                    "velocity": 0.49606299212598426,
                    "duration": 0.15679425000001856
                },
                {
                    "name": "F5",
                    "midi": 77,
                    "time": 258.91957150001167,
                    "velocity": 0.49606299212598426,
                    "duration": 0.15679425000001856
                },
                {
                    "name": "F6",
                    "midi": 89,
                    "time": 258.91957150001167,
                    "velocity": 0.5748031496062992,
                    "duration": 0.15679425000001856
                },
                {
                    "name": "A5",
                    "midi": 81,
                    "time": 259.2331600000117,
                    "velocity": 0.5354330708661418,
                    "duration": 0.3135884999999803
                },
                {
                    "name": "F#5",
                    "midi": 78,
                    "time": 259.2331600000117,
                    "velocity": 0.5354330708661418,
                    "duration": 0.3135884999999803
                },
                {
                    "name": "F#6",
                    "midi": 90,
                    "time": 259.2331600000117,
                    "velocity": 0.6377952755905512,
                    "duration": 0.3135884999999803
                },
                {
                    "name": "A5",
                    "midi": 81,
                    "time": 259.5467485000117,
                    "velocity": 0.5039370078740157,
                    "duration": 0.3135884999999803
                },
                {
                    "name": "E5",
                    "midi": 76,
                    "time": 259.5467485000117,
                    "velocity": 0.5039370078740157,
                    "duration": 0.3135884999999803
                },
                {
                    "name": "E6",
                    "midi": 88,
                    "time": 259.5467485000117,
                    "velocity": 0.6062992125984252,
                    "duration": 0.3135884999999803
                },
                {
                    "name": "F#5",
                    "midi": 78,
                    "time": 259.86033700001167,
                    "velocity": 0.49606299212598426,
                    "duration": 0.3135884999999803
                },
                {
                    "name": "A5",
                    "midi": 81,
                    "time": 259.86033700001167,
                    "velocity": 0.49606299212598426,
                    "duration": 0.3135884999999803
                },
                {
                    "name": "D5",
                    "midi": 74,
                    "time": 259.86033700001167,
                    "velocity": 0.49606299212598426,
                    "duration": 0.3135884999999803
                },
                {
                    "name": "D6",
                    "midi": 86,
                    "time": 259.86033700001167,
                    "velocity": 0.5905511811023622,
                    "duration": 0.3135884999999803
                },
                {
                    "name": "D5",
                    "midi": 74,
                    "time": 260.17392550001165,
                    "velocity": 0.4881889763779528,
                    "duration": 0.3135884999999803
                },
                {
                    "name": "F#5",
                    "midi": 78,
                    "time": 260.17392550001165,
                    "velocity": 0.4881889763779528,
                    "duration": 0.3135884999999803
                },
                {
                    "name": "A4",
                    "midi": 69,
                    "time": 260.17392550001165,
                    "velocity": 0.4881889763779528,
                    "duration": 0.3135884999999803
                },
                {
                    "name": "A5",
                    "midi": 81,
                    "time": 260.17392550001165,
                    "velocity": 0.5669291338582677,
                    "duration": 0.3135884999999803
                },
                {
                    "name": "A#5",
                    "midi": 82,
                    "time": 260.48751400001163,
                    "velocity": 0.5748031496062992,
                    "duration": 0.3135884999999803
                },
                {
                    "name": "G5",
                    "midi": 79,
                    "time": 260.48751400001163,
                    "velocity": 0.5748031496062992,
                    "duration": 0.3135884999999803
                },
                {
                    "name": "G6",
                    "midi": 91,
                    "time": 260.48751400001163,
                    "velocity": 0.6850393700787402,
                    "duration": 0.3135884999999803
                },
                {
                    "name": "A#5",
                    "midi": 82,
                    "time": 260.8011025000116,
                    "velocity": 0.5354330708661418,
                    "duration": 0.3135884999999803
                },
                {
                    "name": "F5",
                    "midi": 77,
                    "time": 260.8011025000116,
                    "velocity": 0.5354330708661418,
                    "duration": 0.3135884999999803
                },
                {
                    "name": "F6",
                    "midi": 89,
                    "time": 260.8011025000116,
                    "velocity": 0.6377952755905512,
                    "duration": 0.3135884999999803
                },
                {
                    "name": "A#5",
                    "midi": 82,
                    "time": 261.1146910000116,
                    "velocity": 0.5196850393700787,
                    "duration": 0.3135884999999803
                },
                {
                    "name": "E5",
                    "midi": 76,
                    "time": 261.1146910000116,
                    "velocity": 0.5196850393700787,
                    "duration": 0.3135884999999803
                },
                {
                    "name": "E6",
                    "midi": 88,
                    "time": 261.1146910000116,
                    "velocity": 0.6220472440944882,
                    "duration": 0.3135884999999803
                },
                {
                    "name": "E5",
                    "midi": 76,
                    "time": 261.42827950001157,
                    "velocity": 0.5039370078740157,
                    "duration": 0.3135884999999803
                },
                {
                    "name": "A#4",
                    "midi": 70,
                    "time": 261.42827950001157,
                    "velocity": 0.5039370078740157,
                    "duration": 0.3135884999999803
                },
                {
                    "name": "A#5",
                    "midi": 82,
                    "time": 261.42827950001157,
                    "velocity": 0.6062992125984252,
                    "duration": 0.3135884999999803
                },
                {
                    "name": "D6",
                    "midi": 86,
                    "time": 261.74186800001155,
                    "velocity": 0.6141732283464567,
                    "duration": 0.3135884999999803
                },
                {
                    "name": "B5",
                    "midi": 83,
                    "time": 261.74186800001155,
                    "velocity": 0.6141732283464567,
                    "duration": 0.3135884999999803
                },
                {
                    "name": "G#5",
                    "midi": 80,
                    "time": 261.74186800001155,
                    "velocity": 0.6141732283464567,
                    "duration": 0.3135884999999803
                },
                {
                    "name": "G#6",
                    "midi": 92,
                    "time": 261.74186800001155,
                    "velocity": 0.7165354330708661,
                    "duration": 0.3135884999999803
                },
                {
                    "name": "D6",
                    "midi": 86,
                    "time": 262.05545650001153,
                    "velocity": 0.5669291338582677,
                    "duration": 0.3135884999999803
                },
                {
                    "name": "B5",
                    "midi": 83,
                    "time": 262.05545650001153,
                    "velocity": 0.5669291338582677,
                    "duration": 0.3135884999999803
                },
                {
                    "name": "G5",
                    "midi": 79,
                    "time": 262.05545650001153,
                    "velocity": 0.5669291338582677,
                    "duration": 0.3135884999999803
                },
                {
                    "name": "G6",
                    "midi": 91,
                    "time": 262.05545650001153,
                    "velocity": 0.6771653543307087,
                    "duration": 0.3135884999999803
                },
                {
                    "name": "G#5",
                    "midi": 80,
                    "time": 262.3690450000115,
                    "velocity": 0.5433070866141733,
                    "duration": 0.3135884999999803
                },
                {
                    "name": "B5",
                    "midi": 83,
                    "time": 262.3690450000115,
                    "velocity": 0.5433070866141733,
                    "duration": 0.3135884999999803
                },
                {
                    "name": "F5",
                    "midi": 77,
                    "time": 262.3690450000115,
                    "velocity": 0.5433070866141733,
                    "duration": 0.3135884999999803
                },
                {
                    "name": "F6",
                    "midi": 89,
                    "time": 262.3690450000115,
                    "velocity": 0.6456692913385826,
                    "duration": 0.3135884999999803
                },
                {
                    "name": "F5",
                    "midi": 77,
                    "time": 262.6826335000115,
                    "velocity": 0.5275590551181102,
                    "duration": 0.3135884999999803
                },
                {
                    "name": "G#5",
                    "midi": 80,
                    "time": 262.6826335000115,
                    "velocity": 0.5275590551181102,
                    "duration": 0.3135884999999803
                },
                {
                    "name": "D5",
                    "midi": 74,
                    "time": 262.6826335000115,
                    "velocity": 0.5275590551181102,
                    "duration": 0.3135884999999803
                },
                {
                    "name": "D6",
                    "midi": 86,
                    "time": 262.6826335000115,
                    "velocity": 0.6299212598425197,
                    "duration": 0.3135884999999803
                },
                {
                    "name": "F5",
                    "midi": 77,
                    "time": 262.99622200001147,
                    "velocity": 0.5275590551181102,
                    "duration": 0.3135884999999803
                },
                {
                    "name": "D5",
                    "midi": 74,
                    "time": 262.99622200001147,
                    "velocity": 0.5275590551181102,
                    "duration": 0.3135884999999803
                },
                {
                    "name": "B4",
                    "midi": 71,
                    "time": 262.99622200001147,
                    "velocity": 0.5275590551181102,
                    "duration": 0.3135884999999803
                },
                {
                    "name": "B5",
                    "midi": 83,
                    "time": 262.99622200001147,
                    "velocity": 0.6299212598425197,
                    "duration": 0.3135884999999803
                },
                {
                    "name": "D5",
                    "midi": 74,
                    "time": 263.30981050001145,
                    "velocity": 0.49606299212598426,
                    "duration": 0.3135884999999803
                },
                {
                    "name": "B4",
                    "midi": 71,
                    "time": 263.30981050001145,
                    "velocity": 0.49606299212598426,
                    "duration": 0.3135884999999803
                },
                {
                    "name": "G#4",
                    "midi": 68,
                    "time": 263.30981050001145,
                    "velocity": 0.49606299212598426,
                    "duration": 0.3135884999999803
                },
                {
                    "name": "G#5",
                    "midi": 80,
                    "time": 263.30981050001145,
                    "velocity": 0.5905511811023622,
                    "duration": 0.3135884999999803
                },
                {
                    "name": "B4",
                    "midi": 71,
                    "time": 263.62339900001143,
                    "velocity": 0.49606299212598426,
                    "duration": 0.3135884999999803
                },
                {
                    "name": "D5",
                    "midi": 74,
                    "time": 263.62339900001143,
                    "velocity": 0.49606299212598426,
                    "duration": 0.3135884999999803
                },
                {
                    "name": "G4",
                    "midi": 67,
                    "time": 263.62339900001143,
                    "velocity": 0.49606299212598426,
                    "duration": 0.3135884999999803
                },
                {
                    "name": "G5",
                    "midi": 79,
                    "time": 263.62339900001143,
                    "velocity": 0.5905511811023622,
                    "duration": 0.3135884999999803
                },
                {
                    "name": "G#4",
                    "midi": 68,
                    "time": 263.9369875000114,
                    "velocity": 0.5039370078740157,
                    "duration": 0.3135884999999803
                },
                {
                    "name": "B4",
                    "midi": 71,
                    "time": 263.9369875000114,
                    "velocity": 0.5039370078740157,
                    "duration": 0.3135884999999803
                },
                {
                    "name": "F4",
                    "midi": 65,
                    "time": 263.9369875000114,
                    "velocity": 0.5039370078740157,
                    "duration": 0.3135884999999803
                },
                {
                    "name": "F5",
                    "midi": 77,
                    "time": 263.9369875000114,
                    "velocity": 0.6062992125984252,
                    "duration": 0.3135884999999803
                },
                {
                    "name": "G#4",
                    "midi": 68,
                    "time": 264.2505760000114,
                    "velocity": 0.5354330708661418,
                    "duration": 0.3135884999999803
                },
                {
                    "name": "F4",
                    "midi": 65,
                    "time": 264.2505760000114,
                    "velocity": 0.5354330708661418,
                    "duration": 0.3135884999999803
                },
                {
                    "name": "D4",
                    "midi": 62,
                    "time": 264.2505760000114,
                    "velocity": 0.5354330708661418,
                    "duration": 0.3135884999999803
                },
                {
                    "name": "D5",
                    "midi": 74,
                    "time": 264.2505760000114,
                    "velocity": 0.6377952755905512,
                    "duration": 0.3135884999999803
                },
                {
                    "name": "F4",
                    "midi": 65,
                    "time": 264.5641645000114,
                    "velocity": 0.49606299212598426,
                    "duration": 0.3135884999999803
                },
                {
                    "name": "D4",
                    "midi": 62,
                    "time": 264.5641645000114,
                    "velocity": 0.49606299212598426,
                    "duration": 0.3135884999999803
                },
                {
                    "name": "B3",
                    "midi": 59,
                    "time": 264.5641645000114,
                    "velocity": 0.49606299212598426,
                    "duration": 0.3135884999999803
                },
                {
                    "name": "B4",
                    "midi": 71,
                    "time": 264.5641645000114,
                    "velocity": 0.5905511811023622,
                    "duration": 0.3135884999999803
                },
                {
                    "name": "B3",
                    "midi": 59,
                    "time": 264.87775300001135,
                    "velocity": 0.5118110236220472,
                    "duration": 0.3135884999999803
                },
                {
                    "name": "D4",
                    "midi": 62,
                    "time": 264.87775300001135,
                    "velocity": 0.5118110236220472,
                    "duration": 0.3135884999999803
                },
                {
                    "name": "G#3",
                    "midi": 56,
                    "time": 264.87775300001135,
                    "velocity": 0.5118110236220472,
                    "duration": 0.3135884999999803
                },
                {
                    "name": "G#4",
                    "midi": 68,
                    "time": 264.87775300001135,
                    "velocity": 0.6141732283464567,
                    "duration": 0.3135884999999803
                },
                {
                    "name": "B3",
                    "midi": 59,
                    "time": 265.19134150001133,
                    "velocity": 0.5354330708661418,
                    "duration": 0.3135884999999803
                },
                {
                    "name": "D4",
                    "midi": 62,
                    "time": 265.19134150001133,
                    "velocity": 0.5354330708661418,
                    "duration": 0.3135884999999803
                },
                {
                    "name": "G3",
                    "midi": 55,
                    "time": 265.19134150001133,
                    "velocity": 0.5354330708661418,
                    "duration": 0.3135884999999803
                },
                {
                    "name": "G4",
                    "midi": 67,
                    "time": 265.19134150001133,
                    "velocity": 0.6377952755905512,
                    "duration": 0.3135884999999803
                },
                {
                    "name": "D4",
                    "midi": 62,
                    "time": 265.5049300000113,
                    "velocity": 0.5748031496062992,
                    "duration": 0.3135884999999803
                },
                {
                    "name": "B3",
                    "midi": 59,
                    "time": 265.5049300000113,
                    "velocity": 0.5748031496062992,
                    "duration": 0.3135884999999803
                },
                {
                    "name": "F3",
                    "midi": 53,
                    "time": 265.5049300000113,
                    "velocity": 0.5748031496062992,
                    "duration": 0.3135884999999803
                },
                {
                    "name": "F4",
                    "midi": 65,
                    "time": 265.5049300000113,
                    "velocity": 0.6929133858267716,
                    "duration": 0.3135884999999803
                },
                {
                    "name": "D4",
                    "midi": 62,
                    "time": 265.8185185000113,
                    "velocity": 0.5748031496062992,
                    "duration": 0.3135884999999803
                },
                {
                    "name": "B3",
                    "midi": 59,
                    "time": 265.8185185000113,
                    "velocity": 0.5748031496062992,
                    "duration": 0.3135884999999803
                },
                {
                    "name": "G#3",
                    "midi": 56,
                    "time": 265.8185185000113,
                    "velocity": 0.5748031496062992,
                    "duration": 0.3135884999999803
                },
                {
                    "name": "G#4",
                    "midi": 68,
                    "time": 265.8185185000113,
                    "velocity": 0.6929133858267716,
                    "duration": 0.3135884999999803
                },
                {
                    "name": "B3",
                    "midi": 59,
                    "time": 266.1321070000113,
                    "velocity": 0.5984251968503937,
                    "duration": 0.3135884999999803
                },
                {
                    "name": "D4",
                    "midi": 62,
                    "time": 266.1321070000113,
                    "velocity": 0.5984251968503937,
                    "duration": 0.3135884999999803
                },
                {
                    "name": "G3",
                    "midi": 55,
                    "time": 266.1321070000113,
                    "velocity": 0.5984251968503937,
                    "duration": 0.3135884999999803
                },
                {
                    "name": "G4",
                    "midi": 67,
                    "time": 266.1321070000113,
                    "velocity": 0.7165354330708661,
                    "duration": 0.3135884999999803
                },
                {
                    "name": "G#3",
                    "midi": 56,
                    "time": 266.44569550001125,
                    "velocity": 0.6220472440944882,
                    "duration": 0.3135884999999803
                },
                {
                    "name": "D4",
                    "midi": 62,
                    "time": 266.44569550001125,
                    "velocity": 0.6220472440944882,
                    "duration": 0.3135884999999803
                },
                {
                    "name": "F3",
                    "midi": 53,
                    "time": 266.44569550001125,
                    "velocity": 0.6220472440944882,
                    "duration": 0.3135884999999803
                },
                {
                    "name": "F4",
                    "midi": 65,
                    "time": 266.44569550001125,
                    "velocity": 0.7401574803149606,
                    "duration": 0.3135884999999803
                },
                {
                    "name": "C3",
                    "midi": 48,
                    "time": 266.75928400001123,
                    "velocity": 0.5511811023622047,
                    "duration": 0.6271770000000174
                },
                {
                    "name": "C4",
                    "midi": 60,
                    "time": 266.75928400001123,
                    "velocity": 0.6456692913385826,
                    "duration": 0.10452950000001238
                },
                {
                    "name": "G3",
                    "midi": 55,
                    "time": 266.86381350001125,
                    "velocity": 0.5590551181102362,
                    "duration": 0.10452950000001238
                },
                {
                    "name": "E3",
                    "midi": 52,
                    "time": 266.86729781667793,
                    "velocity": 0.47244094488188976,
                    "duration": 0.10452950000001238
                },
                {
                    "name": "C4",
                    "midi": 60,
                    "time": 266.96834300001126,
                    "velocity": 0.5669291338582677,
                    "duration": 0.0783971250000377
                },
                {
                    "name": "C4",
                    "midi": 60,
                    "time": 267.0728725000113,
                    "velocity": 0.5748031496062992,
                    "duration": 0.10452950000001238
                },
                {
                    "name": "G4",
                    "midi": 67,
                    "time": 267.1774020000113,
                    "velocity": 0.5905511811023622,
                    "duration": 0.10452950000001238
                },
                {
                    "name": "E4",
                    "midi": 64,
                    "time": 267.1774020000113,
                    "velocity": 0.49606299212598426,
                    "duration": 0.10452950000001238
                },
                {
                    "name": "C5",
                    "midi": 72,
                    "time": 267.2819315000113,
                    "velocity": 0.6062992125984252,
                    "duration": 0.07839712499998086
                },
                {
                    "name": "C5",
                    "midi": 72,
                    "time": 267.38646100001125,
                    "velocity": 0.6141732283464567,
                    "duration": 0.10452950000001238
                },
                {
                    "name": "G5",
                    "midi": 79,
                    "time": 267.49099050001126,
                    "velocity": 0.6299212598425197,
                    "duration": 0.10452950000001238
                },
                {
                    "name": "E5",
                    "midi": 76,
                    "time": 267.49099050001126,
                    "velocity": 0.5275590551181102,
                    "duration": 0.10452950000001238
                },
                {
                    "name": "C6",
                    "midi": 84,
                    "time": 267.5955200000113,
                    "velocity": 0.6377952755905512,
                    "duration": 0.07839712499998086
                },
                {
                    "name": "C6",
                    "midi": 84,
                    "time": 267.70004950001123,
                    "velocity": 0.6456692913385826,
                    "duration": 0.06968633333332264
                },
                {
                    "name": "E6",
                    "midi": 88,
                    "time": 267.76973583334455,
                    "velocity": 0.6929133858267716,
                    "duration": 0.13937266666664527
                },
                {
                    "name": "G6",
                    "midi": 91,
                    "time": 267.78715741667787,
                    "velocity": 0.7165354330708661,
                    "duration": 0.12195108333332882
                },
                {
                    "name": "C7",
                    "midi": 96,
                    "time": 267.8045790000112,
                    "velocity": 0.7480314960629921,
                    "duration": 0.10452950000001238
                },
                {
                    "name": "C#3",
                    "midi": 49,
                    "time": 268.0136380000112,
                    "velocity": 0.5511811023622047,
                    "duration": 0.6271769999999606
                },
                {
                    "name": "C#4",
                    "midi": 61,
                    "time": 268.0136380000112,
                    "velocity": 0.6456692913385826,
                    "duration": 0.10452950000001238
                },
                {
                    "name": "F3",
                    "midi": 53,
                    "time": 268.1181675000112,
                    "velocity": 0.5590551181102362,
                    "duration": 0.10452950000001238
                },
                {
                    "name": "A#3",
                    "midi": 58,
                    "time": 268.22269700001124,
                    "velocity": 0.5275590551181102,
                    "duration": 0.07839712499998086
                },
                {
                    "name": "C#4",
                    "midi": 61,
                    "time": 268.22269700001124,
                    "velocity": 0.5669291338582677,
                    "duration": 0.07839712499998086
                },
                {
                    "name": "C#4",
                    "midi": 61,
                    "time": 268.3272265000112,
                    "velocity": 0.5748031496062992,
                    "duration": 0.10452950000001238
                },
                {
                    "name": "F4",
                    "midi": 65,
                    "time": 268.4317560000112,
                    "velocity": 0.5905511811023622,
                    "duration": 0.10452950000001238
                },
                {
                    "name": "A#4",
                    "midi": 70,
                    "time": 268.5362855000112,
                    "velocity": 0.5590551181102362,
                    "duration": 0.07839712499998086
                },
                {
                    "name": "C#5",
                    "midi": 73,
                    "time": 268.5362855000112,
                    "velocity": 0.6062992125984252,
                    "duration": 0.07839712499998086
                },
                {
                    "name": "C#5",
                    "midi": 73,
                    "time": 268.6408150000112,
                    "velocity": 0.6141732283464567,
                    "duration": 0.10452950000001238
                },
                {
                    "name": "F5",
                    "midi": 77,
                    "time": 268.7453445000112,
                    "velocity": 0.6299212598425197,
                    "duration": 0.10452950000001238
                },
                {
                    "name": "A#5",
                    "midi": 82,
                    "time": 268.8498740000112,
                    "velocity": 0.6062992125984252,
                    "duration": 0.07839712499998086
                },
                {
                    "name": "C#6",
                    "midi": 85,
                    "time": 268.8498740000112,
                    "velocity": 0.6377952755905512,
                    "duration": 0.07839712499998086
                },
                {
                    "name": "C#6",
                    "midi": 85,
                    "time": 268.95440350001115,
                    "velocity": 0.6456692913385826,
                    "duration": 0.06968633333332264
                },
                {
                    "name": "F6",
                    "midi": 89,
                    "time": 269.0240898333445,
                    "velocity": 0.6929133858267716,
                    "duration": 0.13937266666664527
                },
                {
                    "name": "A#6",
                    "midi": 94,
                    "time": 269.0415114166778,
                    "velocity": 0.7165354330708661,
                    "duration": 0.12195108333332882
                },
                {
                    "name": "C#7",
                    "midi": 97,
                    "time": 269.0589330000111,
                    "velocity": 0.7480314960629921,
                    "duration": 0.10452950000001238
                },
                {
                    "name": "C3",
                    "midi": 48,
                    "time": 269.26799200001113,
                    "velocity": 0.5511811023622047,
                    "duration": 0.6271769999999606
                },
                {
                    "name": "C4",
                    "midi": 60,
                    "time": 269.26799200001113,
                    "velocity": 0.6456692913385826,
                    "duration": 0.10452950000001238
                },
                {
                    "name": "G3",
                    "midi": 55,
                    "time": 269.3638107083445,
                    "velocity": 0.5590551181102362,
                    "duration": 0.10452950000001238
                },
                {
                    "name": "E3",
                    "midi": 52,
                    "time": 269.3664239458445,
                    "velocity": 0.47244094488188976,
                    "duration": 0.10452950000001238
                },
                {
                    "name": "C4",
                    "midi": 60,
                    "time": 269.47705100001116,
                    "velocity": 0.5669291338582677,
                    "duration": 0.07839712499998086
                },
                {
                    "name": "C4",
                    "midi": 60,
                    "time": 269.5815805000111,
                    "velocity": 0.5748031496062992,
                    "duration": 0.10452950000001238
                },
                {
                    "name": "G4",
                    "midi": 67,
                    "time": 269.6861100000111,
                    "velocity": 0.5905511811023622,
                    "duration": 0.10452950000001238
                },
                {
                    "name": "E4",
                    "midi": 64,
                    "time": 269.6861100000111,
                    "velocity": 0.49606299212598426,
                    "duration": 0.10452950000001238
                },
                {
                    "name": "C5",
                    "midi": 72,
                    "time": 269.79063950001114,
                    "velocity": 0.6062992125984252,
                    "duration": 0.07839712499998086
                },
                {
                    "name": "C5",
                    "midi": 72,
                    "time": 269.8951690000111,
                    "velocity": 0.6141732283464567,
                    "duration": 0.10452950000001238
                },
                {
                    "name": "G5",
                    "midi": 79,
                    "time": 269.9996985000111,
                    "velocity": 0.6299212598425197,
                    "duration": 0.10452950000001238
                },
                {
                    "name": "E5",
                    "midi": 76,
                    "time": 269.9996985000111,
                    "velocity": 0.5275590551181102,
                    "duration": 0.10452950000001238
                },
                {
                    "name": "C6",
                    "midi": 84,
                    "time": 270.1042280000111,
                    "velocity": 0.6377952755905512,
                    "duration": 0.07839712499998086
                },
                {
                    "name": "C6",
                    "midi": 84,
                    "time": 270.2087575000111,
                    "velocity": 0.6456692913385826,
                    "duration": 0.06968633333332264
                },
                {
                    "name": "E6",
                    "midi": 88,
                    "time": 270.2784438333444,
                    "velocity": 0.6929133858267716,
                    "duration": 0.13937266666664527
                },
                {
                    "name": "G6",
                    "midi": 91,
                    "time": 270.2958654166777,
                    "velocity": 0.7165354330708661,
                    "duration": 0.12195108333332882
                },
                {
                    "name": "C7",
                    "midi": 96,
                    "time": 270.31328700001103,
                    "velocity": 0.7480314960629921,
                    "duration": 0.10452950000001238
                },
                {
                    "name": "F3",
                    "midi": 53,
                    "time": 270.52234600001105,
                    "velocity": 0.5511811023622047,
                    "duration": 0.6271769999999606
                },
                {
                    "name": "F4",
                    "midi": 65,
                    "time": 270.52234600001105,
                    "velocity": 0.6456692913385826,
                    "duration": 0.10452950000001238
                },
                {
                    "name": "G#3",
                    "midi": 56,
                    "time": 270.62687550001107,
                    "velocity": 0.5039370078740157,
                    "duration": 0.10452950000001238
                },
                {
                    "name": "B3",
                    "midi": 59,
                    "time": 270.62687550001107,
                    "velocity": 0.5590551181102362,
                    "duration": 0.10452950000001238
                },
                {
                    "name": "F4",
                    "midi": 65,
                    "time": 270.7314050000111,
                    "velocity": 0.5669291338582677,
                    "duration": 0.07839712499998086
                },
                {
                    "name": "F4",
                    "midi": 65,
                    "time": 270.83593450001104,
                    "velocity": 0.5748031496062992,
                    "duration": 0.10452950000001238
                },
                {
                    "name": "G#4",
                    "midi": 68,
                    "time": 270.94046400001105,
                    "velocity": 0.5196850393700787,
                    "duration": 0.10452950000001238
                },
                {
                    "name": "B4",
                    "midi": 71,
                    "time": 270.94046400001105,
                    "velocity": 0.5905511811023622,
                    "duration": 0.10452950000001238
                },
                {
                    "name": "F5",
                    "midi": 77,
                    "time": 271.04499350001106,
                    "velocity": 0.6062992125984252,
                    "duration": 0.07839712499998086
                },
                {
                    "name": "F5",
                    "midi": 77,
                    "time": 271.149523000011,
                    "velocity": 0.6141732283464567,
                    "duration": 0.10452950000001238
                },
                {
                    "name": "G#5",
                    "midi": 80,
                    "time": 271.254052500011,
                    "velocity": 0.5590551181102362,
                    "duration": 0.10452950000001238
                },
                {
                    "name": "B5",
                    "midi": 83,
                    "time": 271.254052500011,
                    "velocity": 0.6299212598425197,
                    "duration": 0.10452950000001238
                },
                {
                    "name": "F6",
                    "midi": 89,
                    "time": 271.35858200001104,
                    "velocity": 0.6377952755905512,
                    "duration": 0.07839712499998086
                },
                {
                    "name": "F6",
                    "midi": 89,
                    "time": 271.463111500011,
                    "velocity": 0.6456692913385826,
                    "duration": 0.06968633333332264
                },
                {
                    "name": "G#6",
                    "midi": 92,
                    "time": 271.5327978333443,
                    "velocity": 0.6929133858267716,
                    "duration": 0.13937266666664527
                },
                {
                    "name": "B6",
                    "midi": 95,
                    "time": 271.55021941667763,
                    "velocity": 0.7165354330708661,
                    "duration": 0.12195108333332882
                },
                {
                    "name": "F7",
                    "midi": 101,
                    "time": 271.56764100001095,
                    "velocity": 0.7480314960629921,
                    "duration": 0.10452950000001238
                },
                {
                    "name": "E3",
                    "midi": 52,
                    "time": 271.776700000011,
                    "velocity": 0.5511811023622047,
                    "duration": 0.10452950000001238
                },
                {
                    "name": "E4",
                    "midi": 64,
                    "time": 271.776700000011,
                    "velocity": 0.6456692913385826,
                    "duration": 0.10452950000001238
                },
                {
                    "name": "G3",
                    "midi": 55,
                    "time": 271.87251870834433,
                    "velocity": 0.5590551181102362,
                    "duration": 0.10452950000001238
                },
                {
                    "name": "C4",
                    "midi": 60,
                    "time": 271.985759000011,
                    "velocity": 0.5669291338582677,
                    "duration": 0.10452950000001238
                },
                {
                    "name": "E4",
                    "midi": 64,
                    "time": 272.090288500011,
                    "velocity": 0.5748031496062992,
                    "duration": 0.10452950000001238
                },
                {
                    "name": "E5",
                    "midi": 76,
                    "time": 272.194818000011,
                    "velocity": 0.6062992125984252,
                    "duration": 0.10452950000001238
                },
                {
                    "name": "C5",
                    "midi": 72,
                    "time": 272.194818000011,
                    "velocity": 0.5905511811023622,
                    "duration": 0.10452950000001238
                },
                {
                    "name": "G4",
                    "midi": 67,
                    "time": 272.194818000011,
                    "velocity": 0.49606299212598426,
                    "duration": 0.10452950000001238
                },
                {
                    "name": "C#5",
                    "midi": 73,
                    "time": 272.40387700001105,
                    "velocity": 0.6692913385826772,
                    "duration": 0.10452950000001238
                },
                {
                    "name": "C#4",
                    "midi": 61,
                    "time": 272.40387700001105,
                    "velocity": 0.5669291338582677,
                    "duration": 0.10452950000001238
                },
                {
                    "name": "F4",
                    "midi": 65,
                    "time": 272.50840650001106,
                    "velocity": 0.5826771653543307,
                    "duration": 0.10452950000001238
                },
                {
                    "name": "A#4",
                    "midi": 70,
                    "time": 272.6129360000111,
                    "velocity": 0.5039370078740157,
                    "duration": 0.07839712499998086
                },
                {
                    "name": "C#5",
                    "midi": 73,
                    "time": 272.6129360000111,
                    "velocity": 0.5984251968503937,
                    "duration": 0.07839712499998086
                },
                {
                    "name": "C#5",
                    "midi": 73,
                    "time": 272.71746550001103,
                    "velocity": 0.6141732283464567,
                    "duration": 0.10452950000001238
                },
                {
                    "name": "F5",
                    "midi": 77,
                    "time": 272.82199500001104,
                    "velocity": 0.5275590551181102,
                    "duration": 0.10452950000001238
                },
                {
                    "name": "A#5",
                    "midi": 82,
                    "time": 272.82199500001104,
                    "velocity": 0.5275590551181102,
                    "duration": 0.10452950000001238
                },
                {
                    "name": "C#6",
                    "midi": 85,
                    "time": 272.82199500001104,
                    "velocity": 0.6299212598425197,
                    "duration": 0.10452950000001238
                },
                {
                    "name": "C4",
                    "midi": 60,
                    "time": 273.03105400001107,
                    "velocity": 0.5511811023622047,
                    "duration": 0.10452950000001238
                },
                {
                    "name": "C5",
                    "midi": 72,
                    "time": 273.03105400001107,
                    "velocity": 0.6456692913385826,
                    "duration": 0.10452950000001238
                },
                {
                    "name": "G4",
                    "midi": 67,
                    "time": 273.1355835000111,
                    "velocity": 0.5590551181102362,
                    "duration": 0.10452950000001238
                },
                {
                    "name": "E4",
                    "midi": 64,
                    "time": 273.1355835000111,
                    "velocity": 0.49606299212598426,
                    "duration": 0.10452950000001238
                },
                {
                    "name": "C5",
                    "midi": 72,
                    "time": 273.2401130000111,
                    "velocity": 0.5669291338582677,
                    "duration": 0.07839712499998086
                },
                {
                    "name": "C5",
                    "midi": 72,
                    "time": 273.34464250001105,
                    "velocity": 0.5748031496062992,
                    "duration": 0.10452950000001238
                },
                {
                    "name": "C6",
                    "midi": 84,
                    "time": 273.44917200001106,
                    "velocity": 0.6062992125984252,
                    "duration": 0.10452950000001238
                },
                {
                    "name": "G5",
                    "midi": 79,
                    "time": 273.44917200001106,
                    "velocity": 0.5905511811023622,
                    "duration": 0.10452950000001238
                },
                {
                    "name": "E5",
                    "midi": 76,
                    "time": 273.44917200001106,
                    "velocity": 0.49606299212598426,
                    "duration": 0.10452950000001238
                },
                {
                    "name": "F6",
                    "midi": 89,
                    "time": 273.6582310000111,
                    "velocity": 0.6692913385826772,
                    "duration": 0.10452950000001238
                },
                {
                    "name": "F5",
                    "midi": 77,
                    "time": 273.6582310000111,
                    "velocity": 0.5669291338582677,
                    "duration": 0.10452950000001238
                },
                {
                    "name": "G#5",
                    "midi": 80,
                    "time": 273.7627605000111,
                    "velocity": 0.5433070866141733,
                    "duration": 0.10452950000001238
                },
                {
                    "name": "B5",
                    "midi": 83,
                    "time": 273.7627605000111,
                    "velocity": 0.5826771653543307,
                    "duration": 0.10452950000001238
                },
                {
                    "name": "F6",
                    "midi": 89,
                    "time": 273.8672900000111,
                    "velocity": 0.6141732283464567,
                    "duration": 0.07839712499998086
                },
                {
                    "name": "F6",
                    "midi": 89,
                    "time": 273.97181950001107,
                    "velocity": 0.6377952755905512,
                    "duration": 0.10452950000001238
                },
                {
                    "name": "G#6",
                    "midi": 92,
                    "time": 274.0763490000111,
                    "velocity": 0.5669291338582677,
                    "duration": 0.10452950000001238
                },
                {
                    "name": "B6",
                    "midi": 95,
                    "time": 274.0763490000111,
                    "velocity": 0.5669291338582677,
                    "duration": 0.10452950000001238
                },
                {
                    "name": "F7",
                    "midi": 101,
                    "time": 274.0763490000111,
                    "velocity": 0.6692913385826772,
                    "duration": 0.10452950000001238
                },
                {
                    "name": "E7",
                    "midi": 100,
                    "time": 274.2854080000111,
                    "velocity": 0.5905511811023622,
                    "duration": 0.10452950000001238
                },
                {
                    "name": "C7",
                    "midi": 96,
                    "time": 274.2854080000111,
                    "velocity": 0.49606299212598426,
                    "duration": 0.10452950000001238
                },
                {
                    "name": "G6",
                    "midi": 91,
                    "time": 274.2854080000111,
                    "velocity": 0.49606299212598426,
                    "duration": 0.10452950000001238
                },
                {
                    "name": "A#6",
                    "midi": 94,
                    "time": 274.4944670000111,
                    "velocity": 0.4251968503937008,
                    "duration": 0.10452950000001238
                },
                {
                    "name": "C#7",
                    "midi": 97,
                    "time": 274.4944670000111,
                    "velocity": 0.5118110236220472,
                    "duration": 0.10452950000001238
                },
                {
                    "name": "F6",
                    "midi": 89,
                    "time": 274.4944670000111,
                    "velocity": 0.4251968503937008,
                    "duration": 0.10452950000001238
                },
                {
                    "name": "C7",
                    "midi": 96,
                    "time": 274.70352600001115,
                    "velocity": 0.5748031496062992,
                    "duration": 0.10452950000001238
                },
                {
                    "name": "G6",
                    "midi": 91,
                    "time": 274.70352600001115,
                    "velocity": 0.4881889763779528,
                    "duration": 0.10452950000001238
                },
                {
                    "name": "E6",
                    "midi": 88,
                    "time": 274.70352600001115,
                    "velocity": 0.4881889763779528,
                    "duration": 0.10452950000001238
                },
                {
                    "name": "A#6",
                    "midi": 94,
                    "time": 274.9125850000112,
                    "velocity": 0.5118110236220472,
                    "duration": 0.10452950000001238
                },
                {
                    "name": "F6",
                    "midi": 89,
                    "time": 274.9125850000112,
                    "velocity": 0.4251968503937008,
                    "duration": 0.10452950000001238
                },
                {
                    "name": "C#6",
                    "midi": 85,
                    "time": 274.9125850000112,
                    "velocity": 0.4251968503937008,
                    "duration": 0.10452950000001238
                },
                {
                    "name": "G6",
                    "midi": 91,
                    "time": 275.1216440000112,
                    "velocity": 0.5905511811023622,
                    "duration": 0.10452950000001238
                },
                {
                    "name": "E6",
                    "midi": 88,
                    "time": 275.1216440000112,
                    "velocity": 0.49606299212598426,
                    "duration": 0.10452950000001238
                },
                {
                    "name": "C6",
                    "midi": 84,
                    "time": 275.1216440000112,
                    "velocity": 0.49606299212598426,
                    "duration": 0.10452950000001238
                },
                {
                    "name": "G#5",
                    "midi": 80,
                    "time": 275.3307030000112,
                    "velocity": 0.41732283464566927,
                    "duration": 0.10452950000001238
                },
                {
                    "name": "B5",
                    "midi": 83,
                    "time": 275.3307030000112,
                    "velocity": 0.41732283464566927,
                    "duration": 0.10452950000001238
                },
                {
                    "name": "D6",
                    "midi": 86,
                    "time": 275.3307030000112,
                    "velocity": 0.41732283464566927,
                    "duration": 0.10452950000001238
                },
                {
                    "name": "F6",
                    "midi": 89,
                    "time": 275.3307030000112,
                    "velocity": 0.49606299212598426,
                    "duration": 0.10452950000001238
                },
                {
                    "name": "E6",
                    "midi": 88,
                    "time": 275.53976200001125,
                    "velocity": 0.5433070866141733,
                    "duration": 0.10452950000001238
                },
                {
                    "name": "C6",
                    "midi": 84,
                    "time": 275.53976200001125,
                    "velocity": 0.4566929133858268,
                    "duration": 0.10452950000001238
                },
                {
                    "name": "G5",
                    "midi": 79,
                    "time": 275.53976200001125,
                    "velocity": 0.4566929133858268,
                    "duration": 0.10452950000001238
                },
                {
                    "name": "A#5",
                    "midi": 82,
                    "time": 275.7488210000113,
                    "velocity": 0.3937007874015748,
                    "duration": 0.10452950000001238
                },
                {
                    "name": "C#6",
                    "midi": 85,
                    "time": 275.7488210000113,
                    "velocity": 0.47244094488188976,
                    "duration": 0.10452950000001238
                },
                {
                    "name": "F5",
                    "midi": 77,
                    "time": 275.7488210000113,
                    "velocity": 0.3937007874015748,
                    "duration": 0.10452950000001238
                },
                {
                    "name": "C6",
                    "midi": 84,
                    "time": 275.9578800000113,
                    "velocity": 0.5275590551181102,
                    "duration": 0.10452950000001238
                },
                {
                    "name": "G5",
                    "midi": 79,
                    "time": 275.9578800000113,
                    "velocity": 0.4409448818897638,
                    "duration": 0.10452950000001238
                },
                {
                    "name": "E5",
                    "midi": 76,
                    "time": 275.9578800000113,
                    "velocity": 0.4409448818897638,
                    "duration": 0.10452950000001238
                },
                {
                    "name": "A#5",
                    "midi": 82,
                    "time": 276.1669390000113,
                    "velocity": 0.47244094488188976,
                    "duration": 0.10452950000001238
                },
                {
                    "name": "F5",
                    "midi": 77,
                    "time": 276.1669390000113,
                    "velocity": 0.3937007874015748,
                    "duration": 0.10452950000001238
                },
                {
                    "name": "C#5",
                    "midi": 73,
                    "time": 276.1669390000113,
                    "velocity": 0.3937007874015748,
                    "duration": 0.10452950000001238
                },
                {
                    "name": "G5",
                    "midi": 79,
                    "time": 276.37599800001135,
                    "velocity": 0.5433070866141733,
                    "duration": 0.10452950000001238
                },
                {
                    "name": "E5",
                    "midi": 76,
                    "time": 276.37599800001135,
                    "velocity": 0.4566929133858268,
                    "duration": 0.10452950000001238
                },
                {
                    "name": "C5",
                    "midi": 72,
                    "time": 276.37599800001135,
                    "velocity": 0.4566929133858268,
                    "duration": 0.10452950000001238
                },
                {
                    "name": "G#4",
                    "midi": 68,
                    "time": 276.5850570000114,
                    "velocity": 0.3779527559055118,
                    "duration": 0.10452950000001238
                },
                {
                    "name": "B4",
                    "midi": 71,
                    "time": 276.5850570000114,
                    "velocity": 0.3779527559055118,
                    "duration": 0.10452950000001238
                },
                {
                    "name": "D5",
                    "midi": 74,
                    "time": 276.5850570000114,
                    "velocity": 0.3779527559055118,
                    "duration": 0.10452950000001238
                },
                {
                    "name": "F5",
                    "midi": 77,
                    "time": 276.5850570000114,
                    "velocity": 0.44881889763779526,
                    "duration": 0.10452950000001238
                },
                {
                    "name": "E5",
                    "midi": 76,
                    "time": 276.7941160000114,
                    "velocity": 0.5433070866141733,
                    "duration": 0.10452950000001238
                },
                {
                    "name": "C5",
                    "midi": 72,
                    "time": 276.7941160000114,
                    "velocity": 0.4566929133858268,
                    "duration": 0.10452950000001238
                },
                {
                    "name": "G4",
                    "midi": 67,
                    "time": 276.7941160000114,
                    "velocity": 0.4566929133858268,
                    "duration": 0.10452950000001238
                },
                {
                    "name": "A#4",
                    "midi": 70,
                    "time": 277.0031750000114,
                    "velocity": 0.4094488188976378,
                    "duration": 0.10452950000001238
                },
                {
                    "name": "C#5",
                    "midi": 73,
                    "time": 277.0031750000114,
                    "velocity": 0.48031496062992124,
                    "duration": 0.10452950000001238
                },
                {
                    "name": "F4",
                    "midi": 65,
                    "time": 277.0031750000114,
                    "velocity": 0.4094488188976378,
                    "duration": 0.10452950000001238
                },
                {
                    "name": "C5",
                    "midi": 72,
                    "time": 277.21223400001145,
                    "velocity": 0.5590551181102362,
                    "duration": 0.10452950000001238
                },
                {
                    "name": "G4",
                    "midi": 67,
                    "time": 277.21223400001145,
                    "velocity": 0.4645669291338583,
                    "duration": 0.10452950000001238
                },
                {
                    "name": "E4",
                    "midi": 64,
                    "time": 277.21223400001145,
                    "velocity": 0.4645669291338583,
                    "duration": 0.10452950000001238
                },
                {
                    "name": "A#4",
                    "midi": 70,
                    "time": 277.4212930000115,
                    "velocity": 0.5039370078740157,
                    "duration": 0.10452950000001238
                },
                {
                    "name": "F4",
                    "midi": 65,
                    "time": 277.4212930000115,
                    "velocity": 0.4251968503937008,
                    "duration": 0.10452950000001238
                },
                {
                    "name": "C#4",
                    "midi": 61,
                    "time": 277.4212930000115,
                    "velocity": 0.4251968503937008,
                    "duration": 0.10452950000001238
                },
                {
                    "name": "G4",
                    "midi": 67,
                    "time": 277.6303520000115,
                    "velocity": 0.5984251968503937,
                    "duration": 0.10452950000001238
                },
                {
                    "name": "E4",
                    "midi": 64,
                    "time": 277.6303520000115,
                    "velocity": 0.5039370078740157,
                    "duration": 0.10452950000001238
                },
                {
                    "name": "C4",
                    "midi": 60,
                    "time": 277.6303520000115,
                    "velocity": 0.5039370078740157,
                    "duration": 0.10452950000001238
                },
                {
                    "name": "G#3",
                    "midi": 56,
                    "time": 277.8394110000115,
                    "velocity": 0.4251968503937008,
                    "duration": 0.10452950000001238
                },
                {
                    "name": "B3",
                    "midi": 59,
                    "time": 277.8394110000115,
                    "velocity": 0.4251968503937008,
                    "duration": 0.10452950000001238
                },
                {
                    "name": "D4",
                    "midi": 62,
                    "time": 277.8394110000115,
                    "velocity": 0.4251968503937008,
                    "duration": 0.10452950000001238
                },
                {
                    "name": "F4",
                    "midi": 65,
                    "time": 277.8394110000115,
                    "velocity": 0.5039370078740157,
                    "duration": 0.10452950000001238
                },
                {
                    "name": "E4",
                    "midi": 64,
                    "time": 278.04847000001155,
                    "velocity": 0.6377952755905512,
                    "duration": 0.10452950000001238
                },
                {
                    "name": "C4",
                    "midi": 60,
                    "time": 278.04847000001155,
                    "velocity": 0.5354330708661418,
                    "duration": 0.10452950000001238
                },
                {
                    "name": "G3",
                    "midi": 55,
                    "time": 278.04847000001155,
                    "velocity": 0.5354330708661418,
                    "duration": 0.10452950000001238
                },
                {
                    "name": "A#3",
                    "midi": 58,
                    "time": 278.2575290000116,
                    "velocity": 0.47244094488188976,
                    "duration": 0.10452950000001238
                },
                {
                    "name": "C#4",
                    "midi": 61,
                    "time": 278.2575290000116,
                    "velocity": 0.5590551181102362,
                    "duration": 0.10452950000001238
                },
                {
                    "name": "F3",
                    "midi": 53,
                    "time": 278.2575290000116,
                    "velocity": 0.47244094488188976,
                    "duration": 0.10452950000001238
                },
                {
                    "name": "C4",
                    "midi": 60,
                    "time": 278.4665880000116,
                    "velocity": 0.6456692913385826,
                    "duration": 0.10452950000001238
                },
                {
                    "name": "G3",
                    "midi": 55,
                    "time": 278.4665880000116,
                    "velocity": 0.5511811023622047,
                    "duration": 0.10452950000001238
                },
                {
                    "name": "E3",
                    "midi": 52,
                    "time": 278.4665880000116,
                    "velocity": 0.5511811023622047,
                    "duration": 0.10452950000001238
                },
                {
                    "name": "A#3",
                    "midi": 58,
                    "time": 278.6756470000116,
                    "velocity": 0.5826771653543307,
                    "duration": 0.10452950000001238
                },
                {
                    "name": "F3",
                    "midi": 53,
                    "time": 278.6756470000116,
                    "velocity": 0.49606299212598426,
                    "duration": 0.10452950000001238
                },
                {
                    "name": "C#3",
                    "midi": 49,
                    "time": 278.6756470000116,
                    "velocity": 0.49606299212598426,
                    "duration": 0.10452950000001238
                },
                {
                    "name": "G3",
                    "midi": 55,
                    "time": 278.88470600001165,
                    "velocity": 0.6929133858267716,
                    "duration": 0.10452950000001238
                },
                {
                    "name": "E3",
                    "midi": 52,
                    "time": 278.88470600001165,
                    "velocity": 0.5826771653543307,
                    "duration": 0.10452950000001238
                },
                {
                    "name": "G#2",
                    "midi": 44,
                    "time": 279.0937650000117,
                    "velocity": 0.5826771653543307,
                    "duration": 0.10452950000001238
                },
                {
                    "name": "B2",
                    "midi": 47,
                    "time": 279.0937650000117,
                    "velocity": 0.5826771653543307,
                    "duration": 0.10452950000001238
                },
                {
                    "name": "F3",
                    "midi": 53,
                    "time": 279.0937650000117,
                    "velocity": 0.7086614173228346,
                    "duration": 0.10452950000001238
                },
                {
                    "name": "G#2",
                    "midi": 44,
                    "time": 279.7209420000117,
                    "velocity": 0.5826771653543307,
                    "duration": 0.10452950000001238
                },
                {
                    "name": "B2",
                    "midi": 47,
                    "time": 279.7209420000117,
                    "velocity": 0.5826771653543307,
                    "duration": 0.10452950000001238
                },
                {
                    "name": "D3",
                    "midi": 50,
                    "time": 279.7209420000117,
                    "velocity": 0.7086614173228346,
                    "duration": 0.10452950000001238
                },
                {
                    "name": "G#2",
                    "midi": 44,
                    "time": 280.3481190000117,
                    "velocity": 0.5826771653543307,
                    "duration": 0.10452950000001238
                },
                {
                    "name": "B2",
                    "midi": 47,
                    "time": 280.3481190000117,
                    "velocity": 0.7086614173228346,
                    "duration": 0.10452950000001238
                },
                {
                    "name": "G#2",
                    "midi": 44,
                    "time": 280.55717800001173,
                    "velocity": 0.6377952755905512,
                    "duration": 0.10452950000001238
                },
                {
                    "name": "B2",
                    "midi": 47,
                    "time": 280.55717800001173,
                    "velocity": 0.6377952755905512,
                    "duration": 0.10452950000001238
                },
                {
                    "name": "G#3",
                    "midi": 56,
                    "time": 280.55717800001173,
                    "velocity": 0.7795275590551181,
                    "duration": 0.10452950000001238
                },
                {
                    "name": "G#2",
                    "midi": 44,
                    "time": 280.76623700001176,
                    "velocity": 0.5826771653543307,
                    "duration": 0.10452950000001238
                },
                {
                    "name": "B2",
                    "midi": 47,
                    "time": 280.76623700001176,
                    "velocity": 0.5826771653543307,
                    "duration": 0.10452950000001238
                },
                {
                    "name": "F3",
                    "midi": 53,
                    "time": 280.76623700001176,
                    "velocity": 0.7086614173228346,
                    "duration": 0.10452950000001238
                },
                {
                    "name": "G#2",
                    "midi": 44,
                    "time": 281.3934140000118,
                    "velocity": 0.6220472440944882,
                    "duration": 0.07839712499998086
                },
                {
                    "name": "G2",
                    "midi": 43,
                    "time": 281.49794350001173,
                    "velocity": 0.6377952755905512,
                    "duration": 0.07839712499998086
                },
                {
                    "name": "F#2",
                    "midi": 42,
                    "time": 281.6024730000117,
                    "velocity": 0.6535433070866141,
                    "duration": 0.07839712499998086
                },
                {
                    "name": "F2",
                    "midi": 41,
                    "time": 281.70700250001164,
                    "velocity": 0.6771653543307087,
                    "duration": 0.07839712499998086
                },
                {
                    "name": "E2",
                    "midi": 40,
                    "time": 281.8115320000116,
                    "velocity": 0.5826771653543307,
                    "duration": 1.254353999999978
                },
                {
                    "name": "G2",
                    "midi": 43,
                    "time": 281.8115320000116,
                    "velocity": 0.5826771653543307,
                    "duration": 1.254353999999978
                },
                {
                    "name": "C3",
                    "midi": 48,
                    "time": 281.8115320000116,
                    "velocity": 0.7007874015748031,
                    "duration": 1.254353999999978
                }
            ],
            "controlChanges": {
                "91": [
                    {
                        "number": 91,
                        "time": 0,
                        "value": 1
                    },
                    {
                        "number": 91,
                        "time": 3.763061999999999,
                        "value": 1
                    },
                    {
                        "number": 91,
                        "time": 38.4668560000001,
                        "value": 1
                    },
                    {
                        "number": 91,
                        "time": 42.22991800000008,
                        "value": 1
                    }
                ]
            },
            "id": 1,
            "name": "Piano right",
            "instrumentNumber": 0,
            "instrument": "acoustic grand piano",
            "instrumentFamily": "piano",
            "channelNumber": 0,
            "isPercussion": false
        },
        {
            "startTime": 0,
            "duration": 283.06588600000373,
            "length": 3110,
            "notes": [
                {
                    "name": "C1",
                    "midi": 24,
                    "time": 0,
                    "velocity": 0.4330708661417323,
                    "duration": 0.209059
                },
                {
                    "name": "C2",
                    "midi": 36,
                    "time": 0,
                    "velocity": 0.5118110236220472,
                    "duration": 0.209059
                },
                {
                    "name": "C3",
                    "midi": 48,
                    "time": 0.1045295,
                    "velocity": 0.5196850393700787,
                    "duration": 0.1045295
                },
                {
                    "name": "G1",
                    "midi": 31,
                    "time": 0.209059,
                    "velocity": 0.44881889763779526,
                    "duration": 0.209059
                },
                {
                    "name": "G2",
                    "midi": 43,
                    "time": 0.209059,
                    "velocity": 0.5354330708661418,
                    "duration": 0.209059
                },
                {
                    "name": "G3",
                    "midi": 55,
                    "time": 0.3135885,
                    "velocity": 0.5590551181102362,
                    "duration": 0.1045295
                },
                {
                    "name": "F1",
                    "midi": 29,
                    "time": 0.418118,
                    "velocity": 0.48031496062992124,
                    "duration": 0.20905899999999988
                },
                {
                    "name": "F2",
                    "midi": 41,
                    "time": 0.418118,
                    "velocity": 0.5669291338582677,
                    "duration": 0.20905899999999988
                },
                {
                    "name": "F3",
                    "midi": 53,
                    "time": 0.5226474999999999,
                    "velocity": 0.5748031496062992,
                    "duration": 0.10452949999999994
                },
                {
                    "name": "D#1",
                    "midi": 27,
                    "time": 0.6271769999999999,
                    "velocity": 0.5039370078740157,
                    "duration": 0.20905899999999988
                },
                {
                    "name": "D#2",
                    "midi": 39,
                    "time": 0.6271769999999999,
                    "velocity": 0.5984251968503937,
                    "duration": 0.20905899999999988
                },
                {
                    "name": "D#3",
                    "midi": 51,
                    "time": 0.7317064999999998,
                    "velocity": 0.6141732283464567,
                    "duration": 0.10452949999999994
                },
                {
                    "name": "D1",
                    "midi": 26,
                    "time": 0.8362359999999998,
                    "velocity": 0.5354330708661418,
                    "duration": 0.20905899999999988
                },
                {
                    "name": "D2",
                    "midi": 38,
                    "time": 0.8362359999999998,
                    "velocity": 0.6377952755905512,
                    "duration": 0.20905899999999988
                },
                {
                    "name": "D3",
                    "midi": 50,
                    "time": 0.9407654999999997,
                    "velocity": 0.6456692913385826,
                    "duration": 0.10452949999999994
                },
                {
                    "name": "C1",
                    "midi": 24,
                    "time": 1.0452949999999996,
                    "velocity": 0.6614173228346457,
                    "duration": 0.20905899999999988
                },
                {
                    "name": "C2",
                    "midi": 36,
                    "time": 1.0452949999999996,
                    "velocity": 0.8031496062992126,
                    "duration": 0.20905899999999988
                },
                {
                    "name": "C3",
                    "midi": 48,
                    "time": 1.1498244999999996,
                    "velocity": 0.5984251968503937,
                    "duration": 0.10452949999999994
                },
                {
                    "name": "C4",
                    "midi": 60,
                    "time": 1.2543539999999995,
                    "velocity": 0.7165354330708661,
                    "duration": 0.10452949999999994
                },
                {
                    "name": "G3",
                    "midi": 55,
                    "time": 1.2543539999999995,
                    "velocity": 0.6062992125984252,
                    "duration": 0.10452949999999994
                },
                {
                    "name": "D#3",
                    "midi": 51,
                    "time": 1.2543539999999995,
                    "velocity": 0.6062992125984252,
                    "duration": 0.10452949999999994
                },
                {
                    "name": "C3",
                    "midi": 48,
                    "time": 1.2543539999999995,
                    "velocity": 0.6062992125984252,
                    "duration": 0.10452949999999994
                },
                {
                    "name": "C4",
                    "midi": 60,
                    "time": 1.5679424999999996,
                    "velocity": 0.5669291338582677,
                    "duration": 0.10452949999999994
                },
                {
                    "name": "G3",
                    "midi": 55,
                    "time": 1.5679424999999996,
                    "velocity": 0.47244094488188976,
                    "duration": 0.10452949999999994
                },
                {
                    "name": "D#3",
                    "midi": 51,
                    "time": 1.5679424999999996,
                    "velocity": 0.47244094488188976,
                    "duration": 0.10452949999999994
                },
                {
                    "name": "C3",
                    "midi": 48,
                    "time": 1.5679424999999996,
                    "velocity": 0.47244094488188976,
                    "duration": 0.10452949999999994
                },
                {
                    "name": "C4",
                    "midi": 60,
                    "time": 1.6724719999999995,
                    "velocity": 0.6299212598425197,
                    "duration": 0.10452949999999994
                },
                {
                    "name": "G3",
                    "midi": 55,
                    "time": 1.6724719999999995,
                    "velocity": 0.5275590551181102,
                    "duration": 0.10452949999999994
                },
                {
                    "name": "D#3",
                    "midi": 51,
                    "time": 1.6724719999999995,
                    "velocity": 0.5275590551181102,
                    "duration": 0.10452949999999994
                },
                {
                    "name": "C3",
                    "midi": 48,
                    "time": 1.6724719999999995,
                    "velocity": 0.5275590551181102,
                    "duration": 0.10452949999999994
                },
                {
                    "name": "C3",
                    "midi": 48,
                    "time": 2.1951194999999997,
                    "velocity": 0.4251968503937008,
                    "duration": 0.10452949999999994
                },
                {
                    "name": "D#3",
                    "midi": 51,
                    "time": 2.1951194999999997,
                    "velocity": 0.4251968503937008,
                    "duration": 0.10452949999999994
                },
                {
                    "name": "C4",
                    "midi": 60,
                    "time": 2.1951194999999997,
                    "velocity": 0.5039370078740157,
                    "duration": 0.10452949999999994
                },
                {
                    "name": "G3",
                    "midi": 55,
                    "time": 2.1951194999999997,
                    "velocity": 0.4251968503937008,
                    "duration": 0.10452949999999994
                },
                {
                    "name": "C4",
                    "midi": 60,
                    "time": 2.2996489999999996,
                    "velocity": 0.5748031496062992,
                    "duration": 0.10452949999999994
                },
                {
                    "name": "G3",
                    "midi": 55,
                    "time": 2.2996489999999996,
                    "velocity": 0.49606299212598426,
                    "duration": 0.10452949999999994
                },
                {
                    "name": "D#3",
                    "midi": 51,
                    "time": 2.2996489999999996,
                    "velocity": 0.49606299212598426,
                    "duration": 0.10452949999999994
                },
                {
                    "name": "C3",
                    "midi": 48,
                    "time": 2.2996489999999996,
                    "velocity": 0.49606299212598426,
                    "duration": 0.10452949999999994
                },
                {
                    "name": "C3",
                    "midi": 48,
                    "time": 2.8222964999999993,
                    "velocity": 0.41732283464566927,
                    "duration": 0.10452949999999994
                },
                {
                    "name": "D#3",
                    "midi": 51,
                    "time": 2.8222964999999993,
                    "velocity": 0.41732283464566927,
                    "duration": 0.10452949999999994
                },
                {
                    "name": "G3",
                    "midi": 55,
                    "time": 2.8222964999999993,
                    "velocity": 0.41732283464566927,
                    "duration": 0.10452949999999994
                },
                {
                    "name": "C4",
                    "midi": 60,
                    "time": 2.8222964999999993,
                    "velocity": 0.49606299212598426,
                    "duration": 0.10452949999999994
                },
                {
                    "name": "C4",
                    "midi": 60,
                    "time": 2.9268259999999993,
                    "velocity": 0.5669291338582677,
                    "duration": 0.10452949999999994
                },
                {
                    "name": "G3",
                    "midi": 55,
                    "time": 2.9268259999999993,
                    "velocity": 0.47244094488188976,
                    "duration": 0.10452949999999994
                },
                {
                    "name": "D#3",
                    "midi": 51,
                    "time": 2.9268259999999993,
                    "velocity": 0.47244094488188976,
                    "duration": 0.10452949999999994
                },
                {
                    "name": "C3",
                    "midi": 48,
                    "time": 2.9268259999999993,
                    "velocity": 0.47244094488188976,
                    "duration": 0.10452949999999994
                },
                {
                    "name": "C3",
                    "midi": 48,
                    "time": 3.135884999999999,
                    "velocity": 0.41732283464566927,
                    "duration": 0.10452949999999994
                },
                {
                    "name": "D#3",
                    "midi": 51,
                    "time": 3.135884999999999,
                    "velocity": 0.41732283464566927,
                    "duration": 0.10452949999999994
                },
                {
                    "name": "G3",
                    "midi": 55,
                    "time": 3.135884999999999,
                    "velocity": 0.41732283464566927,
                    "duration": 0.10452949999999994
                },
                {
                    "name": "B3",
                    "midi": 59,
                    "time": 3.135884999999999,
                    "velocity": 0.49606299212598426,
                    "duration": 0.10452949999999994
                },
                {
                    "name": "C4",
                    "midi": 60,
                    "time": 3.344943999999999,
                    "velocity": 0.5669291338582677,
                    "duration": 0.10452949999999994
                },
                {
                    "name": "G3",
                    "midi": 55,
                    "time": 3.344943999999999,
                    "velocity": 0.47244094488188976,
                    "duration": 0.10452949999999994
                },
                {
                    "name": "D#3",
                    "midi": 51,
                    "time": 3.344943999999999,
                    "velocity": 0.47244094488188976,
                    "duration": 0.10452949999999994
                },
                {
                    "name": "C3",
                    "midi": 48,
                    "time": 3.344943999999999,
                    "velocity": 0.47244094488188976,
                    "duration": 0.10452949999999994
                },
                {
                    "name": "B1",
                    "midi": 35,
                    "time": 3.763061999999999,
                    "velocity": 0.4330708661417323,
                    "duration": 0.20905899999999988
                },
                {
                    "name": "D2",
                    "midi": 38,
                    "time": 3.763061999999999,
                    "velocity": 0.5118110236220472,
                    "duration": 0.20905899999999988
                },
                {
                    "name": "B2",
                    "midi": 47,
                    "time": 3.8675914999999987,
                    "velocity": 0.49606299212598426,
                    "duration": 0.10452949999999994
                },
                {
                    "name": "D3",
                    "midi": 50,
                    "time": 3.8675914999999987,
                    "velocity": 0.5196850393700787,
                    "duration": 0.10452949999999994
                },
                {
                    "name": "G#2",
                    "midi": 44,
                    "time": 3.9721209999999987,
                    "velocity": 0.5354330708661418,
                    "duration": 0.20905899999999988
                },
                {
                    "name": "G#3",
                    "midi": 56,
                    "time": 4.076650499999999,
                    "velocity": 0.5590551181102362,
                    "duration": 0.10452949999999994
                },
                {
                    "name": "G2",
                    "midi": 43,
                    "time": 4.181179999999999,
                    "velocity": 0.5669291338582677,
                    "duration": 0.20905899999999988
                },
                {
                    "name": "G3",
                    "midi": 55,
                    "time": 4.2857094999999985,
                    "velocity": 0.5748031496062992,
                    "duration": 0.10452949999999994
                },
                {
                    "name": "F2",
                    "midi": 41,
                    "time": 4.3902389999999984,
                    "velocity": 0.5984251968503937,
                    "duration": 0.20905899999999988
                },
                {
                    "name": "F3",
                    "midi": 53,
                    "time": 4.494768499999998,
                    "velocity": 0.6141732283464567,
                    "duration": 0.10452949999999994
                },
                {
                    "name": "D#2",
                    "midi": 39,
                    "time": 4.599297999999998,
                    "velocity": 0.6377952755905512,
                    "duration": 0.20905899999999988
                },
                {
                    "name": "D#3",
                    "midi": 51,
                    "time": 4.703827499999998,
                    "velocity": 0.6456692913385826,
                    "duration": 0.10452949999999994
                },
                {
                    "name": "D2",
                    "midi": 38,
                    "time": 4.808356999999998,
                    "velocity": 0.8031496062992126,
                    "duration": 0.18292662500000034
                },
                {
                    "name": "D3",
                    "midi": 50,
                    "time": 4.912886499999998,
                    "velocity": 0.5984251968503937,
                    "duration": 0.0783971250000004
                },
                {
                    "name": "B2",
                    "midi": 47,
                    "time": 4.991283624999999,
                    "velocity": 0.6062992125984252,
                    "duration": 0.13066187500000126
                },
                {
                    "name": "F3",
                    "midi": 53,
                    "time": 4.999994416666666,
                    "velocity": 0.6062992125984252,
                    "duration": 0.12195108333333415
                },
                {
                    "name": "G#3",
                    "midi": 56,
                    "time": 5.008705208333333,
                    "velocity": 0.6062992125984252,
                    "duration": 0.11324029166666705
                },
                {
                    "name": "D4",
                    "midi": 62,
                    "time": 5.017416,
                    "velocity": 0.7165354330708661,
                    "duration": 0.10452949999999994
                },
                {
                    "name": "G#3",
                    "midi": 56,
                    "time": 5.3310045,
                    "velocity": 0.5669291338582677,
                    "duration": 0.10452949999999994
                },
                {
                    "name": "F3",
                    "midi": 53,
                    "time": 5.3310045,
                    "velocity": 0.47244094488188976,
                    "duration": 0.10452949999999994
                },
                {
                    "name": "B2",
                    "midi": 47,
                    "time": 5.3310045,
                    "velocity": 0.47244094488188976,
                    "duration": 0.10452949999999994
                },
                {
                    "name": "G#3",
                    "midi": 56,
                    "time": 5.435534,
                    "velocity": 0.6299212598425197,
                    "duration": 0.10452949999999994
                },
                {
                    "name": "F3",
                    "midi": 53,
                    "time": 5.435534,
                    "velocity": 0.5275590551181102,
                    "duration": 0.10452949999999994
                },
                {
                    "name": "B2",
                    "midi": 47,
                    "time": 5.435534,
                    "velocity": 0.5275590551181102,
                    "duration": 0.10452949999999994
                },
                {
                    "name": "F3",
                    "midi": 53,
                    "time": 5.958181499999999,
                    "velocity": 0.4251968503937008,
                    "duration": 0.10452949999999994
                },
                {
                    "name": "D4",
                    "midi": 62,
                    "time": 5.958181499999999,
                    "velocity": 0.5039370078740157,
                    "duration": 0.10452949999999994
                },
                {
                    "name": "G#3",
                    "midi": 56,
                    "time": 5.958181499999999,
                    "velocity": 0.4251968503937008,
                    "duration": 0.10452949999999994
                },
                {
                    "name": "D4",
                    "midi": 62,
                    "time": 6.062710999999999,
                    "velocity": 0.5748031496062992,
                    "duration": 0.10452949999999994
                },
                {
                    "name": "G#3",
                    "midi": 56,
                    "time": 6.062710999999999,
                    "velocity": 0.49606299212598426,
                    "duration": 0.10452949999999994
                },
                {
                    "name": "F3",
                    "midi": 53,
                    "time": 6.062710999999999,
                    "velocity": 0.49606299212598426,
                    "duration": 0.10452949999999994
                },
                {
                    "name": "B2",
                    "midi": 47,
                    "time": 6.585358499999999,
                    "velocity": 0.41732283464566927,
                    "duration": 0.10452949999999994
                },
                {
                    "name": "F3",
                    "midi": 53,
                    "time": 6.585358499999999,
                    "velocity": 0.41732283464566927,
                    "duration": 0.10452949999999994
                },
                {
                    "name": "G#3",
                    "midi": 56,
                    "time": 6.585358499999999,
                    "velocity": 0.49606299212598426,
                    "duration": 0.10452949999999994
                },
                {
                    "name": "G#3",
                    "midi": 56,
                    "time": 6.689887999999999,
                    "velocity": 0.5669291338582677,
                    "duration": 0.10452949999999994
                },
                {
                    "name": "F3",
                    "midi": 53,
                    "time": 6.689887999999999,
                    "velocity": 0.47244094488188976,
                    "duration": 0.10452949999999994
                },
                {
                    "name": "B2",
                    "midi": 47,
                    "time": 6.689887999999999,
                    "velocity": 0.47244094488188976,
                    "duration": 0.10452949999999994
                },
                {
                    "name": "B2",
                    "midi": 47,
                    "time": 6.898946999999999,
                    "velocity": 0.41732283464566927,
                    "duration": 0.10452949999999994
                },
                {
                    "name": "E3",
                    "midi": 52,
                    "time": 6.898946999999999,
                    "velocity": 0.41732283464566927,
                    "duration": 0.10452949999999994
                },
                {
                    "name": "G#3",
                    "midi": 56,
                    "time": 6.898946999999999,
                    "velocity": 0.49606299212598426,
                    "duration": 0.10452949999999994
                },
                {
                    "name": "G#3",
                    "midi": 56,
                    "time": 7.108005999999999,
                    "velocity": 0.5669291338582677,
                    "duration": 0.10452949999999994
                },
                {
                    "name": "F3",
                    "midi": 53,
                    "time": 7.108005999999999,
                    "velocity": 0.47244094488188976,
                    "duration": 0.10452949999999994
                },
                {
                    "name": "B2",
                    "midi": 47,
                    "time": 7.108005999999999,
                    "velocity": 0.47244094488188976,
                    "duration": 0.10452949999999994
                },
                {
                    "name": "C2",
                    "midi": 36,
                    "time": 7.735182999999998,
                    "velocity": 0.3543307086614173,
                    "duration": 0.10452949999999994
                },
                {
                    "name": "G2",
                    "midi": 43,
                    "time": 7.735182999999998,
                    "velocity": 0.3543307086614173,
                    "duration": 0.10452949999999994
                },
                {
                    "name": "C3",
                    "midi": 48,
                    "time": 7.735182999999998,
                    "velocity": 0.41732283464566927,
                    "duration": 0.10452949999999994
                },
                {
                    "name": "C3",
                    "midi": 48,
                    "time": 7.944241999999998,
                    "velocity": 0.2677165354330709,
                    "duration": 0.05226474999999997
                },
                {
                    "name": "D3",
                    "midi": 50,
                    "time": 7.996506749999998,
                    "velocity": 0.28346456692913385,
                    "duration": 0.05226475000000086
                },
                {
                    "name": "D#3",
                    "midi": 51,
                    "time": 8.048771499999999,
                    "velocity": 0.29133858267716534,
                    "duration": 0.05226475000000086
                },
                {
                    "name": "F3",
                    "midi": 53,
                    "time": 8.10103625,
                    "velocity": 0.30708661417322836,
                    "duration": 0.05226475000000086
                },
                {
                    "name": "G3",
                    "midi": 55,
                    "time": 8.153301,
                    "velocity": 0.3228346456692913,
                    "duration": 0.10452949999999994
                },
                {
                    "name": "G#1",
                    "midi": 32,
                    "time": 8.36236,
                    "velocity": 0.31496062992125984,
                    "duration": 0.0783971250000004
                },
                {
                    "name": "F2",
                    "midi": 41,
                    "time": 8.36236,
                    "velocity": 0.31496062992125984,
                    "duration": 0.0783971250000004
                },
                {
                    "name": "G#2",
                    "midi": 44,
                    "time": 8.36236,
                    "velocity": 0.3700787401574803,
                    "duration": 0.0783971250000004
                },
                {
                    "name": "G#1",
                    "midi": 32,
                    "time": 8.571419,
                    "velocity": 0.33070866141732286,
                    "duration": 0.0783971250000004
                },
                {
                    "name": "F2",
                    "midi": 41,
                    "time": 8.571419,
                    "velocity": 0.33070866141732286,
                    "duration": 0.0783971250000004
                },
                {
                    "name": "G#2",
                    "midi": 44,
                    "time": 8.571419,
                    "velocity": 0.3937007874015748,
                    "duration": 0.0783971250000004
                },
                {
                    "name": "A#1",
                    "midi": 34,
                    "time": 8.780478,
                    "velocity": 0.3543307086614173,
                    "duration": 0.10452949999999994
                },
                {
                    "name": "F2",
                    "midi": 41,
                    "time": 8.780478,
                    "velocity": 0.3543307086614173,
                    "duration": 0.10452949999999994
                },
                {
                    "name": "A#2",
                    "midi": 46,
                    "time": 8.780478,
                    "velocity": 0.4251968503937008,
                    "duration": 0.10452949999999994
                },
                {
                    "name": "F3",
                    "midi": 53,
                    "time": 8.989537,
                    "velocity": 0.28346456692913385,
                    "duration": 0.05226475000000086
                },
                {
                    "name": "D#3",
                    "midi": 51,
                    "time": 9.041801750000001,
                    "velocity": 0.28346456692913385,
                    "duration": 0.05226475000000086
                },
                {
                    "name": "D3",
                    "midi": 50,
                    "time": 9.094066500000002,
                    "velocity": 0.2992125984251969,
                    "duration": 0.05226475000000086
                },
                {
                    "name": "C3",
                    "midi": 48,
                    "time": 9.146331250000003,
                    "velocity": 0.3228346456692913,
                    "duration": 0.05226475000000086
                },
                {
                    "name": "A#2",
                    "midi": 46,
                    "time": 9.198596000000004,
                    "velocity": 0.33858267716535434,
                    "duration": 0.10452949999999994
                },
                {
                    "name": "G1",
                    "midi": 31,
                    "time": 9.407655000000004,
                    "velocity": 0.3543307086614173,
                    "duration": 0.0783971250000004
                },
                {
                    "name": "D#2",
                    "midi": 39,
                    "time": 9.407655000000004,
                    "velocity": 0.3543307086614173,
                    "duration": 0.0783971250000004
                },
                {
                    "name": "G2",
                    "midi": 43,
                    "time": 9.407655000000004,
                    "velocity": 0.4251968503937008,
                    "duration": 0.0783971250000004
                },
                {
                    "name": "G1",
                    "midi": 31,
                    "time": 9.616714000000004,
                    "velocity": 0.3700787401574803,
                    "duration": 0.0783971250000004
                },
                {
                    "name": "D#2",
                    "midi": 39,
                    "time": 9.616714000000004,
                    "velocity": 0.3700787401574803,
                    "duration": 0.0783971250000004
                },
                {
                    "name": "G2",
                    "midi": 43,
                    "time": 9.616714000000004,
                    "velocity": 0.4409448818897638,
                    "duration": 0.0783971250000004
                },
                {
                    "name": "G#1",
                    "midi": 32,
                    "time": 9.825773000000003,
                    "velocity": 0.4094488188976378,
                    "duration": 0.10452949999999994
                },
                {
                    "name": "D#2",
                    "midi": 39,
                    "time": 9.825773000000003,
                    "velocity": 0.4094488188976378,
                    "duration": 0.10452949999999994
                },
                {
                    "name": "G#2",
                    "midi": 44,
                    "time": 9.825773000000003,
                    "velocity": 0.49606299212598426,
                    "duration": 0.10452949999999994
                },
                {
                    "name": "G#2",
                    "midi": 44,
                    "time": 10.034832000000003,
                    "velocity": 0.31496062992125984,
                    "duration": 0.05226475000000086
                },
                {
                    "name": "A#2",
                    "midi": 46,
                    "time": 10.087096750000004,
                    "velocity": 0.3228346456692913,
                    "duration": 0.05226475000000086
                },
                {
                    "name": "C3",
                    "midi": 48,
                    "time": 10.139361500000005,
                    "velocity": 0.33858267716535434,
                    "duration": 0.05226475000000086
                },
                {
                    "name": "D3",
                    "midi": 50,
                    "time": 10.191626250000006,
                    "velocity": 0.36220472440944884,
                    "duration": 0.05226475000000086
                },
                {
                    "name": "D#3",
                    "midi": 51,
                    "time": 10.243891000000007,
                    "velocity": 0.3779527559055118,
                    "duration": 0.10452949999999994
                },
                {
                    "name": "F1",
                    "midi": 29,
                    "time": 10.452950000000007,
                    "velocity": 0.4015748031496063,
                    "duration": 0.0783971250000004
                },
                {
                    "name": "D2",
                    "midi": 38,
                    "time": 10.452950000000007,
                    "velocity": 0.4015748031496063,
                    "duration": 0.0783971250000004
                },
                {
                    "name": "F2",
                    "midi": 41,
                    "time": 10.452950000000007,
                    "velocity": 0.48031496062992124,
                    "duration": 0.0783971250000004
                },
                {
                    "name": "F1",
                    "midi": 29,
                    "time": 10.662009000000007,
                    "velocity": 0.4251968503937008,
                    "duration": 0.0783971250000004
                },
                {
                    "name": "D2",
                    "midi": 38,
                    "time": 10.662009000000007,
                    "velocity": 0.4251968503937008,
                    "duration": 0.0783971250000004
                },
                {
                    "name": "F2",
                    "midi": 41,
                    "time": 10.662009000000007,
                    "velocity": 0.49606299212598426,
                    "duration": 0.0783971250000004
                },
                {
                    "name": "G1",
                    "midi": 31,
                    "time": 10.871068000000006,
                    "velocity": 0.4566929133858268,
                    "duration": 0.10452949999999994
                },
                {
                    "name": "D2",
                    "midi": 38,
                    "time": 10.871068000000006,
                    "velocity": 0.4566929133858268,
                    "duration": 0.10452949999999994
                },
                {
                    "name": "G2",
                    "midi": 43,
                    "time": 10.871068000000006,
                    "velocity": 0.5511811023622047,
                    "duration": 0.10452949999999994
                },
                {
                    "name": "D3",
                    "midi": 50,
                    "time": 11.080127000000006,
                    "velocity": 0.33858267716535434,
                    "duration": 0.05226475000000086
                },
                {
                    "name": "C3",
                    "midi": 48,
                    "time": 11.132391750000007,
                    "velocity": 0.3543307086614173,
                    "duration": 0.05226475000000086
                },
                {
                    "name": "B2",
                    "midi": 47,
                    "time": 11.184656500000008,
                    "velocity": 0.3700787401574803,
                    "duration": 0.05226475000000086
                },
                {
                    "name": "G#2",
                    "midi": 44,
                    "time": 11.236921250000009,
                    "velocity": 0.3937007874015748,
                    "duration": 0.05226475000000086
                },
                {
                    "name": "G2",
                    "midi": 43,
                    "time": 11.28918600000001,
                    "velocity": 0.41732283464566927,
                    "duration": 0.10452949999999994
                },
                {
                    "name": "E2",
                    "midi": 40,
                    "time": 11.49824500000001,
                    "velocity": 0.4330708661417323,
                    "duration": 0.0783971250000004
                },
                {
                    "name": "C#3",
                    "midi": 49,
                    "time": 11.49824500000001,
                    "velocity": 0.4330708661417323,
                    "duration": 0.0783971250000004
                },
                {
                    "name": "E3",
                    "midi": 52,
                    "time": 11.49824500000001,
                    "velocity": 0.5118110236220472,
                    "duration": 0.0783971250000004
                },
                {
                    "name": "E2",
                    "midi": 40,
                    "time": 11.70730400000001,
                    "velocity": 0.44881889763779526,
                    "duration": 0.0783971250000004
                },
                {
                    "name": "C3",
                    "midi": 48,
                    "time": 11.70730400000001,
                    "velocity": 0.44881889763779526,
                    "duration": 0.0783971250000004
                },
                {
                    "name": "E3",
                    "midi": 52,
                    "time": 11.70730400000001,
                    "velocity": 0.5433070866141733,
                    "duration": 0.0783971250000004
                },
                {
                    "name": "F2",
                    "midi": 41,
                    "time": 11.91636300000001,
                    "velocity": 0.49606299212598426,
                    "duration": 0.10452949999999994
                },
                {
                    "name": "C3",
                    "midi": 48,
                    "time": 11.91636300000001,
                    "velocity": 0.49606299212598426,
                    "duration": 0.10452949999999994
                },
                {
                    "name": "F3",
                    "midi": 53,
                    "time": 11.91636300000001,
                    "velocity": 0.5905511811023622,
                    "duration": 0.10452949999999994
                },
                {
                    "name": "B2",
                    "midi": 47,
                    "time": 12.12542200000001,
                    "velocity": 0.3464566929133858,
                    "duration": 0.05226475000000086
                },
                {
                    "name": "C3",
                    "midi": 48,
                    "time": 12.17768675000001,
                    "velocity": 0.36220472440944884,
                    "duration": 0.05226475000000086
                },
                {
                    "name": "D3",
                    "midi": 50,
                    "time": 12.229951500000011,
                    "velocity": 0.3779527559055118,
                    "duration": 0.05226475000000086
                },
                {
                    "name": "E3",
                    "midi": 52,
                    "time": 12.282216250000012,
                    "velocity": 0.4094488188976378,
                    "duration": 0.05226475000000086
                },
                {
                    "name": "F3",
                    "midi": 53,
                    "time": 12.334481000000013,
                    "velocity": 0.4251968503937008,
                    "duration": 0.10452949999999994
                },
                {
                    "name": "C#2",
                    "midi": 37,
                    "time": 12.543540000000013,
                    "velocity": 0.5039370078740157,
                    "duration": 0.10452949999999994
                },
                {
                    "name": "G#2",
                    "midi": 44,
                    "time": 12.543540000000013,
                    "velocity": 0.5039370078740157,
                    "duration": 0.10452949999999994
                },
                {
                    "name": "C#3",
                    "midi": 49,
                    "time": 12.543540000000013,
                    "velocity": 0.6062992125984252,
                    "duration": 0.10452949999999994
                },
                {
                    "name": "C#3",
                    "midi": 49,
                    "time": 12.752599000000012,
                    "velocity": 0.3700787401574803,
                    "duration": 0.05226475000000086
                },
                {
                    "name": "D#3",
                    "midi": 51,
                    "time": 12.804863750000013,
                    "velocity": 0.3858267716535433,
                    "duration": 0.05226475000000086
                },
                {
                    "name": "F3",
                    "midi": 53,
                    "time": 12.857128500000014,
                    "velocity": 0.4015748031496063,
                    "duration": 0.05226475000000086
                },
                {
                    "name": "F#3",
                    "midi": 54,
                    "time": 12.909393250000015,
                    "velocity": 0.41732283464566927,
                    "duration": 0.05226475000000086
                },
                {
                    "name": "G#3",
                    "midi": 56,
                    "time": 12.961658000000016,
                    "velocity": 0.47244094488188976,
                    "duration": 0.10452949999999994
                },
                {
                    "name": "C#4",
                    "midi": 61,
                    "time": 13.170717000000016,
                    "velocity": 0.3858267716535433,
                    "duration": 0.05226475000000086
                },
                {
                    "name": "D#4",
                    "midi": 63,
                    "time": 13.222981750000017,
                    "velocity": 0.4015748031496063,
                    "duration": 0.05226475000000086
                },
                {
                    "name": "F4",
                    "midi": 65,
                    "time": 13.275246500000017,
                    "velocity": 0.41732283464566927,
                    "duration": 0.05226475000000086
                },
                {
                    "name": "F#4",
                    "midi": 66,
                    "time": 13.327511250000018,
                    "velocity": 0.4251968503937008,
                    "duration": 0.05226475000000086
                },
                {
                    "name": "G#4",
                    "midi": 68,
                    "time": 13.37977600000002,
                    "velocity": 0.49606299212598426,
                    "duration": 0.10452949999999994
                },
                {
                    "name": "C#5",
                    "midi": 73,
                    "time": 13.588835000000019,
                    "velocity": 0.4015748031496063,
                    "duration": 0.05226475000000086
                },
                {
                    "name": "D#5",
                    "midi": 75,
                    "time": 13.64109975000002,
                    "velocity": 0.41732283464566927,
                    "duration": 0.05226475000000086
                },
                {
                    "name": "F5",
                    "midi": 77,
                    "time": 13.69336450000002,
                    "velocity": 0.4251968503937008,
                    "duration": 0.05226475000000086
                },
                {
                    "name": "F#5",
                    "midi": 78,
                    "time": 13.745629250000022,
                    "velocity": 0.44881889763779526,
                    "duration": 0.05226475000000086
                },
                {
                    "name": "G#5",
                    "midi": 80,
                    "time": 13.797894000000023,
                    "velocity": 0.5039370078740157,
                    "duration": 0.10452949999999994
                },
                {
                    "name": "F2",
                    "midi": 41,
                    "time": 14.111482500000022,
                    "velocity": 0.5354330708661418,
                    "duration": 0.10452949999999994
                },
                {
                    "name": "C#3",
                    "midi": 49,
                    "time": 14.111482500000022,
                    "velocity": 0.5354330708661418,
                    "duration": 0.10452949999999994
                },
                {
                    "name": "F3",
                    "midi": 53,
                    "time": 14.111482500000022,
                    "velocity": 0.6377952755905512,
                    "duration": 0.10452949999999994
                },
                {
                    "name": "F2",
                    "midi": 41,
                    "time": 14.216012000000022,
                    "velocity": 0.48031496062992124,
                    "duration": 0.10452949999999994
                },
                {
                    "name": "C#3",
                    "midi": 49,
                    "time": 14.216012000000022,
                    "velocity": 0.48031496062992124,
                    "duration": 0.10452949999999994
                },
                {
                    "name": "F3",
                    "midi": 53,
                    "time": 14.216012000000022,
                    "velocity": 0.5669291338582677,
                    "duration": 0.10452949999999994
                },
                {
                    "name": "G#2",
                    "midi": 44,
                    "time": 14.425071000000022,
                    "velocity": 0.5275590551181102,
                    "duration": 0.10452949999999994
                },
                {
                    "name": "F3",
                    "midi": 53,
                    "time": 14.425071000000022,
                    "velocity": 0.5275590551181102,
                    "duration": 0.10452949999999994
                },
                {
                    "name": "G#3",
                    "midi": 56,
                    "time": 14.425071000000022,
                    "velocity": 0.6377952755905512,
                    "duration": 0.10452949999999994
                },
                {
                    "name": "C#3",
                    "midi": 49,
                    "time": 14.738659500000022,
                    "velocity": 0.4881889763779528,
                    "duration": 0.10452949999999994
                },
                {
                    "name": "G#3",
                    "midi": 56,
                    "time": 14.738659500000022,
                    "velocity": 0.4881889763779528,
                    "duration": 0.10452949999999994
                },
                {
                    "name": "C#4",
                    "midi": 61,
                    "time": 14.738659500000022,
                    "velocity": 0.5748031496062992,
                    "duration": 0.10452949999999994
                },
                {
                    "name": "C#3",
                    "midi": 49,
                    "time": 14.843189000000022,
                    "velocity": 0.4881889763779528,
                    "duration": 0.10452949999999994
                },
                {
                    "name": "G#3",
                    "midi": 56,
                    "time": 14.843189000000022,
                    "velocity": 0.4881889763779528,
                    "duration": 0.10452949999999994
                },
                {
                    "name": "C#4",
                    "midi": 61,
                    "time": 14.843189000000022,
                    "velocity": 0.5748031496062992,
                    "duration": 0.10452949999999994
                },
                {
                    "name": "F3",
                    "midi": 53,
                    "time": 15.365836500000022,
                    "velocity": 0.4251968503937008,
                    "duration": 0.10452949999999994
                },
                {
                    "name": "G#3",
                    "midi": 56,
                    "time": 15.365836500000022,
                    "velocity": 0.4251968503937008,
                    "duration": 0.10452949999999994
                },
                {
                    "name": "C#4",
                    "midi": 61,
                    "time": 15.365836500000022,
                    "velocity": 0.4251968503937008,
                    "duration": 0.10452949999999994
                },
                {
                    "name": "F4",
                    "midi": 65,
                    "time": 15.365836500000022,
                    "velocity": 0.5196850393700787,
                    "duration": 0.10452949999999994
                },
                {
                    "name": "F4",
                    "midi": 65,
                    "time": 15.470366000000022,
                    "velocity": 0.5905511811023622,
                    "duration": 0.10452949999999994
                },
                {
                    "name": "C#4",
                    "midi": 61,
                    "time": 15.470366000000022,
                    "velocity": 0.49606299212598426,
                    "duration": 0.10452949999999994
                },
                {
                    "name": "G#3",
                    "midi": 56,
                    "time": 15.470366000000022,
                    "velocity": 0.49606299212598426,
                    "duration": 0.10452949999999994
                },
                {
                    "name": "F3",
                    "midi": 53,
                    "time": 15.470366000000022,
                    "velocity": 0.49606299212598426,
                    "duration": 0.10452949999999994
                },
                {
                    "name": "E3",
                    "midi": 52,
                    "time": 15.679425000000021,
                    "velocity": 0.4251968503937008,
                    "duration": 0.10452949999999994
                },
                {
                    "name": "G#3",
                    "midi": 56,
                    "time": 15.679425000000021,
                    "velocity": 0.4251968503937008,
                    "duration": 0.10452949999999994
                },
                {
                    "name": "C4",
                    "midi": 60,
                    "time": 15.679425000000021,
                    "velocity": 0.4251968503937008,
                    "duration": 0.10452949999999994
                },
                {
                    "name": "E4",
                    "midi": 64,
                    "time": 15.679425000000021,
                    "velocity": 0.5196850393700787,
                    "duration": 0.10452949999999994
                },
                {
                    "name": "F4",
                    "midi": 65,
                    "time": 15.888484000000021,
                    "velocity": 0.5905511811023622,
                    "duration": 0.10452949999999994
                },
                {
                    "name": "C#4",
                    "midi": 61,
                    "time": 15.888484000000021,
                    "velocity": 0.49606299212598426,
                    "duration": 0.10452949999999994
                },
                {
                    "name": "G#3",
                    "midi": 56,
                    "time": 15.888484000000021,
                    "velocity": 0.49606299212598426,
                    "duration": 0.10452949999999994
                },
                {
                    "name": "F3",
                    "midi": 53,
                    "time": 15.888484000000021,
                    "velocity": 0.49606299212598426,
                    "duration": 0.10452949999999994
                },
                {
                    "name": "B2",
                    "midi": 47,
                    "time": 16.306602000000023,
                    "velocity": 0.47244094488188976,
                    "duration": 0.10452950000000172
                },
                {
                    "name": "F3",
                    "midi": 53,
                    "time": 16.306602000000023,
                    "velocity": 0.47244094488188976,
                    "duration": 0.10452950000000172
                },
                {
                    "name": "G#3",
                    "midi": 56,
                    "time": 16.306602000000023,
                    "velocity": 0.47244094488188976,
                    "duration": 0.10452950000000172
                },
                {
                    "name": "B3",
                    "midi": 59,
                    "time": 16.306602000000023,
                    "velocity": 0.5275590551181102,
                    "duration": 0.10452950000000172
                },
                {
                    "name": "C#3",
                    "midi": 49,
                    "time": 16.620190500000025,
                    "velocity": 0.5118110236220472,
                    "duration": 0.10452950000000172
                },
                {
                    "name": "C#4",
                    "midi": 61,
                    "time": 16.620190500000025,
                    "velocity": 0.6141732283464567,
                    "duration": 0.10452950000000172
                },
                {
                    "name": "D3",
                    "midi": 50,
                    "time": 16.724720000000026,
                    "velocity": 0.4566929133858268,
                    "duration": 0.10452950000000172
                },
                {
                    "name": "D4",
                    "midi": 62,
                    "time": 16.724720000000026,
                    "velocity": 0.5511811023622047,
                    "duration": 0.10452950000000172
                },
                {
                    "name": "D#3",
                    "midi": 51,
                    "time": 16.93377900000003,
                    "velocity": 0.5039370078740157,
                    "duration": 0.10452950000000172
                },
                {
                    "name": "F#3",
                    "midi": 54,
                    "time": 16.93377900000003,
                    "velocity": 0.5039370078740157,
                    "duration": 0.10452950000000172
                },
                {
                    "name": "C4",
                    "midi": 60,
                    "time": 16.93377900000003,
                    "velocity": 0.5039370078740157,
                    "duration": 0.10452950000000172
                },
                {
                    "name": "D#4",
                    "midi": 63,
                    "time": 16.93377900000003,
                    "velocity": 0.6062992125984252,
                    "duration": 0.10452950000000172
                },
                {
                    "name": "B2",
                    "midi": 47,
                    "time": 17.24736750000003,
                    "velocity": 0.4645669291338583,
                    "duration": 0.10452950000000172
                },
                {
                    "name": "B3",
                    "midi": 59,
                    "time": 17.24736750000003,
                    "velocity": 0.5590551181102362,
                    "duration": 0.10452950000000172
                },
                {
                    "name": "C3",
                    "midi": 48,
                    "time": 17.351897000000033,
                    "velocity": 0.4645669291338583,
                    "duration": 0.10452950000000172
                },
                {
                    "name": "C4",
                    "midi": 60,
                    "time": 17.351897000000033,
                    "velocity": 0.5590551181102362,
                    "duration": 0.10452950000000172
                },
                {
                    "name": "G3",
                    "midi": 55,
                    "time": 17.560956000000036,
                    "velocity": 0.44881889763779526,
                    "duration": 0.10452950000000172
                },
                {
                    "name": "B3",
                    "midi": 59,
                    "time": 17.560956000000036,
                    "velocity": 0.44881889763779526,
                    "duration": 0.10452950000000172
                },
                {
                    "name": "D4",
                    "midi": 62,
                    "time": 17.560956000000036,
                    "velocity": 0.44881889763779526,
                    "duration": 0.10452950000000172
                },
                {
                    "name": "G4",
                    "midi": 67,
                    "time": 17.560956000000036,
                    "velocity": 0.5039370078740157,
                    "duration": 0.10452950000000172
                },
                {
                    "name": "D2",
                    "midi": 38,
                    "time": 17.77001500000004,
                    "velocity": 0.6062992125984252,
                    "duration": 0.20905900000000344
                },
                {
                    "name": "D3",
                    "midi": 50,
                    "time": 17.87454450000004,
                    "velocity": 0.5905511811023622,
                    "duration": 0.10452950000000172
                },
                {
                    "name": "C2",
                    "midi": 36,
                    "time": 17.979074000000043,
                    "velocity": 0.5748031496062992,
                    "duration": 0.20905900000000344
                },
                {
                    "name": "C3",
                    "midi": 48,
                    "time": 18.083603500000045,
                    "velocity": 0.5669291338582677,
                    "duration": 0.10452950000000172
                },
                {
                    "name": "B1",
                    "midi": 35,
                    "time": 18.188133000000047,
                    "velocity": 0.5590551181102362,
                    "duration": 0.20905900000000344
                },
                {
                    "name": "B2",
                    "midi": 47,
                    "time": 18.29266250000005,
                    "velocity": 0.5511811023622047,
                    "duration": 0.10452950000000172
                },
                {
                    "name": "G#1",
                    "midi": 32,
                    "time": 18.39719200000005,
                    "velocity": 0.5354330708661418,
                    "duration": 0.20905900000000344
                },
                {
                    "name": "G#2",
                    "midi": 44,
                    "time": 18.501721500000052,
                    "velocity": 0.5196850393700787,
                    "duration": 0.10452950000000172
                },
                {
                    "name": "G1",
                    "midi": 31,
                    "time": 18.606251000000054,
                    "velocity": 0.6220472440944882,
                    "duration": 0.20905900000000344
                },
                {
                    "name": "G2",
                    "midi": 43,
                    "time": 18.710780500000055,
                    "velocity": 0.49606299212598426,
                    "duration": 0.10452950000000172
                },
                {
                    "name": "C3",
                    "midi": 48,
                    "time": 18.815310000000057,
                    "velocity": 0.4251968503937008,
                    "duration": 0.10452950000000172
                },
                {
                    "name": "F#3",
                    "midi": 54,
                    "time": 18.815310000000057,
                    "velocity": 0.5039370078740157,
                    "duration": 0.10452950000000172
                },
                {
                    "name": "D#3",
                    "midi": 51,
                    "time": 18.815310000000057,
                    "velocity": 0.4251968503937008,
                    "duration": 0.10452950000000172
                },
                {
                    "name": "A2",
                    "midi": 45,
                    "time": 18.815310000000057,
                    "velocity": 0.4251968503937008,
                    "duration": 0.10452950000000172
                },
                {
                    "name": "G2",
                    "midi": 43,
                    "time": 18.815310000000057,
                    "velocity": 0.4251968503937008,
                    "duration": 0.10452950000000172
                },
                {
                    "name": "C3",
                    "midi": 48,
                    "time": 19.12889850000006,
                    "velocity": 0.33070866141732286,
                    "duration": 0.10452950000000172
                },
                {
                    "name": "F#3",
                    "midi": 54,
                    "time": 19.12889850000006,
                    "velocity": 0.4015748031496063,
                    "duration": 0.10452950000000172
                },
                {
                    "name": "D#3",
                    "midi": 51,
                    "time": 19.12889850000006,
                    "velocity": 0.33070866141732286,
                    "duration": 0.10452950000000172
                },
                {
                    "name": "A2",
                    "midi": 45,
                    "time": 19.12889850000006,
                    "velocity": 0.33070866141732286,
                    "duration": 0.10452950000000172
                },
                {
                    "name": "G2",
                    "midi": 43,
                    "time": 19.12889850000006,
                    "velocity": 0.33070866141732286,
                    "duration": 0.10452950000000172
                },
                {
                    "name": "C3",
                    "midi": 48,
                    "time": 19.23342800000006,
                    "velocity": 0.3779527559055118,
                    "duration": 0.10452950000000172
                },
                {
                    "name": "F#3",
                    "midi": 54,
                    "time": 19.23342800000006,
                    "velocity": 0.4409448818897638,
                    "duration": 0.10452950000000172
                },
                {
                    "name": "D#3",
                    "midi": 51,
                    "time": 19.23342800000006,
                    "velocity": 0.3779527559055118,
                    "duration": 0.10452950000000172
                },
                {
                    "name": "A2",
                    "midi": 45,
                    "time": 19.23342800000006,
                    "velocity": 0.3779527559055118,
                    "duration": 0.10452950000000172
                },
                {
                    "name": "G2",
                    "midi": 43,
                    "time": 19.23342800000006,
                    "velocity": 0.3779527559055118,
                    "duration": 0.10452950000000172
                },
                {
                    "name": "C3",
                    "midi": 48,
                    "time": 19.756075500000062,
                    "velocity": 0.2992125984251969,
                    "duration": 0.10452950000000172
                },
                {
                    "name": "G2",
                    "midi": 43,
                    "time": 19.756075500000062,
                    "velocity": 0.2992125984251969,
                    "duration": 0.10452950000000172
                },
                {
                    "name": "A2",
                    "midi": 45,
                    "time": 19.756075500000062,
                    "velocity": 0.2992125984251969,
                    "duration": 0.10452950000000172
                },
                {
                    "name": "F#3",
                    "midi": 54,
                    "time": 19.756075500000062,
                    "velocity": 0.3543307086614173,
                    "duration": 0.10452950000000172
                },
                {
                    "name": "D#3",
                    "midi": 51,
                    "time": 19.756075500000062,
                    "velocity": 0.2992125984251969,
                    "duration": 0.10452950000000172
                },
                {
                    "name": "C3",
                    "midi": 48,
                    "time": 19.860605000000064,
                    "velocity": 0.3543307086614173,
                    "duration": 0.10452950000000172
                },
                {
                    "name": "F#3",
                    "midi": 54,
                    "time": 19.860605000000064,
                    "velocity": 0.4094488188976378,
                    "duration": 0.10452950000000172
                },
                {
                    "name": "D#3",
                    "midi": 51,
                    "time": 19.860605000000064,
                    "velocity": 0.3543307086614173,
                    "duration": 0.10452950000000172
                },
                {
                    "name": "A2",
                    "midi": 45,
                    "time": 19.860605000000064,
                    "velocity": 0.3543307086614173,
                    "duration": 0.10452950000000172
                },
                {
                    "name": "G2",
                    "midi": 43,
                    "time": 19.860605000000064,
                    "velocity": 0.3543307086614173,
                    "duration": 0.10452950000000172
                },
                {
                    "name": "G2",
                    "midi": 43,
                    "time": 20.278723000000067,
                    "velocity": 0.2992125984251969,
                    "duration": 0.05226474999999908
                },
                {
                    "name": "A2",
                    "midi": 45,
                    "time": 20.278723000000067,
                    "velocity": 0.2992125984251969,
                    "duration": 0.05226474999999908
                },
                {
                    "name": "C3",
                    "midi": 48,
                    "time": 20.278723000000067,
                    "velocity": 0.2992125984251969,
                    "duration": 0.05226474999999908
                },
                {
                    "name": "D#3",
                    "midi": 51,
                    "time": 20.278723000000067,
                    "velocity": 0.2992125984251969,
                    "duration": 0.05226474999999908
                },
                {
                    "name": "F#3",
                    "midi": 54,
                    "time": 20.278723000000067,
                    "velocity": 0.3543307086614173,
                    "duration": 0.05226474999999908
                },
                {
                    "name": "G2",
                    "midi": 43,
                    "time": 20.383252500000065,
                    "velocity": 0.2677165354330709,
                    "duration": 0.05226474999999908
                },
                {
                    "name": "A2",
                    "midi": 45,
                    "time": 20.383252500000065,
                    "velocity": 0.2677165354330709,
                    "duration": 0.05226474999999908
                },
                {
                    "name": "C3",
                    "midi": 48,
                    "time": 20.383252500000065,
                    "velocity": 0.2677165354330709,
                    "duration": 0.05226474999999908
                },
                {
                    "name": "D#3",
                    "midi": 51,
                    "time": 20.383252500000065,
                    "velocity": 0.2677165354330709,
                    "duration": 0.05226474999999908
                },
                {
                    "name": "F#3",
                    "midi": 54,
                    "time": 20.383252500000065,
                    "velocity": 0.31496062992125984,
                    "duration": 0.05226474999999908
                },
                {
                    "name": "G2",
                    "midi": 43,
                    "time": 20.487782000000063,
                    "velocity": 0.2677165354330709,
                    "duration": 0.05226474999999908
                },
                {
                    "name": "A2",
                    "midi": 45,
                    "time": 20.487782000000063,
                    "velocity": 0.2677165354330709,
                    "duration": 0.05226474999999908
                },
                {
                    "name": "C3",
                    "midi": 48,
                    "time": 20.487782000000063,
                    "velocity": 0.2677165354330709,
                    "duration": 0.05226474999999908
                },
                {
                    "name": "D#3",
                    "midi": 51,
                    "time": 20.487782000000063,
                    "velocity": 0.2677165354330709,
                    "duration": 0.05226474999999908
                },
                {
                    "name": "F#3",
                    "midi": 54,
                    "time": 20.487782000000063,
                    "velocity": 0.31496062992125984,
                    "duration": 0.05226474999999908
                },
                {
                    "name": "G2",
                    "midi": 43,
                    "time": 20.59231150000006,
                    "velocity": 0.2677165354330709,
                    "duration": 0.05226474999999908
                },
                {
                    "name": "A2",
                    "midi": 45,
                    "time": 20.59231150000006,
                    "velocity": 0.2677165354330709,
                    "duration": 0.05226474999999908
                },
                {
                    "name": "C3",
                    "midi": 48,
                    "time": 20.59231150000006,
                    "velocity": 0.2677165354330709,
                    "duration": 0.05226474999999908
                },
                {
                    "name": "D#3",
                    "midi": 51,
                    "time": 20.59231150000006,
                    "velocity": 0.2677165354330709,
                    "duration": 0.05226474999999908
                },
                {
                    "name": "F#3",
                    "midi": 54,
                    "time": 20.59231150000006,
                    "velocity": 0.31496062992125984,
                    "duration": 0.05226474999999908
                },
                {
                    "name": "G2",
                    "midi": 43,
                    "time": 20.69684100000006,
                    "velocity": 0.31496062992125984,
                    "duration": 0.10452950000000172
                },
                {
                    "name": "B2",
                    "midi": 47,
                    "time": 20.69684100000006,
                    "velocity": 0.31496062992125984,
                    "duration": 0.10452950000000172
                },
                {
                    "name": "D3",
                    "midi": 50,
                    "time": 20.69684100000006,
                    "velocity": 0.31496062992125984,
                    "duration": 0.10452950000000172
                },
                {
                    "name": "G3",
                    "midi": 55,
                    "time": 20.69684100000006,
                    "velocity": 0.3779527559055118,
                    "duration": 0.10452950000000172
                },
                {
                    "name": "D2",
                    "midi": 38,
                    "time": 20.905900000000063,
                    "velocity": 0.6062992125984252,
                    "duration": 0.20905900000000344
                },
                {
                    "name": "D3",
                    "midi": 50,
                    "time": 21.010429500000065,
                    "velocity": 0.5905511811023622,
                    "duration": 0.10452950000000172
                },
                {
                    "name": "C2",
                    "midi": 36,
                    "time": 21.114959000000066,
                    "velocity": 0.5748031496062992,
                    "duration": 0.20905900000000344
                },
                {
                    "name": "C3",
                    "midi": 48,
                    "time": 21.219488500000068,
                    "velocity": 0.5669291338582677,
                    "duration": 0.10452950000000172
                },
                {
                    "name": "B1",
                    "midi": 35,
                    "time": 21.32401800000007,
                    "velocity": 0.5590551181102362,
                    "duration": 0.20905900000000344
                },
                {
                    "name": "B2",
                    "midi": 47,
                    "time": 21.42854750000007,
                    "velocity": 0.5511811023622047,
                    "duration": 0.10452950000000172
                },
                {
                    "name": "G#1",
                    "midi": 32,
                    "time": 21.533077000000073,
                    "velocity": 0.5354330708661418,
                    "duration": 0.20905900000000344
                },
                {
                    "name": "G#2",
                    "midi": 44,
                    "time": 21.637606500000075,
                    "velocity": 0.5196850393700787,
                    "duration": 0.10452950000000172
                },
                {
                    "name": "G1",
                    "midi": 31,
                    "time": 21.742136000000077,
                    "velocity": 0.6220472440944882,
                    "duration": 0.20905900000000344
                },
                {
                    "name": "G2",
                    "midi": 43,
                    "time": 21.84666550000008,
                    "velocity": 0.49606299212598426,
                    "duration": 0.10452950000000172
                },
                {
                    "name": "C3",
                    "midi": 48,
                    "time": 21.95119500000008,
                    "velocity": 0.4251968503937008,
                    "duration": 0.10452950000000172
                },
                {
                    "name": "F#3",
                    "midi": 54,
                    "time": 21.95119500000008,
                    "velocity": 0.5039370078740157,
                    "duration": 0.10452950000000172
                },
                {
                    "name": "D#3",
                    "midi": 51,
                    "time": 21.95119500000008,
                    "velocity": 0.4251968503937008,
                    "duration": 0.10452950000000172
                },
                {
                    "name": "A2",
                    "midi": 45,
                    "time": 21.95119500000008,
                    "velocity": 0.4251968503937008,
                    "duration": 0.10452950000000172
                },
                {
                    "name": "G2",
                    "midi": 43,
                    "time": 21.95119500000008,
                    "velocity": 0.4251968503937008,
                    "duration": 0.10452950000000172
                },
                {
                    "name": "C3",
                    "midi": 48,
                    "time": 22.26478350000008,
                    "velocity": 0.33070866141732286,
                    "duration": 0.10452950000000172
                },
                {
                    "name": "F#3",
                    "midi": 54,
                    "time": 22.26478350000008,
                    "velocity": 0.4015748031496063,
                    "duration": 0.10452950000000172
                },
                {
                    "name": "D#3",
                    "midi": 51,
                    "time": 22.26478350000008,
                    "velocity": 0.33070866141732286,
                    "duration": 0.10452950000000172
                },
                {
                    "name": "A2",
                    "midi": 45,
                    "time": 22.26478350000008,
                    "velocity": 0.33070866141732286,
                    "duration": 0.10452950000000172
                },
                {
                    "name": "G2",
                    "midi": 43,
                    "time": 22.26478350000008,
                    "velocity": 0.33070866141732286,
                    "duration": 0.10452950000000172
                },
                {
                    "name": "C3",
                    "midi": 48,
                    "time": 22.369313000000083,
                    "velocity": 0.3779527559055118,
                    "duration": 0.10452950000000172
                },
                {
                    "name": "F#3",
                    "midi": 54,
                    "time": 22.369313000000083,
                    "velocity": 0.4409448818897638,
                    "duration": 0.10452950000000172
                },
                {
                    "name": "D#3",
                    "midi": 51,
                    "time": 22.369313000000083,
                    "velocity": 0.3779527559055118,
                    "duration": 0.10452950000000172
                },
                {
                    "name": "A2",
                    "midi": 45,
                    "time": 22.369313000000083,
                    "velocity": 0.3779527559055118,
                    "duration": 0.10452950000000172
                },
                {
                    "name": "G2",
                    "midi": 43,
                    "time": 22.369313000000083,
                    "velocity": 0.3779527559055118,
                    "duration": 0.10452950000000172
                },
                {
                    "name": "C3",
                    "midi": 48,
                    "time": 22.891960500000085,
                    "velocity": 0.2992125984251969,
                    "duration": 0.10452950000000172
                },
                {
                    "name": "G2",
                    "midi": 43,
                    "time": 22.891960500000085,
                    "velocity": 0.2992125984251969,
                    "duration": 0.10452950000000172
                },
                {
                    "name": "A2",
                    "midi": 45,
                    "time": 22.891960500000085,
                    "velocity": 0.2992125984251969,
                    "duration": 0.10452950000000172
                },
                {
                    "name": "F#3",
                    "midi": 54,
                    "time": 22.891960500000085,
                    "velocity": 0.3543307086614173,
                    "duration": 0.10452950000000172
                },
                {
                    "name": "D#3",
                    "midi": 51,
                    "time": 22.891960500000085,
                    "velocity": 0.2992125984251969,
                    "duration": 0.10452950000000172
                },
                {
                    "name": "C3",
                    "midi": 48,
                    "time": 22.996490000000087,
                    "velocity": 0.3543307086614173,
                    "duration": 0.10452950000000172
                },
                {
                    "name": "F#3",
                    "midi": 54,
                    "time": 22.996490000000087,
                    "velocity": 0.4094488188976378,
                    "duration": 0.10452950000000172
                },
                {
                    "name": "D#3",
                    "midi": 51,
                    "time": 22.996490000000087,
                    "velocity": 0.3543307086614173,
                    "duration": 0.10452950000000172
                },
                {
                    "name": "A2",
                    "midi": 45,
                    "time": 22.996490000000087,
                    "velocity": 0.3543307086614173,
                    "duration": 0.10452950000000172
                },
                {
                    "name": "G2",
                    "midi": 43,
                    "time": 22.996490000000087,
                    "velocity": 0.3543307086614173,
                    "duration": 0.10452950000000172
                },
                {
                    "name": "G2",
                    "midi": 43,
                    "time": 23.41460800000009,
                    "velocity": 0.2992125984251969,
                    "duration": 0.05226474999999908
                },
                {
                    "name": "A2",
                    "midi": 45,
                    "time": 23.41460800000009,
                    "velocity": 0.2992125984251969,
                    "duration": 0.05226474999999908
                },
                {
                    "name": "C3",
                    "midi": 48,
                    "time": 23.41460800000009,
                    "velocity": 0.2992125984251969,
                    "duration": 0.05226474999999908
                },
                {
                    "name": "D#3",
                    "midi": 51,
                    "time": 23.41460800000009,
                    "velocity": 0.2992125984251969,
                    "duration": 0.05226474999999908
                },
                {
                    "name": "F#3",
                    "midi": 54,
                    "time": 23.41460800000009,
                    "velocity": 0.3543307086614173,
                    "duration": 0.05226474999999908
                },
                {
                    "name": "G2",
                    "midi": 43,
                    "time": 23.519137500000088,
                    "velocity": 0.2677165354330709,
                    "duration": 0.05226474999999908
                },
                {
                    "name": "A2",
                    "midi": 45,
                    "time": 23.519137500000088,
                    "velocity": 0.2677165354330709,
                    "duration": 0.05226474999999908
                },
                {
                    "name": "C3",
                    "midi": 48,
                    "time": 23.519137500000088,
                    "velocity": 0.2677165354330709,
                    "duration": 0.05226474999999908
                },
                {
                    "name": "D#3",
                    "midi": 51,
                    "time": 23.519137500000088,
                    "velocity": 0.2677165354330709,
                    "duration": 0.05226474999999908
                },
                {
                    "name": "F#3",
                    "midi": 54,
                    "time": 23.519137500000088,
                    "velocity": 0.31496062992125984,
                    "duration": 0.05226474999999908
                },
                {
                    "name": "G2",
                    "midi": 43,
                    "time": 23.623667000000086,
                    "velocity": 0.2677165354330709,
                    "duration": 0.05226474999999908
                },
                {
                    "name": "A2",
                    "midi": 45,
                    "time": 23.623667000000086,
                    "velocity": 0.2677165354330709,
                    "duration": 0.05226474999999908
                },
                {
                    "name": "C3",
                    "midi": 48,
                    "time": 23.623667000000086,
                    "velocity": 0.2677165354330709,
                    "duration": 0.05226474999999908
                },
                {
                    "name": "D#3",
                    "midi": 51,
                    "time": 23.623667000000086,
                    "velocity": 0.2677165354330709,
                    "duration": 0.05226474999999908
                },
                {
                    "name": "F#3",
                    "midi": 54,
                    "time": 23.623667000000086,
                    "velocity": 0.31496062992125984,
                    "duration": 0.05226474999999908
                },
                {
                    "name": "G2",
                    "midi": 43,
                    "time": 23.728196500000085,
                    "velocity": 0.2677165354330709,
                    "duration": 0.05226474999999908
                },
                {
                    "name": "A2",
                    "midi": 45,
                    "time": 23.728196500000085,
                    "velocity": 0.2677165354330709,
                    "duration": 0.05226474999999908
                },
                {
                    "name": "C3",
                    "midi": 48,
                    "time": 23.728196500000085,
                    "velocity": 0.2677165354330709,
                    "duration": 0.05226474999999908
                },
                {
                    "name": "D#3",
                    "midi": 51,
                    "time": 23.728196500000085,
                    "velocity": 0.2677165354330709,
                    "duration": 0.05226474999999908
                },
                {
                    "name": "F#3",
                    "midi": 54,
                    "time": 23.728196500000085,
                    "velocity": 0.31496062992125984,
                    "duration": 0.05226474999999908
                },
                {
                    "name": "G2",
                    "midi": 43,
                    "time": 23.832726000000083,
                    "velocity": 0.31496062992125984,
                    "duration": 0.10452950000000172
                },
                {
                    "name": "B2",
                    "midi": 47,
                    "time": 23.832726000000083,
                    "velocity": 0.31496062992125984,
                    "duration": 0.10452950000000172
                },
                {
                    "name": "D3",
                    "midi": 50,
                    "time": 23.832726000000083,
                    "velocity": 0.31496062992125984,
                    "duration": 0.10452950000000172
                },
                {
                    "name": "G3",
                    "midi": 55,
                    "time": 23.832726000000083,
                    "velocity": 0.3779527559055118,
                    "duration": 0.10452950000000172
                },
                {
                    "name": "D3",
                    "midi": 50,
                    "time": 24.041785000000086,
                    "velocity": 0.4330708661417323,
                    "duration": 0.20905899999999988
                },
                {
                    "name": "D2",
                    "midi": 38,
                    "time": 24.041785000000086,
                    "velocity": 0.36220472440944884,
                    "duration": 0.20905899999999988
                },
                {
                    "name": "C3",
                    "midi": 48,
                    "time": 24.250844000000086,
                    "velocity": 0.44881889763779526,
                    "duration": 0.20905899999999988
                },
                {
                    "name": "C2",
                    "midi": 36,
                    "time": 24.250844000000086,
                    "velocity": 0.3779527559055118,
                    "duration": 0.20905899999999988
                },
                {
                    "name": "B2",
                    "midi": 47,
                    "time": 24.459903000000086,
                    "velocity": 0.47244094488188976,
                    "duration": 0.20905899999999988
                },
                {
                    "name": "B1",
                    "midi": 35,
                    "time": 24.459903000000086,
                    "velocity": 0.3937007874015748,
                    "duration": 0.20905899999999988
                },
                {
                    "name": "A2",
                    "midi": 45,
                    "time": 24.668962000000086,
                    "velocity": 0.4881889763779528,
                    "duration": 0.20905899999999988
                },
                {
                    "name": "A1",
                    "midi": 33,
                    "time": 24.668962000000086,
                    "velocity": 0.4094488188976378,
                    "duration": 0.20905899999999988
                },
                {
                    "name": "G2",
                    "midi": 43,
                    "time": 24.878021000000086,
                    "velocity": 0.5511811023622047,
                    "duration": 0.20905899999999988
                },
                {
                    "name": "G1",
                    "midi": 31,
                    "time": 24.878021000000086,
                    "velocity": 0.4645669291338583,
                    "duration": 0.20905899999999988
                },
                {
                    "name": "G#3",
                    "midi": 56,
                    "time": 25.087080000000086,
                    "velocity": 0.5748031496062992,
                    "duration": 0.20905899999999988
                },
                {
                    "name": "G#2",
                    "midi": 44,
                    "time": 25.087080000000086,
                    "velocity": 0.4881889763779528,
                    "duration": 0.20905899999999988
                },
                {
                    "name": "F#3",
                    "midi": 54,
                    "time": 25.296139000000085,
                    "velocity": 0.5118110236220472,
                    "duration": 0.20905899999999988
                },
                {
                    "name": "F#2",
                    "midi": 42,
                    "time": 25.296139000000085,
                    "velocity": 0.4330708661417323,
                    "duration": 0.20905899999999988
                },
                {
                    "name": "F3",
                    "midi": 53,
                    "time": 25.505198000000085,
                    "velocity": 0.5354330708661418,
                    "duration": 0.20905899999999988
                },
                {
                    "name": "F2",
                    "midi": 41,
                    "time": 25.505198000000085,
                    "velocity": 0.44881889763779526,
                    "duration": 0.20905899999999988
                },
                {
                    "name": "D#3",
                    "midi": 51,
                    "time": 25.714257000000085,
                    "velocity": 0.5669291338582677,
                    "duration": 0.20905899999999988
                },
                {
                    "name": "D#2",
                    "midi": 39,
                    "time": 25.714257000000085,
                    "velocity": 0.48031496062992124,
                    "duration": 0.20905899999999988
                },
                {
                    "name": "C#3",
                    "midi": 49,
                    "time": 25.923316000000085,
                    "velocity": 0.5905511811023622,
                    "duration": 0.20905899999999988
                },
                {
                    "name": "C#2",
                    "midi": 37,
                    "time": 25.923316000000085,
                    "velocity": 0.4251968503937008,
                    "duration": 0.20905899999999988
                },
                {
                    "name": "C#3",
                    "midi": 49,
                    "time": 26.132375000000085,
                    "velocity": 0.4251968503937008,
                    "duration": 0.10452950000000172
                },
                {
                    "name": "F3",
                    "midi": 53,
                    "time": 26.132375000000085,
                    "velocity": 0.4251968503937008,
                    "duration": 0.10452950000000172
                },
                {
                    "name": "G#3",
                    "midi": 56,
                    "time": 26.132375000000085,
                    "velocity": 0.4251968503937008,
                    "duration": 0.10452950000000172
                },
                {
                    "name": "C#4",
                    "midi": 61,
                    "time": 26.132375000000085,
                    "velocity": 0.49606299212598426,
                    "duration": 0.10452950000000172
                },
                {
                    "name": "G2",
                    "midi": 43,
                    "time": 26.34143400000009,
                    "velocity": 0.4645669291338583,
                    "duration": 0.10452950000000172
                },
                {
                    "name": "B2",
                    "midi": 47,
                    "time": 26.34143400000009,
                    "velocity": 0.4645669291338583,
                    "duration": 0.10452950000000172
                },
                {
                    "name": "D3",
                    "midi": 50,
                    "time": 26.34143400000009,
                    "velocity": 0.4645669291338583,
                    "duration": 0.10452950000000172
                },
                {
                    "name": "G3",
                    "midi": 55,
                    "time": 26.34143400000009,
                    "velocity": 0.5511811023622047,
                    "duration": 0.10452950000000172
                },
                {
                    "name": "D3",
                    "midi": 50,
                    "time": 26.550493000000092,
                    "velocity": 0.48031496062992124,
                    "duration": 0.20905899999999988
                },
                {
                    "name": "D2",
                    "midi": 38,
                    "time": 26.550493000000092,
                    "velocity": 0.4015748031496063,
                    "duration": 0.20905899999999988
                },
                {
                    "name": "C3",
                    "midi": 48,
                    "time": 26.75955200000009,
                    "velocity": 0.49606299212598426,
                    "duration": 0.20905899999999988
                },
                {
                    "name": "C2",
                    "midi": 36,
                    "time": 26.75955200000009,
                    "velocity": 0.41732283464566927,
                    "duration": 0.20905899999999988
                },
                {
                    "name": "B2",
                    "midi": 47,
                    "time": 26.96861100000009,
                    "velocity": 0.5118110236220472,
                    "duration": 0.20905899999999988
                },
                {
                    "name": "B1",
                    "midi": 35,
                    "time": 26.96861100000009,
                    "velocity": 0.4251968503937008,
                    "duration": 0.20905899999999988
                },
                {
                    "name": "A2",
                    "midi": 45,
                    "time": 27.17767000000009,
                    "velocity": 0.5275590551181102,
                    "duration": 0.20905899999999988
                },
                {
                    "name": "A1",
                    "midi": 33,
                    "time": 27.17767000000009,
                    "velocity": 0.4409448818897638,
                    "duration": 0.20905899999999988
                },
                {
                    "name": "G2",
                    "midi": 43,
                    "time": 27.38672900000009,
                    "velocity": 0.5984251968503937,
                    "duration": 0.20905899999999988
                },
                {
                    "name": "G1",
                    "midi": 31,
                    "time": 27.38672900000009,
                    "velocity": 0.5039370078740157,
                    "duration": 0.20905899999999988
                },
                {
                    "name": "G#3",
                    "midi": 56,
                    "time": 27.59578800000009,
                    "velocity": 0.6377952755905512,
                    "duration": 0.20905899999999988
                },
                {
                    "name": "G#2",
                    "midi": 44,
                    "time": 27.59578800000009,
                    "velocity": 0.5275590551181102,
                    "duration": 0.20905899999999988
                },
                {
                    "name": "F#3",
                    "midi": 54,
                    "time": 27.80484700000009,
                    "velocity": 0.5669291338582677,
                    "duration": 0.20905899999999988
                },
                {
                    "name": "F#2",
                    "midi": 42,
                    "time": 27.80484700000009,
                    "velocity": 0.48031496062992124,
                    "duration": 0.20905899999999988
                },
                {
                    "name": "F3",
                    "midi": 53,
                    "time": 28.01390600000009,
                    "velocity": 0.5826771653543307,
                    "duration": 0.20905899999999988
                },
                {
                    "name": "F2",
                    "midi": 41,
                    "time": 28.01390600000009,
                    "velocity": 0.49606299212598426,
                    "duration": 0.20905899999999988
                },
                {
                    "name": "D#3",
                    "midi": 51,
                    "time": 28.22296500000009,
                    "velocity": 0.6220472440944882,
                    "duration": 0.20905899999999988
                },
                {
                    "name": "D#2",
                    "midi": 39,
                    "time": 28.22296500000009,
                    "velocity": 0.5196850393700787,
                    "duration": 0.20905899999999988
                },
                {
                    "name": "C#3",
                    "midi": 49,
                    "time": 28.43202400000009,
                    "velocity": 0.6456692913385826,
                    "duration": 0.20905899999999988
                },
                {
                    "name": "C#2",
                    "midi": 37,
                    "time": 28.43202400000009,
                    "velocity": 0.4645669291338583,
                    "duration": 0.20905899999999988
                },
                {
                    "name": "C#3",
                    "midi": 49,
                    "time": 28.64108300000009,
                    "velocity": 0.28346456692913385,
                    "duration": 0.10452950000000172
                },
                {
                    "name": "F3",
                    "midi": 53,
                    "time": 28.64108300000009,
                    "velocity": 0.28346456692913385,
                    "duration": 0.10452950000000172
                },
                {
                    "name": "G#3",
                    "midi": 56,
                    "time": 28.64108300000009,
                    "velocity": 0.28346456692913385,
                    "duration": 0.10452950000000172
                },
                {
                    "name": "C#4",
                    "midi": 61,
                    "time": 28.64108300000009,
                    "velocity": 0.3937007874015748,
                    "duration": 0.10452950000000172
                },
                {
                    "name": "G2",
                    "midi": 43,
                    "time": 28.850142000000094,
                    "velocity": 0.30708661417322836,
                    "duration": 0.6271769999999997
                },
                {
                    "name": "B2",
                    "midi": 47,
                    "time": 28.850142000000094,
                    "velocity": 0.30708661417322836,
                    "duration": 0.6271769999999997
                },
                {
                    "name": "D3",
                    "midi": 50,
                    "time": 28.850142000000094,
                    "velocity": 0.30708661417322836,
                    "duration": 0.6271769999999997
                },
                {
                    "name": "G3",
                    "midi": 55,
                    "time": 28.850142000000094,
                    "velocity": 0.4330708661417323,
                    "duration": 0.6271769999999997
                },
                {
                    "name": "F2",
                    "midi": 41,
                    "time": 29.477319000000094,
                    "velocity": 0.36220472440944884,
                    "duration": 0.6271769999999997
                },
                {
                    "name": "G#2",
                    "midi": 44,
                    "time": 29.477319000000094,
                    "velocity": 0.36220472440944884,
                    "duration": 0.6271769999999997
                },
                {
                    "name": "C3",
                    "midi": 48,
                    "time": 29.477319000000094,
                    "velocity": 0.36220472440944884,
                    "duration": 0.6271769999999997
                },
                {
                    "name": "F3",
                    "midi": 53,
                    "time": 29.477319000000094,
                    "velocity": 0.4330708661417323,
                    "duration": 0.6271769999999997
                },
                {
                    "name": "C#2",
                    "midi": 37,
                    "time": 30.104496000000093,
                    "velocity": 0.3937007874015748,
                    "duration": 0.6271769999999997
                },
                {
                    "name": "F2",
                    "midi": 41,
                    "time": 30.104496000000093,
                    "velocity": 0.3937007874015748,
                    "duration": 0.6271769999999997
                },
                {
                    "name": "G#2",
                    "midi": 44,
                    "time": 30.104496000000093,
                    "velocity": 0.3937007874015748,
                    "duration": 0.6271769999999997
                },
                {
                    "name": "C#3",
                    "midi": 49,
                    "time": 30.104496000000093,
                    "velocity": 0.47244094488188976,
                    "duration": 0.6271769999999997
                },
                {
                    "name": "C2",
                    "midi": 36,
                    "time": 30.731673000000093,
                    "velocity": 0.4251968503937008,
                    "duration": 0.6271769999999997
                },
                {
                    "name": "F2",
                    "midi": 41,
                    "time": 30.731673000000093,
                    "velocity": 0.4251968503937008,
                    "duration": 0.6271769999999997
                },
                {
                    "name": "G#2",
                    "midi": 44,
                    "time": 30.731673000000093,
                    "velocity": 0.4251968503937008,
                    "duration": 0.6271769999999997
                },
                {
                    "name": "C3",
                    "midi": 48,
                    "time": 30.731673000000093,
                    "velocity": 0.5039370078740157,
                    "duration": 0.6271769999999997
                },
                {
                    "name": "G#1",
                    "midi": 32,
                    "time": 31.358850000000093,
                    "velocity": 0.4330708661417323,
                    "duration": 0.3135885000000016
                },
                {
                    "name": "C2",
                    "midi": 36,
                    "time": 31.358850000000093,
                    "velocity": 0.4330708661417323,
                    "duration": 0.3135885000000016
                },
                {
                    "name": "D2",
                    "midi": 38,
                    "time": 31.358850000000093,
                    "velocity": 0.4330708661417323,
                    "duration": 0.3135885000000016
                },
                {
                    "name": "G#2",
                    "midi": 44,
                    "time": 31.358850000000093,
                    "velocity": 0.5118110236220472,
                    "duration": 0.3135885000000016
                },
                {
                    "name": "G#1",
                    "midi": 32,
                    "time": 31.672438500000094,
                    "velocity": 0.4330708661417323,
                    "duration": 0.3135885000000016
                },
                {
                    "name": "C2",
                    "midi": 36,
                    "time": 31.672438500000094,
                    "velocity": 0.4330708661417323,
                    "duration": 0.3135885000000016
                },
                {
                    "name": "D2",
                    "midi": 38,
                    "time": 31.672438500000094,
                    "velocity": 0.4330708661417323,
                    "duration": 0.3135885000000016
                },
                {
                    "name": "G#2",
                    "midi": 44,
                    "time": 31.672438500000094,
                    "velocity": 0.5118110236220472,
                    "duration": 0.3135885000000016
                },
                {
                    "name": "G#1",
                    "midi": 32,
                    "time": 31.986027000000096,
                    "velocity": 0.4330708661417323,
                    "duration": 0.31358849999999805
                },
                {
                    "name": "C2",
                    "midi": 36,
                    "time": 31.986027000000096,
                    "velocity": 0.4330708661417323,
                    "duration": 0.31358849999999805
                },
                {
                    "name": "D2",
                    "midi": 38,
                    "time": 31.986027000000096,
                    "velocity": 0.4330708661417323,
                    "duration": 0.31358849999999805
                },
                {
                    "name": "G#2",
                    "midi": 44,
                    "time": 31.986027000000096,
                    "velocity": 0.5118110236220472,
                    "duration": 0.31358849999999805
                },
                {
                    "name": "G#1",
                    "midi": 32,
                    "time": 32.299615500000094,
                    "velocity": 0.4330708661417323,
                    "duration": 0.3135885000000016
                },
                {
                    "name": "C2",
                    "midi": 36,
                    "time": 32.299615500000094,
                    "velocity": 0.4330708661417323,
                    "duration": 0.3135885000000016
                },
                {
                    "name": "D2",
                    "midi": 38,
                    "time": 32.299615500000094,
                    "velocity": 0.4330708661417323,
                    "duration": 0.3135885000000016
                },
                {
                    "name": "G#2",
                    "midi": 44,
                    "time": 32.299615500000094,
                    "velocity": 0.5118110236220472,
                    "duration": 0.3135885000000016
                },
                {
                    "name": "G1",
                    "midi": 31,
                    "time": 32.613204000000096,
                    "velocity": 0.4015748031496063,
                    "duration": 0.10452949999999817
                },
                {
                    "name": "B1",
                    "midi": 35,
                    "time": 32.613204000000096,
                    "velocity": 0.4015748031496063,
                    "duration": 0.10452949999999817
                },
                {
                    "name": "D2",
                    "midi": 38,
                    "time": 32.613204000000096,
                    "velocity": 0.4015748031496063,
                    "duration": 0.10452949999999817
                },
                {
                    "name": "G2",
                    "midi": 43,
                    "time": 32.613204000000096,
                    "velocity": 0.48031496062992124,
                    "duration": 0.10452949999999817
                },
                {
                    "name": "G#5",
                    "midi": 80,
                    "time": 32.82226300000009,
                    "velocity": 0.4881889763779528,
                    "duration": 0.047038274999998464
                },
                {
                    "name": "G5",
                    "midi": 79,
                    "time": 32.86930127500009,
                    "velocity": 0.48031496062992124,
                    "duration": 0.04616719583333406
                },
                {
                    "name": "F#5",
                    "midi": 78,
                    "time": 32.915468470833424,
                    "velocity": 0.4645669291338583,
                    "duration": 0.047038274999998464
                },
                {
                    "name": "F5",
                    "midi": 77,
                    "time": 32.96163566666676,
                    "velocity": 0.4566929133858268,
                    "duration": 0.047038274999998464
                },
                {
                    "name": "E5",
                    "midi": 76,
                    "time": 33.00867394166676,
                    "velocity": 0.4409448818897638,
                    "duration": 0.04616719583333406
                },
                {
                    "name": "D#5",
                    "midi": 75,
                    "time": 33.05484113750009,
                    "velocity": 0.4330708661417323,
                    "duration": 0.047038274999998464
                },
                {
                    "name": "D5",
                    "midi": 74,
                    "time": 33.10187941250009,
                    "velocity": 0.4251968503937008,
                    "duration": 0.04616719583333406
                },
                {
                    "name": "C#5",
                    "midi": 73,
                    "time": 33.14804660833342,
                    "velocity": 0.41732283464566927,
                    "duration": 0.047038274999998464
                },
                {
                    "name": "C5",
                    "midi": 72,
                    "time": 33.19421380416676,
                    "velocity": 0.4094488188976378,
                    "duration": 0.047038274999998464
                },
                {
                    "name": "B4",
                    "midi": 71,
                    "time": 33.24038100000009,
                    "velocity": 0.47244094488188976,
                    "duration": 0.10452949999999817
                },
                {
                    "name": "G#4",
                    "midi": 68,
                    "time": 33.44944000000009,
                    "velocity": 0.4094488188976378,
                    "duration": 0.047038274999998464
                },
                {
                    "name": "G4",
                    "midi": 67,
                    "time": 33.49647827500009,
                    "velocity": 0.4015748031496063,
                    "duration": 0.04616719583333406
                },
                {
                    "name": "F#4",
                    "midi": 66,
                    "time": 33.54264547083342,
                    "velocity": 0.3937007874015748,
                    "duration": 0.04616719583333406
                },
                {
                    "name": "F4",
                    "midi": 65,
                    "time": 33.588812666666755,
                    "velocity": 0.3858267716535433,
                    "duration": 0.047038274999998464
                },
                {
                    "name": "E4",
                    "midi": 64,
                    "time": 33.63497986250009,
                    "velocity": 0.3700787401574803,
                    "duration": 0.04616719583333406
                },
                {
                    "name": "D#4",
                    "midi": 63,
                    "time": 33.68201813750009,
                    "velocity": 0.36220472440944884,
                    "duration": 0.047038274999998464
                },
                {
                    "name": "D4",
                    "midi": 62,
                    "time": 33.729056412500086,
                    "velocity": 0.3543307086614173,
                    "duration": 0.04616719583333406
                },
                {
                    "name": "C#4",
                    "midi": 61,
                    "time": 33.77522360833342,
                    "velocity": 0.3543307086614173,
                    "duration": 0.04616719583333406
                },
                {
                    "name": "C4",
                    "midi": 60,
                    "time": 33.821390804166754,
                    "velocity": 0.3464566929133858,
                    "duration": 0.047038274999998464
                },
                {
                    "name": "B3",
                    "midi": 59,
                    "time": 33.86755800000009,
                    "velocity": 0.3937007874015748,
                    "duration": 0.10452949999999817
                },
                {
                    "name": "G#3",
                    "midi": 56,
                    "time": 34.076617000000084,
                    "velocity": 0.3464566929133858,
                    "duration": 0.047038274999998464
                },
                {
                    "name": "G3",
                    "midi": 55,
                    "time": 34.12365527500008,
                    "velocity": 0.33858267716535434,
                    "duration": 0.04616719583333406
                },
                {
                    "name": "F#3",
                    "midi": 54,
                    "time": 34.16982247083342,
                    "velocity": 0.33070866141732286,
                    "duration": 0.04616719583333406
                },
                {
                    "name": "F3",
                    "midi": 53,
                    "time": 34.21598966666675,
                    "velocity": 0.3228346456692913,
                    "duration": 0.047038274999998464
                },
                {
                    "name": "E3",
                    "midi": 52,
                    "time": 34.262156862500085,
                    "velocity": 0.31496062992125984,
                    "duration": 0.04616719583333406
                },
                {
                    "name": "D#3",
                    "midi": 51,
                    "time": 34.30919513750008,
                    "velocity": 0.30708661417322836,
                    "duration": 0.047038274999998464
                },
                {
                    "name": "D3",
                    "midi": 50,
                    "time": 34.35623341250008,
                    "velocity": 0.2992125984251969,
                    "duration": 0.04616719583333406
                },
                {
                    "name": "C#3",
                    "midi": 49,
                    "time": 34.402400608333416,
                    "velocity": 0.29133858267716534,
                    "duration": 0.04616719583333406
                },
                {
                    "name": "C3",
                    "midi": 48,
                    "time": 34.44856780416675,
                    "velocity": 0.28346456692913385,
                    "duration": 0.047038274999998464
                },
                {
                    "name": "B2",
                    "midi": 47,
                    "time": 34.494735000000084,
                    "velocity": 0.33070866141732286,
                    "duration": 0.10452949999999817
                },
                {
                    "name": "G#2",
                    "midi": 44,
                    "time": 34.70379400000008,
                    "velocity": 0.3464566929133858,
                    "duration": 0.04616719583333406
                },
                {
                    "name": "G2",
                    "midi": 43,
                    "time": 34.749961195833414,
                    "velocity": 0.33858267716535434,
                    "duration": 0.04616719583333406
                },
                {
                    "name": "F#2",
                    "midi": 42,
                    "time": 34.79699947083341,
                    "velocity": 0.33070866141732286,
                    "duration": 0.04616719583333406
                },
                {
                    "name": "F2",
                    "midi": 41,
                    "time": 34.84316666666675,
                    "velocity": 0.3228346456692913,
                    "duration": 0.04616719583333406
                },
                {
                    "name": "E2",
                    "midi": 40,
                    "time": 34.88933386250008,
                    "velocity": 0.31496062992125984,
                    "duration": 0.04616719583333406
                },
                {
                    "name": "D#2",
                    "midi": 39,
                    "time": 34.93637213750008,
                    "velocity": 0.30708661417322836,
                    "duration": 0.04616719583333406
                },
                {
                    "name": "D2",
                    "midi": 38,
                    "time": 34.98253933333341,
                    "velocity": 0.2992125984251969,
                    "duration": 0.04616719583333406
                },
                {
                    "name": "C#2",
                    "midi": 37,
                    "time": 35.02957760833341,
                    "velocity": 0.29133858267716534,
                    "duration": 0.04616719583333406
                },
                {
                    "name": "C2",
                    "midi": 36,
                    "time": 35.075744804166746,
                    "velocity": 0.28346456692913385,
                    "duration": 0.04616719583333406
                },
                {
                    "name": "B1",
                    "midi": 35,
                    "time": 35.12191200000008,
                    "velocity": 0.2755905511811024,
                    "duration": 0.047038274999998464
                },
                {
                    "name": "C2",
                    "midi": 36,
                    "time": 35.16895027500008,
                    "velocity": 0.28346456692913385,
                    "duration": 0.04616719583333406
                },
                {
                    "name": "C#2",
                    "midi": 37,
                    "time": 35.21511747083341,
                    "velocity": 0.28346456692913385,
                    "duration": 0.04616719583333406
                },
                {
                    "name": "D2",
                    "midi": 38,
                    "time": 35.26128466666675,
                    "velocity": 0.2992125984251969,
                    "duration": 0.04616719583333406
                },
                {
                    "name": "D#2",
                    "midi": 39,
                    "time": 35.30745186250008,
                    "velocity": 0.30708661417322836,
                    "duration": 0.04616719583333406
                },
                {
                    "name": "E2",
                    "midi": 40,
                    "time": 35.35449013750008,
                    "velocity": 0.31496062992125984,
                    "duration": 0.04616719583333406
                },
                {
                    "name": "F2",
                    "midi": 41,
                    "time": 35.40065733333341,
                    "velocity": 0.3228346456692913,
                    "duration": 0.04616719583333406
                },
                {
                    "name": "F#2",
                    "midi": 42,
                    "time": 35.44769560833341,
                    "velocity": 0.33858267716535434,
                    "duration": 0.04616719583333406
                },
                {
                    "name": "G2",
                    "midi": 43,
                    "time": 35.493862804166746,
                    "velocity": 0.3464566929133858,
                    "duration": 0.04616719583333406
                },
                {
                    "name": "G#2",
                    "midi": 44,
                    "time": 35.54003000000008,
                    "velocity": 0.3543307086614173,
                    "duration": 0.04616719583333406
                },
                {
                    "name": "G2",
                    "midi": 43,
                    "time": 35.58706827500008,
                    "velocity": 0.3464566929133858,
                    "duration": 0.04616719583333406
                },
                {
                    "name": "F#2",
                    "midi": 42,
                    "time": 35.63323547083341,
                    "velocity": 0.33858267716535434,
                    "duration": 0.04616719583333406
                },
                {
                    "name": "F2",
                    "midi": 41,
                    "time": 35.68027374583341,
                    "velocity": 0.3228346456692913,
                    "duration": 0.04616719583333406
                },
                {
                    "name": "E2",
                    "midi": 40,
                    "time": 35.726440941666745,
                    "velocity": 0.31496062992125984,
                    "duration": 0.04616719583333406
                },
                {
                    "name": "D#2",
                    "midi": 39,
                    "time": 35.77260813750008,
                    "velocity": 0.30708661417322836,
                    "duration": 0.04616719583333406
                },
                {
                    "name": "D2",
                    "midi": 38,
                    "time": 35.81964641250008,
                    "velocity": 0.2992125984251969,
                    "duration": 0.04616719583333406
                },
                {
                    "name": "C#2",
                    "midi": 37,
                    "time": 35.86581360833341,
                    "velocity": 0.29133858267716534,
                    "duration": 0.04616719583333406
                },
                {
                    "name": "C2",
                    "midi": 36,
                    "time": 35.91285188333341,
                    "velocity": 0.28346456692913385,
                    "duration": 0.04616719583333406
                },
                {
                    "name": "B1",
                    "midi": 35,
                    "time": 35.95814800000008,
                    "velocity": 0.3937007874015748,
                    "duration": 0.20905899999999633
                },
                {
                    "name": "G2",
                    "midi": 43,
                    "time": 36.585325000000076,
                    "velocity": 0.3937007874015748,
                    "duration": 0.20905900000000344
                },
                {
                    "name": "C2",
                    "midi": 36,
                    "time": 38.46685600000008,
                    "velocity": 0.5118110236220472,
                    "duration": 0.20905899999999633
                },
                {
                    "name": "C3",
                    "midi": 48,
                    "time": 38.571385500000076,
                    "velocity": 0.5196850393700787,
                    "duration": 0.10452949999999817
                },
                {
                    "name": "G2",
                    "midi": 43,
                    "time": 38.675915000000074,
                    "velocity": 0.5354330708661418,
                    "duration": 0.20905899999999633
                },
                {
                    "name": "G3",
                    "midi": 55,
                    "time": 38.78044450000007,
                    "velocity": 0.5590551181102362,
                    "duration": 0.10452949999999817
                },
                {
                    "name": "F2",
                    "midi": 41,
                    "time": 38.88497400000007,
                    "velocity": 0.5669291338582677,
                    "duration": 0.20905899999999633
                },
                {
                    "name": "F3",
                    "midi": 53,
                    "time": 38.98950350000007,
                    "velocity": 0.5748031496062992,
                    "duration": 0.10452949999999817
                },
                {
                    "name": "D#2",
                    "midi": 39,
                    "time": 39.09403300000007,
                    "velocity": 0.5984251968503937,
                    "duration": 0.20905899999999633
                },
                {
                    "name": "D#3",
                    "midi": 51,
                    "time": 39.198562500000065,
                    "velocity": 0.6141732283464567,
                    "duration": 0.10452949999999817
                },
                {
                    "name": "D2",
                    "midi": 38,
                    "time": 39.30309200000006,
                    "velocity": 0.6377952755905512,
                    "duration": 0.20905899999999633
                },
                {
                    "name": "D3",
                    "midi": 50,
                    "time": 39.40762150000006,
                    "velocity": 0.6456692913385826,
                    "duration": 0.10452949999999817
                },
                {
                    "name": "C2",
                    "midi": 36,
                    "time": 39.51215100000006,
                    "velocity": 0.8031496062992126,
                    "duration": 0.20905899999999633
                },
                {
                    "name": "C3",
                    "midi": 48,
                    "time": 39.61668050000006,
                    "velocity": 0.5984251968503937,
                    "duration": 0.10452949999999817
                },
                {
                    "name": "C4",
                    "midi": 60,
                    "time": 39.721210000000056,
                    "velocity": 0.7165354330708661,
                    "duration": 0.10452949999999817
                },
                {
                    "name": "G3",
                    "midi": 55,
                    "time": 39.721210000000056,
                    "velocity": 0.6062992125984252,
                    "duration": 0.10452949999999817
                },
                {
                    "name": "D#3",
                    "midi": 51,
                    "time": 39.721210000000056,
                    "velocity": 0.6062992125984252,
                    "duration": 0.10452949999999817
                },
                {
                    "name": "C3",
                    "midi": 48,
                    "time": 39.721210000000056,
                    "velocity": 0.6062992125984252,
                    "duration": 0.10452949999999817
                },
                {
                    "name": "C4",
                    "midi": 60,
                    "time": 40.03479850000006,
                    "velocity": 0.5669291338582677,
                    "duration": 0.10452949999999817
                },
                {
                    "name": "G3",
                    "midi": 55,
                    "time": 40.03479850000006,
                    "velocity": 0.47244094488188976,
                    "duration": 0.10452949999999817
                },
                {
                    "name": "D#3",
                    "midi": 51,
                    "time": 40.03479850000006,
                    "velocity": 0.47244094488188976,
                    "duration": 0.10452949999999817
                },
                {
                    "name": "C3",
                    "midi": 48,
                    "time": 40.03479850000006,
                    "velocity": 0.47244094488188976,
                    "duration": 0.10452949999999817
                },
                {
                    "name": "C4",
                    "midi": 60,
                    "time": 40.139328000000056,
                    "velocity": 0.6299212598425197,
                    "duration": 0.10452949999999817
                },
                {
                    "name": "G3",
                    "midi": 55,
                    "time": 40.139328000000056,
                    "velocity": 0.5275590551181102,
                    "duration": 0.10452949999999817
                },
                {
                    "name": "D#3",
                    "midi": 51,
                    "time": 40.139328000000056,
                    "velocity": 0.5275590551181102,
                    "duration": 0.10452949999999817
                },
                {
                    "name": "C3",
                    "midi": 48,
                    "time": 40.139328000000056,
                    "velocity": 0.5275590551181102,
                    "duration": 0.10452949999999817
                },
                {
                    "name": "C3",
                    "midi": 48,
                    "time": 40.661975500000054,
                    "velocity": 0.4251968503937008,
                    "duration": 0.10452949999999817
                },
                {
                    "name": "D#3",
                    "midi": 51,
                    "time": 40.661975500000054,
                    "velocity": 0.4251968503937008,
                    "duration": 0.10452949999999817
                },
                {
                    "name": "C4",
                    "midi": 60,
                    "time": 40.661975500000054,
                    "velocity": 0.5039370078740157,
                    "duration": 0.10452949999999817
                },
                {
                    "name": "G3",
                    "midi": 55,
                    "time": 40.661975500000054,
                    "velocity": 0.4251968503937008,
                    "duration": 0.10452949999999817
                },
                {
                    "name": "C4",
                    "midi": 60,
                    "time": 40.76650500000005,
                    "velocity": 0.5748031496062992,
                    "duration": 0.10452949999999817
                },
                {
                    "name": "G3",
                    "midi": 55,
                    "time": 40.76650500000005,
                    "velocity": 0.49606299212598426,
                    "duration": 0.10452949999999817
                },
                {
                    "name": "D#3",
                    "midi": 51,
                    "time": 40.76650500000005,
                    "velocity": 0.49606299212598426,
                    "duration": 0.10452949999999817
                },
                {
                    "name": "C3",
                    "midi": 48,
                    "time": 40.76650500000005,
                    "velocity": 0.49606299212598426,
                    "duration": 0.10452949999999817
                },
                {
                    "name": "C3",
                    "midi": 48,
                    "time": 41.28915250000005,
                    "velocity": 0.41732283464566927,
                    "duration": 0.10452949999999817
                },
                {
                    "name": "D#3",
                    "midi": 51,
                    "time": 41.28915250000005,
                    "velocity": 0.41732283464566927,
                    "duration": 0.10452949999999817
                },
                {
                    "name": "G3",
                    "midi": 55,
                    "time": 41.28915250000005,
                    "velocity": 0.41732283464566927,
                    "duration": 0.10452949999999817
                },
                {
                    "name": "C4",
                    "midi": 60,
                    "time": 41.28915250000005,
                    "velocity": 0.49606299212598426,
                    "duration": 0.10452949999999817
                },
                {
                    "name": "C4",
                    "midi": 60,
                    "time": 41.39368200000005,
                    "velocity": 0.5669291338582677,
                    "duration": 0.10452949999999817
                },
                {
                    "name": "G3",
                    "midi": 55,
                    "time": 41.39368200000005,
                    "velocity": 0.47244094488188976,
                    "duration": 0.10452949999999817
                },
                {
                    "name": "D#3",
                    "midi": 51,
                    "time": 41.39368200000005,
                    "velocity": 0.47244094488188976,
                    "duration": 0.10452949999999817
                },
                {
                    "name": "C3",
                    "midi": 48,
                    "time": 41.39368200000005,
                    "velocity": 0.47244094488188976,
                    "duration": 0.10452949999999817
                },
                {
                    "name": "C3",
                    "midi": 48,
                    "time": 41.602741000000044,
                    "velocity": 0.41732283464566927,
                    "duration": 0.10452949999999817
                },
                {
                    "name": "D#3",
                    "midi": 51,
                    "time": 41.602741000000044,
                    "velocity": 0.41732283464566927,
                    "duration": 0.10452949999999817
                },
                {
                    "name": "G3",
                    "midi": 55,
                    "time": 41.602741000000044,
                    "velocity": 0.41732283464566927,
                    "duration": 0.10452949999999817
                },
                {
                    "name": "B3",
                    "midi": 59,
                    "time": 41.602741000000044,
                    "velocity": 0.49606299212598426,
                    "duration": 0.10452949999999817
                },
                {
                    "name": "C4",
                    "midi": 60,
                    "time": 41.81180000000004,
                    "velocity": 0.5669291338582677,
                    "duration": 0.10452949999999817
                },
                {
                    "name": "G3",
                    "midi": 55,
                    "time": 41.81180000000004,
                    "velocity": 0.47244094488188976,
                    "duration": 0.10452949999999817
                },
                {
                    "name": "D#3",
                    "midi": 51,
                    "time": 41.81180000000004,
                    "velocity": 0.47244094488188976,
                    "duration": 0.10452949999999817
                },
                {
                    "name": "C3",
                    "midi": 48,
                    "time": 41.81180000000004,
                    "velocity": 0.47244094488188976,
                    "duration": 0.10452949999999817
                },
                {
                    "name": "B1",
                    "midi": 35,
                    "time": 42.22991800000004,
                    "velocity": 0.4330708661417323,
                    "duration": 0.20905899999999633
                },
                {
                    "name": "C#2",
                    "midi": 37,
                    "time": 42.22991800000004,
                    "velocity": 0.5118110236220472,
                    "duration": 0.20905899999999633
                },
                {
                    "name": "C#3",
                    "midi": 49,
                    "time": 42.33444750000004,
                    "velocity": 0.5196850393700787,
                    "duration": 0.10452949999999817
                },
                {
                    "name": "G#2",
                    "midi": 44,
                    "time": 42.43897700000004,
                    "velocity": 0.5354330708661418,
                    "duration": 0.20905899999999633
                },
                {
                    "name": "G#3",
                    "midi": 56,
                    "time": 42.543506500000035,
                    "velocity": 0.5590551181102362,
                    "duration": 0.10452949999999817
                },
                {
                    "name": "F#2",
                    "midi": 42,
                    "time": 42.64803600000003,
                    "velocity": 0.5669291338582677,
                    "duration": 0.20905899999999633
                },
                {
                    "name": "F#3",
                    "midi": 54,
                    "time": 42.75256550000003,
                    "velocity": 0.5748031496062992,
                    "duration": 0.10452949999999817
                },
                {
                    "name": "F2",
                    "midi": 41,
                    "time": 42.85709500000003,
                    "velocity": 0.5984251968503937,
                    "duration": 0.20905899999999633
                },
                {
                    "name": "F3",
                    "midi": 53,
                    "time": 42.96162450000003,
                    "velocity": 0.6141732283464567,
                    "duration": 0.10452949999999817
                },
                {
                    "name": "D#2",
                    "midi": 39,
                    "time": 43.066154000000026,
                    "velocity": 0.6377952755905512,
                    "duration": 0.20905899999999633
                },
                {
                    "name": "D#3",
                    "midi": 51,
                    "time": 43.170683500000024,
                    "velocity": 0.6456692913385826,
                    "duration": 0.10452949999999817
                },
                {
                    "name": "C#2",
                    "midi": 37,
                    "time": 43.27521300000002,
                    "velocity": 0.8031496062992126,
                    "duration": 0.18292662500000034
                },
                {
                    "name": "C#3",
                    "midi": 49,
                    "time": 43.37974250000002,
                    "velocity": 0.5984251968503937,
                    "duration": 0.07839712500000218
                },
                {
                    "name": "B2",
                    "midi": 47,
                    "time": 43.484272000000026,
                    "velocity": 0.6062992125984252,
                    "duration": 0.10452949999999817
                },
                {
                    "name": "F3",
                    "midi": 53,
                    "time": 43.484272000000026,
                    "velocity": 0.6062992125984252,
                    "duration": 0.10452949999999817
                },
                {
                    "name": "G#3",
                    "midi": 56,
                    "time": 43.484272000000026,
                    "velocity": 0.6062992125984252,
                    "duration": 0.10452949999999817
                },
                {
                    "name": "C#4",
                    "midi": 61,
                    "time": 43.484272000000026,
                    "velocity": 0.7165354330708661,
                    "duration": 0.10452949999999817
                },
                {
                    "name": "G#3",
                    "midi": 56,
                    "time": 43.79786050000003,
                    "velocity": 0.5669291338582677,
                    "duration": 0.10452949999999817
                },
                {
                    "name": "F3",
                    "midi": 53,
                    "time": 43.79786050000003,
                    "velocity": 0.47244094488188976,
                    "duration": 0.10452949999999817
                },
                {
                    "name": "B2",
                    "midi": 47,
                    "time": 43.79786050000003,
                    "velocity": 0.47244094488188976,
                    "duration": 0.10452949999999817
                },
                {
                    "name": "G#3",
                    "midi": 56,
                    "time": 43.902390000000025,
                    "velocity": 0.6299212598425197,
                    "duration": 0.10452949999999817
                },
                {
                    "name": "F3",
                    "midi": 53,
                    "time": 43.902390000000025,
                    "velocity": 0.5275590551181102,
                    "duration": 0.10452949999999817
                },
                {
                    "name": "B2",
                    "midi": 47,
                    "time": 43.902390000000025,
                    "velocity": 0.5275590551181102,
                    "duration": 0.10452949999999817
                },
                {
                    "name": "F3",
                    "midi": 53,
                    "time": 44.42503750000002,
                    "velocity": 0.4251968503937008,
                    "duration": 0.10452949999999817
                },
                {
                    "name": "C#4",
                    "midi": 61,
                    "time": 44.42503750000002,
                    "velocity": 0.5039370078740157,
                    "duration": 0.10452949999999817
                },
                {
                    "name": "G#3",
                    "midi": 56,
                    "time": 44.42503750000002,
                    "velocity": 0.4251968503937008,
                    "duration": 0.10452949999999817
                },
                {
                    "name": "C#4",
                    "midi": 61,
                    "time": 44.52956700000002,
                    "velocity": 0.5748031496062992,
                    "duration": 0.10452949999999817
                },
                {
                    "name": "G#3",
                    "midi": 56,
                    "time": 44.52956700000002,
                    "velocity": 0.49606299212598426,
                    "duration": 0.10452949999999817
                },
                {
                    "name": "F3",
                    "midi": 53,
                    "time": 44.52956700000002,
                    "velocity": 0.49606299212598426,
                    "duration": 0.10452949999999817
                },
                {
                    "name": "B2",
                    "midi": 47,
                    "time": 45.05221450000002,
                    "velocity": 0.41732283464566927,
                    "duration": 0.10452949999999817
                },
                {
                    "name": "F3",
                    "midi": 53,
                    "time": 45.05221450000002,
                    "velocity": 0.41732283464566927,
                    "duration": 0.10452949999999817
                },
                {
                    "name": "G#3",
                    "midi": 56,
                    "time": 45.05221450000002,
                    "velocity": 0.49606299212598426,
                    "duration": 0.10452949999999817
                },
                {
                    "name": "G#3",
                    "midi": 56,
                    "time": 45.15674400000002,
                    "velocity": 0.5669291338582677,
                    "duration": 0.10452949999999817
                },
                {
                    "name": "F3",
                    "midi": 53,
                    "time": 45.15674400000002,
                    "velocity": 0.47244094488188976,
                    "duration": 0.10452949999999817
                },
                {
                    "name": "B2",
                    "midi": 47,
                    "time": 45.15674400000002,
                    "velocity": 0.47244094488188976,
                    "duration": 0.10452949999999817
                },
                {
                    "name": "B2",
                    "midi": 47,
                    "time": 45.365803000000014,
                    "velocity": 0.41732283464566927,
                    "duration": 0.10452949999999817
                },
                {
                    "name": "E3",
                    "midi": 52,
                    "time": 45.365803000000014,
                    "velocity": 0.41732283464566927,
                    "duration": 0.10452949999999817
                },
                {
                    "name": "G#3",
                    "midi": 56,
                    "time": 45.365803000000014,
                    "velocity": 0.49606299212598426,
                    "duration": 0.10452949999999817
                },
                {
                    "name": "G#3",
                    "midi": 56,
                    "time": 45.57486200000001,
                    "velocity": 0.5669291338582677,
                    "duration": 0.10452949999999817
                },
                {
                    "name": "F3",
                    "midi": 53,
                    "time": 45.57486200000001,
                    "velocity": 0.47244094488188976,
                    "duration": 0.10452949999999817
                },
                {
                    "name": "B2",
                    "midi": 47,
                    "time": 45.57486200000001,
                    "velocity": 0.47244094488188976,
                    "duration": 0.10452949999999817
                },
                {
                    "name": "A#1",
                    "midi": 34,
                    "time": 46.202039000000006,
                    "velocity": 0.3543307086614173,
                    "duration": 0.10452949999999817
                },
                {
                    "name": "F2",
                    "midi": 41,
                    "time": 46.202039000000006,
                    "velocity": 0.3543307086614173,
                    "duration": 0.10452949999999817
                },
                {
                    "name": "A#2",
                    "midi": 46,
                    "time": 46.202039000000006,
                    "velocity": 0.41732283464566927,
                    "duration": 0.10452949999999817
                },
                {
                    "name": "A#2",
                    "midi": 46,
                    "time": 46.411098,
                    "velocity": 0.2677165354330709,
                    "duration": 0.05226474999999908
                },
                {
                    "name": "C3",
                    "midi": 48,
                    "time": 46.46336275,
                    "velocity": 0.28346456692913385,
                    "duration": 0.05226474999999908
                },
                {
                    "name": "D3",
                    "midi": 50,
                    "time": 46.5156275,
                    "velocity": 0.29133858267716534,
                    "duration": 0.05226474999999908
                },
                {
                    "name": "D#3",
                    "midi": 51,
                    "time": 46.56789225,
                    "velocity": 0.30708661417322836,
                    "duration": 0.05226474999999908
                },
                {
                    "name": "F3",
                    "midi": 53,
                    "time": 46.620157,
                    "velocity": 0.3228346456692913,
                    "duration": 0.10452949999999817
                },
                {
                    "name": "A#1",
                    "midi": 34,
                    "time": 46.829215999999995,
                    "velocity": 0.31496062992125984,
                    "duration": 0.10452949999999817
                },
                {
                    "name": "F#2",
                    "midi": 42,
                    "time": 46.829215999999995,
                    "velocity": 0.31496062992125984,
                    "duration": 0.10452949999999817
                },
                {
                    "name": "A#2",
                    "midi": 46,
                    "time": 46.829215999999995,
                    "velocity": 0.3700787401574803,
                    "duration": 0.10452949999999817
                },
                {
                    "name": "A#1",
                    "midi": 34,
                    "time": 47.03827499999999,
                    "velocity": 0.33070866141732286,
                    "duration": 0.10452949999999817
                },
                {
                    "name": "D#2",
                    "midi": 39,
                    "time": 47.03827499999999,
                    "velocity": 0.33070866141732286,
                    "duration": 0.10452949999999817
                },
                {
                    "name": "A#2",
                    "midi": 46,
                    "time": 47.03827499999999,
                    "velocity": 0.3937007874015748,
                    "duration": 0.10452949999999817
                },
                {
                    "name": "A#1",
                    "midi": 34,
                    "time": 47.24733399999999,
                    "velocity": 0.3543307086614173,
                    "duration": 0.10452949999999817
                },
                {
                    "name": "F2",
                    "midi": 41,
                    "time": 47.24733399999999,
                    "velocity": 0.3543307086614173,
                    "duration": 0.10452949999999817
                },
                {
                    "name": "A#2",
                    "midi": 46,
                    "time": 47.24733399999999,
                    "velocity": 0.4251968503937008,
                    "duration": 0.10452949999999817
                },
                {
                    "name": "F3",
                    "midi": 53,
                    "time": 47.456392999999984,
                    "velocity": 0.28346456692913385,
                    "duration": 0.05226474999999908
                },
                {
                    "name": "D#3",
                    "midi": 51,
                    "time": 47.50865774999998,
                    "velocity": 0.28346456692913385,
                    "duration": 0.05226474999999908
                },
                {
                    "name": "D3",
                    "midi": 50,
                    "time": 47.56092249999998,
                    "velocity": 0.2992125984251969,
                    "duration": 0.05226474999999908
                },
                {
                    "name": "C3",
                    "midi": 48,
                    "time": 47.61318724999998,
                    "velocity": 0.3228346456692913,
                    "duration": 0.05226474999999908
                },
                {
                    "name": "A#2",
                    "midi": 46,
                    "time": 47.66545199999998,
                    "velocity": 0.33858267716535434,
                    "duration": 0.10452949999999817
                },
                {
                    "name": "A1",
                    "midi": 33,
                    "time": 47.87451099999998,
                    "velocity": 0.3543307086614173,
                    "duration": 0.10452949999999817
                },
                {
                    "name": "F#2",
                    "midi": 42,
                    "time": 47.87451099999998,
                    "velocity": 0.3543307086614173,
                    "duration": 0.10452949999999817
                },
                {
                    "name": "A2",
                    "midi": 45,
                    "time": 47.87451099999998,
                    "velocity": 0.4251968503937008,
                    "duration": 0.10452949999999817
                },
                {
                    "name": "A1",
                    "midi": 33,
                    "time": 48.08356999999997,
                    "velocity": 0.3700787401574803,
                    "duration": 0.10452949999999817
                },
                {
                    "name": "F#2",
                    "midi": 42,
                    "time": 48.08356999999997,
                    "velocity": 0.3700787401574803,
                    "duration": 0.10452949999999817
                },
                {
                    "name": "A2",
                    "midi": 45,
                    "time": 48.08356999999997,
                    "velocity": 0.4409448818897638,
                    "duration": 0.10452949999999817
                },
                {
                    "name": "G#1",
                    "midi": 32,
                    "time": 48.29262899999997,
                    "velocity": 0.4094488188976378,
                    "duration": 0.10452949999999817
                },
                {
                    "name": "E2",
                    "midi": 40,
                    "time": 48.29262899999997,
                    "velocity": 0.4094488188976378,
                    "duration": 0.10452949999999817
                },
                {
                    "name": "G#2",
                    "midi": 44,
                    "time": 48.29262899999997,
                    "velocity": 0.49606299212598426,
                    "duration": 0.10452949999999817
                },
                {
                    "name": "E3",
                    "midi": 52,
                    "time": 48.501687999999966,
                    "velocity": 0.31496062992125984,
                    "duration": 0.05226474999999908
                },
                {
                    "name": "F#3",
                    "midi": 54,
                    "time": 48.553952749999965,
                    "velocity": 0.3228346456692913,
                    "duration": 0.05226474999999908
                },
                {
                    "name": "G#3",
                    "midi": 56,
                    "time": 48.606217499999964,
                    "velocity": 0.33858267716535434,
                    "duration": 0.05226474999999908
                },
                {
                    "name": "A3",
                    "midi": 57,
                    "time": 48.65848224999996,
                    "velocity": 0.36220472440944884,
                    "duration": 0.05226474999999908
                },
                {
                    "name": "B3",
                    "midi": 59,
                    "time": 48.71074699999996,
                    "velocity": 0.3779527559055118,
                    "duration": 0.10452949999999817
                },
                {
                    "name": "A1",
                    "midi": 33,
                    "time": 48.91980599999996,
                    "velocity": 0.4015748031496063,
                    "duration": 0.10452949999999817
                },
                {
                    "name": "F#2",
                    "midi": 42,
                    "time": 48.91980599999996,
                    "velocity": 0.4015748031496063,
                    "duration": 0.10452949999999817
                },
                {
                    "name": "A2",
                    "midi": 45,
                    "time": 48.91980599999996,
                    "velocity": 0.48031496062992124,
                    "duration": 0.10452949999999817
                },
                {
                    "name": "A1",
                    "midi": 33,
                    "time": 49.128864999999955,
                    "velocity": 0.4251968503937008,
                    "duration": 0.10452949999999817
                },
                {
                    "name": "F#2",
                    "midi": 42,
                    "time": 49.128864999999955,
                    "velocity": 0.4251968503937008,
                    "duration": 0.10452949999999817
                },
                {
                    "name": "A2",
                    "midi": 45,
                    "time": 49.128864999999955,
                    "velocity": 0.49606299212598426,
                    "duration": 0.10452949999999817
                },
                {
                    "name": "G#1",
                    "midi": 32,
                    "time": 49.33792399999995,
                    "velocity": 0.4566929133858268,
                    "duration": 0.10452949999999817
                },
                {
                    "name": "E2",
                    "midi": 40,
                    "time": 49.33792399999995,
                    "velocity": 0.4566929133858268,
                    "duration": 0.10452949999999817
                },
                {
                    "name": "G#2",
                    "midi": 44,
                    "time": 49.33792399999995,
                    "velocity": 0.5511811023622047,
                    "duration": 0.10452949999999817
                },
                {
                    "name": "B3",
                    "midi": 59,
                    "time": 49.54698299999995,
                    "velocity": 0.33858267716535434,
                    "duration": 0.05226474999999908
                },
                {
                    "name": "A3",
                    "midi": 57,
                    "time": 49.59924774999995,
                    "velocity": 0.3543307086614173,
                    "duration": 0.05226474999999908
                },
                {
                    "name": "G#3",
                    "midi": 56,
                    "time": 49.651512499999946,
                    "velocity": 0.3700787401574803,
                    "duration": 0.05226474999999908
                },
                {
                    "name": "F#3",
                    "midi": 54,
                    "time": 49.703777249999945,
                    "velocity": 0.3937007874015748,
                    "duration": 0.05226474999999908
                },
                {
                    "name": "E3",
                    "midi": 52,
                    "time": 49.756041999999944,
                    "velocity": 0.41732283464566927,
                    "duration": 0.10452949999999817
                },
                {
                    "name": "G1",
                    "midi": 31,
                    "time": 49.96510099999994,
                    "velocity": 0.4330708661417323,
                    "duration": 0.10452949999999817
                },
                {
                    "name": "E2",
                    "midi": 40,
                    "time": 49.96510099999994,
                    "velocity": 0.4330708661417323,
                    "duration": 0.10452949999999817
                },
                {
                    "name": "G2",
                    "midi": 43,
                    "time": 49.96510099999994,
                    "velocity": 0.5118110236220472,
                    "duration": 0.10452949999999817
                },
                {
                    "name": "G1",
                    "midi": 31,
                    "time": 50.17415999999994,
                    "velocity": 0.44881889763779526,
                    "duration": 0.10452949999999817
                },
                {
                    "name": "E2",
                    "midi": 40,
                    "time": 50.17415999999994,
                    "velocity": 0.44881889763779526,
                    "duration": 0.10452949999999817
                },
                {
                    "name": "G2",
                    "midi": 43,
                    "time": 50.17415999999994,
                    "velocity": 0.5433070866141733,
                    "duration": 0.10452949999999817
                },
                {
                    "name": "F#1",
                    "midi": 30,
                    "time": 50.38321899999993,
                    "velocity": 0.49606299212598426,
                    "duration": 0.10452949999999817
                },
                {
                    "name": "D2",
                    "midi": 38,
                    "time": 50.38321899999993,
                    "velocity": 0.49606299212598426,
                    "duration": 0.10452949999999817
                },
                {
                    "name": "F#2",
                    "midi": 42,
                    "time": 50.38321899999993,
                    "velocity": 0.5905511811023622,
                    "duration": 0.10452949999999817
                },
                {
                    "name": "D3",
                    "midi": 50,
                    "time": 50.59227799999993,
                    "velocity": 0.3464566929133858,
                    "duration": 0.05226474999999908
                },
                {
                    "name": "E3",
                    "midi": 52,
                    "time": 50.64454274999993,
                    "velocity": 0.36220472440944884,
                    "duration": 0.05226474999999908
                },
                {
                    "name": "F#3",
                    "midi": 54,
                    "time": 50.69680749999993,
                    "velocity": 0.3779527559055118,
                    "duration": 0.05226474999999908
                },
                {
                    "name": "G3",
                    "midi": 55,
                    "time": 50.74907224999993,
                    "velocity": 0.4094488188976378,
                    "duration": 0.05226474999999908
                },
                {
                    "name": "A3",
                    "midi": 57,
                    "time": 50.801336999999926,
                    "velocity": 0.4251968503937008,
                    "duration": 0.10452949999999817
                },
                {
                    "name": "F1",
                    "midi": 29,
                    "time": 51.01039599999992,
                    "velocity": 0.5039370078740157,
                    "duration": 0.10452949999999817
                },
                {
                    "name": "D2",
                    "midi": 38,
                    "time": 51.01039599999992,
                    "velocity": 0.5039370078740157,
                    "duration": 0.10452949999999817
                },
                {
                    "name": "F2",
                    "midi": 41,
                    "time": 51.01039599999992,
                    "velocity": 0.6062992125984252,
                    "duration": 0.10452949999999817
                },
                {
                    "name": "D3",
                    "midi": 50,
                    "time": 51.21945499999992,
                    "velocity": 0.3700787401574803,
                    "duration": 0.05226474999999908
                },
                {
                    "name": "F3",
                    "midi": 53,
                    "time": 51.27171974999992,
                    "velocity": 0.3858267716535433,
                    "duration": 0.05226474999999908
                },
                {
                    "name": "G#3",
                    "midi": 56,
                    "time": 51.323984499999916,
                    "velocity": 0.4015748031496063,
                    "duration": 0.05226474999999908
                },
                {
                    "name": "A#3",
                    "midi": 58,
                    "time": 51.376249249999915,
                    "velocity": 0.41732283464566927,
                    "duration": 0.05226474999999908
                },
                {
                    "name": "B3",
                    "midi": 59,
                    "time": 51.428513999999915,
                    "velocity": 0.47244094488188976,
                    "duration": 0.10452949999999817
                },
                {
                    "name": "D4",
                    "midi": 62,
                    "time": 51.63757299999991,
                    "velocity": 0.3858267716535433,
                    "duration": 0.05226474999999908
                },
                {
                    "name": "F4",
                    "midi": 65,
                    "time": 51.68983774999991,
                    "velocity": 0.4015748031496063,
                    "duration": 0.05226474999999908
                },
                {
                    "name": "G#4",
                    "midi": 68,
                    "time": 51.74210249999991,
                    "velocity": 0.41732283464566927,
                    "duration": 0.05226474999999908
                },
                {
                    "name": "A#4",
                    "midi": 70,
                    "time": 51.79436724999991,
                    "velocity": 0.4251968503937008,
                    "duration": 0.05226474999999908
                },
                {
                    "name": "B4",
                    "midi": 71,
                    "time": 51.84663199999991,
                    "velocity": 0.49606299212598426,
                    "duration": 0.10452949999999817
                },
                {
                    "name": "D5",
                    "midi": 74,
                    "time": 52.055690999999904,
                    "velocity": 0.4015748031496063,
                    "duration": 0.05226474999999908
                },
                {
                    "name": "F5",
                    "midi": 77,
                    "time": 52.1079557499999,
                    "velocity": 0.41732283464566927,
                    "duration": 0.05226474999999908
                },
                {
                    "name": "G#5",
                    "midi": 80,
                    "time": 52.1602204999999,
                    "velocity": 0.4251968503937008,
                    "duration": 0.05226474999999908
                },
                {
                    "name": "A#5",
                    "midi": 82,
                    "time": 52.2124852499999,
                    "velocity": 0.44881889763779526,
                    "duration": 0.05226474999999908
                },
                {
                    "name": "B5",
                    "midi": 83,
                    "time": 52.2647499999999,
                    "velocity": 0.5039370078740157,
                    "duration": 0.10452949999999817
                },
                {
                    "name": "F#1",
                    "midi": 30,
                    "time": 52.5783384999999,
                    "velocity": 0.5354330708661418,
                    "duration": 0.10452949999999817
                },
                {
                    "name": "D#2",
                    "midi": 39,
                    "time": 52.5783384999999,
                    "velocity": 0.5354330708661418,
                    "duration": 0.10452949999999817
                },
                {
                    "name": "F#2",
                    "midi": 42,
                    "time": 52.5783384999999,
                    "velocity": 0.6377952755905512,
                    "duration": 0.10452949999999817
                },
                {
                    "name": "F#1",
                    "midi": 30,
                    "time": 52.6828679999999,
                    "velocity": 0.48031496062992124,
                    "duration": 0.10452949999999817
                },
                {
                    "name": "D#2",
                    "midi": 39,
                    "time": 52.6828679999999,
                    "velocity": 0.48031496062992124,
                    "duration": 0.10452949999999817
                },
                {
                    "name": "F#2",
                    "midi": 42,
                    "time": 52.6828679999999,
                    "velocity": 0.5669291338582677,
                    "duration": 0.10452949999999817
                },
                {
                    "name": "B1",
                    "midi": 35,
                    "time": 52.891926999999896,
                    "velocity": 0.5275590551181102,
                    "duration": 0.10452949999999817
                },
                {
                    "name": "F#2",
                    "midi": 42,
                    "time": 52.891926999999896,
                    "velocity": 0.5275590551181102,
                    "duration": 0.10452949999999817
                },
                {
                    "name": "B2",
                    "midi": 47,
                    "time": 52.891926999999896,
                    "velocity": 0.6377952755905512,
                    "duration": 0.10452949999999817
                },
                {
                    "name": "D#2",
                    "midi": 39,
                    "time": 53.2055154999999,
                    "velocity": 0.4881889763779528,
                    "duration": 0.10452949999999817
                },
                {
                    "name": "B2",
                    "midi": 47,
                    "time": 53.2055154999999,
                    "velocity": 0.4881889763779528,
                    "duration": 0.10452949999999817
                },
                {
                    "name": "D#3",
                    "midi": 51,
                    "time": 53.2055154999999,
                    "velocity": 0.5748031496062992,
                    "duration": 0.10452949999999817
                },
                {
                    "name": "D#2",
                    "midi": 39,
                    "time": 53.310044999999896,
                    "velocity": 0.4881889763779528,
                    "duration": 0.10452949999999817
                },
                {
                    "name": "B2",
                    "midi": 47,
                    "time": 53.310044999999896,
                    "velocity": 0.4881889763779528,
                    "duration": 0.10452949999999817
                },
                {
                    "name": "D#3",
                    "midi": 51,
                    "time": 53.310044999999896,
                    "velocity": 0.5748031496062992,
                    "duration": 0.10452949999999817
                },
                {
                    "name": "F#2",
                    "midi": 42,
                    "time": 53.832692499999894,
                    "velocity": 0.4251968503937008,
                    "duration": 0.10452949999999817
                },
                {
                    "name": "B2",
                    "midi": 47,
                    "time": 53.832692499999894,
                    "velocity": 0.4251968503937008,
                    "duration": 0.10452949999999817
                },
                {
                    "name": "F#3",
                    "midi": 54,
                    "time": 53.832692499999894,
                    "velocity": 0.5196850393700787,
                    "duration": 0.10452949999999817
                },
                {
                    "name": "F#3",
                    "midi": 54,
                    "time": 53.93722199999989,
                    "velocity": 0.5905511811023622,
                    "duration": 0.10452949999999817
                },
                {
                    "name": "B2",
                    "midi": 47,
                    "time": 53.93722199999989,
                    "velocity": 0.49606299212598426,
                    "duration": 0.10452949999999817
                },
                {
                    "name": "F#2",
                    "midi": 42,
                    "time": 53.93722199999989,
                    "velocity": 0.49606299212598426,
                    "duration": 0.10452949999999817
                },
                {
                    "name": "F2",
                    "midi": 41,
                    "time": 54.14628099999989,
                    "velocity": 0.4251968503937008,
                    "duration": 0.10452949999999817
                },
                {
                    "name": "B2",
                    "midi": 47,
                    "time": 54.14628099999989,
                    "velocity": 0.4251968503937008,
                    "duration": 0.10452949999999817
                },
                {
                    "name": "F3",
                    "midi": 53,
                    "time": 54.14628099999989,
                    "velocity": 0.5196850393700787,
                    "duration": 0.10452949999999817
                },
                {
                    "name": "F#3",
                    "midi": 54,
                    "time": 54.355339999999885,
                    "velocity": 0.5905511811023622,
                    "duration": 0.10452949999999817
                },
                {
                    "name": "B2",
                    "midi": 47,
                    "time": 54.355339999999885,
                    "velocity": 0.49606299212598426,
                    "duration": 0.10452949999999817
                },
                {
                    "name": "F#2",
                    "midi": 42,
                    "time": 54.355339999999885,
                    "velocity": 0.49606299212598426,
                    "duration": 0.10452949999999817
                },
                {
                    "name": "G#2",
                    "midi": 44,
                    "time": 54.773457999999884,
                    "velocity": 0.47244094488188976,
                    "duration": 0.10452949999999817
                },
                {
                    "name": "D#3",
                    "midi": 51,
                    "time": 54.773457999999884,
                    "velocity": 0.47244094488188976,
                    "duration": 0.10452949999999817
                },
                {
                    "name": "G#3",
                    "midi": 56,
                    "time": 54.773457999999884,
                    "velocity": 0.5275590551181102,
                    "duration": 0.10452949999999817
                },
                {
                    "name": "D3",
                    "midi": 50,
                    "time": 55.087046499999886,
                    "velocity": 0.5118110236220472,
                    "duration": 0.10452949999999817
                },
                {
                    "name": "D4",
                    "midi": 62,
                    "time": 55.087046499999886,
                    "velocity": 0.6141732283464567,
                    "duration": 0.10452949999999817
                },
                {
                    "name": "D#3",
                    "midi": 51,
                    "time": 55.191575999999884,
                    "velocity": 0.4566929133858268,
                    "duration": 0.10452949999999817
                },
                {
                    "name": "D#4",
                    "midi": 63,
                    "time": 55.191575999999884,
                    "velocity": 0.5511811023622047,
                    "duration": 0.10452949999999817
                },
                {
                    "name": "A2",
                    "midi": 45,
                    "time": 55.40063499999988,
                    "velocity": 0.5039370078740157,
                    "duration": 0.10452949999999817
                },
                {
                    "name": "D#3",
                    "midi": 51,
                    "time": 55.40063499999988,
                    "velocity": 0.5039370078740157,
                    "duration": 0.10452949999999817
                },
                {
                    "name": "F#3",
                    "midi": 54,
                    "time": 55.40063499999988,
                    "velocity": 0.5039370078740157,
                    "duration": 0.10452949999999817
                },
                {
                    "name": "A3",
                    "midi": 57,
                    "time": 55.40063499999988,
                    "velocity": 0.6062992125984252,
                    "duration": 0.10452949999999817
                },
                {
                    "name": "D3",
                    "midi": 50,
                    "time": 55.71422349999988,
                    "velocity": 0.4645669291338583,
                    "duration": 0.10452949999999817
                },
                {
                    "name": "D4",
                    "midi": 62,
                    "time": 55.71422349999988,
                    "velocity": 0.5590551181102362,
                    "duration": 0.10452949999999817
                },
                {
                    "name": "D#3",
                    "midi": 51,
                    "time": 55.81875299999988,
                    "velocity": 0.4645669291338583,
                    "duration": 0.10452949999999817
                },
                {
                    "name": "D#4",
                    "midi": 63,
                    "time": 55.81875299999988,
                    "velocity": 0.5590551181102362,
                    "duration": 0.10452949999999817
                },
                {
                    "name": "A#2",
                    "midi": 46,
                    "time": 56.02781199999988,
                    "velocity": 0.44881889763779526,
                    "duration": 0.10452949999999817
                },
                {
                    "name": "F3",
                    "midi": 53,
                    "time": 56.02781199999988,
                    "velocity": 0.44881889763779526,
                    "duration": 0.10452949999999817
                },
                {
                    "name": "A#3",
                    "midi": 58,
                    "time": 56.02781199999988,
                    "velocity": 0.5039370078740157,
                    "duration": 0.10452949999999817
                },
                {
                    "name": "F2",
                    "midi": 41,
                    "time": 56.23687099999987,
                    "velocity": 0.6062992125984252,
                    "duration": 0.20905899999999633
                },
                {
                    "name": "F3",
                    "midi": 53,
                    "time": 56.34140049999987,
                    "velocity": 0.5905511811023622,
                    "duration": 0.10452949999999817
                },
                {
                    "name": "D#2",
                    "midi": 39,
                    "time": 56.44592999999987,
                    "velocity": 0.5748031496062992,
                    "duration": 0.20905899999999633
                },
                {
                    "name": "D#3",
                    "midi": 51,
                    "time": 56.55045949999987,
                    "velocity": 0.5669291338582677,
                    "duration": 0.10452949999999817
                },
                {
                    "name": "D2",
                    "midi": 38,
                    "time": 56.654988999999865,
                    "velocity": 0.5590551181102362,
                    "duration": 0.20905899999999633
                },
                {
                    "name": "D3",
                    "midi": 50,
                    "time": 56.759518499999864,
                    "velocity": 0.5511811023622047,
                    "duration": 0.10452949999999817
                },
                {
                    "name": "B1",
                    "midi": 35,
                    "time": 56.86404799999986,
                    "velocity": 0.5354330708661418,
                    "duration": 0.20905899999999633
                },
                {
                    "name": "B2",
                    "midi": 47,
                    "time": 56.96857749999986,
                    "velocity": 0.5196850393700787,
                    "duration": 0.10452949999999817
                },
                {
                    "name": "A#1",
                    "midi": 34,
                    "time": 57.07310699999986,
                    "velocity": 0.6220472440944882,
                    "duration": 0.20905899999999633
                },
                {
                    "name": "A#2",
                    "midi": 46,
                    "time": 57.177636499999856,
                    "velocity": 0.49606299212598426,
                    "duration": 0.10452949999999817
                },
                {
                    "name": "D#3",
                    "midi": 51,
                    "time": 57.282165999999854,
                    "velocity": 0.4251968503937008,
                    "duration": 0.10452949999999817
                },
                {
                    "name": "A3",
                    "midi": 57,
                    "time": 57.282165999999854,
                    "velocity": 0.5039370078740157,
                    "duration": 0.10452949999999817
                },
                {
                    "name": "F#3",
                    "midi": 54,
                    "time": 57.282165999999854,
                    "velocity": 0.4251968503937008,
                    "duration": 0.10452949999999817
                },
                {
                    "name": "C3",
                    "midi": 48,
                    "time": 57.282165999999854,
                    "velocity": 0.4251968503937008,
                    "duration": 0.10452949999999817
                },
                {
                    "name": "A#2",
                    "midi": 46,
                    "time": 57.282165999999854,
                    "velocity": 0.4251968503937008,
                    "duration": 0.10452949999999817
                },
                {
                    "name": "D#3",
                    "midi": 51,
                    "time": 57.595754499999856,
                    "velocity": 0.33070866141732286,
                    "duration": 0.10452949999999817
                },
                {
                    "name": "A3",
                    "midi": 57,
                    "time": 57.595754499999856,
                    "velocity": 0.4015748031496063,
                    "duration": 0.10452949999999817
                },
                {
                    "name": "F#3",
                    "midi": 54,
                    "time": 57.595754499999856,
                    "velocity": 0.33070866141732286,
                    "duration": 0.10452949999999817
                },
                {
                    "name": "C3",
                    "midi": 48,
                    "time": 57.595754499999856,
                    "velocity": 0.33070866141732286,
                    "duration": 0.10452949999999817
                },
                {
                    "name": "A#2",
                    "midi": 46,
                    "time": 57.595754499999856,
                    "velocity": 0.33070866141732286,
                    "duration": 0.10452949999999817
                },
                {
                    "name": "D#3",
                    "midi": 51,
                    "time": 57.700283999999854,
                    "velocity": 0.3779527559055118,
                    "duration": 0.10452949999999817
                },
                {
                    "name": "A3",
                    "midi": 57,
                    "time": 57.700283999999854,
                    "velocity": 0.4409448818897638,
                    "duration": 0.10452949999999817
                },
                {
                    "name": "F#3",
                    "midi": 54,
                    "time": 57.700283999999854,
                    "velocity": 0.3779527559055118,
                    "duration": 0.10452949999999817
                },
                {
                    "name": "C3",
                    "midi": 48,
                    "time": 57.700283999999854,
                    "velocity": 0.3779527559055118,
                    "duration": 0.10452949999999817
                },
                {
                    "name": "A#2",
                    "midi": 46,
                    "time": 57.700283999999854,
                    "velocity": 0.3779527559055118,
                    "duration": 0.10452949999999817
                },
                {
                    "name": "D#3",
                    "midi": 51,
                    "time": 58.22293149999985,
                    "velocity": 0.2992125984251969,
                    "duration": 0.10452949999999817
                },
                {
                    "name": "A#2",
                    "midi": 46,
                    "time": 58.22293149999985,
                    "velocity": 0.2992125984251969,
                    "duration": 0.10452949999999817
                },
                {
                    "name": "C3",
                    "midi": 48,
                    "time": 58.22293149999985,
                    "velocity": 0.2992125984251969,
                    "duration": 0.10452949999999817
                },
                {
                    "name": "A3",
                    "midi": 57,
                    "time": 58.22293149999985,
                    "velocity": 0.3543307086614173,
                    "duration": 0.10452949999999817
                },
                {
                    "name": "F#3",
                    "midi": 54,
                    "time": 58.22293149999985,
                    "velocity": 0.2992125984251969,
                    "duration": 0.10452949999999817
                },
                {
                    "name": "D#3",
                    "midi": 51,
                    "time": 58.32746099999985,
                    "velocity": 0.3543307086614173,
                    "duration": 0.10452949999999817
                },
                {
                    "name": "A3",
                    "midi": 57,
                    "time": 58.32746099999985,
                    "velocity": 0.4094488188976378,
                    "duration": 0.10452949999999817
                },
                {
                    "name": "F#3",
                    "midi": 54,
                    "time": 58.32746099999985,
                    "velocity": 0.3543307086614173,
                    "duration": 0.10452949999999817
                },
                {
                    "name": "C3",
                    "midi": 48,
                    "time": 58.32746099999985,
                    "velocity": 0.3543307086614173,
                    "duration": 0.10452949999999817
                },
                {
                    "name": "A#2",
                    "midi": 46,
                    "time": 58.32746099999985,
                    "velocity": 0.3543307086614173,
                    "duration": 0.10452949999999817
                },
                {
                    "name": "A#2",
                    "midi": 46,
                    "time": 58.74557899999985,
                    "velocity": 0.2992125984251969,
                    "duration": 0.05226474999999908
                },
                {
                    "name": "C3",
                    "midi": 48,
                    "time": 58.74557899999985,
                    "velocity": 0.2992125984251969,
                    "duration": 0.05226474999999908
                },
                {
                    "name": "D#3",
                    "midi": 51,
                    "time": 58.74557899999985,
                    "velocity": 0.2992125984251969,
                    "duration": 0.05226474999999908
                },
                {
                    "name": "F#3",
                    "midi": 54,
                    "time": 58.74557899999985,
                    "velocity": 0.2992125984251969,
                    "duration": 0.05226474999999908
                },
                {
                    "name": "A3",
                    "midi": 57,
                    "time": 58.74557899999985,
                    "velocity": 0.3543307086614173,
                    "duration": 0.05226474999999908
                },
                {
                    "name": "A#2",
                    "midi": 46,
                    "time": 58.85010849999985,
                    "velocity": 0.2677165354330709,
                    "duration": 0.05226474999999908
                },
                {
                    "name": "C3",
                    "midi": 48,
                    "time": 58.85010849999985,
                    "velocity": 0.2677165354330709,
                    "duration": 0.05226474999999908
                },
                {
                    "name": "D#3",
                    "midi": 51,
                    "time": 58.85010849999985,
                    "velocity": 0.2677165354330709,
                    "duration": 0.05226474999999908
                },
                {
                    "name": "F#3",
                    "midi": 54,
                    "time": 58.85010849999985,
                    "velocity": 0.2677165354330709,
                    "duration": 0.05226474999999908
                },
                {
                    "name": "A3",
                    "midi": 57,
                    "time": 58.85010849999985,
                    "velocity": 0.31496062992125984,
                    "duration": 0.05226474999999908
                },
                {
                    "name": "A#2",
                    "midi": 46,
                    "time": 58.954637999999846,
                    "velocity": 0.2677165354330709,
                    "duration": 0.05226474999999908
                },
                {
                    "name": "C3",
                    "midi": 48,
                    "time": 58.954637999999846,
                    "velocity": 0.2677165354330709,
                    "duration": 0.05226474999999908
                },
                {
                    "name": "D#3",
                    "midi": 51,
                    "time": 58.954637999999846,
                    "velocity": 0.2677165354330709,
                    "duration": 0.05226474999999908
                },
                {
                    "name": "F#3",
                    "midi": 54,
                    "time": 58.954637999999846,
                    "velocity": 0.2677165354330709,
                    "duration": 0.05226474999999908
                },
                {
                    "name": "A3",
                    "midi": 57,
                    "time": 58.954637999999846,
                    "velocity": 0.31496062992125984,
                    "duration": 0.05226474999999908
                },
                {
                    "name": "A#2",
                    "midi": 46,
                    "time": 59.059167499999845,
                    "velocity": 0.2677165354330709,
                    "duration": 0.05226474999999908
                },
                {
                    "name": "C3",
                    "midi": 48,
                    "time": 59.059167499999845,
                    "velocity": 0.2677165354330709,
                    "duration": 0.05226474999999908
                },
                {
                    "name": "D#3",
                    "midi": 51,
                    "time": 59.059167499999845,
                    "velocity": 0.2677165354330709,
                    "duration": 0.05226474999999908
                },
                {
                    "name": "F#3",
                    "midi": 54,
                    "time": 59.059167499999845,
                    "velocity": 0.2677165354330709,
                    "duration": 0.05226474999999908
                },
                {
                    "name": "A3",
                    "midi": 57,
                    "time": 59.059167499999845,
                    "velocity": 0.31496062992125984,
                    "duration": 0.05226474999999908
                },
                {
                    "name": "A#2",
                    "midi": 46,
                    "time": 59.16369699999984,
                    "velocity": 0.31496062992125984,
                    "duration": 0.10452949999999817
                },
                {
                    "name": "D3",
                    "midi": 50,
                    "time": 59.16369699999984,
                    "velocity": 0.31496062992125984,
                    "duration": 0.10452949999999817
                },
                {
                    "name": "F3",
                    "midi": 53,
                    "time": 59.16369699999984,
                    "velocity": 0.31496062992125984,
                    "duration": 0.10452949999999817
                },
                {
                    "name": "A#3",
                    "midi": 58,
                    "time": 59.16369699999984,
                    "velocity": 0.3779527559055118,
                    "duration": 0.10452949999999817
                },
                {
                    "name": "F2",
                    "midi": 41,
                    "time": 59.37275599999984,
                    "velocity": 0.48031496062992124,
                    "duration": 0.20905900000000344
                },
                {
                    "name": "F3",
                    "midi": 53,
                    "time": 59.37275599999984,
                    "velocity": 0.6062992125984252,
                    "duration": 0.20905900000000344
                },
                {
                    "name": "D#2",
                    "midi": 39,
                    "time": 59.58181499999984,
                    "velocity": 0.4566929133858268,
                    "duration": 0.20905900000000344
                },
                {
                    "name": "D#3",
                    "midi": 51,
                    "time": 59.58181499999984,
                    "velocity": 0.5748031496062992,
                    "duration": 0.20905900000000344
                },
                {
                    "name": "D2",
                    "midi": 38,
                    "time": 59.790873999999846,
                    "velocity": 0.4409448818897638,
                    "duration": 0.20905900000000344
                },
                {
                    "name": "D3",
                    "midi": 50,
                    "time": 59.790873999999846,
                    "velocity": 0.5590551181102362,
                    "duration": 0.20905900000000344
                },
                {
                    "name": "B1",
                    "midi": 35,
                    "time": 59.99993299999985,
                    "velocity": 0.4251968503937008,
                    "duration": 0.20905900000000344
                },
                {
                    "name": "B2",
                    "midi": 47,
                    "time": 59.99993299999985,
                    "velocity": 0.5354330708661418,
                    "duration": 0.20905900000000344
                },
                {
                    "name": "A#1",
                    "midi": 34,
                    "time": 60.20899199999985,
                    "velocity": 0.49606299212598426,
                    "duration": 0.20905900000000344
                },
                {
                    "name": "A#2",
                    "midi": 46,
                    "time": 60.20899199999985,
                    "velocity": 0.6220472440944882,
                    "duration": 0.20905900000000344
                },
                {
                    "name": "D#3",
                    "midi": 51,
                    "time": 60.418050999999856,
                    "velocity": 0.4251968503937008,
                    "duration": 0.10452949999999817
                },
                {
                    "name": "A3",
                    "midi": 57,
                    "time": 60.418050999999856,
                    "velocity": 0.5039370078740157,
                    "duration": 0.10452949999999817
                },
                {
                    "name": "F#3",
                    "midi": 54,
                    "time": 60.418050999999856,
                    "velocity": 0.4251968503937008,
                    "duration": 0.10452949999999817
                },
                {
                    "name": "C3",
                    "midi": 48,
                    "time": 60.418050999999856,
                    "velocity": 0.4251968503937008,
                    "duration": 0.10452949999999817
                },
                {
                    "name": "A#2",
                    "midi": 46,
                    "time": 60.418050999999856,
                    "velocity": 0.4251968503937008,
                    "duration": 0.10452949999999817
                },
                {
                    "name": "D#3",
                    "midi": 51,
                    "time": 60.73163949999986,
                    "velocity": 0.33070866141732286,
                    "duration": 0.10452949999999817
                },
                {
                    "name": "A3",
                    "midi": 57,
                    "time": 60.73163949999986,
                    "velocity": 0.4015748031496063,
                    "duration": 0.10452949999999817
                },
                {
                    "name": "F#3",
                    "midi": 54,
                    "time": 60.73163949999986,
                    "velocity": 0.33070866141732286,
                    "duration": 0.10452949999999817
                },
                {
                    "name": "C3",
                    "midi": 48,
                    "time": 60.73163949999986,
                    "velocity": 0.33070866141732286,
                    "duration": 0.10452949999999817
                },
                {
                    "name": "A#2",
                    "midi": 46,
                    "time": 60.73163949999986,
                    "velocity": 0.33070866141732286,
                    "duration": 0.10452949999999817
                },
                {
                    "name": "D#3",
                    "midi": 51,
                    "time": 60.836168999999856,
                    "velocity": 0.3779527559055118,
                    "duration": 0.10452949999999817
                },
                {
                    "name": "A3",
                    "midi": 57,
                    "time": 60.836168999999856,
                    "velocity": 0.4409448818897638,
                    "duration": 0.10452949999999817
                },
                {
                    "name": "F#3",
                    "midi": 54,
                    "time": 60.836168999999856,
                    "velocity": 0.3779527559055118,
                    "duration": 0.10452949999999817
                },
                {
                    "name": "C3",
                    "midi": 48,
                    "time": 60.836168999999856,
                    "velocity": 0.3779527559055118,
                    "duration": 0.10452949999999817
                },
                {
                    "name": "A#2",
                    "midi": 46,
                    "time": 60.836168999999856,
                    "velocity": 0.3779527559055118,
                    "duration": 0.10452949999999817
                },
                {
                    "name": "D#3",
                    "midi": 51,
                    "time": 61.358816499999854,
                    "velocity": 0.2992125984251969,
                    "duration": 0.10452949999999817
                },
                {
                    "name": "A#2",
                    "midi": 46,
                    "time": 61.358816499999854,
                    "velocity": 0.2992125984251969,
                    "duration": 0.10452949999999817
                },
                {
                    "name": "C3",
                    "midi": 48,
                    "time": 61.358816499999854,
                    "velocity": 0.2992125984251969,
                    "duration": 0.10452949999999817
                },
                {
                    "name": "A3",
                    "midi": 57,
                    "time": 61.358816499999854,
                    "velocity": 0.3543307086614173,
                    "duration": 0.10452949999999817
                },
                {
                    "name": "F#3",
                    "midi": 54,
                    "time": 61.358816499999854,
                    "velocity": 0.2992125984251969,
                    "duration": 0.10452949999999817
                },
                {
                    "name": "D#3",
                    "midi": 51,
                    "time": 61.46334599999985,
                    "velocity": 0.3543307086614173,
                    "duration": 0.10452949999999817
                },
                {
                    "name": "A3",
                    "midi": 57,
                    "time": 61.46334599999985,
                    "velocity": 0.4094488188976378,
                    "duration": 0.10452949999999817
                },
                {
                    "name": "F#3",
                    "midi": 54,
                    "time": 61.46334599999985,
                    "velocity": 0.3543307086614173,
                    "duration": 0.10452949999999817
                },
                {
                    "name": "C3",
                    "midi": 48,
                    "time": 61.46334599999985,
                    "velocity": 0.3543307086614173,
                    "duration": 0.10452949999999817
                },
                {
                    "name": "A#2",
                    "midi": 46,
                    "time": 61.46334599999985,
                    "velocity": 0.3543307086614173,
                    "duration": 0.10452949999999817
                },
                {
                    "name": "A#2",
                    "midi": 46,
                    "time": 61.88146399999985,
                    "velocity": 0.2992125984251969,
                    "duration": 0.05226474999999908
                },
                {
                    "name": "C3",
                    "midi": 48,
                    "time": 61.88146399999985,
                    "velocity": 0.2992125984251969,
                    "duration": 0.05226474999999908
                },
                {
                    "name": "D#3",
                    "midi": 51,
                    "time": 61.88146399999985,
                    "velocity": 0.2992125984251969,
                    "duration": 0.05226474999999908
                },
                {
                    "name": "F#3",
                    "midi": 54,
                    "time": 61.88146399999985,
                    "velocity": 0.2992125984251969,
                    "duration": 0.05226474999999908
                },
                {
                    "name": "A3",
                    "midi": 57,
                    "time": 61.88146399999985,
                    "velocity": 0.3543307086614173,
                    "duration": 0.05226474999999908
                },
                {
                    "name": "A#2",
                    "midi": 46,
                    "time": 61.98599349999985,
                    "velocity": 0.23622047244094488,
                    "duration": 0.05226474999999908
                },
                {
                    "name": "C3",
                    "midi": 48,
                    "time": 61.98599349999985,
                    "velocity": 0.23622047244094488,
                    "duration": 0.05226474999999908
                },
                {
                    "name": "D#3",
                    "midi": 51,
                    "time": 61.98599349999985,
                    "velocity": 0.23622047244094488,
                    "duration": 0.05226474999999908
                },
                {
                    "name": "F#3",
                    "midi": 54,
                    "time": 61.98599349999985,
                    "velocity": 0.23622047244094488,
                    "duration": 0.05226474999999908
                },
                {
                    "name": "A3",
                    "midi": 57,
                    "time": 61.98599349999985,
                    "velocity": 0.28346456692913385,
                    "duration": 0.05226474999999908
                },
                {
                    "name": "A#2",
                    "midi": 46,
                    "time": 62.09052299999985,
                    "velocity": 0.23622047244094488,
                    "duration": 0.05226474999999908
                },
                {
                    "name": "C3",
                    "midi": 48,
                    "time": 62.09052299999985,
                    "velocity": 0.23622047244094488,
                    "duration": 0.05226474999999908
                },
                {
                    "name": "D#3",
                    "midi": 51,
                    "time": 62.09052299999985,
                    "velocity": 0.23622047244094488,
                    "duration": 0.05226474999999908
                },
                {
                    "name": "F#3",
                    "midi": 54,
                    "time": 62.09052299999985,
                    "velocity": 0.23622047244094488,
                    "duration": 0.05226474999999908
                },
                {
                    "name": "A3",
                    "midi": 57,
                    "time": 62.09052299999985,
                    "velocity": 0.28346456692913385,
                    "duration": 0.05226474999999908
                },
                {
                    "name": "A#2",
                    "midi": 46,
                    "time": 62.195052499999846,
                    "velocity": 0.23622047244094488,
                    "duration": 0.05226474999999908
                },
                {
                    "name": "C3",
                    "midi": 48,
                    "time": 62.195052499999846,
                    "velocity": 0.23622047244094488,
                    "duration": 0.05226474999999908
                },
                {
                    "name": "D#3",
                    "midi": 51,
                    "time": 62.195052499999846,
                    "velocity": 0.23622047244094488,
                    "duration": 0.05226474999999908
                },
                {
                    "name": "F#3",
                    "midi": 54,
                    "time": 62.195052499999846,
                    "velocity": 0.23622047244094488,
                    "duration": 0.05226474999999908
                },
                {
                    "name": "A3",
                    "midi": 57,
                    "time": 62.195052499999846,
                    "velocity": 0.28346456692913385,
                    "duration": 0.05226474999999908
                },
                {
                    "name": "A#2",
                    "midi": 46,
                    "time": 62.299581999999845,
                    "velocity": 0.31496062992125984,
                    "duration": 0.10452949999999817
                },
                {
                    "name": "D3",
                    "midi": 50,
                    "time": 62.299581999999845,
                    "velocity": 0.31496062992125984,
                    "duration": 0.10452949999999817
                },
                {
                    "name": "F3",
                    "midi": 53,
                    "time": 62.299581999999845,
                    "velocity": 0.31496062992125984,
                    "duration": 0.10452949999999817
                },
                {
                    "name": "A#3",
                    "midi": 58,
                    "time": 62.299581999999845,
                    "velocity": 0.3779527559055118,
                    "duration": 0.10452949999999817
                },
                {
                    "name": "F4",
                    "midi": 65,
                    "time": 62.50864099999984,
                    "velocity": 0.4251968503937008,
                    "duration": 0.20905900000000344
                },
                {
                    "name": "D#4",
                    "midi": 63,
                    "time": 62.717699999999844,
                    "velocity": 0.44881889763779526,
                    "duration": 0.20905900000000344
                },
                {
                    "name": "D4",
                    "midi": 62,
                    "time": 62.92675899999985,
                    "velocity": 0.47244094488188976,
                    "duration": 0.20905900000000344
                },
                {
                    "name": "C4",
                    "midi": 60,
                    "time": 63.13581799999985,
                    "velocity": 0.4881889763779528,
                    "duration": 0.20905900000000344
                },
                {
                    "name": "A#3",
                    "midi": 58,
                    "time": 63.344876999999855,
                    "velocity": 0.4251968503937008,
                    "duration": 0.20905900000000344
                },
                {
                    "name": "G#2",
                    "midi": 44,
                    "time": 63.55393599999986,
                    "velocity": 0.3700787401574803,
                    "duration": 0.10452949999999817
                },
                {
                    "name": "E3",
                    "midi": 52,
                    "time": 63.55393599999986,
                    "velocity": 0.4409448818897638,
                    "duration": 0.10452949999999817
                },
                {
                    "name": "G#3",
                    "midi": 56,
                    "time": 63.55393599999986,
                    "velocity": 0.4409448818897638,
                    "duration": 0.10452949999999817
                },
                {
                    "name": "F#2",
                    "midi": 42,
                    "time": 63.762994999999854,
                    "velocity": 0.3858267716535433,
                    "duration": 0.10452949999999817
                },
                {
                    "name": "F#3",
                    "midi": 54,
                    "time": 63.762994999999854,
                    "velocity": 0.4566929133858268,
                    "duration": 0.10452949999999817
                },
                {
                    "name": "E2",
                    "midi": 40,
                    "time": 63.97205399999985,
                    "velocity": 0.4015748031496063,
                    "duration": 0.10452950000000527
                },
                {
                    "name": "E3",
                    "midi": 52,
                    "time": 63.97205399999985,
                    "velocity": 0.48031496062992124,
                    "duration": 0.10452950000000527
                },
                {
                    "name": "C#2",
                    "midi": 37,
                    "time": 64.18111299999985,
                    "velocity": 0.41732283464566927,
                    "duration": 0.10452949999999817
                },
                {
                    "name": "C#3",
                    "midi": 49,
                    "time": 64.18111299999985,
                    "velocity": 0.49606299212598426,
                    "duration": 0.10452949999999817
                },
                {
                    "name": "B1",
                    "midi": 35,
                    "time": 64.39017199999985,
                    "velocity": 0.4330708661417323,
                    "duration": 0.10452949999999817
                },
                {
                    "name": "B2",
                    "midi": 47,
                    "time": 64.39017199999985,
                    "velocity": 0.5118110236220472,
                    "duration": 0.10452949999999817
                },
                {
                    "name": "G#1",
                    "midi": 32,
                    "time": 64.59923099999985,
                    "velocity": 0.44881889763779526,
                    "duration": 0.10452949999999817
                },
                {
                    "name": "G#2",
                    "midi": 44,
                    "time": 64.59923099999985,
                    "velocity": 0.5354330708661418,
                    "duration": 0.10452949999999817
                },
                {
                    "name": "A#1",
                    "midi": 34,
                    "time": 64.80828999999984,
                    "velocity": 0.44881889763779526,
                    "duration": 0.10452949999999817
                },
                {
                    "name": "F2",
                    "midi": 41,
                    "time": 64.80828999999984,
                    "velocity": 0.44881889763779526,
                    "duration": 0.10452949999999817
                },
                {
                    "name": "A#2",
                    "midi": 46,
                    "time": 64.80828999999984,
                    "velocity": 0.5354330708661418,
                    "duration": 0.10452949999999817
                },
                {
                    "name": "F4",
                    "midi": 65,
                    "time": 65.01734899999984,
                    "velocity": 0.44881889763779526,
                    "duration": 0.20905899999999633
                },
                {
                    "name": "D#4",
                    "midi": 63,
                    "time": 65.22640799999984,
                    "velocity": 0.47244094488188976,
                    "duration": 0.20905899999999633
                },
                {
                    "name": "D4",
                    "midi": 62,
                    "time": 65.43546699999983,
                    "velocity": 0.49606299212598426,
                    "duration": 0.20905899999999633
                },
                {
                    "name": "C4",
                    "midi": 60,
                    "time": 65.64452599999983,
                    "velocity": 0.5039370078740157,
                    "duration": 0.20905899999999633
                },
                {
                    "name": "A#3",
                    "midi": 58,
                    "time": 65.85358499999982,
                    "velocity": 0.4409448818897638,
                    "duration": 0.20905899999999633
                },
                {
                    "name": "G#2",
                    "midi": 44,
                    "time": 66.06264399999982,
                    "velocity": 0.3858267716535433,
                    "duration": 0.10452949999999817
                },
                {
                    "name": "E3",
                    "midi": 52,
                    "time": 66.06264399999982,
                    "velocity": 0.4645669291338583,
                    "duration": 0.10452949999999817
                },
                {
                    "name": "G#3",
                    "midi": 56,
                    "time": 66.06264399999982,
                    "velocity": 0.4645669291338583,
                    "duration": 0.10452949999999817
                },
                {
                    "name": "F#2",
                    "midi": 42,
                    "time": 66.27170299999982,
                    "velocity": 0.4015748031496063,
                    "duration": 0.10452949999999817
                },
                {
                    "name": "F#3",
                    "midi": 54,
                    "time": 66.27170299999982,
                    "velocity": 0.48031496062992124,
                    "duration": 0.10452949999999817
                },
                {
                    "name": "E2",
                    "midi": 40,
                    "time": 66.48076199999981,
                    "velocity": 0.41732283464566927,
                    "duration": 0.10452949999999817
                },
                {
                    "name": "E3",
                    "midi": 52,
                    "time": 66.48076199999981,
                    "velocity": 0.49606299212598426,
                    "duration": 0.10452949999999817
                },
                {
                    "name": "C#2",
                    "midi": 37,
                    "time": 66.68982099999981,
                    "velocity": 0.4251968503937008,
                    "duration": 0.10452949999999817
                },
                {
                    "name": "C#3",
                    "midi": 49,
                    "time": 66.68982099999981,
                    "velocity": 0.5118110236220472,
                    "duration": 0.10452949999999817
                },
                {
                    "name": "B1",
                    "midi": 35,
                    "time": 66.8988799999998,
                    "velocity": 0.4566929133858268,
                    "duration": 0.10452949999999817
                },
                {
                    "name": "B2",
                    "midi": 47,
                    "time": 66.8988799999998,
                    "velocity": 0.5354330708661418,
                    "duration": 0.10452949999999817
                },
                {
                    "name": "G#1",
                    "midi": 32,
                    "time": 67.1079389999998,
                    "velocity": 0.47244094488188976,
                    "duration": 0.10452949999999817
                },
                {
                    "name": "G#2",
                    "midi": 44,
                    "time": 67.1079389999998,
                    "velocity": 0.5590551181102362,
                    "duration": 0.10452949999999817
                },
                {
                    "name": "A#1",
                    "midi": 34,
                    "time": 67.3169979999998,
                    "velocity": 0.47244094488188976,
                    "duration": 0.10452949999999817
                },
                {
                    "name": "F2",
                    "midi": 41,
                    "time": 67.3169979999998,
                    "velocity": 0.47244094488188976,
                    "duration": 0.10452949999999817
                },
                {
                    "name": "A#2",
                    "midi": 46,
                    "time": 67.3169979999998,
                    "velocity": 0.5590551181102362,
                    "duration": 0.10452949999999817
                },
                {
                    "name": "A#3",
                    "midi": 58,
                    "time": 67.6305864999998,
                    "velocity": 0.3858267716535433,
                    "duration": 0.10452949999999817
                },
                {
                    "name": "G#4",
                    "midi": 68,
                    "time": 67.6305864999998,
                    "velocity": 0.4566929133858268,
                    "duration": 0.10452949999999817
                },
                {
                    "name": "F4",
                    "midi": 65,
                    "time": 67.6305864999998,
                    "velocity": 0.3858267716535433,
                    "duration": 0.10452949999999817
                },
                {
                    "name": "A#3",
                    "midi": 58,
                    "time": 67.73511599999979,
                    "velocity": 0.33858267716535434,
                    "duration": 0.20905899999999633
                },
                {
                    "name": "G#4",
                    "midi": 68,
                    "time": 67.73511599999979,
                    "velocity": 0.4015748031496063,
                    "duration": 0.20905899999999633
                },
                {
                    "name": "F4",
                    "midi": 65,
                    "time": 67.73511599999979,
                    "velocity": 0.33858267716535434,
                    "duration": 0.20905899999999633
                },
                {
                    "name": "A#3",
                    "midi": 58,
                    "time": 67.94417499999979,
                    "velocity": 0.3858267716535433,
                    "duration": 0.10452949999999817
                },
                {
                    "name": "F4",
                    "midi": 65,
                    "time": 67.94417499999979,
                    "velocity": 0.3858267716535433,
                    "duration": 0.10452949999999817
                },
                {
                    "name": "G#4",
                    "midi": 68,
                    "time": 67.94417499999979,
                    "velocity": 0.4566929133858268,
                    "duration": 0.10452949999999817
                },
                {
                    "name": "A3",
                    "midi": 57,
                    "time": 68.25776349999978,
                    "velocity": 0.3858267716535433,
                    "duration": 0.10452949999999817
                },
                {
                    "name": "F#4",
                    "midi": 66,
                    "time": 68.25776349999978,
                    "velocity": 0.4566929133858268,
                    "duration": 0.10452949999999817
                },
                {
                    "name": "D#4",
                    "midi": 63,
                    "time": 68.25776349999978,
                    "velocity": 0.3858267716535433,
                    "duration": 0.10452949999999817
                },
                {
                    "name": "A3",
                    "midi": 57,
                    "time": 68.36229299999978,
                    "velocity": 0.3464566929133858,
                    "duration": 0.20905899999999633
                },
                {
                    "name": "F#4",
                    "midi": 66,
                    "time": 68.36229299999978,
                    "velocity": 0.4094488188976378,
                    "duration": 0.20905899999999633
                },
                {
                    "name": "D#4",
                    "midi": 63,
                    "time": 68.36229299999978,
                    "velocity": 0.3464566929133858,
                    "duration": 0.20905899999999633
                },
                {
                    "name": "A3",
                    "midi": 57,
                    "time": 68.57135199999978,
                    "velocity": 0.3779527559055118,
                    "duration": 0.10452949999999817
                },
                {
                    "name": "D#4",
                    "midi": 63,
                    "time": 68.57135199999978,
                    "velocity": 0.3779527559055118,
                    "duration": 0.10452949999999817
                },
                {
                    "name": "F#4",
                    "midi": 66,
                    "time": 68.57135199999978,
                    "velocity": 0.44881889763779526,
                    "duration": 0.10452949999999817
                },
                {
                    "name": "G3",
                    "midi": 55,
                    "time": 68.88494049999977,
                    "velocity": 0.3937007874015748,
                    "duration": 0.10452949999999817
                },
                {
                    "name": "E4",
                    "midi": 64,
                    "time": 68.88494049999977,
                    "velocity": 0.47244094488188976,
                    "duration": 0.10452949999999817
                },
                {
                    "name": "A#3",
                    "midi": 58,
                    "time": 68.88494049999977,
                    "velocity": 0.3937007874015748,
                    "duration": 0.10452949999999817
                },
                {
                    "name": "G3",
                    "midi": 55,
                    "time": 68.98946999999977,
                    "velocity": 0.36220472440944884,
                    "duration": 0.20905899999999633
                },
                {
                    "name": "E4",
                    "midi": 64,
                    "time": 68.98946999999977,
                    "velocity": 0.4330708661417323,
                    "duration": 0.20905899999999633
                },
                {
                    "name": "A#3",
                    "midi": 58,
                    "time": 68.98946999999977,
                    "velocity": 0.36220472440944884,
                    "duration": 0.20905899999999633
                },
                {
                    "name": "G3",
                    "midi": 55,
                    "time": 69.19852899999977,
                    "velocity": 0.4015748031496063,
                    "duration": 0.10452949999999817
                },
                {
                    "name": "A#3",
                    "midi": 58,
                    "time": 69.19852899999977,
                    "velocity": 0.4015748031496063,
                    "duration": 0.10452949999999817
                },
                {
                    "name": "E4",
                    "midi": 64,
                    "time": 69.19852899999977,
                    "velocity": 0.48031496062992124,
                    "duration": 0.10452949999999817
                },
                {
                    "name": "F3",
                    "midi": 53,
                    "time": 69.51211749999976,
                    "velocity": 0.3937007874015748,
                    "duration": 0.10452949999999817
                },
                {
                    "name": "C#4",
                    "midi": 61,
                    "time": 69.51211749999976,
                    "velocity": 0.4645669291338583,
                    "duration": 0.10452949999999817
                },
                {
                    "name": "G#3",
                    "midi": 56,
                    "time": 69.51211749999976,
                    "velocity": 0.3937007874015748,
                    "duration": 0.10452949999999817
                },
                {
                    "name": "F3",
                    "midi": 53,
                    "time": 69.61664699999976,
                    "velocity": 0.3543307086614173,
                    "duration": 0.20905899999999633
                },
                {
                    "name": "C#4",
                    "midi": 61,
                    "time": 69.61664699999976,
                    "velocity": 0.4251968503937008,
                    "duration": 0.20905899999999633
                },
                {
                    "name": "G#3",
                    "midi": 56,
                    "time": 69.61664699999976,
                    "velocity": 0.3543307086614173,
                    "duration": 0.20905899999999633
                },
                {
                    "name": "F3",
                    "midi": 53,
                    "time": 69.82570599999976,
                    "velocity": 0.3937007874015748,
                    "duration": 0.10452949999999817
                },
                {
                    "name": "G#3",
                    "midi": 56,
                    "time": 69.82570599999976,
                    "velocity": 0.3937007874015748,
                    "duration": 0.10452949999999817
                },
                {
                    "name": "C#4",
                    "midi": 61,
                    "time": 69.82570599999976,
                    "velocity": 0.4645669291338583,
                    "duration": 0.10452949999999817
                },
                {
                    "name": "B2",
                    "midi": 47,
                    "time": 70.13929449999975,
                    "velocity": 0.4094488188976378,
                    "duration": 0.10452949999999817
                },
                {
                    "name": "B3",
                    "midi": 59,
                    "time": 70.13929449999975,
                    "velocity": 0.4881889763779528,
                    "duration": 0.10452949999999817
                },
                {
                    "name": "F3",
                    "midi": 53,
                    "time": 70.13929449999975,
                    "velocity": 0.4094488188976378,
                    "duration": 0.10452949999999817
                },
                {
                    "name": "B2",
                    "midi": 47,
                    "time": 70.24382399999975,
                    "velocity": 0.3543307086614173,
                    "duration": 0.20905899999999633
                },
                {
                    "name": "B3",
                    "midi": 59,
                    "time": 70.24382399999975,
                    "velocity": 0.4251968503937008,
                    "duration": 0.20905899999999633
                },
                {
                    "name": "F3",
                    "midi": 53,
                    "time": 70.24382399999975,
                    "velocity": 0.3543307086614173,
                    "duration": 0.20905899999999633
                },
                {
                    "name": "B2",
                    "midi": 47,
                    "time": 70.45288299999974,
                    "velocity": 0.4094488188976378,
                    "duration": 0.10452949999999817
                },
                {
                    "name": "F3",
                    "midi": 53,
                    "time": 70.45288299999974,
                    "velocity": 0.4094488188976378,
                    "duration": 0.10452949999999817
                },
                {
                    "name": "B3",
                    "midi": 59,
                    "time": 70.45288299999974,
                    "velocity": 0.4881889763779528,
                    "duration": 0.10452949999999817
                },
                {
                    "name": "A#2",
                    "midi": 46,
                    "time": 70.76647149999974,
                    "velocity": 0.41732283464566927,
                    "duration": 0.10452949999999817
                },
                {
                    "name": "A#3",
                    "midi": 58,
                    "time": 70.76647149999974,
                    "velocity": 0.49606299212598426,
                    "duration": 0.10452949999999817
                },
                {
                    "name": "F3",
                    "midi": 53,
                    "time": 70.76647149999974,
                    "velocity": 0.41732283464566927,
                    "duration": 0.10452949999999817
                },
                {
                    "name": "A#2",
                    "midi": 46,
                    "time": 70.87100099999974,
                    "velocity": 0.3779527559055118,
                    "duration": 0.20905899999999633
                },
                {
                    "name": "A#3",
                    "midi": 58,
                    "time": 70.87100099999974,
                    "velocity": 0.44881889763779526,
                    "duration": 0.20905899999999633
                },
                {
                    "name": "F3",
                    "midi": 53,
                    "time": 70.87100099999974,
                    "velocity": 0.3779527559055118,
                    "duration": 0.20905899999999633
                },
                {
                    "name": "A#2",
                    "midi": 46,
                    "time": 71.08005999999973,
                    "velocity": 0.4251968503937008,
                    "duration": 0.10452949999999817
                },
                {
                    "name": "F3",
                    "midi": 53,
                    "time": 71.08005999999973,
                    "velocity": 0.4251968503937008,
                    "duration": 0.10452949999999817
                },
                {
                    "name": "A#3",
                    "midi": 58,
                    "time": 71.08005999999973,
                    "velocity": 0.5039370078740157,
                    "duration": 0.10452949999999817
                },
                {
                    "name": "A#3",
                    "midi": 58,
                    "time": 71.39364849999973,
                    "velocity": 0.3779527559055118,
                    "duration": 0.05226475000000619
                },
                {
                    "name": "A#3",
                    "midi": 58,
                    "time": 71.49817799999974,
                    "velocity": 0.3464566929133858,
                    "duration": 0.10452949999999817
                },
                {
                    "name": "A#3",
                    "midi": 58,
                    "time": 71.70723699999974,
                    "velocity": 0.33858267716535434,
                    "duration": 0.10452949999999817
                },
                {
                    "name": "A#3",
                    "midi": 58,
                    "time": 72.02082549999973,
                    "velocity": 0.2755905511811024,
                    "duration": 0.05226475000000619
                },
                {
                    "name": "A#3",
                    "midi": 58,
                    "time": 72.12535499999974,
                    "velocity": 0.30708661417322836,
                    "duration": 0.10452949999999817
                },
                {
                    "name": "D#3",
                    "midi": 51,
                    "time": 72.33441399999974,
                    "velocity": 0.1968503937007874,
                    "duration": 0.20905899999999633
                },
                {
                    "name": "A#3",
                    "midi": 58,
                    "time": 72.33441399999974,
                    "velocity": 0.1968503937007874,
                    "duration": 0.20905899999999633
                },
                {
                    "name": "D#4",
                    "midi": 63,
                    "time": 72.33441399999974,
                    "velocity": 0.23622047244094488,
                    "duration": 0.20905899999999633
                },
                {
                    "name": "G4",
                    "midi": 67,
                    "time": 72.64800249999973,
                    "velocity": 0.1968503937007874,
                    "duration": 0.05226475000000619
                },
                {
                    "name": "D#4",
                    "midi": 63,
                    "time": 72.64800249999973,
                    "velocity": 0.15748031496062992,
                    "duration": 0.05226475000000619
                },
                {
                    "name": "D#4",
                    "midi": 63,
                    "time": 72.75253199999975,
                    "velocity": 0.15748031496062992,
                    "duration": 0.10452949999999817
                },
                {
                    "name": "G4",
                    "midi": 67,
                    "time": 72.75253199999975,
                    "velocity": 0.1968503937007874,
                    "duration": 0.10452949999999817
                },
                {
                    "name": "D#4",
                    "midi": 63,
                    "time": 72.96159099999974,
                    "velocity": 0.2047244094488189,
                    "duration": 0.10452949999999817
                },
                {
                    "name": "G4",
                    "midi": 67,
                    "time": 72.96159099999974,
                    "velocity": 0.2440944881889764,
                    "duration": 0.10452949999999817
                },
                {
                    "name": "D#4",
                    "midi": 63,
                    "time": 73.27517949999974,
                    "velocity": 0.2047244094488189,
                    "duration": 0.05226475000000619
                },
                {
                    "name": "A#3",
                    "midi": 58,
                    "time": 73.27517949999974,
                    "velocity": 0.16535433070866143,
                    "duration": 0.05226475000000619
                },
                {
                    "name": "A#3",
                    "midi": 58,
                    "time": 73.37970899999975,
                    "velocity": 0.1732283464566929,
                    "duration": 0.10452949999999817
                },
                {
                    "name": "D#4",
                    "midi": 63,
                    "time": 73.37970899999975,
                    "velocity": 0.2125984251968504,
                    "duration": 0.10452949999999817
                },
                {
                    "name": "C4",
                    "midi": 60,
                    "time": 73.58876799999975,
                    "velocity": 0.2440944881889764,
                    "duration": 0.10452949999999817
                },
                {
                    "name": "C3",
                    "midi": 48,
                    "time": 73.90235649999974,
                    "velocity": 0.16535433070866143,
                    "duration": 0.05226475000000619
                },
                {
                    "name": "G3",
                    "midi": 55,
                    "time": 73.90235649999974,
                    "velocity": 0.2047244094488189,
                    "duration": 0.05226475000000619
                },
                {
                    "name": "C3",
                    "midi": 48,
                    "time": 74.00688599999975,
                    "velocity": 0.16535433070866143,
                    "duration": 0.10452949999999817
                },
                {
                    "name": "G3",
                    "midi": 55,
                    "time": 74.00688599999975,
                    "velocity": 0.2047244094488189,
                    "duration": 0.10452949999999817
                },
                {
                    "name": "C3",
                    "midi": 48,
                    "time": 74.21594499999975,
                    "velocity": 0.1968503937007874,
                    "duration": 0.6271770000000032
                },
                {
                    "name": "G3",
                    "midi": 55,
                    "time": 74.21594499999975,
                    "velocity": 0.23622047244094488,
                    "duration": 0.6271770000000032
                },
                {
                    "name": "A#2",
                    "midi": 46,
                    "time": 74.84312199999975,
                    "velocity": 0.1968503937007874,
                    "duration": 0.20905899999999633
                },
                {
                    "name": "F3",
                    "midi": 53,
                    "time": 74.84312199999975,
                    "velocity": 0.1968503937007874,
                    "duration": 0.20905899999999633
                },
                {
                    "name": "G#3",
                    "midi": 56,
                    "time": 74.84312199999975,
                    "velocity": 0.2283464566929134,
                    "duration": 0.20905899999999633
                },
                {
                    "name": "A#2",
                    "midi": 46,
                    "time": 75.15671049999975,
                    "velocity": 0.16535433070866143,
                    "duration": 0.05226475000000619
                },
                {
                    "name": "D3",
                    "midi": 50,
                    "time": 75.15671049999975,
                    "velocity": 0.16535433070866143,
                    "duration": 0.05226475000000619
                },
                {
                    "name": "G#3",
                    "midi": 56,
                    "time": 75.15671049999975,
                    "velocity": 0.2047244094488189,
                    "duration": 0.05226475000000619
                },
                {
                    "name": "A#2",
                    "midi": 46,
                    "time": 75.26123999999976,
                    "velocity": 0.16535433070866143,
                    "duration": 0.10452949999999817
                },
                {
                    "name": "D3",
                    "midi": 50,
                    "time": 75.26123999999976,
                    "velocity": 0.16535433070866143,
                    "duration": 0.10452949999999817
                },
                {
                    "name": "G#3",
                    "midi": 56,
                    "time": 75.26123999999976,
                    "velocity": 0.2047244094488189,
                    "duration": 0.10452949999999817
                },
                {
                    "name": "C#3",
                    "midi": 49,
                    "time": 75.47029899999976,
                    "velocity": 0.1968503937007874,
                    "duration": 0.10452949999999817
                },
                {
                    "name": "A#2",
                    "midi": 46,
                    "time": 75.47029899999976,
                    "velocity": 0.1968503937007874,
                    "duration": 0.10452949999999817
                },
                {
                    "name": "G#3",
                    "midi": 56,
                    "time": 75.47029899999976,
                    "velocity": 0.23622047244094488,
                    "duration": 0.10452949999999817
                },
                {
                    "name": "A#2",
                    "midi": 46,
                    "time": 75.67935799999975,
                    "velocity": 0.2125984251968504,
                    "duration": 0.10452949999999817
                },
                {
                    "name": "D3",
                    "midi": 50,
                    "time": 75.67935799999975,
                    "velocity": 0.2125984251968504,
                    "duration": 0.10452949999999817
                },
                {
                    "name": "G#3",
                    "midi": 56,
                    "time": 75.67935799999975,
                    "velocity": 0.25196850393700787,
                    "duration": 0.10452949999999817
                },
                {
                    "name": "A#2",
                    "midi": 46,
                    "time": 75.88841699999975,
                    "velocity": 0.2204724409448819,
                    "duration": 0.10452949999999817
                },
                {
                    "name": "D3",
                    "midi": 50,
                    "time": 75.88841699999975,
                    "velocity": 0.2204724409448819,
                    "duration": 0.10452949999999817
                },
                {
                    "name": "G#3",
                    "midi": 56,
                    "time": 75.88841699999975,
                    "velocity": 0.2755905511811024,
                    "duration": 0.10452949999999817
                },
                {
                    "name": "D#3",
                    "midi": 51,
                    "time": 76.09747599999974,
                    "velocity": 0.2440944881889764,
                    "duration": 0.6271770000000032
                },
                {
                    "name": "G3",
                    "midi": 55,
                    "time": 76.09747599999974,
                    "velocity": 0.28346456692913385,
                    "duration": 0.6271770000000032
                },
                {
                    "name": "D#3",
                    "midi": 51,
                    "time": 76.72465299999975,
                    "velocity": 0.2125984251968504,
                    "duration": 0.20905899999999633
                },
                {
                    "name": "A#3",
                    "midi": 58,
                    "time": 76.72465299999975,
                    "velocity": 0.25196850393700787,
                    "duration": 0.20905899999999633
                },
                {
                    "name": "D#4",
                    "midi": 63,
                    "time": 77.35182999999975,
                    "velocity": 0.1968503937007874,
                    "duration": 0.20905899999999633
                },
                {
                    "name": "G4",
                    "midi": 67,
                    "time": 77.35182999999975,
                    "velocity": 0.23622047244094488,
                    "duration": 0.20905899999999633
                },
                {
                    "name": "D#4",
                    "midi": 63,
                    "time": 77.66541849999975,
                    "velocity": 0.1968503937007874,
                    "duration": 0.05226475000000619
                },
                {
                    "name": "A#3",
                    "midi": 58,
                    "time": 77.66541849999975,
                    "velocity": 0.15748031496062992,
                    "duration": 0.05226475000000619
                },
                {
                    "name": "A#3",
                    "midi": 58,
                    "time": 77.76994799999976,
                    "velocity": 0.15748031496062992,
                    "duration": 0.10452949999999817
                },
                {
                    "name": "D#4",
                    "midi": 63,
                    "time": 77.76994799999976,
                    "velocity": 0.1968503937007874,
                    "duration": 0.10452949999999817
                },
                {
                    "name": "A#3",
                    "midi": 58,
                    "time": 77.97900699999975,
                    "velocity": 0.2047244094488189,
                    "duration": 0.10452949999999817
                },
                {
                    "name": "D#4",
                    "midi": 63,
                    "time": 77.97900699999975,
                    "velocity": 0.2440944881889764,
                    "duration": 0.10452949999999817
                },
                {
                    "name": "A#3",
                    "midi": 58,
                    "time": 78.29259549999975,
                    "velocity": 0.2047244094488189,
                    "duration": 0.05226475000000619
                },
                {
                    "name": "G3",
                    "midi": 55,
                    "time": 78.29259549999975,
                    "velocity": 0.16535433070866143,
                    "duration": 0.05226475000000619
                },
                {
                    "name": "G3",
                    "midi": 55,
                    "time": 78.39712499999976,
                    "velocity": 0.1732283464566929,
                    "duration": 0.10452949999999817
                },
                {
                    "name": "A#3",
                    "midi": 58,
                    "time": 78.39712499999976,
                    "velocity": 0.2125984251968504,
                    "duration": 0.10452949999999817
                },
                {
                    "name": "G3",
                    "midi": 55,
                    "time": 78.60618399999976,
                    "velocity": 0.1732283464566929,
                    "duration": 0.10452949999999817
                },
                {
                    "name": "C4",
                    "midi": 60,
                    "time": 78.60618399999976,
                    "velocity": 0.2440944881889764,
                    "duration": 0.10452949999999817
                },
                {
                    "name": "C3",
                    "midi": 48,
                    "time": 78.91977249999975,
                    "velocity": 0.16535433070866143,
                    "duration": 0.05226475000000619
                },
                {
                    "name": "G3",
                    "midi": 55,
                    "time": 78.91977249999975,
                    "velocity": 0.2047244094488189,
                    "duration": 0.05226475000000619
                },
                {
                    "name": "C3",
                    "midi": 48,
                    "time": 79.02430199999976,
                    "velocity": 0.16535433070866143,
                    "duration": 0.10452949999999817
                },
                {
                    "name": "G3",
                    "midi": 55,
                    "time": 79.02430199999976,
                    "velocity": 0.2047244094488189,
                    "duration": 0.10452949999999817
                },
                {
                    "name": "C3",
                    "midi": 48,
                    "time": 79.23336099999976,
                    "velocity": 0.1968503937007874,
                    "duration": 0.6271770000000032
                },
                {
                    "name": "G3",
                    "midi": 55,
                    "time": 79.23336099999976,
                    "velocity": 0.23622047244094488,
                    "duration": 0.6271770000000032
                },
                {
                    "name": "G2",
                    "midi": 43,
                    "time": 79.86053799999976,
                    "velocity": 0.1968503937007874,
                    "duration": 0.20905899999999633
                },
                {
                    "name": "D3",
                    "midi": 50,
                    "time": 79.86053799999976,
                    "velocity": 0.1968503937007874,
                    "duration": 0.20905899999999633
                },
                {
                    "name": "G3",
                    "midi": 55,
                    "time": 79.86053799999976,
                    "velocity": 0.2283464566929134,
                    "duration": 0.20905899999999633
                },
                {
                    "name": "G2",
                    "midi": 43,
                    "time": 80.17412649999976,
                    "velocity": 0.16535433070866143,
                    "duration": 0.05226475000000619
                },
                {
                    "name": "D3",
                    "midi": 50,
                    "time": 80.17412649999976,
                    "velocity": 0.16535433070866143,
                    "duration": 0.05226475000000619
                },
                {
                    "name": "G3",
                    "midi": 55,
                    "time": 80.17412649999976,
                    "velocity": 0.2047244094488189,
                    "duration": 0.05226475000000619
                },
                {
                    "name": "G2",
                    "midi": 43,
                    "time": 80.27865599999977,
                    "velocity": 0.16535433070866143,
                    "duration": 0.10452949999999817
                },
                {
                    "name": "D3",
                    "midi": 50,
                    "time": 80.27865599999977,
                    "velocity": 0.16535433070866143,
                    "duration": 0.10452949999999817
                },
                {
                    "name": "G3",
                    "midi": 55,
                    "time": 80.27865599999977,
                    "velocity": 0.2047244094488189,
                    "duration": 0.10452949999999817
                },
                {
                    "name": "D3",
                    "midi": 50,
                    "time": 80.48771499999977,
                    "velocity": 0.1968503937007874,
                    "duration": 0.10452949999999817
                },
                {
                    "name": "G2",
                    "midi": 43,
                    "time": 80.48771499999977,
                    "velocity": 0.1968503937007874,
                    "duration": 0.10452949999999817
                },
                {
                    "name": "G3",
                    "midi": 55,
                    "time": 80.48771499999977,
                    "velocity": 0.23622047244094488,
                    "duration": 0.10452949999999817
                },
                {
                    "name": "G2",
                    "midi": 43,
                    "time": 80.69677399999976,
                    "velocity": 0.2125984251968504,
                    "duration": 0.10452949999999817
                },
                {
                    "name": "D3",
                    "midi": 50,
                    "time": 80.69677399999976,
                    "velocity": 0.2125984251968504,
                    "duration": 0.10452949999999817
                },
                {
                    "name": "G3",
                    "midi": 55,
                    "time": 80.69677399999976,
                    "velocity": 0.25196850393700787,
                    "duration": 0.10452949999999817
                },
                {
                    "name": "G2",
                    "midi": 43,
                    "time": 80.90583299999976,
                    "velocity": 0.2204724409448819,
                    "duration": 0.10452949999999817
                },
                {
                    "name": "D3",
                    "midi": 50,
                    "time": 80.90583299999976,
                    "velocity": 0.2204724409448819,
                    "duration": 0.10452949999999817
                },
                {
                    "name": "G3",
                    "midi": 55,
                    "time": 80.90583299999976,
                    "velocity": 0.2755905511811024,
                    "duration": 0.10452949999999817
                },
                {
                    "name": "G2",
                    "midi": 43,
                    "time": 81.11489199999976,
                    "velocity": 0.2440944881889764,
                    "duration": 0.6271770000000032
                },
                {
                    "name": "D3",
                    "midi": 50,
                    "time": 81.11489199999976,
                    "velocity": 0.2440944881889764,
                    "duration": 0.6271770000000032
                },
                {
                    "name": "G3",
                    "midi": 55,
                    "time": 81.11489199999976,
                    "velocity": 0.28346456692913385,
                    "duration": 0.6271770000000032
                },
                {
                    "name": "A#2",
                    "midi": 46,
                    "time": 81.74206899999976,
                    "velocity": 0.2125984251968504,
                    "duration": 0.6271770000000032
                },
                {
                    "name": "F3",
                    "midi": 53,
                    "time": 81.74206899999976,
                    "velocity": 0.2125984251968504,
                    "duration": 0.6271770000000032
                },
                {
                    "name": "G#3",
                    "midi": 56,
                    "time": 81.74206899999976,
                    "velocity": 0.25196850393700787,
                    "duration": 0.6271770000000032
                },
                {
                    "name": "D#2",
                    "midi": 39,
                    "time": 82.36924599999976,
                    "velocity": 0.2677165354330709,
                    "duration": 0.20905899999999633
                },
                {
                    "name": "A#2",
                    "midi": 46,
                    "time": 82.36924599999976,
                    "velocity": 0.2677165354330709,
                    "duration": 0.20905899999999633
                },
                {
                    "name": "D#3",
                    "midi": 51,
                    "time": 82.36924599999976,
                    "velocity": 0.31496062992125984,
                    "duration": 0.20905899999999633
                },
                {
                    "name": "G2",
                    "midi": 43,
                    "time": 82.68283449999976,
                    "velocity": 0.2125984251968504,
                    "duration": 0.05226475000000619
                },
                {
                    "name": "G3",
                    "midi": 55,
                    "time": 82.68283449999976,
                    "velocity": 0.25984251968503935,
                    "duration": 0.05226475000000619
                },
                {
                    "name": "D#3",
                    "midi": 51,
                    "time": 82.68283449999976,
                    "velocity": 0.2125984251968504,
                    "duration": 0.05226475000000619
                },
                {
                    "name": "G2",
                    "midi": 43,
                    "time": 82.78736399999977,
                    "velocity": 0.2125984251968504,
                    "duration": 0.10452949999999817
                },
                {
                    "name": "D#3",
                    "midi": 51,
                    "time": 82.78736399999977,
                    "velocity": 0.2125984251968504,
                    "duration": 0.10452949999999817
                },
                {
                    "name": "G3",
                    "midi": 55,
                    "time": 82.78736399999977,
                    "velocity": 0.25984251968503935,
                    "duration": 0.10452949999999817
                },
                {
                    "name": "G2",
                    "midi": 43,
                    "time": 82.99642299999977,
                    "velocity": 0.2755905511811024,
                    "duration": 0.10452949999999817
                },
                {
                    "name": "D#3",
                    "midi": 51,
                    "time": 82.99642299999977,
                    "velocity": 0.2755905511811024,
                    "duration": 0.10452949999999817
                },
                {
                    "name": "G3",
                    "midi": 55,
                    "time": 82.99642299999977,
                    "velocity": 0.3228346456692913,
                    "duration": 0.10452949999999817
                },
                {
                    "name": "A#2",
                    "midi": 46,
                    "time": 83.31001149999976,
                    "velocity": 0.2283464566929134,
                    "duration": 0.05226475000000619
                },
                {
                    "name": "A#3",
                    "midi": 58,
                    "time": 83.31001149999976,
                    "velocity": 0.2755905511811024,
                    "duration": 0.05226475000000619
                },
                {
                    "name": "G3",
                    "midi": 55,
                    "time": 83.31001149999976,
                    "velocity": 0.2283464566929134,
                    "duration": 0.05226475000000619
                },
                {
                    "name": "A#2",
                    "midi": 46,
                    "time": 83.41454099999977,
                    "velocity": 0.23622047244094488,
                    "duration": 0.10452949999999817
                },
                {
                    "name": "G3",
                    "midi": 55,
                    "time": 83.41454099999977,
                    "velocity": 0.23622047244094488,
                    "duration": 0.10452949999999817
                },
                {
                    "name": "A#3",
                    "midi": 58,
                    "time": 83.41454099999977,
                    "velocity": 0.28346456692913385,
                    "duration": 0.10452949999999817
                },
                {
                    "name": "C3",
                    "midi": 48,
                    "time": 83.62359999999977,
                    "velocity": 0.2283464566929134,
                    "duration": 0.10452949999999817
                },
                {
                    "name": "G3",
                    "midi": 55,
                    "time": 83.62359999999977,
                    "velocity": 0.2283464566929134,
                    "duration": 0.10452949999999817
                },
                {
                    "name": "C4",
                    "midi": 60,
                    "time": 83.62359999999977,
                    "velocity": 0.3228346456692913,
                    "duration": 0.10452949999999817
                },
                {
                    "name": "C4",
                    "midi": 60,
                    "time": 83.93718849999976,
                    "velocity": 0.2283464566929134,
                    "duration": 0.05226475000000619
                },
                {
                    "name": "G3",
                    "midi": 55,
                    "time": 83.93718849999976,
                    "velocity": 0.2283464566929134,
                    "duration": 0.05226475000000619
                },
                {
                    "name": "D#4",
                    "midi": 63,
                    "time": 83.93718849999976,
                    "velocity": 0.2755905511811024,
                    "duration": 0.05226475000000619
                },
                {
                    "name": "C4",
                    "midi": 60,
                    "time": 84.04171799999978,
                    "velocity": 0.2283464566929134,
                    "duration": 0.10452949999999817
                },
                {
                    "name": "G3",
                    "midi": 55,
                    "time": 84.04171799999978,
                    "velocity": 0.2283464566929134,
                    "duration": 0.10452949999999817
                },
                {
                    "name": "D#4",
                    "midi": 63,
                    "time": 84.04171799999978,
                    "velocity": 0.2755905511811024,
                    "duration": 0.10452949999999817
                },
                {
                    "name": "C4",
                    "midi": 60,
                    "time": 84.25077699999977,
                    "velocity": 0.2677165354330709,
                    "duration": 0.6271770000000032
                },
                {
                    "name": "G3",
                    "midi": 55,
                    "time": 84.25077699999977,
                    "velocity": 0.2677165354330709,
                    "duration": 0.6271770000000032
                },
                {
                    "name": "D#4",
                    "midi": 63,
                    "time": 84.25077699999977,
                    "velocity": 0.31496062992125984,
                    "duration": 0.6271770000000032
                },
                {
                    "name": "A#2",
                    "midi": 46,
                    "time": 84.87795399999978,
                    "velocity": 0.25984251968503935,
                    "duration": 0.20905899999999633
                },
                {
                    "name": "F3",
                    "midi": 53,
                    "time": 84.87795399999978,
                    "velocity": 0.25984251968503935,
                    "duration": 0.20905899999999633
                },
                {
                    "name": "A#3",
                    "midi": 58,
                    "time": 84.87795399999978,
                    "velocity": 0.31496062992125984,
                    "duration": 0.20905899999999633
                },
                {
                    "name": "A#3",
                    "midi": 58,
                    "time": 85.19154249999977,
                    "velocity": 0.2283464566929134,
                    "duration": 0.05226475000000619
                },
                {
                    "name": "D4",
                    "midi": 62,
                    "time": 85.19154249999977,
                    "velocity": 0.2283464566929134,
                    "duration": 0.05226475000000619
                },
                {
                    "name": "F4",
                    "midi": 65,
                    "time": 85.19154249999977,
                    "velocity": 0.2755905511811024,
                    "duration": 0.05226475000000619
                },
                {
                    "name": "A#3",
                    "midi": 58,
                    "time": 85.29607199999978,
                    "velocity": 0.2283464566929134,
                    "duration": 0.10452949999999817
                },
                {
                    "name": "D4",
                    "midi": 62,
                    "time": 85.29607199999978,
                    "velocity": 0.2283464566929134,
                    "duration": 0.10452949999999817
                },
                {
                    "name": "F4",
                    "midi": 65,
                    "time": 85.29607199999978,
                    "velocity": 0.2755905511811024,
                    "duration": 0.10452949999999817
                },
                {
                    "name": "C#4",
                    "midi": 61,
                    "time": 85.50513099999978,
                    "velocity": 0.2677165354330709,
                    "duration": 0.10452949999999817
                },
                {
                    "name": "A#3",
                    "midi": 58,
                    "time": 85.50513099999978,
                    "velocity": 0.2677165354330709,
                    "duration": 0.10452949999999817
                },
                {
                    "name": "E4",
                    "midi": 64,
                    "time": 85.50513099999978,
                    "velocity": 0.31496062992125984,
                    "duration": 0.10452949999999817
                },
                {
                    "name": "A#3",
                    "midi": 58,
                    "time": 85.71418999999977,
                    "velocity": 0.28346456692913385,
                    "duration": 0.10452949999999817
                },
                {
                    "name": "D4",
                    "midi": 62,
                    "time": 85.71418999999977,
                    "velocity": 0.28346456692913385,
                    "duration": 0.10452949999999817
                },
                {
                    "name": "F4",
                    "midi": 65,
                    "time": 85.71418999999977,
                    "velocity": 0.3464566929133858,
                    "duration": 0.10452949999999817
                },
                {
                    "name": "A#3",
                    "midi": 58,
                    "time": 85.92324899999977,
                    "velocity": 0.30708661417322836,
                    "duration": 0.10452949999999817
                },
                {
                    "name": "D4",
                    "midi": 62,
                    "time": 85.92324899999977,
                    "velocity": 0.30708661417322836,
                    "duration": 0.10452949999999817
                },
                {
                    "name": "F#4",
                    "midi": 66,
                    "time": 85.92324899999977,
                    "velocity": 0.36220472440944884,
                    "duration": 0.10452949999999817
                },
                {
                    "name": "A#3",
                    "midi": 58,
                    "time": 86.13230799999977,
                    "velocity": 0.3228346456692913,
                    "duration": 0.6271770000000032
                },
                {
                    "name": "D#3",
                    "midi": 51,
                    "time": 86.13230799999977,
                    "velocity": 0.3228346456692913,
                    "duration": 0.6271770000000032
                },
                {
                    "name": "G4",
                    "midi": 67,
                    "time": 86.13230799999977,
                    "velocity": 0.3858267716535433,
                    "duration": 0.6271770000000032
                },
                {
                    "name": "A#3",
                    "midi": 58,
                    "time": 86.75948499999977,
                    "velocity": 0.28346456692913385,
                    "duration": 0.20905899999999633
                },
                {
                    "name": "D#3",
                    "midi": 51,
                    "time": 86.75948499999977,
                    "velocity": 0.28346456692913385,
                    "duration": 0.20905899999999633
                },
                {
                    "name": "D#4",
                    "midi": 63,
                    "time": 86.75948499999977,
                    "velocity": 0.33858267716535434,
                    "duration": 0.20905899999999633
                },
                {
                    "name": "D#2",
                    "midi": 39,
                    "time": 87.38666199999977,
                    "velocity": 0.3543307086614173,
                    "duration": 0.20905899999999633
                },
                {
                    "name": "A#2",
                    "midi": 46,
                    "time": 87.38666199999977,
                    "velocity": 0.3543307086614173,
                    "duration": 0.20905899999999633
                },
                {
                    "name": "D#3",
                    "midi": 51,
                    "time": 87.38666199999977,
                    "velocity": 0.4251968503937008,
                    "duration": 0.20905899999999633
                },
                {
                    "name": "G2",
                    "midi": 43,
                    "time": 87.70025049999977,
                    "velocity": 0.28346456692913385,
                    "duration": 0.05226475000000619
                },
                {
                    "name": "G3",
                    "midi": 55,
                    "time": 87.70025049999977,
                    "velocity": 0.3543307086614173,
                    "duration": 0.05226475000000619
                },
                {
                    "name": "D#3",
                    "midi": 51,
                    "time": 87.70025049999977,
                    "velocity": 0.28346456692913385,
                    "duration": 0.05226475000000619
                },
                {
                    "name": "G2",
                    "midi": 43,
                    "time": 87.80477999999978,
                    "velocity": 0.28346456692913385,
                    "duration": 0.10452949999999817
                },
                {
                    "name": "D#3",
                    "midi": 51,
                    "time": 87.80477999999978,
                    "velocity": 0.28346456692913385,
                    "duration": 0.10452949999999817
                },
                {
                    "name": "G3",
                    "midi": 55,
                    "time": 87.80477999999978,
                    "velocity": 0.3543307086614173,
                    "duration": 0.10452949999999817
                },
                {
                    "name": "G2",
                    "midi": 43,
                    "time": 88.01383899999978,
                    "velocity": 0.3700787401574803,
                    "duration": 0.10452949999999817
                },
                {
                    "name": "D#3",
                    "midi": 51,
                    "time": 88.01383899999978,
                    "velocity": 0.3700787401574803,
                    "duration": 0.10452949999999817
                },
                {
                    "name": "G3",
                    "midi": 55,
                    "time": 88.01383899999978,
                    "velocity": 0.4409448818897638,
                    "duration": 0.10452949999999817
                },
                {
                    "name": "A#2",
                    "midi": 46,
                    "time": 88.32742749999977,
                    "velocity": 0.3228346456692913,
                    "duration": 0.05226475000000619
                },
                {
                    "name": "A#3",
                    "midi": 58,
                    "time": 88.32742749999977,
                    "velocity": 0.3779527559055118,
                    "duration": 0.05226475000000619
                },
                {
                    "name": "G3",
                    "midi": 55,
                    "time": 88.32742749999977,
                    "velocity": 0.3228346456692913,
                    "duration": 0.05226475000000619
                },
                {
                    "name": "A#2",
                    "midi": 46,
                    "time": 88.43195699999978,
                    "velocity": 0.33070866141732286,
                    "duration": 0.10452949999999817
                },
                {
                    "name": "G3",
                    "midi": 55,
                    "time": 88.43195699999978,
                    "velocity": 0.33070866141732286,
                    "duration": 0.10452949999999817
                },
                {
                    "name": "A#3",
                    "midi": 58,
                    "time": 88.43195699999978,
                    "velocity": 0.4015748031496063,
                    "duration": 0.10452949999999817
                },
                {
                    "name": "C3",
                    "midi": 48,
                    "time": 88.64101599999978,
                    "velocity": 0.33070866141732286,
                    "duration": 0.10452949999999817
                },
                {
                    "name": "G3",
                    "midi": 55,
                    "time": 88.64101599999978,
                    "velocity": 0.33070866141732286,
                    "duration": 0.10452949999999817
                },
                {
                    "name": "C4",
                    "midi": 60,
                    "time": 88.64101599999978,
                    "velocity": 0.4645669291338583,
                    "duration": 0.10452949999999817
                },
                {
                    "name": "C4",
                    "midi": 60,
                    "time": 88.95460449999977,
                    "velocity": 0.33070866141732286,
                    "duration": 0.05226475000000619
                },
                {
                    "name": "G3",
                    "midi": 55,
                    "time": 88.95460449999977,
                    "velocity": 0.33070866141732286,
                    "duration": 0.05226475000000619
                },
                {
                    "name": "D#4",
                    "midi": 63,
                    "time": 88.95460449999977,
                    "velocity": 0.3937007874015748,
                    "duration": 0.05226475000000619
                },
                {
                    "name": "C4",
                    "midi": 60,
                    "time": 89.05913399999979,
                    "velocity": 0.33858267716535434,
                    "duration": 0.10452949999999817
                },
                {
                    "name": "G3",
                    "midi": 55,
                    "time": 89.05913399999979,
                    "velocity": 0.33858267716535434,
                    "duration": 0.10452949999999817
                },
                {
                    "name": "D#4",
                    "midi": 63,
                    "time": 89.05913399999979,
                    "velocity": 0.4015748031496063,
                    "duration": 0.10452949999999817
                },
                {
                    "name": "C4",
                    "midi": 60,
                    "time": 89.26819299999978,
                    "velocity": 0.3937007874015748,
                    "duration": 0.6271770000000032
                },
                {
                    "name": "G3",
                    "midi": 55,
                    "time": 89.26819299999978,
                    "velocity": 0.3937007874015748,
                    "duration": 0.6271770000000032
                },
                {
                    "name": "D#4",
                    "midi": 63,
                    "time": 89.26819299999978,
                    "velocity": 0.47244094488188976,
                    "duration": 0.6271770000000032
                },
                {
                    "name": "G2",
                    "midi": 43,
                    "time": 89.89536999999979,
                    "velocity": 0.3779527559055118,
                    "duration": 0.20905899999999633
                },
                {
                    "name": "D3",
                    "midi": 50,
                    "time": 89.89536999999979,
                    "velocity": 0.3779527559055118,
                    "duration": 0.20905899999999633
                },
                {
                    "name": "G3",
                    "midi": 55,
                    "time": 89.89536999999979,
                    "velocity": 0.44881889763779526,
                    "duration": 0.20905899999999633
                },
                {
                    "name": "G3",
                    "midi": 55,
                    "time": 90.20895849999978,
                    "velocity": 0.3228346456692913,
                    "duration": 0.05226475000000619
                },
                {
                    "name": "B3",
                    "midi": 59,
                    "time": 90.20895849999978,
                    "velocity": 0.3228346456692913,
                    "duration": 0.05226475000000619
                },
                {
                    "name": "D4",
                    "midi": 62,
                    "time": 90.20895849999978,
                    "velocity": 0.3858267716535433,
                    "duration": 0.05226475000000619
                },
                {
                    "name": "G3",
                    "midi": 55,
                    "time": 90.3134879999998,
                    "velocity": 0.3228346456692913,
                    "duration": 0.10452949999999817
                },
                {
                    "name": "B3",
                    "midi": 59,
                    "time": 90.3134879999998,
                    "velocity": 0.3228346456692913,
                    "duration": 0.10452949999999817
                },
                {
                    "name": "D4",
                    "midi": 62,
                    "time": 90.3134879999998,
                    "velocity": 0.3858267716535433,
                    "duration": 0.10452949999999817
                },
                {
                    "name": "A#3",
                    "midi": 58,
                    "time": 90.52254699999979,
                    "velocity": 0.3543307086614173,
                    "duration": 0.10452949999999817
                },
                {
                    "name": "G3",
                    "midi": 55,
                    "time": 90.52254699999979,
                    "velocity": 0.3543307086614173,
                    "duration": 0.10452949999999817
                },
                {
                    "name": "C#4",
                    "midi": 61,
                    "time": 90.52254699999979,
                    "velocity": 0.4251968503937008,
                    "duration": 0.10452949999999817
                },
                {
                    "name": "G3",
                    "midi": 55,
                    "time": 90.73160599999979,
                    "velocity": 0.41732283464566927,
                    "duration": 0.10452949999999817
                },
                {
                    "name": "B3",
                    "midi": 59,
                    "time": 90.73160599999979,
                    "velocity": 0.41732283464566927,
                    "duration": 0.10452949999999817
                },
                {
                    "name": "D4",
                    "midi": 62,
                    "time": 90.73160599999979,
                    "velocity": 0.49606299212598426,
                    "duration": 0.10452949999999817
                },
                {
                    "name": "G3",
                    "midi": 55,
                    "time": 90.94066499999978,
                    "velocity": 0.4330708661417323,
                    "duration": 0.10452949999999817
                },
                {
                    "name": "D4",
                    "midi": 62,
                    "time": 90.94066499999978,
                    "velocity": 0.4330708661417323,
                    "duration": 0.10452949999999817
                },
                {
                    "name": "G4",
                    "midi": 67,
                    "time": 90.94066499999978,
                    "velocity": 0.5118110236220472,
                    "duration": 0.10452949999999817
                },
                {
                    "name": "F#3",
                    "midi": 54,
                    "time": 91.14972399999978,
                    "velocity": 0.3779527559055118,
                    "duration": 0.20905899999999633
                },
                {
                    "name": "B3",
                    "midi": 59,
                    "time": 91.14972399999978,
                    "velocity": 0.44881889763779526,
                    "duration": 0.20905899999999633
                },
                {
                    "name": "B2",
                    "midi": 47,
                    "time": 91.14972399999978,
                    "velocity": 0.3779527559055118,
                    "duration": 0.20905899999999633
                },
                {
                    "name": "B3",
                    "midi": 59,
                    "time": 91.46331249999977,
                    "velocity": 0.3228346456692913,
                    "duration": 0.05226475000000619
                },
                {
                    "name": "F#4",
                    "midi": 66,
                    "time": 91.46331249999977,
                    "velocity": 0.3858267716535433,
                    "duration": 0.05226475000000619
                },
                {
                    "name": "D4",
                    "midi": 62,
                    "time": 91.46331249999977,
                    "velocity": 0.3228346456692913,
                    "duration": 0.05226475000000619
                },
                {
                    "name": "F#4",
                    "midi": 66,
                    "time": 91.56784199999979,
                    "velocity": 0.3858267716535433,
                    "duration": 0.10452949999999817
                },
                {
                    "name": "D4",
                    "midi": 62,
                    "time": 91.56784199999979,
                    "velocity": 0.3228346456692913,
                    "duration": 0.10452949999999817
                },
                {
                    "name": "B3",
                    "midi": 59,
                    "time": 91.56784199999979,
                    "velocity": 0.3228346456692913,
                    "duration": 0.10452949999999817
                },
                {
                    "name": "D4",
                    "midi": 62,
                    "time": 91.77690099999978,
                    "velocity": 0.4015748031496063,
                    "duration": 0.6271770000000032
                },
                {
                    "name": "B3",
                    "midi": 59,
                    "time": 91.77690099999978,
                    "velocity": 0.4015748031496063,
                    "duration": 0.6271770000000032
                },
                {
                    "name": "F#4",
                    "midi": 66,
                    "time": 91.77690099999978,
                    "velocity": 0.48031496062992124,
                    "duration": 0.6271770000000032
                },
                {
                    "name": "F#2",
                    "midi": 42,
                    "time": 92.40407799999979,
                    "velocity": 0.33858267716535434,
                    "duration": 0.20905899999999633
                },
                {
                    "name": "C#3",
                    "midi": 49,
                    "time": 92.40407799999979,
                    "velocity": 0.33858267716535434,
                    "duration": 0.20905899999999633
                },
                {
                    "name": "F#3",
                    "midi": 54,
                    "time": 92.40407799999979,
                    "velocity": 0.4015748031496063,
                    "duration": 0.20905899999999633
                },
                {
                    "name": "F#3",
                    "midi": 54,
                    "time": 92.71766649999978,
                    "velocity": 0.28346456692913385,
                    "duration": 0.05226475000000619
                },
                {
                    "name": "A#3",
                    "midi": 58,
                    "time": 92.71766649999978,
                    "velocity": 0.28346456692913385,
                    "duration": 0.05226475000000619
                },
                {
                    "name": "C#4",
                    "midi": 61,
                    "time": 92.71766649999978,
                    "velocity": 0.3464566929133858,
                    "duration": 0.05226475000000619
                },
                {
                    "name": "F#3",
                    "midi": 54,
                    "time": 92.82219599999979,
                    "velocity": 0.28346456692913385,
                    "duration": 0.10452949999999817
                },
                {
                    "name": "A#3",
                    "midi": 58,
                    "time": 92.82219599999979,
                    "velocity": 0.28346456692913385,
                    "duration": 0.10452949999999817
                },
                {
                    "name": "C#4",
                    "midi": 61,
                    "time": 92.82219599999979,
                    "velocity": 0.3464566929133858,
                    "duration": 0.10452949999999817
                },
                {
                    "name": "A3",
                    "midi": 57,
                    "time": 93.03125499999979,
                    "velocity": 0.33858267716535434,
                    "duration": 0.10452949999999817
                },
                {
                    "name": "F#3",
                    "midi": 54,
                    "time": 93.03125499999979,
                    "velocity": 0.33858267716535434,
                    "duration": 0.10452949999999817
                },
                {
                    "name": "C4",
                    "midi": 60,
                    "time": 93.03125499999979,
                    "velocity": 0.4094488188976378,
                    "duration": 0.10452949999999817
                },
                {
                    "name": "F#3",
                    "midi": 54,
                    "time": 93.24031399999978,
                    "velocity": 0.3700787401574803,
                    "duration": 0.10452949999999817
                },
                {
                    "name": "A#3",
                    "midi": 58,
                    "time": 93.24031399999978,
                    "velocity": 0.3700787401574803,
                    "duration": 0.10452949999999817
                },
                {
                    "name": "C#4",
                    "midi": 61,
                    "time": 93.24031399999978,
                    "velocity": 0.4409448818897638,
                    "duration": 0.10452949999999817
                },
                {
                    "name": "F#3",
                    "midi": 54,
                    "time": 93.44937299999978,
                    "velocity": 0.3858267716535433,
                    "duration": 0.10452949999999817
                },
                {
                    "name": "C#4",
                    "midi": 61,
                    "time": 93.44937299999978,
                    "velocity": 0.3858267716535433,
                    "duration": 0.10452949999999817
                },
                {
                    "name": "F#4",
                    "midi": 66,
                    "time": 93.44937299999978,
                    "velocity": 0.4566929133858268,
                    "duration": 0.10452949999999817
                },
                {
                    "name": "F3",
                    "midi": 53,
                    "time": 93.65843199999978,
                    "velocity": 0.33858267716535434,
                    "duration": 0.20905899999999633
                },
                {
                    "name": "A#3",
                    "midi": 58,
                    "time": 93.65843199999978,
                    "velocity": 0.4015748031496063,
                    "duration": 0.20905899999999633
                },
                {
                    "name": "A#2",
                    "midi": 46,
                    "time": 93.65843199999978,
                    "velocity": 0.33858267716535434,
                    "duration": 0.20905899999999633
                },
                {
                    "name": "A#3",
                    "midi": 58,
                    "time": 93.97202049999977,
                    "velocity": 0.28346456692913385,
                    "duration": 0.05226475000000619
                },
                {
                    "name": "F4",
                    "midi": 65,
                    "time": 93.97202049999977,
                    "velocity": 0.3464566929133858,
                    "duration": 0.05226475000000619
                },
                {
                    "name": "C#4",
                    "midi": 61,
                    "time": 93.97202049999977,
                    "velocity": 0.28346456692913385,
                    "duration": 0.05226475000000619
                },
                {
                    "name": "F4",
                    "midi": 65,
                    "time": 94.07654999999978,
                    "velocity": 0.3464566929133858,
                    "duration": 0.10452949999999817
                },
                {
                    "name": "C#4",
                    "midi": 61,
                    "time": 94.07654999999978,
                    "velocity": 0.28346456692913385,
                    "duration": 0.10452949999999817
                },
                {
                    "name": "A#3",
                    "midi": 58,
                    "time": 94.07654999999978,
                    "velocity": 0.28346456692913385,
                    "duration": 0.10452949999999817
                },
                {
                    "name": "C#4",
                    "midi": 61,
                    "time": 94.28560899999978,
                    "velocity": 0.3543307086614173,
                    "duration": 0.6271770000000032
                },
                {
                    "name": "A#3",
                    "midi": 58,
                    "time": 94.28560899999978,
                    "velocity": 0.3543307086614173,
                    "duration": 0.6271770000000032
                },
                {
                    "name": "F4",
                    "midi": 65,
                    "time": 94.28560899999978,
                    "velocity": 0.4251968503937008,
                    "duration": 0.6271770000000032
                },
                {
                    "name": "F2",
                    "midi": 41,
                    "time": 94.91278599999978,
                    "velocity": 0.3228346456692913,
                    "duration": 0.20905899999999633
                },
                {
                    "name": "C3",
                    "midi": 48,
                    "time": 94.91278599999978,
                    "velocity": 0.3228346456692913,
                    "duration": 0.20905899999999633
                },
                {
                    "name": "F3",
                    "midi": 53,
                    "time": 94.91278599999978,
                    "velocity": 0.3858267716535433,
                    "duration": 0.20905899999999633
                },
                {
                    "name": "A3",
                    "midi": 57,
                    "time": 95.22637449999978,
                    "velocity": 0.28346456692913385,
                    "duration": 0.05226475000000619
                },
                {
                    "name": "C4",
                    "midi": 60,
                    "time": 95.22637449999978,
                    "velocity": 0.33858267716535434,
                    "duration": 0.05226475000000619
                },
                {
                    "name": "A3",
                    "midi": 57,
                    "time": 95.33090399999979,
                    "velocity": 0.28346456692913385,
                    "duration": 0.10452949999999817
                },
                {
                    "name": "C4",
                    "midi": 60,
                    "time": 95.33090399999979,
                    "velocity": 0.33858267716535434,
                    "duration": 0.10452949999999817
                },
                {
                    "name": "A2",
                    "midi": 45,
                    "time": 95.53996299999979,
                    "velocity": 0.33070866141732286,
                    "duration": 0.10452949999999817
                },
                {
                    "name": "E3",
                    "midi": 52,
                    "time": 95.53996299999979,
                    "velocity": 0.33070866141732286,
                    "duration": 0.10452949999999817
                },
                {
                    "name": "A3",
                    "midi": 57,
                    "time": 95.53996299999979,
                    "velocity": 0.3937007874015748,
                    "duration": 0.10452949999999817
                },
                {
                    "name": "A3",
                    "midi": 57,
                    "time": 95.85355149999978,
                    "velocity": 0.29133858267716534,
                    "duration": 0.05226475000000619
                },
                {
                    "name": "B3",
                    "midi": 59,
                    "time": 95.85355149999978,
                    "velocity": 0.29133858267716534,
                    "duration": 0.05226475000000619
                },
                {
                    "name": "D#4",
                    "midi": 63,
                    "time": 95.85355149999978,
                    "velocity": 0.3543307086614173,
                    "duration": 0.05226475000000619
                },
                {
                    "name": "A3",
                    "midi": 57,
                    "time": 95.9580809999998,
                    "velocity": 0.2992125984251969,
                    "duration": 0.10452949999999817
                },
                {
                    "name": "C4",
                    "midi": 60,
                    "time": 95.9580809999998,
                    "velocity": 0.2992125984251969,
                    "duration": 0.10452949999999817
                },
                {
                    "name": "E4",
                    "midi": 64,
                    "time": 95.9580809999998,
                    "velocity": 0.3543307086614173,
                    "duration": 0.10452949999999817
                },
                {
                    "name": "E2",
                    "midi": 40,
                    "time": 96.16713999999979,
                    "velocity": 0.3228346456692913,
                    "duration": 0.20905899999999633
                },
                {
                    "name": "B2",
                    "midi": 47,
                    "time": 96.16713999999979,
                    "velocity": 0.3228346456692913,
                    "duration": 0.20905899999999633
                },
                {
                    "name": "E3",
                    "midi": 52,
                    "time": 96.16713999999979,
                    "velocity": 0.3858267716535433,
                    "duration": 0.20905899999999633
                },
                {
                    "name": "G#3",
                    "midi": 56,
                    "time": 96.48072849999978,
                    "velocity": 0.28346456692913385,
                    "duration": 0.05226475000000619
                },
                {
                    "name": "B3",
                    "midi": 59,
                    "time": 96.48072849999978,
                    "velocity": 0.33858267716535434,
                    "duration": 0.05226475000000619
                },
                {
                    "name": "G#3",
                    "midi": 56,
                    "time": 96.5852579999998,
                    "velocity": 0.28346456692913385,
                    "duration": 0.10452949999999817
                },
                {
                    "name": "B3",
                    "midi": 59,
                    "time": 96.5852579999998,
                    "velocity": 0.33858267716535434,
                    "duration": 0.10452949999999817
                },
                {
                    "name": "G#2",
                    "midi": 44,
                    "time": 96.7943169999998,
                    "velocity": 0.33070866141732286,
                    "duration": 0.10452949999999817
                },
                {
                    "name": "D#3",
                    "midi": 51,
                    "time": 96.7943169999998,
                    "velocity": 0.33070866141732286,
                    "duration": 0.10452949999999817
                },
                {
                    "name": "G#3",
                    "midi": 56,
                    "time": 96.7943169999998,
                    "velocity": 0.3937007874015748,
                    "duration": 0.10452949999999817
                },
                {
                    "name": "G#3",
                    "midi": 56,
                    "time": 97.10790549999979,
                    "velocity": 0.29133858267716534,
                    "duration": 0.05226475000000619
                },
                {
                    "name": "B3",
                    "midi": 59,
                    "time": 97.10790549999979,
                    "velocity": 0.29133858267716534,
                    "duration": 0.05226475000000619
                },
                {
                    "name": "D4",
                    "midi": 62,
                    "time": 97.10790549999979,
                    "velocity": 0.3543307086614173,
                    "duration": 0.05226475000000619
                },
                {
                    "name": "G#3",
                    "midi": 56,
                    "time": 97.2124349999998,
                    "velocity": 0.2992125984251969,
                    "duration": 0.10452949999999817
                },
                {
                    "name": "B3",
                    "midi": 59,
                    "time": 97.2124349999998,
                    "velocity": 0.2992125984251969,
                    "duration": 0.10452949999999817
                },
                {
                    "name": "D#4",
                    "midi": 63,
                    "time": 97.2124349999998,
                    "velocity": 0.3543307086614173,
                    "duration": 0.10452949999999817
                },
                {
                    "name": "D#2",
                    "midi": 39,
                    "time": 97.4214939999998,
                    "velocity": 0.3228346456692913,
                    "duration": 0.20905899999999633
                },
                {
                    "name": "D#3",
                    "midi": 51,
                    "time": 97.4214939999998,
                    "velocity": 0.3858267716535433,
                    "duration": 0.20905899999999633
                },
                {
                    "name": "A#3",
                    "midi": 58,
                    "time": 97.73508249999979,
                    "velocity": 0.2755905511811024,
                    "duration": 0.05226475000000619
                },
                {
                    "name": "D#4",
                    "midi": 63,
                    "time": 97.73508249999979,
                    "velocity": 0.2755905511811024,
                    "duration": 0.05226475000000619
                },
                {
                    "name": "G4",
                    "midi": 67,
                    "time": 97.73508249999979,
                    "velocity": 0.33070866141732286,
                    "duration": 0.05226475000000619
                },
                {
                    "name": "A#3",
                    "midi": 58,
                    "time": 97.8396119999998,
                    "velocity": 0.2755905511811024,
                    "duration": 0.10452949999999817
                },
                {
                    "name": "D#4",
                    "midi": 63,
                    "time": 97.8396119999998,
                    "velocity": 0.2755905511811024,
                    "duration": 0.10452949999999817
                },
                {
                    "name": "G4",
                    "midi": 67,
                    "time": 97.8396119999998,
                    "velocity": 0.33070866141732286,
                    "duration": 0.10452949999999817
                },
                {
                    "name": "D#2",
                    "midi": 39,
                    "time": 98.0486709999998,
                    "velocity": 0.3228346456692913,
                    "duration": 0.10452949999999817
                },
                {
                    "name": "D#3",
                    "midi": 51,
                    "time": 98.0486709999998,
                    "velocity": 0.3779527559055118,
                    "duration": 0.10452949999999817
                },
                {
                    "name": "A#3",
                    "midi": 58,
                    "time": 98.3622594999998,
                    "velocity": 0.28346456692913385,
                    "duration": 0.05226475000000619
                },
                {
                    "name": "D#4",
                    "midi": 63,
                    "time": 98.3622594999998,
                    "velocity": 0.28346456692913385,
                    "duration": 0.05226475000000619
                },
                {
                    "name": "F#4",
                    "midi": 66,
                    "time": 98.3622594999998,
                    "velocity": 0.33858267716535434,
                    "duration": 0.05226475000000619
                },
                {
                    "name": "A#3",
                    "midi": 58,
                    "time": 98.4667889999998,
                    "velocity": 0.28346456692913385,
                    "duration": 0.10452949999999817
                },
                {
                    "name": "D#4",
                    "midi": 63,
                    "time": 98.4667889999998,
                    "velocity": 0.28346456692913385,
                    "duration": 0.10452949999999817
                },
                {
                    "name": "F#4",
                    "midi": 66,
                    "time": 98.4667889999998,
                    "velocity": 0.33858267716535434,
                    "duration": 0.10452949999999817
                },
                {
                    "name": "B1",
                    "midi": 35,
                    "time": 98.6758479999998,
                    "velocity": 0.2992125984251969,
                    "duration": 0.20905899999999633
                },
                {
                    "name": "B2",
                    "midi": 47,
                    "time": 98.6758479999998,
                    "velocity": 0.36220472440944884,
                    "duration": 0.20905899999999633
                },
                {
                    "name": "G#3",
                    "midi": 56,
                    "time": 98.9894364999998,
                    "velocity": 0.25984251968503935,
                    "duration": 0.05226475000000619
                },
                {
                    "name": "B3",
                    "midi": 59,
                    "time": 98.9894364999998,
                    "velocity": 0.25984251968503935,
                    "duration": 0.05226475000000619
                },
                {
                    "name": "E4",
                    "midi": 64,
                    "time": 98.9894364999998,
                    "velocity": 0.31496062992125984,
                    "duration": 0.05226475000000619
                },
                {
                    "name": "G#3",
                    "midi": 56,
                    "time": 99.09396599999981,
                    "velocity": 0.25984251968503935,
                    "duration": 0.10452949999999817
                },
                {
                    "name": "B3",
                    "midi": 59,
                    "time": 99.09396599999981,
                    "velocity": 0.25984251968503935,
                    "duration": 0.10452949999999817
                },
                {
                    "name": "E4",
                    "midi": 64,
                    "time": 99.09396599999981,
                    "velocity": 0.31496062992125984,
                    "duration": 0.10452949999999817
                },
                {
                    "name": "C2",
                    "midi": 36,
                    "time": 99.3030249999998,
                    "velocity": 0.2992125984251969,
                    "duration": 0.10452949999999817
                },
                {
                    "name": "C3",
                    "midi": 48,
                    "time": 99.3030249999998,
                    "velocity": 0.36220472440944884,
                    "duration": 0.10452949999999817
                },
                {
                    "name": "F#3",
                    "midi": 54,
                    "time": 99.6166134999998,
                    "velocity": 0.2677165354330709,
                    "duration": 0.05226475000000619
                },
                {
                    "name": "A3",
                    "midi": 57,
                    "time": 99.6166134999998,
                    "velocity": 0.2677165354330709,
                    "duration": 0.05226475000000619
                },
                {
                    "name": "D#4",
                    "midi": 63,
                    "time": 99.6166134999998,
                    "velocity": 0.3228346456692913,
                    "duration": 0.05226475000000619
                },
                {
                    "name": "F#3",
                    "midi": 54,
                    "time": 99.72114299999981,
                    "velocity": 0.2755905511811024,
                    "duration": 0.10452949999999817
                },
                {
                    "name": "A3",
                    "midi": 57,
                    "time": 99.72114299999981,
                    "velocity": 0.2755905511811024,
                    "duration": 0.10452949999999817
                },
                {
                    "name": "D#4",
                    "midi": 63,
                    "time": 99.72114299999981,
                    "velocity": 0.3228346456692913,
                    "duration": 0.10452949999999817
                },
                {
                    "name": "C#2",
                    "midi": 37,
                    "time": 99.93020199999981,
                    "velocity": 0.3543307086614173,
                    "duration": 0.20905899999999633
                },
                {
                    "name": "C#3",
                    "midi": 49,
                    "time": 99.93020199999981,
                    "velocity": 0.4330708661417323,
                    "duration": 0.20905899999999633
                },
                {
                    "name": "F#3",
                    "midi": 54,
                    "time": 100.2437904999998,
                    "velocity": 0.25984251968503935,
                    "duration": 0.05226475000000619
                },
                {
                    "name": "A#3",
                    "midi": 58,
                    "time": 100.2437904999998,
                    "velocity": 0.25984251968503935,
                    "duration": 0.05226475000000619
                },
                {
                    "name": "C#4",
                    "midi": 61,
                    "time": 100.2437904999998,
                    "velocity": 0.31496062992125984,
                    "duration": 0.05226475000000619
                },
                {
                    "name": "G3",
                    "midi": 55,
                    "time": 100.34831999999982,
                    "velocity": 0.25984251968503935,
                    "duration": 0.10452949999999817
                },
                {
                    "name": "A#3",
                    "midi": 58,
                    "time": 100.34831999999982,
                    "velocity": 0.25984251968503935,
                    "duration": 0.10452949999999817
                },
                {
                    "name": "C#4",
                    "midi": 61,
                    "time": 100.34831999999982,
                    "velocity": 0.31496062992125984,
                    "duration": 0.10452949999999817
                },
                {
                    "name": "G3",
                    "midi": 55,
                    "time": 100.55737899999981,
                    "velocity": 0.2992125984251969,
                    "duration": 0.10452949999999817
                },
                {
                    "name": "A#3",
                    "midi": 58,
                    "time": 100.55737899999981,
                    "velocity": 0.2992125984251969,
                    "duration": 0.10452949999999817
                },
                {
                    "name": "C#4",
                    "midi": 61,
                    "time": 100.55737899999981,
                    "velocity": 0.36220472440944884,
                    "duration": 0.10452949999999817
                },
                {
                    "name": "G#3",
                    "midi": 56,
                    "time": 100.87096749999981,
                    "velocity": 0.2677165354330709,
                    "duration": 0.05226475000000619
                },
                {
                    "name": "B3",
                    "midi": 59,
                    "time": 100.87096749999981,
                    "velocity": 0.2677165354330709,
                    "duration": 0.05226475000000619
                },
                {
                    "name": "C#4",
                    "midi": 61,
                    "time": 100.87096749999981,
                    "velocity": 0.3228346456692913,
                    "duration": 0.05226475000000619
                },
                {
                    "name": "F3",
                    "midi": 53,
                    "time": 100.97549699999982,
                    "velocity": 0.2755905511811024,
                    "duration": 0.10452949999999817
                },
                {
                    "name": "G#3",
                    "midi": 56,
                    "time": 100.97549699999982,
                    "velocity": 0.2755905511811024,
                    "duration": 0.10452949999999817
                },
                {
                    "name": "C#4",
                    "midi": 61,
                    "time": 100.97549699999982,
                    "velocity": 0.3228346456692913,
                    "duration": 0.10452949999999817
                },
                {
                    "name": "C#2",
                    "midi": 37,
                    "time": 101.18455599999982,
                    "velocity": 0.3543307086614173,
                    "duration": 0.20905899999999633
                },
                {
                    "name": "C#3",
                    "midi": 49,
                    "time": 101.18455599999982,
                    "velocity": 0.4330708661417323,
                    "duration": 0.20905899999999633
                },
                {
                    "name": "F#3",
                    "midi": 54,
                    "time": 101.49814449999981,
                    "velocity": 0.25984251968503935,
                    "duration": 0.05226475000000619
                },
                {
                    "name": "A#3",
                    "midi": 58,
                    "time": 101.49814449999981,
                    "velocity": 0.25984251968503935,
                    "duration": 0.05226475000000619
                },
                {
                    "name": "C#4",
                    "midi": 61,
                    "time": 101.49814449999981,
                    "velocity": 0.31496062992125984,
                    "duration": 0.05226475000000619
                },
                {
                    "name": "G3",
                    "midi": 55,
                    "time": 101.60267399999982,
                    "velocity": 0.25984251968503935,
                    "duration": 0.10452949999999817
                },
                {
                    "name": "A#3",
                    "midi": 58,
                    "time": 101.60267399999982,
                    "velocity": 0.25984251968503935,
                    "duration": 0.10452949999999817
                },
                {
                    "name": "C#4",
                    "midi": 61,
                    "time": 101.60267399999982,
                    "velocity": 0.31496062992125984,
                    "duration": 0.10452949999999817
                },
                {
                    "name": "G3",
                    "midi": 55,
                    "time": 101.81173299999982,
                    "velocity": 0.2992125984251969,
                    "duration": 0.10452949999999817
                },
                {
                    "name": "A#3",
                    "midi": 58,
                    "time": 101.81173299999982,
                    "velocity": 0.2992125984251969,
                    "duration": 0.10452949999999817
                },
                {
                    "name": "C#4",
                    "midi": 61,
                    "time": 101.81173299999982,
                    "velocity": 0.36220472440944884,
                    "duration": 0.10452949999999817
                },
                {
                    "name": "G#3",
                    "midi": 56,
                    "time": 102.12532149999981,
                    "velocity": 0.2677165354330709,
                    "duration": 0.05226475000000619
                },
                {
                    "name": "B3",
                    "midi": 59,
                    "time": 102.12532149999981,
                    "velocity": 0.2677165354330709,
                    "duration": 0.05226475000000619
                },
                {
                    "name": "C#4",
                    "midi": 61,
                    "time": 102.12532149999981,
                    "velocity": 0.3228346456692913,
                    "duration": 0.05226475000000619
                },
                {
                    "name": "F3",
                    "midi": 53,
                    "time": 102.22985099999983,
                    "velocity": 0.2755905511811024,
                    "duration": 0.10452949999999817
                },
                {
                    "name": "G#3",
                    "midi": 56,
                    "time": 102.22985099999983,
                    "velocity": 0.2755905511811024,
                    "duration": 0.10452949999999817
                },
                {
                    "name": "C#4",
                    "midi": 61,
                    "time": 102.22985099999983,
                    "velocity": 0.3228346456692913,
                    "duration": 0.10452949999999817
                },
                {
                    "name": "A#1",
                    "midi": 34,
                    "time": 102.43890999999982,
                    "velocity": 0.3543307086614173,
                    "duration": 0.20905899999999633
                },
                {
                    "name": "A#2",
                    "midi": 46,
                    "time": 102.43890999999982,
                    "velocity": 0.4330708661417323,
                    "duration": 0.20905899999999633
                },
                {
                    "name": "D#3",
                    "midi": 51,
                    "time": 102.75249849999982,
                    "velocity": 0.25984251968503935,
                    "duration": 0.05226475000000619
                },
                {
                    "name": "F#3",
                    "midi": 54,
                    "time": 102.75249849999982,
                    "velocity": 0.25984251968503935,
                    "duration": 0.05226475000000619
                },
                {
                    "name": "A#3",
                    "midi": 58,
                    "time": 102.75249849999982,
                    "velocity": 0.31496062992125984,
                    "duration": 0.05226475000000619
                },
                {
                    "name": "E3",
                    "midi": 52,
                    "time": 102.85702799999983,
                    "velocity": 0.25984251968503935,
                    "duration": 0.10452949999999817
                },
                {
                    "name": "G3",
                    "midi": 55,
                    "time": 102.85702799999983,
                    "velocity": 0.25984251968503935,
                    "duration": 0.10452949999999817
                },
                {
                    "name": "A#3",
                    "midi": 58,
                    "time": 102.85702799999983,
                    "velocity": 0.31496062992125984,
                    "duration": 0.10452949999999817
                },
                {
                    "name": "E3",
                    "midi": 52,
                    "time": 103.06608699999983,
                    "velocity": 0.2992125984251969,
                    "duration": 0.10452949999999817
                },
                {
                    "name": "G3",
                    "midi": 55,
                    "time": 103.06608699999983,
                    "velocity": 0.2992125984251969,
                    "duration": 0.10452949999999817
                },
                {
                    "name": "A#3",
                    "midi": 58,
                    "time": 103.06608699999983,
                    "velocity": 0.36220472440944884,
                    "duration": 0.10452949999999817
                },
                {
                    "name": "F3",
                    "midi": 53,
                    "time": 103.37967549999982,
                    "velocity": 0.2677165354330709,
                    "duration": 0.05226475000000619
                },
                {
                    "name": "G#3",
                    "midi": 56,
                    "time": 103.37967549999982,
                    "velocity": 0.2677165354330709,
                    "duration": 0.05226475000000619
                },
                {
                    "name": "A#3",
                    "midi": 58,
                    "time": 103.37967549999982,
                    "velocity": 0.3228346456692913,
                    "duration": 0.05226475000000619
                },
                {
                    "name": "D3",
                    "midi": 50,
                    "time": 103.48420499999983,
                    "velocity": 0.2755905511811024,
                    "duration": 0.10452949999999817
                },
                {
                    "name": "F3",
                    "midi": 53,
                    "time": 103.48420499999983,
                    "velocity": 0.2755905511811024,
                    "duration": 0.10452949999999817
                },
                {
                    "name": "A#3",
                    "midi": 58,
                    "time": 103.48420499999983,
                    "velocity": 0.3228346456692913,
                    "duration": 0.10452949999999817
                },
                {
                    "name": "A#1",
                    "midi": 34,
                    "time": 103.69326399999983,
                    "velocity": 0.33858267716535434,
                    "duration": 0.20905899999999633
                },
                {
                    "name": "A#2",
                    "midi": 46,
                    "time": 103.69326399999983,
                    "velocity": 0.4094488188976378,
                    "duration": 0.20905899999999633
                },
                {
                    "name": "D#3",
                    "midi": 51,
                    "time": 104.00685249999982,
                    "velocity": 0.2204724409448819,
                    "duration": 0.05226475000000619
                },
                {
                    "name": "F#3",
                    "midi": 54,
                    "time": 104.00685249999982,
                    "velocity": 0.2204724409448819,
                    "duration": 0.05226475000000619
                },
                {
                    "name": "A#3",
                    "midi": 58,
                    "time": 104.00685249999982,
                    "velocity": 0.28346456692913385,
                    "duration": 0.05226475000000619
                },
                {
                    "name": "E3",
                    "midi": 52,
                    "time": 104.11138199999984,
                    "velocity": 0.2204724409448819,
                    "duration": 0.10452949999999817
                },
                {
                    "name": "G3",
                    "midi": 55,
                    "time": 104.11138199999984,
                    "velocity": 0.2204724409448819,
                    "duration": 0.10452949999999817
                },
                {
                    "name": "A#3",
                    "midi": 58,
                    "time": 104.11138199999984,
                    "velocity": 0.2755905511811024,
                    "duration": 0.10452949999999817
                },
                {
                    "name": "E3",
                    "midi": 52,
                    "time": 104.32044099999983,
                    "velocity": 0.2440944881889764,
                    "duration": 0.10452949999999817
                },
                {
                    "name": "G3",
                    "midi": 55,
                    "time": 104.32044099999983,
                    "velocity": 0.2440944881889764,
                    "duration": 0.10452949999999817
                },
                {
                    "name": "A#3",
                    "midi": 58,
                    "time": 104.32044099999983,
                    "velocity": 0.2992125984251969,
                    "duration": 0.10452949999999817
                },
                {
                    "name": "F3",
                    "midi": 53,
                    "time": 104.63402949999983,
                    "velocity": 0.2047244094488189,
                    "duration": 0.05226475000000619
                },
                {
                    "name": "G#3",
                    "midi": 56,
                    "time": 104.63402949999983,
                    "velocity": 0.2047244094488189,
                    "duration": 0.05226475000000619
                },
                {
                    "name": "A#3",
                    "midi": 58,
                    "time": 104.63402949999983,
                    "velocity": 0.2440944881889764,
                    "duration": 0.05226475000000619
                },
                {
                    "name": "D3",
                    "midi": 50,
                    "time": 104.73855899999984,
                    "velocity": 0.2047244094488189,
                    "duration": 0.10452949999999817
                },
                {
                    "name": "F3",
                    "midi": 53,
                    "time": 104.73855899999984,
                    "velocity": 0.2047244094488189,
                    "duration": 0.10452949999999817
                },
                {
                    "name": "A#3",
                    "midi": 58,
                    "time": 104.73855899999984,
                    "velocity": 0.23622047244094488,
                    "duration": 0.10452949999999817
                },
                {
                    "name": "D#2",
                    "midi": 39,
                    "time": 104.94761799999984,
                    "velocity": 0.2047244094488189,
                    "duration": 0.10452949999999817
                },
                {
                    "name": "A#2",
                    "midi": 46,
                    "time": 104.94761799999984,
                    "velocity": 0.2047244094488189,
                    "duration": 0.10452949999999817
                },
                {
                    "name": "D#3",
                    "midi": 51,
                    "time": 104.94761799999984,
                    "velocity": 0.2440944881889764,
                    "duration": 0.10452949999999817
                },
                {
                    "name": "D#2",
                    "midi": 39,
                    "time": 105.26120649999983,
                    "velocity": 0.14173228346456693,
                    "duration": 0.05226475000000619
                },
                {
                    "name": "A#2",
                    "midi": 46,
                    "time": 105.26120649999983,
                    "velocity": 0.14173228346456693,
                    "duration": 0.05226475000000619
                },
                {
                    "name": "D#3",
                    "midi": 51,
                    "time": 105.26120649999983,
                    "velocity": 0.1732283464566929,
                    "duration": 0.05226475000000619
                },
                {
                    "name": "D#2",
                    "midi": 39,
                    "time": 105.36573599999984,
                    "velocity": 0.2047244094488189,
                    "duration": 0.10452949999999817
                },
                {
                    "name": "A#2",
                    "midi": 46,
                    "time": 105.36573599999984,
                    "velocity": 0.2047244094488189,
                    "duration": 0.10452949999999817
                },
                {
                    "name": "D#3",
                    "midi": 51,
                    "time": 105.36573599999984,
                    "velocity": 0.2440944881889764,
                    "duration": 0.10452949999999817
                },
                {
                    "name": "D#2",
                    "midi": 39,
                    "time": 106.20197199999984,
                    "velocity": 0.2047244094488189,
                    "duration": 0.10452949999999817
                },
                {
                    "name": "A#2",
                    "midi": 46,
                    "time": 106.20197199999984,
                    "velocity": 0.2047244094488189,
                    "duration": 0.10452949999999817
                },
                {
                    "name": "D#3",
                    "midi": 51,
                    "time": 106.20197199999984,
                    "velocity": 0.2440944881889764,
                    "duration": 0.10452949999999817
                },
                {
                    "name": "D#2",
                    "midi": 39,
                    "time": 106.51556049999984,
                    "velocity": 0.14173228346456693,
                    "duration": 0.05226475000000619
                },
                {
                    "name": "A#2",
                    "midi": 46,
                    "time": 106.51556049999984,
                    "velocity": 0.14173228346456693,
                    "duration": 0.05226475000000619
                },
                {
                    "name": "D#3",
                    "midi": 51,
                    "time": 106.51556049999984,
                    "velocity": 0.1732283464566929,
                    "duration": 0.05226475000000619
                },
                {
                    "name": "D#2",
                    "midi": 39,
                    "time": 106.62008999999985,
                    "velocity": 0.2047244094488189,
                    "duration": 0.10452949999999817
                },
                {
                    "name": "A#2",
                    "midi": 46,
                    "time": 106.62008999999985,
                    "velocity": 0.2047244094488189,
                    "duration": 0.10452949999999817
                },
                {
                    "name": "D#3",
                    "midi": 51,
                    "time": 106.62008999999985,
                    "velocity": 0.2440944881889764,
                    "duration": 0.10452949999999817
                },
                {
                    "name": "D#2",
                    "midi": 39,
                    "time": 107.45632599999985,
                    "velocity": 0.2047244094488189,
                    "duration": 0.10452949999999817
                },
                {
                    "name": "B2",
                    "midi": 47,
                    "time": 107.45632599999985,
                    "velocity": 0.2047244094488189,
                    "duration": 0.10452949999999817
                },
                {
                    "name": "D3",
                    "midi": 50,
                    "time": 107.45632599999985,
                    "velocity": 0.2440944881889764,
                    "duration": 0.10452949999999817
                },
                {
                    "name": "D#2",
                    "midi": 39,
                    "time": 107.76991449999984,
                    "velocity": 0.14173228346456693,
                    "duration": 0.05226475000000619
                },
                {
                    "name": "B2",
                    "midi": 47,
                    "time": 107.76991449999984,
                    "velocity": 0.14173228346456693,
                    "duration": 0.05226475000000619
                },
                {
                    "name": "D3",
                    "midi": 50,
                    "time": 107.76991449999984,
                    "velocity": 0.1732283464566929,
                    "duration": 0.05226475000000619
                },
                {
                    "name": "D#2",
                    "midi": 39,
                    "time": 107.87444399999985,
                    "velocity": 0.2047244094488189,
                    "duration": 0.10452949999999817
                },
                {
                    "name": "B2",
                    "midi": 47,
                    "time": 107.87444399999985,
                    "velocity": 0.2047244094488189,
                    "duration": 0.10452949999999817
                },
                {
                    "name": "D3",
                    "midi": 50,
                    "time": 107.87444399999985,
                    "velocity": 0.2440944881889764,
                    "duration": 0.10452949999999817
                },
                {
                    "name": "D#2",
                    "midi": 39,
                    "time": 108.71067999999985,
                    "velocity": 0.2125984251968504,
                    "duration": 0.10452949999999817
                },
                {
                    "name": "A#2",
                    "midi": 46,
                    "time": 108.71067999999985,
                    "velocity": 0.2125984251968504,
                    "duration": 0.10452949999999817
                },
                {
                    "name": "D3",
                    "midi": 50,
                    "time": 108.71067999999985,
                    "velocity": 0.2677165354330709,
                    "duration": 0.10452949999999817
                },
                {
                    "name": "D#2",
                    "midi": 39,
                    "time": 109.02426849999985,
                    "velocity": 0.15748031496062992,
                    "duration": 0.05226475000000619
                },
                {
                    "name": "A#2",
                    "midi": 46,
                    "time": 109.02426849999985,
                    "velocity": 0.15748031496062992,
                    "duration": 0.05226475000000619
                },
                {
                    "name": "D3",
                    "midi": 50,
                    "time": 109.02426849999985,
                    "velocity": 0.1889763779527559,
                    "duration": 0.05226475000000619
                },
                {
                    "name": "D#2",
                    "midi": 39,
                    "time": 109.12879799999986,
                    "velocity": 0.2125984251968504,
                    "duration": 0.10452949999999817
                },
                {
                    "name": "A#2",
                    "midi": 46,
                    "time": 109.12879799999986,
                    "velocity": 0.2125984251968504,
                    "duration": 0.10452949999999817
                },
                {
                    "name": "D3",
                    "midi": 50,
                    "time": 109.12879799999986,
                    "velocity": 0.2677165354330709,
                    "duration": 0.10452949999999817
                },
                {
                    "name": "D#2",
                    "midi": 39,
                    "time": 109.96503399999986,
                    "velocity": 0.2047244094488189,
                    "duration": 0.10452949999999817
                },
                {
                    "name": "A#2",
                    "midi": 46,
                    "time": 109.96503399999986,
                    "velocity": 0.2047244094488189,
                    "duration": 0.10452949999999817
                },
                {
                    "name": "D#3",
                    "midi": 51,
                    "time": 109.96503399999986,
                    "velocity": 0.2440944881889764,
                    "duration": 0.10452949999999817
                },
                {
                    "name": "D#2",
                    "midi": 39,
                    "time": 110.27862249999986,
                    "velocity": 0.14173228346456693,
                    "duration": 0.05226475000000619
                },
                {
                    "name": "A#2",
                    "midi": 46,
                    "time": 110.27862249999986,
                    "velocity": 0.14173228346456693,
                    "duration": 0.05226475000000619
                },
                {
                    "name": "D#3",
                    "midi": 51,
                    "time": 110.27862249999986,
                    "velocity": 0.1732283464566929,
                    "duration": 0.05226475000000619
                },
                {
                    "name": "D#2",
                    "midi": 39,
                    "time": 110.38315199999987,
                    "velocity": 0.2047244094488189,
                    "duration": 0.10452949999999817
                },
                {
                    "name": "A#2",
                    "midi": 46,
                    "time": 110.38315199999987,
                    "velocity": 0.2047244094488189,
                    "duration": 0.10452949999999817
                },
                {
                    "name": "D#3",
                    "midi": 51,
                    "time": 110.38315199999987,
                    "velocity": 0.2440944881889764,
                    "duration": 0.10452949999999817
                },
                {
                    "name": "D#2",
                    "midi": 39,
                    "time": 111.21938799999987,
                    "velocity": 0.2047244094488189,
                    "duration": 0.10452949999999817
                },
                {
                    "name": "A#2",
                    "midi": 46,
                    "time": 111.21938799999987,
                    "velocity": 0.2047244094488189,
                    "duration": 0.10452949999999817
                },
                {
                    "name": "D#3",
                    "midi": 51,
                    "time": 111.21938799999987,
                    "velocity": 0.2440944881889764,
                    "duration": 0.10452949999999817
                },
                {
                    "name": "D#2",
                    "midi": 39,
                    "time": 111.53297649999986,
                    "velocity": 0.14173228346456693,
                    "duration": 0.05226475000000619
                },
                {
                    "name": "A#2",
                    "midi": 46,
                    "time": 111.53297649999986,
                    "velocity": 0.14173228346456693,
                    "duration": 0.05226475000000619
                },
                {
                    "name": "D#3",
                    "midi": 51,
                    "time": 111.53297649999986,
                    "velocity": 0.1732283464566929,
                    "duration": 0.05226475000000619
                },
                {
                    "name": "D#2",
                    "midi": 39,
                    "time": 111.63750599999987,
                    "velocity": 0.2047244094488189,
                    "duration": 0.10452949999999817
                },
                {
                    "name": "A#2",
                    "midi": 46,
                    "time": 111.63750599999987,
                    "velocity": 0.2047244094488189,
                    "duration": 0.10452949999999817
                },
                {
                    "name": "D#3",
                    "midi": 51,
                    "time": 111.63750599999987,
                    "velocity": 0.2440944881889764,
                    "duration": 0.10452949999999817
                },
                {
                    "name": "D2",
                    "midi": 38,
                    "time": 112.47374199999987,
                    "velocity": 0.2047244094488189,
                    "duration": 0.10452949999999817
                },
                {
                    "name": "C3",
                    "midi": 48,
                    "time": 112.47374199999987,
                    "velocity": 0.2047244094488189,
                    "duration": 0.10452949999999817
                },
                {
                    "name": "D3",
                    "midi": 50,
                    "time": 112.47374199999987,
                    "velocity": 0.2440944881889764,
                    "duration": 0.10452949999999817
                },
                {
                    "name": "D2",
                    "midi": 38,
                    "time": 112.78733049999987,
                    "velocity": 0.14173228346456693,
                    "duration": 0.05226475000000619
                },
                {
                    "name": "C3",
                    "midi": 48,
                    "time": 112.78733049999987,
                    "velocity": 0.14173228346456693,
                    "duration": 0.05226475000000619
                },
                {
                    "name": "D3",
                    "midi": 50,
                    "time": 112.78733049999987,
                    "velocity": 0.1732283464566929,
                    "duration": 0.05226475000000619
                },
                {
                    "name": "D2",
                    "midi": 38,
                    "time": 112.89185999999988,
                    "velocity": 0.2047244094488189,
                    "duration": 0.10452949999999817
                },
                {
                    "name": "C3",
                    "midi": 48,
                    "time": 112.89185999999988,
                    "velocity": 0.2047244094488189,
                    "duration": 0.10452949999999817
                },
                {
                    "name": "D3",
                    "midi": 50,
                    "time": 112.89185999999988,
                    "velocity": 0.2440944881889764,
                    "duration": 0.10452949999999817
                },
                {
                    "name": "D3",
                    "midi": 50,
                    "time": 113.41450749999989,
                    "velocity": 0.14173228346456693,
                    "duration": 0.10452949999999817
                },
                {
                    "name": "F#3",
                    "midi": 54,
                    "time": 113.41450749999989,
                    "velocity": 0.1732283464566929,
                    "duration": 0.10452949999999817
                },
                {
                    "name": "D3",
                    "midi": 50,
                    "time": 113.51903699999988,
                    "velocity": 0.2047244094488189,
                    "duration": 0.20905899999999633
                },
                {
                    "name": "F#3",
                    "midi": 54,
                    "time": 113.51903699999988,
                    "velocity": 0.2440944881889764,
                    "duration": 0.20905899999999633
                },
                {
                    "name": "G2",
                    "midi": 43,
                    "time": 114.04168449999987,
                    "velocity": 0.1732283464566929,
                    "duration": 0.05226475000000619
                },
                {
                    "name": "D3",
                    "midi": 50,
                    "time": 114.04168449999987,
                    "velocity": 0.1732283464566929,
                    "duration": 0.05226475000000619
                },
                {
                    "name": "G3",
                    "midi": 55,
                    "time": 114.04168449999987,
                    "velocity": 0.2047244094488189,
                    "duration": 0.05226475000000619
                },
                {
                    "name": "G2",
                    "midi": 43,
                    "time": 114.14621399999989,
                    "velocity": 0.23622047244094488,
                    "duration": 0.10452949999999817
                },
                {
                    "name": "D3",
                    "midi": 50,
                    "time": 114.14621399999989,
                    "velocity": 0.23622047244094488,
                    "duration": 0.10452949999999817
                },
                {
                    "name": "G3",
                    "midi": 55,
                    "time": 114.14621399999989,
                    "velocity": 0.28346456692913385,
                    "duration": 0.10452949999999817
                },
                {
                    "name": "A#2",
                    "midi": 46,
                    "time": 114.56433199999988,
                    "velocity": 0.2125984251968504,
                    "duration": 0.20905899999999633
                },
                {
                    "name": "G#3",
                    "midi": 56,
                    "time": 114.56433199999988,
                    "velocity": 0.2125984251968504,
                    "duration": 0.20905899999999633
                },
                {
                    "name": "A#3",
                    "midi": 58,
                    "time": 114.56433199999988,
                    "velocity": 0.2677165354330709,
                    "duration": 0.20905899999999633
                },
                {
                    "name": "A#2",
                    "midi": 46,
                    "time": 114.77339099999988,
                    "velocity": 0.2125984251968504,
                    "duration": 0.20905899999999633
                },
                {
                    "name": "G#3",
                    "midi": 56,
                    "time": 114.77339099999988,
                    "velocity": 0.2125984251968504,
                    "duration": 0.20905899999999633
                },
                {
                    "name": "A#3",
                    "midi": 58,
                    "time": 114.77339099999988,
                    "velocity": 0.2677165354330709,
                    "duration": 0.20905899999999633
                },
                {
                    "name": "D#2",
                    "midi": 39,
                    "time": 114.98244999999987,
                    "velocity": 0.2992125984251969,
                    "duration": 0.20905899999999633
                },
                {
                    "name": "G3",
                    "midi": 55,
                    "time": 115.19150899999987,
                    "velocity": 0.1732283464566929,
                    "duration": 0.20905899999999633
                },
                {
                    "name": "A#3",
                    "midi": 58,
                    "time": 115.19150899999987,
                    "velocity": 0.1732283464566929,
                    "duration": 0.20905899999999633
                },
                {
                    "name": "F4",
                    "midi": 65,
                    "time": 115.19150899999987,
                    "velocity": 0.2204724409448819,
                    "duration": 0.20905899999999633
                },
                {
                    "name": "G2",
                    "midi": 43,
                    "time": 115.40056799999986,
                    "velocity": 0.25196850393700787,
                    "duration": 0.20905899999999633
                },
                {
                    "name": "D#4",
                    "midi": 63,
                    "time": 115.60962699999986,
                    "velocity": 0.2992125984251969,
                    "duration": 0.20905899999999633
                },
                {
                    "name": "A#3",
                    "midi": 58,
                    "time": 115.60962699999986,
                    "velocity": 0.23622047244094488,
                    "duration": 0.20905899999999633
                },
                {
                    "name": "G3",
                    "midi": 55,
                    "time": 115.60962699999986,
                    "velocity": 0.23622047244094488,
                    "duration": 0.20905899999999633
                },
                {
                    "name": "A#2",
                    "midi": 46,
                    "time": 115.81868599999986,
                    "velocity": 0.2677165354330709,
                    "duration": 0.20905899999999633
                },
                {
                    "name": "D4",
                    "midi": 62,
                    "time": 116.02774499999985,
                    "velocity": 0.2677165354330709,
                    "duration": 0.20905899999999633
                },
                {
                    "name": "A#3",
                    "midi": 58,
                    "time": 116.02774499999985,
                    "velocity": 0.2125984251968504,
                    "duration": 0.20905899999999633
                },
                {
                    "name": "G3",
                    "midi": 55,
                    "time": 116.02774499999985,
                    "velocity": 0.2125984251968504,
                    "duration": 0.20905899999999633
                },
                {
                    "name": "D#3",
                    "midi": 51,
                    "time": 116.23680399999985,
                    "velocity": 0.2992125984251969,
                    "duration": 0.20905899999999633
                },
                {
                    "name": "C4",
                    "midi": 60,
                    "time": 116.44586299999985,
                    "velocity": 0.2204724409448819,
                    "duration": 0.20905899999999633
                },
                {
                    "name": "G3",
                    "midi": 55,
                    "time": 116.44586299999985,
                    "velocity": 0.1889763779527559,
                    "duration": 0.20905899999999633
                },
                {
                    "name": "A#2",
                    "midi": 46,
                    "time": 116.65492199999984,
                    "velocity": 0.2755905511811024,
                    "duration": 0.20905899999999633
                },
                {
                    "name": "A#3",
                    "midi": 58,
                    "time": 116.86398099999984,
                    "velocity": 0.25984251968503935,
                    "duration": 0.20905899999999633
                },
                {
                    "name": "G3",
                    "midi": 55,
                    "time": 116.86398099999984,
                    "velocity": 0.2125984251968504,
                    "duration": 0.20905899999999633
                },
                {
                    "name": "G2",
                    "midi": 43,
                    "time": 117.07303999999984,
                    "velocity": 0.25984251968503935,
                    "duration": 0.20905899999999633
                },
                {
                    "name": "A#3",
                    "midi": 58,
                    "time": 117.28209899999983,
                    "velocity": 0.25984251968503935,
                    "duration": 0.20905899999999633
                },
                {
                    "name": "G3",
                    "midi": 55,
                    "time": 117.28209899999983,
                    "velocity": 0.2125984251968504,
                    "duration": 0.20905899999999633
                },
                {
                    "name": "D#2",
                    "midi": 39,
                    "time": 117.49115799999983,
                    "velocity": 0.2992125984251969,
                    "duration": 0.20905899999999633
                },
                {
                    "name": "D4",
                    "midi": 62,
                    "time": 117.70021699999982,
                    "velocity": 0.2755905511811024,
                    "duration": 0.20905899999999633
                },
                {
                    "name": "B3",
                    "midi": 59,
                    "time": 117.70021699999982,
                    "velocity": 0.2125984251968504,
                    "duration": 0.20905899999999633
                },
                {
                    "name": "G#3",
                    "midi": 56,
                    "time": 117.70021699999982,
                    "velocity": 0.2125984251968504,
                    "duration": 0.20905899999999633
                },
                {
                    "name": "G#2",
                    "midi": 44,
                    "time": 117.90927599999982,
                    "velocity": 0.28346456692913385,
                    "duration": 0.20905899999999633
                },
                {
                    "name": "B3",
                    "midi": 59,
                    "time": 118.11833499999982,
                    "velocity": 0.2283464566929134,
                    "duration": 0.20905899999999633
                },
                {
                    "name": "D4",
                    "midi": 62,
                    "time": 118.11833499999982,
                    "velocity": 0.29133858267716534,
                    "duration": 0.20905899999999633
                },
                {
                    "name": "G#3",
                    "midi": 56,
                    "time": 118.11833499999982,
                    "velocity": 0.2283464566929134,
                    "duration": 0.20905899999999633
                },
                {
                    "name": "B2",
                    "midi": 47,
                    "time": 118.32739399999981,
                    "velocity": 0.2992125984251969,
                    "duration": 0.20905899999999633
                },
                {
                    "name": "D4",
                    "midi": 62,
                    "time": 118.53645299999981,
                    "velocity": 0.30708661417322836,
                    "duration": 0.20905899999999633
                },
                {
                    "name": "B3",
                    "midi": 59,
                    "time": 118.53645299999981,
                    "velocity": 0.2440944881889764,
                    "duration": 0.20905899999999633
                },
                {
                    "name": "G#3",
                    "midi": 56,
                    "time": 118.53645299999981,
                    "velocity": 0.2440944881889764,
                    "duration": 0.20905899999999633
                },
                {
                    "name": "D#2",
                    "midi": 39,
                    "time": 118.7455119999998,
                    "velocity": 0.31496062992125984,
                    "duration": 0.20905899999999633
                },
                {
                    "name": "F4",
                    "midi": 65,
                    "time": 118.9545709999998,
                    "velocity": 0.2677165354330709,
                    "duration": 0.20905899999999633
                },
                {
                    "name": "A#3",
                    "midi": 58,
                    "time": 118.9545709999998,
                    "velocity": 0.2125984251968504,
                    "duration": 0.20905899999999633
                },
                {
                    "name": "G#3",
                    "midi": 56,
                    "time": 118.9545709999998,
                    "velocity": 0.2125984251968504,
                    "duration": 0.20905899999999633
                },
                {
                    "name": "A#2",
                    "midi": 46,
                    "time": 119.1636299999998,
                    "velocity": 0.33070866141732286,
                    "duration": 0.20905899999999633
                },
                {
                    "name": "F4",
                    "midi": 65,
                    "time": 119.3726889999998,
                    "velocity": 0.3858267716535433,
                    "duration": 0.20905899999999633
                },
                {
                    "name": "A#3",
                    "midi": 58,
                    "time": 119.3726889999998,
                    "velocity": 0.30708661417322836,
                    "duration": 0.20905899999999633
                },
                {
                    "name": "G#3",
                    "midi": 56,
                    "time": 119.3726889999998,
                    "velocity": 0.30708661417322836,
                    "duration": 0.20905899999999633
                },
                {
                    "name": "D3",
                    "midi": 50,
                    "time": 119.58174799999979,
                    "velocity": 0.25196850393700787,
                    "duration": 0.20905899999999633
                },
                {
                    "name": "F4",
                    "midi": 65,
                    "time": 119.79080699999979,
                    "velocity": 0.25984251968503935,
                    "duration": 0.20905899999999633
                },
                {
                    "name": "A#3",
                    "midi": 58,
                    "time": 119.79080699999979,
                    "velocity": 0.2047244094488189,
                    "duration": 0.20905899999999633
                },
                {
                    "name": "G#3",
                    "midi": 56,
                    "time": 119.79080699999979,
                    "velocity": 0.2047244094488189,
                    "duration": 0.20905899999999633
                },
                {
                    "name": "D#2",
                    "midi": 39,
                    "time": 119.99986599999978,
                    "velocity": 0.2992125984251969,
                    "duration": 0.20905899999999633
                },
                {
                    "name": "F4",
                    "midi": 65,
                    "time": 120.20892499999978,
                    "velocity": 0.2283464566929134,
                    "duration": 0.20905899999999633
                },
                {
                    "name": "A#3",
                    "midi": 58,
                    "time": 120.20892499999978,
                    "velocity": 0.18110236220472442,
                    "duration": 0.20905899999999633
                },
                {
                    "name": "G3",
                    "midi": 55,
                    "time": 120.20892499999978,
                    "velocity": 0.18110236220472442,
                    "duration": 0.20905899999999633
                },
                {
                    "name": "G2",
                    "midi": 43,
                    "time": 120.41798399999978,
                    "velocity": 0.2677165354330709,
                    "duration": 0.20905899999999633
                },
                {
                    "name": "D#4",
                    "midi": 63,
                    "time": 120.62704299999977,
                    "velocity": 0.2677165354330709,
                    "duration": 0.20905899999999633
                },
                {
                    "name": "A#3",
                    "midi": 58,
                    "time": 120.62704299999977,
                    "velocity": 0.2125984251968504,
                    "duration": 0.20905899999999633
                },
                {
                    "name": "G3",
                    "midi": 55,
                    "time": 120.62704299999977,
                    "velocity": 0.2125984251968504,
                    "duration": 0.20905899999999633
                },
                {
                    "name": "A#2",
                    "midi": 46,
                    "time": 120.83610199999977,
                    "velocity": 0.2677165354330709,
                    "duration": 0.20905899999999633
                },
                {
                    "name": "D4",
                    "midi": 62,
                    "time": 121.04516099999977,
                    "velocity": 0.2677165354330709,
                    "duration": 0.20905899999999633
                },
                {
                    "name": "A#3",
                    "midi": 58,
                    "time": 121.04516099999977,
                    "velocity": 0.2125984251968504,
                    "duration": 0.20905899999999633
                },
                {
                    "name": "G3",
                    "midi": 55,
                    "time": 121.04516099999977,
                    "velocity": 0.2125984251968504,
                    "duration": 0.20905899999999633
                },
                {
                    "name": "D#3",
                    "midi": 51,
                    "time": 121.25421999999976,
                    "velocity": 0.2992125984251969,
                    "duration": 0.20905899999999633
                },
                {
                    "name": "C4",
                    "midi": 60,
                    "time": 121.46327899999976,
                    "velocity": 0.23622047244094488,
                    "duration": 0.20905899999999633
                },
                {
                    "name": "G3",
                    "midi": 55,
                    "time": 121.46327899999976,
                    "velocity": 0.1968503937007874,
                    "duration": 0.20905899999999633
                },
                {
                    "name": "A#2",
                    "midi": 46,
                    "time": 121.67233799999975,
                    "velocity": 0.28346456692913385,
                    "duration": 0.20905899999999633
                },
                {
                    "name": "A#3",
                    "midi": 58,
                    "time": 121.88139699999975,
                    "velocity": 0.28346456692913385,
                    "duration": 0.20905899999999633
                },
                {
                    "name": "G3",
                    "midi": 55,
                    "time": 121.88139699999975,
                    "velocity": 0.23622047244094488,
                    "duration": 0.20905899999999633
                },
                {
                    "name": "G2",
                    "midi": 43,
                    "time": 122.09045599999975,
                    "velocity": 0.28346456692913385,
                    "duration": 0.20905899999999633
                },
                {
                    "name": "A#3",
                    "midi": 58,
                    "time": 122.29951499999974,
                    "velocity": 0.28346456692913385,
                    "duration": 0.20905899999999633
                },
                {
                    "name": "G3",
                    "midi": 55,
                    "time": 122.29951499999974,
                    "velocity": 0.23622047244094488,
                    "duration": 0.20905899999999633
                },
                {
                    "name": "D2",
                    "midi": 38,
                    "time": 122.50857399999974,
                    "velocity": 0.2992125984251969,
                    "duration": 0.20905899999999633
                },
                {
                    "name": "D4",
                    "midi": 62,
                    "time": 122.71763299999974,
                    "velocity": 0.2755905511811024,
                    "duration": 0.20905899999999633
                },
                {
                    "name": "C4",
                    "midi": 60,
                    "time": 122.71763299999974,
                    "velocity": 0.2125984251968504,
                    "duration": 0.20905899999999633
                },
                {
                    "name": "A3",
                    "midi": 57,
                    "time": 122.71763299999974,
                    "velocity": 0.2125984251968504,
                    "duration": 0.20905899999999633
                },
                {
                    "name": "A2",
                    "midi": 45,
                    "time": 122.92669199999973,
                    "velocity": 0.28346456692913385,
                    "duration": 0.20905899999999633
                },
                {
                    "name": "D#4",
                    "midi": 63,
                    "time": 123.13575099999973,
                    "velocity": 0.2992125984251969,
                    "duration": 0.20905899999999633
                },
                {
                    "name": "C4",
                    "midi": 60,
                    "time": 123.13575099999973,
                    "velocity": 0.23622047244094488,
                    "duration": 0.20905899999999633
                },
                {
                    "name": "F#3",
                    "midi": 54,
                    "time": 123.13575099999973,
                    "velocity": 0.23622047244094488,
                    "duration": 0.20905899999999633
                },
                {
                    "name": "D3",
                    "midi": 50,
                    "time": 123.34480999999973,
                    "velocity": 0.33070866141732286,
                    "duration": 0.20905899999999633
                },
                {
                    "name": "D4",
                    "midi": 62,
                    "time": 123.55386899999972,
                    "velocity": 0.3543307086614173,
                    "duration": 0.20905899999999633
                },
                {
                    "name": "C4",
                    "midi": 60,
                    "time": 123.55386899999972,
                    "velocity": 0.28346456692913385,
                    "duration": 0.20905899999999633
                },
                {
                    "name": "A3",
                    "midi": 57,
                    "time": 123.55386899999972,
                    "velocity": 0.28346456692913385,
                    "duration": 0.20905899999999633
                },
                {
                    "name": "G2",
                    "midi": 43,
                    "time": 123.76292799999972,
                    "velocity": 0.2992125984251969,
                    "duration": 0.20905899999999633
                },
                {
                    "name": "B3",
                    "midi": 59,
                    "time": 123.97198699999971,
                    "velocity": 0.2283464566929134,
                    "duration": 0.20905899999999633
                },
                {
                    "name": "D4",
                    "midi": 62,
                    "time": 123.97198699999971,
                    "velocity": 0.2755905511811024,
                    "duration": 0.20905899999999633
                },
                {
                    "name": "D3",
                    "midi": 50,
                    "time": 124.18104599999971,
                    "velocity": 0.2992125984251969,
                    "duration": 0.20905899999999633
                },
                {
                    "name": "D4",
                    "midi": 62,
                    "time": 124.3901049999997,
                    "velocity": 0.2283464566929134,
                    "duration": 0.20905899999999633
                },
                {
                    "name": "B3",
                    "midi": 59,
                    "time": 124.3901049999997,
                    "velocity": 0.1968503937007874,
                    "duration": 0.20905899999999633
                },
                {
                    "name": "G3",
                    "midi": 55,
                    "time": 124.5991639999997,
                    "velocity": 0.2677165354330709,
                    "duration": 0.20905899999999633
                },
                {
                    "name": "D4",
                    "midi": 62,
                    "time": 124.8082229999997,
                    "velocity": 0.2677165354330709,
                    "duration": 0.20905899999999633
                },
                {
                    "name": "B3",
                    "midi": 59,
                    "time": 124.8082229999997,
                    "velocity": 0.2204724409448819,
                    "duration": 0.20905899999999633
                },
                {
                    "name": "E2",
                    "midi": 40,
                    "time": 125.0172819999997,
                    "velocity": 0.2992125984251969,
                    "duration": 0.20905899999999633
                },
                {
                    "name": "G3",
                    "midi": 55,
                    "time": 125.22634099999969,
                    "velocity": 0.13385826771653545,
                    "duration": 0.20905899999999633
                },
                {
                    "name": "B3",
                    "midi": 59,
                    "time": 125.22634099999969,
                    "velocity": 0.1732283464566929,
                    "duration": 0.20905899999999633
                },
                {
                    "name": "F#4",
                    "midi": 66,
                    "time": 125.22634099999969,
                    "velocity": 0.2204724409448819,
                    "duration": 0.20905899999999633
                },
                {
                    "name": "G2",
                    "midi": 43,
                    "time": 125.43539999999969,
                    "velocity": 0.25196850393700787,
                    "duration": 0.20905899999999633
                },
                {
                    "name": "E4",
                    "midi": 64,
                    "time": 125.64445899999969,
                    "velocity": 0.2992125984251969,
                    "duration": 0.20905899999999633
                },
                {
                    "name": "B3",
                    "midi": 59,
                    "time": 125.64445899999969,
                    "velocity": 0.23622047244094488,
                    "duration": 0.20905899999999633
                },
                {
                    "name": "G3",
                    "midi": 55,
                    "time": 125.64445899999969,
                    "velocity": 0.23622047244094488,
                    "duration": 0.20905899999999633
                },
                {
                    "name": "B2",
                    "midi": 47,
                    "time": 125.85351799999968,
                    "velocity": 0.2677165354330709,
                    "duration": 0.20905899999999633
                },
                {
                    "name": "D4",
                    "midi": 62,
                    "time": 126.06257699999968,
                    "velocity": 0.2677165354330709,
                    "duration": 0.20905899999999633
                },
                {
                    "name": "B3",
                    "midi": 59,
                    "time": 126.06257699999968,
                    "velocity": 0.2125984251968504,
                    "duration": 0.20905899999999633
                },
                {
                    "name": "G3",
                    "midi": 55,
                    "time": 126.06257699999968,
                    "velocity": 0.2125984251968504,
                    "duration": 0.20905899999999633
                },
                {
                    "name": "E3",
                    "midi": 52,
                    "time": 126.27163599999967,
                    "velocity": 0.2992125984251969,
                    "duration": 0.20905899999999633
                },
                {
                    "name": "C4",
                    "midi": 60,
                    "time": 126.48069499999967,
                    "velocity": 0.2204724409448819,
                    "duration": 0.20905899999999633
                },
                {
                    "name": "G3",
                    "midi": 55,
                    "time": 126.48069499999967,
                    "velocity": 0.1889763779527559,
                    "duration": 0.20905899999999633
                },
                {
                    "name": "B2",
                    "midi": 47,
                    "time": 126.68975399999967,
                    "velocity": 0.2755905511811024,
                    "duration": 0.20905899999999633
                },
                {
                    "name": "B3",
                    "midi": 59,
                    "time": 126.89881299999966,
                    "velocity": 0.25984251968503935,
                    "duration": 0.20905899999999633
                },
                {
                    "name": "G3",
                    "midi": 55,
                    "time": 126.89881299999966,
                    "velocity": 0.2125984251968504,
                    "duration": 0.20905899999999633
                },
                {
                    "name": "E2",
                    "midi": 40,
                    "time": 127.10787199999966,
                    "velocity": 0.25984251968503935,
                    "duration": 0.20905899999999633
                },
                {
                    "name": "B3",
                    "midi": 59,
                    "time": 127.31693099999966,
                    "velocity": 0.25984251968503935,
                    "duration": 0.20905899999999633
                },
                {
                    "name": "G3",
                    "midi": 55,
                    "time": 127.31693099999966,
                    "velocity": 0.2125984251968504,
                    "duration": 0.20905899999999633
                },
                {
                    "name": "C2",
                    "midi": 36,
                    "time": 127.52598999999965,
                    "velocity": 0.2992125984251969,
                    "duration": 0.20905899999999633
                },
                {
                    "name": "D#4",
                    "midi": 63,
                    "time": 127.73504899999965,
                    "velocity": 0.2755905511811024,
                    "duration": 0.20905899999999633
                },
                {
                    "name": "A3",
                    "midi": 57,
                    "time": 127.73504899999965,
                    "velocity": 0.2125984251968504,
                    "duration": 0.20905899999999633
                },
                {
                    "name": "G3",
                    "midi": 55,
                    "time": 127.73504899999965,
                    "velocity": 0.2125984251968504,
                    "duration": 0.20905899999999633
                },
                {
                    "name": "A2",
                    "midi": 45,
                    "time": 127.94410799999964,
                    "velocity": 0.28346456692913385,
                    "duration": 0.20905900000001054
                },
                {
                    "name": "A3",
                    "midi": 57,
                    "time": 128.15316699999966,
                    "velocity": 0.2283464566929134,
                    "duration": 0.20905899999999633
                },
                {
                    "name": "D#4",
                    "midi": 63,
                    "time": 128.15316699999966,
                    "velocity": 0.29133858267716534,
                    "duration": 0.20905899999999633
                },
                {
                    "name": "F#3",
                    "midi": 54,
                    "time": 128.15316699999966,
                    "velocity": 0.2283464566929134,
                    "duration": 0.20905899999999633
                },
                {
                    "name": "C3",
                    "midi": 48,
                    "time": 128.36222599999965,
                    "velocity": 0.2992125984251969,
                    "duration": 0.20905899999999633
                },
                {
                    "name": "D#4",
                    "midi": 63,
                    "time": 128.57128499999965,
                    "velocity": 0.30708661417322836,
                    "duration": 0.20905899999999633
                },
                {
                    "name": "A3",
                    "midi": 57,
                    "time": 128.57128499999965,
                    "velocity": 0.2440944881889764,
                    "duration": 0.20905899999999633
                },
                {
                    "name": "F#3",
                    "midi": 54,
                    "time": 128.57128499999965,
                    "velocity": 0.2440944881889764,
                    "duration": 0.20905899999999633
                },
                {
                    "name": "B1",
                    "midi": 35,
                    "time": 128.78034399999964,
                    "velocity": 0.31496062992125984,
                    "duration": 0.20905899999999633
                },
                {
                    "name": "D#4",
                    "midi": 63,
                    "time": 128.98940299999964,
                    "velocity": 0.2677165354330709,
                    "duration": 0.20905899999999633
                },
                {
                    "name": "A3",
                    "midi": 57,
                    "time": 128.98940299999964,
                    "velocity": 0.2125984251968504,
                    "duration": 0.20905899999999633
                },
                {
                    "name": "F#3",
                    "midi": 54,
                    "time": 128.98940299999964,
                    "velocity": 0.2125984251968504,
                    "duration": 0.20905899999999633
                },
                {
                    "name": "B2",
                    "midi": 47,
                    "time": 129.19846199999964,
                    "velocity": 0.33070866141732286,
                    "duration": 0.20905899999999633
                },
                {
                    "name": "F#4",
                    "midi": 66,
                    "time": 129.40752099999963,
                    "velocity": 0.3858267716535433,
                    "duration": 0.20905899999999633
                },
                {
                    "name": "C4",
                    "midi": 60,
                    "time": 129.40752099999963,
                    "velocity": 0.30708661417322836,
                    "duration": 0.20905899999999633
                },
                {
                    "name": "A3",
                    "midi": 57,
                    "time": 129.40752099999963,
                    "velocity": 0.30708661417322836,
                    "duration": 0.20905899999999633
                },
                {
                    "name": "D#3",
                    "midi": 51,
                    "time": 129.61657999999963,
                    "velocity": 0.25196850393700787,
                    "duration": 0.20905899999999633
                },
                {
                    "name": "F#4",
                    "midi": 66,
                    "time": 129.82563899999963,
                    "velocity": 0.25984251968503935,
                    "duration": 0.20905899999999633
                },
                {
                    "name": "B3",
                    "midi": 59,
                    "time": 129.82563899999963,
                    "velocity": 0.2047244094488189,
                    "duration": 0.20905899999999633
                },
                {
                    "name": "A3",
                    "midi": 57,
                    "time": 129.82563899999963,
                    "velocity": 0.2047244094488189,
                    "duration": 0.20905899999999633
                },
                {
                    "name": "E2",
                    "midi": 40,
                    "time": 130.03469799999962,
                    "velocity": 0.2992125984251969,
                    "duration": 0.20905899999999633
                },
                {
                    "name": "F#4",
                    "midi": 66,
                    "time": 130.24375699999962,
                    "velocity": 0.2283464566929134,
                    "duration": 0.20905899999999633
                },
                {
                    "name": "B3",
                    "midi": 59,
                    "time": 130.24375699999962,
                    "velocity": 0.18110236220472442,
                    "duration": 0.20905899999999633
                },
                {
                    "name": "G3",
                    "midi": 55,
                    "time": 130.24375699999962,
                    "velocity": 0.14960629921259844,
                    "duration": 0.20905899999999633
                },
                {
                    "name": "G2",
                    "midi": 43,
                    "time": 130.45281599999961,
                    "velocity": 0.2677165354330709,
                    "duration": 0.20905899999999633
                },
                {
                    "name": "E4",
                    "midi": 64,
                    "time": 130.6618749999996,
                    "velocity": 0.2677165354330709,
                    "duration": 0.20905899999999633
                },
                {
                    "name": "B3",
                    "midi": 59,
                    "time": 130.6618749999996,
                    "velocity": 0.2125984251968504,
                    "duration": 0.20905899999999633
                },
                {
                    "name": "G3",
                    "midi": 55,
                    "time": 130.6618749999996,
                    "velocity": 0.2125984251968504,
                    "duration": 0.20905899999999633
                },
                {
                    "name": "B2",
                    "midi": 47,
                    "time": 130.8709339999996,
                    "velocity": 0.2677165354330709,
                    "duration": 0.20905899999999633
                },
                {
                    "name": "D4",
                    "midi": 62,
                    "time": 131.0799929999996,
                    "velocity": 0.2677165354330709,
                    "duration": 0.20905899999999633
                },
                {
                    "name": "B3",
                    "midi": 59,
                    "time": 131.0799929999996,
                    "velocity": 0.2125984251968504,
                    "duration": 0.20905899999999633
                },
                {
                    "name": "G3",
                    "midi": 55,
                    "time": 131.0799929999996,
                    "velocity": 0.2125984251968504,
                    "duration": 0.20905899999999633
                },
                {
                    "name": "E3",
                    "midi": 52,
                    "time": 131.2890519999996,
                    "velocity": 0.2992125984251969,
                    "duration": 0.20905899999999633
                },
                {
                    "name": "C4",
                    "midi": 60,
                    "time": 131.4981109999996,
                    "velocity": 0.23622047244094488,
                    "duration": 0.20905899999999633
                },
                {
                    "name": "G3",
                    "midi": 55,
                    "time": 131.4981109999996,
                    "velocity": 0.1968503937007874,
                    "duration": 0.20905899999999633
                },
                {
                    "name": "B2",
                    "midi": 47,
                    "time": 131.7071699999996,
                    "velocity": 0.28346456692913385,
                    "duration": 0.20905899999999633
                },
                {
                    "name": "B3",
                    "midi": 59,
                    "time": 131.9162289999996,
                    "velocity": 0.28346456692913385,
                    "duration": 0.20905899999999633
                },
                {
                    "name": "G3",
                    "midi": 55,
                    "time": 131.9162289999996,
                    "velocity": 0.23622047244094488,
                    "duration": 0.20905899999999633
                },
                {
                    "name": "E2",
                    "midi": 40,
                    "time": 132.12528799999959,
                    "velocity": 0.28346456692913385,
                    "duration": 0.20905899999999633
                },
                {
                    "name": "B3",
                    "midi": 59,
                    "time": 132.33434699999958,
                    "velocity": 0.28346456692913385,
                    "duration": 0.20905899999999633
                },
                {
                    "name": "G3",
                    "midi": 55,
                    "time": 132.33434699999958,
                    "velocity": 0.23622047244094488,
                    "duration": 0.20905899999999633
                },
                {
                    "name": "D#2",
                    "midi": 39,
                    "time": 132.54340599999958,
                    "velocity": 0.2992125984251969,
                    "duration": 0.20905899999999633
                },
                {
                    "name": "C4",
                    "midi": 60,
                    "time": 132.75246499999957,
                    "velocity": 0.2755905511811024,
                    "duration": 0.20905899999999633
                },
                {
                    "name": "A3",
                    "midi": 57,
                    "time": 132.75246499999957,
                    "velocity": 0.2125984251968504,
                    "duration": 0.20905899999999633
                },
                {
                    "name": "G3",
                    "midi": 55,
                    "time": 132.75246499999957,
                    "velocity": 0.2125984251968504,
                    "duration": 0.20905899999999633
                },
                {
                    "name": "A2",
                    "midi": 45,
                    "time": 132.96152399999957,
                    "velocity": 0.28346456692913385,
                    "duration": 0.20905899999999633
                },
                {
                    "name": "C4",
                    "midi": 60,
                    "time": 133.17058299999957,
                    "velocity": 0.2992125984251969,
                    "duration": 0.20905899999999633
                },
                {
                    "name": "A3",
                    "midi": 57,
                    "time": 133.17058299999957,
                    "velocity": 0.23622047244094488,
                    "duration": 0.20905899999999633
                },
                {
                    "name": "F#3",
                    "midi": 54,
                    "time": 133.17058299999957,
                    "velocity": 0.23622047244094488,
                    "duration": 0.20905899999999633
                },
                {
                    "name": "C3",
                    "midi": 48,
                    "time": 133.37964199999956,
                    "velocity": 0.33070866141732286,
                    "duration": 0.20905899999999633
                },
                {
                    "name": "D#4",
                    "midi": 63,
                    "time": 133.58870099999956,
                    "velocity": 0.3543307086614173,
                    "duration": 0.20905899999999633
                },
                {
                    "name": "A3",
                    "midi": 57,
                    "time": 133.58870099999956,
                    "velocity": 0.28346456692913385,
                    "duration": 0.20905899999999633
                },
                {
                    "name": "F#3",
                    "midi": 54,
                    "time": 133.58870099999956,
                    "velocity": 0.28346456692913385,
                    "duration": 0.20905899999999633
                },
                {
                    "name": "D2",
                    "midi": 38,
                    "time": 133.79775999999956,
                    "velocity": 0.33070866141732286,
                    "duration": 0.20905899999999633
                },
                {
                    "name": "F#3",
                    "midi": 54,
                    "time": 134.00681899999955,
                    "velocity": 0.25984251968503935,
                    "duration": 0.20905899999999633
                },
                {
                    "name": "C4",
                    "midi": 60,
                    "time": 134.00681899999955,
                    "velocity": 0.25984251968503935,
                    "duration": 0.20905899999999633
                },
                {
                    "name": "D#4",
                    "midi": 63,
                    "time": 134.00681899999955,
                    "velocity": 0.33070866141732286,
                    "duration": 0.20905899999999633
                },
                {
                    "name": "A2",
                    "midi": 45,
                    "time": 134.21587799999955,
                    "velocity": 0.3700787401574803,
                    "duration": 0.20905899999999633
                },
                {
                    "name": "F#3",
                    "midi": 54,
                    "time": 134.42493699999955,
                    "velocity": 0.23622047244094488,
                    "duration": 0.20905899999999633
                },
                {
                    "name": "D#4",
                    "midi": 63,
                    "time": 134.42493699999955,
                    "velocity": 0.2992125984251969,
                    "duration": 0.20905899999999633
                },
                {
                    "name": "C4",
                    "midi": 60,
                    "time": 134.42493699999955,
                    "velocity": 0.23622047244094488,
                    "duration": 0.20905899999999633
                },
                {
                    "name": "D3",
                    "midi": 50,
                    "time": 134.63399599999954,
                    "velocity": 0.2677165354330709,
                    "duration": 0.20905899999999633
                },
                {
                    "name": "A3",
                    "midi": 57,
                    "time": 134.84305499999954,
                    "velocity": 0.2204724409448819,
                    "duration": 0.20905899999999633
                },
                {
                    "name": "D4",
                    "midi": 62,
                    "time": 134.84305499999954,
                    "velocity": 0.2677165354330709,
                    "duration": 0.20905899999999633
                },
                {
                    "name": "C4",
                    "midi": 60,
                    "time": 134.84305499999954,
                    "velocity": 0.2204724409448819,
                    "duration": 0.20905899999999633
                },
                {
                    "name": "G2",
                    "midi": 43,
                    "time": 135.05211399999953,
                    "velocity": 0.2992125984251969,
                    "duration": 0.20905899999999633
                },
                {
                    "name": "A4",
                    "midi": 69,
                    "time": 135.26117299999953,
                    "velocity": 0.2204724409448819,
                    "duration": 0.20905899999999633
                },
                {
                    "name": "A#3",
                    "midi": 58,
                    "time": 135.26117299999953,
                    "velocity": 0.1732283464566929,
                    "duration": 0.20905899999999633
                },
                {
                    "name": "D4",
                    "midi": 62,
                    "time": 135.26117299999953,
                    "velocity": 0.1732283464566929,
                    "duration": 0.20905899999999633
                },
                {
                    "name": "A#2",
                    "midi": 46,
                    "time": 135.47023199999953,
                    "velocity": 0.25196850393700787,
                    "duration": 0.20905899999999633
                },
                {
                    "name": "G4",
                    "midi": 67,
                    "time": 135.67929099999952,
                    "velocity": 0.2992125984251969,
                    "duration": 0.20905899999999633
                },
                {
                    "name": "D4",
                    "midi": 62,
                    "time": 135.67929099999952,
                    "velocity": 0.23622047244094488,
                    "duration": 0.20905899999999633
                },
                {
                    "name": "A#3",
                    "midi": 58,
                    "time": 135.67929099999952,
                    "velocity": 0.23622047244094488,
                    "duration": 0.20905899999999633
                },
                {
                    "name": "D3",
                    "midi": 50,
                    "time": 135.88834999999952,
                    "velocity": 0.2677165354330709,
                    "duration": 0.20905899999999633
                },
                {
                    "name": "D#4",
                    "midi": 63,
                    "time": 136.09740899999952,
                    "velocity": 0.2677165354330709,
                    "duration": 0.20905899999999633
                },
                {
                    "name": "A#3",
                    "midi": 58,
                    "time": 136.09740899999952,
                    "velocity": 0.2125984251968504,
                    "duration": 0.20905899999999633
                },
                {
                    "name": "G3",
                    "midi": 55,
                    "time": 136.09740899999952,
                    "velocity": 0.2125984251968504,
                    "duration": 0.20905899999999633
                },
                {
                    "name": "F#2",
                    "midi": 42,
                    "time": 136.3064679999995,
                    "velocity": 0.2992125984251969,
                    "duration": 0.20905899999999633
                },
                {
                    "name": "D#4",
                    "midi": 63,
                    "time": 136.5155269999995,
                    "velocity": 0.1889763779527559,
                    "duration": 0.20905899999999633
                },
                {
                    "name": "A#4",
                    "midi": 70,
                    "time": 136.5155269999995,
                    "velocity": 0.2204724409448819,
                    "duration": 0.20905899999999633
                },
                {
                    "name": "C4",
                    "midi": 60,
                    "time": 136.5155269999995,
                    "velocity": 0.1889763779527559,
                    "duration": 0.20905899999999633
                },
                {
                    "name": "F2",
                    "midi": 41,
                    "time": 136.7245859999995,
                    "velocity": 0.2755905511811024,
                    "duration": 0.20905899999999633
                },
                {
                    "name": "D#4",
                    "midi": 63,
                    "time": 136.9336449999995,
                    "velocity": 0.2125984251968504,
                    "duration": 0.20905899999999633
                },
                {
                    "name": "A4",
                    "midi": 69,
                    "time": 136.9336449999995,
                    "velocity": 0.25984251968503935,
                    "duration": 0.20905899999999633
                },
                {
                    "name": "C4",
                    "midi": 60,
                    "time": 136.9336449999995,
                    "velocity": 0.2125984251968504,
                    "duration": 0.20905899999999633
                },
                {
                    "name": "A2",
                    "midi": 45,
                    "time": 137.1427039999995,
                    "velocity": 0.25984251968503935,
                    "duration": 0.20905899999999633
                },
                {
                    "name": "C4",
                    "midi": 60,
                    "time": 137.3517629999995,
                    "velocity": 0.2125984251968504,
                    "duration": 0.20905899999999633
                },
                {
                    "name": "F#4",
                    "midi": 66,
                    "time": 137.3517629999995,
                    "velocity": 0.25984251968503935,
                    "duration": 0.20905899999999633
                },
                {
                    "name": "D#4",
                    "midi": 63,
                    "time": 137.3517629999995,
                    "velocity": 0.2125984251968504,
                    "duration": 0.20905899999999633
                },
                {
                    "name": "A#2",
                    "midi": 46,
                    "time": 137.5608219999995,
                    "velocity": 0.3464566929133858,
                    "duration": 0.20905899999999633
                },
                {
                    "name": "C5",
                    "midi": 72,
                    "time": 137.7698809999995,
                    "velocity": 0.25196850393700787,
                    "duration": 0.20905899999999633
                },
                {
                    "name": "C#4",
                    "midi": 61,
                    "time": 137.7698809999995,
                    "velocity": 0.1968503937007874,
                    "duration": 0.20905899999999633
                },
                {
                    "name": "F4",
                    "midi": 65,
                    "time": 137.7698809999995,
                    "velocity": 0.1968503937007874,
                    "duration": 0.20905899999999633
                },
                {
                    "name": "C#3",
                    "midi": 49,
                    "time": 137.97893999999948,
                    "velocity": 0.28346456692913385,
                    "duration": 0.20905899999999633
                },
                {
                    "name": "A#4",
                    "midi": 70,
                    "time": 138.18799899999948,
                    "velocity": 0.3464566929133858,
                    "duration": 0.20905899999999633
                },
                {
                    "name": "F4",
                    "midi": 65,
                    "time": 138.18799899999948,
                    "velocity": 0.2755905511811024,
                    "duration": 0.20905899999999633
                },
                {
                    "name": "C#4",
                    "midi": 61,
                    "time": 138.18799899999948,
                    "velocity": 0.2755905511811024,
                    "duration": 0.20905899999999633
                },
                {
                    "name": "F3",
                    "midi": 53,
                    "time": 138.39705799999948,
                    "velocity": 0.2992125984251969,
                    "duration": 0.20905899999999633
                },
                {
                    "name": "F#4",
                    "midi": 66,
                    "time": 138.60611699999947,
                    "velocity": 0.2992125984251969,
                    "duration": 0.20905899999999633
                },
                {
                    "name": "C#4",
                    "midi": 61,
                    "time": 138.60611699999947,
                    "velocity": 0.23622047244094488,
                    "duration": 0.20905899999999633
                },
                {
                    "name": "A#3",
                    "midi": 58,
                    "time": 138.60611699999947,
                    "velocity": 0.23622047244094488,
                    "duration": 0.20905899999999633
                },
                {
                    "name": "A2",
                    "midi": 45,
                    "time": 138.81517599999947,
                    "velocity": 0.3464566929133858,
                    "duration": 0.20905899999999633
                },
                {
                    "name": "F#4",
                    "midi": 66,
                    "time": 139.02423499999946,
                    "velocity": 0.2125984251968504,
                    "duration": 0.20905899999999633
                },
                {
                    "name": "C#5",
                    "midi": 73,
                    "time": 139.02423499999946,
                    "velocity": 0.25196850393700787,
                    "duration": 0.20905899999999633
                },
                {
                    "name": "D#4",
                    "midi": 63,
                    "time": 139.02423499999946,
                    "velocity": 0.2125984251968504,
                    "duration": 0.20905899999999633
                },
                {
                    "name": "G#2",
                    "midi": 44,
                    "time": 139.23329399999946,
                    "velocity": 0.30708661417322836,
                    "duration": 0.20905899999999633
                },
                {
                    "name": "F#4",
                    "midi": 66,
                    "time": 139.44235299999946,
                    "velocity": 0.2440944881889764,
                    "duration": 0.20905899999999633
                },
                {
                    "name": "C5",
                    "midi": 72,
                    "time": 139.44235299999946,
                    "velocity": 0.29133858267716534,
                    "duration": 0.20905899999999633
                },
                {
                    "name": "D#4",
                    "midi": 63,
                    "time": 139.44235299999946,
                    "velocity": 0.2440944881889764,
                    "duration": 0.20905899999999633
                },
                {
                    "name": "C3",
                    "midi": 48,
                    "time": 139.65141199999945,
                    "velocity": 0.29133858267716534,
                    "duration": 0.20905899999999633
                },
                {
                    "name": "D#4",
                    "midi": 63,
                    "time": 139.86047099999945,
                    "velocity": 0.2440944881889764,
                    "duration": 0.20905899999999633
                },
                {
                    "name": "G#4",
                    "midi": 68,
                    "time": 139.86047099999945,
                    "velocity": 0.29133858267716534,
                    "duration": 0.20905899999999633
                },
                {
                    "name": "F#4",
                    "midi": 66,
                    "time": 139.86047099999945,
                    "velocity": 0.2440944881889764,
                    "duration": 0.20905899999999633
                },
                {
                    "name": "C#3",
                    "midi": 49,
                    "time": 140.06952999999945,
                    "velocity": 0.3700787401574803,
                    "duration": 0.20905899999999633
                },
                {
                    "name": "D#5",
                    "midi": 75,
                    "time": 140.27858899999944,
                    "velocity": 0.2755905511811024,
                    "duration": 0.20905899999999633
                },
                {
                    "name": "F4",
                    "midi": 65,
                    "time": 140.27858899999944,
                    "velocity": 0.2125984251968504,
                    "duration": 0.20905899999999633
                },
                {
                    "name": "G#4",
                    "midi": 68,
                    "time": 140.27858899999944,
                    "velocity": 0.2125984251968504,
                    "duration": 0.20905899999999633
                },
                {
                    "name": "F3",
                    "midi": 53,
                    "time": 140.48764799999944,
                    "velocity": 0.31496062992125984,
                    "duration": 0.20905899999999633
                },
                {
                    "name": "C#5",
                    "midi": 73,
                    "time": 140.69670699999944,
                    "velocity": 0.3700787401574803,
                    "duration": 0.20905899999999633
                },
                {
                    "name": "G#4",
                    "midi": 68,
                    "time": 140.69670699999944,
                    "velocity": 0.29133858267716534,
                    "duration": 0.20905899999999633
                },
                {
                    "name": "F4",
                    "midi": 65,
                    "time": 140.69670699999944,
                    "velocity": 0.29133858267716534,
                    "duration": 0.20905899999999633
                },
                {
                    "name": "G#3",
                    "midi": 56,
                    "time": 140.90576599999943,
                    "velocity": 0.33070866141732286,
                    "duration": 0.20905899999999633
                },
                {
                    "name": "C5",
                    "midi": 72,
                    "time": 141.11482499999943,
                    "velocity": 0.33070866141732286,
                    "duration": 0.20905899999999633
                },
                {
                    "name": "G#4",
                    "midi": 68,
                    "time": 141.11482499999943,
                    "velocity": 0.25984251968503935,
                    "duration": 0.20905899999999633
                },
                {
                    "name": "F4",
                    "midi": 65,
                    "time": 141.11482499999943,
                    "velocity": 0.25984251968503935,
                    "duration": 0.20905899999999633
                },
                {
                    "name": "B2",
                    "midi": 47,
                    "time": 141.32388399999942,
                    "velocity": 0.3700787401574803,
                    "duration": 0.20905899999999633
                },
                {
                    "name": "F4",
                    "midi": 65,
                    "time": 141.53294299999942,
                    "velocity": 0.23622047244094488,
                    "duration": 0.20905899999999633
                },
                {
                    "name": "G#4",
                    "midi": 68,
                    "time": 141.53294299999942,
                    "velocity": 0.23622047244094488,
                    "duration": 0.20905899999999633
                },
                {
                    "name": "B4",
                    "midi": 71,
                    "time": 141.53294299999942,
                    "velocity": 0.2755905511811024,
                    "duration": 0.20905899999999633
                },
                {
                    "name": "D#4",
                    "midi": 63,
                    "time": 141.53294299999942,
                    "velocity": 0.23622047244094488,
                    "duration": 0.20905899999999633
                },
                {
                    "name": "F3",
                    "midi": 53,
                    "time": 141.74200199999942,
                    "velocity": 0.33858267716535434,
                    "duration": 0.20905899999999633
                },
                {
                    "name": "F4",
                    "midi": 65,
                    "time": 141.9510609999994,
                    "velocity": 0.2677165354330709,
                    "duration": 0.20905899999999633
                },
                {
                    "name": "G#4",
                    "midi": 68,
                    "time": 141.9510609999994,
                    "velocity": 0.2677165354330709,
                    "duration": 0.20905899999999633
                },
                {
                    "name": "B4",
                    "midi": 71,
                    "time": 141.9510609999994,
                    "velocity": 0.3228346456692913,
                    "duration": 0.20905899999999633
                },
                {
                    "name": "D#4",
                    "midi": 63,
                    "time": 141.9510609999994,
                    "velocity": 0.2677165354330709,
                    "duration": 0.20905899999999633
                },
                {
                    "name": "D#2",
                    "midi": 39,
                    "time": 142.1601199999994,
                    "velocity": 0.3228346456692913,
                    "duration": 0.20905899999999633
                },
                {
                    "name": "F4",
                    "midi": 65,
                    "time": 142.3691789999994,
                    "velocity": 0.2677165354330709,
                    "duration": 0.20905899999999633
                },
                {
                    "name": "D#4",
                    "midi": 63,
                    "time": 142.3691789999994,
                    "velocity": 0.2677165354330709,
                    "duration": 0.20905899999999633
                },
                {
                    "name": "B4",
                    "midi": 71,
                    "time": 142.3691789999994,
                    "velocity": 0.3228346456692913,
                    "duration": 0.20905899999999633
                },
                {
                    "name": "G#4",
                    "midi": 68,
                    "time": 142.3691789999994,
                    "velocity": 0.2677165354330709,
                    "duration": 0.20905899999999633
                },
                {
                    "name": "A#2",
                    "midi": 46,
                    "time": 142.5782379999994,
                    "velocity": 0.3700787401574803,
                    "duration": 0.20905899999999633
                },
                {
                    "name": "F4",
                    "midi": 65,
                    "time": 142.7872969999994,
                    "velocity": 0.23622047244094488,
                    "duration": 0.20905899999999633
                },
                {
                    "name": "G#4",
                    "midi": 68,
                    "time": 142.7872969999994,
                    "velocity": 0.23622047244094488,
                    "duration": 0.20905899999999633
                },
                {
                    "name": "A#4",
                    "midi": 70,
                    "time": 142.7872969999994,
                    "velocity": 0.2755905511811024,
                    "duration": 0.20905899999999633
                },
                {
                    "name": "D4",
                    "midi": 62,
                    "time": 142.7872969999994,
                    "velocity": 0.23622047244094488,
                    "duration": 0.20905899999999633
                },
                {
                    "name": "A#2",
                    "midi": 46,
                    "time": 142.9963559999994,
                    "velocity": 0.3464566929133858,
                    "duration": 0.20905899999999633
                },
                {
                    "name": "F#4",
                    "midi": 66,
                    "time": 143.2054149999994,
                    "velocity": 0.2755905511811024,
                    "duration": 0.20905899999999633
                },
                {
                    "name": "G#4",
                    "midi": 68,
                    "time": 143.2054149999994,
                    "velocity": 0.2755905511811024,
                    "duration": 0.20905899999999633
                },
                {
                    "name": "A#4",
                    "midi": 70,
                    "time": 143.2054149999994,
                    "velocity": 0.33858267716535434,
                    "duration": 0.20905899999999633
                },
                {
                    "name": "D4",
                    "midi": 62,
                    "time": 143.2054149999994,
                    "velocity": 0.2755905511811024,
                    "duration": 0.20905899999999633
                },
                {
                    "name": "A#2",
                    "midi": 46,
                    "time": 143.4144739999994,
                    "velocity": 0.33858267716535434,
                    "duration": 0.20905899999999633
                },
                {
                    "name": "F#4",
                    "midi": 66,
                    "time": 143.62353299999938,
                    "velocity": 0.28346456692913385,
                    "duration": 0.20905899999999633
                },
                {
                    "name": "D4",
                    "midi": 62,
                    "time": 143.62353299999938,
                    "velocity": 0.28346456692913385,
                    "duration": 0.20905899999999633
                },
                {
                    "name": "A#4",
                    "midi": 70,
                    "time": 143.62353299999938,
                    "velocity": 0.3464566929133858,
                    "duration": 0.20905899999999633
                },
                {
                    "name": "G#4",
                    "midi": 68,
                    "time": 143.62353299999938,
                    "velocity": 0.28346456692913385,
                    "duration": 0.20905899999999633
                },
                {
                    "name": "D#3",
                    "midi": 51,
                    "time": 143.83259199999938,
                    "velocity": 0.3700787401574803,
                    "duration": 0.3135884999999803
                },
                {
                    "name": "D#2",
                    "midi": 39,
                    "time": 143.83259199999938,
                    "velocity": 0.3700787401574803,
                    "duration": 0.3135884999999803
                },
                {
                    "name": "G3",
                    "midi": 55,
                    "time": 143.98938624999937,
                    "velocity": 0.2440944881889764,
                    "duration": 0.3135884999999803
                },
                {
                    "name": "A#3",
                    "midi": 58,
                    "time": 143.98938624999937,
                    "velocity": 0.2440944881889764,
                    "duration": 0.3135884999999803
                },
                {
                    "name": "G4",
                    "midi": 67,
                    "time": 143.98938624999937,
                    "velocity": 0.3543307086614173,
                    "duration": 0.3135884999999803
                },
                {
                    "name": "G3",
                    "midi": 55,
                    "time": 144.30297474999935,
                    "velocity": 0.33858267716535434,
                    "duration": 0.3135885000000087
                },
                {
                    "name": "A#3",
                    "midi": 58,
                    "time": 144.30297474999935,
                    "velocity": 0.33858267716535434,
                    "duration": 0.3135885000000087
                },
                {
                    "name": "F4",
                    "midi": 65,
                    "time": 144.30297474999935,
                    "velocity": 0.49606299212598426,
                    "duration": 0.3135885000000087
                },
                {
                    "name": "G3",
                    "midi": 55,
                    "time": 144.61656324999936,
                    "velocity": 0.29133858267716534,
                    "duration": 0.3135885000000087
                },
                {
                    "name": "A#3",
                    "midi": 58,
                    "time": 144.61656324999936,
                    "velocity": 0.29133858267716534,
                    "duration": 0.3214282124999954
                },
                {
                    "name": "D#4",
                    "midi": 63,
                    "time": 144.61656324999936,
                    "velocity": 0.4251968503937008,
                    "duration": 0.3135885000000087
                },
                {
                    "name": "G3",
                    "midi": 55,
                    "time": 144.93015174999937,
                    "velocity": 0.29133858267716534,
                    "duration": 0.15679424999999014
                },
                {
                    "name": "A#3",
                    "midi": 58,
                    "time": 144.93015174999937,
                    "velocity": 0.29133858267716534,
                    "duration": 0.15679424999999014
                },
                {
                    "name": "D4",
                    "midi": 62,
                    "time": 144.93015174999937,
                    "velocity": 0.4251968503937008,
                    "duration": 0.15679424999999014
                },
                {
                    "name": "D#2",
                    "midi": 39,
                    "time": 145.08694599999936,
                    "velocity": 0.3700787401574803,
                    "duration": 0.3135884999999803
                },
                {
                    "name": "D#3",
                    "midi": 51,
                    "time": 145.08694599999936,
                    "velocity": 0.3700787401574803,
                    "duration": 0.3135884999999803
                },
                {
                    "name": "D#3",
                    "midi": 51,
                    "time": 145.24374024999935,
                    "velocity": 0.2677165354330709,
                    "duration": 0.3135884999999803
                },
                {
                    "name": "G3",
                    "midi": 55,
                    "time": 145.24374024999935,
                    "velocity": 0.2677165354330709,
                    "duration": 0.3135884999999803
                },
                {
                    "name": "C4",
                    "midi": 60,
                    "time": 145.24374024999935,
                    "velocity": 0.3543307086614173,
                    "duration": 0.3135884999999803
                },
                {
                    "name": "D#3",
                    "midi": 51,
                    "time": 145.55732874999933,
                    "velocity": 0.30708661417322836,
                    "duration": 0.3135885000000087
                },
                {
                    "name": "G3",
                    "midi": 55,
                    "time": 145.55732874999933,
                    "velocity": 0.30708661417322836,
                    "duration": 0.3135885000000087
                },
                {
                    "name": "A3",
                    "midi": 57,
                    "time": 145.55732874999933,
                    "velocity": 0.4251968503937008,
                    "duration": 0.3135885000000087
                },
                {
                    "name": "D#3",
                    "midi": 51,
                    "time": 145.87091724999934,
                    "velocity": 0.30708661417322836,
                    "duration": 0.3135885000000087
                },
                {
                    "name": "G3",
                    "midi": 55,
                    "time": 145.87091724999934,
                    "velocity": 0.30708661417322836,
                    "duration": 0.3135885000000087
                },
                {
                    "name": "A#3",
                    "midi": 58,
                    "time": 145.87091724999934,
                    "velocity": 0.4251968503937008,
                    "duration": 0.3135885000000087
                },
                {
                    "name": "G3",
                    "midi": 55,
                    "time": 146.18450574999935,
                    "velocity": 0.33858267716535434,
                    "duration": 0.15679424999999014
                },
                {
                    "name": "A#3",
                    "midi": 58,
                    "time": 146.18450574999935,
                    "velocity": 0.33858267716535434,
                    "duration": 0.15679424999999014
                },
                {
                    "name": "D#4",
                    "midi": 63,
                    "time": 146.18450574999935,
                    "velocity": 0.33858267716535434,
                    "duration": 0.15679424999999014
                },
                {
                    "name": "G4",
                    "midi": 67,
                    "time": 146.18450574999935,
                    "velocity": 0.4251968503937008,
                    "duration": 0.15679424999999014
                },
                {
                    "name": "D#3",
                    "midi": 51,
                    "time": 146.34129999999934,
                    "velocity": 0.3700787401574803,
                    "duration": 0.3135884999999803
                },
                {
                    "name": "D#2",
                    "midi": 39,
                    "time": 146.34129999999934,
                    "velocity": 0.3700787401574803,
                    "duration": 0.3135884999999803
                },
                {
                    "name": "D4",
                    "midi": 62,
                    "time": 146.49809424999933,
                    "velocity": 0.2440944881889764,
                    "duration": 0.3135884999999803
                },
                {
                    "name": "G#3",
                    "midi": 56,
                    "time": 146.49809424999933,
                    "velocity": 0.2440944881889764,
                    "duration": 0.3135884999999803
                },
                {
                    "name": "B3",
                    "midi": 59,
                    "time": 146.49809424999933,
                    "velocity": 0.2440944881889764,
                    "duration": 0.3135884999999803
                },
                {
                    "name": "G4",
                    "midi": 67,
                    "time": 146.49809424999933,
                    "velocity": 0.3543307086614173,
                    "duration": 0.3135884999999803
                },
                {
                    "name": "D4",
                    "midi": 62,
                    "time": 146.8116827499993,
                    "velocity": 0.33858267716535434,
                    "duration": 0.3135885000000087
                },
                {
                    "name": "G#3",
                    "midi": 56,
                    "time": 146.8116827499993,
                    "velocity": 0.33858267716535434,
                    "duration": 0.3135885000000087
                },
                {
                    "name": "B3",
                    "midi": 59,
                    "time": 146.8116827499993,
                    "velocity": 0.33858267716535434,
                    "duration": 0.3135885000000087
                },
                {
                    "name": "E4",
                    "midi": 64,
                    "time": 146.8116827499993,
                    "velocity": 0.49606299212598426,
                    "duration": 0.3135885000000087
                },
                {
                    "name": "D4",
                    "midi": 62,
                    "time": 147.12527124999932,
                    "velocity": 0.29133858267716534,
                    "duration": 0.3135885000000087
                },
                {
                    "name": "G#3",
                    "midi": 56,
                    "time": 147.12527124999932,
                    "velocity": 0.29133858267716534,
                    "duration": 0.3135885000000087
                },
                {
                    "name": "B3",
                    "midi": 59,
                    "time": 147.12527124999932,
                    "velocity": 0.29133858267716534,
                    "duration": 0.3214282124999954
                },
                {
                    "name": "F4",
                    "midi": 65,
                    "time": 147.12527124999932,
                    "velocity": 0.4251968503937008,
                    "duration": 0.3135885000000087
                },
                {
                    "name": "D4",
                    "midi": 62,
                    "time": 147.43885974999932,
                    "velocity": 0.29133858267716534,
                    "duration": 0.15679424999999014
                },
                {
                    "name": "G#3",
                    "midi": 56,
                    "time": 147.43885974999932,
                    "velocity": 0.29133858267716534,
                    "duration": 0.15679424999999014
                },
                {
                    "name": "B3",
                    "midi": 59,
                    "time": 147.43885974999932,
                    "velocity": 0.29133858267716534,
                    "duration": 0.15679424999999014
                },
                {
                    "name": "G4",
                    "midi": 67,
                    "time": 147.43885974999932,
                    "velocity": 0.4251968503937008,
                    "duration": 0.15679424999999014
                },
                {
                    "name": "D#2",
                    "midi": 39,
                    "time": 147.5956539999993,
                    "velocity": 0.3700787401574803,
                    "duration": 0.3135884999999803
                },
                {
                    "name": "D#3",
                    "midi": 51,
                    "time": 147.5956539999993,
                    "velocity": 0.3700787401574803,
                    "duration": 0.3135884999999803
                },
                {
                    "name": "B3",
                    "midi": 59,
                    "time": 147.7524482499993,
                    "velocity": 0.2677165354330709,
                    "duration": 0.3135884999999803
                },
                {
                    "name": "D4",
                    "midi": 62,
                    "time": 147.7524482499993,
                    "velocity": 0.2677165354330709,
                    "duration": 0.3135884999999803
                },
                {
                    "name": "F4",
                    "midi": 65,
                    "time": 147.7524482499993,
                    "velocity": 0.2677165354330709,
                    "duration": 0.3135884999999803
                },
                {
                    "name": "G#4",
                    "midi": 68,
                    "time": 147.7524482499993,
                    "velocity": 0.3543307086614173,
                    "duration": 0.3135884999999803
                },
                {
                    "name": "B3",
                    "midi": 59,
                    "time": 148.06603674999928,
                    "velocity": 0.30708661417322836,
                    "duration": 0.3135885000000087
                },
                {
                    "name": "D4",
                    "midi": 62,
                    "time": 148.06603674999928,
                    "velocity": 0.30708661417322836,
                    "duration": 0.3135885000000087
                },
                {
                    "name": "F4",
                    "midi": 65,
                    "time": 148.06603674999928,
                    "velocity": 0.30708661417322836,
                    "duration": 0.3135885000000087
                },
                {
                    "name": "A4",
                    "midi": 69,
                    "time": 148.06603674999928,
                    "velocity": 0.4251968503937008,
                    "duration": 0.3135885000000087
                },
                {
                    "name": "A#3",
                    "midi": 58,
                    "time": 148.3796252499993,
                    "velocity": 0.30708661417322836,
                    "duration": 0.3135885000000087
                },
                {
                    "name": "D4",
                    "midi": 62,
                    "time": 148.3796252499993,
                    "velocity": 0.30708661417322836,
                    "duration": 0.3135885000000087
                },
                {
                    "name": "F4",
                    "midi": 65,
                    "time": 148.3796252499993,
                    "velocity": 0.30708661417322836,
                    "duration": 0.3135885000000087
                },
                {
                    "name": "G#4",
                    "midi": 68,
                    "time": 148.3796252499993,
                    "velocity": 0.30708661417322836,
                    "duration": 0.3135885000000087
                },
                {
                    "name": "C5",
                    "midi": 72,
                    "time": 148.3796252499993,
                    "velocity": 0.4251968503937008,
                    "duration": 0.3135885000000087
                },
                {
                    "name": "D4",
                    "midi": 62,
                    "time": 148.6932137499993,
                    "velocity": 0.33858267716535434,
                    "duration": 0.15679424999999014
                },
                {
                    "name": "A#3",
                    "midi": 58,
                    "time": 148.6932137499993,
                    "velocity": 0.33858267716535434,
                    "duration": 0.15679424999999014
                },
                {
                    "name": "F4",
                    "midi": 65,
                    "time": 148.6932137499993,
                    "velocity": 0.33858267716535434,
                    "duration": 0.15679424999999014
                },
                {
                    "name": "G#4",
                    "midi": 68,
                    "time": 148.6932137499993,
                    "velocity": 0.33858267716535434,
                    "duration": 0.15679424999999014
                },
                {
                    "name": "A#4",
                    "midi": 70,
                    "time": 148.6932137499993,
                    "velocity": 0.4251968503937008,
                    "duration": 0.15679424999999014
                },
                {
                    "name": "D#3",
                    "midi": 51,
                    "time": 148.8500079999993,
                    "velocity": 0.3700787401574803,
                    "duration": 0.3135884999999803
                },
                {
                    "name": "D#2",
                    "midi": 39,
                    "time": 148.8500079999993,
                    "velocity": 0.3700787401574803,
                    "duration": 0.3135884999999803
                },
                {
                    "name": "G3",
                    "midi": 55,
                    "time": 149.00680224999928,
                    "velocity": 0.2440944881889764,
                    "duration": 0.3135884999999803
                },
                {
                    "name": "A#3",
                    "midi": 58,
                    "time": 149.00680224999928,
                    "velocity": 0.2440944881889764,
                    "duration": 0.3135884999999803
                },
                {
                    "name": "G4",
                    "midi": 67,
                    "time": 149.00680224999928,
                    "velocity": 0.3543307086614173,
                    "duration": 0.3135884999999803
                },
                {
                    "name": "G3",
                    "midi": 55,
                    "time": 149.32039074999926,
                    "velocity": 0.33858267716535434,
                    "duration": 0.3135885000000087
                },
                {
                    "name": "A#3",
                    "midi": 58,
                    "time": 149.32039074999926,
                    "velocity": 0.33858267716535434,
                    "duration": 0.3135885000000087
                },
                {
                    "name": "F4",
                    "midi": 65,
                    "time": 149.32039074999926,
                    "velocity": 0.49606299212598426,
                    "duration": 0.3135885000000087
                },
                {
                    "name": "G3",
                    "midi": 55,
                    "time": 149.63397924999927,
                    "velocity": 0.29133858267716534,
                    "duration": 0.3135885000000087
                },
                {
                    "name": "A#3",
                    "midi": 58,
                    "time": 149.63397924999927,
                    "velocity": 0.29133858267716534,
                    "duration": 0.3214282124999954
                },
                {
                    "name": "D#4",
                    "midi": 63,
                    "time": 149.63397924999927,
                    "velocity": 0.4251968503937008,
                    "duration": 0.3135885000000087
                },
                {
                    "name": "G3",
                    "midi": 55,
                    "time": 149.94756774999928,
                    "velocity": 0.29133858267716534,
                    "duration": 0.15679424999999014
                },
                {
                    "name": "A#3",
                    "midi": 58,
                    "time": 149.94756774999928,
                    "velocity": 0.29133858267716534,
                    "duration": 0.15679424999999014
                },
                {
                    "name": "D4",
                    "midi": 62,
                    "time": 149.94756774999928,
                    "velocity": 0.4251968503937008,
                    "duration": 0.15679424999999014
                },
                {
                    "name": "D#2",
                    "midi": 39,
                    "time": 150.10436199999927,
                    "velocity": 0.3700787401574803,
                    "duration": 0.3135884999999803
                },
                {
                    "name": "D#3",
                    "midi": 51,
                    "time": 150.10436199999927,
                    "velocity": 0.3700787401574803,
                    "duration": 0.3135884999999803
                },
                {
                    "name": "D#3",
                    "midi": 51,
                    "time": 150.26115624999926,
                    "velocity": 0.2677165354330709,
                    "duration": 0.3135884999999803
                },
                {
                    "name": "G3",
                    "midi": 55,
                    "time": 150.26115624999926,
                    "velocity": 0.2677165354330709,
                    "duration": 0.3135884999999803
                },
                {
                    "name": "C4",
                    "midi": 60,
                    "time": 150.26115624999926,
                    "velocity": 0.3543307086614173,
                    "duration": 0.3135884999999803
                },
                {
                    "name": "D#3",
                    "midi": 51,
                    "time": 150.57474474999924,
                    "velocity": 0.30708661417322836,
                    "duration": 0.3135885000000087
                },
                {
                    "name": "G3",
                    "midi": 55,
                    "time": 150.57474474999924,
                    "velocity": 0.30708661417322836,
                    "duration": 0.3135885000000087
                },
                {
                    "name": "A3",
                    "midi": 57,
                    "time": 150.57474474999924,
                    "velocity": 0.4251968503937008,
                    "duration": 0.3135885000000087
                },
                {
                    "name": "D#3",
                    "midi": 51,
                    "time": 150.88833324999925,
                    "velocity": 0.30708661417322836,
                    "duration": 0.3135885000000087
                },
                {
                    "name": "G3",
                    "midi": 55,
                    "time": 150.88833324999925,
                    "velocity": 0.30708661417322836,
                    "duration": 0.3135885000000087
                },
                {
                    "name": "A#3",
                    "midi": 58,
                    "time": 150.88833324999925,
                    "velocity": 0.4251968503937008,
                    "duration": 0.3135885000000087
                },
                {
                    "name": "G3",
                    "midi": 55,
                    "time": 151.20192174999926,
                    "velocity": 0.33858267716535434,
                    "duration": 0.15679424999999014
                },
                {
                    "name": "A#3",
                    "midi": 58,
                    "time": 151.20192174999926,
                    "velocity": 0.33858267716535434,
                    "duration": 0.15679424999999014
                },
                {
                    "name": "D#4",
                    "midi": 63,
                    "time": 151.20192174999926,
                    "velocity": 0.33858267716535434,
                    "duration": 0.15679424999999014
                },
                {
                    "name": "G4",
                    "midi": 67,
                    "time": 151.20192174999926,
                    "velocity": 0.4251968503937008,
                    "duration": 0.15679424999999014
                },
                {
                    "name": "D3",
                    "midi": 50,
                    "time": 151.35871599999925,
                    "velocity": 0.3700787401574803,
                    "duration": 0.3135884999999803
                },
                {
                    "name": "D2",
                    "midi": 38,
                    "time": 151.35871599999925,
                    "velocity": 0.3700787401574803,
                    "duration": 0.3135884999999803
                },
                {
                    "name": "A3",
                    "midi": 57,
                    "time": 151.51551024999924,
                    "velocity": 0.2440944881889764,
                    "duration": 0.3135884999999803
                },
                {
                    "name": "C4",
                    "midi": 60,
                    "time": 151.51551024999924,
                    "velocity": 0.2440944881889764,
                    "duration": 0.3135884999999803
                },
                {
                    "name": "G4",
                    "midi": 67,
                    "time": 151.51551024999924,
                    "velocity": 0.3543307086614173,
                    "duration": 0.3135884999999803
                },
                {
                    "name": "A3",
                    "midi": 57,
                    "time": 151.82909874999922,
                    "velocity": 0.33858267716535434,
                    "duration": 0.3135885000000087
                },
                {
                    "name": "C4",
                    "midi": 60,
                    "time": 151.82909874999922,
                    "velocity": 0.33858267716535434,
                    "duration": 0.3135885000000087
                },
                {
                    "name": "F#4",
                    "midi": 66,
                    "time": 151.82909874999922,
                    "velocity": 0.49606299212598426,
                    "duration": 0.3135885000000087
                },
                {
                    "name": "F#4",
                    "midi": 66,
                    "time": 152.14268724999923,
                    "velocity": 0.29133858267716534,
                    "duration": 0.3135885000000087
                },
                {
                    "name": "A4",
                    "midi": 69,
                    "time": 152.14268724999923,
                    "velocity": 0.29133858267716534,
                    "duration": 0.3214282124999954
                },
                {
                    "name": "D#5",
                    "midi": 75,
                    "time": 152.14268724999923,
                    "velocity": 0.4251968503937008,
                    "duration": 0.3135885000000087
                },
                {
                    "name": "F#4",
                    "midi": 66,
                    "time": 152.45627574999924,
                    "velocity": 0.29133858267716534,
                    "duration": 0.15679424999999014
                },
                {
                    "name": "A4",
                    "midi": 69,
                    "time": 152.45627574999924,
                    "velocity": 0.29133858267716534,
                    "duration": 0.15679424999999014
                },
                {
                    "name": "D5",
                    "midi": 74,
                    "time": 152.45627574999924,
                    "velocity": 0.4251968503937008,
                    "duration": 0.15679424999999014
                },
                {
                    "name": "G2",
                    "midi": 43,
                    "time": 152.61306999999923,
                    "velocity": 0.3700787401574803,
                    "duration": 0.3135884999999803
                },
                {
                    "name": "G3",
                    "midi": 55,
                    "time": 152.61306999999923,
                    "velocity": 0.3700787401574803,
                    "duration": 0.3135884999999803
                },
                {
                    "name": "G4",
                    "midi": 67,
                    "time": 152.76986424999922,
                    "velocity": 0.2677165354330709,
                    "duration": 0.3135884999999803
                },
                {
                    "name": "B4",
                    "midi": 71,
                    "time": 152.76986424999922,
                    "velocity": 0.2677165354330709,
                    "duration": 0.3135884999999803
                },
                {
                    "name": "D5",
                    "midi": 74,
                    "time": 152.76986424999922,
                    "velocity": 0.3543307086614173,
                    "duration": 0.3135884999999803
                },
                {
                    "name": "D4",
                    "midi": 62,
                    "time": 153.0834527499992,
                    "velocity": 0.30708661417322836,
                    "duration": 0.3135885000000087
                },
                {
                    "name": "G4",
                    "midi": 67,
                    "time": 153.0834527499992,
                    "velocity": 0.30708661417322836,
                    "duration": 0.3135885000000087
                },
                {
                    "name": "B4",
                    "midi": 71,
                    "time": 153.0834527499992,
                    "velocity": 0.4251968503937008,
                    "duration": 0.3135885000000087
                },
                {
                    "name": "B3",
                    "midi": 59,
                    "time": 153.3970412499992,
                    "velocity": 0.29133858267716534,
                    "duration": 0.3135885000000087
                },
                {
                    "name": "D4",
                    "midi": 62,
                    "time": 153.3970412499992,
                    "velocity": 0.29133858267716534,
                    "duration": 0.3135885000000087
                },
                {
                    "name": "G4",
                    "midi": 67,
                    "time": 153.3970412499992,
                    "velocity": 0.4015748031496063,
                    "duration": 0.3135885000000087
                },
                {
                    "name": "G3",
                    "midi": 55,
                    "time": 153.7106297499992,
                    "velocity": 0.3228346456692913,
                    "duration": 0.15679424999999014
                },
                {
                    "name": "B3",
                    "midi": 59,
                    "time": 153.7106297499992,
                    "velocity": 0.3228346456692913,
                    "duration": 0.15679424999999014
                },
                {
                    "name": "D4",
                    "midi": 62,
                    "time": 153.7106297499992,
                    "velocity": 0.3228346456692913,
                    "duration": 0.15679424999999014
                },
                {
                    "name": "G4",
                    "midi": 67,
                    "time": 153.7106297499992,
                    "velocity": 0.4094488188976378,
                    "duration": 0.15679424999999014
                },
                {
                    "name": "G2",
                    "midi": 43,
                    "time": 153.8674239999992,
                    "velocity": 0.3464566929133858,
                    "duration": 0.3135884999999803
                },
                {
                    "name": "C4",
                    "midi": 60,
                    "time": 154.0242182499992,
                    "velocity": 0.2440944881889764,
                    "duration": 0.3135884999999803
                },
                {
                    "name": "D#4",
                    "midi": 63,
                    "time": 154.0242182499992,
                    "velocity": 0.2440944881889764,
                    "duration": 0.3135884999999803
                },
                {
                    "name": "G#4",
                    "midi": 68,
                    "time": 154.0242182499992,
                    "velocity": 0.33070866141732286,
                    "duration": 0.3135884999999803
                },
                {
                    "name": "C4",
                    "midi": 60,
                    "time": 154.33780674999917,
                    "velocity": 0.28346456692913385,
                    "duration": 0.3135885000000087
                },
                {
                    "name": "D#4",
                    "midi": 63,
                    "time": 154.33780674999917,
                    "velocity": 0.28346456692913385,
                    "duration": 0.3135885000000087
                },
                {
                    "name": "G4",
                    "midi": 67,
                    "time": 154.33780674999917,
                    "velocity": 0.3858267716535433,
                    "duration": 0.3135885000000087
                },
                {
                    "name": "G3",
                    "midi": 55,
                    "time": 154.65139524999918,
                    "velocity": 0.28346456692913385,
                    "duration": 0.3135885000000087
                },
                {
                    "name": "C4",
                    "midi": 60,
                    "time": 154.65139524999918,
                    "velocity": 0.28346456692913385,
                    "duration": 0.3135885000000087
                },
                {
                    "name": "F4",
                    "midi": 65,
                    "time": 154.65139524999918,
                    "velocity": 0.3858267716535433,
                    "duration": 0.3135885000000087
                },
                {
                    "name": "G3",
                    "midi": 55,
                    "time": 154.9649837499992,
                    "velocity": 0.30708661417322836,
                    "duration": 0.15679424999999014
                },
                {
                    "name": "C4",
                    "midi": 60,
                    "time": 154.9649837499992,
                    "velocity": 0.30708661417322836,
                    "duration": 0.15679424999999014
                },
                {
                    "name": "D#4",
                    "midi": 63,
                    "time": 154.9649837499992,
                    "velocity": 0.3937007874015748,
                    "duration": 0.15679424999999014
                },
                {
                    "name": "F2",
                    "midi": 41,
                    "time": 155.12177799999918,
                    "velocity": 0.30708661417322836,
                    "duration": 0.3135884999999803
                },
                {
                    "name": "F3",
                    "midi": 53,
                    "time": 155.27857224999917,
                    "velocity": 0.2125984251968504,
                    "duration": 0.3135884999999803
                },
                {
                    "name": "G#3",
                    "midi": 56,
                    "time": 155.27857224999917,
                    "velocity": 0.2125984251968504,
                    "duration": 0.3135884999999803
                },
                {
                    "name": "C4",
                    "midi": 60,
                    "time": 155.27857224999917,
                    "velocity": 0.2125984251968504,
                    "duration": 0.3135884999999803
                },
                {
                    "name": "D#4",
                    "midi": 63,
                    "time": 155.27857224999917,
                    "velocity": 0.29133858267716534,
                    "duration": 0.3135884999999803
                },
                {
                    "name": "C4",
                    "midi": 60,
                    "time": 155.59216074999915,
                    "velocity": 0.25196850393700787,
                    "duration": 0.3135885000000087
                },
                {
                    "name": "F3",
                    "midi": 53,
                    "time": 155.59216074999915,
                    "velocity": 0.25196850393700787,
                    "duration": 0.3135885000000087
                },
                {
                    "name": "G#3",
                    "midi": 56,
                    "time": 155.59216074999915,
                    "velocity": 0.25196850393700787,
                    "duration": 0.3135885000000087
                },
                {
                    "name": "D4",
                    "midi": 62,
                    "time": 155.59216074999915,
                    "velocity": 0.3464566929133858,
                    "duration": 0.3135885000000087
                },
                {
                    "name": "G#3",
                    "midi": 56,
                    "time": 155.90574924999916,
                    "velocity": 0.25196850393700787,
                    "duration": 0.3135885000000087
                },
                {
                    "name": "C4",
                    "midi": 60,
                    "time": 155.90574924999916,
                    "velocity": 0.25196850393700787,
                    "duration": 0.3135885000000087
                },
                {
                    "name": "D4",
                    "midi": 62,
                    "time": 155.90574924999916,
                    "velocity": 0.3464566929133858,
                    "duration": 0.3135885000000087
                },
                {
                    "name": "G#3",
                    "midi": 56,
                    "time": 156.21933774999917,
                    "velocity": 0.2755905511811024,
                    "duration": 0.15679424999999014
                },
                {
                    "name": "F3",
                    "midi": 53,
                    "time": 156.21933774999917,
                    "velocity": 0.2755905511811024,
                    "duration": 0.15679424999999014
                },
                {
                    "name": "C4",
                    "midi": 60,
                    "time": 156.21933774999917,
                    "velocity": 0.2755905511811024,
                    "duration": 0.15679424999999014
                },
                {
                    "name": "D4",
                    "midi": 62,
                    "time": 156.21933774999917,
                    "velocity": 0.3543307086614173,
                    "duration": 0.15679424999999014
                },
                {
                    "name": "G2",
                    "midi": 43,
                    "time": 156.37613199999916,
                    "velocity": 0.2755905511811024,
                    "duration": 0.3135884999999803
                },
                {
                    "name": "G3",
                    "midi": 55,
                    "time": 156.53292624999915,
                    "velocity": 0.1889763779527559,
                    "duration": 0.3135884999999803
                },
                {
                    "name": "B3",
                    "midi": 59,
                    "time": 156.53292624999915,
                    "velocity": 0.1889763779527559,
                    "duration": 0.3135884999999803
                },
                {
                    "name": "D#4",
                    "midi": 63,
                    "time": 156.53292624999915,
                    "velocity": 0.25984251968503935,
                    "duration": 0.3135884999999803
                },
                {
                    "name": "B3",
                    "midi": 59,
                    "time": 156.84651474999913,
                    "velocity": 0.2204724409448819,
                    "duration": 0.3135885000000087
                },
                {
                    "name": "G3",
                    "midi": 55,
                    "time": 156.84651474999913,
                    "velocity": 0.2204724409448819,
                    "duration": 0.3135885000000087
                },
                {
                    "name": "D4",
                    "midi": 62,
                    "time": 156.84651474999913,
                    "velocity": 0.30708661417322836,
                    "duration": 0.3135885000000087
                },
                {
                    "name": "D3",
                    "midi": 50,
                    "time": 157.16010324999914,
                    "velocity": 0.2204724409448819,
                    "duration": 0.3135885000000087
                },
                {
                    "name": "G3",
                    "midi": 55,
                    "time": 157.16010324999914,
                    "velocity": 0.2204724409448819,
                    "duration": 0.3135885000000087
                },
                {
                    "name": "C4",
                    "midi": 60,
                    "time": 157.16010324999914,
                    "velocity": 0.30708661417322836,
                    "duration": 0.3135885000000087
                },
                {
                    "name": "G3",
                    "midi": 55,
                    "time": 157.47369174999915,
                    "velocity": 0.2440944881889764,
                    "duration": 0.15679424999999014
                },
                {
                    "name": "D3",
                    "midi": 50,
                    "time": 157.47369174999915,
                    "velocity": 0.2440944881889764,
                    "duration": 0.15679424999999014
                },
                {
                    "name": "B3",
                    "midi": 59,
                    "time": 157.47369174999915,
                    "velocity": 0.31496062992125984,
                    "duration": 0.15679424999999014
                },
                {
                    "name": "B2",
                    "midi": 47,
                    "time": 157.78728024999913,
                    "velocity": 0.1732283464566929,
                    "duration": 0.3135885000000087
                },
                {
                    "name": "D3",
                    "midi": 50,
                    "time": 157.78728024999913,
                    "velocity": 0.1732283464566929,
                    "duration": 0.3135885000000087
                },
                {
                    "name": "G#3",
                    "midi": 56,
                    "time": 157.78728024999913,
                    "velocity": 0.2440944881889764,
                    "duration": 0.3135885000000087
                },
                {
                    "name": "D3",
                    "midi": 50,
                    "time": 158.10086874999914,
                    "velocity": 0.2047244094488189,
                    "duration": 0.3135885000000087
                },
                {
                    "name": "B2",
                    "midi": 47,
                    "time": 158.10086874999914,
                    "velocity": 0.2047244094488189,
                    "duration": 0.3135885000000087
                },
                {
                    "name": "G3",
                    "midi": 55,
                    "time": 158.10086874999914,
                    "velocity": 0.28346456692913385,
                    "duration": 0.3135885000000087
                },
                {
                    "name": "B2",
                    "midi": 47,
                    "time": 158.41445724999915,
                    "velocity": 0.1968503937007874,
                    "duration": 0.3135885000000087
                },
                {
                    "name": "D3",
                    "midi": 50,
                    "time": 158.41445724999915,
                    "velocity": 0.1968503937007874,
                    "duration": 0.3135885000000087
                },
                {
                    "name": "G3",
                    "midi": 55,
                    "time": 158.41445724999915,
                    "velocity": 0.2755905511811024,
                    "duration": 0.3135885000000087
                },
                {
                    "name": "D3",
                    "midi": 50,
                    "time": 158.72804574999915,
                    "velocity": 0.2125984251968504,
                    "duration": 0.15679424999999014
                },
                {
                    "name": "B2",
                    "midi": 47,
                    "time": 158.72804574999915,
                    "velocity": 0.2125984251968504,
                    "duration": 0.15679424999999014
                },
                {
                    "name": "G3",
                    "midi": 55,
                    "time": 158.72804574999915,
                    "velocity": 0.2755905511811024,
                    "duration": 0.15679424999999014
                },
                {
                    "name": "G1",
                    "midi": 31,
                    "time": 158.88483999999914,
                    "velocity": 0.2440944881889764,
                    "duration": 0.3135884999999803
                },
                {
                    "name": "C3",
                    "midi": 48,
                    "time": 159.04163424999913,
                    "velocity": 0.15748031496062992,
                    "duration": 0.3135884999999803
                },
                {
                    "name": "D#3",
                    "midi": 51,
                    "time": 159.04163424999913,
                    "velocity": 0.15748031496062992,
                    "duration": 0.3135884999999803
                },
                {
                    "name": "A#3",
                    "midi": 58,
                    "time": 159.04163424999913,
                    "velocity": 0.2283464566929134,
                    "duration": 0.3135884999999803
                },
                {
                    "name": "D#3",
                    "midi": 51,
                    "time": 159.35522274999911,
                    "velocity": 0.1889763779527559,
                    "duration": 0.3135885000000087
                },
                {
                    "name": "C3",
                    "midi": 48,
                    "time": 159.35522274999911,
                    "velocity": 0.1889763779527559,
                    "duration": 0.3135885000000087
                },
                {
                    "name": "G#3",
                    "midi": 56,
                    "time": 159.35522274999911,
                    "velocity": 0.2677165354330709,
                    "duration": 0.3135885000000087
                },
                {
                    "name": "G2",
                    "midi": 43,
                    "time": 159.66881124999912,
                    "velocity": 0.18110236220472442,
                    "duration": 0.3135885000000087
                },
                {
                    "name": "C3",
                    "midi": 48,
                    "time": 159.66881124999912,
                    "velocity": 0.18110236220472442,
                    "duration": 0.3135885000000087
                },
                {
                    "name": "D#3",
                    "midi": 51,
                    "time": 159.66881124999912,
                    "velocity": 0.18110236220472442,
                    "duration": 0.3135885000000087
                },
                {
                    "name": "G3",
                    "midi": 55,
                    "time": 159.66881124999912,
                    "velocity": 0.25984251968503935,
                    "duration": 0.3135885000000087
                },
                {
                    "name": "C3",
                    "midi": 48,
                    "time": 159.98239974999913,
                    "velocity": 0.1968503937007874,
                    "duration": 0.15679424999999014
                },
                {
                    "name": "G2",
                    "midi": 43,
                    "time": 159.98239974999913,
                    "velocity": 0.1968503937007874,
                    "duration": 0.15679424999999014
                },
                {
                    "name": "F3",
                    "midi": 53,
                    "time": 159.98239974999913,
                    "velocity": 0.25984251968503935,
                    "duration": 0.15679424999999014
                },
                {
                    "name": "F1",
                    "midi": 29,
                    "time": 160.13919399999912,
                    "velocity": 0.2283464566929134,
                    "duration": 0.3135884999999803
                },
                {
                    "name": "F2",
                    "midi": 41,
                    "time": 160.2959882499991,
                    "velocity": 0.14173228346456693,
                    "duration": 0.3135884999999803
                },
                {
                    "name": "G#2",
                    "midi": 44,
                    "time": 160.2959882499991,
                    "velocity": 0.14173228346456693,
                    "duration": 0.3135884999999803
                },
                {
                    "name": "C3",
                    "midi": 48,
                    "time": 160.2959882499991,
                    "velocity": 0.14173228346456693,
                    "duration": 0.3135884999999803
                },
                {
                    "name": "D#3",
                    "midi": 51,
                    "time": 160.2959882499991,
                    "velocity": 0.2125984251968504,
                    "duration": 0.3135884999999803
                },
                {
                    "name": "G#2",
                    "midi": 44,
                    "time": 160.6095767499991,
                    "velocity": 0.1732283464566929,
                    "duration": 0.3135885000000087
                },
                {
                    "name": "C3",
                    "midi": 48,
                    "time": 160.6095767499991,
                    "velocity": 0.1732283464566929,
                    "duration": 0.3135885000000087
                },
                {
                    "name": "F2",
                    "midi": 41,
                    "time": 160.6095767499991,
                    "velocity": 0.1732283464566929,
                    "duration": 0.3135885000000087
                },
                {
                    "name": "D3",
                    "midi": 50,
                    "time": 160.6095767499991,
                    "velocity": 0.25196850393700787,
                    "duration": 0.3135885000000087
                },
                {
                    "name": "G#2",
                    "midi": 44,
                    "time": 160.9231652499991,
                    "velocity": 0.16535433070866143,
                    "duration": 0.3135885000000087
                },
                {
                    "name": "C3",
                    "midi": 48,
                    "time": 160.9231652499991,
                    "velocity": 0.16535433070866143,
                    "duration": 0.3135885000000087
                },
                {
                    "name": "D3",
                    "midi": 50,
                    "time": 160.9231652499991,
                    "velocity": 0.2440944881889764,
                    "duration": 0.3135885000000087
                },
                {
                    "name": "G#2",
                    "midi": 44,
                    "time": 161.2367537499991,
                    "velocity": 0.18110236220472442,
                    "duration": 0.15679424999999014
                },
                {
                    "name": "C3",
                    "midi": 48,
                    "time": 161.2367537499991,
                    "velocity": 0.18110236220472442,
                    "duration": 0.15679424999999014
                },
                {
                    "name": "F2",
                    "midi": 41,
                    "time": 161.2367537499991,
                    "velocity": 0.18110236220472442,
                    "duration": 0.15679424999999014
                },
                {
                    "name": "D3",
                    "midi": 50,
                    "time": 161.2367537499991,
                    "velocity": 0.2440944881889764,
                    "duration": 0.15679424999999014
                },
                {
                    "name": "G1",
                    "midi": 31,
                    "time": 161.3935479999991,
                    "velocity": 0.2283464566929134,
                    "duration": 0.3135884999999803
                },
                {
                    "name": "G2",
                    "midi": 43,
                    "time": 161.5503422499991,
                    "velocity": 0.14173228346456693,
                    "duration": 0.3135884999999803
                },
                {
                    "name": "B2",
                    "midi": 47,
                    "time": 161.5503422499991,
                    "velocity": 0.14173228346456693,
                    "duration": 0.3135884999999803
                },
                {
                    "name": "D#3",
                    "midi": 51,
                    "time": 161.5503422499991,
                    "velocity": 0.2125984251968504,
                    "duration": 0.3135884999999803
                },
                {
                    "name": "G2",
                    "midi": 43,
                    "time": 161.86393074999907,
                    "velocity": 0.1732283464566929,
                    "duration": 0.3135885000000087
                },
                {
                    "name": "B2",
                    "midi": 47,
                    "time": 161.86393074999907,
                    "velocity": 0.1732283464566929,
                    "duration": 0.3135885000000087
                },
                {
                    "name": "D3",
                    "midi": 50,
                    "time": 161.86393074999907,
                    "velocity": 0.25196850393700787,
                    "duration": 0.3135885000000087
                },
                {
                    "name": "D#3",
                    "midi": 51,
                    "time": 162.17751924999908,
                    "velocity": 0.16535433070866143,
                    "duration": 0.3135885000000087
                },
                {
                    "name": "G3",
                    "midi": 55,
                    "time": 162.17751924999908,
                    "velocity": 0.2440944881889764,
                    "duration": 0.3135885000000087
                },
                {
                    "name": "D3",
                    "midi": 50,
                    "time": 162.4911077499991,
                    "velocity": 0.18110236220472442,
                    "duration": 0.15679424999999014
                },
                {
                    "name": "G3",
                    "midi": 55,
                    "time": 162.4911077499991,
                    "velocity": 0.2440944881889764,
                    "duration": 0.15679424999999014
                },
                {
                    "name": "C#2",
                    "midi": 37,
                    "time": 162.64790199999908,
                    "velocity": 0.2047244094488189,
                    "duration": 0.3135884999999803
                },
                {
                    "name": "C#3",
                    "midi": 49,
                    "time": 162.80469624999907,
                    "velocity": 0.12598425196850394,
                    "duration": 0.3135884999999803
                },
                {
                    "name": "F3",
                    "midi": 53,
                    "time": 162.80469624999907,
                    "velocity": 0.1889763779527559,
                    "duration": 0.3135884999999803
                },
                {
                    "name": "C#3",
                    "midi": 49,
                    "time": 163.11828474999905,
                    "velocity": 0.14960629921259844,
                    "duration": 0.15679424999999014
                },
                {
                    "name": "F3",
                    "midi": 53,
                    "time": 163.11828474999905,
                    "velocity": 0.2204724409448819,
                    "duration": 0.15679424999999014
                },
                {
                    "name": "G#2",
                    "midi": 44,
                    "time": 163.43187324999903,
                    "velocity": 0.14173228346456693,
                    "duration": 0.3135885000000087
                },
                {
                    "name": "E2",
                    "midi": 40,
                    "time": 163.43187324999903,
                    "velocity": 0.14173228346456693,
                    "duration": 0.3135885000000087
                },
                {
                    "name": "C#3",
                    "midi": 49,
                    "time": 163.43187324999903,
                    "velocity": 0.2125984251968504,
                    "duration": 0.3135885000000087
                },
                {
                    "name": "F2",
                    "midi": 41,
                    "time": 163.74546174999904,
                    "velocity": 0.15748031496062992,
                    "duration": 0.15679424999999014
                },
                {
                    "name": "G#2",
                    "midi": 44,
                    "time": 163.74546174999904,
                    "velocity": 0.15748031496062992,
                    "duration": 0.15679424999999014
                },
                {
                    "name": "C#3",
                    "midi": 49,
                    "time": 163.74546174999904,
                    "velocity": 0.2125984251968504,
                    "duration": 0.15679424999999014
                },
                {
                    "name": "G1",
                    "midi": 31,
                    "time": 163.90225599999903,
                    "velocity": 0.15748031496062992,
                    "duration": 0.3135884999999803
                },
                {
                    "name": "G2",
                    "midi": 43,
                    "time": 164.05905024999902,
                    "velocity": 0.09448818897637795,
                    "duration": 0.3135884999999803
                },
                {
                    "name": "B2",
                    "midi": 47,
                    "time": 164.05905024999902,
                    "velocity": 0.09448818897637795,
                    "duration": 0.3135884999999803
                },
                {
                    "name": "D#3",
                    "midi": 51,
                    "time": 164.05905024999902,
                    "velocity": 0.14960629921259844,
                    "duration": 0.3135884999999803
                },
                {
                    "name": "G2",
                    "midi": 43,
                    "time": 164.372638749999,
                    "velocity": 0.11811023622047244,
                    "duration": 0.3135885000000087
                },
                {
                    "name": "B2",
                    "midi": 47,
                    "time": 164.372638749999,
                    "velocity": 0.11811023622047244,
                    "duration": 0.3135885000000087
                },
                {
                    "name": "D3",
                    "midi": 50,
                    "time": 164.372638749999,
                    "velocity": 0.1732283464566929,
                    "duration": 0.3135885000000087
                },
                {
                    "name": "D#3",
                    "midi": 51,
                    "time": 164.686227249999,
                    "velocity": 0.11811023622047244,
                    "duration": 0.3135885000000087
                },
                {
                    "name": "G3",
                    "midi": 55,
                    "time": 164.686227249999,
                    "velocity": 0.16535433070866143,
                    "duration": 0.3135885000000087
                },
                {
                    "name": "D3",
                    "midi": 50,
                    "time": 164.99981574999902,
                    "velocity": 0.12598425196850394,
                    "duration": 0.15679424999999014
                },
                {
                    "name": "G3",
                    "midi": 55,
                    "time": 164.99981574999902,
                    "velocity": 0.16535433070866143,
                    "duration": 0.15679424999999014
                },
                {
                    "name": "C#2",
                    "midi": 37,
                    "time": 165.156609999999,
                    "velocity": 0.14173228346456693,
                    "duration": 0.3135884999999803
                },
                {
                    "name": "C#3",
                    "midi": 49,
                    "time": 165.313404249999,
                    "velocity": 0.07874015748031496,
                    "duration": 0.3135884999999803
                },
                {
                    "name": "F3",
                    "midi": 53,
                    "time": 165.313404249999,
                    "velocity": 0.12598425196850394,
                    "duration": 0.3135884999999803
                },
                {
                    "name": "C#3",
                    "midi": 49,
                    "time": 165.62699274999898,
                    "velocity": 0.10236220472440945,
                    "duration": 0.15679424999999014
                },
                {
                    "name": "F3",
                    "midi": 53,
                    "time": 165.62699274999898,
                    "velocity": 0.14960629921259844,
                    "duration": 0.15679424999999014
                },
                {
                    "name": "G#2",
                    "midi": 44,
                    "time": 165.94058124999896,
                    "velocity": 0.09448818897637795,
                    "duration": 0.3135885000000087
                },
                {
                    "name": "E2",
                    "midi": 40,
                    "time": 165.94058124999896,
                    "velocity": 0.09448818897637795,
                    "duration": 0.3135885000000087
                },
                {
                    "name": "C#3",
                    "midi": 49,
                    "time": 165.94058124999896,
                    "velocity": 0.14960629921259844,
                    "duration": 0.3135885000000087
                },
                {
                    "name": "F2",
                    "midi": 41,
                    "time": 166.25416974999897,
                    "velocity": 0.11023622047244094,
                    "duration": 0.15679424999999014
                },
                {
                    "name": "G#2",
                    "midi": 44,
                    "time": 166.25416974999897,
                    "velocity": 0.11023622047244094,
                    "duration": 0.15679424999999014
                },
                {
                    "name": "C#3",
                    "midi": 49,
                    "time": 166.25416974999897,
                    "velocity": 0.14960629921259844,
                    "duration": 0.15679424999999014
                },
                {
                    "name": "G2",
                    "midi": 43,
                    "time": 166.41096399999896,
                    "velocity": 0.1889763779527559,
                    "duration": 0.10452950000001238
                },
                {
                    "name": "D3",
                    "midi": 50,
                    "time": 166.41096399999896,
                    "velocity": 0.2283464566929134,
                    "duration": 0.10452950000001238
                },
                {
                    "name": "D2",
                    "midi": 38,
                    "time": 166.62002299999898,
                    "velocity": 0.2677165354330709,
                    "duration": 0.20905899999999633
                },
                {
                    "name": "C2",
                    "midi": 36,
                    "time": 166.82908199999898,
                    "velocity": 0.2755905511811024,
                    "duration": 0.20905899999999633
                },
                {
                    "name": "B1",
                    "midi": 35,
                    "time": 167.03814099999897,
                    "velocity": 0.28346456692913385,
                    "duration": 0.20905899999999633
                },
                {
                    "name": "G#1",
                    "midi": 32,
                    "time": 167.24719999999897,
                    "velocity": 0.2992125984251969,
                    "duration": 0.20905899999999633
                },
                {
                    "name": "G1",
                    "midi": 31,
                    "time": 167.45625899999897,
                    "velocity": 0.33858267716535434,
                    "duration": 0.20905899999999633
                },
                {
                    "name": "G#2",
                    "midi": 44,
                    "time": 167.66531799999896,
                    "velocity": 0.3543307086614173,
                    "duration": 0.20905899999999633
                },
                {
                    "name": "G2",
                    "midi": 43,
                    "time": 167.87437699999896,
                    "velocity": 0.31496062992125984,
                    "duration": 0.20905899999999633
                },
                {
                    "name": "F2",
                    "midi": 41,
                    "time": 168.08343599999895,
                    "velocity": 0.33070866141732286,
                    "duration": 0.20905899999999633
                },
                {
                    "name": "D#2",
                    "midi": 39,
                    "time": 168.29249499999895,
                    "velocity": 0.3543307086614173,
                    "duration": 0.20905899999999633
                },
                {
                    "name": "C#2",
                    "midi": 37,
                    "time": 168.50155399999895,
                    "velocity": 0.36220472440944884,
                    "duration": 0.20905899999999633
                },
                {
                    "name": "C#3",
                    "midi": 49,
                    "time": 168.71061299999894,
                    "velocity": 0.25984251968503935,
                    "duration": 0.10452950000001238
                },
                {
                    "name": "F3",
                    "midi": 53,
                    "time": 168.71061299999894,
                    "velocity": 0.30708661417322836,
                    "duration": 0.10452950000001238
                },
                {
                    "name": "G2",
                    "midi": 43,
                    "time": 168.91967199999897,
                    "velocity": 0.28346456692913385,
                    "duration": 0.10452950000001238
                },
                {
                    "name": "D3",
                    "midi": 50,
                    "time": 168.91967199999897,
                    "velocity": 0.33858267716535434,
                    "duration": 0.10452950000001238
                },
                {
                    "name": "D2",
                    "midi": 38,
                    "time": 169.128730999999,
                    "velocity": 0.2677165354330709,
                    "duration": 0.20905899999999633
                },
                {
                    "name": "C2",
                    "midi": 36,
                    "time": 169.337789999999,
                    "velocity": 0.2755905511811024,
                    "duration": 0.20905899999999633
                },
                {
                    "name": "B1",
                    "midi": 35,
                    "time": 169.54684899999899,
                    "velocity": 0.28346456692913385,
                    "duration": 0.20905899999999633
                },
                {
                    "name": "G#1",
                    "midi": 32,
                    "time": 169.75590799999898,
                    "velocity": 0.2992125984251969,
                    "duration": 0.20905899999999633
                },
                {
                    "name": "G1",
                    "midi": 31,
                    "time": 169.96496699999898,
                    "velocity": 0.33858267716535434,
                    "duration": 0.20905899999999633
                },
                {
                    "name": "G#2",
                    "midi": 44,
                    "time": 170.17402599999897,
                    "velocity": 0.3543307086614173,
                    "duration": 0.20905899999999633
                },
                {
                    "name": "G2",
                    "midi": 43,
                    "time": 170.38308499999897,
                    "velocity": 0.31496062992125984,
                    "duration": 0.20905899999999633
                },
                {
                    "name": "F2",
                    "midi": 41,
                    "time": 170.59214399999897,
                    "velocity": 0.33070866141732286,
                    "duration": 0.20905899999999633
                },
                {
                    "name": "D#2",
                    "midi": 39,
                    "time": 170.80120299999896,
                    "velocity": 0.3543307086614173,
                    "duration": 0.20905899999999633
                },
                {
                    "name": "C#2",
                    "midi": 37,
                    "time": 171.01026199999896,
                    "velocity": 0.36220472440944884,
                    "duration": 0.20905899999999633
                },
                {
                    "name": "C#3",
                    "midi": 49,
                    "time": 171.21932099999896,
                    "velocity": 0.25984251968503935,
                    "duration": 0.10452950000001238
                },
                {
                    "name": "F3",
                    "midi": 53,
                    "time": 171.21932099999896,
                    "velocity": 0.30708661417322836,
                    "duration": 0.10452950000001238
                },
                {
                    "name": "G#2",
                    "midi": 44,
                    "time": 171.42837999999898,
                    "velocity": 0.28346456692913385,
                    "duration": 0.10452950000001238
                },
                {
                    "name": "D#3",
                    "midi": 51,
                    "time": 171.42837999999898,
                    "velocity": 0.33858267716535434,
                    "duration": 0.10452950000001238
                },
                {
                    "name": "D#2",
                    "midi": 39,
                    "time": 171.637438999999,
                    "velocity": 0.2677165354330709,
                    "duration": 0.20905899999999633
                },
                {
                    "name": "C#2",
                    "midi": 37,
                    "time": 171.846497999999,
                    "velocity": 0.2755905511811024,
                    "duration": 0.20905899999999633
                },
                {
                    "name": "C2",
                    "midi": 36,
                    "time": 172.055556999999,
                    "velocity": 0.28346456692913385,
                    "duration": 0.20905899999999633
                },
                {
                    "name": "A#1",
                    "midi": 34,
                    "time": 172.264615999999,
                    "velocity": 0.2992125984251969,
                    "duration": 0.20905899999999633
                },
                {
                    "name": "G#1",
                    "midi": 32,
                    "time": 172.473674999999,
                    "velocity": 0.33858267716535434,
                    "duration": 0.20905899999999633
                },
                {
                    "name": "G#2",
                    "midi": 44,
                    "time": 172.682733999999,
                    "velocity": 0.3543307086614173,
                    "duration": 0.20905899999999633
                },
                {
                    "name": "F#2",
                    "midi": 42,
                    "time": 172.89179299999898,
                    "velocity": 0.31496062992125984,
                    "duration": 0.20905899999999633
                },
                {
                    "name": "E2",
                    "midi": 40,
                    "time": 173.10085199999898,
                    "velocity": 0.33070866141732286,
                    "duration": 0.20905899999999633
                },
                {
                    "name": "D#2",
                    "midi": 39,
                    "time": 173.30991099999898,
                    "velocity": 0.3543307086614173,
                    "duration": 0.20905899999999633
                },
                {
                    "name": "C#2",
                    "midi": 37,
                    "time": 173.51896999999897,
                    "velocity": 0.36220472440944884,
                    "duration": 0.20905899999999633
                },
                {
                    "name": "C#3",
                    "midi": 49,
                    "time": 173.72802899999897,
                    "velocity": 0.25984251968503935,
                    "duration": 0.10452950000001238
                },
                {
                    "name": "E3",
                    "midi": 52,
                    "time": 173.72802899999897,
                    "velocity": 0.30708661417322836,
                    "duration": 0.10452950000001238
                },
                {
                    "name": "A2",
                    "midi": 45,
                    "time": 173.937087999999,
                    "velocity": 0.28346456692913385,
                    "duration": 0.10452950000001238
                },
                {
                    "name": "E3",
                    "midi": 52,
                    "time": 173.937087999999,
                    "velocity": 0.33858267716535434,
                    "duration": 0.10452950000001238
                },
                {
                    "name": "E2",
                    "midi": 40,
                    "time": 174.14614699999902,
                    "velocity": 0.2677165354330709,
                    "duration": 0.20905899999999633
                },
                {
                    "name": "D2",
                    "midi": 38,
                    "time": 174.35520599999901,
                    "velocity": 0.2755905511811024,
                    "duration": 0.20905899999999633
                },
                {
                    "name": "C#2",
                    "midi": 37,
                    "time": 174.564264999999,
                    "velocity": 0.28346456692913385,
                    "duration": 0.20905899999999633
                },
                {
                    "name": "A#1",
                    "midi": 34,
                    "time": 174.773323999999,
                    "velocity": 0.2992125984251969,
                    "duration": 0.20905899999999633
                },
                {
                    "name": "A1",
                    "midi": 33,
                    "time": 174.982382999999,
                    "velocity": 0.33858267716535434,
                    "duration": 0.20905899999999633
                },
                {
                    "name": "A2",
                    "midi": 45,
                    "time": 175.191441999999,
                    "velocity": 0.3543307086614173,
                    "duration": 0.20905899999999633
                },
                {
                    "name": "G2",
                    "midi": 43,
                    "time": 175.400500999999,
                    "velocity": 0.31496062992125984,
                    "duration": 0.20905899999999633
                },
                {
                    "name": "F2",
                    "midi": 41,
                    "time": 175.609559999999,
                    "velocity": 0.33070866141732286,
                    "duration": 0.20905899999999633
                },
                {
                    "name": "E2",
                    "midi": 40,
                    "time": 175.818618999999,
                    "velocity": 0.3543307086614173,
                    "duration": 0.20905899999999633
                },
                {
                    "name": "D2",
                    "midi": 38,
                    "time": 176.02767799999899,
                    "velocity": 0.36220472440944884,
                    "duration": 0.20905899999999633
                },
                {
                    "name": "D3",
                    "midi": 50,
                    "time": 176.23673699999898,
                    "velocity": 0.25984251968503935,
                    "duration": 0.10452950000001238
                },
                {
                    "name": "F3",
                    "midi": 53,
                    "time": 176.23673699999898,
                    "velocity": 0.30708661417322836,
                    "duration": 0.10452950000001238
                },
                {
                    "name": "A#2",
                    "midi": 46,
                    "time": 176.445795999999,
                    "velocity": 0.28346456692913385,
                    "duration": 0.10452950000001238
                },
                {
                    "name": "F3",
                    "midi": 53,
                    "time": 176.445795999999,
                    "velocity": 0.33858267716535434,
                    "duration": 0.10452950000001238
                },
                {
                    "name": "F2",
                    "midi": 41,
                    "time": 176.65485499999903,
                    "velocity": 0.2677165354330709,
                    "duration": 0.20905899999999633
                },
                {
                    "name": "D#2",
                    "midi": 39,
                    "time": 176.86391399999903,
                    "velocity": 0.2755905511811024,
                    "duration": 0.20905899999999633
                },
                {
                    "name": "D2",
                    "midi": 38,
                    "time": 177.07297299999902,
                    "velocity": 0.28346456692913385,
                    "duration": 0.20905899999999633
                },
                {
                    "name": "B1",
                    "midi": 35,
                    "time": 177.28203199999902,
                    "velocity": 0.2992125984251969,
                    "duration": 0.20905899999999633
                },
                {
                    "name": "A#1",
                    "midi": 34,
                    "time": 177.49109099999902,
                    "velocity": 0.33858267716535434,
                    "duration": 0.20905899999999633
                },
                {
                    "name": "A#2",
                    "midi": 46,
                    "time": 177.700149999999,
                    "velocity": 0.28346456692913385,
                    "duration": 0.10452950000001238
                },
                {
                    "name": "F#3",
                    "midi": 54,
                    "time": 177.700149999999,
                    "velocity": 0.33858267716535434,
                    "duration": 0.10452950000001238
                },
                {
                    "name": "F#2",
                    "midi": 42,
                    "time": 177.90920899999904,
                    "velocity": 0.2677165354330709,
                    "duration": 0.20905899999999633
                },
                {
                    "name": "F2",
                    "midi": 41,
                    "time": 178.11826799999903,
                    "velocity": 0.28346456692913385,
                    "duration": 0.20905899999999633
                },
                {
                    "name": "D#2",
                    "midi": 39,
                    "time": 178.32732699999903,
                    "velocity": 0.29133858267716534,
                    "duration": 0.20905899999999633
                },
                {
                    "name": "B1",
                    "midi": 35,
                    "time": 178.53638599999903,
                    "velocity": 0.30708661417322836,
                    "duration": 0.20905899999999633
                },
                {
                    "name": "A#1",
                    "midi": 34,
                    "time": 178.74544499999902,
                    "velocity": 0.3464566929133858,
                    "duration": 0.20905899999999633
                },
                {
                    "name": "G#3",
                    "midi": 56,
                    "time": 178.95450399999902,
                    "velocity": 0.2992125984251969,
                    "duration": 0.10452950000001238
                },
                {
                    "name": "B2",
                    "midi": 47,
                    "time": 178.95450399999902,
                    "velocity": 0.2992125984251969,
                    "duration": 0.10452950000001238
                },
                {
                    "name": "B3",
                    "midi": 59,
                    "time": 178.95450399999902,
                    "velocity": 0.3543307086614173,
                    "duration": 0.10452950000001238
                },
                {
                    "name": "G#2",
                    "midi": 44,
                    "time": 179.16356299999904,
                    "velocity": 0.2755905511811024,
                    "duration": 0.20905899999999633
                },
                {
                    "name": "F2",
                    "midi": 41,
                    "time": 179.37262199999904,
                    "velocity": 0.28346456692913385,
                    "duration": 0.20905899999999633
                },
                {
                    "name": "D2",
                    "midi": 38,
                    "time": 179.58168099999904,
                    "velocity": 0.2992125984251969,
                    "duration": 0.20905899999999633
                },
                {
                    "name": "C#2",
                    "midi": 37,
                    "time": 179.79073999999903,
                    "velocity": 0.31496062992125984,
                    "duration": 0.20905899999999633
                },
                {
                    "name": "B1",
                    "midi": 35,
                    "time": 179.99979899999903,
                    "velocity": 0.3543307086614173,
                    "duration": 0.20905899999999633
                },
                {
                    "name": "C4",
                    "midi": 60,
                    "time": 180.20885799999903,
                    "velocity": 0.2992125984251969,
                    "duration": 0.10452950000001238
                },
                {
                    "name": "D#3",
                    "midi": 51,
                    "time": 180.20885799999903,
                    "velocity": 0.2992125984251969,
                    "duration": 0.10452950000001238
                },
                {
                    "name": "D#4",
                    "midi": 63,
                    "time": 180.20885799999903,
                    "velocity": 0.3543307086614173,
                    "duration": 0.10452950000001238
                },
                {
                    "name": "A2",
                    "midi": 45,
                    "time": 180.41791699999905,
                    "velocity": 0.28346456692913385,
                    "duration": 0.20905899999999633
                },
                {
                    "name": "G#2",
                    "midi": 44,
                    "time": 180.62697599999905,
                    "velocity": 0.29133858267716534,
                    "duration": 0.20905899999999633
                },
                {
                    "name": "F#2",
                    "midi": 42,
                    "time": 180.83603499999904,
                    "velocity": 0.30708661417322836,
                    "duration": 0.20905899999999633
                },
                {
                    "name": "D#2",
                    "midi": 39,
                    "time": 181.04509399999904,
                    "velocity": 0.3228346456692913,
                    "duration": 0.20905899999999633
                },
                {
                    "name": "C2",
                    "midi": 36,
                    "time": 181.25415299999904,
                    "velocity": 0.36220472440944884,
                    "duration": 0.20905899999999633
                },
                {
                    "name": "C#4",
                    "midi": 61,
                    "time": 181.46321199999903,
                    "velocity": 0.1968503937007874,
                    "duration": 0.20905899999999633
                },
                {
                    "name": "A4",
                    "midi": 69,
                    "time": 181.46321199999903,
                    "velocity": 0.23622047244094488,
                    "duration": 0.20905899999999633
                },
                {
                    "name": "F#4",
                    "midi": 66,
                    "time": 181.46321199999903,
                    "velocity": 0.1968503937007874,
                    "duration": 0.20905899999999633
                },
                {
                    "name": "A3",
                    "midi": 57,
                    "time": 181.77680049999904,
                    "velocity": 0.15748031496062992,
                    "duration": 0.05226475000000619
                },
                {
                    "name": "C#4",
                    "midi": 61,
                    "time": 181.77680049999904,
                    "velocity": 0.15748031496062992,
                    "duration": 0.05226475000000619
                },
                {
                    "name": "F#4",
                    "midi": 66,
                    "time": 181.77680049999904,
                    "velocity": 0.1968503937007874,
                    "duration": 0.05226475000000619
                },
                {
                    "name": "A3",
                    "midi": 57,
                    "time": 181.88132999999905,
                    "velocity": 0.15748031496062992,
                    "duration": 0.10452950000001238
                },
                {
                    "name": "C#4",
                    "midi": 61,
                    "time": 181.88132999999905,
                    "velocity": 0.15748031496062992,
                    "duration": 0.10452950000001238
                },
                {
                    "name": "F#4",
                    "midi": 66,
                    "time": 181.88132999999905,
                    "velocity": 0.1968503937007874,
                    "duration": 0.10452950000001238
                },
                {
                    "name": "A3",
                    "midi": 57,
                    "time": 182.09038899999908,
                    "velocity": 0.2047244094488189,
                    "duration": 0.10452950000001238
                },
                {
                    "name": "F#3",
                    "midi": 54,
                    "time": 182.09038899999908,
                    "velocity": 0.2047244094488189,
                    "duration": 0.10452950000001238
                },
                {
                    "name": "C#4",
                    "midi": 61,
                    "time": 182.09038899999908,
                    "velocity": 0.2440944881889764,
                    "duration": 0.10452950000001238
                },
                {
                    "name": "C#3",
                    "midi": 49,
                    "time": 182.4039774999991,
                    "velocity": 0.16535433070866143,
                    "duration": 0.05226475000000619
                },
                {
                    "name": "F#3",
                    "midi": 54,
                    "time": 182.4039774999991,
                    "velocity": 0.16535433070866143,
                    "duration": 0.05226475000000619
                },
                {
                    "name": "A3",
                    "midi": 57,
                    "time": 182.4039774999991,
                    "velocity": 0.2047244094488189,
                    "duration": 0.05226475000000619
                },
                {
                    "name": "C#3",
                    "midi": 49,
                    "time": 182.5085069999991,
                    "velocity": 0.1732283464566929,
                    "duration": 0.10452950000001238
                },
                {
                    "name": "A3",
                    "midi": 57,
                    "time": 182.5085069999991,
                    "velocity": 0.2125984251968504,
                    "duration": 0.10452950000001238
                },
                {
                    "name": "F#3",
                    "midi": 54,
                    "time": 182.5085069999991,
                    "velocity": 0.1732283464566929,
                    "duration": 0.10452950000001238
                },
                {
                    "name": "D2",
                    "midi": 38,
                    "time": 182.71756599999912,
                    "velocity": 0.33858267716535434,
                    "duration": 0.20905899999999633
                },
                {
                    "name": "A2",
                    "midi": 45,
                    "time": 182.92662499999912,
                    "velocity": 0.30708661417322836,
                    "duration": 0.20905899999999633
                },
                {
                    "name": "G2",
                    "midi": 43,
                    "time": 183.13568399999912,
                    "velocity": 0.3543307086614173,
                    "duration": 0.20905899999999633
                },
                {
                    "name": "F#2",
                    "midi": 42,
                    "time": 183.3447429999991,
                    "velocity": 0.33070866141732286,
                    "duration": 0.20905899999999633
                },
                {
                    "name": "E2",
                    "midi": 40,
                    "time": 183.5538019999991,
                    "velocity": 0.2992125984251969,
                    "duration": 0.20905899999999633
                },
                {
                    "name": "D2",
                    "midi": 38,
                    "time": 183.7628609999991,
                    "velocity": 0.28346456692913385,
                    "duration": 0.20905899999999633
                },
                {
                    "name": "D4",
                    "midi": 62,
                    "time": 183.9719199999991,
                    "velocity": 0.1968503937007874,
                    "duration": 0.20905899999999633
                },
                {
                    "name": "A#4",
                    "midi": 70,
                    "time": 183.9719199999991,
                    "velocity": 0.23622047244094488,
                    "duration": 0.20905899999999633
                },
                {
                    "name": "G4",
                    "midi": 67,
                    "time": 183.9719199999991,
                    "velocity": 0.1968503937007874,
                    "duration": 0.20905899999999633
                },
                {
                    "name": "A#3",
                    "midi": 58,
                    "time": 184.2855084999991,
                    "velocity": 0.15748031496062992,
                    "duration": 0.05226475000000619
                },
                {
                    "name": "D4",
                    "midi": 62,
                    "time": 184.2855084999991,
                    "velocity": 0.15748031496062992,
                    "duration": 0.05226475000000619
                },
                {
                    "name": "G4",
                    "midi": 67,
                    "time": 184.2855084999991,
                    "velocity": 0.1968503937007874,
                    "duration": 0.05226475000000619
                },
                {
                    "name": "A#3",
                    "midi": 58,
                    "time": 184.39003799999912,
                    "velocity": 0.15748031496062992,
                    "duration": 0.10452950000001238
                },
                {
                    "name": "D4",
                    "midi": 62,
                    "time": 184.39003799999912,
                    "velocity": 0.15748031496062992,
                    "duration": 0.10452950000001238
                },
                {
                    "name": "G4",
                    "midi": 67,
                    "time": 184.39003799999912,
                    "velocity": 0.1968503937007874,
                    "duration": 0.10452950000001238
                },
                {
                    "name": "A#3",
                    "midi": 58,
                    "time": 184.59909699999915,
                    "velocity": 0.2047244094488189,
                    "duration": 0.10452950000001238
                },
                {
                    "name": "G3",
                    "midi": 55,
                    "time": 184.59909699999915,
                    "velocity": 0.2047244094488189,
                    "duration": 0.10452950000001238
                },
                {
                    "name": "D4",
                    "midi": 62,
                    "time": 184.59909699999915,
                    "velocity": 0.2440944881889764,
                    "duration": 0.10452950000001238
                },
                {
                    "name": "D3",
                    "midi": 50,
                    "time": 184.91268549999916,
                    "velocity": 0.16535433070866143,
                    "duration": 0.05226475000000619
                },
                {
                    "name": "G3",
                    "midi": 55,
                    "time": 184.91268549999916,
                    "velocity": 0.16535433070866143,
                    "duration": 0.05226475000000619
                },
                {
                    "name": "A#3",
                    "midi": 58,
                    "time": 184.91268549999916,
                    "velocity": 0.2047244094488189,
                    "duration": 0.05226475000000619
                },
                {
                    "name": "D3",
                    "midi": 50,
                    "time": 185.01721499999917,
                    "velocity": 0.1732283464566929,
                    "duration": 0.10452950000001238
                },
                {
                    "name": "A#3",
                    "midi": 58,
                    "time": 185.01721499999917,
                    "velocity": 0.2125984251968504,
                    "duration": 0.10452950000001238
                },
                {
                    "name": "G3",
                    "midi": 55,
                    "time": 185.01721499999917,
                    "velocity": 0.1732283464566929,
                    "duration": 0.10452950000001238
                },
                {
                    "name": "D#2",
                    "midi": 39,
                    "time": 185.2262739999992,
                    "velocity": 0.33858267716535434,
                    "duration": 0.20905899999999633
                },
                {
                    "name": "A#2",
                    "midi": 46,
                    "time": 185.4353329999992,
                    "velocity": 0.30708661417322836,
                    "duration": 0.20905899999999633
                },
                {
                    "name": "G#2",
                    "midi": 44,
                    "time": 185.6443919999992,
                    "velocity": 0.3543307086614173,
                    "duration": 0.20905899999999633
                },
                {
                    "name": "G2",
                    "midi": 43,
                    "time": 185.85345099999918,
                    "velocity": 0.33070866141732286,
                    "duration": 0.20905899999999633
                },
                {
                    "name": "F2",
                    "midi": 41,
                    "time": 186.06250999999918,
                    "velocity": 0.2992125984251969,
                    "duration": 0.20905899999999633
                },
                {
                    "name": "D#2",
                    "midi": 39,
                    "time": 186.27156899999918,
                    "velocity": 0.28346456692913385,
                    "duration": 0.20905899999999633
                },
                {
                    "name": "D#4",
                    "midi": 63,
                    "time": 186.48062799999917,
                    "velocity": 0.2125984251968504,
                    "duration": 0.20905899999999633
                },
                {
                    "name": "B4",
                    "midi": 71,
                    "time": 186.48062799999917,
                    "velocity": 0.25984251968503935,
                    "duration": 0.20905899999999633
                },
                {
                    "name": "G#4",
                    "midi": 68,
                    "time": 186.48062799999917,
                    "velocity": 0.2125984251968504,
                    "duration": 0.20905899999999633
                },
                {
                    "name": "B3",
                    "midi": 59,
                    "time": 186.79421649999918,
                    "velocity": 0.1732283464566929,
                    "duration": 0.05226475000000619
                },
                {
                    "name": "D#4",
                    "midi": 63,
                    "time": 186.79421649999918,
                    "velocity": 0.1732283464566929,
                    "duration": 0.05226475000000619
                },
                {
                    "name": "G#4",
                    "midi": 68,
                    "time": 186.79421649999918,
                    "velocity": 0.2125984251968504,
                    "duration": 0.05226475000000619
                },
                {
                    "name": "B3",
                    "midi": 59,
                    "time": 186.8987459999992,
                    "velocity": 0.1732283464566929,
                    "duration": 0.10452950000001238
                },
                {
                    "name": "D#4",
                    "midi": 63,
                    "time": 186.8987459999992,
                    "velocity": 0.1732283464566929,
                    "duration": 0.10452950000001238
                },
                {
                    "name": "G#4",
                    "midi": 68,
                    "time": 186.8987459999992,
                    "velocity": 0.2125984251968504,
                    "duration": 0.10452950000001238
                },
                {
                    "name": "B3",
                    "midi": 59,
                    "time": 187.10780499999922,
                    "velocity": 0.2125984251968504,
                    "duration": 0.10452950000001238
                },
                {
                    "name": "G#3",
                    "midi": 56,
                    "time": 187.10780499999922,
                    "velocity": 0.2125984251968504,
                    "duration": 0.10452950000001238
                },
                {
                    "name": "D#4",
                    "midi": 63,
                    "time": 187.10780499999922,
                    "velocity": 0.2677165354330709,
                    "duration": 0.10452950000001238
                },
                {
                    "name": "D#3",
                    "midi": 51,
                    "time": 187.42139349999923,
                    "velocity": 0.18110236220472442,
                    "duration": 0.05226475000000619
                },
                {
                    "name": "G#3",
                    "midi": 56,
                    "time": 187.42139349999923,
                    "velocity": 0.18110236220472442,
                    "duration": 0.05226475000000619
                },
                {
                    "name": "B3",
                    "midi": 59,
                    "time": 187.42139349999923,
                    "velocity": 0.2125984251968504,
                    "duration": 0.05226475000000619
                },
                {
                    "name": "D#3",
                    "midi": 51,
                    "time": 187.52592299999924,
                    "velocity": 0.1889763779527559,
                    "duration": 0.10452950000001238
                },
                {
                    "name": "B3",
                    "midi": 59,
                    "time": 187.52592299999924,
                    "velocity": 0.2283464566929134,
                    "duration": 0.10452950000001238
                },
                {
                    "name": "G#3",
                    "midi": 56,
                    "time": 187.52592299999924,
                    "velocity": 0.1889763779527559,
                    "duration": 0.10452950000001238
                },
                {
                    "name": "E3",
                    "midi": 52,
                    "time": 187.73498199999926,
                    "velocity": 0.2283464566929134,
                    "duration": 0.20905899999999633
                },
                {
                    "name": "E4",
                    "midi": 64,
                    "time": 187.73498199999926,
                    "velocity": 0.28346456692913385,
                    "duration": 0.20905899999999633
                },
                {
                    "name": "B3",
                    "midi": 59,
                    "time": 187.73498199999926,
                    "velocity": 0.2283464566929134,
                    "duration": 0.20905899999999633
                },
                {
                    "name": "G#3",
                    "midi": 56,
                    "time": 188.04857049999927,
                    "velocity": 0.1889763779527559,
                    "duration": 0.05226475000000619
                },
                {
                    "name": "B3",
                    "midi": 59,
                    "time": 188.04857049999927,
                    "velocity": 0.2283464566929134,
                    "duration": 0.05226475000000619
                },
                {
                    "name": "G#3",
                    "midi": 56,
                    "time": 188.15309999999928,
                    "velocity": 0.1889763779527559,
                    "duration": 0.10452950000001238
                },
                {
                    "name": "B3",
                    "midi": 59,
                    "time": 188.15309999999928,
                    "velocity": 0.2283464566929134,
                    "duration": 0.10452950000001238
                },
                {
                    "name": "B3",
                    "midi": 59,
                    "time": 188.3621589999993,
                    "velocity": 0.23622047244094488,
                    "duration": 0.10452950000001238
                },
                {
                    "name": "E4",
                    "midi": 64,
                    "time": 188.3621589999993,
                    "velocity": 0.28346456692913385,
                    "duration": 0.10452950000001238
                },
                {
                    "name": "G#3",
                    "midi": 56,
                    "time": 188.67574749999932,
                    "velocity": 0.1968503937007874,
                    "duration": 0.05226475000000619
                },
                {
                    "name": "B3",
                    "midi": 59,
                    "time": 188.67574749999932,
                    "velocity": 0.23622047244094488,
                    "duration": 0.05226475000000619
                },
                {
                    "name": "B3",
                    "midi": 59,
                    "time": 188.78027699999933,
                    "velocity": 0.25984251968503935,
                    "duration": 0.10452950000001238
                },
                {
                    "name": "G#3",
                    "midi": 56,
                    "time": 188.78027699999933,
                    "velocity": 0.2047244094488189,
                    "duration": 0.10452950000001238
                },
                {
                    "name": "A2",
                    "midi": 45,
                    "time": 188.98933599999935,
                    "velocity": 0.2440944881889764,
                    "duration": 0.20905899999999633
                },
                {
                    "name": "C4",
                    "midi": 60,
                    "time": 188.98933599999935,
                    "velocity": 0.2992125984251969,
                    "duration": 0.20905899999999633
                },
                {
                    "name": "E3",
                    "midi": 52,
                    "time": 188.98933599999935,
                    "velocity": 0.2440944881889764,
                    "duration": 0.20905899999999633
                },
                {
                    "name": "C4",
                    "midi": 60,
                    "time": 189.30292449999936,
                    "velocity": 0.2440944881889764,
                    "duration": 0.05226475000000619
                },
                {
                    "name": "A3",
                    "midi": 57,
                    "time": 189.30292449999936,
                    "velocity": 0.1968503937007874,
                    "duration": 0.05226475000000619
                },
                {
                    "name": "A3",
                    "midi": 57,
                    "time": 189.40745399999938,
                    "velocity": 0.1968503937007874,
                    "duration": 0.10452950000001238
                },
                {
                    "name": "C4",
                    "midi": 60,
                    "time": 189.40745399999938,
                    "velocity": 0.2440944881889764,
                    "duration": 0.10452950000001238
                },
                {
                    "name": "C4",
                    "midi": 60,
                    "time": 189.6165129999994,
                    "velocity": 0.25196850393700787,
                    "duration": 0.10452950000001238
                },
                {
                    "name": "E4",
                    "midi": 64,
                    "time": 189.6165129999994,
                    "velocity": 0.30708661417322836,
                    "duration": 0.10452950000001238
                },
                {
                    "name": "A3",
                    "midi": 57,
                    "time": 189.9301014999994,
                    "velocity": 0.2125984251968504,
                    "duration": 0.05226475000000619
                },
                {
                    "name": "C4",
                    "midi": 60,
                    "time": 189.9301014999994,
                    "velocity": 0.25196850393700787,
                    "duration": 0.05226475000000619
                },
                {
                    "name": "C4",
                    "midi": 60,
                    "time": 190.03463099999942,
                    "velocity": 0.2677165354330709,
                    "duration": 0.10452950000001238
                },
                {
                    "name": "A3",
                    "midi": 57,
                    "time": 190.03463099999942,
                    "velocity": 0.2125984251968504,
                    "duration": 0.10452950000001238
                },
                {
                    "name": "F2",
                    "midi": 41,
                    "time": 190.24368999999945,
                    "velocity": 0.25984251968503935,
                    "duration": 0.20905899999999633
                },
                {
                    "name": "A3",
                    "midi": 57,
                    "time": 190.24368999999945,
                    "velocity": 0.3228346456692913,
                    "duration": 0.20905899999999633
                },
                {
                    "name": "C3",
                    "midi": 48,
                    "time": 190.24368999999945,
                    "velocity": 0.25984251968503935,
                    "duration": 0.20905899999999633
                },
                {
                    "name": "F3",
                    "midi": 53,
                    "time": 190.55727849999946,
                    "velocity": 0.2125984251968504,
                    "duration": 0.05226475000000619
                },
                {
                    "name": "C4",
                    "midi": 60,
                    "time": 190.55727849999946,
                    "velocity": 0.25984251968503935,
                    "duration": 0.05226475000000619
                },
                {
                    "name": "A3",
                    "midi": 57,
                    "time": 190.55727849999946,
                    "velocity": 0.2125984251968504,
                    "duration": 0.05226475000000619
                },
                {
                    "name": "F3",
                    "midi": 53,
                    "time": 190.66180799999947,
                    "velocity": 0.2125984251968504,
                    "duration": 0.10452950000001238
                },
                {
                    "name": "A3",
                    "midi": 57,
                    "time": 190.66180799999947,
                    "velocity": 0.2125984251968504,
                    "duration": 0.10452950000001238
                },
                {
                    "name": "C4",
                    "midi": 60,
                    "time": 190.66180799999947,
                    "velocity": 0.25984251968503935,
                    "duration": 0.10452950000001238
                },
                {
                    "name": "A3",
                    "midi": 57,
                    "time": 190.8708669999995,
                    "velocity": 0.2677165354330709,
                    "duration": 0.10452950000001238
                },
                {
                    "name": "C4",
                    "midi": 60,
                    "time": 190.8708669999995,
                    "velocity": 0.2677165354330709,
                    "duration": 0.10452950000001238
                },
                {
                    "name": "F4",
                    "midi": 65,
                    "time": 190.8708669999995,
                    "velocity": 0.33070866141732286,
                    "duration": 0.10452950000001238
                },
                {
                    "name": "F3",
                    "midi": 53,
                    "time": 191.1844554999995,
                    "velocity": 0.2125984251968504,
                    "duration": 0.05226475000000619
                },
                {
                    "name": "A3",
                    "midi": 57,
                    "time": 191.1844554999995,
                    "velocity": 0.2125984251968504,
                    "duration": 0.05226475000000619
                },
                {
                    "name": "C4",
                    "midi": 60,
                    "time": 191.1844554999995,
                    "velocity": 0.2755905511811024,
                    "duration": 0.05226475000000619
                },
                {
                    "name": "F3",
                    "midi": 53,
                    "time": 191.2889849999995,
                    "velocity": 0.2204724409448819,
                    "duration": 0.10452950000001238
                },
                {
                    "name": "C4",
                    "midi": 60,
                    "time": 191.2889849999995,
                    "velocity": 0.28346456692913385,
                    "duration": 0.10452950000001238
                },
                {
                    "name": "A3",
                    "midi": 57,
                    "time": 191.2889849999995,
                    "velocity": 0.2204724409448819,
                    "duration": 0.10452950000001238
                },
                {
                    "name": "C#3",
                    "midi": 49,
                    "time": 191.49804399999954,
                    "velocity": 0.2677165354330709,
                    "duration": 0.20905899999999633
                },
                {
                    "name": "C#4",
                    "midi": 61,
                    "time": 191.49804399999954,
                    "velocity": 0.3228346456692913,
                    "duration": 0.20905899999999633
                },
                {
                    "name": "G#3",
                    "midi": 56,
                    "time": 191.49804399999954,
                    "velocity": 0.2677165354330709,
                    "duration": 0.20905899999999633
                },
                {
                    "name": "F3",
                    "midi": 53,
                    "time": 191.81163249999955,
                    "velocity": 0.2125984251968504,
                    "duration": 0.05226475000000619
                },
                {
                    "name": "F4",
                    "midi": 65,
                    "time": 191.81163249999955,
                    "velocity": 0.2677165354330709,
                    "duration": 0.05226475000000619
                },
                {
                    "name": "F3",
                    "midi": 53,
                    "time": 191.91616199999956,
                    "velocity": 0.2125984251968504,
                    "duration": 0.10452950000001238
                },
                {
                    "name": "F4",
                    "midi": 65,
                    "time": 191.91616199999956,
                    "velocity": 0.2677165354330709,
                    "duration": 0.10452950000001238
                },
                {
                    "name": "A#2",
                    "midi": 46,
                    "time": 192.12522099999958,
                    "velocity": 0.2755905511811024,
                    "duration": 0.10452950000001238
                },
                {
                    "name": "A#3",
                    "midi": 58,
                    "time": 192.12522099999958,
                    "velocity": 0.33858267716535434,
                    "duration": 0.10452950000001238
                },
                {
                    "name": "C#3",
                    "midi": 49,
                    "time": 192.4388094999996,
                    "velocity": 0.2204724409448819,
                    "duration": 0.05226475000000619
                },
                {
                    "name": "C#4",
                    "midi": 61,
                    "time": 192.4388094999996,
                    "velocity": 0.2755905511811024,
                    "duration": 0.05226475000000619
                },
                {
                    "name": "C#3",
                    "midi": 49,
                    "time": 192.5433389999996,
                    "velocity": 0.2283464566929134,
                    "duration": 0.10452950000001238
                },
                {
                    "name": "C#4",
                    "midi": 61,
                    "time": 192.5433389999996,
                    "velocity": 0.29133858267716534,
                    "duration": 0.10452950000001238
                },
                {
                    "name": "F#2",
                    "midi": 42,
                    "time": 192.75239799999963,
                    "velocity": 0.2677165354330709,
                    "duration": 0.20905899999999633
                },
                {
                    "name": "F#3",
                    "midi": 54,
                    "time": 192.75239799999963,
                    "velocity": 0.33070866141732286,
                    "duration": 0.20905899999999633
                },
                {
                    "name": "A#2",
                    "midi": 46,
                    "time": 193.06598649999964,
                    "velocity": 0.2125984251968504,
                    "duration": 0.05226475000000619
                },
                {
                    "name": "A#3",
                    "midi": 58,
                    "time": 193.06598649999964,
                    "velocity": 0.2677165354330709,
                    "duration": 0.05226475000000619
                },
                {
                    "name": "A#2",
                    "midi": 46,
                    "time": 193.17051599999965,
                    "velocity": 0.2125984251968504,
                    "duration": 0.10452950000001238
                },
                {
                    "name": "A#3",
                    "midi": 58,
                    "time": 193.17051599999965,
                    "velocity": 0.2677165354330709,
                    "duration": 0.10452950000001238
                },
                {
                    "name": "D#2",
                    "midi": 39,
                    "time": 193.37957499999968,
                    "velocity": 0.28346456692913385,
                    "duration": 0.10452950000001238
                },
                {
                    "name": "D#3",
                    "midi": 51,
                    "time": 193.37957499999968,
                    "velocity": 0.3464566929133858,
                    "duration": 0.10452950000001238
                },
                {
                    "name": "F#2",
                    "midi": 42,
                    "time": 193.69316349999968,
                    "velocity": 0.2204724409448819,
                    "duration": 0.05226475000000619
                },
                {
                    "name": "F#3",
                    "midi": 54,
                    "time": 193.69316349999968,
                    "velocity": 0.28346456692913385,
                    "duration": 0.05226475000000619
                },
                {
                    "name": "F#2",
                    "midi": 42,
                    "time": 193.7976929999997,
                    "velocity": 0.2283464566929134,
                    "duration": 0.10452950000001238
                },
                {
                    "name": "F#3",
                    "midi": 54,
                    "time": 193.7976929999997,
                    "velocity": 0.29133858267716534,
                    "duration": 0.10452950000001238
                },
                {
                    "name": "B1",
                    "midi": 35,
                    "time": 194.00675199999972,
                    "velocity": 0.25984251968503935,
                    "duration": 0.20905899999999633
                },
                {
                    "name": "B2",
                    "midi": 47,
                    "time": 194.00675199999972,
                    "velocity": 0.25984251968503935,
                    "duration": 0.20905899999999633
                },
                {
                    "name": "F#3",
                    "midi": 54,
                    "time": 194.21581099999972,
                    "velocity": 0.33858267716535434,
                    "duration": 0.20905899999999633
                },
                {
                    "name": "E3",
                    "midi": 52,
                    "time": 194.42486999999971,
                    "velocity": 0.31496062992125984,
                    "duration": 0.20905899999999633
                },
                {
                    "name": "D#3",
                    "midi": 51,
                    "time": 194.6339289999997,
                    "velocity": 0.31496062992125984,
                    "duration": 0.20905899999999633
                },
                {
                    "name": "C#3",
                    "midi": 49,
                    "time": 194.8429879999997,
                    "velocity": 0.2992125984251969,
                    "duration": 0.20905899999999633
                },
                {
                    "name": "B2",
                    "midi": 47,
                    "time": 195.0520469999997,
                    "velocity": 0.2992125984251969,
                    "duration": 0.20905899999999633
                },
                {
                    "name": "D#4",
                    "midi": 63,
                    "time": 195.2611059999997,
                    "velocity": 0.2677165354330709,
                    "duration": 0.20905899999999633
                },
                {
                    "name": "B4",
                    "midi": 71,
                    "time": 195.2611059999997,
                    "velocity": 0.3228346456692913,
                    "duration": 0.20905899999999633
                },
                {
                    "name": "B3",
                    "midi": 59,
                    "time": 195.5746944999997,
                    "velocity": 0.2125984251968504,
                    "duration": 0.05226475000000619
                },
                {
                    "name": "G#4",
                    "midi": 68,
                    "time": 195.5746944999997,
                    "velocity": 0.2677165354330709,
                    "duration": 0.05226475000000619
                },
                {
                    "name": "B3",
                    "midi": 59,
                    "time": 195.67922399999972,
                    "velocity": 0.2125984251968504,
                    "duration": 0.10452950000001238
                },
                {
                    "name": "G#4",
                    "midi": 68,
                    "time": 195.67922399999972,
                    "velocity": 0.2677165354330709,
                    "duration": 0.10452950000001238
                },
                {
                    "name": "G#3",
                    "midi": 56,
                    "time": 195.88828299999975,
                    "velocity": 0.28346456692913385,
                    "duration": 0.10452950000001238
                },
                {
                    "name": "D#4",
                    "midi": 63,
                    "time": 195.88828299999975,
                    "velocity": 0.3464566929133858,
                    "duration": 0.10452950000001238
                },
                {
                    "name": "D#3",
                    "midi": 51,
                    "time": 196.20187149999975,
                    "velocity": 0.2283464566929134,
                    "duration": 0.05226475000000619
                },
                {
                    "name": "B3",
                    "midi": 59,
                    "time": 196.20187149999975,
                    "velocity": 0.28346456692913385,
                    "duration": 0.05226475000000619
                },
                {
                    "name": "D#3",
                    "midi": 51,
                    "time": 196.30640099999977,
                    "velocity": 0.23622047244094488,
                    "duration": 0.10452950000001238
                },
                {
                    "name": "B3",
                    "midi": 59,
                    "time": 196.30640099999977,
                    "velocity": 0.2992125984251969,
                    "duration": 0.10452950000001238
                },
                {
                    "name": "G#1",
                    "midi": 32,
                    "time": 196.5154599999998,
                    "velocity": 0.28346456692913385,
                    "duration": 0.20905899999999633
                },
                {
                    "name": "G#2",
                    "midi": 44,
                    "time": 196.5154599999998,
                    "velocity": 0.28346456692913385,
                    "duration": 0.20905899999999633
                },
                {
                    "name": "D#3",
                    "midi": 51,
                    "time": 196.7245189999998,
                    "velocity": 0.3779527559055118,
                    "duration": 0.20905899999999633
                },
                {
                    "name": "C#3",
                    "midi": 49,
                    "time": 196.93357799999978,
                    "velocity": 0.3543307086614173,
                    "duration": 0.20905899999999633
                },
                {
                    "name": "B2",
                    "midi": 47,
                    "time": 197.14263699999978,
                    "velocity": 0.3543307086614173,
                    "duration": 0.20905899999999633
                },
                {
                    "name": "A#2",
                    "midi": 46,
                    "time": 197.35169599999978,
                    "velocity": 0.33858267716535434,
                    "duration": 0.20905899999999633
                },
                {
                    "name": "G#2",
                    "midi": 44,
                    "time": 197.56075499999977,
                    "velocity": 0.33070866141732286,
                    "duration": 0.20905899999999633
                },
                {
                    "name": "D4",
                    "midi": 62,
                    "time": 197.76981399999977,
                    "velocity": 0.29133858267716534,
                    "duration": 0.20905899999999633
                },
                {
                    "name": "B4",
                    "midi": 71,
                    "time": 197.76981399999977,
                    "velocity": 0.3543307086614173,
                    "duration": 0.20905899999999633
                },
                {
                    "name": "B3",
                    "midi": 59,
                    "time": 198.08340249999978,
                    "velocity": 0.23622047244094488,
                    "duration": 0.05226475000000619
                },
                {
                    "name": "F4",
                    "midi": 65,
                    "time": 198.08340249999978,
                    "velocity": 0.2992125984251969,
                    "duration": 0.05226475000000619
                },
                {
                    "name": "B3",
                    "midi": 59,
                    "time": 198.1879319999998,
                    "velocity": 0.23622047244094488,
                    "duration": 0.10452950000001238
                },
                {
                    "name": "F4",
                    "midi": 65,
                    "time": 198.1879319999998,
                    "velocity": 0.2992125984251969,
                    "duration": 0.10452950000001238
                },
                {
                    "name": "F3",
                    "midi": 53,
                    "time": 198.39699099999982,
                    "velocity": 0.30708661417322836,
                    "duration": 0.10452950000001238
                },
                {
                    "name": "D4",
                    "midi": 62,
                    "time": 198.39699099999982,
                    "velocity": 0.3779527559055118,
                    "duration": 0.10452950000001238
                },
                {
                    "name": "D3",
                    "midi": 50,
                    "time": 198.71057949999982,
                    "velocity": 0.25196850393700787,
                    "duration": 0.05226475000000619
                },
                {
                    "name": "B3",
                    "midi": 59,
                    "time": 198.71057949999982,
                    "velocity": 0.31496062992125984,
                    "duration": 0.05226475000000619
                },
                {
                    "name": "D3",
                    "midi": 50,
                    "time": 198.81510899999984,
                    "velocity": 0.2677165354330709,
                    "duration": 0.10452950000001238
                },
                {
                    "name": "B3",
                    "midi": 59,
                    "time": 198.81510899999984,
                    "velocity": 0.33070866141732286,
                    "duration": 0.10452950000001238
                },
                {
                    "name": "G#2",
                    "midi": 44,
                    "time": 199.02416799999986,
                    "velocity": 0.3464566929133858,
                    "duration": 0.20905899999999633
                },
                {
                    "name": "G#3",
                    "midi": 56,
                    "time": 199.02416799999986,
                    "velocity": 0.4251968503937008,
                    "duration": 0.20905899999999633
                },
                {
                    "name": "D#2",
                    "midi": 39,
                    "time": 199.33775649999987,
                    "velocity": 0.2755905511811024,
                    "duration": 0.05226475000000619
                },
                {
                    "name": "D#3",
                    "midi": 51,
                    "time": 199.33775649999987,
                    "velocity": 0.3464566929133858,
                    "duration": 0.05226475000000619
                },
                {
                    "name": "D#2",
                    "midi": 39,
                    "time": 199.44228599999988,
                    "velocity": 0.28346456692913385,
                    "duration": 0.10452950000001238
                },
                {
                    "name": "D#3",
                    "midi": 51,
                    "time": 199.44228599999988,
                    "velocity": 0.3543307086614173,
                    "duration": 0.10452950000001238
                },
                {
                    "name": "G#2",
                    "midi": 44,
                    "time": 199.6513449999999,
                    "velocity": 0.3700787401574803,
                    "duration": 0.10452950000001238
                },
                {
                    "name": "G#3",
                    "midi": 56,
                    "time": 199.6513449999999,
                    "velocity": 0.44881889763779526,
                    "duration": 0.10452950000001238
                },
                {
                    "name": "C#2",
                    "midi": 37,
                    "time": 199.96493349999992,
                    "velocity": 0.2992125984251969,
                    "duration": 0.05226475000000619
                },
                {
                    "name": "C#3",
                    "midi": 49,
                    "time": 199.96493349999992,
                    "velocity": 0.3700787401574803,
                    "duration": 0.05226475000000619
                },
                {
                    "name": "C#2",
                    "midi": 37,
                    "time": 200.06946299999993,
                    "velocity": 0.3228346456692913,
                    "duration": 0.10452950000001238
                },
                {
                    "name": "C#3",
                    "midi": 49,
                    "time": 200.06946299999993,
                    "velocity": 0.4015748031496063,
                    "duration": 0.10452950000001238
                },
                {
                    "name": "G#2",
                    "midi": 44,
                    "time": 200.27852199999995,
                    "velocity": 0.3779527559055118,
                    "duration": 0.20905899999999633
                },
                {
                    "name": "G#3",
                    "midi": 56,
                    "time": 200.27852199999995,
                    "velocity": 0.4645669291338583,
                    "duration": 0.20905899999999633
                },
                {
                    "name": "B1",
                    "midi": 35,
                    "time": 200.59211049999996,
                    "velocity": 0.30708661417322836,
                    "duration": 0.05226475000000619
                },
                {
                    "name": "B2",
                    "midi": 47,
                    "time": 200.59211049999996,
                    "velocity": 0.3779527559055118,
                    "duration": 0.05226475000000619
                },
                {
                    "name": "B1",
                    "midi": 35,
                    "time": 200.69663999999997,
                    "velocity": 0.30708661417322836,
                    "duration": 0.10452950000001238
                },
                {
                    "name": "B2",
                    "midi": 47,
                    "time": 200.69663999999997,
                    "velocity": 0.3858267716535433,
                    "duration": 0.10452950000001238
                },
                {
                    "name": "G#2",
                    "midi": 44,
                    "time": 200.905699,
                    "velocity": 0.4094488188976378,
                    "duration": 0.10452950000001238
                },
                {
                    "name": "G#3",
                    "midi": 56,
                    "time": 200.905699,
                    "velocity": 0.49606299212598426,
                    "duration": 0.10452950000001238
                },
                {
                    "name": "A#1",
                    "midi": 34,
                    "time": 201.2192875,
                    "velocity": 0.33858267716535434,
                    "duration": 0.05226475000000619
                },
                {
                    "name": "A#2",
                    "midi": 46,
                    "time": 201.2192875,
                    "velocity": 0.4094488188976378,
                    "duration": 0.05226475000000619
                },
                {
                    "name": "A#1",
                    "midi": 34,
                    "time": 201.32381700000002,
                    "velocity": 0.3543307086614173,
                    "duration": 0.10452950000001238
                },
                {
                    "name": "A#2",
                    "midi": 46,
                    "time": 201.32381700000002,
                    "velocity": 0.44881889763779526,
                    "duration": 0.10452950000001238
                },
                {
                    "name": "A2",
                    "midi": 45,
                    "time": 201.53287600000004,
                    "velocity": 0.41732283464566927,
                    "duration": 0.20905899999999633
                },
                {
                    "name": "A3",
                    "midi": 57,
                    "time": 201.53287600000004,
                    "velocity": 0.5118110236220472,
                    "duration": 0.20905899999999633
                },
                {
                    "name": "A1",
                    "midi": 33,
                    "time": 201.84646450000005,
                    "velocity": 0.3464566929133858,
                    "duration": 0.05226475000000619
                },
                {
                    "name": "A2",
                    "midi": 45,
                    "time": 201.84646450000005,
                    "velocity": 0.4251968503937008,
                    "duration": 0.05226475000000619
                },
                {
                    "name": "A1",
                    "midi": 33,
                    "time": 201.95099400000007,
                    "velocity": 0.3464566929133858,
                    "duration": 0.10452950000001238
                },
                {
                    "name": "A2",
                    "midi": 45,
                    "time": 201.95099400000007,
                    "velocity": 0.4330708661417323,
                    "duration": 0.10452950000001238
                },
                {
                    "name": "A#2",
                    "midi": 46,
                    "time": 202.1600530000001,
                    "velocity": 0.4409448818897638,
                    "duration": 0.10452950000001238
                },
                {
                    "name": "A#3",
                    "midi": 58,
                    "time": 202.1600530000001,
                    "velocity": 0.5511811023622047,
                    "duration": 0.10452950000001238
                },
                {
                    "name": "G#1",
                    "midi": 32,
                    "time": 202.4736415000001,
                    "velocity": 0.36220472440944884,
                    "duration": 0.05226475000000619
                },
                {
                    "name": "G#2",
                    "midi": 44,
                    "time": 202.4736415000001,
                    "velocity": 0.4566929133858268,
                    "duration": 0.05226475000000619
                },
                {
                    "name": "G#1",
                    "midi": 32,
                    "time": 202.5781710000001,
                    "velocity": 0.3858267716535433,
                    "duration": 0.10452950000001238
                },
                {
                    "name": "G#2",
                    "midi": 44,
                    "time": 202.5781710000001,
                    "velocity": 0.4881889763779528,
                    "duration": 0.10452950000001238
                },
                {
                    "name": "B2",
                    "midi": 47,
                    "time": 202.78723000000014,
                    "velocity": 0.4566929133858268,
                    "duration": 0.20905899999999633
                },
                {
                    "name": "B3",
                    "midi": 59,
                    "time": 202.78723000000014,
                    "velocity": 0.5590551181102362,
                    "duration": 0.20905899999999633
                },
                {
                    "name": "G#1",
                    "midi": 32,
                    "time": 203.10081850000014,
                    "velocity": 0.3779527559055118,
                    "duration": 0.05226475000000619
                },
                {
                    "name": "G#2",
                    "midi": 44,
                    "time": 203.10081850000014,
                    "velocity": 0.47244094488188976,
                    "duration": 0.05226475000000619
                },
                {
                    "name": "G#1",
                    "midi": 32,
                    "time": 203.20534800000016,
                    "velocity": 0.3779527559055118,
                    "duration": 0.10452950000001238
                },
                {
                    "name": "G#2",
                    "midi": 44,
                    "time": 203.20534800000016,
                    "velocity": 0.47244094488188976,
                    "duration": 0.10452950000001238
                },
                {
                    "name": "B2",
                    "midi": 47,
                    "time": 203.41440700000018,
                    "velocity": 0.49606299212598426,
                    "duration": 0.10452950000001238
                },
                {
                    "name": "B3",
                    "midi": 59,
                    "time": 203.41440700000018,
                    "velocity": 0.5984251968503937,
                    "duration": 0.10452950000001238
                },
                {
                    "name": "G1",
                    "midi": 31,
                    "time": 203.7279955000002,
                    "velocity": 0.4094488188976378,
                    "duration": 0.05226475000000619
                },
                {
                    "name": "G2",
                    "midi": 43,
                    "time": 203.7279955000002,
                    "velocity": 0.49606299212598426,
                    "duration": 0.05226475000000619
                },
                {
                    "name": "G1",
                    "midi": 31,
                    "time": 203.8325250000002,
                    "velocity": 0.41732283464566927,
                    "duration": 0.10452950000001238
                },
                {
                    "name": "G2",
                    "midi": 43,
                    "time": 203.8325250000002,
                    "velocity": 0.5275590551181102,
                    "duration": 0.10452950000001238
                },
                {
                    "name": "C2",
                    "midi": 36,
                    "time": 204.04158400000023,
                    "velocity": 0.3937007874015748,
                    "duration": 0.20905899999999633
                },
                {
                    "name": "E2",
                    "midi": 40,
                    "time": 204.04158400000023,
                    "velocity": 0.3937007874015748,
                    "duration": 0.20905899999999633
                },
                {
                    "name": "G2",
                    "midi": 43,
                    "time": 204.04158400000023,
                    "velocity": 0.3937007874015748,
                    "duration": 0.20905899999999633
                },
                {
                    "name": "C3",
                    "midi": 48,
                    "time": 204.04158400000023,
                    "velocity": 0.48031496062992124,
                    "duration": 0.20905899999999633
                },
                {
                    "name": "E2",
                    "midi": 40,
                    "time": 204.35517250000024,
                    "velocity": 0.3228346456692913,
                    "duration": 0.05226475000000619
                },
                {
                    "name": "G2",
                    "midi": 43,
                    "time": 204.35517250000024,
                    "velocity": 0.3228346456692913,
                    "duration": 0.05226475000000619
                },
                {
                    "name": "E3",
                    "midi": 52,
                    "time": 204.35517250000024,
                    "velocity": 0.3937007874015748,
                    "duration": 0.05226475000000619
                },
                {
                    "name": "C3",
                    "midi": 48,
                    "time": 204.35517250000024,
                    "velocity": 0.3228346456692913,
                    "duration": 0.05226475000000619
                },
                {
                    "name": "E2",
                    "midi": 40,
                    "time": 204.45970200000025,
                    "velocity": 0.3228346456692913,
                    "duration": 0.10452950000001238
                },
                {
                    "name": "G2",
                    "midi": 43,
                    "time": 204.45970200000025,
                    "velocity": 0.3228346456692913,
                    "duration": 0.10452950000001238
                },
                {
                    "name": "C3",
                    "midi": 48,
                    "time": 204.45970200000025,
                    "velocity": 0.3228346456692913,
                    "duration": 0.10452950000001238
                },
                {
                    "name": "E3",
                    "midi": 52,
                    "time": 204.45970200000025,
                    "velocity": 0.3937007874015748,
                    "duration": 0.10452950000001238
                },
                {
                    "name": "E2",
                    "midi": 40,
                    "time": 204.66876100000027,
                    "velocity": 0.4094488188976378,
                    "duration": 0.10452950000001238
                },
                {
                    "name": "G2",
                    "midi": 43,
                    "time": 204.66876100000027,
                    "velocity": 0.4094488188976378,
                    "duration": 0.10452950000001238
                },
                {
                    "name": "C3",
                    "midi": 48,
                    "time": 204.66876100000027,
                    "velocity": 0.4094488188976378,
                    "duration": 0.10452950000001238
                },
                {
                    "name": "E3",
                    "midi": 52,
                    "time": 204.66876100000027,
                    "velocity": 0.49606299212598426,
                    "duration": 0.10452950000001238
                },
                {
                    "name": "G2",
                    "midi": 43,
                    "time": 204.98234950000028,
                    "velocity": 0.33858267716535434,
                    "duration": 0.05226475000000619
                },
                {
                    "name": "C3",
                    "midi": 48,
                    "time": 204.98234950000028,
                    "velocity": 0.33858267716535434,
                    "duration": 0.05226475000000619
                },
                {
                    "name": "G3",
                    "midi": 55,
                    "time": 204.98234950000028,
                    "velocity": 0.4094488188976378,
                    "duration": 0.05226475000000619
                },
                {
                    "name": "E3",
                    "midi": 52,
                    "time": 204.98234950000028,
                    "velocity": 0.33858267716535434,
                    "duration": 0.05226475000000619
                },
                {
                    "name": "G2",
                    "midi": 43,
                    "time": 205.0868790000003,
                    "velocity": 0.3543307086614173,
                    "duration": 0.10452950000001238
                },
                {
                    "name": "C3",
                    "midi": 48,
                    "time": 205.0868790000003,
                    "velocity": 0.3543307086614173,
                    "duration": 0.10452950000001238
                },
                {
                    "name": "E3",
                    "midi": 52,
                    "time": 205.0868790000003,
                    "velocity": 0.3543307086614173,
                    "duration": 0.10452950000001238
                },
                {
                    "name": "G3",
                    "midi": 55,
                    "time": 205.0868790000003,
                    "velocity": 0.4251968503937008,
                    "duration": 0.10452950000001238
                },
                {
                    "name": "A2",
                    "midi": 45,
                    "time": 205.29593800000032,
                    "velocity": 0.4094488188976378,
                    "duration": 0.10452950000001238
                },
                {
                    "name": "C3",
                    "midi": 48,
                    "time": 205.29593800000032,
                    "velocity": 0.4094488188976378,
                    "duration": 0.10452950000001238
                },
                {
                    "name": "E3",
                    "midi": 52,
                    "time": 205.29593800000032,
                    "velocity": 0.4094488188976378,
                    "duration": 0.10452950000001238
                },
                {
                    "name": "A3",
                    "midi": 57,
                    "time": 205.29593800000032,
                    "velocity": 0.49606299212598426,
                    "duration": 0.10452950000001238
                },
                {
                    "name": "C3",
                    "midi": 48,
                    "time": 205.60952650000033,
                    "velocity": 0.33858267716535434,
                    "duration": 0.05226475000000619
                },
                {
                    "name": "E3",
                    "midi": 52,
                    "time": 205.60952650000033,
                    "velocity": 0.33858267716535434,
                    "duration": 0.05226475000000619
                },
                {
                    "name": "A3",
                    "midi": 57,
                    "time": 205.60952650000033,
                    "velocity": 0.33858267716535434,
                    "duration": 0.05226475000000619
                },
                {
                    "name": "C4",
                    "midi": 60,
                    "time": 205.60952650000033,
                    "velocity": 0.4094488188976378,
                    "duration": 0.05226475000000619
                },
                {
                    "name": "C3",
                    "midi": 48,
                    "time": 205.71405600000034,
                    "velocity": 0.33858267716535434,
                    "duration": 0.10452950000001238
                },
                {
                    "name": "E3",
                    "midi": 52,
                    "time": 205.71405600000034,
                    "velocity": 0.33858267716535434,
                    "duration": 0.10452950000001238
                },
                {
                    "name": "A3",
                    "midi": 57,
                    "time": 205.71405600000034,
                    "velocity": 0.33858267716535434,
                    "duration": 0.10452950000001238
                },
                {
                    "name": "C4",
                    "midi": 60,
                    "time": 205.71405600000034,
                    "velocity": 0.4094488188976378,
                    "duration": 0.10452950000001238
                },
                {
                    "name": "C3",
                    "midi": 48,
                    "time": 205.92311500000037,
                    "velocity": 0.3937007874015748,
                    "duration": 0.627176999999989
                },
                {
                    "name": "E3",
                    "midi": 52,
                    "time": 205.92311500000037,
                    "velocity": 0.3937007874015748,
                    "duration": 0.627176999999989
                },
                {
                    "name": "A3",
                    "midi": 57,
                    "time": 205.92311500000037,
                    "velocity": 0.3937007874015748,
                    "duration": 0.627176999999989
                },
                {
                    "name": "C4",
                    "midi": 60,
                    "time": 205.92311500000037,
                    "velocity": 0.48031496062992124,
                    "duration": 0.627176999999989
                },
                {
                    "name": "G2",
                    "midi": 43,
                    "time": 206.55029200000035,
                    "velocity": 0.3937007874015748,
                    "duration": 0.20905899999999633
                },
                {
                    "name": "D3",
                    "midi": 50,
                    "time": 206.55029200000035,
                    "velocity": 0.3937007874015748,
                    "duration": 0.20905899999999633
                },
                {
                    "name": "G3",
                    "midi": 55,
                    "time": 206.55029200000035,
                    "velocity": 0.4645669291338583,
                    "duration": 0.20905899999999633
                },
                {
                    "name": "G3",
                    "midi": 55,
                    "time": 206.86388050000036,
                    "velocity": 0.33858267716535434,
                    "duration": 0.05226475000000619
                },
                {
                    "name": "B3",
                    "midi": 59,
                    "time": 206.86388050000036,
                    "velocity": 0.33858267716535434,
                    "duration": 0.05226475000000619
                },
                {
                    "name": "F4",
                    "midi": 65,
                    "time": 206.86388050000036,
                    "velocity": 0.4094488188976378,
                    "duration": 0.05226475000000619
                },
                {
                    "name": "G3",
                    "midi": 55,
                    "time": 206.96841000000038,
                    "velocity": 0.33858267716535434,
                    "duration": 0.10452950000001238
                },
                {
                    "name": "B3",
                    "midi": 59,
                    "time": 206.96841000000038,
                    "velocity": 0.33858267716535434,
                    "duration": 0.10452950000001238
                },
                {
                    "name": "F4",
                    "midi": 65,
                    "time": 206.96841000000038,
                    "velocity": 0.4094488188976378,
                    "duration": 0.10452950000001238
                },
                {
                    "name": "A#3",
                    "midi": 58,
                    "time": 207.1774690000004,
                    "velocity": 0.3937007874015748,
                    "duration": 0.10452950000001238
                },
                {
                    "name": "G3",
                    "midi": 55,
                    "time": 207.1774690000004,
                    "velocity": 0.3937007874015748,
                    "duration": 0.10452950000001238
                },
                {
                    "name": "F4",
                    "midi": 65,
                    "time": 207.1774690000004,
                    "velocity": 0.48031496062992124,
                    "duration": 0.10452950000001238
                },
                {
                    "name": "G3",
                    "midi": 55,
                    "time": 207.38652800000042,
                    "velocity": 0.4330708661417323,
                    "duration": 0.10452950000001238
                },
                {
                    "name": "B3",
                    "midi": 59,
                    "time": 207.38652800000042,
                    "velocity": 0.4330708661417323,
                    "duration": 0.10452950000001238
                },
                {
                    "name": "F4",
                    "midi": 65,
                    "time": 207.38652800000042,
                    "velocity": 0.5039370078740157,
                    "duration": 0.10452950000001238
                },
                {
                    "name": "G3",
                    "midi": 55,
                    "time": 207.59558700000045,
                    "velocity": 0.44881889763779526,
                    "duration": 0.10452950000001238
                },
                {
                    "name": "B3",
                    "midi": 59,
                    "time": 207.59558700000045,
                    "velocity": 0.44881889763779526,
                    "duration": 0.10452950000001238
                },
                {
                    "name": "F4",
                    "midi": 65,
                    "time": 207.59558700000045,
                    "velocity": 0.5511811023622047,
                    "duration": 0.10452950000001238
                },
                {
                    "name": "C4",
                    "midi": 60,
                    "time": 207.80464600000047,
                    "velocity": 0.49606299212598426,
                    "duration": 0.627176999999989
                },
                {
                    "name": "E4",
                    "midi": 64,
                    "time": 207.80464600000047,
                    "velocity": 0.5748031496062992,
                    "duration": 0.627176999999989
                },
                {
                    "name": "E4",
                    "midi": 64,
                    "time": 208.43182300000046,
                    "velocity": 0.4251968503937008,
                    "duration": 0.20905899999999633
                },
                {
                    "name": "G4",
                    "midi": 67,
                    "time": 208.43182300000046,
                    "velocity": 0.5039370078740157,
                    "duration": 0.20905899999999633
                },
                {
                    "name": "C2",
                    "midi": 36,
                    "time": 209.05900000000045,
                    "velocity": 0.3937007874015748,
                    "duration": 0.20905899999999633
                },
                {
                    "name": "E2",
                    "midi": 40,
                    "time": 209.05900000000045,
                    "velocity": 0.3937007874015748,
                    "duration": 0.20905899999999633
                },
                {
                    "name": "G2",
                    "midi": 43,
                    "time": 209.05900000000045,
                    "velocity": 0.3937007874015748,
                    "duration": 0.20905899999999633
                },
                {
                    "name": "C3",
                    "midi": 48,
                    "time": 209.05900000000045,
                    "velocity": 0.48031496062992124,
                    "duration": 0.20905899999999633
                },
                {
                    "name": "E2",
                    "midi": 40,
                    "time": 209.37258850000046,
                    "velocity": 0.3228346456692913,
                    "duration": 0.05226475000000619
                },
                {
                    "name": "G2",
                    "midi": 43,
                    "time": 209.37258850000046,
                    "velocity": 0.3228346456692913,
                    "duration": 0.05226475000000619
                },
                {
                    "name": "E3",
                    "midi": 52,
                    "time": 209.37258850000046,
                    "velocity": 0.3937007874015748,
                    "duration": 0.05226475000000619
                },
                {
                    "name": "C3",
                    "midi": 48,
                    "time": 209.37258850000046,
                    "velocity": 0.3228346456692913,
                    "duration": 0.05226475000000619
                },
                {
                    "name": "E2",
                    "midi": 40,
                    "time": 209.47711800000047,
                    "velocity": 0.3228346456692913,
                    "duration": 0.10452950000001238
                },
                {
                    "name": "G2",
                    "midi": 43,
                    "time": 209.47711800000047,
                    "velocity": 0.3228346456692913,
                    "duration": 0.10452950000001238
                },
                {
                    "name": "C3",
                    "midi": 48,
                    "time": 209.47711800000047,
                    "velocity": 0.3228346456692913,
                    "duration": 0.10452950000001238
                },
                {
                    "name": "E3",
                    "midi": 52,
                    "time": 209.47711800000047,
                    "velocity": 0.3937007874015748,
                    "duration": 0.10452950000001238
                },
                {
                    "name": "E2",
                    "midi": 40,
                    "time": 209.6861770000005,
                    "velocity": 0.4094488188976378,
                    "duration": 0.10452950000001238
                },
                {
                    "name": "G2",
                    "midi": 43,
                    "time": 209.6861770000005,
                    "velocity": 0.4094488188976378,
                    "duration": 0.10452950000001238
                },
                {
                    "name": "C3",
                    "midi": 48,
                    "time": 209.6861770000005,
                    "velocity": 0.4094488188976378,
                    "duration": 0.10452950000001238
                },
                {
                    "name": "E3",
                    "midi": 52,
                    "time": 209.6861770000005,
                    "velocity": 0.49606299212598426,
                    "duration": 0.10452950000001238
                },
                {
                    "name": "G2",
                    "midi": 43,
                    "time": 209.9997655000005,
                    "velocity": 0.33858267716535434,
                    "duration": 0.05226475000000619
                },
                {
                    "name": "C3",
                    "midi": 48,
                    "time": 209.9997655000005,
                    "velocity": 0.33858267716535434,
                    "duration": 0.05226475000000619
                },
                {
                    "name": "G3",
                    "midi": 55,
                    "time": 209.9997655000005,
                    "velocity": 0.4094488188976378,
                    "duration": 0.05226475000000619
                },
                {
                    "name": "E3",
                    "midi": 52,
                    "time": 209.9997655000005,
                    "velocity": 0.33858267716535434,
                    "duration": 0.05226475000000619
                },
                {
                    "name": "G2",
                    "midi": 43,
                    "time": 210.10429500000052,
                    "velocity": 0.3543307086614173,
                    "duration": 0.10452950000001238
                },
                {
                    "name": "C3",
                    "midi": 48,
                    "time": 210.10429500000052,
                    "velocity": 0.3543307086614173,
                    "duration": 0.10452950000001238
                },
                {
                    "name": "E3",
                    "midi": 52,
                    "time": 210.10429500000052,
                    "velocity": 0.3543307086614173,
                    "duration": 0.10452950000001238
                },
                {
                    "name": "G3",
                    "midi": 55,
                    "time": 210.10429500000052,
                    "velocity": 0.4251968503937008,
                    "duration": 0.10452950000001238
                },
                {
                    "name": "A2",
                    "midi": 45,
                    "time": 210.31335400000054,
                    "velocity": 0.4094488188976378,
                    "duration": 0.10452950000001238
                },
                {
                    "name": "C3",
                    "midi": 48,
                    "time": 210.31335400000054,
                    "velocity": 0.4094488188976378,
                    "duration": 0.10452950000001238
                },
                {
                    "name": "E3",
                    "midi": 52,
                    "time": 210.31335400000054,
                    "velocity": 0.4094488188976378,
                    "duration": 0.10452950000001238
                },
                {
                    "name": "A3",
                    "midi": 57,
                    "time": 210.31335400000054,
                    "velocity": 0.49606299212598426,
                    "duration": 0.10452950000001238
                },
                {
                    "name": "C3",
                    "midi": 48,
                    "time": 210.62694250000055,
                    "velocity": 0.33858267716535434,
                    "duration": 0.05226475000000619
                },
                {
                    "name": "E3",
                    "midi": 52,
                    "time": 210.62694250000055,
                    "velocity": 0.33858267716535434,
                    "duration": 0.05226475000000619
                },
                {
                    "name": "A3",
                    "midi": 57,
                    "time": 210.62694250000055,
                    "velocity": 0.33858267716535434,
                    "duration": 0.05226475000000619
                },
                {
                    "name": "C4",
                    "midi": 60,
                    "time": 210.62694250000055,
                    "velocity": 0.4094488188976378,
                    "duration": 0.05226475000000619
                },
                {
                    "name": "C3",
                    "midi": 48,
                    "time": 210.73147200000057,
                    "velocity": 0.33858267716535434,
                    "duration": 0.10452950000001238
                },
                {
                    "name": "E3",
                    "midi": 52,
                    "time": 210.73147200000057,
                    "velocity": 0.33858267716535434,
                    "duration": 0.10452950000001238
                },
                {
                    "name": "A3",
                    "midi": 57,
                    "time": 210.73147200000057,
                    "velocity": 0.33858267716535434,
                    "duration": 0.10452950000001238
                },
                {
                    "name": "C4",
                    "midi": 60,
                    "time": 210.73147200000057,
                    "velocity": 0.4094488188976378,
                    "duration": 0.10452950000001238
                },
                {
                    "name": "C3",
                    "midi": 48,
                    "time": 210.9405310000006,
                    "velocity": 0.3937007874015748,
                    "duration": 0.627176999999989
                },
                {
                    "name": "E3",
                    "midi": 52,
                    "time": 210.9405310000006,
                    "velocity": 0.3937007874015748,
                    "duration": 0.627176999999989
                },
                {
                    "name": "A3",
                    "midi": 57,
                    "time": 210.9405310000006,
                    "velocity": 0.3937007874015748,
                    "duration": 0.627176999999989
                },
                {
                    "name": "C4",
                    "midi": 60,
                    "time": 210.9405310000006,
                    "velocity": 0.48031496062992124,
                    "duration": 0.627176999999989
                },
                {
                    "name": "F#3",
                    "midi": 54,
                    "time": 211.56770800000058,
                    "velocity": 0.3937007874015748,
                    "duration": 0.20905899999999633
                },
                {
                    "name": "B2",
                    "midi": 47,
                    "time": 211.56770800000058,
                    "velocity": 0.3937007874015748,
                    "duration": 0.20905899999999633
                },
                {
                    "name": "D#3",
                    "midi": 51,
                    "time": 211.56770800000058,
                    "velocity": 0.3937007874015748,
                    "duration": 0.20905899999999633
                },
                {
                    "name": "B3",
                    "midi": 59,
                    "time": 211.56770800000058,
                    "velocity": 0.4645669291338583,
                    "duration": 0.20905899999999633
                },
                {
                    "name": "B3",
                    "midi": 59,
                    "time": 211.8812965000006,
                    "velocity": 0.33858267716535434,
                    "duration": 0.05226475000000619
                },
                {
                    "name": "D#4",
                    "midi": 63,
                    "time": 211.8812965000006,
                    "velocity": 0.33858267716535434,
                    "duration": 0.05226475000000619
                },
                {
                    "name": "F#4",
                    "midi": 66,
                    "time": 211.8812965000006,
                    "velocity": 0.4094488188976378,
                    "duration": 0.05226475000000619
                },
                {
                    "name": "B3",
                    "midi": 59,
                    "time": 211.9858260000006,
                    "velocity": 0.33858267716535434,
                    "duration": 0.10452950000001238
                },
                {
                    "name": "D#4",
                    "midi": 63,
                    "time": 211.9858260000006,
                    "velocity": 0.33858267716535434,
                    "duration": 0.10452950000001238
                },
                {
                    "name": "F#4",
                    "midi": 66,
                    "time": 211.9858260000006,
                    "velocity": 0.4094488188976378,
                    "duration": 0.10452950000001238
                },
                {
                    "name": "D#4",
                    "midi": 63,
                    "time": 212.19488500000062,
                    "velocity": 0.3543307086614173,
                    "duration": 0.10452950000001238
                },
                {
                    "name": "B3",
                    "midi": 59,
                    "time": 212.19488500000062,
                    "velocity": 0.3543307086614173,
                    "duration": 0.10452950000001238
                },
                {
                    "name": "F4",
                    "midi": 65,
                    "time": 212.19488500000062,
                    "velocity": 0.4251968503937008,
                    "duration": 0.10452950000001238
                },
                {
                    "name": "B3",
                    "midi": 59,
                    "time": 212.40394400000065,
                    "velocity": 0.3858267716535433,
                    "duration": 0.10452950000001238
                },
                {
                    "name": "D#4",
                    "midi": 63,
                    "time": 212.40394400000065,
                    "velocity": 0.3858267716535433,
                    "duration": 0.10452950000001238
                },
                {
                    "name": "F#4",
                    "midi": 66,
                    "time": 212.40394400000065,
                    "velocity": 0.44881889763779526,
                    "duration": 0.10452950000001238
                },
                {
                    "name": "B3",
                    "midi": 59,
                    "time": 212.61300300000067,
                    "velocity": 0.4015748031496063,
                    "duration": 0.10452950000001238
                },
                {
                    "name": "D#4",
                    "midi": 63,
                    "time": 212.61300300000067,
                    "velocity": 0.4015748031496063,
                    "duration": 0.10452950000001238
                },
                {
                    "name": "F#4",
                    "midi": 66,
                    "time": 212.61300300000067,
                    "velocity": 0.49606299212598426,
                    "duration": 0.10452950000001238
                },
                {
                    "name": "B3",
                    "midi": 59,
                    "time": 212.8220620000007,
                    "velocity": 0.49606299212598426,
                    "duration": 0.627176999999989
                },
                {
                    "name": "D#4",
                    "midi": 63,
                    "time": 212.8220620000007,
                    "velocity": 0.49606299212598426,
                    "duration": 0.627176999999989
                },
                {
                    "name": "F#4",
                    "midi": 66,
                    "time": 212.8220620000007,
                    "velocity": 0.49606299212598426,
                    "duration": 0.627176999999989
                },
                {
                    "name": "B4",
                    "midi": 71,
                    "time": 212.8220620000007,
                    "velocity": 0.5748031496062992,
                    "duration": 0.627176999999989
                },
                {
                    "name": "G3",
                    "midi": 55,
                    "time": 213.4492390000007,
                    "velocity": 0.4251968503937008,
                    "duration": 0.20905899999999633
                },
                {
                    "name": "D4",
                    "midi": 62,
                    "time": 213.4492390000007,
                    "velocity": 0.4251968503937008,
                    "duration": 0.20905899999999633
                },
                {
                    "name": "F4",
                    "midi": 65,
                    "time": 213.4492390000007,
                    "velocity": 0.4251968503937008,
                    "duration": 0.20905899999999633
                },
                {
                    "name": "B4",
                    "midi": 71,
                    "time": 213.4492390000007,
                    "velocity": 0.5039370078740157,
                    "duration": 0.20905899999999633
                },
                {
                    "name": "C4",
                    "midi": 60,
                    "time": 214.07641600000068,
                    "velocity": 0.3779527559055118,
                    "duration": 0.15679424999999014
                },
                {
                    "name": "E4",
                    "midi": 64,
                    "time": 214.07641600000068,
                    "velocity": 0.3779527559055118,
                    "duration": 0.15679424999999014
                },
                {
                    "name": "G4",
                    "midi": 67,
                    "time": 214.07641600000068,
                    "velocity": 0.3779527559055118,
                    "duration": 0.15679424999999014
                },
                {
                    "name": "C5",
                    "midi": 72,
                    "time": 214.07641600000068,
                    "velocity": 0.44881889763779526,
                    "duration": 0.15679424999999014
                },
                {
                    "name": "G3",
                    "midi": 55,
                    "time": 214.23321025000067,
                    "velocity": 0.3228346456692913,
                    "duration": 0.04703827500000557
                },
                {
                    "name": "C4",
                    "midi": 60,
                    "time": 214.23321025000067,
                    "velocity": 0.3228346456692913,
                    "duration": 0.04703827500000557
                },
                {
                    "name": "E4",
                    "midi": 64,
                    "time": 214.23321025000067,
                    "velocity": 0.3228346456692913,
                    "duration": 0.04703827500000557
                },
                {
                    "name": "G4",
                    "midi": 67,
                    "time": 214.23321025000067,
                    "velocity": 0.3858267716535433,
                    "duration": 0.04703827500000557
                },
                {
                    "name": "G3",
                    "midi": 55,
                    "time": 214.28547500000067,
                    "velocity": 0.3858267716535433,
                    "duration": 0.05226475000000619
                },
                {
                    "name": "C4",
                    "midi": 60,
                    "time": 214.28547500000067,
                    "velocity": 0.3858267716535433,
                    "duration": 0.05226475000000619
                },
                {
                    "name": "E4",
                    "midi": 64,
                    "time": 214.28547500000067,
                    "velocity": 0.3858267716535433,
                    "duration": 0.05226475000000619
                },
                {
                    "name": "G4",
                    "midi": 67,
                    "time": 214.28547500000067,
                    "velocity": 0.4566929133858268,
                    "duration": 0.05226475000000619
                },
                {
                    "name": "E4",
                    "midi": 64,
                    "time": 214.49453400000067,
                    "velocity": 0.4566929133858268,
                    "duration": 0.15679424999999014
                },
                {
                    "name": "C4",
                    "midi": 60,
                    "time": 214.49453400000067,
                    "velocity": 0.3858267716535433,
                    "duration": 0.15679424999999014
                },
                {
                    "name": "G3",
                    "midi": 55,
                    "time": 214.49453400000067,
                    "velocity": 0.3858267716535433,
                    "duration": 0.15679424999999014
                },
                {
                    "name": "E3",
                    "midi": 52,
                    "time": 214.49453400000067,
                    "velocity": 0.3858267716535433,
                    "duration": 0.15679424999999014
                },
                {
                    "name": "C3",
                    "midi": 48,
                    "time": 214.65132825000066,
                    "velocity": 0.33858267716535434,
                    "duration": 0.04703827500000557
                },
                {
                    "name": "E3",
                    "midi": 52,
                    "time": 214.65132825000066,
                    "velocity": 0.33858267716535434,
                    "duration": 0.04703827500000557
                },
                {
                    "name": "G3",
                    "midi": 55,
                    "time": 214.65132825000066,
                    "velocity": 0.33858267716535434,
                    "duration": 0.04703827500000557
                },
                {
                    "name": "C4",
                    "midi": 60,
                    "time": 214.65132825000066,
                    "velocity": 0.4015748031496063,
                    "duration": 0.04703827500000557
                },
                {
                    "name": "C3",
                    "midi": 48,
                    "time": 214.70359300000067,
                    "velocity": 0.3937007874015748,
                    "duration": 0.05226475000000619
                },
                {
                    "name": "E3",
                    "midi": 52,
                    "time": 214.70359300000067,
                    "velocity": 0.3937007874015748,
                    "duration": 0.05226475000000619
                },
                {
                    "name": "G3",
                    "midi": 55,
                    "time": 214.70359300000067,
                    "velocity": 0.3937007874015748,
                    "duration": 0.05226475000000619
                },
                {
                    "name": "C4",
                    "midi": 60,
                    "time": 214.70359300000067,
                    "velocity": 0.4645669291338583,
                    "duration": 0.05226475000000619
                },
                {
                    "name": "A2",
                    "midi": 45,
                    "time": 214.91265200000066,
                    "velocity": 0.3779527559055118,
                    "duration": 0.15679424999999014
                },
                {
                    "name": "C3",
                    "midi": 48,
                    "time": 214.91265200000066,
                    "velocity": 0.3779527559055118,
                    "duration": 0.15679424999999014
                },
                {
                    "name": "E3",
                    "midi": 52,
                    "time": 214.91265200000066,
                    "velocity": 0.3779527559055118,
                    "duration": 0.15679424999999014
                },
                {
                    "name": "A3",
                    "midi": 57,
                    "time": 214.91265200000066,
                    "velocity": 0.44881889763779526,
                    "duration": 0.15679424999999014
                },
                {
                    "name": "E2",
                    "midi": 40,
                    "time": 215.06944625000065,
                    "velocity": 0.3228346456692913,
                    "duration": 0.04703827500000557
                },
                {
                    "name": "A2",
                    "midi": 45,
                    "time": 215.06944625000065,
                    "velocity": 0.3228346456692913,
                    "duration": 0.04703827500000557
                },
                {
                    "name": "C3",
                    "midi": 48,
                    "time": 215.06944625000065,
                    "velocity": 0.3228346456692913,
                    "duration": 0.04703827500000557
                },
                {
                    "name": "E3",
                    "midi": 52,
                    "time": 215.06944625000065,
                    "velocity": 0.3858267716535433,
                    "duration": 0.04703827500000557
                },
                {
                    "name": "E2",
                    "midi": 40,
                    "time": 215.12171100000066,
                    "velocity": 0.3858267716535433,
                    "duration": 0.05226475000000619
                },
                {
                    "name": "A2",
                    "midi": 45,
                    "time": 215.12171100000066,
                    "velocity": 0.3858267716535433,
                    "duration": 0.05226475000000619
                },
                {
                    "name": "C3",
                    "midi": 48,
                    "time": 215.12171100000066,
                    "velocity": 0.3858267716535433,
                    "duration": 0.05226475000000619
                },
                {
                    "name": "E3",
                    "midi": 52,
                    "time": 215.12171100000066,
                    "velocity": 0.4566929133858268,
                    "duration": 0.05226475000000619
                },
                {
                    "name": "C3",
                    "midi": 48,
                    "time": 215.33077000000065,
                    "velocity": 0.4566929133858268,
                    "duration": 0.15679424999999014
                },
                {
                    "name": "A2",
                    "midi": 45,
                    "time": 215.33077000000065,
                    "velocity": 0.3858267716535433,
                    "duration": 0.15679424999999014
                },
                {
                    "name": "E2",
                    "midi": 40,
                    "time": 215.33077000000065,
                    "velocity": 0.3858267716535433,
                    "duration": 0.15679424999999014
                },
                {
                    "name": "C2",
                    "midi": 36,
                    "time": 215.33077000000065,
                    "velocity": 0.3858267716535433,
                    "duration": 0.15679424999999014
                },
                {
                    "name": "A1",
                    "midi": 33,
                    "time": 215.48756425000064,
                    "velocity": 0.33858267716535434,
                    "duration": 0.04703827500000557
                },
                {
                    "name": "C2",
                    "midi": 36,
                    "time": 215.48756425000064,
                    "velocity": 0.33858267716535434,
                    "duration": 0.04703827500000557
                },
                {
                    "name": "E2",
                    "midi": 40,
                    "time": 215.48756425000064,
                    "velocity": 0.33858267716535434,
                    "duration": 0.04703827500000557
                },
                {
                    "name": "A2",
                    "midi": 45,
                    "time": 215.48756425000064,
                    "velocity": 0.4015748031496063,
                    "duration": 0.04703827500000557
                },
                {
                    "name": "A1",
                    "midi": 33,
                    "time": 215.53982900000065,
                    "velocity": 0.3937007874015748,
                    "duration": 0.05226475000000619
                },
                {
                    "name": "C2",
                    "midi": 36,
                    "time": 215.53982900000065,
                    "velocity": 0.3937007874015748,
                    "duration": 0.05226475000000619
                },
                {
                    "name": "E2",
                    "midi": 40,
                    "time": 215.53982900000065,
                    "velocity": 0.3937007874015748,
                    "duration": 0.05226475000000619
                },
                {
                    "name": "A2",
                    "midi": 45,
                    "time": 215.53982900000065,
                    "velocity": 0.4645669291338583,
                    "duration": 0.05226475000000619
                },
                {
                    "name": "G1",
                    "midi": 31,
                    "time": 215.74888800000065,
                    "velocity": 0.3937007874015748,
                    "duration": 0.20905899999999633
                },
                {
                    "name": "D2",
                    "midi": 38,
                    "time": 215.74888800000065,
                    "velocity": 0.3937007874015748,
                    "duration": 0.20905899999999633
                },
                {
                    "name": "G2",
                    "midi": 43,
                    "time": 215.74888800000065,
                    "velocity": 0.4645669291338583,
                    "duration": 0.20905899999999633
                },
                {
                    "name": "G2",
                    "midi": 43,
                    "time": 216.06247650000066,
                    "velocity": 0.33858267716535434,
                    "duration": 0.05226475000000619
                },
                {
                    "name": "B2",
                    "midi": 47,
                    "time": 216.06247650000066,
                    "velocity": 0.33858267716535434,
                    "duration": 0.05226475000000619
                },
                {
                    "name": "D3",
                    "midi": 50,
                    "time": 216.06247650000066,
                    "velocity": 0.4094488188976378,
                    "duration": 0.05226475000000619
                },
                {
                    "name": "G2",
                    "midi": 43,
                    "time": 216.16700600000067,
                    "velocity": 0.33858267716535434,
                    "duration": 0.10452950000001238
                },
                {
                    "name": "B2",
                    "midi": 47,
                    "time": 216.16700600000067,
                    "velocity": 0.33858267716535434,
                    "duration": 0.10452950000001238
                },
                {
                    "name": "D3",
                    "midi": 50,
                    "time": 216.16700600000067,
                    "velocity": 0.4094488188976378,
                    "duration": 0.10452950000001238
                },
                {
                    "name": "A#2",
                    "midi": 46,
                    "time": 216.3760650000007,
                    "velocity": 0.3937007874015748,
                    "duration": 0.10452950000001238
                },
                {
                    "name": "G2",
                    "midi": 43,
                    "time": 216.3760650000007,
                    "velocity": 0.3937007874015748,
                    "duration": 0.10452950000001238
                },
                {
                    "name": "C#3",
                    "midi": 49,
                    "time": 216.3760650000007,
                    "velocity": 0.48031496062992124,
                    "duration": 0.10452950000001238
                },
                {
                    "name": "G2",
                    "midi": 43,
                    "time": 216.58512400000072,
                    "velocity": 0.4330708661417323,
                    "duration": 0.10452950000001238
                },
                {
                    "name": "B2",
                    "midi": 47,
                    "time": 216.58512400000072,
                    "velocity": 0.4330708661417323,
                    "duration": 0.10452950000001238
                },
                {
                    "name": "D3",
                    "midi": 50,
                    "time": 216.58512400000072,
                    "velocity": 0.5039370078740157,
                    "duration": 0.10452950000001238
                },
                {
                    "name": "G2",
                    "midi": 43,
                    "time": 216.79418300000074,
                    "velocity": 0.44881889763779526,
                    "duration": 0.10452950000001238
                },
                {
                    "name": "B2",
                    "midi": 47,
                    "time": 216.79418300000074,
                    "velocity": 0.44881889763779526,
                    "duration": 0.10452950000001238
                },
                {
                    "name": "D#3",
                    "midi": 51,
                    "time": 216.79418300000074,
                    "velocity": 0.5511811023622047,
                    "duration": 0.10452950000001238
                },
                {
                    "name": "C3",
                    "midi": 48,
                    "time": 217.00324200000077,
                    "velocity": 0.49606299212598426,
                    "duration": 0.627176999999989
                },
                {
                    "name": "E3",
                    "midi": 52,
                    "time": 217.00324200000077,
                    "velocity": 0.5748031496062992,
                    "duration": 0.627176999999989
                },
                {
                    "name": "G2",
                    "midi": 43,
                    "time": 217.63041900000076,
                    "velocity": 0.4251968503937008,
                    "duration": 0.20905899999999633
                },
                {
                    "name": "E2",
                    "midi": 40,
                    "time": 217.63041900000076,
                    "velocity": 0.4251968503937008,
                    "duration": 0.20905899999999633
                },
                {
                    "name": "C2",
                    "midi": 36,
                    "time": 217.63041900000076,
                    "velocity": 0.4251968503937008,
                    "duration": 0.20905899999999633
                },
                {
                    "name": "C3",
                    "midi": 48,
                    "time": 217.63041900000076,
                    "velocity": 0.5039370078740157,
                    "duration": 0.20905899999999633
                },
                {
                    "name": "C5",
                    "midi": 72,
                    "time": 218.25759600000075,
                    "velocity": 0.41732283464566927,
                    "duration": 0.15679424999999014
                },
                {
                    "name": "E5",
                    "midi": 76,
                    "time": 218.25759600000075,
                    "velocity": 0.41732283464566927,
                    "duration": 0.15679424999999014
                },
                {
                    "name": "G5",
                    "midi": 79,
                    "time": 218.25759600000075,
                    "velocity": 0.41732283464566927,
                    "duration": 0.15679424999999014
                },
                {
                    "name": "C6",
                    "midi": 84,
                    "time": 218.25759600000075,
                    "velocity": 0.49606299212598426,
                    "duration": 0.15679424999999014
                },
                {
                    "name": "G4",
                    "midi": 67,
                    "time": 218.41439025000074,
                    "velocity": 0.3543307086614173,
                    "duration": 0.04703827500000557
                },
                {
                    "name": "C5",
                    "midi": 72,
                    "time": 218.41439025000074,
                    "velocity": 0.3543307086614173,
                    "duration": 0.04703827500000557
                },
                {
                    "name": "E5",
                    "midi": 76,
                    "time": 218.41439025000074,
                    "velocity": 0.3543307086614173,
                    "duration": 0.04703827500000557
                },
                {
                    "name": "G5",
                    "midi": 79,
                    "time": 218.41439025000074,
                    "velocity": 0.4251968503937008,
                    "duration": 0.04703827500000557
                },
                {
                    "name": "G4",
                    "midi": 67,
                    "time": 218.46665500000074,
                    "velocity": 0.4251968503937008,
                    "duration": 0.10452950000001238
                },
                {
                    "name": "C5",
                    "midi": 72,
                    "time": 218.46665500000074,
                    "velocity": 0.4251968503937008,
                    "duration": 0.10452950000001238
                },
                {
                    "name": "E5",
                    "midi": 76,
                    "time": 218.46665500000074,
                    "velocity": 0.4251968503937008,
                    "duration": 0.10452950000001238
                },
                {
                    "name": "G5",
                    "midi": 79,
                    "time": 218.46665500000074,
                    "velocity": 0.49606299212598426,
                    "duration": 0.10452950000001238
                },
                {
                    "name": "E5",
                    "midi": 76,
                    "time": 218.67571400000077,
                    "velocity": 0.49606299212598426,
                    "duration": 0.15679424999999014
                },
                {
                    "name": "C5",
                    "midi": 72,
                    "time": 218.67571400000077,
                    "velocity": 0.4251968503937008,
                    "duration": 0.15679424999999014
                },
                {
                    "name": "G4",
                    "midi": 67,
                    "time": 218.67571400000077,
                    "velocity": 0.4251968503937008,
                    "duration": 0.15679424999999014
                },
                {
                    "name": "E4",
                    "midi": 64,
                    "time": 218.67571400000077,
                    "velocity": 0.4251968503937008,
                    "duration": 0.15679424999999014
                },
                {
                    "name": "C4",
                    "midi": 60,
                    "time": 218.83250825000076,
                    "velocity": 0.36220472440944884,
                    "duration": 0.04703827500000557
                },
                {
                    "name": "E4",
                    "midi": 64,
                    "time": 218.83250825000076,
                    "velocity": 0.36220472440944884,
                    "duration": 0.04703827500000557
                },
                {
                    "name": "G4",
                    "midi": 67,
                    "time": 218.83250825000076,
                    "velocity": 0.36220472440944884,
                    "duration": 0.04703827500000557
                },
                {
                    "name": "C5",
                    "midi": 72,
                    "time": 218.83250825000076,
                    "velocity": 0.4330708661417323,
                    "duration": 0.04703827500000557
                },
                {
                    "name": "C4",
                    "midi": 60,
                    "time": 218.88477300000076,
                    "velocity": 0.4251968503937008,
                    "duration": 0.20905899999999633
                },
                {
                    "name": "E4",
                    "midi": 64,
                    "time": 218.88477300000076,
                    "velocity": 0.4251968503937008,
                    "duration": 0.20905899999999633
                },
                {
                    "name": "G4",
                    "midi": 67,
                    "time": 218.88477300000076,
                    "velocity": 0.4251968503937008,
                    "duration": 0.20905899999999633
                },
                {
                    "name": "C5",
                    "midi": 72,
                    "time": 218.88477300000076,
                    "velocity": 0.5039370078740157,
                    "duration": 0.20905899999999633
                },
                {
                    "name": "A3",
                    "midi": 57,
                    "time": 219.09383200000076,
                    "velocity": 0.41732283464566927,
                    "duration": 0.15679424999999014
                },
                {
                    "name": "C4",
                    "midi": 60,
                    "time": 219.09383200000076,
                    "velocity": 0.41732283464566927,
                    "duration": 0.15679424999999014
                },
                {
                    "name": "E4",
                    "midi": 64,
                    "time": 219.09383200000076,
                    "velocity": 0.41732283464566927,
                    "duration": 0.15679424999999014
                },
                {
                    "name": "A4",
                    "midi": 69,
                    "time": 219.09383200000076,
                    "velocity": 0.49606299212598426,
                    "duration": 0.15679424999999014
                },
                {
                    "name": "E3",
                    "midi": 52,
                    "time": 219.25062625000075,
                    "velocity": 0.3543307086614173,
                    "duration": 0.04703827500000557
                },
                {
                    "name": "A3",
                    "midi": 57,
                    "time": 219.25062625000075,
                    "velocity": 0.3543307086614173,
                    "duration": 0.04703827500000557
                },
                {
                    "name": "C4",
                    "midi": 60,
                    "time": 219.25062625000075,
                    "velocity": 0.3543307086614173,
                    "duration": 0.04703827500000557
                },
                {
                    "name": "E4",
                    "midi": 64,
                    "time": 219.25062625000075,
                    "velocity": 0.4251968503937008,
                    "duration": 0.04703827500000557
                },
                {
                    "name": "E3",
                    "midi": 52,
                    "time": 219.30289100000076,
                    "velocity": 0.4251968503937008,
                    "duration": 0.10452950000001238
                },
                {
                    "name": "A3",
                    "midi": 57,
                    "time": 219.30289100000076,
                    "velocity": 0.4251968503937008,
                    "duration": 0.10452950000001238
                },
                {
                    "name": "C4",
                    "midi": 60,
                    "time": 219.30289100000076,
                    "velocity": 0.4251968503937008,
                    "duration": 0.10452950000001238
                },
                {
                    "name": "E4",
                    "midi": 64,
                    "time": 219.30289100000076,
                    "velocity": 0.49606299212598426,
                    "duration": 0.10452950000001238
                },
                {
                    "name": "C4",
                    "midi": 60,
                    "time": 219.51195000000078,
                    "velocity": 0.49606299212598426,
                    "duration": 0.15679424999999014
                },
                {
                    "name": "A3",
                    "midi": 57,
                    "time": 219.51195000000078,
                    "velocity": 0.4251968503937008,
                    "duration": 0.15679424999999014
                },
                {
                    "name": "E3",
                    "midi": 52,
                    "time": 219.51195000000078,
                    "velocity": 0.4251968503937008,
                    "duration": 0.15679424999999014
                },
                {
                    "name": "C3",
                    "midi": 48,
                    "time": 219.51195000000078,
                    "velocity": 0.4251968503937008,
                    "duration": 0.15679424999999014
                },
                {
                    "name": "A2",
                    "midi": 45,
                    "time": 219.66874425000077,
                    "velocity": 0.36220472440944884,
                    "duration": 0.04703827500000557
                },
                {
                    "name": "C3",
                    "midi": 48,
                    "time": 219.66874425000077,
                    "velocity": 0.36220472440944884,
                    "duration": 0.04703827500000557
                },
                {
                    "name": "E3",
                    "midi": 52,
                    "time": 219.66874425000077,
                    "velocity": 0.36220472440944884,
                    "duration": 0.04703827500000557
                },
                {
                    "name": "A3",
                    "midi": 57,
                    "time": 219.66874425000077,
                    "velocity": 0.4330708661417323,
                    "duration": 0.04703827500000557
                },
                {
                    "name": "A2",
                    "midi": 45,
                    "time": 219.72100900000078,
                    "velocity": 0.4251968503937008,
                    "duration": 0.10452950000001238
                },
                {
                    "name": "C3",
                    "midi": 48,
                    "time": 219.72100900000078,
                    "velocity": 0.4251968503937008,
                    "duration": 0.10452950000001238
                },
                {
                    "name": "E3",
                    "midi": 52,
                    "time": 219.72100900000078,
                    "velocity": 0.4251968503937008,
                    "duration": 0.10452950000001238
                },
                {
                    "name": "A3",
                    "midi": 57,
                    "time": 219.72100900000078,
                    "velocity": 0.5039370078740157,
                    "duration": 0.10452950000001238
                },
                {
                    "name": "E2",
                    "midi": 40,
                    "time": 219.8516708750008,
                    "velocity": 0.3937007874015748,
                    "duration": 0.1437280625000028
                },
                {
                    "name": "G#2",
                    "midi": 44,
                    "time": 219.8778032500008,
                    "velocity": 0.3937007874015748,
                    "duration": 0.13066187499998705
                },
                {
                    "name": "B2",
                    "midi": 47,
                    "time": 219.9039356250008,
                    "velocity": 0.3937007874015748,
                    "duration": 0.11759568749997129
                },
                {
                    "name": "E3",
                    "midi": 52,
                    "time": 219.9300680000008,
                    "velocity": 0.4645669291338583,
                    "duration": 0.10452949999995553
                },
                {
                    "name": "B2",
                    "midi": 47,
                    "time": 220.24365650000075,
                    "velocity": 0.33858267716535434,
                    "duration": 0.05226475000000619
                },
                {
                    "name": "B3",
                    "midi": 59,
                    "time": 220.24365650000075,
                    "velocity": 0.4094488188976378,
                    "duration": 0.05226475000000619
                },
                {
                    "name": "B2",
                    "midi": 47,
                    "time": 220.34818600000077,
                    "velocity": 0.33858267716535434,
                    "duration": 0.10452950000001238
                },
                {
                    "name": "B3",
                    "midi": 59,
                    "time": 220.34818600000077,
                    "velocity": 0.4094488188976378,
                    "duration": 0.10452950000001238
                },
                {
                    "name": "A#2",
                    "midi": 46,
                    "time": 220.5572450000008,
                    "velocity": 0.3937007874015748,
                    "duration": 0.10452950000001238
                },
                {
                    "name": "A#3",
                    "midi": 58,
                    "time": 220.5572450000008,
                    "velocity": 0.48031496062992124,
                    "duration": 0.10452950000001238
                },
                {
                    "name": "B2",
                    "midi": 47,
                    "time": 220.76630400000082,
                    "velocity": 0.4330708661417323,
                    "duration": 0.10452950000001238
                },
                {
                    "name": "B3",
                    "midi": 59,
                    "time": 220.76630400000082,
                    "velocity": 0.5039370078740157,
                    "duration": 0.10452950000001238
                },
                {
                    "name": "E3",
                    "midi": 52,
                    "time": 220.97536300000084,
                    "velocity": 0.44881889763779526,
                    "duration": 0.10452950000001238
                },
                {
                    "name": "E4",
                    "midi": 64,
                    "time": 220.97536300000084,
                    "velocity": 0.5511811023622047,
                    "duration": 0.10452950000001238
                },
                {
                    "name": "G#2",
                    "midi": 44,
                    "time": 221.13215725000086,
                    "velocity": 0.3937007874015748,
                    "duration": 0.13066187500001547
                },
                {
                    "name": "D#3",
                    "midi": 51,
                    "time": 221.15828962500086,
                    "velocity": 0.3937007874015748,
                    "duration": 0.1132402916666706
                },
                {
                    "name": "G#3",
                    "midi": 56,
                    "time": 221.18442200000086,
                    "velocity": 0.4645669291338583,
                    "duration": 0.10452950000001238
                },
                {
                    "name": "D#3",
                    "midi": 51,
                    "time": 221.49801050000087,
                    "velocity": 0.33858267716535434,
                    "duration": 0.05226475000000619
                },
                {
                    "name": "D#4",
                    "midi": 63,
                    "time": 221.49801050000087,
                    "velocity": 0.4094488188976378,
                    "duration": 0.05226475000000619
                },
                {
                    "name": "D#3",
                    "midi": 51,
                    "time": 221.6025400000009,
                    "velocity": 0.33858267716535434,
                    "duration": 0.10452950000001238
                },
                {
                    "name": "D#4",
                    "midi": 63,
                    "time": 221.6025400000009,
                    "velocity": 0.4094488188976378,
                    "duration": 0.10452950000001238
                },
                {
                    "name": "D3",
                    "midi": 50,
                    "time": 221.8115990000009,
                    "velocity": 0.3937007874015748,
                    "duration": 0.10452950000001238
                },
                {
                    "name": "D4",
                    "midi": 62,
                    "time": 221.8115990000009,
                    "velocity": 0.48031496062992124,
                    "duration": 0.10452950000001238
                },
                {
                    "name": "D#3",
                    "midi": 51,
                    "time": 222.02065800000094,
                    "velocity": 0.4330708661417323,
                    "duration": 0.10452950000001238
                },
                {
                    "name": "D#4",
                    "midi": 63,
                    "time": 222.02065800000094,
                    "velocity": 0.5039370078740157,
                    "duration": 0.10452950000001238
                },
                {
                    "name": "D#3",
                    "midi": 51,
                    "time": 222.22971700000096,
                    "velocity": 0.44881889763779526,
                    "duration": 0.10452950000001238
                },
                {
                    "name": "D#4",
                    "midi": 63,
                    "time": 222.22971700000096,
                    "velocity": 0.5511811023622047,
                    "duration": 0.10452950000001238
                },
                {
                    "name": "D#2",
                    "midi": 39,
                    "time": 222.36037887500098,
                    "velocity": 0.3937007874015748,
                    "duration": 0.1437280625000028
                },
                {
                    "name": "G2",
                    "midi": 43,
                    "time": 222.38651125000098,
                    "velocity": 0.3937007874015748,
                    "duration": 0.13066187499998705
                },
                {
                    "name": "A#2",
                    "midi": 46,
                    "time": 222.41264362500098,
                    "velocity": 0.3937007874015748,
                    "duration": 0.11759568749997129
                },
                {
                    "name": "D#3",
                    "midi": 51,
                    "time": 222.43877600000098,
                    "velocity": 0.4645669291338583,
                    "duration": 0.10452949999995553
                },
                {
                    "name": "A#2",
                    "midi": 46,
                    "time": 222.75236450000094,
                    "velocity": 0.33858267716535434,
                    "duration": 0.05226475000000619
                },
                {
                    "name": "A#3",
                    "midi": 58,
                    "time": 222.75236450000094,
                    "velocity": 0.4094488188976378,
                    "duration": 0.05226475000000619
                },
                {
                    "name": "A#2",
                    "midi": 46,
                    "time": 222.85689400000095,
                    "velocity": 0.33858267716535434,
                    "duration": 0.10452950000001238
                },
                {
                    "name": "A#3",
                    "midi": 58,
                    "time": 222.85689400000095,
                    "velocity": 0.4094488188976378,
                    "duration": 0.10452950000001238
                },
                {
                    "name": "A2",
                    "midi": 45,
                    "time": 223.06595300000097,
                    "velocity": 0.3937007874015748,
                    "duration": 0.10452950000001238
                },
                {
                    "name": "A3",
                    "midi": 57,
                    "time": 223.06595300000097,
                    "velocity": 0.48031496062992124,
                    "duration": 0.10452950000001238
                },
                {
                    "name": "A#2",
                    "midi": 46,
                    "time": 223.275012000001,
                    "velocity": 0.4330708661417323,
                    "duration": 0.10452950000001238
                },
                {
                    "name": "A#3",
                    "midi": 58,
                    "time": 223.275012000001,
                    "velocity": 0.5039370078740157,
                    "duration": 0.10452950000001238
                },
                {
                    "name": "D#3",
                    "midi": 51,
                    "time": 223.48407100000102,
                    "velocity": 0.44881889763779526,
                    "duration": 0.10452950000001238
                },
                {
                    "name": "D#4",
                    "midi": 63,
                    "time": 223.48407100000102,
                    "velocity": 0.5511811023622047,
                    "duration": 0.10452950000001238
                },
                {
                    "name": "G2",
                    "midi": 43,
                    "time": 223.64086525000104,
                    "velocity": 0.3937007874015748,
                    "duration": 0.13066187500001547
                },
                {
                    "name": "D3",
                    "midi": 50,
                    "time": 223.66699762500104,
                    "velocity": 0.3937007874015748,
                    "duration": 0.11759568749999971
                },
                {
                    "name": "G3",
                    "midi": 55,
                    "time": 223.69313000000105,
                    "velocity": 0.4645669291338583,
                    "duration": 0.10452949999998395
                },
                {
                    "name": "D3",
                    "midi": 50,
                    "time": 224.00671850000103,
                    "velocity": 0.33858267716535434,
                    "duration": 0.05226475000000619
                },
                {
                    "name": "D4",
                    "midi": 62,
                    "time": 224.00671850000103,
                    "velocity": 0.4094488188976378,
                    "duration": 0.05226475000000619
                },
                {
                    "name": "D3",
                    "midi": 50,
                    "time": 224.11124800000104,
                    "velocity": 0.33858267716535434,
                    "duration": 0.10452950000001238
                },
                {
                    "name": "D4",
                    "midi": 62,
                    "time": 224.11124800000104,
                    "velocity": 0.4094488188976378,
                    "duration": 0.10452950000001238
                },
                {
                    "name": "C#3",
                    "midi": 49,
                    "time": 224.32030700000107,
                    "velocity": 0.3937007874015748,
                    "duration": 0.10452950000001238
                },
                {
                    "name": "C#4",
                    "midi": 61,
                    "time": 224.32030700000107,
                    "velocity": 0.48031496062992124,
                    "duration": 0.10452950000001238
                },
                {
                    "name": "D3",
                    "midi": 50,
                    "time": 224.5293660000011,
                    "velocity": 0.4330708661417323,
                    "duration": 0.10452950000001238
                },
                {
                    "name": "D4",
                    "midi": 62,
                    "time": 224.5293660000011,
                    "velocity": 0.5039370078740157,
                    "duration": 0.10452950000001238
                },
                {
                    "name": "D3",
                    "midi": 50,
                    "time": 224.73842500000111,
                    "velocity": 0.44881889763779526,
                    "duration": 0.10452950000001238
                },
                {
                    "name": "D4",
                    "midi": 62,
                    "time": 224.73842500000111,
                    "velocity": 0.5511811023622047,
                    "duration": 0.10452950000001238
                },
                {
                    "name": "D2",
                    "midi": 38,
                    "time": 224.94748400000114,
                    "velocity": 0.3937007874015748,
                    "duration": 0.10452950000001238
                },
                {
                    "name": "D3",
                    "midi": 50,
                    "time": 224.94748400000114,
                    "velocity": 0.4645669291338583,
                    "duration": 0.10452950000001238
                },
                {
                    "name": "F#3",
                    "midi": 54,
                    "time": 225.15654300000116,
                    "velocity": 0.33858267716535434,
                    "duration": 0.10452950000001238
                },
                {
                    "name": "D3",
                    "midi": 50,
                    "time": 225.15654300000116,
                    "velocity": 0.33858267716535434,
                    "duration": 0.10452950000001238
                },
                {
                    "name": "A3",
                    "midi": 57,
                    "time": 225.15654300000116,
                    "velocity": 0.4094488188976378,
                    "duration": 0.10452950000001238
                },
                {
                    "name": "F#3",
                    "midi": 54,
                    "time": 225.3656020000012,
                    "velocity": 0.33858267716535434,
                    "duration": 0.10452950000001238
                },
                {
                    "name": "D3",
                    "midi": 50,
                    "time": 225.3656020000012,
                    "velocity": 0.33858267716535434,
                    "duration": 0.10452950000001238
                },
                {
                    "name": "B3",
                    "midi": 59,
                    "time": 225.3656020000012,
                    "velocity": 0.4094488188976378,
                    "duration": 0.10452950000001238
                },
                {
                    "name": "F#2",
                    "midi": 42,
                    "time": 225.5746610000012,
                    "velocity": 0.4251968503937008,
                    "duration": 0.10452950000001238
                },
                {
                    "name": "F#3",
                    "midi": 54,
                    "time": 225.5746610000012,
                    "velocity": 0.5196850393700787,
                    "duration": 0.10452950000001238
                },
                {
                    "name": "G#3",
                    "midi": 56,
                    "time": 225.78372000000124,
                    "velocity": 0.4330708661417323,
                    "duration": 0.10452950000001238
                },
                {
                    "name": "F#3",
                    "midi": 54,
                    "time": 225.78372000000124,
                    "velocity": 0.4330708661417323,
                    "duration": 0.10452950000001238
                },
                {
                    "name": "C4",
                    "midi": 60,
                    "time": 225.78372000000124,
                    "velocity": 0.5039370078740157,
                    "duration": 0.10452950000001238
                },
                {
                    "name": "A3",
                    "midi": 57,
                    "time": 225.99277900000126,
                    "velocity": 0.44881889763779526,
                    "duration": 0.10452950000001238
                },
                {
                    "name": "F#3",
                    "midi": 54,
                    "time": 225.99277900000126,
                    "velocity": 0.44881889763779526,
                    "duration": 0.10452950000001238
                },
                {
                    "name": "C#4",
                    "midi": 61,
                    "time": 225.99277900000126,
                    "velocity": 0.5511811023622047,
                    "duration": 0.10452950000001238
                },
                {
                    "name": "C#2",
                    "midi": 37,
                    "time": 226.2018380000013,
                    "velocity": 0.3937007874015748,
                    "duration": 0.10452950000001238
                },
                {
                    "name": "C#3",
                    "midi": 49,
                    "time": 226.2018380000013,
                    "velocity": 0.4645669291338583,
                    "duration": 0.10452950000001238
                },
                {
                    "name": "F3",
                    "midi": 53,
                    "time": 226.4108970000013,
                    "velocity": 0.33858267716535434,
                    "duration": 0.10452950000001238
                },
                {
                    "name": "C#3",
                    "midi": 49,
                    "time": 226.4108970000013,
                    "velocity": 0.33858267716535434,
                    "duration": 0.10452950000001238
                },
                {
                    "name": "G#3",
                    "midi": 56,
                    "time": 226.4108970000013,
                    "velocity": 0.4094488188976378,
                    "duration": 0.10452950000001238
                },
                {
                    "name": "F3",
                    "midi": 53,
                    "time": 226.61995600000134,
                    "velocity": 0.33858267716535434,
                    "duration": 0.10452950000001238
                },
                {
                    "name": "C#3",
                    "midi": 49,
                    "time": 226.61995600000134,
                    "velocity": 0.33858267716535434,
                    "duration": 0.10452950000001238
                },
                {
                    "name": "A#3",
                    "midi": 58,
                    "time": 226.61995600000134,
                    "velocity": 0.4094488188976378,
                    "duration": 0.10452950000001238
                },
                {
                    "name": "F2",
                    "midi": 41,
                    "time": 226.82901500000136,
                    "velocity": 0.4251968503937008,
                    "duration": 0.10452950000001238
                },
                {
                    "name": "F3",
                    "midi": 53,
                    "time": 226.82901500000136,
                    "velocity": 0.5196850393700787,
                    "duration": 0.10452950000001238
                },
                {
                    "name": "G3",
                    "midi": 55,
                    "time": 227.0380740000014,
                    "velocity": 0.4330708661417323,
                    "duration": 0.10452950000001238
                },
                {
                    "name": "F3",
                    "midi": 53,
                    "time": 227.0380740000014,
                    "velocity": 0.4330708661417323,
                    "duration": 0.10452950000001238
                },
                {
                    "name": "B3",
                    "midi": 59,
                    "time": 227.0380740000014,
                    "velocity": 0.5039370078740157,
                    "duration": 0.10452950000001238
                },
                {
                    "name": "G#3",
                    "midi": 56,
                    "time": 227.2471330000014,
                    "velocity": 0.44881889763779526,
                    "duration": 0.10452950000001238
                },
                {
                    "name": "F3",
                    "midi": 53,
                    "time": 227.2471330000014,
                    "velocity": 0.44881889763779526,
                    "duration": 0.10452950000001238
                },
                {
                    "name": "C4",
                    "midi": 60,
                    "time": 227.2471330000014,
                    "velocity": 0.5511811023622047,
                    "duration": 0.10452950000001238
                },
                {
                    "name": "C2",
                    "midi": 36,
                    "time": 227.45619200000144,
                    "velocity": 0.3700787401574803,
                    "duration": 0.10452950000001238
                },
                {
                    "name": "C3",
                    "midi": 48,
                    "time": 227.45619200000144,
                    "velocity": 0.4409448818897638,
                    "duration": 0.10452950000001238
                },
                {
                    "name": "G3",
                    "midi": 55,
                    "time": 227.61298625000146,
                    "velocity": 0.31496062992125984,
                    "duration": 0.04703827500000557
                },
                {
                    "name": "C4",
                    "midi": 60,
                    "time": 227.61298625000146,
                    "velocity": 0.31496062992125984,
                    "duration": 0.04703827500000557
                },
                {
                    "name": "E4",
                    "midi": 64,
                    "time": 227.61298625000146,
                    "velocity": 0.3779527559055118,
                    "duration": 0.04703827500000557
                },
                {
                    "name": "G3",
                    "midi": 55,
                    "time": 227.66525100000146,
                    "velocity": 0.3779527559055118,
                    "duration": 0.20905899999999633
                },
                {
                    "name": "C4",
                    "midi": 60,
                    "time": 227.66525100000146,
                    "velocity": 0.3779527559055118,
                    "duration": 0.20905899999999633
                },
                {
                    "name": "E4",
                    "midi": 64,
                    "time": 227.66525100000146,
                    "velocity": 0.4409448818897638,
                    "duration": 0.20905899999999633
                },
                {
                    "name": "C2",
                    "midi": 36,
                    "time": 227.87431000000146,
                    "velocity": 0.3700787401574803,
                    "duration": 0.10452950000001238
                },
                {
                    "name": "C3",
                    "midi": 48,
                    "time": 227.87431000000146,
                    "velocity": 0.4409448818897638,
                    "duration": 0.10452950000001238
                },
                {
                    "name": "G3",
                    "midi": 55,
                    "time": 228.03110425000148,
                    "velocity": 0.31496062992125984,
                    "duration": 0.04703827500000557
                },
                {
                    "name": "C4",
                    "midi": 60,
                    "time": 228.03110425000148,
                    "velocity": 0.31496062992125984,
                    "duration": 0.04703827500000557
                },
                {
                    "name": "D#4",
                    "midi": 63,
                    "time": 228.03110425000148,
                    "velocity": 0.3779527559055118,
                    "duration": 0.04703827500000557
                },
                {
                    "name": "G3",
                    "midi": 55,
                    "time": 228.08336900000148,
                    "velocity": 0.3779527559055118,
                    "duration": 0.20905899999999633
                },
                {
                    "name": "C4",
                    "midi": 60,
                    "time": 228.08336900000148,
                    "velocity": 0.3779527559055118,
                    "duration": 0.20905899999999633
                },
                {
                    "name": "D#4",
                    "midi": 63,
                    "time": 228.08336900000148,
                    "velocity": 0.4409448818897638,
                    "duration": 0.20905899999999633
                },
                {
                    "name": "G#1",
                    "midi": 32,
                    "time": 228.29242800000148,
                    "velocity": 0.3700787401574803,
                    "duration": 0.10452950000001238
                },
                {
                    "name": "G#2",
                    "midi": 44,
                    "time": 228.29242800000148,
                    "velocity": 0.4409448818897638,
                    "duration": 0.10452950000001238
                },
                {
                    "name": "F3",
                    "midi": 53,
                    "time": 228.4492222500015,
                    "velocity": 0.31496062992125984,
                    "duration": 0.04703827500000557
                },
                {
                    "name": "G#3",
                    "midi": 56,
                    "time": 228.4492222500015,
                    "velocity": 0.31496062992125984,
                    "duration": 0.04703827500000557
                },
                {
                    "name": "C#4",
                    "midi": 61,
                    "time": 228.4492222500015,
                    "velocity": 0.3779527559055118,
                    "duration": 0.04703827500000557
                },
                {
                    "name": "F3",
                    "midi": 53,
                    "time": 228.5014870000015,
                    "velocity": 0.3779527559055118,
                    "duration": 0.20905899999999633
                },
                {
                    "name": "G#3",
                    "midi": 56,
                    "time": 228.5014870000015,
                    "velocity": 0.3779527559055118,
                    "duration": 0.20905899999999633
                },
                {
                    "name": "C#4",
                    "midi": 61,
                    "time": 228.5014870000015,
                    "velocity": 0.4409448818897638,
                    "duration": 0.20905899999999633
                },
                {
                    "name": "A1",
                    "midi": 33,
                    "time": 228.7105460000015,
                    "velocity": 0.3700787401574803,
                    "duration": 0.10452950000001238
                },
                {
                    "name": "A2",
                    "midi": 45,
                    "time": 228.7105460000015,
                    "velocity": 0.4409448818897638,
                    "duration": 0.10452950000001238
                },
                {
                    "name": "D#3",
                    "midi": 51,
                    "time": 228.86734025000152,
                    "velocity": 0.31496062992125984,
                    "duration": 0.04703827500000557
                },
                {
                    "name": "F#3",
                    "midi": 54,
                    "time": 228.86734025000152,
                    "velocity": 0.31496062992125984,
                    "duration": 0.04703827500000557
                },
                {
                    "name": "C4",
                    "midi": 60,
                    "time": 228.86734025000152,
                    "velocity": 0.3779527559055118,
                    "duration": 0.04703827500000557
                },
                {
                    "name": "D#3",
                    "midi": 51,
                    "time": 228.91960500000152,
                    "velocity": 0.3779527559055118,
                    "duration": 0.20905899999999633
                },
                {
                    "name": "F#3",
                    "midi": 54,
                    "time": 228.91960500000152,
                    "velocity": 0.3779527559055118,
                    "duration": 0.20905899999999633
                },
                {
                    "name": "C4",
                    "midi": 60,
                    "time": 228.91960500000152,
                    "velocity": 0.4409448818897638,
                    "duration": 0.20905899999999633
                },
                {
                    "name": "A#1",
                    "midi": 34,
                    "time": 229.12866400000152,
                    "velocity": 0.33858267716535434,
                    "duration": 0.10452950000001238
                },
                {
                    "name": "A#2",
                    "midi": 46,
                    "time": 229.12866400000152,
                    "velocity": 0.4015748031496063,
                    "duration": 0.10452950000001238
                },
                {
                    "name": "D#3",
                    "midi": 51,
                    "time": 229.44225250000153,
                    "velocity": 0.28346456692913385,
                    "duration": 0.05226475000000619
                },
                {
                    "name": "F#3",
                    "midi": 54,
                    "time": 229.44225250000153,
                    "velocity": 0.33858267716535434,
                    "duration": 0.05226475000000619
                },
                {
                    "name": "E3",
                    "midi": 52,
                    "time": 229.54678200000154,
                    "velocity": 0.28346456692913385,
                    "duration": 0.10452950000001238
                },
                {
                    "name": "G3",
                    "midi": 55,
                    "time": 229.54678200000154,
                    "velocity": 0.3464566929133858,
                    "duration": 0.10452950000001238
                },
                {
                    "name": "E3",
                    "midi": 52,
                    "time": 229.75584100000157,
                    "velocity": 0.3543307086614173,
                    "duration": 0.10452950000001238
                },
                {
                    "name": "G3",
                    "midi": 55,
                    "time": 229.75584100000157,
                    "velocity": 0.4251968503937008,
                    "duration": 0.10452950000001238
                },
                {
                    "name": "G#3",
                    "midi": 56,
                    "time": 230.06942950000158,
                    "velocity": 0.33858267716535434,
                    "duration": 0.05226475000000619
                },
                {
                    "name": "F3",
                    "midi": 53,
                    "time": 230.06942950000158,
                    "velocity": 0.28346456692913385,
                    "duration": 0.05226475000000619
                },
                {
                    "name": "D3",
                    "midi": 50,
                    "time": 230.1739590000016,
                    "velocity": 0.29133858267716534,
                    "duration": 0.10452950000001238
                },
                {
                    "name": "F3",
                    "midi": 53,
                    "time": 230.1739590000016,
                    "velocity": 0.3543307086614173,
                    "duration": 0.10452950000001238
                },
                {
                    "name": "A#1",
                    "midi": 34,
                    "time": 230.3830180000016,
                    "velocity": 0.33858267716535434,
                    "duration": 0.10452950000001238
                },
                {
                    "name": "A#2",
                    "midi": 46,
                    "time": 230.3830180000016,
                    "velocity": 0.4015748031496063,
                    "duration": 0.10452950000001238
                },
                {
                    "name": "D#3",
                    "midi": 51,
                    "time": 230.69660650000162,
                    "velocity": 0.28346456692913385,
                    "duration": 0.05226475000000619
                },
                {
                    "name": "F#3",
                    "midi": 54,
                    "time": 230.69660650000162,
                    "velocity": 0.33858267716535434,
                    "duration": 0.05226475000000619
                },
                {
                    "name": "E3",
                    "midi": 52,
                    "time": 230.80113600000163,
                    "velocity": 0.28346456692913385,
                    "duration": 0.10452950000001238
                },
                {
                    "name": "G3",
                    "midi": 55,
                    "time": 230.80113600000163,
                    "velocity": 0.3464566929133858,
                    "duration": 0.10452950000001238
                },
                {
                    "name": "E3",
                    "midi": 52,
                    "time": 231.01019500000166,
                    "velocity": 0.3543307086614173,
                    "duration": 0.10452950000001238
                },
                {
                    "name": "G3",
                    "midi": 55,
                    "time": 231.01019500000166,
                    "velocity": 0.4251968503937008,
                    "duration": 0.10452950000001238
                },
                {
                    "name": "G#3",
                    "midi": 56,
                    "time": 231.32378350000167,
                    "velocity": 0.33858267716535434,
                    "duration": 0.05226475000000619
                },
                {
                    "name": "F3",
                    "midi": 53,
                    "time": 231.32378350000167,
                    "velocity": 0.28346456692913385,
                    "duration": 0.05226475000000619
                },
                {
                    "name": "D3",
                    "midi": 50,
                    "time": 231.42831300000168,
                    "velocity": 0.29133858267716534,
                    "duration": 0.10452950000001238
                },
                {
                    "name": "F3",
                    "midi": 53,
                    "time": 231.42831300000168,
                    "velocity": 0.3543307086614173,
                    "duration": 0.10452950000001238
                },
                {
                    "name": "C#2",
                    "midi": 37,
                    "time": 231.6373720000017,
                    "velocity": 0.36220472440944884,
                    "duration": 0.10452950000001238
                },
                {
                    "name": "C#3",
                    "midi": 49,
                    "time": 231.6373720000017,
                    "velocity": 0.4330708661417323,
                    "duration": 0.10452950000001238
                },
                {
                    "name": "F#3",
                    "midi": 54,
                    "time": 231.9509605000017,
                    "velocity": 0.30708661417322836,
                    "duration": 0.05226475000000619
                },
                {
                    "name": "A3",
                    "midi": 57,
                    "time": 231.9509605000017,
                    "velocity": 0.36220472440944884,
                    "duration": 0.05226475000000619
                },
                {
                    "name": "G3",
                    "midi": 55,
                    "time": 232.05549000000173,
                    "velocity": 0.31496062992125984,
                    "duration": 0.10452950000001238
                },
                {
                    "name": "A#3",
                    "midi": 58,
                    "time": 232.05549000000173,
                    "velocity": 0.3700787401574803,
                    "duration": 0.10452950000001238
                },
                {
                    "name": "G3",
                    "midi": 55,
                    "time": 232.26454900000175,
                    "velocity": 0.3937007874015748,
                    "duration": 0.10452950000001238
                },
                {
                    "name": "A#3",
                    "midi": 58,
                    "time": 232.26454900000175,
                    "velocity": 0.4645669291338583,
                    "duration": 0.10452950000001238
                },
                {
                    "name": "B3",
                    "midi": 59,
                    "time": 232.57813750000176,
                    "velocity": 0.36220472440944884,
                    "duration": 0.05226475000000619
                },
                {
                    "name": "G#3",
                    "midi": 56,
                    "time": 232.57813750000176,
                    "velocity": 0.30708661417322836,
                    "duration": 0.05226475000000619
                },
                {
                    "name": "F3",
                    "midi": 53,
                    "time": 232.68266700000177,
                    "velocity": 0.3228346456692913,
                    "duration": 0.10452950000001238
                },
                {
                    "name": "G#3",
                    "midi": 56,
                    "time": 232.68266700000177,
                    "velocity": 0.3858267716535433,
                    "duration": 0.10452950000001238
                },
                {
                    "name": "C#2",
                    "midi": 37,
                    "time": 232.8917260000018,
                    "velocity": 0.36220472440944884,
                    "duration": 0.10452950000001238
                },
                {
                    "name": "C#3",
                    "midi": 49,
                    "time": 232.8917260000018,
                    "velocity": 0.4330708661417323,
                    "duration": 0.10452950000001238
                },
                {
                    "name": "F#3",
                    "midi": 54,
                    "time": 233.2053145000018,
                    "velocity": 0.30708661417322836,
                    "duration": 0.05226475000000619
                },
                {
                    "name": "A3",
                    "midi": 57,
                    "time": 233.2053145000018,
                    "velocity": 0.36220472440944884,
                    "duration": 0.05226475000000619
                },
                {
                    "name": "G3",
                    "midi": 55,
                    "time": 233.30984400000182,
                    "velocity": 0.31496062992125984,
                    "duration": 0.10452950000001238
                },
                {
                    "name": "A#3",
                    "midi": 58,
                    "time": 233.30984400000182,
                    "velocity": 0.3700787401574803,
                    "duration": 0.10452950000001238
                },
                {
                    "name": "G3",
                    "midi": 55,
                    "time": 233.51890300000184,
                    "velocity": 0.3937007874015748,
                    "duration": 0.10452950000001238
                },
                {
                    "name": "A#3",
                    "midi": 58,
                    "time": 233.51890300000184,
                    "velocity": 0.4645669291338583,
                    "duration": 0.10452950000001238
                },
                {
                    "name": "B3",
                    "midi": 59,
                    "time": 233.83249150000185,
                    "velocity": 0.36220472440944884,
                    "duration": 0.05226475000000619
                },
                {
                    "name": "G#3",
                    "midi": 56,
                    "time": 233.83249150000185,
                    "velocity": 0.30708661417322836,
                    "duration": 0.05226475000000619
                },
                {
                    "name": "F3",
                    "midi": 53,
                    "time": 233.93702100000186,
                    "velocity": 0.3228346456692913,
                    "duration": 0.10452950000001238
                },
                {
                    "name": "G#3",
                    "midi": 56,
                    "time": 233.93702100000186,
                    "velocity": 0.3858267716535433,
                    "duration": 0.10452950000001238
                },
                {
                    "name": "E2",
                    "midi": 40,
                    "time": 234.1460800000019,
                    "velocity": 0.36220472440944884,
                    "duration": 0.10452950000001238
                },
                {
                    "name": "E3",
                    "midi": 52,
                    "time": 234.1460800000019,
                    "velocity": 0.4330708661417323,
                    "duration": 0.10452950000001238
                },
                {
                    "name": "A3",
                    "midi": 57,
                    "time": 234.4596685000019,
                    "velocity": 0.30708661417322836,
                    "duration": 0.05226475000000619
                },
                {
                    "name": "C4",
                    "midi": 60,
                    "time": 234.4596685000019,
                    "velocity": 0.3700787401574803,
                    "duration": 0.05226475000000619
                },
                {
                    "name": "A#3",
                    "midi": 58,
                    "time": 234.5641980000019,
                    "velocity": 0.31496062992125984,
                    "duration": 0.10452950000001238
                },
                {
                    "name": "C#4",
                    "midi": 61,
                    "time": 234.5641980000019,
                    "velocity": 0.3779527559055118,
                    "duration": 0.10452950000001238
                },
                {
                    "name": "A#3",
                    "midi": 58,
                    "time": 234.77325700000193,
                    "velocity": 0.4015748031496063,
                    "duration": 0.10452950000001238
                },
                {
                    "name": "C#4",
                    "midi": 61,
                    "time": 234.77325700000193,
                    "velocity": 0.47244094488188976,
                    "duration": 0.10452950000001238
                },
                {
                    "name": "D4",
                    "midi": 62,
                    "time": 235.08684550000194,
                    "velocity": 0.3779527559055118,
                    "duration": 0.05226475000000619
                },
                {
                    "name": "B3",
                    "midi": 59,
                    "time": 235.08684550000194,
                    "velocity": 0.31496062992125984,
                    "duration": 0.05226475000000619
                },
                {
                    "name": "G#3",
                    "midi": 56,
                    "time": 235.19137500000195,
                    "velocity": 0.33070866141732286,
                    "duration": 0.10452950000001238
                },
                {
                    "name": "B3",
                    "midi": 59,
                    "time": 235.19137500000195,
                    "velocity": 0.4015748031496063,
                    "duration": 0.10452950000001238
                },
                {
                    "name": "G2",
                    "midi": 43,
                    "time": 235.40043400000198,
                    "velocity": 0.3858267716535433,
                    "duration": 0.10452950000001238
                },
                {
                    "name": "G3",
                    "midi": 55,
                    "time": 235.40043400000198,
                    "velocity": 0.4566929133858268,
                    "duration": 0.10452950000001238
                },
                {
                    "name": "C4",
                    "midi": 60,
                    "time": 235.714022500002,
                    "velocity": 0.3228346456692913,
                    "duration": 0.05226475000000619
                },
                {
                    "name": "D#4",
                    "midi": 63,
                    "time": 235.714022500002,
                    "velocity": 0.3858267716535433,
                    "duration": 0.05226475000000619
                },
                {
                    "name": "C#4",
                    "midi": 61,
                    "time": 235.818552000002,
                    "velocity": 0.33070866141732286,
                    "duration": 0.10452950000001238
                },
                {
                    "name": "E4",
                    "midi": 64,
                    "time": 235.818552000002,
                    "velocity": 0.3937007874015748,
                    "duration": 0.10452950000001238
                },
                {
                    "name": "C#4",
                    "midi": 61,
                    "time": 236.02761100000203,
                    "velocity": 0.41732283464566927,
                    "duration": 0.10452950000001238
                },
                {
                    "name": "E4",
                    "midi": 64,
                    "time": 236.02761100000203,
                    "velocity": 0.49606299212598426,
                    "duration": 0.10452950000001238
                },
                {
                    "name": "F4",
                    "midi": 65,
                    "time": 236.34119950000203,
                    "velocity": 0.3937007874015748,
                    "duration": 0.05226475000000619
                },
                {
                    "name": "D4",
                    "midi": 62,
                    "time": 236.34119950000203,
                    "velocity": 0.33070866141732286,
                    "duration": 0.05226475000000619
                },
                {
                    "name": "B3",
                    "midi": 59,
                    "time": 236.44572900000205,
                    "velocity": 0.3464566929133858,
                    "duration": 0.10452950000001238
                },
                {
                    "name": "D4",
                    "midi": 62,
                    "time": 236.44572900000205,
                    "velocity": 0.41732283464566927,
                    "duration": 0.10452950000001238
                },
                {
                    "name": "G2",
                    "midi": 43,
                    "time": 236.65478800000207,
                    "velocity": 0.4015748031496063,
                    "duration": 0.10452950000001238
                },
                {
                    "name": "G3",
                    "midi": 55,
                    "time": 236.65478800000207,
                    "velocity": 0.48031496062992124,
                    "duration": 0.10452950000001238
                },
                {
                    "name": "D#4",
                    "midi": 63,
                    "time": 236.96837650000208,
                    "velocity": 0.33858267716535434,
                    "duration": 0.05226475000000619
                },
                {
                    "name": "C4",
                    "midi": 60,
                    "time": 236.96837650000208,
                    "velocity": 0.33858267716535434,
                    "duration": 0.05226475000000619
                },
                {
                    "name": "G4",
                    "midi": 67,
                    "time": 236.96837650000208,
                    "velocity": 0.4094488188976378,
                    "duration": 0.05226475000000619
                },
                {
                    "name": "E4",
                    "midi": 64,
                    "time": 237.0729060000021,
                    "velocity": 0.3464566929133858,
                    "duration": 0.10452950000001238
                },
                {
                    "name": "C#4",
                    "midi": 61,
                    "time": 237.0729060000021,
                    "velocity": 0.3464566929133858,
                    "duration": 0.10452950000001238
                },
                {
                    "name": "G4",
                    "midi": 67,
                    "time": 237.0729060000021,
                    "velocity": 0.41732283464566927,
                    "duration": 0.10452950000001238
                },
                {
                    "name": "C#4",
                    "midi": 61,
                    "time": 237.28196500000212,
                    "velocity": 0.4330708661417323,
                    "duration": 0.10452950000001238
                },
                {
                    "name": "E4",
                    "midi": 64,
                    "time": 237.28196500000212,
                    "velocity": 0.4330708661417323,
                    "duration": 0.10452950000001238
                },
                {
                    "name": "G4",
                    "midi": 67,
                    "time": 237.28196500000212,
                    "velocity": 0.5118110236220472,
                    "duration": 0.10452950000001238
                },
                {
                    "name": "D4",
                    "midi": 62,
                    "time": 237.59555350000213,
                    "velocity": 0.3464566929133858,
                    "duration": 0.05226475000000619
                },
                {
                    "name": "G4",
                    "midi": 67,
                    "time": 237.59555350000213,
                    "velocity": 0.41732283464566927,
                    "duration": 0.05226475000000619
                },
                {
                    "name": "F4",
                    "midi": 65,
                    "time": 237.59555350000213,
                    "velocity": 0.3464566929133858,
                    "duration": 0.05226475000000619
                },
                {
                    "name": "G3",
                    "midi": 55,
                    "time": 237.70008300000214,
                    "velocity": 0.36220472440944884,
                    "duration": 0.10452950000001238
                },
                {
                    "name": "D4",
                    "midi": 62,
                    "time": 237.70008300000214,
                    "velocity": 0.36220472440944884,
                    "duration": 0.10452950000001238
                },
                {
                    "name": "G4",
                    "midi": 67,
                    "time": 237.70008300000214,
                    "velocity": 0.4330708661417323,
                    "duration": 0.10452950000001238
                },
                {
                    "name": "G2",
                    "midi": 43,
                    "time": 237.90914200000216,
                    "velocity": 0.4251968503937008,
                    "duration": 0.10452950000001238
                },
                {
                    "name": "G3",
                    "midi": 55,
                    "time": 237.90914200000216,
                    "velocity": 0.49606299212598426,
                    "duration": 0.10452950000001238
                },
                {
                    "name": "E4",
                    "midi": 64,
                    "time": 238.22273050000217,
                    "velocity": 0.3543307086614173,
                    "duration": 0.05226475000000619
                },
                {
                    "name": "C#4",
                    "midi": 61,
                    "time": 238.22273050000217,
                    "velocity": 0.3543307086614173,
                    "duration": 0.05226475000000619
                },
                {
                    "name": "G4",
                    "midi": 67,
                    "time": 238.22273050000217,
                    "velocity": 0.4251968503937008,
                    "duration": 0.05226475000000619
                },
                {
                    "name": "F4",
                    "midi": 65,
                    "time": 238.32726000000218,
                    "velocity": 0.3543307086614173,
                    "duration": 0.10452950000001238
                },
                {
                    "name": "D4",
                    "midi": 62,
                    "time": 238.32726000000218,
                    "velocity": 0.3543307086614173,
                    "duration": 0.10452950000001238
                },
                {
                    "name": "G4",
                    "midi": 67,
                    "time": 238.32726000000218,
                    "velocity": 0.4251968503937008,
                    "duration": 0.10452950000001238
                },
                {
                    "name": "D4",
                    "midi": 62,
                    "time": 238.5363190000022,
                    "velocity": 0.44881889763779526,
                    "duration": 0.10452950000001238
                },
                {
                    "name": "F4",
                    "midi": 65,
                    "time": 238.5363190000022,
                    "velocity": 0.44881889763779526,
                    "duration": 0.10452950000001238
                },
                {
                    "name": "G4",
                    "midi": 67,
                    "time": 238.5363190000022,
                    "velocity": 0.5354330708661418,
                    "duration": 0.10452950000001238
                },
                {
                    "name": "G#3",
                    "midi": 56,
                    "time": 238.84990750000222,
                    "velocity": 0.3543307086614173,
                    "duration": 0.05226475000000619
                },
                {
                    "name": "D4",
                    "midi": 62,
                    "time": 238.84990750000222,
                    "velocity": 0.3543307086614173,
                    "duration": 0.05226475000000619
                },
                {
                    "name": "G#4",
                    "midi": 68,
                    "time": 238.84990750000222,
                    "velocity": 0.4251968503937008,
                    "duration": 0.05226475000000619
                },
                {
                    "name": "F4",
                    "midi": 65,
                    "time": 238.84990750000222,
                    "velocity": 0.3543307086614173,
                    "duration": 0.05226475000000619
                },
                {
                    "name": "F4",
                    "midi": 65,
                    "time": 238.95443700000223,
                    "velocity": 0.3779527559055118,
                    "duration": 0.10452950000001238
                },
                {
                    "name": "G3",
                    "midi": 55,
                    "time": 238.95443700000223,
                    "velocity": 0.3779527559055118,
                    "duration": 0.10452950000001238
                },
                {
                    "name": "D4",
                    "midi": 62,
                    "time": 238.95443700000223,
                    "velocity": 0.3779527559055118,
                    "duration": 0.10452950000001238
                },
                {
                    "name": "G4",
                    "midi": 67,
                    "time": 238.95443700000223,
                    "velocity": 0.44881889763779526,
                    "duration": 0.10452950000001238
                },
                {
                    "name": "C3",
                    "midi": 48,
                    "time": 239.16349600000225,
                    "velocity": 0.25984251968503935,
                    "duration": 0.10452950000001238
                },
                {
                    "name": "C2",
                    "midi": 36,
                    "time": 239.16349600000225,
                    "velocity": 0.25984251968503935,
                    "duration": 0.10452950000001238
                },
                {
                    "name": "E3",
                    "midi": 52,
                    "time": 239.37255500000228,
                    "velocity": 0.16535433070866143,
                    "duration": 0.10452950000001238
                },
                {
                    "name": "G3",
                    "midi": 55,
                    "time": 239.37255500000228,
                    "velocity": 0.16535433070866143,
                    "duration": 0.10452950000001238
                },
                {
                    "name": "D4",
                    "midi": 62,
                    "time": 239.37255500000228,
                    "velocity": 0.2440944881889764,
                    "duration": 0.10452950000001238
                },
                {
                    "name": "C3",
                    "midi": 48,
                    "time": 239.5816140000023,
                    "velocity": 0.25984251968503935,
                    "duration": 0.10452950000001238
                },
                {
                    "name": "E3",
                    "midi": 52,
                    "time": 239.79067300000233,
                    "velocity": 0.2283464566929134,
                    "duration": 0.10452950000001238
                },
                {
                    "name": "G3",
                    "midi": 55,
                    "time": 239.79067300000233,
                    "velocity": 0.2283464566929134,
                    "duration": 0.10452950000001238
                },
                {
                    "name": "C4",
                    "midi": 60,
                    "time": 239.79067300000233,
                    "velocity": 0.3464566929133858,
                    "duration": 0.10452950000001238
                },
                {
                    "name": "C3",
                    "midi": 48,
                    "time": 239.99973200000235,
                    "velocity": 0.25984251968503935,
                    "duration": 0.10452950000001238
                },
                {
                    "name": "E3",
                    "midi": 52,
                    "time": 240.20879100000238,
                    "velocity": 0.2047244094488189,
                    "duration": 0.10452950000001238
                },
                {
                    "name": "G3",
                    "midi": 55,
                    "time": 240.20879100000238,
                    "velocity": 0.2047244094488189,
                    "duration": 0.10452950000001238
                },
                {
                    "name": "B3",
                    "midi": 59,
                    "time": 240.20879100000238,
                    "velocity": 0.29133858267716534,
                    "duration": 0.10452950000001238
                },
                {
                    "name": "C2",
                    "midi": 36,
                    "time": 240.4178500000024,
                    "velocity": 0.25984251968503935,
                    "duration": 0.10452950000001238
                },
                {
                    "name": "E3",
                    "midi": 52,
                    "time": 240.62690900000243,
                    "velocity": 0.16535433070866143,
                    "duration": 0.10452950000001238
                },
                {
                    "name": "F#3",
                    "midi": 54,
                    "time": 240.62690900000243,
                    "velocity": 0.16535433070866143,
                    "duration": 0.10452950000001238
                },
                {
                    "name": "A3",
                    "midi": 57,
                    "time": 240.62690900000243,
                    "velocity": 0.2440944881889764,
                    "duration": 0.10452950000001238
                },
                {
                    "name": "C3",
                    "midi": 48,
                    "time": 240.83596800000245,
                    "velocity": 0.25984251968503935,
                    "duration": 0.10452950000001238
                },
                {
                    "name": "E3",
                    "midi": 52,
                    "time": 241.04502700000248,
                    "velocity": 0.2283464566929134,
                    "duration": 0.10452950000001238
                },
                {
                    "name": "G3",
                    "midi": 55,
                    "time": 241.04502700000248,
                    "velocity": 0.3464566929133858,
                    "duration": 0.10452950000001238
                },
                {
                    "name": "C3",
                    "midi": 48,
                    "time": 241.2540860000025,
                    "velocity": 0.25984251968503935,
                    "duration": 0.10452950000001238
                },
                {
                    "name": "G3",
                    "midi": 55,
                    "time": 241.46314500000253,
                    "velocity": 0.2047244094488189,
                    "duration": 0.10452950000001238
                },
                {
                    "name": "C4",
                    "midi": 60,
                    "time": 241.46314500000253,
                    "velocity": 0.2047244094488189,
                    "duration": 0.10452950000001238
                },
                {
                    "name": "E4",
                    "midi": 64,
                    "time": 241.46314500000253,
                    "velocity": 0.29133858267716534,
                    "duration": 0.10452950000001238
                },
                {
                    "name": "C3",
                    "midi": 48,
                    "time": 241.67220400000255,
                    "velocity": 0.25984251968503935,
                    "duration": 0.10452950000001238
                },
                {
                    "name": "C2",
                    "midi": 36,
                    "time": 241.67220400000255,
                    "velocity": 0.25984251968503935,
                    "duration": 0.10452950000001238
                },
                {
                    "name": "F#3",
                    "midi": 54,
                    "time": 241.88126300000258,
                    "velocity": 0.16535433070866143,
                    "duration": 0.10452950000001238
                },
                {
                    "name": "A3",
                    "midi": 57,
                    "time": 241.88126300000258,
                    "velocity": 0.16535433070866143,
                    "duration": 0.10452950000001238
                },
                {
                    "name": "E4",
                    "midi": 64,
                    "time": 241.88126300000258,
                    "velocity": 0.2440944881889764,
                    "duration": 0.10452950000001238
                },
                {
                    "name": "C3",
                    "midi": 48,
                    "time": 242.0903220000026,
                    "velocity": 0.25984251968503935,
                    "duration": 0.10452950000001238
                },
                {
                    "name": "F#3",
                    "midi": 54,
                    "time": 242.29938100000263,
                    "velocity": 0.2283464566929134,
                    "duration": 0.10452950000001238
                },
                {
                    "name": "A3",
                    "midi": 57,
                    "time": 242.29938100000263,
                    "velocity": 0.2283464566929134,
                    "duration": 0.10452950000001238
                },
                {
                    "name": "D4",
                    "midi": 62,
                    "time": 242.29938100000263,
                    "velocity": 0.3464566929133858,
                    "duration": 0.10452950000001238
                },
                {
                    "name": "C3",
                    "midi": 48,
                    "time": 242.50844000000265,
                    "velocity": 0.25984251968503935,
                    "duration": 0.10452950000001238
                },
                {
                    "name": "F#3",
                    "midi": 54,
                    "time": 242.71749900000268,
                    "velocity": 0.2047244094488189,
                    "duration": 0.10452950000001238
                },
                {
                    "name": "A3",
                    "midi": 57,
                    "time": 242.71749900000268,
                    "velocity": 0.2047244094488189,
                    "duration": 0.10452950000001238
                },
                {
                    "name": "E4",
                    "midi": 64,
                    "time": 242.71749900000268,
                    "velocity": 0.29133858267716534,
                    "duration": 0.10452950000001238
                },
                {
                    "name": "C3",
                    "midi": 48,
                    "time": 242.9265580000027,
                    "velocity": 0.3228346456692913,
                    "duration": 0.10452950000001238
                },
                {
                    "name": "G3",
                    "midi": 55,
                    "time": 243.13561700000272,
                    "velocity": 0.2204724409448819,
                    "duration": 0.10452950000001238
                },
                {
                    "name": "B3",
                    "midi": 59,
                    "time": 243.13561700000272,
                    "velocity": 0.2204724409448819,
                    "duration": 0.10452950000001238
                },
                {
                    "name": "F4",
                    "midi": 65,
                    "time": 243.13561700000272,
                    "velocity": 0.2677165354330709,
                    "duration": 0.10452950000001238
                },
                {
                    "name": "C3",
                    "midi": 48,
                    "time": 243.34467600000275,
                    "velocity": 0.33858267716535434,
                    "duration": 0.10452950000001238
                },
                {
                    "name": "B3",
                    "midi": 59,
                    "time": 243.55373500000277,
                    "velocity": 0.2204724409448819,
                    "duration": 0.10452950000001238
                },
                {
                    "name": "F4",
                    "midi": 65,
                    "time": 243.55373500000277,
                    "velocity": 0.2204724409448819,
                    "duration": 0.10452950000001238
                },
                {
                    "name": "A4",
                    "midi": 69,
                    "time": 243.55373500000277,
                    "velocity": 0.2677165354330709,
                    "duration": 0.10452950000001238
                },
                {
                    "name": "C3",
                    "midi": 48,
                    "time": 243.7627940000028,
                    "velocity": 0.3543307086614173,
                    "duration": 0.10452950000001238
                },
                {
                    "name": "B3",
                    "midi": 59,
                    "time": 243.97185300000282,
                    "velocity": 0.25984251968503935,
                    "duration": 0.10452950000001238
                },
                {
                    "name": "F4",
                    "midi": 65,
                    "time": 243.97185300000282,
                    "velocity": 0.25984251968503935,
                    "duration": 0.10452950000001238
                },
                {
                    "name": "G4",
                    "midi": 67,
                    "time": 243.97185300000282,
                    "velocity": 0.30708661417322836,
                    "duration": 0.10452950000001238
                },
                {
                    "name": "C3",
                    "midi": 48,
                    "time": 244.18091200000285,
                    "velocity": 0.25984251968503935,
                    "duration": 0.10452950000001238
                },
                {
                    "name": "C2",
                    "midi": 36,
                    "time": 244.18091200000285,
                    "velocity": 0.25984251968503935,
                    "duration": 0.10452950000001238
                },
                {
                    "name": "E3",
                    "midi": 52,
                    "time": 244.38997100000287,
                    "velocity": 0.16535433070866143,
                    "duration": 0.20905899999999633
                },
                {
                    "name": "G3",
                    "midi": 55,
                    "time": 244.38997100000287,
                    "velocity": 0.16535433070866143,
                    "duration": 0.20905899999999633
                },
                {
                    "name": "D4",
                    "midi": 62,
                    "time": 244.38997100000287,
                    "velocity": 0.2440944881889764,
                    "duration": 0.20905899999999633
                },
                {
                    "name": "C3",
                    "midi": 48,
                    "time": 244.59903000000287,
                    "velocity": 0.25984251968503935,
                    "duration": 0.20905899999999633
                },
                {
                    "name": "E3",
                    "midi": 52,
                    "time": 244.80808900000287,
                    "velocity": 0.2283464566929134,
                    "duration": 0.20905899999999633
                },
                {
                    "name": "G3",
                    "midi": 55,
                    "time": 244.80808900000287,
                    "velocity": 0.2283464566929134,
                    "duration": 0.20905899999999633
                },
                {
                    "name": "C4",
                    "midi": 60,
                    "time": 244.80808900000287,
                    "velocity": 0.3464566929133858,
                    "duration": 0.20905899999999633
                },
                {
                    "name": "C3",
                    "midi": 48,
                    "time": 245.01714800000286,
                    "velocity": 0.25984251968503935,
                    "duration": 0.20905899999999633
                },
                {
                    "name": "E3",
                    "midi": 52,
                    "time": 245.22620700000286,
                    "velocity": 0.2047244094488189,
                    "duration": 0.20905899999999633
                },
                {
                    "name": "G3",
                    "midi": 55,
                    "time": 245.22620700000286,
                    "velocity": 0.2047244094488189,
                    "duration": 0.20905899999999633
                },
                {
                    "name": "B3",
                    "midi": 59,
                    "time": 245.22620700000286,
                    "velocity": 0.29133858267716534,
                    "duration": 0.20905899999999633
                },
                {
                    "name": "C3",
                    "midi": 48,
                    "time": 245.43526600000285,
                    "velocity": 0.25984251968503935,
                    "duration": 0.20905899999999633
                },
                {
                    "name": "E3",
                    "midi": 52,
                    "time": 245.64432500000285,
                    "velocity": 0.16535433070866143,
                    "duration": 0.20905899999999633
                },
                {
                    "name": "F#3",
                    "midi": 54,
                    "time": 245.64432500000285,
                    "velocity": 0.16535433070866143,
                    "duration": 0.20905899999999633
                },
                {
                    "name": "A3",
                    "midi": 57,
                    "time": 245.64432500000285,
                    "velocity": 0.2440944881889764,
                    "duration": 0.20905899999999633
                },
                {
                    "name": "C3",
                    "midi": 48,
                    "time": 245.85338400000285,
                    "velocity": 0.25984251968503935,
                    "duration": 0.20905899999999633
                },
                {
                    "name": "E3",
                    "midi": 52,
                    "time": 246.06244300000284,
                    "velocity": 0.2283464566929134,
                    "duration": 0.20905899999999633
                },
                {
                    "name": "G3",
                    "midi": 55,
                    "time": 246.06244300000284,
                    "velocity": 0.3464566929133858,
                    "duration": 0.20905899999999633
                },
                {
                    "name": "C3",
                    "midi": 48,
                    "time": 246.27150200000284,
                    "velocity": 0.25984251968503935,
                    "duration": 0.20905899999999633
                },
                {
                    "name": "G3",
                    "midi": 55,
                    "time": 246.48056100000284,
                    "velocity": 0.2047244094488189,
                    "duration": 0.20905899999999633
                },
                {
                    "name": "C4",
                    "midi": 60,
                    "time": 246.48056100000284,
                    "velocity": 0.2047244094488189,
                    "duration": 0.20905899999999633
                },
                {
                    "name": "E4",
                    "midi": 64,
                    "time": 246.48056100000284,
                    "velocity": 0.29133858267716534,
                    "duration": 0.20905899999999633
                },
                {
                    "name": "B1",
                    "midi": 35,
                    "time": 246.68962000000283,
                    "velocity": 0.3228346456692913,
                    "duration": 0.20905899999999633
                },
                {
                    "name": "F#3",
                    "midi": 54,
                    "time": 246.89867900000283,
                    "velocity": 0.2204724409448819,
                    "duration": 0.20905899999999633
                },
                {
                    "name": "A3",
                    "midi": 57,
                    "time": 246.89867900000283,
                    "velocity": 0.2204724409448819,
                    "duration": 0.20905899999999633
                },
                {
                    "name": "D#4",
                    "midi": 63,
                    "time": 246.89867900000283,
                    "velocity": 0.2755905511811024,
                    "duration": 0.20905899999999633
                },
                {
                    "name": "B2",
                    "midi": 47,
                    "time": 247.10773800000283,
                    "velocity": 0.3779527559055118,
                    "duration": 0.20905899999999633
                },
                {
                    "name": "A3",
                    "midi": 57,
                    "time": 247.31679700000282,
                    "velocity": 0.28346456692913385,
                    "duration": 0.20905899999999633
                },
                {
                    "name": "D#4",
                    "midi": 63,
                    "time": 247.31679700000282,
                    "velocity": 0.28346456692913385,
                    "duration": 0.20905899999999633
                },
                {
                    "name": "G4",
                    "midi": 67,
                    "time": 247.31679700000282,
                    "velocity": 0.33858267716535434,
                    "duration": 0.20905899999999633
                },
                {
                    "name": "B2",
                    "midi": 47,
                    "time": 247.52585600000282,
                    "velocity": 0.4251968503937008,
                    "duration": 0.20905899999999633
                },
                {
                    "name": "A3",
                    "midi": 57,
                    "time": 247.73491500000281,
                    "velocity": 0.30708661417322836,
                    "duration": 0.20905899999999633
                },
                {
                    "name": "D#4",
                    "midi": 63,
                    "time": 247.73491500000281,
                    "velocity": 0.3700787401574803,
                    "duration": 0.20905899999999633
                },
                {
                    "name": "F#4",
                    "midi": 66,
                    "time": 247.73491500000281,
                    "velocity": 0.3700787401574803,
                    "duration": 0.20905899999999633
                },
                {
                    "name": "E2",
                    "midi": 40,
                    "time": 247.9439740000028,
                    "velocity": 0.44881889763779526,
                    "duration": 0.20905899999999633
                },
                {
                    "name": "E3",
                    "midi": 52,
                    "time": 247.9439740000028,
                    "velocity": 0.44881889763779526,
                    "duration": 0.20905899999999633
                },
                {
                    "name": "B3",
                    "midi": 59,
                    "time": 248.1530330000028,
                    "velocity": 0.29133858267716534,
                    "duration": 0.20905899999999633
                },
                {
                    "name": "E4",
                    "midi": 64,
                    "time": 248.1530330000028,
                    "velocity": 0.29133858267716534,
                    "duration": 0.20905899999999633
                },
                {
                    "name": "A4",
                    "midi": 69,
                    "time": 248.1530330000028,
                    "velocity": 0.3543307086614173,
                    "duration": 0.20905899999999633
                },
                {
                    "name": "B3",
                    "midi": 59,
                    "time": 248.3620920000028,
                    "velocity": 0.3543307086614173,
                    "duration": 0.20905899999999633
                },
                {
                    "name": "E4",
                    "midi": 64,
                    "time": 248.3620920000028,
                    "velocity": 0.3543307086614173,
                    "duration": 0.20905899999999633
                },
                {
                    "name": "G4",
                    "midi": 67,
                    "time": 248.3620920000028,
                    "velocity": 0.4330708661417323,
                    "duration": 0.20905899999999633
                },
                {
                    "name": "G2",
                    "midi": 43,
                    "time": 248.5711510000028,
                    "velocity": 0.3464566929133858,
                    "duration": 0.20905899999999633
                },
                {
                    "name": "G3",
                    "midi": 55,
                    "time": 248.5711510000028,
                    "velocity": 0.3464566929133858,
                    "duration": 0.20905899999999633
                },
                {
                    "name": "B3",
                    "midi": 59,
                    "time": 248.7802100000028,
                    "velocity": 0.31496062992125984,
                    "duration": 0.20905899999999633
                },
                {
                    "name": "D4",
                    "midi": 62,
                    "time": 248.7802100000028,
                    "velocity": 0.31496062992125984,
                    "duration": 0.20905899999999633
                },
                {
                    "name": "F4",
                    "midi": 65,
                    "time": 248.7802100000028,
                    "velocity": 0.31496062992125984,
                    "duration": 0.20905899999999633
                },
                {
                    "name": "A4",
                    "midi": 69,
                    "time": 248.7802100000028,
                    "velocity": 0.3700787401574803,
                    "duration": 0.20905899999999633
                },
                {
                    "name": "D4",
                    "midi": 62,
                    "time": 248.9892690000028,
                    "velocity": 0.28346456692913385,
                    "duration": 0.20905899999999633
                },
                {
                    "name": "B3",
                    "midi": 59,
                    "time": 248.9892690000028,
                    "velocity": 0.28346456692913385,
                    "duration": 0.20905899999999633
                },
                {
                    "name": "F4",
                    "midi": 65,
                    "time": 248.9892690000028,
                    "velocity": 0.28346456692913385,
                    "duration": 0.20905899999999633
                },
                {
                    "name": "G4",
                    "midi": 67,
                    "time": 248.9892690000028,
                    "velocity": 0.33070866141732286,
                    "duration": 0.20905899999999633
                },
                {
                    "name": "C3",
                    "midi": 48,
                    "time": 249.1983280000028,
                    "velocity": 0.3858267716535433,
                    "duration": 0.3135884999999803
                },
                {
                    "name": "C2",
                    "midi": 36,
                    "time": 249.1983280000028,
                    "velocity": 0.3858267716535433,
                    "duration": 0.3135884999999803
                },
                {
                    "name": "E4",
                    "midi": 64,
                    "time": 249.35512225000278,
                    "velocity": 0.25196850393700787,
                    "duration": 0.3135884999999803
                },
                {
                    "name": "G4",
                    "midi": 67,
                    "time": 249.35512225000278,
                    "velocity": 0.25196850393700787,
                    "duration": 0.3135884999999803
                },
                {
                    "name": "E5",
                    "midi": 76,
                    "time": 249.35512225000278,
                    "velocity": 0.3700787401574803,
                    "duration": 0.3135884999999803
                },
                {
                    "name": "D4",
                    "midi": 62,
                    "time": 249.66871075000276,
                    "velocity": 0.3543307086614173,
                    "duration": 0.3135885000000087
                },
                {
                    "name": "E4",
                    "midi": 64,
                    "time": 249.66871075000276,
                    "velocity": 0.3543307086614173,
                    "duration": 0.3135885000000087
                },
                {
                    "name": "G4",
                    "midi": 67,
                    "time": 249.66871075000276,
                    "velocity": 0.3543307086614173,
                    "duration": 0.3135885000000087
                },
                {
                    "name": "D5",
                    "midi": 74,
                    "time": 249.66871075000276,
                    "velocity": 0.5118110236220472,
                    "duration": 0.3135885000000087
                },
                {
                    "name": "C4",
                    "midi": 60,
                    "time": 249.98229925000277,
                    "velocity": 0.30708661417322836,
                    "duration": 0.3135885000000087
                },
                {
                    "name": "E4",
                    "midi": 64,
                    "time": 249.98229925000277,
                    "velocity": 0.30708661417322836,
                    "duration": 0.3135885000000087
                },
                {
                    "name": "G4",
                    "midi": 67,
                    "time": 249.98229925000277,
                    "velocity": 0.30708661417322836,
                    "duration": 0.3214282124999954
                },
                {
                    "name": "C5",
                    "midi": 72,
                    "time": 249.98229925000277,
                    "velocity": 0.44881889763779526,
                    "duration": 0.3135885000000087
                },
                {
                    "name": "B3",
                    "midi": 59,
                    "time": 250.29588775000278,
                    "velocity": 0.30708661417322836,
                    "duration": 0.15679424999999014
                },
                {
                    "name": "E4",
                    "midi": 64,
                    "time": 250.29588775000278,
                    "velocity": 0.30708661417322836,
                    "duration": 0.15679424999999014
                },
                {
                    "name": "G4",
                    "midi": 67,
                    "time": 250.29588775000278,
                    "velocity": 0.30708661417322836,
                    "duration": 0.15679424999999014
                },
                {
                    "name": "B4",
                    "midi": 71,
                    "time": 250.29588775000278,
                    "velocity": 0.44881889763779526,
                    "duration": 0.15679424999999014
                },
                {
                    "name": "A3",
                    "midi": 57,
                    "time": 250.60947625000276,
                    "velocity": 0.2755905511811024,
                    "duration": 0.3135885000000087
                },
                {
                    "name": "C4",
                    "midi": 60,
                    "time": 250.60947625000276,
                    "velocity": 0.2755905511811024,
                    "duration": 0.3135885000000087
                },
                {
                    "name": "E4",
                    "midi": 64,
                    "time": 250.60947625000276,
                    "velocity": 0.2755905511811024,
                    "duration": 0.3135885000000087
                },
                {
                    "name": "A4",
                    "midi": 69,
                    "time": 250.60947625000276,
                    "velocity": 0.3700787401574803,
                    "duration": 0.3135885000000087
                },
                {
                    "name": "F#3",
                    "midi": 54,
                    "time": 250.92306475000277,
                    "velocity": 0.3228346456692913,
                    "duration": 0.3135885000000087
                },
                {
                    "name": "C4",
                    "midi": 60,
                    "time": 250.92306475000277,
                    "velocity": 0.3228346456692913,
                    "duration": 0.3135885000000087
                },
                {
                    "name": "E4",
                    "midi": 64,
                    "time": 250.92306475000277,
                    "velocity": 0.3228346456692913,
                    "duration": 0.3135885000000087
                },
                {
                    "name": "F#4",
                    "midi": 66,
                    "time": 250.92306475000277,
                    "velocity": 0.4409448818897638,
                    "duration": 0.3135885000000087
                },
                {
                    "name": "G3",
                    "midi": 55,
                    "time": 251.23665325000277,
                    "velocity": 0.3228346456692913,
                    "duration": 0.15679424999999014
                },
                {
                    "name": "C4",
                    "midi": 60,
                    "time": 251.23665325000277,
                    "velocity": 0.3228346456692913,
                    "duration": 0.15679424999999014
                },
                {
                    "name": "E4",
                    "midi": 64,
                    "time": 251.23665325000277,
                    "velocity": 0.3228346456692913,
                    "duration": 0.15679424999999014
                },
                {
                    "name": "G4",
                    "midi": 67,
                    "time": 251.23665325000277,
                    "velocity": 0.4409448818897638,
                    "duration": 0.15679424999999014
                },
                {
                    "name": "C2",
                    "midi": 36,
                    "time": 251.55024175000275,
                    "velocity": 0.3858267716535433,
                    "duration": 0.47038274999997043
                },
                {
                    "name": "C3",
                    "midi": 48,
                    "time": 251.70703600000274,
                    "velocity": 0.3858267716535433,
                    "duration": 0.3135884999999803
                },
                {
                    "name": "A4",
                    "midi": 69,
                    "time": 251.86383025000274,
                    "velocity": 0.25196850393700787,
                    "duration": 0.3135884999999803
                },
                {
                    "name": "E4",
                    "midi": 64,
                    "time": 251.86383025000274,
                    "velocity": 0.25196850393700787,
                    "duration": 0.3135884999999803
                },
                {
                    "name": "F#4",
                    "midi": 66,
                    "time": 251.86383025000274,
                    "velocity": 0.25196850393700787,
                    "duration": 0.3135884999999803
                },
                {
                    "name": "E5",
                    "midi": 76,
                    "time": 251.86383025000274,
                    "velocity": 0.3700787401574803,
                    "duration": 0.3135884999999803
                },
                {
                    "name": "A4",
                    "midi": 69,
                    "time": 252.17741875000272,
                    "velocity": 0.3543307086614173,
                    "duration": 0.3135885000000087
                },
                {
                    "name": "C#4",
                    "midi": 61,
                    "time": 252.17741875000272,
                    "velocity": 0.3543307086614173,
                    "duration": 0.3135885000000087
                },
                {
                    "name": "F#4",
                    "midi": 66,
                    "time": 252.17741875000272,
                    "velocity": 0.3543307086614173,
                    "duration": 0.3135885000000087
                },
                {
                    "name": "C#5",
                    "midi": 73,
                    "time": 252.17741875000272,
                    "velocity": 0.5118110236220472,
                    "duration": 0.3135885000000087
                },
                {
                    "name": "A4",
                    "midi": 69,
                    "time": 252.49100725000272,
                    "velocity": 0.30708661417322836,
                    "duration": 0.3135885000000087
                },
                {
                    "name": "D4",
                    "midi": 62,
                    "time": 252.49100725000272,
                    "velocity": 0.30708661417322836,
                    "duration": 0.3135885000000087
                },
                {
                    "name": "F#4",
                    "midi": 66,
                    "time": 252.49100725000272,
                    "velocity": 0.30708661417322836,
                    "duration": 0.3214282124999954
                },
                {
                    "name": "D5",
                    "midi": 74,
                    "time": 252.49100725000272,
                    "velocity": 0.44881889763779526,
                    "duration": 0.3135885000000087
                },
                {
                    "name": "A4",
                    "midi": 69,
                    "time": 252.80459575000273,
                    "velocity": 0.30708661417322836,
                    "duration": 0.15679424999999014
                },
                {
                    "name": "E4",
                    "midi": 64,
                    "time": 252.80459575000273,
                    "velocity": 0.30708661417322836,
                    "duration": 0.15679424999999014
                },
                {
                    "name": "F#4",
                    "midi": 66,
                    "time": 252.80459575000273,
                    "velocity": 0.30708661417322836,
                    "duration": 0.15679424999999014
                },
                {
                    "name": "E5",
                    "midi": 76,
                    "time": 252.80459575000273,
                    "velocity": 0.44881889763779526,
                    "duration": 0.15679424999999014
                },
                {
                    "name": "F4",
                    "midi": 65,
                    "time": 253.1181842500027,
                    "velocity": 0.2755905511811024,
                    "duration": 0.3135885000000087
                },
                {
                    "name": "G#4",
                    "midi": 68,
                    "time": 253.1181842500027,
                    "velocity": 0.2755905511811024,
                    "duration": 0.3135885000000087
                },
                {
                    "name": "B4",
                    "midi": 71,
                    "time": 253.1181842500027,
                    "velocity": 0.2755905511811024,
                    "duration": 0.3135885000000087
                },
                {
                    "name": "F5",
                    "midi": 77,
                    "time": 253.1181842500027,
                    "velocity": 0.3700787401574803,
                    "duration": 0.3135885000000087
                },
                {
                    "name": "D4",
                    "midi": 62,
                    "time": 253.43177275000272,
                    "velocity": 0.3228346456692913,
                    "duration": 0.3135885000000087
                },
                {
                    "name": "F4",
                    "midi": 65,
                    "time": 253.43177275000272,
                    "velocity": 0.3228346456692913,
                    "duration": 0.3135885000000087
                },
                {
                    "name": "G#4",
                    "midi": 68,
                    "time": 253.43177275000272,
                    "velocity": 0.3228346456692913,
                    "duration": 0.3135885000000087
                },
                {
                    "name": "D5",
                    "midi": 74,
                    "time": 253.43177275000272,
                    "velocity": 0.4409448818897638,
                    "duration": 0.3135885000000087
                },
                {
                    "name": "B3",
                    "midi": 59,
                    "time": 253.74536125000273,
                    "velocity": 0.28346456692913385,
                    "duration": 0.15679424999999014
                },
                {
                    "name": "D4",
                    "midi": 62,
                    "time": 253.74536125000273,
                    "velocity": 0.28346456692913385,
                    "duration": 0.15679424999999014
                },
                {
                    "name": "F4",
                    "midi": 65,
                    "time": 253.74536125000273,
                    "velocity": 0.28346456692913385,
                    "duration": 0.15679424999999014
                },
                {
                    "name": "B4",
                    "midi": 71,
                    "time": 253.74536125000273,
                    "velocity": 0.3937007874015748,
                    "duration": 0.15679424999999014
                },
                {
                    "name": "C2",
                    "midi": 36,
                    "time": 254.0589497500027,
                    "velocity": 0.28346456692913385,
                    "duration": 0.47038274999997043
                },
                {
                    "name": "C3",
                    "midi": 48,
                    "time": 254.2157440000027,
                    "velocity": 0.28346456692913385,
                    "duration": 0.3135884999999803
                },
                {
                    "name": "E3",
                    "midi": 52,
                    "time": 254.3725382500027,
                    "velocity": 0.1889763779527559,
                    "duration": 0.3135884999999803
                },
                {
                    "name": "G3",
                    "midi": 55,
                    "time": 254.3725382500027,
                    "velocity": 0.1889763779527559,
                    "duration": 0.3135884999999803
                },
                {
                    "name": "E4",
                    "midi": 64,
                    "time": 254.3725382500027,
                    "velocity": 0.2755905511811024,
                    "duration": 0.3135884999999803
                },
                {
                    "name": "E3",
                    "midi": 52,
                    "time": 254.68612675000267,
                    "velocity": 0.25984251968503935,
                    "duration": 0.3135885000000087
                },
                {
                    "name": "G3",
                    "midi": 55,
                    "time": 254.68612675000267,
                    "velocity": 0.25984251968503935,
                    "duration": 0.3135885000000087
                },
                {
                    "name": "D4",
                    "midi": 62,
                    "time": 254.68612675000267,
                    "velocity": 0.3779527559055118,
                    "duration": 0.3135885000000087
                },
                {
                    "name": "E3",
                    "midi": 52,
                    "time": 254.99971525000268,
                    "velocity": 0.2204724409448819,
                    "duration": 0.3135885000000087
                },
                {
                    "name": "G3",
                    "midi": 55,
                    "time": 254.99971525000268,
                    "velocity": 0.2204724409448819,
                    "duration": 0.3214282124999954
                },
                {
                    "name": "C4",
                    "midi": 60,
                    "time": 254.99971525000268,
                    "velocity": 0.33070866141732286,
                    "duration": 0.3135885000000087
                },
                {
                    "name": "E3",
                    "midi": 52,
                    "time": 255.3133037500027,
                    "velocity": 0.2204724409448819,
                    "duration": 0.15679424999999014
                },
                {
                    "name": "G3",
                    "midi": 55,
                    "time": 255.3133037500027,
                    "velocity": 0.2204724409448819,
                    "duration": 0.15679424999999014
                },
                {
                    "name": "B3",
                    "midi": 59,
                    "time": 255.3133037500027,
                    "velocity": 0.33070866141732286,
                    "duration": 0.15679424999999014
                },
                {
                    "name": "C3",
                    "midi": 48,
                    "time": 255.62689225000267,
                    "velocity": 0.2047244094488189,
                    "duration": 0.3135885000000087
                },
                {
                    "name": "E3",
                    "midi": 52,
                    "time": 255.62689225000267,
                    "velocity": 0.2047244094488189,
                    "duration": 0.3135885000000087
                },
                {
                    "name": "A3",
                    "midi": 57,
                    "time": 255.62689225000267,
                    "velocity": 0.2755905511811024,
                    "duration": 0.3135885000000087
                },
                {
                    "name": "C3",
                    "midi": 48,
                    "time": 255.94048075000268,
                    "velocity": 0.23622047244094488,
                    "duration": 0.3135884999999803
                },
                {
                    "name": "E3",
                    "midi": 52,
                    "time": 255.94048075000268,
                    "velocity": 0.23622047244094488,
                    "duration": 0.3135884999999803
                },
                {
                    "name": "F#3",
                    "midi": 54,
                    "time": 255.94048075000268,
                    "velocity": 0.33070866141732286,
                    "duration": 0.3135884999999803
                },
                {
                    "name": "C3",
                    "midi": 48,
                    "time": 256.25406925000266,
                    "velocity": 0.23622047244094488,
                    "duration": 0.15679425000001856
                },
                {
                    "name": "E3",
                    "midi": 52,
                    "time": 256.25406925000266,
                    "velocity": 0.23622047244094488,
                    "duration": 0.15679425000001856
                },
                {
                    "name": "G3",
                    "midi": 55,
                    "time": 256.25406925000266,
                    "velocity": 0.33070866141732286,
                    "duration": 0.15679425000001856
                },
                {
                    "name": "C2",
                    "midi": 36,
                    "time": 256.5676577500027,
                    "velocity": 0.28346456692913385,
                    "duration": 0.4703827500000557
                },
                {
                    "name": "C3",
                    "midi": 48,
                    "time": 256.7244520000027,
                    "velocity": 0.30708661417322836,
                    "duration": 0.31358850000003713
                },
                {
                    "name": "F3",
                    "midi": 53,
                    "time": 256.88124625000273,
                    "velocity": 0.2047244094488189,
                    "duration": 0.31358850000003713
                },
                {
                    "name": "G#3",
                    "midi": 56,
                    "time": 256.88124625000273,
                    "velocity": 0.2047244094488189,
                    "duration": 0.31358850000003713
                },
                {
                    "name": "F4",
                    "midi": 65,
                    "time": 256.88124625000273,
                    "velocity": 0.2992125984251969,
                    "duration": 0.31358850000003713
                },
                {
                    "name": "F3",
                    "midi": 53,
                    "time": 257.19483475000277,
                    "velocity": 0.28346456692913385,
                    "duration": 0.3135884999999803
                },
                {
                    "name": "G#3",
                    "midi": 56,
                    "time": 257.19483475000277,
                    "velocity": 0.28346456692913385,
                    "duration": 0.3135884999999803
                },
                {
                    "name": "D#4",
                    "midi": 63,
                    "time": 257.19483475000277,
                    "velocity": 0.41732283464566927,
                    "duration": 0.3135884999999803
                },
                {
                    "name": "F3",
                    "midi": 53,
                    "time": 257.50842325000275,
                    "velocity": 0.2440944881889764,
                    "duration": 0.3135884999999803
                },
                {
                    "name": "G#3",
                    "midi": 56,
                    "time": 257.50842325000275,
                    "velocity": 0.2440944881889764,
                    "duration": 0.3214282124999954
                },
                {
                    "name": "C#4",
                    "midi": 61,
                    "time": 257.50842325000275,
                    "velocity": 0.3543307086614173,
                    "duration": 0.3135884999999803
                },
                {
                    "name": "F3",
                    "midi": 53,
                    "time": 257.82201175000273,
                    "velocity": 0.2440944881889764,
                    "duration": 0.15679425000001856
                },
                {
                    "name": "G#3",
                    "midi": 56,
                    "time": 257.82201175000273,
                    "velocity": 0.2440944881889764,
                    "duration": 0.15679425000001856
                },
                {
                    "name": "C4",
                    "midi": 60,
                    "time": 257.82201175000273,
                    "velocity": 0.3543307086614173,
                    "duration": 0.15679425000001856
                },
                {
                    "name": "C3",
                    "midi": 48,
                    "time": 258.13560025000277,
                    "velocity": 0.2125984251968504,
                    "duration": 0.3135884999999803
                },
                {
                    "name": "F3",
                    "midi": 53,
                    "time": 258.13560025000277,
                    "velocity": 0.2125984251968504,
                    "duration": 0.3135884999999803
                },
                {
                    "name": "A#3",
                    "midi": 58,
                    "time": 258.13560025000277,
                    "velocity": 0.2992125984251969,
                    "duration": 0.3135884999999803
                },
                {
                    "name": "C3",
                    "midi": 48,
                    "time": 258.44918875000275,
                    "velocity": 0.25984251968503935,
                    "duration": 0.3135884999999803
                },
                {
                    "name": "F3",
                    "midi": 53,
                    "time": 258.44918875000275,
                    "velocity": 0.25984251968503935,
                    "duration": 0.3135884999999803
                },
                {
                    "name": "G3",
                    "midi": 55,
                    "time": 258.44918875000275,
                    "velocity": 0.3543307086614173,
                    "duration": 0.3135884999999803
                },
                {
                    "name": "C3",
                    "midi": 48,
                    "time": 258.7627772500027,
                    "velocity": 0.25984251968503935,
                    "duration": 0.15679425000001856
                },
                {
                    "name": "F3",
                    "midi": 53,
                    "time": 258.7627772500027,
                    "velocity": 0.25984251968503935,
                    "duration": 0.15679425000001856
                },
                {
                    "name": "G#3",
                    "midi": 56,
                    "time": 258.7627772500027,
                    "velocity": 0.3543307086614173,
                    "duration": 0.15679425000001856
                },
                {
                    "name": "C2",
                    "midi": 36,
                    "time": 259.07636575000276,
                    "velocity": 0.28346456692913385,
                    "duration": 0.4703827500000557
                },
                {
                    "name": "C3",
                    "midi": 48,
                    "time": 259.2331600000028,
                    "velocity": 0.3700787401574803,
                    "duration": 0.31358850000003713
                },
                {
                    "name": "F#3",
                    "midi": 54,
                    "time": 259.3899542500028,
                    "velocity": 0.3464566929133858,
                    "duration": 0.31358850000003713
                },
                {
                    "name": "A3",
                    "midi": 57,
                    "time": 259.3899542500028,
                    "velocity": 0.3464566929133858,
                    "duration": 0.31358850000003713
                },
                {
                    "name": "F#4",
                    "midi": 66,
                    "time": 259.3899542500028,
                    "velocity": 0.4094488188976378,
                    "duration": 0.31358850000003713
                },
                {
                    "name": "F#3",
                    "midi": 54,
                    "time": 259.70354275000284,
                    "velocity": 0.3228346456692913,
                    "duration": 0.3135884999999803
                },
                {
                    "name": "A3",
                    "midi": 57,
                    "time": 259.70354275000284,
                    "velocity": 0.3228346456692913,
                    "duration": 0.3135884999999803
                },
                {
                    "name": "E4",
                    "midi": 64,
                    "time": 259.70354275000284,
                    "velocity": 0.3779527559055118,
                    "duration": 0.3135884999999803
                },
                {
                    "name": "F#3",
                    "midi": 54,
                    "time": 260.0171312500028,
                    "velocity": 0.29133858267716534,
                    "duration": 0.3135884999999803
                },
                {
                    "name": "A3",
                    "midi": 57,
                    "time": 260.0171312500028,
                    "velocity": 0.29133858267716534,
                    "duration": 0.3214282124999954
                },
                {
                    "name": "D4",
                    "midi": 62,
                    "time": 260.0171312500028,
                    "velocity": 0.3543307086614173,
                    "duration": 0.3135884999999803
                },
                {
                    "name": "C2",
                    "midi": 36,
                    "time": 260.3307197500028,
                    "velocity": 0.31496062992125984,
                    "duration": 0.4703827500000557
                },
                {
                    "name": "C3",
                    "midi": 48,
                    "time": 260.4875140000028,
                    "velocity": 0.3779527559055118,
                    "duration": 0.31358850000003713
                },
                {
                    "name": "G3",
                    "midi": 55,
                    "time": 260.64430825000284,
                    "velocity": 0.3700787401574803,
                    "duration": 0.31358850000003713
                },
                {
                    "name": "A#3",
                    "midi": 58,
                    "time": 260.64430825000284,
                    "velocity": 0.3700787401574803,
                    "duration": 0.31358850000003713
                },
                {
                    "name": "G4",
                    "midi": 67,
                    "time": 260.64430825000284,
                    "velocity": 0.4409448818897638,
                    "duration": 0.31358850000003713
                },
                {
                    "name": "G3",
                    "midi": 55,
                    "time": 260.9578967500029,
                    "velocity": 0.33858267716535434,
                    "duration": 0.3135884999999803
                },
                {
                    "name": "A#3",
                    "midi": 58,
                    "time": 260.9578967500029,
                    "velocity": 0.33858267716535434,
                    "duration": 0.3135884999999803
                },
                {
                    "name": "F4",
                    "midi": 65,
                    "time": 260.9578967500029,
                    "velocity": 0.4015748031496063,
                    "duration": 0.3135884999999803
                },
                {
                    "name": "G3",
                    "midi": 55,
                    "time": 261.27148525000285,
                    "velocity": 0.30708661417322836,
                    "duration": 0.3135884999999803
                },
                {
                    "name": "A#3",
                    "midi": 58,
                    "time": 261.27148525000285,
                    "velocity": 0.30708661417322836,
                    "duration": 0.3214282124999954
                },
                {
                    "name": "E4",
                    "midi": 64,
                    "time": 261.27148525000285,
                    "velocity": 0.36220472440944884,
                    "duration": 0.3135884999999803
                },
                {
                    "name": "C2",
                    "midi": 36,
                    "time": 261.58507375000283,
                    "velocity": 0.33858267716535434,
                    "duration": 0.4703827500000557
                },
                {
                    "name": "C3",
                    "midi": 48,
                    "time": 261.74186800000285,
                    "velocity": 0.4251968503937008,
                    "duration": 0.31358850000003713
                },
                {
                    "name": "B3",
                    "midi": 59,
                    "time": 261.8986622500029,
                    "velocity": 0.3858267716535433,
                    "duration": 0.31358850000003713
                },
                {
                    "name": "D4",
                    "midi": 62,
                    "time": 261.8986622500029,
                    "velocity": 0.3858267716535433,
                    "duration": 0.31358850000003713
                },
                {
                    "name": "G#4",
                    "midi": 68,
                    "time": 261.8986622500029,
                    "velocity": 0.4645669291338583,
                    "duration": 0.31358850000003713
                },
                {
                    "name": "B3",
                    "midi": 59,
                    "time": 262.2122507500029,
                    "velocity": 0.36220472440944884,
                    "duration": 0.3135884999999803
                },
                {
                    "name": "D4",
                    "midi": 62,
                    "time": 262.2122507500029,
                    "velocity": 0.36220472440944884,
                    "duration": 0.3135884999999803
                },
                {
                    "name": "G4",
                    "midi": 67,
                    "time": 262.2122507500029,
                    "velocity": 0.4251968503937008,
                    "duration": 0.3135884999999803
                },
                {
                    "name": "G#3",
                    "midi": 56,
                    "time": 262.5258392500029,
                    "velocity": 0.33070866141732286,
                    "duration": 0.3135884999999803
                },
                {
                    "name": "B3",
                    "midi": 59,
                    "time": 262.5258392500029,
                    "velocity": 0.33070866141732286,
                    "duration": 0.3214282124999954
                },
                {
                    "name": "F4",
                    "midi": 65,
                    "time": 262.5258392500029,
                    "velocity": 0.3937007874015748,
                    "duration": 0.3135884999999803
                },
                {
                    "name": "F3",
                    "midi": 53,
                    "time": 262.83942775000287,
                    "velocity": 0.30708661417322836,
                    "duration": 0.15679425000001856
                },
                {
                    "name": "G#3",
                    "midi": 56,
                    "time": 262.83942775000287,
                    "velocity": 0.30708661417322836,
                    "duration": 0.15679425000001856
                },
                {
                    "name": "D4",
                    "midi": 62,
                    "time": 262.83942775000287,
                    "velocity": 0.36220472440944884,
                    "duration": 0.15679425000001856
                },
                {
                    "name": "D3",
                    "midi": 50,
                    "time": 263.1530162500029,
                    "velocity": 0.4015748031496063,
                    "duration": 0.3135884999999803
                },
                {
                    "name": "F3",
                    "midi": 53,
                    "time": 263.1530162500029,
                    "velocity": 0.4015748031496063,
                    "duration": 0.3135884999999803
                },
                {
                    "name": "B3",
                    "midi": 59,
                    "time": 263.1530162500029,
                    "velocity": 0.48031496062992124,
                    "duration": 0.3135884999999803
                },
                {
                    "name": "B2",
                    "midi": 47,
                    "time": 263.4666047500029,
                    "velocity": 0.3700787401574803,
                    "duration": 0.3135884999999803
                },
                {
                    "name": "D3",
                    "midi": 50,
                    "time": 263.4666047500029,
                    "velocity": 0.3700787401574803,
                    "duration": 0.3135884999999803
                },
                {
                    "name": "G#3",
                    "midi": 56,
                    "time": 263.4666047500029,
                    "velocity": 0.44881889763779526,
                    "duration": 0.3135884999999803
                },
                {
                    "name": "B2",
                    "midi": 47,
                    "time": 263.78019325000287,
                    "velocity": 0.3543307086614173,
                    "duration": 0.3135884999999803
                },
                {
                    "name": "D3",
                    "midi": 50,
                    "time": 263.78019325000287,
                    "velocity": 0.3543307086614173,
                    "duration": 0.3214282124999954
                },
                {
                    "name": "G3",
                    "midi": 55,
                    "time": 263.78019325000287,
                    "velocity": 0.41732283464566927,
                    "duration": 0.3135884999999803
                },
                {
                    "name": "G#2",
                    "midi": 44,
                    "time": 264.09378175000285,
                    "velocity": 0.33070866141732286,
                    "duration": 0.15679425000001856
                },
                {
                    "name": "B2",
                    "midi": 47,
                    "time": 264.09378175000285,
                    "velocity": 0.33070866141732286,
                    "duration": 0.15679425000001856
                },
                {
                    "name": "F3",
                    "midi": 53,
                    "time": 264.09378175000285,
                    "velocity": 0.3858267716535433,
                    "duration": 0.15679425000001856
                },
                {
                    "name": "F2",
                    "midi": 41,
                    "time": 264.4073702500029,
                    "velocity": 0.4094488188976378,
                    "duration": 0.3135884999999803
                },
                {
                    "name": "G#2",
                    "midi": 44,
                    "time": 264.4073702500029,
                    "velocity": 0.4094488188976378,
                    "duration": 0.3135884999999803
                },
                {
                    "name": "D3",
                    "midi": 50,
                    "time": 264.4073702500029,
                    "velocity": 0.4881889763779528,
                    "duration": 0.3135884999999803
                },
                {
                    "name": "D2",
                    "midi": 38,
                    "time": 264.72095875000286,
                    "velocity": 0.3858267716535433,
                    "duration": 0.3135884999999803
                },
                {
                    "name": "F2",
                    "midi": 41,
                    "time": 264.72095875000286,
                    "velocity": 0.3858267716535433,
                    "duration": 0.3135884999999803
                },
                {
                    "name": "B2",
                    "midi": 47,
                    "time": 264.72095875000286,
                    "velocity": 0.4645669291338583,
                    "duration": 0.3135884999999803
                },
                {
                    "name": "B1",
                    "midi": 35,
                    "time": 265.03454725000284,
                    "velocity": 0.3779527559055118,
                    "duration": 0.3135884999999803
                },
                {
                    "name": "D2",
                    "midi": 38,
                    "time": 265.03454725000284,
                    "velocity": 0.3779527559055118,
                    "duration": 0.3214282124999954
                },
                {
                    "name": "G#2",
                    "midi": 44,
                    "time": 265.03454725000284,
                    "velocity": 0.44881889763779526,
                    "duration": 0.3135884999999803
                },
                {
                    "name": "B1",
                    "midi": 35,
                    "time": 265.3481357500028,
                    "velocity": 0.36220472440944884,
                    "duration": 0.15679425000001856
                },
                {
                    "name": "D2",
                    "midi": 38,
                    "time": 265.3481357500028,
                    "velocity": 0.36220472440944884,
                    "duration": 0.15679425000001856
                },
                {
                    "name": "G2",
                    "midi": 43,
                    "time": 265.3481357500028,
                    "velocity": 0.4251968503937008,
                    "duration": 0.15679425000001856
                },
                {
                    "name": "B1",
                    "midi": 35,
                    "time": 265.66172425000286,
                    "velocity": 0.47244094488188976,
                    "duration": 0.3135884999999803
                },
                {
                    "name": "D2",
                    "midi": 38,
                    "time": 265.66172425000286,
                    "velocity": 0.47244094488188976,
                    "duration": 0.3135884999999803
                },
                {
                    "name": "F2",
                    "midi": 41,
                    "time": 265.66172425000286,
                    "velocity": 0.47244094488188976,
                    "duration": 0.3135884999999803
                },
                {
                    "name": "D2",
                    "midi": 38,
                    "time": 265.97531275000284,
                    "velocity": 0.44881889763779526,
                    "duration": 0.3135884999999803
                },
                {
                    "name": "G#1",
                    "midi": 32,
                    "time": 265.97531275000284,
                    "velocity": 0.44881889763779526,
                    "duration": 0.3135884999999803
                },
                {
                    "name": "B1",
                    "midi": 35,
                    "time": 265.97531275000284,
                    "velocity": 0.44881889763779526,
                    "duration": 0.3135884999999803
                },
                {
                    "name": "G#2",
                    "midi": 44,
                    "time": 265.97531275000284,
                    "velocity": 0.5433070866141733,
                    "duration": 0.3135884999999803
                },
                {
                    "name": "D2",
                    "midi": 38,
                    "time": 266.2889012500028,
                    "velocity": 0.4409448818897638,
                    "duration": 0.3135884999999803
                },
                {
                    "name": "G1",
                    "midi": 31,
                    "time": 266.2889012500028,
                    "velocity": 0.4409448818897638,
                    "duration": 0.3135884999999803
                },
                {
                    "name": "B1",
                    "midi": 35,
                    "time": 266.2889012500028,
                    "velocity": 0.4409448818897638,
                    "duration": 0.3214282124999954
                },
                {
                    "name": "G2",
                    "midi": 43,
                    "time": 266.2889012500028,
                    "velocity": 0.5354330708661418,
                    "duration": 0.3135884999999803
                },
                {
                    "name": "D2",
                    "midi": 38,
                    "time": 266.6024897500028,
                    "velocity": 0.4330708661417323,
                    "duration": 0.15679425000001856
                },
                {
                    "name": "F1",
                    "midi": 29,
                    "time": 266.6024897500028,
                    "velocity": 0.4330708661417323,
                    "duration": 0.15679425000001856
                },
                {
                    "name": "B1",
                    "midi": 35,
                    "time": 266.6024897500028,
                    "velocity": 0.4330708661417323,
                    "duration": 0.15679425000001856
                },
                {
                    "name": "F2",
                    "midi": 41,
                    "time": 266.6024897500028,
                    "velocity": 0.5196850393700787,
                    "duration": 0.15679425000001856
                },
                {
                    "name": "E1",
                    "midi": 28,
                    "time": 266.7592840000028,
                    "velocity": 0.4330708661417323,
                    "duration": 0.6271770000000174
                },
                {
                    "name": "G1",
                    "midi": 31,
                    "time": 266.7592840000028,
                    "velocity": 0.4330708661417323,
                    "duration": 0.6271770000000174
                },
                {
                    "name": "C1",
                    "midi": 24,
                    "time": 266.7592840000028,
                    "velocity": 0.4330708661417323,
                    "duration": 0.6271770000000174
                },
                {
                    "name": "C2",
                    "midi": 36,
                    "time": 266.7592840000028,
                    "velocity": 0.5118110236220472,
                    "duration": 0.6271770000000174
                },
                {
                    "name": "C4",
                    "midi": 60,
                    "time": 267.38646100000284,
                    "velocity": 0.5275590551181102,
                    "duration": 0.10452950000001238
                },
                {
                    "name": "E3",
                    "midi": 52,
                    "time": 267.38646100000284,
                    "velocity": 0.4409448818897638,
                    "duration": 0.10452950000001238
                },
                {
                    "name": "G3",
                    "midi": 55,
                    "time": 267.38646100000284,
                    "velocity": 0.4409448818897638,
                    "duration": 0.10452950000001238
                },
                {
                    "name": "C3",
                    "midi": 48,
                    "time": 267.7000495000029,
                    "velocity": 0.3858267716535433,
                    "duration": 0.05226475000000619
                },
                {
                    "name": "G3",
                    "midi": 55,
                    "time": 267.7000495000029,
                    "velocity": 0.4566929133858268,
                    "duration": 0.05226475000000619
                },
                {
                    "name": "E3",
                    "midi": 52,
                    "time": 267.7000495000029,
                    "velocity": 0.3858267716535433,
                    "duration": 0.05226475000000619
                },
                {
                    "name": "C3",
                    "midi": 48,
                    "time": 267.8045790000029,
                    "velocity": 0.4330708661417323,
                    "duration": 0.10452950000001238
                },
                {
                    "name": "E3",
                    "midi": 52,
                    "time": 267.8045790000029,
                    "velocity": 0.4330708661417323,
                    "duration": 0.10452950000001238
                },
                {
                    "name": "G3",
                    "midi": 55,
                    "time": 267.8045790000029,
                    "velocity": 0.5196850393700787,
                    "duration": 0.10452950000001238
                },
                {
                    "name": "A#1",
                    "midi": 34,
                    "time": 268.0136380000029,
                    "velocity": 0.4330708661417323,
                    "duration": 0.6271770000000174
                },
                {
                    "name": "C#2",
                    "midi": 37,
                    "time": 268.0136380000029,
                    "velocity": 0.4330708661417323,
                    "duration": 0.6271770000000174
                },
                {
                    "name": "G1",
                    "midi": 31,
                    "time": 268.0136380000029,
                    "velocity": 0.4330708661417323,
                    "duration": 0.6271770000000174
                },
                {
                    "name": "G2",
                    "midi": 43,
                    "time": 268.0136380000029,
                    "velocity": 0.5118110236220472,
                    "duration": 0.6271770000000174
                },
                {
                    "name": "C#4",
                    "midi": 61,
                    "time": 268.64081500000293,
                    "velocity": 0.5275590551181102,
                    "duration": 0.10452950000001238
                },
                {
                    "name": "F3",
                    "midi": 53,
                    "time": 268.64081500000293,
                    "velocity": 0.4409448818897638,
                    "duration": 0.10452950000001238
                },
                {
                    "name": "A#3",
                    "midi": 58,
                    "time": 268.64081500000293,
                    "velocity": 0.4409448818897638,
                    "duration": 0.10452950000001238
                },
                {
                    "name": "C#3",
                    "midi": 49,
                    "time": 268.95440350000297,
                    "velocity": 0.3858267716535433,
                    "duration": 0.05226475000000619
                },
                {
                    "name": "A#3",
                    "midi": 58,
                    "time": 268.95440350000297,
                    "velocity": 0.4566929133858268,
                    "duration": 0.05226475000000619
                },
                {
                    "name": "F3",
                    "midi": 53,
                    "time": 268.95440350000297,
                    "velocity": 0.3858267716535433,
                    "duration": 0.05226475000000619
                },
                {
                    "name": "C#3",
                    "midi": 49,
                    "time": 269.058933000003,
                    "velocity": 0.4330708661417323,
                    "duration": 0.10452950000001238
                },
                {
                    "name": "F3",
                    "midi": 53,
                    "time": 269.058933000003,
                    "velocity": 0.4330708661417323,
                    "duration": 0.10452950000001238
                },
                {
                    "name": "A#3",
                    "midi": 58,
                    "time": 269.058933000003,
                    "velocity": 0.5196850393700787,
                    "duration": 0.10452950000001238
                },
                {
                    "name": "E1",
                    "midi": 28,
                    "time": 269.267992000003,
                    "velocity": 0.4330708661417323,
                    "duration": 0.6271770000000174
                },
                {
                    "name": "G1",
                    "midi": 31,
                    "time": 269.267992000003,
                    "velocity": 0.4330708661417323,
                    "duration": 0.6271770000000174
                },
                {
                    "name": "C1",
                    "midi": 24,
                    "time": 269.267992000003,
                    "velocity": 0.4330708661417323,
                    "duration": 0.6271770000000174
                },
                {
                    "name": "C2",
                    "midi": 36,
                    "time": 269.267992000003,
                    "velocity": 0.5118110236220472,
                    "duration": 0.6271770000000174
                },
                {
                    "name": "C4",
                    "midi": 60,
                    "time": 269.895169000003,
                    "velocity": 0.5275590551181102,
                    "duration": 0.10452950000001238
                },
                {
                    "name": "E3",
                    "midi": 52,
                    "time": 269.895169000003,
                    "velocity": 0.4409448818897638,
                    "duration": 0.10452950000001238
                },
                {
                    "name": "G3",
                    "midi": 55,
                    "time": 269.895169000003,
                    "velocity": 0.4409448818897638,
                    "duration": 0.10452950000001238
                },
                {
                    "name": "C3",
                    "midi": 48,
                    "time": 270.20875750000306,
                    "velocity": 0.3858267716535433,
                    "duration": 0.05226475000000619
                },
                {
                    "name": "G3",
                    "midi": 55,
                    "time": 270.20875750000306,
                    "velocity": 0.4566929133858268,
                    "duration": 0.05226475000000619
                },
                {
                    "name": "E3",
                    "midi": 52,
                    "time": 270.20875750000306,
                    "velocity": 0.3858267716535433,
                    "duration": 0.05226475000000619
                },
                {
                    "name": "C3",
                    "midi": 48,
                    "time": 270.3132870000031,
                    "velocity": 0.4330708661417323,
                    "duration": 0.10452950000001238
                },
                {
                    "name": "E3",
                    "midi": 52,
                    "time": 270.3132870000031,
                    "velocity": 0.4330708661417323,
                    "duration": 0.10452950000001238
                },
                {
                    "name": "G3",
                    "midi": 55,
                    "time": 270.3132870000031,
                    "velocity": 0.5196850393700787,
                    "duration": 0.10452950000001238
                },
                {
                    "name": "G#1",
                    "midi": 32,
                    "time": 270.5223460000031,
                    "velocity": 0.4330708661417323,
                    "duration": 0.6271770000000174
                },
                {
                    "name": "B1",
                    "midi": 35,
                    "time": 270.5223460000031,
                    "velocity": 0.4330708661417323,
                    "duration": 0.6271770000000174
                },
                {
                    "name": "D2",
                    "midi": 38,
                    "time": 270.5223460000031,
                    "velocity": 0.4330708661417323,
                    "duration": 0.6271770000000174
                },
                {
                    "name": "F1",
                    "midi": 29,
                    "time": 270.5223460000031,
                    "velocity": 0.4330708661417323,
                    "duration": 0.6271770000000174
                },
                {
                    "name": "F2",
                    "midi": 41,
                    "time": 270.5223460000031,
                    "velocity": 0.5118110236220472,
                    "duration": 0.6271770000000174
                },
                {
                    "name": "G#4",
                    "midi": 68,
                    "time": 271.1495230000031,
                    "velocity": 0.5275590551181102,
                    "duration": 0.10452950000001238
                },
                {
                    "name": "B3",
                    "midi": 59,
                    "time": 271.1495230000031,
                    "velocity": 0.4409448818897638,
                    "duration": 0.10452950000001238
                },
                {
                    "name": "D4",
                    "midi": 62,
                    "time": 271.1495230000031,
                    "velocity": 0.4409448818897638,
                    "duration": 0.10452950000001238
                },
                {
                    "name": "G#3",
                    "midi": 56,
                    "time": 271.46311150000315,
                    "velocity": 0.3858267716535433,
                    "duration": 0.05226475000000619
                },
                {
                    "name": "F4",
                    "midi": 65,
                    "time": 271.46311150000315,
                    "velocity": 0.4566929133858268,
                    "duration": 0.05226475000000619
                },
                {
                    "name": "B3",
                    "midi": 59,
                    "time": 271.46311150000315,
                    "velocity": 0.3858267716535433,
                    "duration": 0.05226475000000619
                },
                {
                    "name": "G#3",
                    "midi": 56,
                    "time": 271.56764100000316,
                    "velocity": 0.4330708661417323,
                    "duration": 0.10452950000001238
                },
                {
                    "name": "B3",
                    "midi": 59,
                    "time": 271.56764100000316,
                    "velocity": 0.4330708661417323,
                    "duration": 0.10452950000001238
                },
                {
                    "name": "F4",
                    "midi": 65,
                    "time": 271.56764100000316,
                    "velocity": 0.5196850393700787,
                    "duration": 0.10452950000001238
                },
                {
                    "name": "E2",
                    "midi": 40,
                    "time": 271.7767000000032,
                    "velocity": 0.4330708661417323,
                    "duration": 0.41811799999999266
                },
                {
                    "name": "G2",
                    "midi": 43,
                    "time": 271.7767000000032,
                    "velocity": 0.4330708661417323,
                    "duration": 0.41811799999999266
                },
                {
                    "name": "C2",
                    "midi": 36,
                    "time": 271.7767000000032,
                    "velocity": 0.4330708661417323,
                    "duration": 0.41811799999999266
                },
                {
                    "name": "C3",
                    "midi": 48,
                    "time": 271.7767000000032,
                    "velocity": 0.5118110236220472,
                    "duration": 0.41811799999999266
                },
                {
                    "name": "G3",
                    "midi": 55,
                    "time": 272.1948180000032,
                    "velocity": 0.4330708661417323,
                    "duration": 0.10452950000001238
                },
                {
                    "name": "C4",
                    "midi": 60,
                    "time": 272.1948180000032,
                    "velocity": 0.5196850393700787,
                    "duration": 0.10452950000001238
                },
                {
                    "name": "G1",
                    "midi": 31,
                    "time": 272.4038770000032,
                    "velocity": 0.4330708661417323,
                    "duration": 0.41811799999999266
                },
                {
                    "name": "A#1",
                    "midi": 34,
                    "time": 272.4038770000032,
                    "velocity": 0.4330708661417323,
                    "duration": 0.41811799999999266
                },
                {
                    "name": "C#2",
                    "midi": 37,
                    "time": 272.4038770000032,
                    "velocity": 0.4330708661417323,
                    "duration": 0.41811799999999266
                },
                {
                    "name": "G2",
                    "midi": 43,
                    "time": 272.4038770000032,
                    "velocity": 0.5118110236220472,
                    "duration": 0.41811799999999266
                },
                {
                    "name": "F3",
                    "midi": 53,
                    "time": 272.8219950000032,
                    "velocity": 0.4330708661417323,
                    "duration": 0.10452950000001238
                },
                {
                    "name": "A#3",
                    "midi": 58,
                    "time": 272.8219950000032,
                    "velocity": 0.4330708661417323,
                    "duration": 0.10452950000001238
                },
                {
                    "name": "C#4",
                    "midi": 61,
                    "time": 272.8219950000032,
                    "velocity": 0.5196850393700787,
                    "duration": 0.10452950000001238
                },
                {
                    "name": "E2",
                    "midi": 40,
                    "time": 273.0310540000032,
                    "velocity": 0.4330708661417323,
                    "duration": 0.41811799999999266
                },
                {
                    "name": "G2",
                    "midi": 43,
                    "time": 273.0310540000032,
                    "velocity": 0.4330708661417323,
                    "duration": 0.41811799999999266
                },
                {
                    "name": "C2",
                    "midi": 36,
                    "time": 273.0310540000032,
                    "velocity": 0.4330708661417323,
                    "duration": 0.41811799999999266
                },
                {
                    "name": "C3",
                    "midi": 48,
                    "time": 273.0310540000032,
                    "velocity": 0.5118110236220472,
                    "duration": 0.41811799999999266
                },
                {
                    "name": "G3",
                    "midi": 55,
                    "time": 273.4491720000032,
                    "velocity": 0.4330708661417323,
                    "duration": 0.10452950000001238
                },
                {
                    "name": "C4",
                    "midi": 60,
                    "time": 273.4491720000032,
                    "velocity": 0.5196850393700787,
                    "duration": 0.10452950000001238
                },
                {
                    "name": "B1",
                    "midi": 35,
                    "time": 273.65823100000324,
                    "velocity": 0.4330708661417323,
                    "duration": 0.41811799999999266
                },
                {
                    "name": "F1",
                    "midi": 29,
                    "time": 273.65823100000324,
                    "velocity": 0.4330708661417323,
                    "duration": 0.41811799999999266
                },
                {
                    "name": "G#1",
                    "midi": 32,
                    "time": 273.65823100000324,
                    "velocity": 0.4330708661417323,
                    "duration": 0.41811799999999266
                },
                {
                    "name": "D2",
                    "midi": 38,
                    "time": 273.65823100000324,
                    "velocity": 0.4330708661417323,
                    "duration": 0.41811799999999266
                },
                {
                    "name": "F2",
                    "midi": 41,
                    "time": 273.65823100000324,
                    "velocity": 0.5118110236220472,
                    "duration": 0.41811799999999266
                },
                {
                    "name": "G#3",
                    "midi": 56,
                    "time": 274.07634900000323,
                    "velocity": 0.4330708661417323,
                    "duration": 0.10452950000001238
                },
                {
                    "name": "B3",
                    "midi": 59,
                    "time": 274.07634900000323,
                    "velocity": 0.4330708661417323,
                    "duration": 0.10452950000001238
                },
                {
                    "name": "D4",
                    "midi": 62,
                    "time": 274.07634900000323,
                    "velocity": 0.4330708661417323,
                    "duration": 0.10452950000001238
                },
                {
                    "name": "F4",
                    "midi": 65,
                    "time": 274.07634900000323,
                    "velocity": 0.5196850393700787,
                    "duration": 0.10452950000001238
                },
                {
                    "name": "C2",
                    "midi": 36,
                    "time": 274.28540800000326,
                    "velocity": 0.4015748031496063,
                    "duration": 0.10452950000001238
                },
                {
                    "name": "C3",
                    "midi": 48,
                    "time": 274.28540800000326,
                    "velocity": 0.48031496062992124,
                    "duration": 0.10452950000001238
                },
                {
                    "name": "G1",
                    "midi": 31,
                    "time": 274.4944670000033,
                    "velocity": 0.3543307086614173,
                    "duration": 0.10452950000001238
                },
                {
                    "name": "G2",
                    "midi": 43,
                    "time": 274.4944670000033,
                    "velocity": 0.41732283464566927,
                    "duration": 0.10452950000001238
                },
                {
                    "name": "C2",
                    "midi": 36,
                    "time": 274.7035260000033,
                    "velocity": 0.4015748031496063,
                    "duration": 0.10452950000001238
                },
                {
                    "name": "C3",
                    "midi": 48,
                    "time": 274.7035260000033,
                    "velocity": 0.48031496062992124,
                    "duration": 0.10452950000001238
                },
                {
                    "name": "G1",
                    "midi": 31,
                    "time": 274.91258500000333,
                    "velocity": 0.3464566929133858,
                    "duration": 0.10452950000001238
                },
                {
                    "name": "G2",
                    "midi": 43,
                    "time": 274.91258500000333,
                    "velocity": 0.4094488188976378,
                    "duration": 0.10452950000001238
                },
                {
                    "name": "C2",
                    "midi": 36,
                    "time": 275.12164400000336,
                    "velocity": 0.4015748031496063,
                    "duration": 0.10452950000001238
                },
                {
                    "name": "C3",
                    "midi": 48,
                    "time": 275.12164400000336,
                    "velocity": 0.48031496062992124,
                    "duration": 0.10452950000001238
                },
                {
                    "name": "F1",
                    "midi": 29,
                    "time": 275.3307030000034,
                    "velocity": 0.33858267716535434,
                    "duration": 0.10452950000001238
                },
                {
                    "name": "F2",
                    "midi": 41,
                    "time": 275.3307030000034,
                    "velocity": 0.4015748031496063,
                    "duration": 0.10452950000001238
                },
                {
                    "name": "C2",
                    "midi": 36,
                    "time": 275.5397620000034,
                    "velocity": 0.4015748031496063,
                    "duration": 0.10452950000001238
                },
                {
                    "name": "C3",
                    "midi": 48,
                    "time": 275.5397620000034,
                    "velocity": 0.48031496062992124,
                    "duration": 0.10452950000001238
                },
                {
                    "name": "G1",
                    "midi": 31,
                    "time": 275.74882100000343,
                    "velocity": 0.3543307086614173,
                    "duration": 0.10452950000001238
                },
                {
                    "name": "G2",
                    "midi": 43,
                    "time": 275.74882100000343,
                    "velocity": 0.41732283464566927,
                    "duration": 0.10452950000001238
                },
                {
                    "name": "C2",
                    "midi": 36,
                    "time": 275.95788000000346,
                    "velocity": 0.4015748031496063,
                    "duration": 0.10452950000001238
                },
                {
                    "name": "C3",
                    "midi": 48,
                    "time": 275.95788000000346,
                    "velocity": 0.48031496062992124,
                    "duration": 0.10452950000001238
                },
                {
                    "name": "G1",
                    "midi": 31,
                    "time": 276.1669390000035,
                    "velocity": 0.3464566929133858,
                    "duration": 0.10452950000001238
                },
                {
                    "name": "G2",
                    "midi": 43,
                    "time": 276.1669390000035,
                    "velocity": 0.4094488188976378,
                    "duration": 0.10452950000001238
                },
                {
                    "name": "C2",
                    "midi": 36,
                    "time": 276.3759980000035,
                    "velocity": 0.4015748031496063,
                    "duration": 0.10452950000001238
                },
                {
                    "name": "C3",
                    "midi": 48,
                    "time": 276.3759980000035,
                    "velocity": 0.48031496062992124,
                    "duration": 0.10452950000001238
                },
                {
                    "name": "F1",
                    "midi": 29,
                    "time": 276.58505700000353,
                    "velocity": 0.33858267716535434,
                    "duration": 0.10452950000001238
                },
                {
                    "name": "F2",
                    "midi": 41,
                    "time": 276.58505700000353,
                    "velocity": 0.4015748031496063,
                    "duration": 0.10452950000001238
                },
                {
                    "name": "C2",
                    "midi": 36,
                    "time": 276.79411600000356,
                    "velocity": 0.4015748031496063,
                    "duration": 0.10452950000001238
                },
                {
                    "name": "C3",
                    "midi": 48,
                    "time": 276.79411600000356,
                    "velocity": 0.48031496062992124,
                    "duration": 0.10452950000001238
                },
                {
                    "name": "G1",
                    "midi": 31,
                    "time": 277.0031750000036,
                    "velocity": 0.3543307086614173,
                    "duration": 0.10452950000001238
                },
                {
                    "name": "G2",
                    "midi": 43,
                    "time": 277.0031750000036,
                    "velocity": 0.4251968503937008,
                    "duration": 0.10452950000001238
                },
                {
                    "name": "C2",
                    "midi": 36,
                    "time": 277.2122340000036,
                    "velocity": 0.4251968503937008,
                    "duration": 0.10452950000001238
                },
                {
                    "name": "C3",
                    "midi": 48,
                    "time": 277.2122340000036,
                    "velocity": 0.49606299212598426,
                    "duration": 0.10452950000001238
                },
                {
                    "name": "G1",
                    "midi": 31,
                    "time": 277.42129300000363,
                    "velocity": 0.3700787401574803,
                    "duration": 0.10452950000001238
                },
                {
                    "name": "G2",
                    "midi": 43,
                    "time": 277.42129300000363,
                    "velocity": 0.4409448818897638,
                    "duration": 0.10452950000001238
                },
                {
                    "name": "C2",
                    "midi": 36,
                    "time": 277.63035200000365,
                    "velocity": 0.4409448818897638,
                    "duration": 0.10452950000001238
                },
                {
                    "name": "C3",
                    "midi": 48,
                    "time": 277.63035200000365,
                    "velocity": 0.5275590551181102,
                    "duration": 0.10452950000001238
                },
                {
                    "name": "F1",
                    "midi": 29,
                    "time": 277.8394110000037,
                    "velocity": 0.3779527559055118,
                    "duration": 0.10452950000001238
                },
                {
                    "name": "F2",
                    "midi": 41,
                    "time": 277.8394110000037,
                    "velocity": 0.4566929133858268,
                    "duration": 0.10452950000001238
                },
                {
                    "name": "C2",
                    "midi": 36,
                    "time": 278.0484700000037,
                    "velocity": 0.47244094488188976,
                    "duration": 0.10452950000001238
                },
                {
                    "name": "C3",
                    "midi": 48,
                    "time": 278.0484700000037,
                    "velocity": 0.5590551181102362,
                    "duration": 0.10452950000001238
                },
                {
                    "name": "G1",
                    "midi": 31,
                    "time": 278.25752900000373,
                    "velocity": 0.41732283464566927,
                    "duration": 0.10452950000001238
                },
                {
                    "name": "G2",
                    "midi": 43,
                    "time": 278.25752900000373,
                    "velocity": 0.49606299212598426,
                    "duration": 0.10452950000001238
                },
                {
                    "name": "C2",
                    "midi": 36,
                    "time": 278.46658800000375,
                    "velocity": 0.49606299212598426,
                    "duration": 0.10452950000001238
                },
                {
                    "name": "C3",
                    "midi": 48,
                    "time": 278.46658800000375,
                    "velocity": 0.5826771653543307,
                    "duration": 0.10452950000001238
                },
                {
                    "name": "G1",
                    "midi": 31,
                    "time": 278.6756470000038,
                    "velocity": 0.4251968503937008,
                    "duration": 0.10452950000001238
                },
                {
                    "name": "G2",
                    "midi": 43,
                    "time": 278.6756470000038,
                    "velocity": 0.5118110236220472,
                    "duration": 0.10452950000001238
                },
                {
                    "name": "C2",
                    "midi": 36,
                    "time": 278.8847060000038,
                    "velocity": 0.5118110236220472,
                    "duration": 0.10452950000001238
                },
                {
                    "name": "C3",
                    "midi": 48,
                    "time": 278.8847060000038,
                    "velocity": 0.6062992125984252,
                    "duration": 0.10452950000001238
                },
                {
                    "name": "B1",
                    "midi": 35,
                    "time": 279.0937650000038,
                    "velocity": 0.4330708661417323,
                    "duration": 0.10452950000001238
                },
                {
                    "name": "D2",
                    "midi": 38,
                    "time": 279.0937650000038,
                    "velocity": 0.5196850393700787,
                    "duration": 0.10452950000001238
                },
                {
                    "name": "F1",
                    "midi": 29,
                    "time": 279.0937650000038,
                    "velocity": 0.4330708661417323,
                    "duration": 0.10452950000001238
                },
                {
                    "name": "F2",
                    "midi": 41,
                    "time": 279.0937650000038,
                    "velocity": 0.6299212598425197,
                    "duration": 0.10452950000001238
                },
                {
                    "name": "F1",
                    "midi": 29,
                    "time": 279.72094200000384,
                    "velocity": 0.4330708661417323,
                    "duration": 0.10452950000001238
                },
                {
                    "name": "B1",
                    "midi": 35,
                    "time": 279.72094200000384,
                    "velocity": 0.4330708661417323,
                    "duration": 0.10452950000001238
                },
                {
                    "name": "D2",
                    "midi": 38,
                    "time": 279.72094200000384,
                    "velocity": 0.5196850393700787,
                    "duration": 0.10452950000001238
                },
                {
                    "name": "F2",
                    "midi": 41,
                    "time": 279.72094200000384,
                    "velocity": 0.6299212598425197,
                    "duration": 0.10452950000001238
                },
                {
                    "name": "F1",
                    "midi": 29,
                    "time": 280.34811900000386,
                    "velocity": 0.4330708661417323,
                    "duration": 0.10452950000001238
                },
                {
                    "name": "B1",
                    "midi": 35,
                    "time": 280.34811900000386,
                    "velocity": 0.4330708661417323,
                    "duration": 0.10452950000001238
                },
                {
                    "name": "D2",
                    "midi": 38,
                    "time": 280.34811900000386,
                    "velocity": 0.5196850393700787,
                    "duration": 0.10452950000001238
                },
                {
                    "name": "F2",
                    "midi": 41,
                    "time": 280.34811900000386,
                    "velocity": 0.6299212598425197,
                    "duration": 0.10452950000001238
                },
                {
                    "name": "F1",
                    "midi": 29,
                    "time": 280.5571780000039,
                    "velocity": 0.48031496062992124,
                    "duration": 0.10452950000001238
                },
                {
                    "name": "B1",
                    "midi": 35,
                    "time": 280.5571780000039,
                    "velocity": 0.48031496062992124,
                    "duration": 0.10452950000001238
                },
                {
                    "name": "D2",
                    "midi": 38,
                    "time": 280.5571780000039,
                    "velocity": 0.5669291338582677,
                    "duration": 0.10452950000001238
                },
                {
                    "name": "F2",
                    "midi": 41,
                    "time": 280.5571780000039,
                    "velocity": 0.6850393700787402,
                    "duration": 0.10452950000001238
                },
                {
                    "name": "F1",
                    "midi": 29,
                    "time": 280.7662370000039,
                    "velocity": 0.4330708661417323,
                    "duration": 0.10452950000001238
                },
                {
                    "name": "B1",
                    "midi": 35,
                    "time": 280.7662370000039,
                    "velocity": 0.4330708661417323,
                    "duration": 0.10452950000001238
                },
                {
                    "name": "D2",
                    "midi": 38,
                    "time": 280.7662370000039,
                    "velocity": 0.5196850393700787,
                    "duration": 0.10452950000001238
                },
                {
                    "name": "F2",
                    "midi": 41,
                    "time": 280.7662370000039,
                    "velocity": 0.6299212598425197,
                    "duration": 0.10452950000001238
                },
                {
                    "name": "G#1",
                    "midi": 32,
                    "time": 281.39341400000393,
                    "velocity": 0.6377952755905512,
                    "duration": 0.07839712499998086
                },
                {
                    "name": "G1",
                    "midi": 31,
                    "time": 281.4979435000039,
                    "velocity": 0.6535433070866141,
                    "duration": 0.07839712499998086
                },
                {
                    "name": "F#1",
                    "midi": 30,
                    "time": 281.60247300000384,
                    "velocity": 0.6692913385826772,
                    "duration": 0.07839712499998086
                },
                {
                    "name": "F1",
                    "midi": 29,
                    "time": 281.7070025000038,
                    "velocity": 0.6850393700787402,
                    "duration": 0.07839712499998086
                },
                {
                    "name": "C1",
                    "midi": 24,
                    "time": 281.81153200000375,
                    "velocity": 0.49606299212598426,
                    "duration": 1.254353999999978
                },
                {
                    "name": "E1",
                    "midi": 28,
                    "time": 281.81153200000375,
                    "velocity": 0.49606299212598426,
                    "duration": 1.254353999999978
                },
                {
                    "name": "G1",
                    "midi": 31,
                    "time": 281.81153200000375,
                    "velocity": 0.5905511811023622,
                    "duration": 1.254353999999978
                },
                {
                    "name": "C2",
                    "midi": 36,
                    "time": 281.81153200000375,
                    "velocity": 0.7086614173228346,
                    "duration": 1.254353999999978
                }
            ],
            "controlChanges": {
                "91": [
                    {
                        "number": 91,
                        "time": 0,
                        "value": 1
                    },
                    {
                        "number": 91,
                        "time": 3.763061999999999,
                        "value": 1
                    },
                    {
                        "number": 91,
                        "time": 38.46685600000008,
                        "value": 1
                    },
                    {
                        "number": 91,
                        "time": 42.22991800000004,
                        "value": 1
                    }
                ]
            },
            "id": 2,
            "name": "Piano left",
            "instrumentNumber": 0,
            "instrument": "acoustic grand piano",
            "instrumentFamily": "piano",
            "channelNumber": 0,
            "isPercussion": false
        },
        {
            "startTime": 0,
            "duration": 0,
            "length": 0,
            "notes": [],
            "controlChanges": {
                "64": [
                    {
                        "number": 64,
                        "time": 0.037456404166666665,
                        "value": 1
                    },
                    {
                        "number": 64,
                        "time": 0.2160276333333333,
                        "value": 0
                    },
                    {
                        "number": 64,
                        "time": 0.2709056208333333,
                        "value": 1
                    },
                    {
                        "number": 64,
                        "time": 0.42682879166666665,
                        "value": 0
                    },
                    {
                        "number": 64,
                        "time": 0.4799646208333333,
                        "value": 1
                    },
                    {
                        "number": 64,
                        "time": 0.6358877916666666,
                        "value": 0
                    },
                    {
                        "number": 64,
                        "time": 0.6829260666666667,
                        "value": 1
                    },
                    {
                        "number": 64,
                        "time": 0.8440757125,
                        "value": 0
                    },
                    {
                        "number": 64,
                        "time": 0.8919850666666667,
                        "value": 1
                    },
                    {
                        "number": 64,
                        "time": 1.0531347125,
                        "value": 0
                    },
                    {
                        "number": 64,
                        "time": 1.1315318374999999,
                        "value": 1
                    },
                    {
                        "number": 64,
                        "time": 1.2648069499999999,
                        "value": 0
                    },
                    {
                        "number": 64,
                        "time": 1.3466883916666665,
                        "value": 1
                    },
                    {
                        "number": 64,
                        "time": 1.8815309999999998,
                        "value": 0
                    },
                    {
                        "number": 64,
                        "time": 2.1951194999999997,
                        "value": 1
                    },
                    {
                        "number": 64,
                        "time": 2.398080945833333,
                        "value": 0
                    },
                    {
                        "number": 64,
                        "time": 2.743028295833333,
                        "value": 1
                    },
                    {
                        "number": 64,
                        "time": 3.0513903208333333,
                        "value": 0
                    },
                    {
                        "number": 64,
                        "time": 3.8005184041666666,
                        "value": 1
                    },
                    {
                        "number": 64,
                        "time": 3.9790896333333334,
                        "value": 0
                    },
                    {
                        "number": 64,
                        "time": 4.033967620833334,
                        "value": 1
                    },
                    {
                        "number": 64,
                        "time": 4.1898907916666674,
                        "value": 0
                    },
                    {
                        "number": 64,
                        "time": 4.2430266208333345,
                        "value": 1
                    },
                    {
                        "number": 64,
                        "time": 4.398949791666668,
                        "value": 0
                    },
                    {
                        "number": 64,
                        "time": 4.4459880666666685,
                        "value": 1
                    },
                    {
                        "number": 64,
                        "time": 4.607137712500002,
                        "value": 0
                    },
                    {
                        "number": 64,
                        "time": 4.655047066666668,
                        "value": 1
                    },
                    {
                        "number": 64,
                        "time": 4.816196712500002,
                        "value": 0
                    },
                    {
                        "number": 64,
                        "time": 4.894593837500002,
                        "value": 1
                    },
                    {
                        "number": 64,
                        "time": 5.027868950000002,
                        "value": 0
                    },
                    {
                        "number": 64,
                        "time": 5.109750391666669,
                        "value": 1
                    },
                    {
                        "number": 64,
                        "time": 5.644593000000002,
                        "value": 0
                    },
                    {
                        "number": 64,
                        "time": 5.958181500000002,
                        "value": 1
                    },
                    {
                        "number": 64,
                        "time": 6.161142945833335,
                        "value": 0
                    },
                    {
                        "number": 64,
                        "time": 6.506090295833335,
                        "value": 1
                    },
                    {
                        "number": 64,
                        "time": 6.814452320833335,
                        "value": 0
                    },
                    {
                        "number": 64,
                        "time": 7.968632216666668,
                        "value": 1
                    },
                    {
                        "number": 64,
                        "time": 8.158527475000001,
                        "value": 0
                    },
                    {
                        "number": 64,
                        "time": 8.181175533333334,
                        "value": 1
                    },
                    {
                        "number": 64,
                        "time": 8.303997695833335,
                        "value": 0
                    },
                    {
                        "number": 64,
                        "time": 8.808352533333334,
                        "value": 0
                    },
                    {
                        "number": 64,
                        "time": 9.026993404166667,
                        "value": 1
                    },
                    {
                        "number": 64,
                        "time": 9.209048950000001,
                        "value": 0
                    },
                    {
                        "number": 64,
                        "time": 9.242149958333334,
                        "value": 1
                    },
                    {
                        "number": 64,
                        "time": 9.358874566666668,
                        "value": 0
                    },
                    {
                        "number": 64,
                        "time": 9.853647533333334,
                        "value": 0
                    },
                    {
                        "number": 64,
                        "time": 10.059222216666667,
                        "value": 1
                    },
                    {
                        "number": 64,
                        "time": 10.249117475,
                        "value": 0
                    },
                    {
                        "number": 64,
                        "time": 10.271765533333333,
                        "value": 1
                    },
                    {
                        "number": 64,
                        "time": 10.360615608333333,
                        "value": 0
                    },
                    {
                        "number": 64,
                        "time": 10.898942533333333,
                        "value": 0
                    },
                    {
                        "number": 64,
                        "time": 11.117583404166666,
                        "value": 1
                    },
                    {
                        "number": 64,
                        "time": 11.29963895,
                        "value": 0
                    },
                    {
                        "number": 64,
                        "time": 11.332739958333333,
                        "value": 1
                    },
                    {
                        "number": 64,
                        "time": 11.405910608333333,
                        "value": 0
                    },
                    {
                        "number": 64,
                        "time": 11.944237533333332,
                        "value": 0
                    },
                    {
                        "number": 64,
                        "time": 12.162878404166666,
                        "value": 1
                    },
                    {
                        "number": 64,
                        "time": 12.34493395,
                        "value": 0
                    },
                    {
                        "number": 64,
                        "time": 12.378034958333332,
                        "value": 1
                    },
                    {
                        "number": 64,
                        "time": 12.466885033333332,
                        "value": 0
                    },
                    {
                        "number": 64,
                        "time": 12.543539999999998,
                        "value": 1
                    },
                    {
                        "number": 64,
                        "time": 12.638487629166665,
                        "value": 0
                    },
                    {
                        "number": 64,
                        "time": 12.790055404166665,
                        "value": 1
                    },
                    {
                        "number": 64,
                        "time": 12.97211095,
                        "value": 0
                    },
                    {
                        "number": 64,
                        "time": 13.013922749999999,
                        "value": 1
                    },
                    {
                        "number": 64,
                        "time": 13.175072395833332,
                        "value": 0
                    },
                    {
                        "number": 64,
                        "time": 13.208173404166665,
                        "value": 1
                    },
                    {
                        "number": 64,
                        "time": 13.39022895,
                        "value": 0
                    },
                    {
                        "number": 64,
                        "time": 13.422458879166665,
                        "value": 1
                    },
                    {
                        "number": 64,
                        "time": 13.597545791666665,
                        "value": 0
                    },
                    {
                        "number": 64,
                        "time": 13.626291404166665,
                        "value": 1
                    },
                    {
                        "number": 64,
                        "time": 13.808346949999999,
                        "value": 0
                    },
                    {
                        "number": 64,
                        "time": 13.871935729166665,
                        "value": 1
                    },
                    {
                        "number": 64,
                        "time": 13.977336308333332,
                        "value": 0
                    },
                    {
                        "number": 64,
                        "time": 14.141970270833331,
                        "value": 1
                    },
                    {
                        "number": 64,
                        "time": 14.28569833333333,
                        "value": 0
                    },
                    {
                        "number": 64,
                        "time": 14.45033229583333,
                        "value": 1
                    },
                    {
                        "number": 64,
                        "time": 14.958171449999998,
                        "value": 0
                    },
                    {
                        "number": 64,
                        "time": 15.286568295833332,
                        "value": 1
                    },
                    {
                        "number": 64,
                        "time": 15.594930320833331,
                        "value": 0
                    },
                    {
                        "number": 64,
                        "time": 16.31705495,
                        "value": 0
                    },
                    {
                        "number": 64,
                        "time": 16.380643729166668,
                        "value": 1
                    },
                    {
                        "number": 64,
                        "time": 16.486044308333334,
                        "value": 0
                    },
                    {
                        "number": 64,
                        "time": 16.650678270833335,
                        "value": 1
                    },
                    {
                        "number": 64,
                        "time": 16.794406333333335,
                        "value": 0
                    },
                    {
                        "number": 64,
                        "time": 16.959040295833336,
                        "value": 1
                    },
                    {
                        "number": 64,
                        "time": 17.090573250000002,
                        "value": 0
                    },
                    {
                        "number": 64,
                        "time": 17.299632250000002,
                        "value": 1
                    },
                    {
                        "number": 64,
                        "time": 17.46687945,
                        "value": 0
                    },
                    {
                        "number": 64,
                        "time": 17.776983633333334,
                        "value": 0
                    },
                    {
                        "number": 64,
                        "time": 17.831861620833333,
                        "value": 1
                    },
                    {
                        "number": 64,
                        "time": 17.987784791666666,
                        "value": 0
                    },
                    {
                        "number": 64,
                        "time": 18.040920620833333,
                        "value": 1
                    },
                    {
                        "number": 64,
                        "time": 18.196843791666666,
                        "value": 0
                    },
                    {
                        "number": 64,
                        "time": 18.243882066666664,
                        "value": 1
                    },
                    {
                        "number": 64,
                        "time": 18.405031712499998,
                        "value": 0
                    },
                    {
                        "number": 64,
                        "time": 18.452941066666664,
                        "value": 1
                    },
                    {
                        "number": 64,
                        "time": 18.614090712499998,
                        "value": 0
                    },
                    {
                        "number": 64,
                        "time": 18.692487837499996,
                        "value": 1
                    },
                    {
                        "number": 64,
                        "time": 18.825762949999998,
                        "value": 0
                    },
                    {
                        "number": 64,
                        "time": 18.907644391666665,
                        "value": 1
                    },
                    {
                        "number": 64,
                        "time": 19.442487,
                        "value": 0
                    },
                    {
                        "number": 64,
                        "time": 19.7560755,
                        "value": 1
                    },
                    {
                        "number": 64,
                        "time": 19.959036945833336,
                        "value": 0
                    },
                    {
                        "number": 64,
                        "time": 20.71339150416667,
                        "value": 1
                    },
                    {
                        "number": 64,
                        "time": 20.7726248875,
                        "value": 0
                    },
                    {
                        "number": 64,
                        "time": 20.912868633333336,
                        "value": 0
                    },
                    {
                        "number": 64,
                        "time": 20.967746620833335,
                        "value": 1
                    },
                    {
                        "number": 64,
                        "time": 21.123669791666668,
                        "value": 0
                    },
                    {
                        "number": 64,
                        "time": 21.176805620833335,
                        "value": 1
                    },
                    {
                        "number": 64,
                        "time": 21.332728791666668,
                        "value": 0
                    },
                    {
                        "number": 64,
                        "time": 21.379767066666666,
                        "value": 1
                    },
                    {
                        "number": 64,
                        "time": 21.5409167125,
                        "value": 0
                    },
                    {
                        "number": 64,
                        "time": 21.588826066666666,
                        "value": 1
                    },
                    {
                        "number": 64,
                        "time": 21.7499757125,
                        "value": 0
                    },
                    {
                        "number": 64,
                        "time": 21.810951254166667,
                        "value": 1
                    },
                    {
                        "number": 64,
                        "time": 21.966003345833336,
                        "value": 0
                    },
                    {
                        "number": 64,
                        "time": 22.04352939166667,
                        "value": 1
                    },
                    {
                        "number": 64,
                        "time": 22.578372,
                        "value": 0
                    },
                    {
                        "number": 64,
                        "time": 22.891960500000003,
                        "value": 1
                    },
                    {
                        "number": 64,
                        "time": 23.094921945833338,
                        "value": 0
                    },
                    {
                        "number": 64,
                        "time": 23.892830462500005,
                        "value": 1
                    },
                    {
                        "number": 64,
                        "time": 23.986907012500005,
                        "value": 0
                    },
                    {
                        "number": 64,
                        "time": 24.103631620833337,
                        "value": 1
                    },
                    {
                        "number": 64,
                        "time": 24.25955479166667,
                        "value": 0
                    },
                    {
                        "number": 64,
                        "time": 24.312690620833337,
                        "value": 1
                    },
                    {
                        "number": 64,
                        "time": 24.46861379166667,
                        "value": 0
                    },
                    {
                        "number": 64,
                        "time": 24.515652066666668,
                        "value": 1
                    },
                    {
                        "number": 64,
                        "time": 24.6768017125,
                        "value": 0
                    },
                    {
                        "number": 64,
                        "time": 24.724711066666668,
                        "value": 1
                    },
                    {
                        "number": 64,
                        "time": 24.8858607125,
                        "value": 0
                    },
                    {
                        "number": 64,
                        "time": 24.94683625416667,
                        "value": 1
                    },
                    {
                        "number": 64,
                        "time": 25.091435395833336,
                        "value": 0
                    },
                    {
                        "number": 64,
                        "time": 25.148926620833336,
                        "value": 1
                    },
                    {
                        "number": 64,
                        "time": 25.30484979166667,
                        "value": 0
                    },
                    {
                        "number": 64,
                        "time": 25.357985620833336,
                        "value": 1
                    },
                    {
                        "number": 64,
                        "time": 25.51390879166667,
                        "value": 0
                    },
                    {
                        "number": 64,
                        "time": 25.560947066666667,
                        "value": 1
                    },
                    {
                        "number": 64,
                        "time": 25.7220967125,
                        "value": 0
                    },
                    {
                        "number": 64,
                        "time": 25.770006066666667,
                        "value": 1
                    },
                    {
                        "number": 64,
                        "time": 25.9311557125,
                        "value": 0
                    },
                    {
                        "number": 64,
                        "time": 25.99213125416667,
                        "value": 1
                    },
                    {
                        "number": 64,
                        "time": 26.14282795,
                        "value": 0
                    },
                    {
                        "number": 64,
                        "time": 26.2369045,
                        "value": 1
                    },
                    {
                        "number": 64,
                        "time": 26.341434000000003,
                        "value": 0
                    },
                    {
                        "number": 64,
                        "time": 26.612339620833335,
                        "value": 1
                    },
                    {
                        "number": 64,
                        "time": 26.768262791666668,
                        "value": 0
                    },
                    {
                        "number": 64,
                        "time": 26.821398620833335,
                        "value": 1
                    },
                    {
                        "number": 64,
                        "time": 26.977321791666668,
                        "value": 0
                    },
                    {
                        "number": 64,
                        "time": 27.024360066666667,
                        "value": 1
                    },
                    {
                        "number": 64,
                        "time": 27.1855097125,
                        "value": 0
                    },
                    {
                        "number": 64,
                        "time": 27.233419066666666,
                        "value": 1
                    },
                    {
                        "number": 64,
                        "time": 27.3945687125,
                        "value": 0
                    },
                    {
                        "number": 64,
                        "time": 27.455544254166668,
                        "value": 1
                    },
                    {
                        "number": 64,
                        "time": 27.600143395833335,
                        "value": 0
                    },
                    {
                        "number": 64,
                        "time": 27.657634620833335,
                        "value": 1
                    },
                    {
                        "number": 64,
                        "time": 27.813557791666668,
                        "value": 0
                    },
                    {
                        "number": 64,
                        "time": 27.866693620833335,
                        "value": 1
                    },
                    {
                        "number": 64,
                        "time": 28.022616791666668,
                        "value": 0
                    },
                    {
                        "number": 64,
                        "time": 28.069655066666666,
                        "value": 1
                    },
                    {
                        "number": 64,
                        "time": 28.2308047125,
                        "value": 0
                    },
                    {
                        "number": 64,
                        "time": 28.278714066666666,
                        "value": 1
                    },
                    {
                        "number": 64,
                        "time": 28.4398637125,
                        "value": 0
                    },
                    {
                        "number": 64,
                        "time": 28.500839254166667,
                        "value": 1
                    },
                    {
                        "number": 64,
                        "time": 28.65153595,
                        "value": 0
                    },
                    {
                        "number": 64,
                        "time": 28.7456125,
                        "value": 1
                    },
                    {
                        "number": 64,
                        "time": 28.857110633333335,
                        "value": 0
                    },
                    {
                        "number": 64,
                        "time": 29.036552941666667,
                        "value": 1
                    },
                    {
                        "number": 64,
                        "time": 29.48777195,
                        "value": 0
                    },
                    {
                        "number": 64,
                        "time": 29.675053970833332,
                        "value": 1
                    },
                    {
                        "number": 64,
                        "time": 30.11146463333333,
                        "value": 0
                    },
                    {
                        "number": 64,
                        "time": 30.243868666666664,
                        "value": 1
                    },
                    {
                        "number": 64,
                        "time": 30.74212595,
                        "value": 0
                    },
                    {
                        "number": 64,
                        "time": 30.918083941666666,
                        "value": 1
                    },
                    {
                        "number": 64,
                        "time": 31.365818633333333,
                        "value": 0
                    },
                    {
                        "number": 64,
                        "time": 31.4633795,
                        "value": 1
                    },
                    {
                        "number": 64,
                        "time": 32.613203999999996,
                        "value": 0
                    },
                    {
                        "number": 64,
                        "time": 32.81790760416666,
                        "value": 1
                    },
                    {
                        "number": 64,
                        "time": 33.24473639583333,
                        "value": 0
                    },
                    {
                        "number": 64,
                        "time": 33.47121697916666,
                        "value": 1
                    },
                    {
                        "number": 64,
                        "time": 33.867557999999995,
                        "value": 0
                    },
                    {
                        "number": 64,
                        "time": 34.094909662499994,
                        "value": 1
                    },
                    {
                        "number": 64,
                        "time": 34.49734823749999,
                        "value": 0
                    },
                    {
                        "number": 64,
                        "time": 34.72208666249999,
                        "value": 1
                    },
                    {
                        "number": 64,
                        "time": 35.139333583333325,
                        "value": 0
                    },
                    {
                        "number": 64,
                        "time": 35.14891545416666,
                        "value": 1
                    },
                    {
                        "number": 64,
                        "time": 35.98253821666666,
                        "value": 0
                    },
                    {
                        "number": 64,
                        "time": 38.50431240416666,
                        "value": 1
                    },
                    {
                        "number": 64,
                        "time": 38.682883633333326,
                        "value": 0
                    },
                    {
                        "number": 64,
                        "time": 38.737761620833325,
                        "value": 1
                    },
                    {
                        "number": 64,
                        "time": 38.89368479166666,
                        "value": 0
                    },
                    {
                        "number": 64,
                        "time": 38.94682062083332,
                        "value": 1
                    },
                    {
                        "number": 64,
                        "time": 39.102743791666654,
                        "value": 0
                    },
                    {
                        "number": 64,
                        "time": 39.14978206666665,
                        "value": 1
                    },
                    {
                        "number": 64,
                        "time": 39.310931712499986,
                        "value": 0
                    },
                    {
                        "number": 64,
                        "time": 39.358841066666656,
                        "value": 1
                    },
                    {
                        "number": 64,
                        "time": 39.51999071249999,
                        "value": 0
                    },
                    {
                        "number": 64,
                        "time": 39.59838783749999,
                        "value": 1
                    },
                    {
                        "number": 64,
                        "time": 39.73166294999999,
                        "value": 0
                    },
                    {
                        "number": 64,
                        "time": 39.81354439166666,
                        "value": 1
                    },
                    {
                        "number": 64,
                        "time": 40.348386999999995,
                        "value": 0
                    },
                    {
                        "number": 64,
                        "time": 40.6619755,
                        "value": 1
                    },
                    {
                        "number": 64,
                        "time": 40.86493694583333,
                        "value": 0
                    },
                    {
                        "number": 64,
                        "time": 41.20988429583333,
                        "value": 1
                    },
                    {
                        "number": 64,
                        "time": 41.51824632083333,
                        "value": 0
                    },
                    {
                        "number": 64,
                        "time": 42.26737440416666,
                        "value": 1
                    },
                    {
                        "number": 64,
                        "time": 42.445945633333324,
                        "value": 0
                    },
                    {
                        "number": 64,
                        "time": 42.50082362083332,
                        "value": 1
                    },
                    {
                        "number": 64,
                        "time": 42.656746791666656,
                        "value": 0
                    },
                    {
                        "number": 64,
                        "time": 42.70988262083332,
                        "value": 1
                    },
                    {
                        "number": 64,
                        "time": 42.86580579166665,
                        "value": 0
                    },
                    {
                        "number": 64,
                        "time": 42.91284406666665,
                        "value": 1
                    },
                    {
                        "number": 64,
                        "time": 43.073993712499984,
                        "value": 0
                    },
                    {
                        "number": 64,
                        "time": 43.121903066666654,
                        "value": 1
                    },
                    {
                        "number": 64,
                        "time": 43.28305271249999,
                        "value": 0
                    },
                    {
                        "number": 64,
                        "time": 43.36144983749999,
                        "value": 1
                    },
                    {
                        "number": 64,
                        "time": 43.49472494999999,
                        "value": 0
                    },
                    {
                        "number": 64,
                        "time": 43.57660639166666,
                        "value": 1
                    },
                    {
                        "number": 64,
                        "time": 44.11144899999999,
                        "value": 0
                    },
                    {
                        "number": 64,
                        "time": 44.425037499999995,
                        "value": 1
                    },
                    {
                        "number": 64,
                        "time": 44.627998945833326,
                        "value": 0
                    },
                    {
                        "number": 64,
                        "time": 44.972946295833324,
                        "value": 1
                    },
                    {
                        "number": 64,
                        "time": 45.281308320833325,
                        "value": 0
                    },
                    {
                        "number": 64,
                        "time": 46.435488216666656,
                        "value": 1
                    },
                    {
                        "number": 64,
                        "time": 46.62538347499999,
                        "value": 0
                    },
                    {
                        "number": 64,
                        "time": 46.648031533333324,
                        "value": 1
                    },
                    {
                        "number": 64,
                        "time": 46.73688160833333,
                        "value": 0
                    },
                    {
                        "number": 64,
                        "time": 46.86318808749999,
                        "value": 1
                    },
                    {
                        "number": 64,
                        "time": 47.27520853333333,
                        "value": 0
                    },
                    {
                        "number": 64,
                        "time": 47.49384940416666,
                        "value": 1
                    },
                    {
                        "number": 64,
                        "time": 47.675904949999996,
                        "value": 0
                    },
                    {
                        "number": 64,
                        "time": 47.70900595833333,
                        "value": 1
                    },
                    {
                        "number": 64,
                        "time": 47.78217660833333,
                        "value": 0
                    },
                    {
                        "number": 64,
                        "time": 47.908483087499995,
                        "value": 1
                    },
                    {
                        "number": 64,
                        "time": 48.32050353333333,
                        "value": 0
                    },
                    {
                        "number": 64,
                        "time": 48.52607821666666,
                        "value": 1
                    },
                    {
                        "number": 64,
                        "time": 48.715973475,
                        "value": 0
                    },
                    {
                        "number": 64,
                        "time": 48.73862153333333,
                        "value": 1
                    },
                    {
                        "number": 64,
                        "time": 48.82747160833333,
                        "value": 0
                    },
                    {
                        "number": 64,
                        "time": 48.9537780875,
                        "value": 1
                    },
                    {
                        "number": 64,
                        "time": 49.36579853333333,
                        "value": 0
                    },
                    {
                        "number": 64,
                        "time": 49.584439404166666,
                        "value": 1
                    },
                    {
                        "number": 64,
                        "time": 49.76649495,
                        "value": 0
                    },
                    {
                        "number": 64,
                        "time": 49.799595958333335,
                        "value": 1
                    },
                    {
                        "number": 64,
                        "time": 49.872766608333336,
                        "value": 0
                    },
                    {
                        "number": 64,
                        "time": 49.9990730875,
                        "value": 1
                    },
                    {
                        "number": 64,
                        "time": 50.411093533333336,
                        "value": 0
                    },
                    {
                        "number": 64,
                        "time": 50.62973440416667,
                        "value": 1
                    },
                    {
                        "number": 64,
                        "time": 50.811789950000005,
                        "value": 0
                    },
                    {
                        "number": 64,
                        "time": 50.84489095833334,
                        "value": 1
                    },
                    {
                        "number": 64,
                        "time": 50.93374103333334,
                        "value": 0
                    },
                    {
                        "number": 64,
                        "time": 51.01039600000001,
                        "value": 1
                    },
                    {
                        "number": 64,
                        "time": 51.105343629166676,
                        "value": 0
                    },
                    {
                        "number": 64,
                        "time": 51.25691140416667,
                        "value": 1
                    },
                    {
                        "number": 64,
                        "time": 51.43896695000001,
                        "value": 0
                    },
                    {
                        "number": 64,
                        "time": 51.480778750000006,
                        "value": 1
                    },
                    {
                        "number": 64,
                        "time": 51.64192839583334,
                        "value": 0
                    },
                    {
                        "number": 64,
                        "time": 51.67502940416667,
                        "value": 1
                    },
                    {
                        "number": 64,
                        "time": 51.85708495000001,
                        "value": 0
                    },
                    {
                        "number": 64,
                        "time": 51.889314879166676,
                        "value": 1
                    },
                    {
                        "number": 64,
                        "time": 52.064401791666675,
                        "value": 0
                    },
                    {
                        "number": 64,
                        "time": 52.09314740416668,
                        "value": 1
                    },
                    {
                        "number": 64,
                        "time": 52.275202950000015,
                        "value": 0
                    },
                    {
                        "number": 64,
                        "time": 52.33879172916668,
                        "value": 1
                    },
                    {
                        "number": 64,
                        "time": 52.44419230833335,
                        "value": 0
                    },
                    {
                        "number": 64,
                        "time": 52.60882627083335,
                        "value": 1
                    },
                    {
                        "number": 64,
                        "time": 52.75255433333335,
                        "value": 0
                    },
                    {
                        "number": 64,
                        "time": 52.91718829583335,
                        "value": 1
                    },
                    {
                        "number": 64,
                        "time": 53.425027450000016,
                        "value": 0
                    },
                    {
                        "number": 64,
                        "time": 53.75342429583335,
                        "value": 1
                    },
                    {
                        "number": 64,
                        "time": 54.06178632083335,
                        "value": 0
                    },
                    {
                        "number": 64,
                        "time": 54.78391095000001,
                        "value": 0
                    },
                    {
                        "number": 64,
                        "time": 54.84749972916668,
                        "value": 1
                    },
                    {
                        "number": 64,
                        "time": 54.95290030833335,
                        "value": 0
                    },
                    {
                        "number": 64,
                        "time": 55.117534270833346,
                        "value": 1
                    },
                    {
                        "number": 64,
                        "time": 55.26126233333335,
                        "value": 0
                    },
                    {
                        "number": 64,
                        "time": 55.42589629583335,
                        "value": 1
                    },
                    {
                        "number": 64,
                        "time": 55.55742925000001,
                        "value": 0
                    },
                    {
                        "number": 64,
                        "time": 55.766488250000016,
                        "value": 1
                    },
                    {
                        "number": 64,
                        "time": 55.933735450000015,
                        "value": 0
                    },
                    {
                        "number": 64,
                        "time": 56.24383963333335,
                        "value": 0
                    },
                    {
                        "number": 64,
                        "time": 56.29871762083335,
                        "value": 1
                    },
                    {
                        "number": 64,
                        "time": 56.454640791666684,
                        "value": 0
                    },
                    {
                        "number": 64,
                        "time": 56.50777662083335,
                        "value": 1
                    },
                    {
                        "number": 64,
                        "time": 56.66369979166668,
                        "value": 0
                    },
                    {
                        "number": 64,
                        "time": 56.71073806666668,
                        "value": 1
                    },
                    {
                        "number": 64,
                        "time": 56.87188771250001,
                        "value": 0
                    },
                    {
                        "number": 64,
                        "time": 56.91979706666668,
                        "value": 1
                    },
                    {
                        "number": 64,
                        "time": 57.080946712500015,
                        "value": 0
                    },
                    {
                        "number": 64,
                        "time": 57.15934383750002,
                        "value": 1
                    },
                    {
                        "number": 64,
                        "time": 57.29261895000002,
                        "value": 0
                    },
                    {
                        "number": 64,
                        "time": 57.374500391666686,
                        "value": 1
                    },
                    {
                        "number": 64,
                        "time": 57.90934300000002,
                        "value": 0
                    },
                    {
                        "number": 64,
                        "time": 58.22293150000002,
                        "value": 1
                    },
                    {
                        "number": 64,
                        "time": 58.425892945833354,
                        "value": 0
                    },
                    {
                        "number": 64,
                        "time": 59.18024750416669,
                        "value": 1
                    },
                    {
                        "number": 64,
                        "time": 59.23948088750002,
                        "value": 0
                    },
                    {
                        "number": 64,
                        "time": 59.37972463333335,
                        "value": 0
                    },
                    {
                        "number": 64,
                        "time": 59.43460262083335,
                        "value": 1
                    },
                    {
                        "number": 64,
                        "time": 59.590525791666686,
                        "value": 0
                    },
                    {
                        "number": 64,
                        "time": 59.64366162083335,
                        "value": 1
                    },
                    {
                        "number": 64,
                        "time": 59.79958479166668,
                        "value": 0
                    },
                    {
                        "number": 64,
                        "time": 59.84662306666668,
                        "value": 1
                    },
                    {
                        "number": 64,
                        "time": 60.007772712500014,
                        "value": 0
                    },
                    {
                        "number": 64,
                        "time": 60.055682066666684,
                        "value": 1
                    },
                    {
                        "number": 64,
                        "time": 60.21683171250002,
                        "value": 0
                    },
                    {
                        "number": 64,
                        "time": 60.27780725416668,
                        "value": 1
                    },
                    {
                        "number": 64,
                        "time": 60.43285934583335,
                        "value": 0
                    },
                    {
                        "number": 64,
                        "time": 60.51038539166668,
                        "value": 1
                    },
                    {
                        "number": 64,
                        "time": 61.045228000000016,
                        "value": 0
                    },
                    {
                        "number": 64,
                        "time": 61.35881650000002,
                        "value": 1
                    },
                    {
                        "number": 64,
                        "time": 61.56177794583335,
                        "value": 0
                    },
                    {
                        "number": 64,
                        "time": 62.359686462500015,
                        "value": 1
                    },
                    {
                        "number": 64,
                        "time": 62.51560963333335,
                        "value": 0
                    },
                    {
                        "number": 64,
                        "time": 62.57048762083335,
                        "value": 1
                    },
                    {
                        "number": 64,
                        "time": 62.72641079166668,
                        "value": 0
                    },
                    {
                        "number": 64,
                        "time": 62.779546620833344,
                        "value": 1
                    },
                    {
                        "number": 64,
                        "time": 62.93546979166668,
                        "value": 0
                    },
                    {
                        "number": 64,
                        "time": 62.982508066666675,
                        "value": 1
                    },
                    {
                        "number": 64,
                        "time": 63.14365771250001,
                        "value": 0
                    },
                    {
                        "number": 64,
                        "time": 63.19156706666668,
                        "value": 1
                    },
                    {
                        "number": 64,
                        "time": 63.35271671250001,
                        "value": 0
                    },
                    {
                        "number": 64,
                        "time": 63.413692254166676,
                        "value": 1
                    },
                    {
                        "number": 64,
                        "time": 63.55393600000001,
                        "value": 0
                    },
                    {
                        "number": 64,
                        "time": 63.623622333333344,
                        "value": 1
                    },
                    {
                        "number": 64,
                        "time": 63.71682780416668,
                        "value": 0
                    },
                    {
                        "number": 64,
                        "time": 63.79348277083334,
                        "value": 1
                    },
                    {
                        "number": 64,
                        "time": 63.882332845833346,
                        "value": 0
                    },
                    {
                        "number": 64,
                        "time": 64.00689716666668,
                        "value": 1
                    },
                    {
                        "number": 64,
                        "time": 64.10620019166667,
                        "value": 0
                    },
                    {
                        "number": 64,
                        "time": 64.21595616666667,
                        "value": 1
                    },
                    {
                        "number": 64,
                        "time": 64.30567732083334,
                        "value": 0
                    },
                    {
                        "number": 64,
                        "time": 64.40062495000001,
                        "value": 1
                    },
                    {
                        "number": 64,
                        "time": 64.51473632083334,
                        "value": 0
                    },
                    {
                        "number": 64,
                        "time": 64.62449229583333,
                        "value": 1
                    },
                    {
                        "number": 64,
                        "time": 64.70724481666667,
                        "value": 0
                    },
                    {
                        "number": 64,
                        "time": 64.81438755416667,
                        "value": 1
                    },
                    {
                        "number": 64,
                        "time": 64.94417835,
                        "value": 0
                    },
                    {
                        "number": 64,
                        "time": 65.02431763333334,
                        "value": 0
                    },
                    {
                        "number": 64,
                        "time": 65.07919562083335,
                        "value": 1
                    },
                    {
                        "number": 64,
                        "time": 65.23511879166668,
                        "value": 0
                    },
                    {
                        "number": 64,
                        "time": 65.28825462083334,
                        "value": 1
                    },
                    {
                        "number": 64,
                        "time": 65.44417779166668,
                        "value": 0
                    },
                    {
                        "number": 64,
                        "time": 65.49121606666668,
                        "value": 1
                    },
                    {
                        "number": 64,
                        "time": 65.65236571250001,
                        "value": 0
                    },
                    {
                        "number": 64,
                        "time": 65.70027506666668,
                        "value": 1
                    },
                    {
                        "number": 64,
                        "time": 65.86142471250001,
                        "value": 0
                    },
                    {
                        "number": 64,
                        "time": 65.92240025416667,
                        "value": 1
                    },
                    {
                        "number": 64,
                        "time": 66.062644,
                        "value": 0
                    },
                    {
                        "number": 64,
                        "time": 66.13233033333334,
                        "value": 1
                    },
                    {
                        "number": 64,
                        "time": 66.22553580416668,
                        "value": 0
                    },
                    {
                        "number": 64,
                        "time": 66.30219077083335,
                        "value": 1
                    },
                    {
                        "number": 64,
                        "time": 66.39104084583334,
                        "value": 0
                    },
                    {
                        "number": 64,
                        "time": 66.51560516666667,
                        "value": 1
                    },
                    {
                        "number": 64,
                        "time": 66.61490819166667,
                        "value": 0
                    },
                    {
                        "number": 64,
                        "time": 66.72466416666667,
                        "value": 1
                    },
                    {
                        "number": 64,
                        "time": 66.81438532083334,
                        "value": 0
                    },
                    {
                        "number": 64,
                        "time": 66.90933295,
                        "value": 1
                    },
                    {
                        "number": 64,
                        "time": 67.02344432083333,
                        "value": 0
                    },
                    {
                        "number": 64,
                        "time": 67.13320029583333,
                        "value": 1
                    },
                    {
                        "number": 64,
                        "time": 67.21595281666667,
                        "value": 0
                    },
                    {
                        "number": 64,
                        "time": 67.32309555416667,
                        "value": 1
                    },
                    {
                        "number": 64,
                        "time": 67.45288635,
                        "value": 0
                    },
                    {
                        "number": 64,
                        "time": 67.6305865,
                        "value": 1
                    },
                    {
                        "number": 64,
                        "time": 68.09400061666668,
                        "value": 0
                    },
                    {
                        "number": 64,
                        "time": 68.25340810416668,
                        "value": 1
                    },
                    {
                        "number": 64,
                        "time": 68.70636927083335,
                        "value": 0
                    },
                    {
                        "number": 64,
                        "time": 68.88494050000001,
                        "value": 1
                    },
                    {
                        "number": 64,
                        "time": 69.32309332083335,
                        "value": 0
                    },
                    {
                        "number": 64,
                        "time": 69.50776210416669,
                        "value": 1
                    },
                    {
                        "number": 64,
                        "time": 69.95549679583335,
                        "value": 0
                    },
                    {
                        "number": 64,
                        "time": 70.13929450000002,
                        "value": 1
                    },
                    {
                        "number": 64,
                        "time": 70.57744732083336,
                        "value": 0
                    },
                    {
                        "number": 64,
                        "time": 70.7621161041667,
                        "value": 1
                    },
                    {
                        "number": 64,
                        "time": 71.20985079583336,
                        "value": 0
                    },
                    {
                        "number": 64,
                        "time": 72.70984912083335,
                        "value": 1
                    },
                    {
                        "number": 64,
                        "time": 73.02343762083335,
                        "value": 0
                    },
                    {
                        "number": 64,
                        "time": 73.28737460833335,
                        "value": 1
                    },
                    {
                        "number": 64,
                        "time": 73.58876800000002,
                        "value": 0
                    },
                    {
                        "number": 64,
                        "time": 73.89016139166668,
                        "value": 1
                    },
                    {
                        "number": 64,
                        "time": 74.84312200000001,
                        "value": 0
                    },
                    {
                        "number": 64,
                        "time": 75.15061294583334,
                        "value": 1
                    },
                    {
                        "number": 64,
                        "time": 75.48162302916668,
                        "value": 0
                    },
                    {
                        "number": 64,
                        "time": 75.55043828333335,
                        "value": 1
                    },
                    {
                        "number": 64,
                        "time": 75.68981095000002,
                        "value": 0
                    },
                    {
                        "number": 64,
                        "time": 75.76559483750002,
                        "value": 1
                    },
                    {
                        "number": 64,
                        "time": 75.89625671250002,
                        "value": 0
                    },
                    {
                        "number": 64,
                        "time": 75.96245872916668,
                        "value": 1
                    },
                    {
                        "number": 64,
                        "time": 76.10705787083334,
                        "value": 0
                    },
                    {
                        "number": 64,
                        "time": 76.29521097083334,
                        "value": 1
                    },
                    {
                        "number": 64,
                        "time": 76.9572311375,
                        "value": 0
                    },
                    {
                        "number": 64,
                        "time": 77.72726512083334,
                        "value": 1
                    },
                    {
                        "number": 64,
                        "time": 78.04085362083333,
                        "value": 0
                    },
                    {
                        "number": 64,
                        "time": 78.30479060833333,
                        "value": 1
                    },
                    {
                        "number": 64,
                        "time": 78.606184,
                        "value": 0
                    },
                    {
                        "number": 64,
                        "time": 78.90757739166666,
                        "value": 1
                    },
                    {
                        "number": 64,
                        "time": 79.86053799999999,
                        "value": 0
                    },
                    {
                        "number": 64,
                        "time": 80.16802894583333,
                        "value": 1
                    },
                    {
                        "number": 64,
                        "time": 80.49903902916667,
                        "value": 0
                    },
                    {
                        "number": 64,
                        "time": 80.56785428333333,
                        "value": 1
                    },
                    {
                        "number": 64,
                        "time": 80.70722695,
                        "value": 0
                    },
                    {
                        "number": 64,
                        "time": 80.7830108375,
                        "value": 1
                    },
                    {
                        "number": 64,
                        "time": 80.9136727125,
                        "value": 0
                    },
                    {
                        "number": 64,
                        "time": 80.97987472916667,
                        "value": 1
                    },
                    {
                        "number": 64,
                        "time": 81.12447387083333,
                        "value": 0
                    },
                    {
                        "number": 64,
                        "time": 81.31262697083332,
                        "value": 1
                    },
                    {
                        "number": 64,
                        "time": 81.75949058333332,
                        "value": 0
                    },
                    {
                        "number": 64,
                        "time": 81.93109317916665,
                        "value": 1
                    },
                    {
                        "number": 64,
                        "time": 82.36924599999999,
                        "value": 0
                    },
                    {
                        "number": 64,
                        "time": 82.43370585833333,
                        "value": 1
                    },
                    {
                        "number": 64,
                        "time": 83.6236,
                        "value": 0
                    },
                    {
                        "number": 64,
                        "time": 83.70983683749999,
                        "value": 1
                    },
                    {
                        "number": 64,
                        "time": 84.87795399999999,
                        "value": 0
                    },
                    {
                        "number": 64,
                        "time": 84.93021875,
                        "value": 1
                    },
                    {
                        "number": 64,
                        "time": 85.51645502916666,
                        "value": 0
                    },
                    {
                        "number": 64,
                        "time": 85.58527028333333,
                        "value": 1
                    },
                    {
                        "number": 64,
                        "time": 85.72464295,
                        "value": 0
                    },
                    {
                        "number": 64,
                        "time": 85.8004268375,
                        "value": 1
                    },
                    {
                        "number": 64,
                        "time": 85.9310887125,
                        "value": 0
                    },
                    {
                        "number": 64,
                        "time": 85.99729072916666,
                        "value": 1
                    },
                    {
                        "number": 64,
                        "time": 86.14188987083332,
                        "value": 0
                    },
                    {
                        "number": 64,
                        "time": 86.33004297083332,
                        "value": 1
                    },
                    {
                        "number": 64,
                        "time": 86.99206313749998,
                        "value": 0
                    },
                    {
                        "number": 64,
                        "time": 87.38666199999999,
                        "value": 0
                    },
                    {
                        "number": 64,
                        "time": 87.43631351249999,
                        "value": 1
                    },
                    {
                        "number": 64,
                        "time": 88.641016,
                        "value": 0
                    },
                    {
                        "number": 64,
                        "time": 88.70547585833333,
                        "value": 1
                    },
                    {
                        "number": 64,
                        "time": 89.89537,
                        "value": 0
                    },
                    {
                        "number": 64,
                        "time": 89.93805287916666,
                        "value": 1
                    },
                    {
                        "number": 64,
                        "time": 90.53387102916666,
                        "value": 0
                    },
                    {
                        "number": 64,
                        "time": 90.60268628333333,
                        "value": 1
                    },
                    {
                        "number": 64,
                        "time": 90.74205895,
                        "value": 0
                    },
                    {
                        "number": 64,
                        "time": 90.8178428375,
                        "value": 1
                    },
                    {
                        "number": 64,
                        "time": 90.9485047125,
                        "value": 0
                    },
                    {
                        "number": 64,
                        "time": 91.01470672916666,
                        "value": 1
                    },
                    {
                        "number": 64,
                        "time": 91.15930587083332,
                        "value": 0
                    },
                    {
                        "number": 64,
                        "time": 91.21679709583333,
                        "value": 1
                    },
                    {
                        "number": 64,
                        "time": 92.404078,
                        "value": 0
                    },
                    {
                        "number": 64,
                        "time": 92.404078,
                        "value": 0
                    },
                    {
                        "number": 64,
                        "time": 92.4589559875,
                        "value": 1
                    },
                    {
                        "number": 64,
                        "time": 93.04257902916667,
                        "value": 0
                    },
                    {
                        "number": 64,
                        "time": 93.11139428333334,
                        "value": 1
                    },
                    {
                        "number": 64,
                        "time": 93.25076695000001,
                        "value": 0
                    },
                    {
                        "number": 64,
                        "time": 93.32655083750001,
                        "value": 1
                    },
                    {
                        "number": 64,
                        "time": 93.45721271250001,
                        "value": 0
                    },
                    {
                        "number": 64,
                        "time": 93.52341472916667,
                        "value": 1
                    },
                    {
                        "number": 64,
                        "time": 93.66801387083333,
                        "value": 0
                    },
                    {
                        "number": 64,
                        "time": 93.7211497,
                        "value": 1
                    },
                    {
                        "number": 64,
                        "time": 94.912786,
                        "value": 0
                    },
                    {
                        "number": 64,
                        "time": 94.912786,
                        "value": 0
                    },
                    {
                        "number": 64,
                        "time": 94.97463262083333,
                        "value": 1
                    },
                    {
                        "number": 64,
                        "time": 95.55128702916667,
                        "value": 0
                    },
                    {
                        "number": 64,
                        "time": 95.59222775,
                        "value": 1
                    },
                    {
                        "number": 64,
                        "time": 96.16714,
                        "value": 0
                    },
                    {
                        "number": 64,
                        "time": 96.16714,
                        "value": 0
                    },
                    {
                        "number": 64,
                        "time": 96.22898662083334,
                        "value": 1
                    },
                    {
                        "number": 64,
                        "time": 96.80564102916668,
                        "value": 0
                    },
                    {
                        "number": 64,
                        "time": 96.84658175000001,
                        "value": 1
                    },
                    {
                        "number": 64,
                        "time": 97.42149400000001,
                        "value": 0
                    },
                    {
                        "number": 64,
                        "time": 97.42149400000001,
                        "value": 0
                    },
                    {
                        "number": 64,
                        "time": 97.48334062083335,
                        "value": 1
                    },
                    {
                        "number": 64,
                        "time": 98.05999502916669,
                        "value": 0
                    },
                    {
                        "number": 64,
                        "time": 98.10093575000002,
                        "value": 1
                    },
                    {
                        "number": 64,
                        "time": 98.67584800000002,
                        "value": 0
                    },
                    {
                        "number": 64,
                        "time": 98.67584800000002,
                        "value": 0
                    },
                    {
                        "number": 64,
                        "time": 98.73769462083335,
                        "value": 1
                    },
                    {
                        "number": 64,
                        "time": 99.31434902916669,
                        "value": 0
                    },
                    {
                        "number": 64,
                        "time": 99.35528975000003,
                        "value": 1
                    },
                    {
                        "number": 64,
                        "time": 99.93020200000002,
                        "value": 0
                    },
                    {
                        "number": 64,
                        "time": 99.93020200000002,
                        "value": 0
                    },
                    {
                        "number": 64,
                        "time": 99.99204862083336,
                        "value": 1
                    },
                    {
                        "number": 64,
                        "time": 100.5687030291667,
                        "value": 0
                    },
                    {
                        "number": 64,
                        "time": 100.60964375000003,
                        "value": 1
                    },
                    {
                        "number": 64,
                        "time": 101.18455600000003,
                        "value": 0
                    },
                    {
                        "number": 64,
                        "time": 101.18455600000003,
                        "value": 0
                    },
                    {
                        "number": 64,
                        "time": 101.24640262083336,
                        "value": 1
                    },
                    {
                        "number": 64,
                        "time": 101.8230570291667,
                        "value": 0
                    },
                    {
                        "number": 64,
                        "time": 101.86399775000004,
                        "value": 1
                    },
                    {
                        "number": 64,
                        "time": 102.43891000000004,
                        "value": 0
                    },
                    {
                        "number": 64,
                        "time": 102.43891000000004,
                        "value": 0
                    },
                    {
                        "number": 64,
                        "time": 102.50075662083337,
                        "value": 1
                    },
                    {
                        "number": 64,
                        "time": 103.07741102916671,
                        "value": 0
                    },
                    {
                        "number": 64,
                        "time": 103.11835175000004,
                        "value": 1
                    },
                    {
                        "number": 64,
                        "time": 103.69326400000004,
                        "value": 0
                    },
                    {
                        "number": 64,
                        "time": 103.69326400000004,
                        "value": 0
                    },
                    {
                        "number": 64,
                        "time": 103.75511062083338,
                        "value": 1
                    },
                    {
                        "number": 64,
                        "time": 104.33176502916672,
                        "value": 0
                    },
                    {
                        "number": 64,
                        "time": 104.37270575000005,
                        "value": 1
                    },
                    {
                        "number": 64,
                        "time": 104.91016159583339,
                        "value": 0
                    },
                    {
                        "number": 64,
                        "time": 104.99726951250005,
                        "value": 1
                    },
                    {
                        "number": 64,
                        "time": 105.26469081666671,
                        "value": 0
                    },
                    {
                        "number": 64,
                        "time": 105.29256535000005,
                        "value": 1
                    },
                    {
                        "number": 64,
                        "time": 105.58350579166671,
                        "value": 0
                    },
                    {
                        "number": 64,
                        "time": 105.63315730416672,
                        "value": 1
                    },
                    {
                        "number": 64,
                        "time": 106.20197200000005,
                        "value": 0
                    },
                    {
                        "number": 64,
                        "time": 106.25423675000006,
                        "value": 1
                    },
                    {
                        "number": 64,
                        "time": 106.52340021250006,
                        "value": 0
                    },
                    {
                        "number": 64,
                        "time": 106.57392280416673,
                        "value": 1
                    },
                    {
                        "number": 64,
                        "time": 106.83873087083339,
                        "value": 0
                    },
                    {
                        "number": 64,
                        "time": 106.8909956208334,
                        "value": 1
                    },
                    {
                        "number": 64,
                        "time": 107.45632600000006,
                        "value": 0
                    },
                    {
                        "number": 64,
                        "time": 107.51991477916673,
                        "value": 1
                    },
                    {
                        "number": 64,
                        "time": 107.77775421250006,
                        "value": 0
                    },
                    {
                        "number": 64,
                        "time": 107.82827680416672,
                        "value": 1
                    },
                    {
                        "number": 64,
                        "time": 108.09308487083338,
                        "value": 0
                    },
                    {
                        "number": 64,
                        "time": 108.13315451250004,
                        "value": 1
                    },
                    {
                        "number": 64,
                        "time": 108.71068000000004,
                        "value": 0
                    },
                    {
                        "number": 64,
                        "time": 108.76033151250004,
                        "value": 1
                    },
                    {
                        "number": 64,
                        "time": 109.0329792916667,
                        "value": 0
                    },
                    {
                        "number": 64,
                        "time": 109.08001756666671,
                        "value": 1
                    },
                    {
                        "number": 64,
                        "time": 109.34656779166671,
                        "value": 0
                    },
                    {
                        "number": 64,
                        "time": 109.39970362083338,
                        "value": 1
                    },
                    {
                        "number": 64,
                        "time": 109.97722910833338,
                        "value": 0
                    },
                    {
                        "number": 64,
                        "time": 110.01468551250004,
                        "value": 1
                    },
                    {
                        "number": 64,
                        "time": 110.2821068166667,
                        "value": 0
                    },
                    {
                        "number": 64,
                        "time": 110.30998135000003,
                        "value": 1
                    },
                    {
                        "number": 64,
                        "time": 110.60092179166669,
                        "value": 0
                    },
                    {
                        "number": 64,
                        "time": 110.6505733041667,
                        "value": 1
                    },
                    {
                        "number": 64,
                        "time": 111.21938800000004,
                        "value": 0
                    },
                    {
                        "number": 64,
                        "time": 111.27165275000004,
                        "value": 1
                    },
                    {
                        "number": 64,
                        "time": 111.54081621250005,
                        "value": 0
                    },
                    {
                        "number": 64,
                        "time": 111.59133880416671,
                        "value": 1
                    },
                    {
                        "number": 64,
                        "time": 111.85614687083337,
                        "value": 0
                    },
                    {
                        "number": 64,
                        "time": 111.90841162083338,
                        "value": 1
                    },
                    {
                        "number": 64,
                        "time": 112.47374200000004,
                        "value": 0
                    },
                    {
                        "number": 64,
                        "time": 112.53733077916671,
                        "value": 1
                    },
                    {
                        "number": 64,
                        "time": 112.79517021250004,
                        "value": 0
                    },
                    {
                        "number": 64,
                        "time": 112.8456928041667,
                        "value": 1
                    },
                    {
                        "number": 64,
                        "time": 113.11050087083336,
                        "value": 0
                    },
                    {
                        "number": 64,
                        "time": 113.15057051250002,
                        "value": 1
                    },
                    {
                        "number": 64,
                        "time": 113.72809600000002,
                        "value": 0
                    },
                    {
                        "number": 64,
                        "time": 113.77774751250003,
                        "value": 1
                    },
                    {
                        "number": 64,
                        "time": 114.05039529166669,
                        "value": 0
                    },
                    {
                        "number": 64,
                        "time": 114.0974335666667,
                        "value": 1
                    },
                    {
                        "number": 64,
                        "time": 114.3639837916667,
                        "value": 0
                    },
                    {
                        "number": 64,
                        "time": 114.41711962083336,
                        "value": 1
                    },
                    {
                        "number": 64,
                        "time": 114.98245000000003,
                        "value": 0
                    },
                    {
                        "number": 64,
                        "time": 115.0930770541667,
                        "value": 1
                    },
                    {
                        "number": 64,
                        "time": 115.2995228166667,
                        "value": 0
                    },
                    {
                        "number": 64,
                        "time": 115.34481893333336,
                        "value": 1
                    },
                    {
                        "number": 64,
                        "time": 115.61833779166669,
                        "value": 0
                    },
                    {
                        "number": 64,
                        "time": 115.6679893041667,
                        "value": 1
                    },
                    {
                        "number": 64,
                        "time": 116.23680400000003,
                        "value": 0
                    },
                    {
                        "number": 64,
                        "time": 116.28906875000004,
                        "value": 1
                    },
                    {
                        "number": 64,
                        "time": 116.55823221250004,
                        "value": 0
                    },
                    {
                        "number": 64,
                        "time": 116.60875480416671,
                        "value": 1
                    },
                    {
                        "number": 64,
                        "time": 116.87356287083337,
                        "value": 0
                    },
                    {
                        "number": 64,
                        "time": 116.92582762083337,
                        "value": 1
                    },
                    {
                        "number": 64,
                        "time": 117.49115800000004,
                        "value": 0
                    },
                    {
                        "number": 64,
                        "time": 117.5547467791667,
                        "value": 1
                    },
                    {
                        "number": 64,
                        "time": 117.81258621250004,
                        "value": 0
                    },
                    {
                        "number": 64,
                        "time": 117.8631088041667,
                        "value": 1
                    },
                    {
                        "number": 64,
                        "time": 118.12791687083336,
                        "value": 0
                    },
                    {
                        "number": 64,
                        "time": 118.16798651250002,
                        "value": 1
                    },
                    {
                        "number": 64,
                        "time": 118.74551200000002,
                        "value": 0
                    },
                    {
                        "number": 64,
                        "time": 118.79516351250003,
                        "value": 1
                    },
                    {
                        "number": 64,
                        "time": 119.06781129166669,
                        "value": 0
                    },
                    {
                        "number": 64,
                        "time": 119.11484956666669,
                        "value": 1
                    },
                    {
                        "number": 64,
                        "time": 119.3813997916667,
                        "value": 0
                    },
                    {
                        "number": 64,
                        "time": 119.43453562083336,
                        "value": 1
                    },
                    {
                        "number": 64,
                        "time": 120.01206110833336,
                        "value": 0
                    },
                    {
                        "number": 64,
                        "time": 120.04951751250002,
                        "value": 1
                    },
                    {
                        "number": 64,
                        "time": 120.31693881666668,
                        "value": 0
                    },
                    {
                        "number": 64,
                        "time": 120.37530112083334,
                        "value": 1
                    },
                    {
                        "number": 64,
                        "time": 120.63575379166667,
                        "value": 0
                    },
                    {
                        "number": 64,
                        "time": 120.68540530416668,
                        "value": 1
                    },
                    {
                        "number": 64,
                        "time": 121.25422000000002,
                        "value": 0
                    },
                    {
                        "number": 64,
                        "time": 121.30648475000002,
                        "value": 1
                    },
                    {
                        "number": 64,
                        "time": 121.57564821250003,
                        "value": 0
                    },
                    {
                        "number": 64,
                        "time": 121.62617080416669,
                        "value": 1
                    },
                    {
                        "number": 64,
                        "time": 121.89097887083335,
                        "value": 0
                    },
                    {
                        "number": 64,
                        "time": 121.94324362083336,
                        "value": 1
                    },
                    {
                        "number": 64,
                        "time": 122.50857400000002,
                        "value": 0
                    },
                    {
                        "number": 64,
                        "time": 122.57216277916669,
                        "value": 1
                    },
                    {
                        "number": 64,
                        "time": 122.83000221250002,
                        "value": 0
                    },
                    {
                        "number": 64,
                        "time": 122.88052480416668,
                        "value": 1
                    },
                    {
                        "number": 64,
                        "time": 123.14533287083334,
                        "value": 0
                    },
                    {
                        "number": 64,
                        "time": 123.1854025125,
                        "value": 1
                    },
                    {
                        "number": 64,
                        "time": 123.762928,
                        "value": 0
                    },
                    {
                        "number": 64,
                        "time": 123.81257951250001,
                        "value": 1
                    },
                    {
                        "number": 64,
                        "time": 124.08522729166667,
                        "value": 0
                    },
                    {
                        "number": 64,
                        "time": 124.13226556666667,
                        "value": 1
                    },
                    {
                        "number": 64,
                        "time": 124.39881579166668,
                        "value": 0
                    },
                    {
                        "number": 64,
                        "time": 124.45195162083334,
                        "value": 1
                    },
                    {
                        "number": 64,
                        "time": 125.01728200000001,
                        "value": 0
                    },
                    {
                        "number": 64,
                        "time": 125.12790905416668,
                        "value": 1
                    },
                    {
                        "number": 64,
                        "time": 125.33435481666667,
                        "value": 0
                    },
                    {
                        "number": 64,
                        "time": 125.37965093333334,
                        "value": 1
                    },
                    {
                        "number": 64,
                        "time": 125.65316979166667,
                        "value": 0
                    },
                    {
                        "number": 64,
                        "time": 125.70282130416668,
                        "value": 1
                    },
                    {
                        "number": 64,
                        "time": 126.27163600000002,
                        "value": 0
                    },
                    {
                        "number": 64,
                        "time": 126.32390075000002,
                        "value": 1
                    },
                    {
                        "number": 64,
                        "time": 126.59306421250002,
                        "value": 0
                    },
                    {
                        "number": 64,
                        "time": 126.64358680416669,
                        "value": 1
                    },
                    {
                        "number": 64,
                        "time": 126.90839487083335,
                        "value": 0
                    },
                    {
                        "number": 64,
                        "time": 126.96065962083335,
                        "value": 1
                    },
                    {
                        "number": 64,
                        "time": 127.52599000000002,
                        "value": 0
                    },
                    {
                        "number": 64,
                        "time": 127.58957877916669,
                        "value": 1
                    },
                    {
                        "number": 64,
                        "time": 127.84741821250002,
                        "value": 0
                    },
                    {
                        "number": 64,
                        "time": 127.89794080416668,
                        "value": 1
                    },
                    {
                        "number": 64,
                        "time": 128.16274887083335,
                        "value": 0
                    },
                    {
                        "number": 64,
                        "time": 128.20281851250002,
                        "value": 1
                    },
                    {
                        "number": 64,
                        "time": 128.780344,
                        "value": 0
                    },
                    {
                        "number": 64,
                        "time": 128.8299955125,
                        "value": 1
                    },
                    {
                        "number": 64,
                        "time": 129.10264329166668,
                        "value": 0
                    },
                    {
                        "number": 64,
                        "time": 129.1496815666667,
                        "value": 1
                    },
                    {
                        "number": 64,
                        "time": 129.4162317916667,
                        "value": 0
                    },
                    {
                        "number": 64,
                        "time": 129.46936762083337,
                        "value": 1
                    },
                    {
                        "number": 64,
                        "time": 130.04689310833336,
                        "value": 0
                    },
                    {
                        "number": 64,
                        "time": 130.08434951250004,
                        "value": 1
                    },
                    {
                        "number": 64,
                        "time": 130.35177081666671,
                        "value": 0
                    },
                    {
                        "number": 64,
                        "time": 130.40839096250005,
                        "value": 1
                    },
                    {
                        "number": 64,
                        "time": 130.67058579166672,
                        "value": 0
                    },
                    {
                        "number": 64,
                        "time": 130.72023730416672,
                        "value": 1
                    },
                    {
                        "number": 64,
                        "time": 131.28905200000005,
                        "value": 0
                    },
                    {
                        "number": 64,
                        "time": 131.34131675000006,
                        "value": 1
                    },
                    {
                        "number": 64,
                        "time": 131.61048021250005,
                        "value": 0
                    },
                    {
                        "number": 64,
                        "time": 131.6610028041667,
                        "value": 1
                    },
                    {
                        "number": 64,
                        "time": 131.92581087083337,
                        "value": 0
                    },
                    {
                        "number": 64,
                        "time": 131.97807562083338,
                        "value": 1
                    },
                    {
                        "number": 64,
                        "time": 132.54340600000003,
                        "value": 0
                    },
                    {
                        "number": 64,
                        "time": 132.6069947791667,
                        "value": 1
                    },
                    {
                        "number": 64,
                        "time": 132.86483421250006,
                        "value": 0
                    },
                    {
                        "number": 64,
                        "time": 132.91535680416672,
                        "value": 1
                    },
                    {
                        "number": 64,
                        "time": 133.18016487083338,
                        "value": 0
                    },
                    {
                        "number": 64,
                        "time": 133.22023451250004,
                        "value": 1
                    },
                    {
                        "number": 64,
                        "time": 133.79776000000004,
                        "value": 0
                    },
                    {
                        "number": 64,
                        "time": 133.84741151250003,
                        "value": 1
                    },
                    {
                        "number": 64,
                        "time": 134.1200592916667,
                        "value": 0
                    },
                    {
                        "number": 64,
                        "time": 134.1670975666667,
                        "value": 1
                    },
                    {
                        "number": 64,
                        "time": 134.43364779166671,
                        "value": 0
                    },
                    {
                        "number": 64,
                        "time": 134.4867836208334,
                        "value": 1
                    },
                    {
                        "number": 64,
                        "time": 135.05211400000005,
                        "value": 0
                    },
                    {
                        "number": 64,
                        "time": 135.1627410541667,
                        "value": 1
                    },
                    {
                        "number": 64,
                        "time": 135.3691868166667,
                        "value": 0
                    },
                    {
                        "number": 64,
                        "time": 135.41448293333337,
                        "value": 1
                    },
                    {
                        "number": 64,
                        "time": 135.68800179166672,
                        "value": 0
                    },
                    {
                        "number": 64,
                        "time": 135.7376533041667,
                        "value": 1
                    },
                    {
                        "number": 64,
                        "time": 136.30646800000005,
                        "value": 0
                    },
                    {
                        "number": 64,
                        "time": 136.35873275000006,
                        "value": 1
                    },
                    {
                        "number": 64,
                        "time": 136.62789621250005,
                        "value": 0
                    },
                    {
                        "number": 64,
                        "time": 136.6784188041667,
                        "value": 1
                    },
                    {
                        "number": 64,
                        "time": 136.94322687083337,
                        "value": 0
                    },
                    {
                        "number": 64,
                        "time": 136.99549162083338,
                        "value": 1
                    },
                    {
                        "number": 64,
                        "time": 137.56082200000003,
                        "value": 0
                    },
                    {
                        "number": 64,
                        "time": 137.56082200000003,
                        "value": 0
                    },
                    {
                        "number": 64,
                        "time": 137.6244107791667,
                        "value": 1
                    },
                    {
                        "number": 64,
                        "time": 137.88225021250005,
                        "value": 0
                    },
                    {
                        "number": 64,
                        "time": 137.96413165416672,
                        "value": 1
                    },
                    {
                        "number": 64,
                        "time": 138.19670979166673,
                        "value": 0
                    },
                    {
                        "number": 64,
                        "time": 138.1975808708334,
                        "value": 0
                    },
                    {
                        "number": 64,
                        "time": 138.24636130416673,
                        "value": 1
                    },
                    {
                        "number": 64,
                        "time": 138.81517600000006,
                        "value": 0
                    },
                    {
                        "number": 64,
                        "time": 138.81517600000006,
                        "value": 0
                    },
                    {
                        "number": 64,
                        "time": 138.86744075000007,
                        "value": 1
                    },
                    {
                        "number": 64,
                        "time": 139.13660421250006,
                        "value": 0
                    },
                    {
                        "number": 64,
                        "time": 139.13747529166673,
                        "value": 0
                    },
                    {
                        "number": 64,
                        "time": 139.18712680416672,
                        "value": 1
                    },
                    {
                        "number": 64,
                        "time": 139.4510637916667,
                        "value": 0
                    },
                    {
                        "number": 64,
                        "time": 139.45193487083338,
                        "value": 0
                    },
                    {
                        "number": 64,
                        "time": 139.5041996208334,
                        "value": 1
                    },
                    {
                        "number": 64,
                        "time": 139.5041996208334,
                        "value": 1
                    },
                    {
                        "number": 64,
                        "time": 140.06953000000004,
                        "value": 0
                    },
                    {
                        "number": 64,
                        "time": 140.06953000000004,
                        "value": 0
                    },
                    {
                        "number": 64,
                        "time": 140.13311877916672,
                        "value": 1
                    },
                    {
                        "number": 64,
                        "time": 140.3866028166667,
                        "value": 0
                    },
                    {
                        "number": 64,
                        "time": 140.39095821250004,
                        "value": 0
                    },
                    {
                        "number": 64,
                        "time": 140.4728396541667,
                        "value": 1
                    },
                    {
                        "number": 64,
                        "time": 140.70628887083336,
                        "value": 0
                    },
                    {
                        "number": 64,
                        "time": 140.80123650000002,
                        "value": 1
                    },
                    {
                        "number": 64,
                        "time": 141.32388400000002,
                        "value": 0
                    },
                    {
                        "number": 64,
                        "time": 141.32388400000002,
                        "value": 0
                    },
                    {
                        "number": 64,
                        "time": 141.37614875000003,
                        "value": 1
                    },
                    {
                        "number": 64,
                        "time": 141.64531221250002,
                        "value": 0
                    },
                    {
                        "number": 64,
                        "time": 141.6461832916667,
                        "value": 0
                    },
                    {
                        "number": 64,
                        "time": 141.69583480416668,
                        "value": 1
                    },
                    {
                        "number": 64,
                        "time": 141.95977179166667,
                        "value": 0
                    },
                    {
                        "number": 64,
                        "time": 141.96064287083334,
                        "value": 0
                    },
                    {
                        "number": 64,
                        "time": 142.01290762083335,
                        "value": 1
                    },
                    {
                        "number": 64,
                        "time": 142.01290762083335,
                        "value": 1
                    },
                    {
                        "number": 64,
                        "time": 142.578238,
                        "value": 0
                    },
                    {
                        "number": 64,
                        "time": 142.578238,
                        "value": 0
                    },
                    {
                        "number": 64,
                        "time": 142.63050275,
                        "value": 1
                    },
                    {
                        "number": 64,
                        "time": 142.90053729166667,
                        "value": 0
                    },
                    {
                        "number": 64,
                        "time": 142.95018880416666,
                        "value": 1
                    },
                    {
                        "number": 64,
                        "time": 143.21499687083332,
                        "value": 0
                    },
                    {
                        "number": 64,
                        "time": 143.26726162083332,
                        "value": 1
                    },
                    {
                        "number": 64,
                        "time": 143.26726162083332,
                        "value": 1
                    },
                    {
                        "number": 64,
                        "time": 143.83259199999998,
                        "value": 0
                    },
                    {
                        "number": 64,
                        "time": 143.94321905416663,
                        "value": 1
                    },
                    {
                        "number": 64,
                        "time": 144.14966481666664,
                        "value": 0
                    },
                    {
                        "number": 64,
                        "time": 144.1949609333333,
                        "value": 1
                    },
                    {
                        "number": 64,
                        "time": 144.46847979166665,
                        "value": 0
                    },
                    {
                        "number": 64,
                        "time": 144.51813130416664,
                        "value": 1
                    },
                    {
                        "number": 64,
                        "time": 145.08694599999998,
                        "value": 0
                    },
                    {
                        "number": 64,
                        "time": 145.13921075,
                        "value": 1
                    },
                    {
                        "number": 64,
                        "time": 145.40837421249998,
                        "value": 0
                    },
                    {
                        "number": 64,
                        "time": 145.45889680416664,
                        "value": 1
                    },
                    {
                        "number": 64,
                        "time": 145.7237048708333,
                        "value": 0
                    },
                    {
                        "number": 64,
                        "time": 145.7759696208333,
                        "value": 1
                    },
                    {
                        "number": 64,
                        "time": 146.34129999999996,
                        "value": 0
                    },
                    {
                        "number": 64,
                        "time": 146.40488877916664,
                        "value": 1
                    },
                    {
                        "number": 64,
                        "time": 146.66272821249999,
                        "value": 0
                    },
                    {
                        "number": 64,
                        "time": 146.71325080416665,
                        "value": 1
                    },
                    {
                        "number": 64,
                        "time": 146.9780588708333,
                        "value": 0
                    },
                    {
                        "number": 64,
                        "time": 147.01812851249997,
                        "value": 1
                    },
                    {
                        "number": 64,
                        "time": 147.59565399999997,
                        "value": 0
                    },
                    {
                        "number": 64,
                        "time": 147.64530551249996,
                        "value": 1
                    },
                    {
                        "number": 64,
                        "time": 147.91795329166663,
                        "value": 0
                    },
                    {
                        "number": 64,
                        "time": 147.96499156666664,
                        "value": 1
                    },
                    {
                        "number": 64,
                        "time": 148.23154179166664,
                        "value": 0
                    },
                    {
                        "number": 64,
                        "time": 148.28467762083332,
                        "value": 1
                    },
                    {
                        "number": 64,
                        "time": 148.54513029166665,
                        "value": 0
                    },
                    {
                        "number": 64,
                        "time": 148.57213374583333,
                        "value": 1
                    },
                    {
                        "number": 64,
                        "time": 148.850008,
                        "value": 0
                    },
                    {
                        "number": 64,
                        "time": 148.96063505416666,
                        "value": 1
                    },
                    {
                        "number": 64,
                        "time": 149.16708081666667,
                        "value": 0
                    },
                    {
                        "number": 64,
                        "time": 149.21237693333333,
                        "value": 1
                    },
                    {
                        "number": 64,
                        "time": 149.48589579166668,
                        "value": 0
                    },
                    {
                        "number": 64,
                        "time": 149.53554730416667,
                        "value": 1
                    },
                    {
                        "number": 64,
                        "time": 150.104362,
                        "value": 0
                    },
                    {
                        "number": 64,
                        "time": 150.15662675000002,
                        "value": 1
                    },
                    {
                        "number": 64,
                        "time": 150.4257902125,
                        "value": 0
                    },
                    {
                        "number": 64,
                        "time": 150.47631280416667,
                        "value": 1
                    },
                    {
                        "number": 64,
                        "time": 150.74112087083333,
                        "value": 0
                    },
                    {
                        "number": 64,
                        "time": 150.79338562083333,
                        "value": 1
                    },
                    {
                        "number": 64,
                        "time": 151.358716,
                        "value": 0
                    },
                    {
                        "number": 64,
                        "time": 151.42230477916667,
                        "value": 1
                    },
                    {
                        "number": 64,
                        "time": 151.6801442125,
                        "value": 0
                    },
                    {
                        "number": 64,
                        "time": 151.73066680416667,
                        "value": 1
                    },
                    {
                        "number": 64,
                        "time": 151.99547487083333,
                        "value": 0
                    },
                    {
                        "number": 64,
                        "time": 152.0355445125,
                        "value": 1
                    },
                    {
                        "number": 64,
                        "time": 152.61307,
                        "value": 0
                    },
                    {
                        "number": 64,
                        "time": 152.66272151249999,
                        "value": 1
                    },
                    {
                        "number": 64,
                        "time": 152.93536929166666,
                        "value": 0
                    },
                    {
                        "number": 64,
                        "time": 152.98240756666667,
                        "value": 1
                    },
                    {
                        "number": 64,
                        "time": 153.24895779166667,
                        "value": 0
                    },
                    {
                        "number": 64,
                        "time": 153.30209362083335,
                        "value": 1
                    },
                    {
                        "number": 64,
                        "time": 153.56254629166668,
                        "value": 0
                    },
                    {
                        "number": 64,
                        "time": 153.58954974583335,
                        "value": 1
                    },
                    {
                        "number": 64,
                        "time": 153.86742400000003,
                        "value": 0
                    },
                    {
                        "number": 64,
                        "time": 153.91707551250002,
                        "value": 1
                    },
                    {
                        "number": 64,
                        "time": 154.1897232916667,
                        "value": 0
                    },
                    {
                        "number": 64,
                        "time": 154.2367615666667,
                        "value": 1
                    },
                    {
                        "number": 64,
                        "time": 154.5033117916667,
                        "value": 0
                    },
                    {
                        "number": 64,
                        "time": 154.55644762083338,
                        "value": 1
                    },
                    {
                        "number": 64,
                        "time": 154.8169002916667,
                        "value": 0
                    },
                    {
                        "number": 64,
                        "time": 154.8439037458334,
                        "value": 1
                    },
                    {
                        "number": 64,
                        "time": 155.12177800000006,
                        "value": 0
                    },
                    {
                        "number": 64,
                        "time": 155.17142951250005,
                        "value": 1
                    },
                    {
                        "number": 64,
                        "time": 155.44407729166673,
                        "value": 0
                    },
                    {
                        "number": 64,
                        "time": 155.49111556666674,
                        "value": 1
                    },
                    {
                        "number": 64,
                        "time": 155.75766579166674,
                        "value": 0
                    },
                    {
                        "number": 64,
                        "time": 155.81080162083342,
                        "value": 1
                    },
                    {
                        "number": 64,
                        "time": 156.07125429166675,
                        "value": 0
                    },
                    {
                        "number": 64,
                        "time": 156.09825774583342,
                        "value": 1
                    },
                    {
                        "number": 64,
                        "time": 156.3761320000001,
                        "value": 0
                    },
                    {
                        "number": 64,
                        "time": 156.4257835125001,
                        "value": 1
                    },
                    {
                        "number": 64,
                        "time": 156.69843129166676,
                        "value": 0
                    },
                    {
                        "number": 64,
                        "time": 156.74546956666677,
                        "value": 1
                    },
                    {
                        "number": 64,
                        "time": 157.01201979166677,
                        "value": 0
                    },
                    {
                        "number": 64,
                        "time": 157.06515562083345,
                        "value": 1
                    },
                    {
                        "number": 64,
                        "time": 157.32560829166678,
                        "value": 0
                    },
                    {
                        "number": 64,
                        "time": 157.35261174583346,
                        "value": 1
                    },
                    {
                        "number": 64,
                        "time": 157.63048600000013,
                        "value": 0
                    },
                    {
                        "number": 64,
                        "time": 157.68013751250012,
                        "value": 1
                    },
                    {
                        "number": 64,
                        "time": 157.9527852916668,
                        "value": 0
                    },
                    {
                        "number": 64,
                        "time": 157.9998235666668,
                        "value": 1
                    },
                    {
                        "number": 64,
                        "time": 158.2663737916668,
                        "value": 0
                    },
                    {
                        "number": 64,
                        "time": 158.3195096208335,
                        "value": 1
                    },
                    {
                        "number": 64,
                        "time": 158.57996229166682,
                        "value": 0
                    },
                    {
                        "number": 64,
                        "time": 158.6069657458335,
                        "value": 1
                    },
                    {
                        "number": 64,
                        "time": 158.88484000000017,
                        "value": 0
                    },
                    {
                        "number": 64,
                        "time": 158.93449151250016,
                        "value": 1
                    },
                    {
                        "number": 64,
                        "time": 159.20713929166683,
                        "value": 0
                    },
                    {
                        "number": 64,
                        "time": 159.25417756666684,
                        "value": 1
                    },
                    {
                        "number": 64,
                        "time": 159.52072779166684,
                        "value": 0
                    },
                    {
                        "number": 64,
                        "time": 159.57386362083352,
                        "value": 1
                    },
                    {
                        "number": 64,
                        "time": 159.83431629166685,
                        "value": 0
                    },
                    {
                        "number": 64,
                        "time": 159.86131974583353,
                        "value": 1
                    },
                    {
                        "number": 64,
                        "time": 160.1391940000002,
                        "value": 0
                    },
                    {
                        "number": 64,
                        "time": 160.1888455125002,
                        "value": 1
                    },
                    {
                        "number": 64,
                        "time": 160.46149329166687,
                        "value": 0
                    },
                    {
                        "number": 64,
                        "time": 160.50853156666687,
                        "value": 1
                    },
                    {
                        "number": 64,
                        "time": 160.77508179166688,
                        "value": 0
                    },
                    {
                        "number": 64,
                        "time": 160.82821762083356,
                        "value": 1
                    },
                    {
                        "number": 64,
                        "time": 161.0886702916669,
                        "value": 0
                    },
                    {
                        "number": 64,
                        "time": 161.11567374583356,
                        "value": 1
                    },
                    {
                        "number": 64,
                        "time": 161.39354800000024,
                        "value": 0
                    },
                    {
                        "number": 64,
                        "time": 161.44319951250023,
                        "value": 1
                    },
                    {
                        "number": 64,
                        "time": 161.7158472916669,
                        "value": 0
                    },
                    {
                        "number": 64,
                        "time": 161.7628855666669,
                        "value": 1
                    },
                    {
                        "number": 64,
                        "time": 162.0294357916669,
                        "value": 0
                    },
                    {
                        "number": 64,
                        "time": 162.0825716208336,
                        "value": 1
                    },
                    {
                        "number": 64,
                        "time": 162.34302429166692,
                        "value": 0
                    },
                    {
                        "number": 64,
                        "time": 162.3700277458336,
                        "value": 1
                    },
                    {
                        "number": 64,
                        "time": 162.64790200000027,
                        "value": 0
                    },
                    {
                        "number": 64,
                        "time": 162.69755351250026,
                        "value": 1
                    },
                    {
                        "number": 64,
                        "time": 162.97020129166694,
                        "value": 0
                    },
                    {
                        "number": 64,
                        "time": 163.01723956666694,
                        "value": 1
                    },
                    {
                        "number": 64,
                        "time": 163.28378979166695,
                        "value": 0
                    },
                    {
                        "number": 64,
                        "time": 163.33692562083363,
                        "value": 1
                    },
                    {
                        "number": 64,
                        "time": 163.59737829166696,
                        "value": 0
                    },
                    {
                        "number": 64,
                        "time": 163.62438174583363,
                        "value": 1
                    },
                    {
                        "number": 64,
                        "time": 163.9022560000003,
                        "value": 0
                    },
                    {
                        "number": 64,
                        "time": 163.9519075125003,
                        "value": 1
                    },
                    {
                        "number": 64,
                        "time": 164.22455529166697,
                        "value": 0
                    },
                    {
                        "number": 64,
                        "time": 164.27159356666698,
                        "value": 1
                    },
                    {
                        "number": 64,
                        "time": 164.53814379166698,
                        "value": 0
                    },
                    {
                        "number": 64,
                        "time": 164.59127962083366,
                        "value": 1
                    },
                    {
                        "number": 64,
                        "time": 164.851732291667,
                        "value": 0
                    },
                    {
                        "number": 64,
                        "time": 164.87873574583367,
                        "value": 1
                    },
                    {
                        "number": 64,
                        "time": 165.15661000000034,
                        "value": 0
                    },
                    {
                        "number": 64,
                        "time": 165.20626151250033,
                        "value": 1
                    },
                    {
                        "number": 64,
                        "time": 165.478909291667,
                        "value": 0
                    },
                    {
                        "number": 64,
                        "time": 165.525947566667,
                        "value": 1
                    },
                    {
                        "number": 64,
                        "time": 165.79249779166702,
                        "value": 0
                    },
                    {
                        "number": 64,
                        "time": 165.8456336208337,
                        "value": 1
                    },
                    {
                        "number": 64,
                        "time": 166.10608629166703,
                        "value": 0
                    },
                    {
                        "number": 64,
                        "time": 166.1330897458337,
                        "value": 1
                    },
                    {
                        "number": 64,
                        "time": 166.41096400000038,
                        "value": 0
                    },
                    {
                        "number": 64,
                        "time": 166.47106846250037,
                        "value": 1
                    },
                    {
                        "number": 64,
                        "time": 166.56514501250038,
                        "value": 0
                    },
                    {
                        "number": 64,
                        "time": 166.6818696208337,
                        "value": 1
                    },
                    {
                        "number": 64,
                        "time": 166.83779279166706,
                        "value": 0
                    },
                    {
                        "number": 64,
                        "time": 166.89092862083373,
                        "value": 1
                    },
                    {
                        "number": 64,
                        "time": 167.04685179166708,
                        "value": 0
                    },
                    {
                        "number": 64,
                        "time": 167.0938900666671,
                        "value": 1
                    },
                    {
                        "number": 64,
                        "time": 167.2550397125004,
                        "value": 0
                    },
                    {
                        "number": 64,
                        "time": 167.30294906666708,
                        "value": 1
                    },
                    {
                        "number": 64,
                        "time": 167.4640987125004,
                        "value": 0
                    },
                    {
                        "number": 64,
                        "time": 167.52507425416707,
                        "value": 1
                    },
                    {
                        "number": 64,
                        "time": 167.66967339583374,
                        "value": 0
                    },
                    {
                        "number": 64,
                        "time": 167.72716462083375,
                        "value": 1
                    },
                    {
                        "number": 64,
                        "time": 167.8830877916671,
                        "value": 0
                    },
                    {
                        "number": 64,
                        "time": 167.93622362083377,
                        "value": 1
                    },
                    {
                        "number": 64,
                        "time": 168.09214679166712,
                        "value": 0
                    },
                    {
                        "number": 64,
                        "time": 168.13918506666712,
                        "value": 1
                    },
                    {
                        "number": 64,
                        "time": 168.30033471250044,
                        "value": 0
                    },
                    {
                        "number": 64,
                        "time": 168.34824406666712,
                        "value": 1
                    },
                    {
                        "number": 64,
                        "time": 168.50939371250044,
                        "value": 0
                    },
                    {
                        "number": 64,
                        "time": 168.5703692541671,
                        "value": 1
                    },
                    {
                        "number": 64,
                        "time": 168.72106595000045,
                        "value": 0
                    },
                    {
                        "number": 64,
                        "time": 168.81514250000046,
                        "value": 1
                    },
                    {
                        "number": 64,
                        "time": 168.91967200000047,
                        "value": 0
                    },
                    {
                        "number": 64,
                        "time": 169.1905776208338,
                        "value": 1
                    },
                    {
                        "number": 64,
                        "time": 169.34650079166715,
                        "value": 0
                    },
                    {
                        "number": 64,
                        "time": 169.39963662083383,
                        "value": 1
                    },
                    {
                        "number": 64,
                        "time": 169.55555979166718,
                        "value": 0
                    },
                    {
                        "number": 64,
                        "time": 169.60259806666718,
                        "value": 1
                    },
                    {
                        "number": 64,
                        "time": 169.7637477125005,
                        "value": 0
                    },
                    {
                        "number": 64,
                        "time": 169.81165706666718,
                        "value": 1
                    },
                    {
                        "number": 64,
                        "time": 169.9728067125005,
                        "value": 0
                    },
                    {
                        "number": 64,
                        "time": 170.03378225416716,
                        "value": 1
                    },
                    {
                        "number": 64,
                        "time": 170.17838139583384,
                        "value": 0
                    },
                    {
                        "number": 64,
                        "time": 170.23587262083385,
                        "value": 1
                    },
                    {
                        "number": 64,
                        "time": 170.3917957916672,
                        "value": 0
                    },
                    {
                        "number": 64,
                        "time": 170.44493162083387,
                        "value": 1
                    },
                    {
                        "number": 64,
                        "time": 170.60085479166722,
                        "value": 0
                    },
                    {
                        "number": 64,
                        "time": 170.64789306666722,
                        "value": 1
                    },
                    {
                        "number": 64,
                        "time": 170.80904271250054,
                        "value": 0
                    },
                    {
                        "number": 64,
                        "time": 170.85695206666722,
                        "value": 1
                    },
                    {
                        "number": 64,
                        "time": 171.01810171250054,
                        "value": 0
                    },
                    {
                        "number": 64,
                        "time": 171.0790772541672,
                        "value": 1
                    },
                    {
                        "number": 64,
                        "time": 171.22977395000055,
                        "value": 0
                    },
                    {
                        "number": 64,
                        "time": 171.32385050000056,
                        "value": 1
                    },
                    {
                        "number": 64,
                        "time": 171.42838000000057,
                        "value": 0
                    },
                    {
                        "number": 64,
                        "time": 171.6992856208339,
                        "value": 1
                    },
                    {
                        "number": 64,
                        "time": 171.85520879166725,
                        "value": 0
                    },
                    {
                        "number": 64,
                        "time": 171.90834462083393,
                        "value": 1
                    },
                    {
                        "number": 64,
                        "time": 172.06426779166728,
                        "value": 0
                    },
                    {
                        "number": 64,
                        "time": 172.11130606666728,
                        "value": 1
                    },
                    {
                        "number": 64,
                        "time": 172.2724557125006,
                        "value": 0
                    },
                    {
                        "number": 64,
                        "time": 172.32036506666728,
                        "value": 1
                    },
                    {
                        "number": 64,
                        "time": 172.4815147125006,
                        "value": 0
                    },
                    {
                        "number": 64,
                        "time": 172.54249025416726,
                        "value": 1
                    },
                    {
                        "number": 64,
                        "time": 172.68708939583394,
                        "value": 0
                    },
                    {
                        "number": 64,
                        "time": 172.74458062083394,
                        "value": 1
                    },
                    {
                        "number": 64,
                        "time": 172.9005037916673,
                        "value": 0
                    },
                    {
                        "number": 64,
                        "time": 172.95363962083397,
                        "value": 1
                    },
                    {
                        "number": 64,
                        "time": 173.10956279166732,
                        "value": 0
                    },
                    {
                        "number": 64,
                        "time": 173.15660106666732,
                        "value": 1
                    },
                    {
                        "number": 64,
                        "time": 173.31775071250064,
                        "value": 0
                    },
                    {
                        "number": 64,
                        "time": 173.36566006666732,
                        "value": 1
                    },
                    {
                        "number": 64,
                        "time": 173.52680971250064,
                        "value": 0
                    },
                    {
                        "number": 64,
                        "time": 173.5877852541673,
                        "value": 1
                    },
                    {
                        "number": 64,
                        "time": 173.73848195000065,
                        "value": 0
                    },
                    {
                        "number": 64,
                        "time": 173.83255850000066,
                        "value": 1
                    },
                    {
                        "number": 64,
                        "time": 173.93708800000067,
                        "value": 0
                    },
                    {
                        "number": 64,
                        "time": 174.207993620834,
                        "value": 1
                    },
                    {
                        "number": 64,
                        "time": 174.36391679166735,
                        "value": 0
                    },
                    {
                        "number": 64,
                        "time": 174.41705262083403,
                        "value": 1
                    },
                    {
                        "number": 64,
                        "time": 174.57297579166737,
                        "value": 0
                    },
                    {
                        "number": 64,
                        "time": 174.62001406666738,
                        "value": 1
                    },
                    {
                        "number": 64,
                        "time": 174.7811637125007,
                        "value": 0
                    },
                    {
                        "number": 64,
                        "time": 174.82907306666738,
                        "value": 1
                    },
                    {
                        "number": 64,
                        "time": 174.9902227125007,
                        "value": 0
                    },
                    {
                        "number": 64,
                        "time": 175.05119825416736,
                        "value": 1
                    },
                    {
                        "number": 64,
                        "time": 175.19579739583403,
                        "value": 0
                    },
                    {
                        "number": 64,
                        "time": 175.25328862083404,
                        "value": 1
                    },
                    {
                        "number": 64,
                        "time": 175.4092117916674,
                        "value": 0
                    },
                    {
                        "number": 64,
                        "time": 175.46234762083407,
                        "value": 1
                    },
                    {
                        "number": 64,
                        "time": 175.6182707916674,
                        "value": 0
                    },
                    {
                        "number": 64,
                        "time": 175.66530906666742,
                        "value": 1
                    },
                    {
                        "number": 64,
                        "time": 175.82645871250074,
                        "value": 0
                    },
                    {
                        "number": 64,
                        "time": 175.87436806666742,
                        "value": 1
                    },
                    {
                        "number": 64,
                        "time": 176.03551771250073,
                        "value": 0
                    },
                    {
                        "number": 64,
                        "time": 176.0964932541674,
                        "value": 1
                    },
                    {
                        "number": 64,
                        "time": 176.24718995000075,
                        "value": 0
                    },
                    {
                        "number": 64,
                        "time": 176.34126650000076,
                        "value": 1
                    },
                    {
                        "number": 64,
                        "time": 176.44579600000077,
                        "value": 0
                    },
                    {
                        "number": 64,
                        "time": 176.7167016208341,
                        "value": 1
                    },
                    {
                        "number": 64,
                        "time": 176.87262479166745,
                        "value": 0
                    },
                    {
                        "number": 64,
                        "time": 176.92576062083413,
                        "value": 1
                    },
                    {
                        "number": 64,
                        "time": 177.08168379166747,
                        "value": 0
                    },
                    {
                        "number": 64,
                        "time": 177.12872206666748,
                        "value": 1
                    },
                    {
                        "number": 64,
                        "time": 177.2898717125008,
                        "value": 0
                    },
                    {
                        "number": 64,
                        "time": 177.33778106666747,
                        "value": 1
                    },
                    {
                        "number": 64,
                        "time": 177.4989307125008,
                        "value": 0
                    },
                    {
                        "number": 64,
                        "time": 177.55990625416746,
                        "value": 1
                    },
                    {
                        "number": 64,
                        "time": 177.7001500000008,
                        "value": 0
                    },
                    {
                        "number": 64,
                        "time": 177.97105562083414,
                        "value": 1
                    },
                    {
                        "number": 64,
                        "time": 178.12697879166748,
                        "value": 0
                    },
                    {
                        "number": 64,
                        "time": 178.18011462083416,
                        "value": 1
                    },
                    {
                        "number": 64,
                        "time": 178.3360377916675,
                        "value": 0
                    },
                    {
                        "number": 64,
                        "time": 178.3830760666675,
                        "value": 1
                    },
                    {
                        "number": 64,
                        "time": 178.54422571250083,
                        "value": 0
                    },
                    {
                        "number": 64,
                        "time": 178.5921350666675,
                        "value": 1
                    },
                    {
                        "number": 64,
                        "time": 178.75328471250083,
                        "value": 0
                    },
                    {
                        "number": 64,
                        "time": 178.8142602541675,
                        "value": 1
                    },
                    {
                        "number": 64,
                        "time": 178.95450400000084,
                        "value": 0
                    },
                    {
                        "number": 64,
                        "time": 179.22540962083417,
                        "value": 1
                    },
                    {
                        "number": 64,
                        "time": 179.38133279166752,
                        "value": 0
                    },
                    {
                        "number": 64,
                        "time": 179.4344686208342,
                        "value": 1
                    },
                    {
                        "number": 64,
                        "time": 179.59039179166754,
                        "value": 0
                    },
                    {
                        "number": 64,
                        "time": 179.63743006666755,
                        "value": 1
                    },
                    {
                        "number": 64,
                        "time": 179.79857971250087,
                        "value": 0
                    },
                    {
                        "number": 64,
                        "time": 179.84648906666754,
                        "value": 1
                    },
                    {
                        "number": 64,
                        "time": 180.00763871250086,
                        "value": 0
                    },
                    {
                        "number": 64,
                        "time": 180.06861425416753,
                        "value": 1
                    },
                    {
                        "number": 64,
                        "time": 180.20885800000087,
                        "value": 0
                    },
                    {
                        "number": 64,
                        "time": 180.4797636208342,
                        "value": 1
                    },
                    {
                        "number": 64,
                        "time": 180.63568679166755,
                        "value": 0
                    },
                    {
                        "number": 64,
                        "time": 180.68882262083423,
                        "value": 1
                    },
                    {
                        "number": 64,
                        "time": 180.84474579166758,
                        "value": 0
                    },
                    {
                        "number": 64,
                        "time": 180.89178406666758,
                        "value": 1
                    },
                    {
                        "number": 64,
                        "time": 181.0529337125009,
                        "value": 0
                    },
                    {
                        "number": 64,
                        "time": 181.10084306666758,
                        "value": 1
                    },
                    {
                        "number": 64,
                        "time": 181.2619927125009,
                        "value": 0
                    },
                    {
                        "number": 64,
                        "time": 181.32296825416756,
                        "value": 1
                    },
                    {
                        "number": 64,
                        "time": 181.4632120000009,
                        "value": 0
                    },
                    {
                        "number": 64,
                        "time": 181.5180899875009,
                        "value": 1
                    },
                    {
                        "number": 64,
                        "time": 182.1034551875009,
                        "value": 0
                    },
                    {
                        "number": 64,
                        "time": 182.1304586416676,
                        "value": 1
                    },
                    {
                        "number": 64,
                        "time": 182.71756600000091,
                        "value": 0
                    },
                    {
                        "number": 64,
                        "time": 182.98847162083425,
                        "value": 1
                    },
                    {
                        "number": 64,
                        "time": 183.1443947916676,
                        "value": 0
                    },
                    {
                        "number": 64,
                        "time": 183.19753062083427,
                        "value": 1
                    },
                    {
                        "number": 64,
                        "time": 183.35345379166762,
                        "value": 0
                    },
                    {
                        "number": 64,
                        "time": 183.40049206666762,
                        "value": 1
                    },
                    {
                        "number": 64,
                        "time": 183.56164171250094,
                        "value": 0
                    },
                    {
                        "number": 64,
                        "time": 183.60955106666762,
                        "value": 1
                    },
                    {
                        "number": 64,
                        "time": 183.77070071250094,
                        "value": 0
                    },
                    {
                        "number": 64,
                        "time": 183.8316762541676,
                        "value": 1
                    },
                    {
                        "number": 64,
                        "time": 183.97192000000095,
                        "value": 0
                    },
                    {
                        "number": 64,
                        "time": 184.02679798750094,
                        "value": 1
                    },
                    {
                        "number": 64,
                        "time": 184.61216318750095,
                        "value": 0
                    },
                    {
                        "number": 64,
                        "time": 184.63916664166763,
                        "value": 1
                    },
                    {
                        "number": 64,
                        "time": 185.22627400000096,
                        "value": 0
                    },
                    {
                        "number": 64,
                        "time": 185.4971796208343,
                        "value": 1
                    },
                    {
                        "number": 64,
                        "time": 185.65310279166764,
                        "value": 0
                    },
                    {
                        "number": 64,
                        "time": 185.7062386208343,
                        "value": 1
                    },
                    {
                        "number": 64,
                        "time": 185.86216179166766,
                        "value": 0
                    },
                    {
                        "number": 64,
                        "time": 185.90920006666767,
                        "value": 1
                    },
                    {
                        "number": 64,
                        "time": 186.07034971250098,
                        "value": 0
                    },
                    {
                        "number": 64,
                        "time": 186.11825906666766,
                        "value": 1
                    },
                    {
                        "number": 64,
                        "time": 186.27940871250098,
                        "value": 0
                    },
                    {
                        "number": 64,
                        "time": 186.34038425416765,
                        "value": 1
                    },
                    {
                        "number": 64,
                        "time": 186.480628000001,
                        "value": 0
                    },
                    {
                        "number": 64,
                        "time": 186.53550598750098,
                        "value": 1
                    },
                    {
                        "number": 64,
                        "time": 187.120871187501,
                        "value": 0
                    },
                    {
                        "number": 64,
                        "time": 187.14787464166767,
                        "value": 1
                    },
                    {
                        "number": 64,
                        "time": 187.734982000001,
                        "value": 0
                    },
                    {
                        "number": 64,
                        "time": 187.847351212501,
                        "value": 1
                    },
                    {
                        "number": 64,
                        "time": 188.375225187501,
                        "value": 0
                    },
                    {
                        "number": 64,
                        "time": 188.40222864166768,
                        "value": 1
                    },
                    {
                        "number": 64,
                        "time": 188.989336000001,
                        "value": 0
                    },
                    {
                        "number": 64,
                        "time": 189.101705212501,
                        "value": 1
                    },
                    {
                        "number": 64,
                        "time": 189.629579187501,
                        "value": 0
                    },
                    {
                        "number": 64,
                        "time": 189.65658264166768,
                        "value": 1
                    },
                    {
                        "number": 64,
                        "time": 190.243690000001,
                        "value": 0
                    },
                    {
                        "number": 64,
                        "time": 190.356059212501,
                        "value": 1
                    },
                    {
                        "number": 64,
                        "time": 190.88393318750101,
                        "value": 0
                    },
                    {
                        "number": 64,
                        "time": 190.9109366416677,
                        "value": 1
                    },
                    {
                        "number": 64,
                        "time": 191.49804400000102,
                        "value": 0
                    },
                    {
                        "number": 64,
                        "time": 191.61041321250102,
                        "value": 1
                    },
                    {
                        "number": 64,
                        "time": 192.13828718750102,
                        "value": 0
                    },
                    {
                        "number": 64,
                        "time": 192.1652906416677,
                        "value": 1
                    },
                    {
                        "number": 64,
                        "time": 192.75239800000102,
                        "value": 0
                    },
                    {
                        "number": 64,
                        "time": 192.86476721250102,
                        "value": 1
                    },
                    {
                        "number": 64,
                        "time": 193.39264118750103,
                        "value": 0
                    },
                    {
                        "number": 64,
                        "time": 193.4196446416677,
                        "value": 1
                    },
                    {
                        "number": 64,
                        "time": 194.0468216416677,
                        "value": 0
                    },
                    {
                        "number": 64,
                        "time": 194.116507975001,
                        "value": 1
                    },
                    {
                        "number": 64,
                        "time": 194.63828439583435,
                        "value": 0
                    },
                    {
                        "number": 64,
                        "time": 194.73410310416767,
                        "value": 1
                    },
                    {
                        "number": 64,
                        "time": 195.261106000001,
                        "value": 0
                    },
                    {
                        "number": 64,
                        "time": 195.30901535416768,
                        "value": 1
                    },
                    {
                        "number": 64,
                        "time": 195.89350947500103,
                        "value": 0
                    },
                    {
                        "number": 64,
                        "time": 195.9257394041677,
                        "value": 1
                    },
                    {
                        "number": 64,
                        "time": 196.5555296416677,
                        "value": 0
                    },
                    {
                        "number": 64,
                        "time": 196.62521597500103,
                        "value": 1
                    },
                    {
                        "number": 64,
                        "time": 197.14699239583436,
                        "value": 0
                    },
                    {
                        "number": 64,
                        "time": 197.24281110416769,
                        "value": 1
                    },
                    {
                        "number": 64,
                        "time": 197.76981400000102,
                        "value": 0
                    },
                    {
                        "number": 64,
                        "time": 197.8177233541677,
                        "value": 1
                    },
                    {
                        "number": 64,
                        "time": 198.40221747500104,
                        "value": 0
                    },
                    {
                        "number": 64,
                        "time": 198.4344474041677,
                        "value": 1
                    },
                    {
                        "number": 64,
                        "time": 199.02416800000105,
                        "value": 0
                    },
                    {
                        "number": 64,
                        "time": 199.07207735416773,
                        "value": 1
                    },
                    {
                        "number": 64,
                        "time": 199.65657147500107,
                        "value": 0
                    },
                    {
                        "number": 64,
                        "time": 199.68880140416775,
                        "value": 1
                    },
                    {
                        "number": 64,
                        "time": 200.2785220000011,
                        "value": 0
                    },
                    {
                        "number": 64,
                        "time": 200.32643135416777,
                        "value": 1
                    },
                    {
                        "number": 64,
                        "time": 200.9109254750011,
                        "value": 0
                    },
                    {
                        "number": 64,
                        "time": 200.94315540416778,
                        "value": 1
                    },
                    {
                        "number": 64,
                        "time": 201.53287600000112,
                        "value": 0
                    },
                    {
                        "number": 64,
                        "time": 201.5807853541678,
                        "value": 1
                    },
                    {
                        "number": 64,
                        "time": 202.16527947500114,
                        "value": 0
                    },
                    {
                        "number": 64,
                        "time": 202.19750940416782,
                        "value": 1
                    },
                    {
                        "number": 64,
                        "time": 202.78723000000116,
                        "value": 0
                    },
                    {
                        "number": 64,
                        "time": 202.83513935416784,
                        "value": 1
                    },
                    {
                        "number": 64,
                        "time": 203.41963347500118,
                        "value": 0
                    },
                    {
                        "number": 64,
                        "time": 203.45186340416785,
                        "value": 1
                    },
                    {
                        "number": 64,
                        "time": 204.0537791083345,
                        "value": 0
                    },
                    {
                        "number": 64,
                        "time": 204.14611350000118,
                        "value": 1
                    },
                    {
                        "number": 64,
                        "time": 205.29593800000117,
                        "value": 0
                    },
                    {
                        "number": 64,
                        "time": 205.34820275000118,
                        "value": 1
                    },
                    {
                        "number": 64,
                        "time": 206.55029200000118,
                        "value": 0
                    },
                    {
                        "number": 64,
                        "time": 206.60255675000118,
                        "value": 1
                    },
                    {
                        "number": 64,
                        "time": 207.18879302916784,
                        "value": 0
                    },
                    {
                        "number": 64,
                        "time": 207.25760828333452,
                        "value": 1
                    },
                    {
                        "number": 64,
                        "time": 207.3969809500012,
                        "value": 0
                    },
                    {
                        "number": 64,
                        "time": 207.4727648375012,
                        "value": 1
                    },
                    {
                        "number": 64,
                        "time": 207.60342671250118,
                        "value": 0
                    },
                    {
                        "number": 64,
                        "time": 207.66962872916784,
                        "value": 1
                    },
                    {
                        "number": 64,
                        "time": 207.81422787083451,
                        "value": 0
                    },
                    {
                        "number": 64,
                        "time": 208.0023809708345,
                        "value": 1
                    },
                    {
                        "number": 64,
                        "time": 208.6644011375012,
                        "value": 0
                    },
                    {
                        "number": 64,
                        "time": 209.0711951083345,
                        "value": 0
                    },
                    {
                        "number": 64,
                        "time": 209.16352950000118,
                        "value": 1
                    },
                    {
                        "number": 64,
                        "time": 210.31335400000117,
                        "value": 0
                    },
                    {
                        "number": 64,
                        "time": 210.31335400000117,
                        "value": 0
                    },
                    {
                        "number": 64,
                        "time": 210.36561875000118,
                        "value": 1
                    },
                    {
                        "number": 64,
                        "time": 211.56770800000118,
                        "value": 0
                    },
                    {
                        "number": 64,
                        "time": 211.56770800000118,
                        "value": 0
                    },
                    {
                        "number": 64,
                        "time": 211.61561735416785,
                        "value": 1
                    },
                    {
                        "number": 64,
                        "time": 212.20620902916787,
                        "value": 0
                    },
                    {
                        "number": 64,
                        "time": 212.20620902916787,
                        "value": 0
                    },
                    {
                        "number": 64,
                        "time": 212.27502428333455,
                        "value": 1
                    },
                    {
                        "number": 64,
                        "time": 212.27502428333455,
                        "value": 1
                    },
                    {
                        "number": 64,
                        "time": 212.41439695000122,
                        "value": 0
                    },
                    {
                        "number": 64,
                        "time": 212.41439695000122,
                        "value": 0
                    },
                    {
                        "number": 64,
                        "time": 212.4901808375012,
                        "value": 1
                    },
                    {
                        "number": 64,
                        "time": 212.4901808375012,
                        "value": 1
                    },
                    {
                        "number": 64,
                        "time": 212.6208427125012,
                        "value": 0
                    },
                    {
                        "number": 64,
                        "time": 212.6208427125012,
                        "value": 0
                    },
                    {
                        "number": 64,
                        "time": 212.68704472916787,
                        "value": 1
                    },
                    {
                        "number": 64,
                        "time": 212.68704472916787,
                        "value": 1
                    },
                    {
                        "number": 64,
                        "time": 212.83164387083454,
                        "value": 0
                    },
                    {
                        "number": 64,
                        "time": 212.83164387083454,
                        "value": 0
                    },
                    {
                        "number": 64,
                        "time": 213.01979697083453,
                        "value": 1
                    },
                    {
                        "number": 64,
                        "time": 213.01979697083453,
                        "value": 1
                    },
                    {
                        "number": 64,
                        "time": 213.51892533333452,
                        "value": 0
                    },
                    {
                        "number": 64,
                        "time": 213.63826317916786,
                        "value": 1
                    },
                    {
                        "number": 64,
                        "time": 213.68181713750118,
                        "value": 0
                    },
                    {
                        "number": 64,
                        "time": 214.08251355416786,
                        "value": 1
                    },
                    {
                        "number": 64,
                        "time": 214.86909804166785,
                        "value": 0
                    },
                    {
                        "number": 64,
                        "time": 214.91265200000117,
                        "value": 1
                    },
                    {
                        "number": 64,
                        "time": 215.6539403708345,
                        "value": 0
                    },
                    {
                        "number": 64,
                        "time": 215.74888800000116,
                        "value": 0
                    },
                    {
                        "number": 64,
                        "time": 215.80115275000117,
                        "value": 1
                    },
                    {
                        "number": 64,
                        "time": 216.38738902916782,
                        "value": 0
                    },
                    {
                        "number": 64,
                        "time": 216.4562042833345,
                        "value": 1
                    },
                    {
                        "number": 64,
                        "time": 216.59557695000117,
                        "value": 0
                    },
                    {
                        "number": 64,
                        "time": 216.67136083750117,
                        "value": 1
                    },
                    {
                        "number": 64,
                        "time": 216.80202271250116,
                        "value": 0
                    },
                    {
                        "number": 64,
                        "time": 216.86822472916782,
                        "value": 1
                    },
                    {
                        "number": 64,
                        "time": 217.01195279166782,
                        "value": 0
                    },
                    {
                        "number": 64,
                        "time": 217.07989696666783,
                        "value": 1
                    },
                    {
                        "number": 64,
                        "time": 218.25759600000117,
                        "value": 0
                    },
                    {
                        "number": 64,
                        "time": 218.32554017500118,
                        "value": 1
                    },
                    {
                        "number": 64,
                        "time": 219.05027804166784,
                        "value": 0
                    },
                    {
                        "number": 64,
                        "time": 219.09383200000116,
                        "value": 1
                    },
                    {
                        "number": 64,
                        "time": 219.81073015416783,
                        "value": 0
                    },
                    {
                        "number": 64,
                        "time": 219.98233275000115,
                        "value": 1
                    },
                    {
                        "number": 64,
                        "time": 220.5685690291678,
                        "value": 0
                    },
                    {
                        "number": 64,
                        "time": 220.63738428333448,
                        "value": 1
                    },
                    {
                        "number": 64,
                        "time": 220.77675695000116,
                        "value": 0
                    },
                    {
                        "number": 64,
                        "time": 220.85254083750115,
                        "value": 1
                    },
                    {
                        "number": 64,
                        "time": 220.98320271250114,
                        "value": 0
                    },
                    {
                        "number": 64,
                        "time": 221.0494047291678,
                        "value": 1
                    },
                    {
                        "number": 64,
                        "time": 221.18442200000115,
                        "value": 0
                    },
                    {
                        "number": 64,
                        "time": 221.23668675000116,
                        "value": 1
                    },
                    {
                        "number": 64,
                        "time": 221.8229230291678,
                        "value": 0
                    },
                    {
                        "number": 64,
                        "time": 221.8917382833345,
                        "value": 1
                    },
                    {
                        "number": 64,
                        "time": 222.03111095000116,
                        "value": 0
                    },
                    {
                        "number": 64,
                        "time": 222.10689483750116,
                        "value": 1
                    },
                    {
                        "number": 64,
                        "time": 222.23755671250115,
                        "value": 0
                    },
                    {
                        "number": 64,
                        "time": 222.3037587291678,
                        "value": 1
                    },
                    {
                        "number": 64,
                        "time": 222.43877600000116,
                        "value": 0
                    },
                    {
                        "number": 64,
                        "time": 222.49104075000116,
                        "value": 1
                    },
                    {
                        "number": 64,
                        "time": 223.07727702916782,
                        "value": 0
                    },
                    {
                        "number": 64,
                        "time": 223.1460922833345,
                        "value": 1
                    },
                    {
                        "number": 64,
                        "time": 223.28546495000117,
                        "value": 0
                    },
                    {
                        "number": 64,
                        "time": 223.36124883750117,
                        "value": 1
                    },
                    {
                        "number": 64,
                        "time": 223.49191071250115,
                        "value": 0
                    },
                    {
                        "number": 64,
                        "time": 223.55811272916782,
                        "value": 1
                    },
                    {
                        "number": 64,
                        "time": 223.69313000000116,
                        "value": 0
                    },
                    {
                        "number": 64,
                        "time": 223.74539475000117,
                        "value": 1
                    },
                    {
                        "number": 64,
                        "time": 224.33163102916782,
                        "value": 0
                    },
                    {
                        "number": 64,
                        "time": 224.4004462833345,
                        "value": 1
                    },
                    {
                        "number": 64,
                        "time": 224.53981895000118,
                        "value": 0
                    },
                    {
                        "number": 64,
                        "time": 224.61560283750117,
                        "value": 1
                    },
                    {
                        "number": 64,
                        "time": 224.74626471250116,
                        "value": 0
                    },
                    {
                        "number": 64,
                        "time": 224.81246672916782,
                        "value": 1
                    },
                    {
                        "number": 64,
                        "time": 224.94748400000117,
                        "value": 0
                    },
                    {
                        "number": 64,
                        "time": 224.99974875000117,
                        "value": 1
                    },
                    {
                        "number": 64,
                        "time": 225.17048026666785,
                        "value": 0
                    },
                    {
                        "number": 64,
                        "time": 225.25061955000118,
                        "value": 1
                    },
                    {
                        "number": 64,
                        "time": 225.3551490500012,
                        "value": 0
                    },
                    {
                        "number": 64,
                        "time": 225.4091559583345,
                        "value": 1
                    },
                    {
                        "number": 64,
                        "time": 225.51020114166784,
                        "value": 0
                    },
                    {
                        "number": 64,
                        "time": 225.61473064166785,
                        "value": 1
                    },
                    {
                        "number": 64,
                        "time": 225.8272739583345,
                        "value": 0
                    },
                    {
                        "number": 64,
                        "time": 225.87779655000116,
                        "value": 1
                    },
                    {
                        "number": 64,
                        "time": 225.9710020208345,
                        "value": 0
                    },
                    {
                        "number": 64,
                        "time": 226.07204720416783,
                        "value": 1
                    },
                    {
                        "number": 64,
                        "time": 226.14783109166783,
                        "value": 0
                    },
                    {
                        "number": 64,
                        "time": 226.25410275000115,
                        "value": 1
                    },
                    {
                        "number": 64,
                        "time": 226.42483426666783,
                        "value": 0
                    },
                    {
                        "number": 64,
                        "time": 226.50497355000115,
                        "value": 1
                    },
                    {
                        "number": 64,
                        "time": 226.60950305000117,
                        "value": 0
                    },
                    {
                        "number": 64,
                        "time": 226.6635099583345,
                        "value": 1
                    },
                    {
                        "number": 64,
                        "time": 226.7645551416678,
                        "value": 0
                    },
                    {
                        "number": 64,
                        "time": 226.86908464166783,
                        "value": 1
                    },
                    {
                        "number": 64,
                        "time": 227.05114018750115,
                        "value": 0
                    },
                    {
                        "number": 64,
                        "time": 227.13215055000114,
                        "value": 1
                    },
                    {
                        "number": 64,
                        "time": 227.22535602083448,
                        "value": 0
                    },
                    {
                        "number": 64,
                        "time": 227.3264012041678,
                        "value": 1
                    },
                    {
                        "number": 64,
                        "time": 227.4021850916678,
                        "value": 0
                    },
                    {
                        "number": 64,
                        "time": 227.47100034583448,
                        "value": 0
                    },
                    {
                        "number": 64,
                        "time": 227.49887487916783,
                        "value": 1
                    },
                    {
                        "number": 64,
                        "time": 227.8891183458345,
                        "value": 0
                    },
                    {
                        "number": 64,
                        "time": 227.92221935416785,
                        "value": 1
                    },
                    {
                        "number": 64,
                        "time": 228.30723634583453,
                        "value": 0
                    },
                    {
                        "number": 64,
                        "time": 228.33511087916787,
                        "value": 1
                    },
                    {
                        "number": 64,
                        "time": 228.72535434583455,
                        "value": 0
                    },
                    {
                        "number": 64,
                        "time": 228.7584553541679,
                        "value": 1
                    },
                    {
                        "number": 64,
                        "time": 229.12866400000124,
                        "value": 0
                    },
                    {
                        "number": 64,
                        "time": 229.12866400000124,
                        "value": 0
                    },
                    {
                        "number": 64,
                        "time": 229.18092875000124,
                        "value": 1
                    },
                    {
                        "number": 64,
                        "time": 229.55200847500123,
                        "value": 0
                    },
                    {
                        "number": 64,
                        "time": 229.7959106416679,
                        "value": 1
                    },
                    {
                        "number": 64,
                        "time": 230.19922029583455,
                        "value": 0
                    },
                    {
                        "number": 64,
                        "time": 230.38301800000121,
                        "value": 0
                    },
                    {
                        "number": 64,
                        "time": 230.38301800000121,
                        "value": 0
                    },
                    {
                        "number": 64,
                        "time": 230.43528275000122,
                        "value": 1
                    },
                    {
                        "number": 64,
                        "time": 230.8063624750012,
                        "value": 0
                    },
                    {
                        "number": 64,
                        "time": 231.05026464166787,
                        "value": 1
                    },
                    {
                        "number": 64,
                        "time": 231.45357429583453,
                        "value": 0
                    },
                    {
                        "number": 64,
                        "time": 231.6373720000012,
                        "value": 0
                    },
                    {
                        "number": 64,
                        "time": 231.6373720000012,
                        "value": 0
                    },
                    {
                        "number": 64,
                        "time": 231.6896367500012,
                        "value": 1
                    },
                    {
                        "number": 64,
                        "time": 232.0607164750012,
                        "value": 0
                    },
                    {
                        "number": 64,
                        "time": 232.30461864166784,
                        "value": 1
                    },
                    {
                        "number": 64,
                        "time": 232.7079282958345,
                        "value": 0
                    },
                    {
                        "number": 64,
                        "time": 232.89172600000117,
                        "value": 0
                    },
                    {
                        "number": 64,
                        "time": 232.89172600000117,
                        "value": 0
                    },
                    {
                        "number": 64,
                        "time": 232.94399075000118,
                        "value": 1
                    },
                    {
                        "number": 64,
                        "time": 233.31507047500116,
                        "value": 0
                    },
                    {
                        "number": 64,
                        "time": 233.55897264166782,
                        "value": 1
                    },
                    {
                        "number": 64,
                        "time": 233.96228229583448,
                        "value": 0
                    },
                    {
                        "number": 64,
                        "time": 234.14608000000115,
                        "value": 0
                    },
                    {
                        "number": 64,
                        "time": 234.14608000000115,
                        "value": 0
                    },
                    {
                        "number": 64,
                        "time": 234.19834475000116,
                        "value": 1
                    },
                    {
                        "number": 64,
                        "time": 234.56942447500114,
                        "value": 0
                    },
                    {
                        "number": 64,
                        "time": 234.8133266416678,
                        "value": 1
                    },
                    {
                        "number": 64,
                        "time": 235.21663629583446,
                        "value": 0
                    },
                    {
                        "number": 64,
                        "time": 235.40043400000113,
                        "value": 0
                    },
                    {
                        "number": 64,
                        "time": 235.40043400000113,
                        "value": 0
                    },
                    {
                        "number": 64,
                        "time": 235.45269875000113,
                        "value": 1
                    },
                    {
                        "number": 64,
                        "time": 235.82377847500112,
                        "value": 0
                    },
                    {
                        "number": 64,
                        "time": 236.06768064166778,
                        "value": 1
                    },
                    {
                        "number": 64,
                        "time": 236.47099029583444,
                        "value": 0
                    },
                    {
                        "number": 64,
                        "time": 236.6547880000011,
                        "value": 0
                    },
                    {
                        "number": 64,
                        "time": 236.6547880000011,
                        "value": 0
                    },
                    {
                        "number": 64,
                        "time": 236.7070527500011,
                        "value": 1
                    },
                    {
                        "number": 64,
                        "time": 237.0781324750011,
                        "value": 0
                    },
                    {
                        "number": 64,
                        "time": 237.32203464166776,
                        "value": 1
                    },
                    {
                        "number": 64,
                        "time": 237.72534429583442,
                        "value": 0
                    },
                    {
                        "number": 64,
                        "time": 237.90914200000108,
                        "value": 0
                    },
                    {
                        "number": 64,
                        "time": 237.90914200000108,
                        "value": 0
                    },
                    {
                        "number": 64,
                        "time": 237.9614067500011,
                        "value": 1
                    },
                    {
                        "number": 64,
                        "time": 238.33248647500108,
                        "value": 0
                    },
                    {
                        "number": 64,
                        "time": 238.57638864166773,
                        "value": 1
                    },
                    {
                        "number": 64,
                        "time": 238.9796982958344,
                        "value": 0
                    },
                    {
                        "number": 64,
                        "time": 239.16349600000106,
                        "value": 0
                    },
                    {
                        "number": 64,
                        "time": 239.27412305416772,
                        "value": 1
                    },
                    {
                        "number": 64,
                        "time": 239.48056881666773,
                        "value": 0
                    },
                    {
                        "number": 64,
                        "time": 239.55112622916772,
                        "value": 1
                    },
                    {
                        "number": 64,
                        "time": 239.7993837916677,
                        "value": 0
                    },
                    {
                        "number": 64,
                        "time": 239.88300739166772,
                        "value": 1
                    },
                    {
                        "number": 64,
                        "time": 240.41785000000104,
                        "value": 0
                    },
                    {
                        "number": 64,
                        "time": 240.47011475000104,
                        "value": 1
                    },
                    {
                        "number": 64,
                        "time": 240.73927821250103,
                        "value": 0
                    },
                    {
                        "number": 64,
                        "time": 240.7898008041677,
                        "value": 1
                    },
                    {
                        "number": 64,
                        "time": 241.05460887083436,
                        "value": 0
                    },
                    {
                        "number": 64,
                        "time": 241.10687362083436,
                        "value": 1
                    },
                    {
                        "number": 64,
                        "time": 241.67220400000102,
                        "value": 0
                    },
                    {
                        "number": 64,
                        "time": 241.78283105416767,
                        "value": 1
                    },
                    {
                        "number": 64,
                        "time": 241.98927681666768,
                        "value": 0
                    },
                    {
                        "number": 64,
                        "time": 242.03457293333435,
                        "value": 1
                    },
                    {
                        "number": 64,
                        "time": 242.3080917916677,
                        "value": 0
                    },
                    {
                        "number": 64,
                        "time": 242.35774330416768,
                        "value": 1
                    },
                    {
                        "number": 64,
                        "time": 242.92655800000102,
                        "value": 0
                    },
                    {
                        "number": 64,
                        "time": 242.97882275000103,
                        "value": 1
                    },
                    {
                        "number": 64,
                        "time": 243.24798621250102,
                        "value": 0
                    },
                    {
                        "number": 64,
                        "time": 243.29850880416768,
                        "value": 1
                    },
                    {
                        "number": 64,
                        "time": 243.56331687083434,
                        "value": 0
                    },
                    {
                        "number": 64,
                        "time": 243.61558162083435,
                        "value": 1
                    },
                    {
                        "number": 64,
                        "time": 244.180912000001,
                        "value": 0
                    },
                    {
                        "number": 64,
                        "time": 244.29153905416766,
                        "value": 1
                    },
                    {
                        "number": 64,
                        "time": 244.49798481666767,
                        "value": 0
                    },
                    {
                        "number": 64,
                        "time": 244.580737337501,
                        "value": 1
                    },
                    {
                        "number": 64,
                        "time": 244.81679979166768,
                        "value": 0
                    },
                    {
                        "number": 64,
                        "time": 244.876033175001,
                        "value": 1
                    },
                    {
                        "number": 64,
                        "time": 245.435266000001,
                        "value": 0
                    },
                    {
                        "number": 64,
                        "time": 245.487530750001,
                        "value": 1
                    },
                    {
                        "number": 64,
                        "time": 245.756694212501,
                        "value": 0
                    },
                    {
                        "number": 64,
                        "time": 245.80721680416767,
                        "value": 1
                    },
                    {
                        "number": 64,
                        "time": 246.07202487083433,
                        "value": 0
                    },
                    {
                        "number": 64,
                        "time": 246.12428962083433,
                        "value": 1
                    },
                    {
                        "number": 64,
                        "time": 246.68962000000099,
                        "value": 0
                    },
                    {
                        "number": 64,
                        "time": 246.80024705416764,
                        "value": 1
                    },
                    {
                        "number": 64,
                        "time": 247.00669281666765,
                        "value": 0
                    },
                    {
                        "number": 64,
                        "time": 247.05198893333431,
                        "value": 1
                    },
                    {
                        "number": 64,
                        "time": 247.32550779166766,
                        "value": 0
                    },
                    {
                        "number": 64,
                        "time": 247.37515930416765,
                        "value": 1
                    },
                    {
                        "number": 64,
                        "time": 247.943974000001,
                        "value": 0
                    },
                    {
                        "number": 64,
                        "time": 247.996238750001,
                        "value": 1
                    },
                    {
                        "number": 64,
                        "time": 248.265402212501,
                        "value": 0
                    },
                    {
                        "number": 64,
                        "time": 248.31592480416765,
                        "value": 1
                    },
                    {
                        "number": 64,
                        "time": 248.5807328708343,
                        "value": 0
                    },
                    {
                        "number": 64,
                        "time": 248.63299762083432,
                        "value": 1
                    },
                    {
                        "number": 64,
                        "time": 249.19832800000097,
                        "value": 0
                    },
                    {
                        "number": 64,
                        "time": 249.30895505416763,
                        "value": 1
                    },
                    {
                        "number": 64,
                        "time": 249.51540081666764,
                        "value": 0
                    },
                    {
                        "number": 64,
                        "time": 249.5606969333343,
                        "value": 1
                    },
                    {
                        "number": 64,
                        "time": 249.83421579166765,
                        "value": 0
                    },
                    {
                        "number": 64,
                        "time": 249.88386730416764,
                        "value": 1
                    },
                    {
                        "number": 64,
                        "time": 250.45268200000098,
                        "value": 0
                    },
                    {
                        "number": 64,
                        "time": 250.50494675000098,
                        "value": 1
                    },
                    {
                        "number": 64,
                        "time": 250.77411021250097,
                        "value": 0
                    },
                    {
                        "number": 64,
                        "time": 250.82463280416763,
                        "value": 1
                    },
                    {
                        "number": 64,
                        "time": 251.0894408708343,
                        "value": 0
                    },
                    {
                        "number": 64,
                        "time": 251.1417056208343,
                        "value": 1
                    },
                    {
                        "number": 64,
                        "time": 251.70703600000095,
                        "value": 0
                    },
                    {
                        "number": 64,
                        "time": 251.77062477916763,
                        "value": 1
                    },
                    {
                        "number": 64,
                        "time": 252.02846421250098,
                        "value": 0
                    },
                    {
                        "number": 64,
                        "time": 252.07898680416764,
                        "value": 1
                    },
                    {
                        "number": 64,
                        "time": 252.3437948708343,
                        "value": 0
                    },
                    {
                        "number": 64,
                        "time": 252.38386451250096,
                        "value": 1
                    },
                    {
                        "number": 64,
                        "time": 252.96139000000096,
                        "value": 0
                    },
                    {
                        "number": 64,
                        "time": 252.99536208750095,
                        "value": 1
                    },
                    {
                        "number": 64,
                        "time": 253.28368929166763,
                        "value": 0
                    },
                    {
                        "number": 64,
                        "time": 253.33072756666763,
                        "value": 1
                    },
                    {
                        "number": 64,
                        "time": 253.59727779166764,
                        "value": 0
                    },
                    {
                        "number": 64,
                        "time": 253.6504136208343,
                        "value": 1
                    },
                    {
                        "number": 64,
                        "time": 253.91086629166765,
                        "value": 0
                    },
                    {
                        "number": 64,
                        "time": 253.93786974583432,
                        "value": 1
                    },
                    {
                        "number": 64,
                        "time": 254.215744000001,
                        "value": 0
                    },
                    {
                        "number": 64,
                        "time": 254.32637105416765,
                        "value": 1
                    },
                    {
                        "number": 64,
                        "time": 254.53281681666766,
                        "value": 0
                    },
                    {
                        "number": 64,
                        "time": 254.57811293333432,
                        "value": 1
                    },
                    {
                        "number": 64,
                        "time": 254.85163179166767,
                        "value": 0
                    },
                    {
                        "number": 64,
                        "time": 254.90128330416766,
                        "value": 1
                    },
                    {
                        "number": 64,
                        "time": 255.470098000001,
                        "value": 0
                    },
                    {
                        "number": 64,
                        "time": 255.522362750001,
                        "value": 1
                    },
                    {
                        "number": 64,
                        "time": 255.791526212501,
                        "value": 0
                    },
                    {
                        "number": 64,
                        "time": 255.84204880416766,
                        "value": 1
                    },
                    {
                        "number": 64,
                        "time": 256.10685687083435,
                        "value": 0
                    },
                    {
                        "number": 64,
                        "time": 256.15912162083436,
                        "value": 1
                    },
                    {
                        "number": 64,
                        "time": 256.724452000001,
                        "value": 0
                    },
                    {
                        "number": 64,
                        "time": 256.724452000001,
                        "value": 0
                    },
                    {
                        "number": 64,
                        "time": 256.78804077916766,
                        "value": 1
                    },
                    {
                        "number": 64,
                        "time": 257.045880212501,
                        "value": 0
                    },
                    {
                        "number": 64,
                        "time": 257.0868209333343,
                        "value": 1
                    },
                    {
                        "number": 64,
                        "time": 257.3612108708343,
                        "value": 0
                    },
                    {
                        "number": 64,
                        "time": 257.401280512501,
                        "value": 1
                    },
                    {
                        "number": 64,
                        "time": 257.978806000001,
                        "value": 0
                    },
                    {
                        "number": 64,
                        "time": 257.978806000001,
                        "value": 0
                    },
                    {
                        "number": 64,
                        "time": 258.012778087501,
                        "value": 1
                    },
                    {
                        "number": 64,
                        "time": 258.3011052916676,
                        "value": 0
                    },
                    {
                        "number": 64,
                        "time": 258.3481435666676,
                        "value": 1
                    },
                    {
                        "number": 64,
                        "time": 258.6146937916676,
                        "value": 0
                    },
                    {
                        "number": 64,
                        "time": 258.61556487083425,
                        "value": 0
                    },
                    {
                        "number": 64,
                        "time": 258.66782962083425,
                        "value": 1
                    },
                    {
                        "number": 64,
                        "time": 258.66782962083425,
                        "value": 1
                    },
                    {
                        "number": 64,
                        "time": 258.9282822916676,
                        "value": 0
                    },
                    {
                        "number": 64,
                        "time": 258.95528574583426,
                        "value": 1
                    },
                    {
                        "number": 64,
                        "time": 259.2331600000009,
                        "value": 0
                    },
                    {
                        "number": 64,
                        "time": 259.2331600000009,
                        "value": 0
                    },
                    {
                        "number": 64,
                        "time": 259.29674877916756,
                        "value": 1
                    },
                    {
                        "number": 64,
                        "time": 259.5545882125009,
                        "value": 0
                    },
                    {
                        "number": 64,
                        "time": 259.5955289333342,
                        "value": 1
                    },
                    {
                        "number": 64,
                        "time": 259.8699188708342,
                        "value": 0
                    },
                    {
                        "number": 64,
                        "time": 259.9099885125009,
                        "value": 1
                    },
                    {
                        "number": 64,
                        "time": 260.4875140000009,
                        "value": 0
                    },
                    {
                        "number": 64,
                        "time": 260.4875140000009,
                        "value": 0
                    },
                    {
                        "number": 64,
                        "time": 260.55110277916754,
                        "value": 1
                    },
                    {
                        "number": 64,
                        "time": 260.8089422125009,
                        "value": 0
                    },
                    {
                        "number": 64,
                        "time": 260.8498829333342,
                        "value": 1
                    },
                    {
                        "number": 64,
                        "time": 261.1242728708342,
                        "value": 0
                    },
                    {
                        "number": 64,
                        "time": 261.16434251250087,
                        "value": 1
                    },
                    {
                        "number": 64,
                        "time": 261.74186800000086,
                        "value": 0
                    },
                    {
                        "number": 64,
                        "time": 261.74186800000086,
                        "value": 0
                    },
                    {
                        "number": 64,
                        "time": 261.8054567791675,
                        "value": 1
                    },
                    {
                        "number": 64,
                        "time": 262.06329621250086,
                        "value": 0
                    },
                    {
                        "number": 64,
                        "time": 262.10423693333416,
                        "value": 1
                    },
                    {
                        "number": 64,
                        "time": 262.3786268708342,
                        "value": 0
                    },
                    {
                        "number": 64,
                        "time": 262.41869651250084,
                        "value": 1
                    },
                    {
                        "number": 64,
                        "time": 262.99622200000084,
                        "value": 0
                    },
                    {
                        "number": 64,
                        "time": 262.99622200000084,
                        "value": 0
                    },
                    {
                        "number": 64,
                        "time": 263.0598107791675,
                        "value": 1
                    },
                    {
                        "number": 64,
                        "time": 263.31765021250084,
                        "value": 0
                    },
                    {
                        "number": 64,
                        "time": 263.35859093333414,
                        "value": 1
                    },
                    {
                        "number": 64,
                        "time": 263.63298087083416,
                        "value": 0
                    },
                    {
                        "number": 64,
                        "time": 263.6730505125008,
                        "value": 1
                    },
                    {
                        "number": 64,
                        "time": 264.2505760000008,
                        "value": 0
                    },
                    {
                        "number": 64,
                        "time": 264.2505760000008,
                        "value": 0
                    },
                    {
                        "number": 64,
                        "time": 264.31416477916747,
                        "value": 1
                    },
                    {
                        "number": 64,
                        "time": 264.5720042125008,
                        "value": 0
                    },
                    {
                        "number": 64,
                        "time": 264.6129449333341,
                        "value": 1
                    },
                    {
                        "number": 64,
                        "time": 264.88733487083414,
                        "value": 0
                    },
                    {
                        "number": 64,
                        "time": 264.9274045125008,
                        "value": 1
                    },
                    {
                        "number": 64,
                        "time": 265.5049300000008,
                        "value": 0
                    },
                    {
                        "number": 64,
                        "time": 265.5049300000008,
                        "value": 0
                    },
                    {
                        "number": 64,
                        "time": 265.56851877916745,
                        "value": 1
                    },
                    {
                        "number": 64,
                        "time": 265.8263582125008,
                        "value": 0
                    },
                    {
                        "number": 64,
                        "time": 265.8672989333341,
                        "value": 1
                    },
                    {
                        "number": 64,
                        "time": 266.1416888708341,
                        "value": 0
                    },
                    {
                        "number": 64,
                        "time": 266.1817585125008,
                        "value": 1
                    },
                    {
                        "number": 64,
                        "time": 266.7592840000008,
                        "value": 0
                    },
                    {
                        "number": 64,
                        "time": 266.84552083750077,
                        "value": 1
                    },
                    {
                        "number": 64,
                        "time": 267.8943001541674,
                        "value": 0
                    },
                    {
                        "number": 64,
                        "time": 268.01363800000075,
                        "value": 0
                    },
                    {
                        "number": 64,
                        "time": 268.09987483750075,
                        "value": 1
                    },
                    {
                        "number": 64,
                        "time": 269.1486541541674,
                        "value": 0
                    },
                    {
                        "number": 64,
                        "time": 269.26799200000073,
                        "value": 0
                    },
                    {
                        "number": 64,
                        "time": 269.3542288375007,
                        "value": 1
                    },
                    {
                        "number": 64,
                        "time": 270.40300815416737,
                        "value": 0
                    },
                    {
                        "number": 64,
                        "time": 270.5223460000007,
                        "value": 0
                    },
                    {
                        "number": 64,
                        "time": 270.6085828375007,
                        "value": 1
                    },
                    {
                        "number": 64,
                        "time": 271.65736215416734,
                        "value": 0
                    },
                    {
                        "number": 64,
                        "time": 271.7767000000007,
                        "value": 0
                    },
                    {
                        "number": 64,
                        "time": 271.8629368375007,
                        "value": 1
                    },
                    {
                        "number": 64,
                        "time": 272.2967342625007,
                        "value": 0
                    },
                    {
                        "number": 64,
                        "time": 272.465723620834,
                        "value": 1
                    },
                    {
                        "number": 64,
                        "time": 272.94830147916736,
                        "value": 0
                    },
                    {
                        "number": 64,
                        "time": 273.03105400000067,
                        "value": 0
                    },
                    {
                        "number": 64,
                        "time": 273.11729083750066,
                        "value": 1
                    },
                    {
                        "number": 64,
                        "time": 273.5510882625007,
                        "value": 0
                    },
                    {
                        "number": 64,
                        "time": 273.720077620834,
                        "value": 1
                    },
                    {
                        "number": 64,
                        "time": 274.20265547916733,
                        "value": 0
                    },
                    {
                        "number": 64,
                        "time": 279.0963782375007,
                        "value": 1
                    },
                    {
                        "number": 64,
                        "time": 279.2322665875007,
                        "value": 0
                    },
                    {
                        "number": 64,
                        "time": 279.74359005833406,
                        "value": 1
                    },
                    {
                        "number": 64,
                        "time": 279.89602891250075,
                        "value": 0
                    },
                    {
                        "number": 64,
                        "time": 280.37947785000074,
                        "value": 1
                    },
                    {
                        "number": 64,
                        "time": 280.4953313791674,
                        "value": 0
                    },
                    {
                        "number": 64,
                        "time": 280.59115008750075,
                        "value": 1
                    },
                    {
                        "number": 64,
                        "time": 280.69045311250073,
                        "value": 0
                    },
                    {
                        "number": 64,
                        "time": 280.8141463541674,
                        "value": 1
                    },
                    {
                        "number": 64,
                        "time": 280.9561322583341,
                        "value": 0
                    },
                    {
                        "number": 64,
                        "time": 281.9630997750008,
                        "value": 1
                    },
                    {
                        "number": 64,
                        "time": 284.0763378333341,
                        "value": 0
                    }
                ]
            },
            "id": 3,
            "name": "Pedale",
            "instrumentNumber": 0,
            "instrument": "acoustic grand piano",
            "instrumentFamily": "piano",
            "channelNumber": 0,
            "isPercussion": false
        },
        {
            "startTime": 0,
            "duration": 0,
            "length": 0,
            "notes": [],
            "controlChanges": {},
            "id": 4,
            "name": "Liszt: Etudes d'execution transcendante No. 8"
        },
        {
            "startTime": 0,
            "duration": 0,
            "length": 0,
            "notes": [],
            "controlChanges": {},
            "id": 5,
            "name": "Copyright  2007 by Bernd Krueger"
        },
        {
            "startTime": 0,
            "duration": 0,
            "length": 0,
            "notes": [],
            "controlChanges": {},
            "id": 6,
            "name": "http://www.piano-midi.de/"
        },
        {
            "startTime": 0,
            "duration": 0,
            "length": 0,
            "notes": [],
            "controlChanges": {},
            "id": 7,
            "name": "Edition: 2014-03-06"
        },
        {
            "startTime": 0,
            "duration": 0,
            "length": 0,
            "notes": [],
            "controlChanges": {},
            "id": 8,
            "name": "Spur 8"
        },
        {
            "startTime": 0,
            "duration": 0,
            "length": 0,
            "notes": [],
            "controlChanges": {},
            "id": 9,
            "name": "Spur 9"
        },
        {
            "startTime": 0,
            "duration": 0,
            "length": 0,
            "notes": [],
            "controlChanges": {},
            "id": 10,
            "name": "Spur 10"
        },
        {
            "startTime": 0,
            "duration": 0,
            "length": 0,
            "notes": [],
            "controlChanges": {},
            "id": 11,
            "name": "Spur 11"
        },
        {
            "startTime": 0,
            "duration": 0,
            "length": 0,
            "notes": [],
            "controlChanges": {},
            "id": 12,
            "name": "Spur 12"
        },
        {
            "startTime": 0,
            "duration": 0,
            "length": 0,
            "notes": [],
            "controlChanges": {},
            "id": 13,
            "name": "Spur 13"
        },
        {
            "startTime": 0,
            "duration": 0,
            "length": 0,
            "notes": [],
            "controlChanges": {},
            "id": 14,
            "name": "Spur 14"
        },
        {
            "startTime": 0,
            "duration": 0,
            "length": 0,
            "notes": [],
            "controlChanges": {},
            "id": 15,
            "name": "Spur 15"
        },
        {
            "startTime": 0,
            "duration": 0,
            "length": 0,
            "notes": [],
            "controlChanges": {},
            "id": 16,
            "name": "Spur 16"
        }
    ]
}