{
    "header": {
        "PPQ": 480,
        "timeSignature": [
            8,
            4
        ],
        "bpm": 160.49990370005779,
        "name": "Samuel Goldenberg und Schmuyle"
    },
    "startTime": 0,
    "duration": 88.22435199999984,
    "tracks": [
        {
            "startTime": 0,
            "duration": 0,
            "length": 0,
            "notes": [],
            "controlChanges": {},
            "id": 0,
            "name": "Samuel Goldenberg und Schmuyle"
        },
        {
            "startTime": 2.943927,
            "duration": 88.22435199999978,
            "length": 660,
            "notes": [
                {
                    "name": "A#3",
                    "midi": 58,
                    "time": 2.943927,
                    "velocity": 0.6299212598425197,
                    "duration": 0.04672900000000002
                },
                {
                    "name": "F4",
                    "midi": 65,
                    "time": 2.990656,
                    "velocity": 0.6929133858267716,
                    "duration": 0.37383200000000016
                },
                {
                    "name": "E4",
                    "midi": 64,
                    "time": 3.6448620000000003,
                    "velocity": 0.6299212598425197,
                    "duration": 0.04672900000000002
                },
                {
                    "name": "F4",
                    "midi": 65,
                    "time": 3.6915910000000003,
                    "velocity": 0.6299212598425197,
                    "duration": 0.04672900000000002
                },
                {
                    "name": "E4",
                    "midi": 64,
                    "time": 3.7383200000000003,
                    "velocity": 0.7244094488188977,
                    "duration": 1.121496
                },
                {
                    "name": "A3",
                    "midi": 57,
                    "time": 5.2336480000000005,
                    "velocity": 0.6299212598425197,
                    "duration": 0.12461066666666643
                },
                {
                    "name": "A#3",
                    "midi": 58,
                    "time": 5.358258666666667,
                    "velocity": 0.6299212598425197,
                    "duration": 0.12461066666666643
                },
                {
                    "name": "C4",
                    "midi": 60,
                    "time": 5.482869333333333,
                    "velocity": 0.6299212598425197,
                    "duration": 0.12461066666666643
                },
                {
                    "name": "C#4",
                    "midi": 61,
                    "time": 5.60748,
                    "velocity": 0.6771653543307087,
                    "duration": 0.32710300000000014
                },
                {
                    "name": "A#3",
                    "midi": 58,
                    "time": 5.934583,
                    "velocity": 0.6299212598425197,
                    "duration": 0.04672900000000002
                },
                {
                    "name": "F4",
                    "midi": 65,
                    "time": 5.981312,
                    "velocity": 0.6771653543307087,
                    "duration": 0.37383200000000016
                },
                {
                    "name": "E4",
                    "midi": 64,
                    "time": 6.635518,
                    "velocity": 0.6299212598425197,
                    "duration": 0.031152666666666384
                },
                {
                    "name": "F4",
                    "midi": 65,
                    "time": 6.666670666666667,
                    "velocity": 0.6299212598425197,
                    "duration": 0.031152666666666384
                },
                {
                    "name": "E4",
                    "midi": 64,
                    "time": 6.697823333333333,
                    "velocity": 0.6299212598425197,
                    "duration": 0.031152666666666384
                },
                {
                    "name": "C#4",
                    "midi": 61,
                    "time": 6.728975999999999,
                    "velocity": 0.7086614173228346,
                    "duration": 1.1214960000000005
                },
                {
                    "name": "A3",
                    "midi": 57,
                    "time": 8.224304,
                    "velocity": 0.6456692913385826,
                    "duration": 0.18691600000000008
                },
                {
                    "name": "A#3",
                    "midi": 58,
                    "time": 8.41122,
                    "velocity": 0.6299212598425197,
                    "duration": 0.18691600000000008
                },
                {
                    "name": "C4",
                    "midi": 60,
                    "time": 8.598136,
                    "velocity": 0.6299212598425197,
                    "duration": 0.18691600000000008
                },
                {
                    "name": "C#4",
                    "midi": 61,
                    "time": 8.785052,
                    "velocity": 0.6299212598425197,
                    "duration": 0.18691600000000008
                },
                {
                    "name": "D#4",
                    "midi": 63,
                    "time": 8.971968,
                    "velocity": 0.6299212598425197,
                    "duration": 0.5607480000000002
                },
                {
                    "name": "F4",
                    "midi": 65,
                    "time": 9.532716,
                    "velocity": 0.6535433070866141,
                    "duration": 0.18691600000000008
                },
                {
                    "name": "F#4",
                    "midi": 66,
                    "time": 9.719632,
                    "velocity": 0.6850393700787402,
                    "duration": 0.18691600000000008
                },
                {
                    "name": "A4",
                    "midi": 69,
                    "time": 10.093464,
                    "velocity": 0.6929133858267716,
                    "duration": 0.18691600000000008
                },
                {
                    "name": "A#4",
                    "midi": 70,
                    "time": 10.467296000000001,
                    "velocity": 0.7322834645669292,
                    "duration": 0.7476640000000003
                },
                {
                    "name": "G#4",
                    "midi": 68,
                    "time": 11.214960000000001,
                    "velocity": 0.6929133858267716,
                    "duration": 0.37383200000000016
                },
                {
                    "name": "F#4",
                    "midi": 66,
                    "time": 11.588792000000002,
                    "velocity": 0.6692913385826772,
                    "duration": 0.37383200000000016
                },
                {
                    "name": "A4",
                    "midi": 69,
                    "time": 11.962624000000002,
                    "velocity": 0.6929133858267716,
                    "duration": 0.24922133333333285
                },
                {
                    "name": "F#4",
                    "midi": 66,
                    "time": 12.211845333333335,
                    "velocity": 0.6692913385826772,
                    "duration": 0.24922133333333285
                },
                {
                    "name": "F4",
                    "midi": 65,
                    "time": 12.461066666666667,
                    "velocity": 0.6299212598425197,
                    "duration": 0.23364499999999921
                },
                {
                    "name": "F4",
                    "midi": 65,
                    "time": 12.710288,
                    "velocity": 0.6850393700787402,
                    "duration": 0.6542060000000003
                },
                {
                    "name": "A4",
                    "midi": 69,
                    "time": 13.364494,
                    "velocity": 0.6299212598425197,
                    "duration": 0.09345800000000004
                },
                {
                    "name": "F4",
                    "midi": 65,
                    "time": 13.457952,
                    "velocity": 0.6771653543307087,
                    "duration": 0.37383200000000016
                },
                {
                    "name": "A3",
                    "midi": 57,
                    "time": 14.205616000000001,
                    "velocity": 0.6456692913385826,
                    "duration": 0.18691600000000008
                },
                {
                    "name": "A#3",
                    "midi": 58,
                    "time": 14.392532000000001,
                    "velocity": 0.6299212598425197,
                    "duration": 0.18691600000000008
                },
                {
                    "name": "C4",
                    "midi": 60,
                    "time": 14.579448000000001,
                    "velocity": 0.6299212598425197,
                    "duration": 0.18691600000000008
                },
                {
                    "name": "C#4",
                    "midi": 61,
                    "time": 14.766364000000001,
                    "velocity": 0.6299212598425197,
                    "duration": 0.18691600000000008
                },
                {
                    "name": "D#4",
                    "midi": 63,
                    "time": 14.953280000000001,
                    "velocity": 0.6299212598425197,
                    "duration": 0.5607480000000002
                },
                {
                    "name": "F4",
                    "midi": 65,
                    "time": 15.514028000000001,
                    "velocity": 0.6535433070866141,
                    "duration": 0.18691600000000008
                },
                {
                    "name": "F#4",
                    "midi": 66,
                    "time": 15.700944000000002,
                    "velocity": 0.6850393700787402,
                    "duration": 0.18691600000000008
                },
                {
                    "name": "A4",
                    "midi": 69,
                    "time": 16.074776,
                    "velocity": 0.6929133858267716,
                    "duration": 0.18691600000000008
                },
                {
                    "name": "A#4",
                    "midi": 70,
                    "time": 16.448608,
                    "velocity": 0.7322834645669292,
                    "duration": 0.7476640000000003
                },
                {
                    "name": "A4",
                    "midi": 69,
                    "time": 17.196272,
                    "velocity": 0.6929133858267716,
                    "duration": 0.37383200000000016
                },
                {
                    "name": "F#4",
                    "midi": 66,
                    "time": 17.570104,
                    "velocity": 0.6692913385826772,
                    "duration": 0.37383200000000016
                },
                {
                    "name": "G#4",
                    "midi": 68,
                    "time": 17.943936,
                    "velocity": 0.6929133858267716,
                    "duration": 0.24922133333333463
                },
                {
                    "name": "F#4",
                    "midi": 66,
                    "time": 18.193157333333335,
                    "velocity": 0.6692913385826772,
                    "duration": 0.24922133333333463
                },
                {
                    "name": "F4",
                    "midi": 65,
                    "time": 18.44237866666667,
                    "velocity": 0.6299212598425197,
                    "duration": 0.23364499999999921
                },
                {
                    "name": "F4",
                    "midi": 65,
                    "time": 18.6916,
                    "velocity": 0.6850393700787402,
                    "duration": 1.6822440000000007
                },
                {
                    "name": "A#3",
                    "midi": 58,
                    "time": 20.887863000000003,
                    "velocity": 0.6299212598425197,
                    "duration": 0.04672899999999913
                },
                {
                    "name": "F4",
                    "midi": 65,
                    "time": 20.934592000000002,
                    "velocity": 0.6771653543307087,
                    "duration": 0.37383200000000016
                },
                {
                    "name": "E4",
                    "midi": 64,
                    "time": 21.588798,
                    "velocity": 0.6299212598425197,
                    "duration": 0.031152666666667272
                },
                {
                    "name": "F4",
                    "midi": 65,
                    "time": 21.619950666666668,
                    "velocity": 0.6299212598425197,
                    "duration": 0.031152666666667272
                },
                {
                    "name": "E4",
                    "midi": 64,
                    "time": 21.651103333333335,
                    "velocity": 0.6299212598425197,
                    "duration": 0.031152666666667272
                },
                {
                    "name": "C#4",
                    "midi": 61,
                    "time": 21.682256000000002,
                    "velocity": 0.7086614173228346,
                    "duration": 0.6542059999999985
                },
                {
                    "name": "C4",
                    "midi": 60,
                    "time": 22.336462,
                    "velocity": 0.6299212598425197,
                    "duration": 0.031152666666667272
                },
                {
                    "name": "C#4",
                    "midi": 61,
                    "time": 22.367614666666668,
                    "velocity": 0.6141732283464567,
                    "duration": 0.031152666666667272
                },
                {
                    "name": "A3",
                    "midi": 57,
                    "time": 22.398767333333335,
                    "velocity": 0.6141732283464567,
                    "duration": 0.031152666666667272
                },
                {
                    "name": "C#4",
                    "midi": 61,
                    "time": 22.429920000000003,
                    "velocity": 0.7007874015748031,
                    "duration": 0.6074769999999994
                },
                {
                    "name": "C4",
                    "midi": 60,
                    "time": 23.037397000000002,
                    "velocity": 0.5905511811023622,
                    "duration": 0.023364499999999566
                },
                {
                    "name": "C#4",
                    "midi": 61,
                    "time": 23.0607615,
                    "velocity": 0.5905511811023622,
                    "duration": 0.023364499999999566
                },
                {
                    "name": "C4",
                    "midi": 60,
                    "time": 23.084126,
                    "velocity": 0.5905511811023622,
                    "duration": 0.031152666666667272
                },
                {
                    "name": "A#3",
                    "midi": 58,
                    "time": 23.11527866666667,
                    "velocity": 0.5905511811023622,
                    "duration": 0.031152666666667272
                },
                {
                    "name": "A3",
                    "midi": 57,
                    "time": 23.146431333333336,
                    "velocity": 0.5905511811023622,
                    "duration": 0.031152666666667272
                },
                {
                    "name": "C#4",
                    "midi": 61,
                    "time": 23.177584000000003,
                    "velocity": 0.6299212598425197,
                    "duration": 2.8037400000000012
                },
                {
                    "name": "A5",
                    "midi": 81,
                    "time": 26.121511000000005,
                    "velocity": 0.4094488188976378,
                    "duration": 0.04205609999999993
                },
                {
                    "name": "A4",
                    "midi": 69,
                    "time": 26.168240000000004,
                    "velocity": 0.4094488188976378,
                    "duration": 1.4953279999999864
                },
                {
                    "name": "F#4",
                    "midi": 66,
                    "time": 26.168240000000004,
                    "velocity": 0.4094488188976378,
                    "duration": 1.4953279999999864
                },
                {
                    "name": "A5",
                    "midi": 81,
                    "time": 26.168240000000004,
                    "velocity": 0.47244094488188976,
                    "duration": 0.11214959999999863
                },
                {
                    "name": "A5",
                    "midi": 81,
                    "time": 26.29285066666667,
                    "velocity": 0.4566929133858268,
                    "duration": 0.11214959999999863
                },
                {
                    "name": "A5",
                    "midi": 81,
                    "time": 26.417461333333335,
                    "velocity": 0.4566929133858268,
                    "duration": 0.0700934999999987
                },
                {
                    "name": "A5",
                    "midi": 81,
                    "time": 26.495343000000002,
                    "velocity": 0.3937007874015748,
                    "duration": 0.038940833333331426
                },
                {
                    "name": "B5",
                    "midi": 83,
                    "time": 26.5187075,
                    "velocity": 0.4015748031496063,
                    "duration": 0.038940833333331426
                },
                {
                    "name": "A5",
                    "midi": 81,
                    "time": 26.542072,
                    "velocity": 0.4251968503937008,
                    "duration": 0.3271029999999975
                },
                {
                    "name": "A5",
                    "midi": 81,
                    "time": 26.869175,
                    "velocity": 0.4094488188976378,
                    "duration": 0.04205609999999993
                },
                {
                    "name": "A5",
                    "midi": 81,
                    "time": 26.915903999999998,
                    "velocity": 0.47244094488188976,
                    "duration": 0.11214959999999863
                },
                {
                    "name": "A5",
                    "midi": 81,
                    "time": 27.040514666666663,
                    "velocity": 0.44881889763779526,
                    "duration": 0.11214959999999863
                },
                {
                    "name": "A5",
                    "midi": 81,
                    "time": 27.16512533333333,
                    "velocity": 0.44881889763779526,
                    "duration": 0.0700934999999987
                },
                {
                    "name": "A5",
                    "midi": 81,
                    "time": 27.243006999999995,
                    "velocity": 0.3779527559055118,
                    "duration": 0.038940833333331426
                },
                {
                    "name": "B5",
                    "midi": 83,
                    "time": 27.266371499999995,
                    "velocity": 0.4094488188976378,
                    "duration": 0.038940833333331426
                },
                {
                    "name": "A5",
                    "midi": 81,
                    "time": 27.289735999999994,
                    "velocity": 0.4409448818897638,
                    "duration": 0.3271029999999975
                },
                {
                    "name": "G#5",
                    "midi": 80,
                    "time": 27.61683899999999,
                    "velocity": 0.3858267716535433,
                    "duration": 0.04205609999999993
                },
                {
                    "name": "E4",
                    "midi": 64,
                    "time": 27.66356799999999,
                    "velocity": 0.4094488188976378,
                    "duration": 0.7476639999999932
                },
                {
                    "name": "G#4",
                    "midi": 68,
                    "time": 27.66356799999999,
                    "velocity": 0.4094488188976378,
                    "duration": 0.7476639999999932
                },
                {
                    "name": "G#5",
                    "midi": 80,
                    "time": 27.66356799999999,
                    "velocity": 0.44881889763779526,
                    "duration": 0.11214959999999863
                },
                {
                    "name": "G#5",
                    "midi": 80,
                    "time": 27.788178666666656,
                    "velocity": 0.4330708661417323,
                    "duration": 0.11214959999999863
                },
                {
                    "name": "G#5",
                    "midi": 80,
                    "time": 27.912789333333322,
                    "velocity": 0.4330708661417323,
                    "duration": 0.0700934999999987
                },
                {
                    "name": "G#5",
                    "midi": 80,
                    "time": 27.99067099999999,
                    "velocity": 0.3858267716535433,
                    "duration": 0.038940833333331426
                },
                {
                    "name": "A5",
                    "midi": 81,
                    "time": 28.014035499999988,
                    "velocity": 0.4094488188976378,
                    "duration": 0.038940833333331426
                },
                {
                    "name": "G#5",
                    "midi": 80,
                    "time": 28.037399999999987,
                    "velocity": 0.4330708661417323,
                    "duration": 0.3271029999999975
                },
                {
                    "name": "F#5",
                    "midi": 78,
                    "time": 28.364502999999985,
                    "velocity": 0.3858267716535433,
                    "duration": 0.04672899999999913
                },
                {
                    "name": "F#4",
                    "midi": 66,
                    "time": 28.411231999999984,
                    "velocity": 0.3858267716535433,
                    "duration": 0.7476639999999932
                },
                {
                    "name": "D4",
                    "midi": 62,
                    "time": 28.411231999999984,
                    "velocity": 0.3858267716535433,
                    "duration": 0.7476639999999932
                },
                {
                    "name": "F#5",
                    "midi": 78,
                    "time": 28.411231999999984,
                    "velocity": 0.44881889763779526,
                    "duration": 0.12461066666666554
                },
                {
                    "name": "F#5",
                    "midi": 78,
                    "time": 28.53584266666665,
                    "velocity": 0.4251968503937008,
                    "duration": 0.12461066666666554
                },
                {
                    "name": "F#5",
                    "midi": 78,
                    "time": 28.660453333333315,
                    "velocity": 0.4251968503937008,
                    "duration": 0.0778816666666664
                },
                {
                    "name": "F#5",
                    "midi": 78,
                    "time": 28.73833499999998,
                    "velocity": 0.3700787401574803,
                    "duration": 0.038940833333331426
                },
                {
                    "name": "G5",
                    "midi": 79,
                    "time": 28.76169949999998,
                    "velocity": 0.3937007874015748,
                    "duration": 0.038940833333331426
                },
                {
                    "name": "F#5",
                    "midi": 78,
                    "time": 28.78506399999998,
                    "velocity": 0.4409448818897638,
                    "duration": 0.3271029999999975
                },
                {
                    "name": "G#5",
                    "midi": 80,
                    "time": 29.112166999999978,
                    "velocity": 0.3858267716535433,
                    "duration": 0.04205609999999993
                },
                {
                    "name": "G#5",
                    "midi": 80,
                    "time": 29.158895999999977,
                    "velocity": 0.44881889763779526,
                    "duration": 0.11214959999999863
                },
                {
                    "name": "E4",
                    "midi": 64,
                    "time": 29.158895999999977,
                    "velocity": 0.3858267716535433,
                    "duration": 0.7476639999999932
                },
                {
                    "name": "G#4",
                    "midi": 68,
                    "time": 29.158895999999977,
                    "velocity": 0.3858267716535433,
                    "duration": 0.7476639999999932
                },
                {
                    "name": "G#5",
                    "midi": 80,
                    "time": 29.283506666666643,
                    "velocity": 0.4330708661417323,
                    "duration": 0.11214959999999863
                },
                {
                    "name": "G#5",
                    "midi": 80,
                    "time": 29.40811733333331,
                    "velocity": 0.4330708661417323,
                    "duration": 0.0700934999999987
                },
                {
                    "name": "G#5",
                    "midi": 80,
                    "time": 29.485998999999975,
                    "velocity": 0.3858267716535433,
                    "duration": 0.038940833333331426
                },
                {
                    "name": "A5",
                    "midi": 81,
                    "time": 29.509363499999974,
                    "velocity": 0.3858267716535433,
                    "duration": 0.038940833333331426
                },
                {
                    "name": "G#5",
                    "midi": 80,
                    "time": 29.532727999999974,
                    "velocity": 0.4330708661417323,
                    "duration": 0.3271029999999975
                },
                {
                    "name": "C#5",
                    "midi": 73,
                    "time": 29.85983099999997,
                    "velocity": 0.3858267716535433,
                    "duration": 0.04205609999999993
                },
                {
                    "name": "C#4",
                    "midi": 61,
                    "time": 29.90655999999997,
                    "velocity": 0.3858267716535433,
                    "duration": 1.869159999999983
                },
                {
                    "name": "C#5",
                    "midi": 73,
                    "time": 29.90655999999997,
                    "velocity": 0.4251968503937008,
                    "duration": 0.11214959999999863
                },
                {
                    "name": "E4",
                    "midi": 64,
                    "time": 29.90655999999997,
                    "velocity": 0.3858267716535433,
                    "duration": 1.869159999999983
                },
                {
                    "name": "C#5",
                    "midi": 73,
                    "time": 30.031170666666636,
                    "velocity": 0.4015748031496063,
                    "duration": 0.11214959999999863
                },
                {
                    "name": "C#5",
                    "midi": 73,
                    "time": 30.1557813333333,
                    "velocity": 0.4015748031496063,
                    "duration": 0.0700934999999987
                },
                {
                    "name": "C#5",
                    "midi": 73,
                    "time": 30.233662999999968,
                    "velocity": 0.3700787401574803,
                    "duration": 0.038940833333331426
                },
                {
                    "name": "D5",
                    "midi": 74,
                    "time": 30.257027499999968,
                    "velocity": 0.36220472440944884,
                    "duration": 0.038940833333331426
                },
                {
                    "name": "C#5",
                    "midi": 73,
                    "time": 30.280391999999967,
                    "velocity": 0.41732283464566927,
                    "duration": 0.3271029999999975
                },
                {
                    "name": "C#5",
                    "midi": 73,
                    "time": 30.607494999999965,
                    "velocity": 0.3700787401574803,
                    "duration": 0.04205609999999993
                },
                {
                    "name": "C#5",
                    "midi": 73,
                    "time": 30.654223999999964,
                    "velocity": 0.4251968503937008,
                    "duration": 0.11214959999999863
                },
                {
                    "name": "C#5",
                    "midi": 73,
                    "time": 30.77883466666663,
                    "velocity": 0.4015748031496063,
                    "duration": 0.11214959999999863
                },
                {
                    "name": "C#5",
                    "midi": 73,
                    "time": 30.903445333333295,
                    "velocity": 0.4015748031496063,
                    "duration": 0.0700934999999987
                },
                {
                    "name": "C#5",
                    "midi": 73,
                    "time": 30.98132699999996,
                    "velocity": 0.3700787401574803,
                    "duration": 0.038940833333331426
                },
                {
                    "name": "D5",
                    "midi": 74,
                    "time": 31.00469149999996,
                    "velocity": 0.3700787401574803,
                    "duration": 0.038940833333331426
                },
                {
                    "name": "C#5",
                    "midi": 73,
                    "time": 31.02805599999996,
                    "velocity": 0.4330708661417323,
                    "duration": 0.3271029999999975
                },
                {
                    "name": "C#5",
                    "midi": 73,
                    "time": 31.355158999999958,
                    "velocity": 0.31496062992125984,
                    "duration": 0.04205609999999993
                },
                {
                    "name": "C#5",
                    "midi": 73,
                    "time": 31.401887999999957,
                    "velocity": 0.3700787401574803,
                    "duration": 0.11214959999999863
                },
                {
                    "name": "C#5",
                    "midi": 73,
                    "time": 31.526498666666622,
                    "velocity": 0.3700787401574803,
                    "duration": 0.11214959999999863
                },
                {
                    "name": "C#5",
                    "midi": 73,
                    "time": 31.651109333333288,
                    "velocity": 0.3700787401574803,
                    "duration": 0.0700934999999987
                },
                {
                    "name": "C#5",
                    "midi": 73,
                    "time": 31.728990999999954,
                    "velocity": 0.30708661417322836,
                    "duration": 0.038940833333331426
                },
                {
                    "name": "D5",
                    "midi": 74,
                    "time": 31.752355499999954,
                    "velocity": 0.31496062992125984,
                    "duration": 4.524924833333376
                },
                {
                    "name": "C#5",
                    "midi": 73,
                    "time": 31.775719999999954,
                    "velocity": 0.3700787401574803,
                    "duration": 0.3271029999999975
                },
                {
                    "name": "A5",
                    "midi": 81,
                    "time": 32.10282299999995,
                    "velocity": 0.4094488188976378,
                    "duration": 0.04205610000000348
                },
                {
                    "name": "F#4",
                    "midi": 66,
                    "time": 32.14955199999996,
                    "velocity": 0.4094488188976378,
                    "duration": 1.4953280000000149
                },
                {
                    "name": "A4",
                    "midi": 69,
                    "time": 32.14955199999996,
                    "velocity": 0.4094488188976378,
                    "duration": 1.4953280000000149
                },
                {
                    "name": "A5",
                    "midi": 81,
                    "time": 32.14955199999996,
                    "velocity": 0.47244094488188976,
                    "duration": 0.11214960000000218
                },
                {
                    "name": "A5",
                    "midi": 81,
                    "time": 32.274162666666626,
                    "velocity": 0.4566929133858268,
                    "duration": 0.11214960000000218
                },
                {
                    "name": "A5",
                    "midi": 81,
                    "time": 32.398773333333295,
                    "velocity": 0.4566929133858268,
                    "duration": 0.0700934999999987
                },
                {
                    "name": "A5",
                    "midi": 81,
                    "time": 32.47665499999996,
                    "velocity": 0.3937007874015748,
                    "duration": 0.03894083333333498
                },
                {
                    "name": "B5",
                    "midi": 83,
                    "time": 32.50001949999996,
                    "velocity": 0.3700787401574803,
                    "duration": 0.03894083333333498
                },
                {
                    "name": "A5",
                    "midi": 81,
                    "time": 32.52338399999996,
                    "velocity": 0.4015748031496063,
                    "duration": 0.32710300000000103
                },
                {
                    "name": "A5",
                    "midi": 81,
                    "time": 32.85048699999996,
                    "velocity": 0.4094488188976378,
                    "duration": 0.04205610000000348
                },
                {
                    "name": "A5",
                    "midi": 81,
                    "time": 32.897215999999965,
                    "velocity": 0.47244094488188976,
                    "duration": 0.11214960000000218
                },
                {
                    "name": "A5",
                    "midi": 81,
                    "time": 33.021826666666634,
                    "velocity": 0.44881889763779526,
                    "duration": 0.11214960000000218
                },
                {
                    "name": "A5",
                    "midi": 81,
                    "time": 33.1464373333333,
                    "velocity": 0.44881889763779526,
                    "duration": 0.0700934999999987
                },
                {
                    "name": "A5",
                    "midi": 81,
                    "time": 33.224318999999966,
                    "velocity": 0.3937007874015748,
                    "duration": 0.03894083333333498
                },
                {
                    "name": "B5",
                    "midi": 83,
                    "time": 33.247683499999965,
                    "velocity": 0.4015748031496063,
                    "duration": 0.03894083333333498
                },
                {
                    "name": "A5",
                    "midi": 81,
                    "time": 33.271047999999965,
                    "velocity": 0.4409448818897638,
                    "duration": 0.32710300000000103
                },
                {
                    "name": "G#5",
                    "midi": 80,
                    "time": 33.598150999999966,
                    "velocity": 0.3858267716535433,
                    "duration": 0.04205610000000348
                },
                {
                    "name": "E4",
                    "midi": 64,
                    "time": 33.64487999999997,
                    "velocity": 0.4094488188976378,
                    "duration": 0.7476640000000074
                },
                {
                    "name": "G#4",
                    "midi": 68,
                    "time": 33.64487999999997,
                    "velocity": 0.4094488188976378,
                    "duration": 0.7476640000000074
                },
                {
                    "name": "G#5",
                    "midi": 80,
                    "time": 33.64487999999997,
                    "velocity": 0.44881889763779526,
                    "duration": 0.11214960000000218
                },
                {
                    "name": "G#5",
                    "midi": 80,
                    "time": 33.76949066666664,
                    "velocity": 0.4330708661417323,
                    "duration": 0.11214960000000218
                },
                {
                    "name": "G#5",
                    "midi": 80,
                    "time": 33.89410133333331,
                    "velocity": 0.4330708661417323,
                    "duration": 0.0700934999999987
                },
                {
                    "name": "G#5",
                    "midi": 80,
                    "time": 33.97198299999997,
                    "velocity": 0.3858267716535433,
                    "duration": 0.03894083333333498
                },
                {
                    "name": "A5",
                    "midi": 81,
                    "time": 33.99534749999997,
                    "velocity": 0.4094488188976378,
                    "duration": 0.03894083333333498
                },
                {
                    "name": "G#5",
                    "midi": 80,
                    "time": 34.01871199999997,
                    "velocity": 0.4566929133858268,
                    "duration": 0.32710300000000103
                },
                {
                    "name": "F#5",
                    "midi": 78,
                    "time": 34.34581499999997,
                    "velocity": 0.3858267716535433,
                    "duration": 0.04205610000000348
                },
                {
                    "name": "F#4",
                    "midi": 66,
                    "time": 34.39254399999998,
                    "velocity": 0.3858267716535433,
                    "duration": 0.7476640000000074
                },
                {
                    "name": "D4",
                    "midi": 62,
                    "time": 34.39254399999998,
                    "velocity": 0.3858267716535433,
                    "duration": 0.7476640000000074
                },
                {
                    "name": "F#5",
                    "midi": 78,
                    "time": 34.39254399999998,
                    "velocity": 0.44881889763779526,
                    "duration": 0.11214960000000218
                },
                {
                    "name": "F#5",
                    "midi": 78,
                    "time": 34.51715466666665,
                    "velocity": 0.4251968503937008,
                    "duration": 0.11214960000000218
                },
                {
                    "name": "F#5",
                    "midi": 78,
                    "time": 34.64176533333332,
                    "velocity": 0.4251968503937008,
                    "duration": 0.0700934999999987
                },
                {
                    "name": "F#5",
                    "midi": 78,
                    "time": 34.71964699999998,
                    "velocity": 0.3700787401574803,
                    "duration": 0.03894083333333498
                },
                {
                    "name": "G5",
                    "midi": 79,
                    "time": 34.74301149999998,
                    "velocity": 0.3937007874015748,
                    "duration": 0.03894083333333498
                },
                {
                    "name": "F#5",
                    "midi": 78,
                    "time": 34.76637599999998,
                    "velocity": 0.4409448818897638,
                    "duration": 0.32710300000000103
                },
                {
                    "name": "G#5",
                    "midi": 80,
                    "time": 35.09347899999998,
                    "velocity": 0.3858267716535433,
                    "duration": 0.04205610000000348
                },
                {
                    "name": "G#5",
                    "midi": 80,
                    "time": 35.14020799999999,
                    "velocity": 0.44881889763779526,
                    "duration": 0.11214960000000218
                },
                {
                    "name": "G#4",
                    "midi": 68,
                    "time": 35.14020799999999,
                    "velocity": 0.3858267716535433,
                    "duration": 0.7476640000000074
                },
                {
                    "name": "E4",
                    "midi": 64,
                    "time": 35.14020799999999,
                    "velocity": 0.3858267716535433,
                    "duration": 0.7476640000000074
                },
                {
                    "name": "G#5",
                    "midi": 80,
                    "time": 35.264818666666656,
                    "velocity": 0.4330708661417323,
                    "duration": 0.11214960000000218
                },
                {
                    "name": "G#5",
                    "midi": 80,
                    "time": 35.389429333333325,
                    "velocity": 0.4330708661417323,
                    "duration": 0.0700934999999987
                },
                {
                    "name": "G#5",
                    "midi": 80,
                    "time": 35.46731099999999,
                    "velocity": 0.3858267716535433,
                    "duration": 0.03894083333333498
                },
                {
                    "name": "A5",
                    "midi": 81,
                    "time": 35.49067549999999,
                    "velocity": 0.3858267716535433,
                    "duration": 0.03894083333333498
                },
                {
                    "name": "G#5",
                    "midi": 80,
                    "time": 35.51403999999999,
                    "velocity": 0.44881889763779526,
                    "duration": 0.32710300000000103
                },
                {
                    "name": "C#5",
                    "midi": 73,
                    "time": 35.84114299999999,
                    "velocity": 0.3858267716535433,
                    "duration": 0.04205610000000348
                },
                {
                    "name": "C#4",
                    "midi": 61,
                    "time": 35.887871999999994,
                    "velocity": 0.3858267716535433,
                    "duration": 1.869160000000015
                },
                {
                    "name": "E4",
                    "midi": 64,
                    "time": 35.887871999999994,
                    "velocity": 0.3858267716535433,
                    "duration": 1.869160000000015
                },
                {
                    "name": "C#5",
                    "midi": 73,
                    "time": 35.887871999999994,
                    "velocity": 0.4251968503937008,
                    "duration": 0.11214960000000218
                },
                {
                    "name": "C#5",
                    "midi": 73,
                    "time": 36.01248266666666,
                    "velocity": 0.4015748031496063,
                    "duration": 0.11214960000000218
                },
                {
                    "name": "C#5",
                    "midi": 73,
                    "time": 36.13709333333333,
                    "velocity": 0.4015748031496063,
                    "duration": 0.0700934999999987
                },
                {
                    "name": "C#5",
                    "midi": 73,
                    "time": 36.214974999999995,
                    "velocity": 0.3700787401574803,
                    "duration": 0.03894083333333498
                },
                {
                    "name": "D5",
                    "midi": 74,
                    "time": 36.238339499999995,
                    "velocity": 0.36220472440944884,
                    "duration": 0.7866048333333424
                },
                {
                    "name": "C#5",
                    "midi": 73,
                    "time": 36.261703999999995,
                    "velocity": 0.4015748031496063,
                    "duration": 0.32710300000000103
                },
                {
                    "name": "C#5",
                    "midi": 73,
                    "time": 36.588806999999996,
                    "velocity": 0.3700787401574803,
                    "duration": 0.04205610000000348
                },
                {
                    "name": "C#5",
                    "midi": 73,
                    "time": 36.635536,
                    "velocity": 0.4251968503937008,
                    "duration": 0.11214960000000218
                },
                {
                    "name": "C#5",
                    "midi": 73,
                    "time": 36.76014666666667,
                    "velocity": 0.4015748031496063,
                    "duration": 0.11214960000000218
                },
                {
                    "name": "C#5",
                    "midi": 73,
                    "time": 36.88475733333334,
                    "velocity": 0.4015748031496063,
                    "duration": 0.0700934999999987
                },
                {
                    "name": "C#5",
                    "midi": 73,
                    "time": 36.962639,
                    "velocity": 0.3700787401574803,
                    "duration": 0.03894083333333498
                },
                {
                    "name": "D5",
                    "midi": 74,
                    "time": 36.9860035,
                    "velocity": 0.3700787401574803,
                    "duration": 0.7866048333333424
                },
                {
                    "name": "C#5",
                    "midi": 73,
                    "time": 37.009368,
                    "velocity": 0.4015748031496063,
                    "duration": 0.32710300000000103
                },
                {
                    "name": "C#5",
                    "midi": 73,
                    "time": 37.336471,
                    "velocity": 0.31496062992125984,
                    "duration": 0.04205610000000348
                },
                {
                    "name": "C#5",
                    "midi": 73,
                    "time": 37.38320000000001,
                    "velocity": 0.3700787401574803,
                    "duration": 0.11214960000000218
                },
                {
                    "name": "C#5",
                    "midi": 73,
                    "time": 37.50781066666668,
                    "velocity": 0.3700787401574803,
                    "duration": 0.11214960000000218
                },
                {
                    "name": "C#5",
                    "midi": 73,
                    "time": 37.63242133333335,
                    "velocity": 0.3700787401574803,
                    "duration": 0.0700934999999987
                },
                {
                    "name": "C#5",
                    "midi": 73,
                    "time": 37.71030300000001,
                    "velocity": 0.30708661417322836,
                    "duration": 0.03894083333333498
                },
                {
                    "name": "D5",
                    "midi": 74,
                    "time": 37.73366750000001,
                    "velocity": 0.31496062992125984,
                    "duration": 2.6355156000000264
                },
                {
                    "name": "C#5",
                    "midi": 73,
                    "time": 37.75703200000001,
                    "velocity": 0.3700787401574803,
                    "duration": 0.32710300000000103
                },
                {
                    "name": "F#5",
                    "midi": 78,
                    "time": 38.08413500000001,
                    "velocity": 0.4094488188976378,
                    "duration": 0.04205610000000348
                },
                {
                    "name": "F#5",
                    "midi": 78,
                    "time": 38.13086400000002,
                    "velocity": 0.4251968503937008,
                    "duration": 0.11214960000000218
                },
                {
                    "name": "D4",
                    "midi": 62,
                    "time": 38.13086400000002,
                    "velocity": 0.36220472440944884,
                    "duration": 1.4953280000000149
                },
                {
                    "name": "F#4",
                    "midi": 66,
                    "time": 38.13086400000002,
                    "velocity": 0.36220472440944884,
                    "duration": 1.4953280000000149
                },
                {
                    "name": "F#5",
                    "midi": 78,
                    "time": 38.255474666666686,
                    "velocity": 0.4094488188976378,
                    "duration": 0.11214960000000218
                },
                {
                    "name": "F#5",
                    "midi": 78,
                    "time": 38.380085333333355,
                    "velocity": 0.4094488188976378,
                    "duration": 0.0700934999999987
                },
                {
                    "name": "F#5",
                    "midi": 78,
                    "time": 38.45796700000002,
                    "velocity": 0.3543307086614173,
                    "duration": 0.03894083333333498
                },
                {
                    "name": "G#5",
                    "midi": 80,
                    "time": 38.48133150000002,
                    "velocity": 0.3543307086614173,
                    "duration": 0.03894083333333498
                },
                {
                    "name": "F#5",
                    "midi": 78,
                    "time": 38.50469600000002,
                    "velocity": 0.4094488188976378,
                    "duration": 0.32710300000000103
                },
                {
                    "name": "F#5",
                    "midi": 78,
                    "time": 38.83179900000002,
                    "velocity": 0.36220472440944884,
                    "duration": 0.04205610000000348
                },
                {
                    "name": "F#5",
                    "midi": 78,
                    "time": 38.878528000000024,
                    "velocity": 0.4251968503937008,
                    "duration": 0.11214960000000218
                },
                {
                    "name": "F#5",
                    "midi": 78,
                    "time": 39.00313866666669,
                    "velocity": 0.4015748031496063,
                    "duration": 0.11214960000000218
                },
                {
                    "name": "F#5",
                    "midi": 78,
                    "time": 39.12774933333336,
                    "velocity": 0.4015748031496063,
                    "duration": 0.0700934999999987
                },
                {
                    "name": "F#5",
                    "midi": 78,
                    "time": 39.205631000000025,
                    "velocity": 0.36220472440944884,
                    "duration": 0.03894083333333498
                },
                {
                    "name": "G#5",
                    "midi": 80,
                    "time": 39.228995500000025,
                    "velocity": 0.36220472440944884,
                    "duration": 0.03894083333333498
                },
                {
                    "name": "F#5",
                    "midi": 78,
                    "time": 39.252360000000024,
                    "velocity": 0.4094488188976378,
                    "duration": 0.32710300000000103
                },
                {
                    "name": "E5",
                    "midi": 76,
                    "time": 39.579463000000025,
                    "velocity": 0.3464566929133858,
                    "duration": 0.04205610000000348
                },
                {
                    "name": "E5",
                    "midi": 76,
                    "time": 39.62619200000003,
                    "velocity": 0.4015748031496063,
                    "duration": 0.11214960000000218
                },
                {
                    "name": "E4",
                    "midi": 64,
                    "time": 39.62619200000003,
                    "velocity": 0.36220472440944884,
                    "duration": 0.7476640000000074
                },
                {
                    "name": "C#4",
                    "midi": 61,
                    "time": 39.62619200000003,
                    "velocity": 0.36220472440944884,
                    "duration": 0.7476640000000074
                },
                {
                    "name": "E5",
                    "midi": 76,
                    "time": 39.7508026666667,
                    "velocity": 0.3858267716535433,
                    "duration": 0.11214960000000218
                },
                {
                    "name": "E5",
                    "midi": 76,
                    "time": 39.87541333333337,
                    "velocity": 0.3858267716535433,
                    "duration": 0.0700934999999987
                },
                {
                    "name": "E5",
                    "midi": 76,
                    "time": 39.95329500000003,
                    "velocity": 0.3464566929133858,
                    "duration": 0.03894083333333498
                },
                {
                    "name": "F#5",
                    "midi": 78,
                    "time": 39.97665950000003,
                    "velocity": 0.36220472440944884,
                    "duration": 0.03894083333333498
                },
                {
                    "name": "E5",
                    "midi": 76,
                    "time": 40.00002400000003,
                    "velocity": 0.4094488188976378,
                    "duration": 0.32710300000000103
                },
                {
                    "name": "D5",
                    "midi": 74,
                    "time": 40.32712700000003,
                    "velocity": 0.3464566929133858,
                    "duration": 0.15887860000000842
                },
                {
                    "name": "D4",
                    "midi": 62,
                    "time": 40.37385600000004,
                    "velocity": 0.3464566929133858,
                    "duration": 0.7476640000000074
                },
                {
                    "name": "D5",
                    "midi": 74,
                    "time": 40.37385600000004,
                    "velocity": 0.4015748031496063,
                    "duration": 0.23676026666667127
                },
                {
                    "name": "B3",
                    "midi": 59,
                    "time": 40.37385600000004,
                    "velocity": 0.3464566929133858,
                    "duration": 0.7476640000000074
                },
                {
                    "name": "D5",
                    "midi": 74,
                    "time": 40.49846666666671,
                    "velocity": 0.3779527559055118,
                    "duration": 0.1947041666666678
                },
                {
                    "name": "D5",
                    "midi": 74,
                    "time": 40.62307733333338,
                    "velocity": 0.3779527559055118,
                    "duration": 0.11682249999999783
                },
                {
                    "name": "D5",
                    "midi": 74,
                    "time": 40.70095900000004,
                    "velocity": 0.33070866141732286,
                    "duration": 0.37383200000000016
                },
                {
                    "name": "E5",
                    "midi": 76,
                    "time": 40.72432350000004,
                    "velocity": 0.3543307086614173,
                    "duration": 0.03894083333333498
                },
                {
                    "name": "D5",
                    "midi": 74,
                    "time": 40.74768800000004,
                    "velocity": 0.3937007874015748,
                    "duration": 1.5109043333333503
                },
                {
                    "name": "F#5",
                    "midi": 78,
                    "time": 41.07479100000004,
                    "velocity": 0.3464566929133858,
                    "duration": 0.04205610000000348
                },
                {
                    "name": "D4",
                    "midi": 62,
                    "time": 41.12152000000005,
                    "velocity": 0.3464566929133858,
                    "duration": 0.7476640000000074
                },
                {
                    "name": "F#4",
                    "midi": 66,
                    "time": 41.12152000000005,
                    "velocity": 0.3464566929133858,
                    "duration": 0.7476640000000074
                },
                {
                    "name": "F#5",
                    "midi": 78,
                    "time": 41.12152000000005,
                    "velocity": 0.4015748031496063,
                    "duration": 0.11214960000000218
                },
                {
                    "name": "F#5",
                    "midi": 78,
                    "time": 41.246130666666716,
                    "velocity": 0.3858267716535433,
                    "duration": 0.11214960000000218
                },
                {
                    "name": "F#5",
                    "midi": 78,
                    "time": 41.370741333333385,
                    "velocity": 0.3858267716535433,
                    "duration": 0.0700934999999987
                },
                {
                    "name": "F#5",
                    "midi": 78,
                    "time": 41.44862300000005,
                    "velocity": 0.3464566929133858,
                    "duration": 0.03894083333333498
                },
                {
                    "name": "G#5",
                    "midi": 80,
                    "time": 41.47198750000005,
                    "velocity": 0.3464566929133858,
                    "duration": 0.03894083333333498
                },
                {
                    "name": "F#5",
                    "midi": 78,
                    "time": 41.49535200000005,
                    "velocity": 0.4015748031496063,
                    "duration": 0.32710300000000103
                },
                {
                    "name": "C#5",
                    "midi": 73,
                    "time": 41.82245500000005,
                    "velocity": 0.3464566929133858,
                    "duration": 0.04205610000000348
                },
                {
                    "name": "C#4",
                    "midi": 61,
                    "time": 41.869184000000054,
                    "velocity": 0.3464566929133858,
                    "duration": 1.869160000000015
                },
                {
                    "name": "A3",
                    "midi": 57,
                    "time": 41.869184000000054,
                    "velocity": 0.3464566929133858,
                    "duration": 1.869160000000015
                },
                {
                    "name": "C#5",
                    "midi": 73,
                    "time": 41.869184000000054,
                    "velocity": 0.3779527559055118,
                    "duration": 0.11214960000000218
                },
                {
                    "name": "C#5",
                    "midi": 73,
                    "time": 41.99379466666672,
                    "velocity": 0.3543307086614173,
                    "duration": 0.11214960000000218
                },
                {
                    "name": "C#5",
                    "midi": 73,
                    "time": 42.11840533333339,
                    "velocity": 0.3543307086614173,
                    "duration": 0.0700934999999987
                },
                {
                    "name": "C#5",
                    "midi": 73,
                    "time": 42.196287000000055,
                    "velocity": 0.33070866141732286,
                    "duration": 0.03894083333333498
                },
                {
                    "name": "D5",
                    "midi": 74,
                    "time": 42.219651500000055,
                    "velocity": 0.3228346456692913,
                    "duration": 0.7866048333333424
                },
                {
                    "name": "C#5",
                    "midi": 73,
                    "time": 42.243016000000054,
                    "velocity": 0.3700787401574803,
                    "duration": 0.32710300000000103
                },
                {
                    "name": "C#5",
                    "midi": 73,
                    "time": 42.570119000000055,
                    "velocity": 0.33070866141732286,
                    "duration": 0.04205610000000348
                },
                {
                    "name": "C#5",
                    "midi": 73,
                    "time": 42.61684800000006,
                    "velocity": 0.3779527559055118,
                    "duration": 0.11214960000000218
                },
                {
                    "name": "C#5",
                    "midi": 73,
                    "time": 42.74145866666673,
                    "velocity": 0.3543307086614173,
                    "duration": 0.11214960000000218
                },
                {
                    "name": "C#5",
                    "midi": 73,
                    "time": 42.8660693333334,
                    "velocity": 0.3543307086614173,
                    "duration": 0.0700934999999987
                },
                {
                    "name": "C#5",
                    "midi": 73,
                    "time": 42.94395100000006,
                    "velocity": 0.33070866141732286,
                    "duration": 0.03894083333333498
                },
                {
                    "name": "D5",
                    "midi": 74,
                    "time": 42.96731550000006,
                    "velocity": 0.33070866141732286,
                    "duration": 0.7866048333333424
                },
                {
                    "name": "C#5",
                    "midi": 73,
                    "time": 42.99068000000006,
                    "velocity": 0.3779527559055118,
                    "duration": 0.32710300000000103
                },
                {
                    "name": "C#5",
                    "midi": 73,
                    "time": 43.31778300000006,
                    "velocity": 0.28346456692913385,
                    "duration": 0.04205610000000348
                },
                {
                    "name": "C#5",
                    "midi": 73,
                    "time": 43.36451200000007,
                    "velocity": 0.33070866141732286,
                    "duration": 0.11214960000000218
                },
                {
                    "name": "C#5",
                    "midi": 73,
                    "time": 43.48912266666674,
                    "velocity": 0.33070866141732286,
                    "duration": 0.11214960000000218
                },
                {
                    "name": "C#5",
                    "midi": 73,
                    "time": 43.61373333333341,
                    "velocity": 0.33070866141732286,
                    "duration": 0.0700934999999987
                },
                {
                    "name": "C#5",
                    "midi": 73,
                    "time": 43.69161500000007,
                    "velocity": 0.2755905511811024,
                    "duration": 0.03894083333333498
                },
                {
                    "name": "D5",
                    "midi": 74,
                    "time": 43.71497950000007,
                    "velocity": 0.28346456692913385,
                    "duration": 2.6355156000000264
                },
                {
                    "name": "C#5",
                    "midi": 73,
                    "time": 43.73834400000007,
                    "velocity": 0.33070866141732286,
                    "duration": 0.32710300000000103
                },
                {
                    "name": "F#5",
                    "midi": 78,
                    "time": 44.06544700000007,
                    "velocity": 0.4094488188976378,
                    "duration": 0.04205610000000348
                },
                {
                    "name": "D4",
                    "midi": 62,
                    "time": 44.112176000000076,
                    "velocity": 0.36220472440944884,
                    "duration": 1.4953280000000149
                },
                {
                    "name": "F#5",
                    "midi": 78,
                    "time": 44.112176000000076,
                    "velocity": 0.4251968503937008,
                    "duration": 0.11214960000000218
                },
                {
                    "name": "F#4",
                    "midi": 66,
                    "time": 44.112176000000076,
                    "velocity": 0.36220472440944884,
                    "duration": 1.4953280000000149
                },
                {
                    "name": "F#5",
                    "midi": 78,
                    "time": 44.236786666666745,
                    "velocity": 0.4094488188976378,
                    "duration": 0.11214960000000218
                },
                {
                    "name": "F#5",
                    "midi": 78,
                    "time": 44.361397333333414,
                    "velocity": 0.4094488188976378,
                    "duration": 0.0700934999999987
                },
                {
                    "name": "F#5",
                    "midi": 78,
                    "time": 44.43927900000008,
                    "velocity": 0.3543307086614173,
                    "duration": 0.03894083333333498
                },
                {
                    "name": "G#5",
                    "midi": 80,
                    "time": 44.46264350000008,
                    "velocity": 0.3543307086614173,
                    "duration": 0.03894083333333498
                },
                {
                    "name": "F#5",
                    "midi": 78,
                    "time": 44.486008000000076,
                    "velocity": 0.4015748031496063,
                    "duration": 0.32710300000000103
                },
                {
                    "name": "F#5",
                    "midi": 78,
                    "time": 44.81311100000008,
                    "velocity": 0.36220472440944884,
                    "duration": 0.04205610000000348
                },
                {
                    "name": "F#5",
                    "midi": 78,
                    "time": 44.859840000000084,
                    "velocity": 0.4251968503937008,
                    "duration": 0.11214960000000218
                },
                {
                    "name": "F#5",
                    "midi": 78,
                    "time": 44.98445066666675,
                    "velocity": 0.4015748031496063,
                    "duration": 0.11214960000000218
                },
                {
                    "name": "F#5",
                    "midi": 78,
                    "time": 45.10906133333342,
                    "velocity": 0.4015748031496063,
                    "duration": 0.0700934999999987
                },
                {
                    "name": "F#5",
                    "midi": 78,
                    "time": 45.186943000000085,
                    "velocity": 0.36220472440944884,
                    "duration": 0.03894083333333498
                },
                {
                    "name": "G#5",
                    "midi": 80,
                    "time": 45.210307500000084,
                    "velocity": 0.36220472440944884,
                    "duration": 0.03894083333333498
                },
                {
                    "name": "F#5",
                    "midi": 78,
                    "time": 45.233672000000084,
                    "velocity": 0.4094488188976378,
                    "duration": 0.32710300000000103
                },
                {
                    "name": "E5",
                    "midi": 76,
                    "time": 45.560775000000085,
                    "velocity": 0.3464566929133858,
                    "duration": 0.04205610000000348
                },
                {
                    "name": "E5",
                    "midi": 76,
                    "time": 45.60750400000009,
                    "velocity": 0.4015748031496063,
                    "duration": 0.11214960000000218
                },
                {
                    "name": "E4",
                    "midi": 64,
                    "time": 45.60750400000009,
                    "velocity": 0.36220472440944884,
                    "duration": 0.7476640000000074
                },
                {
                    "name": "C#4",
                    "midi": 61,
                    "time": 45.60750400000009,
                    "velocity": 0.36220472440944884,
                    "duration": 0.7476640000000074
                },
                {
                    "name": "E5",
                    "midi": 76,
                    "time": 45.73211466666676,
                    "velocity": 0.3858267716535433,
                    "duration": 0.11214960000000218
                },
                {
                    "name": "E5",
                    "midi": 76,
                    "time": 45.85672533333343,
                    "velocity": 0.3858267716535433,
                    "duration": 0.0700934999999987
                },
                {
                    "name": "E5",
                    "midi": 76,
                    "time": 45.93460700000009,
                    "velocity": 0.3464566929133858,
                    "duration": 0.03894083333333498
                },
                {
                    "name": "F#5",
                    "midi": 78,
                    "time": 45.95797150000009,
                    "velocity": 0.36220472440944884,
                    "duration": 0.03894083333333498
                },
                {
                    "name": "E5",
                    "midi": 76,
                    "time": 45.98133600000009,
                    "velocity": 0.4094488188976378,
                    "duration": 0.32710300000000103
                },
                {
                    "name": "D5",
                    "midi": 74,
                    "time": 46.30843900000009,
                    "velocity": 0.3464566929133858,
                    "duration": 0.15887860000000842
                },
                {
                    "name": "D4",
                    "midi": 62,
                    "time": 46.3551680000001,
                    "velocity": 0.3464566929133858,
                    "duration": 0.7476640000000074
                },
                {
                    "name": "D5",
                    "midi": 74,
                    "time": 46.3551680000001,
                    "velocity": 0.4015748031496063,
                    "duration": 0.23676026666667127
                },
                {
                    "name": "B3",
                    "midi": 59,
                    "time": 46.3551680000001,
                    "velocity": 0.3464566929133858,
                    "duration": 0.7476640000000074
                },
                {
                    "name": "D5",
                    "midi": 74,
                    "time": 46.47977866666677,
                    "velocity": 0.3779527559055118,
                    "duration": 0.1947041666666678
                },
                {
                    "name": "D5",
                    "midi": 74,
                    "time": 46.60438933333344,
                    "velocity": 0.3779527559055118,
                    "duration": 0.11682249999999783
                },
                {
                    "name": "D5",
                    "midi": 74,
                    "time": 46.6822710000001,
                    "velocity": 0.33070866141732286,
                    "duration": 0.37383200000000016
                },
                {
                    "name": "E5",
                    "midi": 76,
                    "time": 46.7056355000001,
                    "velocity": 0.3543307086614173,
                    "duration": 0.03894083333333498
                },
                {
                    "name": "D5",
                    "midi": 74,
                    "time": 46.7290000000001,
                    "velocity": 0.3937007874015748,
                    "duration": 1.5109043333333503
                },
                {
                    "name": "F#5",
                    "midi": 78,
                    "time": 47.0561030000001,
                    "velocity": 0.3464566929133858,
                    "duration": 0.04205610000000348
                },
                {
                    "name": "D4",
                    "midi": 62,
                    "time": 47.102832000000106,
                    "velocity": 0.3464566929133858,
                    "duration": 0.7476640000000074
                },
                {
                    "name": "F#4",
                    "midi": 66,
                    "time": 47.102832000000106,
                    "velocity": 0.3464566929133858,
                    "duration": 0.7476640000000074
                },
                {
                    "name": "F#5",
                    "midi": 78,
                    "time": 47.102832000000106,
                    "velocity": 0.4015748031496063,
                    "duration": 0.11214960000000218
                },
                {
                    "name": "F#5",
                    "midi": 78,
                    "time": 47.227442666666775,
                    "velocity": 0.3858267716535433,
                    "duration": 0.11214960000000218
                },
                {
                    "name": "F#5",
                    "midi": 78,
                    "time": 47.352053333333444,
                    "velocity": 0.3858267716535433,
                    "duration": 0.0700934999999987
                },
                {
                    "name": "F#5",
                    "midi": 78,
                    "time": 47.42993500000011,
                    "velocity": 0.3464566929133858,
                    "duration": 0.03894083333333498
                },
                {
                    "name": "G#5",
                    "midi": 80,
                    "time": 47.45329950000011,
                    "velocity": 0.3464566929133858,
                    "duration": 0.03894083333333498
                },
                {
                    "name": "F#5",
                    "midi": 78,
                    "time": 47.476664000000106,
                    "velocity": 0.3858267716535433,
                    "duration": 0.32710300000000103
                },
                {
                    "name": "C#5",
                    "midi": 73,
                    "time": 47.80376700000011,
                    "velocity": 0.3464566929133858,
                    "duration": 0.04205610000000348
                },
                {
                    "name": "A3",
                    "midi": 57,
                    "time": 47.85049600000011,
                    "velocity": 0.3464566929133858,
                    "duration": 1.869160000000015
                },
                {
                    "name": "C#4",
                    "midi": 61,
                    "time": 47.85049600000011,
                    "velocity": 0.3464566929133858,
                    "duration": 1.869160000000015
                },
                {
                    "name": "C#5",
                    "midi": 73,
                    "time": 47.85049600000011,
                    "velocity": 0.3779527559055118,
                    "duration": 0.11214960000000218
                },
                {
                    "name": "C#5",
                    "midi": 73,
                    "time": 47.97510666666678,
                    "velocity": 0.3543307086614173,
                    "duration": 0.11214960000000218
                },
                {
                    "name": "C#5",
                    "midi": 73,
                    "time": 48.09971733333345,
                    "velocity": 0.3543307086614173,
                    "duration": 0.0700934999999987
                },
                {
                    "name": "C#5",
                    "midi": 73,
                    "time": 48.177599000000114,
                    "velocity": 0.33070866141732286,
                    "duration": 0.03894083333333498
                },
                {
                    "name": "D5",
                    "midi": 74,
                    "time": 48.200963500000114,
                    "velocity": 0.3228346456692913,
                    "duration": 0.7866048333333424
                },
                {
                    "name": "C#5",
                    "midi": 73,
                    "time": 48.22432800000011,
                    "velocity": 0.3700787401574803,
                    "duration": 0.32710300000000103
                },
                {
                    "name": "C#5",
                    "midi": 73,
                    "time": 48.551431000000115,
                    "velocity": 0.33070866141732286,
                    "duration": 0.04205610000000348
                },
                {
                    "name": "C#5",
                    "midi": 73,
                    "time": 48.59816000000012,
                    "velocity": 0.3779527559055118,
                    "duration": 0.11214960000000218
                },
                {
                    "name": "C#5",
                    "midi": 73,
                    "time": 48.72277066666679,
                    "velocity": 0.3543307086614173,
                    "duration": 0.11214960000000218
                },
                {
                    "name": "C#5",
                    "midi": 73,
                    "time": 48.84738133333346,
                    "velocity": 0.3543307086614173,
                    "duration": 0.0700934999999987
                },
                {
                    "name": "C#5",
                    "midi": 73,
                    "time": 48.92526300000012,
                    "velocity": 0.33070866141732286,
                    "duration": 0.03894083333333498
                },
                {
                    "name": "D5",
                    "midi": 74,
                    "time": 48.94862750000012,
                    "velocity": 0.33070866141732286,
                    "duration": 0.7866048333333424
                },
                {
                    "name": "C#5",
                    "midi": 73,
                    "time": 48.97199200000012,
                    "velocity": 0.3858267716535433,
                    "duration": 0.32710300000000103
                },
                {
                    "name": "C#5",
                    "midi": 73,
                    "time": 49.29909500000012,
                    "velocity": 0.28346456692913385,
                    "duration": 0.04205610000000348
                },
                {
                    "name": "C#5",
                    "midi": 73,
                    "time": 49.34582400000013,
                    "velocity": 0.33070866141732286,
                    "duration": 0.11214960000000218
                },
                {
                    "name": "C#5",
                    "midi": 73,
                    "time": 49.4704346666668,
                    "velocity": 0.33070866141732286,
                    "duration": 0.11214960000000218
                },
                {
                    "name": "C#5",
                    "midi": 73,
                    "time": 49.595045333333466,
                    "velocity": 0.33070866141732286,
                    "duration": 0.0700934999999987
                },
                {
                    "name": "C#5",
                    "midi": 73,
                    "time": 49.67292700000013,
                    "velocity": 0.2755905511811024,
                    "duration": 0.03894083333333498
                },
                {
                    "name": "D5",
                    "midi": 74,
                    "time": 49.69629150000013,
                    "velocity": 0.28346456692913385,
                    "duration": 0
                },
                {
                    "name": "C#5",
                    "midi": 73,
                    "time": 49.71965600000013,
                    "velocity": 0.33070866141732286,
                    "duration": 0.37383200000000016
                },
                {
                    "name": "C5",
                    "midi": 72,
                    "time": 50.09348800000013,
                    "velocity": 0.5433070866141733,
                    "duration": 0.37383200000000016
                },
                {
                    "name": "D#5",
                    "midi": 75,
                    "time": 50.46732000000013,
                    "velocity": 0.5354330708661418,
                    "duration": 0.09345799999999826
                },
                {
                    "name": "E5",
                    "midi": 76,
                    "time": 50.56077800000013,
                    "velocity": 0.5275590551181102,
                    "duration": 0.09345799999999826
                },
                {
                    "name": "G#5",
                    "midi": 80,
                    "time": 50.654236000000125,
                    "velocity": 0.5748031496062992,
                    "duration": 0.09345799999999826
                },
                {
                    "name": "A5",
                    "midi": 81,
                    "time": 50.74769400000012,
                    "velocity": 0.5511811023622047,
                    "duration": 0.09345799999999826
                },
                {
                    "name": "G#5",
                    "midi": 80,
                    "time": 50.84115200000012,
                    "velocity": 0.5905511811023622,
                    "duration": 0.37383200000000016
                },
                {
                    "name": "E5",
                    "midi": 76,
                    "time": 51.21498400000012,
                    "velocity": 0.5669291338582677,
                    "duration": 0.09345799999999826
                },
                {
                    "name": "D#5",
                    "midi": 75,
                    "time": 51.30844200000012,
                    "velocity": 0.5433070866141733,
                    "duration": 0.09345799999999826
                },
                {
                    "name": "C#5",
                    "midi": 73,
                    "time": 51.40190000000012,
                    "velocity": 0.5669291338582677,
                    "duration": 0.09345799999999826
                },
                {
                    "name": "C5",
                    "midi": 72,
                    "time": 51.49535800000012,
                    "velocity": 0.5590551181102362,
                    "duration": 0.09345799999999826
                },
                {
                    "name": "C#5",
                    "midi": 73,
                    "time": 51.588816000000115,
                    "velocity": 0.6062992125984252,
                    "duration": 0.27336464999999777
                },
                {
                    "name": "C#5",
                    "midi": 73,
                    "time": 51.86919000000011,
                    "velocity": 0.5905511811023622,
                    "duration": 0.08411219999999986
                },
                {
                    "name": "C#5",
                    "midi": 73,
                    "time": 51.96264800000011,
                    "velocity": 0.5748031496062992,
                    "duration": 0.11214960000000218
                },
                {
                    "name": "C#5",
                    "midi": 73,
                    "time": 52.08725866666678,
                    "velocity": 0.5590551181102362,
                    "duration": 0.11214960000000218
                },
                {
                    "name": "C#5",
                    "midi": 73,
                    "time": 52.211869333333446,
                    "velocity": 0.5511811023622047,
                    "duration": 0.11214960000000218
                },
                {
                    "name": "C#5",
                    "midi": 73,
                    "time": 52.336480000000115,
                    "velocity": 0.5748031496062992,
                    "duration": 0.27258583333333064
                },
                {
                    "name": "C#5",
                    "midi": 73,
                    "time": 52.61685400000011,
                    "velocity": 0.5196850393700787,
                    "duration": 0.08411219999999986
                },
                {
                    "name": "C#5",
                    "midi": 73,
                    "time": 52.71031200000011,
                    "velocity": 0.5196850393700787,
                    "duration": 0.11214960000000218
                },
                {
                    "name": "C#5",
                    "midi": 73,
                    "time": 52.83492266666678,
                    "velocity": 0.5196850393700787,
                    "duration": 0.11214960000000218
                },
                {
                    "name": "C#5",
                    "midi": 73,
                    "time": 52.95953333333345,
                    "velocity": 0.5511811023622047,
                    "duration": 0.11214960000000218
                },
                {
                    "name": "C5",
                    "midi": 72,
                    "time": 53.084144000000116,
                    "velocity": 0.5748031496062992,
                    "duration": 0.37383200000000016
                },
                {
                    "name": "D#5",
                    "midi": 75,
                    "time": 53.457976000000116,
                    "velocity": 0.5590551181102362,
                    "duration": 0.09345799999999826
                },
                {
                    "name": "E5",
                    "midi": 76,
                    "time": 53.551434000000114,
                    "velocity": 0.5511811023622047,
                    "duration": 0.09345799999999826
                },
                {
                    "name": "G#5",
                    "midi": 80,
                    "time": 53.64489200000011,
                    "velocity": 0.5984251968503937,
                    "duration": 0.09345799999999826
                },
                {
                    "name": "A5",
                    "midi": 81,
                    "time": 53.73835000000011,
                    "velocity": 0.5748031496062992,
                    "duration": 0.09345799999999826
                },
                {
                    "name": "G#5",
                    "midi": 80,
                    "time": 53.83180800000011,
                    "velocity": 0.6141732283464567,
                    "duration": 0.37383200000000016
                },
                {
                    "name": "E5",
                    "midi": 76,
                    "time": 54.20564000000011,
                    "velocity": 0.5905511811023622,
                    "duration": 0.09345799999999826
                },
                {
                    "name": "D#5",
                    "midi": 75,
                    "time": 54.29909800000011,
                    "velocity": 0.5669291338582677,
                    "duration": 0.09345799999999826
                },
                {
                    "name": "C#5",
                    "midi": 73,
                    "time": 54.392556000000106,
                    "velocity": 0.5905511811023622,
                    "duration": 0.09345799999999826
                },
                {
                    "name": "C5",
                    "midi": 72,
                    "time": 54.486014000000104,
                    "velocity": 0.5826771653543307,
                    "duration": 0.09345799999999826
                },
                {
                    "name": "C#5",
                    "midi": 73,
                    "time": 54.5794720000001,
                    "velocity": 0.6299212598425197,
                    "duration": 0.2718070166666635
                },
                {
                    "name": "C#5",
                    "midi": 73,
                    "time": 54.8598460000001,
                    "velocity": 0.6141732283464567,
                    "duration": 0.08411219999999986
                },
                {
                    "name": "C#5",
                    "midi": 73,
                    "time": 54.953304000000095,
                    "velocity": 0.5984251968503937,
                    "duration": 0.11214960000000218
                },
                {
                    "name": "C#5",
                    "midi": 73,
                    "time": 55.077914666666764,
                    "velocity": 0.5826771653543307,
                    "duration": 0.11214960000000218
                },
                {
                    "name": "C#5",
                    "midi": 73,
                    "time": 55.20252533333343,
                    "velocity": 0.5748031496062992,
                    "duration": 0.11214960000000218
                },
                {
                    "name": "C#5",
                    "midi": 73,
                    "time": 55.3271360000001,
                    "velocity": 0.5748031496062992,
                    "duration": 0.27258583333333064
                },
                {
                    "name": "C#5",
                    "midi": 73,
                    "time": 55.6075100000001,
                    "velocity": 0.5196850393700787,
                    "duration": 0.08411219999999986
                },
                {
                    "name": "C#5",
                    "midi": 73,
                    "time": 55.700968000000096,
                    "velocity": 0.5984251968503937,
                    "duration": 0.11214960000000218
                },
                {
                    "name": "C#5",
                    "midi": 73,
                    "time": 55.825578666666765,
                    "velocity": 0.5826771653543307,
                    "duration": 0.11214960000000218
                },
                {
                    "name": "C#5",
                    "midi": 73,
                    "time": 55.950189333333434,
                    "velocity": 0.6299212598425197,
                    "duration": 0.11214960000000218
                },
                {
                    "name": "C#5",
                    "midi": 73,
                    "time": 56.0748000000001,
                    "velocity": 0.7244094488188977,
                    "duration": 0.27258583333333064
                },
                {
                    "name": "C#4",
                    "midi": 61,
                    "time": 56.0748000000001,
                    "velocity": 0.6141732283464567,
                    "duration": 0.27258583333333064
                },
                {
                    "name": "C#4",
                    "midi": 61,
                    "time": 56.3551740000001,
                    "velocity": 0.5275590551181102,
                    "duration": 0.08411219999999986
                },
                {
                    "name": "C#5",
                    "midi": 73,
                    "time": 56.3551740000001,
                    "velocity": 0.6220472440944882,
                    "duration": 0.08411219999999986
                },
                {
                    "name": "C#4",
                    "midi": 61,
                    "time": 56.448632000000096,
                    "velocity": 0.5275590551181102,
                    "duration": 0.11214960000000218
                },
                {
                    "name": "C#5",
                    "midi": 73,
                    "time": 56.448632000000096,
                    "velocity": 0.6220472440944882,
                    "duration": 0.11214960000000218
                },
                {
                    "name": "C#4",
                    "midi": 61,
                    "time": 56.573242666666765,
                    "velocity": 0.5275590551181102,
                    "duration": 0.11214960000000218
                },
                {
                    "name": "C#5",
                    "midi": 73,
                    "time": 56.573242666666765,
                    "velocity": 0.6220472440944882,
                    "duration": 0.11214960000000218
                },
                {
                    "name": "C#4",
                    "midi": 61,
                    "time": 56.697853333333434,
                    "velocity": 0.5275590551181102,
                    "duration": 0.11214960000000218
                },
                {
                    "name": "C#5",
                    "midi": 73,
                    "time": 56.697853333333434,
                    "velocity": 0.6220472440944882,
                    "duration": 0.11214960000000218
                },
                {
                    "name": "C#4",
                    "midi": 61,
                    "time": 56.8224640000001,
                    "velocity": 0.5984251968503937,
                    "duration": 0.27258583333333064
                },
                {
                    "name": "C#5",
                    "midi": 73,
                    "time": 56.8224640000001,
                    "velocity": 0.7086614173228346,
                    "duration": 0.27258583333333064
                },
                {
                    "name": "C#5",
                    "midi": 73,
                    "time": 57.1028380000001,
                    "velocity": 0.5748031496062992,
                    "duration": 0.08411219999999986
                },
                {
                    "name": "C#4",
                    "midi": 61,
                    "time": 57.1028380000001,
                    "velocity": 0.4881889763779528,
                    "duration": 0.08411219999999986
                },
                {
                    "name": "C#4",
                    "midi": 61,
                    "time": 57.196296000000096,
                    "velocity": 0.4881889763779528,
                    "duration": 0.11214960000000218
                },
                {
                    "name": "C#5",
                    "midi": 73,
                    "time": 57.196296000000096,
                    "velocity": 0.5748031496062992,
                    "duration": 0.11214960000000218
                },
                {
                    "name": "C#5",
                    "midi": 73,
                    "time": 57.320906666666765,
                    "velocity": 0.5748031496062992,
                    "duration": 0.11214960000000218
                },
                {
                    "name": "C#4",
                    "midi": 61,
                    "time": 57.320906666666765,
                    "velocity": 0.4881889763779528,
                    "duration": 0.11214960000000218
                },
                {
                    "name": "C#4",
                    "midi": 61,
                    "time": 57.445517333333434,
                    "velocity": 0.4881889763779528,
                    "duration": 0.11214960000000218
                },
                {
                    "name": "C#5",
                    "midi": 73,
                    "time": 57.445517333333434,
                    "velocity": 0.5748031496062992,
                    "duration": 0.11214960000000218
                },
                {
                    "name": "A4",
                    "midi": 69,
                    "time": 57.5701280000001,
                    "velocity": 0.6141732283464567,
                    "duration": 0.27258583333333064
                },
                {
                    "name": "A5",
                    "midi": 81,
                    "time": 57.5701280000001,
                    "velocity": 0.7244094488188977,
                    "duration": 0.27258583333333064
                },
                {
                    "name": "G#5",
                    "midi": 80,
                    "time": 57.8505020000001,
                    "velocity": 0.6141732283464567,
                    "duration": 0.08411219999999986
                },
                {
                    "name": "G#4",
                    "midi": 68,
                    "time": 57.8505020000001,
                    "velocity": 0.5196850393700787,
                    "duration": 0.08411219999999986
                },
                {
                    "name": "G#4",
                    "midi": 68,
                    "time": 57.9439600000001,
                    "velocity": 0.5196850393700787,
                    "duration": 0.11214960000000218
                },
                {
                    "name": "G#5",
                    "midi": 80,
                    "time": 57.9439600000001,
                    "velocity": 0.6141732283464567,
                    "duration": 0.11214960000000218
                },
                {
                    "name": "G#5",
                    "midi": 80,
                    "time": 58.068570666666766,
                    "velocity": 0.6141732283464567,
                    "duration": 0.11214960000000218
                },
                {
                    "name": "G#4",
                    "midi": 68,
                    "time": 58.068570666666766,
                    "velocity": 0.5196850393700787,
                    "duration": 0.11214960000000218
                },
                {
                    "name": "G#4",
                    "midi": 68,
                    "time": 58.193181333333435,
                    "velocity": 0.5196850393700787,
                    "duration": 0.11214960000000218
                },
                {
                    "name": "G#5",
                    "midi": 80,
                    "time": 58.193181333333435,
                    "velocity": 0.6141732283464567,
                    "duration": 0.11214960000000218
                },
                {
                    "name": "F#4",
                    "midi": 66,
                    "time": 58.317792000000104,
                    "velocity": 0.5669291338582677,
                    "duration": 0.27258583333333064
                },
                {
                    "name": "F#5",
                    "midi": 78,
                    "time": 58.317792000000104,
                    "velocity": 0.6692913385826772,
                    "duration": 0.27258583333333064
                },
                {
                    "name": "G#5",
                    "midi": 80,
                    "time": 58.5981660000001,
                    "velocity": 0.5748031496062992,
                    "duration": 0.08411219999999986
                },
                {
                    "name": "G#4",
                    "midi": 68,
                    "time": 58.5981660000001,
                    "velocity": 0.4881889763779528,
                    "duration": 0.08411219999999986
                },
                {
                    "name": "G#4",
                    "midi": 68,
                    "time": 58.6916240000001,
                    "velocity": 0.4881889763779528,
                    "duration": 0.11214960000000218
                },
                {
                    "name": "G#5",
                    "midi": 80,
                    "time": 58.6916240000001,
                    "velocity": 0.5748031496062992,
                    "duration": 0.11214960000000218
                },
                {
                    "name": "G#5",
                    "midi": 80,
                    "time": 58.816234666666766,
                    "velocity": 0.5748031496062992,
                    "duration": 0.11214960000000218
                },
                {
                    "name": "G#4",
                    "midi": 68,
                    "time": 58.816234666666766,
                    "velocity": 0.4881889763779528,
                    "duration": 0.11214960000000218
                },
                {
                    "name": "G#4",
                    "midi": 68,
                    "time": 58.940845333333435,
                    "velocity": 0.4881889763779528,
                    "duration": 0.11214960000000218
                },
                {
                    "name": "G#5",
                    "midi": 80,
                    "time": 58.940845333333435,
                    "velocity": 0.5748031496062992,
                    "duration": 0.11214960000000218
                },
                {
                    "name": "C#4",
                    "midi": 61,
                    "time": 59.065456000000104,
                    "velocity": 0.6141732283464567,
                    "duration": 0.27258583333333064
                },
                {
                    "name": "C#5",
                    "midi": 73,
                    "time": 59.065456000000104,
                    "velocity": 0.7244094488188977,
                    "duration": 0.27258583333333064
                },
                {
                    "name": "C#5",
                    "midi": 73,
                    "time": 59.3458300000001,
                    "velocity": 0.6220472440944882,
                    "duration": 0.08411219999999986
                },
                {
                    "name": "C#4",
                    "midi": 61,
                    "time": 59.3458300000001,
                    "velocity": 0.5275590551181102,
                    "duration": 0.08411219999999986
                },
                {
                    "name": "C#4",
                    "midi": 61,
                    "time": 59.4392880000001,
                    "velocity": 0.5275590551181102,
                    "duration": 0.11214960000000218
                },
                {
                    "name": "C#5",
                    "midi": 73,
                    "time": 59.4392880000001,
                    "velocity": 0.6220472440944882,
                    "duration": 0.11214960000000218
                },
                {
                    "name": "C#5",
                    "midi": 73,
                    "time": 59.563898666666766,
                    "velocity": 0.6220472440944882,
                    "duration": 0.11214960000000218
                },
                {
                    "name": "C#4",
                    "midi": 61,
                    "time": 59.563898666666766,
                    "velocity": 0.5275590551181102,
                    "duration": 0.11214960000000218
                },
                {
                    "name": "C#5",
                    "midi": 73,
                    "time": 59.688509333333435,
                    "velocity": 0.6220472440944882,
                    "duration": 0.11214960000000218
                },
                {
                    "name": "C#4",
                    "midi": 61,
                    "time": 59.688509333333435,
                    "velocity": 0.5275590551181102,
                    "duration": 0.11214960000000218
                },
                {
                    "name": "C#4",
                    "midi": 61,
                    "time": 59.813120000000104,
                    "velocity": 0.5984251968503937,
                    "duration": 0.27258583333333064
                },
                {
                    "name": "C#5",
                    "midi": 73,
                    "time": 59.813120000000104,
                    "velocity": 0.7086614173228346,
                    "duration": 0.27258583333333064
                },
                {
                    "name": "C#5",
                    "midi": 73,
                    "time": 60.0934940000001,
                    "velocity": 0.5748031496062992,
                    "duration": 0.08411219999999986
                },
                {
                    "name": "C#4",
                    "midi": 61,
                    "time": 60.0934940000001,
                    "velocity": 0.4881889763779528,
                    "duration": 0.08411219999999986
                },
                {
                    "name": "C#4",
                    "midi": 61,
                    "time": 60.1869520000001,
                    "velocity": 0.4881889763779528,
                    "duration": 0.11214960000000218
                },
                {
                    "name": "C#5",
                    "midi": 73,
                    "time": 60.1869520000001,
                    "velocity": 0.5748031496062992,
                    "duration": 0.11214960000000218
                },
                {
                    "name": "C#4",
                    "midi": 61,
                    "time": 60.31156266666677,
                    "velocity": 0.4881889763779528,
                    "duration": 0.11214960000000218
                },
                {
                    "name": "C#5",
                    "midi": 73,
                    "time": 60.31156266666677,
                    "velocity": 0.5748031496062992,
                    "duration": 0.11214960000000218
                },
                {
                    "name": "C#5",
                    "midi": 73,
                    "time": 60.436173333333436,
                    "velocity": 0.5748031496062992,
                    "duration": 0.11214960000000218
                },
                {
                    "name": "C#4",
                    "midi": 61,
                    "time": 60.436173333333436,
                    "velocity": 0.4881889763779528,
                    "duration": 0.11214960000000218
                },
                {
                    "name": "C#4",
                    "midi": 61,
                    "time": 60.560784000000105,
                    "velocity": 0.6141732283464567,
                    "duration": 0.27258583333333064
                },
                {
                    "name": "C#5",
                    "midi": 73,
                    "time": 60.560784000000105,
                    "velocity": 0.7244094488188977,
                    "duration": 0.27258583333333064
                },
                {
                    "name": "C#5",
                    "midi": 73,
                    "time": 60.8411580000001,
                    "velocity": 0.6220472440944882,
                    "duration": 0.08411219999999986
                },
                {
                    "name": "C#4",
                    "midi": 61,
                    "time": 60.8411580000001,
                    "velocity": 0.5275590551181102,
                    "duration": 0.08411219999999986
                },
                {
                    "name": "C#4",
                    "midi": 61,
                    "time": 60.9346160000001,
                    "velocity": 0.5275590551181102,
                    "duration": 0.11214960000000218
                },
                {
                    "name": "C#5",
                    "midi": 73,
                    "time": 60.9346160000001,
                    "velocity": 0.6220472440944882,
                    "duration": 0.11214960000000218
                },
                {
                    "name": "C#4",
                    "midi": 61,
                    "time": 61.05922666666677,
                    "velocity": 0.5275590551181102,
                    "duration": 0.11214960000000218
                },
                {
                    "name": "C#5",
                    "midi": 73,
                    "time": 61.05922666666677,
                    "velocity": 0.6220472440944882,
                    "duration": 0.11214960000000218
                },
                {
                    "name": "C#5",
                    "midi": 73,
                    "time": 61.183837333333436,
                    "velocity": 0.6220472440944882,
                    "duration": 0.11214960000000218
                },
                {
                    "name": "C#4",
                    "midi": 61,
                    "time": 61.183837333333436,
                    "velocity": 0.5275590551181102,
                    "duration": 0.11214960000000218
                },
                {
                    "name": "C#4",
                    "midi": 61,
                    "time": 61.308448000000105,
                    "velocity": 0.5984251968503937,
                    "duration": 0.27258583333333064
                },
                {
                    "name": "C#5",
                    "midi": 73,
                    "time": 61.308448000000105,
                    "velocity": 0.7086614173228346,
                    "duration": 0.27258583333333064
                },
                {
                    "name": "C#5",
                    "midi": 73,
                    "time": 61.5888220000001,
                    "velocity": 0.5748031496062992,
                    "duration": 0.08411219999999986
                },
                {
                    "name": "C#4",
                    "midi": 61,
                    "time": 61.5888220000001,
                    "velocity": 0.4881889763779528,
                    "duration": 0.08411219999999986
                },
                {
                    "name": "C#4",
                    "midi": 61,
                    "time": 61.6822800000001,
                    "velocity": 0.4881889763779528,
                    "duration": 0.11214960000000218
                },
                {
                    "name": "C#5",
                    "midi": 73,
                    "time": 61.6822800000001,
                    "velocity": 0.5748031496062992,
                    "duration": 0.11214960000000218
                },
                {
                    "name": "C#4",
                    "midi": 61,
                    "time": 61.80689066666677,
                    "velocity": 0.4881889763779528,
                    "duration": 0.11214960000000218
                },
                {
                    "name": "C#5",
                    "midi": 73,
                    "time": 61.80689066666677,
                    "velocity": 0.5748031496062992,
                    "duration": 0.11214960000000218
                },
                {
                    "name": "C#5",
                    "midi": 73,
                    "time": 61.931501333333436,
                    "velocity": 0.5748031496062992,
                    "duration": 0.11214960000000218
                },
                {
                    "name": "C#4",
                    "midi": 61,
                    "time": 61.931501333333436,
                    "velocity": 0.4881889763779528,
                    "duration": 0.11214960000000218
                },
                {
                    "name": "A4",
                    "midi": 69,
                    "time": 62.056112000000105,
                    "velocity": 0.6141732283464567,
                    "duration": 0.2803739999999948
                },
                {
                    "name": "A5",
                    "midi": 81,
                    "time": 62.056112000000105,
                    "velocity": 0.7244094488188977,
                    "duration": 0.27258583333333064
                },
                {
                    "name": "G#5",
                    "midi": 80,
                    "time": 62.3364860000001,
                    "velocity": 0.6141732283464567,
                    "duration": 0.08411219999999986
                },
                {
                    "name": "G#4",
                    "midi": 68,
                    "time": 62.3364860000001,
                    "velocity": 0.5196850393700787,
                    "duration": 0.08411219999999986
                },
                {
                    "name": "G#4",
                    "midi": 68,
                    "time": 62.4299440000001,
                    "velocity": 0.5196850393700787,
                    "duration": 0.11214960000000218
                },
                {
                    "name": "G#5",
                    "midi": 80,
                    "time": 62.4299440000001,
                    "velocity": 0.6141732283464567,
                    "duration": 0.11214960000000218
                },
                {
                    "name": "G#4",
                    "midi": 68,
                    "time": 62.55455466666677,
                    "velocity": 0.5196850393700787,
                    "duration": 0.11214960000000218
                },
                {
                    "name": "G#5",
                    "midi": 80,
                    "time": 62.55455466666677,
                    "velocity": 0.6141732283464567,
                    "duration": 0.11214960000000218
                },
                {
                    "name": "G#4",
                    "midi": 68,
                    "time": 62.67916533333344,
                    "velocity": 0.5196850393700787,
                    "duration": 0.11214960000000218
                },
                {
                    "name": "G#5",
                    "midi": 80,
                    "time": 62.67916533333344,
                    "velocity": 0.6141732283464567,
                    "duration": 0.11214960000000218
                },
                {
                    "name": "F#4",
                    "midi": 66,
                    "time": 62.803776000000106,
                    "velocity": 0.5669291338582677,
                    "duration": 0.2803740000000019
                },
                {
                    "name": "F#5",
                    "midi": 78,
                    "time": 62.803776000000106,
                    "velocity": 0.6692913385826772,
                    "duration": 0.2803740000000019
                },
                {
                    "name": "G#4",
                    "midi": 68,
                    "time": 63.08415000000011,
                    "velocity": 0.4881889763779528,
                    "duration": 0.08411219999999986
                },
                {
                    "name": "G#5",
                    "midi": 80,
                    "time": 63.08415000000011,
                    "velocity": 0.5748031496062992,
                    "duration": 0.08411219999999986
                },
                {
                    "name": "G#5",
                    "midi": 80,
                    "time": 63.177608000000106,
                    "velocity": 0.5748031496062992,
                    "duration": 0.11214960000000218
                },
                {
                    "name": "G#4",
                    "midi": 68,
                    "time": 63.177608000000106,
                    "velocity": 0.4881889763779528,
                    "duration": 0.11214960000000218
                },
                {
                    "name": "G#4",
                    "midi": 68,
                    "time": 63.302218666666775,
                    "velocity": 0.4881889763779528,
                    "duration": 0.11214960000000218
                },
                {
                    "name": "G#5",
                    "midi": 80,
                    "time": 63.302218666666775,
                    "velocity": 0.5748031496062992,
                    "duration": 0.11214960000000218
                },
                {
                    "name": "G#5",
                    "midi": 80,
                    "time": 63.426829333333444,
                    "velocity": 0.5748031496062992,
                    "duration": 0.11214960000000218
                },
                {
                    "name": "G#4",
                    "midi": 68,
                    "time": 63.426829333333444,
                    "velocity": 0.4881889763779528,
                    "duration": 0.11214960000000218
                },
                {
                    "name": "C#4",
                    "midi": 61,
                    "time": 63.55144000000011,
                    "velocity": 0.6141732283464567,
                    "duration": 0.27258583333333064
                },
                {
                    "name": "C#5",
                    "midi": 73,
                    "time": 63.55144000000011,
                    "velocity": 0.7244094488188977,
                    "duration": 0.27258583333333064
                },
                {
                    "name": "C#4",
                    "midi": 61,
                    "time": 63.83181400000011,
                    "velocity": 0.5275590551181102,
                    "duration": 0.08411219999999986
                },
                {
                    "name": "C#5",
                    "midi": 73,
                    "time": 63.83181400000011,
                    "velocity": 0.6220472440944882,
                    "duration": 0.08411219999999986
                },
                {
                    "name": "C#5",
                    "midi": 73,
                    "time": 63.925272000000106,
                    "velocity": 0.6220472440944882,
                    "duration": 0.11214959999999508
                },
                {
                    "name": "C#4",
                    "midi": 61,
                    "time": 63.925272000000106,
                    "velocity": 0.5275590551181102,
                    "duration": 0.11214959999999508
                },
                {
                    "name": "C#4",
                    "midi": 61,
                    "time": 64.04988266666676,
                    "velocity": 0.5275590551181102,
                    "duration": 0.11214959999999508
                },
                {
                    "name": "C#5",
                    "midi": 73,
                    "time": 64.04988266666676,
                    "velocity": 0.6220472440944882,
                    "duration": 0.11214959999999508
                },
                {
                    "name": "C#5",
                    "midi": 73,
                    "time": 64.17449333333342,
                    "velocity": 0.6220472440944882,
                    "duration": 0.11214959999999508
                },
                {
                    "name": "C#4",
                    "midi": 61,
                    "time": 64.17449333333342,
                    "velocity": 0.5275590551181102,
                    "duration": 0.11214959999999508
                },
                {
                    "name": "C#4",
                    "midi": 61,
                    "time": 64.29910400000007,
                    "velocity": 0.5984251968503937,
                    "duration": 0.27258583333333775
                },
                {
                    "name": "C#5",
                    "midi": 73,
                    "time": 64.29910400000007,
                    "velocity": 0.7086614173228346,
                    "duration": 0.27258583333333775
                },
                {
                    "name": "C#4",
                    "midi": 61,
                    "time": 64.57947800000008,
                    "velocity": 0.4566929133858268,
                    "duration": 0.08411220000000696
                },
                {
                    "name": "C#5",
                    "midi": 73,
                    "time": 64.57947800000008,
                    "velocity": 0.5433070866141733,
                    "duration": 0.08411220000000696
                },
                {
                    "name": "C#5",
                    "midi": 73,
                    "time": 64.67293600000009,
                    "velocity": 0.5433070866141733,
                    "duration": 0.11214959999999508
                },
                {
                    "name": "C#4",
                    "midi": 61,
                    "time": 64.67293600000009,
                    "velocity": 0.4566929133858268,
                    "duration": 0.11214959999999508
                },
                {
                    "name": "C#4",
                    "midi": 61,
                    "time": 64.79754666666675,
                    "velocity": 0.4566929133858268,
                    "duration": 0.11214959999999508
                },
                {
                    "name": "C#5",
                    "midi": 73,
                    "time": 64.79754666666675,
                    "velocity": 0.5433070866141733,
                    "duration": 0.11214959999999508
                },
                {
                    "name": "C#5",
                    "midi": 73,
                    "time": 64.9221573333334,
                    "velocity": 0.5433070866141733,
                    "duration": 0.11214959999999508
                },
                {
                    "name": "C#4",
                    "midi": 61,
                    "time": 64.9221573333334,
                    "velocity": 0.4566929133858268,
                    "duration": 0.11214959999999508
                },
                {
                    "name": "C#4",
                    "midi": 61,
                    "time": 65.04676800000006,
                    "velocity": 0.5433070866141733,
                    "duration": 0.27258583333333775
                },
                {
                    "name": "C#5",
                    "midi": 73,
                    "time": 65.04676800000006,
                    "velocity": 0.6456692913385826,
                    "duration": 0.27258583333333775
                },
                {
                    "name": "C#4",
                    "midi": 61,
                    "time": 65.32714200000007,
                    "velocity": 0.49606299212598426,
                    "duration": 0.08411220000000696
                },
                {
                    "name": "C#5",
                    "midi": 73,
                    "time": 65.32714200000007,
                    "velocity": 0.5905511811023622,
                    "duration": 0.08411220000000696
                },
                {
                    "name": "C#5",
                    "midi": 73,
                    "time": 65.42060000000008,
                    "velocity": 0.5905511811023622,
                    "duration": 0.11214959999999508
                },
                {
                    "name": "C#4",
                    "midi": 61,
                    "time": 65.42060000000008,
                    "velocity": 0.49606299212598426,
                    "duration": 0.11214959999999508
                },
                {
                    "name": "C#4",
                    "midi": 61,
                    "time": 65.54521066666673,
                    "velocity": 0.49606299212598426,
                    "duration": 0.11214959999999508
                },
                {
                    "name": "C#5",
                    "midi": 73,
                    "time": 65.54521066666673,
                    "velocity": 0.5905511811023622,
                    "duration": 0.11214959999999508
                },
                {
                    "name": "C#5",
                    "midi": 73,
                    "time": 65.66982133333339,
                    "velocity": 0.5905511811023622,
                    "duration": 0.11214959999999508
                },
                {
                    "name": "C#4",
                    "midi": 61,
                    "time": 65.66982133333339,
                    "velocity": 0.49606299212598426,
                    "duration": 0.11214959999999508
                },
                {
                    "name": "C#4",
                    "midi": 61,
                    "time": 65.79443200000004,
                    "velocity": 0.5511811023622047,
                    "duration": 0.27258583333333775
                },
                {
                    "name": "C#5",
                    "midi": 73,
                    "time": 65.79443200000004,
                    "velocity": 0.6535433070866141,
                    "duration": 0.27258583333333775
                },
                {
                    "name": "C#4",
                    "midi": 61,
                    "time": 66.07480600000005,
                    "velocity": 0.4881889763779528,
                    "duration": 0.08411220000000696
                },
                {
                    "name": "C#5",
                    "midi": 73,
                    "time": 66.07480600000005,
                    "velocity": 0.5748031496062992,
                    "duration": 0.08411220000000696
                },
                {
                    "name": "C#4",
                    "midi": 61,
                    "time": 66.16826400000006,
                    "velocity": 0.4881889763779528,
                    "duration": 0.11214959999999508
                },
                {
                    "name": "C#5",
                    "midi": 73,
                    "time": 66.16826400000006,
                    "velocity": 0.5748031496062992,
                    "duration": 0.11214959999999508
                },
                {
                    "name": "C#5",
                    "midi": 73,
                    "time": 66.29287466666672,
                    "velocity": 0.5748031496062992,
                    "duration": 0.11214959999999508
                },
                {
                    "name": "C#4",
                    "midi": 61,
                    "time": 66.29287466666672,
                    "velocity": 0.4881889763779528,
                    "duration": 0.11214959999999508
                },
                {
                    "name": "C#4",
                    "midi": 61,
                    "time": 66.41748533333337,
                    "velocity": 0.4881889763779528,
                    "duration": 0.11214959999999508
                },
                {
                    "name": "C#5",
                    "midi": 73,
                    "time": 66.41748533333337,
                    "velocity": 0.5748031496062992,
                    "duration": 0.11214959999999508
                },
                {
                    "name": "C#5",
                    "midi": 73,
                    "time": 66.54209600000003,
                    "velocity": 0.6929133858267716,
                    "duration": 0.27258583333333775
                },
                {
                    "name": "C#4",
                    "midi": 61,
                    "time": 66.54209600000003,
                    "velocity": 0.5826771653543307,
                    "duration": 0.27258583333333775
                },
                {
                    "name": "C#4",
                    "midi": 61,
                    "time": 66.82247000000004,
                    "velocity": 0.5275590551181102,
                    "duration": 0.08411220000000696
                },
                {
                    "name": "C#5",
                    "midi": 73,
                    "time": 66.82247000000004,
                    "velocity": 0.6220472440944882,
                    "duration": 0.08411220000000696
                },
                {
                    "name": "C#4",
                    "midi": 61,
                    "time": 66.91592800000005,
                    "velocity": 0.5275590551181102,
                    "duration": 0.11214959999999508
                },
                {
                    "name": "C#5",
                    "midi": 73,
                    "time": 66.91592800000005,
                    "velocity": 0.6220472440944882,
                    "duration": 0.11214959999999508
                },
                {
                    "name": "C#5",
                    "midi": 73,
                    "time": 67.0405386666667,
                    "velocity": 0.6220472440944882,
                    "duration": 0.11214959999999508
                },
                {
                    "name": "C#4",
                    "midi": 61,
                    "time": 67.0405386666667,
                    "velocity": 0.5275590551181102,
                    "duration": 0.11214959999999508
                },
                {
                    "name": "C#4",
                    "midi": 61,
                    "time": 67.16514933333336,
                    "velocity": 0.5275590551181102,
                    "duration": 0.11214959999999508
                },
                {
                    "name": "C#5",
                    "midi": 73,
                    "time": 67.16514933333336,
                    "velocity": 0.6220472440944882,
                    "duration": 0.11214959999999508
                },
                {
                    "name": "C#5",
                    "midi": 73,
                    "time": 67.28976000000002,
                    "velocity": 0.7086614173228346,
                    "duration": 0.27258583333333775
                },
                {
                    "name": "C#4",
                    "midi": 61,
                    "time": 67.28976000000002,
                    "velocity": 0.5984251968503937,
                    "duration": 0.27258583333333775
                },
                {
                    "name": "C#4",
                    "midi": 61,
                    "time": 67.57013400000002,
                    "velocity": 0.5196850393700787,
                    "duration": 0.08411220000000696
                },
                {
                    "name": "C#5",
                    "midi": 73,
                    "time": 67.57013400000002,
                    "velocity": 0.6141732283464567,
                    "duration": 0.08411220000000696
                },
                {
                    "name": "C#4",
                    "midi": 61,
                    "time": 67.66359200000004,
                    "velocity": 0.5196850393700787,
                    "duration": 0.11214959999999508
                },
                {
                    "name": "C#5",
                    "midi": 73,
                    "time": 67.66359200000004,
                    "velocity": 0.6141732283464567,
                    "duration": 0.11214959999999508
                },
                {
                    "name": "C#5",
                    "midi": 73,
                    "time": 67.78820266666669,
                    "velocity": 0.6141732283464567,
                    "duration": 0.11214959999999508
                },
                {
                    "name": "C#4",
                    "midi": 61,
                    "time": 67.78820266666669,
                    "velocity": 0.5196850393700787,
                    "duration": 0.11214959999999508
                },
                {
                    "name": "C#4",
                    "midi": 61,
                    "time": 67.91281333333335,
                    "velocity": 0.5118110236220472,
                    "duration": 0.11214959999999508
                },
                {
                    "name": "C#5",
                    "midi": 73,
                    "time": 67.91281333333335,
                    "velocity": 0.6062992125984252,
                    "duration": 0.11214959999999508
                },
                {
                    "name": "C#5",
                    "midi": 73,
                    "time": 68.037424,
                    "velocity": 0.6929133858267716,
                    "duration": 0.27258583333333775
                },
                {
                    "name": "C#4",
                    "midi": 61,
                    "time": 68.037424,
                    "velocity": 0.5826771653543307,
                    "duration": 0.27258583333333775
                },
                {
                    "name": "C#4",
                    "midi": 61,
                    "time": 68.31779800000001,
                    "velocity": 0.5354330708661418,
                    "duration": 0.08411220000000696
                },
                {
                    "name": "C#5",
                    "midi": 73,
                    "time": 68.31779800000001,
                    "velocity": 0.6299212598425197,
                    "duration": 0.08411220000000696
                },
                {
                    "name": "C#4",
                    "midi": 61,
                    "time": 68.41125600000002,
                    "velocity": 0.5354330708661418,
                    "duration": 0.11214959999999508
                },
                {
                    "name": "C#5",
                    "midi": 73,
                    "time": 68.41125600000002,
                    "velocity": 0.6299212598425197,
                    "duration": 0.11214959999999508
                },
                {
                    "name": "C#5",
                    "midi": 73,
                    "time": 68.53586666666668,
                    "velocity": 0.6299212598425197,
                    "duration": 0.11214959999999508
                },
                {
                    "name": "C#4",
                    "midi": 61,
                    "time": 68.53586666666668,
                    "velocity": 0.5354330708661418,
                    "duration": 0.11214959999999508
                },
                {
                    "name": "C#4",
                    "midi": 61,
                    "time": 68.66047733333333,
                    "velocity": 0.5275590551181102,
                    "duration": 0.11214959999999508
                },
                {
                    "name": "C#5",
                    "midi": 73,
                    "time": 68.66047733333333,
                    "velocity": 0.6220472440944882,
                    "duration": 0.11214959999999508
                },
                {
                    "name": "A5",
                    "midi": 81,
                    "time": 68.78508799999999,
                    "velocity": 0.7244094488188977,
                    "duration": 0.2803739999999948
                },
                {
                    "name": "A4",
                    "midi": 69,
                    "time": 68.78508799999999,
                    "velocity": 0.6141732283464567,
                    "duration": 0.2803739999999948
                },
                {
                    "name": "G#5",
                    "midi": 80,
                    "time": 69.06546199999998,
                    "velocity": 0.6141732283464567,
                    "duration": 0.08411220000000696
                },
                {
                    "name": "G#4",
                    "midi": 68,
                    "time": 69.06546199999998,
                    "velocity": 0.5196850393700787,
                    "duration": 0.08411220000000696
                },
                {
                    "name": "G#4",
                    "midi": 68,
                    "time": 69.15892,
                    "velocity": 0.5196850393700787,
                    "duration": 0.11214959999999508
                },
                {
                    "name": "G#5",
                    "midi": 80,
                    "time": 69.15892,
                    "velocity": 0.6141732283464567,
                    "duration": 0.11214959999999508
                },
                {
                    "name": "G#5",
                    "midi": 80,
                    "time": 69.28353066666665,
                    "velocity": 0.6141732283464567,
                    "duration": 0.11214959999999508
                },
                {
                    "name": "G#4",
                    "midi": 68,
                    "time": 69.28353066666665,
                    "velocity": 0.5196850393700787,
                    "duration": 0.11214959999999508
                },
                {
                    "name": "G#4",
                    "midi": 68,
                    "time": 69.4081413333333,
                    "velocity": 0.5196850393700787,
                    "duration": 0.11214959999999508
                },
                {
                    "name": "G#5",
                    "midi": 80,
                    "time": 69.4081413333333,
                    "velocity": 0.6141732283464567,
                    "duration": 0.11214959999999508
                },
                {
                    "name": "F#4",
                    "midi": 66,
                    "time": 69.53275199999996,
                    "velocity": 0.5669291338582677,
                    "duration": 0.2803739999999948
                },
                {
                    "name": "F#5",
                    "midi": 78,
                    "time": 69.53275199999996,
                    "velocity": 0.6692913385826772,
                    "duration": 0.2803739999999948
                },
                {
                    "name": "G#5",
                    "midi": 80,
                    "time": 69.81312599999995,
                    "velocity": 0.5748031496062992,
                    "duration": 0.08411220000000696
                },
                {
                    "name": "G#4",
                    "midi": 68,
                    "time": 69.81312599999995,
                    "velocity": 0.4881889763779528,
                    "duration": 0.08411220000000696
                },
                {
                    "name": "G#4",
                    "midi": 68,
                    "time": 69.90658399999997,
                    "velocity": 0.4881889763779528,
                    "duration": 0.11214959999999508
                },
                {
                    "name": "G#5",
                    "midi": 80,
                    "time": 69.90658399999997,
                    "velocity": 0.5748031496062992,
                    "duration": 0.11214959999999508
                },
                {
                    "name": "G#5",
                    "midi": 80,
                    "time": 70.03119466666662,
                    "velocity": 0.5748031496062992,
                    "duration": 0.11214959999999508
                },
                {
                    "name": "G#4",
                    "midi": 68,
                    "time": 70.03119466666662,
                    "velocity": 0.4881889763779528,
                    "duration": 0.11214959999999508
                },
                {
                    "name": "G#4",
                    "midi": 68,
                    "time": 70.15580533333328,
                    "velocity": 0.4881889763779528,
                    "duration": 0.11214959999999508
                },
                {
                    "name": "G#5",
                    "midi": 80,
                    "time": 70.15580533333328,
                    "velocity": 0.5748031496062992,
                    "duration": 0.11214959999999508
                },
                {
                    "name": "C#4",
                    "midi": 61,
                    "time": 70.28041599999993,
                    "velocity": 0.5984251968503937,
                    "duration": 0.27258583333333775
                },
                {
                    "name": "C#5",
                    "midi": 73,
                    "time": 70.28041599999993,
                    "velocity": 0.7086614173228346,
                    "duration": 0.27258583333333775
                },
                {
                    "name": "C#5",
                    "midi": 73,
                    "time": 70.56078999999994,
                    "velocity": 0.5748031496062992,
                    "duration": 0.08411220000000696
                },
                {
                    "name": "C#4",
                    "midi": 61,
                    "time": 70.56078999999994,
                    "velocity": 0.4881889763779528,
                    "duration": 0.08411220000000696
                },
                {
                    "name": "C#4",
                    "midi": 61,
                    "time": 70.65424799999995,
                    "velocity": 0.4881889763779528,
                    "duration": 0.11214959999999508
                },
                {
                    "name": "C#5",
                    "midi": 73,
                    "time": 70.65424799999995,
                    "velocity": 0.5748031496062992,
                    "duration": 0.11214959999999508
                },
                {
                    "name": "C#5",
                    "midi": 73,
                    "time": 70.77885866666661,
                    "velocity": 0.5748031496062992,
                    "duration": 0.11214959999999508
                },
                {
                    "name": "C#4",
                    "midi": 61,
                    "time": 70.77885866666661,
                    "velocity": 0.4881889763779528,
                    "duration": 0.11214959999999508
                },
                {
                    "name": "C#4",
                    "midi": 61,
                    "time": 70.90346933333326,
                    "velocity": 0.4881889763779528,
                    "duration": 0.11214959999999508
                },
                {
                    "name": "C#5",
                    "midi": 73,
                    "time": 70.90346933333326,
                    "velocity": 0.5748031496062992,
                    "duration": 0.11214959999999508
                },
                {
                    "name": "C#4",
                    "midi": 61,
                    "time": 71.02807999999992,
                    "velocity": 0.6141732283464567,
                    "duration": 0.27258583333333775
                },
                {
                    "name": "C#5",
                    "midi": 73,
                    "time": 71.02807999999992,
                    "velocity": 0.7244094488188977,
                    "duration": 0.27258583333333775
                },
                {
                    "name": "C#5",
                    "midi": 73,
                    "time": 71.30845399999993,
                    "velocity": 0.6220472440944882,
                    "duration": 0.08411220000000696
                },
                {
                    "name": "C#4",
                    "midi": 61,
                    "time": 71.30845399999993,
                    "velocity": 0.5275590551181102,
                    "duration": 0.08411220000000696
                },
                {
                    "name": "C#4",
                    "midi": 61,
                    "time": 71.40191199999994,
                    "velocity": 0.5275590551181102,
                    "duration": 0.11214959999999508
                },
                {
                    "name": "C#5",
                    "midi": 73,
                    "time": 71.40191199999994,
                    "velocity": 0.6220472440944882,
                    "duration": 0.11214959999999508
                },
                {
                    "name": "C#5",
                    "midi": 73,
                    "time": 71.5265226666666,
                    "velocity": 0.6220472440944882,
                    "duration": 0.11214959999999508
                },
                {
                    "name": "C#4",
                    "midi": 61,
                    "time": 71.5265226666666,
                    "velocity": 0.5275590551181102,
                    "duration": 0.11214959999999508
                },
                {
                    "name": "C#4",
                    "midi": 61,
                    "time": 71.65113333333325,
                    "velocity": 0.5275590551181102,
                    "duration": 0.11214959999999508
                },
                {
                    "name": "C#5",
                    "midi": 73,
                    "time": 71.65113333333325,
                    "velocity": 0.6220472440944882,
                    "duration": 0.11214959999999508
                },
                {
                    "name": "C#4",
                    "midi": 61,
                    "time": 71.7757439999999,
                    "velocity": 0.5984251968503937,
                    "duration": 0.27258583333333775
                },
                {
                    "name": "C#5",
                    "midi": 73,
                    "time": 71.7757439999999,
                    "velocity": 0.7086614173228346,
                    "duration": 0.27258583333333775
                },
                {
                    "name": "C#4",
                    "midi": 61,
                    "time": 72.05611799999991,
                    "velocity": 0.4881889763779528,
                    "duration": 0.08411220000000696
                },
                {
                    "name": "C#5",
                    "midi": 73,
                    "time": 72.05611799999991,
                    "velocity": 0.5748031496062992,
                    "duration": 0.08411220000000696
                },
                {
                    "name": "C#4",
                    "midi": 61,
                    "time": 72.14957599999993,
                    "velocity": 0.4881889763779528,
                    "duration": 0.11214959999999508
                },
                {
                    "name": "C#5",
                    "midi": 73,
                    "time": 72.14957599999993,
                    "velocity": 0.5748031496062992,
                    "duration": 0.11214959999999508
                },
                {
                    "name": "C#4",
                    "midi": 61,
                    "time": 72.27418666666658,
                    "velocity": 0.4881889763779528,
                    "duration": 0.11214959999999508
                },
                {
                    "name": "C#5",
                    "midi": 73,
                    "time": 72.27418666666658,
                    "velocity": 0.5748031496062992,
                    "duration": 0.11214959999999508
                },
                {
                    "name": "C#5",
                    "midi": 73,
                    "time": 72.39879733333323,
                    "velocity": 0.5748031496062992,
                    "duration": 0.11214959999999508
                },
                {
                    "name": "C#4",
                    "midi": 61,
                    "time": 72.39879733333323,
                    "velocity": 0.4881889763779528,
                    "duration": 0.11214959999999508
                },
                {
                    "name": "C#4",
                    "midi": 61,
                    "time": 72.52340799999989,
                    "velocity": 0.5826771653543307,
                    "duration": 0.27258583333333775
                },
                {
                    "name": "C#5",
                    "midi": 73,
                    "time": 72.52340799999989,
                    "velocity": 0.6929133858267716,
                    "duration": 0.27258583333333775
                },
                {
                    "name": "C#5",
                    "midi": 73,
                    "time": 72.8037819999999,
                    "velocity": 0.6220472440944882,
                    "duration": 0.08411220000000696
                },
                {
                    "name": "C#4",
                    "midi": 61,
                    "time": 72.8037819999999,
                    "velocity": 0.5275590551181102,
                    "duration": 0.08411220000000696
                },
                {
                    "name": "C#4",
                    "midi": 61,
                    "time": 72.89723999999991,
                    "velocity": 0.5275590551181102,
                    "duration": 0.11214959999999508
                },
                {
                    "name": "C#5",
                    "midi": 73,
                    "time": 72.89723999999991,
                    "velocity": 0.6220472440944882,
                    "duration": 0.11214959999999508
                },
                {
                    "name": "C#4",
                    "midi": 61,
                    "time": 73.02185066666657,
                    "velocity": 0.5275590551181102,
                    "duration": 0.11214959999999508
                },
                {
                    "name": "C#5",
                    "midi": 73,
                    "time": 73.02185066666657,
                    "velocity": 0.6220472440944882,
                    "duration": 0.11214959999999508
                },
                {
                    "name": "C#5",
                    "midi": 73,
                    "time": 73.14646133333322,
                    "velocity": 0.6220472440944882,
                    "duration": 0.11214959999999508
                },
                {
                    "name": "C#4",
                    "midi": 61,
                    "time": 73.14646133333322,
                    "velocity": 0.5275590551181102,
                    "duration": 0.11214959999999508
                },
                {
                    "name": "C#4",
                    "midi": 61,
                    "time": 73.27107199999988,
                    "velocity": 0.5984251968503937,
                    "duration": 0.27258583333333775
                },
                {
                    "name": "C#5",
                    "midi": 73,
                    "time": 73.27107199999988,
                    "velocity": 0.7086614173228346,
                    "duration": 0.27258583333333775
                },
                {
                    "name": "C#5",
                    "midi": 73,
                    "time": 73.55144599999988,
                    "velocity": 0.6456692913385826,
                    "duration": 0.08411220000000696
                },
                {
                    "name": "C#4",
                    "midi": 61,
                    "time": 73.55144599999988,
                    "velocity": 0.5433070866141733,
                    "duration": 0.08411220000000696
                },
                {
                    "name": "C#4",
                    "midi": 61,
                    "time": 73.6449039999999,
                    "velocity": 0.5354330708661418,
                    "duration": 0.11214959999999508
                },
                {
                    "name": "C#5",
                    "midi": 73,
                    "time": 73.6449039999999,
                    "velocity": 0.6377952755905512,
                    "duration": 0.11214959999999508
                },
                {
                    "name": "C#4",
                    "midi": 61,
                    "time": 73.76951466666655,
                    "velocity": 0.5354330708661418,
                    "duration": 0.11214959999999508
                },
                {
                    "name": "C#5",
                    "midi": 73,
                    "time": 73.76951466666655,
                    "velocity": 0.6377952755905512,
                    "duration": 0.11214959999999508
                },
                {
                    "name": "C#5",
                    "midi": 73,
                    "time": 73.8941253333332,
                    "velocity": 0.6377952755905512,
                    "duration": 0.11214959999999508
                },
                {
                    "name": "C#4",
                    "midi": 61,
                    "time": 73.8941253333332,
                    "velocity": 0.5354330708661418,
                    "duration": 0.11214959999999508
                },
                {
                    "name": "C#4",
                    "midi": 61,
                    "time": 74.01873599999986,
                    "velocity": 0.6299212598425197,
                    "duration": 0.27258583333333775
                },
                {
                    "name": "C#5",
                    "midi": 73,
                    "time": 74.01873599999986,
                    "velocity": 0.7480314960629921,
                    "duration": 0.27258583333333775
                },
                {
                    "name": "C#5",
                    "midi": 73,
                    "time": 74.29910999999987,
                    "velocity": 0.6141732283464567,
                    "duration": 0.08411220000000696
                },
                {
                    "name": "C#4",
                    "midi": 61,
                    "time": 74.29910999999987,
                    "velocity": 0.5196850393700787,
                    "duration": 0.08411220000000696
                },
                {
                    "name": "C#4",
                    "midi": 61,
                    "time": 74.39256799999988,
                    "velocity": 0.5275590551181102,
                    "duration": 0.11214959999999508
                },
                {
                    "name": "C#5",
                    "midi": 73,
                    "time": 74.39256799999988,
                    "velocity": 0.6220472440944882,
                    "duration": 0.11214959999999508
                },
                {
                    "name": "C#4",
                    "midi": 61,
                    "time": 74.51717866666654,
                    "velocity": 0.5433070866141733,
                    "duration": 0.11214959999999508
                },
                {
                    "name": "C#5",
                    "midi": 73,
                    "time": 74.51717866666654,
                    "velocity": 0.6456692913385826,
                    "duration": 0.11214959999999508
                },
                {
                    "name": "C#5",
                    "midi": 73,
                    "time": 74.6417893333332,
                    "velocity": 0.6614173228346457,
                    "duration": 0.11214959999999508
                },
                {
                    "name": "C#4",
                    "midi": 61,
                    "time": 74.6417893333332,
                    "velocity": 0.5590551181102362,
                    "duration": 0.11214959999999508
                },
                {
                    "name": "C#4",
                    "midi": 61,
                    "time": 74.76639999999985,
                    "velocity": 0.6299212598425197,
                    "duration": 0.37383199999999306
                },
                {
                    "name": "F4",
                    "midi": 65,
                    "time": 74.76639999999985,
                    "velocity": 0.6299212598425197,
                    "duration": 0.37383199999999306
                },
                {
                    "name": "C#5",
                    "midi": 73,
                    "time": 74.76639999999985,
                    "velocity": 0.7480314960629921,
                    "duration": 0.37383199999999306
                },
                {
                    "name": "A4",
                    "midi": 69,
                    "time": 74.76639999999985,
                    "velocity": 0.6299212598425197,
                    "duration": 0.37383199999999306
                },
                {
                    "name": "F4",
                    "midi": 65,
                    "time": 76.26172799999983,
                    "velocity": 0.4251968503937008,
                    "duration": 0.7476640000000003
                },
                {
                    "name": "C4",
                    "midi": 60,
                    "time": 77.00939199999983,
                    "velocity": 0.4881889763779528,
                    "duration": 0.7476640000000003
                },
                {
                    "name": "E4",
                    "midi": 64,
                    "time": 77.00939199999983,
                    "velocity": 0.4881889763779528,
                    "duration": 0.7476640000000003
                },
                {
                    "name": "D#4",
                    "midi": 63,
                    "time": 77.75705599999984,
                    "velocity": 0.5354330708661418,
                    "duration": 0.37383199999999306
                },
                {
                    "name": "C4",
                    "midi": 60,
                    "time": 77.75705599999984,
                    "velocity": 0.5354330708661418,
                    "duration": 0.7476640000000003
                },
                {
                    "name": "D4",
                    "midi": 62,
                    "time": 78.13088799999983,
                    "velocity": 0.49606299212598426,
                    "duration": 0.12461066666666909
                },
                {
                    "name": "D#4",
                    "midi": 63,
                    "time": 78.2554986666665,
                    "velocity": 0.5275590551181102,
                    "duration": 0.12461066666666909
                },
                {
                    "name": "D4",
                    "midi": 62,
                    "time": 78.38010933333317,
                    "velocity": 0.49606299212598426,
                    "duration": 0.12461066666666909
                },
                {
                    "name": "A#3",
                    "midi": 58,
                    "time": 78.50471999999984,
                    "velocity": 0.4645669291338583,
                    "duration": 0.7476640000000003
                },
                {
                    "name": "C#4",
                    "midi": 61,
                    "time": 78.50471999999984,
                    "velocity": 0.4645669291338583,
                    "duration": 0.7476640000000003
                },
                {
                    "name": "C4",
                    "midi": 60,
                    "time": 79.25238399999984,
                    "velocity": 0.4409448818897638,
                    "duration": 0.3271029999999939
                },
                {
                    "name": "A3",
                    "midi": 57,
                    "time": 79.25238399999984,
                    "velocity": 0.4409448818897638,
                    "duration": 0.3271029999999939
                },
                {
                    "name": "E4",
                    "midi": 64,
                    "time": 79.57948699999983,
                    "velocity": 0.6771653543307087,
                    "duration": 0.04672899999999913
                },
                {
                    "name": "F4",
                    "midi": 65,
                    "time": 79.62621599999983,
                    "velocity": 0.7874015748031497,
                    "duration": 0.18691599999999653
                },
                {
                    "name": "E4",
                    "midi": 64,
                    "time": 80.00004799999982,
                    "velocity": 0.4881889763779528,
                    "duration": 0.7476640000000003
                },
                {
                    "name": "C4",
                    "midi": 60,
                    "time": 80.00004799999982,
                    "velocity": 0.4881889763779528,
                    "duration": 0.7476640000000003
                },
                {
                    "name": "D#4",
                    "midi": 63,
                    "time": 80.74771199999982,
                    "velocity": 0.5354330708661418,
                    "duration": 0.37383199999999306
                },
                {
                    "name": "B3",
                    "midi": 59,
                    "time": 80.74771199999982,
                    "velocity": 0.5354330708661418,
                    "duration": 0.7476640000000003
                },
                {
                    "name": "D4",
                    "midi": 62,
                    "time": 81.12154399999982,
                    "velocity": 0.49606299212598426,
                    "duration": 0.12461066666666909
                },
                {
                    "name": "D#4",
                    "midi": 63,
                    "time": 81.24615466666648,
                    "velocity": 0.5275590551181102,
                    "duration": 0.12461066666666909
                },
                {
                    "name": "D4",
                    "midi": 62,
                    "time": 81.37076533333315,
                    "velocity": 0.49606299212598426,
                    "duration": 0.12461066666666909
                },
                {
                    "name": "A#3",
                    "midi": 58,
                    "time": 81.49537599999982,
                    "velocity": 0.4645669291338583,
                    "duration": 0.7476640000000003
                },
                {
                    "name": "C#4",
                    "midi": 61,
                    "time": 81.49537599999982,
                    "velocity": 0.4645669291338583,
                    "duration": 0.7476640000000003
                },
                {
                    "name": "A3",
                    "midi": 57,
                    "time": 82.24303999999982,
                    "velocity": 0.4409448818897638,
                    "duration": 0.3271029999999939
                },
                {
                    "name": "C4",
                    "midi": 60,
                    "time": 82.24303999999982,
                    "velocity": 0.4409448818897638,
                    "duration": 0.3271029999999939
                },
                {
                    "name": "E4",
                    "midi": 64,
                    "time": 82.57014299999982,
                    "velocity": 0.6771653543307087,
                    "duration": 0.04672899999999913
                },
                {
                    "name": "F4",
                    "midi": 65,
                    "time": 82.61687199999982,
                    "velocity": 0.7874015748031497,
                    "duration": 0.18691599999999653
                },
                {
                    "name": "E4",
                    "midi": 64,
                    "time": 83.55145199999981,
                    "velocity": 0.7322834645669292,
                    "duration": 0.06230533333332744
                },
                {
                    "name": "F4",
                    "midi": 65,
                    "time": 83.61375733333314,
                    "velocity": 0.7322834645669292,
                    "duration": 0.06230533333332744
                },
                {
                    "name": "E4",
                    "midi": 64,
                    "time": 83.67606266666647,
                    "velocity": 0.7322834645669292,
                    "duration": 0.06230533333332744
                },
                {
                    "name": "C#4",
                    "midi": 61,
                    "time": 83.7383679999998,
                    "velocity": 0.7874015748031497,
                    "duration": 1.1214959999999934
                },
                {
                    "name": "C6",
                    "midi": 84,
                    "time": 85.60752799999979,
                    "velocity": 0.7874015748031497,
                    "duration": 0.12461066666666909
                },
                {
                    "name": "C5",
                    "midi": 72,
                    "time": 85.60752799999979,
                    "velocity": 0.7086614173228346,
                    "duration": 0.12461066666666909
                },
                {
                    "name": "C#6",
                    "midi": 85,
                    "time": 85.73213866666646,
                    "velocity": 0.7559055118110236,
                    "duration": 0.12461066666666909
                },
                {
                    "name": "C#5",
                    "midi": 73,
                    "time": 85.73213866666646,
                    "velocity": 0.6771653543307087,
                    "duration": 0.12461066666666909
                },
                {
                    "name": "A#4",
                    "midi": 70,
                    "time": 85.85674933333313,
                    "velocity": 0.6692913385826772,
                    "duration": 0.11214959999999508
                },
                {
                    "name": "A#5",
                    "midi": 82,
                    "time": 85.85674933333313,
                    "velocity": 0.7480314960629921,
                    "duration": 0.11214959999999508
                },
                {
                    "name": "A#4",
                    "midi": 70,
                    "time": 85.98135999999978,
                    "velocity": 0.7086614173228346,
                    "duration": 2.242992000000001
                },
                {
                    "name": "A#5",
                    "midi": 82,
                    "time": 85.98135999999978,
                    "velocity": 0.7874015748031497,
                    "duration": 2.242992000000001
                }
            ],
            "controlChanges": {
                "7": [
                    {
                        "number": 7,
                        "time": 0,
                        "value": 0.7874015748031497
                    }
                ],
                "10": [
                    {
                        "number": 10,
                        "time": 0,
                        "value": 0.5039370078740157
                    }
                ],
                "91": [
                    {
                        "number": 91,
                        "time": 0,
                        "value": 1
                    }
                ]
            },
            "id": 1,
            "name": "Piano right",
            "instrumentNumber": 0,
            "instrument": "acoustic grand piano",
            "instrumentFamily": "piano",
            "channelNumber": 0,
            "isPercussion": false
        },
        {
            "startTime": 2.943927,
            "duration": 88.22435199999984,
            "length": 189,
            "notes": [
                {
                    "name": "A#2",
                    "midi": 46,
                    "time": 2.943927,
                    "velocity": 0.5511811023622047,
                    "duration": 0.04672900000000002
                },
                {
                    "name": "F3",
                    "midi": 53,
                    "time": 2.990656,
                    "velocity": 0.6062992125984252,
                    "duration": 0.37383200000000016
                },
                {
                    "name": "E3",
                    "midi": 52,
                    "time": 3.6448620000000003,
                    "velocity": 0.5511811023622047,
                    "duration": 0.04672900000000002
                },
                {
                    "name": "F3",
                    "midi": 53,
                    "time": 3.6915910000000003,
                    "velocity": 0.5511811023622047,
                    "duration": 0.04672900000000002
                },
                {
                    "name": "E3",
                    "midi": 52,
                    "time": 3.7383200000000003,
                    "velocity": 0.6299212598425197,
                    "duration": 1.121496
                },
                {
                    "name": "A2",
                    "midi": 45,
                    "time": 5.2336480000000005,
                    "velocity": 0.5511811023622047,
                    "duration": 0.12461066666666643
                },
                {
                    "name": "A#2",
                    "midi": 46,
                    "time": 5.358258666666667,
                    "velocity": 0.5511811023622047,
                    "duration": 0.12461066666666643
                },
                {
                    "name": "C3",
                    "midi": 48,
                    "time": 5.482869333333333,
                    "velocity": 0.5511811023622047,
                    "duration": 0.12461066666666643
                },
                {
                    "name": "C#3",
                    "midi": 49,
                    "time": 5.60748,
                    "velocity": 0.5905511811023622,
                    "duration": 0.32710300000000014
                },
                {
                    "name": "A#2",
                    "midi": 46,
                    "time": 5.934583,
                    "velocity": 0.5511811023622047,
                    "duration": 0.04672900000000002
                },
                {
                    "name": "F3",
                    "midi": 53,
                    "time": 5.981312,
                    "velocity": 0.5905511811023622,
                    "duration": 0.37383200000000016
                },
                {
                    "name": "E3",
                    "midi": 52,
                    "time": 6.635518,
                    "velocity": 0.5511811023622047,
                    "duration": 0.031152666666666384
                },
                {
                    "name": "F3",
                    "midi": 53,
                    "time": 6.666670666666667,
                    "velocity": 0.5511811023622047,
                    "duration": 0.031152666666666384
                },
                {
                    "name": "E3",
                    "midi": 52,
                    "time": 6.697823333333333,
                    "velocity": 0.5511811023622047,
                    "duration": 0.031152666666666384
                },
                {
                    "name": "C#3",
                    "midi": 49,
                    "time": 6.728975999999999,
                    "velocity": 0.6220472440944882,
                    "duration": 1.1214960000000005
                },
                {
                    "name": "A2",
                    "midi": 45,
                    "time": 8.224304,
                    "velocity": 0.5669291338582677,
                    "duration": 0.18691600000000008
                },
                {
                    "name": "A#2",
                    "midi": 46,
                    "time": 8.41122,
                    "velocity": 0.5511811023622047,
                    "duration": 0.18691600000000008
                },
                {
                    "name": "C3",
                    "midi": 48,
                    "time": 8.598136,
                    "velocity": 0.5511811023622047,
                    "duration": 0.18691600000000008
                },
                {
                    "name": "C#3",
                    "midi": 49,
                    "time": 8.785052,
                    "velocity": 0.5511811023622047,
                    "duration": 0.18691600000000008
                },
                {
                    "name": "D#3",
                    "midi": 51,
                    "time": 8.971968,
                    "velocity": 0.5511811023622047,
                    "duration": 0.5607480000000002
                },
                {
                    "name": "F3",
                    "midi": 53,
                    "time": 9.532716,
                    "velocity": 0.5748031496062992,
                    "duration": 0.18691600000000008
                },
                {
                    "name": "F#3",
                    "midi": 54,
                    "time": 9.719632,
                    "velocity": 0.5984251968503937,
                    "duration": 0.18691600000000008
                },
                {
                    "name": "A3",
                    "midi": 57,
                    "time": 10.093464,
                    "velocity": 0.6062992125984252,
                    "duration": 0.18691600000000008
                },
                {
                    "name": "A#3",
                    "midi": 58,
                    "time": 10.467296000000001,
                    "velocity": 0.6377952755905512,
                    "duration": 0.7476640000000003
                },
                {
                    "name": "G#3",
                    "midi": 56,
                    "time": 11.214960000000001,
                    "velocity": 0.6062992125984252,
                    "duration": 0.37383200000000016
                },
                {
                    "name": "F#3",
                    "midi": 54,
                    "time": 11.588792000000002,
                    "velocity": 0.5826771653543307,
                    "duration": 0.37383200000000016
                },
                {
                    "name": "A3",
                    "midi": 57,
                    "time": 11.962624000000002,
                    "velocity": 0.6062992125984252,
                    "duration": 0.24922133333333285
                },
                {
                    "name": "F#3",
                    "midi": 54,
                    "time": 12.211845333333335,
                    "velocity": 0.5826771653543307,
                    "duration": 0.24922133333333285
                },
                {
                    "name": "F3",
                    "midi": 53,
                    "time": 12.461066666666667,
                    "velocity": 0.5511811023622047,
                    "duration": 0.23364499999999921
                },
                {
                    "name": "F3",
                    "midi": 53,
                    "time": 12.710288,
                    "velocity": 0.5984251968503937,
                    "duration": 0.6542060000000003
                },
                {
                    "name": "A3",
                    "midi": 57,
                    "time": 13.364494,
                    "velocity": 0.5511811023622047,
                    "duration": 0.09345800000000004
                },
                {
                    "name": "F3",
                    "midi": 53,
                    "time": 13.457952,
                    "velocity": 0.5905511811023622,
                    "duration": 0.37383200000000016
                },
                {
                    "name": "A2",
                    "midi": 45,
                    "time": 14.205616000000001,
                    "velocity": 0.5669291338582677,
                    "duration": 0.18691600000000008
                },
                {
                    "name": "A#2",
                    "midi": 46,
                    "time": 14.392532000000001,
                    "velocity": 0.5511811023622047,
                    "duration": 0.18691600000000008
                },
                {
                    "name": "C3",
                    "midi": 48,
                    "time": 14.579448000000001,
                    "velocity": 0.5511811023622047,
                    "duration": 0.18691600000000008
                },
                {
                    "name": "C#3",
                    "midi": 49,
                    "time": 14.766364000000001,
                    "velocity": 0.5511811023622047,
                    "duration": 0.18691600000000008
                },
                {
                    "name": "D#3",
                    "midi": 51,
                    "time": 14.953280000000001,
                    "velocity": 0.5511811023622047,
                    "duration": 0.5607480000000002
                },
                {
                    "name": "F3",
                    "midi": 53,
                    "time": 15.514028000000001,
                    "velocity": 0.5748031496062992,
                    "duration": 0.18691600000000008
                },
                {
                    "name": "F#3",
                    "midi": 54,
                    "time": 15.700944000000002,
                    "velocity": 0.5984251968503937,
                    "duration": 0.18691600000000008
                },
                {
                    "name": "A3",
                    "midi": 57,
                    "time": 16.074776,
                    "velocity": 0.6062992125984252,
                    "duration": 0.18691600000000008
                },
                {
                    "name": "A#3",
                    "midi": 58,
                    "time": 16.448608,
                    "velocity": 0.6377952755905512,
                    "duration": 0.7476640000000003
                },
                {
                    "name": "A3",
                    "midi": 57,
                    "time": 17.196272,
                    "velocity": 0.6062992125984252,
                    "duration": 0.37383200000000016
                },
                {
                    "name": "F#3",
                    "midi": 54,
                    "time": 17.570104,
                    "velocity": 0.5826771653543307,
                    "duration": 0.37383200000000016
                },
                {
                    "name": "G#3",
                    "midi": 56,
                    "time": 17.943936,
                    "velocity": 0.6062992125984252,
                    "duration": 0.24922133333333463
                },
                {
                    "name": "F#3",
                    "midi": 54,
                    "time": 18.193157333333335,
                    "velocity": 0.5826771653543307,
                    "duration": 0.24922133333333463
                },
                {
                    "name": "F3",
                    "midi": 53,
                    "time": 18.44237866666667,
                    "velocity": 0.5511811023622047,
                    "duration": 0.23364499999999921
                },
                {
                    "name": "F3",
                    "midi": 53,
                    "time": 18.6916,
                    "velocity": 0.5984251968503937,
                    "duration": 1.6822440000000007
                },
                {
                    "name": "A#2",
                    "midi": 46,
                    "time": 20.887863000000003,
                    "velocity": 0.5511811023622047,
                    "duration": 0.04672899999999913
                },
                {
                    "name": "F3",
                    "midi": 53,
                    "time": 20.934592000000002,
                    "velocity": 0.5905511811023622,
                    "duration": 0.37383200000000016
                },
                {
                    "name": "E3",
                    "midi": 52,
                    "time": 21.588798,
                    "velocity": 0.5511811023622047,
                    "duration": 0.031152666666667272
                },
                {
                    "name": "F3",
                    "midi": 53,
                    "time": 21.619950666666668,
                    "velocity": 0.5511811023622047,
                    "duration": 0.031152666666667272
                },
                {
                    "name": "E3",
                    "midi": 52,
                    "time": 21.651103333333335,
                    "velocity": 0.5511811023622047,
                    "duration": 0.031152666666667272
                },
                {
                    "name": "C#3",
                    "midi": 49,
                    "time": 21.682256000000002,
                    "velocity": 0.6220472440944882,
                    "duration": 0.6542059999999985
                },
                {
                    "name": "C3",
                    "midi": 48,
                    "time": 22.336462,
                    "velocity": 0.5511811023622047,
                    "duration": 0.031152666666667272
                },
                {
                    "name": "C#3",
                    "midi": 49,
                    "time": 22.367614666666668,
                    "velocity": 0.5354330708661418,
                    "duration": 0.031152666666667272
                },
                {
                    "name": "A2",
                    "midi": 45,
                    "time": 22.398767333333335,
                    "velocity": 0.5354330708661418,
                    "duration": 0.031152666666667272
                },
                {
                    "name": "C#3",
                    "midi": 49,
                    "time": 22.429920000000003,
                    "velocity": 0.6141732283464567,
                    "duration": 0.6074769999999994
                },
                {
                    "name": "C3",
                    "midi": 48,
                    "time": 23.037397000000002,
                    "velocity": 0.5196850393700787,
                    "duration": 0.023364499999999566
                },
                {
                    "name": "C#3",
                    "midi": 49,
                    "time": 23.0607615,
                    "velocity": 0.5196850393700787,
                    "duration": 0.023364499999999566
                },
                {
                    "name": "C3",
                    "midi": 48,
                    "time": 23.084126,
                    "velocity": 0.5196850393700787,
                    "duration": 0.031152666666667272
                },
                {
                    "name": "A#2",
                    "midi": 46,
                    "time": 23.11527866666667,
                    "velocity": 0.5196850393700787,
                    "duration": 0.031152666666667272
                },
                {
                    "name": "A2",
                    "midi": 45,
                    "time": 23.146431333333336,
                    "velocity": 0.5196850393700787,
                    "duration": 0.031152666666667272
                },
                {
                    "name": "C#3",
                    "midi": 49,
                    "time": 23.177584000000003,
                    "velocity": 0.5511811023622047,
                    "duration": 4.859816000000002
                },
                {
                    "name": "C#3",
                    "midi": 49,
                    "time": 30.654224000000006,
                    "velocity": 0.33070866141732286,
                    "duration": 3.3644880000000015
                },
                {
                    "name": "C#3",
                    "midi": 49,
                    "time": 36.63553600000001,
                    "velocity": 0.30708661417322836,
                    "duration": 3.3644880000000015
                },
                {
                    "name": "C#3",
                    "midi": 49,
                    "time": 42.61684800000001,
                    "velocity": 0.29133858267716534,
                    "duration": 3.3644880000000015
                },
                {
                    "name": "C#3",
                    "midi": 49,
                    "time": 48.598160000000014,
                    "velocity": 0.2992125984251969,
                    "duration": 1.4953280000000007
                },
                {
                    "name": "C4",
                    "midi": 60,
                    "time": 50.093488000000015,
                    "velocity": 0.4409448818897638,
                    "duration": 0.7476640000000003
                },
                {
                    "name": "A3",
                    "midi": 57,
                    "time": 50.093488000000015,
                    "velocity": 0.4409448818897638,
                    "duration": 0.7476640000000003
                },
                {
                    "name": "E4",
                    "midi": 64,
                    "time": 50.093488000000015,
                    "velocity": 0.5196850393700787,
                    "duration": 0.7476640000000003
                },
                {
                    "name": "E4",
                    "midi": 64,
                    "time": 50.841152000000015,
                    "velocity": 0.5826771653543307,
                    "duration": 0.7476640000000003
                },
                {
                    "name": "C4",
                    "midi": 60,
                    "time": 50.841152000000015,
                    "velocity": 0.4881889763779528,
                    "duration": 0.7476640000000003
                },
                {
                    "name": "E3",
                    "midi": 52,
                    "time": 50.841152000000015,
                    "velocity": 0.4881889763779528,
                    "duration": 0.7476640000000003
                },
                {
                    "name": "G#3",
                    "midi": 56,
                    "time": 50.841152000000015,
                    "velocity": 0.4881889763779528,
                    "duration": 0.7476640000000003
                },
                {
                    "name": "C#4",
                    "midi": 61,
                    "time": 51.588816000000016,
                    "velocity": 0.5275590551181102,
                    "duration": 0.37383200000000016
                },
                {
                    "name": "G#3",
                    "midi": 56,
                    "time": 51.588816000000016,
                    "velocity": 0.4409448818897638,
                    "duration": 0.37383200000000016
                },
                {
                    "name": "C#3",
                    "midi": 49,
                    "time": 51.588816000000016,
                    "velocity": 0.4409448818897638,
                    "duration": 0.37383200000000016
                },
                {
                    "name": "E3",
                    "midi": 52,
                    "time": 51.588816000000016,
                    "velocity": 0.4409448818897638,
                    "duration": 0.37383200000000016
                },
                {
                    "name": "C4",
                    "midi": 60,
                    "time": 53.084144000000016,
                    "velocity": 0.4881889763779528,
                    "duration": 0.7476640000000003
                },
                {
                    "name": "A3",
                    "midi": 57,
                    "time": 53.084144000000016,
                    "velocity": 0.4881889763779528,
                    "duration": 0.7476640000000003
                },
                {
                    "name": "E4",
                    "midi": 64,
                    "time": 53.084144000000016,
                    "velocity": 0.5748031496062992,
                    "duration": 0.7476640000000003
                },
                {
                    "name": "E4",
                    "midi": 64,
                    "time": 53.83180800000002,
                    "velocity": 0.6062992125984252,
                    "duration": 0.7476640000000003
                },
                {
                    "name": "G#3",
                    "midi": 56,
                    "time": 53.83180800000002,
                    "velocity": 0.5118110236220472,
                    "duration": 0.7476640000000003
                },
                {
                    "name": "E3",
                    "midi": 52,
                    "time": 53.83180800000002,
                    "velocity": 0.5118110236220472,
                    "duration": 0.7476640000000003
                },
                {
                    "name": "C4",
                    "midi": 60,
                    "time": 53.83180800000002,
                    "velocity": 0.5118110236220472,
                    "duration": 0.7476640000000003
                },
                {
                    "name": "C#4",
                    "midi": 61,
                    "time": 54.57947200000002,
                    "velocity": 0.5511811023622047,
                    "duration": 0.37383200000000016
                },
                {
                    "name": "G#3",
                    "midi": 56,
                    "time": 54.57947200000002,
                    "velocity": 0.4645669291338583,
                    "duration": 0.37383200000000016
                },
                {
                    "name": "C#3",
                    "midi": 49,
                    "time": 54.57947200000002,
                    "velocity": 0.4645669291338583,
                    "duration": 0.37383200000000016
                },
                {
                    "name": "E3",
                    "midi": 52,
                    "time": 54.57947200000002,
                    "velocity": 0.4645669291338583,
                    "duration": 0.37383200000000016
                },
                {
                    "name": "A#2",
                    "midi": 46,
                    "time": 55.887884000000014,
                    "velocity": 0.6535433070866141,
                    "duration": 0.18691599999999653
                },
                {
                    "name": "A#1",
                    "midi": 34,
                    "time": 55.887884000000014,
                    "velocity": 0.6535433070866141,
                    "duration": 0.18691599999999653
                },
                {
                    "name": "F3",
                    "midi": 53,
                    "time": 56.07480000000001,
                    "velocity": 0.7401574803149606,
                    "duration": 1.1214960000000005
                },
                {
                    "name": "F2",
                    "midi": 41,
                    "time": 56.07480000000001,
                    "velocity": 0.6220472440944882,
                    "duration": 1.1214960000000005
                },
                {
                    "name": "E2",
                    "midi": 40,
                    "time": 57.19629600000001,
                    "velocity": 0.5511811023622047,
                    "duration": 0.18691599999999653
                },
                {
                    "name": "E3",
                    "midi": 52,
                    "time": 57.19629600000001,
                    "velocity": 0.6535433070866141,
                    "duration": 0.18691599999999653
                },
                {
                    "name": "F2",
                    "midi": 41,
                    "time": 57.38321200000001,
                    "velocity": 0.5196850393700787,
                    "duration": 0.18691599999999653
                },
                {
                    "name": "F3",
                    "midi": 53,
                    "time": 57.38321200000001,
                    "velocity": 0.6141732283464567,
                    "duration": 0.18691599999999653
                },
                {
                    "name": "C#2",
                    "midi": 37,
                    "time": 57.570128000000004,
                    "velocity": 0.6141732283464567,
                    "duration": 1.4953280000000007
                },
                {
                    "name": "C#3",
                    "midi": 49,
                    "time": 57.570128000000004,
                    "velocity": 0.7244094488188977,
                    "duration": 1.4953280000000007
                },
                {
                    "name": "E3",
                    "midi": 52,
                    "time": 59.065456000000005,
                    "velocity": 0.7401574803149606,
                    "duration": 0.37383200000000016
                },
                {
                    "name": "E2",
                    "midi": 40,
                    "time": 59.065456000000005,
                    "velocity": 0.6220472440944882,
                    "duration": 0.37383200000000016
                },
                {
                    "name": "A#2",
                    "midi": 46,
                    "time": 60.373868,
                    "velocity": 0.6535433070866141,
                    "duration": 0.18691599999999653
                },
                {
                    "name": "A#1",
                    "midi": 34,
                    "time": 60.373868,
                    "velocity": 0.5511811023622047,
                    "duration": 0.18691599999999653
                },
                {
                    "name": "F3",
                    "midi": 53,
                    "time": 60.560784,
                    "velocity": 0.7401574803149606,
                    "duration": 1.1214960000000005
                },
                {
                    "name": "F2",
                    "midi": 41,
                    "time": 60.560784,
                    "velocity": 0.6220472440944882,
                    "duration": 1.1214960000000005
                },
                {
                    "name": "E3",
                    "midi": 52,
                    "time": 61.68228,
                    "velocity": 0.6535433070866141,
                    "duration": 0.12461066666666909
                },
                {
                    "name": "E2",
                    "midi": 40,
                    "time": 61.68228,
                    "velocity": 0.5511811023622047,
                    "duration": 0.12461066666666909
                },
                {
                    "name": "F3",
                    "midi": 53,
                    "time": 61.80689066666667,
                    "velocity": 0.6141732283464567,
                    "duration": 0.12461066666666909
                },
                {
                    "name": "F2",
                    "midi": 41,
                    "time": 61.80689066666667,
                    "velocity": 0.5196850393700787,
                    "duration": 0.12461066666666909
                },
                {
                    "name": "E2",
                    "midi": 40,
                    "time": 61.93150133333334,
                    "velocity": 0.5196850393700787,
                    "duration": 0.12461066666666909
                },
                {
                    "name": "E3",
                    "midi": 52,
                    "time": 61.93150133333334,
                    "velocity": 0.6141732283464567,
                    "duration": 0.12461066666666909
                },
                {
                    "name": "C#3",
                    "midi": 49,
                    "time": 62.056112000000006,
                    "velocity": 0.7244094488188977,
                    "duration": 1.4953280000000007
                },
                {
                    "name": "C#2",
                    "midi": 37,
                    "time": 62.056112000000006,
                    "velocity": 0.6141732283464567,
                    "duration": 1.4953280000000007
                },
                {
                    "name": "E3",
                    "midi": 52,
                    "time": 63.55144000000001,
                    "velocity": 0.7401574803149606,
                    "duration": 0.37383200000000016
                },
                {
                    "name": "E2",
                    "midi": 40,
                    "time": 63.55144000000001,
                    "velocity": 0.6220472440944882,
                    "duration": 0.37383200000000016
                },
                {
                    "name": "A#1",
                    "midi": 34,
                    "time": 64.672936,
                    "velocity": 0.5196850393700787,
                    "duration": 0.37383199999999306
                },
                {
                    "name": "A#2",
                    "midi": 46,
                    "time": 64.672936,
                    "velocity": 0.6141732283464567,
                    "duration": 0.37383199999999306
                },
                {
                    "name": "D#3",
                    "midi": 51,
                    "time": 65.046768,
                    "velocity": 0.6771653543307087,
                    "duration": 0.5607480000000038
                },
                {
                    "name": "D#2",
                    "midi": 39,
                    "time": 65.046768,
                    "velocity": 0.5748031496062992,
                    "duration": 0.5607480000000038
                },
                {
                    "name": "F2",
                    "midi": 41,
                    "time": 65.607516,
                    "velocity": 0.5354330708661418,
                    "duration": 0.18691599999999653
                },
                {
                    "name": "F3",
                    "midi": 53,
                    "time": 65.607516,
                    "velocity": 0.6299212598425197,
                    "duration": 0.18691599999999653
                },
                {
                    "name": "F#2",
                    "midi": 42,
                    "time": 65.794432,
                    "velocity": 0.5669291338582677,
                    "duration": 0.37383199999999306
                },
                {
                    "name": "F#3",
                    "midi": 54,
                    "time": 65.794432,
                    "velocity": 0.6692913385826772,
                    "duration": 0.37383199999999306
                },
                {
                    "name": "A3",
                    "midi": 57,
                    "time": 66.168264,
                    "velocity": 0.6929133858267716,
                    "duration": 0.37383199999999306
                },
                {
                    "name": "A2",
                    "midi": 45,
                    "time": 66.168264,
                    "velocity": 0.5826771653543307,
                    "duration": 0.37383199999999306
                },
                {
                    "name": "A#2",
                    "midi": 46,
                    "time": 66.54209599999999,
                    "velocity": 0.6141732283464567,
                    "duration": 0.7476640000000003
                },
                {
                    "name": "A#3",
                    "midi": 58,
                    "time": 66.54209599999999,
                    "velocity": 0.7244094488188977,
                    "duration": 0.7476640000000003
                },
                {
                    "name": "G#2",
                    "midi": 44,
                    "time": 67.28975999999999,
                    "velocity": 0.6062992125984252,
                    "duration": 0.37383199999999306
                },
                {
                    "name": "G#3",
                    "midi": 56,
                    "time": 67.28975999999999,
                    "velocity": 0.7165354330708661,
                    "duration": 0.37383199999999306
                },
                {
                    "name": "F#3",
                    "midi": 54,
                    "time": 67.66359199999998,
                    "velocity": 0.6692913385826772,
                    "duration": 0.37383199999999306
                },
                {
                    "name": "F#2",
                    "midi": 42,
                    "time": 67.66359199999998,
                    "velocity": 0.5669291338582677,
                    "duration": 0.37383199999999306
                },
                {
                    "name": "A2",
                    "midi": 45,
                    "time": 68.03742399999997,
                    "velocity": 0.6220472440944882,
                    "duration": 0.37383199999999306
                },
                {
                    "name": "A3",
                    "midi": 57,
                    "time": 68.03742399999997,
                    "velocity": 0.7401574803149606,
                    "duration": 0.37383199999999306
                },
                {
                    "name": "F#2",
                    "midi": 42,
                    "time": 68.41125599999997,
                    "velocity": 0.5905511811023622,
                    "duration": 0.18691599999999653
                },
                {
                    "name": "F#3",
                    "midi": 54,
                    "time": 68.41125599999997,
                    "velocity": 0.7007874015748031,
                    "duration": 0.18691599999999653
                },
                {
                    "name": "F2",
                    "midi": 41,
                    "time": 68.59817199999996,
                    "velocity": 0.5590551181102362,
                    "duration": 0.18691599999999653
                },
                {
                    "name": "F3",
                    "midi": 53,
                    "time": 68.59817199999996,
                    "velocity": 0.6614173228346457,
                    "duration": 0.18691599999999653
                },
                {
                    "name": "F3",
                    "midi": 53,
                    "time": 68.78508799999996,
                    "velocity": 0.6535433070866141,
                    "duration": 0.37383199999999306
                },
                {
                    "name": "F2",
                    "midi": 41,
                    "time": 68.78508799999996,
                    "velocity": 0.5511811023622047,
                    "duration": 0.37383199999999306
                },
                {
                    "name": "A#1",
                    "midi": 34,
                    "time": 70.65424799999995,
                    "velocity": 0.5748031496062992,
                    "duration": 0.37383199999999306
                },
                {
                    "name": "A#2",
                    "midi": 46,
                    "time": 70.65424799999995,
                    "velocity": 0.6771653543307087,
                    "duration": 0.37383199999999306
                },
                {
                    "name": "D#3",
                    "midi": 51,
                    "time": 71.02807999999995,
                    "velocity": 0.7401574803149606,
                    "duration": 0.5607480000000038
                },
                {
                    "name": "D#2",
                    "midi": 39,
                    "time": 71.02807999999995,
                    "velocity": 0.6220472440944882,
                    "duration": 0.5607480000000038
                },
                {
                    "name": "F2",
                    "midi": 41,
                    "time": 71.58882799999995,
                    "velocity": 0.5669291338582677,
                    "duration": 0.18691599999999653
                },
                {
                    "name": "F3",
                    "midi": 53,
                    "time": 71.58882799999995,
                    "velocity": 0.6692913385826772,
                    "duration": 0.18691599999999653
                },
                {
                    "name": "F#2",
                    "midi": 42,
                    "time": 71.77574399999995,
                    "velocity": 0.5826771653543307,
                    "duration": 0.37383199999999306
                },
                {
                    "name": "F#3",
                    "midi": 54,
                    "time": 71.77574399999995,
                    "velocity": 0.6929133858267716,
                    "duration": 0.37383199999999306
                },
                {
                    "name": "A2",
                    "midi": 45,
                    "time": 72.14957599999994,
                    "velocity": 0.6141732283464567,
                    "duration": 0.37383199999999306
                },
                {
                    "name": "A3",
                    "midi": 57,
                    "time": 72.14957599999994,
                    "velocity": 0.7244094488188977,
                    "duration": 0.37383199999999306
                },
                {
                    "name": "A#2",
                    "midi": 46,
                    "time": 72.52340799999993,
                    "velocity": 0.6220472440944882,
                    "duration": 0.7476640000000003
                },
                {
                    "name": "A#3",
                    "midi": 58,
                    "time": 72.52340799999993,
                    "velocity": 0.7401574803149606,
                    "duration": 0.7476640000000003
                },
                {
                    "name": "A3",
                    "midi": 57,
                    "time": 73.27107199999993,
                    "velocity": 0.7401574803149606,
                    "duration": 0.37383199999999306
                },
                {
                    "name": "A2",
                    "midi": 45,
                    "time": 73.27107199999993,
                    "velocity": 0.6220472440944882,
                    "duration": 0.37383199999999306
                },
                {
                    "name": "F#2",
                    "midi": 42,
                    "time": 73.64490399999993,
                    "velocity": 0.5984251968503937,
                    "duration": 0.37383199999999306
                },
                {
                    "name": "F#3",
                    "midi": 54,
                    "time": 73.64490399999993,
                    "velocity": 0.7086614173228346,
                    "duration": 0.37383199999999306
                },
                {
                    "name": "G#2",
                    "midi": 44,
                    "time": 74.01873599999992,
                    "velocity": 0.6771653543307087,
                    "duration": 0.37383199999999306
                },
                {
                    "name": "G#3",
                    "midi": 56,
                    "time": 74.01873599999992,
                    "velocity": 0.8031496062992126,
                    "duration": 0.37383199999999306
                },
                {
                    "name": "F#2",
                    "midi": 42,
                    "time": 74.39256799999991,
                    "velocity": 0.6614173228346457,
                    "duration": 0.18691599999999653
                },
                {
                    "name": "F#3",
                    "midi": 54,
                    "time": 74.39256799999991,
                    "velocity": 0.7795275590551181,
                    "duration": 0.18691599999999653
                },
                {
                    "name": "F2",
                    "midi": 41,
                    "time": 74.57948399999991,
                    "velocity": 0.6220472440944882,
                    "duration": 0.18691599999999653
                },
                {
                    "name": "F3",
                    "midi": 53,
                    "time": 74.57948399999991,
                    "velocity": 0.7322834645669292,
                    "duration": 0.18691599999999653
                },
                {
                    "name": "F3",
                    "midi": 53,
                    "time": 74.7663999999999,
                    "velocity": 0.6614173228346457,
                    "duration": 0.37383199999999306
                },
                {
                    "name": "A3",
                    "midi": 57,
                    "time": 74.7663999999999,
                    "velocity": 0.7952755905511811,
                    "duration": 0.37383199999999306
                },
                {
                    "name": "F2",
                    "midi": 41,
                    "time": 76.26172799999989,
                    "velocity": 0.3858267716535433,
                    "duration": 0.7476640000000003
                },
                {
                    "name": "F3",
                    "midi": 53,
                    "time": 76.26172799999989,
                    "velocity": 0.3858267716535433,
                    "duration": 0.7476640000000003
                },
                {
                    "name": "F3",
                    "midi": 53,
                    "time": 77.00939199999989,
                    "velocity": 0.44881889763779526,
                    "duration": 0.7476640000000003
                },
                {
                    "name": "A#2",
                    "midi": 46,
                    "time": 77.00939199999989,
                    "velocity": 0.44881889763779526,
                    "duration": 2.570094999999995
                },
                {
                    "name": "F#3",
                    "midi": 54,
                    "time": 77.75705599999989,
                    "velocity": 0.4645669291338583,
                    "duration": 0.7476640000000003
                },
                {
                    "name": "F3",
                    "midi": 53,
                    "time": 78.50471999999989,
                    "velocity": 0.4094488188976378,
                    "duration": 1.1214959999999934
                },
                {
                    "name": "E2",
                    "midi": 40,
                    "time": 79.57948699999989,
                    "velocity": 0.5590551181102362,
                    "duration": 0.04672899999999913
                },
                {
                    "name": "F2",
                    "midi": 41,
                    "time": 79.62621599999989,
                    "velocity": 0.6299212598425197,
                    "duration": 0.18691599999999653
                },
                {
                    "name": "A#2",
                    "midi": 46,
                    "time": 80.00004799999988,
                    "velocity": 0.44881889763779526,
                    "duration": 2.570094999999995
                },
                {
                    "name": "F3",
                    "midi": 53,
                    "time": 80.00004799999988,
                    "velocity": 0.44881889763779526,
                    "duration": 0.7476640000000003
                },
                {
                    "name": "F#3",
                    "midi": 54,
                    "time": 80.74771199999988,
                    "velocity": 0.4645669291338583,
                    "duration": 0.7476640000000003
                },
                {
                    "name": "F3",
                    "midi": 53,
                    "time": 81.49537599999988,
                    "velocity": 0.4094488188976378,
                    "duration": 1.1214959999999934
                },
                {
                    "name": "E2",
                    "midi": 40,
                    "time": 82.57014299999987,
                    "velocity": 0.5590551181102362,
                    "duration": 0.04672899999999913
                },
                {
                    "name": "F2",
                    "midi": 41,
                    "time": 82.61687199999987,
                    "velocity": 0.6299212598425197,
                    "duration": 0.18691599999999653
                },
                {
                    "name": "E3",
                    "midi": 52,
                    "time": 83.55145199999987,
                    "velocity": 0.6377952755905512,
                    "duration": 0.06230533333332744
                },
                {
                    "name": "F3",
                    "midi": 53,
                    "time": 83.6137573333332,
                    "velocity": 0.6377952755905512,
                    "duration": 0.06230533333332744
                },
                {
                    "name": "E3",
                    "midi": 52,
                    "time": 83.67606266666652,
                    "velocity": 0.6377952755905512,
                    "duration": 0.06230533333332744
                },
                {
                    "name": "C#3",
                    "midi": 49,
                    "time": 83.73836799999985,
                    "velocity": 0.6771653543307087,
                    "duration": 1.1214959999999934
                },
                {
                    "name": "C2",
                    "midi": 36,
                    "time": 85.60752799999985,
                    "velocity": 0.5669291338582677,
                    "duration": 0.12461066666666909
                },
                {
                    "name": "C3",
                    "midi": 48,
                    "time": 85.60752799999985,
                    "velocity": 0.6299212598425197,
                    "duration": 0.12461066666666909
                },
                {
                    "name": "C#2",
                    "midi": 37,
                    "time": 85.73213866666651,
                    "velocity": 0.5354330708661418,
                    "duration": 0.12461066666666909
                },
                {
                    "name": "C#3",
                    "midi": 49,
                    "time": 85.73213866666651,
                    "velocity": 0.5984251968503937,
                    "duration": 0.12461066666666909
                },
                {
                    "name": "A#2",
                    "midi": 46,
                    "time": 85.85674933333318,
                    "velocity": 0.6062992125984252,
                    "duration": 0.11214959999999508
                },
                {
                    "name": "A#1",
                    "midi": 34,
                    "time": 85.85674933333318,
                    "velocity": 0.5433070866141733,
                    "duration": 0.11214959999999508
                },
                {
                    "name": "A#2",
                    "midi": 46,
                    "time": 85.98135999999984,
                    "velocity": 0.6377952755905512,
                    "duration": 2.242992000000001
                },
                {
                    "name": "A#1",
                    "midi": 34,
                    "time": 85.98135999999984,
                    "velocity": 0.5669291338582677,
                    "duration": 2.242992000000001
                }
            ],
            "controlChanges": {
                "7": [
                    {
                        "number": 7,
                        "time": 0,
                        "value": 0.7874015748031497
                    }
                ],
                "10": [
                    {
                        "number": 10,
                        "time": 0,
                        "value": 0.5039370078740157
                    }
                ]
            },
            "id": 2,
            "name": "Piano left",
            "instrumentNumber": 0,
            "instrument": "acoustic grand piano",
            "instrumentFamily": "piano",
            "channelNumber": 0,
            "isPercussion": false
        },
        {
            "startTime": 0,
            "duration": 0,
            "length": 0,
            "notes": [],
            "controlChanges": {
                "64": [
                    {
                        "number": 64,
                        "time": 0,
                        "value": 0
                    },
                    {
                        "number": 64,
                        "time": 3.6246127666666665,
                        "value": 1
                    },
                    {
                        "number": 64,
                        "time": 3.756232783333333,
                        "value": 0
                    },
                    {
                        "number": 64,
                        "time": 3.9563886666666663,
                        "value": 1
                    },
                    {
                        "number": 64,
                        "time": 4.851249016666666,
                        "value": 0
                    },
                    {
                        "number": 64,
                        "time": 5.246887883333333,
                        "value": 1
                    },
                    {
                        "number": 64,
                        "time": 5.3683832833333325,
                        "value": 0
                    },
                    {
                        "number": 64,
                        "time": 5.391747783333332,
                        "value": 1
                    },
                    {
                        "number": 64,
                        "time": 5.487542233333332,
                        "value": 0
                    },
                    {
                        "number": 64,
                        "time": 5.536607683333331,
                        "value": 1
                    },
                    {
                        "number": 64,
                        "time": 5.614489349999998,
                        "value": 0
                    },
                    {
                        "number": 64,
                        "time": 5.662775983333331,
                        "value": 1
                    },
                    {
                        "number": 64,
                        "time": 5.916670216666664,
                        "value": 0
                    },
                    {
                        "number": 64,
                        "time": 6.637854449999997,
                        "value": 1
                    },
                    {
                        "number": 64,
                        "time": 6.733648899999997,
                        "value": 0
                    },
                    {
                        "number": 64,
                        "time": 6.8045212166666635,
                        "value": 1
                    },
                    {
                        "number": 64,
                        "time": 7.85436608333333,
                        "value": 0
                    },
                    {
                        "number": 64,
                        "time": 8.234428616666664,
                        "value": 1
                    },
                    {
                        "number": 64,
                        "time": 8.415892899999998,
                        "value": 0
                    },
                    {
                        "number": 64,
                        "time": 8.47819823333333,
                        "value": 1
                    },
                    {
                        "number": 64,
                        "time": 8.608260616666664,
                        "value": 0
                    },
                    {
                        "number": 64,
                        "time": 8.64642263333333,
                        "value": 1
                    },
                    {
                        "number": 64,
                        "time": 8.797513066666664,
                        "value": 0
                    },
                    {
                        "number": 64,
                        "time": 8.82399283333333,
                        "value": 1
                    },
                    {
                        "number": 64,
                        "time": 8.960285749999997,
                        "value": 0
                    },
                    {
                        "number": 64,
                        "time": 9.078665883333331,
                        "value": 1
                    },
                    {
                        "number": 64,
                        "time": 9.719631999999997,
                        "value": 0
                    },
                    {
                        "number": 64,
                        "time": 10.547514116666663,
                        "value": 1
                    },
                    {
                        "number": 64,
                        "time": 11.21885408333333,
                        "value": 0
                    },
                    {
                        "number": 64,
                        "time": 11.33100368333333,
                        "value": 1
                    },
                    {
                        "number": 64,
                        "time": 11.597358983333331,
                        "value": 0
                    },
                    {
                        "number": 64,
                        "time": 11.659664316666664,
                        "value": 1
                    },
                    {
                        "number": 64,
                        "time": 11.965739266666663,
                        "value": 0
                    },
                    {
                        "number": 64,
                        "time": 12.028823416666663,
                        "value": 1
                    },
                    {
                        "number": 64,
                        "time": 12.22586403333333,
                        "value": 0
                    },
                    {
                        "number": 64,
                        "time": 12.264804866666664,
                        "value": 1
                    },
                    {
                        "number": 64,
                        "time": 12.472748916666664,
                        "value": 0
                    },
                    {
                        "number": 64,
                        "time": 12.523371999999997,
                        "value": 1
                    },
                    {
                        "number": 64,
                        "time": 12.71885498333333,
                        "value": 0
                    },
                    {
                        "number": 64,
                        "time": 12.825552866666664,
                        "value": 1
                    },
                    {
                        "number": 64,
                        "time": 13.72586493333333,
                        "value": 0
                    },
                    {
                        "number": 64,
                        "time": 14.26091198333333,
                        "value": 1
                    },
                    {
                        "number": 64,
                        "time": 14.397983716666662,
                        "value": 0
                    },
                    {
                        "number": 64,
                        "time": 14.458731416666662,
                        "value": 1
                    },
                    {
                        "number": 64,
                        "time": 14.587236166666662,
                        "value": 0
                    },
                    {
                        "number": 64,
                        "time": 14.651099133333329,
                        "value": 1
                    },
                    {
                        "number": 64,
                        "time": 14.771036899999995,
                        "value": 0
                    },
                    {
                        "number": 64,
                        "time": 14.843466849999995,
                        "value": 1
                    },
                    {
                        "number": 64,
                        "time": 14.953279999999996,
                        "value": 0
                    },
                    {
                        "number": 64,
                        "time": 15.095803449999996,
                        "value": 1
                    },
                    {
                        "number": 64,
                        "time": 15.703280449999996,
                        "value": 0
                    },
                    {
                        "number": 64,
                        "time": 16.55530588333333,
                        "value": 1
                    },
                    {
                        "number": 64,
                        "time": 17.20250253333333,
                        "value": 0
                    },
                    {
                        "number": 64,
                        "time": 17.31231568333333,
                        "value": 1
                    },
                    {
                        "number": 64,
                        "time": 17.577113349999998,
                        "value": 0
                    },
                    {
                        "number": 64,
                        "time": 17.694714666666663,
                        "value": 1
                    },
                    {
                        "number": 64,
                        "time": 17.943935999999997,
                        "value": 0
                    },
                    {
                        "number": 64,
                        "time": 17.98832855,
                        "value": 1
                    },
                    {
                        "number": 64,
                        "time": 18.204060766666665,
                        "value": 0
                    },
                    {
                        "number": 64,
                        "time": 18.229761716666665,
                        "value": 1
                    },
                    {
                        "number": 64,
                        "time": 18.454060916666666,
                        "value": 0
                    },
                    {
                        "number": 64,
                        "time": 18.510135716666667,
                        "value": 1
                    },
                    {
                        "number": 64,
                        "time": 18.7009458,
                        "value": 0
                    },
                    {
                        "number": 64,
                        "time": 18.76870285,
                        "value": 1
                    },
                    {
                        "number": 64,
                        "time": 20.382410983333333,
                        "value": 0
                    },
                    {
                        "number": 64,
                        "time": 21.598922616666666,
                        "value": 1
                    },
                    {
                        "number": 64,
                        "time": 21.690822983333334,
                        "value": 0
                    },
                    {
                        "number": 64,
                        "time": 21.76403175,
                        "value": 1
                    },
                    {
                        "number": 64,
                        "time": 22.342692533333334,
                        "value": 0
                    },
                    {
                        "number": 64,
                        "time": 22.37462401666667,
                        "value": 1
                    },
                    {
                        "number": 64,
                        "time": 22.43537171666667,
                        "value": 0
                    },
                    {
                        "number": 64,
                        "time": 22.494561783333335,
                        "value": 1
                    },
                    {
                        "number": 64,
                        "time": 23.0467428,
                        "value": 0
                    },
                    {
                        "number": 64,
                        "time": 23.066992033333335,
                        "value": 1
                    },
                    {
                        "number": 64,
                        "time": 23.183814533333337,
                        "value": 0
                    },
                    {
                        "number": 64,
                        "time": 23.34892366666667,
                        "value": 1
                    },
                    {
                        "number": 64,
                        "time": 25.942383166666673,
                        "value": 0
                    },
                    {
                        "number": 64,
                        "time": 26.088800700000007,
                        "value": 1
                    },
                    {
                        "number": 64,
                        "time": 26.554533066666675,
                        "value": 0
                    },
                    {
                        "number": 64,
                        "time": 26.581791650000007,
                        "value": 1
                    },
                    {
                        "number": 64,
                        "time": 26.846589316666673,
                        "value": 0
                    },
                    {
                        "number": 64,
                        "time": 26.879299616666675,
                        "value": 1
                    },
                    {
                        "number": 64,
                        "time": 27.30063943333334,
                        "value": 0
                    },
                    {
                        "number": 64,
                        "time": 27.332570916666675,
                        "value": 1
                    },
                    {
                        "number": 64,
                        "time": 27.557648933333343,
                        "value": 0
                    },
                    {
                        "number": 64,
                        "time": 27.60048385000001,
                        "value": 1
                    },
                    {
                        "number": 64,
                        "time": 28.050639883333343,
                        "value": 0
                    },
                    {
                        "number": 64,
                        "time": 28.07711965000001,
                        "value": 1
                    },
                    {
                        "number": 64,
                        "time": 28.316216366666676,
                        "value": 0
                    },
                    {
                        "number": 64,
                        "time": 28.351263116666676,
                        "value": 1
                    },
                    {
                        "number": 64,
                        "time": 28.80375560000001,
                        "value": 0
                    },
                    {
                        "number": 64,
                        "time": 28.82945655000001,
                        "value": 1
                    },
                    {
                        "number": 64,
                        "time": 29.048304033333345,
                        "value": 0
                    },
                    {
                        "number": 64,
                        "time": 29.10048475000001,
                        "value": 1
                    },
                    {
                        "number": 64,
                        "time": 29.545189066666676,
                        "value": 0
                    },
                    {
                        "number": 64,
                        "time": 29.57011120000001,
                        "value": 1
                    },
                    {
                        "number": 64,
                        "time": 29.81777490000001,
                        "value": 0
                    },
                    {
                        "number": 64,
                        "time": 29.88319550000001,
                        "value": 1
                    },
                    {
                        "number": 64,
                        "time": 30.290516616666675,
                        "value": 0
                    },
                    {
                        "number": 64,
                        "time": 30.314659933333342,
                        "value": 1
                    },
                    {
                        "number": 64,
                        "time": 30.617619616666676,
                        "value": 0
                    },
                    {
                        "number": 64,
                        "time": 30.662790983333345,
                        "value": 1
                    },
                    {
                        "number": 64,
                        "time": 31.03973825000001,
                        "value": 0
                    },
                    {
                        "number": 64,
                        "time": 31.07478500000001,
                        "value": 1
                    },
                    {
                        "number": 64,
                        "time": 31.311545266666677,
                        "value": 0
                    },
                    {
                        "number": 64,
                        "time": 31.376965866666676,
                        "value": 1
                    },
                    {
                        "number": 64,
                        "time": 31.78428698333334,
                        "value": 0
                    },
                    {
                        "number": 64,
                        "time": 31.82244900000001,
                        "value": 1
                    },
                    {
                        "number": 64,
                        "time": 32.02649896666668,
                        "value": 0
                    },
                    {
                        "number": 64,
                        "time": 32.10126536666668,
                        "value": 1
                    },
                    {
                        "number": 64,
                        "time": 32.535066250000014,
                        "value": 0
                    },
                    {
                        "number": 64,
                        "time": 32.56855536666668,
                        "value": 1
                    },
                    {
                        "number": 64,
                        "time": 32.81388261666668,
                        "value": 0
                    },
                    {
                        "number": 64,
                        "time": 32.856717533333345,
                        "value": 1
                    },
                    {
                        "number": 64,
                        "time": 33.28195143333335,
                        "value": 0
                    },
                    {
                        "number": 64,
                        "time": 33.32089226666668,
                        "value": 1
                    },
                    {
                        "number": 64,
                        "time": 33.53896093333335,
                        "value": 0
                    },
                    {
                        "number": 64,
                        "time": 33.59347810000001,
                        "value": 1
                    },
                    {
                        "number": 64,
                        "time": 34.02961543333335,
                        "value": 0
                    },
                    {
                        "number": 64,
                        "time": 34.07245035000001,
                        "value": 1
                    },
                    {
                        "number": 64,
                        "time": 34.30531653333335,
                        "value": 0
                    },
                    {
                        "number": 64,
                        "time": 34.34114210000001,
                        "value": 1
                    },
                    {
                        "number": 64,
                        "time": 34.778058250000015,
                        "value": 0
                    },
                    {
                        "number": 64,
                        "time": 34.81777790000002,
                        "value": 1
                    },
                    {
                        "number": 64,
                        "time": 34.98755993333335,
                        "value": 0
                    },
                    {
                        "number": 64,
                        "time": 35.061547516666685,
                        "value": 1
                    },
                    {
                        "number": 64,
                        "time": 35.51871290000002,
                        "value": 0
                    },
                    {
                        "number": 64,
                        "time": 35.551423200000016,
                        "value": 1
                    },
                    {
                        "number": 64,
                        "time": 35.792077550000016,
                        "value": 0
                    },
                    {
                        "number": 64,
                        "time": 35.84737353333335,
                        "value": 1
                    },
                    {
                        "number": 64,
                        "time": 36.273386250000016,
                        "value": 0
                    },
                    {
                        "number": 64,
                        "time": 36.30142365000002,
                        "value": 1
                    },
                    {
                        "number": 64,
                        "time": 36.53506865000002,
                        "value": 0
                    },
                    {
                        "number": 64,
                        "time": 36.585691733333356,
                        "value": 1
                    },
                    {
                        "number": 64,
                        "time": 37.026501966666686,
                        "value": 0
                    },
                    {
                        "number": 64,
                        "time": 37.07011570000002,
                        "value": 1
                    },
                    {
                        "number": 64,
                        "time": 37.30142425000002,
                        "value": 0
                    },
                    {
                        "number": 64,
                        "time": 37.35827786666668,
                        "value": 1
                    },
                    {
                        "number": 64,
                        "time": 37.76949306666668,
                        "value": 0
                    },
                    {
                        "number": 64,
                        "time": 37.79986691666668,
                        "value": 1
                    },
                    {
                        "number": 64,
                        "time": 38.01092623333334,
                        "value": 0
                    },
                    {
                        "number": 64,
                        "time": 38.07089511666668,
                        "value": 1
                    },
                    {
                        "number": 64,
                        "time": 38.51326298333334,
                        "value": 0
                    },
                    {
                        "number": 64,
                        "time": 38.55921316666667,
                        "value": 1
                    },
                    {
                        "number": 64,
                        "time": 38.75703260000001,
                        "value": 0
                    },
                    {
                        "number": 64,
                        "time": 38.81466503333334,
                        "value": 1
                    },
                    {
                        "number": 64,
                        "time": 39.26326343333334,
                        "value": 0
                    },
                    {
                        "number": 64,
                        "time": 39.29908900000001,
                        "value": 1
                    },
                    {
                        "number": 64,
                        "time": 39.528839916666676,
                        "value": 0
                    },
                    {
                        "number": 64,
                        "time": 39.563886666666676,
                        "value": 1
                    },
                    {
                        "number": 64,
                        "time": 40.01482151666668,
                        "value": 0
                    },
                    {
                        "number": 64,
                        "time": 40.059992883333344,
                        "value": 1
                    },
                    {
                        "number": 64,
                        "time": 40.25236060000001,
                        "value": 0
                    },
                    {
                        "number": 64,
                        "time": 40.299868416666676,
                        "value": 1
                    },
                    {
                        "number": 64,
                        "time": 40.751582083333346,
                        "value": 0
                    },
                    {
                        "number": 64,
                        "time": 40.79285936666668,
                        "value": 1
                    },
                    {
                        "number": 64,
                        "time": 41.01170685000002,
                        "value": 0
                    },
                    {
                        "number": 64,
                        "time": 41.061551116666685,
                        "value": 1
                    },
                    {
                        "number": 64,
                        "time": 41.50469780000002,
                        "value": 0
                    },
                    {
                        "number": 64,
                        "time": 41.539744550000016,
                        "value": 1
                    },
                    {
                        "number": 64,
                        "time": 41.78740825000001,
                        "value": 0
                    },
                    {
                        "number": 64,
                        "time": 41.84581950000001,
                        "value": 1
                    },
                    {
                        "number": 64,
                        "time": 42.26014996666668,
                        "value": 0
                    },
                    {
                        "number": 64,
                        "time": 42.28818736666668,
                        "value": 1
                    },
                    {
                        "number": 64,
                        "time": 42.580243616666685,
                        "value": 0
                    },
                    {
                        "number": 64,
                        "time": 42.62541498333335,
                        "value": 1
                    },
                    {
                        "number": 64,
                        "time": 42.99613171666668,
                        "value": 0
                    },
                    {
                        "number": 64,
                        "time": 43.03351491666668,
                        "value": 1
                    },
                    {
                        "number": 64,
                        "time": 43.285072700000015,
                        "value": 0
                    },
                    {
                        "number": 64,
                        "time": 43.33958986666668,
                        "value": 1
                    },
                    {
                        "number": 64,
                        "time": 43.74535335000001,
                        "value": 0
                    },
                    {
                        "number": 64,
                        "time": 43.802206966666674,
                        "value": 1
                    },
                    {
                        "number": 64,
                        "time": 44.004699300000006,
                        "value": 0
                    },
                    {
                        "number": 64,
                        "time": 44.05220711666667,
                        "value": 1
                    },
                    {
                        "number": 64,
                        "time": 44.49301735,
                        "value": 0
                    },
                    {
                        "number": 64,
                        "time": 44.5420828,
                        "value": 1
                    },
                    {
                        "number": 64,
                        "time": 44.75937265,
                        "value": 0
                    },
                    {
                        "number": 64,
                        "time": 44.79753466666667,
                        "value": 1
                    },
                    {
                        "number": 64,
                        "time": 45.24068135,
                        "value": 0
                    },
                    {
                        "number": 64,
                        "time": 45.28585271666667,
                        "value": 1
                    },
                    {
                        "number": 64,
                        "time": 45.4766628,
                        "value": 0
                    },
                    {
                        "number": 64,
                        "time": 45.521834166666665,
                        "value": 1
                    },
                    {
                        "number": 64,
                        "time": 45.9906818,
                        "value": 0
                    },
                    {
                        "number": 64,
                        "time": 46.04130488333333,
                        "value": 1
                    },
                    {
                        "number": 64,
                        "time": 46.232114966666664,
                        "value": 0
                    },
                    {
                        "number": 64,
                        "time": 46.27962278333333,
                        "value": 1
                    },
                    {
                        "number": 64,
                        "time": 46.741461066666666,
                        "value": 0
                    },
                    {
                        "number": 64,
                        "time": 46.775729,
                        "value": 1
                    },
                    {
                        "number": 64,
                        "time": 46.96653908333333,
                        "value": 0
                    },
                    {
                        "number": 64,
                        "time": 47.017162166666665,
                        "value": 1
                    },
                    {
                        "number": 64,
                        "time": 47.48756743333333,
                        "value": 0
                    },
                    {
                        "number": 64,
                        "time": 47.512489566666666,
                        "value": 1
                    },
                    {
                        "number": 64,
                        "time": 47.774171966666664,
                        "value": 0
                    },
                    {
                        "number": 64,
                        "time": 47.8271315,
                        "value": 1
                    },
                    {
                        "number": 64,
                        "time": 48.23289498333333,
                        "value": 0
                    },
                    {
                        "number": 64,
                        "time": 48.275729899999995,
                        "value": 1
                    },
                    {
                        "number": 64,
                        "time": 48.510932533333325,
                        "value": 0
                    },
                    {
                        "number": 64,
                        "time": 48.606726983333324,
                        "value": 1
                    },
                    {
                        "number": 64,
                        "time": 48.98367424999999,
                        "value": 0
                    },
                    {
                        "number": 64,
                        "time": 49.02027863333333,
                        "value": 1
                    },
                    {
                        "number": 64,
                        "time": 49.22978031666666,
                        "value": 0
                    },
                    {
                        "number": 64,
                        "time": 49.32090186666666,
                        "value": 1
                    },
                    {
                        "number": 64,
                        "time": 49.73445351666666,
                        "value": 0
                    },
                    {
                        "number": 64,
                        "time": 49.76794263333333,
                        "value": 1
                    },
                    {
                        "number": 64,
                        "time": 50.09426681666666,
                        "value": 0
                    },
                    {
                        "number": 64,
                        "time": 50.19862824999999,
                        "value": 1
                    },
                    {
                        "number": 64,
                        "time": 50.85127661666666,
                        "value": 0
                    },
                    {
                        "number": 64,
                        "time": 50.93460999999999,
                        "value": 1
                    },
                    {
                        "number": 64,
                        "time": 51.600498249999994,
                        "value": 0
                    },
                    {
                        "number": 64,
                        "time": 51.69707151666666,
                        "value": 1
                    },
                    {
                        "number": 64,
                        "time": 53.0888169,
                        "value": 0
                    },
                    {
                        "number": 64,
                        "time": 53.16669856666667,
                        "value": 1
                    },
                    {
                        "number": 64,
                        "time": 53.83803853333333,
                        "value": 0
                    },
                    {
                        "number": 64,
                        "time": 53.93694825,
                        "value": 1
                    },
                    {
                        "number": 64,
                        "time": 54.593490700000004,
                        "value": 0
                    },
                    {
                        "number": 64,
                        "time": 54.68461225,
                        "value": 1
                    },
                    {
                        "number": 64,
                        "time": 55.89333571666667,
                        "value": 0
                    },
                    {
                        "number": 64,
                        "time": 56.01483111666667,
                        "value": 1
                    },
                    {
                        "number": 64,
                        "time": 57.20330535,
                        "value": 0
                    },
                    {
                        "number": 64,
                        "time": 57.257043700000004,
                        "value": 1
                    },
                    {
                        "number": 64,
                        "time": 57.57791616666667,
                        "value": 0
                    },
                    {
                        "number": 64,
                        "time": 57.679941150000005,
                        "value": 1
                    },
                    {
                        "number": 64,
                        "time": 58.32869543333334,
                        "value": 0
                    },
                    {
                        "number": 64,
                        "time": 58.41670171666667,
                        "value": 1
                    },
                    {
                        "number": 64,
                        "time": 59.07246535000001,
                        "value": 0
                    },
                    {
                        "number": 64,
                        "time": 59.12776133333334,
                        "value": 1
                    },
                    {
                        "number": 64,
                        "time": 60.38944433333334,
                        "value": 0
                    },
                    {
                        "number": 64,
                        "time": 60.445519133333335,
                        "value": 1
                    },
                    {
                        "number": 64,
                        "time": 61.69006816666667,
                        "value": 0
                    },
                    {
                        "number": 64,
                        "time": 61.75782521666667,
                        "value": 1
                    },
                    {
                        "number": 64,
                        "time": 62.06701543333333,
                        "value": 0
                    },
                    {
                        "number": 64,
                        "time": 62.1776074,
                        "value": 1
                    },
                    {
                        "number": 64,
                        "time": 62.81467943333333,
                        "value": 0
                    },
                    {
                        "number": 64,
                        "time": 62.891782283333335,
                        "value": 1
                    },
                    {
                        "number": 64,
                        "time": 63.56000698333334,
                        "value": 0
                    },
                    {
                        "number": 64,
                        "time": 63.644898000000005,
                        "value": 1
                    },
                    {
                        "number": 64,
                        "time": 64.67994535000001,
                        "value": 0
                    },
                    {
                        "number": 64,
                        "time": 64.75003885000001,
                        "value": 1
                    },
                    {
                        "number": 64,
                        "time": 65.80533543333334,
                        "value": 0
                    },
                    {
                        "number": 64,
                        "time": 65.86063141666668,
                        "value": 1
                    },
                    {
                        "number": 64,
                        "time": 66.17683098333335,
                        "value": 0
                    },
                    {
                        "number": 64,
                        "time": 66.23991513333334,
                        "value": 1
                    },
                    {
                        "number": 64,
                        "time": 66.55066298333334,
                        "value": 0
                    },
                    {
                        "number": 64,
                        "time": 66.63010228333334,
                        "value": 1
                    },
                    {
                        "number": 64,
                        "time": 67.29521171666667,
                        "value": 0
                    },
                    {
                        "number": 64,
                        "time": 67.35050770000001,
                        "value": 1
                    },
                    {
                        "number": 64,
                        "time": 67.67449543333335,
                        "value": 0
                    },
                    {
                        "number": 64,
                        "time": 67.72433970000002,
                        "value": 1
                    },
                    {
                        "number": 64,
                        "time": 68.04599098333335,
                        "value": 0
                    },
                    {
                        "number": 64,
                        "time": 68.10907513333335,
                        "value": 1
                    },
                    {
                        "number": 64,
                        "time": 68.41904416666668,
                        "value": 0
                    },
                    {
                        "number": 64,
                        "time": 68.47745541666669,
                        "value": 1
                    },
                    {
                        "number": 64,
                        "time": 68.79209735000002,
                        "value": 0
                    },
                    {
                        "number": 64,
                        "time": 68.89490115000002,
                        "value": 1
                    },
                    {
                        "number": 64,
                        "time": 69.53976135000002,
                        "value": 0
                    },
                    {
                        "number": 64,
                        "time": 69.60440313333335,
                        "value": 1
                    },
                    {
                        "number": 64,
                        "time": 70.28820416666669,
                        "value": 0
                    },
                    {
                        "number": 64,
                        "time": 70.34116370000002,
                        "value": 1
                    },
                    {
                        "number": 64,
                        "time": 70.66125735000003,
                        "value": 0
                    },
                    {
                        "number": 64,
                        "time": 70.70954398333336,
                        "value": 1
                    },
                    {
                        "number": 64,
                        "time": 71.78976270000003,
                        "value": 0
                    },
                    {
                        "number": 64,
                        "time": 71.85284685000002,
                        "value": 1
                    },
                    {
                        "number": 64,
                        "time": 72.15736416666668,
                        "value": 0
                    },
                    {
                        "number": 64,
                        "time": 72.22122713333334,
                        "value": 1
                    },
                    {
                        "number": 64,
                        "time": 72.53976315000001,
                        "value": 0
                    },
                    {
                        "number": 64,
                        "time": 72.61686600000002,
                        "value": 1
                    },
                    {
                        "number": 64,
                        "time": 73.28197543333334,
                        "value": 0
                    },
                    {
                        "number": 64,
                        "time": 73.35362656666668,
                        "value": 1
                    },
                    {
                        "number": 64,
                        "time": 73.6589227,
                        "value": 0
                    },
                    {
                        "number": 64,
                        "time": 73.72745856666667,
                        "value": 1
                    },
                    {
                        "number": 64,
                        "time": 74.02574535000001,
                        "value": 0
                    },
                    {
                        "number": 64,
                        "time": 74.10674228333335,
                        "value": 1
                    },
                    {
                        "number": 64,
                        "time": 74.40580788333335,
                        "value": 0
                    },
                    {
                        "number": 64,
                        "time": 74.45331570000002,
                        "value": 1
                    },
                    {
                        "number": 64,
                        "time": 74.77652461666669,
                        "value": 0
                    },
                    {
                        "number": 64,
                        "time": 74.84895456666669,
                        "value": 1
                    },
                    {
                        "number": 64,
                        "time": 75.1456837166667,
                        "value": 0
                    },
                    {
                        "number": 64,
                        "time": 76.3279274166667,
                        "value": 1
                    },
                    {
                        "number": 64,
                        "time": 77.01562253333336,
                        "value": 0
                    },
                    {
                        "number": 64,
                        "time": 77.05378455000002,
                        "value": 1
                    },
                    {
                        "number": 64,
                        "time": 77.77029588333335,
                        "value": 0
                    },
                    {
                        "number": 64,
                        "time": 77.81546725000001,
                        "value": 1
                    },
                    {
                        "number": 64,
                        "time": 78.14023380000002,
                        "value": 0
                    },
                    {
                        "number": 64,
                        "time": 78.17138646666669,
                        "value": 1
                    },
                    {
                        "number": 64,
                        "time": 78.51640225000003,
                        "value": 0
                    },
                    {
                        "number": 64,
                        "time": 78.5896110166667,
                        "value": 1
                    },
                    {
                        "number": 64,
                        "time": 79.26172980000003,
                        "value": 0
                    },
                    {
                        "number": 64,
                        "time": 79.31079525000003,
                        "value": 1
                    },
                    {
                        "number": 64,
                        "time": 79.53509445000003,
                        "value": 0
                    },
                    {
                        "number": 64,
                        "time": 80.05845925000003,
                        "value": 1
                    },
                    {
                        "number": 64,
                        "time": 80.75238490000002,
                        "value": 0
                    },
                    {
                        "number": 64,
                        "time": 80.80378680000003,
                        "value": 1
                    },
                    {
                        "number": 64,
                        "time": 81.13088980000002,
                        "value": 0
                    },
                    {
                        "number": 64,
                        "time": 81.18618578333336,
                        "value": 1
                    },
                    {
                        "number": 64,
                        "time": 81.50861588333336,
                        "value": 0
                    },
                    {
                        "number": 64,
                        "time": 81.6316689166667,
                        "value": 1
                    },
                    {
                        "number": 64,
                        "time": 82.24771290000002,
                        "value": 0
                    },
                    {
                        "number": 64,
                        "time": 82.31001823333335,
                        "value": 1
                    },
                    {
                        "number": 64,
                        "time": 82.52575045000002,
                        "value": 0
                    },
                    {
                        "number": 64,
                        "time": 83.55846135000002,
                        "value": 1
                    },
                    {
                        "number": 64,
                        "time": 83.74537735000001,
                        "value": 0
                    },
                    {
                        "number": 64,
                        "time": 83.80768268333334,
                        "value": 1
                    },
                    {
                        "number": 64,
                        "time": 84.87154625000001,
                        "value": 0
                    },
                    {
                        "number": 64,
                        "time": 85.62076788333334,
                        "value": 1
                    },
                    {
                        "number": 64,
                        "time": 85.74070565000001,
                        "value": 0
                    },
                    {
                        "number": 64,
                        "time": 85.76095488333334,
                        "value": 1
                    },
                    {
                        "number": 64,
                        "time": 85.86531631666668,
                        "value": 0
                    },
                    {
                        "number": 64,
                        "time": 85.89724780000002,
                        "value": 1
                    },
                    {
                        "number": 64,
                        "time": 91.65114533333335,
                        "value": 0
                    }
                ]
            },
            "id": 3,
            "name": "Pedal"
        },
        {
            "startTime": 0,
            "duration": 0,
            "length": 0,
            "notes": [],
            "controlChanges": {},
            "id": 4,
            "name": "Modest Mussorgski: Bilder einer Ausstellung (6)"
        },
        {
            "startTime": 0,
            "duration": 0,
            "length": 0,
            "notes": [],
            "controlChanges": {},
            "id": 5,
            "name": "Copyright  2000 by Bernd Krger"
        },
        {
            "startTime": 0,
            "duration": 0,
            "length": 0,
            "notes": [],
            "controlChanges": {},
            "id": 6,
            "name": "http://www.piano-midi.de"
        },
        {
            "startTime": 0,
            "duration": 0,
            "length": 0,
            "notes": [],
            "controlChanges": {},
            "id": 7,
            "name": "Edition: 2013-12-03"
        },
        {
            "startTime": 0,
            "duration": 0,
            "length": 0,
            "notes": [],
            "controlChanges": {},
            "id": 8,
            "name": "Spur 8"
        }
    ]
}