{
    "header": {
        "PPQ": 480,
        "timeSignature": [
            3,
            8
        ],
        "bpm": 100,
        "name": "Promenade - Gnomus (1)"
    },
    "startTime": 0,
    "duration": 223.04999999999995,
    "tracks": [
        {
            "startTime": 0,
            "duration": 0,
            "length": 0,
            "notes": [],
            "controlChanges": {},
            "id": 0,
            "name": "Promenade - Gnomus (1)"
        },
        {
            "startTime": 0.00125,
            "duration": 223.04999999999995,
            "length": 870,
            "notes": [
                {
                    "name": "G4",
                    "midi": 67,
                    "time": 0.00125,
                    "velocity": 0.7086614173228346,
                    "duration": 0.625
                },
                {
                    "name": "F4",
                    "midi": 65,
                    "time": 0.6,
                    "velocity": 0.6692913385826772,
                    "duration": 0.6249999999999999
                },
                {
                    "name": "A#4",
                    "midi": 70,
                    "time": 1.2,
                    "velocity": 0.7007874015748031,
                    "duration": 0.6249999999999998
                },
                {
                    "name": "C5",
                    "midi": 72,
                    "time": 1.7999999999999998,
                    "velocity": 0.7165354330708661,
                    "duration": 0.32499999999999973
                },
                {
                    "name": "F5",
                    "midi": 77,
                    "time": 2.0999999999999996,
                    "velocity": 0.6377952755905512,
                    "duration": 0.32499999999999973
                },
                {
                    "name": "D5",
                    "midi": 74,
                    "time": 2.3999999999999995,
                    "velocity": 0.6771653543307087,
                    "duration": 0.6249999999999996
                },
                {
                    "name": "C5",
                    "midi": 72,
                    "time": 2.999999999999999,
                    "velocity": 0.6692913385826772,
                    "duration": 0.32499999999999973
                },
                {
                    "name": "F5",
                    "midi": 77,
                    "time": 3.299999999999999,
                    "velocity": 0.6377952755905512,
                    "duration": 0.32499999999999973
                },
                {
                    "name": "D5",
                    "midi": 74,
                    "time": 3.5999999999999988,
                    "velocity": 0.6692913385826772,
                    "duration": 0.625
                },
                {
                    "name": "A#4",
                    "midi": 70,
                    "time": 4.199999999999998,
                    "velocity": 0.6771653543307087,
                    "duration": 0.6250000000000009
                },
                {
                    "name": "C5",
                    "midi": 72,
                    "time": 4.799999999999999,
                    "velocity": 0.6771653543307087,
                    "duration": 0.6250000000000009
                },
                {
                    "name": "G4",
                    "midi": 67,
                    "time": 5.3999999999999995,
                    "velocity": 0.6456692913385826,
                    "duration": 0.6250000000000009
                },
                {
                    "name": "F4",
                    "midi": 65,
                    "time": 6,
                    "velocity": 0.6377952755905512,
                    "duration": 0.5625
                },
                {
                    "name": "A#3",
                    "midi": 58,
                    "time": 6.6,
                    "velocity": 0.5433070866141733,
                    "duration": 0.5999999999999996
                },
                {
                    "name": "G4",
                    "midi": 67,
                    "time": 6.6,
                    "velocity": 0.6456692913385826,
                    "duration": 0.5999999999999996
                },
                {
                    "name": "D4",
                    "midi": 62,
                    "time": 6.6,
                    "velocity": 0.5433070866141733,
                    "duration": 0.5999999999999996
                },
                {
                    "name": "C4",
                    "midi": 60,
                    "time": 7.199999999999999,
                    "velocity": 0.5354330708661418,
                    "duration": 0.5999999999999996
                },
                {
                    "name": "A3",
                    "midi": 57,
                    "time": 7.199999999999999,
                    "velocity": 0.5354330708661418,
                    "duration": 0.5999999999999996
                },
                {
                    "name": "F4",
                    "midi": 65,
                    "time": 7.199999999999999,
                    "velocity": 0.6299212598425197,
                    "duration": 0.5999999999999996
                },
                {
                    "name": "D4",
                    "midi": 62,
                    "time": 7.799999999999999,
                    "velocity": 0.5354330708661418,
                    "duration": 0.5999999999999996
                },
                {
                    "name": "A#3",
                    "midi": 58,
                    "time": 7.799999999999999,
                    "velocity": 0.5354330708661418,
                    "duration": 0.5999999999999996
                },
                {
                    "name": "A#4",
                    "midi": 70,
                    "time": 7.799999999999999,
                    "velocity": 0.6299212598425197,
                    "duration": 0.5999999999999996
                },
                {
                    "name": "C4",
                    "midi": 60,
                    "time": 8.399999999999999,
                    "velocity": 0.5433070866141733,
                    "duration": 0.6000000000000014
                },
                {
                    "name": "C5",
                    "midi": 72,
                    "time": 8.399999999999999,
                    "velocity": 0.6456692913385826,
                    "duration": 0.3000000000000007
                },
                {
                    "name": "A4",
                    "midi": 69,
                    "time": 8.399999999999999,
                    "velocity": 0.5433070866141733,
                    "duration": 0.6000000000000014
                },
                {
                    "name": "F5",
                    "midi": 77,
                    "time": 8.7,
                    "velocity": 0.6141732283464567,
                    "duration": 0.3000000000000007
                },
                {
                    "name": "A4",
                    "midi": 69,
                    "time": 9,
                    "velocity": 0.5354330708661418,
                    "duration": 0.5999999999999996
                },
                {
                    "name": "D5",
                    "midi": 74,
                    "time": 9,
                    "velocity": 0.6377952755905512,
                    "duration": 0.5999999999999996
                },
                {
                    "name": "F4",
                    "midi": 65,
                    "time": 9,
                    "velocity": 0.5354330708661418,
                    "duration": 0.5999999999999996
                },
                {
                    "name": "C4",
                    "midi": 60,
                    "time": 9.6,
                    "velocity": 0.5354330708661418,
                    "duration": 0.6000000000000014
                },
                {
                    "name": "A4",
                    "midi": 69,
                    "time": 9.6,
                    "velocity": 0.5354330708661418,
                    "duration": 0.6000000000000014
                },
                {
                    "name": "C5",
                    "midi": 72,
                    "time": 9.6,
                    "velocity": 0.6377952755905512,
                    "duration": 0.3000000000000007
                },
                {
                    "name": "F5",
                    "midi": 77,
                    "time": 9.9,
                    "velocity": 0.6062992125984252,
                    "duration": 0.3000000000000007
                },
                {
                    "name": "A#4",
                    "midi": 70,
                    "time": 10.200000000000001,
                    "velocity": 0.5590551181102362,
                    "duration": 0.5625
                },
                {
                    "name": "F4",
                    "midi": 65,
                    "time": 10.200000000000001,
                    "velocity": 0.5590551181102362,
                    "duration": 0.5625
                },
                {
                    "name": "D5",
                    "midi": 74,
                    "time": 10.200000000000001,
                    "velocity": 0.6614173228346457,
                    "duration": 0.5625
                },
                {
                    "name": "G4",
                    "midi": 67,
                    "time": 10.8,
                    "velocity": 0.5196850393700787,
                    "duration": 0.5999999999999996
                },
                {
                    "name": "D4",
                    "midi": 62,
                    "time": 10.8,
                    "velocity": 0.5196850393700787,
                    "duration": 0.5999999999999996
                },
                {
                    "name": "A#4",
                    "midi": 70,
                    "time": 10.8,
                    "velocity": 0.6141732283464567,
                    "duration": 0.5999999999999996
                },
                {
                    "name": "G4",
                    "midi": 67,
                    "time": 11.4,
                    "velocity": 0.5118110236220472,
                    "duration": 0.5999999999999996
                },
                {
                    "name": "E4",
                    "midi": 64,
                    "time": 11.4,
                    "velocity": 0.5118110236220472,
                    "duration": 0.5999999999999996
                },
                {
                    "name": "C5",
                    "midi": 72,
                    "time": 11.4,
                    "velocity": 0.6062992125984252,
                    "duration": 0.5999999999999996
                },
                {
                    "name": "C4",
                    "midi": 60,
                    "time": 12,
                    "velocity": 0.4645669291338583,
                    "duration": 0.5999999999999996
                },
                {
                    "name": "G4",
                    "midi": 67,
                    "time": 12,
                    "velocity": 0.5511811023622047,
                    "duration": 0.5999999999999996
                },
                {
                    "name": "G3",
                    "midi": 55,
                    "time": 12,
                    "velocity": 0.4645669291338583,
                    "duration": 0.5999999999999996
                },
                {
                    "name": "F4",
                    "midi": 65,
                    "time": 12.6,
                    "velocity": 0.5196850393700787,
                    "duration": 0.5625
                },
                {
                    "name": "A3",
                    "midi": 57,
                    "time": 12.6,
                    "velocity": 0.4409448818897638,
                    "duration": 0.5625
                },
                {
                    "name": "C4",
                    "midi": 60,
                    "time": 12.6,
                    "velocity": 0.4409448818897638,
                    "duration": 0.5625
                },
                {
                    "name": "F4",
                    "midi": 65,
                    "time": 13.2,
                    "velocity": 0.7244094488188977,
                    "duration": 0.625
                },
                {
                    "name": "G4",
                    "midi": 67,
                    "time": 13.799999999999999,
                    "velocity": 0.6929133858267716,
                    "duration": 0.625
                },
                {
                    "name": "D4",
                    "midi": 62,
                    "time": 14.399999999999999,
                    "velocity": 0.6535433070866141,
                    "duration": 0.625
                },
                {
                    "name": "F4",
                    "midi": 65,
                    "time": 14.999999999999998,
                    "velocity": 0.6771653543307087,
                    "duration": 0.32500000000000107
                },
                {
                    "name": "G4",
                    "midi": 67,
                    "time": 15.299999999999999,
                    "velocity": 0.5826771653543307,
                    "duration": 0.32500000000000107
                },
                {
                    "name": "C4",
                    "midi": 60,
                    "time": 15.6,
                    "velocity": 0.6299212598425197,
                    "duration": 0.6249999999999982
                },
                {
                    "name": "G4",
                    "midi": 67,
                    "time": 16.2,
                    "velocity": 0.6692913385826772,
                    "duration": 0.32499999999999574
                },
                {
                    "name": "A4",
                    "midi": 69,
                    "time": 16.499999999999996,
                    "velocity": 0.6062992125984252,
                    "duration": 0.32499999999999574
                },
                {
                    "name": "F4",
                    "midi": 65,
                    "time": 16.799999999999994,
                    "velocity": 0.6535433070866141,
                    "duration": 0.5625
                },
                {
                    "name": "F5",
                    "midi": 77,
                    "time": 17.399999999999995,
                    "velocity": 0.6614173228346457,
                    "duration": 0.6000000000000014
                },
                {
                    "name": "F4",
                    "midi": 65,
                    "time": 17.399999999999995,
                    "velocity": 0.5590551181102362,
                    "duration": 0.6000000000000014
                },
                {
                    "name": "F4",
                    "midi": 65,
                    "time": 17.999999999999996,
                    "velocity": 0.5433070866141733,
                    "duration": 0.6000000000000014
                },
                {
                    "name": "D5",
                    "midi": 74,
                    "time": 17.999999999999996,
                    "velocity": 0.6456692913385826,
                    "duration": 0.6000000000000014
                },
                {
                    "name": "F4",
                    "midi": 65,
                    "time": 18.599999999999998,
                    "velocity": 0.5354330708661418,
                    "duration": 0.6000000000000014
                },
                {
                    "name": "C5",
                    "midi": 72,
                    "time": 18.599999999999998,
                    "velocity": 0.6299212598425197,
                    "duration": 0.3000000000000007
                },
                {
                    "name": "A#4",
                    "midi": 70,
                    "time": 18.9,
                    "velocity": 0.5826771653543307,
                    "duration": 0.3000000000000007
                },
                {
                    "name": "F4",
                    "midi": 65,
                    "time": 19.2,
                    "velocity": 0.6220472440944882,
                    "duration": 0.5625
                },
                {
                    "name": "F4",
                    "midi": 65,
                    "time": 19.8,
                    "velocity": 0.7244094488188977,
                    "duration": 0.625
                },
                {
                    "name": "G4",
                    "midi": 67,
                    "time": 20.400000000000002,
                    "velocity": 0.6929133858267716,
                    "duration": 0.6249999999999964
                },
                {
                    "name": "D4",
                    "midi": 62,
                    "time": 21,
                    "velocity": 0.6692913385826772,
                    "duration": 0.6249999999999964
                },
                {
                    "name": "F4",
                    "midi": 65,
                    "time": 21.599999999999998,
                    "velocity": 0.6771653543307087,
                    "duration": 0.32499999999999574
                },
                {
                    "name": "G4",
                    "midi": 67,
                    "time": 21.899999999999995,
                    "velocity": 0.6062992125984252,
                    "duration": 0.32499999999999574
                },
                {
                    "name": "D#4",
                    "midi": 63,
                    "time": 22.199999999999992,
                    "velocity": 0.6692913385826772,
                    "duration": 0.6249999999999964
                },
                {
                    "name": "A#4",
                    "midi": 70,
                    "time": 22.79999999999999,
                    "velocity": 0.7244094488188977,
                    "duration": 0.32499999999999574
                },
                {
                    "name": "C5",
                    "midi": 72,
                    "time": 23.099999999999987,
                    "velocity": 0.5826771653543307,
                    "duration": 0.32499999999999574
                },
                {
                    "name": "G#4",
                    "midi": 68,
                    "time": 23.399999999999984,
                    "velocity": 0.6141732283464567,
                    "duration": 0.5625
                },
                {
                    "name": "G#5",
                    "midi": 80,
                    "time": 23.999999999999986,
                    "velocity": 0.6614173228346457,
                    "duration": 0.6000000000000014
                },
                {
                    "name": "G#4",
                    "midi": 68,
                    "time": 23.999999999999986,
                    "velocity": 0.5590551181102362,
                    "duration": 0.6000000000000014
                },
                {
                    "name": "G#4",
                    "midi": 68,
                    "time": 24.599999999999987,
                    "velocity": 0.5354330708661418,
                    "duration": 0.6000000000000014
                },
                {
                    "name": "F5",
                    "midi": 77,
                    "time": 24.599999999999987,
                    "velocity": 0.6299212598425197,
                    "duration": 0.6000000000000014
                },
                {
                    "name": "D#5",
                    "midi": 75,
                    "time": 25.19999999999999,
                    "velocity": 0.6141732283464567,
                    "duration": 0.3000000000000007
                },
                {
                    "name": "G#4",
                    "midi": 68,
                    "time": 25.19999999999999,
                    "velocity": 0.5196850393700787,
                    "duration": 0.6000000000000014
                },
                {
                    "name": "C#5",
                    "midi": 73,
                    "time": 25.49999999999999,
                    "velocity": 0.6141732283464567,
                    "duration": 0.3000000000000007
                },
                {
                    "name": "G#4",
                    "midi": 68,
                    "time": 25.79999999999999,
                    "velocity": 0.5826771653543307,
                    "duration": 0.5625
                },
                {
                    "name": "G#4",
                    "midi": 68,
                    "time": 26.39999999999999,
                    "velocity": 0.3779527559055118,
                    "duration": 0.6000000000000014
                },
                {
                    "name": "G#3",
                    "midi": 56,
                    "time": 26.39999999999999,
                    "velocity": 0.31496062992125984,
                    "duration": 0.6000000000000014
                },
                {
                    "name": "D#4",
                    "midi": 63,
                    "time": 26.39999999999999,
                    "velocity": 0.31496062992125984,
                    "duration": 1.8000000000000043
                },
                {
                    "name": "A#4",
                    "midi": 70,
                    "time": 26.999999999999993,
                    "velocity": 0.3858267716535433,
                    "duration": 0.6000000000000014
                },
                {
                    "name": "A#3",
                    "midi": 58,
                    "time": 26.999999999999993,
                    "velocity": 0.3228346456692913,
                    "duration": 0.6000000000000014
                },
                {
                    "name": "G#3",
                    "midi": 56,
                    "time": 27.599999999999994,
                    "velocity": 0.3228346456692913,
                    "duration": 0.6000000000000014
                },
                {
                    "name": "G#4",
                    "midi": 68,
                    "time": 27.599999999999994,
                    "velocity": 0.3858267716535433,
                    "duration": 0.6000000000000014
                },
                {
                    "name": "D#4",
                    "midi": 63,
                    "time": 28.199999999999996,
                    "velocity": 0.3858267716535433,
                    "duration": 0.9000000000000021
                },
                {
                    "name": "A#3",
                    "midi": 58,
                    "time": 28.199999999999996,
                    "velocity": 0.3228346456692913,
                    "duration": 0.3000000000000007
                },
                {
                    "name": "A#4",
                    "midi": 70,
                    "time": 28.199999999999996,
                    "velocity": 0.3858267716535433,
                    "duration": 0.3000000000000007
                },
                {
                    "name": "C4",
                    "midi": 60,
                    "time": 28.499999999999996,
                    "velocity": 0.3228346456692913,
                    "duration": 0.3000000000000007
                },
                {
                    "name": "C5",
                    "midi": 72,
                    "time": 28.499999999999996,
                    "velocity": 0.3858267716535433,
                    "duration": 0.3000000000000007
                },
                {
                    "name": "D#5",
                    "midi": 75,
                    "time": 28.799999999999997,
                    "velocity": 0.41732283464566927,
                    "duration": 0.3000000000000007
                },
                {
                    "name": "D#4",
                    "midi": 63,
                    "time": 28.799999999999997,
                    "velocity": 0.3543307086614173,
                    "duration": 1.2000000000000028
                },
                {
                    "name": "A#4",
                    "midi": 70,
                    "time": 29.099999999999998,
                    "velocity": 0.3858267716535433,
                    "duration": 0.3000000000000007
                },
                {
                    "name": "A#3",
                    "midi": 58,
                    "time": 29.099999999999998,
                    "velocity": 0.3228346456692913,
                    "duration": 0.3000000000000007
                },
                {
                    "name": "G#4",
                    "midi": 68,
                    "time": 29.4,
                    "velocity": 0.36220472440944884,
                    "duration": 0.5625
                },
                {
                    "name": "G#3",
                    "midi": 56,
                    "time": 29.4,
                    "velocity": 0.30708661417322836,
                    "duration": 0.5625
                },
                {
                    "name": "C#5",
                    "midi": 73,
                    "time": 30,
                    "velocity": 0.5748031496062992,
                    "duration": 0.3000000000000007
                },
                {
                    "name": "C#4",
                    "midi": 61,
                    "time": 30,
                    "velocity": 0.4881889763779528,
                    "duration": 0.3000000000000007
                },
                {
                    "name": "F4",
                    "midi": 65,
                    "time": 30,
                    "velocity": 0.4881889763779528,
                    "duration": 0.3000000000000007
                },
                {
                    "name": "G#4",
                    "midi": 68,
                    "time": 30,
                    "velocity": 0.4881889763779528,
                    "duration": 0.3000000000000007
                },
                {
                    "name": "C5",
                    "midi": 72,
                    "time": 30.3,
                    "velocity": 0.4566929133858268,
                    "duration": 0.3000000000000007
                },
                {
                    "name": "D#5",
                    "midi": 75,
                    "time": 30.3,
                    "velocity": 0.5433070866141733,
                    "duration": 0.3000000000000007
                },
                {
                    "name": "G#4",
                    "midi": 68,
                    "time": 30.3,
                    "velocity": 0.4566929133858268,
                    "duration": 0.3000000000000007
                },
                {
                    "name": "D#4",
                    "midi": 63,
                    "time": 30.3,
                    "velocity": 0.4566929133858268,
                    "duration": 0.3000000000000007
                },
                {
                    "name": "F4",
                    "midi": 65,
                    "time": 30.6,
                    "velocity": 0.4881889763779528,
                    "duration": 0.3000000000000007
                },
                {
                    "name": "F5",
                    "midi": 77,
                    "time": 30.6,
                    "velocity": 0.5748031496062992,
                    "duration": 0.3000000000000007
                },
                {
                    "name": "C#5",
                    "midi": 73,
                    "time": 30.6,
                    "velocity": 0.4881889763779528,
                    "duration": 0.3000000000000007
                },
                {
                    "name": "G#4",
                    "midi": 68,
                    "time": 30.6,
                    "velocity": 0.4881889763779528,
                    "duration": 0.3000000000000007
                },
                {
                    "name": "G#5",
                    "midi": 80,
                    "time": 30.900000000000002,
                    "velocity": 0.5905511811023622,
                    "duration": 0.3000000000000007
                },
                {
                    "name": "A#4",
                    "midi": 70,
                    "time": 31.200000000000003,
                    "velocity": 0.48031496062992124,
                    "duration": 0.3000000000000007
                },
                {
                    "name": "D#5",
                    "midi": 75,
                    "time": 31.200000000000003,
                    "velocity": 0.48031496062992124,
                    "duration": 0.3000000000000007
                },
                {
                    "name": "F#4",
                    "midi": 66,
                    "time": 31.200000000000003,
                    "velocity": 0.48031496062992124,
                    "duration": 0.3000000000000007
                },
                {
                    "name": "F#5",
                    "midi": 78,
                    "time": 31.200000000000003,
                    "velocity": 0.5669291338582677,
                    "duration": 0.3000000000000007
                },
                {
                    "name": "G#4",
                    "midi": 68,
                    "time": 31.500000000000004,
                    "velocity": 0.44881889763779526,
                    "duration": 0.3000000000000007
                },
                {
                    "name": "F4",
                    "midi": 65,
                    "time": 31.500000000000004,
                    "velocity": 0.44881889763779526,
                    "duration": 0.3000000000000007
                },
                {
                    "name": "C#5",
                    "midi": 73,
                    "time": 31.500000000000004,
                    "velocity": 0.44881889763779526,
                    "duration": 0.3000000000000007
                },
                {
                    "name": "F5",
                    "midi": 77,
                    "time": 31.500000000000004,
                    "velocity": 0.5354330708661418,
                    "duration": 0.3000000000000007
                },
                {
                    "name": "D#4",
                    "midi": 63,
                    "time": 31.800000000000004,
                    "velocity": 0.49606299212598426,
                    "duration": 0.29999999999999716
                },
                {
                    "name": "D#5",
                    "midi": 75,
                    "time": 31.800000000000004,
                    "velocity": 0.5905511811023622,
                    "duration": 0.29999999999999716
                },
                {
                    "name": "G#4",
                    "midi": 68,
                    "time": 31.800000000000004,
                    "velocity": 0.49606299212598426,
                    "duration": 0.29999999999999716
                },
                {
                    "name": "C5",
                    "midi": 72,
                    "time": 31.800000000000004,
                    "velocity": 0.49606299212598426,
                    "duration": 0.29999999999999716
                },
                {
                    "name": "F#5",
                    "midi": 78,
                    "time": 32.1,
                    "velocity": 0.5433070866141733,
                    "duration": 0.29999999999999716
                },
                {
                    "name": "F#4",
                    "midi": 66,
                    "time": 32.1,
                    "velocity": 0.4566929133858268,
                    "duration": 0.29999999999999716
                },
                {
                    "name": "A#4",
                    "midi": 70,
                    "time": 32.4,
                    "velocity": 0.4566929133858268,
                    "duration": 0.29999999999999716
                },
                {
                    "name": "F5",
                    "midi": 77,
                    "time": 32.4,
                    "velocity": 0.5433070866141733,
                    "duration": 0.29999999999999716
                },
                {
                    "name": "C#5",
                    "midi": 73,
                    "time": 32.4,
                    "velocity": 0.4566929133858268,
                    "duration": 0.29999999999999716
                },
                {
                    "name": "F4",
                    "midi": 65,
                    "time": 32.4,
                    "velocity": 0.4566929133858268,
                    "duration": 0.29999999999999716
                },
                {
                    "name": "C#4",
                    "midi": 61,
                    "time": 32.699999999999996,
                    "velocity": 0.44881889763779526,
                    "duration": 0.29999999999999716
                },
                {
                    "name": "C#5",
                    "midi": 73,
                    "time": 32.699999999999996,
                    "velocity": 0.5354330708661418,
                    "duration": 0.29999999999999716
                },
                {
                    "name": "G#4",
                    "midi": 68,
                    "time": 32.99999999999999,
                    "velocity": 0.4251968503937008,
                    "duration": 0.5625
                },
                {
                    "name": "D#5",
                    "midi": 75,
                    "time": 32.99999999999999,
                    "velocity": 0.5039370078740157,
                    "duration": 0.5625
                },
                {
                    "name": "C5",
                    "midi": 72,
                    "time": 32.99999999999999,
                    "velocity": 0.4251968503937008,
                    "duration": 0.5625
                },
                {
                    "name": "D#4",
                    "midi": 63,
                    "time": 32.99999999999999,
                    "velocity": 0.4251968503937008,
                    "duration": 0.5625
                },
                {
                    "name": "D#4",
                    "midi": 63,
                    "time": 33.599999999999994,
                    "velocity": 0.33858267716535434,
                    "duration": 1.8000000000000043
                },
                {
                    "name": "G#4",
                    "midi": 68,
                    "time": 33.599999999999994,
                    "velocity": 0.4015748031496063,
                    "duration": 0.6000000000000014
                },
                {
                    "name": "G#3",
                    "midi": 56,
                    "time": 33.599999999999994,
                    "velocity": 0.33858267716535434,
                    "duration": 0.6000000000000014
                },
                {
                    "name": "A#4",
                    "midi": 70,
                    "time": 34.199999999999996,
                    "velocity": 0.4015748031496063,
                    "duration": 0.6000000000000014
                },
                {
                    "name": "A#3",
                    "midi": 58,
                    "time": 34.199999999999996,
                    "velocity": 0.33858267716535434,
                    "duration": 0.6000000000000014
                },
                {
                    "name": "G#3",
                    "midi": 56,
                    "time": 34.8,
                    "velocity": 0.33858267716535434,
                    "duration": 0.6000000000000014
                },
                {
                    "name": "G#4",
                    "midi": 68,
                    "time": 34.8,
                    "velocity": 0.4015748031496063,
                    "duration": 0.6000000000000014
                },
                {
                    "name": "A#3",
                    "midi": 58,
                    "time": 35.4,
                    "velocity": 0.3543307086614173,
                    "duration": 0.29999999999999716
                },
                {
                    "name": "D#4",
                    "midi": 63,
                    "time": 35.4,
                    "velocity": 0.3543307086614173,
                    "duration": 0.5999999999999943
                },
                {
                    "name": "A#4",
                    "midi": 70,
                    "time": 35.4,
                    "velocity": 0.41732283464566927,
                    "duration": 0.29999999999999716
                },
                {
                    "name": "C5",
                    "midi": 72,
                    "time": 35.699999999999996,
                    "velocity": 0.4330708661417323,
                    "duration": 0.29999999999999716
                },
                {
                    "name": "C4",
                    "midi": 60,
                    "time": 35.699999999999996,
                    "velocity": 0.36220472440944884,
                    "duration": 0.29999999999999716
                },
                {
                    "name": "D#4",
                    "midi": 63,
                    "time": 35.99999999999999,
                    "velocity": 0.4094488188976378,
                    "duration": 0.29999999999999716
                },
                {
                    "name": "D#5",
                    "midi": 75,
                    "time": 35.99999999999999,
                    "velocity": 0.4881889763779528,
                    "duration": 0.29999999999999716
                },
                {
                    "name": "A#3",
                    "midi": 58,
                    "time": 36.29999999999999,
                    "velocity": 0.3858267716535433,
                    "duration": 0.29999999999999716
                },
                {
                    "name": "A#4",
                    "midi": 70,
                    "time": 36.29999999999999,
                    "velocity": 0.4645669291338583,
                    "duration": 0.29999999999999716
                },
                {
                    "name": "C4",
                    "midi": 60,
                    "time": 36.59999999999999,
                    "velocity": 0.4094488188976378,
                    "duration": 0.6000000000000014
                },
                {
                    "name": "C5",
                    "midi": 72,
                    "time": 36.59999999999999,
                    "velocity": 0.4881889763779528,
                    "duration": 0.6000000000000014
                },
                {
                    "name": "G4",
                    "midi": 67,
                    "time": 36.59999999999999,
                    "velocity": 0.4094488188976378,
                    "duration": 1.8000000000000043
                },
                {
                    "name": "D4",
                    "midi": 62,
                    "time": 37.19999999999999,
                    "velocity": 0.4251968503937008,
                    "duration": 0.6000000000000014
                },
                {
                    "name": "D5",
                    "midi": 74,
                    "time": 37.19999999999999,
                    "velocity": 0.5039370078740157,
                    "duration": 0.6000000000000014
                },
                {
                    "name": "C4",
                    "midi": 60,
                    "time": 37.79999999999999,
                    "velocity": 0.41732283464566927,
                    "duration": 0.6000000000000014
                },
                {
                    "name": "C5",
                    "midi": 72,
                    "time": 37.79999999999999,
                    "velocity": 0.49606299212598426,
                    "duration": 0.6000000000000014
                },
                {
                    "name": "D4",
                    "midi": 62,
                    "time": 38.39999999999999,
                    "velocity": 0.4094488188976378,
                    "duration": 0.29999999999999716
                },
                {
                    "name": "G4",
                    "midi": 67,
                    "time": 38.39999999999999,
                    "velocity": 0.4094488188976378,
                    "duration": 0.5999999999999943
                },
                {
                    "name": "D5",
                    "midi": 74,
                    "time": 38.39999999999999,
                    "velocity": 0.4881889763779528,
                    "duration": 0.29999999999999716
                },
                {
                    "name": "F5",
                    "midi": 77,
                    "time": 38.69999999999999,
                    "velocity": 0.4881889763779528,
                    "duration": 0.29999999999999716
                },
                {
                    "name": "F4",
                    "midi": 65,
                    "time": 38.69999999999999,
                    "velocity": 0.4094488188976378,
                    "duration": 0.29999999999999716
                },
                {
                    "name": "G5",
                    "midi": 79,
                    "time": 38.999999999999986,
                    "velocity": 0.5039370078740157,
                    "duration": 0.29999999999999716
                },
                {
                    "name": "G4",
                    "midi": 67,
                    "time": 38.999999999999986,
                    "velocity": 0.4251968503937008,
                    "duration": 1.1999999999999957
                },
                {
                    "name": "D4",
                    "midi": 62,
                    "time": 39.29999999999998,
                    "velocity": 0.41732283464566927,
                    "duration": 0.29999999999999716
                },
                {
                    "name": "D5",
                    "midi": 74,
                    "time": 39.29999999999998,
                    "velocity": 0.49606299212598426,
                    "duration": 0.29999999999999716
                },
                {
                    "name": "C5",
                    "midi": 72,
                    "time": 39.59999999999998,
                    "velocity": 0.48031496062992124,
                    "duration": 0.5625
                },
                {
                    "name": "C4",
                    "midi": 60,
                    "time": 39.59999999999998,
                    "velocity": 0.4015748031496063,
                    "duration": 0.5625
                },
                {
                    "name": "C5",
                    "midi": 72,
                    "time": 40.19999999999998,
                    "velocity": 0.5275590551181102,
                    "duration": 0.29999999999999716
                },
                {
                    "name": "F4",
                    "midi": 65,
                    "time": 40.19999999999998,
                    "velocity": 0.5275590551181102,
                    "duration": 0.29999999999999716
                },
                {
                    "name": "A4",
                    "midi": 69,
                    "time": 40.19999999999998,
                    "velocity": 0.5275590551181102,
                    "duration": 0.29999999999999716
                },
                {
                    "name": "F5",
                    "midi": 77,
                    "time": 40.19999999999998,
                    "velocity": 0.6220472440944882,
                    "duration": 0.29999999999999716
                },
                {
                    "name": "C5",
                    "midi": 72,
                    "time": 40.49999999999998,
                    "velocity": 0.48031496062992124,
                    "duration": 0.29999999999999716
                },
                {
                    "name": "G5",
                    "midi": 79,
                    "time": 40.49999999999998,
                    "velocity": 0.5669291338582677,
                    "duration": 0.29999999999999716
                },
                {
                    "name": "E5",
                    "midi": 76,
                    "time": 40.49999999999998,
                    "velocity": 0.48031496062992124,
                    "duration": 0.29999999999999716
                },
                {
                    "name": "G4",
                    "midi": 67,
                    "time": 40.49999999999998,
                    "velocity": 0.48031496062992124,
                    "duration": 0.29999999999999716
                },
                {
                    "name": "A4",
                    "midi": 69,
                    "time": 40.799999999999976,
                    "velocity": 0.5433070866141733,
                    "duration": 0.29999999999999716
                },
                {
                    "name": "A5",
                    "midi": 81,
                    "time": 40.799999999999976,
                    "velocity": 0.6456692913385826,
                    "duration": 0.29999999999999716
                },
                {
                    "name": "C5",
                    "midi": 72,
                    "time": 40.799999999999976,
                    "velocity": 0.5433070866141733,
                    "duration": 0.29999999999999716
                },
                {
                    "name": "F5",
                    "midi": 77,
                    "time": 40.799999999999976,
                    "velocity": 0.5433070866141733,
                    "duration": 0.29999999999999716
                },
                {
                    "name": "C5",
                    "midi": 72,
                    "time": 41.09999999999997,
                    "velocity": 0.48031496062992124,
                    "duration": 0.29999999999999716
                },
                {
                    "name": "C6",
                    "midi": 84,
                    "time": 41.09999999999997,
                    "velocity": 0.5669291338582677,
                    "duration": 0.29999999999999716
                },
                {
                    "name": "D5",
                    "midi": 74,
                    "time": 41.39999999999997,
                    "velocity": 0.5354330708661418,
                    "duration": 0.29999999999999716
                },
                {
                    "name": "A#4",
                    "midi": 70,
                    "time": 41.39999999999997,
                    "velocity": 0.5354330708661418,
                    "duration": 0.29999999999999716
                },
                {
                    "name": "G5",
                    "midi": 79,
                    "time": 41.39999999999997,
                    "velocity": 0.5354330708661418,
                    "duration": 0.29999999999999716
                },
                {
                    "name": "A#5",
                    "midi": 82,
                    "time": 41.39999999999997,
                    "velocity": 0.6377952755905512,
                    "duration": 0.29999999999999716
                },
                {
                    "name": "A4",
                    "midi": 69,
                    "time": 41.69999999999997,
                    "velocity": 0.49606299212598426,
                    "duration": 0.29999999999999716
                },
                {
                    "name": "A5",
                    "midi": 81,
                    "time": 41.69999999999997,
                    "velocity": 0.5905511811023622,
                    "duration": 0.29999999999999716
                },
                {
                    "name": "C5",
                    "midi": 72,
                    "time": 41.69999999999997,
                    "velocity": 0.49606299212598426,
                    "duration": 0.29999999999999716
                },
                {
                    "name": "F5",
                    "midi": 77,
                    "time": 41.69999999999997,
                    "velocity": 0.49606299212598426,
                    "duration": 0.29999999999999716
                },
                {
                    "name": "E5",
                    "midi": 76,
                    "time": 41.999999999999964,
                    "velocity": 0.6377952755905512,
                    "duration": 0.29999999999999716
                },
                {
                    "name": "G5",
                    "midi": 79,
                    "time": 41.999999999999964,
                    "velocity": 0.6377952755905512,
                    "duration": 0.29999999999999716
                },
                {
                    "name": "G4",
                    "midi": 67,
                    "time": 41.999999999999964,
                    "velocity": 0.5354330708661418,
                    "duration": 0.29999999999999716
                },
                {
                    "name": "C5",
                    "midi": 72,
                    "time": 41.999999999999964,
                    "velocity": 0.5354330708661418,
                    "duration": 0.29999999999999716
                },
                {
                    "name": "A#4",
                    "midi": 70,
                    "time": 42.29999999999996,
                    "velocity": 0.49606299212598426,
                    "duration": 0.29999999999999716
                },
                {
                    "name": "A#5",
                    "midi": 82,
                    "time": 42.29999999999996,
                    "velocity": 0.5905511811023622,
                    "duration": 0.29999999999999716
                },
                {
                    "name": "D5",
                    "midi": 74,
                    "time": 42.59999999999996,
                    "velocity": 0.5275590551181102,
                    "duration": 0.29999999999999716
                },
                {
                    "name": "A4",
                    "midi": 69,
                    "time": 42.59999999999996,
                    "velocity": 0.5275590551181102,
                    "duration": 0.29999999999999716
                },
                {
                    "name": "F5",
                    "midi": 77,
                    "time": 42.59999999999996,
                    "velocity": 0.5275590551181102,
                    "duration": 0.29999999999999716
                },
                {
                    "name": "A5",
                    "midi": 81,
                    "time": 42.59999999999996,
                    "velocity": 0.6220472440944882,
                    "duration": 0.29999999999999716
                },
                {
                    "name": "F4",
                    "midi": 65,
                    "time": 42.899999999999956,
                    "velocity": 0.4881889763779528,
                    "duration": 0.29999999999999716
                },
                {
                    "name": "F5",
                    "midi": 77,
                    "time": 42.899999999999956,
                    "velocity": 0.5826771653543307,
                    "duration": 0.29999999999999716
                },
                {
                    "name": "C5",
                    "midi": 72,
                    "time": 43.19999999999995,
                    "velocity": 0.4566929133858268,
                    "duration": 0.5625
                },
                {
                    "name": "G4",
                    "midi": 67,
                    "time": 43.19999999999995,
                    "velocity": 0.4566929133858268,
                    "duration": 0.5625
                },
                {
                    "name": "G5",
                    "midi": 79,
                    "time": 43.19999999999995,
                    "velocity": 0.5433070866141733,
                    "duration": 0.5625
                },
                {
                    "name": "E5",
                    "midi": 76,
                    "time": 43.19999999999995,
                    "velocity": 0.4566929133858268,
                    "duration": 0.5625
                },
                {
                    "name": "A4",
                    "midi": 69,
                    "time": 43.799999999999955,
                    "velocity": 0.3700787401574803,
                    "duration": 0.5999999999999943
                },
                {
                    "name": "A5",
                    "midi": 81,
                    "time": 43.799999999999955,
                    "velocity": 0.4409448818897638,
                    "duration": 0.29999999999999716
                },
                {
                    "name": "C5",
                    "midi": 72,
                    "time": 43.799999999999955,
                    "velocity": 0.3700787401574803,
                    "duration": 0.5999999999999943
                },
                {
                    "name": "E5",
                    "midi": 76,
                    "time": 44.09999999999995,
                    "velocity": 0.4015748031496063,
                    "duration": 0.29999999999999716
                },
                {
                    "name": "F4",
                    "midi": 65,
                    "time": 44.39999999999995,
                    "velocity": 0.3543307086614173,
                    "duration": 0.6000000000000014
                },
                {
                    "name": "D5",
                    "midi": 74,
                    "time": 44.39999999999995,
                    "velocity": 0.3543307086614173,
                    "duration": 0.6000000000000014
                },
                {
                    "name": "F5",
                    "midi": 77,
                    "time": 44.39999999999995,
                    "velocity": 0.4251968503937008,
                    "duration": 0.6000000000000014
                },
                {
                    "name": "A4",
                    "midi": 69,
                    "time": 44.99999999999995,
                    "velocity": 0.33858267716535434,
                    "duration": 0.6000000000000014
                },
                {
                    "name": "C5",
                    "midi": 72,
                    "time": 44.99999999999995,
                    "velocity": 0.33858267716535434,
                    "duration": 0.6000000000000014
                },
                {
                    "name": "A5",
                    "midi": 81,
                    "time": 44.99999999999995,
                    "velocity": 0.4015748031496063,
                    "duration": 0.6000000000000014
                },
                {
                    "name": "E4",
                    "midi": 64,
                    "time": 45.59999999999995,
                    "velocity": 0.30708661417322836,
                    "duration": 0.6000000000000014
                },
                {
                    "name": "D5",
                    "midi": 74,
                    "time": 45.59999999999995,
                    "velocity": 0.3700787401574803,
                    "duration": 0.6000000000000014
                },
                {
                    "name": "A#4",
                    "midi": 70,
                    "time": 45.59999999999995,
                    "velocity": 0.30708661417322836,
                    "duration": 0.6000000000000014
                },
                {
                    "name": "A5",
                    "midi": 81,
                    "time": 46.19999999999995,
                    "velocity": 0.4015748031496063,
                    "duration": 0.6000000000000014
                },
                {
                    "name": "A4",
                    "midi": 69,
                    "time": 46.19999999999995,
                    "velocity": 0.33858267716535434,
                    "duration": 0.6000000000000014
                },
                {
                    "name": "C5",
                    "midi": 72,
                    "time": 46.19999999999995,
                    "velocity": 0.33858267716535434,
                    "duration": 0.6000000000000014
                },
                {
                    "name": "A#4",
                    "midi": 70,
                    "time": 46.799999999999955,
                    "velocity": 0.30708661417322836,
                    "duration": 0.6000000000000014
                },
                {
                    "name": "D5",
                    "midi": 74,
                    "time": 46.799999999999955,
                    "velocity": 0.3700787401574803,
                    "duration": 0.6000000000000014
                },
                {
                    "name": "E4",
                    "midi": 64,
                    "time": 46.799999999999955,
                    "velocity": 0.30708661417322836,
                    "duration": 0.6000000000000014
                },
                {
                    "name": "A4",
                    "midi": 69,
                    "time": 47.399999999999956,
                    "velocity": 0.3700787401574803,
                    "duration": 0.5999999999999943
                },
                {
                    "name": "F5",
                    "midi": 77,
                    "time": 47.399999999999956,
                    "velocity": 0.4409448818897638,
                    "duration": 0.29999999999999716
                },
                {
                    "name": "F4",
                    "midi": 65,
                    "time": 47.399999999999956,
                    "velocity": 0.3700787401574803,
                    "duration": 0.5999999999999943
                },
                {
                    "name": "C5",
                    "midi": 72,
                    "time": 47.69999999999995,
                    "velocity": 0.4015748031496063,
                    "duration": 0.29999999999999716
                },
                {
                    "name": "A#4",
                    "midi": 70,
                    "time": 47.99999999999995,
                    "velocity": 0.3543307086614173,
                    "duration": 0.6000000000000014
                },
                {
                    "name": "F4",
                    "midi": 65,
                    "time": 47.99999999999995,
                    "velocity": 0.3543307086614173,
                    "duration": 0.6000000000000014
                },
                {
                    "name": "D5",
                    "midi": 74,
                    "time": 47.99999999999995,
                    "velocity": 0.4251968503937008,
                    "duration": 0.6000000000000014
                },
                {
                    "name": "A4",
                    "midi": 69,
                    "time": 48.59999999999995,
                    "velocity": 0.3464566929133858,
                    "duration": 0.6000000000000014
                },
                {
                    "name": "F4",
                    "midi": 65,
                    "time": 48.59999999999995,
                    "velocity": 0.3464566929133858,
                    "duration": 0.6000000000000014
                },
                {
                    "name": "F5",
                    "midi": 77,
                    "time": 48.59999999999995,
                    "velocity": 0.4094488188976378,
                    "duration": 0.6000000000000014
                },
                {
                    "name": "A#4",
                    "midi": 70,
                    "time": 49.19999999999995,
                    "velocity": 0.30708661417322836,
                    "duration": 0.6000000000000014
                },
                {
                    "name": "D5",
                    "midi": 74,
                    "time": 49.19999999999995,
                    "velocity": 0.3700787401574803,
                    "duration": 0.6000000000000014
                },
                {
                    "name": "F4",
                    "midi": 65,
                    "time": 49.19999999999995,
                    "velocity": 0.30708661417322836,
                    "duration": 0.6000000000000014
                },
                {
                    "name": "A4",
                    "midi": 69,
                    "time": 49.799999999999955,
                    "velocity": 0.3543307086614173,
                    "duration": 0.5999999999999943
                },
                {
                    "name": "F5",
                    "midi": 77,
                    "time": 49.799999999999955,
                    "velocity": 0.4251968503937008,
                    "duration": 0.29999999999999716
                },
                {
                    "name": "F4",
                    "midi": 65,
                    "time": 49.799999999999955,
                    "velocity": 0.3543307086614173,
                    "duration": 0.5999999999999943
                },
                {
                    "name": "C5",
                    "midi": 72,
                    "time": 50.09999999999995,
                    "velocity": 0.4015748031496063,
                    "duration": 0.29999999999999716
                },
                {
                    "name": "A#4",
                    "midi": 70,
                    "time": 50.39999999999995,
                    "velocity": 0.3464566929133858,
                    "duration": 0.5625
                },
                {
                    "name": "F4",
                    "midi": 65,
                    "time": 50.39999999999995,
                    "velocity": 0.3464566929133858,
                    "duration": 0.5625
                },
                {
                    "name": "D5",
                    "midi": 74,
                    "time": 50.39999999999995,
                    "velocity": 0.4094488188976378,
                    "duration": 0.5625
                },
                {
                    "name": "G4",
                    "midi": 67,
                    "time": 50.99999999999995,
                    "velocity": 0.3543307086614173,
                    "duration": 0.5999999999999943
                },
                {
                    "name": "D#4",
                    "midi": 63,
                    "time": 50.99999999999995,
                    "velocity": 0.3543307086614173,
                    "duration": 0.29999999999999716
                },
                {
                    "name": "C5",
                    "midi": 72,
                    "time": 50.99999999999995,
                    "velocity": 0.41732283464566927,
                    "duration": 0.5999999999999943
                },
                {
                    "name": "E4",
                    "midi": 64,
                    "time": 51.29999999999995,
                    "velocity": 0.36220472440944884,
                    "duration": 0.29999999999999716
                },
                {
                    "name": "F4",
                    "midi": 65,
                    "time": 51.599999999999945,
                    "velocity": 0.3228346456692913,
                    "duration": 0.6000000000000014
                },
                {
                    "name": "A4",
                    "midi": 69,
                    "time": 51.599999999999945,
                    "velocity": 0.3858267716535433,
                    "duration": 0.6000000000000014
                },
                {
                    "name": "C4",
                    "midi": 60,
                    "time": 51.599999999999945,
                    "velocity": 0.3228346456692913,
                    "duration": 0.6000000000000014
                },
                {
                    "name": "A#4",
                    "midi": 70,
                    "time": 52.199999999999946,
                    "velocity": 0.36220472440944884,
                    "duration": 0.6000000000000014
                },
                {
                    "name": "D4",
                    "midi": 62,
                    "time": 52.199999999999946,
                    "velocity": 0.30708661417322836,
                    "duration": 0.6000000000000014
                },
                {
                    "name": "F4",
                    "midi": 65,
                    "time": 52.199999999999946,
                    "velocity": 0.30708661417322836,
                    "duration": 0.6000000000000014
                },
                {
                    "name": "C5",
                    "midi": 72,
                    "time": 52.79999999999995,
                    "velocity": 0.4251968503937008,
                    "duration": 0.5999999999999943
                },
                {
                    "name": "D#4",
                    "midi": 63,
                    "time": 52.79999999999995,
                    "velocity": 0.3543307086614173,
                    "duration": 0.29999999999999716
                },
                {
                    "name": "G4",
                    "midi": 67,
                    "time": 52.79999999999995,
                    "velocity": 0.3543307086614173,
                    "duration": 0.5999999999999943
                },
                {
                    "name": "E4",
                    "midi": 64,
                    "time": 53.099999999999945,
                    "velocity": 0.3700787401574803,
                    "duration": 0.29999999999999716
                },
                {
                    "name": "F4",
                    "midi": 65,
                    "time": 53.39999999999994,
                    "velocity": 0.3228346456692913,
                    "duration": 0.6000000000000014
                },
                {
                    "name": "C4",
                    "midi": 60,
                    "time": 53.39999999999994,
                    "velocity": 0.3228346456692913,
                    "duration": 0.6000000000000014
                },
                {
                    "name": "A4",
                    "midi": 69,
                    "time": 53.39999999999994,
                    "velocity": 0.3858267716535433,
                    "duration": 0.6000000000000014
                },
                {
                    "name": "D4",
                    "midi": 62,
                    "time": 53.99999999999994,
                    "velocity": 0.3700787401574803,
                    "duration": 0.5999999999999943
                },
                {
                    "name": "F4",
                    "midi": 65,
                    "time": 53.99999999999994,
                    "velocity": 0.3700787401574803,
                    "duration": 0.5999999999999943
                },
                {
                    "name": "A#4",
                    "midi": 70,
                    "time": 53.99999999999994,
                    "velocity": 0.4409448818897638,
                    "duration": 0.29999999999999716
                },
                {
                    "name": "D5",
                    "midi": 74,
                    "time": 54.29999999999994,
                    "velocity": 0.4094488188976378,
                    "duration": 0.29999999999999716
                },
                {
                    "name": "G4",
                    "midi": 67,
                    "time": 54.59999999999994,
                    "velocity": 0.3700787401574803,
                    "duration": 0.6000000000000014
                },
                {
                    "name": "E4",
                    "midi": 64,
                    "time": 54.59999999999994,
                    "velocity": 0.3700787401574803,
                    "duration": 0.6000000000000014
                },
                {
                    "name": "C5",
                    "midi": 72,
                    "time": 54.59999999999994,
                    "velocity": 0.4409448818897638,
                    "duration": 0.6000000000000014
                },
                {
                    "name": "D4",
                    "midi": 62,
                    "time": 55.19999999999994,
                    "velocity": 0.30708661417322836,
                    "duration": 0.6000000000000014
                },
                {
                    "name": "A4",
                    "midi": 69,
                    "time": 55.19999999999994,
                    "velocity": 0.36220472440944884,
                    "duration": 0.6000000000000014
                },
                {
                    "name": "F4",
                    "midi": 65,
                    "time": 55.19999999999994,
                    "velocity": 0.30708661417322836,
                    "duration": 0.6000000000000014
                },
                {
                    "name": "C4",
                    "midi": 60,
                    "time": 55.19999999999994,
                    "velocity": 0.30708661417322836,
                    "duration": 0.6000000000000014
                },
                {
                    "name": "E4",
                    "midi": 64,
                    "time": 55.79999999999994,
                    "velocity": 0.33858267716535434,
                    "duration": 0.5625
                },
                {
                    "name": "C5",
                    "midi": 72,
                    "time": 55.79999999999994,
                    "velocity": 0.4015748031496063,
                    "duration": 0.5625
                },
                {
                    "name": "G4",
                    "midi": 67,
                    "time": 55.79999999999994,
                    "velocity": 0.33858267716535434,
                    "duration": 0.5625
                },
                {
                    "name": "F4",
                    "midi": 65,
                    "time": 56.39999999999994,
                    "velocity": 0.5826771653543307,
                    "duration": 0.6000000000000014
                },
                {
                    "name": "F5",
                    "midi": 77,
                    "time": 56.39999999999994,
                    "velocity": 0.6929133858267716,
                    "duration": 0.6000000000000014
                },
                {
                    "name": "G4",
                    "midi": 67,
                    "time": 56.99999999999994,
                    "velocity": 0.5433070866141733,
                    "duration": 0.29999999999999716
                },
                {
                    "name": "D#5",
                    "midi": 75,
                    "time": 56.99999999999994,
                    "velocity": 0.6456692913385826,
                    "duration": 0.29999999999999716
                },
                {
                    "name": "A#4",
                    "midi": 70,
                    "time": 56.99999999999994,
                    "velocity": 0.5433070866141733,
                    "duration": 0.29999999999999716
                },
                {
                    "name": "D#4",
                    "midi": 63,
                    "time": 56.99999999999994,
                    "velocity": 0.5433070866141733,
                    "duration": 0.29999999999999716
                },
                {
                    "name": "D4",
                    "midi": 62,
                    "time": 57.29999999999994,
                    "velocity": 0.5196850393700787,
                    "duration": 0.29999999999999716
                },
                {
                    "name": "D5",
                    "midi": 74,
                    "time": 57.29999999999994,
                    "velocity": 0.6141732283464567,
                    "duration": 0.29999999999999716
                },
                {
                    "name": "F4",
                    "midi": 65,
                    "time": 57.59999999999994,
                    "velocity": 0.49606299212598426,
                    "duration": 0.29999999999999716
                },
                {
                    "name": "C5",
                    "midi": 72,
                    "time": 57.59999999999994,
                    "velocity": 0.5905511811023622,
                    "duration": 0.29999999999999716
                },
                {
                    "name": "A4",
                    "midi": 69,
                    "time": 57.59999999999994,
                    "velocity": 0.49606299212598426,
                    "duration": 0.29999999999999716
                },
                {
                    "name": "C4",
                    "midi": 60,
                    "time": 57.59999999999994,
                    "velocity": 0.49606299212598426,
                    "duration": 0.29999999999999716
                },
                {
                    "name": "D4",
                    "midi": 62,
                    "time": 57.899999999999935,
                    "velocity": 0.47244094488188976,
                    "duration": 0.29999999999999716
                },
                {
                    "name": "A#4",
                    "midi": 70,
                    "time": 57.899999999999935,
                    "velocity": 0.5590551181102362,
                    "duration": 0.29999999999999716
                },
                {
                    "name": "F4",
                    "midi": 65,
                    "time": 57.899999999999935,
                    "velocity": 0.47244094488188976,
                    "duration": 0.29999999999999716
                },
                {
                    "name": "F4",
                    "midi": 65,
                    "time": 58.19999999999993,
                    "velocity": 0.5433070866141733,
                    "duration": 0.6000000000000014
                },
                {
                    "name": "C4",
                    "midi": 60,
                    "time": 58.19999999999993,
                    "velocity": 0.5433070866141733,
                    "duration": 0.6000000000000014
                },
                {
                    "name": "C5",
                    "midi": 72,
                    "time": 58.19999999999993,
                    "velocity": 0.6456692913385826,
                    "duration": 0.6000000000000014
                },
                {
                    "name": "F4",
                    "midi": 65,
                    "time": 58.79999999999993,
                    "velocity": 0.5590551181102362,
                    "duration": 0.6000000000000014
                },
                {
                    "name": "D4",
                    "midi": 62,
                    "time": 58.79999999999993,
                    "velocity": 0.5590551181102362,
                    "duration": 0.6000000000000014
                },
                {
                    "name": "D5",
                    "midi": 74,
                    "time": 58.79999999999993,
                    "velocity": 0.6614173228346457,
                    "duration": 0.6000000000000014
                },
                {
                    "name": "A4",
                    "midi": 69,
                    "time": 59.399999999999935,
                    "velocity": 0.5748031496062992,
                    "duration": 0.6000000000000014
                },
                {
                    "name": "F5",
                    "midi": 77,
                    "time": 59.399999999999935,
                    "velocity": 0.6771653543307087,
                    "duration": 0.6000000000000014
                },
                {
                    "name": "C5",
                    "midi": 72,
                    "time": 59.399999999999935,
                    "velocity": 0.5748031496062992,
                    "duration": 0.6000000000000014
                },
                {
                    "name": "F4",
                    "midi": 65,
                    "time": 59.399999999999935,
                    "velocity": 0.5748031496062992,
                    "duration": 0.6000000000000014
                },
                {
                    "name": "G4",
                    "midi": 67,
                    "time": 59.999999999999936,
                    "velocity": 0.5984251968503937,
                    "duration": 0.29999999999999716
                },
                {
                    "name": "G5",
                    "midi": 79,
                    "time": 59.999999999999936,
                    "velocity": 0.7086614173228346,
                    "duration": 0.29999999999999716
                },
                {
                    "name": "D#5",
                    "midi": 75,
                    "time": 59.999999999999936,
                    "velocity": 0.5984251968503937,
                    "duration": 0.29999999999999716
                },
                {
                    "name": "A#4",
                    "midi": 70,
                    "time": 59.999999999999936,
                    "velocity": 0.5984251968503937,
                    "duration": 0.29999999999999716
                },
                {
                    "name": "A#5",
                    "midi": 82,
                    "time": 60.29999999999993,
                    "velocity": 0.6456692913385826,
                    "duration": 0.29999999999999716
                },
                {
                    "name": "A#4",
                    "midi": 70,
                    "time": 60.29999999999993,
                    "velocity": 0.5433070866141733,
                    "duration": 0.29999999999999716
                },
                {
                    "name": "F4",
                    "midi": 65,
                    "time": 60.59999999999993,
                    "velocity": 0.5826771653543307,
                    "duration": 0.5625
                },
                {
                    "name": "F5",
                    "midi": 77,
                    "time": 60.59999999999993,
                    "velocity": 0.6929133858267716,
                    "duration": 0.5625
                },
                {
                    "name": "G4",
                    "midi": 67,
                    "time": 61.19999999999993,
                    "velocity": 0.6141732283464567,
                    "duration": 0.6000000000000014
                },
                {
                    "name": "G5",
                    "midi": 79,
                    "time": 61.19999999999993,
                    "velocity": 0.7244094488188977,
                    "duration": 0.6000000000000014
                },
                {
                    "name": "F5",
                    "midi": 77,
                    "time": 61.79999999999993,
                    "velocity": 0.7007874015748031,
                    "duration": 0.6000000000000014
                },
                {
                    "name": "F4",
                    "midi": 65,
                    "time": 61.79999999999993,
                    "velocity": 0.5905511811023622,
                    "duration": 0.6000000000000014
                },
                {
                    "name": "A#4",
                    "midi": 70,
                    "time": 62.399999999999935,
                    "velocity": 0.5354330708661418,
                    "duration": 0.29999999999999716
                },
                {
                    "name": "D#4",
                    "midi": 63,
                    "time": 62.399999999999935,
                    "velocity": 0.5354330708661418,
                    "duration": 0.29999999999999716
                },
                {
                    "name": "G4",
                    "midi": 67,
                    "time": 62.399999999999935,
                    "velocity": 0.5354330708661418,
                    "duration": 0.29999999999999716
                },
                {
                    "name": "D#5",
                    "midi": 75,
                    "time": 62.399999999999935,
                    "velocity": 0.6377952755905512,
                    "duration": 0.29999999999999716
                },
                {
                    "name": "D5",
                    "midi": 74,
                    "time": 62.69999999999993,
                    "velocity": 0.5590551181102362,
                    "duration": 0.29999999999999716
                },
                {
                    "name": "D4",
                    "midi": 62,
                    "time": 62.69999999999993,
                    "velocity": 0.47244094488188976,
                    "duration": 0.29999999999999716
                },
                {
                    "name": "C4",
                    "midi": 60,
                    "time": 62.99999999999993,
                    "velocity": 0.4881889763779528,
                    "duration": 0.29999999999999716
                },
                {
                    "name": "C5",
                    "midi": 72,
                    "time": 62.99999999999993,
                    "velocity": 0.5748031496062992,
                    "duration": 0.29999999999999716
                },
                {
                    "name": "F4",
                    "midi": 65,
                    "time": 62.99999999999993,
                    "velocity": 0.4881889763779528,
                    "duration": 0.29999999999999716
                },
                {
                    "name": "A4",
                    "midi": 69,
                    "time": 62.99999999999993,
                    "velocity": 0.4881889763779528,
                    "duration": 0.29999999999999716
                },
                {
                    "name": "A#4",
                    "midi": 70,
                    "time": 63.299999999999926,
                    "velocity": 0.5590551181102362,
                    "duration": 0.29999999999999716
                },
                {
                    "name": "D4",
                    "midi": 62,
                    "time": 63.299999999999926,
                    "velocity": 0.47244094488188976,
                    "duration": 0.29999999999999716
                },
                {
                    "name": "F4",
                    "midi": 65,
                    "time": 63.299999999999926,
                    "velocity": 0.47244094488188976,
                    "duration": 0.29999999999999716
                },
                {
                    "name": "C5",
                    "midi": 72,
                    "time": 63.59999999999992,
                    "velocity": 0.5905511811023622,
                    "duration": 0.5999999999999943
                },
                {
                    "name": "C4",
                    "midi": 60,
                    "time": 63.59999999999992,
                    "velocity": 0.49606299212598426,
                    "duration": 0.5999999999999943
                },
                {
                    "name": "F4",
                    "midi": 65,
                    "time": 63.59999999999992,
                    "velocity": 0.49606299212598426,
                    "duration": 0.5999999999999943
                },
                {
                    "name": "D5",
                    "midi": 74,
                    "time": 64.19999999999992,
                    "velocity": 0.7086614173228346,
                    "duration": 0.5999999999999943
                },
                {
                    "name": "F4",
                    "midi": 65,
                    "time": 64.19999999999992,
                    "velocity": 0.5984251968503937,
                    "duration": 0.5999999999999943
                },
                {
                    "name": "D4",
                    "midi": 62,
                    "time": 64.19999999999992,
                    "velocity": 0.5984251968503937,
                    "duration": 0.5999999999999943
                },
                {
                    "name": "C5",
                    "midi": 72,
                    "time": 64.79999999999991,
                    "velocity": 0.5826771653543307,
                    "duration": 0.5999999999999943
                },
                {
                    "name": "F5",
                    "midi": 77,
                    "time": 64.79999999999991,
                    "velocity": 0.6929133858267716,
                    "duration": 0.5999999999999943
                },
                {
                    "name": "A4",
                    "midi": 69,
                    "time": 64.79999999999991,
                    "velocity": 0.5826771653543307,
                    "duration": 0.5999999999999943
                },
                {
                    "name": "F4",
                    "midi": 65,
                    "time": 64.79999999999991,
                    "velocity": 0.5826771653543307,
                    "duration": 0.5999999999999943
                },
                {
                    "name": "D#5",
                    "midi": 75,
                    "time": 65.3999999999999,
                    "velocity": 0.6062992125984252,
                    "duration": 0.29999999999999716
                },
                {
                    "name": "G4",
                    "midi": 67,
                    "time": 65.3999999999999,
                    "velocity": 0.6062992125984252,
                    "duration": 0.29999999999999716
                },
                {
                    "name": "A#4",
                    "midi": 70,
                    "time": 65.3999999999999,
                    "velocity": 0.6062992125984252,
                    "duration": 0.29999999999999716
                },
                {
                    "name": "G5",
                    "midi": 79,
                    "time": 65.3999999999999,
                    "velocity": 0.7165354330708661,
                    "duration": 0.29999999999999716
                },
                {
                    "name": "A#5",
                    "midi": 82,
                    "time": 65.6999999999999,
                    "velocity": 0.6456692913385826,
                    "duration": 0.29999999999999716
                },
                {
                    "name": "A#4",
                    "midi": 70,
                    "time": 65.6999999999999,
                    "velocity": 0.5433070866141733,
                    "duration": 0.29999999999999716
                },
                {
                    "name": "F4",
                    "midi": 65,
                    "time": 65.9999999999999,
                    "velocity": 0.5826771653543307,
                    "duration": 0.5625
                },
                {
                    "name": "F5",
                    "midi": 77,
                    "time": 65.9999999999999,
                    "velocity": 0.6929133858267716,
                    "duration": 0.5625
                },
                {
                    "name": "G4",
                    "midi": 67,
                    "time": 66.5999999999999,
                    "velocity": 0.6062992125984252,
                    "duration": 0.5999999999999943
                },
                {
                    "name": "G5",
                    "midi": 79,
                    "time": 66.5999999999999,
                    "velocity": 0.7165354330708661,
                    "duration": 0.5999999999999943
                },
                {
                    "name": "F5",
                    "midi": 77,
                    "time": 67.19999999999989,
                    "velocity": 0.6929133858267716,
                    "duration": 0.5875000000000057
                },
                {
                    "name": "F4",
                    "midi": 65,
                    "time": 67.19999999999989,
                    "velocity": 0.5826771653543307,
                    "duration": 0.5875000000000057
                },
                {
                    "name": "G4",
                    "midi": 67,
                    "time": 67.7999999999999,
                    "velocity": 0.7322834645669292,
                    "duration": 0.5999999999999943
                },
                {
                    "name": "F4",
                    "midi": 65,
                    "time": 68.39999999999989,
                    "velocity": 0.7086614173228346,
                    "duration": 0.5999999999999943
                },
                {
                    "name": "C5",
                    "midi": 72,
                    "time": 68.99999999999989,
                    "velocity": 0.6062992125984252,
                    "duration": 0.29999999999999716
                },
                {
                    "name": "G4",
                    "midi": 67,
                    "time": 68.99999999999989,
                    "velocity": 0.6062992125984252,
                    "duration": 0.29999999999999716
                },
                {
                    "name": "E5",
                    "midi": 76,
                    "time": 68.99999999999989,
                    "velocity": 0.6062992125984252,
                    "duration": 0.29999999999999716
                },
                {
                    "name": "G5",
                    "midi": 79,
                    "time": 68.99999999999989,
                    "velocity": 0.7165354330708661,
                    "duration": 0.29999999999999716
                },
                {
                    "name": "A#4",
                    "midi": 70,
                    "time": 69.29999999999988,
                    "velocity": 0.5118110236220472,
                    "duration": 0.29999999999999716
                },
                {
                    "name": "A#5",
                    "midi": 82,
                    "time": 69.29999999999988,
                    "velocity": 0.6062992125984252,
                    "duration": 0.29999999999999716
                },
                {
                    "name": "F5",
                    "midi": 77,
                    "time": 69.59999999999988,
                    "velocity": 0.6692913385826772,
                    "duration": 0.5625
                },
                {
                    "name": "F4",
                    "midi": 65,
                    "time": 69.59999999999988,
                    "velocity": 0.5669291338582677,
                    "duration": 0.5625
                },
                {
                    "name": "G5",
                    "midi": 79,
                    "time": 70.19999999999987,
                    "velocity": 0.7244094488188977,
                    "duration": 0.5999999999999943
                },
                {
                    "name": "G4",
                    "midi": 67,
                    "time": 70.19999999999987,
                    "velocity": 0.6141732283464567,
                    "duration": 0.5999999999999943
                },
                {
                    "name": "F5",
                    "midi": 77,
                    "time": 70.79999999999987,
                    "velocity": 0.7086614173228346,
                    "duration": 0.5625
                },
                {
                    "name": "F4",
                    "midi": 65,
                    "time": 70.79999999999987,
                    "velocity": 0.5984251968503937,
                    "duration": 0.5625
                },
                {
                    "name": "A#3",
                    "midi": 58,
                    "time": 71.39999999999986,
                    "velocity": 0.5826771653543307,
                    "duration": 0.5999999999999943
                },
                {
                    "name": "D#4",
                    "midi": 63,
                    "time": 71.39999999999986,
                    "velocity": 0.5826771653543307,
                    "duration": 0.5999999999999943
                },
                {
                    "name": "G4",
                    "midi": 67,
                    "time": 71.39999999999986,
                    "velocity": 0.6929133858267716,
                    "duration": 0.5999999999999943
                },
                {
                    "name": "A3",
                    "midi": 57,
                    "time": 71.99999999999986,
                    "velocity": 0.5826771653543307,
                    "duration": 0.5999999999999943
                },
                {
                    "name": "C4",
                    "midi": 60,
                    "time": 71.99999999999986,
                    "velocity": 0.5826771653543307,
                    "duration": 0.5999999999999943
                },
                {
                    "name": "F4",
                    "midi": 65,
                    "time": 71.99999999999986,
                    "velocity": 0.6929133858267716,
                    "duration": 0.5999999999999943
                },
                {
                    "name": "A#3",
                    "midi": 58,
                    "time": 72.59999999999985,
                    "velocity": 0.6141732283464567,
                    "duration": 0.5999999999999943
                },
                {
                    "name": "F4",
                    "midi": 65,
                    "time": 72.59999999999985,
                    "velocity": 0.6141732283464567,
                    "duration": 0.5999999999999943
                },
                {
                    "name": "A#4",
                    "midi": 70,
                    "time": 72.59999999999985,
                    "velocity": 0.7244094488188977,
                    "duration": 0.5999999999999943
                },
                {
                    "name": "C4",
                    "midi": 60,
                    "time": 73.19999999999985,
                    "velocity": 0.5669291338582677,
                    "duration": 0.29999999999999716
                },
                {
                    "name": "C5",
                    "midi": 72,
                    "time": 73.19999999999985,
                    "velocity": 0.6692913385826772,
                    "duration": 0.29999999999999716
                },
                {
                    "name": "F4",
                    "midi": 65,
                    "time": 73.19999999999985,
                    "velocity": 0.5669291338582677,
                    "duration": 0.29999999999999716
                },
                {
                    "name": "A4",
                    "midi": 69,
                    "time": 73.19999999999985,
                    "velocity": 0.5669291338582677,
                    "duration": 0.29999999999999716
                },
                {
                    "name": "F4",
                    "midi": 65,
                    "time": 73.49999999999984,
                    "velocity": 0.5354330708661418,
                    "duration": 0.29999999999999716
                },
                {
                    "name": "F5",
                    "midi": 77,
                    "time": 73.49999999999984,
                    "velocity": 0.6299212598425197,
                    "duration": 0.29999999999999716
                },
                {
                    "name": "F4",
                    "midi": 65,
                    "time": 73.79999999999984,
                    "velocity": 0.5748031496062992,
                    "duration": 0.5999999999999943
                },
                {
                    "name": "D4",
                    "midi": 62,
                    "time": 73.79999999999984,
                    "velocity": 0.5748031496062992,
                    "duration": 0.5999999999999943
                },
                {
                    "name": "A#4",
                    "midi": 70,
                    "time": 73.79999999999984,
                    "velocity": 0.5748031496062992,
                    "duration": 0.5999999999999943
                },
                {
                    "name": "D5",
                    "midi": 74,
                    "time": 73.79999999999984,
                    "velocity": 0.6771653543307087,
                    "duration": 0.5999999999999943
                },
                {
                    "name": "C4",
                    "midi": 60,
                    "time": 74.39999999999984,
                    "velocity": 0.5669291338582677,
                    "duration": 0.29999999999999716
                },
                {
                    "name": "C5",
                    "midi": 72,
                    "time": 74.39999999999984,
                    "velocity": 0.6692913385826772,
                    "duration": 0.29999999999999716
                },
                {
                    "name": "F4",
                    "midi": 65,
                    "time": 74.39999999999984,
                    "velocity": 0.5669291338582677,
                    "duration": 0.29999999999999716
                },
                {
                    "name": "A4",
                    "midi": 69,
                    "time": 74.39999999999984,
                    "velocity": 0.5669291338582677,
                    "duration": 0.29999999999999716
                },
                {
                    "name": "F5",
                    "midi": 77,
                    "time": 74.69999999999983,
                    "velocity": 0.6141732283464567,
                    "duration": 0.29999999999999716
                },
                {
                    "name": "F4",
                    "midi": 65,
                    "time": 74.69999999999983,
                    "velocity": 0.5196850393700787,
                    "duration": 0.29999999999999716
                },
                {
                    "name": "A#4",
                    "midi": 70,
                    "time": 74.99999999999983,
                    "velocity": 0.5669291338582677,
                    "duration": 0.5999999999999943
                },
                {
                    "name": "D5",
                    "midi": 74,
                    "time": 74.99999999999983,
                    "velocity": 0.6692913385826772,
                    "duration": 0.5999999999999943
                },
                {
                    "name": "F4",
                    "midi": 65,
                    "time": 74.99999999999983,
                    "velocity": 0.5669291338582677,
                    "duration": 0.5999999999999943
                },
                {
                    "name": "D4",
                    "midi": 62,
                    "time": 74.99999999999983,
                    "velocity": 0.5669291338582677,
                    "duration": 0.5999999999999943
                },
                {
                    "name": "F4",
                    "midi": 65,
                    "time": 75.59999999999982,
                    "velocity": 0.5669291338582677,
                    "duration": 0.5999999999999943
                },
                {
                    "name": "A#3",
                    "midi": 58,
                    "time": 75.59999999999982,
                    "velocity": 0.5669291338582677,
                    "duration": 0.5999999999999943
                },
                {
                    "name": "D4",
                    "midi": 62,
                    "time": 75.59999999999982,
                    "velocity": 0.5669291338582677,
                    "duration": 0.5999999999999943
                },
                {
                    "name": "A#4",
                    "midi": 70,
                    "time": 75.59999999999982,
                    "velocity": 0.6692913385826772,
                    "duration": 0.5999999999999943
                },
                {
                    "name": "D#4",
                    "midi": 63,
                    "time": 76.19999999999982,
                    "velocity": 0.5590551181102362,
                    "duration": 0.5999999999999943
                },
                {
                    "name": "C5",
                    "midi": 72,
                    "time": 76.19999999999982,
                    "velocity": 0.6614173228346457,
                    "duration": 0.5999999999999943
                },
                {
                    "name": "G4",
                    "midi": 67,
                    "time": 76.19999999999982,
                    "velocity": 0.5590551181102362,
                    "duration": 0.5999999999999943
                },
                {
                    "name": "C4",
                    "midi": 60,
                    "time": 76.19999999999982,
                    "velocity": 0.5590551181102362,
                    "duration": 0.5999999999999943
                },
                {
                    "name": "G3",
                    "midi": 55,
                    "time": 76.79999999999981,
                    "velocity": 0.5196850393700787,
                    "duration": 0.5999999999999943
                },
                {
                    "name": "G4",
                    "midi": 67,
                    "time": 76.79999999999981,
                    "velocity": 0.6141732283464567,
                    "duration": 0.5999999999999943
                },
                {
                    "name": "C4",
                    "midi": 60,
                    "time": 76.79999999999981,
                    "velocity": 0.5196850393700787,
                    "duration": 0.5999999999999943
                },
                {
                    "name": "E4",
                    "midi": 64,
                    "time": 76.79999999999981,
                    "velocity": 0.5196850393700787,
                    "duration": 0.5999999999999943
                },
                {
                    "name": "A3",
                    "midi": 57,
                    "time": 77.3999999999998,
                    "velocity": 0.5196850393700787,
                    "duration": 0.5625
                },
                {
                    "name": "C4",
                    "midi": 60,
                    "time": 77.3999999999998,
                    "velocity": 0.5196850393700787,
                    "duration": 0.5625
                },
                {
                    "name": "F4",
                    "midi": 65,
                    "time": 77.3999999999998,
                    "velocity": 0.6141732283464567,
                    "duration": 0.5625
                },
                {
                    "name": "G3",
                    "midi": 55,
                    "time": 77.9999999999998,
                    "velocity": 0.6141732283464567,
                    "duration": 0.5999999999999943
                },
                {
                    "name": "D4",
                    "midi": 62,
                    "time": 77.9999999999998,
                    "velocity": 0.6141732283464567,
                    "duration": 0.5999999999999943
                },
                {
                    "name": "G4",
                    "midi": 67,
                    "time": 77.9999999999998,
                    "velocity": 0.7244094488188977,
                    "duration": 0.5999999999999943
                },
                {
                    "name": "A3",
                    "midi": 57,
                    "time": 78.5999999999998,
                    "velocity": 0.6062992125984252,
                    "duration": 0.5999999999999943
                },
                {
                    "name": "C4",
                    "midi": 60,
                    "time": 78.5999999999998,
                    "velocity": 0.6062992125984252,
                    "duration": 0.5999999999999943
                },
                {
                    "name": "F4",
                    "midi": 65,
                    "time": 78.5999999999998,
                    "velocity": 0.7165354330708661,
                    "duration": 0.5999999999999943
                },
                {
                    "name": "A#3",
                    "midi": 58,
                    "time": 79.19999999999979,
                    "velocity": 0.6062992125984252,
                    "duration": 0.5999999999999943
                },
                {
                    "name": "A#4",
                    "midi": 70,
                    "time": 79.19999999999979,
                    "velocity": 0.7165354330708661,
                    "duration": 0.5999999999999943
                },
                {
                    "name": "F4",
                    "midi": 65,
                    "time": 79.19999999999979,
                    "velocity": 0.6062992125984252,
                    "duration": 0.5999999999999943
                },
                {
                    "name": "F4",
                    "midi": 65,
                    "time": 79.79999999999978,
                    "velocity": 0.5669291338582677,
                    "duration": 0.29999999999999716
                },
                {
                    "name": "A4",
                    "midi": 69,
                    "time": 79.79999999999978,
                    "velocity": 0.5669291338582677,
                    "duration": 0.29999999999999716
                },
                {
                    "name": "C4",
                    "midi": 60,
                    "time": 79.79999999999978,
                    "velocity": 0.5669291338582677,
                    "duration": 0.29999999999999716
                },
                {
                    "name": "C5",
                    "midi": 72,
                    "time": 79.79999999999978,
                    "velocity": 0.6692913385826772,
                    "duration": 0.29999999999999716
                },
                {
                    "name": "F5",
                    "midi": 77,
                    "time": 80.09999999999978,
                    "velocity": 0.6141732283464567,
                    "duration": 0.29999999999999716
                },
                {
                    "name": "F4",
                    "midi": 65,
                    "time": 80.09999999999978,
                    "velocity": 0.5196850393700787,
                    "duration": 0.29999999999999716
                },
                {
                    "name": "A#4",
                    "midi": 70,
                    "time": 80.39999999999978,
                    "velocity": 0.5669291338582677,
                    "duration": 0.5999999999999943
                },
                {
                    "name": "D5",
                    "midi": 74,
                    "time": 80.39999999999978,
                    "velocity": 0.6692913385826772,
                    "duration": 0.5999999999999943
                },
                {
                    "name": "F4",
                    "midi": 65,
                    "time": 80.39999999999978,
                    "velocity": 0.5669291338582677,
                    "duration": 0.5999999999999943
                },
                {
                    "name": "D4",
                    "midi": 62,
                    "time": 80.39999999999978,
                    "velocity": 0.5669291338582677,
                    "duration": 0.5999999999999943
                },
                {
                    "name": "D4",
                    "midi": 62,
                    "time": 80.99999999999977,
                    "velocity": 0.5984251968503937,
                    "duration": 0.5999999999999943
                },
                {
                    "name": "A#3",
                    "midi": 58,
                    "time": 80.99999999999977,
                    "velocity": 0.5984251968503937,
                    "duration": 0.5999999999999943
                },
                {
                    "name": "A#4",
                    "midi": 70,
                    "time": 80.99999999999977,
                    "velocity": 0.7086614173228346,
                    "duration": 0.5999999999999943
                },
                {
                    "name": "G4",
                    "midi": 67,
                    "time": 80.99999999999977,
                    "velocity": 0.5984251968503937,
                    "duration": 0.5999999999999943
                },
                {
                    "name": "G4",
                    "midi": 67,
                    "time": 81.59999999999977,
                    "velocity": 0.6141732283464567,
                    "duration": 0.5999999999999943
                },
                {
                    "name": "D#5",
                    "midi": 75,
                    "time": 81.59999999999977,
                    "velocity": 0.7244094488188977,
                    "duration": 0.5999999999999943
                },
                {
                    "name": "C5",
                    "midi": 72,
                    "time": 81.59999999999977,
                    "velocity": 0.6141732283464567,
                    "duration": 0.5999999999999943
                },
                {
                    "name": "D#4",
                    "midi": 63,
                    "time": 81.59999999999977,
                    "velocity": 0.6141732283464567,
                    "duration": 0.5999999999999943
                },
                {
                    "name": "C4",
                    "midi": 60,
                    "time": 82.19999999999976,
                    "velocity": 0.5669291338582677,
                    "duration": 0.5999999999999943
                },
                {
                    "name": "C5",
                    "midi": 72,
                    "time": 82.19999999999976,
                    "velocity": 0.6692913385826772,
                    "duration": 0.5999999999999943
                },
                {
                    "name": "F4",
                    "midi": 65,
                    "time": 82.19999999999976,
                    "velocity": 0.5669291338582677,
                    "duration": 0.5999999999999943
                },
                {
                    "name": "A4",
                    "midi": 69,
                    "time": 82.19999999999976,
                    "velocity": 0.5669291338582677,
                    "duration": 0.5999999999999943
                },
                {
                    "name": "A#4",
                    "midi": 70,
                    "time": 82.79999999999976,
                    "velocity": 0.6771653543307087,
                    "duration": 0.5999999999999943
                },
                {
                    "name": "D4",
                    "midi": 62,
                    "time": 82.79999999999976,
                    "velocity": 0.5748031496062992,
                    "duration": 0.5999999999999943
                },
                {
                    "name": "F4",
                    "midi": 65,
                    "time": 82.79999999999976,
                    "velocity": 0.5748031496062992,
                    "duration": 0.5999999999999943
                },
                {
                    "name": "B3",
                    "midi": 59,
                    "time": 83.39999999999975,
                    "velocity": 0.7244094488188977,
                    "duration": 0.17500000000001137
                },
                {
                    "name": "D#3",
                    "midi": 51,
                    "time": 83.54999999999976,
                    "velocity": 0.6535433070866141,
                    "duration": 0.17500000000001137
                },
                {
                    "name": "D3",
                    "midi": 50,
                    "time": 83.69999999999976,
                    "velocity": 0.5826771653543307,
                    "duration": 0.17500000000001137
                },
                {
                    "name": "B3",
                    "midi": 59,
                    "time": 83.84999999999977,
                    "velocity": 0.6850393700787402,
                    "duration": 0.17500000000001137
                },
                {
                    "name": "A#3",
                    "midi": 58,
                    "time": 83.99999999999977,
                    "velocity": 0.6692913385826772,
                    "duration": 0.17500000000001137
                },
                {
                    "name": "D3",
                    "midi": 50,
                    "time": 84.14999999999978,
                    "velocity": 0.6377952755905512,
                    "duration": 0.17500000000001137
                },
                {
                    "name": "F#3",
                    "midi": 54,
                    "time": 84.29999999999978,
                    "velocity": 0.7165354330708661,
                    "duration": 1.6500000000000057
                },
                {
                    "name": "B3",
                    "midi": 59,
                    "time": 86.0999999999998,
                    "velocity": 0.4330708661417323,
                    "duration": 0.17500000000001137
                },
                {
                    "name": "D#3",
                    "midi": 51,
                    "time": 86.2499999999998,
                    "velocity": 0.3858267716535433,
                    "duration": 0.17500000000001137
                },
                {
                    "name": "D3",
                    "midi": 50,
                    "time": 86.3999999999998,
                    "velocity": 0.3464566929133858,
                    "duration": 0.17500000000001137
                },
                {
                    "name": "B3",
                    "midi": 59,
                    "time": 86.54999999999981,
                    "velocity": 0.4094488188976378,
                    "duration": 0.17500000000001137
                },
                {
                    "name": "A#3",
                    "midi": 58,
                    "time": 86.69999999999982,
                    "velocity": 0.3937007874015748,
                    "duration": 0.17500000000001137
                },
                {
                    "name": "D3",
                    "midi": 50,
                    "time": 86.84999999999982,
                    "velocity": 0.3464566929133858,
                    "duration": 0.17500000000001137
                },
                {
                    "name": "F#3",
                    "midi": 54,
                    "time": 86.99999999999983,
                    "velocity": 0.3937007874015748,
                    "duration": 1.6500000000000057
                },
                {
                    "name": "B3",
                    "midi": 59,
                    "time": 88.79999999999984,
                    "velocity": 0.7244094488188977,
                    "duration": 0.17500000000001137
                },
                {
                    "name": "D#3",
                    "midi": 51,
                    "time": 88.94999999999985,
                    "velocity": 0.6535433070866141,
                    "duration": 0.17500000000001137
                },
                {
                    "name": "D3",
                    "midi": 50,
                    "time": 89.09999999999985,
                    "velocity": 0.5748031496062992,
                    "duration": 0.17500000000001137
                },
                {
                    "name": "B3",
                    "midi": 59,
                    "time": 89.24999999999986,
                    "velocity": 0.6850393700787402,
                    "duration": 0.17500000000001137
                },
                {
                    "name": "A#3",
                    "midi": 58,
                    "time": 89.39999999999986,
                    "velocity": 0.6299212598425197,
                    "duration": 0.17500000000001137
                },
                {
                    "name": "C#3",
                    "midi": 49,
                    "time": 89.54999999999987,
                    "velocity": 0.5826771653543307,
                    "duration": 0.17500000000001137
                },
                {
                    "name": "E3",
                    "midi": 52,
                    "time": 89.69999999999987,
                    "velocity": 0.6929133858267716,
                    "duration": 0.15000000000000568
                },
                {
                    "name": "A#3",
                    "midi": 58,
                    "time": 89.99999999999989,
                    "velocity": 0.6062992125984252,
                    "duration": 0.15000000000000568
                },
                {
                    "name": "B2",
                    "midi": 47,
                    "time": 90.14999999999989,
                    "velocity": 0.5826771653543307,
                    "duration": 0.15000000000000568
                },
                {
                    "name": "D#3",
                    "midi": 51,
                    "time": 90.2999999999999,
                    "velocity": 0.6299212598425197,
                    "duration": 0.15000000000000568
                },
                {
                    "name": "A#3",
                    "midi": 58,
                    "time": 90.59999999999991,
                    "velocity": 0.6141732283464567,
                    "duration": 0.15000000000000568
                },
                {
                    "name": "A#2",
                    "midi": 46,
                    "time": 90.74999999999991,
                    "velocity": 0.5905511811023622,
                    "duration": 0.15000000000000568
                },
                {
                    "name": "D3",
                    "midi": 50,
                    "time": 90.89999999999992,
                    "velocity": 0.7007874015748031,
                    "duration": 0.22499999999999432
                },
                {
                    "name": "A#2",
                    "midi": 46,
                    "time": 91.19999999999992,
                    "velocity": 0.6692913385826772,
                    "duration": 0.15000000000000568
                },
                {
                    "name": "A#3",
                    "midi": 58,
                    "time": 91.49999999999993,
                    "velocity": 0.7480314960629921,
                    "duration": 0.22499999999999432
                },
                {
                    "name": "A#4",
                    "midi": 70,
                    "time": 91.49999999999993,
                    "velocity": 0.7480314960629921,
                    "duration": 0.22499999999999432
                },
                {
                    "name": "A#6",
                    "midi": 94,
                    "time": 91.79999999999993,
                    "velocity": 0.8031496062992126,
                    "duration": 0.29999999999999716
                },
                {
                    "name": "A#5",
                    "midi": 82,
                    "time": 91.79999999999993,
                    "velocity": 0.8031496062992126,
                    "duration": 0.29999999999999716
                },
                {
                    "name": "B3",
                    "midi": 59,
                    "time": 92.39999999999992,
                    "velocity": 0.7244094488188977,
                    "duration": 0.17500000000001137
                },
                {
                    "name": "D#3",
                    "midi": 51,
                    "time": 92.54999999999993,
                    "velocity": 0.6535433070866141,
                    "duration": 0.17500000000001137
                },
                {
                    "name": "D3",
                    "midi": 50,
                    "time": 92.69999999999993,
                    "velocity": 0.5984251968503937,
                    "duration": 0.17500000000001137
                },
                {
                    "name": "B3",
                    "midi": 59,
                    "time": 92.84999999999994,
                    "velocity": 0.6850393700787402,
                    "duration": 0.17500000000001137
                },
                {
                    "name": "A#3",
                    "midi": 58,
                    "time": 92.99999999999994,
                    "velocity": 0.6377952755905512,
                    "duration": 0.17500000000001137
                },
                {
                    "name": "D3",
                    "midi": 50,
                    "time": 93.14999999999995,
                    "velocity": 0.6141732283464567,
                    "duration": 0.17500000000001137
                },
                {
                    "name": "F#3",
                    "midi": 54,
                    "time": 93.29999999999995,
                    "velocity": 0.7165354330708661,
                    "duration": 1.6500000000000057
                },
                {
                    "name": "B3",
                    "midi": 59,
                    "time": 95.09999999999997,
                    "velocity": 0.7244094488188977,
                    "duration": 0.17500000000001137
                },
                {
                    "name": "D#3",
                    "midi": 51,
                    "time": 95.24999999999997,
                    "velocity": 0.6535433070866141,
                    "duration": 0.17500000000001137
                },
                {
                    "name": "D3",
                    "midi": 50,
                    "time": 95.39999999999998,
                    "velocity": 0.5905511811023622,
                    "duration": 0.17500000000001137
                },
                {
                    "name": "B3",
                    "midi": 59,
                    "time": 95.54999999999998,
                    "velocity": 0.6692913385826772,
                    "duration": 0.17500000000001137
                },
                {
                    "name": "A#3",
                    "midi": 58,
                    "time": 95.69999999999999,
                    "velocity": 0.6535433070866141,
                    "duration": 0.17500000000001137
                },
                {
                    "name": "C#3",
                    "midi": 49,
                    "time": 95.85,
                    "velocity": 0.5905511811023622,
                    "duration": 0.17500000000001137
                },
                {
                    "name": "E3",
                    "midi": 52,
                    "time": 96,
                    "velocity": 0.6929133858267716,
                    "duration": 0.15000000000000568
                },
                {
                    "name": "A#3",
                    "midi": 58,
                    "time": 96.30000000000001,
                    "velocity": 0.6062992125984252,
                    "duration": 0.15000000000000568
                },
                {
                    "name": "B2",
                    "midi": 47,
                    "time": 96.45000000000002,
                    "velocity": 0.5826771653543307,
                    "duration": 0.15000000000000568
                },
                {
                    "name": "D#3",
                    "midi": 51,
                    "time": 96.60000000000002,
                    "velocity": 0.6299212598425197,
                    "duration": 0.15000000000000568
                },
                {
                    "name": "A#3",
                    "midi": 58,
                    "time": 96.90000000000003,
                    "velocity": 0.6141732283464567,
                    "duration": 0.15000000000000568
                },
                {
                    "name": "A#2",
                    "midi": 46,
                    "time": 97.05000000000004,
                    "velocity": 0.5905511811023622,
                    "duration": 0.15000000000000568
                },
                {
                    "name": "D3",
                    "midi": 50,
                    "time": 97.20000000000005,
                    "velocity": 0.6850393700787402,
                    "duration": 0.22499999999999432
                },
                {
                    "name": "A#2",
                    "midi": 46,
                    "time": 97.50000000000004,
                    "velocity": 0.6692913385826772,
                    "duration": 0.15000000000000568
                },
                {
                    "name": "A#3",
                    "midi": 58,
                    "time": 97.80000000000005,
                    "velocity": 0.7795275590551181,
                    "duration": 0.22499999999999432
                },
                {
                    "name": "A#4",
                    "midi": 70,
                    "time": 97.80000000000005,
                    "velocity": 0.7795275590551181,
                    "duration": 0.22499999999999432
                },
                {
                    "name": "A#5",
                    "midi": 82,
                    "time": 98.10000000000005,
                    "velocity": 0.7401574803149606,
                    "duration": 0.22499999999999432
                },
                {
                    "name": "A#4",
                    "midi": 70,
                    "time": 98.10000000000005,
                    "velocity": 0.7401574803149606,
                    "duration": 0.22499999999999432
                },
                {
                    "name": "A#6",
                    "midi": 94,
                    "time": 98.40000000000005,
                    "velocity": 0.8031496062992126,
                    "duration": 0.29999999999999716
                },
                {
                    "name": "A#5",
                    "midi": 82,
                    "time": 98.40000000000005,
                    "velocity": 0.8031496062992126,
                    "duration": 0.29999999999999716
                },
                {
                    "name": "F6",
                    "midi": 89,
                    "time": 99.60000000000005,
                    "velocity": 0.6220472440944882,
                    "duration": 0.22499999999999432
                },
                {
                    "name": "A#5",
                    "midi": 82,
                    "time": 99.60000000000005,
                    "velocity": 0.5275590551181102,
                    "duration": 0.22499999999999432
                },
                {
                    "name": "F#5",
                    "midi": 78,
                    "time": 99.60000000000005,
                    "velocity": 0.5275590551181102,
                    "duration": 0.22499999999999432
                },
                {
                    "name": "D#6",
                    "midi": 87,
                    "time": 99.90000000000005,
                    "velocity": 0.5669291338582677,
                    "duration": 1.0499999999999972
                },
                {
                    "name": "A#5",
                    "midi": 82,
                    "time": 99.90000000000005,
                    "velocity": 0.48031496062992124,
                    "duration": 1.0499999999999972
                },
                {
                    "name": "F#5",
                    "midi": 78,
                    "time": 99.90000000000005,
                    "velocity": 0.48031496062992124,
                    "duration": 1.0499999999999972
                },
                {
                    "name": "C#6",
                    "midi": 85,
                    "time": 101.40000000000005,
                    "velocity": 0.5905511811023622,
                    "duration": 0.22499999999999432
                },
                {
                    "name": "F#5",
                    "midi": 78,
                    "time": 101.40000000000005,
                    "velocity": 0.49606299212598426,
                    "duration": 0.22499999999999432
                },
                {
                    "name": "D#5",
                    "midi": 75,
                    "time": 101.40000000000005,
                    "velocity": 0.49606299212598426,
                    "duration": 0.22499999999999432
                },
                {
                    "name": "D#5",
                    "midi": 75,
                    "time": 101.70000000000005,
                    "velocity": 0.47244094488188976,
                    "duration": 0.45000000000000284
                },
                {
                    "name": "F#5",
                    "midi": 78,
                    "time": 101.70000000000005,
                    "velocity": 0.47244094488188976,
                    "duration": 0.45000000000000284
                },
                {
                    "name": "C6",
                    "midi": 84,
                    "time": 101.70000000000005,
                    "velocity": 0.5590551181102362,
                    "duration": 0.45000000000000284
                },
                {
                    "name": "B4",
                    "midi": 71,
                    "time": 102.30000000000005,
                    "velocity": 0.4881889763779528,
                    "duration": 0.22499999999999432
                },
                {
                    "name": "D#5",
                    "midi": 75,
                    "time": 102.30000000000005,
                    "velocity": 0.4881889763779528,
                    "duration": 0.22499999999999432
                },
                {
                    "name": "G#5",
                    "midi": 80,
                    "time": 102.30000000000005,
                    "velocity": 0.5826771653543307,
                    "duration": 0.22499999999999432
                },
                {
                    "name": "B4",
                    "midi": 71,
                    "time": 102.60000000000005,
                    "velocity": 0.4645669291338583,
                    "duration": 0.45000000000000284
                },
                {
                    "name": "D#5",
                    "midi": 75,
                    "time": 102.60000000000005,
                    "velocity": 0.4645669291338583,
                    "duration": 0.45000000000000284
                },
                {
                    "name": "F#5",
                    "midi": 78,
                    "time": 102.60000000000005,
                    "velocity": 0.5511811023622047,
                    "duration": 0.45000000000000284
                },
                {
                    "name": "F#4",
                    "midi": 66,
                    "time": 103.20000000000006,
                    "velocity": 0.4566929133858268,
                    "duration": 0.22499999999999432
                },
                {
                    "name": "A#4",
                    "midi": 70,
                    "time": 103.20000000000006,
                    "velocity": 0.4566929133858268,
                    "duration": 0.22499999999999432
                },
                {
                    "name": "F5",
                    "midi": 77,
                    "time": 103.20000000000006,
                    "velocity": 0.5433070866141733,
                    "duration": 0.22499999999999432
                },
                {
                    "name": "F#4",
                    "midi": 66,
                    "time": 103.50000000000006,
                    "velocity": 0.4409448818897638,
                    "duration": 1.0499999999999972
                },
                {
                    "name": "A#4",
                    "midi": 70,
                    "time": 103.50000000000006,
                    "velocity": 0.4409448818897638,
                    "duration": 1.0499999999999972
                },
                {
                    "name": "D#5",
                    "midi": 75,
                    "time": 103.50000000000006,
                    "velocity": 0.5275590551181102,
                    "duration": 1.0499999999999972
                },
                {
                    "name": "D#4",
                    "midi": 63,
                    "time": 105.00000000000006,
                    "velocity": 0.4409448818897638,
                    "duration": 0.22499999999999432
                },
                {
                    "name": "F#4",
                    "midi": 66,
                    "time": 105.00000000000006,
                    "velocity": 0.4409448818897638,
                    "duration": 0.22499999999999432
                },
                {
                    "name": "C#5",
                    "midi": 73,
                    "time": 105.00000000000006,
                    "velocity": 0.5196850393700787,
                    "duration": 0.22499999999999432
                },
                {
                    "name": "D#4",
                    "midi": 63,
                    "time": 105.30000000000005,
                    "velocity": 0.4015748031496063,
                    "duration": 0.45000000000000284
                },
                {
                    "name": "F#4",
                    "midi": 66,
                    "time": 105.30000000000005,
                    "velocity": 0.4015748031496063,
                    "duration": 0.45000000000000284
                },
                {
                    "name": "C5",
                    "midi": 72,
                    "time": 105.30000000000005,
                    "velocity": 0.47244094488188976,
                    "duration": 0.45000000000000284
                },
                {
                    "name": "B3",
                    "midi": 59,
                    "time": 105.90000000000006,
                    "velocity": 0.4015748031496063,
                    "duration": 0.22499999999999432
                },
                {
                    "name": "D#4",
                    "midi": 63,
                    "time": 105.90000000000006,
                    "velocity": 0.4015748031496063,
                    "duration": 0.22499999999999432
                },
                {
                    "name": "G#4",
                    "midi": 68,
                    "time": 105.90000000000006,
                    "velocity": 0.48031496062992124,
                    "duration": 0.22499999999999432
                },
                {
                    "name": "B3",
                    "midi": 59,
                    "time": 106.20000000000006,
                    "velocity": 0.36220472440944884,
                    "duration": 0.45000000000000284
                },
                {
                    "name": "D#4",
                    "midi": 63,
                    "time": 106.20000000000006,
                    "velocity": 0.36220472440944884,
                    "duration": 0.45000000000000284
                },
                {
                    "name": "F#4",
                    "midi": 66,
                    "time": 106.20000000000006,
                    "velocity": 0.4330708661417323,
                    "duration": 0.45000000000000284
                },
                {
                    "name": "B3",
                    "midi": 59,
                    "time": 107.02500000000006,
                    "velocity": 0.5669291338582677,
                    "duration": 0.07500000000000284
                },
                {
                    "name": "A#3",
                    "midi": 58,
                    "time": 107.10000000000007,
                    "velocity": 0.7874015748031497,
                    "duration": 0.15000000000000568
                },
                {
                    "name": "B2",
                    "midi": 47,
                    "time": 107.32500000000007,
                    "velocity": 0.5433070866141733,
                    "duration": 0.07500000000000284
                },
                {
                    "name": "A#2",
                    "midi": 46,
                    "time": 107.40000000000008,
                    "velocity": 0.7401574803149606,
                    "duration": 0.15000000000000568
                },
                {
                    "name": "F6",
                    "midi": 89,
                    "time": 108.60000000000008,
                    "velocity": 0.5039370078740157,
                    "duration": 0.22499999999999432
                },
                {
                    "name": "A#5",
                    "midi": 82,
                    "time": 108.60000000000008,
                    "velocity": 0.4251968503937008,
                    "duration": 0.22499999999999432
                },
                {
                    "name": "F#5",
                    "midi": 78,
                    "time": 108.60000000000008,
                    "velocity": 0.4251968503937008,
                    "duration": 0.22499999999999432
                },
                {
                    "name": "D#6",
                    "midi": 87,
                    "time": 108.90000000000008,
                    "velocity": 0.4645669291338583,
                    "duration": 1.0499999999999972
                },
                {
                    "name": "A#5",
                    "midi": 82,
                    "time": 108.90000000000008,
                    "velocity": 0.3937007874015748,
                    "duration": 1.0499999999999972
                },
                {
                    "name": "F#5",
                    "midi": 78,
                    "time": 108.90000000000008,
                    "velocity": 0.3937007874015748,
                    "duration": 1.0499999999999972
                },
                {
                    "name": "C#6",
                    "midi": 85,
                    "time": 110.40000000000008,
                    "velocity": 0.4881889763779528,
                    "duration": 0.22499999999999432
                },
                {
                    "name": "F#5",
                    "midi": 78,
                    "time": 110.40000000000008,
                    "velocity": 0.4094488188976378,
                    "duration": 0.22499999999999432
                },
                {
                    "name": "D#5",
                    "midi": 75,
                    "time": 110.40000000000008,
                    "velocity": 0.4094488188976378,
                    "duration": 0.22499999999999432
                },
                {
                    "name": "D#5",
                    "midi": 75,
                    "time": 110.70000000000007,
                    "velocity": 0.3858267716535433,
                    "duration": 0.45000000000000284
                },
                {
                    "name": "F#5",
                    "midi": 78,
                    "time": 110.70000000000007,
                    "velocity": 0.3858267716535433,
                    "duration": 0.45000000000000284
                },
                {
                    "name": "C6",
                    "midi": 84,
                    "time": 110.70000000000007,
                    "velocity": 0.4566929133858268,
                    "duration": 0.45000000000000284
                },
                {
                    "name": "B4",
                    "midi": 71,
                    "time": 111.30000000000008,
                    "velocity": 0.4015748031496063,
                    "duration": 0.22499999999999432
                },
                {
                    "name": "D#5",
                    "midi": 75,
                    "time": 111.30000000000008,
                    "velocity": 0.4015748031496063,
                    "duration": 0.22499999999999432
                },
                {
                    "name": "G#5",
                    "midi": 80,
                    "time": 111.30000000000008,
                    "velocity": 0.48031496062992124,
                    "duration": 0.22499999999999432
                },
                {
                    "name": "B4",
                    "midi": 71,
                    "time": 111.60000000000008,
                    "velocity": 0.3779527559055118,
                    "duration": 0.45000000000000284
                },
                {
                    "name": "D#5",
                    "midi": 75,
                    "time": 111.60000000000008,
                    "velocity": 0.3779527559055118,
                    "duration": 0.45000000000000284
                },
                {
                    "name": "F#5",
                    "midi": 78,
                    "time": 111.60000000000008,
                    "velocity": 0.44881889763779526,
                    "duration": 0.45000000000000284
                },
                {
                    "name": "F#4",
                    "midi": 66,
                    "time": 112.20000000000009,
                    "velocity": 0.3700787401574803,
                    "duration": 0.22499999999999432
                },
                {
                    "name": "A#4",
                    "midi": 70,
                    "time": 112.20000000000009,
                    "velocity": 0.3700787401574803,
                    "duration": 0.22499999999999432
                },
                {
                    "name": "F5",
                    "midi": 77,
                    "time": 112.20000000000009,
                    "velocity": 0.4409448818897638,
                    "duration": 0.22499999999999432
                },
                {
                    "name": "F#4",
                    "midi": 66,
                    "time": 112.50000000000009,
                    "velocity": 0.3543307086614173,
                    "duration": 1.0499999999999972
                },
                {
                    "name": "A#4",
                    "midi": 70,
                    "time": 112.50000000000009,
                    "velocity": 0.3543307086614173,
                    "duration": 1.0499999999999972
                },
                {
                    "name": "D#5",
                    "midi": 75,
                    "time": 112.50000000000009,
                    "velocity": 0.4251968503937008,
                    "duration": 1.0499999999999972
                },
                {
                    "name": "D#4",
                    "midi": 63,
                    "time": 114.00000000000009,
                    "velocity": 0.3543307086614173,
                    "duration": 0.22499999999999432
                },
                {
                    "name": "F#4",
                    "midi": 66,
                    "time": 114.00000000000009,
                    "velocity": 0.3543307086614173,
                    "duration": 0.22499999999999432
                },
                {
                    "name": "C#5",
                    "midi": 73,
                    "time": 114.00000000000009,
                    "velocity": 0.4251968503937008,
                    "duration": 0.22499999999999432
                },
                {
                    "name": "D#4",
                    "midi": 63,
                    "time": 114.30000000000008,
                    "velocity": 0.3228346456692913,
                    "duration": 0.45000000000000284
                },
                {
                    "name": "F#4",
                    "midi": 66,
                    "time": 114.30000000000008,
                    "velocity": 0.3228346456692913,
                    "duration": 0.45000000000000284
                },
                {
                    "name": "C5",
                    "midi": 72,
                    "time": 114.30000000000008,
                    "velocity": 0.3858267716535433,
                    "duration": 0.45000000000000284
                },
                {
                    "name": "B3",
                    "midi": 59,
                    "time": 114.90000000000009,
                    "velocity": 0.33070866141732286,
                    "duration": 0.22499999999999432
                },
                {
                    "name": "D#4",
                    "midi": 63,
                    "time": 114.90000000000009,
                    "velocity": 0.33070866141732286,
                    "duration": 0.22499999999999432
                },
                {
                    "name": "G#4",
                    "midi": 68,
                    "time": 114.90000000000009,
                    "velocity": 0.3937007874015748,
                    "duration": 0.22499999999999432
                },
                {
                    "name": "B3",
                    "midi": 59,
                    "time": 115.20000000000009,
                    "velocity": 0.2992125984251969,
                    "duration": 0.45000000000000284
                },
                {
                    "name": "D#4",
                    "midi": 63,
                    "time": 115.20000000000009,
                    "velocity": 0.2992125984251969,
                    "duration": 0.45000000000000284
                },
                {
                    "name": "F#4",
                    "midi": 66,
                    "time": 115.20000000000009,
                    "velocity": 0.3543307086614173,
                    "duration": 0.45000000000000284
                },
                {
                    "name": "B3",
                    "midi": 59,
                    "time": 116.02500000000009,
                    "velocity": 0.5196850393700787,
                    "duration": 0.07500000000000284
                },
                {
                    "name": "A#3",
                    "midi": 58,
                    "time": 116.1000000000001,
                    "velocity": 0.7086614173228346,
                    "duration": 0.15000000000000568
                },
                {
                    "name": "B2",
                    "midi": 47,
                    "time": 116.3250000000001,
                    "velocity": 0.49606299212598426,
                    "duration": 0.07500000000000284
                },
                {
                    "name": "A#2",
                    "midi": 46,
                    "time": 116.4000000000001,
                    "velocity": 0.6614173228346457,
                    "duration": 0.15000000000000568
                },
                {
                    "name": "B3",
                    "midi": 59,
                    "time": 117.60000000000011,
                    "velocity": 0.7244094488188977,
                    "duration": 0.17500000000001137
                },
                {
                    "name": "D#3",
                    "midi": 51,
                    "time": 117.75000000000011,
                    "velocity": 0.6535433070866141,
                    "duration": 0.17500000000001137
                },
                {
                    "name": "D3",
                    "midi": 50,
                    "time": 117.90000000000012,
                    "velocity": 0.5905511811023622,
                    "duration": 0.17500000000001137
                },
                {
                    "name": "B3",
                    "midi": 59,
                    "time": 118.05000000000013,
                    "velocity": 0.6771653543307087,
                    "duration": 0.17500000000001137
                },
                {
                    "name": "A#3",
                    "midi": 58,
                    "time": 118.20000000000013,
                    "velocity": 0.6456692913385826,
                    "duration": 0.17500000000001137
                },
                {
                    "name": "D3",
                    "midi": 50,
                    "time": 118.35000000000014,
                    "velocity": 0.5984251968503937,
                    "duration": 0.17500000000001137
                },
                {
                    "name": "F#3",
                    "midi": 54,
                    "time": 118.50000000000014,
                    "velocity": 0.7165354330708661,
                    "duration": 0.5250000000000057
                },
                {
                    "name": "B2",
                    "midi": 47,
                    "time": 119.02500000000015,
                    "velocity": 0.6299212598425197,
                    "duration": 0.07500000000000284
                },
                {
                    "name": "A#2",
                    "midi": 46,
                    "time": 119.10000000000015,
                    "velocity": 0.8267716535433071,
                    "duration": 0.22499999999999432
                },
                {
                    "name": "B3",
                    "midi": 59,
                    "time": 120.30000000000014,
                    "velocity": 0.7244094488188977,
                    "duration": 0.17500000000001137
                },
                {
                    "name": "D#3",
                    "midi": 51,
                    "time": 120.45000000000014,
                    "velocity": 0.6535433070866141,
                    "duration": 0.17500000000001137
                },
                {
                    "name": "D3",
                    "midi": 50,
                    "time": 120.60000000000015,
                    "velocity": 0.5984251968503937,
                    "duration": 0.17500000000001137
                },
                {
                    "name": "B3",
                    "midi": 59,
                    "time": 120.75000000000016,
                    "velocity": 0.6614173228346457,
                    "duration": 0.17500000000001137
                },
                {
                    "name": "A#3",
                    "midi": 58,
                    "time": 120.90000000000016,
                    "velocity": 0.6456692913385826,
                    "duration": 0.17500000000001137
                },
                {
                    "name": "C#3",
                    "midi": 49,
                    "time": 121.05000000000017,
                    "velocity": 0.5748031496062992,
                    "duration": 0.17500000000001137
                },
                {
                    "name": "E3",
                    "midi": 52,
                    "time": 121.20000000000017,
                    "velocity": 0.6929133858267716,
                    "duration": 0.15000000000000568
                },
                {
                    "name": "A#3",
                    "midi": 58,
                    "time": 121.50000000000018,
                    "velocity": 0.6062992125984252,
                    "duration": 0.15000000000000568
                },
                {
                    "name": "B2",
                    "midi": 47,
                    "time": 121.65000000000019,
                    "velocity": 0.5826771653543307,
                    "duration": 0.15000000000000568
                },
                {
                    "name": "D#3",
                    "midi": 51,
                    "time": 121.8000000000002,
                    "velocity": 0.6299212598425197,
                    "duration": 0.15000000000000568
                },
                {
                    "name": "A#3",
                    "midi": 58,
                    "time": 122.10000000000021,
                    "velocity": 0.6141732283464567,
                    "duration": 0.15000000000000568
                },
                {
                    "name": "A#2",
                    "midi": 46,
                    "time": 122.25000000000021,
                    "velocity": 0.5905511811023622,
                    "duration": 0.15000000000000568
                },
                {
                    "name": "D3",
                    "midi": 50,
                    "time": 122.40000000000022,
                    "velocity": 0.6377952755905512,
                    "duration": 0.29999999999999716
                },
                {
                    "name": "A#2",
                    "midi": 46,
                    "time": 122.70000000000022,
                    "velocity": 0.6692913385826772,
                    "duration": 0.15000000000000568
                },
                {
                    "name": "B3",
                    "midi": 59,
                    "time": 123.22500000000022,
                    "velocity": 0.6141732283464567,
                    "duration": 0.07500000000000284
                },
                {
                    "name": "A#3",
                    "midi": 58,
                    "time": 123.30000000000022,
                    "velocity": 0.8031496062992126,
                    "duration": 0.15000000000000568
                },
                {
                    "name": "B2",
                    "midi": 47,
                    "time": 123.52500000000023,
                    "velocity": 0.6614173228346457,
                    "duration": 0.07500000000000284
                },
                {
                    "name": "A#2",
                    "midi": 46,
                    "time": 123.60000000000024,
                    "velocity": 0.8188976377952756,
                    "duration": 0.15000000000000568
                },
                {
                    "name": "B2",
                    "midi": 47,
                    "time": 123.90000000000025,
                    "velocity": 0.8582677165354331,
                    "duration": 0.9000000000000057
                },
                {
                    "name": "A#2",
                    "midi": 46,
                    "time": 124.80000000000025,
                    "velocity": 0.7401574803149606,
                    "duration": 0.29999999999999716
                },
                {
                    "name": "D#3",
                    "midi": 51,
                    "time": 125.70000000000024,
                    "velocity": 0.4566929133858268,
                    "duration": 1.2000000000000028
                },
                {
                    "name": "A3",
                    "midi": 57,
                    "time": 126.90000000000025,
                    "velocity": 0.3700787401574803,
                    "duration": 1.2000000000000028
                },
                {
                    "name": "A4",
                    "midi": 69,
                    "time": 126.90000000000025,
                    "velocity": 0.4409448818897638,
                    "duration": 1.2000000000000028
                },
                {
                    "name": "D#3",
                    "midi": 51,
                    "time": 128.10000000000025,
                    "velocity": 0.4566929133858268,
                    "duration": 1.1999999999999886
                },
                {
                    "name": "A#3",
                    "midi": 58,
                    "time": 129.30000000000024,
                    "velocity": 0.3700787401574803,
                    "duration": 1.1999999999999886
                },
                {
                    "name": "A#4",
                    "midi": 70,
                    "time": 129.30000000000024,
                    "velocity": 0.4409448818897638,
                    "duration": 1.1999999999999886
                },
                {
                    "name": "D#3",
                    "midi": 51,
                    "time": 130.50000000000023,
                    "velocity": 0.4566929133858268,
                    "duration": 1.1999999999999886
                },
                {
                    "name": "D#4",
                    "midi": 63,
                    "time": 131.70000000000022,
                    "velocity": 0.4015748031496063,
                    "duration": 0.5999999999999943
                },
                {
                    "name": "D#5",
                    "midi": 75,
                    "time": 131.70000000000022,
                    "velocity": 0.47244094488188976,
                    "duration": 0.5999999999999943
                },
                {
                    "name": "D4",
                    "midi": 62,
                    "time": 132.3000000000002,
                    "velocity": 0.3937007874015748,
                    "duration": 0.5999999999999943
                },
                {
                    "name": "D5",
                    "midi": 74,
                    "time": 132.3000000000002,
                    "velocity": 0.4645669291338583,
                    "duration": 0.5999999999999943
                },
                {
                    "name": "E4",
                    "midi": 64,
                    "time": 132.9000000000002,
                    "velocity": 0.4015748031496063,
                    "duration": 1.1999999999999886
                },
                {
                    "name": "E5",
                    "midi": 76,
                    "time": 132.9000000000002,
                    "velocity": 0.48031496062992124,
                    "duration": 1.1999999999999886
                },
                {
                    "name": "D#4",
                    "midi": 63,
                    "time": 134.1000000000002,
                    "velocity": 0.3700787401574803,
                    "duration": 1.1999999999999886
                },
                {
                    "name": "D#5",
                    "midi": 75,
                    "time": 134.1000000000002,
                    "velocity": 0.4409448818897638,
                    "duration": 1.1999999999999886
                },
                {
                    "name": "D#3",
                    "midi": 51,
                    "time": 135.30000000000018,
                    "velocity": 0.4566929133858268,
                    "duration": 0.5999999999999943
                },
                {
                    "name": "D#4",
                    "midi": 63,
                    "time": 135.90000000000018,
                    "velocity": 0.4015748031496063,
                    "duration": 0.5999999999999943
                },
                {
                    "name": "D#5",
                    "midi": 75,
                    "time": 135.90000000000018,
                    "velocity": 0.47244094488188976,
                    "duration": 0.5999999999999943
                },
                {
                    "name": "D4",
                    "midi": 62,
                    "time": 136.50000000000017,
                    "velocity": 0.3700787401574803,
                    "duration": 0.5999999999999943
                },
                {
                    "name": "D5",
                    "midi": 74,
                    "time": 136.50000000000017,
                    "velocity": 0.4409448818897638,
                    "duration": 0.5999999999999943
                },
                {
                    "name": "F#4",
                    "midi": 66,
                    "time": 137.10000000000016,
                    "velocity": 0.4015748031496063,
                    "duration": 0.5999999999999943
                },
                {
                    "name": "F#5",
                    "midi": 78,
                    "time": 137.10000000000016,
                    "velocity": 0.47244094488188976,
                    "duration": 0.5999999999999943
                },
                {
                    "name": "F4",
                    "midi": 65,
                    "time": 137.70000000000016,
                    "velocity": 0.3779527559055118,
                    "duration": 0.5999999999999943
                },
                {
                    "name": "F5",
                    "midi": 77,
                    "time": 137.70000000000016,
                    "velocity": 0.44881889763779526,
                    "duration": 0.5999999999999943
                },
                {
                    "name": "A#3",
                    "midi": 58,
                    "time": 138.30000000000015,
                    "velocity": 0.3464566929133858,
                    "duration": 0.5999999999999943
                },
                {
                    "name": "A#4",
                    "midi": 70,
                    "time": 138.30000000000015,
                    "velocity": 0.4094488188976378,
                    "duration": 0.5999999999999943
                },
                {
                    "name": "F4",
                    "midi": 65,
                    "time": 138.90000000000015,
                    "velocity": 0.3700787401574803,
                    "duration": 1.1999999999999886
                },
                {
                    "name": "F5",
                    "midi": 77,
                    "time": 138.90000000000015,
                    "velocity": 0.4409448818897638,
                    "duration": 1.1999999999999886
                },
                {
                    "name": "F#4",
                    "midi": 66,
                    "time": 140.10000000000014,
                    "velocity": 0.3937007874015748,
                    "duration": 0.5999999999999943
                },
                {
                    "name": "F#5",
                    "midi": 78,
                    "time": 140.10000000000014,
                    "velocity": 0.4645669291338583,
                    "duration": 0.5999999999999943
                },
                {
                    "name": "F4",
                    "midi": 65,
                    "time": 140.70000000000013,
                    "velocity": 0.33070866141732286,
                    "duration": 0.5999999999999943
                },
                {
                    "name": "F5",
                    "midi": 77,
                    "time": 140.70000000000013,
                    "velocity": 0.3937007874015748,
                    "duration": 0.5999999999999943
                },
                {
                    "name": "A#3",
                    "midi": 58,
                    "time": 141.30000000000013,
                    "velocity": 0.3543307086614173,
                    "duration": 0.5999999999999943
                },
                {
                    "name": "A#4",
                    "midi": 70,
                    "time": 141.30000000000013,
                    "velocity": 0.4251968503937008,
                    "duration": 0.5999999999999943
                },
                {
                    "name": "F#4",
                    "midi": 66,
                    "time": 141.90000000000012,
                    "velocity": 0.2992125984251969,
                    "duration": 0.5999999999999943
                },
                {
                    "name": "F#5",
                    "midi": 78,
                    "time": 141.90000000000012,
                    "velocity": 0.3543307086614173,
                    "duration": 0.5999999999999943
                },
                {
                    "name": "B3",
                    "midi": 59,
                    "time": 142.5000000000001,
                    "velocity": 0.7244094488188977,
                    "duration": 0.17500000000001137
                },
                {
                    "name": "D#3",
                    "midi": 51,
                    "time": 142.65000000000012,
                    "velocity": 0.6535433070866141,
                    "duration": 0.17500000000001137
                },
                {
                    "name": "D3",
                    "midi": 50,
                    "time": 142.80000000000013,
                    "velocity": 0.5984251968503937,
                    "duration": 0.17500000000001137
                },
                {
                    "name": "B3",
                    "midi": 59,
                    "time": 142.95000000000013,
                    "velocity": 0.6850393700787402,
                    "duration": 0.17500000000001137
                },
                {
                    "name": "A#3",
                    "midi": 58,
                    "time": 143.10000000000014,
                    "velocity": 0.6692913385826772,
                    "duration": 0.17500000000001137
                },
                {
                    "name": "D3",
                    "midi": 50,
                    "time": 143.25000000000014,
                    "velocity": 0.6377952755905512,
                    "duration": 0.17500000000001137
                },
                {
                    "name": "F#3",
                    "midi": 54,
                    "time": 143.40000000000015,
                    "velocity": 0.7165354330708661,
                    "duration": 0.30000000000001137
                },
                {
                    "name": "D#3",
                    "midi": 51,
                    "time": 144.30000000000015,
                    "velocity": 0.4566929133858268,
                    "duration": 1.1999999999999886
                },
                {
                    "name": "A3",
                    "midi": 57,
                    "time": 145.50000000000014,
                    "velocity": 0.3700787401574803,
                    "duration": 1.1999999999999886
                },
                {
                    "name": "A4",
                    "midi": 69,
                    "time": 145.50000000000014,
                    "velocity": 0.4409448818897638,
                    "duration": 1.1999999999999886
                },
                {
                    "name": "D#3",
                    "midi": 51,
                    "time": 146.70000000000013,
                    "velocity": 0.4566929133858268,
                    "duration": 1.1999999999999886
                },
                {
                    "name": "A#3",
                    "midi": 58,
                    "time": 147.90000000000012,
                    "velocity": 0.3700787401574803,
                    "duration": 1.1999999999999886
                },
                {
                    "name": "A#4",
                    "midi": 70,
                    "time": 147.90000000000012,
                    "velocity": 0.4409448818897638,
                    "duration": 1.1999999999999886
                },
                {
                    "name": "D#3",
                    "midi": 51,
                    "time": 149.1000000000001,
                    "velocity": 0.4566929133858268,
                    "duration": 1.1999999999999886
                },
                {
                    "name": "F4",
                    "midi": 65,
                    "time": 150.3000000000001,
                    "velocity": 0.4015748031496063,
                    "duration": 0.5999999999999943
                },
                {
                    "name": "F5",
                    "midi": 77,
                    "time": 150.3000000000001,
                    "velocity": 0.47244094488188976,
                    "duration": 0.5999999999999943
                },
                {
                    "name": "E4",
                    "midi": 64,
                    "time": 150.9000000000001,
                    "velocity": 0.3937007874015748,
                    "duration": 0.5999999999999943
                },
                {
                    "name": "E5",
                    "midi": 76,
                    "time": 150.9000000000001,
                    "velocity": 0.4645669291338583,
                    "duration": 0.5999999999999943
                },
                {
                    "name": "G#4",
                    "midi": 68,
                    "time": 151.50000000000009,
                    "velocity": 0.4015748031496063,
                    "duration": 1.1999999999999886
                },
                {
                    "name": "G#5",
                    "midi": 80,
                    "time": 151.50000000000009,
                    "velocity": 0.48031496062992124,
                    "duration": 1.1999999999999886
                },
                {
                    "name": "G4",
                    "midi": 67,
                    "time": 152.70000000000007,
                    "velocity": 0.3543307086614173,
                    "duration": 1.1999999999999886
                },
                {
                    "name": "G5",
                    "midi": 79,
                    "time": 152.70000000000007,
                    "velocity": 0.4251968503937008,
                    "duration": 1.1999999999999886
                },
                {
                    "name": "D#3",
                    "midi": 51,
                    "time": 153.90000000000006,
                    "velocity": 0.4566929133858268,
                    "duration": 0.5999999999999943
                },
                {
                    "name": "F4",
                    "midi": 65,
                    "time": 154.50000000000006,
                    "velocity": 0.4015748031496063,
                    "duration": 0.5999999999999943
                },
                {
                    "name": "F5",
                    "midi": 77,
                    "time": 154.50000000000006,
                    "velocity": 0.47244094488188976,
                    "duration": 0.5999999999999943
                },
                {
                    "name": "E4",
                    "midi": 64,
                    "time": 155.10000000000005,
                    "velocity": 0.3700787401574803,
                    "duration": 0.5999999999999943
                },
                {
                    "name": "E5",
                    "midi": 76,
                    "time": 155.10000000000005,
                    "velocity": 0.5511811023622047,
                    "duration": 0.5999999999999943
                },
                {
                    "name": "G#4",
                    "midi": 68,
                    "time": 155.70000000000005,
                    "velocity": 0.4015748031496063,
                    "duration": 0.5999999999999943
                },
                {
                    "name": "G#5",
                    "midi": 80,
                    "time": 155.70000000000005,
                    "velocity": 0.47244094488188976,
                    "duration": 0.5999999999999943
                },
                {
                    "name": "G4",
                    "midi": 67,
                    "time": 156.30000000000004,
                    "velocity": 0.3779527559055118,
                    "duration": 0.5999999999999943
                },
                {
                    "name": "G5",
                    "midi": 79,
                    "time": 156.30000000000004,
                    "velocity": 0.44881889763779526,
                    "duration": 0.5999999999999943
                },
                {
                    "name": "C#4",
                    "midi": 61,
                    "time": 156.90000000000003,
                    "velocity": 0.3464566929133858,
                    "duration": 0.5999999999999943
                },
                {
                    "name": "C#5",
                    "midi": 73,
                    "time": 156.90000000000003,
                    "velocity": 0.4094488188976378,
                    "duration": 0.5999999999999943
                },
                {
                    "name": "G4",
                    "midi": 67,
                    "time": 157.50000000000003,
                    "velocity": 0.3700787401574803,
                    "duration": 1.1999999999999886
                },
                {
                    "name": "G5",
                    "midi": 79,
                    "time": 157.50000000000003,
                    "velocity": 0.4409448818897638,
                    "duration": 1.1999999999999886
                },
                {
                    "name": "G#4",
                    "midi": 68,
                    "time": 158.70000000000002,
                    "velocity": 0.3937007874015748,
                    "duration": 0.5999999999999943
                },
                {
                    "name": "G#5",
                    "midi": 80,
                    "time": 158.70000000000002,
                    "velocity": 0.4645669291338583,
                    "duration": 0.5999999999999943
                },
                {
                    "name": "G4",
                    "midi": 67,
                    "time": 159.3,
                    "velocity": 0.33070866141732286,
                    "duration": 0.5999999999999943
                },
                {
                    "name": "G5",
                    "midi": 79,
                    "time": 159.3,
                    "velocity": 0.3937007874015748,
                    "duration": 0.5999999999999943
                },
                {
                    "name": "C#4",
                    "midi": 61,
                    "time": 159.9,
                    "velocity": 0.3543307086614173,
                    "duration": 0.5999999999999943
                },
                {
                    "name": "C#5",
                    "midi": 73,
                    "time": 159.9,
                    "velocity": 0.4251968503937008,
                    "duration": 0.5999999999999943
                },
                {
                    "name": "G4",
                    "midi": 67,
                    "time": 160.5,
                    "velocity": 0.2992125984251969,
                    "duration": 0.5999999999999943
                },
                {
                    "name": "G5",
                    "midi": 79,
                    "time": 160.5,
                    "velocity": 0.3543307086614173,
                    "duration": 0.5999999999999943
                },
                {
                    "name": "E4",
                    "midi": 64,
                    "time": 161.1,
                    "velocity": 0.7244094488188977,
                    "duration": 0.17500000000001137
                },
                {
                    "name": "G#3",
                    "midi": 56,
                    "time": 161.25,
                    "velocity": 0.6535433070866141,
                    "duration": 0.17500000000001137
                },
                {
                    "name": "G3",
                    "midi": 55,
                    "time": 161.4,
                    "velocity": 0.6220472440944882,
                    "duration": 0.17500000000001137
                },
                {
                    "name": "E4",
                    "midi": 64,
                    "time": 161.55,
                    "velocity": 0.6850393700787402,
                    "duration": 0.17500000000001137
                },
                {
                    "name": "D#4",
                    "midi": 63,
                    "time": 161.70000000000002,
                    "velocity": 0.6692913385826772,
                    "duration": 0.17500000000001137
                },
                {
                    "name": "G3",
                    "midi": 55,
                    "time": 161.85000000000002,
                    "velocity": 0.6377952755905512,
                    "duration": 0.17500000000001137
                },
                {
                    "name": "B3",
                    "midi": 59,
                    "time": 162.00000000000003,
                    "velocity": 0.7165354330708661,
                    "duration": 0.30000000000001137
                },
                {
                    "name": "G#3",
                    "midi": 56,
                    "time": 162.90000000000003,
                    "velocity": 0.4566929133858268,
                    "duration": 1.1999999999999886
                },
                {
                    "name": "D4",
                    "midi": 62,
                    "time": 164.10000000000002,
                    "velocity": 0.3700787401574803,
                    "duration": 1.1999999999999886
                },
                {
                    "name": "D5",
                    "midi": 74,
                    "time": 164.10000000000002,
                    "velocity": 0.4409448818897638,
                    "duration": 1.1999999999999886
                },
                {
                    "name": "G#3",
                    "midi": 56,
                    "time": 165.3,
                    "velocity": 0.4566929133858268,
                    "duration": 1.1999999999999886
                },
                {
                    "name": "D#4",
                    "midi": 63,
                    "time": 166.5,
                    "velocity": 0.3700787401574803,
                    "duration": 1.1999999999999886
                },
                {
                    "name": "D#5",
                    "midi": 75,
                    "time": 166.5,
                    "velocity": 0.4409448818897638,
                    "duration": 1.1999999999999886
                },
                {
                    "name": "B4",
                    "midi": 71,
                    "time": 167.7,
                    "velocity": 0.6850393700787402,
                    "duration": 0.17500000000001137
                },
                {
                    "name": "D#4",
                    "midi": 63,
                    "time": 167.85,
                    "velocity": 0.6141732283464567,
                    "duration": 0.17500000000001137
                },
                {
                    "name": "D4",
                    "midi": 62,
                    "time": 168,
                    "velocity": 0.5905511811023622,
                    "duration": 0.17500000000001137
                },
                {
                    "name": "B4",
                    "midi": 71,
                    "time": 168.15,
                    "velocity": 0.6456692913385826,
                    "duration": 0.17500000000001137
                },
                {
                    "name": "A#4",
                    "midi": 70,
                    "time": 168.3,
                    "velocity": 0.6299212598425197,
                    "duration": 0.17500000000001137
                },
                {
                    "name": "D#4",
                    "midi": 63,
                    "time": 168.45000000000002,
                    "velocity": 0.5984251968503937,
                    "duration": 0.17500000000001137
                },
                {
                    "name": "F#4",
                    "midi": 66,
                    "time": 168.60000000000002,
                    "velocity": 0.6771653543307087,
                    "duration": 0.30000000000001137
                },
                {
                    "name": "D#4",
                    "midi": 63,
                    "time": 169.42500000000004,
                    "velocity": 0.5669291338582677,
                    "duration": 0.07499999999998863
                },
                {
                    "name": "D#5",
                    "midi": 75,
                    "time": 169.42500000000004,
                    "velocity": 0.6692913385826772,
                    "duration": 0.07499999999998863
                },
                {
                    "name": "D#5",
                    "midi": 75,
                    "time": 169.50000000000003,
                    "velocity": 0.6614173228346457,
                    "duration": 1.1999999999999886
                },
                {
                    "name": "D#6",
                    "midi": 87,
                    "time": 169.50000000000003,
                    "velocity": 0.7795275590551181,
                    "duration": 1.1999999999999886
                },
                {
                    "name": "D5",
                    "midi": 74,
                    "time": 170.70000000000002,
                    "velocity": 0.5905511811023622,
                    "duration": 0.5999999999999943
                },
                {
                    "name": "D6",
                    "midi": 86,
                    "time": 170.70000000000002,
                    "velocity": 0.7007874015748031,
                    "duration": 0.5999999999999943
                },
                {
                    "name": "F#5",
                    "midi": 78,
                    "time": 171.3,
                    "velocity": 0.5354330708661418,
                    "duration": 0.5999999999999943
                },
                {
                    "name": "F#6",
                    "midi": 90,
                    "time": 171.3,
                    "velocity": 0.6299212598425197,
                    "duration": 0.5999999999999943
                },
                {
                    "name": "F5",
                    "midi": 77,
                    "time": 171.9,
                    "velocity": 0.6220472440944882,
                    "duration": 0.5999999999999943
                },
                {
                    "name": "F6",
                    "midi": 89,
                    "time": 171.9,
                    "velocity": 0.7322834645669292,
                    "duration": 0.5999999999999943
                },
                {
                    "name": "A#4",
                    "midi": 70,
                    "time": 172.5,
                    "velocity": 0.5275590551181102,
                    "duration": 0.5999999999999943
                },
                {
                    "name": "A#5",
                    "midi": 82,
                    "time": 172.5,
                    "velocity": 0.6220472440944882,
                    "duration": 0.5999999999999943
                },
                {
                    "name": "E5",
                    "midi": 76,
                    "time": 173.1,
                    "velocity": 0.5826771653543307,
                    "duration": 1.1999999999999886
                },
                {
                    "name": "E6",
                    "midi": 88,
                    "time": 173.1,
                    "velocity": 0.6929133858267716,
                    "duration": 1.1999999999999886
                },
                {
                    "name": "D#5",
                    "midi": 75,
                    "time": 174.29999999999998,
                    "velocity": 0.6220472440944882,
                    "duration": 1.1999999999999886
                },
                {
                    "name": "D#6",
                    "midi": 87,
                    "time": 174.29999999999998,
                    "velocity": 0.7401574803149606,
                    "duration": 1.1999999999999886
                },
                {
                    "name": "D5",
                    "midi": 74,
                    "time": 175.49999999999997,
                    "velocity": 0.6141732283464567,
                    "duration": 0.5999999999999943
                },
                {
                    "name": "D6",
                    "midi": 86,
                    "time": 175.49999999999997,
                    "velocity": 0.7244094488188977,
                    "duration": 0.5999999999999943
                },
                {
                    "name": "G#4",
                    "midi": 68,
                    "time": 176.09999999999997,
                    "velocity": 0.5196850393700787,
                    "duration": 0.5999999999999943
                },
                {
                    "name": "G#5",
                    "midi": 80,
                    "time": 176.09999999999997,
                    "velocity": 0.6141732283464567,
                    "duration": 0.5999999999999943
                },
                {
                    "name": "C#5",
                    "midi": 73,
                    "time": 176.69999999999996,
                    "velocity": 0.6141732283464567,
                    "duration": 0.5999999999999943
                },
                {
                    "name": "C#6",
                    "midi": 85,
                    "time": 176.69999999999996,
                    "velocity": 0.7244094488188977,
                    "duration": 0.5999999999999943
                },
                {
                    "name": "F#4",
                    "midi": 66,
                    "time": 177.29999999999995,
                    "velocity": 0.5118110236220472,
                    "duration": 0.5999999999999943
                },
                {
                    "name": "F#5",
                    "midi": 78,
                    "time": 177.29999999999995,
                    "velocity": 0.6062992125984252,
                    "duration": 0.5999999999999943
                },
                {
                    "name": "C5",
                    "midi": 72,
                    "time": 177.89999999999995,
                    "velocity": 0.5590551181102362,
                    "duration": 1.1999999999999886
                },
                {
                    "name": "C6",
                    "midi": 84,
                    "time": 177.89999999999995,
                    "velocity": 0.6614173228346457,
                    "duration": 1.1999999999999886
                },
                {
                    "name": "B4",
                    "midi": 71,
                    "time": 179.09999999999994,
                    "velocity": 0.5984251968503937,
                    "duration": 1.1999999999999886
                },
                {
                    "name": "B5",
                    "midi": 83,
                    "time": 179.09999999999994,
                    "velocity": 0.7086614173228346,
                    "duration": 1.1999999999999886
                },
                {
                    "name": "A#4",
                    "midi": 70,
                    "time": 180.29999999999993,
                    "velocity": 0.5511811023622047,
                    "duration": 0.5999999999999943
                },
                {
                    "name": "A#5",
                    "midi": 82,
                    "time": 180.29999999999993,
                    "velocity": 0.6850393700787402,
                    "duration": 0.5999999999999943
                },
                {
                    "name": "D#4",
                    "midi": 63,
                    "time": 180.89999999999992,
                    "velocity": 0.47244094488188976,
                    "duration": 0.5999999999999943
                },
                {
                    "name": "D#5",
                    "midi": 75,
                    "time": 180.89999999999992,
                    "velocity": 0.5590551181102362,
                    "duration": 0.5999999999999943
                },
                {
                    "name": "A4",
                    "midi": 69,
                    "time": 181.49999999999991,
                    "velocity": 0.5275590551181102,
                    "duration": 1.1999999999999886
                },
                {
                    "name": "A5",
                    "midi": 81,
                    "time": 181.49999999999991,
                    "velocity": 0.6220472440944882,
                    "duration": 1.1999999999999886
                },
                {
                    "name": "G#4",
                    "midi": 68,
                    "time": 182.6999999999999,
                    "velocity": 0.5196850393700787,
                    "duration": 0.5999999999999943
                },
                {
                    "name": "G#5",
                    "midi": 80,
                    "time": 182.6999999999999,
                    "velocity": 0.6141732283464567,
                    "duration": 0.5999999999999943
                },
                {
                    "name": "D4",
                    "midi": 62,
                    "time": 183.2999999999999,
                    "velocity": 0.4566929133858268,
                    "duration": 0.5250000000000057
                },
                {
                    "name": "D5",
                    "midi": 74,
                    "time": 183.2999999999999,
                    "velocity": 0.5433070866141733,
                    "duration": 0.5250000000000057
                },
                {
                    "name": "D#4",
                    "midi": 63,
                    "time": 183.8249999999999,
                    "velocity": 0.5196850393700787,
                    "duration": 0.07499999999998863
                },
                {
                    "name": "D#5",
                    "midi": 75,
                    "time": 183.8249999999999,
                    "velocity": 0.6141732283464567,
                    "duration": 0.07499999999998863
                },
                {
                    "name": "D#5",
                    "midi": 75,
                    "time": 183.8999999999999,
                    "velocity": 0.5984251968503937,
                    "duration": 1.1999999999999886
                },
                {
                    "name": "D#6",
                    "midi": 87,
                    "time": 183.8999999999999,
                    "velocity": 0.7086614173228346,
                    "duration": 1.1999999999999886
                },
                {
                    "name": "D5",
                    "midi": 74,
                    "time": 185.09999999999988,
                    "velocity": 0.5590551181102362,
                    "duration": 1.1999999999999886
                },
                {
                    "name": "D6",
                    "midi": 86,
                    "time": 185.09999999999988,
                    "velocity": 0.6614173228346457,
                    "duration": 1.1999999999999886
                },
                {
                    "name": "C#5",
                    "midi": 73,
                    "time": 186.29999999999987,
                    "velocity": 0.5669291338582677,
                    "duration": 1.1999999999999886
                },
                {
                    "name": "C#6",
                    "midi": 85,
                    "time": 186.29999999999987,
                    "velocity": 0.6692913385826772,
                    "duration": 1.1999999999999886
                },
                {
                    "name": "C5",
                    "midi": 72,
                    "time": 187.49999999999986,
                    "velocity": 0.5275590551181102,
                    "duration": 1.1999999999999886
                },
                {
                    "name": "C6",
                    "midi": 84,
                    "time": 187.49999999999986,
                    "velocity": 0.6456692913385826,
                    "duration": 1.1999999999999886
                },
                {
                    "name": "B4",
                    "midi": 71,
                    "time": 188.69999999999985,
                    "velocity": 0.5354330708661418,
                    "duration": 1.1999999999999886
                },
                {
                    "name": "B5",
                    "midi": 83,
                    "time": 188.69999999999985,
                    "velocity": 0.6377952755905512,
                    "duration": 1.1999999999999886
                },
                {
                    "name": "A#4",
                    "midi": 70,
                    "time": 189.89999999999984,
                    "velocity": 0.4881889763779528,
                    "duration": 1.1999999999999886
                },
                {
                    "name": "A#5",
                    "midi": 82,
                    "time": 189.89999999999984,
                    "velocity": 0.5826771653543307,
                    "duration": 1.1999999999999886
                },
                {
                    "name": "A4",
                    "midi": 69,
                    "time": 191.09999999999982,
                    "velocity": 0.49606299212598426,
                    "duration": 1.1999999999999886
                },
                {
                    "name": "A5",
                    "midi": 81,
                    "time": 191.09999999999982,
                    "velocity": 0.5905511811023622,
                    "duration": 1.1999999999999886
                },
                {
                    "name": "G#4",
                    "midi": 68,
                    "time": 192.2999999999998,
                    "velocity": 0.4645669291338583,
                    "duration": 1.1999999999999886
                },
                {
                    "name": "G#5",
                    "midi": 80,
                    "time": 192.2999999999998,
                    "velocity": 0.5511811023622047,
                    "duration": 1.1999999999999886
                },
                {
                    "name": "G4",
                    "midi": 67,
                    "time": 193.4999999999998,
                    "velocity": 0.4645669291338583,
                    "duration": 1.1999999999999886
                },
                {
                    "name": "G5",
                    "midi": 79,
                    "time": 193.4999999999998,
                    "velocity": 0.5511811023622047,
                    "duration": 1.1999999999999886
                },
                {
                    "name": "F#4",
                    "midi": 66,
                    "time": 194.6999999999998,
                    "velocity": 0.4409448818897638,
                    "duration": 1.1999999999999886
                },
                {
                    "name": "F#5",
                    "midi": 78,
                    "time": 194.6999999999998,
                    "velocity": 0.5275590551181102,
                    "duration": 1.1999999999999886
                },
                {
                    "name": "F4",
                    "midi": 65,
                    "time": 195.89999999999978,
                    "velocity": 0.4251968503937008,
                    "duration": 1.1999999999999886
                },
                {
                    "name": "F5",
                    "midi": 77,
                    "time": 195.89999999999978,
                    "velocity": 0.5039370078740157,
                    "duration": 1.1999999999999886
                },
                {
                    "name": "E4",
                    "midi": 64,
                    "time": 197.09999999999977,
                    "velocity": 0.4015748031496063,
                    "duration": 0.5999999999999943
                },
                {
                    "name": "E5",
                    "midi": 76,
                    "time": 197.09999999999977,
                    "velocity": 0.47244094488188976,
                    "duration": 0.5999999999999943
                },
                {
                    "name": "F6",
                    "midi": 89,
                    "time": 201.89999999999975,
                    "velocity": 0.47244094488188976,
                    "duration": 0.30000000000001137
                },
                {
                    "name": "A#5",
                    "midi": 82,
                    "time": 201.89999999999975,
                    "velocity": 0.4015748031496063,
                    "duration": 0.30000000000001137
                },
                {
                    "name": "F#5",
                    "midi": 78,
                    "time": 201.89999999999975,
                    "velocity": 0.4015748031496063,
                    "duration": 0.30000000000001137
                },
                {
                    "name": "D#6",
                    "midi": 87,
                    "time": 202.19999999999976,
                    "velocity": 0.47244094488188976,
                    "duration": 0.5999999999999943
                },
                {
                    "name": "F#5",
                    "midi": 78,
                    "time": 202.19999999999976,
                    "velocity": 0.4015748031496063,
                    "duration": 0.5999999999999943
                },
                {
                    "name": "A#5",
                    "midi": 82,
                    "time": 202.19999999999976,
                    "velocity": 0.4015748031496063,
                    "duration": 0.5999999999999943
                },
                {
                    "name": "C#6",
                    "midi": 85,
                    "time": 203.69999999999976,
                    "velocity": 0.47244094488188976,
                    "duration": 0.30000000000001137
                },
                {
                    "name": "D#5",
                    "midi": 75,
                    "time": 203.69999999999976,
                    "velocity": 0.47244094488188976,
                    "duration": 0.30000000000001137
                },
                {
                    "name": "F#5",
                    "midi": 78,
                    "time": 203.69999999999976,
                    "velocity": 0.47244094488188976,
                    "duration": 0.30000000000001137
                },
                {
                    "name": "C6",
                    "midi": 84,
                    "time": 203.99999999999977,
                    "velocity": 0.47244094488188976,
                    "duration": 0.44999999999998863
                },
                {
                    "name": "F#5",
                    "midi": 78,
                    "time": 203.99999999999977,
                    "velocity": 0.47244094488188976,
                    "duration": 0.44999999999998863
                },
                {
                    "name": "D#5",
                    "midi": 75,
                    "time": 203.99999999999977,
                    "velocity": 0.47244094488188976,
                    "duration": 0.44999999999998863
                },
                {
                    "name": "B4",
                    "midi": 71,
                    "time": 204.59999999999977,
                    "velocity": 0.4015748031496063,
                    "duration": 0.30000000000001137
                },
                {
                    "name": "D#5",
                    "midi": 75,
                    "time": 204.59999999999977,
                    "velocity": 0.4015748031496063,
                    "duration": 0.30000000000001137
                },
                {
                    "name": "G#5",
                    "midi": 80,
                    "time": 204.59999999999977,
                    "velocity": 0.47244094488188976,
                    "duration": 0.30000000000001137
                },
                {
                    "name": "B4",
                    "midi": 71,
                    "time": 204.89999999999978,
                    "velocity": 0.4015748031496063,
                    "duration": 0.44999999999998863
                },
                {
                    "name": "D#5",
                    "midi": 75,
                    "time": 204.89999999999978,
                    "velocity": 0.4015748031496063,
                    "duration": 0.44999999999998863
                },
                {
                    "name": "F#5",
                    "midi": 78,
                    "time": 204.89999999999978,
                    "velocity": 0.47244094488188976,
                    "duration": 0.44999999999998863
                },
                {
                    "name": "F#4",
                    "midi": 66,
                    "time": 205.49999999999977,
                    "velocity": 0.4015748031496063,
                    "duration": 0.30000000000001137
                },
                {
                    "name": "A#4",
                    "midi": 70,
                    "time": 205.49999999999977,
                    "velocity": 0.4015748031496063,
                    "duration": 0.30000000000001137
                },
                {
                    "name": "F5",
                    "midi": 77,
                    "time": 205.49999999999977,
                    "velocity": 0.47244094488188976,
                    "duration": 0.30000000000001137
                },
                {
                    "name": "F#4",
                    "midi": 66,
                    "time": 205.79999999999978,
                    "velocity": 0.4015748031496063,
                    "duration": 0.5999999999999943
                },
                {
                    "name": "A#4",
                    "midi": 70,
                    "time": 205.79999999999978,
                    "velocity": 0.4015748031496063,
                    "duration": 0.5999999999999943
                },
                {
                    "name": "D#5",
                    "midi": 75,
                    "time": 205.79999999999978,
                    "velocity": 0.47244094488188976,
                    "duration": 0.5999999999999943
                },
                {
                    "name": "F#4",
                    "midi": 66,
                    "time": 207.29999999999978,
                    "velocity": 0.4015748031496063,
                    "duration": 0.30000000000001137
                },
                {
                    "name": "D#4",
                    "midi": 63,
                    "time": 207.29999999999978,
                    "velocity": 0.4015748031496063,
                    "duration": 0.30000000000001137
                },
                {
                    "name": "C#5",
                    "midi": 73,
                    "time": 207.29999999999978,
                    "velocity": 0.47244094488188976,
                    "duration": 0.30000000000001137
                },
                {
                    "name": "D#4",
                    "midi": 63,
                    "time": 207.5999999999998,
                    "velocity": 0.4015748031496063,
                    "duration": 0.44999999999998863
                },
                {
                    "name": "F#4",
                    "midi": 66,
                    "time": 207.5999999999998,
                    "velocity": 0.4015748031496063,
                    "duration": 0.44999999999998863
                },
                {
                    "name": "C5",
                    "midi": 72,
                    "time": 207.5999999999998,
                    "velocity": 0.47244094488188976,
                    "duration": 0.44999999999998863
                },
                {
                    "name": "B3",
                    "midi": 59,
                    "time": 208.1999999999998,
                    "velocity": 0.4015748031496063,
                    "duration": 0.30000000000001137
                },
                {
                    "name": "D#4",
                    "midi": 63,
                    "time": 208.1999999999998,
                    "velocity": 0.4015748031496063,
                    "duration": 0.30000000000001137
                },
                {
                    "name": "G#4",
                    "midi": 68,
                    "time": 208.1999999999998,
                    "velocity": 0.47244094488188976,
                    "duration": 0.30000000000001137
                },
                {
                    "name": "B3",
                    "midi": 59,
                    "time": 208.4999999999998,
                    "velocity": 0.4015748031496063,
                    "duration": 0.44999999999998863
                },
                {
                    "name": "D#4",
                    "midi": 63,
                    "time": 208.4999999999998,
                    "velocity": 0.4015748031496063,
                    "duration": 0.44999999999998863
                },
                {
                    "name": "F#4",
                    "midi": 66,
                    "time": 208.4999999999998,
                    "velocity": 0.47244094488188976,
                    "duration": 0.44999999999998863
                },
                {
                    "name": "F#3",
                    "midi": 54,
                    "time": 209.0999999999998,
                    "velocity": 0.4015748031496063,
                    "duration": 0.30000000000001137
                },
                {
                    "name": "A#3",
                    "midi": 58,
                    "time": 209.0999999999998,
                    "velocity": 0.4015748031496063,
                    "duration": 0.30000000000001137
                },
                {
                    "name": "F4",
                    "midi": 65,
                    "time": 209.0999999999998,
                    "velocity": 0.47244094488188976,
                    "duration": 0.30000000000001137
                },
                {
                    "name": "F#3",
                    "midi": 54,
                    "time": 209.3999999999998,
                    "velocity": 0.4015748031496063,
                    "duration": 0.44999999999998863
                },
                {
                    "name": "A#3",
                    "midi": 58,
                    "time": 209.3999999999998,
                    "velocity": 0.4015748031496063,
                    "duration": 0.44999999999998863
                },
                {
                    "name": "D#4",
                    "midi": 63,
                    "time": 209.3999999999998,
                    "velocity": 0.47244094488188976,
                    "duration": 0.44999999999998863
                },
                {
                    "name": "D#3",
                    "midi": 51,
                    "time": 210.8999999999998,
                    "velocity": 0.4881889763779528,
                    "duration": 0.30000000000001137
                },
                {
                    "name": "F#3",
                    "midi": 54,
                    "time": 210.8999999999998,
                    "velocity": 0.4881889763779528,
                    "duration": 0.30000000000001137
                },
                {
                    "name": "C#4",
                    "midi": 61,
                    "time": 210.8999999999998,
                    "velocity": 0.5826771653543307,
                    "duration": 0.30000000000001137
                },
                {
                    "name": "D#3",
                    "midi": 51,
                    "time": 211.19999999999982,
                    "velocity": 0.4881889763779528,
                    "duration": 0.44999999999998863
                },
                {
                    "name": "F#3",
                    "midi": 54,
                    "time": 211.19999999999982,
                    "velocity": 0.4881889763779528,
                    "duration": 0.44999999999998863
                },
                {
                    "name": "C4",
                    "midi": 60,
                    "time": 211.19999999999982,
                    "velocity": 0.5826771653543307,
                    "duration": 0.44999999999998863
                },
                {
                    "name": "D#4",
                    "midi": 63,
                    "time": 212.6249999999998,
                    "velocity": 0.5590551181102362,
                    "duration": 0.30000000000001137
                },
                {
                    "name": "F#4",
                    "midi": 66,
                    "time": 212.6249999999998,
                    "velocity": 0.5590551181102362,
                    "duration": 0.30000000000001137
                },
                {
                    "name": "C#5",
                    "midi": 73,
                    "time": 212.6249999999998,
                    "velocity": 0.7401574803149606,
                    "duration": 0.30000000000001137
                },
                {
                    "name": "D#4",
                    "midi": 63,
                    "time": 212.9249999999998,
                    "velocity": 0.5354330708661418,
                    "duration": 0.44999999999998863
                },
                {
                    "name": "F#4",
                    "midi": 66,
                    "time": 212.9249999999998,
                    "velocity": 0.5354330708661418,
                    "duration": 0.44999999999998863
                },
                {
                    "name": "C5",
                    "midi": 72,
                    "time": 212.9249999999998,
                    "velocity": 0.7165354330708661,
                    "duration": 0.44999999999998863
                },
                {
                    "name": "G#4",
                    "midi": 68,
                    "time": 214.4249999999998,
                    "velocity": 0.7165354330708661,
                    "duration": 0.30000000000001137
                },
                {
                    "name": "B4",
                    "midi": 71,
                    "time": 214.4249999999998,
                    "velocity": 0.7165354330708661,
                    "duration": 0.30000000000001137
                },
                {
                    "name": "D#5",
                    "midi": 75,
                    "time": 214.4249999999998,
                    "velocity": 0.8031496062992126,
                    "duration": 0.30000000000001137
                },
                {
                    "name": "G#4",
                    "midi": 68,
                    "time": 214.72499999999982,
                    "velocity": 0.6771653543307087,
                    "duration": 0.44999999999998863
                },
                {
                    "name": "B4",
                    "midi": 71,
                    "time": 214.72499999999982,
                    "velocity": 0.6771653543307087,
                    "duration": 0.44999999999998863
                },
                {
                    "name": "E5",
                    "midi": 76,
                    "time": 214.72499999999982,
                    "velocity": 0.7559055118110236,
                    "duration": 0.44999999999998863
                },
                {
                    "name": "D#5",
                    "midi": 75,
                    "time": 214.72499999999982,
                    "velocity": 0.7559055118110236,
                    "duration": 0.44999999999998863
                },
                {
                    "name": "G#4",
                    "midi": 68,
                    "time": 216.22499999999982,
                    "velocity": 0.7637795275590551,
                    "duration": 0.5999999999999943
                },
                {
                    "name": "B4",
                    "midi": 71,
                    "time": 216.22499999999982,
                    "velocity": 0.7637795275590551,
                    "duration": 0.5999999999999943
                },
                {
                    "name": "D#5",
                    "midi": 75,
                    "time": 216.22499999999982,
                    "velocity": 0.8503937007874016,
                    "duration": 0.5999999999999943
                },
                {
                    "name": "G#4",
                    "midi": 68,
                    "time": 216.82499999999982,
                    "velocity": 0.7086614173228346,
                    "duration": 0.9000000000000057
                },
                {
                    "name": "B4",
                    "midi": 71,
                    "time": 216.82499999999982,
                    "velocity": 0.7086614173228346,
                    "duration": 0.9000000000000057
                },
                {
                    "name": "E5",
                    "midi": 76,
                    "time": 216.82499999999982,
                    "velocity": 0.7874015748031497,
                    "duration": 0.9000000000000057
                },
                {
                    "name": "D#5",
                    "midi": 75,
                    "time": 216.82499999999982,
                    "velocity": 0.7874015748031497,
                    "duration": 0.9000000000000057
                },
                {
                    "name": "B4",
                    "midi": 71,
                    "time": 218.62499999999983,
                    "velocity": 0.7480314960629921,
                    "duration": 0.30000000000001137
                },
                {
                    "name": "A#4",
                    "midi": 70,
                    "time": 218.92499999999984,
                    "velocity": 0.7637795275590551,
                    "duration": 0.15000000000000568
                },
                {
                    "name": "F4",
                    "midi": 65,
                    "time": 219.07499999999985,
                    "velocity": 0.6535433070866141,
                    "duration": 0.15000000000000568
                },
                {
                    "name": "F#4",
                    "midi": 66,
                    "time": 219.22499999999985,
                    "velocity": 0.6692913385826772,
                    "duration": 0.15000000000000568
                },
                {
                    "name": "A4",
                    "midi": 69,
                    "time": 219.37499999999986,
                    "velocity": 0.6850393700787402,
                    "duration": 0.15000000000000568
                },
                {
                    "name": "A#4",
                    "midi": 70,
                    "time": 219.52499999999986,
                    "velocity": 0.7086614173228346,
                    "duration": 0.15000000000000568
                },
                {
                    "name": "B4",
                    "midi": 71,
                    "time": 219.67499999999987,
                    "velocity": 0.6850393700787402,
                    "duration": 0.15000000000000568
                },
                {
                    "name": "A4",
                    "midi": 69,
                    "time": 219.82499999999987,
                    "velocity": 0.7244094488188977,
                    "duration": 0.15000000000000568
                },
                {
                    "name": "A#4",
                    "midi": 70,
                    "time": 219.97499999999988,
                    "velocity": 0.6850393700787402,
                    "duration": 0.15000000000000568
                },
                {
                    "name": "D5",
                    "midi": 74,
                    "time": 220.1249999999999,
                    "velocity": 0.7007874015748031,
                    "duration": 0.15000000000000568
                },
                {
                    "name": "D#5",
                    "midi": 75,
                    "time": 220.2749999999999,
                    "velocity": 0.7165354330708661,
                    "duration": 0.15000000000000568
                },
                {
                    "name": "F5",
                    "midi": 77,
                    "time": 220.4249999999999,
                    "velocity": 0.7322834645669292,
                    "duration": 0.15000000000000568
                },
                {
                    "name": "F#5",
                    "midi": 78,
                    "time": 220.5749999999999,
                    "velocity": 0.7480314960629921,
                    "duration": 0.15000000000000568
                },
                {
                    "name": "F5",
                    "midi": 77,
                    "time": 220.7249999999999,
                    "velocity": 0.8188976377952756,
                    "duration": 0.15000000000000568
                },
                {
                    "name": "D5",
                    "midi": 74,
                    "time": 220.87499999999991,
                    "velocity": 0.7007874015748031,
                    "duration": 0.15000000000000568
                },
                {
                    "name": "D#5",
                    "midi": 75,
                    "time": 221.02499999999992,
                    "velocity": 0.7244094488188977,
                    "duration": 0.15000000000000568
                },
                {
                    "name": "F5",
                    "midi": 77,
                    "time": 221.17499999999993,
                    "velocity": 0.7480314960629921,
                    "duration": 0.15000000000000568
                },
                {
                    "name": "F#5",
                    "midi": 78,
                    "time": 221.32499999999993,
                    "velocity": 0.7637795275590551,
                    "duration": 0.15000000000000568
                },
                {
                    "name": "A5",
                    "midi": 81,
                    "time": 221.47499999999994,
                    "velocity": 0.7795275590551181,
                    "duration": 0.15000000000000568
                },
                {
                    "name": "A#5",
                    "midi": 82,
                    "time": 221.62499999999994,
                    "velocity": 0.8267716535433071,
                    "duration": 0.15000000000000568
                },
                {
                    "name": "B5",
                    "midi": 83,
                    "time": 221.77499999999995,
                    "velocity": 0.7795275590551181,
                    "duration": 0.15000000000000568
                },
                {
                    "name": "A5",
                    "midi": 81,
                    "time": 221.92499999999995,
                    "velocity": 0.7165354330708661,
                    "duration": 0.15000000000000568
                },
                {
                    "name": "A#5",
                    "midi": 82,
                    "time": 222.07499999999996,
                    "velocity": 0.7401574803149606,
                    "duration": 0.15000000000000568
                },
                {
                    "name": "D6",
                    "midi": 86,
                    "time": 222.22499999999997,
                    "velocity": 0.7637795275590551,
                    "duration": 0.15000000000000568
                },
                {
                    "name": "D#6",
                    "midi": 87,
                    "time": 222.37499999999997,
                    "velocity": 0.7874015748031497,
                    "duration": 0.15000000000000568
                },
                {
                    "name": "D#5",
                    "midi": 75,
                    "time": 222.6375,
                    "velocity": 0.6929133858267716,
                    "duration": 0.3749999999999716
                },
                {
                    "name": "A#5",
                    "midi": 82,
                    "time": 222.67499999999998,
                    "velocity": 0.7874015748031497,
                    "duration": 0.33749999999997726
                },
                {
                    "name": "F#6",
                    "midi": 90,
                    "time": 222.74999999999997,
                    "velocity": 0.889763779527559,
                    "duration": 0.29999999999998295
                }
            ],
            "controlChanges": {
                "7": [
                    {
                        "number": 7,
                        "time": 0,
                        "value": 0.7874015748031497
                    }
                ],
                "10": [
                    {
                        "number": 10,
                        "time": 0,
                        "value": 0.5039370078740157
                    }
                ],
                "91": [
                    {
                        "number": 91,
                        "time": 0,
                        "value": 1
                    },
                    {
                        "number": 91,
                        "time": 0,
                        "value": 1
                    }
                ]
            },
            "id": 1,
            "name": "Piano right",
            "instrumentNumber": 0,
            "instrument": "acoustic grand piano",
            "instrumentFamily": "piano",
            "channelNumber": 0,
            "isPercussion": false
        },
        {
            "startTime": 6.6,
            "duration": 223.01250000000078,
            "length": 786,
            "notes": [
                {
                    "name": "G2",
                    "midi": 43,
                    "time": 6.6,
                    "velocity": 0.4881889763779528,
                    "duration": 0.5999999999999996
                },
                {
                    "name": "G3",
                    "midi": 55,
                    "time": 6.6,
                    "velocity": 0.5826771653543307,
                    "duration": 0.5999999999999996
                },
                {
                    "name": "A2",
                    "midi": 45,
                    "time": 7.199999999999999,
                    "velocity": 0.4566929133858268,
                    "duration": 0.5999999999999996
                },
                {
                    "name": "F3",
                    "midi": 53,
                    "time": 7.199999999999999,
                    "velocity": 0.5433070866141733,
                    "duration": 0.5999999999999996
                },
                {
                    "name": "G2",
                    "midi": 43,
                    "time": 7.799999999999999,
                    "velocity": 0.4566929133858268,
                    "duration": 0.5999999999999996
                },
                {
                    "name": "G3",
                    "midi": 55,
                    "time": 7.799999999999999,
                    "velocity": 0.5433070866141733,
                    "duration": 0.5999999999999996
                },
                {
                    "name": "F2",
                    "midi": 41,
                    "time": 8.399999999999999,
                    "velocity": 0.4409448818897638,
                    "duration": 0.5999999999999996
                },
                {
                    "name": "F3",
                    "midi": 53,
                    "time": 8.399999999999999,
                    "velocity": 0.5196850393700787,
                    "duration": 0.5999999999999996
                },
                {
                    "name": "D2",
                    "midi": 38,
                    "time": 8.999999999999998,
                    "velocity": 0.4015748031496063,
                    "duration": 0.5999999999999996
                },
                {
                    "name": "D3",
                    "midi": 50,
                    "time": 8.999999999999998,
                    "velocity": 0.47244094488188976,
                    "duration": 0.5999999999999996
                },
                {
                    "name": "F2",
                    "midi": 41,
                    "time": 9.599999999999998,
                    "velocity": 0.4566929133858268,
                    "duration": 0.5999999999999996
                },
                {
                    "name": "F3",
                    "midi": 53,
                    "time": 9.599999999999998,
                    "velocity": 0.5433070866141733,
                    "duration": 0.5999999999999996
                },
                {
                    "name": "A#2",
                    "midi": 46,
                    "time": 10.199999999999998,
                    "velocity": 0.4409448818897638,
                    "duration": 0.5999999999999996
                },
                {
                    "name": "A#3",
                    "midi": 58,
                    "time": 10.199999999999998,
                    "velocity": 0.5275590551181102,
                    "duration": 0.5999999999999996
                },
                {
                    "name": "G2",
                    "midi": 43,
                    "time": 10.799999999999997,
                    "velocity": 0.41732283464566927,
                    "duration": 0.5999999999999996
                },
                {
                    "name": "G3",
                    "midi": 55,
                    "time": 10.799999999999997,
                    "velocity": 0.49606299212598426,
                    "duration": 0.5999999999999996
                },
                {
                    "name": "C2",
                    "midi": 36,
                    "time": 11.399999999999997,
                    "velocity": 0.4409448818897638,
                    "duration": 0.5999999999999996
                },
                {
                    "name": "C3",
                    "midi": 48,
                    "time": 11.399999999999997,
                    "velocity": 0.4409448818897638,
                    "duration": 0.5999999999999996
                },
                {
                    "name": "E2",
                    "midi": 40,
                    "time": 11.999999999999996,
                    "velocity": 0.3858267716535433,
                    "duration": 0.5999999999999996
                },
                {
                    "name": "E3",
                    "midi": 52,
                    "time": 11.999999999999996,
                    "velocity": 0.4566929133858268,
                    "duration": 0.5999999999999996
                },
                {
                    "name": "F2",
                    "midi": 41,
                    "time": 12.599999999999996,
                    "velocity": 0.3700787401574803,
                    "duration": 0.5625
                },
                {
                    "name": "F3",
                    "midi": 53,
                    "time": 12.599999999999996,
                    "velocity": 0.4409448818897638,
                    "duration": 0.5625
                },
                {
                    "name": "F3",
                    "midi": 53,
                    "time": 17.399999999999995,
                    "velocity": 0.5748031496062992,
                    "duration": 0.6000000000000014
                },
                {
                    "name": "F2",
                    "midi": 41,
                    "time": 17.399999999999995,
                    "velocity": 0.4881889763779528,
                    "duration": 0.6000000000000014
                },
                {
                    "name": "A#3",
                    "midi": 58,
                    "time": 17.999999999999996,
                    "velocity": 0.5433070866141733,
                    "duration": 0.6000000000000014
                },
                {
                    "name": "A#2",
                    "midi": 46,
                    "time": 17.999999999999996,
                    "velocity": 0.4566929133858268,
                    "duration": 0.6000000000000014
                },
                {
                    "name": "G3",
                    "midi": 55,
                    "time": 18.599999999999998,
                    "velocity": 0.5275590551181102,
                    "duration": 0.6000000000000014
                },
                {
                    "name": "G2",
                    "midi": 43,
                    "time": 18.599999999999998,
                    "velocity": 0.4409448818897638,
                    "duration": 0.6000000000000014
                },
                {
                    "name": "F3",
                    "midi": 53,
                    "time": 19.2,
                    "velocity": 0.48031496062992124,
                    "duration": 0.5625
                },
                {
                    "name": "F2",
                    "midi": 41,
                    "time": 19.2,
                    "velocity": 0.4015748031496063,
                    "duration": 0.5625
                },
                {
                    "name": "G#3",
                    "midi": 56,
                    "time": 24,
                    "velocity": 0.5748031496062992,
                    "duration": 0.6000000000000014
                },
                {
                    "name": "G#2",
                    "midi": 44,
                    "time": 24,
                    "velocity": 0.4881889763779528,
                    "duration": 0.6000000000000014
                },
                {
                    "name": "C#4",
                    "midi": 61,
                    "time": 24.6,
                    "velocity": 0.5354330708661418,
                    "duration": 0.6000000000000014
                },
                {
                    "name": "C#3",
                    "midi": 49,
                    "time": 24.6,
                    "velocity": 0.44881889763779526,
                    "duration": 0.6000000000000014
                },
                {
                    "name": "A#3",
                    "midi": 58,
                    "time": 25.200000000000003,
                    "velocity": 0.5275590551181102,
                    "duration": 0.6000000000000014
                },
                {
                    "name": "A#2",
                    "midi": 46,
                    "time": 25.200000000000003,
                    "velocity": 0.4409448818897638,
                    "duration": 0.6000000000000014
                },
                {
                    "name": "G#3",
                    "midi": 56,
                    "time": 25.800000000000004,
                    "velocity": 0.5039370078740157,
                    "duration": 0.5625
                },
                {
                    "name": "G#2",
                    "midi": 44,
                    "time": 25.800000000000004,
                    "velocity": 0.4251968503937008,
                    "duration": 0.5625
                },
                {
                    "name": "F#2",
                    "midi": 42,
                    "time": 26.400000000000006,
                    "velocity": 0.29133858267716534,
                    "duration": 1.1999999999999993
                },
                {
                    "name": "F#1",
                    "midi": 30,
                    "time": 26.400000000000006,
                    "velocity": 0.2440944881889764,
                    "duration": 1.1999999999999993
                },
                {
                    "name": "F1",
                    "midi": 29,
                    "time": 27.600000000000005,
                    "velocity": 0.2204724409448819,
                    "duration": 0.6000000000000014
                },
                {
                    "name": "F2",
                    "midi": 41,
                    "time": 27.600000000000005,
                    "velocity": 0.2677165354330709,
                    "duration": 0.6000000000000014
                },
                {
                    "name": "F#1",
                    "midi": 30,
                    "time": 28.200000000000006,
                    "velocity": 0.2440944881889764,
                    "duration": 0.6000000000000014
                },
                {
                    "name": "F#2",
                    "midi": 42,
                    "time": 28.200000000000006,
                    "velocity": 0.29133858267716534,
                    "duration": 0.6000000000000014
                },
                {
                    "name": "F#1",
                    "midi": 30,
                    "time": 28.800000000000008,
                    "velocity": 0.2204724409448819,
                    "duration": 0.6000000000000014
                },
                {
                    "name": "F#2",
                    "midi": 42,
                    "time": 28.800000000000008,
                    "velocity": 0.2677165354330709,
                    "duration": 0.6000000000000014
                },
                {
                    "name": "F#2",
                    "midi": 42,
                    "time": 29.40000000000001,
                    "velocity": 0.2204724409448819,
                    "duration": 0.5625
                },
                {
                    "name": "F#3",
                    "midi": 54,
                    "time": 29.40000000000001,
                    "velocity": 0.25984251968503935,
                    "duration": 0.5625
                },
                {
                    "name": "F2",
                    "midi": 41,
                    "time": 30.00000000000001,
                    "velocity": 0.36220472440944884,
                    "duration": 0.3000000000000007
                },
                {
                    "name": "F3",
                    "midi": 53,
                    "time": 30.00000000000001,
                    "velocity": 0.4330708661417323,
                    "duration": 0.3000000000000007
                },
                {
                    "name": "D#3",
                    "midi": 51,
                    "time": 30.30000000000001,
                    "velocity": 0.3937007874015748,
                    "duration": 0.3000000000000007
                },
                {
                    "name": "D#2",
                    "midi": 39,
                    "time": 30.30000000000001,
                    "velocity": 0.33070866141732286,
                    "duration": 0.3000000000000007
                },
                {
                    "name": "C#2",
                    "midi": 37,
                    "time": 30.600000000000012,
                    "velocity": 0.36220472440944884,
                    "duration": 0.6000000000000014
                },
                {
                    "name": "C#3",
                    "midi": 49,
                    "time": 30.600000000000012,
                    "velocity": 0.4330708661417323,
                    "duration": 0.6000000000000014
                },
                {
                    "name": "D#2",
                    "midi": 39,
                    "time": 31.200000000000014,
                    "velocity": 0.3700787401574803,
                    "duration": 0.3000000000000007
                },
                {
                    "name": "D#3",
                    "midi": 51,
                    "time": 31.200000000000014,
                    "velocity": 0.4409448818897638,
                    "duration": 0.3000000000000007
                },
                {
                    "name": "F2",
                    "midi": 41,
                    "time": 31.500000000000014,
                    "velocity": 0.33858267716535434,
                    "duration": 0.3000000000000007
                },
                {
                    "name": "F3",
                    "midi": 53,
                    "time": 31.500000000000014,
                    "velocity": 0.4015748031496063,
                    "duration": 0.3000000000000007
                },
                {
                    "name": "G#3",
                    "midi": 56,
                    "time": 31.800000000000015,
                    "velocity": 0.4409448818897638,
                    "duration": 0.5999999999999979
                },
                {
                    "name": "G#2",
                    "midi": 44,
                    "time": 31.800000000000015,
                    "velocity": 0.3700787401574803,
                    "duration": 0.5999999999999979
                },
                {
                    "name": "A#3",
                    "midi": 58,
                    "time": 32.40000000000001,
                    "velocity": 0.36220472440944884,
                    "duration": 0.6000000000000014
                },
                {
                    "name": "A#2",
                    "midi": 46,
                    "time": 32.40000000000001,
                    "velocity": 0.30708661417322836,
                    "duration": 0.6000000000000014
                },
                {
                    "name": "G#2",
                    "midi": 44,
                    "time": 33.000000000000014,
                    "velocity": 0.29133858267716534,
                    "duration": 0.5625
                },
                {
                    "name": "G#3",
                    "midi": 56,
                    "time": 33.000000000000014,
                    "velocity": 0.3464566929133858,
                    "duration": 0.5625
                },
                {
                    "name": "F#1",
                    "midi": 30,
                    "time": 33.600000000000016,
                    "velocity": 0.2283464566929134,
                    "duration": 1.2000000000000028
                },
                {
                    "name": "F#2",
                    "midi": 42,
                    "time": 33.600000000000016,
                    "velocity": 0.2755905511811024,
                    "duration": 1.2000000000000028
                },
                {
                    "name": "F1",
                    "midi": 29,
                    "time": 34.80000000000002,
                    "velocity": 0.2440944881889764,
                    "duration": 0.6000000000000014
                },
                {
                    "name": "F2",
                    "midi": 41,
                    "time": 34.80000000000002,
                    "velocity": 0.29133858267716534,
                    "duration": 0.6000000000000014
                },
                {
                    "name": "F#1",
                    "midi": 30,
                    "time": 35.40000000000002,
                    "velocity": 0.2440944881889764,
                    "duration": 0.6000000000000014
                },
                {
                    "name": "F#2",
                    "midi": 42,
                    "time": 35.40000000000002,
                    "velocity": 0.2992125984251969,
                    "duration": 0.6000000000000014
                },
                {
                    "name": "F#2",
                    "midi": 42,
                    "time": 36.00000000000002,
                    "velocity": 0.29133858267716534,
                    "duration": 0.29999999999999716
                },
                {
                    "name": "F#3",
                    "midi": 54,
                    "time": 36.00000000000002,
                    "velocity": 0.3464566929133858,
                    "duration": 0.29999999999999716
                },
                {
                    "name": "A#2",
                    "midi": 46,
                    "time": 36.600000000000016,
                    "velocity": 0.3228346456692913,
                    "duration": 1.2000000000000028
                },
                {
                    "name": "A#1",
                    "midi": 34,
                    "time": 36.600000000000016,
                    "velocity": 0.2677165354330709,
                    "duration": 1.2000000000000028
                },
                {
                    "name": "A2",
                    "midi": 45,
                    "time": 37.80000000000002,
                    "velocity": 0.31496062992125984,
                    "duration": 0.6000000000000014
                },
                {
                    "name": "A1",
                    "midi": 33,
                    "time": 37.80000000000002,
                    "velocity": 0.2677165354330709,
                    "duration": 0.6000000000000014
                },
                {
                    "name": "A#2",
                    "midi": 46,
                    "time": 38.40000000000002,
                    "velocity": 0.33070866141732286,
                    "duration": 0.6000000000000014
                },
                {
                    "name": "A#1",
                    "midi": 34,
                    "time": 38.40000000000002,
                    "velocity": 0.2755905511811024,
                    "duration": 0.6000000000000014
                },
                {
                    "name": "A#2",
                    "midi": 46,
                    "time": 39.00000000000002,
                    "velocity": 0.3228346456692913,
                    "duration": 0.6000000000000014
                },
                {
                    "name": "A#1",
                    "midi": 34,
                    "time": 39.00000000000002,
                    "velocity": 0.2677165354330709,
                    "duration": 0.6000000000000014
                },
                {
                    "name": "A#3",
                    "midi": 58,
                    "time": 39.60000000000002,
                    "velocity": 0.3228346456692913,
                    "duration": 0.5625
                },
                {
                    "name": "A#2",
                    "midi": 46,
                    "time": 39.60000000000002,
                    "velocity": 0.2677165354330709,
                    "duration": 0.5625
                },
                {
                    "name": "A3",
                    "midi": 57,
                    "time": 40.200000000000024,
                    "velocity": 0.4881889763779528,
                    "duration": 0.29999999999999716
                },
                {
                    "name": "A2",
                    "midi": 45,
                    "time": 40.200000000000024,
                    "velocity": 0.4094488188976378,
                    "duration": 0.29999999999999716
                },
                {
                    "name": "G3",
                    "midi": 55,
                    "time": 40.50000000000002,
                    "velocity": 0.4409448818897638,
                    "duration": 0.29999999999999716
                },
                {
                    "name": "G2",
                    "midi": 43,
                    "time": 40.50000000000002,
                    "velocity": 0.3700787401574803,
                    "duration": 0.29999999999999716
                },
                {
                    "name": "F2",
                    "midi": 41,
                    "time": 40.80000000000002,
                    "velocity": 0.4015748031496063,
                    "duration": 0.6000000000000014
                },
                {
                    "name": "F3",
                    "midi": 53,
                    "time": 40.80000000000002,
                    "velocity": 0.48031496062992124,
                    "duration": 0.6000000000000014
                },
                {
                    "name": "G3",
                    "midi": 55,
                    "time": 41.40000000000002,
                    "velocity": 0.48031496062992124,
                    "duration": 0.29999999999999716
                },
                {
                    "name": "G2",
                    "midi": 43,
                    "time": 41.40000000000002,
                    "velocity": 0.4015748031496063,
                    "duration": 0.29999999999999716
                },
                {
                    "name": "A2",
                    "midi": 45,
                    "time": 41.70000000000002,
                    "velocity": 0.3700787401574803,
                    "duration": 0.29999999999999716
                },
                {
                    "name": "A3",
                    "midi": 57,
                    "time": 41.70000000000002,
                    "velocity": 0.4409448818897638,
                    "duration": 0.29999999999999716
                },
                {
                    "name": "C4",
                    "midi": 60,
                    "time": 42.000000000000014,
                    "velocity": 0.4881889763779528,
                    "duration": 0.6000000000000014
                },
                {
                    "name": "C3",
                    "midi": 48,
                    "time": 42.000000000000014,
                    "velocity": 0.4094488188976378,
                    "duration": 0.6000000000000014
                },
                {
                    "name": "D3",
                    "midi": 50,
                    "time": 42.600000000000016,
                    "velocity": 0.4015748031496063,
                    "duration": 0.6000000000000014
                },
                {
                    "name": "D4",
                    "midi": 62,
                    "time": 42.600000000000016,
                    "velocity": 0.47244094488188976,
                    "duration": 0.6000000000000014
                },
                {
                    "name": "C3",
                    "midi": 48,
                    "time": 43.20000000000002,
                    "velocity": 0.3858267716535433,
                    "duration": 0.5625
                },
                {
                    "name": "C4",
                    "midi": 60,
                    "time": 43.20000000000002,
                    "velocity": 0.4566929133858268,
                    "duration": 0.5625
                },
                {
                    "name": "A3",
                    "midi": 57,
                    "time": 43.80000000000002,
                    "velocity": 0.33858267716535434,
                    "duration": 0.6000000000000014
                },
                {
                    "name": "A2",
                    "midi": 45,
                    "time": 43.80000000000002,
                    "velocity": 0.28346456692913385,
                    "duration": 0.6000000000000014
                },
                {
                    "name": "A#2",
                    "midi": 46,
                    "time": 44.40000000000002,
                    "velocity": 0.25984251968503935,
                    "duration": 0.6000000000000014
                },
                {
                    "name": "A#3",
                    "midi": 58,
                    "time": 44.40000000000002,
                    "velocity": 0.30708661417322836,
                    "duration": 0.6000000000000014
                },
                {
                    "name": "F3",
                    "midi": 53,
                    "time": 45.00000000000002,
                    "velocity": 0.33858267716535434,
                    "duration": 0.6000000000000014
                },
                {
                    "name": "F2",
                    "midi": 41,
                    "time": 45.00000000000002,
                    "velocity": 0.28346456692913385,
                    "duration": 0.6000000000000014
                },
                {
                    "name": "G3",
                    "midi": 55,
                    "time": 45.60000000000002,
                    "velocity": 0.29133858267716534,
                    "duration": 0.6000000000000014
                },
                {
                    "name": "G2",
                    "midi": 43,
                    "time": 45.60000000000002,
                    "velocity": 0.2440944881889764,
                    "duration": 0.6000000000000014
                },
                {
                    "name": "F3",
                    "midi": 53,
                    "time": 46.200000000000024,
                    "velocity": 0.33070866141732286,
                    "duration": 0.6000000000000014
                },
                {
                    "name": "F2",
                    "midi": 41,
                    "time": 46.200000000000024,
                    "velocity": 0.2755905511811024,
                    "duration": 0.6000000000000014
                },
                {
                    "name": "G3",
                    "midi": 55,
                    "time": 46.800000000000026,
                    "velocity": 0.29133858267716534,
                    "duration": 0.6000000000000014
                },
                {
                    "name": "G2",
                    "midi": 43,
                    "time": 46.800000000000026,
                    "velocity": 0.2440944881889764,
                    "duration": 0.6000000000000014
                },
                {
                    "name": "D3",
                    "midi": 50,
                    "time": 47.40000000000003,
                    "velocity": 0.3464566929133858,
                    "duration": 0.6000000000000014
                },
                {
                    "name": "D2",
                    "midi": 38,
                    "time": 47.40000000000003,
                    "velocity": 0.29133858267716534,
                    "duration": 0.6000000000000014
                },
                {
                    "name": "G3",
                    "midi": 55,
                    "time": 48.00000000000003,
                    "velocity": 0.3228346456692913,
                    "duration": 0.6000000000000014
                },
                {
                    "name": "G2",
                    "midi": 43,
                    "time": 48.00000000000003,
                    "velocity": 0.2677165354330709,
                    "duration": 0.6000000000000014
                },
                {
                    "name": "D3",
                    "midi": 50,
                    "time": 48.60000000000003,
                    "velocity": 0.3464566929133858,
                    "duration": 0.6000000000000014
                },
                {
                    "name": "D2",
                    "midi": 38,
                    "time": 48.60000000000003,
                    "velocity": 0.29133858267716534,
                    "duration": 0.6000000000000014
                },
                {
                    "name": "G3",
                    "midi": 55,
                    "time": 49.20000000000003,
                    "velocity": 0.2755905511811024,
                    "duration": 0.6000000000000014
                },
                {
                    "name": "G2",
                    "midi": 43,
                    "time": 49.20000000000003,
                    "velocity": 0.2283464566929134,
                    "duration": 0.6000000000000014
                },
                {
                    "name": "D3",
                    "midi": 50,
                    "time": 49.80000000000003,
                    "velocity": 0.3464566929133858,
                    "duration": 0.6000000000000014
                },
                {
                    "name": "D2",
                    "midi": 38,
                    "time": 49.80000000000003,
                    "velocity": 0.29133858267716534,
                    "duration": 0.6000000000000014
                },
                {
                    "name": "G3",
                    "midi": 55,
                    "time": 50.400000000000034,
                    "velocity": 0.31496062992125984,
                    "duration": 0.5625
                },
                {
                    "name": "G2",
                    "midi": 43,
                    "time": 50.400000000000034,
                    "velocity": 0.2677165354330709,
                    "duration": 0.5625
                },
                {
                    "name": "C3",
                    "midi": 48,
                    "time": 51.000000000000036,
                    "velocity": 0.33858267716535434,
                    "duration": 0.6000000000000014
                },
                {
                    "name": "C2",
                    "midi": 36,
                    "time": 51.000000000000036,
                    "velocity": 0.28346456692913385,
                    "duration": 0.6000000000000014
                },
                {
                    "name": "F2",
                    "midi": 41,
                    "time": 51.60000000000004,
                    "velocity": 0.2677165354330709,
                    "duration": 0.6000000000000014
                },
                {
                    "name": "F3",
                    "midi": 53,
                    "time": 51.60000000000004,
                    "velocity": 0.3228346456692913,
                    "duration": 0.6000000000000014
                },
                {
                    "name": "G2",
                    "midi": 43,
                    "time": 52.20000000000004,
                    "velocity": 0.2283464566929134,
                    "duration": 0.6000000000000014
                },
                {
                    "name": "G3",
                    "midi": 55,
                    "time": 52.20000000000004,
                    "velocity": 0.2755905511811024,
                    "duration": 0.6000000000000014
                },
                {
                    "name": "C3",
                    "midi": 48,
                    "time": 52.80000000000004,
                    "velocity": 0.33070866141732286,
                    "duration": 0.6000000000000014
                },
                {
                    "name": "C2",
                    "midi": 36,
                    "time": 52.80000000000004,
                    "velocity": 0.2755905511811024,
                    "duration": 0.6000000000000014
                },
                {
                    "name": "F2",
                    "midi": 41,
                    "time": 53.40000000000004,
                    "velocity": 0.2677165354330709,
                    "duration": 0.6000000000000014
                },
                {
                    "name": "F3",
                    "midi": 53,
                    "time": 53.40000000000004,
                    "velocity": 0.31496062992125984,
                    "duration": 0.6000000000000014
                },
                {
                    "name": "G3",
                    "midi": 55,
                    "time": 54.00000000000004,
                    "velocity": 0.3228346456692913,
                    "duration": 0.6000000000000014
                },
                {
                    "name": "G2",
                    "midi": 43,
                    "time": 54.00000000000004,
                    "velocity": 0.2677165354330709,
                    "duration": 0.6000000000000014
                },
                {
                    "name": "C3",
                    "midi": 48,
                    "time": 54.600000000000044,
                    "velocity": 0.33070866141732286,
                    "duration": 0.6000000000000014
                },
                {
                    "name": "C2",
                    "midi": 36,
                    "time": 54.600000000000044,
                    "velocity": 0.2755905511811024,
                    "duration": 0.6000000000000014
                },
                {
                    "name": "F2",
                    "midi": 41,
                    "time": 55.200000000000045,
                    "velocity": 0.2755905511811024,
                    "duration": 0.6000000000000014
                },
                {
                    "name": "C3",
                    "midi": 48,
                    "time": 55.80000000000005,
                    "velocity": 0.30708661417322836,
                    "duration": 0.5625
                },
                {
                    "name": "C2",
                    "midi": 36,
                    "time": 55.80000000000005,
                    "velocity": 0.25984251968503935,
                    "duration": 0.5625
                },
                {
                    "name": "F2",
                    "midi": 41,
                    "time": 56.40000000000005,
                    "velocity": 0.5275590551181102,
                    "duration": 0.6000000000000014
                },
                {
                    "name": "F1",
                    "midi": 29,
                    "time": 56.40000000000005,
                    "velocity": 0.4409448818897638,
                    "duration": 0.6000000000000014
                },
                {
                    "name": "G2",
                    "midi": 43,
                    "time": 57.00000000000005,
                    "velocity": 0.5275590551181102,
                    "duration": 0.6000000000000014
                },
                {
                    "name": "G1",
                    "midi": 31,
                    "time": 57.00000000000005,
                    "velocity": 0.4409448818897638,
                    "duration": 0.6000000000000014
                },
                {
                    "name": "A2",
                    "midi": 45,
                    "time": 57.60000000000005,
                    "velocity": 0.4881889763779528,
                    "duration": 0.29999999999999716
                },
                {
                    "name": "A1",
                    "midi": 33,
                    "time": 57.60000000000005,
                    "velocity": 0.4094488188976378,
                    "duration": 0.29999999999999716
                },
                {
                    "name": "A#2",
                    "midi": 46,
                    "time": 57.90000000000005,
                    "velocity": 0.4409448818897638,
                    "duration": 0.29999999999999716
                },
                {
                    "name": "A#1",
                    "midi": 34,
                    "time": 57.90000000000005,
                    "velocity": 0.3700787401574803,
                    "duration": 0.29999999999999716
                },
                {
                    "name": "A2",
                    "midi": 45,
                    "time": 58.200000000000045,
                    "velocity": 0.5039370078740157,
                    "duration": 0.6000000000000014
                },
                {
                    "name": "A1",
                    "midi": 33,
                    "time": 58.200000000000045,
                    "velocity": 0.4251968503937008,
                    "duration": 0.6000000000000014
                },
                {
                    "name": "A#1",
                    "midi": 34,
                    "time": 58.80000000000005,
                    "velocity": 0.4409448818897638,
                    "duration": 0.6000000000000014
                },
                {
                    "name": "A#2",
                    "midi": 46,
                    "time": 58.80000000000005,
                    "velocity": 0.5196850393700787,
                    "duration": 0.6000000000000014
                },
                {
                    "name": "A2",
                    "midi": 45,
                    "time": 59.40000000000005,
                    "velocity": 0.5196850393700787,
                    "duration": 0.6000000000000014
                },
                {
                    "name": "A1",
                    "midi": 33,
                    "time": 59.40000000000005,
                    "velocity": 0.4409448818897638,
                    "duration": 0.6000000000000014
                },
                {
                    "name": "G2",
                    "midi": 43,
                    "time": 60.00000000000005,
                    "velocity": 0.49606299212598426,
                    "duration": 0.6000000000000014
                },
                {
                    "name": "G1",
                    "midi": 31,
                    "time": 60.00000000000005,
                    "velocity": 0.41732283464566927,
                    "duration": 0.6000000000000014
                },
                {
                    "name": "F1",
                    "midi": 29,
                    "time": 60.60000000000005,
                    "velocity": 0.4409448818897638,
                    "duration": 0.5625
                },
                {
                    "name": "F2",
                    "midi": 41,
                    "time": 60.60000000000005,
                    "velocity": 0.5196850393700787,
                    "duration": 0.5625
                },
                {
                    "name": "G2",
                    "midi": 43,
                    "time": 61.20000000000005,
                    "velocity": 0.5275590551181102,
                    "duration": 0.6000000000000014
                },
                {
                    "name": "G1",
                    "midi": 31,
                    "time": 61.20000000000005,
                    "velocity": 0.4409448818897638,
                    "duration": 0.6000000000000014
                },
                {
                    "name": "F2",
                    "midi": 41,
                    "time": 61.800000000000054,
                    "velocity": 0.5275590551181102,
                    "duration": 0.6000000000000014
                },
                {
                    "name": "F1",
                    "midi": 29,
                    "time": 61.800000000000054,
                    "velocity": 0.4409448818897638,
                    "duration": 0.6000000000000014
                },
                {
                    "name": "G1",
                    "midi": 31,
                    "time": 62.400000000000055,
                    "velocity": 0.41732283464566927,
                    "duration": 0.6000000000000014
                },
                {
                    "name": "G2",
                    "midi": 43,
                    "time": 62.400000000000055,
                    "velocity": 0.49606299212598426,
                    "duration": 0.6000000000000014
                },
                {
                    "name": "A2",
                    "midi": 45,
                    "time": 63.00000000000006,
                    "velocity": 0.4881889763779528,
                    "duration": 0.29999999999999716
                },
                {
                    "name": "A1",
                    "midi": 33,
                    "time": 63.00000000000006,
                    "velocity": 0.4094488188976378,
                    "duration": 0.29999999999999716
                },
                {
                    "name": "A#2",
                    "midi": 46,
                    "time": 63.300000000000054,
                    "velocity": 0.4330708661417323,
                    "duration": 0.29999999999999716
                },
                {
                    "name": "A#1",
                    "midi": 34,
                    "time": 63.300000000000054,
                    "velocity": 0.36220472440944884,
                    "duration": 0.29999999999999716
                },
                {
                    "name": "A2",
                    "midi": 45,
                    "time": 63.60000000000005,
                    "velocity": 0.4881889763779528,
                    "duration": 0.5999999999999943
                },
                {
                    "name": "A1",
                    "midi": 33,
                    "time": 63.60000000000005,
                    "velocity": 0.4094488188976378,
                    "duration": 0.5999999999999943
                },
                {
                    "name": "A#1",
                    "midi": 34,
                    "time": 64.20000000000005,
                    "velocity": 0.44881889763779526,
                    "duration": 0.5999999999999943
                },
                {
                    "name": "A#2",
                    "midi": 46,
                    "time": 64.20000000000005,
                    "velocity": 0.5354330708661418,
                    "duration": 0.5999999999999943
                },
                {
                    "name": "A1",
                    "midi": 33,
                    "time": 64.80000000000004,
                    "velocity": 0.44881889763779526,
                    "duration": 0.5999999999999943
                },
                {
                    "name": "A2",
                    "midi": 45,
                    "time": 64.80000000000004,
                    "velocity": 0.5354330708661418,
                    "duration": 0.5999999999999943
                },
                {
                    "name": "G1",
                    "midi": 31,
                    "time": 65.40000000000003,
                    "velocity": 0.4566929133858268,
                    "duration": 0.5999999999999943
                },
                {
                    "name": "G2",
                    "midi": 43,
                    "time": 65.40000000000003,
                    "velocity": 0.5433070866141733,
                    "duration": 0.5999999999999943
                },
                {
                    "name": "F1",
                    "midi": 29,
                    "time": 66.00000000000003,
                    "velocity": 0.4409448818897638,
                    "duration": 0.5625
                },
                {
                    "name": "F2",
                    "midi": 41,
                    "time": 66.00000000000003,
                    "velocity": 0.5196850393700787,
                    "duration": 0.5625
                },
                {
                    "name": "G2",
                    "midi": 43,
                    "time": 66.60000000000002,
                    "velocity": 0.5433070866141733,
                    "duration": 0.5999999999999943
                },
                {
                    "name": "G1",
                    "midi": 31,
                    "time": 66.60000000000002,
                    "velocity": 0.4566929133858268,
                    "duration": 0.5999999999999943
                },
                {
                    "name": "F1",
                    "midi": 29,
                    "time": 67.20000000000002,
                    "velocity": 0.4409448818897638,
                    "duration": 0.5875000000000057
                },
                {
                    "name": "F2",
                    "midi": 41,
                    "time": 67.20000000000002,
                    "velocity": 0.5196850393700787,
                    "duration": 0.5875000000000057
                },
                {
                    "name": "G3",
                    "midi": 55,
                    "time": 67.80000000000003,
                    "velocity": 0.5433070866141733,
                    "duration": 0.5999999999999943
                },
                {
                    "name": "F3",
                    "midi": 53,
                    "time": 68.40000000000002,
                    "velocity": 0.5354330708661418,
                    "duration": 0.5999999999999943
                },
                {
                    "name": "C2",
                    "midi": 36,
                    "time": 69.00000000000001,
                    "velocity": 0.4409448818897638,
                    "duration": 0.5999999999999943
                },
                {
                    "name": "C3",
                    "midi": 48,
                    "time": 69.00000000000001,
                    "velocity": 0.5275590551181102,
                    "duration": 0.5999999999999943
                },
                {
                    "name": "F1",
                    "midi": 29,
                    "time": 69.60000000000001,
                    "velocity": 0.4015748031496063,
                    "duration": 0.5625
                },
                {
                    "name": "F2",
                    "midi": 41,
                    "time": 69.60000000000001,
                    "velocity": 0.48031496062992124,
                    "duration": 0.5625
                },
                {
                    "name": "G1",
                    "midi": 31,
                    "time": 70.2,
                    "velocity": 0.4094488188976378,
                    "duration": 0.5999999999999943
                },
                {
                    "name": "G2",
                    "midi": 43,
                    "time": 70.2,
                    "velocity": 0.4881889763779528,
                    "duration": 0.5999999999999943
                },
                {
                    "name": "F1",
                    "midi": 29,
                    "time": 70.8,
                    "velocity": 0.4409448818897638,
                    "duration": 0.5625
                },
                {
                    "name": "F2",
                    "midi": 41,
                    "time": 70.8,
                    "velocity": 0.5275590551181102,
                    "duration": 0.5625
                },
                {
                    "name": "D#2",
                    "midi": 39,
                    "time": 71.39999999999999,
                    "velocity": 0.4409448818897638,
                    "duration": 0.5999999999999943
                },
                {
                    "name": "D#3",
                    "midi": 51,
                    "time": 71.39999999999999,
                    "velocity": 0.5275590551181102,
                    "duration": 0.5999999999999943
                },
                {
                    "name": "F2",
                    "midi": 41,
                    "time": 71.99999999999999,
                    "velocity": 0.4409448818897638,
                    "duration": 0.5999999999999943
                },
                {
                    "name": "F3",
                    "midi": 53,
                    "time": 71.99999999999999,
                    "velocity": 0.5275590551181102,
                    "duration": 0.5999999999999943
                },
                {
                    "name": "D2",
                    "midi": 38,
                    "time": 72.59999999999998,
                    "velocity": 0.4409448818897638,
                    "duration": 0.5999999999999943
                },
                {
                    "name": "D3",
                    "midi": 50,
                    "time": 72.59999999999998,
                    "velocity": 0.5196850393700787,
                    "duration": 0.5999999999999943
                },
                {
                    "name": "C2",
                    "midi": 36,
                    "time": 73.19999999999997,
                    "velocity": 0.44881889763779526,
                    "duration": 0.5999999999999943
                },
                {
                    "name": "C3",
                    "midi": 48,
                    "time": 73.19999999999997,
                    "velocity": 0.5354330708661418,
                    "duration": 0.5999999999999943
                },
                {
                    "name": "A#2",
                    "midi": 46,
                    "time": 73.79999999999997,
                    "velocity": 0.4881889763779528,
                    "duration": 0.5999999999999943
                },
                {
                    "name": "A#1",
                    "midi": 34,
                    "time": 73.79999999999997,
                    "velocity": 0.4094488188976378,
                    "duration": 0.5999999999999943
                },
                {
                    "name": "A2",
                    "midi": 45,
                    "time": 74.39999999999996,
                    "velocity": 0.5354330708661418,
                    "duration": 0.5999999999999943
                },
                {
                    "name": "A1",
                    "midi": 33,
                    "time": 74.39999999999996,
                    "velocity": 0.44881889763779526,
                    "duration": 0.5999999999999943
                },
                {
                    "name": "G2",
                    "midi": 43,
                    "time": 74.99999999999996,
                    "velocity": 0.4881889763779528,
                    "duration": 0.5999999999999943
                },
                {
                    "name": "G1",
                    "midi": 31,
                    "time": 74.99999999999996,
                    "velocity": 0.4094488188976378,
                    "duration": 0.5999999999999943
                },
                {
                    "name": "G3",
                    "midi": 55,
                    "time": 75.59999999999995,
                    "velocity": 0.4881889763779528,
                    "duration": 0.5999999999999943
                },
                {
                    "name": "G2",
                    "midi": 43,
                    "time": 75.59999999999995,
                    "velocity": 0.4094488188976378,
                    "duration": 0.5999999999999943
                },
                {
                    "name": "C3",
                    "midi": 48,
                    "time": 76.19999999999995,
                    "velocity": 0.5039370078740157,
                    "duration": 0.5999999999999943
                },
                {
                    "name": "C2",
                    "midi": 36,
                    "time": 76.19999999999995,
                    "velocity": 0.4251968503937008,
                    "duration": 0.5999999999999943
                },
                {
                    "name": "E2",
                    "midi": 40,
                    "time": 76.79999999999994,
                    "velocity": 0.3858267716535433,
                    "duration": 0.5999999999999943
                },
                {
                    "name": "E3",
                    "midi": 52,
                    "time": 76.79999999999994,
                    "velocity": 0.4566929133858268,
                    "duration": 0.5999999999999943
                },
                {
                    "name": "F3",
                    "midi": 53,
                    "time": 77.39999999999993,
                    "velocity": 0.44881889763779526,
                    "duration": 0.5625
                },
                {
                    "name": "F2",
                    "midi": 41,
                    "time": 77.39999999999993,
                    "velocity": 0.3779527559055118,
                    "duration": 0.5625
                },
                {
                    "name": "A#2",
                    "midi": 46,
                    "time": 77.99999999999993,
                    "velocity": 0.5433070866141733,
                    "duration": 0.5999999999999943
                },
                {
                    "name": "A#1",
                    "midi": 34,
                    "time": 77.99999999999993,
                    "velocity": 0.4566929133858268,
                    "duration": 0.5999999999999943
                },
                {
                    "name": "A2",
                    "midi": 45,
                    "time": 78.59999999999992,
                    "velocity": 0.5196850393700787,
                    "duration": 0.5999999999999943
                },
                {
                    "name": "A1",
                    "midi": 33,
                    "time": 78.59999999999992,
                    "velocity": 0.4409448818897638,
                    "duration": 0.5999999999999943
                },
                {
                    "name": "G2",
                    "midi": 43,
                    "time": 79.19999999999992,
                    "velocity": 0.5275590551181102,
                    "duration": 0.5999999999999943
                },
                {
                    "name": "G1",
                    "midi": 31,
                    "time": 79.19999999999992,
                    "velocity": 0.4409448818897638,
                    "duration": 0.5999999999999943
                },
                {
                    "name": "F2",
                    "midi": 41,
                    "time": 79.79999999999991,
                    "velocity": 0.5354330708661418,
                    "duration": 0.5999999999999943
                },
                {
                    "name": "F1",
                    "midi": 29,
                    "time": 79.79999999999991,
                    "velocity": 0.44881889763779526,
                    "duration": 0.5999999999999943
                },
                {
                    "name": "A#2",
                    "midi": 46,
                    "time": 80.3999999999999,
                    "velocity": 0.5039370078740157,
                    "duration": 0.5999999999999943
                },
                {
                    "name": "A#1",
                    "midi": 34,
                    "time": 80.3999999999999,
                    "velocity": 0.4251968503937008,
                    "duration": 0.5999999999999943
                },
                {
                    "name": "G3",
                    "midi": 55,
                    "time": 80.9999999999999,
                    "velocity": 0.5354330708661418,
                    "duration": 0.5999999999999943
                },
                {
                    "name": "G2",
                    "midi": 43,
                    "time": 80.9999999999999,
                    "velocity": 0.44881889763779526,
                    "duration": 0.5999999999999943
                },
                {
                    "name": "C3",
                    "midi": 48,
                    "time": 81.5999999999999,
                    "velocity": 0.5039370078740157,
                    "duration": 0.5999999999999943
                },
                {
                    "name": "C2",
                    "midi": 36,
                    "time": 81.5999999999999,
                    "velocity": 0.4251968503937008,
                    "duration": 0.5999999999999943
                },
                {
                    "name": "F3",
                    "midi": 53,
                    "time": 82.19999999999989,
                    "velocity": 0.47244094488188976,
                    "duration": 0.5999999999999943
                },
                {
                    "name": "F2",
                    "midi": 41,
                    "time": 82.19999999999989,
                    "velocity": 0.4015748031496063,
                    "duration": 0.5999999999999943
                },
                {
                    "name": "A#3",
                    "midi": 58,
                    "time": 82.79999999999988,
                    "velocity": 0.4881889763779528,
                    "duration": 0.5999999999999943
                },
                {
                    "name": "A#2",
                    "midi": 46,
                    "time": 82.79999999999988,
                    "velocity": 0.4094488188976378,
                    "duration": 0.5999999999999943
                },
                {
                    "name": "B2",
                    "midi": 47,
                    "time": 83.39999999999988,
                    "velocity": 0.6299212598425197,
                    "duration": 0.17500000000001137
                },
                {
                    "name": "D#2",
                    "midi": 39,
                    "time": 83.54999999999988,
                    "velocity": 0.5905511811023622,
                    "duration": 0.17500000000001137
                },
                {
                    "name": "D2",
                    "midi": 38,
                    "time": 83.69999999999989,
                    "velocity": 0.5511811023622047,
                    "duration": 0.17500000000001137
                },
                {
                    "name": "B2",
                    "midi": 47,
                    "time": 83.8499999999999,
                    "velocity": 0.5984251968503937,
                    "duration": 0.17500000000001137
                },
                {
                    "name": "A#2",
                    "midi": 46,
                    "time": 83.9999999999999,
                    "velocity": 0.5826771653543307,
                    "duration": 0.17500000000001137
                },
                {
                    "name": "D2",
                    "midi": 38,
                    "time": 84.1499999999999,
                    "velocity": 0.5511811023622047,
                    "duration": 0.17500000000001137
                },
                {
                    "name": "F#2",
                    "midi": 42,
                    "time": 84.29999999999991,
                    "velocity": 0.6299212598425197,
                    "duration": 1.6500000000000057
                },
                {
                    "name": "B2",
                    "midi": 47,
                    "time": 86.09999999999992,
                    "velocity": 0.3779527559055118,
                    "duration": 0.17500000000001137
                },
                {
                    "name": "D#2",
                    "midi": 39,
                    "time": 86.24999999999993,
                    "velocity": 0.3543307086614173,
                    "duration": 0.17500000000001137
                },
                {
                    "name": "D2",
                    "midi": 38,
                    "time": 86.39999999999993,
                    "velocity": 0.29133858267716534,
                    "duration": 0.17500000000001137
                },
                {
                    "name": "B2",
                    "midi": 47,
                    "time": 86.54999999999994,
                    "velocity": 0.3543307086614173,
                    "duration": 0.17500000000001137
                },
                {
                    "name": "A#2",
                    "midi": 46,
                    "time": 86.69999999999995,
                    "velocity": 0.3464566929133858,
                    "duration": 0.17500000000001137
                },
                {
                    "name": "D2",
                    "midi": 38,
                    "time": 86.84999999999995,
                    "velocity": 0.29133858267716534,
                    "duration": 0.17500000000001137
                },
                {
                    "name": "F#2",
                    "midi": 42,
                    "time": 86.99999999999996,
                    "velocity": 0.33858267716535434,
                    "duration": 1.6500000000000057
                },
                {
                    "name": "B2",
                    "midi": 47,
                    "time": 88.79999999999997,
                    "velocity": 0.6299212598425197,
                    "duration": 0.17500000000001137
                },
                {
                    "name": "D#2",
                    "midi": 39,
                    "time": 88.94999999999997,
                    "velocity": 0.5905511811023622,
                    "duration": 0.17500000000001137
                },
                {
                    "name": "D2",
                    "midi": 38,
                    "time": 89.09999999999998,
                    "velocity": 0.5118110236220472,
                    "duration": 0.17500000000001137
                },
                {
                    "name": "B2",
                    "midi": 47,
                    "time": 89.24999999999999,
                    "velocity": 0.5984251968503937,
                    "duration": 0.17500000000001137
                },
                {
                    "name": "A#2",
                    "midi": 46,
                    "time": 89.39999999999999,
                    "velocity": 0.5669291338582677,
                    "duration": 0.17500000000001137
                },
                {
                    "name": "C#2",
                    "midi": 37,
                    "time": 89.55,
                    "velocity": 0.49606299212598426,
                    "duration": 0.17500000000001137
                },
                {
                    "name": "E2",
                    "midi": 40,
                    "time": 89.7,
                    "velocity": 0.6299212598425197,
                    "duration": 0.15000000000000568
                },
                {
                    "name": "A#2",
                    "midi": 46,
                    "time": 90.00000000000001,
                    "velocity": 0.5433070866141733,
                    "duration": 0.15000000000000568
                },
                {
                    "name": "B1",
                    "midi": 35,
                    "time": 90.15000000000002,
                    "velocity": 0.49606299212598426,
                    "duration": 0.15000000000000568
                },
                {
                    "name": "D#2",
                    "midi": 39,
                    "time": 90.30000000000003,
                    "velocity": 0.5433070866141733,
                    "duration": 0.15000000000000568
                },
                {
                    "name": "A#2",
                    "midi": 46,
                    "time": 90.60000000000004,
                    "velocity": 0.5511811023622047,
                    "duration": 0.15000000000000568
                },
                {
                    "name": "A#1",
                    "midi": 34,
                    "time": 90.75000000000004,
                    "velocity": 0.5275590551181102,
                    "duration": 0.15000000000000568
                },
                {
                    "name": "D2",
                    "midi": 38,
                    "time": 90.90000000000005,
                    "velocity": 0.5669291338582677,
                    "duration": 0.22499999999999432
                },
                {
                    "name": "A#1",
                    "midi": 34,
                    "time": 91.20000000000005,
                    "velocity": 0.5748031496062992,
                    "duration": 0.15000000000000568
                },
                {
                    "name": "A#2",
                    "midi": 46,
                    "time": 91.50000000000006,
                    "velocity": 0.7165354330708661,
                    "duration": 0.22499999999999432
                },
                {
                    "name": "A#4",
                    "midi": 70,
                    "time": 91.80000000000005,
                    "velocity": 0.7401574803149606,
                    "duration": 0.29999999999999716
                },
                {
                    "name": "B2",
                    "midi": 47,
                    "time": 92.40000000000005,
                    "velocity": 0.6299212598425197,
                    "duration": 0.17500000000001137
                },
                {
                    "name": "D#2",
                    "midi": 39,
                    "time": 92.55000000000005,
                    "velocity": 0.5905511811023622,
                    "duration": 0.17500000000001137
                },
                {
                    "name": "D2",
                    "midi": 38,
                    "time": 92.70000000000006,
                    "velocity": 0.5196850393700787,
                    "duration": 0.17500000000001137
                },
                {
                    "name": "B2",
                    "midi": 47,
                    "time": 92.85000000000007,
                    "velocity": 0.5984251968503937,
                    "duration": 0.17500000000001137
                },
                {
                    "name": "A#2",
                    "midi": 46,
                    "time": 93.00000000000007,
                    "velocity": 0.5748031496062992,
                    "duration": 0.17500000000001137
                },
                {
                    "name": "D2",
                    "midi": 38,
                    "time": 93.15000000000008,
                    "velocity": 0.5511811023622047,
                    "duration": 0.17500000000001137
                },
                {
                    "name": "F#2",
                    "midi": 42,
                    "time": 93.30000000000008,
                    "velocity": 0.6299212598425197,
                    "duration": 1.6500000000000057
                },
                {
                    "name": "B2",
                    "midi": 47,
                    "time": 95.1000000000001,
                    "velocity": 0.6299212598425197,
                    "duration": 0.17500000000001137
                },
                {
                    "name": "D#2",
                    "midi": 39,
                    "time": 95.2500000000001,
                    "velocity": 0.5905511811023622,
                    "duration": 0.17500000000001137
                },
                {
                    "name": "D2",
                    "midi": 38,
                    "time": 95.4000000000001,
                    "velocity": 0.5275590551181102,
                    "duration": 0.17500000000001137
                },
                {
                    "name": "B2",
                    "midi": 47,
                    "time": 95.55000000000011,
                    "velocity": 0.5984251968503937,
                    "duration": 0.17500000000001137
                },
                {
                    "name": "A#2",
                    "midi": 46,
                    "time": 95.70000000000012,
                    "velocity": 0.5826771653543307,
                    "duration": 0.17500000000001137
                },
                {
                    "name": "C#2",
                    "midi": 37,
                    "time": 95.85000000000012,
                    "velocity": 0.5196850393700787,
                    "duration": 0.17500000000001137
                },
                {
                    "name": "E2",
                    "midi": 40,
                    "time": 96.00000000000013,
                    "velocity": 0.6299212598425197,
                    "duration": 0.15000000000000568
                },
                {
                    "name": "A#2",
                    "midi": 46,
                    "time": 96.30000000000014,
                    "velocity": 0.5433070866141733,
                    "duration": 0.15000000000000568
                },
                {
                    "name": "B1",
                    "midi": 35,
                    "time": 96.45000000000014,
                    "velocity": 0.49606299212598426,
                    "duration": 0.15000000000000568
                },
                {
                    "name": "D#2",
                    "midi": 39,
                    "time": 96.60000000000015,
                    "velocity": 0.5433070866141733,
                    "duration": 0.15000000000000568
                },
                {
                    "name": "A#2",
                    "midi": 46,
                    "time": 96.90000000000016,
                    "velocity": 0.5511811023622047,
                    "duration": 0.15000000000000568
                },
                {
                    "name": "A#1",
                    "midi": 34,
                    "time": 97.05000000000017,
                    "velocity": 0.5275590551181102,
                    "duration": 0.15000000000000568
                },
                {
                    "name": "D2",
                    "midi": 38,
                    "time": 97.20000000000017,
                    "velocity": 0.5984251968503937,
                    "duration": 0.22499999999999432
                },
                {
                    "name": "A#1",
                    "midi": 34,
                    "time": 97.50000000000017,
                    "velocity": 0.5748031496062992,
                    "duration": 0.15000000000000568
                },
                {
                    "name": "A#2",
                    "midi": 46,
                    "time": 97.80000000000018,
                    "velocity": 0.6771653543307087,
                    "duration": 0.22499999999999432
                },
                {
                    "name": "A#3",
                    "midi": 58,
                    "time": 98.10000000000018,
                    "velocity": 0.6377952755905512,
                    "duration": 0.22499999999999432
                },
                {
                    "name": "A#4",
                    "midi": 70,
                    "time": 98.40000000000018,
                    "velocity": 0.7007874015748031,
                    "duration": 0.29999999999999716
                },
                {
                    "name": "D#1",
                    "midi": 27,
                    "time": 99.45000000000017,
                    "velocity": 0.47244094488188976,
                    "duration": 0.15000000000000568
                },
                {
                    "name": "D#2",
                    "midi": 39,
                    "time": 99.60000000000018,
                    "velocity": 0.47244094488188976,
                    "duration": 0.22499999999999432
                },
                {
                    "name": "D#2",
                    "midi": 39,
                    "time": 99.90000000000018,
                    "velocity": 0.44881889763779526,
                    "duration": 1.5
                },
                {
                    "name": "A2",
                    "midi": 45,
                    "time": 101.40000000000018,
                    "velocity": 0.48031496062992124,
                    "duration": 0.9000000000000057
                },
                {
                    "name": "F#3",
                    "midi": 54,
                    "time": 102.30000000000018,
                    "velocity": 0.4330708661417323,
                    "duration": 0.75
                },
                {
                    "name": "D#1",
                    "midi": 27,
                    "time": 103.05000000000018,
                    "velocity": 0.3858267716535433,
                    "duration": 0.15000000000000568
                },
                {
                    "name": "D#2",
                    "midi": 39,
                    "time": 103.20000000000019,
                    "velocity": 0.4330708661417323,
                    "duration": 0.22499999999999432
                },
                {
                    "name": "D#2",
                    "midi": 39,
                    "time": 103.50000000000018,
                    "velocity": 0.41732283464566927,
                    "duration": 1.0499999999999972
                },
                {
                    "name": "A2",
                    "midi": 45,
                    "time": 105.00000000000018,
                    "velocity": 0.4409448818897638,
                    "duration": 0.9000000000000057
                },
                {
                    "name": "F#3",
                    "midi": 54,
                    "time": 105.90000000000019,
                    "velocity": 0.41732283464566927,
                    "duration": 0.9000000000000057
                },
                {
                    "name": "B2",
                    "midi": 47,
                    "time": 107.02500000000019,
                    "velocity": 0.4645669291338583,
                    "duration": 0.07500000000000284
                },
                {
                    "name": "A#2",
                    "midi": 46,
                    "time": 107.1000000000002,
                    "velocity": 0.6929133858267716,
                    "duration": 0.15000000000000568
                },
                {
                    "name": "B1",
                    "midi": 35,
                    "time": 107.3250000000002,
                    "velocity": 0.41732283464566927,
                    "duration": 0.07500000000000284
                },
                {
                    "name": "A#1",
                    "midi": 34,
                    "time": 107.4000000000002,
                    "velocity": 0.6614173228346457,
                    "duration": 0.15000000000000568
                },
                {
                    "name": "D#1",
                    "midi": 27,
                    "time": 108.45000000000022,
                    "velocity": 0.3858267716535433,
                    "duration": 0.15000000000000568
                },
                {
                    "name": "D#2",
                    "midi": 39,
                    "time": 108.60000000000022,
                    "velocity": 0.3858267716535433,
                    "duration": 0.22499999999999432
                },
                {
                    "name": "D#2",
                    "midi": 39,
                    "time": 108.90000000000022,
                    "velocity": 0.36220472440944884,
                    "duration": 1.5
                },
                {
                    "name": "A2",
                    "midi": 45,
                    "time": 110.40000000000022,
                    "velocity": 0.3937007874015748,
                    "duration": 0.9000000000000057
                },
                {
                    "name": "F#3",
                    "midi": 54,
                    "time": 111.30000000000022,
                    "velocity": 0.3543307086614173,
                    "duration": 0.75
                },
                {
                    "name": "D#1",
                    "midi": 27,
                    "time": 112.05000000000022,
                    "velocity": 0.31496062992125984,
                    "duration": 0.15000000000000568
                },
                {
                    "name": "D#2",
                    "midi": 39,
                    "time": 112.20000000000023,
                    "velocity": 0.3543307086614173,
                    "duration": 0.22499999999999432
                },
                {
                    "name": "D#2",
                    "midi": 39,
                    "time": 112.50000000000023,
                    "velocity": 0.3464566929133858,
                    "duration": 1.0499999999999972
                },
                {
                    "name": "A2",
                    "midi": 45,
                    "time": 114.00000000000023,
                    "velocity": 0.3543307086614173,
                    "duration": 0.9000000000000057
                },
                {
                    "name": "F#3",
                    "midi": 54,
                    "time": 114.90000000000023,
                    "velocity": 0.3464566929133858,
                    "duration": 0.9000000000000057
                },
                {
                    "name": "B2",
                    "midi": 47,
                    "time": 116.02500000000023,
                    "velocity": 0.4251968503937008,
                    "duration": 0.07500000000000284
                },
                {
                    "name": "A#2",
                    "midi": 46,
                    "time": 116.10000000000024,
                    "velocity": 0.5984251968503937,
                    "duration": 0.15000000000000568
                },
                {
                    "name": "B1",
                    "midi": 35,
                    "time": 116.32500000000024,
                    "velocity": 0.3858267716535433,
                    "duration": 0.07500000000000284
                },
                {
                    "name": "A#1",
                    "midi": 34,
                    "time": 116.40000000000025,
                    "velocity": 0.5354330708661418,
                    "duration": 0.15000000000000568
                },
                {
                    "name": "B2",
                    "midi": 47,
                    "time": 117.60000000000025,
                    "velocity": 0.6299212598425197,
                    "duration": 0.17500000000001137
                },
                {
                    "name": "D#2",
                    "midi": 39,
                    "time": 117.75000000000026,
                    "velocity": 0.5905511811023622,
                    "duration": 0.17500000000001137
                },
                {
                    "name": "D2",
                    "midi": 38,
                    "time": 117.90000000000026,
                    "velocity": 0.5275590551181102,
                    "duration": 0.17500000000001137
                },
                {
                    "name": "B2",
                    "midi": 47,
                    "time": 118.05000000000027,
                    "velocity": 0.5905511811023622,
                    "duration": 0.17500000000001137
                },
                {
                    "name": "A#2",
                    "midi": 46,
                    "time": 118.20000000000027,
                    "velocity": 0.5669291338582677,
                    "duration": 0.17500000000001137
                },
                {
                    "name": "D2",
                    "midi": 38,
                    "time": 118.35000000000028,
                    "velocity": 0.5433070866141733,
                    "duration": 0.17500000000001137
                },
                {
                    "name": "F#2",
                    "midi": 42,
                    "time": 118.50000000000028,
                    "velocity": 0.6299212598425197,
                    "duration": 0.5250000000000057
                },
                {
                    "name": "B1",
                    "midi": 35,
                    "time": 119.02500000000029,
                    "velocity": 0.5433070866141733,
                    "duration": 0.07500000000000284
                },
                {
                    "name": "A#1",
                    "midi": 34,
                    "time": 119.10000000000029,
                    "velocity": 0.7165354330708661,
                    "duration": 0.22499999999999432
                },
                {
                    "name": "B2",
                    "midi": 47,
                    "time": 120.30000000000028,
                    "velocity": 0.6299212598425197,
                    "duration": 0.17500000000001137
                },
                {
                    "name": "D#2",
                    "midi": 39,
                    "time": 120.45000000000029,
                    "velocity": 0.5905511811023622,
                    "duration": 0.17500000000001137
                },
                {
                    "name": "D2",
                    "midi": 38,
                    "time": 120.60000000000029,
                    "velocity": 0.5433070866141733,
                    "duration": 0.17500000000001137
                },
                {
                    "name": "B2",
                    "midi": 47,
                    "time": 120.7500000000003,
                    "velocity": 0.5826771653543307,
                    "duration": 0.17500000000001137
                },
                {
                    "name": "A#2",
                    "midi": 46,
                    "time": 120.9000000000003,
                    "velocity": 0.5511811023622047,
                    "duration": 0.17500000000001137
                },
                {
                    "name": "C#2",
                    "midi": 37,
                    "time": 121.05000000000031,
                    "velocity": 0.5275590551181102,
                    "duration": 0.17500000000001137
                },
                {
                    "name": "E2",
                    "midi": 40,
                    "time": 121.20000000000032,
                    "velocity": 0.6299212598425197,
                    "duration": 0.15000000000000568
                },
                {
                    "name": "A#2",
                    "midi": 46,
                    "time": 121.50000000000033,
                    "velocity": 0.5433070866141733,
                    "duration": 0.15000000000000568
                },
                {
                    "name": "B1",
                    "midi": 35,
                    "time": 121.65000000000033,
                    "velocity": 0.49606299212598426,
                    "duration": 0.15000000000000568
                },
                {
                    "name": "D#2",
                    "midi": 39,
                    "time": 121.80000000000034,
                    "velocity": 0.5433070866141733,
                    "duration": 0.15000000000000568
                },
                {
                    "name": "A#2",
                    "midi": 46,
                    "time": 122.10000000000035,
                    "velocity": 0.5511811023622047,
                    "duration": 0.15000000000000568
                },
                {
                    "name": "A#1",
                    "midi": 34,
                    "time": 122.25000000000036,
                    "velocity": 0.5275590551181102,
                    "duration": 0.15000000000000568
                },
                {
                    "name": "D2",
                    "midi": 38,
                    "time": 122.40000000000036,
                    "velocity": 0.5669291338582677,
                    "duration": 0.29999999999999716
                },
                {
                    "name": "A#1",
                    "midi": 34,
                    "time": 122.70000000000036,
                    "velocity": 0.5748031496062992,
                    "duration": 0.15000000000000568
                },
                {
                    "name": "B2",
                    "midi": 47,
                    "time": 123.22500000000036,
                    "velocity": 0.4566929133858268,
                    "duration": 0.07500000000000284
                },
                {
                    "name": "A#2",
                    "midi": 46,
                    "time": 123.30000000000037,
                    "velocity": 0.6535433070866141,
                    "duration": 0.15000000000000568
                },
                {
                    "name": "B1",
                    "midi": 35,
                    "time": 123.52500000000038,
                    "velocity": 0.4645669291338583,
                    "duration": 0.07500000000000284
                },
                {
                    "name": "A#1",
                    "midi": 34,
                    "time": 123.60000000000038,
                    "velocity": 0.6456692913385826,
                    "duration": 0.15000000000000568
                },
                {
                    "name": "B1",
                    "midi": 35,
                    "time": 123.90000000000039,
                    "velocity": 0.7244094488188977,
                    "duration": 0.9000000000000057
                },
                {
                    "name": "A#1",
                    "midi": 34,
                    "time": 124.8000000000004,
                    "velocity": 0.5669291338582677,
                    "duration": 0.29999999999999716
                },
                {
                    "name": "D#1",
                    "midi": 27,
                    "time": 125.70000000000039,
                    "velocity": 0.3858267716535433,
                    "duration": 1.2000000000000028
                },
                {
                    "name": "D#2",
                    "midi": 39,
                    "time": 125.70000000000039,
                    "velocity": 0.4566929133858268,
                    "duration": 1.2000000000000028
                },
                {
                    "name": "A1",
                    "midi": 33,
                    "time": 126.90000000000039,
                    "velocity": 0.3464566929133858,
                    "duration": 1.2000000000000028
                },
                {
                    "name": "A2",
                    "midi": 45,
                    "time": 126.90000000000039,
                    "velocity": 0.4094488188976378,
                    "duration": 1.2000000000000028
                },
                {
                    "name": "D#1",
                    "midi": 27,
                    "time": 128.1000000000004,
                    "velocity": 0.3464566929133858,
                    "duration": 1.1999999999999886
                },
                {
                    "name": "D#2",
                    "midi": 39,
                    "time": 128.1000000000004,
                    "velocity": 0.4094488188976378,
                    "duration": 1.1999999999999886
                },
                {
                    "name": "A#1",
                    "midi": 34,
                    "time": 129.30000000000038,
                    "velocity": 0.3543307086614173,
                    "duration": 1.1999999999999886
                },
                {
                    "name": "A#2",
                    "midi": 46,
                    "time": 129.30000000000038,
                    "velocity": 0.4251968503937008,
                    "duration": 1.1999999999999886
                },
                {
                    "name": "D#1",
                    "midi": 27,
                    "time": 130.50000000000037,
                    "velocity": 0.33858267716535434,
                    "duration": 1.1999999999999886
                },
                {
                    "name": "D#2",
                    "midi": 39,
                    "time": 130.50000000000037,
                    "velocity": 0.4015748031496063,
                    "duration": 1.1999999999999886
                },
                {
                    "name": "C2",
                    "midi": 36,
                    "time": 131.70000000000036,
                    "velocity": 0.3464566929133858,
                    "duration": 0.5999999999999943
                },
                {
                    "name": "C3",
                    "midi": 48,
                    "time": 131.70000000000036,
                    "velocity": 0.4094488188976378,
                    "duration": 0.5999999999999943
                },
                {
                    "name": "B1",
                    "midi": 35,
                    "time": 132.30000000000035,
                    "velocity": 0.3228346456692913,
                    "duration": 0.5999999999999943
                },
                {
                    "name": "B2",
                    "midi": 47,
                    "time": 132.30000000000035,
                    "velocity": 0.3858267716535433,
                    "duration": 0.5999999999999943
                },
                {
                    "name": "C#2",
                    "midi": 37,
                    "time": 132.90000000000035,
                    "velocity": 0.3543307086614173,
                    "duration": 1.1999999999999886
                },
                {
                    "name": "C#3",
                    "midi": 49,
                    "time": 132.90000000000035,
                    "velocity": 0.41732283464566927,
                    "duration": 1.1999999999999886
                },
                {
                    "name": "C2",
                    "midi": 36,
                    "time": 134.10000000000034,
                    "velocity": 0.30708661417322836,
                    "duration": 1.1999999999999886
                },
                {
                    "name": "C3",
                    "midi": 48,
                    "time": 134.10000000000034,
                    "velocity": 0.3700787401574803,
                    "duration": 1.1999999999999886
                },
                {
                    "name": "D#1",
                    "midi": 27,
                    "time": 135.30000000000032,
                    "velocity": 0.33858267716535434,
                    "duration": 0.5999999999999943
                },
                {
                    "name": "D#2",
                    "midi": 39,
                    "time": 135.30000000000032,
                    "velocity": 0.4015748031496063,
                    "duration": 0.5999999999999943
                },
                {
                    "name": "C2",
                    "midi": 36,
                    "time": 135.90000000000032,
                    "velocity": 0.3464566929133858,
                    "duration": 0.5999999999999943
                },
                {
                    "name": "C3",
                    "midi": 48,
                    "time": 135.90000000000032,
                    "velocity": 0.4094488188976378,
                    "duration": 0.5999999999999943
                },
                {
                    "name": "B1",
                    "midi": 35,
                    "time": 136.5000000000003,
                    "velocity": 0.2677165354330709,
                    "duration": 0.5999999999999943
                },
                {
                    "name": "B2",
                    "midi": 47,
                    "time": 136.5000000000003,
                    "velocity": 0.31496062992125984,
                    "duration": 0.5999999999999943
                },
                {
                    "name": "D#2",
                    "midi": 39,
                    "time": 137.1000000000003,
                    "velocity": 0.31496062992125984,
                    "duration": 0.5999999999999943
                },
                {
                    "name": "D#3",
                    "midi": 51,
                    "time": 137.1000000000003,
                    "velocity": 0.3779527559055118,
                    "duration": 0.5999999999999943
                },
                {
                    "name": "D2",
                    "midi": 38,
                    "time": 137.7000000000003,
                    "velocity": 0.29133858267716534,
                    "duration": 0.5999999999999943
                },
                {
                    "name": "D3",
                    "midi": 50,
                    "time": 137.7000000000003,
                    "velocity": 0.3464566929133858,
                    "duration": 0.5999999999999943
                },
                {
                    "name": "F#1",
                    "midi": 30,
                    "time": 138.3000000000003,
                    "velocity": 0.2677165354330709,
                    "duration": 0.5999999999999943
                },
                {
                    "name": "F#2",
                    "midi": 42,
                    "time": 138.3000000000003,
                    "velocity": 0.3228346456692913,
                    "duration": 0.5999999999999943
                },
                {
                    "name": "D2",
                    "midi": 38,
                    "time": 138.9000000000003,
                    "velocity": 0.2992125984251969,
                    "duration": 1.1999999999999886
                },
                {
                    "name": "D3",
                    "midi": 50,
                    "time": 138.9000000000003,
                    "velocity": 0.3543307086614173,
                    "duration": 1.1999999999999886
                },
                {
                    "name": "D#2",
                    "midi": 39,
                    "time": 140.10000000000028,
                    "velocity": 0.2992125984251969,
                    "duration": 0.5999999999999943
                },
                {
                    "name": "D#3",
                    "midi": 51,
                    "time": 140.10000000000028,
                    "velocity": 0.3543307086614173,
                    "duration": 0.5999999999999943
                },
                {
                    "name": "D2",
                    "midi": 38,
                    "time": 140.70000000000027,
                    "velocity": 0.2204724409448819,
                    "duration": 0.5999999999999943
                },
                {
                    "name": "D3",
                    "midi": 50,
                    "time": 140.70000000000027,
                    "velocity": 0.2677165354330709,
                    "duration": 0.5999999999999943
                },
                {
                    "name": "F#1",
                    "midi": 30,
                    "time": 141.30000000000027,
                    "velocity": 0.25196850393700787,
                    "duration": 0.5999999999999943
                },
                {
                    "name": "F#2",
                    "midi": 42,
                    "time": 141.30000000000027,
                    "velocity": 0.2992125984251969,
                    "duration": 0.5999999999999943
                },
                {
                    "name": "D2",
                    "midi": 38,
                    "time": 141.90000000000026,
                    "velocity": 0.2047244094488189,
                    "duration": 0.5999999999999943
                },
                {
                    "name": "D3",
                    "midi": 50,
                    "time": 141.90000000000026,
                    "velocity": 0.2440944881889764,
                    "duration": 0.5999999999999943
                },
                {
                    "name": "B2",
                    "midi": 47,
                    "time": 142.50000000000026,
                    "velocity": 0.6299212598425197,
                    "duration": 0.17500000000001137
                },
                {
                    "name": "D#2",
                    "midi": 39,
                    "time": 142.65000000000026,
                    "velocity": 0.5905511811023622,
                    "duration": 0.17500000000001137
                },
                {
                    "name": "D2",
                    "midi": 38,
                    "time": 142.80000000000027,
                    "velocity": 0.5433070866141733,
                    "duration": 0.17500000000001137
                },
                {
                    "name": "B2",
                    "midi": 47,
                    "time": 142.95000000000027,
                    "velocity": 0.5984251968503937,
                    "duration": 0.17500000000001137
                },
                {
                    "name": "A#2",
                    "midi": 46,
                    "time": 143.10000000000028,
                    "velocity": 0.5826771653543307,
                    "duration": 0.17500000000001137
                },
                {
                    "name": "D2",
                    "midi": 38,
                    "time": 143.25000000000028,
                    "velocity": 0.5511811023622047,
                    "duration": 0.17500000000001137
                },
                {
                    "name": "F#2",
                    "midi": 42,
                    "time": 143.4000000000003,
                    "velocity": 0.6299212598425197,
                    "duration": 0.30000000000001137
                },
                {
                    "name": "D#1",
                    "midi": 27,
                    "time": 144.3000000000003,
                    "velocity": 0.3858267716535433,
                    "duration": 1.1999999999999886
                },
                {
                    "name": "D#2",
                    "midi": 39,
                    "time": 144.3000000000003,
                    "velocity": 0.4566929133858268,
                    "duration": 1.1999999999999886
                },
                {
                    "name": "A1",
                    "midi": 33,
                    "time": 145.50000000000028,
                    "velocity": 0.3464566929133858,
                    "duration": 1.1999999999999886
                },
                {
                    "name": "A2",
                    "midi": 45,
                    "time": 145.50000000000028,
                    "velocity": 0.4094488188976378,
                    "duration": 1.1999999999999886
                },
                {
                    "name": "D#1",
                    "midi": 27,
                    "time": 146.70000000000027,
                    "velocity": 0.3464566929133858,
                    "duration": 1.1999999999999886
                },
                {
                    "name": "D#2",
                    "midi": 39,
                    "time": 146.70000000000027,
                    "velocity": 0.4094488188976378,
                    "duration": 1.1999999999999886
                },
                {
                    "name": "A#1",
                    "midi": 34,
                    "time": 147.90000000000026,
                    "velocity": 0.3543307086614173,
                    "duration": 1.1999999999999886
                },
                {
                    "name": "A#2",
                    "midi": 46,
                    "time": 147.90000000000026,
                    "velocity": 0.4251968503937008,
                    "duration": 1.1999999999999886
                },
                {
                    "name": "D#1",
                    "midi": 27,
                    "time": 149.10000000000025,
                    "velocity": 0.33858267716535434,
                    "duration": 1.1999999999999886
                },
                {
                    "name": "D#2",
                    "midi": 39,
                    "time": 149.10000000000025,
                    "velocity": 0.4015748031496063,
                    "duration": 1.1999999999999886
                },
                {
                    "name": "C#2",
                    "midi": 37,
                    "time": 150.30000000000024,
                    "velocity": 0.3464566929133858,
                    "duration": 0.5999999999999943
                },
                {
                    "name": "C#3",
                    "midi": 49,
                    "time": 150.30000000000024,
                    "velocity": 0.4094488188976378,
                    "duration": 0.5999999999999943
                },
                {
                    "name": "C2",
                    "midi": 36,
                    "time": 150.90000000000023,
                    "velocity": 0.3228346456692913,
                    "duration": 0.5999999999999943
                },
                {
                    "name": "C3",
                    "midi": 48,
                    "time": 150.90000000000023,
                    "velocity": 0.3858267716535433,
                    "duration": 0.5999999999999943
                },
                {
                    "name": "E2",
                    "midi": 40,
                    "time": 151.50000000000023,
                    "velocity": 0.3543307086614173,
                    "duration": 1.1999999999999886
                },
                {
                    "name": "E3",
                    "midi": 52,
                    "time": 151.50000000000023,
                    "velocity": 0.41732283464566927,
                    "duration": 1.1999999999999886
                },
                {
                    "name": "D#2",
                    "midi": 39,
                    "time": 152.70000000000022,
                    "velocity": 0.2992125984251969,
                    "duration": 1.1999999999999886
                },
                {
                    "name": "D#3",
                    "midi": 51,
                    "time": 152.70000000000022,
                    "velocity": 0.3543307086614173,
                    "duration": 1.1999999999999886
                },
                {
                    "name": "D#1",
                    "midi": 27,
                    "time": 153.9000000000002,
                    "velocity": 0.33858267716535434,
                    "duration": 0.5999999999999943
                },
                {
                    "name": "D#2",
                    "midi": 39,
                    "time": 153.9000000000002,
                    "velocity": 0.4015748031496063,
                    "duration": 0.5999999999999943
                },
                {
                    "name": "C#2",
                    "midi": 37,
                    "time": 154.5000000000002,
                    "velocity": 0.3464566929133858,
                    "duration": 0.5999999999999943
                },
                {
                    "name": "C#3",
                    "midi": 49,
                    "time": 154.5000000000002,
                    "velocity": 0.4094488188976378,
                    "duration": 0.5999999999999943
                },
                {
                    "name": "C2",
                    "midi": 36,
                    "time": 155.1000000000002,
                    "velocity": 0.2677165354330709,
                    "duration": 0.5999999999999943
                },
                {
                    "name": "C3",
                    "midi": 48,
                    "time": 155.1000000000002,
                    "velocity": 0.31496062992125984,
                    "duration": 0.5999999999999943
                },
                {
                    "name": "E2",
                    "midi": 40,
                    "time": 155.7000000000002,
                    "velocity": 0.31496062992125984,
                    "duration": 0.5999999999999943
                },
                {
                    "name": "E3",
                    "midi": 52,
                    "time": 155.7000000000002,
                    "velocity": 0.3779527559055118,
                    "duration": 0.5999999999999943
                },
                {
                    "name": "D#2",
                    "midi": 39,
                    "time": 156.30000000000018,
                    "velocity": 0.29133858267716534,
                    "duration": 0.5999999999999943
                },
                {
                    "name": "D#3",
                    "midi": 51,
                    "time": 156.30000000000018,
                    "velocity": 0.3464566929133858,
                    "duration": 0.5999999999999943
                },
                {
                    "name": "A1",
                    "midi": 33,
                    "time": 156.90000000000018,
                    "velocity": 0.25196850393700787,
                    "duration": 0.5999999999999943
                },
                {
                    "name": "A2",
                    "midi": 45,
                    "time": 156.90000000000018,
                    "velocity": 0.2992125984251969,
                    "duration": 0.5999999999999943
                },
                {
                    "name": "D#2",
                    "midi": 39,
                    "time": 157.50000000000017,
                    "velocity": 0.2992125984251969,
                    "duration": 1.1999999999999886
                },
                {
                    "name": "D#3",
                    "midi": 51,
                    "time": 157.50000000000017,
                    "velocity": 0.3543307086614173,
                    "duration": 1.1999999999999886
                },
                {
                    "name": "E2",
                    "midi": 40,
                    "time": 158.70000000000016,
                    "velocity": 0.2992125984251969,
                    "duration": 0.5999999999999943
                },
                {
                    "name": "E3",
                    "midi": 52,
                    "time": 158.70000000000016,
                    "velocity": 0.3543307086614173,
                    "duration": 0.5999999999999943
                },
                {
                    "name": "D#2",
                    "midi": 39,
                    "time": 159.30000000000015,
                    "velocity": 0.2204724409448819,
                    "duration": 0.5999999999999943
                },
                {
                    "name": "D#3",
                    "midi": 51,
                    "time": 159.30000000000015,
                    "velocity": 0.2677165354330709,
                    "duration": 0.5999999999999943
                },
                {
                    "name": "A1",
                    "midi": 33,
                    "time": 159.90000000000015,
                    "velocity": 0.25196850393700787,
                    "duration": 0.5999999999999943
                },
                {
                    "name": "A2",
                    "midi": 45,
                    "time": 159.90000000000015,
                    "velocity": 0.2992125984251969,
                    "duration": 0.5999999999999943
                },
                {
                    "name": "D#2",
                    "midi": 39,
                    "time": 160.50000000000014,
                    "velocity": 0.2047244094488189,
                    "duration": 0.5999999999999943
                },
                {
                    "name": "D#3",
                    "midi": 51,
                    "time": 160.50000000000014,
                    "velocity": 0.2440944881889764,
                    "duration": 0.5999999999999943
                },
                {
                    "name": "E3",
                    "midi": 52,
                    "time": 161.10000000000014,
                    "velocity": 0.6299212598425197,
                    "duration": 0.17500000000001137
                },
                {
                    "name": "G#2",
                    "midi": 44,
                    "time": 161.25000000000014,
                    "velocity": 0.5905511811023622,
                    "duration": 0.17500000000001137
                },
                {
                    "name": "G2",
                    "midi": 43,
                    "time": 161.40000000000015,
                    "velocity": 0.5590551181102362,
                    "duration": 0.17500000000001137
                },
                {
                    "name": "E3",
                    "midi": 52,
                    "time": 161.55000000000015,
                    "velocity": 0.5984251968503937,
                    "duration": 0.17500000000001137
                },
                {
                    "name": "D#3",
                    "midi": 51,
                    "time": 161.70000000000016,
                    "velocity": 0.5826771653543307,
                    "duration": 0.17500000000001137
                },
                {
                    "name": "G2",
                    "midi": 43,
                    "time": 161.85000000000016,
                    "velocity": 0.5511811023622047,
                    "duration": 0.17500000000001137
                },
                {
                    "name": "B2",
                    "midi": 47,
                    "time": 162.00000000000017,
                    "velocity": 0.6299212598425197,
                    "duration": 0.30000000000001137
                },
                {
                    "name": "G#1",
                    "midi": 32,
                    "time": 162.90000000000018,
                    "velocity": 0.3858267716535433,
                    "duration": 1.1999999999999886
                },
                {
                    "name": "G#2",
                    "midi": 44,
                    "time": 162.90000000000018,
                    "velocity": 0.4566929133858268,
                    "duration": 1.1999999999999886
                },
                {
                    "name": "D2",
                    "midi": 38,
                    "time": 164.10000000000016,
                    "velocity": 0.3464566929133858,
                    "duration": 1.1999999999999886
                },
                {
                    "name": "D3",
                    "midi": 50,
                    "time": 164.10000000000016,
                    "velocity": 0.4094488188976378,
                    "duration": 1.1999999999999886
                },
                {
                    "name": "G#1",
                    "midi": 32,
                    "time": 165.30000000000015,
                    "velocity": 0.3464566929133858,
                    "duration": 1.1999999999999886
                },
                {
                    "name": "G#2",
                    "midi": 44,
                    "time": 165.30000000000015,
                    "velocity": 0.4094488188976378,
                    "duration": 1.1999999999999886
                },
                {
                    "name": "D#2",
                    "midi": 39,
                    "time": 166.50000000000014,
                    "velocity": 0.3543307086614173,
                    "duration": 1.1999999999999886
                },
                {
                    "name": "D#3",
                    "midi": 51,
                    "time": 166.50000000000014,
                    "velocity": 0.4251968503937008,
                    "duration": 1.1999999999999886
                },
                {
                    "name": "B3",
                    "midi": 59,
                    "time": 167.70000000000013,
                    "velocity": 0.5984251968503937,
                    "duration": 0.17500000000001137
                },
                {
                    "name": "D#3",
                    "midi": 51,
                    "time": 167.85000000000014,
                    "velocity": 0.5590551181102362,
                    "duration": 0.17500000000001137
                },
                {
                    "name": "D3",
                    "midi": 50,
                    "time": 168.00000000000014,
                    "velocity": 0.5275590551181102,
                    "duration": 0.17500000000001137
                },
                {
                    "name": "B3",
                    "midi": 59,
                    "time": 168.15000000000015,
                    "velocity": 0.5669291338582677,
                    "duration": 0.17500000000001137
                },
                {
                    "name": "A#3",
                    "midi": 58,
                    "time": 168.30000000000015,
                    "velocity": 0.5511811023622047,
                    "duration": 0.17500000000001137
                },
                {
                    "name": "D#3",
                    "midi": 51,
                    "time": 168.45000000000016,
                    "velocity": 0.5196850393700787,
                    "duration": 0.17500000000001137
                },
                {
                    "name": "F#3",
                    "midi": 54,
                    "time": 168.60000000000016,
                    "velocity": 0.5984251968503937,
                    "duration": 0.30000000000001137
                },
                {
                    "name": "D#2",
                    "midi": 39,
                    "time": 169.42500000000018,
                    "velocity": 0.47244094488188976,
                    "duration": 0.07499999999998863
                },
                {
                    "name": "D#3",
                    "midi": 51,
                    "time": 169.42500000000018,
                    "velocity": 0.5590551181102362,
                    "duration": 0.07499999999998863
                },
                {
                    "name": "D#1",
                    "midi": 27,
                    "time": 169.50000000000017,
                    "velocity": 0.5511811023622047,
                    "duration": 0.5999999999999943
                },
                {
                    "name": "D#2",
                    "midi": 39,
                    "time": 169.50000000000017,
                    "velocity": 0.6535433070866141,
                    "duration": 0.5999999999999943
                },
                {
                    "name": "D#4",
                    "midi": 63,
                    "time": 170.70000000000016,
                    "velocity": 0.6456692913385826,
                    "duration": 1.1999999999999886
                },
                {
                    "name": "D#3",
                    "midi": 51,
                    "time": 170.70000000000016,
                    "velocity": 0.5433070866141733,
                    "duration": 1.1999999999999886
                },
                {
                    "name": "D3",
                    "midi": 50,
                    "time": 171.90000000000015,
                    "velocity": 0.5118110236220472,
                    "duration": 1.1999999999999886
                },
                {
                    "name": "D4",
                    "midi": 62,
                    "time": 171.90000000000015,
                    "velocity": 0.6062992125984252,
                    "duration": 1.1999999999999886
                },
                {
                    "name": "C#3",
                    "midi": 49,
                    "time": 173.10000000000014,
                    "velocity": 0.49606299212598426,
                    "duration": 1.1999999999999886
                },
                {
                    "name": "C#4",
                    "midi": 61,
                    "time": 173.10000000000014,
                    "velocity": 0.5905511811023622,
                    "duration": 1.1999999999999886
                },
                {
                    "name": "C3",
                    "midi": 48,
                    "time": 174.30000000000013,
                    "velocity": 0.5118110236220472,
                    "duration": 1.1999999999999886
                },
                {
                    "name": "C4",
                    "midi": 60,
                    "time": 174.30000000000013,
                    "velocity": 0.6062992125984252,
                    "duration": 1.1999999999999886
                },
                {
                    "name": "B3",
                    "midi": 59,
                    "time": 175.5000000000001,
                    "velocity": 0.5905511811023622,
                    "duration": 1.1999999999999886
                },
                {
                    "name": "B2",
                    "midi": 47,
                    "time": 175.5000000000001,
                    "velocity": 0.49606299212598426,
                    "duration": 1.1999999999999886
                },
                {
                    "name": "A#2",
                    "midi": 46,
                    "time": 176.7000000000001,
                    "velocity": 0.49606299212598426,
                    "duration": 1.1999999999999886
                },
                {
                    "name": "A#3",
                    "midi": 58,
                    "time": 176.7000000000001,
                    "velocity": 0.5905511811023622,
                    "duration": 1.1999999999999886
                },
                {
                    "name": "A2",
                    "midi": 45,
                    "time": 177.9000000000001,
                    "velocity": 0.4881889763779528,
                    "duration": 1.1999999999999886
                },
                {
                    "name": "A3",
                    "midi": 57,
                    "time": 177.9000000000001,
                    "velocity": 0.5826771653543307,
                    "duration": 1.1999999999999886
                },
                {
                    "name": "G#2",
                    "midi": 44,
                    "time": 179.10000000000008,
                    "velocity": 0.4881889763779528,
                    "duration": 1.1999999999999886
                },
                {
                    "name": "G#3",
                    "midi": 56,
                    "time": 179.10000000000008,
                    "velocity": 0.5748031496062992,
                    "duration": 1.1999999999999886
                },
                {
                    "name": "G3",
                    "midi": 55,
                    "time": 180.30000000000007,
                    "velocity": 0.4881889763779528,
                    "duration": 1.1999999999999886
                },
                {
                    "name": "G2",
                    "midi": 43,
                    "time": 180.30000000000007,
                    "velocity": 0.4094488188976378,
                    "duration": 1.1999999999999886
                },
                {
                    "name": "F#2",
                    "midi": 42,
                    "time": 181.50000000000006,
                    "velocity": 0.44881889763779526,
                    "duration": 1.1999999999999886
                },
                {
                    "name": "F#3",
                    "midi": 54,
                    "time": 181.50000000000006,
                    "velocity": 0.5354330708661418,
                    "duration": 1.1999999999999886
                },
                {
                    "name": "F3",
                    "midi": 53,
                    "time": 182.70000000000005,
                    "velocity": 0.48031496062992124,
                    "duration": 1.125
                },
                {
                    "name": "F2",
                    "midi": 41,
                    "time": 182.70000000000005,
                    "velocity": 0.4015748031496063,
                    "duration": 1.125
                },
                {
                    "name": "D#2",
                    "midi": 39,
                    "time": 183.82500000000005,
                    "velocity": 0.5118110236220472,
                    "duration": 0.07499999999998863
                },
                {
                    "name": "D#3",
                    "midi": 51,
                    "time": 183.82500000000005,
                    "velocity": 0.6062992125984252,
                    "duration": 0.07499999999998863
                },
                {
                    "name": "D#1",
                    "midi": 27,
                    "time": 183.90000000000003,
                    "velocity": 0.5905511811023622,
                    "duration": 1.1999999999999886
                },
                {
                    "name": "D#2",
                    "midi": 39,
                    "time": 183.90000000000003,
                    "velocity": 0.7007874015748031,
                    "duration": 1.1999999999999886
                },
                {
                    "name": "E2",
                    "midi": 40,
                    "time": 185.10000000000002,
                    "velocity": 0.5433070866141733,
                    "duration": 0.5999999999999943
                },
                {
                    "name": "E3",
                    "midi": 52,
                    "time": 185.10000000000002,
                    "velocity": 0.6456692913385826,
                    "duration": 0.5999999999999943
                },
                {
                    "name": "B2",
                    "midi": 47,
                    "time": 185.70000000000002,
                    "velocity": 0.48031496062992124,
                    "duration": 0.5999999999999943
                },
                {
                    "name": "B3",
                    "midi": 59,
                    "time": 185.70000000000002,
                    "velocity": 0.5669291338582677,
                    "duration": 0.5999999999999943
                },
                {
                    "name": "A#2",
                    "midi": 46,
                    "time": 186.3,
                    "velocity": 0.5196850393700787,
                    "duration": 0.5999999999999943
                },
                {
                    "name": "A#3",
                    "midi": 58,
                    "time": 186.3,
                    "velocity": 0.6141732283464567,
                    "duration": 0.5999999999999943
                },
                {
                    "name": "D#3",
                    "midi": 51,
                    "time": 186.9,
                    "velocity": 0.4645669291338583,
                    "duration": 0.5999999999999943
                },
                {
                    "name": "D#2",
                    "midi": 39,
                    "time": 186.9,
                    "velocity": 0.4645669291338583,
                    "duration": 0.5999999999999943
                },
                {
                    "name": "A#3",
                    "midi": 58,
                    "time": 186.9,
                    "velocity": 0.5511811023622047,
                    "duration": 0.5999999999999943
                },
                {
                    "name": "A2",
                    "midi": 45,
                    "time": 187.5,
                    "velocity": 0.5039370078740157,
                    "duration": 1.1999999999999886
                },
                {
                    "name": "A3",
                    "midi": 57,
                    "time": 187.5,
                    "velocity": 0.5984251968503937,
                    "duration": 1.1999999999999886
                },
                {
                    "name": "G#2",
                    "midi": 44,
                    "time": 188.7,
                    "velocity": 0.5590551181102362,
                    "duration": 1.1999999999999886
                },
                {
                    "name": "G#3",
                    "midi": 56,
                    "time": 188.7,
                    "velocity": 0.6614173228346457,
                    "duration": 1.1999999999999886
                },
                {
                    "name": "G2",
                    "midi": 43,
                    "time": 189.89999999999998,
                    "velocity": 0.5118110236220472,
                    "duration": 0.5999999999999943
                },
                {
                    "name": "G3",
                    "midi": 55,
                    "time": 189.89999999999998,
                    "velocity": 0.6062992125984252,
                    "duration": 0.5999999999999943
                },
                {
                    "name": "C#2",
                    "midi": 37,
                    "time": 190.49999999999997,
                    "velocity": 0.47244094488188976,
                    "duration": 0.5999999999999943
                },
                {
                    "name": "C#3",
                    "midi": 49,
                    "time": 190.49999999999997,
                    "velocity": 0.5590551181102362,
                    "duration": 0.5999999999999943
                },
                {
                    "name": "C2",
                    "midi": 36,
                    "time": 191.09999999999997,
                    "velocity": 0.48031496062992124,
                    "duration": 0.5999999999999943
                },
                {
                    "name": "C3",
                    "midi": 48,
                    "time": 191.09999999999997,
                    "velocity": 0.5669291338582677,
                    "duration": 0.5999999999999943
                },
                {
                    "name": "F#2",
                    "midi": 42,
                    "time": 191.69999999999996,
                    "velocity": 0.4409448818897638,
                    "duration": 0.5999999999999943
                },
                {
                    "name": "F#3",
                    "midi": 54,
                    "time": 191.69999999999996,
                    "velocity": 0.5196850393700787,
                    "duration": 0.5999999999999943
                },
                {
                    "name": "F2",
                    "midi": 41,
                    "time": 192.29999999999995,
                    "velocity": 0.47244094488188976,
                    "duration": 1.1999999999999886
                },
                {
                    "name": "F3",
                    "midi": 53,
                    "time": 192.29999999999995,
                    "velocity": 0.5590551181102362,
                    "duration": 1.1999999999999886
                },
                {
                    "name": "E2",
                    "midi": 40,
                    "time": 193.49999999999994,
                    "velocity": 0.4409448818897638,
                    "duration": 0.5999999999999943
                },
                {
                    "name": "E3",
                    "midi": 52,
                    "time": 193.49999999999994,
                    "velocity": 0.5275590551181102,
                    "duration": 0.5999999999999943
                },
                {
                    "name": "B1",
                    "midi": 35,
                    "time": 194.09999999999994,
                    "velocity": 0.3779527559055118,
                    "duration": 0.5999999999999943
                },
                {
                    "name": "B2",
                    "midi": 47,
                    "time": 194.09999999999994,
                    "velocity": 0.44881889763779526,
                    "duration": 0.5999999999999943
                },
                {
                    "name": "D#2",
                    "midi": 39,
                    "time": 194.69999999999993,
                    "velocity": 0.4094488188976378,
                    "duration": 1.1999999999999886
                },
                {
                    "name": "D#3",
                    "midi": 51,
                    "time": 194.69999999999993,
                    "velocity": 0.4881889763779528,
                    "duration": 1.1999999999999886
                },
                {
                    "name": "D2",
                    "midi": 38,
                    "time": 195.89999999999992,
                    "velocity": 0.4015748031496063,
                    "duration": 0.5999999999999943
                },
                {
                    "name": "D3",
                    "midi": 50,
                    "time": 195.89999999999992,
                    "velocity": 0.47244094488188976,
                    "duration": 0.5999999999999943
                },
                {
                    "name": "A#1",
                    "midi": 34,
                    "time": 196.49999999999991,
                    "velocity": 0.3464566929133858,
                    "duration": 0.5999999999999943
                },
                {
                    "name": "A#2",
                    "midi": 46,
                    "time": 196.49999999999991,
                    "velocity": 0.4094488188976378,
                    "duration": 0.5999999999999943
                },
                {
                    "name": "C#2",
                    "midi": 37,
                    "time": 197.0999999999999,
                    "velocity": 0.36220472440944884,
                    "duration": 0.5999999999999943
                },
                {
                    "name": "C#3",
                    "midi": 49,
                    "time": 197.0999999999999,
                    "velocity": 0.4330708661417323,
                    "duration": 0.5999999999999943
                },
                {
                    "name": "D#2",
                    "midi": 39,
                    "time": 198.2999999999999,
                    "velocity": 0.28346456692913385,
                    "duration": 0.09999999999999432
                },
                {
                    "name": "F2",
                    "midi": 41,
                    "time": 198.3749999999999,
                    "velocity": 0.2755905511811024,
                    "duration": 0.10000000000002274
                },
                {
                    "name": "D#2",
                    "midi": 39,
                    "time": 198.4499999999999,
                    "velocity": 0.30708661417322836,
                    "duration": 0.10000000000002274
                },
                {
                    "name": "F2",
                    "midi": 41,
                    "time": 198.52499999999992,
                    "velocity": 0.2755905511811024,
                    "duration": 0.10000000000002274
                },
                {
                    "name": "D#2",
                    "midi": 39,
                    "time": 198.59999999999994,
                    "velocity": 0.28346456692913385,
                    "duration": 0.12500000000002842
                },
                {
                    "name": "F2",
                    "midi": 41,
                    "time": 198.67499999999995,
                    "velocity": 0.25984251968503935,
                    "duration": 0.12500000000002842
                },
                {
                    "name": "D#2",
                    "midi": 39,
                    "time": 198.74999999999997,
                    "velocity": 0.28346456692913385,
                    "duration": 0.12500000000002842
                },
                {
                    "name": "F2",
                    "midi": 41,
                    "time": 198.825,
                    "velocity": 0.25984251968503935,
                    "duration": 0.12500000000002842
                },
                {
                    "name": "D#2",
                    "midi": 39,
                    "time": 198.9,
                    "velocity": 0.2755905511811024,
                    "duration": 0.15000000000000568
                },
                {
                    "name": "F2",
                    "midi": 41,
                    "time": 198.97500000000002,
                    "velocity": 0.2440944881889764,
                    "duration": 0.14999999999997726
                },
                {
                    "name": "D#2",
                    "midi": 39,
                    "time": 199.05,
                    "velocity": 0.2755905511811024,
                    "duration": 0.14999999999997726
                },
                {
                    "name": "F2",
                    "midi": 41,
                    "time": 199.125,
                    "velocity": 0.2440944881889764,
                    "duration": 0.14999999999997726
                },
                {
                    "name": "D#2",
                    "midi": 39,
                    "time": 199.2,
                    "velocity": 0.28346456692913385,
                    "duration": 0.14999999999997726
                },
                {
                    "name": "F2",
                    "midi": 41,
                    "time": 199.27499999999998,
                    "velocity": 0.2440944881889764,
                    "duration": 0.14999999999997726
                },
                {
                    "name": "D#2",
                    "midi": 39,
                    "time": 199.34999999999997,
                    "velocity": 0.2992125984251969,
                    "duration": 0.14999999999997726
                },
                {
                    "name": "F2",
                    "midi": 41,
                    "time": 199.42499999999995,
                    "velocity": 0.2755905511811024,
                    "duration": 0.14999999999997726
                },
                {
                    "name": "D#2",
                    "midi": 39,
                    "time": 199.49999999999994,
                    "velocity": 0.3228346456692913,
                    "duration": 0.14999999999997726
                },
                {
                    "name": "F2",
                    "midi": 41,
                    "time": 199.57499999999993,
                    "velocity": 0.28346456692913385,
                    "duration": 0.14999999999997726
                },
                {
                    "name": "D#2",
                    "midi": 39,
                    "time": 199.64999999999992,
                    "velocity": 0.33070866141732286,
                    "duration": 0.14999999999997726
                },
                {
                    "name": "F2",
                    "midi": 41,
                    "time": 199.7249999999999,
                    "velocity": 0.29133858267716534,
                    "duration": 0.15000000000000568
                },
                {
                    "name": "D#2",
                    "midi": 39,
                    "time": 199.7999999999999,
                    "velocity": 0.29133858267716534,
                    "duration": 0.07500000000001705
                },
                {
                    "name": "E2",
                    "midi": 40,
                    "time": 199.8499999999999,
                    "velocity": 0.30708661417322836,
                    "duration": 0.07500000000001705
                },
                {
                    "name": "F2",
                    "midi": 41,
                    "time": 199.89999999999992,
                    "velocity": 0.3228346456692913,
                    "duration": 0.07500000000001705
                },
                {
                    "name": "F#2",
                    "midi": 42,
                    "time": 199.94999999999993,
                    "velocity": 0.33858267716535434,
                    "duration": 0.07500000000001705
                },
                {
                    "name": "G2",
                    "midi": 43,
                    "time": 199.99999999999994,
                    "velocity": 0.3543307086614173,
                    "duration": 0.07500000000001705
                },
                {
                    "name": "G#2",
                    "midi": 44,
                    "time": 200.04999999999995,
                    "velocity": 0.3700787401574803,
                    "duration": 0.07500000000001705
                },
                {
                    "name": "A2",
                    "midi": 45,
                    "time": 200.09999999999997,
                    "velocity": 0.4330708661417323,
                    "duration": 0.15000000000000568
                },
                {
                    "name": "A#2",
                    "midi": 46,
                    "time": 200.17499999999998,
                    "velocity": 0.3858267716535433,
                    "duration": 0.14999999999997726
                },
                {
                    "name": "A2",
                    "midi": 45,
                    "time": 200.24999999999997,
                    "velocity": 0.4330708661417323,
                    "duration": 0.14999999999997726
                },
                {
                    "name": "A#2",
                    "midi": 46,
                    "time": 200.32499999999996,
                    "velocity": 0.4015748031496063,
                    "duration": 0.14999999999997726
                },
                {
                    "name": "A2",
                    "midi": 45,
                    "time": 200.39999999999995,
                    "velocity": 0.4330708661417323,
                    "duration": 0.14999999999997726
                },
                {
                    "name": "A#2",
                    "midi": 46,
                    "time": 200.47499999999994,
                    "velocity": 0.4015748031496063,
                    "duration": 0.14999999999997726
                },
                {
                    "name": "A2",
                    "midi": 45,
                    "time": 200.54999999999993,
                    "velocity": 0.4330708661417323,
                    "duration": 0.14999999999997726
                },
                {
                    "name": "A#2",
                    "midi": 46,
                    "time": 200.62499999999991,
                    "velocity": 0.3937007874015748,
                    "duration": 0.14999999999997726
                },
                {
                    "name": "A2",
                    "midi": 45,
                    "time": 200.6999999999999,
                    "velocity": 0.41732283464566927,
                    "duration": 0.14999999999997726
                },
                {
                    "name": "A#2",
                    "midi": 46,
                    "time": 200.7749999999999,
                    "velocity": 0.3700787401574803,
                    "duration": 0.14999999999997726
                },
                {
                    "name": "A2",
                    "midi": 45,
                    "time": 200.84999999999988,
                    "velocity": 0.4015748031496063,
                    "duration": 0.14999999999997726
                },
                {
                    "name": "A#2",
                    "midi": 46,
                    "time": 200.92499999999987,
                    "velocity": 0.3700787401574803,
                    "duration": 0.14999999999997726
                },
                {
                    "name": "A2",
                    "midi": 45,
                    "time": 200.99999999999986,
                    "velocity": 0.4094488188976378,
                    "duration": 0.14999999999997726
                },
                {
                    "name": "A#2",
                    "midi": 46,
                    "time": 201.07499999999985,
                    "velocity": 0.3543307086614173,
                    "duration": 0.14999999999997726
                },
                {
                    "name": "A2",
                    "midi": 45,
                    "time": 201.14999999999984,
                    "velocity": 0.3937007874015748,
                    "duration": 0.14999999999997726
                },
                {
                    "name": "A#2",
                    "midi": 46,
                    "time": 201.22499999999982,
                    "velocity": 0.3464566929133858,
                    "duration": 0.14999999999997726
                },
                {
                    "name": "A2",
                    "midi": 45,
                    "time": 201.2999999999998,
                    "velocity": 0.3700787401574803,
                    "duration": 0.14999999999997726
                },
                {
                    "name": "A#2",
                    "midi": 46,
                    "time": 201.3749999999998,
                    "velocity": 0.33070866141732286,
                    "duration": 0.14999999999997726
                },
                {
                    "name": "A2",
                    "midi": 45,
                    "time": 201.4499999999998,
                    "velocity": 0.36220472440944884,
                    "duration": 0.14999999999997726
                },
                {
                    "name": "A#2",
                    "midi": 46,
                    "time": 201.52499999999978,
                    "velocity": 0.3464566929133858,
                    "duration": 0.15000000000000568
                },
                {
                    "name": "A2",
                    "midi": 45,
                    "time": 201.59999999999977,
                    "velocity": 0.33858267716535434,
                    "duration": 0.07500000000001705
                },
                {
                    "name": "G#2",
                    "midi": 44,
                    "time": 201.64999999999978,
                    "velocity": 0.33858267716535434,
                    "duration": 0.07500000000001705
                },
                {
                    "name": "G2",
                    "midi": 43,
                    "time": 201.6999999999998,
                    "velocity": 0.33858267716535434,
                    "duration": 0.07500000000001705
                },
                {
                    "name": "F#2",
                    "midi": 42,
                    "time": 201.7499999999998,
                    "velocity": 0.33070866141732286,
                    "duration": 0.07500000000001705
                },
                {
                    "name": "F2",
                    "midi": 41,
                    "time": 201.7999999999998,
                    "velocity": 0.33070866141732286,
                    "duration": 0.07500000000001705
                },
                {
                    "name": "E2",
                    "midi": 40,
                    "time": 201.84999999999982,
                    "velocity": 0.33070866141732286,
                    "duration": 0.07500000000001705
                },
                {
                    "name": "D#2",
                    "midi": 39,
                    "time": 201.89999999999984,
                    "velocity": 0.33070866141732286,
                    "duration": 0.10000000000002274
                },
                {
                    "name": "F2",
                    "midi": 41,
                    "time": 201.97499999999985,
                    "velocity": 0.2992125984251969,
                    "duration": 0.10000000000002274
                },
                {
                    "name": "D#2",
                    "midi": 39,
                    "time": 202.04999999999987,
                    "velocity": 0.3228346456692913,
                    "duration": 0.10000000000002274
                },
                {
                    "name": "F2",
                    "midi": 41,
                    "time": 202.1249999999999,
                    "velocity": 0.2755905511811024,
                    "duration": 0.10000000000002274
                },
                {
                    "name": "D#2",
                    "midi": 39,
                    "time": 202.1999999999999,
                    "velocity": 0.30708661417322836,
                    "duration": 0.11250000000001137
                },
                {
                    "name": "F2",
                    "midi": 41,
                    "time": 202.27499999999992,
                    "velocity": 0.2755905511811024,
                    "duration": 0.11249999999998295
                },
                {
                    "name": "D#2",
                    "midi": 39,
                    "time": 202.3499999999999,
                    "velocity": 0.30708661417322836,
                    "duration": 0.11249999999998295
                },
                {
                    "name": "F2",
                    "midi": 41,
                    "time": 202.4249999999999,
                    "velocity": 0.2755905511811024,
                    "duration": 0.11249999999998295
                },
                {
                    "name": "D#2",
                    "midi": 39,
                    "time": 202.4999999999999,
                    "velocity": 0.29133858267716534,
                    "duration": 0.125
                },
                {
                    "name": "F2",
                    "midi": 41,
                    "time": 202.57499999999987,
                    "velocity": 0.2440944881889764,
                    "duration": 0.12500000000002842
                },
                {
                    "name": "D#2",
                    "midi": 39,
                    "time": 202.6499999999999,
                    "velocity": 0.28346456692913385,
                    "duration": 0.12500000000002842
                },
                {
                    "name": "F2",
                    "midi": 41,
                    "time": 202.7249999999999,
                    "velocity": 0.2440944881889764,
                    "duration": 0.12500000000002842
                },
                {
                    "name": "D#2",
                    "midi": 39,
                    "time": 202.79999999999993,
                    "velocity": 0.28346456692913385,
                    "duration": 0.15000000000000568
                },
                {
                    "name": "F2",
                    "midi": 41,
                    "time": 202.87499999999994,
                    "velocity": 0.2440944881889764,
                    "duration": 0.14999999999997726
                },
                {
                    "name": "D#2",
                    "midi": 39,
                    "time": 202.94999999999993,
                    "velocity": 0.28346456692913385,
                    "duration": 0.14999999999997726
                },
                {
                    "name": "F2",
                    "midi": 41,
                    "time": 203.02499999999992,
                    "velocity": 0.2440944881889764,
                    "duration": 0.14999999999997726
                },
                {
                    "name": "D#2",
                    "midi": 39,
                    "time": 203.0999999999999,
                    "velocity": 0.29133858267716534,
                    "duration": 0.14999999999997726
                },
                {
                    "name": "F2",
                    "midi": 41,
                    "time": 203.1749999999999,
                    "velocity": 0.28346456692913385,
                    "duration": 0.14999999999997726
                },
                {
                    "name": "D#2",
                    "midi": 39,
                    "time": 203.2499999999999,
                    "velocity": 0.30708661417322836,
                    "duration": 0.14999999999997726
                },
                {
                    "name": "F2",
                    "midi": 41,
                    "time": 203.32499999999987,
                    "velocity": 0.29133858267716534,
                    "duration": 0.15000000000000568
                },
                {
                    "name": "D#2",
                    "midi": 39,
                    "time": 203.39999999999986,
                    "velocity": 0.28346456692913385,
                    "duration": 0.07500000000001705
                },
                {
                    "name": "E2",
                    "midi": 40,
                    "time": 203.44999999999987,
                    "velocity": 0.2992125984251969,
                    "duration": 0.07500000000001705
                },
                {
                    "name": "F2",
                    "midi": 41,
                    "time": 203.4999999999999,
                    "velocity": 0.30708661417322836,
                    "duration": 0.07500000000001705
                },
                {
                    "name": "F#2",
                    "midi": 42,
                    "time": 203.5499999999999,
                    "velocity": 0.31496062992125984,
                    "duration": 0.07500000000001705
                },
                {
                    "name": "G2",
                    "midi": 43,
                    "time": 203.5999999999999,
                    "velocity": 0.3228346456692913,
                    "duration": 0.07500000000001705
                },
                {
                    "name": "G#2",
                    "midi": 44,
                    "time": 203.64999999999992,
                    "velocity": 0.33070866141732286,
                    "duration": 0.07500000000001705
                },
                {
                    "name": "A2",
                    "midi": 45,
                    "time": 203.69999999999993,
                    "velocity": 0.3543307086614173,
                    "duration": 0.15000000000000568
                },
                {
                    "name": "A#2",
                    "midi": 46,
                    "time": 203.77499999999995,
                    "velocity": 0.2992125984251969,
                    "duration": 0.14999999999997726
                },
                {
                    "name": "A2",
                    "midi": 45,
                    "time": 203.84999999999994,
                    "velocity": 0.3543307086614173,
                    "duration": 0.14999999999997726
                },
                {
                    "name": "A#2",
                    "midi": 46,
                    "time": 203.92499999999993,
                    "velocity": 0.33070866141732286,
                    "duration": 0.14999999999997726
                },
                {
                    "name": "A2",
                    "midi": 45,
                    "time": 203.99999999999991,
                    "velocity": 0.3543307086614173,
                    "duration": 0.14999999999997726
                },
                {
                    "name": "A#2",
                    "midi": 46,
                    "time": 204.0749999999999,
                    "velocity": 0.29133858267716534,
                    "duration": 0.14999999999997726
                },
                {
                    "name": "A2",
                    "midi": 45,
                    "time": 204.1499999999999,
                    "velocity": 0.3464566929133858,
                    "duration": 0.14999999999997726
                },
                {
                    "name": "A#2",
                    "midi": 46,
                    "time": 204.22499999999988,
                    "velocity": 0.29133858267716534,
                    "duration": 0.14999999999997726
                },
                {
                    "name": "A2",
                    "midi": 45,
                    "time": 204.29999999999987,
                    "velocity": 0.3543307086614173,
                    "duration": 0.14999999999997726
                },
                {
                    "name": "A#2",
                    "midi": 46,
                    "time": 204.37499999999986,
                    "velocity": 0.3228346456692913,
                    "duration": 0.14999999999997726
                },
                {
                    "name": "A2",
                    "midi": 45,
                    "time": 204.44999999999985,
                    "velocity": 0.3543307086614173,
                    "duration": 0.14999999999997726
                },
                {
                    "name": "A#2",
                    "midi": 46,
                    "time": 204.52499999999984,
                    "velocity": 0.33070866141732286,
                    "duration": 0.14999999999997726
                },
                {
                    "name": "A2",
                    "midi": 45,
                    "time": 204.59999999999982,
                    "velocity": 0.3779527559055118,
                    "duration": 0.14999999999997726
                },
                {
                    "name": "A#2",
                    "midi": 46,
                    "time": 204.6749999999998,
                    "velocity": 0.31496062992125984,
                    "duration": 0.14999999999997726
                },
                {
                    "name": "A2",
                    "midi": 45,
                    "time": 204.7499999999998,
                    "velocity": 0.3700787401574803,
                    "duration": 0.14999999999997726
                },
                {
                    "name": "A#2",
                    "midi": 46,
                    "time": 204.8249999999998,
                    "velocity": 0.30708661417322836,
                    "duration": 0.14999999999997726
                },
                {
                    "name": "A2",
                    "midi": 45,
                    "time": 204.89999999999978,
                    "velocity": 0.36220472440944884,
                    "duration": 0.14999999999997726
                },
                {
                    "name": "A#2",
                    "midi": 46,
                    "time": 204.97499999999977,
                    "velocity": 0.29133858267716534,
                    "duration": 0.14999999999997726
                },
                {
                    "name": "A2",
                    "midi": 45,
                    "time": 205.04999999999976,
                    "velocity": 0.36220472440944884,
                    "duration": 0.14999999999997726
                },
                {
                    "name": "A#2",
                    "midi": 46,
                    "time": 205.12499999999974,
                    "velocity": 0.33858267716535434,
                    "duration": 0.15000000000000568
                },
                {
                    "name": "A2",
                    "midi": 45,
                    "time": 205.19999999999973,
                    "velocity": 0.36220472440944884,
                    "duration": 0.07500000000001705
                },
                {
                    "name": "G#2",
                    "midi": 44,
                    "time": 205.24999999999974,
                    "velocity": 0.3543307086614173,
                    "duration": 0.07500000000001705
                },
                {
                    "name": "G2",
                    "midi": 43,
                    "time": 205.29999999999976,
                    "velocity": 0.3464566929133858,
                    "duration": 0.07500000000001705
                },
                {
                    "name": "F#2",
                    "midi": 42,
                    "time": 205.34999999999977,
                    "velocity": 0.33858267716535434,
                    "duration": 0.07500000000001705
                },
                {
                    "name": "F2",
                    "midi": 41,
                    "time": 205.39999999999978,
                    "velocity": 0.33858267716535434,
                    "duration": 0.07500000000001705
                },
                {
                    "name": "E2",
                    "midi": 40,
                    "time": 205.4499999999998,
                    "velocity": 0.33070866141732286,
                    "duration": 0.07500000000001705
                },
                {
                    "name": "D#2",
                    "midi": 39,
                    "time": 205.4999999999998,
                    "velocity": 0.3228346456692913,
                    "duration": 0.10000000000002274
                },
                {
                    "name": "F2",
                    "midi": 41,
                    "time": 205.57499999999982,
                    "velocity": 0.2992125984251969,
                    "duration": 0.10000000000002274
                },
                {
                    "name": "D#2",
                    "midi": 39,
                    "time": 205.64999999999984,
                    "velocity": 0.3228346456692913,
                    "duration": 0.10000000000002274
                },
                {
                    "name": "F2",
                    "midi": 41,
                    "time": 205.72499999999985,
                    "velocity": 0.2755905511811024,
                    "duration": 0.10000000000002274
                },
                {
                    "name": "D#2",
                    "midi": 39,
                    "time": 205.79999999999987,
                    "velocity": 0.30708661417322836,
                    "duration": 0.11250000000001137
                },
                {
                    "name": "F2",
                    "midi": 41,
                    "time": 205.8749999999999,
                    "velocity": 0.2755905511811024,
                    "duration": 0.11249999999998295
                },
                {
                    "name": "D#2",
                    "midi": 39,
                    "time": 205.94999999999987,
                    "velocity": 0.30708661417322836,
                    "duration": 0.11249999999998295
                },
                {
                    "name": "F2",
                    "midi": 41,
                    "time": 206.02499999999986,
                    "velocity": 0.2755905511811024,
                    "duration": 0.11249999999998295
                },
                {
                    "name": "D#2",
                    "midi": 39,
                    "time": 206.09999999999985,
                    "velocity": 0.29133858267716534,
                    "duration": 0.125
                },
                {
                    "name": "F2",
                    "midi": 41,
                    "time": 206.17499999999984,
                    "velocity": 0.2440944881889764,
                    "duration": 0.12500000000002842
                },
                {
                    "name": "D#2",
                    "midi": 39,
                    "time": 206.24999999999986,
                    "velocity": 0.28346456692913385,
                    "duration": 0.12500000000002842
                },
                {
                    "name": "F2",
                    "midi": 41,
                    "time": 206.32499999999987,
                    "velocity": 0.2440944881889764,
                    "duration": 0.12500000000002842
                },
                {
                    "name": "D#2",
                    "midi": 39,
                    "time": 206.3999999999999,
                    "velocity": 0.28346456692913385,
                    "duration": 0.15000000000000568
                },
                {
                    "name": "F2",
                    "midi": 41,
                    "time": 206.4749999999999,
                    "velocity": 0.2440944881889764,
                    "duration": 0.14999999999997726
                },
                {
                    "name": "D#2",
                    "midi": 39,
                    "time": 206.5499999999999,
                    "velocity": 0.28346456692913385,
                    "duration": 0.14999999999997726
                },
                {
                    "name": "F2",
                    "midi": 41,
                    "time": 206.6249999999999,
                    "velocity": 0.2440944881889764,
                    "duration": 0.14999999999997726
                },
                {
                    "name": "D#2",
                    "midi": 39,
                    "time": 206.69999999999987,
                    "velocity": 0.29133858267716534,
                    "duration": 0.14999999999997726
                },
                {
                    "name": "F2",
                    "midi": 41,
                    "time": 206.77499999999986,
                    "velocity": 0.28346456692913385,
                    "duration": 0.14999999999997726
                },
                {
                    "name": "D#2",
                    "midi": 39,
                    "time": 206.84999999999985,
                    "velocity": 0.30708661417322836,
                    "duration": 0.14999999999997726
                },
                {
                    "name": "F2",
                    "midi": 41,
                    "time": 206.92499999999984,
                    "velocity": 0.29133858267716534,
                    "duration": 0.15000000000000568
                },
                {
                    "name": "D#2",
                    "midi": 39,
                    "time": 206.99999999999983,
                    "velocity": 0.28346456692913385,
                    "duration": 0.07500000000001705
                },
                {
                    "name": "E2",
                    "midi": 40,
                    "time": 207.04999999999984,
                    "velocity": 0.28346456692913385,
                    "duration": 0.07500000000001705
                },
                {
                    "name": "F2",
                    "midi": 41,
                    "time": 207.09999999999985,
                    "velocity": 0.29133858267716534,
                    "duration": 0.07500000000001705
                },
                {
                    "name": "F#2",
                    "midi": 42,
                    "time": 207.14999999999986,
                    "velocity": 0.2992125984251969,
                    "duration": 0.07500000000001705
                },
                {
                    "name": "G2",
                    "midi": 43,
                    "time": 207.19999999999987,
                    "velocity": 0.30708661417322836,
                    "duration": 0.07500000000001705
                },
                {
                    "name": "G#2",
                    "midi": 44,
                    "time": 207.2499999999999,
                    "velocity": 0.30708661417322836,
                    "duration": 0.07500000000001705
                },
                {
                    "name": "A2",
                    "midi": 45,
                    "time": 207.2999999999999,
                    "velocity": 0.33858267716535434,
                    "duration": 0.15000000000000568
                },
                {
                    "name": "A#2",
                    "midi": 46,
                    "time": 207.37499999999991,
                    "velocity": 0.28346456692913385,
                    "duration": 0.14999999999997726
                },
                {
                    "name": "A2",
                    "midi": 45,
                    "time": 207.4499999999999,
                    "velocity": 0.33858267716535434,
                    "duration": 0.14999999999997726
                },
                {
                    "name": "A#2",
                    "midi": 46,
                    "time": 207.5249999999999,
                    "velocity": 0.28346456692913385,
                    "duration": 0.14999999999997726
                },
                {
                    "name": "A2",
                    "midi": 45,
                    "time": 207.59999999999988,
                    "velocity": 0.33070866141732286,
                    "duration": 0.14999999999997726
                },
                {
                    "name": "A#2",
                    "midi": 46,
                    "time": 207.67499999999987,
                    "velocity": 0.29133858267716534,
                    "duration": 0.14999999999997726
                },
                {
                    "name": "A2",
                    "midi": 45,
                    "time": 207.74999999999986,
                    "velocity": 0.33070866141732286,
                    "duration": 0.14999999999997726
                },
                {
                    "name": "A#2",
                    "midi": 46,
                    "time": 207.82499999999985,
                    "velocity": 0.29133858267716534,
                    "duration": 0.14999999999997726
                },
                {
                    "name": "A2",
                    "midi": 45,
                    "time": 207.89999999999984,
                    "velocity": 0.33070866141732286,
                    "duration": 0.14999999999997726
                },
                {
                    "name": "A#2",
                    "midi": 46,
                    "time": 207.97499999999982,
                    "velocity": 0.2992125984251969,
                    "duration": 0.14999999999997726
                },
                {
                    "name": "A2",
                    "midi": 45,
                    "time": 208.0499999999998,
                    "velocity": 0.3228346456692913,
                    "duration": 0.14999999999997726
                },
                {
                    "name": "A#2",
                    "midi": 46,
                    "time": 208.1249999999998,
                    "velocity": 0.28346456692913385,
                    "duration": 0.14999999999997726
                },
                {
                    "name": "A2",
                    "midi": 45,
                    "time": 208.1999999999998,
                    "velocity": 0.2992125984251969,
                    "duration": 0.14999999999997726
                },
                {
                    "name": "A#2",
                    "midi": 46,
                    "time": 208.27499999999978,
                    "velocity": 0.25984251968503935,
                    "duration": 0.14999999999997726
                },
                {
                    "name": "A2",
                    "midi": 45,
                    "time": 208.34999999999977,
                    "velocity": 0.31496062992125984,
                    "duration": 0.14999999999997726
                },
                {
                    "name": "A#2",
                    "midi": 46,
                    "time": 208.42499999999976,
                    "velocity": 0.2755905511811024,
                    "duration": 0.14999999999997726
                },
                {
                    "name": "A2",
                    "midi": 45,
                    "time": 208.49999999999974,
                    "velocity": 0.33070866141732286,
                    "duration": 0.14999999999997726
                },
                {
                    "name": "A#2",
                    "midi": 46,
                    "time": 208.57499999999973,
                    "velocity": 0.2755905511811024,
                    "duration": 0.14999999999997726
                },
                {
                    "name": "A2",
                    "midi": 45,
                    "time": 208.64999999999972,
                    "velocity": 0.3464566929133858,
                    "duration": 0.14999999999997726
                },
                {
                    "name": "A#2",
                    "midi": 46,
                    "time": 208.7249999999997,
                    "velocity": 0.2992125984251969,
                    "duration": 0.15000000000000568
                },
                {
                    "name": "A2",
                    "midi": 45,
                    "time": 208.7999999999997,
                    "velocity": 0.3464566929133858,
                    "duration": 0.07500000000001705
                },
                {
                    "name": "G#2",
                    "midi": 44,
                    "time": 208.8499999999997,
                    "velocity": 0.3464566929133858,
                    "duration": 0.07500000000001705
                },
                {
                    "name": "G2",
                    "midi": 43,
                    "time": 208.89999999999972,
                    "velocity": 0.33858267716535434,
                    "duration": 0.07500000000001705
                },
                {
                    "name": "F#2",
                    "midi": 42,
                    "time": 208.94999999999973,
                    "velocity": 0.33070866141732286,
                    "duration": 0.07500000000001705
                },
                {
                    "name": "F2",
                    "midi": 41,
                    "time": 208.99999999999974,
                    "velocity": 0.3228346456692913,
                    "duration": 0.07500000000001705
                },
                {
                    "name": "E2",
                    "midi": 40,
                    "time": 209.04999999999976,
                    "velocity": 0.3228346456692913,
                    "duration": 0.07500000000001705
                },
                {
                    "name": "D#2",
                    "midi": 39,
                    "time": 209.09999999999977,
                    "velocity": 0.31496062992125984,
                    "duration": 0.10000000000002274
                },
                {
                    "name": "F2",
                    "midi": 41,
                    "time": 209.17499999999978,
                    "velocity": 0.2992125984251969,
                    "duration": 0.10000000000002274
                },
                {
                    "name": "D#2",
                    "midi": 39,
                    "time": 209.2499999999998,
                    "velocity": 0.3228346456692913,
                    "duration": 0.10000000000002274
                },
                {
                    "name": "F2",
                    "midi": 41,
                    "time": 209.32499999999982,
                    "velocity": 0.2755905511811024,
                    "duration": 0.10000000000002274
                },
                {
                    "name": "D#2",
                    "midi": 39,
                    "time": 209.39999999999984,
                    "velocity": 0.30708661417322836,
                    "duration": 0.11250000000001137
                },
                {
                    "name": "F2",
                    "midi": 41,
                    "time": 209.47499999999985,
                    "velocity": 0.2755905511811024,
                    "duration": 0.11249999999998295
                },
                {
                    "name": "D#2",
                    "midi": 39,
                    "time": 209.54999999999984,
                    "velocity": 0.30708661417322836,
                    "duration": 0.11249999999998295
                },
                {
                    "name": "F2",
                    "midi": 41,
                    "time": 209.62499999999983,
                    "velocity": 0.2755905511811024,
                    "duration": 0.11249999999998295
                },
                {
                    "name": "D#2",
                    "midi": 39,
                    "time": 209.69999999999982,
                    "velocity": 0.29133858267716534,
                    "duration": 0.125
                },
                {
                    "name": "F2",
                    "midi": 41,
                    "time": 209.7749999999998,
                    "velocity": 0.2440944881889764,
                    "duration": 0.12500000000002842
                },
                {
                    "name": "D#2",
                    "midi": 39,
                    "time": 209.84999999999982,
                    "velocity": 0.28346456692913385,
                    "duration": 0.12500000000002842
                },
                {
                    "name": "F2",
                    "midi": 41,
                    "time": 209.92499999999984,
                    "velocity": 0.2440944881889764,
                    "duration": 0.12500000000002842
                },
                {
                    "name": "D#2",
                    "midi": 39,
                    "time": 209.99999999999986,
                    "velocity": 0.28346456692913385,
                    "duration": 0.15000000000000568
                },
                {
                    "name": "F2",
                    "midi": 41,
                    "time": 210.07499999999987,
                    "velocity": 0.2440944881889764,
                    "duration": 0.14999999999997726
                },
                {
                    "name": "D#2",
                    "midi": 39,
                    "time": 210.14999999999986,
                    "velocity": 0.28346456692913385,
                    "duration": 0.14999999999997726
                },
                {
                    "name": "F2",
                    "midi": 41,
                    "time": 210.22499999999985,
                    "velocity": 0.2440944881889764,
                    "duration": 0.14999999999997726
                },
                {
                    "name": "D#2",
                    "midi": 39,
                    "time": 210.29999999999984,
                    "velocity": 0.29133858267716534,
                    "duration": 0.14999999999997726
                },
                {
                    "name": "F2",
                    "midi": 41,
                    "time": 210.37499999999983,
                    "velocity": 0.28346456692913385,
                    "duration": 0.14999999999997726
                },
                {
                    "name": "D#2",
                    "midi": 39,
                    "time": 210.44999999999982,
                    "velocity": 0.30708661417322836,
                    "duration": 0.14999999999997726
                },
                {
                    "name": "F2",
                    "midi": 41,
                    "time": 210.5249999999998,
                    "velocity": 0.29133858267716534,
                    "duration": 0.15000000000000568
                },
                {
                    "name": "D#2",
                    "midi": 39,
                    "time": 210.5999999999998,
                    "velocity": 0.4330708661417323,
                    "duration": 0.07500000000001705
                },
                {
                    "name": "E2",
                    "midi": 40,
                    "time": 210.6499999999998,
                    "velocity": 0.4409448818897638,
                    "duration": 0.07500000000001705
                },
                {
                    "name": "F2",
                    "midi": 41,
                    "time": 210.69999999999982,
                    "velocity": 0.44881889763779526,
                    "duration": 0.07500000000001705
                },
                {
                    "name": "F#2",
                    "midi": 42,
                    "time": 210.74999999999983,
                    "velocity": 0.4566929133858268,
                    "duration": 0.07500000000001705
                },
                {
                    "name": "G2",
                    "midi": 43,
                    "time": 210.79999999999984,
                    "velocity": 0.4645669291338583,
                    "duration": 0.07500000000001705
                },
                {
                    "name": "G#2",
                    "midi": 44,
                    "time": 210.84999999999985,
                    "velocity": 0.47244094488188976,
                    "duration": 0.07500000000001705
                },
                {
                    "name": "A2",
                    "midi": 45,
                    "time": 210.89999999999986,
                    "velocity": 0.49606299212598426,
                    "duration": 0.10000000000002274
                },
                {
                    "name": "A#2",
                    "midi": 46,
                    "time": 210.97499999999988,
                    "velocity": 0.4330708661417323,
                    "duration": 0.10000000000002274
                },
                {
                    "name": "A2",
                    "midi": 45,
                    "time": 211.0499999999999,
                    "velocity": 0.49606299212598426,
                    "duration": 0.10000000000002274
                },
                {
                    "name": "A#2",
                    "midi": 46,
                    "time": 211.12499999999991,
                    "velocity": 0.4251968503937008,
                    "duration": 0.10000000000002274
                },
                {
                    "name": "A2",
                    "midi": 45,
                    "time": 211.19999999999993,
                    "velocity": 0.4881889763779528,
                    "duration": 0.10000000000002274
                },
                {
                    "name": "A#2",
                    "midi": 46,
                    "time": 211.27499999999995,
                    "velocity": 0.4409448818897638,
                    "duration": 0.10000000000002274
                },
                {
                    "name": "A2",
                    "midi": 45,
                    "time": 211.34999999999997,
                    "velocity": 0.5118110236220472,
                    "duration": 0.10000000000002274
                },
                {
                    "name": "A#2",
                    "midi": 46,
                    "time": 211.42499999999998,
                    "velocity": 0.44881889763779526,
                    "duration": 0.10000000000002274
                },
                {
                    "name": "A2",
                    "midi": 45,
                    "time": 211.5,
                    "velocity": 0.5275590551181102,
                    "duration": 0.10000000000002274
                },
                {
                    "name": "A#2",
                    "midi": 46,
                    "time": 211.57500000000002,
                    "velocity": 0.47244094488188976,
                    "duration": 0.10000000000002274
                },
                {
                    "name": "A2",
                    "midi": 45,
                    "time": 211.65000000000003,
                    "velocity": 0.5275590551181102,
                    "duration": 0.10000000000002274
                },
                {
                    "name": "A#2",
                    "midi": 46,
                    "time": 211.72500000000005,
                    "velocity": 0.4566929133858268,
                    "duration": 0.10000000000002274
                },
                {
                    "name": "A2",
                    "midi": 45,
                    "time": 211.80000000000007,
                    "velocity": 0.48031496062992124,
                    "duration": 0.10000000000002274
                },
                {
                    "name": "A#2",
                    "midi": 46,
                    "time": 211.87500000000009,
                    "velocity": 0.4881889763779528,
                    "duration": 0.10000000000002274
                },
                {
                    "name": "B2",
                    "midi": 47,
                    "time": 211.9500000000001,
                    "velocity": 0.5039370078740157,
                    "duration": 0.10000000000002274
                },
                {
                    "name": "C3",
                    "midi": 48,
                    "time": 212.02500000000012,
                    "velocity": 0.5196850393700787,
                    "duration": 0.10000000000002274
                },
                {
                    "name": "C#3",
                    "midi": 49,
                    "time": 212.10000000000014,
                    "velocity": 0.5275590551181102,
                    "duration": 0.10000000000002274
                },
                {
                    "name": "D3",
                    "midi": 50,
                    "time": 212.17500000000015,
                    "velocity": 0.5433070866141733,
                    "duration": 0.10000000000002274
                },
                {
                    "name": "D#3",
                    "midi": 51,
                    "time": 212.25000000000017,
                    "velocity": 0.5590551181102362,
                    "duration": 0.10000000000002274
                },
                {
                    "name": "F3",
                    "midi": 53,
                    "time": 212.3250000000002,
                    "velocity": 0.5748031496062992,
                    "duration": 0.10000000000002274
                },
                {
                    "name": "F#3",
                    "midi": 54,
                    "time": 212.4000000000002,
                    "velocity": 0.5826771653543307,
                    "duration": 0.10000000000002274
                },
                {
                    "name": "G3",
                    "midi": 55,
                    "time": 212.47500000000022,
                    "velocity": 0.5984251968503937,
                    "duration": 0.10000000000002274
                },
                {
                    "name": "G#3",
                    "midi": 56,
                    "time": 212.55000000000024,
                    "velocity": 0.6141732283464567,
                    "duration": 0.10000000000002274
                },
                {
                    "name": "A3",
                    "midi": 57,
                    "time": 212.62500000000026,
                    "velocity": 0.5905511811023622,
                    "duration": 0.10000000000002274
                },
                {
                    "name": "A#3",
                    "midi": 58,
                    "time": 212.70000000000027,
                    "velocity": 0.5590551181102362,
                    "duration": 0.10000000000002274
                },
                {
                    "name": "A3",
                    "midi": 57,
                    "time": 212.7750000000003,
                    "velocity": 0.5748031496062992,
                    "duration": 0.10000000000002274
                },
                {
                    "name": "A#3",
                    "midi": 58,
                    "time": 212.8500000000003,
                    "velocity": 0.5511811023622047,
                    "duration": 0.10000000000002274
                },
                {
                    "name": "A3",
                    "midi": 57,
                    "time": 212.92500000000032,
                    "velocity": 0.5905511811023622,
                    "duration": 0.10000000000002274
                },
                {
                    "name": "A#3",
                    "midi": 58,
                    "time": 213.00000000000034,
                    "velocity": 0.5590551181102362,
                    "duration": 0.10000000000002274
                },
                {
                    "name": "A3",
                    "midi": 57,
                    "time": 213.07500000000036,
                    "velocity": 0.5984251968503937,
                    "duration": 0.10000000000002274
                },
                {
                    "name": "A#3",
                    "midi": 58,
                    "time": 213.15000000000038,
                    "velocity": 0.5590551181102362,
                    "duration": 0.10000000000002274
                },
                {
                    "name": "A3",
                    "midi": 57,
                    "time": 213.2250000000004,
                    "velocity": 0.6062992125984252,
                    "duration": 0.10000000000002274
                },
                {
                    "name": "A#3",
                    "midi": 58,
                    "time": 213.3000000000004,
                    "velocity": 0.5669291338582677,
                    "duration": 0.10000000000002274
                },
                {
                    "name": "A3",
                    "midi": 57,
                    "time": 213.37500000000043,
                    "velocity": 0.6220472440944882,
                    "duration": 0.10000000000002274
                },
                {
                    "name": "A#3",
                    "midi": 58,
                    "time": 213.45000000000044,
                    "velocity": 0.5905511811023622,
                    "duration": 0.10000000000002274
                },
                {
                    "name": "A3",
                    "midi": 57,
                    "time": 213.52500000000046,
                    "velocity": 0.5984251968503937,
                    "duration": 0.10000000000002274
                },
                {
                    "name": "A#3",
                    "midi": 58,
                    "time": 213.60000000000048,
                    "velocity": 0.5433070866141733,
                    "duration": 0.10000000000002274
                },
                {
                    "name": "A3",
                    "midi": 57,
                    "time": 213.6750000000005,
                    "velocity": 0.6377952755905512,
                    "duration": 0.10000000000002274
                },
                {
                    "name": "A#3",
                    "midi": 58,
                    "time": 213.7500000000005,
                    "velocity": 0.5826771653543307,
                    "duration": 0.10000000000002274
                },
                {
                    "name": "A3",
                    "midi": 57,
                    "time": 213.82500000000053,
                    "velocity": 0.6456692913385826,
                    "duration": 0.10000000000002274
                },
                {
                    "name": "A#3",
                    "midi": 58,
                    "time": 213.90000000000055,
                    "velocity": 0.5905511811023622,
                    "duration": 0.10000000000002274
                },
                {
                    "name": "A3",
                    "midi": 57,
                    "time": 213.97500000000056,
                    "velocity": 0.6535433070866141,
                    "duration": 0.10000000000002274
                },
                {
                    "name": "A#3",
                    "midi": 58,
                    "time": 214.05000000000058,
                    "velocity": 0.5905511811023622,
                    "duration": 0.10000000000002274
                },
                {
                    "name": "A3",
                    "midi": 57,
                    "time": 214.1250000000006,
                    "velocity": 0.6692913385826772,
                    "duration": 0.10000000000002274
                },
                {
                    "name": "A#3",
                    "midi": 58,
                    "time": 214.2000000000006,
                    "velocity": 0.6062992125984252,
                    "duration": 0.10000000000002274
                },
                {
                    "name": "A3",
                    "midi": 57,
                    "time": 214.27500000000063,
                    "velocity": 0.6771653543307087,
                    "duration": 0.10000000000002274
                },
                {
                    "name": "A#3",
                    "midi": 58,
                    "time": 214.35000000000065,
                    "velocity": 0.6141732283464567,
                    "duration": 0.10000000000002274
                },
                {
                    "name": "B3",
                    "midi": 59,
                    "time": 214.42500000000067,
                    "velocity": 0.6456692913385826,
                    "duration": 0.30000000000001137
                },
                {
                    "name": "D#4",
                    "midi": 63,
                    "time": 214.42500000000067,
                    "velocity": 0.7244094488188977,
                    "duration": 0.30000000000001137
                },
                {
                    "name": "G#3",
                    "midi": 56,
                    "time": 214.42500000000067,
                    "velocity": 0.6456692913385826,
                    "duration": 0.30000000000001137
                },
                {
                    "name": "B3",
                    "midi": 59,
                    "time": 214.72500000000068,
                    "velocity": 0.6299212598425197,
                    "duration": 0.44999999999998863
                },
                {
                    "name": "D#4",
                    "midi": 63,
                    "time": 214.72500000000068,
                    "velocity": 0.7007874015748031,
                    "duration": 0.44999999999998863
                },
                {
                    "name": "G#3",
                    "midi": 56,
                    "time": 214.72500000000068,
                    "velocity": 0.6299212598425197,
                    "duration": 0.44999999999998863
                },
                {
                    "name": "E4",
                    "midi": 64,
                    "time": 214.72500000000068,
                    "velocity": 0.7007874015748031,
                    "duration": 0.44999999999998863
                },
                {
                    "name": "G#3",
                    "midi": 56,
                    "time": 216.22500000000068,
                    "velocity": 0.6771653543307087,
                    "duration": 0.5999999999999943
                },
                {
                    "name": "B3",
                    "midi": 59,
                    "time": 216.22500000000068,
                    "velocity": 0.6771653543307087,
                    "duration": 0.5999999999999943
                },
                {
                    "name": "D#4",
                    "midi": 63,
                    "time": 216.22500000000068,
                    "velocity": 0.7559055118110236,
                    "duration": 0.5999999999999943
                },
                {
                    "name": "G#3",
                    "midi": 56,
                    "time": 216.82500000000067,
                    "velocity": 0.6377952755905512,
                    "duration": 0.9000000000000057
                },
                {
                    "name": "D#4",
                    "midi": 63,
                    "time": 216.82500000000067,
                    "velocity": 0.7086614173228346,
                    "duration": 0.9000000000000057
                },
                {
                    "name": "B3",
                    "midi": 59,
                    "time": 216.82500000000067,
                    "velocity": 0.6377952755905512,
                    "duration": 0.9000000000000057
                },
                {
                    "name": "E4",
                    "midi": 64,
                    "time": 216.82500000000067,
                    "velocity": 0.7086614173228346,
                    "duration": 0.9000000000000057
                },
                {
                    "name": "F#4",
                    "midi": 66,
                    "time": 218.92500000000067,
                    "velocity": 0.6377952755905512,
                    "duration": 0.15000000000000568
                },
                {
                    "name": "D4",
                    "midi": 62,
                    "time": 219.07500000000067,
                    "velocity": 0.49606299212598426,
                    "duration": 0.15000000000000568
                },
                {
                    "name": "D#4",
                    "midi": 63,
                    "time": 219.22500000000068,
                    "velocity": 0.5196850393700787,
                    "duration": 0.15000000000000568
                },
                {
                    "name": "B3",
                    "midi": 59,
                    "time": 219.37500000000068,
                    "velocity": 0.5433070866141733,
                    "duration": 0.15000000000000568
                },
                {
                    "name": "A#3",
                    "midi": 58,
                    "time": 219.5250000000007,
                    "velocity": 0.5748031496062992,
                    "duration": 0.15000000000000568
                },
                {
                    "name": "D4",
                    "midi": 62,
                    "time": 219.6750000000007,
                    "velocity": 0.5590551181102362,
                    "duration": 0.15000000000000568
                },
                {
                    "name": "D#4",
                    "midi": 63,
                    "time": 219.8250000000007,
                    "velocity": 0.5826771653543307,
                    "duration": 0.15000000000000568
                },
                {
                    "name": "D4",
                    "midi": 62,
                    "time": 219.9750000000007,
                    "velocity": 0.5511811023622047,
                    "duration": 0.15000000000000568
                },
                {
                    "name": "B3",
                    "midi": 59,
                    "time": 220.1250000000007,
                    "velocity": 0.5748031496062992,
                    "duration": 0.15000000000000568
                },
                {
                    "name": "A#3",
                    "midi": 58,
                    "time": 220.27500000000072,
                    "velocity": 0.5984251968503937,
                    "duration": 0.15000000000000568
                },
                {
                    "name": "A3",
                    "midi": 57,
                    "time": 220.42500000000072,
                    "velocity": 0.6299212598425197,
                    "duration": 0.15000000000000568
                },
                {
                    "name": "A#3",
                    "midi": 58,
                    "time": 220.57500000000073,
                    "velocity": 0.6535433070866141,
                    "duration": 0.15000000000000568
                },
                {
                    "name": "A3",
                    "midi": 57,
                    "time": 220.72500000000073,
                    "velocity": 0.6771653543307087,
                    "duration": 0.15000000000000568
                },
                {
                    "name": "F3",
                    "midi": 53,
                    "time": 220.87500000000074,
                    "velocity": 0.5275590551181102,
                    "duration": 0.15000000000000568
                },
                {
                    "name": "F#3",
                    "midi": 54,
                    "time": 221.02500000000074,
                    "velocity": 0.5433070866141733,
                    "duration": 0.15000000000000568
                },
                {
                    "name": "D3",
                    "midi": 50,
                    "time": 221.17500000000075,
                    "velocity": 0.5669291338582677,
                    "duration": 0.15000000000000568
                },
                {
                    "name": "D#3",
                    "midi": 51,
                    "time": 221.32500000000076,
                    "velocity": 0.5905511811023622,
                    "duration": 0.15000000000000568
                },
                {
                    "name": "B2",
                    "midi": 47,
                    "time": 221.47500000000076,
                    "velocity": 0.6141732283464567,
                    "duration": 0.15000000000000568
                },
                {
                    "name": "A#2",
                    "midi": 46,
                    "time": 221.62500000000077,
                    "velocity": 0.6614173228346457,
                    "duration": 0.15000000000000568
                },
                {
                    "name": "A2",
                    "midi": 45,
                    "time": 221.77500000000077,
                    "velocity": 0.6692913385826772,
                    "duration": 0.15000000000000568
                },
                {
                    "name": "B2",
                    "midi": 47,
                    "time": 221.92500000000078,
                    "velocity": 0.5748031496062992,
                    "duration": 0.15000000000000568
                },
                {
                    "name": "A#2",
                    "midi": 46,
                    "time": 222.07500000000078,
                    "velocity": 0.5905511811023622,
                    "duration": 0.15000000000000568
                },
                {
                    "name": "F2",
                    "midi": 41,
                    "time": 222.2250000000008,
                    "velocity": 0.6141732283464567,
                    "duration": 0.15000000000000568
                },
                {
                    "name": "F#2",
                    "midi": 42,
                    "time": 222.3750000000008,
                    "velocity": 0.5669291338582677,
                    "duration": 0.15000000000000568
                },
                {
                    "name": "D#2",
                    "midi": 39,
                    "time": 222.5250000000008,
                    "velocity": 0.5511811023622047,
                    "duration": 0.48749999999998295
                },
                {
                    "name": "A#2",
                    "midi": 46,
                    "time": 222.5625000000008,
                    "velocity": 0.6535433070866141,
                    "duration": 0.44999999999998863
                },
                {
                    "name": "F#3",
                    "midi": 54,
                    "time": 222.6000000000008,
                    "velocity": 0.7007874015748031,
                    "duration": 0.4124999999999943
                }
            ],
            "controlChanges": {
                "7": [
                    {
                        "number": 7,
                        "time": 0,
                        "value": 0.7874015748031497
                    }
                ],
                "10": [
                    {
                        "number": 10,
                        "time": 0,
                        "value": 0.5039370078740157
                    }
                ],
                "91": [
                    {
                        "number": 91,
                        "time": 0,
                        "value": 1
                    }
                ]
            },
            "id": 2,
            "name": "Piano left",
            "instrumentNumber": 0,
            "instrument": "acoustic grand piano",
            "instrumentFamily": "piano",
            "channelNumber": 0,
            "isPercussion": false
        },
        {
            "startTime": 0,
            "duration": 0,
            "length": 0,
            "notes": [],
            "controlChanges": {
                "64": [
                    {
                        "number": 64,
                        "time": 0,
                        "value": 0
                    },
                    {
                        "number": 64,
                        "time": 0.08875,
                        "value": 1
                    },
                    {
                        "number": 64,
                        "time": 0.6124999999999999,
                        "value": 0
                    },
                    {
                        "number": 64,
                        "time": 0.83,
                        "value": 1
                    },
                    {
                        "number": 64,
                        "time": 1.2149999999999999,
                        "value": 0
                    },
                    {
                        "number": 64,
                        "time": 1.4124999999999999,
                        "value": 1
                    },
                    {
                        "number": 64,
                        "time": 1.80625,
                        "value": 0
                    },
                    {
                        "number": 64,
                        "time": 2.0124999999999997,
                        "value": 1
                    },
                    {
                        "number": 64,
                        "time": 2.4124999999999996,
                        "value": 0
                    },
                    {
                        "number": 64,
                        "time": 2.5949999999999998,
                        "value": 1
                    },
                    {
                        "number": 64,
                        "time": 3,
                        "value": 0
                    },
                    {
                        "number": 64,
                        "time": 3.075,
                        "value": 1
                    },
                    {
                        "number": 64,
                        "time": 3.615,
                        "value": 0
                    },
                    {
                        "number": 64,
                        "time": 3.8475,
                        "value": 1
                    },
                    {
                        "number": 64,
                        "time": 4.215,
                        "value": 0
                    },
                    {
                        "number": 64,
                        "time": 4.43,
                        "value": 1
                    },
                    {
                        "number": 64,
                        "time": 4.81375,
                        "value": 0
                    },
                    {
                        "number": 64,
                        "time": 5.0649999999999995,
                        "value": 1
                    },
                    {
                        "number": 64,
                        "time": 5.414999999999999,
                        "value": 0
                    },
                    {
                        "number": 64,
                        "time": 5.647499999999999,
                        "value": 1
                    },
                    {
                        "number": 64,
                        "time": 6.014999999999999,
                        "value": 0
                    },
                    {
                        "number": 64,
                        "time": 6.176249999999999,
                        "value": 1
                    },
                    {
                        "number": 64,
                        "time": 6.458749999999998,
                        "value": 0
                    },
                    {
                        "number": 64,
                        "time": 6.723749999999998,
                        "value": 1
                    },
                    {
                        "number": 64,
                        "time": 7.214999999999998,
                        "value": 0
                    },
                    {
                        "number": 64,
                        "time": 7.447499999999998,
                        "value": 1
                    },
                    {
                        "number": 64,
                        "time": 7.814999999999998,
                        "value": 0
                    },
                    {
                        "number": 64,
                        "time": 8.047499999999998,
                        "value": 1
                    },
                    {
                        "number": 64,
                        "time": 8.414999999999997,
                        "value": 0
                    },
                    {
                        "number": 64,
                        "time": 8.664999999999997,
                        "value": 1
                    },
                    {
                        "number": 64,
                        "time": 9.014999999999997,
                        "value": 0
                    },
                    {
                        "number": 64,
                        "time": 9.212499999999997,
                        "value": 1
                    },
                    {
                        "number": 64,
                        "time": 9.599999999999996,
                        "value": 0
                    },
                    {
                        "number": 64,
                        "time": 9.706249999999995,
                        "value": 1
                    },
                    {
                        "number": 64,
                        "time": 10.207499999999996,
                        "value": 0
                    },
                    {
                        "number": 64,
                        "time": 10.341249999999995,
                        "value": 1
                    },
                    {
                        "number": 64,
                        "time": 10.676249999999996,
                        "value": 0
                    },
                    {
                        "number": 64,
                        "time": 11.012499999999996,
                        "value": 1
                    },
                    {
                        "number": 64,
                        "time": 11.416249999999996,
                        "value": 0
                    },
                    {
                        "number": 64,
                        "time": 11.576249999999996,
                        "value": 1
                    },
                    {
                        "number": 64,
                        "time": 12.013749999999996,
                        "value": 0
                    },
                    {
                        "number": 64,
                        "time": 12.194999999999997,
                        "value": 1
                    },
                    {
                        "number": 64,
                        "time": 12.614999999999997,
                        "value": 0
                    },
                    {
                        "number": 64,
                        "time": 12.794999999999996,
                        "value": 1
                    },
                    {
                        "number": 64,
                        "time": 13.076249999999996,
                        "value": 0
                    },
                    {
                        "number": 64,
                        "time": 13.306249999999997,
                        "value": 1
                    },
                    {
                        "number": 64,
                        "time": 13.814999999999996,
                        "value": 0
                    },
                    {
                        "number": 64,
                        "time": 14.082499999999996,
                        "value": 1
                    },
                    {
                        "number": 64,
                        "time": 14.414999999999996,
                        "value": 0
                    },
                    {
                        "number": 64,
                        "time": 14.629999999999995,
                        "value": 1
                    },
                    {
                        "number": 64,
                        "time": 15.012499999999996,
                        "value": 0
                    },
                    {
                        "number": 64,
                        "time": 15.247499999999995,
                        "value": 1
                    },
                    {
                        "number": 64,
                        "time": 15.614999999999995,
                        "value": 0
                    },
                    {
                        "number": 64,
                        "time": 15.829999999999995,
                        "value": 1
                    },
                    {
                        "number": 64,
                        "time": 16.199999999999996,
                        "value": 0
                    },
                    {
                        "number": 64,
                        "time": 16.271249999999995,
                        "value": 1
                    },
                    {
                        "number": 64,
                        "time": 16.814999999999994,
                        "value": 0
                    },
                    {
                        "number": 64,
                        "time": 17.012499999999996,
                        "value": 1
                    },
                    {
                        "number": 64,
                        "time": 17.276249999999997,
                        "value": 0
                    },
                    {
                        "number": 64,
                        "time": 17.595,
                        "value": 1
                    },
                    {
                        "number": 64,
                        "time": 18.009999999999998,
                        "value": 0
                    },
                    {
                        "number": 64,
                        "time": 18.194999999999997,
                        "value": 1
                    },
                    {
                        "number": 64,
                        "time": 18.615,
                        "value": 0
                    },
                    {
                        "number": 64,
                        "time": 18.83,
                        "value": 1
                    },
                    {
                        "number": 64,
                        "time": 19.215,
                        "value": 0
                    },
                    {
                        "number": 64,
                        "time": 19.43,
                        "value": 1
                    },
                    {
                        "number": 64,
                        "time": 19.64125,
                        "value": 0
                    },
                    {
                        "number": 64,
                        "time": 19.97625,
                        "value": 1
                    },
                    {
                        "number": 64,
                        "time": 20.4125,
                        "value": 0
                    },
                    {
                        "number": 64,
                        "time": 20.6825,
                        "value": 1
                    },
                    {
                        "number": 64,
                        "time": 21.015,
                        "value": 0
                    },
                    {
                        "number": 64,
                        "time": 21.265,
                        "value": 1
                    },
                    {
                        "number": 64,
                        "time": 21.60875,
                        "value": 0
                    },
                    {
                        "number": 64,
                        "time": 21.830000000000002,
                        "value": 1
                    },
                    {
                        "number": 64,
                        "time": 22.208750000000002,
                        "value": 0
                    },
                    {
                        "number": 64,
                        "time": 22.341250000000002,
                        "value": 1
                    },
                    {
                        "number": 64,
                        "time": 22.8,
                        "value": 0
                    },
                    {
                        "number": 64,
                        "time": 22.91375,
                        "value": 1
                    },
                    {
                        "number": 64,
                        "time": 23.40625,
                        "value": 0
                    },
                    {
                        "number": 64,
                        "time": 23.52875,
                        "value": 1
                    },
                    {
                        "number": 64,
                        "time": 23.857499999999998,
                        "value": 0
                    },
                    {
                        "number": 64,
                        "time": 24.171249999999997,
                        "value": 1
                    },
                    {
                        "number": 64,
                        "time": 24.608749999999997,
                        "value": 0
                    },
                    {
                        "number": 64,
                        "time": 24.77125,
                        "value": 1
                    },
                    {
                        "number": 64,
                        "time": 25.20875,
                        "value": 0
                    },
                    {
                        "number": 64,
                        "time": 25.37125,
                        "value": 1
                    },
                    {
                        "number": 64,
                        "time": 25.80875,
                        "value": 0
                    },
                    {
                        "number": 64,
                        "time": 25.94375,
                        "value": 1
                    },
                    {
                        "number": 64,
                        "time": 26.22875,
                        "value": 0
                    },
                    {
                        "number": 64,
                        "time": 26.4175,
                        "value": 1
                    },
                    {
                        "number": 64,
                        "time": 27.01,
                        "value": 0
                    },
                    {
                        "number": 64,
                        "time": 27.247500000000002,
                        "value": 1
                    },
                    {
                        "number": 64,
                        "time": 27.615000000000002,
                        "value": 0
                    },
                    {
                        "number": 64,
                        "time": 27.758750000000003,
                        "value": 1
                    },
                    {
                        "number": 64,
                        "time": 28.183750000000003,
                        "value": 0
                    },
                    {
                        "number": 64,
                        "time": 28.341250000000002,
                        "value": 1
                    },
                    {
                        "number": 64,
                        "time": 28.815,
                        "value": 0
                    },
                    {
                        "number": 64,
                        "time": 28.995,
                        "value": 1
                    },
                    {
                        "number": 64,
                        "time": 29.415000000000003,
                        "value": 0
                    },
                    {
                        "number": 64,
                        "time": 29.595000000000002,
                        "value": 1
                    },
                    {
                        "number": 64,
                        "time": 29.7525,
                        "value": 0
                    },
                    {
                        "number": 64,
                        "time": 30.071250000000003,
                        "value": 1
                    },
                    {
                        "number": 64,
                        "time": 30.305000000000003,
                        "value": 0
                    },
                    {
                        "number": 64,
                        "time": 30.442500000000003,
                        "value": 1
                    },
                    {
                        "number": 64,
                        "time": 30.615000000000002,
                        "value": 0
                    },
                    {
                        "number": 64,
                        "time": 30.771250000000002,
                        "value": 1
                    },
                    {
                        "number": 64,
                        "time": 31.20625,
                        "value": 0
                    },
                    {
                        "number": 64,
                        "time": 31.3575,
                        "value": 1
                    },
                    {
                        "number": 64,
                        "time": 31.505000000000003,
                        "value": 0
                    },
                    {
                        "number": 64,
                        "time": 31.6,
                        "value": 1
                    },
                    {
                        "number": 64,
                        "time": 31.813750000000002,
                        "value": 0
                    },
                    {
                        "number": 64,
                        "time": 31.92875,
                        "value": 1
                    },
                    {
                        "number": 64,
                        "time": 32.417500000000004,
                        "value": 0
                    },
                    {
                        "number": 64,
                        "time": 32.571250000000006,
                        "value": 1
                    },
                    {
                        "number": 64,
                        "time": 33.01375000000001,
                        "value": 0
                    },
                    {
                        "number": 64,
                        "time": 33.17125000000001,
                        "value": 1
                    },
                    {
                        "number": 64,
                        "time": 33.50000000000001,
                        "value": 0
                    },
                    {
                        "number": 64,
                        "time": 33.642500000000005,
                        "value": 1
                    },
                    {
                        "number": 64,
                        "time": 34.215,
                        "value": 0
                    },
                    {
                        "number": 64,
                        "time": 34.400000000000006,
                        "value": 1
                    },
                    {
                        "number": 64,
                        "time": 34.813750000000006,
                        "value": 0
                    },
                    {
                        "number": 64,
                        "time": 34.986250000000005,
                        "value": 1
                    },
                    {
                        "number": 64,
                        "time": 35.41375000000001,
                        "value": 0
                    },
                    {
                        "number": 64,
                        "time": 35.58625000000001,
                        "value": 1
                    },
                    {
                        "number": 64,
                        "time": 36.02875000000001,
                        "value": 0
                    },
                    {
                        "number": 64,
                        "time": 36.21500000000001,
                        "value": 1
                    },
                    {
                        "number": 64,
                        "time": 36.60000000000001,
                        "value": 0
                    },
                    {
                        "number": 64,
                        "time": 36.71000000000001,
                        "value": 1
                    },
                    {
                        "number": 64,
                        "time": 37.21125000000001,
                        "value": 0
                    },
                    {
                        "number": 64,
                        "time": 37.41250000000001,
                        "value": 1
                    },
                    {
                        "number": 64,
                        "time": 37.81500000000001,
                        "value": 0
                    },
                    {
                        "number": 64,
                        "time": 37.976250000000014,
                        "value": 1
                    },
                    {
                        "number": 64,
                        "time": 38.41500000000001,
                        "value": 0
                    },
                    {
                        "number": 64,
                        "time": 38.59500000000001,
                        "value": 1
                    },
                    {
                        "number": 64,
                        "time": 39.015000000000015,
                        "value": 0
                    },
                    {
                        "number": 64,
                        "time": 39.23000000000002,
                        "value": 1
                    },
                    {
                        "number": 64,
                        "time": 39.615000000000016,
                        "value": 0
                    },
                    {
                        "number": 64,
                        "time": 39.77625000000002,
                        "value": 1
                    },
                    {
                        "number": 64,
                        "time": 40.076250000000016,
                        "value": 0
                    },
                    {
                        "number": 64,
                        "time": 40.242500000000014,
                        "value": 1
                    },
                    {
                        "number": 64,
                        "time": 40.51125000000001,
                        "value": 0
                    },
                    {
                        "number": 64,
                        "time": 40.57125000000001,
                        "value": 1
                    },
                    {
                        "number": 64,
                        "time": 40.81625000000001,
                        "value": 0
                    },
                    {
                        "number": 64,
                        "time": 41.000000000000014,
                        "value": 1
                    },
                    {
                        "number": 64,
                        "time": 41.40875000000001,
                        "value": 0
                    },
                    {
                        "number": 64,
                        "time": 41.500000000000014,
                        "value": 1
                    },
                    {
                        "number": 64,
                        "time": 41.70750000000002,
                        "value": 0
                    },
                    {
                        "number": 64,
                        "time": 41.82875000000002,
                        "value": 1
                    },
                    {
                        "number": 64,
                        "time": 42.01375000000002,
                        "value": 0
                    },
                    {
                        "number": 64,
                        "time": 42.15750000000002,
                        "value": 1
                    },
                    {
                        "number": 64,
                        "time": 42.61750000000002,
                        "value": 0
                    },
                    {
                        "number": 64,
                        "time": 42.74250000000002,
                        "value": 1
                    },
                    {
                        "number": 64,
                        "time": 43.216250000000024,
                        "value": 0
                    },
                    {
                        "number": 64,
                        "time": 43.371250000000025,
                        "value": 1
                    },
                    {
                        "number": 64,
                        "time": 43.68625000000002,
                        "value": 0
                    },
                    {
                        "number": 64,
                        "time": 43.91375000000002,
                        "value": 1
                    },
                    {
                        "number": 64,
                        "time": 44.41750000000002,
                        "value": 0
                    },
                    {
                        "number": 64,
                        "time": 44.57125000000002,
                        "value": 1
                    },
                    {
                        "number": 64,
                        "time": 45.00750000000002,
                        "value": 0
                    },
                    {
                        "number": 64,
                        "time": 45.215000000000025,
                        "value": 1
                    },
                    {
                        "number": 64,
                        "time": 45.613750000000024,
                        "value": 0
                    },
                    {
                        "number": 64,
                        "time": 45.815000000000026,
                        "value": 1
                    },
                    {
                        "number": 64,
                        "time": 46.215000000000025,
                        "value": 0
                    },
                    {
                        "number": 64,
                        "time": 46.40000000000003,
                        "value": 1
                    },
                    {
                        "number": 64,
                        "time": 46.815000000000026,
                        "value": 0
                    },
                    {
                        "number": 64,
                        "time": 46.98625000000003,
                        "value": 1
                    },
                    {
                        "number": 64,
                        "time": 47.40000000000003,
                        "value": 0
                    },
                    {
                        "number": 64,
                        "time": 47.541250000000026,
                        "value": 1
                    },
                    {
                        "number": 64,
                        "time": 48.01500000000003,
                        "value": 0
                    },
                    {
                        "number": 64,
                        "time": 48.24750000000003,
                        "value": 1
                    },
                    {
                        "number": 64,
                        "time": 48.61500000000003,
                        "value": 0
                    },
                    {
                        "number": 64,
                        "time": 48.86500000000003,
                        "value": 1
                    },
                    {
                        "number": 64,
                        "time": 49.21500000000003,
                        "value": 0
                    },
                    {
                        "number": 64,
                        "time": 49.39500000000003,
                        "value": 1
                    },
                    {
                        "number": 64,
                        "time": 49.81750000000003,
                        "value": 0
                    },
                    {
                        "number": 64,
                        "time": 49.97625000000003,
                        "value": 1
                    },
                    {
                        "number": 64,
                        "time": 50.41500000000003,
                        "value": 0
                    },
                    {
                        "number": 64,
                        "time": 50.612500000000026,
                        "value": 1
                    },
                    {
                        "number": 64,
                        "time": 50.841250000000024,
                        "value": 0
                    },
                    {
                        "number": 64,
                        "time": 51.113750000000024,
                        "value": 1
                    },
                    {
                        "number": 64,
                        "time": 51.61500000000002,
                        "value": 0
                    },
                    {
                        "number": 64,
                        "time": 51.800000000000026,
                        "value": 1
                    },
                    {
                        "number": 64,
                        "time": 52.216250000000024,
                        "value": 0
                    },
                    {
                        "number": 64,
                        "time": 52.35750000000002,
                        "value": 1
                    },
                    {
                        "number": 64,
                        "time": 52.81375000000002,
                        "value": 0
                    },
                    {
                        "number": 64,
                        "time": 52.98625000000002,
                        "value": 1
                    },
                    {
                        "number": 64,
                        "time": 53.41625000000002,
                        "value": 0
                    },
                    {
                        "number": 64,
                        "time": 53.54250000000002,
                        "value": 1
                    },
                    {
                        "number": 64,
                        "time": 54.013750000000016,
                        "value": 0
                    },
                    {
                        "number": 64,
                        "time": 54.21500000000002,
                        "value": 1
                    },
                    {
                        "number": 64,
                        "time": 54.60375000000002,
                        "value": 0
                    },
                    {
                        "number": 64,
                        "time": 54.80000000000002,
                        "value": 1
                    },
                    {
                        "number": 64,
                        "time": 55.21625000000002,
                        "value": 0
                    },
                    {
                        "number": 64,
                        "time": 55.41500000000001,
                        "value": 1
                    },
                    {
                        "number": 64,
                        "time": 55.803750000000015,
                        "value": 0
                    },
                    {
                        "number": 64,
                        "time": 55.97125000000001,
                        "value": 1
                    },
                    {
                        "number": 64,
                        "time": 56.22875000000001,
                        "value": 0
                    },
                    {
                        "number": 64,
                        "time": 56.55750000000001,
                        "value": 1
                    },
                    {
                        "number": 64,
                        "time": 57.007500000000014,
                        "value": 0
                    },
                    {
                        "number": 64,
                        "time": 57.12875000000002,
                        "value": 1
                    },
                    {
                        "number": 64,
                        "time": 57.61375000000002,
                        "value": 0
                    },
                    {
                        "number": 64,
                        "time": 57.74375000000002,
                        "value": 1
                    },
                    {
                        "number": 64,
                        "time": 57.91125000000002,
                        "value": 0
                    },
                    {
                        "number": 64,
                        "time": 58.013750000000016,
                        "value": 1
                    },
                    {
                        "number": 64,
                        "time": 58.20000000000002,
                        "value": 0
                    },
                    {
                        "number": 64,
                        "time": 58.37625000000002,
                        "value": 1
                    },
                    {
                        "number": 64,
                        "time": 58.81500000000002,
                        "value": 0
                    },
                    {
                        "number": 64,
                        "time": 59.01125000000002,
                        "value": 1
                    },
                    {
                        "number": 64,
                        "time": 59.41625000000002,
                        "value": 0
                    },
                    {
                        "number": 64,
                        "time": 59.63000000000002,
                        "value": 1
                    },
                    {
                        "number": 64,
                        "time": 60.015000000000015,
                        "value": 0
                    },
                    {
                        "number": 64,
                        "time": 60.23000000000002,
                        "value": 1
                    },
                    {
                        "number": 64,
                        "time": 60.61750000000002,
                        "value": 0
                    },
                    {
                        "number": 64,
                        "time": 60.75875000000002,
                        "value": 1
                    },
                    {
                        "number": 64,
                        "time": 61.11250000000002,
                        "value": 0
                    },
                    {
                        "number": 64,
                        "time": 61.34125000000002,
                        "value": 1
                    },
                    {
                        "number": 64,
                        "time": 61.80000000000002,
                        "value": 0
                    },
                    {
                        "number": 64,
                        "time": 61.958750000000016,
                        "value": 1
                    },
                    {
                        "number": 64,
                        "time": 62.41500000000001,
                        "value": 0
                    },
                    {
                        "number": 64,
                        "time": 62.61125000000001,
                        "value": 1
                    },
                    {
                        "number": 64,
                        "time": 63.00250000000001,
                        "value": 0
                    },
                    {
                        "number": 64,
                        "time": 63.141250000000014,
                        "value": 1
                    },
                    {
                        "number": 64,
                        "time": 63.30875000000001,
                        "value": 0
                    },
                    {
                        "number": 64,
                        "time": 63.40625000000001,
                        "value": 1
                    },
                    {
                        "number": 64,
                        "time": 63.61750000000001,
                        "value": 0
                    },
                    {
                        "number": 64,
                        "time": 63.776250000000005,
                        "value": 1
                    },
                    {
                        "number": 64,
                        "time": 64.215,
                        "value": 0
                    },
                    {
                        "number": 64,
                        "time": 64.4475,
                        "value": 1
                    },
                    {
                        "number": 64,
                        "time": 64.80000000000001,
                        "value": 0
                    },
                    {
                        "number": 64,
                        "time": 64.95875000000001,
                        "value": 1
                    },
                    {
                        "number": 64,
                        "time": 65.4,
                        "value": 0
                    },
                    {
                        "number": 64,
                        "time": 65.55875,
                        "value": 1
                    },
                    {
                        "number": 64,
                        "time": 66.015,
                        "value": 0
                    },
                    {
                        "number": 64,
                        "time": 66.2825,
                        "value": 1
                    },
                    {
                        "number": 64,
                        "time": 66.47625,
                        "value": 0
                    },
                    {
                        "number": 64,
                        "time": 66.83,
                        "value": 1
                    },
                    {
                        "number": 64,
                        "time": 67.215,
                        "value": 0
                    },
                    {
                        "number": 64,
                        "time": 67.41250000000001,
                        "value": 1
                    },
                    {
                        "number": 64,
                        "time": 67.69500000000001,
                        "value": 0
                    },
                    {
                        "number": 64,
                        "time": 68.04750000000001,
                        "value": 1
                    },
                    {
                        "number": 64,
                        "time": 68.41125000000001,
                        "value": 0
                    },
                    {
                        "number": 64,
                        "time": 68.57625000000002,
                        "value": 1
                    },
                    {
                        "number": 64,
                        "time": 69.00000000000001,
                        "value": 0
                    },
                    {
                        "number": 64,
                        "time": 69.11500000000001,
                        "value": 1
                    },
                    {
                        "number": 64,
                        "time": 69.61000000000001,
                        "value": 0
                    },
                    {
                        "number": 64,
                        "time": 69.75750000000001,
                        "value": 1
                    },
                    {
                        "number": 64,
                        "time": 70.0575,
                        "value": 0
                    },
                    {
                        "number": 64,
                        "time": 70.4,
                        "value": 1
                    },
                    {
                        "number": 64,
                        "time": 70.81625000000001,
                        "value": 0
                    },
                    {
                        "number": 64,
                        "time": 70.95750000000001,
                        "value": 1
                    },
                    {
                        "number": 64,
                        "time": 71.31500000000001,
                        "value": 0
                    },
                    {
                        "number": 64,
                        "time": 71.60000000000001,
                        "value": 1
                    },
                    {
                        "number": 64,
                        "time": 72.00875,
                        "value": 0
                    },
                    {
                        "number": 64,
                        "time": 72.2,
                        "value": 1
                    },
                    {
                        "number": 64,
                        "time": 72.60000000000001,
                        "value": 0
                    },
                    {
                        "number": 64,
                        "time": 72.75875,
                        "value": 1
                    },
                    {
                        "number": 64,
                        "time": 73.215,
                        "value": 0
                    },
                    {
                        "number": 64,
                        "time": 73.37625,
                        "value": 1
                    },
                    {
                        "number": 64,
                        "time": 73.81375,
                        "value": 0
                    },
                    {
                        "number": 64,
                        "time": 73.995,
                        "value": 1
                    },
                    {
                        "number": 64,
                        "time": 74.415,
                        "value": 0
                    },
                    {
                        "number": 64,
                        "time": 74.59375,
                        "value": 1
                    },
                    {
                        "number": 64,
                        "time": 75.01875,
                        "value": 0
                    },
                    {
                        "number": 64,
                        "time": 75.21249999999999,
                        "value": 1
                    },
                    {
                        "number": 64,
                        "time": 75.5825,
                        "value": 0
                    },
                    {
                        "number": 64,
                        "time": 75.77624999999999,
                        "value": 1
                    },
                    {
                        "number": 64,
                        "time": 76.19999999999999,
                        "value": 0
                    },
                    {
                        "number": 64,
                        "time": 76.42875,
                        "value": 1
                    },
                    {
                        "number": 64,
                        "time": 76.815,
                        "value": 0
                    },
                    {
                        "number": 64,
                        "time": 77.0575,
                        "value": 1
                    },
                    {
                        "number": 64,
                        "time": 77.40875,
                        "value": 0
                    },
                    {
                        "number": 64,
                        "time": 77.62875,
                        "value": 1
                    },
                    {
                        "number": 64,
                        "time": 77.98125,
                        "value": 0
                    },
                    {
                        "number": 64,
                        "time": 78.22875,
                        "value": 1
                    },
                    {
                        "number": 64,
                        "time": 78.61375000000001,
                        "value": 0
                    },
                    {
                        "number": 64,
                        "time": 78.77125000000001,
                        "value": 1
                    },
                    {
                        "number": 64,
                        "time": 79.215,
                        "value": 0
                    },
                    {
                        "number": 64,
                        "time": 79.48625,
                        "value": 1
                    },
                    {
                        "number": 64,
                        "time": 79.8,
                        "value": 0
                    },
                    {
                        "number": 64,
                        "time": 79.90625,
                        "value": 1
                    },
                    {
                        "number": 64,
                        "time": 80.415,
                        "value": 0
                    },
                    {
                        "number": 64,
                        "time": 80.6825,
                        "value": 1
                    },
                    {
                        "number": 64,
                        "time": 81.015,
                        "value": 0
                    },
                    {
                        "number": 64,
                        "time": 81.2475,
                        "value": 1
                    },
                    {
                        "number": 64,
                        "time": 81.60875,
                        "value": 0
                    },
                    {
                        "number": 64,
                        "time": 81.795,
                        "value": 1
                    },
                    {
                        "number": 64,
                        "time": 82.215,
                        "value": 0
                    },
                    {
                        "number": 64,
                        "time": 82.39500000000001,
                        "value": 1
                    },
                    {
                        "number": 64,
                        "time": 82.81625000000001,
                        "value": 0
                    },
                    {
                        "number": 64,
                        "time": 82.95875000000001,
                        "value": 1
                    },
                    {
                        "number": 64,
                        "time": 83.20625000000001,
                        "value": 0
                    },
                    {
                        "number": 64,
                        "time": 84.63375,
                        "value": 1
                    },
                    {
                        "number": 64,
                        "time": 85.88875,
                        "value": 0
                    },
                    {
                        "number": 64,
                        "time": 87.25,
                        "value": 1
                    },
                    {
                        "number": 64,
                        "time": 88.58875,
                        "value": 0
                    },
                    {
                        "number": 64,
                        "time": 90.02125000000001,
                        "value": 1
                    },
                    {
                        "number": 64,
                        "time": 90.37125,
                        "value": 0
                    },
                    {
                        "number": 64,
                        "time": 90.63125000000001,
                        "value": 1
                    },
                    {
                        "number": 64,
                        "time": 90.94875,
                        "value": 0
                    },
                    {
                        "number": 64,
                        "time": 91.52625,
                        "value": 1
                    },
                    {
                        "number": 64,
                        "time": 91.92,
                        "value": 0
                    },
                    {
                        "number": 64,
                        "time": 93.6675,
                        "value": 1
                    },
                    {
                        "number": 64,
                        "time": 94.89125,
                        "value": 0
                    },
                    {
                        "number": 64,
                        "time": 96.35,
                        "value": 1
                    },
                    {
                        "number": 64,
                        "time": 96.60749999999999,
                        "value": 0
                    },
                    {
                        "number": 64,
                        "time": 96.89999999999999,
                        "value": 1
                    },
                    {
                        "number": 64,
                        "time": 97.17875,
                        "value": 0
                    },
                    {
                        "number": 64,
                        "time": 97.8625,
                        "value": 1
                    },
                    {
                        "number": 64,
                        "time": 98.52374999999999,
                        "value": 0
                    },
                    {
                        "number": 64,
                        "time": 99.46749999999999,
                        "value": 1
                    },
                    {
                        "number": 64,
                        "time": 99.71999999999998,
                        "value": 0
                    },
                    {
                        "number": 64,
                        "time": 99.96624999999999,
                        "value": 1
                    },
                    {
                        "number": 64,
                        "time": 101.12624999999998,
                        "value": 0
                    },
                    {
                        "number": 64,
                        "time": 101.76249999999999,
                        "value": 1
                    },
                    {
                        "number": 64,
                        "time": 102.01374999999999,
                        "value": 0
                    },
                    {
                        "number": 64,
                        "time": 102.57374999999999,
                        "value": 1
                    },
                    {
                        "number": 64,
                        "time": 102.81625,
                        "value": 0
                    },
                    {
                        "number": 64,
                        "time": 103.085,
                        "value": 1
                    },
                    {
                        "number": 64,
                        "time": 103.30624999999999,
                        "value": 0
                    },
                    {
                        "number": 64,
                        "time": 103.57124999999999,
                        "value": 1
                    },
                    {
                        "number": 64,
                        "time": 104.57624999999999,
                        "value": 0
                    },
                    {
                        "number": 64,
                        "time": 105.40124999999999,
                        "value": 1
                    },
                    {
                        "number": 64,
                        "time": 105.70625,
                        "value": 0
                    },
                    {
                        "number": 64,
                        "time": 106.315,
                        "value": 1
                    },
                    {
                        "number": 64,
                        "time": 106.615,
                        "value": 0
                    },
                    {
                        "number": 64,
                        "time": 108.47625,
                        "value": 1
                    },
                    {
                        "number": 64,
                        "time": 108.69749999999999,
                        "value": 0
                    },
                    {
                        "number": 64,
                        "time": 108.9575,
                        "value": 1
                    },
                    {
                        "number": 64,
                        "time": 110.09125,
                        "value": 0
                    },
                    {
                        "number": 64,
                        "time": 110.78,
                        "value": 1
                    },
                    {
                        "number": 64,
                        "time": 111.15,
                        "value": 0
                    },
                    {
                        "number": 64,
                        "time": 111.6225,
                        "value": 1
                    },
                    {
                        "number": 64,
                        "time": 111.9175,
                        "value": 0
                    },
                    {
                        "number": 64,
                        "time": 112.08500000000001,
                        "value": 1
                    },
                    {
                        "number": 64,
                        "time": 112.31,
                        "value": 0
                    },
                    {
                        "number": 64,
                        "time": 112.5925,
                        "value": 1
                    },
                    {
                        "number": 64,
                        "time": 113.6825,
                        "value": 0
                    },
                    {
                        "number": 64,
                        "time": 114.455,
                        "value": 1
                    },
                    {
                        "number": 64,
                        "time": 114.75,
                        "value": 0
                    },
                    {
                        "number": 64,
                        "time": 115.30625,
                        "value": 1
                    },
                    {
                        "number": 64,
                        "time": 115.56625000000001,
                        "value": 0
                    },
                    {
                        "number": 64,
                        "time": 116.11375000000001,
                        "value": 1
                    },
                    {
                        "number": 64,
                        "time": 116.215,
                        "value": 0
                    },
                    {
                        "number": 64,
                        "time": 116.435,
                        "value": 1
                    },
                    {
                        "number": 64,
                        "time": 116.52375,
                        "value": 0
                    },
                    {
                        "number": 64,
                        "time": 121.53625000000001,
                        "value": 1
                    },
                    {
                        "number": 64,
                        "time": 121.87125,
                        "value": 0
                    },
                    {
                        "number": 64,
                        "time": 122.10000000000001,
                        "value": 1
                    },
                    {
                        "number": 64,
                        "time": 122.27625,
                        "value": 0
                    },
                    {
                        "number": 64,
                        "time": 124.05000000000001,
                        "value": 1
                    },
                    {
                        "number": 64,
                        "time": 124.82750000000001,
                        "value": 0
                    },
                    {
                        "number": 64,
                        "time": 125.86625000000001,
                        "value": 1
                    },
                    {
                        "number": 64,
                        "time": 126.91375000000001,
                        "value": 0
                    },
                    {
                        "number": 64,
                        "time": 127.26750000000001,
                        "value": 1
                    },
                    {
                        "number": 64,
                        "time": 128.10000000000002,
                        "value": 0
                    },
                    {
                        "number": 64,
                        "time": 128.40000000000003,
                        "value": 1
                    },
                    {
                        "number": 64,
                        "time": 129.31250000000003,
                        "value": 0
                    },
                    {
                        "number": 64,
                        "time": 129.76750000000004,
                        "value": 1
                    },
                    {
                        "number": 64,
                        "time": 130.50000000000003,
                        "value": 0
                    },
                    {
                        "number": 64,
                        "time": 130.70000000000002,
                        "value": 1
                    },
                    {
                        "number": 64,
                        "time": 131.7075,
                        "value": 0
                    },
                    {
                        "number": 64,
                        "time": 131.91625000000002,
                        "value": 1
                    },
                    {
                        "number": 64,
                        "time": 132.31500000000003,
                        "value": 0
                    },
                    {
                        "number": 64,
                        "time": 132.66000000000003,
                        "value": 1
                    },
                    {
                        "number": 64,
                        "time": 132.90000000000003,
                        "value": 0
                    },
                    {
                        "number": 64,
                        "time": 133.16750000000005,
                        "value": 1
                    },
                    {
                        "number": 64,
                        "time": 134.10625000000005,
                        "value": 0
                    },
                    {
                        "number": 64,
                        "time": 134.53375000000005,
                        "value": 1
                    },
                    {
                        "number": 64,
                        "time": 135.30000000000007,
                        "value": 0
                    },
                    {
                        "number": 64,
                        "time": 135.42000000000007,
                        "value": 1
                    },
                    {
                        "number": 64,
                        "time": 135.90875000000008,
                        "value": 0
                    },
                    {
                        "number": 64,
                        "time": 136.1162500000001,
                        "value": 1
                    },
                    {
                        "number": 64,
                        "time": 136.5150000000001,
                        "value": 0
                    },
                    {
                        "number": 64,
                        "time": 136.6925000000001,
                        "value": 1
                    },
                    {
                        "number": 64,
                        "time": 137.11500000000012,
                        "value": 0
                    },
                    {
                        "number": 64,
                        "time": 137.38875000000013,
                        "value": 1
                    },
                    {
                        "number": 64,
                        "time": 137.70000000000013,
                        "value": 0
                    },
                    {
                        "number": 64,
                        "time": 137.95750000000012,
                        "value": 1
                    },
                    {
                        "number": 64,
                        "time": 138.3150000000001,
                        "value": 0
                    },
                    {
                        "number": 64,
                        "time": 138.61500000000012,
                        "value": 1
                    },
                    {
                        "number": 64,
                        "time": 138.91625000000013,
                        "value": 0
                    },
                    {
                        "number": 64,
                        "time": 139.27125000000012,
                        "value": 1
                    },
                    {
                        "number": 64,
                        "time": 140.10000000000014,
                        "value": 0
                    },
                    {
                        "number": 64,
                        "time": 140.32500000000013,
                        "value": 1
                    },
                    {
                        "number": 64,
                        "time": 140.71500000000012,
                        "value": 0
                    },
                    {
                        "number": 64,
                        "time": 140.96375000000012,
                        "value": 1
                    },
                    {
                        "number": 64,
                        "time": 141.30875000000012,
                        "value": 0
                    },
                    {
                        "number": 64,
                        "time": 141.58875000000012,
                        "value": 1
                    },
                    {
                        "number": 64,
                        "time": 141.9162500000001,
                        "value": 0
                    },
                    {
                        "number": 64,
                        "time": 142.1887500000001,
                        "value": 1
                    },
                    {
                        "number": 64,
                        "time": 142.5000000000001,
                        "value": 0
                    },
                    {
                        "number": 64,
                        "time": 144.46625000000012,
                        "value": 1
                    },
                    {
                        "number": 64,
                        "time": 145.5087500000001,
                        "value": 0
                    },
                    {
                        "number": 64,
                        "time": 145.8675000000001,
                        "value": 1
                    },
                    {
                        "number": 64,
                        "time": 146.7000000000001,
                        "value": 0
                    },
                    {
                        "number": 64,
                        "time": 147.1337500000001,
                        "value": 1
                    },
                    {
                        "number": 64,
                        "time": 147.9150000000001,
                        "value": 0
                    },
                    {
                        "number": 64,
                        "time": 148.3675000000001,
                        "value": 1
                    },
                    {
                        "number": 64,
                        "time": 149.10000000000008,
                        "value": 0
                    },
                    {
                        "number": 64,
                        "time": 149.41500000000008,
                        "value": 1
                    },
                    {
                        "number": 64,
                        "time": 150.31625000000008,
                        "value": 0
                    },
                    {
                        "number": 64,
                        "time": 150.64375000000007,
                        "value": 1
                    },
                    {
                        "number": 64,
                        "time": 150.91500000000008,
                        "value": 0
                    },
                    {
                        "number": 64,
                        "time": 151.1862500000001,
                        "value": 1
                    },
                    {
                        "number": 64,
                        "time": 151.50000000000009,
                        "value": 0
                    },
                    {
                        "number": 64,
                        "time": 151.73375000000007,
                        "value": 1
                    },
                    {
                        "number": 64,
                        "time": 152.71625000000006,
                        "value": 0
                    },
                    {
                        "number": 64,
                        "time": 153.16750000000005,
                        "value": 1
                    },
                    {
                        "number": 64,
                        "time": 153.90000000000003,
                        "value": 0
                    },
                    {
                        "number": 64,
                        "time": 153.95750000000004,
                        "value": 1
                    },
                    {
                        "number": 64,
                        "time": 154.51625000000004,
                        "value": 0
                    },
                    {
                        "number": 64,
                        "time": 154.67125000000004,
                        "value": 1
                    },
                    {
                        "number": 64,
                        "time": 155.11625000000004,
                        "value": 0
                    },
                    {
                        "number": 64,
                        "time": 155.35750000000004,
                        "value": 1
                    },
                    {
                        "number": 64,
                        "time": 155.71500000000003,
                        "value": 0
                    },
                    {
                        "number": 64,
                        "time": 156.15750000000003,
                        "value": 1
                    },
                    {
                        "number": 64,
                        "time": 156.31500000000003,
                        "value": 0
                    },
                    {
                        "number": 64,
                        "time": 156.63625000000002,
                        "value": 1
                    },
                    {
                        "number": 64,
                        "time": 156.91500000000002,
                        "value": 0
                    },
                    {
                        "number": 64,
                        "time": 157.18875000000003,
                        "value": 1
                    },
                    {
                        "number": 64,
                        "time": 157.51625,
                        "value": 0
                    },
                    {
                        "number": 64,
                        "time": 158.04250000000002,
                        "value": 1
                    },
                    {
                        "number": 64,
                        "time": 158.70000000000002,
                        "value": 0
                    },
                    {
                        "number": 64,
                        "time": 158.925,
                        "value": 1
                    },
                    {
                        "number": 64,
                        "time": 159.315,
                        "value": 0
                    },
                    {
                        "number": 64,
                        "time": 159.51624999999999,
                        "value": 1
                    },
                    {
                        "number": 64,
                        "time": 159.915,
                        "value": 0
                    },
                    {
                        "number": 64,
                        "time": 160.14,
                        "value": 1
                    },
                    {
                        "number": 64,
                        "time": 160.52124999999998,
                        "value": 0
                    },
                    {
                        "number": 64,
                        "time": 160.81249999999997,
                        "value": 1
                    },
                    {
                        "number": 64,
                        "time": 161.09999999999997,
                        "value": 0
                    },
                    {
                        "number": 64,
                        "time": 163.06749999999997,
                        "value": 1
                    },
                    {
                        "number": 64,
                        "time": 164.11999999999998,
                        "value": 0
                    },
                    {
                        "number": 64,
                        "time": 164.49999999999997,
                        "value": 1
                    },
                    {
                        "number": 64,
                        "time": 165.32249999999996,
                        "value": 0
                    },
                    {
                        "number": 64,
                        "time": 165.59999999999997,
                        "value": 1
                    },
                    {
                        "number": 64,
                        "time": 166.51749999999996,
                        "value": 0
                    },
                    {
                        "number": 64,
                        "time": 166.93374999999995,
                        "value": 1
                    },
                    {
                        "number": 64,
                        "time": 167.69999999999996,
                        "value": 0
                    },
                    {
                        "number": 64,
                        "time": 169.37249999999997,
                        "value": 1
                    },
                    {
                        "number": 64,
                        "time": 170.71624999999997,
                        "value": 0
                    },
                    {
                        "number": 64,
                        "time": 171.10875,
                        "value": 1
                    },
                    {
                        "number": 64,
                        "time": 171.9175,
                        "value": 0
                    },
                    {
                        "number": 64,
                        "time": 172.16625,
                        "value": 1
                    },
                    {
                        "number": 64,
                        "time": 173.11624999999998,
                        "value": 0
                    },
                    {
                        "number": 64,
                        "time": 173.53374999999997,
                        "value": 1
                    },
                    {
                        "number": 64,
                        "time": 174.30874999999997,
                        "value": 0
                    },
                    {
                        "number": 64,
                        "time": 174.49999999999997,
                        "value": 1
                    },
                    {
                        "number": 64,
                        "time": 175.51624999999999,
                        "value": 0
                    },
                    {
                        "number": 64,
                        "time": 175.84374999999997,
                        "value": 1
                    },
                    {
                        "number": 64,
                        "time": 176.70999999999998,
                        "value": 0
                    },
                    {
                        "number": 64,
                        "time": 177.03374999999997,
                        "value": 1
                    },
                    {
                        "number": 64,
                        "time": 177.90374999999997,
                        "value": 0
                    },
                    {
                        "number": 64,
                        "time": 178.19999999999996,
                        "value": 1
                    },
                    {
                        "number": 64,
                        "time": 179.09999999999997,
                        "value": 0
                    },
                    {
                        "number": 64,
                        "time": 179.36749999999998,
                        "value": 1
                    },
                    {
                        "number": 64,
                        "time": 180.31499999999997,
                        "value": 0
                    },
                    {
                        "number": 64,
                        "time": 180.79999999999998,
                        "value": 1
                    },
                    {
                        "number": 64,
                        "time": 181.51624999999999,
                        "value": 0
                    },
                    {
                        "number": 64,
                        "time": 181.62374999999997,
                        "value": 1
                    },
                    {
                        "number": 64,
                        "time": 182.71499999999997,
                        "value": 0
                    },
                    {
                        "number": 64,
                        "time": 182.92874999999998,
                        "value": 1
                    },
                    {
                        "number": 64,
                        "time": 183.75499999999997,
                        "value": 0
                    },
                    {
                        "number": 64,
                        "time": 183.81999999999996,
                        "value": 1
                    },
                    {
                        "number": 64,
                        "time": 185.11624999999995,
                        "value": 0
                    },
                    {
                        "number": 64,
                        "time": 185.55749999999995,
                        "value": 1
                    },
                    {
                        "number": 64,
                        "time": 186.32124999999994,
                        "value": 0
                    },
                    {
                        "number": 64,
                        "time": 186.56749999999994,
                        "value": 1
                    },
                    {
                        "number": 64,
                        "time": 187.51624999999993,
                        "value": 0
                    },
                    {
                        "number": 64,
                        "time": 187.86749999999992,
                        "value": 1
                    },
                    {
                        "number": 64,
                        "time": 188.71624999999992,
                        "value": 0
                    },
                    {
                        "number": 64,
                        "time": 188.95749999999992,
                        "value": 1
                    },
                    {
                        "number": 64,
                        "time": 189.91874999999993,
                        "value": 0
                    },
                    {
                        "number": 64,
                        "time": 190.21499999999992,
                        "value": 1
                    },
                    {
                        "number": 64,
                        "time": 191.10624999999993,
                        "value": 0
                    },
                    {
                        "number": 64,
                        "time": 191.38624999999993,
                        "value": 1
                    },
                    {
                        "number": 64,
                        "time": 192.31874999999994,
                        "value": 0
                    },
                    {
                        "number": 64,
                        "time": 192.84374999999994,
                        "value": 1
                    },
                    {
                        "number": 64,
                        "time": 193.50624999999994,
                        "value": 0
                    },
                    {
                        "number": 64,
                        "time": 193.72874999999993,
                        "value": 1
                    },
                    {
                        "number": 64,
                        "time": 194.71124999999992,
                        "value": 0
                    },
                    {
                        "number": 64,
                        "time": 195.1574999999999,
                        "value": 1
                    },
                    {
                        "number": 64,
                        "time": 195.9124999999999,
                        "value": 0
                    },
                    {
                        "number": 64,
                        "time": 196.11624999999992,
                        "value": 1
                    },
                    {
                        "number": 64,
                        "time": 197.11624999999992,
                        "value": 0
                    },
                    {
                        "number": 64,
                        "time": 197.36374999999992,
                        "value": 1
                    },
                    {
                        "number": 64,
                        "time": 197.67624999999992,
                        "value": 0
                    },
                    {
                        "number": 64,
                        "time": 199.82624999999993,
                        "value": 1
                    },
                    {
                        "number": 64,
                        "time": 200.12249999999992,
                        "value": 0
                    },
                    {
                        "number": 64,
                        "time": 201.61874999999992,
                        "value": 1
                    },
                    {
                        "number": 64,
                        "time": 201.9137499999999,
                        "value": 0
                    },
                    {
                        "number": 64,
                        "time": 203.4262499999999,
                        "value": 1
                    },
                    {
                        "number": 64,
                        "time": 203.7349999999999,
                        "value": 0
                    },
                    {
                        "number": 64,
                        "time": 205.2187499999999,
                        "value": 1
                    },
                    {
                        "number": 64,
                        "time": 205.5174999999999,
                        "value": 0
                    },
                    {
                        "number": 64,
                        "time": 207.0162499999999,
                        "value": 1
                    },
                    {
                        "number": 64,
                        "time": 207.3124999999999,
                        "value": 0
                    },
                    {
                        "number": 64,
                        "time": 208.81999999999988,
                        "value": 1
                    },
                    {
                        "number": 64,
                        "time": 209.1174999999999,
                        "value": 0
                    },
                    {
                        "number": 64,
                        "time": 210.5862499999999,
                        "value": 1
                    },
                    {
                        "number": 64,
                        "time": 210.9037499999999,
                        "value": 0
                    },
                    {
                        "number": 64,
                        "time": 212.6537499999999,
                        "value": 1
                    },
                    {
                        "number": 64,
                        "time": 212.9374999999999,
                        "value": 0
                    },
                    {
                        "number": 64,
                        "time": 212.97124999999988,
                        "value": 1
                    },
                    {
                        "number": 64,
                        "time": 213.53499999999988,
                        "value": 0
                    },
                    {
                        "number": 64,
                        "time": 213.57374999999988,
                        "value": 1
                    },
                    {
                        "number": 64,
                        "time": 214.4374999999999,
                        "value": 0
                    },
                    {
                        "number": 64,
                        "time": 214.51374999999987,
                        "value": 1
                    },
                    {
                        "number": 64,
                        "time": 214.74499999999986,
                        "value": 0
                    },
                    {
                        "number": 64,
                        "time": 214.82249999999985,
                        "value": 1
                    },
                    {
                        "number": 64,
                        "time": 215.14874999999984,
                        "value": 0
                    },
                    {
                        "number": 64,
                        "time": 216.30749999999983,
                        "value": 1
                    },
                    {
                        "number": 64,
                        "time": 216.84374999999983,
                        "value": 0
                    },
                    {
                        "number": 64,
                        "time": 216.93874999999983,
                        "value": 1
                    },
                    {
                        "number": 64,
                        "time": 217.49249999999984,
                        "value": 0
                    },
                    {
                        "number": 64,
                        "time": 218.69249999999982,
                        "value": 1
                    },
                    {
                        "number": 64,
                        "time": 222.53374999999983,
                        "value": 0
                    },
                    {
                        "number": 64,
                        "time": 222.58249999999984,
                        "value": 1
                    },
                    {
                        "number": 64,
                        "time": 222.89624999999984,
                        "value": 0
                    }
                ]
            },
            "id": 3,
            "name": "Pedal"
        },
        {
            "startTime": 0,
            "duration": 0,
            "length": 0,
            "notes": [],
            "controlChanges": {},
            "id": 4,
            "name": "Modest Mussorgski: Bilder einer Ausstellung (1)"
        },
        {
            "startTime": 0,
            "duration": 0,
            "length": 0,
            "notes": [],
            "controlChanges": {},
            "id": 5,
            "name": "Copyright  2000 by Bernd Krger"
        },
        {
            "startTime": 0,
            "duration": 0,
            "length": 0,
            "notes": [],
            "controlChanges": {},
            "id": 6,
            "name": "http://www.piano-midi.de"
        },
        {
            "startTime": 0,
            "duration": 0,
            "length": 0,
            "notes": [],
            "controlChanges": {},
            "id": 7,
            "name": "Edition: 2013-11-03"
        }
    ]
}