{
    "header": {
        "PPQ": 480,
        "timeSignature": [
            3,
            4
        ],
        "bpm": 160,
        "name": "Prelude No. 10"
    },
    "startTime": 0,
    "duration": 21,
    "tracks": [
        {
            "startTime": 0,
            "duration": 0,
            "length": 0,
            "notes": [],
            "controlChanges": {},
            "id": 0,
            "name": "Prelude No. 10"
        },
        {
            "startTime": 0.75,
            "duration": 21,
            "length": 161,
            "notes": [
                {
                    "name": "G#6",
                    "midi": 92,
                    "time": 0.75,
                    "velocity": 0.3937007874015748,
                    "duration": 0.0625
                },
                {
                    "name": "A6",
                    "midi": 93,
                    "time": 0.8125,
                    "velocity": 0.33858267716535434,
                    "duration": 0.0625
                },
                {
                    "name": "G#6",
                    "midi": 92,
                    "time": 0.875,
                    "velocity": 0.36220472440944884,
                    "duration": 0.0625
                },
                {
                    "name": "A6",
                    "midi": 93,
                    "time": 0.9375,
                    "velocity": 0.3228346456692913,
                    "duration": 0.0625
                },
                {
                    "name": "G#6",
                    "midi": 92,
                    "time": 1,
                    "velocity": 0.3464566929133858,
                    "duration": 0.0625
                },
                {
                    "name": "G6",
                    "midi": 91,
                    "time": 1.0625,
                    "velocity": 0.31496062992125984,
                    "duration": 0.0625
                },
                {
                    "name": "G#6",
                    "midi": 92,
                    "time": 1.125,
                    "velocity": 0.2755905511811024,
                    "duration": 0.0625
                },
                {
                    "name": "C#7",
                    "midi": 97,
                    "time": 1.125,
                    "velocity": 0.3937007874015748,
                    "duration": 0.0625
                },
                {
                    "name": "A6",
                    "midi": 93,
                    "time": 1.1875,
                    "velocity": 0.3543307086614173,
                    "duration": 0.0625
                },
                {
                    "name": "G#6",
                    "midi": 92,
                    "time": 1.25,
                    "velocity": 0.29133858267716534,
                    "duration": 0.0625
                },
                {
                    "name": "E6",
                    "midi": 88,
                    "time": 1.3125,
                    "velocity": 0.3464566929133858,
                    "duration": 0.09375
                },
                {
                    "name": "D#6",
                    "midi": 87,
                    "time": 1.40625,
                    "velocity": 0.30708661417322836,
                    "duration": 0.09375
                },
                {
                    "name": "G#6",
                    "midi": 92,
                    "time": 1.5,
                    "velocity": 0.3937007874015748,
                    "duration": 0.0625
                },
                {
                    "name": "C#6",
                    "midi": 85,
                    "time": 1.5,
                    "velocity": 0.2755905511811024,
                    "duration": 0.0625
                },
                {
                    "name": "D#6",
                    "midi": 87,
                    "time": 1.5625,
                    "velocity": 0.3543307086614173,
                    "duration": 0.0625
                },
                {
                    "name": "C#6",
                    "midi": 85,
                    "time": 1.625,
                    "velocity": 0.31496062992125984,
                    "duration": 0.0625
                },
                {
                    "name": "A5",
                    "midi": 81,
                    "time": 1.6875,
                    "velocity": 0.3543307086614173,
                    "duration": 0.09375
                },
                {
                    "name": "G#5",
                    "midi": 80,
                    "time": 1.78125,
                    "velocity": 0.31496062992125984,
                    "duration": 0.09375
                },
                {
                    "name": "C#6",
                    "midi": 85,
                    "time": 1.875,
                    "velocity": 0.3937007874015748,
                    "duration": 0.0625
                },
                {
                    "name": "F#5",
                    "midi": 78,
                    "time": 1.875,
                    "velocity": 0.2755905511811024,
                    "duration": 0.0625
                },
                {
                    "name": "G#5",
                    "midi": 80,
                    "time": 1.9375,
                    "velocity": 0.3543307086614173,
                    "duration": 0.0625
                },
                {
                    "name": "F#5",
                    "midi": 78,
                    "time": 2,
                    "velocity": 0.29133858267716534,
                    "duration": 0.0625
                },
                {
                    "name": "E5",
                    "midi": 76,
                    "time": 2.0625,
                    "velocity": 0.3228346456692913,
                    "duration": 0.09375
                },
                {
                    "name": "D#5",
                    "midi": 75,
                    "time": 2.15625,
                    "velocity": 0.29133858267716534,
                    "duration": 0.09375
                },
                {
                    "name": "G#5",
                    "midi": 80,
                    "time": 2.25,
                    "velocity": 0.3937007874015748,
                    "duration": 0.0625
                },
                {
                    "name": "C#5",
                    "midi": 73,
                    "time": 2.25,
                    "velocity": 0.2755905511811024,
                    "duration": 0.0625
                },
                {
                    "name": "D#5",
                    "midi": 75,
                    "time": 2.3125,
                    "velocity": 0.3464566929133858,
                    "duration": 0.0625
                },
                {
                    "name": "C#5",
                    "midi": 73,
                    "time": 2.375,
                    "velocity": 0.29133858267716534,
                    "duration": 0.0625
                },
                {
                    "name": "A4",
                    "midi": 69,
                    "time": 2.4375,
                    "velocity": 0.31496062992125984,
                    "duration": 0.09375
                },
                {
                    "name": "G#4",
                    "midi": 68,
                    "time": 2.53125,
                    "velocity": 0.2992125984251969,
                    "duration": 0.09375
                },
                {
                    "name": "F#4",
                    "midi": 66,
                    "time": 2.625,
                    "velocity": 0.2755905511811024,
                    "duration": 0.0625
                },
                {
                    "name": "C#5",
                    "midi": 73,
                    "time": 2.625,
                    "velocity": 0.3937007874015748,
                    "duration": 0.0625
                },
                {
                    "name": "G#4",
                    "midi": 68,
                    "time": 2.6875,
                    "velocity": 0.3464566929133858,
                    "duration": 0.0625
                },
                {
                    "name": "F#4",
                    "midi": 66,
                    "time": 2.75,
                    "velocity": 0.28346456692913385,
                    "duration": 0.0625
                },
                {
                    "name": "E4",
                    "midi": 64,
                    "time": 2.8125,
                    "velocity": 0.31496062992125984,
                    "duration": 0.09375
                },
                {
                    "name": "D#4",
                    "midi": 63,
                    "time": 2.90625,
                    "velocity": 0.28346456692913385,
                    "duration": 0.09375
                },
                {
                    "name": "C#4",
                    "midi": 61,
                    "time": 3,
                    "velocity": 0.2755905511811024,
                    "duration": 0.0625
                },
                {
                    "name": "G#4",
                    "midi": 68,
                    "time": 3,
                    "velocity": 0.3937007874015748,
                    "duration": 0.0625
                },
                {
                    "name": "D#4",
                    "midi": 63,
                    "time": 3.0625,
                    "velocity": 0.3464566929133858,
                    "duration": 0.0625
                },
                {
                    "name": "C#4",
                    "midi": 61,
                    "time": 3.125,
                    "velocity": 0.28346456692913385,
                    "duration": 0.0625
                },
                {
                    "name": "B3",
                    "midi": 59,
                    "time": 3.1875,
                    "velocity": 0.31496062992125984,
                    "duration": 0.09375
                },
                {
                    "name": "A3",
                    "midi": 57,
                    "time": 3.28125,
                    "velocity": 0.2755905511811024,
                    "duration": 0.09375
                },
                {
                    "name": "E4",
                    "midi": 64,
                    "time": 5.25,
                    "velocity": 0.3543307086614173,
                    "duration": 0.375
                },
                {
                    "name": "C#7",
                    "midi": 97,
                    "time": 5.625,
                    "velocity": 0.3937007874015748,
                    "duration": 0.0625
                },
                {
                    "name": "G#6",
                    "midi": 92,
                    "time": 5.625,
                    "velocity": 0.2755905511811024,
                    "duration": 0.0625
                },
                {
                    "name": "A6",
                    "midi": 93,
                    "time": 5.6875,
                    "velocity": 0.3543307086614173,
                    "duration": 0.0625
                },
                {
                    "name": "G#6",
                    "midi": 92,
                    "time": 5.75,
                    "velocity": 0.2992125984251969,
                    "duration": 0.0625
                },
                {
                    "name": "E6",
                    "midi": 88,
                    "time": 5.8125,
                    "velocity": 0.33858267716535434,
                    "duration": 0.09375
                },
                {
                    "name": "D#6",
                    "midi": 87,
                    "time": 5.90625,
                    "velocity": 0.30708661417322836,
                    "duration": 0.09375
                },
                {
                    "name": "G#6",
                    "midi": 92,
                    "time": 6,
                    "velocity": 0.3937007874015748,
                    "duration": 0.0625
                },
                {
                    "name": "C#6",
                    "midi": 85,
                    "time": 6,
                    "velocity": 0.2755905511811024,
                    "duration": 0.0625
                },
                {
                    "name": "D#6",
                    "midi": 87,
                    "time": 6.0625,
                    "velocity": 0.3543307086614173,
                    "duration": 0.0625
                },
                {
                    "name": "C#6",
                    "midi": 85,
                    "time": 6.125,
                    "velocity": 0.31496062992125984,
                    "duration": 0.0625
                },
                {
                    "name": "A5",
                    "midi": 81,
                    "time": 6.1875,
                    "velocity": 0.33858267716535434,
                    "duration": 0.09375
                },
                {
                    "name": "G#5",
                    "midi": 80,
                    "time": 6.28125,
                    "velocity": 0.30708661417322836,
                    "duration": 0.09375
                },
                {
                    "name": "C#6",
                    "midi": 85,
                    "time": 6.375,
                    "velocity": 0.3937007874015748,
                    "duration": 0.0625
                },
                {
                    "name": "F#5",
                    "midi": 78,
                    "time": 6.375,
                    "velocity": 0.2755905511811024,
                    "duration": 0.0625
                },
                {
                    "name": "G#5",
                    "midi": 80,
                    "time": 6.4375,
                    "velocity": 0.3543307086614173,
                    "duration": 0.0625
                },
                {
                    "name": "F#5",
                    "midi": 78,
                    "time": 6.5,
                    "velocity": 0.2992125984251969,
                    "duration": 0.0625
                },
                {
                    "name": "E5",
                    "midi": 76,
                    "time": 6.5625,
                    "velocity": 0.33070866141732286,
                    "duration": 0.09375
                },
                {
                    "name": "D#5",
                    "midi": 75,
                    "time": 6.65625,
                    "velocity": 0.2992125984251969,
                    "duration": 0.09375
                },
                {
                    "name": "C#5",
                    "midi": 73,
                    "time": 6.75,
                    "velocity": 0.2755905511811024,
                    "duration": 0.0625
                },
                {
                    "name": "G#5",
                    "midi": 80,
                    "time": 6.75,
                    "velocity": 0.3937007874015748,
                    "duration": 0.0625
                },
                {
                    "name": "D#5",
                    "midi": 75,
                    "time": 6.8125,
                    "velocity": 0.3543307086614173,
                    "duration": 0.0625
                },
                {
                    "name": "C#5",
                    "midi": 73,
                    "time": 6.875,
                    "velocity": 0.2992125984251969,
                    "duration": 0.0625
                },
                {
                    "name": "A4",
                    "midi": 69,
                    "time": 6.9375,
                    "velocity": 0.31496062992125984,
                    "duration": 0.09375
                },
                {
                    "name": "G#4",
                    "midi": 68,
                    "time": 7.03125,
                    "velocity": 0.2992125984251969,
                    "duration": 0.09375
                },
                {
                    "name": "F#4",
                    "midi": 66,
                    "time": 7.125,
                    "velocity": 0.2755905511811024,
                    "duration": 0.0625
                },
                {
                    "name": "C#5",
                    "midi": 73,
                    "time": 7.125,
                    "velocity": 0.3937007874015748,
                    "duration": 0.0625
                },
                {
                    "name": "G#4",
                    "midi": 68,
                    "time": 7.1875,
                    "velocity": 0.3543307086614173,
                    "duration": 0.0625
                },
                {
                    "name": "F#4",
                    "midi": 66,
                    "time": 7.25,
                    "velocity": 0.28346456692913385,
                    "duration": 0.0625
                },
                {
                    "name": "E4",
                    "midi": 64,
                    "time": 7.3125,
                    "velocity": 0.31496062992125984,
                    "duration": 0.09375
                },
                {
                    "name": "D#4",
                    "midi": 63,
                    "time": 7.40625,
                    "velocity": 0.29133858267716534,
                    "duration": 0.09375
                },
                {
                    "name": "G#4",
                    "midi": 68,
                    "time": 7.5,
                    "velocity": 0.3937007874015748,
                    "duration": 0.0625
                },
                {
                    "name": "C#4",
                    "midi": 61,
                    "time": 7.5,
                    "velocity": 0.2755905511811024,
                    "duration": 0.0625
                },
                {
                    "name": "D#4",
                    "midi": 63,
                    "time": 7.5625,
                    "velocity": 0.3543307086614173,
                    "duration": 0.0625
                },
                {
                    "name": "C#4",
                    "midi": 61,
                    "time": 7.625,
                    "velocity": 0.28346456692913385,
                    "duration": 0.0625
                },
                {
                    "name": "B3",
                    "midi": 59,
                    "time": 7.6875,
                    "velocity": 0.31496062992125984,
                    "duration": 0.09375
                },
                {
                    "name": "A#3",
                    "midi": 58,
                    "time": 7.78125,
                    "velocity": 0.2992125984251969,
                    "duration": 0.09375
                },
                {
                    "name": "D#4",
                    "midi": 63,
                    "time": 8.25,
                    "velocity": 0.4330708661417323,
                    "duration": 0.75
                },
                {
                    "name": "G#4",
                    "midi": 68,
                    "time": 9.75,
                    "velocity": 0.36220472440944884,
                    "duration": 0.375
                },
                {
                    "name": "F#6",
                    "midi": 90,
                    "time": 10.125,
                    "velocity": 0.2440944881889764,
                    "duration": 0.0625
                },
                {
                    "name": "C#7",
                    "midi": 97,
                    "time": 10.125,
                    "velocity": 0.3543307086614173,
                    "duration": 0.0625
                },
                {
                    "name": "G#6",
                    "midi": 92,
                    "time": 10.1875,
                    "velocity": 0.31496062992125984,
                    "duration": 0.0625
                },
                {
                    "name": "F#6",
                    "midi": 90,
                    "time": 10.25,
                    "velocity": 0.28346456692913385,
                    "duration": 0.0625
                },
                {
                    "name": "D6",
                    "midi": 86,
                    "time": 10.3125,
                    "velocity": 0.2992125984251969,
                    "duration": 0.09375
                },
                {
                    "name": "C#6",
                    "midi": 85,
                    "time": 10.40625,
                    "velocity": 0.28346456692913385,
                    "duration": 0.09375
                },
                {
                    "name": "B5",
                    "midi": 83,
                    "time": 10.5,
                    "velocity": 0.2440944881889764,
                    "duration": 0.0625
                },
                {
                    "name": "F#6",
                    "midi": 90,
                    "time": 10.5,
                    "velocity": 0.3543307086614173,
                    "duration": 0.0625
                },
                {
                    "name": "C#6",
                    "midi": 85,
                    "time": 10.5625,
                    "velocity": 0.31496062992125984,
                    "duration": 0.0625
                },
                {
                    "name": "B5",
                    "midi": 83,
                    "time": 10.625,
                    "velocity": 0.28346456692913385,
                    "duration": 0.0625
                },
                {
                    "name": "A5",
                    "midi": 81,
                    "time": 10.6875,
                    "velocity": 0.30708661417322836,
                    "duration": 0.09375
                },
                {
                    "name": "G#5",
                    "midi": 80,
                    "time": 10.78125,
                    "velocity": 0.28346456692913385,
                    "duration": 0.09375
                },
                {
                    "name": "F#5",
                    "midi": 78,
                    "time": 10.875,
                    "velocity": 0.23622047244094488,
                    "duration": 0.0625
                },
                {
                    "name": "C#6",
                    "midi": 85,
                    "time": 10.875,
                    "velocity": 0.3543307086614173,
                    "duration": 0.0625
                },
                {
                    "name": "G#5",
                    "midi": 80,
                    "time": 10.9375,
                    "velocity": 0.31496062992125984,
                    "duration": 0.0625
                },
                {
                    "name": "F#5",
                    "midi": 78,
                    "time": 11,
                    "velocity": 0.28346456692913385,
                    "duration": 0.0625
                },
                {
                    "name": "D5",
                    "midi": 74,
                    "time": 11.0625,
                    "velocity": 0.30708661417322836,
                    "duration": 0.09375
                },
                {
                    "name": "C#5",
                    "midi": 73,
                    "time": 11.15625,
                    "velocity": 0.2755905511811024,
                    "duration": 0.09375
                },
                {
                    "name": "F#5",
                    "midi": 78,
                    "time": 11.25,
                    "velocity": 0.3543307086614173,
                    "duration": 0.0625
                },
                {
                    "name": "B4",
                    "midi": 71,
                    "time": 11.25,
                    "velocity": 0.2440944881889764,
                    "duration": 0.0625
                },
                {
                    "name": "C#5",
                    "midi": 73,
                    "time": 11.3125,
                    "velocity": 0.31496062992125984,
                    "duration": 0.0625
                },
                {
                    "name": "B4",
                    "midi": 71,
                    "time": 11.375,
                    "velocity": 0.2755905511811024,
                    "duration": 0.0625
                },
                {
                    "name": "A4",
                    "midi": 69,
                    "time": 11.4375,
                    "velocity": 0.29133858267716534,
                    "duration": 0.09375
                },
                {
                    "name": "G#4",
                    "midi": 68,
                    "time": 11.53125,
                    "velocity": 0.28346456692913385,
                    "duration": 0.09375
                },
                {
                    "name": "C#5",
                    "midi": 73,
                    "time": 11.625,
                    "velocity": 0.3543307086614173,
                    "duration": 0.0625
                },
                {
                    "name": "F#4",
                    "midi": 66,
                    "time": 11.625,
                    "velocity": 0.2440944881889764,
                    "duration": 0.0625
                },
                {
                    "name": "G#4",
                    "midi": 68,
                    "time": 11.6875,
                    "velocity": 0.31496062992125984,
                    "duration": 0.0625
                },
                {
                    "name": "F#4",
                    "midi": 66,
                    "time": 11.75,
                    "velocity": 0.2677165354330709,
                    "duration": 0.0625
                },
                {
                    "name": "D4",
                    "midi": 62,
                    "time": 11.8125,
                    "velocity": 0.2755905511811024,
                    "duration": 0.09375
                },
                {
                    "name": "C#4",
                    "midi": 61,
                    "time": 11.90625,
                    "velocity": 0.23622047244094488,
                    "duration": 0.09375
                },
                {
                    "name": "F#4",
                    "midi": 66,
                    "time": 12,
                    "velocity": 0.3543307086614173,
                    "duration": 0.0625
                },
                {
                    "name": "B3",
                    "midi": 59,
                    "time": 12,
                    "velocity": 0.2440944881889764,
                    "duration": 0.0625
                },
                {
                    "name": "C#4",
                    "midi": 61,
                    "time": 12.0625,
                    "velocity": 0.31496062992125984,
                    "duration": 0.0625
                },
                {
                    "name": "B3",
                    "midi": 59,
                    "time": 12.125,
                    "velocity": 0.2755905511811024,
                    "duration": 0.0625
                },
                {
                    "name": "A3",
                    "midi": 57,
                    "time": 12.1875,
                    "velocity": 0.29133858267716534,
                    "duration": 0.09375
                },
                {
                    "name": "G#3",
                    "midi": 56,
                    "time": 12.28125,
                    "velocity": 0.25196850393700787,
                    "duration": 0.09375
                },
                {
                    "name": "C#4",
                    "midi": 61,
                    "time": 12.75,
                    "velocity": 0.3543307086614173,
                    "duration": 0.375
                },
                {
                    "name": "D#4",
                    "midi": 63,
                    "time": 13.125,
                    "velocity": 0.4409448818897638,
                    "duration": 0.375
                },
                {
                    "name": "D#4",
                    "midi": 63,
                    "time": 13.875,
                    "velocity": 0.29133858267716534,
                    "duration": 0.375
                },
                {
                    "name": "E4",
                    "midi": 64,
                    "time": 14.25,
                    "velocity": 0.2755905511811024,
                    "duration": 0.375
                },
                {
                    "name": "G#6",
                    "midi": 92,
                    "time": 14.625,
                    "velocity": 0.2755905511811024,
                    "duration": 0.0625
                },
                {
                    "name": "C#7",
                    "midi": 97,
                    "time": 14.625,
                    "velocity": 0.3937007874015748,
                    "duration": 0.0625
                },
                {
                    "name": "A6",
                    "midi": 93,
                    "time": 14.6875,
                    "velocity": 0.3858267716535433,
                    "duration": 0.0625
                },
                {
                    "name": "G#6",
                    "midi": 92,
                    "time": 14.75,
                    "velocity": 0.31496062992125984,
                    "duration": 0.0625
                },
                {
                    "name": "E6",
                    "midi": 88,
                    "time": 14.8125,
                    "velocity": 0.3543307086614173,
                    "duration": 0.09375
                },
                {
                    "name": "D#6",
                    "midi": 87,
                    "time": 14.90625,
                    "velocity": 0.30708661417322836,
                    "duration": 0.09375
                },
                {
                    "name": "G#6",
                    "midi": 92,
                    "time": 15,
                    "velocity": 0.3937007874015748,
                    "duration": 0.0625
                },
                {
                    "name": "C#6",
                    "midi": 85,
                    "time": 15,
                    "velocity": 0.2755905511811024,
                    "duration": 0.0625
                },
                {
                    "name": "D#6",
                    "midi": 87,
                    "time": 15.0625,
                    "velocity": 0.3543307086614173,
                    "duration": 0.0625
                },
                {
                    "name": "C#6",
                    "midi": 85,
                    "time": 15.125,
                    "velocity": 0.31496062992125984,
                    "duration": 0.0625
                },
                {
                    "name": "A5",
                    "midi": 81,
                    "time": 15.1875,
                    "velocity": 0.3464566929133858,
                    "duration": 0.09375
                },
                {
                    "name": "G#5",
                    "midi": 80,
                    "time": 15.28125,
                    "velocity": 0.30708661417322836,
                    "duration": 0.09375
                },
                {
                    "name": "F#5",
                    "midi": 78,
                    "time": 15.375,
                    "velocity": 0.2755905511811024,
                    "duration": 0.0625
                },
                {
                    "name": "C#6",
                    "midi": 85,
                    "time": 15.375,
                    "velocity": 0.3937007874015748,
                    "duration": 0.0625
                },
                {
                    "name": "G#5",
                    "midi": 80,
                    "time": 15.4375,
                    "velocity": 0.3464566929133858,
                    "duration": 0.0625
                },
                {
                    "name": "F#5",
                    "midi": 78,
                    "time": 15.5,
                    "velocity": 0.28346456692913385,
                    "duration": 0.0625
                },
                {
                    "name": "E5",
                    "midi": 76,
                    "time": 15.5625,
                    "velocity": 0.33070866141732286,
                    "duration": 0.09375
                },
                {
                    "name": "D#5",
                    "midi": 75,
                    "time": 15.65625,
                    "velocity": 0.29133858267716534,
                    "duration": 0.09375
                },
                {
                    "name": "C#5",
                    "midi": 73,
                    "time": 15.75,
                    "velocity": 0.2755905511811024,
                    "duration": 0.0625
                },
                {
                    "name": "G#5",
                    "midi": 80,
                    "time": 15.75,
                    "velocity": 0.3937007874015748,
                    "duration": 0.0625
                },
                {
                    "name": "D#5",
                    "midi": 75,
                    "time": 15.8125,
                    "velocity": 0.3543307086614173,
                    "duration": 0.0625
                },
                {
                    "name": "C#5",
                    "midi": 73,
                    "time": 15.875,
                    "velocity": 0.29133858267716534,
                    "duration": 0.0625
                },
                {
                    "name": "A4",
                    "midi": 69,
                    "time": 15.9375,
                    "velocity": 0.31496062992125984,
                    "duration": 0.09375
                },
                {
                    "name": "G#4",
                    "midi": 68,
                    "time": 16.03125,
                    "velocity": 0.2755905511811024,
                    "duration": 0.09375
                },
                {
                    "name": "C#5",
                    "midi": 73,
                    "time": 16.125,
                    "velocity": 0.3937007874015748,
                    "duration": 0.0625
                },
                {
                    "name": "F#4",
                    "midi": 66,
                    "time": 16.125,
                    "velocity": 0.2755905511811024,
                    "duration": 0.0625
                },
                {
                    "name": "G#4",
                    "midi": 68,
                    "time": 16.1875,
                    "velocity": 0.3543307086614173,
                    "duration": 0.0625
                },
                {
                    "name": "F#4",
                    "midi": 66,
                    "time": 16.25,
                    "velocity": 0.29133858267716534,
                    "duration": 0.0625
                },
                {
                    "name": "E4",
                    "midi": 64,
                    "time": 16.3125,
                    "velocity": 0.31496062992125984,
                    "duration": 0.09375
                },
                {
                    "name": "D#4",
                    "midi": 63,
                    "time": 16.40625,
                    "velocity": 0.2755905511811024,
                    "duration": 0.09375
                },
                {
                    "name": "G#4",
                    "midi": 68,
                    "time": 16.5,
                    "velocity": 0.3937007874015748,
                    "duration": 0.0625
                },
                {
                    "name": "C#4",
                    "midi": 61,
                    "time": 16.5,
                    "velocity": 0.2755905511811024,
                    "duration": 0.0625
                },
                {
                    "name": "D#4",
                    "midi": 63,
                    "time": 16.5625,
                    "velocity": 0.3543307086614173,
                    "duration": 0.0625
                },
                {
                    "name": "C#4",
                    "midi": 61,
                    "time": 16.625,
                    "velocity": 0.25984251968503935,
                    "duration": 0.0625
                },
                {
                    "name": "B3",
                    "midi": 59,
                    "time": 16.6875,
                    "velocity": 0.2992125984251969,
                    "duration": 0.09375
                },
                {
                    "name": "A3",
                    "midi": 57,
                    "time": 16.78125,
                    "velocity": 0.25984251968503935,
                    "duration": 0.09375
                },
                {
                    "name": "E4",
                    "midi": 64,
                    "time": 18.28125,
                    "velocity": 0.44881889763779526,
                    "duration": 0.09375
                },
                {
                    "name": "A4",
                    "midi": 69,
                    "time": 18.75,
                    "velocity": 0.3858267716535433,
                    "duration": 0.75
                },
                {
                    "name": "E4",
                    "midi": 64,
                    "time": 20.53125,
                    "velocity": 0.2755905511811024,
                    "duration": 0.09375
                },
                {
                    "name": "C#4",
                    "midi": 61,
                    "time": 20.625,
                    "velocity": 0.2992125984251969,
                    "duration": 0.375
                }
            ],
            "controlChanges": {
                "7": [
                    {
                        "number": 7,
                        "time": 0,
                        "value": 0.7874015748031497
                    }
                ],
                "10": [
                    {
                        "number": 10,
                        "time": 0,
                        "value": 0.5039370078740157
                    }
                ],
                "64": [
                    {
                        "number": 64,
                        "time": 0,
                        "value": 0
                    }
                ],
                "91": [
                    {
                        "number": 91,
                        "time": 0,
                        "value": 1
                    },
                    {
                        "number": 91,
                        "time": 0.746875,
                        "value": 1
                    }
                ]
            },
            "id": 1,
            "name": "Piano right",
            "instrumentNumber": 0,
            "instrument": "acoustic grand piano",
            "instrumentFamily": "piano",
            "channelNumber": 0,
            "isPercussion": false
        },
        {
            "startTime": 1.03125,
            "duration": 20.999999999999996,
            "length": 161,
            "notes": [
                {
                    "name": "C#3",
                    "midi": 49,
                    "time": 1.03125,
                    "velocity": 0.2677165354330709,
                    "duration": 0.46875
                },
                {
                    "name": "G#3",
                    "midi": 56,
                    "time": 1.078125,
                    "velocity": 0.28346456692913385,
                    "duration": 0.421875
                },
                {
                    "name": "E4",
                    "midi": 64,
                    "time": 1.125,
                    "velocity": 0.2992125984251969,
                    "duration": 0.375
                },
                {
                    "name": "F#2",
                    "midi": 42,
                    "time": 1.78125,
                    "velocity": 0.2440944881889764,
                    "duration": 0.28125
                },
                {
                    "name": "C#3",
                    "midi": 49,
                    "time": 1.828125,
                    "velocity": 0.2755905511811024,
                    "duration": 0.234375
                },
                {
                    "name": "A3",
                    "midi": 57,
                    "time": 1.875,
                    "velocity": 0.31496062992125984,
                    "duration": 0.1875
                },
                {
                    "name": "C#3",
                    "midi": 49,
                    "time": 2.15625,
                    "velocity": 0.25984251968503935,
                    "duration": 0.28125
                },
                {
                    "name": "G#3",
                    "midi": 56,
                    "time": 2.203125,
                    "velocity": 0.28346456692913385,
                    "duration": 0.234375
                },
                {
                    "name": "E4",
                    "midi": 64,
                    "time": 2.25,
                    "velocity": 0.31496062992125984,
                    "duration": 0.1875
                },
                {
                    "name": "F#2",
                    "midi": 42,
                    "time": 2.53125,
                    "velocity": 0.25196850393700787,
                    "duration": 0.28125000000000044
                },
                {
                    "name": "C#3",
                    "midi": 49,
                    "time": 2.578125,
                    "velocity": 0.28346456692913385,
                    "duration": 0.23437500000000044
                },
                {
                    "name": "A3",
                    "midi": 57,
                    "time": 2.625,
                    "velocity": 0.2992125984251969,
                    "duration": 0.18750000000000044
                },
                {
                    "name": "C#2",
                    "midi": 37,
                    "time": 2.9062500000000004,
                    "velocity": 0.25196850393700787,
                    "duration": 0.28125
                },
                {
                    "name": "G#2",
                    "midi": 44,
                    "time": 2.9531250000000004,
                    "velocity": 0.28346456692913385,
                    "duration": 0.234375
                },
                {
                    "name": "E3",
                    "midi": 52,
                    "time": 3.0000000000000004,
                    "velocity": 0.30708661417322836,
                    "duration": 0.1875
                },
                {
                    "name": "G#3",
                    "midi": 56,
                    "time": 3.3750000000000004,
                    "velocity": 0.3543307086614173,
                    "duration": 1.8749999999999996
                },
                {
                    "name": "C4",
                    "midi": 60,
                    "time": 3.7500000000000004,
                    "velocity": 0.3858267716535433,
                    "duration": 0.37499999999999956
                },
                {
                    "name": "D#3",
                    "midi": 51,
                    "time": 3.7500000000000004,
                    "velocity": 0.3228346456692913,
                    "duration": 0.37499999999999956
                },
                {
                    "name": "G#2",
                    "midi": 44,
                    "time": 3.7500000000000004,
                    "velocity": 0.3858267716535433,
                    "duration": 0.7499999999999996
                },
                {
                    "name": "G#1",
                    "midi": 32,
                    "time": 4.125,
                    "velocity": 0.36220472440944884,
                    "duration": 0.375
                },
                {
                    "name": "A#3",
                    "midi": 58,
                    "time": 4.125,
                    "velocity": 0.36220472440944884,
                    "duration": 0.375
                },
                {
                    "name": "C#3",
                    "midi": 49,
                    "time": 4.125,
                    "velocity": 0.30708661417322836,
                    "duration": 0.375
                },
                {
                    "name": "G#2",
                    "midi": 44,
                    "time": 4.5,
                    "velocity": 0.33858267716535434,
                    "duration": 0.1875
                },
                {
                    "name": "D#3",
                    "midi": 51,
                    "time": 4.5,
                    "velocity": 0.28346456692913385,
                    "duration": 0.265625
                },
                {
                    "name": "C4",
                    "midi": 60,
                    "time": 4.5,
                    "velocity": 0.33858267716535434,
                    "duration": 0.265625
                },
                {
                    "name": "G#2",
                    "midi": 44,
                    "time": 4.78125,
                    "velocity": 0.29133858267716534,
                    "duration": 0.09375
                },
                {
                    "name": "E3",
                    "midi": 52,
                    "time": 4.78125,
                    "velocity": 0.29133858267716534,
                    "duration": 0.09375
                },
                {
                    "name": "C#4",
                    "midi": 61,
                    "time": 4.78125,
                    "velocity": 0.3543307086614173,
                    "duration": 0.09375
                },
                {
                    "name": "F#3",
                    "midi": 54,
                    "time": 4.875,
                    "velocity": 0.2755905511811024,
                    "duration": 0.375
                },
                {
                    "name": "C4",
                    "midi": 60,
                    "time": 4.875,
                    "velocity": 0.2755905511811024,
                    "duration": 0.375
                },
                {
                    "name": "D#4",
                    "midi": 63,
                    "time": 4.875,
                    "velocity": 0.33070866141732286,
                    "duration": 0.375
                },
                {
                    "name": "G#2",
                    "midi": 44,
                    "time": 4.875,
                    "velocity": 0.33070866141732286,
                    "duration": 0.75
                },
                {
                    "name": "G#3",
                    "midi": 56,
                    "time": 5.25,
                    "velocity": 0.36220472440944884,
                    "duration": 0.328125
                },
                {
                    "name": "G#1",
                    "midi": 32,
                    "time": 5.25,
                    "velocity": 0.30708661417322836,
                    "duration": 0.328125
                },
                {
                    "name": "C#3",
                    "midi": 49,
                    "time": 5.53125,
                    "velocity": 0.23622047244094488,
                    "duration": 0.46875
                },
                {
                    "name": "G#3",
                    "midi": 56,
                    "time": 5.578125,
                    "velocity": 0.2755905511811024,
                    "duration": 0.421875
                },
                {
                    "name": "E4",
                    "midi": 64,
                    "time": 5.625,
                    "velocity": 0.2992125984251969,
                    "duration": 0.375
                },
                {
                    "name": "F#2",
                    "midi": 42,
                    "time": 6.28125,
                    "velocity": 0.25984251968503935,
                    "duration": 0.2812499999999991
                },
                {
                    "name": "C#3",
                    "midi": 49,
                    "time": 6.328125,
                    "velocity": 0.29133858267716534,
                    "duration": 0.2343749999999991
                },
                {
                    "name": "A3",
                    "midi": 57,
                    "time": 6.375,
                    "velocity": 0.31496062992125984,
                    "duration": 0.1874999999999991
                },
                {
                    "name": "C#3",
                    "midi": 49,
                    "time": 6.656249999999999,
                    "velocity": 0.2677165354330709,
                    "duration": 0.28125
                },
                {
                    "name": "G#3",
                    "midi": 56,
                    "time": 6.703124999999999,
                    "velocity": 0.29133858267716534,
                    "duration": 0.234375
                },
                {
                    "name": "E4",
                    "midi": 64,
                    "time": 6.749999999999999,
                    "velocity": 0.31496062992125984,
                    "duration": 0.1875
                },
                {
                    "name": "F#2",
                    "midi": 42,
                    "time": 7.031249999999999,
                    "velocity": 0.23622047244094488,
                    "duration": 0.28125
                },
                {
                    "name": "C#3",
                    "midi": 49,
                    "time": 7.078124999999999,
                    "velocity": 0.2755905511811024,
                    "duration": 0.234375
                },
                {
                    "name": "A3",
                    "midi": 57,
                    "time": 7.124999999999999,
                    "velocity": 0.2992125984251969,
                    "duration": 0.1875
                },
                {
                    "name": "C#2",
                    "midi": 37,
                    "time": 7.406249999999999,
                    "velocity": 0.25984251968503935,
                    "duration": 0.2812499999999991
                },
                {
                    "name": "G#2",
                    "midi": 44,
                    "time": 7.453124999999999,
                    "velocity": 0.2755905511811024,
                    "duration": 0.2343749999999991
                },
                {
                    "name": "E3",
                    "midi": 52,
                    "time": 7.499999999999999,
                    "velocity": 0.30708661417322836,
                    "duration": 0.1874999999999991
                },
                {
                    "name": "G#3",
                    "midi": 56,
                    "time": 7.874999999999998,
                    "velocity": 0.3700787401574803,
                    "duration": 0.75
                },
                {
                    "name": "C4",
                    "midi": 60,
                    "time": 8.249999999999998,
                    "velocity": 0.41732283464566927,
                    "duration": 0.375
                },
                {
                    "name": "D#3",
                    "midi": 51,
                    "time": 8.249999999999998,
                    "velocity": 0.3543307086614173,
                    "duration": 0.75
                },
                {
                    "name": "D#2",
                    "midi": 39,
                    "time": 8.249999999999998,
                    "velocity": 0.3543307086614173,
                    "duration": 0.359375
                },
                {
                    "name": "D2",
                    "midi": 38,
                    "time": 8.531249999999998,
                    "velocity": 0.3543307086614173,
                    "duration": 0.046875
                },
                {
                    "name": "D#2",
                    "midi": 39,
                    "time": 8.578124999999998,
                    "velocity": 0.3543307086614173,
                    "duration": 0.046875
                },
                {
                    "name": "D#2",
                    "midi": 39,
                    "time": 8.624999999999998,
                    "velocity": 0.3779527559055118,
                    "duration": 0.046875
                },
                {
                    "name": "A#3",
                    "midi": 58,
                    "time": 8.624999999999998,
                    "velocity": 0.3779527559055118,
                    "duration": 0.375
                },
                {
                    "name": "G3",
                    "midi": 55,
                    "time": 8.624999999999998,
                    "velocity": 0.31496062992125984,
                    "duration": 0.375
                },
                {
                    "name": "E2",
                    "midi": 40,
                    "time": 8.671874999999998,
                    "velocity": 0.3543307086614173,
                    "duration": 0.046875
                },
                {
                    "name": "D#2",
                    "midi": 39,
                    "time": 8.718749999999998,
                    "velocity": 0.3858267716535433,
                    "duration": 0.046875
                },
                {
                    "name": "E2",
                    "midi": 40,
                    "time": 8.765624999999998,
                    "velocity": 0.4015748031496063,
                    "duration": 0.046875
                },
                {
                    "name": "D#2",
                    "midi": 39,
                    "time": 8.812499999999998,
                    "velocity": 0.4251968503937008,
                    "duration": 0.046875
                },
                {
                    "name": "E2",
                    "midi": 40,
                    "time": 8.859374999999998,
                    "velocity": 0.4409448818897638,
                    "duration": 0.046875
                },
                {
                    "name": "D#2",
                    "midi": 39,
                    "time": 8.906249999999998,
                    "velocity": 0.48031496062992124,
                    "duration": 0.03125
                },
                {
                    "name": "D2",
                    "midi": 38,
                    "time": 8.937499999999998,
                    "velocity": 0.48031496062992124,
                    "duration": 0.03125
                },
                {
                    "name": "D#2",
                    "midi": 39,
                    "time": 8.968749999999998,
                    "velocity": 0.49606299212598426,
                    "duration": 0.03125
                },
                {
                    "name": "G#3",
                    "midi": 56,
                    "time": 8.999999999999998,
                    "velocity": 0.4330708661417323,
                    "duration": 0.265625
                },
                {
                    "name": "G#2",
                    "midi": 44,
                    "time": 8.999999999999998,
                    "velocity": 0.4330708661417323,
                    "duration": 0.1875
                },
                {
                    "name": "D#3",
                    "midi": 51,
                    "time": 8.999999999999998,
                    "velocity": 0.4330708661417323,
                    "duration": 0.265625
                },
                {
                    "name": "B3",
                    "midi": 59,
                    "time": 8.999999999999998,
                    "velocity": 0.5196850393700787,
                    "duration": 0.265625
                },
                {
                    "name": "A#3",
                    "midi": 58,
                    "time": 9.281249999999998,
                    "velocity": 0.3779527559055118,
                    "duration": 0.09375
                },
                {
                    "name": "G#2",
                    "midi": 44,
                    "time": 9.281249999999998,
                    "velocity": 0.3779527559055118,
                    "duration": 0.09375
                },
                {
                    "name": "D#3",
                    "midi": 51,
                    "time": 9.281249999999998,
                    "velocity": 0.3779527559055118,
                    "duration": 0.09375
                },
                {
                    "name": "C#4",
                    "midi": 61,
                    "time": 9.281249999999998,
                    "velocity": 0.44881889763779526,
                    "duration": 0.09375
                },
                {
                    "name": "D#3",
                    "midi": 51,
                    "time": 9.374999999999998,
                    "velocity": 0.41732283464566927,
                    "duration": 0.375
                },
                {
                    "name": "B3",
                    "midi": 59,
                    "time": 9.374999999999998,
                    "velocity": 0.41732283464566927,
                    "duration": 0.375
                },
                {
                    "name": "D#4",
                    "midi": 63,
                    "time": 9.374999999999998,
                    "velocity": 0.49606299212598426,
                    "duration": 0.375
                },
                {
                    "name": "G#2",
                    "midi": 44,
                    "time": 9.374999999999998,
                    "velocity": 0.41732283464566927,
                    "duration": 0.375
                },
                {
                    "name": "G#3",
                    "midi": 56,
                    "time": 9.749999999999998,
                    "velocity": 0.3543307086614173,
                    "duration": 0.28125
                },
                {
                    "name": "G#1",
                    "midi": 32,
                    "time": 9.749999999999998,
                    "velocity": 0.2992125984251969,
                    "duration": 0.28125
                },
                {
                    "name": "F#2",
                    "midi": 42,
                    "time": 10.031249999999998,
                    "velocity": 0.1968503937007874,
                    "duration": 0.46875
                },
                {
                    "name": "C#3",
                    "midi": 49,
                    "time": 10.078124999999998,
                    "velocity": 0.2283464566929134,
                    "duration": 0.234375
                },
                {
                    "name": "A3",
                    "midi": 57,
                    "time": 10.124999999999998,
                    "velocity": 0.2677165354330709,
                    "duration": 0.1875
                },
                {
                    "name": "B2",
                    "midi": 47,
                    "time": 10.406249999999998,
                    "velocity": 0.2125984251968504,
                    "duration": 0.28125
                },
                {
                    "name": "F#3",
                    "midi": 54,
                    "time": 10.453124999999998,
                    "velocity": 0.2440944881889764,
                    "duration": 0.234375
                },
                {
                    "name": "D4",
                    "midi": 62,
                    "time": 10.499999999999998,
                    "velocity": 0.2755905511811024,
                    "duration": 0.1875
                },
                {
                    "name": "F#2",
                    "midi": 42,
                    "time": 10.781249999999998,
                    "velocity": 0.1889763779527559,
                    "duration": 0.28125
                },
                {
                    "name": "C#3",
                    "midi": 49,
                    "time": 10.828124999999998,
                    "velocity": 0.23622047244094488,
                    "duration": 0.234375
                },
                {
                    "name": "A3",
                    "midi": 57,
                    "time": 10.874999999999998,
                    "velocity": 0.2755905511811024,
                    "duration": 0.1875
                },
                {
                    "name": "B2",
                    "midi": 47,
                    "time": 11.156249999999998,
                    "velocity": 0.2125984251968504,
                    "duration": 0.2812500000000018
                },
                {
                    "name": "F#3",
                    "midi": 54,
                    "time": 11.203124999999998,
                    "velocity": 0.2440944881889764,
                    "duration": 0.23437500000000178
                },
                {
                    "name": "D4",
                    "midi": 62,
                    "time": 11.249999999999998,
                    "velocity": 0.2755905511811024,
                    "duration": 0.18750000000000178
                },
                {
                    "name": "F#2",
                    "midi": 42,
                    "time": 11.53125,
                    "velocity": 0.2047244094488189,
                    "duration": 0.28125
                },
                {
                    "name": "C#3",
                    "midi": 49,
                    "time": 11.578125,
                    "velocity": 0.23622047244094488,
                    "duration": 0.234375
                },
                {
                    "name": "A3",
                    "midi": 57,
                    "time": 11.625,
                    "velocity": 0.2677165354330709,
                    "duration": 0.1875
                },
                {
                    "name": "F#3",
                    "midi": 54,
                    "time": 12.375,
                    "velocity": 0.3464566929133858,
                    "duration": 1.125
                },
                {
                    "name": "A3",
                    "midi": 57,
                    "time": 12.75,
                    "velocity": 0.3543307086614173,
                    "duration": 0.75
                },
                {
                    "name": "F#2",
                    "midi": 42,
                    "time": 12.75,
                    "velocity": 0.3543307086614173,
                    "duration": 0.375
                },
                {
                    "name": "C#3",
                    "midi": 49,
                    "time": 12.75,
                    "velocity": 0.2992125984251969,
                    "duration": 0.75
                },
                {
                    "name": "D#2",
                    "midi": 39,
                    "time": 13.125,
                    "velocity": 0.4330708661417323,
                    "duration": 0.375
                },
                {
                    "name": "G#3",
                    "midi": 56,
                    "time": 13.5,
                    "velocity": 0.25196850393700787,
                    "duration": 0.265625
                },
                {
                    "name": "G#2",
                    "midi": 44,
                    "time": 13.5,
                    "velocity": 0.2992125984251969,
                    "duration": 0.1875
                },
                {
                    "name": "D#3",
                    "midi": 51,
                    "time": 13.5,
                    "velocity": 0.25196850393700787,
                    "duration": 0.265625
                },
                {
                    "name": "C4",
                    "midi": 60,
                    "time": 13.5,
                    "velocity": 0.2992125984251969,
                    "duration": 0.265625
                },
                {
                    "name": "G#3",
                    "midi": 56,
                    "time": 13.78125,
                    "velocity": 0.25196850393700787,
                    "duration": 0.09375
                },
                {
                    "name": "G#2",
                    "midi": 44,
                    "time": 13.78125,
                    "velocity": 0.2992125984251969,
                    "duration": 0.09375
                },
                {
                    "name": "E3",
                    "midi": 52,
                    "time": 13.78125,
                    "velocity": 0.25196850393700787,
                    "duration": 0.09375
                },
                {
                    "name": "C#4",
                    "midi": 61,
                    "time": 13.78125,
                    "velocity": 0.2992125984251969,
                    "duration": 0.09375
                },
                {
                    "name": "F#3",
                    "midi": 54,
                    "time": 13.875,
                    "velocity": 0.23622047244094488,
                    "duration": 0.375
                },
                {
                    "name": "C4",
                    "midi": 60,
                    "time": 13.875,
                    "velocity": 0.28346456692913385,
                    "duration": 0.65625
                },
                {
                    "name": "G#2",
                    "midi": 44,
                    "time": 13.875,
                    "velocity": 0.23622047244094488,
                    "duration": 0.75
                },
                {
                    "name": "G#3",
                    "midi": 56,
                    "time": 14.25,
                    "velocity": 0.2440944881889764,
                    "duration": 0.28125
                },
                {
                    "name": "G#1",
                    "midi": 32,
                    "time": 14.25,
                    "velocity": 0.2440944881889764,
                    "duration": 0.28125
                },
                {
                    "name": "C#3",
                    "midi": 49,
                    "time": 14.53125,
                    "velocity": 0.23622047244094488,
                    "duration": 0.46875
                },
                {
                    "name": "G#3",
                    "midi": 56,
                    "time": 14.578125,
                    "velocity": 0.28346456692913385,
                    "duration": 0.421875
                },
                {
                    "name": "E4",
                    "midi": 64,
                    "time": 14.625,
                    "velocity": 0.2992125984251969,
                    "duration": 0.375
                },
                {
                    "name": "F#2",
                    "midi": 42,
                    "time": 15.28125,
                    "velocity": 0.25196850393700787,
                    "duration": 0.2812499999999982
                },
                {
                    "name": "C#3",
                    "midi": 49,
                    "time": 15.328125,
                    "velocity": 0.29133858267716534,
                    "duration": 0.23437499999999822
                },
                {
                    "name": "A3",
                    "midi": 57,
                    "time": 15.375,
                    "velocity": 0.31496062992125984,
                    "duration": 0.18749999999999822
                },
                {
                    "name": "C#3",
                    "midi": 49,
                    "time": 15.656249999999998,
                    "velocity": 0.2440944881889764,
                    "duration": 0.28125
                },
                {
                    "name": "G#3",
                    "midi": 56,
                    "time": 15.703124999999998,
                    "velocity": 0.28346456692913385,
                    "duration": 0.234375
                },
                {
                    "name": "E4",
                    "midi": 64,
                    "time": 15.749999999999998,
                    "velocity": 0.31496062992125984,
                    "duration": 0.1875
                },
                {
                    "name": "F#2",
                    "midi": 42,
                    "time": 16.03125,
                    "velocity": 0.25196850393700787,
                    "duration": 0.28124999999999645
                },
                {
                    "name": "C#3",
                    "midi": 49,
                    "time": 16.078125,
                    "velocity": 0.28346456692913385,
                    "duration": 0.23437499999999645
                },
                {
                    "name": "A3",
                    "midi": 57,
                    "time": 16.125,
                    "velocity": 0.2992125984251969,
                    "duration": 0.18749999999999645
                },
                {
                    "name": "C#2",
                    "midi": 37,
                    "time": 16.406249999999996,
                    "velocity": 0.23622047244094488,
                    "duration": 0.28125
                },
                {
                    "name": "G#2",
                    "midi": 44,
                    "time": 16.453124999999996,
                    "velocity": 0.28346456692913385,
                    "duration": 0.234375
                },
                {
                    "name": "E3",
                    "midi": 52,
                    "time": 16.499999999999996,
                    "velocity": 0.30708661417322836,
                    "duration": 0.1875
                },
                {
                    "name": "G#3",
                    "midi": 56,
                    "time": 16.874999999999996,
                    "velocity": 0.3858267716535433,
                    "duration": 1.125
                },
                {
                    "name": "C4",
                    "midi": 60,
                    "time": 17.249999999999996,
                    "velocity": 0.4094488188976378,
                    "duration": 0.375
                },
                {
                    "name": "D#3",
                    "midi": 51,
                    "time": 17.249999999999996,
                    "velocity": 0.3464566929133858,
                    "duration": 0.375
                },
                {
                    "name": "G#2",
                    "midi": 44,
                    "time": 17.249999999999996,
                    "velocity": 0.3464566929133858,
                    "duration": 0.75
                },
                {
                    "name": "G#1",
                    "midi": 32,
                    "time": 17.624999999999996,
                    "velocity": 0.36220472440944884,
                    "duration": 0.375
                },
                {
                    "name": "C#4",
                    "midi": 61,
                    "time": 17.624999999999996,
                    "velocity": 0.4330708661417323,
                    "duration": 0.375
                },
                {
                    "name": "E3",
                    "midi": 52,
                    "time": 17.624999999999996,
                    "velocity": 0.36220472440944884,
                    "duration": 0.375
                },
                {
                    "name": "D#4",
                    "midi": 63,
                    "time": 17.999999999999996,
                    "velocity": 0.41732283464566927,
                    "duration": 0.265625
                },
                {
                    "name": "G#2",
                    "midi": 44,
                    "time": 17.999999999999996,
                    "velocity": 0.3543307086614173,
                    "duration": 0.1875
                },
                {
                    "name": "D#3",
                    "midi": 51,
                    "time": 17.999999999999996,
                    "velocity": 0.3543307086614173,
                    "duration": 0.265625
                },
                {
                    "name": "C4",
                    "midi": 60,
                    "time": 17.999999999999996,
                    "velocity": 0.3543307086614173,
                    "duration": 0.265625
                },
                {
                    "name": "G#2",
                    "midi": 44,
                    "time": 18.281249999999996,
                    "velocity": 0.33858267716535434,
                    "duration": 0.09375
                },
                {
                    "name": "G#3",
                    "midi": 56,
                    "time": 18.281249999999996,
                    "velocity": 0.4015748031496063,
                    "duration": 0.09375
                },
                {
                    "name": "E3",
                    "midi": 52,
                    "time": 18.374999999999996,
                    "velocity": 0.33070866141732286,
                    "duration": 0.375
                },
                {
                    "name": "C#4",
                    "midi": 61,
                    "time": 18.374999999999996,
                    "velocity": 0.3937007874015748,
                    "duration": 0.375
                },
                {
                    "name": "C#2",
                    "midi": 37,
                    "time": 18.374999999999996,
                    "velocity": 0.33070866141732286,
                    "duration": 0.375
                },
                {
                    "name": "A3",
                    "midi": 57,
                    "time": 18.749999999999996,
                    "velocity": 0.3937007874015748,
                    "duration": 1.5
                },
                {
                    "name": "G#2",
                    "midi": 44,
                    "time": 19.499999999999996,
                    "velocity": 0.23622047244094488,
                    "duration": 0.75
                },
                {
                    "name": "D#3",
                    "midi": 51,
                    "time": 19.499999999999996,
                    "velocity": 0.23622047244094488,
                    "duration": 0.375
                },
                {
                    "name": "C4",
                    "midi": 60,
                    "time": 19.499999999999996,
                    "velocity": 0.28346456692913385,
                    "duration": 0.375
                },
                {
                    "name": "G#1",
                    "midi": 32,
                    "time": 19.874999999999996,
                    "velocity": 0.23622047244094488,
                    "duration": 0.375
                },
                {
                    "name": "E3",
                    "midi": 52,
                    "time": 19.874999999999996,
                    "velocity": 0.23622047244094488,
                    "duration": 0.375
                },
                {
                    "name": "C#4",
                    "midi": 61,
                    "time": 19.874999999999996,
                    "velocity": 0.28346456692913385,
                    "duration": 0.375
                },
                {
                    "name": "G#2",
                    "midi": 44,
                    "time": 20.249999999999996,
                    "velocity": 0.2440944881889764,
                    "duration": 0.1875
                },
                {
                    "name": "G#3",
                    "midi": 56,
                    "time": 20.249999999999996,
                    "velocity": 0.2440944881889764,
                    "duration": 0.1875
                },
                {
                    "name": "F#3",
                    "midi": 54,
                    "time": 20.249999999999996,
                    "velocity": 0.2440944881889764,
                    "duration": 0.1875
                },
                {
                    "name": "D#4",
                    "midi": 63,
                    "time": 20.249999999999996,
                    "velocity": 0.29133858267716534,
                    "duration": 0.1875
                },
                {
                    "name": "C4",
                    "midi": 60,
                    "time": 20.249999999999996,
                    "velocity": 0.2440944881889764,
                    "duration": 0.1875
                },
                {
                    "name": "G#2",
                    "midi": 44,
                    "time": 20.531249999999996,
                    "velocity": 0.1889763779527559,
                    "duration": 0.09375
                },
                {
                    "name": "F#3",
                    "midi": 54,
                    "time": 20.531249999999996,
                    "velocity": 0.1889763779527559,
                    "duration": 0.09375
                },
                {
                    "name": "C4",
                    "midi": 60,
                    "time": 20.531249999999996,
                    "velocity": 0.2204724409448819,
                    "duration": 0.09375
                },
                {
                    "name": "C#2",
                    "midi": 37,
                    "time": 20.624999999999996,
                    "velocity": 0.2440944881889764,
                    "duration": 0.375
                },
                {
                    "name": "E3",
                    "midi": 52,
                    "time": 20.624999999999996,
                    "velocity": 0.2440944881889764,
                    "duration": 0.375
                }
            ],
            "controlChanges": {
                "7": [
                    {
                        "number": 7,
                        "time": 0,
                        "value": 0.7874015748031497
                    }
                ],
                "10": [
                    {
                        "number": 10,
                        "time": 0,
                        "value": 0.5039370078740157
                    }
                ],
                "64": [
                    {
                        "number": 64,
                        "time": 0.75,
                        "value": 1
                    },
                    {
                        "number": 64,
                        "time": 1.50546875,
                        "value": 0
                    },
                    {
                        "number": 64,
                        "time": 1.9109375,
                        "value": 1
                    },
                    {
                        "number": 64,
                        "time": 2.25546875,
                        "value": 0
                    },
                    {
                        "number": 64,
                        "time": 2.3,
                        "value": 1
                    },
                    {
                        "number": 64,
                        "time": 2.63125,
                        "value": 0
                    },
                    {
                        "number": 64,
                        "time": 2.6828125000000003,
                        "value": 1
                    },
                    {
                        "number": 64,
                        "time": 3.0085937500000006,
                        "value": 0
                    },
                    {
                        "number": 64,
                        "time": 3.0664062500000004,
                        "value": 1
                    },
                    {
                        "number": 64,
                        "time": 3.3750000000000004,
                        "value": 0
                    },
                    {
                        "number": 64,
                        "time": 5.653125,
                        "value": 1
                    },
                    {
                        "number": 64,
                        "time": 6.38203125,
                        "value": 0
                    },
                    {
                        "number": 64,
                        "time": 6.4195312499999995,
                        "value": 1
                    },
                    {
                        "number": 64,
                        "time": 6.757031249999999,
                        "value": 0
                    },
                    {
                        "number": 64,
                        "time": 6.796874999999999,
                        "value": 1
                    },
                    {
                        "number": 64,
                        "time": 7.1304687499999995,
                        "value": 0
                    },
                    {
                        "number": 64,
                        "time": 7.171874999999999,
                        "value": 1
                    },
                    {
                        "number": 64,
                        "time": 7.510156249999999,
                        "value": 0
                    },
                    {
                        "number": 64,
                        "time": 7.544531249999999,
                        "value": 1
                    },
                    {
                        "number": 64,
                        "time": 7.874999999999998,
                        "value": 0
                    },
                    {
                        "number": 64,
                        "time": 8.624999999999998,
                        "value": 1
                    },
                    {
                        "number": 64,
                        "time": 9.008593749999998,
                        "value": 0
                    },
                    {
                        "number": 64,
                        "time": 9.774999999999999,
                        "value": 1
                    },
                    {
                        "number": 64,
                        "time": 10.124999999999998,
                        "value": 0
                    },
                    {
                        "number": 64,
                        "time": 10.169531249999999,
                        "value": 1
                    },
                    {
                        "number": 64,
                        "time": 10.510937499999999,
                        "value": 0
                    },
                    {
                        "number": 64,
                        "time": 10.549999999999999,
                        "value": 1
                    },
                    {
                        "number": 64,
                        "time": 10.880468749999999,
                        "value": 0
                    },
                    {
                        "number": 64,
                        "time": 10.919531249999999,
                        "value": 1
                    },
                    {
                        "number": 64,
                        "time": 11.255468749999999,
                        "value": 0
                    },
                    {
                        "number": 64,
                        "time": 11.31328125,
                        "value": 1
                    },
                    {
                        "number": 64,
                        "time": 11.63671875,
                        "value": 0
                    },
                    {
                        "number": 64,
                        "time": 11.6859375,
                        "value": 1
                    },
                    {
                        "number": 64,
                        "time": 12.00859375,
                        "value": 0
                    },
                    {
                        "number": 64,
                        "time": 14.671875,
                        "value": 1
                    },
                    {
                        "number": 64,
                        "time": 15.38359375,
                        "value": 0
                    },
                    {
                        "number": 64,
                        "time": 15.432812499999999,
                        "value": 1
                    },
                    {
                        "number": 64,
                        "time": 15.753906249999998,
                        "value": 0
                    },
                    {
                        "number": 64,
                        "time": 15.799999999999999,
                        "value": 1
                    },
                    {
                        "number": 64,
                        "time": 16.13046875,
                        "value": 0
                    },
                    {
                        "number": 64,
                        "time": 16.182812499999997,
                        "value": 1
                    },
                    {
                        "number": 64,
                        "time": 16.510937499999997,
                        "value": 0
                    },
                    {
                        "number": 64,
                        "time": 16.557812499999997,
                        "value": 1
                    },
                    {
                        "number": 64,
                        "time": 16.877343749999998,
                        "value": 0
                    },
                    {
                        "number": 64,
                        "time": 18.832812499999996,
                        "value": 1
                    },
                    {
                        "number": 64,
                        "time": 19.512499999999996,
                        "value": 0
                    },
                    {
                        "number": 64,
                        "time": 20.691406249999996,
                        "value": 1
                    },
                    {
                        "number": 64,
                        "time": 21.028124999999996,
                        "value": 0
                    }
                ],
                "91": [
                    {
                        "number": 91,
                        "time": 0.746875,
                        "value": 1
                    }
                ]
            },
            "id": 2,
            "name": "Piano left",
            "instrumentNumber": 0,
            "instrument": "acoustic grand piano",
            "instrumentFamily": "piano",
            "channelNumber": 0,
            "isPercussion": false
        },
        {
            "startTime": 0,
            "duration": 0,
            "length": 0,
            "notes": [],
            "controlChanges": {},
            "id": 3,
            "name": "Chopin: Prelude No.10 in C#-, Op. 28"
        },
        {
            "startTime": 0,
            "duration": 0,
            "length": 0,
            "notes": [],
            "controlChanges": {},
            "id": 4,
            "name": "Copyright  1997 by Bernd Krueger"
        },
        {
            "startTime": 0,
            "duration": 0,
            "length": 0,
            "notes": [],
            "controlChanges": {},
            "id": 5,
            "name": "http://www.piano-midi.de"
        },
        {
            "startTime": 0,
            "duration": 0,
            "length": 0,
            "notes": [],
            "controlChanges": {},
            "id": 6,
            "name": "Edition: 2014-02-20"
        }
    ]
}