{
    "header": {
        "PPQ": 480,
        "timeSignature": [
            2,
            4
        ],
        "bpm": 104.8300442906937,
        "name": "Chopin Etude  No. 2, Opus 25"
    },
    "startTime": 0,
    "duration": 80.4158775000012,
    "tracks": [
        {
            "startTime": 0,
            "duration": 0,
            "length": 0,
            "notes": [],
            "controlChanges": {},
            "id": 0,
            "name": "Chopin Etude  No. 2, Opus 25"
        },
        {
            "startTime": 0.8585325000000001,
            "duration": 80.4158775000012,
            "length": 813,
            "notes": [
                {
                    "name": "C5",
                    "midi": 72,
                    "time": 0.8585325000000001,
                    "velocity": 0.4015748031496063,
                    "duration": 0.2861775
                },
                {
                    "name": "C5",
                    "midi": 72,
                    "time": 1.1447100000000001,
                    "velocity": 0.4330708661417323,
                    "duration": 0.1073165625000001
                },
                {
                    "name": "C#5",
                    "midi": 73,
                    "time": 1.2401025,
                    "velocity": 0.36220472440944884,
                    "duration": 0.10731656250000032
                },
                {
                    "name": "B4",
                    "midi": 71,
                    "time": 1.3354950000000003,
                    "velocity": 0.36220472440944884,
                    "duration": 0.10731656250000032
                },
                {
                    "name": "C5",
                    "midi": 72,
                    "time": 1.4308875000000005,
                    "velocity": 0.36220472440944884,
                    "duration": 0.10731656250000032
                },
                {
                    "name": "D#5",
                    "midi": 75,
                    "time": 1.5262800000000007,
                    "velocity": 0.3937007874015748,
                    "duration": 0.10731656250000032
                },
                {
                    "name": "C#5",
                    "midi": 73,
                    "time": 1.621672500000001,
                    "velocity": 0.36220472440944884,
                    "duration": 0.09539250000000021
                },
                {
                    "name": "C5",
                    "midi": 72,
                    "time": 1.7170650000000012,
                    "velocity": 0.41732283464566927,
                    "duration": 0.1073165625000001
                },
                {
                    "name": "C#5",
                    "midi": 73,
                    "time": 1.8124575000000012,
                    "velocity": 0.3858267716535433,
                    "duration": 0.10731656250000032
                },
                {
                    "name": "B4",
                    "midi": 71,
                    "time": 1.9078500000000014,
                    "velocity": 0.3858267716535433,
                    "duration": 0.1073165625000001
                },
                {
                    "name": "C5",
                    "midi": 72,
                    "time": 2.0032425000000016,
                    "velocity": 0.3858267716535433,
                    "duration": 0.10731656249999988
                },
                {
                    "name": "F#5",
                    "midi": 78,
                    "time": 2.0986350000000016,
                    "velocity": 0.4015748031496063,
                    "duration": 0.10731656249999988
                },
                {
                    "name": "G5",
                    "midi": 79,
                    "time": 2.1940275000000016,
                    "velocity": 0.3779527559055118,
                    "duration": 0.09539249999999999
                },
                {
                    "name": "C5",
                    "midi": 72,
                    "time": 2.2894200000000016,
                    "velocity": 0.44881889763779526,
                    "duration": 0.10731656249999988
                },
                {
                    "name": "C#5",
                    "midi": 73,
                    "time": 2.3848125000000016,
                    "velocity": 0.4094488188976378,
                    "duration": 0.10731656249999988
                },
                {
                    "name": "B4",
                    "midi": 71,
                    "time": 2.4802050000000015,
                    "velocity": 0.3779527559055118,
                    "duration": 0.10731656249999988
                },
                {
                    "name": "C5",
                    "midi": 72,
                    "time": 2.5755975000000015,
                    "velocity": 0.3858267716535433,
                    "duration": 0.10731656249999988
                },
                {
                    "name": "D#5",
                    "midi": 75,
                    "time": 2.6709900000000015,
                    "velocity": 0.4094488188976378,
                    "duration": 0.10731656249999988
                },
                {
                    "name": "C#5",
                    "midi": 73,
                    "time": 2.7663825000000015,
                    "velocity": 0.3858267716535433,
                    "duration": 0.09539249999999999
                },
                {
                    "name": "C5",
                    "midi": 72,
                    "time": 2.8617750000000015,
                    "velocity": 0.4566929133858268,
                    "duration": 0.10731656249999988
                },
                {
                    "name": "C#5",
                    "midi": 73,
                    "time": 2.9571675000000015,
                    "velocity": 0.3937007874015748,
                    "duration": 0.10731656249999988
                },
                {
                    "name": "B4",
                    "midi": 71,
                    "time": 3.0525600000000015,
                    "velocity": 0.3937007874015748,
                    "duration": 0.10731656249999988
                },
                {
                    "name": "C5",
                    "midi": 72,
                    "time": 3.1479525000000015,
                    "velocity": 0.3937007874015748,
                    "duration": 0.10731656249999988
                },
                {
                    "name": "G#5",
                    "midi": 80,
                    "time": 3.2433450000000015,
                    "velocity": 0.41732283464566927,
                    "duration": 0.10731656249999988
                },
                {
                    "name": "F5",
                    "midi": 77,
                    "time": 3.3387375000000015,
                    "velocity": 0.3858267716535433,
                    "duration": 0.09539249999999999
                },
                {
                    "name": "E5",
                    "midi": 76,
                    "time": 3.4341300000000015,
                    "velocity": 0.47244094488188976,
                    "duration": 0.10731656249999988
                },
                {
                    "name": "F5",
                    "midi": 77,
                    "time": 3.5295225000000015,
                    "velocity": 0.41732283464566927,
                    "duration": 0.10731656249999988
                },
                {
                    "name": "E5",
                    "midi": 76,
                    "time": 3.6249150000000014,
                    "velocity": 0.4330708661417323,
                    "duration": 0.10731656249999988
                },
                {
                    "name": "D#5",
                    "midi": 75,
                    "time": 3.7203075000000014,
                    "velocity": 0.4409448818897638,
                    "duration": 0.10731656249999988
                },
                {
                    "name": "E5",
                    "midi": 76,
                    "time": 3.8157000000000014,
                    "velocity": 0.44881889763779526,
                    "duration": 0.10731656249999988
                },
                {
                    "name": "G5",
                    "midi": 79,
                    "time": 3.9110925000000014,
                    "velocity": 0.47244094488188976,
                    "duration": 0.09539249999999999
                },
                {
                    "name": "A#5",
                    "midi": 82,
                    "time": 4.006485000000001,
                    "velocity": 0.5039370078740157,
                    "duration": 0.10731656250000032
                },
                {
                    "name": "C6",
                    "midi": 84,
                    "time": 4.101877500000001,
                    "velocity": 0.47244094488188976,
                    "duration": 0.10731656250000032
                },
                {
                    "name": "A#5",
                    "midi": 82,
                    "time": 4.197270000000001,
                    "velocity": 0.48031496062992124,
                    "duration": 0.10731656250000032
                },
                {
                    "name": "A5",
                    "midi": 81,
                    "time": 4.292662500000001,
                    "velocity": 0.49606299212598426,
                    "duration": 0.10731656250000032
                },
                {
                    "name": "A#5",
                    "midi": 82,
                    "time": 4.388055000000001,
                    "velocity": 0.4881889763779528,
                    "duration": 0.10731656250000032
                },
                {
                    "name": "C#6",
                    "midi": 85,
                    "time": 4.483447500000001,
                    "velocity": 0.5196850393700787,
                    "duration": 0.09539249999999999
                },
                {
                    "name": "C6",
                    "midi": 84,
                    "time": 4.578840000000001,
                    "velocity": 0.5511811023622047,
                    "duration": 0.10731656250000032
                },
                {
                    "name": "C#6",
                    "midi": 85,
                    "time": 4.674232500000001,
                    "velocity": 0.48031496062992124,
                    "duration": 0.10731656250000032
                },
                {
                    "name": "C6",
                    "midi": 84,
                    "time": 4.769625000000001,
                    "velocity": 0.48031496062992124,
                    "duration": 0.10731656250000032
                },
                {
                    "name": "B5",
                    "midi": 83,
                    "time": 4.865017500000001,
                    "velocity": 0.48031496062992124,
                    "duration": 0.10731656250000032
                },
                {
                    "name": "C6",
                    "midi": 84,
                    "time": 4.960410000000001,
                    "velocity": 0.4881889763779528,
                    "duration": 0.10731656250000032
                },
                {
                    "name": "G5",
                    "midi": 79,
                    "time": 5.055802500000001,
                    "velocity": 0.47244094488188976,
                    "duration": 0.09539249999999999
                },
                {
                    "name": "G#5",
                    "midi": 80,
                    "time": 5.151195000000001,
                    "velocity": 0.4881889763779528,
                    "duration": 0.10731656250000032
                },
                {
                    "name": "A#5",
                    "midi": 82,
                    "time": 5.246587500000001,
                    "velocity": 0.4409448818897638,
                    "duration": 0.10731656250000032
                },
                {
                    "name": "G#5",
                    "midi": 80,
                    "time": 5.341980000000001,
                    "velocity": 0.4409448818897638,
                    "duration": 0.10731656250000032
                },
                {
                    "name": "G5",
                    "midi": 79,
                    "time": 5.437372500000001,
                    "velocity": 0.4409448818897638,
                    "duration": 0.10731656250000032
                },
                {
                    "name": "G#5",
                    "midi": 80,
                    "time": 5.532765000000001,
                    "velocity": 0.44881889763779526,
                    "duration": 0.10731656250000032
                },
                {
                    "name": "E5",
                    "midi": 76,
                    "time": 5.628157500000001,
                    "velocity": 0.4094488188976378,
                    "duration": 0.09539249999999999
                },
                {
                    "name": "F5",
                    "midi": 77,
                    "time": 5.723550000000001,
                    "velocity": 0.47244094488188976,
                    "duration": 0.10731656250000032
                },
                {
                    "name": "G5",
                    "midi": 79,
                    "time": 5.818942500000001,
                    "velocity": 0.4015748031496063,
                    "duration": 0.10731656250000032
                },
                {
                    "name": "F5",
                    "midi": 77,
                    "time": 5.914335000000001,
                    "velocity": 0.4015748031496063,
                    "duration": 0.10731656250000032
                },
                {
                    "name": "E5",
                    "midi": 76,
                    "time": 6.009727500000001,
                    "velocity": 0.4094488188976378,
                    "duration": 0.10731656250000032
                },
                {
                    "name": "F5",
                    "midi": 77,
                    "time": 6.105120000000001,
                    "velocity": 0.4330708661417323,
                    "duration": 0.10731656250000032
                },
                {
                    "name": "C5",
                    "midi": 72,
                    "time": 6.200512500000001,
                    "velocity": 0.3937007874015748,
                    "duration": 0.09539249999999999
                },
                {
                    "name": "C#5",
                    "midi": 73,
                    "time": 6.295905000000001,
                    "velocity": 0.47244094488188976,
                    "duration": 0.10731656250000032
                },
                {
                    "name": "D#5",
                    "midi": 75,
                    "time": 6.391297500000001,
                    "velocity": 0.4015748031496063,
                    "duration": 0.10731656250000032
                },
                {
                    "name": "C#5",
                    "midi": 73,
                    "time": 6.486690000000001,
                    "velocity": 0.4015748031496063,
                    "duration": 0.10731656250000032
                },
                {
                    "name": "C5",
                    "midi": 72,
                    "time": 6.582082500000001,
                    "velocity": 0.4015748031496063,
                    "duration": 0.10731656250000032
                },
                {
                    "name": "C#5",
                    "midi": 73,
                    "time": 6.677475000000001,
                    "velocity": 0.4330708661417323,
                    "duration": 0.10731656250000032
                },
                {
                    "name": "B4",
                    "midi": 71,
                    "time": 6.772867500000001,
                    "velocity": 0.4015748031496063,
                    "duration": 0.09539249999999999
                },
                {
                    "name": "C5",
                    "midi": 72,
                    "time": 6.868260000000001,
                    "velocity": 0.4566929133858268,
                    "duration": 0.10731656250000032
                },
                {
                    "name": "C#5",
                    "midi": 73,
                    "time": 6.963652500000001,
                    "velocity": 0.4094488188976378,
                    "duration": 0.10731656250000032
                },
                {
                    "name": "C5",
                    "midi": 72,
                    "time": 7.059045000000001,
                    "velocity": 0.3779527559055118,
                    "duration": 0.10731656250000032
                },
                {
                    "name": "B4",
                    "midi": 71,
                    "time": 7.154437500000001,
                    "velocity": 0.3779527559055118,
                    "duration": 0.10731656250000032
                },
                {
                    "name": "C5",
                    "midi": 72,
                    "time": 7.249830000000001,
                    "velocity": 0.4330708661417323,
                    "duration": 0.10731656250000032
                },
                {
                    "name": "G4",
                    "midi": 67,
                    "time": 7.345222500000001,
                    "velocity": 0.3937007874015748,
                    "duration": 0.09539249999999999
                },
                {
                    "name": "G#4",
                    "midi": 68,
                    "time": 7.440615000000001,
                    "velocity": 0.4409448818897638,
                    "duration": 0.10731656250000032
                },
                {
                    "name": "A#4",
                    "midi": 70,
                    "time": 7.536007500000001,
                    "velocity": 0.3858267716535433,
                    "duration": 0.10731656250000032
                },
                {
                    "name": "G#4",
                    "midi": 68,
                    "time": 7.631400000000001,
                    "velocity": 0.3779527559055118,
                    "duration": 0.10731656250000032
                },
                {
                    "name": "G4",
                    "midi": 67,
                    "time": 7.726792500000001,
                    "velocity": 0.36220472440944884,
                    "duration": 0.10731656250000032
                },
                {
                    "name": "G#4",
                    "midi": 68,
                    "time": 7.822185000000001,
                    "velocity": 0.4330708661417323,
                    "duration": 0.10731656250000032
                },
                {
                    "name": "F4",
                    "midi": 65,
                    "time": 7.917577500000001,
                    "velocity": 0.36220472440944884,
                    "duration": 0.09539249999999999
                },
                {
                    "name": "E4",
                    "midi": 64,
                    "time": 8.012970000000001,
                    "velocity": 0.47244094488188976,
                    "duration": 0.10731656250000121
                },
                {
                    "name": "G4",
                    "midi": 67,
                    "time": 8.108362500000002,
                    "velocity": 0.4330708661417323,
                    "duration": 0.10731656250000121
                },
                {
                    "name": "A#4",
                    "midi": 70,
                    "time": 8.203755000000003,
                    "velocity": 0.4409448818897638,
                    "duration": 0.10731656250000121
                },
                {
                    "name": "C#5",
                    "midi": 73,
                    "time": 8.299147500000004,
                    "velocity": 0.4566929133858268,
                    "duration": 0.10731656250000121
                },
                {
                    "name": "E5",
                    "midi": 76,
                    "time": 8.394540000000005,
                    "velocity": 0.47244094488188976,
                    "duration": 0.10731656250000121
                },
                {
                    "name": "G5",
                    "midi": 79,
                    "time": 8.489932500000005,
                    "velocity": 0.48031496062992124,
                    "duration": 0.09539250000000088
                },
                {
                    "name": "A#5",
                    "midi": 82,
                    "time": 8.585325000000006,
                    "velocity": 0.5275590551181102,
                    "duration": 0.10731656250000121
                },
                {
                    "name": "C#6",
                    "midi": 85,
                    "time": 8.680717500000007,
                    "velocity": 0.47244094488188976,
                    "duration": 0.10731656250000121
                },
                {
                    "name": "C6",
                    "midi": 84,
                    "time": 8.776110000000008,
                    "velocity": 0.48031496062992124,
                    "duration": 0.10731656250000121
                },
                {
                    "name": "A#5",
                    "midi": 82,
                    "time": 8.871502500000009,
                    "velocity": 0.4881889763779528,
                    "duration": 0.10731656250000121
                },
                {
                    "name": "G#5",
                    "midi": 80,
                    "time": 8.96689500000001,
                    "velocity": 0.48031496062992124,
                    "duration": 0.10731656250000121
                },
                {
                    "name": "G5",
                    "midi": 79,
                    "time": 9.06228750000001,
                    "velocity": 0.4881889763779528,
                    "duration": 0.09539250000000088
                },
                {
                    "name": "A#5",
                    "midi": 82,
                    "time": 9.157680000000012,
                    "velocity": 0.5354330708661418,
                    "duration": 0.10731656250000121
                },
                {
                    "name": "C6",
                    "midi": 84,
                    "time": 9.253072500000012,
                    "velocity": 0.5275590551181102,
                    "duration": 0.10731656250000121
                },
                {
                    "name": "G#5",
                    "midi": 80,
                    "time": 9.348465000000013,
                    "velocity": 0.49606299212598426,
                    "duration": 0.10731656250000121
                },
                {
                    "name": "G5",
                    "midi": 79,
                    "time": 9.443857500000014,
                    "velocity": 0.49606299212598426,
                    "duration": 0.10731656250000121
                },
                {
                    "name": "G#5",
                    "midi": 80,
                    "time": 9.539250000000015,
                    "velocity": 0.4645669291338583,
                    "duration": 0.10731656250000121
                },
                {
                    "name": "F5",
                    "midi": 77,
                    "time": 9.634642500000016,
                    "velocity": 0.41732283464566927,
                    "duration": 0.09539250000000088
                },
                {
                    "name": "E5",
                    "midi": 76,
                    "time": 9.730035000000017,
                    "velocity": 0.48031496062992124,
                    "duration": 0.10731656250000121
                },
                {
                    "name": "G5",
                    "midi": 79,
                    "time": 9.825427500000018,
                    "velocity": 0.3858267716535433,
                    "duration": 0.10731656250000121
                },
                {
                    "name": "F5",
                    "midi": 77,
                    "time": 9.920820000000019,
                    "velocity": 0.3779527559055118,
                    "duration": 0.10731656250000121
                },
                {
                    "name": "E5",
                    "midi": 76,
                    "time": 10.01621250000002,
                    "velocity": 0.3779527559055118,
                    "duration": 0.10731656250000121
                },
                {
                    "name": "F5",
                    "midi": 77,
                    "time": 10.11160500000002,
                    "velocity": 0.3779527559055118,
                    "duration": 0.10731656250000121
                },
                {
                    "name": "C#5",
                    "midi": 73,
                    "time": 10.206997500000021,
                    "velocity": 0.3543307086614173,
                    "duration": 0.09539250000000088
                },
                {
                    "name": "C5",
                    "midi": 72,
                    "time": 10.302390000000022,
                    "velocity": 0.41732283464566927,
                    "duration": 0.10731656250000121
                },
                {
                    "name": "C#5",
                    "midi": 73,
                    "time": 10.397782500000023,
                    "velocity": 0.3464566929133858,
                    "duration": 0.10731656250000121
                },
                {
                    "name": "B4",
                    "midi": 71,
                    "time": 10.493175000000024,
                    "velocity": 0.3464566929133858,
                    "duration": 0.10731656250000121
                },
                {
                    "name": "C5",
                    "midi": 72,
                    "time": 10.588567500000025,
                    "velocity": 0.3464566929133858,
                    "duration": 0.10731656250000121
                },
                {
                    "name": "D#5",
                    "midi": 75,
                    "time": 10.683960000000026,
                    "velocity": 0.3858267716535433,
                    "duration": 0.10731656250000121
                },
                {
                    "name": "C#5",
                    "midi": 73,
                    "time": 10.779352500000027,
                    "velocity": 0.3543307086614173,
                    "duration": 0.09539250000000088
                },
                {
                    "name": "C5",
                    "midi": 72,
                    "time": 10.874745000000027,
                    "velocity": 0.4330708661417323,
                    "duration": 0.10731656250000121
                },
                {
                    "name": "C#5",
                    "midi": 73,
                    "time": 10.970137500000028,
                    "velocity": 0.36220472440944884,
                    "duration": 0.10731656250000121
                },
                {
                    "name": "B4",
                    "midi": 71,
                    "time": 11.06553000000003,
                    "velocity": 0.36220472440944884,
                    "duration": 0.10731656250000121
                },
                {
                    "name": "C5",
                    "midi": 72,
                    "time": 11.16092250000003,
                    "velocity": 0.36220472440944884,
                    "duration": 0.10731656250000121
                },
                {
                    "name": "F#5",
                    "midi": 78,
                    "time": 11.256315000000031,
                    "velocity": 0.4015748031496063,
                    "duration": 0.10731656250000121
                },
                {
                    "name": "G5",
                    "midi": 79,
                    "time": 11.351707500000032,
                    "velocity": 0.36220472440944884,
                    "duration": 0.09539250000000088
                },
                {
                    "name": "C5",
                    "midi": 72,
                    "time": 11.447100000000033,
                    "velocity": 0.44881889763779526,
                    "duration": 0.10731656250000121
                },
                {
                    "name": "C#5",
                    "midi": 73,
                    "time": 11.542492500000034,
                    "velocity": 0.36220472440944884,
                    "duration": 0.10731656250000121
                },
                {
                    "name": "B4",
                    "midi": 71,
                    "time": 11.637885000000034,
                    "velocity": 0.36220472440944884,
                    "duration": 0.10731656250000121
                },
                {
                    "name": "C5",
                    "midi": 72,
                    "time": 11.733277500000035,
                    "velocity": 0.3700787401574803,
                    "duration": 0.10731656250000121
                },
                {
                    "name": "D#5",
                    "midi": 75,
                    "time": 11.828670000000036,
                    "velocity": 0.4094488188976378,
                    "duration": 0.10731656250000121
                },
                {
                    "name": "C#5",
                    "midi": 73,
                    "time": 11.924062500000037,
                    "velocity": 0.3700787401574803,
                    "duration": 0.09539250000000088
                },
                {
                    "name": "C5",
                    "midi": 72,
                    "time": 12.019455000000038,
                    "velocity": 0.4566929133858268,
                    "duration": 0.10731656250000121
                },
                {
                    "name": "C#5",
                    "midi": 73,
                    "time": 12.114847500000039,
                    "velocity": 0.3779527559055118,
                    "duration": 0.10731656250000121
                },
                {
                    "name": "B4",
                    "midi": 71,
                    "time": 12.21024000000004,
                    "velocity": 0.3858267716535433,
                    "duration": 0.10731656250000121
                },
                {
                    "name": "C5",
                    "midi": 72,
                    "time": 12.30563250000004,
                    "velocity": 0.3858267716535433,
                    "duration": 0.10731656250000121
                },
                {
                    "name": "G#5",
                    "midi": 80,
                    "time": 12.401025000000041,
                    "velocity": 0.41732283464566927,
                    "duration": 0.10731656250000121
                },
                {
                    "name": "F5",
                    "midi": 77,
                    "time": 12.496417500000042,
                    "velocity": 0.3937007874015748,
                    "duration": 0.09539250000000088
                },
                {
                    "name": "D#5",
                    "midi": 75,
                    "time": 12.591810000000043,
                    "velocity": 0.47244094488188976,
                    "duration": 0.10731656250000121
                },
                {
                    "name": "F5",
                    "midi": 77,
                    "time": 12.687202500000044,
                    "velocity": 0.41732283464566927,
                    "duration": 0.10731656250000121
                },
                {
                    "name": "D#5",
                    "midi": 75,
                    "time": 12.782595000000045,
                    "velocity": 0.4409448818897638,
                    "duration": 0.10731656250000121
                },
                {
                    "name": "D5",
                    "midi": 74,
                    "time": 12.877987500000046,
                    "velocity": 0.44881889763779526,
                    "duration": 0.10731656250000121
                },
                {
                    "name": "D#5",
                    "midi": 75,
                    "time": 12.973380000000047,
                    "velocity": 0.47244094488188976,
                    "duration": 0.10731656250000121
                },
                {
                    "name": "G5",
                    "midi": 79,
                    "time": 13.068772500000048,
                    "velocity": 0.4881889763779528,
                    "duration": 0.09539250000000088
                },
                {
                    "name": "A#5",
                    "midi": 82,
                    "time": 13.164165000000049,
                    "velocity": 0.5511811023622047,
                    "duration": 0.10731656250000121
                },
                {
                    "name": "C6",
                    "midi": 84,
                    "time": 13.25955750000005,
                    "velocity": 0.4881889763779528,
                    "duration": 0.10731656250000121
                },
                {
                    "name": "A#5",
                    "midi": 82,
                    "time": 13.35495000000005,
                    "velocity": 0.5039370078740157,
                    "duration": 0.10731656250000121
                },
                {
                    "name": "A5",
                    "midi": 81,
                    "time": 13.450342500000051,
                    "velocity": 0.5196850393700787,
                    "duration": 0.10731656250000121
                },
                {
                    "name": "A#5",
                    "midi": 82,
                    "time": 13.545735000000052,
                    "velocity": 0.5039370078740157,
                    "duration": 0.10731656250000121
                },
                {
                    "name": "F6",
                    "midi": 89,
                    "time": 13.641127500000053,
                    "velocity": 0.5196850393700787,
                    "duration": 0.09539250000000088
                },
                {
                    "name": "D#6",
                    "midi": 87,
                    "time": 13.736520000000054,
                    "velocity": 0.6456692913385826,
                    "duration": 0.10731656250000121
                },
                {
                    "name": "F6",
                    "midi": 89,
                    "time": 13.831912500000055,
                    "velocity": 0.5511811023622047,
                    "duration": 0.10731656250000121
                },
                {
                    "name": "D#6",
                    "midi": 87,
                    "time": 13.927305000000056,
                    "velocity": 0.5511811023622047,
                    "duration": 0.10731656250000121
                },
                {
                    "name": "D6",
                    "midi": 86,
                    "time": 14.022697500000056,
                    "velocity": 0.5511811023622047,
                    "duration": 0.10731656250000121
                },
                {
                    "name": "D#6",
                    "midi": 87,
                    "time": 14.118090000000057,
                    "velocity": 0.5196850393700787,
                    "duration": 0.10731656250000121
                },
                {
                    "name": "B5",
                    "midi": 83,
                    "time": 14.213482500000058,
                    "velocity": 0.5039370078740157,
                    "duration": 0.09539250000000088
                },
                {
                    "name": "C6",
                    "midi": 84,
                    "time": 14.308875000000059,
                    "velocity": 0.5354330708661418,
                    "duration": 0.10731656250000121
                },
                {
                    "name": "C#6",
                    "midi": 85,
                    "time": 14.40426750000006,
                    "velocity": 0.48031496062992124,
                    "duration": 0.10731656250000121
                },
                {
                    "name": "C6",
                    "midi": 84,
                    "time": 14.49966000000006,
                    "velocity": 0.48031496062992124,
                    "duration": 0.10731656250000121
                },
                {
                    "name": "B5",
                    "midi": 83,
                    "time": 14.595052500000062,
                    "velocity": 0.48031496062992124,
                    "duration": 0.10731656250000121
                },
                {
                    "name": "C6",
                    "midi": 84,
                    "time": 14.690445000000063,
                    "velocity": 0.48031496062992124,
                    "duration": 0.10731656250000121
                },
                {
                    "name": "G5",
                    "midi": 79,
                    "time": 14.785837500000063,
                    "velocity": 0.47244094488188976,
                    "duration": 0.09539250000000088
                },
                {
                    "name": "G#5",
                    "midi": 80,
                    "time": 14.881230000000064,
                    "velocity": 0.5511811023622047,
                    "duration": 0.10731656250000121
                },
                {
                    "name": "A#5",
                    "midi": 82,
                    "time": 14.976622500000065,
                    "velocity": 0.4409448818897638,
                    "duration": 0.10731656250000121
                },
                {
                    "name": "G#5",
                    "midi": 80,
                    "time": 15.072015000000066,
                    "velocity": 0.4409448818897638,
                    "duration": 0.10731656250000121
                },
                {
                    "name": "G5",
                    "midi": 79,
                    "time": 15.167407500000067,
                    "velocity": 0.4409448818897638,
                    "duration": 0.10731656250000121
                },
                {
                    "name": "G#5",
                    "midi": 80,
                    "time": 15.262800000000068,
                    "velocity": 0.4566929133858268,
                    "duration": 0.10731656250000121
                },
                {
                    "name": "E5",
                    "midi": 76,
                    "time": 15.358192500000069,
                    "velocity": 0.44881889763779526,
                    "duration": 0.09539250000000088
                },
                {
                    "name": "F5",
                    "midi": 77,
                    "time": 15.45358500000007,
                    "velocity": 0.48031496062992124,
                    "duration": 0.10731656250000121
                },
                {
                    "name": "G5",
                    "midi": 79,
                    "time": 15.54897750000007,
                    "velocity": 0.4094488188976378,
                    "duration": 0.10731656250000121
                },
                {
                    "name": "F5",
                    "midi": 77,
                    "time": 15.644370000000071,
                    "velocity": 0.4094488188976378,
                    "duration": 0.10731656250000121
                },
                {
                    "name": "E5",
                    "midi": 76,
                    "time": 15.739762500000072,
                    "velocity": 0.4094488188976378,
                    "duration": 0.10731656250000121
                },
                {
                    "name": "F5",
                    "midi": 77,
                    "time": 15.835155000000073,
                    "velocity": 0.41732283464566927,
                    "duration": 0.10731656250000121
                },
                {
                    "name": "C#5",
                    "midi": 73,
                    "time": 15.930547500000074,
                    "velocity": 0.4094488188976378,
                    "duration": 0.0953924999999991
                },
                {
                    "name": "C5",
                    "midi": 72,
                    "time": 16.025940000000073,
                    "velocity": 0.47244094488188976,
                    "duration": 0.10731656249999943
                },
                {
                    "name": "C#5",
                    "midi": 73,
                    "time": 16.121332500000072,
                    "velocity": 0.4330708661417323,
                    "duration": 0.10731656249999943
                },
                {
                    "name": "A#4",
                    "midi": 70,
                    "time": 16.21672500000007,
                    "velocity": 0.4094488188976378,
                    "duration": 0.10731656249999943
                },
                {
                    "name": "G4",
                    "midi": 67,
                    "time": 16.31211750000007,
                    "velocity": 0.4409448818897638,
                    "duration": 0.10731656249999943
                },
                {
                    "name": "G#4",
                    "midi": 68,
                    "time": 16.40751000000007,
                    "velocity": 0.44881889763779526,
                    "duration": 0.10731656249999943
                },
                {
                    "name": "A#4",
                    "midi": 70,
                    "time": 16.50290250000007,
                    "velocity": 0.44881889763779526,
                    "duration": 0.0953924999999991
                },
                {
                    "name": "C5",
                    "midi": 72,
                    "time": 16.598295000000068,
                    "velocity": 0.47244094488188976,
                    "duration": 0.10731656249999943
                },
                {
                    "name": "C#5",
                    "midi": 73,
                    "time": 16.693687500000067,
                    "velocity": 0.4566929133858268,
                    "duration": 0.10731656249999943
                },
                {
                    "name": "D#5",
                    "midi": 75,
                    "time": 16.789080000000066,
                    "velocity": 0.47244094488188976,
                    "duration": 0.10731656249999943
                },
                {
                    "name": "F5",
                    "midi": 77,
                    "time": 16.884472500000065,
                    "velocity": 0.48031496062992124,
                    "duration": 0.10731656249999943
                },
                {
                    "name": "G5",
                    "midi": 79,
                    "time": 16.979865000000064,
                    "velocity": 0.48031496062992124,
                    "duration": 0.10731656249999943
                },
                {
                    "name": "G#5",
                    "midi": 80,
                    "time": 17.075257500000063,
                    "velocity": 0.48031496062992124,
                    "duration": 0.0953924999999991
                },
                {
                    "name": "G5",
                    "midi": 79,
                    "time": 17.170650000000062,
                    "velocity": 0.5354330708661418,
                    "duration": 0.10731656249999943
                },
                {
                    "name": "G#5",
                    "midi": 80,
                    "time": 17.26604250000006,
                    "velocity": 0.4566929133858268,
                    "duration": 0.10731656249999943
                },
                {
                    "name": "F5",
                    "midi": 77,
                    "time": 17.36143500000006,
                    "velocity": 0.4566929133858268,
                    "duration": 0.10731656249999943
                },
                {
                    "name": "D#5",
                    "midi": 75,
                    "time": 17.45682750000006,
                    "velocity": 0.4566929133858268,
                    "duration": 0.10731656249999943
                },
                {
                    "name": "F5",
                    "midi": 77,
                    "time": 17.55222000000006,
                    "velocity": 0.48031496062992124,
                    "duration": 0.10731656249999943
                },
                {
                    "name": "C#5",
                    "midi": 73,
                    "time": 17.647612500000058,
                    "velocity": 0.47244094488188976,
                    "duration": 0.0953924999999991
                },
                {
                    "name": "C5",
                    "midi": 72,
                    "time": 17.743005000000057,
                    "velocity": 0.5039370078740157,
                    "duration": 0.10731656249999943
                },
                {
                    "name": "C#5",
                    "midi": 73,
                    "time": 17.838397500000056,
                    "velocity": 0.4409448818897638,
                    "duration": 0.10731656249999943
                },
                {
                    "name": "A#4",
                    "midi": 70,
                    "time": 17.933790000000055,
                    "velocity": 0.41732283464566927,
                    "duration": 0.10731656249999943
                },
                {
                    "name": "C5",
                    "midi": 72,
                    "time": 18.029182500000054,
                    "velocity": 0.41732283464566927,
                    "duration": 0.10731656249999943
                },
                {
                    "name": "F4",
                    "midi": 65,
                    "time": 18.124575000000053,
                    "velocity": 0.44881889763779526,
                    "duration": 0.10731656249999943
                },
                {
                    "name": "G4",
                    "midi": 67,
                    "time": 18.219967500000052,
                    "velocity": 0.4094488188976378,
                    "duration": 0.0953924999999991
                },
                {
                    "name": "G#4",
                    "midi": 68,
                    "time": 18.31536000000005,
                    "velocity": 0.47244094488188976,
                    "duration": 0.10731656249999943
                },
                {
                    "name": "A#4",
                    "midi": 70,
                    "time": 18.41075250000005,
                    "velocity": 0.4015748031496063,
                    "duration": 0.10731656249999943
                },
                {
                    "name": "G#4",
                    "midi": 68,
                    "time": 18.50614500000005,
                    "velocity": 0.4015748031496063,
                    "duration": 0.10731656249999943
                },
                {
                    "name": "G4",
                    "midi": 67,
                    "time": 18.60153750000005,
                    "velocity": 0.3858267716535433,
                    "duration": 0.10731656249999943
                },
                {
                    "name": "G#4",
                    "midi": 68,
                    "time": 18.696930000000048,
                    "velocity": 0.4015748031496063,
                    "duration": 0.10731656249999943
                },
                {
                    "name": "A4",
                    "midi": 69,
                    "time": 18.792322500000047,
                    "velocity": 0.41732283464566927,
                    "duration": 0.0953924999999991
                },
                {
                    "name": "A#4",
                    "midi": 70,
                    "time": 18.887715000000046,
                    "velocity": 0.47244094488188976,
                    "duration": 0.10731656249999943
                },
                {
                    "name": "C5",
                    "midi": 72,
                    "time": 18.983107500000045,
                    "velocity": 0.4094488188976378,
                    "duration": 0.10731656249999943
                },
                {
                    "name": "A#4",
                    "midi": 70,
                    "time": 19.078500000000044,
                    "velocity": 0.4094488188976378,
                    "duration": 0.10731656249999943
                },
                {
                    "name": "C5",
                    "midi": 72,
                    "time": 19.173892500000044,
                    "velocity": 0.4015748031496063,
                    "duration": 0.10731656249999943
                },
                {
                    "name": "F4",
                    "midi": 65,
                    "time": 19.269285000000043,
                    "velocity": 0.3858267716535433,
                    "duration": 0.10731656249999943
                },
                {
                    "name": "G4",
                    "midi": 67,
                    "time": 19.36467750000004,
                    "velocity": 0.4330708661417323,
                    "duration": 0.0953924999999991
                },
                {
                    "name": "G#4",
                    "midi": 68,
                    "time": 19.46007000000004,
                    "velocity": 0.47244094488188976,
                    "duration": 0.10731656249999943
                },
                {
                    "name": "A#4",
                    "midi": 70,
                    "time": 19.55546250000004,
                    "velocity": 0.4330708661417323,
                    "duration": 0.10731656249999943
                },
                {
                    "name": "G#4",
                    "midi": 68,
                    "time": 19.65085500000004,
                    "velocity": 0.3858267716535433,
                    "duration": 0.10731656249999943
                },
                {
                    "name": "G4",
                    "midi": 67,
                    "time": 19.746247500000038,
                    "velocity": 0.3858267716535433,
                    "duration": 0.10731656249999943
                },
                {
                    "name": "G#4",
                    "midi": 68,
                    "time": 19.841640000000037,
                    "velocity": 0.4015748031496063,
                    "duration": 0.10731656249999943
                },
                {
                    "name": "A4",
                    "midi": 69,
                    "time": 19.937032500000036,
                    "velocity": 0.4330708661417323,
                    "duration": 0.0953924999999991
                },
                {
                    "name": "A#4",
                    "midi": 70,
                    "time": 20.032425000000035,
                    "velocity": 0.47244094488188976,
                    "duration": 0.10731656249999943
                },
                {
                    "name": "C5",
                    "midi": 72,
                    "time": 20.127817500000035,
                    "velocity": 0.4330708661417323,
                    "duration": 0.10731656249999943
                },
                {
                    "name": "A#4",
                    "midi": 70,
                    "time": 20.223210000000034,
                    "velocity": 0.4330708661417323,
                    "duration": 0.10731656249999943
                },
                {
                    "name": "C5",
                    "midi": 72,
                    "time": 20.318602500000033,
                    "velocity": 0.4015748031496063,
                    "duration": 0.10731656249999943
                },
                {
                    "name": "F4",
                    "midi": 65,
                    "time": 20.413995000000032,
                    "velocity": 0.4015748031496063,
                    "duration": 0.10731656249999943
                },
                {
                    "name": "G4",
                    "midi": 67,
                    "time": 20.50938750000003,
                    "velocity": 0.4015748031496063,
                    "duration": 0.0953924999999991
                },
                {
                    "name": "G#4",
                    "midi": 68,
                    "time": 20.60478000000003,
                    "velocity": 0.47244094488188976,
                    "duration": 0.10731656249999943
                },
                {
                    "name": "A#4",
                    "midi": 70,
                    "time": 20.70017250000003,
                    "velocity": 0.4330708661417323,
                    "duration": 0.10731656249999943
                },
                {
                    "name": "G#4",
                    "midi": 68,
                    "time": 20.79556500000003,
                    "velocity": 0.3937007874015748,
                    "duration": 0.10731656249999943
                },
                {
                    "name": "G4",
                    "midi": 67,
                    "time": 20.890957500000027,
                    "velocity": 0.3779527559055118,
                    "duration": 0.10731656249999943
                },
                {
                    "name": "G#4",
                    "midi": 68,
                    "time": 20.986350000000026,
                    "velocity": 0.4015748031496063,
                    "duration": 0.10731656249999943
                },
                {
                    "name": "A#4",
                    "midi": 70,
                    "time": 21.081742500000026,
                    "velocity": 0.4330708661417323,
                    "duration": 0.0953924999999991
                },
                {
                    "name": "C5",
                    "midi": 72,
                    "time": 21.177135000000025,
                    "velocity": 0.47244094488188976,
                    "duration": 0.0953924999999991
                },
                {
                    "name": "C#5",
                    "midi": 73,
                    "time": 21.272527500000024,
                    "velocity": 0.4330708661417323,
                    "duration": 0.0953924999999991
                },
                {
                    "name": "C5",
                    "midi": 72,
                    "time": 21.367920000000023,
                    "velocity": 0.3937007874015748,
                    "duration": 0.0953924999999991
                },
                {
                    "name": "B4",
                    "midi": 71,
                    "time": 21.463312500000022,
                    "velocity": 0.3858267716535433,
                    "duration": 0.0953924999999991
                },
                {
                    "name": "C5",
                    "midi": 72,
                    "time": 21.55870500000002,
                    "velocity": 0.4094488188976378,
                    "duration": 0.0953924999999991
                },
                {
                    "name": "C#5",
                    "midi": 73,
                    "time": 21.65409750000002,
                    "velocity": 0.3858267716535433,
                    "duration": 0.0953924999999991
                },
                {
                    "name": "C5",
                    "midi": 72,
                    "time": 21.74949000000002,
                    "velocity": 0.44881889763779526,
                    "duration": 0.0953924999999991
                },
                {
                    "name": "C#5",
                    "midi": 73,
                    "time": 21.84488250000002,
                    "velocity": 0.4094488188976378,
                    "duration": 0.0953924999999991
                },
                {
                    "name": "C5",
                    "midi": 72,
                    "time": 21.940275000000018,
                    "velocity": 0.4015748031496063,
                    "duration": 0.0953924999999991
                },
                {
                    "name": "B4",
                    "midi": 71,
                    "time": 22.035667500000017,
                    "velocity": 0.3464566929133858,
                    "duration": 0.0953924999999991
                },
                {
                    "name": "C5",
                    "midi": 72,
                    "time": 22.131060000000016,
                    "velocity": 0.36220472440944884,
                    "duration": 0.0953924999999991
                },
                {
                    "name": "C#5",
                    "midi": 73,
                    "time": 22.226452500000015,
                    "velocity": 0.36220472440944884,
                    "duration": 0.0953924999999991
                },
                {
                    "name": "C5",
                    "midi": 72,
                    "time": 22.321845000000014,
                    "velocity": 0.3779527559055118,
                    "duration": 0.0953924999999991
                },
                {
                    "name": "C#5",
                    "midi": 73,
                    "time": 22.417237500000013,
                    "velocity": 0.33070866141732286,
                    "duration": 0.0953924999999991
                },
                {
                    "name": "C5",
                    "midi": 72,
                    "time": 22.512630000000012,
                    "velocity": 0.30708661417322836,
                    "duration": 0.0953924999999991
                },
                {
                    "name": "C#5",
                    "midi": 73,
                    "time": 22.60802250000001,
                    "velocity": 0.29133858267716534,
                    "duration": 0.0953924999999991
                },
                {
                    "name": "C5",
                    "midi": 72,
                    "time": 22.70341500000001,
                    "velocity": 0.28346456692913385,
                    "duration": 0.0953924999999991
                },
                {
                    "name": "C#5",
                    "midi": 73,
                    "time": 22.79880750000001,
                    "velocity": 0.25984251968503935,
                    "duration": 0.0953924999999991
                },
                {
                    "name": "C5",
                    "midi": 72,
                    "time": 22.89420000000001,
                    "velocity": 0.41732283464566927,
                    "duration": 0.10731656249999943
                },
                {
                    "name": "C#5",
                    "midi": 73,
                    "time": 22.989592500000008,
                    "velocity": 0.3543307086614173,
                    "duration": 0.10731656249999943
                },
                {
                    "name": "B4",
                    "midi": 71,
                    "time": 23.084985000000007,
                    "velocity": 0.3543307086614173,
                    "duration": 0.10731656249999943
                },
                {
                    "name": "C5",
                    "midi": 72,
                    "time": 23.180377500000006,
                    "velocity": 0.3543307086614173,
                    "duration": 0.10731656249999943
                },
                {
                    "name": "D#5",
                    "midi": 75,
                    "time": 23.275770000000005,
                    "velocity": 0.3858267716535433,
                    "duration": 0.10731656249999943
                },
                {
                    "name": "C#5",
                    "midi": 73,
                    "time": 23.371162500000004,
                    "velocity": 0.36220472440944884,
                    "duration": 0.0953924999999991
                },
                {
                    "name": "C5",
                    "midi": 72,
                    "time": 23.466555000000003,
                    "velocity": 0.4330708661417323,
                    "duration": 0.10731656249999943
                },
                {
                    "name": "C#5",
                    "midi": 73,
                    "time": 23.561947500000002,
                    "velocity": 0.3779527559055118,
                    "duration": 0.10731656249999943
                },
                {
                    "name": "B4",
                    "midi": 71,
                    "time": 23.65734,
                    "velocity": 0.3779527559055118,
                    "duration": 0.10731656249999943
                },
                {
                    "name": "C5",
                    "midi": 72,
                    "time": 23.7527325,
                    "velocity": 0.3779527559055118,
                    "duration": 0.10731656249999943
                },
                {
                    "name": "F#5",
                    "midi": 78,
                    "time": 23.848125,
                    "velocity": 0.4015748031496063,
                    "duration": 0.10731656249999943
                },
                {
                    "name": "G5",
                    "midi": 79,
                    "time": 23.9435175,
                    "velocity": 0.3779527559055118,
                    "duration": 0.0953924999999991
                },
                {
                    "name": "C5",
                    "midi": 72,
                    "time": 24.038909999999998,
                    "velocity": 0.44881889763779526,
                    "duration": 0.10731656249999943
                },
                {
                    "name": "C#5",
                    "midi": 73,
                    "time": 24.134302499999997,
                    "velocity": 0.4015748031496063,
                    "duration": 0.10731656249999943
                },
                {
                    "name": "B4",
                    "midi": 71,
                    "time": 24.229694999999996,
                    "velocity": 0.3700787401574803,
                    "duration": 0.10731656249999943
                },
                {
                    "name": "C5",
                    "midi": 72,
                    "time": 24.325087499999995,
                    "velocity": 0.3858267716535433,
                    "duration": 0.10731656249999943
                },
                {
                    "name": "D#5",
                    "midi": 75,
                    "time": 24.420479999999994,
                    "velocity": 0.4094488188976378,
                    "duration": 0.10731656249999943
                },
                {
                    "name": "C#5",
                    "midi": 73,
                    "time": 24.515872499999993,
                    "velocity": 0.3858267716535433,
                    "duration": 0.0953924999999991
                },
                {
                    "name": "C5",
                    "midi": 72,
                    "time": 24.611264999999992,
                    "velocity": 0.4566929133858268,
                    "duration": 0.10731656249999943
                },
                {
                    "name": "C#5",
                    "midi": 73,
                    "time": 24.70665749999999,
                    "velocity": 0.3858267716535433,
                    "duration": 0.10731656249999943
                },
                {
                    "name": "B4",
                    "midi": 71,
                    "time": 24.80204999999999,
                    "velocity": 0.3937007874015748,
                    "duration": 0.10731656249999943
                },
                {
                    "name": "C5",
                    "midi": 72,
                    "time": 24.89744249999999,
                    "velocity": 0.3937007874015748,
                    "duration": 0.10731656249999943
                },
                {
                    "name": "G#5",
                    "midi": 80,
                    "time": 24.99283499999999,
                    "velocity": 0.41732283464566927,
                    "duration": 0.10731656249999943
                },
                {
                    "name": "F5",
                    "midi": 77,
                    "time": 25.088227499999988,
                    "velocity": 0.3858267716535433,
                    "duration": 0.0953924999999991
                },
                {
                    "name": "E5",
                    "midi": 76,
                    "time": 25.183619999999987,
                    "velocity": 0.47244094488188976,
                    "duration": 0.10731656249999943
                },
                {
                    "name": "F5",
                    "midi": 77,
                    "time": 25.279012499999986,
                    "velocity": 0.41732283464566927,
                    "duration": 0.10731656249999943
                },
                {
                    "name": "E5",
                    "midi": 76,
                    "time": 25.374404999999985,
                    "velocity": 0.4330708661417323,
                    "duration": 0.10731656249999943
                },
                {
                    "name": "D#5",
                    "midi": 75,
                    "time": 25.469797499999984,
                    "velocity": 0.4409448818897638,
                    "duration": 0.10731656249999943
                },
                {
                    "name": "E5",
                    "midi": 76,
                    "time": 25.565189999999983,
                    "velocity": 0.44881889763779526,
                    "duration": 0.10731656249999943
                },
                {
                    "name": "G5",
                    "midi": 79,
                    "time": 25.660582499999983,
                    "velocity": 0.47244094488188976,
                    "duration": 0.0953924999999991
                },
                {
                    "name": "A#5",
                    "midi": 82,
                    "time": 25.75597499999998,
                    "velocity": 0.5354330708661418,
                    "duration": 0.10731656249999943
                },
                {
                    "name": "C6",
                    "midi": 84,
                    "time": 25.85136749999998,
                    "velocity": 0.47244094488188976,
                    "duration": 0.10731656249999943
                },
                {
                    "name": "A#5",
                    "midi": 82,
                    "time": 25.94675999999998,
                    "velocity": 0.48031496062992124,
                    "duration": 0.10731656249999943
                },
                {
                    "name": "A5",
                    "midi": 81,
                    "time": 26.04215249999998,
                    "velocity": 0.49606299212598426,
                    "duration": 0.10731656249999943
                },
                {
                    "name": "A#5",
                    "midi": 82,
                    "time": 26.137544999999978,
                    "velocity": 0.4881889763779528,
                    "duration": 0.10731656249999943
                },
                {
                    "name": "C#6",
                    "midi": 85,
                    "time": 26.232937499999977,
                    "velocity": 0.5196850393700787,
                    "duration": 0.0953924999999991
                },
                {
                    "name": "C6",
                    "midi": 84,
                    "time": 26.328329999999976,
                    "velocity": 0.5511811023622047,
                    "duration": 0.10731656249999943
                },
                {
                    "name": "C#6",
                    "midi": 85,
                    "time": 26.423722499999975,
                    "velocity": 0.48031496062992124,
                    "duration": 0.10731656249999943
                },
                {
                    "name": "C6",
                    "midi": 84,
                    "time": 26.519114999999974,
                    "velocity": 0.48031496062992124,
                    "duration": 0.10731656249999943
                },
                {
                    "name": "B5",
                    "midi": 83,
                    "time": 26.614507499999974,
                    "velocity": 0.48031496062992124,
                    "duration": 0.10731656249999943
                },
                {
                    "name": "C6",
                    "midi": 84,
                    "time": 26.709899999999973,
                    "velocity": 0.4881889763779528,
                    "duration": 0.10731656249999943
                },
                {
                    "name": "G5",
                    "midi": 79,
                    "time": 26.80529249999997,
                    "velocity": 0.47244094488188976,
                    "duration": 0.0953924999999991
                },
                {
                    "name": "G#5",
                    "midi": 80,
                    "time": 26.90068499999997,
                    "velocity": 0.49606299212598426,
                    "duration": 0.10731656249999943
                },
                {
                    "name": "A#5",
                    "midi": 82,
                    "time": 26.99607749999997,
                    "velocity": 0.4409448818897638,
                    "duration": 0.10731656249999943
                },
                {
                    "name": "G#5",
                    "midi": 80,
                    "time": 27.09146999999997,
                    "velocity": 0.4409448818897638,
                    "duration": 0.10731656249999943
                },
                {
                    "name": "G5",
                    "midi": 79,
                    "time": 27.186862499999968,
                    "velocity": 0.4409448818897638,
                    "duration": 0.10731656249999943
                },
                {
                    "name": "G#5",
                    "midi": 80,
                    "time": 27.282254999999967,
                    "velocity": 0.44881889763779526,
                    "duration": 0.10731656249999943
                },
                {
                    "name": "E5",
                    "midi": 76,
                    "time": 27.377647499999966,
                    "velocity": 0.4094488188976378,
                    "duration": 0.0953924999999991
                },
                {
                    "name": "F5",
                    "midi": 77,
                    "time": 27.473039999999965,
                    "velocity": 0.4645669291338583,
                    "duration": 0.10731656249999943
                },
                {
                    "name": "G5",
                    "midi": 79,
                    "time": 27.568432499999965,
                    "velocity": 0.4015748031496063,
                    "duration": 0.10731656249999943
                },
                {
                    "name": "F5",
                    "midi": 77,
                    "time": 27.663824999999964,
                    "velocity": 0.4015748031496063,
                    "duration": 0.10731656249999943
                },
                {
                    "name": "E5",
                    "midi": 76,
                    "time": 27.759217499999963,
                    "velocity": 0.4094488188976378,
                    "duration": 0.10731656249999943
                },
                {
                    "name": "F5",
                    "midi": 77,
                    "time": 27.854609999999962,
                    "velocity": 0.4330708661417323,
                    "duration": 0.10731656249999943
                },
                {
                    "name": "C5",
                    "midi": 72,
                    "time": 27.95000249999996,
                    "velocity": 0.3937007874015748,
                    "duration": 0.0953924999999991
                },
                {
                    "name": "C#5",
                    "midi": 73,
                    "time": 28.04539499999996,
                    "velocity": 0.4409448818897638,
                    "duration": 0.10731656249999943
                },
                {
                    "name": "D#5",
                    "midi": 75,
                    "time": 28.14078749999996,
                    "velocity": 0.4015748031496063,
                    "duration": 0.10731656249999943
                },
                {
                    "name": "C#5",
                    "midi": 73,
                    "time": 28.23617999999996,
                    "velocity": 0.4015748031496063,
                    "duration": 0.10731656249999943
                },
                {
                    "name": "C5",
                    "midi": 72,
                    "time": 28.331572499999957,
                    "velocity": 0.4015748031496063,
                    "duration": 0.10731656249999943
                },
                {
                    "name": "C#5",
                    "midi": 73,
                    "time": 28.426964999999957,
                    "velocity": 0.4330708661417323,
                    "duration": 0.10731656249999943
                },
                {
                    "name": "B4",
                    "midi": 71,
                    "time": 28.522357499999956,
                    "velocity": 0.4015748031496063,
                    "duration": 0.0953924999999991
                },
                {
                    "name": "C5",
                    "midi": 72,
                    "time": 28.617749999999955,
                    "velocity": 0.4566929133858268,
                    "duration": 0.10731656249999943
                },
                {
                    "name": "C#5",
                    "midi": 73,
                    "time": 28.713142499999954,
                    "velocity": 0.4094488188976378,
                    "duration": 0.10731656249999943
                },
                {
                    "name": "C5",
                    "midi": 72,
                    "time": 28.808534999999953,
                    "velocity": 0.3779527559055118,
                    "duration": 0.10731656249999943
                },
                {
                    "name": "B4",
                    "midi": 71,
                    "time": 28.903927499999952,
                    "velocity": 0.3779527559055118,
                    "duration": 0.10731656249999943
                },
                {
                    "name": "C5",
                    "midi": 72,
                    "time": 28.99931999999995,
                    "velocity": 0.4330708661417323,
                    "duration": 0.10731656249999943
                },
                {
                    "name": "G4",
                    "midi": 67,
                    "time": 29.09471249999995,
                    "velocity": 0.3937007874015748,
                    "duration": 0.0953924999999991
                },
                {
                    "name": "G#4",
                    "midi": 68,
                    "time": 29.19010499999995,
                    "velocity": 0.44881889763779526,
                    "duration": 0.10731656249999943
                },
                {
                    "name": "A#4",
                    "midi": 70,
                    "time": 29.28549749999995,
                    "velocity": 0.3858267716535433,
                    "duration": 0.10731656249999943
                },
                {
                    "name": "G#4",
                    "midi": 68,
                    "time": 29.380889999999948,
                    "velocity": 0.3779527559055118,
                    "duration": 0.10731656249999943
                },
                {
                    "name": "G4",
                    "midi": 67,
                    "time": 29.476282499999947,
                    "velocity": 0.36220472440944884,
                    "duration": 0.10731656249999943
                },
                {
                    "name": "G#4",
                    "midi": 68,
                    "time": 29.571674999999946,
                    "velocity": 0.4330708661417323,
                    "duration": 0.10731656249999943
                },
                {
                    "name": "F4",
                    "midi": 65,
                    "time": 29.667067499999945,
                    "velocity": 0.36220472440944884,
                    "duration": 0.0953924999999991
                },
                {
                    "name": "E4",
                    "midi": 64,
                    "time": 29.762459999999944,
                    "velocity": 0.47244094488188976,
                    "duration": 0.10731656249999943
                },
                {
                    "name": "G4",
                    "midi": 67,
                    "time": 29.857852499999943,
                    "velocity": 0.4330708661417323,
                    "duration": 0.10731656249999943
                },
                {
                    "name": "A#4",
                    "midi": 70,
                    "time": 29.953244999999942,
                    "velocity": 0.4409448818897638,
                    "duration": 0.10731656249999943
                },
                {
                    "name": "C#5",
                    "midi": 73,
                    "time": 30.04863749999994,
                    "velocity": 0.4566929133858268,
                    "duration": 0.10731656249999943
                },
                {
                    "name": "E5",
                    "midi": 76,
                    "time": 30.14402999999994,
                    "velocity": 0.47244094488188976,
                    "duration": 0.10731656249999943
                },
                {
                    "name": "G5",
                    "midi": 79,
                    "time": 30.23942249999994,
                    "velocity": 0.48031496062992124,
                    "duration": 0.0953924999999991
                },
                {
                    "name": "A#5",
                    "midi": 82,
                    "time": 30.33481499999994,
                    "velocity": 0.5511811023622047,
                    "duration": 0.10731656249999943
                },
                {
                    "name": "C#6",
                    "midi": 85,
                    "time": 30.430207499999938,
                    "velocity": 0.47244094488188976,
                    "duration": 0.10731656249999943
                },
                {
                    "name": "C6",
                    "midi": 84,
                    "time": 30.525599999999937,
                    "velocity": 0.48031496062992124,
                    "duration": 0.10731656249999943
                },
                {
                    "name": "A#5",
                    "midi": 82,
                    "time": 30.620992499999936,
                    "velocity": 0.4881889763779528,
                    "duration": 0.10731656249999943
                },
                {
                    "name": "G#5",
                    "midi": 80,
                    "time": 30.716384999999935,
                    "velocity": 0.48031496062992124,
                    "duration": 0.10731656249999943
                },
                {
                    "name": "G5",
                    "midi": 79,
                    "time": 30.811777499999934,
                    "velocity": 0.4881889763779528,
                    "duration": 0.0953924999999991
                },
                {
                    "name": "A#5",
                    "midi": 82,
                    "time": 30.907169999999933,
                    "velocity": 0.5511811023622047,
                    "duration": 0.10731656249999943
                },
                {
                    "name": "C6",
                    "midi": 84,
                    "time": 31.002562499999932,
                    "velocity": 0.5275590551181102,
                    "duration": 0.10731656249999943
                },
                {
                    "name": "G#5",
                    "midi": 80,
                    "time": 31.09795499999993,
                    "velocity": 0.49606299212598426,
                    "duration": 0.10731656249999943
                },
                {
                    "name": "G5",
                    "midi": 79,
                    "time": 31.19334749999993,
                    "velocity": 0.49606299212598426,
                    "duration": 0.10731656249999943
                },
                {
                    "name": "G#5",
                    "midi": 80,
                    "time": 31.28873999999993,
                    "velocity": 0.4645669291338583,
                    "duration": 0.10731656249999943
                },
                {
                    "name": "F5",
                    "midi": 77,
                    "time": 31.38413249999993,
                    "velocity": 0.41732283464566927,
                    "duration": 0.0953924999999991
                },
                {
                    "name": "E5",
                    "midi": 76,
                    "time": 31.479524999999928,
                    "velocity": 0.48031496062992124,
                    "duration": 0.10731656249999943
                },
                {
                    "name": "G5",
                    "midi": 79,
                    "time": 31.574917499999927,
                    "velocity": 0.3858267716535433,
                    "duration": 0.10731656249999943
                },
                {
                    "name": "F5",
                    "midi": 77,
                    "time": 31.670309999999926,
                    "velocity": 0.3779527559055118,
                    "duration": 0.10731656249999943
                },
                {
                    "name": "E5",
                    "midi": 76,
                    "time": 31.765702499999925,
                    "velocity": 0.3779527559055118,
                    "duration": 0.10731656249999943
                },
                {
                    "name": "F5",
                    "midi": 77,
                    "time": 31.861094999999924,
                    "velocity": 0.3779527559055118,
                    "duration": 0.10731656249999943
                },
                {
                    "name": "C#5",
                    "midi": 73,
                    "time": 31.956487499999923,
                    "velocity": 0.3543307086614173,
                    "duration": 0.09539250000000266
                },
                {
                    "name": "C5",
                    "midi": 72,
                    "time": 32.051879999999926,
                    "velocity": 0.41732283464566927,
                    "duration": 0.10731656250000299
                },
                {
                    "name": "C#5",
                    "midi": 73,
                    "time": 32.14727249999993,
                    "velocity": 0.3464566929133858,
                    "duration": 0.10731656250000299
                },
                {
                    "name": "B4",
                    "midi": 71,
                    "time": 32.24266499999993,
                    "velocity": 0.3464566929133858,
                    "duration": 0.10731656250000299
                },
                {
                    "name": "C5",
                    "midi": 72,
                    "time": 32.338057499999934,
                    "velocity": 0.3464566929133858,
                    "duration": 0.10731656250000299
                },
                {
                    "name": "D#5",
                    "midi": 75,
                    "time": 32.43344999999994,
                    "velocity": 0.3858267716535433,
                    "duration": 0.10731656250000299
                },
                {
                    "name": "C#5",
                    "midi": 73,
                    "time": 32.52884249999994,
                    "velocity": 0.3543307086614173,
                    "duration": 0.09539250000000266
                },
                {
                    "name": "C5",
                    "midi": 72,
                    "time": 32.62423499999994,
                    "velocity": 0.4330708661417323,
                    "duration": 0.10731656250000299
                },
                {
                    "name": "C#5",
                    "midi": 73,
                    "time": 32.719627499999945,
                    "velocity": 0.36220472440944884,
                    "duration": 0.10731656250000299
                },
                {
                    "name": "B4",
                    "midi": 71,
                    "time": 32.81501999999995,
                    "velocity": 0.36220472440944884,
                    "duration": 0.10731656250000299
                },
                {
                    "name": "C5",
                    "midi": 72,
                    "time": 32.91041249999995,
                    "velocity": 0.36220472440944884,
                    "duration": 0.10731656250000299
                },
                {
                    "name": "F#5",
                    "midi": 78,
                    "time": 33.00580499999995,
                    "velocity": 0.4015748031496063,
                    "duration": 0.10731656250000299
                },
                {
                    "name": "G5",
                    "midi": 79,
                    "time": 33.101197499999955,
                    "velocity": 0.36220472440944884,
                    "duration": 0.09539250000000266
                },
                {
                    "name": "C5",
                    "midi": 72,
                    "time": 33.19658999999996,
                    "velocity": 0.44881889763779526,
                    "duration": 0.10731656250000299
                },
                {
                    "name": "C#5",
                    "midi": 73,
                    "time": 33.29198249999996,
                    "velocity": 0.36220472440944884,
                    "duration": 0.10731656250000299
                },
                {
                    "name": "B4",
                    "midi": 71,
                    "time": 33.38737499999996,
                    "velocity": 0.36220472440944884,
                    "duration": 0.10731656250000299
                },
                {
                    "name": "C5",
                    "midi": 72,
                    "time": 33.482767499999966,
                    "velocity": 0.3700787401574803,
                    "duration": 0.10731656250000299
                },
                {
                    "name": "D#5",
                    "midi": 75,
                    "time": 33.57815999999997,
                    "velocity": 0.4094488188976378,
                    "duration": 0.10731656250000299
                },
                {
                    "name": "C#5",
                    "midi": 73,
                    "time": 33.67355249999997,
                    "velocity": 0.3700787401574803,
                    "duration": 0.09539250000000266
                },
                {
                    "name": "C5",
                    "midi": 72,
                    "time": 33.768944999999974,
                    "velocity": 0.41732283464566927,
                    "duration": 0.10731656250000299
                },
                {
                    "name": "C#5",
                    "midi": 73,
                    "time": 33.864337499999976,
                    "velocity": 0.3779527559055118,
                    "duration": 0.10731656250000299
                },
                {
                    "name": "B4",
                    "midi": 71,
                    "time": 33.95972999999998,
                    "velocity": 0.3858267716535433,
                    "duration": 0.10731656250000299
                },
                {
                    "name": "C5",
                    "midi": 72,
                    "time": 34.05512249999998,
                    "velocity": 0.3858267716535433,
                    "duration": 0.10731656250000299
                },
                {
                    "name": "G#5",
                    "midi": 80,
                    "time": 34.150514999999984,
                    "velocity": 0.41732283464566927,
                    "duration": 0.10731656250000299
                },
                {
                    "name": "F5",
                    "midi": 77,
                    "time": 34.24590749999999,
                    "velocity": 0.3937007874015748,
                    "duration": 0.09539250000000266
                },
                {
                    "name": "D#5",
                    "midi": 75,
                    "time": 34.34129999999999,
                    "velocity": 0.47244094488188976,
                    "duration": 0.10731656250000299
                },
                {
                    "name": "F5",
                    "midi": 77,
                    "time": 34.43669249999999,
                    "velocity": 0.41732283464566927,
                    "duration": 0.10731656250000299
                },
                {
                    "name": "D#5",
                    "midi": 75,
                    "time": 34.532084999999995,
                    "velocity": 0.4409448818897638,
                    "duration": 0.10731656250000299
                },
                {
                    "name": "D5",
                    "midi": 74,
                    "time": 34.6274775,
                    "velocity": 0.44881889763779526,
                    "duration": 0.10731656250000299
                },
                {
                    "name": "D#5",
                    "midi": 75,
                    "time": 34.72287,
                    "velocity": 0.47244094488188976,
                    "duration": 0.10731656250000299
                },
                {
                    "name": "G5",
                    "midi": 79,
                    "time": 34.8182625,
                    "velocity": 0.4881889763779528,
                    "duration": 0.09539250000000266
                },
                {
                    "name": "A#5",
                    "midi": 82,
                    "time": 34.913655000000006,
                    "velocity": 0.5511811023622047,
                    "duration": 0.10731656250000299
                },
                {
                    "name": "C6",
                    "midi": 84,
                    "time": 35.00904750000001,
                    "velocity": 0.4881889763779528,
                    "duration": 0.10731656250000299
                },
                {
                    "name": "A#5",
                    "midi": 82,
                    "time": 35.10444000000001,
                    "velocity": 0.5039370078740157,
                    "duration": 0.10731656250000299
                },
                {
                    "name": "A5",
                    "midi": 81,
                    "time": 35.199832500000014,
                    "velocity": 0.5196850393700787,
                    "duration": 0.10731656250000299
                },
                {
                    "name": "A#5",
                    "midi": 82,
                    "time": 35.295225000000016,
                    "velocity": 0.5039370078740157,
                    "duration": 0.10731656250000299
                },
                {
                    "name": "F6",
                    "midi": 89,
                    "time": 35.39061750000002,
                    "velocity": 0.5196850393700787,
                    "duration": 0.09539250000000266
                },
                {
                    "name": "D#6",
                    "midi": 87,
                    "time": 35.48601000000002,
                    "velocity": 0.6456692913385826,
                    "duration": 0.10731656250000299
                },
                {
                    "name": "F6",
                    "midi": 89,
                    "time": 35.581402500000024,
                    "velocity": 0.5511811023622047,
                    "duration": 0.10731656250000299
                },
                {
                    "name": "D#6",
                    "midi": 87,
                    "time": 35.67679500000003,
                    "velocity": 0.5511811023622047,
                    "duration": 0.10731656250000299
                },
                {
                    "name": "D6",
                    "midi": 86,
                    "time": 35.77218750000003,
                    "velocity": 0.5511811023622047,
                    "duration": 0.10731656250000299
                },
                {
                    "name": "D#6",
                    "midi": 87,
                    "time": 35.86758000000003,
                    "velocity": 0.5196850393700787,
                    "duration": 0.10731656250000299
                },
                {
                    "name": "B5",
                    "midi": 83,
                    "time": 35.962972500000035,
                    "velocity": 0.5039370078740157,
                    "duration": 0.09539250000000266
                },
                {
                    "name": "C6",
                    "midi": 84,
                    "time": 36.05836500000004,
                    "velocity": 0.5433070866141733,
                    "duration": 0.10731656250000299
                },
                {
                    "name": "C#6",
                    "midi": 85,
                    "time": 36.15375750000004,
                    "velocity": 0.48031496062992124,
                    "duration": 0.10731656250000299
                },
                {
                    "name": "C6",
                    "midi": 84,
                    "time": 36.24915000000004,
                    "velocity": 0.48031496062992124,
                    "duration": 0.10731656250000299
                },
                {
                    "name": "B5",
                    "midi": 83,
                    "time": 36.344542500000045,
                    "velocity": 0.48031496062992124,
                    "duration": 0.10731656250000299
                },
                {
                    "name": "C6",
                    "midi": 84,
                    "time": 36.43993500000005,
                    "velocity": 0.48031496062992124,
                    "duration": 0.10731656250000299
                },
                {
                    "name": "G5",
                    "midi": 79,
                    "time": 36.53532750000005,
                    "velocity": 0.47244094488188976,
                    "duration": 0.09539250000000266
                },
                {
                    "name": "G#5",
                    "midi": 80,
                    "time": 36.63072000000005,
                    "velocity": 0.5196850393700787,
                    "duration": 0.10731656250000299
                },
                {
                    "name": "A#5",
                    "midi": 82,
                    "time": 36.726112500000056,
                    "velocity": 0.4409448818897638,
                    "duration": 0.10731656250000299
                },
                {
                    "name": "G#5",
                    "midi": 80,
                    "time": 36.82150500000006,
                    "velocity": 0.4409448818897638,
                    "duration": 0.10731656250000299
                },
                {
                    "name": "G5",
                    "midi": 79,
                    "time": 36.91689750000006,
                    "velocity": 0.4409448818897638,
                    "duration": 0.10731656250000299
                },
                {
                    "name": "G#5",
                    "midi": 80,
                    "time": 37.012290000000064,
                    "velocity": 0.4566929133858268,
                    "duration": 0.10731656250000299
                },
                {
                    "name": "E5",
                    "midi": 76,
                    "time": 37.10768250000007,
                    "velocity": 0.44881889763779526,
                    "duration": 0.09539250000000266
                },
                {
                    "name": "F5",
                    "midi": 77,
                    "time": 37.20307500000007,
                    "velocity": 0.48031496062992124,
                    "duration": 0.10731656250000299
                },
                {
                    "name": "G5",
                    "midi": 79,
                    "time": 37.29846750000007,
                    "velocity": 0.4094488188976378,
                    "duration": 0.10731656250000299
                },
                {
                    "name": "F5",
                    "midi": 77,
                    "time": 37.393860000000075,
                    "velocity": 0.4094488188976378,
                    "duration": 0.10731656250000299
                },
                {
                    "name": "E5",
                    "midi": 76,
                    "time": 37.48925250000008,
                    "velocity": 0.4094488188976378,
                    "duration": 0.10731656250000299
                },
                {
                    "name": "F5",
                    "midi": 77,
                    "time": 37.58464500000008,
                    "velocity": 0.41732283464566927,
                    "duration": 0.10731656250000299
                },
                {
                    "name": "C#5",
                    "midi": 73,
                    "time": 37.68003750000008,
                    "velocity": 0.4094488188976378,
                    "duration": 0.09539250000000266
                },
                {
                    "name": "C5",
                    "midi": 72,
                    "time": 37.775430000000085,
                    "velocity": 0.47244094488188976,
                    "duration": 0.10731656250000299
                },
                {
                    "name": "C#5",
                    "midi": 73,
                    "time": 37.87082250000009,
                    "velocity": 0.4330708661417323,
                    "duration": 0.10731656250000299
                },
                {
                    "name": "A#4",
                    "midi": 70,
                    "time": 37.96621500000009,
                    "velocity": 0.4094488188976378,
                    "duration": 0.10731656250000299
                },
                {
                    "name": "G4",
                    "midi": 67,
                    "time": 38.06160750000009,
                    "velocity": 0.4409448818897638,
                    "duration": 0.10731656250000299
                },
                {
                    "name": "G#4",
                    "midi": 68,
                    "time": 38.157000000000096,
                    "velocity": 0.44881889763779526,
                    "duration": 0.10731656250000299
                },
                {
                    "name": "A#4",
                    "midi": 70,
                    "time": 38.2523925000001,
                    "velocity": 0.44881889763779526,
                    "duration": 0.09539250000000266
                },
                {
                    "name": "C5",
                    "midi": 72,
                    "time": 38.3477850000001,
                    "velocity": 0.49606299212598426,
                    "duration": 0.10731656250000299
                },
                {
                    "name": "C#5",
                    "midi": 73,
                    "time": 38.443177500000104,
                    "velocity": 0.4566929133858268,
                    "duration": 0.10731656250000299
                },
                {
                    "name": "D#5",
                    "midi": 75,
                    "time": 38.53857000000011,
                    "velocity": 0.47244094488188976,
                    "duration": 0.10731656250000299
                },
                {
                    "name": "F5",
                    "midi": 77,
                    "time": 38.63396250000011,
                    "velocity": 0.48031496062992124,
                    "duration": 0.10731656250000299
                },
                {
                    "name": "G5",
                    "midi": 79,
                    "time": 38.72935500000011,
                    "velocity": 0.48031496062992124,
                    "duration": 0.10731656250000299
                },
                {
                    "name": "G#5",
                    "midi": 80,
                    "time": 38.824747500000115,
                    "velocity": 0.48031496062992124,
                    "duration": 0.09539250000000266
                },
                {
                    "name": "G5",
                    "midi": 79,
                    "time": 38.92014000000012,
                    "velocity": 0.5354330708661418,
                    "duration": 0.10731656250000299
                },
                {
                    "name": "G#5",
                    "midi": 80,
                    "time": 39.01553250000012,
                    "velocity": 0.4566929133858268,
                    "duration": 0.10731656250000299
                },
                {
                    "name": "F5",
                    "midi": 77,
                    "time": 39.11092500000012,
                    "velocity": 0.4566929133858268,
                    "duration": 0.10731656250000299
                },
                {
                    "name": "D#5",
                    "midi": 75,
                    "time": 39.206317500000125,
                    "velocity": 0.4566929133858268,
                    "duration": 0.10731656250000299
                },
                {
                    "name": "F5",
                    "midi": 77,
                    "time": 39.30171000000013,
                    "velocity": 0.48031496062992124,
                    "duration": 0.10731656250000299
                },
                {
                    "name": "C#5",
                    "midi": 73,
                    "time": 39.39710250000013,
                    "velocity": 0.47244094488188976,
                    "duration": 0.09539250000000266
                },
                {
                    "name": "C5",
                    "midi": 72,
                    "time": 39.49249500000013,
                    "velocity": 0.4881889763779528,
                    "duration": 0.10731656250000299
                },
                {
                    "name": "C#5",
                    "midi": 73,
                    "time": 39.587887500000136,
                    "velocity": 0.4409448818897638,
                    "duration": 0.10731656250000299
                },
                {
                    "name": "A#4",
                    "midi": 70,
                    "time": 39.68328000000014,
                    "velocity": 0.41732283464566927,
                    "duration": 0.10731656250000299
                },
                {
                    "name": "C5",
                    "midi": 72,
                    "time": 39.77867250000014,
                    "velocity": 0.41732283464566927,
                    "duration": 0.10731656250000299
                },
                {
                    "name": "F4",
                    "midi": 65,
                    "time": 39.874065000000144,
                    "velocity": 0.44881889763779526,
                    "duration": 0.10731656250000299
                },
                {
                    "name": "G4",
                    "midi": 67,
                    "time": 39.969457500000146,
                    "velocity": 0.4094488188976378,
                    "duration": 0.09539250000000266
                },
                {
                    "name": "G#4",
                    "midi": 68,
                    "time": 40.06485000000015,
                    "velocity": 0.47244094488188976,
                    "duration": 0.10731656250000299
                },
                {
                    "name": "A#4",
                    "midi": 70,
                    "time": 40.16024250000015,
                    "velocity": 0.4015748031496063,
                    "duration": 0.10731656250000299
                },
                {
                    "name": "G#4",
                    "midi": 68,
                    "time": 40.255635000000154,
                    "velocity": 0.4015748031496063,
                    "duration": 0.10731656250000299
                },
                {
                    "name": "G4",
                    "midi": 67,
                    "time": 40.35102750000016,
                    "velocity": 0.3858267716535433,
                    "duration": 0.10731656250000299
                },
                {
                    "name": "G#4",
                    "midi": 68,
                    "time": 40.44642000000016,
                    "velocity": 0.4015748031496063,
                    "duration": 0.10731656250000299
                },
                {
                    "name": "A4",
                    "midi": 69,
                    "time": 40.54181250000016,
                    "velocity": 0.41732283464566927,
                    "duration": 0.09539250000000266
                },
                {
                    "name": "A#4",
                    "midi": 70,
                    "time": 40.637205000000165,
                    "velocity": 0.47244094488188976,
                    "duration": 0.10731656250000299
                },
                {
                    "name": "C5",
                    "midi": 72,
                    "time": 40.73259750000017,
                    "velocity": 0.4094488188976378,
                    "duration": 0.10731656250000299
                },
                {
                    "name": "A#4",
                    "midi": 70,
                    "time": 40.82799000000017,
                    "velocity": 0.4094488188976378,
                    "duration": 0.10731656250000299
                },
                {
                    "name": "C5",
                    "midi": 72,
                    "time": 40.92338250000017,
                    "velocity": 0.4015748031496063,
                    "duration": 0.10731656250000299
                },
                {
                    "name": "F4",
                    "midi": 65,
                    "time": 41.018775000000176,
                    "velocity": 0.3858267716535433,
                    "duration": 0.10731656250000299
                },
                {
                    "name": "G4",
                    "midi": 67,
                    "time": 41.11416750000018,
                    "velocity": 0.4330708661417323,
                    "duration": 0.09539250000000266
                },
                {
                    "name": "G#4",
                    "midi": 68,
                    "time": 41.20956000000018,
                    "velocity": 0.47244094488188976,
                    "duration": 0.10731656250000299
                },
                {
                    "name": "A#4",
                    "midi": 70,
                    "time": 41.304952500000184,
                    "velocity": 0.4330708661417323,
                    "duration": 0.10731656250000299
                },
                {
                    "name": "G#4",
                    "midi": 68,
                    "time": 41.400345000000186,
                    "velocity": 0.3858267716535433,
                    "duration": 0.10731656250000299
                },
                {
                    "name": "G4",
                    "midi": 67,
                    "time": 41.49573750000019,
                    "velocity": 0.3858267716535433,
                    "duration": 0.10731656250000299
                },
                {
                    "name": "G#4",
                    "midi": 68,
                    "time": 41.59113000000019,
                    "velocity": 0.4015748031496063,
                    "duration": 0.10731656250000299
                },
                {
                    "name": "A4",
                    "midi": 69,
                    "time": 41.686522500000194,
                    "velocity": 0.4330708661417323,
                    "duration": 0.09539250000000266
                },
                {
                    "name": "A#4",
                    "midi": 70,
                    "time": 41.7819150000002,
                    "velocity": 0.47244094488188976,
                    "duration": 0.10731656250000299
                },
                {
                    "name": "C5",
                    "midi": 72,
                    "time": 41.8773075000002,
                    "velocity": 0.4330708661417323,
                    "duration": 0.10731656250000299
                },
                {
                    "name": "A#4",
                    "midi": 70,
                    "time": 41.9727000000002,
                    "velocity": 0.4330708661417323,
                    "duration": 0.10731656250000299
                },
                {
                    "name": "C5",
                    "midi": 72,
                    "time": 42.068092500000205,
                    "velocity": 0.4015748031496063,
                    "duration": 0.10731656250000299
                },
                {
                    "name": "F4",
                    "midi": 65,
                    "time": 42.16348500000021,
                    "velocity": 0.4015748031496063,
                    "duration": 0.10731656250000299
                },
                {
                    "name": "G4",
                    "midi": 67,
                    "time": 42.25887750000021,
                    "velocity": 0.4015748031496063,
                    "duration": 0.09539250000000266
                },
                {
                    "name": "G#4",
                    "midi": 68,
                    "time": 42.35427000000021,
                    "velocity": 0.47244094488188976,
                    "duration": 0.10731656250000299
                },
                {
                    "name": "A#4",
                    "midi": 70,
                    "time": 42.449662500000215,
                    "velocity": 0.4330708661417323,
                    "duration": 0.10731656250000299
                },
                {
                    "name": "G#4",
                    "midi": 68,
                    "time": 42.54505500000022,
                    "velocity": 0.3937007874015748,
                    "duration": 0.10731656250000299
                },
                {
                    "name": "G4",
                    "midi": 67,
                    "time": 42.64044750000022,
                    "velocity": 0.3779527559055118,
                    "duration": 0.10731656250000299
                },
                {
                    "name": "G#4",
                    "midi": 68,
                    "time": 42.73584000000022,
                    "velocity": 0.4015748031496063,
                    "duration": 0.10731656250000299
                },
                {
                    "name": "A#4",
                    "midi": 70,
                    "time": 42.831232500000226,
                    "velocity": 0.4330708661417323,
                    "duration": 0.09539250000000266
                },
                {
                    "name": "C5",
                    "midi": 72,
                    "time": 42.92662500000023,
                    "velocity": 0.5275590551181102,
                    "duration": 0.09539250000000266
                },
                {
                    "name": "C#5",
                    "midi": 73,
                    "time": 43.02201750000023,
                    "velocity": 0.48031496062992124,
                    "duration": 0.09539250000000266
                },
                {
                    "name": "C5",
                    "midi": 72,
                    "time": 43.117410000000234,
                    "velocity": 0.4330708661417323,
                    "duration": 0.09539250000000266
                },
                {
                    "name": "B4",
                    "midi": 71,
                    "time": 43.21280250000024,
                    "velocity": 0.4330708661417323,
                    "duration": 0.09539250000000266
                },
                {
                    "name": "C5",
                    "midi": 72,
                    "time": 43.30819500000024,
                    "velocity": 0.4881889763779528,
                    "duration": 0.09539250000000266
                },
                {
                    "name": "C#5",
                    "midi": 73,
                    "time": 43.40358750000024,
                    "velocity": 0.4330708661417323,
                    "duration": 0.09539250000000266
                },
                {
                    "name": "D#5",
                    "midi": 75,
                    "time": 43.498980000000245,
                    "velocity": 0.5039370078740157,
                    "duration": 0.10731656250000299
                },
                {
                    "name": "F5",
                    "midi": 77,
                    "time": 43.59437250000025,
                    "velocity": 0.48031496062992124,
                    "duration": 0.10731656250000299
                },
                {
                    "name": "D#5",
                    "midi": 75,
                    "time": 43.68976500000025,
                    "velocity": 0.48031496062992124,
                    "duration": 0.10731656250000299
                },
                {
                    "name": "F5",
                    "midi": 77,
                    "time": 43.78515750000025,
                    "velocity": 0.5196850393700787,
                    "duration": 0.10731656250000299
                },
                {
                    "name": "D#5",
                    "midi": 75,
                    "time": 43.880550000000255,
                    "velocity": 0.48031496062992124,
                    "duration": 0.10731656250000299
                },
                {
                    "name": "C#5",
                    "midi": 73,
                    "time": 43.97594250000026,
                    "velocity": 0.48031496062992124,
                    "duration": 0.09539250000000266
                },
                {
                    "name": "C5",
                    "midi": 72,
                    "time": 44.07133500000026,
                    "velocity": 0.4881889763779528,
                    "duration": 0.09539250000000266
                },
                {
                    "name": "C#5",
                    "midi": 73,
                    "time": 44.16672750000026,
                    "velocity": 0.48031496062992124,
                    "duration": 0.09539250000000266
                },
                {
                    "name": "C5",
                    "midi": 72,
                    "time": 44.262120000000266,
                    "velocity": 0.47244094488188976,
                    "duration": 0.09539250000000266
                },
                {
                    "name": "C#5",
                    "midi": 73,
                    "time": 44.35751250000027,
                    "velocity": 0.4566929133858268,
                    "duration": 0.09539250000000266
                },
                {
                    "name": "G4",
                    "midi": 67,
                    "time": 44.45290500000027,
                    "velocity": 0.44881889763779526,
                    "duration": 0.09539250000000266
                },
                {
                    "name": "A4",
                    "midi": 69,
                    "time": 44.548297500000274,
                    "velocity": 0.4094488188976378,
                    "duration": 0.09539250000000266
                },
                {
                    "name": "A#4",
                    "midi": 70,
                    "time": 44.64369000000028,
                    "velocity": 0.5354330708661418,
                    "duration": 0.10731656250000299
                },
                {
                    "name": "C5",
                    "midi": 72,
                    "time": 44.73908250000028,
                    "velocity": 0.44881889763779526,
                    "duration": 0.10731656250000299
                },
                {
                    "name": "A#4",
                    "midi": 70,
                    "time": 44.83447500000028,
                    "velocity": 0.44881889763779526,
                    "duration": 0.10731656250000299
                },
                {
                    "name": "A4",
                    "midi": 69,
                    "time": 44.929867500000285,
                    "velocity": 0.4330708661417323,
                    "duration": 0.10731656250000299
                },
                {
                    "name": "A#4",
                    "midi": 70,
                    "time": 45.02526000000029,
                    "velocity": 0.44881889763779526,
                    "duration": 0.10731656250000299
                },
                {
                    "name": "B4",
                    "midi": 71,
                    "time": 45.12065250000029,
                    "velocity": 0.47244094488188976,
                    "duration": 0.09539250000000266
                },
                {
                    "name": "C5",
                    "midi": 72,
                    "time": 45.21604500000029,
                    "velocity": 0.5354330708661418,
                    "duration": 0.10731656250000299
                },
                {
                    "name": "C#5",
                    "midi": 73,
                    "time": 45.311437500000295,
                    "velocity": 0.47244094488188976,
                    "duration": 0.10731656250000299
                },
                {
                    "name": "C5",
                    "midi": 72,
                    "time": 45.4068300000003,
                    "velocity": 0.47244094488188976,
                    "duration": 0.10731656250000299
                },
                {
                    "name": "C#5",
                    "midi": 73,
                    "time": 45.5022225000003,
                    "velocity": 0.4566929133858268,
                    "duration": 0.10731656250000299
                },
                {
                    "name": "G4",
                    "midi": 67,
                    "time": 45.5976150000003,
                    "velocity": 0.4409448818897638,
                    "duration": 0.10731656250000299
                },
                {
                    "name": "A4",
                    "midi": 69,
                    "time": 45.693007500000306,
                    "velocity": 0.4881889763779528,
                    "duration": 0.09539250000000266
                },
                {
                    "name": "A#4",
                    "midi": 70,
                    "time": 45.78840000000031,
                    "velocity": 0.5354330708661418,
                    "duration": 0.10731656250000299
                },
                {
                    "name": "C5",
                    "midi": 72,
                    "time": 45.88379250000031,
                    "velocity": 0.4566929133858268,
                    "duration": 0.10731656250000299
                },
                {
                    "name": "A#4",
                    "midi": 70,
                    "time": 45.979185000000314,
                    "velocity": 0.4566929133858268,
                    "duration": 0.10731656250000299
                },
                {
                    "name": "A4",
                    "midi": 69,
                    "time": 46.074577500000316,
                    "velocity": 0.4409448818897638,
                    "duration": 0.10731656250000299
                },
                {
                    "name": "A#4",
                    "midi": 70,
                    "time": 46.16997000000032,
                    "velocity": 0.4566929133858268,
                    "duration": 0.10731656250000299
                },
                {
                    "name": "B4",
                    "midi": 71,
                    "time": 46.26536250000032,
                    "velocity": 0.48031496062992124,
                    "duration": 0.09539250000000266
                },
                {
                    "name": "C5",
                    "midi": 72,
                    "time": 46.360755000000324,
                    "velocity": 0.5433070866141733,
                    "duration": 0.10731656250000299
                },
                {
                    "name": "C#5",
                    "midi": 73,
                    "time": 46.45614750000033,
                    "velocity": 0.47244094488188976,
                    "duration": 0.10731656250000299
                },
                {
                    "name": "C5",
                    "midi": 72,
                    "time": 46.55154000000033,
                    "velocity": 0.47244094488188976,
                    "duration": 0.10731656250000299
                },
                {
                    "name": "C#5",
                    "midi": 73,
                    "time": 46.64693250000033,
                    "velocity": 0.4566929133858268,
                    "duration": 0.10731656250000299
                },
                {
                    "name": "G4",
                    "midi": 67,
                    "time": 46.742325000000335,
                    "velocity": 0.4409448818897638,
                    "duration": 0.10731656250000299
                },
                {
                    "name": "A4",
                    "midi": 69,
                    "time": 46.83771750000034,
                    "velocity": 0.49606299212598426,
                    "duration": 0.09539250000000266
                },
                {
                    "name": "A#4",
                    "midi": 70,
                    "time": 46.93311000000034,
                    "velocity": 0.5433070866141733,
                    "duration": 0.10731656250000299
                },
                {
                    "name": "C5",
                    "midi": 72,
                    "time": 47.02850250000034,
                    "velocity": 0.47244094488188976,
                    "duration": 0.10731656250000299
                },
                {
                    "name": "A#4",
                    "midi": 70,
                    "time": 47.123895000000346,
                    "velocity": 0.47244094488188976,
                    "duration": 0.10731656250000299
                },
                {
                    "name": "A4",
                    "midi": 69,
                    "time": 47.21928750000035,
                    "velocity": 0.4566929133858268,
                    "duration": 0.10731656250000299
                },
                {
                    "name": "A#4",
                    "midi": 70,
                    "time": 47.31468000000035,
                    "velocity": 0.4881889763779528,
                    "duration": 0.10731656250000299
                },
                {
                    "name": "C5",
                    "midi": 72,
                    "time": 47.410072500000354,
                    "velocity": 0.5039370078740157,
                    "duration": 0.09539250000000266
                },
                {
                    "name": "D5",
                    "midi": 74,
                    "time": 47.505465000000356,
                    "velocity": 0.5826771653543307,
                    "duration": 0.10731656250000299
                },
                {
                    "name": "D#5",
                    "midi": 75,
                    "time": 47.60085750000036,
                    "velocity": 0.5039370078740157,
                    "duration": 0.10731656250000299
                },
                {
                    "name": "D5",
                    "midi": 74,
                    "time": 47.69625000000036,
                    "velocity": 0.5275590551181102,
                    "duration": 0.10731656250000299
                },
                {
                    "name": "C#5",
                    "midi": 73,
                    "time": 47.791642500000364,
                    "velocity": 0.5275590551181102,
                    "duration": 0.10731656250000299
                },
                {
                    "name": "D5",
                    "midi": 74,
                    "time": 47.88703500000037,
                    "velocity": 0.5039370078740157,
                    "duration": 0.10731656250000299
                },
                {
                    "name": "D#5",
                    "midi": 75,
                    "time": 47.98242750000037,
                    "velocity": 0.5748031496062992,
                    "duration": 0.09539250000000266
                },
                {
                    "name": "F5",
                    "midi": 77,
                    "time": 48.07782000000037,
                    "velocity": 0.6377952755905512,
                    "duration": 0.10731656250000299
                },
                {
                    "name": "G5",
                    "midi": 79,
                    "time": 48.173212500000375,
                    "velocity": 0.5433070866141733,
                    "duration": 0.10731656250000299
                },
                {
                    "name": "F5",
                    "midi": 77,
                    "time": 48.26860500000038,
                    "velocity": 0.5354330708661418,
                    "duration": 0.10731656250000299
                },
                {
                    "name": "G5",
                    "midi": 79,
                    "time": 48.36399750000038,
                    "velocity": 0.5039370078740157,
                    "duration": 0.10731656250000299
                },
                {
                    "name": "F5",
                    "midi": 77,
                    "time": 48.45939000000038,
                    "velocity": 0.5275590551181102,
                    "duration": 0.10731656250000299
                },
                {
                    "name": "D#5",
                    "midi": 75,
                    "time": 48.554782500000385,
                    "velocity": 0.5433070866141733,
                    "duration": 0.09539250000000266
                },
                {
                    "name": "D5",
                    "midi": 74,
                    "time": 48.65017500000039,
                    "velocity": 0.6141732283464567,
                    "duration": 0.10731656250000299
                },
                {
                    "name": "D#5",
                    "midi": 75,
                    "time": 48.74556750000039,
                    "velocity": 0.5275590551181102,
                    "duration": 0.10731656250000299
                },
                {
                    "name": "D5",
                    "midi": 74,
                    "time": 48.84096000000039,
                    "velocity": 0.5275590551181102,
                    "duration": 0.10731656250000299
                },
                {
                    "name": "D#5",
                    "midi": 75,
                    "time": 48.936352500000396,
                    "velocity": 0.5039370078740157,
                    "duration": 0.10731656250000299
                },
                {
                    "name": "A4",
                    "midi": 69,
                    "time": 49.0317450000004,
                    "velocity": 0.4881889763779528,
                    "duration": 0.10731656250000299
                },
                {
                    "name": "B4",
                    "midi": 71,
                    "time": 49.1271375000004,
                    "velocity": 0.5354330708661418,
                    "duration": 0.09539250000000266
                },
                {
                    "name": "C5",
                    "midi": 72,
                    "time": 49.222530000000404,
                    "velocity": 0.6141732283464567,
                    "duration": 0.10731656250000299
                },
                {
                    "name": "C#5",
                    "midi": 73,
                    "time": 49.31792250000041,
                    "velocity": 0.5433070866141733,
                    "duration": 0.10731656250000299
                },
                {
                    "name": "C5",
                    "midi": 72,
                    "time": 49.41331500000041,
                    "velocity": 0.5354330708661418,
                    "duration": 0.10731656250000299
                },
                {
                    "name": "B4",
                    "midi": 71,
                    "time": 49.50870750000041,
                    "velocity": 0.5039370078740157,
                    "duration": 0.10731656250000299
                },
                {
                    "name": "C5",
                    "midi": 72,
                    "time": 49.604100000000415,
                    "velocity": 0.5275590551181102,
                    "duration": 0.10731656250000299
                },
                {
                    "name": "G5",
                    "midi": 79,
                    "time": 49.69949250000042,
                    "velocity": 0.5433070866141733,
                    "duration": 0.09539250000000266
                },
                {
                    "name": "G#5",
                    "midi": 80,
                    "time": 49.79488500000042,
                    "velocity": 0.5905511811023622,
                    "duration": 0.10731656250000299
                },
                {
                    "name": "A#5",
                    "midi": 82,
                    "time": 49.89027750000042,
                    "velocity": 0.5433070866141733,
                    "duration": 0.10731656250000299
                },
                {
                    "name": "G#5",
                    "midi": 80,
                    "time": 49.985670000000425,
                    "velocity": 0.5433070866141733,
                    "duration": 0.10731656250000299
                },
                {
                    "name": "G5",
                    "midi": 79,
                    "time": 50.08106250000043,
                    "velocity": 0.5196850393700787,
                    "duration": 0.10731656250000299
                },
                {
                    "name": "G#5",
                    "midi": 80,
                    "time": 50.17645500000043,
                    "velocity": 0.49606299212598426,
                    "duration": 0.10731656250000299
                },
                {
                    "name": "E5",
                    "midi": 76,
                    "time": 50.27184750000043,
                    "velocity": 0.5511811023622047,
                    "duration": 0.09539250000000266
                },
                {
                    "name": "F5",
                    "midi": 77,
                    "time": 50.367240000000436,
                    "velocity": 0.5748031496062992,
                    "duration": 0.10731656250000299
                },
                {
                    "name": "G5",
                    "midi": 79,
                    "time": 50.46263250000044,
                    "velocity": 0.5433070866141733,
                    "duration": 0.10731656250000299
                },
                {
                    "name": "F5",
                    "midi": 77,
                    "time": 50.55802500000044,
                    "velocity": 0.5433070866141733,
                    "duration": 0.10731656250000299
                },
                {
                    "name": "D#5",
                    "midi": 75,
                    "time": 50.653417500000444,
                    "velocity": 0.4881889763779528,
                    "duration": 0.10731656250000299
                },
                {
                    "name": "C#5",
                    "midi": 73,
                    "time": 50.74881000000045,
                    "velocity": 0.5354330708661418,
                    "duration": 0.10731656250000299
                },
                {
                    "name": "C5",
                    "midi": 72,
                    "time": 50.84420250000045,
                    "velocity": 0.5354330708661418,
                    "duration": 0.09539250000000266
                },
                {
                    "name": "A#4",
                    "midi": 70,
                    "time": 50.93959500000045,
                    "velocity": 0.5905511811023622,
                    "duration": 0.10731656250000299
                },
                {
                    "name": "G#4",
                    "midi": 68,
                    "time": 51.034987500000454,
                    "velocity": 0.5354330708661418,
                    "duration": 0.10731656250000299
                },
                {
                    "name": "G4",
                    "midi": 67,
                    "time": 51.13038000000046,
                    "velocity": 0.5039370078740157,
                    "duration": 0.10731656250000299
                },
                {
                    "name": "F4",
                    "midi": 65,
                    "time": 51.22577250000046,
                    "velocity": 0.4881889763779528,
                    "duration": 0.10731656250000299
                },
                {
                    "name": "G4",
                    "midi": 67,
                    "time": 51.32116500000046,
                    "velocity": 0.4645669291338583,
                    "duration": 0.10731656250000299
                },
                {
                    "name": "G#4",
                    "midi": 68,
                    "time": 51.416557500000465,
                    "velocity": 0.4566929133858268,
                    "duration": 0.09539250000000266
                },
                {
                    "name": "G4",
                    "midi": 67,
                    "time": 51.51195000000047,
                    "velocity": 0.5826771653543307,
                    "duration": 0.10731656250000299
                },
                {
                    "name": "C#5",
                    "midi": 73,
                    "time": 51.60734250000047,
                    "velocity": 0.4566929133858268,
                    "duration": 0.10731656250000299
                },
                {
                    "name": "C5",
                    "midi": 72,
                    "time": 51.70273500000047,
                    "velocity": 0.44881889763779526,
                    "duration": 0.10731656250000299
                },
                {
                    "name": "B4",
                    "midi": 71,
                    "time": 51.798127500000476,
                    "velocity": 0.41732283464566927,
                    "duration": 0.10731656250000299
                },
                {
                    "name": "C5",
                    "midi": 72,
                    "time": 51.89352000000048,
                    "velocity": 0.4409448818897638,
                    "duration": 0.10731656250000299
                },
                {
                    "name": "G5",
                    "midi": 79,
                    "time": 51.98891250000048,
                    "velocity": 0.4566929133858268,
                    "duration": 0.09539250000000266
                },
                {
                    "name": "G#5",
                    "midi": 80,
                    "time": 52.084305000000484,
                    "velocity": 0.4645669291338583,
                    "duration": 0.10731656250000299
                },
                {
                    "name": "A#5",
                    "midi": 82,
                    "time": 52.179697500000486,
                    "velocity": 0.3858267716535433,
                    "duration": 0.10731656250000299
                },
                {
                    "name": "G#5",
                    "midi": 80,
                    "time": 52.27509000000049,
                    "velocity": 0.3858267716535433,
                    "duration": 0.10731656250000299
                },
                {
                    "name": "G5",
                    "midi": 79,
                    "time": 52.37048250000049,
                    "velocity": 0.3779527559055118,
                    "duration": 0.10731656250000299
                },
                {
                    "name": "G#5",
                    "midi": 80,
                    "time": 52.465875000000494,
                    "velocity": 0.3700787401574803,
                    "duration": 0.10731656250000299
                },
                {
                    "name": "E5",
                    "midi": 76,
                    "time": 52.5612675000005,
                    "velocity": 0.3937007874015748,
                    "duration": 0.09539250000000266
                },
                {
                    "name": "F5",
                    "midi": 77,
                    "time": 52.6566600000005,
                    "velocity": 0.4409448818897638,
                    "duration": 0.10731656250000299
                },
                {
                    "name": "G5",
                    "midi": 79,
                    "time": 52.7520525000005,
                    "velocity": 0.3858267716535433,
                    "duration": 0.10731656250000299
                },
                {
                    "name": "F5",
                    "midi": 77,
                    "time": 52.847445000000505,
                    "velocity": 0.3858267716535433,
                    "duration": 0.10731656250000299
                },
                {
                    "name": "D#5",
                    "midi": 75,
                    "time": 52.94283750000051,
                    "velocity": 0.36220472440944884,
                    "duration": 0.10731656250000299
                },
                {
                    "name": "C#5",
                    "midi": 73,
                    "time": 53.03823000000051,
                    "velocity": 0.3858267716535433,
                    "duration": 0.10731656250000299
                },
                {
                    "name": "C5",
                    "midi": 72,
                    "time": 53.13362250000051,
                    "velocity": 0.3858267716535433,
                    "duration": 0.09539250000000266
                },
                {
                    "name": "A#4",
                    "midi": 70,
                    "time": 53.229015000000516,
                    "velocity": 0.4330708661417323,
                    "duration": 0.10731656250000299
                },
                {
                    "name": "G#4",
                    "midi": 68,
                    "time": 53.32440750000052,
                    "velocity": 0.3858267716535433,
                    "duration": 0.10731656250000299
                },
                {
                    "name": "G4",
                    "midi": 67,
                    "time": 53.41980000000052,
                    "velocity": 0.3779527559055118,
                    "duration": 0.10731656250000299
                },
                {
                    "name": "F4",
                    "midi": 65,
                    "time": 53.51519250000052,
                    "velocity": 0.3543307086614173,
                    "duration": 0.10731656250000299
                },
                {
                    "name": "G4",
                    "midi": 67,
                    "time": 53.610585000000526,
                    "velocity": 0.33070866141732286,
                    "duration": 0.10731656250000299
                },
                {
                    "name": "G#4",
                    "midi": 68,
                    "time": 53.70597750000053,
                    "velocity": 0.31496062992125984,
                    "duration": 0.09539250000000266
                },
                {
                    "name": "G4",
                    "midi": 67,
                    "time": 53.80137000000053,
                    "velocity": 0.4409448818897638,
                    "duration": 0.10731656250000299
                },
                {
                    "name": "G5",
                    "midi": 79,
                    "time": 53.896762500000534,
                    "velocity": 0.3779527559055118,
                    "duration": 0.10731656250000299
                },
                {
                    "name": "F5",
                    "midi": 77,
                    "time": 53.99215500000054,
                    "velocity": 0.3858267716535433,
                    "duration": 0.10731656250000299
                },
                {
                    "name": "E5",
                    "midi": 76,
                    "time": 54.08754750000054,
                    "velocity": 0.36220472440944884,
                    "duration": 0.10731656250000299
                },
                {
                    "name": "C#5",
                    "midi": 73,
                    "time": 54.18294000000054,
                    "velocity": 0.3858267716535433,
                    "duration": 0.10731656250000299
                },
                {
                    "name": "C5",
                    "midi": 72,
                    "time": 54.278332500000545,
                    "velocity": 0.3858267716535433,
                    "duration": 0.09539250000000266
                },
                {
                    "name": "A#4",
                    "midi": 70,
                    "time": 54.37372500000055,
                    "velocity": 0.4094488188976378,
                    "duration": 0.10731656250000299
                },
                {
                    "name": "G#4",
                    "midi": 68,
                    "time": 54.46911750000055,
                    "velocity": 0.3858267716535433,
                    "duration": 0.10731656250000299
                },
                {
                    "name": "G4",
                    "midi": 67,
                    "time": 54.56451000000055,
                    "velocity": 0.3779527559055118,
                    "duration": 0.10731656250000299
                },
                {
                    "name": "F4",
                    "midi": 65,
                    "time": 54.659902500000555,
                    "velocity": 0.3543307086614173,
                    "duration": 0.10731656250000299
                },
                {
                    "name": "G4",
                    "midi": 67,
                    "time": 54.75529500000056,
                    "velocity": 0.33070866141732286,
                    "duration": 0.10731656250000299
                },
                {
                    "name": "G#4",
                    "midi": 68,
                    "time": 54.85068750000056,
                    "velocity": 0.31496062992125984,
                    "duration": 0.09539250000000266
                },
                {
                    "name": "G4",
                    "midi": 67,
                    "time": 54.94608000000056,
                    "velocity": 0.3937007874015748,
                    "duration": 0.10731656250000299
                },
                {
                    "name": "G5",
                    "midi": 79,
                    "time": 55.041472500000566,
                    "velocity": 0.3779527559055118,
                    "duration": 0.10731656250000299
                },
                {
                    "name": "F5",
                    "midi": 77,
                    "time": 55.13686500000057,
                    "velocity": 0.3858267716535433,
                    "duration": 0.10731656250000299
                },
                {
                    "name": "E5",
                    "midi": 76,
                    "time": 55.23225750000057,
                    "velocity": 0.36220472440944884,
                    "duration": 0.10731656250000299
                },
                {
                    "name": "C#5",
                    "midi": 73,
                    "time": 55.327650000000574,
                    "velocity": 0.3858267716535433,
                    "duration": 0.10731656250000299
                },
                {
                    "name": "C5",
                    "midi": 72,
                    "time": 55.42304250000058,
                    "velocity": 0.3858267716535433,
                    "duration": 0.09539250000000266
                },
                {
                    "name": "A#4",
                    "midi": 70,
                    "time": 55.51843500000058,
                    "velocity": 0.4015748031496063,
                    "duration": 0.10731656250000299
                },
                {
                    "name": "G#4",
                    "midi": 68,
                    "time": 55.61382750000058,
                    "velocity": 0.3858267716535433,
                    "duration": 0.10731656250000299
                },
                {
                    "name": "G4",
                    "midi": 67,
                    "time": 55.709220000000585,
                    "velocity": 0.3779527559055118,
                    "duration": 0.10731656250000299
                },
                {
                    "name": "F4",
                    "midi": 65,
                    "time": 55.80461250000059,
                    "velocity": 0.3543307086614173,
                    "duration": 0.10731656250000299
                },
                {
                    "name": "G4",
                    "midi": 67,
                    "time": 55.90000500000059,
                    "velocity": 0.33070866141732286,
                    "duration": 0.10731656250000299
                },
                {
                    "name": "G#4",
                    "midi": 68,
                    "time": 55.99539750000059,
                    "velocity": 0.31496062992125984,
                    "duration": 0.09539250000000266
                },
                {
                    "name": "G4",
                    "midi": 67,
                    "time": 56.090790000000595,
                    "velocity": 0.41732283464566927,
                    "duration": 0.10731656250000299
                },
                {
                    "name": "C#5",
                    "midi": 73,
                    "time": 56.1861825000006,
                    "velocity": 0.3858267716535433,
                    "duration": 0.10731656250000299
                },
                {
                    "name": "C5",
                    "midi": 72,
                    "time": 56.2815750000006,
                    "velocity": 0.3543307086614173,
                    "duration": 0.10731656250000299
                },
                {
                    "name": "B4",
                    "midi": 71,
                    "time": 56.3769675000006,
                    "velocity": 0.33070866141732286,
                    "duration": 0.10731656250000299
                },
                {
                    "name": "C5",
                    "midi": 72,
                    "time": 56.472360000000606,
                    "velocity": 0.36220472440944884,
                    "duration": 0.10731656250000299
                },
                {
                    "name": "C#5",
                    "midi": 73,
                    "time": 56.56775250000061,
                    "velocity": 0.3858267716535433,
                    "duration": 0.09539250000000266
                },
                {
                    "name": "C5",
                    "midi": 72,
                    "time": 56.66314500000061,
                    "velocity": 0.41732283464566927,
                    "duration": 0.09539250000000266
                },
                {
                    "name": "C#5",
                    "midi": 73,
                    "time": 56.758537500000614,
                    "velocity": 0.3858267716535433,
                    "duration": 0.09539250000000266
                },
                {
                    "name": "C5",
                    "midi": 72,
                    "time": 56.85393000000062,
                    "velocity": 0.3700787401574803,
                    "duration": 0.09539250000000266
                },
                {
                    "name": "B4",
                    "midi": 71,
                    "time": 56.94932250000062,
                    "velocity": 0.3700787401574803,
                    "duration": 0.09539250000000266
                },
                {
                    "name": "C5",
                    "midi": 72,
                    "time": 57.04471500000062,
                    "velocity": 0.4015748031496063,
                    "duration": 0.09539250000000266
                },
                {
                    "name": "C#5",
                    "midi": 73,
                    "time": 57.140107500000624,
                    "velocity": 0.3858267716535433,
                    "duration": 0.09539250000000266
                },
                {
                    "name": "C5",
                    "midi": 72,
                    "time": 57.23550000000063,
                    "velocity": 0.4645669291338583,
                    "duration": 0.09539250000000266
                },
                {
                    "name": "C#5",
                    "midi": 73,
                    "time": 57.33089250000063,
                    "velocity": 0.4409448818897638,
                    "duration": 0.09539250000000266
                },
                {
                    "name": "C5",
                    "midi": 72,
                    "time": 57.42628500000063,
                    "velocity": 0.4409448818897638,
                    "duration": 0.09539250000000266
                },
                {
                    "name": "B4",
                    "midi": 71,
                    "time": 57.521677500000635,
                    "velocity": 0.3858267716535433,
                    "duration": 0.09539250000000266
                },
                {
                    "name": "C5",
                    "midi": 72,
                    "time": 57.61707000000064,
                    "velocity": 0.3858267716535433,
                    "duration": 0.09539250000000266
                },
                {
                    "name": "C#5",
                    "midi": 73,
                    "time": 57.71246250000064,
                    "velocity": 0.3937007874015748,
                    "duration": 0.09539250000000266
                },
                {
                    "name": "C5",
                    "midi": 72,
                    "time": 57.80785500000064,
                    "velocity": 0.4015748031496063,
                    "duration": 0.09539250000000266
                },
                {
                    "name": "C#5",
                    "midi": 73,
                    "time": 57.903247500000646,
                    "velocity": 0.36220472440944884,
                    "duration": 0.09539250000000266
                },
                {
                    "name": "C5",
                    "midi": 72,
                    "time": 57.99864000000065,
                    "velocity": 0.33070866141732286,
                    "duration": 0.09539250000000266
                },
                {
                    "name": "C#5",
                    "midi": 73,
                    "time": 58.09403250000065,
                    "velocity": 0.30708661417322836,
                    "duration": 0.09539250000000266
                },
                {
                    "name": "C5",
                    "midi": 72,
                    "time": 58.189425000000654,
                    "velocity": 0.2992125984251969,
                    "duration": 0.09539250000000266
                },
                {
                    "name": "C#5",
                    "midi": 73,
                    "time": 58.284817500000656,
                    "velocity": 0.2755905511811024,
                    "duration": 0.09539250000000266
                },
                {
                    "name": "C5",
                    "midi": 72,
                    "time": 58.38021000000066,
                    "velocity": 0.3779527559055118,
                    "duration": 0.10731656250000299
                },
                {
                    "name": "C#5",
                    "midi": 73,
                    "time": 58.47560250000066,
                    "velocity": 0.3228346456692913,
                    "duration": 0.10731656250000299
                },
                {
                    "name": "B4",
                    "midi": 71,
                    "time": 58.570995000000664,
                    "velocity": 0.3228346456692913,
                    "duration": 0.10731656250000299
                },
                {
                    "name": "C5",
                    "midi": 72,
                    "time": 58.66638750000067,
                    "velocity": 0.31496062992125984,
                    "duration": 0.10731656250000299
                },
                {
                    "name": "D#5",
                    "midi": 75,
                    "time": 58.76178000000067,
                    "velocity": 0.3858267716535433,
                    "duration": 0.10731656250000299
                },
                {
                    "name": "C#5",
                    "midi": 73,
                    "time": 58.85717250000067,
                    "velocity": 0.36220472440944884,
                    "duration": 0.09539250000000266
                },
                {
                    "name": "C5",
                    "midi": 72,
                    "time": 58.952565000000675,
                    "velocity": 0.4330708661417323,
                    "duration": 0.10731656250000299
                },
                {
                    "name": "C#5",
                    "midi": 73,
                    "time": 59.04795750000068,
                    "velocity": 0.3779527559055118,
                    "duration": 0.10731656250000299
                },
                {
                    "name": "B4",
                    "midi": 71,
                    "time": 59.14335000000068,
                    "velocity": 0.3779527559055118,
                    "duration": 0.10731656250000299
                },
                {
                    "name": "C5",
                    "midi": 72,
                    "time": 59.23874250000068,
                    "velocity": 0.3779527559055118,
                    "duration": 0.10731656250000299
                },
                {
                    "name": "F#5",
                    "midi": 78,
                    "time": 59.334135000000686,
                    "velocity": 0.4015748031496063,
                    "duration": 0.10731656250000299
                },
                {
                    "name": "G5",
                    "midi": 79,
                    "time": 59.42952750000069,
                    "velocity": 0.3779527559055118,
                    "duration": 0.09539250000000266
                },
                {
                    "name": "C5",
                    "midi": 72,
                    "time": 59.52492000000069,
                    "velocity": 0.44881889763779526,
                    "duration": 0.10731656250000299
                },
                {
                    "name": "C#5",
                    "midi": 73,
                    "time": 59.62031250000069,
                    "velocity": 0.4015748031496063,
                    "duration": 0.10731656250000299
                },
                {
                    "name": "B4",
                    "midi": 71,
                    "time": 59.715705000000696,
                    "velocity": 0.3700787401574803,
                    "duration": 0.10731656250000299
                },
                {
                    "name": "C5",
                    "midi": 72,
                    "time": 59.8110975000007,
                    "velocity": 0.3858267716535433,
                    "duration": 0.10731656250000299
                },
                {
                    "name": "D#5",
                    "midi": 75,
                    "time": 59.9064900000007,
                    "velocity": 0.4094488188976378,
                    "duration": 0.10731656250000299
                },
                {
                    "name": "C#5",
                    "midi": 73,
                    "time": 60.001882500000704,
                    "velocity": 0.3858267716535433,
                    "duration": 0.09539250000000266
                },
                {
                    "name": "C5",
                    "midi": 72,
                    "time": 60.09727500000071,
                    "velocity": 0.4566929133858268,
                    "duration": 0.10731656250000299
                },
                {
                    "name": "C#5",
                    "midi": 73,
                    "time": 60.19266750000071,
                    "velocity": 0.3858267716535433,
                    "duration": 0.10731656250000299
                },
                {
                    "name": "B4",
                    "midi": 71,
                    "time": 60.28806000000071,
                    "velocity": 0.3937007874015748,
                    "duration": 0.10731656250000299
                },
                {
                    "name": "C5",
                    "midi": 72,
                    "time": 60.383452500000715,
                    "velocity": 0.3937007874015748,
                    "duration": 0.10731656250000299
                },
                {
                    "name": "G#5",
                    "midi": 80,
                    "time": 60.47884500000072,
                    "velocity": 0.41732283464566927,
                    "duration": 0.10731656250000299
                },
                {
                    "name": "F5",
                    "midi": 77,
                    "time": 60.57423750000072,
                    "velocity": 0.3858267716535433,
                    "duration": 0.09539250000000266
                },
                {
                    "name": "E5",
                    "midi": 76,
                    "time": 60.66963000000072,
                    "velocity": 0.47244094488188976,
                    "duration": 0.10731656250000299
                },
                {
                    "name": "F5",
                    "midi": 77,
                    "time": 60.765022500000725,
                    "velocity": 0.41732283464566927,
                    "duration": 0.10731656250000299
                },
                {
                    "name": "E5",
                    "midi": 76,
                    "time": 60.86041500000073,
                    "velocity": 0.4330708661417323,
                    "duration": 0.10731656250000299
                },
                {
                    "name": "D#5",
                    "midi": 75,
                    "time": 60.95580750000073,
                    "velocity": 0.4409448818897638,
                    "duration": 0.10731656250000299
                },
                {
                    "name": "E5",
                    "midi": 76,
                    "time": 61.05120000000073,
                    "velocity": 0.44881889763779526,
                    "duration": 0.10731656250000299
                },
                {
                    "name": "G5",
                    "midi": 79,
                    "time": 61.146592500000736,
                    "velocity": 0.47244094488188976,
                    "duration": 0.09539250000000266
                },
                {
                    "name": "A#5",
                    "midi": 82,
                    "time": 61.24198500000074,
                    "velocity": 0.5354330708661418,
                    "duration": 0.10731656250000299
                },
                {
                    "name": "C6",
                    "midi": 84,
                    "time": 61.33737750000074,
                    "velocity": 0.47244094488188976,
                    "duration": 0.10731656250000299
                },
                {
                    "name": "A#5",
                    "midi": 82,
                    "time": 61.432770000000744,
                    "velocity": 0.48031496062992124,
                    "duration": 0.10731656250000299
                },
                {
                    "name": "A5",
                    "midi": 81,
                    "time": 61.52816250000075,
                    "velocity": 0.49606299212598426,
                    "duration": 0.10731656250000299
                },
                {
                    "name": "A#5",
                    "midi": 82,
                    "time": 61.62355500000075,
                    "velocity": 0.4881889763779528,
                    "duration": 0.10731656250000299
                },
                {
                    "name": "C#6",
                    "midi": 85,
                    "time": 61.71894750000075,
                    "velocity": 0.5196850393700787,
                    "duration": 0.09539250000000266
                },
                {
                    "name": "C6",
                    "midi": 84,
                    "time": 61.814340000000755,
                    "velocity": 0.5669291338582677,
                    "duration": 0.10731656250000299
                },
                {
                    "name": "C#6",
                    "midi": 85,
                    "time": 61.90973250000076,
                    "velocity": 0.48031496062992124,
                    "duration": 0.10731656250000299
                },
                {
                    "name": "C6",
                    "midi": 84,
                    "time": 62.00512500000076,
                    "velocity": 0.48031496062992124,
                    "duration": 0.10731656250000299
                },
                {
                    "name": "B5",
                    "midi": 83,
                    "time": 62.10051750000076,
                    "velocity": 0.48031496062992124,
                    "duration": 0.10731656250000299
                },
                {
                    "name": "C6",
                    "midi": 84,
                    "time": 62.195910000000765,
                    "velocity": 0.4881889763779528,
                    "duration": 0.10731656250000299
                },
                {
                    "name": "G5",
                    "midi": 79,
                    "time": 62.29130250000077,
                    "velocity": 0.47244094488188976,
                    "duration": 0.09539250000000266
                },
                {
                    "name": "G#5",
                    "midi": 80,
                    "time": 62.38669500000077,
                    "velocity": 0.5039370078740157,
                    "duration": 0.10731656250000299
                },
                {
                    "name": "A#5",
                    "midi": 82,
                    "time": 62.48208750000077,
                    "velocity": 0.4409448818897638,
                    "duration": 0.10731656250000299
                },
                {
                    "name": "G#5",
                    "midi": 80,
                    "time": 62.577480000000776,
                    "velocity": 0.4409448818897638,
                    "duration": 0.10731656250000299
                },
                {
                    "name": "G5",
                    "midi": 79,
                    "time": 62.67287250000078,
                    "velocity": 0.4409448818897638,
                    "duration": 0.10731656250000299
                },
                {
                    "name": "G#5",
                    "midi": 80,
                    "time": 62.76826500000078,
                    "velocity": 0.44881889763779526,
                    "duration": 0.10731656250000299
                },
                {
                    "name": "E5",
                    "midi": 76,
                    "time": 62.863657500000784,
                    "velocity": 0.4094488188976378,
                    "duration": 0.09539250000000266
                },
                {
                    "name": "F5",
                    "midi": 77,
                    "time": 62.959050000000786,
                    "velocity": 0.47244094488188976,
                    "duration": 0.10731656250000299
                },
                {
                    "name": "G5",
                    "midi": 79,
                    "time": 63.05444250000079,
                    "velocity": 0.4015748031496063,
                    "duration": 0.10731656250000299
                },
                {
                    "name": "F5",
                    "midi": 77,
                    "time": 63.14983500000079,
                    "velocity": 0.4015748031496063,
                    "duration": 0.10731656250000299
                },
                {
                    "name": "E5",
                    "midi": 76,
                    "time": 63.245227500000794,
                    "velocity": 0.4094488188976378,
                    "duration": 0.10731656250000299
                },
                {
                    "name": "F5",
                    "midi": 77,
                    "time": 63.3406200000008,
                    "velocity": 0.4330708661417323,
                    "duration": 0.10731656250000299
                },
                {
                    "name": "C5",
                    "midi": 72,
                    "time": 63.4360125000008,
                    "velocity": 0.3937007874015748,
                    "duration": 0.09539250000000266
                },
                {
                    "name": "C#5",
                    "midi": 73,
                    "time": 63.5314050000008,
                    "velocity": 0.47244094488188976,
                    "duration": 0.10731656250000299
                },
                {
                    "name": "D#5",
                    "midi": 75,
                    "time": 63.626797500000805,
                    "velocity": 0.4015748031496063,
                    "duration": 0.10731656250000299
                },
                {
                    "name": "C#5",
                    "midi": 73,
                    "time": 63.72219000000081,
                    "velocity": 0.4015748031496063,
                    "duration": 0.10731656250000299
                },
                {
                    "name": "C5",
                    "midi": 72,
                    "time": 63.81758250000081,
                    "velocity": 0.4015748031496063,
                    "duration": 0.10731656250000299
                },
                {
                    "name": "C#5",
                    "midi": 73,
                    "time": 63.91297500000081,
                    "velocity": 0.4330708661417323,
                    "duration": 0.10731656250000299
                },
                {
                    "name": "B4",
                    "midi": 71,
                    "time": 64.00836750000082,
                    "velocity": 0.4015748031496063,
                    "duration": 0.09539250000000266
                },
                {
                    "name": "C5",
                    "midi": 72,
                    "time": 64.10376000000082,
                    "velocity": 0.47244094488188976,
                    "duration": 0.10731656250000299
                },
                {
                    "name": "C#5",
                    "midi": 73,
                    "time": 64.19915250000082,
                    "velocity": 0.4094488188976378,
                    "duration": 0.10731656250000299
                },
                {
                    "name": "C5",
                    "midi": 72,
                    "time": 64.29454500000082,
                    "velocity": 0.3779527559055118,
                    "duration": 0.10731656250000299
                },
                {
                    "name": "B4",
                    "midi": 71,
                    "time": 64.38993750000083,
                    "velocity": 0.3779527559055118,
                    "duration": 0.10731656250000299
                },
                {
                    "name": "C5",
                    "midi": 72,
                    "time": 64.48533000000083,
                    "velocity": 0.4330708661417323,
                    "duration": 0.10731656250000299
                },
                {
                    "name": "G4",
                    "midi": 67,
                    "time": 64.58072250000083,
                    "velocity": 0.3937007874015748,
                    "duration": 0.09539250000000266
                },
                {
                    "name": "G#4",
                    "midi": 68,
                    "time": 64.67611500000083,
                    "velocity": 0.44881889763779526,
                    "duration": 0.10731656250000299
                },
                {
                    "name": "A#4",
                    "midi": 70,
                    "time": 64.77150750000084,
                    "velocity": 0.3858267716535433,
                    "duration": 0.10731656250000299
                },
                {
                    "name": "G#4",
                    "midi": 68,
                    "time": 64.86690000000084,
                    "velocity": 0.3779527559055118,
                    "duration": 0.10731656250000299
                },
                {
                    "name": "G4",
                    "midi": 67,
                    "time": 64.96229250000084,
                    "velocity": 0.36220472440944884,
                    "duration": 0.10731656250000299
                },
                {
                    "name": "G#4",
                    "midi": 68,
                    "time": 65.05768500000084,
                    "velocity": 0.4330708661417323,
                    "duration": 0.10731656250000299
                },
                {
                    "name": "F4",
                    "midi": 65,
                    "time": 65.15307750000085,
                    "velocity": 0.36220472440944884,
                    "duration": 0.09539250000000266
                },
                {
                    "name": "E4",
                    "midi": 64,
                    "time": 65.24847000000085,
                    "velocity": 0.47244094488188976,
                    "duration": 0.10731656250000299
                },
                {
                    "name": "G4",
                    "midi": 67,
                    "time": 65.34386250000085,
                    "velocity": 0.4330708661417323,
                    "duration": 0.10731656250000299
                },
                {
                    "name": "A#4",
                    "midi": 70,
                    "time": 65.43925500000086,
                    "velocity": 0.4409448818897638,
                    "duration": 0.10731656250000299
                },
                {
                    "name": "C#5",
                    "midi": 73,
                    "time": 65.53464750000086,
                    "velocity": 0.4566929133858268,
                    "duration": 0.10731656250000299
                },
                {
                    "name": "E5",
                    "midi": 76,
                    "time": 65.63004000000086,
                    "velocity": 0.47244094488188976,
                    "duration": 0.10731656250000299
                },
                {
                    "name": "G5",
                    "midi": 79,
                    "time": 65.72543250000086,
                    "velocity": 0.48031496062992124,
                    "duration": 0.09539250000000266
                },
                {
                    "name": "A#5",
                    "midi": 82,
                    "time": 65.82082500000087,
                    "velocity": 0.5511811023622047,
                    "duration": 0.07154437500000199
                },
                {
                    "name": "C#6",
                    "midi": 85,
                    "time": 65.91621750000087,
                    "velocity": 0.47244094488188976,
                    "duration": 0.07154437500000199
                },
                {
                    "name": "C6",
                    "midi": 84,
                    "time": 66.01161000000087,
                    "velocity": 0.48031496062992124,
                    "duration": 0.07154437500000199
                },
                {
                    "name": "A#5",
                    "midi": 82,
                    "time": 66.10700250000087,
                    "velocity": 0.4881889763779528,
                    "duration": 0.07154437500000199
                },
                {
                    "name": "G#5",
                    "midi": 80,
                    "time": 66.20239500000088,
                    "velocity": 0.48031496062992124,
                    "duration": 0.07154437500000199
                },
                {
                    "name": "G5",
                    "midi": 79,
                    "time": 66.29778750000088,
                    "velocity": 0.4881889763779528,
                    "duration": 0.07154437500000199
                },
                {
                    "name": "A#5",
                    "midi": 82,
                    "time": 66.39318000000088,
                    "velocity": 0.5433070866141733,
                    "duration": 0.10731656250000299
                },
                {
                    "name": "C6",
                    "midi": 84,
                    "time": 66.48857250000088,
                    "velocity": 0.5275590551181102,
                    "duration": 0.10731656250000299
                },
                {
                    "name": "G#5",
                    "midi": 80,
                    "time": 66.58396500000089,
                    "velocity": 0.5039370078740157,
                    "duration": 0.10731656250000299
                },
                {
                    "name": "G5",
                    "midi": 79,
                    "time": 66.67935750000089,
                    "velocity": 0.5196850393700787,
                    "duration": 0.10731656250000299
                },
                {
                    "name": "G#5",
                    "midi": 80,
                    "time": 66.77475000000089,
                    "velocity": 0.48031496062992124,
                    "duration": 0.10731656250000299
                },
                {
                    "name": "F5",
                    "midi": 77,
                    "time": 66.8701425000009,
                    "velocity": 0.44881889763779526,
                    "duration": 0.09539250000000266
                },
                {
                    "name": "E5",
                    "midi": 76,
                    "time": 66.9655350000009,
                    "velocity": 0.5039370078740157,
                    "duration": 0.10731656250000299
                },
                {
                    "name": "G5",
                    "midi": 79,
                    "time": 67.0609275000009,
                    "velocity": 0.4094488188976378,
                    "duration": 0.10731656250000299
                },
                {
                    "name": "F5",
                    "midi": 77,
                    "time": 67.1563200000009,
                    "velocity": 0.4015748031496063,
                    "duration": 0.10731656250000299
                },
                {
                    "name": "E5",
                    "midi": 76,
                    "time": 67.2517125000009,
                    "velocity": 0.4094488188976378,
                    "duration": 0.10731656250000299
                },
                {
                    "name": "F5",
                    "midi": 77,
                    "time": 67.34710500000091,
                    "velocity": 0.4094488188976378,
                    "duration": 0.10731656250000299
                },
                {
                    "name": "C#5",
                    "midi": 73,
                    "time": 67.44249750000091,
                    "velocity": 0.3937007874015748,
                    "duration": 0.09539250000000266
                },
                {
                    "name": "C5",
                    "midi": 72,
                    "time": 67.53789000000091,
                    "velocity": 0.47244094488188976,
                    "duration": 0.10731656250000299
                },
                {
                    "name": "C#5",
                    "midi": 73,
                    "time": 67.63328250000092,
                    "velocity": 0.3858267716535433,
                    "duration": 0.10731656250000299
                },
                {
                    "name": "B4",
                    "midi": 71,
                    "time": 67.72867500000092,
                    "velocity": 0.3858267716535433,
                    "duration": 0.10731656250000299
                },
                {
                    "name": "C5",
                    "midi": 72,
                    "time": 67.82406750000092,
                    "velocity": 0.3858267716535433,
                    "duration": 0.10731656250000299
                },
                {
                    "name": "D#5",
                    "midi": 75,
                    "time": 67.91946000000092,
                    "velocity": 0.4330708661417323,
                    "duration": 0.10731656250000299
                },
                {
                    "name": "C#5",
                    "midi": 73,
                    "time": 68.01485250000093,
                    "velocity": 0.3858267716535433,
                    "duration": 0.09539250000000266
                },
                {
                    "name": "C5",
                    "midi": 72,
                    "time": 68.11024500000093,
                    "velocity": 0.47244094488188976,
                    "duration": 0.10731656250000299
                },
                {
                    "name": "C#5",
                    "midi": 73,
                    "time": 68.20563750000093,
                    "velocity": 0.3937007874015748,
                    "duration": 0.10731656250000299
                },
                {
                    "name": "B4",
                    "midi": 71,
                    "time": 68.30103000000094,
                    "velocity": 0.3937007874015748,
                    "duration": 0.10731656250000299
                },
                {
                    "name": "C5",
                    "midi": 72,
                    "time": 68.39642250000094,
                    "velocity": 0.3937007874015748,
                    "duration": 0.10731656250000299
                },
                {
                    "name": "F#5",
                    "midi": 78,
                    "time": 68.49181500000094,
                    "velocity": 0.4330708661417323,
                    "duration": 0.10731656250000299
                },
                {
                    "name": "G5",
                    "midi": 79,
                    "time": 68.58720750000094,
                    "velocity": 0.3858267716535433,
                    "duration": 0.09539250000000266
                },
                {
                    "name": "C5",
                    "midi": 72,
                    "time": 68.68260000000095,
                    "velocity": 0.47244094488188976,
                    "duration": 0.10731656250000299
                },
                {
                    "name": "C#5",
                    "midi": 73,
                    "time": 68.77799250000095,
                    "velocity": 0.3858267716535433,
                    "duration": 0.10731656250000299
                },
                {
                    "name": "B4",
                    "midi": 71,
                    "time": 68.87338500000095,
                    "velocity": 0.3858267716535433,
                    "duration": 0.10731656250000299
                },
                {
                    "name": "C5",
                    "midi": 72,
                    "time": 68.96877750000095,
                    "velocity": 0.3858267716535433,
                    "duration": 0.10731656250000299
                },
                {
                    "name": "D#5",
                    "midi": 75,
                    "time": 69.06417000000096,
                    "velocity": 0.4330708661417323,
                    "duration": 0.10731656250000299
                },
                {
                    "name": "C#5",
                    "midi": 73,
                    "time": 69.15956250000096,
                    "velocity": 0.3858267716535433,
                    "duration": 0.09539250000000266
                },
                {
                    "name": "C5",
                    "midi": 72,
                    "time": 69.25495500000096,
                    "velocity": 0.44881889763779526,
                    "duration": 0.10731656250000299
                },
                {
                    "name": "C#5",
                    "midi": 73,
                    "time": 69.35034750000096,
                    "velocity": 0.3937007874015748,
                    "duration": 0.10731656250000299
                },
                {
                    "name": "B4",
                    "midi": 71,
                    "time": 69.44574000000097,
                    "velocity": 0.3937007874015748,
                    "duration": 0.10731656250000299
                },
                {
                    "name": "C5",
                    "midi": 72,
                    "time": 69.54113250000097,
                    "velocity": 0.3937007874015748,
                    "duration": 0.10731656250000299
                },
                {
                    "name": "G#5",
                    "midi": 80,
                    "time": 69.63652500000097,
                    "velocity": 0.4330708661417323,
                    "duration": 0.10731656250000299
                },
                {
                    "name": "F5",
                    "midi": 77,
                    "time": 69.73191750000097,
                    "velocity": 0.4015748031496063,
                    "duration": 0.09539250000000266
                },
                {
                    "name": "E5",
                    "midi": 76,
                    "time": 69.82731000000098,
                    "velocity": 0.47244094488188976,
                    "duration": 0.10731656250000299
                },
                {
                    "name": "F5",
                    "midi": 77,
                    "time": 69.92270250000098,
                    "velocity": 0.41732283464566927,
                    "duration": 0.10731656250000299
                },
                {
                    "name": "E5",
                    "midi": 76,
                    "time": 70.01809500000098,
                    "velocity": 0.4409448818897638,
                    "duration": 0.10731656250000299
                },
                {
                    "name": "D#5",
                    "midi": 75,
                    "time": 70.11348750000099,
                    "velocity": 0.44881889763779526,
                    "duration": 0.10731656250000299
                },
                {
                    "name": "E5",
                    "midi": 76,
                    "time": 70.20888000000099,
                    "velocity": 0.47244094488188976,
                    "duration": 0.10731656250000299
                },
                {
                    "name": "G5",
                    "midi": 79,
                    "time": 70.30427250000099,
                    "velocity": 0.4881889763779528,
                    "duration": 0.09539250000000266
                },
                {
                    "name": "A#5",
                    "midi": 82,
                    "time": 70.399665000001,
                    "velocity": 0.5511811023622047,
                    "duration": 0.10731656250000299
                },
                {
                    "name": "C6",
                    "midi": 84,
                    "time": 70.495057500001,
                    "velocity": 0.4881889763779528,
                    "duration": 0.10731656250000299
                },
                {
                    "name": "A#5",
                    "midi": 82,
                    "time": 70.590450000001,
                    "velocity": 0.5039370078740157,
                    "duration": 0.10731656250000299
                },
                {
                    "name": "A5",
                    "midi": 81,
                    "time": 70.685842500001,
                    "velocity": 0.5196850393700787,
                    "duration": 0.10731656250000299
                },
                {
                    "name": "A#5",
                    "midi": 82,
                    "time": 70.781235000001,
                    "velocity": 0.5039370078740157,
                    "duration": 0.10731656250000299
                },
                {
                    "name": "C#6",
                    "midi": 85,
                    "time": 70.876627500001,
                    "velocity": 0.5196850393700787,
                    "duration": 0.09539250000000266
                },
                {
                    "name": "C6",
                    "midi": 84,
                    "time": 70.97202000000101,
                    "velocity": 0.6062992125984252,
                    "duration": 0.10731656250000299
                },
                {
                    "name": "G#6",
                    "midi": 92,
                    "time": 71.06741250000101,
                    "velocity": 0.5354330708661418,
                    "duration": 0.10731656250000299
                },
                {
                    "name": "G6",
                    "midi": 91,
                    "time": 71.16280500000101,
                    "velocity": 0.5275590551181102,
                    "duration": 0.10731656250000299
                },
                {
                    "name": "F#6",
                    "midi": 90,
                    "time": 71.25819750000102,
                    "velocity": 0.5511811023622047,
                    "duration": 0.10731656250000299
                },
                {
                    "name": "F6",
                    "midi": 89,
                    "time": 71.35359000000102,
                    "velocity": 0.5275590551181102,
                    "duration": 0.10731656250000299
                },
                {
                    "name": "E6",
                    "midi": 88,
                    "time": 71.44898250000102,
                    "velocity": 0.5039370078740157,
                    "duration": 0.09539250000000266
                },
                {
                    "name": "D#6",
                    "midi": 87,
                    "time": 71.54437500000103,
                    "velocity": 0.5433070866141733,
                    "duration": 0.10731656250000299
                },
                {
                    "name": "D6",
                    "midi": 86,
                    "time": 71.63976750000103,
                    "velocity": 0.48031496062992124,
                    "duration": 0.10731656250000299
                },
                {
                    "name": "C#6",
                    "midi": 85,
                    "time": 71.73516000000103,
                    "velocity": 0.48031496062992124,
                    "duration": 0.10731656250000299
                },
                {
                    "name": "C6",
                    "midi": 84,
                    "time": 71.83055250000103,
                    "velocity": 0.48031496062992124,
                    "duration": 0.10731656250000299
                },
                {
                    "name": "B5",
                    "midi": 83,
                    "time": 71.92594500000104,
                    "velocity": 0.48031496062992124,
                    "duration": 0.10731656250000299
                },
                {
                    "name": "A#5",
                    "midi": 82,
                    "time": 72.02133750000104,
                    "velocity": 0.47244094488188976,
                    "duration": 0.09539250000000266
                },
                {
                    "name": "A5",
                    "midi": 81,
                    "time": 72.11673000000104,
                    "velocity": 0.48031496062992124,
                    "duration": 0.10731656250000299
                },
                {
                    "name": "G#5",
                    "midi": 80,
                    "time": 72.21212250000104,
                    "velocity": 0.4409448818897638,
                    "duration": 0.10731656250000299
                },
                {
                    "name": "G5",
                    "midi": 79,
                    "time": 72.30751500000105,
                    "velocity": 0.4409448818897638,
                    "duration": 0.10731656250000299
                },
                {
                    "name": "F6",
                    "midi": 89,
                    "time": 72.40290750000105,
                    "velocity": 0.4645669291338583,
                    "duration": 0.10731656250000299
                },
                {
                    "name": "C#6",
                    "midi": 85,
                    "time": 72.49830000000105,
                    "velocity": 0.44881889763779526,
                    "duration": 0.10731656250000299
                },
                {
                    "name": "A#5",
                    "midi": 82,
                    "time": 72.59369250000105,
                    "velocity": 0.4409448818897638,
                    "duration": 0.09539250000000266
                },
                {
                    "name": "G5",
                    "midi": 79,
                    "time": 72.68908500000106,
                    "velocity": 0.44881889763779526,
                    "duration": 0.10731656250000299
                },
                {
                    "name": "F5",
                    "midi": 77,
                    "time": 72.78447750000106,
                    "velocity": 0.4094488188976378,
                    "duration": 0.10731656250000299
                },
                {
                    "name": "C#5",
                    "midi": 73,
                    "time": 72.87987000000106,
                    "velocity": 0.4094488188976378,
                    "duration": 0.10731656250000299
                },
                {
                    "name": "A#4",
                    "midi": 70,
                    "time": 72.97526250000107,
                    "velocity": 0.4094488188976378,
                    "duration": 0.10731656250000299
                },
                {
                    "name": "G4",
                    "midi": 67,
                    "time": 73.07065500000107,
                    "velocity": 0.41732283464566927,
                    "duration": 0.10731656250000299
                },
                {
                    "name": "C#5",
                    "midi": 73,
                    "time": 73.16604750000107,
                    "velocity": 0.4094488188976378,
                    "duration": 0.09539250000000266
                },
                {
                    "name": "C5",
                    "midi": 72,
                    "time": 73.26144000000107,
                    "velocity": 0.47244094488188976,
                    "duration": 0.10731656250000299
                },
                {
                    "name": "C#5",
                    "midi": 73,
                    "time": 73.35683250000108,
                    "velocity": 0.4330708661417323,
                    "duration": 0.10731656250000299
                },
                {
                    "name": "B4",
                    "midi": 71,
                    "time": 73.45222500000108,
                    "velocity": 0.4094488188976378,
                    "duration": 0.10731656250000299
                },
                {
                    "name": "C5",
                    "midi": 72,
                    "time": 73.54761750000108,
                    "velocity": 0.4330708661417323,
                    "duration": 0.10731656250000299
                },
                {
                    "name": "G#4",
                    "midi": 68,
                    "time": 73.64301000000108,
                    "velocity": 0.4409448818897638,
                    "duration": 0.10731656250000299
                },
                {
                    "name": "A#4",
                    "midi": 70,
                    "time": 73.73840250000109,
                    "velocity": 0.4330708661417323,
                    "duration": 0.09539250000000266
                },
                {
                    "name": "C5",
                    "midi": 72,
                    "time": 73.83379500000109,
                    "velocity": 0.4645669291338583,
                    "duration": 0.10731656250000299
                },
                {
                    "name": "C#5",
                    "midi": 73,
                    "time": 73.92918750000109,
                    "velocity": 0.4330708661417323,
                    "duration": 0.10731656250000299
                },
                {
                    "name": "C5",
                    "midi": 72,
                    "time": 74.0245800000011,
                    "velocity": 0.41732283464566927,
                    "duration": 0.10731656250000299
                },
                {
                    "name": "C#5",
                    "midi": 73,
                    "time": 74.1199725000011,
                    "velocity": 0.4330708661417323,
                    "duration": 0.10731656250000299
                },
                {
                    "name": "F5",
                    "midi": 77,
                    "time": 74.2153650000011,
                    "velocity": 0.4566929133858268,
                    "duration": 0.10731656250000299
                },
                {
                    "name": "D#5",
                    "midi": 75,
                    "time": 74.3107575000011,
                    "velocity": 0.4094488188976378,
                    "duration": 0.09539250000000266
                },
                {
                    "name": "C5",
                    "midi": 72,
                    "time": 74.4061500000011,
                    "velocity": 0.47244094488188976,
                    "duration": 0.10731656250000299
                },
                {
                    "name": "C#5",
                    "midi": 73,
                    "time": 74.50154250000111,
                    "velocity": 0.3937007874015748,
                    "duration": 0.10731656250000299
                },
                {
                    "name": "A#4",
                    "midi": 70,
                    "time": 74.59693500000111,
                    "velocity": 0.3937007874015748,
                    "duration": 0.10731656250000299
                },
                {
                    "name": "C5",
                    "midi": 72,
                    "time": 74.69232750000111,
                    "velocity": 0.4015748031496063,
                    "duration": 0.10731656250000299
                },
                {
                    "name": "D#5",
                    "midi": 75,
                    "time": 74.78772000000112,
                    "velocity": 0.44881889763779526,
                    "duration": 0.10731656250000299
                },
                {
                    "name": "C#5",
                    "midi": 73,
                    "time": 74.88311250000112,
                    "velocity": 0.41732283464566927,
                    "duration": 0.09539250000000266
                },
                {
                    "name": "A#4",
                    "midi": 70,
                    "time": 74.97850500000112,
                    "velocity": 0.4645669291338583,
                    "duration": 0.10731656250000299
                },
                {
                    "name": "C5",
                    "midi": 72,
                    "time": 75.07389750000112,
                    "velocity": 0.36220472440944884,
                    "duration": 0.10731656250000299
                },
                {
                    "name": "G#4",
                    "midi": 68,
                    "time": 75.16929000000113,
                    "velocity": 0.36220472440944884,
                    "duration": 0.10731656250000299
                },
                {
                    "name": "A#4",
                    "midi": 70,
                    "time": 75.26468250000113,
                    "velocity": 0.3858267716535433,
                    "duration": 0.10731656250000299
                },
                {
                    "name": "C#5",
                    "midi": 73,
                    "time": 75.36007500000113,
                    "velocity": 0.4015748031496063,
                    "duration": 0.10731656250000299
                },
                {
                    "name": "C5",
                    "midi": 72,
                    "time": 75.45546750000113,
                    "velocity": 0.3700787401574803,
                    "duration": 0.09539250000000266
                },
                {
                    "name": "F4",
                    "midi": 65,
                    "time": 75.55086000000114,
                    "velocity": 0.47244094488188976,
                    "duration": 0.10731656250000299
                },
                {
                    "name": "C6",
                    "midi": 84,
                    "time": 75.64625250000114,
                    "velocity": 0.41732283464566927,
                    "duration": 0.10731656250000299
                },
                {
                    "name": "A#5",
                    "midi": 82,
                    "time": 75.74164500000114,
                    "velocity": 0.4094488188976378,
                    "duration": 0.10731656250000299
                },
                {
                    "name": "G#5",
                    "midi": 80,
                    "time": 75.83703750000114,
                    "velocity": 0.4015748031496063,
                    "duration": 0.10731656250000299
                },
                {
                    "name": "G5",
                    "midi": 79,
                    "time": 75.93243000000115,
                    "velocity": 0.3937007874015748,
                    "duration": 0.10731656250000299
                },
                {
                    "name": "F5",
                    "midi": 77,
                    "time": 76.02782250000115,
                    "velocity": 0.3858267716535433,
                    "duration": 0.09539250000000266
                },
                {
                    "name": "D#5",
                    "midi": 75,
                    "time": 76.12321500000115,
                    "velocity": 0.4094488188976378,
                    "duration": 0.10731656250000299
                },
                {
                    "name": "C#5",
                    "midi": 73,
                    "time": 76.21860750000116,
                    "velocity": 0.3464566929133858,
                    "duration": 0.10731656250000299
                },
                {
                    "name": "C5",
                    "midi": 72,
                    "time": 76.31400000000116,
                    "velocity": 0.3228346456692913,
                    "duration": 0.10731656250000299
                },
                {
                    "name": "A#4",
                    "midi": 70,
                    "time": 76.40939250000116,
                    "velocity": 0.30708661417322836,
                    "duration": 0.10731656250000299
                },
                {
                    "name": "C5",
                    "midi": 72,
                    "time": 76.50478500000116,
                    "velocity": 0.29133858267716534,
                    "duration": 0.10731656250000299
                },
                {
                    "name": "C#5",
                    "midi": 73,
                    "time": 76.60017750000117,
                    "velocity": 0.2755905511811024,
                    "duration": 0.09539250000000266
                },
                {
                    "name": "F4",
                    "midi": 65,
                    "time": 76.69557000000117,
                    "velocity": 0.4330708661417323,
                    "duration": 0.10731656250000299
                },
                {
                    "name": "C6",
                    "midi": 84,
                    "time": 76.79096250000117,
                    "velocity": 0.4015748031496063,
                    "duration": 0.10731656250000299
                },
                {
                    "name": "A#5",
                    "midi": 82,
                    "time": 76.88635500000117,
                    "velocity": 0.4015748031496063,
                    "duration": 0.10731656250000299
                },
                {
                    "name": "G#5",
                    "midi": 80,
                    "time": 76.98174750000118,
                    "velocity": 0.3937007874015748,
                    "duration": 0.10731656250000299
                },
                {
                    "name": "G5",
                    "midi": 79,
                    "time": 77.07714000000118,
                    "velocity": 0.3858267716535433,
                    "duration": 0.10731656250000299
                },
                {
                    "name": "F5",
                    "midi": 77,
                    "time": 77.17253250000118,
                    "velocity": 0.3779527559055118,
                    "duration": 0.09539250000000266
                },
                {
                    "name": "D#5",
                    "midi": 75,
                    "time": 77.26792500000118,
                    "velocity": 0.33070866141732286,
                    "duration": 0.10731656250000299
                },
                {
                    "name": "C#5",
                    "midi": 73,
                    "time": 77.36331750000119,
                    "velocity": 0.3228346456692913,
                    "duration": 0.10731656250000299
                },
                {
                    "name": "C5",
                    "midi": 72,
                    "time": 77.45871000000119,
                    "velocity": 0.30708661417322836,
                    "duration": 0.10731656250000299
                },
                {
                    "name": "A#4",
                    "midi": 70,
                    "time": 77.55410250000119,
                    "velocity": 0.31496062992125984,
                    "duration": 0.10731656250000299
                },
                {
                    "name": "C5",
                    "midi": 72,
                    "time": 77.6494950000012,
                    "velocity": 0.31496062992125984,
                    "duration": 0.10731656250000299
                },
                {
                    "name": "D#5",
                    "midi": 75,
                    "time": 77.7448875000012,
                    "velocity": 0.3937007874015748,
                    "duration": 0.09539250000000266
                },
                {
                    "name": "C#5",
                    "midi": 73,
                    "time": 77.8402800000012,
                    "velocity": 0.36220472440944884,
                    "duration": 0.14308875000000398
                },
                {
                    "name": "C5",
                    "midi": 72,
                    "time": 77.9833687500012,
                    "velocity": 0.3464566929133858,
                    "duration": 0.14308875000000398
                },
                {
                    "name": "F4",
                    "midi": 65,
                    "time": 78.26954625000121,
                    "velocity": 0.31496062992125984,
                    "duration": 2.1463312499999887
                },
                {
                    "name": "G#4",
                    "midi": 68,
                    "time": 78.34109062500121,
                    "velocity": 0.31496062992125984,
                    "duration": 2.0747868749999867
                },
                {
                    "name": "C5",
                    "midi": 72,
                    "time": 78.41263500000122,
                    "velocity": 0.4330708661417323,
                    "duration": 0.28617749999999376
                },
                {
                    "name": "C5",
                    "midi": 72,
                    "time": 78.69881250000121,
                    "velocity": 0.3464566929133858,
                    "duration": 0.28617749999999376
                },
                {
                    "name": "C5",
                    "midi": 72,
                    "time": 78.9849900000012,
                    "velocity": 0.3228346456692913,
                    "duration": 0.28617749999999376
                },
                {
                    "name": "C5",
                    "midi": 72,
                    "time": 79.2711675000012,
                    "velocity": 0.31496062992125984,
                    "duration": 1.1447100000000034
                }
            ],
            "controlChanges": {
                "7": [
                    {
                        "number": 7,
                        "time": 0,
                        "value": 0.7874015748031497
                    }
                ],
                "10": [
                    {
                        "number": 10,
                        "time": 0,
                        "value": 0.5039370078740157
                    }
                ],
                "91": [
                    {
                        "number": 91,
                        "time": 0,
                        "value": 1
                    }
                ]
            },
            "id": 1,
            "name": "Piano right",
            "instrumentNumber": 0,
            "instrument": "acoustic grand piano",
            "instrumentFamily": "piano",
            "channelNumber": 0,
            "isPercussion": false
        },
        {
            "startTime": 1.1447100000000001,
            "duration": 80.41587750000015,
            "length": 390,
            "notes": [
                {
                    "name": "E3",
                    "midi": 52,
                    "time": 1.1447100000000001,
                    "velocity": 0.30708661417322836,
                    "duration": 0.2027090625000001
                },
                {
                    "name": "G4",
                    "midi": 67,
                    "time": 1.335495,
                    "velocity": 0.2440944881889764,
                    "duration": 0.20270906250000031
                },
                {
                    "name": "C4",
                    "midi": 60,
                    "time": 1.5262800000000003,
                    "velocity": 0.2125984251968504,
                    "duration": 0.1907850000000002
                },
                {
                    "name": "A#3",
                    "midi": 58,
                    "time": 1.7170650000000005,
                    "velocity": 0.30708661417322836,
                    "duration": 0.2027090625000001
                },
                {
                    "name": "G4",
                    "midi": 67,
                    "time": 1.9078500000000005,
                    "velocity": 0.25984251968503935,
                    "duration": 0.2027090625000001
                },
                {
                    "name": "C4",
                    "midi": 60,
                    "time": 2.0986350000000007,
                    "velocity": 0.2283464566929134,
                    "duration": 0.19078499999999998
                },
                {
                    "name": "F3",
                    "midi": 53,
                    "time": 2.2894200000000007,
                    "velocity": 0.3228346456692913,
                    "duration": 0.20270906249999987
                },
                {
                    "name": "G#4",
                    "midi": 68,
                    "time": 2.4802050000000007,
                    "velocity": 0.29133858267716534,
                    "duration": 0.20270906249999987
                },
                {
                    "name": "C4",
                    "midi": 60,
                    "time": 2.6709900000000006,
                    "velocity": 0.2755905511811024,
                    "duration": 0.19078499999999998
                },
                {
                    "name": "G#3",
                    "midi": 56,
                    "time": 2.8617750000000006,
                    "velocity": 0.3464566929133858,
                    "duration": 0.20270906249999987
                },
                {
                    "name": "G#4",
                    "midi": 68,
                    "time": 3.0525600000000006,
                    "velocity": 0.2992125984251969,
                    "duration": 0.20270906249999987
                },
                {
                    "name": "C4",
                    "midi": 60,
                    "time": 3.2433450000000006,
                    "velocity": 0.28346456692913385,
                    "duration": 0.19078499999999998
                },
                {
                    "name": "G3",
                    "midi": 55,
                    "time": 3.4341300000000006,
                    "velocity": 0.3779527559055118,
                    "duration": 0.20270906249999987
                },
                {
                    "name": "A#4",
                    "midi": 70,
                    "time": 3.6249150000000006,
                    "velocity": 0.30708661417322836,
                    "duration": 0.20270906249999987
                },
                {
                    "name": "E4",
                    "midi": 64,
                    "time": 3.8157000000000005,
                    "velocity": 0.28346456692913385,
                    "duration": 0.19078499999999998
                },
                {
                    "name": "C#4",
                    "midi": 61,
                    "time": 4.0064850000000005,
                    "velocity": 0.3858267716535433,
                    "duration": 0.20270906250000031
                },
                {
                    "name": "A#4",
                    "midi": 70,
                    "time": 4.1972700000000005,
                    "velocity": 0.3464566929133858,
                    "duration": 0.20270906250000031
                },
                {
                    "name": "E4",
                    "midi": 64,
                    "time": 4.3880550000000005,
                    "velocity": 0.30708661417322836,
                    "duration": 0.19078499999999998
                },
                {
                    "name": "G#3",
                    "midi": 56,
                    "time": 4.5788400000000005,
                    "velocity": 0.4330708661417323,
                    "duration": 0.20270906250000031
                },
                {
                    "name": "G#4",
                    "midi": 68,
                    "time": 4.7696250000000004,
                    "velocity": 0.3543307086614173,
                    "duration": 0.20270906250000031
                },
                {
                    "name": "F4",
                    "midi": 65,
                    "time": 4.96041,
                    "velocity": 0.3464566929133858,
                    "duration": 0.19078499999999998
                },
                {
                    "name": "C4",
                    "midi": 60,
                    "time": 5.151195,
                    "velocity": 0.3937007874015748,
                    "duration": 0.20270906250000031
                },
                {
                    "name": "G#4",
                    "midi": 68,
                    "time": 5.34198,
                    "velocity": 0.31496062992125984,
                    "duration": 0.20270906250000031
                },
                {
                    "name": "F4",
                    "midi": 65,
                    "time": 5.532765,
                    "velocity": 0.31496062992125984,
                    "duration": 0.19078499999999998
                },
                {
                    "name": "A#2",
                    "midi": 46,
                    "time": 5.72355,
                    "velocity": 0.3779527559055118,
                    "duration": 0.20270906250000031
                },
                {
                    "name": "C#4",
                    "midi": 61,
                    "time": 5.914335,
                    "velocity": 0.29133858267716534,
                    "duration": 0.20270906250000031
                },
                {
                    "name": "G3",
                    "midi": 55,
                    "time": 6.10512,
                    "velocity": 0.28346456692913385,
                    "duration": 0.19078499999999998
                },
                {
                    "name": "F3",
                    "midi": 53,
                    "time": 6.295905,
                    "velocity": 0.3779527559055118,
                    "duration": 0.20270906250000031
                },
                {
                    "name": "C#4",
                    "midi": 61,
                    "time": 6.48669,
                    "velocity": 0.29133858267716534,
                    "duration": 0.20270906250000031
                },
                {
                    "name": "G3",
                    "midi": 55,
                    "time": 6.677475,
                    "velocity": 0.2755905511811024,
                    "duration": 0.19078499999999998
                },
                {
                    "name": "C3",
                    "midi": 48,
                    "time": 6.86826,
                    "velocity": 0.3779527559055118,
                    "duration": 0.20270906250000031
                },
                {
                    "name": "C4",
                    "midi": 60,
                    "time": 7.059045,
                    "velocity": 0.29133858267716534,
                    "duration": 0.20270906250000031
                },
                {
                    "name": "G#3",
                    "midi": 56,
                    "time": 7.24983,
                    "velocity": 0.29133858267716534,
                    "duration": 0.19078499999999998
                },
                {
                    "name": "F3",
                    "midi": 53,
                    "time": 7.440615,
                    "velocity": 0.3779527559055118,
                    "duration": 0.20270906250000031
                },
                {
                    "name": "C4",
                    "midi": 60,
                    "time": 7.6314,
                    "velocity": 0.30708661417322836,
                    "duration": 0.20270906250000031
                },
                {
                    "name": "G#3",
                    "midi": 56,
                    "time": 7.822185,
                    "velocity": 0.30708661417322836,
                    "duration": 0.19078500000000087
                },
                {
                    "name": "C3",
                    "midi": 48,
                    "time": 8.012970000000001,
                    "velocity": 0.3779527559055118,
                    "duration": 0.20270906250000031
                },
                {
                    "name": "E4",
                    "midi": 64,
                    "time": 8.203755000000001,
                    "velocity": 0.30708661417322836,
                    "duration": 0.20270906250000031
                },
                {
                    "name": "C4",
                    "midi": 60,
                    "time": 8.394540000000001,
                    "velocity": 0.31496062992125984,
                    "duration": 0.19078499999999998
                },
                {
                    "name": "G3",
                    "midi": 55,
                    "time": 8.585325000000001,
                    "velocity": 0.3858267716535433,
                    "duration": 0.2027090625000021
                },
                {
                    "name": "E4",
                    "midi": 64,
                    "time": 8.776110000000003,
                    "velocity": 0.3464566929133858,
                    "duration": 0.20270906250000031
                },
                {
                    "name": "A#3",
                    "midi": 58,
                    "time": 8.966895000000003,
                    "velocity": 0.3543307086614173,
                    "duration": 0.19078499999999998
                },
                {
                    "name": "F3",
                    "midi": 53,
                    "time": 9.157680000000003,
                    "velocity": 0.4330708661417323,
                    "duration": 0.20270906250000031
                },
                {
                    "name": "F4",
                    "midi": 65,
                    "time": 9.348465000000003,
                    "velocity": 0.33070866141732286,
                    "duration": 0.20270906250000031
                },
                {
                    "name": "C4",
                    "midi": 60,
                    "time": 9.539250000000003,
                    "velocity": 0.2755905511811024,
                    "duration": 0.19078499999999998
                },
                {
                    "name": "G#3",
                    "midi": 56,
                    "time": 9.730035000000003,
                    "velocity": 0.30708661417322836,
                    "duration": 0.20270906250000031
                },
                {
                    "name": "F4",
                    "midi": 65,
                    "time": 9.920820000000003,
                    "velocity": 0.2755905511811024,
                    "duration": 0.20270906250000031
                },
                {
                    "name": "C#4",
                    "midi": 61,
                    "time": 10.111605000000003,
                    "velocity": 0.23622047244094488,
                    "duration": 0.19078499999999998
                },
                {
                    "name": "E3",
                    "midi": 52,
                    "time": 10.302390000000003,
                    "velocity": 0.29133858267716534,
                    "duration": 0.20270906250000031
                },
                {
                    "name": "G4",
                    "midi": 67,
                    "time": 10.493175000000003,
                    "velocity": 0.25984251968503935,
                    "duration": 0.20270906250000031
                },
                {
                    "name": "C4",
                    "midi": 60,
                    "time": 10.683960000000003,
                    "velocity": 0.2283464566929134,
                    "duration": 0.19078499999999998
                },
                {
                    "name": "A#3",
                    "midi": 58,
                    "time": 10.874745000000003,
                    "velocity": 0.30708661417322836,
                    "duration": 0.20270906250000031
                },
                {
                    "name": "G4",
                    "midi": 67,
                    "time": 11.065530000000003,
                    "velocity": 0.2677165354330709,
                    "duration": 0.20270906250000031
                },
                {
                    "name": "C4",
                    "midi": 60,
                    "time": 11.256315000000003,
                    "velocity": 0.2440944881889764,
                    "duration": 0.19078499999999998
                },
                {
                    "name": "F3",
                    "midi": 53,
                    "time": 11.447100000000002,
                    "velocity": 0.31496062992125984,
                    "duration": 0.20270906250000031
                },
                {
                    "name": "G#4",
                    "midi": 68,
                    "time": 11.637885000000002,
                    "velocity": 0.2755905511811024,
                    "duration": 0.20270906250000031
                },
                {
                    "name": "C4",
                    "midi": 60,
                    "time": 11.828670000000002,
                    "velocity": 0.2440944881889764,
                    "duration": 0.19078499999999998
                },
                {
                    "name": "G#3",
                    "midi": 56,
                    "time": 12.019455000000002,
                    "velocity": 0.36220472440944884,
                    "duration": 0.20270906250000031
                },
                {
                    "name": "G#4",
                    "midi": 68,
                    "time": 12.210240000000002,
                    "velocity": 0.2992125984251969,
                    "duration": 0.20270906250000031
                },
                {
                    "name": "C4",
                    "midi": 60,
                    "time": 12.401025000000002,
                    "velocity": 0.2677165354330709,
                    "duration": 0.19078499999999998
                },
                {
                    "name": "G3",
                    "midi": 55,
                    "time": 12.591810000000002,
                    "velocity": 0.3779527559055118,
                    "duration": 0.20270906250000031
                },
                {
                    "name": "A#4",
                    "midi": 70,
                    "time": 12.782595000000002,
                    "velocity": 0.30708661417322836,
                    "duration": 0.20270906250000031
                },
                {
                    "name": "D#4",
                    "midi": 63,
                    "time": 12.973380000000002,
                    "velocity": 0.33070866141732286,
                    "duration": 0.19078499999999998
                },
                {
                    "name": "C#4",
                    "midi": 61,
                    "time": 13.164165000000002,
                    "velocity": 0.4015748031496063,
                    "duration": 0.20270906250000031
                },
                {
                    "name": "A#4",
                    "midi": 70,
                    "time": 13.354950000000002,
                    "velocity": 0.36220472440944884,
                    "duration": 0.20270906250000031
                },
                {
                    "name": "D#4",
                    "midi": 63,
                    "time": 13.545735000000002,
                    "velocity": 0.3543307086614173,
                    "duration": 0.19078499999999998
                },
                {
                    "name": "G#3",
                    "midi": 56,
                    "time": 13.736520000000002,
                    "velocity": 0.4645669291338583,
                    "duration": 0.20270906250000031
                },
                {
                    "name": "G#4",
                    "midi": 68,
                    "time": 13.927305000000002,
                    "velocity": 0.3779527559055118,
                    "duration": 0.20270906250000031
                },
                {
                    "name": "D#4",
                    "midi": 63,
                    "time": 14.118090000000002,
                    "velocity": 0.3779527559055118,
                    "duration": 0.19078499999999998
                },
                {
                    "name": "C4",
                    "midi": 60,
                    "time": 14.308875000000002,
                    "velocity": 0.4409448818897638,
                    "duration": 0.20270906250000031
                },
                {
                    "name": "G#4",
                    "midi": 68,
                    "time": 14.499660000000002,
                    "velocity": 0.3543307086614173,
                    "duration": 0.20270906250000031
                },
                {
                    "name": "D#4",
                    "midi": 63,
                    "time": 14.690445000000002,
                    "velocity": 0.3543307086614173,
                    "duration": 0.19078499999999998
                },
                {
                    "name": "C#3",
                    "midi": 49,
                    "time": 14.881230000000002,
                    "velocity": 0.4015748031496063,
                    "duration": 0.20270906250000031
                },
                {
                    "name": "F4",
                    "midi": 65,
                    "time": 15.072015000000002,
                    "velocity": 0.33070866141732286,
                    "duration": 0.20270906250000031
                },
                {
                    "name": "A#3",
                    "midi": 58,
                    "time": 15.262800000000002,
                    "velocity": 0.30708661417322836,
                    "duration": 0.19078499999999998
                },
                {
                    "name": "G#3",
                    "midi": 56,
                    "time": 15.453585000000002,
                    "velocity": 0.3779527559055118,
                    "duration": 0.20270906250000031
                },
                {
                    "name": "F4",
                    "midi": 65,
                    "time": 15.644370000000002,
                    "velocity": 0.2992125984251969,
                    "duration": 0.20270906250000031
                },
                {
                    "name": "A#3",
                    "midi": 58,
                    "time": 15.835155000000002,
                    "velocity": 0.2992125984251969,
                    "duration": 0.19078499999999998
                },
                {
                    "name": "D#3",
                    "midi": 51,
                    "time": 16.025940000000002,
                    "velocity": 0.3779527559055118,
                    "duration": 0.2027090625000021
                },
                {
                    "name": "D#4",
                    "midi": 63,
                    "time": 16.216725000000004,
                    "velocity": 0.30708661417322836,
                    "duration": 0.2027090625000021
                },
                {
                    "name": "C4",
                    "midi": 60,
                    "time": 16.407510000000006,
                    "velocity": 0.31496062992125984,
                    "duration": 0.19078500000000176
                },
                {
                    "name": "G#3",
                    "midi": 56,
                    "time": 16.598295000000007,
                    "velocity": 0.3858267716535433,
                    "duration": 0.2027090625000021
                },
                {
                    "name": "D#4",
                    "midi": 63,
                    "time": 16.78908000000001,
                    "velocity": 0.3464566929133858,
                    "duration": 0.2027090625000021
                },
                {
                    "name": "C4",
                    "midi": 60,
                    "time": 16.97986500000001,
                    "velocity": 0.3543307086614173,
                    "duration": 0.19078500000000176
                },
                {
                    "name": "D#3",
                    "midi": 51,
                    "time": 17.170650000000013,
                    "velocity": 0.4330708661417323,
                    "duration": 0.2027090625000021
                },
                {
                    "name": "D#4",
                    "midi": 63,
                    "time": 17.361435000000014,
                    "velocity": 0.3543307086614173,
                    "duration": 0.2027090625000021
                },
                {
                    "name": "C#4",
                    "midi": 61,
                    "time": 17.552220000000016,
                    "velocity": 0.30708661417322836,
                    "duration": 0.19078500000000176
                },
                {
                    "name": "G3",
                    "midi": 55,
                    "time": 17.743005000000018,
                    "velocity": 0.3937007874015748,
                    "duration": 0.2027090625000021
                },
                {
                    "name": "D#4",
                    "midi": 63,
                    "time": 17.93379000000002,
                    "velocity": 0.31496062992125984,
                    "duration": 0.2027090625000021
                },
                {
                    "name": "C#4",
                    "midi": 61,
                    "time": 18.12457500000002,
                    "velocity": 0.2992125984251969,
                    "duration": 0.19078500000000176
                },
                {
                    "name": "G#2",
                    "midi": 44,
                    "time": 18.315360000000023,
                    "velocity": 0.3779527559055118,
                    "duration": 0.20270906249999854
                },
                {
                    "name": "C4",
                    "midi": 60,
                    "time": 18.50614500000002,
                    "velocity": 0.30708661417322836,
                    "duration": 0.2027090625000021
                },
                {
                    "name": "D#3",
                    "midi": 51,
                    "time": 18.696930000000023,
                    "velocity": 0.28346456692913385,
                    "duration": 0.19078500000000176
                },
                {
                    "name": "E3",
                    "midi": 52,
                    "time": 18.887715000000025,
                    "velocity": 0.41732283464566927,
                    "duration": 0.2027090625000021
                },
                {
                    "name": "C#4",
                    "midi": 61,
                    "time": 19.078500000000027,
                    "velocity": 0.30708661417322836,
                    "duration": 0.2027090625000021
                },
                {
                    "name": "D#3",
                    "midi": 51,
                    "time": 19.26928500000003,
                    "velocity": 0.2755905511811024,
                    "duration": 0.19078500000000176
                },
                {
                    "name": "G#2",
                    "midi": 44,
                    "time": 19.46007000000003,
                    "velocity": 0.3779527559055118,
                    "duration": 0.20270906249999854
                },
                {
                    "name": "C4",
                    "midi": 60,
                    "time": 19.65085500000003,
                    "velocity": 0.30708661417322836,
                    "duration": 0.2027090625000021
                },
                {
                    "name": "D#3",
                    "midi": 51,
                    "time": 19.84164000000003,
                    "velocity": 0.2755905511811024,
                    "duration": 0.19078500000000176
                },
                {
                    "name": "E3",
                    "midi": 52,
                    "time": 20.032425000000032,
                    "velocity": 0.3937007874015748,
                    "duration": 0.20270906249999854
                },
                {
                    "name": "C#4",
                    "midi": 61,
                    "time": 20.22321000000003,
                    "velocity": 0.30708661417322836,
                    "duration": 0.2027090625000021
                },
                {
                    "name": "D#3",
                    "midi": 51,
                    "time": 20.413995000000032,
                    "velocity": 0.28346456692913385,
                    "duration": 0.19078500000000176
                },
                {
                    "name": "G#2",
                    "midi": 44,
                    "time": 20.604780000000034,
                    "velocity": 0.3779527559055118,
                    "duration": 0.20270906249999854
                },
                {
                    "name": "C4",
                    "midi": 60,
                    "time": 20.795565000000032,
                    "velocity": 0.30708661417322836,
                    "duration": 0.2027090625000021
                },
                {
                    "name": "D#3",
                    "midi": 51,
                    "time": 20.986350000000034,
                    "velocity": 0.2677165354330709,
                    "duration": 0.19078500000000176
                },
                {
                    "name": "C3",
                    "midi": 48,
                    "time": 21.177135000000035,
                    "velocity": 0.3937007874015748,
                    "duration": 0.2027090625000021
                },
                {
                    "name": "G3",
                    "midi": 55,
                    "time": 21.367920000000037,
                    "velocity": 0.2992125984251969,
                    "duration": 0.2027090625000021
                },
                {
                    "name": "A#3",
                    "midi": 58,
                    "time": 21.55870500000004,
                    "velocity": 0.2677165354330709,
                    "duration": 0.19078500000000176
                },
                {
                    "name": "D#4",
                    "midi": 63,
                    "time": 21.74949000000004,
                    "velocity": 0.3700787401574803,
                    "duration": 0.28617750000000086
                },
                {
                    "name": "E3",
                    "midi": 52,
                    "time": 22.89420000000004,
                    "velocity": 0.30708661417322836,
                    "duration": 0.2027090625000021
                },
                {
                    "name": "G4",
                    "midi": 67,
                    "time": 23.084985000000042,
                    "velocity": 0.2440944881889764,
                    "duration": 0.2027090625000021
                },
                {
                    "name": "C4",
                    "midi": 60,
                    "time": 23.275770000000044,
                    "velocity": 0.23622047244094488,
                    "duration": 0.19078500000000176
                },
                {
                    "name": "A#3",
                    "midi": 58,
                    "time": 23.466555000000046,
                    "velocity": 0.31496062992125984,
                    "duration": 0.2027090625000021
                },
                {
                    "name": "G4",
                    "midi": 67,
                    "time": 23.657340000000048,
                    "velocity": 0.2755905511811024,
                    "duration": 0.2027090625000021
                },
                {
                    "name": "C4",
                    "midi": 60,
                    "time": 23.84812500000005,
                    "velocity": 0.23622047244094488,
                    "duration": 0.19078500000000176
                },
                {
                    "name": "F3",
                    "midi": 53,
                    "time": 24.03891000000005,
                    "velocity": 0.33070866141732286,
                    "duration": 0.2027090625000021
                },
                {
                    "name": "G#4",
                    "midi": 68,
                    "time": 24.229695000000053,
                    "velocity": 0.29133858267716534,
                    "duration": 0.2027090625000021
                },
                {
                    "name": "C4",
                    "midi": 60,
                    "time": 24.420480000000055,
                    "velocity": 0.2677165354330709,
                    "duration": 0.19078500000000176
                },
                {
                    "name": "G#3",
                    "midi": 56,
                    "time": 24.611265000000056,
                    "velocity": 0.36220472440944884,
                    "duration": 0.2027090625000021
                },
                {
                    "name": "G#4",
                    "midi": 68,
                    "time": 24.802050000000058,
                    "velocity": 0.2992125984251969,
                    "duration": 0.2027090625000021
                },
                {
                    "name": "C4",
                    "midi": 60,
                    "time": 24.99283500000006,
                    "velocity": 0.28346456692913385,
                    "duration": 0.19078500000000176
                },
                {
                    "name": "G3",
                    "midi": 55,
                    "time": 25.18362000000006,
                    "velocity": 0.3779527559055118,
                    "duration": 0.2027090625000021
                },
                {
                    "name": "A#4",
                    "midi": 70,
                    "time": 25.374405000000063,
                    "velocity": 0.30708661417322836,
                    "duration": 0.2027090625000021
                },
                {
                    "name": "E4",
                    "midi": 64,
                    "time": 25.565190000000065,
                    "velocity": 0.28346456692913385,
                    "duration": 0.19078500000000176
                },
                {
                    "name": "C#4",
                    "midi": 61,
                    "time": 25.755975000000067,
                    "velocity": 0.3858267716535433,
                    "duration": 0.2027090625000021
                },
                {
                    "name": "A#4",
                    "midi": 70,
                    "time": 25.94676000000007,
                    "velocity": 0.3464566929133858,
                    "duration": 0.2027090625000021
                },
                {
                    "name": "E4",
                    "midi": 64,
                    "time": 26.13754500000007,
                    "velocity": 0.30708661417322836,
                    "duration": 0.19078500000000176
                },
                {
                    "name": "G#3",
                    "midi": 56,
                    "time": 26.328330000000072,
                    "velocity": 0.4330708661417323,
                    "duration": 0.2027090625000021
                },
                {
                    "name": "G#4",
                    "midi": 68,
                    "time": 26.519115000000074,
                    "velocity": 0.3543307086614173,
                    "duration": 0.2027090625000021
                },
                {
                    "name": "F4",
                    "midi": 65,
                    "time": 26.709900000000076,
                    "velocity": 0.3464566929133858,
                    "duration": 0.19078500000000176
                },
                {
                    "name": "C4",
                    "midi": 60,
                    "time": 26.900685000000077,
                    "velocity": 0.3937007874015748,
                    "duration": 0.2027090625000021
                },
                {
                    "name": "G#4",
                    "midi": 68,
                    "time": 27.09147000000008,
                    "velocity": 0.31496062992125984,
                    "duration": 0.2027090625000021
                },
                {
                    "name": "F4",
                    "midi": 65,
                    "time": 27.28225500000008,
                    "velocity": 0.31496062992125984,
                    "duration": 0.19078500000000176
                },
                {
                    "name": "A#2",
                    "midi": 46,
                    "time": 27.473040000000083,
                    "velocity": 0.3779527559055118,
                    "duration": 0.20270906249999854
                },
                {
                    "name": "C#4",
                    "midi": 61,
                    "time": 27.66382500000008,
                    "velocity": 0.28346456692913385,
                    "duration": 0.2027090625000021
                },
                {
                    "name": "G3",
                    "midi": 55,
                    "time": 27.854610000000083,
                    "velocity": 0.28346456692913385,
                    "duration": 0.19078500000000176
                },
                {
                    "name": "F3",
                    "midi": 53,
                    "time": 28.045395000000084,
                    "velocity": 0.3779527559055118,
                    "duration": 0.20270906249999854
                },
                {
                    "name": "C#4",
                    "midi": 61,
                    "time": 28.236180000000083,
                    "velocity": 0.28346456692913385,
                    "duration": 0.2027090625000021
                },
                {
                    "name": "G3",
                    "midi": 55,
                    "time": 28.426965000000084,
                    "velocity": 0.28346456692913385,
                    "duration": 0.19078500000000176
                },
                {
                    "name": "C3",
                    "midi": 48,
                    "time": 28.617750000000086,
                    "velocity": 0.3779527559055118,
                    "duration": 0.2027090625000021
                },
                {
                    "name": "C4",
                    "midi": 60,
                    "time": 28.808535000000088,
                    "velocity": 0.30708661417322836,
                    "duration": 0.2027090625000021
                },
                {
                    "name": "G#3",
                    "midi": 56,
                    "time": 28.99932000000009,
                    "velocity": 0.30708661417322836,
                    "duration": 0.19078500000000176
                },
                {
                    "name": "F3",
                    "midi": 53,
                    "time": 29.19010500000009,
                    "velocity": 0.3779527559055118,
                    "duration": 0.2027090625000021
                },
                {
                    "name": "C4",
                    "midi": 60,
                    "time": 29.380890000000093,
                    "velocity": 0.30708661417322836,
                    "duration": 0.2027090625000021
                },
                {
                    "name": "G#3",
                    "midi": 56,
                    "time": 29.571675000000095,
                    "velocity": 0.30708661417322836,
                    "duration": 0.19078500000000176
                },
                {
                    "name": "C3",
                    "midi": 48,
                    "time": 29.762460000000097,
                    "velocity": 0.3779527559055118,
                    "duration": 0.20270906249999854
                },
                {
                    "name": "E4",
                    "midi": 64,
                    "time": 29.953245000000095,
                    "velocity": 0.30708661417322836,
                    "duration": 0.2027090625000021
                },
                {
                    "name": "C4",
                    "midi": 60,
                    "time": 30.144030000000097,
                    "velocity": 0.31496062992125984,
                    "duration": 0.19078500000000176
                },
                {
                    "name": "G3",
                    "midi": 55,
                    "time": 30.3348150000001,
                    "velocity": 0.3858267716535433,
                    "duration": 0.20270906249999854
                },
                {
                    "name": "E4",
                    "midi": 64,
                    "time": 30.525600000000097,
                    "velocity": 0.3464566929133858,
                    "duration": 0.2027090625000021
                },
                {
                    "name": "A#3",
                    "midi": 58,
                    "time": 30.7163850000001,
                    "velocity": 0.3543307086614173,
                    "duration": 0.19078500000000176
                },
                {
                    "name": "F3",
                    "midi": 53,
                    "time": 30.9071700000001,
                    "velocity": 0.4330708661417323,
                    "duration": 0.2027090625000021
                },
                {
                    "name": "F4",
                    "midi": 65,
                    "time": 31.097955000000102,
                    "velocity": 0.33070866141732286,
                    "duration": 0.2027090625000021
                },
                {
                    "name": "C4",
                    "midi": 60,
                    "time": 31.288740000000104,
                    "velocity": 0.2755905511811024,
                    "duration": 0.19078500000000176
                },
                {
                    "name": "G#3",
                    "midi": 56,
                    "time": 31.479525000000105,
                    "velocity": 0.3228346456692913,
                    "duration": 0.2027090625000021
                },
                {
                    "name": "F4",
                    "midi": 65,
                    "time": 31.670310000000107,
                    "velocity": 0.2755905511811024,
                    "duration": 0.2027090625000021
                },
                {
                    "name": "C#4",
                    "midi": 61,
                    "time": 31.86109500000011,
                    "velocity": 0.23622047244094488,
                    "duration": 0.19078500000000176
                },
                {
                    "name": "E3",
                    "midi": 52,
                    "time": 32.05188000000011,
                    "velocity": 0.30708661417322836,
                    "duration": 0.20270906249999854
                },
                {
                    "name": "G4",
                    "midi": 67,
                    "time": 32.24266500000011,
                    "velocity": 0.2440944881889764,
                    "duration": 0.20270906249999854
                },
                {
                    "name": "C4",
                    "midi": 60,
                    "time": 32.43345000000011,
                    "velocity": 0.2204724409448819,
                    "duration": 0.1907849999999982
                },
                {
                    "name": "A#3",
                    "midi": 58,
                    "time": 32.624235000000105,
                    "velocity": 0.30708661417322836,
                    "duration": 0.20270906249999854
                },
                {
                    "name": "G4",
                    "midi": 67,
                    "time": 32.8150200000001,
                    "velocity": 0.2677165354330709,
                    "duration": 0.20270906249999854
                },
                {
                    "name": "C4",
                    "midi": 60,
                    "time": 33.0058050000001,
                    "velocity": 0.23622047244094488,
                    "duration": 0.1907849999999982
                },
                {
                    "name": "F3",
                    "midi": 53,
                    "time": 33.1965900000001,
                    "velocity": 0.3543307086614173,
                    "duration": 0.20270906249999854
                },
                {
                    "name": "G#4",
                    "midi": 68,
                    "time": 33.3873750000001,
                    "velocity": 0.28346456692913385,
                    "duration": 0.20270906249999854
                },
                {
                    "name": "C4",
                    "midi": 60,
                    "time": 33.578160000000096,
                    "velocity": 0.2283464566929134,
                    "duration": 0.1907849999999982
                },
                {
                    "name": "G#3",
                    "midi": 56,
                    "time": 33.768945000000095,
                    "velocity": 0.36220472440944884,
                    "duration": 0.20270906249999854
                },
                {
                    "name": "G#4",
                    "midi": 68,
                    "time": 33.95973000000009,
                    "velocity": 0.2992125984251969,
                    "duration": 0.20270906249999854
                },
                {
                    "name": "C4",
                    "midi": 60,
                    "time": 34.15051500000009,
                    "velocity": 0.2677165354330709,
                    "duration": 0.1907849999999982
                },
                {
                    "name": "G3",
                    "midi": 55,
                    "time": 34.34130000000009,
                    "velocity": 0.3779527559055118,
                    "duration": 0.20270906249999854
                },
                {
                    "name": "A#4",
                    "midi": 70,
                    "time": 34.53208500000009,
                    "velocity": 0.30708661417322836,
                    "duration": 0.20270906249999854
                },
                {
                    "name": "D#4",
                    "midi": 63,
                    "time": 34.722870000000086,
                    "velocity": 0.33070866141732286,
                    "duration": 0.1907849999999982
                },
                {
                    "name": "C#4",
                    "midi": 61,
                    "time": 34.913655000000084,
                    "velocity": 0.4015748031496063,
                    "duration": 0.20270906249999854
                },
                {
                    "name": "A#4",
                    "midi": 70,
                    "time": 35.10444000000008,
                    "velocity": 0.36220472440944884,
                    "duration": 0.20270906249999854
                },
                {
                    "name": "D#4",
                    "midi": 63,
                    "time": 35.29522500000008,
                    "velocity": 0.3543307086614173,
                    "duration": 0.1907849999999982
                },
                {
                    "name": "G#3",
                    "midi": 56,
                    "time": 35.48601000000008,
                    "velocity": 0.4645669291338583,
                    "duration": 0.20270906249999854
                },
                {
                    "name": "G#4",
                    "midi": 68,
                    "time": 35.67679500000008,
                    "velocity": 0.3779527559055118,
                    "duration": 0.20270906249999854
                },
                {
                    "name": "D#4",
                    "midi": 63,
                    "time": 35.867580000000075,
                    "velocity": 0.3779527559055118,
                    "duration": 0.1907849999999982
                },
                {
                    "name": "C4",
                    "midi": 60,
                    "time": 36.05836500000007,
                    "velocity": 0.4409448818897638,
                    "duration": 0.20270906249999854
                },
                {
                    "name": "G#4",
                    "midi": 68,
                    "time": 36.24915000000007,
                    "velocity": 0.3543307086614173,
                    "duration": 0.20270906249999854
                },
                {
                    "name": "D#4",
                    "midi": 63,
                    "time": 36.43993500000007,
                    "velocity": 0.3543307086614173,
                    "duration": 0.1907849999999982
                },
                {
                    "name": "C#3",
                    "midi": 49,
                    "time": 36.63072000000007,
                    "velocity": 0.4015748031496063,
                    "duration": 0.20270906249999854
                },
                {
                    "name": "F4",
                    "midi": 65,
                    "time": 36.821505000000066,
                    "velocity": 0.33070866141732286,
                    "duration": 0.20270906249999854
                },
                {
                    "name": "A#3",
                    "midi": 58,
                    "time": 37.012290000000064,
                    "velocity": 0.30708661417322836,
                    "duration": 0.1907849999999982
                },
                {
                    "name": "G#3",
                    "midi": 56,
                    "time": 37.20307500000006,
                    "velocity": 0.3779527559055118,
                    "duration": 0.20270906249999854
                },
                {
                    "name": "F4",
                    "midi": 65,
                    "time": 37.39386000000006,
                    "velocity": 0.28346456692913385,
                    "duration": 0.20270906249999854
                },
                {
                    "name": "A#3",
                    "midi": 58,
                    "time": 37.58464500000006,
                    "velocity": 0.28346456692913385,
                    "duration": 0.1907849999999982
                },
                {
                    "name": "D#3",
                    "midi": 51,
                    "time": 37.77543000000006,
                    "velocity": 0.3779527559055118,
                    "duration": 0.20270906249999854
                },
                {
                    "name": "D#4",
                    "midi": 63,
                    "time": 37.966215000000055,
                    "velocity": 0.30708661417322836,
                    "duration": 0.20270906249999854
                },
                {
                    "name": "C4",
                    "midi": 60,
                    "time": 38.15700000000005,
                    "velocity": 0.31496062992125984,
                    "duration": 0.1907849999999982
                },
                {
                    "name": "G#3",
                    "midi": 56,
                    "time": 38.34778500000005,
                    "velocity": 0.3858267716535433,
                    "duration": 0.20270906249999854
                },
                {
                    "name": "D#4",
                    "midi": 63,
                    "time": 38.53857000000005,
                    "velocity": 0.3464566929133858,
                    "duration": 0.20270906249999854
                },
                {
                    "name": "C4",
                    "midi": 60,
                    "time": 38.72935500000005,
                    "velocity": 0.3543307086614173,
                    "duration": 0.1907849999999982
                },
                {
                    "name": "D#3",
                    "midi": 51,
                    "time": 38.920140000000046,
                    "velocity": 0.4330708661417323,
                    "duration": 0.20270906249999854
                },
                {
                    "name": "D#4",
                    "midi": 63,
                    "time": 39.110925000000044,
                    "velocity": 0.3543307086614173,
                    "duration": 0.20270906249999854
                },
                {
                    "name": "C#4",
                    "midi": 61,
                    "time": 39.30171000000004,
                    "velocity": 0.30708661417322836,
                    "duration": 0.1907849999999982
                },
                {
                    "name": "G3",
                    "midi": 55,
                    "time": 39.49249500000004,
                    "velocity": 0.3937007874015748,
                    "duration": 0.20270906249999854
                },
                {
                    "name": "D#4",
                    "midi": 63,
                    "time": 39.68328000000004,
                    "velocity": 0.31496062992125984,
                    "duration": 0.20270906249999854
                },
                {
                    "name": "C#4",
                    "midi": 61,
                    "time": 39.87406500000004,
                    "velocity": 0.2992125984251969,
                    "duration": 0.1907849999999982
                },
                {
                    "name": "G#2",
                    "midi": 44,
                    "time": 40.064850000000035,
                    "velocity": 0.3779527559055118,
                    "duration": 0.20270906249999854
                },
                {
                    "name": "C4",
                    "midi": 60,
                    "time": 40.255635000000034,
                    "velocity": 0.30708661417322836,
                    "duration": 0.20270906249999854
                },
                {
                    "name": "D#3",
                    "midi": 51,
                    "time": 40.44642000000003,
                    "velocity": 0.28346456692913385,
                    "duration": 0.1907849999999982
                },
                {
                    "name": "E3",
                    "midi": 52,
                    "time": 40.63720500000003,
                    "velocity": 0.41732283464566927,
                    "duration": 0.20270906250000564
                },
                {
                    "name": "C#4",
                    "midi": 61,
                    "time": 40.827990000000035,
                    "velocity": 0.30708661417322836,
                    "duration": 0.20270906249999854
                },
                {
                    "name": "D#3",
                    "midi": 51,
                    "time": 41.01877500000003,
                    "velocity": 0.2755905511811024,
                    "duration": 0.1907849999999982
                },
                {
                    "name": "G#2",
                    "midi": 44,
                    "time": 41.20956000000003,
                    "velocity": 0.3779527559055118,
                    "duration": 0.20270906249999854
                },
                {
                    "name": "C4",
                    "midi": 60,
                    "time": 41.40034500000003,
                    "velocity": 0.30708661417322836,
                    "duration": 0.20270906249999854
                },
                {
                    "name": "D#3",
                    "midi": 51,
                    "time": 41.59113000000003,
                    "velocity": 0.2755905511811024,
                    "duration": 0.1907849999999982
                },
                {
                    "name": "E3",
                    "midi": 52,
                    "time": 41.781915000000026,
                    "velocity": 0.3937007874015748,
                    "duration": 0.20270906249999854
                },
                {
                    "name": "C#4",
                    "midi": 61,
                    "time": 41.972700000000025,
                    "velocity": 0.30708661417322836,
                    "duration": 0.20270906249999854
                },
                {
                    "name": "D#3",
                    "midi": 51,
                    "time": 42.16348500000002,
                    "velocity": 0.28346456692913385,
                    "duration": 0.1907849999999982
                },
                {
                    "name": "G#2",
                    "midi": 44,
                    "time": 42.35427000000002,
                    "velocity": 0.3779527559055118,
                    "duration": 0.20270906249999854
                },
                {
                    "name": "C4",
                    "midi": 60,
                    "time": 42.54505500000002,
                    "velocity": 0.30708661417322836,
                    "duration": 0.20270906249999854
                },
                {
                    "name": "D#3",
                    "midi": 51,
                    "time": 42.73584000000002,
                    "velocity": 0.2677165354330709,
                    "duration": 0.1907849999999982
                },
                {
                    "name": "F#2",
                    "midi": 42,
                    "time": 42.926625000000016,
                    "velocity": 0.4015748031496063,
                    "duration": 0.20270906249999854
                },
                {
                    "name": "D#4",
                    "midi": 63,
                    "time": 43.117410000000014,
                    "velocity": 0.30708661417322836,
                    "duration": 0.20270906249999854
                },
                {
                    "name": "A#3",
                    "midi": 58,
                    "time": 43.30819500000001,
                    "velocity": 0.2755905511811024,
                    "duration": 0.1907849999999982
                },
                {
                    "name": "F#3",
                    "midi": 54,
                    "time": 43.49898000000001,
                    "velocity": 0.4566929133858268,
                    "duration": 0.20270906249999854
                },
                {
                    "name": "D#4",
                    "midi": 63,
                    "time": 43.68976500000001,
                    "velocity": 0.3858267716535433,
                    "duration": 0.20270906249999854
                },
                {
                    "name": "A#3",
                    "midi": 58,
                    "time": 43.88055000000001,
                    "velocity": 0.3543307086614173,
                    "duration": 0.1907849999999982
                },
                {
                    "name": "F3",
                    "midi": 53,
                    "time": 44.071335000000005,
                    "velocity": 0.4015748031496063,
                    "duration": 0.20270906249999854
                },
                {
                    "name": "D#4",
                    "midi": 63,
                    "time": 44.26212,
                    "velocity": 0.30708661417322836,
                    "duration": 0.20270906249999854
                },
                {
                    "name": "A3",
                    "midi": 57,
                    "time": 44.452905,
                    "velocity": 0.28346456692913385,
                    "duration": 0.1907849999999982
                },
                {
                    "name": "A#2",
                    "midi": 46,
                    "time": 44.64369,
                    "velocity": 0.4330708661417323,
                    "duration": 0.20270906249999854
                },
                {
                    "name": "C#4",
                    "midi": 61,
                    "time": 44.834475,
                    "velocity": 0.3543307086614173,
                    "duration": 0.20270906249999854
                },
                {
                    "name": "F3",
                    "midi": 53,
                    "time": 45.025259999999996,
                    "velocity": 0.30708661417322836,
                    "duration": 0.1907849999999982
                },
                {
                    "name": "F#3",
                    "midi": 54,
                    "time": 45.216044999999994,
                    "velocity": 0.4330708661417323,
                    "duration": 0.20270906249999854
                },
                {
                    "name": "D#4",
                    "midi": 63,
                    "time": 45.40682999999999,
                    "velocity": 0.36220472440944884,
                    "duration": 0.20270906249999854
                },
                {
                    "name": "F3",
                    "midi": 53,
                    "time": 45.59761499999999,
                    "velocity": 0.30708661417322836,
                    "duration": 0.1907849999999982
                },
                {
                    "name": "A#2",
                    "midi": 46,
                    "time": 45.78839999999999,
                    "velocity": 0.4330708661417323,
                    "duration": 0.20270906249999854
                },
                {
                    "name": "C#4",
                    "midi": 61,
                    "time": 45.97918499999999,
                    "velocity": 0.36220472440944884,
                    "duration": 0.20270906249999854
                },
                {
                    "name": "F3",
                    "midi": 53,
                    "time": 46.169969999999985,
                    "velocity": 0.30708661417322836,
                    "duration": 0.1907849999999982
                },
                {
                    "name": "F#3",
                    "midi": 54,
                    "time": 46.36075499999998,
                    "velocity": 0.4409448818897638,
                    "duration": 0.20270906249999854
                },
                {
                    "name": "D#4",
                    "midi": 63,
                    "time": 46.55153999999998,
                    "velocity": 0.36220472440944884,
                    "duration": 0.20270906249999854
                },
                {
                    "name": "F3",
                    "midi": 53,
                    "time": 46.74232499999998,
                    "velocity": 0.30708661417322836,
                    "duration": 0.1907849999999982
                },
                {
                    "name": "A#2",
                    "midi": 46,
                    "time": 46.93310999999998,
                    "velocity": 0.4409448818897638,
                    "duration": 0.20270906249999854
                },
                {
                    "name": "C#4",
                    "midi": 61,
                    "time": 47.123894999999976,
                    "velocity": 0.3700787401574803,
                    "duration": 0.20270906249999854
                },
                {
                    "name": "F3",
                    "midi": 53,
                    "time": 47.314679999999974,
                    "velocity": 0.3464566929133858,
                    "duration": 0.1907849999999982
                },
                {
                    "name": "G#2",
                    "midi": 44,
                    "time": 47.50546499999997,
                    "velocity": 0.5275590551181102,
                    "duration": 0.20270906249999854
                },
                {
                    "name": "C4",
                    "midi": 60,
                    "time": 47.69624999999997,
                    "velocity": 0.3937007874015748,
                    "duration": 0.20270906249999854
                },
                {
                    "name": "F3",
                    "midi": 53,
                    "time": 47.88703499999997,
                    "velocity": 0.3543307086614173,
                    "duration": 0.1907849999999982
                },
                {
                    "name": "D3",
                    "midi": 50,
                    "time": 48.07781999999997,
                    "velocity": 0.5196850393700787,
                    "duration": 0.20270906249999854
                },
                {
                    "name": "C4",
                    "midi": 60,
                    "time": 48.268604999999965,
                    "velocity": 0.41732283464566927,
                    "duration": 0.20270906249999854
                },
                {
                    "name": "F3",
                    "midi": 53,
                    "time": 48.45938999999996,
                    "velocity": 0.3700787401574803,
                    "duration": 0.1907849999999982
                },
                {
                    "name": "G2",
                    "midi": 43,
                    "time": 48.65017499999996,
                    "velocity": 0.5196850393700787,
                    "duration": 0.20270906249999854
                },
                {
                    "name": "B3",
                    "midi": 59,
                    "time": 48.84095999999996,
                    "velocity": 0.3937007874015748,
                    "duration": 0.20270906249999854
                },
                {
                    "name": "F3",
                    "midi": 53,
                    "time": 49.03174499999996,
                    "velocity": 0.33070866141732286,
                    "duration": 0.1907849999999982
                },
                {
                    "name": "C3",
                    "midi": 48,
                    "time": 49.222529999999956,
                    "velocity": 0.5196850393700787,
                    "duration": 0.20270906249999854
                },
                {
                    "name": "E4",
                    "midi": 64,
                    "time": 49.413314999999955,
                    "velocity": 0.41732283464566927,
                    "duration": 0.20270906249999854
                },
                {
                    "name": "A#3",
                    "midi": 58,
                    "time": 49.60409999999995,
                    "velocity": 0.3700787401574803,
                    "duration": 0.1907849999999982
                },
                {
                    "name": "G#3",
                    "midi": 56,
                    "time": 49.79488499999995,
                    "velocity": 0.5039370078740157,
                    "duration": 0.20270906250000564
                },
                {
                    "name": "F4",
                    "midi": 65,
                    "time": 49.985669999999956,
                    "velocity": 0.4094488188976378,
                    "duration": 0.20270906249999854
                },
                {
                    "name": "C4",
                    "midi": 60,
                    "time": 50.176454999999955,
                    "velocity": 0.3464566929133858,
                    "duration": 0.1907849999999982
                },
                {
                    "name": "C3",
                    "midi": 48,
                    "time": 50.36723999999995,
                    "velocity": 0.47244094488188976,
                    "duration": 0.20270906249999854
                },
                {
                    "name": "C#4",
                    "midi": 61,
                    "time": 50.55802499999995,
                    "velocity": 0.4015748031496063,
                    "duration": 0.20270906249999854
                },
                {
                    "name": "G#3",
                    "midi": 56,
                    "time": 50.74880999999995,
                    "velocity": 0.36220472440944884,
                    "duration": 0.1907849999999982
                },
                {
                    "name": "F3",
                    "midi": 53,
                    "time": 50.93959499999995,
                    "velocity": 0.4645669291338583,
                    "duration": 0.20270906249999854
                },
                {
                    "name": "C#4",
                    "midi": 61,
                    "time": 51.130379999999946,
                    "velocity": 0.3858267716535433,
                    "duration": 0.20270906249999854
                },
                {
                    "name": "G#3",
                    "midi": 56,
                    "time": 51.321164999999944,
                    "velocity": 0.3464566929133858,
                    "duration": 0.1907849999999982
                },
                {
                    "name": "C3",
                    "midi": 48,
                    "time": 51.51194999999994,
                    "velocity": 0.4330708661417323,
                    "duration": 0.20270906249999854
                },
                {
                    "name": "E4",
                    "midi": 64,
                    "time": 51.70273499999994,
                    "velocity": 0.3543307086614173,
                    "duration": 0.20270906249999854
                },
                {
                    "name": "A#3",
                    "midi": 58,
                    "time": 51.89351999999994,
                    "velocity": 0.2992125984251969,
                    "duration": 0.1907849999999982
                },
                {
                    "name": "G#3",
                    "midi": 56,
                    "time": 52.08430499999994,
                    "velocity": 0.3779527559055118,
                    "duration": 0.20270906249999854
                },
                {
                    "name": "F4",
                    "midi": 65,
                    "time": 52.275089999999935,
                    "velocity": 0.2992125984251969,
                    "duration": 0.20270906249999854
                },
                {
                    "name": "C4",
                    "midi": 60,
                    "time": 52.46587499999993,
                    "velocity": 0.2440944881889764,
                    "duration": 0.1907849999999982
                },
                {
                    "name": "C3",
                    "midi": 48,
                    "time": 52.65665999999993,
                    "velocity": 0.3543307086614173,
                    "duration": 0.20270906249999854
                },
                {
                    "name": "C#4",
                    "midi": 61,
                    "time": 52.84744499999993,
                    "velocity": 0.2992125984251969,
                    "duration": 0.20270906249999854
                },
                {
                    "name": "G#3",
                    "midi": 56,
                    "time": 53.03822999999993,
                    "velocity": 0.25984251968503935,
                    "duration": 0.1907849999999982
                },
                {
                    "name": "F3",
                    "midi": 53,
                    "time": 53.229014999999926,
                    "velocity": 0.33070866141732286,
                    "duration": 0.20270906249999854
                },
                {
                    "name": "C#4",
                    "midi": 61,
                    "time": 53.419799999999924,
                    "velocity": 0.25984251968503935,
                    "duration": 0.20270906249999854
                },
                {
                    "name": "G#3",
                    "midi": 56,
                    "time": 53.61058499999992,
                    "velocity": 0.2440944881889764,
                    "duration": 0.1907849999999982
                },
                {
                    "name": "C3",
                    "midi": 48,
                    "time": 53.80136999999992,
                    "velocity": 0.3543307086614173,
                    "duration": 0.20270906249999854
                },
                {
                    "name": "E4",
                    "midi": 64,
                    "time": 53.99215499999992,
                    "velocity": 0.2677165354330709,
                    "duration": 0.20270906249999854
                },
                {
                    "name": "G3",
                    "midi": 55,
                    "time": 54.18293999999992,
                    "velocity": 0.23622047244094488,
                    "duration": 0.1907849999999982
                },
                {
                    "name": "F3",
                    "midi": 53,
                    "time": 54.373724999999915,
                    "velocity": 0.2992125984251969,
                    "duration": 0.20270906249999854
                },
                {
                    "name": "C#4",
                    "midi": 61,
                    "time": 54.56450999999991,
                    "velocity": 0.2755905511811024,
                    "duration": 0.20270906249999854
                },
                {
                    "name": "G#3",
                    "midi": 56,
                    "time": 54.75529499999991,
                    "velocity": 0.2440944881889764,
                    "duration": 0.1907849999999982
                },
                {
                    "name": "C3",
                    "midi": 48,
                    "time": 54.94607999999991,
                    "velocity": 0.2755905511811024,
                    "duration": 0.20270906249999854
                },
                {
                    "name": "E4",
                    "midi": 64,
                    "time": 55.13686499999991,
                    "velocity": 0.2677165354330709,
                    "duration": 0.20270906249999854
                },
                {
                    "name": "G3",
                    "midi": 55,
                    "time": 55.327649999999906,
                    "velocity": 0.2283464566929134,
                    "duration": 0.1907849999999982
                },
                {
                    "name": "F3",
                    "midi": 53,
                    "time": 55.518434999999904,
                    "velocity": 0.2755905511811024,
                    "duration": 0.20270906249999854
                },
                {
                    "name": "C#4",
                    "midi": 61,
                    "time": 55.7092199999999,
                    "velocity": 0.23622047244094488,
                    "duration": 0.20270906249999854
                },
                {
                    "name": "G#3",
                    "midi": 56,
                    "time": 55.9000049999999,
                    "velocity": 0.2204724409448819,
                    "duration": 0.1907849999999982
                },
                {
                    "name": "C3",
                    "midi": 48,
                    "time": 56.0907899999999,
                    "velocity": 0.2992125984251969,
                    "duration": 0.20270906249999854
                },
                {
                    "name": "C4",
                    "midi": 60,
                    "time": 56.2815749999999,
                    "velocity": 0.23622047244094488,
                    "duration": 0.20270906249999854
                },
                {
                    "name": "E4",
                    "midi": 64,
                    "time": 56.472359999999895,
                    "velocity": 0.2047244094488189,
                    "duration": 0.1907849999999982
                },
                {
                    "name": "E3",
                    "midi": 52,
                    "time": 58.3802099999999,
                    "velocity": 0.30708661417322836,
                    "duration": 0.20270906249999854
                },
                {
                    "name": "G4",
                    "midi": 67,
                    "time": 58.5709949999999,
                    "velocity": 0.25984251968503935,
                    "duration": 0.20270906249999854
                },
                {
                    "name": "C4",
                    "midi": 60,
                    "time": 58.761779999999895,
                    "velocity": 0.2440944881889764,
                    "duration": 0.1907849999999982
                },
                {
                    "name": "A#3",
                    "midi": 58,
                    "time": 58.95256499999989,
                    "velocity": 0.31496062992125984,
                    "duration": 0.20270906249999854
                },
                {
                    "name": "G4",
                    "midi": 67,
                    "time": 59.14334999999989,
                    "velocity": 0.25984251968503935,
                    "duration": 0.20270906249999854
                },
                {
                    "name": "C4",
                    "midi": 60,
                    "time": 59.33413499999989,
                    "velocity": 0.2440944881889764,
                    "duration": 0.1907849999999982
                },
                {
                    "name": "F3",
                    "midi": 53,
                    "time": 59.52491999999989,
                    "velocity": 0.3543307086614173,
                    "duration": 0.20270906249999854
                },
                {
                    "name": "G#4",
                    "midi": 68,
                    "time": 59.715704999999886,
                    "velocity": 0.29133858267716534,
                    "duration": 0.20270906249999854
                },
                {
                    "name": "C4",
                    "midi": 60,
                    "time": 59.906489999999884,
                    "velocity": 0.2677165354330709,
                    "duration": 0.1907849999999982
                },
                {
                    "name": "G#3",
                    "midi": 56,
                    "time": 60.09727499999988,
                    "velocity": 0.36220472440944884,
                    "duration": 0.20270906249999854
                },
                {
                    "name": "G#4",
                    "midi": 68,
                    "time": 60.28805999999988,
                    "velocity": 0.2992125984251969,
                    "duration": 0.20270906249999854
                },
                {
                    "name": "C4",
                    "midi": 60,
                    "time": 60.47884499999988,
                    "velocity": 0.28346456692913385,
                    "duration": 0.1907849999999982
                },
                {
                    "name": "G3",
                    "midi": 55,
                    "time": 60.66962999999988,
                    "velocity": 0.3779527559055118,
                    "duration": 0.20270906249999854
                },
                {
                    "name": "A#4",
                    "midi": 70,
                    "time": 60.860414999999875,
                    "velocity": 0.30708661417322836,
                    "duration": 0.20270906249999854
                },
                {
                    "name": "E4",
                    "midi": 64,
                    "time": 61.051199999999874,
                    "velocity": 0.28346456692913385,
                    "duration": 0.1907849999999982
                },
                {
                    "name": "C#4",
                    "midi": 61,
                    "time": 61.24198499999987,
                    "velocity": 0.3858267716535433,
                    "duration": 0.20270906249999854
                },
                {
                    "name": "A#4",
                    "midi": 70,
                    "time": 61.43276999999987,
                    "velocity": 0.3464566929133858,
                    "duration": 0.20270906249999854
                },
                {
                    "name": "E4",
                    "midi": 64,
                    "time": 61.62355499999987,
                    "velocity": 0.30708661417322836,
                    "duration": 0.1907849999999982
                },
                {
                    "name": "G#3",
                    "midi": 56,
                    "time": 61.814339999999866,
                    "velocity": 0.4330708661417323,
                    "duration": 0.20270906249999854
                },
                {
                    "name": "G#4",
                    "midi": 68,
                    "time": 62.005124999999865,
                    "velocity": 0.3543307086614173,
                    "duration": 0.20270906249999854
                },
                {
                    "name": "F4",
                    "midi": 65,
                    "time": 62.19590999999986,
                    "velocity": 0.3464566929133858,
                    "duration": 0.1907849999999982
                },
                {
                    "name": "C4",
                    "midi": 60,
                    "time": 62.38669499999986,
                    "velocity": 0.3937007874015748,
                    "duration": 0.20270906249999854
                },
                {
                    "name": "G#4",
                    "midi": 68,
                    "time": 62.57747999999986,
                    "velocity": 0.31496062992125984,
                    "duration": 0.20270906249999854
                },
                {
                    "name": "F4",
                    "midi": 65,
                    "time": 62.76826499999986,
                    "velocity": 0.31496062992125984,
                    "duration": 0.1907849999999982
                },
                {
                    "name": "A#2",
                    "midi": 46,
                    "time": 62.959049999999856,
                    "velocity": 0.3779527559055118,
                    "duration": 0.20270906250000564
                },
                {
                    "name": "C#4",
                    "midi": 61,
                    "time": 63.14983499999986,
                    "velocity": 0.29133858267716534,
                    "duration": 0.20270906249999854
                },
                {
                    "name": "G3",
                    "midi": 55,
                    "time": 63.34061999999986,
                    "velocity": 0.29133858267716534,
                    "duration": 0.1907849999999982
                },
                {
                    "name": "F3",
                    "midi": 53,
                    "time": 63.53140499999986,
                    "velocity": 0.3779527559055118,
                    "duration": 0.20270906249999854
                },
                {
                    "name": "C#4",
                    "midi": 61,
                    "time": 63.722189999999856,
                    "velocity": 0.29133858267716534,
                    "duration": 0.20270906249999854
                },
                {
                    "name": "G3",
                    "midi": 55,
                    "time": 63.912974999999854,
                    "velocity": 0.29133858267716534,
                    "duration": 0.1907849999999982
                },
                {
                    "name": "C3",
                    "midi": 48,
                    "time": 64.10375999999985,
                    "velocity": 0.3779527559055118,
                    "duration": 0.20270906250000564
                },
                {
                    "name": "C4",
                    "midi": 60,
                    "time": 64.29454499999986,
                    "velocity": 0.30708661417322836,
                    "duration": 0.20270906250000564
                },
                {
                    "name": "G#3",
                    "midi": 56,
                    "time": 64.48532999999986,
                    "velocity": 0.30708661417322836,
                    "duration": 0.1907850000000053
                },
                {
                    "name": "F3",
                    "midi": 53,
                    "time": 64.67611499999987,
                    "velocity": 0.3779527559055118,
                    "duration": 0.20270906250000564
                },
                {
                    "name": "C4",
                    "midi": 60,
                    "time": 64.86689999999987,
                    "velocity": 0.30708661417322836,
                    "duration": 0.20270906250000564
                },
                {
                    "name": "G#3",
                    "midi": 56,
                    "time": 65.05768499999988,
                    "velocity": 0.30708661417322836,
                    "duration": 0.1907850000000053
                },
                {
                    "name": "C3",
                    "midi": 48,
                    "time": 65.24846999999988,
                    "velocity": 0.3779527559055118,
                    "duration": 0.20270906250000564
                },
                {
                    "name": "E4",
                    "midi": 64,
                    "time": 65.43925499999989,
                    "velocity": 0.30708661417322836,
                    "duration": 0.20270906250000564
                },
                {
                    "name": "C4",
                    "midi": 60,
                    "time": 65.6300399999999,
                    "velocity": 0.31496062992125984,
                    "duration": 0.1907850000000053
                },
                {
                    "name": "G3",
                    "midi": 55,
                    "time": 65.8208249999999,
                    "velocity": 0.3858267716535433,
                    "duration": 0.20270906250000564
                },
                {
                    "name": "E4",
                    "midi": 64,
                    "time": 66.0116099999999,
                    "velocity": 0.3464566929133858,
                    "duration": 0.20270906250000564
                },
                {
                    "name": "A#3",
                    "midi": 58,
                    "time": 66.20239499999991,
                    "velocity": 0.3543307086614173,
                    "duration": 0.1907850000000053
                },
                {
                    "name": "F3",
                    "midi": 53,
                    "time": 66.39317999999992,
                    "velocity": 0.4015748031496063,
                    "duration": 0.20270906250000564
                },
                {
                    "name": "F4",
                    "midi": 65,
                    "time": 66.58396499999992,
                    "velocity": 0.3464566929133858,
                    "duration": 0.20270906250000564
                },
                {
                    "name": "C4",
                    "midi": 60,
                    "time": 66.77474999999993,
                    "velocity": 0.29133858267716534,
                    "duration": 0.1907850000000053
                },
                {
                    "name": "G#3",
                    "midi": 56,
                    "time": 66.96553499999993,
                    "velocity": 0.3779527559055118,
                    "duration": 0.20270906250000564
                },
                {
                    "name": "F4",
                    "midi": 65,
                    "time": 67.15631999999994,
                    "velocity": 0.2992125984251969,
                    "duration": 0.20270906250000564
                },
                {
                    "name": "C#4",
                    "midi": 61,
                    "time": 67.34710499999994,
                    "velocity": 0.2677165354330709,
                    "duration": 0.1907850000000053
                },
                {
                    "name": "E3",
                    "midi": 52,
                    "time": 67.53788999999995,
                    "velocity": 0.3779527559055118,
                    "duration": 0.20270906250000564
                },
                {
                    "name": "G4",
                    "midi": 67,
                    "time": 67.72867499999995,
                    "velocity": 0.29133858267716534,
                    "duration": 0.20270906250000564
                },
                {
                    "name": "C4",
                    "midi": 60,
                    "time": 67.91945999999996,
                    "velocity": 0.2440944881889764,
                    "duration": 0.1907850000000053
                },
                {
                    "name": "A#3",
                    "midi": 58,
                    "time": 68.11024499999996,
                    "velocity": 0.3779527559055118,
                    "duration": 0.20270906250000564
                },
                {
                    "name": "G4",
                    "midi": 67,
                    "time": 68.30102999999997,
                    "velocity": 0.29133858267716534,
                    "duration": 0.20270906250000564
                },
                {
                    "name": "C4",
                    "midi": 60,
                    "time": 68.49181499999997,
                    "velocity": 0.2677165354330709,
                    "duration": 0.1907850000000053
                },
                {
                    "name": "F3",
                    "midi": 53,
                    "time": 68.68259999999998,
                    "velocity": 0.3779527559055118,
                    "duration": 0.20270906250000564
                },
                {
                    "name": "G#4",
                    "midi": 68,
                    "time": 68.87338499999998,
                    "velocity": 0.30708661417322836,
                    "duration": 0.20270906250000564
                },
                {
                    "name": "C4",
                    "midi": 60,
                    "time": 69.06416999999999,
                    "velocity": 0.2677165354330709,
                    "duration": 0.1907850000000053
                },
                {
                    "name": "G#3",
                    "midi": 56,
                    "time": 69.254955,
                    "velocity": 0.3779527559055118,
                    "duration": 0.20270906250000564
                },
                {
                    "name": "G#4",
                    "midi": 68,
                    "time": 69.44574,
                    "velocity": 0.30708661417322836,
                    "duration": 0.20270906250000564
                },
                {
                    "name": "C4",
                    "midi": 60,
                    "time": 69.636525,
                    "velocity": 0.2755905511811024,
                    "duration": 0.1907850000000053
                },
                {
                    "name": "G3",
                    "midi": 55,
                    "time": 69.82731000000001,
                    "velocity": 0.3779527559055118,
                    "duration": 0.20270906250000564
                },
                {
                    "name": "A#4",
                    "midi": 70,
                    "time": 70.01809500000002,
                    "velocity": 0.30708661417322836,
                    "duration": 0.20270906250000564
                },
                {
                    "name": "E4",
                    "midi": 64,
                    "time": 70.20888000000002,
                    "velocity": 0.33070866141732286,
                    "duration": 0.1907850000000053
                },
                {
                    "name": "C#4",
                    "midi": 61,
                    "time": 70.39966500000003,
                    "velocity": 0.4015748031496063,
                    "duration": 0.20270906250000564
                },
                {
                    "name": "A#4",
                    "midi": 70,
                    "time": 70.59045000000003,
                    "velocity": 0.36220472440944884,
                    "duration": 0.20270906250000564
                },
                {
                    "name": "D#4",
                    "midi": 63,
                    "time": 70.78123500000004,
                    "velocity": 0.3543307086614173,
                    "duration": 0.1907850000000053
                },
                {
                    "name": "G#3",
                    "midi": 56,
                    "time": 70.97202000000004,
                    "velocity": 0.4645669291338583,
                    "duration": 0.20270906249999143
                },
                {
                    "name": "G#4",
                    "midi": 68,
                    "time": 71.16280500000003,
                    "velocity": 0.3779527559055118,
                    "duration": 0.20270906250000564
                },
                {
                    "name": "F4",
                    "midi": 65,
                    "time": 71.35359000000004,
                    "velocity": 0.3779527559055118,
                    "duration": 0.1907850000000053
                },
                {
                    "name": "C4",
                    "midi": 60,
                    "time": 71.54437500000004,
                    "velocity": 0.41732283464566927,
                    "duration": 0.20270906250000564
                },
                {
                    "name": "G#4",
                    "midi": 68,
                    "time": 71.73516000000005,
                    "velocity": 0.3543307086614173,
                    "duration": 0.20270906250000564
                },
                {
                    "name": "F4",
                    "midi": 65,
                    "time": 71.92594500000006,
                    "velocity": 0.3543307086614173,
                    "duration": 0.1907850000000053
                },
                {
                    "name": "A#2",
                    "midi": 46,
                    "time": 72.11673000000006,
                    "velocity": 0.4015748031496063,
                    "duration": 0.20270906249999143
                },
                {
                    "name": "C#4",
                    "midi": 61,
                    "time": 72.30751500000005,
                    "velocity": 0.33070866141732286,
                    "duration": 0.20270906250000564
                },
                {
                    "name": "G3",
                    "midi": 55,
                    "time": 72.49830000000006,
                    "velocity": 0.30708661417322836,
                    "duration": 0.1907850000000053
                },
                {
                    "name": "F3",
                    "midi": 53,
                    "time": 72.68908500000006,
                    "velocity": 0.3464566929133858,
                    "duration": 0.20270906250000564
                },
                {
                    "name": "C#4",
                    "midi": 61,
                    "time": 72.87987000000007,
                    "velocity": 0.28346456692913385,
                    "duration": 0.20270906250000564
                },
                {
                    "name": "G3",
                    "midi": 55,
                    "time": 73.07065500000007,
                    "velocity": 0.28346456692913385,
                    "duration": 0.1907850000000053
                },
                {
                    "name": "C3",
                    "midi": 48,
                    "time": 73.26144000000008,
                    "velocity": 0.33070866141732286,
                    "duration": 0.20270906249999143
                },
                {
                    "name": "F4",
                    "midi": 65,
                    "time": 73.45222500000007,
                    "velocity": 0.2755905511811024,
                    "duration": 0.20270906250000564
                },
                {
                    "name": "C4",
                    "midi": 60,
                    "time": 73.64301000000007,
                    "velocity": 0.2755905511811024,
                    "duration": 0.1907850000000053
                },
                {
                    "name": "G#3",
                    "midi": 56,
                    "time": 73.83379500000008,
                    "velocity": 0.3228346456692913,
                    "duration": 0.20270906250000564
                },
                {
                    "name": "F4",
                    "midi": 65,
                    "time": 74.02458000000009,
                    "velocity": 0.2755905511811024,
                    "duration": 0.20270906250000564
                },
                {
                    "name": "C4",
                    "midi": 60,
                    "time": 74.21536500000009,
                    "velocity": 0.2677165354330709,
                    "duration": 0.1907850000000053
                },
                {
                    "name": "C3",
                    "midi": 48,
                    "time": 74.4061500000001,
                    "velocity": 0.31496062992125984,
                    "duration": 0.20270906250000564
                },
                {
                    "name": "D#4",
                    "midi": 63,
                    "time": 74.5969350000001,
                    "velocity": 0.25984251968503935,
                    "duration": 0.20270906250000564
                },
                {
                    "name": "G3",
                    "midi": 55,
                    "time": 74.7877200000001,
                    "velocity": 0.25984251968503935,
                    "duration": 0.1907850000000053
                },
                {
                    "name": "F3",
                    "midi": 53,
                    "time": 74.97850500000011,
                    "velocity": 0.30708661417322836,
                    "duration": 0.20270906250000564
                },
                {
                    "name": "C#4",
                    "midi": 61,
                    "time": 75.16929000000012,
                    "velocity": 0.25984251968503935,
                    "duration": 0.20270906250000564
                },
                {
                    "name": "E3",
                    "midi": 52,
                    "time": 75.36007500000012,
                    "velocity": 0.23622047244094488,
                    "duration": 0.1907850000000053
                },
                {
                    "name": "F3",
                    "midi": 53,
                    "time": 75.55086000000013,
                    "velocity": 0.30708661417322836,
                    "duration": 0.20270906249999143
                },
                {
                    "name": "G#4",
                    "midi": 68,
                    "time": 75.74164500000012,
                    "velocity": 0.2755905511811024,
                    "duration": 0.20270906250000564
                },
                {
                    "name": "C4",
                    "midi": 60,
                    "time": 75.93243000000012,
                    "velocity": 0.2440944881889764,
                    "duration": 0.1907850000000053
                },
                {
                    "name": "A#3",
                    "midi": 58,
                    "time": 76.12321500000013,
                    "velocity": 0.28346456692913385,
                    "duration": 0.20270906250000564
                },
                {
                    "name": "G4",
                    "midi": 67,
                    "time": 76.31400000000014,
                    "velocity": 0.2125984251968504,
                    "duration": 0.20270906250000564
                },
                {
                    "name": "C#4",
                    "midi": 61,
                    "time": 76.50478500000014,
                    "velocity": 0.2047244094488189,
                    "duration": 0.1907850000000053
                },
                {
                    "name": "F3",
                    "midi": 53,
                    "time": 76.69557000000015,
                    "velocity": 0.28346456692913385,
                    "duration": 0.20270906249999143
                },
                {
                    "name": "G#4",
                    "midi": 68,
                    "time": 76.88635500000014,
                    "velocity": 0.2204724409448819,
                    "duration": 0.20270906250000564
                },
                {
                    "name": "C4",
                    "midi": 60,
                    "time": 77.07714000000014,
                    "velocity": 0.2204724409448819,
                    "duration": 0.1907850000000053
                },
                {
                    "name": "A#3",
                    "midi": 58,
                    "time": 77.26792500000015,
                    "velocity": 0.2755905511811024,
                    "duration": 0.20270906249999143
                },
                {
                    "name": "G4",
                    "midi": 67,
                    "time": 77.45871000000014,
                    "velocity": 0.2440944881889764,
                    "duration": 0.20270906250000564
                },
                {
                    "name": "C#4",
                    "midi": 61,
                    "time": 77.64949500000014,
                    "velocity": 0.2204724409448819,
                    "duration": 0.47696249999999907
                },
                {
                    "name": "F3",
                    "midi": 53,
                    "time": 78.12645750000014,
                    "velocity": 0.2125984251968504,
                    "duration": 2.289420000000007
                },
                {
                    "name": "C4",
                    "midi": 60,
                    "time": 78.19800187500014,
                    "velocity": 0.25984251968503935,
                    "duration": 2.217875625000005
                }
            ],
            "controlChanges": {
                "7": [
                    {
                        "number": 7,
                        "time": 0,
                        "value": 0.7874015748031497
                    }
                ],
                "10": [
                    {
                        "number": 10,
                        "time": 0,
                        "value": 0.5039370078740157
                    }
                ],
                "64": [
                    {
                        "number": 64,
                        "time": 0,
                        "value": 0
                    },
                    {
                        "number": 64,
                        "time": 5.7640918125,
                        "value": 1
                    },
                    {
                        "number": 64,
                        "time": 6.3030594375,
                        "value": 0
                    },
                    {
                        "number": 64,
                        "time": 6.33048478125,
                        "value": 1
                    },
                    {
                        "number": 64,
                        "time": 6.87899165625,
                        "value": 0
                    },
                    {
                        "number": 64,
                        "time": 8.07139790625,
                        "value": 1
                    },
                    {
                        "number": 64,
                        "time": 8.609173125000002,
                        "value": 0
                    },
                    {
                        "number": 64,
                        "time": 8.649714937500002,
                        "value": 1
                    },
                    {
                        "number": 64,
                        "time": 9.164834437500003,
                        "value": 0
                    },
                    {
                        "number": 64,
                        "time": 18.35947903125002,
                        "value": 1
                    },
                    {
                        "number": 64,
                        "time": 18.898446656250027,
                        "value": 0
                    },
                    {
                        "number": 64,
                        "time": 19.50418903125003,
                        "value": 1
                    },
                    {
                        "number": 64,
                        "time": 20.04554146875003,
                        "value": 0
                    },
                    {
                        "number": 64,
                        "time": 20.648899031250032,
                        "value": 1
                    },
                    {
                        "number": 64,
                        "time": 21.185481843750036,
                        "value": 0
                    },
                    {
                        "number": 64,
                        "time": 21.228408468750036,
                        "value": 1
                    },
                    {
                        "number": 64,
                        "time": 22.86319743750004,
                        "value": 0
                    },
                    {
                        "number": 64,
                        "time": 27.51358181250008,
                        "value": 1
                    },
                    {
                        "number": 64,
                        "time": 28.052549437500083,
                        "value": 0
                    },
                    {
                        "number": 64,
                        "time": 28.079974781250083,
                        "value": 1
                    },
                    {
                        "number": 64,
                        "time": 28.628481656250088,
                        "value": 0
                    },
                    {
                        "number": 64,
                        "time": 29.820887906250096,
                        "value": 1
                    },
                    {
                        "number": 64,
                        "time": 30.3562783125001,
                        "value": 0
                    },
                    {
                        "number": 64,
                        "time": 30.399204937500098,
                        "value": 1
                    },
                    {
                        "number": 64,
                        "time": 30.9071700000001,
                        "value": 0
                    },
                    {
                        "number": 64,
                        "time": 40.108969031250034,
                        "value": 1
                    },
                    {
                        "number": 64,
                        "time": 40.64674425000003,
                        "value": 0
                    },
                    {
                        "number": 64,
                        "time": 41.25367903125003,
                        "value": 1
                    },
                    {
                        "number": 64,
                        "time": 41.79383906250003,
                        "value": 0
                    },
                    {
                        "number": 64,
                        "time": 42.39838903125002,
                        "value": 1
                    },
                    {
                        "number": 64,
                        "time": 42.938549062500016,
                        "value": 0
                    },
                    {
                        "number": 64,
                        "time": 42.97789846875001,
                        "value": 1
                    },
                    {
                        "number": 64,
                        "time": 44.07968184375,
                        "value": 0
                    },
                    {
                        "number": 64,
                        "time": 44.68780903125,
                        "value": 1
                    },
                    {
                        "number": 64,
                        "time": 45.226776656249996,
                        "value": 0
                    },
                    {
                        "number": 64,
                        "time": 45.83251903124999,
                        "value": 1
                    },
                    {
                        "number": 64,
                        "time": 46.36910184374998,
                        "value": 0
                    },
                    {
                        "number": 64,
                        "time": 46.977229031249976,
                        "value": 1
                    },
                    {
                        "number": 64,
                        "time": 47.51381184374997,
                        "value": 0
                    },
                    {
                        "number": 64,
                        "time": 48.12551624999997,
                        "value": 1
                    },
                    {
                        "number": 64,
                        "time": 48.66329146874996,
                        "value": 0
                    },
                    {
                        "number": 64,
                        "time": 49.27022624999996,
                        "value": 1
                    },
                    {
                        "number": 64,
                        "time": 49.804424249999954,
                        "value": 0
                    },
                    {
                        "number": 64,
                        "time": 56.1349090312499,
                        "value": 1
                    },
                    {
                        "number": 64,
                        "time": 56.673876656249895,
                        "value": 0
                    },
                    {
                        "number": 64,
                        "time": 56.7144184687499,
                        "value": 1
                    },
                    {
                        "number": 64,
                        "time": 58.3492074374999,
                        "value": 0
                    },
                    {
                        "number": 64,
                        "time": 62.99959181249986,
                        "value": 1
                    },
                    {
                        "number": 64,
                        "time": 63.538559437499856,
                        "value": 0
                    },
                    {
                        "number": 64,
                        "time": 63.56598478124985,
                        "value": 1
                    },
                    {
                        "number": 64,
                        "time": 64.11449165624985,
                        "value": 0
                    },
                    {
                        "number": 64,
                        "time": 65.30689790624989,
                        "value": 1
                    },
                    {
                        "number": 64,
                        "time": 65.8410959062499,
                        "value": 0
                    },
                    {
                        "number": 64,
                        "time": 65.88521493749991,
                        "value": 1
                    },
                    {
                        "number": 64,
                        "time": 66.40152684374992,
                        "value": 0
                    },
                    {
                        "number": 64,
                        "time": 71.06025806250004,
                        "value": 1
                    },
                    {
                        "number": 64,
                        "time": 72.12984646875006,
                        "value": 0
                    },
                    {
                        "number": 64,
                        "time": 72.15727181250006,
                        "value": 1
                    },
                    {
                        "number": 64,
                        "time": 73.27455646875008,
                        "value": 0
                    },
                    {
                        "number": 64,
                        "time": 73.30198181250007,
                        "value": 1
                    },
                    {
                        "number": 64,
                        "time": 73.85645071875008,
                        "value": 0
                    },
                    {
                        "number": 64,
                        "time": 75.60571068750012,
                        "value": 1
                    },
                    {
                        "number": 64,
                        "time": 76.13633146875013,
                        "value": 0
                    },
                    {
                        "number": 64,
                        "time": 76.75042068750014,
                        "value": 1
                    },
                    {
                        "number": 64,
                        "time": 77.28342628125014,
                        "value": 0
                    },
                    {
                        "number": 64,
                        "time": 78.20634871875015,
                        "value": 1
                    },
                    {
                        "number": 64,
                        "time": 80.95603753125015,
                        "value": 0
                    }
                ]
            },
            "id": 2,
            "name": "Piano left",
            "instrumentNumber": 0,
            "instrument": "acoustic grand piano",
            "instrumentFamily": "piano",
            "channelNumber": 0,
            "isPercussion": false
        },
        {
            "startTime": 0,
            "duration": 0,
            "length": 0,
            "notes": [],
            "controlChanges": {},
            "id": 3,
            "name": "Chopin: Etude No.2 in F Minor Op. 25"
        },
        {
            "startTime": 0,
            "duration": 0,
            "length": 0,
            "notes": [],
            "controlChanges": {},
            "id": 4,
            "name": "Copyright  2003 by Bernd Krueger"
        },
        {
            "startTime": 0,
            "duration": 0,
            "length": 0,
            "notes": [],
            "controlChanges": {},
            "id": 5,
            "name": "http://www.piano-midi.de"
        },
        {
            "startTime": 0,
            "duration": 0,
            "length": 0,
            "notes": [],
            "controlChanges": {},
            "id": 6,
            "name": "Edition: 2014-02-16"
        },
        {
            "startTime": 0,
            "duration": 0,
            "length": 0,
            "notes": [],
            "controlChanges": {},
            "id": 7,
            "name": "Spur 7"
        }
    ]
}