{
    "header": {
        "PPQ": 480,
        "timeSignature": [
            3,
            4
        ],
        "bpm": 170.20021218293118,
        "name": "Grieg: Lyrische St체cke, B채chlein, Opus 62 Nr. 4"
    },
    "startTime": 0,
    "duration": 82.93174150000101,
    "tracks": [
        {
            "startTime": 0,
            "duration": 0,
            "length": 0,
            "notes": [],
            "controlChanges": {},
            "id": 0,
            "name": "Grieg: Lyrische St체cke, B채chlein, Opus 62 Nr. 4"
        },
        {
            "startTime": 0,
            "duration": 82.93174150000101,
            "length": 705,
            "notes": [
                {
                    "name": "B4",
                    "midi": 71,
                    "time": 0,
                    "velocity": 0.3543307086614173,
                    "duration": 0.0881315
                },
                {
                    "name": "D5",
                    "midi": 74,
                    "time": 0.0881315,
                    "velocity": 0.2677165354330709,
                    "duration": 0.0881315
                },
                {
                    "name": "C#5",
                    "midi": 73,
                    "time": 0.176263,
                    "velocity": 0.2992125984251969,
                    "duration": 0.08813149999999997
                },
                {
                    "name": "E5",
                    "midi": 76,
                    "time": 0.2643945,
                    "velocity": 0.25196850393700787,
                    "duration": 0.08813150000000003
                },
                {
                    "name": "D5",
                    "midi": 74,
                    "time": 0.352526,
                    "velocity": 0.2755905511811024,
                    "duration": 0.08813150000000003
                },
                {
                    "name": "F#5",
                    "midi": 78,
                    "time": 0.44065750000000004,
                    "velocity": 0.2283464566929134,
                    "duration": 0.08813150000000003
                },
                {
                    "name": "E5",
                    "midi": 76,
                    "time": 0.5287890000000001,
                    "velocity": 0.2440944881889764,
                    "duration": 0.08813150000000003
                },
                {
                    "name": "G5",
                    "midi": 79,
                    "time": 0.6169205000000001,
                    "velocity": 0.2047244094488189,
                    "duration": 0.08813150000000003
                },
                {
                    "name": "D5",
                    "midi": 74,
                    "time": 0.7050520000000001,
                    "velocity": 0.23622047244094488,
                    "duration": 0.08813150000000003
                },
                {
                    "name": "F#5",
                    "midi": 78,
                    "time": 0.7050520000000001,
                    "velocity": 0.23622047244094488,
                    "duration": 0.08813150000000003
                },
                {
                    "name": "B4",
                    "midi": 71,
                    "time": 1.0575780000000001,
                    "velocity": 0.3543307086614173,
                    "duration": 0.08813150000000003
                },
                {
                    "name": "D5",
                    "midi": 74,
                    "time": 1.1457095000000002,
                    "velocity": 0.2677165354330709,
                    "duration": 0.08813150000000003
                },
                {
                    "name": "C#5",
                    "midi": 73,
                    "time": 1.2338410000000002,
                    "velocity": 0.2992125984251969,
                    "duration": 0.08813150000000003
                },
                {
                    "name": "E5",
                    "midi": 76,
                    "time": 1.3219725000000002,
                    "velocity": 0.25196850393700787,
                    "duration": 0.08813150000000003
                },
                {
                    "name": "D5",
                    "midi": 74,
                    "time": 1.4101040000000002,
                    "velocity": 0.28346456692913385,
                    "duration": 0.08813150000000003
                },
                {
                    "name": "F#5",
                    "midi": 78,
                    "time": 1.4982355000000003,
                    "velocity": 0.2283464566929134,
                    "duration": 0.08813150000000003
                },
                {
                    "name": "E5",
                    "midi": 76,
                    "time": 1.5863670000000003,
                    "velocity": 0.25196850393700787,
                    "duration": 0.08813150000000003
                },
                {
                    "name": "G5",
                    "midi": 79,
                    "time": 1.6744985000000003,
                    "velocity": 0.2125984251968504,
                    "duration": 0.08813150000000003
                },
                {
                    "name": "D5",
                    "midi": 74,
                    "time": 1.7626300000000004,
                    "velocity": 0.25196850393700787,
                    "duration": 0.08813150000000003
                },
                {
                    "name": "F#5",
                    "midi": 78,
                    "time": 1.7626300000000004,
                    "velocity": 0.25196850393700787,
                    "duration": 0.08813150000000003
                },
                {
                    "name": "G5",
                    "midi": 79,
                    "time": 2.1151560000000003,
                    "velocity": 0.3858267716535433,
                    "duration": 0.08813149999999981
                },
                {
                    "name": "B5",
                    "midi": 83,
                    "time": 2.2032875,
                    "velocity": 0.30708661417322836,
                    "duration": 0.08813149999999981
                },
                {
                    "name": "F#5",
                    "midi": 78,
                    "time": 2.291419,
                    "velocity": 0.3464566929133858,
                    "duration": 0.08813149999999981
                },
                {
                    "name": "A5",
                    "midi": 81,
                    "time": 2.3795504999999997,
                    "velocity": 0.2992125984251969,
                    "duration": 0.08813149999999981
                },
                {
                    "name": "E5",
                    "midi": 76,
                    "time": 2.4676819999999995,
                    "velocity": 0.33858267716535434,
                    "duration": 0.08813149999999981
                },
                {
                    "name": "G5",
                    "midi": 79,
                    "time": 2.5558134999999993,
                    "velocity": 0.28346456692913385,
                    "duration": 0.08813149999999981
                },
                {
                    "name": "D5",
                    "midi": 74,
                    "time": 2.643944999999999,
                    "velocity": 0.3228346456692913,
                    "duration": 0.08813149999999981
                },
                {
                    "name": "F#5",
                    "midi": 78,
                    "time": 2.732076499999999,
                    "velocity": 0.28346456692913385,
                    "duration": 0.08813149999999981
                },
                {
                    "name": "C#5",
                    "midi": 73,
                    "time": 2.8202079999999987,
                    "velocity": 0.3464566929133858,
                    "duration": 0.08813149999999981
                },
                {
                    "name": "E5",
                    "midi": 76,
                    "time": 2.8202079999999987,
                    "velocity": 0.3464566929133858,
                    "duration": 0.08813149999999981
                },
                {
                    "name": "F#5",
                    "midi": 78,
                    "time": 3.1727339999999984,
                    "velocity": 0.3858267716535433,
                    "duration": 0.08813149999999981
                },
                {
                    "name": "A5",
                    "midi": 81,
                    "time": 3.260865499999998,
                    "velocity": 0.30708661417322836,
                    "duration": 0.08813149999999981
                },
                {
                    "name": "E5",
                    "midi": 76,
                    "time": 3.348996999999998,
                    "velocity": 0.3464566929133858,
                    "duration": 0.08813149999999981
                },
                {
                    "name": "G5",
                    "midi": 79,
                    "time": 3.437128499999998,
                    "velocity": 0.2992125984251969,
                    "duration": 0.08813149999999981
                },
                {
                    "name": "D5",
                    "midi": 74,
                    "time": 3.5252599999999976,
                    "velocity": 0.33858267716535434,
                    "duration": 0.08813149999999981
                },
                {
                    "name": "F#5",
                    "midi": 78,
                    "time": 3.6133914999999974,
                    "velocity": 0.28346456692913385,
                    "duration": 0.08813149999999981
                },
                {
                    "name": "C#5",
                    "midi": 73,
                    "time": 3.7015229999999972,
                    "velocity": 0.3228346456692913,
                    "duration": 0.08813149999999981
                },
                {
                    "name": "E5",
                    "midi": 76,
                    "time": 3.789654499999997,
                    "velocity": 0.28346456692913385,
                    "duration": 0.08813149999999981
                },
                {
                    "name": "B4",
                    "midi": 71,
                    "time": 3.877785999999997,
                    "velocity": 0.3464566929133858,
                    "duration": 0.08813149999999981
                },
                {
                    "name": "D5",
                    "midi": 74,
                    "time": 3.877785999999997,
                    "velocity": 0.3464566929133858,
                    "duration": 0.08813149999999981
                },
                {
                    "name": "D5",
                    "midi": 74,
                    "time": 4.318443499999996,
                    "velocity": 0.3543307086614173,
                    "duration": 0.08813150000000025
                },
                {
                    "name": "C#5",
                    "midi": 73,
                    "time": 4.406574999999997,
                    "velocity": 0.3937007874015748,
                    "duration": 0.08813150000000025
                },
                {
                    "name": "E5",
                    "midi": 76,
                    "time": 4.494706499999997,
                    "velocity": 0.3543307086614173,
                    "duration": 0.08813150000000025
                },
                {
                    "name": "D5",
                    "midi": 74,
                    "time": 4.582837999999997,
                    "velocity": 0.4015748031496063,
                    "duration": 0.08813150000000025
                },
                {
                    "name": "F#5",
                    "midi": 78,
                    "time": 4.670969499999997,
                    "velocity": 0.3543307086614173,
                    "duration": 0.08813150000000025
                },
                {
                    "name": "E5",
                    "midi": 76,
                    "time": 4.759100999999998,
                    "velocity": 0.4094488188976378,
                    "duration": 0.08813150000000025
                },
                {
                    "name": "G5",
                    "midi": 79,
                    "time": 4.847232499999998,
                    "velocity": 0.3700787401574803,
                    "duration": 0.08813150000000025
                },
                {
                    "name": "D5",
                    "midi": 74,
                    "time": 4.935363999999998,
                    "velocity": 0.41732283464566927,
                    "duration": 0.08813150000000025
                },
                {
                    "name": "F#5",
                    "midi": 78,
                    "time": 4.935363999999998,
                    "velocity": 0.41732283464566927,
                    "duration": 0.08813150000000025
                },
                {
                    "name": "D5",
                    "midi": 74,
                    "time": 5.3760214999999985,
                    "velocity": 0.3543307086614173,
                    "duration": 0.08813150000000025
                },
                {
                    "name": "C#5",
                    "midi": 73,
                    "time": 5.464152999999999,
                    "velocity": 0.3937007874015748,
                    "duration": 0.08813150000000025
                },
                {
                    "name": "E5",
                    "midi": 76,
                    "time": 5.552284499999999,
                    "velocity": 0.3543307086614173,
                    "duration": 0.08813150000000025
                },
                {
                    "name": "D5",
                    "midi": 74,
                    "time": 5.640415999999999,
                    "velocity": 0.4015748031496063,
                    "duration": 0.08813150000000025
                },
                {
                    "name": "F#5",
                    "midi": 78,
                    "time": 5.7285474999999995,
                    "velocity": 0.3543307086614173,
                    "duration": 0.08813150000000025
                },
                {
                    "name": "E5",
                    "midi": 76,
                    "time": 5.816679,
                    "velocity": 0.4094488188976378,
                    "duration": 0.08813150000000025
                },
                {
                    "name": "G5",
                    "midi": 79,
                    "time": 5.9048105,
                    "velocity": 0.3700787401574803,
                    "duration": 0.08813150000000025
                },
                {
                    "name": "D5",
                    "midi": 74,
                    "time": 5.992942,
                    "velocity": 0.41732283464566927,
                    "duration": 0.08813150000000025
                },
                {
                    "name": "F#5",
                    "midi": 78,
                    "time": 5.992942,
                    "velocity": 0.41732283464566927,
                    "duration": 0.08813150000000025
                },
                {
                    "name": "D5",
                    "midi": 74,
                    "time": 6.345468,
                    "velocity": 0.48031496062992124,
                    "duration": 0.08813150000000025
                },
                {
                    "name": "F#5",
                    "midi": 78,
                    "time": 6.433599500000001,
                    "velocity": 0.4251968503937008,
                    "duration": 0.08813150000000025
                },
                {
                    "name": "C#5",
                    "midi": 73,
                    "time": 6.521731000000001,
                    "velocity": 0.48031496062992124,
                    "duration": 0.08813150000000025
                },
                {
                    "name": "E5",
                    "midi": 76,
                    "time": 6.609862500000001,
                    "velocity": 0.4566929133858268,
                    "duration": 0.08813150000000025
                },
                {
                    "name": "B4",
                    "midi": 71,
                    "time": 6.697994000000001,
                    "velocity": 0.5118110236220472,
                    "duration": 0.08813150000000025
                },
                {
                    "name": "D5",
                    "midi": 74,
                    "time": 6.786125500000002,
                    "velocity": 0.4645669291338583,
                    "duration": 0.08813150000000025
                },
                {
                    "name": "A#4",
                    "midi": 70,
                    "time": 6.874257000000002,
                    "velocity": 0.5511811023622047,
                    "duration": 0.08813150000000025
                },
                {
                    "name": "C#5",
                    "midi": 73,
                    "time": 6.962388500000002,
                    "velocity": 0.4566929133858268,
                    "duration": 0.08813150000000025
                },
                {
                    "name": "B4",
                    "midi": 71,
                    "time": 7.050520000000002,
                    "velocity": 0.5669291338582677,
                    "duration": 0.08813150000000025
                },
                {
                    "name": "D5",
                    "midi": 74,
                    "time": 7.138651500000003,
                    "velocity": 0.5039370078740157,
                    "duration": 0.08813150000000025
                },
                {
                    "name": "C#5",
                    "midi": 73,
                    "time": 7.226783000000003,
                    "velocity": 0.5669291338582677,
                    "duration": 0.08813150000000025
                },
                {
                    "name": "E5",
                    "midi": 76,
                    "time": 7.314914500000003,
                    "velocity": 0.5118110236220472,
                    "duration": 0.08813150000000025
                },
                {
                    "name": "B4",
                    "midi": 71,
                    "time": 7.403046000000003,
                    "velocity": 0.5354330708661418,
                    "duration": 0.3525260000000001
                },
                {
                    "name": "F#5",
                    "midi": 78,
                    "time": 7.403046000000003,
                    "velocity": 0.6299212598425197,
                    "duration": 0.8813150000000007
                },
                {
                    "name": "C#5",
                    "midi": 73,
                    "time": 7.403046000000003,
                    "velocity": 0.6299212598425197,
                    "duration": 0.8813150000000007
                },
                {
                    "name": "A#4",
                    "midi": 70,
                    "time": 7.7555720000000035,
                    "velocity": 0.4094488188976378,
                    "duration": 0.5287890000000006
                },
                {
                    "name": "B4",
                    "midi": 71,
                    "time": 8.460624000000005,
                    "velocity": 0.3543307086614173,
                    "duration": 0.08813149999999936
                },
                {
                    "name": "D5",
                    "midi": 74,
                    "time": 8.548755500000004,
                    "velocity": 0.2677165354330709,
                    "duration": 0.08813149999999936
                },
                {
                    "name": "C#5",
                    "midi": 73,
                    "time": 8.636887000000003,
                    "velocity": 0.2992125984251969,
                    "duration": 0.08813149999999936
                },
                {
                    "name": "E5",
                    "midi": 76,
                    "time": 8.725018500000003,
                    "velocity": 0.25196850393700787,
                    "duration": 0.08813149999999936
                },
                {
                    "name": "D5",
                    "midi": 74,
                    "time": 8.813150000000002,
                    "velocity": 0.2755905511811024,
                    "duration": 0.08813149999999936
                },
                {
                    "name": "F#5",
                    "midi": 78,
                    "time": 8.901281500000001,
                    "velocity": 0.2283464566929134,
                    "duration": 0.08813149999999936
                },
                {
                    "name": "E5",
                    "midi": 76,
                    "time": 8.989413,
                    "velocity": 0.2440944881889764,
                    "duration": 0.08813149999999936
                },
                {
                    "name": "G5",
                    "midi": 79,
                    "time": 9.0775445,
                    "velocity": 0.2047244094488189,
                    "duration": 0.08813149999999936
                },
                {
                    "name": "D5",
                    "midi": 74,
                    "time": 9.165676,
                    "velocity": 0.23622047244094488,
                    "duration": 0.08813149999999936
                },
                {
                    "name": "F#5",
                    "midi": 78,
                    "time": 9.165676,
                    "velocity": 0.23622047244094488,
                    "duration": 0.08813149999999936
                },
                {
                    "name": "B4",
                    "midi": 71,
                    "time": 9.518201999999999,
                    "velocity": 0.3543307086614173,
                    "duration": 0.08813149999999936
                },
                {
                    "name": "D5",
                    "midi": 74,
                    "time": 9.606333499999998,
                    "velocity": 0.2677165354330709,
                    "duration": 0.08813149999999936
                },
                {
                    "name": "C#5",
                    "midi": 73,
                    "time": 9.694464999999997,
                    "velocity": 0.2992125984251969,
                    "duration": 0.08813149999999936
                },
                {
                    "name": "E5",
                    "midi": 76,
                    "time": 9.782596499999997,
                    "velocity": 0.25196850393700787,
                    "duration": 0.08813149999999936
                },
                {
                    "name": "D5",
                    "midi": 74,
                    "time": 9.870727999999996,
                    "velocity": 0.2755905511811024,
                    "duration": 0.08813149999999936
                },
                {
                    "name": "F#5",
                    "midi": 78,
                    "time": 9.958859499999996,
                    "velocity": 0.2283464566929134,
                    "duration": 0.08813149999999936
                },
                {
                    "name": "E5",
                    "midi": 76,
                    "time": 10.046990999999995,
                    "velocity": 0.2440944881889764,
                    "duration": 0.08813149999999936
                },
                {
                    "name": "G5",
                    "midi": 79,
                    "time": 10.135122499999994,
                    "velocity": 0.2047244094488189,
                    "duration": 0.08813149999999936
                },
                {
                    "name": "D5",
                    "midi": 74,
                    "time": 10.223253999999994,
                    "velocity": 0.23622047244094488,
                    "duration": 0.08813149999999936
                },
                {
                    "name": "F#5",
                    "midi": 78,
                    "time": 10.223253999999994,
                    "velocity": 0.23622047244094488,
                    "duration": 0.08813149999999936
                },
                {
                    "name": "G5",
                    "midi": 79,
                    "time": 10.575779999999993,
                    "velocity": 0.3858267716535433,
                    "duration": 0.08813149999999936
                },
                {
                    "name": "B5",
                    "midi": 83,
                    "time": 10.663911499999992,
                    "velocity": 0.30708661417322836,
                    "duration": 0.08813149999999936
                },
                {
                    "name": "F#5",
                    "midi": 78,
                    "time": 10.752042999999992,
                    "velocity": 0.3464566929133858,
                    "duration": 0.08813149999999936
                },
                {
                    "name": "A5",
                    "midi": 81,
                    "time": 10.840174499999991,
                    "velocity": 0.2992125984251969,
                    "duration": 0.08813149999999936
                },
                {
                    "name": "E5",
                    "midi": 76,
                    "time": 10.92830599999999,
                    "velocity": 0.33858267716535434,
                    "duration": 0.08813149999999936
                },
                {
                    "name": "G5",
                    "midi": 79,
                    "time": 11.01643749999999,
                    "velocity": 0.28346456692913385,
                    "duration": 0.08813149999999936
                },
                {
                    "name": "D5",
                    "midi": 74,
                    "time": 11.104568999999989,
                    "velocity": 0.3228346456692913,
                    "duration": 0.08813149999999936
                },
                {
                    "name": "F#5",
                    "midi": 78,
                    "time": 11.192700499999988,
                    "velocity": 0.28346456692913385,
                    "duration": 0.08813149999999936
                },
                {
                    "name": "C#5",
                    "midi": 73,
                    "time": 11.280831999999988,
                    "velocity": 0.3464566929133858,
                    "duration": 0.08813149999999936
                },
                {
                    "name": "E5",
                    "midi": 76,
                    "time": 11.280831999999988,
                    "velocity": 0.3464566929133858,
                    "duration": 0.08813149999999936
                },
                {
                    "name": "F#5",
                    "midi": 78,
                    "time": 11.633357999999987,
                    "velocity": 0.3858267716535433,
                    "duration": 0.08813149999999936
                },
                {
                    "name": "A5",
                    "midi": 81,
                    "time": 11.721489499999986,
                    "velocity": 0.30708661417322836,
                    "duration": 0.08813149999999936
                },
                {
                    "name": "E5",
                    "midi": 76,
                    "time": 11.809620999999986,
                    "velocity": 0.3464566929133858,
                    "duration": 0.08813149999999936
                },
                {
                    "name": "G5",
                    "midi": 79,
                    "time": 11.897752499999985,
                    "velocity": 0.2992125984251969,
                    "duration": 0.08813149999999936
                },
                {
                    "name": "D5",
                    "midi": 74,
                    "time": 11.985883999999984,
                    "velocity": 0.33858267716535434,
                    "duration": 0.08813149999999936
                },
                {
                    "name": "F#5",
                    "midi": 78,
                    "time": 12.074015499999984,
                    "velocity": 0.28346456692913385,
                    "duration": 0.08813149999999936
                },
                {
                    "name": "C#5",
                    "midi": 73,
                    "time": 12.162146999999983,
                    "velocity": 0.3228346456692913,
                    "duration": 0.08813149999999936
                },
                {
                    "name": "E5",
                    "midi": 76,
                    "time": 12.250278499999983,
                    "velocity": 0.28346456692913385,
                    "duration": 0.08813149999999936
                },
                {
                    "name": "B4",
                    "midi": 71,
                    "time": 12.338409999999982,
                    "velocity": 0.3464566929133858,
                    "duration": 0.08813149999999936
                },
                {
                    "name": "D5",
                    "midi": 74,
                    "time": 12.338409999999982,
                    "velocity": 0.3464566929133858,
                    "duration": 0.08813149999999936
                },
                {
                    "name": "D5",
                    "midi": 74,
                    "time": 12.77906749999998,
                    "velocity": 0.3543307086614173,
                    "duration": 0.08813149999999936
                },
                {
                    "name": "C#5",
                    "midi": 73,
                    "time": 12.86719899999998,
                    "velocity": 0.3937007874015748,
                    "duration": 0.08813149999999936
                },
                {
                    "name": "E5",
                    "midi": 76,
                    "time": 12.95533049999998,
                    "velocity": 0.3543307086614173,
                    "duration": 0.08813149999999936
                },
                {
                    "name": "D5",
                    "midi": 74,
                    "time": 13.043461999999979,
                    "velocity": 0.4015748031496063,
                    "duration": 0.08813149999999936
                },
                {
                    "name": "F#5",
                    "midi": 78,
                    "time": 13.131593499999978,
                    "velocity": 0.3543307086614173,
                    "duration": 0.08813149999999936
                },
                {
                    "name": "E5",
                    "midi": 76,
                    "time": 13.219724999999977,
                    "velocity": 0.4094488188976378,
                    "duration": 0.08813149999999936
                },
                {
                    "name": "G5",
                    "midi": 79,
                    "time": 13.307856499999977,
                    "velocity": 0.3700787401574803,
                    "duration": 0.08813149999999936
                },
                {
                    "name": "D5",
                    "midi": 74,
                    "time": 13.395987999999976,
                    "velocity": 0.41732283464566927,
                    "duration": 0.08813149999999936
                },
                {
                    "name": "F#5",
                    "midi": 78,
                    "time": 13.395987999999976,
                    "velocity": 0.41732283464566927,
                    "duration": 0.08813149999999936
                },
                {
                    "name": "D5",
                    "midi": 74,
                    "time": 13.836645499999975,
                    "velocity": 0.3543307086614173,
                    "duration": 0.08813149999999936
                },
                {
                    "name": "C#5",
                    "midi": 73,
                    "time": 13.924776999999974,
                    "velocity": 0.3937007874015748,
                    "duration": 0.08813149999999936
                },
                {
                    "name": "E5",
                    "midi": 76,
                    "time": 14.012908499999973,
                    "velocity": 0.3543307086614173,
                    "duration": 0.08813149999999936
                },
                {
                    "name": "D5",
                    "midi": 74,
                    "time": 14.101039999999973,
                    "velocity": 0.4015748031496063,
                    "duration": 0.08813149999999936
                },
                {
                    "name": "F#5",
                    "midi": 78,
                    "time": 14.189171499999972,
                    "velocity": 0.3543307086614173,
                    "duration": 0.08813149999999936
                },
                {
                    "name": "E5",
                    "midi": 76,
                    "time": 14.277302999999971,
                    "velocity": 0.4094488188976378,
                    "duration": 0.08813149999999936
                },
                {
                    "name": "G5",
                    "midi": 79,
                    "time": 14.36543449999997,
                    "velocity": 0.3700787401574803,
                    "duration": 0.08813149999999936
                },
                {
                    "name": "D5",
                    "midi": 74,
                    "time": 14.45356599999997,
                    "velocity": 0.41732283464566927,
                    "duration": 0.08813149999999936
                },
                {
                    "name": "F#5",
                    "midi": 78,
                    "time": 14.45356599999997,
                    "velocity": 0.41732283464566927,
                    "duration": 0.08813149999999936
                },
                {
                    "name": "D5",
                    "midi": 74,
                    "time": 14.80609199999997,
                    "velocity": 0.48031496062992124,
                    "duration": 0.08813149999999936
                },
                {
                    "name": "F#5",
                    "midi": 78,
                    "time": 14.894223499999969,
                    "velocity": 0.4251968503937008,
                    "duration": 0.08813149999999936
                },
                {
                    "name": "C#5",
                    "midi": 73,
                    "time": 14.982354999999968,
                    "velocity": 0.48031496062992124,
                    "duration": 0.08813149999999936
                },
                {
                    "name": "E5",
                    "midi": 76,
                    "time": 15.070486499999967,
                    "velocity": 0.4566929133858268,
                    "duration": 0.08813149999999936
                },
                {
                    "name": "B4",
                    "midi": 71,
                    "time": 15.158617999999967,
                    "velocity": 0.5118110236220472,
                    "duration": 0.08813149999999936
                },
                {
                    "name": "D5",
                    "midi": 74,
                    "time": 15.246749499999966,
                    "velocity": 0.4645669291338583,
                    "duration": 0.08813149999999936
                },
                {
                    "name": "A#4",
                    "midi": 70,
                    "time": 15.334880999999966,
                    "velocity": 0.5511811023622047,
                    "duration": 0.08813149999999936
                },
                {
                    "name": "C#5",
                    "midi": 73,
                    "time": 15.423012499999965,
                    "velocity": 0.4566929133858268,
                    "duration": 0.08813149999999936
                },
                {
                    "name": "B4",
                    "midi": 71,
                    "time": 15.511143999999964,
                    "velocity": 0.5669291338582677,
                    "duration": 0.08813149999999936
                },
                {
                    "name": "D5",
                    "midi": 74,
                    "time": 15.599275499999964,
                    "velocity": 0.5039370078740157,
                    "duration": 0.08813149999999936
                },
                {
                    "name": "C#5",
                    "midi": 73,
                    "time": 15.687406999999963,
                    "velocity": 0.5669291338582677,
                    "duration": 0.08813149999999936
                },
                {
                    "name": "E5",
                    "midi": 76,
                    "time": 15.775538499999962,
                    "velocity": 0.5118110236220472,
                    "duration": 0.08813149999999936
                },
                {
                    "name": "B4",
                    "midi": 71,
                    "time": 15.863669999999962,
                    "velocity": 0.5354330708661418,
                    "duration": 0.35252599999999923
                },
                {
                    "name": "F#5",
                    "midi": 78,
                    "time": 15.863669999999962,
                    "velocity": 0.6299212598425197,
                    "duration": 0.881314999999999
                },
                {
                    "name": "C#5",
                    "midi": 73,
                    "time": 15.863669999999962,
                    "velocity": 0.6299212598425197,
                    "duration": 0.881314999999999
                },
                {
                    "name": "A#4",
                    "midi": 70,
                    "time": 16.21619599999996,
                    "velocity": 0.4094488188976378,
                    "duration": 0.5287889999999997
                },
                {
                    "name": "A5",
                    "midi": 81,
                    "time": 16.92124799999996,
                    "velocity": 0.31496062992125984,
                    "duration": 0.08813149999999936
                },
                {
                    "name": "C#5",
                    "midi": 73,
                    "time": 17.00937949999996,
                    "velocity": 0.25196850393700787,
                    "duration": 0.08813149999999936
                },
                {
                    "name": "G5",
                    "midi": 79,
                    "time": 17.097510999999958,
                    "velocity": 0.28346456692913385,
                    "duration": 0.08813149999999936
                },
                {
                    "name": "C#5",
                    "midi": 73,
                    "time": 17.185642499999958,
                    "velocity": 0.25196850393700787,
                    "duration": 0.08813149999999936
                },
                {
                    "name": "F#5",
                    "midi": 78,
                    "time": 17.273773999999957,
                    "velocity": 0.2283464566929134,
                    "duration": 0.08813149999999936
                },
                {
                    "name": "C#5",
                    "midi": 73,
                    "time": 17.361905499999956,
                    "velocity": 0.1968503937007874,
                    "duration": 0.08813149999999936
                },
                {
                    "name": "F#5",
                    "midi": 78,
                    "time": 17.450036999999956,
                    "velocity": 0.2204724409448819,
                    "duration": 0.08813149999999936
                },
                {
                    "name": "C#5",
                    "midi": 73,
                    "time": 17.538168499999955,
                    "velocity": 0.1968503937007874,
                    "duration": 0.08813149999999936
                },
                {
                    "name": "F#5",
                    "midi": 78,
                    "time": 17.626299999999954,
                    "velocity": 0.30708661417322836,
                    "duration": 0.08813149999999936
                },
                {
                    "name": "A5",
                    "midi": 81,
                    "time": 17.978825999999955,
                    "velocity": 0.31496062992125984,
                    "duration": 0.08813149999999936
                },
                {
                    "name": "D5",
                    "midi": 74,
                    "time": 18.066957499999955,
                    "velocity": 0.25196850393700787,
                    "duration": 0.08813149999999936
                },
                {
                    "name": "G5",
                    "midi": 79,
                    "time": 18.155088999999954,
                    "velocity": 0.28346456692913385,
                    "duration": 0.08813149999999936
                },
                {
                    "name": "D5",
                    "midi": 74,
                    "time": 18.243220499999953,
                    "velocity": 0.25196850393700787,
                    "duration": 0.08813149999999936
                },
                {
                    "name": "F#5",
                    "midi": 78,
                    "time": 18.331351999999953,
                    "velocity": 0.2283464566929134,
                    "duration": 0.08813149999999936
                },
                {
                    "name": "D5",
                    "midi": 74,
                    "time": 18.419483499999952,
                    "velocity": 0.1968503937007874,
                    "duration": 0.08813149999999936
                },
                {
                    "name": "F#5",
                    "midi": 78,
                    "time": 18.50761499999995,
                    "velocity": 0.2204724409448819,
                    "duration": 0.08813149999999936
                },
                {
                    "name": "D5",
                    "midi": 74,
                    "time": 18.59574649999995,
                    "velocity": 0.1968503937007874,
                    "duration": 0.08813149999999936
                },
                {
                    "name": "F#5",
                    "midi": 78,
                    "time": 18.68387799999995,
                    "velocity": 0.30708661417322836,
                    "duration": 0.08813149999999936
                },
                {
                    "name": "B5",
                    "midi": 83,
                    "time": 19.03640399999995,
                    "velocity": 0.31496062992125984,
                    "duration": 0.08813149999999936
                },
                {
                    "name": "D#5",
                    "midi": 75,
                    "time": 19.12453549999995,
                    "velocity": 0.25196850393700787,
                    "duration": 0.08813149999999936
                },
                {
                    "name": "A5",
                    "midi": 81,
                    "time": 19.21266699999995,
                    "velocity": 0.28346456692913385,
                    "duration": 0.08813149999999936
                },
                {
                    "name": "D#5",
                    "midi": 75,
                    "time": 19.30079849999995,
                    "velocity": 0.25196850393700787,
                    "duration": 0.08813149999999936
                },
                {
                    "name": "G5",
                    "midi": 79,
                    "time": 19.38892999999995,
                    "velocity": 0.2283464566929134,
                    "duration": 0.08813149999999936
                },
                {
                    "name": "D#5",
                    "midi": 75,
                    "time": 19.477061499999948,
                    "velocity": 0.1968503937007874,
                    "duration": 0.08813149999999936
                },
                {
                    "name": "G5",
                    "midi": 79,
                    "time": 19.565192999999947,
                    "velocity": 0.2204724409448819,
                    "duration": 0.08813149999999936
                },
                {
                    "name": "D#5",
                    "midi": 75,
                    "time": 19.653324499999947,
                    "velocity": 0.1968503937007874,
                    "duration": 0.08813149999999936
                },
                {
                    "name": "G5",
                    "midi": 79,
                    "time": 19.741455999999946,
                    "velocity": 0.30708661417322836,
                    "duration": 0.08813149999999936
                },
                {
                    "name": "B5",
                    "midi": 83,
                    "time": 20.093981999999947,
                    "velocity": 0.31496062992125984,
                    "duration": 0.08813149999999936
                },
                {
                    "name": "E5",
                    "midi": 76,
                    "time": 20.182113499999947,
                    "velocity": 0.25196850393700787,
                    "duration": 0.08813149999999936
                },
                {
                    "name": "A5",
                    "midi": 81,
                    "time": 20.270244999999946,
                    "velocity": 0.28346456692913385,
                    "duration": 0.08813149999999936
                },
                {
                    "name": "E5",
                    "midi": 76,
                    "time": 20.358376499999945,
                    "velocity": 0.25196850393700787,
                    "duration": 0.08813149999999936
                },
                {
                    "name": "G5",
                    "midi": 79,
                    "time": 20.446507999999945,
                    "velocity": 0.2283464566929134,
                    "duration": 0.08813149999999936
                },
                {
                    "name": "E5",
                    "midi": 76,
                    "time": 20.534639499999944,
                    "velocity": 0.1968503937007874,
                    "duration": 0.08813149999999936
                },
                {
                    "name": "G5",
                    "midi": 79,
                    "time": 20.622770999999943,
                    "velocity": 0.2204724409448819,
                    "duration": 0.08813149999999936
                },
                {
                    "name": "E5",
                    "midi": 76,
                    "time": 20.710902499999943,
                    "velocity": 0.1968503937007874,
                    "duration": 0.08813149999999936
                },
                {
                    "name": "G5",
                    "midi": 79,
                    "time": 20.799033999999942,
                    "velocity": 0.30708661417322836,
                    "duration": 0.08813149999999936
                },
                {
                    "name": "C6",
                    "midi": 84,
                    "time": 21.151559999999943,
                    "velocity": 0.3937007874015748,
                    "duration": 0.08813149999999936
                },
                {
                    "name": "E5",
                    "midi": 76,
                    "time": 21.239691499999942,
                    "velocity": 0.30708661417322836,
                    "duration": 0.08813149999999936
                },
                {
                    "name": "A#5",
                    "midi": 82,
                    "time": 21.327822999999942,
                    "velocity": 0.3543307086614173,
                    "duration": 0.08813149999999936
                },
                {
                    "name": "E5",
                    "midi": 76,
                    "time": 21.41595449999994,
                    "velocity": 0.30708661417322836,
                    "duration": 0.08813149999999936
                },
                {
                    "name": "A5",
                    "midi": 81,
                    "time": 21.50408599999994,
                    "velocity": 0.28346456692913385,
                    "duration": 0.08813149999999936
                },
                {
                    "name": "E5",
                    "midi": 76,
                    "time": 21.59221749999994,
                    "velocity": 0.23622047244094488,
                    "duration": 0.08813149999999936
                },
                {
                    "name": "A5",
                    "midi": 81,
                    "time": 21.68034899999994,
                    "velocity": 0.2755905511811024,
                    "duration": 0.08813149999999936
                },
                {
                    "name": "E5",
                    "midi": 76,
                    "time": 21.76848049999994,
                    "velocity": 0.23622047244094488,
                    "duration": 0.08813149999999936
                },
                {
                    "name": "A5",
                    "midi": 81,
                    "time": 21.856611999999938,
                    "velocity": 0.3779527559055118,
                    "duration": 0.08813149999999936
                },
                {
                    "name": "C6",
                    "midi": 84,
                    "time": 22.20913799999994,
                    "velocity": 0.4330708661417323,
                    "duration": 0.08813149999999936
                },
                {
                    "name": "F5",
                    "midi": 77,
                    "time": 22.29726949999994,
                    "velocity": 0.33070866141732286,
                    "duration": 0.08813149999999936
                },
                {
                    "name": "A#5",
                    "midi": 82,
                    "time": 22.385400999999938,
                    "velocity": 0.3858267716535433,
                    "duration": 0.08813149999999936
                },
                {
                    "name": "F5",
                    "midi": 77,
                    "time": 22.473532499999937,
                    "velocity": 0.33070866141732286,
                    "duration": 0.08813149999999936
                },
                {
                    "name": "A5",
                    "midi": 81,
                    "time": 22.561663999999936,
                    "velocity": 0.30708661417322836,
                    "duration": 0.08813149999999936
                },
                {
                    "name": "F5",
                    "midi": 77,
                    "time": 22.649795499999936,
                    "velocity": 0.25984251968503935,
                    "duration": 0.08813149999999936
                },
                {
                    "name": "A5",
                    "midi": 81,
                    "time": 22.737926999999935,
                    "velocity": 0.2992125984251969,
                    "duration": 0.08813149999999936
                },
                {
                    "name": "F5",
                    "midi": 77,
                    "time": 22.826058499999935,
                    "velocity": 0.25984251968503935,
                    "duration": 0.08813149999999936
                },
                {
                    "name": "A5",
                    "midi": 81,
                    "time": 22.914189999999934,
                    "velocity": 0.4094488188976378,
                    "duration": 0.08813149999999936
                },
                {
                    "name": "D6",
                    "midi": 86,
                    "time": 23.266715999999935,
                    "velocity": 0.47244094488188976,
                    "duration": 0.08813149999999936
                },
                {
                    "name": "F#5",
                    "midi": 78,
                    "time": 23.354847499999934,
                    "velocity": 0.36220472440944884,
                    "duration": 0.08813149999999936
                },
                {
                    "name": "C6",
                    "midi": 84,
                    "time": 23.442978999999934,
                    "velocity": 0.41732283464566927,
                    "duration": 0.08813149999999936
                },
                {
                    "name": "F#5",
                    "midi": 78,
                    "time": 23.531110499999933,
                    "velocity": 0.36220472440944884,
                    "duration": 0.08813149999999936
                },
                {
                    "name": "A#5",
                    "midi": 82,
                    "time": 23.619241999999932,
                    "velocity": 0.33070866141732286,
                    "duration": 0.08813149999999936
                },
                {
                    "name": "F#5",
                    "midi": 78,
                    "time": 23.70737349999993,
                    "velocity": 0.28346456692913385,
                    "duration": 0.08813149999999936
                },
                {
                    "name": "A#5",
                    "midi": 82,
                    "time": 23.79550499999993,
                    "velocity": 0.3228346456692913,
                    "duration": 0.08813149999999936
                },
                {
                    "name": "F#5",
                    "midi": 78,
                    "time": 23.88363649999993,
                    "velocity": 0.28346456692913385,
                    "duration": 0.08813149999999936
                },
                {
                    "name": "A#5",
                    "midi": 82,
                    "time": 23.97176799999993,
                    "velocity": 0.44881889763779526,
                    "duration": 0.08813149999999936
                },
                {
                    "name": "D6",
                    "midi": 86,
                    "time": 24.32429399999993,
                    "velocity": 0.5196850393700787,
                    "duration": 0.08813149999999936
                },
                {
                    "name": "G5",
                    "midi": 79,
                    "time": 24.41242549999993,
                    "velocity": 0.3937007874015748,
                    "duration": 0.08813149999999936
                },
                {
                    "name": "C6",
                    "midi": 84,
                    "time": 24.50055699999993,
                    "velocity": 0.4566929133858268,
                    "duration": 0.08813149999999936
                },
                {
                    "name": "G5",
                    "midi": 79,
                    "time": 24.58868849999993,
                    "velocity": 0.3937007874015748,
                    "duration": 0.08813149999999936
                },
                {
                    "name": "A#5",
                    "midi": 82,
                    "time": 24.67681999999993,
                    "velocity": 0.36220472440944884,
                    "duration": 0.08813149999999936
                },
                {
                    "name": "G5",
                    "midi": 79,
                    "time": 24.764951499999928,
                    "velocity": 0.30708661417322836,
                    "duration": 0.08813149999999936
                },
                {
                    "name": "A#5",
                    "midi": 82,
                    "time": 24.853082999999927,
                    "velocity": 0.3543307086614173,
                    "duration": 0.08813149999999936
                },
                {
                    "name": "G5",
                    "midi": 79,
                    "time": 24.941214499999926,
                    "velocity": 0.30708661417322836,
                    "duration": 0.08813149999999936
                },
                {
                    "name": "A#5",
                    "midi": 82,
                    "time": 25.029345999999926,
                    "velocity": 0.4881889763779528,
                    "duration": 0.08813149999999936
                },
                {
                    "name": "C6",
                    "midi": 84,
                    "time": 25.381871999999927,
                    "velocity": 0.5196850393700787,
                    "duration": 0.08813149999999936
                },
                {
                    "name": "G5",
                    "midi": 79,
                    "time": 25.470003499999926,
                    "velocity": 0.3937007874015748,
                    "duration": 0.08813149999999936
                },
                {
                    "name": "A#5",
                    "midi": 82,
                    "time": 25.558134999999925,
                    "velocity": 0.4566929133858268,
                    "duration": 0.08813149999999936
                },
                {
                    "name": "G5",
                    "midi": 79,
                    "time": 25.646266499999925,
                    "velocity": 0.3937007874015748,
                    "duration": 0.08813149999999936
                },
                {
                    "name": "C6",
                    "midi": 84,
                    "time": 25.734397999999924,
                    "velocity": 0.5196850393700787,
                    "duration": 0.08813149999999936
                },
                {
                    "name": "G#5",
                    "midi": 80,
                    "time": 25.822529499999924,
                    "velocity": 0.3937007874015748,
                    "duration": 0.08813149999999936
                },
                {
                    "name": "A#5",
                    "midi": 82,
                    "time": 25.910660999999923,
                    "velocity": 0.4566929133858268,
                    "duration": 0.08813149999999936
                },
                {
                    "name": "G#5",
                    "midi": 80,
                    "time": 25.998792499999922,
                    "velocity": 0.3937007874015748,
                    "duration": 0.08813149999999936
                },
                {
                    "name": "C6",
                    "midi": 84,
                    "time": 26.08692399999992,
                    "velocity": 0.5196850393700787,
                    "duration": 0.08813149999999936
                },
                {
                    "name": "G5",
                    "midi": 79,
                    "time": 26.17505549999992,
                    "velocity": 0.3937007874015748,
                    "duration": 0.08813149999999936
                },
                {
                    "name": "A#5",
                    "midi": 82,
                    "time": 26.26318699999992,
                    "velocity": 0.4566929133858268,
                    "duration": 0.08813149999999936
                },
                {
                    "name": "G5",
                    "midi": 79,
                    "time": 26.35131849999992,
                    "velocity": 0.3937007874015748,
                    "duration": 0.08813149999999936
                },
                {
                    "name": "A5",
                    "midi": 81,
                    "time": 26.43944999999992,
                    "velocity": 0.5196850393700787,
                    "duration": 0.08813149999999936
                },
                {
                    "name": "C#5",
                    "midi": 73,
                    "time": 26.52758149999992,
                    "velocity": 0.3937007874015748,
                    "duration": 0.08813149999999936
                },
                {
                    "name": "G5",
                    "midi": 79,
                    "time": 26.615712999999918,
                    "velocity": 0.4566929133858268,
                    "duration": 0.08813149999999936
                },
                {
                    "name": "C#5",
                    "midi": 73,
                    "time": 26.703844499999917,
                    "velocity": 0.3937007874015748,
                    "duration": 0.08813149999999936
                },
                {
                    "name": "A5",
                    "midi": 81,
                    "time": 26.791975999999917,
                    "velocity": 0.5196850393700787,
                    "duration": 0.08813149999999936
                },
                {
                    "name": "F5",
                    "midi": 77,
                    "time": 26.880107499999916,
                    "velocity": 0.3937007874015748,
                    "duration": 0.08813149999999936
                },
                {
                    "name": "G5",
                    "midi": 79,
                    "time": 26.968238999999915,
                    "velocity": 0.4566929133858268,
                    "duration": 0.08813149999999936
                },
                {
                    "name": "F5",
                    "midi": 77,
                    "time": 27.056370499999915,
                    "velocity": 0.3937007874015748,
                    "duration": 0.08813149999999936
                },
                {
                    "name": "A5",
                    "midi": 81,
                    "time": 27.144501999999914,
                    "velocity": 0.5196850393700787,
                    "duration": 0.08813149999999936
                },
                {
                    "name": "E5",
                    "midi": 76,
                    "time": 27.232633499999913,
                    "velocity": 0.3937007874015748,
                    "duration": 0.08813149999999936
                },
                {
                    "name": "G5",
                    "midi": 79,
                    "time": 27.320764999999913,
                    "velocity": 0.4566929133858268,
                    "duration": 0.08813149999999936
                },
                {
                    "name": "E5",
                    "midi": 76,
                    "time": 27.408896499999912,
                    "velocity": 0.3937007874015748,
                    "duration": 0.08813149999999936
                },
                {
                    "name": "F#5",
                    "midi": 78,
                    "time": 27.49702799999991,
                    "velocity": 0.5196850393700787,
                    "duration": 0.08813149999999936
                },
                {
                    "name": "A#4",
                    "midi": 70,
                    "time": 27.58515949999991,
                    "velocity": 0.3937007874015748,
                    "duration": 0.08813149999999936
                },
                {
                    "name": "F#5",
                    "midi": 78,
                    "time": 27.67329099999991,
                    "velocity": 0.4566929133858268,
                    "duration": 0.08813149999999936
                },
                {
                    "name": "A#4",
                    "midi": 70,
                    "time": 27.76142249999991,
                    "velocity": 0.3937007874015748,
                    "duration": 0.08813149999999936
                },
                {
                    "name": "F#5",
                    "midi": 78,
                    "time": 27.84955399999991,
                    "velocity": 0.5275590551181102,
                    "duration": 0.08813149999999936
                },
                {
                    "name": "D5",
                    "midi": 74,
                    "time": 27.93768549999991,
                    "velocity": 0.4015748031496063,
                    "duration": 0.08813149999999936
                },
                {
                    "name": "E5",
                    "midi": 76,
                    "time": 28.025816999999908,
                    "velocity": 0.4645669291338583,
                    "duration": 0.08813149999999936
                },
                {
                    "name": "D5",
                    "midi": 74,
                    "time": 28.113948499999907,
                    "velocity": 0.4094488188976378,
                    "duration": 0.08813149999999936
                },
                {
                    "name": "F#5",
                    "midi": 78,
                    "time": 28.202079999999906,
                    "velocity": 0.5433070866141733,
                    "duration": 0.08813149999999936
                },
                {
                    "name": "C#5",
                    "midi": 73,
                    "time": 28.290211499999906,
                    "velocity": 0.4094488188976378,
                    "duration": 0.08813149999999936
                },
                {
                    "name": "E5",
                    "midi": 76,
                    "time": 28.378342999999905,
                    "velocity": 0.48031496062992124,
                    "duration": 0.08813149999999936
                },
                {
                    "name": "C#5",
                    "midi": 73,
                    "time": 28.466474499999904,
                    "velocity": 0.41732283464566927,
                    "duration": 0.08813149999999936
                },
                {
                    "name": "F#5",
                    "midi": 78,
                    "time": 28.554605999999904,
                    "velocity": 0.5511811023622047,
                    "duration": 0.08813149999999936
                },
                {
                    "name": "C5",
                    "midi": 72,
                    "time": 28.642737499999903,
                    "velocity": 0.4251968503937008,
                    "duration": 0.08813149999999936
                },
                {
                    "name": "E5",
                    "midi": 76,
                    "time": 28.730868999999903,
                    "velocity": 0.4881889763779528,
                    "duration": 0.08813149999999936
                },
                {
                    "name": "C5",
                    "midi": 72,
                    "time": 28.819000499999902,
                    "velocity": 0.4251968503937008,
                    "duration": 0.08813149999999936
                },
                {
                    "name": "F#5",
                    "midi": 78,
                    "time": 28.9071319999999,
                    "velocity": 0.5511811023622047,
                    "duration": 0.08813149999999936
                },
                {
                    "name": "B4",
                    "midi": 71,
                    "time": 28.9952634999999,
                    "velocity": 0.4330708661417323,
                    "duration": 0.08813149999999936
                },
                {
                    "name": "E5",
                    "midi": 76,
                    "time": 29.0833949999999,
                    "velocity": 0.5039370078740157,
                    "duration": 0.08813149999999936
                },
                {
                    "name": "B4",
                    "midi": 71,
                    "time": 29.1715264999999,
                    "velocity": 0.4330708661417323,
                    "duration": 0.08813149999999936
                },
                {
                    "name": "F#5",
                    "midi": 78,
                    "time": 29.2596579999999,
                    "velocity": 0.5433070866141733,
                    "duration": 0.08813149999999936
                },
                {
                    "name": "B4",
                    "midi": 71,
                    "time": 29.347789499999898,
                    "velocity": 0.4409448818897638,
                    "duration": 0.08813149999999936
                },
                {
                    "name": "E5",
                    "midi": 76,
                    "time": 29.435920999999897,
                    "velocity": 0.5118110236220472,
                    "duration": 0.08813149999999936
                },
                {
                    "name": "B4",
                    "midi": 71,
                    "time": 29.524052499999897,
                    "velocity": 0.44881889763779526,
                    "duration": 0.08813149999999936
                },
                {
                    "name": "F#5",
                    "midi": 78,
                    "time": 29.612183999999896,
                    "velocity": 0.5826771653543307,
                    "duration": 0.08813149999999936
                },
                {
                    "name": "A#4",
                    "midi": 70,
                    "time": 29.700315499999896,
                    "velocity": 0.4251968503937008,
                    "duration": 0.08813149999999936
                },
                {
                    "name": "E5",
                    "midi": 76,
                    "time": 29.788446999999895,
                    "velocity": 0.5196850393700787,
                    "duration": 0.08813149999999936
                },
                {
                    "name": "G4",
                    "midi": 67,
                    "time": 29.876578499999894,
                    "velocity": 0.4330708661417323,
                    "duration": 0.08813149999999936
                },
                {
                    "name": "D5",
                    "midi": 74,
                    "time": 29.964709999999894,
                    "velocity": 0.5118110236220472,
                    "duration": 0.08813149999999936
                },
                {
                    "name": "G4",
                    "midi": 67,
                    "time": 30.052841499999893,
                    "velocity": 0.41732283464566927,
                    "duration": 0.08813149999999936
                },
                {
                    "name": "C#5",
                    "midi": 73,
                    "time": 30.140972999999892,
                    "velocity": 0.4881889763779528,
                    "duration": 0.08813149999999936
                },
                {
                    "name": "E4",
                    "midi": 64,
                    "time": 30.22910449999989,
                    "velocity": 0.4330708661417323,
                    "duration": 0.08813149999999936
                },
                {
                    "name": "B4",
                    "midi": 71,
                    "time": 30.31723599999989,
                    "velocity": 0.5196850393700787,
                    "duration": 0.08813149999999936
                },
                {
                    "name": "E4",
                    "midi": 64,
                    "time": 30.40536749999989,
                    "velocity": 0.3937007874015748,
                    "duration": 0.08813149999999936
                },
                {
                    "name": "A#4",
                    "midi": 70,
                    "time": 30.49349899999989,
                    "velocity": 0.4566929133858268,
                    "duration": 0.08813149999999936
                },
                {
                    "name": "C#4",
                    "midi": 61,
                    "time": 30.58163049999989,
                    "velocity": 0.3937007874015748,
                    "duration": 0.08813149999999936
                },
                {
                    "name": "G4",
                    "midi": 67,
                    "time": 30.66976199999989,
                    "velocity": 0.5826771653543307,
                    "duration": 0.08813149999999936
                },
                {
                    "name": "C#4",
                    "midi": 61,
                    "time": 30.76670664999989,
                    "velocity": 0.4251968503937008,
                    "duration": 0.08813150000000292
                },
                {
                    "name": "F#4",
                    "midi": 66,
                    "time": 30.84602499999989,
                    "velocity": 0.5196850393700787,
                    "duration": 0.08813150000000292
                },
                {
                    "name": "A#3",
                    "midi": 58,
                    "time": 30.934156499999894,
                    "velocity": 0.4330708661417323,
                    "duration": 0.08813149999999936
                },
                {
                    "name": "B3",
                    "midi": 59,
                    "time": 33.84249599999989,
                    "velocity": 0.25984251968503935,
                    "duration": 0.08813150000000292
                },
                {
                    "name": "D4",
                    "midi": 62,
                    "time": 33.93062749999989,
                    "velocity": 0.1968503937007874,
                    "duration": 0.08813150000000292
                },
                {
                    "name": "C#4",
                    "midi": 61,
                    "time": 34.018758999999896,
                    "velocity": 0.2125984251968504,
                    "duration": 0.08813150000000292
                },
                {
                    "name": "E4",
                    "midi": 64,
                    "time": 34.1068904999999,
                    "velocity": 0.18110236220472442,
                    "duration": 0.08813150000000292
                },
                {
                    "name": "D4",
                    "midi": 62,
                    "time": 34.1950219999999,
                    "velocity": 0.1968503937007874,
                    "duration": 0.08813150000000292
                },
                {
                    "name": "F#4",
                    "midi": 66,
                    "time": 34.283153499999905,
                    "velocity": 0.16535433070866143,
                    "duration": 0.08813150000000292
                },
                {
                    "name": "E4",
                    "midi": 64,
                    "time": 34.37128499999991,
                    "velocity": 0.1732283464566929,
                    "duration": 0.08813150000000292
                },
                {
                    "name": "G4",
                    "midi": 67,
                    "time": 34.45941649999991,
                    "velocity": 0.14173228346456693,
                    "duration": 0.08813150000000292
                },
                {
                    "name": "D4",
                    "midi": 62,
                    "time": 34.547547999999914,
                    "velocity": 0.16535433070866143,
                    "duration": 0.08813150000000292
                },
                {
                    "name": "F#4",
                    "midi": 66,
                    "time": 34.547547999999914,
                    "velocity": 0.16535433070866143,
                    "duration": 0.08813150000000292
                },
                {
                    "name": "B3",
                    "midi": 59,
                    "time": 34.90007399999992,
                    "velocity": 0.25984251968503935,
                    "duration": 0.08813150000000292
                },
                {
                    "name": "D4",
                    "midi": 62,
                    "time": 34.98820549999992,
                    "velocity": 0.1968503937007874,
                    "duration": 0.08813150000000292
                },
                {
                    "name": "C#4",
                    "midi": 61,
                    "time": 35.076336999999924,
                    "velocity": 0.2125984251968504,
                    "duration": 0.08813150000000292
                },
                {
                    "name": "E4",
                    "midi": 64,
                    "time": 35.16446849999993,
                    "velocity": 0.18110236220472442,
                    "duration": 0.08813150000000292
                },
                {
                    "name": "D4",
                    "midi": 62,
                    "time": 35.25259999999993,
                    "velocity": 0.1968503937007874,
                    "duration": 0.08813150000000292
                },
                {
                    "name": "F#4",
                    "midi": 66,
                    "time": 35.34073149999993,
                    "velocity": 0.16535433070866143,
                    "duration": 0.08813150000000292
                },
                {
                    "name": "E4",
                    "midi": 64,
                    "time": 35.428862999999936,
                    "velocity": 0.1732283464566929,
                    "duration": 0.08813150000000292
                },
                {
                    "name": "G4",
                    "midi": 67,
                    "time": 35.51699449999994,
                    "velocity": 0.14173228346456693,
                    "duration": 0.08813150000000292
                },
                {
                    "name": "D4",
                    "midi": 62,
                    "time": 35.60512599999994,
                    "velocity": 0.16535433070866143,
                    "duration": 0.08813150000000292
                },
                {
                    "name": "F#4",
                    "midi": 66,
                    "time": 35.60512599999994,
                    "velocity": 0.16535433070866143,
                    "duration": 0.08813150000000292
                },
                {
                    "name": "G4",
                    "midi": 67,
                    "time": 35.957651999999946,
                    "velocity": 0.28346456692913385,
                    "duration": 0.08813150000000292
                },
                {
                    "name": "B4",
                    "midi": 71,
                    "time": 36.04578349999995,
                    "velocity": 0.2283464566929134,
                    "duration": 0.08813150000000292
                },
                {
                    "name": "F#4",
                    "midi": 66,
                    "time": 36.13391499999995,
                    "velocity": 0.25984251968503935,
                    "duration": 0.08813150000000292
                },
                {
                    "name": "A4",
                    "midi": 69,
                    "time": 36.222046499999955,
                    "velocity": 0.2204724409448819,
                    "duration": 0.08813150000000292
                },
                {
                    "name": "E4",
                    "midi": 64,
                    "time": 36.31017799999996,
                    "velocity": 0.25196850393700787,
                    "duration": 0.08813150000000292
                },
                {
                    "name": "G4",
                    "midi": 67,
                    "time": 36.39830949999996,
                    "velocity": 0.2125984251968504,
                    "duration": 0.08813150000000292
                },
                {
                    "name": "D4",
                    "midi": 62,
                    "time": 36.486440999999964,
                    "velocity": 0.23622047244094488,
                    "duration": 0.08813150000000292
                },
                {
                    "name": "F#4",
                    "midi": 66,
                    "time": 36.57457249999997,
                    "velocity": 0.2125984251968504,
                    "duration": 0.08813150000000292
                },
                {
                    "name": "C#4",
                    "midi": 61,
                    "time": 36.66270399999997,
                    "velocity": 0.25984251968503935,
                    "duration": 0.08813150000000292
                },
                {
                    "name": "E4",
                    "midi": 64,
                    "time": 36.66270399999997,
                    "velocity": 0.25984251968503935,
                    "duration": 0.08813150000000292
                },
                {
                    "name": "F#4",
                    "midi": 66,
                    "time": 37.015229999999974,
                    "velocity": 0.28346456692913385,
                    "duration": 0.08813150000000292
                },
                {
                    "name": "A4",
                    "midi": 69,
                    "time": 37.10336149999998,
                    "velocity": 0.2283464566929134,
                    "duration": 0.08813150000000292
                },
                {
                    "name": "E4",
                    "midi": 64,
                    "time": 37.19149299999998,
                    "velocity": 0.25984251968503935,
                    "duration": 0.08813150000000292
                },
                {
                    "name": "G4",
                    "midi": 67,
                    "time": 37.27962449999998,
                    "velocity": 0.2204724409448819,
                    "duration": 0.08813150000000292
                },
                {
                    "name": "D4",
                    "midi": 62,
                    "time": 37.367755999999986,
                    "velocity": 0.25196850393700787,
                    "duration": 0.08813150000000292
                },
                {
                    "name": "F#4",
                    "midi": 66,
                    "time": 37.45588749999999,
                    "velocity": 0.2125984251968504,
                    "duration": 0.08813150000000292
                },
                {
                    "name": "C#4",
                    "midi": 61,
                    "time": 37.54401899999999,
                    "velocity": 0.23622047244094488,
                    "duration": 0.08813150000000292
                },
                {
                    "name": "E4",
                    "midi": 64,
                    "time": 37.632150499999995,
                    "velocity": 0.2125984251968504,
                    "duration": 0.08813150000000292
                },
                {
                    "name": "B3",
                    "midi": 59,
                    "time": 37.720282,
                    "velocity": 0.25984251968503935,
                    "duration": 0.08813150000000292
                },
                {
                    "name": "D4",
                    "midi": 62,
                    "time": 37.720282,
                    "velocity": 0.25984251968503935,
                    "duration": 0.08813150000000292
                },
                {
                    "name": "G3",
                    "midi": 55,
                    "time": 38.072808,
                    "velocity": 0.28346456692913385,
                    "duration": 0.08813150000000292
                },
                {
                    "name": "B3",
                    "midi": 59,
                    "time": 38.160939500000005,
                    "velocity": 0.3543307086614173,
                    "duration": 0.08813150000000292
                },
                {
                    "name": "A3",
                    "midi": 57,
                    "time": 38.24907100000001,
                    "velocity": 0.3937007874015748,
                    "duration": 0.08813150000000292
                },
                {
                    "name": "C#4",
                    "midi": 61,
                    "time": 38.33720250000001,
                    "velocity": 0.3543307086614173,
                    "duration": 0.08813150000000292
                },
                {
                    "name": "B3",
                    "midi": 59,
                    "time": 38.425334000000014,
                    "velocity": 0.4015748031496063,
                    "duration": 0.08813150000000292
                },
                {
                    "name": "D4",
                    "midi": 62,
                    "time": 38.51346550000002,
                    "velocity": 0.3543307086614173,
                    "duration": 0.08813150000000292
                },
                {
                    "name": "C#4",
                    "midi": 61,
                    "time": 38.60159700000002,
                    "velocity": 0.4094488188976378,
                    "duration": 0.08813150000000292
                },
                {
                    "name": "E4",
                    "midi": 64,
                    "time": 38.68972850000002,
                    "velocity": 0.3700787401574803,
                    "duration": 0.08813150000000292
                },
                {
                    "name": "D4",
                    "midi": 62,
                    "time": 38.777860000000025,
                    "velocity": 0.41732283464566927,
                    "duration": 0.08813150000000292
                },
                {
                    "name": "B3",
                    "midi": 59,
                    "time": 38.777860000000025,
                    "velocity": 0.41732283464566927,
                    "duration": 0.08813150000000292
                },
                {
                    "name": "C4",
                    "midi": 60,
                    "time": 39.13038600000003,
                    "velocity": 0.28346456692913385,
                    "duration": 0.08813150000000292
                },
                {
                    "name": "E4",
                    "midi": 64,
                    "time": 39.21851750000003,
                    "velocity": 0.3543307086614173,
                    "duration": 0.08813150000000292
                },
                {
                    "name": "D4",
                    "midi": 62,
                    "time": 39.306649000000036,
                    "velocity": 0.3937007874015748,
                    "duration": 0.08813150000000292
                },
                {
                    "name": "F#4",
                    "midi": 66,
                    "time": 39.39478050000004,
                    "velocity": 0.3543307086614173,
                    "duration": 0.08813150000000292
                },
                {
                    "name": "E4",
                    "midi": 64,
                    "time": 39.48291200000004,
                    "velocity": 0.4015748031496063,
                    "duration": 0.08813150000000292
                },
                {
                    "name": "G4",
                    "midi": 67,
                    "time": 39.571043500000044,
                    "velocity": 0.3543307086614173,
                    "duration": 0.08813150000000292
                },
                {
                    "name": "F#4",
                    "midi": 66,
                    "time": 39.65917500000005,
                    "velocity": 0.4094488188976378,
                    "duration": 0.08813150000000292
                },
                {
                    "name": "A4",
                    "midi": 69,
                    "time": 39.74730650000005,
                    "velocity": 0.3700787401574803,
                    "duration": 0.08813150000000292
                },
                {
                    "name": "E4",
                    "midi": 64,
                    "time": 39.83543800000005,
                    "velocity": 0.41732283464566927,
                    "duration": 0.08813150000000292
                },
                {
                    "name": "G4",
                    "midi": 67,
                    "time": 39.83543800000005,
                    "velocity": 0.41732283464566927,
                    "duration": 0.08813150000000292
                },
                {
                    "name": "F#4",
                    "midi": 66,
                    "time": 40.276095500000054,
                    "velocity": 0.2125984251968504,
                    "duration": 0.08813150000000292
                },
                {
                    "name": "A#3",
                    "midi": 58,
                    "time": 40.36422700000006,
                    "velocity": 0.1968503937007874,
                    "duration": 0.08813150000000292
                },
                {
                    "name": "E4",
                    "midi": 64,
                    "time": 40.36422700000006,
                    "velocity": 0.23622047244094488,
                    "duration": 0.08813150000000292
                },
                {
                    "name": "F#4",
                    "midi": 66,
                    "time": 40.45235850000006,
                    "velocity": 0.2204724409448819,
                    "duration": 0.08813150000000292
                },
                {
                    "name": "A#3",
                    "midi": 58,
                    "time": 40.54049000000006,
                    "velocity": 0.2204724409448819,
                    "duration": 0.08813150000000292
                },
                {
                    "name": "D#4",
                    "midi": 63,
                    "time": 40.54049000000006,
                    "velocity": 0.25984251968503935,
                    "duration": 0.08813150000000292
                },
                {
                    "name": "F#4",
                    "midi": 66,
                    "time": 40.628621500000065,
                    "velocity": 0.2283464566929134,
                    "duration": 0.08813150000000292
                },
                {
                    "name": "A#3",
                    "midi": 58,
                    "time": 40.71675300000007,
                    "velocity": 0.2283464566929134,
                    "duration": 0.08813150000000292
                },
                {
                    "name": "D4",
                    "midi": 62,
                    "time": 40.71675300000007,
                    "velocity": 0.2755905511811024,
                    "duration": 0.08813150000000292
                },
                {
                    "name": "F#4",
                    "midi": 66,
                    "time": 40.80488450000007,
                    "velocity": 0.2204724409448819,
                    "duration": 0.08813150000000292
                },
                {
                    "name": "A#3",
                    "midi": 58,
                    "time": 40.893016000000074,
                    "velocity": 0.23622047244094488,
                    "duration": 0.08813150000000292
                },
                {
                    "name": "C#4",
                    "midi": 61,
                    "time": 40.893016000000074,
                    "velocity": 0.28346456692913385,
                    "duration": 0.08813150000000292
                },
                {
                    "name": "F#4",
                    "midi": 66,
                    "time": 40.98114750000008,
                    "velocity": 0.25196850393700787,
                    "duration": 0.08813150000000292
                },
                {
                    "name": "A3",
                    "midi": 57,
                    "time": 41.06927900000008,
                    "velocity": 0.23622047244094488,
                    "duration": 0.08813150000000292
                },
                {
                    "name": "C4",
                    "midi": 60,
                    "time": 41.06927900000008,
                    "velocity": 0.28346456692913385,
                    "duration": 0.08813150000000292
                },
                {
                    "name": "F#4",
                    "midi": 66,
                    "time": 41.15741050000008,
                    "velocity": 0.25984251968503935,
                    "duration": 0.08813150000000292
                },
                {
                    "name": "B3",
                    "midi": 59,
                    "time": 41.245542000000086,
                    "velocity": 0.2755905511811024,
                    "duration": 0.8813150000000007
                },
                {
                    "name": "A5",
                    "midi": 81,
                    "time": 42.303120000000085,
                    "velocity": 0.31496062992125984,
                    "duration": 0.08813150000000292
                },
                {
                    "name": "C#5",
                    "midi": 73,
                    "time": 42.39125150000009,
                    "velocity": 0.25196850393700787,
                    "duration": 0.08813150000000292
                },
                {
                    "name": "G5",
                    "midi": 79,
                    "time": 42.47938300000009,
                    "velocity": 0.28346456692913385,
                    "duration": 0.08813150000000292
                },
                {
                    "name": "C#5",
                    "midi": 73,
                    "time": 42.567514500000094,
                    "velocity": 0.25196850393700787,
                    "duration": 0.08813150000000292
                },
                {
                    "name": "F#5",
                    "midi": 78,
                    "time": 42.6556460000001,
                    "velocity": 0.2283464566929134,
                    "duration": 0.08813150000000292
                },
                {
                    "name": "C#5",
                    "midi": 73,
                    "time": 42.7437775000001,
                    "velocity": 0.1968503937007874,
                    "duration": 0.08813150000000292
                },
                {
                    "name": "F#5",
                    "midi": 78,
                    "time": 42.8319090000001,
                    "velocity": 0.2204724409448819,
                    "duration": 0.08813150000000292
                },
                {
                    "name": "C#5",
                    "midi": 73,
                    "time": 42.920040500000106,
                    "velocity": 0.1968503937007874,
                    "duration": 0.08813150000000292
                },
                {
                    "name": "F#5",
                    "midi": 78,
                    "time": 43.00817200000011,
                    "velocity": 0.30708661417322836,
                    "duration": 0.08813150000000292
                },
                {
                    "name": "A5",
                    "midi": 81,
                    "time": 43.36069800000011,
                    "velocity": 0.31496062992125984,
                    "duration": 0.08813150000000292
                },
                {
                    "name": "D5",
                    "midi": 74,
                    "time": 43.448829500000116,
                    "velocity": 0.25196850393700787,
                    "duration": 0.08813150000000292
                },
                {
                    "name": "G5",
                    "midi": 79,
                    "time": 43.53696100000012,
                    "velocity": 0.28346456692913385,
                    "duration": 0.08813150000000292
                },
                {
                    "name": "D5",
                    "midi": 74,
                    "time": 43.62509250000012,
                    "velocity": 0.25196850393700787,
                    "duration": 0.08813150000000292
                },
                {
                    "name": "F#5",
                    "midi": 78,
                    "time": 43.713224000000125,
                    "velocity": 0.2283464566929134,
                    "duration": 0.08813150000000292
                },
                {
                    "name": "D5",
                    "midi": 74,
                    "time": 43.80135550000013,
                    "velocity": 0.1968503937007874,
                    "duration": 0.08813150000000292
                },
                {
                    "name": "F#5",
                    "midi": 78,
                    "time": 43.88948700000013,
                    "velocity": 0.2204724409448819,
                    "duration": 0.08813150000000292
                },
                {
                    "name": "D5",
                    "midi": 74,
                    "time": 43.97761850000013,
                    "velocity": 0.1968503937007874,
                    "duration": 0.08813150000000292
                },
                {
                    "name": "F#5",
                    "midi": 78,
                    "time": 44.065750000000136,
                    "velocity": 0.30708661417322836,
                    "duration": 0.08813150000000292
                },
                {
                    "name": "B5",
                    "midi": 83,
                    "time": 44.41827600000014,
                    "velocity": 0.31496062992125984,
                    "duration": 0.08813150000000292
                },
                {
                    "name": "D#5",
                    "midi": 75,
                    "time": 44.506407500000144,
                    "velocity": 0.25196850393700787,
                    "duration": 0.08813150000000292
                },
                {
                    "name": "A5",
                    "midi": 81,
                    "time": 44.59453900000015,
                    "velocity": 0.28346456692913385,
                    "duration": 0.08813150000000292
                },
                {
                    "name": "D#5",
                    "midi": 75,
                    "time": 44.68267050000015,
                    "velocity": 0.25196850393700787,
                    "duration": 0.08813150000000292
                },
                {
                    "name": "G5",
                    "midi": 79,
                    "time": 44.77080200000015,
                    "velocity": 0.2283464566929134,
                    "duration": 0.08813150000000292
                },
                {
                    "name": "D#5",
                    "midi": 75,
                    "time": 44.858933500000155,
                    "velocity": 0.1968503937007874,
                    "duration": 0.08813150000000292
                },
                {
                    "name": "G5",
                    "midi": 79,
                    "time": 44.94706500000016,
                    "velocity": 0.2204724409448819,
                    "duration": 0.08813150000000292
                },
                {
                    "name": "D#5",
                    "midi": 75,
                    "time": 45.03519650000016,
                    "velocity": 0.1968503937007874,
                    "duration": 0.08813150000000292
                },
                {
                    "name": "G5",
                    "midi": 79,
                    "time": 45.123328000000164,
                    "velocity": 0.30708661417322836,
                    "duration": 0.08813150000000292
                },
                {
                    "name": "B5",
                    "midi": 83,
                    "time": 45.47585400000017,
                    "velocity": 0.31496062992125984,
                    "duration": 0.08813150000000292
                },
                {
                    "name": "E5",
                    "midi": 76,
                    "time": 45.56398550000017,
                    "velocity": 0.25196850393700787,
                    "duration": 0.08813150000000292
                },
                {
                    "name": "A5",
                    "midi": 81,
                    "time": 45.652117000000175,
                    "velocity": 0.28346456692913385,
                    "duration": 0.08813150000000292
                },
                {
                    "name": "E5",
                    "midi": 76,
                    "time": 45.74024850000018,
                    "velocity": 0.25196850393700787,
                    "duration": 0.08813150000000292
                },
                {
                    "name": "G5",
                    "midi": 79,
                    "time": 45.82838000000018,
                    "velocity": 0.2283464566929134,
                    "duration": 0.08813150000000292
                },
                {
                    "name": "E5",
                    "midi": 76,
                    "time": 45.91651150000018,
                    "velocity": 0.1968503937007874,
                    "duration": 0.08813150000000292
                },
                {
                    "name": "G5",
                    "midi": 79,
                    "time": 46.004643000000186,
                    "velocity": 0.2204724409448819,
                    "duration": 0.08813150000000292
                },
                {
                    "name": "E5",
                    "midi": 76,
                    "time": 46.09277450000019,
                    "velocity": 0.1968503937007874,
                    "duration": 0.08813150000000292
                },
                {
                    "name": "G5",
                    "midi": 79,
                    "time": 46.18090600000019,
                    "velocity": 0.30708661417322836,
                    "duration": 0.08813150000000292
                },
                {
                    "name": "C6",
                    "midi": 84,
                    "time": 46.5334320000002,
                    "velocity": 0.3937007874015748,
                    "duration": 0.08813150000000292
                },
                {
                    "name": "E5",
                    "midi": 76,
                    "time": 46.6215635000002,
                    "velocity": 0.30708661417322836,
                    "duration": 0.08813150000000292
                },
                {
                    "name": "A#5",
                    "midi": 82,
                    "time": 46.7096950000002,
                    "velocity": 0.3543307086614173,
                    "duration": 0.08813150000000292
                },
                {
                    "name": "E5",
                    "midi": 76,
                    "time": 46.797826500000205,
                    "velocity": 0.30708661417322836,
                    "duration": 0.08813150000000292
                },
                {
                    "name": "A5",
                    "midi": 81,
                    "time": 46.88595800000021,
                    "velocity": 0.28346456692913385,
                    "duration": 0.08813150000000292
                },
                {
                    "name": "E5",
                    "midi": 76,
                    "time": 46.97408950000021,
                    "velocity": 0.23622047244094488,
                    "duration": 0.08813150000000292
                },
                {
                    "name": "A5",
                    "midi": 81,
                    "time": 47.062221000000214,
                    "velocity": 0.2755905511811024,
                    "duration": 0.08813150000000292
                },
                {
                    "name": "E5",
                    "midi": 76,
                    "time": 47.15035250000022,
                    "velocity": 0.23622047244094488,
                    "duration": 0.08813150000000292
                },
                {
                    "name": "A5",
                    "midi": 81,
                    "time": 47.23848400000022,
                    "velocity": 0.3779527559055118,
                    "duration": 0.08813150000000292
                },
                {
                    "name": "C6",
                    "midi": 84,
                    "time": 47.591010000000225,
                    "velocity": 0.4330708661417323,
                    "duration": 0.08813150000000292
                },
                {
                    "name": "F5",
                    "midi": 77,
                    "time": 47.67914150000023,
                    "velocity": 0.33070866141732286,
                    "duration": 0.08813150000000292
                },
                {
                    "name": "A#5",
                    "midi": 82,
                    "time": 47.76727300000023,
                    "velocity": 0.3858267716535433,
                    "duration": 0.08813150000000292
                },
                {
                    "name": "F5",
                    "midi": 77,
                    "time": 47.85540450000023,
                    "velocity": 0.33070866141732286,
                    "duration": 0.08813150000000292
                },
                {
                    "name": "A5",
                    "midi": 81,
                    "time": 47.943536000000236,
                    "velocity": 0.30708661417322836,
                    "duration": 0.08813150000000292
                },
                {
                    "name": "F5",
                    "midi": 77,
                    "time": 48.03166750000024,
                    "velocity": 0.25984251968503935,
                    "duration": 0.08813150000000292
                },
                {
                    "name": "A5",
                    "midi": 81,
                    "time": 48.11979900000024,
                    "velocity": 0.2992125984251969,
                    "duration": 0.08813150000000292
                },
                {
                    "name": "F5",
                    "midi": 77,
                    "time": 48.207930500000245,
                    "velocity": 0.25984251968503935,
                    "duration": 0.08813150000000292
                },
                {
                    "name": "A5",
                    "midi": 81,
                    "time": 48.29606200000025,
                    "velocity": 0.4094488188976378,
                    "duration": 0.08813150000000292
                },
                {
                    "name": "D6",
                    "midi": 86,
                    "time": 48.64858800000025,
                    "velocity": 0.47244094488188976,
                    "duration": 0.08813150000000292
                },
                {
                    "name": "F#5",
                    "midi": 78,
                    "time": 48.736719500000255,
                    "velocity": 0.36220472440944884,
                    "duration": 0.08813150000000292
                },
                {
                    "name": "C6",
                    "midi": 84,
                    "time": 48.82485100000026,
                    "velocity": 0.41732283464566927,
                    "duration": 0.08813150000000292
                },
                {
                    "name": "F#5",
                    "midi": 78,
                    "time": 48.91298250000026,
                    "velocity": 0.36220472440944884,
                    "duration": 0.08813150000000292
                },
                {
                    "name": "A#5",
                    "midi": 82,
                    "time": 49.001114000000264,
                    "velocity": 0.33070866141732286,
                    "duration": 0.08813150000000292
                },
                {
                    "name": "F#5",
                    "midi": 78,
                    "time": 49.08924550000027,
                    "velocity": 0.28346456692913385,
                    "duration": 0.08813150000000292
                },
                {
                    "name": "A#5",
                    "midi": 82,
                    "time": 49.17737700000027,
                    "velocity": 0.3228346456692913,
                    "duration": 0.08813150000000292
                },
                {
                    "name": "F#5",
                    "midi": 78,
                    "time": 49.26550850000027,
                    "velocity": 0.28346456692913385,
                    "duration": 0.08813150000000292
                },
                {
                    "name": "A#5",
                    "midi": 82,
                    "time": 49.353640000000276,
                    "velocity": 0.44881889763779526,
                    "duration": 0.08813150000000292
                },
                {
                    "name": "D6",
                    "midi": 86,
                    "time": 49.70616600000028,
                    "velocity": 0.5196850393700787,
                    "duration": 0.08813150000000292
                },
                {
                    "name": "G5",
                    "midi": 79,
                    "time": 49.79429750000028,
                    "velocity": 0.3937007874015748,
                    "duration": 0.08813150000000292
                },
                {
                    "name": "C6",
                    "midi": 84,
                    "time": 49.882429000000286,
                    "velocity": 0.4566929133858268,
                    "duration": 0.08813150000000292
                },
                {
                    "name": "G5",
                    "midi": 79,
                    "time": 49.97056050000029,
                    "velocity": 0.3937007874015748,
                    "duration": 0.08813150000000292
                },
                {
                    "name": "A#5",
                    "midi": 82,
                    "time": 50.05869200000029,
                    "velocity": 0.36220472440944884,
                    "duration": 0.08813150000000292
                },
                {
                    "name": "G5",
                    "midi": 79,
                    "time": 50.146823500000295,
                    "velocity": 0.30708661417322836,
                    "duration": 0.08813150000000292
                },
                {
                    "name": "A#5",
                    "midi": 82,
                    "time": 50.2349550000003,
                    "velocity": 0.3543307086614173,
                    "duration": 0.08813150000000292
                },
                {
                    "name": "G5",
                    "midi": 79,
                    "time": 50.3230865000003,
                    "velocity": 0.30708661417322836,
                    "duration": 0.08813150000000292
                },
                {
                    "name": "A#5",
                    "midi": 82,
                    "time": 50.411218000000304,
                    "velocity": 0.4881889763779528,
                    "duration": 0.08813150000000292
                },
                {
                    "name": "C6",
                    "midi": 84,
                    "time": 50.76374400000031,
                    "velocity": 0.5196850393700787,
                    "duration": 0.08813150000000292
                },
                {
                    "name": "G5",
                    "midi": 79,
                    "time": 50.85187550000031,
                    "velocity": 0.3937007874015748,
                    "duration": 0.08813150000000292
                },
                {
                    "name": "A#5",
                    "midi": 82,
                    "time": 50.940007000000314,
                    "velocity": 0.4566929133858268,
                    "duration": 0.08813150000000292
                },
                {
                    "name": "G5",
                    "midi": 79,
                    "time": 51.02813850000032,
                    "velocity": 0.3937007874015748,
                    "duration": 0.08813150000000292
                },
                {
                    "name": "C6",
                    "midi": 84,
                    "time": 51.11627000000032,
                    "velocity": 0.5196850393700787,
                    "duration": 0.08813150000000292
                },
                {
                    "name": "G#5",
                    "midi": 80,
                    "time": 51.20440150000032,
                    "velocity": 0.3937007874015748,
                    "duration": 0.08813150000000292
                },
                {
                    "name": "A#5",
                    "midi": 82,
                    "time": 51.292533000000326,
                    "velocity": 0.4566929133858268,
                    "duration": 0.08813150000000292
                },
                {
                    "name": "G#5",
                    "midi": 80,
                    "time": 51.38066450000033,
                    "velocity": 0.3937007874015748,
                    "duration": 0.08813150000000292
                },
                {
                    "name": "C6",
                    "midi": 84,
                    "time": 51.46879600000033,
                    "velocity": 0.5196850393700787,
                    "duration": 0.08813150000000292
                },
                {
                    "name": "G5",
                    "midi": 79,
                    "time": 51.556927500000334,
                    "velocity": 0.3937007874015748,
                    "duration": 0.08813150000000292
                },
                {
                    "name": "A#5",
                    "midi": 82,
                    "time": 51.64505900000034,
                    "velocity": 0.4566929133858268,
                    "duration": 0.08813150000000292
                },
                {
                    "name": "G5",
                    "midi": 79,
                    "time": 51.73319050000034,
                    "velocity": 0.3937007874015748,
                    "duration": 0.08813150000000292
                },
                {
                    "name": "A5",
                    "midi": 81,
                    "time": 51.82132200000034,
                    "velocity": 0.5196850393700787,
                    "duration": 0.08813150000000292
                },
                {
                    "name": "C#5",
                    "midi": 73,
                    "time": 51.909453500000346,
                    "velocity": 0.3937007874015748,
                    "duration": 0.08813150000000292
                },
                {
                    "name": "G5",
                    "midi": 79,
                    "time": 51.99758500000035,
                    "velocity": 0.4566929133858268,
                    "duration": 0.08813150000000292
                },
                {
                    "name": "C#5",
                    "midi": 73,
                    "time": 52.08571650000035,
                    "velocity": 0.3937007874015748,
                    "duration": 0.08813150000000292
                },
                {
                    "name": "A5",
                    "midi": 81,
                    "time": 52.173848000000355,
                    "velocity": 0.5196850393700787,
                    "duration": 0.08813150000000292
                },
                {
                    "name": "F5",
                    "midi": 77,
                    "time": 52.26197950000036,
                    "velocity": 0.3937007874015748,
                    "duration": 0.08813150000000292
                },
                {
                    "name": "G5",
                    "midi": 79,
                    "time": 52.35011100000036,
                    "velocity": 0.4566929133858268,
                    "duration": 0.08813150000000292
                },
                {
                    "name": "F5",
                    "midi": 77,
                    "time": 52.438242500000364,
                    "velocity": 0.3937007874015748,
                    "duration": 0.08813150000000292
                },
                {
                    "name": "A5",
                    "midi": 81,
                    "time": 52.52637400000037,
                    "velocity": 0.5196850393700787,
                    "duration": 0.08813150000000292
                },
                {
                    "name": "E5",
                    "midi": 76,
                    "time": 52.61450550000037,
                    "velocity": 0.3937007874015748,
                    "duration": 0.08813150000000292
                },
                {
                    "name": "G5",
                    "midi": 79,
                    "time": 52.70263700000037,
                    "velocity": 0.4566929133858268,
                    "duration": 0.08813150000000292
                },
                {
                    "name": "E5",
                    "midi": 76,
                    "time": 52.790768500000375,
                    "velocity": 0.3937007874015748,
                    "duration": 0.08813150000000292
                },
                {
                    "name": "F#5",
                    "midi": 78,
                    "time": 52.87890000000038,
                    "velocity": 0.5196850393700787,
                    "duration": 0.08813150000000292
                },
                {
                    "name": "A#4",
                    "midi": 70,
                    "time": 52.96703150000038,
                    "velocity": 0.3937007874015748,
                    "duration": 0.08813150000000292
                },
                {
                    "name": "F#5",
                    "midi": 78,
                    "time": 53.055163000000384,
                    "velocity": 0.4566929133858268,
                    "duration": 0.08813150000000292
                },
                {
                    "name": "A#4",
                    "midi": 70,
                    "time": 53.14329450000039,
                    "velocity": 0.3937007874015748,
                    "duration": 0.08813150000000292
                },
                {
                    "name": "F#5",
                    "midi": 78,
                    "time": 53.23142600000039,
                    "velocity": 0.5275590551181102,
                    "duration": 0.08813150000000292
                },
                {
                    "name": "D5",
                    "midi": 74,
                    "time": 53.31955750000039,
                    "velocity": 0.4015748031496063,
                    "duration": 0.08813150000000292
                },
                {
                    "name": "E5",
                    "midi": 76,
                    "time": 53.407689000000396,
                    "velocity": 0.4645669291338583,
                    "duration": 0.08813150000000292
                },
                {
                    "name": "D5",
                    "midi": 74,
                    "time": 53.4958205000004,
                    "velocity": 0.4094488188976378,
                    "duration": 0.08813150000000292
                },
                {
                    "name": "F#5",
                    "midi": 78,
                    "time": 53.5839520000004,
                    "velocity": 0.5433070866141733,
                    "duration": 0.08813150000000292
                },
                {
                    "name": "C#5",
                    "midi": 73,
                    "time": 53.672083500000404,
                    "velocity": 0.4094488188976378,
                    "duration": 0.08813150000000292
                },
                {
                    "name": "E5",
                    "midi": 76,
                    "time": 53.76021500000041,
                    "velocity": 0.48031496062992124,
                    "duration": 0.08813150000000292
                },
                {
                    "name": "C#5",
                    "midi": 73,
                    "time": 53.84834650000041,
                    "velocity": 0.41732283464566927,
                    "duration": 0.08813150000000292
                },
                {
                    "name": "F#5",
                    "midi": 78,
                    "time": 53.93647800000041,
                    "velocity": 0.5511811023622047,
                    "duration": 0.08813150000000292
                },
                {
                    "name": "C5",
                    "midi": 72,
                    "time": 54.024609500000416,
                    "velocity": 0.4251968503937008,
                    "duration": 0.08813150000000292
                },
                {
                    "name": "E5",
                    "midi": 76,
                    "time": 54.11274100000042,
                    "velocity": 0.4881889763779528,
                    "duration": 0.08813150000000292
                },
                {
                    "name": "C5",
                    "midi": 72,
                    "time": 54.20087250000042,
                    "velocity": 0.4251968503937008,
                    "duration": 0.08813150000000292
                },
                {
                    "name": "F#5",
                    "midi": 78,
                    "time": 54.289004000000425,
                    "velocity": 0.5511811023622047,
                    "duration": 0.08813150000000292
                },
                {
                    "name": "B4",
                    "midi": 71,
                    "time": 54.37713550000043,
                    "velocity": 0.4330708661417323,
                    "duration": 0.08813150000000292
                },
                {
                    "name": "E5",
                    "midi": 76,
                    "time": 54.46526700000043,
                    "velocity": 0.5039370078740157,
                    "duration": 0.08813150000000292
                },
                {
                    "name": "B4",
                    "midi": 71,
                    "time": 54.553398500000434,
                    "velocity": 0.4330708661417323,
                    "duration": 0.08813150000000292
                },
                {
                    "name": "F#5",
                    "midi": 78,
                    "time": 54.64153000000044,
                    "velocity": 0.5433070866141733,
                    "duration": 0.08813150000000292
                },
                {
                    "name": "B4",
                    "midi": 71,
                    "time": 54.72966150000044,
                    "velocity": 0.4409448818897638,
                    "duration": 0.08813150000000292
                },
                {
                    "name": "E5",
                    "midi": 76,
                    "time": 54.81779300000044,
                    "velocity": 0.5118110236220472,
                    "duration": 0.08813150000000292
                },
                {
                    "name": "B4",
                    "midi": 71,
                    "time": 54.905924500000445,
                    "velocity": 0.44881889763779526,
                    "duration": 0.08813150000000292
                },
                {
                    "name": "F#5",
                    "midi": 78,
                    "time": 54.99405600000045,
                    "velocity": 0.5826771653543307,
                    "duration": 0.08813150000000292
                },
                {
                    "name": "A#4",
                    "midi": 70,
                    "time": 55.08218750000045,
                    "velocity": 0.4251968503937008,
                    "duration": 0.08813150000000292
                },
                {
                    "name": "E5",
                    "midi": 76,
                    "time": 55.170319000000454,
                    "velocity": 0.5196850393700787,
                    "duration": 0.08813150000000292
                },
                {
                    "name": "G4",
                    "midi": 67,
                    "time": 55.25845050000046,
                    "velocity": 0.4330708661417323,
                    "duration": 0.08813150000000292
                },
                {
                    "name": "D5",
                    "midi": 74,
                    "time": 55.34658200000046,
                    "velocity": 0.5118110236220472,
                    "duration": 0.08813150000000292
                },
                {
                    "name": "G4",
                    "midi": 67,
                    "time": 55.43471350000046,
                    "velocity": 0.41732283464566927,
                    "duration": 0.08813150000000292
                },
                {
                    "name": "C#5",
                    "midi": 73,
                    "time": 55.522845000000466,
                    "velocity": 0.4881889763779528,
                    "duration": 0.08813150000000292
                },
                {
                    "name": "E4",
                    "midi": 64,
                    "time": 55.61097650000047,
                    "velocity": 0.4330708661417323,
                    "duration": 0.08813150000000292
                },
                {
                    "name": "B4",
                    "midi": 71,
                    "time": 55.69910800000047,
                    "velocity": 0.5196850393700787,
                    "duration": 0.08813150000000292
                },
                {
                    "name": "E4",
                    "midi": 64,
                    "time": 55.787239500000474,
                    "velocity": 0.3937007874015748,
                    "duration": 0.08813150000000292
                },
                {
                    "name": "A#4",
                    "midi": 70,
                    "time": 55.87537100000048,
                    "velocity": 0.4566929133858268,
                    "duration": 0.08813150000000292
                },
                {
                    "name": "C#4",
                    "midi": 61,
                    "time": 55.96350250000048,
                    "velocity": 0.3937007874015748,
                    "duration": 0.08813150000000292
                },
                {
                    "name": "G4",
                    "midi": 67,
                    "time": 56.05163400000048,
                    "velocity": 0.5826771653543307,
                    "duration": 0.08813150000000292
                },
                {
                    "name": "C#4",
                    "midi": 61,
                    "time": 56.14857865000049,
                    "velocity": 0.4251968503937008,
                    "duration": 0.08813150000000292
                },
                {
                    "name": "F#4",
                    "midi": 66,
                    "time": 56.22789700000049,
                    "velocity": 0.5196850393700787,
                    "duration": 0.08813150000000292
                },
                {
                    "name": "A#3",
                    "midi": 58,
                    "time": 56.31602850000049,
                    "velocity": 0.4330708661417323,
                    "duration": 0.08813150000000292
                },
                {
                    "name": "B3",
                    "midi": 59,
                    "time": 59.224368000000496,
                    "velocity": 0.25984251968503935,
                    "duration": 0.08813150000000292
                },
                {
                    "name": "D4",
                    "midi": 62,
                    "time": 59.3124995000005,
                    "velocity": 0.1968503937007874,
                    "duration": 0.08813150000000292
                },
                {
                    "name": "C#4",
                    "midi": 61,
                    "time": 59.4006310000005,
                    "velocity": 0.2125984251968504,
                    "duration": 0.08813150000000292
                },
                {
                    "name": "E4",
                    "midi": 64,
                    "time": 59.488762500000504,
                    "velocity": 0.18110236220472442,
                    "duration": 0.08813150000000292
                },
                {
                    "name": "D4",
                    "midi": 62,
                    "time": 59.57689400000051,
                    "velocity": 0.2047244094488189,
                    "duration": 0.08813150000000292
                },
                {
                    "name": "F#4",
                    "midi": 66,
                    "time": 59.66502550000051,
                    "velocity": 0.16535433070866143,
                    "duration": 0.08813150000000292
                },
                {
                    "name": "E4",
                    "midi": 64,
                    "time": 59.75315700000051,
                    "velocity": 0.1732283464566929,
                    "duration": 0.08813150000000292
                },
                {
                    "name": "G4",
                    "midi": 67,
                    "time": 59.841288500000516,
                    "velocity": 0.14960629921259844,
                    "duration": 0.08813150000000292
                },
                {
                    "name": "D4",
                    "midi": 62,
                    "time": 59.92942000000052,
                    "velocity": 0.1732283464566929,
                    "duration": 0.08813150000000292
                },
                {
                    "name": "F#4",
                    "midi": 66,
                    "time": 59.92942000000052,
                    "velocity": 0.1732283464566929,
                    "duration": 0.08813150000000292
                },
                {
                    "name": "B3",
                    "midi": 59,
                    "time": 60.281946000000524,
                    "velocity": 0.25984251968503935,
                    "duration": 0.08813150000000292
                },
                {
                    "name": "D4",
                    "midi": 62,
                    "time": 60.37007750000053,
                    "velocity": 0.1968503937007874,
                    "duration": 0.08813150000000292
                },
                {
                    "name": "C#4",
                    "midi": 61,
                    "time": 60.45820900000053,
                    "velocity": 0.2125984251968504,
                    "duration": 0.08813150000000292
                },
                {
                    "name": "E4",
                    "midi": 64,
                    "time": 60.54634050000053,
                    "velocity": 0.18110236220472442,
                    "duration": 0.08813150000000292
                },
                {
                    "name": "D4",
                    "midi": 62,
                    "time": 60.634472000000535,
                    "velocity": 0.2047244094488189,
                    "duration": 0.08813150000000292
                },
                {
                    "name": "F#4",
                    "midi": 66,
                    "time": 60.72260350000054,
                    "velocity": 0.16535433070866143,
                    "duration": 0.08813150000000292
                },
                {
                    "name": "E4",
                    "midi": 64,
                    "time": 60.81073500000054,
                    "velocity": 0.1732283464566929,
                    "duration": 0.08813150000000292
                },
                {
                    "name": "G4",
                    "midi": 67,
                    "time": 60.898866500000544,
                    "velocity": 0.14960629921259844,
                    "duration": 0.08813150000000292
                },
                {
                    "name": "D4",
                    "midi": 62,
                    "time": 60.98699800000055,
                    "velocity": 0.1732283464566929,
                    "duration": 0.08813150000000292
                },
                {
                    "name": "F#4",
                    "midi": 66,
                    "time": 60.98699800000055,
                    "velocity": 0.1732283464566929,
                    "duration": 0.08813150000000292
                },
                {
                    "name": "G4",
                    "midi": 67,
                    "time": 61.33952400000055,
                    "velocity": 0.28346456692913385,
                    "duration": 0.08813150000000292
                },
                {
                    "name": "B4",
                    "midi": 71,
                    "time": 61.427655500000554,
                    "velocity": 0.2283464566929134,
                    "duration": 0.08813150000000292
                },
                {
                    "name": "F#4",
                    "midi": 66,
                    "time": 61.51578700000056,
                    "velocity": 0.25984251968503935,
                    "duration": 0.08813150000000292
                },
                {
                    "name": "A4",
                    "midi": 69,
                    "time": 61.60391850000056,
                    "velocity": 0.2204724409448819,
                    "duration": 0.08813150000000292
                },
                {
                    "name": "E4",
                    "midi": 64,
                    "time": 61.69205000000056,
                    "velocity": 0.25196850393700787,
                    "duration": 0.08813150000000292
                },
                {
                    "name": "G4",
                    "midi": 67,
                    "time": 61.780181500000566,
                    "velocity": 0.2125984251968504,
                    "duration": 0.08813150000000292
                },
                {
                    "name": "D4",
                    "midi": 62,
                    "time": 61.86831300000057,
                    "velocity": 0.23622047244094488,
                    "duration": 0.08813150000000292
                },
                {
                    "name": "F#4",
                    "midi": 66,
                    "time": 61.95644450000057,
                    "velocity": 0.2125984251968504,
                    "duration": 0.08813150000000292
                },
                {
                    "name": "C#4",
                    "midi": 61,
                    "time": 62.044576000000575,
                    "velocity": 0.25984251968503935,
                    "duration": 0.08813150000000292
                },
                {
                    "name": "E4",
                    "midi": 64,
                    "time": 62.044576000000575,
                    "velocity": 0.25984251968503935,
                    "duration": 0.08813150000000292
                },
                {
                    "name": "F#4",
                    "midi": 66,
                    "time": 62.39710200000058,
                    "velocity": 0.28346456692913385,
                    "duration": 0.08813150000000292
                },
                {
                    "name": "A4",
                    "midi": 69,
                    "time": 62.48523350000058,
                    "velocity": 0.2283464566929134,
                    "duration": 0.08813150000000292
                },
                {
                    "name": "E4",
                    "midi": 64,
                    "time": 62.573365000000585,
                    "velocity": 0.25984251968503935,
                    "duration": 0.08813150000000292
                },
                {
                    "name": "G4",
                    "midi": 67,
                    "time": 62.66149650000059,
                    "velocity": 0.2204724409448819,
                    "duration": 0.08813150000000292
                },
                {
                    "name": "D4",
                    "midi": 62,
                    "time": 62.74962800000059,
                    "velocity": 0.25196850393700787,
                    "duration": 0.08813150000000292
                },
                {
                    "name": "F#4",
                    "midi": 66,
                    "time": 62.837759500000594,
                    "velocity": 0.2125984251968504,
                    "duration": 0.08813150000000292
                },
                {
                    "name": "C#4",
                    "midi": 61,
                    "time": 62.9258910000006,
                    "velocity": 0.23622047244094488,
                    "duration": 0.08813150000000292
                },
                {
                    "name": "E4",
                    "midi": 64,
                    "time": 63.0140225000006,
                    "velocity": 0.2125984251968504,
                    "duration": 0.08813150000000292
                },
                {
                    "name": "B3",
                    "midi": 59,
                    "time": 63.1021540000006,
                    "velocity": 0.25984251968503935,
                    "duration": 0.08813150000000292
                },
                {
                    "name": "D4",
                    "midi": 62,
                    "time": 63.1021540000006,
                    "velocity": 0.25984251968503935,
                    "duration": 0.08813150000000292
                },
                {
                    "name": "G3",
                    "midi": 55,
                    "time": 63.45468000000061,
                    "velocity": 0.28346456692913385,
                    "duration": 0.08813150000000292
                },
                {
                    "name": "B3",
                    "midi": 59,
                    "time": 63.54281150000061,
                    "velocity": 0.3543307086614173,
                    "duration": 0.08813150000000292
                },
                {
                    "name": "A3",
                    "midi": 57,
                    "time": 63.63094300000061,
                    "velocity": 0.3937007874015748,
                    "duration": 0.08813150000000292
                },
                {
                    "name": "C#4",
                    "midi": 61,
                    "time": 63.719074500000616,
                    "velocity": 0.3543307086614173,
                    "duration": 0.08813150000000292
                },
                {
                    "name": "B3",
                    "midi": 59,
                    "time": 63.80720600000062,
                    "velocity": 0.4015748031496063,
                    "duration": 0.08813150000000292
                },
                {
                    "name": "D4",
                    "midi": 62,
                    "time": 63.89533750000062,
                    "velocity": 0.3543307086614173,
                    "duration": 0.08813150000000292
                },
                {
                    "name": "C#4",
                    "midi": 61,
                    "time": 63.983469000000625,
                    "velocity": 0.4094488188976378,
                    "duration": 0.08813150000000292
                },
                {
                    "name": "E4",
                    "midi": 64,
                    "time": 64.07160050000063,
                    "velocity": 0.3700787401574803,
                    "duration": 0.08813150000000292
                },
                {
                    "name": "D4",
                    "midi": 62,
                    "time": 64.15973200000063,
                    "velocity": 0.41732283464566927,
                    "duration": 0.08813150000000292
                },
                {
                    "name": "B3",
                    "midi": 59,
                    "time": 64.15973200000063,
                    "velocity": 0.41732283464566927,
                    "duration": 0.08813150000000292
                },
                {
                    "name": "C4",
                    "midi": 60,
                    "time": 64.51225800000063,
                    "velocity": 0.28346456692913385,
                    "duration": 0.08813150000000292
                },
                {
                    "name": "E4",
                    "midi": 64,
                    "time": 64.60038950000063,
                    "velocity": 0.3543307086614173,
                    "duration": 0.08813150000000292
                },
                {
                    "name": "D4",
                    "midi": 62,
                    "time": 64.68852100000063,
                    "velocity": 0.3937007874015748,
                    "duration": 0.08813150000000292
                },
                {
                    "name": "F#4",
                    "midi": 66,
                    "time": 64.77665250000064,
                    "velocity": 0.3543307086614173,
                    "duration": 0.08813150000000292
                },
                {
                    "name": "E4",
                    "midi": 64,
                    "time": 64.86478400000064,
                    "velocity": 0.4015748031496063,
                    "duration": 0.08813150000000292
                },
                {
                    "name": "G4",
                    "midi": 67,
                    "time": 64.95291550000064,
                    "velocity": 0.3543307086614173,
                    "duration": 0.08813150000000292
                },
                {
                    "name": "F#4",
                    "midi": 66,
                    "time": 65.04104700000065,
                    "velocity": 0.4094488188976378,
                    "duration": 0.08813150000000292
                },
                {
                    "name": "A4",
                    "midi": 69,
                    "time": 65.12917850000065,
                    "velocity": 0.3700787401574803,
                    "duration": 0.08813150000000292
                },
                {
                    "name": "E4",
                    "midi": 64,
                    "time": 65.21731000000065,
                    "velocity": 0.41732283464566927,
                    "duration": 0.08813150000000292
                },
                {
                    "name": "G4",
                    "midi": 67,
                    "time": 65.21731000000065,
                    "velocity": 0.41732283464566927,
                    "duration": 0.08813150000000292
                },
                {
                    "name": "F#4",
                    "midi": 66,
                    "time": 65.65796750000065,
                    "velocity": 0.2125984251968504,
                    "duration": 0.08813150000000292
                },
                {
                    "name": "A#3",
                    "midi": 58,
                    "time": 65.74609900000065,
                    "velocity": 0.1968503937007874,
                    "duration": 0.08813150000000292
                },
                {
                    "name": "E4",
                    "midi": 64,
                    "time": 65.74609900000065,
                    "velocity": 0.23622047244094488,
                    "duration": 0.08813150000000292
                },
                {
                    "name": "F#4",
                    "midi": 66,
                    "time": 65.83423050000066,
                    "velocity": 0.2204724409448819,
                    "duration": 0.08813150000000292
                },
                {
                    "name": "A#3",
                    "midi": 58,
                    "time": 65.92236200000066,
                    "velocity": 0.2204724409448819,
                    "duration": 0.08813150000000292
                },
                {
                    "name": "D#4",
                    "midi": 63,
                    "time": 65.92236200000066,
                    "velocity": 0.25984251968503935,
                    "duration": 0.08813150000000292
                },
                {
                    "name": "F#4",
                    "midi": 66,
                    "time": 66.01049350000066,
                    "velocity": 0.2283464566929134,
                    "duration": 0.08813150000000292
                },
                {
                    "name": "A#3",
                    "midi": 58,
                    "time": 66.09862500000067,
                    "velocity": 0.2283464566929134,
                    "duration": 0.08813150000000292
                },
                {
                    "name": "D4",
                    "midi": 62,
                    "time": 66.09862500000067,
                    "velocity": 0.2755905511811024,
                    "duration": 0.08813150000000292
                },
                {
                    "name": "F#4",
                    "midi": 66,
                    "time": 66.18675650000067,
                    "velocity": 0.2204724409448819,
                    "duration": 0.08813150000000292
                },
                {
                    "name": "A#3",
                    "midi": 58,
                    "time": 66.27488800000067,
                    "velocity": 0.23622047244094488,
                    "duration": 0.08813150000000292
                },
                {
                    "name": "C#4",
                    "midi": 61,
                    "time": 66.27488800000067,
                    "velocity": 0.28346456692913385,
                    "duration": 0.08813150000000292
                },
                {
                    "name": "F#4",
                    "midi": 66,
                    "time": 66.36301950000068,
                    "velocity": 0.25196850393700787,
                    "duration": 0.08813150000000292
                },
                {
                    "name": "A3",
                    "midi": 57,
                    "time": 66.45115100000068,
                    "velocity": 0.23622047244094488,
                    "duration": 0.08813150000000292
                },
                {
                    "name": "C4",
                    "midi": 60,
                    "time": 66.45115100000068,
                    "velocity": 0.28346456692913385,
                    "duration": 0.08813150000000292
                },
                {
                    "name": "F#4",
                    "midi": 66,
                    "time": 66.53928250000068,
                    "velocity": 0.25984251968503935,
                    "duration": 0.08813150000000292
                },
                {
                    "name": "B3",
                    "midi": 59,
                    "time": 66.62741400000068,
                    "velocity": 0.2755905511811024,
                    "duration": 0.8813150000000007
                },
                {
                    "name": "G3",
                    "midi": 55,
                    "time": 67.68499200000069,
                    "velocity": 0.33070866141732286,
                    "duration": 0.08813150000000292
                },
                {
                    "name": "B3",
                    "midi": 59,
                    "time": 67.7731235000007,
                    "velocity": 0.29133858267716534,
                    "duration": 0.08813150000000292
                },
                {
                    "name": "G#3",
                    "midi": 56,
                    "time": 67.8612550000007,
                    "velocity": 0.3543307086614173,
                    "duration": 0.08813150000000292
                },
                {
                    "name": "C4",
                    "midi": 60,
                    "time": 67.9493865000007,
                    "velocity": 0.30708661417322836,
                    "duration": 0.08813150000000292
                },
                {
                    "name": "A3",
                    "midi": 57,
                    "time": 68.0375180000007,
                    "velocity": 0.36220472440944884,
                    "duration": 0.08813150000000292
                },
                {
                    "name": "C#4",
                    "midi": 61,
                    "time": 68.1256495000007,
                    "velocity": 0.3228346456692913,
                    "duration": 0.08813150000000292
                },
                {
                    "name": "A#3",
                    "midi": 58,
                    "time": 68.21378100000071,
                    "velocity": 0.3858267716535433,
                    "duration": 0.08813150000000292
                },
                {
                    "name": "D4",
                    "midi": 62,
                    "time": 68.30191250000071,
                    "velocity": 0.33070866141732286,
                    "duration": 0.08813150000000292
                },
                {
                    "name": "B3",
                    "midi": 59,
                    "time": 68.39004400000071,
                    "velocity": 0.4015748031496063,
                    "duration": 0.08813150000000292
                },
                {
                    "name": "D#4",
                    "midi": 63,
                    "time": 68.47817550000072,
                    "velocity": 0.3543307086614173,
                    "duration": 0.08813150000000292
                },
                {
                    "name": "C4",
                    "midi": 60,
                    "time": 68.56630700000072,
                    "velocity": 0.4094488188976378,
                    "duration": 0.08813150000000292
                },
                {
                    "name": "E4",
                    "midi": 64,
                    "time": 68.65443850000072,
                    "velocity": 0.3700787401574803,
                    "duration": 0.08813150000000292
                },
                {
                    "name": "C#4",
                    "midi": 61,
                    "time": 68.74257000000073,
                    "velocity": 0.44881889763779526,
                    "duration": 0.08813150000000292
                },
                {
                    "name": "F3",
                    "midi": 53,
                    "time": 68.74257000000073,
                    "velocity": 0.3779527559055118,
                    "duration": 0.08813150000000292
                },
                {
                    "name": "F#3",
                    "midi": 54,
                    "time": 69.09509600000072,
                    "velocity": 0.23622047244094488,
                    "duration": 0.7050519999999949
                },
                {
                    "name": "D4",
                    "midi": 62,
                    "time": 69.09509600000072,
                    "velocity": 0.28346456692913385,
                    "duration": 0.7050519999999949
                },
                {
                    "name": "G3",
                    "midi": 55,
                    "time": 69.80014800000072,
                    "velocity": 0.33070866141732286,
                    "duration": 0.08813150000000292
                },
                {
                    "name": "B3",
                    "midi": 59,
                    "time": 69.88827950000072,
                    "velocity": 0.29133858267716534,
                    "duration": 0.08813150000000292
                },
                {
                    "name": "G#3",
                    "midi": 56,
                    "time": 69.97641100000072,
                    "velocity": 0.3543307086614173,
                    "duration": 0.08813150000000292
                },
                {
                    "name": "C4",
                    "midi": 60,
                    "time": 70.06454250000073,
                    "velocity": 0.30708661417322836,
                    "duration": 0.08813150000000292
                },
                {
                    "name": "A3",
                    "midi": 57,
                    "time": 70.15267400000073,
                    "velocity": 0.36220472440944884,
                    "duration": 0.08813150000000292
                },
                {
                    "name": "C#4",
                    "midi": 61,
                    "time": 70.24080550000073,
                    "velocity": 0.3228346456692913,
                    "duration": 0.08813150000000292
                },
                {
                    "name": "A#3",
                    "midi": 58,
                    "time": 70.32893700000074,
                    "velocity": 0.3858267716535433,
                    "duration": 0.08813150000000292
                },
                {
                    "name": "D4",
                    "midi": 62,
                    "time": 70.41706850000074,
                    "velocity": 0.33070866141732286,
                    "duration": 0.08813150000000292
                },
                {
                    "name": "B3",
                    "midi": 59,
                    "time": 70.50520000000074,
                    "velocity": 0.4015748031496063,
                    "duration": 0.08813150000000292
                },
                {
                    "name": "D#4",
                    "midi": 63,
                    "time": 70.59333150000074,
                    "velocity": 0.3543307086614173,
                    "duration": 0.08813150000000292
                },
                {
                    "name": "C4",
                    "midi": 60,
                    "time": 70.68146300000075,
                    "velocity": 0.4094488188976378,
                    "duration": 0.08813150000000292
                },
                {
                    "name": "E4",
                    "midi": 64,
                    "time": 70.76959450000075,
                    "velocity": 0.3700787401574803,
                    "duration": 0.08813150000000292
                },
                {
                    "name": "F4",
                    "midi": 65,
                    "time": 70.85772600000075,
                    "velocity": 0.44881889763779526,
                    "duration": 0.08813150000000292
                },
                {
                    "name": "C#4",
                    "midi": 61,
                    "time": 70.85772600000075,
                    "velocity": 0.3779527559055118,
                    "duration": 0.08813150000000292
                },
                {
                    "name": "D4",
                    "midi": 62,
                    "time": 71.21025200000075,
                    "velocity": 0.23622047244094488,
                    "duration": 0.7050519999999949
                },
                {
                    "name": "F#4",
                    "midi": 66,
                    "time": 71.21025200000075,
                    "velocity": 0.28346456692913385,
                    "duration": 0.7050519999999949
                },
                {
                    "name": "G3",
                    "midi": 55,
                    "time": 71.91530400000075,
                    "velocity": 0.33070866141732286,
                    "duration": 0.08813150000000292
                },
                {
                    "name": "B3",
                    "midi": 59,
                    "time": 72.00343550000075,
                    "velocity": 0.29133858267716534,
                    "duration": 0.08813150000000292
                },
                {
                    "name": "A#3",
                    "midi": 58,
                    "time": 72.09156700000075,
                    "velocity": 0.3543307086614173,
                    "duration": 0.08813150000000292
                },
                {
                    "name": "C#4",
                    "midi": 61,
                    "time": 72.17969850000075,
                    "velocity": 0.30708661417322836,
                    "duration": 0.08813150000000292
                },
                {
                    "name": "B3",
                    "midi": 59,
                    "time": 72.26783000000076,
                    "velocity": 0.36220472440944884,
                    "duration": 0.08813150000000292
                },
                {
                    "name": "D4",
                    "midi": 62,
                    "time": 72.35596150000076,
                    "velocity": 0.3228346456692913,
                    "duration": 0.08813150000000292
                },
                {
                    "name": "C#4",
                    "midi": 61,
                    "time": 72.44409300000076,
                    "velocity": 0.3858267716535433,
                    "duration": 0.08813150000000292
                },
                {
                    "name": "E4",
                    "midi": 64,
                    "time": 72.53222450000077,
                    "velocity": 0.33070866141732286,
                    "duration": 0.08813150000000292
                },
                {
                    "name": "D4",
                    "midi": 62,
                    "time": 72.62035600000077,
                    "velocity": 0.33070866141732286,
                    "duration": 0.08813150000000292
                },
                {
                    "name": "F#4",
                    "midi": 66,
                    "time": 72.70848750000077,
                    "velocity": 0.29133858267716534,
                    "duration": 0.08813150000000292
                },
                {
                    "name": "E4",
                    "midi": 64,
                    "time": 72.79661900000077,
                    "velocity": 0.3543307086614173,
                    "duration": 0.08813150000000292
                },
                {
                    "name": "G#4",
                    "midi": 68,
                    "time": 72.88475050000078,
                    "velocity": 0.30708661417322836,
                    "duration": 0.08813150000000292
                },
                {
                    "name": "F#4",
                    "midi": 66,
                    "time": 72.97288200000078,
                    "velocity": 0.36220472440944884,
                    "duration": 0.08813150000000292
                },
                {
                    "name": "A#4",
                    "midi": 70,
                    "time": 73.06101350000078,
                    "velocity": 0.3228346456692913,
                    "duration": 0.08813150000000292
                },
                {
                    "name": "G#4",
                    "midi": 68,
                    "time": 73.14914500000079,
                    "velocity": 0.3858267716535433,
                    "duration": 0.08813150000000292
                },
                {
                    "name": "B4",
                    "midi": 71,
                    "time": 73.23727650000079,
                    "velocity": 0.33070866141732286,
                    "duration": 0.08813150000000292
                },
                {
                    "name": "G4",
                    "midi": 67,
                    "time": 73.32540800000079,
                    "velocity": 0.33070866141732286,
                    "duration": 0.08813150000000292
                },
                {
                    "name": "B4",
                    "midi": 71,
                    "time": 73.4135395000008,
                    "velocity": 0.29133858267716534,
                    "duration": 0.08813150000000292
                },
                {
                    "name": "A#4",
                    "midi": 70,
                    "time": 73.5016710000008,
                    "velocity": 0.3543307086614173,
                    "duration": 0.08813150000000292
                },
                {
                    "name": "C#5",
                    "midi": 73,
                    "time": 73.5898025000008,
                    "velocity": 0.30708661417322836,
                    "duration": 0.08813150000000292
                },
                {
                    "name": "B4",
                    "midi": 71,
                    "time": 73.6779340000008,
                    "velocity": 0.36220472440944884,
                    "duration": 0.08813150000000292
                },
                {
                    "name": "D5",
                    "midi": 74,
                    "time": 73.7660655000008,
                    "velocity": 0.3228346456692913,
                    "duration": 0.08813150000000292
                },
                {
                    "name": "C#5",
                    "midi": 73,
                    "time": 73.85419700000081,
                    "velocity": 0.3858267716535433,
                    "duration": 0.08813150000000292
                },
                {
                    "name": "E5",
                    "midi": 76,
                    "time": 73.94232850000081,
                    "velocity": 0.33070866141732286,
                    "duration": 0.08813150000000292
                },
                {
                    "name": "D5",
                    "midi": 74,
                    "time": 74.03046000000082,
                    "velocity": 0.33070866141732286,
                    "duration": 0.08813150000000292
                },
                {
                    "name": "F#5",
                    "midi": 78,
                    "time": 74.11859150000082,
                    "velocity": 0.29133858267716534,
                    "duration": 0.08813150000000292
                },
                {
                    "name": "E5",
                    "midi": 76,
                    "time": 74.20672300000082,
                    "velocity": 0.3543307086614173,
                    "duration": 0.08813150000000292
                },
                {
                    "name": "G#5",
                    "midi": 80,
                    "time": 74.29485450000082,
                    "velocity": 0.30708661417322836,
                    "duration": 0.08813150000000292
                },
                {
                    "name": "F#5",
                    "midi": 78,
                    "time": 74.38298600000083,
                    "velocity": 0.36220472440944884,
                    "duration": 0.08813150000000292
                },
                {
                    "name": "A#5",
                    "midi": 82,
                    "time": 74.47111750000083,
                    "velocity": 0.3228346456692913,
                    "duration": 0.08813150000000292
                },
                {
                    "name": "G#5",
                    "midi": 80,
                    "time": 74.55924900000083,
                    "velocity": 0.3858267716535433,
                    "duration": 0.08813150000000292
                },
                {
                    "name": "B5",
                    "midi": 83,
                    "time": 74.64738050000084,
                    "velocity": 0.33070866141732286,
                    "duration": 0.08813150000000292
                },
                {
                    "name": "G5",
                    "midi": 79,
                    "time": 74.73551200000084,
                    "velocity": 0.33070866141732286,
                    "duration": 0.08813150000000292
                },
                {
                    "name": "B5",
                    "midi": 83,
                    "time": 74.82364350000084,
                    "velocity": 0.29133858267716534,
                    "duration": 0.08813150000000292
                },
                {
                    "name": "A#5",
                    "midi": 82,
                    "time": 74.91177500000084,
                    "velocity": 0.3543307086614173,
                    "duration": 0.08813150000000292
                },
                {
                    "name": "C#6",
                    "midi": 85,
                    "time": 74.99990650000085,
                    "velocity": 0.30708661417322836,
                    "duration": 0.08813150000000292
                },
                {
                    "name": "B5",
                    "midi": 83,
                    "time": 75.08803800000085,
                    "velocity": 0.36220472440944884,
                    "duration": 0.08813150000000292
                },
                {
                    "name": "D6",
                    "midi": 86,
                    "time": 75.17616950000085,
                    "velocity": 0.3228346456692913,
                    "duration": 0.08813150000000292
                },
                {
                    "name": "C#6",
                    "midi": 85,
                    "time": 75.26430100000086,
                    "velocity": 0.3858267716535433,
                    "duration": 0.08813150000000292
                },
                {
                    "name": "E6",
                    "midi": 88,
                    "time": 75.35243250000086,
                    "velocity": 0.33070866141732286,
                    "duration": 0.08813150000000292
                },
                {
                    "name": "D6",
                    "midi": 86,
                    "time": 75.44056400000086,
                    "velocity": 0.33070866141732286,
                    "duration": 0.08813150000000292
                },
                {
                    "name": "F#6",
                    "midi": 90,
                    "time": 75.52869550000086,
                    "velocity": 0.29133858267716534,
                    "duration": 0.08813150000000292
                },
                {
                    "name": "E6",
                    "midi": 88,
                    "time": 75.61682700000087,
                    "velocity": 0.3543307086614173,
                    "duration": 0.08813150000000292
                },
                {
                    "name": "G#6",
                    "midi": 92,
                    "time": 75.70495850000087,
                    "velocity": 0.30708661417322836,
                    "duration": 0.08813150000000292
                },
                {
                    "name": "F#6",
                    "midi": 90,
                    "time": 75.79309000000087,
                    "velocity": 0.3937007874015748,
                    "duration": 0.08813150000000292
                },
                {
                    "name": "A#6",
                    "midi": 94,
                    "time": 75.88122150000088,
                    "velocity": 0.3543307086614173,
                    "duration": 0.08813150000000292
                },
                {
                    "name": "G#6",
                    "midi": 92,
                    "time": 75.96935300000088,
                    "velocity": 0.4015748031496063,
                    "duration": 0.08813150000000292
                },
                {
                    "name": "B6",
                    "midi": 95,
                    "time": 76.05748450000088,
                    "velocity": 0.3543307086614173,
                    "duration": 0.08813150000000292
                },
                {
                    "name": "F#6",
                    "midi": 90,
                    "time": 76.14561600000089,
                    "velocity": 0.4409448818897638,
                    "duration": 0.08813150000000292
                },
                {
                    "name": "A#6",
                    "midi": 94,
                    "time": 76.23374750000089,
                    "velocity": 0.3700787401574803,
                    "duration": 0.08813150000000292
                },
                {
                    "name": "G#6",
                    "midi": 92,
                    "time": 76.32187900000089,
                    "velocity": 0.41732283464566927,
                    "duration": 0.08813150000000292
                },
                {
                    "name": "B6",
                    "midi": 95,
                    "time": 76.4100105000009,
                    "velocity": 0.3858267716535433,
                    "duration": 0.08813150000000292
                },
                {
                    "name": "F#6",
                    "midi": 90,
                    "time": 76.4981420000009,
                    "velocity": 0.4330708661417323,
                    "duration": 0.08813150000000292
                },
                {
                    "name": "A#6",
                    "midi": 94,
                    "time": 76.5862735000009,
                    "velocity": 0.3858267716535433,
                    "duration": 0.08813150000000292
                },
                {
                    "name": "G#6",
                    "midi": 92,
                    "time": 76.6744050000009,
                    "velocity": 0.4251968503937008,
                    "duration": 0.08813150000000292
                },
                {
                    "name": "B6",
                    "midi": 95,
                    "time": 76.7625365000009,
                    "velocity": 0.41732283464566927,
                    "duration": 0.08813150000000292
                },
                {
                    "name": "F#6",
                    "midi": 90,
                    "time": 76.85066800000091,
                    "velocity": 0.47244094488188976,
                    "duration": 0.08813150000000292
                },
                {
                    "name": "A#6",
                    "midi": 94,
                    "time": 76.93879950000091,
                    "velocity": 0.4330708661417323,
                    "duration": 0.08813150000000292
                },
                {
                    "name": "G#6",
                    "midi": 92,
                    "time": 77.02693100000091,
                    "velocity": 0.48031496062992124,
                    "duration": 0.08813150000000292
                },
                {
                    "name": "B6",
                    "midi": 95,
                    "time": 77.11506250000092,
                    "velocity": 0.4566929133858268,
                    "duration": 0.08813150000000292
                },
                {
                    "name": "F#6",
                    "midi": 90,
                    "time": 77.20319400000092,
                    "velocity": 0.5196850393700787,
                    "duration": 0.08813150000000292
                },
                {
                    "name": "A#6",
                    "midi": 94,
                    "time": 77.29132550000092,
                    "velocity": 0.47244094488188976,
                    "duration": 0.08813150000000292
                },
                {
                    "name": "G#6",
                    "midi": 92,
                    "time": 77.37945700000093,
                    "velocity": 0.5275590551181102,
                    "duration": 0.08813150000000292
                },
                {
                    "name": "B6",
                    "midi": 95,
                    "time": 77.46758850000093,
                    "velocity": 0.5039370078740157,
                    "duration": 0.08813150000000292
                },
                {
                    "name": "F#6",
                    "midi": 90,
                    "time": 77.55572000000093,
                    "velocity": 0.5511811023622047,
                    "duration": 0.08813150000000292
                },
                {
                    "name": "A#6",
                    "midi": 94,
                    "time": 77.64385150000093,
                    "velocity": 0.48031496062992124,
                    "duration": 0.08813150000000292
                },
                {
                    "name": "G#6",
                    "midi": 92,
                    "time": 77.73198300000094,
                    "velocity": 0.5354330708661418,
                    "duration": 0.08813150000000292
                },
                {
                    "name": "B6",
                    "midi": 95,
                    "time": 77.82011450000094,
                    "velocity": 0.48031496062992124,
                    "duration": 0.08813150000000292
                },
                {
                    "name": "G#6",
                    "midi": 92,
                    "time": 77.90824600000094,
                    "velocity": 0.5511811023622047,
                    "duration": 0.08813150000000292
                },
                {
                    "name": "F#6",
                    "midi": 90,
                    "time": 77.99637750000095,
                    "velocity": 0.4645669291338583,
                    "duration": 0.08813150000000292
                },
                {
                    "name": "D6",
                    "midi": 86,
                    "time": 78.08450900000095,
                    "velocity": 0.4645669291338583,
                    "duration": 0.08813150000000292
                },
                {
                    "name": "B5",
                    "midi": 83,
                    "time": 78.17264050000095,
                    "velocity": 0.4251968503937008,
                    "duration": 0.08813150000000292
                },
                {
                    "name": "G#5",
                    "midi": 80,
                    "time": 78.26077200000096,
                    "velocity": 0.5433070866141733,
                    "duration": 0.08813150000000292
                },
                {
                    "name": "F#5",
                    "midi": 78,
                    "time": 78.34890350000096,
                    "velocity": 0.4251968503937008,
                    "duration": 0.08813150000000292
                },
                {
                    "name": "D5",
                    "midi": 74,
                    "time": 78.43703500000096,
                    "velocity": 0.4251968503937008,
                    "duration": 0.08813150000000292
                },
                {
                    "name": "B4",
                    "midi": 71,
                    "time": 78.52516650000096,
                    "velocity": 0.3858267716535433,
                    "duration": 0.08813150000000292
                },
                {
                    "name": "G#4",
                    "midi": 68,
                    "time": 78.61329800000097,
                    "velocity": 0.5118110236220472,
                    "duration": 0.08813150000000292
                },
                {
                    "name": "F#4",
                    "midi": 66,
                    "time": 78.70142950000097,
                    "velocity": 0.3937007874015748,
                    "duration": 0.08813150000000292
                },
                {
                    "name": "D4",
                    "midi": 62,
                    "time": 78.78956100000097,
                    "velocity": 0.3937007874015748,
                    "duration": 0.08813150000000292
                },
                {
                    "name": "B3",
                    "midi": 59,
                    "time": 78.87769250000098,
                    "velocity": 0.3937007874015748,
                    "duration": 0.08813150000000292
                },
                {
                    "name": "G#3",
                    "midi": 56,
                    "time": 78.96582400000098,
                    "velocity": 0.44881889763779526,
                    "duration": 0.08813150000000292
                },
                {
                    "name": "F#3",
                    "midi": 54,
                    "time": 79.05395550000098,
                    "velocity": 0.3937007874015748,
                    "duration": 0.08813150000000292
                },
                {
                    "name": "B2",
                    "midi": 47,
                    "time": 79.14208700000098,
                    "velocity": 0.3543307086614173,
                    "duration": 0.08813150000000292
                },
                {
                    "name": "F#3",
                    "midi": 54,
                    "time": 79.23021850000099,
                    "velocity": 0.3543307086614173,
                    "duration": 0.08813150000000292
                },
                {
                    "name": "G#3",
                    "midi": 56,
                    "time": 79.31835000000099,
                    "velocity": 0.3937007874015748,
                    "duration": 0.08813150000000292
                },
                {
                    "name": "B3",
                    "midi": 59,
                    "time": 79.406481500001,
                    "velocity": 0.33070866141732286,
                    "duration": 0.08813150000000292
                },
                {
                    "name": "D4",
                    "midi": 62,
                    "time": 79.494613000001,
                    "velocity": 0.3700787401574803,
                    "duration": 0.058754333333340014
                },
                {
                    "name": "F#4",
                    "midi": 66,
                    "time": 79.55336733333434,
                    "velocity": 0.4094488188976378,
                    "duration": 0.058754333333340014
                },
                {
                    "name": "G#4",
                    "midi": 68,
                    "time": 79.61212166666768,
                    "velocity": 0.4330708661417323,
                    "duration": 0.058754333333340014
                },
                {
                    "name": "D5",
                    "midi": 74,
                    "time": 79.67087600000102,
                    "velocity": 0.5275590551181102,
                    "duration": 0.08813150000000292
                },
                {
                    "name": "D4",
                    "midi": 62,
                    "time": 80.68438825000102,
                    "velocity": 0.28346456692913385,
                    "duration": 0.13219724999999016
                },
                {
                    "name": "G4",
                    "midi": 67,
                    "time": 80.70642112500101,
                    "velocity": 0.3228346456692913,
                    "duration": 0.11016437499999654
                },
                {
                    "name": "D5",
                    "midi": 74,
                    "time": 80.72845400000101,
                    "velocity": 0.36220472440944884,
                    "duration": 0.08813150000000292
                },
                {
                    "name": "B4",
                    "midi": 71,
                    "time": 82.13855800000101,
                    "velocity": 0.25984251968503935,
                    "duration": 0.08813150000000292
                },
                {
                    "name": "D4",
                    "midi": 62,
                    "time": 82.13855800000101,
                    "velocity": 0.2204724409448819,
                    "duration": 0.08813150000000292
                },
                {
                    "name": "B5",
                    "midi": 83,
                    "time": 82.49108400000101,
                    "velocity": 0.2440944881889764,
                    "duration": 0.08813150000000292
                },
                {
                    "name": "D5",
                    "midi": 74,
                    "time": 82.49108400000101,
                    "velocity": 0.2047244094488189,
                    "duration": 0.08813150000000292
                },
                {
                    "name": "D6",
                    "midi": 86,
                    "time": 82.84361000000101,
                    "velocity": 0.2204724409448819,
                    "duration": 0.08813150000000292
                },
                {
                    "name": "B6",
                    "midi": 95,
                    "time": 82.84361000000101,
                    "velocity": 0.2677165354330709,
                    "duration": 0.08813150000000292
                }
            ],
            "controlChanges": {},
            "id": 1,
            "name": "Piano right",
            "instrumentNumber": 0,
            "instrument": "acoustic grand piano",
            "instrumentFamily": "piano",
            "channelNumber": 0,
            "isPercussion": false
        },
        {
            "startTime": 0,
            "duration": 82.9317415000009,
            "length": 798,
            "notes": [
                {
                    "name": "B3",
                    "midi": 59,
                    "time": 0,
                    "velocity": 0.2125984251968504,
                    "duration": 0.7931835000000002
                },
                {
                    "name": "F#4",
                    "midi": 66,
                    "time": 0,
                    "velocity": 0.28346456692913385,
                    "duration": 0.0881315
                },
                {
                    "name": "G4",
                    "midi": 67,
                    "time": 0.0881315,
                    "velocity": 0.2204724409448819,
                    "duration": 0.0881315
                },
                {
                    "name": "F#4",
                    "midi": 66,
                    "time": 0.176263,
                    "velocity": 0.25984251968503935,
                    "duration": 0.08813149999999997
                },
                {
                    "name": "G4",
                    "midi": 67,
                    "time": 0.2643945,
                    "velocity": 0.2125984251968504,
                    "duration": 0.08813150000000003
                },
                {
                    "name": "F#4",
                    "midi": 66,
                    "time": 0.352526,
                    "velocity": 0.23622047244094488,
                    "duration": 0.08813150000000003
                },
                {
                    "name": "G4",
                    "midi": 67,
                    "time": 0.44065750000000004,
                    "velocity": 0.1968503937007874,
                    "duration": 0.08813150000000003
                },
                {
                    "name": "F#4",
                    "midi": 66,
                    "time": 0.5287890000000001,
                    "velocity": 0.2125984251968504,
                    "duration": 0.08813150000000003
                },
                {
                    "name": "G4",
                    "midi": 67,
                    "time": 0.6169205000000001,
                    "velocity": 0.1732283464566929,
                    "duration": 0.08813150000000003
                },
                {
                    "name": "F#4",
                    "midi": 66,
                    "time": 0.7050520000000001,
                    "velocity": 0.1889763779527559,
                    "duration": 0.08813150000000003
                },
                {
                    "name": "B3",
                    "midi": 59,
                    "time": 1.0575780000000001,
                    "velocity": 0.2125984251968504,
                    "duration": 0.7931835000000003
                },
                {
                    "name": "F#4",
                    "midi": 66,
                    "time": 1.0575780000000001,
                    "velocity": 0.28346456692913385,
                    "duration": 0.08813150000000003
                },
                {
                    "name": "G4",
                    "midi": 67,
                    "time": 1.1457095000000002,
                    "velocity": 0.2204724409448819,
                    "duration": 0.08813150000000003
                },
                {
                    "name": "F#4",
                    "midi": 66,
                    "time": 1.2338410000000002,
                    "velocity": 0.25984251968503935,
                    "duration": 0.08813150000000003
                },
                {
                    "name": "G4",
                    "midi": 67,
                    "time": 1.3219725000000002,
                    "velocity": 0.2125984251968504,
                    "duration": 0.08813150000000003
                },
                {
                    "name": "F#4",
                    "midi": 66,
                    "time": 1.4101040000000002,
                    "velocity": 0.2440944881889764,
                    "duration": 0.08813150000000003
                },
                {
                    "name": "G4",
                    "midi": 67,
                    "time": 1.4982355000000003,
                    "velocity": 0.1968503937007874,
                    "duration": 0.08813150000000003
                },
                {
                    "name": "F#4",
                    "midi": 66,
                    "time": 1.5863670000000003,
                    "velocity": 0.2204724409448819,
                    "duration": 0.08813150000000003
                },
                {
                    "name": "G4",
                    "midi": 67,
                    "time": 1.6744985000000003,
                    "velocity": 0.18110236220472442,
                    "duration": 0.08813150000000003
                },
                {
                    "name": "F#4",
                    "midi": 66,
                    "time": 1.7626300000000004,
                    "velocity": 0.1968503937007874,
                    "duration": 0.08813150000000003
                },
                {
                    "name": "B3",
                    "midi": 59,
                    "time": 2.1151560000000003,
                    "velocity": 0.2125984251968504,
                    "duration": 0.7931834999999983
                },
                {
                    "name": "F#4",
                    "midi": 66,
                    "time": 2.1151560000000003,
                    "velocity": 0.28346456692913385,
                    "duration": 0.08813149999999981
                },
                {
                    "name": "G4",
                    "midi": 67,
                    "time": 2.2032875,
                    "velocity": 0.2283464566929134,
                    "duration": 0.08813149999999981
                },
                {
                    "name": "F#4",
                    "midi": 66,
                    "time": 2.291419,
                    "velocity": 0.28346456692913385,
                    "duration": 0.08813149999999981
                },
                {
                    "name": "G4",
                    "midi": 67,
                    "time": 2.3795504999999997,
                    "velocity": 0.2440944881889764,
                    "duration": 0.08813149999999981
                },
                {
                    "name": "F#4",
                    "midi": 66,
                    "time": 2.4676819999999995,
                    "velocity": 0.28346456692913385,
                    "duration": 0.08813149999999981
                },
                {
                    "name": "G4",
                    "midi": 67,
                    "time": 2.5558134999999993,
                    "velocity": 0.2440944881889764,
                    "duration": 0.08813149999999981
                },
                {
                    "name": "F#4",
                    "midi": 66,
                    "time": 2.643944999999999,
                    "velocity": 0.28346456692913385,
                    "duration": 0.08813149999999981
                },
                {
                    "name": "G4",
                    "midi": 67,
                    "time": 2.732076499999999,
                    "velocity": 0.2440944881889764,
                    "duration": 0.08813149999999981
                },
                {
                    "name": "F#4",
                    "midi": 66,
                    "time": 2.8202079999999987,
                    "velocity": 0.2755905511811024,
                    "duration": 0.08813149999999981
                },
                {
                    "name": "B3",
                    "midi": 59,
                    "time": 3.1727339999999984,
                    "velocity": 0.2125984251968504,
                    "duration": 0.7931834999999983
                },
                {
                    "name": "F#4",
                    "midi": 66,
                    "time": 3.1727339999999984,
                    "velocity": 0.28346456692913385,
                    "duration": 0.08813149999999981
                },
                {
                    "name": "G4",
                    "midi": 67,
                    "time": 3.260865499999998,
                    "velocity": 0.2283464566929134,
                    "duration": 0.08813149999999981
                },
                {
                    "name": "F#4",
                    "midi": 66,
                    "time": 3.348996999999998,
                    "velocity": 0.28346456692913385,
                    "duration": 0.08813149999999981
                },
                {
                    "name": "G4",
                    "midi": 67,
                    "time": 3.437128499999998,
                    "velocity": 0.2440944881889764,
                    "duration": 0.08813149999999981
                },
                {
                    "name": "F#4",
                    "midi": 66,
                    "time": 3.5252599999999976,
                    "velocity": 0.28346456692913385,
                    "duration": 0.08813149999999981
                },
                {
                    "name": "G4",
                    "midi": 67,
                    "time": 3.6133914999999974,
                    "velocity": 0.2440944881889764,
                    "duration": 0.08813149999999981
                },
                {
                    "name": "F#4",
                    "midi": 66,
                    "time": 3.7015229999999972,
                    "velocity": 0.28346456692913385,
                    "duration": 0.08813149999999981
                },
                {
                    "name": "G4",
                    "midi": 67,
                    "time": 3.789654499999997,
                    "velocity": 0.2440944881889764,
                    "duration": 0.08813149999999981
                },
                {
                    "name": "F#4",
                    "midi": 66,
                    "time": 3.877785999999997,
                    "velocity": 0.2755905511811024,
                    "duration": 0.08813149999999981
                },
                {
                    "name": "A#3",
                    "midi": 58,
                    "time": 4.230311999999997,
                    "velocity": 0.25984251968503935,
                    "duration": 0.7931835000000023
                },
                {
                    "name": "F#4",
                    "midi": 66,
                    "time": 4.230311999999997,
                    "velocity": 0.3464566929133858,
                    "duration": 0.08813150000000025
                },
                {
                    "name": "G4",
                    "midi": 67,
                    "time": 4.318443499999997,
                    "velocity": 0.28346456692913385,
                    "duration": 0.08813150000000025
                },
                {
                    "name": "F#4",
                    "midi": 66,
                    "time": 4.4065749999999975,
                    "velocity": 0.3464566929133858,
                    "duration": 0.08813150000000025
                },
                {
                    "name": "G4",
                    "midi": 67,
                    "time": 4.494706499999998,
                    "velocity": 0.2992125984251969,
                    "duration": 0.08813150000000025
                },
                {
                    "name": "F#4",
                    "midi": 66,
                    "time": 4.582837999999998,
                    "velocity": 0.3464566929133858,
                    "duration": 0.08813150000000025
                },
                {
                    "name": "G4",
                    "midi": 67,
                    "time": 4.670969499999998,
                    "velocity": 0.2992125984251969,
                    "duration": 0.08813150000000025
                },
                {
                    "name": "F#4",
                    "midi": 66,
                    "time": 4.7591009999999985,
                    "velocity": 0.36220472440944884,
                    "duration": 0.08813150000000025
                },
                {
                    "name": "G4",
                    "midi": 67,
                    "time": 4.847232499999999,
                    "velocity": 0.31496062992125984,
                    "duration": 0.08813150000000025
                },
                {
                    "name": "F#4",
                    "midi": 66,
                    "time": 4.935363999999999,
                    "velocity": 0.33070866141732286,
                    "duration": 0.08813150000000025
                },
                {
                    "name": "A3",
                    "midi": 57,
                    "time": 5.287889999999999,
                    "velocity": 0.25984251968503935,
                    "duration": 0.7931835000000023
                },
                {
                    "name": "F#4",
                    "midi": 66,
                    "time": 5.287889999999999,
                    "velocity": 0.3464566929133858,
                    "duration": 0.08813150000000025
                },
                {
                    "name": "G4",
                    "midi": 67,
                    "time": 5.376021499999999,
                    "velocity": 0.28346456692913385,
                    "duration": 0.08813150000000025
                },
                {
                    "name": "F#4",
                    "midi": 66,
                    "time": 5.464153,
                    "velocity": 0.3464566929133858,
                    "duration": 0.08813150000000025
                },
                {
                    "name": "G4",
                    "midi": 67,
                    "time": 5.5522845,
                    "velocity": 0.2992125984251969,
                    "duration": 0.08813150000000025
                },
                {
                    "name": "F#4",
                    "midi": 66,
                    "time": 5.640416,
                    "velocity": 0.3464566929133858,
                    "duration": 0.08813150000000025
                },
                {
                    "name": "G4",
                    "midi": 67,
                    "time": 5.7285475,
                    "velocity": 0.2992125984251969,
                    "duration": 0.08813150000000025
                },
                {
                    "name": "F#4",
                    "midi": 66,
                    "time": 5.816679000000001,
                    "velocity": 0.36220472440944884,
                    "duration": 0.08813150000000025
                },
                {
                    "name": "G4",
                    "midi": 67,
                    "time": 5.904810500000001,
                    "velocity": 0.31496062992125984,
                    "duration": 0.08813150000000025
                },
                {
                    "name": "F#4",
                    "midi": 66,
                    "time": 5.992942000000001,
                    "velocity": 0.33070866141732286,
                    "duration": 0.08813150000000025
                },
                {
                    "name": "G#3",
                    "midi": 56,
                    "time": 6.345468000000001,
                    "velocity": 0.3464566929133858,
                    "duration": 0.08813150000000025
                },
                {
                    "name": "F#4",
                    "midi": 66,
                    "time": 6.4335995000000015,
                    "velocity": 0.3464566929133858,
                    "duration": 0.08813150000000025
                },
                {
                    "name": "G#3",
                    "midi": 56,
                    "time": 6.521731000000002,
                    "velocity": 0.36220472440944884,
                    "duration": 0.08813150000000025
                },
                {
                    "name": "F#4",
                    "midi": 66,
                    "time": 6.609862500000002,
                    "velocity": 0.3779527559055118,
                    "duration": 0.08813150000000025
                },
                {
                    "name": "G#3",
                    "midi": 56,
                    "time": 6.697994000000002,
                    "velocity": 0.3858267716535433,
                    "duration": 0.08813150000000025
                },
                {
                    "name": "F#4",
                    "midi": 66,
                    "time": 6.7861255000000025,
                    "velocity": 0.4094488188976378,
                    "duration": 0.08813150000000025
                },
                {
                    "name": "G#3",
                    "midi": 56,
                    "time": 6.874257000000003,
                    "velocity": 0.41732283464566927,
                    "duration": 0.08813150000000025
                },
                {
                    "name": "F#4",
                    "midi": 66,
                    "time": 6.962388500000003,
                    "velocity": 0.4330708661417323,
                    "duration": 0.08813150000000025
                },
                {
                    "name": "G3",
                    "midi": 55,
                    "time": 7.050520000000003,
                    "velocity": 0.44881889763779526,
                    "duration": 0.08813150000000025
                },
                {
                    "name": "F#4",
                    "midi": 66,
                    "time": 7.1386515000000035,
                    "velocity": 0.4645669291338583,
                    "duration": 0.08813150000000025
                },
                {
                    "name": "G3",
                    "midi": 55,
                    "time": 7.226783000000004,
                    "velocity": 0.48031496062992124,
                    "duration": 0.08813150000000025
                },
                {
                    "name": "F#4",
                    "midi": 66,
                    "time": 7.314914500000004,
                    "velocity": 0.5196850393700787,
                    "duration": 0.08813150000000025
                },
                {
                    "name": "F#3",
                    "midi": 54,
                    "time": 7.403046000000004,
                    "velocity": 0.5669291338582677,
                    "duration": 0.08813150000000025
                },
                {
                    "name": "F#4",
                    "midi": 66,
                    "time": 7.4911775000000045,
                    "velocity": 0.4094488188976378,
                    "duration": 0.08813150000000025
                },
                {
                    "name": "F#3",
                    "midi": 54,
                    "time": 7.579309000000005,
                    "velocity": 0.4409448818897638,
                    "duration": 0.08813150000000025
                },
                {
                    "name": "F#4",
                    "midi": 66,
                    "time": 7.667440500000005,
                    "velocity": 0.3700787401574803,
                    "duration": 0.08813150000000025
                },
                {
                    "name": "F#3",
                    "midi": 54,
                    "time": 7.755572000000005,
                    "velocity": 0.4330708661417323,
                    "duration": 0.08813150000000025
                },
                {
                    "name": "F#4",
                    "midi": 66,
                    "time": 7.8437035000000055,
                    "velocity": 0.31496062992125984,
                    "duration": 0.08813150000000025
                },
                {
                    "name": "F#3",
                    "midi": 54,
                    "time": 7.931835000000006,
                    "velocity": 0.36220472440944884,
                    "duration": 0.08813150000000025
                },
                {
                    "name": "F#4",
                    "midi": 66,
                    "time": 8.019966500000006,
                    "velocity": 0.31496062992125984,
                    "duration": 0.08813149999999936
                },
                {
                    "name": "F#3",
                    "midi": 54,
                    "time": 8.108098000000005,
                    "velocity": 0.4015748031496063,
                    "duration": 0.1762630000000005
                },
                {
                    "name": "B3",
                    "midi": 59,
                    "time": 8.460624000000006,
                    "velocity": 0.2125984251968504,
                    "duration": 0.7931834999999943
                },
                {
                    "name": "F#4",
                    "midi": 66,
                    "time": 8.460624000000006,
                    "velocity": 0.28346456692913385,
                    "duration": 0.08813149999999936
                },
                {
                    "name": "G4",
                    "midi": 67,
                    "time": 8.548755500000006,
                    "velocity": 0.2204724409448819,
                    "duration": 0.08813149999999936
                },
                {
                    "name": "F#4",
                    "midi": 66,
                    "time": 8.636887000000005,
                    "velocity": 0.25984251968503935,
                    "duration": 0.08813149999999936
                },
                {
                    "name": "G4",
                    "midi": 67,
                    "time": 8.725018500000004,
                    "velocity": 0.2125984251968504,
                    "duration": 0.08813149999999936
                },
                {
                    "name": "F#4",
                    "midi": 66,
                    "time": 8.813150000000004,
                    "velocity": 0.23622047244094488,
                    "duration": 0.08813149999999936
                },
                {
                    "name": "G4",
                    "midi": 67,
                    "time": 8.901281500000003,
                    "velocity": 0.1968503937007874,
                    "duration": 0.08813149999999936
                },
                {
                    "name": "F#4",
                    "midi": 66,
                    "time": 8.989413000000003,
                    "velocity": 0.2204724409448819,
                    "duration": 0.08813149999999936
                },
                {
                    "name": "G4",
                    "midi": 67,
                    "time": 9.077544500000002,
                    "velocity": 0.1732283464566929,
                    "duration": 0.08813149999999936
                },
                {
                    "name": "F#4",
                    "midi": 66,
                    "time": 9.165676000000001,
                    "velocity": 0.1889763779527559,
                    "duration": 0.08813149999999936
                },
                {
                    "name": "B3",
                    "midi": 59,
                    "time": 9.518202,
                    "velocity": 0.2125984251968504,
                    "duration": 0.7931834999999943
                },
                {
                    "name": "F#4",
                    "midi": 66,
                    "time": 9.518202,
                    "velocity": 0.28346456692913385,
                    "duration": 0.08813149999999936
                },
                {
                    "name": "G4",
                    "midi": 67,
                    "time": 9.6063335,
                    "velocity": 0.2204724409448819,
                    "duration": 0.08813149999999936
                },
                {
                    "name": "F#4",
                    "midi": 66,
                    "time": 9.694465,
                    "velocity": 0.25984251968503935,
                    "duration": 0.08813149999999936
                },
                {
                    "name": "G4",
                    "midi": 67,
                    "time": 9.782596499999999,
                    "velocity": 0.2125984251968504,
                    "duration": 0.08813149999999936
                },
                {
                    "name": "F#4",
                    "midi": 66,
                    "time": 9.870727999999998,
                    "velocity": 0.23622047244094488,
                    "duration": 0.08813149999999936
                },
                {
                    "name": "G4",
                    "midi": 67,
                    "time": 9.958859499999997,
                    "velocity": 0.1968503937007874,
                    "duration": 0.08813149999999936
                },
                {
                    "name": "F#4",
                    "midi": 66,
                    "time": 10.046990999999997,
                    "velocity": 0.2204724409448819,
                    "duration": 0.08813149999999936
                },
                {
                    "name": "G4",
                    "midi": 67,
                    "time": 10.135122499999996,
                    "velocity": 0.1732283464566929,
                    "duration": 0.08813149999999936
                },
                {
                    "name": "F#4",
                    "midi": 66,
                    "time": 10.223253999999995,
                    "velocity": 0.1889763779527559,
                    "duration": 0.08813149999999936
                },
                {
                    "name": "B3",
                    "midi": 59,
                    "time": 10.575779999999995,
                    "velocity": 0.2125984251968504,
                    "duration": 0.7931834999999943
                },
                {
                    "name": "F#4",
                    "midi": 66,
                    "time": 10.575779999999995,
                    "velocity": 0.28346456692913385,
                    "duration": 0.08813149999999936
                },
                {
                    "name": "G4",
                    "midi": 67,
                    "time": 10.663911499999994,
                    "velocity": 0.2283464566929134,
                    "duration": 0.08813149999999936
                },
                {
                    "name": "F#4",
                    "midi": 66,
                    "time": 10.752042999999993,
                    "velocity": 0.28346456692913385,
                    "duration": 0.08813149999999936
                },
                {
                    "name": "G4",
                    "midi": 67,
                    "time": 10.840174499999993,
                    "velocity": 0.2440944881889764,
                    "duration": 0.08813149999999936
                },
                {
                    "name": "F#4",
                    "midi": 66,
                    "time": 10.928305999999992,
                    "velocity": 0.28346456692913385,
                    "duration": 0.08813149999999936
                },
                {
                    "name": "G4",
                    "midi": 67,
                    "time": 11.016437499999991,
                    "velocity": 0.2440944881889764,
                    "duration": 0.08813149999999936
                },
                {
                    "name": "F#4",
                    "midi": 66,
                    "time": 11.10456899999999,
                    "velocity": 0.28346456692913385,
                    "duration": 0.08813149999999936
                },
                {
                    "name": "G4",
                    "midi": 67,
                    "time": 11.19270049999999,
                    "velocity": 0.2440944881889764,
                    "duration": 0.08813149999999936
                },
                {
                    "name": "F#4",
                    "midi": 66,
                    "time": 11.28083199999999,
                    "velocity": 0.2755905511811024,
                    "duration": 0.08813149999999936
                },
                {
                    "name": "B3",
                    "midi": 59,
                    "time": 11.633357999999989,
                    "velocity": 0.2125984251968504,
                    "duration": 0.7931834999999943
                },
                {
                    "name": "F#4",
                    "midi": 66,
                    "time": 11.633357999999989,
                    "velocity": 0.28346456692913385,
                    "duration": 0.08813149999999936
                },
                {
                    "name": "G4",
                    "midi": 67,
                    "time": 11.721489499999988,
                    "velocity": 0.2283464566929134,
                    "duration": 0.08813149999999936
                },
                {
                    "name": "F#4",
                    "midi": 66,
                    "time": 11.809620999999987,
                    "velocity": 0.28346456692913385,
                    "duration": 0.08813149999999936
                },
                {
                    "name": "G4",
                    "midi": 67,
                    "time": 11.897752499999987,
                    "velocity": 0.2440944881889764,
                    "duration": 0.08813149999999936
                },
                {
                    "name": "F#4",
                    "midi": 66,
                    "time": 11.985883999999986,
                    "velocity": 0.28346456692913385,
                    "duration": 0.08813149999999936
                },
                {
                    "name": "G4",
                    "midi": 67,
                    "time": 12.074015499999986,
                    "velocity": 0.2440944881889764,
                    "duration": 0.08813149999999936
                },
                {
                    "name": "F#4",
                    "midi": 66,
                    "time": 12.162146999999985,
                    "velocity": 0.28346456692913385,
                    "duration": 0.08813149999999936
                },
                {
                    "name": "G4",
                    "midi": 67,
                    "time": 12.250278499999984,
                    "velocity": 0.2440944881889764,
                    "duration": 0.08813149999999936
                },
                {
                    "name": "F#4",
                    "midi": 66,
                    "time": 12.338409999999984,
                    "velocity": 0.2755905511811024,
                    "duration": 0.08813149999999936
                },
                {
                    "name": "A#3",
                    "midi": 58,
                    "time": 12.690935999999983,
                    "velocity": 0.25984251968503935,
                    "duration": 0.7931834999999943
                },
                {
                    "name": "F#4",
                    "midi": 66,
                    "time": 12.690935999999983,
                    "velocity": 0.3464566929133858,
                    "duration": 0.08813149999999936
                },
                {
                    "name": "G4",
                    "midi": 67,
                    "time": 12.779067499999982,
                    "velocity": 0.28346456692913385,
                    "duration": 0.08813149999999936
                },
                {
                    "name": "F#4",
                    "midi": 66,
                    "time": 12.867198999999982,
                    "velocity": 0.3464566929133858,
                    "duration": 0.08813149999999936
                },
                {
                    "name": "G4",
                    "midi": 67,
                    "time": 12.955330499999981,
                    "velocity": 0.2992125984251969,
                    "duration": 0.08813149999999936
                },
                {
                    "name": "F#4",
                    "midi": 66,
                    "time": 13.04346199999998,
                    "velocity": 0.3464566929133858,
                    "duration": 0.08813149999999936
                },
                {
                    "name": "G4",
                    "midi": 67,
                    "time": 13.13159349999998,
                    "velocity": 0.2992125984251969,
                    "duration": 0.08813149999999936
                },
                {
                    "name": "F#4",
                    "midi": 66,
                    "time": 13.219724999999979,
                    "velocity": 0.36220472440944884,
                    "duration": 0.08813149999999936
                },
                {
                    "name": "G4",
                    "midi": 67,
                    "time": 13.307856499999978,
                    "velocity": 0.31496062992125984,
                    "duration": 0.08813149999999936
                },
                {
                    "name": "F#4",
                    "midi": 66,
                    "time": 13.395987999999978,
                    "velocity": 0.33070866141732286,
                    "duration": 0.08813149999999936
                },
                {
                    "name": "A3",
                    "midi": 57,
                    "time": 13.748513999999977,
                    "velocity": 0.25984251968503935,
                    "duration": 0.7931834999999943
                },
                {
                    "name": "F#4",
                    "midi": 66,
                    "time": 13.748513999999977,
                    "velocity": 0.3464566929133858,
                    "duration": 0.08813149999999936
                },
                {
                    "name": "G4",
                    "midi": 67,
                    "time": 13.836645499999976,
                    "velocity": 0.28346456692913385,
                    "duration": 0.08813149999999936
                },
                {
                    "name": "F#4",
                    "midi": 66,
                    "time": 13.924776999999976,
                    "velocity": 0.3464566929133858,
                    "duration": 0.08813149999999936
                },
                {
                    "name": "G4",
                    "midi": 67,
                    "time": 14.012908499999975,
                    "velocity": 0.2992125984251969,
                    "duration": 0.08813149999999936
                },
                {
                    "name": "F#4",
                    "midi": 66,
                    "time": 14.101039999999974,
                    "velocity": 0.3464566929133858,
                    "duration": 0.08813149999999936
                },
                {
                    "name": "G4",
                    "midi": 67,
                    "time": 14.189171499999974,
                    "velocity": 0.2992125984251969,
                    "duration": 0.08813149999999936
                },
                {
                    "name": "F#4",
                    "midi": 66,
                    "time": 14.277302999999973,
                    "velocity": 0.36220472440944884,
                    "duration": 0.08813149999999936
                },
                {
                    "name": "G4",
                    "midi": 67,
                    "time": 14.365434499999973,
                    "velocity": 0.31496062992125984,
                    "duration": 0.08813149999999936
                },
                {
                    "name": "F#4",
                    "midi": 66,
                    "time": 14.453565999999972,
                    "velocity": 0.33070866141732286,
                    "duration": 0.08813149999999936
                },
                {
                    "name": "G#3",
                    "midi": 56,
                    "time": 14.806091999999971,
                    "velocity": 0.3464566929133858,
                    "duration": 0.08813149999999936
                },
                {
                    "name": "F#4",
                    "midi": 66,
                    "time": 14.89422349999997,
                    "velocity": 0.3464566929133858,
                    "duration": 0.08813149999999936
                },
                {
                    "name": "G#3",
                    "midi": 56,
                    "time": 14.98235499999997,
                    "velocity": 0.36220472440944884,
                    "duration": 0.08813149999999936
                },
                {
                    "name": "F#4",
                    "midi": 66,
                    "time": 15.07048649999997,
                    "velocity": 0.3779527559055118,
                    "duration": 0.08813149999999936
                },
                {
                    "name": "G#3",
                    "midi": 56,
                    "time": 15.158617999999969,
                    "velocity": 0.3858267716535433,
                    "duration": 0.08813149999999936
                },
                {
                    "name": "F#4",
                    "midi": 66,
                    "time": 15.246749499999968,
                    "velocity": 0.4094488188976378,
                    "duration": 0.08813149999999936
                },
                {
                    "name": "G#3",
                    "midi": 56,
                    "time": 15.334880999999967,
                    "velocity": 0.41732283464566927,
                    "duration": 0.08813149999999936
                },
                {
                    "name": "F#4",
                    "midi": 66,
                    "time": 15.423012499999967,
                    "velocity": 0.4330708661417323,
                    "duration": 0.08813149999999936
                },
                {
                    "name": "G3",
                    "midi": 55,
                    "time": 15.511143999999966,
                    "velocity": 0.44881889763779526,
                    "duration": 0.08813149999999936
                },
                {
                    "name": "F#4",
                    "midi": 66,
                    "time": 15.599275499999965,
                    "velocity": 0.4645669291338583,
                    "duration": 0.08813149999999936
                },
                {
                    "name": "G3",
                    "midi": 55,
                    "time": 15.687406999999965,
                    "velocity": 0.48031496062992124,
                    "duration": 0.08813149999999936
                },
                {
                    "name": "F#4",
                    "midi": 66,
                    "time": 15.775538499999964,
                    "velocity": 0.5196850393700787,
                    "duration": 0.08813149999999936
                },
                {
                    "name": "F#3",
                    "midi": 54,
                    "time": 15.863669999999964,
                    "velocity": 0.5669291338582677,
                    "duration": 0.08813149999999936
                },
                {
                    "name": "F#4",
                    "midi": 66,
                    "time": 15.951801499999963,
                    "velocity": 0.4094488188976378,
                    "duration": 0.08813149999999936
                },
                {
                    "name": "F#3",
                    "midi": 54,
                    "time": 16.039932999999962,
                    "velocity": 0.4409448818897638,
                    "duration": 0.08813149999999936
                },
                {
                    "name": "F#4",
                    "midi": 66,
                    "time": 16.12806449999996,
                    "velocity": 0.3700787401574803,
                    "duration": 0.08813149999999936
                },
                {
                    "name": "F#3",
                    "midi": 54,
                    "time": 16.21619599999996,
                    "velocity": 0.4330708661417323,
                    "duration": 0.08813149999999936
                },
                {
                    "name": "F#4",
                    "midi": 66,
                    "time": 16.30432749999996,
                    "velocity": 0.31496062992125984,
                    "duration": 0.08813149999999936
                },
                {
                    "name": "F#3",
                    "midi": 54,
                    "time": 16.39245899999996,
                    "velocity": 0.36220472440944884,
                    "duration": 0.08813149999999936
                },
                {
                    "name": "F#4",
                    "midi": 66,
                    "time": 16.48059049999996,
                    "velocity": 0.31496062992125984,
                    "duration": 0.08813149999999936
                },
                {
                    "name": "F#3",
                    "midi": 54,
                    "time": 16.56872199999996,
                    "velocity": 0.4015748031496063,
                    "duration": 0.17626299999999873
                },
                {
                    "name": "E4",
                    "midi": 64,
                    "time": 16.921247999999956,
                    "velocity": 0.25196850393700787,
                    "duration": 0.08813149999999936
                },
                {
                    "name": "F#4",
                    "midi": 66,
                    "time": 17.009379499999955,
                    "velocity": 0.1732283464566929,
                    "duration": 0.08813149999999936
                },
                {
                    "name": "A#4",
                    "midi": 70,
                    "time": 17.009379499999955,
                    "velocity": 0.2047244094488189,
                    "duration": 0.08813149999999936
                },
                {
                    "name": "E4",
                    "midi": 64,
                    "time": 17.097510999999955,
                    "velocity": 0.25196850393700787,
                    "duration": 0.08813149999999936
                },
                {
                    "name": "F#4",
                    "midi": 66,
                    "time": 17.185642499999954,
                    "velocity": 0.1732283464566929,
                    "duration": 0.08813149999999936
                },
                {
                    "name": "A#4",
                    "midi": 70,
                    "time": 17.185642499999954,
                    "velocity": 0.2125984251968504,
                    "duration": 0.08813149999999936
                },
                {
                    "name": "E4",
                    "midi": 64,
                    "time": 17.273773999999953,
                    "velocity": 0.1968503937007874,
                    "duration": 0.08813149999999936
                },
                {
                    "name": "F#4",
                    "midi": 66,
                    "time": 17.361905499999953,
                    "velocity": 0.13385826771653545,
                    "duration": 0.08813149999999936
                },
                {
                    "name": "A#4",
                    "midi": 70,
                    "time": 17.361905499999953,
                    "velocity": 0.16535433070866143,
                    "duration": 0.08813149999999936
                },
                {
                    "name": "E4",
                    "midi": 64,
                    "time": 17.450036999999952,
                    "velocity": 0.1968503937007874,
                    "duration": 0.08813149999999936
                },
                {
                    "name": "F#4",
                    "midi": 66,
                    "time": 17.53816849999995,
                    "velocity": 0.13385826771653545,
                    "duration": 0.08813149999999936
                },
                {
                    "name": "A#4",
                    "midi": 70,
                    "time": 17.53816849999995,
                    "velocity": 0.16535433070866143,
                    "duration": 0.08813149999999936
                },
                {
                    "name": "E4",
                    "midi": 64,
                    "time": 17.62629999999995,
                    "velocity": 0.2440944881889764,
                    "duration": 0.08813149999999936
                },
                {
                    "name": "D4",
                    "midi": 62,
                    "time": 17.978825999999952,
                    "velocity": 0.25196850393700787,
                    "duration": 0.08813149999999936
                },
                {
                    "name": "F#4",
                    "midi": 66,
                    "time": 18.06695749999995,
                    "velocity": 0.1732283464566929,
                    "duration": 0.08813149999999936
                },
                {
                    "name": "B4",
                    "midi": 71,
                    "time": 18.06695749999995,
                    "velocity": 0.2047244094488189,
                    "duration": 0.08813149999999936
                },
                {
                    "name": "D4",
                    "midi": 62,
                    "time": 18.15508899999995,
                    "velocity": 0.25196850393700787,
                    "duration": 0.08813149999999936
                },
                {
                    "name": "F#4",
                    "midi": 66,
                    "time": 18.24322049999995,
                    "velocity": 0.1732283464566929,
                    "duration": 0.08813149999999936
                },
                {
                    "name": "B4",
                    "midi": 71,
                    "time": 18.24322049999995,
                    "velocity": 0.2125984251968504,
                    "duration": 0.08813149999999936
                },
                {
                    "name": "D4",
                    "midi": 62,
                    "time": 18.33135199999995,
                    "velocity": 0.1968503937007874,
                    "duration": 0.08813149999999936
                },
                {
                    "name": "F#4",
                    "midi": 66,
                    "time": 18.41948349999995,
                    "velocity": 0.13385826771653545,
                    "duration": 0.08813149999999936
                },
                {
                    "name": "B4",
                    "midi": 71,
                    "time": 18.41948349999995,
                    "velocity": 0.16535433070866143,
                    "duration": 0.08813149999999936
                },
                {
                    "name": "D4",
                    "midi": 62,
                    "time": 18.507614999999948,
                    "velocity": 0.1968503937007874,
                    "duration": 0.08813149999999936
                },
                {
                    "name": "F#4",
                    "midi": 66,
                    "time": 18.595746499999947,
                    "velocity": 0.13385826771653545,
                    "duration": 0.08813149999999936
                },
                {
                    "name": "B4",
                    "midi": 71,
                    "time": 18.595746499999947,
                    "velocity": 0.16535433070866143,
                    "duration": 0.08813149999999936
                },
                {
                    "name": "D4",
                    "midi": 62,
                    "time": 18.683877999999947,
                    "velocity": 0.2440944881889764,
                    "duration": 0.08813149999999936
                },
                {
                    "name": "F4",
                    "midi": 65,
                    "time": 19.036403999999948,
                    "velocity": 0.25196850393700787,
                    "duration": 0.08813149999999936
                },
                {
                    "name": "G4",
                    "midi": 67,
                    "time": 19.124535499999947,
                    "velocity": 0.1732283464566929,
                    "duration": 0.08813149999999936
                },
                {
                    "name": "B4",
                    "midi": 71,
                    "time": 19.124535499999947,
                    "velocity": 0.2047244094488189,
                    "duration": 0.08813149999999936
                },
                {
                    "name": "F4",
                    "midi": 65,
                    "time": 19.212666999999946,
                    "velocity": 0.25196850393700787,
                    "duration": 0.08813149999999936
                },
                {
                    "name": "G4",
                    "midi": 67,
                    "time": 19.300798499999946,
                    "velocity": 0.1732283464566929,
                    "duration": 0.08813149999999936
                },
                {
                    "name": "B4",
                    "midi": 71,
                    "time": 19.300798499999946,
                    "velocity": 0.2125984251968504,
                    "duration": 0.08813149999999936
                },
                {
                    "name": "F4",
                    "midi": 65,
                    "time": 19.388929999999945,
                    "velocity": 0.1968503937007874,
                    "duration": 0.08813149999999936
                },
                {
                    "name": "G4",
                    "midi": 67,
                    "time": 19.477061499999945,
                    "velocity": 0.13385826771653545,
                    "duration": 0.08813149999999936
                },
                {
                    "name": "B4",
                    "midi": 71,
                    "time": 19.477061499999945,
                    "velocity": 0.16535433070866143,
                    "duration": 0.08813149999999936
                },
                {
                    "name": "F4",
                    "midi": 65,
                    "time": 19.565192999999944,
                    "velocity": 0.1968503937007874,
                    "duration": 0.08813149999999936
                },
                {
                    "name": "G4",
                    "midi": 67,
                    "time": 19.653324499999943,
                    "velocity": 0.13385826771653545,
                    "duration": 0.08813149999999936
                },
                {
                    "name": "B4",
                    "midi": 71,
                    "time": 19.653324499999943,
                    "velocity": 0.16535433070866143,
                    "duration": 0.08813149999999936
                },
                {
                    "name": "F4",
                    "midi": 65,
                    "time": 19.741455999999943,
                    "velocity": 0.2440944881889764,
                    "duration": 0.08813149999999936
                },
                {
                    "name": "E4",
                    "midi": 64,
                    "time": 20.093981999999944,
                    "velocity": 0.25196850393700787,
                    "duration": 0.08813149999999936
                },
                {
                    "name": "G4",
                    "midi": 67,
                    "time": 20.182113499999943,
                    "velocity": 0.1732283464566929,
                    "duration": 0.08813149999999936
                },
                {
                    "name": "C5",
                    "midi": 72,
                    "time": 20.182113499999943,
                    "velocity": 0.2047244094488189,
                    "duration": 0.08813149999999936
                },
                {
                    "name": "E4",
                    "midi": 64,
                    "time": 20.270244999999942,
                    "velocity": 0.25196850393700787,
                    "duration": 0.08813149999999936
                },
                {
                    "name": "G4",
                    "midi": 67,
                    "time": 20.35837649999994,
                    "velocity": 0.1732283464566929,
                    "duration": 0.08813149999999936
                },
                {
                    "name": "C5",
                    "midi": 72,
                    "time": 20.35837649999994,
                    "velocity": 0.2125984251968504,
                    "duration": 0.08813149999999936
                },
                {
                    "name": "E4",
                    "midi": 64,
                    "time": 20.44650799999994,
                    "velocity": 0.1968503937007874,
                    "duration": 0.08813149999999936
                },
                {
                    "name": "G4",
                    "midi": 67,
                    "time": 20.53463949999994,
                    "velocity": 0.13385826771653545,
                    "duration": 0.08813149999999936
                },
                {
                    "name": "C5",
                    "midi": 72,
                    "time": 20.53463949999994,
                    "velocity": 0.16535433070866143,
                    "duration": 0.08813149999999936
                },
                {
                    "name": "E4",
                    "midi": 64,
                    "time": 20.62277099999994,
                    "velocity": 0.1968503937007874,
                    "duration": 0.08813149999999936
                },
                {
                    "name": "G4",
                    "midi": 67,
                    "time": 20.71090249999994,
                    "velocity": 0.13385826771653545,
                    "duration": 0.08813149999999936
                },
                {
                    "name": "C5",
                    "midi": 72,
                    "time": 20.71090249999994,
                    "velocity": 0.16535433070866143,
                    "duration": 0.08813149999999936
                },
                {
                    "name": "E4",
                    "midi": 64,
                    "time": 20.79903399999994,
                    "velocity": 0.2440944881889764,
                    "duration": 0.08813149999999936
                },
                {
                    "name": "G4",
                    "midi": 67,
                    "time": 21.15155999999994,
                    "velocity": 0.30708661417322836,
                    "duration": 0.08813149999999936
                },
                {
                    "name": "A4",
                    "midi": 69,
                    "time": 21.23969149999994,
                    "velocity": 0.2125984251968504,
                    "duration": 0.08813149999999936
                },
                {
                    "name": "C#5",
                    "midi": 73,
                    "time": 21.23969149999994,
                    "velocity": 0.2440944881889764,
                    "duration": 0.08813149999999936
                },
                {
                    "name": "G4",
                    "midi": 67,
                    "time": 21.32782299999994,
                    "velocity": 0.30708661417322836,
                    "duration": 0.08813149999999936
                },
                {
                    "name": "A4",
                    "midi": 69,
                    "time": 21.415954499999938,
                    "velocity": 0.2125984251968504,
                    "duration": 0.08813149999999936
                },
                {
                    "name": "C#5",
                    "midi": 73,
                    "time": 21.415954499999938,
                    "velocity": 0.2677165354330709,
                    "duration": 0.08813149999999936
                },
                {
                    "name": "G4",
                    "midi": 67,
                    "time": 21.504085999999937,
                    "velocity": 0.23622047244094488,
                    "duration": 0.08813149999999936
                },
                {
                    "name": "A4",
                    "midi": 69,
                    "time": 21.592217499999936,
                    "velocity": 0.15748031496062992,
                    "duration": 0.08813149999999936
                },
                {
                    "name": "C#5",
                    "midi": 73,
                    "time": 21.592217499999936,
                    "velocity": 0.2047244094488189,
                    "duration": 0.08813149999999936
                },
                {
                    "name": "G4",
                    "midi": 67,
                    "time": 21.680348999999936,
                    "velocity": 0.23622047244094488,
                    "duration": 0.08813149999999936
                },
                {
                    "name": "A4",
                    "midi": 69,
                    "time": 21.768480499999935,
                    "velocity": 0.15748031496062992,
                    "duration": 0.08813149999999936
                },
                {
                    "name": "C#5",
                    "midi": 73,
                    "time": 21.768480499999935,
                    "velocity": 0.2047244094488189,
                    "duration": 0.08813149999999936
                },
                {
                    "name": "G4",
                    "midi": 67,
                    "time": 21.856611999999934,
                    "velocity": 0.2992125984251969,
                    "duration": 0.08813149999999936
                },
                {
                    "name": "F4",
                    "midi": 65,
                    "time": 22.209137999999935,
                    "velocity": 0.33070866141732286,
                    "duration": 0.08813149999999936
                },
                {
                    "name": "A4",
                    "midi": 69,
                    "time": 22.297269499999935,
                    "velocity": 0.2283464566929134,
                    "duration": 0.08813149999999936
                },
                {
                    "name": "D5",
                    "midi": 74,
                    "time": 22.297269499999935,
                    "velocity": 0.2677165354330709,
                    "duration": 0.08813149999999936
                },
                {
                    "name": "F4",
                    "midi": 65,
                    "time": 22.385400999999934,
                    "velocity": 0.33070866141732286,
                    "duration": 0.08813149999999936
                },
                {
                    "name": "A4",
                    "midi": 69,
                    "time": 22.473532499999934,
                    "velocity": 0.2283464566929134,
                    "duration": 0.08813149999999936
                },
                {
                    "name": "D5",
                    "midi": 74,
                    "time": 22.473532499999934,
                    "velocity": 0.29133858267716534,
                    "duration": 0.08813149999999936
                },
                {
                    "name": "F4",
                    "midi": 65,
                    "time": 22.561663999999933,
                    "velocity": 0.25984251968503935,
                    "duration": 0.08813149999999936
                },
                {
                    "name": "A4",
                    "midi": 69,
                    "time": 22.649795499999932,
                    "velocity": 0.1732283464566929,
                    "duration": 0.08813149999999936
                },
                {
                    "name": "D5",
                    "midi": 74,
                    "time": 22.649795499999932,
                    "velocity": 0.2204724409448819,
                    "duration": 0.08813149999999936
                },
                {
                    "name": "F4",
                    "midi": 65,
                    "time": 22.73792699999993,
                    "velocity": 0.25984251968503935,
                    "duration": 0.08813149999999936
                },
                {
                    "name": "A4",
                    "midi": 69,
                    "time": 22.82605849999993,
                    "velocity": 0.1732283464566929,
                    "duration": 0.08813149999999936
                },
                {
                    "name": "D5",
                    "midi": 74,
                    "time": 22.82605849999993,
                    "velocity": 0.2204724409448819,
                    "duration": 0.08813149999999936
                },
                {
                    "name": "F4",
                    "midi": 65,
                    "time": 22.91418999999993,
                    "velocity": 0.3228346456692913,
                    "duration": 0.08813149999999936
                },
                {
                    "name": "G#4",
                    "midi": 68,
                    "time": 23.26671599999993,
                    "velocity": 0.36220472440944884,
                    "duration": 0.08813149999999936
                },
                {
                    "name": "A#4",
                    "midi": 70,
                    "time": 23.35484749999993,
                    "velocity": 0.2440944881889764,
                    "duration": 0.08813149999999936
                },
                {
                    "name": "D5",
                    "midi": 74,
                    "time": 23.35484749999993,
                    "velocity": 0.29133858267716534,
                    "duration": 0.08813149999999936
                },
                {
                    "name": "G#4",
                    "midi": 68,
                    "time": 23.44297899999993,
                    "velocity": 0.36220472440944884,
                    "duration": 0.08813149999999936
                },
                {
                    "name": "A#4",
                    "midi": 70,
                    "time": 23.53111049999993,
                    "velocity": 0.2440944881889764,
                    "duration": 0.08813149999999936
                },
                {
                    "name": "D5",
                    "midi": 74,
                    "time": 23.53111049999993,
                    "velocity": 0.31496062992125984,
                    "duration": 0.08813149999999936
                },
                {
                    "name": "G#4",
                    "midi": 68,
                    "time": 23.61924199999993,
                    "velocity": 0.28346456692913385,
                    "duration": 0.08813149999999936
                },
                {
                    "name": "A#4",
                    "midi": 70,
                    "time": 23.707373499999928,
                    "velocity": 0.1889763779527559,
                    "duration": 0.08813149999999936
                },
                {
                    "name": "D5",
                    "midi": 74,
                    "time": 23.707373499999928,
                    "velocity": 0.23622047244094488,
                    "duration": 0.08813149999999936
                },
                {
                    "name": "G#4",
                    "midi": 68,
                    "time": 23.795504999999928,
                    "velocity": 0.28346456692913385,
                    "duration": 0.08813149999999936
                },
                {
                    "name": "A#4",
                    "midi": 70,
                    "time": 23.883636499999927,
                    "velocity": 0.1889763779527559,
                    "duration": 0.08813149999999936
                },
                {
                    "name": "D5",
                    "midi": 74,
                    "time": 23.883636499999927,
                    "velocity": 0.23622047244094488,
                    "duration": 0.08813149999999936
                },
                {
                    "name": "G#4",
                    "midi": 68,
                    "time": 23.971767999999926,
                    "velocity": 0.3543307086614173,
                    "duration": 0.08813149999999936
                },
                {
                    "name": "G4",
                    "midi": 67,
                    "time": 24.324293999999927,
                    "velocity": 0.3937007874015748,
                    "duration": 0.08813149999999936
                },
                {
                    "name": "A#4",
                    "midi": 70,
                    "time": 24.412425499999927,
                    "velocity": 0.2677165354330709,
                    "duration": 0.08813149999999936
                },
                {
                    "name": "D#5",
                    "midi": 75,
                    "time": 24.412425499999927,
                    "velocity": 0.31496062992125984,
                    "duration": 0.08813149999999936
                },
                {
                    "name": "G4",
                    "midi": 67,
                    "time": 24.500556999999926,
                    "velocity": 0.3937007874015748,
                    "duration": 0.08813149999999936
                },
                {
                    "name": "A#4",
                    "midi": 70,
                    "time": 24.588688499999925,
                    "velocity": 0.2677165354330709,
                    "duration": 0.08813149999999936
                },
                {
                    "name": "D#5",
                    "midi": 75,
                    "time": 24.588688499999925,
                    "velocity": 0.3464566929133858,
                    "duration": 0.08813149999999936
                },
                {
                    "name": "G4",
                    "midi": 67,
                    "time": 24.676819999999925,
                    "velocity": 0.30708661417322836,
                    "duration": 0.08813149999999936
                },
                {
                    "name": "A#4",
                    "midi": 70,
                    "time": 24.764951499999924,
                    "velocity": 0.2047244094488189,
                    "duration": 0.08813149999999936
                },
                {
                    "name": "D#5",
                    "midi": 75,
                    "time": 24.764951499999924,
                    "velocity": 0.25984251968503935,
                    "duration": 0.08813149999999936
                },
                {
                    "name": "G4",
                    "midi": 67,
                    "time": 24.853082999999923,
                    "velocity": 0.30708661417322836,
                    "duration": 0.08813149999999936
                },
                {
                    "name": "A#4",
                    "midi": 70,
                    "time": 24.941214499999923,
                    "velocity": 0.2047244094488189,
                    "duration": 0.08813149999999936
                },
                {
                    "name": "D#5",
                    "midi": 75,
                    "time": 24.941214499999923,
                    "velocity": 0.25984251968503935,
                    "duration": 0.08813149999999936
                },
                {
                    "name": "G4",
                    "midi": 67,
                    "time": 25.029345999999922,
                    "velocity": 0.3858267716535433,
                    "duration": 0.08813149999999936
                },
                {
                    "name": "F#4",
                    "midi": 66,
                    "time": 25.381871999999923,
                    "velocity": 0.3937007874015748,
                    "duration": 0.08813149999999936
                },
                {
                    "name": "A#4",
                    "midi": 70,
                    "time": 25.470003499999923,
                    "velocity": 0.2677165354330709,
                    "duration": 0.08813149999999936
                },
                {
                    "name": "C#5",
                    "midi": 73,
                    "time": 25.470003499999923,
                    "velocity": 0.31496062992125984,
                    "duration": 0.08813149999999936
                },
                {
                    "name": "F#4",
                    "midi": 66,
                    "time": 25.558134999999922,
                    "velocity": 0.3937007874015748,
                    "duration": 0.08813149999999936
                },
                {
                    "name": "A#4",
                    "midi": 70,
                    "time": 25.64626649999992,
                    "velocity": 0.2677165354330709,
                    "duration": 0.08813149999999936
                },
                {
                    "name": "C#5",
                    "midi": 73,
                    "time": 25.64626649999992,
                    "velocity": 0.3464566929133858,
                    "duration": 0.08813149999999936
                },
                {
                    "name": "F4",
                    "midi": 65,
                    "time": 25.73439799999992,
                    "velocity": 0.3937007874015748,
                    "duration": 0.08813149999999936
                },
                {
                    "name": "A#4",
                    "midi": 70,
                    "time": 25.82252949999992,
                    "velocity": 0.2677165354330709,
                    "duration": 0.08813149999999936
                },
                {
                    "name": "C#5",
                    "midi": 73,
                    "time": 25.82252949999992,
                    "velocity": 0.31496062992125984,
                    "duration": 0.08813149999999936
                },
                {
                    "name": "F4",
                    "midi": 65,
                    "time": 25.91066099999992,
                    "velocity": 0.3937007874015748,
                    "duration": 0.08813149999999936
                },
                {
                    "name": "A#4",
                    "midi": 70,
                    "time": 25.99879249999992,
                    "velocity": 0.2677165354330709,
                    "duration": 0.08813149999999936
                },
                {
                    "name": "C#5",
                    "midi": 73,
                    "time": 25.99879249999992,
                    "velocity": 0.3464566929133858,
                    "duration": 0.08813149999999936
                },
                {
                    "name": "E4",
                    "midi": 64,
                    "time": 26.086923999999918,
                    "velocity": 0.3937007874015748,
                    "duration": 0.08813149999999936
                },
                {
                    "name": "A#4",
                    "midi": 70,
                    "time": 26.175055499999917,
                    "velocity": 0.2677165354330709,
                    "duration": 0.08813149999999936
                },
                {
                    "name": "C#5",
                    "midi": 73,
                    "time": 26.175055499999917,
                    "velocity": 0.31496062992125984,
                    "duration": 0.08813149999999936
                },
                {
                    "name": "E4",
                    "midi": 64,
                    "time": 26.263186999999917,
                    "velocity": 0.3937007874015748,
                    "duration": 0.08813149999999936
                },
                {
                    "name": "A#4",
                    "midi": 70,
                    "time": 26.351318499999916,
                    "velocity": 0.2677165354330709,
                    "duration": 0.08813149999999936
                },
                {
                    "name": "C#5",
                    "midi": 73,
                    "time": 26.351318499999916,
                    "velocity": 0.3464566929133858,
                    "duration": 0.08813149999999936
                },
                {
                    "name": "D#4",
                    "midi": 63,
                    "time": 26.439449999999916,
                    "velocity": 0.3937007874015748,
                    "duration": 0.08813149999999936
                },
                {
                    "name": "G4",
                    "midi": 67,
                    "time": 26.527581499999915,
                    "velocity": 0.2677165354330709,
                    "duration": 0.08813149999999936
                },
                {
                    "name": "A#4",
                    "midi": 70,
                    "time": 26.527581499999915,
                    "velocity": 0.31496062992125984,
                    "duration": 0.08813149999999936
                },
                {
                    "name": "D#4",
                    "midi": 63,
                    "time": 26.615712999999914,
                    "velocity": 0.3937007874015748,
                    "duration": 0.08813149999999936
                },
                {
                    "name": "G4",
                    "midi": 67,
                    "time": 26.703844499999914,
                    "velocity": 0.2677165354330709,
                    "duration": 0.08813149999999936
                },
                {
                    "name": "A#4",
                    "midi": 70,
                    "time": 26.703844499999914,
                    "velocity": 0.3464566929133858,
                    "duration": 0.08813149999999936
                },
                {
                    "name": "D4",
                    "midi": 62,
                    "time": 26.791975999999913,
                    "velocity": 0.3937007874015748,
                    "duration": 0.08813149999999936
                },
                {
                    "name": "G4",
                    "midi": 67,
                    "time": 26.880107499999912,
                    "velocity": 0.2677165354330709,
                    "duration": 0.08813149999999936
                },
                {
                    "name": "A#4",
                    "midi": 70,
                    "time": 26.880107499999912,
                    "velocity": 0.31496062992125984,
                    "duration": 0.08813149999999936
                },
                {
                    "name": "D4",
                    "midi": 62,
                    "time": 26.96823899999991,
                    "velocity": 0.3937007874015748,
                    "duration": 0.08813149999999936
                },
                {
                    "name": "G4",
                    "midi": 67,
                    "time": 27.05637049999991,
                    "velocity": 0.2677165354330709,
                    "duration": 0.08813149999999936
                },
                {
                    "name": "A#4",
                    "midi": 70,
                    "time": 27.05637049999991,
                    "velocity": 0.3464566929133858,
                    "duration": 0.08813149999999936
                },
                {
                    "name": "C#4",
                    "midi": 61,
                    "time": 27.14450199999991,
                    "velocity": 0.3937007874015748,
                    "duration": 0.08813149999999936
                },
                {
                    "name": "G4",
                    "midi": 67,
                    "time": 27.23263349999991,
                    "velocity": 0.2677165354330709,
                    "duration": 0.08813149999999936
                },
                {
                    "name": "A#4",
                    "midi": 70,
                    "time": 27.23263349999991,
                    "velocity": 0.31496062992125984,
                    "duration": 0.08813149999999936
                },
                {
                    "name": "C#4",
                    "midi": 61,
                    "time": 27.32076499999991,
                    "velocity": 0.3937007874015748,
                    "duration": 0.08813149999999936
                },
                {
                    "name": "G4",
                    "midi": 67,
                    "time": 27.40889649999991,
                    "velocity": 0.2677165354330709,
                    "duration": 0.08813149999999936
                },
                {
                    "name": "A#4",
                    "midi": 70,
                    "time": 27.40889649999991,
                    "velocity": 0.3464566929133858,
                    "duration": 0.08813149999999936
                },
                {
                    "name": "C4",
                    "midi": 60,
                    "time": 27.497027999999908,
                    "velocity": 0.3937007874015748,
                    "duration": 0.08813149999999936
                },
                {
                    "name": "E4",
                    "midi": 64,
                    "time": 27.585159499999907,
                    "velocity": 0.2677165354330709,
                    "duration": 0.08813149999999936
                },
                {
                    "name": "G4",
                    "midi": 67,
                    "time": 27.585159499999907,
                    "velocity": 0.31496062992125984,
                    "duration": 0.08813149999999936
                },
                {
                    "name": "C4",
                    "midi": 60,
                    "time": 27.673290999999907,
                    "velocity": 0.3937007874015748,
                    "duration": 0.08813149999999936
                },
                {
                    "name": "E4",
                    "midi": 64,
                    "time": 27.761422499999906,
                    "velocity": 0.2677165354330709,
                    "duration": 0.08813149999999936
                },
                {
                    "name": "G4",
                    "midi": 67,
                    "time": 27.761422499999906,
                    "velocity": 0.3464566929133858,
                    "duration": 0.08813149999999936
                },
                {
                    "name": "B3",
                    "midi": 59,
                    "time": 27.849553999999905,
                    "velocity": 0.4015748031496063,
                    "duration": 0.08813149999999936
                },
                {
                    "name": "E4",
                    "midi": 64,
                    "time": 27.937685499999905,
                    "velocity": 0.2755905511811024,
                    "duration": 0.08813149999999936
                },
                {
                    "name": "G4",
                    "midi": 67,
                    "time": 27.937685499999905,
                    "velocity": 0.3228346456692913,
                    "duration": 0.08813149999999936
                },
                {
                    "name": "B3",
                    "midi": 59,
                    "time": 28.025816999999904,
                    "velocity": 0.4015748031496063,
                    "duration": 0.08813149999999936
                },
                {
                    "name": "E4",
                    "midi": 64,
                    "time": 28.113948499999903,
                    "velocity": 0.2755905511811024,
                    "duration": 0.08813149999999936
                },
                {
                    "name": "G4",
                    "midi": 67,
                    "time": 28.113948499999903,
                    "velocity": 0.3543307086614173,
                    "duration": 0.08813149999999936
                },
                {
                    "name": "A#3",
                    "midi": 58,
                    "time": 28.202079999999903,
                    "velocity": 0.4094488188976378,
                    "duration": 0.08813149999999936
                },
                {
                    "name": "E4",
                    "midi": 64,
                    "time": 28.290211499999902,
                    "velocity": 0.2755905511811024,
                    "duration": 0.08813149999999936
                },
                {
                    "name": "G4",
                    "midi": 67,
                    "time": 28.290211499999902,
                    "velocity": 0.33070866141732286,
                    "duration": 0.08813149999999936
                },
                {
                    "name": "A#3",
                    "midi": 58,
                    "time": 28.3783429999999,
                    "velocity": 0.41732283464566927,
                    "duration": 0.08813149999999936
                },
                {
                    "name": "E4",
                    "midi": 64,
                    "time": 28.4664744999999,
                    "velocity": 0.28346456692913385,
                    "duration": 0.08813149999999936
                },
                {
                    "name": "G4",
                    "midi": 67,
                    "time": 28.4664744999999,
                    "velocity": 0.36220472440944884,
                    "duration": 0.08813149999999936
                },
                {
                    "name": "A3",
                    "midi": 57,
                    "time": 28.5546059999999,
                    "velocity": 0.41732283464566927,
                    "duration": 0.08813149999999936
                },
                {
                    "name": "E4",
                    "midi": 64,
                    "time": 28.6427374999999,
                    "velocity": 0.28346456692913385,
                    "duration": 0.08813149999999936
                },
                {
                    "name": "G4",
                    "midi": 67,
                    "time": 28.6427374999999,
                    "velocity": 0.33858267716535434,
                    "duration": 0.08813149999999936
                },
                {
                    "name": "A3",
                    "midi": 57,
                    "time": 28.7308689999999,
                    "velocity": 0.4251968503937008,
                    "duration": 0.08813149999999936
                },
                {
                    "name": "E4",
                    "midi": 64,
                    "time": 28.8190004999999,
                    "velocity": 0.29133858267716534,
                    "duration": 0.08813149999999936
                },
                {
                    "name": "G4",
                    "midi": 67,
                    "time": 28.8190004999999,
                    "velocity": 0.3700787401574803,
                    "duration": 0.08813149999999936
                },
                {
                    "name": "G#3",
                    "midi": 56,
                    "time": 28.907131999999898,
                    "velocity": 0.4330708661417323,
                    "duration": 0.08813149999999936
                },
                {
                    "name": "E4",
                    "midi": 64,
                    "time": 28.995263499999897,
                    "velocity": 0.29133858267716534,
                    "duration": 0.08813149999999936
                },
                {
                    "name": "F#4",
                    "midi": 66,
                    "time": 28.995263499999897,
                    "velocity": 0.3464566929133858,
                    "duration": 0.08813149999999936
                },
                {
                    "name": "G#3",
                    "midi": 56,
                    "time": 29.083394999999896,
                    "velocity": 0.4330708661417323,
                    "duration": 0.08813149999999936
                },
                {
                    "name": "E4",
                    "midi": 64,
                    "time": 29.171526499999896,
                    "velocity": 0.29133858267716534,
                    "duration": 0.08813149999999936
                },
                {
                    "name": "F#4",
                    "midi": 66,
                    "time": 29.171526499999896,
                    "velocity": 0.3779527559055118,
                    "duration": 0.08813149999999936
                },
                {
                    "name": "G3",
                    "midi": 55,
                    "time": 29.259657999999895,
                    "velocity": 0.4409448818897638,
                    "duration": 0.08813149999999936
                },
                {
                    "name": "E4",
                    "midi": 64,
                    "time": 29.347789499999895,
                    "velocity": 0.2992125984251969,
                    "duration": 0.08813149999999936
                },
                {
                    "name": "F#4",
                    "midi": 66,
                    "time": 29.347789499999895,
                    "velocity": 0.3543307086614173,
                    "duration": 0.08813149999999936
                },
                {
                    "name": "G3",
                    "midi": 55,
                    "time": 29.435920999999894,
                    "velocity": 0.4409448818897638,
                    "duration": 0.08813149999999936
                },
                {
                    "name": "E4",
                    "midi": 64,
                    "time": 29.524052499999893,
                    "velocity": 0.2992125984251969,
                    "duration": 0.08813149999999936
                },
                {
                    "name": "F#4",
                    "midi": 66,
                    "time": 29.524052499999893,
                    "velocity": 0.3937007874015748,
                    "duration": 0.08813149999999936
                },
                {
                    "name": "A3",
                    "midi": 57,
                    "time": 29.612183999999893,
                    "velocity": 0.49606299212598426,
                    "duration": 0.17626299999999873
                },
                {
                    "name": "D4",
                    "midi": 62,
                    "time": 31.02228799999989,
                    "velocity": 0.5118110236220472,
                    "duration": 0.08813149999999936
                },
                {
                    "name": "A#3",
                    "midi": 58,
                    "time": 31.11041949999989,
                    "velocity": 0.41732283464566927,
                    "duration": 0.08813149999999936
                },
                {
                    "name": "C#4",
                    "midi": 61,
                    "time": 31.19855099999989,
                    "velocity": 0.4881889763779528,
                    "duration": 0.08813149999999936
                },
                {
                    "name": "F#3",
                    "midi": 54,
                    "time": 31.286682499999888,
                    "velocity": 0.4330708661417323,
                    "duration": 0.08813149999999936
                },
                {
                    "name": "B3",
                    "midi": 59,
                    "time": 31.374813999999887,
                    "velocity": 0.5196850393700787,
                    "duration": 0.08813149999999936
                },
                {
                    "name": "F#3",
                    "midi": 54,
                    "time": 31.462945499999886,
                    "velocity": 0.3937007874015748,
                    "duration": 0.08813149999999936
                },
                {
                    "name": "A#3",
                    "midi": 58,
                    "time": 31.551076999999886,
                    "velocity": 0.4566929133858268,
                    "duration": 0.08813149999999936
                },
                {
                    "name": "C#3",
                    "midi": 49,
                    "time": 31.639208499999885,
                    "velocity": 0.3937007874015748,
                    "duration": 0.08813149999999936
                },
                {
                    "name": "G3",
                    "midi": 55,
                    "time": 31.727339999999884,
                    "velocity": 0.5826771653543307,
                    "duration": 0.08813149999999936
                },
                {
                    "name": "C#3",
                    "midi": 49,
                    "time": 31.815471499999884,
                    "velocity": 0.4251968503937008,
                    "duration": 0.08813149999999936
                },
                {
                    "name": "F#3",
                    "midi": 54,
                    "time": 31.903602999999883,
                    "velocity": 0.5196850393700787,
                    "duration": 0.08813149999999936
                },
                {
                    "name": "A#2",
                    "midi": 46,
                    "time": 31.991734499999883,
                    "velocity": 0.4330708661417323,
                    "duration": 0.08813149999999936
                },
                {
                    "name": "F3",
                    "midi": 53,
                    "time": 32.07986599999988,
                    "velocity": 0.5590551181102362,
                    "duration": 0.08813150000000292
                },
                {
                    "name": "E3",
                    "midi": 52,
                    "time": 32.167997499999885,
                    "velocity": 0.5039370078740157,
                    "duration": 0.08813150000000292
                },
                {
                    "name": "D#3",
                    "midi": 51,
                    "time": 32.25612899999989,
                    "velocity": 0.4645669291338583,
                    "duration": 0.08813150000000292
                },
                {
                    "name": "D3",
                    "midi": 50,
                    "time": 32.34426049999989,
                    "velocity": 0.44881889763779526,
                    "duration": 0.08813150000000292
                },
                {
                    "name": "C#3",
                    "midi": 49,
                    "time": 32.43239199999989,
                    "velocity": 0.4409448818897638,
                    "duration": 0.08813150000000292
                },
                {
                    "name": "C3",
                    "midi": 48,
                    "time": 32.520523499999896,
                    "velocity": 0.4015748031496063,
                    "duration": 0.08813150000000292
                },
                {
                    "name": "B2",
                    "midi": 47,
                    "time": 32.6086549999999,
                    "velocity": 0.3779527559055118,
                    "duration": 0.08813150000000292
                },
                {
                    "name": "A#2",
                    "midi": 46,
                    "time": 32.6967864999999,
                    "velocity": 0.3779527559055118,
                    "duration": 0.08813150000000292
                },
                {
                    "name": "A2",
                    "midi": 45,
                    "time": 32.784917999999905,
                    "velocity": 0.3779527559055118,
                    "duration": 0.08813150000000292
                },
                {
                    "name": "G#2",
                    "midi": 44,
                    "time": 32.87304949999991,
                    "velocity": 0.3464566929133858,
                    "duration": 0.08813150000000292
                },
                {
                    "name": "G2",
                    "midi": 43,
                    "time": 32.96118099999991,
                    "velocity": 0.33070866141732286,
                    "duration": 0.08813150000000292
                },
                {
                    "name": "F#2",
                    "midi": 42,
                    "time": 33.049312499999914,
                    "velocity": 0.33070866141732286,
                    "duration": 0.08813150000000292
                },
                {
                    "name": "F2",
                    "midi": 41,
                    "time": 33.13744399999992,
                    "velocity": 0.31496062992125984,
                    "duration": 0.05875433333333291
                },
                {
                    "name": "E2",
                    "midi": 40,
                    "time": 33.25495266666658,
                    "velocity": 0.28346456692913385,
                    "duration": 0.05875433333333291
                },
                {
                    "name": "D#2",
                    "midi": 39,
                    "time": 33.37246133333325,
                    "velocity": 0.25984251968503935,
                    "duration": 0.05875433333333291
                },
                {
                    "name": "D2",
                    "midi": 38,
                    "time": 33.489969999999914,
                    "velocity": 0.25196850393700787,
                    "duration": 0.05875433333333291
                },
                {
                    "name": "C#2",
                    "midi": 37,
                    "time": 33.60747866666658,
                    "velocity": 0.2440944881889764,
                    "duration": 0.05875433333333291
                },
                {
                    "name": "C2",
                    "midi": 36,
                    "time": 33.724987333333246,
                    "velocity": 0.2283464566929134,
                    "duration": 0.05875433333333291
                },
                {
                    "name": "B1",
                    "midi": 35,
                    "time": 33.84249599999991,
                    "velocity": 0.15748031496062992,
                    "duration": 0.7931835000000262
                },
                {
                    "name": "F#2",
                    "midi": 42,
                    "time": 33.84249599999991,
                    "velocity": 0.2125984251968504,
                    "duration": 0.08813150000000292
                },
                {
                    "name": "G2",
                    "midi": 43,
                    "time": 33.930627499999915,
                    "velocity": 0.15748031496062992,
                    "duration": 0.08813150000000292
                },
                {
                    "name": "F#2",
                    "midi": 42,
                    "time": 34.01875899999992,
                    "velocity": 0.1889763779527559,
                    "duration": 0.08813150000000292
                },
                {
                    "name": "G2",
                    "midi": 43,
                    "time": 34.10689049999992,
                    "velocity": 0.15748031496062992,
                    "duration": 0.08813150000000292
                },
                {
                    "name": "F#2",
                    "midi": 42,
                    "time": 34.19502199999992,
                    "velocity": 0.1732283464566929,
                    "duration": 0.08813150000000292
                },
                {
                    "name": "G2",
                    "midi": 43,
                    "time": 34.283153499999926,
                    "velocity": 0.14173228346456693,
                    "duration": 0.08813150000000292
                },
                {
                    "name": "F#2",
                    "midi": 42,
                    "time": 34.37128499999993,
                    "velocity": 0.15748031496062992,
                    "duration": 0.08813150000000292
                },
                {
                    "name": "G2",
                    "midi": 43,
                    "time": 34.45941649999993,
                    "velocity": 0.12598425196850394,
                    "duration": 0.08813150000000292
                },
                {
                    "name": "F#2",
                    "midi": 42,
                    "time": 34.547547999999935,
                    "velocity": 0.13385826771653545,
                    "duration": 0.08813150000000292
                },
                {
                    "name": "B1",
                    "midi": 35,
                    "time": 34.90007399999994,
                    "velocity": 0.15748031496062992,
                    "duration": 0.7931835000000262
                },
                {
                    "name": "F#2",
                    "midi": 42,
                    "time": 34.90007399999994,
                    "velocity": 0.2125984251968504,
                    "duration": 0.08813150000000292
                },
                {
                    "name": "G2",
                    "midi": 43,
                    "time": 34.98820549999994,
                    "velocity": 0.15748031496062992,
                    "duration": 0.08813150000000292
                },
                {
                    "name": "F#2",
                    "midi": 42,
                    "time": 35.076336999999945,
                    "velocity": 0.1889763779527559,
                    "duration": 0.08813150000000292
                },
                {
                    "name": "G2",
                    "midi": 43,
                    "time": 35.16446849999995,
                    "velocity": 0.15748031496062992,
                    "duration": 0.08813150000000292
                },
                {
                    "name": "F#2",
                    "midi": 42,
                    "time": 35.25259999999995,
                    "velocity": 0.1732283464566929,
                    "duration": 0.08813150000000292
                },
                {
                    "name": "G2",
                    "midi": 43,
                    "time": 35.340731499999954,
                    "velocity": 0.14173228346456693,
                    "duration": 0.08813150000000292
                },
                {
                    "name": "F#2",
                    "midi": 42,
                    "time": 35.42886299999996,
                    "velocity": 0.15748031496062992,
                    "duration": 0.08813150000000292
                },
                {
                    "name": "G2",
                    "midi": 43,
                    "time": 35.51699449999996,
                    "velocity": 0.12598425196850394,
                    "duration": 0.08813150000000292
                },
                {
                    "name": "F#2",
                    "midi": 42,
                    "time": 35.60512599999996,
                    "velocity": 0.13385826771653545,
                    "duration": 0.08813150000000292
                },
                {
                    "name": "B1",
                    "midi": 35,
                    "time": 35.95765199999997,
                    "velocity": 0.15748031496062992,
                    "duration": 0.7931835000000262
                },
                {
                    "name": "F#2",
                    "midi": 42,
                    "time": 35.95765199999997,
                    "velocity": 0.2125984251968504,
                    "duration": 0.08813150000000292
                },
                {
                    "name": "G2",
                    "midi": 43,
                    "time": 36.04578349999997,
                    "velocity": 0.16535433070866143,
                    "duration": 0.08813150000000292
                },
                {
                    "name": "F#2",
                    "midi": 42,
                    "time": 36.13391499999997,
                    "velocity": 0.2125984251968504,
                    "duration": 0.08813150000000292
                },
                {
                    "name": "G2",
                    "midi": 43,
                    "time": 36.222046499999976,
                    "velocity": 0.18110236220472442,
                    "duration": 0.08813150000000292
                },
                {
                    "name": "F#2",
                    "midi": 42,
                    "time": 36.31017799999998,
                    "velocity": 0.2125984251968504,
                    "duration": 0.08813150000000292
                },
                {
                    "name": "G2",
                    "midi": 43,
                    "time": 36.39830949999998,
                    "velocity": 0.18110236220472442,
                    "duration": 0.08813150000000292
                },
                {
                    "name": "F#2",
                    "midi": 42,
                    "time": 36.486440999999985,
                    "velocity": 0.2125984251968504,
                    "duration": 0.08813150000000292
                },
                {
                    "name": "G2",
                    "midi": 43,
                    "time": 36.57457249999999,
                    "velocity": 0.18110236220472442,
                    "duration": 0.08813150000000292
                },
                {
                    "name": "F#2",
                    "midi": 42,
                    "time": 36.66270399999999,
                    "velocity": 0.2047244094488189,
                    "duration": 0.08813150000000292
                },
                {
                    "name": "B1",
                    "midi": 35,
                    "time": 37.015229999999995,
                    "velocity": 0.15748031496062992,
                    "duration": 0.7931835000000262
                },
                {
                    "name": "F#2",
                    "midi": 42,
                    "time": 37.015229999999995,
                    "velocity": 0.2125984251968504,
                    "duration": 0.08813150000000292
                },
                {
                    "name": "G2",
                    "midi": 43,
                    "time": 37.1033615,
                    "velocity": 0.16535433070866143,
                    "duration": 0.08813150000000292
                },
                {
                    "name": "F#2",
                    "midi": 42,
                    "time": 37.191493,
                    "velocity": 0.2125984251968504,
                    "duration": 0.08813150000000292
                },
                {
                    "name": "G2",
                    "midi": 43,
                    "time": 37.279624500000004,
                    "velocity": 0.18110236220472442,
                    "duration": 0.08813150000000292
                },
                {
                    "name": "F#2",
                    "midi": 42,
                    "time": 37.36775600000001,
                    "velocity": 0.2125984251968504,
                    "duration": 0.08813150000000292
                },
                {
                    "name": "G2",
                    "midi": 43,
                    "time": 37.45588750000001,
                    "velocity": 0.18110236220472442,
                    "duration": 0.08813150000000292
                },
                {
                    "name": "F#2",
                    "midi": 42,
                    "time": 37.54401900000001,
                    "velocity": 0.2125984251968504,
                    "duration": 0.08813150000000292
                },
                {
                    "name": "G2",
                    "midi": 43,
                    "time": 37.632150500000016,
                    "velocity": 0.18110236220472442,
                    "duration": 0.08813150000000292
                },
                {
                    "name": "F#2",
                    "midi": 42,
                    "time": 37.72028200000002,
                    "velocity": 0.2047244094488189,
                    "duration": 0.08813150000000292
                },
                {
                    "name": "G2",
                    "midi": 43,
                    "time": 38.07280800000002,
                    "velocity": 0.3464566929133858,
                    "duration": 0.08813150000000292
                },
                {
                    "name": "D3",
                    "midi": 50,
                    "time": 38.160939500000026,
                    "velocity": 0.28346456692913385,
                    "duration": 0.08813150000000292
                },
                {
                    "name": "G2",
                    "midi": 43,
                    "time": 38.24907100000003,
                    "velocity": 0.3464566929133858,
                    "duration": 0.08813150000000292
                },
                {
                    "name": "D3",
                    "midi": 50,
                    "time": 38.33720250000003,
                    "velocity": 0.2992125984251969,
                    "duration": 0.08813150000000292
                },
                {
                    "name": "G2",
                    "midi": 43,
                    "time": 38.425334000000035,
                    "velocity": 0.3464566929133858,
                    "duration": 0.08813150000000292
                },
                {
                    "name": "D3",
                    "midi": 50,
                    "time": 38.51346550000004,
                    "velocity": 0.2992125984251969,
                    "duration": 0.08813150000000292
                },
                {
                    "name": "G2",
                    "midi": 43,
                    "time": 38.60159700000004,
                    "velocity": 0.36220472440944884,
                    "duration": 0.08813150000000292
                },
                {
                    "name": "D3",
                    "midi": 50,
                    "time": 38.689728500000044,
                    "velocity": 0.31496062992125984,
                    "duration": 0.08813150000000292
                },
                {
                    "name": "G2",
                    "midi": 43,
                    "time": 38.77786000000005,
                    "velocity": 0.33070866141732286,
                    "duration": 0.08813150000000292
                },
                {
                    "name": "C2",
                    "midi": 36,
                    "time": 39.13038600000005,
                    "velocity": 0.3464566929133858,
                    "duration": 0.08813150000000292
                },
                {
                    "name": "G2",
                    "midi": 43,
                    "time": 39.218517500000054,
                    "velocity": 0.28346456692913385,
                    "duration": 0.08813150000000292
                },
                {
                    "name": "C2",
                    "midi": 36,
                    "time": 39.30664900000006,
                    "velocity": 0.3464566929133858,
                    "duration": 0.08813150000000292
                },
                {
                    "name": "G2",
                    "midi": 43,
                    "time": 39.39478050000006,
                    "velocity": 0.2992125984251969,
                    "duration": 0.08813150000000292
                },
                {
                    "name": "C2",
                    "midi": 36,
                    "time": 39.48291200000006,
                    "velocity": 0.3464566929133858,
                    "duration": 0.08813150000000292
                },
                {
                    "name": "G2",
                    "midi": 43,
                    "time": 39.571043500000066,
                    "velocity": 0.2992125984251969,
                    "duration": 0.08813150000000292
                },
                {
                    "name": "C2",
                    "midi": 36,
                    "time": 39.65917500000007,
                    "velocity": 0.36220472440944884,
                    "duration": 0.08813150000000292
                },
                {
                    "name": "G2",
                    "midi": 43,
                    "time": 39.74730650000007,
                    "velocity": 0.31496062992125984,
                    "duration": 0.08813150000000292
                },
                {
                    "name": "C2",
                    "midi": 36,
                    "time": 39.835438000000075,
                    "velocity": 0.33070866141732286,
                    "duration": 0.08813150000000292
                },
                {
                    "name": "E2",
                    "midi": 40,
                    "time": 40.36422700000008,
                    "velocity": 0.14173228346456693,
                    "duration": 0.08813150000000292
                },
                {
                    "name": "F#2",
                    "midi": 42,
                    "time": 40.36422700000008,
                    "velocity": 0.1732283464566929,
                    "duration": 0.08813150000000292
                },
                {
                    "name": "D#2",
                    "midi": 39,
                    "time": 40.540490000000084,
                    "velocity": 0.1889763779527559,
                    "duration": 0.08813150000000292
                },
                {
                    "name": "F#2",
                    "midi": 42,
                    "time": 40.540490000000084,
                    "velocity": 0.1889763779527559,
                    "duration": 0.08813150000000292
                },
                {
                    "name": "D2",
                    "midi": 38,
                    "time": 40.71675300000009,
                    "velocity": 0.1732283464566929,
                    "duration": 0.08813150000000292
                },
                {
                    "name": "F#2",
                    "midi": 42,
                    "time": 40.71675300000009,
                    "velocity": 0.2047244094488189,
                    "duration": 0.08813150000000292
                },
                {
                    "name": "C#2",
                    "midi": 37,
                    "time": 40.893016000000095,
                    "velocity": 0.18110236220472442,
                    "duration": 0.08813150000000292
                },
                {
                    "name": "F#2",
                    "midi": 42,
                    "time": 40.893016000000095,
                    "velocity": 0.2204724409448819,
                    "duration": 0.08813150000000292
                },
                {
                    "name": "C2",
                    "midi": 36,
                    "time": 41.0692790000001,
                    "velocity": 0.1968503937007874,
                    "duration": 0.08813150000000292
                },
                {
                    "name": "F#2",
                    "midi": 42,
                    "time": 41.0692790000001,
                    "velocity": 0.23622047244094488,
                    "duration": 0.08813150000000292
                },
                {
                    "name": "B1",
                    "midi": 35,
                    "time": 41.24554200000011,
                    "velocity": 0.2283464566929134,
                    "duration": 0.08813150000000292
                },
                {
                    "name": "F#2",
                    "midi": 42,
                    "time": 41.33367350000011,
                    "velocity": 0.14960629921259844,
                    "duration": 0.08813150000000292
                },
                {
                    "name": "B1",
                    "midi": 35,
                    "time": 41.42180500000011,
                    "velocity": 0.14960629921259844,
                    "duration": 0.08813150000000292
                },
                {
                    "name": "F#2",
                    "midi": 42,
                    "time": 41.509936500000116,
                    "velocity": 0.14960629921259844,
                    "duration": 0.08813150000000292
                },
                {
                    "name": "B1",
                    "midi": 35,
                    "time": 41.59806800000012,
                    "velocity": 0.2125984251968504,
                    "duration": 0.08813150000000292
                },
                {
                    "name": "F#2",
                    "midi": 42,
                    "time": 41.68619950000012,
                    "velocity": 0.15748031496062992,
                    "duration": 0.08813150000000292
                },
                {
                    "name": "B1",
                    "midi": 35,
                    "time": 41.774331000000124,
                    "velocity": 0.1732283464566929,
                    "duration": 0.08813150000000292
                },
                {
                    "name": "F#2",
                    "midi": 42,
                    "time": 41.86246250000013,
                    "velocity": 0.15748031496062992,
                    "duration": 0.08813150000000292
                },
                {
                    "name": "B1",
                    "midi": 35,
                    "time": 41.95059400000013,
                    "velocity": 0.2204724409448819,
                    "duration": 0.17626299999999873
                },
                {
                    "name": "E4",
                    "midi": 64,
                    "time": 42.30312000000013,
                    "velocity": 0.25196850393700787,
                    "duration": 0.08813150000000292
                },
                {
                    "name": "F#4",
                    "midi": 66,
                    "time": 42.39125150000013,
                    "velocity": 0.1732283464566929,
                    "duration": 0.08813150000000292
                },
                {
                    "name": "A#4",
                    "midi": 70,
                    "time": 42.39125150000013,
                    "velocity": 0.2047244094488189,
                    "duration": 0.08813150000000292
                },
                {
                    "name": "E4",
                    "midi": 64,
                    "time": 42.479383000000134,
                    "velocity": 0.25196850393700787,
                    "duration": 0.08813150000000292
                },
                {
                    "name": "F#4",
                    "midi": 66,
                    "time": 42.56751450000014,
                    "velocity": 0.1732283464566929,
                    "duration": 0.08813150000000292
                },
                {
                    "name": "A#4",
                    "midi": 70,
                    "time": 42.56751450000014,
                    "velocity": 0.2125984251968504,
                    "duration": 0.08813150000000292
                },
                {
                    "name": "E4",
                    "midi": 64,
                    "time": 42.65564600000014,
                    "velocity": 0.1968503937007874,
                    "duration": 0.08813150000000292
                },
                {
                    "name": "F#4",
                    "midi": 66,
                    "time": 42.74377750000014,
                    "velocity": 0.13385826771653545,
                    "duration": 0.08813150000000292
                },
                {
                    "name": "A#4",
                    "midi": 70,
                    "time": 42.74377750000014,
                    "velocity": 0.16535433070866143,
                    "duration": 0.08813150000000292
                },
                {
                    "name": "E4",
                    "midi": 64,
                    "time": 42.831909000000145,
                    "velocity": 0.1968503937007874,
                    "duration": 0.08813150000000292
                },
                {
                    "name": "F#4",
                    "midi": 66,
                    "time": 42.92004050000015,
                    "velocity": 0.13385826771653545,
                    "duration": 0.08813150000000292
                },
                {
                    "name": "A#4",
                    "midi": 70,
                    "time": 42.92004050000015,
                    "velocity": 0.16535433070866143,
                    "duration": 0.08813150000000292
                },
                {
                    "name": "E4",
                    "midi": 64,
                    "time": 43.00817200000015,
                    "velocity": 0.2440944881889764,
                    "duration": 0.08813150000000292
                },
                {
                    "name": "D4",
                    "midi": 62,
                    "time": 43.360698000000156,
                    "velocity": 0.25196850393700787,
                    "duration": 0.08813150000000292
                },
                {
                    "name": "F#4",
                    "midi": 66,
                    "time": 43.44882950000016,
                    "velocity": 0.1732283464566929,
                    "duration": 0.08813150000000292
                },
                {
                    "name": "B4",
                    "midi": 71,
                    "time": 43.44882950000016,
                    "velocity": 0.2047244094488189,
                    "duration": 0.08813150000000292
                },
                {
                    "name": "D4",
                    "midi": 62,
                    "time": 43.53696100000016,
                    "velocity": 0.25196850393700787,
                    "duration": 0.08813150000000292
                },
                {
                    "name": "F#4",
                    "midi": 66,
                    "time": 43.625092500000164,
                    "velocity": 0.1732283464566929,
                    "duration": 0.08813150000000292
                },
                {
                    "name": "B4",
                    "midi": 71,
                    "time": 43.625092500000164,
                    "velocity": 0.2125984251968504,
                    "duration": 0.08813150000000292
                },
                {
                    "name": "D4",
                    "midi": 62,
                    "time": 43.71322400000017,
                    "velocity": 0.1968503937007874,
                    "duration": 0.08813150000000292
                },
                {
                    "name": "F#4",
                    "midi": 66,
                    "time": 43.80135550000017,
                    "velocity": 0.13385826771653545,
                    "duration": 0.08813150000000292
                },
                {
                    "name": "B4",
                    "midi": 71,
                    "time": 43.80135550000017,
                    "velocity": 0.16535433070866143,
                    "duration": 0.08813150000000292
                },
                {
                    "name": "D4",
                    "midi": 62,
                    "time": 43.88948700000017,
                    "velocity": 0.1968503937007874,
                    "duration": 0.08813150000000292
                },
                {
                    "name": "F#4",
                    "midi": 66,
                    "time": 43.977618500000176,
                    "velocity": 0.13385826771653545,
                    "duration": 0.08813150000000292
                },
                {
                    "name": "B4",
                    "midi": 71,
                    "time": 43.977618500000176,
                    "velocity": 0.16535433070866143,
                    "duration": 0.08813150000000292
                },
                {
                    "name": "D4",
                    "midi": 62,
                    "time": 44.06575000000018,
                    "velocity": 0.2440944881889764,
                    "duration": 0.08813150000000292
                },
                {
                    "name": "F4",
                    "midi": 65,
                    "time": 44.41827600000018,
                    "velocity": 0.25196850393700787,
                    "duration": 0.08813150000000292
                },
                {
                    "name": "G4",
                    "midi": 67,
                    "time": 44.506407500000186,
                    "velocity": 0.1732283464566929,
                    "duration": 0.08813150000000292
                },
                {
                    "name": "B4",
                    "midi": 71,
                    "time": 44.506407500000186,
                    "velocity": 0.2047244094488189,
                    "duration": 0.08813150000000292
                },
                {
                    "name": "F4",
                    "midi": 65,
                    "time": 44.59453900000019,
                    "velocity": 0.25196850393700787,
                    "duration": 0.08813150000000292
                },
                {
                    "name": "G4",
                    "midi": 67,
                    "time": 44.68267050000019,
                    "velocity": 0.1732283464566929,
                    "duration": 0.08813150000000292
                },
                {
                    "name": "B4",
                    "midi": 71,
                    "time": 44.68267050000019,
                    "velocity": 0.2125984251968504,
                    "duration": 0.08813150000000292
                },
                {
                    "name": "F4",
                    "midi": 65,
                    "time": 44.770802000000195,
                    "velocity": 0.1968503937007874,
                    "duration": 0.08813150000000292
                },
                {
                    "name": "G4",
                    "midi": 67,
                    "time": 44.8589335000002,
                    "velocity": 0.13385826771653545,
                    "duration": 0.08813150000000292
                },
                {
                    "name": "B4",
                    "midi": 71,
                    "time": 44.8589335000002,
                    "velocity": 0.16535433070866143,
                    "duration": 0.08813150000000292
                },
                {
                    "name": "F4",
                    "midi": 65,
                    "time": 44.9470650000002,
                    "velocity": 0.1968503937007874,
                    "duration": 0.08813150000000292
                },
                {
                    "name": "G4",
                    "midi": 67,
                    "time": 45.035196500000204,
                    "velocity": 0.13385826771653545,
                    "duration": 0.08813150000000292
                },
                {
                    "name": "B4",
                    "midi": 71,
                    "time": 45.035196500000204,
                    "velocity": 0.16535433070866143,
                    "duration": 0.08813150000000292
                },
                {
                    "name": "F4",
                    "midi": 65,
                    "time": 45.12332800000021,
                    "velocity": 0.2440944881889764,
                    "duration": 0.08813150000000292
                },
                {
                    "name": "E4",
                    "midi": 64,
                    "time": 45.47585400000021,
                    "velocity": 0.25196850393700787,
                    "duration": 0.08813150000000292
                },
                {
                    "name": "G4",
                    "midi": 67,
                    "time": 45.563985500000214,
                    "velocity": 0.1732283464566929,
                    "duration": 0.08813150000000292
                },
                {
                    "name": "C5",
                    "midi": 72,
                    "time": 45.563985500000214,
                    "velocity": 0.2047244094488189,
                    "duration": 0.08813150000000292
                },
                {
                    "name": "E4",
                    "midi": 64,
                    "time": 45.65211700000022,
                    "velocity": 0.25196850393700787,
                    "duration": 0.08813150000000292
                },
                {
                    "name": "G4",
                    "midi": 67,
                    "time": 45.74024850000022,
                    "velocity": 0.1732283464566929,
                    "duration": 0.08813150000000292
                },
                {
                    "name": "C5",
                    "midi": 72,
                    "time": 45.74024850000022,
                    "velocity": 0.2125984251968504,
                    "duration": 0.08813150000000292
                },
                {
                    "name": "E4",
                    "midi": 64,
                    "time": 45.82838000000022,
                    "velocity": 0.1968503937007874,
                    "duration": 0.08813150000000292
                },
                {
                    "name": "G4",
                    "midi": 67,
                    "time": 45.916511500000226,
                    "velocity": 0.13385826771653545,
                    "duration": 0.08813150000000292
                },
                {
                    "name": "C5",
                    "midi": 72,
                    "time": 45.916511500000226,
                    "velocity": 0.16535433070866143,
                    "duration": 0.08813150000000292
                },
                {
                    "name": "E4",
                    "midi": 64,
                    "time": 46.00464300000023,
                    "velocity": 0.1968503937007874,
                    "duration": 0.08813150000000292
                },
                {
                    "name": "G4",
                    "midi": 67,
                    "time": 46.09277450000023,
                    "velocity": 0.13385826771653545,
                    "duration": 0.08813150000000292
                },
                {
                    "name": "C5",
                    "midi": 72,
                    "time": 46.09277450000023,
                    "velocity": 0.16535433070866143,
                    "duration": 0.08813150000000292
                },
                {
                    "name": "E4",
                    "midi": 64,
                    "time": 46.180906000000235,
                    "velocity": 0.2440944881889764,
                    "duration": 0.08813150000000292
                },
                {
                    "name": "G4",
                    "midi": 67,
                    "time": 46.53343200000024,
                    "velocity": 0.30708661417322836,
                    "duration": 0.08813150000000292
                },
                {
                    "name": "A4",
                    "midi": 69,
                    "time": 46.62156350000024,
                    "velocity": 0.2125984251968504,
                    "duration": 0.08813150000000292
                },
                {
                    "name": "C#5",
                    "midi": 73,
                    "time": 46.62156350000024,
                    "velocity": 0.2440944881889764,
                    "duration": 0.08813150000000292
                },
                {
                    "name": "G4",
                    "midi": 67,
                    "time": 46.709695000000245,
                    "velocity": 0.30708661417322836,
                    "duration": 0.08813150000000292
                },
                {
                    "name": "A4",
                    "midi": 69,
                    "time": 46.79782650000025,
                    "velocity": 0.2125984251968504,
                    "duration": 0.08813150000000292
                },
                {
                    "name": "C#5",
                    "midi": 73,
                    "time": 46.79782650000025,
                    "velocity": 0.2677165354330709,
                    "duration": 0.08813150000000292
                },
                {
                    "name": "G4",
                    "midi": 67,
                    "time": 46.88595800000025,
                    "velocity": 0.23622047244094488,
                    "duration": 0.08813150000000292
                },
                {
                    "name": "A4",
                    "midi": 69,
                    "time": 46.974089500000254,
                    "velocity": 0.15748031496062992,
                    "duration": 0.08813150000000292
                },
                {
                    "name": "C#5",
                    "midi": 73,
                    "time": 46.974089500000254,
                    "velocity": 0.2047244094488189,
                    "duration": 0.08813150000000292
                },
                {
                    "name": "G4",
                    "midi": 67,
                    "time": 47.06222100000026,
                    "velocity": 0.23622047244094488,
                    "duration": 0.08813150000000292
                },
                {
                    "name": "A4",
                    "midi": 69,
                    "time": 47.15035250000026,
                    "velocity": 0.15748031496062992,
                    "duration": 0.08813150000000292
                },
                {
                    "name": "C#5",
                    "midi": 73,
                    "time": 47.15035250000026,
                    "velocity": 0.2047244094488189,
                    "duration": 0.08813150000000292
                },
                {
                    "name": "G4",
                    "midi": 67,
                    "time": 47.23848400000026,
                    "velocity": 0.2992125984251969,
                    "duration": 0.08813150000000292
                },
                {
                    "name": "F4",
                    "midi": 65,
                    "time": 47.59101000000027,
                    "velocity": 0.33070866141732286,
                    "duration": 0.08813150000000292
                },
                {
                    "name": "A4",
                    "midi": 69,
                    "time": 47.67914150000027,
                    "velocity": 0.2283464566929134,
                    "duration": 0.08813150000000292
                },
                {
                    "name": "D5",
                    "midi": 74,
                    "time": 47.67914150000027,
                    "velocity": 0.2677165354330709,
                    "duration": 0.08813150000000292
                },
                {
                    "name": "F4",
                    "midi": 65,
                    "time": 47.76727300000027,
                    "velocity": 0.33070866141732286,
                    "duration": 0.08813150000000292
                },
                {
                    "name": "A4",
                    "midi": 69,
                    "time": 47.855404500000276,
                    "velocity": 0.2283464566929134,
                    "duration": 0.08813150000000292
                },
                {
                    "name": "D5",
                    "midi": 74,
                    "time": 47.855404500000276,
                    "velocity": 0.29133858267716534,
                    "duration": 0.08813150000000292
                },
                {
                    "name": "F4",
                    "midi": 65,
                    "time": 47.94353600000028,
                    "velocity": 0.25984251968503935,
                    "duration": 0.08813150000000292
                },
                {
                    "name": "A4",
                    "midi": 69,
                    "time": 48.03166750000028,
                    "velocity": 0.1732283464566929,
                    "duration": 0.08813150000000292
                },
                {
                    "name": "D5",
                    "midi": 74,
                    "time": 48.03166750000028,
                    "velocity": 0.2204724409448819,
                    "duration": 0.08813150000000292
                },
                {
                    "name": "F4",
                    "midi": 65,
                    "time": 48.119799000000285,
                    "velocity": 0.25984251968503935,
                    "duration": 0.08813150000000292
                },
                {
                    "name": "A4",
                    "midi": 69,
                    "time": 48.20793050000029,
                    "velocity": 0.1732283464566929,
                    "duration": 0.08813150000000292
                },
                {
                    "name": "D5",
                    "midi": 74,
                    "time": 48.20793050000029,
                    "velocity": 0.2204724409448819,
                    "duration": 0.08813150000000292
                },
                {
                    "name": "F4",
                    "midi": 65,
                    "time": 48.29606200000029,
                    "velocity": 0.3228346456692913,
                    "duration": 0.08813150000000292
                },
                {
                    "name": "G#4",
                    "midi": 68,
                    "time": 48.648588000000295,
                    "velocity": 0.36220472440944884,
                    "duration": 0.08813150000000292
                },
                {
                    "name": "A#4",
                    "midi": 70,
                    "time": 48.7367195000003,
                    "velocity": 0.2440944881889764,
                    "duration": 0.08813150000000292
                },
                {
                    "name": "D5",
                    "midi": 74,
                    "time": 48.7367195000003,
                    "velocity": 0.29133858267716534,
                    "duration": 0.08813150000000292
                },
                {
                    "name": "G#4",
                    "midi": 68,
                    "time": 48.8248510000003,
                    "velocity": 0.36220472440944884,
                    "duration": 0.08813150000000292
                },
                {
                    "name": "A#4",
                    "midi": 70,
                    "time": 48.912982500000304,
                    "velocity": 0.2440944881889764,
                    "duration": 0.08813150000000292
                },
                {
                    "name": "D5",
                    "midi": 74,
                    "time": 48.912982500000304,
                    "velocity": 0.31496062992125984,
                    "duration": 0.08813150000000292
                },
                {
                    "name": "G#4",
                    "midi": 68,
                    "time": 49.00111400000031,
                    "velocity": 0.28346456692913385,
                    "duration": 0.08813150000000292
                },
                {
                    "name": "A#4",
                    "midi": 70,
                    "time": 49.08924550000031,
                    "velocity": 0.1889763779527559,
                    "duration": 0.08813150000000292
                },
                {
                    "name": "D5",
                    "midi": 74,
                    "time": 49.08924550000031,
                    "velocity": 0.23622047244094488,
                    "duration": 0.08813150000000292
                },
                {
                    "name": "G#4",
                    "midi": 68,
                    "time": 49.17737700000031,
                    "velocity": 0.28346456692913385,
                    "duration": 0.08813150000000292
                },
                {
                    "name": "A#4",
                    "midi": 70,
                    "time": 49.265508500000315,
                    "velocity": 0.1889763779527559,
                    "duration": 0.08813150000000292
                },
                {
                    "name": "D5",
                    "midi": 74,
                    "time": 49.265508500000315,
                    "velocity": 0.23622047244094488,
                    "duration": 0.08813150000000292
                },
                {
                    "name": "G#4",
                    "midi": 68,
                    "time": 49.35364000000032,
                    "velocity": 0.3543307086614173,
                    "duration": 0.08813150000000292
                },
                {
                    "name": "G4",
                    "midi": 67,
                    "time": 49.70616600000032,
                    "velocity": 0.3937007874015748,
                    "duration": 0.08813150000000292
                },
                {
                    "name": "A#4",
                    "midi": 70,
                    "time": 49.794297500000326,
                    "velocity": 0.2677165354330709,
                    "duration": 0.08813150000000292
                },
                {
                    "name": "D#5",
                    "midi": 75,
                    "time": 49.794297500000326,
                    "velocity": 0.31496062992125984,
                    "duration": 0.08813150000000292
                },
                {
                    "name": "G4",
                    "midi": 67,
                    "time": 49.88242900000033,
                    "velocity": 0.3937007874015748,
                    "duration": 0.08813150000000292
                },
                {
                    "name": "A#4",
                    "midi": 70,
                    "time": 49.97056050000033,
                    "velocity": 0.2677165354330709,
                    "duration": 0.08813150000000292
                },
                {
                    "name": "D#5",
                    "midi": 75,
                    "time": 49.97056050000033,
                    "velocity": 0.3464566929133858,
                    "duration": 0.08813150000000292
                },
                {
                    "name": "G4",
                    "midi": 67,
                    "time": 50.058692000000335,
                    "velocity": 0.30708661417322836,
                    "duration": 0.08813150000000292
                },
                {
                    "name": "A#4",
                    "midi": 70,
                    "time": 50.14682350000034,
                    "velocity": 0.2047244094488189,
                    "duration": 0.08813150000000292
                },
                {
                    "name": "D#5",
                    "midi": 75,
                    "time": 50.14682350000034,
                    "velocity": 0.25984251968503935,
                    "duration": 0.08813150000000292
                },
                {
                    "name": "G4",
                    "midi": 67,
                    "time": 50.23495500000034,
                    "velocity": 0.30708661417322836,
                    "duration": 0.08813150000000292
                },
                {
                    "name": "A#4",
                    "midi": 70,
                    "time": 50.32308650000034,
                    "velocity": 0.2047244094488189,
                    "duration": 0.08813150000000292
                },
                {
                    "name": "D#5",
                    "midi": 75,
                    "time": 50.32308650000034,
                    "velocity": 0.25984251968503935,
                    "duration": 0.08813150000000292
                },
                {
                    "name": "G4",
                    "midi": 67,
                    "time": 50.411218000000346,
                    "velocity": 0.3858267716535433,
                    "duration": 0.08813150000000292
                },
                {
                    "name": "F#4",
                    "midi": 66,
                    "time": 50.76374400000035,
                    "velocity": 0.3937007874015748,
                    "duration": 0.08813150000000292
                },
                {
                    "name": "A#4",
                    "midi": 70,
                    "time": 50.851875500000354,
                    "velocity": 0.2677165354330709,
                    "duration": 0.08813150000000292
                },
                {
                    "name": "C#5",
                    "midi": 73,
                    "time": 50.851875500000354,
                    "velocity": 0.31496062992125984,
                    "duration": 0.08813150000000292
                },
                {
                    "name": "F#4",
                    "midi": 66,
                    "time": 50.94000700000036,
                    "velocity": 0.3937007874015748,
                    "duration": 0.08813150000000292
                },
                {
                    "name": "A#4",
                    "midi": 70,
                    "time": 51.02813850000036,
                    "velocity": 0.2677165354330709,
                    "duration": 0.08813150000000292
                },
                {
                    "name": "C#5",
                    "midi": 73,
                    "time": 51.02813850000036,
                    "velocity": 0.3464566929133858,
                    "duration": 0.08813150000000292
                },
                {
                    "name": "F4",
                    "midi": 65,
                    "time": 51.11627000000036,
                    "velocity": 0.3937007874015748,
                    "duration": 0.08813150000000292
                },
                {
                    "name": "A#4",
                    "midi": 70,
                    "time": 51.204401500000365,
                    "velocity": 0.2677165354330709,
                    "duration": 0.08813150000000292
                },
                {
                    "name": "C#5",
                    "midi": 73,
                    "time": 51.204401500000365,
                    "velocity": 0.31496062992125984,
                    "duration": 0.08813150000000292
                },
                {
                    "name": "F4",
                    "midi": 65,
                    "time": 51.29253300000037,
                    "velocity": 0.3937007874015748,
                    "duration": 0.08813150000000292
                },
                {
                    "name": "A#4",
                    "midi": 70,
                    "time": 51.38066450000037,
                    "velocity": 0.2677165354330709,
                    "duration": 0.08813150000000292
                },
                {
                    "name": "C#5",
                    "midi": 73,
                    "time": 51.38066450000037,
                    "velocity": 0.3464566929133858,
                    "duration": 0.08813150000000292
                },
                {
                    "name": "E4",
                    "midi": 64,
                    "time": 51.468796000000374,
                    "velocity": 0.3937007874015748,
                    "duration": 0.08813150000000292
                },
                {
                    "name": "A#4",
                    "midi": 70,
                    "time": 51.55692750000038,
                    "velocity": 0.2677165354330709,
                    "duration": 0.08813150000000292
                },
                {
                    "name": "C#5",
                    "midi": 73,
                    "time": 51.55692750000038,
                    "velocity": 0.31496062992125984,
                    "duration": 0.08813150000000292
                },
                {
                    "name": "E4",
                    "midi": 64,
                    "time": 51.64505900000038,
                    "velocity": 0.3937007874015748,
                    "duration": 0.08813150000000292
                },
                {
                    "name": "A#4",
                    "midi": 70,
                    "time": 51.73319050000038,
                    "velocity": 0.2677165354330709,
                    "duration": 0.08813150000000292
                },
                {
                    "name": "C#5",
                    "midi": 73,
                    "time": 51.73319050000038,
                    "velocity": 0.3464566929133858,
                    "duration": 0.08813150000000292
                },
                {
                    "name": "D#4",
                    "midi": 63,
                    "time": 51.821322000000386,
                    "velocity": 0.3937007874015748,
                    "duration": 0.08813150000000292
                },
                {
                    "name": "G4",
                    "midi": 67,
                    "time": 51.90945350000039,
                    "velocity": 0.2677165354330709,
                    "duration": 0.08813150000000292
                },
                {
                    "name": "A#4",
                    "midi": 70,
                    "time": 51.90945350000039,
                    "velocity": 0.31496062992125984,
                    "duration": 0.08813150000000292
                },
                {
                    "name": "D#4",
                    "midi": 63,
                    "time": 51.99758500000039,
                    "velocity": 0.3937007874015748,
                    "duration": 0.08813150000000292
                },
                {
                    "name": "G4",
                    "midi": 67,
                    "time": 52.085716500000395,
                    "velocity": 0.2677165354330709,
                    "duration": 0.08813150000000292
                },
                {
                    "name": "A#4",
                    "midi": 70,
                    "time": 52.085716500000395,
                    "velocity": 0.3464566929133858,
                    "duration": 0.08813150000000292
                },
                {
                    "name": "D4",
                    "midi": 62,
                    "time": 52.1738480000004,
                    "velocity": 0.3937007874015748,
                    "duration": 0.08813150000000292
                },
                {
                    "name": "G4",
                    "midi": 67,
                    "time": 52.2619795000004,
                    "velocity": 0.2677165354330709,
                    "duration": 0.08813150000000292
                },
                {
                    "name": "A#4",
                    "midi": 70,
                    "time": 52.2619795000004,
                    "velocity": 0.31496062992125984,
                    "duration": 0.08813150000000292
                },
                {
                    "name": "D4",
                    "midi": 62,
                    "time": 52.3501110000004,
                    "velocity": 0.3937007874015748,
                    "duration": 0.08813150000000292
                },
                {
                    "name": "G4",
                    "midi": 67,
                    "time": 52.438242500000406,
                    "velocity": 0.2677165354330709,
                    "duration": 0.08813150000000292
                },
                {
                    "name": "A#4",
                    "midi": 70,
                    "time": 52.438242500000406,
                    "velocity": 0.3464566929133858,
                    "duration": 0.08813150000000292
                },
                {
                    "name": "C#4",
                    "midi": 61,
                    "time": 52.52637400000041,
                    "velocity": 0.3937007874015748,
                    "duration": 0.08813150000000292
                },
                {
                    "name": "G4",
                    "midi": 67,
                    "time": 52.61450550000041,
                    "velocity": 0.2677165354330709,
                    "duration": 0.08813150000000292
                },
                {
                    "name": "A#4",
                    "midi": 70,
                    "time": 52.61450550000041,
                    "velocity": 0.31496062992125984,
                    "duration": 0.08813150000000292
                },
                {
                    "name": "C#4",
                    "midi": 61,
                    "time": 52.702637000000415,
                    "velocity": 0.3937007874015748,
                    "duration": 0.08813150000000292
                },
                {
                    "name": "G4",
                    "midi": 67,
                    "time": 52.79076850000042,
                    "velocity": 0.2677165354330709,
                    "duration": 0.08813150000000292
                },
                {
                    "name": "A#4",
                    "midi": 70,
                    "time": 52.79076850000042,
                    "velocity": 0.3464566929133858,
                    "duration": 0.08813150000000292
                },
                {
                    "name": "C4",
                    "midi": 60,
                    "time": 52.87890000000042,
                    "velocity": 0.3937007874015748,
                    "duration": 0.08813150000000292
                },
                {
                    "name": "E4",
                    "midi": 64,
                    "time": 52.967031500000424,
                    "velocity": 0.2677165354330709,
                    "duration": 0.08813150000000292
                },
                {
                    "name": "G4",
                    "midi": 67,
                    "time": 52.967031500000424,
                    "velocity": 0.31496062992125984,
                    "duration": 0.08813150000000292
                },
                {
                    "name": "C4",
                    "midi": 60,
                    "time": 53.05516300000043,
                    "velocity": 0.3937007874015748,
                    "duration": 0.08813150000000292
                },
                {
                    "name": "E4",
                    "midi": 64,
                    "time": 53.14329450000043,
                    "velocity": 0.2677165354330709,
                    "duration": 0.08813150000000292
                },
                {
                    "name": "G4",
                    "midi": 67,
                    "time": 53.14329450000043,
                    "velocity": 0.3464566929133858,
                    "duration": 0.08813150000000292
                },
                {
                    "name": "B3",
                    "midi": 59,
                    "time": 53.23142600000043,
                    "velocity": 0.4015748031496063,
                    "duration": 0.08813150000000292
                },
                {
                    "name": "E4",
                    "midi": 64,
                    "time": 53.319557500000435,
                    "velocity": 0.2755905511811024,
                    "duration": 0.08813150000000292
                },
                {
                    "name": "G4",
                    "midi": 67,
                    "time": 53.319557500000435,
                    "velocity": 0.3228346456692913,
                    "duration": 0.08813150000000292
                },
                {
                    "name": "B3",
                    "midi": 59,
                    "time": 53.40768900000044,
                    "velocity": 0.4015748031496063,
                    "duration": 0.08813150000000292
                },
                {
                    "name": "E4",
                    "midi": 64,
                    "time": 53.49582050000044,
                    "velocity": 0.2755905511811024,
                    "duration": 0.08813150000000292
                },
                {
                    "name": "G4",
                    "midi": 67,
                    "time": 53.49582050000044,
                    "velocity": 0.3543307086614173,
                    "duration": 0.08813150000000292
                },
                {
                    "name": "A#3",
                    "midi": 58,
                    "time": 53.583952000000444,
                    "velocity": 0.4094488188976378,
                    "duration": 0.08813150000000292
                },
                {
                    "name": "E4",
                    "midi": 64,
                    "time": 53.67208350000045,
                    "velocity": 0.2755905511811024,
                    "duration": 0.08813150000000292
                },
                {
                    "name": "G4",
                    "midi": 67,
                    "time": 53.67208350000045,
                    "velocity": 0.33070866141732286,
                    "duration": 0.08813150000000292
                },
                {
                    "name": "A#3",
                    "midi": 58,
                    "time": 53.76021500000045,
                    "velocity": 0.41732283464566927,
                    "duration": 0.08813150000000292
                },
                {
                    "name": "E4",
                    "midi": 64,
                    "time": 53.84834650000045,
                    "velocity": 0.28346456692913385,
                    "duration": 0.08813150000000292
                },
                {
                    "name": "G4",
                    "midi": 67,
                    "time": 53.84834650000045,
                    "velocity": 0.36220472440944884,
                    "duration": 0.08813150000000292
                },
                {
                    "name": "A3",
                    "midi": 57,
                    "time": 53.936478000000456,
                    "velocity": 0.41732283464566927,
                    "duration": 0.08813150000000292
                },
                {
                    "name": "E4",
                    "midi": 64,
                    "time": 54.02460950000046,
                    "velocity": 0.28346456692913385,
                    "duration": 0.08813150000000292
                },
                {
                    "name": "G4",
                    "midi": 67,
                    "time": 54.02460950000046,
                    "velocity": 0.33858267716535434,
                    "duration": 0.08813150000000292
                },
                {
                    "name": "A3",
                    "midi": 57,
                    "time": 54.11274100000046,
                    "velocity": 0.4251968503937008,
                    "duration": 0.08813150000000292
                },
                {
                    "name": "E4",
                    "midi": 64,
                    "time": 54.200872500000465,
                    "velocity": 0.29133858267716534,
                    "duration": 0.08813150000000292
                },
                {
                    "name": "G4",
                    "midi": 67,
                    "time": 54.200872500000465,
                    "velocity": 0.3700787401574803,
                    "duration": 0.08813150000000292
                },
                {
                    "name": "G#3",
                    "midi": 56,
                    "time": 54.28900400000047,
                    "velocity": 0.4330708661417323,
                    "duration": 0.08813150000000292
                },
                {
                    "name": "E4",
                    "midi": 64,
                    "time": 54.37713550000047,
                    "velocity": 0.29133858267716534,
                    "duration": 0.08813150000000292
                },
                {
                    "name": "F#4",
                    "midi": 66,
                    "time": 54.37713550000047,
                    "velocity": 0.3464566929133858,
                    "duration": 0.08813150000000292
                },
                {
                    "name": "G#3",
                    "midi": 56,
                    "time": 54.46526700000047,
                    "velocity": 0.4330708661417323,
                    "duration": 0.08813150000000292
                },
                {
                    "name": "E4",
                    "midi": 64,
                    "time": 54.553398500000476,
                    "velocity": 0.29133858267716534,
                    "duration": 0.08813150000000292
                },
                {
                    "name": "F#4",
                    "midi": 66,
                    "time": 54.553398500000476,
                    "velocity": 0.3779527559055118,
                    "duration": 0.08813150000000292
                },
                {
                    "name": "G3",
                    "midi": 55,
                    "time": 54.64153000000048,
                    "velocity": 0.4409448818897638,
                    "duration": 0.08813150000000292
                },
                {
                    "name": "E4",
                    "midi": 64,
                    "time": 54.72966150000048,
                    "velocity": 0.2992125984251969,
                    "duration": 0.08813150000000292
                },
                {
                    "name": "F#4",
                    "midi": 66,
                    "time": 54.72966150000048,
                    "velocity": 0.3543307086614173,
                    "duration": 0.08813150000000292
                },
                {
                    "name": "G3",
                    "midi": 55,
                    "time": 54.817793000000485,
                    "velocity": 0.4409448818897638,
                    "duration": 0.08813150000000292
                },
                {
                    "name": "E4",
                    "midi": 64,
                    "time": 54.90592450000049,
                    "velocity": 0.2992125984251969,
                    "duration": 0.08813150000000292
                },
                {
                    "name": "F#4",
                    "midi": 66,
                    "time": 54.90592450000049,
                    "velocity": 0.3937007874015748,
                    "duration": 0.08813150000000292
                },
                {
                    "name": "A3",
                    "midi": 57,
                    "time": 54.99405600000049,
                    "velocity": 0.49606299212598426,
                    "duration": 0.17626299999999873
                },
                {
                    "name": "D4",
                    "midi": 62,
                    "time": 56.40416000000049,
                    "velocity": 0.5118110236220472,
                    "duration": 0.08813150000000292
                },
                {
                    "name": "A#3",
                    "midi": 58,
                    "time": 56.49229150000049,
                    "velocity": 0.41732283464566927,
                    "duration": 0.08813150000000292
                },
                {
                    "name": "C#4",
                    "midi": 61,
                    "time": 56.58042300000049,
                    "velocity": 0.4881889763779528,
                    "duration": 0.08813150000000292
                },
                {
                    "name": "F#3",
                    "midi": 54,
                    "time": 56.668554500000496,
                    "velocity": 0.4330708661417323,
                    "duration": 0.08813150000000292
                },
                {
                    "name": "B3",
                    "midi": 59,
                    "time": 56.7566860000005,
                    "velocity": 0.5196850393700787,
                    "duration": 0.08813150000000292
                },
                {
                    "name": "F#3",
                    "midi": 54,
                    "time": 56.8448175000005,
                    "velocity": 0.3937007874015748,
                    "duration": 0.08813150000000292
                },
                {
                    "name": "A#3",
                    "midi": 58,
                    "time": 56.932949000000505,
                    "velocity": 0.4566929133858268,
                    "duration": 0.08813150000000292
                },
                {
                    "name": "C#3",
                    "midi": 49,
                    "time": 57.02108050000051,
                    "velocity": 0.3937007874015748,
                    "duration": 0.08813150000000292
                },
                {
                    "name": "G3",
                    "midi": 55,
                    "time": 57.10921200000051,
                    "velocity": 0.5826771653543307,
                    "duration": 0.08813150000000292
                },
                {
                    "name": "C#3",
                    "midi": 49,
                    "time": 57.197343500000514,
                    "velocity": 0.4251968503937008,
                    "duration": 0.08813150000000292
                },
                {
                    "name": "F#3",
                    "midi": 54,
                    "time": 57.28547500000052,
                    "velocity": 0.5196850393700787,
                    "duration": 0.08813150000000292
                },
                {
                    "name": "A#2",
                    "midi": 46,
                    "time": 57.37360650000052,
                    "velocity": 0.4330708661417323,
                    "duration": 0.08813150000000292
                },
                {
                    "name": "F3",
                    "midi": 53,
                    "time": 57.46173800000052,
                    "velocity": 0.5590551181102362,
                    "duration": 0.08813150000000292
                },
                {
                    "name": "E3",
                    "midi": 52,
                    "time": 57.549869500000526,
                    "velocity": 0.5039370078740157,
                    "duration": 0.08813150000000292
                },
                {
                    "name": "D#3",
                    "midi": 51,
                    "time": 57.63800100000053,
                    "velocity": 0.4645669291338583,
                    "duration": 0.08813150000000292
                },
                {
                    "name": "D3",
                    "midi": 50,
                    "time": 57.72613250000053,
                    "velocity": 0.44881889763779526,
                    "duration": 0.08813150000000292
                },
                {
                    "name": "C#3",
                    "midi": 49,
                    "time": 57.814264000000534,
                    "velocity": 0.4409448818897638,
                    "duration": 0.08813150000000292
                },
                {
                    "name": "C3",
                    "midi": 48,
                    "time": 57.90239550000054,
                    "velocity": 0.4015748031496063,
                    "duration": 0.08813150000000292
                },
                {
                    "name": "B2",
                    "midi": 47,
                    "time": 57.99052700000054,
                    "velocity": 0.3779527559055118,
                    "duration": 0.08813150000000292
                },
                {
                    "name": "A#2",
                    "midi": 46,
                    "time": 58.07865850000054,
                    "velocity": 0.3779527559055118,
                    "duration": 0.08813150000000292
                },
                {
                    "name": "A2",
                    "midi": 45,
                    "time": 58.166790000000546,
                    "velocity": 0.3779527559055118,
                    "duration": 0.08813150000000292
                },
                {
                    "name": "G#2",
                    "midi": 44,
                    "time": 58.25492150000055,
                    "velocity": 0.3464566929133858,
                    "duration": 0.08813150000000292
                },
                {
                    "name": "G2",
                    "midi": 43,
                    "time": 58.34305300000055,
                    "velocity": 0.33070866141732286,
                    "duration": 0.08813150000000292
                },
                {
                    "name": "F#2",
                    "midi": 42,
                    "time": 58.431184500000555,
                    "velocity": 0.33070866141732286,
                    "duration": 0.08813150000000292
                },
                {
                    "name": "F2",
                    "midi": 41,
                    "time": 58.51931600000056,
                    "velocity": 0.31496062992125984,
                    "duration": 0.05875433333333291
                },
                {
                    "name": "E2",
                    "midi": 40,
                    "time": 58.63682466666722,
                    "velocity": 0.28346456692913385,
                    "duration": 0.05875433333333291
                },
                {
                    "name": "D#2",
                    "midi": 39,
                    "time": 58.75433333333389,
                    "velocity": 0.25984251968503935,
                    "duration": 0.05875433333333291
                },
                {
                    "name": "D2",
                    "midi": 38,
                    "time": 58.871842000000555,
                    "velocity": 0.23622047244094488,
                    "duration": 0.05875433333333291
                },
                {
                    "name": "C#2",
                    "midi": 37,
                    "time": 58.98935066666722,
                    "velocity": 0.2047244094488189,
                    "duration": 0.05875433333333291
                },
                {
                    "name": "C2",
                    "midi": 36,
                    "time": 59.10685933333389,
                    "velocity": 0.1968503937007874,
                    "duration": 0.05875433333333291
                },
                {
                    "name": "B1",
                    "midi": 35,
                    "time": 59.22436800000055,
                    "velocity": 0.15748031496062992,
                    "duration": 0.7931835000000262
                },
                {
                    "name": "F#2",
                    "midi": 42,
                    "time": 59.22436800000055,
                    "velocity": 0.2125984251968504,
                    "duration": 0.08813150000000292
                },
                {
                    "name": "G2",
                    "midi": 43,
                    "time": 59.312499500000555,
                    "velocity": 0.15748031496062992,
                    "duration": 0.08813150000000292
                },
                {
                    "name": "F#2",
                    "midi": 42,
                    "time": 59.40063100000056,
                    "velocity": 0.1889763779527559,
                    "duration": 0.08813150000000292
                },
                {
                    "name": "G2",
                    "midi": 43,
                    "time": 59.48876250000056,
                    "velocity": 0.15748031496062992,
                    "duration": 0.08813150000000292
                },
                {
                    "name": "F#2",
                    "midi": 42,
                    "time": 59.576894000000564,
                    "velocity": 0.1732283464566929,
                    "duration": 0.08813150000000292
                },
                {
                    "name": "G2",
                    "midi": 43,
                    "time": 59.66502550000057,
                    "velocity": 0.14173228346456693,
                    "duration": 0.08813150000000292
                },
                {
                    "name": "F#2",
                    "midi": 42,
                    "time": 59.75315700000057,
                    "velocity": 0.15748031496062992,
                    "duration": 0.08813150000000292
                },
                {
                    "name": "G2",
                    "midi": 43,
                    "time": 59.84128850000057,
                    "velocity": 0.12598425196850394,
                    "duration": 0.08813150000000292
                },
                {
                    "name": "F#2",
                    "midi": 42,
                    "time": 59.929420000000576,
                    "velocity": 0.13385826771653545,
                    "duration": 0.08813150000000292
                },
                {
                    "name": "B1",
                    "midi": 35,
                    "time": 60.28194600000058,
                    "velocity": 0.15748031496062992,
                    "duration": 0.7931835000000262
                },
                {
                    "name": "F#2",
                    "midi": 42,
                    "time": 60.28194600000058,
                    "velocity": 0.2125984251968504,
                    "duration": 0.08813150000000292
                },
                {
                    "name": "G2",
                    "midi": 43,
                    "time": 60.37007750000058,
                    "velocity": 0.15748031496062992,
                    "duration": 0.08813150000000292
                },
                {
                    "name": "F#2",
                    "midi": 42,
                    "time": 60.458209000000586,
                    "velocity": 0.1889763779527559,
                    "duration": 0.08813150000000292
                },
                {
                    "name": "G2",
                    "midi": 43,
                    "time": 60.54634050000059,
                    "velocity": 0.15748031496062992,
                    "duration": 0.08813150000000292
                },
                {
                    "name": "F#2",
                    "midi": 42,
                    "time": 60.63447200000059,
                    "velocity": 0.1732283464566929,
                    "duration": 0.08813150000000292
                },
                {
                    "name": "G2",
                    "midi": 43,
                    "time": 60.722603500000595,
                    "velocity": 0.14173228346456693,
                    "duration": 0.08813150000000292
                },
                {
                    "name": "F#2",
                    "midi": 42,
                    "time": 60.8107350000006,
                    "velocity": 0.15748031496062992,
                    "duration": 0.08813150000000292
                },
                {
                    "name": "G2",
                    "midi": 43,
                    "time": 60.8988665000006,
                    "velocity": 0.12598425196850394,
                    "duration": 0.08813150000000292
                },
                {
                    "name": "F#2",
                    "midi": 42,
                    "time": 60.986998000000604,
                    "velocity": 0.13385826771653545,
                    "duration": 0.08813150000000292
                },
                {
                    "name": "B1",
                    "midi": 35,
                    "time": 61.33952400000061,
                    "velocity": 0.15748031496062992,
                    "duration": 0.7931835000000262
                },
                {
                    "name": "F#2",
                    "midi": 42,
                    "time": 61.33952400000061,
                    "velocity": 0.2125984251968504,
                    "duration": 0.08813150000000292
                },
                {
                    "name": "G2",
                    "midi": 43,
                    "time": 61.42765550000061,
                    "velocity": 0.16535433070866143,
                    "duration": 0.08813150000000292
                },
                {
                    "name": "F#2",
                    "midi": 42,
                    "time": 61.515787000000614,
                    "velocity": 0.2125984251968504,
                    "duration": 0.08813150000000292
                },
                {
                    "name": "G2",
                    "midi": 43,
                    "time": 61.60391850000062,
                    "velocity": 0.18110236220472442,
                    "duration": 0.08813150000000292
                },
                {
                    "name": "F#2",
                    "midi": 42,
                    "time": 61.69205000000062,
                    "velocity": 0.2125984251968504,
                    "duration": 0.08813150000000292
                },
                {
                    "name": "G2",
                    "midi": 43,
                    "time": 61.78018150000062,
                    "velocity": 0.18110236220472442,
                    "duration": 0.08813150000000292
                },
                {
                    "name": "F#2",
                    "midi": 42,
                    "time": 61.868313000000626,
                    "velocity": 0.2125984251968504,
                    "duration": 0.08813150000000292
                },
                {
                    "name": "G2",
                    "midi": 43,
                    "time": 61.95644450000063,
                    "velocity": 0.18110236220472442,
                    "duration": 0.08813150000000292
                },
                {
                    "name": "F#2",
                    "midi": 42,
                    "time": 62.04457600000063,
                    "velocity": 0.2047244094488189,
                    "duration": 0.08813150000000292
                },
                {
                    "name": "B1",
                    "midi": 35,
                    "time": 62.397102000000636,
                    "velocity": 0.15748031496062992,
                    "duration": 0.7931835000000262
                },
                {
                    "name": "F#2",
                    "midi": 42,
                    "time": 62.397102000000636,
                    "velocity": 0.2125984251968504,
                    "duration": 0.08813150000000292
                },
                {
                    "name": "G2",
                    "midi": 43,
                    "time": 62.48523350000064,
                    "velocity": 0.16535433070866143,
                    "duration": 0.08813150000000292
                },
                {
                    "name": "F#2",
                    "midi": 42,
                    "time": 62.57336500000064,
                    "velocity": 0.2125984251968504,
                    "duration": 0.08813150000000292
                },
                {
                    "name": "G2",
                    "midi": 43,
                    "time": 62.661496500000645,
                    "velocity": 0.18110236220472442,
                    "duration": 0.08813150000000292
                },
                {
                    "name": "F#2",
                    "midi": 42,
                    "time": 62.74962800000065,
                    "velocity": 0.2125984251968504,
                    "duration": 0.08813150000000292
                },
                {
                    "name": "G2",
                    "midi": 43,
                    "time": 62.83775950000065,
                    "velocity": 0.18110236220472442,
                    "duration": 0.08813150000000292
                },
                {
                    "name": "F#2",
                    "midi": 42,
                    "time": 62.925891000000654,
                    "velocity": 0.2125984251968504,
                    "duration": 0.08813150000000292
                },
                {
                    "name": "G2",
                    "midi": 43,
                    "time": 63.01402250000066,
                    "velocity": 0.18110236220472442,
                    "duration": 0.08813150000000292
                },
                {
                    "name": "F#2",
                    "midi": 42,
                    "time": 63.10215400000066,
                    "velocity": 0.2047244094488189,
                    "duration": 0.08813150000000292
                },
                {
                    "name": "G2",
                    "midi": 43,
                    "time": 63.454680000000664,
                    "velocity": 0.3464566929133858,
                    "duration": 0.08813150000000292
                },
                {
                    "name": "D3",
                    "midi": 50,
                    "time": 63.54281150000067,
                    "velocity": 0.28346456692913385,
                    "duration": 0.08813150000000292
                },
                {
                    "name": "G2",
                    "midi": 43,
                    "time": 63.63094300000067,
                    "velocity": 0.3464566929133858,
                    "duration": 0.08813150000000292
                },
                {
                    "name": "D3",
                    "midi": 50,
                    "time": 63.71907450000067,
                    "velocity": 0.2992125984251969,
                    "duration": 0.08813150000000292
                },
                {
                    "name": "G2",
                    "midi": 43,
                    "time": 63.807206000000676,
                    "velocity": 0.3464566929133858,
                    "duration": 0.08813150000000292
                },
                {
                    "name": "D3",
                    "midi": 50,
                    "time": 63.89533750000068,
                    "velocity": 0.2992125984251969,
                    "duration": 0.08813150000000292
                },
                {
                    "name": "G2",
                    "midi": 43,
                    "time": 63.98346900000068,
                    "velocity": 0.36220472440944884,
                    "duration": 0.08813150000000292
                },
                {
                    "name": "D3",
                    "midi": 50,
                    "time": 64.07160050000068,
                    "velocity": 0.31496062992125984,
                    "duration": 0.08813150000000292
                },
                {
                    "name": "G2",
                    "midi": 43,
                    "time": 64.15973200000069,
                    "velocity": 0.33070866141732286,
                    "duration": 0.08813150000000292
                },
                {
                    "name": "C2",
                    "midi": 36,
                    "time": 64.51225800000068,
                    "velocity": 0.3464566929133858,
                    "duration": 0.08813150000000292
                },
                {
                    "name": "G2",
                    "midi": 43,
                    "time": 64.60038950000069,
                    "velocity": 0.28346456692913385,
                    "duration": 0.08813150000000292
                },
                {
                    "name": "C2",
                    "midi": 36,
                    "time": 64.68852100000069,
                    "velocity": 0.3464566929133858,
                    "duration": 0.08813150000000292
                },
                {
                    "name": "G2",
                    "midi": 43,
                    "time": 64.7766525000007,
                    "velocity": 0.2992125984251969,
                    "duration": 0.08813150000000292
                },
                {
                    "name": "C2",
                    "midi": 36,
                    "time": 64.8647840000007,
                    "velocity": 0.3464566929133858,
                    "duration": 0.08813150000000292
                },
                {
                    "name": "G2",
                    "midi": 43,
                    "time": 64.9529155000007,
                    "velocity": 0.2992125984251969,
                    "duration": 0.08813150000000292
                },
                {
                    "name": "C2",
                    "midi": 36,
                    "time": 65.0410470000007,
                    "velocity": 0.36220472440944884,
                    "duration": 0.08813150000000292
                },
                {
                    "name": "G2",
                    "midi": 43,
                    "time": 65.1291785000007,
                    "velocity": 0.31496062992125984,
                    "duration": 0.08813150000000292
                },
                {
                    "name": "C2",
                    "midi": 36,
                    "time": 65.21731000000071,
                    "velocity": 0.33070866141732286,
                    "duration": 0.08813150000000292
                },
                {
                    "name": "E2",
                    "midi": 40,
                    "time": 65.74609900000071,
                    "velocity": 0.14173228346456693,
                    "duration": 0.08813150000000292
                },
                {
                    "name": "F#2",
                    "midi": 42,
                    "time": 65.74609900000071,
                    "velocity": 0.1732283464566929,
                    "duration": 0.08813150000000292
                },
                {
                    "name": "D#2",
                    "midi": 39,
                    "time": 65.92236200000072,
                    "velocity": 0.1889763779527559,
                    "duration": 0.08813150000000292
                },
                {
                    "name": "F#2",
                    "midi": 42,
                    "time": 65.92236200000072,
                    "velocity": 0.1889763779527559,
                    "duration": 0.08813150000000292
                },
                {
                    "name": "D2",
                    "midi": 38,
                    "time": 66.09862500000072,
                    "velocity": 0.1732283464566929,
                    "duration": 0.08813150000000292
                },
                {
                    "name": "F#2",
                    "midi": 42,
                    "time": 66.09862500000072,
                    "velocity": 0.2047244094488189,
                    "duration": 0.08813150000000292
                },
                {
                    "name": "C#2",
                    "midi": 37,
                    "time": 66.27488800000073,
                    "velocity": 0.18110236220472442,
                    "duration": 0.08813150000000292
                },
                {
                    "name": "F#2",
                    "midi": 42,
                    "time": 66.27488800000073,
                    "velocity": 0.2204724409448819,
                    "duration": 0.08813150000000292
                },
                {
                    "name": "C2",
                    "midi": 36,
                    "time": 66.45115100000073,
                    "velocity": 0.1968503937007874,
                    "duration": 0.08813150000000292
                },
                {
                    "name": "F#2",
                    "midi": 42,
                    "time": 66.45115100000073,
                    "velocity": 0.23622047244094488,
                    "duration": 0.08813150000000292
                },
                {
                    "name": "B1",
                    "midi": 35,
                    "time": 66.62741400000074,
                    "velocity": 0.2283464566929134,
                    "duration": 0.08813150000000292
                },
                {
                    "name": "F#2",
                    "midi": 42,
                    "time": 66.71554550000074,
                    "velocity": 0.14960629921259844,
                    "duration": 0.08813150000000292
                },
                {
                    "name": "B1",
                    "midi": 35,
                    "time": 66.80367700000075,
                    "velocity": 0.14960629921259844,
                    "duration": 0.08813150000000292
                },
                {
                    "name": "F#2",
                    "midi": 42,
                    "time": 66.89180850000075,
                    "velocity": 0.14960629921259844,
                    "duration": 0.08813150000000292
                },
                {
                    "name": "B1",
                    "midi": 35,
                    "time": 66.97994000000075,
                    "velocity": 0.2125984251968504,
                    "duration": 0.08813150000000292
                },
                {
                    "name": "F#2",
                    "midi": 42,
                    "time": 67.06807150000076,
                    "velocity": 0.15748031496062992,
                    "duration": 0.08813150000000292
                },
                {
                    "name": "B1",
                    "midi": 35,
                    "time": 67.15620300000076,
                    "velocity": 0.1732283464566929,
                    "duration": 0.08813150000000292
                },
                {
                    "name": "F#2",
                    "midi": 42,
                    "time": 67.24433450000076,
                    "velocity": 0.15748031496062992,
                    "duration": 0.08813150000000292
                },
                {
                    "name": "B1",
                    "midi": 35,
                    "time": 67.33246600000076,
                    "velocity": 0.2125984251968504,
                    "duration": 0.08813150000000292
                },
                {
                    "name": "F#2",
                    "midi": 42,
                    "time": 67.42059750000077,
                    "velocity": 0.15748031496062992,
                    "duration": 0.08813150000000292
                },
                {
                    "name": "B1",
                    "midi": 35,
                    "time": 67.50872900000077,
                    "velocity": 0.1732283464566929,
                    "duration": 0.08813150000000292
                },
                {
                    "name": "F#2",
                    "midi": 42,
                    "time": 67.59686050000077,
                    "velocity": 0.15748031496062992,
                    "duration": 0.08813150000000292
                },
                {
                    "name": "E2",
                    "midi": 40,
                    "time": 67.68499200000078,
                    "velocity": 0.2677165354330709,
                    "duration": 0.08813150000000292
                },
                {
                    "name": "B2",
                    "midi": 47,
                    "time": 67.77312350000078,
                    "velocity": 0.2283464566929134,
                    "duration": 0.08813150000000292
                },
                {
                    "name": "E2",
                    "midi": 40,
                    "time": 67.86125500000078,
                    "velocity": 0.2755905511811024,
                    "duration": 0.08813150000000292
                },
                {
                    "name": "B2",
                    "midi": 47,
                    "time": 67.94938650000078,
                    "velocity": 0.2440944881889764,
                    "duration": 0.08813150000000292
                },
                {
                    "name": "B1",
                    "midi": 35,
                    "time": 68.74257000000078,
                    "velocity": 0.28346456692913385,
                    "duration": 0.08813150000000292
                },
                {
                    "name": "F#2",
                    "midi": 42,
                    "time": 68.83070150000079,
                    "velocity": 0.1732283464566929,
                    "duration": 0.08813150000000292
                },
                {
                    "name": "B1",
                    "midi": 35,
                    "time": 68.91883300000079,
                    "velocity": 0.1732283464566929,
                    "duration": 0.08813150000000292
                },
                {
                    "name": "F#2",
                    "midi": 42,
                    "time": 69.00696450000079,
                    "velocity": 0.1732283464566929,
                    "duration": 0.08813150000000292
                },
                {
                    "name": "B1",
                    "midi": 35,
                    "time": 69.0950960000008,
                    "velocity": 0.25196850393700787,
                    "duration": 0.08813150000000292
                },
                {
                    "name": "F#2",
                    "midi": 42,
                    "time": 69.1832275000008,
                    "velocity": 0.1968503937007874,
                    "duration": 0.08813150000000292
                },
                {
                    "name": "B1",
                    "midi": 35,
                    "time": 69.2713590000008,
                    "velocity": 0.1968503937007874,
                    "duration": 0.08813150000000292
                },
                {
                    "name": "F#2",
                    "midi": 42,
                    "time": 69.3594905000008,
                    "velocity": 0.1968503937007874,
                    "duration": 0.08813150000000292
                },
                {
                    "name": "B1",
                    "midi": 35,
                    "time": 69.4476220000008,
                    "velocity": 0.25984251968503935,
                    "duration": 0.08813150000000292
                },
                {
                    "name": "F#2",
                    "midi": 42,
                    "time": 69.53575350000081,
                    "velocity": 0.15748031496062992,
                    "duration": 0.08813150000000292
                },
                {
                    "name": "B1",
                    "midi": 35,
                    "time": 69.62388500000081,
                    "velocity": 0.1732283464566929,
                    "duration": 0.08813150000000292
                },
                {
                    "name": "F#2",
                    "midi": 42,
                    "time": 69.71201650000081,
                    "velocity": 0.15748031496062992,
                    "duration": 0.08813150000000292
                },
                {
                    "name": "E2",
                    "midi": 40,
                    "time": 69.80014800000082,
                    "velocity": 0.2677165354330709,
                    "duration": 0.08813150000000292
                },
                {
                    "name": "B2",
                    "midi": 47,
                    "time": 69.88827950000082,
                    "velocity": 0.2283464566929134,
                    "duration": 0.08813150000000292
                },
                {
                    "name": "E2",
                    "midi": 40,
                    "time": 69.97641100000082,
                    "velocity": 0.2755905511811024,
                    "duration": 0.08813150000000292
                },
                {
                    "name": "B2",
                    "midi": 47,
                    "time": 70.06454250000083,
                    "velocity": 0.2440944881889764,
                    "duration": 0.08813150000000292
                },
                {
                    "name": "B1",
                    "midi": 35,
                    "time": 70.85772600000082,
                    "velocity": 0.28346456692913385,
                    "duration": 0.08813150000000292
                },
                {
                    "name": "F#2",
                    "midi": 42,
                    "time": 70.94585750000083,
                    "velocity": 0.1732283464566929,
                    "duration": 0.08813150000000292
                },
                {
                    "name": "B1",
                    "midi": 35,
                    "time": 71.03398900000083,
                    "velocity": 0.1732283464566929,
                    "duration": 0.08813150000000292
                },
                {
                    "name": "F#2",
                    "midi": 42,
                    "time": 71.12212050000083,
                    "velocity": 0.1732283464566929,
                    "duration": 0.08813150000000292
                },
                {
                    "name": "B1",
                    "midi": 35,
                    "time": 71.21025200000084,
                    "velocity": 0.25196850393700787,
                    "duration": 0.08813150000000292
                },
                {
                    "name": "F#2",
                    "midi": 42,
                    "time": 71.29838350000084,
                    "velocity": 0.1968503937007874,
                    "duration": 0.08813150000000292
                },
                {
                    "name": "B1",
                    "midi": 35,
                    "time": 71.38651500000084,
                    "velocity": 0.1968503937007874,
                    "duration": 0.08813150000000292
                },
                {
                    "name": "F#2",
                    "midi": 42,
                    "time": 71.47464650000084,
                    "velocity": 0.1968503937007874,
                    "duration": 0.08813150000000292
                },
                {
                    "name": "B1",
                    "midi": 35,
                    "time": 71.56277800000085,
                    "velocity": 0.25984251968503935,
                    "duration": 0.08813150000000292
                },
                {
                    "name": "F#2",
                    "midi": 42,
                    "time": 71.65090950000085,
                    "velocity": 0.15748031496062992,
                    "duration": 0.08813150000000292
                },
                {
                    "name": "B1",
                    "midi": 35,
                    "time": 71.73904100000085,
                    "velocity": 0.1732283464566929,
                    "duration": 0.08813150000000292
                },
                {
                    "name": "F#2",
                    "midi": 42,
                    "time": 71.82717250000086,
                    "velocity": 0.15748031496062992,
                    "duration": 0.08813150000000292
                },
                {
                    "name": "E2",
                    "midi": 40,
                    "time": 71.91530400000086,
                    "velocity": 0.2677165354330709,
                    "duration": 0.08813150000000292
                },
                {
                    "name": "B2",
                    "midi": 47,
                    "time": 72.00343550000086,
                    "velocity": 0.2283464566929134,
                    "duration": 0.08813150000000292
                },
                {
                    "name": "E2",
                    "midi": 40,
                    "time": 72.09156700000086,
                    "velocity": 0.2755905511811024,
                    "duration": 0.08813150000000292
                },
                {
                    "name": "B2",
                    "midi": 47,
                    "time": 72.17969850000087,
                    "velocity": 0.2440944881889764,
                    "duration": 0.08813150000000292
                },
                {
                    "name": "B2",
                    "midi": 47,
                    "time": 72.62035600000087,
                    "velocity": 0.2677165354330709,
                    "duration": 0.08813150000000292
                },
                {
                    "name": "F#3",
                    "midi": 54,
                    "time": 72.70848750000087,
                    "velocity": 0.2283464566929134,
                    "duration": 0.08813150000000292
                },
                {
                    "name": "B2",
                    "midi": 47,
                    "time": 72.79661900000087,
                    "velocity": 0.2755905511811024,
                    "duration": 0.08813150000000292
                },
                {
                    "name": "F#3",
                    "midi": 54,
                    "time": 72.88475050000088,
                    "velocity": 0.2440944881889764,
                    "duration": 0.08813150000000292
                },
                {
                    "name": "E3",
                    "midi": 52,
                    "time": 73.32540800000088,
                    "velocity": 0.2677165354330709,
                    "duration": 0.08813150000000292
                },
                {
                    "name": "B3",
                    "midi": 59,
                    "time": 73.41353950000088,
                    "velocity": 0.2283464566929134,
                    "duration": 0.08813150000000292
                },
                {
                    "name": "E3",
                    "midi": 52,
                    "time": 73.50167100000088,
                    "velocity": 0.2755905511811024,
                    "duration": 0.08813150000000292
                },
                {
                    "name": "B3",
                    "midi": 59,
                    "time": 73.58980250000089,
                    "velocity": 0.2440944881889764,
                    "duration": 0.08813150000000292
                },
                {
                    "name": "B3",
                    "midi": 59,
                    "time": 74.03046000000089,
                    "velocity": 0.2677165354330709,
                    "duration": 0.08813150000000292
                },
                {
                    "name": "F#4",
                    "midi": 66,
                    "time": 74.11859150000089,
                    "velocity": 0.2283464566929134,
                    "duration": 0.08813150000000292
                },
                {
                    "name": "B3",
                    "midi": 59,
                    "time": 74.20672300000089,
                    "velocity": 0.2755905511811024,
                    "duration": 0.08813150000000292
                },
                {
                    "name": "F#4",
                    "midi": 66,
                    "time": 74.2948545000009,
                    "velocity": 0.2440944881889764,
                    "duration": 0.08813150000000292
                },
                {
                    "name": "E4",
                    "midi": 64,
                    "time": 74.7355120000009,
                    "velocity": 0.2677165354330709,
                    "duration": 0.08813150000000292
                },
                {
                    "name": "B4",
                    "midi": 71,
                    "time": 74.8236435000009,
                    "velocity": 0.2283464566929134,
                    "duration": 0.08813150000000292
                },
                {
                    "name": "E4",
                    "midi": 64,
                    "time": 74.9117750000009,
                    "velocity": 0.2755905511811024,
                    "duration": 0.08813150000000292
                },
                {
                    "name": "B4",
                    "midi": 71,
                    "time": 74.9999065000009,
                    "velocity": 0.2440944881889764,
                    "duration": 0.08813150000000292
                },
                {
                    "name": "B4",
                    "midi": 71,
                    "time": 75.4405640000009,
                    "velocity": 0.2677165354330709,
                    "duration": 0.08813150000000292
                },
                {
                    "name": "F#5",
                    "midi": 78,
                    "time": 75.52869550000091,
                    "velocity": 0.2283464566929134,
                    "duration": 0.08813150000000292
                },
                {
                    "name": "B4",
                    "midi": 71,
                    "time": 75.61682700000091,
                    "velocity": 0.2755905511811024,
                    "duration": 0.08813150000000292
                },
                {
                    "name": "F#5",
                    "midi": 78,
                    "time": 75.70495850000091,
                    "velocity": 0.2440944881889764,
                    "duration": 0.08813150000000292
                },
                {
                    "name": "B2",
                    "midi": 47,
                    "time": 80.61828962500091,
                    "velocity": 0.2204724409448819,
                    "duration": 0.19829587499998524
                },
                {
                    "name": "G3",
                    "midi": 55,
                    "time": 80.6403225000009,
                    "velocity": 0.25196850393700787,
                    "duration": 0.17626299999999162
                },
                {
                    "name": "B3",
                    "midi": 59,
                    "time": 80.6623553750009,
                    "velocity": 0.29133858267716534,
                    "duration": 0.154230124999998
                },
                {
                    "name": "F#3",
                    "midi": 54,
                    "time": 82.1385580000009,
                    "velocity": 0.2204724409448819,
                    "duration": 0.08813150000000292
                },
                {
                    "name": "B2",
                    "midi": 47,
                    "time": 82.1385580000009,
                    "velocity": 0.18110236220472442,
                    "duration": 0.08813150000000292
                },
                {
                    "name": "F#4",
                    "midi": 66,
                    "time": 82.4910840000009,
                    "velocity": 0.1889763779527559,
                    "duration": 0.08813150000000292
                },
                {
                    "name": "B3",
                    "midi": 59,
                    "time": 82.4910840000009,
                    "velocity": 0.15748031496062992,
                    "duration": 0.08813150000000292
                },
                {
                    "name": "F#5",
                    "midi": 78,
                    "time": 82.8436100000009,
                    "velocity": 0.2204724409448819,
                    "duration": 0.08813150000000292
                },
                {
                    "name": "B4",
                    "midi": 71,
                    "time": 82.8436100000009,
                    "velocity": 0.18110236220472442,
                    "duration": 0.08813150000000292
                }
            ],
            "controlChanges": {},
            "id": 2,
            "name": "Piano left",
            "instrumentNumber": 0,
            "instrument": "acoustic grand piano",
            "instrumentFamily": "piano",
            "channelNumber": 0,
            "isPercussion": false
        },
        {
            "startTime": 0,
            "duration": 0,
            "length": 0,
            "notes": [],
            "controlChanges": {
                "64": [
                    {
                        "number": 64,
                        "time": 7.480895491666668,
                        "value": 1
                    },
                    {
                        "number": 64,
                        "time": 7.7680572958333345,
                        "value": 0
                    },
                    {
                        "number": 64,
                        "time": 7.812857475000001,
                        "value": 1
                    },
                    {
                        "number": 64,
                        "time": 8.336505470833334,
                        "value": 0
                    },
                    {
                        "number": 64,
                        "time": 15.941519491666668,
                        "value": 1
                    },
                    {
                        "number": 64,
                        "time": 16.228681295833333,
                        "value": 0
                    },
                    {
                        "number": 64,
                        "time": 16.273481475,
                        "value": 1
                    },
                    {
                        "number": 64,
                        "time": 16.797129470833333,
                        "value": 0
                    },
                    {
                        "number": 64,
                        "time": 22.632903629166666,
                        "value": 1
                    },
                    {
                        "number": 64,
                        "time": 23.0485905375,
                        "value": 0
                    },
                    {
                        "number": 64,
                        "time": 23.657432316666668,
                        "value": 1
                    },
                    {
                        "number": 64,
                        "time": 24.093683241666668,
                        "value": 0
                    },
                    {
                        "number": 64,
                        "time": 24.715010316666667,
                        "value": 1
                    },
                    {
                        "number": 64,
                        "time": 25.12629065,
                        "value": 0
                    },
                    {
                        "number": 64,
                        "time": 26.44238771666667,
                        "value": 0
                    },
                    {
                        "number": 64,
                        "time": 26.4901256125,
                        "value": 1
                    },
                    {
                        "number": 64,
                        "time": 26.802258008333336,
                        "value": 0
                    },
                    {
                        "number": 64,
                        "time": 26.842651612500003,
                        "value": 1
                    },
                    {
                        "number": 64,
                        "time": 27.156987295833336,
                        "value": 0
                    },
                    {
                        "number": 64,
                        "time": 27.195177612500004,
                        "value": 1
                    },
                    {
                        "number": 64,
                        "time": 27.499965716666672,
                        "value": 0
                    },
                    {
                        "number": 64,
                        "time": 27.547703612500005,
                        "value": 1
                    },
                    {
                        "number": 64,
                        "time": 27.85983600833334,
                        "value": 0
                    },
                    {
                        "number": 64,
                        "time": 27.900229612500006,
                        "value": 1
                    },
                    {
                        "number": 64,
                        "time": 28.21456529583334,
                        "value": 0
                    },
                    {
                        "number": 64,
                        "time": 28.252755612500007,
                        "value": 1
                    },
                    {
                        "number": 64,
                        "time": 28.55754371666667,
                        "value": 0
                    },
                    {
                        "number": 64,
                        "time": 28.605281612500004,
                        "value": 1
                    },
                    {
                        "number": 64,
                        "time": 28.91741400833334,
                        "value": 0
                    },
                    {
                        "number": 64,
                        "time": 28.957807612500005,
                        "value": 1
                    },
                    {
                        "number": 64,
                        "time": 29.272143295833338,
                        "value": 0
                    },
                    {
                        "number": 64,
                        "time": 29.310333612500006,
                        "value": 1
                    },
                    {
                        "number": 64,
                        "time": 29.61512171666667,
                        "value": 0
                    },
                    {
                        "number": 64,
                        "time": 29.662859612500004,
                        "value": 1
                    },
                    {
                        "number": 64,
                        "time": 30.67269971666667,
                        "value": 0
                    },
                    {
                        "number": 64,
                        "time": 30.720437612500003,
                        "value": 1
                    },
                    {
                        "number": 64,
                        "time": 31.733215433333335,
                        "value": 0
                    },
                    {
                        "number": 64,
                        "time": 31.8154715,
                        "value": 1
                    },
                    {
                        "number": 64,
                        "time": 32.087944720833335,
                        "value": 0
                    },
                    {
                        "number": 64,
                        "time": 41.32339149166667,
                        "value": 1
                    },
                    {
                        "number": 64,
                        "time": 42.126857,
                        "value": 0
                    },
                    {
                        "number": 64,
                        "time": 48.01477562916667,
                        "value": 1
                    },
                    {
                        "number": 64,
                        "time": 48.430462537500006,
                        "value": 0
                    },
                    {
                        "number": 64,
                        "time": 49.03930431666667,
                        "value": 1
                    },
                    {
                        "number": 64,
                        "time": 49.475555241666676,
                        "value": 0
                    },
                    {
                        "number": 64,
                        "time": 50.09688231666668,
                        "value": 1
                    },
                    {
                        "number": 64,
                        "time": 50.50816265000001,
                        "value": 0
                    },
                    {
                        "number": 64,
                        "time": 51.824259716666674,
                        "value": 0
                    },
                    {
                        "number": 64,
                        "time": 51.87199761250001,
                        "value": 1
                    },
                    {
                        "number": 64,
                        "time": 52.18413000833334,
                        "value": 0
                    },
                    {
                        "number": 64,
                        "time": 52.22452361250001,
                        "value": 1
                    },
                    {
                        "number": 64,
                        "time": 52.53885929583334,
                        "value": 0
                    },
                    {
                        "number": 64,
                        "time": 52.577049612500005,
                        "value": 1
                    },
                    {
                        "number": 64,
                        "time": 52.88183771666667,
                        "value": 0
                    },
                    {
                        "number": 64,
                        "time": 52.92957561250001,
                        "value": 1
                    },
                    {
                        "number": 64,
                        "time": 53.24170800833334,
                        "value": 0
                    },
                    {
                        "number": 64,
                        "time": 53.28210161250001,
                        "value": 1
                    },
                    {
                        "number": 64,
                        "time": 53.59643729583334,
                        "value": 0
                    },
                    {
                        "number": 64,
                        "time": 53.634627612500005,
                        "value": 1
                    },
                    {
                        "number": 64,
                        "time": 53.93941571666667,
                        "value": 0
                    },
                    {
                        "number": 64,
                        "time": 53.98715361250001,
                        "value": 1
                    },
                    {
                        "number": 64,
                        "time": 54.29928600833334,
                        "value": 0
                    },
                    {
                        "number": 64,
                        "time": 54.33967961250001,
                        "value": 1
                    },
                    {
                        "number": 64,
                        "time": 54.65401529583334,
                        "value": 0
                    },
                    {
                        "number": 64,
                        "time": 54.692205612500004,
                        "value": 1
                    },
                    {
                        "number": 64,
                        "time": 54.99699371666667,
                        "value": 0
                    },
                    {
                        "number": 64,
                        "time": 55.04473161250001,
                        "value": 1
                    },
                    {
                        "number": 64,
                        "time": 56.05457171666667,
                        "value": 0
                    },
                    {
                        "number": 64,
                        "time": 56.10230961250001,
                        "value": 1
                    },
                    {
                        "number": 64,
                        "time": 57.11508743333334,
                        "value": 0
                    },
                    {
                        "number": 64,
                        "time": 57.19734350000001,
                        "value": 1
                    },
                    {
                        "number": 64,
                        "time": 57.46981672083334,
                        "value": 0
                    },
                    {
                        "number": 64,
                        "time": 66.70526349166667,
                        "value": 1
                    },
                    {
                        "number": 64,
                        "time": 67.689398575,
                        "value": 0
                    },
                    {
                        "number": 64,
                        "time": 78.01767594583333,
                        "value": 1
                    },
                    {
                        "number": 64,
                        "time": 79.7435844875,
                        "value": 0
                    },
                    {
                        "number": 64,
                        "time": 82.18556146666667,
                        "value": 1
                    },
                    {
                        "number": 64,
                        "time": 83.20641800833333,
                        "value": 0
                    }
                ]
            },
            "id": 3,
            "name": "Pedale",
            "instrumentNumber": 0,
            "instrument": "acoustic grand piano",
            "instrumentFamily": "piano",
            "channelNumber": 0,
            "isPercussion": false
        },
        {
            "startTime": 0,
            "duration": 0,
            "length": 0,
            "notes": [],
            "controlChanges": {
                "64": [
                    {
                        "number": 64,
                        "time": 31.73027771666667,
                        "value": 0
                    },
                    {
                        "number": 64,
                        "time": 31.778015612500003,
                        "value": 1
                    }
                ]
            },
            "id": 4,
            "name": "Grieg: Lyric Pieces -  Brooklet"
        },
        {
            "startTime": 0,
            "duration": 0,
            "length": 0,
            "notes": [],
            "controlChanges": {},
            "id": 5,
            "name": "Copyright 짤 2010 by Bernd Krueger"
        },
        {
            "startTime": 0,
            "duration": 0,
            "length": 0,
            "notes": [],
            "controlChanges": {},
            "id": 6,
            "name": "http://www.piano-midi.de/"
        },
        {
            "startTime": 0,
            "duration": 0,
            "length": 0,
            "notes": [],
            "controlChanges": {},
            "id": 7,
            "name": "Edition:  2012-10-10"
        },
        {
            "startTime": 0,
            "duration": 0,
            "length": 0,
            "notes": [],
            "controlChanges": {},
            "id": 8,
            "name": "Spur 8"
        },
        {
            "startTime": 0,
            "duration": 0,
            "length": 0,
            "notes": [],
            "controlChanges": {},
            "id": 9,
            "name": "Spur 9"
        },
        {
            "startTime": 0,
            "duration": 0,
            "length": 0,
            "notes": [],
            "controlChanges": {},
            "id": 10,
            "name": "Spur 10"
        },
        {
            "startTime": 0,
            "duration": 0,
            "length": 0,
            "notes": [],
            "controlChanges": {},
            "id": 11,
            "name": "Spur 11"
        },
        {
            "startTime": 0,
            "duration": 0,
            "length": 0,
            "notes": [],
            "controlChanges": {},
            "id": 12,
            "name": "Spur 12"
        },
        {
            "startTime": 0,
            "duration": 0,
            "length": 0,
            "notes": [],
            "controlChanges": {},
            "id": 13,
            "name": "Spur 13"
        },
        {
            "startTime": 0,
            "duration": 0,
            "length": 0,
            "notes": [],
            "controlChanges": {},
            "id": 14,
            "name": "Spur 14"
        },
        {
            "startTime": 0,
            "duration": 0,
            "length": 0,
            "notes": [],
            "controlChanges": {},
            "id": 15,
            "name": "Spur 15"
        },
        {
            "startTime": 0,
            "duration": 0,
            "length": 0,
            "notes": [],
            "controlChanges": {},
            "id": 16,
            "name": "Spur 16"
        }
    ]
}