{
    "header": {
        "PPQ": 480,
        "timeSignature": [
            2,
            4
        ],
        "bpm": 100,
        "name": "Norwegischer Tanz"
    },
    "startTime": 0,
    "duration": 44.39999999999992,
    "tracks": [
        {
            "startTime": 0,
            "duration": 0,
            "length": 0,
            "notes": [],
            "controlChanges": {},
            "id": 0,
            "name": "Norwegischer Tanz"
        },
        {
            "startTime": 1.125,
            "duration": 44.39999999999988,
            "length": 248,
            "notes": [
                {
                    "name": "D#6",
                    "midi": 87,
                    "time": 1.125,
                    "velocity": 0.5511811023622047,
                    "duration": 0.07499999999999996
                },
                {
                    "name": "D6",
                    "midi": 86,
                    "time": 1.2,
                    "velocity": 0.6062992125984252,
                    "duration": 0.30000000000000004
                },
                {
                    "name": "D6",
                    "midi": 86,
                    "time": 1.5,
                    "velocity": 0.5511811023622047,
                    "duration": 0.2999999999999998
                },
                {
                    "name": "A#5",
                    "midi": 82,
                    "time": 1.5,
                    "velocity": 0.4566929133858268,
                    "duration": 0.1499999999999999
                },
                {
                    "name": "G5",
                    "midi": 79,
                    "time": 1.65,
                    "velocity": 0.5511811023622047,
                    "duration": 0.1499999999999999
                },
                {
                    "name": "G5",
                    "midi": 79,
                    "time": 1.7999999999999998,
                    "velocity": 0.49606299212598426,
                    "duration": 0.2999999999999998
                },
                {
                    "name": "A5",
                    "midi": 81,
                    "time": 1.7999999999999998,
                    "velocity": 0.5905511811023622,
                    "duration": 0.2999999999999998
                },
                {
                    "name": "A5",
                    "midi": 81,
                    "time": 2.0999999999999996,
                    "velocity": 0.5354330708661418,
                    "duration": 0.2250000000000001
                },
                {
                    "name": "F#5",
                    "midi": 78,
                    "time": 2.0999999999999996,
                    "velocity": 0.44881889763779526,
                    "duration": 0.1499999999999999
                },
                {
                    "name": "D5",
                    "midi": 74,
                    "time": 2.2499999999999996,
                    "velocity": 0.5354330708661418,
                    "duration": 0.07500000000000018
                },
                {
                    "name": "D#6",
                    "midi": 87,
                    "time": 2.3249999999999997,
                    "velocity": 0.5511811023622047,
                    "duration": 0.07500000000000018
                },
                {
                    "name": "D6",
                    "midi": 86,
                    "time": 2.4,
                    "velocity": 0.6062992125984252,
                    "duration": 0.2999999999999998
                },
                {
                    "name": "D6",
                    "midi": 86,
                    "time": 2.6999999999999997,
                    "velocity": 0.5590551181102362,
                    "duration": 0.2999999999999998
                },
                {
                    "name": "A#5",
                    "midi": 82,
                    "time": 2.6999999999999997,
                    "velocity": 0.4645669291338583,
                    "duration": 0.1499999999999999
                },
                {
                    "name": "G5",
                    "midi": 79,
                    "time": 2.8499999999999996,
                    "velocity": 0.5669291338582677,
                    "duration": 0.1499999999999999
                },
                {
                    "name": "G5",
                    "midi": 79,
                    "time": 2.9999999999999996,
                    "velocity": 0.5196850393700787,
                    "duration": 0.2999999999999998
                },
                {
                    "name": "A5",
                    "midi": 81,
                    "time": 2.9999999999999996,
                    "velocity": 0.6141732283464567,
                    "duration": 0.2999999999999998
                },
                {
                    "name": "A5",
                    "midi": 81,
                    "time": 3.2999999999999994,
                    "velocity": 0.5669291338582677,
                    "duration": 0.2999999999999998
                },
                {
                    "name": "F#5",
                    "midi": 78,
                    "time": 3.2999999999999994,
                    "velocity": 0.47244094488188976,
                    "duration": 0.1499999999999999
                },
                {
                    "name": "D5",
                    "midi": 74,
                    "time": 3.4499999999999993,
                    "velocity": 0.5748031496062992,
                    "duration": 0.1499999999999999
                },
                {
                    "name": "G6",
                    "midi": 91,
                    "time": 3.599999999999999,
                    "velocity": 0.5433070866141733,
                    "duration": 0.1499999999999999
                },
                {
                    "name": "A6",
                    "midi": 93,
                    "time": 3.599999999999999,
                    "velocity": 0.6456692913385826,
                    "duration": 0.2999999999999998
                },
                {
                    "name": "F#6",
                    "midi": 90,
                    "time": 3.749999999999999,
                    "velocity": 0.5196850393700787,
                    "duration": 0.1499999999999999
                },
                {
                    "name": "D6",
                    "midi": 86,
                    "time": 3.899999999999999,
                    "velocity": 0.5511811023622047,
                    "duration": 0.1499999999999999
                },
                {
                    "name": "G5",
                    "midi": 79,
                    "time": 4.199999999999999,
                    "velocity": 0.48031496062992124,
                    "duration": 0.15000000000000036
                },
                {
                    "name": "A5",
                    "midi": 81,
                    "time": 4.199999999999999,
                    "velocity": 0.5748031496062992,
                    "duration": 0.3000000000000007
                },
                {
                    "name": "F#5",
                    "midi": 78,
                    "time": 4.35,
                    "velocity": 0.4566929133858268,
                    "duration": 0.15000000000000036
                },
                {
                    "name": "D5",
                    "midi": 74,
                    "time": 4.5,
                    "velocity": 0.4881889763779528,
                    "duration": 0.15000000000000036
                },
                {
                    "name": "G4",
                    "midi": 67,
                    "time": 4.800000000000001,
                    "velocity": 0.41732283464566927,
                    "duration": 0.15000000000000036
                },
                {
                    "name": "A4",
                    "midi": 69,
                    "time": 4.800000000000001,
                    "velocity": 0.49606299212598426,
                    "duration": 0.3000000000000007
                },
                {
                    "name": "F#4",
                    "midi": 66,
                    "time": 4.950000000000001,
                    "velocity": 0.4251968503937008,
                    "duration": 0.15000000000000036
                },
                {
                    "name": "D4",
                    "midi": 62,
                    "time": 5.100000000000001,
                    "velocity": 0.44881889763779526,
                    "duration": 0.3000000000000007
                },
                {
                    "name": "F#4",
                    "midi": 66,
                    "time": 5.250000000000002,
                    "velocity": 0.3937007874015748,
                    "duration": 0.15000000000000036
                },
                {
                    "name": "G4",
                    "midi": 67,
                    "time": 5.400000000000002,
                    "velocity": 0.44881889763779526,
                    "duration": 0.5250000000000004
                },
                {
                    "name": "D#5",
                    "midi": 75,
                    "time": 5.9250000000000025,
                    "velocity": 0.49606299212598426,
                    "duration": 0.07500000000000018
                },
                {
                    "name": "D5",
                    "midi": 74,
                    "time": 6.000000000000003,
                    "velocity": 0.5433070866141733,
                    "duration": 0.2999999999999998
                },
                {
                    "name": "D5",
                    "midi": 74,
                    "time": 6.3000000000000025,
                    "velocity": 0.5196850393700787,
                    "duration": 0.3000000000000007
                },
                {
                    "name": "A#4",
                    "midi": 70,
                    "time": 6.3000000000000025,
                    "velocity": 0.4330708661417323,
                    "duration": 0.15000000000000036
                },
                {
                    "name": "G4",
                    "midi": 67,
                    "time": 6.450000000000003,
                    "velocity": 0.49606299212598426,
                    "duration": 0.15000000000000036
                },
                {
                    "name": "G4",
                    "midi": 67,
                    "time": 6.600000000000003,
                    "velocity": 0.4409448818897638,
                    "duration": 0.2999999999999998
                },
                {
                    "name": "A4",
                    "midi": 69,
                    "time": 6.600000000000003,
                    "velocity": 0.5275590551181102,
                    "duration": 0.2999999999999998
                },
                {
                    "name": "A4",
                    "midi": 69,
                    "time": 6.900000000000003,
                    "velocity": 0.48031496062992124,
                    "duration": 0.22500000000000053
                },
                {
                    "name": "F#4",
                    "midi": 66,
                    "time": 6.900000000000003,
                    "velocity": 0.4015748031496063,
                    "duration": 0.15000000000000036
                },
                {
                    "name": "D4",
                    "midi": 62,
                    "time": 7.050000000000003,
                    "velocity": 0.48031496062992124,
                    "duration": 0.07500000000000018
                },
                {
                    "name": "D#5",
                    "midi": 75,
                    "time": 7.1250000000000036,
                    "velocity": 0.49606299212598426,
                    "duration": 0.07500000000000018
                },
                {
                    "name": "D5",
                    "midi": 74,
                    "time": 7.200000000000004,
                    "velocity": 0.5433070866141733,
                    "duration": 0.2999999999999998
                },
                {
                    "name": "D5",
                    "midi": 74,
                    "time": 7.5000000000000036,
                    "velocity": 0.5275590551181102,
                    "duration": 0.3000000000000007
                },
                {
                    "name": "A#4",
                    "midi": 70,
                    "time": 7.5000000000000036,
                    "velocity": 0.4409448818897638,
                    "duration": 0.15000000000000036
                },
                {
                    "name": "G4",
                    "midi": 67,
                    "time": 7.650000000000004,
                    "velocity": 0.5039370078740157,
                    "duration": 0.15000000000000036
                },
                {
                    "name": "G4",
                    "midi": 67,
                    "time": 7.800000000000004,
                    "velocity": 0.4645669291338583,
                    "duration": 0.3000000000000007
                },
                {
                    "name": "A4",
                    "midi": 69,
                    "time": 7.800000000000004,
                    "velocity": 0.5511811023622047,
                    "duration": 0.3000000000000007
                },
                {
                    "name": "F#4",
                    "midi": 66,
                    "time": 8.100000000000005,
                    "velocity": 0.4251968503937008,
                    "duration": 0.15000000000000036
                },
                {
                    "name": "A4",
                    "midi": 69,
                    "time": 8.100000000000005,
                    "velocity": 0.5039370078740157,
                    "duration": 0.3000000000000007
                },
                {
                    "name": "D4",
                    "midi": 62,
                    "time": 8.250000000000005,
                    "velocity": 0.5118110236220472,
                    "duration": 0.15000000000000036
                },
                {
                    "name": "G5",
                    "midi": 79,
                    "time": 8.400000000000006,
                    "velocity": 0.4881889763779528,
                    "duration": 0.15000000000000036
                },
                {
                    "name": "A5",
                    "midi": 81,
                    "time": 8.400000000000006,
                    "velocity": 0.5748031496062992,
                    "duration": 0.3000000000000007
                },
                {
                    "name": "F#5",
                    "midi": 78,
                    "time": 8.550000000000006,
                    "velocity": 0.5039370078740157,
                    "duration": 0.15000000000000036
                },
                {
                    "name": "D5",
                    "midi": 74,
                    "time": 8.700000000000006,
                    "velocity": 0.49606299212598426,
                    "duration": 0.15000000000000036
                },
                {
                    "name": "G4",
                    "midi": 67,
                    "time": 9.000000000000007,
                    "velocity": 0.4251968503937008,
                    "duration": 0.15000000000000036
                },
                {
                    "name": "A4",
                    "midi": 69,
                    "time": 9.000000000000007,
                    "velocity": 0.5118110236220472,
                    "duration": 0.3000000000000007
                },
                {
                    "name": "F#4",
                    "midi": 66,
                    "time": 9.150000000000007,
                    "velocity": 0.4330708661417323,
                    "duration": 0.15000000000000036
                },
                {
                    "name": "D4",
                    "midi": 62,
                    "time": 9.300000000000008,
                    "velocity": 0.4330708661417323,
                    "duration": 0.15000000000000036
                },
                {
                    "name": "G3",
                    "midi": 55,
                    "time": 9.600000000000009,
                    "velocity": 0.3700787401574803,
                    "duration": 0.15000000000000036
                },
                {
                    "name": "A3",
                    "midi": 57,
                    "time": 9.600000000000009,
                    "velocity": 0.4409448818897638,
                    "duration": 0.3000000000000007
                },
                {
                    "name": "F#3",
                    "midi": 54,
                    "time": 9.750000000000009,
                    "velocity": 0.33858267716535434,
                    "duration": 0.15000000000000036
                },
                {
                    "name": "D3",
                    "midi": 50,
                    "time": 9.90000000000001,
                    "velocity": 0.4015748031496063,
                    "duration": 0.3000000000000007
                },
                {
                    "name": "F#3",
                    "midi": 54,
                    "time": 10.05000000000001,
                    "velocity": 0.3543307086614173,
                    "duration": 0.15000000000000036
                },
                {
                    "name": "G3",
                    "midi": 55,
                    "time": 10.20000000000001,
                    "velocity": 0.4015748031496063,
                    "duration": 0.5250000000000004
                },
                {
                    "name": "G5",
                    "midi": 79,
                    "time": 10.72500000000001,
                    "velocity": 0.3937007874015748,
                    "duration": 0.07499999999999929
                },
                {
                    "name": "F5",
                    "midi": 77,
                    "time": 10.80000000000001,
                    "velocity": 0.4330708661417323,
                    "duration": 0.15000000000000036
                },
                {
                    "name": "F5",
                    "midi": 77,
                    "time": 11.10000000000001,
                    "velocity": 0.4094488188976378,
                    "duration": 0.3000000000000007
                },
                {
                    "name": "D5",
                    "midi": 74,
                    "time": 11.25000000000001,
                    "velocity": 0.3937007874015748,
                    "duration": 0.15000000000000036
                },
                {
                    "name": "D#5",
                    "midi": 75,
                    "time": 11.400000000000011,
                    "velocity": 0.4330708661417323,
                    "duration": 0.3000000000000007
                },
                {
                    "name": "D#5",
                    "midi": 75,
                    "time": 11.700000000000012,
                    "velocity": 0.4094488188976378,
                    "duration": 0.15000000000000036
                },
                {
                    "name": "F5",
                    "midi": 77,
                    "time": 11.700000000000012,
                    "velocity": 0.3543307086614173,
                    "duration": 0.6000000000000014
                },
                {
                    "name": "C5",
                    "midi": 72,
                    "time": 11.850000000000012,
                    "velocity": 0.3937007874015748,
                    "duration": 0.15000000000000036
                },
                {
                    "name": "D5",
                    "midi": 74,
                    "time": 12.000000000000012,
                    "velocity": 0.4094488188976378,
                    "duration": 0.3000000000000007
                },
                {
                    "name": "D5",
                    "midi": 74,
                    "time": 12.300000000000013,
                    "velocity": 0.4094488188976378,
                    "duration": 0.15000000000000036
                },
                {
                    "name": "F5",
                    "midi": 77,
                    "time": 12.300000000000013,
                    "velocity": 0.3543307086614173,
                    "duration": 0.6000000000000014
                },
                {
                    "name": "A#4",
                    "midi": 70,
                    "time": 12.450000000000014,
                    "velocity": 0.3937007874015748,
                    "duration": 0.15000000000000036
                },
                {
                    "name": "C5",
                    "midi": 72,
                    "time": 12.600000000000014,
                    "velocity": 0.4094488188976378,
                    "duration": 0.3000000000000007
                },
                {
                    "name": "F5",
                    "midi": 77,
                    "time": 12.900000000000015,
                    "velocity": 0.33070866141732286,
                    "duration": 0.6000000000000014
                },
                {
                    "name": "C5",
                    "midi": 72,
                    "time": 12.900000000000015,
                    "velocity": 0.4094488188976378,
                    "duration": 0.15000000000000036
                },
                {
                    "name": "A4",
                    "midi": 69,
                    "time": 13.050000000000015,
                    "velocity": 0.3937007874015748,
                    "duration": 0.15000000000000036
                },
                {
                    "name": "A#4",
                    "midi": 70,
                    "time": 13.200000000000015,
                    "velocity": 0.4094488188976378,
                    "duration": 0.3000000000000007
                },
                {
                    "name": "F5",
                    "midi": 77,
                    "time": 13.500000000000016,
                    "velocity": 0.3543307086614173,
                    "duration": 0.15000000000000036
                },
                {
                    "name": "A#5",
                    "midi": 82,
                    "time": 13.650000000000016,
                    "velocity": 0.31496062992125984,
                    "duration": 0.15000000000000036
                },
                {
                    "name": "A#4",
                    "midi": 70,
                    "time": 13.800000000000017,
                    "velocity": 0.33070866141732286,
                    "duration": 0.15000000000000036
                },
                {
                    "name": "F5",
                    "midi": 77,
                    "time": 14.100000000000017,
                    "velocity": 0.3543307086614173,
                    "duration": 0.15000000000000036
                },
                {
                    "name": "A#5",
                    "midi": 82,
                    "time": 14.250000000000018,
                    "velocity": 0.3228346456692913,
                    "duration": 0.15000000000000036
                },
                {
                    "name": "A#4",
                    "midi": 70,
                    "time": 14.400000000000018,
                    "velocity": 0.3228346456692913,
                    "duration": 0.15000000000000036
                },
                {
                    "name": "F5",
                    "midi": 77,
                    "time": 14.700000000000019,
                    "velocity": 0.3543307086614173,
                    "duration": 0.15000000000000036
                },
                {
                    "name": "A#5",
                    "midi": 82,
                    "time": 14.85000000000002,
                    "velocity": 0.3228346456692913,
                    "duration": 0.15000000000000036
                },
                {
                    "name": "A#4",
                    "midi": 70,
                    "time": 15.00000000000002,
                    "velocity": 0.3228346456692913,
                    "duration": 0.15000000000000036
                },
                {
                    "name": "G4",
                    "midi": 67,
                    "time": 15.52500000000002,
                    "velocity": 0.3700787401574803,
                    "duration": 0.07499999999999929
                },
                {
                    "name": "F4",
                    "midi": 65,
                    "time": 15.60000000000002,
                    "velocity": 0.4094488188976378,
                    "duration": 0.15000000000000036
                },
                {
                    "name": "F4",
                    "midi": 65,
                    "time": 15.90000000000002,
                    "velocity": 0.3858267716535433,
                    "duration": 0.29999999999999716
                },
                {
                    "name": "D4",
                    "midi": 62,
                    "time": 16.05000000000002,
                    "velocity": 0.3700787401574803,
                    "duration": 0.14999999999999858
                },
                {
                    "name": "D#4",
                    "midi": 63,
                    "time": 16.200000000000017,
                    "velocity": 0.4094488188976378,
                    "duration": 0.3000000000000007
                },
                {
                    "name": "D#4",
                    "midi": 63,
                    "time": 16.500000000000018,
                    "velocity": 0.3858267716535433,
                    "duration": 0.14999999999999858
                },
                {
                    "name": "F4",
                    "midi": 65,
                    "time": 16.500000000000018,
                    "velocity": 0.33070866141732286,
                    "duration": 0.5999999999999979
                },
                {
                    "name": "C4",
                    "midi": 60,
                    "time": 16.650000000000016,
                    "velocity": 0.3700787401574803,
                    "duration": 0.14999999999999858
                },
                {
                    "name": "D4",
                    "midi": 62,
                    "time": 16.800000000000015,
                    "velocity": 0.3858267716535433,
                    "duration": 0.3000000000000007
                },
                {
                    "name": "D4",
                    "midi": 62,
                    "time": 17.100000000000016,
                    "velocity": 0.3858267716535433,
                    "duration": 0.14999999999999858
                },
                {
                    "name": "F4",
                    "midi": 65,
                    "time": 17.100000000000016,
                    "velocity": 0.33070866141732286,
                    "duration": 0.5999999999999979
                },
                {
                    "name": "A#3",
                    "midi": 58,
                    "time": 17.250000000000014,
                    "velocity": 0.3700787401574803,
                    "duration": 0.14999999999999858
                },
                {
                    "name": "C4",
                    "midi": 60,
                    "time": 17.400000000000013,
                    "velocity": 0.3858267716535433,
                    "duration": 0.3000000000000007
                },
                {
                    "name": "F4",
                    "midi": 65,
                    "time": 17.700000000000014,
                    "velocity": 0.30708661417322836,
                    "duration": 0.5999999999999979
                },
                {
                    "name": "C4",
                    "midi": 60,
                    "time": 17.700000000000014,
                    "velocity": 0.3858267716535433,
                    "duration": 0.14999999999999858
                },
                {
                    "name": "A3",
                    "midi": 57,
                    "time": 17.850000000000012,
                    "velocity": 0.3700787401574803,
                    "duration": 0.14999999999999858
                },
                {
                    "name": "A#3",
                    "midi": 58,
                    "time": 18.00000000000001,
                    "velocity": 0.3858267716535433,
                    "duration": 0.3000000000000007
                },
                {
                    "name": "A4",
                    "midi": 69,
                    "time": 18.30000000000001,
                    "velocity": 0.33070866141732286,
                    "duration": 0.14999999999999858
                },
                {
                    "name": "D5",
                    "midi": 74,
                    "time": 18.45000000000001,
                    "velocity": 0.2992125984251969,
                    "duration": 0.14999999999999858
                },
                {
                    "name": "D4",
                    "midi": 62,
                    "time": 18.60000000000001,
                    "velocity": 0.30708661417322836,
                    "duration": 0.14999999999999858
                },
                {
                    "name": "A4",
                    "midi": 69,
                    "time": 18.900000000000006,
                    "velocity": 0.33070866141732286,
                    "duration": 0.14999999999999858
                },
                {
                    "name": "D5",
                    "midi": 74,
                    "time": 19.050000000000004,
                    "velocity": 0.2992125984251969,
                    "duration": 0.14999999999999858
                },
                {
                    "name": "D4",
                    "midi": 62,
                    "time": 19.200000000000003,
                    "velocity": 0.2992125984251969,
                    "duration": 0.14999999999999858
                },
                {
                    "name": "A4",
                    "midi": 69,
                    "time": 19.5,
                    "velocity": 0.33070866141732286,
                    "duration": 0.14999999999999858
                },
                {
                    "name": "D5",
                    "midi": 74,
                    "time": 19.65,
                    "velocity": 0.2992125984251969,
                    "duration": 0.14999999999999858
                },
                {
                    "name": "D4",
                    "midi": 62,
                    "time": 19.799999999999997,
                    "velocity": 0.2992125984251969,
                    "duration": 0.14999999999999858
                },
                {
                    "name": "D#4",
                    "midi": 63,
                    "time": 20.324999999999996,
                    "velocity": 0.3937007874015748,
                    "duration": 0.07499999999999929
                },
                {
                    "name": "D4",
                    "midi": 62,
                    "time": 20.399999999999995,
                    "velocity": 0.48031496062992124,
                    "duration": 0.5249999999999986
                },
                {
                    "name": "D#5",
                    "midi": 75,
                    "time": 21.524999999999995,
                    "velocity": 0.4251968503937008,
                    "duration": 0.07499999999999929
                },
                {
                    "name": "D5",
                    "midi": 74,
                    "time": 21.599999999999994,
                    "velocity": 0.5118110236220472,
                    "duration": 0.5249999999999986
                },
                {
                    "name": "D#6",
                    "midi": 87,
                    "time": 22.724999999999994,
                    "velocity": 0.5511811023622047,
                    "duration": 0.07499999999999929
                },
                {
                    "name": "D6",
                    "midi": 86,
                    "time": 22.799999999999994,
                    "velocity": 0.6062992125984252,
                    "duration": 0.3000000000000007
                },
                {
                    "name": "D6",
                    "midi": 86,
                    "time": 23.099999999999994,
                    "velocity": 0.5511811023622047,
                    "duration": 0.29999999999999716
                },
                {
                    "name": "A#5",
                    "midi": 82,
                    "time": 23.099999999999994,
                    "velocity": 0.4566929133858268,
                    "duration": 0.14999999999999858
                },
                {
                    "name": "G5",
                    "midi": 79,
                    "time": 23.249999999999993,
                    "velocity": 0.5511811023622047,
                    "duration": 0.14999999999999858
                },
                {
                    "name": "G5",
                    "midi": 79,
                    "time": 23.39999999999999,
                    "velocity": 0.49606299212598426,
                    "duration": 0.3000000000000007
                },
                {
                    "name": "A5",
                    "midi": 81,
                    "time": 23.39999999999999,
                    "velocity": 0.5905511811023622,
                    "duration": 0.3000000000000007
                },
                {
                    "name": "A5",
                    "midi": 81,
                    "time": 23.699999999999992,
                    "velocity": 0.5354330708661418,
                    "duration": 0.22499999999999787
                },
                {
                    "name": "F#5",
                    "midi": 78,
                    "time": 23.699999999999992,
                    "velocity": 0.44881889763779526,
                    "duration": 0.14999999999999858
                },
                {
                    "name": "D5",
                    "midi": 74,
                    "time": 23.84999999999999,
                    "velocity": 0.5354330708661418,
                    "duration": 0.07499999999999929
                },
                {
                    "name": "D#6",
                    "midi": 87,
                    "time": 23.92499999999999,
                    "velocity": 0.5511811023622047,
                    "duration": 0.07499999999999929
                },
                {
                    "name": "D6",
                    "midi": 86,
                    "time": 23.99999999999999,
                    "velocity": 0.6062992125984252,
                    "duration": 0.3000000000000007
                },
                {
                    "name": "D6",
                    "midi": 86,
                    "time": 24.29999999999999,
                    "velocity": 0.5590551181102362,
                    "duration": 0.29999999999999716
                },
                {
                    "name": "A#5",
                    "midi": 82,
                    "time": 24.29999999999999,
                    "velocity": 0.4645669291338583,
                    "duration": 0.14999999999999858
                },
                {
                    "name": "G5",
                    "midi": 79,
                    "time": 24.44999999999999,
                    "velocity": 0.5669291338582677,
                    "duration": 0.14999999999999858
                },
                {
                    "name": "G5",
                    "midi": 79,
                    "time": 24.599999999999987,
                    "velocity": 0.5196850393700787,
                    "duration": 0.3000000000000007
                },
                {
                    "name": "A5",
                    "midi": 81,
                    "time": 24.599999999999987,
                    "velocity": 0.6141732283464567,
                    "duration": 0.3000000000000007
                },
                {
                    "name": "A5",
                    "midi": 81,
                    "time": 24.899999999999988,
                    "velocity": 0.5669291338582677,
                    "duration": 0.29999999999999716
                },
                {
                    "name": "F#5",
                    "midi": 78,
                    "time": 24.899999999999988,
                    "velocity": 0.47244094488188976,
                    "duration": 0.14999999999999858
                },
                {
                    "name": "D5",
                    "midi": 74,
                    "time": 25.049999999999986,
                    "velocity": 0.5748031496062992,
                    "duration": 0.14999999999999858
                },
                {
                    "name": "G5",
                    "midi": 79,
                    "time": 25.199999999999985,
                    "velocity": 0.5433070866141733,
                    "duration": 0.14999999999999858
                },
                {
                    "name": "A5",
                    "midi": 81,
                    "time": 25.199999999999985,
                    "velocity": 0.6456692913385826,
                    "duration": 0.29999999999999716
                },
                {
                    "name": "F#5",
                    "midi": 78,
                    "time": 25.349999999999984,
                    "velocity": 0.5196850393700787,
                    "duration": 0.14999999999999858
                },
                {
                    "name": "D5",
                    "midi": 74,
                    "time": 25.499999999999982,
                    "velocity": 0.5511811023622047,
                    "duration": 0.14999999999999858
                },
                {
                    "name": "A4",
                    "midi": 69,
                    "time": 25.79999999999998,
                    "velocity": 0.5748031496062992,
                    "duration": 0.29999999999999716
                },
                {
                    "name": "G4",
                    "midi": 67,
                    "time": 25.79999999999998,
                    "velocity": 0.48031496062992124,
                    "duration": 0.14999999999999858
                },
                {
                    "name": "F#4",
                    "midi": 66,
                    "time": 25.949999999999978,
                    "velocity": 0.4645669291338583,
                    "duration": 0.14999999999999858
                },
                {
                    "name": "D4",
                    "midi": 62,
                    "time": 26.099999999999977,
                    "velocity": 0.4881889763779528,
                    "duration": 0.14999999999999858
                },
                {
                    "name": "G3",
                    "midi": 55,
                    "time": 26.399999999999974,
                    "velocity": 0.41732283464566927,
                    "duration": 0.14999999999999858
                },
                {
                    "name": "A3",
                    "midi": 57,
                    "time": 26.399999999999974,
                    "velocity": 0.49606299212598426,
                    "duration": 0.29999999999999716
                },
                {
                    "name": "F#3",
                    "midi": 54,
                    "time": 26.549999999999972,
                    "velocity": 0.3779527559055118,
                    "duration": 0.14999999999999858
                },
                {
                    "name": "D3",
                    "midi": 50,
                    "time": 26.69999999999997,
                    "velocity": 0.44881889763779526,
                    "duration": 0.29999999999999716
                },
                {
                    "name": "F#3",
                    "midi": 54,
                    "time": 26.84999999999997,
                    "velocity": 0.3937007874015748,
                    "duration": 0.14999999999999858
                },
                {
                    "name": "G3",
                    "midi": 55,
                    "time": 26.999999999999968,
                    "velocity": 0.44881889763779526,
                    "duration": 0.5249999999999986
                },
                {
                    "name": "G5",
                    "midi": 79,
                    "time": 27.524999999999967,
                    "velocity": 0.3937007874015748,
                    "duration": 0.07499999999999929
                },
                {
                    "name": "F5",
                    "midi": 77,
                    "time": 27.599999999999966,
                    "velocity": 0.4330708661417323,
                    "duration": 0.14999999999999858
                },
                {
                    "name": "F5",
                    "midi": 77,
                    "time": 27.899999999999963,
                    "velocity": 0.4094488188976378,
                    "duration": 0.29999999999999716
                },
                {
                    "name": "D5",
                    "midi": 74,
                    "time": 28.04999999999996,
                    "velocity": 0.3937007874015748,
                    "duration": 0.14999999999999858
                },
                {
                    "name": "D#5",
                    "midi": 75,
                    "time": 28.19999999999996,
                    "velocity": 0.4330708661417323,
                    "duration": 0.3000000000000007
                },
                {
                    "name": "D#5",
                    "midi": 75,
                    "time": 28.49999999999996,
                    "velocity": 0.4094488188976378,
                    "duration": 0.14999999999999858
                },
                {
                    "name": "F5",
                    "midi": 77,
                    "time": 28.49999999999996,
                    "velocity": 0.3543307086614173,
                    "duration": 0.5999999999999979
                },
                {
                    "name": "C5",
                    "midi": 72,
                    "time": 28.64999999999996,
                    "velocity": 0.3937007874015748,
                    "duration": 0.14999999999999858
                },
                {
                    "name": "D5",
                    "midi": 74,
                    "time": 28.799999999999958,
                    "velocity": 0.4094488188976378,
                    "duration": 0.3000000000000007
                },
                {
                    "name": "D5",
                    "midi": 74,
                    "time": 29.09999999999996,
                    "velocity": 0.4094488188976378,
                    "duration": 0.14999999999999858
                },
                {
                    "name": "F5",
                    "midi": 77,
                    "time": 29.09999999999996,
                    "velocity": 0.3543307086614173,
                    "duration": 0.5999999999999979
                },
                {
                    "name": "A#4",
                    "midi": 70,
                    "time": 29.249999999999957,
                    "velocity": 0.3937007874015748,
                    "duration": 0.14999999999999858
                },
                {
                    "name": "C5",
                    "midi": 72,
                    "time": 29.399999999999956,
                    "velocity": 0.4094488188976378,
                    "duration": 0.3000000000000007
                },
                {
                    "name": "F5",
                    "midi": 77,
                    "time": 29.699999999999957,
                    "velocity": 0.33070866141732286,
                    "duration": 0.5999999999999979
                },
                {
                    "name": "C5",
                    "midi": 72,
                    "time": 29.699999999999957,
                    "velocity": 0.4094488188976378,
                    "duration": 0.14999999999999858
                },
                {
                    "name": "A4",
                    "midi": 69,
                    "time": 29.849999999999955,
                    "velocity": 0.3937007874015748,
                    "duration": 0.14999999999999858
                },
                {
                    "name": "A#4",
                    "midi": 70,
                    "time": 29.999999999999954,
                    "velocity": 0.4094488188976378,
                    "duration": 0.3000000000000007
                },
                {
                    "name": "F5",
                    "midi": 77,
                    "time": 30.299999999999955,
                    "velocity": 0.3543307086614173,
                    "duration": 0.14999999999999858
                },
                {
                    "name": "A#5",
                    "midi": 82,
                    "time": 30.449999999999953,
                    "velocity": 0.31496062992125984,
                    "duration": 0.14999999999999858
                },
                {
                    "name": "A#4",
                    "midi": 70,
                    "time": 30.59999999999995,
                    "velocity": 0.33070866141732286,
                    "duration": 0.14999999999999858
                },
                {
                    "name": "F5",
                    "midi": 77,
                    "time": 30.89999999999995,
                    "velocity": 0.3543307086614173,
                    "duration": 0.14999999999999858
                },
                {
                    "name": "A#5",
                    "midi": 82,
                    "time": 31.049999999999947,
                    "velocity": 0.3228346456692913,
                    "duration": 0.14999999999999858
                },
                {
                    "name": "A#4",
                    "midi": 70,
                    "time": 31.199999999999946,
                    "velocity": 0.3228346456692913,
                    "duration": 0.14999999999999858
                },
                {
                    "name": "F5",
                    "midi": 77,
                    "time": 31.499999999999943,
                    "velocity": 0.3543307086614173,
                    "duration": 0.14999999999999858
                },
                {
                    "name": "A#5",
                    "midi": 82,
                    "time": 31.64999999999994,
                    "velocity": 0.3228346456692913,
                    "duration": 0.14999999999999858
                },
                {
                    "name": "A#4",
                    "midi": 70,
                    "time": 31.79999999999994,
                    "velocity": 0.3228346456692913,
                    "duration": 0.14999999999999858
                },
                {
                    "name": "G4",
                    "midi": 67,
                    "time": 32.32499999999994,
                    "velocity": 0.3700787401574803,
                    "duration": 0.07500000000000284
                },
                {
                    "name": "F4",
                    "midi": 65,
                    "time": 32.39999999999994,
                    "velocity": 0.4094488188976378,
                    "duration": 0.14999999999999858
                },
                {
                    "name": "F4",
                    "midi": 65,
                    "time": 32.69999999999994,
                    "velocity": 0.3858267716535433,
                    "duration": 0.29999999999999716
                },
                {
                    "name": "D4",
                    "midi": 62,
                    "time": 32.84999999999994,
                    "velocity": 0.3700787401574803,
                    "duration": 0.14999999999999858
                },
                {
                    "name": "D#4",
                    "midi": 63,
                    "time": 32.999999999999936,
                    "velocity": 0.4094488188976378,
                    "duration": 0.29999999999999716
                },
                {
                    "name": "D#4",
                    "midi": 63,
                    "time": 33.29999999999993,
                    "velocity": 0.3858267716535433,
                    "duration": 0.14999999999999858
                },
                {
                    "name": "F4",
                    "midi": 65,
                    "time": 33.29999999999993,
                    "velocity": 0.33070866141732286,
                    "duration": 0.5999999999999943
                },
                {
                    "name": "C4",
                    "midi": 60,
                    "time": 33.44999999999993,
                    "velocity": 0.3700787401574803,
                    "duration": 0.14999999999999858
                },
                {
                    "name": "D4",
                    "midi": 62,
                    "time": 33.59999999999993,
                    "velocity": 0.3858267716535433,
                    "duration": 0.29999999999999716
                },
                {
                    "name": "D4",
                    "midi": 62,
                    "time": 33.89999999999993,
                    "velocity": 0.3858267716535433,
                    "duration": 0.14999999999999858
                },
                {
                    "name": "F4",
                    "midi": 65,
                    "time": 33.89999999999993,
                    "velocity": 0.33070866141732286,
                    "duration": 0.5999999999999943
                },
                {
                    "name": "A#3",
                    "midi": 58,
                    "time": 34.049999999999926,
                    "velocity": 0.3700787401574803,
                    "duration": 0.14999999999999858
                },
                {
                    "name": "C4",
                    "midi": 60,
                    "time": 34.199999999999925,
                    "velocity": 0.3858267716535433,
                    "duration": 0.29999999999999716
                },
                {
                    "name": "F4",
                    "midi": 65,
                    "time": 34.49999999999992,
                    "velocity": 0.30708661417322836,
                    "duration": 0.5999999999999943
                },
                {
                    "name": "C4",
                    "midi": 60,
                    "time": 34.49999999999992,
                    "velocity": 0.3858267716535433,
                    "duration": 0.14999999999999858
                },
                {
                    "name": "A3",
                    "midi": 57,
                    "time": 34.64999999999992,
                    "velocity": 0.3700787401574803,
                    "duration": 0.14999999999999858
                },
                {
                    "name": "A#3",
                    "midi": 58,
                    "time": 34.79999999999992,
                    "velocity": 0.3858267716535433,
                    "duration": 0.29999999999999716
                },
                {
                    "name": "A4",
                    "midi": 69,
                    "time": 35.099999999999916,
                    "velocity": 0.33070866141732286,
                    "duration": 0.14999999999999858
                },
                {
                    "name": "D5",
                    "midi": 74,
                    "time": 35.249999999999915,
                    "velocity": 0.2992125984251969,
                    "duration": 0.14999999999999858
                },
                {
                    "name": "D4",
                    "midi": 62,
                    "time": 35.39999999999991,
                    "velocity": 0.30708661417322836,
                    "duration": 0.14999999999999858
                },
                {
                    "name": "A4",
                    "midi": 69,
                    "time": 35.69999999999991,
                    "velocity": 0.33070866141732286,
                    "duration": 0.14999999999999858
                },
                {
                    "name": "D5",
                    "midi": 74,
                    "time": 35.84999999999991,
                    "velocity": 0.2992125984251969,
                    "duration": 0.14999999999999858
                },
                {
                    "name": "D4",
                    "midi": 62,
                    "time": 35.99999999999991,
                    "velocity": 0.2992125984251969,
                    "duration": 0.14999999999999858
                },
                {
                    "name": "A4",
                    "midi": 69,
                    "time": 36.299999999999905,
                    "velocity": 0.33070866141732286,
                    "duration": 0.14999999999999858
                },
                {
                    "name": "D5",
                    "midi": 74,
                    "time": 36.4499999999999,
                    "velocity": 0.2992125984251969,
                    "duration": 0.14999999999999858
                },
                {
                    "name": "D4",
                    "midi": 62,
                    "time": 36.5999999999999,
                    "velocity": 0.2992125984251969,
                    "duration": 0.14999999999999858
                },
                {
                    "name": "D#4",
                    "midi": 63,
                    "time": 37.1249999999999,
                    "velocity": 0.3937007874015748,
                    "duration": 0.07500000000000284
                },
                {
                    "name": "D4",
                    "midi": 62,
                    "time": 37.1999999999999,
                    "velocity": 0.48031496062992124,
                    "duration": 0.5249999999999986
                },
                {
                    "name": "D#5",
                    "midi": 75,
                    "time": 38.3249999999999,
                    "velocity": 0.4251968503937008,
                    "duration": 0.07500000000000284
                },
                {
                    "name": "D5",
                    "midi": 74,
                    "time": 38.399999999999906,
                    "velocity": 0.5118110236220472,
                    "duration": 0.5249999999999986
                },
                {
                    "name": "D#6",
                    "midi": 87,
                    "time": 39.524999999999906,
                    "velocity": 0.5433070866141733,
                    "duration": 0.07500000000000284
                },
                {
                    "name": "D6",
                    "midi": 86,
                    "time": 39.59999999999991,
                    "velocity": 0.5905511811023622,
                    "duration": 0.29999999999999716
                },
                {
                    "name": "D6",
                    "midi": 86,
                    "time": 39.899999999999906,
                    "velocity": 0.5354330708661418,
                    "duration": 0.29999999999999716
                },
                {
                    "name": "A#5",
                    "midi": 82,
                    "time": 39.899999999999906,
                    "velocity": 0.44881889763779526,
                    "duration": 0.14999999999999858
                },
                {
                    "name": "G5",
                    "midi": 79,
                    "time": 40.049999999999905,
                    "velocity": 0.5433070866141733,
                    "duration": 0.14999999999999858
                },
                {
                    "name": "G5",
                    "midi": 79,
                    "time": 40.1999999999999,
                    "velocity": 0.48031496062992124,
                    "duration": 0.29999999999999716
                },
                {
                    "name": "A5",
                    "midi": 81,
                    "time": 40.1999999999999,
                    "velocity": 0.5748031496062992,
                    "duration": 0.29999999999999716
                },
                {
                    "name": "A5",
                    "midi": 81,
                    "time": 40.4999999999999,
                    "velocity": 0.5275590551181102,
                    "duration": 0.22500000000000142
                },
                {
                    "name": "F#5",
                    "midi": 78,
                    "time": 40.4999999999999,
                    "velocity": 0.4409448818897638,
                    "duration": 0.14999999999999858
                },
                {
                    "name": "D5",
                    "midi": 74,
                    "time": 40.6499999999999,
                    "velocity": 0.48031496062992124,
                    "duration": 0.07500000000000284
                },
                {
                    "name": "D#5",
                    "midi": 75,
                    "time": 40.7249999999999,
                    "velocity": 0.49606299212598426,
                    "duration": 0.07500000000000284
                },
                {
                    "name": "D5",
                    "midi": 74,
                    "time": 40.799999999999905,
                    "velocity": 0.5433070866141733,
                    "duration": 0.29999999999999716
                },
                {
                    "name": "D5",
                    "midi": 74,
                    "time": 41.0999999999999,
                    "velocity": 0.5275590551181102,
                    "duration": 0.29999999999999716
                },
                {
                    "name": "A#4",
                    "midi": 70,
                    "time": 41.0999999999999,
                    "velocity": 0.4409448818897638,
                    "duration": 0.14999999999999858
                },
                {
                    "name": "G4",
                    "midi": 67,
                    "time": 41.2499999999999,
                    "velocity": 0.5039370078740157,
                    "duration": 0.14999999999999858
                },
                {
                    "name": "G4",
                    "midi": 67,
                    "time": 41.3999999999999,
                    "velocity": 0.4645669291338583,
                    "duration": 0.29999999999999716
                },
                {
                    "name": "A4",
                    "midi": 69,
                    "time": 41.3999999999999,
                    "velocity": 0.5511811023622047,
                    "duration": 0.29999999999999716
                },
                {
                    "name": "F#4",
                    "midi": 66,
                    "time": 41.699999999999896,
                    "velocity": 0.4251968503937008,
                    "duration": 0.14999999999999858
                },
                {
                    "name": "A4",
                    "midi": 69,
                    "time": 41.699999999999896,
                    "velocity": 0.5039370078740157,
                    "duration": 0.29999999999999716
                },
                {
                    "name": "D4",
                    "midi": 62,
                    "time": 41.849999999999895,
                    "velocity": 0.5118110236220472,
                    "duration": 0.14999999999999858
                },
                {
                    "name": "G5",
                    "midi": 79,
                    "time": 41.99999999999989,
                    "velocity": 0.4881889763779528,
                    "duration": 0.14999999999999858
                },
                {
                    "name": "A5",
                    "midi": 81,
                    "time": 41.99999999999989,
                    "velocity": 0.5748031496062992,
                    "duration": 0.29999999999999716
                },
                {
                    "name": "F#5",
                    "midi": 78,
                    "time": 42.14999999999989,
                    "velocity": 0.4566929133858268,
                    "duration": 0.14999999999999858
                },
                {
                    "name": "D5",
                    "midi": 74,
                    "time": 42.29999999999989,
                    "velocity": 0.4645669291338583,
                    "duration": 0.14999999999999858
                },
                {
                    "name": "G4",
                    "midi": 67,
                    "time": 42.59999999999989,
                    "velocity": 0.3779527559055118,
                    "duration": 0.14999999999999858
                },
                {
                    "name": "A4",
                    "midi": 69,
                    "time": 42.59999999999989,
                    "velocity": 0.4566929133858268,
                    "duration": 0.29999999999999716
                },
                {
                    "name": "F#4",
                    "midi": 66,
                    "time": 42.749999999999886,
                    "velocity": 0.3700787401574803,
                    "duration": 0.14999999999999858
                },
                {
                    "name": "D4",
                    "midi": 62,
                    "time": 42.899999999999885,
                    "velocity": 0.36220472440944884,
                    "duration": 0.14999999999999858
                },
                {
                    "name": "G3",
                    "midi": 55,
                    "time": 43.19999999999988,
                    "velocity": 0.29133858267716534,
                    "duration": 0.14999999999999858
                },
                {
                    "name": "A3",
                    "midi": 57,
                    "time": 43.19999999999988,
                    "velocity": 0.3464566929133858,
                    "duration": 0.29999999999999716
                },
                {
                    "name": "F#3",
                    "midi": 54,
                    "time": 43.34999999999988,
                    "velocity": 0.25984251968503935,
                    "duration": 0.14999999999999858
                },
                {
                    "name": "D3",
                    "midi": 50,
                    "time": 43.49999999999988,
                    "velocity": 0.2992125984251969,
                    "duration": 0.29999999999999716
                },
                {
                    "name": "F#3",
                    "midi": 54,
                    "time": 43.64999999999988,
                    "velocity": 0.25196850393700787,
                    "duration": 0.14999999999999858
                },
                {
                    "name": "G3",
                    "midi": 55,
                    "time": 43.799999999999876,
                    "velocity": 0.2755905511811024,
                    "duration": 0.6000000000000014
                }
            ],
            "controlChanges": {},
            "id": 1,
            "name": "Piano right",
            "instrumentNumber": 0,
            "instrument": "acoustic grand piano",
            "instrumentFamily": "piano",
            "channelNumber": 0,
            "isPercussion": false
        },
        {
            "startTime": 1.5,
            "duration": 44.39999999999992,
            "length": 156,
            "notes": [
                {
                    "name": "G4",
                    "midi": 67,
                    "time": 1.5,
                    "velocity": 0.3228346456692913,
                    "duration": 0.9000000000000004
                },
                {
                    "name": "D5",
                    "midi": 74,
                    "time": 1.5,
                    "velocity": 0.3858267716535433,
                    "duration": 0.9000000000000004
                },
                {
                    "name": "C5",
                    "midi": 72,
                    "time": 1.8,
                    "velocity": 0.4251968503937008,
                    "duration": 0.30000000000000004
                },
                {
                    "name": "A4",
                    "midi": 69,
                    "time": 2.1,
                    "velocity": 0.3858267716535433,
                    "duration": 0.2250000000000001
                },
                {
                    "name": "G4",
                    "midi": 67,
                    "time": 2.7,
                    "velocity": 0.3228346456692913,
                    "duration": 0.8999999999999995
                },
                {
                    "name": "D5",
                    "midi": 74,
                    "time": 2.7,
                    "velocity": 0.3858267716535433,
                    "duration": 0.8999999999999995
                },
                {
                    "name": "C5",
                    "midi": 72,
                    "time": 3,
                    "velocity": 0.4409448818897638,
                    "duration": 0.2999999999999998
                },
                {
                    "name": "A4",
                    "midi": 69,
                    "time": 3.3,
                    "velocity": 0.4094488188976378,
                    "duration": 0.2999999999999998
                },
                {
                    "name": "A5",
                    "midi": 81,
                    "time": 3.8999999999999995,
                    "velocity": 0.6141732283464567,
                    "duration": 0.2975000000000003
                },
                {
                    "name": "G5",
                    "midi": 79,
                    "time": 3.8999999999999995,
                    "velocity": 0.5118110236220472,
                    "duration": 0.15000000000000036
                },
                {
                    "name": "F#5",
                    "midi": 78,
                    "time": 4.05,
                    "velocity": 0.49606299212598426,
                    "duration": 0.15000000000000036
                },
                {
                    "name": "D5",
                    "midi": 74,
                    "time": 4.2,
                    "velocity": 0.5196850393700787,
                    "duration": 0.15000000000000036
                },
                {
                    "name": "G4",
                    "midi": 67,
                    "time": 4.500000000000001,
                    "velocity": 0.44881889763779526,
                    "duration": 0.15000000000000036
                },
                {
                    "name": "A4",
                    "midi": 69,
                    "time": 4.500000000000001,
                    "velocity": 0.5433070866141733,
                    "duration": 0.2975000000000003
                },
                {
                    "name": "F#4",
                    "midi": 66,
                    "time": 4.650000000000001,
                    "velocity": 0.4409448818897638,
                    "duration": 0.15000000000000036
                },
                {
                    "name": "D4",
                    "midi": 62,
                    "time": 4.800000000000002,
                    "velocity": 0.44881889763779526,
                    "duration": 0.15000000000000036
                },
                {
                    "name": "D3",
                    "midi": 50,
                    "time": 5.100000000000002,
                    "velocity": 0.36220472440944884,
                    "duration": 0.15000000000000036
                },
                {
                    "name": "G2",
                    "midi": 43,
                    "time": 5.400000000000003,
                    "velocity": 0.33858267716535434,
                    "duration": 0.5250000000000004
                },
                {
                    "name": "G3",
                    "midi": 55,
                    "time": 5.400000000000003,
                    "velocity": 0.4015748031496063,
                    "duration": 0.5250000000000004
                },
                {
                    "name": "G3",
                    "midi": 55,
                    "time": 6.300000000000003,
                    "velocity": 0.28346456692913385,
                    "duration": 0.8999999999999995
                },
                {
                    "name": "D4",
                    "midi": 62,
                    "time": 6.300000000000003,
                    "velocity": 0.3464566929133858,
                    "duration": 0.8999999999999995
                },
                {
                    "name": "C4",
                    "midi": 60,
                    "time": 6.600000000000003,
                    "velocity": 0.3779527559055118,
                    "duration": 0.2999999999999998
                },
                {
                    "name": "A3",
                    "midi": 57,
                    "time": 6.900000000000003,
                    "velocity": 0.3464566929133858,
                    "duration": 0.2999999999999998
                },
                {
                    "name": "G3",
                    "midi": 55,
                    "time": 7.500000000000003,
                    "velocity": 0.28346456692913385,
                    "duration": 0.9000000000000012
                },
                {
                    "name": "D4",
                    "midi": 62,
                    "time": 7.500000000000003,
                    "velocity": 0.3464566929133858,
                    "duration": 0.9000000000000012
                },
                {
                    "name": "C4",
                    "midi": 60,
                    "time": 7.8000000000000025,
                    "velocity": 0.3937007874015748,
                    "duration": 0.3000000000000007
                },
                {
                    "name": "A3",
                    "midi": 57,
                    "time": 8.100000000000003,
                    "velocity": 0.36220472440944884,
                    "duration": 0.3000000000000007
                },
                {
                    "name": "G4",
                    "midi": 67,
                    "time": 8.700000000000005,
                    "velocity": 0.4566929133858268,
                    "duration": 0.15000000000000036
                },
                {
                    "name": "A4",
                    "midi": 69,
                    "time": 8.700000000000005,
                    "velocity": 0.5511811023622047,
                    "duration": 0.2975000000000012
                },
                {
                    "name": "F#4",
                    "midi": 66,
                    "time": 8.850000000000005,
                    "velocity": 0.4881889763779528,
                    "duration": 0.15000000000000036
                },
                {
                    "name": "D4",
                    "midi": 62,
                    "time": 9.000000000000005,
                    "velocity": 0.4645669291338583,
                    "duration": 0.15000000000000036
                },
                {
                    "name": "G3",
                    "midi": 55,
                    "time": 9.300000000000006,
                    "velocity": 0.4015748031496063,
                    "duration": 0.15000000000000036
                },
                {
                    "name": "A3",
                    "midi": 57,
                    "time": 9.300000000000006,
                    "velocity": 0.4881889763779528,
                    "duration": 0.2975000000000012
                },
                {
                    "name": "F#3",
                    "midi": 54,
                    "time": 9.450000000000006,
                    "velocity": 0.4251968503937008,
                    "duration": 0.15000000000000036
                },
                {
                    "name": "D3",
                    "midi": 50,
                    "time": 9.600000000000007,
                    "velocity": 0.4015748031496063,
                    "duration": 0.15000000000000036
                },
                {
                    "name": "D2",
                    "midi": 38,
                    "time": 9.900000000000007,
                    "velocity": 0.3228346456692913,
                    "duration": 0.15000000000000036
                },
                {
                    "name": "G1",
                    "midi": 31,
                    "time": 10.200000000000008,
                    "velocity": 0.2992125984251969,
                    "duration": 0.5250000000000004
                },
                {
                    "name": "G2",
                    "midi": 43,
                    "time": 10.200000000000008,
                    "velocity": 0.3543307086614173,
                    "duration": 0.5250000000000004
                },
                {
                    "name": "A#3",
                    "midi": 58,
                    "time": 11.100000000000009,
                    "velocity": 0.2204724409448819,
                    "duration": 0.9000000000000021
                },
                {
                    "name": "F4",
                    "midi": 65,
                    "time": 11.100000000000009,
                    "velocity": 0.2755905511811024,
                    "duration": 0.9000000000000021
                },
                {
                    "name": "G4",
                    "midi": 67,
                    "time": 11.40000000000001,
                    "velocity": 0.2677165354330709,
                    "duration": 0.3000000000000007
                },
                {
                    "name": "A4",
                    "midi": 69,
                    "time": 11.70000000000001,
                    "velocity": 0.2677165354330709,
                    "duration": 0.3000000000000007
                },
                {
                    "name": "A#3",
                    "midi": 58,
                    "time": 12.300000000000011,
                    "velocity": 0.2204724409448819,
                    "duration": 1.2000000000000028
                },
                {
                    "name": "F4",
                    "midi": 65,
                    "time": 12.300000000000011,
                    "velocity": 0.2755905511811024,
                    "duration": 1.2000000000000028
                },
                {
                    "name": "D#4",
                    "midi": 63,
                    "time": 12.600000000000012,
                    "velocity": 0.25196850393700787,
                    "duration": 0.3000000000000007
                },
                {
                    "name": "C4",
                    "midi": 60,
                    "time": 12.900000000000013,
                    "velocity": 0.25196850393700787,
                    "duration": 0.3000000000000007
                },
                {
                    "name": "D4",
                    "midi": 62,
                    "time": 13.200000000000014,
                    "velocity": 0.31496062992125984,
                    "duration": 0.3000000000000007
                },
                {
                    "name": "F3",
                    "midi": 53,
                    "time": 13.500000000000014,
                    "velocity": 0.2992125984251969,
                    "duration": 0.15000000000000036
                },
                {
                    "name": "A#2",
                    "midi": 46,
                    "time": 13.650000000000015,
                    "velocity": 0.25984251968503935,
                    "duration": 0.15000000000000036
                },
                {
                    "name": "D4",
                    "midi": 62,
                    "time": 13.800000000000015,
                    "velocity": 0.25984251968503935,
                    "duration": 0.15000000000000036
                },
                {
                    "name": "F3",
                    "midi": 53,
                    "time": 14.100000000000016,
                    "velocity": 0.2992125984251969,
                    "duration": 0.15000000000000036
                },
                {
                    "name": "A#2",
                    "midi": 46,
                    "time": 14.250000000000016,
                    "velocity": 0.25984251968503935,
                    "duration": 0.15000000000000036
                },
                {
                    "name": "D4",
                    "midi": 62,
                    "time": 14.400000000000016,
                    "velocity": 0.25984251968503935,
                    "duration": 0.15000000000000036
                },
                {
                    "name": "F3",
                    "midi": 53,
                    "time": 14.700000000000017,
                    "velocity": 0.2992125984251969,
                    "duration": 0.15000000000000036
                },
                {
                    "name": "A#2",
                    "midi": 46,
                    "time": 14.850000000000017,
                    "velocity": 0.25984251968503935,
                    "duration": 0.15000000000000036
                },
                {
                    "name": "D4",
                    "midi": 62,
                    "time": 15.000000000000018,
                    "velocity": 0.2677165354330709,
                    "duration": 0.15000000000000036
                },
                {
                    "name": "A#2",
                    "midi": 46,
                    "time": 15.900000000000018,
                    "velocity": 0.2047244094488189,
                    "duration": 0.9000000000000004
                },
                {
                    "name": "F3",
                    "midi": 53,
                    "time": 15.900000000000018,
                    "velocity": 0.25984251968503935,
                    "duration": 0.9000000000000004
                },
                {
                    "name": "G3",
                    "midi": 55,
                    "time": 16.200000000000017,
                    "velocity": 0.25196850393700787,
                    "duration": 0.3000000000000007
                },
                {
                    "name": "A3",
                    "midi": 57,
                    "time": 16.500000000000018,
                    "velocity": 0.25196850393700787,
                    "duration": 0.3000000000000007
                },
                {
                    "name": "A#2",
                    "midi": 46,
                    "time": 17.10000000000002,
                    "velocity": 0.2047244094488189,
                    "duration": 1.2000000000000028
                },
                {
                    "name": "F3",
                    "midi": 53,
                    "time": 17.10000000000002,
                    "velocity": 0.25984251968503935,
                    "duration": 1.2000000000000028
                },
                {
                    "name": "D#3",
                    "midi": 51,
                    "time": 17.40000000000002,
                    "velocity": 0.23622047244094488,
                    "duration": 0.3000000000000007
                },
                {
                    "name": "C3",
                    "midi": 48,
                    "time": 17.70000000000002,
                    "velocity": 0.23622047244094488,
                    "duration": 0.3000000000000007
                },
                {
                    "name": "D3",
                    "midi": 50,
                    "time": 18.00000000000002,
                    "velocity": 0.2992125984251969,
                    "duration": 0.3000000000000007
                },
                {
                    "name": "A2",
                    "midi": 45,
                    "time": 18.300000000000022,
                    "velocity": 0.28346456692913385,
                    "duration": 0.14999999999999858
                },
                {
                    "name": "D2",
                    "midi": 38,
                    "time": 18.45000000000002,
                    "velocity": 0.2440944881889764,
                    "duration": 0.14999999999999858
                },
                {
                    "name": "F#3",
                    "midi": 54,
                    "time": 18.60000000000002,
                    "velocity": 0.2440944881889764,
                    "duration": 0.14999999999999858
                },
                {
                    "name": "A2",
                    "midi": 45,
                    "time": 18.900000000000016,
                    "velocity": 0.28346456692913385,
                    "duration": 0.14999999999999858
                },
                {
                    "name": "D2",
                    "midi": 38,
                    "time": 19.050000000000015,
                    "velocity": 0.2440944881889764,
                    "duration": 0.14999999999999858
                },
                {
                    "name": "F#3",
                    "midi": 54,
                    "time": 19.200000000000014,
                    "velocity": 0.2440944881889764,
                    "duration": 0.14999999999999858
                },
                {
                    "name": "A2",
                    "midi": 45,
                    "time": 19.50000000000001,
                    "velocity": 0.28346456692913385,
                    "duration": 0.14999999999999858
                },
                {
                    "name": "D2",
                    "midi": 38,
                    "time": 19.65000000000001,
                    "velocity": 0.2440944881889764,
                    "duration": 0.14999999999999858
                },
                {
                    "name": "F#3",
                    "midi": 54,
                    "time": 19.800000000000008,
                    "velocity": 0.25196850393700787,
                    "duration": 0.14999999999999858
                },
                {
                    "name": "A#4",
                    "midi": 70,
                    "time": 20.925000000000008,
                    "velocity": 0.4094488188976378,
                    "duration": 0.07499999999999929
                },
                {
                    "name": "A4",
                    "midi": 69,
                    "time": 21.000000000000007,
                    "velocity": 0.48031496062992124,
                    "duration": 0.5249999999999986
                },
                {
                    "name": "A#5",
                    "midi": 82,
                    "time": 22.125000000000007,
                    "velocity": 0.48031496062992124,
                    "duration": 0.07499999999999929
                },
                {
                    "name": "A5",
                    "midi": 81,
                    "time": 22.200000000000006,
                    "velocity": 0.5669291338582677,
                    "duration": 0.5249999999999986
                },
                {
                    "name": "G4",
                    "midi": 67,
                    "time": 23.100000000000005,
                    "velocity": 0.3228346456692913,
                    "duration": 0.9000000000000021
                },
                {
                    "name": "D5",
                    "midi": 74,
                    "time": 23.100000000000005,
                    "velocity": 0.3858267716535433,
                    "duration": 0.9000000000000021
                },
                {
                    "name": "C5",
                    "midi": 72,
                    "time": 23.400000000000006,
                    "velocity": 0.4251968503937008,
                    "duration": 0.3000000000000007
                },
                {
                    "name": "A4",
                    "midi": 69,
                    "time": 23.700000000000006,
                    "velocity": 0.3858267716535433,
                    "duration": 0.22500000000000142
                },
                {
                    "name": "G4",
                    "midi": 67,
                    "time": 24.300000000000008,
                    "velocity": 0.3228346456692913,
                    "duration": 0.9000000000000021
                },
                {
                    "name": "D5",
                    "midi": 74,
                    "time": 24.300000000000008,
                    "velocity": 0.3858267716535433,
                    "duration": 0.9000000000000021
                },
                {
                    "name": "C5",
                    "midi": 72,
                    "time": 24.60000000000001,
                    "velocity": 0.4409448818897638,
                    "duration": 0.3000000000000007
                },
                {
                    "name": "A4",
                    "midi": 69,
                    "time": 24.90000000000001,
                    "velocity": 0.4094488188976378,
                    "duration": 0.3000000000000007
                },
                {
                    "name": "A4",
                    "midi": 69,
                    "time": 25.50000000000001,
                    "velocity": 0.6141732283464567,
                    "duration": 0.29749999999999943
                },
                {
                    "name": "G4",
                    "midi": 67,
                    "time": 25.50000000000001,
                    "velocity": 0.5118110236220472,
                    "duration": 0.14999999999999858
                },
                {
                    "name": "F#4",
                    "midi": 66,
                    "time": 25.65000000000001,
                    "velocity": 0.49606299212598426,
                    "duration": 0.15000000000000213
                },
                {
                    "name": "D4",
                    "midi": 62,
                    "time": 25.80000000000001,
                    "velocity": 0.5196850393700787,
                    "duration": 0.14999999999999858
                },
                {
                    "name": "A3",
                    "midi": 57,
                    "time": 26.10000000000001,
                    "velocity": 0.5433070866141733,
                    "duration": 0.29749999999999943
                },
                {
                    "name": "G3",
                    "midi": 55,
                    "time": 26.10000000000001,
                    "velocity": 0.44881889763779526,
                    "duration": 0.14999999999999858
                },
                {
                    "name": "F#3",
                    "midi": 54,
                    "time": 26.250000000000007,
                    "velocity": 0.4409448818897638,
                    "duration": 0.15000000000000213
                },
                {
                    "name": "D3",
                    "midi": 50,
                    "time": 26.40000000000001,
                    "velocity": 0.44881889763779526,
                    "duration": 0.14999999999999858
                },
                {
                    "name": "D2",
                    "midi": 38,
                    "time": 26.700000000000006,
                    "velocity": 0.36220472440944884,
                    "duration": 0.14999999999999858
                },
                {
                    "name": "G1",
                    "midi": 31,
                    "time": 27.000000000000004,
                    "velocity": 0.33858267716535434,
                    "duration": 0.5249999999999986
                },
                {
                    "name": "G2",
                    "midi": 43,
                    "time": 27.000000000000004,
                    "velocity": 0.4015748031496063,
                    "duration": 0.5249999999999986
                },
                {
                    "name": "A#3",
                    "midi": 58,
                    "time": 27.900000000000002,
                    "velocity": 0.2204724409448819,
                    "duration": 0.9000000000000021
                },
                {
                    "name": "F4",
                    "midi": 65,
                    "time": 27.900000000000002,
                    "velocity": 0.2755905511811024,
                    "duration": 0.9000000000000021
                },
                {
                    "name": "G4",
                    "midi": 67,
                    "time": 28.200000000000003,
                    "velocity": 0.2677165354330709,
                    "duration": 0.3000000000000007
                },
                {
                    "name": "A4",
                    "midi": 69,
                    "time": 28.500000000000004,
                    "velocity": 0.2677165354330709,
                    "duration": 0.3000000000000007
                },
                {
                    "name": "A#3",
                    "midi": 58,
                    "time": 29.100000000000005,
                    "velocity": 0.2204724409448819,
                    "duration": 1.2000000000000028
                },
                {
                    "name": "F4",
                    "midi": 65,
                    "time": 29.100000000000005,
                    "velocity": 0.2755905511811024,
                    "duration": 1.2000000000000028
                },
                {
                    "name": "D#4",
                    "midi": 63,
                    "time": 29.400000000000006,
                    "velocity": 0.25196850393700787,
                    "duration": 0.3000000000000007
                },
                {
                    "name": "C4",
                    "midi": 60,
                    "time": 29.700000000000006,
                    "velocity": 0.25196850393700787,
                    "duration": 0.3000000000000007
                },
                {
                    "name": "D4",
                    "midi": 62,
                    "time": 30.000000000000007,
                    "velocity": 0.31496062992125984,
                    "duration": 0.3000000000000007
                },
                {
                    "name": "F3",
                    "midi": 53,
                    "time": 30.300000000000008,
                    "velocity": 0.2992125984251969,
                    "duration": 0.14999999999999858
                },
                {
                    "name": "A#2",
                    "midi": 46,
                    "time": 30.450000000000006,
                    "velocity": 0.25984251968503935,
                    "duration": 0.14999999999999858
                },
                {
                    "name": "D4",
                    "midi": 62,
                    "time": 30.600000000000005,
                    "velocity": 0.25984251968503935,
                    "duration": 0.14999999999999858
                },
                {
                    "name": "F3",
                    "midi": 53,
                    "time": 30.900000000000002,
                    "velocity": 0.2992125984251969,
                    "duration": 0.14999999999999858
                },
                {
                    "name": "A#2",
                    "midi": 46,
                    "time": 31.05,
                    "velocity": 0.25984251968503935,
                    "duration": 0.14999999999999858
                },
                {
                    "name": "D4",
                    "midi": 62,
                    "time": 31.2,
                    "velocity": 0.25984251968503935,
                    "duration": 0.14999999999999858
                },
                {
                    "name": "F3",
                    "midi": 53,
                    "time": 31.499999999999996,
                    "velocity": 0.2992125984251969,
                    "duration": 0.14999999999999858
                },
                {
                    "name": "A#2",
                    "midi": 46,
                    "time": 31.649999999999995,
                    "velocity": 0.25984251968503935,
                    "duration": 0.14999999999999858
                },
                {
                    "name": "D4",
                    "midi": 62,
                    "time": 31.799999999999994,
                    "velocity": 0.2677165354330709,
                    "duration": 0.14999999999999858
                },
                {
                    "name": "A#2",
                    "midi": 46,
                    "time": 32.69999999999999,
                    "velocity": 0.2047244094488189,
                    "duration": 0.8999999999999915
                },
                {
                    "name": "F3",
                    "midi": 53,
                    "time": 32.69999999999999,
                    "velocity": 0.25984251968503935,
                    "duration": 0.8999999999999915
                },
                {
                    "name": "G3",
                    "midi": 55,
                    "time": 32.999999999999986,
                    "velocity": 0.25196850393700787,
                    "duration": 0.29999999999999716
                },
                {
                    "name": "A3",
                    "midi": 57,
                    "time": 33.29999999999998,
                    "velocity": 0.25196850393700787,
                    "duration": 0.29999999999999716
                },
                {
                    "name": "A#2",
                    "midi": 46,
                    "time": 33.89999999999998,
                    "velocity": 0.2047244094488189,
                    "duration": 1.1999999999999886
                },
                {
                    "name": "F3",
                    "midi": 53,
                    "time": 33.89999999999998,
                    "velocity": 0.25984251968503935,
                    "duration": 1.1999999999999886
                },
                {
                    "name": "D#3",
                    "midi": 51,
                    "time": 34.199999999999974,
                    "velocity": 0.23622047244094488,
                    "duration": 0.29999999999999716
                },
                {
                    "name": "C3",
                    "midi": 48,
                    "time": 34.49999999999997,
                    "velocity": 0.23622047244094488,
                    "duration": 0.29999999999999716
                },
                {
                    "name": "D3",
                    "midi": 50,
                    "time": 34.79999999999997,
                    "velocity": 0.2992125984251969,
                    "duration": 0.29999999999999716
                },
                {
                    "name": "A2",
                    "midi": 45,
                    "time": 35.099999999999966,
                    "velocity": 0.28346456692913385,
                    "duration": 0.14999999999999858
                },
                {
                    "name": "D2",
                    "midi": 38,
                    "time": 35.249999999999964,
                    "velocity": 0.2440944881889764,
                    "duration": 0.14999999999999858
                },
                {
                    "name": "F#3",
                    "midi": 54,
                    "time": 35.39999999999996,
                    "velocity": 0.2440944881889764,
                    "duration": 0.14999999999999858
                },
                {
                    "name": "A2",
                    "midi": 45,
                    "time": 35.69999999999996,
                    "velocity": 0.28346456692913385,
                    "duration": 0.14999999999999858
                },
                {
                    "name": "D2",
                    "midi": 38,
                    "time": 35.84999999999996,
                    "velocity": 0.2440944881889764,
                    "duration": 0.14999999999999858
                },
                {
                    "name": "F#3",
                    "midi": 54,
                    "time": 35.99999999999996,
                    "velocity": 0.2440944881889764,
                    "duration": 0.14999999999999858
                },
                {
                    "name": "A2",
                    "midi": 45,
                    "time": 36.299999999999955,
                    "velocity": 0.28346456692913385,
                    "duration": 0.14999999999999858
                },
                {
                    "name": "D2",
                    "midi": 38,
                    "time": 36.44999999999995,
                    "velocity": 0.2440944881889764,
                    "duration": 0.14999999999999858
                },
                {
                    "name": "F#3",
                    "midi": 54,
                    "time": 36.59999999999995,
                    "velocity": 0.25196850393700787,
                    "duration": 0.14999999999999858
                },
                {
                    "name": "A#4",
                    "midi": 70,
                    "time": 37.72499999999995,
                    "velocity": 0.4094488188976378,
                    "duration": 0.07500000000000284
                },
                {
                    "name": "A4",
                    "midi": 69,
                    "time": 37.799999999999955,
                    "velocity": 0.48031496062992124,
                    "duration": 0.5249999999999986
                },
                {
                    "name": "A#5",
                    "midi": 82,
                    "time": 38.924999999999955,
                    "velocity": 0.48031496062992124,
                    "duration": 0.07500000000000284
                },
                {
                    "name": "A5",
                    "midi": 81,
                    "time": 38.99999999999996,
                    "velocity": 0.5669291338582677,
                    "duration": 0.5249999999999986
                },
                {
                    "name": "G4",
                    "midi": 67,
                    "time": 39.899999999999956,
                    "velocity": 0.30708661417322836,
                    "duration": 0.8999999999999915
                },
                {
                    "name": "D5",
                    "midi": 74,
                    "time": 39.899999999999956,
                    "velocity": 0.3779527559055118,
                    "duration": 0.8974999999999937
                },
                {
                    "name": "C5",
                    "midi": 72,
                    "time": 40.19999999999995,
                    "velocity": 0.4094488188976378,
                    "duration": 0.29999999999999716
                },
                {
                    "name": "A4",
                    "midi": 69,
                    "time": 40.49999999999995,
                    "velocity": 0.3779527559055118,
                    "duration": 0.29999999999999716
                },
                {
                    "name": "G3",
                    "midi": 55,
                    "time": 41.099999999999945,
                    "velocity": 0.28346456692913385,
                    "duration": 0.8999999999999915
                },
                {
                    "name": "D4",
                    "midi": 62,
                    "time": 41.099999999999945,
                    "velocity": 0.3464566929133858,
                    "duration": 0.8999999999999915
                },
                {
                    "name": "C4",
                    "midi": 60,
                    "time": 41.39999999999994,
                    "velocity": 0.3937007874015748,
                    "duration": 0.29999999999999716
                },
                {
                    "name": "A3",
                    "midi": 57,
                    "time": 41.69999999999994,
                    "velocity": 0.36220472440944884,
                    "duration": 0.29999999999999716
                },
                {
                    "name": "G4",
                    "midi": 67,
                    "time": 42.29999999999993,
                    "velocity": 0.4330708661417323,
                    "duration": 0.14999999999999858
                },
                {
                    "name": "A4",
                    "midi": 69,
                    "time": 42.29999999999993,
                    "velocity": 0.5196850393700787,
                    "duration": 0.29749999999999943
                },
                {
                    "name": "F#4",
                    "midi": 66,
                    "time": 42.44999999999993,
                    "velocity": 0.4015748031496063,
                    "duration": 0.14999999999999858
                },
                {
                    "name": "D4",
                    "midi": 62,
                    "time": 42.59999999999993,
                    "velocity": 0.41732283464566927,
                    "duration": 0.14999999999999858
                },
                {
                    "name": "G3",
                    "midi": 55,
                    "time": 42.89999999999993,
                    "velocity": 0.33858267716535434,
                    "duration": 0.14999999999999858
                },
                {
                    "name": "A3",
                    "midi": 57,
                    "time": 42.89999999999993,
                    "velocity": 0.4094488188976378,
                    "duration": 0.29749999999999943
                },
                {
                    "name": "F#3",
                    "midi": 54,
                    "time": 43.049999999999926,
                    "velocity": 0.29133858267716534,
                    "duration": 0.14999999999999858
                },
                {
                    "name": "D3",
                    "midi": 50,
                    "time": 43.199999999999925,
                    "velocity": 0.31496062992125984,
                    "duration": 0.14999999999999858
                },
                {
                    "name": "D2",
                    "midi": 38,
                    "time": 43.49999999999992,
                    "velocity": 0.23622047244094488,
                    "duration": 0.14999999999999858
                },
                {
                    "name": "G1",
                    "midi": 31,
                    "time": 43.79999999999992,
                    "velocity": 0.2047244094488189,
                    "duration": 0.6000000000000014
                },
                {
                    "name": "G2",
                    "midi": 43,
                    "time": 43.79999999999992,
                    "velocity": 0.2440944881889764,
                    "duration": 0.6000000000000014
                }
            ],
            "controlChanges": {},
            "id": 2,
            "name": "Piano left",
            "instrumentNumber": 0,
            "instrument": "acoustic grand piano",
            "instrumentFamily": "piano",
            "channelNumber": 0,
            "isPercussion": false
        },
        {
            "startTime": 0,
            "duration": 0,
            "length": 0,
            "notes": [],
            "controlChanges": {
                "64": [
                    {
                        "number": 64,
                        "time": 1.2574999999999998,
                        "value": 1
                    },
                    {
                        "number": 64,
                        "time": 1.815,
                        "value": 0
                    },
                    {
                        "number": 64,
                        "time": 1.9575,
                        "value": 1
                    },
                    {
                        "number": 64,
                        "time": 2.1125,
                        "value": 0
                    },
                    {
                        "number": 64,
                        "time": 2.215,
                        "value": 1
                    },
                    {
                        "number": 64,
                        "time": 2.35125,
                        "value": 0
                    },
                    {
                        "number": 64,
                        "time": 2.4575,
                        "value": 1
                    },
                    {
                        "number": 64,
                        "time": 3.015,
                        "value": 0
                    },
                    {
                        "number": 64,
                        "time": 3.1575,
                        "value": 1
                    },
                    {
                        "number": 64,
                        "time": 3.3125,
                        "value": 0
                    },
                    {
                        "number": 64,
                        "time": 3.415,
                        "value": 1
                    },
                    {
                        "number": 64,
                        "time": 3.53375,
                        "value": 0
                    },
                    {
                        "number": 64,
                        "time": 3.6,
                        "value": 1
                    },
                    {
                        "number": 64,
                        "time": 4.20875,
                        "value": 0
                    },
                    {
                        "number": 64,
                        "time": 4.2625,
                        "value": 1
                    },
                    {
                        "number": 64,
                        "time": 4.8,
                        "value": 0
                    },
                    {
                        "number": 64,
                        "time": 4.9075,
                        "value": 1
                    },
                    {
                        "number": 64,
                        "time": 5.4125,
                        "value": 0
                    },
                    {
                        "number": 64,
                        "time": 5.543749999999999,
                        "value": 1
                    },
                    {
                        "number": 64,
                        "time": 5.9125,
                        "value": 0
                    },
                    {
                        "number": 64,
                        "time": 6.057499999999999,
                        "value": 1
                    },
                    {
                        "number": 64,
                        "time": 6.614999999999999,
                        "value": 0
                    },
                    {
                        "number": 64,
                        "time": 6.757499999999999,
                        "value": 1
                    },
                    {
                        "number": 64,
                        "time": 6.9125,
                        "value": 0
                    },
                    {
                        "number": 64,
                        "time": 7.015,
                        "value": 1
                    },
                    {
                        "number": 64,
                        "time": 7.151249999999999,
                        "value": 0
                    },
                    {
                        "number": 64,
                        "time": 7.257499999999999,
                        "value": 1
                    },
                    {
                        "number": 64,
                        "time": 7.8149999999999995,
                        "value": 0
                    },
                    {
                        "number": 64,
                        "time": 7.9575,
                        "value": 1
                    },
                    {
                        "number": 64,
                        "time": 8.112499999999999,
                        "value": 0
                    },
                    {
                        "number": 64,
                        "time": 8.214999999999998,
                        "value": 1
                    },
                    {
                        "number": 64,
                        "time": 8.333749999999998,
                        "value": 0
                    },
                    {
                        "number": 64,
                        "time": 8.399999999999999,
                        "value": 1
                    },
                    {
                        "number": 64,
                        "time": 9.00875,
                        "value": 0
                    },
                    {
                        "number": 64,
                        "time": 9.0625,
                        "value": 1
                    },
                    {
                        "number": 64,
                        "time": 9.6,
                        "value": 0
                    },
                    {
                        "number": 64,
                        "time": 9.7075,
                        "value": 1
                    },
                    {
                        "number": 64,
                        "time": 10.2125,
                        "value": 0
                    },
                    {
                        "number": 64,
                        "time": 10.34375,
                        "value": 1
                    },
                    {
                        "number": 64,
                        "time": 10.7125,
                        "value": 0
                    },
                    {
                        "number": 64,
                        "time": 11.20625,
                        "value": 1
                    },
                    {
                        "number": 64,
                        "time": 11.416250000000002,
                        "value": 0
                    },
                    {
                        "number": 64,
                        "time": 11.5675,
                        "value": 1
                    },
                    {
                        "number": 64,
                        "time": 12.008750000000001,
                        "value": 0
                    },
                    {
                        "number": 64,
                        "time": 12.115,
                        "value": 1
                    },
                    {
                        "number": 64,
                        "time": 12.61375,
                        "value": 0
                    },
                    {
                        "number": 64,
                        "time": 12.715,
                        "value": 1
                    },
                    {
                        "number": 64,
                        "time": 13.2,
                        "value": 0
                    },
                    {
                        "number": 64,
                        "time": 13.306249999999999,
                        "value": 1
                    },
                    {
                        "number": 64,
                        "time": 13.509999999999998,
                        "value": 0
                    },
                    {
                        "number": 64,
                        "time": 13.641249999999998,
                        "value": 1
                    },
                    {
                        "number": 64,
                        "time": 15.308749999999998,
                        "value": 0
                    },
                    {
                        "number": 64,
                        "time": 16.006249999999998,
                        "value": 1
                    },
                    {
                        "number": 64,
                        "time": 16.209999999999997,
                        "value": 0
                    },
                    {
                        "number": 64,
                        "time": 16.367499999999996,
                        "value": 1
                    },
                    {
                        "number": 64,
                        "time": 16.808749999999996,
                        "value": 0
                    },
                    {
                        "number": 64,
                        "time": 16.914999999999996,
                        "value": 1
                    },
                    {
                        "number": 64,
                        "time": 17.413749999999997,
                        "value": 0
                    },
                    {
                        "number": 64,
                        "time": 17.514999999999997,
                        "value": 1
                    },
                    {
                        "number": 64,
                        "time": 17.999999999999996,
                        "value": 0
                    },
                    {
                        "number": 64,
                        "time": 18.114999999999995,
                        "value": 1
                    },
                    {
                        "number": 64,
                        "time": 18.308749999999996,
                        "value": 0
                    },
                    {
                        "number": 64,
                        "time": 18.441249999999997,
                        "value": 1
                    },
                    {
                        "number": 64,
                        "time": 20.099999999999998,
                        "value": 0
                    },
                    {
                        "number": 64,
                        "time": 22.857499999999998,
                        "value": 1
                    },
                    {
                        "number": 64,
                        "time": 23.415,
                        "value": 0
                    },
                    {
                        "number": 64,
                        "time": 23.557499999999997,
                        "value": 1
                    },
                    {
                        "number": 64,
                        "time": 23.7125,
                        "value": 0
                    },
                    {
                        "number": 64,
                        "time": 23.814999999999998,
                        "value": 1
                    },
                    {
                        "number": 64,
                        "time": 23.951249999999998,
                        "value": 0
                    },
                    {
                        "number": 64,
                        "time": 24.057499999999997,
                        "value": 1
                    },
                    {
                        "number": 64,
                        "time": 24.615,
                        "value": 0
                    },
                    {
                        "number": 64,
                        "time": 24.757499999999997,
                        "value": 1
                    },
                    {
                        "number": 64,
                        "time": 24.912499999999998,
                        "value": 0
                    },
                    {
                        "number": 64,
                        "time": 25.014999999999997,
                        "value": 1
                    },
                    {
                        "number": 64,
                        "time": 25.133749999999996,
                        "value": 0
                    },
                    {
                        "number": 64,
                        "time": 25.199999999999996,
                        "value": 1
                    },
                    {
                        "number": 64,
                        "time": 25.808749999999996,
                        "value": 0
                    },
                    {
                        "number": 64,
                        "time": 25.862499999999997,
                        "value": 1
                    },
                    {
                        "number": 64,
                        "time": 26.4,
                        "value": 0
                    },
                    {
                        "number": 64,
                        "time": 26.5075,
                        "value": 1
                    },
                    {
                        "number": 64,
                        "time": 27.0125,
                        "value": 0
                    },
                    {
                        "number": 64,
                        "time": 27.14375,
                        "value": 1
                    },
                    {
                        "number": 64,
                        "time": 27.5125,
                        "value": 0
                    },
                    {
                        "number": 64,
                        "time": 28.006249999999998,
                        "value": 1
                    },
                    {
                        "number": 64,
                        "time": 28.21625,
                        "value": 0
                    },
                    {
                        "number": 64,
                        "time": 28.3675,
                        "value": 1
                    },
                    {
                        "number": 64,
                        "time": 28.80875,
                        "value": 0
                    },
                    {
                        "number": 64,
                        "time": 28.915,
                        "value": 1
                    },
                    {
                        "number": 64,
                        "time": 29.41375,
                        "value": 0
                    },
                    {
                        "number": 64,
                        "time": 29.515,
                        "value": 1
                    },
                    {
                        "number": 64,
                        "time": 30,
                        "value": 0
                    },
                    {
                        "number": 64,
                        "time": 30.10625,
                        "value": 1
                    },
                    {
                        "number": 64,
                        "time": 30.31,
                        "value": 0
                    },
                    {
                        "number": 64,
                        "time": 30.44125,
                        "value": 1
                    },
                    {
                        "number": 64,
                        "time": 32.10875,
                        "value": 0
                    },
                    {
                        "number": 64,
                        "time": 32.80625,
                        "value": 1
                    },
                    {
                        "number": 64,
                        "time": 33.01,
                        "value": 0
                    },
                    {
                        "number": 64,
                        "time": 33.1675,
                        "value": 1
                    },
                    {
                        "number": 64,
                        "time": 33.60874999999999,
                        "value": 0
                    },
                    {
                        "number": 64,
                        "time": 33.714999999999996,
                        "value": 1
                    },
                    {
                        "number": 64,
                        "time": 34.21375,
                        "value": 0
                    },
                    {
                        "number": 64,
                        "time": 34.315,
                        "value": 1
                    },
                    {
                        "number": 64,
                        "time": 34.8,
                        "value": 0
                    },
                    {
                        "number": 64,
                        "time": 34.915,
                        "value": 1
                    },
                    {
                        "number": 64,
                        "time": 35.10875,
                        "value": 0
                    },
                    {
                        "number": 64,
                        "time": 35.24125,
                        "value": 1
                    },
                    {
                        "number": 64,
                        "time": 36.9,
                        "value": 0
                    },
                    {
                        "number": 64,
                        "time": 39.6575,
                        "value": 1
                    },
                    {
                        "number": 64,
                        "time": 40.214999999999996,
                        "value": 0
                    },
                    {
                        "number": 64,
                        "time": 40.357499999999995,
                        "value": 1
                    },
                    {
                        "number": 64,
                        "time": 40.512499999999996,
                        "value": 0
                    },
                    {
                        "number": 64,
                        "time": 40.614999999999995,
                        "value": 1
                    },
                    {
                        "number": 64,
                        "time": 40.75124999999999,
                        "value": 0
                    },
                    {
                        "number": 64,
                        "time": 40.857499999999995,
                        "value": 1
                    },
                    {
                        "number": 64,
                        "time": 41.41499999999999,
                        "value": 0
                    },
                    {
                        "number": 64,
                        "time": 41.55749999999999,
                        "value": 1
                    },
                    {
                        "number": 64,
                        "time": 41.71249999999999,
                        "value": 0
                    },
                    {
                        "number": 64,
                        "time": 41.81499999999999,
                        "value": 1
                    },
                    {
                        "number": 64,
                        "time": 41.93374999999999,
                        "value": 0
                    },
                    {
                        "number": 64,
                        "time": 41.999999999999986,
                        "value": 1
                    },
                    {
                        "number": 64,
                        "time": 42.608749999999986,
                        "value": 0
                    },
                    {
                        "number": 64,
                        "time": 42.66249999999999,
                        "value": 1
                    },
                    {
                        "number": 64,
                        "time": 43.19999999999999,
                        "value": 0
                    },
                    {
                        "number": 64,
                        "time": 43.30749999999999,
                        "value": 1
                    },
                    {
                        "number": 64,
                        "time": 43.81499999999999,
                        "value": 0
                    },
                    {
                        "number": 64,
                        "time": 43.94374999999999,
                        "value": 1
                    },
                    {
                        "number": 64,
                        "time": 44.399999999999984,
                        "value": 0
                    }
                ]
            },
            "id": 3,
            "name": "Pedale",
            "instrumentNumber": 0,
            "instrument": "acoustic grand piano",
            "instrumentFamily": "piano",
            "channelNumber": 0,
            "isPercussion": false
        },
        {
            "startTime": 0,
            "duration": 0,
            "length": 0,
            "notes": [],
            "controlChanges": {},
            "id": 4,
            "name": "Grieg: Lyric pieces Book II Opus 38 No. 4 - Halling"
        },
        {
            "startTime": 0,
            "duration": 0,
            "length": 0,
            "notes": [],
            "controlChanges": {},
            "id": 5,
            "name": "Copyright  2007 by Bernd Krueger"
        },
        {
            "startTime": 0,
            "duration": 0,
            "length": 0,
            "notes": [],
            "controlChanges": {},
            "id": 6,
            "name": "http://www.piano-midi.de/"
        },
        {
            "startTime": 0,
            "duration": 0,
            "length": 0,
            "notes": [],
            "controlChanges": {},
            "id": 7,
            "name": "Edition: 2012-11-03"
        },
        {
            "startTime": 0,
            "duration": 0,
            "length": 0,
            "notes": [],
            "controlChanges": {},
            "id": 8,
            "name": "Spur 8"
        },
        {
            "startTime": 0,
            "duration": 0,
            "length": 0,
            "notes": [],
            "controlChanges": {},
            "id": 9,
            "name": "Spur 9"
        },
        {
            "startTime": 0,
            "duration": 0,
            "length": 0,
            "notes": [],
            "controlChanges": {},
            "id": 10,
            "name": "Spur 10"
        },
        {
            "startTime": 0,
            "duration": 0,
            "length": 0,
            "notes": [],
            "controlChanges": {},
            "id": 11,
            "name": "Spur 11"
        },
        {
            "startTime": 0,
            "duration": 0,
            "length": 0,
            "notes": [],
            "controlChanges": {},
            "id": 12,
            "name": "Spur 12"
        },
        {
            "startTime": 0,
            "duration": 0,
            "length": 0,
            "notes": [],
            "controlChanges": {},
            "id": 13,
            "name": "Spur 13"
        },
        {
            "startTime": 0,
            "duration": 0,
            "length": 0,
            "notes": [],
            "controlChanges": {},
            "id": 14,
            "name": "Spur 14"
        },
        {
            "startTime": 0,
            "duration": 0,
            "length": 0,
            "notes": [],
            "controlChanges": {},
            "id": 15,
            "name": "Spur 15"
        },
        {
            "startTime": 0,
            "duration": 0,
            "length": 0,
            "notes": [],
            "controlChanges": {},
            "id": 16,
            "name": "Spur 16"
        }
    ]
}