{
    "header": {
        "PPQ": 480,
        "timeSignature": [
            4,
            4
        ],
        "bpm": 136.0001450668214,
        "name": "Rhapsodie Nr. 12"
    },
    "startTime": 0,
    "duration": 327.5731799999907,
    "tracks": [
        {
            "startTime": 0,
            "duration": 0,
            "length": 0,
            "notes": [],
            "controlChanges": {},
            "id": 0,
            "name": "Rhapsodie Nr. 12"
        },
        {
            "startTime": 3.749996,
            "duration": 327.5731799999877,
            "length": 4020,
            "notes": [
                {
                    "name": "A#2",
                    "midi": 46,
                    "time": 3.749996,
                    "velocity": 0.3464566929133858,
                    "duration": 0.03676466666666656
                },
                {
                    "name": "C#3",
                    "midi": 49,
                    "time": 3.7867606666666664,
                    "velocity": 0.2992125984251969,
                    "duration": 0.03676466666666656
                },
                {
                    "name": "A#2",
                    "midi": 46,
                    "time": 3.823525333333333,
                    "velocity": 0.3543307086614173,
                    "duration": 0.03676466666666656
                },
                {
                    "name": "C#3",
                    "midi": 49,
                    "time": 3.8602899999999996,
                    "velocity": 0.30708661417322836,
                    "duration": 0.03676466666666656
                },
                {
                    "name": "A#2",
                    "midi": 46,
                    "time": 3.897054666666666,
                    "velocity": 0.36220472440944884,
                    "duration": 0.055146999999999835
                },
                {
                    "name": "C#3",
                    "midi": 49,
                    "time": 3.9338193333333327,
                    "velocity": 0.33070866141732286,
                    "duration": 0.03676466666666656
                },
                {
                    "name": "A#2",
                    "midi": 46,
                    "time": 3.9705839999999992,
                    "velocity": 0.3700787401574803,
                    "duration": 0.036764666666667
                },
                {
                    "name": "C#3",
                    "midi": 49,
                    "time": 4.007348666666666,
                    "velocity": 0.33070866141732286,
                    "duration": 0.03676466666666656
                },
                {
                    "name": "A#2",
                    "midi": 46,
                    "time": 4.044113333333333,
                    "velocity": 0.3779527559055118,
                    "duration": 0.03676466666666656
                },
                {
                    "name": "C#3",
                    "midi": 49,
                    "time": 4.080877999999999,
                    "velocity": 0.3464566929133858,
                    "duration": 0.03676466666666656
                },
                {
                    "name": "A#2",
                    "midi": 46,
                    "time": 4.117642666666666,
                    "velocity": 0.3937007874015748,
                    "duration": 0.055146999999999835
                },
                {
                    "name": "C#3",
                    "midi": 49,
                    "time": 4.1544073333333325,
                    "velocity": 0.3543307086614173,
                    "duration": 0.03676466666666656
                },
                {
                    "name": "A#2",
                    "midi": 46,
                    "time": 4.191171999999999,
                    "velocity": 0.4015748031496063,
                    "duration": 0.03676466666666656
                },
                {
                    "name": "C#3",
                    "midi": 49,
                    "time": 4.227936666666666,
                    "velocity": 0.36220472440944884,
                    "duration": 0.03676466666666656
                },
                {
                    "name": "A#2",
                    "midi": 46,
                    "time": 4.264701333333332,
                    "velocity": 0.4094488188976378,
                    "duration": 0.03676466666666656
                },
                {
                    "name": "C#3",
                    "midi": 49,
                    "time": 4.301465999999999,
                    "velocity": 0.3700787401574803,
                    "duration": 0.03676466666666656
                },
                {
                    "name": "A#2",
                    "midi": 46,
                    "time": 4.338230666666665,
                    "velocity": 0.41732283464566927,
                    "duration": 0.055146999999999835
                },
                {
                    "name": "C#3",
                    "midi": 49,
                    "time": 4.374995333333332,
                    "velocity": 0.3779527559055118,
                    "duration": 0.03676466666666656
                },
                {
                    "name": "A#2",
                    "midi": 46,
                    "time": 4.411759999999998,
                    "velocity": 0.4330708661417323,
                    "duration": 0.03676466666666656
                },
                {
                    "name": "C#3",
                    "midi": 49,
                    "time": 4.448524666666665,
                    "velocity": 0.3858267716535433,
                    "duration": 0.03676466666666656
                },
                {
                    "name": "A#2",
                    "midi": 46,
                    "time": 4.4852893333333315,
                    "velocity": 0.4409448818897638,
                    "duration": 0.03676466666666656
                },
                {
                    "name": "C#3",
                    "midi": 49,
                    "time": 4.522053999999998,
                    "velocity": 0.3937007874015748,
                    "duration": 0.03676466666666656
                },
                {
                    "name": "A#2",
                    "midi": 46,
                    "time": 4.558818666666665,
                    "velocity": 0.44881889763779526,
                    "duration": 0.055146999999999835
                },
                {
                    "name": "C#3",
                    "midi": 49,
                    "time": 4.595583333333331,
                    "velocity": 0.4015748031496063,
                    "duration": 0.03676466666666656
                },
                {
                    "name": "A#2",
                    "midi": 46,
                    "time": 4.632347999999998,
                    "velocity": 0.4566929133858268,
                    "duration": 0.03676466666666656
                },
                {
                    "name": "C#3",
                    "midi": 49,
                    "time": 4.669112666666664,
                    "velocity": 0.4330708661417323,
                    "duration": 0.03676466666666656
                },
                {
                    "name": "A#2",
                    "midi": 46,
                    "time": 4.705877333333331,
                    "velocity": 0.47244094488188976,
                    "duration": 0.03676466666666656
                },
                {
                    "name": "C#3",
                    "midi": 49,
                    "time": 4.742641999999997,
                    "velocity": 0.41732283464566927,
                    "duration": 0.03676466666666656
                },
                {
                    "name": "A#2",
                    "midi": 46,
                    "time": 4.779406666666664,
                    "velocity": 0.48031496062992124,
                    "duration": 0.055146999999999835
                },
                {
                    "name": "C#3",
                    "midi": 49,
                    "time": 4.8161713333333305,
                    "velocity": 0.4251968503937008,
                    "duration": 0.03676466666666656
                },
                {
                    "name": "A#2",
                    "midi": 46,
                    "time": 4.852935999999997,
                    "velocity": 0.4881889763779528,
                    "duration": 0.03676466666666656
                },
                {
                    "name": "C#3",
                    "midi": 49,
                    "time": 4.889700666666664,
                    "velocity": 0.4566929133858268,
                    "duration": 0.03676466666666656
                },
                {
                    "name": "A#2",
                    "midi": 46,
                    "time": 4.92646533333333,
                    "velocity": 0.49606299212598426,
                    "duration": 0.03676466666666656
                },
                {
                    "name": "C#3",
                    "midi": 49,
                    "time": 4.963229999999997,
                    "velocity": 0.4645669291338583,
                    "duration": 0.03676466666666656
                },
                {
                    "name": "A#2",
                    "midi": 46,
                    "time": 4.999994666666663,
                    "velocity": 0.5275590551181102,
                    "duration": 0.055146999999999835
                },
                {
                    "name": "C#3",
                    "midi": 49,
                    "time": 5.03675933333333,
                    "velocity": 0.5511811023622047,
                    "duration": 0.03676466666666656
                },
                {
                    "name": "A#2",
                    "midi": 46,
                    "time": 5.073523999999996,
                    "velocity": 0.5748031496062992,
                    "duration": 0.03676466666666656
                },
                {
                    "name": "C#3",
                    "midi": 49,
                    "time": 5.110288666666663,
                    "velocity": 0.5984251968503937,
                    "duration": 0.03676466666666656
                },
                {
                    "name": "A#2",
                    "midi": 46,
                    "time": 5.1470533333333295,
                    "velocity": 0.6220472440944882,
                    "duration": 0.03676466666666656
                },
                {
                    "name": "C#3",
                    "midi": 49,
                    "time": 5.183817999999996,
                    "velocity": 0.6456692913385826,
                    "duration": 0.03676466666666656
                },
                {
                    "name": "A#2",
                    "midi": 46,
                    "time": 5.220582666666663,
                    "velocity": 0.6692913385826772,
                    "duration": 0.055146999999999835
                },
                {
                    "name": "C#3",
                    "midi": 49,
                    "time": 5.257347333333329,
                    "velocity": 0.6929133858267716,
                    "duration": 0.03676466666666656
                },
                {
                    "name": "A2",
                    "midi": 45,
                    "time": 5.312494333333329,
                    "velocity": 0.6614173228346457,
                    "duration": 0.03676466666666656
                },
                {
                    "name": "C3",
                    "midi": 48,
                    "time": 5.312494333333329,
                    "velocity": 0.7401574803149606,
                    "duration": 0.03676466666666656
                },
                {
                    "name": "A#2",
                    "midi": 46,
                    "time": 5.3492589999999955,
                    "velocity": 0.7086614173228346,
                    "duration": 0.11029399999999967
                },
                {
                    "name": "C#3",
                    "midi": 49,
                    "time": 5.3492589999999955,
                    "velocity": 0.7874015748031497,
                    "duration": 0.11029399999999967
                },
                {
                    "name": "G#4",
                    "midi": 68,
                    "time": 7.022051333333328,
                    "velocity": 0.5826771653543307,
                    "duration": 0.027573499999999918
                },
                {
                    "name": "G#3",
                    "midi": 56,
                    "time": 7.022051333333328,
                    "velocity": 0.5118110236220472,
                    "duration": 0.027573499999999918
                },
                {
                    "name": "G#3",
                    "midi": 56,
                    "time": 7.058815999999995,
                    "velocity": 0.5669291338582677,
                    "duration": 0.38602899999999973
                },
                {
                    "name": "G#4",
                    "midi": 68,
                    "time": 7.058815999999995,
                    "velocity": 0.6456692913385826,
                    "duration": 0.38602899999999973
                },
                {
                    "name": "C#4",
                    "midi": 61,
                    "time": 7.463227333333328,
                    "velocity": 0.49606299212598426,
                    "duration": 0.027573499999999918
                },
                {
                    "name": "C#5",
                    "midi": 73,
                    "time": 7.463227333333328,
                    "velocity": 0.5669291338582677,
                    "duration": 0.027573499999999918
                },
                {
                    "name": "C#4",
                    "midi": 61,
                    "time": 7.499991999999994,
                    "velocity": 0.5590551181102362,
                    "duration": 0.38602899999999973
                },
                {
                    "name": "C#5",
                    "midi": 73,
                    "time": 7.499991999999994,
                    "velocity": 0.6377952755905512,
                    "duration": 0.38602899999999973
                },
                {
                    "name": "B3",
                    "midi": 59,
                    "time": 7.9044033333333275,
                    "velocity": 0.5039370078740157,
                    "duration": 0.027573499999999918
                },
                {
                    "name": "B4",
                    "midi": 71,
                    "time": 7.9044033333333275,
                    "velocity": 0.5748031496062992,
                    "duration": 0.027573499999999918
                },
                {
                    "name": "B3",
                    "midi": 59,
                    "time": 7.941167999999994,
                    "velocity": 0.5511811023622047,
                    "duration": 0.1654409999999995
                },
                {
                    "name": "B4",
                    "midi": 71,
                    "time": 7.941167999999994,
                    "velocity": 0.6299212598425197,
                    "duration": 0.1654409999999995
                },
                {
                    "name": "A#3",
                    "midi": 58,
                    "time": 8.124991333333327,
                    "velocity": 0.5118110236220472,
                    "duration": 0.027573500000000806
                },
                {
                    "name": "A#4",
                    "midi": 70,
                    "time": 8.124991333333327,
                    "velocity": 0.5826771653543307,
                    "duration": 0.027573500000000806
                },
                {
                    "name": "A#3",
                    "midi": 58,
                    "time": 8.161755999999995,
                    "velocity": 0.5511811023622047,
                    "duration": 0.1654409999999995
                },
                {
                    "name": "A#4",
                    "midi": 70,
                    "time": 8.161755999999995,
                    "velocity": 0.6299212598425197,
                    "duration": 0.1654409999999995
                },
                {
                    "name": "G#3",
                    "midi": 56,
                    "time": 8.345579333333328,
                    "velocity": 0.5118110236220472,
                    "duration": 0.027573500000000806
                },
                {
                    "name": "G#4",
                    "midi": 68,
                    "time": 8.345579333333328,
                    "velocity": 0.5826771653543307,
                    "duration": 0.027573500000000806
                },
                {
                    "name": "G#3",
                    "midi": 56,
                    "time": 8.382343999999996,
                    "velocity": 0.5590551181102362,
                    "duration": 0.1654409999999995
                },
                {
                    "name": "G#4",
                    "midi": 68,
                    "time": 8.382343999999996,
                    "velocity": 0.6377952755905512,
                    "duration": 0.1654409999999995
                },
                {
                    "name": "G4",
                    "midi": 67,
                    "time": 8.566167333333329,
                    "velocity": 0.5748031496062992,
                    "duration": 0.027573500000000806
                },
                {
                    "name": "G3",
                    "midi": 55,
                    "time": 8.566167333333329,
                    "velocity": 0.5039370078740157,
                    "duration": 0.027573500000000806
                },
                {
                    "name": "G3",
                    "midi": 55,
                    "time": 8.602931999999997,
                    "velocity": 0.5511811023622047,
                    "duration": 0.1654409999999995
                },
                {
                    "name": "G4",
                    "midi": 67,
                    "time": 8.602931999999997,
                    "velocity": 0.6299212598425197,
                    "duration": 0.1654409999999995
                },
                {
                    "name": "G#3",
                    "midi": 56,
                    "time": 8.78675533333333,
                    "velocity": 0.49606299212598426,
                    "duration": 0.027573500000000806
                },
                {
                    "name": "G#4",
                    "midi": 68,
                    "time": 8.78675533333333,
                    "velocity": 0.5669291338582677,
                    "duration": 0.027573500000000806
                },
                {
                    "name": "G#3",
                    "midi": 56,
                    "time": 8.823519999999998,
                    "velocity": 0.5590551181102362,
                    "duration": 0.11029399999999967
                },
                {
                    "name": "G#4",
                    "midi": 68,
                    "time": 8.823519999999998,
                    "velocity": 0.6377952755905512,
                    "duration": 0.11029399999999967
                },
                {
                    "name": "D3",
                    "midi": 50,
                    "time": 9.044107999999998,
                    "velocity": 0.3464566929133858,
                    "duration": 0.03676466666666656
                },
                {
                    "name": "B2",
                    "midi": 47,
                    "time": 9.044107999999998,
                    "velocity": 0.3464566929133858,
                    "duration": 0.03676466666666656
                },
                {
                    "name": "G#3",
                    "midi": 56,
                    "time": 9.080872666666664,
                    "velocity": 0.2992125984251969,
                    "duration": 0.03676466666666656
                },
                {
                    "name": "D3",
                    "midi": 50,
                    "time": 9.117637333333331,
                    "velocity": 0.3543307086614173,
                    "duration": 0.03676466666666656
                },
                {
                    "name": "B2",
                    "midi": 47,
                    "time": 9.117637333333331,
                    "velocity": 0.3543307086614173,
                    "duration": 0.03676466666666656
                },
                {
                    "name": "G#3",
                    "midi": 56,
                    "time": 9.154401999999997,
                    "velocity": 0.30708661417322836,
                    "duration": 0.03676466666666656
                },
                {
                    "name": "D3",
                    "midi": 50,
                    "time": 9.191166666666664,
                    "velocity": 0.36220472440944884,
                    "duration": 0.055146999999999835
                },
                {
                    "name": "B2",
                    "midi": 47,
                    "time": 9.191166666666664,
                    "velocity": 0.36220472440944884,
                    "duration": 0.055146999999999835
                },
                {
                    "name": "G#3",
                    "midi": 56,
                    "time": 9.22793133333333,
                    "velocity": 0.33070866141732286,
                    "duration": 0.03676466666666656
                },
                {
                    "name": "D3",
                    "midi": 50,
                    "time": 9.264695999999997,
                    "velocity": 0.3700787401574803,
                    "duration": 0.03676466666666656
                },
                {
                    "name": "B2",
                    "midi": 47,
                    "time": 9.264695999999997,
                    "velocity": 0.3700787401574803,
                    "duration": 0.03676466666666656
                },
                {
                    "name": "G#3",
                    "midi": 56,
                    "time": 9.301460666666664,
                    "velocity": 0.33070866141732286,
                    "duration": 0.03676466666666656
                },
                {
                    "name": "D3",
                    "midi": 50,
                    "time": 9.33822533333333,
                    "velocity": 0.3779527559055118,
                    "duration": 0.03676466666666656
                },
                {
                    "name": "B2",
                    "midi": 47,
                    "time": 9.33822533333333,
                    "velocity": 0.3779527559055118,
                    "duration": 0.03676466666666656
                },
                {
                    "name": "G#3",
                    "midi": 56,
                    "time": 9.374989999999997,
                    "velocity": 0.3464566929133858,
                    "duration": 0.03676466666666656
                },
                {
                    "name": "D3",
                    "midi": 50,
                    "time": 9.411754666666663,
                    "velocity": 0.3937007874015748,
                    "duration": 0.055146999999999835
                },
                {
                    "name": "B2",
                    "midi": 47,
                    "time": 9.411754666666663,
                    "velocity": 0.3937007874015748,
                    "duration": 0.055146999999999835
                },
                {
                    "name": "G#3",
                    "midi": 56,
                    "time": 9.44851933333333,
                    "velocity": 0.3543307086614173,
                    "duration": 0.03676466666666656
                },
                {
                    "name": "D3",
                    "midi": 50,
                    "time": 9.485283999999996,
                    "velocity": 0.4015748031496063,
                    "duration": 0.03676466666666656
                },
                {
                    "name": "B2",
                    "midi": 47,
                    "time": 9.485283999999996,
                    "velocity": 0.4015748031496063,
                    "duration": 0.03676466666666656
                },
                {
                    "name": "G#3",
                    "midi": 56,
                    "time": 9.522048666666663,
                    "velocity": 0.36220472440944884,
                    "duration": 0.03676466666666656
                },
                {
                    "name": "D3",
                    "midi": 50,
                    "time": 9.55881333333333,
                    "velocity": 0.4094488188976378,
                    "duration": 0.03676466666666656
                },
                {
                    "name": "B2",
                    "midi": 47,
                    "time": 9.55881333333333,
                    "velocity": 0.4094488188976378,
                    "duration": 0.03676466666666656
                },
                {
                    "name": "G#3",
                    "midi": 56,
                    "time": 9.595577999999996,
                    "velocity": 0.3700787401574803,
                    "duration": 0.03676466666666656
                },
                {
                    "name": "D3",
                    "midi": 50,
                    "time": 9.632342666666663,
                    "velocity": 0.41732283464566927,
                    "duration": 0.055146999999999835
                },
                {
                    "name": "B2",
                    "midi": 47,
                    "time": 9.632342666666663,
                    "velocity": 0.41732283464566927,
                    "duration": 0.055146999999999835
                },
                {
                    "name": "G#3",
                    "midi": 56,
                    "time": 9.66910733333333,
                    "velocity": 0.3779527559055118,
                    "duration": 0.03676466666666656
                },
                {
                    "name": "D3",
                    "midi": 50,
                    "time": 9.705871999999996,
                    "velocity": 0.4330708661417323,
                    "duration": 0.03676466666666656
                },
                {
                    "name": "B2",
                    "midi": 47,
                    "time": 9.705871999999996,
                    "velocity": 0.4330708661417323,
                    "duration": 0.03676466666666656
                },
                {
                    "name": "G#3",
                    "midi": 56,
                    "time": 9.742636666666662,
                    "velocity": 0.3858267716535433,
                    "duration": 0.03676466666666656
                },
                {
                    "name": "D3",
                    "midi": 50,
                    "time": 9.779401333333329,
                    "velocity": 0.4409448818897638,
                    "duration": 0.03676466666666656
                },
                {
                    "name": "B2",
                    "midi": 47,
                    "time": 9.779401333333329,
                    "velocity": 0.4409448818897638,
                    "duration": 0.03676466666666656
                },
                {
                    "name": "G#3",
                    "midi": 56,
                    "time": 9.816165999999996,
                    "velocity": 0.3937007874015748,
                    "duration": 0.03676466666666656
                },
                {
                    "name": "D3",
                    "midi": 50,
                    "time": 9.852930666666662,
                    "velocity": 0.44881889763779526,
                    "duration": 0.055146999999999835
                },
                {
                    "name": "B2",
                    "midi": 47,
                    "time": 9.852930666666662,
                    "velocity": 0.44881889763779526,
                    "duration": 0.055146999999999835
                },
                {
                    "name": "G#3",
                    "midi": 56,
                    "time": 9.889695333333329,
                    "velocity": 0.4015748031496063,
                    "duration": 0.03676466666666656
                },
                {
                    "name": "D3",
                    "midi": 50,
                    "time": 9.926459999999995,
                    "velocity": 0.4566929133858268,
                    "duration": 0.03676466666666656
                },
                {
                    "name": "B2",
                    "midi": 47,
                    "time": 9.926459999999995,
                    "velocity": 0.4566929133858268,
                    "duration": 0.03676466666666656
                },
                {
                    "name": "G#3",
                    "midi": 56,
                    "time": 9.963224666666662,
                    "velocity": 0.4330708661417323,
                    "duration": 0.03676466666666656
                },
                {
                    "name": "D3",
                    "midi": 50,
                    "time": 9.999989333333328,
                    "velocity": 0.47244094488188976,
                    "duration": 0.03676466666666656
                },
                {
                    "name": "B2",
                    "midi": 47,
                    "time": 9.999989333333328,
                    "velocity": 0.47244094488188976,
                    "duration": 0.03676466666666656
                },
                {
                    "name": "G#3",
                    "midi": 56,
                    "time": 10.036753999999995,
                    "velocity": 0.41732283464566927,
                    "duration": 0.03676466666666656
                },
                {
                    "name": "D3",
                    "midi": 50,
                    "time": 10.073518666666661,
                    "velocity": 0.48031496062992124,
                    "duration": 0.055146999999999835
                },
                {
                    "name": "B2",
                    "midi": 47,
                    "time": 10.073518666666661,
                    "velocity": 0.48031496062992124,
                    "duration": 0.055146999999999835
                },
                {
                    "name": "G#3",
                    "midi": 56,
                    "time": 10.110283333333328,
                    "velocity": 0.4251968503937008,
                    "duration": 0.03676466666666656
                },
                {
                    "name": "D3",
                    "midi": 50,
                    "time": 10.147047999999995,
                    "velocity": 0.4881889763779528,
                    "duration": 0.03676466666666656
                },
                {
                    "name": "B2",
                    "midi": 47,
                    "time": 10.147047999999995,
                    "velocity": 0.4881889763779528,
                    "duration": 0.03676466666666656
                },
                {
                    "name": "G#3",
                    "midi": 56,
                    "time": 10.183812666666661,
                    "velocity": 0.4566929133858268,
                    "duration": 0.03676466666666656
                },
                {
                    "name": "D3",
                    "midi": 50,
                    "time": 10.220577333333328,
                    "velocity": 0.49606299212598426,
                    "duration": 0.03676466666666656
                },
                {
                    "name": "B2",
                    "midi": 47,
                    "time": 10.220577333333328,
                    "velocity": 0.49606299212598426,
                    "duration": 0.03676466666666656
                },
                {
                    "name": "G#3",
                    "midi": 56,
                    "time": 10.257341999999994,
                    "velocity": 0.4645669291338583,
                    "duration": 0.03676466666666656
                },
                {
                    "name": "D3",
                    "midi": 50,
                    "time": 10.29410666666666,
                    "velocity": 0.5275590551181102,
                    "duration": 0.055146999999999835
                },
                {
                    "name": "B2",
                    "midi": 47,
                    "time": 10.29410666666666,
                    "velocity": 0.5275590551181102,
                    "duration": 0.055146999999999835
                },
                {
                    "name": "G#3",
                    "midi": 56,
                    "time": 10.330871333333327,
                    "velocity": 0.5511811023622047,
                    "duration": 0.03676466666666656
                },
                {
                    "name": "D3",
                    "midi": 50,
                    "time": 10.367635999999994,
                    "velocity": 0.5748031496062992,
                    "duration": 0.03676466666666656
                },
                {
                    "name": "B2",
                    "midi": 47,
                    "time": 10.367635999999994,
                    "velocity": 0.5748031496062992,
                    "duration": 0.03676466666666656
                },
                {
                    "name": "G#3",
                    "midi": 56,
                    "time": 10.40440066666666,
                    "velocity": 0.6062992125984252,
                    "duration": 0.03676466666666656
                },
                {
                    "name": "D3",
                    "midi": 50,
                    "time": 10.441165333333327,
                    "velocity": 0.6299212598425197,
                    "duration": 0.03676466666666656
                },
                {
                    "name": "B2",
                    "midi": 47,
                    "time": 10.441165333333327,
                    "velocity": 0.6299212598425197,
                    "duration": 0.03676466666666656
                },
                {
                    "name": "G#3",
                    "midi": 56,
                    "time": 10.477929999999994,
                    "velocity": 0.6535433070866141,
                    "duration": 0.03676466666666656
                },
                {
                    "name": "D3",
                    "midi": 50,
                    "time": 10.51469466666666,
                    "velocity": 0.6771653543307087,
                    "duration": 0.055146999999999835
                },
                {
                    "name": "B2",
                    "midi": 47,
                    "time": 10.51469466666666,
                    "velocity": 0.6771653543307087,
                    "duration": 0.055146999999999835
                },
                {
                    "name": "G#3",
                    "midi": 56,
                    "time": 10.551459333333327,
                    "velocity": 0.7007874015748031,
                    "duration": 0.03676466666666656
                },
                {
                    "name": "C#3",
                    "midi": 49,
                    "time": 10.588223999999993,
                    "velocity": 0.6535433070866141,
                    "duration": 0.055146999999999835
                },
                {
                    "name": "G3",
                    "midi": 55,
                    "time": 10.588223999999993,
                    "velocity": 0.7322834645669292,
                    "duration": 0.03676466666666656
                },
                {
                    "name": "A#2",
                    "midi": 46,
                    "time": 10.606606333333326,
                    "velocity": 0.5826771653543307,
                    "duration": 0.03676466666666656
                },
                {
                    "name": "B2",
                    "midi": 47,
                    "time": 10.643370999999993,
                    "velocity": 0.6141732283464567,
                    "duration": 0.11029399999999967
                },
                {
                    "name": "D3",
                    "midi": 50,
                    "time": 10.643370999999993,
                    "velocity": 0.7086614173228346,
                    "duration": 0.11029399999999967
                },
                {
                    "name": "G#3",
                    "midi": 56,
                    "time": 10.643370999999993,
                    "velocity": 0.7716535433070866,
                    "duration": 0.11029399999999967
                },
                {
                    "name": "D4",
                    "midi": 62,
                    "time": 12.752743749999993,
                    "velocity": 0.44881889763779526,
                    "duration": 0.2619482499999979
                },
                {
                    "name": "G#4",
                    "midi": 68,
                    "time": 12.766530499999993,
                    "velocity": 0.4645669291338583,
                    "duration": 0.24816149999999837
                },
                {
                    "name": "B4",
                    "midi": 71,
                    "time": 12.780317249999992,
                    "velocity": 0.49606299212598426,
                    "duration": 0.23437474999999885
                },
                {
                    "name": "E5",
                    "midi": 76,
                    "time": 12.794103999999992,
                    "velocity": 0.5196850393700787,
                    "duration": 0.22058799999999934
                },
                {
                    "name": "D4",
                    "midi": 62,
                    "time": 13.63509574999999,
                    "velocity": 0.44881889763779526,
                    "duration": 0.2619482499999979
                },
                {
                    "name": "G#4",
                    "midi": 68,
                    "time": 13.64888249999999,
                    "velocity": 0.4645669291338583,
                    "duration": 0.24816149999999837
                },
                {
                    "name": "B4",
                    "midi": 71,
                    "time": 13.66266924999999,
                    "velocity": 0.49606299212598426,
                    "duration": 0.23437474999999885
                },
                {
                    "name": "E5",
                    "midi": 76,
                    "time": 13.67645599999999,
                    "velocity": 0.5196850393700787,
                    "duration": 0.22058799999999934
                },
                {
                    "name": "D4",
                    "midi": 62,
                    "time": 14.517447749999988,
                    "velocity": 0.44881889763779526,
                    "duration": 0.2619482499999979
                },
                {
                    "name": "F#4",
                    "midi": 66,
                    "time": 14.531234499999988,
                    "velocity": 0.4645669291338583,
                    "duration": 0.24816149999999837
                },
                {
                    "name": "A4",
                    "midi": 69,
                    "time": 14.545021249999987,
                    "velocity": 0.49606299212598426,
                    "duration": 0.23437474999999885
                },
                {
                    "name": "E5",
                    "midi": 76,
                    "time": 14.558807999999987,
                    "velocity": 0.5196850393700787,
                    "duration": 0.22058799999999934
                },
                {
                    "name": "D4",
                    "midi": 62,
                    "time": 15.399799749999985,
                    "velocity": 0.44881889763779526,
                    "duration": 0.2619482499999979
                },
                {
                    "name": "G#4",
                    "midi": 68,
                    "time": 15.413586499999985,
                    "velocity": 0.4645669291338583,
                    "duration": 0.24816149999999837
                },
                {
                    "name": "B4",
                    "midi": 71,
                    "time": 15.427373249999984,
                    "velocity": 0.49606299212598426,
                    "duration": 0.23437474999999885
                },
                {
                    "name": "E5",
                    "midi": 76,
                    "time": 15.441159999999984,
                    "velocity": 0.5196850393700787,
                    "duration": 0.22058799999999934
                },
                {
                    "name": "E4",
                    "midi": 64,
                    "time": 16.282151749999983,
                    "velocity": 0.47244094488188976,
                    "duration": 0.2619482500000032
                },
                {
                    "name": "A4",
                    "midi": 69,
                    "time": 16.295938499999984,
                    "velocity": 0.5039370078740157,
                    "duration": 0.24816150000000192
                },
                {
                    "name": "C#5",
                    "midi": 73,
                    "time": 16.309725249999985,
                    "velocity": 0.5275590551181102,
                    "duration": 0.23437475000000063
                },
                {
                    "name": "A5",
                    "midi": 81,
                    "time": 16.323511999999987,
                    "velocity": 0.5511811023622047,
                    "duration": 0.22058799999999934
                },
                {
                    "name": "E4",
                    "midi": 64,
                    "time": 17.164503749999987,
                    "velocity": 0.47244094488188976,
                    "duration": 0.2619482500000032
                },
                {
                    "name": "A4",
                    "midi": 69,
                    "time": 17.17829049999999,
                    "velocity": 0.5039370078740157,
                    "duration": 0.24816150000000192
                },
                {
                    "name": "C#5",
                    "midi": 73,
                    "time": 17.19207724999999,
                    "velocity": 0.5275590551181102,
                    "duration": 0.23437475000000063
                },
                {
                    "name": "A5",
                    "midi": 81,
                    "time": 17.20586399999999,
                    "velocity": 0.5511811023622047,
                    "duration": 0.22058799999999934
                },
                {
                    "name": "F#4",
                    "midi": 66,
                    "time": 18.04685574999999,
                    "velocity": 0.47244094488188976,
                    "duration": 0.2619482500000032
                },
                {
                    "name": "C5",
                    "midi": 72,
                    "time": 18.060642499999993,
                    "velocity": 0.5039370078740157,
                    "duration": 0.24816150000000192
                },
                {
                    "name": "D#5",
                    "midi": 75,
                    "time": 18.074429249999994,
                    "velocity": 0.5275590551181102,
                    "duration": 0.23437475000000063
                },
                {
                    "name": "A5",
                    "midi": 81,
                    "time": 18.088215999999996,
                    "velocity": 0.5511811023622047,
                    "duration": 0.22058799999999934
                },
                {
                    "name": "E4",
                    "midi": 64,
                    "time": 18.929207749999996,
                    "velocity": 0.47244094488188976,
                    "duration": 0.2619482500000032
                },
                {
                    "name": "A4",
                    "midi": 69,
                    "time": 18.942994499999998,
                    "velocity": 0.5039370078740157,
                    "duration": 0.24816150000000192
                },
                {
                    "name": "C#5",
                    "midi": 73,
                    "time": 18.95678125,
                    "velocity": 0.5275590551181102,
                    "duration": 0.23437475000000063
                },
                {
                    "name": "A5",
                    "midi": 81,
                    "time": 18.970568,
                    "velocity": 0.5511811023622047,
                    "duration": 0.22058799999999934
                },
                {
                    "name": "C#4",
                    "midi": 61,
                    "time": 19.2738765,
                    "velocity": 0.5433070866141733,
                    "duration": 0.05514700000000161
                },
                {
                    "name": "A3",
                    "midi": 57,
                    "time": 19.370383750000002,
                    "velocity": 0.4645669291338583,
                    "duration": 0.9136019666666719
                },
                {
                    "name": "C#4",
                    "midi": 61,
                    "time": 19.384170500000003,
                    "velocity": 0.49606299212598426,
                    "duration": 0.919116666666671
                },
                {
                    "name": "F#4",
                    "midi": 66,
                    "time": 19.397957250000005,
                    "velocity": 0.5039370078740157,
                    "duration": 0.8961387500000022
                },
                {
                    "name": "A4",
                    "midi": 69,
                    "time": 19.411744000000006,
                    "velocity": 0.6062992125984252,
                    "duration": 0.6617640000000016
                },
                {
                    "name": "B4",
                    "midi": 71,
                    "time": 20.073508000000007,
                    "velocity": 0.5433070866141733,
                    "duration": 0.11029399999999967
                },
                {
                    "name": "C#5",
                    "midi": 73,
                    "time": 20.183802000000007,
                    "velocity": 0.5433070866141733,
                    "duration": 0.11029399999999967
                },
                {
                    "name": "C#5",
                    "midi": 73,
                    "time": 20.294096000000007,
                    "velocity": 0.5748031496062992,
                    "duration": 0.11029399999999967
                },
                {
                    "name": "F#4",
                    "midi": 66,
                    "time": 20.404390000000006,
                    "velocity": 0.5354330708661418,
                    "duration": 0.330881999999999
                },
                {
                    "name": "F#4",
                    "midi": 66,
                    "time": 21.121301000000006,
                    "velocity": 0.49606299212598426,
                    "duration": 0.03676466666666656
                },
                {
                    "name": "F#4",
                    "midi": 66,
                    "time": 21.176448000000008,
                    "velocity": 0.6141732283464567,
                    "duration": 0.6617640000000016
                },
                {
                    "name": "G#4",
                    "midi": 68,
                    "time": 21.83821200000001,
                    "velocity": 0.5118110236220472,
                    "duration": 0.12867633333333472
                },
                {
                    "name": "A4",
                    "midi": 69,
                    "time": 21.94850600000001,
                    "velocity": 0.5118110236220472,
                    "duration": 0.12867633333333828
                },
                {
                    "name": "C#4",
                    "midi": 61,
                    "time": 22.058800000000012,
                    "velocity": 0.5511811023622047,
                    "duration": 0.33088200000000256
                },
                {
                    "name": "D#4",
                    "midi": 63,
                    "time": 22.389682000000015,
                    "velocity": 0.5039370078740157,
                    "duration": 0.07352933333333667
                },
                {
                    "name": "E4",
                    "midi": 64,
                    "time": 22.444829000000016,
                    "velocity": 0.5039370078740157,
                    "duration": 0.07352933333333667
                },
                {
                    "name": "C#6",
                    "midi": 85,
                    "time": 29.448498000000022,
                    "velocity": 0.5748031496062992,
                    "duration": 0.08272050000000064
                },
                {
                    "name": "E6",
                    "midi": 88,
                    "time": 29.448498000000022,
                    "velocity": 0.5748031496062992,
                    "duration": 0.08272050000000064
                },
                {
                    "name": "E5",
                    "midi": 76,
                    "time": 29.448498000000022,
                    "velocity": 0.48031496062992124,
                    "duration": 0.08272050000000064
                },
                {
                    "name": "E6",
                    "midi": 88,
                    "time": 29.55879200000002,
                    "velocity": 0.6535433070866141,
                    "duration": 1.213234
                },
                {
                    "name": "C#6",
                    "midi": 85,
                    "time": 29.55879200000002,
                    "velocity": 0.6535433070866141,
                    "duration": 1.213234
                },
                {
                    "name": "E5",
                    "midi": 76,
                    "time": 29.55879200000002,
                    "velocity": 0.5511811023622047,
                    "duration": 1.213234
                },
                {
                    "name": "D#6",
                    "midi": 87,
                    "time": 30.77202600000002,
                    "velocity": 0.5748031496062992,
                    "duration": 0.08272050000000064
                },
                {
                    "name": "B5",
                    "midi": 83,
                    "time": 30.77202600000002,
                    "velocity": 0.5748031496062992,
                    "duration": 0.08272050000000064
                },
                {
                    "name": "D#5",
                    "midi": 75,
                    "time": 30.77202600000002,
                    "velocity": 0.48031496062992124,
                    "duration": 0.08272050000000064
                },
                {
                    "name": "D#6",
                    "midi": 87,
                    "time": 30.88232000000002,
                    "velocity": 0.6535433070866141,
                    "duration": 0.330881999999999
                },
                {
                    "name": "B5",
                    "midi": 83,
                    "time": 30.88232000000002,
                    "velocity": 0.6535433070866141,
                    "duration": 0.330881999999999
                },
                {
                    "name": "D#5",
                    "midi": 75,
                    "time": 30.88232000000002,
                    "velocity": 0.5511811023622047,
                    "duration": 0.330881999999999
                },
                {
                    "name": "C#6",
                    "midi": 85,
                    "time": 31.21320200000002,
                    "velocity": 0.5748031496062992,
                    "duration": 0.08272050000000064
                },
                {
                    "name": "A5",
                    "midi": 81,
                    "time": 31.21320200000002,
                    "velocity": 0.5748031496062992,
                    "duration": 0.08272050000000064
                },
                {
                    "name": "C#5",
                    "midi": 73,
                    "time": 31.21320200000002,
                    "velocity": 0.48031496062992124,
                    "duration": 0.08272050000000064
                },
                {
                    "name": "A5",
                    "midi": 81,
                    "time": 31.32349600000002,
                    "velocity": 0.6299212598425197,
                    "duration": 0.330881999999999
                },
                {
                    "name": "C#6",
                    "midi": 85,
                    "time": 31.32349600000002,
                    "velocity": 0.6299212598425197,
                    "duration": 0.330881999999999
                },
                {
                    "name": "C#5",
                    "midi": 73,
                    "time": 31.32349600000002,
                    "velocity": 0.5354330708661418,
                    "duration": 0.330881999999999
                },
                {
                    "name": "A5",
                    "midi": 81,
                    "time": 31.65437800000002,
                    "velocity": 0.5748031496062992,
                    "duration": 0.08272050000000064
                },
                {
                    "name": "F#5",
                    "midi": 78,
                    "time": 31.65437800000002,
                    "velocity": 0.5748031496062992,
                    "duration": 0.08272050000000064
                },
                {
                    "name": "A4",
                    "midi": 69,
                    "time": 31.65437800000002,
                    "velocity": 0.48031496062992124,
                    "duration": 0.08272050000000064
                },
                {
                    "name": "A5",
                    "midi": 81,
                    "time": 31.76467200000002,
                    "velocity": 0.6299212598425197,
                    "duration": 0.33088200000000256
                },
                {
                    "name": "F#5",
                    "midi": 78,
                    "time": 31.76467200000002,
                    "velocity": 0.6299212598425197,
                    "duration": 0.33088200000000256
                },
                {
                    "name": "A4",
                    "midi": 69,
                    "time": 31.76467200000002,
                    "velocity": 0.5354330708661418,
                    "duration": 0.33088200000000256
                },
                {
                    "name": "G#5",
                    "midi": 80,
                    "time": 32.09555400000002,
                    "velocity": 0.5905511811023622,
                    "duration": 0.08272050000000064
                },
                {
                    "name": "E5",
                    "midi": 76,
                    "time": 32.09555400000002,
                    "velocity": 0.5905511811023622,
                    "duration": 0.08272050000000064
                },
                {
                    "name": "G#4",
                    "midi": 68,
                    "time": 32.09555400000002,
                    "velocity": 0.49606299212598426,
                    "duration": 0.08272050000000064
                },
                {
                    "name": "G#5",
                    "midi": 80,
                    "time": 32.205848000000024,
                    "velocity": 0.6535433070866141,
                    "duration": 0.33088200000000256
                },
                {
                    "name": "E5",
                    "midi": 76,
                    "time": 32.205848000000024,
                    "velocity": 0.6535433070866141,
                    "duration": 0.33088200000000256
                },
                {
                    "name": "G#4",
                    "midi": 68,
                    "time": 32.205848000000024,
                    "velocity": 0.5511811023622047,
                    "duration": 0.33088200000000256
                },
                {
                    "name": "E5",
                    "midi": 76,
                    "time": 32.53673000000003,
                    "velocity": 0.5748031496062992,
                    "duration": 0.08272050000000064
                },
                {
                    "name": "C#5",
                    "midi": 73,
                    "time": 32.53673000000003,
                    "velocity": 0.5748031496062992,
                    "duration": 0.08272050000000064
                },
                {
                    "name": "E4",
                    "midi": 64,
                    "time": 32.53673000000003,
                    "velocity": 0.48031496062992124,
                    "duration": 0.08272050000000064
                },
                {
                    "name": "C#5",
                    "midi": 73,
                    "time": 32.64702400000003,
                    "velocity": 0.6299212598425197,
                    "duration": 0.33088200000000256
                },
                {
                    "name": "E5",
                    "midi": 76,
                    "time": 32.64702400000003,
                    "velocity": 0.6299212598425197,
                    "duration": 0.33088200000000256
                },
                {
                    "name": "E4",
                    "midi": 64,
                    "time": 32.64702400000003,
                    "velocity": 0.5354330708661418,
                    "duration": 0.33088200000000256
                },
                {
                    "name": "D#5",
                    "midi": 75,
                    "time": 32.97790600000003,
                    "velocity": 0.5748031496062992,
                    "duration": 0.08272050000000064
                },
                {
                    "name": "B4",
                    "midi": 71,
                    "time": 32.97790600000003,
                    "velocity": 0.5748031496062992,
                    "duration": 0.08272050000000064
                },
                {
                    "name": "D#4",
                    "midi": 63,
                    "time": 32.97790600000003,
                    "velocity": 0.48031496062992124,
                    "duration": 0.08272050000000064
                },
                {
                    "name": "D#5",
                    "midi": 75,
                    "time": 33.088200000000036,
                    "velocity": 0.6377952755905512,
                    "duration": 0.33088200000000256
                },
                {
                    "name": "B4",
                    "midi": 71,
                    "time": 33.088200000000036,
                    "velocity": 0.6377952755905512,
                    "duration": 0.33088200000000256
                },
                {
                    "name": "D#4",
                    "midi": 63,
                    "time": 33.088200000000036,
                    "velocity": 0.5433070866141733,
                    "duration": 0.33088200000000256
                },
                {
                    "name": "C#5",
                    "midi": 73,
                    "time": 33.41908200000004,
                    "velocity": 0.6141732283464567,
                    "duration": 0.08272050000000064
                },
                {
                    "name": "A4",
                    "midi": 69,
                    "time": 33.41908200000004,
                    "velocity": 0.6141732283464567,
                    "duration": 0.08272050000000064
                },
                {
                    "name": "C#4",
                    "midi": 61,
                    "time": 33.41908200000004,
                    "velocity": 0.5196850393700787,
                    "duration": 0.08272050000000064
                },
                {
                    "name": "C#5",
                    "midi": 73,
                    "time": 33.52937600000004,
                    "velocity": 0.6456692913385826,
                    "duration": 0.33088200000000256
                },
                {
                    "name": "A4",
                    "midi": 69,
                    "time": 33.52937600000004,
                    "velocity": 0.6456692913385826,
                    "duration": 0.33088200000000256
                },
                {
                    "name": "C#4",
                    "midi": 61,
                    "time": 33.52937600000004,
                    "velocity": 0.5511811023622047,
                    "duration": 0.33088200000000256
                },
                {
                    "name": "A4",
                    "midi": 69,
                    "time": 33.860258000000044,
                    "velocity": 0.6299212598425197,
                    "duration": 0.08272050000000064
                },
                {
                    "name": "F#4",
                    "midi": 66,
                    "time": 33.860258000000044,
                    "velocity": 0.6299212598425197,
                    "duration": 0.08272050000000064
                },
                {
                    "name": "A3",
                    "midi": 57,
                    "time": 33.860258000000044,
                    "velocity": 0.5275590551181102,
                    "duration": 0.08272050000000064
                },
                {
                    "name": "A4",
                    "midi": 69,
                    "time": 33.97055200000005,
                    "velocity": 0.6692913385826772,
                    "duration": 0.33088200000000256
                },
                {
                    "name": "F#4",
                    "midi": 66,
                    "time": 33.97055200000005,
                    "velocity": 0.6692913385826772,
                    "duration": 0.33088200000000256
                },
                {
                    "name": "A3",
                    "midi": 57,
                    "time": 33.97055200000005,
                    "velocity": 0.5669291338582677,
                    "duration": 0.33088200000000256
                },
                {
                    "name": "G#4",
                    "midi": 68,
                    "time": 34.30143400000005,
                    "velocity": 0.6377952755905512,
                    "duration": 0.08272050000000064
                },
                {
                    "name": "E4",
                    "midi": 64,
                    "time": 34.30143400000005,
                    "velocity": 0.6377952755905512,
                    "duration": 0.08272050000000064
                },
                {
                    "name": "G#3",
                    "midi": 56,
                    "time": 34.30143400000005,
                    "velocity": 0.5354330708661418,
                    "duration": 0.08272050000000064
                },
                {
                    "name": "G#4",
                    "midi": 68,
                    "time": 34.41172800000005,
                    "velocity": 0.6771653543307087,
                    "duration": 0.33088200000000256
                },
                {
                    "name": "E4",
                    "midi": 64,
                    "time": 34.41172800000005,
                    "velocity": 0.6771653543307087,
                    "duration": 0.33088200000000256
                },
                {
                    "name": "G#3",
                    "midi": 56,
                    "time": 34.41172800000005,
                    "velocity": 0.5748031496062992,
                    "duration": 0.33088200000000256
                },
                {
                    "name": "E4",
                    "midi": 64,
                    "time": 34.742610000000056,
                    "velocity": 0.6535433070866141,
                    "duration": 0.08272050000000064
                },
                {
                    "name": "C#4",
                    "midi": 61,
                    "time": 34.742610000000056,
                    "velocity": 0.6535433070866141,
                    "duration": 0.08272050000000064
                },
                {
                    "name": "E3",
                    "midi": 52,
                    "time": 34.742610000000056,
                    "velocity": 0.5511811023622047,
                    "duration": 0.08272050000000064
                },
                {
                    "name": "E4",
                    "midi": 64,
                    "time": 34.85290400000006,
                    "velocity": 0.7007874015748031,
                    "duration": 0.33088200000000256
                },
                {
                    "name": "C#4",
                    "midi": 61,
                    "time": 34.85290400000006,
                    "velocity": 0.7007874015748031,
                    "duration": 0.33088200000000256
                },
                {
                    "name": "E3",
                    "midi": 52,
                    "time": 34.85290400000006,
                    "velocity": 0.5826771653543307,
                    "duration": 0.33088200000000256
                },
                {
                    "name": "D#4",
                    "midi": 63,
                    "time": 35.18378600000006,
                    "velocity": 0.6614173228346457,
                    "duration": 0.08272050000000064
                },
                {
                    "name": "B3",
                    "midi": 59,
                    "time": 35.18378600000006,
                    "velocity": 0.6614173228346457,
                    "duration": 0.08272050000000064
                },
                {
                    "name": "D#3",
                    "midi": 51,
                    "time": 35.18378600000006,
                    "velocity": 0.5590551181102362,
                    "duration": 0.08272050000000064
                },
                {
                    "name": "D#4",
                    "midi": 63,
                    "time": 35.294080000000065,
                    "velocity": 0.7165354330708661,
                    "duration": 0.33088200000000256
                },
                {
                    "name": "B3",
                    "midi": 59,
                    "time": 35.294080000000065,
                    "velocity": 0.7165354330708661,
                    "duration": 0.33088200000000256
                },
                {
                    "name": "D#3",
                    "midi": 51,
                    "time": 35.294080000000065,
                    "velocity": 0.6062992125984252,
                    "duration": 0.33088200000000256
                },
                {
                    "name": "C#4",
                    "midi": 61,
                    "time": 35.62496200000007,
                    "velocity": 0.6771653543307087,
                    "duration": 0.08272050000000064
                },
                {
                    "name": "A3",
                    "midi": 57,
                    "time": 35.62496200000007,
                    "velocity": 0.6771653543307087,
                    "duration": 0.08272050000000064
                },
                {
                    "name": "C#3",
                    "midi": 49,
                    "time": 35.62496200000007,
                    "velocity": 0.5669291338582677,
                    "duration": 0.08272050000000064
                },
                {
                    "name": "C#4",
                    "midi": 61,
                    "time": 35.73525600000007,
                    "velocity": 0.7165354330708661,
                    "duration": 0.8823519999999974
                },
                {
                    "name": "C#3",
                    "midi": 49,
                    "time": 35.73525600000007,
                    "velocity": 0.6141732283464567,
                    "duration": 0.8823519999999974
                },
                {
                    "name": "A3",
                    "midi": 57,
                    "time": 35.73525600000007,
                    "velocity": 0.6141732283464567,
                    "duration": 0.8823519999999974
                },
                {
                    "name": "D4",
                    "midi": 62,
                    "time": 36.61760800000007,
                    "velocity": 0.6771653543307087,
                    "duration": 0.8823519999999974
                },
                {
                    "name": "D3",
                    "midi": 50,
                    "time": 36.61760800000007,
                    "velocity": 0.5669291338582677,
                    "duration": 0.8823519999999974
                },
                {
                    "name": "F3",
                    "midi": 53,
                    "time": 36.61760800000007,
                    "velocity": 0.5669291338582677,
                    "duration": 0.8823519999999974
                },
                {
                    "name": "A3",
                    "midi": 57,
                    "time": 36.61760800000007,
                    "velocity": 0.5669291338582677,
                    "duration": 0.8823519999999974
                },
                {
                    "name": "F#4",
                    "midi": 66,
                    "time": 37.499960000000065,
                    "velocity": 0.7480314960629921,
                    "duration": 0.8823519999999974
                },
                {
                    "name": "F#3",
                    "midi": 54,
                    "time": 37.499960000000065,
                    "velocity": 0.6299212598425197,
                    "duration": 0.8823519999999974
                },
                {
                    "name": "A3",
                    "midi": 57,
                    "time": 37.499960000000065,
                    "velocity": 0.6299212598425197,
                    "duration": 0.8823519999999974
                },
                {
                    "name": "D4",
                    "midi": 62,
                    "time": 37.499960000000065,
                    "velocity": 0.6299212598425197,
                    "duration": 0.8823519999999974
                },
                {
                    "name": "G#4",
                    "midi": 68,
                    "time": 38.38231200000006,
                    "velocity": 0.7716535433070866,
                    "duration": 0.8272049999999993
                },
                {
                    "name": "F#3",
                    "midi": 54,
                    "time": 38.38231200000006,
                    "velocity": 0.49606299212598426,
                    "duration": 0.8272049999999993
                },
                {
                    "name": "G#3",
                    "midi": 56,
                    "time": 38.38231200000006,
                    "velocity": 0.5511811023622047,
                    "duration": 0.8272049999999993
                },
                {
                    "name": "C4",
                    "midi": 60,
                    "time": 38.38231200000006,
                    "velocity": 0.5511811023622047,
                    "duration": 0.8272049999999993
                },
                {
                    "name": "D#4",
                    "midi": 63,
                    "time": 38.38231200000006,
                    "velocity": 0.6141732283464567,
                    "duration": 0.8272049999999993
                },
                {
                    "name": "C#4",
                    "midi": 61,
                    "time": 39.2278993333334,
                    "velocity": 0.5118110236220472,
                    "duration": 0.027573500000002582
                },
                {
                    "name": "C#4",
                    "midi": 61,
                    "time": 39.26466400000007,
                    "velocity": 0.5669291338582677,
                    "duration": 0.3860290000000006
                },
                {
                    "name": "G#3",
                    "midi": 56,
                    "time": 39.26466400000007,
                    "velocity": 0.48031496062992124,
                    "duration": 0.3860290000000006
                },
                {
                    "name": "E3",
                    "midi": 52,
                    "time": 39.26466400000007,
                    "velocity": 0.48031496062992124,
                    "duration": 0.3860290000000006
                },
                {
                    "name": "F#4",
                    "midi": 66,
                    "time": 39.6690753333334,
                    "velocity": 0.5511811023622047,
                    "duration": 0.027573500000002582
                },
                {
                    "name": "F#4",
                    "midi": 66,
                    "time": 39.70584000000007,
                    "velocity": 0.5590551181102362,
                    "duration": 0.3860290000000006
                },
                {
                    "name": "A3",
                    "midi": 57,
                    "time": 39.70584000000007,
                    "velocity": 0.47244094488188976,
                    "duration": 0.3860290000000006
                },
                {
                    "name": "F#3",
                    "midi": 54,
                    "time": 39.70584000000007,
                    "velocity": 0.47244094488188976,
                    "duration": 0.3860290000000006
                },
                {
                    "name": "E4",
                    "midi": 64,
                    "time": 40.11025133333341,
                    "velocity": 0.5433070866141733,
                    "duration": 0.027573500000002582
                },
                {
                    "name": "E4",
                    "midi": 64,
                    "time": 40.14701600000008,
                    "velocity": 0.5511811023622047,
                    "duration": 0.16544100000000128
                },
                {
                    "name": "G#3",
                    "midi": 56,
                    "time": 40.14701600000008,
                    "velocity": 0.4645669291338583,
                    "duration": 0.16544100000000128
                },
                {
                    "name": "E3",
                    "midi": 52,
                    "time": 40.14701600000008,
                    "velocity": 0.4645669291338583,
                    "duration": 0.16544100000000128
                },
                {
                    "name": "D#4",
                    "midi": 63,
                    "time": 40.330839333333415,
                    "velocity": 0.5275590551181102,
                    "duration": 0.027573500000002582
                },
                {
                    "name": "D#4",
                    "midi": 63,
                    "time": 40.367604000000085,
                    "velocity": 0.5511811023622047,
                    "duration": 0.16544100000000128
                },
                {
                    "name": "F#3",
                    "midi": 54,
                    "time": 40.367604000000085,
                    "velocity": 0.4645669291338583,
                    "duration": 0.16544100000000128
                },
                {
                    "name": "D#3",
                    "midi": 51,
                    "time": 40.367604000000085,
                    "velocity": 0.4645669291338583,
                    "duration": 0.16544100000000128
                },
                {
                    "name": "C#4",
                    "midi": 61,
                    "time": 40.55142733333342,
                    "velocity": 0.5354330708661418,
                    "duration": 0.027573500000002582
                },
                {
                    "name": "C#4",
                    "midi": 61,
                    "time": 40.58819200000009,
                    "velocity": 0.5590551181102362,
                    "duration": 0.16544100000000128
                },
                {
                    "name": "E3",
                    "midi": 52,
                    "time": 40.58819200000009,
                    "velocity": 0.47244094488188976,
                    "duration": 0.16544100000000128
                },
                {
                    "name": "C#3",
                    "midi": 49,
                    "time": 40.58819200000009,
                    "velocity": 0.47244094488188976,
                    "duration": 0.16544100000000128
                },
                {
                    "name": "C4",
                    "midi": 60,
                    "time": 40.77201533333343,
                    "velocity": 0.5354330708661418,
                    "duration": 0.027573500000002582
                },
                {
                    "name": "C4",
                    "midi": 60,
                    "time": 40.8087800000001,
                    "velocity": 0.5511811023622047,
                    "duration": 0.16544100000000128
                },
                {
                    "name": "D#3",
                    "midi": 51,
                    "time": 40.8087800000001,
                    "velocity": 0.4645669291338583,
                    "duration": 0.16544100000000128
                },
                {
                    "name": "C3",
                    "midi": 48,
                    "time": 40.8087800000001,
                    "velocity": 0.4645669291338583,
                    "duration": 0.16544100000000128
                },
                {
                    "name": "C#4",
                    "midi": 61,
                    "time": 40.992603333333435,
                    "velocity": 0.5511811023622047,
                    "duration": 0.027573500000002582
                },
                {
                    "name": "C#4",
                    "midi": 61,
                    "time": 41.029368000000105,
                    "velocity": 0.5590551181102362,
                    "duration": 0.11029400000000322
                },
                {
                    "name": "E3",
                    "midi": 52,
                    "time": 41.029368000000105,
                    "velocity": 0.47244094488188976,
                    "duration": 0.11029400000000322
                },
                {
                    "name": "C#3",
                    "midi": 49,
                    "time": 41.029368000000105,
                    "velocity": 0.47244094488188976,
                    "duration": 0.11029400000000322
                },
                {
                    "name": "C#3",
                    "midi": 49,
                    "time": 41.194809000000106,
                    "velocity": 0.5511811023622047,
                    "duration": 0.05514699999999806
                },
                {
                    "name": "A2",
                    "midi": 45,
                    "time": 41.249956000000104,
                    "velocity": 0.5196850393700787,
                    "duration": 0.6617639999999767
                },
                {
                    "name": "D#3",
                    "midi": 51,
                    "time": 41.249956000000104,
                    "velocity": 0.5196850393700787,
                    "duration": 0.05514699999999806
                },
                {
                    "name": "C#3",
                    "midi": 49,
                    "time": 41.3051030000001,
                    "velocity": 0.48031496062992124,
                    "duration": 0.05514699999999806
                },
                {
                    "name": "D#3",
                    "midi": 51,
                    "time": 41.3602500000001,
                    "velocity": 0.5196850393700787,
                    "duration": 0.05514699999999806
                },
                {
                    "name": "C#3",
                    "midi": 49,
                    "time": 41.4153970000001,
                    "velocity": 0.48031496062992124,
                    "duration": 0.05514699999999806
                },
                {
                    "name": "D#3",
                    "midi": 51,
                    "time": 41.470544000000096,
                    "velocity": 0.5196850393700787,
                    "duration": 0.05514699999999806
                },
                {
                    "name": "C#3",
                    "midi": 49,
                    "time": 41.525691000000094,
                    "velocity": 0.47244094488188976,
                    "duration": 0.05514699999999806
                },
                {
                    "name": "D#3",
                    "midi": 51,
                    "time": 41.58083800000009,
                    "velocity": 0.5196850393700787,
                    "duration": 0.05514699999999806
                },
                {
                    "name": "C#3",
                    "midi": 49,
                    "time": 41.63598500000009,
                    "velocity": 0.48031496062992124,
                    "duration": 0.05514699999999806
                },
                {
                    "name": "D#3",
                    "midi": 51,
                    "time": 41.69113200000009,
                    "velocity": 0.5196850393700787,
                    "duration": 0.05514699999999806
                },
                {
                    "name": "C#3",
                    "midi": 49,
                    "time": 41.74627900000009,
                    "velocity": 0.48031496062992124,
                    "duration": 0.05514699999999806
                },
                {
                    "name": "C3",
                    "midi": 48,
                    "time": 41.801426000000085,
                    "velocity": 0.5196850393700787,
                    "duration": 0.05514699999999806
                },
                {
                    "name": "C#3",
                    "midi": 49,
                    "time": 41.85657300000008,
                    "velocity": 0.48031496062992124,
                    "duration": 0.05514699999999806
                },
                {
                    "name": "E3",
                    "midi": 52,
                    "time": 41.91172000000008,
                    "velocity": 0.5590551181102362,
                    "duration": 0.07352933333333311
                },
                {
                    "name": "D#3",
                    "midi": 51,
                    "time": 41.985249333333414,
                    "velocity": 0.5118110236220472,
                    "duration": 0.07352933333333311
                },
                {
                    "name": "C#3",
                    "midi": 49,
                    "time": 42.05877866666675,
                    "velocity": 0.5118110236220472,
                    "duration": 0.07352933333333311
                },
                {
                    "name": "G#2",
                    "midi": 44,
                    "time": 42.13230800000008,
                    "velocity": 0.5511811023622047,
                    "duration": 0.05514699999999806
                },
                {
                    "name": "C#3",
                    "midi": 49,
                    "time": 42.13230800000008,
                    "velocity": 0.5511811023622047,
                    "duration": 0.05514699999999806
                },
                {
                    "name": "G#4",
                    "midi": 68,
                    "time": 42.757307333333415,
                    "velocity": 0.5118110236220472,
                    "duration": 0.03676466666667011
                },
                {
                    "name": "G#4",
                    "midi": 68,
                    "time": 42.794072000000085,
                    "velocity": 0.5669291338582677,
                    "duration": 0.3860290000000006
                },
                {
                    "name": "D#4",
                    "midi": 63,
                    "time": 42.794072000000085,
                    "velocity": 0.48031496062992124,
                    "duration": 0.3860290000000006
                },
                {
                    "name": "B3",
                    "midi": 59,
                    "time": 42.794072000000085,
                    "velocity": 0.48031496062992124,
                    "duration": 0.3860290000000006
                },
                {
                    "name": "C#5",
                    "midi": 73,
                    "time": 43.19848333333342,
                    "velocity": 0.5511811023622047,
                    "duration": 0.027573500000002582
                },
                {
                    "name": "C#5",
                    "midi": 73,
                    "time": 43.23524800000009,
                    "velocity": 0.5590551181102362,
                    "duration": 0.3860290000000006
                },
                {
                    "name": "E4",
                    "midi": 64,
                    "time": 43.23524800000009,
                    "velocity": 0.47244094488188976,
                    "duration": 0.3860290000000006
                },
                {
                    "name": "C#4",
                    "midi": 61,
                    "time": 43.23524800000009,
                    "velocity": 0.47244094488188976,
                    "duration": 0.3860290000000006
                },
                {
                    "name": "B4",
                    "midi": 71,
                    "time": 43.63965933333343,
                    "velocity": 0.5433070866141733,
                    "duration": 0.03676466666667011
                },
                {
                    "name": "B4",
                    "midi": 71,
                    "time": 43.6764240000001,
                    "velocity": 0.5511811023622047,
                    "duration": 0.16544100000000128
                },
                {
                    "name": "D#4",
                    "midi": 63,
                    "time": 43.6764240000001,
                    "velocity": 0.4645669291338583,
                    "duration": 0.16544100000000128
                },
                {
                    "name": "B3",
                    "midi": 59,
                    "time": 43.6764240000001,
                    "velocity": 0.4645669291338583,
                    "duration": 0.16544100000000128
                },
                {
                    "name": "A4",
                    "midi": 69,
                    "time": 43.86024733333343,
                    "velocity": 0.5275590551181102,
                    "duration": 0.027573500000002582
                },
                {
                    "name": "A4",
                    "midi": 69,
                    "time": 43.8970120000001,
                    "velocity": 0.5511811023622047,
                    "duration": 0.16544100000000128
                },
                {
                    "name": "C#4",
                    "midi": 61,
                    "time": 43.8970120000001,
                    "velocity": 0.4645669291338583,
                    "duration": 0.16544100000000128
                },
                {
                    "name": "A3",
                    "midi": 57,
                    "time": 43.8970120000001,
                    "velocity": 0.4645669291338583,
                    "duration": 0.16544100000000128
                },
                {
                    "name": "G#3",
                    "midi": 56,
                    "time": 44.08083533333344,
                    "velocity": 0.5354330708661418,
                    "duration": 0.027573500000002582
                },
                {
                    "name": "G#4",
                    "midi": 68,
                    "time": 44.08083533333344,
                    "velocity": 0.5354330708661418,
                    "duration": 0.027573500000002582
                },
                {
                    "name": "G#4",
                    "midi": 68,
                    "time": 44.11760000000011,
                    "velocity": 0.5590551181102362,
                    "duration": 0.16544100000000128
                },
                {
                    "name": "B3",
                    "midi": 59,
                    "time": 44.11760000000011,
                    "velocity": 0.47244094488188976,
                    "duration": 0.16544100000000128
                },
                {
                    "name": "G#3",
                    "midi": 56,
                    "time": 44.11760000000011,
                    "velocity": 0.47244094488188976,
                    "duration": 0.16544100000000128
                },
                {
                    "name": "G4",
                    "midi": 67,
                    "time": 44.301423333333446,
                    "velocity": 0.5354330708661418,
                    "duration": 0.027573500000002582
                },
                {
                    "name": "G4",
                    "midi": 67,
                    "time": 44.338188000000116,
                    "velocity": 0.5511811023622047,
                    "duration": 0.16544100000000128
                },
                {
                    "name": "A#3",
                    "midi": 58,
                    "time": 44.338188000000116,
                    "velocity": 0.4645669291338583,
                    "duration": 0.16544100000000128
                },
                {
                    "name": "G3",
                    "midi": 55,
                    "time": 44.338188000000116,
                    "velocity": 0.4645669291338583,
                    "duration": 0.16544100000000128
                },
                {
                    "name": "G#4",
                    "midi": 68,
                    "time": 44.52201133333345,
                    "velocity": 0.5511811023622047,
                    "duration": 0.027573500000002582
                },
                {
                    "name": "G#4",
                    "midi": 68,
                    "time": 44.55877600000012,
                    "velocity": 0.5590551181102362,
                    "duration": 0.11029400000000322
                },
                {
                    "name": "B3",
                    "midi": 59,
                    "time": 44.55877600000012,
                    "velocity": 0.47244094488188976,
                    "duration": 0.11029400000000322
                },
                {
                    "name": "G#3",
                    "midi": 56,
                    "time": 44.55877600000012,
                    "velocity": 0.47244094488188976,
                    "duration": 0.11029400000000322
                },
                {
                    "name": "G#3",
                    "midi": 56,
                    "time": 44.724217000000124,
                    "velocity": 0.49606299212598426,
                    "duration": 0.05514699999999806
                },
                {
                    "name": "E3",
                    "midi": 52,
                    "time": 44.77936400000012,
                    "velocity": 0.4645669291338583,
                    "duration": 0.6617639999999767
                },
                {
                    "name": "A#3",
                    "midi": 58,
                    "time": 44.77936400000012,
                    "velocity": 0.4645669291338583,
                    "duration": 0.05514699999999806
                },
                {
                    "name": "G#3",
                    "midi": 56,
                    "time": 44.83451100000012,
                    "velocity": 0.4251968503937008,
                    "duration": 0.05514699999999806
                },
                {
                    "name": "A#3",
                    "midi": 58,
                    "time": 44.88965800000012,
                    "velocity": 0.4645669291338583,
                    "duration": 0.05514699999999806
                },
                {
                    "name": "G#3",
                    "midi": 56,
                    "time": 44.944805000000116,
                    "velocity": 0.4251968503937008,
                    "duration": 0.05514699999999806
                },
                {
                    "name": "A#3",
                    "midi": 58,
                    "time": 44.999952000000114,
                    "velocity": 0.4645669291338583,
                    "duration": 0.05514699999999806
                },
                {
                    "name": "G#3",
                    "midi": 56,
                    "time": 45.05509900000011,
                    "velocity": 0.4251968503937008,
                    "duration": 0.05514699999999806
                },
                {
                    "name": "A#3",
                    "midi": 58,
                    "time": 45.11024600000011,
                    "velocity": 0.4645669291338583,
                    "duration": 0.05514699999999806
                },
                {
                    "name": "G#3",
                    "midi": 56,
                    "time": 45.16539300000011,
                    "velocity": 0.4251968503937008,
                    "duration": 0.05514699999999806
                },
                {
                    "name": "A#3",
                    "midi": 58,
                    "time": 45.220540000000106,
                    "velocity": 0.4645669291338583,
                    "duration": 0.05514699999999806
                },
                {
                    "name": "G#3",
                    "midi": 56,
                    "time": 45.275687000000104,
                    "velocity": 0.4251968503937008,
                    "duration": 0.05514699999999806
                },
                {
                    "name": "G3",
                    "midi": 55,
                    "time": 45.3308340000001,
                    "velocity": 0.4645669291338583,
                    "duration": 0.05514699999999806
                },
                {
                    "name": "G#3",
                    "midi": 56,
                    "time": 45.3859810000001,
                    "velocity": 0.4251968503937008,
                    "duration": 0.05514699999999806
                },
                {
                    "name": "B3",
                    "midi": 59,
                    "time": 45.4411280000001,
                    "velocity": 0.49606299212598426,
                    "duration": 0.07352933333333311
                },
                {
                    "name": "A#3",
                    "midi": 58,
                    "time": 45.51465733333343,
                    "velocity": 0.4566929133858268,
                    "duration": 0.07352933333333311
                },
                {
                    "name": "G#3",
                    "midi": 56,
                    "time": 45.588186666666765,
                    "velocity": 0.4566929133858268,
                    "duration": 0.07352933333333311
                },
                {
                    "name": "B2",
                    "midi": 47,
                    "time": 45.6617160000001,
                    "velocity": 0.4409448818897638,
                    "duration": 0.05514699999999806
                },
                {
                    "name": "D#3",
                    "midi": 51,
                    "time": 45.6617160000001,
                    "velocity": 0.4409448818897638,
                    "duration": 0.05514699999999806
                },
                {
                    "name": "G#3",
                    "midi": 56,
                    "time": 45.6617160000001,
                    "velocity": 0.4409448818897638,
                    "duration": 0.05514699999999806
                },
                {
                    "name": "G#4",
                    "midi": 68,
                    "time": 46.21318600000009,
                    "velocity": 0.4094488188976378,
                    "duration": 0.05514699999999806
                },
                {
                    "name": "B3",
                    "midi": 59,
                    "time": 46.29590650000009,
                    "velocity": 0.3779527559055118,
                    "duration": 1.7922775000000115
                },
                {
                    "name": "E4",
                    "midi": 64,
                    "time": 46.309693250000095,
                    "velocity": 0.3937007874015748,
                    "duration": 1.668196750000007
                },
                {
                    "name": "G#4",
                    "midi": 68,
                    "time": 46.323480000000096,
                    "velocity": 0.4330708661417323,
                    "duration": 0.661763999999998
                },
                {
                    "name": "A4",
                    "midi": 69,
                    "time": 46.985244000000094,
                    "velocity": 0.4094488188976378,
                    "duration": 0.11029400000000322
                },
                {
                    "name": "B4",
                    "midi": 71,
                    "time": 47.0955380000001,
                    "velocity": 0.4094488188976378,
                    "duration": 0.09191166666666817
                },
                {
                    "name": "B4",
                    "midi": 71,
                    "time": 47.2058320000001,
                    "velocity": 0.4094488188976378,
                    "duration": 0.05514699999999806
                },
                {
                    "name": "E4",
                    "midi": 64,
                    "time": 47.2609790000001,
                    "velocity": 0.4409448818897638,
                    "duration": 0.8272050000000064
                },
                {
                    "name": "D#4",
                    "midi": 63,
                    "time": 47.9778900000001,
                    "velocity": 0.4409448818897638,
                    "duration": 0.09191166666666817
                },
                {
                    "name": "D#4",
                    "midi": 63,
                    "time": 48.088184000000105,
                    "velocity": 0.4409448818897638,
                    "duration": 0.11029399999999612
                },
                {
                    "name": "A3",
                    "midi": 57,
                    "time": 48.1433310000001,
                    "velocity": 0.3700787401574803,
                    "duration": 0.8272050000000064
                },
                {
                    "name": "F#4",
                    "midi": 66,
                    "time": 48.1433310000001,
                    "velocity": 0.4251968503937008,
                    "duration": 0.6066170000000071
                },
                {
                    "name": "E4",
                    "midi": 64,
                    "time": 48.5293600000001,
                    "velocity": 0.3464566929133858,
                    "duration": 0.11029400000000322
                },
                {
                    "name": "F#4",
                    "midi": 66,
                    "time": 48.63965400000011,
                    "velocity": 0.33858267716535434,
                    "duration": 0.25735266666666945
                },
                {
                    "name": "G#4",
                    "midi": 68,
                    "time": 48.74994800000011,
                    "velocity": 0.36220472440944884,
                    "duration": 0.07352933333333311
                },
                {
                    "name": "F#4",
                    "midi": 66,
                    "time": 48.82347733333344,
                    "velocity": 0.3464566929133858,
                    "duration": 0.14705866666666623
                },
                {
                    "name": "E4",
                    "midi": 64,
                    "time": 48.897006666666776,
                    "velocity": 0.3464566929133858,
                    "duration": 0.07352933333333311
                },
                {
                    "name": "G#3",
                    "midi": 56,
                    "time": 48.97053600000011,
                    "velocity": 0.30708661417322836,
                    "duration": 0.8088226666666642
                },
                {
                    "name": "E4",
                    "midi": 64,
                    "time": 48.97053600000011,
                    "velocity": 0.3464566929133858,
                    "duration": 0.8088226666666642
                },
                {
                    "name": "G#4",
                    "midi": 68,
                    "time": 49.79774100000011,
                    "velocity": 0.4094488188976378,
                    "duration": 0.04963229999999896
                },
                {
                    "name": "G#3",
                    "midi": 56,
                    "time": 49.79774100000011,
                    "velocity": 0.25984251968503935,
                    "duration": 0.04963229999999896
                },
                {
                    "name": "E4",
                    "midi": 64,
                    "time": 49.79774100000011,
                    "velocity": 0.25984251968503935,
                    "duration": 0.04963229999999896
                },
                {
                    "name": "G#4",
                    "midi": 68,
                    "time": 49.85288800000011,
                    "velocity": 0.4330708661417323,
                    "duration": 0.661763999999998
                },
                {
                    "name": "G#3",
                    "midi": 56,
                    "time": 49.85288800000011,
                    "velocity": 0.2755905511811024,
                    "duration": 0.661763999999998
                },
                {
                    "name": "E4",
                    "midi": 64,
                    "time": 49.85288800000011,
                    "velocity": 0.2755905511811024,
                    "duration": 0.661763999999998
                },
                {
                    "name": "A4",
                    "midi": 69,
                    "time": 50.514652000000105,
                    "velocity": 0.4094488188976378,
                    "duration": 0.11029399999999612
                },
                {
                    "name": "F#4",
                    "midi": 66,
                    "time": 50.514652000000105,
                    "velocity": 0.3464566929133858,
                    "duration": 0.11029399999999612
                },
                {
                    "name": "A3",
                    "midi": 57,
                    "time": 50.52108581666677,
                    "velocity": 0.3464566929133858,
                    "duration": 0.11029399999999612
                },
                {
                    "name": "B4",
                    "midi": 71,
                    "time": 50.6249460000001,
                    "velocity": 0.4330708661417323,
                    "duration": 0.11029399999999612
                },
                {
                    "name": "B3",
                    "midi": 59,
                    "time": 50.6249460000001,
                    "velocity": 0.36220472440944884,
                    "duration": 0.11029399999999612
                },
                {
                    "name": "G#4",
                    "midi": 68,
                    "time": 50.6249460000001,
                    "velocity": 0.36220472440944884,
                    "duration": 0.11029399999999612
                },
                {
                    "name": "C#5",
                    "midi": 73,
                    "time": 50.7352400000001,
                    "velocity": 0.4645669291338583,
                    "duration": 0.29411733333333245
                },
                {
                    "name": "C#4",
                    "midi": 61,
                    "time": 50.7352400000001,
                    "velocity": 0.3858267716535433,
                    "duration": 0.29411733333333245
                },
                {
                    "name": "A4",
                    "midi": 69,
                    "time": 50.7352400000001,
                    "velocity": 0.3858267716535433,
                    "duration": 0.29411733333333245
                },
                {
                    "name": "C#5",
                    "midi": 73,
                    "time": 51.02935733333343,
                    "velocity": 0.4251968503937008,
                    "duration": 0.14705866666666623
                },
                {
                    "name": "C#4",
                    "midi": 61,
                    "time": 51.02935733333343,
                    "velocity": 0.3543307086614173,
                    "duration": 0.14705866666666623
                },
                {
                    "name": "A4",
                    "midi": 69,
                    "time": 51.02935733333343,
                    "velocity": 0.3543307086614173,
                    "duration": 0.14705866666666623
                },
                {
                    "name": "C#5",
                    "midi": 73,
                    "time": 51.176416000000096,
                    "velocity": 0.44881889763779526,
                    "duration": 0.11764693333333298
                },
                {
                    "name": "C#4",
                    "midi": 61,
                    "time": 51.176416000000096,
                    "velocity": 0.3779527559055118,
                    "duration": 0.11764693333333298
                },
                {
                    "name": "A4",
                    "midi": 69,
                    "time": 51.176416000000096,
                    "velocity": 0.3779527559055118,
                    "duration": 0.11764693333333298
                },
                {
                    "name": "B4",
                    "midi": 71,
                    "time": 51.32347466666676,
                    "velocity": 0.4330708661417323,
                    "duration": 0.11764693333333298
                },
                {
                    "name": "B3",
                    "midi": 59,
                    "time": 51.32347466666676,
                    "velocity": 0.36220472440944884,
                    "duration": 0.11764693333333298
                },
                {
                    "name": "G#4",
                    "midi": 68,
                    "time": 51.32347466666676,
                    "velocity": 0.36220472440944884,
                    "duration": 0.11764693333333298
                },
                {
                    "name": "A#4",
                    "midi": 70,
                    "time": 51.47053333333343,
                    "velocity": 0.4094488188976378,
                    "duration": 0.11764693333333298
                },
                {
                    "name": "A#3",
                    "midi": 58,
                    "time": 51.47053333333343,
                    "velocity": 0.3464566929133858,
                    "duration": 0.11764693333333298
                },
                {
                    "name": "G4",
                    "midi": 67,
                    "time": 51.47053333333343,
                    "velocity": 0.3464566929133858,
                    "duration": 0.11764693333333298
                },
                {
                    "name": "B4",
                    "midi": 71,
                    "time": 51.617592000000094,
                    "velocity": 0.44881889763779526,
                    "duration": 0.4411759999999987
                },
                {
                    "name": "B3",
                    "midi": 59,
                    "time": 51.617592000000094,
                    "velocity": 0.3779527559055118,
                    "duration": 0.4411759999999987
                },
                {
                    "name": "G#4",
                    "midi": 68,
                    "time": 51.617592000000094,
                    "velocity": 0.3779527559055118,
                    "duration": 0.4411759999999987
                },
                {
                    "name": "E4",
                    "midi": 64,
                    "time": 52.05876800000009,
                    "velocity": 0.4094488188976378,
                    "duration": 0.2757349999999974
                },
                {
                    "name": "G#3",
                    "midi": 56,
                    "time": 52.05876800000009,
                    "velocity": 0.3464566929133858,
                    "duration": 0.4411759999999916
                },
                {
                    "name": "C#4",
                    "midi": 61,
                    "time": 52.05876800000009,
                    "velocity": 0.3464566929133858,
                    "duration": 0.4411759999999916
                },
                {
                    "name": "D#4",
                    "midi": 63,
                    "time": 52.224209000000094,
                    "velocity": 0.3464566929133858,
                    "duration": 0.05514699999999806
                },
                {
                    "name": "E4",
                    "midi": 64,
                    "time": 52.27935600000009,
                    "velocity": 0.3543307086614173,
                    "duration": 0.16544099999999418
                },
                {
                    "name": "F#4",
                    "midi": 66,
                    "time": 52.33450300000009,
                    "velocity": 0.3464566929133858,
                    "duration": 0.05514699999999806
                },
                {
                    "name": "E4",
                    "midi": 64,
                    "time": 52.38965000000009,
                    "velocity": 0.36220472440944884,
                    "duration": 0.11029399999999612
                },
                {
                    "name": "D#4",
                    "midi": 63,
                    "time": 52.44479700000009,
                    "velocity": 0.3779527559055118,
                    "duration": 0.05514699999999806
                },
                {
                    "name": "D#4",
                    "midi": 63,
                    "time": 52.499944000000085,
                    "velocity": 0.4094488188976378,
                    "duration": 0.33088200000000256
                },
                {
                    "name": "A3",
                    "midi": 57,
                    "time": 52.499944000000085,
                    "velocity": 0.3464566929133858,
                    "duration": 0.4411760000000058
                },
                {
                    "name": "E4",
                    "midi": 64,
                    "time": 52.83082600000009,
                    "velocity": 0.3858267716535433,
                    "duration": 0.03676466666667011
                },
                {
                    "name": "G#4",
                    "midi": 68,
                    "time": 52.86759066666676,
                    "velocity": 0.4330708661417323,
                    "duration": 0.07352933333333311
                },
                {
                    "name": "F#4",
                    "midi": 66,
                    "time": 52.94112000000009,
                    "velocity": 0.4094488188976378,
                    "duration": 0.33088200000000256
                },
                {
                    "name": "A3",
                    "midi": 57,
                    "time": 52.94112000000009,
                    "velocity": 0.3464566929133858,
                    "duration": 0.4411760000000058
                },
                {
                    "name": "E4",
                    "midi": 64,
                    "time": 53.27200200000009,
                    "velocity": 0.4094488188976378,
                    "duration": 0.09191166666666817
                },
                {
                    "name": "E4",
                    "midi": 64,
                    "time": 53.382296000000096,
                    "velocity": 0.4094488188976378,
                    "duration": 0.4411759999999987
                },
                {
                    "name": "G#3",
                    "midi": 56,
                    "time": 53.382296000000096,
                    "velocity": 0.3464566929133858,
                    "duration": 0.4411759999999987
                },
                {
                    "name": "E5",
                    "midi": 76,
                    "time": 55.050492750000096,
                    "velocity": 0.4094488188976378,
                    "duration": 0.05514699999999806
                },
                {
                    "name": "E4",
                    "midi": 64,
                    "time": 55.105639750000094,
                    "velocity": 0.3779527559055118,
                    "duration": 0.22058800000000645
                },
                {
                    "name": "G#4",
                    "midi": 68,
                    "time": 55.119426500000095,
                    "velocity": 0.3779527559055118,
                    "duration": 0.9099255000000142
                },
                {
                    "name": "C#5",
                    "midi": 73,
                    "time": 55.1332132500001,
                    "velocity": 0.3937007874015748,
                    "duration": 0.8961387500000129
                },
                {
                    "name": "E5",
                    "midi": 76,
                    "time": 55.1470000000001,
                    "velocity": 0.4330708661417323,
                    "duration": 0.6617640000000051
                },
                {
                    "name": "F#5",
                    "midi": 78,
                    "time": 55.8087640000001,
                    "velocity": 0.4094488188976378,
                    "duration": 0.11029400000000322
                },
                {
                    "name": "G#5",
                    "midi": 80,
                    "time": 55.919058000000106,
                    "velocity": 0.4094488188976378,
                    "duration": 0.09191166666666817
                },
                {
                    "name": "G#5",
                    "midi": 80,
                    "time": 56.02935200000011,
                    "velocity": 0.4094488188976378,
                    "duration": 0.05514699999999806
                },
                {
                    "name": "C#5",
                    "midi": 73,
                    "time": 56.08449900000011,
                    "velocity": 0.4409448818897638,
                    "duration": 0.7169110000000032
                },
                {
                    "name": "C5",
                    "midi": 72,
                    "time": 56.80141000000011,
                    "velocity": 0.4409448818897638,
                    "duration": 0.11029400000000322
                },
                {
                    "name": "C5",
                    "midi": 72,
                    "time": 56.911704000000114,
                    "velocity": 0.4409448818897638,
                    "duration": 0.11029400000000322
                },
                {
                    "name": "C4",
                    "midi": 60,
                    "time": 56.925490750000115,
                    "velocity": 0.3700787401574803,
                    "duration": 0.22058799999999934
                },
                {
                    "name": "F#4",
                    "midi": 66,
                    "time": 56.93927750000012,
                    "velocity": 0.3700787401574803,
                    "duration": 0.8547785000000019
                },
                {
                    "name": "G#4",
                    "midi": 68,
                    "time": 56.95306425000012,
                    "velocity": 0.3700787401574803,
                    "duration": 0.8409917500000006
                },
                {
                    "name": "D#5",
                    "midi": 75,
                    "time": 56.96685100000012,
                    "velocity": 0.4251968503937008,
                    "duration": 0.5330876666666597
                },
                {
                    "name": "C#5",
                    "midi": 73,
                    "time": 57.35288000000011,
                    "velocity": 0.36220472440944884,
                    "duration": 0.07352933333333311
                },
                {
                    "name": "D#5",
                    "midi": 75,
                    "time": 57.426409333333446,
                    "velocity": 0.36220472440944884,
                    "duration": 0.18382333333333634
                },
                {
                    "name": "E5",
                    "midi": 76,
                    "time": 57.49993866666678,
                    "velocity": 0.36220472440944884,
                    "duration": 0.07352933333333311
                },
                {
                    "name": "D#5",
                    "midi": 75,
                    "time": 57.57346800000011,
                    "velocity": 0.36220472440944884,
                    "duration": 0.07352933333334022
                },
                {
                    "name": "D#5",
                    "midi": 75,
                    "time": 57.61942383333345,
                    "velocity": 0.36220472440944884,
                    "duration": 0.1746321666666688
                },
                {
                    "name": "C#5",
                    "midi": 73,
                    "time": 57.64699733333345,
                    "velocity": 0.3779527559055118,
                    "duration": 0.07352933333333311
                },
                {
                    "name": "C5",
                    "midi": 72,
                    "time": 57.720526666666785,
                    "velocity": 0.3464566929133858,
                    "duration": 0.07352933333333311
                },
                {
                    "name": "E4",
                    "midi": 64,
                    "time": 57.79405600000012,
                    "velocity": 0.30708661417322836,
                    "duration": 0.22058799999999934
                },
                {
                    "name": "G#4",
                    "midi": 68,
                    "time": 57.80784275000012,
                    "velocity": 0.30708661417322836,
                    "duration": 0.6479772499999967
                },
                {
                    "name": "C#5",
                    "midi": 73,
                    "time": 57.82162950000012,
                    "velocity": 0.3464566929133858,
                    "duration": 0.6341904999999954
                },
                {
                    "name": "F4",
                    "midi": 65,
                    "time": 58.56611400000012,
                    "velocity": 0.6456692913385826,
                    "duration": 0.11029400000000322
                },
                {
                    "name": "B3",
                    "midi": 59,
                    "time": 58.56611400000012,
                    "velocity": 0.5433070866141733,
                    "duration": 0.11029400000000322
                },
                {
                    "name": "C#4",
                    "midi": 61,
                    "time": 58.56611400000012,
                    "velocity": 0.5433070866141733,
                    "duration": 0.11029400000000322
                },
                {
                    "name": "F#4",
                    "midi": 66,
                    "time": 58.67640800000012,
                    "velocity": 0.7086614173228346,
                    "duration": 0.661763999999998
                },
                {
                    "name": "A3",
                    "midi": 57,
                    "time": 58.67640800000012,
                    "velocity": 0.5984251968503937,
                    "duration": 0.661763999999998
                },
                {
                    "name": "C#4",
                    "midi": 61,
                    "time": 58.67640800000012,
                    "velocity": 0.5984251968503937,
                    "duration": 0.661763999999998
                },
                {
                    "name": "A5",
                    "midi": 81,
                    "time": 59.33817200000012,
                    "velocity": 0.6299212598425197,
                    "duration": 0.20220566666666429
                },
                {
                    "name": "A4",
                    "midi": 69,
                    "time": 59.33817200000012,
                    "velocity": 0.5354330708661418,
                    "duration": 0.20220566666666429
                },
                {
                    "name": "F#5",
                    "midi": 78,
                    "time": 59.33817200000012,
                    "velocity": 0.5354330708661418,
                    "duration": 0.20220566666666429
                },
                {
                    "name": "F#5",
                    "midi": 78,
                    "time": 59.55876000000012,
                    "velocity": 0.6692913385826772,
                    "duration": 0.16544100000000128
                },
                {
                    "name": "A5",
                    "midi": 81,
                    "time": 59.55876000000012,
                    "velocity": 0.6692913385826772,
                    "duration": 0.16544100000000128
                },
                {
                    "name": "A4",
                    "midi": 69,
                    "time": 59.55876000000012,
                    "velocity": 0.5669291338582677,
                    "duration": 0.16544100000000128
                },
                {
                    "name": "G#5",
                    "midi": 80,
                    "time": 59.72420100000012,
                    "velocity": 0.6220472440944882,
                    "duration": 0.04136024999999677
                },
                {
                    "name": "G#4",
                    "midi": 68,
                    "time": 59.72420100000012,
                    "velocity": 0.5275590551181102,
                    "duration": 0.04136024999999677
                },
                {
                    "name": "E5",
                    "midi": 76,
                    "time": 59.72420100000012,
                    "velocity": 0.5275590551181102,
                    "duration": 0.04136024999999677
                },
                {
                    "name": "G#5",
                    "midi": 80,
                    "time": 59.77934800000012,
                    "velocity": 0.6692913385826772,
                    "duration": 0.16544100000000128
                },
                {
                    "name": "G#4",
                    "midi": 68,
                    "time": 59.77934800000012,
                    "velocity": 0.5669291338582677,
                    "duration": 0.16544100000000128
                },
                {
                    "name": "E5",
                    "midi": 76,
                    "time": 59.77934800000012,
                    "velocity": 0.5669291338582677,
                    "duration": 0.16544100000000128
                },
                {
                    "name": "F#5",
                    "midi": 78,
                    "time": 59.94478900000012,
                    "velocity": 0.6377952755905512,
                    "duration": 0.04136024999999677
                },
                {
                    "name": "F#4",
                    "midi": 66,
                    "time": 59.94478900000012,
                    "velocity": 0.5354330708661418,
                    "duration": 0.04136024999999677
                },
                {
                    "name": "D#5",
                    "midi": 75,
                    "time": 59.94478900000012,
                    "velocity": 0.5354330708661418,
                    "duration": 0.04136024999999677
                },
                {
                    "name": "F#5",
                    "midi": 78,
                    "time": 59.99993600000012,
                    "velocity": 0.6377952755905512,
                    "duration": 0.22058799999999934
                },
                {
                    "name": "F#4",
                    "midi": 66,
                    "time": 59.99993600000012,
                    "velocity": 0.5354330708661418,
                    "duration": 0.22058799999999934
                },
                {
                    "name": "D#5",
                    "midi": 75,
                    "time": 59.99993600000012,
                    "velocity": 0.5354330708661418,
                    "duration": 0.22058799999999934
                },
                {
                    "name": "D#5",
                    "midi": 75,
                    "time": 60.33081800000012,
                    "velocity": 0.41732283464566927,
                    "duration": 0.08272050000000064
                },
                {
                    "name": "F#4",
                    "midi": 66,
                    "time": 60.33081800000012,
                    "velocity": 0.3543307086614173,
                    "duration": 0.08272050000000064
                },
                {
                    "name": "A4",
                    "midi": 69,
                    "time": 60.33081800000012,
                    "velocity": 0.3543307086614173,
                    "duration": 0.08272050000000064
                },
                {
                    "name": "E5",
                    "midi": 76,
                    "time": 60.441112000000125,
                    "velocity": 0.4566929133858268,
                    "duration": 0.22058799999999934
                },
                {
                    "name": "E4",
                    "midi": 64,
                    "time": 60.441112000000125,
                    "velocity": 0.3858267716535433,
                    "duration": 0.22058799999999934
                },
                {
                    "name": "G#4",
                    "midi": 68,
                    "time": 60.441112000000125,
                    "velocity": 0.3858267716535433,
                    "duration": 0.22058799999999934
                },
                {
                    "name": "D#5",
                    "midi": 75,
                    "time": 60.661700000000124,
                    "velocity": 0.3779527559055118,
                    "duration": 0.05514699999999806
                },
                {
                    "name": "E5",
                    "midi": 76,
                    "time": 60.71684700000012,
                    "velocity": 0.3937007874015748,
                    "duration": 0.05514699999999806
                },
                {
                    "name": "F#5",
                    "midi": 78,
                    "time": 60.77199400000012,
                    "velocity": 0.4015748031496063,
                    "duration": 0.05514699999999806
                },
                {
                    "name": "E5",
                    "midi": 76,
                    "time": 60.82714100000012,
                    "velocity": 0.3937007874015748,
                    "duration": 0.05514699999999806
                },
                {
                    "name": "D#5",
                    "midi": 75,
                    "time": 60.882288000000116,
                    "velocity": 0.4251968503937008,
                    "duration": 0.22058799999999934
                },
                {
                    "name": "G#4",
                    "midi": 68,
                    "time": 60.882288000000116,
                    "velocity": 0.3543307086614173,
                    "duration": 0.22058799999999934
                },
                {
                    "name": "C#5",
                    "midi": 73,
                    "time": 61.21317000000012,
                    "velocity": 0.3779527559055118,
                    "duration": 0.11029400000000322
                },
                {
                    "name": "D#5",
                    "midi": 75,
                    "time": 61.32346400000012,
                    "velocity": 0.41732283464566927,
                    "duration": 0.22058799999999934
                },
                {
                    "name": "F#4",
                    "midi": 66,
                    "time": 61.32346400000012,
                    "velocity": 0.3543307086614173,
                    "duration": 0.4411759999999987
                },
                {
                    "name": "G#4",
                    "midi": 68,
                    "time": 61.32346400000012,
                    "velocity": 0.3543307086614173,
                    "duration": 0.22058799999999934
                },
                {
                    "name": "G#4",
                    "midi": 68,
                    "time": 61.54405200000012,
                    "velocity": 0.3937007874015748,
                    "duration": 0.22058799999999934
                },
                {
                    "name": "G#5",
                    "midi": 80,
                    "time": 61.76464000000012,
                    "velocity": 0.4251968503937008,
                    "duration": 0.33088200000000256
                },
                {
                    "name": "F#4",
                    "midi": 66,
                    "time": 61.76464000000012,
                    "velocity": 0.3543307086614173,
                    "duration": 0.33088200000000256
                },
                {
                    "name": "C5",
                    "midi": 72,
                    "time": 61.76464000000012,
                    "velocity": 0.3543307086614173,
                    "duration": 0.33088200000000256
                },
                {
                    "name": "C5",
                    "midi": 72,
                    "time": 62.09552200000012,
                    "velocity": 0.3464566929133858,
                    "duration": 0.11029400000000322
                },
                {
                    "name": "C#5",
                    "midi": 73,
                    "time": 62.20581600000013,
                    "velocity": 0.4015748031496063,
                    "duration": 0.22058799999999934
                },
                {
                    "name": "E4",
                    "midi": 64,
                    "time": 62.20581600000013,
                    "velocity": 0.33858267716535434,
                    "duration": 0.22058799999999934
                },
                {
                    "name": "G#4",
                    "midi": 68,
                    "time": 62.20581600000013,
                    "velocity": 0.33858267716535434,
                    "duration": 0.22058799999999934
                },
                {
                    "name": "C5",
                    "midi": 72,
                    "time": 62.426404000000126,
                    "velocity": 0.4015748031496063,
                    "duration": 0.07352933333333311
                },
                {
                    "name": "C#5",
                    "midi": 73,
                    "time": 62.49993333333346,
                    "velocity": 0.4015748031496063,
                    "duration": 0.07352933333333311
                },
                {
                    "name": "D#5",
                    "midi": 75,
                    "time": 62.57346266666679,
                    "velocity": 0.4015748031496063,
                    "duration": 0.07352933333333311
                },
                {
                    "name": "C#5",
                    "midi": 73,
                    "time": 62.646992000000125,
                    "velocity": 0.4330708661417323,
                    "duration": 0.33088200000000256
                },
                {
                    "name": "D#4",
                    "midi": 63,
                    "time": 62.646992000000125,
                    "velocity": 0.36220472440944884,
                    "duration": 0.4411760000000058
                },
                {
                    "name": "G#4",
                    "midi": 68,
                    "time": 62.646992000000125,
                    "velocity": 0.36220472440944884,
                    "duration": 0.4411760000000058
                },
                {
                    "name": "C5",
                    "midi": 72,
                    "time": 62.97787400000013,
                    "velocity": 0.4015748031496063,
                    "duration": 0.11029400000000322
                },
                {
                    "name": "C#5",
                    "midi": 73,
                    "time": 63.08816800000013,
                    "velocity": 0.4330708661417323,
                    "duration": 0.22058799999999934
                },
                {
                    "name": "C#4",
                    "midi": 61,
                    "time": 63.08816800000013,
                    "velocity": 0.36220472440944884,
                    "duration": 0.22058799999999934
                },
                {
                    "name": "G#4",
                    "midi": 68,
                    "time": 63.08816800000013,
                    "velocity": 0.36220472440944884,
                    "duration": 0.22058799999999934
                },
                {
                    "name": "C#4",
                    "midi": 61,
                    "time": 63.933755333333465,
                    "velocity": 0.5118110236220472,
                    "duration": 0.027573500000002582
                },
                {
                    "name": "C#4",
                    "midi": 61,
                    "time": 63.970520000000135,
                    "velocity": 0.5669291338582677,
                    "duration": 0.3860289999999935
                },
                {
                    "name": "G#3",
                    "midi": 56,
                    "time": 63.970520000000135,
                    "velocity": 0.48031496062992124,
                    "duration": 0.3860289999999935
                },
                {
                    "name": "E3",
                    "midi": 52,
                    "time": 63.970520000000135,
                    "velocity": 0.48031496062992124,
                    "duration": 0.3860289999999935
                },
                {
                    "name": "F#4",
                    "midi": 66,
                    "time": 64.37493133333346,
                    "velocity": 0.5511811023622047,
                    "duration": 0.027573500000002582
                },
                {
                    "name": "F#4",
                    "midi": 66,
                    "time": 64.41169600000013,
                    "velocity": 0.5590551181102362,
                    "duration": 0.3860289999999935
                },
                {
                    "name": "A3",
                    "midi": 57,
                    "time": 64.41169600000013,
                    "velocity": 0.47244094488188976,
                    "duration": 0.3860289999999935
                },
                {
                    "name": "F#3",
                    "midi": 54,
                    "time": 64.41169600000013,
                    "velocity": 0.47244094488188976,
                    "duration": 0.3860289999999935
                },
                {
                    "name": "E4",
                    "midi": 64,
                    "time": 64.81610733333346,
                    "velocity": 0.5433070866141733,
                    "duration": 0.027573500000002582
                },
                {
                    "name": "E4",
                    "midi": 64,
                    "time": 64.85287200000013,
                    "velocity": 0.5511811023622047,
                    "duration": 0.16544100000000128
                },
                {
                    "name": "G#3",
                    "midi": 56,
                    "time": 64.85287200000013,
                    "velocity": 0.4645669291338583,
                    "duration": 0.16544100000000128
                },
                {
                    "name": "E3",
                    "midi": 52,
                    "time": 64.85287200000013,
                    "velocity": 0.4645669291338583,
                    "duration": 0.16544100000000128
                },
                {
                    "name": "D4",
                    "midi": 62,
                    "time": 65.03669533333347,
                    "velocity": 0.5433070866141733,
                    "duration": 0.03676466666667011
                },
                {
                    "name": "F#3",
                    "midi": 54,
                    "time": 65.07346000000014,
                    "velocity": 0.48031496062992124,
                    "duration": 0.16544100000000128
                },
                {
                    "name": "D4",
                    "midi": 62,
                    "time": 65.07346000000014,
                    "velocity": 0.5669291338582677,
                    "duration": 0.16544100000000128
                },
                {
                    "name": "A3",
                    "midi": 57,
                    "time": 65.07346000000014,
                    "velocity": 0.48031496062992124,
                    "duration": 0.16544100000000128
                },
                {
                    "name": "C#4",
                    "midi": 61,
                    "time": 65.25728333333348,
                    "velocity": 0.5669291338582677,
                    "duration": 0.03676466666667011
                },
                {
                    "name": "C#4",
                    "midi": 61,
                    "time": 65.29404800000015,
                    "velocity": 0.5984251968503937,
                    "duration": 0.16544100000000128
                },
                {
                    "name": "G#3",
                    "midi": 56,
                    "time": 65.29404800000015,
                    "velocity": 0.5039370078740157,
                    "duration": 0.16544100000000128
                },
                {
                    "name": "E3",
                    "midi": 52,
                    "time": 65.29404800000015,
                    "velocity": 0.5039370078740157,
                    "duration": 0.16544100000000128
                },
                {
                    "name": "C4",
                    "midi": 60,
                    "time": 65.47787133333348,
                    "velocity": 0.5905511811023622,
                    "duration": 0.027573500000002582
                },
                {
                    "name": "C4",
                    "midi": 60,
                    "time": 65.51463600000015,
                    "velocity": 0.6141732283464567,
                    "duration": 0.16544100000000128
                },
                {
                    "name": "F#3",
                    "midi": 54,
                    "time": 65.51463600000015,
                    "velocity": 0.5196850393700787,
                    "duration": 0.16544100000000128
                },
                {
                    "name": "D#3",
                    "midi": 51,
                    "time": 65.51463600000015,
                    "velocity": 0.5196850393700787,
                    "duration": 0.16544100000000128
                },
                {
                    "name": "C#4",
                    "midi": 61,
                    "time": 65.69845933333349,
                    "velocity": 0.6299212598425197,
                    "duration": 0.027573500000002582
                },
                {
                    "name": "C#4",
                    "midi": 61,
                    "time": 65.73522400000016,
                    "velocity": 0.6377952755905512,
                    "duration": 0.11029399999999612
                },
                {
                    "name": "E3",
                    "midi": 52,
                    "time": 65.73522400000016,
                    "velocity": 0.5433070866141733,
                    "duration": 0.11029399999999612
                },
                {
                    "name": "C#3",
                    "midi": 49,
                    "time": 65.73522400000016,
                    "velocity": 0.5433070866141733,
                    "duration": 0.11029399999999612
                },
                {
                    "name": "A2",
                    "midi": 45,
                    "time": 65.95581200000015,
                    "velocity": 0.5196850393700787,
                    "duration": 0.6617640000000762
                },
                {
                    "name": "C#3",
                    "midi": 49,
                    "time": 65.95581200000015,
                    "velocity": 0.5196850393700787,
                    "duration": 0.04411760000000697
                },
                {
                    "name": "D#3",
                    "midi": 51,
                    "time": 65.99992960000016,
                    "velocity": 0.48031496062992124,
                    "duration": 0.04411760000000697
                },
                {
                    "name": "C#3",
                    "midi": 49,
                    "time": 66.04404720000016,
                    "velocity": 0.5196850393700787,
                    "duration": 0.04411760000000697
                },
                {
                    "name": "D#3",
                    "midi": 51,
                    "time": 66.08816480000017,
                    "velocity": 0.48031496062992124,
                    "duration": 0.04411760000000697
                },
                {
                    "name": "C#3",
                    "midi": 49,
                    "time": 66.13228240000018,
                    "velocity": 0.48031496062992124,
                    "duration": 0.04411760000000697
                },
                {
                    "name": "C3",
                    "midi": 48,
                    "time": 66.17640000000019,
                    "velocity": 0.5196850393700787,
                    "duration": 0.03676466666667011
                },
                {
                    "name": "C#3",
                    "midi": 49,
                    "time": 66.21316466666686,
                    "velocity": 0.47244094488188976,
                    "duration": 0.03676466666667011
                },
                {
                    "name": "D#3",
                    "midi": 51,
                    "time": 66.25084845000019,
                    "velocity": 0.5196850393700787,
                    "duration": 0.03676466666667011
                },
                {
                    "name": "E3",
                    "midi": 52,
                    "time": 66.28761311666686,
                    "velocity": 0.48031496062992124,
                    "duration": 0.03676466666667011
                },
                {
                    "name": "F#3",
                    "midi": 54,
                    "time": 66.32437778333353,
                    "velocity": 0.5196850393700787,
                    "duration": 0.03676466666667011
                },
                {
                    "name": "G#3",
                    "midi": 56,
                    "time": 66.3611424500002,
                    "velocity": 0.48031496062992124,
                    "duration": 0.03676466666667011
                },
                {
                    "name": "A3",
                    "midi": 57,
                    "time": 66.39790711666687,
                    "velocity": 0.5196850393700787,
                    "duration": 0.03676466666667011
                },
                {
                    "name": "G#3",
                    "midi": 56,
                    "time": 66.43559090000021,
                    "velocity": 0.47244094488188976,
                    "duration": 0.03676466666667011
                },
                {
                    "name": "F#3",
                    "midi": 54,
                    "time": 66.47235556666688,
                    "velocity": 0.4645669291338583,
                    "duration": 0.03676466666667011
                },
                {
                    "name": "E3",
                    "midi": 52,
                    "time": 66.50912023333355,
                    "velocity": 0.47244094488188976,
                    "duration": 0.03676466666667011
                },
                {
                    "name": "D#3",
                    "midi": 51,
                    "time": 66.54588490000022,
                    "velocity": 0.4881889763779528,
                    "duration": 0.03676466666667011
                },
                {
                    "name": "C#3",
                    "midi": 49,
                    "time": 66.58264956666689,
                    "velocity": 0.49606299212598426,
                    "duration": 0.03676466666667011
                },
                {
                    "name": "C3",
                    "midi": 48,
                    "time": 66.61941423333356,
                    "velocity": 0.5118110236220472,
                    "duration": 0.03676466666667011
                },
                {
                    "name": "C#3",
                    "midi": 49,
                    "time": 66.6570980166669,
                    "velocity": 0.5196850393700787,
                    "duration": 0.03676466666667011
                },
                {
                    "name": "D#3",
                    "midi": 51,
                    "time": 66.69386268333356,
                    "velocity": 0.5354330708661418,
                    "duration": 0.03676466666667011
                },
                {
                    "name": "E3",
                    "midi": 52,
                    "time": 66.73062735000023,
                    "velocity": 0.5511811023622047,
                    "duration": 0.03676466666667011
                },
                {
                    "name": "D#3",
                    "midi": 51,
                    "time": 66.7673920166669,
                    "velocity": 0.5669291338582677,
                    "duration": 0.03676466666667011
                },
                {
                    "name": "C#3",
                    "midi": 49,
                    "time": 66.80415668333357,
                    "velocity": 0.5826771653543307,
                    "duration": 0.03308819999999457
                },
                {
                    "name": "G#2",
                    "midi": 44,
                    "time": 66.83816400000023,
                    "velocity": 0.6929133858267716,
                    "duration": 0.055147000000005164
                },
                {
                    "name": "C#3",
                    "midi": 49,
                    "time": 66.83816400000023,
                    "velocity": 0.6929133858267716,
                    "duration": 0.055147000000005164
                },
                {
                    "name": "G#4",
                    "midi": 68,
                    "time": 67.46316333333357,
                    "velocity": 0.5118110236220472,
                    "duration": 0.027573500000002582
                },
                {
                    "name": "G#4",
                    "midi": 68,
                    "time": 67.49992800000024,
                    "velocity": 0.5669291338582677,
                    "duration": 0.3860289999999935
                },
                {
                    "name": "D#4",
                    "midi": 63,
                    "time": 67.49992800000024,
                    "velocity": 0.48031496062992124,
                    "duration": 0.3860289999999935
                },
                {
                    "name": "B3",
                    "midi": 59,
                    "time": 67.49992800000024,
                    "velocity": 0.48031496062992124,
                    "duration": 0.3860289999999935
                },
                {
                    "name": "C#5",
                    "midi": 73,
                    "time": 67.90433933333357,
                    "velocity": 0.5511811023622047,
                    "duration": 0.027573500000002582
                },
                {
                    "name": "C#5",
                    "midi": 73,
                    "time": 67.94110400000024,
                    "velocity": 0.5590551181102362,
                    "duration": 0.3860289999999935
                },
                {
                    "name": "E4",
                    "midi": 64,
                    "time": 67.94110400000024,
                    "velocity": 0.47244094488188976,
                    "duration": 0.3860289999999935
                },
                {
                    "name": "C#4",
                    "midi": 61,
                    "time": 67.94110400000024,
                    "velocity": 0.47244094488188976,
                    "duration": 0.3860289999999935
                },
                {
                    "name": "B4",
                    "midi": 71,
                    "time": 68.34551533333357,
                    "velocity": 0.5433070866141733,
                    "duration": 0.027573500000002582
                },
                {
                    "name": "B4",
                    "midi": 71,
                    "time": 68.38228000000024,
                    "velocity": 0.5511811023622047,
                    "duration": 0.16544100000000128
                },
                {
                    "name": "D#4",
                    "midi": 63,
                    "time": 68.38228000000024,
                    "velocity": 0.4645669291338583,
                    "duration": 0.16544100000000128
                },
                {
                    "name": "B3",
                    "midi": 59,
                    "time": 68.38228000000024,
                    "velocity": 0.4645669291338583,
                    "duration": 0.16544100000000128
                },
                {
                    "name": "A4",
                    "midi": 69,
                    "time": 68.56610333333357,
                    "velocity": 0.5354330708661418,
                    "duration": 0.027573500000002582
                },
                {
                    "name": "A4",
                    "midi": 69,
                    "time": 68.60286800000024,
                    "velocity": 0.5590551181102362,
                    "duration": 0.16544100000000128
                },
                {
                    "name": "E4",
                    "midi": 64,
                    "time": 68.60286800000024,
                    "velocity": 0.47244094488188976,
                    "duration": 0.16544100000000128
                },
                {
                    "name": "C#4",
                    "midi": 61,
                    "time": 68.60286800000024,
                    "velocity": 0.47244094488188976,
                    "duration": 0.16544100000000128
                },
                {
                    "name": "G#4",
                    "midi": 68,
                    "time": 68.78669133333358,
                    "velocity": 0.5590551181102362,
                    "duration": 0.03676466666667011
                },
                {
                    "name": "G#4",
                    "midi": 68,
                    "time": 68.82345600000025,
                    "velocity": 0.5826771653543307,
                    "duration": 0.16544100000000128
                },
                {
                    "name": "D#4",
                    "midi": 63,
                    "time": 68.82345600000025,
                    "velocity": 0.49606299212598426,
                    "duration": 0.16544100000000128
                },
                {
                    "name": "B3",
                    "midi": 59,
                    "time": 68.82345600000025,
                    "velocity": 0.49606299212598426,
                    "duration": 0.16544100000000128
                },
                {
                    "name": "G4",
                    "midi": 67,
                    "time": 69.00727933333359,
                    "velocity": 0.5669291338582677,
                    "duration": 0.027573500000002582
                },
                {
                    "name": "G4",
                    "midi": 67,
                    "time": 69.04404400000026,
                    "velocity": 0.5905511811023622,
                    "duration": 0.16544100000000128
                },
                {
                    "name": "A#3",
                    "midi": 58,
                    "time": 69.04404400000026,
                    "velocity": 0.49606299212598426,
                    "duration": 0.16544100000000128
                },
                {
                    "name": "C#4",
                    "midi": 61,
                    "time": 69.04404400000026,
                    "velocity": 0.49606299212598426,
                    "duration": 0.16544100000000128
                },
                {
                    "name": "G#4",
                    "midi": 68,
                    "time": 69.22786733333359,
                    "velocity": 0.6062992125984252,
                    "duration": 0.027573500000002582
                },
                {
                    "name": "G#4",
                    "midi": 68,
                    "time": 69.26463200000026,
                    "velocity": 0.6141732283464567,
                    "duration": 0.11029399999999612
                },
                {
                    "name": "B3",
                    "midi": 59,
                    "time": 69.26463200000026,
                    "velocity": 0.5196850393700787,
                    "duration": 0.11029399999999612
                },
                {
                    "name": "G#3",
                    "midi": 56,
                    "time": 69.26463200000026,
                    "velocity": 0.5196850393700787,
                    "duration": 0.11029399999999612
                },
                {
                    "name": "E3",
                    "midi": 52,
                    "time": 69.48522000000025,
                    "velocity": 0.5196850393700787,
                    "duration": 0.6617640000000762
                },
                {
                    "name": "G#3",
                    "midi": 56,
                    "time": 69.48522000000025,
                    "velocity": 0.5196850393700787,
                    "duration": 0.04411760000000697
                },
                {
                    "name": "A3",
                    "midi": 57,
                    "time": 69.52933760000026,
                    "velocity": 0.48031496062992124,
                    "duration": 0.04411760000000697
                },
                {
                    "name": "G#3",
                    "midi": 56,
                    "time": 69.57345520000027,
                    "velocity": 0.5196850393700787,
                    "duration": 0.04411760000000697
                },
                {
                    "name": "A3",
                    "midi": 57,
                    "time": 69.61757280000027,
                    "velocity": 0.48031496062992124,
                    "duration": 0.04411760000000697
                },
                {
                    "name": "G#3",
                    "midi": 56,
                    "time": 69.66169040000028,
                    "velocity": 0.48031496062992124,
                    "duration": 0.04411760000000697
                },
                {
                    "name": "G3",
                    "midi": 55,
                    "time": 69.70580800000029,
                    "velocity": 0.5196850393700787,
                    "duration": 0.03676466666667011
                },
                {
                    "name": "G#3",
                    "midi": 56,
                    "time": 69.74257266666696,
                    "velocity": 0.47244094488188976,
                    "duration": 0.03676466666667011
                },
                {
                    "name": "A#3",
                    "midi": 58,
                    "time": 69.7802564500003,
                    "velocity": 0.5196850393700787,
                    "duration": 0.03676466666667011
                },
                {
                    "name": "B3",
                    "midi": 59,
                    "time": 69.81702111666696,
                    "velocity": 0.48031496062992124,
                    "duration": 0.03676466666667011
                },
                {
                    "name": "C#4",
                    "midi": 61,
                    "time": 69.85378578333363,
                    "velocity": 0.5196850393700787,
                    "duration": 0.03676466666667011
                },
                {
                    "name": "D#4",
                    "midi": 63,
                    "time": 69.8905504500003,
                    "velocity": 0.48031496062992124,
                    "duration": 0.03676466666667011
                },
                {
                    "name": "E4",
                    "midi": 64,
                    "time": 69.92731511666697,
                    "velocity": 0.5196850393700787,
                    "duration": 0.03676466666667011
                },
                {
                    "name": "D#4",
                    "midi": 63,
                    "time": 69.96499890000031,
                    "velocity": 0.47244094488188976,
                    "duration": 0.03676466666667011
                },
                {
                    "name": "C#4",
                    "midi": 61,
                    "time": 70.00176356666698,
                    "velocity": 0.4645669291338583,
                    "duration": 0.03676466666667011
                },
                {
                    "name": "B3",
                    "midi": 59,
                    "time": 70.03852823333365,
                    "velocity": 0.47244094488188976,
                    "duration": 0.03676466666667011
                },
                {
                    "name": "A#3",
                    "midi": 58,
                    "time": 70.07529290000032,
                    "velocity": 0.4881889763779528,
                    "duration": 0.03676466666667011
                },
                {
                    "name": "G#3",
                    "midi": 56,
                    "time": 70.11205756666699,
                    "velocity": 0.49606299212598426,
                    "duration": 0.03676466666667011
                },
                {
                    "name": "G3",
                    "midi": 55,
                    "time": 70.14882223333366,
                    "velocity": 0.5118110236220472,
                    "duration": 0.03676466666667011
                },
                {
                    "name": "G#3",
                    "midi": 56,
                    "time": 70.186506016667,
                    "velocity": 0.5196850393700787,
                    "duration": 0.03676466666667011
                },
                {
                    "name": "A#3",
                    "midi": 58,
                    "time": 70.22327068333367,
                    "velocity": 0.5354330708661418,
                    "duration": 0.03676466666667011
                },
                {
                    "name": "B3",
                    "midi": 59,
                    "time": 70.26003535000034,
                    "velocity": 0.5511811023622047,
                    "duration": 0.03676466666667011
                },
                {
                    "name": "A#3",
                    "midi": 58,
                    "time": 70.296800016667,
                    "velocity": 0.5669291338582677,
                    "duration": 0.03676466666667011
                },
                {
                    "name": "G#3",
                    "midi": 56,
                    "time": 70.33356468333368,
                    "velocity": 0.5826771653543307,
                    "duration": 0.03308819999999457
                },
                {
                    "name": "B2",
                    "midi": 47,
                    "time": 70.36757200000034,
                    "velocity": 0.6929133858267716,
                    "duration": 0.055147000000005164
                },
                {
                    "name": "D#3",
                    "midi": 51,
                    "time": 70.36757200000034,
                    "velocity": 0.6929133858267716,
                    "duration": 0.055147000000005164
                },
                {
                    "name": "G#3",
                    "midi": 56,
                    "time": 70.36757200000034,
                    "velocity": 0.6929133858267716,
                    "duration": 0.055147000000005164
                },
                {
                    "name": "G#5",
                    "midi": 80,
                    "time": 71.02933600000034,
                    "velocity": 0.4251968503937008,
                    "duration": 0.055147000000005164
                },
                {
                    "name": "B5",
                    "midi": 83,
                    "time": 71.02933600000034,
                    "velocity": 0.4251968503937008,
                    "duration": 0.055147000000005164
                },
                {
                    "name": "G#6",
                    "midi": 92,
                    "time": 71.02933600000034,
                    "velocity": 0.5511811023622047,
                    "duration": 0.055147000000005164
                },
                {
                    "name": "G#5",
                    "midi": 80,
                    "time": 71.47051200000034,
                    "velocity": 0.4015748031496063,
                    "duration": 0.055147000000005164
                },
                {
                    "name": "B5",
                    "midi": 83,
                    "time": 71.47051200000034,
                    "velocity": 0.4015748031496063,
                    "duration": 0.055147000000005164
                },
                {
                    "name": "G#6",
                    "midi": 92,
                    "time": 71.47051200000034,
                    "velocity": 0.5196850393700787,
                    "duration": 0.055147000000005164
                },
                {
                    "name": "G#5",
                    "midi": 80,
                    "time": 71.91168800000034,
                    "velocity": 0.41732283464566927,
                    "duration": 0.8823519999999974
                },
                {
                    "name": "B5",
                    "midi": 83,
                    "time": 71.91168800000034,
                    "velocity": 0.41732283464566927,
                    "duration": 0.8823519999999974
                },
                {
                    "name": "G#6",
                    "midi": 92,
                    "time": 71.91168800000034,
                    "velocity": 0.5433070866141733,
                    "duration": 0.6617640000000051
                },
                {
                    "name": "F#6",
                    "midi": 90,
                    "time": 72.57345200000034,
                    "velocity": 0.49606299212598426,
                    "duration": 0.11029399999999612
                },
                {
                    "name": "E6",
                    "midi": 88,
                    "time": 72.68374600000034,
                    "velocity": 0.49606299212598426,
                    "duration": 0.11029399999999612
                },
                {
                    "name": "A5",
                    "midi": 81,
                    "time": 72.79404000000034,
                    "velocity": 0.4330708661417323,
                    "duration": 0.4411760000000129
                },
                {
                    "name": "B5",
                    "midi": 83,
                    "time": 72.79404000000034,
                    "velocity": 0.4330708661417323,
                    "duration": 0.4411760000000129
                },
                {
                    "name": "D#6",
                    "midi": 87,
                    "time": 72.79404000000034,
                    "velocity": 0.5590551181102362,
                    "duration": 0.055147000000005164
                },
                {
                    "name": "E6",
                    "midi": 88,
                    "time": 73.01462800000034,
                    "velocity": 0.5196850393700787,
                    "duration": 0.055147000000005164
                },
                {
                    "name": "A5",
                    "midi": 81,
                    "time": 73.23521600000035,
                    "velocity": 0.4330708661417323,
                    "duration": 0.4411759999999987
                },
                {
                    "name": "B5",
                    "midi": 83,
                    "time": 73.23521600000035,
                    "velocity": 0.4330708661417323,
                    "duration": 0.4411759999999987
                },
                {
                    "name": "F#6",
                    "midi": 90,
                    "time": 73.23521600000035,
                    "velocity": 0.5669291338582677,
                    "duration": 0.4411759999999987
                },
                {
                    "name": "G#5",
                    "midi": 80,
                    "time": 73.67639200000035,
                    "velocity": 0.41732283464566927,
                    "duration": 0.8823519999999974
                },
                {
                    "name": "B5",
                    "midi": 83,
                    "time": 73.67639200000035,
                    "velocity": 0.41732283464566927,
                    "duration": 0.8823519999999974
                },
                {
                    "name": "G#6",
                    "midi": 92,
                    "time": 73.67639200000035,
                    "velocity": 0.5433070866141733,
                    "duration": 0.6617640000000051
                },
                {
                    "name": "F#6",
                    "midi": 90,
                    "time": 74.33815600000035,
                    "velocity": 0.49606299212598426,
                    "duration": 0.11029399999999612
                },
                {
                    "name": "E6",
                    "midi": 88,
                    "time": 74.44845000000035,
                    "velocity": 0.49606299212598426,
                    "duration": 0.11029399999999612
                },
                {
                    "name": "A5",
                    "midi": 81,
                    "time": 74.55874400000035,
                    "velocity": 0.4330708661417323,
                    "duration": 0.4411760000000129
                },
                {
                    "name": "B5",
                    "midi": 83,
                    "time": 74.55874400000035,
                    "velocity": 0.4330708661417323,
                    "duration": 0.4411760000000129
                },
                {
                    "name": "D#6",
                    "midi": 87,
                    "time": 74.55874400000035,
                    "velocity": 0.5590551181102362,
                    "duration": 0.055147000000005164
                },
                {
                    "name": "E6",
                    "midi": 88,
                    "time": 74.77933200000035,
                    "velocity": 0.5196850393700787,
                    "duration": 0.055147000000005164
                },
                {
                    "name": "A5",
                    "midi": 81,
                    "time": 74.99992000000036,
                    "velocity": 0.4330708661417323,
                    "duration": 0.4411759999999987
                },
                {
                    "name": "B5",
                    "midi": 83,
                    "time": 74.99992000000036,
                    "velocity": 0.4330708661417323,
                    "duration": 0.4411759999999987
                },
                {
                    "name": "F#6",
                    "midi": 90,
                    "time": 74.99992000000036,
                    "velocity": 0.5669291338582677,
                    "duration": 0.4411759999999987
                },
                {
                    "name": "G#5",
                    "midi": 80,
                    "time": 75.44109600000036,
                    "velocity": 0.41732283464566927,
                    "duration": 0.8823519999999974
                },
                {
                    "name": "B5",
                    "midi": 83,
                    "time": 75.44109600000036,
                    "velocity": 0.41732283464566927,
                    "duration": 0.8823519999999974
                },
                {
                    "name": "G#6",
                    "midi": 92,
                    "time": 75.44109600000036,
                    "velocity": 0.5433070866141733,
                    "duration": 0.6617640000000051
                },
                {
                    "name": "F#6",
                    "midi": 90,
                    "time": 76.10286000000036,
                    "velocity": 0.49606299212598426,
                    "duration": 0.11029399999999612
                },
                {
                    "name": "E6",
                    "midi": 88,
                    "time": 76.21315400000036,
                    "velocity": 0.49606299212598426,
                    "duration": 0.11029399999999612
                },
                {
                    "name": "A5",
                    "midi": 81,
                    "time": 76.32344800000035,
                    "velocity": 0.4330708661417323,
                    "duration": 0.4411760000000129
                },
                {
                    "name": "B5",
                    "midi": 83,
                    "time": 76.32344800000035,
                    "velocity": 0.4330708661417323,
                    "duration": 0.4411760000000129
                },
                {
                    "name": "D#6",
                    "midi": 87,
                    "time": 76.32344800000035,
                    "velocity": 0.5590551181102362,
                    "duration": 0.055147000000005164
                },
                {
                    "name": "E6",
                    "midi": 88,
                    "time": 76.54403600000036,
                    "velocity": 0.5196850393700787,
                    "duration": 0.055147000000005164
                },
                {
                    "name": "A5",
                    "midi": 81,
                    "time": 76.76462400000037,
                    "velocity": 0.4330708661417323,
                    "duration": 0.4411759999999987
                },
                {
                    "name": "B5",
                    "midi": 83,
                    "time": 76.76462400000037,
                    "velocity": 0.4330708661417323,
                    "duration": 0.4411759999999987
                },
                {
                    "name": "F#6",
                    "midi": 90,
                    "time": 76.76462400000037,
                    "velocity": 0.5669291338582677,
                    "duration": 0.4411759999999987
                },
                {
                    "name": "G#5",
                    "midi": 80,
                    "time": 77.20580000000037,
                    "velocity": 0.41732283464566927,
                    "duration": 0.4411759999999987
                },
                {
                    "name": "B5",
                    "midi": 83,
                    "time": 77.20580000000037,
                    "velocity": 0.41732283464566927,
                    "duration": 0.4411759999999987
                },
                {
                    "name": "G#6",
                    "midi": 92,
                    "time": 77.20580000000037,
                    "velocity": 0.5433070866141733,
                    "duration": 0.6617640000000051
                },
                {
                    "name": "F#6",
                    "midi": 90,
                    "time": 77.86756400000037,
                    "velocity": 0.49606299212598426,
                    "duration": 0.11029399999999612
                },
                {
                    "name": "E6",
                    "midi": 88,
                    "time": 77.97785800000037,
                    "velocity": 0.49606299212598426,
                    "duration": 0.11029399999999612
                },
                {
                    "name": "B5",
                    "midi": 83,
                    "time": 78.08815200000036,
                    "velocity": 0.4330708661417323,
                    "duration": 0.44117599999998447
                },
                {
                    "name": "D#6",
                    "midi": 87,
                    "time": 78.08815200000036,
                    "velocity": 0.5590551181102362,
                    "duration": 0.11029399999999612
                },
                {
                    "name": "E6",
                    "midi": 88,
                    "time": 78.19844600000036,
                    "velocity": 0.5196850393700787,
                    "duration": 0.11029399999999612
                },
                {
                    "name": "F#6",
                    "midi": 90,
                    "time": 78.30874000000036,
                    "velocity": 0.5196850393700787,
                    "duration": 0.11029399999999612
                },
                {
                    "name": "G#6",
                    "midi": 92,
                    "time": 78.41903400000035,
                    "velocity": 0.5196850393700787,
                    "duration": 0.11029399999999612
                },
                {
                    "name": "G#5",
                    "midi": 80,
                    "time": 78.52932800000035,
                    "velocity": 0.4330708661417323,
                    "duration": 0.4411760000000129
                },
                {
                    "name": "F#6",
                    "midi": 90,
                    "time": 78.52932800000035,
                    "velocity": 0.5669291338582677,
                    "duration": 0.055147000000005164
                },
                {
                    "name": "E6",
                    "midi": 88,
                    "time": 78.74991600000035,
                    "velocity": 0.5511811023622047,
                    "duration": 0.055147000000005164
                },
                {
                    "name": "G#5",
                    "midi": 80,
                    "time": 78.97050400000036,
                    "velocity": 0.4330708661417323,
                    "duration": 0.4411760000000129
                },
                {
                    "name": "D#6",
                    "midi": 87,
                    "time": 78.97050400000036,
                    "velocity": 0.5826771653543307,
                    "duration": 0.055147000000005164
                },
                {
                    "name": "E6",
                    "midi": 88,
                    "time": 79.19109200000037,
                    "velocity": 0.6062992125984252,
                    "duration": 0.055147000000005164
                },
                {
                    "name": "F#6",
                    "midi": 90,
                    "time": 79.41168000000037,
                    "velocity": 0.6141732283464567,
                    "duration": 0.33088200000000256
                },
                {
                    "name": "E6",
                    "midi": 88,
                    "time": 79.74256200000038,
                    "velocity": 0.5748031496062992,
                    "duration": 0.11029399999999612
                },
                {
                    "name": "G#5",
                    "midi": 80,
                    "time": 79.85285600000037,
                    "velocity": 0.4330708661417323,
                    "duration": 0.44117599999998447
                },
                {
                    "name": "D#6",
                    "midi": 87,
                    "time": 79.85285600000037,
                    "velocity": 0.5590551181102362,
                    "duration": 0.11029399999999612
                },
                {
                    "name": "E6",
                    "midi": 88,
                    "time": 79.96315000000037,
                    "velocity": 0.5196850393700787,
                    "duration": 0.11029399999999612
                },
                {
                    "name": "F#6",
                    "midi": 90,
                    "time": 80.07344400000036,
                    "velocity": 0.5196850393700787,
                    "duration": 0.11029399999999612
                },
                {
                    "name": "G#6",
                    "midi": 92,
                    "time": 80.18373800000036,
                    "velocity": 0.47244094488188976,
                    "duration": 0.11029399999999612
                },
                {
                    "name": "G#5",
                    "midi": 80,
                    "time": 80.29403200000036,
                    "velocity": 0.4330708661417323,
                    "duration": 0.4411760000000129
                },
                {
                    "name": "F#6",
                    "midi": 90,
                    "time": 80.29403200000036,
                    "velocity": 0.5669291338582677,
                    "duration": 0.055147000000005164
                },
                {
                    "name": "E6",
                    "midi": 88,
                    "time": 80.51462000000036,
                    "velocity": 0.5511811023622047,
                    "duration": 0.055147000000005164
                },
                {
                    "name": "G#5",
                    "midi": 80,
                    "time": 80.73520800000037,
                    "velocity": 0.4330708661417323,
                    "duration": 0.4411760000000129
                },
                {
                    "name": "D#6",
                    "midi": 87,
                    "time": 80.73520800000037,
                    "velocity": 0.5826771653543307,
                    "duration": 0.055147000000005164
                },
                {
                    "name": "E6",
                    "midi": 88,
                    "time": 80.95579600000038,
                    "velocity": 0.6062992125984252,
                    "duration": 0.055147000000005164
                },
                {
                    "name": "F#6",
                    "midi": 90,
                    "time": 81.17638400000038,
                    "velocity": 0.6141732283464567,
                    "duration": 0.33088200000000256
                },
                {
                    "name": "E6",
                    "midi": 88,
                    "time": 81.50726600000039,
                    "velocity": 0.5748031496062992,
                    "duration": 0.11029399999999612
                },
                {
                    "name": "G#5",
                    "midi": 80,
                    "time": 81.61756000000038,
                    "velocity": 0.4330708661417323,
                    "duration": 0.44117599999998447
                },
                {
                    "name": "D#6",
                    "midi": 87,
                    "time": 81.61756000000038,
                    "velocity": 0.5590551181102362,
                    "duration": 0.11029399999999612
                },
                {
                    "name": "E6",
                    "midi": 88,
                    "time": 81.72785400000038,
                    "velocity": 0.5196850393700787,
                    "duration": 0.11029399999999612
                },
                {
                    "name": "F#6",
                    "midi": 90,
                    "time": 81.83814800000037,
                    "velocity": 0.5196850393700787,
                    "duration": 0.11029399999999612
                },
                {
                    "name": "G#6",
                    "midi": 92,
                    "time": 81.94844200000037,
                    "velocity": 0.5196850393700787,
                    "duration": 0.11029399999999612
                },
                {
                    "name": "G#5",
                    "midi": 80,
                    "time": 82.05873600000037,
                    "velocity": 0.4330708661417323,
                    "duration": 0.4411760000000129
                },
                {
                    "name": "F#6",
                    "midi": 90,
                    "time": 82.05873600000037,
                    "velocity": 0.5669291338582677,
                    "duration": 0.055147000000005164
                },
                {
                    "name": "E6",
                    "midi": 88,
                    "time": 82.27932400000037,
                    "velocity": 0.5511811023622047,
                    "duration": 0.055147000000005164
                },
                {
                    "name": "G#5",
                    "midi": 80,
                    "time": 82.49991200000038,
                    "velocity": 0.4330708661417323,
                    "duration": 0.4411760000000129
                },
                {
                    "name": "D#6",
                    "midi": 87,
                    "time": 82.49991200000038,
                    "velocity": 0.5826771653543307,
                    "duration": 0.055147000000005164
                },
                {
                    "name": "C#6",
                    "midi": 85,
                    "time": 82.72050000000038,
                    "velocity": 0.5433070866141733,
                    "duration": 0.055147000000005164
                },
                {
                    "name": "C6",
                    "midi": 84,
                    "time": 82.94108800000039,
                    "velocity": 0.5433070866141733,
                    "duration": 0.4411759999999987
                },
                {
                    "name": "G#5",
                    "midi": 80,
                    "time": 83.38226400000039,
                    "velocity": 0.4330708661417323,
                    "duration": 0.44117599999998447
                },
                {
                    "name": "D#6",
                    "midi": 87,
                    "time": 83.38226400000039,
                    "velocity": 0.5590551181102362,
                    "duration": 0.11029399999999612
                },
                {
                    "name": "E6",
                    "midi": 88,
                    "time": 83.49255800000039,
                    "velocity": 0.5196850393700787,
                    "duration": 0.11029399999999612
                },
                {
                    "name": "F#6",
                    "midi": 90,
                    "time": 83.60285200000038,
                    "velocity": 0.5196850393700787,
                    "duration": 0.11029399999999612
                },
                {
                    "name": "G#6",
                    "midi": 92,
                    "time": 83.71314600000038,
                    "velocity": 0.5196850393700787,
                    "duration": 0.11029399999999612
                },
                {
                    "name": "C#6",
                    "midi": 85,
                    "time": 83.82344000000037,
                    "velocity": 0.4330708661417323,
                    "duration": 0.4411760000000129
                },
                {
                    "name": "A5",
                    "midi": 81,
                    "time": 83.82344000000037,
                    "velocity": 0.4330708661417323,
                    "duration": 0.4411760000000129
                },
                {
                    "name": "F#6",
                    "midi": 90,
                    "time": 83.82344000000037,
                    "velocity": 0.5669291338582677,
                    "duration": 0.055147000000005164
                },
                {
                    "name": "E6",
                    "midi": 88,
                    "time": 84.04402800000038,
                    "velocity": 0.5511811023622047,
                    "duration": 0.055147000000005164
                },
                {
                    "name": "A5",
                    "midi": 81,
                    "time": 84.26461600000039,
                    "velocity": 0.4330708661417323,
                    "duration": 0.4411760000000129
                },
                {
                    "name": "C#6",
                    "midi": 85,
                    "time": 84.26461600000039,
                    "velocity": 0.4330708661417323,
                    "duration": 0.4411760000000129
                },
                {
                    "name": "D#6",
                    "midi": 87,
                    "time": 84.26461600000039,
                    "velocity": 0.5826771653543307,
                    "duration": 0.055147000000005164
                },
                {
                    "name": "E6",
                    "midi": 88,
                    "time": 84.4852040000004,
                    "velocity": 0.6062992125984252,
                    "duration": 0.055147000000005164
                },
                {
                    "name": "A5",
                    "midi": 81,
                    "time": 84.7057920000004,
                    "velocity": 0.4881889763779528,
                    "duration": 0.4411759999999987
                },
                {
                    "name": "C#6",
                    "midi": 85,
                    "time": 84.7057920000004,
                    "velocity": 0.4881889763779528,
                    "duration": 0.4411759999999987
                },
                {
                    "name": "F#6",
                    "midi": 90,
                    "time": 84.7057920000004,
                    "velocity": 0.6377952755905512,
                    "duration": 0.4411759999999987
                },
                {
                    "name": "E6",
                    "midi": 88,
                    "time": 85.1469680000004,
                    "velocity": 0.5590551181102362,
                    "duration": 0.11029399999999612
                },
                {
                    "name": "G#5",
                    "midi": 80,
                    "time": 85.1469680000004,
                    "velocity": 0.47244094488188976,
                    "duration": 0.44117599999998447
                },
                {
                    "name": "D#6",
                    "midi": 87,
                    "time": 85.2572620000004,
                    "velocity": 0.49606299212598426,
                    "duration": 0.11029399999999612
                },
                {
                    "name": "C#6",
                    "midi": 85,
                    "time": 85.36755600000039,
                    "velocity": 0.49606299212598426,
                    "duration": 0.11029399999999612
                },
                {
                    "name": "E6",
                    "midi": 88,
                    "time": 85.47785000000039,
                    "velocity": 0.49606299212598426,
                    "duration": 0.11029399999999612
                },
                {
                    "name": "D#6",
                    "midi": 87,
                    "time": 85.58814400000038,
                    "velocity": 0.5669291338582677,
                    "duration": 0.11029399999999612
                },
                {
                    "name": "G#5",
                    "midi": 80,
                    "time": 85.58814400000038,
                    "velocity": 0.48031496062992124,
                    "duration": 0.44117599999998447
                },
                {
                    "name": "C#6",
                    "midi": 85,
                    "time": 85.69843800000038,
                    "velocity": 0.5039370078740157,
                    "duration": 0.11029399999999612
                },
                {
                    "name": "C6",
                    "midi": 84,
                    "time": 85.80873200000038,
                    "velocity": 0.5039370078740157,
                    "duration": 0.11029399999999612
                },
                {
                    "name": "D#6",
                    "midi": 87,
                    "time": 85.91902600000037,
                    "velocity": 0.49606299212598426,
                    "duration": 0.11029399999999612
                },
                {
                    "name": "G#5",
                    "midi": 80,
                    "time": 86.02932000000037,
                    "velocity": 0.47244094488188976,
                    "duration": 0.4411760000000413
                },
                {
                    "name": "C#6",
                    "midi": 85,
                    "time": 86.02932000000037,
                    "velocity": 0.4251968503937008,
                    "duration": 0.055147000000005164
                },
                {
                    "name": "D#6",
                    "midi": 87,
                    "time": 86.08446700000037,
                    "velocity": 0.3858267716535433,
                    "duration": 0.055147000000005164
                },
                {
                    "name": "C#6",
                    "midi": 85,
                    "time": 86.13961400000038,
                    "velocity": 0.4251968503937008,
                    "duration": 0.055147000000005164
                },
                {
                    "name": "D#6",
                    "midi": 87,
                    "time": 86.19476100000038,
                    "velocity": 0.3858267716535433,
                    "duration": 0.055147000000005164
                },
                {
                    "name": "C#6",
                    "midi": 85,
                    "time": 86.24990800000039,
                    "velocity": 0.4251968503937008,
                    "duration": 0.055147000000005164
                },
                {
                    "name": "D#6",
                    "midi": 87,
                    "time": 86.3050550000004,
                    "velocity": 0.3858267716535433,
                    "duration": 0.055147000000005164
                },
                {
                    "name": "C#6",
                    "midi": 85,
                    "time": 86.3602020000004,
                    "velocity": 0.4251968503937008,
                    "duration": 0.055147000000005164
                },
                {
                    "name": "D#6",
                    "midi": 87,
                    "time": 86.4153490000004,
                    "velocity": 0.36220472440944884,
                    "duration": 0.055147000000005164
                },
                {
                    "name": "C#6",
                    "midi": 85,
                    "time": 86.47049600000041,
                    "velocity": 0.41732283464566927,
                    "duration": 0.055147000000005164
                },
                {
                    "name": "D#6",
                    "midi": 87,
                    "time": 86.52564300000041,
                    "velocity": 0.3779527559055118,
                    "duration": 0.055147000000005164
                },
                {
                    "name": "C#6",
                    "midi": 85,
                    "time": 86.58079000000042,
                    "velocity": 0.41732283464566927,
                    "duration": 0.055147000000005164
                },
                {
                    "name": "D#6",
                    "midi": 87,
                    "time": 86.63593700000042,
                    "velocity": 0.3700787401574803,
                    "duration": 0.055147000000005164
                },
                {
                    "name": "C#6",
                    "midi": 85,
                    "time": 86.69108400000043,
                    "velocity": 0.41732283464566927,
                    "duration": 0.07352933333334022
                },
                {
                    "name": "D#6",
                    "midi": 87,
                    "time": 86.76461333333377,
                    "velocity": 0.36220472440944884,
                    "duration": 0.07352933333334022
                },
                {
                    "name": "C#6",
                    "midi": 85,
                    "time": 86.83814266666711,
                    "velocity": 0.4094488188976378,
                    "duration": 0.07352933333334022
                },
                {
                    "name": "C6",
                    "midi": 84,
                    "time": 86.92270140000045,
                    "velocity": 0.3779527559055118,
                    "duration": 0.055147000000005164
                },
                {
                    "name": "C#6",
                    "midi": 85,
                    "time": 86.97784840000045,
                    "velocity": 0.3858267716535433,
                    "duration": 0.055147000000005164
                },
                {
                    "name": "D6",
                    "midi": 86,
                    "time": 87.03299540000046,
                    "velocity": 0.4015748031496063,
                    "duration": 0.055147000000005164
                },
                {
                    "name": "D#6",
                    "midi": 87,
                    "time": 87.08814240000046,
                    "velocity": 0.41732283464566927,
                    "duration": 0.055147000000005164
                },
                {
                    "name": "E6",
                    "midi": 88,
                    "time": 87.14328940000047,
                    "velocity": 0.4330708661417323,
                    "duration": 0.055147000000005164
                },
                {
                    "name": "F6",
                    "midi": 89,
                    "time": 87.19843640000047,
                    "velocity": 0.4409448818897638,
                    "duration": 0.055147000000005164
                },
                {
                    "name": "F#6",
                    "midi": 90,
                    "time": 87.25358340000048,
                    "velocity": 0.4566929133858268,
                    "duration": 0.055147000000005164
                },
                {
                    "name": "G6",
                    "midi": 91,
                    "time": 87.30873040000048,
                    "velocity": 0.47244094488188976,
                    "duration": 0.055147000000005164
                },
                {
                    "name": "G#6",
                    "midi": 92,
                    "time": 87.35284800000049,
                    "velocity": 0.5511811023622047,
                    "duration": 0.4411759999999987
                },
                {
                    "name": "G#5",
                    "midi": 80,
                    "time": 87.57343600000048,
                    "velocity": 0.3779527559055118,
                    "duration": 0.055147000000005164
                },
                {
                    "name": "B5",
                    "midi": 83,
                    "time": 87.57343600000048,
                    "velocity": 0.3779527559055118,
                    "duration": 0.055147000000005164
                },
                {
                    "name": "G#6",
                    "midi": 92,
                    "time": 87.79402400000049,
                    "velocity": 0.5196850393700787,
                    "duration": 0.4411760000000129
                },
                {
                    "name": "G#5",
                    "midi": 80,
                    "time": 88.0146120000005,
                    "velocity": 0.3779527559055118,
                    "duration": 0.055147000000005164
                },
                {
                    "name": "B5",
                    "midi": 83,
                    "time": 88.0146120000005,
                    "velocity": 0.3937007874015748,
                    "duration": 0.055147000000005164
                },
                {
                    "name": "G#6",
                    "midi": 92,
                    "time": 88.2352000000005,
                    "velocity": 0.5433070866141733,
                    "duration": 0.6617640000000051
                },
                {
                    "name": "G#5",
                    "midi": 80,
                    "time": 88.45578800000051,
                    "velocity": 0.4251968503937008,
                    "duration": 0.055147000000005164
                },
                {
                    "name": "B5",
                    "midi": 83,
                    "time": 88.45578800000051,
                    "velocity": 0.4251968503937008,
                    "duration": 0.055147000000005164
                },
                {
                    "name": "G#5",
                    "midi": 80,
                    "time": 88.89696400000051,
                    "velocity": 0.4015748031496063,
                    "duration": 0.055147000000005164
                },
                {
                    "name": "B5",
                    "midi": 83,
                    "time": 88.89696400000051,
                    "velocity": 0.4015748031496063,
                    "duration": 0.055147000000005164
                },
                {
                    "name": "F#6",
                    "midi": 90,
                    "time": 88.89696400000051,
                    "velocity": 0.49606299212598426,
                    "duration": 0.11029400000001033
                },
                {
                    "name": "E6",
                    "midi": 88,
                    "time": 89.00725800000052,
                    "velocity": 0.49606299212598426,
                    "duration": 0.11029399999999612
                },
                {
                    "name": "D#6",
                    "midi": 87,
                    "time": 89.11755200000052,
                    "velocity": 0.5590551181102362,
                    "duration": 0.055147000000005164
                },
                {
                    "name": "A5",
                    "midi": 81,
                    "time": 89.33814000000052,
                    "velocity": 0.4015748031496063,
                    "duration": 0.055147000000005164
                },
                {
                    "name": "B5",
                    "midi": 83,
                    "time": 89.33814000000052,
                    "velocity": 0.4251968503937008,
                    "duration": 0.055147000000005164
                },
                {
                    "name": "E6",
                    "midi": 88,
                    "time": 89.33814000000052,
                    "velocity": 0.5196850393700787,
                    "duration": 0.055147000000005164
                },
                {
                    "name": "F#6",
                    "midi": 90,
                    "time": 89.55872800000053,
                    "velocity": 0.5669291338582677,
                    "duration": 0.4411760000000129
                },
                {
                    "name": "A5",
                    "midi": 81,
                    "time": 89.77931600000053,
                    "velocity": 0.4015748031496063,
                    "duration": 0.055147000000005164
                },
                {
                    "name": "B5",
                    "midi": 83,
                    "time": 89.77931600000053,
                    "velocity": 0.4251968503937008,
                    "duration": 0.055147000000005164
                },
                {
                    "name": "G#6",
                    "midi": 92,
                    "time": 89.99990400000054,
                    "velocity": 0.5433070866141733,
                    "duration": 0.6617640000000051
                },
                {
                    "name": "G#5",
                    "midi": 80,
                    "time": 90.22049200000055,
                    "velocity": 0.4251968503937008,
                    "duration": 0.055147000000005164
                },
                {
                    "name": "B5",
                    "midi": 83,
                    "time": 90.22049200000055,
                    "velocity": 0.4251968503937008,
                    "duration": 0.055147000000005164
                },
                {
                    "name": "G#5",
                    "midi": 80,
                    "time": 90.66166800000055,
                    "velocity": 0.4015748031496063,
                    "duration": 0.055147000000005164
                },
                {
                    "name": "B5",
                    "midi": 83,
                    "time": 90.66166800000055,
                    "velocity": 0.4015748031496063,
                    "duration": 0.055147000000005164
                },
                {
                    "name": "F#6",
                    "midi": 90,
                    "time": 90.66166800000055,
                    "velocity": 0.49606299212598426,
                    "duration": 0.11029400000001033
                },
                {
                    "name": "E6",
                    "midi": 88,
                    "time": 90.77196200000056,
                    "velocity": 0.49606299212598426,
                    "duration": 0.11029399999999612
                },
                {
                    "name": "D#6",
                    "midi": 87,
                    "time": 90.88225600000055,
                    "velocity": 0.5590551181102362,
                    "duration": 0.055147000000005164
                },
                {
                    "name": "A5",
                    "midi": 81,
                    "time": 91.10284400000056,
                    "velocity": 0.4015748031496063,
                    "duration": 0.055147000000005164
                },
                {
                    "name": "B5",
                    "midi": 83,
                    "time": 91.10284400000056,
                    "velocity": 0.4251968503937008,
                    "duration": 0.055147000000005164
                },
                {
                    "name": "E6",
                    "midi": 88,
                    "time": 91.10284400000056,
                    "velocity": 0.5196850393700787,
                    "duration": 0.055147000000005164
                },
                {
                    "name": "F#6",
                    "midi": 90,
                    "time": 91.32343200000057,
                    "velocity": 0.5669291338582677,
                    "duration": 0.4411760000000129
                },
                {
                    "name": "A5",
                    "midi": 81,
                    "time": 91.54402000000057,
                    "velocity": 0.4015748031496063,
                    "duration": 0.055147000000005164
                },
                {
                    "name": "B5",
                    "midi": 83,
                    "time": 91.54402000000057,
                    "velocity": 0.4251968503937008,
                    "duration": 0.055147000000005164
                },
                {
                    "name": "G#6",
                    "midi": 92,
                    "time": 91.76460800000058,
                    "velocity": 0.5433070866141733,
                    "duration": 0.6617640000000051
                },
                {
                    "name": "G#5",
                    "midi": 80,
                    "time": 91.98519600000058,
                    "velocity": 0.4251968503937008,
                    "duration": 0.055147000000005164
                },
                {
                    "name": "B5",
                    "midi": 83,
                    "time": 91.98519600000058,
                    "velocity": 0.4251968503937008,
                    "duration": 0.055147000000005164
                },
                {
                    "name": "G#5",
                    "midi": 80,
                    "time": 92.42637200000058,
                    "velocity": 0.4015748031496063,
                    "duration": 0.055147000000005164
                },
                {
                    "name": "B5",
                    "midi": 83,
                    "time": 92.42637200000058,
                    "velocity": 0.4015748031496063,
                    "duration": 0.055147000000005164
                },
                {
                    "name": "F#6",
                    "midi": 90,
                    "time": 92.42637200000058,
                    "velocity": 0.49606299212598426,
                    "duration": 0.11029400000001033
                },
                {
                    "name": "E6",
                    "midi": 88,
                    "time": 92.5366660000006,
                    "velocity": 0.49606299212598426,
                    "duration": 0.11029399999999612
                },
                {
                    "name": "D#6",
                    "midi": 87,
                    "time": 92.64696000000059,
                    "velocity": 0.5590551181102362,
                    "duration": 0.11029399999999612
                },
                {
                    "name": "E6",
                    "midi": 88,
                    "time": 92.75725400000059,
                    "velocity": 0.5196850393700787,
                    "duration": 0.11029399999999612
                },
                {
                    "name": "G#5",
                    "midi": 80,
                    "time": 92.86754800000058,
                    "velocity": 0.4251968503937008,
                    "duration": 0.055147000000005164
                },
                {
                    "name": "F#6",
                    "midi": 90,
                    "time": 92.86754800000058,
                    "velocity": 0.5196850393700787,
                    "duration": 0.11029400000001033
                },
                {
                    "name": "G#6",
                    "midi": 92,
                    "time": 92.97784200000059,
                    "velocity": 0.5196850393700787,
                    "duration": 0.11029399999999612
                },
                {
                    "name": "F#6",
                    "midi": 90,
                    "time": 93.08813600000059,
                    "velocity": 0.5669291338582677,
                    "duration": 0.055147000000005164
                },
                {
                    "name": "G#5",
                    "midi": 80,
                    "time": 93.3087240000006,
                    "velocity": 0.4251968503937008,
                    "duration": 0.055147000000005164
                },
                {
                    "name": "E6",
                    "midi": 88,
                    "time": 93.3087240000006,
                    "velocity": 0.5511811023622047,
                    "duration": 0.055147000000005164
                },
                {
                    "name": "D#6",
                    "midi": 87,
                    "time": 93.5293120000006,
                    "velocity": 0.5826771653543307,
                    "duration": 0.055147000000005164
                },
                {
                    "name": "G#5",
                    "midi": 80,
                    "time": 93.74990000000061,
                    "velocity": 0.4015748031496063,
                    "duration": 0.055147000000005164
                },
                {
                    "name": "E6",
                    "midi": 88,
                    "time": 93.74990000000061,
                    "velocity": 0.6062992125984252,
                    "duration": 0.055147000000005164
                },
                {
                    "name": "F#6",
                    "midi": 90,
                    "time": 93.97048800000061,
                    "velocity": 0.6141732283464567,
                    "duration": 0.3308820000000168
                },
                {
                    "name": "G#5",
                    "midi": 80,
                    "time": 94.19107600000062,
                    "velocity": 0.4015748031496063,
                    "duration": 0.055147000000005164
                },
                {
                    "name": "E6",
                    "midi": 88,
                    "time": 94.30137000000063,
                    "velocity": 0.5748031496062992,
                    "duration": 0.11029399999999612
                },
                {
                    "name": "D#6",
                    "midi": 87,
                    "time": 94.41166400000063,
                    "velocity": 0.5590551181102362,
                    "duration": 0.11029399999999612
                },
                {
                    "name": "E6",
                    "midi": 88,
                    "time": 94.52195800000062,
                    "velocity": 0.5196850393700787,
                    "duration": 0.11029399999999612
                },
                {
                    "name": "G#5",
                    "midi": 80,
                    "time": 94.63225200000062,
                    "velocity": 0.4015748031496063,
                    "duration": 0.055147000000005164
                },
                {
                    "name": "F#6",
                    "midi": 90,
                    "time": 94.63225200000062,
                    "velocity": 0.5196850393700787,
                    "duration": 0.11029400000001033
                },
                {
                    "name": "G#6",
                    "midi": 92,
                    "time": 94.74254600000063,
                    "velocity": 0.5196850393700787,
                    "duration": 0.11029399999999612
                },
                {
                    "name": "F#6",
                    "midi": 90,
                    "time": 94.85284000000063,
                    "velocity": 0.5669291338582677,
                    "duration": 0.055147000000005164
                },
                {
                    "name": "G#5",
                    "midi": 80,
                    "time": 95.07342800000063,
                    "velocity": 0.4015748031496063,
                    "duration": 0.055147000000005164
                },
                {
                    "name": "E6",
                    "midi": 88,
                    "time": 95.07342800000063,
                    "velocity": 0.5511811023622047,
                    "duration": 0.055147000000005164
                },
                {
                    "name": "D#6",
                    "midi": 87,
                    "time": 95.29401600000064,
                    "velocity": 0.5826771653543307,
                    "duration": 0.055147000000005164
                },
                {
                    "name": "G#5",
                    "midi": 80,
                    "time": 95.51460400000065,
                    "velocity": 0.4015748031496063,
                    "duration": 0.055147000000005164
                },
                {
                    "name": "C#6",
                    "midi": 85,
                    "time": 95.51460400000065,
                    "velocity": 0.5433070866141733,
                    "duration": 0.055147000000005164
                },
                {
                    "name": "C6",
                    "midi": 84,
                    "time": 95.73519200000065,
                    "velocity": 0.5433070866141733,
                    "duration": 0.4411760000000129
                },
                {
                    "name": "G#5",
                    "midi": 80,
                    "time": 95.95578000000066,
                    "velocity": 0.4015748031496063,
                    "duration": 0.055147000000005164
                },
                {
                    "name": "D#6",
                    "midi": 87,
                    "time": 96.17636800000066,
                    "velocity": 0.5590551181102362,
                    "duration": 0.11029399999999612
                },
                {
                    "name": "E6",
                    "midi": 88,
                    "time": 96.28666200000066,
                    "velocity": 0.5196850393700787,
                    "duration": 0.11029399999999612
                },
                {
                    "name": "G#5",
                    "midi": 80,
                    "time": 96.39695600000066,
                    "velocity": 0.4015748031496063,
                    "duration": 0.055147000000005164
                },
                {
                    "name": "F#6",
                    "midi": 90,
                    "time": 96.39695600000066,
                    "velocity": 0.5196850393700787,
                    "duration": 0.11029400000001033
                },
                {
                    "name": "G#6",
                    "midi": 92,
                    "time": 96.50725000000067,
                    "velocity": 0.5196850393700787,
                    "duration": 0.11029399999999612
                },
                {
                    "name": "F#6",
                    "midi": 90,
                    "time": 96.61754400000066,
                    "velocity": 0.5669291338582677,
                    "duration": 0.055147000000005164
                },
                {
                    "name": "C#6",
                    "midi": 85,
                    "time": 96.83813200000067,
                    "velocity": 0.4015748031496063,
                    "duration": 0.055147000000005164
                },
                {
                    "name": "G#5",
                    "midi": 80,
                    "time": 96.83813200000067,
                    "velocity": 0.4015748031496063,
                    "duration": 0.055147000000005164
                },
                {
                    "name": "E6",
                    "midi": 88,
                    "time": 96.83813200000067,
                    "velocity": 0.5511811023622047,
                    "duration": 0.055147000000005164
                },
                {
                    "name": "D#6",
                    "midi": 87,
                    "time": 97.05872000000068,
                    "velocity": 0.5826771653543307,
                    "duration": 0.055147000000005164
                },
                {
                    "name": "A5",
                    "midi": 81,
                    "time": 97.27930800000068,
                    "velocity": 0.4015748031496063,
                    "duration": 0.055147000000005164
                },
                {
                    "name": "C#6",
                    "midi": 85,
                    "time": 97.27930800000068,
                    "velocity": 0.4015748031496063,
                    "duration": 0.055147000000005164
                },
                {
                    "name": "E6",
                    "midi": 88,
                    "time": 97.27930800000068,
                    "velocity": 0.6062992125984252,
                    "duration": 0.055147000000005164
                },
                {
                    "name": "F#6",
                    "midi": 90,
                    "time": 97.49989600000069,
                    "velocity": 0.6377952755905512,
                    "duration": 0.4411760000000129
                },
                {
                    "name": "A5",
                    "midi": 81,
                    "time": 97.7204840000007,
                    "velocity": 0.4015748031496063,
                    "duration": 0.055147000000005164
                },
                {
                    "name": "C#6",
                    "midi": 85,
                    "time": 97.7204840000007,
                    "velocity": 0.4015748031496063,
                    "duration": 0.055147000000005164
                },
                {
                    "name": "E6",
                    "midi": 88,
                    "time": 97.9410720000007,
                    "velocity": 0.5590551181102362,
                    "duration": 0.11029399999999612
                },
                {
                    "name": "D#6",
                    "midi": 87,
                    "time": 98.0513660000007,
                    "velocity": 0.49606299212598426,
                    "duration": 0.11029399999999612
                },
                {
                    "name": "G5",
                    "midi": 79,
                    "time": 98.1616600000007,
                    "velocity": 0.4015748031496063,
                    "duration": 0.055147000000005164
                },
                {
                    "name": "A#5",
                    "midi": 82,
                    "time": 98.1616600000007,
                    "velocity": 0.4015748031496063,
                    "duration": 0.055147000000005164
                },
                {
                    "name": "C#6",
                    "midi": 85,
                    "time": 98.1616600000007,
                    "velocity": 0.49606299212598426,
                    "duration": 0.11029400000001033
                },
                {
                    "name": "E6",
                    "midi": 88,
                    "time": 98.2719540000007,
                    "velocity": 0.49606299212598426,
                    "duration": 0.11029399999999612
                },
                {
                    "name": "D#6",
                    "midi": 87,
                    "time": 98.3822480000007,
                    "velocity": 0.5669291338582677,
                    "duration": 0.11029399999999612
                },
                {
                    "name": "C#6",
                    "midi": 85,
                    "time": 98.4925420000007,
                    "velocity": 0.5039370078740157,
                    "duration": 0.11029399999999612
                },
                {
                    "name": "G#5",
                    "midi": 80,
                    "time": 98.60283600000069,
                    "velocity": 0.4015748031496063,
                    "duration": 0.055147000000005164
                },
                {
                    "name": "C6",
                    "midi": 84,
                    "time": 98.60283600000069,
                    "velocity": 0.5039370078740157,
                    "duration": 0.11029400000001033
                },
                {
                    "name": "D#6",
                    "midi": 87,
                    "time": 98.7131300000007,
                    "velocity": 0.49606299212598426,
                    "duration": 0.11029399999999612
                },
                {
                    "name": "C#6",
                    "midi": 85,
                    "time": 98.8234240000007,
                    "velocity": 0.5118110236220472,
                    "duration": 0.11029399999999612
                },
                {
                    "name": "G#5",
                    "midi": 80,
                    "time": 98.9337180000007,
                    "velocity": 0.4409448818897638,
                    "duration": 0.11029399999999612
                },
                {
                    "name": "G#6",
                    "midi": 92,
                    "time": 99.04401200000069,
                    "velocity": 0.5039370078740157,
                    "duration": 0.11029399999999612
                },
                {
                    "name": "G#5",
                    "midi": 80,
                    "time": 99.15430600000069,
                    "velocity": 0.44881889763779526,
                    "duration": 0.11029399999999612
                },
                {
                    "name": "C#6",
                    "midi": 85,
                    "time": 99.26460000000068,
                    "velocity": 0.5590551181102362,
                    "duration": 0.11029399999999612
                },
                {
                    "name": "G#5",
                    "midi": 80,
                    "time": 99.37489400000068,
                    "velocity": 0.49606299212598426,
                    "duration": 0.11029399999999612
                },
                {
                    "name": "G#6",
                    "midi": 92,
                    "time": 99.48518800000068,
                    "velocity": 0.5590551181102362,
                    "duration": 0.11029399999999612
                },
                {
                    "name": "G#5",
                    "midi": 80,
                    "time": 99.59548200000067,
                    "velocity": 0.49606299212598426,
                    "duration": 0.11029399999999612
                },
                {
                    "name": "C#6",
                    "midi": 85,
                    "time": 99.70577600000067,
                    "velocity": 0.5669291338582677,
                    "duration": 0.11029399999999612
                },
                {
                    "name": "G#5",
                    "midi": 80,
                    "time": 99.81607000000066,
                    "velocity": 0.4881889763779528,
                    "duration": 0.11029399999999612
                },
                {
                    "name": "G#6",
                    "midi": 92,
                    "time": 99.92636400000066,
                    "velocity": 0.5590551181102362,
                    "duration": 0.11029399999999612
                },
                {
                    "name": "G#5",
                    "midi": 80,
                    "time": 100.03665800000066,
                    "velocity": 0.49606299212598426,
                    "duration": 0.11029399999999612
                },
                {
                    "name": "C#6",
                    "midi": 85,
                    "time": 100.14695200000065,
                    "velocity": 0.5826771653543307,
                    "duration": 0.11029399999999612
                },
                {
                    "name": "G#5",
                    "midi": 80,
                    "time": 100.25724600000065,
                    "velocity": 0.5039370078740157,
                    "duration": 0.11029399999999612
                },
                {
                    "name": "G#6",
                    "midi": 92,
                    "time": 100.36754000000064,
                    "velocity": 0.5669291338582677,
                    "duration": 0.11029399999999612
                },
                {
                    "name": "G#5",
                    "midi": 80,
                    "time": 100.47783400000064,
                    "velocity": 0.5196850393700787,
                    "duration": 0.11029399999999612
                },
                {
                    "name": "C#6",
                    "midi": 85,
                    "time": 100.58812800000064,
                    "velocity": 0.6141732283464567,
                    "duration": 0.11029399999999612
                },
                {
                    "name": "G#5",
                    "midi": 80,
                    "time": 100.69842200000063,
                    "velocity": 0.5196850393700787,
                    "duration": 0.11029399999999612
                },
                {
                    "name": "G#6",
                    "midi": 92,
                    "time": 100.80871600000063,
                    "velocity": 0.5748031496062992,
                    "duration": 0.11029399999999612
                },
                {
                    "name": "G#5",
                    "midi": 80,
                    "time": 100.91901000000063,
                    "velocity": 0.4881889763779528,
                    "duration": 0.11029399999999612
                },
                {
                    "name": "C#6",
                    "midi": 85,
                    "time": 101.02930400000062,
                    "velocity": 0.5590551181102362,
                    "duration": 0.11029399999999612
                },
                {
                    "name": "G#5",
                    "midi": 80,
                    "time": 101.13959800000062,
                    "velocity": 0.47244094488188976,
                    "duration": 0.11029399999999612
                },
                {
                    "name": "G#6",
                    "midi": 92,
                    "time": 101.24989200000061,
                    "velocity": 0.5118110236220472,
                    "duration": 0.11029399999999612
                },
                {
                    "name": "G#5",
                    "midi": 80,
                    "time": 101.36018600000061,
                    "velocity": 0.4566929133858268,
                    "duration": 0.11029399999999612
                },
                {
                    "name": "C#6",
                    "midi": 85,
                    "time": 101.4704800000006,
                    "velocity": 0.5275590551181102,
                    "duration": 0.11029399999999612
                },
                {
                    "name": "G#5",
                    "midi": 80,
                    "time": 101.5807740000006,
                    "velocity": 0.44881889763779526,
                    "duration": 0.11029399999999612
                },
                {
                    "name": "G#6",
                    "midi": 92,
                    "time": 101.6910680000006,
                    "velocity": 0.49606299212598426,
                    "duration": 0.11029399999999612
                },
                {
                    "name": "G#5",
                    "midi": 80,
                    "time": 101.8013620000006,
                    "velocity": 0.41732283464566927,
                    "duration": 0.11029399999999612
                },
                {
                    "name": "C#6",
                    "midi": 85,
                    "time": 101.91165600000059,
                    "velocity": 0.48031496062992124,
                    "duration": 0.11029399999999612
                },
                {
                    "name": "G#5",
                    "midi": 80,
                    "time": 102.02195000000059,
                    "velocity": 0.4015748031496063,
                    "duration": 0.11029399999999612
                },
                {
                    "name": "G#6",
                    "midi": 92,
                    "time": 102.13224400000058,
                    "velocity": 0.4409448818897638,
                    "duration": 0.11029399999999612
                },
                {
                    "name": "G#5",
                    "midi": 80,
                    "time": 102.24253800000058,
                    "velocity": 0.3543307086614173,
                    "duration": 0.11029399999999612
                },
                {
                    "name": "G#6",
                    "midi": 92,
                    "time": 102.35283200000057,
                    "velocity": 0.5511811023622047,
                    "duration": 0.22058800000000645
                },
                {
                    "name": "B5",
                    "midi": 83,
                    "time": 102.46312600000057,
                    "velocity": 0.4251968503937008,
                    "duration": 0.055147000000005164
                },
                {
                    "name": "B6",
                    "midi": 95,
                    "time": 102.57342000000058,
                    "velocity": 0.4251968503937008,
                    "duration": 0.055147000000005164
                },
                {
                    "name": "B5",
                    "midi": 83,
                    "time": 102.68371400000059,
                    "velocity": 0.4251968503937008,
                    "duration": 0.055147000000005164
                },
                {
                    "name": "G#6",
                    "midi": 92,
                    "time": 102.7940080000006,
                    "velocity": 0.5196850393700787,
                    "duration": 0.22058800000000645
                },
                {
                    "name": "B5",
                    "midi": 83,
                    "time": 102.9043020000006,
                    "velocity": 0.4251968503937008,
                    "duration": 0.055147000000005164
                },
                {
                    "name": "B6",
                    "midi": 95,
                    "time": 103.01459600000061,
                    "velocity": 0.4251968503937008,
                    "duration": 0.055147000000005164
                },
                {
                    "name": "B5",
                    "midi": 83,
                    "time": 103.12489000000062,
                    "velocity": 0.4015748031496063,
                    "duration": 0.055147000000005164
                },
                {
                    "name": "G#6",
                    "midi": 92,
                    "time": 103.23518400000063,
                    "velocity": 0.5433070866141733,
                    "duration": 0.6617640000000478
                },
                {
                    "name": "B5",
                    "midi": 83,
                    "time": 103.34547800000063,
                    "velocity": 0.4251968503937008,
                    "duration": 0.055147000000005164
                },
                {
                    "name": "B6",
                    "midi": 95,
                    "time": 103.45577200000064,
                    "velocity": 0.4251968503937008,
                    "duration": 0.055147000000005164
                },
                {
                    "name": "B5",
                    "midi": 83,
                    "time": 103.56606600000065,
                    "velocity": 0.4251968503937008,
                    "duration": 0.055147000000005164
                },
                {
                    "name": "F#6",
                    "midi": 90,
                    "time": 103.67636000000066,
                    "velocity": 0.49606299212598426,
                    "duration": 0.055147000000005164
                },
                {
                    "name": "B5",
                    "midi": 83,
                    "time": 103.78665400000067,
                    "velocity": 0.4015748031496063,
                    "duration": 0.055147000000005164
                },
                {
                    "name": "E6",
                    "midi": 88,
                    "time": 103.89694800000068,
                    "velocity": 0.49606299212598426,
                    "duration": 0.055147000000005164
                },
                {
                    "name": "B5",
                    "midi": 83,
                    "time": 104.00724200000069,
                    "velocity": 0.4015748031496063,
                    "duration": 0.055147000000005164
                },
                {
                    "name": "D#6",
                    "midi": 87,
                    "time": 104.1175360000007,
                    "velocity": 0.5590551181102362,
                    "duration": 0.055147000000005164
                },
                {
                    "name": "B5",
                    "midi": 83,
                    "time": 104.22783000000071,
                    "velocity": 0.4015748031496063,
                    "duration": 0.055147000000005164
                },
                {
                    "name": "B6",
                    "midi": 95,
                    "time": 104.33812400000072,
                    "velocity": 0.4251968503937008,
                    "duration": 0.055147000000005164
                },
                {
                    "name": "E6",
                    "midi": 88,
                    "time": 104.33812400000072,
                    "velocity": 0.5196850393700787,
                    "duration": 0.055147000000005164
                },
                {
                    "name": "B5",
                    "midi": 83,
                    "time": 104.44841800000073,
                    "velocity": 0.4015748031496063,
                    "duration": 0.055147000000005164
                },
                {
                    "name": "F#6",
                    "midi": 90,
                    "time": 104.55871200000074,
                    "velocity": 0.5669291338582677,
                    "duration": 0.4411760000000271
                },
                {
                    "name": "B5",
                    "midi": 83,
                    "time": 104.66900600000073,
                    "velocity": 0.4015748031496063,
                    "duration": 0.055147000000005164
                },
                {
                    "name": "B6",
                    "midi": 95,
                    "time": 104.77930000000075,
                    "velocity": 0.4251968503937008,
                    "duration": 0.055147000000005164
                },
                {
                    "name": "B5",
                    "midi": 83,
                    "time": 104.88959400000076,
                    "velocity": 0.4015748031496063,
                    "duration": 0.055147000000005164
                },
                {
                    "name": "G#6",
                    "midi": 92,
                    "time": 104.99988800000077,
                    "velocity": 0.5433070866141733,
                    "duration": 0.6617640000000478
                },
                {
                    "name": "B5",
                    "midi": 83,
                    "time": 105.11018200000076,
                    "velocity": 0.4251968503937008,
                    "duration": 0.055147000000005164
                },
                {
                    "name": "B6",
                    "midi": 95,
                    "time": 105.22047600000077,
                    "velocity": 0.4251968503937008,
                    "duration": 0.055147000000005164
                },
                {
                    "name": "B5",
                    "midi": 83,
                    "time": 105.33077000000078,
                    "velocity": 0.4251968503937008,
                    "duration": 0.055147000000005164
                },
                {
                    "name": "F#6",
                    "midi": 90,
                    "time": 105.4410640000008,
                    "velocity": 0.49606299212598426,
                    "duration": 0.055147000000005164
                },
                {
                    "name": "B5",
                    "midi": 83,
                    "time": 105.5513580000008,
                    "velocity": 0.4015748031496063,
                    "duration": 0.055147000000005164
                },
                {
                    "name": "B6",
                    "midi": 95,
                    "time": 105.66165200000081,
                    "velocity": 0.4251968503937008,
                    "duration": 0.055147000000005164
                },
                {
                    "name": "E6",
                    "midi": 88,
                    "time": 105.66165200000081,
                    "velocity": 0.49606299212598426,
                    "duration": 0.055147000000005164
                },
                {
                    "name": "B5",
                    "midi": 83,
                    "time": 105.77194600000082,
                    "velocity": 0.4015748031496063,
                    "duration": 0.055147000000005164
                },
                {
                    "name": "D#6",
                    "midi": 87,
                    "time": 105.88224000000083,
                    "velocity": 0.5590551181102362,
                    "duration": 0.055147000000005164
                },
                {
                    "name": "B5",
                    "midi": 83,
                    "time": 105.99253400000084,
                    "velocity": 0.4015748031496063,
                    "duration": 0.055147000000005164
                },
                {
                    "name": "B6",
                    "midi": 95,
                    "time": 106.10282800000086,
                    "velocity": 0.4251968503937008,
                    "duration": 0.055147000000005164
                },
                {
                    "name": "E6",
                    "midi": 88,
                    "time": 106.10282800000086,
                    "velocity": 0.5196850393700787,
                    "duration": 0.055147000000005164
                },
                {
                    "name": "B5",
                    "midi": 83,
                    "time": 106.21312200000087,
                    "velocity": 0.4251968503937008,
                    "duration": 0.055147000000005164
                },
                {
                    "name": "F#6",
                    "midi": 90,
                    "time": 106.32341600000088,
                    "velocity": 0.5669291338582677,
                    "duration": 0.4411760000000271
                },
                {
                    "name": "B5",
                    "midi": 83,
                    "time": 106.43371000000087,
                    "velocity": 0.4015748031496063,
                    "duration": 0.055147000000005164
                },
                {
                    "name": "B6",
                    "midi": 95,
                    "time": 106.54400400000088,
                    "velocity": 0.4251968503937008,
                    "duration": 0.055147000000005164
                },
                {
                    "name": "B5",
                    "midi": 83,
                    "time": 106.65429800000089,
                    "velocity": 0.4015748031496063,
                    "duration": 0.055147000000005164
                },
                {
                    "name": "G#6",
                    "midi": 92,
                    "time": 106.7645920000009,
                    "velocity": 0.5433070866141733,
                    "duration": 0.6617640000000478
                },
                {
                    "name": "B5",
                    "midi": 83,
                    "time": 106.8748860000009,
                    "velocity": 0.4251968503937008,
                    "duration": 0.055147000000005164
                },
                {
                    "name": "B6",
                    "midi": 95,
                    "time": 106.98518000000091,
                    "velocity": 0.4251968503937008,
                    "duration": 0.055147000000005164
                },
                {
                    "name": "B5",
                    "midi": 83,
                    "time": 107.09547400000092,
                    "velocity": 0.4251968503937008,
                    "duration": 0.055147000000005164
                },
                {
                    "name": "F#6",
                    "midi": 90,
                    "time": 107.20576800000093,
                    "velocity": 0.49606299212598426,
                    "duration": 0.055147000000005164
                },
                {
                    "name": "B5",
                    "midi": 83,
                    "time": 107.31606200000094,
                    "velocity": 0.4015748031496063,
                    "duration": 0.055147000000005164
                },
                {
                    "name": "E6",
                    "midi": 88,
                    "time": 107.42635600000095,
                    "velocity": 0.49606299212598426,
                    "duration": 0.055147000000005164
                },
                {
                    "name": "B6",
                    "midi": 95,
                    "time": 107.42635600000095,
                    "velocity": 0.4015748031496063,
                    "duration": 0.055147000000005164
                },
                {
                    "name": "B5",
                    "midi": 83,
                    "time": 107.53665000000096,
                    "velocity": 0.4015748031496063,
                    "duration": 0.055147000000005164
                },
                {
                    "name": "D#6",
                    "midi": 87,
                    "time": 107.64694400000097,
                    "velocity": 0.5590551181102362,
                    "duration": 0.11029399999999612
                },
                {
                    "name": "E6",
                    "midi": 88,
                    "time": 107.75723800000097,
                    "velocity": 0.5196850393700787,
                    "duration": 0.11029399999999612
                },
                {
                    "name": "F#6",
                    "midi": 90,
                    "time": 107.86753200000096,
                    "velocity": 0.5196850393700787,
                    "duration": 0.11029399999999612
                },
                {
                    "name": "G#6",
                    "midi": 92,
                    "time": 107.97782600000096,
                    "velocity": 0.5196850393700787,
                    "duration": 0.11029399999999612
                },
                {
                    "name": "F#6",
                    "midi": 90,
                    "time": 108.08812000000096,
                    "velocity": 0.5669291338582677,
                    "duration": 0.055147000000005164
                },
                {
                    "name": "B5",
                    "midi": 83,
                    "time": 108.19841400000097,
                    "velocity": 0.4251968503937008,
                    "duration": 0.055147000000005164
                },
                {
                    "name": "G#6",
                    "midi": 92,
                    "time": 108.30870800000098,
                    "velocity": 0.4015748031496063,
                    "duration": 0.055147000000005164
                },
                {
                    "name": "E6",
                    "midi": 88,
                    "time": 108.30870800000098,
                    "velocity": 0.5511811023622047,
                    "duration": 0.055147000000005164
                },
                {
                    "name": "B5",
                    "midi": 83,
                    "time": 108.41900200000099,
                    "velocity": 0.4251968503937008,
                    "duration": 0.055147000000005164
                },
                {
                    "name": "D#6",
                    "midi": 87,
                    "time": 108.529296000001,
                    "velocity": 0.5826771653543307,
                    "duration": 0.055147000000005164
                },
                {
                    "name": "G#5",
                    "midi": 80,
                    "time": 108.63959000000101,
                    "velocity": 0.4251968503937008,
                    "duration": 0.055147000000005164
                },
                {
                    "name": "G#6",
                    "midi": 92,
                    "time": 108.74988400000102,
                    "velocity": 0.4015748031496063,
                    "duration": 0.055147000000005164
                },
                {
                    "name": "E6",
                    "midi": 88,
                    "time": 108.74988400000102,
                    "velocity": 0.6062992125984252,
                    "duration": 0.055147000000005164
                },
                {
                    "name": "G#5",
                    "midi": 80,
                    "time": 108.86017800000103,
                    "velocity": 0.4251968503937008,
                    "duration": 0.055147000000005164
                },
                {
                    "name": "F#6",
                    "midi": 90,
                    "time": 108.97047200000104,
                    "velocity": 0.6141732283464567,
                    "duration": 0.055147000000005164
                },
                {
                    "name": "G#5",
                    "midi": 80,
                    "time": 109.08076600000105,
                    "velocity": 0.4251968503937008,
                    "duration": 0.055147000000005164
                },
                {
                    "name": "G#6",
                    "midi": 92,
                    "time": 109.19106000000106,
                    "velocity": 0.4015748031496063,
                    "duration": 0.055147000000005164
                },
                {
                    "name": "E6",
                    "midi": 88,
                    "time": 109.19106000000106,
                    "velocity": 0.5748031496062992,
                    "duration": 0.055147000000005164
                },
                {
                    "name": "G#5",
                    "midi": 80,
                    "time": 109.30135400000107,
                    "velocity": 0.4015748031496063,
                    "duration": 0.055147000000005164
                },
                {
                    "name": "D#6",
                    "midi": 87,
                    "time": 109.41164800000108,
                    "velocity": 0.5590551181102362,
                    "duration": 0.11029399999999612
                },
                {
                    "name": "E6",
                    "midi": 88,
                    "time": 109.52194200000108,
                    "velocity": 0.5196850393700787,
                    "duration": 0.11029399999999612
                },
                {
                    "name": "F#6",
                    "midi": 90,
                    "time": 109.63223600000107,
                    "velocity": 0.5196850393700787,
                    "duration": 0.11029399999999612
                },
                {
                    "name": "G#6",
                    "midi": 92,
                    "time": 109.74253000000107,
                    "velocity": 0.5196850393700787,
                    "duration": 0.11029399999999612
                },
                {
                    "name": "F#6",
                    "midi": 90,
                    "time": 109.85282400000106,
                    "velocity": 0.5669291338582677,
                    "duration": 0.055147000000005164
                },
                {
                    "name": "G#5",
                    "midi": 80,
                    "time": 109.96311800000107,
                    "velocity": 0.4015748031496063,
                    "duration": 0.055147000000005164
                },
                {
                    "name": "G#6",
                    "midi": 92,
                    "time": 110.07341200000108,
                    "velocity": 0.4015748031496063,
                    "duration": 0.055147000000005164
                },
                {
                    "name": "E6",
                    "midi": 88,
                    "time": 110.07341200000108,
                    "velocity": 0.5511811023622047,
                    "duration": 0.055147000000005164
                },
                {
                    "name": "G#5",
                    "midi": 80,
                    "time": 110.1837060000011,
                    "velocity": 0.4015748031496063,
                    "duration": 0.055147000000005164
                },
                {
                    "name": "D#6",
                    "midi": 87,
                    "time": 110.2940000000011,
                    "velocity": 0.5826771653543307,
                    "duration": 0.055147000000005164
                },
                {
                    "name": "G#5",
                    "midi": 80,
                    "time": 110.40429400000112,
                    "velocity": 0.4015748031496063,
                    "duration": 0.055147000000005164
                },
                {
                    "name": "G#6",
                    "midi": 92,
                    "time": 110.51458800000113,
                    "velocity": 0.4015748031496063,
                    "duration": 0.055147000000005164
                },
                {
                    "name": "C#6",
                    "midi": 85,
                    "time": 110.51458800000113,
                    "velocity": 0.5433070866141733,
                    "duration": 0.055147000000005164
                },
                {
                    "name": "G#5",
                    "midi": 80,
                    "time": 110.62488200000114,
                    "velocity": 0.4015748031496063,
                    "duration": 0.055147000000005164
                },
                {
                    "name": "C6",
                    "midi": 84,
                    "time": 110.73517600000115,
                    "velocity": 0.5433070866141733,
                    "duration": 0.4411760000000271
                },
                {
                    "name": "G#5",
                    "midi": 80,
                    "time": 110.84547000000114,
                    "velocity": 0.4015748031496063,
                    "duration": 0.055147000000005164
                },
                {
                    "name": "G#6",
                    "midi": 92,
                    "time": 110.95576400000115,
                    "velocity": 0.4015748031496063,
                    "duration": 0.055147000000005164
                },
                {
                    "name": "G#5",
                    "midi": 80,
                    "time": 111.06605800000116,
                    "velocity": 0.4015748031496063,
                    "duration": 0.055147000000005164
                },
                {
                    "name": "D#6",
                    "midi": 87,
                    "time": 111.17635200000117,
                    "velocity": 0.5590551181102362,
                    "duration": 0.11029399999999612
                },
                {
                    "name": "E6",
                    "midi": 88,
                    "time": 111.28664600000117,
                    "velocity": 0.5196850393700787,
                    "duration": 0.11029399999999612
                },
                {
                    "name": "F#6",
                    "midi": 90,
                    "time": 111.39694000000117,
                    "velocity": 0.5196850393700787,
                    "duration": 0.11029399999999612
                },
                {
                    "name": "G#6",
                    "midi": 92,
                    "time": 111.50723400000116,
                    "velocity": 0.5196850393700787,
                    "duration": 0.11029399999999612
                },
                {
                    "name": "F#6",
                    "midi": 90,
                    "time": 111.61752800000116,
                    "velocity": 0.5669291338582677,
                    "duration": 0.055147000000005164
                },
                {
                    "name": "G#5",
                    "midi": 80,
                    "time": 111.72782200000117,
                    "velocity": 0.4015748031496063,
                    "duration": 0.055147000000005164
                },
                {
                    "name": "G#6",
                    "midi": 92,
                    "time": 111.83811600000118,
                    "velocity": 0.4015748031496063,
                    "duration": 0.055147000000005164
                },
                {
                    "name": "E6",
                    "midi": 88,
                    "time": 111.83811600000118,
                    "velocity": 0.5511811023622047,
                    "duration": 0.055147000000005164
                },
                {
                    "name": "G#5",
                    "midi": 80,
                    "time": 111.94841000000119,
                    "velocity": 0.4015748031496063,
                    "duration": 0.055147000000005164
                },
                {
                    "name": "D#6",
                    "midi": 87,
                    "time": 112.0587040000012,
                    "velocity": 0.5826771653543307,
                    "duration": 0.055147000000005164
                },
                {
                    "name": "G#5",
                    "midi": 80,
                    "time": 112.16899800000121,
                    "velocity": 0.4015748031496063,
                    "duration": 0.055147000000005164
                },
                {
                    "name": "G#6",
                    "midi": 92,
                    "time": 112.27929200000122,
                    "velocity": 0.4015748031496063,
                    "duration": 0.055147000000005164
                },
                {
                    "name": "C#6",
                    "midi": 85,
                    "time": 112.27929200000122,
                    "velocity": 0.5433070866141733,
                    "duration": 0.055147000000005164
                },
                {
                    "name": "G#5",
                    "midi": 80,
                    "time": 112.38958600000123,
                    "velocity": 0.4015748031496063,
                    "duration": 0.055147000000005164
                },
                {
                    "name": "C6",
                    "midi": 84,
                    "time": 112.49988000000124,
                    "velocity": 0.5433070866141733,
                    "duration": 0.4411760000000271
                },
                {
                    "name": "G#5",
                    "midi": 80,
                    "time": 112.61017400000124,
                    "velocity": 0.4015748031496063,
                    "duration": 0.055147000000005164
                },
                {
                    "name": "G#6",
                    "midi": 92,
                    "time": 112.72046800000125,
                    "velocity": 0.4015748031496063,
                    "duration": 0.055147000000005164
                },
                {
                    "name": "G#5",
                    "midi": 80,
                    "time": 112.83076200000126,
                    "velocity": 0.4015748031496063,
                    "duration": 0.055147000000005164
                },
                {
                    "name": "E6",
                    "midi": 88,
                    "time": 112.94105600000127,
                    "velocity": 0.5590551181102362,
                    "duration": 0.11029399999999612
                },
                {
                    "name": "D#6",
                    "midi": 87,
                    "time": 113.05135000000126,
                    "velocity": 0.49606299212598426,
                    "duration": 0.11029399999999612
                },
                {
                    "name": "G#5",
                    "midi": 80,
                    "time": 113.16164400000126,
                    "velocity": 0.4015748031496063,
                    "duration": 0.055147000000005164
                },
                {
                    "name": "G#6",
                    "midi": 92,
                    "time": 113.16164400000126,
                    "velocity": 0.4015748031496063,
                    "duration": 0.055147000000005164
                },
                {
                    "name": "C#6",
                    "midi": 85,
                    "time": 113.16164400000126,
                    "velocity": 0.49606299212598426,
                    "duration": 0.11029400000001033
                },
                {
                    "name": "E6",
                    "midi": 88,
                    "time": 113.27193800000127,
                    "velocity": 0.49606299212598426,
                    "duration": 0.11029399999999612
                },
                {
                    "name": "D#6",
                    "midi": 87,
                    "time": 113.38223200000127,
                    "velocity": 0.5669291338582677,
                    "duration": 0.11029399999999612
                },
                {
                    "name": "C#6",
                    "midi": 85,
                    "time": 113.49252600000126,
                    "velocity": 0.5039370078740157,
                    "duration": 0.11029399999999612
                },
                {
                    "name": "G#6",
                    "midi": 92,
                    "time": 113.60282000000126,
                    "velocity": 0.4015748031496063,
                    "duration": 0.055147000000005164
                },
                {
                    "name": "C6",
                    "midi": 84,
                    "time": 113.60282000000126,
                    "velocity": 0.5039370078740157,
                    "duration": 0.11029400000001033
                },
                {
                    "name": "G#5",
                    "midi": 80,
                    "time": 113.60282000000126,
                    "velocity": 0.4015748031496063,
                    "duration": 0.055147000000005164
                },
                {
                    "name": "D#6",
                    "midi": 87,
                    "time": 113.71311400000127,
                    "velocity": 0.49606299212598426,
                    "duration": 0.11029399999999612
                },
                {
                    "name": "C#6",
                    "midi": 85,
                    "time": 113.82340800000127,
                    "velocity": 0.5118110236220472,
                    "duration": 0.11029399999999612
                },
                {
                    "name": "G#5",
                    "midi": 80,
                    "time": 113.93370200000126,
                    "velocity": 0.4409448818897638,
                    "duration": 0.11029399999999612
                },
                {
                    "name": "G#6",
                    "midi": 92,
                    "time": 114.04399600000126,
                    "velocity": 0.5039370078740157,
                    "duration": 0.11029399999999612
                },
                {
                    "name": "G#5",
                    "midi": 80,
                    "time": 114.15429000000125,
                    "velocity": 0.44881889763779526,
                    "duration": 0.11029399999999612
                },
                {
                    "name": "C#6",
                    "midi": 85,
                    "time": 114.26458400000125,
                    "velocity": 0.5275590551181102,
                    "duration": 0.11029399999999612
                },
                {
                    "name": "G#5",
                    "midi": 80,
                    "time": 114.37487800000125,
                    "velocity": 0.4566929133858268,
                    "duration": 0.11029399999999612
                },
                {
                    "name": "G#6",
                    "midi": 92,
                    "time": 114.48517200000124,
                    "velocity": 0.5118110236220472,
                    "duration": 0.11029399999999612
                },
                {
                    "name": "G#5",
                    "midi": 80,
                    "time": 114.59546600000124,
                    "velocity": 0.4645669291338583,
                    "duration": 0.11029399999999612
                },
                {
                    "name": "C#6",
                    "midi": 85,
                    "time": 114.70576000000123,
                    "velocity": 0.5669291338582677,
                    "duration": 0.11029399999999612
                },
                {
                    "name": "G#5",
                    "midi": 80,
                    "time": 114.81605400000123,
                    "velocity": 0.4881889763779528,
                    "duration": 0.11029399999999612
                },
                {
                    "name": "G#6",
                    "midi": 92,
                    "time": 114.92634800000123,
                    "velocity": 0.5590551181102362,
                    "duration": 0.11029399999999612
                },
                {
                    "name": "G#5",
                    "midi": 80,
                    "time": 115.03664200000122,
                    "velocity": 0.49606299212598426,
                    "duration": 0.11029399999999612
                },
                {
                    "name": "C#6",
                    "midi": 85,
                    "time": 115.14693600000122,
                    "velocity": 0.5826771653543307,
                    "duration": 0.11029399999999612
                },
                {
                    "name": "G#5",
                    "midi": 80,
                    "time": 115.25723000000121,
                    "velocity": 0.5039370078740157,
                    "duration": 0.11029399999999612
                },
                {
                    "name": "G#6",
                    "midi": 92,
                    "time": 115.36752400000121,
                    "velocity": 0.5669291338582677,
                    "duration": 0.11029399999999612
                },
                {
                    "name": "G#5",
                    "midi": 80,
                    "time": 115.47781800000121,
                    "velocity": 0.5196850393700787,
                    "duration": 0.11029399999999612
                },
                {
                    "name": "G#6",
                    "midi": 92,
                    "time": 115.5881120000012,
                    "velocity": 0.6141732283464567,
                    "duration": 0.11029399999999612
                },
                {
                    "name": "C#6",
                    "midi": 85,
                    "time": 115.6984060000012,
                    "velocity": 0.5196850393700787,
                    "duration": 0.11029399999999612
                },
                {
                    "name": "C#7",
                    "midi": 97,
                    "time": 115.8087000000012,
                    "velocity": 0.5748031496062992,
                    "duration": 0.11029399999999612
                },
                {
                    "name": "C#6",
                    "midi": 85,
                    "time": 115.91899400000119,
                    "velocity": 0.4881889763779528,
                    "duration": 0.11029399999999612
                },
                {
                    "name": "G#6",
                    "midi": 92,
                    "time": 116.02928800000119,
                    "velocity": 0.5590551181102362,
                    "duration": 0.11029399999999612
                },
                {
                    "name": "C#6",
                    "midi": 85,
                    "time": 116.13958200000118,
                    "velocity": 0.47244094488188976,
                    "duration": 0.11029399999999612
                },
                {
                    "name": "C#7",
                    "midi": 97,
                    "time": 116.24987600000118,
                    "velocity": 0.5118110236220472,
                    "duration": 0.11029399999999612
                },
                {
                    "name": "C#6",
                    "midi": 85,
                    "time": 116.36017000000118,
                    "velocity": 0.4566929133858268,
                    "duration": 0.11029399999999612
                },
                {
                    "name": "G#6",
                    "midi": 92,
                    "time": 116.47046400000117,
                    "velocity": 0.5275590551181102,
                    "duration": 0.11029399999999612
                },
                {
                    "name": "C#6",
                    "midi": 85,
                    "time": 116.58075800000117,
                    "velocity": 0.44881889763779526,
                    "duration": 0.11029399999999612
                },
                {
                    "name": "C#7",
                    "midi": 97,
                    "time": 116.69105200000116,
                    "velocity": 0.49606299212598426,
                    "duration": 0.11029399999999612
                },
                {
                    "name": "C#6",
                    "midi": 85,
                    "time": 116.80134600000116,
                    "velocity": 0.41732283464566927,
                    "duration": 0.11029399999999612
                },
                {
                    "name": "G#6",
                    "midi": 92,
                    "time": 116.91164000000116,
                    "velocity": 0.48031496062992124,
                    "duration": 0.11029399999999612
                },
                {
                    "name": "C#6",
                    "midi": 85,
                    "time": 117.02193400000115,
                    "velocity": 0.4015748031496063,
                    "duration": 0.11029399999999612
                },
                {
                    "name": "C#7",
                    "midi": 97,
                    "time": 117.13222800000115,
                    "velocity": 0.4409448818897638,
                    "duration": 0.11029399999999612
                },
                {
                    "name": "C#6",
                    "midi": 85,
                    "time": 117.24252200000114,
                    "velocity": 0.3543307086614173,
                    "duration": 0.11029399999999612
                },
                {
                    "name": "G#6",
                    "midi": 92,
                    "time": 117.35281600000114,
                    "velocity": 0.5275590551181102,
                    "duration": 0.11029399999999612
                },
                {
                    "name": "C#6",
                    "midi": 85,
                    "time": 117.46311000000114,
                    "velocity": 0.4330708661417323,
                    "duration": 0.11029399999999612
                },
                {
                    "name": "C#7",
                    "midi": 97,
                    "time": 117.57340400000113,
                    "velocity": 0.47244094488188976,
                    "duration": 0.11029399999999612
                },
                {
                    "name": "C#6",
                    "midi": 85,
                    "time": 117.68369800000113,
                    "velocity": 0.3858267716535433,
                    "duration": 0.11029399999999612
                },
                {
                    "name": "G#6",
                    "midi": 92,
                    "time": 117.79399200000113,
                    "velocity": 0.4409448818897638,
                    "duration": 0.11029399999999612
                },
                {
                    "name": "C#6",
                    "midi": 85,
                    "time": 117.90428600000112,
                    "velocity": 0.3543307086614173,
                    "duration": 0.11029399999999612
                },
                {
                    "name": "C#7",
                    "midi": 97,
                    "time": 118.01458000000112,
                    "velocity": 0.3858267716535433,
                    "duration": 0.11029399999999612
                },
                {
                    "name": "C#6",
                    "midi": 85,
                    "time": 118.12487400000111,
                    "velocity": 0.2992125984251969,
                    "duration": 0.11029399999999612
                },
                {
                    "name": "G#6",
                    "midi": 92,
                    "time": 118.23516800000111,
                    "velocity": 0.4409448818897638,
                    "duration": 0.11029399999999612
                },
                {
                    "name": "C#6",
                    "midi": 85,
                    "time": 118.3454620000011,
                    "velocity": 0.36220472440944884,
                    "duration": 0.11029399999999612
                },
                {
                    "name": "C#7",
                    "midi": 97,
                    "time": 118.4557560000011,
                    "velocity": 0.3937007874015748,
                    "duration": 0.11029399999999612
                },
                {
                    "name": "C#6",
                    "midi": 85,
                    "time": 118.5660500000011,
                    "velocity": 0.3228346456692913,
                    "duration": 0.11029399999999612
                },
                {
                    "name": "G#6",
                    "midi": 92,
                    "time": 118.6763440000011,
                    "velocity": 0.36220472440944884,
                    "duration": 0.11029399999999612
                },
                {
                    "name": "C#6",
                    "midi": 85,
                    "time": 118.78663800000109,
                    "velocity": 0.29133858267716534,
                    "duration": 0.11029399999999612
                },
                {
                    "name": "C#7",
                    "midi": 97,
                    "time": 118.89693200000109,
                    "velocity": 0.31496062992125984,
                    "duration": 0.11029399999999612
                },
                {
                    "name": "C#6",
                    "midi": 85,
                    "time": 119.00722600000108,
                    "velocity": 0.28346456692913385,
                    "duration": 0.11029399999999612
                },
                {
                    "name": "G#6",
                    "midi": 92,
                    "time": 119.11752000000108,
                    "velocity": 0.36220472440944884,
                    "duration": 0.11029399999999612
                },
                {
                    "name": "C#6",
                    "midi": 85,
                    "time": 119.22781400000108,
                    "velocity": 0.30708661417322836,
                    "duration": 0.11029399999999612
                },
                {
                    "name": "C#7",
                    "midi": 97,
                    "time": 119.33810800000107,
                    "velocity": 0.3464566929133858,
                    "duration": 0.11029399999999612
                },
                {
                    "name": "C#6",
                    "midi": 85,
                    "time": 119.44840200000107,
                    "velocity": 0.29133858267716534,
                    "duration": 0.11029399999999612
                },
                {
                    "name": "G#6",
                    "midi": 92,
                    "time": 119.55869600000106,
                    "velocity": 0.33070866141732286,
                    "duration": 0.11029399999999612
                },
                {
                    "name": "C#6",
                    "midi": 85,
                    "time": 119.66899000000106,
                    "velocity": 0.2755905511811024,
                    "duration": 0.11029399999999612
                },
                {
                    "name": "C#7",
                    "midi": 97,
                    "time": 119.77928400000106,
                    "velocity": 0.30708661417322836,
                    "duration": 0.11029399999999612
                },
                {
                    "name": "C#6",
                    "midi": 85,
                    "time": 119.88957800000105,
                    "velocity": 0.2440944881889764,
                    "duration": 0.11029399999999612
                },
                {
                    "name": "G#6",
                    "midi": 92,
                    "time": 119.99987200000105,
                    "velocity": 0.30708661417322836,
                    "duration": 0.11029399999999612
                },
                {
                    "name": "C#6",
                    "midi": 85,
                    "time": 120.11016600000104,
                    "velocity": 0.2440944881889764,
                    "duration": 0.11029399999999612
                },
                {
                    "name": "C#7",
                    "midi": 97,
                    "time": 120.22046000000104,
                    "velocity": 0.2440944881889764,
                    "duration": 0.22058800000000645
                },
                {
                    "name": "C#5",
                    "midi": 73,
                    "time": 121.70942900000105,
                    "velocity": 0.3700787401574803,
                    "duration": 0.03676466666667011
                },
                {
                    "name": "C#5",
                    "midi": 73,
                    "time": 121.76457600000106,
                    "velocity": 0.44881889763779526,
                    "duration": 0.11029399999999612
                },
                {
                    "name": "C#6",
                    "midi": 85,
                    "time": 121.87487000000105,
                    "velocity": 0.3937007874015748,
                    "duration": 0.08272049999999354
                },
                {
                    "name": "C#6",
                    "midi": 85,
                    "time": 121.98516400000105,
                    "velocity": 0.4566929133858268,
                    "duration": 0.11029399999999612
                },
                {
                    "name": "B5",
                    "midi": 83,
                    "time": 122.09545800000105,
                    "velocity": 0.4015748031496063,
                    "duration": 0.08272049999999354
                },
                {
                    "name": "B5",
                    "midi": 83,
                    "time": 122.20575200000104,
                    "velocity": 0.4409448818897638,
                    "duration": 0.11029399999999612
                },
                {
                    "name": "A5",
                    "midi": 81,
                    "time": 122.31604600000104,
                    "velocity": 0.3543307086614173,
                    "duration": 0.08272049999999354
                },
                {
                    "name": "A5",
                    "midi": 81,
                    "time": 122.42634000000103,
                    "velocity": 0.3858267716535433,
                    "duration": 0.11029399999999612
                },
                {
                    "name": "G#5",
                    "midi": 80,
                    "time": 122.53663400000103,
                    "velocity": 0.3543307086614173,
                    "duration": 0.11029399999999612
                },
                {
                    "name": "B5",
                    "midi": 83,
                    "time": 122.64692800000103,
                    "velocity": 0.4409448818897638,
                    "duration": 0.11029399999999612
                },
                {
                    "name": "A5",
                    "midi": 81,
                    "time": 122.86751600000102,
                    "velocity": 0.3779527559055118,
                    "duration": 0.11029399999999612
                },
                {
                    "name": "G#5",
                    "midi": 80,
                    "time": 123.08810400000101,
                    "velocity": 0.4409448818897638,
                    "duration": 0.4411759999999987
                },
                {
                    "name": "C#5",
                    "midi": 73,
                    "time": 123.52928000000101,
                    "velocity": 0.47244094488188976,
                    "duration": 0.11029399999999612
                },
                {
                    "name": "B5",
                    "midi": 83,
                    "time": 123.52928000000101,
                    "velocity": 0.47244094488188976,
                    "duration": 0.11029399999999612
                },
                {
                    "name": "A5",
                    "midi": 81,
                    "time": 123.639574000001,
                    "velocity": 0.3543307086614173,
                    "duration": 0.09191166666666106
                },
                {
                    "name": "A5",
                    "midi": 81,
                    "time": 123.749868000001,
                    "velocity": 0.4330708661417323,
                    "duration": 0.027573500000002582
                },
                {
                    "name": "B5",
                    "midi": 83,
                    "time": 123.777441500001,
                    "velocity": 0.4330708661417323,
                    "duration": 0.027573500000002582
                },
                {
                    "name": "A5",
                    "midi": 81,
                    "time": 123.805015000001,
                    "velocity": 0.47244094488188976,
                    "duration": 0.11029400000001033
                },
                {
                    "name": "G#5",
                    "midi": 80,
                    "time": 123.86016200000101,
                    "velocity": 0.3543307086614173,
                    "duration": 0.09191166666667527
                },
                {
                    "name": "G#5",
                    "midi": 80,
                    "time": 123.97045600000102,
                    "velocity": 0.4330708661417323,
                    "duration": 0.027573500000002582
                },
                {
                    "name": "A5",
                    "midi": 81,
                    "time": 123.99802950000102,
                    "velocity": 0.4330708661417323,
                    "duration": 0.027573500000002582
                },
                {
                    "name": "G#5",
                    "midi": 80,
                    "time": 124.02560300000103,
                    "velocity": 0.48031496062992124,
                    "duration": 0.055147000000005164
                },
                {
                    "name": "F#5",
                    "midi": 78,
                    "time": 124.08075000000103,
                    "velocity": 0.3543307086614173,
                    "duration": 0.09191166666666106
                },
                {
                    "name": "F#5",
                    "midi": 78,
                    "time": 124.19104400000103,
                    "velocity": 0.4094488188976378,
                    "duration": 0.027573500000002582
                },
                {
                    "name": "G#5",
                    "midi": 80,
                    "time": 124.21861750000103,
                    "velocity": 0.4094488188976378,
                    "duration": 0.027573500000002582
                },
                {
                    "name": "F#5",
                    "midi": 78,
                    "time": 124.24619100000103,
                    "velocity": 0.4566929133858268,
                    "duration": 0.055147000000005164
                },
                {
                    "name": "F5",
                    "midi": 77,
                    "time": 124.30133800000104,
                    "velocity": 0.3543307086614173,
                    "duration": 0.11029399999999612
                },
                {
                    "name": "G#5",
                    "midi": 80,
                    "time": 124.41163200000103,
                    "velocity": 0.4566929133858268,
                    "duration": 0.11029399999999612
                },
                {
                    "name": "G#4",
                    "midi": 68,
                    "time": 124.60464650000102,
                    "velocity": 0.30708661417322836,
                    "duration": 0.1378674999999845
                },
                {
                    "name": "C#5",
                    "midi": 73,
                    "time": 124.61843325000102,
                    "velocity": 0.33858267716535434,
                    "duration": 0.1240807499999903
                },
                {
                    "name": "F5",
                    "midi": 77,
                    "time": 124.63222000000101,
                    "velocity": 0.3858267716535433,
                    "duration": 0.11029399999999612
                },
                {
                    "name": "C#5",
                    "midi": 73,
                    "time": 124.852808000001,
                    "velocity": 0.41732283464566927,
                    "duration": 0.4227936666666636
                },
                {
                    "name": "C#5",
                    "midi": 73,
                    "time": 125.238837000001,
                    "velocity": 0.3700787401574803,
                    "duration": 0.055147000000005164
                },
                {
                    "name": "C#5",
                    "midi": 73,
                    "time": 125.293984000001,
                    "velocity": 0.44881889763779526,
                    "duration": 0.11029399999999612
                },
                {
                    "name": "C#6",
                    "midi": 85,
                    "time": 125.404278000001,
                    "velocity": 0.3937007874015748,
                    "duration": 0.08272049999999354
                },
                {
                    "name": "C#6",
                    "midi": 85,
                    "time": 125.514572000001,
                    "velocity": 0.4566929133858268,
                    "duration": 0.11029399999999612
                },
                {
                    "name": "B5",
                    "midi": 83,
                    "time": 125.62486600000099,
                    "velocity": 0.4015748031496063,
                    "duration": 0.08272049999999354
                },
                {
                    "name": "B5",
                    "midi": 83,
                    "time": 125.73516000000099,
                    "velocity": 0.4409448818897638,
                    "duration": 0.11029399999999612
                },
                {
                    "name": "A5",
                    "midi": 81,
                    "time": 125.84545400000098,
                    "velocity": 0.3543307086614173,
                    "duration": 0.08272049999999354
                },
                {
                    "name": "A5",
                    "midi": 81,
                    "time": 125.95574800000098,
                    "velocity": 0.3858267716535433,
                    "duration": 0.11029399999999612
                },
                {
                    "name": "G#5",
                    "midi": 80,
                    "time": 126.06604200000098,
                    "velocity": 0.3543307086614173,
                    "duration": 0.11029399999999612
                },
                {
                    "name": "B5",
                    "midi": 83,
                    "time": 126.17633600000097,
                    "velocity": 0.4409448818897638,
                    "duration": 0.11029399999999612
                },
                {
                    "name": "A5",
                    "midi": 81,
                    "time": 126.39692400000096,
                    "velocity": 0.3779527559055118,
                    "duration": 0.11029399999999612
                },
                {
                    "name": "G#5",
                    "midi": 80,
                    "time": 126.61751200000096,
                    "velocity": 0.4409448818897638,
                    "duration": 0.4411759999999987
                },
                {
                    "name": "A5",
                    "midi": 81,
                    "time": 127.00354100000095,
                    "velocity": 0.4094488188976378,
                    "duration": 0.027573500000002582
                },
                {
                    "name": "B5",
                    "midi": 83,
                    "time": 127.03111450000095,
                    "velocity": 0.4094488188976378,
                    "duration": 0.027573500000002582
                },
                {
                    "name": "A5",
                    "midi": 81,
                    "time": 127.05868800000096,
                    "velocity": 0.47244094488188976,
                    "duration": 0.11029399999999612
                },
                {
                    "name": "G#5",
                    "midi": 80,
                    "time": 127.16898200000095,
                    "velocity": 0.3543307086614173,
                    "duration": 0.08272049999999354
                },
                {
                    "name": "C#5",
                    "midi": 73,
                    "time": 127.27927600000095,
                    "velocity": 0.3858267716535433,
                    "duration": 0.22058800000000645
                },
                {
                    "name": "F#5",
                    "midi": 78,
                    "time": 127.27927600000095,
                    "velocity": 0.47244094488188976,
                    "duration": 0.11029399999999612
                },
                {
                    "name": "A5",
                    "midi": 81,
                    "time": 127.38957000000094,
                    "velocity": 0.3543307086614173,
                    "duration": 0.08272050000000775
                },
                {
                    "name": "G#5",
                    "midi": 80,
                    "time": 127.44471700000095,
                    "velocity": 0.41732283464566927,
                    "duration": 0.027573500000002582
                },
                {
                    "name": "A5",
                    "midi": 81,
                    "time": 127.47229050000095,
                    "velocity": 0.41732283464566927,
                    "duration": 0.027573500000002582
                },
                {
                    "name": "G#5",
                    "midi": 80,
                    "time": 127.49986400000095,
                    "velocity": 0.48031496062992124,
                    "duration": 0.11029399999999612
                },
                {
                    "name": "F#5",
                    "midi": 78,
                    "time": 127.61015800000095,
                    "velocity": 0.3543307086614173,
                    "duration": 0.11029399999999612
                },
                {
                    "name": "F5",
                    "midi": 77,
                    "time": 127.72045200000095,
                    "velocity": 0.4566929133858268,
                    "duration": 0.11029399999999612
                },
                {
                    "name": "C#5",
                    "midi": 73,
                    "time": 127.72045200000095,
                    "velocity": 0.3858267716535433,
                    "duration": 0.22058799999999223
                },
                {
                    "name": "G#5",
                    "midi": 80,
                    "time": 127.83074600000094,
                    "velocity": 0.3543307086614173,
                    "duration": 0.11029399999999612
                },
                {
                    "name": "F#5",
                    "midi": 78,
                    "time": 127.94104000000094,
                    "velocity": 0.4566929133858268,
                    "duration": 0.19301449999998965
                },
                {
                    "name": "F#5",
                    "midi": 78,
                    "time": 128.10648100000094,
                    "velocity": 0.33858267716535434,
                    "duration": 0.05514699999997674
                },
                {
                    "name": "G#5",
                    "midi": 80,
                    "time": 128.13405450000093,
                    "velocity": 0.3464566929133858,
                    "duration": 0.02757349999998837
                },
                {
                    "name": "C#5",
                    "midi": 73,
                    "time": 128.16162800000092,
                    "velocity": 0.3858267716535433,
                    "duration": 0.44117599999998447
                },
                {
                    "name": "F#5",
                    "midi": 78,
                    "time": 128.16162800000092,
                    "velocity": 0.3858267716535433,
                    "duration": 0.16544099999998707
                },
                {
                    "name": "F5",
                    "midi": 77,
                    "time": 128.3270690000009,
                    "velocity": 0.3858267716535433,
                    "duration": 0.055147000000005164
                },
                {
                    "name": "F#5",
                    "midi": 78,
                    "time": 128.3822160000009,
                    "velocity": 0.41732283464566927,
                    "duration": 0.44117599999998447
                },
                {
                    "name": "C#5",
                    "midi": 73,
                    "time": 128.7682450000009,
                    "velocity": 0.30708661417322836,
                    "duration": 0.03676466666667011
                },
                {
                    "name": "C#6",
                    "midi": 85,
                    "time": 128.7682450000009,
                    "velocity": 0.4251968503937008,
                    "duration": 0.03676466666667011
                },
                {
                    "name": "C#6",
                    "midi": 85,
                    "time": 128.8233920000009,
                    "velocity": 0.48031496062992124,
                    "duration": 0.11029400000001033
                },
                {
                    "name": "C#5",
                    "midi": 73,
                    "time": 128.8233920000009,
                    "velocity": 0.4015748031496063,
                    "duration": 0.11029400000001033
                },
                {
                    "name": "C#7",
                    "midi": 97,
                    "time": 128.9336860000009,
                    "velocity": 0.4094488188976378,
                    "duration": 0.08272049999999354
                },
                {
                    "name": "C#6",
                    "midi": 85,
                    "time": 128.9336860000009,
                    "velocity": 0.3464566929133858,
                    "duration": 0.08272049999999354
                },
                {
                    "name": "C#6",
                    "midi": 85,
                    "time": 129.0439800000009,
                    "velocity": 0.4015748031496063,
                    "duration": 0.11029400000001033
                },
                {
                    "name": "C#7",
                    "midi": 97,
                    "time": 129.0439800000009,
                    "velocity": 0.48031496062992124,
                    "duration": 0.11029400000001033
                },
                {
                    "name": "B6",
                    "midi": 95,
                    "time": 129.1542740000009,
                    "velocity": 0.41732283464566927,
                    "duration": 0.08272049999999354
                },
                {
                    "name": "B5",
                    "midi": 83,
                    "time": 129.1542740000009,
                    "velocity": 0.3543307086614173,
                    "duration": 0.08272049999999354
                },
                {
                    "name": "B6",
                    "midi": 95,
                    "time": 129.26456800000088,
                    "velocity": 0.48031496062992124,
                    "duration": 0.11029400000001033
                },
                {
                    "name": "B5",
                    "midi": 83,
                    "time": 129.26456800000088,
                    "velocity": 0.4015748031496063,
                    "duration": 0.11029400000001033
                },
                {
                    "name": "A5",
                    "midi": 81,
                    "time": 129.3748620000009,
                    "velocity": 0.3543307086614173,
                    "duration": 0.08272049999999354
                },
                {
                    "name": "A6",
                    "midi": 93,
                    "time": 129.3748620000009,
                    "velocity": 0.41732283464566927,
                    "duration": 0.08272049999999354
                },
                {
                    "name": "A5",
                    "midi": 81,
                    "time": 129.48515600000087,
                    "velocity": 0.4015748031496063,
                    "duration": 0.11029400000001033
                },
                {
                    "name": "A6",
                    "midi": 93,
                    "time": 129.48515600000087,
                    "velocity": 0.47244094488188976,
                    "duration": 0.11029400000001033
                },
                {
                    "name": "G#5",
                    "midi": 80,
                    "time": 129.59545000000088,
                    "velocity": 0.36220472440944884,
                    "duration": 0.11029400000001033
                },
                {
                    "name": "G#6",
                    "midi": 92,
                    "time": 129.59545000000088,
                    "velocity": 0.4330708661417323,
                    "duration": 0.11029400000001033
                },
                {
                    "name": "B6",
                    "midi": 95,
                    "time": 129.7057440000009,
                    "velocity": 0.5433070866141733,
                    "duration": 0.11029400000001033
                },
                {
                    "name": "B5",
                    "midi": 83,
                    "time": 129.7057440000009,
                    "velocity": 0.4566929133858268,
                    "duration": 0.11029400000001033
                },
                {
                    "name": "A5",
                    "midi": 81,
                    "time": 129.8987585000009,
                    "velocity": 0.3700787401574803,
                    "duration": 0.13786750000002712
                },
                {
                    "name": "C#6",
                    "midi": 85,
                    "time": 129.9125452500009,
                    "velocity": 0.3858267716535433,
                    "duration": 0.12408075000001872
                },
                {
                    "name": "A6",
                    "midi": 93,
                    "time": 129.9263320000009,
                    "velocity": 0.47244094488188976,
                    "duration": 0.11029400000001033
                },
                {
                    "name": "G#5",
                    "midi": 80,
                    "time": 130.11934650000092,
                    "velocity": 0.4015748031496063,
                    "duration": 0.4687495000000297
                },
                {
                    "name": "C#6",
                    "midi": 85,
                    "time": 130.13313325000092,
                    "velocity": 0.4251968503937008,
                    "duration": 0.4549627500000213
                },
                {
                    "name": "G#6",
                    "midi": 92,
                    "time": 130.14692000000093,
                    "velocity": 0.5196850393700787,
                    "duration": 0.4411760000000129
                },
                {
                    "name": "B6",
                    "midi": 95,
                    "time": 130.58809600000095,
                    "velocity": 0.5433070866141733,
                    "duration": 0.11029400000001033
                },
                {
                    "name": "B5",
                    "midi": 83,
                    "time": 130.58809600000095,
                    "velocity": 0.4566929133858268,
                    "duration": 0.11029400000001033
                },
                {
                    "name": "A5",
                    "midi": 81,
                    "time": 130.69839000000096,
                    "velocity": 0.36220472440944884,
                    "duration": 0.08272049999999354
                },
                {
                    "name": "A6",
                    "midi": 93,
                    "time": 130.69839000000096,
                    "velocity": 0.4330708661417323,
                    "duration": 0.08272049999999354
                },
                {
                    "name": "A5",
                    "midi": 81,
                    "time": 130.80868400000094,
                    "velocity": 0.4409448818897638,
                    "duration": 0.08272049999999354
                },
                {
                    "name": "A6",
                    "midi": 93,
                    "time": 130.80868400000094,
                    "velocity": 0.5275590551181102,
                    "duration": 0.08272049999999354
                },
                {
                    "name": "G#5",
                    "midi": 80,
                    "time": 130.91897800000092,
                    "velocity": 0.4094488188976378,
                    "duration": 0.1102939999999819
                },
                {
                    "name": "G#6",
                    "midi": 92,
                    "time": 130.91897800000092,
                    "velocity": 0.4330708661417323,
                    "duration": 0.1102939999999819
                },
                {
                    "name": "A6",
                    "midi": 93,
                    "time": 131.0016985000009,
                    "velocity": 0.44881889763779526,
                    "duration": 0.02757349999998837
                },
                {
                    "name": "G#6",
                    "midi": 92,
                    "time": 131.0292720000009,
                    "velocity": 0.5196850393700787,
                    "duration": 0.08272049999999354
                },
                {
                    "name": "G#5",
                    "midi": 80,
                    "time": 131.0292720000009,
                    "velocity": 0.4409448818897638,
                    "duration": 0.055147000000005164
                },
                {
                    "name": "F#6",
                    "midi": 90,
                    "time": 131.13956600000088,
                    "velocity": 0.3937007874015748,
                    "duration": 0.08272049999999354
                },
                {
                    "name": "F#5",
                    "midi": 78,
                    "time": 131.13956600000088,
                    "velocity": 0.33070866141732286,
                    "duration": 0.08272049999999354
                },
                {
                    "name": "F#6",
                    "midi": 90,
                    "time": 131.24986000000087,
                    "velocity": 0.49606299212598426,
                    "duration": 0.11029400000001033
                },
                {
                    "name": "F#5",
                    "midi": 78,
                    "time": 131.24986000000087,
                    "velocity": 0.41732283464566927,
                    "duration": 0.11029400000001033
                },
                {
                    "name": "F6",
                    "midi": 89,
                    "time": 131.36015400000088,
                    "velocity": 0.3700787401574803,
                    "duration": 0.11029400000001033
                },
                {
                    "name": "F5",
                    "midi": 77,
                    "time": 131.36015400000088,
                    "velocity": 0.30708661417322836,
                    "duration": 0.11029400000001033
                },
                {
                    "name": "G#6",
                    "midi": 92,
                    "time": 131.47044800000089,
                    "velocity": 0.49606299212598426,
                    "duration": 0.11029400000001033
                },
                {
                    "name": "G#5",
                    "midi": 80,
                    "time": 131.47044800000089,
                    "velocity": 0.41732283464566927,
                    "duration": 0.11029400000001033
                },
                {
                    "name": "F5",
                    "midi": 77,
                    "time": 131.6496757500009,
                    "velocity": 0.36220472440944884,
                    "duration": 0.15165425000003552
                },
                {
                    "name": "G#5",
                    "midi": 80,
                    "time": 131.66346250000092,
                    "velocity": 0.3937007874015748,
                    "duration": 0.13786750000002712
                },
                {
                    "name": "C#6",
                    "midi": 85,
                    "time": 131.67724925000093,
                    "velocity": 0.4094488188976378,
                    "duration": 0.12408075000001872
                },
                {
                    "name": "F6",
                    "midi": 89,
                    "time": 131.69103600000093,
                    "velocity": 0.4645669291338583,
                    "duration": 0.11029400000001033
                },
                {
                    "name": "C#5",
                    "midi": 73,
                    "time": 131.87026375000096,
                    "velocity": 0.33070866141732286,
                    "duration": 0.4273892500000329
                },
                {
                    "name": "F5",
                    "midi": 77,
                    "time": 131.88405050000097,
                    "velocity": 0.3464566929133858,
                    "duration": 0.4136025000000245
                },
                {
                    "name": "G#5",
                    "midi": 80,
                    "time": 131.89783725000098,
                    "velocity": 0.36220472440944884,
                    "duration": 0.3998157500000161
                },
                {
                    "name": "C#6",
                    "midi": 85,
                    "time": 131.91162400000098,
                    "velocity": 0.41732283464566927,
                    "duration": 0.3860290000000077
                },
                {
                    "name": "C#5",
                    "midi": 73,
                    "time": 132.297653000001,
                    "velocity": 0.3700787401574803,
                    "duration": 0.03676466666667011
                },
                {
                    "name": "C#6",
                    "midi": 85,
                    "time": 132.297653000001,
                    "velocity": 0.4251968503937008,
                    "duration": 0.03676466666667011
                },
                {
                    "name": "C#6",
                    "midi": 85,
                    "time": 132.352800000001,
                    "velocity": 0.5118110236220472,
                    "duration": 0.11029400000001033
                },
                {
                    "name": "C#5",
                    "midi": 73,
                    "time": 132.352800000001,
                    "velocity": 0.44881889763779526,
                    "duration": 0.11029400000001033
                },
                {
                    "name": "C#6",
                    "midi": 85,
                    "time": 132.463094000001,
                    "velocity": 0.3937007874015748,
                    "duration": 0.08272049999999354
                },
                {
                    "name": "C#7",
                    "midi": 97,
                    "time": 132.463094000001,
                    "velocity": 0.44881889763779526,
                    "duration": 0.08272049999999354
                },
                {
                    "name": "C#6",
                    "midi": 85,
                    "time": 132.573388000001,
                    "velocity": 0.4566929133858268,
                    "duration": 0.11029400000001033
                },
                {
                    "name": "C#7",
                    "midi": 97,
                    "time": 132.573388000001,
                    "velocity": 0.5196850393700787,
                    "duration": 0.11029400000001033
                },
                {
                    "name": "B6",
                    "midi": 95,
                    "time": 132.683682000001,
                    "velocity": 0.4566929133858268,
                    "duration": 0.08272049999999354
                },
                {
                    "name": "B5",
                    "midi": 83,
                    "time": 132.683682000001,
                    "velocity": 0.4015748031496063,
                    "duration": 0.08272049999999354
                },
                {
                    "name": "B6",
                    "midi": 95,
                    "time": 132.79397600000098,
                    "velocity": 0.5039370078740157,
                    "duration": 0.11029400000001033
                },
                {
                    "name": "B5",
                    "midi": 83,
                    "time": 132.79397600000098,
                    "velocity": 0.4409448818897638,
                    "duration": 0.11029400000001033
                },
                {
                    "name": "A6",
                    "midi": 93,
                    "time": 132.904270000001,
                    "velocity": 0.4015748031496063,
                    "duration": 0.08272049999999354
                },
                {
                    "name": "A5",
                    "midi": 81,
                    "time": 132.904270000001,
                    "velocity": 0.3543307086614173,
                    "duration": 0.08272049999999354
                },
                {
                    "name": "A5",
                    "midi": 81,
                    "time": 133.01456400000097,
                    "velocity": 0.3858267716535433,
                    "duration": 0.11029400000001033
                },
                {
                    "name": "A6",
                    "midi": 93,
                    "time": 133.01456400000097,
                    "velocity": 0.4409448818897638,
                    "duration": 0.11029400000001033
                },
                {
                    "name": "G#6",
                    "midi": 92,
                    "time": 133.12485800000098,
                    "velocity": 0.4015748031496063,
                    "duration": 0.11029400000001033
                },
                {
                    "name": "G#5",
                    "midi": 80,
                    "time": 133.12485800000098,
                    "velocity": 0.3543307086614173,
                    "duration": 0.11029400000001033
                },
                {
                    "name": "B5",
                    "midi": 83,
                    "time": 133.235152000001,
                    "velocity": 0.4409448818897638,
                    "duration": 0.11029400000001033
                },
                {
                    "name": "B6",
                    "midi": 95,
                    "time": 133.235152000001,
                    "velocity": 0.5039370078740157,
                    "duration": 0.11029400000001033
                },
                {
                    "name": "A5",
                    "midi": 81,
                    "time": 133.428166500001,
                    "velocity": 0.3779527559055118,
                    "duration": 0.13786750000002712
                },
                {
                    "name": "C#6",
                    "midi": 85,
                    "time": 133.441953250001,
                    "velocity": 0.3779527559055118,
                    "duration": 0.12408075000001872
                },
                {
                    "name": "A6",
                    "midi": 93,
                    "time": 133.45574000000101,
                    "velocity": 0.3858267716535433,
                    "duration": 0.11029400000001033
                },
                {
                    "name": "G#5",
                    "midi": 80,
                    "time": 133.64875450000102,
                    "velocity": 0.3937007874015748,
                    "duration": 0.4687495000000297
                },
                {
                    "name": "C#6",
                    "midi": 85,
                    "time": 133.66254125000103,
                    "velocity": 0.3937007874015748,
                    "duration": 0.4549627500000213
                },
                {
                    "name": "G#6",
                    "midi": 92,
                    "time": 133.67632800000104,
                    "velocity": 0.44881889763779526,
                    "duration": 0.4411760000000129
                },
                {
                    "name": "A6",
                    "midi": 93,
                    "time": 134.11750400000105,
                    "velocity": 0.4015748031496063,
                    "duration": 0.11029400000001033
                },
                {
                    "name": "A5",
                    "midi": 81,
                    "time": 134.11750400000105,
                    "velocity": 0.3543307086614173,
                    "duration": 0.11029400000001033
                },
                {
                    "name": "G#5",
                    "midi": 80,
                    "time": 134.22779800000106,
                    "velocity": 0.25984251968503935,
                    "duration": 0.055147000000005164
                },
                {
                    "name": "G#6",
                    "midi": 92,
                    "time": 134.22779800000106,
                    "velocity": 0.2992125984251969,
                    "duration": 0.08272049999999354
                },
                {
                    "name": "F#6",
                    "midi": 90,
                    "time": 134.33809200000104,
                    "velocity": 0.4015748031496063,
                    "duration": 0.11029400000001033
                },
                {
                    "name": "C#6",
                    "midi": 85,
                    "time": 134.33809200000104,
                    "velocity": 0.28346456692913385,
                    "duration": 0.22058800000002066
                },
                {
                    "name": "F#5",
                    "midi": 78,
                    "time": 134.33809200000104,
                    "velocity": 0.3543307086614173,
                    "duration": 0.11029400000001033
                },
                {
                    "name": "A5",
                    "midi": 81,
                    "time": 134.44838600000105,
                    "velocity": 0.25984251968503935,
                    "duration": 0.11029400000001033
                },
                {
                    "name": "A6",
                    "midi": 93,
                    "time": 134.44838600000105,
                    "velocity": 0.2992125984251969,
                    "duration": 0.09191166666667527
                },
                {
                    "name": "G#5",
                    "midi": 80,
                    "time": 134.55868000000106,
                    "velocity": 0.3543307086614173,
                    "duration": 0.11029400000001033
                },
                {
                    "name": "G#6",
                    "midi": 92,
                    "time": 134.55868000000106,
                    "velocity": 0.4094488188976378,
                    "duration": 0.11029400000001033
                },
                {
                    "name": "F#5",
                    "midi": 78,
                    "time": 134.66897400000107,
                    "velocity": 0.25984251968503935,
                    "duration": 0.11029400000001033
                },
                {
                    "name": "F#6",
                    "midi": 90,
                    "time": 134.66897400000107,
                    "velocity": 0.2992125984251969,
                    "duration": 0.11029400000001033
                },
                {
                    "name": "F6",
                    "midi": 89,
                    "time": 134.77926800000108,
                    "velocity": 0.3858267716535433,
                    "duration": 0.11029400000001033
                },
                {
                    "name": "C#6",
                    "midi": 85,
                    "time": 134.77926800000108,
                    "velocity": 0.28346456692913385,
                    "duration": 0.22058800000002066
                },
                {
                    "name": "F5",
                    "midi": 77,
                    "time": 134.77926800000108,
                    "velocity": 0.33858267716535434,
                    "duration": 0.11029400000001033
                },
                {
                    "name": "G#6",
                    "midi": 92,
                    "time": 134.8895620000011,
                    "velocity": 0.2992125984251969,
                    "duration": 0.09191166666667527
                },
                {
                    "name": "G#5",
                    "midi": 80,
                    "time": 134.8895620000011,
                    "velocity": 0.25984251968503935,
                    "duration": 0.11029400000001033
                },
                {
                    "name": "F#5",
                    "midi": 78,
                    "time": 134.9998560000011,
                    "velocity": 0.33858267716535434,
                    "duration": 0.22058799999999223
                },
                {
                    "name": "F#6",
                    "midi": 90,
                    "time": 134.9998560000011,
                    "velocity": 0.3858267716535433,
                    "duration": 0.22058799999999223
                },
                {
                    "name": "C#6",
                    "midi": 85,
                    "time": 135.2204440000011,
                    "velocity": 0.28346456692913385,
                    "duration": 0.22058799999999223
                },
                {
                    "name": "F#6",
                    "midi": 90,
                    "time": 135.2204440000011,
                    "velocity": 0.33070866141732286,
                    "duration": 0.16544099999998707
                },
                {
                    "name": "F#5",
                    "midi": 78,
                    "time": 135.2204440000011,
                    "velocity": 0.28346456692913385,
                    "duration": 0.16544099999998707
                },
                {
                    "name": "F5",
                    "midi": 77,
                    "time": 135.38588500000108,
                    "velocity": 0.28346456692913385,
                    "duration": 0.055147000000005164
                },
                {
                    "name": "F6",
                    "midi": 89,
                    "time": 135.38588500000108,
                    "velocity": 0.33070866141732286,
                    "duration": 0.055147000000005164
                },
                {
                    "name": "C#6",
                    "midi": 85,
                    "time": 135.4410320000011,
                    "velocity": 0.30708661417322836,
                    "duration": 0.4411760000000129
                },
                {
                    "name": "F#6",
                    "midi": 90,
                    "time": 135.4410320000011,
                    "velocity": 0.3543307086614173,
                    "duration": 0.4411760000000129
                },
                {
                    "name": "F#5",
                    "midi": 78,
                    "time": 135.4410320000011,
                    "velocity": 0.30708661417322836,
                    "duration": 0.4411760000000129
                },
                {
                    "name": "G#3",
                    "midi": 56,
                    "time": 135.8822080000011,
                    "velocity": 0.4015748031496063,
                    "duration": 0.055147000000005164
                },
                {
                    "name": "E3",
                    "midi": 52,
                    "time": 135.8822080000011,
                    "velocity": 0.33070866141732286,
                    "duration": 0.055147000000005164
                },
                {
                    "name": "C#4",
                    "midi": 61,
                    "time": 135.9373550000011,
                    "velocity": 0.33070866141732286,
                    "duration": 0.055147000000005164
                },
                {
                    "name": "E3",
                    "midi": 52,
                    "time": 135.9925020000011,
                    "velocity": 0.2992125984251969,
                    "duration": 0.055147000000005164
                },
                {
                    "name": "G#3",
                    "midi": 56,
                    "time": 135.9925020000011,
                    "velocity": 0.3543307086614173,
                    "duration": 0.055147000000005164
                },
                {
                    "name": "C#4",
                    "midi": 61,
                    "time": 136.04764900000112,
                    "velocity": 0.33858267716535434,
                    "duration": 0.055147000000005164
                },
                {
                    "name": "G#3",
                    "midi": 56,
                    "time": 136.10279600000112,
                    "velocity": 0.3543307086614173,
                    "duration": 0.055147000000005164
                },
                {
                    "name": "E3",
                    "midi": 52,
                    "time": 136.10279600000112,
                    "velocity": 0.2992125984251969,
                    "duration": 0.055147000000005164
                },
                {
                    "name": "C#4",
                    "midi": 61,
                    "time": 136.15794300000113,
                    "velocity": 0.33858267716535434,
                    "duration": 0.055147000000005164
                },
                {
                    "name": "E3",
                    "midi": 52,
                    "time": 136.21309000000113,
                    "velocity": 0.2992125984251969,
                    "duration": 0.055147000000005164
                },
                {
                    "name": "G#3",
                    "midi": 56,
                    "time": 136.21309000000113,
                    "velocity": 0.3543307086614173,
                    "duration": 0.055147000000005164
                },
                {
                    "name": "C#4",
                    "midi": 61,
                    "time": 136.26823700000114,
                    "velocity": 0.33070866141732286,
                    "duration": 0.055147000000005164
                },
                {
                    "name": "G#3",
                    "midi": 56,
                    "time": 136.32338400000114,
                    "velocity": 0.3858267716535433,
                    "duration": 0.055147000000005164
                },
                {
                    "name": "E3",
                    "midi": 52,
                    "time": 136.32338400000114,
                    "velocity": 0.33070866141732286,
                    "duration": 0.055147000000005164
                },
                {
                    "name": "C#4",
                    "midi": 61,
                    "time": 136.37853100000115,
                    "velocity": 0.33070866141732286,
                    "duration": 0.055147000000005164
                },
                {
                    "name": "E3",
                    "midi": 52,
                    "time": 136.43367800000115,
                    "velocity": 0.2992125984251969,
                    "duration": 0.055147000000005164
                },
                {
                    "name": "G#3",
                    "midi": 56,
                    "time": 136.43367800000115,
                    "velocity": 0.3543307086614173,
                    "duration": 0.055147000000005164
                },
                {
                    "name": "C#4",
                    "midi": 61,
                    "time": 136.48882500000116,
                    "velocity": 0.3228346456692913,
                    "duration": 0.055147000000005164
                },
                {
                    "name": "E3",
                    "midi": 52,
                    "time": 136.54397200000116,
                    "velocity": 0.2992125984251969,
                    "duration": 0.055147000000005164
                },
                {
                    "name": "G#3",
                    "midi": 56,
                    "time": 136.54397200000116,
                    "velocity": 0.3543307086614173,
                    "duration": 0.055147000000005164
                },
                {
                    "name": "C#4",
                    "midi": 61,
                    "time": 136.59911900000117,
                    "velocity": 0.3228346456692913,
                    "duration": 0.055147000000005164
                },
                {
                    "name": "G#3",
                    "midi": 56,
                    "time": 136.65426600000117,
                    "velocity": 0.3543307086614173,
                    "duration": 0.055147000000005164
                },
                {
                    "name": "E3",
                    "midi": 52,
                    "time": 136.65426600000117,
                    "velocity": 0.2992125984251969,
                    "duration": 0.055147000000005164
                },
                {
                    "name": "C#4",
                    "midi": 61,
                    "time": 136.70941300000118,
                    "velocity": 0.31496062992125984,
                    "duration": 0.055147000000005164
                },
                {
                    "name": "F#3",
                    "midi": 54,
                    "time": 136.76456000000118,
                    "velocity": 0.3228346456692913,
                    "duration": 0.055147000000005164
                },
                {
                    "name": "A3",
                    "midi": 57,
                    "time": 136.76456000000118,
                    "velocity": 0.3779527559055118,
                    "duration": 0.055147000000005164
                },
                {
                    "name": "F#4",
                    "midi": 66,
                    "time": 136.8197070000012,
                    "velocity": 0.33070866141732286,
                    "duration": 0.055147000000005164
                },
                {
                    "name": "A3",
                    "midi": 57,
                    "time": 136.8748540000012,
                    "velocity": 0.3543307086614173,
                    "duration": 0.055147000000005164
                },
                {
                    "name": "F#3",
                    "midi": 54,
                    "time": 136.8748540000012,
                    "velocity": 0.2992125984251969,
                    "duration": 0.055147000000005164
                },
                {
                    "name": "F#4",
                    "midi": 66,
                    "time": 136.9300010000012,
                    "velocity": 0.33070866141732286,
                    "duration": 0.055147000000005164
                },
                {
                    "name": "F#3",
                    "midi": 54,
                    "time": 136.9851480000012,
                    "velocity": 0.30708661417322836,
                    "duration": 0.055147000000005164
                },
                {
                    "name": "A3",
                    "midi": 57,
                    "time": 136.9851480000012,
                    "velocity": 0.36220472440944884,
                    "duration": 0.055147000000005164
                },
                {
                    "name": "F#4",
                    "midi": 66,
                    "time": 137.0402950000012,
                    "velocity": 0.3228346456692913,
                    "duration": 0.055147000000005164
                },
                {
                    "name": "F#3",
                    "midi": 54,
                    "time": 137.0954420000012,
                    "velocity": 0.2992125984251969,
                    "duration": 0.055147000000005164
                },
                {
                    "name": "A3",
                    "midi": 57,
                    "time": 137.0954420000012,
                    "velocity": 0.3543307086614173,
                    "duration": 0.055147000000005164
                },
                {
                    "name": "F#4",
                    "midi": 66,
                    "time": 137.15058900000122,
                    "velocity": 0.33070866141732286,
                    "duration": 0.055147000000005164
                },
                {
                    "name": "A3",
                    "midi": 57,
                    "time": 137.20573600000122,
                    "velocity": 0.3543307086614173,
                    "duration": 0.055147000000005164
                },
                {
                    "name": "F#3",
                    "midi": 54,
                    "time": 137.20573600000122,
                    "velocity": 0.2992125984251969,
                    "duration": 0.055147000000005164
                },
                {
                    "name": "F#4",
                    "midi": 66,
                    "time": 137.26088300000123,
                    "velocity": 0.33070866141732286,
                    "duration": 0.055147000000005164
                },
                {
                    "name": "F#3",
                    "midi": 54,
                    "time": 137.31603000000123,
                    "velocity": 0.2992125984251969,
                    "duration": 0.055147000000005164
                },
                {
                    "name": "A3",
                    "midi": 57,
                    "time": 137.31603000000123,
                    "velocity": 0.3543307086614173,
                    "duration": 0.055147000000005164
                },
                {
                    "name": "F#4",
                    "midi": 66,
                    "time": 137.37117700000124,
                    "velocity": 0.33070866141732286,
                    "duration": 0.055147000000005164
                },
                {
                    "name": "A3",
                    "midi": 57,
                    "time": 137.42632400000124,
                    "velocity": 0.3543307086614173,
                    "duration": 0.055147000000005164
                },
                {
                    "name": "F#3",
                    "midi": 54,
                    "time": 137.42632400000124,
                    "velocity": 0.2992125984251969,
                    "duration": 0.055147000000005164
                },
                {
                    "name": "F#4",
                    "midi": 66,
                    "time": 137.48147100000125,
                    "velocity": 0.3228346456692913,
                    "duration": 0.055147000000005164
                },
                {
                    "name": "F#3",
                    "midi": 54,
                    "time": 137.53661800000125,
                    "velocity": 0.2992125984251969,
                    "duration": 0.055147000000005164
                },
                {
                    "name": "A3",
                    "midi": 57,
                    "time": 137.53661800000125,
                    "velocity": 0.3543307086614173,
                    "duration": 0.055147000000005164
                },
                {
                    "name": "F#4",
                    "midi": 66,
                    "time": 137.59176500000126,
                    "velocity": 0.33070866141732286,
                    "duration": 0.055147000000005164
                },
                {
                    "name": "E3",
                    "midi": 52,
                    "time": 137.64691200000127,
                    "velocity": 0.33070866141732286,
                    "duration": 0.055147000000005164
                },
                {
                    "name": "G#3",
                    "midi": 56,
                    "time": 137.64691200000127,
                    "velocity": 0.4015748031496063,
                    "duration": 0.055147000000005164
                },
                {
                    "name": "E4",
                    "midi": 64,
                    "time": 137.70205900000127,
                    "velocity": 0.33070866141732286,
                    "duration": 0.055147000000005164
                },
                {
                    "name": "G#3",
                    "midi": 56,
                    "time": 137.75720600000128,
                    "velocity": 0.3543307086614173,
                    "duration": 0.055147000000005164
                },
                {
                    "name": "E3",
                    "midi": 52,
                    "time": 137.75720600000128,
                    "velocity": 0.2992125984251969,
                    "duration": 0.055147000000005164
                },
                {
                    "name": "E4",
                    "midi": 64,
                    "time": 137.81235300000128,
                    "velocity": 0.3464566929133858,
                    "duration": 0.055147000000005164
                },
                {
                    "name": "E3",
                    "midi": 52,
                    "time": 137.8675000000013,
                    "velocity": 0.30708661417322836,
                    "duration": 0.055147000000005164
                },
                {
                    "name": "G#3",
                    "midi": 56,
                    "time": 137.8675000000013,
                    "velocity": 0.36220472440944884,
                    "duration": 0.055147000000005164
                },
                {
                    "name": "E4",
                    "midi": 64,
                    "time": 137.9226470000013,
                    "velocity": 0.3543307086614173,
                    "duration": 0.055147000000005164
                },
                {
                    "name": "E3",
                    "midi": 52,
                    "time": 137.9777940000013,
                    "velocity": 0.31496062992125984,
                    "duration": 0.055147000000005164
                },
                {
                    "name": "G#3",
                    "midi": 56,
                    "time": 137.9777940000013,
                    "velocity": 0.3779527559055118,
                    "duration": 0.055147000000005164
                },
                {
                    "name": "E4",
                    "midi": 64,
                    "time": 138.0329410000013,
                    "velocity": 0.3543307086614173,
                    "duration": 0.055147000000005164
                },
                {
                    "name": "D3",
                    "midi": 50,
                    "time": 138.0880880000013,
                    "velocity": 0.36220472440944884,
                    "duration": 0.055147000000005164
                },
                {
                    "name": "F#3",
                    "midi": 54,
                    "time": 138.0880880000013,
                    "velocity": 0.4330708661417323,
                    "duration": 0.055147000000005164
                },
                {
                    "name": "D4",
                    "midi": 62,
                    "time": 138.1432350000013,
                    "velocity": 0.36220472440944884,
                    "duration": 0.055147000000005164
                },
                {
                    "name": "D3",
                    "midi": 50,
                    "time": 138.19838200000132,
                    "velocity": 0.33070866141732286,
                    "duration": 0.055147000000005164
                },
                {
                    "name": "F#3",
                    "midi": 54,
                    "time": 138.19838200000132,
                    "velocity": 0.3858267716535433,
                    "duration": 0.055147000000005164
                },
                {
                    "name": "D4",
                    "midi": 62,
                    "time": 138.25352900000132,
                    "velocity": 0.3779527559055118,
                    "duration": 0.055147000000005164
                },
                {
                    "name": "F#3",
                    "midi": 54,
                    "time": 138.30867600000133,
                    "velocity": 0.4015748031496063,
                    "duration": 0.055147000000005164
                },
                {
                    "name": "D3",
                    "midi": 50,
                    "time": 138.30867600000133,
                    "velocity": 0.33858267716535434,
                    "duration": 0.055147000000005164
                },
                {
                    "name": "D4",
                    "midi": 62,
                    "time": 138.36382300000133,
                    "velocity": 0.3858267716535433,
                    "duration": 0.055147000000005164
                },
                {
                    "name": "D3",
                    "midi": 50,
                    "time": 138.41897000000134,
                    "velocity": 0.33858267716535434,
                    "duration": 0.055147000000005164
                },
                {
                    "name": "F#3",
                    "midi": 54,
                    "time": 138.41897000000134,
                    "velocity": 0.4015748031496063,
                    "duration": 0.055147000000005164
                },
                {
                    "name": "D4",
                    "midi": 62,
                    "time": 138.47411700000134,
                    "velocity": 0.3858267716535433,
                    "duration": 0.055147000000005164
                },
                {
                    "name": "E3",
                    "midi": 52,
                    "time": 138.52926400000135,
                    "velocity": 0.4645669291338583,
                    "duration": 0.055147000000005164
                },
                {
                    "name": "C#3",
                    "midi": 49,
                    "time": 138.52926400000135,
                    "velocity": 0.3937007874015748,
                    "duration": 0.055147000000005164
                },
                {
                    "name": "C#4",
                    "midi": 61,
                    "time": 138.58441100000135,
                    "velocity": 0.3937007874015748,
                    "duration": 0.055147000000005164
                },
                {
                    "name": "E3",
                    "midi": 52,
                    "time": 138.63955800000136,
                    "velocity": 0.4251968503937008,
                    "duration": 0.055147000000005164
                },
                {
                    "name": "C#3",
                    "midi": 49,
                    "time": 138.63955800000136,
                    "velocity": 0.3543307086614173,
                    "duration": 0.055147000000005164
                },
                {
                    "name": "C#4",
                    "midi": 61,
                    "time": 138.69470500000136,
                    "velocity": 0.4094488188976378,
                    "duration": 0.055147000000005164
                },
                {
                    "name": "C#3",
                    "midi": 49,
                    "time": 138.74985200000137,
                    "velocity": 0.36220472440944884,
                    "duration": 0.055147000000005164
                },
                {
                    "name": "E3",
                    "midi": 52,
                    "time": 138.74985200000137,
                    "velocity": 0.4251968503937008,
                    "duration": 0.055147000000005164
                },
                {
                    "name": "C#4",
                    "midi": 61,
                    "time": 138.80499900000137,
                    "velocity": 0.41732283464566927,
                    "duration": 0.055147000000005164
                },
                {
                    "name": "E3",
                    "midi": 52,
                    "time": 138.86014600000138,
                    "velocity": 0.4330708661417323,
                    "duration": 0.055147000000005164
                },
                {
                    "name": "C#3",
                    "midi": 49,
                    "time": 138.86014600000138,
                    "velocity": 0.3700787401574803,
                    "duration": 0.055147000000005164
                },
                {
                    "name": "C#4",
                    "midi": 61,
                    "time": 138.91529300000138,
                    "velocity": 0.41732283464566927,
                    "duration": 0.055147000000005164
                },
                {
                    "name": "D#3",
                    "midi": 51,
                    "time": 138.9704400000014,
                    "velocity": 0.41732283464566927,
                    "duration": 0.055147000000005164
                },
                {
                    "name": "F#3",
                    "midi": 54,
                    "time": 138.9704400000014,
                    "velocity": 0.4881889763779528,
                    "duration": 0.055147000000005164
                },
                {
                    "name": "C4",
                    "midi": 60,
                    "time": 139.0255870000014,
                    "velocity": 0.4251968503937008,
                    "duration": 0.055147000000005164
                },
                {
                    "name": "F#3",
                    "midi": 54,
                    "time": 139.0807340000014,
                    "velocity": 0.44881889763779526,
                    "duration": 0.055147000000005164
                },
                {
                    "name": "D#3",
                    "midi": 51,
                    "time": 139.0807340000014,
                    "velocity": 0.3779527559055118,
                    "duration": 0.055147000000005164
                },
                {
                    "name": "C4",
                    "midi": 60,
                    "time": 139.1358810000014,
                    "velocity": 0.4409448818897638,
                    "duration": 0.055147000000005164
                },
                {
                    "name": "F#3",
                    "midi": 54,
                    "time": 139.1910280000014,
                    "velocity": 0.4566929133858268,
                    "duration": 0.055147000000005164
                },
                {
                    "name": "D#3",
                    "midi": 51,
                    "time": 139.1910280000014,
                    "velocity": 0.3858267716535433,
                    "duration": 0.055147000000005164
                },
                {
                    "name": "C4",
                    "midi": 60,
                    "time": 139.24617500000141,
                    "velocity": 0.44881889763779526,
                    "duration": 0.055147000000005164
                },
                {
                    "name": "D#3",
                    "midi": 51,
                    "time": 139.30132200000142,
                    "velocity": 0.4015748031496063,
                    "duration": 0.055147000000005164
                },
                {
                    "name": "F#3",
                    "midi": 54,
                    "time": 139.30132200000142,
                    "velocity": 0.47244094488188976,
                    "duration": 0.055147000000005164
                },
                {
                    "name": "C4",
                    "midi": 60,
                    "time": 139.35646900000143,
                    "velocity": 0.44881889763779526,
                    "duration": 0.055147000000005164
                },
                {
                    "name": "C#4",
                    "midi": 61,
                    "time": 139.41161600000143,
                    "velocity": 0.7244094488188977,
                    "duration": 0.11029400000001033
                },
                {
                    "name": "C#3",
                    "midi": 49,
                    "time": 139.41161600000143,
                    "velocity": 0.5905511811023622,
                    "duration": 0.11029400000001033
                },
                {
                    "name": "E3",
                    "midi": 52,
                    "time": 139.41161600000143,
                    "velocity": 0.5905511811023622,
                    "duration": 0.11029400000001033
                },
                {
                    "name": "C#4",
                    "midi": 61,
                    "time": 139.85279200000144,
                    "velocity": 0.6141732283464567,
                    "duration": 0.04871318333331942
                },
                {
                    "name": "A3",
                    "midi": 57,
                    "time": 139.85279200000144,
                    "velocity": 0.6141732283464567,
                    "duration": 0.04871318333331942
                },
                {
                    "name": "F#4",
                    "midi": 66,
                    "time": 139.90150518333476,
                    "velocity": 0.5275590551181102,
                    "duration": 0.04871318333331942
                },
                {
                    "name": "A4",
                    "midi": 69,
                    "time": 139.95021836666808,
                    "velocity": 0.5433070866141733,
                    "duration": 0.04871318333331942
                },
                {
                    "name": "C#5",
                    "midi": 73,
                    "time": 139.9989315500014,
                    "velocity": 0.5590551181102362,
                    "duration": 0.04871318333331942
                },
                {
                    "name": "F#5",
                    "midi": 78,
                    "time": 140.04672561666806,
                    "velocity": 0.5748031496062992,
                    "duration": 0.04871318333331942
                },
                {
                    "name": "A5",
                    "midi": 81,
                    "time": 140.09543880000138,
                    "velocity": 0.5905511811023622,
                    "duration": 0.04871318333331942
                },
                {
                    "name": "C#6",
                    "midi": 85,
                    "time": 140.1441519833347,
                    "velocity": 0.6062992125984252,
                    "duration": 0.04871318333331942
                },
                {
                    "name": "F#6",
                    "midi": 90,
                    "time": 140.192865166668,
                    "velocity": 0.6220472440944882,
                    "duration": 0.04871318333331942
                },
                {
                    "name": "A6",
                    "midi": 93,
                    "time": 140.24065923333467,
                    "velocity": 0.6377952755905512,
                    "duration": 0.0533087666666745
                },
                {
                    "name": "G#6",
                    "midi": 92,
                    "time": 140.29396800000134,
                    "velocity": 0.7244094488188977,
                    "duration": 0.11029400000001033
                },
                {
                    "name": "C#6",
                    "midi": 85,
                    "time": 140.29396800000134,
                    "velocity": 0.7244094488188977,
                    "duration": 0.11029400000001033
                },
                {
                    "name": "C#7",
                    "midi": 97,
                    "time": 140.29396800000134,
                    "velocity": 0.7559055118110236,
                    "duration": 0.11029400000001033
                },
                {
                    "name": "D#4",
                    "midi": 63,
                    "time": 141.17632000000134,
                    "velocity": 0.4015748031496063,
                    "duration": 0.055147000000005164
                },
                {
                    "name": "B3",
                    "midi": 59,
                    "time": 141.17632000000134,
                    "velocity": 0.33070866141732286,
                    "duration": 0.055147000000005164
                },
                {
                    "name": "G#4",
                    "midi": 68,
                    "time": 141.23146700000135,
                    "velocity": 0.33070866141732286,
                    "duration": 0.055147000000005164
                },
                {
                    "name": "B3",
                    "midi": 59,
                    "time": 141.28661400000135,
                    "velocity": 0.2992125984251969,
                    "duration": 0.055147000000005164
                },
                {
                    "name": "D#4",
                    "midi": 63,
                    "time": 141.28661400000135,
                    "velocity": 0.3543307086614173,
                    "duration": 0.055147000000005164
                },
                {
                    "name": "G#4",
                    "midi": 68,
                    "time": 141.34176100000136,
                    "velocity": 0.33858267716535434,
                    "duration": 0.055147000000005164
                },
                {
                    "name": "B3",
                    "midi": 59,
                    "time": 141.39690800000136,
                    "velocity": 0.2992125984251969,
                    "duration": 0.055147000000005164
                },
                {
                    "name": "D#4",
                    "midi": 63,
                    "time": 141.39690800000136,
                    "velocity": 0.3543307086614173,
                    "duration": 0.055147000000005164
                },
                {
                    "name": "G#4",
                    "midi": 68,
                    "time": 141.45205500000137,
                    "velocity": 0.33858267716535434,
                    "duration": 0.055147000000005164
                },
                {
                    "name": "B3",
                    "midi": 59,
                    "time": 141.50720200000137,
                    "velocity": 0.2992125984251969,
                    "duration": 0.055147000000005164
                },
                {
                    "name": "D#4",
                    "midi": 63,
                    "time": 141.50720200000137,
                    "velocity": 0.3543307086614173,
                    "duration": 0.055147000000005164
                },
                {
                    "name": "G#4",
                    "midi": 68,
                    "time": 141.56234900000138,
                    "velocity": 0.33070866141732286,
                    "duration": 0.055147000000005164
                },
                {
                    "name": "B3",
                    "midi": 59,
                    "time": 141.61749600000138,
                    "velocity": 0.33070866141732286,
                    "duration": 0.055147000000005164
                },
                {
                    "name": "D#4",
                    "midi": 63,
                    "time": 141.61749600000138,
                    "velocity": 0.3858267716535433,
                    "duration": 0.055147000000005164
                },
                {
                    "name": "G#4",
                    "midi": 68,
                    "time": 141.6726430000014,
                    "velocity": 0.33070866141732286,
                    "duration": 0.055147000000005164
                },
                {
                    "name": "D#4",
                    "midi": 63,
                    "time": 141.7277900000014,
                    "velocity": 0.3543307086614173,
                    "duration": 0.055147000000005164
                },
                {
                    "name": "B3",
                    "midi": 59,
                    "time": 141.7277900000014,
                    "velocity": 0.2992125984251969,
                    "duration": 0.055147000000005164
                },
                {
                    "name": "G#4",
                    "midi": 68,
                    "time": 141.7829370000014,
                    "velocity": 0.3228346456692913,
                    "duration": 0.055147000000005164
                },
                {
                    "name": "B3",
                    "midi": 59,
                    "time": 141.8380840000014,
                    "velocity": 0.2992125984251969,
                    "duration": 0.055147000000005164
                },
                {
                    "name": "D#4",
                    "midi": 63,
                    "time": 141.8380840000014,
                    "velocity": 0.3543307086614173,
                    "duration": 0.055147000000005164
                },
                {
                    "name": "G#4",
                    "midi": 68,
                    "time": 141.8932310000014,
                    "velocity": 0.3228346456692913,
                    "duration": 0.055147000000005164
                },
                {
                    "name": "D#4",
                    "midi": 63,
                    "time": 141.9483780000014,
                    "velocity": 0.3543307086614173,
                    "duration": 0.055147000000005164
                },
                {
                    "name": "B3",
                    "midi": 59,
                    "time": 141.9483780000014,
                    "velocity": 0.2992125984251969,
                    "duration": 0.055147000000005164
                },
                {
                    "name": "G#4",
                    "midi": 68,
                    "time": 142.00352500000142,
                    "velocity": 0.31496062992125984,
                    "duration": 0.055147000000005164
                },
                {
                    "name": "E4",
                    "midi": 64,
                    "time": 142.05867200000142,
                    "velocity": 0.3779527559055118,
                    "duration": 0.055147000000005164
                },
                {
                    "name": "C#4",
                    "midi": 61,
                    "time": 142.05867200000142,
                    "velocity": 0.3228346456692913,
                    "duration": 0.055147000000005164
                },
                {
                    "name": "C#5",
                    "midi": 73,
                    "time": 142.11381900000143,
                    "velocity": 0.33070866141732286,
                    "duration": 0.055147000000005164
                },
                {
                    "name": "C#4",
                    "midi": 61,
                    "time": 142.16896600000143,
                    "velocity": 0.2992125984251969,
                    "duration": 0.055147000000005164
                },
                {
                    "name": "E4",
                    "midi": 64,
                    "time": 142.16896600000143,
                    "velocity": 0.3543307086614173,
                    "duration": 0.055147000000005164
                },
                {
                    "name": "C#5",
                    "midi": 73,
                    "time": 142.22411300000144,
                    "velocity": 0.33070866141732286,
                    "duration": 0.055147000000005164
                },
                {
                    "name": "E4",
                    "midi": 64,
                    "time": 142.27926000000144,
                    "velocity": 0.36220472440944884,
                    "duration": 0.055147000000005164
                },
                {
                    "name": "C#4",
                    "midi": 61,
                    "time": 142.27926000000144,
                    "velocity": 0.30708661417322836,
                    "duration": 0.055147000000005164
                },
                {
                    "name": "C#5",
                    "midi": 73,
                    "time": 142.33440700000145,
                    "velocity": 0.3228346456692913,
                    "duration": 0.055147000000005164
                },
                {
                    "name": "C#4",
                    "midi": 61,
                    "time": 142.38955400000145,
                    "velocity": 0.2992125984251969,
                    "duration": 0.055147000000005164
                },
                {
                    "name": "E4",
                    "midi": 64,
                    "time": 142.38955400000145,
                    "velocity": 0.3543307086614173,
                    "duration": 0.055147000000005164
                },
                {
                    "name": "C#5",
                    "midi": 73,
                    "time": 142.44470100000146,
                    "velocity": 0.33070866141732286,
                    "duration": 0.055147000000005164
                },
                {
                    "name": "E4",
                    "midi": 64,
                    "time": 142.49984800000146,
                    "velocity": 0.3543307086614173,
                    "duration": 0.055147000000005164
                },
                {
                    "name": "C#4",
                    "midi": 61,
                    "time": 142.49984800000146,
                    "velocity": 0.2992125984251969,
                    "duration": 0.055147000000005164
                },
                {
                    "name": "C#5",
                    "midi": 73,
                    "time": 142.55499500000147,
                    "velocity": 0.33070866141732286,
                    "duration": 0.055147000000005164
                },
                {
                    "name": "E4",
                    "midi": 64,
                    "time": 142.61014200000147,
                    "velocity": 0.3543307086614173,
                    "duration": 0.055147000000005164
                },
                {
                    "name": "C#4",
                    "midi": 61,
                    "time": 142.61014200000147,
                    "velocity": 0.2992125984251969,
                    "duration": 0.055147000000005164
                },
                {
                    "name": "C#5",
                    "midi": 73,
                    "time": 142.66528900000148,
                    "velocity": 0.33070866141732286,
                    "duration": 0.055147000000005164
                },
                {
                    "name": "C#4",
                    "midi": 61,
                    "time": 142.72043600000148,
                    "velocity": 0.2992125984251969,
                    "duration": 0.055147000000005164
                },
                {
                    "name": "E4",
                    "midi": 64,
                    "time": 142.72043600000148,
                    "velocity": 0.3543307086614173,
                    "duration": 0.055147000000005164
                },
                {
                    "name": "C#5",
                    "midi": 73,
                    "time": 142.7755830000015,
                    "velocity": 0.3228346456692913,
                    "duration": 0.055147000000005164
                },
                {
                    "name": "E4",
                    "midi": 64,
                    "time": 142.8307300000015,
                    "velocity": 0.3543307086614173,
                    "duration": 0.055147000000005164
                },
                {
                    "name": "C#4",
                    "midi": 61,
                    "time": 142.8307300000015,
                    "velocity": 0.2992125984251969,
                    "duration": 0.055147000000005164
                },
                {
                    "name": "C#5",
                    "midi": 73,
                    "time": 142.8858770000015,
                    "velocity": 0.33070866141732286,
                    "duration": 0.055147000000005164
                },
                {
                    "name": "B3",
                    "midi": 59,
                    "time": 142.9410240000015,
                    "velocity": 0.33070866141732286,
                    "duration": 0.055147000000005164
                },
                {
                    "name": "D#4",
                    "midi": 63,
                    "time": 142.9410240000015,
                    "velocity": 0.4015748031496063,
                    "duration": 0.055147000000005164
                },
                {
                    "name": "B4",
                    "midi": 71,
                    "time": 142.9961710000015,
                    "velocity": 0.33070866141732286,
                    "duration": 0.055147000000005164
                },
                {
                    "name": "D#4",
                    "midi": 63,
                    "time": 143.05131800000152,
                    "velocity": 0.3543307086614173,
                    "duration": 0.055147000000005164
                },
                {
                    "name": "B3",
                    "midi": 59,
                    "time": 143.05131800000152,
                    "velocity": 0.2992125984251969,
                    "duration": 0.055147000000005164
                },
                {
                    "name": "B4",
                    "midi": 71,
                    "time": 143.10646500000152,
                    "velocity": 0.3464566929133858,
                    "duration": 0.055147000000005164
                },
                {
                    "name": "D#4",
                    "midi": 63,
                    "time": 143.16161200000153,
                    "velocity": 0.36220472440944884,
                    "duration": 0.055147000000005164
                },
                {
                    "name": "B3",
                    "midi": 59,
                    "time": 143.16161200000153,
                    "velocity": 0.30708661417322836,
                    "duration": 0.055147000000005164
                },
                {
                    "name": "B4",
                    "midi": 71,
                    "time": 143.21675900000153,
                    "velocity": 0.3543307086614173,
                    "duration": 0.055147000000005164
                },
                {
                    "name": "B3",
                    "midi": 59,
                    "time": 143.27190600000154,
                    "velocity": 0.31496062992125984,
                    "duration": 0.055147000000005164
                },
                {
                    "name": "D#4",
                    "midi": 63,
                    "time": 143.27190600000154,
                    "velocity": 0.3779527559055118,
                    "duration": 0.055147000000005164
                },
                {
                    "name": "B4",
                    "midi": 71,
                    "time": 143.32705300000154,
                    "velocity": 0.3543307086614173,
                    "duration": 0.055147000000005164
                },
                {
                    "name": "C#4",
                    "midi": 61,
                    "time": 143.38220000000155,
                    "velocity": 0.4330708661417323,
                    "duration": 0.055147000000005164
                },
                {
                    "name": "A3",
                    "midi": 57,
                    "time": 143.38220000000155,
                    "velocity": 0.36220472440944884,
                    "duration": 0.055147000000005164
                },
                {
                    "name": "A4",
                    "midi": 69,
                    "time": 143.43734700000155,
                    "velocity": 0.36220472440944884,
                    "duration": 0.055147000000005164
                },
                {
                    "name": "A3",
                    "midi": 57,
                    "time": 143.49249400000156,
                    "velocity": 0.33070866141732286,
                    "duration": 0.055147000000005164
                },
                {
                    "name": "C#4",
                    "midi": 61,
                    "time": 143.49249400000156,
                    "velocity": 0.3858267716535433,
                    "duration": 0.055147000000005164
                },
                {
                    "name": "A4",
                    "midi": 69,
                    "time": 143.54764100000156,
                    "velocity": 0.3779527559055118,
                    "duration": 0.055147000000005164
                },
                {
                    "name": "A3",
                    "midi": 57,
                    "time": 143.60278800000157,
                    "velocity": 0.33858267716535434,
                    "duration": 0.055147000000005164
                },
                {
                    "name": "C#4",
                    "midi": 61,
                    "time": 143.60278800000157,
                    "velocity": 0.4015748031496063,
                    "duration": 0.055147000000005164
                },
                {
                    "name": "A4",
                    "midi": 69,
                    "time": 143.65793500000157,
                    "velocity": 0.3858267716535433,
                    "duration": 0.055147000000005164
                },
                {
                    "name": "A3",
                    "midi": 57,
                    "time": 143.71308200000158,
                    "velocity": 0.33858267716535434,
                    "duration": 0.055147000000005164
                },
                {
                    "name": "C#4",
                    "midi": 61,
                    "time": 143.71308200000158,
                    "velocity": 0.4015748031496063,
                    "duration": 0.055147000000005164
                },
                {
                    "name": "A4",
                    "midi": 69,
                    "time": 143.76822900000158,
                    "velocity": 0.3858267716535433,
                    "duration": 0.055147000000005164
                },
                {
                    "name": "G#3",
                    "midi": 56,
                    "time": 143.8233760000016,
                    "velocity": 0.3937007874015748,
                    "duration": 0.055147000000005164
                },
                {
                    "name": "B3",
                    "midi": 59,
                    "time": 143.8233760000016,
                    "velocity": 0.4645669291338583,
                    "duration": 0.055147000000005164
                },
                {
                    "name": "G#4",
                    "midi": 68,
                    "time": 143.8785230000016,
                    "velocity": 0.3937007874015748,
                    "duration": 0.055147000000005164
                },
                {
                    "name": "G#3",
                    "midi": 56,
                    "time": 143.9336700000016,
                    "velocity": 0.3543307086614173,
                    "duration": 0.055147000000005164
                },
                {
                    "name": "B3",
                    "midi": 59,
                    "time": 143.9336700000016,
                    "velocity": 0.4251968503937008,
                    "duration": 0.055147000000005164
                },
                {
                    "name": "G#4",
                    "midi": 68,
                    "time": 143.9888170000016,
                    "velocity": 0.4094488188976378,
                    "duration": 0.055147000000005164
                },
                {
                    "name": "B3",
                    "midi": 59,
                    "time": 144.0439640000016,
                    "velocity": 0.4251968503937008,
                    "duration": 0.055147000000005164
                },
                {
                    "name": "G#3",
                    "midi": 56,
                    "time": 144.0439640000016,
                    "velocity": 0.36220472440944884,
                    "duration": 0.055147000000005164
                },
                {
                    "name": "G#4",
                    "midi": 68,
                    "time": 144.0991110000016,
                    "velocity": 0.41732283464566927,
                    "duration": 0.055147000000005164
                },
                {
                    "name": "G#3",
                    "midi": 56,
                    "time": 144.15425800000162,
                    "velocity": 0.3700787401574803,
                    "duration": 0.055147000000005164
                },
                {
                    "name": "B3",
                    "midi": 59,
                    "time": 144.15425800000162,
                    "velocity": 0.4330708661417323,
                    "duration": 0.055147000000005164
                },
                {
                    "name": "G#4",
                    "midi": 68,
                    "time": 144.20940500000162,
                    "velocity": 0.41732283464566927,
                    "duration": 0.055147000000005164
                },
                {
                    "name": "C#4",
                    "midi": 61,
                    "time": 144.26455200000163,
                    "velocity": 0.4881889763779528,
                    "duration": 0.055147000000005164
                },
                {
                    "name": "A#3",
                    "midi": 58,
                    "time": 144.26455200000163,
                    "velocity": 0.41732283464566927,
                    "duration": 0.055147000000005164
                },
                {
                    "name": "G4",
                    "midi": 67,
                    "time": 144.31969900000163,
                    "velocity": 0.4251968503937008,
                    "duration": 0.055147000000005164
                },
                {
                    "name": "A#3",
                    "midi": 58,
                    "time": 144.37484600000164,
                    "velocity": 0.3779527559055118,
                    "duration": 0.055147000000005164
                },
                {
                    "name": "C#4",
                    "midi": 61,
                    "time": 144.37484600000164,
                    "velocity": 0.44881889763779526,
                    "duration": 0.055147000000005164
                },
                {
                    "name": "G4",
                    "midi": 67,
                    "time": 144.42999300000164,
                    "velocity": 0.4409448818897638,
                    "duration": 0.055147000000005164
                },
                {
                    "name": "A#3",
                    "midi": 58,
                    "time": 144.48514000000165,
                    "velocity": 0.3858267716535433,
                    "duration": 0.055147000000005164
                },
                {
                    "name": "C#4",
                    "midi": 61,
                    "time": 144.48514000000165,
                    "velocity": 0.4566929133858268,
                    "duration": 0.055147000000005164
                },
                {
                    "name": "G4",
                    "midi": 67,
                    "time": 144.54028700000165,
                    "velocity": 0.44881889763779526,
                    "duration": 0.055147000000005164
                },
                {
                    "name": "C#4",
                    "midi": 61,
                    "time": 144.59543400000166,
                    "velocity": 0.47244094488188976,
                    "duration": 0.055147000000005164
                },
                {
                    "name": "A#3",
                    "midi": 58,
                    "time": 144.59543400000166,
                    "velocity": 0.4015748031496063,
                    "duration": 0.055147000000005164
                },
                {
                    "name": "G4",
                    "midi": 67,
                    "time": 144.65058100000167,
                    "velocity": 0.44881889763779526,
                    "duration": 0.055147000000005164
                },
                {
                    "name": "G#3",
                    "midi": 56,
                    "time": 144.70572800000167,
                    "velocity": 0.5905511811023622,
                    "duration": 0.11029400000001033
                },
                {
                    "name": "G#4",
                    "midi": 68,
                    "time": 144.70572800000167,
                    "velocity": 0.7244094488188977,
                    "duration": 0.11029400000001033
                },
                {
                    "name": "B3",
                    "midi": 59,
                    "time": 144.70572800000167,
                    "velocity": 0.5905511811023622,
                    "duration": 0.11029400000001033
                },
                {
                    "name": "E4",
                    "midi": 64,
                    "time": 145.14690400000168,
                    "velocity": 0.6141732283464567,
                    "duration": 0.04871318333331942
                },
                {
                    "name": "G#4",
                    "midi": 68,
                    "time": 145.14690400000168,
                    "velocity": 0.6141732283464567,
                    "duration": 0.04871318333331942
                },
                {
                    "name": "C#5",
                    "midi": 73,
                    "time": 145.195617183335,
                    "velocity": 0.5275590551181102,
                    "duration": 0.04871318333331942
                },
                {
                    "name": "E5",
                    "midi": 76,
                    "time": 145.24433036666832,
                    "velocity": 0.5433070866141733,
                    "duration": 0.04871318333331942
                },
                {
                    "name": "G#5",
                    "midi": 80,
                    "time": 145.29304355000164,
                    "velocity": 0.5590551181102362,
                    "duration": 0.04871318333331942
                },
                {
                    "name": "C#6",
                    "midi": 85,
                    "time": 145.3408376166683,
                    "velocity": 0.5748031496062992,
                    "duration": 0.04871318333331942
                },
                {
                    "name": "E6",
                    "midi": 88,
                    "time": 145.38955080000162,
                    "velocity": 0.5905511811023622,
                    "duration": 0.04871318333331942
                },
                {
                    "name": "G#6",
                    "midi": 92,
                    "time": 145.43826398333493,
                    "velocity": 0.6062992125984252,
                    "duration": 0.04871318333331942
                },
                {
                    "name": "C#7",
                    "midi": 97,
                    "time": 145.48697716666825,
                    "velocity": 0.6220472440944882,
                    "duration": 0.04871318333331942
                },
                {
                    "name": "E7",
                    "midi": 100,
                    "time": 145.5347712333349,
                    "velocity": 0.6377952755905512,
                    "duration": 0.0533087666666745
                },
                {
                    "name": "G#6",
                    "midi": 92,
                    "time": 145.58808000000158,
                    "velocity": 0.7244094488188977,
                    "duration": 0.11029400000001033
                },
                {
                    "name": "G#7",
                    "midi": 104,
                    "time": 145.58808000000158,
                    "velocity": 0.7559055118110236,
                    "duration": 0.11029400000001033
                },
                {
                    "name": "D#7",
                    "midi": 99,
                    "time": 145.58808000000158,
                    "velocity": 0.7244094488188977,
                    "duration": 0.11029400000001033
                },
                {
                    "name": "G#5",
                    "midi": 80,
                    "time": 146.47043200000158,
                    "velocity": 0.7795275590551181,
                    "duration": 0.772057999999987
                },
                {
                    "name": "G#4",
                    "midi": 68,
                    "time": 146.47043200000158,
                    "velocity": 0.6535433070866141,
                    "duration": 0.772057999999987
                },
                {
                    "name": "A5",
                    "midi": 81,
                    "time": 147.24249000000157,
                    "velocity": 0.6062992125984252,
                    "duration": 0.055147000000005164
                },
                {
                    "name": "A4",
                    "midi": 69,
                    "time": 147.24249000000157,
                    "velocity": 0.5039370078740157,
                    "duration": 0.055147000000005164
                },
                {
                    "name": "B5",
                    "midi": 83,
                    "time": 147.29763700000157,
                    "velocity": 0.6062992125984252,
                    "duration": 0.055147000000005164
                },
                {
                    "name": "B4",
                    "midi": 71,
                    "time": 147.29763700000157,
                    "velocity": 0.5039370078740157,
                    "duration": 0.055147000000005164
                },
                {
                    "name": "E4",
                    "midi": 64,
                    "time": 147.35278400000158,
                    "velocity": 0.6141732283464567,
                    "duration": 0.6617640000000051
                },
                {
                    "name": "E5",
                    "midi": 76,
                    "time": 147.35278400000158,
                    "velocity": 0.7244094488188977,
                    "duration": 0.6617640000000051
                },
                {
                    "name": "D#4",
                    "midi": 63,
                    "time": 148.1248420000016,
                    "velocity": 0.5039370078740157,
                    "duration": 0.11029400000001033
                },
                {
                    "name": "D#5",
                    "midi": 75,
                    "time": 148.1248420000016,
                    "velocity": 0.6062992125984252,
                    "duration": 0.11029400000001033
                },
                {
                    "name": "F#4",
                    "midi": 66,
                    "time": 148.2351360000016,
                    "velocity": 0.5669291338582677,
                    "duration": 0.5147053333333247
                },
                {
                    "name": "F#5",
                    "midi": 78,
                    "time": 148.2351360000016,
                    "velocity": 0.6929133858267716,
                    "duration": 0.5147053333333247
                },
                {
                    "name": "E4",
                    "midi": 64,
                    "time": 148.74984133333493,
                    "velocity": 0.5039370078740157,
                    "duration": 0.07352933333334022
                },
                {
                    "name": "E5",
                    "midi": 76,
                    "time": 148.74984133333493,
                    "velocity": 0.6062992125984252,
                    "duration": 0.07352933333334022
                },
                {
                    "name": "F#4",
                    "midi": 66,
                    "time": 148.82337066666827,
                    "velocity": 0.5511811023622047,
                    "duration": 0.07352933333334022
                },
                {
                    "name": "F#5",
                    "midi": 78,
                    "time": 148.82337066666827,
                    "velocity": 0.6535433070866141,
                    "duration": 0.07352933333334022
                },
                {
                    "name": "G#5",
                    "midi": 80,
                    "time": 148.8969000000016,
                    "velocity": 0.6456692913385826,
                    "duration": 0.07352933333334022
                },
                {
                    "name": "G#4",
                    "midi": 68,
                    "time": 148.8969000000016,
                    "velocity": 0.5433070866141733,
                    "duration": 0.07352933333334022
                },
                {
                    "name": "F#5",
                    "midi": 78,
                    "time": 148.97042933333495,
                    "velocity": 0.6141732283464567,
                    "duration": 0.055147000000005164
                },
                {
                    "name": "F#4",
                    "midi": 66,
                    "time": 148.97042933333495,
                    "velocity": 0.5196850393700787,
                    "duration": 0.055147000000005164
                },
                {
                    "name": "E4",
                    "midi": 64,
                    "time": 149.08072333333496,
                    "velocity": 0.5196850393700787,
                    "duration": 0.02757349999998837
                },
                {
                    "name": "E5",
                    "midi": 76,
                    "time": 149.08072333333496,
                    "velocity": 0.6141732283464567,
                    "duration": 0.02757349999998837
                },
                {
                    "name": "E4",
                    "midi": 64,
                    "time": 149.1174880000016,
                    "velocity": 0.6062992125984252,
                    "duration": 0.6617640000000051
                },
                {
                    "name": "E5",
                    "midi": 76,
                    "time": 149.1174880000016,
                    "velocity": 0.7244094488188977,
                    "duration": 0.6617640000000051
                },
                {
                    "name": "G#4",
                    "midi": 68,
                    "time": 149.88954600000162,
                    "velocity": 0.5511811023622047,
                    "duration": 0.08272049999999354
                },
                {
                    "name": "E5",
                    "midi": 76,
                    "time": 149.88954600000162,
                    "velocity": 0.5511811023622047,
                    "duration": 0.08272049999999354
                },
                {
                    "name": "G#5",
                    "midi": 80,
                    "time": 149.88954600000162,
                    "velocity": 0.6535433070866141,
                    "duration": 0.08272049999999354
                },
                {
                    "name": "G#5",
                    "midi": 80,
                    "time": 149.9998400000016,
                    "velocity": 0.7244094488188977,
                    "duration": 0.4411760000000129
                },
                {
                    "name": "E5",
                    "midi": 76,
                    "time": 149.9998400000016,
                    "velocity": 0.6141732283464567,
                    "duration": 0.4411760000000129
                },
                {
                    "name": "G#4",
                    "midi": 68,
                    "time": 149.9998400000016,
                    "velocity": 0.6141732283464567,
                    "duration": 0.4411760000000129
                },
                {
                    "name": "G#4",
                    "midi": 68,
                    "time": 150.4410160000016,
                    "velocity": 0.5354330708661418,
                    "duration": 0.14705866666668044
                },
                {
                    "name": "G#5",
                    "midi": 80,
                    "time": 150.4410160000016,
                    "velocity": 0.6299212598425197,
                    "duration": 0.14705866666668044
                },
                {
                    "name": "A5",
                    "midi": 81,
                    "time": 150.5880746666683,
                    "velocity": 0.6456692913385826,
                    "duration": 0.14705866666668044
                },
                {
                    "name": "A4",
                    "midi": 69,
                    "time": 150.5880746666683,
                    "velocity": 0.5433070866141733,
                    "duration": 0.14705866666668044
                },
                {
                    "name": "B5",
                    "midi": 83,
                    "time": 150.73513333333497,
                    "velocity": 0.6929133858267716,
                    "duration": 0.14705866666668044
                },
                {
                    "name": "B4",
                    "midi": 71,
                    "time": 150.73513333333497,
                    "velocity": 0.5826771653543307,
                    "duration": 0.14705866666668044
                },
                {
                    "name": "C#5",
                    "midi": 73,
                    "time": 150.88219200000165,
                    "velocity": 0.5196850393700787,
                    "duration": 0.4411760000000129
                },
                {
                    "name": "C#6",
                    "midi": 85,
                    "time": 150.88219200000165,
                    "velocity": 0.7244094488188977,
                    "duration": 0.4411760000000129
                },
                {
                    "name": "C#4",
                    "midi": 61,
                    "time": 151.32336800000166,
                    "velocity": 0.5905511811023622,
                    "duration": 0.14705866666668044
                },
                {
                    "name": "E4",
                    "midi": 64,
                    "time": 151.32336800000166,
                    "velocity": 0.5905511811023622,
                    "duration": 0.14705866666668044
                },
                {
                    "name": "C#5",
                    "midi": 73,
                    "time": 151.32336800000166,
                    "velocity": 0.7086614173228346,
                    "duration": 0.14705866666668044
                },
                {
                    "name": "B4",
                    "midi": 71,
                    "time": 151.47042666666835,
                    "velocity": 0.6614173228346457,
                    "duration": 0.14705866666668044
                },
                {
                    "name": "B3",
                    "midi": 59,
                    "time": 151.47042666666835,
                    "velocity": 0.5590551181102362,
                    "duration": 0.14705866666668044
                },
                {
                    "name": "E4",
                    "midi": 64,
                    "time": 151.47042666666835,
                    "velocity": 0.5590551181102362,
                    "duration": 0.14705866666668044
                },
                {
                    "name": "E4",
                    "midi": 64,
                    "time": 151.61748533333503,
                    "velocity": 0.5275590551181102,
                    "duration": 0.14705866666668044
                },
                {
                    "name": "A#4",
                    "midi": 70,
                    "time": 151.61748533333503,
                    "velocity": 0.6220472440944882,
                    "duration": 0.14705866666668044
                },
                {
                    "name": "A#3",
                    "midi": 58,
                    "time": 151.61748533333503,
                    "velocity": 0.5275590551181102,
                    "duration": 0.14705866666668044
                },
                {
                    "name": "B3",
                    "midi": 59,
                    "time": 151.7645440000017,
                    "velocity": 0.6141732283464567,
                    "duration": 0.4411760000000129
                },
                {
                    "name": "E4",
                    "midi": 64,
                    "time": 151.7645440000017,
                    "velocity": 0.6141732283464567,
                    "duration": 0.4411760000000129
                },
                {
                    "name": "B4",
                    "midi": 71,
                    "time": 151.7645440000017,
                    "velocity": 0.7244094488188977,
                    "duration": 0.4411760000000129
                },
                {
                    "name": "E4",
                    "midi": 64,
                    "time": 152.20572000000172,
                    "velocity": 0.6062992125984252,
                    "duration": 0.33088200000000256
                },
                {
                    "name": "G#3",
                    "midi": 56,
                    "time": 152.20572000000172,
                    "velocity": 0.6062992125984252,
                    "duration": 0.4411760000000129
                },
                {
                    "name": "E3",
                    "midi": 52,
                    "time": 152.20572000000172,
                    "velocity": 0.6062992125984252,
                    "duration": 0.33088200000000256
                },
                {
                    "name": "D#4",
                    "midi": 63,
                    "time": 152.53660200000172,
                    "velocity": 0.6062992125984252,
                    "duration": 0.11029400000001033
                },
                {
                    "name": "D#3",
                    "midi": 51,
                    "time": 152.53660200000172,
                    "velocity": 0.6062992125984252,
                    "duration": 0.11029400000001033
                },
                {
                    "name": "D#4",
                    "midi": 63,
                    "time": 152.64689600000173,
                    "velocity": 0.6929133858267716,
                    "duration": 0.5147053333333247
                },
                {
                    "name": "D#3",
                    "midi": 51,
                    "time": 152.64689600000173,
                    "velocity": 0.5669291338582677,
                    "duration": 0.5147053333333247
                },
                {
                    "name": "A3",
                    "midi": 57,
                    "time": 152.64689600000173,
                    "velocity": 0.5669291338582677,
                    "duration": 0.5147053333333247
                },
                {
                    "name": "E4",
                    "midi": 64,
                    "time": 153.1551675166684,
                    "velocity": 0.6062992125984252,
                    "duration": 0.0735293333333118
                },
                {
                    "name": "E3",
                    "midi": 52,
                    "time": 153.1551675166684,
                    "velocity": 0.5039370078740157,
                    "duration": 0.0735293333333118
                },
                {
                    "name": "F#3",
                    "midi": 54,
                    "time": 153.2286968500017,
                    "velocity": 0.5511811023622047,
                    "duration": 0.07352933333334022
                },
                {
                    "name": "F#4",
                    "midi": 66,
                    "time": 153.2286968500017,
                    "velocity": 0.6535433070866141,
                    "duration": 0.07352933333334022
                },
                {
                    "name": "G#4",
                    "midi": 68,
                    "time": 153.30222618333505,
                    "velocity": 0.6456692913385826,
                    "duration": 0.07352933333334022
                },
                {
                    "name": "G#3",
                    "midi": 56,
                    "time": 153.30222618333505,
                    "velocity": 0.5433070866141733,
                    "duration": 0.07352933333334022
                },
                {
                    "name": "F#4",
                    "midi": 66,
                    "time": 153.3757555166684,
                    "velocity": 0.6141732283464567,
                    "duration": 0.055147000000005164
                },
                {
                    "name": "F#3",
                    "midi": 54,
                    "time": 153.3757555166684,
                    "velocity": 0.5196850393700787,
                    "duration": 0.055147000000005164
                },
                {
                    "name": "E3",
                    "midi": 52,
                    "time": 153.4860495166684,
                    "velocity": 0.5196850393700787,
                    "duration": 0.03676466666667011
                },
                {
                    "name": "E4",
                    "midi": 64,
                    "time": 153.4860495166684,
                    "velocity": 0.6141732283464567,
                    "duration": 0.03676466666667011
                },
                {
                    "name": "E4",
                    "midi": 64,
                    "time": 153.52924800000173,
                    "velocity": 0.5590551181102362,
                    "duration": 0.07352933333334022
                },
                {
                    "name": "E3",
                    "midi": 52,
                    "time": 153.52924800000173,
                    "velocity": 0.5590551181102362,
                    "duration": 0.07352933333334022
                },
                {
                    "name": "G#3",
                    "midi": 56,
                    "time": 153.60277733333507,
                    "velocity": 0.5669291338582677,
                    "duration": 0.07352933333334022
                },
                {
                    "name": "B3",
                    "midi": 59,
                    "time": 153.6763066666684,
                    "velocity": 0.5748031496062992,
                    "duration": 0.07352933333334022
                },
                {
                    "name": "E4",
                    "midi": 64,
                    "time": 153.74983600000175,
                    "velocity": 0.5826771653543307,
                    "duration": 0.07352933333334022
                },
                {
                    "name": "G#4",
                    "midi": 68,
                    "time": 153.8233653333351,
                    "velocity": 0.5905511811023622,
                    "duration": 0.07352933333334022
                },
                {
                    "name": "B4",
                    "midi": 71,
                    "time": 153.89689466666843,
                    "velocity": 0.5905511811023622,
                    "duration": 0.07352933333334022
                },
                {
                    "name": "E5",
                    "midi": 76,
                    "time": 153.97042400000177,
                    "velocity": 0.6062992125984252,
                    "duration": 0.07352933333334022
                },
                {
                    "name": "G#5",
                    "midi": 80,
                    "time": 154.0439533333351,
                    "velocity": 0.6141732283464567,
                    "duration": 0.07352933333334022
                },
                {
                    "name": "B5",
                    "midi": 83,
                    "time": 154.11748266666845,
                    "velocity": 0.6220472440944882,
                    "duration": 0.07352933333334022
                },
                {
                    "name": "E6",
                    "midi": 88,
                    "time": 154.1910120000018,
                    "velocity": 0.6299212598425197,
                    "duration": 0.07352933333334022
                },
                {
                    "name": "G#6",
                    "midi": 92,
                    "time": 154.26454133333513,
                    "velocity": 0.6377952755905512,
                    "duration": 0.07352933333334022
                },
                {
                    "name": "B6",
                    "midi": 95,
                    "time": 154.33807066666847,
                    "velocity": 0.6456692913385826,
                    "duration": 0.07352933333334022
                },
                {
                    "name": "G#6",
                    "midi": 92,
                    "time": 154.4116000000018,
                    "velocity": 0.7322834645669292,
                    "duration": 0.11029400000001033
                },
                {
                    "name": "E6",
                    "midi": 88,
                    "time": 154.4116000000018,
                    "velocity": 0.7322834645669292,
                    "duration": 0.11029400000001033
                },
                {
                    "name": "E7",
                    "midi": 100,
                    "time": 154.4116000000018,
                    "velocity": 0.7322834645669292,
                    "duration": 0.11029400000001033
                },
                {
                    "name": "G#5",
                    "midi": 80,
                    "time": 155.2939520000018,
                    "velocity": 0.6771653543307087,
                    "duration": 0.772057999999987
                },
                {
                    "name": "E6",
                    "midi": 88,
                    "time": 155.2939520000018,
                    "velocity": 0.8110236220472441,
                    "duration": 0.772057999999987
                },
                {
                    "name": "E5",
                    "midi": 76,
                    "time": 155.2939520000018,
                    "velocity": 0.6771653543307087,
                    "duration": 0.772057999999987
                },
                {
                    "name": "C#6",
                    "midi": 85,
                    "time": 155.2939520000018,
                    "velocity": 0.6771653543307087,
                    "duration": 0.772057999999987
                },
                {
                    "name": "F#6",
                    "midi": 90,
                    "time": 156.0660100000018,
                    "velocity": 0.6299212598425197,
                    "duration": 0.055147000000005164
                },
                {
                    "name": "F#5",
                    "midi": 78,
                    "time": 156.0660100000018,
                    "velocity": 0.5275590551181102,
                    "duration": 0.055147000000005164
                },
                {
                    "name": "G#5",
                    "midi": 80,
                    "time": 156.1211570000018,
                    "velocity": 0.5275590551181102,
                    "duration": 0.055147000000005164
                },
                {
                    "name": "G#6",
                    "midi": 92,
                    "time": 156.1211570000018,
                    "velocity": 0.6299212598425197,
                    "duration": 0.055147000000005164
                },
                {
                    "name": "C#6",
                    "midi": 85,
                    "time": 156.1763040000018,
                    "velocity": 0.7559055118110236,
                    "duration": 0.772057999999987
                },
                {
                    "name": "C#5",
                    "midi": 73,
                    "time": 156.1763040000018,
                    "velocity": 0.6377952755905512,
                    "duration": 0.772057999999987
                },
                {
                    "name": "C6",
                    "midi": 84,
                    "time": 156.9483620000018,
                    "velocity": 0.6299212598425197,
                    "duration": 0.11029400000001033
                },
                {
                    "name": "C5",
                    "midi": 72,
                    "time": 156.9483620000018,
                    "velocity": 0.5275590551181102,
                    "duration": 0.11029400000001033
                },
                {
                    "name": "D#5",
                    "midi": 75,
                    "time": 157.0586560000018,
                    "velocity": 0.5905511811023622,
                    "duration": 0.5147053333333247
                },
                {
                    "name": "D#6",
                    "midi": 87,
                    "time": 157.0586560000018,
                    "velocity": 0.7244094488188977,
                    "duration": 0.5147053333333247
                },
                {
                    "name": "C#5",
                    "midi": 73,
                    "time": 157.57336133333513,
                    "velocity": 0.5275590551181102,
                    "duration": 0.07352933333334022
                },
                {
                    "name": "C#6",
                    "midi": 85,
                    "time": 157.57336133333513,
                    "velocity": 0.6299212598425197,
                    "duration": 0.07352933333334022
                },
                {
                    "name": "D#5",
                    "midi": 75,
                    "time": 157.64689066666847,
                    "velocity": 0.5748031496062992,
                    "duration": 0.07352933333334022
                },
                {
                    "name": "D#6",
                    "midi": 87,
                    "time": 157.64689066666847,
                    "velocity": 0.6771653543307087,
                    "duration": 0.07352933333334022
                },
                {
                    "name": "E6",
                    "midi": 88,
                    "time": 157.7204200000018,
                    "velocity": 0.6692913385826772,
                    "duration": 0.07352933333334022
                },
                {
                    "name": "E5",
                    "midi": 76,
                    "time": 157.7204200000018,
                    "velocity": 0.5669291338582677,
                    "duration": 0.07352933333334022
                },
                {
                    "name": "D#6",
                    "midi": 87,
                    "time": 157.79394933333515,
                    "velocity": 0.6377952755905512,
                    "duration": 0.055147000000005164
                },
                {
                    "name": "D#5",
                    "midi": 75,
                    "time": 157.79394933333515,
                    "velocity": 0.5433070866141733,
                    "duration": 0.055147000000005164
                },
                {
                    "name": "C#5",
                    "midi": 73,
                    "time": 157.90424333333516,
                    "velocity": 0.5433070866141733,
                    "duration": 0.02757349999998837
                },
                {
                    "name": "C#6",
                    "midi": 85,
                    "time": 157.90424333333516,
                    "velocity": 0.6377952755905512,
                    "duration": 0.02757349999998837
                },
                {
                    "name": "C#5",
                    "midi": 73,
                    "time": 157.9410080000018,
                    "velocity": 0.6299212598425197,
                    "duration": 0.6617640000000051
                },
                {
                    "name": "C#6",
                    "midi": 85,
                    "time": 157.9410080000018,
                    "velocity": 0.7559055118110236,
                    "duration": 0.6617640000000051
                },
                {
                    "name": "C#6",
                    "midi": 85,
                    "time": 159.65056500000182,
                    "velocity": 0.6299212598425197,
                    "duration": 0.055147000000005164
                },
                {
                    "name": "C#5",
                    "midi": 73,
                    "time": 159.65056500000182,
                    "velocity": 0.5354330708661418,
                    "duration": 0.055147000000005164
                },
                {
                    "name": "A5",
                    "midi": 81,
                    "time": 159.65056500000182,
                    "velocity": 0.5354330708661418,
                    "duration": 0.055147000000005164
                },
                {
                    "name": "A5",
                    "midi": 81,
                    "time": 159.70571200000182,
                    "velocity": 0.5826771653543307,
                    "duration": 0.16544099999998707
                },
                {
                    "name": "C#6",
                    "midi": 85,
                    "time": 159.70571200000182,
                    "velocity": 0.7007874015748031,
                    "duration": 0.16544099999998707
                },
                {
                    "name": "C#5",
                    "midi": 73,
                    "time": 159.70571200000182,
                    "velocity": 0.5826771653543307,
                    "duration": 0.16544099999998707
                },
                {
                    "name": "B4",
                    "midi": 71,
                    "time": 159.8711530000018,
                    "velocity": 0.5275590551181102,
                    "duration": 0.055147000000005164
                },
                {
                    "name": "G#5",
                    "midi": 80,
                    "time": 159.8711530000018,
                    "velocity": 0.5275590551181102,
                    "duration": 0.055147000000005164
                },
                {
                    "name": "B5",
                    "midi": 83,
                    "time": 159.8711530000018,
                    "velocity": 0.6220472440944882,
                    "duration": 0.055147000000005164
                },
                {
                    "name": "G#5",
                    "midi": 80,
                    "time": 159.92630000000182,
                    "velocity": 0.5748031496062992,
                    "duration": 0.16544099999998707
                },
                {
                    "name": "B5",
                    "midi": 83,
                    "time": 159.92630000000182,
                    "velocity": 0.6771653543307087,
                    "duration": 0.16544099999998707
                },
                {
                    "name": "B4",
                    "midi": 71,
                    "time": 159.92630000000182,
                    "velocity": 0.5748031496062992,
                    "duration": 0.16544099999998707
                },
                {
                    "name": "A5",
                    "midi": 81,
                    "time": 160.0917410000018,
                    "velocity": 0.6220472440944882,
                    "duration": 0.055147000000005164
                },
                {
                    "name": "A4",
                    "midi": 69,
                    "time": 160.0917410000018,
                    "velocity": 0.5275590551181102,
                    "duration": 0.055147000000005164
                },
                {
                    "name": "F#5",
                    "midi": 78,
                    "time": 160.0917410000018,
                    "velocity": 0.5275590551181102,
                    "duration": 0.055147000000005164
                },
                {
                    "name": "A5",
                    "midi": 81,
                    "time": 160.1468880000018,
                    "velocity": 0.6771653543307087,
                    "duration": 0.22058799999999223
                },
                {
                    "name": "A4",
                    "midi": 69,
                    "time": 160.1468880000018,
                    "velocity": 0.5748031496062992,
                    "duration": 0.22058799999999223
                },
                {
                    "name": "F#5",
                    "midi": 78,
                    "time": 160.1468880000018,
                    "velocity": 0.5748031496062992,
                    "duration": 0.22058799999999223
                },
                {
                    "name": "C#4",
                    "midi": 61,
                    "time": 160.5329170000018,
                    "velocity": 0.6456692913385826,
                    "duration": 0.055147000000005164
                },
                {
                    "name": "D4",
                    "midi": 62,
                    "time": 160.5880640000018,
                    "velocity": 0.7244094488188977,
                    "duration": 0.6617640000000051
                },
                {
                    "name": "F#5",
                    "midi": 78,
                    "time": 161.41526900000179,
                    "velocity": 0.5354330708661418,
                    "duration": 0.04136024999999677
                },
                {
                    "name": "A5",
                    "midi": 81,
                    "time": 161.41526900000179,
                    "velocity": 0.5354330708661418,
                    "duration": 0.04136024999999677
                },
                {
                    "name": "F#6",
                    "midi": 90,
                    "time": 161.41526900000179,
                    "velocity": 0.6299212598425197,
                    "duration": 0.04136024999999677
                },
                {
                    "name": "F#6",
                    "midi": 90,
                    "time": 161.4704160000018,
                    "velocity": 0.7007874015748031,
                    "duration": 0.16544099999998707
                },
                {
                    "name": "A5",
                    "midi": 81,
                    "time": 161.4704160000018,
                    "velocity": 0.5826771653543307,
                    "duration": 0.16544099999998707
                },
                {
                    "name": "F#5",
                    "midi": 78,
                    "time": 161.4704160000018,
                    "velocity": 0.5826771653543307,
                    "duration": 0.16544099999998707
                },
                {
                    "name": "E5",
                    "midi": 76,
                    "time": 161.63585700000178,
                    "velocity": 0.5275590551181102,
                    "duration": 0.04136024999999677
                },
                {
                    "name": "E6",
                    "midi": 88,
                    "time": 161.63585700000178,
                    "velocity": 0.6220472440944882,
                    "duration": 0.04136024999999677
                },
                {
                    "name": "G#5",
                    "midi": 80,
                    "time": 161.63585700000178,
                    "velocity": 0.5275590551181102,
                    "duration": 0.04136024999999677
                },
                {
                    "name": "E5",
                    "midi": 76,
                    "time": 161.69100400000178,
                    "velocity": 0.5748031496062992,
                    "duration": 0.16544099999998707
                },
                {
                    "name": "E6",
                    "midi": 88,
                    "time": 161.69100400000178,
                    "velocity": 0.6771653543307087,
                    "duration": 0.16544099999998707
                },
                {
                    "name": "G#5",
                    "midi": 80,
                    "time": 161.69100400000178,
                    "velocity": 0.5748031496062992,
                    "duration": 0.16544099999998707
                },
                {
                    "name": "F#5",
                    "midi": 78,
                    "time": 161.85644500000177,
                    "velocity": 0.5275590551181102,
                    "duration": 0.04136024999999677
                },
                {
                    "name": "D5",
                    "midi": 74,
                    "time": 161.85644500000177,
                    "velocity": 0.5275590551181102,
                    "duration": 0.04136024999999677
                },
                {
                    "name": "D6",
                    "midi": 86,
                    "time": 161.85644500000177,
                    "velocity": 0.6220472440944882,
                    "duration": 0.04136024999999677
                },
                {
                    "name": "D5",
                    "midi": 74,
                    "time": 161.91159200000178,
                    "velocity": 0.5748031496062992,
                    "duration": 0.22058799999999223
                },
                {
                    "name": "F#5",
                    "midi": 78,
                    "time": 161.91159200000178,
                    "velocity": 0.5748031496062992,
                    "duration": 0.22058799999999223
                },
                {
                    "name": "D6",
                    "midi": 86,
                    "time": 161.91159200000178,
                    "velocity": 0.6771653543307087,
                    "duration": 0.22058799999999223
                },
                {
                    "name": "A#3",
                    "midi": 58,
                    "time": 162.29762100000175,
                    "velocity": 0.6456692913385826,
                    "duration": 0.055147000000005164
                },
                {
                    "name": "B3",
                    "midi": 59,
                    "time": 162.35276800000176,
                    "velocity": 0.7244094488188977,
                    "duration": 0.4411760000000129
                },
                {
                    "name": "F#6",
                    "midi": 90,
                    "time": 162.73879700000177,
                    "velocity": 0.5354330708661418,
                    "duration": 0.04136024999999677
                },
                {
                    "name": "A6",
                    "midi": 93,
                    "time": 162.73879700000177,
                    "velocity": 0.6299212598425197,
                    "duration": 0.04136024999999677
                },
                {
                    "name": "C#6",
                    "midi": 85,
                    "time": 162.73879700000177,
                    "velocity": 0.5354330708661418,
                    "duration": 0.04136024999999677
                },
                {
                    "name": "A6",
                    "midi": 93,
                    "time": 162.79394400000177,
                    "velocity": 0.7007874015748031,
                    "duration": 0.16544099999998707
                },
                {
                    "name": "C#6",
                    "midi": 85,
                    "time": 162.79394400000177,
                    "velocity": 0.5826771653543307,
                    "duration": 0.16544099999998707
                },
                {
                    "name": "F#6",
                    "midi": 90,
                    "time": 162.79394400000177,
                    "velocity": 0.5826771653543307,
                    "duration": 0.16544099999998707
                },
                {
                    "name": "G#6",
                    "midi": 92,
                    "time": 162.95938500000176,
                    "velocity": 0.6220472440944882,
                    "duration": 0.04136024999999677
                },
                {
                    "name": "G#5",
                    "midi": 80,
                    "time": 162.95938500000176,
                    "velocity": 0.5275590551181102,
                    "duration": 0.04136024999999677
                },
                {
                    "name": "E6",
                    "midi": 88,
                    "time": 162.95938500000176,
                    "velocity": 0.5275590551181102,
                    "duration": 0.04136024999999677
                },
                {
                    "name": "E6",
                    "midi": 88,
                    "time": 163.01453200000176,
                    "velocity": 0.5748031496062992,
                    "duration": 0.16544099999998707
                },
                {
                    "name": "G#6",
                    "midi": 92,
                    "time": 163.01453200000176,
                    "velocity": 0.6771653543307087,
                    "duration": 0.16544099999998707
                },
                {
                    "name": "G#5",
                    "midi": 80,
                    "time": 163.01453200000176,
                    "velocity": 0.5748031496062992,
                    "duration": 0.16544099999998707
                },
                {
                    "name": "F#5",
                    "midi": 78,
                    "time": 163.17997300000175,
                    "velocity": 0.5275590551181102,
                    "duration": 0.055147000000005164
                },
                {
                    "name": "D#6",
                    "midi": 87,
                    "time": 163.17997300000175,
                    "velocity": 0.5275590551181102,
                    "duration": 0.055147000000005164
                },
                {
                    "name": "F#6",
                    "midi": 90,
                    "time": 163.17997300000175,
                    "velocity": 0.6220472440944882,
                    "duration": 0.055147000000005164
                },
                {
                    "name": "C4",
                    "midi": 60,
                    "time": 163.23512000000176,
                    "velocity": 0.7244094488188977,
                    "duration": 0.4411760000000129
                },
                {
                    "name": "F#6",
                    "midi": 90,
                    "time": 163.62114900000176,
                    "velocity": 0.5354330708661418,
                    "duration": 0.04136024999999677
                },
                {
                    "name": "A6",
                    "midi": 93,
                    "time": 163.62114900000176,
                    "velocity": 0.6299212598425197,
                    "duration": 0.04136024999999677
                },
                {
                    "name": "C#6",
                    "midi": 85,
                    "time": 163.62114900000176,
                    "velocity": 0.5354330708661418,
                    "duration": 0.04136024999999677
                },
                {
                    "name": "A6",
                    "midi": 93,
                    "time": 163.67629600000177,
                    "velocity": 0.7007874015748031,
                    "duration": 0.16544099999998707
                },
                {
                    "name": "C#6",
                    "midi": 85,
                    "time": 163.67629600000177,
                    "velocity": 0.5826771653543307,
                    "duration": 0.16544099999998707
                },
                {
                    "name": "F#6",
                    "midi": 90,
                    "time": 163.67629600000177,
                    "velocity": 0.5826771653543307,
                    "duration": 0.16544099999998707
                },
                {
                    "name": "E6",
                    "midi": 88,
                    "time": 163.84173700000176,
                    "velocity": 0.5275590551181102,
                    "duration": 0.04136024999999677
                },
                {
                    "name": "G#6",
                    "midi": 92,
                    "time": 163.84173700000176,
                    "velocity": 0.6220472440944882,
                    "duration": 0.04136024999999677
                },
                {
                    "name": "G#5",
                    "midi": 80,
                    "time": 163.84173700000176,
                    "velocity": 0.5275590551181102,
                    "duration": 0.04136024999999677
                },
                {
                    "name": "G#5",
                    "midi": 80,
                    "time": 163.89688400000176,
                    "velocity": 0.5748031496062992,
                    "duration": 0.16544099999998707
                },
                {
                    "name": "E6",
                    "midi": 88,
                    "time": 163.89688400000176,
                    "velocity": 0.5748031496062992,
                    "duration": 0.16544099999998707
                },
                {
                    "name": "G#6",
                    "midi": 92,
                    "time": 163.89688400000176,
                    "velocity": 0.6771653543307087,
                    "duration": 0.16544099999998707
                },
                {
                    "name": "F#6",
                    "midi": 90,
                    "time": 164.06232500000175,
                    "velocity": 0.6220472440944882,
                    "duration": 0.055147000000005164
                },
                {
                    "name": "F#5",
                    "midi": 78,
                    "time": 164.06232500000175,
                    "velocity": 0.5275590551181102,
                    "duration": 0.055147000000005164
                },
                {
                    "name": "D#6",
                    "midi": 87,
                    "time": 164.06232500000175,
                    "velocity": 0.5275590551181102,
                    "duration": 0.055147000000005164
                },
                {
                    "name": "G3",
                    "midi": 55,
                    "time": 164.11747200000175,
                    "velocity": 0.7952755905511811,
                    "duration": 0.4411760000000129
                },
                {
                    "name": "E6",
                    "midi": 88,
                    "time": 164.50350100000176,
                    "velocity": 0.44881889763779526,
                    "duration": 0.04136024999999677
                },
                {
                    "name": "E7",
                    "midi": 100,
                    "time": 164.50350100000176,
                    "velocity": 0.6299212598425197,
                    "duration": 0.04136024999999677
                },
                {
                    "name": "G6",
                    "midi": 91,
                    "time": 164.50350100000176,
                    "velocity": 0.44881889763779526,
                    "duration": 0.04136024999999677
                },
                {
                    "name": "E7",
                    "midi": 100,
                    "time": 164.55864800000177,
                    "velocity": 0.7007874015748031,
                    "duration": 0.16544099999998707
                },
                {
                    "name": "E6",
                    "midi": 88,
                    "time": 164.55864800000177,
                    "velocity": 0.5826771653543307,
                    "duration": 0.16544099999998707
                },
                {
                    "name": "G6",
                    "midi": 91,
                    "time": 164.55864800000177,
                    "velocity": 0.5826771653543307,
                    "duration": 0.16544099999998707
                },
                {
                    "name": "F#6",
                    "midi": 90,
                    "time": 164.72408900000175,
                    "velocity": 0.4409448818897638,
                    "duration": 0.04136024999999677
                },
                {
                    "name": "D#7",
                    "midi": 99,
                    "time": 164.72408900000175,
                    "velocity": 0.6220472440944882,
                    "duration": 0.04136024999999677
                },
                {
                    "name": "D#6",
                    "midi": 87,
                    "time": 164.72408900000175,
                    "velocity": 0.4409448818897638,
                    "duration": 0.04136024999999677
                },
                {
                    "name": "D#6",
                    "midi": 87,
                    "time": 164.77923600000176,
                    "velocity": 0.5826771653543307,
                    "duration": 0.16544099999998707
                },
                {
                    "name": "F#6",
                    "midi": 90,
                    "time": 164.77923600000176,
                    "velocity": 0.5826771653543307,
                    "duration": 0.16544099999998707
                },
                {
                    "name": "D#7",
                    "midi": 99,
                    "time": 164.77923600000176,
                    "velocity": 0.7007874015748031,
                    "duration": 0.16544099999998707
                },
                {
                    "name": "C#7",
                    "midi": 97,
                    "time": 164.94467700000175,
                    "velocity": 0.6535433070866141,
                    "duration": 0.04136024999999677
                },
                {
                    "name": "E6",
                    "midi": 88,
                    "time": 164.94467700000175,
                    "velocity": 0.5511811023622047,
                    "duration": 0.04136024999999677
                },
                {
                    "name": "C#6",
                    "midi": 85,
                    "time": 164.94467700000175,
                    "velocity": 0.5511811023622047,
                    "duration": 0.04136024999999677
                },
                {
                    "name": "C#7",
                    "midi": 97,
                    "time": 164.99982400000175,
                    "velocity": 0.7086614173228346,
                    "duration": 0.16544099999998707
                },
                {
                    "name": "C#6",
                    "midi": 85,
                    "time": 164.99982400000175,
                    "velocity": 0.5905511811023622,
                    "duration": 0.16544099999998707
                },
                {
                    "name": "E6",
                    "midi": 88,
                    "time": 164.99982400000175,
                    "velocity": 0.5905511811023622,
                    "duration": 0.16544099999998707
                },
                {
                    "name": "A#6",
                    "midi": 94,
                    "time": 165.16526500000174,
                    "velocity": 0.6220472440944882,
                    "duration": 0.04136024999999677
                },
                {
                    "name": "A#5",
                    "midi": 82,
                    "time": 165.16526500000174,
                    "velocity": 0.5275590551181102,
                    "duration": 0.04136024999999677
                },
                {
                    "name": "C#6",
                    "midi": 85,
                    "time": 165.16526500000174,
                    "velocity": 0.5275590551181102,
                    "duration": 0.04136024999999677
                },
                {
                    "name": "A#5",
                    "midi": 82,
                    "time": 165.22041200000174,
                    "velocity": 0.5826771653543307,
                    "duration": 0.16544099999998707
                },
                {
                    "name": "C#6",
                    "midi": 85,
                    "time": 165.22041200000174,
                    "velocity": 0.5826771653543307,
                    "duration": 0.16544099999998707
                },
                {
                    "name": "A#6",
                    "midi": 94,
                    "time": 165.22041200000174,
                    "velocity": 0.6929133858267716,
                    "duration": 0.16544099999998707
                },
                {
                    "name": "C6",
                    "midi": 84,
                    "time": 165.38585300000173,
                    "velocity": 0.5275590551181102,
                    "duration": 0.04136024999999677
                },
                {
                    "name": "A5",
                    "midi": 81,
                    "time": 165.38585300000173,
                    "velocity": 0.5275590551181102,
                    "duration": 0.04136024999999677
                },
                {
                    "name": "A6",
                    "midi": 93,
                    "time": 165.38585300000173,
                    "velocity": 0.6220472440944882,
                    "duration": 0.04136024999999677
                },
                {
                    "name": "A5",
                    "midi": 81,
                    "time": 165.44100000000174,
                    "velocity": 0.5826771653543307,
                    "duration": 0.16544099999998707
                },
                {
                    "name": "C6",
                    "midi": 84,
                    "time": 165.44100000000174,
                    "velocity": 0.5826771653543307,
                    "duration": 0.16544099999998707
                },
                {
                    "name": "A6",
                    "midi": 93,
                    "time": 165.44100000000174,
                    "velocity": 0.6929133858267716,
                    "duration": 0.16544099999998707
                },
                {
                    "name": "A#5",
                    "midi": 82,
                    "time": 165.60644100000172,
                    "velocity": 0.5275590551181102,
                    "duration": 0.04136024999999677
                },
                {
                    "name": "G6",
                    "midi": 91,
                    "time": 165.60644100000172,
                    "velocity": 0.6220472440944882,
                    "duration": 0.04136024999999677
                },
                {
                    "name": "G5",
                    "midi": 79,
                    "time": 165.60644100000172,
                    "velocity": 0.5275590551181102,
                    "duration": 0.04136024999999677
                },
                {
                    "name": "G6",
                    "midi": 91,
                    "time": 165.66158800000173,
                    "velocity": 0.6771653543307087,
                    "duration": 0.16544099999998707
                },
                {
                    "name": "G5",
                    "midi": 79,
                    "time": 165.66158800000173,
                    "velocity": 0.5748031496062992,
                    "duration": 0.16544099999998707
                },
                {
                    "name": "A#5",
                    "midi": 82,
                    "time": 165.66158800000173,
                    "velocity": 0.5748031496062992,
                    "duration": 0.16544099999998707
                },
                {
                    "name": "E6",
                    "midi": 88,
                    "time": 165.82702900000172,
                    "velocity": 0.6377952755905512,
                    "duration": 0.04136024999999677
                },
                {
                    "name": "G5",
                    "midi": 79,
                    "time": 165.82702900000172,
                    "velocity": 0.5354330708661418,
                    "duration": 0.04136024999999677
                },
                {
                    "name": "E5",
                    "midi": 76,
                    "time": 165.82702900000172,
                    "velocity": 0.5354330708661418,
                    "duration": 0.04136024999999677
                },
                {
                    "name": "G5",
                    "midi": 79,
                    "time": 165.88217600000172,
                    "velocity": 0.5826771653543307,
                    "duration": 0.16544099999998707
                },
                {
                    "name": "E6",
                    "midi": 88,
                    "time": 165.88217600000172,
                    "velocity": 0.6929133858267716,
                    "duration": 0.16544099999998707
                },
                {
                    "name": "E5",
                    "midi": 76,
                    "time": 165.88217600000172,
                    "velocity": 0.5826771653543307,
                    "duration": 0.16544099999998707
                },
                {
                    "name": "D#5",
                    "midi": 75,
                    "time": 166.0476170000017,
                    "velocity": 0.5354330708661418,
                    "duration": 0.04136024999999677
                },
                {
                    "name": "F#5",
                    "midi": 78,
                    "time": 166.0476170000017,
                    "velocity": 0.5354330708661418,
                    "duration": 0.04136024999999677
                },
                {
                    "name": "D#6",
                    "midi": 87,
                    "time": 166.0476170000017,
                    "velocity": 0.6299212598425197,
                    "duration": 0.04136024999999677
                },
                {
                    "name": "F#5",
                    "midi": 78,
                    "time": 166.1027640000017,
                    "velocity": 0.5826771653543307,
                    "duration": 0.16544099999998707
                },
                {
                    "name": "D#6",
                    "midi": 87,
                    "time": 166.1027640000017,
                    "velocity": 0.6929133858267716,
                    "duration": 0.16544099999998707
                },
                {
                    "name": "D#5",
                    "midi": 75,
                    "time": 166.1027640000017,
                    "velocity": 0.5826771653543307,
                    "duration": 0.16544099999998707
                },
                {
                    "name": "C#6",
                    "midi": 85,
                    "time": 166.2682050000017,
                    "velocity": 0.6220472440944882,
                    "duration": 0.04136024999999677
                },
                {
                    "name": "C#5",
                    "midi": 73,
                    "time": 166.2682050000017,
                    "velocity": 0.4409448818897638,
                    "duration": 0.04136024999999677
                },
                {
                    "name": "E5",
                    "midi": 76,
                    "time": 166.2682050000017,
                    "velocity": 0.4409448818897638,
                    "duration": 0.04136024999999677
                },
                {
                    "name": "C#6",
                    "midi": 85,
                    "time": 166.3233520000017,
                    "velocity": 0.6929133858267716,
                    "duration": 0.16544099999998707
                },
                {
                    "name": "C#5",
                    "midi": 73,
                    "time": 166.3233520000017,
                    "velocity": 0.5826771653543307,
                    "duration": 0.16544099999998707
                },
                {
                    "name": "E5",
                    "midi": 76,
                    "time": 166.3233520000017,
                    "velocity": 0.5826771653543307,
                    "duration": 0.16544099999998707
                },
                {
                    "name": "C#5",
                    "midi": 73,
                    "time": 166.4887930000017,
                    "velocity": 0.5354330708661418,
                    "duration": 0.04136024999999677
                },
                {
                    "name": "A#5",
                    "midi": 82,
                    "time": 166.4887930000017,
                    "velocity": 0.6377952755905512,
                    "duration": 0.04136024999999677
                },
                {
                    "name": "A#4",
                    "midi": 70,
                    "time": 166.4887930000017,
                    "velocity": 0.5354330708661418,
                    "duration": 0.04136024999999677
                },
                {
                    "name": "A#4",
                    "midi": 70,
                    "time": 166.5439400000017,
                    "velocity": 0.5905511811023622,
                    "duration": 0.16544099999998707
                },
                {
                    "name": "C#5",
                    "midi": 73,
                    "time": 166.5439400000017,
                    "velocity": 0.5905511811023622,
                    "duration": 0.16544099999998707
                },
                {
                    "name": "A#5",
                    "midi": 82,
                    "time": 166.5439400000017,
                    "velocity": 0.7086614173228346,
                    "duration": 0.16544099999998707
                },
                {
                    "name": "C5",
                    "midi": 72,
                    "time": 166.70938100000168,
                    "velocity": 0.5354330708661418,
                    "duration": 0.04136024999999677
                },
                {
                    "name": "A5",
                    "midi": 81,
                    "time": 166.70938100000168,
                    "velocity": 0.6377952755905512,
                    "duration": 0.04136024999999677
                },
                {
                    "name": "A4",
                    "midi": 69,
                    "time": 166.70938100000168,
                    "velocity": 0.5354330708661418,
                    "duration": 0.04136024999999677
                },
                {
                    "name": "A5",
                    "midi": 81,
                    "time": 166.7645280000017,
                    "velocity": 0.7007874015748031,
                    "duration": 0.16544099999998707
                },
                {
                    "name": "A4",
                    "midi": 69,
                    "time": 166.7645280000017,
                    "velocity": 0.5826771653543307,
                    "duration": 0.16544099999998707
                },
                {
                    "name": "C5",
                    "midi": 72,
                    "time": 166.7645280000017,
                    "velocity": 0.5826771653543307,
                    "duration": 0.16544099999998707
                },
                {
                    "name": "G5",
                    "midi": 79,
                    "time": 166.92996900000168,
                    "velocity": 0.6220472440944882,
                    "duration": 0.04136024999999677
                },
                {
                    "name": "G4",
                    "midi": 67,
                    "time": 166.92996900000168,
                    "velocity": 0.5275590551181102,
                    "duration": 0.04136024999999677
                },
                {
                    "name": "A#4",
                    "midi": 70,
                    "time": 166.92996900000168,
                    "velocity": 0.5275590551181102,
                    "duration": 0.04136024999999677
                },
                {
                    "name": "A#4",
                    "midi": 70,
                    "time": 166.98511600000168,
                    "velocity": 0.5826771653543307,
                    "duration": 0.16544099999998707
                },
                {
                    "name": "G5",
                    "midi": 79,
                    "time": 166.98511600000168,
                    "velocity": 0.6929133858267716,
                    "duration": 0.16544099999998707
                },
                {
                    "name": "G4",
                    "midi": 67,
                    "time": 166.98511600000168,
                    "velocity": 0.5826771653543307,
                    "duration": 0.16544099999998707
                },
                {
                    "name": "G4",
                    "midi": 67,
                    "time": 167.15055700000167,
                    "velocity": 0.5354330708661418,
                    "duration": 0.04136024999999677
                },
                {
                    "name": "E4",
                    "midi": 64,
                    "time": 167.15055700000167,
                    "velocity": 0.5354330708661418,
                    "duration": 0.04136024999999677
                },
                {
                    "name": "E5",
                    "midi": 76,
                    "time": 167.15055700000167,
                    "velocity": 0.6299212598425197,
                    "duration": 0.04136024999999677
                },
                {
                    "name": "G4",
                    "midi": 67,
                    "time": 167.20570400000167,
                    "velocity": 0.5826771653543307,
                    "duration": 0.16544099999998707
                },
                {
                    "name": "E5",
                    "midi": 76,
                    "time": 167.20570400000167,
                    "velocity": 0.6929133858267716,
                    "duration": 0.16544099999998707
                },
                {
                    "name": "E4",
                    "midi": 64,
                    "time": 167.20570400000167,
                    "velocity": 0.5826771653543307,
                    "duration": 0.16544099999998707
                },
                {
                    "name": "D#5",
                    "midi": 75,
                    "time": 167.37114500000166,
                    "velocity": 0.6220472440944882,
                    "duration": 0.04136024999999677
                },
                {
                    "name": "D#4",
                    "midi": 63,
                    "time": 167.37114500000166,
                    "velocity": 0.4409448818897638,
                    "duration": 0.04136024999999677
                },
                {
                    "name": "F#4",
                    "midi": 66,
                    "time": 167.37114500000166,
                    "velocity": 0.4409448818897638,
                    "duration": 0.04136024999999677
                },
                {
                    "name": "D#5",
                    "midi": 75,
                    "time": 167.42629200000167,
                    "velocity": 0.7401574803149606,
                    "duration": 0.16544099999998707
                },
                {
                    "name": "F#4",
                    "midi": 66,
                    "time": 167.42629200000167,
                    "velocity": 0.6299212598425197,
                    "duration": 0.16544099999998707
                },
                {
                    "name": "D#4",
                    "midi": 63,
                    "time": 167.42629200000167,
                    "velocity": 0.6299212598425197,
                    "duration": 0.16544099999998707
                },
                {
                    "name": "C#4",
                    "midi": 61,
                    "time": 167.59173300000165,
                    "velocity": 0.4409448818897638,
                    "duration": 0.04136024999999677
                },
                {
                    "name": "E4",
                    "midi": 64,
                    "time": 167.59173300000165,
                    "velocity": 0.4409448818897638,
                    "duration": 0.04136024999999677
                },
                {
                    "name": "C#5",
                    "midi": 73,
                    "time": 167.59173300000165,
                    "velocity": 0.6220472440944882,
                    "duration": 0.04136024999999677
                },
                {
                    "name": "C#4",
                    "midi": 61,
                    "time": 167.64688000000166,
                    "velocity": 0.6377952755905512,
                    "duration": 0.16544099999998707
                },
                {
                    "name": "E4",
                    "midi": 64,
                    "time": 167.64688000000166,
                    "velocity": 0.6377952755905512,
                    "duration": 0.16544099999998707
                },
                {
                    "name": "C#5",
                    "midi": 73,
                    "time": 167.64688000000166,
                    "velocity": 0.7559055118110236,
                    "duration": 0.16544099999998707
                },
                {
                    "name": "E4",
                    "midi": 64,
                    "time": 168.03290900000164,
                    "velocity": 0.6535433070866141,
                    "duration": 0.055147000000005164
                },
                {
                    "name": "E3",
                    "midi": 52,
                    "time": 168.03290900000164,
                    "velocity": 0.5511811023622047,
                    "duration": 0.055147000000005164
                },
                {
                    "name": "A#3",
                    "midi": 58,
                    "time": 168.03290900000164,
                    "velocity": 0.5511811023622047,
                    "duration": 0.055147000000005164
                },
                {
                    "name": "E3",
                    "midi": 52,
                    "time": 168.08805600000164,
                    "velocity": 0.6220472440944882,
                    "duration": 0.11029400000001033
                },
                {
                    "name": "E4",
                    "midi": 64,
                    "time": 168.08805600000164,
                    "velocity": 0.7322834645669292,
                    "duration": 0.11029400000001033
                },
                {
                    "name": "G#3",
                    "midi": 56,
                    "time": 168.08805600000164,
                    "velocity": 0.6220472440944882,
                    "duration": 0.11029400000001033
                },
                {
                    "name": "D#4",
                    "midi": 63,
                    "time": 168.41893800000165,
                    "velocity": 0.6614173228346457,
                    "duration": 0.11029400000001033
                },
                {
                    "name": "G#3",
                    "midi": 56,
                    "time": 168.41893800000165,
                    "velocity": 0.5590551181102362,
                    "duration": 0.11029400000001033
                },
                {
                    "name": "D#3",
                    "midi": 51,
                    "time": 168.41893800000165,
                    "velocity": 0.5590551181102362,
                    "duration": 0.11029400000001033
                },
                {
                    "name": "G#3",
                    "midi": 56,
                    "time": 168.52923200000166,
                    "velocity": 0.6220472440944882,
                    "duration": 0.11029400000001033
                },
                {
                    "name": "D#4",
                    "midi": 63,
                    "time": 168.52923200000166,
                    "velocity": 0.7322834645669292,
                    "duration": 0.11029400000001033
                },
                {
                    "name": "D#3",
                    "midi": 51,
                    "time": 168.52923200000166,
                    "velocity": 0.6220472440944882,
                    "duration": 0.11029400000001033
                },
                {
                    "name": "C#3",
                    "midi": 49,
                    "time": 168.86011400000166,
                    "velocity": 0.5669291338582677,
                    "duration": 0.11029400000001033
                },
                {
                    "name": "G#3",
                    "midi": 56,
                    "time": 168.86011400000166,
                    "velocity": 0.5669291338582677,
                    "duration": 0.11029400000001033
                },
                {
                    "name": "C#4",
                    "midi": 61,
                    "time": 168.86011400000166,
                    "velocity": 0.6692913385826772,
                    "duration": 0.11029400000001033
                },
                {
                    "name": "G#4",
                    "midi": 68,
                    "time": 168.97040800000167,
                    "velocity": 0.7559055118110236,
                    "duration": 0.4411760000000129
                },
                {
                    "name": "G#3",
                    "midi": 56,
                    "time": 168.97040800000167,
                    "velocity": 0.6377952755905512,
                    "duration": 0.4411760000000129
                },
                {
                    "name": "C4",
                    "midi": 60,
                    "time": 168.97040800000167,
                    "velocity": 0.6377952755905512,
                    "duration": 0.4411760000000129
                },
                {
                    "name": "C3",
                    "midi": 48,
                    "time": 169.41158400000168,
                    "velocity": 0.6062992125984252,
                    "duration": 0.33088200000000256
                },
                {
                    "name": "C4",
                    "midi": 60,
                    "time": 169.41158400000168,
                    "velocity": 0.7165354330708661,
                    "duration": 0.33088200000000256
                },
                {
                    "name": "G#3",
                    "midi": 56,
                    "time": 169.41158400000168,
                    "velocity": 0.6062992125984252,
                    "duration": 0.33088200000000256
                },
                {
                    "name": "E4",
                    "midi": 64,
                    "time": 169.83437766666836,
                    "velocity": 0.4881889763779528,
                    "duration": 0.4595583333332911
                },
                {
                    "name": "G#4",
                    "midi": 68,
                    "time": 169.843568833335,
                    "velocity": 0.4881889763779528,
                    "duration": 0.4503671666666378
                },
                {
                    "name": "E5",
                    "midi": 76,
                    "time": 169.85276000000167,
                    "velocity": 0.6535433070866141,
                    "duration": 0.33088200000000256
                },
                {
                    "name": "D#5",
                    "midi": 75,
                    "time": 170.18364200000167,
                    "velocity": 0.5905511811023622,
                    "duration": 0.03676466666667011
                },
                {
                    "name": "D#5",
                    "midi": 75,
                    "time": 170.23878900000167,
                    "velocity": 0.5275590551181102,
                    "duration": 0.02757349999998837
                },
                {
                    "name": "E5",
                    "midi": 76,
                    "time": 170.26636250000166,
                    "velocity": 0.5669291338582677,
                    "duration": 0.02757349999998837
                },
                {
                    "name": "G#4",
                    "midi": 68,
                    "time": 170.29393600000165,
                    "velocity": 0.48031496062992124,
                    "duration": 0.4411760000000129
                },
                {
                    "name": "E4",
                    "midi": 64,
                    "time": 170.29393600000165,
                    "velocity": 0.48031496062992124,
                    "duration": 0.4411760000000129
                },
                {
                    "name": "D#5",
                    "midi": 75,
                    "time": 170.29393600000165,
                    "velocity": 0.6299212598425197,
                    "duration": 0.11029400000001033
                },
                {
                    "name": "C#5",
                    "midi": 73,
                    "time": 170.51452400000167,
                    "velocity": 0.6062992125984252,
                    "duration": 0.055147000000005164
                },
                {
                    "name": "F#4",
                    "midi": 66,
                    "time": 170.73051641666834,
                    "velocity": 0.49606299212598426,
                    "duration": 0.4457715833333111
                },
                {
                    "name": "C5",
                    "midi": 72,
                    "time": 170.739707583335,
                    "velocity": 0.5275590551181102,
                    "duration": 0.4365804166666578
                },
                {
                    "name": "G#5",
                    "midi": 80,
                    "time": 170.74889875000164,
                    "velocity": 0.6456692913385826,
                    "duration": 0.4273892500000045
                },
                {
                    "name": "C5",
                    "midi": 72,
                    "time": 171.17628800000165,
                    "velocity": 0.6062992125984252,
                    "duration": 0.22058799999999223
                },
                {
                    "name": "E6",
                    "midi": 88,
                    "time": 171.61746400000163,
                    "velocity": 0.5984251968503937,
                    "duration": 0.33088200000000256
                },
                {
                    "name": "E5",
                    "midi": 76,
                    "time": 171.61746400000163,
                    "velocity": 0.4251968503937008,
                    "duration": 0.4411760000000129
                },
                {
                    "name": "G#5",
                    "midi": 80,
                    "time": 171.61746400000163,
                    "velocity": 0.4251968503937008,
                    "duration": 0.4411760000000129
                },
                {
                    "name": "D#6",
                    "midi": 87,
                    "time": 171.94834600000164,
                    "velocity": 0.5433070866141733,
                    "duration": 0.055147000000005164
                },
                {
                    "name": "C#6",
                    "midi": 85,
                    "time": 172.00349300000164,
                    "velocity": 0.49606299212598426,
                    "duration": 0.018382333333335055
                },
                {
                    "name": "D#6",
                    "midi": 87,
                    "time": 172.02187533333498,
                    "velocity": 0.4645669291338583,
                    "duration": 0.018382333333335055
                },
                {
                    "name": "E6",
                    "midi": 88,
                    "time": 172.0402576666683,
                    "velocity": 0.49606299212598426,
                    "duration": 0.018382333333335055
                },
                {
                    "name": "E5",
                    "midi": 76,
                    "time": 172.05864000000165,
                    "velocity": 0.4015748031496063,
                    "duration": 0.4411760000000413
                },
                {
                    "name": "G#5",
                    "midi": 80,
                    "time": 172.05864000000165,
                    "velocity": 0.4015748031496063,
                    "duration": 0.4411760000000413
                },
                {
                    "name": "D#6",
                    "midi": 87,
                    "time": 172.05864000000165,
                    "velocity": 0.5748031496062992,
                    "duration": 0.11029400000001033
                },
                {
                    "name": "C#6",
                    "midi": 85,
                    "time": 172.27922800000167,
                    "velocity": 0.5196850393700787,
                    "duration": 0.11029400000001033
                },
                {
                    "name": "G#5",
                    "midi": 80,
                    "time": 172.4998160000017,
                    "velocity": 0.4251968503937008,
                    "duration": 0.22058799999999223
                },
                {
                    "name": "D#6",
                    "midi": 87,
                    "time": 172.4998160000017,
                    "velocity": 0.5905511811023622,
                    "duration": 0.22058799999999223
                },
                {
                    "name": "D#5",
                    "midi": 75,
                    "time": 172.4998160000017,
                    "velocity": 0.4251968503937008,
                    "duration": 0.22058799999999223
                },
                {
                    "name": "G#5",
                    "midi": 80,
                    "time": 172.8306980000017,
                    "velocity": 0.49606299212598426,
                    "duration": 0.11029400000001033
                },
                {
                    "name": "G#6",
                    "midi": 92,
                    "time": 172.9409920000017,
                    "velocity": 0.5905511811023622,
                    "duration": 0.22058799999999223
                },
                {
                    "name": "G#5",
                    "midi": 80,
                    "time": 172.9409920000017,
                    "velocity": 0.4251968503937008,
                    "duration": 0.22058799999999223
                },
                {
                    "name": "G#5",
                    "midi": 80,
                    "time": 173.2718740000017,
                    "velocity": 0.5354330708661418,
                    "duration": 0.11029400000001033
                },
                {
                    "name": "G#5",
                    "midi": 80,
                    "time": 173.3821680000017,
                    "velocity": 0.4251968503937008,
                    "duration": 0.4411760000000129
                },
                {
                    "name": "E6",
                    "midi": 88,
                    "time": 173.3821680000017,
                    "velocity": 0.5984251968503937,
                    "duration": 0.33088200000000256
                },
                {
                    "name": "E5",
                    "midi": 76,
                    "time": 173.3821680000017,
                    "velocity": 0.4251968503937008,
                    "duration": 0.4411760000000129
                },
                {
                    "name": "D#6",
                    "midi": 87,
                    "time": 173.71305000000172,
                    "velocity": 0.5433070866141733,
                    "duration": 0.055147000000005164
                },
                {
                    "name": "C#6",
                    "midi": 85,
                    "time": 173.76819700000172,
                    "velocity": 0.4645669291338583,
                    "duration": 0.018382333333335055
                },
                {
                    "name": "D#6",
                    "midi": 87,
                    "time": 173.78657933333506,
                    "velocity": 0.4645669291338583,
                    "duration": 0.018382333333335055
                },
                {
                    "name": "E6",
                    "midi": 88,
                    "time": 173.8049616666684,
                    "velocity": 0.49606299212598426,
                    "duration": 0.018382333333335055
                },
                {
                    "name": "D#6",
                    "midi": 87,
                    "time": 173.82334400000173,
                    "velocity": 0.5748031496062992,
                    "duration": 0.11029400000001033
                },
                {
                    "name": "E5",
                    "midi": 76,
                    "time": 173.82334400000173,
                    "velocity": 0.4015748031496063,
                    "duration": 0.4411760000000413
                },
                {
                    "name": "G#5",
                    "midi": 80,
                    "time": 173.82334400000173,
                    "velocity": 0.4015748031496063,
                    "duration": 0.4411760000000413
                },
                {
                    "name": "C#6",
                    "midi": 85,
                    "time": 174.04393200000175,
                    "velocity": 0.5196850393700787,
                    "duration": 0.11029400000001033
                },
                {
                    "name": "D#5",
                    "midi": 75,
                    "time": 174.26452000000177,
                    "velocity": 0.4251968503937008,
                    "duration": 0.22058799999999223
                },
                {
                    "name": "D#6",
                    "midi": 87,
                    "time": 174.26452000000177,
                    "velocity": 0.5905511811023622,
                    "duration": 0.22058799999999223
                },
                {
                    "name": "G#5",
                    "midi": 80,
                    "time": 174.26452000000177,
                    "velocity": 0.4251968503937008,
                    "duration": 0.22058799999999223
                },
                {
                    "name": "G#5",
                    "midi": 80,
                    "time": 174.59540200000177,
                    "velocity": 0.49606299212598426,
                    "duration": 0.11029400000001033
                },
                {
                    "name": "G#6",
                    "midi": 92,
                    "time": 174.70569600000178,
                    "velocity": 0.5905511811023622,
                    "duration": 0.22058799999999223
                },
                {
                    "name": "G#5",
                    "midi": 80,
                    "time": 175.03657800000178,
                    "velocity": 0.5039370078740157,
                    "duration": 0.11029400000001033
                },
                {
                    "name": "D#6",
                    "midi": 87,
                    "time": 175.1468720000018,
                    "velocity": 0.5354330708661418,
                    "duration": 0.11029400000001033
                },
                {
                    "name": "G#5",
                    "midi": 80,
                    "time": 175.2571660000018,
                    "velocity": 0.48031496062992124,
                    "duration": 0.11029400000001033
                },
                {
                    "name": "G#6",
                    "midi": 92,
                    "time": 175.3674600000018,
                    "velocity": 0.5196850393700787,
                    "duration": 0.11029400000001033
                },
                {
                    "name": "G#5",
                    "midi": 80,
                    "time": 175.47775400000182,
                    "velocity": 0.47244094488188976,
                    "duration": 0.11029400000001033
                },
                {
                    "name": "D#6",
                    "midi": 87,
                    "time": 175.58804800000183,
                    "velocity": 0.5118110236220472,
                    "duration": 0.11029400000001033
                },
                {
                    "name": "G#5",
                    "midi": 80,
                    "time": 175.69834200000184,
                    "velocity": 0.44881889763779526,
                    "duration": 0.11029400000001033
                },
                {
                    "name": "G#6",
                    "midi": 92,
                    "time": 175.80863600000185,
                    "velocity": 0.49606299212598426,
                    "duration": 0.11029400000001033
                },
                {
                    "name": "G#5",
                    "midi": 80,
                    "time": 175.91893000000186,
                    "velocity": 0.44881889763779526,
                    "duration": 0.11029400000001033
                },
                {
                    "name": "D#6",
                    "midi": 87,
                    "time": 176.02922400000188,
                    "velocity": 0.4881889763779528,
                    "duration": 0.07352933333334022
                },
                {
                    "name": "G#5",
                    "midi": 80,
                    "time": 176.10275333333522,
                    "velocity": 0.44881889763779526,
                    "duration": 0.07352933333334022
                },
                {
                    "name": "G#6",
                    "midi": 92,
                    "time": 176.17628266666856,
                    "velocity": 0.48031496062992124,
                    "duration": 0.07352933333334022
                },
                {
                    "name": "G#5",
                    "midi": 80,
                    "time": 176.2498120000019,
                    "velocity": 0.4409448818897638,
                    "duration": 0.07444845000000555
                },
                {
                    "name": "D#6",
                    "midi": 87,
                    "time": 176.32334133333524,
                    "velocity": 0.4645669291338583,
                    "duration": 0.07352933333334022
                },
                {
                    "name": "G#5",
                    "midi": 80,
                    "time": 176.39687066666858,
                    "velocity": 0.41732283464566927,
                    "duration": 0.07352933333334022
                },
                {
                    "name": "G#6",
                    "midi": 92,
                    "time": 176.47040000000192,
                    "velocity": 0.4566929133858268,
                    "duration": 0.07352933333334022
                },
                {
                    "name": "G#5",
                    "midi": 80,
                    "time": 176.54392933333526,
                    "velocity": 0.3937007874015748,
                    "duration": 0.07352933333334022
                },
                {
                    "name": "D#6",
                    "midi": 87,
                    "time": 176.6174586666686,
                    "velocity": 0.44881889763779526,
                    "duration": 0.07352933333334022
                },
                {
                    "name": "G#5",
                    "midi": 80,
                    "time": 176.69098800000194,
                    "velocity": 0.3779527559055118,
                    "duration": 0.07352933333334022
                },
                {
                    "name": "G#6",
                    "midi": 92,
                    "time": 176.76451733333528,
                    "velocity": 0.4645669291338583,
                    "duration": 0.07352933333334022
                },
                {
                    "name": "G#5",
                    "midi": 80,
                    "time": 176.83804666666862,
                    "velocity": 0.3937007874015748,
                    "duration": 0.07352933333334022
                },
                {
                    "name": "D#6",
                    "midi": 87,
                    "time": 176.91157600000196,
                    "velocity": 0.44881889763779526,
                    "duration": 0.055147000000005164
                },
                {
                    "name": "G#5",
                    "midi": 80,
                    "time": 176.96672300000196,
                    "velocity": 0.4015748031496063,
                    "duration": 0.055147000000005164
                },
                {
                    "name": "G#6",
                    "midi": 92,
                    "time": 177.02187000000197,
                    "velocity": 0.44881889763779526,
                    "duration": 0.055147000000005164
                },
                {
                    "name": "G#5",
                    "midi": 80,
                    "time": 177.07701700000197,
                    "velocity": 0.4015748031496063,
                    "duration": 0.055147000000005164
                },
                {
                    "name": "D#6",
                    "midi": 87,
                    "time": 177.13216400000198,
                    "velocity": 0.4330708661417323,
                    "duration": 0.055147000000005164
                },
                {
                    "name": "G#5",
                    "midi": 80,
                    "time": 177.18731100000198,
                    "velocity": 0.4015748031496063,
                    "duration": 0.055147000000005164
                },
                {
                    "name": "G#6",
                    "midi": 92,
                    "time": 177.242458000002,
                    "velocity": 0.4251968503937008,
                    "duration": 0.055147000000005164
                },
                {
                    "name": "G#5",
                    "midi": 80,
                    "time": 177.297605000002,
                    "velocity": 0.3858267716535433,
                    "duration": 0.055147000000005164
                },
                {
                    "name": "D#6",
                    "midi": 87,
                    "time": 177.352752000002,
                    "velocity": 0.41732283464566927,
                    "duration": 0.055147000000005164
                },
                {
                    "name": "G#5",
                    "midi": 80,
                    "time": 177.407899000002,
                    "velocity": 0.3700787401574803,
                    "duration": 0.055147000000005164
                },
                {
                    "name": "G#6",
                    "midi": 92,
                    "time": 177.463046000002,
                    "velocity": 0.4094488188976378,
                    "duration": 0.055147000000005164
                },
                {
                    "name": "G#5",
                    "midi": 80,
                    "time": 177.51819300000201,
                    "velocity": 0.3700787401574803,
                    "duration": 0.055147000000005164
                },
                {
                    "name": "D#6",
                    "midi": 87,
                    "time": 177.57334000000202,
                    "velocity": 0.4015748031496063,
                    "duration": 0.055147000000005164
                },
                {
                    "name": "G#5",
                    "midi": 80,
                    "time": 177.62848700000202,
                    "velocity": 0.3700787401574803,
                    "duration": 0.055147000000005164
                },
                {
                    "name": "G#6",
                    "midi": 92,
                    "time": 177.68363400000203,
                    "velocity": 0.3937007874015748,
                    "duration": 0.055147000000005164
                },
                {
                    "name": "G#5",
                    "midi": 80,
                    "time": 177.73878100000204,
                    "velocity": 0.3543307086614173,
                    "duration": 0.055147000000005164
                },
                {
                    "name": "D#6",
                    "midi": 87,
                    "time": 177.79392800000204,
                    "velocity": 0.3779527559055118,
                    "duration": 0.055147000000005164
                },
                {
                    "name": "G#5",
                    "midi": 80,
                    "time": 177.84907500000205,
                    "velocity": 0.33858267716535434,
                    "duration": 0.055147000000005164
                },
                {
                    "name": "G#6",
                    "midi": 92,
                    "time": 177.90422200000205,
                    "velocity": 0.3700787401574803,
                    "duration": 0.055147000000005164
                },
                {
                    "name": "G#5",
                    "midi": 80,
                    "time": 177.95936900000206,
                    "velocity": 0.33858267716535434,
                    "duration": 0.055147000000005164
                },
                {
                    "name": "D#6",
                    "midi": 87,
                    "time": 178.01451600000206,
                    "velocity": 0.36220472440944884,
                    "duration": 0.055147000000005164
                },
                {
                    "name": "G#5",
                    "midi": 80,
                    "time": 178.06966300000207,
                    "velocity": 0.33070866141732286,
                    "duration": 0.055147000000005164
                },
                {
                    "name": "G#6",
                    "midi": 92,
                    "time": 178.12481000000207,
                    "velocity": 0.3543307086614173,
                    "duration": 0.055147000000005164
                },
                {
                    "name": "G#5",
                    "midi": 80,
                    "time": 178.17995700000208,
                    "velocity": 0.31496062992125984,
                    "duration": 0.055147000000005164
                },
                {
                    "name": "D#6",
                    "midi": 87,
                    "time": 178.23510400000208,
                    "velocity": 0.3464566929133858,
                    "duration": 0.055147000000005164
                },
                {
                    "name": "G#5",
                    "midi": 80,
                    "time": 178.2902510000021,
                    "velocity": 0.30708661417322836,
                    "duration": 0.055147000000005164
                },
                {
                    "name": "G#6",
                    "midi": 92,
                    "time": 178.3453980000021,
                    "velocity": 0.33858267716535434,
                    "duration": 0.055147000000005164
                },
                {
                    "name": "G#5",
                    "midi": 80,
                    "time": 178.4005450000021,
                    "velocity": 0.30708661417322836,
                    "duration": 0.055147000000005164
                },
                {
                    "name": "D#6",
                    "midi": 87,
                    "time": 178.4556920000021,
                    "velocity": 0.33070866141732286,
                    "duration": 0.055147000000005164
                },
                {
                    "name": "G#5",
                    "midi": 80,
                    "time": 178.5108390000021,
                    "velocity": 0.2992125984251969,
                    "duration": 0.055147000000005164
                },
                {
                    "name": "G#6",
                    "midi": 92,
                    "time": 178.5659860000021,
                    "velocity": 0.31496062992125984,
                    "duration": 0.055147000000005164
                },
                {
                    "name": "G#5",
                    "midi": 80,
                    "time": 178.62113300000212,
                    "velocity": 0.2755905511811024,
                    "duration": 0.055147000000005164
                },
                {
                    "name": "F6",
                    "midi": 89,
                    "time": 180.44098400000212,
                    "velocity": 0.4566929133858268,
                    "duration": 0.33088200000000256
                },
                {
                    "name": "D#6",
                    "midi": 87,
                    "time": 180.77186600000212,
                    "velocity": 0.41732283464566927,
                    "duration": 0.11029400000001033
                },
                {
                    "name": "F#6",
                    "midi": 90,
                    "time": 180.88216000000213,
                    "velocity": 0.44881889763779526,
                    "duration": 0.33088200000000256
                },
                {
                    "name": "C6",
                    "midi": 84,
                    "time": 181.21304200000213,
                    "velocity": 0.4094488188976378,
                    "duration": 0.11029400000001033
                },
                {
                    "name": "D#6",
                    "midi": 87,
                    "time": 181.32333600000214,
                    "velocity": 0.4645669291338583,
                    "duration": 0.22058799999999223
                },
                {
                    "name": "C#6",
                    "midi": 85,
                    "time": 181.54392400000214,
                    "velocity": 0.4094488188976378,
                    "duration": 0.22058799999999223
                },
                {
                    "name": "G6",
                    "midi": 91,
                    "time": 182.09539400000213,
                    "velocity": 0.3858267716535433,
                    "duration": 0.055147000000005164
                },
                {
                    "name": "G#6",
                    "midi": 92,
                    "time": 182.1321586666688,
                    "velocity": 0.4094488188976378,
                    "duration": 0.03676466666667011
                },
                {
                    "name": "A6",
                    "midi": 93,
                    "time": 182.16892333333547,
                    "velocity": 0.4251968503937008,
                    "duration": 0.03676466666667011
                },
                {
                    "name": "G#6",
                    "midi": 92,
                    "time": 182.64686400000215,
                    "velocity": 0.47244094488188976,
                    "duration": 0.4411760000000129
                },
                {
                    "name": "F#6",
                    "midi": 90,
                    "time": 183.08804000000217,
                    "velocity": 0.4409448818897638,
                    "duration": 0.11029400000001033
                },
                {
                    "name": "F#6",
                    "midi": 90,
                    "time": 183.3086280000022,
                    "velocity": 0.47244094488188976,
                    "duration": 0.4411760000000129
                },
                {
                    "name": "A6",
                    "midi": 93,
                    "time": 183.8049510000022,
                    "velocity": 0.4251968503937008,
                    "duration": 0.04136024999999677
                },
                {
                    "name": "A#6",
                    "midi": 94,
                    "time": 183.8463112500022,
                    "velocity": 0.4409448818897638,
                    "duration": 0.04136024999999677
                },
                {
                    "name": "B6",
                    "midi": 95,
                    "time": 183.8876715000022,
                    "velocity": 0.4566929133858268,
                    "duration": 0.04136024999999677
                },
                {
                    "name": "C7",
                    "midi": 96,
                    "time": 183.9290317500022,
                    "velocity": 0.47244094488188976,
                    "duration": 0.04136024999999677
                },
                {
                    "name": "C7",
                    "midi": 96,
                    "time": 184.4115680000022,
                    "velocity": 0.5039370078740157,
                    "duration": 0.33088200000000256
                },
                {
                    "name": "A#6",
                    "midi": 94,
                    "time": 184.7424500000022,
                    "velocity": 0.4330708661417323,
                    "duration": 0.11029400000001033
                },
                {
                    "name": "G#6",
                    "midi": 92,
                    "time": 184.85274400000222,
                    "velocity": 0.5118110236220472,
                    "duration": 0.4411760000000129
                },
                {
                    "name": "C7",
                    "midi": 96,
                    "time": 185.51450800000222,
                    "velocity": 0.3543307086614173,
                    "duration": 0.07352933333334022
                },
                {
                    "name": "C#7",
                    "midi": 97,
                    "time": 185.58803733333556,
                    "velocity": 0.3779527559055118,
                    "duration": 0.07352933333334022
                },
                {
                    "name": "D7",
                    "midi": 98,
                    "time": 185.6615666666689,
                    "velocity": 0.4015748031496063,
                    "duration": 0.07352933333334022
                },
                {
                    "name": "F7",
                    "midi": 101,
                    "time": 185.73509600000224,
                    "velocity": 0.4251968503937008,
                    "duration": 0.04779406666665409
                },
                {
                    "name": "D#7",
                    "midi": 99,
                    "time": 185.7828900666689,
                    "velocity": 0.3779527559055118,
                    "duration": 0.04687494999998876
                },
                {
                    "name": "C#7",
                    "midi": 97,
                    "time": 185.8297650166689,
                    "velocity": 0.3700787401574803,
                    "duration": 0.04779406666665409
                },
                {
                    "name": "C7",
                    "midi": 96,
                    "time": 185.87755908333554,
                    "velocity": 0.36220472440944884,
                    "duration": 0.04779406666665409
                },
                {
                    "name": "A#6",
                    "midi": 94,
                    "time": 185.9253531500022,
                    "velocity": 0.3543307086614173,
                    "duration": 0.04687494999998876
                },
                {
                    "name": "G#6",
                    "midi": 92,
                    "time": 185.97222810000218,
                    "velocity": 0.3543307086614173,
                    "duration": 0.04779406666665409
                },
                {
                    "name": "F#6",
                    "midi": 90,
                    "time": 186.02002216666884,
                    "velocity": 0.3464566929133858,
                    "duration": 0.04687494999998876
                },
                {
                    "name": "F6",
                    "midi": 89,
                    "time": 186.06689711666883,
                    "velocity": 0.33858267716535434,
                    "duration": 0.04779406666665409
                },
                {
                    "name": "D#6",
                    "midi": 87,
                    "time": 186.11469118333548,
                    "velocity": 0.33070866141732286,
                    "duration": 0.04779406666665409
                },
                {
                    "name": "C#6",
                    "midi": 85,
                    "time": 186.16248525000213,
                    "velocity": 0.33070866141732286,
                    "duration": 0.04687494999998876
                },
                {
                    "name": "C6",
                    "midi": 84,
                    "time": 186.20936020000212,
                    "velocity": 0.3228346456692913,
                    "duration": 0.04779406666665409
                },
                {
                    "name": "A#5",
                    "midi": 82,
                    "time": 186.25715426666878,
                    "velocity": 0.31496062992125984,
                    "duration": 0.04687494999998876
                },
                {
                    "name": "G#5",
                    "midi": 80,
                    "time": 186.30402921666877,
                    "velocity": 0.30708661417322836,
                    "duration": 0.04779406666665409
                },
                {
                    "name": "F#5",
                    "midi": 78,
                    "time": 186.35182328333542,
                    "velocity": 0.30708661417322836,
                    "duration": 0.04779406666665409
                },
                {
                    "name": "F5",
                    "midi": 77,
                    "time": 186.39961735000207,
                    "velocity": 0.2992125984251969,
                    "duration": 0.04687494999998876
                },
                {
                    "name": "D#5",
                    "midi": 75,
                    "time": 186.44649230000206,
                    "velocity": 0.29133858267716534,
                    "duration": 0.04779406666665409
                },
                {
                    "name": "C#5",
                    "midi": 73,
                    "time": 186.49428636666872,
                    "velocity": 0.28346456692913385,
                    "duration": 0.04687494999998876
                },
                {
                    "name": "C5",
                    "midi": 72,
                    "time": 186.5411613166687,
                    "velocity": 0.28346456692913385,
                    "duration": 0.04779406666665409
                },
                {
                    "name": "A#4",
                    "midi": 70,
                    "time": 186.58895538333536,
                    "velocity": 0.2755905511811024,
                    "duration": 0.04779406666665409
                },
                {
                    "name": "G#4",
                    "midi": 68,
                    "time": 186.63674945000201,
                    "velocity": 0.2677165354330709,
                    "duration": 0.04687494999998876
                },
                {
                    "name": "F#4",
                    "midi": 66,
                    "time": 186.683624400002,
                    "velocity": 0.25984251968503935,
                    "duration": 0.04779406666665409
                },
                {
                    "name": "F4",
                    "midi": 65,
                    "time": 186.73141846666866,
                    "velocity": 0.25984251968503935,
                    "duration": 0.04687494999998876
                },
                {
                    "name": "D#4",
                    "midi": 63,
                    "time": 186.77829341666865,
                    "velocity": 0.25196850393700787,
                    "duration": 0.04779406666665409
                },
                {
                    "name": "C#4",
                    "midi": 61,
                    "time": 186.8260874833353,
                    "velocity": 0.2440944881889764,
                    "duration": 0.04779406666665409
                },
                {
                    "name": "C4",
                    "midi": 60,
                    "time": 186.87388155000195,
                    "velocity": 0.23622047244094488,
                    "duration": 0.04687494999998876
                },
                {
                    "name": "G#4",
                    "midi": 68,
                    "time": 187.94097600000194,
                    "velocity": 0.33070866141732286,
                    "duration": 0.055147000000005164
                },
                {
                    "name": "C#5",
                    "midi": 73,
                    "time": 187.99612300000194,
                    "velocity": 0.3464566929133858,
                    "duration": 0.055147000000005164
                },
                {
                    "name": "F5",
                    "midi": 77,
                    "time": 188.05127000000195,
                    "velocity": 0.36220472440944884,
                    "duration": 0.055147000000005164
                },
                {
                    "name": "G#5",
                    "midi": 80,
                    "time": 188.10641700000195,
                    "velocity": 0.3779527559055118,
                    "duration": 0.055147000000005164
                },
                {
                    "name": "C#6",
                    "midi": 85,
                    "time": 188.16156400000196,
                    "velocity": 0.3779527559055118,
                    "duration": 0.2205879999999638
                },
                {
                    "name": "F6",
                    "midi": 89,
                    "time": 188.18913750000195,
                    "velocity": 0.3937007874015748,
                    "duration": 0.19301449999997544
                },
                {
                    "name": "G#6",
                    "midi": 92,
                    "time": 188.21671100000194,
                    "velocity": 0.4094488188976378,
                    "duration": 0.16544099999998707
                },
                {
                    "name": "C#7",
                    "midi": 97,
                    "time": 188.24428450000192,
                    "velocity": 0.4251968503937008,
                    "duration": 0.1378674999999987
                },
                {
                    "name": "G#4",
                    "midi": 68,
                    "time": 189.1542100000019,
                    "velocity": 0.3937007874015748,
                    "duration": 0.11029400000001033
                },
                {
                    "name": "F5",
                    "midi": 77,
                    "time": 189.26450400000192,
                    "velocity": 0.4566929133858268,
                    "duration": 0.33088200000000256
                },
                {
                    "name": "F4",
                    "midi": 65,
                    "time": 189.4850920000019,
                    "velocity": 0.31496062992125984,
                    "duration": 0.055147000000005164
                },
                {
                    "name": "G#4",
                    "midi": 68,
                    "time": 189.4850920000019,
                    "velocity": 0.31496062992125984,
                    "duration": 0.055147000000005164
                },
                {
                    "name": "D#5",
                    "midi": 75,
                    "time": 189.59538600000192,
                    "velocity": 0.41732283464566927,
                    "duration": 0.11029400000001033
                },
                {
                    "name": "F#5",
                    "midi": 78,
                    "time": 189.70568000000193,
                    "velocity": 0.44881889763779526,
                    "duration": 0.2757349999999974
                },
                {
                    "name": "F#4",
                    "midi": 66,
                    "time": 189.92626800000193,
                    "velocity": 0.31496062992125984,
                    "duration": 0.055147000000005164
                },
                {
                    "name": "G#4",
                    "midi": 68,
                    "time": 189.92626800000193,
                    "velocity": 0.31496062992125984,
                    "duration": 0.055147000000005164
                },
                {
                    "name": "C5",
                    "midi": 72,
                    "time": 190.03656200000194,
                    "velocity": 0.4094488188976378,
                    "duration": 0.055147000000005164
                },
                {
                    "name": "D#5",
                    "midi": 75,
                    "time": 190.09170900000194,
                    "velocity": 0.4645669291338583,
                    "duration": 0.055147000000005164
                },
                {
                    "name": "C#5",
                    "midi": 73,
                    "time": 190.14685600000195,
                    "velocity": 0.4645669291338583,
                    "duration": 0.055147000000005164
                },
                {
                    "name": "F4",
                    "midi": 65,
                    "time": 190.36744400000194,
                    "velocity": 0.31496062992125984,
                    "duration": 0.055147000000005164
                },
                {
                    "name": "G#4",
                    "midi": 68,
                    "time": 190.36744400000194,
                    "velocity": 0.31496062992125984,
                    "duration": 0.055147000000005164
                },
                {
                    "name": "C#5",
                    "midi": 73,
                    "time": 190.36744400000194,
                    "velocity": 0.4094488188976378,
                    "duration": 0.4411760000000129
                },
                {
                    "name": "F4",
                    "midi": 65,
                    "time": 190.80862000000195,
                    "velocity": 0.31496062992125984,
                    "duration": 0.055147000000005164
                },
                {
                    "name": "G#4",
                    "midi": 68,
                    "time": 190.80862000000195,
                    "velocity": 0.31496062992125984,
                    "duration": 0.055147000000005164
                },
                {
                    "name": "C#5",
                    "midi": 73,
                    "time": 190.80862000000195,
                    "velocity": 0.3937007874015748,
                    "duration": 0.22058799999999223
                },
                {
                    "name": "A#5",
                    "midi": 82,
                    "time": 191.02920800000194,
                    "velocity": 0.4645669291338583,
                    "duration": 0.055147000000005164
                },
                {
                    "name": "A#4",
                    "midi": 70,
                    "time": 191.24979600000194,
                    "velocity": 0.31496062992125984,
                    "duration": 0.055147000000005164
                },
                {
                    "name": "A#5",
                    "midi": 82,
                    "time": 191.24979600000194,
                    "velocity": 0.4330708661417323,
                    "duration": 0.11029400000001033
                },
                {
                    "name": "F#4",
                    "midi": 66,
                    "time": 191.24979600000194,
                    "velocity": 0.31496062992125984,
                    "duration": 0.055147000000005164
                },
                {
                    "name": "G#5",
                    "midi": 80,
                    "time": 191.47038400000196,
                    "velocity": 0.47244094488188976,
                    "duration": 0.44117599999998447
                },
                {
                    "name": "A#4",
                    "midi": 70,
                    "time": 191.69097200000195,
                    "velocity": 0.31496062992125984,
                    "duration": 0.055147000000005164
                },
                {
                    "name": "G#4",
                    "midi": 68,
                    "time": 191.69097200000195,
                    "velocity": 0.31496062992125984,
                    "duration": 0.055147000000005164
                },
                {
                    "name": "F#5",
                    "midi": 78,
                    "time": 191.91156000000194,
                    "velocity": 0.4409448818897638,
                    "duration": 0.055147000000005164
                },
                {
                    "name": "A#4",
                    "midi": 70,
                    "time": 192.13214800000193,
                    "velocity": 0.31496062992125984,
                    "duration": 0.055147000000005164
                },
                {
                    "name": "F#4",
                    "midi": 66,
                    "time": 192.13214800000193,
                    "velocity": 0.31496062992125984,
                    "duration": 0.055147000000005164
                },
                {
                    "name": "F#5",
                    "midi": 78,
                    "time": 192.13214800000193,
                    "velocity": 0.47244094488188976,
                    "duration": 0.4411760000000129
                },
                {
                    "name": "F#4",
                    "midi": 66,
                    "time": 192.57332400000195,
                    "velocity": 0.31496062992125984,
                    "duration": 0.055147000000005164
                },
                {
                    "name": "A#4",
                    "midi": 70,
                    "time": 192.57332400000195,
                    "velocity": 0.31496062992125984,
                    "duration": 0.055147000000005164
                },
                {
                    "name": "F#5",
                    "midi": 78,
                    "time": 192.57332400000195,
                    "velocity": 0.41732283464566927,
                    "duration": 0.22058799999999223
                },
                {
                    "name": "C#6",
                    "midi": 85,
                    "time": 192.79391200000194,
                    "velocity": 0.48031496062992124,
                    "duration": 0.11029400000001033
                },
                {
                    "name": "C#6",
                    "midi": 85,
                    "time": 193.01450000000196,
                    "velocity": 0.47244094488188976,
                    "duration": 0.22058799999999223
                },
                {
                    "name": "C#5",
                    "midi": 73,
                    "time": 193.01450000000196,
                    "velocity": 0.31496062992125984,
                    "duration": 0.22058799999999223
                },
                {
                    "name": "A#5",
                    "midi": 82,
                    "time": 193.01450000000196,
                    "velocity": 0.47244094488188976,
                    "duration": 0.22058799999999223
                },
                {
                    "name": "G#5",
                    "midi": 80,
                    "time": 193.23508800000195,
                    "velocity": 0.5039370078740157,
                    "duration": 0.33088200000000256
                },
                {
                    "name": "C6",
                    "midi": 84,
                    "time": 193.23508800000195,
                    "velocity": 0.5039370078740157,
                    "duration": 0.33088200000000256
                },
                {
                    "name": "C5",
                    "midi": 72,
                    "time": 193.23508800000195,
                    "velocity": 0.31496062992125984,
                    "duration": 0.33088200000000256
                },
                {
                    "name": "A#5",
                    "midi": 82,
                    "time": 193.56597000000195,
                    "velocity": 0.4330708661417323,
                    "duration": 0.055147000000005164
                },
                {
                    "name": "A#4",
                    "midi": 70,
                    "time": 193.56597000000195,
                    "velocity": 0.31496062992125984,
                    "duration": 0.055147000000005164
                },
                {
                    "name": "F#5",
                    "midi": 78,
                    "time": 193.56597000000195,
                    "velocity": 0.4330708661417323,
                    "duration": 0.055147000000005164
                },
                {
                    "name": "F#5",
                    "midi": 78,
                    "time": 193.62111700000196,
                    "velocity": 0.4094488188976378,
                    "duration": 0.055147000000005164
                },
                {
                    "name": "A#5",
                    "midi": 82,
                    "time": 193.62111700000196,
                    "velocity": 0.4094488188976378,
                    "duration": 0.055147000000005164
                },
                {
                    "name": "F5",
                    "midi": 77,
                    "time": 193.67626400000196,
                    "velocity": 0.5118110236220472,
                    "duration": 0.055147000000005164
                },
                {
                    "name": "G#5",
                    "midi": 80,
                    "time": 193.67626400000196,
                    "velocity": 0.5118110236220472,
                    "duration": 0.055147000000005164
                },
                {
                    "name": "G#5",
                    "midi": 80,
                    "time": 193.89685200000196,
                    "velocity": 0.4409448818897638,
                    "duration": 0.4411760000000129
                },
                {
                    "name": "G#4",
                    "midi": 68,
                    "time": 193.89685200000196,
                    "velocity": 0.4409448818897638,
                    "duration": 0.4411760000000129
                },
                {
                    "name": "F5",
                    "midi": 77,
                    "time": 193.89685200000196,
                    "velocity": 0.4409448818897638,
                    "duration": 0.4411760000000129
                },
                {
                    "name": "A5",
                    "midi": 81,
                    "time": 194.44832200000198,
                    "velocity": 0.3937007874015748,
                    "duration": 0.11029400000001033
                },
                {
                    "name": "F5",
                    "midi": 77,
                    "time": 194.44832200000198,
                    "velocity": 0.3937007874015748,
                    "duration": 0.11029400000001033
                },
                {
                    "name": "F#5",
                    "midi": 78,
                    "time": 194.558616000002,
                    "velocity": 0.4409448818897638,
                    "duration": 0.055147000000005164
                },
                {
                    "name": "A#5",
                    "midi": 82,
                    "time": 194.558616000002,
                    "velocity": 0.4409448818897638,
                    "duration": 0.055147000000005164
                },
                {
                    "name": "A#5",
                    "midi": 82,
                    "time": 194.77920400000198,
                    "velocity": 0.4409448818897638,
                    "duration": 0.4411760000000129
                },
                {
                    "name": "F#5",
                    "midi": 78,
                    "time": 194.77920400000198,
                    "velocity": 0.4409448818897638,
                    "duration": 0.4411760000000129
                },
                {
                    "name": "F#4",
                    "midi": 66,
                    "time": 195.220380000002,
                    "velocity": 0.31496062992125984,
                    "duration": 0.22058799999999223
                },
                {
                    "name": "C5",
                    "midi": 72,
                    "time": 195.220380000002,
                    "velocity": 0.4015748031496063,
                    "duration": 0.22058799999999223
                },
                {
                    "name": "C#5",
                    "midi": 73,
                    "time": 195.440968000002,
                    "velocity": 0.4251968503937008,
                    "duration": 0.055147000000005164
                },
                {
                    "name": "F4",
                    "midi": 65,
                    "time": 195.440968000002,
                    "velocity": 0.33858267716535434,
                    "duration": 0.055147000000005164
                },
                {
                    "name": "C#5",
                    "midi": 73,
                    "time": 195.66155600000198,
                    "velocity": 0.4409448818897638,
                    "duration": 0.4411760000000129
                },
                {
                    "name": "F4",
                    "midi": 65,
                    "time": 195.66155600000198,
                    "velocity": 0.3464566929133858,
                    "duration": 0.4411760000000129
                },
                {
                    "name": "G#5",
                    "midi": 80,
                    "time": 196.213026000002,
                    "velocity": 0.4330708661417323,
                    "duration": 0.11029400000001033
                },
                {
                    "name": "G#4",
                    "midi": 68,
                    "time": 196.213026000002,
                    "velocity": 0.33070866141732286,
                    "duration": 0.11029400000001033
                },
                {
                    "name": "F5",
                    "midi": 77,
                    "time": 196.323320000002,
                    "velocity": 0.3858267716535433,
                    "duration": 0.33088200000000256
                },
                {
                    "name": "F6",
                    "midi": 89,
                    "time": 196.323320000002,
                    "velocity": 0.49606299212598426,
                    "duration": 0.33088200000000256
                },
                {
                    "name": "D#6",
                    "midi": 87,
                    "time": 196.65420200000202,
                    "velocity": 0.4566929133858268,
                    "duration": 0.11029400000001033
                },
                {
                    "name": "D#5",
                    "midi": 75,
                    "time": 196.65420200000202,
                    "velocity": 0.3543307086614173,
                    "duration": 0.11029400000001033
                },
                {
                    "name": "F#5",
                    "midi": 78,
                    "time": 196.76449600000203,
                    "velocity": 0.3779527559055118,
                    "duration": 0.33088200000000256
                },
                {
                    "name": "F#6",
                    "midi": 90,
                    "time": 196.76449600000203,
                    "velocity": 0.4881889763779528,
                    "duration": 0.33088200000000256
                },
                {
                    "name": "C5",
                    "midi": 72,
                    "time": 197.09537800000203,
                    "velocity": 0.3464566929133858,
                    "duration": 0.11029400000001033
                },
                {
                    "name": "C6",
                    "midi": 84,
                    "time": 197.09537800000203,
                    "velocity": 0.44881889763779526,
                    "duration": 0.11029400000001033
                },
                {
                    "name": "D#6",
                    "midi": 87,
                    "time": 197.20567200000204,
                    "velocity": 0.5039370078740157,
                    "duration": 0.055147000000005164
                },
                {
                    "name": "D#5",
                    "midi": 75,
                    "time": 197.20567200000204,
                    "velocity": 0.3937007874015748,
                    "duration": 0.055147000000005164
                },
                {
                    "name": "C#5",
                    "midi": 73,
                    "time": 197.42626000000203,
                    "velocity": 0.3464566929133858,
                    "duration": 0.4411760000000129
                },
                {
                    "name": "C#6",
                    "midi": 85,
                    "time": 197.42626000000203,
                    "velocity": 0.44881889763779526,
                    "duration": 0.4411760000000129
                },
                {
                    "name": "C#5",
                    "midi": 73,
                    "time": 197.86743600000204,
                    "velocity": 0.33070866141732286,
                    "duration": 0.22058799999999223
                },
                {
                    "name": "C#6",
                    "midi": 85,
                    "time": 197.86743600000204,
                    "velocity": 0.4330708661417323,
                    "duration": 0.22058799999999223
                },
                {
                    "name": "A#5",
                    "midi": 82,
                    "time": 198.08802400000204,
                    "velocity": 0.4330708661417323,
                    "duration": 0.055147000000005164
                },
                {
                    "name": "A#6",
                    "midi": 94,
                    "time": 198.08802400000204,
                    "velocity": 0.5039370078740157,
                    "duration": 0.055147000000005164
                },
                {
                    "name": "A#5",
                    "midi": 82,
                    "time": 198.30861200000203,
                    "velocity": 0.3937007874015748,
                    "duration": 0.11029400000001033
                },
                {
                    "name": "A#6",
                    "midi": 94,
                    "time": 198.30861200000203,
                    "velocity": 0.47244094488188976,
                    "duration": 0.11029400000001033
                },
                {
                    "name": "G#6",
                    "midi": 92,
                    "time": 198.52920000000205,
                    "velocity": 0.5196850393700787,
                    "duration": 0.4411760000000129
                },
                {
                    "name": "G#5",
                    "midi": 80,
                    "time": 198.52920000000205,
                    "velocity": 0.4015748031496063,
                    "duration": 0.4411760000000129
                },
                {
                    "name": "F#5",
                    "midi": 78,
                    "time": 198.97037600000206,
                    "velocity": 0.3700787401574803,
                    "duration": 0.055147000000005164
                },
                {
                    "name": "F#6",
                    "midi": 90,
                    "time": 198.97037600000206,
                    "velocity": 0.48031496062992124,
                    "duration": 0.055147000000005164
                },
                {
                    "name": "F#6",
                    "midi": 90,
                    "time": 199.19096400000205,
                    "velocity": 0.5196850393700787,
                    "duration": 0.4411760000000129
                },
                {
                    "name": "A#5",
                    "midi": 82,
                    "time": 199.19096400000205,
                    "velocity": 0.47244094488188976,
                    "duration": 0.4411760000000129
                },
                {
                    "name": "F#5",
                    "midi": 78,
                    "time": 199.19096400000205,
                    "velocity": 0.4015748031496063,
                    "duration": 0.4411760000000129
                },
                {
                    "name": "D#6",
                    "midi": 87,
                    "time": 199.63214000000207,
                    "velocity": 0.3543307086614173,
                    "duration": 0.22058799999999223
                },
                {
                    "name": "F#5",
                    "midi": 78,
                    "time": 199.63214000000207,
                    "velocity": 0.3543307086614173,
                    "duration": 0.22058799999999223
                },
                {
                    "name": "F#6",
                    "midi": 90,
                    "time": 199.63214000000207,
                    "velocity": 0.4566929133858268,
                    "duration": 0.22058799999999223
                },
                {
                    "name": "C#7",
                    "midi": 97,
                    "time": 199.85272800000206,
                    "velocity": 0.5275590551181102,
                    "duration": 0.22058799999999223
                },
                {
                    "name": "A#6",
                    "midi": 94,
                    "time": 199.85272800000206,
                    "velocity": 0.48031496062992124,
                    "duration": 0.22058799999999223
                },
                {
                    "name": "C#6",
                    "midi": 85,
                    "time": 199.85272800000206,
                    "velocity": 0.48031496062992124,
                    "duration": 0.22058799999999223
                },
                {
                    "name": "A#6",
                    "midi": 94,
                    "time": 200.07331600000205,
                    "velocity": 0.47244094488188976,
                    "duration": 0.22058799999999223
                },
                {
                    "name": "C#7",
                    "midi": 97,
                    "time": 200.07331600000205,
                    "velocity": 0.5196850393700787,
                    "duration": 0.22058799999999223
                },
                {
                    "name": "C#6",
                    "midi": 85,
                    "time": 200.07331600000205,
                    "velocity": 0.31496062992125984,
                    "duration": 0.22058799999999223
                },
                {
                    "name": "C6",
                    "midi": 84,
                    "time": 200.29390400000204,
                    "velocity": 0.31496062992125984,
                    "duration": 0.33088200000000256
                },
                {
                    "name": "G#6",
                    "midi": 92,
                    "time": 200.29390400000204,
                    "velocity": 0.5039370078740157,
                    "duration": 0.33088200000000256
                },
                {
                    "name": "C7",
                    "midi": 96,
                    "time": 200.29390400000204,
                    "velocity": 0.5511811023622047,
                    "duration": 0.33088200000000256
                },
                {
                    "name": "A#6",
                    "midi": 94,
                    "time": 200.62478600000205,
                    "velocity": 0.47244094488188976,
                    "duration": 0.055147000000005164
                },
                {
                    "name": "A#5",
                    "midi": 82,
                    "time": 200.62478600000205,
                    "velocity": 0.31496062992125984,
                    "duration": 0.055147000000005164
                },
                {
                    "name": "F#6",
                    "midi": 90,
                    "time": 200.62478600000205,
                    "velocity": 0.4330708661417323,
                    "duration": 0.055147000000005164
                },
                {
                    "name": "F6",
                    "midi": 89,
                    "time": 200.73508000000206,
                    "velocity": 0.5118110236220472,
                    "duration": 0.055147000000005164
                },
                {
                    "name": "G#5",
                    "midi": 80,
                    "time": 200.73508000000206,
                    "velocity": 0.4330708661417323,
                    "duration": 0.055147000000005164
                },
                {
                    "name": "G#6",
                    "midi": 92,
                    "time": 200.73508000000206,
                    "velocity": 0.5590551181102362,
                    "duration": 0.055147000000005164
                },
                {
                    "name": "G#6",
                    "midi": 92,
                    "time": 200.95566800000205,
                    "velocity": 0.48031496062992124,
                    "duration": 0.4411760000000129
                },
                {
                    "name": "F6",
                    "midi": 89,
                    "time": 200.95566800000205,
                    "velocity": 0.4409448818897638,
                    "duration": 0.4411760000000129
                },
                {
                    "name": "G#5",
                    "midi": 80,
                    "time": 200.95566800000205,
                    "velocity": 0.3700787401574803,
                    "duration": 0.4411760000000129
                },
                {
                    "name": "A5",
                    "midi": 81,
                    "time": 201.50713800000207,
                    "velocity": 0.33070866141732286,
                    "duration": 0.11029400000001033
                },
                {
                    "name": "A6",
                    "midi": 93,
                    "time": 201.50713800000207,
                    "velocity": 0.4330708661417323,
                    "duration": 0.11029400000001033
                },
                {
                    "name": "A#5",
                    "midi": 82,
                    "time": 201.61743200000208,
                    "velocity": 0.3700787401574803,
                    "duration": 0.055147000000005164
                },
                {
                    "name": "A#6",
                    "midi": 94,
                    "time": 201.61743200000208,
                    "velocity": 0.48031496062992124,
                    "duration": 0.055147000000005164
                },
                {
                    "name": "C5",
                    "midi": 72,
                    "time": 202.0586080000021,
                    "velocity": 0.4015748031496063,
                    "duration": 0.4411760000000129
                },
                {
                    "name": "F#4",
                    "midi": 66,
                    "time": 202.0586080000021,
                    "velocity": 0.31496062992125984,
                    "duration": 0.4411760000000129
                },
                {
                    "name": "C4",
                    "midi": 60,
                    "time": 202.0586080000021,
                    "velocity": 0.31496062992125984,
                    "duration": 0.4411760000000129
                },
                {
                    "name": "F4",
                    "midi": 65,
                    "time": 202.4997840000021,
                    "velocity": 0.33858267716535434,
                    "duration": 0.055147000000005164
                },
                {
                    "name": "C#4",
                    "midi": 61,
                    "time": 202.4997840000021,
                    "velocity": 0.33858267716535434,
                    "duration": 0.055147000000005164
                },
                {
                    "name": "C#5",
                    "midi": 73,
                    "time": 202.4997840000021,
                    "velocity": 0.4251968503937008,
                    "duration": 0.055147000000005164
                },
                {
                    "name": "F4",
                    "midi": 65,
                    "time": 202.7203720000021,
                    "velocity": 0.3464566929133858,
                    "duration": 0.33088200000000256
                },
                {
                    "name": "C#4",
                    "midi": 61,
                    "time": 202.7203720000021,
                    "velocity": 0.3464566929133858,
                    "duration": 0.33088200000000256
                },
                {
                    "name": "C#5",
                    "midi": 73,
                    "time": 202.7203720000021,
                    "velocity": 0.4409448818897638,
                    "duration": 0.33088200000000256
                },
                {
                    "name": "F6",
                    "midi": 89,
                    "time": 203.0512540000021,
                    "velocity": 0.31496062992125984,
                    "duration": 0.11029400000001033
                },
                {
                    "name": "C#6",
                    "midi": 85,
                    "time": 203.0512540000021,
                    "velocity": 0.31496062992125984,
                    "duration": 0.11029400000001033
                },
                {
                    "name": "F#6",
                    "midi": 90,
                    "time": 203.1615480000021,
                    "velocity": 0.3543307086614173,
                    "duration": 0.11029400000001033
                },
                {
                    "name": "D#6",
                    "midi": 87,
                    "time": 203.1615480000021,
                    "velocity": 0.3543307086614173,
                    "duration": 0.11029400000001033
                },
                {
                    "name": "E6",
                    "midi": 88,
                    "time": 203.27184200000212,
                    "velocity": 0.4015748031496063,
                    "duration": 0.11029400000001033
                },
                {
                    "name": "G6",
                    "midi": 91,
                    "time": 203.27184200000212,
                    "velocity": 0.4015748031496063,
                    "duration": 0.11029400000001033
                },
                {
                    "name": "A#6",
                    "midi": 94,
                    "time": 203.38213600000213,
                    "velocity": 0.44881889763779526,
                    "duration": 0.11029400000001033
                },
                {
                    "name": "F#6",
                    "midi": 90,
                    "time": 203.38213600000213,
                    "velocity": 0.44881889763779526,
                    "duration": 0.11029400000001033
                },
                {
                    "name": "F6",
                    "midi": 89,
                    "time": 203.49243000000214,
                    "velocity": 0.3700787401574803,
                    "duration": 0.09926459999999793
                },
                {
                    "name": "G#6",
                    "midi": 92,
                    "time": 203.49243000000214,
                    "velocity": 0.3700787401574803,
                    "duration": 0.09926459999999793
                },
                {
                    "name": "G#6",
                    "midi": 92,
                    "time": 203.60272400000215,
                    "velocity": 0.3700787401574803,
                    "duration": 0.11029400000001033
                },
                {
                    "name": "F6",
                    "midi": 89,
                    "time": 203.60272400000215,
                    "velocity": 0.3700787401574803,
                    "duration": 0.11029400000001033
                },
                {
                    "name": "G6",
                    "midi": 91,
                    "time": 203.71301800000217,
                    "velocity": 0.3700787401574803,
                    "duration": 0.09926459999999793
                },
                {
                    "name": "E6",
                    "midi": 88,
                    "time": 203.71301800000217,
                    "velocity": 0.3700787401574803,
                    "duration": 0.09926459999999793
                },
                {
                    "name": "F#6",
                    "midi": 90,
                    "time": 203.82331200000218,
                    "velocity": 0.41732283464566927,
                    "duration": 0.11029400000001033
                },
                {
                    "name": "A#6",
                    "midi": 94,
                    "time": 203.82331200000218,
                    "velocity": 0.41732283464566927,
                    "duration": 0.11029400000001033
                },
                {
                    "name": "F6",
                    "midi": 89,
                    "time": 203.9336060000022,
                    "velocity": 0.36220472440944884,
                    "duration": 0.09926459999999793
                },
                {
                    "name": "G#6",
                    "midi": 92,
                    "time": 203.9336060000022,
                    "velocity": 0.36220472440944884,
                    "duration": 0.09926459999999793
                },
                {
                    "name": "G#6",
                    "midi": 92,
                    "time": 204.0439000000022,
                    "velocity": 0.3700787401574803,
                    "duration": 0.11029400000001033
                },
                {
                    "name": "F6",
                    "midi": 89,
                    "time": 204.0439000000022,
                    "velocity": 0.3700787401574803,
                    "duration": 0.11029400000001033
                },
                {
                    "name": "G6",
                    "midi": 91,
                    "time": 204.1541940000022,
                    "velocity": 0.3858267716535433,
                    "duration": 0.09926459999999793
                },
                {
                    "name": "E6",
                    "midi": 88,
                    "time": 204.1541940000022,
                    "velocity": 0.3858267716535433,
                    "duration": 0.09926459999999793
                },
                {
                    "name": "F#6",
                    "midi": 90,
                    "time": 204.26448800000222,
                    "velocity": 0.4566929133858268,
                    "duration": 0.11029400000001033
                },
                {
                    "name": "A#6",
                    "midi": 94,
                    "time": 204.26448800000222,
                    "velocity": 0.4566929133858268,
                    "duration": 0.11029400000001033
                },
                {
                    "name": "G#6",
                    "midi": 92,
                    "time": 204.37478200000223,
                    "velocity": 0.3937007874015748,
                    "duration": 0.09926459999999793
                },
                {
                    "name": "F6",
                    "midi": 89,
                    "time": 204.37478200000223,
                    "velocity": 0.3937007874015748,
                    "duration": 0.09926459999999793
                },
                {
                    "name": "G#6",
                    "midi": 92,
                    "time": 204.48507600000224,
                    "velocity": 0.3937007874015748,
                    "duration": 0.11029400000001033
                },
                {
                    "name": "F6",
                    "midi": 89,
                    "time": 204.48507600000224,
                    "velocity": 0.3937007874015748,
                    "duration": 0.11029400000001033
                },
                {
                    "name": "G6",
                    "midi": 91,
                    "time": 204.59537000000225,
                    "velocity": 0.3937007874015748,
                    "duration": 0.09926459999999793
                },
                {
                    "name": "E6",
                    "midi": 88,
                    "time": 204.59537000000225,
                    "velocity": 0.3937007874015748,
                    "duration": 0.09926459999999793
                },
                {
                    "name": "F#6",
                    "midi": 90,
                    "time": 204.70566400000226,
                    "velocity": 0.47244094488188976,
                    "duration": 0.11029400000001033
                },
                {
                    "name": "A#6",
                    "midi": 94,
                    "time": 204.70566400000226,
                    "velocity": 0.47244094488188976,
                    "duration": 0.11029400000001033
                },
                {
                    "name": "F6",
                    "midi": 89,
                    "time": 204.81595800000227,
                    "velocity": 0.41732283464566927,
                    "duration": 0.09926459999999793
                },
                {
                    "name": "G#6",
                    "midi": 92,
                    "time": 204.81595800000227,
                    "velocity": 0.41732283464566927,
                    "duration": 0.09926459999999793
                },
                {
                    "name": "F6",
                    "midi": 89,
                    "time": 204.92625200000228,
                    "velocity": 0.4251968503937008,
                    "duration": 0.11029400000001033
                },
                {
                    "name": "G#6",
                    "midi": 92,
                    "time": 204.92625200000228,
                    "velocity": 0.4251968503937008,
                    "duration": 0.11029400000001033
                },
                {
                    "name": "G6",
                    "midi": 91,
                    "time": 205.0365460000023,
                    "velocity": 0.4409448818897638,
                    "duration": 0.09926459999999793
                },
                {
                    "name": "E6",
                    "midi": 88,
                    "time": 205.0365460000023,
                    "velocity": 0.4409448818897638,
                    "duration": 0.09926459999999793
                },
                {
                    "name": "F#6",
                    "midi": 90,
                    "time": 205.1468400000023,
                    "velocity": 0.5118110236220472,
                    "duration": 0.11029400000001033
                },
                {
                    "name": "A#6",
                    "midi": 94,
                    "time": 205.1468400000023,
                    "velocity": 0.5118110236220472,
                    "duration": 0.11029400000001033
                },
                {
                    "name": "G#6",
                    "midi": 92,
                    "time": 205.2571340000023,
                    "velocity": 0.44881889763779526,
                    "duration": 0.09926459999999793
                },
                {
                    "name": "F6",
                    "midi": 89,
                    "time": 205.2571340000023,
                    "velocity": 0.44881889763779526,
                    "duration": 0.09926459999999793
                },
                {
                    "name": "G#6",
                    "midi": 92,
                    "time": 205.36742800000232,
                    "velocity": 0.44881889763779526,
                    "duration": 0.11029400000001033
                },
                {
                    "name": "F6",
                    "midi": 89,
                    "time": 205.36742800000232,
                    "velocity": 0.44881889763779526,
                    "duration": 0.11029400000001033
                },
                {
                    "name": "E6",
                    "midi": 88,
                    "time": 205.47772200000233,
                    "velocity": 0.44881889763779526,
                    "duration": 0.09926459999999793
                },
                {
                    "name": "G6",
                    "midi": 91,
                    "time": 205.47772200000233,
                    "velocity": 0.44881889763779526,
                    "duration": 0.09926459999999793
                },
                {
                    "name": "F#6",
                    "midi": 90,
                    "time": 205.58801600000234,
                    "velocity": 0.5196850393700787,
                    "duration": 0.11029400000001033
                },
                {
                    "name": "A#6",
                    "midi": 94,
                    "time": 205.58801600000234,
                    "velocity": 0.5196850393700787,
                    "duration": 0.11029400000001033
                },
                {
                    "name": "F6",
                    "midi": 89,
                    "time": 205.69831000000235,
                    "velocity": 0.47244094488188976,
                    "duration": 0.09926459999999793
                },
                {
                    "name": "G#6",
                    "midi": 92,
                    "time": 205.69831000000235,
                    "velocity": 0.47244094488188976,
                    "duration": 0.09926459999999793
                },
                {
                    "name": "F6",
                    "midi": 89,
                    "time": 205.80860400000236,
                    "velocity": 0.47244094488188976,
                    "duration": 0.11029400000001033
                },
                {
                    "name": "G#6",
                    "midi": 92,
                    "time": 205.80860400000236,
                    "velocity": 0.47244094488188976,
                    "duration": 0.11029400000001033
                },
                {
                    "name": "E6",
                    "midi": 88,
                    "time": 205.91889800000237,
                    "velocity": 0.47244094488188976,
                    "duration": 0.09926459999999793
                },
                {
                    "name": "G6",
                    "midi": 91,
                    "time": 205.91889800000237,
                    "velocity": 0.47244094488188976,
                    "duration": 0.09926459999999793
                },
                {
                    "name": "F#6",
                    "midi": 90,
                    "time": 206.02919200000238,
                    "velocity": 0.5826771653543307,
                    "duration": 0.11029400000001033
                },
                {
                    "name": "A#6",
                    "midi": 94,
                    "time": 206.02919200000238,
                    "velocity": 0.5826771653543307,
                    "duration": 0.11029400000001033
                },
                {
                    "name": "G#6",
                    "midi": 92,
                    "time": 206.1394860000024,
                    "velocity": 0.5354330708661418,
                    "duration": 0.09926459999999793
                },
                {
                    "name": "F6",
                    "midi": 89,
                    "time": 206.1394860000024,
                    "velocity": 0.5354330708661418,
                    "duration": 0.09926459999999793
                },
                {
                    "name": "F6",
                    "midi": 89,
                    "time": 206.2497800000024,
                    "velocity": 0.44881889763779526,
                    "duration": 0.22058800000002066
                },
                {
                    "name": "G#6",
                    "midi": 92,
                    "time": 206.2497800000024,
                    "velocity": 0.5590551181102362,
                    "duration": 0.11029400000001033
                },
                {
                    "name": "F7",
                    "midi": 101,
                    "time": 206.3600740000024,
                    "velocity": 0.5905511811023622,
                    "duration": 0.09926459999999793
                },
                {
                    "name": "F7",
                    "midi": 101,
                    "time": 206.47036800000242,
                    "velocity": 0.6456692913385826,
                    "duration": 0.11029400000001033
                },
                {
                    "name": "F6",
                    "midi": 89,
                    "time": 206.47036800000242,
                    "velocity": 0.47244094488188976,
                    "duration": 0.22058800000002066
                },
                {
                    "name": "E7",
                    "midi": 100,
                    "time": 206.58066200000243,
                    "velocity": 0.6220472440944882,
                    "duration": 0.09926459999999793
                },
                {
                    "name": "F6",
                    "midi": 89,
                    "time": 206.69095600000244,
                    "velocity": 0.44881889763779526,
                    "duration": 0.22058799999999223
                },
                {
                    "name": "E7",
                    "midi": 100,
                    "time": 206.69095600000244,
                    "velocity": 0.6456692913385826,
                    "duration": 0.11029400000001033
                },
                {
                    "name": "D#7",
                    "midi": 99,
                    "time": 206.80125000000245,
                    "velocity": 0.5905511811023622,
                    "duration": 0.10386018333332458
                },
                {
                    "name": "D#7",
                    "midi": 99,
                    "time": 206.91154400000244,
                    "velocity": 0.6377952755905512,
                    "duration": 0.11029400000001033
                },
                {
                    "name": "F6",
                    "midi": 89,
                    "time": 206.91154400000244,
                    "velocity": 0.47244094488188976,
                    "duration": 0.22058800000002066
                },
                {
                    "name": "D7",
                    "midi": 98,
                    "time": 207.02183800000245,
                    "velocity": 0.6062992125984252,
                    "duration": 0.09926459999999793
                },
                {
                    "name": "D7",
                    "midi": 98,
                    "time": 207.13213200000246,
                    "velocity": 0.6377952755905512,
                    "duration": 0.11029400000001033
                },
                {
                    "name": "F6",
                    "midi": 89,
                    "time": 207.13213200000246,
                    "velocity": 0.44881889763779526,
                    "duration": 0.22058800000002066
                },
                {
                    "name": "C#7",
                    "midi": 97,
                    "time": 207.24242600000247,
                    "velocity": 0.5905511811023622,
                    "duration": 0.09926459999999793
                },
                {
                    "name": "C#7",
                    "midi": 97,
                    "time": 207.35272000000248,
                    "velocity": 0.6141732283464567,
                    "duration": 0.11029400000001033
                },
                {
                    "name": "F6",
                    "midi": 89,
                    "time": 207.35272000000248,
                    "velocity": 0.44881889763779526,
                    "duration": 0.22058800000002066
                },
                {
                    "name": "C7",
                    "midi": 96,
                    "time": 207.4630140000025,
                    "velocity": 0.5433070866141733,
                    "duration": 0.09926459999999793
                },
                {
                    "name": "F6",
                    "midi": 89,
                    "time": 207.5733080000025,
                    "velocity": 0.4330708661417323,
                    "duration": 0.22058800000002066
                },
                {
                    "name": "C7",
                    "midi": 96,
                    "time": 207.5733080000025,
                    "velocity": 0.6062992125984252,
                    "duration": 0.11029400000001033
                },
                {
                    "name": "B6",
                    "midi": 95,
                    "time": 207.6836020000025,
                    "velocity": 0.5433070866141733,
                    "duration": 0.055147000000005164
                },
                {
                    "name": "C#7",
                    "midi": 97,
                    "time": 207.7387490000025,
                    "velocity": 0.4566929133858268,
                    "duration": 0.055147000000005164
                },
                {
                    "name": "C7",
                    "midi": 96,
                    "time": 207.79389600000252,
                    "velocity": 0.5669291338582677,
                    "duration": 0.11029400000001033
                },
                {
                    "name": "F6",
                    "midi": 89,
                    "time": 207.79389600000252,
                    "velocity": 0.5669291338582677,
                    "duration": 0.22058800000002066
                },
                {
                    "name": "A#6",
                    "midi": 94,
                    "time": 207.90419000000253,
                    "velocity": 0.5354330708661418,
                    "duration": 0.055147000000005164
                },
                {
                    "name": "C7",
                    "midi": 96,
                    "time": 207.95933700000253,
                    "velocity": 0.44881889763779526,
                    "duration": 0.055147000000005164
                },
                {
                    "name": "F6",
                    "midi": 89,
                    "time": 208.01448400000254,
                    "velocity": 0.5511811023622047,
                    "duration": 0.22058800000002066
                },
                {
                    "name": "A#6",
                    "midi": 94,
                    "time": 208.01448400000254,
                    "velocity": 0.5511811023622047,
                    "duration": 0.11029400000001033
                },
                {
                    "name": "A6",
                    "midi": 93,
                    "time": 208.12477800000255,
                    "velocity": 0.5354330708661418,
                    "duration": 0.055147000000005164
                },
                {
                    "name": "C#7",
                    "midi": 97,
                    "time": 208.17992500000256,
                    "velocity": 0.4566929133858268,
                    "duration": 0.055147000000005164
                },
                {
                    "name": "C7",
                    "midi": 96,
                    "time": 208.23507200000256,
                    "velocity": 0.5354330708661418,
                    "duration": 0.11029400000001033
                },
                {
                    "name": "F6",
                    "midi": 89,
                    "time": 208.23507200000256,
                    "velocity": 0.5354330708661418,
                    "duration": 0.22058800000002066
                },
                {
                    "name": "A#6",
                    "midi": 94,
                    "time": 208.34536600000257,
                    "velocity": 0.5354330708661418,
                    "duration": 0.055147000000005164
                },
                {
                    "name": "C7",
                    "midi": 96,
                    "time": 208.40051300000258,
                    "velocity": 0.44881889763779526,
                    "duration": 0.055147000000005164
                },
                {
                    "name": "F6",
                    "midi": 89,
                    "time": 208.45566000000258,
                    "velocity": 0.5196850393700787,
                    "duration": 0.22058800000002066
                },
                {
                    "name": "A#6",
                    "midi": 94,
                    "time": 208.45566000000258,
                    "velocity": 0.5196850393700787,
                    "duration": 0.11029400000001033
                },
                {
                    "name": "A6",
                    "midi": 93,
                    "time": 208.5659540000026,
                    "velocity": 0.4645669291338583,
                    "duration": 0.055147000000005164
                },
                {
                    "name": "C#7",
                    "midi": 97,
                    "time": 208.6211010000026,
                    "velocity": 0.41732283464566927,
                    "duration": 0.055147000000005164
                },
                {
                    "name": "C7",
                    "midi": 96,
                    "time": 208.6762480000026,
                    "velocity": 0.5196850393700787,
                    "duration": 0.11029400000001033
                },
                {
                    "name": "F6",
                    "midi": 89,
                    "time": 208.6762480000026,
                    "velocity": 0.5196850393700787,
                    "duration": 0.22058800000002066
                },
                {
                    "name": "A#6",
                    "midi": 94,
                    "time": 208.7865420000026,
                    "velocity": 0.4881889763779528,
                    "duration": 0.055147000000005164
                },
                {
                    "name": "C7",
                    "midi": 96,
                    "time": 208.84168900000262,
                    "velocity": 0.4094488188976378,
                    "duration": 0.055147000000005164
                },
                {
                    "name": "A#6",
                    "midi": 94,
                    "time": 208.89683600000262,
                    "velocity": 0.5039370078740157,
                    "duration": 0.11029400000001033
                },
                {
                    "name": "F6",
                    "midi": 89,
                    "time": 208.89683600000262,
                    "velocity": 0.5039370078740157,
                    "duration": 0.22058800000002066
                },
                {
                    "name": "A6",
                    "midi": 93,
                    "time": 209.00713000000263,
                    "velocity": 0.49606299212598426,
                    "duration": 0.055147000000005164
                },
                {
                    "name": "C#7",
                    "midi": 97,
                    "time": 209.06227700000264,
                    "velocity": 0.4094488188976378,
                    "duration": 0.055147000000005164
                },
                {
                    "name": "C7",
                    "midi": 96,
                    "time": 209.11742400000264,
                    "velocity": 0.4881889763779528,
                    "duration": 0.11029400000001033
                },
                {
                    "name": "F6",
                    "midi": 89,
                    "time": 209.11742400000264,
                    "velocity": 0.4881889763779528,
                    "duration": 0.22058800000002066
                },
                {
                    "name": "A#6",
                    "midi": 94,
                    "time": 209.22771800000265,
                    "velocity": 0.4881889763779528,
                    "duration": 0.055147000000005164
                },
                {
                    "name": "C7",
                    "midi": 96,
                    "time": 209.28286500000266,
                    "velocity": 0.4015748031496063,
                    "duration": 0.055147000000005164
                },
                {
                    "name": "F6",
                    "midi": 89,
                    "time": 209.33801200000266,
                    "velocity": 0.48031496062992124,
                    "duration": 0.22058800000002066
                },
                {
                    "name": "A#6",
                    "midi": 94,
                    "time": 209.33801200000266,
                    "velocity": 0.48031496062992124,
                    "duration": 0.11029400000001033
                },
                {
                    "name": "A6",
                    "midi": 93,
                    "time": 209.44830600000267,
                    "velocity": 0.4251968503937008,
                    "duration": 0.11029400000001033
                },
                {
                    "name": "F6",
                    "midi": 89,
                    "time": 209.55860000000268,
                    "velocity": 0.4881889763779528,
                    "duration": 0.11029400000001033
                },
                {
                    "name": "C7",
                    "midi": 96,
                    "time": 212.2056560000027,
                    "velocity": 0.4409448818897638,
                    "duration": 0.6617640000000051
                },
                {
                    "name": "A#6",
                    "midi": 94,
                    "time": 212.8674200000027,
                    "velocity": 0.4330708661417323,
                    "duration": 0.22058799999999223
                },
                {
                    "name": "G#6",
                    "midi": 92,
                    "time": 213.0880080000027,
                    "velocity": 0.48031496062992124,
                    "duration": 0.22058799999999223
                },
                {
                    "name": "G#6",
                    "midi": 92,
                    "time": 213.5291840000027,
                    "velocity": 0.4409448818897638,
                    "duration": 0.4411760000000129
                },
                {
                    "name": "F7",
                    "midi": 101,
                    "time": 214.8527120000027,
                    "velocity": 0.3937007874015748,
                    "duration": 0.03860290000000077
                },
                {
                    "name": "E7",
                    "midi": 100,
                    "time": 214.8913149000027,
                    "velocity": 0.3937007874015748,
                    "duration": 0.03860290000000077
                },
                {
                    "name": "D#7",
                    "midi": 99,
                    "time": 214.9299178000027,
                    "velocity": 0.3937007874015748,
                    "duration": 0.03860290000000077
                },
                {
                    "name": "D7",
                    "midi": 98,
                    "time": 214.9685207000027,
                    "velocity": 0.3858267716535433,
                    "duration": 0.03860290000000077
                },
                {
                    "name": "C#7",
                    "midi": 97,
                    "time": 215.0071236000027,
                    "velocity": 0.3858267716535433,
                    "duration": 0.03860290000000077
                },
                {
                    "name": "C7",
                    "midi": 96,
                    "time": 215.04480738333604,
                    "velocity": 0.3858267716535433,
                    "duration": 0.03860290000000077
                },
                {
                    "name": "B6",
                    "midi": 95,
                    "time": 215.08341028333604,
                    "velocity": 0.3858267716535433,
                    "duration": 0.03860290000000077
                },
                {
                    "name": "A#6",
                    "midi": 94,
                    "time": 215.12201318333604,
                    "velocity": 0.3779527559055118,
                    "duration": 0.03860290000000077
                },
                {
                    "name": "A6",
                    "midi": 93,
                    "time": 215.16061608333604,
                    "velocity": 0.3779527559055118,
                    "duration": 0.03860290000000077
                },
                {
                    "name": "G#6",
                    "midi": 92,
                    "time": 215.19921898333604,
                    "velocity": 0.3779527559055118,
                    "duration": 0.03860290000000077
                },
                {
                    "name": "G6",
                    "midi": 91,
                    "time": 215.23690276666937,
                    "velocity": 0.3700787401574803,
                    "duration": 0.03860290000000077
                },
                {
                    "name": "F#6",
                    "midi": 90,
                    "time": 215.27550566666937,
                    "velocity": 0.3700787401574803,
                    "duration": 0.03860290000000077
                },
                {
                    "name": "F6",
                    "midi": 89,
                    "time": 215.31410856666938,
                    "velocity": 0.3700787401574803,
                    "duration": 0.03860290000000077
                },
                {
                    "name": "E6",
                    "midi": 88,
                    "time": 215.35271146666938,
                    "velocity": 0.36220472440944884,
                    "duration": 0.03860290000000077
                },
                {
                    "name": "D#6",
                    "midi": 87,
                    "time": 215.39131436666938,
                    "velocity": 0.36220472440944884,
                    "duration": 0.03860290000000077
                },
                {
                    "name": "D6",
                    "midi": 86,
                    "time": 215.4289981500027,
                    "velocity": 0.36220472440944884,
                    "duration": 0.03860290000000077
                },
                {
                    "name": "C#6",
                    "midi": 85,
                    "time": 215.4676010500027,
                    "velocity": 0.36220472440944884,
                    "duration": 0.03860290000000077
                },
                {
                    "name": "C6",
                    "midi": 84,
                    "time": 215.5062039500027,
                    "velocity": 0.3543307086614173,
                    "duration": 0.03860290000000077
                },
                {
                    "name": "B5",
                    "midi": 83,
                    "time": 215.54480685000271,
                    "velocity": 0.3543307086614173,
                    "duration": 0.03860290000000077
                },
                {
                    "name": "A#5",
                    "midi": 82,
                    "time": 215.58340975000272,
                    "velocity": 0.3543307086614173,
                    "duration": 0.03860290000000077
                },
                {
                    "name": "A5",
                    "midi": 81,
                    "time": 215.62201265000272,
                    "velocity": 0.3464566929133858,
                    "duration": 0.03860290000000077
                },
                {
                    "name": "G#5",
                    "midi": 80,
                    "time": 215.65969643333605,
                    "velocity": 0.3464566929133858,
                    "duration": 0.03860290000000077
                },
                {
                    "name": "G5",
                    "midi": 79,
                    "time": 215.69829933333605,
                    "velocity": 0.3464566929133858,
                    "duration": 0.03676466666667011
                },
                {
                    "name": "F#5",
                    "midi": 78,
                    "time": 215.73506400000272,
                    "velocity": 0.3228346456692913,
                    "duration": 0.03860290000000077
                },
                {
                    "name": "F5",
                    "midi": 77,
                    "time": 215.77366690000272,
                    "velocity": 0.3228346456692913,
                    "duration": 0.03860290000000077
                },
                {
                    "name": "E5",
                    "midi": 76,
                    "time": 215.81226980000272,
                    "velocity": 0.31496062992125984,
                    "duration": 0.03860290000000077
                },
                {
                    "name": "D#5",
                    "midi": 75,
                    "time": 215.85087270000272,
                    "velocity": 0.31496062992125984,
                    "duration": 0.03860290000000077
                },
                {
                    "name": "D5",
                    "midi": 74,
                    "time": 215.88947560000273,
                    "velocity": 0.30708661417322836,
                    "duration": 0.03860290000000077
                },
                {
                    "name": "C#5",
                    "midi": 73,
                    "time": 215.92807850000273,
                    "velocity": 0.30708661417322836,
                    "duration": 0.03860290000000077
                },
                {
                    "name": "C5",
                    "midi": 72,
                    "time": 215.96668140000273,
                    "velocity": 0.2992125984251969,
                    "duration": 0.03860290000000077
                },
                {
                    "name": "B4",
                    "midi": 71,
                    "time": 216.00528430000273,
                    "velocity": 0.29133858267716534,
                    "duration": 0.03860290000000077
                },
                {
                    "name": "A#4",
                    "midi": 70,
                    "time": 216.04388720000273,
                    "velocity": 0.29133858267716534,
                    "duration": 0.03860290000000077
                },
                {
                    "name": "A4",
                    "midi": 69,
                    "time": 216.08249010000273,
                    "velocity": 0.28346456692913385,
                    "duration": 0.03860290000000077
                },
                {
                    "name": "G#4",
                    "midi": 68,
                    "time": 216.12109300000273,
                    "velocity": 0.28346456692913385,
                    "duration": 0.03860290000000077
                },
                {
                    "name": "G4",
                    "midi": 67,
                    "time": 216.15969590000273,
                    "velocity": 0.2755905511811024,
                    "duration": 0.03860290000000077
                },
                {
                    "name": "F#4",
                    "midi": 66,
                    "time": 216.19829880000273,
                    "velocity": 0.2755905511811024,
                    "duration": 0.03860290000000077
                },
                {
                    "name": "F4",
                    "midi": 65,
                    "time": 216.23690170000273,
                    "velocity": 0.2677165354330709,
                    "duration": 0.03860290000000077
                },
                {
                    "name": "E4",
                    "midi": 64,
                    "time": 216.27550460000273,
                    "velocity": 0.25984251968503935,
                    "duration": 0.03860290000000077
                },
                {
                    "name": "D#4",
                    "midi": 63,
                    "time": 216.31410750000273,
                    "velocity": 0.25984251968503935,
                    "duration": 0.03860290000000077
                },
                {
                    "name": "D4",
                    "midi": 62,
                    "time": 216.35271040000274,
                    "velocity": 0.25196850393700787,
                    "duration": 0.03860290000000077
                },
                {
                    "name": "C#4",
                    "midi": 61,
                    "time": 216.39131330000274,
                    "velocity": 0.25196850393700787,
                    "duration": 0.03860290000000077
                },
                {
                    "name": "C4",
                    "midi": 60,
                    "time": 216.42991620000274,
                    "velocity": 0.2440944881889764,
                    "duration": 0.03860290000000077
                },
                {
                    "name": "B3",
                    "midi": 59,
                    "time": 216.46851910000274,
                    "velocity": 0.2440944881889764,
                    "duration": 0.03860290000000077
                },
                {
                    "name": "A#3",
                    "midi": 58,
                    "time": 216.50712200000274,
                    "velocity": 0.23622047244094488,
                    "duration": 0.03860290000000077
                },
                {
                    "name": "A3",
                    "midi": 57,
                    "time": 216.54572490000274,
                    "velocity": 0.23622047244094488,
                    "duration": 0.03860290000000077
                },
                {
                    "name": "G#3",
                    "midi": 56,
                    "time": 216.58432780000274,
                    "velocity": 0.2283464566929134,
                    "duration": 0.03308820000000878
                },
                {
                    "name": "C#4",
                    "midi": 61,
                    "time": 216.78285700000274,
                    "velocity": 0.29133858267716534,
                    "duration": 0.055147000000005164
                },
                {
                    "name": "F4",
                    "midi": 65,
                    "time": 216.83800400000274,
                    "velocity": 0.30708661417322836,
                    "duration": 0.055147000000005164
                },
                {
                    "name": "G#4",
                    "midi": 68,
                    "time": 216.89315100000275,
                    "velocity": 0.3228346456692913,
                    "duration": 0.055147000000005164
                },
                {
                    "name": "C#5",
                    "midi": 73,
                    "time": 216.94829800000275,
                    "velocity": 0.33858267716535434,
                    "duration": 0.055147000000005164
                },
                {
                    "name": "F5",
                    "midi": 77,
                    "time": 217.00344500000276,
                    "velocity": 0.3464566929133858,
                    "duration": 0.055147000000005164
                },
                {
                    "name": "G#5",
                    "midi": 80,
                    "time": 217.05859200000276,
                    "velocity": 0.36220472440944884,
                    "duration": 0.055147000000005164
                },
                {
                    "name": "C#6",
                    "midi": 85,
                    "time": 217.11373900000277,
                    "velocity": 0.3779527559055118,
                    "duration": 0.055147000000005164
                },
                {
                    "name": "F6",
                    "midi": 89,
                    "time": 217.16888600000277,
                    "velocity": 0.3858267716535433,
                    "duration": 0.055147000000005164
                },
                {
                    "name": "G#6",
                    "midi": 92,
                    "time": 217.22403300000278,
                    "velocity": 0.4015748031496063,
                    "duration": 0.055147000000005164
                },
                {
                    "name": "C#7",
                    "midi": 97,
                    "time": 217.27918000000278,
                    "velocity": 0.41732283464566927,
                    "duration": 0.11029400000001033
                },
                {
                    "name": "F5",
                    "midi": 77,
                    "time": 218.0512380000028,
                    "velocity": 0.28346456692913385,
                    "duration": 0.11029400000001033
                },
                {
                    "name": "C#5",
                    "midi": 73,
                    "time": 218.0512380000028,
                    "velocity": 0.28346456692913385,
                    "duration": 0.11029400000001033
                },
                {
                    "name": "D#5",
                    "midi": 75,
                    "time": 218.1615320000028,
                    "velocity": 0.31496062992125984,
                    "duration": 0.11029400000001033
                },
                {
                    "name": "F#5",
                    "midi": 78,
                    "time": 218.1615320000028,
                    "velocity": 0.31496062992125984,
                    "duration": 0.11029400000001033
                },
                {
                    "name": "E5",
                    "midi": 76,
                    "time": 218.27182600000282,
                    "velocity": 0.3543307086614173,
                    "duration": 0.11029400000001033
                },
                {
                    "name": "G5",
                    "midi": 79,
                    "time": 218.27182600000282,
                    "velocity": 0.3543307086614173,
                    "duration": 0.11029400000001033
                },
                {
                    "name": "A#5",
                    "midi": 82,
                    "time": 218.38212000000283,
                    "velocity": 0.4015748031496063,
                    "duration": 0.11029400000001033
                },
                {
                    "name": "F#5",
                    "midi": 78,
                    "time": 218.38212000000283,
                    "velocity": 0.4015748031496063,
                    "duration": 0.11029400000001033
                },
                {
                    "name": "G#5",
                    "midi": 80,
                    "time": 218.49241400000284,
                    "velocity": 0.33070866141732286,
                    "duration": 0.09926459999999793
                },
                {
                    "name": "F5",
                    "midi": 77,
                    "time": 218.49241400000284,
                    "velocity": 0.33070866141732286,
                    "duration": 0.09926459999999793
                },
                {
                    "name": "G#5",
                    "midi": 80,
                    "time": 218.60270800000285,
                    "velocity": 0.33070866141732286,
                    "duration": 0.11029400000001033
                },
                {
                    "name": "F5",
                    "midi": 77,
                    "time": 218.60270800000285,
                    "velocity": 0.33070866141732286,
                    "duration": 0.11029400000001033
                },
                {
                    "name": "G5",
                    "midi": 79,
                    "time": 218.71300200000286,
                    "velocity": 0.33070866141732286,
                    "duration": 0.09926459999999793
                },
                {
                    "name": "E5",
                    "midi": 76,
                    "time": 218.71300200000286,
                    "velocity": 0.33070866141732286,
                    "duration": 0.09926459999999793
                },
                {
                    "name": "A#5",
                    "midi": 82,
                    "time": 218.82329600000287,
                    "velocity": 0.3700787401574803,
                    "duration": 0.11029400000001033
                },
                {
                    "name": "F#5",
                    "midi": 78,
                    "time": 218.82329600000287,
                    "velocity": 0.3700787401574803,
                    "duration": 0.11029400000001033
                },
                {
                    "name": "G#5",
                    "midi": 80,
                    "time": 218.93359000000288,
                    "velocity": 0.3228346456692913,
                    "duration": 0.09926459999999793
                },
                {
                    "name": "F5",
                    "midi": 77,
                    "time": 218.93359000000288,
                    "velocity": 0.3228346456692913,
                    "duration": 0.09926459999999793
                },
                {
                    "name": "F5",
                    "midi": 77,
                    "time": 219.0438840000029,
                    "velocity": 0.33070866141732286,
                    "duration": 0.11029400000001033
                },
                {
                    "name": "G#5",
                    "midi": 80,
                    "time": 219.0438840000029,
                    "velocity": 0.33070866141732286,
                    "duration": 0.11029400000001033
                },
                {
                    "name": "G5",
                    "midi": 79,
                    "time": 219.1541780000029,
                    "velocity": 0.3464566929133858,
                    "duration": 0.09926459999999793
                },
                {
                    "name": "E5",
                    "midi": 76,
                    "time": 219.1541780000029,
                    "velocity": 0.3464566929133858,
                    "duration": 0.09926459999999793
                },
                {
                    "name": "A#5",
                    "midi": 82,
                    "time": 219.2644720000029,
                    "velocity": 0.4094488188976378,
                    "duration": 0.11029400000001033
                },
                {
                    "name": "F#5",
                    "midi": 78,
                    "time": 219.2644720000029,
                    "velocity": 0.4094488188976378,
                    "duration": 0.11029400000001033
                },
                {
                    "name": "G#5",
                    "midi": 80,
                    "time": 219.37476600000292,
                    "velocity": 0.3543307086614173,
                    "duration": 0.09926459999999793
                },
                {
                    "name": "F5",
                    "midi": 77,
                    "time": 219.37476600000292,
                    "velocity": 0.3543307086614173,
                    "duration": 0.09926459999999793
                },
                {
                    "name": "G#5",
                    "midi": 80,
                    "time": 219.48506000000293,
                    "velocity": 0.3543307086614173,
                    "duration": 0.11029400000001033
                },
                {
                    "name": "F5",
                    "midi": 77,
                    "time": 219.48506000000293,
                    "velocity": 0.3543307086614173,
                    "duration": 0.11029400000001033
                },
                {
                    "name": "G5",
                    "midi": 79,
                    "time": 219.59535400000294,
                    "velocity": 0.3543307086614173,
                    "duration": 0.09926459999999793
                },
                {
                    "name": "E5",
                    "midi": 76,
                    "time": 219.59535400000294,
                    "velocity": 0.3543307086614173,
                    "duration": 0.09926459999999793
                },
                {
                    "name": "A#5",
                    "midi": 82,
                    "time": 219.70564800000295,
                    "velocity": 0.4251968503937008,
                    "duration": 0.11029400000001033
                },
                {
                    "name": "F#5",
                    "midi": 78,
                    "time": 219.70564800000295,
                    "velocity": 0.4251968503937008,
                    "duration": 0.11029400000001033
                },
                {
                    "name": "G#5",
                    "midi": 80,
                    "time": 219.81594200000296,
                    "velocity": 0.3700787401574803,
                    "duration": 0.09926459999999793
                },
                {
                    "name": "F5",
                    "midi": 77,
                    "time": 219.81594200000296,
                    "velocity": 0.3700787401574803,
                    "duration": 0.09926459999999793
                },
                {
                    "name": "F5",
                    "midi": 77,
                    "time": 219.92623600000297,
                    "velocity": 0.3779527559055118,
                    "duration": 0.11029400000001033
                },
                {
                    "name": "G#5",
                    "midi": 80,
                    "time": 219.92623600000297,
                    "velocity": 0.3779527559055118,
                    "duration": 0.11029400000001033
                },
                {
                    "name": "G5",
                    "midi": 79,
                    "time": 220.03653000000298,
                    "velocity": 0.3937007874015748,
                    "duration": 0.09926459999999793
                },
                {
                    "name": "E5",
                    "midi": 76,
                    "time": 220.03653000000298,
                    "velocity": 0.3937007874015748,
                    "duration": 0.09926459999999793
                },
                {
                    "name": "A#5",
                    "midi": 82,
                    "time": 220.146824000003,
                    "velocity": 0.4566929133858268,
                    "duration": 0.11029400000001033
                },
                {
                    "name": "F#5",
                    "midi": 78,
                    "time": 220.146824000003,
                    "velocity": 0.4566929133858268,
                    "duration": 0.11029400000001033
                },
                {
                    "name": "G#5",
                    "midi": 80,
                    "time": 220.257118000003,
                    "velocity": 0.4015748031496063,
                    "duration": 0.09926459999999793
                },
                {
                    "name": "F5",
                    "midi": 77,
                    "time": 220.257118000003,
                    "velocity": 0.4015748031496063,
                    "duration": 0.09926459999999793
                },
                {
                    "name": "G#5",
                    "midi": 80,
                    "time": 220.36741200000301,
                    "velocity": 0.4015748031496063,
                    "duration": 0.11029400000001033
                },
                {
                    "name": "F5",
                    "midi": 77,
                    "time": 220.36741200000301,
                    "velocity": 0.4015748031496063,
                    "duration": 0.11029400000001033
                },
                {
                    "name": "G5",
                    "midi": 79,
                    "time": 220.47770600000302,
                    "velocity": 0.4015748031496063,
                    "duration": 0.09926459999999793
                },
                {
                    "name": "E5",
                    "midi": 76,
                    "time": 220.47770600000302,
                    "velocity": 0.4015748031496063,
                    "duration": 0.09926459999999793
                },
                {
                    "name": "A#5",
                    "midi": 82,
                    "time": 220.58800000000303,
                    "velocity": 0.4645669291338583,
                    "duration": 0.11029400000001033
                },
                {
                    "name": "F#5",
                    "midi": 78,
                    "time": 220.58800000000303,
                    "velocity": 0.4645669291338583,
                    "duration": 0.11029400000001033
                },
                {
                    "name": "G#5",
                    "midi": 80,
                    "time": 220.69829400000305,
                    "velocity": 0.4251968503937008,
                    "duration": 0.09926459999999793
                },
                {
                    "name": "F5",
                    "midi": 77,
                    "time": 220.69829400000305,
                    "velocity": 0.4251968503937008,
                    "duration": 0.09926459999999793
                },
                {
                    "name": "F5",
                    "midi": 77,
                    "time": 220.80858800000306,
                    "velocity": 0.4251968503937008,
                    "duration": 0.11029400000001033
                },
                {
                    "name": "G#5",
                    "midi": 80,
                    "time": 220.80858800000306,
                    "velocity": 0.4251968503937008,
                    "duration": 0.11029400000001033
                },
                {
                    "name": "G5",
                    "midi": 79,
                    "time": 220.91888200000307,
                    "velocity": 0.4251968503937008,
                    "duration": 0.09926459999999793
                },
                {
                    "name": "E5",
                    "midi": 76,
                    "time": 220.91888200000307,
                    "velocity": 0.4251968503937008,
                    "duration": 0.09926459999999793
                },
                {
                    "name": "F#5",
                    "midi": 78,
                    "time": 221.02917600000308,
                    "velocity": 0.5196850393700787,
                    "duration": 0.11029400000001033
                },
                {
                    "name": "A#5",
                    "midi": 82,
                    "time": 221.02917600000308,
                    "velocity": 0.5196850393700787,
                    "duration": 0.11029400000001033
                },
                {
                    "name": "F5",
                    "midi": 77,
                    "time": 221.1394700000031,
                    "velocity": 0.48031496062992124,
                    "duration": 0.09926459999999793
                },
                {
                    "name": "G#5",
                    "midi": 80,
                    "time": 221.1394700000031,
                    "velocity": 0.48031496062992124,
                    "duration": 0.09926459999999793
                },
                {
                    "name": "G#5",
                    "midi": 80,
                    "time": 221.2497640000031,
                    "velocity": 0.49606299212598426,
                    "duration": 0.11029400000001033
                },
                {
                    "name": "F5",
                    "midi": 77,
                    "time": 221.2497640000031,
                    "velocity": 0.4015748031496063,
                    "duration": 0.22058800000002066
                },
                {
                    "name": "F6",
                    "midi": 89,
                    "time": 221.3600580000031,
                    "velocity": 0.5275590551181102,
                    "duration": 0.09926459999999793
                },
                {
                    "name": "F6",
                    "midi": 89,
                    "time": 221.47035200000312,
                    "velocity": 0.5748031496062992,
                    "duration": 0.11029400000001033
                },
                {
                    "name": "F5",
                    "midi": 77,
                    "time": 221.47035200000312,
                    "velocity": 0.4251968503937008,
                    "duration": 0.22058800000002066
                },
                {
                    "name": "E6",
                    "midi": 88,
                    "time": 221.58064600000313,
                    "velocity": 0.5590551181102362,
                    "duration": 0.09926459999999793
                },
                {
                    "name": "E6",
                    "midi": 88,
                    "time": 221.69094000000314,
                    "velocity": 0.5748031496062992,
                    "duration": 0.11029400000001033
                },
                {
                    "name": "F5",
                    "midi": 77,
                    "time": 221.69094000000314,
                    "velocity": 0.4015748031496063,
                    "duration": 0.22058799999999223
                },
                {
                    "name": "D#6",
                    "midi": 87,
                    "time": 221.80123400000315,
                    "velocity": 0.5275590551181102,
                    "duration": 0.10386018333332458
                },
                {
                    "name": "D#6",
                    "midi": 87,
                    "time": 221.91152800000313,
                    "velocity": 0.5669291338582677,
                    "duration": 0.11029400000001033
                },
                {
                    "name": "F5",
                    "midi": 77,
                    "time": 221.91152800000313,
                    "velocity": 0.4251968503937008,
                    "duration": 0.22058800000002066
                },
                {
                    "name": "D6",
                    "midi": 86,
                    "time": 222.02182200000314,
                    "velocity": 0.5433070866141733,
                    "duration": 0.09926459999999793
                },
                {
                    "name": "D6",
                    "midi": 86,
                    "time": 222.13211600000315,
                    "velocity": 0.5669291338582677,
                    "duration": 0.11029400000001033
                },
                {
                    "name": "F5",
                    "midi": 77,
                    "time": 222.13211600000315,
                    "velocity": 0.4015748031496063,
                    "duration": 0.22058800000002066
                },
                {
                    "name": "C#6",
                    "midi": 85,
                    "time": 222.24241000000316,
                    "velocity": 0.5275590551181102,
                    "duration": 0.09926459999999793
                },
                {
                    "name": "C#6",
                    "midi": 85,
                    "time": 222.35270400000317,
                    "velocity": 0.5511811023622047,
                    "duration": 0.11029400000001033
                },
                {
                    "name": "F5",
                    "midi": 77,
                    "time": 222.35270400000317,
                    "velocity": 0.4015748031496063,
                    "duration": 0.22058800000002066
                },
                {
                    "name": "C6",
                    "midi": 84,
                    "time": 222.46299800000318,
                    "velocity": 0.4881889763779528,
                    "duration": 0.09926459999999793
                },
                {
                    "name": "C6",
                    "midi": 84,
                    "time": 222.5732920000032,
                    "velocity": 0.5433070866141733,
                    "duration": 0.11029400000001033
                },
                {
                    "name": "F5",
                    "midi": 77,
                    "time": 222.5732920000032,
                    "velocity": 0.3858267716535433,
                    "duration": 0.22058800000002066
                },
                {
                    "name": "B5",
                    "midi": 83,
                    "time": 222.6835860000032,
                    "velocity": 0.4881889763779528,
                    "duration": 0.055147000000005164
                },
                {
                    "name": "C#6",
                    "midi": 85,
                    "time": 222.7387330000032,
                    "velocity": 0.4094488188976378,
                    "duration": 0.055147000000005164
                },
                {
                    "name": "C6",
                    "midi": 84,
                    "time": 222.7938800000032,
                    "velocity": 0.5039370078740157,
                    "duration": 0.11029400000001033
                },
                {
                    "name": "F5",
                    "midi": 77,
                    "time": 222.7938800000032,
                    "velocity": 0.5039370078740157,
                    "duration": 0.22058800000002066
                },
                {
                    "name": "A#5",
                    "midi": 82,
                    "time": 222.90417400000322,
                    "velocity": 0.48031496062992124,
                    "duration": 0.055147000000005164
                },
                {
                    "name": "C6",
                    "midi": 84,
                    "time": 222.95932100000323,
                    "velocity": 0.4015748031496063,
                    "duration": 0.055147000000005164
                },
                {
                    "name": "A#5",
                    "midi": 82,
                    "time": 223.01446800000323,
                    "velocity": 0.49606299212598426,
                    "duration": 0.11029400000001033
                },
                {
                    "name": "F5",
                    "midi": 77,
                    "time": 223.01446800000323,
                    "velocity": 0.49606299212598426,
                    "duration": 0.22058800000002066
                },
                {
                    "name": "A5",
                    "midi": 81,
                    "time": 223.12476200000324,
                    "velocity": 0.48031496062992124,
                    "duration": 0.055147000000005164
                },
                {
                    "name": "C#6",
                    "midi": 85,
                    "time": 223.17990900000325,
                    "velocity": 0.4094488188976378,
                    "duration": 0.055147000000005164
                },
                {
                    "name": "C6",
                    "midi": 84,
                    "time": 223.23505600000325,
                    "velocity": 0.48031496062992124,
                    "duration": 0.11029400000001033
                },
                {
                    "name": "F5",
                    "midi": 77,
                    "time": 223.23505600000325,
                    "velocity": 0.48031496062992124,
                    "duration": 0.22058800000002066
                },
                {
                    "name": "A#5",
                    "midi": 82,
                    "time": 223.34535000000326,
                    "velocity": 0.48031496062992124,
                    "duration": 0.055147000000005164
                },
                {
                    "name": "C6",
                    "midi": 84,
                    "time": 223.40049700000327,
                    "velocity": 0.4015748031496063,
                    "duration": 0.055147000000005164
                },
                {
                    "name": "A#5",
                    "midi": 82,
                    "time": 223.45564400000328,
                    "velocity": 0.4645669291338583,
                    "duration": 0.11029400000001033
                },
                {
                    "name": "F5",
                    "midi": 77,
                    "time": 223.45564400000328,
                    "velocity": 0.4645669291338583,
                    "duration": 0.22058800000002066
                },
                {
                    "name": "A5",
                    "midi": 81,
                    "time": 223.56593800000329,
                    "velocity": 0.41732283464566927,
                    "duration": 0.055147000000005164
                },
                {
                    "name": "C#6",
                    "midi": 85,
                    "time": 223.6210850000033,
                    "velocity": 0.3700787401574803,
                    "duration": 0.055147000000005164
                },
                {
                    "name": "C6",
                    "midi": 84,
                    "time": 223.6762320000033,
                    "velocity": 0.4645669291338583,
                    "duration": 0.11029400000001033
                },
                {
                    "name": "F5",
                    "midi": 77,
                    "time": 223.6762320000033,
                    "velocity": 0.4645669291338583,
                    "duration": 0.22058800000002066
                },
                {
                    "name": "A#5",
                    "midi": 82,
                    "time": 223.7865260000033,
                    "velocity": 0.4330708661417323,
                    "duration": 0.055147000000005164
                },
                {
                    "name": "C6",
                    "midi": 84,
                    "time": 223.8416730000033,
                    "velocity": 0.36220472440944884,
                    "duration": 0.055147000000005164
                },
                {
                    "name": "A#5",
                    "midi": 82,
                    "time": 223.89682000000332,
                    "velocity": 0.44881889763779526,
                    "duration": 0.11029400000001033
                },
                {
                    "name": "F5",
                    "midi": 77,
                    "time": 223.89682000000332,
                    "velocity": 0.44881889763779526,
                    "duration": 0.22058800000002066
                },
                {
                    "name": "A5",
                    "midi": 81,
                    "time": 224.00711400000333,
                    "velocity": 0.4409448818897638,
                    "duration": 0.055147000000005164
                },
                {
                    "name": "C#6",
                    "midi": 85,
                    "time": 224.06226100000333,
                    "velocity": 0.36220472440944884,
                    "duration": 0.055147000000005164
                },
                {
                    "name": "C6",
                    "midi": 84,
                    "time": 224.11740800000334,
                    "velocity": 0.4330708661417323,
                    "duration": 0.11029400000001033
                },
                {
                    "name": "F5",
                    "midi": 77,
                    "time": 224.11740800000334,
                    "velocity": 0.4330708661417323,
                    "duration": 0.22058800000002066
                },
                {
                    "name": "A#5",
                    "midi": 82,
                    "time": 224.22770200000335,
                    "velocity": 0.4330708661417323,
                    "duration": 0.055147000000005164
                },
                {
                    "name": "C6",
                    "midi": 84,
                    "time": 224.28284900000335,
                    "velocity": 0.3543307086614173,
                    "duration": 0.055147000000005164
                },
                {
                    "name": "A#5",
                    "midi": 82,
                    "time": 224.33799600000336,
                    "velocity": 0.4251968503937008,
                    "duration": 0.11029400000001033
                },
                {
                    "name": "F5",
                    "midi": 77,
                    "time": 224.33799600000336,
                    "velocity": 0.4251968503937008,
                    "duration": 0.22058800000002066
                },
                {
                    "name": "A5",
                    "midi": 81,
                    "time": 224.44829000000337,
                    "velocity": 0.3779527559055118,
                    "duration": 0.11029400000001033
                },
                {
                    "name": "F5",
                    "midi": 77,
                    "time": 224.55858400000338,
                    "velocity": 0.4330708661417323,
                    "duration": 0.8823519999999974
                },
                {
                    "name": "A5",
                    "midi": 81,
                    "time": 225.44093600000338,
                    "velocity": 0.33070866141732286,
                    "duration": 0.07352933333334022
                },
                {
                    "name": "A#5",
                    "midi": 82,
                    "time": 225.51446533333672,
                    "velocity": 0.33858267716535434,
                    "duration": 0.07352933333334022
                },
                {
                    "name": "B5",
                    "midi": 83,
                    "time": 225.58799466667006,
                    "velocity": 0.3464566929133858,
                    "duration": 0.055147000000005164
                },
                {
                    "name": "C6",
                    "midi": 84,
                    "time": 225.6615240000034,
                    "velocity": 0.3543307086614173,
                    "duration": 0.07352933333334022
                },
                {
                    "name": "C#6",
                    "midi": 85,
                    "time": 225.73505333333674,
                    "velocity": 0.36220472440944884,
                    "duration": 0.07352933333334022
                },
                {
                    "name": "D6",
                    "midi": 86,
                    "time": 225.80858266667008,
                    "velocity": 0.3700787401574803,
                    "duration": 0.07352933333334022
                },
                {
                    "name": "D#6",
                    "midi": 87,
                    "time": 225.88211200000342,
                    "velocity": 0.3779527559055118,
                    "duration": 0.07352933333334022
                },
                {
                    "name": "E6",
                    "midi": 88,
                    "time": 225.95564133333676,
                    "velocity": 0.3858267716535433,
                    "duration": 0.07352933333334022
                },
                {
                    "name": "F6",
                    "midi": 89,
                    "time": 226.0291706666701,
                    "velocity": 0.3937007874015748,
                    "duration": 0.07352933333334022
                },
                {
                    "name": "F#6",
                    "midi": 90,
                    "time": 226.10270000000344,
                    "velocity": 0.4015748031496063,
                    "duration": 0.07352933333334022
                },
                {
                    "name": "G6",
                    "midi": 91,
                    "time": 226.17622933333678,
                    "velocity": 0.4094488188976378,
                    "duration": 0.07352933333334022
                },
                {
                    "name": "G#6",
                    "midi": 92,
                    "time": 226.24975866667012,
                    "velocity": 0.41732283464566927,
                    "duration": 0.07352933333334022
                },
                {
                    "name": "A6",
                    "midi": 93,
                    "time": 226.32328800000346,
                    "velocity": 0.4251968503937008,
                    "duration": 0.07352933333334022
                },
                {
                    "name": "A#6",
                    "midi": 94,
                    "time": 226.3968173333368,
                    "velocity": 0.4330708661417323,
                    "duration": 0.07352933333334022
                },
                {
                    "name": "B6",
                    "midi": 95,
                    "time": 226.47034666667014,
                    "velocity": 0.4409448818897638,
                    "duration": 0.07352933333334022
                },
                {
                    "name": "C7",
                    "midi": 96,
                    "time": 226.54387600000348,
                    "velocity": 0.44881889763779526,
                    "duration": 0.07352933333334022
                },
                {
                    "name": "C#7",
                    "midi": 97,
                    "time": 226.61740533333682,
                    "velocity": 0.4566929133858268,
                    "duration": 0.07352933333334022
                },
                {
                    "name": "D#7",
                    "midi": 99,
                    "time": 226.69093466667016,
                    "velocity": 0.4645669291338583,
                    "duration": 0.07352933333334022
                },
                {
                    "name": "C#7",
                    "midi": 97,
                    "time": 226.7644640000035,
                    "velocity": 0.49606299212598426,
                    "duration": 0.04411759999999276
                },
                {
                    "name": "D#7",
                    "midi": 99,
                    "time": 226.8085816000035,
                    "velocity": 0.3543307086614173,
                    "duration": 0.04411759999999276
                },
                {
                    "name": "C#7",
                    "midi": 97,
                    "time": 226.85269920000349,
                    "velocity": 0.3543307086614173,
                    "duration": 0.04411759999999276
                },
                {
                    "name": "C7",
                    "midi": 96,
                    "time": 226.89681680000348,
                    "velocity": 0.3543307086614173,
                    "duration": 0.04411759999999276
                },
                {
                    "name": "C#7",
                    "midi": 97,
                    "time": 226.94093440000347,
                    "velocity": 0.3543307086614173,
                    "duration": 0.04411759999999276
                },
                {
                    "name": "D#7",
                    "midi": 99,
                    "time": 226.98505200000346,
                    "velocity": 0.4015748031496063,
                    "duration": 0.055147000000005164
                },
                {
                    "name": "C#7",
                    "midi": 97,
                    "time": 227.04019900000347,
                    "velocity": 0.36220472440944884,
                    "duration": 0.055147000000005164
                },
                {
                    "name": "A#6",
                    "midi": 94,
                    "time": 227.09534600000347,
                    "velocity": 0.36220472440944884,
                    "duration": 0.055147000000005164
                },
                {
                    "name": "G#6",
                    "midi": 92,
                    "time": 227.15049300000348,
                    "velocity": 0.36220472440944884,
                    "duration": 0.055147000000005164
                },
                {
                    "name": "C#7",
                    "midi": 97,
                    "time": 227.20564000000348,
                    "velocity": 0.4015748031496063,
                    "duration": 0.055147000000005164
                },
                {
                    "name": "A#6",
                    "midi": 94,
                    "time": 227.2607870000035,
                    "velocity": 0.36220472440944884,
                    "duration": 0.055147000000005164
                },
                {
                    "name": "G#6",
                    "midi": 92,
                    "time": 227.3159340000035,
                    "velocity": 0.36220472440944884,
                    "duration": 0.055147000000005164
                },
                {
                    "name": "F#6",
                    "midi": 90,
                    "time": 227.3710810000035,
                    "velocity": 0.36220472440944884,
                    "duration": 0.055147000000005164
                },
                {
                    "name": "A#6",
                    "midi": 94,
                    "time": 227.4262280000035,
                    "velocity": 0.4015748031496063,
                    "duration": 0.055147000000005164
                },
                {
                    "name": "G#6",
                    "midi": 92,
                    "time": 227.4813750000035,
                    "velocity": 0.36220472440944884,
                    "duration": 0.055147000000005164
                },
                {
                    "name": "F#6",
                    "midi": 90,
                    "time": 227.53652200000352,
                    "velocity": 0.36220472440944884,
                    "duration": 0.055147000000005164
                },
                {
                    "name": "D#6",
                    "midi": 87,
                    "time": 227.59166900000352,
                    "velocity": 0.36220472440944884,
                    "duration": 0.055147000000005164
                },
                {
                    "name": "G#6",
                    "midi": 92,
                    "time": 227.64681600000353,
                    "velocity": 0.4015748031496063,
                    "duration": 0.055147000000005164
                },
                {
                    "name": "F#6",
                    "midi": 90,
                    "time": 227.70196300000353,
                    "velocity": 0.3543307086614173,
                    "duration": 0.055147000000005164
                },
                {
                    "name": "D#6",
                    "midi": 87,
                    "time": 227.75711000000354,
                    "velocity": 0.3543307086614173,
                    "duration": 0.055147000000005164
                },
                {
                    "name": "C#6",
                    "midi": 85,
                    "time": 227.81225700000354,
                    "velocity": 0.3543307086614173,
                    "duration": 0.055147000000005164
                },
                {
                    "name": "F#6",
                    "midi": 90,
                    "time": 227.86740400000355,
                    "velocity": 0.4015748031496063,
                    "duration": 0.055147000000005164
                },
                {
                    "name": "D#6",
                    "midi": 87,
                    "time": 227.92255100000355,
                    "velocity": 0.3543307086614173,
                    "duration": 0.055147000000005164
                },
                {
                    "name": "C#6",
                    "midi": 85,
                    "time": 227.97769800000356,
                    "velocity": 0.3543307086614173,
                    "duration": 0.055147000000005164
                },
                {
                    "name": "A#5",
                    "midi": 82,
                    "time": 228.03284500000356,
                    "velocity": 0.3543307086614173,
                    "duration": 0.055147000000005164
                },
                {
                    "name": "D#6",
                    "midi": 87,
                    "time": 228.08799200000357,
                    "velocity": 0.4015748031496063,
                    "duration": 0.055147000000005164
                },
                {
                    "name": "C#6",
                    "midi": 85,
                    "time": 228.14313900000357,
                    "velocity": 0.3543307086614173,
                    "duration": 0.055147000000005164
                },
                {
                    "name": "A#5",
                    "midi": 82,
                    "time": 228.19828600000358,
                    "velocity": 0.3543307086614173,
                    "duration": 0.055147000000005164
                },
                {
                    "name": "G#5",
                    "midi": 80,
                    "time": 228.25343300000358,
                    "velocity": 0.3543307086614173,
                    "duration": 0.055147000000005164
                },
                {
                    "name": "C#6",
                    "midi": 85,
                    "time": 228.3085800000036,
                    "velocity": 0.4015748031496063,
                    "duration": 0.055147000000005164
                },
                {
                    "name": "A#5",
                    "midi": 82,
                    "time": 228.3637270000036,
                    "velocity": 0.3700787401574803,
                    "duration": 0.055147000000005164
                },
                {
                    "name": "G#5",
                    "midi": 80,
                    "time": 228.4188740000036,
                    "velocity": 0.3700787401574803,
                    "duration": 0.055147000000005164
                },
                {
                    "name": "F#5",
                    "midi": 78,
                    "time": 228.4740210000036,
                    "velocity": 0.3700787401574803,
                    "duration": 0.055147000000005164
                },
                {
                    "name": "A#5",
                    "midi": 82,
                    "time": 228.5291680000036,
                    "velocity": 0.4015748031496063,
                    "duration": 0.04779406666665409
                },
                {
                    "name": "G#5",
                    "midi": 80,
                    "time": 228.57696206667026,
                    "velocity": 0.36220472440944884,
                    "duration": 0.04779406666665409
                },
                {
                    "name": "F#5",
                    "midi": 78,
                    "time": 228.62567525000358,
                    "velocity": 0.36220472440944884,
                    "duration": 0.04779406666665409
                },
                {
                    "name": "D#5",
                    "midi": 75,
                    "time": 228.67346931667024,
                    "velocity": 0.36220472440944884,
                    "duration": 0.04779406666665409
                },
                {
                    "name": "G#5",
                    "midi": 80,
                    "time": 228.7212633833369,
                    "velocity": 0.4015748031496063,
                    "duration": 0.04779406666665409
                },
                {
                    "name": "F#5",
                    "midi": 78,
                    "time": 228.76905745000354,
                    "velocity": 0.3543307086614173,
                    "duration": 0.04779406666665409
                },
                {
                    "name": "D#5",
                    "midi": 75,
                    "time": 228.8168515166702,
                    "velocity": 0.3543307086614173,
                    "duration": 0.04779406666665409
                },
                {
                    "name": "C#5",
                    "midi": 73,
                    "time": 228.86556470000352,
                    "velocity": 0.3543307086614173,
                    "duration": 0.04779406666665409
                },
                {
                    "name": "F#5",
                    "midi": 78,
                    "time": 228.91335876667017,
                    "velocity": 0.4015748031496063,
                    "duration": 0.04779406666665409
                },
                {
                    "name": "D#5",
                    "midi": 75,
                    "time": 228.96115283333683,
                    "velocity": 0.3543307086614173,
                    "duration": 0.04779406666665409
                },
                {
                    "name": "C#5",
                    "midi": 73,
                    "time": 229.00894690000348,
                    "velocity": 0.3543307086614173,
                    "duration": 0.04779406666665409
                },
                {
                    "name": "A#4",
                    "midi": 70,
                    "time": 229.05674096667013,
                    "velocity": 0.3543307086614173,
                    "duration": 0.04779406666665409
                },
                {
                    "name": "D#5",
                    "midi": 75,
                    "time": 229.10545415000345,
                    "velocity": 0.4015748031496063,
                    "duration": 0.04779406666665409
                },
                {
                    "name": "C#5",
                    "midi": 73,
                    "time": 229.1532482166701,
                    "velocity": 0.3700787401574803,
                    "duration": 0.04779406666665409
                },
                {
                    "name": "A#4",
                    "midi": 70,
                    "time": 229.20104228333676,
                    "velocity": 0.3700787401574803,
                    "duration": 0.04779406666665409
                },
                {
                    "name": "G#4",
                    "midi": 68,
                    "time": 229.24883635000342,
                    "velocity": 0.3700787401574803,
                    "duration": 0.04779406666665409
                },
                {
                    "name": "A#4",
                    "midi": 70,
                    "time": 229.3563730000034,
                    "velocity": 0.49606299212598426,
                    "duration": 0.055147000000005164
                },
                {
                    "name": "A#3",
                    "midi": 58,
                    "time": 229.3563730000034,
                    "velocity": 0.4251968503937008,
                    "duration": 0.055147000000005164
                },
                {
                    "name": "C#4",
                    "midi": 61,
                    "time": 229.3563730000034,
                    "velocity": 0.4251968503937008,
                    "duration": 0.055147000000005164
                },
                {
                    "name": "G#4",
                    "midi": 68,
                    "time": 229.4115200000034,
                    "velocity": 0.5590551181102362,
                    "duration": 0.11029400000001033
                },
                {
                    "name": "G#3",
                    "midi": 56,
                    "time": 229.4115200000034,
                    "velocity": 0.47244094488188976,
                    "duration": 0.11029400000001033
                },
                {
                    "name": "C#4",
                    "midi": 61,
                    "time": 229.4115200000034,
                    "velocity": 0.47244094488188976,
                    "duration": 0.11029400000001033
                },
                {
                    "name": "G#6",
                    "midi": 92,
                    "time": 229.85269600000342,
                    "velocity": 0.4015748031496063,
                    "duration": 0.04411759999999276
                },
                {
                    "name": "A#6",
                    "midi": 94,
                    "time": 229.8968136000034,
                    "velocity": 0.36220472440944884,
                    "duration": 0.04411759999999276
                },
                {
                    "name": "G#6",
                    "midi": 92,
                    "time": 229.9409312000034,
                    "velocity": 0.3543307086614173,
                    "duration": 0.04411759999999276
                },
                {
                    "name": "G6",
                    "midi": 91,
                    "time": 229.9850488000034,
                    "velocity": 0.3543307086614173,
                    "duration": 0.04411759999999276
                },
                {
                    "name": "G#6",
                    "midi": 92,
                    "time": 230.0291664000034,
                    "velocity": 0.3543307086614173,
                    "duration": 0.04411759999999276
                },
                {
                    "name": "F7",
                    "midi": 101,
                    "time": 230.07328400000338,
                    "velocity": 0.4015748031496063,
                    "duration": 0.055147000000005164
                },
                {
                    "name": "D#7",
                    "midi": 99,
                    "time": 230.1284310000034,
                    "velocity": 0.3700787401574803,
                    "duration": 0.055147000000005164
                },
                {
                    "name": "C#7",
                    "midi": 97,
                    "time": 230.1835780000034,
                    "velocity": 0.3700787401574803,
                    "duration": 0.055147000000005164
                },
                {
                    "name": "A#6",
                    "midi": 94,
                    "time": 230.2387250000034,
                    "velocity": 0.3700787401574803,
                    "duration": 0.055147000000005164
                },
                {
                    "name": "D#7",
                    "midi": 99,
                    "time": 230.2938720000034,
                    "velocity": 0.4015748031496063,
                    "duration": 0.055147000000005164
                },
                {
                    "name": "C#7",
                    "midi": 97,
                    "time": 230.3490190000034,
                    "velocity": 0.36220472440944884,
                    "duration": 0.055147000000005164
                },
                {
                    "name": "A#6",
                    "midi": 94,
                    "time": 230.4041660000034,
                    "velocity": 0.36220472440944884,
                    "duration": 0.055147000000005164
                },
                {
                    "name": "G#6",
                    "midi": 92,
                    "time": 230.45931300000342,
                    "velocity": 0.36220472440944884,
                    "duration": 0.055147000000005164
                },
                {
                    "name": "C#7",
                    "midi": 97,
                    "time": 230.51446000000342,
                    "velocity": 0.4015748031496063,
                    "duration": 0.055147000000005164
                },
                {
                    "name": "A#6",
                    "midi": 94,
                    "time": 230.56960700000343,
                    "velocity": 0.36220472440944884,
                    "duration": 0.055147000000005164
                },
                {
                    "name": "G#6",
                    "midi": 92,
                    "time": 230.62475400000343,
                    "velocity": 0.36220472440944884,
                    "duration": 0.055147000000005164
                },
                {
                    "name": "F6",
                    "midi": 89,
                    "time": 230.67990100000344,
                    "velocity": 0.36220472440944884,
                    "duration": 0.055147000000005164
                },
                {
                    "name": "A#6",
                    "midi": 94,
                    "time": 230.73504800000345,
                    "velocity": 0.4015748031496063,
                    "duration": 0.055147000000005164
                },
                {
                    "name": "G#6",
                    "midi": 92,
                    "time": 230.79019500000345,
                    "velocity": 0.36220472440944884,
                    "duration": 0.055147000000005164
                },
                {
                    "name": "F6",
                    "midi": 89,
                    "time": 230.84534200000346,
                    "velocity": 0.36220472440944884,
                    "duration": 0.055147000000005164
                },
                {
                    "name": "D#6",
                    "midi": 87,
                    "time": 230.90048900000346,
                    "velocity": 0.36220472440944884,
                    "duration": 0.055147000000005164
                },
                {
                    "name": "G#6",
                    "midi": 92,
                    "time": 230.95563600000347,
                    "velocity": 0.4015748031496063,
                    "duration": 0.055147000000005164
                },
                {
                    "name": "F6",
                    "midi": 89,
                    "time": 231.01078300000347,
                    "velocity": 0.3543307086614173,
                    "duration": 0.055147000000005164
                },
                {
                    "name": "D#6",
                    "midi": 87,
                    "time": 231.06593000000348,
                    "velocity": 0.3543307086614173,
                    "duration": 0.055147000000005164
                },
                {
                    "name": "C#6",
                    "midi": 85,
                    "time": 231.12107700000348,
                    "velocity": 0.3543307086614173,
                    "duration": 0.055147000000005164
                },
                {
                    "name": "F6",
                    "midi": 89,
                    "time": 231.1762240000035,
                    "velocity": 0.4015748031496063,
                    "duration": 0.055147000000005164
                },
                {
                    "name": "D#6",
                    "midi": 87,
                    "time": 231.2313710000035,
                    "velocity": 0.3543307086614173,
                    "duration": 0.055147000000005164
                },
                {
                    "name": "C#6",
                    "midi": 85,
                    "time": 231.2865180000035,
                    "velocity": 0.3543307086614173,
                    "duration": 0.055147000000005164
                },
                {
                    "name": "A#5",
                    "midi": 82,
                    "time": 231.3416650000035,
                    "velocity": 0.3543307086614173,
                    "duration": 0.055147000000005164
                },
                {
                    "name": "D#6",
                    "midi": 87,
                    "time": 231.3968120000035,
                    "velocity": 0.4015748031496063,
                    "duration": 0.055147000000005164
                },
                {
                    "name": "C#6",
                    "midi": 85,
                    "time": 231.4519590000035,
                    "velocity": 0.3543307086614173,
                    "duration": 0.055147000000005164
                },
                {
                    "name": "A#5",
                    "midi": 82,
                    "time": 231.50710600000352,
                    "velocity": 0.3543307086614173,
                    "duration": 0.055147000000005164
                },
                {
                    "name": "G#5",
                    "midi": 80,
                    "time": 231.56225300000352,
                    "velocity": 0.3543307086614173,
                    "duration": 0.055147000000005164
                },
                {
                    "name": "C#6",
                    "midi": 85,
                    "time": 231.61740000000353,
                    "velocity": 0.4015748031496063,
                    "duration": 0.055147000000005164
                },
                {
                    "name": "A#5",
                    "midi": 82,
                    "time": 231.67254700000353,
                    "velocity": 0.3700787401574803,
                    "duration": 0.055147000000005164
                },
                {
                    "name": "G#5",
                    "midi": 80,
                    "time": 231.72769400000354,
                    "velocity": 0.3700787401574803,
                    "duration": 0.055147000000005164
                },
                {
                    "name": "F5",
                    "midi": 77,
                    "time": 231.78284100000354,
                    "velocity": 0.3700787401574803,
                    "duration": 0.055147000000005164
                },
                {
                    "name": "A#5",
                    "midi": 82,
                    "time": 231.83798800000355,
                    "velocity": 0.4015748031496063,
                    "duration": 0.055147000000005164
                },
                {
                    "name": "G#5",
                    "midi": 80,
                    "time": 231.89313500000355,
                    "velocity": 0.3464566929133858,
                    "duration": 0.055147000000005164
                },
                {
                    "name": "F5",
                    "midi": 77,
                    "time": 231.94828200000356,
                    "velocity": 0.3464566929133858,
                    "duration": 0.055147000000005164
                },
                {
                    "name": "D#5",
                    "midi": 75,
                    "time": 232.00342900000356,
                    "velocity": 0.3464566929133858,
                    "duration": 0.055147000000005164
                },
                {
                    "name": "G#5",
                    "midi": 80,
                    "time": 232.05857600000357,
                    "velocity": 0.3700787401574803,
                    "duration": 0.055147000000005164
                },
                {
                    "name": "F5",
                    "midi": 77,
                    "time": 232.11372300000357,
                    "velocity": 0.31496062992125984,
                    "duration": 0.055147000000005164
                },
                {
                    "name": "D#5",
                    "midi": 75,
                    "time": 232.16887000000358,
                    "velocity": 0.31496062992125984,
                    "duration": 0.055147000000005164
                },
                {
                    "name": "C#5",
                    "midi": 73,
                    "time": 232.22401700000358,
                    "velocity": 0.31496062992125984,
                    "duration": 0.055147000000005164
                },
                {
                    "name": "F5",
                    "midi": 77,
                    "time": 232.2791640000036,
                    "velocity": 0.33858267716535434,
                    "duration": 0.055147000000005164
                },
                {
                    "name": "D#5",
                    "midi": 75,
                    "time": 232.3343110000036,
                    "velocity": 0.29133858267716534,
                    "duration": 0.055147000000005164
                },
                {
                    "name": "C#5",
                    "midi": 73,
                    "time": 232.3894580000036,
                    "velocity": 0.29133858267716534,
                    "duration": 0.055147000000005164
                },
                {
                    "name": "A#4",
                    "midi": 70,
                    "time": 232.4446050000036,
                    "velocity": 0.29133858267716534,
                    "duration": 0.055147000000005164
                },
                {
                    "name": "D#5",
                    "midi": 75,
                    "time": 232.4997520000036,
                    "velocity": 0.33858267716535434,
                    "duration": 0.04779406666665409
                },
                {
                    "name": "C#5",
                    "midi": 73,
                    "time": 232.54754606667026,
                    "velocity": 0.2755905511811024,
                    "duration": 0.04779406666665409
                },
                {
                    "name": "A#4",
                    "midi": 70,
                    "time": 232.59625925000358,
                    "velocity": 0.2755905511811024,
                    "duration": 0.04779406666665409
                },
                {
                    "name": "G#4",
                    "midi": 68,
                    "time": 232.64405331667024,
                    "velocity": 0.2755905511811024,
                    "duration": 0.04779406666665409
                },
                {
                    "name": "C#5",
                    "midi": 73,
                    "time": 232.6918473833369,
                    "velocity": 0.33070866141732286,
                    "duration": 0.04779406666665409
                },
                {
                    "name": "A#4",
                    "midi": 70,
                    "time": 232.73964145000355,
                    "velocity": 0.28346456692913385,
                    "duration": 0.04779406666665409
                },
                {
                    "name": "G#4",
                    "midi": 68,
                    "time": 232.7874355166702,
                    "velocity": 0.28346456692913385,
                    "duration": 0.04779406666665409
                },
                {
                    "name": "F4",
                    "midi": 65,
                    "time": 232.83614870000352,
                    "velocity": 0.28346456692913385,
                    "duration": 0.04779406666665409
                },
                {
                    "name": "A#4",
                    "midi": 70,
                    "time": 232.88394276667017,
                    "velocity": 0.33070866141732286,
                    "duration": 0.04779406666665409
                },
                {
                    "name": "G#4",
                    "midi": 68,
                    "time": 232.93173683333683,
                    "velocity": 0.29133858267716534,
                    "duration": 0.04779406666665409
                },
                {
                    "name": "F4",
                    "midi": 65,
                    "time": 232.97953090000348,
                    "velocity": 0.29133858267716534,
                    "duration": 0.04779406666665409
                },
                {
                    "name": "D#4",
                    "midi": 63,
                    "time": 233.02732496667014,
                    "velocity": 0.29133858267716534,
                    "duration": 0.04779406666665409
                },
                {
                    "name": "G#4",
                    "midi": 68,
                    "time": 233.07603815000346,
                    "velocity": 0.33070866141732286,
                    "duration": 0.04779406666665409
                },
                {
                    "name": "F4",
                    "midi": 65,
                    "time": 233.1238322166701,
                    "velocity": 0.2992125984251969,
                    "duration": 0.04779406666665409
                },
                {
                    "name": "D#4",
                    "midi": 63,
                    "time": 233.17162628333676,
                    "velocity": 0.2992125984251969,
                    "duration": 0.04779406666665409
                },
                {
                    "name": "C#4",
                    "midi": 61,
                    "time": 233.21942035000342,
                    "velocity": 0.2992125984251969,
                    "duration": 0.04779406666665409
                },
                {
                    "name": "A5",
                    "midi": 81,
                    "time": 233.3269570000034,
                    "velocity": 0.5905511811023622,
                    "duration": 0.055147000000005164
                },
                {
                    "name": "A4",
                    "midi": 69,
                    "time": 233.3269570000034,
                    "velocity": 0.5039370078740157,
                    "duration": 0.055147000000005164
                },
                {
                    "name": "A#5",
                    "midi": 82,
                    "time": 233.3821040000034,
                    "velocity": 0.6692913385826772,
                    "duration": 0.11029400000001033
                },
                {
                    "name": "A#4",
                    "midi": 70,
                    "time": 233.3821040000034,
                    "velocity": 0.5669291338582677,
                    "duration": 0.11029400000001033
                },
                {
                    "name": "F#3",
                    "midi": 54,
                    "time": 233.82328000000342,
                    "velocity": 0.5669291338582677,
                    "duration": 0.4411760000000129
                },
                {
                    "name": "C4",
                    "midi": 60,
                    "time": 233.82328000000342,
                    "velocity": 0.6692913385826772,
                    "duration": 0.4411760000000129
                },
                {
                    "name": "G#4",
                    "midi": 68,
                    "time": 236.69092400000343,
                    "velocity": 0.36220472440944884,
                    "duration": 0.33088200000000256
                },
                {
                    "name": "F4",
                    "midi": 65,
                    "time": 236.69092400000343,
                    "velocity": 0.30708661417322836,
                    "duration": 0.33088200000000256
                },
                {
                    "name": "F#4",
                    "midi": 66,
                    "time": 237.02180600000344,
                    "velocity": 0.3228346456692913,
                    "duration": 0.055147000000005164
                },
                {
                    "name": "D#4",
                    "midi": 63,
                    "time": 237.02180600000344,
                    "velocity": 0.2677165354330709,
                    "duration": 0.055147000000005164
                },
                {
                    "name": "F4",
                    "midi": 65,
                    "time": 237.13210000000345,
                    "velocity": 0.3228346456692913,
                    "duration": 0.055147000000005164
                },
                {
                    "name": "C#4",
                    "midi": 61,
                    "time": 237.13210000000345,
                    "velocity": 0.2677165354330709,
                    "duration": 0.055147000000005164
                },
                {
                    "name": "F#4",
                    "midi": 66,
                    "time": 237.24239400000346,
                    "velocity": 0.3228346456692913,
                    "duration": 0.055147000000005164
                },
                {
                    "name": "D#4",
                    "midi": 63,
                    "time": 237.24239400000346,
                    "velocity": 0.2677165354330709,
                    "duration": 0.055147000000005164
                },
                {
                    "name": "G#4",
                    "midi": 68,
                    "time": 237.35268800000347,
                    "velocity": 0.3779527559055118,
                    "duration": 0.055147000000005164
                },
                {
                    "name": "F4",
                    "midi": 65,
                    "time": 237.35268800000347,
                    "velocity": 0.31496062992125984,
                    "duration": 0.055147000000005164
                },
                {
                    "name": "A#4",
                    "midi": 70,
                    "time": 237.51812900000348,
                    "velocity": 0.3228346456692913,
                    "duration": 0.055147000000005164
                },
                {
                    "name": "F#4",
                    "midi": 66,
                    "time": 237.51812900000348,
                    "velocity": 0.2677165354330709,
                    "duration": 0.055147000000005164
                },
                {
                    "name": "G#4",
                    "midi": 68,
                    "time": 237.5732760000035,
                    "velocity": 0.36220472440944884,
                    "duration": 0.33088200000000256
                },
                {
                    "name": "F4",
                    "midi": 65,
                    "time": 237.5732760000035,
                    "velocity": 0.30708661417322836,
                    "duration": 0.33088200000000256
                },
                {
                    "name": "F#4",
                    "midi": 66,
                    "time": 237.9041580000035,
                    "velocity": 0.3228346456692913,
                    "duration": 0.055147000000005164
                },
                {
                    "name": "D#4",
                    "midi": 63,
                    "time": 237.9041580000035,
                    "velocity": 0.2677165354330709,
                    "duration": 0.055147000000005164
                },
                {
                    "name": "F4",
                    "midi": 65,
                    "time": 238.0144520000035,
                    "velocity": 0.3228346456692913,
                    "duration": 0.055147000000005164
                },
                {
                    "name": "C#4",
                    "midi": 61,
                    "time": 238.0144520000035,
                    "velocity": 0.2677165354330709,
                    "duration": 0.055147000000005164
                },
                {
                    "name": "F#4",
                    "midi": 66,
                    "time": 238.1247460000035,
                    "velocity": 0.3228346456692913,
                    "duration": 0.055147000000005164
                },
                {
                    "name": "D#4",
                    "midi": 63,
                    "time": 238.1247460000035,
                    "velocity": 0.2677165354330709,
                    "duration": 0.055147000000005164
                },
                {
                    "name": "G#4",
                    "midi": 68,
                    "time": 238.23504000000352,
                    "velocity": 0.3779527559055118,
                    "duration": 0.055147000000005164
                },
                {
                    "name": "F4",
                    "midi": 65,
                    "time": 238.23504000000352,
                    "velocity": 0.31496062992125984,
                    "duration": 0.055147000000005164
                },
                {
                    "name": "A#4",
                    "midi": 70,
                    "time": 238.40048100000354,
                    "velocity": 0.3228346456692913,
                    "duration": 0.055147000000005164
                },
                {
                    "name": "F#4",
                    "midi": 66,
                    "time": 238.40048100000354,
                    "velocity": 0.2677165354330709,
                    "duration": 0.055147000000005164
                },
                {
                    "name": "G#4",
                    "midi": 68,
                    "time": 238.45562800000354,
                    "velocity": 0.36220472440944884,
                    "duration": 0.11029400000001033
                },
                {
                    "name": "F4",
                    "midi": 65,
                    "time": 238.45562800000354,
                    "velocity": 0.30708661417322836,
                    "duration": 0.11029400000001033
                },
                {
                    "name": "E5",
                    "midi": 76,
                    "time": 239.33798000000354,
                    "velocity": 0.3937007874015748,
                    "duration": 0.33088200000000256
                },
                {
                    "name": "C#5",
                    "midi": 73,
                    "time": 239.33798000000354,
                    "velocity": 0.3700787401574803,
                    "duration": 0.33088200000000256
                },
                {
                    "name": "E4",
                    "midi": 64,
                    "time": 239.33798000000354,
                    "velocity": 0.33070866141732286,
                    "duration": 0.33088200000000256
                },
                {
                    "name": "D5",
                    "midi": 74,
                    "time": 239.66886200000354,
                    "velocity": 0.3464566929133858,
                    "duration": 0.055147000000005164
                },
                {
                    "name": "B4",
                    "midi": 71,
                    "time": 239.66886200000354,
                    "velocity": 0.33070866141732286,
                    "duration": 0.055147000000005164
                },
                {
                    "name": "C#5",
                    "midi": 73,
                    "time": 239.77915600000355,
                    "velocity": 0.3464566929133858,
                    "duration": 0.055147000000005164
                },
                {
                    "name": "A4",
                    "midi": 69,
                    "time": 239.77915600000355,
                    "velocity": 0.33070866141732286,
                    "duration": 0.055147000000005164
                },
                {
                    "name": "D5",
                    "midi": 74,
                    "time": 239.88945000000356,
                    "velocity": 0.3464566929133858,
                    "duration": 0.055147000000005164
                },
                {
                    "name": "B4",
                    "midi": 71,
                    "time": 239.88945000000356,
                    "velocity": 0.33070866141732286,
                    "duration": 0.055147000000005164
                },
                {
                    "name": "E5",
                    "midi": 76,
                    "time": 239.99974400000357,
                    "velocity": 0.4094488188976378,
                    "duration": 0.055147000000005164
                },
                {
                    "name": "C#5",
                    "midi": 73,
                    "time": 239.99974400000357,
                    "velocity": 0.3858267716535433,
                    "duration": 0.055147000000005164
                },
                {
                    "name": "F#5",
                    "midi": 78,
                    "time": 240.1651850000036,
                    "velocity": 0.3543307086614173,
                    "duration": 0.055147000000005164
                },
                {
                    "name": "D5",
                    "midi": 74,
                    "time": 240.1651850000036,
                    "velocity": 0.33858267716535434,
                    "duration": 0.055147000000005164
                },
                {
                    "name": "E5",
                    "midi": 76,
                    "time": 240.2203320000036,
                    "velocity": 0.4015748031496063,
                    "duration": 0.33088200000000256
                },
                {
                    "name": "C#5",
                    "midi": 73,
                    "time": 240.2203320000036,
                    "velocity": 0.3779527559055118,
                    "duration": 0.33088200000000256
                },
                {
                    "name": "E4",
                    "midi": 64,
                    "time": 240.2203320000036,
                    "velocity": 0.33858267716535434,
                    "duration": 0.33088200000000256
                },
                {
                    "name": "D5",
                    "midi": 74,
                    "time": 240.5512140000036,
                    "velocity": 0.3464566929133858,
                    "duration": 0.055147000000005164
                },
                {
                    "name": "B4",
                    "midi": 71,
                    "time": 240.5512140000036,
                    "velocity": 0.33070866141732286,
                    "duration": 0.055147000000005164
                },
                {
                    "name": "C#5",
                    "midi": 73,
                    "time": 240.6615080000036,
                    "velocity": 0.3464566929133858,
                    "duration": 0.055147000000005164
                },
                {
                    "name": "A4",
                    "midi": 69,
                    "time": 240.6615080000036,
                    "velocity": 0.33070866141732286,
                    "duration": 0.055147000000005164
                },
                {
                    "name": "D5",
                    "midi": 74,
                    "time": 240.77180200000362,
                    "velocity": 0.33070866141732286,
                    "duration": 0.055147000000005164
                },
                {
                    "name": "B4",
                    "midi": 71,
                    "time": 240.77180200000362,
                    "velocity": 0.31496062992125984,
                    "duration": 0.055147000000005164
                },
                {
                    "name": "E5",
                    "midi": 76,
                    "time": 240.88209600000363,
                    "velocity": 0.3937007874015748,
                    "duration": 0.055147000000005164
                },
                {
                    "name": "C#5",
                    "midi": 73,
                    "time": 240.88209600000363,
                    "velocity": 0.3700787401574803,
                    "duration": 0.055147000000005164
                },
                {
                    "name": "F#5",
                    "midi": 78,
                    "time": 241.04753700000364,
                    "velocity": 0.3464566929133858,
                    "duration": 0.055147000000005164
                },
                {
                    "name": "D5",
                    "midi": 74,
                    "time": 241.04753700000364,
                    "velocity": 0.33070866141732286,
                    "duration": 0.055147000000005164
                },
                {
                    "name": "E5",
                    "midi": 76,
                    "time": 241.10268400000365,
                    "velocity": 0.3858267716535433,
                    "duration": 0.11029400000001033
                },
                {
                    "name": "C#5",
                    "midi": 73,
                    "time": 241.10268400000365,
                    "velocity": 0.36220472440944884,
                    "duration": 0.11029400000001033
                },
                {
                    "name": "E4",
                    "midi": 64,
                    "time": 241.10268400000365,
                    "velocity": 0.3228346456692913,
                    "duration": 0.11029400000001033
                },
                {
                    "name": "A5",
                    "midi": 81,
                    "time": 241.98503600000365,
                    "velocity": 0.4566929133858268,
                    "duration": 0.33088200000000256
                },
                {
                    "name": "F#5",
                    "midi": 78,
                    "time": 241.98503600000365,
                    "velocity": 0.4251968503937008,
                    "duration": 0.33088200000000256
                },
                {
                    "name": "A4",
                    "midi": 69,
                    "time": 241.98503600000365,
                    "velocity": 0.3858267716535433,
                    "duration": 0.33088200000000256
                },
                {
                    "name": "G#5",
                    "midi": 80,
                    "time": 242.31591800000365,
                    "velocity": 0.3779527559055118,
                    "duration": 0.055147000000005164
                },
                {
                    "name": "E5",
                    "midi": 76,
                    "time": 242.31591800000365,
                    "velocity": 0.3543307086614173,
                    "duration": 0.055147000000005164
                },
                {
                    "name": "F#5",
                    "midi": 78,
                    "time": 242.42621200000366,
                    "velocity": 0.3779527559055118,
                    "duration": 0.055147000000005164
                },
                {
                    "name": "D5",
                    "midi": 74,
                    "time": 242.42621200000366,
                    "velocity": 0.3543307086614173,
                    "duration": 0.055147000000005164
                },
                {
                    "name": "G#5",
                    "midi": 80,
                    "time": 242.53650600000367,
                    "velocity": 0.3858267716535433,
                    "duration": 0.055147000000005164
                },
                {
                    "name": "E5",
                    "midi": 76,
                    "time": 242.53650600000367,
                    "velocity": 0.36220472440944884,
                    "duration": 0.055147000000005164
                },
                {
                    "name": "A5",
                    "midi": 81,
                    "time": 242.64680000000368,
                    "velocity": 0.48031496062992124,
                    "duration": 0.055147000000005164
                },
                {
                    "name": "F#5",
                    "midi": 78,
                    "time": 242.64680000000368,
                    "velocity": 0.44881889763779526,
                    "duration": 0.055147000000005164
                },
                {
                    "name": "B5",
                    "midi": 83,
                    "time": 242.8122410000037,
                    "velocity": 0.4094488188976378,
                    "duration": 0.055147000000005164
                },
                {
                    "name": "G#5",
                    "midi": 80,
                    "time": 242.8122410000037,
                    "velocity": 0.3858267716535433,
                    "duration": 0.055147000000005164
                },
                {
                    "name": "F#5",
                    "midi": 78,
                    "time": 242.8673880000037,
                    "velocity": 0.4409448818897638,
                    "duration": 0.33088200000000256
                },
                {
                    "name": "A5",
                    "midi": 81,
                    "time": 242.8673880000037,
                    "velocity": 0.4645669291338583,
                    "duration": 0.33088200000000256
                },
                {
                    "name": "A4",
                    "midi": 69,
                    "time": 242.8673880000037,
                    "velocity": 0.3937007874015748,
                    "duration": 0.33088200000000256
                },
                {
                    "name": "G#5",
                    "midi": 80,
                    "time": 243.1982700000037,
                    "velocity": 0.3779527559055118,
                    "duration": 0.055147000000005164
                },
                {
                    "name": "E5",
                    "midi": 76,
                    "time": 243.1982700000037,
                    "velocity": 0.3543307086614173,
                    "duration": 0.055147000000005164
                },
                {
                    "name": "F#5",
                    "midi": 78,
                    "time": 243.3085640000037,
                    "velocity": 0.3779527559055118,
                    "duration": 0.055147000000005164
                },
                {
                    "name": "D5",
                    "midi": 74,
                    "time": 243.3085640000037,
                    "velocity": 0.3543307086614173,
                    "duration": 0.055147000000005164
                },
                {
                    "name": "G#5",
                    "midi": 80,
                    "time": 243.41885800000372,
                    "velocity": 0.3779527559055118,
                    "duration": 0.055147000000005164
                },
                {
                    "name": "E5",
                    "midi": 76,
                    "time": 243.41885800000372,
                    "velocity": 0.3543307086614173,
                    "duration": 0.055147000000005164
                },
                {
                    "name": "A5",
                    "midi": 81,
                    "time": 243.52915200000373,
                    "velocity": 0.44881889763779526,
                    "duration": 0.055147000000005164
                },
                {
                    "name": "F#5",
                    "midi": 78,
                    "time": 243.52915200000373,
                    "velocity": 0.3779527559055118,
                    "duration": 0.055147000000005164
                },
                {
                    "name": "B5",
                    "midi": 83,
                    "time": 243.69459300000375,
                    "velocity": 0.3858267716535433,
                    "duration": 0.055147000000005164
                },
                {
                    "name": "G#5",
                    "midi": 80,
                    "time": 243.69459300000375,
                    "velocity": 0.3228346456692913,
                    "duration": 0.055147000000005164
                },
                {
                    "name": "A5",
                    "midi": 81,
                    "time": 243.74974000000375,
                    "velocity": 0.44881889763779526,
                    "duration": 0.055147000000005164
                },
                {
                    "name": "F#5",
                    "midi": 78,
                    "time": 243.74974000000375,
                    "velocity": 0.3779527559055118,
                    "duration": 0.055147000000005164
                },
                {
                    "name": "A5",
                    "midi": 81,
                    "time": 243.91518100000377,
                    "velocity": 0.4015748031496063,
                    "duration": 0.055147000000005164
                },
                {
                    "name": "F#5",
                    "midi": 78,
                    "time": 243.91518100000377,
                    "velocity": 0.33858267716535434,
                    "duration": 0.055147000000005164
                },
                {
                    "name": "B5",
                    "midi": 83,
                    "time": 243.97032800000378,
                    "velocity": 0.44881889763779526,
                    "duration": 0.055147000000005164
                },
                {
                    "name": "G#5",
                    "midi": 80,
                    "time": 243.97032800000378,
                    "velocity": 0.3779527559055118,
                    "duration": 0.055147000000005164
                },
                {
                    "name": "A5",
                    "midi": 81,
                    "time": 244.1357690000038,
                    "velocity": 0.4015748031496063,
                    "duration": 0.055147000000005164
                },
                {
                    "name": "F#5",
                    "midi": 78,
                    "time": 244.1357690000038,
                    "velocity": 0.33858267716535434,
                    "duration": 0.055147000000005164
                },
                {
                    "name": "B5",
                    "midi": 83,
                    "time": 244.1909160000038,
                    "velocity": 0.44881889763779526,
                    "duration": 0.055147000000005164
                },
                {
                    "name": "G#5",
                    "midi": 80,
                    "time": 244.1909160000038,
                    "velocity": 0.3779527559055118,
                    "duration": 0.055147000000005164
                },
                {
                    "name": "C#6",
                    "midi": 85,
                    "time": 244.3563570000038,
                    "velocity": 0.41732283464566927,
                    "duration": 0.055147000000005164
                },
                {
                    "name": "F5",
                    "midi": 77,
                    "time": 244.3563570000038,
                    "velocity": 0.3543307086614173,
                    "duration": 0.055147000000005164
                },
                {
                    "name": "D6",
                    "midi": 86,
                    "time": 244.41150400000382,
                    "velocity": 0.4566929133858268,
                    "duration": 0.055147000000005164
                },
                {
                    "name": "F#5",
                    "midi": 78,
                    "time": 244.41150400000382,
                    "velocity": 0.3858267716535433,
                    "duration": 0.055147000000005164
                },
                {
                    "name": "A5",
                    "midi": 81,
                    "time": 244.57694500000383,
                    "velocity": 0.4015748031496063,
                    "duration": 0.055147000000005164
                },
                {
                    "name": "F#5",
                    "midi": 78,
                    "time": 244.57694500000383,
                    "velocity": 0.33858267716535434,
                    "duration": 0.055147000000005164
                },
                {
                    "name": "G#5",
                    "midi": 80,
                    "time": 244.63209200000384,
                    "velocity": 0.4645669291338583,
                    "duration": 0.055147000000005164
                },
                {
                    "name": "F5",
                    "midi": 77,
                    "time": 244.63209200000384,
                    "velocity": 0.3937007874015748,
                    "duration": 0.055147000000005164
                },
                {
                    "name": "A5",
                    "midi": 81,
                    "time": 244.79753300000385,
                    "velocity": 0.4251968503937008,
                    "duration": 0.055147000000005164
                },
                {
                    "name": "F#5",
                    "midi": 78,
                    "time": 244.79753300000385,
                    "velocity": 0.3543307086614173,
                    "duration": 0.055147000000005164
                },
                {
                    "name": "B5",
                    "midi": 83,
                    "time": 244.85268000000386,
                    "velocity": 0.4645669291338583,
                    "duration": 0.055147000000005164
                },
                {
                    "name": "G#5",
                    "midi": 80,
                    "time": 244.85268000000386,
                    "velocity": 0.3937007874015748,
                    "duration": 0.055147000000005164
                },
                {
                    "name": "A5",
                    "midi": 81,
                    "time": 245.01812100000387,
                    "velocity": 0.4330708661417323,
                    "duration": 0.055147000000005164
                },
                {
                    "name": "F#5",
                    "midi": 78,
                    "time": 245.01812100000387,
                    "velocity": 0.36220472440944884,
                    "duration": 0.055147000000005164
                },
                {
                    "name": "B5",
                    "midi": 83,
                    "time": 245.07326800000388,
                    "velocity": 0.47244094488188976,
                    "duration": 0.055147000000005164
                },
                {
                    "name": "G#5",
                    "midi": 80,
                    "time": 245.07326800000388,
                    "velocity": 0.4015748031496063,
                    "duration": 0.055147000000005164
                },
                {
                    "name": "C#6",
                    "midi": 85,
                    "time": 245.2387090000039,
                    "velocity": 0.4330708661417323,
                    "duration": 0.055147000000005164
                },
                {
                    "name": "F5",
                    "midi": 77,
                    "time": 245.2387090000039,
                    "velocity": 0.36220472440944884,
                    "duration": 0.055147000000005164
                },
                {
                    "name": "D6",
                    "midi": 86,
                    "time": 245.2938560000039,
                    "velocity": 0.47244094488188976,
                    "duration": 0.055147000000005164
                },
                {
                    "name": "F#5",
                    "midi": 78,
                    "time": 245.2938560000039,
                    "velocity": 0.4015748031496063,
                    "duration": 0.055147000000005164
                },
                {
                    "name": "G#6",
                    "midi": 92,
                    "time": 245.5144440000039,
                    "velocity": 0.5118110236220472,
                    "duration": 0.055147000000005164
                },
                {
                    "name": "A6",
                    "midi": 93,
                    "time": 245.5695910000039,
                    "velocity": 0.4566929133858268,
                    "duration": 0.055147000000005164
                },
                {
                    "name": "B6",
                    "midi": 95,
                    "time": 245.6247380000039,
                    "velocity": 0.4566929133858268,
                    "duration": 0.055147000000005164
                },
                {
                    "name": "A6",
                    "midi": 93,
                    "time": 245.6798850000039,
                    "velocity": 0.4566929133858268,
                    "duration": 0.055147000000005164
                },
                {
                    "name": "D#6",
                    "midi": 87,
                    "time": 245.7350320000039,
                    "velocity": 0.5039370078740157,
                    "duration": 0.11029400000001033
                },
                {
                    "name": "F#6",
                    "midi": 90,
                    "time": 245.7350320000039,
                    "velocity": 0.5039370078740157,
                    "duration": 0.11029400000001033
                },
                {
                    "name": "C#6",
                    "midi": 85,
                    "time": 245.84532600000392,
                    "velocity": 0.4645669291338583,
                    "duration": 0.11029400000001033
                },
                {
                    "name": "F6",
                    "midi": 89,
                    "time": 245.84532600000392,
                    "velocity": 0.4645669291338583,
                    "duration": 0.11029400000001033
                },
                {
                    "name": "C6",
                    "midi": 84,
                    "time": 245.95562000000393,
                    "velocity": 0.4645669291338583,
                    "duration": 0.11029400000001033
                },
                {
                    "name": "D#6",
                    "midi": 87,
                    "time": 245.95562000000393,
                    "velocity": 0.4645669291338583,
                    "duration": 0.11029400000001033
                },
                {
                    "name": "G#5",
                    "midi": 80,
                    "time": 246.06591400000394,
                    "velocity": 0.47244094488188976,
                    "duration": 0.11029400000001033
                },
                {
                    "name": "G#6",
                    "midi": 92,
                    "time": 246.06591400000394,
                    "velocity": 0.47244094488188976,
                    "duration": 0.11029400000001033
                },
                {
                    "name": "F#6",
                    "midi": 90,
                    "time": 246.17620800000395,
                    "velocity": 0.5196850393700787,
                    "duration": 0.055147000000005164
                },
                {
                    "name": "D#6",
                    "midi": 87,
                    "time": 246.17620800000395,
                    "velocity": 0.5196850393700787,
                    "duration": 0.055147000000005164
                },
                {
                    "name": "C#6",
                    "midi": 85,
                    "time": 246.28650200000396,
                    "velocity": 0.4645669291338583,
                    "duration": 0.055147000000005164
                },
                {
                    "name": "F6",
                    "midi": 89,
                    "time": 246.28650200000396,
                    "velocity": 0.4645669291338583,
                    "duration": 0.055147000000005164
                },
                {
                    "name": "C6",
                    "midi": 84,
                    "time": 246.39679600000397,
                    "velocity": 0.4645669291338583,
                    "duration": 0.055147000000005164
                },
                {
                    "name": "D#6",
                    "midi": 87,
                    "time": 246.39679600000397,
                    "velocity": 0.4645669291338583,
                    "duration": 0.055147000000005164
                },
                {
                    "name": "G#4",
                    "midi": 68,
                    "time": 246.50709000000398,
                    "velocity": 0.4645669291338583,
                    "duration": 0.055147000000005164
                },
                {
                    "name": "G#5",
                    "midi": 80,
                    "time": 246.50709000000398,
                    "velocity": 0.4645669291338583,
                    "duration": 0.055147000000005164
                },
                {
                    "name": "D#5",
                    "midi": 75,
                    "time": 246.617384000004,
                    "velocity": 0.5039370078740157,
                    "duration": 0.055147000000005164
                },
                {
                    "name": "F#5",
                    "midi": 78,
                    "time": 246.617384000004,
                    "velocity": 0.5039370078740157,
                    "duration": 0.055147000000005164
                },
                {
                    "name": "C#5",
                    "midi": 73,
                    "time": 246.727678000004,
                    "velocity": 0.44881889763779526,
                    "duration": 0.055147000000005164
                },
                {
                    "name": "F5",
                    "midi": 77,
                    "time": 246.727678000004,
                    "velocity": 0.44881889763779526,
                    "duration": 0.055147000000005164
                },
                {
                    "name": "C5",
                    "midi": 72,
                    "time": 246.83797200000402,
                    "velocity": 0.44881889763779526,
                    "duration": 0.055147000000005164
                },
                {
                    "name": "D#5",
                    "midi": 75,
                    "time": 246.83797200000402,
                    "velocity": 0.44881889763779526,
                    "duration": 0.055147000000005164
                },
                {
                    "name": "G#4",
                    "midi": 68,
                    "time": 246.94826600000403,
                    "velocity": 0.4566929133858268,
                    "duration": 0.055147000000005164
                },
                {
                    "name": "G#5",
                    "midi": 80,
                    "time": 246.94826600000403,
                    "velocity": 0.4566929133858268,
                    "duration": 0.055147000000005164
                },
                {
                    "name": "C#5",
                    "midi": 73,
                    "time": 247.05856000000404,
                    "velocity": 0.5039370078740157,
                    "duration": 0.055147000000005164
                },
                {
                    "name": "F5",
                    "midi": 77,
                    "time": 247.05856000000404,
                    "velocity": 0.5039370078740157,
                    "duration": 0.055147000000005164
                },
                {
                    "name": "G#4",
                    "midi": 68,
                    "time": 247.27914800000403,
                    "velocity": 0.3937007874015748,
                    "duration": 0.33088200000000256
                },
                {
                    "name": "G#5",
                    "midi": 80,
                    "time": 247.27914800000403,
                    "velocity": 0.4645669291338583,
                    "duration": 0.33088200000000256
                },
                {
                    "name": "F5",
                    "midi": 77,
                    "time": 247.27914800000403,
                    "velocity": 0.3937007874015748,
                    "duration": 0.33088200000000256
                },
                {
                    "name": "F#4",
                    "midi": 66,
                    "time": 247.61003000000403,
                    "velocity": 0.3464566929133858,
                    "duration": 0.055147000000005164
                },
                {
                    "name": "F#5",
                    "midi": 78,
                    "time": 247.61003000000403,
                    "velocity": 0.41732283464566927,
                    "duration": 0.055147000000005164
                },
                {
                    "name": "D#5",
                    "midi": 75,
                    "time": 247.61003000000403,
                    "velocity": 0.3464566929133858,
                    "duration": 0.055147000000005164
                },
                {
                    "name": "F4",
                    "midi": 65,
                    "time": 247.72032400000404,
                    "velocity": 0.3464566929133858,
                    "duration": 0.055147000000005164
                },
                {
                    "name": "F5",
                    "midi": 77,
                    "time": 247.72032400000404,
                    "velocity": 0.41732283464566927,
                    "duration": 0.055147000000005164
                },
                {
                    "name": "C#5",
                    "midi": 73,
                    "time": 247.72032400000404,
                    "velocity": 0.3464566929133858,
                    "duration": 0.055147000000005164
                },
                {
                    "name": "F#4",
                    "midi": 66,
                    "time": 247.83061800000405,
                    "velocity": 0.3464566929133858,
                    "duration": 0.055147000000005164
                },
                {
                    "name": "F#5",
                    "midi": 78,
                    "time": 247.83061800000405,
                    "velocity": 0.41732283464566927,
                    "duration": 0.055147000000005164
                },
                {
                    "name": "D#5",
                    "midi": 75,
                    "time": 247.83061800000405,
                    "velocity": 0.3464566929133858,
                    "duration": 0.055147000000005164
                },
                {
                    "name": "G#4",
                    "midi": 68,
                    "time": 247.94091200000406,
                    "velocity": 0.4094488188976378,
                    "duration": 0.055147000000005164
                },
                {
                    "name": "G#5",
                    "midi": 80,
                    "time": 247.94091200000406,
                    "velocity": 0.4881889763779528,
                    "duration": 0.055147000000005164
                },
                {
                    "name": "F5",
                    "midi": 77,
                    "time": 247.94091200000406,
                    "velocity": 0.4094488188976378,
                    "duration": 0.055147000000005164
                },
                {
                    "name": "A#4",
                    "midi": 70,
                    "time": 248.10635300000408,
                    "velocity": 0.3464566929133858,
                    "duration": 0.055147000000005164
                },
                {
                    "name": "A#5",
                    "midi": 82,
                    "time": 248.10635300000408,
                    "velocity": 0.41732283464566927,
                    "duration": 0.055147000000005164
                },
                {
                    "name": "F#5",
                    "midi": 78,
                    "time": 248.10635300000408,
                    "velocity": 0.3464566929133858,
                    "duration": 0.055147000000005164
                },
                {
                    "name": "G#4",
                    "midi": 68,
                    "time": 248.16150000000408,
                    "velocity": 0.3937007874015748,
                    "duration": 0.33088200000000256
                },
                {
                    "name": "G#5",
                    "midi": 80,
                    "time": 248.16150000000408,
                    "velocity": 0.4645669291338583,
                    "duration": 0.33088200000000256
                },
                {
                    "name": "F5",
                    "midi": 77,
                    "time": 248.16150000000408,
                    "velocity": 0.3937007874015748,
                    "duration": 0.33088200000000256
                },
                {
                    "name": "F#4",
                    "midi": 66,
                    "time": 248.49238200000408,
                    "velocity": 0.3464566929133858,
                    "duration": 0.055147000000005164
                },
                {
                    "name": "F#5",
                    "midi": 78,
                    "time": 248.49238200000408,
                    "velocity": 0.41732283464566927,
                    "duration": 0.055147000000005164
                },
                {
                    "name": "D#5",
                    "midi": 75,
                    "time": 248.49238200000408,
                    "velocity": 0.3464566929133858,
                    "duration": 0.055147000000005164
                },
                {
                    "name": "F4",
                    "midi": 65,
                    "time": 248.6026760000041,
                    "velocity": 0.3464566929133858,
                    "duration": 0.055147000000005164
                },
                {
                    "name": "F5",
                    "midi": 77,
                    "time": 248.6026760000041,
                    "velocity": 0.41732283464566927,
                    "duration": 0.055147000000005164
                },
                {
                    "name": "C#5",
                    "midi": 73,
                    "time": 248.6026760000041,
                    "velocity": 0.3464566929133858,
                    "duration": 0.055147000000005164
                },
                {
                    "name": "F#4",
                    "midi": 66,
                    "time": 248.7129700000041,
                    "velocity": 0.3464566929133858,
                    "duration": 0.055147000000005164
                },
                {
                    "name": "F#5",
                    "midi": 78,
                    "time": 248.7129700000041,
                    "velocity": 0.41732283464566927,
                    "duration": 0.055147000000005164
                },
                {
                    "name": "D#5",
                    "midi": 75,
                    "time": 248.7129700000041,
                    "velocity": 0.3464566929133858,
                    "duration": 0.055147000000005164
                },
                {
                    "name": "G#4",
                    "midi": 68,
                    "time": 248.82326400000412,
                    "velocity": 0.4094488188976378,
                    "duration": 0.055147000000005164
                },
                {
                    "name": "G#5",
                    "midi": 80,
                    "time": 248.82326400000412,
                    "velocity": 0.4881889763779528,
                    "duration": 0.055147000000005164
                },
                {
                    "name": "F5",
                    "midi": 77,
                    "time": 248.82326400000412,
                    "velocity": 0.4094488188976378,
                    "duration": 0.055147000000005164
                },
                {
                    "name": "A#4",
                    "midi": 70,
                    "time": 248.98870500000413,
                    "velocity": 0.3464566929133858,
                    "duration": 0.055147000000005164
                },
                {
                    "name": "A#5",
                    "midi": 82,
                    "time": 248.98870500000413,
                    "velocity": 0.41732283464566927,
                    "duration": 0.055147000000005164
                },
                {
                    "name": "F#5",
                    "midi": 78,
                    "time": 248.98870500000413,
                    "velocity": 0.3464566929133858,
                    "duration": 0.055147000000005164
                },
                {
                    "name": "G#4",
                    "midi": 68,
                    "time": 249.04385200000414,
                    "velocity": 0.3937007874015748,
                    "duration": 0.11029400000001033
                },
                {
                    "name": "G#5",
                    "midi": 80,
                    "time": 249.04385200000414,
                    "velocity": 0.4645669291338583,
                    "duration": 0.11029400000001033
                },
                {
                    "name": "F5",
                    "midi": 77,
                    "time": 249.04385200000414,
                    "velocity": 0.3937007874015748,
                    "duration": 0.11029400000001033
                },
                {
                    "name": "E6",
                    "midi": 88,
                    "time": 249.48502800000415,
                    "velocity": 0.5590551181102362,
                    "duration": 0.33088200000000256
                },
                {
                    "name": "C#6",
                    "midi": 85,
                    "time": 249.48502800000415,
                    "velocity": 0.5275590551181102,
                    "duration": 0.33088200000000256
                },
                {
                    "name": "E5",
                    "midi": 76,
                    "time": 249.48502800000415,
                    "velocity": 0.4645669291338583,
                    "duration": 0.33088200000000256
                },
                {
                    "name": "D5",
                    "midi": 74,
                    "time": 249.81591000000415,
                    "velocity": 0.4645669291338583,
                    "duration": 0.055147000000005164
                },
                {
                    "name": "D6",
                    "midi": 86,
                    "time": 249.81591000000415,
                    "velocity": 0.4881889763779528,
                    "duration": 0.055147000000005164
                },
                {
                    "name": "B5",
                    "midi": 83,
                    "time": 249.81591000000415,
                    "velocity": 0.4645669291338583,
                    "duration": 0.055147000000005164
                },
                {
                    "name": "C#5",
                    "midi": 73,
                    "time": 249.92620400000416,
                    "velocity": 0.4645669291338583,
                    "duration": 0.055147000000005164
                },
                {
                    "name": "C#6",
                    "midi": 85,
                    "time": 249.92620400000416,
                    "velocity": 0.4881889763779528,
                    "duration": 0.055147000000005164
                },
                {
                    "name": "A5",
                    "midi": 81,
                    "time": 249.92620400000416,
                    "velocity": 0.4645669291338583,
                    "duration": 0.055147000000005164
                },
                {
                    "name": "D5",
                    "midi": 74,
                    "time": 250.03649800000417,
                    "velocity": 0.4645669291338583,
                    "duration": 0.055147000000005164
                },
                {
                    "name": "D6",
                    "midi": 86,
                    "time": 250.03649800000417,
                    "velocity": 0.4881889763779528,
                    "duration": 0.055147000000005164
                },
                {
                    "name": "B5",
                    "midi": 83,
                    "time": 250.03649800000417,
                    "velocity": 0.4645669291338583,
                    "duration": 0.055147000000005164
                },
                {
                    "name": "E5",
                    "midi": 76,
                    "time": 250.14679200000418,
                    "velocity": 0.5433070866141733,
                    "duration": 0.055147000000005164
                },
                {
                    "name": "E6",
                    "midi": 88,
                    "time": 250.14679200000418,
                    "velocity": 0.5748031496062992,
                    "duration": 0.055147000000005164
                },
                {
                    "name": "C#6",
                    "midi": 85,
                    "time": 250.14679200000418,
                    "velocity": 0.5433070866141733,
                    "duration": 0.055147000000005164
                },
                {
                    "name": "F#5",
                    "midi": 78,
                    "time": 250.3122330000042,
                    "velocity": 0.47244094488188976,
                    "duration": 0.055147000000005164
                },
                {
                    "name": "F#6",
                    "midi": 90,
                    "time": 250.3122330000042,
                    "velocity": 0.49606299212598426,
                    "duration": 0.055147000000005164
                },
                {
                    "name": "D6",
                    "midi": 86,
                    "time": 250.3122330000042,
                    "velocity": 0.47244094488188976,
                    "duration": 0.055147000000005164
                },
                {
                    "name": "E6",
                    "midi": 88,
                    "time": 250.3673800000042,
                    "velocity": 0.5669291338582677,
                    "duration": 0.33088200000000256
                },
                {
                    "name": "C#6",
                    "midi": 85,
                    "time": 250.3673800000042,
                    "velocity": 0.5354330708661418,
                    "duration": 0.33088200000000256
                },
                {
                    "name": "E5",
                    "midi": 76,
                    "time": 250.3673800000042,
                    "velocity": 0.47244094488188976,
                    "duration": 0.33088200000000256
                },
                {
                    "name": "D5",
                    "midi": 74,
                    "time": 250.6982620000042,
                    "velocity": 0.4645669291338583,
                    "duration": 0.055147000000005164
                },
                {
                    "name": "D6",
                    "midi": 86,
                    "time": 250.6982620000042,
                    "velocity": 0.4881889763779528,
                    "duration": 0.055147000000005164
                },
                {
                    "name": "B5",
                    "midi": 83,
                    "time": 250.6982620000042,
                    "velocity": 0.4645669291338583,
                    "duration": 0.055147000000005164
                },
                {
                    "name": "C#5",
                    "midi": 73,
                    "time": 250.80855600000422,
                    "velocity": 0.4645669291338583,
                    "duration": 0.055147000000005164
                },
                {
                    "name": "C#6",
                    "midi": 85,
                    "time": 250.80855600000422,
                    "velocity": 0.4881889763779528,
                    "duration": 0.055147000000005164
                },
                {
                    "name": "A5",
                    "midi": 81,
                    "time": 250.80855600000422,
                    "velocity": 0.4645669291338583,
                    "duration": 0.055147000000005164
                },
                {
                    "name": "D5",
                    "midi": 74,
                    "time": 250.91885000000423,
                    "velocity": 0.44881889763779526,
                    "duration": 0.055147000000005164
                },
                {
                    "name": "D6",
                    "midi": 86,
                    "time": 250.91885000000423,
                    "velocity": 0.4645669291338583,
                    "duration": 0.055147000000005164
                },
                {
                    "name": "B5",
                    "midi": 83,
                    "time": 250.91885000000423,
                    "velocity": 0.44881889763779526,
                    "duration": 0.055147000000005164
                },
                {
                    "name": "E5",
                    "midi": 76,
                    "time": 251.02914400000424,
                    "velocity": 0.5275590551181102,
                    "duration": 0.055147000000005164
                },
                {
                    "name": "E6",
                    "midi": 88,
                    "time": 251.02914400000424,
                    "velocity": 0.5590551181102362,
                    "duration": 0.055147000000005164
                },
                {
                    "name": "C#6",
                    "midi": 85,
                    "time": 251.02914400000424,
                    "velocity": 0.5275590551181102,
                    "duration": 0.055147000000005164
                },
                {
                    "name": "F#5",
                    "midi": 78,
                    "time": 251.19458500000425,
                    "velocity": 0.4645669291338583,
                    "duration": 0.055147000000005164
                },
                {
                    "name": "F#6",
                    "midi": 90,
                    "time": 251.19458500000425,
                    "velocity": 0.4881889763779528,
                    "duration": 0.055147000000005164
                },
                {
                    "name": "D6",
                    "midi": 86,
                    "time": 251.19458500000425,
                    "velocity": 0.4645669291338583,
                    "duration": 0.055147000000005164
                },
                {
                    "name": "E6",
                    "midi": 88,
                    "time": 251.24973200000426,
                    "velocity": 0.5433070866141733,
                    "duration": 0.11029400000001033
                },
                {
                    "name": "C#6",
                    "midi": 85,
                    "time": 251.24973200000426,
                    "velocity": 0.5039370078740157,
                    "duration": 0.11029400000001033
                },
                {
                    "name": "E5",
                    "midi": 76,
                    "time": 251.24973200000426,
                    "velocity": 0.4566929133858268,
                    "duration": 0.11029400000001033
                },
                {
                    "name": "A6",
                    "midi": 93,
                    "time": 251.69090800000427,
                    "velocity": 0.6456692913385826,
                    "duration": 0.33088200000000256
                },
                {
                    "name": "F#6",
                    "midi": 90,
                    "time": 251.69090800000427,
                    "velocity": 0.6062992125984252,
                    "duration": 0.33088200000000256
                },
                {
                    "name": "A5",
                    "midi": 81,
                    "time": 251.69090800000427,
                    "velocity": 0.5433070866141733,
                    "duration": 0.33088200000000256
                },
                {
                    "name": "G#5",
                    "midi": 80,
                    "time": 252.02179000000427,
                    "velocity": 0.49606299212598426,
                    "duration": 0.055147000000005164
                },
                {
                    "name": "G#6",
                    "midi": 92,
                    "time": 252.02179000000427,
                    "velocity": 0.5354330708661418,
                    "duration": 0.055147000000005164
                },
                {
                    "name": "E6",
                    "midi": 88,
                    "time": 252.02179000000427,
                    "velocity": 0.49606299212598426,
                    "duration": 0.055147000000005164
                },
                {
                    "name": "F#5",
                    "midi": 78,
                    "time": 252.13208400000428,
                    "velocity": 0.49606299212598426,
                    "duration": 0.055147000000005164
                },
                {
                    "name": "F#6",
                    "midi": 90,
                    "time": 252.13208400000428,
                    "velocity": 0.5354330708661418,
                    "duration": 0.055147000000005164
                },
                {
                    "name": "D6",
                    "midi": 86,
                    "time": 252.13208400000428,
                    "velocity": 0.49606299212598426,
                    "duration": 0.055147000000005164
                },
                {
                    "name": "G#5",
                    "midi": 80,
                    "time": 252.2423780000043,
                    "velocity": 0.5039370078740157,
                    "duration": 0.055147000000005164
                },
                {
                    "name": "G#6",
                    "midi": 92,
                    "time": 252.2423780000043,
                    "velocity": 0.5433070866141733,
                    "duration": 0.055147000000005164
                },
                {
                    "name": "E6",
                    "midi": 88,
                    "time": 252.2423780000043,
                    "velocity": 0.5039370078740157,
                    "duration": 0.055147000000005164
                },
                {
                    "name": "A5",
                    "midi": 81,
                    "time": 252.3526720000043,
                    "velocity": 0.5511811023622047,
                    "duration": 0.055147000000005164
                },
                {
                    "name": "A6",
                    "midi": 93,
                    "time": 252.3526720000043,
                    "velocity": 0.6456692913385826,
                    "duration": 0.055147000000005164
                },
                {
                    "name": "F#6",
                    "midi": 90,
                    "time": 252.3526720000043,
                    "velocity": 0.5826771653543307,
                    "duration": 0.055147000000005164
                },
                {
                    "name": "B5",
                    "midi": 83,
                    "time": 252.51811300000432,
                    "velocity": 0.5433070866141733,
                    "duration": 0.055147000000005164
                },
                {
                    "name": "B6",
                    "midi": 95,
                    "time": 252.51811300000432,
                    "velocity": 0.5748031496062992,
                    "duration": 0.055147000000005164
                },
                {
                    "name": "G#6",
                    "midi": 92,
                    "time": 252.51811300000432,
                    "velocity": 0.5433070866141733,
                    "duration": 0.055147000000005164
                },
                {
                    "name": "F#6",
                    "midi": 90,
                    "time": 252.57326000000432,
                    "velocity": 0.6220472440944882,
                    "duration": 0.33088200000000256
                },
                {
                    "name": "A6",
                    "midi": 93,
                    "time": 252.57326000000432,
                    "velocity": 0.6535433070866141,
                    "duration": 0.33088200000000256
                },
                {
                    "name": "A5",
                    "midi": 81,
                    "time": 252.57326000000432,
                    "velocity": 0.5590551181102362,
                    "duration": 0.33088200000000256
                },
                {
                    "name": "G#5",
                    "midi": 80,
                    "time": 252.90414200000433,
                    "velocity": 0.49606299212598426,
                    "duration": 0.055147000000005164
                },
                {
                    "name": "G#6",
                    "midi": 92,
                    "time": 252.90414200000433,
                    "velocity": 0.5354330708661418,
                    "duration": 0.055147000000005164
                },
                {
                    "name": "E6",
                    "midi": 88,
                    "time": 252.90414200000433,
                    "velocity": 0.49606299212598426,
                    "duration": 0.055147000000005164
                },
                {
                    "name": "F#5",
                    "midi": 78,
                    "time": 253.01443600000434,
                    "velocity": 0.49606299212598426,
                    "duration": 0.055147000000005164
                },
                {
                    "name": "F#6",
                    "midi": 90,
                    "time": 253.01443600000434,
                    "velocity": 0.5354330708661418,
                    "duration": 0.055147000000005164
                },
                {
                    "name": "D6",
                    "midi": 86,
                    "time": 253.01443600000434,
                    "velocity": 0.49606299212598426,
                    "duration": 0.055147000000005164
                },
                {
                    "name": "G#5",
                    "midi": 80,
                    "time": 253.12473000000435,
                    "velocity": 0.49606299212598426,
                    "duration": 0.055147000000005164
                },
                {
                    "name": "G#6",
                    "midi": 92,
                    "time": 253.12473000000435,
                    "velocity": 0.5354330708661418,
                    "duration": 0.055147000000005164
                },
                {
                    "name": "E6",
                    "midi": 88,
                    "time": 253.12473000000435,
                    "velocity": 0.49606299212598426,
                    "duration": 0.055147000000005164
                },
                {
                    "name": "A5",
                    "midi": 81,
                    "time": 253.23502400000436,
                    "velocity": 0.5354330708661418,
                    "duration": 0.055147000000005164
                },
                {
                    "name": "A6",
                    "midi": 93,
                    "time": 253.23502400000436,
                    "velocity": 0.6377952755905512,
                    "duration": 0.055147000000005164
                },
                {
                    "name": "F#6",
                    "midi": 90,
                    "time": 253.23502400000436,
                    "velocity": 0.5354330708661418,
                    "duration": 0.055147000000005164
                },
                {
                    "name": "B5",
                    "midi": 83,
                    "time": 253.40046500000437,
                    "velocity": 0.4566929133858268,
                    "duration": 0.055147000000005164
                },
                {
                    "name": "B6",
                    "midi": 95,
                    "time": 253.40046500000437,
                    "velocity": 0.5433070866141733,
                    "duration": 0.055147000000005164
                },
                {
                    "name": "G#6",
                    "midi": 92,
                    "time": 253.40046500000437,
                    "velocity": 0.4566929133858268,
                    "duration": 0.055147000000005164
                },
                {
                    "name": "A5",
                    "midi": 81,
                    "time": 253.45561200000438,
                    "velocity": 0.5354330708661418,
                    "duration": 0.055147000000005164
                },
                {
                    "name": "A6",
                    "midi": 93,
                    "time": 253.45561200000438,
                    "velocity": 0.6377952755905512,
                    "duration": 0.055147000000005164
                },
                {
                    "name": "F#6",
                    "midi": 90,
                    "time": 253.45561200000438,
                    "velocity": 0.5354330708661418,
                    "duration": 0.055147000000005164
                },
                {
                    "name": "A5",
                    "midi": 81,
                    "time": 253.6210530000044,
                    "velocity": 0.5196850393700787,
                    "duration": 0.055147000000005164
                },
                {
                    "name": "F#5",
                    "midi": 78,
                    "time": 253.6210530000044,
                    "velocity": 0.4330708661417323,
                    "duration": 0.055147000000005164
                },
                {
                    "name": "B5",
                    "midi": 83,
                    "time": 253.6762000000044,
                    "velocity": 0.5826771653543307,
                    "duration": 0.055147000000005164
                },
                {
                    "name": "G#5",
                    "midi": 80,
                    "time": 253.6762000000044,
                    "velocity": 0.4881889763779528,
                    "duration": 0.055147000000005164
                },
                {
                    "name": "A5",
                    "midi": 81,
                    "time": 253.84164100000442,
                    "velocity": 0.5196850393700787,
                    "duration": 0.055147000000005164
                },
                {
                    "name": "F#5",
                    "midi": 78,
                    "time": 253.84164100000442,
                    "velocity": 0.4330708661417323,
                    "duration": 0.055147000000005164
                },
                {
                    "name": "B5",
                    "midi": 83,
                    "time": 253.89678800000442,
                    "velocity": 0.5826771653543307,
                    "duration": 0.055147000000005164
                },
                {
                    "name": "G#5",
                    "midi": 80,
                    "time": 253.89678800000442,
                    "velocity": 0.4881889763779528,
                    "duration": 0.055147000000005164
                },
                {
                    "name": "C#6",
                    "midi": 85,
                    "time": 254.06222900000444,
                    "velocity": 0.5354330708661418,
                    "duration": 0.055147000000005164
                },
                {
                    "name": "F5",
                    "midi": 77,
                    "time": 254.06222900000444,
                    "velocity": 0.4566929133858268,
                    "duration": 0.055147000000005164
                },
                {
                    "name": "D6",
                    "midi": 86,
                    "time": 254.11737600000444,
                    "velocity": 0.5905511811023622,
                    "duration": 0.055147000000005164
                },
                {
                    "name": "F#5",
                    "midi": 78,
                    "time": 254.11737600000444,
                    "velocity": 0.49606299212598426,
                    "duration": 0.055147000000005164
                },
                {
                    "name": "A5",
                    "midi": 81,
                    "time": 254.28281700000446,
                    "velocity": 0.5196850393700787,
                    "duration": 0.055147000000005164
                },
                {
                    "name": "F#5",
                    "midi": 78,
                    "time": 254.28281700000446,
                    "velocity": 0.4330708661417323,
                    "duration": 0.055147000000005164
                },
                {
                    "name": "G#5",
                    "midi": 80,
                    "time": 254.33796400000446,
                    "velocity": 0.5984251968503937,
                    "duration": 0.055147000000005164
                },
                {
                    "name": "F5",
                    "midi": 77,
                    "time": 254.33796400000446,
                    "velocity": 0.5118110236220472,
                    "duration": 0.055147000000005164
                },
                {
                    "name": "A5",
                    "midi": 81,
                    "time": 254.50340500000448,
                    "velocity": 0.5511811023622047,
                    "duration": 0.055147000000005164
                },
                {
                    "name": "F#5",
                    "midi": 78,
                    "time": 254.50340500000448,
                    "velocity": 0.4566929133858268,
                    "duration": 0.055147000000005164
                },
                {
                    "name": "B5",
                    "midi": 83,
                    "time": 254.55855200000448,
                    "velocity": 0.5984251968503937,
                    "duration": 0.055147000000005164
                },
                {
                    "name": "G#5",
                    "midi": 80,
                    "time": 254.55855200000448,
                    "velocity": 0.5118110236220472,
                    "duration": 0.055147000000005164
                },
                {
                    "name": "A5",
                    "midi": 81,
                    "time": 254.7239930000045,
                    "velocity": 0.5590551181102362,
                    "duration": 0.055147000000005164
                },
                {
                    "name": "F#5",
                    "midi": 78,
                    "time": 254.7239930000045,
                    "velocity": 0.4645669291338583,
                    "duration": 0.055147000000005164
                },
                {
                    "name": "B5",
                    "midi": 83,
                    "time": 254.7791400000045,
                    "velocity": 0.6141732283464567,
                    "duration": 0.055147000000005164
                },
                {
                    "name": "G#5",
                    "midi": 80,
                    "time": 254.7791400000045,
                    "velocity": 0.5196850393700787,
                    "duration": 0.055147000000005164
                },
                {
                    "name": "C#6",
                    "midi": 85,
                    "time": 254.94458100000452,
                    "velocity": 0.5590551181102362,
                    "duration": 0.055147000000005164
                },
                {
                    "name": "F5",
                    "midi": 77,
                    "time": 254.94458100000452,
                    "velocity": 0.4645669291338583,
                    "duration": 0.055147000000005164
                },
                {
                    "name": "D6",
                    "midi": 86,
                    "time": 254.99972800000452,
                    "velocity": 0.6141732283464567,
                    "duration": 0.055147000000005164
                },
                {
                    "name": "F#5",
                    "midi": 78,
                    "time": 254.99972800000452,
                    "velocity": 0.5196850393700787,
                    "duration": 0.055147000000005164
                },
                {
                    "name": "G#6",
                    "midi": 92,
                    "time": 255.22031600000452,
                    "velocity": 0.6220472440944882,
                    "duration": 0.055147000000005164
                },
                {
                    "name": "A6",
                    "midi": 93,
                    "time": 255.27546300000452,
                    "velocity": 0.5669291338582677,
                    "duration": 0.055147000000005164
                },
                {
                    "name": "B6",
                    "midi": 95,
                    "time": 255.33061000000453,
                    "velocity": 0.5669291338582677,
                    "duration": 0.055147000000005164
                },
                {
                    "name": "A6",
                    "midi": 93,
                    "time": 255.38575700000453,
                    "velocity": 0.5669291338582677,
                    "duration": 0.055147000000005164
                },
                {
                    "name": "D#6",
                    "midi": 87,
                    "time": 255.44090400000454,
                    "velocity": 0.6141732283464567,
                    "duration": 0.11029400000001033
                },
                {
                    "name": "F#6",
                    "midi": 90,
                    "time": 255.44090400000454,
                    "velocity": 0.6141732283464567,
                    "duration": 0.11029400000001033
                },
                {
                    "name": "C#6",
                    "midi": 85,
                    "time": 255.55119800000455,
                    "velocity": 0.5669291338582677,
                    "duration": 0.11029400000001033
                },
                {
                    "name": "F6",
                    "midi": 89,
                    "time": 255.55119800000455,
                    "velocity": 0.5669291338582677,
                    "duration": 0.11029400000001033
                },
                {
                    "name": "C6",
                    "midi": 84,
                    "time": 255.66149200000456,
                    "velocity": 0.5669291338582677,
                    "duration": 0.11029400000001033
                },
                {
                    "name": "D#6",
                    "midi": 87,
                    "time": 255.66149200000456,
                    "velocity": 0.5669291338582677,
                    "duration": 0.11029400000001033
                },
                {
                    "name": "G#5",
                    "midi": 80,
                    "time": 255.77178600000457,
                    "velocity": 0.5826771653543307,
                    "duration": 0.11029400000001033
                },
                {
                    "name": "G#6",
                    "midi": 92,
                    "time": 255.77178600000457,
                    "velocity": 0.5826771653543307,
                    "duration": 0.11029400000001033
                },
                {
                    "name": "F#6",
                    "midi": 90,
                    "time": 255.88208000000458,
                    "velocity": 0.6299212598425197,
                    "duration": 0.055147000000005164
                },
                {
                    "name": "D#6",
                    "midi": 87,
                    "time": 255.88208000000458,
                    "velocity": 0.6299212598425197,
                    "duration": 0.055147000000005164
                },
                {
                    "name": "C#6",
                    "midi": 85,
                    "time": 255.9923740000046,
                    "velocity": 0.5669291338582677,
                    "duration": 0.05514699999997674
                },
                {
                    "name": "F6",
                    "midi": 89,
                    "time": 255.9923740000046,
                    "velocity": 0.5669291338582677,
                    "duration": 0.05514699999997674
                },
                {
                    "name": "C6",
                    "midi": 84,
                    "time": 256.10266800000454,
                    "velocity": 0.5669291338582677,
                    "duration": 0.05514699999997674
                },
                {
                    "name": "D#6",
                    "midi": 87,
                    "time": 256.10266800000454,
                    "velocity": 0.5669291338582677,
                    "duration": 0.05514699999997674
                },
                {
                    "name": "G#4",
                    "midi": 68,
                    "time": 256.2129620000045,
                    "velocity": 0.5669291338582677,
                    "duration": 0.05514699999997674
                },
                {
                    "name": "G#5",
                    "midi": 80,
                    "time": 256.2129620000045,
                    "velocity": 0.5669291338582677,
                    "duration": 0.05514699999997674
                },
                {
                    "name": "D#5",
                    "midi": 75,
                    "time": 256.32325600000445,
                    "velocity": 0.6141732283464567,
                    "duration": 0.05514699999997674
                },
                {
                    "name": "F#5",
                    "midi": 78,
                    "time": 256.32325600000445,
                    "velocity": 0.6141732283464567,
                    "duration": 0.05514699999997674
                },
                {
                    "name": "C#5",
                    "midi": 73,
                    "time": 256.4335500000044,
                    "velocity": 0.5039370078740157,
                    "duration": 0.05514699999997674
                },
                {
                    "name": "F5",
                    "midi": 77,
                    "time": 256.4335500000044,
                    "velocity": 0.5039370078740157,
                    "duration": 0.05514699999997674
                },
                {
                    "name": "C5",
                    "midi": 72,
                    "time": 256.54384400000436,
                    "velocity": 0.5039370078740157,
                    "duration": 0.05514699999997674
                },
                {
                    "name": "D#5",
                    "midi": 75,
                    "time": 256.54384400000436,
                    "velocity": 0.5039370078740157,
                    "duration": 0.05514699999997674
                },
                {
                    "name": "G#4",
                    "midi": 68,
                    "time": 256.6541380000043,
                    "velocity": 0.5039370078740157,
                    "duration": 0.05514699999997674
                },
                {
                    "name": "G#5",
                    "midi": 80,
                    "time": 256.6541380000043,
                    "velocity": 0.5039370078740157,
                    "duration": 0.05514699999997674
                },
                {
                    "name": "C#5",
                    "midi": 73,
                    "time": 256.76443200000426,
                    "velocity": 0.3543307086614173,
                    "duration": 0.05514699999997674
                },
                {
                    "name": "F5",
                    "midi": 77,
                    "time": 256.76443200000426,
                    "velocity": 0.3937007874015748,
                    "duration": 0.05514699999997674
                },
                {
                    "name": "F6",
                    "midi": 89,
                    "time": 256.9850200000042,
                    "velocity": 0.4330708661417323,
                    "duration": 0.33088199999997414
                },
                {
                    "name": "G#6",
                    "midi": 92,
                    "time": 256.9850200000042,
                    "velocity": 0.4330708661417323,
                    "duration": 0.33088199999997414
                },
                {
                    "name": "A#6",
                    "midi": 94,
                    "time": 257.3159020000042,
                    "velocity": 0.44881889763779526,
                    "duration": 0.05514699999997674
                },
                {
                    "name": "C#7",
                    "midi": 97,
                    "time": 257.3159020000042,
                    "velocity": 0.44881889763779526,
                    "duration": 0.05514699999997674
                },
                {
                    "name": "G#6",
                    "midi": 92,
                    "time": 257.42619600000415,
                    "velocity": 0.4251968503937008,
                    "duration": 0.05514699999997674
                },
                {
                    "name": "C7",
                    "midi": 96,
                    "time": 257.42619600000415,
                    "velocity": 0.4251968503937008,
                    "duration": 0.05514699999997674
                },
                {
                    "name": "A#6",
                    "midi": 94,
                    "time": 257.5364900000041,
                    "velocity": 0.4251968503937008,
                    "duration": 0.05514699999997674
                },
                {
                    "name": "F#6",
                    "midi": 90,
                    "time": 257.5364900000041,
                    "velocity": 0.4251968503937008,
                    "duration": 0.05514699999997674
                },
                {
                    "name": "F6",
                    "midi": 89,
                    "time": 257.64678400000406,
                    "velocity": 0.3700787401574803,
                    "duration": 0.05514699999997674
                },
                {
                    "name": "G#6",
                    "midi": 92,
                    "time": 257.64678400000406,
                    "velocity": 0.4094488188976378,
                    "duration": 0.05514699999997674
                },
                {
                    "name": "F5",
                    "midi": 77,
                    "time": 257.867372000004,
                    "velocity": 0.41732283464566927,
                    "duration": 0.33088199999997414
                },
                {
                    "name": "G#5",
                    "midi": 80,
                    "time": 257.867372000004,
                    "velocity": 0.41732283464566927,
                    "duration": 0.33088199999997414
                },
                {
                    "name": "D#5",
                    "midi": 75,
                    "time": 258.198254000004,
                    "velocity": 0.4330708661417323,
                    "duration": 0.05514699999997674
                },
                {
                    "name": "F#5",
                    "midi": 78,
                    "time": 258.198254000004,
                    "velocity": 0.4330708661417323,
                    "duration": 0.05514699999997674
                },
                {
                    "name": "C#5",
                    "midi": 73,
                    "time": 258.30854800000395,
                    "velocity": 0.4330708661417323,
                    "duration": 0.05514699999997674
                },
                {
                    "name": "F5",
                    "midi": 77,
                    "time": 258.30854800000395,
                    "velocity": 0.4330708661417323,
                    "duration": 0.05514699999997674
                },
                {
                    "name": "D#5",
                    "midi": 75,
                    "time": 258.4188420000039,
                    "velocity": 0.4330708661417323,
                    "duration": 0.05514699999997674
                },
                {
                    "name": "G#4",
                    "midi": 68,
                    "time": 258.4188420000039,
                    "velocity": 0.4330708661417323,
                    "duration": 0.05514699999997674
                },
                {
                    "name": "C#5",
                    "midi": 73,
                    "time": 258.52913600000386,
                    "velocity": 0.3543307086614173,
                    "duration": 0.05514699999997674
                },
                {
                    "name": "F5",
                    "midi": 77,
                    "time": 258.52913600000386,
                    "velocity": 0.3937007874015748,
                    "duration": 0.05514699999997674
                },
                {
                    "name": "F6",
                    "midi": 89,
                    "time": 258.7497240000038,
                    "velocity": 0.4330708661417323,
                    "duration": 0.33088199999997414
                },
                {
                    "name": "G#6",
                    "midi": 92,
                    "time": 258.7497240000038,
                    "velocity": 0.4330708661417323,
                    "duration": 0.33088199999997414
                },
                {
                    "name": "A#6",
                    "midi": 94,
                    "time": 259.0806060000038,
                    "velocity": 0.44881889763779526,
                    "duration": 0.05514699999997674
                },
                {
                    "name": "C#7",
                    "midi": 97,
                    "time": 259.0806060000038,
                    "velocity": 0.44881889763779526,
                    "duration": 0.05514699999997674
                },
                {
                    "name": "G#6",
                    "midi": 92,
                    "time": 259.19090000000375,
                    "velocity": 0.4251968503937008,
                    "duration": 0.05514699999997674
                },
                {
                    "name": "C7",
                    "midi": 96,
                    "time": 259.19090000000375,
                    "velocity": 0.4251968503937008,
                    "duration": 0.05514699999997674
                },
                {
                    "name": "A#6",
                    "midi": 94,
                    "time": 259.3011940000037,
                    "velocity": 0.4251968503937008,
                    "duration": 0.05514699999997674
                },
                {
                    "name": "F#6",
                    "midi": 90,
                    "time": 259.3011940000037,
                    "velocity": 0.4251968503937008,
                    "duration": 0.05514699999997674
                },
                {
                    "name": "F6",
                    "midi": 89,
                    "time": 259.41148800000366,
                    "velocity": 0.3700787401574803,
                    "duration": 0.05514699999997674
                },
                {
                    "name": "G#6",
                    "midi": 92,
                    "time": 259.41148800000366,
                    "velocity": 0.4094488188976378,
                    "duration": 0.05514699999997674
                },
                {
                    "name": "F#5",
                    "midi": 78,
                    "time": 259.6320760000036,
                    "velocity": 0.5039370078740157,
                    "duration": 0.22058800000002066
                },
                {
                    "name": "A#5",
                    "midi": 82,
                    "time": 259.6320760000036,
                    "velocity": 0.5039370078740157,
                    "duration": 0.22058800000002066
                },
                {
                    "name": "F5",
                    "midi": 77,
                    "time": 259.85266400000364,
                    "velocity": 0.4566929133858268,
                    "duration": 0.05514699999997674
                },
                {
                    "name": "G#5",
                    "midi": 80,
                    "time": 259.85266400000364,
                    "velocity": 0.4566929133858268,
                    "duration": 0.05514699999997674
                },
                {
                    "name": "D#5",
                    "midi": 75,
                    "time": 259.9629580000036,
                    "velocity": 0.4251968503937008,
                    "duration": 0.05514699999997674
                },
                {
                    "name": "F#5",
                    "midi": 78,
                    "time": 259.9629580000036,
                    "velocity": 0.4251968503937008,
                    "duration": 0.05514699999997674
                },
                {
                    "name": "C#5",
                    "midi": 73,
                    "time": 260.07325200000355,
                    "velocity": 0.4251968503937008,
                    "duration": 0.05514699999997674
                },
                {
                    "name": "F5",
                    "midi": 77,
                    "time": 260.07325200000355,
                    "velocity": 0.4251968503937008,
                    "duration": 0.05514699999997674
                },
                {
                    "name": "D#5",
                    "midi": 75,
                    "time": 260.1835460000035,
                    "velocity": 0.41732283464566927,
                    "duration": 0.05514699999997674
                },
                {
                    "name": "G#4",
                    "midi": 68,
                    "time": 260.1835460000035,
                    "velocity": 0.41732283464566927,
                    "duration": 0.05514699999997674
                },
                {
                    "name": "C#5",
                    "midi": 73,
                    "time": 260.29384000000346,
                    "velocity": 0.3543307086614173,
                    "duration": 0.05514699999997674
                },
                {
                    "name": "F5",
                    "midi": 77,
                    "time": 260.29384000000346,
                    "velocity": 0.3937007874015748,
                    "duration": 0.05514699999997674
                },
                {
                    "name": "F6",
                    "midi": 89,
                    "time": 260.5144280000034,
                    "velocity": 0.4330708661417323,
                    "duration": 0.33088199999997414
                },
                {
                    "name": "G#6",
                    "midi": 92,
                    "time": 260.5144280000034,
                    "velocity": 0.4330708661417323,
                    "duration": 0.33088199999997414
                },
                {
                    "name": "A#6",
                    "midi": 94,
                    "time": 260.8453100000034,
                    "velocity": 0.44881889763779526,
                    "duration": 0.05514699999997674
                },
                {
                    "name": "C#7",
                    "midi": 97,
                    "time": 260.8453100000034,
                    "velocity": 0.44881889763779526,
                    "duration": 0.05514699999997674
                },
                {
                    "name": "G#6",
                    "midi": 92,
                    "time": 260.95560400000335,
                    "velocity": 0.4251968503937008,
                    "duration": 0.05514699999997674
                },
                {
                    "name": "C7",
                    "midi": 96,
                    "time": 260.95560400000335,
                    "velocity": 0.4251968503937008,
                    "duration": 0.05514699999997674
                },
                {
                    "name": "A#6",
                    "midi": 94,
                    "time": 261.0658980000033,
                    "velocity": 0.4251968503937008,
                    "duration": 0.05514699999997674
                },
                {
                    "name": "F#6",
                    "midi": 90,
                    "time": 261.0658980000033,
                    "velocity": 0.4251968503937008,
                    "duration": 0.05514699999997674
                },
                {
                    "name": "F6",
                    "midi": 89,
                    "time": 261.17619200000325,
                    "velocity": 0.3700787401574803,
                    "duration": 0.05514699999997674
                },
                {
                    "name": "G#6",
                    "midi": 92,
                    "time": 261.17619200000325,
                    "velocity": 0.4094488188976378,
                    "duration": 0.05514699999997674
                },
                {
                    "name": "F5",
                    "midi": 77,
                    "time": 261.3967800000032,
                    "velocity": 0.41732283464566927,
                    "duration": 0.33088199999997414
                },
                {
                    "name": "G#5",
                    "midi": 80,
                    "time": 261.3967800000032,
                    "velocity": 0.41732283464566927,
                    "duration": 0.33088199999997414
                },
                {
                    "name": "D#5",
                    "midi": 75,
                    "time": 261.7276620000032,
                    "velocity": 0.4330708661417323,
                    "duration": 0.05514699999997674
                },
                {
                    "name": "F#5",
                    "midi": 78,
                    "time": 261.7276620000032,
                    "velocity": 0.4330708661417323,
                    "duration": 0.05514699999997674
                },
                {
                    "name": "C#5",
                    "midi": 73,
                    "time": 261.83795600000315,
                    "velocity": 0.41732283464566927,
                    "duration": 0.05514699999997674
                },
                {
                    "name": "F5",
                    "midi": 77,
                    "time": 261.83795600000315,
                    "velocity": 0.41732283464566927,
                    "duration": 0.05514699999997674
                },
                {
                    "name": "D#5",
                    "midi": 75,
                    "time": 261.9482500000031,
                    "velocity": 0.41732283464566927,
                    "duration": 0.05514699999997674
                },
                {
                    "name": "G#4",
                    "midi": 68,
                    "time": 261.9482500000031,
                    "velocity": 0.41732283464566927,
                    "duration": 0.05514699999997674
                },
                {
                    "name": "C#5",
                    "midi": 73,
                    "time": 262.05854400000305,
                    "velocity": 0.3543307086614173,
                    "duration": 0.05514699999997674
                },
                {
                    "name": "F5",
                    "midi": 77,
                    "time": 262.05854400000305,
                    "velocity": 0.3937007874015748,
                    "duration": 0.05514699999997674
                },
                {
                    "name": "F6",
                    "midi": 89,
                    "time": 262.279132000003,
                    "velocity": 0.4330708661417323,
                    "duration": 0.33088199999997414
                },
                {
                    "name": "G#6",
                    "midi": 92,
                    "time": 262.279132000003,
                    "velocity": 0.4330708661417323,
                    "duration": 0.33088199999997414
                },
                {
                    "name": "A#6",
                    "midi": 94,
                    "time": 262.610014000003,
                    "velocity": 0.44881889763779526,
                    "duration": 0.05514699999997674
                },
                {
                    "name": "C#7",
                    "midi": 97,
                    "time": 262.610014000003,
                    "velocity": 0.44881889763779526,
                    "duration": 0.05514699999997674
                },
                {
                    "name": "G#6",
                    "midi": 92,
                    "time": 262.72030800000294,
                    "velocity": 0.4251968503937008,
                    "duration": 0.05514699999997674
                },
                {
                    "name": "C7",
                    "midi": 96,
                    "time": 262.72030800000294,
                    "velocity": 0.4251968503937008,
                    "duration": 0.05514699999997674
                },
                {
                    "name": "A#6",
                    "midi": 94,
                    "time": 262.8306020000029,
                    "velocity": 0.4251968503937008,
                    "duration": 0.05514699999997674
                },
                {
                    "name": "F#6",
                    "midi": 90,
                    "time": 262.8306020000029,
                    "velocity": 0.4251968503937008,
                    "duration": 0.05514699999997674
                },
                {
                    "name": "F6",
                    "midi": 89,
                    "time": 262.94089600000285,
                    "velocity": 0.3700787401574803,
                    "duration": 0.05514699999997674
                },
                {
                    "name": "G#6",
                    "midi": 92,
                    "time": 262.94089600000285,
                    "velocity": 0.4094488188976378,
                    "duration": 0.05514699999997674
                },
                {
                    "name": "F#5",
                    "midi": 78,
                    "time": 263.1614840000028,
                    "velocity": 0.47244094488188976,
                    "duration": 0.22058800000002066
                },
                {
                    "name": "A#5",
                    "midi": 82,
                    "time": 263.1614840000028,
                    "velocity": 0.47244094488188976,
                    "duration": 0.22058800000002066
                },
                {
                    "name": "F5",
                    "midi": 77,
                    "time": 263.38207200000284,
                    "velocity": 0.4645669291338583,
                    "duration": 0.05514699999997674
                },
                {
                    "name": "G#5",
                    "midi": 80,
                    "time": 263.38207200000284,
                    "velocity": 0.4645669291338583,
                    "duration": 0.05514699999997674
                },
                {
                    "name": "D#5",
                    "midi": 75,
                    "time": 263.4923660000028,
                    "velocity": 0.41732283464566927,
                    "duration": 0.05514699999997674
                },
                {
                    "name": "F#5",
                    "midi": 78,
                    "time": 263.4923660000028,
                    "velocity": 0.41732283464566927,
                    "duration": 0.05514699999997674
                },
                {
                    "name": "C#5",
                    "midi": 73,
                    "time": 263.60266000000274,
                    "velocity": 0.41732283464566927,
                    "duration": 0.05514699999997674
                },
                {
                    "name": "F5",
                    "midi": 77,
                    "time": 263.60266000000274,
                    "velocity": 0.41732283464566927,
                    "duration": 0.05514699999997674
                },
                {
                    "name": "D#5",
                    "midi": 75,
                    "time": 263.7129540000027,
                    "velocity": 0.41732283464566927,
                    "duration": 0.05514699999997674
                },
                {
                    "name": "G#4",
                    "midi": 68,
                    "time": 263.7129540000027,
                    "velocity": 0.41732283464566927,
                    "duration": 0.05514699999997674
                },
                {
                    "name": "C#5",
                    "midi": 73,
                    "time": 263.82324800000265,
                    "velocity": 0.4330708661417323,
                    "duration": 0.05514699999997674
                },
                {
                    "name": "F5",
                    "midi": 77,
                    "time": 263.82324800000265,
                    "velocity": 0.4330708661417323,
                    "duration": 0.05514699999997674
                },
                {
                    "name": "G#4",
                    "midi": 68,
                    "time": 264.0438360000026,
                    "velocity": 0.3937007874015748,
                    "duration": 0.22058800000002066
                },
                {
                    "name": "C#5",
                    "midi": 73,
                    "time": 264.0438360000026,
                    "velocity": 0.3937007874015748,
                    "duration": 0.11029400000001033
                },
                {
                    "name": "D5",
                    "midi": 74,
                    "time": 264.1541300000026,
                    "velocity": 0.4015748031496063,
                    "duration": 0.11029400000001033
                },
                {
                    "name": "G#4",
                    "midi": 68,
                    "time": 264.26442400000263,
                    "velocity": 0.4330708661417323,
                    "duration": 0.33088199999997414
                },
                {
                    "name": "D#5",
                    "midi": 75,
                    "time": 264.26442400000263,
                    "velocity": 0.4330708661417323,
                    "duration": 0.33088199999997414
                },
                {
                    "name": "D#5",
                    "midi": 75,
                    "time": 264.5953060000026,
                    "velocity": 0.3937007874015748,
                    "duration": 0.05514699999997674
                },
                {
                    "name": "F#5",
                    "midi": 78,
                    "time": 264.5953060000026,
                    "velocity": 0.3937007874015748,
                    "duration": 0.05514699999997674
                },
                {
                    "name": "C#5",
                    "midi": 73,
                    "time": 264.70560000000256,
                    "velocity": 0.4330708661417323,
                    "duration": 0.22058800000002066
                },
                {
                    "name": "F5",
                    "midi": 77,
                    "time": 264.70560000000256,
                    "velocity": 0.4330708661417323,
                    "duration": 0.11029400000001033
                },
                {
                    "name": "G#5",
                    "midi": 80,
                    "time": 264.8158940000026,
                    "velocity": 0.4015748031496063,
                    "duration": 0.11029400000001033
                },
                {
                    "name": "G#4",
                    "midi": 68,
                    "time": 264.9261880000026,
                    "velocity": 0.4015748031496063,
                    "duration": 0.11029400000001033
                },
                {
                    "name": "C#5",
                    "midi": 73,
                    "time": 264.9261880000026,
                    "velocity": 0.4015748031496063,
                    "duration": 0.11029400000001033
                },
                {
                    "name": "G#5",
                    "midi": 80,
                    "time": 265.1467760000026,
                    "velocity": 0.44881889763779526,
                    "duration": 0.33088199999997414
                },
                {
                    "name": "D#6",
                    "midi": 87,
                    "time": 265.1467760000026,
                    "velocity": 0.44881889763779526,
                    "duration": 0.33088199999997414
                },
                {
                    "name": "D#6",
                    "midi": 87,
                    "time": 265.4776580000026,
                    "velocity": 0.4094488188976378,
                    "duration": 0.05514699999997674
                },
                {
                    "name": "F#6",
                    "midi": 90,
                    "time": 265.4776580000026,
                    "velocity": 0.4094488188976378,
                    "duration": 0.05514699999997674
                },
                {
                    "name": "C#6",
                    "midi": 85,
                    "time": 265.58795200000253,
                    "velocity": 0.44881889763779526,
                    "duration": 0.22058800000002066
                },
                {
                    "name": "F6",
                    "midi": 89,
                    "time": 265.58795200000253,
                    "velocity": 0.44881889763779526,
                    "duration": 0.11029400000001033
                },
                {
                    "name": "G#6",
                    "midi": 92,
                    "time": 265.69824600000254,
                    "velocity": 0.41732283464566927,
                    "duration": 0.11029400000001033
                },
                {
                    "name": "G#5",
                    "midi": 80,
                    "time": 265.80854000000255,
                    "velocity": 0.41732283464566927,
                    "duration": 0.11029400000001033
                },
                {
                    "name": "C#6",
                    "midi": 85,
                    "time": 265.80854000000255,
                    "velocity": 0.41732283464566927,
                    "duration": 0.11029400000001033
                },
                {
                    "name": "G#4",
                    "midi": 68,
                    "time": 266.0291280000026,
                    "velocity": 0.4330708661417323,
                    "duration": 0.33088199999997414
                },
                {
                    "name": "D#5",
                    "midi": 75,
                    "time": 266.0291280000026,
                    "velocity": 0.4330708661417323,
                    "duration": 0.33088199999997414
                },
                {
                    "name": "D#5",
                    "midi": 75,
                    "time": 266.36001000000255,
                    "velocity": 0.3937007874015748,
                    "duration": 0.05514699999997674
                },
                {
                    "name": "F#5",
                    "midi": 78,
                    "time": 266.36001000000255,
                    "velocity": 0.3937007874015748,
                    "duration": 0.03676466666667011
                },
                {
                    "name": "G#5",
                    "midi": 80,
                    "time": 266.3967746666692,
                    "velocity": 0.3937007874015748,
                    "duration": 0.036764666666613266
                },
                {
                    "name": "F#5",
                    "midi": 78,
                    "time": 266.43353933333583,
                    "velocity": 0.3937007874015748,
                    "duration": 0.03676466666667011
                },
                {
                    "name": "C#5",
                    "midi": 73,
                    "time": 266.4703040000025,
                    "velocity": 0.4330708661417323,
                    "duration": 0.22058800000002066
                },
                {
                    "name": "F5",
                    "midi": 77,
                    "time": 266.4703040000025,
                    "velocity": 0.4330708661417323,
                    "duration": 0.11029400000001033
                },
                {
                    "name": "G#5",
                    "midi": 80,
                    "time": 266.5805980000025,
                    "velocity": 0.4015748031496063,
                    "duration": 0.11029400000001033
                },
                {
                    "name": "G#4",
                    "midi": 68,
                    "time": 266.6908920000025,
                    "velocity": 0.4015748031496063,
                    "duration": 0.11029400000001033
                },
                {
                    "name": "C#5",
                    "midi": 73,
                    "time": 266.6908920000025,
                    "velocity": 0.4015748031496063,
                    "duration": 0.11029400000001033
                },
                {
                    "name": "G#5",
                    "midi": 80,
                    "time": 266.91148000000254,
                    "velocity": 0.44881889763779526,
                    "duration": 0.33088199999997414
                },
                {
                    "name": "D#6",
                    "midi": 87,
                    "time": 266.91148000000254,
                    "velocity": 0.44881889763779526,
                    "duration": 0.33088199999997414
                },
                {
                    "name": "D#6",
                    "midi": 87,
                    "time": 267.2423620000025,
                    "velocity": 0.4094488188976378,
                    "duration": 0.05514699999997674
                },
                {
                    "name": "F#6",
                    "midi": 90,
                    "time": 267.2423620000025,
                    "velocity": 0.4094488188976378,
                    "duration": 0.03676466666667011
                },
                {
                    "name": "G#6",
                    "midi": 92,
                    "time": 267.2791266666692,
                    "velocity": 0.4094488188976378,
                    "duration": 0.036764666666613266
                },
                {
                    "name": "F#6",
                    "midi": 90,
                    "time": 267.3158913333358,
                    "velocity": 0.4094488188976378,
                    "duration": 0.03676466666667011
                },
                {
                    "name": "C#6",
                    "midi": 85,
                    "time": 267.35265600000247,
                    "velocity": 0.44881889763779526,
                    "duration": 0.22058800000002066
                },
                {
                    "name": "F6",
                    "midi": 89,
                    "time": 267.35265600000247,
                    "velocity": 0.44881889763779526,
                    "duration": 0.11029400000001033
                },
                {
                    "name": "G#6",
                    "midi": 92,
                    "time": 267.4629500000025,
                    "velocity": 0.41732283464566927,
                    "duration": 0.11029400000001033
                },
                {
                    "name": "G#5",
                    "midi": 80,
                    "time": 267.5732440000025,
                    "velocity": 0.41732283464566927,
                    "duration": 0.11029400000001033
                },
                {
                    "name": "C#6",
                    "midi": 85,
                    "time": 267.5732440000025,
                    "velocity": 0.41732283464566927,
                    "duration": 0.11029400000001033
                },
                {
                    "name": "C5",
                    "midi": 72,
                    "time": 267.7938320000025,
                    "velocity": 0.3779527559055118,
                    "duration": 0.05514699999997674
                },
                {
                    "name": "C#5",
                    "midi": 73,
                    "time": 267.8489790000025,
                    "velocity": 0.3858267716535433,
                    "duration": 0.05514699999997674
                },
                {
                    "name": "D#5",
                    "midi": 75,
                    "time": 267.90412600000246,
                    "velocity": 0.3937007874015748,
                    "duration": 0.05514699999997674
                },
                {
                    "name": "F5",
                    "midi": 77,
                    "time": 267.95927300000244,
                    "velocity": 0.4015748031496063,
                    "duration": 0.05514699999997674
                },
                {
                    "name": "F#5",
                    "midi": 78,
                    "time": 268.0144200000024,
                    "velocity": 0.4094488188976378,
                    "duration": 0.05514699999997674
                },
                {
                    "name": "G#5",
                    "midi": 80,
                    "time": 268.0695670000024,
                    "velocity": 0.4094488188976378,
                    "duration": 0.05514699999997674
                },
                {
                    "name": "A#5",
                    "midi": 82,
                    "time": 268.12471400000237,
                    "velocity": 0.41732283464566927,
                    "duration": 0.05514699999997674
                },
                {
                    "name": "C6",
                    "midi": 84,
                    "time": 268.17986100000235,
                    "velocity": 0.4251968503937008,
                    "duration": 0.05514699999997674
                },
                {
                    "name": "C#6",
                    "midi": 85,
                    "time": 268.2350080000023,
                    "velocity": 0.4409448818897638,
                    "duration": 0.05514699999997674
                },
                {
                    "name": "D#6",
                    "midi": 87,
                    "time": 268.2901550000023,
                    "velocity": 0.4409448818897638,
                    "duration": 0.05514699999997674
                },
                {
                    "name": "F6",
                    "midi": 89,
                    "time": 268.3453020000023,
                    "velocity": 0.4409448818897638,
                    "duration": 0.05514699999997674
                },
                {
                    "name": "F#6",
                    "midi": 90,
                    "time": 268.40044900000225,
                    "velocity": 0.44881889763779526,
                    "duration": 0.05514699999997674
                },
                {
                    "name": "G6",
                    "midi": 91,
                    "time": 268.45559600000223,
                    "velocity": 0.44881889763779526,
                    "duration": 0.05514699999997674
                },
                {
                    "name": "A#6",
                    "midi": 94,
                    "time": 268.5107430000022,
                    "velocity": 0.4566929133858268,
                    "duration": 0.05514699999997674
                },
                {
                    "name": "G#6",
                    "midi": 92,
                    "time": 268.5658900000022,
                    "velocity": 0.4566929133858268,
                    "duration": 0.05514699999997674
                },
                {
                    "name": "A#6",
                    "midi": 94,
                    "time": 268.62103700000216,
                    "velocity": 0.4645669291338583,
                    "duration": 0.05514699999997674
                },
                {
                    "name": "G#6",
                    "midi": 92,
                    "time": 268.67618400000214,
                    "velocity": 0.4566929133858268,
                    "duration": 0.05514699999997674
                },
                {
                    "name": "D#6",
                    "midi": 87,
                    "time": 268.67618400000214,
                    "velocity": 0.48031496062992124,
                    "duration": 0.33088199999986045
                },
                {
                    "name": "A#6",
                    "midi": 94,
                    "time": 268.7313310000021,
                    "velocity": 0.4094488188976378,
                    "duration": 0.05514699999997674
                },
                {
                    "name": "G#6",
                    "midi": 92,
                    "time": 268.7864780000021,
                    "velocity": 0.4094488188976378,
                    "duration": 0.05514699999997674
                },
                {
                    "name": "A#6",
                    "midi": 94,
                    "time": 268.84162500000207,
                    "velocity": 0.4094488188976378,
                    "duration": 0.05514699999997674
                },
                {
                    "name": "G#6",
                    "midi": 92,
                    "time": 268.89677200000204,
                    "velocity": 0.4094488188976378,
                    "duration": 0.05514699999997674
                },
                {
                    "name": "A#6",
                    "midi": 94,
                    "time": 268.951919000002,
                    "velocity": 0.4094488188976378,
                    "duration": 0.05514699999997674
                },
                {
                    "name": "G#6",
                    "midi": 92,
                    "time": 269.007066000002,
                    "velocity": 0.4094488188976378,
                    "duration": 0.05514699999997674
                },
                {
                    "name": "F#6",
                    "midi": 90,
                    "time": 269.007066000002,
                    "velocity": 0.4094488188976378,
                    "duration": 0.11029399999995348
                },
                {
                    "name": "A#6",
                    "midi": 94,
                    "time": 269.062213000002,
                    "velocity": 0.4094488188976378,
                    "duration": 0.05514699999997674
                },
                {
                    "name": "G#6",
                    "midi": 92,
                    "time": 269.11736000000195,
                    "velocity": 0.4566929133858268,
                    "duration": 0.05514699999997674
                },
                {
                    "name": "F6",
                    "midi": 89,
                    "time": 269.11736000000195,
                    "velocity": 0.44881889763779526,
                    "duration": 0.11029399999995348
                },
                {
                    "name": "A#6",
                    "midi": 94,
                    "time": 269.17250700000193,
                    "velocity": 0.4094488188976378,
                    "duration": 0.05514699999997674
                },
                {
                    "name": "G#6",
                    "midi": 92,
                    "time": 269.2276540000019,
                    "velocity": 0.41732283464566927,
                    "duration": 0.11029399999995348
                },
                {
                    "name": "A#6",
                    "midi": 94,
                    "time": 269.2828010000019,
                    "velocity": 0.4094488188976378,
                    "duration": 0.05514699999997674
                },
                {
                    "name": "G#6",
                    "midi": 92,
                    "time": 269.33794800000186,
                    "velocity": 0.4566929133858268,
                    "duration": 0.11029400000001033
                },
                {
                    "name": "C#6",
                    "midi": 85,
                    "time": 269.33794800000186,
                    "velocity": 0.41732283464566927,
                    "duration": 0.11029400000001033
                },
                {
                    "name": "C5",
                    "midi": 72,
                    "time": 269.5594551166685,
                    "velocity": 0.3779527559055118,
                    "duration": 0.05514699999997674
                },
                {
                    "name": "C#5",
                    "midi": 73,
                    "time": 269.6146021166685,
                    "velocity": 0.3858267716535433,
                    "duration": 0.05514699999997674
                },
                {
                    "name": "D#5",
                    "midi": 75,
                    "time": 269.66974911666847,
                    "velocity": 0.3937007874015748,
                    "duration": 0.05514699999997674
                },
                {
                    "name": "F5",
                    "midi": 77,
                    "time": 269.72489611666845,
                    "velocity": 0.4015748031496063,
                    "duration": 0.05514699999997674
                },
                {
                    "name": "F#5",
                    "midi": 78,
                    "time": 269.7800431166684,
                    "velocity": 0.4094488188976378,
                    "duration": 0.05514699999997674
                },
                {
                    "name": "G#5",
                    "midi": 80,
                    "time": 269.8351901166684,
                    "velocity": 0.4094488188976378,
                    "duration": 0.05514699999997674
                },
                {
                    "name": "A#5",
                    "midi": 82,
                    "time": 269.8903371166684,
                    "velocity": 0.41732283464566927,
                    "duration": 0.05514699999997674
                },
                {
                    "name": "C6",
                    "midi": 84,
                    "time": 269.94548411666835,
                    "velocity": 0.4251968503937008,
                    "duration": 0.05514699999997674
                },
                {
                    "name": "C#6",
                    "midi": 85,
                    "time": 270.00063111666833,
                    "velocity": 0.4409448818897638,
                    "duration": 0.05514699999997674
                },
                {
                    "name": "D#6",
                    "midi": 87,
                    "time": 270.0557781166683,
                    "velocity": 0.4409448818897638,
                    "duration": 0.05514699999997674
                },
                {
                    "name": "F6",
                    "midi": 89,
                    "time": 270.1109251166683,
                    "velocity": 0.4409448818897638,
                    "duration": 0.05514699999997674
                },
                {
                    "name": "F#6",
                    "midi": 90,
                    "time": 270.16607211666826,
                    "velocity": 0.44881889763779526,
                    "duration": 0.05514699999997674
                },
                {
                    "name": "G6",
                    "midi": 91,
                    "time": 270.22121911666824,
                    "velocity": 0.44881889763779526,
                    "duration": 0.05514699999997674
                },
                {
                    "name": "A#6",
                    "midi": 94,
                    "time": 270.2763661166682,
                    "velocity": 0.4566929133858268,
                    "duration": 0.05514699999997674
                },
                {
                    "name": "G#6",
                    "midi": 92,
                    "time": 270.3315131166682,
                    "velocity": 0.4566929133858268,
                    "duration": 0.05514699999997674
                },
                {
                    "name": "A#6",
                    "midi": 94,
                    "time": 270.38666011666817,
                    "velocity": 0.4645669291338583,
                    "duration": 0.05514699999997674
                },
                {
                    "name": "G#6",
                    "midi": 92,
                    "time": 270.44180711666814,
                    "velocity": 0.4566929133858268,
                    "duration": 0.05514699999997674
                },
                {
                    "name": "D#6",
                    "midi": 87,
                    "time": 270.44180711666814,
                    "velocity": 0.48031496062992124,
                    "duration": 0.33088199999986045
                },
                {
                    "name": "A#6",
                    "midi": 94,
                    "time": 270.4969541166681,
                    "velocity": 0.4094488188976378,
                    "duration": 0.05514699999997674
                },
                {
                    "name": "G#6",
                    "midi": 92,
                    "time": 270.5521011166681,
                    "velocity": 0.4094488188976378,
                    "duration": 0.05514699999997674
                },
                {
                    "name": "A#6",
                    "midi": 94,
                    "time": 270.6072481166681,
                    "velocity": 0.4094488188976378,
                    "duration": 0.05514699999997674
                },
                {
                    "name": "G#6",
                    "midi": 92,
                    "time": 270.66239511666805,
                    "velocity": 0.4094488188976378,
                    "duration": 0.05514699999997674
                },
                {
                    "name": "A#6",
                    "midi": 94,
                    "time": 270.717542116668,
                    "velocity": 0.4094488188976378,
                    "duration": 0.05514699999997674
                },
                {
                    "name": "G#6",
                    "midi": 92,
                    "time": 270.772689116668,
                    "velocity": 0.4094488188976378,
                    "duration": 0.05514699999997674
                },
                {
                    "name": "F#6",
                    "midi": 90,
                    "time": 270.772689116668,
                    "velocity": 0.4094488188976378,
                    "duration": 0.11029399999995348
                },
                {
                    "name": "A#6",
                    "midi": 94,
                    "time": 270.827836116668,
                    "velocity": 0.4094488188976378,
                    "duration": 0.05514699999997674
                },
                {
                    "name": "G#6",
                    "midi": 92,
                    "time": 270.88298311666796,
                    "velocity": 0.4566929133858268,
                    "duration": 0.05514699999997674
                },
                {
                    "name": "F6",
                    "midi": 89,
                    "time": 270.88298311666796,
                    "velocity": 0.44881889763779526,
                    "duration": 0.11029399999995348
                },
                {
                    "name": "A#6",
                    "midi": 94,
                    "time": 270.93813011666793,
                    "velocity": 0.4094488188976378,
                    "duration": 0.05514699999997674
                },
                {
                    "name": "G#6",
                    "midi": 92,
                    "time": 270.9932771166679,
                    "velocity": 0.41732283464566927,
                    "duration": 0.11029400000001033
                },
                {
                    "name": "A#6",
                    "midi": 94,
                    "time": 271.04750500000125,
                    "velocity": 0.4094488188976378,
                    "duration": 0.05514699999997674
                },
                {
                    "name": "G#6",
                    "midi": 92,
                    "time": 271.1026520000012,
                    "velocity": 0.4566929133858268,
                    "duration": 0.055147000000033586
                },
                {
                    "name": "C#6",
                    "midi": 85,
                    "time": 271.1035711166679,
                    "velocity": 0.41732283464566927,
                    "duration": 0.11029400000001033
                },
                {
                    "name": "A#6",
                    "midi": 94,
                    "time": 271.15779900000126,
                    "velocity": 0.4094488188976378,
                    "duration": 0.05514699999997674
                },
                {
                    "name": "G#6",
                    "midi": 92,
                    "time": 271.21294600000124,
                    "velocity": 0.4094488188976378,
                    "duration": 0.055147000000033586
                },
                {
                    "name": "A#6",
                    "midi": 94,
                    "time": 271.2680930000013,
                    "velocity": 0.4094488188976378,
                    "duration": 0.05514699999997674
                },
                {
                    "name": "G#6",
                    "midi": 92,
                    "time": 271.32415911666794,
                    "velocity": 0.47244094488188976,
                    "duration": 0.05514699999997674
                },
                {
                    "name": "D#6",
                    "midi": 87,
                    "time": 271.32415911666794,
                    "velocity": 0.5039370078740157,
                    "duration": 0.33088199999986045
                },
                {
                    "name": "A#6",
                    "midi": 94,
                    "time": 271.3793061166679,
                    "velocity": 0.4251968503937008,
                    "duration": 0.05514699999997674
                },
                {
                    "name": "G#6",
                    "midi": 92,
                    "time": 271.4344531166679,
                    "velocity": 0.4251968503937008,
                    "duration": 0.05514699999997674
                },
                {
                    "name": "A#6",
                    "midi": 94,
                    "time": 271.4896001166679,
                    "velocity": 0.4251968503937008,
                    "duration": 0.05514699999997674
                },
                {
                    "name": "G#6",
                    "midi": 92,
                    "time": 271.54474711666785,
                    "velocity": 0.4251968503937008,
                    "duration": 0.05514699999997674
                },
                {
                    "name": "A#6",
                    "midi": 94,
                    "time": 271.5998941166678,
                    "velocity": 0.4251968503937008,
                    "duration": 0.05514699999997674
                },
                {
                    "name": "G#6",
                    "midi": 92,
                    "time": 271.6550411166678,
                    "velocity": 0.4251968503937008,
                    "duration": 0.05514699999997674
                },
                {
                    "name": "F#6",
                    "midi": 90,
                    "time": 271.6550411166678,
                    "velocity": 0.4251968503937008,
                    "duration": 0.11029400000001033
                },
                {
                    "name": "A#6",
                    "midi": 94,
                    "time": 271.7101881166678,
                    "velocity": 0.4251968503937008,
                    "duration": 0.055147000000033586
                },
                {
                    "name": "F6",
                    "midi": 89,
                    "time": 271.7644160000011,
                    "velocity": 0.49606299212598426,
                    "duration": 0.11029400000001033
                },
                {
                    "name": "G#6",
                    "midi": 92,
                    "time": 271.87471000000113,
                    "velocity": 0.5039370078740157,
                    "duration": 0.11029400000001033
                },
                {
                    "name": "C#6",
                    "midi": 85,
                    "time": 271.98500400000114,
                    "velocity": 0.4330708661417323,
                    "duration": 0.11029400000001033
                },
                {
                    "name": "C6",
                    "midi": 84,
                    "time": 272.20559200000116,
                    "velocity": 0.44881889763779526,
                    "duration": 0.05514699999997674
                },
                {
                    "name": "C#6",
                    "midi": 85,
                    "time": 272.3158860000011,
                    "velocity": 0.4566929133858268,
                    "duration": 0.05514699999997674
                },
                {
                    "name": "D#6",
                    "midi": 87,
                    "time": 272.42618000000107,
                    "velocity": 0.47244094488188976,
                    "duration": 0.05514699999997674
                },
                {
                    "name": "E6",
                    "midi": 88,
                    "time": 272.536474000001,
                    "velocity": 0.48031496062992124,
                    "duration": 0.05514699999997674
                },
                {
                    "name": "F6",
                    "midi": 89,
                    "time": 272.646768000001,
                    "velocity": 0.49606299212598426,
                    "duration": 0.05514699999997674
                },
                {
                    "name": "F#6",
                    "midi": 90,
                    "time": 272.75706200000093,
                    "velocity": 0.5118110236220472,
                    "duration": 0.05514699999997674
                },
                {
                    "name": "G6",
                    "midi": 91,
                    "time": 272.8673560000009,
                    "velocity": 0.5039370078740157,
                    "duration": 0.05514699999997674
                },
                {
                    "name": "G#6",
                    "midi": 92,
                    "time": 272.97765000000084,
                    "velocity": 0.5275590551181102,
                    "duration": 0.05514699999997674
                },
                {
                    "name": "F#6",
                    "midi": 90,
                    "time": 273.0879440000008,
                    "velocity": 0.5039370078740157,
                    "duration": 0.05514699999997674
                },
                {
                    "name": "F6",
                    "midi": 89,
                    "time": 273.19823800000074,
                    "velocity": 0.5118110236220472,
                    "duration": 0.05514699999997674
                },
                {
                    "name": "D#6",
                    "midi": 87,
                    "time": 273.3085320000007,
                    "velocity": 0.5039370078740157,
                    "duration": 0.05514699999997674
                },
                {
                    "name": "F#6",
                    "midi": 90,
                    "time": 273.41882600000065,
                    "velocity": 0.5118110236220472,
                    "duration": 0.05514699999997674
                },
                {
                    "name": "F6",
                    "midi": 89,
                    "time": 273.5291200000006,
                    "velocity": 0.49606299212598426,
                    "duration": 0.11029400000001033
                },
                {
                    "name": "G#6",
                    "midi": 92,
                    "time": 273.6394140000006,
                    "velocity": 0.49606299212598426,
                    "duration": 0.11029400000001033
                },
                {
                    "name": "C#6",
                    "midi": 85,
                    "time": 273.7497080000006,
                    "velocity": 0.4330708661417323,
                    "duration": 0.11029400000001033
                },
                {
                    "name": "C6",
                    "midi": 84,
                    "time": 273.97029600000064,
                    "velocity": 0.44881889763779526,
                    "duration": 0.05514699999997674
                },
                {
                    "name": "C#6",
                    "midi": 85,
                    "time": 274.0805900000006,
                    "velocity": 0.4566929133858268,
                    "duration": 0.05514699999997674
                },
                {
                    "name": "D#6",
                    "midi": 87,
                    "time": 274.19088400000055,
                    "velocity": 0.47244094488188976,
                    "duration": 0.05514699999997674
                },
                {
                    "name": "E6",
                    "midi": 88,
                    "time": 274.3011780000005,
                    "velocity": 0.4881889763779528,
                    "duration": 0.05514699999997674
                },
                {
                    "name": "F6",
                    "midi": 89,
                    "time": 274.41147200000046,
                    "velocity": 0.5039370078740157,
                    "duration": 0.05514699999997674
                },
                {
                    "name": "F#6",
                    "midi": 90,
                    "time": 274.5217660000004,
                    "velocity": 0.5275590551181102,
                    "duration": 0.05514699999997674
                },
                {
                    "name": "G6",
                    "midi": 91,
                    "time": 274.63206000000037,
                    "velocity": 0.5275590551181102,
                    "duration": 0.05514699999997674
                },
                {
                    "name": "G#6",
                    "midi": 92,
                    "time": 274.7423540000003,
                    "velocity": 0.5590551181102362,
                    "duration": 0.05514699999997674
                },
                {
                    "name": "F#6",
                    "midi": 90,
                    "time": 274.8526480000003,
                    "velocity": 0.5354330708661418,
                    "duration": 0.05514699999997674
                },
                {
                    "name": "F6",
                    "midi": 89,
                    "time": 274.9629420000002,
                    "velocity": 0.5511811023622047,
                    "duration": 0.05514699999997674
                },
                {
                    "name": "D#6",
                    "midi": 87,
                    "time": 275.0732360000002,
                    "velocity": 0.5433070866141733,
                    "duration": 0.05514699999997674
                },
                {
                    "name": "G#6",
                    "midi": 92,
                    "time": 275.18353000000013,
                    "velocity": 0.5590551181102362,
                    "duration": 0.05514699999997674
                },
                {
                    "name": "C#6",
                    "midi": 85,
                    "time": 275.2938240000001,
                    "velocity": 0.4566929133858268,
                    "duration": 0.22058799999990697
                },
                {
                    "name": "G#6",
                    "midi": 92,
                    "time": 275.2938240000001,
                    "velocity": 0.48031496062992124,
                    "duration": 0.05514699999997674
                },
                {
                    "name": "A#6",
                    "midi": 94,
                    "time": 275.34897100000006,
                    "velocity": 0.4409448818897638,
                    "duration": 0.05514699999997674
                },
                {
                    "name": "G#6",
                    "midi": 92,
                    "time": 275.40411800000004,
                    "velocity": 0.4881889763779528,
                    "duration": 0.05514699999997674
                },
                {
                    "name": "A#6",
                    "midi": 94,
                    "time": 275.459265,
                    "velocity": 0.4409448818897638,
                    "duration": 0.05514699999997674
                },
                {
                    "name": "G#6",
                    "midi": 92,
                    "time": 275.514412,
                    "velocity": 0.49606299212598426,
                    "duration": 0.05514699999997674
                },
                {
                    "name": "A#6",
                    "midi": 94,
                    "time": 275.56955899999997,
                    "velocity": 0.44881889763779526,
                    "duration": 0.05514699999997674
                },
                {
                    "name": "G#6",
                    "midi": 92,
                    "time": 275.62470599999995,
                    "velocity": 0.47244094488188976,
                    "duration": 0.05514699999997674
                },
                {
                    "name": "A#6",
                    "midi": 94,
                    "time": 275.6798529999999,
                    "velocity": 0.4094488188976378,
                    "duration": 0.05514699999997674
                },
                {
                    "name": "G#6",
                    "midi": 92,
                    "time": 275.7349999999999,
                    "velocity": 0.4645669291338583,
                    "duration": 0.05514699999997674
                },
                {
                    "name": "A#6",
                    "midi": 94,
                    "time": 275.7901469999999,
                    "velocity": 0.4015748031496063,
                    "duration": 0.05514699999997674
                },
                {
                    "name": "G#6",
                    "midi": 92,
                    "time": 275.84529399999985,
                    "velocity": 0.4645669291338583,
                    "duration": 0.05514699999997674
                },
                {
                    "name": "A#6",
                    "midi": 94,
                    "time": 275.90044099999983,
                    "velocity": 0.4015748031496063,
                    "duration": 0.05514699999997674
                },
                {
                    "name": "G#6",
                    "midi": 92,
                    "time": 275.9555879999998,
                    "velocity": 0.4645669291338583,
                    "duration": 0.05514699999997674
                },
                {
                    "name": "A#6",
                    "midi": 94,
                    "time": 276.0107349999998,
                    "velocity": 0.4015748031496063,
                    "duration": 0.05514699999997674
                },
                {
                    "name": "G#6",
                    "midi": 92,
                    "time": 276.06588199999976,
                    "velocity": 0.4409448818897638,
                    "duration": 0.05514699999997674
                },
                {
                    "name": "A#6",
                    "midi": 94,
                    "time": 276.12102899999974,
                    "velocity": 0.4094488188976378,
                    "duration": 0.05514699999997674
                },
                {
                    "name": "G#6",
                    "midi": 92,
                    "time": 276.1761759999997,
                    "velocity": 0.48031496062992124,
                    "duration": 0.05514699999997674
                },
                {
                    "name": "A#6",
                    "midi": 94,
                    "time": 276.2313229999997,
                    "velocity": 0.4409448818897638,
                    "duration": 0.05514699999997674
                },
                {
                    "name": "G#6",
                    "midi": 92,
                    "time": 276.28646999999967,
                    "velocity": 0.4881889763779528,
                    "duration": 0.05514699999997674
                },
                {
                    "name": "A#6",
                    "midi": 94,
                    "time": 276.34161699999964,
                    "velocity": 0.4409448818897638,
                    "duration": 0.05514699999997674
                },
                {
                    "name": "G#6",
                    "midi": 92,
                    "time": 276.3967639999996,
                    "velocity": 0.4645669291338583,
                    "duration": 0.05514699999997674
                },
                {
                    "name": "A#6",
                    "midi": 94,
                    "time": 276.4519109999996,
                    "velocity": 0.41732283464566927,
                    "duration": 0.05514699999997674
                },
                {
                    "name": "G#6",
                    "midi": 92,
                    "time": 276.5070579999996,
                    "velocity": 0.4566929133858268,
                    "duration": 0.05514699999997674
                },
                {
                    "name": "A#6",
                    "midi": 94,
                    "time": 276.56220499999955,
                    "velocity": 0.4094488188976378,
                    "duration": 0.05514699999997674
                },
                {
                    "name": "G#6",
                    "midi": 92,
                    "time": 276.6173519999995,
                    "velocity": 0.4645669291338583,
                    "duration": 0.05514699999997674
                },
                {
                    "name": "A#6",
                    "midi": 94,
                    "time": 276.6724989999995,
                    "velocity": 0.41732283464566927,
                    "duration": 0.05514699999997674
                },
                {
                    "name": "G#6",
                    "midi": 92,
                    "time": 276.7276459999995,
                    "velocity": 0.47244094488188976,
                    "duration": 0.05514699999997674
                },
                {
                    "name": "A#6",
                    "midi": 94,
                    "time": 276.78279299999946,
                    "velocity": 0.41732283464566927,
                    "duration": 0.05514699999997674
                },
                {
                    "name": "G#6",
                    "midi": 92,
                    "time": 276.83793999999943,
                    "velocity": 0.47244094488188976,
                    "duration": 0.05514699999997674
                },
                {
                    "name": "A#6",
                    "midi": 94,
                    "time": 276.8930869999994,
                    "velocity": 0.41732283464566927,
                    "duration": 0.05514699999997674
                },
                {
                    "name": "G#6",
                    "midi": 92,
                    "time": 276.9482339999994,
                    "velocity": 0.47244094488188976,
                    "duration": 0.05514699999997674
                },
                {
                    "name": "A#6",
                    "midi": 94,
                    "time": 277.00338099999937,
                    "velocity": 0.41732283464566927,
                    "duration": 0.05514699999997674
                },
                {
                    "name": "G#6",
                    "midi": 92,
                    "time": 277.05852799999934,
                    "velocity": 0.48031496062992124,
                    "duration": 0.05514699999997674
                },
                {
                    "name": "A#6",
                    "midi": 94,
                    "time": 277.1136749999993,
                    "velocity": 0.4409448818897638,
                    "duration": 0.05514699999997674
                },
                {
                    "name": "G#6",
                    "midi": 92,
                    "time": 277.1688219999993,
                    "velocity": 0.4881889763779528,
                    "duration": 0.05514699999997674
                },
                {
                    "name": "A#6",
                    "midi": 94,
                    "time": 277.2239689999993,
                    "velocity": 0.4409448818897638,
                    "duration": 0.05514699999997674
                },
                {
                    "name": "G#6",
                    "midi": 92,
                    "time": 277.27911599999925,
                    "velocity": 0.49606299212598426,
                    "duration": 0.05514699999997674
                },
                {
                    "name": "A#6",
                    "midi": 94,
                    "time": 277.3342629999992,
                    "velocity": 0.44881889763779526,
                    "duration": 0.05514699999997674
                },
                {
                    "name": "G#6",
                    "midi": 92,
                    "time": 277.3894099999992,
                    "velocity": 0.47244094488188976,
                    "duration": 0.05514699999997674
                },
                {
                    "name": "A#6",
                    "midi": 94,
                    "time": 277.4445569999992,
                    "velocity": 0.4094488188976378,
                    "duration": 0.05514699999997674
                },
                {
                    "name": "G#6",
                    "midi": 92,
                    "time": 277.49970399999916,
                    "velocity": 0.5275590551181102,
                    "duration": 0.05514699999997674
                },
                {
                    "name": "F6",
                    "midi": 89,
                    "time": 277.55485099999913,
                    "velocity": 0.4015748031496063,
                    "duration": 0.05514699999997674
                },
                {
                    "name": "F#6",
                    "midi": 90,
                    "time": 277.6099979999991,
                    "velocity": 0.5118110236220472,
                    "duration": 0.05514699999997674
                },
                {
                    "name": "D#6",
                    "midi": 87,
                    "time": 277.6651449999991,
                    "velocity": 0.4015748031496063,
                    "duration": 0.05514699999997674
                },
                {
                    "name": "F6",
                    "midi": 89,
                    "time": 277.72029199999906,
                    "velocity": 0.5118110236220472,
                    "duration": 0.05514699999997674
                },
                {
                    "name": "C#6",
                    "midi": 85,
                    "time": 277.77543899999904,
                    "velocity": 0.4015748031496063,
                    "duration": 0.05514699999997674
                },
                {
                    "name": "F#6",
                    "midi": 90,
                    "time": 277.830585999999,
                    "velocity": 0.5039370078740157,
                    "duration": 0.05514699999997674
                },
                {
                    "name": "D#6",
                    "midi": 87,
                    "time": 277.885732999999,
                    "velocity": 0.4094488188976378,
                    "duration": 0.05514699999997674
                },
                {
                    "name": "G#6",
                    "midi": 92,
                    "time": 277.94087999999897,
                    "velocity": 0.48031496062992124,
                    "duration": 0.05514699999997674
                },
                {
                    "name": "F6",
                    "midi": 89,
                    "time": 277.99602699999895,
                    "velocity": 0.4409448818897638,
                    "duration": 0.05514699999997674
                },
                {
                    "name": "A#6",
                    "midi": 94,
                    "time": 278.0511739999989,
                    "velocity": 0.4881889763779528,
                    "duration": 0.05514699999997674
                },
                {
                    "name": "F#6",
                    "midi": 90,
                    "time": 278.1063209999989,
                    "velocity": 0.4409448818897638,
                    "duration": 0.05514699999997674
                },
                {
                    "name": "G#6",
                    "midi": 92,
                    "time": 278.1614679999989,
                    "velocity": 0.4645669291338583,
                    "duration": 0.05514699999997674
                },
                {
                    "name": "F6",
                    "midi": 89,
                    "time": 278.21661499999885,
                    "velocity": 0.41732283464566927,
                    "duration": 0.05514699999997674
                },
                {
                    "name": "G#6",
                    "midi": 92,
                    "time": 278.2754384666655,
                    "velocity": 0.4566929133858268,
                    "duration": 0.05514699999997674
                },
                {
                    "name": "F6",
                    "midi": 89,
                    "time": 278.3269089999988,
                    "velocity": 0.4094488188976378,
                    "duration": 0.05514699999997674
                },
                {
                    "name": "G#6",
                    "midi": 92,
                    "time": 278.3820559999988,
                    "velocity": 0.4645669291338583,
                    "duration": 0.05514699999997674
                },
                {
                    "name": "F6",
                    "midi": 89,
                    "time": 278.43720299999876,
                    "velocity": 0.41732283464566927,
                    "duration": 0.05514699999997674
                },
                {
                    "name": "F#6",
                    "midi": 90,
                    "time": 278.49234999999874,
                    "velocity": 0.47244094488188976,
                    "duration": 0.05514699999997674
                },
                {
                    "name": "D#6",
                    "midi": 87,
                    "time": 278.5474969999987,
                    "velocity": 0.41732283464566927,
                    "duration": 0.05514699999997674
                },
                {
                    "name": "F6",
                    "midi": 89,
                    "time": 278.6026439999987,
                    "velocity": 0.47244094488188976,
                    "duration": 0.05514699999997674
                },
                {
                    "name": "C#6",
                    "midi": 85,
                    "time": 278.65779099999867,
                    "velocity": 0.41732283464566927,
                    "duration": 0.05514699999997674
                },
                {
                    "name": "F#6",
                    "midi": 90,
                    "time": 278.71293799999864,
                    "velocity": 0.47244094488188976,
                    "duration": 0.05514699999997674
                },
                {
                    "name": "D#6",
                    "midi": 87,
                    "time": 278.7680849999986,
                    "velocity": 0.41732283464566927,
                    "duration": 0.05514699999997674
                },
                {
                    "name": "G#6",
                    "midi": 92,
                    "time": 278.8232319999986,
                    "velocity": 0.48031496062992124,
                    "duration": 0.05514699999997674
                },
                {
                    "name": "F6",
                    "midi": 89,
                    "time": 278.8783789999986,
                    "velocity": 0.4409448818897638,
                    "duration": 0.05514699999997674
                },
                {
                    "name": "E6",
                    "midi": 88,
                    "time": 278.93352599999855,
                    "velocity": 0.4566929133858268,
                    "duration": 0.05514699999997674
                },
                {
                    "name": "G6",
                    "midi": 91,
                    "time": 278.9886729999985,
                    "velocity": 0.4015748031496063,
                    "duration": 0.05514699999997674
                },
                {
                    "name": "F6",
                    "midi": 89,
                    "time": 279.0438199999985,
                    "velocity": 0.4251968503937008,
                    "duration": 0.05514699999997674
                },
                {
                    "name": "G#6",
                    "midi": 92,
                    "time": 279.0989669999985,
                    "velocity": 0.36220472440944884,
                    "duration": 0.05514699999997674
                },
                {
                    "name": "F6",
                    "midi": 89,
                    "time": 279.15411399999846,
                    "velocity": 0.4251968503937008,
                    "duration": 0.05514699999997674
                },
                {
                    "name": "A6",
                    "midi": 93,
                    "time": 279.20926099999843,
                    "velocity": 0.3779527559055118,
                    "duration": 0.05514699999997674
                },
                {
                    "name": "F#6",
                    "midi": 90,
                    "time": 279.2644079999984,
                    "velocity": 0.4330708661417323,
                    "duration": 0.05514699999997674
                },
                {
                    "name": "A#6",
                    "midi": 94,
                    "time": 279.3195549999984,
                    "velocity": 0.3937007874015748,
                    "duration": 0.05514699999997674
                },
                {
                    "name": "F6",
                    "midi": 89,
                    "time": 279.37470199999836,
                    "velocity": 0.4409448818897638,
                    "duration": 0.05514699999997674
                },
                {
                    "name": "A6",
                    "midi": 93,
                    "time": 279.42984899999834,
                    "velocity": 0.3937007874015748,
                    "duration": 0.05514699999997674
                },
                {
                    "name": "F#6",
                    "midi": 90,
                    "time": 279.4849959999983,
                    "velocity": 0.4409448818897638,
                    "duration": 0.05514699999997674
                },
                {
                    "name": "A#6",
                    "midi": 94,
                    "time": 279.5401429999983,
                    "velocity": 0.3858267716535433,
                    "duration": 0.05514699999997674
                },
                {
                    "name": "D#6",
                    "midi": 87,
                    "time": 279.5952899999983,
                    "velocity": 0.4409448818897638,
                    "duration": 0.05514699999997674
                },
                {
                    "name": "C7",
                    "midi": 96,
                    "time": 279.65043699999825,
                    "velocity": 0.3858267716535433,
                    "duration": 0.05514699999997674
                },
                {
                    "name": "C#6",
                    "midi": 85,
                    "time": 279.7055839999982,
                    "velocity": 0.4645669291338583,
                    "duration": 0.05514699999997674
                },
                {
                    "name": "C#7",
                    "midi": 97,
                    "time": 279.7607309999982,
                    "velocity": 0.41732283464566927,
                    "duration": 0.05514699999997674
                },
                {
                    "name": "F6",
                    "midi": 89,
                    "time": 279.8158779999982,
                    "velocity": 0.4566929133858268,
                    "duration": 0.05514699999997674
                },
                {
                    "name": "G#6",
                    "midi": 92,
                    "time": 279.87102499999816,
                    "velocity": 0.3779527559055118,
                    "duration": 0.05514699999997674
                },
                {
                    "name": "E6",
                    "midi": 88,
                    "time": 279.92617199999813,
                    "velocity": 0.4330708661417323,
                    "duration": 0.05514699999997674
                },
                {
                    "name": "G6",
                    "midi": 91,
                    "time": 279.9813189999981,
                    "velocity": 0.4015748031496063,
                    "duration": 0.05514699999997674
                },
                {
                    "name": "F6",
                    "midi": 89,
                    "time": 280.0364659999981,
                    "velocity": 0.44881889763779526,
                    "duration": 0.05514699999997674
                },
                {
                    "name": "G#6",
                    "midi": 92,
                    "time": 280.09161299999806,
                    "velocity": 0.4015748031496063,
                    "duration": 0.05514699999997674
                },
                {
                    "name": "D#6",
                    "midi": 87,
                    "time": 280.14675999999804,
                    "velocity": 0.4330708661417323,
                    "duration": 0.05514699999997674
                },
                {
                    "name": "F#6",
                    "midi": 90,
                    "time": 280.201906999998,
                    "velocity": 0.3937007874015748,
                    "duration": 0.05514699999997674
                },
                {
                    "name": "C#6",
                    "midi": 85,
                    "time": 280.257053999998,
                    "velocity": 0.4409448818897638,
                    "duration": 0.05514699999997674
                },
                {
                    "name": "F6",
                    "midi": 89,
                    "time": 280.31220099999797,
                    "velocity": 0.3937007874015748,
                    "duration": 0.05514699999997674
                },
                {
                    "name": "C6",
                    "midi": 84,
                    "time": 280.36734799999795,
                    "velocity": 0.4409448818897638,
                    "duration": 0.05514699999997674
                },
                {
                    "name": "D#6",
                    "midi": 87,
                    "time": 280.4224949999979,
                    "velocity": 0.3858267716535433,
                    "duration": 0.05514699999997674
                },
                {
                    "name": "G#5",
                    "midi": 80,
                    "time": 280.4776419999979,
                    "velocity": 0.4409448818897638,
                    "duration": 0.05514699999997674
                },
                {
                    "name": "G#6",
                    "midi": 92,
                    "time": 280.5327889999979,
                    "velocity": 0.3858267716535433,
                    "duration": 0.05514699999997674
                },
                {
                    "name": "C#6",
                    "midi": 85,
                    "time": 280.58793599999785,
                    "velocity": 0.4645669291338583,
                    "duration": 0.05514699999997674
                },
                {
                    "name": "F6",
                    "midi": 89,
                    "time": 280.64308299999783,
                    "velocity": 0.41732283464566927,
                    "duration": 0.05514699999997674
                },
                {
                    "name": "G#5",
                    "midi": 80,
                    "time": 280.6982299999978,
                    "velocity": 0.4566929133858268,
                    "duration": 0.05514699999997674
                },
                {
                    "name": "D#6",
                    "midi": 87,
                    "time": 280.7533769999978,
                    "velocity": 0.3779527559055118,
                    "duration": 0.05514699999997674
                },
                {
                    "name": "F5",
                    "midi": 77,
                    "time": 280.80852399999776,
                    "velocity": 0.4330708661417323,
                    "duration": 0.05514699999997674
                },
                {
                    "name": "C#6",
                    "midi": 85,
                    "time": 280.86367099999774,
                    "velocity": 0.4015748031496063,
                    "duration": 0.05514699999997674
                },
                {
                    "name": "F6",
                    "midi": 89,
                    "time": 280.9188179999977,
                    "velocity": 0.44881889763779526,
                    "duration": 0.05514699999997674
                },
                {
                    "name": "G#6",
                    "midi": 92,
                    "time": 280.9739649999977,
                    "velocity": 0.4015748031496063,
                    "duration": 0.05514699999997674
                },
                {
                    "name": "F#6",
                    "midi": 90,
                    "time": 281.02911199999767,
                    "velocity": 0.4330708661417323,
                    "duration": 0.05514699999997674
                },
                {
                    "name": "A#6",
                    "midi": 94,
                    "time": 281.08425899999764,
                    "velocity": 0.3937007874015748,
                    "duration": 0.05514699999997674
                },
                {
                    "name": "F6",
                    "midi": 89,
                    "time": 281.1394059999976,
                    "velocity": 0.4409448818897638,
                    "duration": 0.05514699999997674
                },
                {
                    "name": "A6",
                    "midi": 93,
                    "time": 281.1945529999976,
                    "velocity": 0.3937007874015748,
                    "duration": 0.05514699999997674
                },
                {
                    "name": "F#6",
                    "midi": 90,
                    "time": 281.2496999999976,
                    "velocity": 0.4409448818897638,
                    "duration": 0.05514699999997674
                },
                {
                    "name": "A#6",
                    "midi": 94,
                    "time": 281.30484699999755,
                    "velocity": 0.3858267716535433,
                    "duration": 0.05514699999997674
                },
                {
                    "name": "D#6",
                    "midi": 87,
                    "time": 281.3599939999975,
                    "velocity": 0.4409448818897638,
                    "duration": 0.05514699999997674
                },
                {
                    "name": "C7",
                    "midi": 96,
                    "time": 281.4151409999975,
                    "velocity": 0.3858267716535433,
                    "duration": 0.05514699999997674
                },
                {
                    "name": "C#6",
                    "midi": 85,
                    "time": 281.4702879999975,
                    "velocity": 0.4645669291338583,
                    "duration": 0.05514699999997674
                },
                {
                    "name": "C#7",
                    "midi": 97,
                    "time": 281.52543499999746,
                    "velocity": 0.41732283464566927,
                    "duration": 0.05514699999997674
                },
                {
                    "name": "F6",
                    "midi": 89,
                    "time": 281.58058199999743,
                    "velocity": 0.4566929133858268,
                    "duration": 0.05514699999997674
                },
                {
                    "name": "G#6",
                    "midi": 92,
                    "time": 281.6357289999974,
                    "velocity": 0.3779527559055118,
                    "duration": 0.05514699999997674
                },
                {
                    "name": "E6",
                    "midi": 88,
                    "time": 281.6908759999974,
                    "velocity": 0.4330708661417323,
                    "duration": 0.05514699999997674
                },
                {
                    "name": "G6",
                    "midi": 91,
                    "time": 281.74602299999736,
                    "velocity": 0.4015748031496063,
                    "duration": 0.05514699999997674
                },
                {
                    "name": "F6",
                    "midi": 89,
                    "time": 281.80116999999734,
                    "velocity": 0.44881889763779526,
                    "duration": 0.05514699999997674
                },
                {
                    "name": "G#6",
                    "midi": 92,
                    "time": 281.8563169999973,
                    "velocity": 0.4015748031496063,
                    "duration": 0.05514699999997674
                },
                {
                    "name": "D#6",
                    "midi": 87,
                    "time": 281.9114639999973,
                    "velocity": 0.47244094488188976,
                    "duration": 0.05514699999997674
                },
                {
                    "name": "F#6",
                    "midi": 90,
                    "time": 281.9666109999973,
                    "velocity": 0.4330708661417323,
                    "duration": 0.05514699999997674
                },
                {
                    "name": "C#6",
                    "midi": 85,
                    "time": 282.02175799999725,
                    "velocity": 0.47244094488188976,
                    "duration": 0.05514699999997674
                },
                {
                    "name": "F6",
                    "midi": 89,
                    "time": 282.0769049999972,
                    "velocity": 0.4409448818897638,
                    "duration": 0.05514699999997674
                },
                {
                    "name": "C6",
                    "midi": 84,
                    "time": 282.1320519999972,
                    "velocity": 0.48031496062992124,
                    "duration": 0.05514699999997674
                },
                {
                    "name": "D#6",
                    "midi": 87,
                    "time": 282.1871989999972,
                    "velocity": 0.4409448818897638,
                    "duration": 0.05514699999997674
                },
                {
                    "name": "G#5",
                    "midi": 80,
                    "time": 282.24234599999716,
                    "velocity": 0.48031496062992124,
                    "duration": 0.05514699999997674
                },
                {
                    "name": "G#6",
                    "midi": 92,
                    "time": 282.29749299999713,
                    "velocity": 0.4566929133858268,
                    "duration": 0.05514699999997674
                },
                {
                    "name": "C#6",
                    "midi": 85,
                    "time": 282.3526399999971,
                    "velocity": 0.4881889763779528,
                    "duration": 0.05514699999997674
                },
                {
                    "name": "F6",
                    "midi": 89,
                    "time": 282.4077869999971,
                    "velocity": 0.4566929133858268,
                    "duration": 0.05514699999997674
                },
                {
                    "name": "G#5",
                    "midi": 80,
                    "time": 282.46293399999706,
                    "velocity": 0.4881889763779528,
                    "duration": 0.05514699999997674
                },
                {
                    "name": "D#6",
                    "midi": 87,
                    "time": 282.51808099999704,
                    "velocity": 0.4645669291338583,
                    "duration": 0.05514699999997674
                },
                {
                    "name": "F5",
                    "midi": 77,
                    "time": 282.573227999997,
                    "velocity": 0.4645669291338583,
                    "duration": 0.05514699999997674
                },
                {
                    "name": "C#6",
                    "midi": 85,
                    "time": 282.628374999997,
                    "velocity": 0.4881889763779528,
                    "duration": 0.05514699999997674
                },
                {
                    "name": "F6",
                    "midi": 89,
                    "time": 282.68352199999697,
                    "velocity": 0.5039370078740157,
                    "duration": 0.05514699999997674
                },
                {
                    "name": "G#6",
                    "midi": 92,
                    "time": 282.73866899999695,
                    "velocity": 0.5275590551181102,
                    "duration": 0.05514699999997674
                },
                {
                    "name": "D#6",
                    "midi": 87,
                    "time": 282.7938159999969,
                    "velocity": 0.5039370078740157,
                    "duration": 0.05514699999997674
                },
                {
                    "name": "F#6",
                    "midi": 90,
                    "time": 282.8489629999969,
                    "velocity": 0.4566929133858268,
                    "duration": 0.05514699999997674
                },
                {
                    "name": "C#6",
                    "midi": 85,
                    "time": 282.9041099999969,
                    "velocity": 0.5039370078740157,
                    "duration": 0.05514699999997674
                },
                {
                    "name": "F6",
                    "midi": 89,
                    "time": 282.95925699999685,
                    "velocity": 0.47244094488188976,
                    "duration": 0.05514699999997674
                },
                {
                    "name": "C6",
                    "midi": 84,
                    "time": 283.01440399999683,
                    "velocity": 0.48031496062992124,
                    "duration": 0.05514699999997674
                },
                {
                    "name": "D#6",
                    "midi": 87,
                    "time": 283.0695509999968,
                    "velocity": 0.5039370078740157,
                    "duration": 0.05514699999997674
                },
                {
                    "name": "G#5",
                    "midi": 80,
                    "time": 283.1246979999968,
                    "velocity": 0.5275590551181102,
                    "duration": 0.05514699999997674
                },
                {
                    "name": "G#6",
                    "midi": 92,
                    "time": 283.17984499999676,
                    "velocity": 0.5275590551181102,
                    "duration": 0.05514699999997674
                },
                {
                    "name": "C#6",
                    "midi": 85,
                    "time": 283.23499199999674,
                    "velocity": 0.5196850393700787,
                    "duration": 0.05514699999997674
                },
                {
                    "name": "F6",
                    "midi": 89,
                    "time": 283.2901389999967,
                    "velocity": 0.48031496062992124,
                    "duration": 0.05514699999997674
                },
                {
                    "name": "C6",
                    "midi": 84,
                    "time": 283.3452859999967,
                    "velocity": 0.5196850393700787,
                    "duration": 0.05514699999997674
                },
                {
                    "name": "D#6",
                    "midi": 87,
                    "time": 283.40043299999667,
                    "velocity": 0.49606299212598426,
                    "duration": 0.05514699999997674
                },
                {
                    "name": "C#6",
                    "midi": 85,
                    "time": 283.45557999999664,
                    "velocity": 0.5275590551181102,
                    "duration": 0.05514699999997674
                },
                {
                    "name": "F6",
                    "midi": 89,
                    "time": 283.5107269999966,
                    "velocity": 0.4881889763779528,
                    "duration": 0.05514699999997674
                },
                {
                    "name": "G#5",
                    "midi": 80,
                    "time": 283.5658739999966,
                    "velocity": 0.5275590551181102,
                    "duration": 0.05514699999997674
                },
                {
                    "name": "G#6",
                    "midi": 92,
                    "time": 283.6210209999966,
                    "velocity": 0.49606299212598426,
                    "duration": 0.05514699999997674
                },
                {
                    "name": "G#6",
                    "midi": 92,
                    "time": 283.67616799999655,
                    "velocity": 0.5354330708661418,
                    "duration": 0.05514699999997674
                },
                {
                    "name": "B6",
                    "midi": 95,
                    "time": 283.7313149999965,
                    "velocity": 0.5039370078740157,
                    "duration": 0.05514699999997674
                },
                {
                    "name": "F#6",
                    "midi": 90,
                    "time": 283.7864619999965,
                    "velocity": 0.5354330708661418,
                    "duration": 0.05514699999997674
                },
                {
                    "name": "A#6",
                    "midi": 94,
                    "time": 283.8416089999965,
                    "velocity": 0.5039370078740157,
                    "duration": 0.05514699999997674
                },
                {
                    "name": "F6",
                    "midi": 89,
                    "time": 283.89675599999646,
                    "velocity": 0.5433070866141733,
                    "duration": 0.05514699999997674
                },
                {
                    "name": "G#6",
                    "midi": 92,
                    "time": 283.95190299999643,
                    "velocity": 0.5118110236220472,
                    "duration": 0.05514699999997674
                },
                {
                    "name": "C#6",
                    "midi": 85,
                    "time": 284.0070499999964,
                    "velocity": 0.5433070866141733,
                    "duration": 0.05514699999997674
                },
                {
                    "name": "C#7",
                    "midi": 97,
                    "time": 284.0621969999964,
                    "velocity": 0.5748031496062992,
                    "duration": 0.05514699999997674
                },
                {
                    "name": "F#6",
                    "midi": 90,
                    "time": 284.11734399999636,
                    "velocity": 0.5511811023622047,
                    "duration": 0.05514699999997674
                },
                {
                    "name": "A#6",
                    "midi": 94,
                    "time": 284.17249099999634,
                    "velocity": 0.5275590551181102,
                    "duration": 0.05514699999997674
                },
                {
                    "name": "C#6",
                    "midi": 85,
                    "time": 284.2276379999963,
                    "velocity": 0.5590551181102362,
                    "duration": 0.05514699999997674
                },
                {
                    "name": "G#6",
                    "midi": 92,
                    "time": 284.2827849999963,
                    "velocity": 0.5275590551181102,
                    "duration": 0.05514699999997674
                },
                {
                    "name": "A#5",
                    "midi": 82,
                    "time": 284.3379319999963,
                    "velocity": 0.5275590551181102,
                    "duration": 0.05514699999997674
                },
                {
                    "name": "F#6",
                    "midi": 90,
                    "time": 284.39307899999625,
                    "velocity": 0.5511811023622047,
                    "duration": 0.05514699999997674
                },
                {
                    "name": "A#6",
                    "midi": 94,
                    "time": 284.4482259999962,
                    "velocity": 0.5669291338582677,
                    "duration": 0.05514699999997674
                },
                {
                    "name": "C#7",
                    "midi": 97,
                    "time": 284.5033729999962,
                    "velocity": 0.5905511811023622,
                    "duration": 0.05514699999997674
                },
                {
                    "name": "G#6",
                    "midi": 92,
                    "time": 284.5585199999962,
                    "velocity": 0.5669291338582677,
                    "duration": 0.05514699999997674
                },
                {
                    "name": "B6",
                    "midi": 95,
                    "time": 284.61366699999616,
                    "velocity": 0.5275590551181102,
                    "duration": 0.05514699999997674
                },
                {
                    "name": "F#6",
                    "midi": 90,
                    "time": 284.66881399999613,
                    "velocity": 0.5748031496062992,
                    "duration": 0.05514699999997674
                },
                {
                    "name": "A#6",
                    "midi": 94,
                    "time": 284.7239609999961,
                    "velocity": 0.5275590551181102,
                    "duration": 0.05514699999997674
                },
                {
                    "name": "F6",
                    "midi": 89,
                    "time": 284.7791079999961,
                    "velocity": 0.5748031496062992,
                    "duration": 0.05514699999997674
                },
                {
                    "name": "G#6",
                    "midi": 92,
                    "time": 284.83425499999606,
                    "velocity": 0.5511811023622047,
                    "duration": 0.05514699999997674
                },
                {
                    "name": "C#6",
                    "midi": 85,
                    "time": 284.88940199999604,
                    "velocity": 0.5826771653543307,
                    "duration": 0.05514699999997674
                },
                {
                    "name": "C#7",
                    "midi": 97,
                    "time": 284.944548999996,
                    "velocity": 0.5511811023622047,
                    "duration": 0.05514699999997674
                },
                {
                    "name": "F#6",
                    "midi": 90,
                    "time": 284.999695999996,
                    "velocity": 0.5826771653543307,
                    "duration": 0.05514699999997674
                },
                {
                    "name": "G#6",
                    "midi": 92,
                    "time": 285.05484299999597,
                    "velocity": 0.5511811023622047,
                    "duration": 0.05514699999997674
                },
                {
                    "name": "F6",
                    "midi": 89,
                    "time": 285.10998999999595,
                    "velocity": 0.5905511811023622,
                    "duration": 0.05514699999997674
                },
                {
                    "name": "G#6",
                    "midi": 92,
                    "time": 285.1651369999959,
                    "velocity": 0.5511811023622047,
                    "duration": 0.05514699999997674
                },
                {
                    "name": "F#6",
                    "midi": 90,
                    "time": 285.2202839999959,
                    "velocity": 0.5905511811023622,
                    "duration": 0.05514699999997674
                },
                {
                    "name": "A#6",
                    "midi": 94,
                    "time": 285.2754309999959,
                    "velocity": 0.5669291338582677,
                    "duration": 0.05514699999997674
                },
                {
                    "name": "C#6",
                    "midi": 85,
                    "time": 285.33057799999585,
                    "velocity": 0.5984251968503937,
                    "duration": 0.05514699999997674
                },
                {
                    "name": "C#7",
                    "midi": 97,
                    "time": 285.38572499999583,
                    "velocity": 0.5669291338582677,
                    "duration": 0.05514699999997674
                },
                {
                    "name": "C#3",
                    "midi": 49,
                    "time": 285.4960189999958,
                    "velocity": 0.5275590551181102,
                    "duration": 0.05514699999997674
                },
                {
                    "name": "D#3",
                    "midi": 51,
                    "time": 285.55116599999576,
                    "velocity": 0.5354330708661418,
                    "duration": 0.05514699999997674
                },
                {
                    "name": "F3",
                    "midi": 53,
                    "time": 285.60631299999574,
                    "velocity": 0.5511811023622047,
                    "duration": 0.05514699999997674
                },
                {
                    "name": "F#3",
                    "midi": 54,
                    "time": 285.6614599999957,
                    "velocity": 0.5590551181102362,
                    "duration": 0.05514699999997674
                },
                {
                    "name": "G#3",
                    "midi": 56,
                    "time": 285.7166069999957,
                    "velocity": 0.5669291338582677,
                    "duration": 0.05514699999997674
                },
                {
                    "name": "A#3",
                    "midi": 58,
                    "time": 285.77175399999567,
                    "velocity": 0.5826771653543307,
                    "duration": 0.05514699999997674
                },
                {
                    "name": "C4",
                    "midi": 60,
                    "time": 285.82690099999564,
                    "velocity": 0.5905511811023622,
                    "duration": 0.05514699999997674
                },
                {
                    "name": "C#4",
                    "midi": 61,
                    "time": 285.8820479999956,
                    "velocity": 0.5905511811023622,
                    "duration": 0.05514699999997674
                },
                {
                    "name": "F4",
                    "midi": 65,
                    "time": 285.9371949999956,
                    "velocity": 0.5984251968503937,
                    "duration": 0.05514699999997674
                },
                {
                    "name": "G#4",
                    "midi": 68,
                    "time": 285.9923419999956,
                    "velocity": 0.6141732283464567,
                    "duration": 0.05514699999997674
                },
                {
                    "name": "C#5",
                    "midi": 73,
                    "time": 286.04748899999555,
                    "velocity": 0.6220472440944882,
                    "duration": 0.05514699999997674
                },
                {
                    "name": "F5",
                    "midi": 77,
                    "time": 286.1026359999955,
                    "velocity": 0.6299212598425197,
                    "duration": 0.05514699999997674
                },
                {
                    "name": "G#5",
                    "midi": 80,
                    "time": 286.1577829999955,
                    "velocity": 0.6456692913385826,
                    "duration": 0.05514699999997674
                },
                {
                    "name": "C#6",
                    "midi": 85,
                    "time": 286.2129299999955,
                    "velocity": 0.6535433070866141,
                    "duration": 0.05514699999997674
                },
                {
                    "name": "F6",
                    "midi": 89,
                    "time": 286.26807699999546,
                    "velocity": 0.6692913385826772,
                    "duration": 0.05514699999997674
                },
                {
                    "name": "F#3",
                    "midi": 54,
                    "time": 286.3783709999954,
                    "velocity": 0.5905511811023622,
                    "duration": 0.05514699999997674
                },
                {
                    "name": "G#3",
                    "midi": 56,
                    "time": 286.4335179999954,
                    "velocity": 0.5984251968503937,
                    "duration": 0.05514699999997674
                },
                {
                    "name": "A#3",
                    "midi": 58,
                    "time": 286.48866499999536,
                    "velocity": 0.6141732283464567,
                    "duration": 0.05514699999997674
                },
                {
                    "name": "B3",
                    "midi": 59,
                    "time": 286.54381199999534,
                    "velocity": 0.6220472440944882,
                    "duration": 0.05514699999997674
                },
                {
                    "name": "C#4",
                    "midi": 61,
                    "time": 286.5989589999953,
                    "velocity": 0.6299212598425197,
                    "duration": 0.05514699999997674
                },
                {
                    "name": "D#4",
                    "midi": 63,
                    "time": 286.6541059999953,
                    "velocity": 0.6377952755905512,
                    "duration": 0.05514699999997674
                },
                {
                    "name": "F4",
                    "midi": 65,
                    "time": 286.7092529999953,
                    "velocity": 0.6456692913385826,
                    "duration": 0.05514699999997674
                },
                {
                    "name": "F#4",
                    "midi": 66,
                    "time": 286.76439999999525,
                    "velocity": 0.6535433070866141,
                    "duration": 0.05514699999997674
                },
                {
                    "name": "A#4",
                    "midi": 70,
                    "time": 286.8195469999952,
                    "velocity": 0.6614173228346457,
                    "duration": 0.05514699999997674
                },
                {
                    "name": "C#5",
                    "midi": 73,
                    "time": 286.8746939999952,
                    "velocity": 0.6771653543307087,
                    "duration": 0.05514699999997674
                },
                {
                    "name": "F#5",
                    "midi": 78,
                    "time": 286.9298409999952,
                    "velocity": 0.6929133858267716,
                    "duration": 0.05514699999997674
                },
                {
                    "name": "A#5",
                    "midi": 82,
                    "time": 286.98498799999516,
                    "velocity": 0.7086614173228346,
                    "duration": 0.05514699999997674
                },
                {
                    "name": "C#6",
                    "midi": 85,
                    "time": 287.04013499999513,
                    "velocity": 0.7244094488188977,
                    "duration": 0.05514699999997674
                },
                {
                    "name": "F#6",
                    "midi": 90,
                    "time": 287.0952819999951,
                    "velocity": 0.7401574803149606,
                    "duration": 0.05514699999997674
                },
                {
                    "name": "G#6",
                    "midi": 92,
                    "time": 287.1504289999951,
                    "velocity": 0.7480314960629921,
                    "duration": 0.05514699999997674
                },
                {
                    "name": "A#5",
                    "midi": 82,
                    "time": 287.20557599999506,
                    "velocity": 0.7637795275590551,
                    "duration": 0.05514699999997674
                },
                {
                    "name": "A#6",
                    "midi": 94,
                    "time": 287.20557599999506,
                    "velocity": 0.7637795275590551,
                    "duration": 0.05514699999997674
                },
                {
                    "name": "F#6",
                    "midi": 90,
                    "time": 287.315869999995,
                    "velocity": 0.7165354330708661,
                    "duration": 0.05514699999997674
                },
                {
                    "name": "G#6",
                    "midi": 92,
                    "time": 287.371016999995,
                    "velocity": 0.7401574803149606,
                    "duration": 0.05514699999997674
                },
                {
                    "name": "A#6",
                    "midi": 94,
                    "time": 287.42616399999497,
                    "velocity": 0.7637795275590551,
                    "duration": 0.05514699999997674
                },
                {
                    "name": "A#5",
                    "midi": 82,
                    "time": 287.42616399999497,
                    "velocity": 0.7637795275590551,
                    "duration": 0.05514699999997674
                },
                {
                    "name": "F#6",
                    "midi": 90,
                    "time": 287.5364579999949,
                    "velocity": 0.6929133858267716,
                    "duration": 0.05514699999997674
                },
                {
                    "name": "A#5",
                    "midi": 82,
                    "time": 287.5364579999949,
                    "velocity": 0.6929133858267716,
                    "duration": 0.05514699999997674
                },
                {
                    "name": "A#6",
                    "midi": 94,
                    "time": 287.6467519999949,
                    "velocity": 0.7401574803149606,
                    "duration": 0.05514699999997674
                },
                {
                    "name": "A#5",
                    "midi": 82,
                    "time": 287.6467519999949,
                    "velocity": 0.7401574803149606,
                    "duration": 0.05514699999997674
                },
                {
                    "name": "G#6",
                    "midi": 92,
                    "time": 287.70189899999485,
                    "velocity": 0.7007874015748031,
                    "duration": 0.05514699999997674
                },
                {
                    "name": "F#6",
                    "midi": 90,
                    "time": 287.75704599999483,
                    "velocity": 0.7007874015748031,
                    "duration": 0.05514699999997674
                },
                {
                    "name": "F#4",
                    "midi": 66,
                    "time": 287.8673399999948,
                    "velocity": 0.6929133858267716,
                    "duration": 0.05514699999997674
                },
                {
                    "name": "C#4",
                    "midi": 61,
                    "time": 287.8673399999948,
                    "velocity": 0.5826771653543307,
                    "duration": 0.05514699999997674
                },
                {
                    "name": "F4",
                    "midi": 65,
                    "time": 287.97763399999474,
                    "velocity": 0.6377952755905512,
                    "duration": 0.05514699999997674
                },
                {
                    "name": "C#4",
                    "midi": 61,
                    "time": 287.97763399999474,
                    "velocity": 0.5433070866141733,
                    "duration": 0.05514699999997674
                },
                {
                    "name": "F4",
                    "midi": 65,
                    "time": 288.0879279999947,
                    "velocity": 0.7007874015748031,
                    "duration": 0.33088199999997414
                },
                {
                    "name": "C#4",
                    "midi": 61,
                    "time": 288.0879279999947,
                    "velocity": 0.5905511811023622,
                    "duration": 0.33088199999997414
                },
                {
                    "name": "D#6",
                    "midi": 87,
                    "time": 288.41880999999466,
                    "velocity": 0.7086614173228346,
                    "duration": 0.05514699999997674
                },
                {
                    "name": "F6",
                    "midi": 89,
                    "time": 288.47395699999464,
                    "velocity": 0.7165354330708661,
                    "duration": 0.05514699999997674
                },
                {
                    "name": "F#5",
                    "midi": 78,
                    "time": 288.5291039999946,
                    "velocity": 0.7322834645669292,
                    "duration": 0.05514699999997674
                },
                {
                    "name": "F#6",
                    "midi": 90,
                    "time": 288.5291039999946,
                    "velocity": 0.7322834645669292,
                    "duration": 0.05514699999997674
                },
                {
                    "name": "D#6",
                    "midi": 87,
                    "time": 288.63939799999457,
                    "velocity": 0.6850393700787402,
                    "duration": 0.05514699999997674
                },
                {
                    "name": "F6",
                    "midi": 89,
                    "time": 288.69454499999455,
                    "velocity": 0.7086614173228346,
                    "duration": 0.05514699999997674
                },
                {
                    "name": "F#6",
                    "midi": 90,
                    "time": 288.7496919999945,
                    "velocity": 0.7322834645669292,
                    "duration": 0.05514699999997674
                },
                {
                    "name": "F#5",
                    "midi": 78,
                    "time": 288.7496919999945,
                    "velocity": 0.7322834645669292,
                    "duration": 0.05514699999997674
                },
                {
                    "name": "D#6",
                    "midi": 87,
                    "time": 288.8599859999945,
                    "velocity": 0.6614173228346457,
                    "duration": 0.05514699999997674
                },
                {
                    "name": "F#5",
                    "midi": 78,
                    "time": 288.8599859999945,
                    "velocity": 0.6614173228346457,
                    "duration": 0.05514699999997674
                },
                {
                    "name": "F#6",
                    "midi": 90,
                    "time": 288.97027999999443,
                    "velocity": 0.7086614173228346,
                    "duration": 0.05514699999997674
                },
                {
                    "name": "F#5",
                    "midi": 78,
                    "time": 288.97027999999443,
                    "velocity": 0.7086614173228346,
                    "duration": 0.05514699999997674
                },
                {
                    "name": "F6",
                    "midi": 89,
                    "time": 289.0254269999944,
                    "velocity": 0.6535433070866141,
                    "duration": 0.05514699999997674
                },
                {
                    "name": "D#6",
                    "midi": 87,
                    "time": 289.0805739999944,
                    "velocity": 0.6535433070866141,
                    "duration": 0.05514699999997674
                },
                {
                    "name": "D6",
                    "midi": 86,
                    "time": 289.13572099999436,
                    "velocity": 0.6535433070866141,
                    "duration": 0.05514699999997674
                },
                {
                    "name": "D#6",
                    "midi": 87,
                    "time": 289.19086799999434,
                    "velocity": 0.7086614173228346,
                    "duration": 0.05514699999997674
                },
                {
                    "name": "F#4",
                    "midi": 66,
                    "time": 289.3011619999943,
                    "velocity": 0.49606299212598426,
                    "duration": 0.05514699999997674
                },
                {
                    "name": "A#4",
                    "midi": 70,
                    "time": 289.3011619999943,
                    "velocity": 0.49606299212598426,
                    "duration": 0.05514699999997674
                },
                {
                    "name": "A#3",
                    "midi": 58,
                    "time": 289.3011619999943,
                    "velocity": 0.41732283464566927,
                    "duration": 0.05514699999997674
                },
                {
                    "name": "B4",
                    "midi": 71,
                    "time": 289.41145599999425,
                    "velocity": 0.5196850393700787,
                    "duration": 0.05514699999997674
                },
                {
                    "name": "F#4",
                    "midi": 66,
                    "time": 289.41145599999425,
                    "velocity": 0.5196850393700787,
                    "duration": 0.05514699999997674
                },
                {
                    "name": "B3",
                    "midi": 59,
                    "time": 289.41145599999425,
                    "velocity": 0.4409448818897638,
                    "duration": 0.05514699999997674
                },
                {
                    "name": "C5",
                    "midi": 72,
                    "time": 289.5217499999942,
                    "velocity": 0.5354330708661418,
                    "duration": 0.05514699999997674
                },
                {
                    "name": "G#4",
                    "midi": 68,
                    "time": 289.5217499999942,
                    "velocity": 0.5354330708661418,
                    "duration": 0.05514699999997674
                },
                {
                    "name": "C4",
                    "midi": 60,
                    "time": 289.5217499999942,
                    "velocity": 0.44881889763779526,
                    "duration": 0.05514699999997674
                },
                {
                    "name": "G#4",
                    "midi": 68,
                    "time": 289.63204399999415,
                    "velocity": 0.5590551181102362,
                    "duration": 0.11029400000001033
                },
                {
                    "name": "C#5",
                    "midi": 73,
                    "time": 289.63204399999415,
                    "velocity": 0.5590551181102362,
                    "duration": 0.11029400000001033
                },
                {
                    "name": "C#4",
                    "midi": 61,
                    "time": 289.63204399999415,
                    "velocity": 0.47244094488188976,
                    "duration": 0.11029400000001033
                },
                {
                    "name": "C5",
                    "midi": 72,
                    "time": 289.8526319999942,
                    "velocity": 0.6299212598425197,
                    "duration": 0.22058800000002066
                },
                {
                    "name": "C4",
                    "midi": 60,
                    "time": 289.8526319999942,
                    "velocity": 0.5354330708661418,
                    "duration": 0.22058800000002066
                },
                {
                    "name": "G#4",
                    "midi": 68,
                    "time": 289.9629259999942,
                    "velocity": 0.4881889763779528,
                    "duration": 0.11029400000001033
                },
                {
                    "name": "F#4",
                    "midi": 66,
                    "time": 289.9629259999942,
                    "velocity": 0.4881889763779528,
                    "duration": 0.11029400000001033
                },
                {
                    "name": "D#5",
                    "midi": 75,
                    "time": 290.0732199999942,
                    "velocity": 0.5905511811023622,
                    "duration": 0.22058800000002066
                },
                {
                    "name": "D#4",
                    "midi": 63,
                    "time": 290.0732199999942,
                    "velocity": 0.5039370078740157,
                    "duration": 0.22058800000002066
                },
                {
                    "name": "G#4",
                    "midi": 68,
                    "time": 290.1835139999942,
                    "velocity": 0.4881889763779528,
                    "duration": 0.11029400000001033
                },
                {
                    "name": "F#4",
                    "midi": 66,
                    "time": 290.1835139999942,
                    "velocity": 0.4881889763779528,
                    "duration": 0.11029400000001033
                },
                {
                    "name": "D#5",
                    "midi": 75,
                    "time": 290.2938079999942,
                    "velocity": 0.6456692913385826,
                    "duration": 0.22058800000002066
                },
                {
                    "name": "D#4",
                    "midi": 63,
                    "time": 290.2938079999942,
                    "velocity": 0.5511811023622047,
                    "duration": 0.22058800000002066
                },
                {
                    "name": "G#4",
                    "midi": 68,
                    "time": 290.4041019999942,
                    "velocity": 0.5039370078740157,
                    "duration": 0.11029400000001033
                },
                {
                    "name": "F4",
                    "midi": 65,
                    "time": 290.4041019999942,
                    "velocity": 0.5039370078740157,
                    "duration": 0.11029400000001033
                },
                {
                    "name": "C#5",
                    "midi": 73,
                    "time": 290.51439599999424,
                    "velocity": 0.6062992125984252,
                    "duration": 0.22058800000002066
                },
                {
                    "name": "C#4",
                    "midi": 61,
                    "time": 290.51439599999424,
                    "velocity": 0.5118110236220472,
                    "duration": 0.22058800000002066
                },
                {
                    "name": "G#4",
                    "midi": 68,
                    "time": 290.62468999999425,
                    "velocity": 0.5039370078740157,
                    "duration": 0.11029400000001033
                },
                {
                    "name": "F4",
                    "midi": 65,
                    "time": 290.62468999999425,
                    "velocity": 0.5039370078740157,
                    "duration": 0.11029400000001033
                },
                {
                    "name": "F5",
                    "midi": 77,
                    "time": 290.73498399999426,
                    "velocity": 0.6456692913385826,
                    "duration": 0.22058800000002066
                },
                {
                    "name": "F4",
                    "midi": 65,
                    "time": 290.73498399999426,
                    "velocity": 0.5511811023622047,
                    "duration": 0.22058800000002066
                },
                {
                    "name": "B4",
                    "midi": 71,
                    "time": 290.84527799999427,
                    "velocity": 0.49606299212598426,
                    "duration": 0.11029400000001033
                },
                {
                    "name": "C#5",
                    "midi": 73,
                    "time": 290.84527799999427,
                    "velocity": 0.49606299212598426,
                    "duration": 0.11029400000001033
                },
                {
                    "name": "G#5",
                    "midi": 80,
                    "time": 290.9555719999943,
                    "velocity": 0.5984251968503937,
                    "duration": 0.22058800000002066
                },
                {
                    "name": "G#4",
                    "midi": 68,
                    "time": 290.9555719999943,
                    "velocity": 0.5118110236220472,
                    "duration": 0.22058800000002066
                },
                {
                    "name": "B4",
                    "midi": 71,
                    "time": 291.0658659999943,
                    "velocity": 0.5118110236220472,
                    "duration": 0.11029400000001033
                },
                {
                    "name": "C#5",
                    "midi": 73,
                    "time": 291.0658659999943,
                    "velocity": 0.5118110236220472,
                    "duration": 0.11029400000001033
                },
                {
                    "name": "G#5",
                    "midi": 80,
                    "time": 291.1761599999943,
                    "velocity": 0.6692913385826772,
                    "duration": 0.22058800000002066
                },
                {
                    "name": "G#4",
                    "midi": 68,
                    "time": 291.1761599999943,
                    "velocity": 0.5590551181102362,
                    "duration": 0.22058800000002066
                },
                {
                    "name": "A#4",
                    "midi": 70,
                    "time": 291.2864539999943,
                    "velocity": 0.5039370078740157,
                    "duration": 0.11029400000001033
                },
                {
                    "name": "C#5",
                    "midi": 73,
                    "time": 291.2864539999943,
                    "velocity": 0.5039370078740157,
                    "duration": 0.11029400000001033
                },
                {
                    "name": "F#5",
                    "midi": 78,
                    "time": 291.3967479999943,
                    "velocity": 0.6299212598425197,
                    "duration": 0.22058800000002066
                },
                {
                    "name": "F#4",
                    "midi": 66,
                    "time": 291.3967479999943,
                    "velocity": 0.5354330708661418,
                    "duration": 0.22058800000002066
                },
                {
                    "name": "A#4",
                    "midi": 70,
                    "time": 291.5070419999943,
                    "velocity": 0.4881889763779528,
                    "duration": 0.11029400000001033
                },
                {
                    "name": "C#5",
                    "midi": 73,
                    "time": 291.5070419999943,
                    "velocity": 0.4881889763779528,
                    "duration": 0.11029400000001033
                },
                {
                    "name": "A#4",
                    "midi": 70,
                    "time": 291.61733599999434,
                    "velocity": 0.7637795275590551,
                    "duration": 0.05514699999997674
                },
                {
                    "name": "A#5",
                    "midi": 82,
                    "time": 291.61733599999434,
                    "velocity": 0.7637795275590551,
                    "duration": 0.05514699999997674
                },
                {
                    "name": "F#5",
                    "midi": 78,
                    "time": 291.7276299999943,
                    "velocity": 0.7165354330708661,
                    "duration": 0.05514699999997674
                },
                {
                    "name": "G#5",
                    "midi": 80,
                    "time": 291.78277699999427,
                    "velocity": 0.7401574803149606,
                    "duration": 0.05514699999997674
                },
                {
                    "name": "A#5",
                    "midi": 82,
                    "time": 291.83792399999425,
                    "velocity": 0.7637795275590551,
                    "duration": 0.05514699999997674
                },
                {
                    "name": "A#4",
                    "midi": 70,
                    "time": 291.83792399999425,
                    "velocity": 0.7637795275590551,
                    "duration": 0.05514699999997674
                },
                {
                    "name": "F#5",
                    "midi": 78,
                    "time": 291.9482179999942,
                    "velocity": 0.6929133858267716,
                    "duration": 0.05514699999997674
                },
                {
                    "name": "A#4",
                    "midi": 70,
                    "time": 291.9482179999942,
                    "velocity": 0.6929133858267716,
                    "duration": 0.05514699999997674
                },
                {
                    "name": "A#5",
                    "midi": 82,
                    "time": 292.05851199999415,
                    "velocity": 0.7401574803149606,
                    "duration": 0.05514699999997674
                },
                {
                    "name": "A#4",
                    "midi": 70,
                    "time": 292.05851199999415,
                    "velocity": 0.7401574803149606,
                    "duration": 0.05514699999997674
                },
                {
                    "name": "G#5",
                    "midi": 80,
                    "time": 292.11365899999413,
                    "velocity": 0.7007874015748031,
                    "duration": 0.05514699999997674
                },
                {
                    "name": "F#5",
                    "midi": 78,
                    "time": 292.1688059999941,
                    "velocity": 0.7007874015748031,
                    "duration": 0.05514699999997674
                },
                {
                    "name": "A#3",
                    "midi": 58,
                    "time": 292.27909999999406,
                    "velocity": 0.5826771653543307,
                    "duration": 0.05514699999997674
                },
                {
                    "name": "F#4",
                    "midi": 66,
                    "time": 292.27909999999406,
                    "velocity": 0.6929133858267716,
                    "duration": 0.05514699999997674
                },
                {
                    "name": "C#4",
                    "midi": 61,
                    "time": 292.27909999999406,
                    "velocity": 0.5826771653543307,
                    "duration": 0.05514699999997674
                },
                {
                    "name": "A3",
                    "midi": 57,
                    "time": 292.389393999994,
                    "velocity": 0.5433070866141733,
                    "duration": 0.05514699999997674
                },
                {
                    "name": "F4",
                    "midi": 65,
                    "time": 292.389393999994,
                    "velocity": 0.6377952755905512,
                    "duration": 0.05514699999997674
                },
                {
                    "name": "C4",
                    "midi": 60,
                    "time": 292.389393999994,
                    "velocity": 0.5433070866141733,
                    "duration": 0.05514699999997674
                },
                {
                    "name": "A3",
                    "midi": 57,
                    "time": 292.49968799999397,
                    "velocity": 0.5905511811023622,
                    "duration": 0.33088199999997414
                },
                {
                    "name": "F4",
                    "midi": 65,
                    "time": 292.49968799999397,
                    "velocity": 0.7007874015748031,
                    "duration": 0.33088199999997414
                },
                {
                    "name": "C4",
                    "midi": 60,
                    "time": 292.49968799999397,
                    "velocity": 0.5905511811023622,
                    "duration": 0.33088199999997414
                },
                {
                    "name": "D#5",
                    "midi": 75,
                    "time": 292.83056999999394,
                    "velocity": 0.7086614173228346,
                    "duration": 0.05514699999997674
                },
                {
                    "name": "F5",
                    "midi": 77,
                    "time": 292.8857169999939,
                    "velocity": 0.7165354330708661,
                    "duration": 0.05514699999997674
                },
                {
                    "name": "F#4",
                    "midi": 66,
                    "time": 292.9408639999939,
                    "velocity": 0.7322834645669292,
                    "duration": 0.05514699999997674
                },
                {
                    "name": "F#5",
                    "midi": 78,
                    "time": 292.9408639999939,
                    "velocity": 0.7322834645669292,
                    "duration": 0.05514699999997674
                },
                {
                    "name": "D#5",
                    "midi": 75,
                    "time": 293.05115799999385,
                    "velocity": 0.6850393700787402,
                    "duration": 0.05514699999997674
                },
                {
                    "name": "F5",
                    "midi": 77,
                    "time": 293.1063049999938,
                    "velocity": 0.7086614173228346,
                    "duration": 0.05514699999997674
                },
                {
                    "name": "F#5",
                    "midi": 78,
                    "time": 293.1614519999938,
                    "velocity": 0.7322834645669292,
                    "duration": 0.05514699999997674
                },
                {
                    "name": "F#4",
                    "midi": 66,
                    "time": 293.1614519999938,
                    "velocity": 0.7322834645669292,
                    "duration": 0.05514699999997674
                },
                {
                    "name": "D#5",
                    "midi": 75,
                    "time": 293.27174599999375,
                    "velocity": 0.6614173228346457,
                    "duration": 0.05514699999997674
                },
                {
                    "name": "F#4",
                    "midi": 66,
                    "time": 293.27174599999375,
                    "velocity": 0.6614173228346457,
                    "duration": 0.05514699999997674
                },
                {
                    "name": "F#5",
                    "midi": 78,
                    "time": 293.3820399999937,
                    "velocity": 0.7086614173228346,
                    "duration": 0.05514699999997674
                },
                {
                    "name": "F#4",
                    "midi": 66,
                    "time": 293.3820399999937,
                    "velocity": 0.7086614173228346,
                    "duration": 0.05514699999997674
                },
                {
                    "name": "F5",
                    "midi": 77,
                    "time": 293.4371869999937,
                    "velocity": 0.6535433070866141,
                    "duration": 0.05514699999997674
                },
                {
                    "name": "D#5",
                    "midi": 75,
                    "time": 293.49233399999366,
                    "velocity": 0.6535433070866141,
                    "duration": 0.05514699999997674
                },
                {
                    "name": "D5",
                    "midi": 74,
                    "time": 293.54748099999364,
                    "velocity": 0.6535433070866141,
                    "duration": 0.05514699999997674
                },
                {
                    "name": "D#5",
                    "midi": 75,
                    "time": 293.6026279999936,
                    "velocity": 0.7086614173228346,
                    "duration": 0.05514699999997674
                },
                {
                    "name": "F#4",
                    "midi": 66,
                    "time": 293.9335099999936,
                    "velocity": 0.4330708661417323,
                    "duration": 0.05514699999997674
                },
                {
                    "name": "F#3",
                    "midi": 54,
                    "time": 293.9335099999936,
                    "velocity": 0.36220472440944884,
                    "duration": 0.05514699999997674
                },
                {
                    "name": "A#3",
                    "midi": 58,
                    "time": 293.9335099999936,
                    "velocity": 0.36220472440944884,
                    "duration": 0.05514699999997674
                },
                {
                    "name": "F#4",
                    "midi": 66,
                    "time": 294.04380399999354,
                    "velocity": 0.4566929133858268,
                    "duration": 0.05514699999997674
                },
                {
                    "name": "F#3",
                    "midi": 54,
                    "time": 294.04380399999354,
                    "velocity": 0.3858267716535433,
                    "duration": 0.05514699999997674
                },
                {
                    "name": "B3",
                    "midi": 59,
                    "time": 294.04380399999354,
                    "velocity": 0.3858267716535433,
                    "duration": 0.05514699999997674
                },
                {
                    "name": "G#4",
                    "midi": 68,
                    "time": 294.1540979999935,
                    "velocity": 0.47244094488188976,
                    "duration": 0.05514699999997674
                },
                {
                    "name": "G#3",
                    "midi": 56,
                    "time": 294.1540979999935,
                    "velocity": 0.4015748031496063,
                    "duration": 0.05514699999997674
                },
                {
                    "name": "C4",
                    "midi": 60,
                    "time": 294.1540979999935,
                    "velocity": 0.4015748031496063,
                    "duration": 0.05514699999997674
                },
                {
                    "name": "G#4",
                    "midi": 68,
                    "time": 294.26439199999345,
                    "velocity": 0.5118110236220472,
                    "duration": 0.05514699999997674
                },
                {
                    "name": "G#3",
                    "midi": 56,
                    "time": 294.26439199999345,
                    "velocity": 0.4330708661417323,
                    "duration": 0.05514699999997674
                },
                {
                    "name": "C#4",
                    "midi": 61,
                    "time": 294.26439199999345,
                    "velocity": 0.4330708661417323,
                    "duration": 0.05514699999997674
                },
                {
                    "name": "F#4",
                    "midi": 66,
                    "time": 294.3746859999934,
                    "velocity": 0.4645669291338583,
                    "duration": 0.05514699999997674
                },
                {
                    "name": "A#4",
                    "midi": 70,
                    "time": 294.3746859999934,
                    "velocity": 0.4645669291338583,
                    "duration": 0.05514699999997674
                },
                {
                    "name": "A#3",
                    "midi": 58,
                    "time": 294.3746859999934,
                    "velocity": 0.3937007874015748,
                    "duration": 0.05514699999997674
                },
                {
                    "name": "B4",
                    "midi": 71,
                    "time": 294.48497999999336,
                    "velocity": 0.49606299212598426,
                    "duration": 0.05514699999997674
                },
                {
                    "name": "B3",
                    "midi": 59,
                    "time": 294.48497999999336,
                    "velocity": 0.41732283464566927,
                    "duration": 0.05514699999997674
                },
                {
                    "name": "F#4",
                    "midi": 66,
                    "time": 294.48497999999336,
                    "velocity": 0.41732283464566927,
                    "duration": 0.05514699999997674
                },
                {
                    "name": "C5",
                    "midi": 72,
                    "time": 294.5952739999933,
                    "velocity": 0.5275590551181102,
                    "duration": 0.05514699999997674
                },
                {
                    "name": "C4",
                    "midi": 60,
                    "time": 294.5952739999933,
                    "velocity": 0.4409448818897638,
                    "duration": 0.05514699999997674
                },
                {
                    "name": "G#4",
                    "midi": 68,
                    "time": 294.5952739999933,
                    "velocity": 0.4409448818897638,
                    "duration": 0.05514699999997674
                },
                {
                    "name": "C#5",
                    "midi": 73,
                    "time": 294.70556799999326,
                    "velocity": 0.5511811023622047,
                    "duration": 0.05514699999997674
                },
                {
                    "name": "C#4",
                    "midi": 61,
                    "time": 294.70556799999326,
                    "velocity": 0.4645669291338583,
                    "duration": 0.05514699999997674
                },
                {
                    "name": "G#4",
                    "midi": 68,
                    "time": 294.70556799999326,
                    "velocity": 0.4645669291338583,
                    "duration": 0.05514699999997674
                },
                {
                    "name": "F#5",
                    "midi": 78,
                    "time": 294.8158619999932,
                    "velocity": 0.49606299212598426,
                    "duration": 0.05514699999997674
                },
                {
                    "name": "F#4",
                    "midi": 66,
                    "time": 294.8158619999932,
                    "velocity": 0.4094488188976378,
                    "duration": 0.05514699999997674
                },
                {
                    "name": "A#4",
                    "midi": 70,
                    "time": 294.8158619999932,
                    "velocity": 0.4094488188976378,
                    "duration": 0.05514699999997674
                },
                {
                    "name": "F#5",
                    "midi": 78,
                    "time": 294.92615599999317,
                    "velocity": 0.5196850393700787,
                    "duration": 0.05514699999997674
                },
                {
                    "name": "F#4",
                    "midi": 66,
                    "time": 294.92615599999317,
                    "velocity": 0.4330708661417323,
                    "duration": 0.05514699999997674
                },
                {
                    "name": "B4",
                    "midi": 71,
                    "time": 294.92615599999317,
                    "velocity": 0.4330708661417323,
                    "duration": 0.05514699999997674
                },
                {
                    "name": "G#5",
                    "midi": 80,
                    "time": 295.0364499999931,
                    "velocity": 0.5433070866141733,
                    "duration": 0.05514699999997674
                },
                {
                    "name": "G#4",
                    "midi": 68,
                    "time": 295.0364499999931,
                    "velocity": 0.4566929133858268,
                    "duration": 0.05514699999997674
                },
                {
                    "name": "C5",
                    "midi": 72,
                    "time": 295.0364499999931,
                    "velocity": 0.4566929133858268,
                    "duration": 0.05514699999997674
                },
                {
                    "name": "G#5",
                    "midi": 80,
                    "time": 295.1467439999931,
                    "velocity": 0.5826771653543307,
                    "duration": 0.05514699999997674
                },
                {
                    "name": "G#4",
                    "midi": 68,
                    "time": 295.1467439999931,
                    "velocity": 0.49606299212598426,
                    "duration": 0.05514699999997674
                },
                {
                    "name": "C#5",
                    "midi": 73,
                    "time": 295.1467439999931,
                    "velocity": 0.49606299212598426,
                    "duration": 0.05514699999997674
                },
                {
                    "name": "F#5",
                    "midi": 78,
                    "time": 295.25703799999303,
                    "velocity": 0.5275590551181102,
                    "duration": 0.05514699999997674
                },
                {
                    "name": "A#5",
                    "midi": 82,
                    "time": 295.25703799999303,
                    "velocity": 0.5275590551181102,
                    "duration": 0.05514699999997674
                },
                {
                    "name": "A#4",
                    "midi": 70,
                    "time": 295.25703799999303,
                    "velocity": 0.44881889763779526,
                    "duration": 0.05514699999997674
                },
                {
                    "name": "B5",
                    "midi": 83,
                    "time": 295.367331999993,
                    "velocity": 0.5669291338582677,
                    "duration": 0.05514699999997674
                },
                {
                    "name": "B4",
                    "midi": 71,
                    "time": 295.367331999993,
                    "velocity": 0.47244094488188976,
                    "duration": 0.05514699999997674
                },
                {
                    "name": "F#5",
                    "midi": 78,
                    "time": 295.367331999993,
                    "velocity": 0.47244094488188976,
                    "duration": 0.05514699999997674
                },
                {
                    "name": "C6",
                    "midi": 84,
                    "time": 295.47762599999294,
                    "velocity": 0.5984251968503937,
                    "duration": 0.05514699999997674
                },
                {
                    "name": "C5",
                    "midi": 72,
                    "time": 295.47762599999294,
                    "velocity": 0.5039370078740157,
                    "duration": 0.05514699999997674
                },
                {
                    "name": "G#5",
                    "midi": 80,
                    "time": 295.47762599999294,
                    "velocity": 0.5039370078740157,
                    "duration": 0.05514699999997674
                },
                {
                    "name": "C#6",
                    "midi": 85,
                    "time": 295.5879199999929,
                    "velocity": 0.6299212598425197,
                    "duration": 0.05514699999997674
                },
                {
                    "name": "C#5",
                    "midi": 73,
                    "time": 295.5879199999929,
                    "velocity": 0.5275590551181102,
                    "duration": 0.05514699999997674
                },
                {
                    "name": "G#5",
                    "midi": 80,
                    "time": 295.5879199999929,
                    "velocity": 0.5275590551181102,
                    "duration": 0.05514699999997674
                },
                {
                    "name": "F#6",
                    "midi": 90,
                    "time": 295.69821399999284,
                    "velocity": 0.5748031496062992,
                    "duration": 0.05514699999997674
                },
                {
                    "name": "F#5",
                    "midi": 78,
                    "time": 295.69821399999284,
                    "velocity": 0.4881889763779528,
                    "duration": 0.05514699999997674
                },
                {
                    "name": "A#5",
                    "midi": 82,
                    "time": 295.69821399999284,
                    "velocity": 0.4881889763779528,
                    "duration": 0.05514699999997674
                },
                {
                    "name": "F#6",
                    "midi": 90,
                    "time": 295.8085079999928,
                    "velocity": 0.5905511811023622,
                    "duration": 0.05514699999997674
                },
                {
                    "name": "F#5",
                    "midi": 78,
                    "time": 295.8085079999928,
                    "velocity": 0.49606299212598426,
                    "duration": 0.05514699999997674
                },
                {
                    "name": "B5",
                    "midi": 83,
                    "time": 295.8085079999928,
                    "velocity": 0.49606299212598426,
                    "duration": 0.05514699999997674
                },
                {
                    "name": "G#6",
                    "midi": 92,
                    "time": 295.91880199999275,
                    "velocity": 0.6062992125984252,
                    "duration": 0.05514699999997674
                },
                {
                    "name": "G#5",
                    "midi": 80,
                    "time": 295.91880199999275,
                    "velocity": 0.5118110236220472,
                    "duration": 0.05514699999997674
                },
                {
                    "name": "C6",
                    "midi": 84,
                    "time": 295.91880199999275,
                    "velocity": 0.5118110236220472,
                    "duration": 0.05514699999997674
                },
                {
                    "name": "G#6",
                    "midi": 92,
                    "time": 296.0290959999927,
                    "velocity": 0.6141732283464567,
                    "duration": 0.05514699999997674
                },
                {
                    "name": "G#5",
                    "midi": 80,
                    "time": 296.0290959999927,
                    "velocity": 0.5196850393700787,
                    "duration": 0.05514699999997674
                },
                {
                    "name": "C#6",
                    "midi": 85,
                    "time": 296.0290959999927,
                    "velocity": 0.5196850393700787,
                    "duration": 0.05514699999997674
                },
                {
                    "name": "G#6",
                    "midi": 92,
                    "time": 296.13938999999266,
                    "velocity": 0.6299212598425197,
                    "duration": 0.05514699999997674
                },
                {
                    "name": "G#5",
                    "midi": 80,
                    "time": 296.13938999999266,
                    "velocity": 0.5354330708661418,
                    "duration": 0.05514699999997674
                },
                {
                    "name": "C6",
                    "midi": 84,
                    "time": 296.13938999999266,
                    "velocity": 0.5354330708661418,
                    "duration": 0.05514699999997674
                },
                {
                    "name": "G#6",
                    "midi": 92,
                    "time": 296.2496839999926,
                    "velocity": 0.6456692913385826,
                    "duration": 0.05514699999997674
                },
                {
                    "name": "G#5",
                    "midi": 80,
                    "time": 296.2496839999926,
                    "velocity": 0.5433070866141733,
                    "duration": 0.05514699999997674
                },
                {
                    "name": "C#6",
                    "midi": 85,
                    "time": 296.2496839999926,
                    "velocity": 0.5433070866141733,
                    "duration": 0.05514699999997674
                },
                {
                    "name": "G#6",
                    "midi": 92,
                    "time": 296.35997799999257,
                    "velocity": 0.6614173228346457,
                    "duration": 0.05514699999997674
                },
                {
                    "name": "G#5",
                    "midi": 80,
                    "time": 296.35997799999257,
                    "velocity": 0.5590551181102362,
                    "duration": 0.05514699999997674
                },
                {
                    "name": "C6",
                    "midi": 84,
                    "time": 296.35997799999257,
                    "velocity": 0.5590551181102362,
                    "duration": 0.05514699999997674
                },
                {
                    "name": "G#6",
                    "midi": 92,
                    "time": 296.4702719999925,
                    "velocity": 0.6929133858267716,
                    "duration": 0.05514699999997674
                },
                {
                    "name": "G#5",
                    "midi": 80,
                    "time": 296.4702719999925,
                    "velocity": 0.5826771653543307,
                    "duration": 0.05514699999997674
                },
                {
                    "name": "C#6",
                    "midi": 85,
                    "time": 296.4702719999925,
                    "velocity": 0.5826771653543307,
                    "duration": 0.05514699999997674
                },
                {
                    "name": "G#6",
                    "midi": 92,
                    "time": 296.5805659999925,
                    "velocity": 0.6377952755905512,
                    "duration": 0.05514699999997674
                },
                {
                    "name": "G#5",
                    "midi": 80,
                    "time": 296.5805659999925,
                    "velocity": 0.5354330708661418,
                    "duration": 0.05514699999997674
                },
                {
                    "name": "C6",
                    "midi": 84,
                    "time": 296.5805659999925,
                    "velocity": 0.5354330708661418,
                    "duration": 0.05514699999997674
                },
                {
                    "name": "G#6",
                    "midi": 92,
                    "time": 296.6908599999924,
                    "velocity": 0.6535433070866141,
                    "duration": 0.05514699999997674
                },
                {
                    "name": "G#5",
                    "midi": 80,
                    "time": 296.6908599999924,
                    "velocity": 0.5511811023622047,
                    "duration": 0.05514699999997674
                },
                {
                    "name": "C#6",
                    "midi": 85,
                    "time": 296.6908599999924,
                    "velocity": 0.5511811023622047,
                    "duration": 0.05514699999997674
                },
                {
                    "name": "G#6",
                    "midi": 92,
                    "time": 296.8011539999924,
                    "velocity": 0.6692913385826772,
                    "duration": 0.05514699999997674
                },
                {
                    "name": "G#5",
                    "midi": 80,
                    "time": 296.8011539999924,
                    "velocity": 0.5590551181102362,
                    "duration": 0.05514699999997674
                },
                {
                    "name": "C6",
                    "midi": 84,
                    "time": 296.8011539999924,
                    "velocity": 0.5590551181102362,
                    "duration": 0.05514699999997674
                },
                {
                    "name": "G#6",
                    "midi": 92,
                    "time": 296.91144799999233,
                    "velocity": 0.7480314960629921,
                    "duration": 0.05514699999997674
                },
                {
                    "name": "G#5",
                    "midi": 80,
                    "time": 296.91144799999233,
                    "velocity": 0.6299212598425197,
                    "duration": 0.05514699999997674
                },
                {
                    "name": "C#6",
                    "midi": 85,
                    "time": 296.91144799999233,
                    "velocity": 0.6299212598425197,
                    "duration": 0.05514699999997674
                },
                {
                    "name": "G#6",
                    "midi": 92,
                    "time": 297.0217419999923,
                    "velocity": 0.7086614173228346,
                    "duration": 0.05514699999997674
                },
                {
                    "name": "G#5",
                    "midi": 80,
                    "time": 297.0217419999923,
                    "velocity": 0.5984251968503937,
                    "duration": 0.05514699999997674
                },
                {
                    "name": "C6",
                    "midi": 84,
                    "time": 297.0217419999923,
                    "velocity": 0.5984251968503937,
                    "duration": 0.05514699999997674
                },
                {
                    "name": "G#6",
                    "midi": 92,
                    "time": 297.13203599999224,
                    "velocity": 0.7244094488188977,
                    "duration": 0.05514699999997674
                },
                {
                    "name": "G#5",
                    "midi": 80,
                    "time": 297.13203599999224,
                    "velocity": 0.6062992125984252,
                    "duration": 0.05514699999997674
                },
                {
                    "name": "C#6",
                    "midi": 85,
                    "time": 297.13203599999224,
                    "velocity": 0.6062992125984252,
                    "duration": 0.05514699999997674
                },
                {
                    "name": "G#6",
                    "midi": 92,
                    "time": 297.2423299999922,
                    "velocity": 0.7401574803149606,
                    "duration": 0.05514699999997674
                },
                {
                    "name": "G#5",
                    "midi": 80,
                    "time": 297.2423299999922,
                    "velocity": 0.6299212598425197,
                    "duration": 0.05514699999997674
                },
                {
                    "name": "C6",
                    "midi": 84,
                    "time": 297.2423299999922,
                    "velocity": 0.6299212598425197,
                    "duration": 0.05514699999997674
                },
                {
                    "name": "G#6",
                    "midi": 92,
                    "time": 297.35262399999215,
                    "velocity": 0.8346456692913385,
                    "duration": 0.05514699999997674
                },
                {
                    "name": "G#5",
                    "midi": 80,
                    "time": 297.35262399999215,
                    "velocity": 0.7086614173228346,
                    "duration": 0.05514699999997674
                },
                {
                    "name": "C#6",
                    "midi": 85,
                    "time": 297.35262399999215,
                    "velocity": 0.7086614173228346,
                    "duration": 0.05514699999997674
                },
                {
                    "name": "G#5",
                    "midi": 80,
                    "time": 297.4629179999921,
                    "velocity": 0.5669291338582677,
                    "duration": 0.05514699999997674
                },
                {
                    "name": "G#4",
                    "midi": 68,
                    "time": 297.4629179999921,
                    "velocity": 0.47244094488188976,
                    "duration": 0.05514699999997674
                },
                {
                    "name": "C#5",
                    "midi": 73,
                    "time": 297.4629179999921,
                    "velocity": 0.47244094488188976,
                    "duration": 0.05514699999997674
                },
                {
                    "name": "G4",
                    "midi": 67,
                    "time": 297.5180649999921,
                    "velocity": 0.49606299212598426,
                    "duration": 0.05514699999997674
                },
                {
                    "name": "F4",
                    "midi": 65,
                    "time": 297.5180649999921,
                    "velocity": 0.41732283464566927,
                    "duration": 0.05514699999997674
                },
                {
                    "name": "A#5",
                    "midi": 82,
                    "time": 297.57321199999205,
                    "velocity": 0.6141732283464567,
                    "duration": 0.05514699999997674
                },
                {
                    "name": "A#4",
                    "midi": 70,
                    "time": 297.57321199999205,
                    "velocity": 0.5196850393700787,
                    "duration": 0.05514699999997674
                },
                {
                    "name": "C#5",
                    "midi": 73,
                    "time": 297.57321199999205,
                    "velocity": 0.5196850393700787,
                    "duration": 0.05514699999997674
                },
                {
                    "name": "F4",
                    "midi": 65,
                    "time": 297.62835899999203,
                    "velocity": 0.49606299212598426,
                    "duration": 0.05514699999997674
                },
                {
                    "name": "C#4",
                    "midi": 61,
                    "time": 297.62835899999203,
                    "velocity": 0.41732283464566927,
                    "duration": 0.05514699999997674
                },
                {
                    "name": "G#5",
                    "midi": 80,
                    "time": 297.683505999992,
                    "velocity": 0.5590551181102362,
                    "duration": 0.05514699999997674
                },
                {
                    "name": "G#4",
                    "midi": 68,
                    "time": 297.683505999992,
                    "velocity": 0.4645669291338583,
                    "duration": 0.05514699999997674
                },
                {
                    "name": "C#5",
                    "midi": 73,
                    "time": 297.683505999992,
                    "velocity": 0.4645669291338583,
                    "duration": 0.05514699999997674
                },
                {
                    "name": "G4",
                    "midi": 67,
                    "time": 297.738652999992,
                    "velocity": 0.5039370078740157,
                    "duration": 0.05514699999997674
                },
                {
                    "name": "F4",
                    "midi": 65,
                    "time": 297.738652999992,
                    "velocity": 0.4251968503937008,
                    "duration": 0.05514699999997674
                },
                {
                    "name": "A#5",
                    "midi": 82,
                    "time": 297.79379999999196,
                    "velocity": 0.6062992125984252,
                    "duration": 0.05514699999997674
                },
                {
                    "name": "A#4",
                    "midi": 70,
                    "time": 297.79379999999196,
                    "velocity": 0.5196850393700787,
                    "duration": 0.05514699999997674
                },
                {
                    "name": "C#5",
                    "midi": 73,
                    "time": 297.79379999999196,
                    "velocity": 0.5196850393700787,
                    "duration": 0.05514699999997674
                },
                {
                    "name": "F4",
                    "midi": 65,
                    "time": 297.84894699999194,
                    "velocity": 0.5118110236220472,
                    "duration": 0.05514699999997674
                },
                {
                    "name": "C#4",
                    "midi": 61,
                    "time": 297.84894699999194,
                    "velocity": 0.4251968503937008,
                    "duration": 0.05514699999997674
                },
                {
                    "name": "G#5",
                    "midi": 80,
                    "time": 297.9040939999919,
                    "velocity": 0.5826771653543307,
                    "duration": 0.05514699999997674
                },
                {
                    "name": "G#4",
                    "midi": 68,
                    "time": 297.9040939999919,
                    "velocity": 0.48031496062992124,
                    "duration": 0.05514699999997674
                },
                {
                    "name": "C#5",
                    "midi": 73,
                    "time": 297.9040939999919,
                    "velocity": 0.48031496062992124,
                    "duration": 0.05514699999997674
                },
                {
                    "name": "G4",
                    "midi": 67,
                    "time": 297.9592409999919,
                    "velocity": 0.5118110236220472,
                    "duration": 0.05514699999997674
                },
                {
                    "name": "F4",
                    "midi": 65,
                    "time": 297.9592409999919,
                    "velocity": 0.4330708661417323,
                    "duration": 0.05514699999997674
                },
                {
                    "name": "A#5",
                    "midi": 82,
                    "time": 298.01438799999187,
                    "velocity": 0.6299212598425197,
                    "duration": 0.05514699999997674
                },
                {
                    "name": "A#4",
                    "midi": 70,
                    "time": 298.01438799999187,
                    "velocity": 0.5275590551181102,
                    "duration": 0.05514699999997674
                },
                {
                    "name": "C#5",
                    "midi": 73,
                    "time": 298.01438799999187,
                    "velocity": 0.5275590551181102,
                    "duration": 0.05514699999997674
                },
                {
                    "name": "F4",
                    "midi": 65,
                    "time": 298.06953499999184,
                    "velocity": 0.5275590551181102,
                    "duration": 0.05514699999997674
                },
                {
                    "name": "C#4",
                    "midi": 61,
                    "time": 298.06953499999184,
                    "velocity": 0.4409448818897638,
                    "duration": 0.05514699999997674
                },
                {
                    "name": "G#5",
                    "midi": 80,
                    "time": 298.1246819999918,
                    "velocity": 0.5748031496062992,
                    "duration": 0.05514699999997674
                },
                {
                    "name": "G#4",
                    "midi": 68,
                    "time": 298.1246819999918,
                    "velocity": 0.48031496062992124,
                    "duration": 0.05514699999997674
                },
                {
                    "name": "C#5",
                    "midi": 73,
                    "time": 298.1246819999918,
                    "velocity": 0.48031496062992124,
                    "duration": 0.05514699999997674
                },
                {
                    "name": "G4",
                    "midi": 67,
                    "time": 298.1798289999918,
                    "velocity": 0.5275590551181102,
                    "duration": 0.05514699999997674
                },
                {
                    "name": "F4",
                    "midi": 65,
                    "time": 298.1798289999918,
                    "velocity": 0.4409448818897638,
                    "duration": 0.05514699999997674
                },
                {
                    "name": "A#5",
                    "midi": 82,
                    "time": 298.2349759999918,
                    "velocity": 0.6377952755905512,
                    "duration": 0.05514699999997674
                },
                {
                    "name": "A#4",
                    "midi": 70,
                    "time": 298.2349759999918,
                    "velocity": 0.5354330708661418,
                    "duration": 0.05514699999997674
                },
                {
                    "name": "C#5",
                    "midi": 73,
                    "time": 298.2349759999918,
                    "velocity": 0.5354330708661418,
                    "duration": 0.05514699999997674
                },
                {
                    "name": "F4",
                    "midi": 65,
                    "time": 298.29012299999175,
                    "velocity": 0.5354330708661418,
                    "duration": 0.05514699999997674
                },
                {
                    "name": "C#4",
                    "midi": 61,
                    "time": 298.29012299999175,
                    "velocity": 0.44881889763779526,
                    "duration": 0.05514699999997674
                },
                {
                    "name": "G#5",
                    "midi": 80,
                    "time": 298.34526999999173,
                    "velocity": 0.5905511811023622,
                    "duration": 0.05514699999997674
                },
                {
                    "name": "G#4",
                    "midi": 68,
                    "time": 298.34526999999173,
                    "velocity": 0.4881889763779528,
                    "duration": 0.05514699999997674
                },
                {
                    "name": "C#5",
                    "midi": 73,
                    "time": 298.34526999999173,
                    "velocity": 0.4881889763779528,
                    "duration": 0.05514699999997674
                },
                {
                    "name": "G4",
                    "midi": 67,
                    "time": 298.4004169999917,
                    "velocity": 0.5433070866141733,
                    "duration": 0.05514699999997674
                },
                {
                    "name": "F4",
                    "midi": 65,
                    "time": 298.4004169999917,
                    "velocity": 0.44881889763779526,
                    "duration": 0.05514699999997674
                },
                {
                    "name": "A#5",
                    "midi": 82,
                    "time": 298.4555639999917,
                    "velocity": 0.6299212598425197,
                    "duration": 0.05514699999997674
                },
                {
                    "name": "A#4",
                    "midi": 70,
                    "time": 298.4555639999917,
                    "velocity": 0.5275590551181102,
                    "duration": 0.05514699999997674
                },
                {
                    "name": "C#5",
                    "midi": 73,
                    "time": 298.4555639999917,
                    "velocity": 0.5275590551181102,
                    "duration": 0.05514699999997674
                },
                {
                    "name": "F4",
                    "midi": 65,
                    "time": 298.51071099999166,
                    "velocity": 0.5433070866141733,
                    "duration": 0.05514699999997674
                },
                {
                    "name": "C#4",
                    "midi": 61,
                    "time": 298.51071099999166,
                    "velocity": 0.44881889763779526,
                    "duration": 0.05514699999997674
                },
                {
                    "name": "G#4",
                    "midi": 68,
                    "time": 298.56585799999164,
                    "velocity": 0.6220472440944882,
                    "duration": 0.05514699999997674
                },
                {
                    "name": "C#5",
                    "midi": 73,
                    "time": 298.56585799999164,
                    "velocity": 0.6220472440944882,
                    "duration": 0.05514699999997674
                },
                {
                    "name": "G#5",
                    "midi": 80,
                    "time": 298.56585799999164,
                    "velocity": 0.6220472440944882,
                    "duration": 0.05514699999997674
                },
                {
                    "name": "F4",
                    "midi": 65,
                    "time": 298.6210049999916,
                    "velocity": 0.5511811023622047,
                    "duration": 0.05514699999997674
                },
                {
                    "name": "G4",
                    "midi": 67,
                    "time": 298.6210049999916,
                    "velocity": 0.5511811023622047,
                    "duration": 0.05514699999997674
                },
                {
                    "name": "A#5",
                    "midi": 82,
                    "time": 298.6761519999916,
                    "velocity": 0.6614173228346457,
                    "duration": 0.05514699999997674
                },
                {
                    "name": "A#4",
                    "midi": 70,
                    "time": 298.6761519999916,
                    "velocity": 0.5669291338582677,
                    "duration": 0.05514699999997674
                },
                {
                    "name": "C#5",
                    "midi": 73,
                    "time": 298.6761519999916,
                    "velocity": 0.5669291338582677,
                    "duration": 0.05514699999997674
                },
                {
                    "name": "F4",
                    "midi": 65,
                    "time": 298.73129899999157,
                    "velocity": 0.5590551181102362,
                    "duration": 0.05514699999997674
                },
                {
                    "name": "C#4",
                    "midi": 61,
                    "time": 298.73129899999157,
                    "velocity": 0.4566929133858268,
                    "duration": 0.05514699999997674
                },
                {
                    "name": "G#5",
                    "midi": 80,
                    "time": 298.78644599999154,
                    "velocity": 0.6220472440944882,
                    "duration": 0.05514699999997674
                },
                {
                    "name": "G#4",
                    "midi": 68,
                    "time": 298.78644599999154,
                    "velocity": 0.5275590551181102,
                    "duration": 0.05514699999997674
                },
                {
                    "name": "C#5",
                    "midi": 73,
                    "time": 298.78644599999154,
                    "velocity": 0.5275590551181102,
                    "duration": 0.05514699999997674
                },
                {
                    "name": "G4",
                    "midi": 67,
                    "time": 298.8415929999915,
                    "velocity": 0.5669291338582677,
                    "duration": 0.05514699999997674
                },
                {
                    "name": "F4",
                    "midi": 65,
                    "time": 298.8415929999915,
                    "velocity": 0.47244094488188976,
                    "duration": 0.05514699999997674
                },
                {
                    "name": "A#5",
                    "midi": 82,
                    "time": 298.8967399999915,
                    "velocity": 0.6535433070866141,
                    "duration": 0.05514699999997674
                },
                {
                    "name": "A#4",
                    "midi": 70,
                    "time": 298.8967399999915,
                    "velocity": 0.5590551181102362,
                    "duration": 0.05514699999997674
                },
                {
                    "name": "C#5",
                    "midi": 73,
                    "time": 298.8967399999915,
                    "velocity": 0.5590551181102362,
                    "duration": 0.05514699999997674
                },
                {
                    "name": "F4",
                    "midi": 65,
                    "time": 298.9518869999915,
                    "velocity": 0.5354330708661418,
                    "duration": 0.05514699999997674
                },
                {
                    "name": "C#4",
                    "midi": 61,
                    "time": 298.9518869999915,
                    "velocity": 0.44881889763779526,
                    "duration": 0.05514699999997674
                },
                {
                    "name": "G#5",
                    "midi": 80,
                    "time": 299.00703399999145,
                    "velocity": 0.6062992125984252,
                    "duration": 0.05514699999997674
                },
                {
                    "name": "G#4",
                    "midi": 68,
                    "time": 299.00703399999145,
                    "velocity": 0.5196850393700787,
                    "duration": 0.05514699999997674
                },
                {
                    "name": "C#5",
                    "midi": 73,
                    "time": 299.00703399999145,
                    "velocity": 0.5196850393700787,
                    "duration": 0.05514699999997674
                },
                {
                    "name": "F6",
                    "midi": 89,
                    "time": 299.1173279999914,
                    "velocity": 0.5039370078740157,
                    "duration": 0.05514699999997674
                },
                {
                    "name": "C#6",
                    "midi": 85,
                    "time": 299.1173279999914,
                    "velocity": 0.5039370078740157,
                    "duration": 0.05514699999997674
                },
                {
                    "name": "D#6",
                    "midi": 87,
                    "time": 299.1724749999914,
                    "velocity": 0.49606299212598426,
                    "duration": 0.05514699999997674
                },
                {
                    "name": "C#6",
                    "midi": 85,
                    "time": 299.22762199999136,
                    "velocity": 0.4881889763779528,
                    "duration": 0.05514699999997674
                },
                {
                    "name": "G5",
                    "midi": 79,
                    "time": 299.28276899999133,
                    "velocity": 0.47244094488188976,
                    "duration": 0.05514699999997674
                },
                {
                    "name": "C#5",
                    "midi": 73,
                    "time": 299.3379159999913,
                    "velocity": 0.4645669291338583,
                    "duration": 0.05514699999997674
                },
                {
                    "name": "F5",
                    "midi": 77,
                    "time": 299.3379159999913,
                    "velocity": 0.4645669291338583,
                    "duration": 0.05514699999997674
                },
                {
                    "name": "D#5",
                    "midi": 75,
                    "time": 299.3930629999913,
                    "velocity": 0.4566929133858268,
                    "duration": 0.05514699999997674
                },
                {
                    "name": "C#5",
                    "midi": 73,
                    "time": 299.44820999999126,
                    "velocity": 0.4409448818897638,
                    "duration": 0.05514699999997674
                },
                {
                    "name": "G4",
                    "midi": 67,
                    "time": 299.50335699999124,
                    "velocity": 0.4330708661417323,
                    "duration": 0.05514699999997674
                },
                {
                    "name": "F6",
                    "midi": 89,
                    "time": 299.5585039999912,
                    "velocity": 0.5039370078740157,
                    "duration": 0.05514699999997674
                },
                {
                    "name": "C#6",
                    "midi": 85,
                    "time": 299.5585039999912,
                    "velocity": 0.5039370078740157,
                    "duration": 0.05514699999997674
                },
                {
                    "name": "D#6",
                    "midi": 87,
                    "time": 299.6136509999912,
                    "velocity": 0.49606299212598426,
                    "duration": 0.05514699999997674
                },
                {
                    "name": "C#6",
                    "midi": 85,
                    "time": 299.66879799999117,
                    "velocity": 0.4881889763779528,
                    "duration": 0.05514699999997674
                },
                {
                    "name": "G5",
                    "midi": 79,
                    "time": 299.72394499999115,
                    "velocity": 0.47244094488188976,
                    "duration": 0.05514699999997674
                },
                {
                    "name": "C#5",
                    "midi": 73,
                    "time": 299.7790919999911,
                    "velocity": 0.4645669291338583,
                    "duration": 0.05514699999997674
                },
                {
                    "name": "F5",
                    "midi": 77,
                    "time": 299.7790919999911,
                    "velocity": 0.4645669291338583,
                    "duration": 0.05514699999997674
                },
                {
                    "name": "D#5",
                    "midi": 75,
                    "time": 299.8342389999911,
                    "velocity": 0.4566929133858268,
                    "duration": 0.05514699999997674
                },
                {
                    "name": "C#5",
                    "midi": 73,
                    "time": 299.8893859999911,
                    "velocity": 0.4409448818897638,
                    "duration": 0.05514699999997674
                },
                {
                    "name": "G4",
                    "midi": 67,
                    "time": 299.94453299999105,
                    "velocity": 0.4330708661417323,
                    "duration": 0.05514699999997674
                },
                {
                    "name": "A#6",
                    "midi": 94,
                    "time": 299.99967999999103,
                    "velocity": 0.5039370078740157,
                    "duration": 0.05514699999997674
                },
                {
                    "name": "F#6",
                    "midi": 90,
                    "time": 299.99967999999103,
                    "velocity": 0.5039370078740157,
                    "duration": 0.05514699999997674
                },
                {
                    "name": "G#6",
                    "midi": 92,
                    "time": 300.054826999991,
                    "velocity": 0.49606299212598426,
                    "duration": 0.05514699999997674
                },
                {
                    "name": "F#6",
                    "midi": 90,
                    "time": 300.109973999991,
                    "velocity": 0.4881889763779528,
                    "duration": 0.05514699999997674
                },
                {
                    "name": "C6",
                    "midi": 84,
                    "time": 300.16512099999096,
                    "velocity": 0.47244094488188976,
                    "duration": 0.05514699999997674
                },
                {
                    "name": "F#5",
                    "midi": 78,
                    "time": 300.22026799999094,
                    "velocity": 0.4645669291338583,
                    "duration": 0.05514699999997674
                },
                {
                    "name": "A#5",
                    "midi": 82,
                    "time": 300.22026799999094,
                    "velocity": 0.4645669291338583,
                    "duration": 0.05514699999997674
                },
                {
                    "name": "G#5",
                    "midi": 80,
                    "time": 300.2754149999909,
                    "velocity": 0.4566929133858268,
                    "duration": 0.05514699999997674
                },
                {
                    "name": "F#5",
                    "midi": 78,
                    "time": 300.3305619999909,
                    "velocity": 0.4409448818897638,
                    "duration": 0.05514699999997674
                },
                {
                    "name": "C5",
                    "midi": 72,
                    "time": 300.38570899999087,
                    "velocity": 0.4330708661417323,
                    "duration": 0.05514699999997674
                },
                {
                    "name": "A#6",
                    "midi": 94,
                    "time": 300.44085599999084,
                    "velocity": 0.5039370078740157,
                    "duration": 0.05514699999997674
                },
                {
                    "name": "F#6",
                    "midi": 90,
                    "time": 300.44085599999084,
                    "velocity": 0.5039370078740157,
                    "duration": 0.05514699999997674
                },
                {
                    "name": "G#6",
                    "midi": 92,
                    "time": 300.4960029999908,
                    "velocity": 0.49606299212598426,
                    "duration": 0.05514699999997674
                },
                {
                    "name": "F#6",
                    "midi": 90,
                    "time": 300.5511499999908,
                    "velocity": 0.4881889763779528,
                    "duration": 0.05514699999997674
                },
                {
                    "name": "C6",
                    "midi": 84,
                    "time": 300.6062969999908,
                    "velocity": 0.47244094488188976,
                    "duration": 0.05514699999997674
                },
                {
                    "name": "F#5",
                    "midi": 78,
                    "time": 300.66144399999075,
                    "velocity": 0.4645669291338583,
                    "duration": 0.05514699999997674
                },
                {
                    "name": "A#5",
                    "midi": 82,
                    "time": 300.66144399999075,
                    "velocity": 0.4645669291338583,
                    "duration": 0.05514699999997674
                },
                {
                    "name": "G#5",
                    "midi": 80,
                    "time": 300.71659099999073,
                    "velocity": 0.4566929133858268,
                    "duration": 0.05514699999997674
                },
                {
                    "name": "F#5",
                    "midi": 78,
                    "time": 300.7717379999907,
                    "velocity": 0.4409448818897638,
                    "duration": 0.05514699999997674
                },
                {
                    "name": "C5",
                    "midi": 72,
                    "time": 300.8268849999907,
                    "velocity": 0.4330708661417323,
                    "duration": 0.05514699999997674
                },
                {
                    "name": "C#5",
                    "midi": 73,
                    "time": 300.88203199999066,
                    "velocity": 0.5039370078740157,
                    "duration": 0.05514699999997674
                },
                {
                    "name": "G#6",
                    "midi": 92,
                    "time": 300.9923259999906,
                    "velocity": 0.5669291338582677,
                    "duration": 0.05514699999997674
                },
                {
                    "name": "G#5",
                    "midi": 80,
                    "time": 300.9923259999906,
                    "velocity": 0.47244094488188976,
                    "duration": 0.05514699999997674
                },
                {
                    "name": "C#6",
                    "midi": 85,
                    "time": 300.9923259999906,
                    "velocity": 0.47244094488188976,
                    "duration": 0.05514699999997674
                },
                {
                    "name": "G5",
                    "midi": 79,
                    "time": 301.0474729999906,
                    "velocity": 0.49606299212598426,
                    "duration": 0.05514699999997674
                },
                {
                    "name": "F5",
                    "midi": 77,
                    "time": 301.0474729999906,
                    "velocity": 0.41732283464566927,
                    "duration": 0.05514699999997674
                },
                {
                    "name": "A#6",
                    "midi": 94,
                    "time": 301.10261999999057,
                    "velocity": 0.6141732283464567,
                    "duration": 0.05514699999997674
                },
                {
                    "name": "A#5",
                    "midi": 82,
                    "time": 301.10261999999057,
                    "velocity": 0.5196850393700787,
                    "duration": 0.05514699999997674
                },
                {
                    "name": "C#6",
                    "midi": 85,
                    "time": 301.10261999999057,
                    "velocity": 0.5196850393700787,
                    "duration": 0.05514699999997674
                },
                {
                    "name": "F5",
                    "midi": 77,
                    "time": 301.15776699999054,
                    "velocity": 0.49606299212598426,
                    "duration": 0.05514699999997674
                },
                {
                    "name": "C#5",
                    "midi": 73,
                    "time": 301.15776699999054,
                    "velocity": 0.41732283464566927,
                    "duration": 0.05514699999997674
                },
                {
                    "name": "G#6",
                    "midi": 92,
                    "time": 301.2129139999905,
                    "velocity": 0.5590551181102362,
                    "duration": 0.05514699999997674
                },
                {
                    "name": "G#5",
                    "midi": 80,
                    "time": 301.2129139999905,
                    "velocity": 0.4645669291338583,
                    "duration": 0.05514699999997674
                },
                {
                    "name": "C#6",
                    "midi": 85,
                    "time": 301.2129139999905,
                    "velocity": 0.4645669291338583,
                    "duration": 0.05514699999997674
                },
                {
                    "name": "G5",
                    "midi": 79,
                    "time": 301.2680609999905,
                    "velocity": 0.5039370078740157,
                    "duration": 0.05514699999997674
                },
                {
                    "name": "F5",
                    "midi": 77,
                    "time": 301.2680609999905,
                    "velocity": 0.4251968503937008,
                    "duration": 0.05514699999997674
                },
                {
                    "name": "A#6",
                    "midi": 94,
                    "time": 301.3232079999905,
                    "velocity": 0.6062992125984252,
                    "duration": 0.05514699999997674
                },
                {
                    "name": "A#5",
                    "midi": 82,
                    "time": 301.3232079999905,
                    "velocity": 0.5196850393700787,
                    "duration": 0.05514699999997674
                },
                {
                    "name": "C#6",
                    "midi": 85,
                    "time": 301.3232079999905,
                    "velocity": 0.5196850393700787,
                    "duration": 0.05514699999997674
                },
                {
                    "name": "F5",
                    "midi": 77,
                    "time": 301.37835499999045,
                    "velocity": 0.5118110236220472,
                    "duration": 0.05514699999997674
                },
                {
                    "name": "C#5",
                    "midi": 73,
                    "time": 301.37835499999045,
                    "velocity": 0.4251968503937008,
                    "duration": 0.05514699999997674
                },
                {
                    "name": "G#6",
                    "midi": 92,
                    "time": 301.4335019999904,
                    "velocity": 0.5826771653543307,
                    "duration": 0.05514699999997674
                },
                {
                    "name": "G#5",
                    "midi": 80,
                    "time": 301.4335019999904,
                    "velocity": 0.48031496062992124,
                    "duration": 0.05514699999997674
                },
                {
                    "name": "C#6",
                    "midi": 85,
                    "time": 301.4335019999904,
                    "velocity": 0.48031496062992124,
                    "duration": 0.05514699999997674
                },
                {
                    "name": "G5",
                    "midi": 79,
                    "time": 301.4886489999904,
                    "velocity": 0.5118110236220472,
                    "duration": 0.05514699999997674
                },
                {
                    "name": "F5",
                    "midi": 77,
                    "time": 301.4886489999904,
                    "velocity": 0.4330708661417323,
                    "duration": 0.05514699999997674
                },
                {
                    "name": "A#6",
                    "midi": 94,
                    "time": 301.5437959999904,
                    "velocity": 0.6299212598425197,
                    "duration": 0.05514699999997674
                },
                {
                    "name": "A#5",
                    "midi": 82,
                    "time": 301.5437959999904,
                    "velocity": 0.5275590551181102,
                    "duration": 0.05514699999997674
                },
                {
                    "name": "C#6",
                    "midi": 85,
                    "time": 301.5437959999904,
                    "velocity": 0.5275590551181102,
                    "duration": 0.05514699999997674
                },
                {
                    "name": "F5",
                    "midi": 77,
                    "time": 301.59894299999036,
                    "velocity": 0.5275590551181102,
                    "duration": 0.05514699999997674
                },
                {
                    "name": "C#5",
                    "midi": 73,
                    "time": 301.59894299999036,
                    "velocity": 0.4409448818897638,
                    "duration": 0.05514699999997674
                },
                {
                    "name": "G#6",
                    "midi": 92,
                    "time": 301.65408999999033,
                    "velocity": 0.5748031496062992,
                    "duration": 0.05514699999997674
                },
                {
                    "name": "G#5",
                    "midi": 80,
                    "time": 301.65408999999033,
                    "velocity": 0.48031496062992124,
                    "duration": 0.05514699999997674
                },
                {
                    "name": "C#6",
                    "midi": 85,
                    "time": 301.65408999999033,
                    "velocity": 0.48031496062992124,
                    "duration": 0.05514699999997674
                },
                {
                    "name": "G5",
                    "midi": 79,
                    "time": 301.7092369999903,
                    "velocity": 0.5275590551181102,
                    "duration": 0.05514699999997674
                },
                {
                    "name": "F5",
                    "midi": 77,
                    "time": 301.7092369999903,
                    "velocity": 0.4409448818897638,
                    "duration": 0.05514699999997674
                },
                {
                    "name": "A#6",
                    "midi": 94,
                    "time": 301.7643839999903,
                    "velocity": 0.6377952755905512,
                    "duration": 0.05514699999997674
                },
                {
                    "name": "A#5",
                    "midi": 82,
                    "time": 301.7643839999903,
                    "velocity": 0.5354330708661418,
                    "duration": 0.05514699999997674
                },
                {
                    "name": "C#6",
                    "midi": 85,
                    "time": 301.7643839999903,
                    "velocity": 0.5354330708661418,
                    "duration": 0.05514699999997674
                },
                {
                    "name": "F5",
                    "midi": 77,
                    "time": 301.81953099999026,
                    "velocity": 0.5354330708661418,
                    "duration": 0.05514699999997674
                },
                {
                    "name": "C#5",
                    "midi": 73,
                    "time": 301.81953099999026,
                    "velocity": 0.44881889763779526,
                    "duration": 0.05514699999997674
                },
                {
                    "name": "G#6",
                    "midi": 92,
                    "time": 301.87467799999024,
                    "velocity": 0.5905511811023622,
                    "duration": 0.05514699999997674
                },
                {
                    "name": "G#5",
                    "midi": 80,
                    "time": 301.87467799999024,
                    "velocity": 0.4881889763779528,
                    "duration": 0.05514699999997674
                },
                {
                    "name": "C#6",
                    "midi": 85,
                    "time": 301.87467799999024,
                    "velocity": 0.4881889763779528,
                    "duration": 0.05514699999997674
                },
                {
                    "name": "G5",
                    "midi": 79,
                    "time": 301.9298249999902,
                    "velocity": 0.5433070866141733,
                    "duration": 0.05514699999997674
                },
                {
                    "name": "F5",
                    "midi": 77,
                    "time": 301.9298249999902,
                    "velocity": 0.44881889763779526,
                    "duration": 0.05514699999997674
                },
                {
                    "name": "A#6",
                    "midi": 94,
                    "time": 301.9849719999902,
                    "velocity": 0.6299212598425197,
                    "duration": 0.05514699999997674
                },
                {
                    "name": "A#5",
                    "midi": 82,
                    "time": 301.9849719999902,
                    "velocity": 0.5275590551181102,
                    "duration": 0.05514699999997674
                },
                {
                    "name": "C#6",
                    "midi": 85,
                    "time": 301.9849719999902,
                    "velocity": 0.5275590551181102,
                    "duration": 0.05514699999997674
                },
                {
                    "name": "F5",
                    "midi": 77,
                    "time": 302.04011899999017,
                    "velocity": 0.5433070866141733,
                    "duration": 0.05514699999997674
                },
                {
                    "name": "C#5",
                    "midi": 73,
                    "time": 302.04011899999017,
                    "velocity": 0.44881889763779526,
                    "duration": 0.05514699999997674
                },
                {
                    "name": "G#5",
                    "midi": 80,
                    "time": 302.09526599999015,
                    "velocity": 0.6220472440944882,
                    "duration": 0.05514699999997674
                },
                {
                    "name": "C#6",
                    "midi": 85,
                    "time": 302.09526599999015,
                    "velocity": 0.6220472440944882,
                    "duration": 0.05514699999997674
                },
                {
                    "name": "G#6",
                    "midi": 92,
                    "time": 302.09526599999015,
                    "velocity": 0.6220472440944882,
                    "duration": 0.05514699999997674
                },
                {
                    "name": "F5",
                    "midi": 77,
                    "time": 302.1504129999901,
                    "velocity": 0.5511811023622047,
                    "duration": 0.05514699999997674
                },
                {
                    "name": "G5",
                    "midi": 79,
                    "time": 302.1504129999901,
                    "velocity": 0.5511811023622047,
                    "duration": 0.05514699999997674
                },
                {
                    "name": "A#6",
                    "midi": 94,
                    "time": 302.2055599999901,
                    "velocity": 0.6614173228346457,
                    "duration": 0.05514699999997674
                },
                {
                    "name": "A#5",
                    "midi": 82,
                    "time": 302.2055599999901,
                    "velocity": 0.5669291338582677,
                    "duration": 0.05514699999997674
                },
                {
                    "name": "C#6",
                    "midi": 85,
                    "time": 302.2055599999901,
                    "velocity": 0.5669291338582677,
                    "duration": 0.05514699999997674
                },
                {
                    "name": "F5",
                    "midi": 77,
                    "time": 302.2607069999901,
                    "velocity": 0.5590551181102362,
                    "duration": 0.05514699999997674
                },
                {
                    "name": "C#5",
                    "midi": 73,
                    "time": 302.2607069999901,
                    "velocity": 0.4566929133858268,
                    "duration": 0.05514699999997674
                },
                {
                    "name": "G#6",
                    "midi": 92,
                    "time": 302.31585399999005,
                    "velocity": 0.6220472440944882,
                    "duration": 0.05514699999997674
                },
                {
                    "name": "G#5",
                    "midi": 80,
                    "time": 302.31585399999005,
                    "velocity": 0.5275590551181102,
                    "duration": 0.05514699999997674
                },
                {
                    "name": "C#6",
                    "midi": 85,
                    "time": 302.31585399999005,
                    "velocity": 0.5275590551181102,
                    "duration": 0.05514699999997674
                },
                {
                    "name": "G5",
                    "midi": 79,
                    "time": 302.37100099999003,
                    "velocity": 0.5669291338582677,
                    "duration": 0.05514699999997674
                },
                {
                    "name": "F5",
                    "midi": 77,
                    "time": 302.37100099999003,
                    "velocity": 0.47244094488188976,
                    "duration": 0.05514699999997674
                },
                {
                    "name": "A#6",
                    "midi": 94,
                    "time": 302.42614799999,
                    "velocity": 0.6535433070866141,
                    "duration": 0.05514699999997674
                },
                {
                    "name": "A#5",
                    "midi": 82,
                    "time": 302.42614799999,
                    "velocity": 0.5590551181102362,
                    "duration": 0.05514699999997674
                },
                {
                    "name": "C#6",
                    "midi": 85,
                    "time": 302.42614799999,
                    "velocity": 0.5590551181102362,
                    "duration": 0.05514699999997674
                },
                {
                    "name": "F5",
                    "midi": 77,
                    "time": 302.48129499999,
                    "velocity": 0.5354330708661418,
                    "duration": 0.05514699999997674
                },
                {
                    "name": "C#5",
                    "midi": 73,
                    "time": 302.48129499999,
                    "velocity": 0.44881889763779526,
                    "duration": 0.05514699999997674
                },
                {
                    "name": "G#6",
                    "midi": 92,
                    "time": 302.53644199998996,
                    "velocity": 0.6062992125984252,
                    "duration": 0.05514699999997674
                },
                {
                    "name": "G#5",
                    "midi": 80,
                    "time": 302.53644199998996,
                    "velocity": 0.5196850393700787,
                    "duration": 0.05514699999997674
                },
                {
                    "name": "C#6",
                    "midi": 85,
                    "time": 302.53644199998996,
                    "velocity": 0.5196850393700787,
                    "duration": 0.05514699999997674
                },
                {
                    "name": "F7",
                    "midi": 101,
                    "time": 302.6467359999899,
                    "velocity": 0.5039370078740157,
                    "duration": 0.05514699999997674
                },
                {
                    "name": "C#7",
                    "midi": 97,
                    "time": 302.6467359999899,
                    "velocity": 0.5039370078740157,
                    "duration": 0.05514699999997674
                },
                {
                    "name": "D#7",
                    "midi": 99,
                    "time": 302.7018829999899,
                    "velocity": 0.49606299212598426,
                    "duration": 0.05514699999997674
                },
                {
                    "name": "C#7",
                    "midi": 97,
                    "time": 302.75702999998987,
                    "velocity": 0.4881889763779528,
                    "duration": 0.05514699999997674
                },
                {
                    "name": "G6",
                    "midi": 91,
                    "time": 302.81217699998984,
                    "velocity": 0.47244094488188976,
                    "duration": 0.05514699999997674
                },
                {
                    "name": "C#6",
                    "midi": 85,
                    "time": 302.8673239999898,
                    "velocity": 0.4645669291338583,
                    "duration": 0.05514699999997674
                },
                {
                    "name": "F6",
                    "midi": 89,
                    "time": 302.8673239999898,
                    "velocity": 0.4645669291338583,
                    "duration": 0.05514699999997674
                },
                {
                    "name": "D#6",
                    "midi": 87,
                    "time": 302.9224709999898,
                    "velocity": 0.4566929133858268,
                    "duration": 0.05514699999997674
                },
                {
                    "name": "C#6",
                    "midi": 85,
                    "time": 302.9776179999898,
                    "velocity": 0.4409448818897638,
                    "duration": 0.05514699999997674
                },
                {
                    "name": "G5",
                    "midi": 79,
                    "time": 303.03276499998975,
                    "velocity": 0.4330708661417323,
                    "duration": 0.05514699999997674
                },
                {
                    "name": "F6",
                    "midi": 89,
                    "time": 303.08791199998973,
                    "velocity": 0.5039370078740157,
                    "duration": 0.05514699999997674
                },
                {
                    "name": "C#6",
                    "midi": 85,
                    "time": 303.08791199998973,
                    "velocity": 0.5039370078740157,
                    "duration": 0.05514699999997674
                },
                {
                    "name": "D#6",
                    "midi": 87,
                    "time": 303.1430589999897,
                    "velocity": 0.49606299212598426,
                    "duration": 0.05514699999997674
                },
                {
                    "name": "C#6",
                    "midi": 85,
                    "time": 303.1982059999897,
                    "velocity": 0.4881889763779528,
                    "duration": 0.05514699999997674
                },
                {
                    "name": "G5",
                    "midi": 79,
                    "time": 303.25335299998966,
                    "velocity": 0.47244094488188976,
                    "duration": 0.05514699999997674
                },
                {
                    "name": "C#5",
                    "midi": 73,
                    "time": 303.30849999998964,
                    "velocity": 0.4645669291338583,
                    "duration": 0.05514699999997674
                },
                {
                    "name": "F5",
                    "midi": 77,
                    "time": 303.30849999998964,
                    "velocity": 0.4645669291338583,
                    "duration": 0.05514699999997674
                },
                {
                    "name": "D#5",
                    "midi": 75,
                    "time": 303.3636469999896,
                    "velocity": 0.4566929133858268,
                    "duration": 0.05514699999997674
                },
                {
                    "name": "C#5",
                    "midi": 73,
                    "time": 303.4187939999896,
                    "velocity": 0.4409448818897638,
                    "duration": 0.05514699999997674
                },
                {
                    "name": "G4",
                    "midi": 67,
                    "time": 303.47394099998957,
                    "velocity": 0.4330708661417323,
                    "duration": 0.05514699999997674
                },
                {
                    "name": "A#6",
                    "midi": 94,
                    "time": 303.52908799998954,
                    "velocity": 0.5039370078740157,
                    "duration": 0.05514699999997674
                },
                {
                    "name": "F#6",
                    "midi": 90,
                    "time": 303.52908799998954,
                    "velocity": 0.5039370078740157,
                    "duration": 0.05514699999997674
                },
                {
                    "name": "G#6",
                    "midi": 92,
                    "time": 303.5842349999895,
                    "velocity": 0.49606299212598426,
                    "duration": 0.05514699999997674
                },
                {
                    "name": "F#6",
                    "midi": 90,
                    "time": 303.6393819999895,
                    "velocity": 0.4881889763779528,
                    "duration": 0.05514699999997674
                },
                {
                    "name": "C6",
                    "midi": 84,
                    "time": 303.6945289999895,
                    "velocity": 0.47244094488188976,
                    "duration": 0.05514699999997674
                },
                {
                    "name": "F#5",
                    "midi": 78,
                    "time": 303.74967599998945,
                    "velocity": 0.4645669291338583,
                    "duration": 0.05514699999997674
                },
                {
                    "name": "A#5",
                    "midi": 82,
                    "time": 303.74967599998945,
                    "velocity": 0.4645669291338583,
                    "duration": 0.05514699999997674
                },
                {
                    "name": "G#5",
                    "midi": 80,
                    "time": 303.8048229999894,
                    "velocity": 0.4566929133858268,
                    "duration": 0.05514699999997674
                },
                {
                    "name": "F#5",
                    "midi": 78,
                    "time": 303.8599699999894,
                    "velocity": 0.4409448818897638,
                    "duration": 0.05514699999997674
                },
                {
                    "name": "C5",
                    "midi": 72,
                    "time": 303.9151169999894,
                    "velocity": 0.4330708661417323,
                    "duration": 0.05514699999997674
                },
                {
                    "name": "A#5",
                    "midi": 82,
                    "time": 303.97026399998936,
                    "velocity": 0.5039370078740157,
                    "duration": 0.05514699999997674
                },
                {
                    "name": "F#5",
                    "midi": 78,
                    "time": 303.97026399998936,
                    "velocity": 0.5039370078740157,
                    "duration": 0.05514699999997674
                },
                {
                    "name": "G#5",
                    "midi": 80,
                    "time": 304.02541099998933,
                    "velocity": 0.49606299212598426,
                    "duration": 0.05514699999997674
                },
                {
                    "name": "F#5",
                    "midi": 78,
                    "time": 304.0805579999893,
                    "velocity": 0.4881889763779528,
                    "duration": 0.05514699999997674
                },
                {
                    "name": "C5",
                    "midi": 72,
                    "time": 304.1357049999893,
                    "velocity": 0.47244094488188976,
                    "duration": 0.05514699999997674
                },
                {
                    "name": "F#4",
                    "midi": 66,
                    "time": 304.19085199998926,
                    "velocity": 0.4645669291338583,
                    "duration": 0.05514699999997674
                },
                {
                    "name": "A#4",
                    "midi": 70,
                    "time": 304.19085199998926,
                    "velocity": 0.4645669291338583,
                    "duration": 0.05514699999997674
                },
                {
                    "name": "G#4",
                    "midi": 68,
                    "time": 304.24599899998924,
                    "velocity": 0.4566929133858268,
                    "duration": 0.05514699999997674
                },
                {
                    "name": "F#4",
                    "midi": 66,
                    "time": 304.3011459999892,
                    "velocity": 0.4409448818897638,
                    "duration": 0.05514699999997674
                },
                {
                    "name": "C4",
                    "midi": 60,
                    "time": 304.3562929999892,
                    "velocity": 0.4330708661417323,
                    "duration": 0.05514699999997674
                },
                {
                    "name": "C#5",
                    "midi": 73,
                    "time": 304.5217339999892,
                    "velocity": 0.4566929133858268,
                    "duration": 0.05514699999997674
                },
                {
                    "name": "F4",
                    "midi": 65,
                    "time": 304.5217339999892,
                    "velocity": 0.3858267716535433,
                    "duration": 0.05514699999997674
                },
                {
                    "name": "G#4",
                    "midi": 68,
                    "time": 304.5217339999892,
                    "velocity": 0.3858267716535433,
                    "duration": 0.05514699999997674
                },
                {
                    "name": "C#6",
                    "midi": 85,
                    "time": 304.74232199998914,
                    "velocity": 0.47244094488188976,
                    "duration": 0.05514699999997674
                },
                {
                    "name": "G#5",
                    "midi": 80,
                    "time": 304.74232199998914,
                    "velocity": 0.4015748031496063,
                    "duration": 0.05514699999997674
                },
                {
                    "name": "F5",
                    "midi": 77,
                    "time": 304.74232199998914,
                    "velocity": 0.4015748031496063,
                    "duration": 0.05514699999997674
                },
                {
                    "name": "C#5",
                    "midi": 73,
                    "time": 304.74232199998914,
                    "velocity": 0.4015748031496063,
                    "duration": 0.05514699999997674
                },
                {
                    "name": "C#5",
                    "midi": 73,
                    "time": 304.9629099999891,
                    "velocity": 0.4881889763779528,
                    "duration": 0.05514699999997674
                },
                {
                    "name": "E5",
                    "midi": 76,
                    "time": 304.9629099999891,
                    "velocity": 0.4881889763779528,
                    "duration": 0.05514699999997674
                },
                {
                    "name": "E4",
                    "midi": 64,
                    "time": 304.9629099999891,
                    "velocity": 0.4094488188976378,
                    "duration": 0.05514699999997674
                },
                {
                    "name": "A4",
                    "midi": 69,
                    "time": 304.9629099999891,
                    "velocity": 0.4094488188976378,
                    "duration": 0.05514699999997674
                },
                {
                    "name": "E6",
                    "midi": 88,
                    "time": 305.1834979999891,
                    "velocity": 0.5039370078740157,
                    "duration": 0.05514699999997674
                },
                {
                    "name": "C#6",
                    "midi": 85,
                    "time": 305.1834979999891,
                    "velocity": 0.4251968503937008,
                    "duration": 0.05514699999997674
                },
                {
                    "name": "A5",
                    "midi": 81,
                    "time": 305.1834979999891,
                    "velocity": 0.4251968503937008,
                    "duration": 0.05514699999997674
                },
                {
                    "name": "E5",
                    "midi": 76,
                    "time": 305.1834979999891,
                    "velocity": 0.4251968503937008,
                    "duration": 0.05514699999997674
                },
                {
                    "name": "F5",
                    "midi": 77,
                    "time": 305.40408599998904,
                    "velocity": 0.5196850393700787,
                    "duration": 0.05514699999997674
                },
                {
                    "name": "F4",
                    "midi": 65,
                    "time": 305.40408599998904,
                    "velocity": 0.4409448818897638,
                    "duration": 0.05514699999997674
                },
                {
                    "name": "A4",
                    "midi": 69,
                    "time": 305.40408599998904,
                    "velocity": 0.4409448818897638,
                    "duration": 0.05514699999997674
                },
                {
                    "name": "C5",
                    "midi": 72,
                    "time": 305.40408599998904,
                    "velocity": 0.4409448818897638,
                    "duration": 0.05514699999997674
                },
                {
                    "name": "F6",
                    "midi": 89,
                    "time": 305.624673999989,
                    "velocity": 0.5354330708661418,
                    "duration": 0.05514699999997674
                },
                {
                    "name": "C6",
                    "midi": 84,
                    "time": 305.624673999989,
                    "velocity": 0.44881889763779526,
                    "duration": 0.05514699999997674
                },
                {
                    "name": "A5",
                    "midi": 81,
                    "time": 305.624673999989,
                    "velocity": 0.44881889763779526,
                    "duration": 0.05514699999997674
                },
                {
                    "name": "F5",
                    "midi": 77,
                    "time": 305.624673999989,
                    "velocity": 0.44881889763779526,
                    "duration": 0.05514699999997674
                },
                {
                    "name": "F#5",
                    "midi": 78,
                    "time": 305.84526199998896,
                    "velocity": 0.5511811023622047,
                    "duration": 0.05514699999997674
                },
                {
                    "name": "D5",
                    "midi": 74,
                    "time": 305.84526199998896,
                    "velocity": 0.4645669291338583,
                    "duration": 0.05514699999997674
                },
                {
                    "name": "F#4",
                    "midi": 66,
                    "time": 305.84526199998896,
                    "velocity": 0.4645669291338583,
                    "duration": 0.05514699999997674
                },
                {
                    "name": "F#6",
                    "midi": 90,
                    "time": 306.0658499999889,
                    "velocity": 0.5669291338582677,
                    "duration": 0.05514699999997674
                },
                {
                    "name": "D6",
                    "midi": 86,
                    "time": 306.0658499999889,
                    "velocity": 0.5669291338582677,
                    "duration": 0.05514699999997674
                },
                {
                    "name": "F#5",
                    "midi": 78,
                    "time": 306.0658499999889,
                    "velocity": 0.48031496062992124,
                    "duration": 0.05514699999997674
                },
                {
                    "name": "G#4",
                    "midi": 68,
                    "time": 306.2864379999889,
                    "velocity": 0.4566929133858268,
                    "duration": 0.05514699999997674
                },
                {
                    "name": "F5",
                    "midi": 77,
                    "time": 306.2864379999889,
                    "velocity": 0.5433070866141733,
                    "duration": 0.05514699999997674
                },
                {
                    "name": "F4",
                    "midi": 65,
                    "time": 306.2864379999889,
                    "velocity": 0.4566929133858268,
                    "duration": 0.05514699999997674
                },
                {
                    "name": "C#5",
                    "midi": 73,
                    "time": 306.2864379999889,
                    "velocity": 0.4566929133858268,
                    "duration": 0.05514699999997674
                },
                {
                    "name": "F6",
                    "midi": 89,
                    "time": 306.50702599998885,
                    "velocity": 0.5669291338582677,
                    "duration": 0.05514699999997674
                },
                {
                    "name": "C#6",
                    "midi": 85,
                    "time": 306.50702599998885,
                    "velocity": 0.48031496062992124,
                    "duration": 0.05514699999997674
                },
                {
                    "name": "G#5",
                    "midi": 80,
                    "time": 306.50702599998885,
                    "velocity": 0.48031496062992124,
                    "duration": 0.05514699999997674
                },
                {
                    "name": "F5",
                    "midi": 77,
                    "time": 306.50702599998885,
                    "velocity": 0.48031496062992124,
                    "duration": 0.05514699999997674
                },
                {
                    "name": "C#5",
                    "midi": 73,
                    "time": 306.7276139999888,
                    "velocity": 0.5826771653543307,
                    "duration": 0.05514699999997674
                },
                {
                    "name": "A5",
                    "midi": 81,
                    "time": 306.7276139999888,
                    "velocity": 0.5826771653543307,
                    "duration": 0.05514699999997674
                },
                {
                    "name": "E5",
                    "midi": 76,
                    "time": 306.7276139999888,
                    "velocity": 0.4881889763779528,
                    "duration": 0.05514699999997674
                },
                {
                    "name": "A4",
                    "midi": 69,
                    "time": 306.7276139999888,
                    "velocity": 0.4881889763779528,
                    "duration": 0.05514699999997674
                },
                {
                    "name": "F#6",
                    "midi": 90,
                    "time": 306.9482019999888,
                    "velocity": 0.5984251968503937,
                    "duration": 0.05514699999997674
                },
                {
                    "name": "C#6",
                    "midi": 85,
                    "time": 306.9482019999888,
                    "velocity": 0.5039370078740157,
                    "duration": 0.05514699999997674
                },
                {
                    "name": "A5",
                    "midi": 81,
                    "time": 306.9482019999888,
                    "velocity": 0.5039370078740157,
                    "duration": 0.05514699999997674
                },
                {
                    "name": "E6",
                    "midi": 88,
                    "time": 306.9482019999888,
                    "velocity": 0.5039370078740157,
                    "duration": 0.05514699999997674
                },
                {
                    "name": "A5",
                    "midi": 81,
                    "time": 307.16878999998875,
                    "velocity": 0.6220472440944882,
                    "duration": 0.05514699999997674
                },
                {
                    "name": "F5",
                    "midi": 77,
                    "time": 307.16878999998875,
                    "velocity": 0.5275590551181102,
                    "duration": 0.05514699999997674
                },
                {
                    "name": "A4",
                    "midi": 69,
                    "time": 307.16878999998875,
                    "velocity": 0.5275590551181102,
                    "duration": 0.05514699999997674
                },
                {
                    "name": "C5",
                    "midi": 72,
                    "time": 307.16878999998875,
                    "velocity": 0.5275590551181102,
                    "duration": 0.05514699999997674
                },
                {
                    "name": "A6",
                    "midi": 93,
                    "time": 307.3893779999887,
                    "velocity": 0.6377952755905512,
                    "duration": 0.05514699999997674
                },
                {
                    "name": "C6",
                    "midi": 84,
                    "time": 307.3893779999887,
                    "velocity": 0.5354330708661418,
                    "duration": 0.05514699999997674
                },
                {
                    "name": "A5",
                    "midi": 81,
                    "time": 307.3893779999887,
                    "velocity": 0.5354330708661418,
                    "duration": 0.05514699999997674
                },
                {
                    "name": "F6",
                    "midi": 89,
                    "time": 307.3893779999887,
                    "velocity": 0.5354330708661418,
                    "duration": 0.05514699999997674
                },
                {
                    "name": "A4",
                    "midi": 69,
                    "time": 307.6099659999887,
                    "velocity": 0.5511811023622047,
                    "duration": 0.05514699999997674
                },
                {
                    "name": "A5",
                    "midi": 81,
                    "time": 307.6099659999887,
                    "velocity": 0.6614173228346457,
                    "duration": 0.05514699999997674
                },
                {
                    "name": "D5",
                    "midi": 74,
                    "time": 307.6099659999887,
                    "velocity": 0.5511811023622047,
                    "duration": 0.05514699999997674
                },
                {
                    "name": "F#5",
                    "midi": 78,
                    "time": 307.6099659999887,
                    "velocity": 0.5511811023622047,
                    "duration": 0.05514699999997674
                },
                {
                    "name": "A5",
                    "midi": 81,
                    "time": 307.83055399998864,
                    "velocity": 0.6771653543307087,
                    "duration": 0.05514699999997674
                },
                {
                    "name": "A6",
                    "midi": 93,
                    "time": 307.83055399998864,
                    "velocity": 0.6771653543307087,
                    "duration": 0.05514699999997674
                },
                {
                    "name": "D6",
                    "midi": 86,
                    "time": 307.83055399998864,
                    "velocity": 0.6771653543307087,
                    "duration": 0.05514699999997674
                },
                {
                    "name": "F#6",
                    "midi": 90,
                    "time": 307.83055399998864,
                    "velocity": 0.5748031496062992,
                    "duration": 0.05514699999997674
                },
                {
                    "name": "F5",
                    "midi": 77,
                    "time": 308.0511419999886,
                    "velocity": 0.4566929133858268,
                    "duration": 0.05514699999997674
                },
                {
                    "name": "C#6",
                    "midi": 85,
                    "time": 308.0511419999886,
                    "velocity": 0.5433070866141733,
                    "duration": 0.05514699999997674
                },
                {
                    "name": "C#5",
                    "midi": 73,
                    "time": 308.0511419999886,
                    "velocity": 0.4566929133858268,
                    "duration": 0.05514699999997674
                },
                {
                    "name": "G#5",
                    "midi": 80,
                    "time": 308.0511419999886,
                    "velocity": 0.4566929133858268,
                    "duration": 0.05514699999997674
                },
                {
                    "name": "C#7",
                    "midi": 97,
                    "time": 308.27172999998857,
                    "velocity": 0.5669291338582677,
                    "duration": 0.05514699999997674
                },
                {
                    "name": "G#6",
                    "midi": 92,
                    "time": 308.27172999998857,
                    "velocity": 0.48031496062992124,
                    "duration": 0.05514699999997674
                },
                {
                    "name": "F6",
                    "midi": 89,
                    "time": 308.27172999998857,
                    "velocity": 0.48031496062992124,
                    "duration": 0.05514699999997674
                },
                {
                    "name": "C#6",
                    "midi": 85,
                    "time": 308.27172999998857,
                    "velocity": 0.48031496062992124,
                    "duration": 0.05514699999997674
                },
                {
                    "name": "A5",
                    "midi": 81,
                    "time": 308.49231799998853,
                    "velocity": 0.5826771653543307,
                    "duration": 0.05514699999997674
                },
                {
                    "name": "E6",
                    "midi": 88,
                    "time": 308.49231799998853,
                    "velocity": 0.5826771653543307,
                    "duration": 0.05514699999997674
                },
                {
                    "name": "C#6",
                    "midi": 85,
                    "time": 308.49231799998853,
                    "velocity": 0.4881889763779528,
                    "duration": 0.05514699999997674
                },
                {
                    "name": "E5",
                    "midi": 76,
                    "time": 308.49231799998853,
                    "velocity": 0.4881889763779528,
                    "duration": 0.05514699999997674
                },
                {
                    "name": "E7",
                    "midi": 100,
                    "time": 308.7129059999885,
                    "velocity": 0.5984251968503937,
                    "duration": 0.05514699999997674
                },
                {
                    "name": "A6",
                    "midi": 93,
                    "time": 308.7129059999885,
                    "velocity": 0.5039370078740157,
                    "duration": 0.05514699999997674
                },
                {
                    "name": "E6",
                    "midi": 88,
                    "time": 308.7129059999885,
                    "velocity": 0.5039370078740157,
                    "duration": 0.05514699999997674
                },
                {
                    "name": "C#7",
                    "midi": 97,
                    "time": 308.7129059999885,
                    "velocity": 0.5039370078740157,
                    "duration": 0.05514699999997674
                },
                {
                    "name": "F6",
                    "midi": 89,
                    "time": 308.93349399998846,
                    "velocity": 0.6220472440944882,
                    "duration": 0.05514699999997674
                },
                {
                    "name": "C6",
                    "midi": 84,
                    "time": 308.93349399998846,
                    "velocity": 0.5275590551181102,
                    "duration": 0.05514699999997674
                },
                {
                    "name": "F5",
                    "midi": 77,
                    "time": 308.93349399998846,
                    "velocity": 0.5275590551181102,
                    "duration": 0.05514699999997674
                },
                {
                    "name": "A5",
                    "midi": 81,
                    "time": 308.93349399998846,
                    "velocity": 0.5275590551181102,
                    "duration": 0.05514699999997674
                },
                {
                    "name": "F7",
                    "midi": 101,
                    "time": 309.1540819999884,
                    "velocity": 0.6377952755905512,
                    "duration": 0.05514699999997674
                },
                {
                    "name": "A6",
                    "midi": 93,
                    "time": 309.1540819999884,
                    "velocity": 0.5354330708661418,
                    "duration": 0.05514699999997674
                },
                {
                    "name": "F6",
                    "midi": 89,
                    "time": 309.1540819999884,
                    "velocity": 0.5354330708661418,
                    "duration": 0.05514699999997674
                },
                {
                    "name": "C7",
                    "midi": 96,
                    "time": 309.1540819999884,
                    "velocity": 0.5354330708661418,
                    "duration": 0.05514699999997674
                },
                {
                    "name": "F#5",
                    "midi": 78,
                    "time": 309.3746699999884,
                    "velocity": 0.5511811023622047,
                    "duration": 0.05514699999997674
                },
                {
                    "name": "F#6",
                    "midi": 90,
                    "time": 309.3746699999884,
                    "velocity": 0.6614173228346457,
                    "duration": 0.05514699999997674
                },
                {
                    "name": "D6",
                    "midi": 86,
                    "time": 309.3746699999884,
                    "velocity": 0.5511811023622047,
                    "duration": 0.05514699999997674
                },
                {
                    "name": "F#6",
                    "midi": 90,
                    "time": 309.59525799998835,
                    "velocity": 0.5748031496062992,
                    "duration": 0.05514699999997674
                },
                {
                    "name": "F#7",
                    "midi": 102,
                    "time": 309.59525799998835,
                    "velocity": 0.5748031496062992,
                    "duration": 0.05514699999997674
                },
                {
                    "name": "D7",
                    "midi": 98,
                    "time": 309.59525799998835,
                    "velocity": 0.5748031496062992,
                    "duration": 0.05514699999997674
                },
                {
                    "name": "F#6",
                    "midi": 90,
                    "time": 309.8158459999883,
                    "velocity": 0.7007874015748031,
                    "duration": 0.05514699999997674
                },
                {
                    "name": "F#5",
                    "midi": 78,
                    "time": 309.8158459999883,
                    "velocity": 0.5905511811023622,
                    "duration": 0.05514699999997674
                },
                {
                    "name": "B5",
                    "midi": 83,
                    "time": 309.8158459999883,
                    "velocity": 0.5905511811023622,
                    "duration": 0.05514699999997674
                },
                {
                    "name": "D#6",
                    "midi": 87,
                    "time": 309.8158459999883,
                    "velocity": 0.5905511811023622,
                    "duration": 0.05514699999997674
                },
                {
                    "name": "F#7",
                    "midi": 102,
                    "time": 310.0364339999883,
                    "velocity": 0.7244094488188977,
                    "duration": 0.05514699999997674
                },
                {
                    "name": "D#7",
                    "midi": 99,
                    "time": 310.0364339999883,
                    "velocity": 0.6141732283464567,
                    "duration": 0.05514699999997674
                },
                {
                    "name": "B6",
                    "midi": 95,
                    "time": 310.0364339999883,
                    "velocity": 0.6141732283464567,
                    "duration": 0.05514699999997674
                },
                {
                    "name": "F#6",
                    "midi": 90,
                    "time": 310.0364339999883,
                    "velocity": 0.6141732283464567,
                    "duration": 0.05514699999997674
                },
                {
                    "name": "G6",
                    "midi": 91,
                    "time": 310.25702199998824,
                    "velocity": 0.7401574803149606,
                    "duration": 0.05514699999997674
                },
                {
                    "name": "D6",
                    "midi": 86,
                    "time": 310.25702199998824,
                    "velocity": 0.7401574803149606,
                    "duration": 0.05514699999997674
                },
                {
                    "name": "B5",
                    "midi": 83,
                    "time": 310.25702199998824,
                    "velocity": 0.6220472440944882,
                    "duration": 0.05514699999997674
                },
                {
                    "name": "G5",
                    "midi": 79,
                    "time": 310.25702199998824,
                    "velocity": 0.6220472440944882,
                    "duration": 0.05514699999997674
                },
                {
                    "name": "G7",
                    "midi": 103,
                    "time": 310.4776099999882,
                    "velocity": 0.7637795275590551,
                    "duration": 0.05514699999997674
                },
                {
                    "name": "B6",
                    "midi": 95,
                    "time": 310.4776099999882,
                    "velocity": 0.6456692913385826,
                    "duration": 0.05514699999997674
                },
                {
                    "name": "G6",
                    "midi": 91,
                    "time": 310.4776099999882,
                    "velocity": 0.6456692913385826,
                    "duration": 0.05514699999997674
                },
                {
                    "name": "D7",
                    "midi": 98,
                    "time": 310.4776099999882,
                    "velocity": 0.6456692913385826,
                    "duration": 0.05514699999997674
                },
                {
                    "name": "G#6",
                    "midi": 92,
                    "time": 310.58790399998816,
                    "velocity": 0.7874015748031497,
                    "duration": 0.11029400000001033
                },
                {
                    "name": "G#5",
                    "midi": 80,
                    "time": 310.58790399998816,
                    "velocity": 0.6692913385826772,
                    "duration": 0.11029400000001033
                },
                {
                    "name": "E6",
                    "midi": 88,
                    "time": 310.58790399998816,
                    "velocity": 0.6692913385826772,
                    "duration": 0.11029400000001033
                },
                {
                    "name": "G#6",
                    "midi": 92,
                    "time": 310.8084919999882,
                    "velocity": 0.7874015748031497,
                    "duration": 0.11029400000001033
                },
                {
                    "name": "G#5",
                    "midi": 80,
                    "time": 310.8084919999882,
                    "velocity": 0.6692913385826772,
                    "duration": 0.11029400000001033
                },
                {
                    "name": "E6",
                    "midi": 88,
                    "time": 310.8084919999882,
                    "velocity": 0.6692913385826772,
                    "duration": 0.11029400000001033
                },
                {
                    "name": "G#6",
                    "midi": 92,
                    "time": 311.0290799999882,
                    "velocity": 0.84251968503937,
                    "duration": 0.22058800000002066
                },
                {
                    "name": "E6",
                    "midi": 88,
                    "time": 311.0290799999882,
                    "velocity": 0.7086614173228346,
                    "duration": 0.22058800000002066
                },
                {
                    "name": "G#5",
                    "midi": 80,
                    "time": 311.0290799999882,
                    "velocity": 0.7086614173228346,
                    "duration": 0.22058800000002066
                },
                {
                    "name": "F#6",
                    "midi": 90,
                    "time": 311.2496679999882,
                    "velocity": 0.7874015748031497,
                    "duration": 0.05514699999997674
                },
                {
                    "name": "D#6",
                    "midi": 87,
                    "time": 311.2496679999882,
                    "velocity": 0.6692913385826772,
                    "duration": 0.05514699999997674
                },
                {
                    "name": "F#5",
                    "midi": 78,
                    "time": 311.2496679999882,
                    "velocity": 0.6692913385826772,
                    "duration": 0.05514699999997674
                },
                {
                    "name": "E6",
                    "midi": 88,
                    "time": 311.3599619999882,
                    "velocity": 0.7874015748031497,
                    "duration": 0.05514699999997674
                },
                {
                    "name": "E5",
                    "midi": 76,
                    "time": 311.3599619999882,
                    "velocity": 0.6692913385826772,
                    "duration": 0.05514699999997674
                },
                {
                    "name": "C#6",
                    "midi": 85,
                    "time": 311.3599619999882,
                    "velocity": 0.6692913385826772,
                    "duration": 0.05514699999997674
                },
                {
                    "name": "D#6",
                    "midi": 87,
                    "time": 311.4702559999881,
                    "velocity": 0.6692913385826772,
                    "duration": 0.05514699999997674
                },
                {
                    "name": "D#5",
                    "midi": 75,
                    "time": 311.4702559999881,
                    "velocity": 0.6692913385826772,
                    "duration": 0.05514699999997674
                },
                {
                    "name": "B5",
                    "midi": 83,
                    "time": 311.4702559999881,
                    "velocity": 0.6692913385826772,
                    "duration": 0.05514699999997674
                },
                {
                    "name": "E6",
                    "midi": 88,
                    "time": 311.5805499999881,
                    "velocity": 0.8031496062992126,
                    "duration": 0.05514699999997674
                },
                {
                    "name": "E5",
                    "midi": 76,
                    "time": 311.5805499999881,
                    "velocity": 0.6771653543307087,
                    "duration": 0.05514699999997674
                },
                {
                    "name": "C#6",
                    "midi": 85,
                    "time": 311.5805499999881,
                    "velocity": 0.6771653543307087,
                    "duration": 0.05514699999997674
                },
                {
                    "name": "F#6",
                    "midi": 90,
                    "time": 311.69084399998803,
                    "velocity": 0.8267716535433071,
                    "duration": 0.05514699999997674
                },
                {
                    "name": "F#5",
                    "midi": 78,
                    "time": 311.69084399998803,
                    "velocity": 0.7007874015748031,
                    "duration": 0.05514699999997674
                },
                {
                    "name": "D#6",
                    "midi": 87,
                    "time": 311.69084399998803,
                    "velocity": 0.7007874015748031,
                    "duration": 0.05514699999997674
                },
                {
                    "name": "G#6",
                    "midi": 92,
                    "time": 311.911431999988,
                    "velocity": 0.84251968503937,
                    "duration": 0.22058800000002066
                },
                {
                    "name": "E6",
                    "midi": 88,
                    "time": 311.911431999988,
                    "velocity": 0.7086614173228346,
                    "duration": 0.22058800000002066
                },
                {
                    "name": "G#5",
                    "midi": 80,
                    "time": 311.911431999988,
                    "velocity": 0.7086614173228346,
                    "duration": 0.22058800000002066
                },
                {
                    "name": "F#6",
                    "midi": 90,
                    "time": 312.132019999988,
                    "velocity": 0.7874015748031497,
                    "duration": 0.05514699999997674
                },
                {
                    "name": "F#5",
                    "midi": 78,
                    "time": 312.132019999988,
                    "velocity": 0.6692913385826772,
                    "duration": 0.05514699999997674
                },
                {
                    "name": "D#6",
                    "midi": 87,
                    "time": 312.132019999988,
                    "velocity": 0.6692913385826772,
                    "duration": 0.05514699999997674
                },
                {
                    "name": "E6",
                    "midi": 88,
                    "time": 312.24231399998797,
                    "velocity": 0.7874015748031497,
                    "duration": 0.05514699999997674
                },
                {
                    "name": "E5",
                    "midi": 76,
                    "time": 312.24231399998797,
                    "velocity": 0.6692913385826772,
                    "duration": 0.05514699999997674
                },
                {
                    "name": "C#6",
                    "midi": 85,
                    "time": 312.24231399998797,
                    "velocity": 0.6692913385826772,
                    "duration": 0.05514699999997674
                },
                {
                    "name": "D#6",
                    "midi": 87,
                    "time": 312.3526079999879,
                    "velocity": 0.8188976377952756,
                    "duration": 0.05514699999997674
                },
                {
                    "name": "D#5",
                    "midi": 75,
                    "time": 312.3526079999879,
                    "velocity": 0.6929133858267716,
                    "duration": 0.05514699999997674
                },
                {
                    "name": "B5",
                    "midi": 83,
                    "time": 312.3526079999879,
                    "velocity": 0.6929133858267716,
                    "duration": 0.05514699999997674
                },
                {
                    "name": "E6",
                    "midi": 88,
                    "time": 312.4629019999879,
                    "velocity": 0.7716535433070866,
                    "duration": 0.05514699999997674
                },
                {
                    "name": "E5",
                    "midi": 76,
                    "time": 312.4629019999879,
                    "velocity": 0.6535433070866141,
                    "duration": 0.05514699999997674
                },
                {
                    "name": "C#6",
                    "midi": 85,
                    "time": 312.4629019999879,
                    "velocity": 0.6535433070866141,
                    "duration": 0.05514699999997674
                },
                {
                    "name": "F#6",
                    "midi": 90,
                    "time": 312.57319599998783,
                    "velocity": 0.7874015748031497,
                    "duration": 0.05514699999997674
                },
                {
                    "name": "F#5",
                    "midi": 78,
                    "time": 312.57319599998783,
                    "velocity": 0.6692913385826772,
                    "duration": 0.05514699999997674
                },
                {
                    "name": "D#6",
                    "midi": 87,
                    "time": 312.57319599998783,
                    "velocity": 0.6692913385826772,
                    "duration": 0.05514699999997674
                },
                {
                    "name": "G#6",
                    "midi": 92,
                    "time": 312.7937839999878,
                    "velocity": 0.8267716535433071,
                    "duration": 0.22058800000002066
                },
                {
                    "name": "E6",
                    "midi": 88,
                    "time": 312.7937839999878,
                    "velocity": 0.7007874015748031,
                    "duration": 0.22058800000002066
                },
                {
                    "name": "G#5",
                    "midi": 80,
                    "time": 312.7937839999878,
                    "velocity": 0.7007874015748031,
                    "duration": 0.22058800000002066
                },
                {
                    "name": "F#6",
                    "midi": 90,
                    "time": 313.0143719999878,
                    "velocity": 0.7952755905511811,
                    "duration": 0.05514699999997674
                },
                {
                    "name": "F#5",
                    "midi": 78,
                    "time": 313.0143719999878,
                    "velocity": 0.6692913385826772,
                    "duration": 0.05514699999997674
                },
                {
                    "name": "D#6",
                    "midi": 87,
                    "time": 313.0143719999878,
                    "velocity": 0.6692913385826772,
                    "duration": 0.05514699999997674
                },
                {
                    "name": "E6",
                    "midi": 88,
                    "time": 313.12466599998777,
                    "velocity": 0.7952755905511811,
                    "duration": 0.05514699999997674
                },
                {
                    "name": "E5",
                    "midi": 76,
                    "time": 313.12466599998777,
                    "velocity": 0.6692913385826772,
                    "duration": 0.05514699999997674
                },
                {
                    "name": "C#6",
                    "midi": 85,
                    "time": 313.12466599998777,
                    "velocity": 0.6692913385826772,
                    "duration": 0.05514699999997674
                },
                {
                    "name": "D#6",
                    "midi": 87,
                    "time": 313.2349599999877,
                    "velocity": 0.7795275590551181,
                    "duration": 0.05514699999997674
                },
                {
                    "name": "D#5",
                    "midi": 75,
                    "time": 313.2349599999877,
                    "velocity": 0.6614173228346457,
                    "duration": 0.05514699999997674
                },
                {
                    "name": "B5",
                    "midi": 83,
                    "time": 313.2349599999877,
                    "velocity": 0.6614173228346457,
                    "duration": 0.05514699999997674
                },
                {
                    "name": "E6",
                    "midi": 88,
                    "time": 313.3452539999877,
                    "velocity": 0.7952755905511811,
                    "duration": 0.05514699999997674
                },
                {
                    "name": "E5",
                    "midi": 76,
                    "time": 313.3452539999877,
                    "velocity": 0.6692913385826772,
                    "duration": 0.05514699999997674
                },
                {
                    "name": "C#6",
                    "midi": 85,
                    "time": 313.3452539999877,
                    "velocity": 0.6692913385826772,
                    "duration": 0.05514699999997674
                },
                {
                    "name": "F#6",
                    "midi": 90,
                    "time": 313.45554799998763,
                    "velocity": 0.8188976377952756,
                    "duration": 0.05514699999997674
                },
                {
                    "name": "F#5",
                    "midi": 78,
                    "time": 313.45554799998763,
                    "velocity": 0.6929133858267716,
                    "duration": 0.05514699999997674
                },
                {
                    "name": "D#6",
                    "midi": 87,
                    "time": 313.45554799998763,
                    "velocity": 0.6929133858267716,
                    "duration": 0.05514699999997674
                },
                {
                    "name": "G#6",
                    "midi": 92,
                    "time": 313.5658419999876,
                    "velocity": 0.84251968503937,
                    "duration": 0.05514699999997674
                },
                {
                    "name": "G#5",
                    "midi": 80,
                    "time": 313.5658419999876,
                    "velocity": 0.7086614173228346,
                    "duration": 0.05514699999997674
                },
                {
                    "name": "F#6",
                    "midi": 90,
                    "time": 313.67613599998754,
                    "velocity": 0.84251968503937,
                    "duration": 0.05514699999997674
                },
                {
                    "name": "C#6",
                    "midi": 85,
                    "time": 313.67613599998754,
                    "velocity": 0.7086614173228346,
                    "duration": 0.05514699999997674
                },
                {
                    "name": "F#5",
                    "midi": 78,
                    "time": 313.67613599998754,
                    "velocity": 0.7086614173228346,
                    "duration": 0.05514699999997674
                },
                {
                    "name": "E6",
                    "midi": 88,
                    "time": 313.7864299999875,
                    "velocity": 0.8346456692913385,
                    "duration": 0.05514699999997674
                },
                {
                    "name": "E5",
                    "midi": 76,
                    "time": 313.7864299999875,
                    "velocity": 0.7086614173228346,
                    "duration": 0.05514699999997674
                },
                {
                    "name": "D#6",
                    "midi": 87,
                    "time": 313.89672399998744,
                    "velocity": 0.8188976377952756,
                    "duration": 0.05514699999997674
                },
                {
                    "name": "D#5",
                    "midi": 75,
                    "time": 313.89672399998744,
                    "velocity": 0.6929133858267716,
                    "duration": 0.05514699999997674
                },
                {
                    "name": "C#6",
                    "midi": 85,
                    "time": 314.0070179999874,
                    "velocity": 0.8031496062992126,
                    "duration": 0.05514699999997674
                },
                {
                    "name": "C#5",
                    "midi": 73,
                    "time": 314.0070179999874,
                    "velocity": 0.6771653543307087,
                    "duration": 0.05514699999997674
                },
                {
                    "name": "F6",
                    "midi": 89,
                    "time": 314.11731199998735,
                    "velocity": 0.8110236220472441,
                    "duration": 0.3860290000000077
                },
                {
                    "name": "F5",
                    "midi": 77,
                    "time": 314.11731199998735,
                    "velocity": 0.6850393700787402,
                    "duration": 0.3860290000000077
                },
                {
                    "name": "G#5",
                    "midi": 80,
                    "time": 314.11731199998735,
                    "velocity": 0.6850393700787402,
                    "duration": 0.3860290000000077
                },
                {
                    "name": "C#6",
                    "midi": 85,
                    "time": 314.11731199998735,
                    "velocity": 0.6850393700787402,
                    "duration": 0.3860290000000077
                },
                {
                    "name": "D#6",
                    "midi": 87,
                    "time": 314.50334099998736,
                    "velocity": 0.7952755905511811,
                    "duration": 0.05514699999997674
                },
                {
                    "name": "D#5",
                    "midi": 75,
                    "time": 314.50334099998736,
                    "velocity": 0.6692913385826772,
                    "duration": 0.05514699999997674
                },
                {
                    "name": "C6",
                    "midi": 84,
                    "time": 314.55848799998734,
                    "velocity": 0.7244094488188977,
                    "duration": 0.33088199999997414
                },
                {
                    "name": "F#6",
                    "midi": 90,
                    "time": 314.55848799998734,
                    "velocity": 0.8582677165354331,
                    "duration": 0.33088199999997414
                },
                {
                    "name": "F#5",
                    "midi": 78,
                    "time": 314.55848799998734,
                    "velocity": 0.7244094488188977,
                    "duration": 0.33088199999997414
                },
                {
                    "name": "C6",
                    "midi": 84,
                    "time": 314.8893699999873,
                    "velocity": 0.7952755905511811,
                    "duration": 0.11029400000001033
                },
                {
                    "name": "C5",
                    "midi": 72,
                    "time": 314.8893699999873,
                    "velocity": 0.6692913385826772,
                    "duration": 0.11029400000001033
                },
                {
                    "name": "D#6",
                    "midi": 87,
                    "time": 314.9996639999873,
                    "velocity": 0.84251968503937,
                    "duration": 0.05514699999997674
                },
                {
                    "name": "D#5",
                    "midi": 75,
                    "time": 314.9996639999873,
                    "velocity": 0.7086614173228346,
                    "duration": 0.05514699999997674
                },
                {
                    "name": "C#6",
                    "midi": 85,
                    "time": 315.2202519999873,
                    "velocity": 0.7716535433070866,
                    "duration": 0.44117599999998447
                },
                {
                    "name": "C#5",
                    "midi": 73,
                    "time": 315.2202519999873,
                    "velocity": 0.6535433070866141,
                    "duration": 0.44117599999998447
                },
                {
                    "name": "F5",
                    "midi": 77,
                    "time": 315.2202519999873,
                    "velocity": 0.6535433070866141,
                    "duration": 0.44117599999998447
                },
                {
                    "name": "G#5",
                    "midi": 80,
                    "time": 315.2202519999873,
                    "velocity": 0.6535433070866141,
                    "duration": 0.44117599999998447
                },
                {
                    "name": "C#6",
                    "midi": 85,
                    "time": 315.66142799998727,
                    "velocity": 0.7716535433070866,
                    "duration": 0.11029400000001033
                },
                {
                    "name": "C#5",
                    "midi": 73,
                    "time": 315.66142799998727,
                    "velocity": 0.6535433070866141,
                    "duration": 0.11029400000001033
                },
                {
                    "name": "F5",
                    "midi": 77,
                    "time": 315.66142799998727,
                    "velocity": 0.6535433070866141,
                    "duration": 0.11029400000001033
                },
                {
                    "name": "A#6",
                    "midi": 94,
                    "time": 315.8820159999873,
                    "velocity": 0.8503937007874016,
                    "duration": 0.11029400000001033
                },
                {
                    "name": "A#5",
                    "midi": 82,
                    "time": 315.8820159999873,
                    "velocity": 0.7165354330708661,
                    "duration": 0.11029400000001033
                },
                {
                    "name": "C#6",
                    "midi": 85,
                    "time": 315.8820159999873,
                    "velocity": 0.7165354330708661,
                    "duration": 0.11029400000001033
                },
                {
                    "name": "A#6",
                    "midi": 94,
                    "time": 316.1026039999873,
                    "velocity": 0.8267716535433071,
                    "duration": 0.11029400000001033
                },
                {
                    "name": "A#5",
                    "midi": 82,
                    "time": 316.1026039999873,
                    "velocity": 0.7007874015748031,
                    "duration": 0.11029400000001033
                },
                {
                    "name": "C#6",
                    "midi": 85,
                    "time": 316.1026039999873,
                    "velocity": 0.7007874015748031,
                    "duration": 0.11029400000001033
                },
                {
                    "name": "G#6",
                    "midi": 92,
                    "time": 316.32319199998733,
                    "velocity": 0.8503937007874016,
                    "duration": 0.44117599999998447
                },
                {
                    "name": "G#5",
                    "midi": 80,
                    "time": 316.32319199998733,
                    "velocity": 0.7165354330708661,
                    "duration": 0.44117599999998447
                },
                {
                    "name": "B5",
                    "midi": 83,
                    "time": 316.32319199998733,
                    "velocity": 0.7165354330708661,
                    "duration": 0.44117599999998447
                },
                {
                    "name": "D6",
                    "midi": 86,
                    "time": 316.32319199998733,
                    "velocity": 0.7165354330708661,
                    "duration": 0.44117599999998447
                },
                {
                    "name": "F#6",
                    "midi": 90,
                    "time": 316.7643679999873,
                    "velocity": 0.7874015748031497,
                    "duration": 0.11029400000001033
                },
                {
                    "name": "F#5",
                    "midi": 78,
                    "time": 316.7643679999873,
                    "velocity": 0.6692913385826772,
                    "duration": 0.11029400000001033
                },
                {
                    "name": "A#5",
                    "midi": 82,
                    "time": 316.7643679999873,
                    "velocity": 0.6692913385826772,
                    "duration": 0.11029400000001033
                },
                {
                    "name": "F#6",
                    "midi": 90,
                    "time": 316.98495599998733,
                    "velocity": 0.8267716535433071,
                    "duration": 0.44117599999998447
                },
                {
                    "name": "F#5",
                    "midi": 78,
                    "time": 316.98495599998733,
                    "velocity": 0.7007874015748031,
                    "duration": 0.44117599999998447
                },
                {
                    "name": "A#5",
                    "midi": 82,
                    "time": 316.98495599998733,
                    "velocity": 0.7007874015748031,
                    "duration": 0.44117599999998447
                },
                {
                    "name": "F#6",
                    "midi": 90,
                    "time": 317.4261319999873,
                    "velocity": 0.8031496062992126,
                    "duration": 0.22058800000002066
                },
                {
                    "name": "F#5",
                    "midi": 78,
                    "time": 317.4261319999873,
                    "velocity": 0.6771653543307087,
                    "duration": 0.22058800000002066
                },
                {
                    "name": "A#5",
                    "midi": 82,
                    "time": 317.4261319999873,
                    "velocity": 0.6771653543307087,
                    "duration": 0.22058800000002066
                },
                {
                    "name": "C#7",
                    "midi": 97,
                    "time": 317.64671999998734,
                    "velocity": 0.8740157480314961,
                    "duration": 0.22058800000002066
                },
                {
                    "name": "C#6",
                    "midi": 85,
                    "time": 317.64671999998734,
                    "velocity": 0.7401574803149606,
                    "duration": 0.22058800000002066
                },
                {
                    "name": "A#6",
                    "midi": 94,
                    "time": 317.64671999998734,
                    "velocity": 0.7401574803149606,
                    "duration": 0.22058800000002066
                },
                {
                    "name": "C#7",
                    "midi": 97,
                    "time": 317.86730799998736,
                    "velocity": 0.8188976377952756,
                    "duration": 0.22058800000002066
                },
                {
                    "name": "C#6",
                    "midi": 85,
                    "time": 317.86730799998736,
                    "velocity": 0.6929133858267716,
                    "duration": 0.22058800000002066
                },
                {
                    "name": "A#6",
                    "midi": 94,
                    "time": 317.86730799998736,
                    "velocity": 0.6929133858267716,
                    "duration": 0.22058800000002066
                },
                {
                    "name": "C7",
                    "midi": 96,
                    "time": 318.0878959999874,
                    "velocity": 0.8661417322834646,
                    "duration": 0.22058800000002066
                },
                {
                    "name": "C6",
                    "midi": 84,
                    "time": 318.0878959999874,
                    "velocity": 0.7322834645669292,
                    "duration": 0.22058800000002066
                },
                {
                    "name": "G#6",
                    "midi": 92,
                    "time": 318.0878959999874,
                    "velocity": 0.7322834645669292,
                    "duration": 0.22058800000002066
                },
                {
                    "name": "A#6",
                    "midi": 94,
                    "time": 318.3084839999874,
                    "velocity": 0.8031496062992126,
                    "duration": 0.22058800000002066
                },
                {
                    "name": "A#5",
                    "midi": 82,
                    "time": 318.3084839999874,
                    "velocity": 0.6771653543307087,
                    "duration": 0.22058800000002066
                },
                {
                    "name": "F#6",
                    "midi": 90,
                    "time": 318.3084839999874,
                    "velocity": 0.6771653543307087,
                    "duration": 0.22058800000002066
                },
                {
                    "name": "G#6",
                    "midi": 92,
                    "time": 318.5290719999874,
                    "velocity": 0.8110236220472441,
                    "duration": 0.11029400000001033
                },
                {
                    "name": "G#5",
                    "midi": 80,
                    "time": 318.5290719999874,
                    "velocity": 0.6850393700787402,
                    "duration": 0.11029400000001033
                },
                {
                    "name": "F6",
                    "midi": 89,
                    "time": 318.5290719999874,
                    "velocity": 0.6850393700787402,
                    "duration": 0.11029400000001033
                },
                {
                    "name": "G#6",
                    "midi": 92,
                    "time": 318.74965999998744,
                    "velocity": 0.8346456692913385,
                    "duration": 0.44117599999998447
                },
                {
                    "name": "G#5",
                    "midi": 80,
                    "time": 318.74965999998744,
                    "velocity": 0.7086614173228346,
                    "duration": 0.44117599999998447
                },
                {
                    "name": "C#6",
                    "midi": 85,
                    "time": 318.74965999998744,
                    "velocity": 0.7086614173228346,
                    "duration": 0.44117599999998447
                },
                {
                    "name": "F6",
                    "midi": 89,
                    "time": 318.74965999998744,
                    "velocity": 0.7086614173228346,
                    "duration": 0.44117599999998447
                },
                {
                    "name": "A6",
                    "midi": 93,
                    "time": 319.30112999998744,
                    "velocity": 0.8031496062992126,
                    "duration": 0.11029400000001033
                },
                {
                    "name": "A5",
                    "midi": 81,
                    "time": 319.30112999998744,
                    "velocity": 0.6771653543307087,
                    "duration": 0.11029400000001033
                },
                {
                    "name": "A#6",
                    "midi": 94,
                    "time": 319.41142399998745,
                    "velocity": 0.8582677165354331,
                    "duration": 0.11029400000001033
                },
                {
                    "name": "A#5",
                    "midi": 82,
                    "time": 319.41142399998745,
                    "velocity": 0.7244094488188977,
                    "duration": 0.11029400000001033
                },
                {
                    "name": "F6",
                    "midi": 89,
                    "time": 319.7423059999875,
                    "velocity": 0.7559055118110236,
                    "duration": 0.11029400000001033
                },
                {
                    "name": "F5",
                    "midi": 77,
                    "time": 319.7423059999875,
                    "velocity": 0.6377952755905512,
                    "duration": 0.11029400000001033
                },
                {
                    "name": "F#6",
                    "midi": 90,
                    "time": 319.8525999999875,
                    "velocity": 0.8031496062992126,
                    "duration": 0.11029400000001033
                },
                {
                    "name": "F#5",
                    "midi": 78,
                    "time": 319.8525999999875,
                    "velocity": 0.6771653543307087,
                    "duration": 0.11029400000001033
                },
                {
                    "name": "D6",
                    "midi": 86,
                    "time": 319.9628939999875,
                    "velocity": 0.7322834645669292,
                    "duration": 0.11029400000001033
                },
                {
                    "name": "D5",
                    "midi": 74,
                    "time": 319.9628939999875,
                    "velocity": 0.6220472440944882,
                    "duration": 0.11029400000001033
                },
                {
                    "name": "D#6",
                    "midi": 87,
                    "time": 320.0731879999875,
                    "velocity": 0.7874015748031497,
                    "duration": 0.11029400000001033
                },
                {
                    "name": "D#5",
                    "midi": 75,
                    "time": 320.0731879999875,
                    "velocity": 0.6692913385826772,
                    "duration": 0.11029400000001033
                },
                {
                    "name": "B5",
                    "midi": 83,
                    "time": 320.1834819999875,
                    "velocity": 0.7322834645669292,
                    "duration": 0.11029400000001033
                },
                {
                    "name": "B4",
                    "midi": 71,
                    "time": 320.1834819999875,
                    "velocity": 0.6220472440944882,
                    "duration": 0.11029400000001033
                },
                {
                    "name": "C6",
                    "midi": 84,
                    "time": 320.29377599998753,
                    "velocity": 0.7952755905511811,
                    "duration": 0.11029400000001033
                },
                {
                    "name": "C5",
                    "midi": 72,
                    "time": 320.29377599998753,
                    "velocity": 0.6692913385826772,
                    "duration": 0.11029400000001033
                },
                {
                    "name": "A5",
                    "midi": 81,
                    "time": 320.40406999998754,
                    "velocity": 0.7165354330708661,
                    "duration": 0.11029400000001033
                },
                {
                    "name": "A4",
                    "midi": 69,
                    "time": 320.40406999998754,
                    "velocity": 0.6062992125984252,
                    "duration": 0.11029400000001033
                },
                {
                    "name": "A#5",
                    "midi": 82,
                    "time": 320.51436399998755,
                    "velocity": 0.7637795275590551,
                    "duration": 0.11029400000001033
                },
                {
                    "name": "A#4",
                    "midi": 70,
                    "time": 320.51436399998755,
                    "velocity": 0.6456692913385826,
                    "duration": 0.11029400000001033
                },
                {
                    "name": "F5",
                    "midi": 77,
                    "time": 320.62465799998756,
                    "velocity": 0.7086614173228346,
                    "duration": 0.11029400000001033
                },
                {
                    "name": "F4",
                    "midi": 65,
                    "time": 320.62465799998756,
                    "velocity": 0.5984251968503937,
                    "duration": 0.11029400000001033
                },
                {
                    "name": "F#5",
                    "midi": 78,
                    "time": 320.7349519999876,
                    "velocity": 0.7716535433070866,
                    "duration": 0.11029400000001033
                },
                {
                    "name": "F#4",
                    "midi": 66,
                    "time": 320.7349519999876,
                    "velocity": 0.6535433070866141,
                    "duration": 0.11029400000001033
                },
                {
                    "name": "D5",
                    "midi": 74,
                    "time": 320.8452459999876,
                    "velocity": 0.6929133858267716,
                    "duration": 0.11029400000001033
                },
                {
                    "name": "D4",
                    "midi": 62,
                    "time": 320.8452459999876,
                    "velocity": 0.5826771653543307,
                    "duration": 0.11029400000001033
                },
                {
                    "name": "D#5",
                    "midi": 75,
                    "time": 320.9555399999876,
                    "velocity": 0.7559055118110236,
                    "duration": 0.11029400000001033
                },
                {
                    "name": "D#4",
                    "midi": 63,
                    "time": 320.9555399999876,
                    "velocity": 0.6377952755905512,
                    "duration": 0.11029400000001033
                },
                {
                    "name": "B4",
                    "midi": 71,
                    "time": 321.0658339999876,
                    "velocity": 0.7165354330708661,
                    "duration": 0.11029400000001033
                },
                {
                    "name": "B3",
                    "midi": 59,
                    "time": 321.0658339999876,
                    "velocity": 0.5984251968503937,
                    "duration": 0.11029400000001033
                },
                {
                    "name": "C5",
                    "midi": 72,
                    "time": 321.1761279999876,
                    "velocity": 0.7559055118110236,
                    "duration": 0.11029400000001033
                },
                {
                    "name": "C4",
                    "midi": 60,
                    "time": 321.1761279999876,
                    "velocity": 0.6377952755905512,
                    "duration": 0.11029400000001033
                },
                {
                    "name": "A4",
                    "midi": 69,
                    "time": 321.2864219999876,
                    "velocity": 0.7322834645669292,
                    "duration": 0.11029400000001033
                },
                {
                    "name": "A3",
                    "midi": 57,
                    "time": 321.2864219999876,
                    "velocity": 0.6220472440944882,
                    "duration": 0.11029400000001033
                },
                {
                    "name": "A#4",
                    "midi": 70,
                    "time": 321.39671599998763,
                    "velocity": 0.7874015748031497,
                    "duration": 0.11029400000001033
                },
                {
                    "name": "A#3",
                    "midi": 58,
                    "time": 321.39671599998763,
                    "velocity": 0.6614173228346457,
                    "duration": 0.11029400000001033
                },
                {
                    "name": "F4",
                    "midi": 65,
                    "time": 321.50700999998764,
                    "velocity": 0.7480314960629921,
                    "duration": 0.11029400000001033
                },
                {
                    "name": "F3",
                    "midi": 53,
                    "time": 321.50700999998764,
                    "velocity": 0.6299212598425197,
                    "duration": 0.11029400000001033
                },
                {
                    "name": "F#4",
                    "midi": 66,
                    "time": 321.61730399998766,
                    "velocity": 0.8110236220472441,
                    "duration": 0.11029400000001033
                },
                {
                    "name": "F#3",
                    "midi": 54,
                    "time": 321.61730399998766,
                    "velocity": 0.6850393700787402,
                    "duration": 0.11029400000001033
                },
                {
                    "name": "D4",
                    "midi": 62,
                    "time": 321.72759799998767,
                    "velocity": 0.7795275590551181,
                    "duration": 0.11029400000001033
                },
                {
                    "name": "D3",
                    "midi": 50,
                    "time": 321.72759799998767,
                    "velocity": 0.6614173228346457,
                    "duration": 0.11029400000001033
                },
                {
                    "name": "D#4",
                    "midi": 63,
                    "time": 321.8378919999877,
                    "velocity": 0.84251968503937,
                    "duration": 0.11029400000001033
                },
                {
                    "name": "D#3",
                    "midi": 51,
                    "time": 321.8378919999877,
                    "velocity": 0.7086614173228346,
                    "duration": 0.11029400000001033
                },
                {
                    "name": "C4",
                    "midi": 60,
                    "time": 321.9481859999877,
                    "velocity": 0.8031496062992126,
                    "duration": 0.11029400000001033
                },
                {
                    "name": "C3",
                    "midi": 48,
                    "time": 321.9481859999877,
                    "velocity": 0.6771653543307087,
                    "duration": 0.11029400000001033
                },
                {
                    "name": "F#3",
                    "midi": 54,
                    "time": 321.9481859999877,
                    "velocity": 0.6771653543307087,
                    "duration": 0.11029400000001033
                },
                {
                    "name": "C#4",
                    "midi": 61,
                    "time": 322.0584799999877,
                    "velocity": 0.8346456692913385,
                    "duration": 0.3860289999999509
                },
                {
                    "name": "F#3",
                    "midi": 54,
                    "time": 322.0584799999877,
                    "velocity": 0.7086614173228346,
                    "duration": 0.33088199999997414
                },
                {
                    "name": "C#3",
                    "midi": 49,
                    "time": 322.0584799999877,
                    "velocity": 0.7086614173228346,
                    "duration": 0.3860289999999509
                },
                {
                    "name": "F#4",
                    "midi": 66,
                    "time": 322.46289133332095,
                    "velocity": 0.7401574803149606,
                    "duration": 0.03676466666667011
                },
                {
                    "name": "F#3",
                    "midi": 54,
                    "time": 322.46289133332095,
                    "velocity": 0.6220472440944882,
                    "duration": 0.03676466666667011
                },
                {
                    "name": "F#4",
                    "midi": 66,
                    "time": 322.4996559999876,
                    "velocity": 0.8188976377952756,
                    "duration": 0.3860290000000077
                },
                {
                    "name": "F#3",
                    "midi": 54,
                    "time": 322.4996559999876,
                    "velocity": 0.6929133858267716,
                    "duration": 0.3860290000000077
                },
                {
                    "name": "E4",
                    "midi": 64,
                    "time": 322.90406733332094,
                    "velocity": 0.7007874015748031,
                    "duration": 0.03676466666667011
                },
                {
                    "name": "E3",
                    "midi": 52,
                    "time": 322.90406733332094,
                    "velocity": 0.5905511811023622,
                    "duration": 0.03676466666667011
                },
                {
                    "name": "E4",
                    "midi": 64,
                    "time": 322.9408319999876,
                    "velocity": 0.7716535433070866,
                    "duration": 0.16544099999998707
                },
                {
                    "name": "A3",
                    "midi": 57,
                    "time": 322.9408319999876,
                    "velocity": 0.6535433070866141,
                    "duration": 0.16544099999998707
                },
                {
                    "name": "E3",
                    "midi": 52,
                    "time": 322.9408319999876,
                    "velocity": 0.6535433070866141,
                    "duration": 0.16544099999998707
                },
                {
                    "name": "D4",
                    "midi": 62,
                    "time": 323.1246553333209,
                    "velocity": 0.7244094488188977,
                    "duration": 0.03676466666667011
                },
                {
                    "name": "D3",
                    "midi": 50,
                    "time": 323.1246553333209,
                    "velocity": 0.6141732283464567,
                    "duration": 0.03676466666667011
                },
                {
                    "name": "A3",
                    "midi": 57,
                    "time": 323.1614199999876,
                    "velocity": 0.6614173228346457,
                    "duration": 0.16544099999998707
                },
                {
                    "name": "D4",
                    "midi": 62,
                    "time": 323.1614199999876,
                    "velocity": 0.7795275590551181,
                    "duration": 0.16544099999998707
                },
                {
                    "name": "D3",
                    "midi": 50,
                    "time": 323.1614199999876,
                    "velocity": 0.6614173228346457,
                    "duration": 0.16544099999998707
                },
                {
                    "name": "C#4",
                    "midi": 61,
                    "time": 323.34524333332087,
                    "velocity": 0.6850393700787402,
                    "duration": 0.03676466666667011
                },
                {
                    "name": "C#3",
                    "midi": 49,
                    "time": 323.34524333332087,
                    "velocity": 0.5748031496062992,
                    "duration": 0.03676466666667011
                },
                {
                    "name": "A3",
                    "midi": 57,
                    "time": 323.38200799998754,
                    "velocity": 0.7637795275590551,
                    "duration": 0.16544099999998707
                },
                {
                    "name": "C#4",
                    "midi": 61,
                    "time": 323.38200799998754,
                    "velocity": 0.7637795275590551,
                    "duration": 0.16544099999998707
                },
                {
                    "name": "C#3",
                    "midi": 49,
                    "time": 323.38200799998754,
                    "velocity": 0.6456692913385826,
                    "duration": 0.16544099999998707
                },
                {
                    "name": "C4",
                    "midi": 60,
                    "time": 323.56583133332083,
                    "velocity": 0.7086614173228346,
                    "duration": 0.03676466666667011
                },
                {
                    "name": "C3",
                    "midi": 48,
                    "time": 323.56583133332083,
                    "velocity": 0.5984251968503937,
                    "duration": 0.03676466666667011
                },
                {
                    "name": "C4",
                    "midi": 60,
                    "time": 323.6025959999875,
                    "velocity": 0.7637795275590551,
                    "duration": 0.16544099999998707
                },
                {
                    "name": "A3",
                    "midi": 57,
                    "time": 323.6025959999875,
                    "velocity": 0.6456692913385826,
                    "duration": 0.16544099999998707
                },
                {
                    "name": "C3",
                    "midi": 48,
                    "time": 323.6025959999875,
                    "velocity": 0.6456692913385826,
                    "duration": 0.16544099999998707
                },
                {
                    "name": "C#4",
                    "midi": 61,
                    "time": 323.7864193333208,
                    "velocity": 0.7086614173228346,
                    "duration": 0.03676466666667011
                },
                {
                    "name": "C#3",
                    "midi": 49,
                    "time": 323.7864193333208,
                    "velocity": 0.5984251968503937,
                    "duration": 0.03676466666667011
                },
                {
                    "name": "C#4",
                    "midi": 61,
                    "time": 323.82318399998746,
                    "velocity": 0.7637795275590551,
                    "duration": 0.22058800000002066
                },
                {
                    "name": "C#3",
                    "midi": 49,
                    "time": 323.82318399998746,
                    "velocity": 0.6456692913385826,
                    "duration": 0.22058800000002066
                },
                {
                    "name": "A5",
                    "midi": 81,
                    "time": 324.2643599999875,
                    "velocity": 0.7559055118110236,
                    "duration": 0.22058800000002066
                },
                {
                    "name": "F#5",
                    "midi": 78,
                    "time": 324.2643599999875,
                    "velocity": 0.6377952755905512,
                    "duration": 0.22058800000002066
                },
                {
                    "name": "C#5",
                    "midi": 73,
                    "time": 324.2643599999875,
                    "velocity": 0.6377952755905512,
                    "duration": 0.22058800000002066
                },
                {
                    "name": "A4",
                    "midi": 69,
                    "time": 324.2643599999875,
                    "velocity": 0.6377952755905512,
                    "duration": 0.22058800000002066
                },
                {
                    "name": "C#6",
                    "midi": 85,
                    "time": 324.70553599998755,
                    "velocity": 0.7559055118110236,
                    "duration": 0.22058800000002066
                },
                {
                    "name": "C#5",
                    "midi": 73,
                    "time": 324.70553599998755,
                    "velocity": 0.6377952755905512,
                    "duration": 0.22058800000002066
                },
                {
                    "name": "F5",
                    "midi": 77,
                    "time": 324.70553599998755,
                    "velocity": 0.6377952755905512,
                    "duration": 0.22058800000002066
                },
                {
                    "name": "G#5",
                    "midi": 80,
                    "time": 324.70553599998755,
                    "velocity": 0.6377952755905512,
                    "duration": 0.22058800000002066
                },
                {
                    "name": "D#6",
                    "midi": 87,
                    "time": 324.92612399998757,
                    "velocity": 0.7559055118110236,
                    "duration": 0.22058800000002066
                },
                {
                    "name": "D#5",
                    "midi": 75,
                    "time": 324.92612399998757,
                    "velocity": 0.6377952755905512,
                    "duration": 0.22058800000002066
                },
                {
                    "name": "G#5",
                    "midi": 80,
                    "time": 324.92612399998757,
                    "velocity": 0.6377952755905512,
                    "duration": 0.22058800000002066
                },
                {
                    "name": "C6",
                    "midi": 84,
                    "time": 324.92612399998757,
                    "velocity": 0.6377952755905512,
                    "duration": 0.22058800000002066
                },
                {
                    "name": "F6",
                    "midi": 89,
                    "time": 325.1467119999876,
                    "velocity": 0.7559055118110236,
                    "duration": 0.22058800000002066
                },
                {
                    "name": "F5",
                    "midi": 77,
                    "time": 325.1467119999876,
                    "velocity": 0.6377952755905512,
                    "duration": 0.22058800000002066
                },
                {
                    "name": "G#5",
                    "midi": 80,
                    "time": 325.1467119999876,
                    "velocity": 0.6377952755905512,
                    "duration": 0.22058800000002066
                },
                {
                    "name": "C#6",
                    "midi": 85,
                    "time": 325.1467119999876,
                    "velocity": 0.6377952755905512,
                    "duration": 0.22058800000002066
                },
                {
                    "name": "G#6",
                    "midi": 92,
                    "time": 325.3672999999876,
                    "velocity": 0.7559055118110236,
                    "duration": 0.22058800000002066
                },
                {
                    "name": "G#5",
                    "midi": 80,
                    "time": 325.3672999999876,
                    "velocity": 0.6377952755905512,
                    "duration": 0.22058800000002066
                },
                {
                    "name": "C6",
                    "midi": 84,
                    "time": 325.3672999999876,
                    "velocity": 0.6377952755905512,
                    "duration": 0.22058800000002066
                },
                {
                    "name": "D#6",
                    "midi": 87,
                    "time": 325.3672999999876,
                    "velocity": 0.6377952755905512,
                    "duration": 0.22058800000002066
                },
                {
                    "name": "C#7",
                    "midi": 97,
                    "time": 325.58788799998763,
                    "velocity": 0.7559055118110236,
                    "duration": 0.22058800000002066
                },
                {
                    "name": "C#6",
                    "midi": 85,
                    "time": 325.58788799998763,
                    "velocity": 0.6377952755905512,
                    "duration": 0.22058800000002066
                },
                {
                    "name": "F6",
                    "midi": 89,
                    "time": 325.58788799998763,
                    "velocity": 0.6377952755905512,
                    "duration": 0.22058800000002066
                },
                {
                    "name": "G#6",
                    "midi": 92,
                    "time": 325.58788799998763,
                    "velocity": 0.6377952755905512,
                    "duration": 0.22058800000002066
                },
                {
                    "name": "C#6",
                    "midi": 85,
                    "time": 326.47023999998765,
                    "velocity": 0.7874015748031497,
                    "duration": 0.22058800000002066
                },
                {
                    "name": "C#5",
                    "midi": 73,
                    "time": 326.47023999998765,
                    "velocity": 0.6692913385826772,
                    "duration": 0.22058800000002066
                },
                {
                    "name": "F#5",
                    "midi": 78,
                    "time": 326.47023999998765,
                    "velocity": 0.6692913385826772,
                    "duration": 0.22058800000002066
                },
                {
                    "name": "A#5",
                    "midi": 82,
                    "time": 326.47023999998765,
                    "velocity": 0.6692913385826772,
                    "duration": 0.22058800000002066
                },
                {
                    "name": "C#4",
                    "midi": 61,
                    "time": 327.3525919999877,
                    "velocity": 0.84251968503937,
                    "duration": 0.22058800000002066
                },
                {
                    "name": "F3",
                    "midi": 53,
                    "time": 327.3525919999877,
                    "velocity": 0.7007874015748031,
                    "duration": 0.22058800000002066
                },
                {
                    "name": "G#3",
                    "midi": 56,
                    "time": 327.3525919999877,
                    "velocity": 0.7244094488188977,
                    "duration": 0.22058800000002066
                }
            ],
            "controlChanges": {
                "7": [
                    {
                        "number": 7,
                        "time": 0,
                        "value": 0.7874015748031497
                    }
                ],
                "10": [
                    {
                        "number": 10,
                        "time": 0,
                        "value": 0.5039370078740157
                    }
                ],
                "91": [
                    {
                        "number": 91,
                        "time": 3.6930107666666667,
                        "value": 1
                    }
                ]
            },
            "id": 1,
            "name": "Piano right",
            "instrumentNumber": 0,
            "instrument": "acoustic grand piano",
            "instrumentFamily": "piano",
            "channelNumber": 0,
            "isPercussion": false
        },
        {
            "startTime": 1.7279393333333333,
            "duration": 327.5731799999907,
            "length": 2957,
            "notes": [
                {
                    "name": "C#3",
                    "midi": 49,
                    "time": 1.7279393333333333,
                    "velocity": 0.5118110236220472,
                    "duration": 0.027573499999999918
                },
                {
                    "name": "C#4",
                    "midi": 61,
                    "time": 1.7279393333333333,
                    "velocity": 0.5826771653543307,
                    "duration": 0.027573499999999918
                },
                {
                    "name": "C#3",
                    "midi": 49,
                    "time": 1.7647039999999998,
                    "velocity": 0.5669291338582677,
                    "duration": 0.38602899999999996
                },
                {
                    "name": "C#4",
                    "midi": 61,
                    "time": 1.7647039999999998,
                    "velocity": 0.6456692913385826,
                    "duration": 0.38602899999999996
                },
                {
                    "name": "F#3",
                    "midi": 54,
                    "time": 2.169115333333333,
                    "velocity": 0.5669291338582677,
                    "duration": 0.027573499999999918
                },
                {
                    "name": "F#4",
                    "midi": 66,
                    "time": 2.169115333333333,
                    "velocity": 0.5669291338582677,
                    "duration": 0.027573499999999918
                },
                {
                    "name": "F#4",
                    "midi": 66,
                    "time": 2.2058799999999996,
                    "velocity": 0.6377952755905512,
                    "duration": 0.3860290000000002
                },
                {
                    "name": "F#3",
                    "midi": 54,
                    "time": 2.2058799999999996,
                    "velocity": 0.6377952755905512,
                    "duration": 0.3860290000000002
                },
                {
                    "name": "E3",
                    "midi": 52,
                    "time": 2.610291333333333,
                    "velocity": 0.5039370078740157,
                    "duration": 0.027573499999999918
                },
                {
                    "name": "E4",
                    "midi": 64,
                    "time": 2.610291333333333,
                    "velocity": 0.5748031496062992,
                    "duration": 0.027573499999999918
                },
                {
                    "name": "E3",
                    "midi": 52,
                    "time": 2.6470559999999996,
                    "velocity": 0.5511811023622047,
                    "duration": 0.16544099999999995
                },
                {
                    "name": "E4",
                    "midi": 64,
                    "time": 2.6470559999999996,
                    "velocity": 0.6299212598425197,
                    "duration": 0.16544099999999995
                },
                {
                    "name": "D#3",
                    "midi": 51,
                    "time": 2.830879333333333,
                    "velocity": 0.5118110236220472,
                    "duration": 0.027573499999999918
                },
                {
                    "name": "D#4",
                    "midi": 63,
                    "time": 2.830879333333333,
                    "velocity": 0.5118110236220472,
                    "duration": 0.027573499999999918
                },
                {
                    "name": "D#3",
                    "midi": 51,
                    "time": 2.8676439999999994,
                    "velocity": 0.5511811023622047,
                    "duration": 0.16544099999999995
                },
                {
                    "name": "D#4",
                    "midi": 63,
                    "time": 2.8676439999999994,
                    "velocity": 0.6299212598425197,
                    "duration": 0.16544099999999995
                },
                {
                    "name": "C#3",
                    "midi": 49,
                    "time": 3.0514673333333326,
                    "velocity": 0.5118110236220472,
                    "duration": 0.027573499999999918
                },
                {
                    "name": "C#4",
                    "midi": 61,
                    "time": 3.0514673333333326,
                    "velocity": 0.5826771653543307,
                    "duration": 0.027573499999999918
                },
                {
                    "name": "C#3",
                    "midi": 49,
                    "time": 3.088231999999999,
                    "velocity": 0.5590551181102362,
                    "duration": 0.16544099999999995
                },
                {
                    "name": "C#4",
                    "midi": 61,
                    "time": 3.088231999999999,
                    "velocity": 0.6377952755905512,
                    "duration": 0.16544099999999995
                },
                {
                    "name": "C3",
                    "midi": 48,
                    "time": 3.2720553333333324,
                    "velocity": 0.5039370078740157,
                    "duration": 0.027573499999999918
                },
                {
                    "name": "C4",
                    "midi": 60,
                    "time": 3.2720553333333324,
                    "velocity": 0.5748031496062992,
                    "duration": 0.027573499999999918
                },
                {
                    "name": "C3",
                    "midi": 48,
                    "time": 3.308819999999999,
                    "velocity": 0.5511811023622047,
                    "duration": 0.16544099999999995
                },
                {
                    "name": "C4",
                    "midi": 60,
                    "time": 3.308819999999999,
                    "velocity": 0.6299212598425197,
                    "duration": 0.16544099999999995
                },
                {
                    "name": "C#3",
                    "midi": 49,
                    "time": 3.492643333333332,
                    "velocity": 0.49606299212598426,
                    "duration": 0.027573499999999918
                },
                {
                    "name": "C#4",
                    "midi": 61,
                    "time": 3.492643333333332,
                    "velocity": 0.5669291338582677,
                    "duration": 0.027573499999999918
                },
                {
                    "name": "C#3",
                    "midi": 49,
                    "time": 3.5294079999999988,
                    "velocity": 0.5590551181102362,
                    "duration": 0.11029400000000011
                },
                {
                    "name": "C#4",
                    "midi": 61,
                    "time": 3.5294079999999988,
                    "velocity": 0.6377952755905512,
                    "duration": 0.11029400000000011
                },
                {
                    "name": "G1",
                    "midi": 31,
                    "time": 3.749995999999999,
                    "velocity": 0.31496062992125984,
                    "duration": 0.03676466666666656
                },
                {
                    "name": "E2",
                    "midi": 40,
                    "time": 3.7867606666666656,
                    "velocity": 0.2283464566929134,
                    "duration": 0.03676466666666656
                },
                {
                    "name": "G1",
                    "midi": 31,
                    "time": 3.823525333333332,
                    "velocity": 0.31496062992125984,
                    "duration": 0.03676466666666656
                },
                {
                    "name": "E2",
                    "midi": 40,
                    "time": 3.8602899999999987,
                    "velocity": 0.2440944881889764,
                    "duration": 0.03676466666666656
                },
                {
                    "name": "G1",
                    "midi": 31,
                    "time": 3.8970546666666652,
                    "velocity": 0.30708661417322836,
                    "duration": 0.03676466666666656
                },
                {
                    "name": "E2",
                    "midi": 40,
                    "time": 3.933819333333332,
                    "velocity": 0.23622047244094488,
                    "duration": 0.03676466666666656
                },
                {
                    "name": "G1",
                    "midi": 31,
                    "time": 3.9705839999999983,
                    "velocity": 0.30708661417322836,
                    "duration": 0.036764666666667
                },
                {
                    "name": "E2",
                    "midi": 40,
                    "time": 4.007348666666665,
                    "velocity": 0.2677165354330709,
                    "duration": 0.03676466666666656
                },
                {
                    "name": "G1",
                    "midi": 31,
                    "time": 4.044113333333332,
                    "velocity": 0.3228346456692913,
                    "duration": 0.03676466666666656
                },
                {
                    "name": "E2",
                    "midi": 40,
                    "time": 4.0808779999999985,
                    "velocity": 0.29133858267716534,
                    "duration": 0.03676466666666656
                },
                {
                    "name": "G1",
                    "midi": 31,
                    "time": 4.117642666666665,
                    "velocity": 0.33858267716535434,
                    "duration": 0.03676466666666656
                },
                {
                    "name": "E2",
                    "midi": 40,
                    "time": 4.154407333333332,
                    "velocity": 0.2992125984251969,
                    "duration": 0.03676466666666656
                },
                {
                    "name": "G1",
                    "midi": 31,
                    "time": 4.191171999999998,
                    "velocity": 0.3464566929133858,
                    "duration": 0.03676466666666656
                },
                {
                    "name": "E2",
                    "midi": 40,
                    "time": 4.227936666666665,
                    "velocity": 0.3228346456692913,
                    "duration": 0.03676466666666656
                },
                {
                    "name": "G1",
                    "midi": 31,
                    "time": 4.264701333333331,
                    "velocity": 0.36220472440944884,
                    "duration": 0.03676466666666656
                },
                {
                    "name": "E2",
                    "midi": 40,
                    "time": 4.301465999999998,
                    "velocity": 0.33070866141732286,
                    "duration": 0.03676466666666656
                },
                {
                    "name": "G1",
                    "midi": 31,
                    "time": 4.338230666666664,
                    "velocity": 0.3779527559055118,
                    "duration": 0.03676466666666656
                },
                {
                    "name": "E2",
                    "midi": 40,
                    "time": 4.374995333333331,
                    "velocity": 0.33858267716535434,
                    "duration": 0.03676466666666656
                },
                {
                    "name": "G1",
                    "midi": 31,
                    "time": 4.4117599999999975,
                    "velocity": 0.3858267716535433,
                    "duration": 0.03676466666666656
                },
                {
                    "name": "E2",
                    "midi": 40,
                    "time": 4.448524666666664,
                    "velocity": 0.3543307086614173,
                    "duration": 0.03676466666666656
                },
                {
                    "name": "G1",
                    "midi": 31,
                    "time": 4.485289333333331,
                    "velocity": 0.4015748031496063,
                    "duration": 0.03676466666666656
                },
                {
                    "name": "E2",
                    "midi": 40,
                    "time": 4.522053999999997,
                    "velocity": 0.3543307086614173,
                    "duration": 0.03676466666666656
                },
                {
                    "name": "G1",
                    "midi": 31,
                    "time": 4.558818666666664,
                    "velocity": 0.41732283464566927,
                    "duration": 0.03676466666666656
                },
                {
                    "name": "E2",
                    "midi": 40,
                    "time": 4.59558333333333,
                    "velocity": 0.3700787401574803,
                    "duration": 0.03676466666666656
                },
                {
                    "name": "G1",
                    "midi": 31,
                    "time": 4.632347999999997,
                    "velocity": 0.4251968503937008,
                    "duration": 0.03676466666666656
                },
                {
                    "name": "E2",
                    "midi": 40,
                    "time": 4.669112666666663,
                    "velocity": 0.3858267716535433,
                    "duration": 0.03676466666666656
                },
                {
                    "name": "G1",
                    "midi": 31,
                    "time": 4.70587733333333,
                    "velocity": 0.4409448818897638,
                    "duration": 0.03676466666666656
                },
                {
                    "name": "E2",
                    "midi": 40,
                    "time": 4.7426419999999965,
                    "velocity": 0.4094488188976378,
                    "duration": 0.03676466666666656
                },
                {
                    "name": "G1",
                    "midi": 31,
                    "time": 4.779406666666663,
                    "velocity": 0.44881889763779526,
                    "duration": 0.03676466666666656
                },
                {
                    "name": "E2",
                    "midi": 40,
                    "time": 4.81617133333333,
                    "velocity": 0.4566929133858268,
                    "duration": 0.03676466666666656
                },
                {
                    "name": "G1",
                    "midi": 31,
                    "time": 4.852935999999996,
                    "velocity": 0.4645669291338583,
                    "duration": 0.03676466666666656
                },
                {
                    "name": "E2",
                    "midi": 40,
                    "time": 4.889700666666663,
                    "velocity": 0.47244094488188976,
                    "duration": 0.03676466666666656
                },
                {
                    "name": "G1",
                    "midi": 31,
                    "time": 4.926465333333329,
                    "velocity": 0.48031496062992124,
                    "duration": 0.03676466666666656
                },
                {
                    "name": "E2",
                    "midi": 40,
                    "time": 4.963229999999996,
                    "velocity": 0.4881889763779528,
                    "duration": 0.03676466666666656
                },
                {
                    "name": "G1",
                    "midi": 31,
                    "time": 4.999994666666662,
                    "velocity": 0.4881889763779528,
                    "duration": 0.03676466666666656
                },
                {
                    "name": "E2",
                    "midi": 40,
                    "time": 5.036759333333329,
                    "velocity": 0.49606299212598426,
                    "duration": 0.03676466666666656
                },
                {
                    "name": "G1",
                    "midi": 31,
                    "time": 5.0735239999999955,
                    "velocity": 0.5039370078740157,
                    "duration": 0.03676466666666656
                },
                {
                    "name": "E2",
                    "midi": 40,
                    "time": 5.110288666666662,
                    "velocity": 0.5118110236220472,
                    "duration": 0.03676466666666656
                },
                {
                    "name": "G1",
                    "midi": 31,
                    "time": 5.147053333333329,
                    "velocity": 0.5275590551181102,
                    "duration": 0.03676466666666656
                },
                {
                    "name": "E2",
                    "midi": 40,
                    "time": 5.183817999999995,
                    "velocity": 0.5354330708661418,
                    "duration": 0.03676466666666656
                },
                {
                    "name": "G1",
                    "midi": 31,
                    "time": 5.220582666666662,
                    "velocity": 0.5433070866141733,
                    "duration": 0.03676466666666656
                },
                {
                    "name": "E2",
                    "midi": 40,
                    "time": 5.257347333333328,
                    "velocity": 0.5511811023622047,
                    "duration": 0.03676466666666656
                },
                {
                    "name": "F#1",
                    "midi": 30,
                    "time": 5.312494333333328,
                    "velocity": 0.5275590551181102,
                    "duration": 0.03676466666666656
                },
                {
                    "name": "D#2",
                    "midi": 39,
                    "time": 5.312494333333328,
                    "velocity": 0.5669291338582677,
                    "duration": 0.03676466666666656
                },
                {
                    "name": "G1",
                    "midi": 31,
                    "time": 5.349258999999995,
                    "velocity": 0.6141732283464567,
                    "duration": 0.11029399999999967
                },
                {
                    "name": "E2",
                    "midi": 40,
                    "time": 5.349258999999995,
                    "velocity": 0.6456692913385826,
                    "duration": 0.11029399999999967
                },
                {
                    "name": "F1",
                    "midi": 29,
                    "time": 9.044107999999994,
                    "velocity": 0.31496062992125984,
                    "duration": 0.03676466666666656
                },
                {
                    "name": "D2",
                    "midi": 38,
                    "time": 9.08087266666666,
                    "velocity": 0.2283464566929134,
                    "duration": 0.03676466666666656
                },
                {
                    "name": "F1",
                    "midi": 29,
                    "time": 9.117637333333327,
                    "velocity": 0.31496062992125984,
                    "duration": 0.03676466666666656
                },
                {
                    "name": "D2",
                    "midi": 38,
                    "time": 9.154401999999994,
                    "velocity": 0.2440944881889764,
                    "duration": 0.03676466666666656
                },
                {
                    "name": "F1",
                    "midi": 29,
                    "time": 9.19116666666666,
                    "velocity": 0.30708661417322836,
                    "duration": 0.03676466666666656
                },
                {
                    "name": "D2",
                    "midi": 38,
                    "time": 9.227931333333327,
                    "velocity": 0.23622047244094488,
                    "duration": 0.03676466666666656
                },
                {
                    "name": "F1",
                    "midi": 29,
                    "time": 9.264695999999994,
                    "velocity": 0.30708661417322836,
                    "duration": 0.03676466666666656
                },
                {
                    "name": "D2",
                    "midi": 38,
                    "time": 9.30146066666666,
                    "velocity": 0.2677165354330709,
                    "duration": 0.03676466666666656
                },
                {
                    "name": "F1",
                    "midi": 29,
                    "time": 9.338225333333327,
                    "velocity": 0.3228346456692913,
                    "duration": 0.03676466666666656
                },
                {
                    "name": "D2",
                    "midi": 38,
                    "time": 9.374989999999993,
                    "velocity": 0.29133858267716534,
                    "duration": 0.03676466666666656
                },
                {
                    "name": "F1",
                    "midi": 29,
                    "time": 9.41175466666666,
                    "velocity": 0.33858267716535434,
                    "duration": 0.03676466666666656
                },
                {
                    "name": "D2",
                    "midi": 38,
                    "time": 9.448519333333326,
                    "velocity": 0.2992125984251969,
                    "duration": 0.03676466666666656
                },
                {
                    "name": "F1",
                    "midi": 29,
                    "time": 9.485283999999993,
                    "velocity": 0.3464566929133858,
                    "duration": 0.03676466666666656
                },
                {
                    "name": "D2",
                    "midi": 38,
                    "time": 9.52204866666666,
                    "velocity": 0.3228346456692913,
                    "duration": 0.03676466666666656
                },
                {
                    "name": "F1",
                    "midi": 29,
                    "time": 9.558813333333326,
                    "velocity": 0.36220472440944884,
                    "duration": 0.03676466666666656
                },
                {
                    "name": "D2",
                    "midi": 38,
                    "time": 9.595577999999993,
                    "velocity": 0.33070866141732286,
                    "duration": 0.03676466666666656
                },
                {
                    "name": "F1",
                    "midi": 29,
                    "time": 9.63234266666666,
                    "velocity": 0.3779527559055118,
                    "duration": 0.03676466666666656
                },
                {
                    "name": "D2",
                    "midi": 38,
                    "time": 9.669107333333326,
                    "velocity": 0.33858267716535434,
                    "duration": 0.03676466666666656
                },
                {
                    "name": "F1",
                    "midi": 29,
                    "time": 9.705871999999992,
                    "velocity": 0.3858267716535433,
                    "duration": 0.03676466666666656
                },
                {
                    "name": "D2",
                    "midi": 38,
                    "time": 9.742636666666659,
                    "velocity": 0.3543307086614173,
                    "duration": 0.03676466666666656
                },
                {
                    "name": "F1",
                    "midi": 29,
                    "time": 9.779401333333325,
                    "velocity": 0.4015748031496063,
                    "duration": 0.03676466666666656
                },
                {
                    "name": "D2",
                    "midi": 38,
                    "time": 9.816165999999992,
                    "velocity": 0.3543307086614173,
                    "duration": 0.03676466666666656
                },
                {
                    "name": "F1",
                    "midi": 29,
                    "time": 9.852930666666659,
                    "velocity": 0.41732283464566927,
                    "duration": 0.03676466666666656
                },
                {
                    "name": "D2",
                    "midi": 38,
                    "time": 9.889695333333325,
                    "velocity": 0.3700787401574803,
                    "duration": 0.03676466666666656
                },
                {
                    "name": "F1",
                    "midi": 29,
                    "time": 9.926459999999992,
                    "velocity": 0.4251968503937008,
                    "duration": 0.03676466666666656
                },
                {
                    "name": "D2",
                    "midi": 38,
                    "time": 9.963224666666658,
                    "velocity": 0.3858267716535433,
                    "duration": 0.03676466666666656
                },
                {
                    "name": "F1",
                    "midi": 29,
                    "time": 9.999989333333325,
                    "velocity": 0.4409448818897638,
                    "duration": 0.03676466666666656
                },
                {
                    "name": "D2",
                    "midi": 38,
                    "time": 10.036753999999991,
                    "velocity": 0.4094488188976378,
                    "duration": 0.03676466666666656
                },
                {
                    "name": "F1",
                    "midi": 29,
                    "time": 10.073518666666658,
                    "velocity": 0.44881889763779526,
                    "duration": 0.03676466666666656
                },
                {
                    "name": "D2",
                    "midi": 38,
                    "time": 10.110283333333324,
                    "velocity": 0.4566929133858268,
                    "duration": 0.03676466666666656
                },
                {
                    "name": "F1",
                    "midi": 29,
                    "time": 10.147047999999991,
                    "velocity": 0.4645669291338583,
                    "duration": 0.03676466666666656
                },
                {
                    "name": "D2",
                    "midi": 38,
                    "time": 10.183812666666658,
                    "velocity": 0.47244094488188976,
                    "duration": 0.03676466666666656
                },
                {
                    "name": "F1",
                    "midi": 29,
                    "time": 10.220577333333324,
                    "velocity": 0.48031496062992124,
                    "duration": 0.03676466666666656
                },
                {
                    "name": "D2",
                    "midi": 38,
                    "time": 10.25734199999999,
                    "velocity": 0.49606299212598426,
                    "duration": 0.03676466666666656
                },
                {
                    "name": "F1",
                    "midi": 29,
                    "time": 10.294106666666657,
                    "velocity": 0.5039370078740157,
                    "duration": 0.03676466666666656
                },
                {
                    "name": "D2",
                    "midi": 38,
                    "time": 10.330871333333324,
                    "velocity": 0.5118110236220472,
                    "duration": 0.03676466666666656
                },
                {
                    "name": "F1",
                    "midi": 29,
                    "time": 10.36763599999999,
                    "velocity": 0.5196850393700787,
                    "duration": 0.03676466666666656
                },
                {
                    "name": "D2",
                    "midi": 38,
                    "time": 10.404400666666657,
                    "velocity": 0.5275590551181102,
                    "duration": 0.03676466666666656
                },
                {
                    "name": "F1",
                    "midi": 29,
                    "time": 10.441165333333323,
                    "velocity": 0.5354330708661418,
                    "duration": 0.03676466666666656
                },
                {
                    "name": "D2",
                    "midi": 38,
                    "time": 10.47792999999999,
                    "velocity": 0.5433070866141733,
                    "duration": 0.03676466666666656
                },
                {
                    "name": "F1",
                    "midi": 29,
                    "time": 10.514694666666657,
                    "velocity": 0.5511811023622047,
                    "duration": 0.03676466666666656
                },
                {
                    "name": "D2",
                    "midi": 38,
                    "time": 10.551459333333323,
                    "velocity": 0.5590551181102362,
                    "duration": 0.03676466666666656
                },
                {
                    "name": "C#2",
                    "midi": 37,
                    "time": 10.58822399999999,
                    "velocity": 0.5669291338582677,
                    "duration": 0.03676466666666656
                },
                {
                    "name": "E1",
                    "midi": 28,
                    "time": 10.58822399999999,
                    "velocity": 0.5118110236220472,
                    "duration": 0.03676466666666656
                },
                {
                    "name": "F1",
                    "midi": 29,
                    "time": 10.64337099999999,
                    "velocity": 0.5905511811023622,
                    "duration": 0.11029399999999967
                },
                {
                    "name": "D2",
                    "midi": 38,
                    "time": 10.64337099999999,
                    "velocity": 0.6377952755905512,
                    "duration": 0.11029399999999967
                },
                {
                    "name": "G#3",
                    "midi": 56,
                    "time": 12.29778099999999,
                    "velocity": 0.5748031496062992,
                    "duration": 0.055146999999999835
                },
                {
                    "name": "G#3",
                    "midi": 56,
                    "time": 12.35292799999999,
                    "velocity": 0.5748031496062992,
                    "duration": 0.7720579999999995
                },
                {
                    "name": "A3",
                    "midi": 57,
                    "time": 13.12498599999999,
                    "velocity": 0.5748031496062992,
                    "duration": 0.055146999999999835
                },
                {
                    "name": "B3",
                    "midi": 59,
                    "time": 13.180132999999989,
                    "velocity": 0.5748031496062992,
                    "duration": 0.055146999999999835
                },
                {
                    "name": "E3",
                    "midi": 52,
                    "time": 13.235279999999989,
                    "velocity": 0.5748031496062992,
                    "duration": 0.44117600000000046
                },
                {
                    "name": "E3",
                    "midi": 52,
                    "time": 14.00733799999999,
                    "velocity": 0.5748031496062992,
                    "duration": 0.11029399999999967
                },
                {
                    "name": "F#3",
                    "midi": 54,
                    "time": 14.11763199999999,
                    "velocity": 0.5748031496062992,
                    "duration": 0.606617
                },
                {
                    "name": "A3",
                    "midi": 57,
                    "time": 14.72424899999999,
                    "velocity": 0.5748031496062992,
                    "duration": 0.055146999999999835
                },
                {
                    "name": "G#3",
                    "midi": 56,
                    "time": 14.77939599999999,
                    "velocity": 0.5748031496062992,
                    "duration": 0.055146999999999835
                },
                {
                    "name": "F#3",
                    "midi": 54,
                    "time": 14.83454299999999,
                    "velocity": 0.5748031496062992,
                    "duration": 0.055146999999999835
                },
                {
                    "name": "G#3",
                    "midi": 56,
                    "time": 14.88968999999999,
                    "velocity": 0.5748031496062992,
                    "duration": 0.055146999999999835
                },
                {
                    "name": "A3",
                    "midi": 57,
                    "time": 14.944836999999989,
                    "velocity": 0.5748031496062992,
                    "duration": 0.055146999999999835
                },
                {
                    "name": "G#3",
                    "midi": 56,
                    "time": 14.999983999999989,
                    "velocity": 0.5748031496062992,
                    "duration": 0.44117600000000046
                },
                {
                    "name": "E3",
                    "midi": 52,
                    "time": 15.77204199999999,
                    "velocity": 0.5748031496062992,
                    "duration": 0.11029399999999967
                },
                {
                    "name": "C#4",
                    "midi": 61,
                    "time": 15.88233599999999,
                    "velocity": 0.5748031496062992,
                    "duration": 0.7720579999999995
                },
                {
                    "name": "D4",
                    "midi": 62,
                    "time": 16.65439399999999,
                    "velocity": 0.5748031496062992,
                    "duration": 0.05514700000000161
                },
                {
                    "name": "E4",
                    "midi": 64,
                    "time": 16.70954099999999,
                    "velocity": 0.5748031496062992,
                    "duration": 0.05514700000000161
                },
                {
                    "name": "A3",
                    "midi": 57,
                    "time": 16.764687999999992,
                    "velocity": 0.5748031496062992,
                    "duration": 0.4411759999999987
                },
                {
                    "name": "A3",
                    "midi": 57,
                    "time": 17.53674599999999,
                    "velocity": 0.5905511811023622,
                    "duration": 0.11029399999999967
                },
                {
                    "name": "C4",
                    "midi": 60,
                    "time": 17.64703999999999,
                    "velocity": 0.6062992125984252,
                    "duration": 0.606617
                },
                {
                    "name": "D#4",
                    "midi": 63,
                    "time": 18.25365699999999,
                    "velocity": 0.5748031496062992,
                    "duration": 0.05514700000000161
                },
                {
                    "name": "C#4",
                    "midi": 61,
                    "time": 18.30880399999999,
                    "velocity": 0.5748031496062992,
                    "duration": 0.05514700000000161
                },
                {
                    "name": "C4",
                    "midi": 60,
                    "time": 18.363950999999993,
                    "velocity": 0.5748031496062992,
                    "duration": 0.05514700000000161
                },
                {
                    "name": "C#4",
                    "midi": 61,
                    "time": 18.419097999999995,
                    "velocity": 0.5748031496062992,
                    "duration": 0.05514700000000161
                },
                {
                    "name": "D#4",
                    "midi": 63,
                    "time": 18.474244999999996,
                    "velocity": 0.5748031496062992,
                    "duration": 0.05514700000000161
                },
                {
                    "name": "C#4",
                    "midi": 61,
                    "time": 18.529391999999998,
                    "velocity": 0.5748031496062992,
                    "duration": 0.4411759999999987
                },
                {
                    "name": "A3",
                    "midi": 57,
                    "time": 22.499975999999997,
                    "velocity": 0.5511811023622047,
                    "duration": 0.330881999999999
                },
                {
                    "name": "B3",
                    "midi": 59,
                    "time": 22.830857999999996,
                    "velocity": 0.49606299212598426,
                    "duration": 0.07352933333333667
                },
                {
                    "name": "C#4",
                    "midi": 61,
                    "time": 22.886004999999997,
                    "velocity": 0.49606299212598426,
                    "duration": 0.07352933333333667
                },
                {
                    "name": "F#3",
                    "midi": 54,
                    "time": 22.941152,
                    "velocity": 0.5511811023622047,
                    "duration": 0.33088200000000256
                },
                {
                    "name": "G#3",
                    "midi": 56,
                    "time": 23.272034,
                    "velocity": 0.5118110236220472,
                    "duration": 0.07352933333333667
                },
                {
                    "name": "A3",
                    "midi": 57,
                    "time": 23.327181000000003,
                    "velocity": 0.5196850393700787,
                    "duration": 0.07352933333333667
                },
                {
                    "name": "C#3",
                    "midi": 49,
                    "time": 23.382328000000005,
                    "velocity": 0.5511811023622047,
                    "duration": 0.33088200000000256
                },
                {
                    "name": "D#3",
                    "midi": 51,
                    "time": 23.713210000000007,
                    "velocity": 0.49606299212598426,
                    "duration": 0.07352933333333667
                },
                {
                    "name": "E3",
                    "midi": 52,
                    "time": 23.76835700000001,
                    "velocity": 0.49606299212598426,
                    "duration": 0.07352933333333667
                },
                {
                    "name": "A2",
                    "midi": 45,
                    "time": 23.82350400000001,
                    "velocity": 0.5511811023622047,
                    "duration": 0.33088200000000256
                },
                {
                    "name": "B2",
                    "midi": 47,
                    "time": 24.154386000000013,
                    "velocity": 0.5196850393700787,
                    "duration": 0.07352933333333667
                },
                {
                    "name": "C#3",
                    "midi": 49,
                    "time": 24.209533000000015,
                    "velocity": 0.5196850393700787,
                    "duration": 0.07352933333333667
                },
                {
                    "name": "F#2",
                    "midi": 42,
                    "time": 24.264680000000016,
                    "velocity": 0.5511811023622047,
                    "duration": 0.33088200000000256
                },
                {
                    "name": "G#2",
                    "midi": 44,
                    "time": 24.59556200000002,
                    "velocity": 0.4881889763779528,
                    "duration": 0.07352933333333667
                },
                {
                    "name": "A2",
                    "midi": 45,
                    "time": 24.65070900000002,
                    "velocity": 0.4881889763779528,
                    "duration": 0.07352933333333667
                },
                {
                    "name": "D#2",
                    "midi": 39,
                    "time": 24.705856000000022,
                    "velocity": 0.5354330708661418,
                    "duration": 0.2205880000000029
                },
                {
                    "name": "E2",
                    "midi": 40,
                    "time": 24.926444000000025,
                    "velocity": 0.4330708661417323,
                    "duration": 0.05514700000000161
                },
                {
                    "name": "D#2",
                    "midi": 39,
                    "time": 24.981591000000027,
                    "velocity": 0.3858267716535433,
                    "duration": 0.05514700000000161
                },
                {
                    "name": "E2",
                    "midi": 40,
                    "time": 25.036738000000028,
                    "velocity": 0.4330708661417323,
                    "duration": 0.05514700000000161
                },
                {
                    "name": "D#2",
                    "midi": 39,
                    "time": 25.09188500000003,
                    "velocity": 0.3779527559055118,
                    "duration": 0.05514700000000161
                },
                {
                    "name": "E2",
                    "midi": 40,
                    "time": 25.14703200000003,
                    "velocity": 0.4330708661417323,
                    "duration": 0.05514700000000161
                },
                {
                    "name": "D#2",
                    "midi": 39,
                    "time": 25.202179000000033,
                    "velocity": 0.3937007874015748,
                    "duration": 0.05514700000000161
                },
                {
                    "name": "E2",
                    "midi": 40,
                    "time": 25.257326000000035,
                    "velocity": 0.4330708661417323,
                    "duration": 0.05514700000000161
                },
                {
                    "name": "D#2",
                    "midi": 39,
                    "time": 25.312473000000036,
                    "velocity": 0.4015748031496063,
                    "duration": 0.05514700000000161
                },
                {
                    "name": "E2",
                    "midi": 40,
                    "time": 25.367620000000038,
                    "velocity": 0.4330708661417323,
                    "duration": 0.05514700000000161
                },
                {
                    "name": "D#2",
                    "midi": 39,
                    "time": 25.42276700000004,
                    "velocity": 0.3937007874015748,
                    "duration": 0.05514700000000161
                },
                {
                    "name": "E2",
                    "midi": 40,
                    "time": 25.47791400000004,
                    "velocity": 0.4330708661417323,
                    "duration": 0.05514700000000161
                },
                {
                    "name": "D#2",
                    "midi": 39,
                    "time": 25.533061000000043,
                    "velocity": 0.4094488188976378,
                    "duration": 0.05514700000000161
                },
                {
                    "name": "E2",
                    "midi": 40,
                    "time": 25.588208000000044,
                    "velocity": 0.4330708661417323,
                    "duration": 0.05514700000000161
                },
                {
                    "name": "D#2",
                    "midi": 39,
                    "time": 25.643355000000046,
                    "velocity": 0.3937007874015748,
                    "duration": 0.05514700000000161
                },
                {
                    "name": "E2",
                    "midi": 40,
                    "time": 25.698502000000047,
                    "velocity": 0.4330708661417323,
                    "duration": 0.05514700000000161
                },
                {
                    "name": "D#2",
                    "midi": 39,
                    "time": 25.75364900000005,
                    "velocity": 0.4015748031496063,
                    "duration": 0.05514700000000161
                },
                {
                    "name": "E2",
                    "midi": 40,
                    "time": 25.80879600000005,
                    "velocity": 0.4330708661417323,
                    "duration": 0.05514700000000161
                },
                {
                    "name": "D#2",
                    "midi": 39,
                    "time": 25.863943000000052,
                    "velocity": 0.3937007874015748,
                    "duration": 0.05514700000000161
                },
                {
                    "name": "E2",
                    "midi": 40,
                    "time": 25.919090000000054,
                    "velocity": 0.4330708661417323,
                    "duration": 0.05514700000000161
                },
                {
                    "name": "D#2",
                    "midi": 39,
                    "time": 25.974237000000056,
                    "velocity": 0.4094488188976378,
                    "duration": 0.05514700000000161
                },
                {
                    "name": "E2",
                    "midi": 40,
                    "time": 26.029384000000057,
                    "velocity": 0.4330708661417323,
                    "duration": 0.05514700000000161
                },
                {
                    "name": "D#2",
                    "midi": 39,
                    "time": 26.08453100000006,
                    "velocity": 0.3937007874015748,
                    "duration": 0.05514700000000161
                },
                {
                    "name": "E2",
                    "midi": 40,
                    "time": 26.13967800000006,
                    "velocity": 0.4330708661417323,
                    "duration": 0.05514700000000161
                },
                {
                    "name": "D#2",
                    "midi": 39,
                    "time": 26.194825000000062,
                    "velocity": 0.4015748031496063,
                    "duration": 0.05514700000000161
                },
                {
                    "name": "E2",
                    "midi": 40,
                    "time": 26.249972000000064,
                    "velocity": 0.4330708661417323,
                    "duration": 0.05514700000000161
                },
                {
                    "name": "D#2",
                    "midi": 39,
                    "time": 26.305119000000065,
                    "velocity": 0.3937007874015748,
                    "duration": 0.05514700000000161
                },
                {
                    "name": "E2",
                    "midi": 40,
                    "time": 26.360266000000067,
                    "velocity": 0.4330708661417323,
                    "duration": 0.05514700000000161
                },
                {
                    "name": "D#2",
                    "midi": 39,
                    "time": 26.41541300000007,
                    "velocity": 0.4094488188976378,
                    "duration": 0.05514700000000161
                },
                {
                    "name": "D2",
                    "midi": 38,
                    "time": 26.47056000000007,
                    "velocity": 0.4330708661417323,
                    "duration": 0.06617640000000335
                },
                {
                    "name": "D#2",
                    "midi": 39,
                    "time": 26.52570700000007,
                    "velocity": 0.4094488188976378,
                    "duration": 0.06617640000000335
                },
                {
                    "name": "E2",
                    "midi": 40,
                    "time": 26.580854000000073,
                    "velocity": 0.4330708661417323,
                    "duration": 0.06617640000000335
                },
                {
                    "name": "D#2",
                    "midi": 39,
                    "time": 26.636001000000075,
                    "velocity": 0.3937007874015748,
                    "duration": 0.06617640000000335
                },
                {
                    "name": "C#2",
                    "midi": 37,
                    "time": 26.691148000000076,
                    "velocity": 0.4015748031496063,
                    "duration": 0.06617640000000335
                },
                {
                    "name": "B1",
                    "midi": 35,
                    "time": 26.746295000000078,
                    "velocity": 0.41732283464566927,
                    "duration": 0.06617640000000335
                },
                {
                    "name": "A1",
                    "midi": 33,
                    "time": 26.80144200000008,
                    "velocity": 0.4251968503937008,
                    "duration": 0.06617640000000335
                },
                {
                    "name": "G#1",
                    "midi": 32,
                    "time": 26.85658900000008,
                    "velocity": 0.4409448818897638,
                    "duration": 0.06617640000000335
                },
                {
                    "name": "A1",
                    "midi": 33,
                    "time": 26.911736000000083,
                    "velocity": 0.44881889763779526,
                    "duration": 0.06617640000000335
                },
                {
                    "name": "F1",
                    "midi": 29,
                    "time": 26.966883000000085,
                    "velocity": 0.4645669291338583,
                    "duration": 0.16544100000000128
                },
                {
                    "name": "F#1",
                    "midi": 30,
                    "time": 27.132324000000086,
                    "velocity": 0.4015748031496063,
                    "duration": 0.07444844999999845
                },
                {
                    "name": "G#1",
                    "midi": 32,
                    "time": 27.193904816666752,
                    "velocity": 0.4015748031496063,
                    "duration": 0.07444844999999845
                },
                {
                    "name": "A1",
                    "midi": 33,
                    "time": 27.256404750000083,
                    "velocity": 0.4015748031496063,
                    "duration": 0.07352933333333311
                },
                {
                    "name": "B1",
                    "midi": 35,
                    "time": 27.31798556666675,
                    "velocity": 0.4094488188976378,
                    "duration": 0.07352933333333311
                },
                {
                    "name": "C#2",
                    "midi": 37,
                    "time": 27.379566383333415,
                    "velocity": 0.4094488188976378,
                    "duration": 0.06158081666666604
                },
                {
                    "name": "D#2",
                    "midi": 39,
                    "time": 27.44114720000008,
                    "velocity": 0.4251968503937008,
                    "duration": 0.07444844999999845
                },
                {
                    "name": "E2",
                    "midi": 40,
                    "time": 27.502728016666747,
                    "velocity": 0.4251968503937008,
                    "duration": 0.07444844999999845
                },
                {
                    "name": "F#2",
                    "midi": 42,
                    "time": 27.56522795000008,
                    "velocity": 0.4251968503937008,
                    "duration": 0.07352933333333311
                },
                {
                    "name": "G#2",
                    "midi": 44,
                    "time": 27.626808766666745,
                    "velocity": 0.4330708661417323,
                    "duration": 0.07352933333333311
                },
                {
                    "name": "A2",
                    "midi": 45,
                    "time": 27.68838958333341,
                    "velocity": 0.4330708661417323,
                    "duration": 0.07444844999999845
                },
                {
                    "name": "B2",
                    "midi": 47,
                    "time": 27.749970400000077,
                    "velocity": 0.4409448818897638,
                    "duration": 0.07444844999999845
                },
                {
                    "name": "C#3",
                    "midi": 49,
                    "time": 27.811551216666743,
                    "velocity": 0.4409448818897638,
                    "duration": 0.07444844999999845
                },
                {
                    "name": "D#3",
                    "midi": 51,
                    "time": 27.874051150000074,
                    "velocity": 0.44881889763779526,
                    "duration": 0.07352933333333311
                },
                {
                    "name": "E3",
                    "midi": 52,
                    "time": 27.93563196666674,
                    "velocity": 0.44881889763779526,
                    "duration": 0.07352933333333311
                },
                {
                    "name": "C3",
                    "midi": 48,
                    "time": 27.997212783333406,
                    "velocity": 0.5039370078740157,
                    "duration": 0.07444844999999845
                },
                {
                    "name": "D#3",
                    "midi": 51,
                    "time": 28.058793600000072,
                    "velocity": 0.47244094488188976,
                    "duration": 0.07444844999999845
                },
                {
                    "name": "C#3",
                    "midi": 49,
                    "time": 28.12037441666674,
                    "velocity": 0.5118110236220472,
                    "duration": 0.07444844999999845
                },
                {
                    "name": "B2",
                    "midi": 47,
                    "time": 28.18287435000007,
                    "velocity": 0.5275590551181102,
                    "duration": 0.07352933333333311
                },
                {
                    "name": "A2",
                    "midi": 45,
                    "time": 28.244455166666736,
                    "velocity": 0.5669291338582677,
                    "duration": 0.07352933333333311
                },
                {
                    "name": "G#2",
                    "midi": 44,
                    "time": 28.306035983333402,
                    "velocity": 0.5905511811023622,
                    "duration": 0.07444844999999845
                },
                {
                    "name": "A2",
                    "midi": 45,
                    "time": 28.367616800000068,
                    "velocity": 0.6141732283464567,
                    "duration": 0.07444844999999845
                },
                {
                    "name": "F2",
                    "midi": 41,
                    "time": 28.429197616666734,
                    "velocity": 0.6377952755905512,
                    "duration": 0.07352933333333311
                },
                {
                    "name": "F#2",
                    "midi": 42,
                    "time": 28.491697550000065,
                    "velocity": 0.6614173228346457,
                    "duration": 0.07352933333333311
                },
                {
                    "name": "G2",
                    "midi": 43,
                    "time": 28.552359250000066,
                    "velocity": 0.6850393700787402,
                    "duration": 0.07352933333333311
                },
                {
                    "name": "G#2",
                    "midi": 44,
                    "time": 28.614859183333397,
                    "velocity": 0.7007874015748031,
                    "duration": 0.05882346666667004
                },
                {
                    "name": "G#2",
                    "midi": 44,
                    "time": 28.676440000000067,
                    "velocity": 0.7322834645669292,
                    "duration": 0.22058799999999934
                },
                {
                    "name": "G#1",
                    "midi": 32,
                    "time": 29.117616000000066,
                    "velocity": 0.7244094488188977,
                    "duration": 0.22058799999999934
                },
                {
                    "name": "E4",
                    "midi": 64,
                    "time": 29.448498000000065,
                    "velocity": 0.3937007874015748,
                    "duration": 0.08272050000000064
                },
                {
                    "name": "C#5",
                    "midi": 73,
                    "time": 29.448498000000065,
                    "velocity": 0.3937007874015748,
                    "duration": 0.08272050000000064
                },
                {
                    "name": "C#4",
                    "midi": 61,
                    "time": 29.448498000000065,
                    "velocity": 0.33070866141732286,
                    "duration": 0.08272050000000064
                },
                {
                    "name": "C#5",
                    "midi": 73,
                    "time": 29.558792000000064,
                    "velocity": 0.4566929133858268,
                    "duration": 1.213234
                },
                {
                    "name": "C#4",
                    "midi": 61,
                    "time": 29.558792000000064,
                    "velocity": 0.3858267716535433,
                    "duration": 1.213234
                },
                {
                    "name": "E4",
                    "midi": 64,
                    "time": 29.558792000000064,
                    "velocity": 0.3858267716535433,
                    "duration": 1.213234
                },
                {
                    "name": "B4",
                    "midi": 71,
                    "time": 30.772026000000064,
                    "velocity": 0.3937007874015748,
                    "duration": 0.08272050000000064
                },
                {
                    "name": "B3",
                    "midi": 59,
                    "time": 30.772026000000064,
                    "velocity": 0.33070866141732286,
                    "duration": 0.08272050000000064
                },
                {
                    "name": "D#4",
                    "midi": 63,
                    "time": 30.772026000000064,
                    "velocity": 0.33070866141732286,
                    "duration": 0.08272050000000064
                },
                {
                    "name": "B4",
                    "midi": 71,
                    "time": 30.882320000000064,
                    "velocity": 0.4566929133858268,
                    "duration": 0.330881999999999
                },
                {
                    "name": "B3",
                    "midi": 59,
                    "time": 30.882320000000064,
                    "velocity": 0.3858267716535433,
                    "duration": 0.330881999999999
                },
                {
                    "name": "D#4",
                    "midi": 63,
                    "time": 30.882320000000064,
                    "velocity": 0.3858267716535433,
                    "duration": 0.330881999999999
                },
                {
                    "name": "A4",
                    "midi": 69,
                    "time": 31.213202000000063,
                    "velocity": 0.3937007874015748,
                    "duration": 0.08272050000000064
                },
                {
                    "name": "A3",
                    "midi": 57,
                    "time": 31.213202000000063,
                    "velocity": 0.33070866141732286,
                    "duration": 0.08272050000000064
                },
                {
                    "name": "C#4",
                    "midi": 61,
                    "time": 31.213202000000063,
                    "velocity": 0.33070866141732286,
                    "duration": 0.08272050000000064
                },
                {
                    "name": "A4",
                    "midi": 69,
                    "time": 31.323496000000063,
                    "velocity": 0.4409448818897638,
                    "duration": 0.330881999999999
                },
                {
                    "name": "A3",
                    "midi": 57,
                    "time": 31.323496000000063,
                    "velocity": 0.3700787401574803,
                    "duration": 0.330881999999999
                },
                {
                    "name": "C#4",
                    "midi": 61,
                    "time": 31.323496000000063,
                    "velocity": 0.3700787401574803,
                    "duration": 0.330881999999999
                },
                {
                    "name": "F#4",
                    "midi": 66,
                    "time": 31.65437800000006,
                    "velocity": 0.3937007874015748,
                    "duration": 0.08272050000000064
                },
                {
                    "name": "F#3",
                    "midi": 54,
                    "time": 31.65437800000006,
                    "velocity": 0.33070866141732286,
                    "duration": 0.08272050000000064
                },
                {
                    "name": "A3",
                    "midi": 57,
                    "time": 31.65437800000006,
                    "velocity": 0.33070866141732286,
                    "duration": 0.08272050000000064
                },
                {
                    "name": "F#4",
                    "midi": 66,
                    "time": 31.76467200000006,
                    "velocity": 0.4409448818897638,
                    "duration": 0.33088200000000256
                },
                {
                    "name": "F#3",
                    "midi": 54,
                    "time": 31.76467200000006,
                    "velocity": 0.3700787401574803,
                    "duration": 0.33088200000000256
                },
                {
                    "name": "A3",
                    "midi": 57,
                    "time": 31.76467200000006,
                    "velocity": 0.3700787401574803,
                    "duration": 0.33088200000000256
                },
                {
                    "name": "E4",
                    "midi": 64,
                    "time": 32.095554000000064,
                    "velocity": 0.4094488188976378,
                    "duration": 0.08272050000000064
                },
                {
                    "name": "E3",
                    "midi": 52,
                    "time": 32.095554000000064,
                    "velocity": 0.3464566929133858,
                    "duration": 0.08272050000000064
                },
                {
                    "name": "G#3",
                    "midi": 56,
                    "time": 32.095554000000064,
                    "velocity": 0.3464566929133858,
                    "duration": 0.08272050000000064
                },
                {
                    "name": "E4",
                    "midi": 64,
                    "time": 32.20584800000007,
                    "velocity": 0.4566929133858268,
                    "duration": 0.33088200000000256
                },
                {
                    "name": "E3",
                    "midi": 52,
                    "time": 32.20584800000007,
                    "velocity": 0.3858267716535433,
                    "duration": 0.33088200000000256
                },
                {
                    "name": "G#3",
                    "midi": 56,
                    "time": 32.20584800000007,
                    "velocity": 0.3858267716535433,
                    "duration": 0.33088200000000256
                },
                {
                    "name": "C#4",
                    "midi": 61,
                    "time": 32.53673000000007,
                    "velocity": 0.3937007874015748,
                    "duration": 0.08272050000000064
                },
                {
                    "name": "C#3",
                    "midi": 49,
                    "time": 32.53673000000007,
                    "velocity": 0.33070866141732286,
                    "duration": 0.08272050000000064
                },
                {
                    "name": "E3",
                    "midi": 52,
                    "time": 32.53673000000007,
                    "velocity": 0.33070866141732286,
                    "duration": 0.08272050000000064
                },
                {
                    "name": "C#4",
                    "midi": 61,
                    "time": 32.64702400000007,
                    "velocity": 0.4409448818897638,
                    "duration": 0.33088200000000256
                },
                {
                    "name": "C#3",
                    "midi": 49,
                    "time": 32.64702400000007,
                    "velocity": 0.3700787401574803,
                    "duration": 0.33088200000000256
                },
                {
                    "name": "E3",
                    "midi": 52,
                    "time": 32.64702400000007,
                    "velocity": 0.3700787401574803,
                    "duration": 0.33088200000000256
                },
                {
                    "name": "B3",
                    "midi": 59,
                    "time": 32.977906000000075,
                    "velocity": 0.3937007874015748,
                    "duration": 0.08272050000000064
                },
                {
                    "name": "B2",
                    "midi": 47,
                    "time": 32.977906000000075,
                    "velocity": 0.33070866141732286,
                    "duration": 0.08272050000000064
                },
                {
                    "name": "D#3",
                    "midi": 51,
                    "time": 32.977906000000075,
                    "velocity": 0.33070866141732286,
                    "duration": 0.08272050000000064
                },
                {
                    "name": "B3",
                    "midi": 59,
                    "time": 33.08820000000008,
                    "velocity": 0.44881889763779526,
                    "duration": 0.33088200000000256
                },
                {
                    "name": "B2",
                    "midi": 47,
                    "time": 33.08820000000008,
                    "velocity": 0.3700787401574803,
                    "duration": 0.33088200000000256
                },
                {
                    "name": "D#3",
                    "midi": 51,
                    "time": 33.08820000000008,
                    "velocity": 0.3700787401574803,
                    "duration": 0.33088200000000256
                },
                {
                    "name": "A3",
                    "midi": 57,
                    "time": 33.41908200000008,
                    "velocity": 0.41732283464566927,
                    "duration": 0.08272050000000064
                },
                {
                    "name": "A2",
                    "midi": 45,
                    "time": 33.41908200000008,
                    "velocity": 0.3543307086614173,
                    "duration": 0.08272050000000064
                },
                {
                    "name": "C#3",
                    "midi": 49,
                    "time": 33.41908200000008,
                    "velocity": 0.3543307086614173,
                    "duration": 0.08272050000000064
                },
                {
                    "name": "A3",
                    "midi": 57,
                    "time": 33.529376000000084,
                    "velocity": 0.4566929133858268,
                    "duration": 0.33088200000000256
                },
                {
                    "name": "A2",
                    "midi": 45,
                    "time": 33.529376000000084,
                    "velocity": 0.3779527559055118,
                    "duration": 0.33088200000000256
                },
                {
                    "name": "C#3",
                    "midi": 49,
                    "time": 33.529376000000084,
                    "velocity": 0.3779527559055118,
                    "duration": 0.33088200000000256
                },
                {
                    "name": "F#3",
                    "midi": 54,
                    "time": 33.86025800000009,
                    "velocity": 0.4330708661417323,
                    "duration": 0.08272050000000064
                },
                {
                    "name": "F#2",
                    "midi": 42,
                    "time": 33.86025800000009,
                    "velocity": 0.36220472440944884,
                    "duration": 0.08272050000000064
                },
                {
                    "name": "A2",
                    "midi": 45,
                    "time": 33.86025800000009,
                    "velocity": 0.36220472440944884,
                    "duration": 0.08272050000000064
                },
                {
                    "name": "F#3",
                    "midi": 54,
                    "time": 33.97055200000009,
                    "velocity": 0.4645669291338583,
                    "duration": 0.33088200000000256
                },
                {
                    "name": "F#2",
                    "midi": 42,
                    "time": 33.97055200000009,
                    "velocity": 0.3937007874015748,
                    "duration": 0.33088200000000256
                },
                {
                    "name": "A2",
                    "midi": 45,
                    "time": 33.97055200000009,
                    "velocity": 0.3937007874015748,
                    "duration": 0.33088200000000256
                },
                {
                    "name": "E3",
                    "midi": 52,
                    "time": 34.30143400000009,
                    "velocity": 0.4409448818897638,
                    "duration": 0.08272050000000064
                },
                {
                    "name": "E2",
                    "midi": 40,
                    "time": 34.30143400000009,
                    "velocity": 0.3700787401574803,
                    "duration": 0.08272050000000064
                },
                {
                    "name": "G#2",
                    "midi": 44,
                    "time": 34.30143400000009,
                    "velocity": 0.3700787401574803,
                    "duration": 0.08272050000000064
                },
                {
                    "name": "E3",
                    "midi": 52,
                    "time": 34.411728000000096,
                    "velocity": 0.47244094488188976,
                    "duration": 0.33088200000000256
                },
                {
                    "name": "E2",
                    "midi": 40,
                    "time": 34.411728000000096,
                    "velocity": 0.3937007874015748,
                    "duration": 0.33088200000000256
                },
                {
                    "name": "G#2",
                    "midi": 44,
                    "time": 34.411728000000096,
                    "velocity": 0.3937007874015748,
                    "duration": 0.33088200000000256
                },
                {
                    "name": "C#3",
                    "midi": 49,
                    "time": 34.7426100000001,
                    "velocity": 0.4566929133858268,
                    "duration": 0.08272050000000064
                },
                {
                    "name": "C#2",
                    "midi": 37,
                    "time": 34.7426100000001,
                    "velocity": 0.3779527559055118,
                    "duration": 0.08272050000000064
                },
                {
                    "name": "E2",
                    "midi": 40,
                    "time": 34.7426100000001,
                    "velocity": 0.3779527559055118,
                    "duration": 0.08272050000000064
                },
                {
                    "name": "C#3",
                    "midi": 49,
                    "time": 34.8529040000001,
                    "velocity": 0.48031496062992124,
                    "duration": 0.33088200000000256
                },
                {
                    "name": "C#2",
                    "midi": 37,
                    "time": 34.8529040000001,
                    "velocity": 0.4015748031496063,
                    "duration": 0.33088200000000256
                },
                {
                    "name": "E2",
                    "midi": 40,
                    "time": 34.8529040000001,
                    "velocity": 0.4015748031496063,
                    "duration": 0.33088200000000256
                },
                {
                    "name": "B2",
                    "midi": 47,
                    "time": 35.183786000000104,
                    "velocity": 0.4645669291338583,
                    "duration": 0.08272050000000064
                },
                {
                    "name": "B1",
                    "midi": 35,
                    "time": 35.183786000000104,
                    "velocity": 0.3858267716535433,
                    "duration": 0.08272050000000064
                },
                {
                    "name": "D#2",
                    "midi": 39,
                    "time": 35.183786000000104,
                    "velocity": 0.3858267716535433,
                    "duration": 0.08272050000000064
                },
                {
                    "name": "B2",
                    "midi": 47,
                    "time": 35.29408000000011,
                    "velocity": 0.49606299212598426,
                    "duration": 0.33088200000000256
                },
                {
                    "name": "B1",
                    "midi": 35,
                    "time": 35.29408000000011,
                    "velocity": 0.41732283464566927,
                    "duration": 0.33088200000000256
                },
                {
                    "name": "D#2",
                    "midi": 39,
                    "time": 35.29408000000011,
                    "velocity": 0.41732283464566927,
                    "duration": 0.33088200000000256
                },
                {
                    "name": "A2",
                    "midi": 45,
                    "time": 35.62496200000011,
                    "velocity": 0.47244094488188976,
                    "duration": 0.08272050000000064
                },
                {
                    "name": "A1",
                    "midi": 33,
                    "time": 35.62496200000011,
                    "velocity": 0.3937007874015748,
                    "duration": 0.08272050000000064
                },
                {
                    "name": "E2",
                    "midi": 40,
                    "time": 35.62496200000011,
                    "velocity": 0.3937007874015748,
                    "duration": 0.08272050000000064
                },
                {
                    "name": "A2",
                    "midi": 45,
                    "time": 35.73525600000011,
                    "velocity": 0.6377952755905512,
                    "duration": 0.4411759999999987
                },
                {
                    "name": "A1",
                    "midi": 33,
                    "time": 35.73525600000011,
                    "velocity": 0.5354330708661418,
                    "duration": 0.4411759999999987
                },
                {
                    "name": "E2",
                    "midi": 40,
                    "time": 35.73525600000011,
                    "velocity": 0.5354330708661418,
                    "duration": 0.4411759999999987
                },
                {
                    "name": "G2",
                    "midi": 43,
                    "time": 36.17643200000011,
                    "velocity": 0.6299212598425197,
                    "duration": 0.4411759999999987
                },
                {
                    "name": "G1",
                    "midi": 31,
                    "time": 36.17643200000011,
                    "velocity": 0.5354330708661418,
                    "duration": 0.4411759999999987
                },
                {
                    "name": "F2",
                    "midi": 41,
                    "time": 36.61760800000011,
                    "velocity": 0.6614173228346457,
                    "duration": 0.4411759999999987
                },
                {
                    "name": "F1",
                    "midi": 29,
                    "time": 36.61760800000011,
                    "velocity": 0.5590551181102362,
                    "duration": 0.4411759999999987
                },
                {
                    "name": "E2",
                    "midi": 40,
                    "time": 37.05878400000011,
                    "velocity": 0.6614173228346457,
                    "duration": 0.4411759999999987
                },
                {
                    "name": "E1",
                    "midi": 28,
                    "time": 37.05878400000011,
                    "velocity": 0.5590551181102362,
                    "duration": 0.4411759999999987
                },
                {
                    "name": "D2",
                    "midi": 38,
                    "time": 37.49996000000011,
                    "velocity": 0.6535433070866141,
                    "duration": 0.4411759999999987
                },
                {
                    "name": "D1",
                    "midi": 26,
                    "time": 37.49996000000011,
                    "velocity": 0.5511811023622047,
                    "duration": 0.4411759999999987
                },
                {
                    "name": "C#2",
                    "midi": 37,
                    "time": 37.94113600000011,
                    "velocity": 0.6299212598425197,
                    "duration": 0.4411759999999987
                },
                {
                    "name": "C#1",
                    "midi": 25,
                    "time": 37.94113600000011,
                    "velocity": 0.5354330708661418,
                    "duration": 0.4411759999999987
                },
                {
                    "name": "C2",
                    "midi": 36,
                    "time": 38.382312000000105,
                    "velocity": 0.6692913385826772,
                    "duration": 0.22058799999999934
                },
                {
                    "name": "C1",
                    "midi": 24,
                    "time": 38.382312000000105,
                    "velocity": 0.5669291338582677,
                    "duration": 0.22058799999999934
                },
                {
                    "name": "A2",
                    "midi": 45,
                    "time": 38.602900000000105,
                    "velocity": 0.6377952755905512,
                    "duration": 0.4411759999999987
                },
                {
                    "name": "A1",
                    "midi": 33,
                    "time": 38.602900000000105,
                    "velocity": 0.5433070866141733,
                    "duration": 0.4411759999999987
                },
                {
                    "name": "G#2",
                    "midi": 44,
                    "time": 39.0440760000001,
                    "velocity": 0.6220472440944882,
                    "duration": 0.11029400000000322
                },
                {
                    "name": "G#1",
                    "midi": 32,
                    "time": 39.0440760000001,
                    "velocity": 0.5275590551181102,
                    "duration": 0.11029400000000322
                },
                {
                    "name": "C#3",
                    "midi": 49,
                    "time": 39.26466400000011,
                    "velocity": 0.49606299212598426,
                    "duration": 0.4411759999999987
                },
                {
                    "name": "C#2",
                    "midi": 37,
                    "time": 39.26466400000011,
                    "velocity": 0.41732283464566927,
                    "duration": 0.4411759999999987
                },
                {
                    "name": "G#2",
                    "midi": 44,
                    "time": 39.26466400000011,
                    "velocity": 0.41732283464566927,
                    "duration": 0.4411759999999987
                },
                {
                    "name": "D#3",
                    "midi": 51,
                    "time": 39.70584000000011,
                    "velocity": 0.4881889763779528,
                    "duration": 0.4411759999999987
                },
                {
                    "name": "C2",
                    "midi": 36,
                    "time": 39.70584000000011,
                    "velocity": 0.4094488188976378,
                    "duration": 0.4411759999999987
                },
                {
                    "name": "A2",
                    "midi": 45,
                    "time": 39.70584000000011,
                    "velocity": 0.4094488188976378,
                    "duration": 0.4411759999999987
                },
                {
                    "name": "C#3",
                    "midi": 49,
                    "time": 40.14701600000011,
                    "velocity": 0.4645669291338583,
                    "duration": 0.22058799999999934
                },
                {
                    "name": "C#2",
                    "midi": 37,
                    "time": 40.14701600000011,
                    "velocity": 0.3937007874015748,
                    "duration": 0.22058799999999934
                },
                {
                    "name": "G#2",
                    "midi": 44,
                    "time": 40.14701600000011,
                    "velocity": 0.3937007874015748,
                    "duration": 0.22058799999999934
                },
                {
                    "name": "A2",
                    "midi": 45,
                    "time": 40.36760400000011,
                    "velocity": 0.4094488188976378,
                    "duration": 0.22058799999999934
                },
                {
                    "name": "F#1",
                    "midi": 30,
                    "time": 40.36760400000011,
                    "velocity": 0.3464566929133858,
                    "duration": 0.22058799999999934
                },
                {
                    "name": "F#2",
                    "midi": 42,
                    "time": 40.36760400000011,
                    "velocity": 0.3464566929133858,
                    "duration": 0.22058799999999934
                },
                {
                    "name": "G#2",
                    "midi": 44,
                    "time": 40.588192000000106,
                    "velocity": 0.47244094488188976,
                    "duration": 0.22058799999999934
                },
                {
                    "name": "G#1",
                    "midi": 32,
                    "time": 40.588192000000106,
                    "velocity": 0.4015748031496063,
                    "duration": 0.22058799999999934
                },
                {
                    "name": "E2",
                    "midi": 40,
                    "time": 40.588192000000106,
                    "velocity": 0.4015748031496063,
                    "duration": 0.22058799999999934
                },
                {
                    "name": "G#2",
                    "midi": 44,
                    "time": 40.808780000000105,
                    "velocity": 0.44881889763779526,
                    "duration": 0.22058799999999934
                },
                {
                    "name": "F#2",
                    "midi": 42,
                    "time": 40.808780000000105,
                    "velocity": 0.3779527559055118,
                    "duration": 0.22058799999999934
                },
                {
                    "name": "D#2",
                    "midi": 39,
                    "time": 40.808780000000105,
                    "velocity": 0.3779527559055118,
                    "duration": 0.22058799999999934
                },
                {
                    "name": "G#1",
                    "midi": 32,
                    "time": 40.808780000000105,
                    "velocity": 0.3779527559055118,
                    "duration": 0.22058799999999934
                },
                {
                    "name": "C#2",
                    "midi": 37,
                    "time": 41.029368000000105,
                    "velocity": 0.4094488188976378,
                    "duration": 0.11029400000000322
                },
                {
                    "name": "E2",
                    "midi": 40,
                    "time": 41.029368000000105,
                    "velocity": 0.4094488188976378,
                    "duration": 0.11029400000000322
                },
                {
                    "name": "G#2",
                    "midi": 44,
                    "time": 41.029368000000105,
                    "velocity": 0.44881889763779526,
                    "duration": 0.11029400000000322
                },
                {
                    "name": "F#1",
                    "midi": 30,
                    "time": 41.24995600000011,
                    "velocity": 0.4094488188976378,
                    "duration": 0.11029400000000322
                },
                {
                    "name": "C#2",
                    "midi": 37,
                    "time": 41.24995600000011,
                    "velocity": 0.4094488188976378,
                    "duration": 0.11029400000000322
                },
                {
                    "name": "F#2",
                    "midi": 42,
                    "time": 41.24995600000011,
                    "velocity": 0.44881889763779526,
                    "duration": 0.11029400000000322
                },
                {
                    "name": "C#2",
                    "midi": 37,
                    "time": 42.132308000000116,
                    "velocity": 0.4094488188976378,
                    "duration": 0.05514699999999806
                },
                {
                    "name": "E2",
                    "midi": 40,
                    "time": 42.132308000000116,
                    "velocity": 0.44881889763779526,
                    "duration": 0.05514699999999806
                },
                {
                    "name": "G#3",
                    "midi": 56,
                    "time": 42.794072000000114,
                    "velocity": 0.49606299212598426,
                    "duration": 0.4411759999999987
                },
                {
                    "name": "G#2",
                    "midi": 44,
                    "time": 42.794072000000114,
                    "velocity": 0.41732283464566927,
                    "duration": 0.4411759999999987
                },
                {
                    "name": "D#3",
                    "midi": 51,
                    "time": 42.794072000000114,
                    "velocity": 0.41732283464566927,
                    "duration": 0.4411759999999987
                },
                {
                    "name": "A#3",
                    "midi": 58,
                    "time": 43.23524800000011,
                    "velocity": 0.4881889763779528,
                    "duration": 0.4411759999999987
                },
                {
                    "name": "G2",
                    "midi": 43,
                    "time": 43.23524800000011,
                    "velocity": 0.4094488188976378,
                    "duration": 0.4411759999999987
                },
                {
                    "name": "E3",
                    "midi": 52,
                    "time": 43.23524800000011,
                    "velocity": 0.4094488188976378,
                    "duration": 0.4411759999999987
                },
                {
                    "name": "G#3",
                    "midi": 56,
                    "time": 43.67642400000011,
                    "velocity": 0.4645669291338583,
                    "duration": 0.22058799999999934
                },
                {
                    "name": "G#2",
                    "midi": 44,
                    "time": 43.67642400000011,
                    "velocity": 0.3937007874015748,
                    "duration": 0.22058799999999934
                },
                {
                    "name": "D#3",
                    "midi": 51,
                    "time": 43.67642400000011,
                    "velocity": 0.3937007874015748,
                    "duration": 0.22058799999999934
                },
                {
                    "name": "E3",
                    "midi": 52,
                    "time": 43.89701200000011,
                    "velocity": 0.4094488188976378,
                    "duration": 0.22058799999999934
                },
                {
                    "name": "C#2",
                    "midi": 37,
                    "time": 43.89701200000011,
                    "velocity": 0.3464566929133858,
                    "duration": 0.22058799999999934
                },
                {
                    "name": "C#3",
                    "midi": 49,
                    "time": 43.89701200000011,
                    "velocity": 0.3464566929133858,
                    "duration": 0.22058799999999934
                },
                {
                    "name": "D#3",
                    "midi": 51,
                    "time": 44.11760000000011,
                    "velocity": 0.47244094488188976,
                    "duration": 0.22058799999999934
                },
                {
                    "name": "D#2",
                    "midi": 39,
                    "time": 44.11760000000011,
                    "velocity": 0.4015748031496063,
                    "duration": 0.22058799999999934
                },
                {
                    "name": "B2",
                    "midi": 47,
                    "time": 44.11760000000011,
                    "velocity": 0.4015748031496063,
                    "duration": 0.22058799999999934
                },
                {
                    "name": "D#3",
                    "midi": 51,
                    "time": 44.33818800000011,
                    "velocity": 0.44881889763779526,
                    "duration": 0.22058799999999934
                },
                {
                    "name": "C#3",
                    "midi": 49,
                    "time": 44.33818800000011,
                    "velocity": 0.3779527559055118,
                    "duration": 0.22058799999999934
                },
                {
                    "name": "A#2",
                    "midi": 46,
                    "time": 44.33818800000011,
                    "velocity": 0.3779527559055118,
                    "duration": 0.22058799999999934
                },
                {
                    "name": "D#2",
                    "midi": 39,
                    "time": 44.33818800000011,
                    "velocity": 0.3779527559055118,
                    "duration": 0.22058799999999934
                },
                {
                    "name": "G#2",
                    "midi": 44,
                    "time": 44.55877600000011,
                    "velocity": 0.4094488188976378,
                    "duration": 0.11029400000000322
                },
                {
                    "name": "B2",
                    "midi": 47,
                    "time": 44.55877600000011,
                    "velocity": 0.4094488188976378,
                    "duration": 0.11029400000000322
                },
                {
                    "name": "D#3",
                    "midi": 51,
                    "time": 44.55877600000011,
                    "velocity": 0.44881889763779526,
                    "duration": 0.11029400000000322
                },
                {
                    "name": "C#2",
                    "midi": 37,
                    "time": 44.779364000000115,
                    "velocity": 0.36220472440944884,
                    "duration": 0.6617639999999767
                },
                {
                    "name": "A#2",
                    "midi": 46,
                    "time": 44.779364000000115,
                    "velocity": 0.3937007874015748,
                    "duration": 0.05514699999999806
                },
                {
                    "name": "G#2",
                    "midi": 44,
                    "time": 44.83451100000011,
                    "velocity": 0.3543307086614173,
                    "duration": 0.05514699999999806
                },
                {
                    "name": "A#2",
                    "midi": 46,
                    "time": 44.88965800000011,
                    "velocity": 0.3937007874015748,
                    "duration": 0.05514699999999806
                },
                {
                    "name": "G#2",
                    "midi": 44,
                    "time": 44.94480500000011,
                    "velocity": 0.3543307086614173,
                    "duration": 0.05514699999999806
                },
                {
                    "name": "A#2",
                    "midi": 46,
                    "time": 44.99995200000011,
                    "velocity": 0.3937007874015748,
                    "duration": 0.05514699999999806
                },
                {
                    "name": "G#2",
                    "midi": 44,
                    "time": 45.055099000000105,
                    "velocity": 0.3543307086614173,
                    "duration": 0.05514699999999806
                },
                {
                    "name": "A#2",
                    "midi": 46,
                    "time": 45.1102460000001,
                    "velocity": 0.3937007874015748,
                    "duration": 0.05514699999999806
                },
                {
                    "name": "G#2",
                    "midi": 44,
                    "time": 45.1653930000001,
                    "velocity": 0.3543307086614173,
                    "duration": 0.05514699999999806
                },
                {
                    "name": "A#2",
                    "midi": 46,
                    "time": 45.2205400000001,
                    "velocity": 0.3937007874015748,
                    "duration": 0.05514699999999806
                },
                {
                    "name": "G#2",
                    "midi": 44,
                    "time": 45.2756870000001,
                    "velocity": 0.3543307086614173,
                    "duration": 0.05514699999999806
                },
                {
                    "name": "G2",
                    "midi": 43,
                    "time": 45.330834000000095,
                    "velocity": 0.3937007874015748,
                    "duration": 0.05514699999999806
                },
                {
                    "name": "G#2",
                    "midi": 44,
                    "time": 45.38598100000009,
                    "velocity": 0.3543307086614173,
                    "duration": 0.05514699999999806
                },
                {
                    "name": "B2",
                    "midi": 47,
                    "time": 45.44112800000009,
                    "velocity": 0.4251968503937008,
                    "duration": 0.07352933333333311
                },
                {
                    "name": "A#2",
                    "midi": 46,
                    "time": 45.514657333333425,
                    "velocity": 0.3858267716535433,
                    "duration": 0.07352933333333311
                },
                {
                    "name": "G#2",
                    "midi": 44,
                    "time": 45.58818666666676,
                    "velocity": 0.3858267716535433,
                    "duration": 0.07352933333333311
                },
                {
                    "name": "G#1",
                    "midi": 32,
                    "time": 45.66171600000009,
                    "velocity": 0.3228346456692913,
                    "duration": 0.11029400000000322
                },
                {
                    "name": "D#2",
                    "midi": 39,
                    "time": 45.66171600000009,
                    "velocity": 0.3228346456692913,
                    "duration": 0.11029400000000322
                },
                {
                    "name": "G#2",
                    "midi": 44,
                    "time": 45.66171600000009,
                    "velocity": 0.3543307086614173,
                    "duration": 0.11029400000000322
                },
                {
                    "name": "E2",
                    "midi": 40,
                    "time": 46.2545462500001,
                    "velocity": 0.3464566929133858,
                    "duration": 1.8336377500000012
                },
                {
                    "name": "B2",
                    "midi": 47,
                    "time": 46.2683330000001,
                    "velocity": 0.36220472440944884,
                    "duration": 1.8198509999999999
                },
                {
                    "name": "G#3",
                    "midi": 56,
                    "time": 46.2821197500001,
                    "velocity": 0.3779527559055118,
                    "duration": 1.8060642499999986
                },
                {
                    "name": "D#3",
                    "midi": 51,
                    "time": 48.0881840000001,
                    "velocity": 0.36220472440944884,
                    "duration": 0.8823519999999974
                },
                {
                    "name": "B1",
                    "midi": 35,
                    "time": 48.0881840000001,
                    "velocity": 0.30708661417322836,
                    "duration": 0.8823519999999974
                },
                {
                    "name": "B2",
                    "midi": 47,
                    "time": 48.970536000000095,
                    "velocity": 0.30708661417322836,
                    "duration": 0.8088226666666642
                },
                {
                    "name": "E2",
                    "midi": 40,
                    "time": 48.970536000000095,
                    "velocity": 0.25196850393700787,
                    "duration": 0.8088226666666642
                },
                {
                    "name": "E3",
                    "midi": 52,
                    "time": 49.797741000000094,
                    "velocity": 0.4094488188976378,
                    "duration": 0.04963229999999896
                },
                {
                    "name": "E2",
                    "midi": 40,
                    "time": 49.85288800000009,
                    "velocity": 0.29133858267716534,
                    "duration": 0.8823520000000045
                },
                {
                    "name": "B2",
                    "midi": 47,
                    "time": 49.85288800000009,
                    "velocity": 0.31496062992125984,
                    "duration": 0.8823520000000045
                },
                {
                    "name": "E3",
                    "midi": 52,
                    "time": 49.85288800000009,
                    "velocity": 0.3464566929133858,
                    "duration": 0.661763999999998
                },
                {
                    "name": "F#3",
                    "midi": 54,
                    "time": 50.51465200000009,
                    "velocity": 0.2755905511811024,
                    "duration": 0.11029400000000322
                },
                {
                    "name": "G#3",
                    "midi": 56,
                    "time": 50.624946000000094,
                    "velocity": 0.2992125984251969,
                    "duration": 0.11029400000000322
                },
                {
                    "name": "A2",
                    "midi": 45,
                    "time": 50.7352400000001,
                    "velocity": 0.29133858267716534,
                    "duration": 0.8823519999999974
                },
                {
                    "name": "E3",
                    "midi": 52,
                    "time": 50.7352400000001,
                    "velocity": 0.31496062992125984,
                    "duration": 0.8823519999999974
                },
                {
                    "name": "A3",
                    "midi": 57,
                    "time": 50.7352400000001,
                    "velocity": 0.3228346456692913,
                    "duration": 0.29411733333333245
                },
                {
                    "name": "A3",
                    "midi": 57,
                    "time": 51.02935733333343,
                    "velocity": 0.31496062992125984,
                    "duration": 0.14705866666666623
                },
                {
                    "name": "A3",
                    "midi": 57,
                    "time": 51.176416000000096,
                    "velocity": 0.3464566929133858,
                    "duration": 0.11764693333333298
                },
                {
                    "name": "G#3",
                    "midi": 56,
                    "time": 51.32347466666676,
                    "velocity": 0.33858267716535434,
                    "duration": 0.11764693333333298
                },
                {
                    "name": "G3",
                    "midi": 55,
                    "time": 51.47053333333343,
                    "velocity": 0.3228346456692913,
                    "duration": 0.11764693333333298
                },
                {
                    "name": "G#3",
                    "midi": 56,
                    "time": 51.617592000000094,
                    "velocity": 0.3464566929133858,
                    "duration": 0.4384186500000027
                },
                {
                    "name": "G#2",
                    "midi": 44,
                    "time": 51.617592000000094,
                    "velocity": 0.28346456692913385,
                    "duration": 0.4411760000000058
                },
                {
                    "name": "E3",
                    "midi": 52,
                    "time": 51.617592000000094,
                    "velocity": 0.28346456692913385,
                    "duration": 0.4411760000000058
                },
                {
                    "name": "E3",
                    "midi": 52,
                    "time": 52.0587680000001,
                    "velocity": 0.2992125984251969,
                    "duration": 0.4411759999999987
                },
                {
                    "name": "C#2",
                    "midi": 37,
                    "time": 52.0587680000001,
                    "velocity": 0.25196850393700787,
                    "duration": 0.4411759999999987
                },
                {
                    "name": "F#3",
                    "midi": 54,
                    "time": 52.4999440000001,
                    "velocity": 0.31496062992125984,
                    "duration": 0.4411759999999987
                },
                {
                    "name": "B1",
                    "midi": 35,
                    "time": 52.4999440000001,
                    "velocity": 0.25984251968503935,
                    "duration": 0.4411759999999987
                },
                {
                    "name": "D#3",
                    "midi": 51,
                    "time": 52.9411200000001,
                    "velocity": 0.29133858267716534,
                    "duration": 0.4411759999999987
                },
                {
                    "name": "B2",
                    "midi": 47,
                    "time": 52.9411200000001,
                    "velocity": 0.2440944881889764,
                    "duration": 0.4411759999999987
                },
                {
                    "name": "E3",
                    "midi": 52,
                    "time": 53.382296000000096,
                    "velocity": 0.33070866141732286,
                    "duration": 0.4411759999999987
                },
                {
                    "name": "E2",
                    "midi": 40,
                    "time": 53.382296000000096,
                    "velocity": 0.28346456692913385,
                    "duration": 0.4411759999999987
                },
                {
                    "name": "B2",
                    "midi": 47,
                    "time": 53.382296000000096,
                    "velocity": 0.28346456692913385,
                    "duration": 0.4411759999999987
                },
                {
                    "name": "C#2",
                    "midi": 37,
                    "time": 55.1470000000001,
                    "velocity": 0.3779527559055118,
                    "duration": 0.22058799999999934
                },
                {
                    "name": "E4",
                    "midi": 64,
                    "time": 55.3675880000001,
                    "velocity": 0.33858267716535434,
                    "duration": 0.661763999999998
                },
                {
                    "name": "C#4",
                    "midi": 61,
                    "time": 55.3675880000001,
                    "velocity": 0.28346456692913385,
                    "duration": 0.661763999999998
                },
                {
                    "name": "G#3",
                    "midi": 56,
                    "time": 55.3675880000001,
                    "velocity": 0.28346456692913385,
                    "duration": 0.661763999999998
                },
                {
                    "name": "E3",
                    "midi": 52,
                    "time": 55.3675880000001,
                    "velocity": 0.28346456692913385,
                    "duration": 0.661763999999998
                },
                {
                    "name": "C#2",
                    "midi": 37,
                    "time": 56.029352000000095,
                    "velocity": 0.3779527559055118,
                    "duration": 0.22058799999999934
                },
                {
                    "name": "G#4",
                    "midi": 68,
                    "time": 56.249940000000095,
                    "velocity": 0.33858267716535434,
                    "duration": 0.661763999999998
                },
                {
                    "name": "E4",
                    "midi": 64,
                    "time": 56.249940000000095,
                    "velocity": 0.28346456692913385,
                    "duration": 0.661763999999998
                },
                {
                    "name": "C#4",
                    "midi": 61,
                    "time": 56.249940000000095,
                    "velocity": 0.28346456692913385,
                    "duration": 0.661763999999998
                },
                {
                    "name": "G#3",
                    "midi": 56,
                    "time": 56.249940000000095,
                    "velocity": 0.28346456692913385,
                    "duration": 0.661763999999998
                },
                {
                    "name": "G#1",
                    "midi": 32,
                    "time": 56.96685100000009,
                    "velocity": 0.3779527559055118,
                    "duration": 0.16544100000000128
                },
                {
                    "name": "G#2",
                    "midi": 44,
                    "time": 56.96685100000009,
                    "velocity": 0.3779527559055118,
                    "duration": 0.16544100000000128
                },
                {
                    "name": "F#3",
                    "midi": 54,
                    "time": 57.13229200000009,
                    "velocity": 0.28346456692913385,
                    "duration": 0.661763999999998
                },
                {
                    "name": "G#3",
                    "midi": 56,
                    "time": 57.13229200000009,
                    "velocity": 0.28346456692913385,
                    "duration": 0.661763999999998
                },
                {
                    "name": "C4",
                    "midi": 60,
                    "time": 57.13229200000009,
                    "velocity": 0.28346456692913385,
                    "duration": 0.661763999999998
                },
                {
                    "name": "D#4",
                    "midi": 63,
                    "time": 57.13229200000009,
                    "velocity": 0.33858267716535434,
                    "duration": 0.661763999999998
                },
                {
                    "name": "C#2",
                    "midi": 37,
                    "time": 57.82162950000009,
                    "velocity": 0.3779527559055118,
                    "duration": 0.19301449999999676
                },
                {
                    "name": "C#3",
                    "midi": 49,
                    "time": 57.82162950000009,
                    "velocity": 0.3779527559055118,
                    "duration": 0.19301449999999676
                },
                {
                    "name": "E3",
                    "midi": 52,
                    "time": 58.01464400000009,
                    "velocity": 0.28346456692913385,
                    "duration": 0.4411759999999987
                },
                {
                    "name": "G#3",
                    "midi": 56,
                    "time": 58.01464400000009,
                    "velocity": 0.28346456692913385,
                    "duration": 0.4411759999999987
                },
                {
                    "name": "C#4",
                    "midi": 61,
                    "time": 58.01464400000009,
                    "velocity": 0.28346456692913385,
                    "duration": 0.4411759999999987
                },
                {
                    "name": "E4",
                    "midi": 64,
                    "time": 58.01464400000009,
                    "velocity": 0.33858267716535434,
                    "duration": 0.4411759999999987
                },
                {
                    "name": "G#3",
                    "midi": 56,
                    "time": 58.56611400000009,
                    "velocity": 0.48031496062992124,
                    "duration": 0.11029400000000322
                },
                {
                    "name": "C#3",
                    "midi": 49,
                    "time": 58.56611400000009,
                    "velocity": 0.4015748031496063,
                    "duration": 0.11029400000000322
                },
                {
                    "name": "F#3",
                    "midi": 54,
                    "time": 58.676408000000094,
                    "velocity": 0.5275590551181102,
                    "duration": 0.661763999999998
                },
                {
                    "name": "F#2",
                    "midi": 42,
                    "time": 58.676408000000094,
                    "velocity": 0.4409448818897638,
                    "duration": 0.661763999999998
                },
                {
                    "name": "C#3",
                    "midi": 49,
                    "time": 58.676408000000094,
                    "velocity": 0.4409448818897638,
                    "duration": 0.661763999999998
                },
                {
                    "name": "F#4",
                    "midi": 66,
                    "time": 59.33817200000009,
                    "velocity": 0.5196850393700787,
                    "duration": 0.20220566666666429
                },
                {
                    "name": "F#4",
                    "midi": 66,
                    "time": 59.55876000000009,
                    "velocity": 0.5511811023622047,
                    "duration": 0.16544100000000128
                },
                {
                    "name": "E4",
                    "midi": 64,
                    "time": 59.72420100000009,
                    "velocity": 0.5275590551181102,
                    "duration": 0.04136024999999677
                },
                {
                    "name": "E4",
                    "midi": 64,
                    "time": 59.77934800000009,
                    "velocity": 0.5511811023622047,
                    "duration": 0.16544100000000128
                },
                {
                    "name": "D#4",
                    "midi": 63,
                    "time": 59.94478900000009,
                    "velocity": 0.5275590551181102,
                    "duration": 0.04136024999999677
                },
                {
                    "name": "D#4",
                    "midi": 63,
                    "time": 59.99993600000009,
                    "velocity": 0.5275590551181102,
                    "duration": 0.22058799999999934
                },
                {
                    "name": "D#4",
                    "midi": 63,
                    "time": 60.33081800000009,
                    "velocity": 0.3543307086614173,
                    "duration": 0.08272050000000064
                },
                {
                    "name": "F#3",
                    "midi": 54,
                    "time": 60.33081800000009,
                    "velocity": 0.2992125984251969,
                    "duration": 0.08272050000000064
                },
                {
                    "name": "A3",
                    "midi": 57,
                    "time": 60.33081800000009,
                    "velocity": 0.2992125984251969,
                    "duration": 0.08272050000000064
                },
                {
                    "name": "G#2",
                    "midi": 44,
                    "time": 60.413538500000094,
                    "velocity": 0.4566929133858268,
                    "duration": 0.46874950000000126
                },
                {
                    "name": "C#4",
                    "midi": 61,
                    "time": 60.441112000000096,
                    "velocity": 0.4094488188976378,
                    "duration": 0.4411759999999987
                },
                {
                    "name": "E4",
                    "midi": 64,
                    "time": 60.882288000000095,
                    "velocity": 0.3937007874015748,
                    "duration": 0.22058799999999934
                },
                {
                    "name": "G#3",
                    "midi": 56,
                    "time": 60.882288000000095,
                    "velocity": 0.33070866141732286,
                    "duration": 0.22058799999999934
                },
                {
                    "name": "G#2",
                    "midi": 44,
                    "time": 61.29589050000009,
                    "velocity": 0.33858267716535434,
                    "duration": 0.24816150000000192
                },
                {
                    "name": "C4",
                    "midi": 60,
                    "time": 61.323464000000094,
                    "velocity": 0.4015748031496063,
                    "duration": 0.22058799999999934
                },
                {
                    "name": "D#4",
                    "midi": 63,
                    "time": 61.76464000000009,
                    "velocity": 0.3464566929133858,
                    "duration": 0.22058799999999934
                },
                {
                    "name": "G#3",
                    "midi": 56,
                    "time": 61.76464000000009,
                    "velocity": 0.29133858267716534,
                    "duration": 0.22058799999999934
                },
                {
                    "name": "C#4",
                    "midi": 61,
                    "time": 62.20581600000009,
                    "velocity": 0.4015748031496063,
                    "duration": 0.4411759999999987
                },
                {
                    "name": "C#3",
                    "midi": 49,
                    "time": 62.20581600000009,
                    "velocity": 0.33858267716535434,
                    "duration": 0.4411759999999987
                },
                {
                    "name": "G#3",
                    "midi": 56,
                    "time": 62.20581600000009,
                    "velocity": 0.33858267716535434,
                    "duration": 0.4411759999999987
                },
                {
                    "name": "F#3",
                    "midi": 54,
                    "time": 62.64699200000009,
                    "velocity": 0.3937007874015748,
                    "duration": 0.4411759999999987
                },
                {
                    "name": "G#2",
                    "midi": 44,
                    "time": 62.64699200000009,
                    "velocity": 0.33070866141732286,
                    "duration": 0.4411759999999987
                },
                {
                    "name": "E3",
                    "midi": 52,
                    "time": 63.08816800000009,
                    "velocity": 0.3937007874015748,
                    "duration": 0.22058799999999934
                },
                {
                    "name": "C#2",
                    "midi": 37,
                    "time": 63.08816800000009,
                    "velocity": 0.33070866141732286,
                    "duration": 0.22058799999999934
                },
                {
                    "name": "C#3",
                    "midi": 49,
                    "time": 63.970520000000086,
                    "velocity": 0.48031496062992124,
                    "duration": 0.05514699999999806
                },
                {
                    "name": "C#2",
                    "midi": 37,
                    "time": 63.970520000000086,
                    "velocity": 0.4330708661417323,
                    "duration": 0.4411760000000342
                },
                {
                    "name": "C3",
                    "midi": 48,
                    "time": 64.02566700000008,
                    "velocity": 0.48031496062992124,
                    "duration": 0.055147000000005164
                },
                {
                    "name": "B2",
                    "midi": 47,
                    "time": 64.08081400000009,
                    "velocity": 0.47244094488188976,
                    "duration": 0.055147000000005164
                },
                {
                    "name": "A#2",
                    "midi": 46,
                    "time": 64.1359610000001,
                    "velocity": 0.4645669291338583,
                    "duration": 0.055147000000005164
                },
                {
                    "name": "A2",
                    "midi": 45,
                    "time": 64.1911080000001,
                    "velocity": 0.4566929133858268,
                    "duration": 0.055147000000005164
                },
                {
                    "name": "G#2",
                    "midi": 44,
                    "time": 64.2462550000001,
                    "velocity": 0.44881889763779526,
                    "duration": 0.055147000000005164
                },
                {
                    "name": "G2",
                    "midi": 43,
                    "time": 64.30140200000011,
                    "velocity": 0.4409448818897638,
                    "duration": 0.055147000000005164
                },
                {
                    "name": "G#2",
                    "midi": 44,
                    "time": 64.35654900000011,
                    "velocity": 0.4330708661417323,
                    "duration": 0.055147000000005164
                },
                {
                    "name": "A2",
                    "midi": 45,
                    "time": 64.41169600000012,
                    "velocity": 0.47244094488188976,
                    "duration": 0.055147000000005164
                },
                {
                    "name": "C2",
                    "midi": 36,
                    "time": 64.41169600000012,
                    "velocity": 0.4330708661417323,
                    "duration": 0.4411760000000413
                },
                {
                    "name": "G#2",
                    "midi": 44,
                    "time": 64.46684300000013,
                    "velocity": 0.41732283464566927,
                    "duration": 0.055147000000005164
                },
                {
                    "name": "G2",
                    "midi": 43,
                    "time": 64.52199000000013,
                    "velocity": 0.41732283464566927,
                    "duration": 0.055147000000005164
                },
                {
                    "name": "F#2",
                    "midi": 42,
                    "time": 64.57713700000014,
                    "velocity": 0.41732283464566927,
                    "duration": 0.055147000000005164
                },
                {
                    "name": "F2",
                    "midi": 41,
                    "time": 64.63228400000014,
                    "velocity": 0.41732283464566927,
                    "duration": 0.055147000000005164
                },
                {
                    "name": "E2",
                    "midi": 40,
                    "time": 64.68743100000015,
                    "velocity": 0.41732283464566927,
                    "duration": 0.055147000000005164
                },
                {
                    "name": "D#2",
                    "midi": 39,
                    "time": 64.74257800000015,
                    "velocity": 0.41732283464566927,
                    "duration": 0.055147000000005164
                },
                {
                    "name": "C2",
                    "midi": 36,
                    "time": 64.79772500000016,
                    "velocity": 0.41732283464566927,
                    "duration": 0.055147000000005164
                },
                {
                    "name": "C#2",
                    "midi": 37,
                    "time": 64.85287200000016,
                    "velocity": 0.4094488188976378,
                    "duration": 0.22058800000002066
                },
                {
                    "name": "D2",
                    "midi": 38,
                    "time": 64.90801900000017,
                    "velocity": 0.4094488188976378,
                    "duration": 0.055147000000005164
                },
                {
                    "name": "D#2",
                    "midi": 39,
                    "time": 64.96316600000017,
                    "velocity": 0.41732283464566927,
                    "duration": 0.055147000000005164
                },
                {
                    "name": "E2",
                    "midi": 40,
                    "time": 65.01831300000018,
                    "velocity": 0.4251968503937008,
                    "duration": 0.055147000000005164
                },
                {
                    "name": "F2",
                    "midi": 41,
                    "time": 65.07346000000018,
                    "velocity": 0.4251968503937008,
                    "duration": 0.055147000000005164
                },
                {
                    "name": "F#1",
                    "midi": 30,
                    "time": 65.07346000000018,
                    "velocity": 0.4015748031496063,
                    "duration": 0.22058800000002066
                },
                {
                    "name": "F#2",
                    "midi": 42,
                    "time": 65.12860700000019,
                    "velocity": 0.4330708661417323,
                    "duration": 0.055147000000005164
                },
                {
                    "name": "F2",
                    "midi": 41,
                    "time": 65.18375400000019,
                    "velocity": 0.4409448818897638,
                    "duration": 0.055147000000005164
                },
                {
                    "name": "F#2",
                    "midi": 42,
                    "time": 65.2389010000002,
                    "velocity": 0.4409448818897638,
                    "duration": 0.055147000000005164
                },
                {
                    "name": "G#1",
                    "midi": 32,
                    "time": 65.2940480000002,
                    "velocity": 0.4015748031496063,
                    "duration": 0.22058800000002066
                },
                {
                    "name": "G2",
                    "midi": 43,
                    "time": 65.2940480000002,
                    "velocity": 0.44881889763779526,
                    "duration": 0.055147000000005164
                },
                {
                    "name": "G#2",
                    "midi": 44,
                    "time": 65.34919500000021,
                    "velocity": 0.4566929133858268,
                    "duration": 0.055147000000005164
                },
                {
                    "name": "G2",
                    "midi": 43,
                    "time": 65.40434200000021,
                    "velocity": 0.4645669291338583,
                    "duration": 0.055147000000005164
                },
                {
                    "name": "G#2",
                    "midi": 44,
                    "time": 65.45948900000022,
                    "velocity": 0.4645669291338583,
                    "duration": 0.055147000000005164
                },
                {
                    "name": "A2",
                    "midi": 45,
                    "time": 65.51463600000022,
                    "velocity": 0.47244094488188976,
                    "duration": 0.055147000000005164
                },
                {
                    "name": "G#2",
                    "midi": 44,
                    "time": 65.56978300000023,
                    "velocity": 0.48031496062992124,
                    "duration": 0.055147000000005164
                },
                {
                    "name": "A2",
                    "midi": 45,
                    "time": 65.62493000000023,
                    "velocity": 0.48031496062992124,
                    "duration": 0.055147000000005164
                },
                {
                    "name": "G#2",
                    "midi": 44,
                    "time": 65.68007700000024,
                    "velocity": 0.4881889763779528,
                    "duration": 0.055147000000005164
                },
                {
                    "name": "C#2",
                    "midi": 37,
                    "time": 65.73522400000024,
                    "velocity": 0.5354330708661418,
                    "duration": 0.11029399999999612
                },
                {
                    "name": "G#2",
                    "midi": 44,
                    "time": 65.73522400000024,
                    "velocity": 0.5354330708661418,
                    "duration": 0.11029399999999612
                },
                {
                    "name": "F#1",
                    "midi": 30,
                    "time": 65.95581200000024,
                    "velocity": 0.4094488188976378,
                    "duration": 0.11029400000001033
                },
                {
                    "name": "C#2",
                    "midi": 37,
                    "time": 65.95581200000024,
                    "velocity": 0.4409448818897638,
                    "duration": 0.04411760000000697
                },
                {
                    "name": "D#2",
                    "midi": 39,
                    "time": 65.99992960000024,
                    "velocity": 0.4015748031496063,
                    "duration": 0.04411760000000697
                },
                {
                    "name": "C#2",
                    "midi": 37,
                    "time": 66.04404720000025,
                    "velocity": 0.4409448818897638,
                    "duration": 0.04411759999999276
                },
                {
                    "name": "D#2",
                    "midi": 39,
                    "time": 66.08816480000024,
                    "velocity": 0.4015748031496063,
                    "duration": 0.04411760000000697
                },
                {
                    "name": "C#2",
                    "midi": 37,
                    "time": 66.13228240000025,
                    "velocity": 0.4015748031496063,
                    "duration": 0.04411760000000697
                },
                {
                    "name": "C2",
                    "midi": 36,
                    "time": 66.17640000000026,
                    "velocity": 0.4409448818897638,
                    "duration": 0.03676466666667011
                },
                {
                    "name": "C#2",
                    "midi": 37,
                    "time": 66.21316466666693,
                    "velocity": 0.4015748031496063,
                    "duration": 0.03676466666667011
                },
                {
                    "name": "D#2",
                    "midi": 39,
                    "time": 66.25084845000026,
                    "velocity": 0.4409448818897638,
                    "duration": 0.03676466666667011
                },
                {
                    "name": "E2",
                    "midi": 40,
                    "time": 66.28761311666693,
                    "velocity": 0.4015748031496063,
                    "duration": 0.03676466666667011
                },
                {
                    "name": "F#2",
                    "midi": 42,
                    "time": 66.3243777833336,
                    "velocity": 0.4409448818897638,
                    "duration": 0.03676466666667011
                },
                {
                    "name": "G#2",
                    "midi": 44,
                    "time": 66.36114245000027,
                    "velocity": 0.4015748031496063,
                    "duration": 0.03676466666667011
                },
                {
                    "name": "A2",
                    "midi": 45,
                    "time": 66.39790711666694,
                    "velocity": 0.4409448818897638,
                    "duration": 0.03676466666667011
                },
                {
                    "name": "G#2",
                    "midi": 44,
                    "time": 66.43559090000028,
                    "velocity": 0.4015748031496063,
                    "duration": 0.03676466666667011
                },
                {
                    "name": "F#2",
                    "midi": 42,
                    "time": 66.47235556666695,
                    "velocity": 0.3937007874015748,
                    "duration": 0.03676466666667011
                },
                {
                    "name": "E2",
                    "midi": 40,
                    "time": 66.50912023333362,
                    "velocity": 0.4015748031496063,
                    "duration": 0.03676466666667011
                },
                {
                    "name": "D#2",
                    "midi": 39,
                    "time": 66.54588490000029,
                    "velocity": 0.4094488188976378,
                    "duration": 0.03676466666667011
                },
                {
                    "name": "C#2",
                    "midi": 37,
                    "time": 66.58264956666696,
                    "velocity": 0.41732283464566927,
                    "duration": 0.03676466666667011
                },
                {
                    "name": "C2",
                    "midi": 36,
                    "time": 66.61941423333363,
                    "velocity": 0.4330708661417323,
                    "duration": 0.03676466666667011
                },
                {
                    "name": "C#2",
                    "midi": 37,
                    "time": 66.65709801666696,
                    "velocity": 0.4409448818897638,
                    "duration": 0.03676466666667011
                },
                {
                    "name": "D#2",
                    "midi": 39,
                    "time": 66.69386268333363,
                    "velocity": 0.44881889763779526,
                    "duration": 0.03676466666667011
                },
                {
                    "name": "E2",
                    "midi": 40,
                    "time": 66.7306273500003,
                    "velocity": 0.4645669291338583,
                    "duration": 0.03676466666667011
                },
                {
                    "name": "D#2",
                    "midi": 39,
                    "time": 66.76739201666697,
                    "velocity": 0.48031496062992124,
                    "duration": 0.03676466666667011
                },
                {
                    "name": "C#2",
                    "midi": 37,
                    "time": 66.80415668333364,
                    "velocity": 0.4881889763779528,
                    "duration": 0.03308820000000878
                },
                {
                    "name": "C#1",
                    "midi": 25,
                    "time": 66.81059050000032,
                    "velocity": 0.4094488188976378,
                    "duration": 0.1378674999999987
                },
                {
                    "name": "E2",
                    "midi": 40,
                    "time": 66.83816400000032,
                    "velocity": 0.4881889763779528,
                    "duration": 0.11029399999999612
                },
                {
                    "name": "G#3",
                    "midi": 56,
                    "time": 67.49992800000031,
                    "velocity": 0.48031496062992124,
                    "duration": 0.055147000000005164
                },
                {
                    "name": "G#2",
                    "midi": 44,
                    "time": 67.49992800000031,
                    "velocity": 0.4330708661417323,
                    "duration": 0.4411760000000413
                },
                {
                    "name": "G3",
                    "midi": 55,
                    "time": 67.55507500000031,
                    "velocity": 0.48031496062992124,
                    "duration": 0.055147000000005164
                },
                {
                    "name": "F#3",
                    "midi": 54,
                    "time": 67.61022200000032,
                    "velocity": 0.47244094488188976,
                    "duration": 0.055147000000005164
                },
                {
                    "name": "F3",
                    "midi": 53,
                    "time": 67.66536900000033,
                    "velocity": 0.4645669291338583,
                    "duration": 0.055147000000005164
                },
                {
                    "name": "E3",
                    "midi": 52,
                    "time": 67.72051600000033,
                    "velocity": 0.4566929133858268,
                    "duration": 0.055147000000005164
                },
                {
                    "name": "D#3",
                    "midi": 51,
                    "time": 67.77566300000034,
                    "velocity": 0.44881889763779526,
                    "duration": 0.055147000000005164
                },
                {
                    "name": "D3",
                    "midi": 50,
                    "time": 67.83081000000034,
                    "velocity": 0.4409448818897638,
                    "duration": 0.055147000000005164
                },
                {
                    "name": "D#3",
                    "midi": 51,
                    "time": 67.88595700000035,
                    "velocity": 0.4330708661417323,
                    "duration": 0.055147000000005164
                },
                {
                    "name": "G2",
                    "midi": 43,
                    "time": 67.94110400000035,
                    "velocity": 0.4330708661417323,
                    "duration": 0.3676466666667011
                },
                {
                    "name": "E3",
                    "midi": 52,
                    "time": 67.94110400000035,
                    "velocity": 0.47244094488188976,
                    "duration": 0.055147000000005164
                },
                {
                    "name": "D#3",
                    "midi": 51,
                    "time": 67.99625100000036,
                    "velocity": 0.41732283464566927,
                    "duration": 0.055147000000005164
                },
                {
                    "name": "D3",
                    "midi": 50,
                    "time": 68.05139800000036,
                    "velocity": 0.41732283464566927,
                    "duration": 0.055147000000005164
                },
                {
                    "name": "C#3",
                    "midi": 49,
                    "time": 68.10654500000037,
                    "velocity": 0.41732283464566927,
                    "duration": 0.055147000000005164
                },
                {
                    "name": "C3",
                    "midi": 48,
                    "time": 68.16169200000037,
                    "velocity": 0.41732283464566927,
                    "duration": 0.055147000000005164
                },
                {
                    "name": "B2",
                    "midi": 47,
                    "time": 68.21683900000038,
                    "velocity": 0.41732283464566927,
                    "duration": 0.055147000000005164
                },
                {
                    "name": "A#2",
                    "midi": 46,
                    "time": 68.27198600000038,
                    "velocity": 0.41732283464566927,
                    "duration": 0.055147000000005164
                },
                {
                    "name": "G2",
                    "midi": 43,
                    "time": 68.32713300000039,
                    "velocity": 0.41732283464566927,
                    "duration": 0.055147000000005164
                },
                {
                    "name": "G#2",
                    "midi": 44,
                    "time": 68.38228000000039,
                    "velocity": 0.4094488188976378,
                    "duration": 0.22058800000002066
                },
                {
                    "name": "A2",
                    "midi": 45,
                    "time": 68.4374270000004,
                    "velocity": 0.4094488188976378,
                    "duration": 0.055147000000005164
                },
                {
                    "name": "A#2",
                    "midi": 46,
                    "time": 68.4925740000004,
                    "velocity": 0.41732283464566927,
                    "duration": 0.055147000000005164
                },
                {
                    "name": "B2",
                    "midi": 47,
                    "time": 68.54772100000041,
                    "velocity": 0.4251968503937008,
                    "duration": 0.055147000000005164
                },
                {
                    "name": "C#2",
                    "midi": 37,
                    "time": 68.60286800000041,
                    "velocity": 0.4015748031496063,
                    "duration": 0.22058800000002066
                },
                {
                    "name": "C3",
                    "midi": 48,
                    "time": 68.60286800000041,
                    "velocity": 0.4251968503937008,
                    "duration": 0.055147000000005164
                },
                {
                    "name": "C#3",
                    "midi": 49,
                    "time": 68.65801500000042,
                    "velocity": 0.4330708661417323,
                    "duration": 0.055147000000005164
                },
                {
                    "name": "C3",
                    "midi": 48,
                    "time": 68.71316200000042,
                    "velocity": 0.4409448818897638,
                    "duration": 0.055147000000005164
                },
                {
                    "name": "C#3",
                    "midi": 49,
                    "time": 68.76830900000043,
                    "velocity": 0.4409448818897638,
                    "duration": 0.055147000000005164
                },
                {
                    "name": "D3",
                    "midi": 50,
                    "time": 68.82345600000043,
                    "velocity": 0.44881889763779526,
                    "duration": 0.055147000000005164
                },
                {
                    "name": "D#3",
                    "midi": 51,
                    "time": 68.87860300000044,
                    "velocity": 0.4566929133858268,
                    "duration": 0.055147000000005164
                },
                {
                    "name": "D3",
                    "midi": 50,
                    "time": 68.93375000000044,
                    "velocity": 0.4645669291338583,
                    "duration": 0.055147000000005164
                },
                {
                    "name": "D#3",
                    "midi": 51,
                    "time": 68.98889700000045,
                    "velocity": 0.4645669291338583,
                    "duration": 0.055147000000005164
                },
                {
                    "name": "E3",
                    "midi": 52,
                    "time": 69.04404400000045,
                    "velocity": 0.47244094488188976,
                    "duration": 0.055147000000005164
                },
                {
                    "name": "D#3",
                    "midi": 51,
                    "time": 69.09919100000046,
                    "velocity": 0.48031496062992124,
                    "duration": 0.055147000000005164
                },
                {
                    "name": "E3",
                    "midi": 52,
                    "time": 69.15433800000046,
                    "velocity": 0.48031496062992124,
                    "duration": 0.055147000000005164
                },
                {
                    "name": "D#3",
                    "midi": 51,
                    "time": 69.20948500000047,
                    "velocity": 0.4881889763779528,
                    "duration": 0.055147000000005164
                },
                {
                    "name": "G#2",
                    "midi": 44,
                    "time": 69.26463200000047,
                    "velocity": 0.4330708661417323,
                    "duration": 0.11029399999999612
                },
                {
                    "name": "D#3",
                    "midi": 51,
                    "time": 69.26463200000047,
                    "velocity": 0.49606299212598426,
                    "duration": 0.11029399999999612
                },
                {
                    "name": "C#2",
                    "midi": 37,
                    "time": 69.48522000000047,
                    "velocity": 0.4094488188976378,
                    "duration": 0.11029400000001033
                },
                {
                    "name": "G#2",
                    "midi": 44,
                    "time": 69.48522000000047,
                    "velocity": 0.4409448818897638,
                    "duration": 0.04411760000000697
                },
                {
                    "name": "A2",
                    "midi": 45,
                    "time": 69.52933760000047,
                    "velocity": 0.4015748031496063,
                    "duration": 0.04411760000000697
                },
                {
                    "name": "G#2",
                    "midi": 44,
                    "time": 69.57345520000048,
                    "velocity": 0.4409448818897638,
                    "duration": 0.04411759999999276
                },
                {
                    "name": "A2",
                    "midi": 45,
                    "time": 69.61757280000047,
                    "velocity": 0.4015748031496063,
                    "duration": 0.04411760000000697
                },
                {
                    "name": "G#2",
                    "midi": 44,
                    "time": 69.66169040000048,
                    "velocity": 0.4015748031496063,
                    "duration": 0.04411760000000697
                },
                {
                    "name": "G2",
                    "midi": 43,
                    "time": 69.70580800000049,
                    "velocity": 0.4409448818897638,
                    "duration": 0.03676466666667011
                },
                {
                    "name": "G#2",
                    "midi": 44,
                    "time": 69.74257266666716,
                    "velocity": 0.4015748031496063,
                    "duration": 0.03676466666667011
                },
                {
                    "name": "A#2",
                    "midi": 46,
                    "time": 69.7802564500005,
                    "velocity": 0.4409448818897638,
                    "duration": 0.03676466666667011
                },
                {
                    "name": "B2",
                    "midi": 47,
                    "time": 69.81702111666716,
                    "velocity": 0.4015748031496063,
                    "duration": 0.03676466666667011
                },
                {
                    "name": "C#3",
                    "midi": 49,
                    "time": 69.85378578333383,
                    "velocity": 0.4409448818897638,
                    "duration": 0.03676466666667011
                },
                {
                    "name": "D#3",
                    "midi": 51,
                    "time": 69.8905504500005,
                    "velocity": 0.4015748031496063,
                    "duration": 0.03676466666667011
                },
                {
                    "name": "E3",
                    "midi": 52,
                    "time": 69.92731511666717,
                    "velocity": 0.4409448818897638,
                    "duration": 0.03676466666667011
                },
                {
                    "name": "D#3",
                    "midi": 51,
                    "time": 69.96499890000051,
                    "velocity": 0.4015748031496063,
                    "duration": 0.03676466666667011
                },
                {
                    "name": "C#3",
                    "midi": 49,
                    "time": 70.00176356666718,
                    "velocity": 0.3937007874015748,
                    "duration": 0.03676466666667011
                },
                {
                    "name": "B2",
                    "midi": 47,
                    "time": 70.03852823333385,
                    "velocity": 0.4015748031496063,
                    "duration": 0.03676466666667011
                },
                {
                    "name": "A#2",
                    "midi": 46,
                    "time": 70.07529290000052,
                    "velocity": 0.4094488188976378,
                    "duration": 0.03676466666667011
                },
                {
                    "name": "G#2",
                    "midi": 44,
                    "time": 70.11205756666719,
                    "velocity": 0.41732283464566927,
                    "duration": 0.03676466666667011
                },
                {
                    "name": "G2",
                    "midi": 43,
                    "time": 70.14882223333386,
                    "velocity": 0.4330708661417323,
                    "duration": 0.03676466666667011
                },
                {
                    "name": "G#2",
                    "midi": 44,
                    "time": 70.1865060166672,
                    "velocity": 0.4409448818897638,
                    "duration": 0.03676466666667011
                },
                {
                    "name": "A#2",
                    "midi": 46,
                    "time": 70.22327068333387,
                    "velocity": 0.44881889763779526,
                    "duration": 0.03676466666667011
                },
                {
                    "name": "B2",
                    "midi": 47,
                    "time": 70.26003535000054,
                    "velocity": 0.4645669291338583,
                    "duration": 0.03676466666667011
                },
                {
                    "name": "A#2",
                    "midi": 46,
                    "time": 70.2968000166672,
                    "velocity": 0.48031496062992124,
                    "duration": 0.03676466666667011
                },
                {
                    "name": "G#2",
                    "midi": 44,
                    "time": 70.33356468333388,
                    "velocity": 0.4881889763779528,
                    "duration": 0.03308819999999457
                },
                {
                    "name": "D#2",
                    "midi": 39,
                    "time": 70.36757200000054,
                    "velocity": 0.4094488188976378,
                    "duration": 0.11029399999999612
                },
                {
                    "name": "G#1",
                    "midi": 32,
                    "time": 70.36757200000054,
                    "velocity": 0.4094488188976378,
                    "duration": 0.11029399999999612
                },
                {
                    "name": "G#2",
                    "midi": 44,
                    "time": 70.36757200000054,
                    "velocity": 0.4881889763779528,
                    "duration": 0.11029399999999612
                },
                {
                    "name": "E4",
                    "midi": 64,
                    "time": 70.97418900000054,
                    "velocity": 0.3937007874015748,
                    "duration": 0.055147000000005164
                },
                {
                    "name": "E5",
                    "midi": 76,
                    "time": 71.02933600000054,
                    "velocity": 0.4645669291338583,
                    "duration": 0.055147000000005164
                },
                {
                    "name": "B4",
                    "midi": 71,
                    "time": 71.02933600000054,
                    "velocity": 0.3937007874015748,
                    "duration": 0.055147000000005164
                },
                {
                    "name": "B3",
                    "midi": 59,
                    "time": 71.41536500000055,
                    "velocity": 0.3858267716535433,
                    "duration": 0.055147000000005164
                },
                {
                    "name": "E5",
                    "midi": 76,
                    "time": 71.47051200000055,
                    "velocity": 0.4566929133858268,
                    "duration": 0.055147000000005164
                },
                {
                    "name": "B4",
                    "midi": 71,
                    "time": 71.47051200000055,
                    "velocity": 0.3858267716535433,
                    "duration": 0.055147000000005164
                },
                {
                    "name": "E4",
                    "midi": 64,
                    "time": 71.85654100000056,
                    "velocity": 0.4330708661417323,
                    "duration": 0.055147000000005164
                },
                {
                    "name": "E5",
                    "midi": 76,
                    "time": 71.91168800000057,
                    "velocity": 0.49606299212598426,
                    "duration": 0.4411759999999987
                },
                {
                    "name": "B4",
                    "midi": 71,
                    "time": 71.91168800000057,
                    "velocity": 0.41732283464566927,
                    "duration": 0.4411759999999987
                },
                {
                    "name": "B3",
                    "midi": 59,
                    "time": 72.35286400000057,
                    "velocity": 0.3464566929133858,
                    "duration": 0.3860289999999935
                },
                {
                    "name": "D#4",
                    "midi": 63,
                    "time": 72.73889300000056,
                    "velocity": 0.44881889763779526,
                    "duration": 0.055147000000005164
                },
                {
                    "name": "F#5",
                    "midi": 78,
                    "time": 72.79404000000056,
                    "velocity": 0.5039370078740157,
                    "duration": 0.4411759999999987
                },
                {
                    "name": "B4",
                    "midi": 71,
                    "time": 72.79404000000056,
                    "velocity": 0.4251968503937008,
                    "duration": 0.4411759999999987
                },
                {
                    "name": "B3",
                    "midi": 59,
                    "time": 73.23521600000056,
                    "velocity": 0.3700787401574803,
                    "duration": 0.4411759999999987
                },
                {
                    "name": "E4",
                    "midi": 64,
                    "time": 73.62124500000056,
                    "velocity": 0.4330708661417323,
                    "duration": 0.055147000000005164
                },
                {
                    "name": "E5",
                    "midi": 76,
                    "time": 73.67639200000056,
                    "velocity": 0.49606299212598426,
                    "duration": 0.4411759999999987
                },
                {
                    "name": "B4",
                    "midi": 71,
                    "time": 73.67639200000056,
                    "velocity": 0.41732283464566927,
                    "duration": 0.4411759999999987
                },
                {
                    "name": "B3",
                    "midi": 59,
                    "time": 74.11756800000056,
                    "velocity": 0.36220472440944884,
                    "duration": 0.3860289999999935
                },
                {
                    "name": "D#4",
                    "midi": 63,
                    "time": 74.50359700000055,
                    "velocity": 0.44881889763779526,
                    "duration": 0.055147000000005164
                },
                {
                    "name": "F#5",
                    "midi": 78,
                    "time": 74.55874400000056,
                    "velocity": 0.5039370078740157,
                    "duration": 0.4411759999999987
                },
                {
                    "name": "B4",
                    "midi": 71,
                    "time": 74.55874400000056,
                    "velocity": 0.4251968503937008,
                    "duration": 0.4411759999999987
                },
                {
                    "name": "B3",
                    "midi": 59,
                    "time": 74.99992000000056,
                    "velocity": 0.3858267716535433,
                    "duration": 0.4411759999999987
                },
                {
                    "name": "E4",
                    "midi": 64,
                    "time": 75.38594900000055,
                    "velocity": 0.4330708661417323,
                    "duration": 0.055147000000005164
                },
                {
                    "name": "E5",
                    "midi": 76,
                    "time": 75.44109600000056,
                    "velocity": 0.49606299212598426,
                    "duration": 0.4411759999999987
                },
                {
                    "name": "B4",
                    "midi": 71,
                    "time": 75.44109600000056,
                    "velocity": 0.41732283464566927,
                    "duration": 0.4411759999999987
                },
                {
                    "name": "B3",
                    "midi": 59,
                    "time": 75.88227200000055,
                    "velocity": 0.3700787401574803,
                    "duration": 0.3860289999999935
                },
                {
                    "name": "D#4",
                    "midi": 63,
                    "time": 76.26830100000055,
                    "velocity": 0.44881889763779526,
                    "duration": 0.055147000000005164
                },
                {
                    "name": "F#5",
                    "midi": 78,
                    "time": 76.32344800000055,
                    "velocity": 0.5039370078740157,
                    "duration": 0.4411759999999987
                },
                {
                    "name": "B4",
                    "midi": 71,
                    "time": 76.32344800000055,
                    "velocity": 0.4251968503937008,
                    "duration": 0.4411759999999987
                },
                {
                    "name": "B3",
                    "midi": 59,
                    "time": 76.76462400000055,
                    "velocity": 0.3779527559055118,
                    "duration": 0.4411759999999987
                },
                {
                    "name": "G#4",
                    "midi": 68,
                    "time": 77.15065300000055,
                    "velocity": 0.44881889763779526,
                    "duration": 0.055147000000005164
                },
                {
                    "name": "E5",
                    "midi": 76,
                    "time": 77.20580000000055,
                    "velocity": 0.49606299212598426,
                    "duration": 0.3860289999999935
                },
                {
                    "name": "B4",
                    "midi": 71,
                    "time": 77.20580000000055,
                    "velocity": 0.41732283464566927,
                    "duration": 0.3860289999999935
                },
                {
                    "name": "E4",
                    "midi": 64,
                    "time": 77.59182900000054,
                    "velocity": 0.3700787401574803,
                    "duration": 0.4411759999999987
                },
                {
                    "name": "B4",
                    "midi": 71,
                    "time": 77.61940250000055,
                    "velocity": 0.4015748031496063,
                    "duration": 0.4136024999999961
                },
                {
                    "name": "G#5",
                    "midi": 80,
                    "time": 77.64697600000055,
                    "velocity": 0.4645669291338583,
                    "duration": 0.3860289999999935
                },
                {
                    "name": "D#4",
                    "midi": 63,
                    "time": 78.03300500000054,
                    "velocity": 0.41732283464566927,
                    "duration": 0.4411759999999987
                },
                {
                    "name": "B4",
                    "midi": 71,
                    "time": 78.06057850000055,
                    "velocity": 0.4566929133858268,
                    "duration": 0.4136024999999961
                },
                {
                    "name": "F#5",
                    "midi": 78,
                    "time": 78.08815200000055,
                    "velocity": 0.5039370078740157,
                    "duration": 0.3860289999999935
                },
                {
                    "name": "C#4",
                    "midi": 61,
                    "time": 78.47418100000054,
                    "velocity": 0.4015748031496063,
                    "duration": 0.4411759999999987
                },
                {
                    "name": "G#4",
                    "midi": 68,
                    "time": 78.50175450000054,
                    "velocity": 0.4251968503937008,
                    "duration": 0.4136024999999961
                },
                {
                    "name": "E5",
                    "midi": 76,
                    "time": 78.52932800000055,
                    "velocity": 0.4645669291338583,
                    "duration": 0.3860289999999935
                },
                {
                    "name": "C4",
                    "midi": 60,
                    "time": 78.91535700000054,
                    "velocity": 0.4094488188976378,
                    "duration": 0.49632300000000384
                },
                {
                    "name": "G#4",
                    "midi": 68,
                    "time": 78.94293050000054,
                    "velocity": 0.4251968503937008,
                    "duration": 0.46874950000000126
                },
                {
                    "name": "D#5",
                    "midi": 75,
                    "time": 78.97050400000055,
                    "velocity": 0.5039370078740157,
                    "duration": 0.4411759999999987
                },
                {
                    "name": "G#3",
                    "midi": 56,
                    "time": 79.41168000000054,
                    "velocity": 0.3937007874015748,
                    "duration": 0.4411759999999987
                },
                {
                    "name": "C#4",
                    "midi": 61,
                    "time": 79.79770900000054,
                    "velocity": 0.41732283464566927,
                    "duration": 0.4411759999999987
                },
                {
                    "name": "G#4",
                    "midi": 68,
                    "time": 79.82528250000054,
                    "velocity": 0.4566929133858268,
                    "duration": 0.4136024999999961
                },
                {
                    "name": "E5",
                    "midi": 76,
                    "time": 79.85285600000054,
                    "velocity": 0.5039370078740157,
                    "duration": 0.3860289999999935
                },
                {
                    "name": "G#3",
                    "midi": 56,
                    "time": 80.29403200000054,
                    "velocity": 0.3937007874015748,
                    "duration": 0.4411759999999987
                },
                {
                    "name": "C4",
                    "midi": 60,
                    "time": 80.68006100000053,
                    "velocity": 0.4094488188976378,
                    "duration": 0.49632300000000384
                },
                {
                    "name": "G#4",
                    "midi": 68,
                    "time": 80.70763450000054,
                    "velocity": 0.4251968503937008,
                    "duration": 0.46874950000000126
                },
                {
                    "name": "D#5",
                    "midi": 75,
                    "time": 80.73520800000054,
                    "velocity": 0.5039370078740157,
                    "duration": 0.4411759999999987
                },
                {
                    "name": "G#3",
                    "midi": 56,
                    "time": 81.17638400000054,
                    "velocity": 0.3937007874015748,
                    "duration": 0.4411759999999987
                },
                {
                    "name": "C#4",
                    "midi": 61,
                    "time": 81.56241300000053,
                    "velocity": 0.41732283464566927,
                    "duration": 0.4411759999999987
                },
                {
                    "name": "G#4",
                    "midi": 68,
                    "time": 81.58998650000053,
                    "velocity": 0.4566929133858268,
                    "duration": 0.4136024999999961
                },
                {
                    "name": "E5",
                    "midi": 76,
                    "time": 81.61756000000054,
                    "velocity": 0.5039370078740157,
                    "duration": 0.3860289999999935
                },
                {
                    "name": "G#3",
                    "midi": 56,
                    "time": 82.05873600000054,
                    "velocity": 0.3937007874015748,
                    "duration": 0.4411759999999987
                },
                {
                    "name": "C4",
                    "midi": 60,
                    "time": 82.44476500000053,
                    "velocity": 0.4094488188976378,
                    "duration": 0.49632300000000384
                },
                {
                    "name": "G#4",
                    "midi": 68,
                    "time": 82.47233850000053,
                    "velocity": 0.4251968503937008,
                    "duration": 0.46874950000000126
                },
                {
                    "name": "D#5",
                    "midi": 75,
                    "time": 82.49991200000053,
                    "velocity": 0.5039370078740157,
                    "duration": 0.4411759999999987
                },
                {
                    "name": "G#3",
                    "midi": 56,
                    "time": 82.94108800000053,
                    "velocity": 0.3937007874015748,
                    "duration": 0.4411759999999987
                },
                {
                    "name": "C#4",
                    "midi": 61,
                    "time": 83.32711700000053,
                    "velocity": 0.41732283464566927,
                    "duration": 0.4411759999999987
                },
                {
                    "name": "G#4",
                    "midi": 68,
                    "time": 83.35469050000053,
                    "velocity": 0.4566929133858268,
                    "duration": 0.4136024999999961
                },
                {
                    "name": "E5",
                    "midi": 76,
                    "time": 83.38226400000053,
                    "velocity": 0.5039370078740157,
                    "duration": 0.3860289999999935
                },
                {
                    "name": "E5",
                    "midi": 76,
                    "time": 83.82344000000053,
                    "velocity": 0.3937007874015748,
                    "duration": 0.4411759999999987
                },
                {
                    "name": "A4",
                    "midi": 69,
                    "time": 83.82344000000053,
                    "velocity": 0.33070866141732286,
                    "duration": 0.4411759999999987
                },
                {
                    "name": "C#5",
                    "midi": 73,
                    "time": 83.82344000000053,
                    "velocity": 0.33070866141732286,
                    "duration": 0.4411759999999987
                },
                {
                    "name": "F#4",
                    "midi": 66,
                    "time": 84.26461600000053,
                    "velocity": 0.4094488188976378,
                    "duration": 0.4411759999999987
                },
                {
                    "name": "C#5",
                    "midi": 73,
                    "time": 84.26461600000053,
                    "velocity": 0.4251968503937008,
                    "duration": 0.4411759999999987
                },
                {
                    "name": "D#5",
                    "midi": 75,
                    "time": 84.26461600000053,
                    "velocity": 0.5039370078740157,
                    "duration": 0.4411759999999987
                },
                {
                    "name": "F#5",
                    "midi": 78,
                    "time": 84.70579200000053,
                    "velocity": 0.3937007874015748,
                    "duration": 0.4411759999999987
                },
                {
                    "name": "D#4",
                    "midi": 63,
                    "time": 84.70579200000053,
                    "velocity": 0.33070866141732286,
                    "duration": 0.4411759999999987
                },
                {
                    "name": "A4",
                    "midi": 69,
                    "time": 84.70579200000053,
                    "velocity": 0.33070866141732286,
                    "duration": 0.4411759999999987
                },
                {
                    "name": "C#5",
                    "midi": 73,
                    "time": 84.70579200000053,
                    "velocity": 0.33070866141732286,
                    "duration": 0.4411759999999987
                },
                {
                    "name": "G#4",
                    "midi": 68,
                    "time": 85.14696800000053,
                    "velocity": 0.4251968503937008,
                    "duration": 0.4411759999999987
                },
                {
                    "name": "C#5",
                    "midi": 73,
                    "time": 85.14696800000053,
                    "velocity": 0.4251968503937008,
                    "duration": 0.4411759999999987
                },
                {
                    "name": "E5",
                    "midi": 76,
                    "time": 85.14696800000053,
                    "velocity": 0.5039370078740157,
                    "duration": 0.4411759999999987
                },
                {
                    "name": "G#4",
                    "midi": 68,
                    "time": 85.58814400000053,
                    "velocity": 0.4251968503937008,
                    "duration": 0.35845550000000515
                },
                {
                    "name": "D#5",
                    "midi": 75,
                    "time": 85.58814400000053,
                    "velocity": 0.4251968503937008,
                    "duration": 0.35845550000000515
                },
                {
                    "name": "F#5",
                    "midi": 78,
                    "time": 85.58814400000053,
                    "velocity": 0.5039370078740157,
                    "duration": 0.35845550000000515
                },
                {
                    "name": "C#4",
                    "midi": 61,
                    "time": 85.94659950000053,
                    "velocity": 0.4251968503937008,
                    "duration": 0.5238965000000064
                },
                {
                    "name": "G#4",
                    "midi": 68,
                    "time": 85.97417300000053,
                    "velocity": 0.4251968503937008,
                    "duration": 0.49632300000000384
                },
                {
                    "name": "C#5",
                    "midi": 73,
                    "time": 86.00174650000054,
                    "velocity": 0.4251968503937008,
                    "duration": 0.46874950000000126
                },
                {
                    "name": "E5",
                    "midi": 76,
                    "time": 86.02932000000054,
                    "velocity": 0.5039370078740157,
                    "duration": 0.4411759999999987
                },
                {
                    "name": "E4",
                    "midi": 64,
                    "time": 87.35284800000053,
                    "velocity": 0.3858267716535433,
                    "duration": 0.4411760000000129
                },
                {
                    "name": "B4",
                    "midi": 71,
                    "time": 87.57343600000054,
                    "velocity": 0.3543307086614173,
                    "duration": 0.055147000000005164
                },
                {
                    "name": "E5",
                    "midi": 76,
                    "time": 87.57343600000054,
                    "velocity": 0.41732283464566927,
                    "duration": 0.055147000000005164
                },
                {
                    "name": "B3",
                    "midi": 59,
                    "time": 87.79402400000055,
                    "velocity": 0.3858267716535433,
                    "duration": 0.4411760000000129
                },
                {
                    "name": "B4",
                    "midi": 71,
                    "time": 88.01461200000055,
                    "velocity": 0.3464566929133858,
                    "duration": 0.055147000000005164
                },
                {
                    "name": "E5",
                    "midi": 76,
                    "time": 88.01461200000055,
                    "velocity": 0.4094488188976378,
                    "duration": 0.055147000000005164
                },
                {
                    "name": "E4",
                    "midi": 64,
                    "time": 88.23520000000056,
                    "velocity": 0.3858267716535433,
                    "duration": 0.4411760000000129
                },
                {
                    "name": "B4",
                    "midi": 71,
                    "time": 88.45578800000057,
                    "velocity": 0.3937007874015748,
                    "duration": 0.055147000000005164
                },
                {
                    "name": "E5",
                    "midi": 76,
                    "time": 88.45578800000057,
                    "velocity": 0.4645669291338583,
                    "duration": 0.055147000000005164
                },
                {
                    "name": "B3",
                    "midi": 59,
                    "time": 88.67637600000057,
                    "velocity": 0.3858267716535433,
                    "duration": 0.4411760000000129
                },
                {
                    "name": "E5",
                    "midi": 76,
                    "time": 88.89696400000058,
                    "velocity": 0.4566929133858268,
                    "duration": 0.055147000000005164
                },
                {
                    "name": "B4",
                    "midi": 71,
                    "time": 88.89696400000058,
                    "velocity": 0.3858267716535433,
                    "duration": 0.055147000000005164
                },
                {
                    "name": "D#4",
                    "midi": 63,
                    "time": 89.11755200000059,
                    "velocity": 0.3858267716535433,
                    "duration": 0.4411760000000129
                },
                {
                    "name": "F#5",
                    "midi": 78,
                    "time": 89.33814000000059,
                    "velocity": 0.4645669291338583,
                    "duration": 0.055147000000005164
                },
                {
                    "name": "B4",
                    "midi": 71,
                    "time": 89.33814000000059,
                    "velocity": 0.3937007874015748,
                    "duration": 0.055147000000005164
                },
                {
                    "name": "B3",
                    "midi": 59,
                    "time": 89.5587280000006,
                    "velocity": 0.3858267716535433,
                    "duration": 0.4411760000000129
                },
                {
                    "name": "D#5",
                    "midi": 75,
                    "time": 89.7793160000006,
                    "velocity": 0.4566929133858268,
                    "duration": 0.055147000000005164
                },
                {
                    "name": "B4",
                    "midi": 71,
                    "time": 89.7793160000006,
                    "velocity": 0.3858267716535433,
                    "duration": 0.055147000000005164
                },
                {
                    "name": "E4",
                    "midi": 64,
                    "time": 89.99990400000061,
                    "velocity": 0.3858267716535433,
                    "duration": 0.4411760000000129
                },
                {
                    "name": "B4",
                    "midi": 71,
                    "time": 90.22049200000062,
                    "velocity": 0.3937007874015748,
                    "duration": 0.055147000000005164
                },
                {
                    "name": "E5",
                    "midi": 76,
                    "time": 90.22049200000062,
                    "velocity": 0.4645669291338583,
                    "duration": 0.055147000000005164
                },
                {
                    "name": "B3",
                    "midi": 59,
                    "time": 90.44108000000062,
                    "velocity": 0.3858267716535433,
                    "duration": 0.4411760000000129
                },
                {
                    "name": "E5",
                    "midi": 76,
                    "time": 90.66166800000063,
                    "velocity": 0.4566929133858268,
                    "duration": 0.055147000000005164
                },
                {
                    "name": "B4",
                    "midi": 71,
                    "time": 90.66166800000063,
                    "velocity": 0.3858267716535433,
                    "duration": 0.055147000000005164
                },
                {
                    "name": "D#4",
                    "midi": 63,
                    "time": 90.88225600000064,
                    "velocity": 0.3858267716535433,
                    "duration": 0.4411760000000129
                },
                {
                    "name": "F#5",
                    "midi": 78,
                    "time": 91.10284400000064,
                    "velocity": 0.4645669291338583,
                    "duration": 0.055147000000005164
                },
                {
                    "name": "B4",
                    "midi": 71,
                    "time": 91.10284400000064,
                    "velocity": 0.3937007874015748,
                    "duration": 0.055147000000005164
                },
                {
                    "name": "B3",
                    "midi": 59,
                    "time": 91.32343200000065,
                    "velocity": 0.3858267716535433,
                    "duration": 0.4411760000000129
                },
                {
                    "name": "D#5",
                    "midi": 75,
                    "time": 91.54402000000066,
                    "velocity": 0.4566929133858268,
                    "duration": 0.055147000000005164
                },
                {
                    "name": "B4",
                    "midi": 71,
                    "time": 91.54402000000066,
                    "velocity": 0.3858267716535433,
                    "duration": 0.055147000000005164
                },
                {
                    "name": "E4",
                    "midi": 64,
                    "time": 91.76460800000066,
                    "velocity": 0.3858267716535433,
                    "duration": 0.4411760000000129
                },
                {
                    "name": "B4",
                    "midi": 71,
                    "time": 91.98519600000067,
                    "velocity": 0.3937007874015748,
                    "duration": 0.055147000000005164
                },
                {
                    "name": "E5",
                    "midi": 76,
                    "time": 91.98519600000067,
                    "velocity": 0.4645669291338583,
                    "duration": 0.055147000000005164
                },
                {
                    "name": "E4",
                    "midi": 64,
                    "time": 92.20578400000068,
                    "velocity": 0.3858267716535433,
                    "duration": 0.4411760000000129
                },
                {
                    "name": "G#5",
                    "midi": 80,
                    "time": 92.42637200000068,
                    "velocity": 0.4566929133858268,
                    "duration": 0.055147000000005164
                },
                {
                    "name": "B4",
                    "midi": 71,
                    "time": 92.42637200000068,
                    "velocity": 0.3858267716535433,
                    "duration": 0.055147000000005164
                },
                {
                    "name": "D#4",
                    "midi": 63,
                    "time": 92.64696000000069,
                    "velocity": 0.3858267716535433,
                    "duration": 0.4411760000000129
                },
                {
                    "name": "F#5",
                    "midi": 78,
                    "time": 92.8675480000007,
                    "velocity": 0.4645669291338583,
                    "duration": 0.055147000000005164
                },
                {
                    "name": "B4",
                    "midi": 71,
                    "time": 92.8675480000007,
                    "velocity": 0.3937007874015748,
                    "duration": 0.055147000000005164
                },
                {
                    "name": "C#4",
                    "midi": 61,
                    "time": 93.0881360000007,
                    "velocity": 0.3858267716535433,
                    "duration": 0.4411760000000129
                },
                {
                    "name": "G#4",
                    "midi": 68,
                    "time": 93.30872400000071,
                    "velocity": 0.3858267716535433,
                    "duration": 0.055147000000005164
                },
                {
                    "name": "E5",
                    "midi": 76,
                    "time": 93.30872400000071,
                    "velocity": 0.4566929133858268,
                    "duration": 0.055147000000005164
                },
                {
                    "name": "C#5",
                    "midi": 73,
                    "time": 93.30872400000071,
                    "velocity": 0.3858267716535433,
                    "duration": 0.055147000000005164
                },
                {
                    "name": "C4",
                    "midi": 60,
                    "time": 93.52931200000071,
                    "velocity": 0.3858267716535433,
                    "duration": 0.4411760000000129
                },
                {
                    "name": "D#5",
                    "midi": 75,
                    "time": 93.74990000000072,
                    "velocity": 0.4645669291338583,
                    "duration": 0.055147000000005164
                },
                {
                    "name": "G#4",
                    "midi": 68,
                    "time": 93.74990000000072,
                    "velocity": 0.3937007874015748,
                    "duration": 0.055147000000005164
                },
                {
                    "name": "G#3",
                    "midi": 56,
                    "time": 93.97048800000073,
                    "velocity": 0.3858267716535433,
                    "duration": 0.4411760000000129
                },
                {
                    "name": "D#4",
                    "midi": 63,
                    "time": 94.19107600000073,
                    "velocity": 0.3858267716535433,
                    "duration": 0.055147000000005164
                },
                {
                    "name": "C5",
                    "midi": 72,
                    "time": 94.19107600000073,
                    "velocity": 0.4566929133858268,
                    "duration": 0.055147000000005164
                },
                {
                    "name": "C#4",
                    "midi": 61,
                    "time": 94.41166400000074,
                    "velocity": 0.3858267716535433,
                    "duration": 0.4411760000000129
                },
                {
                    "name": "E5",
                    "midi": 76,
                    "time": 94.63225200000075,
                    "velocity": 0.4645669291338583,
                    "duration": 0.055147000000005164
                },
                {
                    "name": "G#4",
                    "midi": 68,
                    "time": 94.63225200000075,
                    "velocity": 0.3937007874015748,
                    "duration": 0.055147000000005164
                },
                {
                    "name": "G#3",
                    "midi": 56,
                    "time": 94.85284000000075,
                    "velocity": 0.3858267716535433,
                    "duration": 0.4411760000000129
                },
                {
                    "name": "C#5",
                    "midi": 73,
                    "time": 95.07342800000076,
                    "velocity": 0.4566929133858268,
                    "duration": 0.055147000000005164
                },
                {
                    "name": "G#4",
                    "midi": 68,
                    "time": 95.07342800000076,
                    "velocity": 0.3858267716535433,
                    "duration": 0.055147000000005164
                },
                {
                    "name": "E4",
                    "midi": 64,
                    "time": 95.07342800000076,
                    "velocity": 0.3858267716535433,
                    "duration": 0.055147000000005164
                },
                {
                    "name": "C4",
                    "midi": 60,
                    "time": 95.29401600000077,
                    "velocity": 0.3858267716535433,
                    "duration": 0.4411760000000129
                },
                {
                    "name": "F#4",
                    "midi": 66,
                    "time": 95.51460400000077,
                    "velocity": 0.3937007874015748,
                    "duration": 0.055147000000005164
                },
                {
                    "name": "D#5",
                    "midi": 75,
                    "time": 95.51460400000077,
                    "velocity": 0.4645669291338583,
                    "duration": 0.055147000000005164
                },
                {
                    "name": "G#4",
                    "midi": 68,
                    "time": 95.51460400000077,
                    "velocity": 0.3937007874015748,
                    "duration": 0.055147000000005164
                },
                {
                    "name": "G#3",
                    "midi": 56,
                    "time": 95.73519200000078,
                    "velocity": 0.3858267716535433,
                    "duration": 0.4411760000000129
                },
                {
                    "name": "F#4",
                    "midi": 66,
                    "time": 95.95578000000079,
                    "velocity": 0.3858267716535433,
                    "duration": 0.055147000000005164
                },
                {
                    "name": "D#4",
                    "midi": 63,
                    "time": 95.95578000000079,
                    "velocity": 0.3858267716535433,
                    "duration": 0.055147000000005164
                },
                {
                    "name": "C5",
                    "midi": 72,
                    "time": 95.95578000000079,
                    "velocity": 0.4566929133858268,
                    "duration": 0.055147000000005164
                },
                {
                    "name": "C#4",
                    "midi": 61,
                    "time": 96.17636800000079,
                    "velocity": 0.3858267716535433,
                    "duration": 0.4411760000000129
                },
                {
                    "name": "E5",
                    "midi": 76,
                    "time": 96.3969560000008,
                    "velocity": 0.4645669291338583,
                    "duration": 0.055147000000005164
                },
                {
                    "name": "G#4",
                    "midi": 68,
                    "time": 96.3969560000008,
                    "velocity": 0.3937007874015748,
                    "duration": 0.055147000000005164
                },
                {
                    "name": "E4",
                    "midi": 64,
                    "time": 96.6175440000008,
                    "velocity": 0.3858267716535433,
                    "duration": 0.2757350000000116
                },
                {
                    "name": "E4",
                    "midi": 64,
                    "time": 96.83813200000081,
                    "velocity": 0.3858267716535433,
                    "duration": 0.22058800000000645
                },
                {
                    "name": "C#5",
                    "midi": 73,
                    "time": 96.83813200000081,
                    "velocity": 0.4566929133858268,
                    "duration": 0.055147000000005164
                },
                {
                    "name": "F#4",
                    "midi": 66,
                    "time": 97.05872000000082,
                    "velocity": 0.3858267716535433,
                    "duration": 0.4411760000000129
                },
                {
                    "name": "C#5",
                    "midi": 73,
                    "time": 97.27930800000082,
                    "velocity": 0.3937007874015748,
                    "duration": 0.055147000000005164
                },
                {
                    "name": "D#5",
                    "midi": 75,
                    "time": 97.27930800000082,
                    "velocity": 0.4645669291338583,
                    "duration": 0.055147000000005164
                },
                {
                    "name": "A4",
                    "midi": 69,
                    "time": 97.27930800000082,
                    "velocity": 0.3937007874015748,
                    "duration": 0.055147000000005164
                },
                {
                    "name": "D#4",
                    "midi": 63,
                    "time": 97.49989600000083,
                    "velocity": 0.3858267716535433,
                    "duration": 0.4411759999999987
                },
                {
                    "name": "A4",
                    "midi": 69,
                    "time": 97.72048400000084,
                    "velocity": 0.3858267716535433,
                    "duration": 0.05514699999999095
                },
                {
                    "name": "F#5",
                    "midi": 78,
                    "time": 97.72048400000084,
                    "velocity": 0.4566929133858268,
                    "duration": 0.05514699999999095
                },
                {
                    "name": "C#5",
                    "midi": 73,
                    "time": 97.72324135000083,
                    "velocity": 0.3858267716535433,
                    "duration": 0.05514699999999095
                },
                {
                    "name": "G4",
                    "midi": 67,
                    "time": 97.94107200000083,
                    "velocity": 0.3858267716535433,
                    "duration": 0.4411760000000129
                },
                {
                    "name": "E5",
                    "midi": 76,
                    "time": 98.16166000000084,
                    "velocity": 0.4645669291338583,
                    "duration": 0.055147000000005164
                },
                {
                    "name": "C#5",
                    "midi": 73,
                    "time": 98.16166000000084,
                    "velocity": 0.3937007874015748,
                    "duration": 0.055147000000005164
                },
                {
                    "name": "A#4",
                    "midi": 70,
                    "time": 98.16166000000084,
                    "velocity": 0.3937007874015748,
                    "duration": 0.055147000000005164
                },
                {
                    "name": "G#4",
                    "midi": 68,
                    "time": 98.38224800000084,
                    "velocity": 0.3858267716535433,
                    "duration": 0.4411760000000129
                },
                {
                    "name": "D#5",
                    "midi": 75,
                    "time": 98.60283600000085,
                    "velocity": 0.3858267716535433,
                    "duration": 0.055147000000005164
                },
                {
                    "name": "C5",
                    "midi": 72,
                    "time": 98.60283600000085,
                    "velocity": 0.3858267716535433,
                    "duration": 0.055147000000005164
                },
                {
                    "name": "F#5",
                    "midi": 78,
                    "time": 98.60283600000085,
                    "velocity": 0.4566929133858268,
                    "duration": 0.055147000000005164
                },
                {
                    "name": "C#4",
                    "midi": 61,
                    "time": 98.82342400000086,
                    "velocity": 0.3858267716535433,
                    "duration": 0.4411760000000129
                },
                {
                    "name": "G#4",
                    "midi": 68,
                    "time": 99.04401200000086,
                    "velocity": 0.3937007874015748,
                    "duration": 0.055147000000005164
                },
                {
                    "name": "C#5",
                    "midi": 73,
                    "time": 99.04401200000086,
                    "velocity": 0.3937007874015748,
                    "duration": 0.055147000000005164
                },
                {
                    "name": "E5",
                    "midi": 76,
                    "time": 99.04401200000086,
                    "velocity": 0.4645669291338583,
                    "duration": 0.055147000000005164
                },
                {
                    "name": "E4",
                    "midi": 64,
                    "time": 102.35283200000087,
                    "velocity": 0.30708661417322836,
                    "duration": 0.22058800000000645
                },
                {
                    "name": "B4",
                    "midi": 71,
                    "time": 102.46312600000087,
                    "velocity": 0.31496062992125984,
                    "duration": 0.055147000000005164
                },
                {
                    "name": "G#4",
                    "midi": 68,
                    "time": 102.57342000000088,
                    "velocity": 0.3700787401574803,
                    "duration": 0.055147000000005164
                },
                {
                    "name": "B4",
                    "midi": 71,
                    "time": 102.68371400000089,
                    "velocity": 0.3700787401574803,
                    "duration": 0.055147000000005164
                },
                {
                    "name": "B3",
                    "midi": 59,
                    "time": 102.7940080000009,
                    "velocity": 0.30708661417322836,
                    "duration": 0.22058800000000645
                },
                {
                    "name": "B4",
                    "midi": 71,
                    "time": 102.9043020000009,
                    "velocity": 0.30708661417322836,
                    "duration": 0.055147000000005164
                },
                {
                    "name": "G#4",
                    "midi": 68,
                    "time": 103.0145960000009,
                    "velocity": 0.36220472440944884,
                    "duration": 0.055147000000005164
                },
                {
                    "name": "B4",
                    "midi": 71,
                    "time": 103.12489000000092,
                    "velocity": 0.30708661417322836,
                    "duration": 0.055147000000005164
                },
                {
                    "name": "E4",
                    "midi": 64,
                    "time": 103.23518400000093,
                    "velocity": 0.30708661417322836,
                    "duration": 0.22058800000000645
                },
                {
                    "name": "B4",
                    "midi": 71,
                    "time": 103.34547800000092,
                    "velocity": 0.31496062992125984,
                    "duration": 0.055147000000005164
                },
                {
                    "name": "G#4",
                    "midi": 68,
                    "time": 103.45577200000093,
                    "velocity": 0.3700787401574803,
                    "duration": 0.055147000000005164
                },
                {
                    "name": "B4",
                    "midi": 71,
                    "time": 103.56606600000094,
                    "velocity": 0.3700787401574803,
                    "duration": 0.055147000000005164
                },
                {
                    "name": "B3",
                    "midi": 59,
                    "time": 103.67636000000095,
                    "velocity": 0.30708661417322836,
                    "duration": 0.22058800000000645
                },
                {
                    "name": "B4",
                    "midi": 71,
                    "time": 103.78665400000095,
                    "velocity": 0.30708661417322836,
                    "duration": 0.055147000000005164
                },
                {
                    "name": "G#4",
                    "midi": 68,
                    "time": 103.89694800000096,
                    "velocity": 0.36220472440944884,
                    "duration": 0.055147000000005164
                },
                {
                    "name": "B4",
                    "midi": 71,
                    "time": 104.00724200000097,
                    "velocity": 0.30708661417322836,
                    "duration": 0.055147000000005164
                },
                {
                    "name": "F#4",
                    "midi": 66,
                    "time": 104.11753600000098,
                    "velocity": 0.30708661417322836,
                    "duration": 0.22058800000000645
                },
                {
                    "name": "B4",
                    "midi": 71,
                    "time": 104.22783000000098,
                    "velocity": 0.31496062992125984,
                    "duration": 0.055147000000005164
                },
                {
                    "name": "A4",
                    "midi": 69,
                    "time": 104.33812400000099,
                    "velocity": 0.3700787401574803,
                    "duration": 0.055147000000005164
                },
                {
                    "name": "B4",
                    "midi": 71,
                    "time": 104.448418000001,
                    "velocity": 0.3700787401574803,
                    "duration": 0.055147000000005164
                },
                {
                    "name": "B3",
                    "midi": 59,
                    "time": 104.55871200000101,
                    "velocity": 0.30708661417322836,
                    "duration": 0.22058800000000645
                },
                {
                    "name": "B4",
                    "midi": 71,
                    "time": 104.669006000001,
                    "velocity": 0.30708661417322836,
                    "duration": 0.055147000000005164
                },
                {
                    "name": "A4",
                    "midi": 69,
                    "time": 104.77930000000102,
                    "velocity": 0.36220472440944884,
                    "duration": 0.055147000000005164
                },
                {
                    "name": "B4",
                    "midi": 71,
                    "time": 104.88959400000103,
                    "velocity": 0.30708661417322836,
                    "duration": 0.055147000000005164
                },
                {
                    "name": "E4",
                    "midi": 64,
                    "time": 104.99988800000104,
                    "velocity": 0.30708661417322836,
                    "duration": 0.22058800000000645
                },
                {
                    "name": "B4",
                    "midi": 71,
                    "time": 105.11018200000103,
                    "velocity": 0.31496062992125984,
                    "duration": 0.055147000000005164
                },
                {
                    "name": "G#4",
                    "midi": 68,
                    "time": 105.22047600000104,
                    "velocity": 0.3700787401574803,
                    "duration": 0.055147000000005164
                },
                {
                    "name": "B4",
                    "midi": 71,
                    "time": 105.33077000000105,
                    "velocity": 0.3700787401574803,
                    "duration": 0.055147000000005164
                },
                {
                    "name": "B3",
                    "midi": 59,
                    "time": 105.44106400000106,
                    "velocity": 0.30708661417322836,
                    "duration": 0.22058800000000645
                },
                {
                    "name": "B4",
                    "midi": 71,
                    "time": 105.55135800000106,
                    "velocity": 0.30708661417322836,
                    "duration": 0.055147000000005164
                },
                {
                    "name": "G#4",
                    "midi": 68,
                    "time": 105.66165200000107,
                    "velocity": 0.36220472440944884,
                    "duration": 0.055147000000005164
                },
                {
                    "name": "B4",
                    "midi": 71,
                    "time": 105.77194600000108,
                    "velocity": 0.30708661417322836,
                    "duration": 0.055147000000005164
                },
                {
                    "name": "F#4",
                    "midi": 66,
                    "time": 105.88224000000109,
                    "velocity": 0.30708661417322836,
                    "duration": 0.22058800000000645
                },
                {
                    "name": "B4",
                    "midi": 71,
                    "time": 105.99253400000109,
                    "velocity": 0.31496062992125984,
                    "duration": 0.055147000000005164
                },
                {
                    "name": "A4",
                    "midi": 69,
                    "time": 106.1028280000011,
                    "velocity": 0.3700787401574803,
                    "duration": 0.055147000000005164
                },
                {
                    "name": "B4",
                    "midi": 71,
                    "time": 106.2131220000011,
                    "velocity": 0.3700787401574803,
                    "duration": 0.055147000000005164
                },
                {
                    "name": "B3",
                    "midi": 59,
                    "time": 106.32341600000112,
                    "velocity": 0.30708661417322836,
                    "duration": 0.22058800000000645
                },
                {
                    "name": "B4",
                    "midi": 71,
                    "time": 106.43371000000111,
                    "velocity": 0.30708661417322836,
                    "duration": 0.055147000000005164
                },
                {
                    "name": "A4",
                    "midi": 69,
                    "time": 106.54400400000112,
                    "velocity": 0.36220472440944884,
                    "duration": 0.055147000000005164
                },
                {
                    "name": "B4",
                    "midi": 71,
                    "time": 106.65429800000113,
                    "velocity": 0.30708661417322836,
                    "duration": 0.055147000000005164
                },
                {
                    "name": "E4",
                    "midi": 64,
                    "time": 106.76459200000114,
                    "velocity": 0.30708661417322836,
                    "duration": 0.22058800000000645
                },
                {
                    "name": "B4",
                    "midi": 71,
                    "time": 106.87488600000114,
                    "velocity": 0.31496062992125984,
                    "duration": 0.055147000000005164
                },
                {
                    "name": "G#4",
                    "midi": 68,
                    "time": 106.98518000000115,
                    "velocity": 0.3700787401574803,
                    "duration": 0.055147000000005164
                },
                {
                    "name": "B4",
                    "midi": 71,
                    "time": 107.09547400000116,
                    "velocity": 0.3700787401574803,
                    "duration": 0.055147000000005164
                },
                {
                    "name": "E4",
                    "midi": 64,
                    "time": 107.20576800000117,
                    "velocity": 0.30708661417322836,
                    "duration": 0.22058800000000645
                },
                {
                    "name": "B4",
                    "midi": 71,
                    "time": 107.31606200000117,
                    "velocity": 0.30708661417322836,
                    "duration": 0.055147000000005164
                },
                {
                    "name": "G#4",
                    "midi": 68,
                    "time": 107.42635600000118,
                    "velocity": 0.36220472440944884,
                    "duration": 0.055147000000005164
                },
                {
                    "name": "B4",
                    "midi": 71,
                    "time": 107.53665000000119,
                    "velocity": 0.30708661417322836,
                    "duration": 0.055147000000005164
                },
                {
                    "name": "D#4",
                    "midi": 63,
                    "time": 107.6469440000012,
                    "velocity": 0.30708661417322836,
                    "duration": 0.22058800000000645
                },
                {
                    "name": "B4",
                    "midi": 71,
                    "time": 107.7572380000012,
                    "velocity": 0.31496062992125984,
                    "duration": 0.055147000000005164
                },
                {
                    "name": "F#4",
                    "midi": 66,
                    "time": 107.8675320000012,
                    "velocity": 0.3700787401574803,
                    "duration": 0.055147000000005164
                },
                {
                    "name": "B4",
                    "midi": 71,
                    "time": 107.97782600000122,
                    "velocity": 0.3700787401574803,
                    "duration": 0.055147000000005164
                },
                {
                    "name": "C#4",
                    "midi": 61,
                    "time": 108.08812000000123,
                    "velocity": 0.30708661417322836,
                    "duration": 0.22058800000000645
                },
                {
                    "name": "G#4",
                    "midi": 68,
                    "time": 108.19841400000122,
                    "velocity": 0.30708661417322836,
                    "duration": 0.055147000000005164
                },
                {
                    "name": "E4",
                    "midi": 64,
                    "time": 108.30870800000123,
                    "velocity": 0.36220472440944884,
                    "duration": 0.055147000000005164
                },
                {
                    "name": "G#4",
                    "midi": 68,
                    "time": 108.41900200000124,
                    "velocity": 0.30708661417322836,
                    "duration": 0.055147000000005164
                },
                {
                    "name": "C4",
                    "midi": 60,
                    "time": 108.52929600000125,
                    "velocity": 0.30708661417322836,
                    "duration": 0.22058800000000645
                },
                {
                    "name": "G#4",
                    "midi": 68,
                    "time": 108.63959000000125,
                    "velocity": 0.31496062992125984,
                    "duration": 0.055147000000005164
                },
                {
                    "name": "D#4",
                    "midi": 63,
                    "time": 108.74988400000126,
                    "velocity": 0.3700787401574803,
                    "duration": 0.055147000000005164
                },
                {
                    "name": "G#4",
                    "midi": 68,
                    "time": 108.86017800000127,
                    "velocity": 0.3700787401574803,
                    "duration": 0.055147000000005164
                },
                {
                    "name": "G#3",
                    "midi": 56,
                    "time": 108.97047200000128,
                    "velocity": 0.30708661417322836,
                    "duration": 0.22058800000000645
                },
                {
                    "name": "G#4",
                    "midi": 68,
                    "time": 109.08076600000128,
                    "velocity": 0.30708661417322836,
                    "duration": 0.055147000000005164
                },
                {
                    "name": "D#4",
                    "midi": 63,
                    "time": 109.19106000000129,
                    "velocity": 0.36220472440944884,
                    "duration": 0.055147000000005164
                },
                {
                    "name": "G#4",
                    "midi": 68,
                    "time": 109.3013540000013,
                    "velocity": 0.30708661417322836,
                    "duration": 0.055147000000005164
                },
                {
                    "name": "C#4",
                    "midi": 61,
                    "time": 109.4116480000013,
                    "velocity": 0.30708661417322836,
                    "duration": 0.22058800000000645
                },
                {
                    "name": "G#4",
                    "midi": 68,
                    "time": 109.5219420000013,
                    "velocity": 0.31496062992125984,
                    "duration": 0.055147000000005164
                },
                {
                    "name": "E4",
                    "midi": 64,
                    "time": 109.63223600000131,
                    "velocity": 0.3700787401574803,
                    "duration": 0.055147000000005164
                },
                {
                    "name": "G#4",
                    "midi": 68,
                    "time": 109.74253000000132,
                    "velocity": 0.3700787401574803,
                    "duration": 0.055147000000005164
                },
                {
                    "name": "G#3",
                    "midi": 56,
                    "time": 109.85282400000133,
                    "velocity": 0.30708661417322836,
                    "duration": 0.22058800000000645
                },
                {
                    "name": "G#4",
                    "midi": 68,
                    "time": 109.96311800000133,
                    "velocity": 0.30708661417322836,
                    "duration": 0.055147000000005164
                },
                {
                    "name": "E4",
                    "midi": 64,
                    "time": 110.07341200000134,
                    "velocity": 0.36220472440944884,
                    "duration": 0.055147000000005164
                },
                {
                    "name": "G#4",
                    "midi": 68,
                    "time": 110.18370600000135,
                    "velocity": 0.30708661417322836,
                    "duration": 0.055147000000005164
                },
                {
                    "name": "C4",
                    "midi": 60,
                    "time": 110.29400000000136,
                    "velocity": 0.30708661417322836,
                    "duration": 0.22058800000000645
                },
                {
                    "name": "G#4",
                    "midi": 68,
                    "time": 110.40429400000136,
                    "velocity": 0.31496062992125984,
                    "duration": 0.055147000000005164
                },
                {
                    "name": "D#4",
                    "midi": 63,
                    "time": 110.51458800000137,
                    "velocity": 0.3700787401574803,
                    "duration": 0.055147000000005164
                },
                {
                    "name": "G#4",
                    "midi": 68,
                    "time": 110.62488200000138,
                    "velocity": 0.3700787401574803,
                    "duration": 0.055147000000005164
                },
                {
                    "name": "G#3",
                    "midi": 56,
                    "time": 110.73517600000139,
                    "velocity": 0.30708661417322836,
                    "duration": 0.22058800000000645
                },
                {
                    "name": "G#4",
                    "midi": 68,
                    "time": 110.84547000000138,
                    "velocity": 0.30708661417322836,
                    "duration": 0.055147000000005164
                },
                {
                    "name": "D#4",
                    "midi": 63,
                    "time": 110.9557640000014,
                    "velocity": 0.36220472440944884,
                    "duration": 0.055147000000005164
                },
                {
                    "name": "G#4",
                    "midi": 68,
                    "time": 111.0660580000014,
                    "velocity": 0.30708661417322836,
                    "duration": 0.055147000000005164
                },
                {
                    "name": "C#4",
                    "midi": 61,
                    "time": 111.17635200000142,
                    "velocity": 0.30708661417322836,
                    "duration": 0.22058800000000645
                },
                {
                    "name": "G#4",
                    "midi": 68,
                    "time": 111.28664600000141,
                    "velocity": 0.31496062992125984,
                    "duration": 0.055147000000005164
                },
                {
                    "name": "E4",
                    "midi": 64,
                    "time": 111.39694000000142,
                    "velocity": 0.3700787401574803,
                    "duration": 0.055147000000005164
                },
                {
                    "name": "G#4",
                    "midi": 68,
                    "time": 111.50723400000143,
                    "velocity": 0.3700787401574803,
                    "duration": 0.055147000000005164
                },
                {
                    "name": "G#3",
                    "midi": 56,
                    "time": 111.61752800000144,
                    "velocity": 0.30708661417322836,
                    "duration": 0.22058800000000645
                },
                {
                    "name": "G#4",
                    "midi": 68,
                    "time": 111.72782200000144,
                    "velocity": 0.30708661417322836,
                    "duration": 0.055147000000005164
                },
                {
                    "name": "E4",
                    "midi": 64,
                    "time": 111.83811600000145,
                    "velocity": 0.36220472440944884,
                    "duration": 0.055147000000005164
                },
                {
                    "name": "G#4",
                    "midi": 68,
                    "time": 111.94841000000146,
                    "velocity": 0.30708661417322836,
                    "duration": 0.055147000000005164
                },
                {
                    "name": "C4",
                    "midi": 60,
                    "time": 112.05870400000147,
                    "velocity": 0.30708661417322836,
                    "duration": 0.22058800000000645
                },
                {
                    "name": "G#4",
                    "midi": 68,
                    "time": 112.16899800000147,
                    "velocity": 0.31496062992125984,
                    "duration": 0.055147000000005164
                },
                {
                    "name": "D#4",
                    "midi": 63,
                    "time": 112.27929200000148,
                    "velocity": 0.3700787401574803,
                    "duration": 0.055147000000005164
                },
                {
                    "name": "G#4",
                    "midi": 68,
                    "time": 112.38958600000149,
                    "velocity": 0.3700787401574803,
                    "duration": 0.055147000000005164
                },
                {
                    "name": "G#3",
                    "midi": 56,
                    "time": 112.4998800000015,
                    "velocity": 0.30708661417322836,
                    "duration": 0.22058800000000645
                },
                {
                    "name": "G#4",
                    "midi": 68,
                    "time": 112.61017400000149,
                    "velocity": 0.30708661417322836,
                    "duration": 0.055147000000005164
                },
                {
                    "name": "D#4",
                    "midi": 63,
                    "time": 112.7204680000015,
                    "velocity": 0.36220472440944884,
                    "duration": 0.055147000000005164
                },
                {
                    "name": "G#4",
                    "midi": 68,
                    "time": 112.83076200000151,
                    "velocity": 0.30708661417322836,
                    "duration": 0.055147000000005164
                },
                {
                    "name": "C#4",
                    "midi": 61,
                    "time": 112.94105600000152,
                    "velocity": 0.30708661417322836,
                    "duration": 0.22058800000000645
                },
                {
                    "name": "G#4",
                    "midi": 68,
                    "time": 113.05135000000152,
                    "velocity": 0.31496062992125984,
                    "duration": 0.055147000000005164
                },
                {
                    "name": "E4",
                    "midi": 64,
                    "time": 113.16164400000153,
                    "velocity": 0.3700787401574803,
                    "duration": 0.055147000000005164
                },
                {
                    "name": "G#4",
                    "midi": 68,
                    "time": 113.27193800000154,
                    "velocity": 0.3700787401574803,
                    "duration": 0.055147000000005164
                },
                {
                    "name": "G#3",
                    "midi": 56,
                    "time": 113.38223200000155,
                    "velocity": 0.30708661417322836,
                    "duration": 0.22058800000000645
                },
                {
                    "name": "G#4",
                    "midi": 68,
                    "time": 113.49252600000155,
                    "velocity": 0.30708661417322836,
                    "duration": 0.055147000000005164
                },
                {
                    "name": "D#4",
                    "midi": 63,
                    "time": 113.60282000000156,
                    "velocity": 0.28346456692913385,
                    "duration": 0.055147000000005164
                },
                {
                    "name": "F#4",
                    "midi": 66,
                    "time": 113.60282000000156,
                    "velocity": 0.36220472440944884,
                    "duration": 0.055147000000005164
                },
                {
                    "name": "G#4",
                    "midi": 68,
                    "time": 113.71311400000157,
                    "velocity": 0.30708661417322836,
                    "duration": 0.055147000000005164
                },
                {
                    "name": "C#4",
                    "midi": 61,
                    "time": 113.82340800000158,
                    "velocity": 0.36220472440944884,
                    "duration": 0.22058799999999223
                },
                {
                    "name": "F5",
                    "midi": 77,
                    "time": 113.93370200000157,
                    "velocity": 0.29133858267716534,
                    "duration": 0.11029399999999612
                },
                {
                    "name": "G#4",
                    "midi": 68,
                    "time": 114.04399600000157,
                    "velocity": 0.3779527559055118,
                    "duration": 0.11029399999999612
                },
                {
                    "name": "F5",
                    "midi": 77,
                    "time": 114.15429000000157,
                    "velocity": 0.30708661417322836,
                    "duration": 0.11029399999999612
                },
                {
                    "name": "C#5",
                    "midi": 73,
                    "time": 114.26458400000156,
                    "velocity": 0.3700787401574803,
                    "duration": 0.11029399999999612
                },
                {
                    "name": "F5",
                    "midi": 77,
                    "time": 114.37487800000156,
                    "velocity": 0.30708661417322836,
                    "duration": 0.11029399999999612
                },
                {
                    "name": "G#4",
                    "midi": 68,
                    "time": 114.48517200000155,
                    "velocity": 0.3779527559055118,
                    "duration": 0.11029399999999612
                },
                {
                    "name": "F5",
                    "midi": 77,
                    "time": 114.59546600000155,
                    "velocity": 0.33070866141732286,
                    "duration": 0.11029399999999612
                },
                {
                    "name": "C#4",
                    "midi": 61,
                    "time": 114.70576000000155,
                    "velocity": 0.3937007874015748,
                    "duration": 0.22058799999999223
                },
                {
                    "name": "F5",
                    "midi": 77,
                    "time": 114.81605400000154,
                    "velocity": 0.33858267716535434,
                    "duration": 0.11029399999999612
                },
                {
                    "name": "G#4",
                    "midi": 68,
                    "time": 114.92634800000154,
                    "velocity": 0.3937007874015748,
                    "duration": 0.11029399999999612
                },
                {
                    "name": "F5",
                    "midi": 77,
                    "time": 115.03664200000154,
                    "velocity": 0.3543307086614173,
                    "duration": 0.11029399999999612
                },
                {
                    "name": "C#5",
                    "midi": 73,
                    "time": 115.14693600000153,
                    "velocity": 0.4094488188976378,
                    "duration": 0.11029399999999612
                },
                {
                    "name": "F5",
                    "midi": 77,
                    "time": 115.25723000000153,
                    "velocity": 0.36220472440944884,
                    "duration": 0.11029399999999612
                },
                {
                    "name": "G#4",
                    "midi": 68,
                    "time": 115.36752400000152,
                    "velocity": 0.41732283464566927,
                    "duration": 0.11029399999999612
                },
                {
                    "name": "F5",
                    "midi": 77,
                    "time": 115.47781800000152,
                    "velocity": 0.3779527559055118,
                    "duration": 0.11029399999999612
                },
                {
                    "name": "C#4",
                    "midi": 61,
                    "time": 115.58811200000152,
                    "velocity": 0.4094488188976378,
                    "duration": 0.22058799999999223
                },
                {
                    "name": "F5",
                    "midi": 77,
                    "time": 115.69840600000151,
                    "velocity": 0.3464566929133858,
                    "duration": 0.11029399999999612
                },
                {
                    "name": "G#4",
                    "midi": 68,
                    "time": 115.80870000000151,
                    "velocity": 0.4015748031496063,
                    "duration": 0.11029399999999612
                },
                {
                    "name": "F5",
                    "midi": 77,
                    "time": 115.9189940000015,
                    "velocity": 0.3543307086614173,
                    "duration": 0.11029399999999612
                },
                {
                    "name": "C#5",
                    "midi": 73,
                    "time": 116.0292880000015,
                    "velocity": 0.41732283464566927,
                    "duration": 0.11029399999999612
                },
                {
                    "name": "F5",
                    "midi": 77,
                    "time": 116.1395820000015,
                    "velocity": 0.36220472440944884,
                    "duration": 0.11029399999999612
                },
                {
                    "name": "G#4",
                    "midi": 68,
                    "time": 116.24987600000149,
                    "velocity": 0.4094488188976378,
                    "duration": 0.11029399999999612
                },
                {
                    "name": "F5",
                    "midi": 77,
                    "time": 116.36017000000149,
                    "velocity": 0.3700787401574803,
                    "duration": 0.11029399999999612
                },
                {
                    "name": "C#4",
                    "midi": 61,
                    "time": 116.47046400000148,
                    "velocity": 0.3779527559055118,
                    "duration": 0.22058799999999223
                },
                {
                    "name": "F5",
                    "midi": 77,
                    "time": 116.58075800000148,
                    "velocity": 0.28346456692913385,
                    "duration": 0.11029399999999612
                },
                {
                    "name": "G#4",
                    "midi": 68,
                    "time": 116.69105200000148,
                    "velocity": 0.3858267716535433,
                    "duration": 0.11029399999999612
                },
                {
                    "name": "F5",
                    "midi": 77,
                    "time": 116.80134600000147,
                    "velocity": 0.33858267716535434,
                    "duration": 0.11029399999999612
                },
                {
                    "name": "C#5",
                    "midi": 73,
                    "time": 116.91164000000147,
                    "velocity": 0.4015748031496063,
                    "duration": 0.11029399999999612
                },
                {
                    "name": "F5",
                    "midi": 77,
                    "time": 117.02193400000147,
                    "velocity": 0.3464566929133858,
                    "duration": 0.11029399999999612
                },
                {
                    "name": "G#4",
                    "midi": 68,
                    "time": 117.13222800000146,
                    "velocity": 0.3937007874015748,
                    "duration": 0.11029399999999612
                },
                {
                    "name": "F5",
                    "midi": 77,
                    "time": 117.24252200000146,
                    "velocity": 0.33858267716535434,
                    "duration": 0.11029399999999612
                },
                {
                    "name": "C#4",
                    "midi": 61,
                    "time": 117.35281600000145,
                    "velocity": 0.3779527559055118,
                    "duration": 0.11029399999999612
                },
                {
                    "name": "F5",
                    "midi": 77,
                    "time": 117.46311000000145,
                    "velocity": 0.2755905511811024,
                    "duration": 0.11029399999999612
                },
                {
                    "name": "G#4",
                    "midi": 68,
                    "time": 117.57340400000145,
                    "velocity": 0.3700787401574803,
                    "duration": 0.11029399999999612
                },
                {
                    "name": "F5",
                    "midi": 77,
                    "time": 117.68369800000144,
                    "velocity": 0.31496062992125984,
                    "duration": 0.11029399999999612
                },
                {
                    "name": "C#4",
                    "midi": 61,
                    "time": 117.79399200000144,
                    "velocity": 0.36220472440944884,
                    "duration": 0.11029399999999612
                },
                {
                    "name": "F5",
                    "midi": 77,
                    "time": 117.90428600000143,
                    "velocity": 0.30708661417322836,
                    "duration": 0.11029399999999612
                },
                {
                    "name": "G#4",
                    "midi": 68,
                    "time": 118.01458000000143,
                    "velocity": 0.3464566929133858,
                    "duration": 0.11029399999999612
                },
                {
                    "name": "F5",
                    "midi": 77,
                    "time": 118.12487400000143,
                    "velocity": 0.28346456692913385,
                    "duration": 0.11029399999999612
                },
                {
                    "name": "C#4",
                    "midi": 61,
                    "time": 118.23516800000142,
                    "velocity": 0.31496062992125984,
                    "duration": 0.11029399999999612
                },
                {
                    "name": "F5",
                    "midi": 77,
                    "time": 118.34546200000142,
                    "velocity": 0.2283464566929134,
                    "duration": 0.11029399999999612
                },
                {
                    "name": "G#4",
                    "midi": 68,
                    "time": 118.45575600000141,
                    "velocity": 0.30708661417322836,
                    "duration": 0.11029399999999612
                },
                {
                    "name": "F5",
                    "midi": 77,
                    "time": 118.56605000000141,
                    "velocity": 0.25984251968503935,
                    "duration": 0.11029399999999612
                },
                {
                    "name": "C#4",
                    "midi": 61,
                    "time": 118.67634400000141,
                    "velocity": 0.2992125984251969,
                    "duration": 0.11029399999999612
                },
                {
                    "name": "F5",
                    "midi": 77,
                    "time": 118.7866380000014,
                    "velocity": 0.25196850393700787,
                    "duration": 0.11029399999999612
                },
                {
                    "name": "G#4",
                    "midi": 68,
                    "time": 118.8969320000014,
                    "velocity": 0.28346456692913385,
                    "duration": 0.11029399999999612
                },
                {
                    "name": "F5",
                    "midi": 77,
                    "time": 119.0072260000014,
                    "velocity": 0.007874015748031496,
                    "duration": 0.11029399999999612
                },
                {
                    "name": "C#4",
                    "midi": 61,
                    "time": 119.11752000000139,
                    "velocity": 0.25984251968503935,
                    "duration": 0.11029399999999612
                },
                {
                    "name": "F5",
                    "midi": 77,
                    "time": 119.22781400000139,
                    "velocity": 0.1968503937007874,
                    "duration": 0.11029399999999612
                },
                {
                    "name": "G#4",
                    "midi": 68,
                    "time": 119.33810800000138,
                    "velocity": 0.2677165354330709,
                    "duration": 0.11029399999999612
                },
                {
                    "name": "F5",
                    "midi": 77,
                    "time": 119.44840200000138,
                    "velocity": 0.23622047244094488,
                    "duration": 0.11029399999999612
                },
                {
                    "name": "C#4",
                    "midi": 61,
                    "time": 119.55869600000138,
                    "velocity": 0.2755905511811024,
                    "duration": 0.11029399999999612
                },
                {
                    "name": "F5",
                    "midi": 77,
                    "time": 119.66899000000137,
                    "velocity": 0.23622047244094488,
                    "duration": 0.11029399999999612
                },
                {
                    "name": "G#4",
                    "midi": 68,
                    "time": 119.77928400000137,
                    "velocity": 0.2755905511811024,
                    "duration": 0.11029399999999612
                },
                {
                    "name": "F5",
                    "midi": 77,
                    "time": 119.88957800000136,
                    "velocity": 0.23622047244094488,
                    "duration": 0.11029399999999612
                },
                {
                    "name": "C#4",
                    "midi": 61,
                    "time": 119.99987200000136,
                    "velocity": 0.25984251968503935,
                    "duration": 0.22058800000000645
                },
                {
                    "name": "F5",
                    "midi": 77,
                    "time": 120.22046000000137,
                    "velocity": 0.23622047244094488,
                    "duration": 0.22058800000000645
                },
                {
                    "name": "G#4",
                    "midi": 68,
                    "time": 120.22046000000137,
                    "velocity": 0.23622047244094488,
                    "duration": 0.22058800000000645
                },
                {
                    "name": "A2",
                    "midi": 45,
                    "time": 121.76457600000137,
                    "velocity": 0.3464566929133858,
                    "duration": 0.08823519999999974
                },
                {
                    "name": "E3",
                    "midi": 52,
                    "time": 121.87487000000137,
                    "velocity": 0.2677165354330709,
                    "duration": 0.08823519999999974
                },
                {
                    "name": "A3",
                    "midi": 57,
                    "time": 121.98516400000136,
                    "velocity": 0.2755905511811024,
                    "duration": 0.08823519999999974
                },
                {
                    "name": "C#4",
                    "midi": 61,
                    "time": 122.09545800000136,
                    "velocity": 0.28346456692913385,
                    "duration": 0.08823519999999974
                },
                {
                    "name": "E4",
                    "midi": 64,
                    "time": 122.20575200000135,
                    "velocity": 0.29133858267716534,
                    "duration": 0.08823519999999974
                },
                {
                    "name": "A4",
                    "midi": 69,
                    "time": 122.31604600000135,
                    "velocity": 0.2992125984251969,
                    "duration": 0.08823519999999974
                },
                {
                    "name": "C#5",
                    "midi": 73,
                    "time": 122.42634000000135,
                    "velocity": 0.28346456692913385,
                    "duration": 0.08823519999999974
                },
                {
                    "name": "G#2",
                    "midi": 44,
                    "time": 122.64692800000135,
                    "velocity": 0.3464566929133858,
                    "duration": 0.08823519999999974
                },
                {
                    "name": "F3",
                    "midi": 53,
                    "time": 122.75722200000135,
                    "velocity": 0.2677165354330709,
                    "duration": 0.08823519999999974
                },
                {
                    "name": "B3",
                    "midi": 59,
                    "time": 122.86751600000134,
                    "velocity": 0.2755905511811024,
                    "duration": 0.08823519999999974
                },
                {
                    "name": "C#4",
                    "midi": 61,
                    "time": 122.97781000000134,
                    "velocity": 0.28346456692913385,
                    "duration": 0.08823519999999974
                },
                {
                    "name": "F4",
                    "midi": 65,
                    "time": 123.08810400000134,
                    "velocity": 0.29133858267716534,
                    "duration": 0.08823519999999974
                },
                {
                    "name": "B4",
                    "midi": 71,
                    "time": 123.19839800000133,
                    "velocity": 0.2992125984251969,
                    "duration": 0.08823519999999974
                },
                {
                    "name": "C#5",
                    "midi": 73,
                    "time": 123.30869200000133,
                    "velocity": 0.28346456692913385,
                    "duration": 0.08823519999999974
                },
                {
                    "name": "F#2",
                    "midi": 42,
                    "time": 123.52928000000134,
                    "velocity": 0.3464566929133858,
                    "duration": 0.08823519999999974
                },
                {
                    "name": "C#3",
                    "midi": 49,
                    "time": 123.63957400000133,
                    "velocity": 0.2677165354330709,
                    "duration": 0.08823519999999974
                },
                {
                    "name": "F#3",
                    "midi": 54,
                    "time": 123.74986800000133,
                    "velocity": 0.2755905511811024,
                    "duration": 0.08823519999999974
                },
                {
                    "name": "A3",
                    "midi": 57,
                    "time": 123.86016200000132,
                    "velocity": 0.28346456692913385,
                    "duration": 0.08823519999999974
                },
                {
                    "name": "C#4",
                    "midi": 61,
                    "time": 123.97045600000132,
                    "velocity": 0.29133858267716534,
                    "duration": 0.08823519999999974
                },
                {
                    "name": "F#4",
                    "midi": 66,
                    "time": 124.08075000000132,
                    "velocity": 0.2992125984251969,
                    "duration": 0.08823519999999974
                },
                {
                    "name": "A4",
                    "midi": 69,
                    "time": 124.19104400000131,
                    "velocity": 0.28346456692913385,
                    "duration": 0.08823519999999974
                },
                {
                    "name": "C#2",
                    "midi": 37,
                    "time": 124.41163200000132,
                    "velocity": 0.3464566929133858,
                    "duration": 0.08823519999999974
                },
                {
                    "name": "C#3",
                    "midi": 49,
                    "time": 124.52192600000132,
                    "velocity": 0.2677165354330709,
                    "duration": 0.08823519999999974
                },
                {
                    "name": "F3",
                    "midi": 53,
                    "time": 124.63222000000131,
                    "velocity": 0.2755905511811024,
                    "duration": 0.08823519999999974
                },
                {
                    "name": "G#3",
                    "midi": 56,
                    "time": 124.74251400000131,
                    "velocity": 0.28346456692913385,
                    "duration": 0.08823519999999974
                },
                {
                    "name": "C#4",
                    "midi": 61,
                    "time": 124.8528080000013,
                    "velocity": 0.29133858267716534,
                    "duration": 0.08823519999999974
                },
                {
                    "name": "F4",
                    "midi": 65,
                    "time": 124.9631020000013,
                    "velocity": 0.2992125984251969,
                    "duration": 0.08823519999999974
                },
                {
                    "name": "G#4",
                    "midi": 68,
                    "time": 125.0733960000013,
                    "velocity": 0.28346456692913385,
                    "duration": 0.08823519999999974
                },
                {
                    "name": "A2",
                    "midi": 45,
                    "time": 125.2939840000013,
                    "velocity": 0.3464566929133858,
                    "duration": 0.08823519999999974
                },
                {
                    "name": "E3",
                    "midi": 52,
                    "time": 125.4042780000013,
                    "velocity": 0.2677165354330709,
                    "duration": 0.08823519999999974
                },
                {
                    "name": "A3",
                    "midi": 57,
                    "time": 125.5145720000013,
                    "velocity": 0.2755905511811024,
                    "duration": 0.08823519999999974
                },
                {
                    "name": "C#4",
                    "midi": 61,
                    "time": 125.62486600000129,
                    "velocity": 0.28346456692913385,
                    "duration": 0.08823519999999974
                },
                {
                    "name": "E4",
                    "midi": 64,
                    "time": 125.73516000000129,
                    "velocity": 0.29133858267716534,
                    "duration": 0.08823519999999974
                },
                {
                    "name": "A4",
                    "midi": 69,
                    "time": 125.84545400000128,
                    "velocity": 0.2992125984251969,
                    "duration": 0.08823519999999974
                },
                {
                    "name": "C#5",
                    "midi": 73,
                    "time": 125.95574800000128,
                    "velocity": 0.28346456692913385,
                    "duration": 0.08823519999999974
                },
                {
                    "name": "G#2",
                    "midi": 44,
                    "time": 126.17633600000129,
                    "velocity": 0.3464566929133858,
                    "duration": 0.08823519999999974
                },
                {
                    "name": "F3",
                    "midi": 53,
                    "time": 126.28663000000128,
                    "velocity": 0.2677165354330709,
                    "duration": 0.08823519999999974
                },
                {
                    "name": "B3",
                    "midi": 59,
                    "time": 126.39692400000128,
                    "velocity": 0.2755905511811024,
                    "duration": 0.08823519999999974
                },
                {
                    "name": "C#4",
                    "midi": 61,
                    "time": 126.50721800000127,
                    "velocity": 0.28346456692913385,
                    "duration": 0.08823519999999974
                },
                {
                    "name": "F4",
                    "midi": 65,
                    "time": 126.61751200000127,
                    "velocity": 0.29133858267716534,
                    "duration": 0.08823519999999974
                },
                {
                    "name": "B4",
                    "midi": 71,
                    "time": 126.72780600000127,
                    "velocity": 0.2992125984251969,
                    "duration": 0.08823519999999974
                },
                {
                    "name": "C#5",
                    "midi": 73,
                    "time": 126.83810000000126,
                    "velocity": 0.28346456692913385,
                    "duration": 0.08823519999999974
                },
                {
                    "name": "F#2",
                    "midi": 42,
                    "time": 127.05868800000127,
                    "velocity": 0.3464566929133858,
                    "duration": 0.22058800000000645
                },
                {
                    "name": "F#4",
                    "midi": 66,
                    "time": 127.27927600000127,
                    "velocity": 0.2755905511811024,
                    "duration": 0.22058800000000645
                },
                {
                    "name": "C#4",
                    "midi": 61,
                    "time": 127.27927600000127,
                    "velocity": 0.2755905511811024,
                    "duration": 0.22058800000000645
                },
                {
                    "name": "A4",
                    "midi": 69,
                    "time": 127.27927600000127,
                    "velocity": 0.2755905511811024,
                    "duration": 0.22058800000000645
                },
                {
                    "name": "C#2",
                    "midi": 37,
                    "time": 127.49986400000128,
                    "velocity": 0.29133858267716534,
                    "duration": 0.22058800000000645
                },
                {
                    "name": "F4",
                    "midi": 65,
                    "time": 127.72045200000129,
                    "velocity": 0.28346456692913385,
                    "duration": 0.22058800000000645
                },
                {
                    "name": "B3",
                    "midi": 59,
                    "time": 127.72045200000129,
                    "velocity": 0.28346456692913385,
                    "duration": 0.22058800000000645
                },
                {
                    "name": "G#4",
                    "midi": 68,
                    "time": 127.72045200000129,
                    "velocity": 0.28346456692913385,
                    "duration": 0.22058800000000645
                },
                {
                    "name": "F#2",
                    "midi": 42,
                    "time": 127.9410400000013,
                    "velocity": 0.3464566929133858,
                    "duration": 0.22058799999999223
                },
                {
                    "name": "A#3",
                    "midi": 58,
                    "time": 128.1616280000013,
                    "velocity": 0.28346456692913385,
                    "duration": 0.6617640000000051
                },
                {
                    "name": "A#4",
                    "midi": 70,
                    "time": 128.1616280000013,
                    "velocity": 0.28346456692913385,
                    "duration": 0.6617640000000051
                },
                {
                    "name": "F#4",
                    "midi": 66,
                    "time": 128.1616280000013,
                    "velocity": 0.28346456692913385,
                    "duration": 0.6617640000000051
                },
                {
                    "name": "A2",
                    "midi": 45,
                    "time": 128.8233920000013,
                    "velocity": 0.3464566929133858,
                    "duration": 0.08823520000001395
                },
                {
                    "name": "E3",
                    "midi": 52,
                    "time": 128.9336860000013,
                    "velocity": 0.2677165354330709,
                    "duration": 0.08823520000001395
                },
                {
                    "name": "A3",
                    "midi": 57,
                    "time": 129.0439800000013,
                    "velocity": 0.28346456692913385,
                    "duration": 0.08823520000001395
                },
                {
                    "name": "C#4",
                    "midi": 61,
                    "time": 129.15427400000132,
                    "velocity": 0.2992125984251969,
                    "duration": 0.08823520000001395
                },
                {
                    "name": "E4",
                    "midi": 64,
                    "time": 129.26456800000133,
                    "velocity": 0.31496062992125984,
                    "duration": 0.08823520000001395
                },
                {
                    "name": "A4",
                    "midi": 69,
                    "time": 129.37486200000134,
                    "velocity": 0.33070866141732286,
                    "duration": 0.08823520000001395
                },
                {
                    "name": "C#5",
                    "midi": 73,
                    "time": 129.48515600000135,
                    "velocity": 0.3464566929133858,
                    "duration": 0.08823520000001395
                },
                {
                    "name": "G#2",
                    "midi": 44,
                    "time": 129.70574400000137,
                    "velocity": 0.3464566929133858,
                    "duration": 0.08823520000001395
                },
                {
                    "name": "F3",
                    "midi": 53,
                    "time": 129.81603800000138,
                    "velocity": 0.2677165354330709,
                    "duration": 0.08823520000001395
                },
                {
                    "name": "B3",
                    "midi": 59,
                    "time": 129.9263320000014,
                    "velocity": 0.2755905511811024,
                    "duration": 0.08823520000001395
                },
                {
                    "name": "C#4",
                    "midi": 61,
                    "time": 130.0366260000014,
                    "velocity": 0.28346456692913385,
                    "duration": 0.08823520000001395
                },
                {
                    "name": "F4",
                    "midi": 65,
                    "time": 130.14692000000142,
                    "velocity": 0.29133858267716534,
                    "duration": 0.08823520000001395
                },
                {
                    "name": "B4",
                    "midi": 71,
                    "time": 130.25721400000143,
                    "velocity": 0.2992125984251969,
                    "duration": 0.08823520000001395
                },
                {
                    "name": "C#5",
                    "midi": 73,
                    "time": 130.36750800000144,
                    "velocity": 0.28346456692913385,
                    "duration": 0.08823520000001395
                },
                {
                    "name": "F#2",
                    "midi": 42,
                    "time": 130.58809600000146,
                    "velocity": 0.3464566929133858,
                    "duration": 0.08823520000001395
                },
                {
                    "name": "C#3",
                    "midi": 49,
                    "time": 130.69839000000147,
                    "velocity": 0.33070866141732286,
                    "duration": 0.08823520000001395
                },
                {
                    "name": "F#3",
                    "midi": 54,
                    "time": 130.80868400000148,
                    "velocity": 0.3228346456692913,
                    "duration": 0.08823520000001395
                },
                {
                    "name": "A3",
                    "midi": 57,
                    "time": 130.9189780000015,
                    "velocity": 0.3228346456692913,
                    "duration": 0.08823520000001395
                },
                {
                    "name": "C#4",
                    "midi": 61,
                    "time": 131.0292720000015,
                    "velocity": 0.31496062992125984,
                    "duration": 0.08823520000001395
                },
                {
                    "name": "F#4",
                    "midi": 66,
                    "time": 131.1395660000015,
                    "velocity": 0.30708661417322836,
                    "duration": 0.08823520000001395
                },
                {
                    "name": "A4",
                    "midi": 69,
                    "time": 131.24986000000152,
                    "velocity": 0.2992125984251969,
                    "duration": 0.08823520000001395
                },
                {
                    "name": "C#2",
                    "midi": 37,
                    "time": 131.47044800000154,
                    "velocity": 0.3464566929133858,
                    "duration": 0.08823520000001395
                },
                {
                    "name": "C#3",
                    "midi": 49,
                    "time": 131.58074200000155,
                    "velocity": 0.2677165354330709,
                    "duration": 0.08823520000001395
                },
                {
                    "name": "F3",
                    "midi": 53,
                    "time": 131.69103600000156,
                    "velocity": 0.2755905511811024,
                    "duration": 0.08823520000001395
                },
                {
                    "name": "G#3",
                    "midi": 56,
                    "time": 131.80133000000157,
                    "velocity": 0.28346456692913385,
                    "duration": 0.08823520000001395
                },
                {
                    "name": "C#4",
                    "midi": 61,
                    "time": 131.91162400000158,
                    "velocity": 0.29133858267716534,
                    "duration": 0.08823520000001395
                },
                {
                    "name": "F4",
                    "midi": 65,
                    "time": 132.0219180000016,
                    "velocity": 0.2992125984251969,
                    "duration": 0.08823520000001395
                },
                {
                    "name": "G#4",
                    "midi": 68,
                    "time": 132.1322120000016,
                    "velocity": 0.28346456692913385,
                    "duration": 0.08823520000001395
                },
                {
                    "name": "A2",
                    "midi": 45,
                    "time": 132.35280000000162,
                    "velocity": 0.3464566929133858,
                    "duration": 0.08823520000001395
                },
                {
                    "name": "E3",
                    "midi": 52,
                    "time": 132.46309400000163,
                    "velocity": 0.2677165354330709,
                    "duration": 0.08823520000001395
                },
                {
                    "name": "A3",
                    "midi": 57,
                    "time": 132.57338800000164,
                    "velocity": 0.2755905511811024,
                    "duration": 0.08823520000001395
                },
                {
                    "name": "C#4",
                    "midi": 61,
                    "time": 132.68368200000165,
                    "velocity": 0.28346456692913385,
                    "duration": 0.08823520000001395
                },
                {
                    "name": "E4",
                    "midi": 64,
                    "time": 132.79397600000166,
                    "velocity": 0.29133858267716534,
                    "duration": 0.08823520000001395
                },
                {
                    "name": "A4",
                    "midi": 69,
                    "time": 132.90427000000167,
                    "velocity": 0.2992125984251969,
                    "duration": 0.08823520000001395
                },
                {
                    "name": "C#5",
                    "midi": 73,
                    "time": 133.01456400000168,
                    "velocity": 0.28346456692913385,
                    "duration": 0.08823520000001395
                },
                {
                    "name": "G#2",
                    "midi": 44,
                    "time": 133.2351520000017,
                    "velocity": 0.3464566929133858,
                    "duration": 0.08823520000001395
                },
                {
                    "name": "F3",
                    "midi": 53,
                    "time": 133.34544600000171,
                    "velocity": 0.2677165354330709,
                    "duration": 0.08823520000001395
                },
                {
                    "name": "B3",
                    "midi": 59,
                    "time": 133.45574000000173,
                    "velocity": 0.2440944881889764,
                    "duration": 0.08823520000001395
                },
                {
                    "name": "C#4",
                    "midi": 61,
                    "time": 133.56603400000174,
                    "velocity": 0.25196850393700787,
                    "duration": 0.08823520000001395
                },
                {
                    "name": "F4",
                    "midi": 65,
                    "time": 133.67632800000175,
                    "velocity": 0.25984251968503935,
                    "duration": 0.08823520000001395
                },
                {
                    "name": "B4",
                    "midi": 71,
                    "time": 133.78662200000176,
                    "velocity": 0.2677165354330709,
                    "duration": 0.08823520000001395
                },
                {
                    "name": "C#5",
                    "midi": 73,
                    "time": 133.89691600000177,
                    "velocity": 0.25196850393700787,
                    "duration": 0.08823520000001395
                },
                {
                    "name": "F#2",
                    "midi": 42,
                    "time": 134.1175040000018,
                    "velocity": 0.25984251968503935,
                    "duration": 0.22058799999999223
                },
                {
                    "name": "C#4",
                    "midi": 61,
                    "time": 134.33809200000178,
                    "velocity": 0.2047244094488189,
                    "duration": 0.22058799999999223
                },
                {
                    "name": "A4",
                    "midi": 69,
                    "time": 134.33809200000178,
                    "velocity": 0.2047244094488189,
                    "duration": 0.22058799999999223
                },
                {
                    "name": "F#4",
                    "midi": 66,
                    "time": 134.33809200000178,
                    "velocity": 0.2047244094488189,
                    "duration": 0.22058799999999223
                },
                {
                    "name": "C#2",
                    "midi": 37,
                    "time": 134.55868000000177,
                    "velocity": 0.2125984251968504,
                    "duration": 0.22058799999999223
                },
                {
                    "name": "F4",
                    "midi": 65,
                    "time": 134.77926800000176,
                    "velocity": 0.2125984251968504,
                    "duration": 0.22058799999999223
                },
                {
                    "name": "B3",
                    "midi": 59,
                    "time": 134.77926800000176,
                    "velocity": 0.2125984251968504,
                    "duration": 0.22058799999999223
                },
                {
                    "name": "G#4",
                    "midi": 68,
                    "time": 134.77926800000176,
                    "velocity": 0.2125984251968504,
                    "duration": 0.22058799999999223
                },
                {
                    "name": "F#2",
                    "midi": 42,
                    "time": 134.99985600000176,
                    "velocity": 0.25984251968503935,
                    "duration": 0.22058800000002066
                },
                {
                    "name": "A#3",
                    "midi": 58,
                    "time": 135.17908375000175,
                    "velocity": 0.2125984251968504,
                    "duration": 0.7031242500000303
                },
                {
                    "name": "C#4",
                    "midi": 61,
                    "time": 135.19287050000176,
                    "velocity": 0.2125984251968504,
                    "duration": 0.6893375000000219
                },
                {
                    "name": "F#4",
                    "midi": 66,
                    "time": 135.20665725000177,
                    "velocity": 0.2125984251968504,
                    "duration": 0.6755507500000135
                },
                {
                    "name": "A#4",
                    "midi": 70,
                    "time": 135.22044400000178,
                    "velocity": 0.2125984251968504,
                    "duration": 0.6617640000000051
                },
                {
                    "name": "C#3",
                    "midi": 49,
                    "time": 135.88220800000178,
                    "velocity": 0.4251968503937008,
                    "duration": 0.08823520000001395
                },
                {
                    "name": "C#2",
                    "midi": 37,
                    "time": 135.88220800000178,
                    "velocity": 0.36220472440944884,
                    "duration": 0.08823520000001395
                },
                {
                    "name": "C3",
                    "midi": 48,
                    "time": 135.9925020000018,
                    "velocity": 0.3779527559055118,
                    "duration": 0.08823520000001395
                },
                {
                    "name": "C2",
                    "midi": 36,
                    "time": 135.9925020000018,
                    "velocity": 0.31496062992125984,
                    "duration": 0.08823520000001395
                },
                {
                    "name": "B1",
                    "midi": 35,
                    "time": 136.1027960000018,
                    "velocity": 0.31496062992125984,
                    "duration": 0.08823520000001395
                },
                {
                    "name": "B2",
                    "midi": 47,
                    "time": 136.1027960000018,
                    "velocity": 0.3779527559055118,
                    "duration": 0.08823520000001395
                },
                {
                    "name": "A#2",
                    "midi": 46,
                    "time": 136.2130900000018,
                    "velocity": 0.3779527559055118,
                    "duration": 0.08823520000001395
                },
                {
                    "name": "A#1",
                    "midi": 34,
                    "time": 136.2130900000018,
                    "velocity": 0.31496062992125984,
                    "duration": 0.08823520000001395
                },
                {
                    "name": "A2",
                    "midi": 45,
                    "time": 136.32338400000182,
                    "velocity": 0.3779527559055118,
                    "duration": 0.08823520000001395
                },
                {
                    "name": "A1",
                    "midi": 33,
                    "time": 136.32338400000182,
                    "velocity": 0.31496062992125984,
                    "duration": 0.08823520000001395
                },
                {
                    "name": "G#1",
                    "midi": 32,
                    "time": 136.43367800000183,
                    "velocity": 0.3228346456692913,
                    "duration": 0.08823520000001395
                },
                {
                    "name": "G#2",
                    "midi": 44,
                    "time": 136.43367800000183,
                    "velocity": 0.3779527559055118,
                    "duration": 0.08823520000001395
                },
                {
                    "name": "G2",
                    "midi": 43,
                    "time": 136.54397200000184,
                    "velocity": 0.4015748031496063,
                    "duration": 0.08823520000001395
                },
                {
                    "name": "G1",
                    "midi": 31,
                    "time": 136.54397200000184,
                    "velocity": 0.33858267716535434,
                    "duration": 0.08823520000001395
                },
                {
                    "name": "G#2",
                    "midi": 44,
                    "time": 136.65426600000185,
                    "velocity": 0.4330708661417323,
                    "duration": 0.08823520000001395
                },
                {
                    "name": "G#1",
                    "midi": 32,
                    "time": 136.65426600000185,
                    "velocity": 0.36220472440944884,
                    "duration": 0.08823520000001395
                },
                {
                    "name": "A1",
                    "midi": 33,
                    "time": 136.76456000000186,
                    "velocity": 0.3779527559055118,
                    "duration": 0.08823520000001395
                },
                {
                    "name": "A2",
                    "midi": 45,
                    "time": 136.76456000000186,
                    "velocity": 0.44881889763779526,
                    "duration": 0.08823520000001395
                },
                {
                    "name": "G#2",
                    "midi": 44,
                    "time": 136.87485400000187,
                    "velocity": 0.4251968503937008,
                    "duration": 0.08823520000001395
                },
                {
                    "name": "G#1",
                    "midi": 32,
                    "time": 136.87485400000187,
                    "velocity": 0.3543307086614173,
                    "duration": 0.08823520000001395
                },
                {
                    "name": "G2",
                    "midi": 43,
                    "time": 136.98514800000189,
                    "velocity": 0.3779527559055118,
                    "duration": 0.08823520000001395
                },
                {
                    "name": "G1",
                    "midi": 31,
                    "time": 136.98514800000189,
                    "velocity": 0.3228346456692913,
                    "duration": 0.08823520000001395
                },
                {
                    "name": "F#2",
                    "midi": 42,
                    "time": 137.0954420000019,
                    "velocity": 0.3779527559055118,
                    "duration": 0.08823520000001395
                },
                {
                    "name": "F#1",
                    "midi": 30,
                    "time": 137.0954420000019,
                    "velocity": 0.3228346456692913,
                    "duration": 0.08823520000001395
                },
                {
                    "name": "F1",
                    "midi": 29,
                    "time": 137.2057360000019,
                    "velocity": 0.3228346456692913,
                    "duration": 0.08823520000001395
                },
                {
                    "name": "F2",
                    "midi": 41,
                    "time": 137.2057360000019,
                    "velocity": 0.3779527559055118,
                    "duration": 0.08823520000001395
                },
                {
                    "name": "E2",
                    "midi": 40,
                    "time": 137.31603000000192,
                    "velocity": 0.3779527559055118,
                    "duration": 0.08823520000001395
                },
                {
                    "name": "E1",
                    "midi": 28,
                    "time": 137.31603000000192,
                    "velocity": 0.3228346456692913,
                    "duration": 0.08823520000001395
                },
                {
                    "name": "D#2",
                    "midi": 39,
                    "time": 137.42632400000193,
                    "velocity": 0.3779527559055118,
                    "duration": 0.08823520000001395
                },
                {
                    "name": "D#1",
                    "midi": 27,
                    "time": 137.42632400000193,
                    "velocity": 0.31496062992125984,
                    "duration": 0.08823520000001395
                },
                {
                    "name": "C1",
                    "midi": 24,
                    "time": 137.53661800000194,
                    "velocity": 0.31496062992125984,
                    "duration": 0.08823520000001395
                },
                {
                    "name": "C2",
                    "midi": 36,
                    "time": 137.53661800000194,
                    "velocity": 0.3779527559055118,
                    "duration": 0.08823520000001395
                },
                {
                    "name": "C#1",
                    "midi": 25,
                    "time": 137.64691200000195,
                    "velocity": 0.36220472440944884,
                    "duration": 0.08823520000001395
                },
                {
                    "name": "C#2",
                    "midi": 37,
                    "time": 137.64691200000195,
                    "velocity": 0.4251968503937008,
                    "duration": 0.08823520000001395
                },
                {
                    "name": "D2",
                    "midi": 38,
                    "time": 137.75720600000196,
                    "velocity": 0.3700787401574803,
                    "duration": 0.08823520000001395
                },
                {
                    "name": "D1",
                    "midi": 26,
                    "time": 137.75720600000196,
                    "velocity": 0.30708661417322836,
                    "duration": 0.08823520000001395
                },
                {
                    "name": "D#2",
                    "midi": 39,
                    "time": 137.86750000000197,
                    "velocity": 0.3858267716535433,
                    "duration": 0.08823520000001395
                },
                {
                    "name": "D#1",
                    "midi": 27,
                    "time": 137.86750000000197,
                    "velocity": 0.33070866141732286,
                    "duration": 0.08823520000001395
                },
                {
                    "name": "E1",
                    "midi": 28,
                    "time": 137.97779400000198,
                    "velocity": 0.3464566929133858,
                    "duration": 0.08823520000001395
                },
                {
                    "name": "E2",
                    "midi": 40,
                    "time": 137.97779400000198,
                    "velocity": 0.4094488188976378,
                    "duration": 0.08823520000001395
                },
                {
                    "name": "F2",
                    "midi": 41,
                    "time": 138.088088000002,
                    "velocity": 0.4566929133858268,
                    "duration": 0.08823520000001395
                },
                {
                    "name": "F1",
                    "midi": 29,
                    "time": 138.088088000002,
                    "velocity": 0.3858267716535433,
                    "duration": 0.08823520000001395
                },
                {
                    "name": "F#2",
                    "midi": 42,
                    "time": 138.198382000002,
                    "velocity": 0.4251968503937008,
                    "duration": 0.08823520000001395
                },
                {
                    "name": "F#1",
                    "midi": 30,
                    "time": 138.198382000002,
                    "velocity": 0.36220472440944884,
                    "duration": 0.08823520000001395
                },
                {
                    "name": "F1",
                    "midi": 29,
                    "time": 138.308676000002,
                    "velocity": 0.3937007874015748,
                    "duration": 0.08823520000001395
                },
                {
                    "name": "F2",
                    "midi": 41,
                    "time": 138.308676000002,
                    "velocity": 0.4645669291338583,
                    "duration": 0.08823520000001395
                },
                {
                    "name": "F#2",
                    "midi": 42,
                    "time": 138.41897000000202,
                    "velocity": 0.4409448818897638,
                    "duration": 0.08823520000001395
                },
                {
                    "name": "F#1",
                    "midi": 30,
                    "time": 138.41897000000202,
                    "velocity": 0.3779527559055118,
                    "duration": 0.08823520000001395
                },
                {
                    "name": "G2",
                    "midi": 43,
                    "time": 138.52926400000203,
                    "velocity": 0.5039370078740157,
                    "duration": 0.08823520000001395
                },
                {
                    "name": "G1",
                    "midi": 31,
                    "time": 138.52926400000203,
                    "velocity": 0.4251968503937008,
                    "duration": 0.08823520000001395
                },
                {
                    "name": "G#1",
                    "midi": 32,
                    "time": 138.63955800000204,
                    "velocity": 0.4015748031496063,
                    "duration": 0.08823520000001395
                },
                {
                    "name": "G#2",
                    "midi": 44,
                    "time": 138.63955800000204,
                    "velocity": 0.48031496062992124,
                    "duration": 0.08823520000001395
                },
                {
                    "name": "G2",
                    "midi": 43,
                    "time": 138.74985200000205,
                    "velocity": 0.5118110236220472,
                    "duration": 0.08823520000001395
                },
                {
                    "name": "G1",
                    "midi": 31,
                    "time": 138.74985200000205,
                    "velocity": 0.4330708661417323,
                    "duration": 0.08823520000001395
                },
                {
                    "name": "G#2",
                    "midi": 44,
                    "time": 138.86014600000206,
                    "velocity": 0.4645669291338583,
                    "duration": 0.08823520000001395
                },
                {
                    "name": "G#1",
                    "midi": 32,
                    "time": 138.86014600000206,
                    "velocity": 0.3937007874015748,
                    "duration": 0.08823520000001395
                },
                {
                    "name": "A1",
                    "midi": 33,
                    "time": 138.97044000000207,
                    "velocity": 0.4881889763779528,
                    "duration": 0.08823520000001395
                },
                {
                    "name": "A2",
                    "midi": 45,
                    "time": 138.97044000000207,
                    "velocity": 0.5826771653543307,
                    "duration": 0.08823520000001395
                },
                {
                    "name": "G#2",
                    "midi": 44,
                    "time": 139.08073400000208,
                    "velocity": 0.5039370078740157,
                    "duration": 0.08823520000001395
                },
                {
                    "name": "G#1",
                    "midi": 32,
                    "time": 139.08073400000208,
                    "velocity": 0.41732283464566927,
                    "duration": 0.08823520000001395
                },
                {
                    "name": "A2",
                    "midi": 45,
                    "time": 139.1910280000021,
                    "velocity": 0.5826771653543307,
                    "duration": 0.08823520000001395
                },
                {
                    "name": "A1",
                    "midi": 33,
                    "time": 139.1910280000021,
                    "velocity": 0.4881889763779528,
                    "duration": 0.08823520000001395
                },
                {
                    "name": "G#1",
                    "midi": 32,
                    "time": 139.3013220000021,
                    "velocity": 0.44881889763779526,
                    "duration": 0.08823520000001395
                },
                {
                    "name": "G#2",
                    "midi": 44,
                    "time": 139.3013220000021,
                    "velocity": 0.5354330708661418,
                    "duration": 0.08823520000001395
                },
                {
                    "name": "C#2",
                    "midi": 37,
                    "time": 139.4116160000021,
                    "velocity": 0.7007874015748031,
                    "duration": 0.11029400000001033
                },
                {
                    "name": "C#1",
                    "midi": 25,
                    "time": 139.4116160000021,
                    "velocity": 0.5905511811023622,
                    "duration": 0.11029400000001033
                },
                {
                    "name": "F#3",
                    "midi": 54,
                    "time": 139.85279200000213,
                    "velocity": 0.7007874015748031,
                    "duration": 0.11029400000001033
                },
                {
                    "name": "F#2",
                    "midi": 42,
                    "time": 139.85279200000213,
                    "velocity": 0.5905511811023622,
                    "duration": 0.11029400000001033
                },
                {
                    "name": "C#3",
                    "midi": 49,
                    "time": 139.85279200000213,
                    "velocity": 0.5905511811023622,
                    "duration": 0.11029400000001033
                },
                {
                    "name": "E3",
                    "midi": 52,
                    "time": 140.29396800000214,
                    "velocity": 0.7007874015748031,
                    "duration": 0.11029400000001033
                },
                {
                    "name": "C#2",
                    "midi": 37,
                    "time": 140.29396800000214,
                    "velocity": 0.5905511811023622,
                    "duration": 0.11029400000001033
                },
                {
                    "name": "G#2",
                    "midi": 44,
                    "time": 140.29396800000214,
                    "velocity": 0.5905511811023622,
                    "duration": 0.11029400000001033
                },
                {
                    "name": "G#3",
                    "midi": 56,
                    "time": 141.17632000000214,
                    "velocity": 0.4251968503937008,
                    "duration": 0.08823520000001395
                },
                {
                    "name": "G#2",
                    "midi": 44,
                    "time": 141.17632000000214,
                    "velocity": 0.36220472440944884,
                    "duration": 0.08823520000001395
                },
                {
                    "name": "G2",
                    "midi": 43,
                    "time": 141.28661400000215,
                    "velocity": 0.31496062992125984,
                    "duration": 0.08823520000001395
                },
                {
                    "name": "G3",
                    "midi": 55,
                    "time": 141.28661400000215,
                    "velocity": 0.3779527559055118,
                    "duration": 0.08823520000001395
                },
                {
                    "name": "F#3",
                    "midi": 54,
                    "time": 141.39690800000216,
                    "velocity": 0.3779527559055118,
                    "duration": 0.08823520000001395
                },
                {
                    "name": "F#2",
                    "midi": 42,
                    "time": 141.39690800000216,
                    "velocity": 0.31496062992125984,
                    "duration": 0.08823520000001395
                },
                {
                    "name": "F3",
                    "midi": 53,
                    "time": 141.50720200000217,
                    "velocity": 0.3779527559055118,
                    "duration": 0.08823520000001395
                },
                {
                    "name": "F2",
                    "midi": 41,
                    "time": 141.50720200000217,
                    "velocity": 0.31496062992125984,
                    "duration": 0.08823520000001395
                },
                {
                    "name": "E2",
                    "midi": 40,
                    "time": 141.61749600000218,
                    "velocity": 0.31496062992125984,
                    "duration": 0.08823520000001395
                },
                {
                    "name": "E3",
                    "midi": 52,
                    "time": 141.61749600000218,
                    "velocity": 0.3779527559055118,
                    "duration": 0.08823520000001395
                },
                {
                    "name": "D#3",
                    "midi": 51,
                    "time": 141.7277900000022,
                    "velocity": 0.3779527559055118,
                    "duration": 0.08823520000001395
                },
                {
                    "name": "D#2",
                    "midi": 39,
                    "time": 141.7277900000022,
                    "velocity": 0.3228346456692913,
                    "duration": 0.08823520000001395
                },
                {
                    "name": "D3",
                    "midi": 50,
                    "time": 141.8380840000022,
                    "velocity": 0.4015748031496063,
                    "duration": 0.08823520000001395
                },
                {
                    "name": "D2",
                    "midi": 38,
                    "time": 141.8380840000022,
                    "velocity": 0.33858267716535434,
                    "duration": 0.08823520000001395
                },
                {
                    "name": "D#2",
                    "midi": 39,
                    "time": 141.9483780000022,
                    "velocity": 0.36220472440944884,
                    "duration": 0.08823520000001395
                },
                {
                    "name": "D#3",
                    "midi": 51,
                    "time": 141.9483780000022,
                    "velocity": 0.4330708661417323,
                    "duration": 0.08823520000001395
                },
                {
                    "name": "E3",
                    "midi": 52,
                    "time": 142.05867200000222,
                    "velocity": 0.44881889763779526,
                    "duration": 0.08823520000001395
                },
                {
                    "name": "E2",
                    "midi": 40,
                    "time": 142.05867200000222,
                    "velocity": 0.3779527559055118,
                    "duration": 0.08823520000001395
                },
                {
                    "name": "D#3",
                    "midi": 51,
                    "time": 142.16896600000223,
                    "velocity": 0.4251968503937008,
                    "duration": 0.08823520000001395
                },
                {
                    "name": "D#2",
                    "midi": 39,
                    "time": 142.16896600000223,
                    "velocity": 0.3543307086614173,
                    "duration": 0.08823520000001395
                },
                {
                    "name": "D2",
                    "midi": 38,
                    "time": 142.27926000000224,
                    "velocity": 0.3228346456692913,
                    "duration": 0.08823520000001395
                },
                {
                    "name": "D3",
                    "midi": 50,
                    "time": 142.27926000000224,
                    "velocity": 0.3779527559055118,
                    "duration": 0.08823520000001395
                },
                {
                    "name": "C#3",
                    "midi": 49,
                    "time": 142.38955400000225,
                    "velocity": 0.3779527559055118,
                    "duration": 0.08823520000001395
                },
                {
                    "name": "C#2",
                    "midi": 37,
                    "time": 142.38955400000225,
                    "velocity": 0.3228346456692913,
                    "duration": 0.08823520000001395
                },
                {
                    "name": "C3",
                    "midi": 48,
                    "time": 142.49984800000226,
                    "velocity": 0.3779527559055118,
                    "duration": 0.08823520000001395
                },
                {
                    "name": "C2",
                    "midi": 36,
                    "time": 142.49984800000226,
                    "velocity": 0.3228346456692913,
                    "duration": 0.08823520000001395
                },
                {
                    "name": "B1",
                    "midi": 35,
                    "time": 142.61014200000227,
                    "velocity": 0.3228346456692913,
                    "duration": 0.08823520000001395
                },
                {
                    "name": "B2",
                    "midi": 47,
                    "time": 142.61014200000227,
                    "velocity": 0.3779527559055118,
                    "duration": 0.08823520000001395
                },
                {
                    "name": "A#2",
                    "midi": 46,
                    "time": 142.72043600000228,
                    "velocity": 0.3779527559055118,
                    "duration": 0.08823520000001395
                },
                {
                    "name": "A#1",
                    "midi": 34,
                    "time": 142.72043600000228,
                    "velocity": 0.31496062992125984,
                    "duration": 0.08823520000001395
                },
                {
                    "name": "G2",
                    "midi": 43,
                    "time": 142.8307300000023,
                    "velocity": 0.3779527559055118,
                    "duration": 0.08823520000001395
                },
                {
                    "name": "G1",
                    "midi": 31,
                    "time": 142.8307300000023,
                    "velocity": 0.31496062992125984,
                    "duration": 0.08823520000001395
                },
                {
                    "name": "G#1",
                    "midi": 32,
                    "time": 142.9410240000023,
                    "velocity": 0.36220472440944884,
                    "duration": 0.08823520000001395
                },
                {
                    "name": "G#2",
                    "midi": 44,
                    "time": 142.9410240000023,
                    "velocity": 0.4251968503937008,
                    "duration": 0.08823520000001395
                },
                {
                    "name": "A2",
                    "midi": 45,
                    "time": 143.0513180000023,
                    "velocity": 0.3700787401574803,
                    "duration": 0.08823520000001395
                },
                {
                    "name": "A1",
                    "midi": 33,
                    "time": 143.0513180000023,
                    "velocity": 0.30708661417322836,
                    "duration": 0.08823520000001395
                },
                {
                    "name": "A#2",
                    "midi": 46,
                    "time": 143.16161200000232,
                    "velocity": 0.3858267716535433,
                    "duration": 0.08823520000001395
                },
                {
                    "name": "A#1",
                    "midi": 34,
                    "time": 143.16161200000232,
                    "velocity": 0.33070866141732286,
                    "duration": 0.08823520000001395
                },
                {
                    "name": "B1",
                    "midi": 35,
                    "time": 143.27190600000233,
                    "velocity": 0.3464566929133858,
                    "duration": 0.08823520000001395
                },
                {
                    "name": "B2",
                    "midi": 47,
                    "time": 143.27190600000233,
                    "velocity": 0.4094488188976378,
                    "duration": 0.08823520000001395
                },
                {
                    "name": "C3",
                    "midi": 48,
                    "time": 143.38220000000234,
                    "velocity": 0.4566929133858268,
                    "duration": 0.08823520000001395
                },
                {
                    "name": "C2",
                    "midi": 36,
                    "time": 143.38220000000234,
                    "velocity": 0.3858267716535433,
                    "duration": 0.08823520000001395
                },
                {
                    "name": "C#3",
                    "midi": 49,
                    "time": 143.49249400000235,
                    "velocity": 0.4251968503937008,
                    "duration": 0.08823520000001395
                },
                {
                    "name": "C#2",
                    "midi": 37,
                    "time": 143.49249400000235,
                    "velocity": 0.36220472440944884,
                    "duration": 0.08823520000001395
                },
                {
                    "name": "C2",
                    "midi": 36,
                    "time": 143.60278800000236,
                    "velocity": 0.3937007874015748,
                    "duration": 0.08823520000001395
                },
                {
                    "name": "C3",
                    "midi": 48,
                    "time": 143.60278800000236,
                    "velocity": 0.4645669291338583,
                    "duration": 0.08823520000001395
                },
                {
                    "name": "C#3",
                    "midi": 49,
                    "time": 143.71308200000237,
                    "velocity": 0.4409448818897638,
                    "duration": 0.08823520000001395
                },
                {
                    "name": "C#2",
                    "midi": 37,
                    "time": 143.71308200000237,
                    "velocity": 0.3779527559055118,
                    "duration": 0.08823520000001395
                },
                {
                    "name": "D3",
                    "midi": 50,
                    "time": 143.82337600000238,
                    "velocity": 0.5039370078740157,
                    "duration": 0.08823520000001395
                },
                {
                    "name": "D2",
                    "midi": 38,
                    "time": 143.82337600000238,
                    "velocity": 0.4251968503937008,
                    "duration": 0.08823520000001395
                },
                {
                    "name": "D#3",
                    "midi": 51,
                    "time": 143.9336700000024,
                    "velocity": 0.48031496062992124,
                    "duration": 0.08823520000001395
                },
                {
                    "name": "D#2",
                    "midi": 39,
                    "time": 143.9336700000024,
                    "velocity": 0.4015748031496063,
                    "duration": 0.08823520000001395
                },
                {
                    "name": "D3",
                    "midi": 50,
                    "time": 144.0439640000024,
                    "velocity": 0.5118110236220472,
                    "duration": 0.08823520000001395
                },
                {
                    "name": "D2",
                    "midi": 38,
                    "time": 144.0439640000024,
                    "velocity": 0.4330708661417323,
                    "duration": 0.08823520000001395
                },
                {
                    "name": "D#3",
                    "midi": 51,
                    "time": 144.15425800000241,
                    "velocity": 0.4645669291338583,
                    "duration": 0.08823520000001395
                },
                {
                    "name": "D#2",
                    "midi": 39,
                    "time": 144.15425800000241,
                    "velocity": 0.3937007874015748,
                    "duration": 0.08823520000001395
                },
                {
                    "name": "E3",
                    "midi": 52,
                    "time": 144.26455200000242,
                    "velocity": 0.5826771653543307,
                    "duration": 0.08823520000001395
                },
                {
                    "name": "E2",
                    "midi": 40,
                    "time": 144.26455200000242,
                    "velocity": 0.4881889763779528,
                    "duration": 0.08823520000001395
                },
                {
                    "name": "D#2",
                    "midi": 39,
                    "time": 144.37484600000244,
                    "velocity": 0.41732283464566927,
                    "duration": 0.08823520000001395
                },
                {
                    "name": "D#3",
                    "midi": 51,
                    "time": 144.37484600000244,
                    "velocity": 0.5039370078740157,
                    "duration": 0.08823520000001395
                },
                {
                    "name": "E3",
                    "midi": 52,
                    "time": 144.48514000000245,
                    "velocity": 0.5826771653543307,
                    "duration": 0.08823520000001395
                },
                {
                    "name": "E2",
                    "midi": 40,
                    "time": 144.48514000000245,
                    "velocity": 0.4881889763779528,
                    "duration": 0.08823520000001395
                },
                {
                    "name": "D#3",
                    "midi": 51,
                    "time": 144.59543400000246,
                    "velocity": 0.5354330708661418,
                    "duration": 0.08823520000001395
                },
                {
                    "name": "D#2",
                    "midi": 39,
                    "time": 144.59543400000246,
                    "velocity": 0.44881889763779526,
                    "duration": 0.08823520000001395
                },
                {
                    "name": "G#1",
                    "midi": 32,
                    "time": 144.70572800000247,
                    "velocity": 0.5905511811023622,
                    "duration": 0.11029400000001033
                },
                {
                    "name": "G#2",
                    "midi": 44,
                    "time": 144.70572800000247,
                    "velocity": 0.7007874015748031,
                    "duration": 0.11029400000001033
                },
                {
                    "name": "G#3",
                    "midi": 56,
                    "time": 145.14690400000248,
                    "velocity": 0.5905511811023622,
                    "duration": 0.11029400000001033
                },
                {
                    "name": "C#4",
                    "midi": 61,
                    "time": 145.14690400000248,
                    "velocity": 0.7007874015748031,
                    "duration": 0.11029400000001033
                },
                {
                    "name": "C#3",
                    "midi": 49,
                    "time": 145.14690400000248,
                    "velocity": 0.5905511811023622,
                    "duration": 0.11029400000001033
                },
                {
                    "name": "D#3",
                    "midi": 51,
                    "time": 145.5880800000025,
                    "velocity": 0.5905511811023622,
                    "duration": 0.11029400000001033
                },
                {
                    "name": "B3",
                    "midi": 59,
                    "time": 145.5880800000025,
                    "velocity": 0.7007874015748031,
                    "duration": 0.11029400000001033
                },
                {
                    "name": "G#2",
                    "midi": 44,
                    "time": 145.5880800000025,
                    "velocity": 0.5905511811023622,
                    "duration": 0.11029400000001033
                },
                {
                    "name": "B2",
                    "midi": 47,
                    "time": 146.3601380000025,
                    "velocity": 0.5433070866141733,
                    "duration": 0.11029400000001033
                },
                {
                    "name": "B1",
                    "midi": 35,
                    "time": 146.3601380000025,
                    "velocity": 0.4566929133858268,
                    "duration": 0.11029400000001033
                },
                {
                    "name": "E3",
                    "midi": 52,
                    "time": 146.47043200000252,
                    "velocity": 0.6141732283464567,
                    "duration": 0.11029400000001033
                },
                {
                    "name": "E2",
                    "midi": 40,
                    "time": 146.47043200000252,
                    "velocity": 0.5196850393700787,
                    "duration": 0.11029400000001033
                },
                {
                    "name": "G#3",
                    "midi": 56,
                    "time": 146.80131400000252,
                    "velocity": 0.4330708661417323,
                    "duration": 0.11029400000001033
                },
                {
                    "name": "E4",
                    "midi": 64,
                    "time": 146.80131400000252,
                    "velocity": 0.6141732283464567,
                    "duration": 0.11029400000001033
                },
                {
                    "name": "B3",
                    "midi": 59,
                    "time": 146.80131400000252,
                    "velocity": 0.4330708661417323,
                    "duration": 0.11029400000001033
                },
                {
                    "name": "G#3",
                    "midi": 56,
                    "time": 146.91160800000253,
                    "velocity": 0.47244094488188976,
                    "duration": 0.22058799999999223
                },
                {
                    "name": "E4",
                    "midi": 64,
                    "time": 146.91160800000253,
                    "velocity": 0.6614173228346457,
                    "duration": 0.22058799999999223
                },
                {
                    "name": "B3",
                    "midi": 59,
                    "time": 146.91160800000253,
                    "velocity": 0.47244094488188976,
                    "duration": 0.22058799999999223
                },
                {
                    "name": "B1",
                    "midi": 35,
                    "time": 147.24249000000253,
                    "velocity": 0.4409448818897638,
                    "duration": 0.11029400000001033
                },
                {
                    "name": "B2",
                    "midi": 47,
                    "time": 147.24249000000253,
                    "velocity": 0.5275590551181102,
                    "duration": 0.11029400000001033
                },
                {
                    "name": "E3",
                    "midi": 52,
                    "time": 147.35278400000254,
                    "velocity": 0.5511811023622047,
                    "duration": 0.11029400000001033
                },
                {
                    "name": "E2",
                    "midi": 40,
                    "time": 147.35278400000254,
                    "velocity": 0.47244094488188976,
                    "duration": 0.11029400000001033
                },
                {
                    "name": "B3",
                    "midi": 59,
                    "time": 147.68366600000255,
                    "velocity": 0.5748031496062992,
                    "duration": 0.11029400000001033
                },
                {
                    "name": "G#3",
                    "midi": 56,
                    "time": 147.68366600000255,
                    "velocity": 0.48031496062992124,
                    "duration": 0.11029400000001033
                },
                {
                    "name": "G#3",
                    "midi": 56,
                    "time": 147.79396000000256,
                    "velocity": 0.5039370078740157,
                    "duration": 0.22058799999999223
                },
                {
                    "name": "B3",
                    "midi": 59,
                    "time": 147.79396000000256,
                    "velocity": 0.6141732283464567,
                    "duration": 0.22058799999999223
                },
                {
                    "name": "B2",
                    "midi": 47,
                    "time": 148.12484200000256,
                    "velocity": 0.6456692913385826,
                    "duration": 0.11029400000001033
                },
                {
                    "name": "B1",
                    "midi": 35,
                    "time": 148.12484200000256,
                    "velocity": 0.5433070866141733,
                    "duration": 0.11029400000001033
                },
                {
                    "name": "D#3",
                    "midi": 51,
                    "time": 148.23513600000257,
                    "velocity": 0.7244094488188977,
                    "duration": 0.11029400000001033
                },
                {
                    "name": "D#2",
                    "midi": 39,
                    "time": 148.23513600000257,
                    "velocity": 0.6141732283464567,
                    "duration": 0.11029400000001033
                },
                {
                    "name": "B3",
                    "midi": 59,
                    "time": 148.56601800000257,
                    "velocity": 0.5196850393700787,
                    "duration": 0.11029400000001033
                },
                {
                    "name": "A3",
                    "midi": 57,
                    "time": 148.56601800000257,
                    "velocity": 0.5196850393700787,
                    "duration": 0.11029400000001033
                },
                {
                    "name": "A3",
                    "midi": 57,
                    "time": 148.67631200000258,
                    "velocity": 0.5511811023622047,
                    "duration": 0.22058799999999223
                },
                {
                    "name": "B3",
                    "midi": 59,
                    "time": 148.67631200000258,
                    "velocity": 0.5511811023622047,
                    "duration": 0.22058799999999223
                },
                {
                    "name": "B1",
                    "midi": 35,
                    "time": 149.06234100000256,
                    "velocity": 0.5275590551181102,
                    "duration": 0.06341904999999315
                },
                {
                    "name": "B2",
                    "midi": 47,
                    "time": 149.06234100000256,
                    "velocity": 0.6220472440944882,
                    "duration": 0.055147000000005164
                },
                {
                    "name": "E2",
                    "midi": 40,
                    "time": 149.11748800000257,
                    "velocity": 0.5511811023622047,
                    "duration": 0.1102939999999819
                },
                {
                    "name": "E3",
                    "midi": 52,
                    "time": 149.11748800000257,
                    "velocity": 0.6614173228346457,
                    "duration": 0.1102939999999819
                },
                {
                    "name": "B3",
                    "midi": 59,
                    "time": 149.44837000000254,
                    "velocity": 0.6062992125984252,
                    "duration": 0.11029400000001033
                },
                {
                    "name": "G#3",
                    "midi": 56,
                    "time": 149.44837000000254,
                    "velocity": 0.5039370078740157,
                    "duration": 0.11029400000001033
                },
                {
                    "name": "B3",
                    "midi": 59,
                    "time": 149.55866400000255,
                    "velocity": 0.6456692913385826,
                    "duration": 0.22058799999999223
                },
                {
                    "name": "G#3",
                    "midi": 56,
                    "time": 149.55866400000255,
                    "velocity": 0.5354330708661418,
                    "duration": 0.22058799999999223
                },
                {
                    "name": "B2",
                    "midi": 47,
                    "time": 149.88954600000255,
                    "velocity": 0.6456692913385826,
                    "duration": 0.11029400000001033
                },
                {
                    "name": "B1",
                    "midi": 35,
                    "time": 149.88954600000255,
                    "velocity": 0.5433070866141733,
                    "duration": 0.11029400000001033
                },
                {
                    "name": "E3",
                    "midi": 52,
                    "time": 149.99984000000256,
                    "velocity": 0.7244094488188977,
                    "duration": 0.11029400000001033
                },
                {
                    "name": "E2",
                    "midi": 40,
                    "time": 149.99984000000256,
                    "velocity": 0.6141732283464567,
                    "duration": 0.11029400000001033
                },
                {
                    "name": "E4",
                    "midi": 64,
                    "time": 150.44101600000258,
                    "velocity": 0.49606299212598426,
                    "duration": 0.14705866666668044
                },
                {
                    "name": "E3",
                    "midi": 52,
                    "time": 150.44101600000258,
                    "velocity": 0.41732283464566927,
                    "duration": 0.14705866666668044
                },
                {
                    "name": "F#3",
                    "midi": 54,
                    "time": 150.58807466666926,
                    "velocity": 0.4409448818897638,
                    "duration": 0.14705866666668044
                },
                {
                    "name": "F#4",
                    "midi": 66,
                    "time": 150.58807466666926,
                    "velocity": 0.5196850393700787,
                    "duration": 0.14705866666668044
                },
                {
                    "name": "G#3",
                    "midi": 56,
                    "time": 150.73513333333594,
                    "velocity": 0.4645669291338583,
                    "duration": 0.14705866666668044
                },
                {
                    "name": "G#4",
                    "midi": 68,
                    "time": 150.73513333333594,
                    "velocity": 0.5511811023622047,
                    "duration": 0.14705866666668044
                },
                {
                    "name": "A3",
                    "midi": 57,
                    "time": 150.88219200000262,
                    "velocity": 0.4015748031496063,
                    "duration": 0.4411760000000129
                },
                {
                    "name": "A4",
                    "midi": 69,
                    "time": 150.88219200000262,
                    "velocity": 0.5748031496062992,
                    "duration": 0.4411760000000129
                },
                {
                    "name": "A2",
                    "midi": 45,
                    "time": 151.32336800000263,
                    "velocity": 0.47244094488188976,
                    "duration": 0.14705866666668044
                },
                {
                    "name": "A3",
                    "midi": 57,
                    "time": 151.32336800000263,
                    "velocity": 0.5590551181102362,
                    "duration": 0.14705866666668044
                },
                {
                    "name": "E3",
                    "midi": 52,
                    "time": 151.32336800000263,
                    "velocity": 0.47244094488188976,
                    "duration": 0.14705866666668044
                },
                {
                    "name": "G#2",
                    "midi": 44,
                    "time": 151.4704266666693,
                    "velocity": 0.4409448818897638,
                    "duration": 0.14705866666668044
                },
                {
                    "name": "G#3",
                    "midi": 56,
                    "time": 151.4704266666693,
                    "velocity": 0.5275590551181102,
                    "duration": 0.14705866666668044
                },
                {
                    "name": "E3",
                    "midi": 52,
                    "time": 151.4704266666693,
                    "velocity": 0.4409448818897638,
                    "duration": 0.14705866666668044
                },
                {
                    "name": "E3",
                    "midi": 52,
                    "time": 151.617485333336,
                    "velocity": 0.4094488188976378,
                    "duration": 0.14705866666668044
                },
                {
                    "name": "G2",
                    "midi": 43,
                    "time": 151.617485333336,
                    "velocity": 0.4094488188976378,
                    "duration": 0.14705866666668044
                },
                {
                    "name": "G3",
                    "midi": 55,
                    "time": 151.617485333336,
                    "velocity": 0.4881889763779528,
                    "duration": 0.14705866666668044
                },
                {
                    "name": "E3",
                    "midi": 52,
                    "time": 151.76454400000267,
                    "velocity": 0.5590551181102362,
                    "duration": 0.4411760000000129
                },
                {
                    "name": "G#2",
                    "midi": 44,
                    "time": 151.76454400000267,
                    "velocity": 0.5590551181102362,
                    "duration": 0.4411760000000129
                },
                {
                    "name": "G#3",
                    "midi": 56,
                    "time": 151.76454400000267,
                    "velocity": 0.6614173228346457,
                    "duration": 0.4411760000000129
                },
                {
                    "name": "G#2",
                    "midi": 44,
                    "time": 152.20572000000269,
                    "velocity": 0.5590551181102362,
                    "duration": 0.4411760000000129
                },
                {
                    "name": "C#2",
                    "midi": 37,
                    "time": 152.20572000000269,
                    "velocity": 0.5590551181102362,
                    "duration": 0.4411760000000129
                },
                {
                    "name": "C#3",
                    "midi": 49,
                    "time": 152.20572000000269,
                    "velocity": 0.6614173228346457,
                    "duration": 0.4411760000000129
                },
                {
                    "name": "F#2",
                    "midi": 42,
                    "time": 152.6468960000027,
                    "velocity": 0.5590551181102362,
                    "duration": 0.6617640000000051
                },
                {
                    "name": "B1",
                    "midi": 35,
                    "time": 152.6468960000027,
                    "velocity": 0.5590551181102362,
                    "duration": 0.6617640000000051
                },
                {
                    "name": "A2",
                    "midi": 45,
                    "time": 152.6468960000027,
                    "velocity": 0.5590551181102362,
                    "duration": 0.6617640000000051
                },
                {
                    "name": "B2",
                    "midi": 47,
                    "time": 152.6468960000027,
                    "velocity": 0.6614173228346457,
                    "duration": 0.6617640000000051
                },
                {
                    "name": "E1",
                    "midi": 28,
                    "time": 153.4741010000027,
                    "velocity": 0.48031496062992124,
                    "duration": 0.03676466666667011
                },
                {
                    "name": "E2",
                    "midi": 40,
                    "time": 153.4741010000027,
                    "velocity": 0.5669291338582677,
                    "duration": 0.03676466666667011
                },
                {
                    "name": "E2",
                    "midi": 40,
                    "time": 153.5292480000027,
                    "velocity": 0.6062992125984252,
                    "duration": 0.07352933333334022
                },
                {
                    "name": "E1",
                    "midi": 28,
                    "time": 153.5292480000027,
                    "velocity": 0.6062992125984252,
                    "duration": 0.07352933333334022
                },
                {
                    "name": "G#2",
                    "midi": 44,
                    "time": 153.60277733333604,
                    "velocity": 0.5354330708661418,
                    "duration": 0.07352933333334022
                },
                {
                    "name": "B2",
                    "midi": 47,
                    "time": 153.67630666666938,
                    "velocity": 0.5511811023622047,
                    "duration": 0.07352933333334022
                },
                {
                    "name": "E3",
                    "midi": 52,
                    "time": 153.74983600000272,
                    "velocity": 0.5590551181102362,
                    "duration": 0.07352933333334022
                },
                {
                    "name": "G#3",
                    "midi": 56,
                    "time": 153.82336533333606,
                    "velocity": 0.5748031496062992,
                    "duration": 0.07352933333334022
                },
                {
                    "name": "B3",
                    "midi": 59,
                    "time": 153.8968946666694,
                    "velocity": 0.5905511811023622,
                    "duration": 0.07352933333334022
                },
                {
                    "name": "E4",
                    "midi": 64,
                    "time": 153.97042400000274,
                    "velocity": 0.6141732283464567,
                    "duration": 0.07352933333334022
                },
                {
                    "name": "B3",
                    "midi": 59,
                    "time": 154.04395333333608,
                    "velocity": 0.6220472440944882,
                    "duration": 0.07352933333334022
                },
                {
                    "name": "G#3",
                    "midi": 56,
                    "time": 154.11748266666942,
                    "velocity": 0.6377952755905512,
                    "duration": 0.07352933333334022
                },
                {
                    "name": "E3",
                    "midi": 52,
                    "time": 154.19101200000276,
                    "velocity": 0.6456692913385826,
                    "duration": 0.07352933333334022
                },
                {
                    "name": "B2",
                    "midi": 47,
                    "time": 154.2645413333361,
                    "velocity": 0.6614173228346457,
                    "duration": 0.07352933333334022
                },
                {
                    "name": "G#2",
                    "midi": 44,
                    "time": 154.33807066666944,
                    "velocity": 0.6771653543307087,
                    "duration": 0.07352933333334022
                },
                {
                    "name": "E2",
                    "midi": 40,
                    "time": 154.41160000000278,
                    "velocity": 0.6614173228346457,
                    "duration": 0.11029400000001033
                },
                {
                    "name": "E3",
                    "midi": 52,
                    "time": 154.41160000000278,
                    "velocity": 0.6614173228346457,
                    "duration": 0.11029400000001033
                },
                {
                    "name": "B2",
                    "midi": 47,
                    "time": 154.41160000000278,
                    "velocity": 0.6614173228346457,
                    "duration": 0.11029400000001033
                },
                {
                    "name": "G#1",
                    "midi": 32,
                    "time": 155.1836580000028,
                    "velocity": 0.4566929133858268,
                    "duration": 0.11029400000001033
                },
                {
                    "name": "G#2",
                    "midi": 44,
                    "time": 155.1836580000028,
                    "velocity": 0.5433070866141733,
                    "duration": 0.11029400000001033
                },
                {
                    "name": "C#3",
                    "midi": 49,
                    "time": 155.2939520000028,
                    "velocity": 0.6141732283464567,
                    "duration": 0.11029400000001033
                },
                {
                    "name": "C#2",
                    "midi": 37,
                    "time": 155.2939520000028,
                    "velocity": 0.5196850393700787,
                    "duration": 0.11029400000001033
                },
                {
                    "name": "C#4",
                    "midi": 61,
                    "time": 155.6248340000028,
                    "velocity": 0.4330708661417323,
                    "duration": 0.08272049999999354
                },
                {
                    "name": "E4",
                    "midi": 64,
                    "time": 155.6248340000028,
                    "velocity": 0.4330708661417323,
                    "duration": 0.08272049999999354
                },
                {
                    "name": "G#4",
                    "midi": 68,
                    "time": 155.6248340000028,
                    "velocity": 0.6141732283464567,
                    "duration": 0.08272049999999354
                },
                {
                    "name": "G#3",
                    "midi": 56,
                    "time": 155.6248340000028,
                    "velocity": 0.4330708661417323,
                    "duration": 0.08272049999999354
                },
                {
                    "name": "G#3",
                    "midi": 56,
                    "time": 155.7351280000028,
                    "velocity": 0.47244094488188976,
                    "duration": 0.22058799999999223
                },
                {
                    "name": "E4",
                    "midi": 64,
                    "time": 155.7351280000028,
                    "velocity": 0.47244094488188976,
                    "duration": 0.22058799999999223
                },
                {
                    "name": "G#4",
                    "midi": 68,
                    "time": 155.7351280000028,
                    "velocity": 0.6614173228346457,
                    "duration": 0.22058799999999223
                },
                {
                    "name": "C#4",
                    "midi": 61,
                    "time": 155.7351280000028,
                    "velocity": 0.47244094488188976,
                    "duration": 0.22058799999999223
                },
                {
                    "name": "G#1",
                    "midi": 32,
                    "time": 156.0660100000028,
                    "velocity": 0.4409448818897638,
                    "duration": 0.11029400000001033
                },
                {
                    "name": "G#2",
                    "midi": 44,
                    "time": 156.0660100000028,
                    "velocity": 0.5275590551181102,
                    "duration": 0.11029400000001033
                },
                {
                    "name": "C#3",
                    "midi": 49,
                    "time": 156.1763040000028,
                    "velocity": 0.5511811023622047,
                    "duration": 0.11029400000001033
                },
                {
                    "name": "C#2",
                    "midi": 37,
                    "time": 156.1763040000028,
                    "velocity": 0.47244094488188976,
                    "duration": 0.11029400000001033
                },
                {
                    "name": "E4",
                    "midi": 64,
                    "time": 156.5071860000028,
                    "velocity": 0.48031496062992124,
                    "duration": 0.08272049999999354
                },
                {
                    "name": "G#3",
                    "midi": 56,
                    "time": 156.5071860000028,
                    "velocity": 0.48031496062992124,
                    "duration": 0.08272049999999354
                },
                {
                    "name": "C#4",
                    "midi": 61,
                    "time": 156.5071860000028,
                    "velocity": 0.48031496062992124,
                    "duration": 0.08272049999999354
                },
                {
                    "name": "G#4",
                    "midi": 68,
                    "time": 156.5071860000028,
                    "velocity": 0.5748031496062992,
                    "duration": 0.08272049999999354
                },
                {
                    "name": "G#4",
                    "midi": 68,
                    "time": 156.6174800000028,
                    "velocity": 0.6141732283464567,
                    "duration": 0.22058799999999223
                },
                {
                    "name": "G#3",
                    "midi": 56,
                    "time": 156.6174800000028,
                    "velocity": 0.5039370078740157,
                    "duration": 0.22058799999999223
                },
                {
                    "name": "C#4",
                    "midi": 61,
                    "time": 156.6174800000028,
                    "velocity": 0.5039370078740157,
                    "duration": 0.22058799999999223
                },
                {
                    "name": "E4",
                    "midi": 64,
                    "time": 156.6174800000028,
                    "velocity": 0.5039370078740157,
                    "duration": 0.22058799999999223
                },
                {
                    "name": "G#1",
                    "midi": 32,
                    "time": 156.9483620000028,
                    "velocity": 0.5433070866141733,
                    "duration": 0.11029400000001033
                },
                {
                    "name": "G#2",
                    "midi": 44,
                    "time": 156.9483620000028,
                    "velocity": 0.6456692913385826,
                    "duration": 0.11029400000001033
                },
                {
                    "name": "C3",
                    "midi": 48,
                    "time": 157.0586560000028,
                    "velocity": 0.7244094488188977,
                    "duration": 0.11029400000001033
                },
                {
                    "name": "C2",
                    "midi": 36,
                    "time": 157.0586560000028,
                    "velocity": 0.6141732283464567,
                    "duration": 0.11029400000001033
                },
                {
                    "name": "G#4",
                    "midi": 68,
                    "time": 157.3895380000028,
                    "velocity": 0.5196850393700787,
                    "duration": 0.08272049999999354
                },
                {
                    "name": "F#4",
                    "midi": 66,
                    "time": 157.3895380000028,
                    "velocity": 0.5196850393700787,
                    "duration": 0.08272049999999354
                },
                {
                    "name": "D#4",
                    "midi": 63,
                    "time": 157.3895380000028,
                    "velocity": 0.5196850393700787,
                    "duration": 0.08272049999999354
                },
                {
                    "name": "G#3",
                    "midi": 56,
                    "time": 157.3895380000028,
                    "velocity": 0.5196850393700787,
                    "duration": 0.08272049999999354
                },
                {
                    "name": "G#3",
                    "midi": 56,
                    "time": 157.49983200000278,
                    "velocity": 0.5511811023622047,
                    "duration": 0.22058799999999223
                },
                {
                    "name": "F#4",
                    "midi": 66,
                    "time": 157.49983200000278,
                    "velocity": 0.5511811023622047,
                    "duration": 0.22058799999999223
                },
                {
                    "name": "D#4",
                    "midi": 63,
                    "time": 157.49983200000278,
                    "velocity": 0.5511811023622047,
                    "duration": 0.22058799999999223
                },
                {
                    "name": "G#4",
                    "midi": 68,
                    "time": 157.49983200000278,
                    "velocity": 0.5511811023622047,
                    "duration": 0.22058799999999223
                },
                {
                    "name": "G#1",
                    "midi": 32,
                    "time": 157.88586100000276,
                    "velocity": 0.5275590551181102,
                    "duration": 0.055147000000005164
                },
                {
                    "name": "G#2",
                    "midi": 44,
                    "time": 157.88586100000276,
                    "velocity": 0.6220472440944882,
                    "duration": 0.055147000000005164
                },
                {
                    "name": "C#3",
                    "midi": 49,
                    "time": 157.94100800000277,
                    "velocity": 0.6614173228346457,
                    "duration": 0.11029400000001033
                },
                {
                    "name": "C#2",
                    "midi": 37,
                    "time": 157.94100800000277,
                    "velocity": 0.5511811023622047,
                    "duration": 0.11029400000001033
                },
                {
                    "name": "G#3",
                    "midi": 56,
                    "time": 158.27189000000277,
                    "velocity": 0.5039370078740157,
                    "duration": 0.08272049999999354
                },
                {
                    "name": "E4",
                    "midi": 64,
                    "time": 158.27189000000277,
                    "velocity": 0.5039370078740157,
                    "duration": 0.08272049999999354
                },
                {
                    "name": "C#4",
                    "midi": 61,
                    "time": 158.27189000000277,
                    "velocity": 0.5039370078740157,
                    "duration": 0.08272049999999354
                },
                {
                    "name": "G#4",
                    "midi": 68,
                    "time": 158.27189000000277,
                    "velocity": 0.6062992125984252,
                    "duration": 0.08272049999999354
                },
                {
                    "name": "G#4",
                    "midi": 68,
                    "time": 158.38218400000275,
                    "velocity": 0.6456692913385826,
                    "duration": 0.22058799999999223
                },
                {
                    "name": "E4",
                    "midi": 64,
                    "time": 158.38218400000275,
                    "velocity": 0.5354330708661418,
                    "duration": 0.22058799999999223
                },
                {
                    "name": "C#4",
                    "midi": 61,
                    "time": 158.38218400000275,
                    "velocity": 0.5354330708661418,
                    "duration": 0.22058799999999223
                },
                {
                    "name": "G#3",
                    "midi": 56,
                    "time": 158.38218400000275,
                    "velocity": 0.5354330708661418,
                    "duration": 0.22058799999999223
                },
                {
                    "name": "F1",
                    "midi": 29,
                    "time": 158.76821300000273,
                    "velocity": 0.5433070866141733,
                    "duration": 0.055147000000005164
                },
                {
                    "name": "F3",
                    "midi": 53,
                    "time": 158.76821300000273,
                    "velocity": 0.6456692913385826,
                    "duration": 0.055147000000005164
                },
                {
                    "name": "F2",
                    "midi": 41,
                    "time": 158.76821300000273,
                    "velocity": 0.5433070866141733,
                    "duration": 0.055147000000005164
                },
                {
                    "name": "F#2",
                    "midi": 42,
                    "time": 158.82336000000274,
                    "velocity": 0.6141732283464567,
                    "duration": 0.6617640000000051
                },
                {
                    "name": "F#3",
                    "midi": 54,
                    "time": 158.82336000000274,
                    "velocity": 0.7244094488188977,
                    "duration": 0.6617640000000051
                },
                {
                    "name": "F#1",
                    "midi": 30,
                    "time": 158.82336000000274,
                    "velocity": 0.6141732283464567,
                    "duration": 0.6617640000000051
                },
                {
                    "name": "A3",
                    "midi": 57,
                    "time": 159.65056500000273,
                    "velocity": 0.41732283464566927,
                    "duration": 0.055147000000005164
                },
                {
                    "name": "A4",
                    "midi": 69,
                    "time": 159.65056500000273,
                    "velocity": 0.49606299212598426,
                    "duration": 0.055147000000005164
                },
                {
                    "name": "C#4",
                    "midi": 61,
                    "time": 159.65056500000273,
                    "velocity": 0.41732283464566927,
                    "duration": 0.055147000000005164
                },
                {
                    "name": "A3",
                    "midi": 57,
                    "time": 159.70571200000273,
                    "velocity": 0.4645669291338583,
                    "duration": 0.16544099999998707
                },
                {
                    "name": "A4",
                    "midi": 69,
                    "time": 159.70571200000273,
                    "velocity": 0.5511811023622047,
                    "duration": 0.16544099999998707
                },
                {
                    "name": "C#4",
                    "midi": 61,
                    "time": 159.70571200000273,
                    "velocity": 0.4645669291338583,
                    "duration": 0.16544099999998707
                },
                {
                    "name": "G#3",
                    "midi": 56,
                    "time": 159.87115300000272,
                    "velocity": 0.4094488188976378,
                    "duration": 0.055147000000005164
                },
                {
                    "name": "G#4",
                    "midi": 68,
                    "time": 159.87115300000272,
                    "velocity": 0.4881889763779528,
                    "duration": 0.055147000000005164
                },
                {
                    "name": "B3",
                    "midi": 59,
                    "time": 159.87115300000272,
                    "velocity": 0.4094488188976378,
                    "duration": 0.055147000000005164
                },
                {
                    "name": "G#3",
                    "midi": 56,
                    "time": 159.92630000000273,
                    "velocity": 0.4566929133858268,
                    "duration": 0.16544099999998707
                },
                {
                    "name": "G#4",
                    "midi": 68,
                    "time": 159.92630000000273,
                    "velocity": 0.5433070866141733,
                    "duration": 0.16544099999998707
                },
                {
                    "name": "B3",
                    "midi": 59,
                    "time": 159.92630000000273,
                    "velocity": 0.4566929133858268,
                    "duration": 0.16544099999998707
                },
                {
                    "name": "F#3",
                    "midi": 54,
                    "time": 160.0917410000027,
                    "velocity": 0.4094488188976378,
                    "duration": 0.055147000000005164
                },
                {
                    "name": "F#4",
                    "midi": 66,
                    "time": 160.0917410000027,
                    "velocity": 0.4881889763779528,
                    "duration": 0.055147000000005164
                },
                {
                    "name": "A3",
                    "midi": 57,
                    "time": 160.0917410000027,
                    "velocity": 0.4094488188976378,
                    "duration": 0.055147000000005164
                },
                {
                    "name": "F#3",
                    "midi": 54,
                    "time": 160.14688800000272,
                    "velocity": 0.4566929133858268,
                    "duration": 0.22058799999999223
                },
                {
                    "name": "F#4",
                    "midi": 66,
                    "time": 160.14688800000272,
                    "velocity": 0.5433070866141733,
                    "duration": 0.22058799999999223
                },
                {
                    "name": "A3",
                    "midi": 57,
                    "time": 160.14688800000272,
                    "velocity": 0.4566929133858268,
                    "duration": 0.22058799999999223
                },
                {
                    "name": "C#3",
                    "midi": 49,
                    "time": 160.5329170000027,
                    "velocity": 0.5433070866141733,
                    "duration": 0.055147000000005164
                },
                {
                    "name": "C#2",
                    "midi": 37,
                    "time": 160.5329170000027,
                    "velocity": 0.5433070866141733,
                    "duration": 0.055147000000005164
                },
                {
                    "name": "D3",
                    "midi": 50,
                    "time": 160.5880640000027,
                    "velocity": 0.6141732283464567,
                    "duration": 0.6617640000000051
                },
                {
                    "name": "D2",
                    "midi": 38,
                    "time": 160.5880640000027,
                    "velocity": 0.6141732283464567,
                    "duration": 0.6617640000000051
                },
                {
                    "name": "A4",
                    "midi": 69,
                    "time": 161.4152690000027,
                    "velocity": 0.49606299212598426,
                    "duration": 0.04136024999999677
                },
                {
                    "name": "F#4",
                    "midi": 66,
                    "time": 161.4152690000027,
                    "velocity": 0.41732283464566927,
                    "duration": 0.04136024999999677
                },
                {
                    "name": "F#4",
                    "midi": 66,
                    "time": 161.4704160000027,
                    "velocity": 0.4645669291338583,
                    "duration": 0.16544099999998707
                },
                {
                    "name": "A4",
                    "midi": 69,
                    "time": 161.4704160000027,
                    "velocity": 0.5511811023622047,
                    "duration": 0.16544099999998707
                },
                {
                    "name": "G#4",
                    "midi": 68,
                    "time": 161.6358570000027,
                    "velocity": 0.4881889763779528,
                    "duration": 0.04136024999999677
                },
                {
                    "name": "E4",
                    "midi": 64,
                    "time": 161.6358570000027,
                    "velocity": 0.4094488188976378,
                    "duration": 0.04136024999999677
                },
                {
                    "name": "G#4",
                    "midi": 68,
                    "time": 161.6910040000027,
                    "velocity": 0.5433070866141733,
                    "duration": 0.16544099999998707
                },
                {
                    "name": "E4",
                    "midi": 64,
                    "time": 161.6910040000027,
                    "velocity": 0.4566929133858268,
                    "duration": 0.16544099999998707
                },
                {
                    "name": "D4",
                    "midi": 62,
                    "time": 161.85644500000268,
                    "velocity": 0.4094488188976378,
                    "duration": 0.04136024999999677
                },
                {
                    "name": "F#4",
                    "midi": 66,
                    "time": 161.85644500000268,
                    "velocity": 0.4881889763779528,
                    "duration": 0.04136024999999677
                },
                {
                    "name": "F#4",
                    "midi": 66,
                    "time": 161.91159200000268,
                    "velocity": 0.5433070866141733,
                    "duration": 0.22058799999999223
                },
                {
                    "name": "D4",
                    "midi": 62,
                    "time": 161.91159200000268,
                    "velocity": 0.4566929133858268,
                    "duration": 0.22058799999999223
                },
                {
                    "name": "A#1",
                    "midi": 34,
                    "time": 162.29762100000266,
                    "velocity": 0.5433070866141733,
                    "duration": 0.055147000000005164
                },
                {
                    "name": "A#2",
                    "midi": 46,
                    "time": 162.29762100000266,
                    "velocity": 0.5433070866141733,
                    "duration": 0.055147000000005164
                },
                {
                    "name": "B2",
                    "midi": 47,
                    "time": 162.35276800000267,
                    "velocity": 0.6141732283464567,
                    "duration": 0.4411760000000129
                },
                {
                    "name": "B1",
                    "midi": 35,
                    "time": 162.35276800000267,
                    "velocity": 0.6141732283464567,
                    "duration": 0.4411760000000129
                },
                {
                    "name": "A3",
                    "midi": 57,
                    "time": 162.73879700000268,
                    "velocity": 0.41732283464566927,
                    "duration": 0.04136024999999677
                },
                {
                    "name": "A4",
                    "midi": 69,
                    "time": 162.73879700000268,
                    "velocity": 0.49606299212598426,
                    "duration": 0.04136024999999677
                },
                {
                    "name": "F#4",
                    "midi": 66,
                    "time": 162.73879700000268,
                    "velocity": 0.41732283464566927,
                    "duration": 0.04136024999999677
                },
                {
                    "name": "F#4",
                    "midi": 66,
                    "time": 162.79394400000268,
                    "velocity": 0.4645669291338583,
                    "duration": 0.16544099999998707
                },
                {
                    "name": "A4",
                    "midi": 69,
                    "time": 162.79394400000268,
                    "velocity": 0.5511811023622047,
                    "duration": 0.16544099999998707
                },
                {
                    "name": "A3",
                    "midi": 57,
                    "time": 162.79394400000268,
                    "velocity": 0.4645669291338583,
                    "duration": 0.16544099999998707
                },
                {
                    "name": "G#4",
                    "midi": 68,
                    "time": 162.95938500000267,
                    "velocity": 0.4881889763779528,
                    "duration": 0.04136024999999677
                },
                {
                    "name": "G#3",
                    "midi": 56,
                    "time": 162.95938500000267,
                    "velocity": 0.4094488188976378,
                    "duration": 0.04136024999999677
                },
                {
                    "name": "E4",
                    "midi": 64,
                    "time": 162.95938500000267,
                    "velocity": 0.4094488188976378,
                    "duration": 0.04136024999999677
                },
                {
                    "name": "G#4",
                    "midi": 68,
                    "time": 163.01453200000267,
                    "velocity": 0.5433070866141733,
                    "duration": 0.16544099999998707
                },
                {
                    "name": "G#3",
                    "midi": 56,
                    "time": 163.01453200000267,
                    "velocity": 0.4566929133858268,
                    "duration": 0.16544099999998707
                },
                {
                    "name": "E4",
                    "midi": 64,
                    "time": 163.01453200000267,
                    "velocity": 0.4566929133858268,
                    "duration": 0.16544099999998707
                },
                {
                    "name": "F#4",
                    "midi": 66,
                    "time": 163.17997300000266,
                    "velocity": 0.4881889763779528,
                    "duration": 0.055147000000005164
                },
                {
                    "name": "F#3",
                    "midi": 54,
                    "time": 163.17997300000266,
                    "velocity": 0.4094488188976378,
                    "duration": 0.055147000000005164
                },
                {
                    "name": "D#4",
                    "midi": 63,
                    "time": 163.17997300000266,
                    "velocity": 0.4094488188976378,
                    "duration": 0.055147000000005164
                },
                {
                    "name": "C2",
                    "midi": 36,
                    "time": 163.23512000000267,
                    "velocity": 0.6141732283464567,
                    "duration": 0.4411760000000129
                },
                {
                    "name": "C3",
                    "midi": 48,
                    "time": 163.23512000000267,
                    "velocity": 0.6141732283464567,
                    "duration": 0.4411760000000129
                },
                {
                    "name": "F#4",
                    "midi": 66,
                    "time": 163.62114900000267,
                    "velocity": 0.41732283464566927,
                    "duration": 0.04136024999999677
                },
                {
                    "name": "A3",
                    "midi": 57,
                    "time": 163.62114900000267,
                    "velocity": 0.41732283464566927,
                    "duration": 0.04136024999999677
                },
                {
                    "name": "A4",
                    "midi": 69,
                    "time": 163.62114900000267,
                    "velocity": 0.49606299212598426,
                    "duration": 0.04136024999999677
                },
                {
                    "name": "F#4",
                    "midi": 66,
                    "time": 163.67629600000268,
                    "velocity": 0.4645669291338583,
                    "duration": 0.16544099999998707
                },
                {
                    "name": "A3",
                    "midi": 57,
                    "time": 163.67629600000268,
                    "velocity": 0.4645669291338583,
                    "duration": 0.16544099999998707
                },
                {
                    "name": "A4",
                    "midi": 69,
                    "time": 163.67629600000268,
                    "velocity": 0.5511811023622047,
                    "duration": 0.16544099999998707
                },
                {
                    "name": "E4",
                    "midi": 64,
                    "time": 163.84173700000267,
                    "velocity": 0.4094488188976378,
                    "duration": 0.04136024999999677
                },
                {
                    "name": "G#3",
                    "midi": 56,
                    "time": 163.84173700000267,
                    "velocity": 0.4094488188976378,
                    "duration": 0.04136024999999677
                },
                {
                    "name": "G#4",
                    "midi": 68,
                    "time": 163.84173700000267,
                    "velocity": 0.4881889763779528,
                    "duration": 0.04136024999999677
                },
                {
                    "name": "E4",
                    "midi": 64,
                    "time": 163.89688400000267,
                    "velocity": 0.4566929133858268,
                    "duration": 0.16544099999998707
                },
                {
                    "name": "G#3",
                    "midi": 56,
                    "time": 163.89688400000267,
                    "velocity": 0.4566929133858268,
                    "duration": 0.16544099999998707
                },
                {
                    "name": "G#4",
                    "midi": 68,
                    "time": 163.89688400000267,
                    "velocity": 0.5433070866141733,
                    "duration": 0.16544099999998707
                },
                {
                    "name": "D#4",
                    "midi": 63,
                    "time": 164.06232500000266,
                    "velocity": 0.4094488188976378,
                    "duration": 0.055147000000005164
                },
                {
                    "name": "F#3",
                    "midi": 54,
                    "time": 164.06232500000266,
                    "velocity": 0.4094488188976378,
                    "duration": 0.055147000000005164
                },
                {
                    "name": "F#4",
                    "midi": 66,
                    "time": 164.06232500000266,
                    "velocity": 0.4881889763779528,
                    "duration": 0.055147000000005164
                },
                {
                    "name": "G2",
                    "midi": 43,
                    "time": 164.11747200000266,
                    "velocity": 0.6141732283464567,
                    "duration": 0.4411760000000129
                },
                {
                    "name": "G1",
                    "midi": 31,
                    "time": 164.11747200000266,
                    "velocity": 0.6141732283464567,
                    "duration": 0.4411760000000129
                },
                {
                    "name": "A#5",
                    "midi": 82,
                    "time": 164.50350100000267,
                    "velocity": 0.49606299212598426,
                    "duration": 0.04136024999999677
                },
                {
                    "name": "G5",
                    "midi": 79,
                    "time": 164.50350100000267,
                    "velocity": 0.41732283464566927,
                    "duration": 0.04136024999999677
                },
                {
                    "name": "A#4",
                    "midi": 70,
                    "time": 164.50350100000267,
                    "velocity": 0.3543307086614173,
                    "duration": 0.04136024999999677
                },
                {
                    "name": "A#5",
                    "midi": 82,
                    "time": 164.55864800000268,
                    "velocity": 0.5511811023622047,
                    "duration": 0.16544099999998707
                },
                {
                    "name": "G5",
                    "midi": 79,
                    "time": 164.55864800000268,
                    "velocity": 0.4645669291338583,
                    "duration": 0.16544099999998707
                },
                {
                    "name": "A#4",
                    "midi": 70,
                    "time": 164.55864800000268,
                    "velocity": 0.3858267716535433,
                    "duration": 0.16544099999998707
                },
                {
                    "name": "A5",
                    "midi": 81,
                    "time": 164.72408900000266,
                    "velocity": 0.4881889763779528,
                    "duration": 0.04136024999999677
                },
                {
                    "name": "F#5",
                    "midi": 78,
                    "time": 164.72408900000266,
                    "velocity": 0.4094488188976378,
                    "duration": 0.04136024999999677
                },
                {
                    "name": "A4",
                    "midi": 69,
                    "time": 164.72408900000266,
                    "velocity": 0.3464566929133858,
                    "duration": 0.04136024999999677
                },
                {
                    "name": "A5",
                    "midi": 81,
                    "time": 164.77923600000267,
                    "velocity": 0.5433070866141733,
                    "duration": 0.16544099999998707
                },
                {
                    "name": "F#5",
                    "midi": 78,
                    "time": 164.77923600000267,
                    "velocity": 0.4566929133858268,
                    "duration": 0.16544099999998707
                },
                {
                    "name": "A4",
                    "midi": 69,
                    "time": 164.77923600000267,
                    "velocity": 0.3858267716535433,
                    "duration": 0.16544099999998707
                },
                {
                    "name": "G5",
                    "midi": 79,
                    "time": 164.94467700000266,
                    "velocity": 0.4881889763779528,
                    "duration": 0.04136024999999677
                },
                {
                    "name": "E5",
                    "midi": 76,
                    "time": 164.94467700000266,
                    "velocity": 0.4094488188976378,
                    "duration": 0.04136024999999677
                },
                {
                    "name": "G4",
                    "midi": 67,
                    "time": 164.94467700000266,
                    "velocity": 0.3464566929133858,
                    "duration": 0.04136024999999677
                },
                {
                    "name": "E5",
                    "midi": 76,
                    "time": 164.99982400000266,
                    "velocity": 0.5433070866141733,
                    "duration": 0.16544099999998707
                },
                {
                    "name": "G5",
                    "midi": 79,
                    "time": 164.99982400000266,
                    "velocity": 0.5433070866141733,
                    "duration": 0.16544099999998707
                },
                {
                    "name": "G4",
                    "midi": 67,
                    "time": 164.99982400000266,
                    "velocity": 0.4566929133858268,
                    "duration": 0.16544099999998707
                },
                {
                    "name": "C#5",
                    "midi": 73,
                    "time": 165.16526500000265,
                    "velocity": 0.4881889763779528,
                    "duration": 0.04136024999999677
                },
                {
                    "name": "E5",
                    "midi": 76,
                    "time": 165.16526500000265,
                    "velocity": 0.4881889763779528,
                    "duration": 0.04136024999999677
                },
                {
                    "name": "E4",
                    "midi": 64,
                    "time": 165.16526500000265,
                    "velocity": 0.4094488188976378,
                    "duration": 0.04136024999999677
                },
                {
                    "name": "C#5",
                    "midi": 73,
                    "time": 165.22041200000265,
                    "velocity": 0.5433070866141733,
                    "duration": 0.16544099999998707
                },
                {
                    "name": "E5",
                    "midi": 76,
                    "time": 165.22041200000265,
                    "velocity": 0.5433070866141733,
                    "duration": 0.16544099999998707
                },
                {
                    "name": "E4",
                    "midi": 64,
                    "time": 165.22041200000265,
                    "velocity": 0.4566929133858268,
                    "duration": 0.16544099999998707
                },
                {
                    "name": "C5",
                    "midi": 72,
                    "time": 165.38585300000264,
                    "velocity": 0.4881889763779528,
                    "duration": 0.04136024999999677
                },
                {
                    "name": "D#5",
                    "midi": 75,
                    "time": 165.38585300000264,
                    "velocity": 0.4881889763779528,
                    "duration": 0.04136024999999677
                },
                {
                    "name": "D#4",
                    "midi": 63,
                    "time": 165.38585300000264,
                    "velocity": 0.4094488188976378,
                    "duration": 0.04136024999999677
                },
                {
                    "name": "C5",
                    "midi": 72,
                    "time": 165.44100000000265,
                    "velocity": 0.5433070866141733,
                    "duration": 0.16544099999998707
                },
                {
                    "name": "D#5",
                    "midi": 75,
                    "time": 165.44100000000265,
                    "velocity": 0.5433070866141733,
                    "duration": 0.16544099999998707
                },
                {
                    "name": "D#4",
                    "midi": 63,
                    "time": 165.44100000000265,
                    "velocity": 0.4566929133858268,
                    "duration": 0.16544099999998707
                },
                {
                    "name": "A#4",
                    "midi": 70,
                    "time": 165.60644100000263,
                    "velocity": 0.4881889763779528,
                    "duration": 0.04136024999999677
                },
                {
                    "name": "C#5",
                    "midi": 73,
                    "time": 165.60644100000263,
                    "velocity": 0.4881889763779528,
                    "duration": 0.04136024999999677
                },
                {
                    "name": "C#4",
                    "midi": 61,
                    "time": 165.60644100000263,
                    "velocity": 0.4094488188976378,
                    "duration": 0.04136024999999677
                },
                {
                    "name": "A#4",
                    "midi": 70,
                    "time": 165.66158800000264,
                    "velocity": 0.5433070866141733,
                    "duration": 0.16544099999998707
                },
                {
                    "name": "C#5",
                    "midi": 73,
                    "time": 165.66158800000264,
                    "velocity": 0.5433070866141733,
                    "duration": 0.16544099999998707
                },
                {
                    "name": "C#4",
                    "midi": 61,
                    "time": 165.66158800000264,
                    "velocity": 0.4566929133858268,
                    "duration": 0.16544099999998707
                },
                {
                    "name": "G4",
                    "midi": 67,
                    "time": 165.82702900000263,
                    "velocity": 0.4881889763779528,
                    "duration": 0.04136024999999677
                },
                {
                    "name": "A#4",
                    "midi": 70,
                    "time": 165.82702900000263,
                    "velocity": 0.4881889763779528,
                    "duration": 0.04136024999999677
                },
                {
                    "name": "A#3",
                    "midi": 58,
                    "time": 165.82702900000263,
                    "velocity": 0.4094488188976378,
                    "duration": 0.04136024999999677
                },
                {
                    "name": "A#4",
                    "midi": 70,
                    "time": 165.88217600000263,
                    "velocity": 0.5511811023622047,
                    "duration": 0.16544099999998707
                },
                {
                    "name": "G4",
                    "midi": 67,
                    "time": 165.88217600000263,
                    "velocity": 0.4645669291338583,
                    "duration": 0.16544099999998707
                },
                {
                    "name": "A#3",
                    "midi": 58,
                    "time": 165.88217600000263,
                    "velocity": 0.3858267716535433,
                    "duration": 0.16544099999998707
                },
                {
                    "name": "A4",
                    "midi": 69,
                    "time": 166.04761700000262,
                    "velocity": 0.4881889763779528,
                    "duration": 0.04136024999999677
                },
                {
                    "name": "F#4",
                    "midi": 66,
                    "time": 166.04761700000262,
                    "velocity": 0.4094488188976378,
                    "duration": 0.04136024999999677
                },
                {
                    "name": "A3",
                    "midi": 57,
                    "time": 166.04761700000262,
                    "velocity": 0.3464566929133858,
                    "duration": 0.04136024999999677
                },
                {
                    "name": "A4",
                    "midi": 69,
                    "time": 166.10276400000262,
                    "velocity": 0.5433070866141733,
                    "duration": 0.16544099999998707
                },
                {
                    "name": "F#4",
                    "midi": 66,
                    "time": 166.10276400000262,
                    "velocity": 0.4566929133858268,
                    "duration": 0.16544099999998707
                },
                {
                    "name": "A3",
                    "midi": 57,
                    "time": 166.10276400000262,
                    "velocity": 0.3858267716535433,
                    "duration": 0.16544099999998707
                },
                {
                    "name": "G4",
                    "midi": 67,
                    "time": 166.2682050000026,
                    "velocity": 0.4881889763779528,
                    "duration": 0.04136024999999677
                },
                {
                    "name": "E4",
                    "midi": 64,
                    "time": 166.2682050000026,
                    "velocity": 0.4094488188976378,
                    "duration": 0.04136024999999677
                },
                {
                    "name": "G3",
                    "midi": 55,
                    "time": 166.2682050000026,
                    "velocity": 0.3464566929133858,
                    "duration": 0.04136024999999677
                },
                {
                    "name": "E4",
                    "midi": 64,
                    "time": 166.32335200000261,
                    "velocity": 0.5433070866141733,
                    "duration": 0.16544099999998707
                },
                {
                    "name": "G4",
                    "midi": 67,
                    "time": 166.32335200000261,
                    "velocity": 0.5433070866141733,
                    "duration": 0.16544099999998707
                },
                {
                    "name": "G3",
                    "midi": 55,
                    "time": 166.32335200000261,
                    "velocity": 0.4566929133858268,
                    "duration": 0.16544099999998707
                },
                {
                    "name": "C#4",
                    "midi": 61,
                    "time": 166.4887930000026,
                    "velocity": 0.4881889763779528,
                    "duration": 0.04136024999999677
                },
                {
                    "name": "E4",
                    "midi": 64,
                    "time": 166.4887930000026,
                    "velocity": 0.4881889763779528,
                    "duration": 0.04136024999999677
                },
                {
                    "name": "E3",
                    "midi": 52,
                    "time": 166.4887930000026,
                    "velocity": 0.4094488188976378,
                    "duration": 0.04136024999999677
                },
                {
                    "name": "C#4",
                    "midi": 61,
                    "time": 166.5439400000026,
                    "velocity": 0.5433070866141733,
                    "duration": 0.16544099999998707
                },
                {
                    "name": "E3",
                    "midi": 52,
                    "time": 166.5439400000026,
                    "velocity": 0.4566929133858268,
                    "duration": 0.16544099999998707
                },
                {
                    "name": "E4",
                    "midi": 64,
                    "time": 166.5439400000026,
                    "velocity": 0.5433070866141733,
                    "duration": 0.16544099999998707
                },
                {
                    "name": "C4",
                    "midi": 60,
                    "time": 166.7093810000026,
                    "velocity": 0.4881889763779528,
                    "duration": 0.04136024999999677
                },
                {
                    "name": "D#3",
                    "midi": 51,
                    "time": 166.7093810000026,
                    "velocity": 0.4094488188976378,
                    "duration": 0.04136024999999677
                },
                {
                    "name": "D#4",
                    "midi": 63,
                    "time": 166.7093810000026,
                    "velocity": 0.4881889763779528,
                    "duration": 0.04136024999999677
                },
                {
                    "name": "C4",
                    "midi": 60,
                    "time": 166.7645280000026,
                    "velocity": 0.5433070866141733,
                    "duration": 0.16544099999998707
                },
                {
                    "name": "D#3",
                    "midi": 51,
                    "time": 166.7645280000026,
                    "velocity": 0.4566929133858268,
                    "duration": 0.16544099999998707
                },
                {
                    "name": "D#4",
                    "midi": 63,
                    "time": 166.7645280000026,
                    "velocity": 0.5433070866141733,
                    "duration": 0.16544099999998707
                },
                {
                    "name": "A#3",
                    "midi": 58,
                    "time": 166.9299690000026,
                    "velocity": 0.4881889763779528,
                    "duration": 0.04136024999999677
                },
                {
                    "name": "C#3",
                    "midi": 49,
                    "time": 166.9299690000026,
                    "velocity": 0.4094488188976378,
                    "duration": 0.04136024999999677
                },
                {
                    "name": "C#4",
                    "midi": 61,
                    "time": 166.9299690000026,
                    "velocity": 0.4881889763779528,
                    "duration": 0.04136024999999677
                },
                {
                    "name": "C#4",
                    "midi": 61,
                    "time": 166.9851160000026,
                    "velocity": 0.5433070866141733,
                    "duration": 0.16544099999998707
                },
                {
                    "name": "A#3",
                    "midi": 58,
                    "time": 166.9851160000026,
                    "velocity": 0.5433070866141733,
                    "duration": 0.16544099999998707
                },
                {
                    "name": "C#3",
                    "midi": 49,
                    "time": 166.9851160000026,
                    "velocity": 0.4566929133858268,
                    "duration": 0.16544099999998707
                },
                {
                    "name": "A#3",
                    "midi": 58,
                    "time": 167.15055700000258,
                    "velocity": 0.4881889763779528,
                    "duration": 0.04136024999999677
                },
                {
                    "name": "G3",
                    "midi": 55,
                    "time": 167.15055700000258,
                    "velocity": 0.4881889763779528,
                    "duration": 0.04136024999999677
                },
                {
                    "name": "A#2",
                    "midi": 46,
                    "time": 167.15055700000258,
                    "velocity": 0.4094488188976378,
                    "duration": 0.04136024999999677
                },
                {
                    "name": "G3",
                    "midi": 55,
                    "time": 167.20570400000258,
                    "velocity": 0.4645669291338583,
                    "duration": 0.16544099999998707
                },
                {
                    "name": "A#3",
                    "midi": 58,
                    "time": 167.20570400000258,
                    "velocity": 0.5511811023622047,
                    "duration": 0.16544099999998707
                },
                {
                    "name": "A#2",
                    "midi": 46,
                    "time": 167.20570400000258,
                    "velocity": 0.3858267716535433,
                    "duration": 0.16544099999998707
                },
                {
                    "name": "F#3",
                    "midi": 54,
                    "time": 167.37114500000257,
                    "velocity": 0.4094488188976378,
                    "duration": 0.04136024999999677
                },
                {
                    "name": "A3",
                    "midi": 57,
                    "time": 167.37114500000257,
                    "velocity": 0.4881889763779528,
                    "duration": 0.04136024999999677
                },
                {
                    "name": "A2",
                    "midi": 45,
                    "time": 167.37114500000257,
                    "velocity": 0.3464566929133858,
                    "duration": 0.04136024999999677
                },
                {
                    "name": "F#3",
                    "midi": 54,
                    "time": 167.42629200000258,
                    "velocity": 0.4566929133858268,
                    "duration": 0.16544099999998707
                },
                {
                    "name": "A3",
                    "midi": 57,
                    "time": 167.42629200000258,
                    "velocity": 0.5433070866141733,
                    "duration": 0.16544099999998707
                },
                {
                    "name": "A2",
                    "midi": 45,
                    "time": 167.42629200000258,
                    "velocity": 0.3858267716535433,
                    "duration": 0.16544099999998707
                },
                {
                    "name": "E3",
                    "midi": 52,
                    "time": 167.59173300000256,
                    "velocity": 0.4094488188976378,
                    "duration": 0.04136024999999677
                },
                {
                    "name": "G3",
                    "midi": 55,
                    "time": 167.59173300000256,
                    "velocity": 0.4881889763779528,
                    "duration": 0.04136024999999677
                },
                {
                    "name": "G2",
                    "midi": 43,
                    "time": 167.59173300000256,
                    "velocity": 0.3464566929133858,
                    "duration": 0.04136024999999677
                },
                {
                    "name": "G3",
                    "midi": 55,
                    "time": 167.64688000000257,
                    "velocity": 0.5433070866141733,
                    "duration": 0.16544099999998707
                },
                {
                    "name": "E3",
                    "midi": 52,
                    "time": 167.64688000000257,
                    "velocity": 0.5433070866141733,
                    "duration": 0.16544099999998707
                },
                {
                    "name": "G2",
                    "midi": 43,
                    "time": 167.64688000000257,
                    "velocity": 0.4566929133858268,
                    "duration": 0.16544099999998707
                },
                {
                    "name": "G1",
                    "midi": 31,
                    "time": 168.03290900000255,
                    "velocity": 0.4330708661417323,
                    "duration": 0.055147000000005164
                },
                {
                    "name": "G2",
                    "midi": 43,
                    "time": 168.03290900000255,
                    "velocity": 0.5039370078740157,
                    "duration": 0.055147000000005164
                },
                {
                    "name": "C#2",
                    "midi": 37,
                    "time": 168.03290900000255,
                    "velocity": 0.4330708661417323,
                    "duration": 0.055147000000005164
                },
                {
                    "name": "E2",
                    "midi": 40,
                    "time": 168.03290900000255,
                    "velocity": 0.4330708661417323,
                    "duration": 0.055147000000005164
                },
                {
                    "name": "G#2",
                    "midi": 44,
                    "time": 168.08805600000255,
                    "velocity": 0.5039370078740157,
                    "duration": 0.11029400000001033
                },
                {
                    "name": "E2",
                    "midi": 40,
                    "time": 168.08805600000255,
                    "velocity": 0.4330708661417323,
                    "duration": 0.11029400000001033
                },
                {
                    "name": "G#1",
                    "midi": 32,
                    "time": 168.08805600000255,
                    "velocity": 0.4330708661417323,
                    "duration": 0.11029400000001033
                },
                {
                    "name": "C#2",
                    "midi": 37,
                    "time": 168.08805600000255,
                    "velocity": 0.4330708661417323,
                    "duration": 0.11029400000001033
                },
                {
                    "name": "C#2",
                    "midi": 37,
                    "time": 168.41893800000256,
                    "velocity": 0.4409448818897638,
                    "duration": 0.11029400000001033
                },
                {
                    "name": "G#2",
                    "midi": 44,
                    "time": 168.41893800000256,
                    "velocity": 0.5275590551181102,
                    "duration": 0.11029400000001033
                },
                {
                    "name": "G#1",
                    "midi": 32,
                    "time": 168.41893800000256,
                    "velocity": 0.4409448818897638,
                    "duration": 0.11029400000001033
                },
                {
                    "name": "E2",
                    "midi": 40,
                    "time": 168.41893800000256,
                    "velocity": 0.4409448818897638,
                    "duration": 0.11029400000001033
                },
                {
                    "name": "G#1",
                    "midi": 32,
                    "time": 168.52923200000257,
                    "velocity": 0.48031496062992124,
                    "duration": 0.11029400000001033
                },
                {
                    "name": "G#2",
                    "midi": 44,
                    "time": 168.52923200000257,
                    "velocity": 0.5669291338582677,
                    "duration": 0.11029400000001033
                },
                {
                    "name": "C#2",
                    "midi": 37,
                    "time": 168.52923200000257,
                    "velocity": 0.48031496062992124,
                    "duration": 0.11029400000001033
                },
                {
                    "name": "E2",
                    "midi": 40,
                    "time": 168.52923200000257,
                    "velocity": 0.48031496062992124,
                    "duration": 0.11029400000001033
                },
                {
                    "name": "G#2",
                    "midi": 44,
                    "time": 168.86011400000257,
                    "velocity": 0.5039370078740157,
                    "duration": 0.11029400000001033
                },
                {
                    "name": "E2",
                    "midi": 40,
                    "time": 168.86011400000257,
                    "velocity": 0.4330708661417323,
                    "duration": 0.11029400000001033
                },
                {
                    "name": "G#1",
                    "midi": 32,
                    "time": 168.86011400000257,
                    "velocity": 0.4330708661417323,
                    "duration": 0.11029400000001033
                },
                {
                    "name": "C#2",
                    "midi": 37,
                    "time": 168.86011400000257,
                    "velocity": 0.4330708661417323,
                    "duration": 0.11029400000001033
                },
                {
                    "name": "D#2",
                    "midi": 39,
                    "time": 168.97040800000258,
                    "velocity": 0.48031496062992124,
                    "duration": 0.4411760000000129
                },
                {
                    "name": "G#2",
                    "midi": 44,
                    "time": 168.97040800000258,
                    "velocity": 0.5669291338582677,
                    "duration": 0.4411760000000129
                },
                {
                    "name": "G#1",
                    "midi": 32,
                    "time": 168.97040800000258,
                    "velocity": 0.48031496062992124,
                    "duration": 0.4411760000000129
                },
                {
                    "name": "F#2",
                    "midi": 42,
                    "time": 168.97040800000258,
                    "velocity": 0.48031496062992124,
                    "duration": 0.4411760000000129
                },
                {
                    "name": "G#1",
                    "midi": 32,
                    "time": 169.4115840000026,
                    "velocity": 0.44881889763779526,
                    "duration": 0.33088200000000256
                },
                {
                    "name": "G#2",
                    "midi": 44,
                    "time": 169.4115840000026,
                    "velocity": 0.5354330708661418,
                    "duration": 0.33088200000000256
                },
                {
                    "name": "D#2",
                    "midi": 39,
                    "time": 169.4115840000026,
                    "velocity": 0.44881889763779526,
                    "duration": 0.33088200000000256
                },
                {
                    "name": "F#2",
                    "midi": 42,
                    "time": 169.4115840000026,
                    "velocity": 0.44881889763779526,
                    "duration": 0.33088200000000256
                },
                {
                    "name": "G#2",
                    "midi": 44,
                    "time": 169.7976130000026,
                    "velocity": 0.31496062992125984,
                    "duration": 0.454962749999936
                },
                {
                    "name": "E3",
                    "midi": 52,
                    "time": 169.80680416666925,
                    "velocity": 0.33070866141732286,
                    "duration": 0.4457715833332827
                },
                {
                    "name": "G#3",
                    "midi": 56,
                    "time": 169.8159953333359,
                    "velocity": 0.3543307086614173,
                    "duration": 0.4273892499999761
                },
                {
                    "name": "C#4",
                    "midi": 61,
                    "time": 169.82518650000256,
                    "velocity": 0.4015748031496063,
                    "duration": 0.4273892499999761
                },
                {
                    "name": "G#2",
                    "midi": 44,
                    "time": 170.25257575000253,
                    "velocity": 0.3543307086614173,
                    "duration": 0.4411760000000129
                },
                {
                    "name": "E3",
                    "midi": 52,
                    "time": 170.26636250000254,
                    "velocity": 0.3779527559055118,
                    "duration": 0.4273892500000045
                },
                {
                    "name": "G#3",
                    "midi": 56,
                    "time": 170.28014925000255,
                    "velocity": 0.41732283464566927,
                    "duration": 0.4136024999999961
                },
                {
                    "name": "C#4",
                    "midi": 61,
                    "time": 170.29393600000256,
                    "velocity": 0.4566929133858268,
                    "duration": 0.3998157499999877
                },
                {
                    "name": "G#2",
                    "midi": 44,
                    "time": 170.69375175000255,
                    "velocity": 0.3700787401574803,
                    "duration": 0.4825362499999528
                },
                {
                    "name": "D#3",
                    "midi": 51,
                    "time": 170.7029429166692,
                    "velocity": 0.3858267716535433,
                    "duration": 0.4733450833332995
                },
                {
                    "name": "G#3",
                    "midi": 56,
                    "time": 170.71213408333585,
                    "velocity": 0.4094488188976378,
                    "duration": 0.4641539166666462
                },
                {
                    "name": "C4",
                    "midi": 60,
                    "time": 170.7213252500025,
                    "velocity": 0.4330708661417323,
                    "duration": 0.45496274999999287
                },
                {
                    "name": "G#3",
                    "midi": 56,
                    "time": 171.5761037500025,
                    "velocity": 0.3779527559055118,
                    "duration": 0.4411760000000129
                },
                {
                    "name": "E4",
                    "midi": 64,
                    "time": 171.5898905000025,
                    "velocity": 0.4015748031496063,
                    "duration": 0.4273892500000045
                },
                {
                    "name": "G#4",
                    "midi": 68,
                    "time": 171.6036772500025,
                    "velocity": 0.41732283464566927,
                    "duration": 0.4136024999999961
                },
                {
                    "name": "C#5",
                    "midi": 73,
                    "time": 171.6174640000025,
                    "velocity": 0.44881889763779526,
                    "duration": 0.3998157499999877
                },
                {
                    "name": "G#3",
                    "midi": 56,
                    "time": 172.0172797500025,
                    "velocity": 0.29133858267716534,
                    "duration": 0.4411760000000129
                },
                {
                    "name": "E4",
                    "midi": 64,
                    "time": 172.0310665000025,
                    "velocity": 0.30708661417322836,
                    "duration": 0.4273892500000045
                },
                {
                    "name": "G#4",
                    "midi": 68,
                    "time": 172.04485325000252,
                    "velocity": 0.3228346456692913,
                    "duration": 0.4136024999999961
                },
                {
                    "name": "C#5",
                    "midi": 73,
                    "time": 172.05864000000253,
                    "velocity": 0.3464566929133858,
                    "duration": 0.3998157499999877
                },
                {
                    "name": "G#3",
                    "midi": 56,
                    "time": 172.47224250000252,
                    "velocity": 0.4015748031496063,
                    "duration": 0.4273892500000045
                },
                {
                    "name": "F#4",
                    "midi": 66,
                    "time": 172.48602925000253,
                    "velocity": 0.4251968503937008,
                    "duration": 0.4136024999999961
                },
                {
                    "name": "C5",
                    "midi": 72,
                    "time": 172.49981600000254,
                    "velocity": 0.44881889763779526,
                    "duration": 0.3998157499999877
                },
                {
                    "name": "G#3",
                    "midi": 56,
                    "time": 172.91341850000254,
                    "velocity": 0.4015748031496063,
                    "duration": 0.4273892500000045
                },
                {
                    "name": "F#4",
                    "midi": 66,
                    "time": 172.92720525000254,
                    "velocity": 0.4251968503937008,
                    "duration": 0.4136024999999961
                },
                {
                    "name": "C5",
                    "midi": 72,
                    "time": 172.94099200000255,
                    "velocity": 0.44881889763779526,
                    "duration": 0.3998157499999877
                },
                {
                    "name": "G#3",
                    "midi": 56,
                    "time": 173.34080775000254,
                    "velocity": 0.3228346456692913,
                    "duration": 0.4411760000000129
                },
                {
                    "name": "E4",
                    "midi": 64,
                    "time": 173.35459450000255,
                    "velocity": 0.3464566929133858,
                    "duration": 0.4273892500000045
                },
                {
                    "name": "G#4",
                    "midi": 68,
                    "time": 173.36838125000256,
                    "velocity": 0.3700787401574803,
                    "duration": 0.4136024999999961
                },
                {
                    "name": "C#5",
                    "midi": 73,
                    "time": 173.38216800000257,
                    "velocity": 0.4015748031496063,
                    "duration": 0.3998157499999877
                },
                {
                    "name": "G#3",
                    "midi": 56,
                    "time": 173.78198375000255,
                    "velocity": 0.28346456692913385,
                    "duration": 0.4411760000000129
                },
                {
                    "name": "E4",
                    "midi": 64,
                    "time": 173.79577050000256,
                    "velocity": 0.2992125984251969,
                    "duration": 0.4273892500000045
                },
                {
                    "name": "G#4",
                    "midi": 68,
                    "time": 173.80955725000257,
                    "velocity": 0.31496062992125984,
                    "duration": 0.4136024999999961
                },
                {
                    "name": "C#5",
                    "midi": 73,
                    "time": 173.82334400000258,
                    "velocity": 0.33858267716535434,
                    "duration": 0.3998157499999877
                },
                {
                    "name": "G#3",
                    "midi": 56,
                    "time": 174.23694650000257,
                    "velocity": 0.3937007874015748,
                    "duration": 0.4273892500000045
                },
                {
                    "name": "F#4",
                    "midi": 66,
                    "time": 174.25073325000258,
                    "velocity": 0.4094488188976378,
                    "duration": 0.4136024999999961
                },
                {
                    "name": "C5",
                    "midi": 72,
                    "time": 174.2645200000026,
                    "velocity": 0.4330708661417323,
                    "duration": 0.3998157499999877
                },
                {
                    "name": "G#4",
                    "midi": 68,
                    "time": 180.22039600000258,
                    "velocity": 0.3937007874015748,
                    "duration": 0.19301450000000386
                },
                {
                    "name": "C#4",
                    "midi": 61,
                    "time": 180.41341050000258,
                    "velocity": 0.3464566929133858,
                    "duration": 0.13786750000002712
                },
                {
                    "name": "G#4",
                    "midi": 68,
                    "time": 180.4271972500026,
                    "velocity": 0.36220472440944884,
                    "duration": 0.12408075000001872
                },
                {
                    "name": "F5",
                    "midi": 77,
                    "time": 180.4409840000026,
                    "velocity": 0.3779527559055118,
                    "duration": 0.11029400000001033
                },
                {
                    "name": "G#4",
                    "midi": 68,
                    "time": 180.8545865000026,
                    "velocity": 0.3700787401574803,
                    "duration": 0.13786750000002712
                },
                {
                    "name": "D#5",
                    "midi": 75,
                    "time": 180.8683732500026,
                    "velocity": 0.3858267716535433,
                    "duration": 0.12408075000001872
                },
                {
                    "name": "F#5",
                    "midi": 78,
                    "time": 180.8821600000026,
                    "velocity": 0.4015748031496063,
                    "duration": 0.11029400000001033
                },
                {
                    "name": "C#4",
                    "midi": 61,
                    "time": 181.29576250000264,
                    "velocity": 0.33070866141732286,
                    "duration": 0.13786750000002712
                },
                {
                    "name": "G#4",
                    "midi": 68,
                    "time": 181.30954925000265,
                    "velocity": 0.36220472440944884,
                    "duration": 0.12408075000001872
                },
                {
                    "name": "F5",
                    "midi": 77,
                    "time": 181.32333600000266,
                    "velocity": 0.3858267716535433,
                    "duration": 0.11029400000001033
                },
                {
                    "name": "C#5",
                    "midi": 73,
                    "time": 181.98510000000266,
                    "velocity": 0.3937007874015748,
                    "duration": 0.22058799999999223
                },
                {
                    "name": "A#5",
                    "midi": 82,
                    "time": 182.20568800000265,
                    "velocity": 0.3464566929133858,
                    "duration": 0.11029400000001033
                },
                {
                    "name": "F#4",
                    "midi": 66,
                    "time": 182.20568800000265,
                    "velocity": 0.3464566929133858,
                    "duration": 0.22058800000002066
                },
                {
                    "name": "C#5",
                    "midi": 73,
                    "time": 182.20568800000265,
                    "velocity": 0.3464566929133858,
                    "duration": 0.22058800000002066
                },
                {
                    "name": "A#5",
                    "midi": 82,
                    "time": 182.42627600000267,
                    "velocity": 0.3464566929133858,
                    "duration": 0.11029400000001033
                },
                {
                    "name": "G#5",
                    "midi": 80,
                    "time": 182.6468640000027,
                    "velocity": 0.4251968503937008,
                    "duration": 0.44117599999998447
                },
                {
                    "name": "F4",
                    "midi": 65,
                    "time": 182.6468640000027,
                    "velocity": 0.3464566929133858,
                    "duration": 0.22058799999999223
                },
                {
                    "name": "D5",
                    "midi": 74,
                    "time": 182.6468640000027,
                    "velocity": 0.3464566929133858,
                    "duration": 0.22058799999999223
                },
                {
                    "name": "D#4",
                    "midi": 63,
                    "time": 183.08804000000268,
                    "velocity": 0.3779527559055118,
                    "duration": 0.22058800000002066
                },
                {
                    "name": "A#4",
                    "midi": 70,
                    "time": 183.08804000000268,
                    "velocity": 0.3779527559055118,
                    "duration": 0.22058800000002066
                },
                {
                    "name": "F#5",
                    "midi": 78,
                    "time": 183.08804000000268,
                    "velocity": 0.3937007874015748,
                    "duration": 0.11029400000001033
                },
                {
                    "name": "F#5",
                    "midi": 78,
                    "time": 183.3086280000027,
                    "velocity": 0.4251968503937008,
                    "duration": 0.4411760000000129
                },
                {
                    "name": "D#5",
                    "midi": 75,
                    "time": 183.7498040000027,
                    "velocity": 0.41732283464566927,
                    "duration": 0.22058799999999223
                },
                {
                    "name": "F#5",
                    "midi": 78,
                    "time": 183.7498040000027,
                    "velocity": 0.41732283464566927,
                    "duration": 0.22058799999999223
                },
                {
                    "name": "A#5",
                    "midi": 82,
                    "time": 183.9703920000027,
                    "velocity": 0.48031496062992124,
                    "duration": 0.22058799999999223
                },
                {
                    "name": "C#6",
                    "midi": 85,
                    "time": 183.9703920000027,
                    "velocity": 0.48031496062992124,
                    "duration": 0.22058799999999223
                },
                {
                    "name": "A#5",
                    "midi": 82,
                    "time": 184.1909800000027,
                    "velocity": 0.41732283464566927,
                    "duration": 0.22058799999999223
                },
                {
                    "name": "C#6",
                    "midi": 85,
                    "time": 184.1909800000027,
                    "velocity": 0.41732283464566927,
                    "duration": 0.22058799999999223
                },
                {
                    "name": "G#5",
                    "midi": 80,
                    "time": 184.4115680000027,
                    "velocity": 0.47244094488188976,
                    "duration": 0.33088200000000256
                },
                {
                    "name": "C6",
                    "midi": 84,
                    "time": 184.4115680000027,
                    "velocity": 0.47244094488188976,
                    "duration": 0.33088200000000256
                },
                {
                    "name": "F#5",
                    "midi": 78,
                    "time": 184.7424500000027,
                    "velocity": 0.3779527559055118,
                    "duration": 0.11029400000001033
                },
                {
                    "name": "A#5",
                    "midi": 82,
                    "time": 184.7424500000027,
                    "velocity": 0.44881889763779526,
                    "duration": 0.11029400000001033
                },
                {
                    "name": "F5",
                    "midi": 77,
                    "time": 184.8527440000027,
                    "velocity": 0.4409448818897638,
                    "duration": 0.11029400000001033
                },
                {
                    "name": "G#5",
                    "midi": 80,
                    "time": 184.8527440000027,
                    "velocity": 0.5118110236220472,
                    "duration": 0.11029400000001033
                },
                {
                    "name": "G#4",
                    "midi": 68,
                    "time": 185.07333200000272,
                    "velocity": 0.4409448818897638,
                    "duration": 0.4411760000000129
                },
                {
                    "name": "F5",
                    "midi": 77,
                    "time": 185.07333200000272,
                    "velocity": 0.4409448818897638,
                    "duration": 0.4411760000000129
                },
                {
                    "name": "G#5",
                    "midi": 80,
                    "time": 185.07333200000272,
                    "velocity": 0.4409448818897638,
                    "duration": 0.4411760000000129
                },
                {
                    "name": "F5",
                    "midi": 77,
                    "time": 185.51450800000273,
                    "velocity": 0.3937007874015748,
                    "duration": 0.17922774999999547
                },
                {
                    "name": "A5",
                    "midi": 81,
                    "time": 185.51450800000273,
                    "velocity": 0.3937007874015748,
                    "duration": 0.17922774999999547
                },
                {
                    "name": "G#4",
                    "midi": 68,
                    "time": 185.69373575000273,
                    "velocity": 0.3543307086614173,
                    "duration": 0.15165425000003552
                },
                {
                    "name": "C5",
                    "midi": 72,
                    "time": 185.70752250000274,
                    "velocity": 0.3858267716535433,
                    "duration": 0.13786750000002712
                },
                {
                    "name": "F#5",
                    "midi": 78,
                    "time": 185.72130925000275,
                    "velocity": 0.41732283464566927,
                    "duration": 0.12408075000001872
                },
                {
                    "name": "A#5",
                    "midi": 82,
                    "time": 185.73509600000276,
                    "velocity": 0.4566929133858268,
                    "duration": 0.11029400000001033
                },
                {
                    "name": "A#3",
                    "midi": 58,
                    "time": 186.92075650000277,
                    "velocity": 0.2677165354330709,
                    "duration": 0.04779406666665409
                },
                {
                    "name": "G#3",
                    "midi": 56,
                    "time": 186.96855056666942,
                    "velocity": 0.2755905511811024,
                    "duration": 0.04687494999998876
                },
                {
                    "name": "F#3",
                    "midi": 54,
                    "time": 187.0154255166694,
                    "velocity": 0.2755905511811024,
                    "duration": 0.04779406666665409
                },
                {
                    "name": "F3",
                    "midi": 53,
                    "time": 187.06321958333606,
                    "velocity": 0.2755905511811024,
                    "duration": 0.04779406666665409
                },
                {
                    "name": "D#3",
                    "midi": 51,
                    "time": 187.11101365000272,
                    "velocity": 0.2755905511811024,
                    "duration": 0.04687494999998876
                },
                {
                    "name": "C#3",
                    "midi": 49,
                    "time": 187.1578886000027,
                    "velocity": 0.2755905511811024,
                    "duration": 0.04779406666665409
                },
                {
                    "name": "C3",
                    "midi": 48,
                    "time": 187.20568266666936,
                    "velocity": 0.2755905511811024,
                    "duration": 0.04687494999998876
                },
                {
                    "name": "A#2",
                    "midi": 46,
                    "time": 187.25255761666935,
                    "velocity": 0.2755905511811024,
                    "duration": 0.04779406666665409
                },
                {
                    "name": "G#2",
                    "midi": 44,
                    "time": 187.300351683336,
                    "velocity": 0.2755905511811024,
                    "duration": 0.04779406666665409
                },
                {
                    "name": "F#2",
                    "midi": 42,
                    "time": 187.34814575000266,
                    "velocity": 0.2755905511811024,
                    "duration": 0.04687494999998876
                },
                {
                    "name": "F2",
                    "midi": 41,
                    "time": 187.39502070000265,
                    "velocity": 0.2755905511811024,
                    "duration": 0.04779406666665409
                },
                {
                    "name": "D#2",
                    "midi": 39,
                    "time": 187.44189565000264,
                    "velocity": 0.2755905511811024,
                    "duration": 0.05790435000000116
                },
                {
                    "name": "C#2",
                    "midi": 37,
                    "time": 187.49980000000264,
                    "velocity": 0.2755905511811024,
                    "duration": 0.055147000000005164
                },
                {
                    "name": "F2",
                    "midi": 41,
                    "time": 187.55494700000264,
                    "velocity": 0.2755905511811024,
                    "duration": 0.055147000000005164
                },
                {
                    "name": "G#2",
                    "midi": 44,
                    "time": 187.61009400000265,
                    "velocity": 0.28346456692913385,
                    "duration": 0.055147000000005164
                },
                {
                    "name": "C#3",
                    "midi": 49,
                    "time": 187.66524100000265,
                    "velocity": 0.29133858267716534,
                    "duration": 0.055147000000005164
                },
                {
                    "name": "F3",
                    "midi": 53,
                    "time": 187.72038800000266,
                    "velocity": 0.2992125984251969,
                    "duration": 0.055147000000005164
                },
                {
                    "name": "G#3",
                    "midi": 56,
                    "time": 187.77553500000266,
                    "velocity": 0.30708661417322836,
                    "duration": 0.055147000000005164
                },
                {
                    "name": "C#4",
                    "midi": 61,
                    "time": 187.83068200000267,
                    "velocity": 0.30708661417322836,
                    "duration": 0.055147000000005164
                },
                {
                    "name": "F4",
                    "midi": 65,
                    "time": 187.88582900000267,
                    "velocity": 0.31496062992125984,
                    "duration": 0.055147000000005164
                },
                {
                    "name": "C#3",
                    "midi": 49,
                    "time": 189.2645040000027,
                    "velocity": 0.3228346456692913,
                    "duration": 0.11029400000001033
                },
                {
                    "name": "G#3",
                    "midi": 56,
                    "time": 189.4850920000027,
                    "velocity": 0.2677165354330709,
                    "duration": 0.055147000000005164
                },
                {
                    "name": "C#4",
                    "midi": 61,
                    "time": 189.4850920000027,
                    "velocity": 0.2677165354330709,
                    "duration": 0.055147000000005164
                },
                {
                    "name": "G#2",
                    "midi": 44,
                    "time": 189.7056800000027,
                    "velocity": 0.33070866141732286,
                    "duration": 0.11029400000001033
                },
                {
                    "name": "G#3",
                    "midi": 56,
                    "time": 189.92626800000272,
                    "velocity": 0.2677165354330709,
                    "duration": 0.055147000000005164
                },
                {
                    "name": "D#4",
                    "midi": 63,
                    "time": 189.92626800000272,
                    "velocity": 0.2677165354330709,
                    "duration": 0.055147000000005164
                },
                {
                    "name": "C#3",
                    "midi": 49,
                    "time": 190.1468560000027,
                    "velocity": 0.3464566929133858,
                    "duration": 0.055147000000005164
                },
                {
                    "name": "G#3",
                    "midi": 56,
                    "time": 190.3674440000027,
                    "velocity": 0.2677165354330709,
                    "duration": 0.055147000000005164
                },
                {
                    "name": "C#4",
                    "midi": 61,
                    "time": 190.3674440000027,
                    "velocity": 0.2677165354330709,
                    "duration": 0.055147000000005164
                },
                {
                    "name": "C#3",
                    "midi": 49,
                    "time": 190.5880320000027,
                    "velocity": 0.3543307086614173,
                    "duration": 0.055147000000005164
                },
                {
                    "name": "G#3",
                    "midi": 56,
                    "time": 190.8086200000027,
                    "velocity": 0.2677165354330709,
                    "duration": 0.055147000000005164
                },
                {
                    "name": "C#4",
                    "midi": 61,
                    "time": 190.8086200000027,
                    "velocity": 0.2677165354330709,
                    "duration": 0.055147000000005164
                },
                {
                    "name": "F#3",
                    "midi": 54,
                    "time": 191.02920800000268,
                    "velocity": 0.3700787401574803,
                    "duration": 0.055147000000005164
                },
                {
                    "name": "F#4",
                    "midi": 66,
                    "time": 191.24979600000268,
                    "velocity": 0.2677165354330709,
                    "duration": 0.055147000000005164
                },
                {
                    "name": "C#4",
                    "midi": 61,
                    "time": 191.24979600000268,
                    "velocity": 0.2677165354330709,
                    "duration": 0.055147000000005164
                },
                {
                    "name": "F3",
                    "midi": 53,
                    "time": 191.47038400000267,
                    "velocity": 0.3700787401574803,
                    "duration": 0.055147000000005164
                },
                {
                    "name": "F4",
                    "midi": 65,
                    "time": 191.69097200000266,
                    "velocity": 0.2677165354330709,
                    "duration": 0.055147000000005164
                },
                {
                    "name": "D4",
                    "midi": 62,
                    "time": 191.69097200000266,
                    "velocity": 0.2677165354330709,
                    "duration": 0.055147000000005164
                },
                {
                    "name": "D#3",
                    "midi": 51,
                    "time": 191.91156000000265,
                    "velocity": 0.33858267716535434,
                    "duration": 0.11029400000001033
                },
                {
                    "name": "D#4",
                    "midi": 63,
                    "time": 192.13214800000267,
                    "velocity": 0.2677165354330709,
                    "duration": 0.055147000000005164
                },
                {
                    "name": "A#3",
                    "midi": 58,
                    "time": 192.13214800000267,
                    "velocity": 0.2677165354330709,
                    "duration": 0.055147000000005164
                },
                {
                    "name": "D#3",
                    "midi": 51,
                    "time": 192.35273600000266,
                    "velocity": 0.36220472440944884,
                    "duration": 0.11029400000001033
                },
                {
                    "name": "D#4",
                    "midi": 63,
                    "time": 192.57332400000269,
                    "velocity": 0.2677165354330709,
                    "duration": 0.055147000000005164
                },
                {
                    "name": "A#3",
                    "midi": 58,
                    "time": 192.57332400000269,
                    "velocity": 0.2677165354330709,
                    "duration": 0.055147000000005164
                },
                {
                    "name": "F#2",
                    "midi": 42,
                    "time": 192.79391200000268,
                    "velocity": 0.3937007874015748,
                    "duration": 0.11029400000001033
                },
                {
                    "name": "C#4",
                    "midi": 61,
                    "time": 193.0145000000027,
                    "velocity": 0.25984251968503935,
                    "duration": 0.22058799999999223
                },
                {
                    "name": "A#4",
                    "midi": 70,
                    "time": 193.0145000000027,
                    "velocity": 0.31496062992125984,
                    "duration": 0.22058799999999223
                },
                {
                    "name": "C#4",
                    "midi": 61,
                    "time": 193.2350880000027,
                    "velocity": 0.25984251968503935,
                    "duration": 0.4411760000000129
                },
                {
                    "name": "G#4",
                    "midi": 68,
                    "time": 193.2350880000027,
                    "velocity": 0.31496062992125984,
                    "duration": 0.33088200000000256
                },
                {
                    "name": "F#4",
                    "midi": 66,
                    "time": 193.5659700000027,
                    "velocity": 0.31496062992125984,
                    "duration": 0.11029400000001033
                },
                {
                    "name": "G#2",
                    "midi": 44,
                    "time": 193.6762640000027,
                    "velocity": 0.3937007874015748,
                    "duration": 0.11029400000001033
                },
                {
                    "name": "F4",
                    "midi": 65,
                    "time": 193.89685200000272,
                    "velocity": 0.31496062992125984,
                    "duration": 0.11029400000001033
                },
                {
                    "name": "C#4",
                    "midi": 61,
                    "time": 193.89685200000272,
                    "velocity": 0.31496062992125984,
                    "duration": 0.11029400000001033
                },
                {
                    "name": "G#3",
                    "midi": 56,
                    "time": 194.11744000000274,
                    "velocity": 0.31496062992125984,
                    "duration": 0.11029400000001033
                },
                {
                    "name": "F4",
                    "midi": 65,
                    "time": 194.44832200000275,
                    "velocity": 0.36220472440944884,
                    "duration": 0.11029400000001033
                },
                {
                    "name": "A4",
                    "midi": 69,
                    "time": 194.44832200000275,
                    "velocity": 0.36220472440944884,
                    "duration": 0.11029400000001033
                },
                {
                    "name": "F#4",
                    "midi": 66,
                    "time": 194.55861600000276,
                    "velocity": 0.3937007874015748,
                    "duration": 0.055147000000005164
                },
                {
                    "name": "A#4",
                    "midi": 70,
                    "time": 194.55861600000276,
                    "velocity": 0.3937007874015748,
                    "duration": 0.055147000000005164
                },
                {
                    "name": "F#4",
                    "midi": 66,
                    "time": 194.77920400000275,
                    "velocity": 0.3937007874015748,
                    "duration": 0.4411760000000129
                },
                {
                    "name": "A#4",
                    "midi": 70,
                    "time": 194.77920400000275,
                    "velocity": 0.3937007874015748,
                    "duration": 0.4411760000000129
                },
                {
                    "name": "D#4",
                    "midi": 63,
                    "time": 195.22038000000276,
                    "velocity": 0.3700787401574803,
                    "duration": 0.22058799999999223
                },
                {
                    "name": "G#3",
                    "midi": 56,
                    "time": 195.22038000000276,
                    "velocity": 0.29133858267716534,
                    "duration": 0.22058799999999223
                },
                {
                    "name": "C#4",
                    "midi": 61,
                    "time": 195.44096800000275,
                    "velocity": 0.4015748031496063,
                    "duration": 0.055147000000005164
                },
                {
                    "name": "C#4",
                    "midi": 61,
                    "time": 195.66155600000275,
                    "velocity": 0.41732283464566927,
                    "duration": 0.4411760000000129
                },
                {
                    "name": "C#3",
                    "midi": 49,
                    "time": 195.66155600000275,
                    "velocity": 0.33070866141732286,
                    "duration": 0.4411760000000129
                },
                {
                    "name": "G#3",
                    "midi": 56,
                    "time": 195.66155600000275,
                    "velocity": 0.33070866141732286,
                    "duration": 0.4411760000000129
                },
                {
                    "name": "C#3",
                    "midi": 49,
                    "time": 196.32332000000275,
                    "velocity": 0.3700787401574803,
                    "duration": 0.11029400000001033
                },
                {
                    "name": "C#2",
                    "midi": 37,
                    "time": 196.32332000000275,
                    "velocity": 0.29133858267716534,
                    "duration": 0.11029400000001033
                },
                {
                    "name": "C#4",
                    "midi": 61,
                    "time": 196.54390800000277,
                    "velocity": 0.2677165354330709,
                    "duration": 0.055147000000005164
                },
                {
                    "name": "F4",
                    "midi": 65,
                    "time": 196.54390800000277,
                    "velocity": 0.2677165354330709,
                    "duration": 0.055147000000005164
                },
                {
                    "name": "G#4",
                    "midi": 68,
                    "time": 196.54390800000277,
                    "velocity": 0.2677165354330709,
                    "duration": 0.055147000000005164
                },
                {
                    "name": "G#3",
                    "midi": 56,
                    "time": 196.76449600000277,
                    "velocity": 0.3700787401574803,
                    "duration": 0.11029400000001033
                },
                {
                    "name": "G#2",
                    "midi": 44,
                    "time": 196.76449600000277,
                    "velocity": 0.29133858267716534,
                    "duration": 0.11029400000001033
                },
                {
                    "name": "D#4",
                    "midi": 63,
                    "time": 196.9850840000028,
                    "velocity": 0.2677165354330709,
                    "duration": 0.055147000000005164
                },
                {
                    "name": "F#4",
                    "midi": 66,
                    "time": 196.9850840000028,
                    "velocity": 0.2677165354330709,
                    "duration": 0.055147000000005164
                },
                {
                    "name": "G#4",
                    "midi": 68,
                    "time": 196.9850840000028,
                    "velocity": 0.2677165354330709,
                    "duration": 0.055147000000005164
                },
                {
                    "name": "C#3",
                    "midi": 49,
                    "time": 197.20567200000278,
                    "velocity": 0.3543307086614173,
                    "duration": 0.055147000000005164
                },
                {
                    "name": "C#2",
                    "midi": 37,
                    "time": 197.20567200000278,
                    "velocity": 0.28346456692913385,
                    "duration": 0.055147000000005164
                },
                {
                    "name": "C#4",
                    "midi": 61,
                    "time": 197.42626000000277,
                    "velocity": 0.2677165354330709,
                    "duration": 0.055147000000005164
                },
                {
                    "name": "F4",
                    "midi": 65,
                    "time": 197.42626000000277,
                    "velocity": 0.2677165354330709,
                    "duration": 0.055147000000005164
                },
                {
                    "name": "G#4",
                    "midi": 68,
                    "time": 197.42626000000277,
                    "velocity": 0.2677165354330709,
                    "duration": 0.055147000000005164
                },
                {
                    "name": "G#3",
                    "midi": 56,
                    "time": 197.64684800000276,
                    "velocity": 0.36220472440944884,
                    "duration": 0.055147000000005164
                },
                {
                    "name": "G#2",
                    "midi": 44,
                    "time": 197.64684800000276,
                    "velocity": 0.28346456692913385,
                    "duration": 0.055147000000005164
                },
                {
                    "name": "F4",
                    "midi": 65,
                    "time": 197.86743600000275,
                    "velocity": 0.2677165354330709,
                    "duration": 0.055147000000005164
                },
                {
                    "name": "C#4",
                    "midi": 61,
                    "time": 197.86743600000275,
                    "velocity": 0.2677165354330709,
                    "duration": 0.055147000000005164
                },
                {
                    "name": "G#4",
                    "midi": 68,
                    "time": 197.86743600000275,
                    "velocity": 0.2677165354330709,
                    "duration": 0.055147000000005164
                },
                {
                    "name": "F#3",
                    "midi": 54,
                    "time": 198.08802400000275,
                    "velocity": 0.33858267716535434,
                    "duration": 0.055147000000005164
                },
                {
                    "name": "F#2",
                    "midi": 42,
                    "time": 198.08802400000275,
                    "velocity": 0.2677165354330709,
                    "duration": 0.055147000000005164
                },
                {
                    "name": "C#4",
                    "midi": 61,
                    "time": 198.30861200000274,
                    "velocity": 0.2677165354330709,
                    "duration": 0.055147000000005164
                },
                {
                    "name": "A#4",
                    "midi": 70,
                    "time": 198.30861200000274,
                    "velocity": 0.2677165354330709,
                    "duration": 0.055147000000005164
                },
                {
                    "name": "F#4",
                    "midi": 66,
                    "time": 198.30861200000274,
                    "velocity": 0.2677165354330709,
                    "duration": 0.055147000000005164
                },
                {
                    "name": "F3",
                    "midi": 53,
                    "time": 198.52920000000273,
                    "velocity": 0.3464566929133858,
                    "duration": 0.055147000000005164
                },
                {
                    "name": "F2",
                    "midi": 41,
                    "time": 198.52920000000273,
                    "velocity": 0.2755905511811024,
                    "duration": 0.055147000000005164
                },
                {
                    "name": "A#3",
                    "midi": 58,
                    "time": 198.74978800000272,
                    "velocity": 0.2677165354330709,
                    "duration": 0.055147000000005164
                },
                {
                    "name": "G#4",
                    "midi": 68,
                    "time": 198.74978800000272,
                    "velocity": 0.2677165354330709,
                    "duration": 0.055147000000005164
                },
                {
                    "name": "D4",
                    "midi": 62,
                    "time": 198.74978800000272,
                    "velocity": 0.2677165354330709,
                    "duration": 0.055147000000005164
                },
                {
                    "name": "D#3",
                    "midi": 51,
                    "time": 198.97037600000272,
                    "velocity": 0.3937007874015748,
                    "duration": 0.11029400000001033
                },
                {
                    "name": "D#2",
                    "midi": 39,
                    "time": 198.97037600000272,
                    "velocity": 0.31496062992125984,
                    "duration": 0.11029400000001033
                },
                {
                    "name": "F#4",
                    "midi": 66,
                    "time": 199.19096400000274,
                    "velocity": 0.2677165354330709,
                    "duration": 0.055147000000005164
                },
                {
                    "name": "D#4",
                    "midi": 63,
                    "time": 199.19096400000274,
                    "velocity": 0.2677165354330709,
                    "duration": 0.055147000000005164
                },
                {
                    "name": "A#3",
                    "midi": 58,
                    "time": 199.41155200000273,
                    "velocity": 0.3700787401574803,
                    "duration": 0.11029400000001033
                },
                {
                    "name": "A#2",
                    "midi": 46,
                    "time": 199.41155200000273,
                    "velocity": 0.29133858267716534,
                    "duration": 0.11029400000001033
                },
                {
                    "name": "F#4",
                    "midi": 66,
                    "time": 199.63214000000275,
                    "velocity": 0.2677165354330709,
                    "duration": 0.055147000000005164
                },
                {
                    "name": "D#4",
                    "midi": 63,
                    "time": 199.63214000000275,
                    "velocity": 0.2677165354330709,
                    "duration": 0.055147000000005164
                },
                {
                    "name": "F#3",
                    "midi": 54,
                    "time": 199.85272800000274,
                    "velocity": 0.3779527559055118,
                    "duration": 0.22058799999999223
                },
                {
                    "name": "F#2",
                    "midi": 42,
                    "time": 199.85272800000274,
                    "velocity": 0.2992125984251969,
                    "duration": 0.22058799999999223
                },
                {
                    "name": "C#5",
                    "midi": 73,
                    "time": 200.07331600000273,
                    "velocity": 0.31496062992125984,
                    "duration": 0.22058799999999223
                },
                {
                    "name": "C#4",
                    "midi": 61,
                    "time": 200.07331600000273,
                    "velocity": 0.2677165354330709,
                    "duration": 0.22058799999999223
                },
                {
                    "name": "A#4",
                    "midi": 70,
                    "time": 200.07331600000273,
                    "velocity": 0.2677165354330709,
                    "duration": 0.22058799999999223
                },
                {
                    "name": "C5",
                    "midi": 72,
                    "time": 200.29390400000273,
                    "velocity": 0.31496062992125984,
                    "duration": 0.33088200000000256
                },
                {
                    "name": "C#4",
                    "midi": 61,
                    "time": 200.29390400000273,
                    "velocity": 0.2677165354330709,
                    "duration": 0.4411760000000129
                },
                {
                    "name": "G#4",
                    "midi": 68,
                    "time": 200.29390400000273,
                    "velocity": 0.2677165354330709,
                    "duration": 0.33088200000000256
                },
                {
                    "name": "A#4",
                    "midi": 70,
                    "time": 200.62478600000273,
                    "velocity": 0.31496062992125984,
                    "duration": 0.11029400000001033
                },
                {
                    "name": "F#4",
                    "midi": 66,
                    "time": 200.62478600000273,
                    "velocity": 0.2677165354330709,
                    "duration": 0.11029400000001033
                },
                {
                    "name": "G#2",
                    "midi": 44,
                    "time": 200.73508000000274,
                    "velocity": 0.4330708661417323,
                    "duration": 0.055147000000005164
                },
                {
                    "name": "F4",
                    "midi": 65,
                    "time": 200.95566800000273,
                    "velocity": 0.31496062992125984,
                    "duration": 0.11029400000001033
                },
                {
                    "name": "G#4",
                    "midi": 68,
                    "time": 200.95566800000273,
                    "velocity": 0.31496062992125984,
                    "duration": 0.11029400000001033
                },
                {
                    "name": "C#4",
                    "midi": 61,
                    "time": 200.95566800000273,
                    "velocity": 0.31496062992125984,
                    "duration": 0.11029400000001033
                },
                {
                    "name": "G#3",
                    "midi": 56,
                    "time": 201.17625600000275,
                    "velocity": 0.31496062992125984,
                    "duration": 0.11029400000001033
                },
                {
                    "name": "F4",
                    "midi": 65,
                    "time": 201.50713800000275,
                    "velocity": 0.36220472440944884,
                    "duration": 0.11029400000001033
                },
                {
                    "name": "F5",
                    "midi": 77,
                    "time": 201.50713800000275,
                    "velocity": 0.36220472440944884,
                    "duration": 0.11029400000001033
                },
                {
                    "name": "F#4",
                    "midi": 66,
                    "time": 201.61743200000276,
                    "velocity": 0.3937007874015748,
                    "duration": 0.055147000000005164
                },
                {
                    "name": "F#5",
                    "midi": 78,
                    "time": 201.61743200000276,
                    "velocity": 0.3937007874015748,
                    "duration": 0.055147000000005164
                },
                {
                    "name": "G#2",
                    "midi": 44,
                    "time": 202.05860800000278,
                    "velocity": 0.29133858267716534,
                    "duration": 0.4411760000000129
                },
                {
                    "name": "G#3",
                    "midi": 56,
                    "time": 202.05860800000278,
                    "velocity": 0.3700787401574803,
                    "duration": 0.4411760000000129
                },
                {
                    "name": "D#3",
                    "midi": 51,
                    "time": 202.05860800000278,
                    "velocity": 0.29133858267716534,
                    "duration": 0.4411760000000129
                },
                {
                    "name": "C#3",
                    "midi": 49,
                    "time": 202.4997840000028,
                    "velocity": 0.3543307086614173,
                    "duration": 0.055147000000005164
                },
                {
                    "name": "G#3",
                    "midi": 56,
                    "time": 202.4997840000028,
                    "velocity": 0.4015748031496063,
                    "duration": 0.055147000000005164
                },
                {
                    "name": "G#3",
                    "midi": 56,
                    "time": 202.72037200000278,
                    "velocity": 0.41732283464566927,
                    "duration": 0.33088200000000256
                },
                {
                    "name": "C#3",
                    "midi": 49,
                    "time": 202.72037200000278,
                    "velocity": 0.33070866141732286,
                    "duration": 0.33088200000000256
                },
                {
                    "name": "C#4",
                    "midi": 61,
                    "time": 203.60272400000278,
                    "velocity": 0.2992125984251969,
                    "duration": 0.08272049999999354
                },
                {
                    "name": "F5",
                    "midi": 77,
                    "time": 203.71301800000276,
                    "velocity": 0.2677165354330709,
                    "duration": 0.08272049999999354
                },
                {
                    "name": "G#4",
                    "midi": 68,
                    "time": 203.82331200000274,
                    "velocity": 0.30708661417322836,
                    "duration": 0.08272049999999354
                },
                {
                    "name": "F5",
                    "midi": 77,
                    "time": 203.93360600000273,
                    "velocity": 0.28346456692913385,
                    "duration": 0.08272049999999354
                },
                {
                    "name": "C#5",
                    "midi": 73,
                    "time": 204.0439000000027,
                    "velocity": 0.31496062992125984,
                    "duration": 0.08272049999999354
                },
                {
                    "name": "F5",
                    "midi": 77,
                    "time": 204.1541940000027,
                    "velocity": 0.29133858267716534,
                    "duration": 0.08272049999999354
                },
                {
                    "name": "G#4",
                    "midi": 68,
                    "time": 204.26448800000267,
                    "velocity": 0.33070866141732286,
                    "duration": 0.08272049999999354
                },
                {
                    "name": "F5",
                    "midi": 77,
                    "time": 204.37478200000265,
                    "velocity": 0.2992125984251969,
                    "duration": 0.08272049999999354
                },
                {
                    "name": "C#4",
                    "midi": 61,
                    "time": 204.48507600000264,
                    "velocity": 0.3464566929133858,
                    "duration": 0.08272049999999354
                },
                {
                    "name": "F5",
                    "midi": 77,
                    "time": 204.59537000000262,
                    "velocity": 0.31496062992125984,
                    "duration": 0.08272049999999354
                },
                {
                    "name": "G#4",
                    "midi": 68,
                    "time": 204.7056640000026,
                    "velocity": 0.36220472440944884,
                    "duration": 0.08272049999999354
                },
                {
                    "name": "F5",
                    "midi": 77,
                    "time": 204.81595800000258,
                    "velocity": 0.33070866141732286,
                    "duration": 0.08272049999999354
                },
                {
                    "name": "C#5",
                    "midi": 73,
                    "time": 204.92625200000256,
                    "velocity": 0.3700787401574803,
                    "duration": 0.08272049999999354
                },
                {
                    "name": "F5",
                    "midi": 77,
                    "time": 205.03654600000255,
                    "velocity": 0.3543307086614173,
                    "duration": 0.08272049999999354
                },
                {
                    "name": "G#4",
                    "midi": 68,
                    "time": 205.14684000000253,
                    "velocity": 0.3779527559055118,
                    "duration": 0.08272049999999354
                },
                {
                    "name": "F5",
                    "midi": 77,
                    "time": 205.2571340000025,
                    "velocity": 0.33070866141732286,
                    "duration": 0.08272049999999354
                },
                {
                    "name": "C#4",
                    "midi": 61,
                    "time": 205.3674280000025,
                    "velocity": 0.3937007874015748,
                    "duration": 0.08272049999999354
                },
                {
                    "name": "F5",
                    "midi": 77,
                    "time": 205.47772200000247,
                    "velocity": 0.36220472440944884,
                    "duration": 0.08272049999999354
                },
                {
                    "name": "G#4",
                    "midi": 68,
                    "time": 205.58801600000245,
                    "velocity": 0.4094488188976378,
                    "duration": 0.08272049999999354
                },
                {
                    "name": "F5",
                    "midi": 77,
                    "time": 205.69831000000244,
                    "velocity": 0.36220472440944884,
                    "duration": 0.08272049999999354
                },
                {
                    "name": "C#5",
                    "midi": 73,
                    "time": 205.80860400000242,
                    "velocity": 0.41732283464566927,
                    "duration": 0.08272049999999354
                },
                {
                    "name": "F5",
                    "midi": 77,
                    "time": 205.9188980000024,
                    "velocity": 0.3779527559055118,
                    "duration": 0.08272049999999354
                },
                {
                    "name": "G#4",
                    "midi": 68,
                    "time": 206.02919200000238,
                    "velocity": 0.4094488188976378,
                    "duration": 0.08272049999999354
                },
                {
                    "name": "F5",
                    "midi": 77,
                    "time": 206.13948600000236,
                    "velocity": 0.36220472440944884,
                    "duration": 0.11029400000001033
                },
                {
                    "name": "C#4",
                    "midi": 61,
                    "time": 206.24978000000237,
                    "velocity": 0.3937007874015748,
                    "duration": 0.11029400000001033
                },
                {
                    "name": "A4",
                    "midi": 69,
                    "time": 206.4703680000024,
                    "velocity": 0.36220472440944884,
                    "duration": 0.11029400000001033
                },
                {
                    "name": "C5",
                    "midi": 72,
                    "time": 206.69095600000242,
                    "velocity": 0.33070866141732286,
                    "duration": 0.11029400000001033
                },
                {
                    "name": "F5",
                    "midi": 77,
                    "time": 206.69095600000242,
                    "velocity": 0.33070866141732286,
                    "duration": 0.11029400000001033
                },
                {
                    "name": "A#4",
                    "midi": 70,
                    "time": 206.91154400000244,
                    "velocity": 0.36220472440944884,
                    "duration": 0.11029400000001033
                },
                {
                    "name": "A#5",
                    "midi": 82,
                    "time": 207.13213200000246,
                    "velocity": 0.33070866141732286,
                    "duration": 0.11029400000001033
                },
                {
                    "name": "F5",
                    "midi": 77,
                    "time": 207.13213200000246,
                    "velocity": 0.2755905511811024,
                    "duration": 0.11029400000001033
                },
                {
                    "name": "F4",
                    "midi": 65,
                    "time": 207.35272000000248,
                    "velocity": 0.36220472440944884,
                    "duration": 0.11029400000001033
                },
                {
                    "name": "D#6",
                    "midi": 87,
                    "time": 207.5733080000025,
                    "velocity": 0.3228346456692913,
                    "duration": 0.11029400000001033
                },
                {
                    "name": "A5",
                    "midi": 81,
                    "time": 207.5733080000025,
                    "velocity": 0.2677165354330709,
                    "duration": 0.11029400000001033
                },
                {
                    "name": "F5",
                    "midi": 77,
                    "time": 207.5733080000025,
                    "velocity": 0.2677165354330709,
                    "duration": 0.11029400000001033
                },
                {
                    "name": "C#6",
                    "midi": 85,
                    "time": 207.79389600000252,
                    "velocity": 0.3700787401574803,
                    "duration": 0.11029400000001033
                },
                {
                    "name": "A#5",
                    "midi": 82,
                    "time": 207.79389600000252,
                    "velocity": 0.30708661417322836,
                    "duration": 0.11029400000001033
                },
                {
                    "name": "D#6",
                    "midi": 87,
                    "time": 208.01448400000254,
                    "velocity": 0.3228346456692913,
                    "duration": 0.11029400000001033
                },
                {
                    "name": "C6",
                    "midi": 84,
                    "time": 208.01448400000254,
                    "velocity": 0.2677165354330709,
                    "duration": 0.11029400000001033
                },
                {
                    "name": "F5",
                    "midi": 77,
                    "time": 208.01448400000254,
                    "velocity": 0.2677165354330709,
                    "duration": 0.11029400000001033
                },
                {
                    "name": "C#6",
                    "midi": 85,
                    "time": 208.23507200000256,
                    "velocity": 0.3543307086614173,
                    "duration": 0.11029400000001033
                },
                {
                    "name": "A#5",
                    "midi": 82,
                    "time": 208.23507200000256,
                    "velocity": 0.29133858267716534,
                    "duration": 0.11029400000001033
                },
                {
                    "name": "D#6",
                    "midi": 87,
                    "time": 208.45566000000258,
                    "velocity": 0.30708661417322836,
                    "duration": 0.11029400000001033
                },
                {
                    "name": "C6",
                    "midi": 84,
                    "time": 208.45566000000258,
                    "velocity": 0.25196850393700787,
                    "duration": 0.11029400000001033
                },
                {
                    "name": "F5",
                    "midi": 77,
                    "time": 208.45566000000258,
                    "velocity": 0.25196850393700787,
                    "duration": 0.11029400000001033
                },
                {
                    "name": "C#6",
                    "midi": 85,
                    "time": 208.6762480000026,
                    "velocity": 0.33858267716535434,
                    "duration": 0.11029400000001033
                },
                {
                    "name": "A#5",
                    "midi": 82,
                    "time": 208.6762480000026,
                    "velocity": 0.2755905511811024,
                    "duration": 0.11029400000001033
                },
                {
                    "name": "D#6",
                    "midi": 87,
                    "time": 208.89683600000262,
                    "velocity": 0.29133858267716534,
                    "duration": 0.11029400000001033
                },
                {
                    "name": "C6",
                    "midi": 84,
                    "time": 208.89683600000262,
                    "velocity": 0.2440944881889764,
                    "duration": 0.11029400000001033
                },
                {
                    "name": "F5",
                    "midi": 77,
                    "time": 208.89683600000262,
                    "velocity": 0.2440944881889764,
                    "duration": 0.11029400000001033
                },
                {
                    "name": "C#6",
                    "midi": 85,
                    "time": 209.11742400000264,
                    "velocity": 0.3228346456692913,
                    "duration": 0.11029400000001033
                },
                {
                    "name": "A#5",
                    "midi": 82,
                    "time": 209.11742400000264,
                    "velocity": 0.2677165354330709,
                    "duration": 0.11029400000001033
                },
                {
                    "name": "D#6",
                    "midi": 87,
                    "time": 209.33801200000266,
                    "velocity": 0.28346456692913385,
                    "duration": 0.11029400000001033
                },
                {
                    "name": "C6",
                    "midi": 84,
                    "time": 209.33801200000266,
                    "velocity": 0.23622047244094488,
                    "duration": 0.11029400000001033
                },
                {
                    "name": "F5",
                    "midi": 77,
                    "time": 209.33801200000266,
                    "velocity": 0.23622047244094488,
                    "duration": 0.11029400000001033
                },
                {
                    "name": "A#5",
                    "midi": 82,
                    "time": 209.55860000000268,
                    "velocity": 0.2755905511811024,
                    "duration": 0.11029400000001033
                },
                {
                    "name": "C#6",
                    "midi": 85,
                    "time": 209.55860000000268,
                    "velocity": 0.33858267716535434,
                    "duration": 0.11029400000001033
                },
                {
                    "name": "A#4",
                    "midi": 70,
                    "time": 211.2957305000027,
                    "velocity": 0.3464566929133858,
                    "duration": 0.44117599999998447
                },
                {
                    "name": "C#6",
                    "midi": 85,
                    "time": 211.32330400000268,
                    "velocity": 0.3464566929133858,
                    "duration": 0.4136024999999961
                },
                {
                    "name": "A#4",
                    "midi": 70,
                    "time": 211.73690650000268,
                    "velocity": 0.3858267716535433,
                    "duration": 0.44117599999998447
                },
                {
                    "name": "C#6",
                    "midi": 85,
                    "time": 211.76448000000266,
                    "velocity": 0.3858267716535433,
                    "duration": 0.4136024999999961
                },
                {
                    "name": "G#4",
                    "midi": 68,
                    "time": 212.17808250000266,
                    "velocity": 0.3779527559055118,
                    "duration": 0.6617639999999767
                },
                {
                    "name": "C6",
                    "midi": 84,
                    "time": 212.20565600000265,
                    "velocity": 0.3937007874015748,
                    "duration": 0.6341904999999883
                },
                {
                    "name": "F#4",
                    "midi": 66,
                    "time": 212.83984650000264,
                    "velocity": 0.4015748031496063,
                    "duration": 0.22058799999999223
                },
                {
                    "name": "A#5",
                    "midi": 82,
                    "time": 212.86742000000262,
                    "velocity": 0.4015748031496063,
                    "duration": 0.19301450000000386
                },
                {
                    "name": "F4",
                    "midi": 65,
                    "time": 213.06043450000263,
                    "velocity": 0.4566929133858268,
                    "duration": 0.2481614999999806
                },
                {
                    "name": "G#5",
                    "midi": 80,
                    "time": 213.08800800000262,
                    "velocity": 0.4566929133858268,
                    "duration": 0.22058799999999223
                },
                {
                    "name": "G#4",
                    "midi": 68,
                    "time": 213.5291840000026,
                    "velocity": 0.4094488188976378,
                    "duration": 1.1029399999999896
                },
                {
                    "name": "F5",
                    "midi": 77,
                    "time": 213.5291840000026,
                    "velocity": 0.4094488188976378,
                    "duration": 1.1029399999999896
                },
                {
                    "name": "G#5",
                    "midi": 80,
                    "time": 213.5291840000026,
                    "velocity": 0.4094488188976378,
                    "duration": 1.1029399999999896
                },
                {
                    "name": "A5",
                    "midi": 81,
                    "time": 214.6321240000026,
                    "velocity": 0.3700787401574803,
                    "duration": 0.22058799999999223
                },
                {
                    "name": "F5",
                    "midi": 77,
                    "time": 214.6321240000026,
                    "velocity": 0.30708661417322836,
                    "duration": 0.22058799999999223
                },
                {
                    "name": "A#5",
                    "midi": 82,
                    "time": 214.85271200000258,
                    "velocity": 0.4330708661417323,
                    "duration": 0.11029400000001033
                },
                {
                    "name": "G#4",
                    "midi": 68,
                    "time": 214.85271200000258,
                    "velocity": 0.36220472440944884,
                    "duration": 0.11029400000001033
                },
                {
                    "name": "C5",
                    "midi": 72,
                    "time": 214.85271200000258,
                    "velocity": 0.36220472440944884,
                    "duration": 0.11029400000001033
                },
                {
                    "name": "F#5",
                    "midi": 78,
                    "time": 214.85271200000258,
                    "velocity": 0.36220472440944884,
                    "duration": 0.11029400000001033
                },
                {
                    "name": "G#3",
                    "midi": 56,
                    "time": 215.69370375000258,
                    "velocity": 0.30708661417322836,
                    "duration": 0.15165425000003552
                },
                {
                    "name": "D#4",
                    "midi": 63,
                    "time": 215.7074905000026,
                    "velocity": 0.3228346456692913,
                    "duration": 0.11948516666669207
                },
                {
                    "name": "F#4",
                    "midi": 66,
                    "time": 215.7212772500026,
                    "velocity": 0.3464566929133858,
                    "duration": 0.12408075000001872
                },
                {
                    "name": "C5",
                    "midi": 72,
                    "time": 215.7350640000026,
                    "velocity": 0.36220472440944884,
                    "duration": 0.11029400000001033
                },
                {
                    "name": "C#2",
                    "midi": 37,
                    "time": 216.58984250000262,
                    "velocity": 0.25984251968503935,
                    "duration": 0.24816150000003745
                },
                {
                    "name": "G#2",
                    "midi": 44,
                    "time": 216.60362925000263,
                    "velocity": 0.28346456692913385,
                    "duration": 0.23437475000002905
                },
                {
                    "name": "C#3",
                    "midi": 49,
                    "time": 216.61741600000263,
                    "velocity": 0.30708661417322836,
                    "duration": 0.22058800000002066
                },
                {
                    "name": "F3",
                    "midi": 53,
                    "time": 216.67256300000264,
                    "velocity": 0.30708661417322836,
                    "duration": 0.055147000000005164
                },
                {
                    "name": "G#3",
                    "midi": 56,
                    "time": 216.72771000000265,
                    "velocity": 0.31496062992125984,
                    "duration": 0.055147000000005164
                },
                {
                    "name": "C#3",
                    "midi": 49,
                    "time": 218.60270800000265,
                    "velocity": 0.2677165354330709,
                    "duration": 0.08272049999999354
                },
                {
                    "name": "F4",
                    "midi": 65,
                    "time": 218.71300200000263,
                    "velocity": 0.23622047244094488,
                    "duration": 0.08272049999999354
                },
                {
                    "name": "G#3",
                    "midi": 56,
                    "time": 218.8232960000026,
                    "velocity": 0.2755905511811024,
                    "duration": 0.08272049999999354
                },
                {
                    "name": "F4",
                    "midi": 65,
                    "time": 218.9335900000026,
                    "velocity": 0.25196850393700787,
                    "duration": 0.08272049999999354
                },
                {
                    "name": "C#4",
                    "midi": 61,
                    "time": 219.04388400000258,
                    "velocity": 0.28346456692913385,
                    "duration": 0.08272049999999354
                },
                {
                    "name": "F4",
                    "midi": 65,
                    "time": 219.15417800000256,
                    "velocity": 0.25984251968503935,
                    "duration": 0.08272049999999354
                },
                {
                    "name": "G#3",
                    "midi": 56,
                    "time": 219.26447200000254,
                    "velocity": 0.29133858267716534,
                    "duration": 0.08272049999999354
                },
                {
                    "name": "F4",
                    "midi": 65,
                    "time": 219.37476600000252,
                    "velocity": 0.2677165354330709,
                    "duration": 0.08272049999999354
                },
                {
                    "name": "C#3",
                    "midi": 49,
                    "time": 219.4850600000025,
                    "velocity": 0.30708661417322836,
                    "duration": 0.08272049999999354
                },
                {
                    "name": "F4",
                    "midi": 65,
                    "time": 219.5953540000025,
                    "velocity": 0.28346456692913385,
                    "duration": 0.08272049999999354
                },
                {
                    "name": "G#3",
                    "midi": 56,
                    "time": 219.70564800000247,
                    "velocity": 0.3228346456692913,
                    "duration": 0.08272049999999354
                },
                {
                    "name": "F4",
                    "midi": 65,
                    "time": 219.81594200000245,
                    "velocity": 0.29133858267716534,
                    "duration": 0.08272049999999354
                },
                {
                    "name": "C#4",
                    "midi": 61,
                    "time": 219.92623600000243,
                    "velocity": 0.33070866141732286,
                    "duration": 0.08272049999999354
                },
                {
                    "name": "F4",
                    "midi": 65,
                    "time": 220.03653000000241,
                    "velocity": 0.31496062992125984,
                    "duration": 0.08272049999999354
                },
                {
                    "name": "G#3",
                    "midi": 56,
                    "time": 220.1468240000024,
                    "velocity": 0.33858267716535434,
                    "duration": 0.08272049999999354
                },
                {
                    "name": "F4",
                    "midi": 65,
                    "time": 220.25711800000238,
                    "velocity": 0.29133858267716534,
                    "duration": 0.08272049999999354
                },
                {
                    "name": "C#3",
                    "midi": 49,
                    "time": 220.36741200000236,
                    "velocity": 0.3543307086614173,
                    "duration": 0.08272049999999354
                },
                {
                    "name": "F4",
                    "midi": 65,
                    "time": 220.47770600000234,
                    "velocity": 0.3228346456692913,
                    "duration": 0.08272049999999354
                },
                {
                    "name": "G#3",
                    "midi": 56,
                    "time": 220.58800000000232,
                    "velocity": 0.36220472440944884,
                    "duration": 0.08272049999999354
                },
                {
                    "name": "F4",
                    "midi": 65,
                    "time": 220.6982940000023,
                    "velocity": 0.3228346456692913,
                    "duration": 0.08272049999999354
                },
                {
                    "name": "C#4",
                    "midi": 61,
                    "time": 220.8085880000023,
                    "velocity": 0.3700787401574803,
                    "duration": 0.08272049999999354
                },
                {
                    "name": "F4",
                    "midi": 65,
                    "time": 220.91888200000227,
                    "velocity": 0.33858267716535434,
                    "duration": 0.08272049999999354
                },
                {
                    "name": "G#3",
                    "midi": 56,
                    "time": 221.02917600000225,
                    "velocity": 0.36220472440944884,
                    "duration": 0.08272049999999354
                },
                {
                    "name": "F4",
                    "midi": 65,
                    "time": 221.13947000000223,
                    "velocity": 0.3228346456692913,
                    "duration": 0.11029400000001033
                },
                {
                    "name": "C#3",
                    "midi": 49,
                    "time": 221.24976400000224,
                    "velocity": 0.3543307086614173,
                    "duration": 0.11029400000001033
                },
                {
                    "name": "A3",
                    "midi": 57,
                    "time": 221.47035200000226,
                    "velocity": 0.3228346456692913,
                    "duration": 0.11029400000001033
                },
                {
                    "name": "C4",
                    "midi": 60,
                    "time": 221.69094000000229,
                    "velocity": 0.29133858267716534,
                    "duration": 0.11029400000001033
                },
                {
                    "name": "F4",
                    "midi": 65,
                    "time": 221.69094000000229,
                    "velocity": 0.29133858267716534,
                    "duration": 0.11029400000001033
                },
                {
                    "name": "A#3",
                    "midi": 58,
                    "time": 221.9115280000023,
                    "velocity": 0.3228346456692913,
                    "duration": 0.11029400000001033
                },
                {
                    "name": "A#4",
                    "midi": 70,
                    "time": 222.13211600000233,
                    "velocity": 0.29133858267716534,
                    "duration": 0.11029400000001033
                },
                {
                    "name": "F4",
                    "midi": 65,
                    "time": 222.13211600000233,
                    "velocity": 0.2440944881889764,
                    "duration": 0.11029400000001033
                },
                {
                    "name": "F3",
                    "midi": 53,
                    "time": 222.35270400000235,
                    "velocity": 0.3228346456692913,
                    "duration": 0.11029400000001033
                },
                {
                    "name": "D#5",
                    "midi": 75,
                    "time": 222.57329200000237,
                    "velocity": 0.28346456692913385,
                    "duration": 0.11029400000001033
                },
                {
                    "name": "A4",
                    "midi": 69,
                    "time": 222.57329200000237,
                    "velocity": 0.23622047244094488,
                    "duration": 0.11029400000001033
                },
                {
                    "name": "F4",
                    "midi": 65,
                    "time": 222.57329200000237,
                    "velocity": 0.23622047244094488,
                    "duration": 0.11029400000001033
                },
                {
                    "name": "C#5",
                    "midi": 73,
                    "time": 222.7938800000024,
                    "velocity": 0.33070866141732286,
                    "duration": 0.11029400000001033
                },
                {
                    "name": "A#4",
                    "midi": 70,
                    "time": 222.7938800000024,
                    "velocity": 0.2755905511811024,
                    "duration": 0.11029400000001033
                },
                {
                    "name": "D#5",
                    "midi": 75,
                    "time": 223.0144680000024,
                    "velocity": 0.28346456692913385,
                    "duration": 0.11029400000001033
                },
                {
                    "name": "C5",
                    "midi": 72,
                    "time": 223.0144680000024,
                    "velocity": 0.23622047244094488,
                    "duration": 0.11029400000001033
                },
                {
                    "name": "F4",
                    "midi": 65,
                    "time": 223.0144680000024,
                    "velocity": 0.23622047244094488,
                    "duration": 0.11029400000001033
                },
                {
                    "name": "C#5",
                    "midi": 73,
                    "time": 223.23505600000243,
                    "velocity": 0.31496062992125984,
                    "duration": 0.11029400000001033
                },
                {
                    "name": "A#4",
                    "midi": 70,
                    "time": 223.23505600000243,
                    "velocity": 0.25984251968503935,
                    "duration": 0.11029400000001033
                },
                {
                    "name": "D#5",
                    "midi": 75,
                    "time": 223.45564400000245,
                    "velocity": 0.2755905511811024,
                    "duration": 0.11029400000001033
                },
                {
                    "name": "C5",
                    "midi": 72,
                    "time": 223.45564400000245,
                    "velocity": 0.2204724409448819,
                    "duration": 0.11029400000001033
                },
                {
                    "name": "F4",
                    "midi": 65,
                    "time": 223.45564400000245,
                    "velocity": 0.2204724409448819,
                    "duration": 0.11029400000001033
                },
                {
                    "name": "C#5",
                    "midi": 73,
                    "time": 223.67623200000247,
                    "velocity": 0.2992125984251969,
                    "duration": 0.11029400000001033
                },
                {
                    "name": "A#4",
                    "midi": 70,
                    "time": 223.67623200000247,
                    "velocity": 0.2440944881889764,
                    "duration": 0.11029400000001033
                },
                {
                    "name": "D#5",
                    "midi": 75,
                    "time": 223.8968200000025,
                    "velocity": 0.25984251968503935,
                    "duration": 0.11029400000001033
                },
                {
                    "name": "C5",
                    "midi": 72,
                    "time": 223.8968200000025,
                    "velocity": 0.2125984251968504,
                    "duration": 0.11029400000001033
                },
                {
                    "name": "F4",
                    "midi": 65,
                    "time": 223.8968200000025,
                    "velocity": 0.2125984251968504,
                    "duration": 0.11029400000001033
                },
                {
                    "name": "C#5",
                    "midi": 73,
                    "time": 224.1174080000025,
                    "velocity": 0.28346456692913385,
                    "duration": 0.11029400000001033
                },
                {
                    "name": "A#4",
                    "midi": 70,
                    "time": 224.1174080000025,
                    "velocity": 0.23622047244094488,
                    "duration": 0.11029400000001033
                },
                {
                    "name": "D#5",
                    "midi": 75,
                    "time": 224.33799600000253,
                    "velocity": 0.25196850393700787,
                    "duration": 0.11029400000001033
                },
                {
                    "name": "C5",
                    "midi": 72,
                    "time": 224.33799600000253,
                    "velocity": 0.2125984251968504,
                    "duration": 0.11029400000001033
                },
                {
                    "name": "F4",
                    "midi": 65,
                    "time": 224.33799600000253,
                    "velocity": 0.2125984251968504,
                    "duration": 0.11029400000001033
                },
                {
                    "name": "A#4",
                    "midi": 70,
                    "time": 224.55858400000255,
                    "velocity": 0.2440944881889764,
                    "duration": 0.8823519999999974
                },
                {
                    "name": "C#5",
                    "midi": 73,
                    "time": 224.55858400000255,
                    "velocity": 0.2992125984251969,
                    "duration": 0.8823519999999974
                },
                {
                    "name": "F#3",
                    "midi": 54,
                    "time": 226.65417000000255,
                    "velocity": 0.4409448818897638,
                    "duration": 0.11029400000001033
                },
                {
                    "name": "A#4",
                    "midi": 70,
                    "time": 226.76446400000256,
                    "velocity": 0.4409448818897638,
                    "duration": 0.11029400000001033
                },
                {
                    "name": "C#5",
                    "midi": 73,
                    "time": 226.76446400000256,
                    "velocity": 0.4409448818897638,
                    "duration": 0.11029400000001033
                },
                {
                    "name": "A#4",
                    "midi": 70,
                    "time": 227.42622800000257,
                    "velocity": 0.4251968503937008,
                    "duration": 0.4411760000000129
                },
                {
                    "name": "C#5",
                    "midi": 73,
                    "time": 227.42622800000257,
                    "velocity": 0.4251968503937008,
                    "duration": 0.4411760000000129
                },
                {
                    "name": "G#4",
                    "midi": 68,
                    "time": 227.86740400000258,
                    "velocity": 0.41732283464566927,
                    "duration": 0.4411760000000129
                },
                {
                    "name": "C5",
                    "midi": 72,
                    "time": 227.86740400000258,
                    "velocity": 0.41732283464566927,
                    "duration": 0.4411760000000129
                },
                {
                    "name": "F#3",
                    "midi": 54,
                    "time": 229.3563730000026,
                    "velocity": 0.4251968503937008,
                    "duration": 0.055147000000005164
                },
                {
                    "name": "F#2",
                    "midi": 42,
                    "time": 229.3563730000026,
                    "velocity": 0.3543307086614173,
                    "duration": 0.055147000000005164
                },
                {
                    "name": "F3",
                    "midi": 53,
                    "time": 229.4115200000026,
                    "velocity": 0.49606299212598426,
                    "duration": 0.11029400000001033
                },
                {
                    "name": "G#2",
                    "midi": 44,
                    "time": 229.4115200000026,
                    "velocity": 0.41732283464566927,
                    "duration": 0.11029400000001033
                },
                {
                    "name": "G#3",
                    "midi": 56,
                    "time": 230.07328400000262,
                    "velocity": 0.3543307086614173,
                    "duration": 1.985291999999987
                },
                {
                    "name": "F4",
                    "midi": 65,
                    "time": 230.07328400000262,
                    "velocity": 0.3543307086614173,
                    "duration": 1.985291999999987
                },
                {
                    "name": "G#4",
                    "midi": 68,
                    "time": 230.07328400000262,
                    "velocity": 0.3543307086614173,
                    "duration": 1.985291999999987
                },
                {
                    "name": "F4",
                    "midi": 65,
                    "time": 233.3269570000026,
                    "velocity": 0.5039370078740157,
                    "duration": 0.055147000000005164
                },
                {
                    "name": "F3",
                    "midi": 53,
                    "time": 233.3269570000026,
                    "velocity": 0.4251968503937008,
                    "duration": 0.055147000000005164
                },
                {
                    "name": "F#4",
                    "midi": 66,
                    "time": 233.3821040000026,
                    "velocity": 0.5905511811023622,
                    "duration": 0.11029400000001033
                },
                {
                    "name": "F#3",
                    "midi": 54,
                    "time": 233.3821040000026,
                    "velocity": 0.49606299212598426,
                    "duration": 0.11029400000001033
                },
                {
                    "name": "C3",
                    "midi": 48,
                    "time": 233.82328000000263,
                    "velocity": 0.49606299212598426,
                    "duration": 0.4411760000000129
                },
                {
                    "name": "G#1",
                    "midi": 32,
                    "time": 233.82328000000263,
                    "velocity": 0.49606299212598426,
                    "duration": 0.4411760000000129
                },
                {
                    "name": "D#2",
                    "midi": 39,
                    "time": 233.82328000000263,
                    "velocity": 0.49606299212598426,
                    "duration": 0.4411760000000129
                },
                {
                    "name": "G#2",
                    "midi": 44,
                    "time": 233.82328000000263,
                    "velocity": 0.5905511811023622,
                    "duration": 0.4411760000000129
                },
                {
                    "name": "C#2",
                    "midi": 37,
                    "time": 235.58798400000265,
                    "velocity": 0.29133858267716534,
                    "duration": 0.055147000000005164
                },
                {
                    "name": "G#2",
                    "midi": 44,
                    "time": 235.69827800000266,
                    "velocity": 0.29133858267716534,
                    "duration": 0.055147000000005164
                },
                {
                    "name": "G#3",
                    "midi": 56,
                    "time": 235.80857200000267,
                    "velocity": 0.31496062992125984,
                    "duration": 0.22058799999999223
                },
                {
                    "name": "C#3",
                    "midi": 49,
                    "time": 235.80857200000267,
                    "velocity": 0.2677165354330709,
                    "duration": 0.22058799999999223
                },
                {
                    "name": "C#2",
                    "midi": 37,
                    "time": 236.02916000000266,
                    "velocity": 0.2992125984251969,
                    "duration": 0.055147000000005164
                },
                {
                    "name": "G#2",
                    "midi": 44,
                    "time": 236.13945400000267,
                    "velocity": 0.2992125984251969,
                    "duration": 0.055147000000005164
                },
                {
                    "name": "G#3",
                    "midi": 56,
                    "time": 236.24974800000268,
                    "velocity": 0.31496062992125984,
                    "duration": 0.22058799999999223
                },
                {
                    "name": "C#3",
                    "midi": 49,
                    "time": 236.24974800000268,
                    "velocity": 0.2677165354330709,
                    "duration": 0.22058799999999223
                },
                {
                    "name": "C#2",
                    "midi": 37,
                    "time": 236.47033600000267,
                    "velocity": 0.29133858267716534,
                    "duration": 0.055147000000005164
                },
                {
                    "name": "G#2",
                    "midi": 44,
                    "time": 236.58063000000269,
                    "velocity": 0.29133858267716534,
                    "duration": 0.055147000000005164
                },
                {
                    "name": "G#3",
                    "midi": 56,
                    "time": 236.6909240000027,
                    "velocity": 0.31496062992125984,
                    "duration": 0.22058799999999223
                },
                {
                    "name": "C#3",
                    "midi": 49,
                    "time": 236.6909240000027,
                    "velocity": 0.2677165354330709,
                    "duration": 0.22058799999999223
                },
                {
                    "name": "C#2",
                    "midi": 37,
                    "time": 236.9115120000027,
                    "velocity": 0.2992125984251969,
                    "duration": 0.055147000000005164
                },
                {
                    "name": "G#2",
                    "midi": 44,
                    "time": 237.0218060000027,
                    "velocity": 0.2992125984251969,
                    "duration": 0.055147000000005164
                },
                {
                    "name": "G#3",
                    "midi": 56,
                    "time": 237.1321000000027,
                    "velocity": 0.31496062992125984,
                    "duration": 0.22058799999999223
                },
                {
                    "name": "C#3",
                    "midi": 49,
                    "time": 237.1321000000027,
                    "velocity": 0.2677165354330709,
                    "duration": 0.22058799999999223
                },
                {
                    "name": "C#2",
                    "midi": 37,
                    "time": 237.3526880000027,
                    "velocity": 0.29133858267716534,
                    "duration": 0.055147000000005164
                },
                {
                    "name": "G#2",
                    "midi": 44,
                    "time": 237.4629820000027,
                    "velocity": 0.29133858267716534,
                    "duration": 0.055147000000005164
                },
                {
                    "name": "G#3",
                    "midi": 56,
                    "time": 237.57327600000272,
                    "velocity": 0.31496062992125984,
                    "duration": 0.22058799999999223
                },
                {
                    "name": "C#3",
                    "midi": 49,
                    "time": 237.57327600000272,
                    "velocity": 0.2677165354330709,
                    "duration": 0.22058799999999223
                },
                {
                    "name": "C#2",
                    "midi": 37,
                    "time": 237.7938640000027,
                    "velocity": 0.2992125984251969,
                    "duration": 0.055147000000005164
                },
                {
                    "name": "G#2",
                    "midi": 44,
                    "time": 237.90415800000272,
                    "velocity": 0.2992125984251969,
                    "duration": 0.055147000000005164
                },
                {
                    "name": "G#3",
                    "midi": 56,
                    "time": 238.01445200000273,
                    "velocity": 0.31496062992125984,
                    "duration": 0.22058799999999223
                },
                {
                    "name": "C#3",
                    "midi": 49,
                    "time": 238.01445200000273,
                    "velocity": 0.2677165354330709,
                    "duration": 0.22058799999999223
                },
                {
                    "name": "C#2",
                    "midi": 37,
                    "time": 238.23504000000273,
                    "velocity": 0.29133858267716534,
                    "duration": 0.055147000000005164
                },
                {
                    "name": "G#2",
                    "midi": 44,
                    "time": 238.34533400000274,
                    "velocity": 0.29133858267716534,
                    "duration": 0.055147000000005164
                },
                {
                    "name": "G#3",
                    "midi": 56,
                    "time": 238.45562800000275,
                    "velocity": 0.31496062992125984,
                    "duration": 0.22058799999999223
                },
                {
                    "name": "C#3",
                    "midi": 49,
                    "time": 238.45562800000275,
                    "velocity": 0.2677165354330709,
                    "duration": 0.22058799999999223
                },
                {
                    "name": "C#2",
                    "midi": 37,
                    "time": 238.67621600000274,
                    "velocity": 0.2992125984251969,
                    "duration": 0.055147000000005164
                },
                {
                    "name": "G#2",
                    "midi": 44,
                    "time": 238.78651000000275,
                    "velocity": 0.2992125984251969,
                    "duration": 0.055147000000005164
                },
                {
                    "name": "G#3",
                    "midi": 56,
                    "time": 238.89680400000276,
                    "velocity": 0.31496062992125984,
                    "duration": 0.22058799999999223
                },
                {
                    "name": "C#3",
                    "midi": 49,
                    "time": 238.89680400000276,
                    "velocity": 0.2677165354330709,
                    "duration": 0.22058799999999223
                },
                {
                    "name": "C#2",
                    "midi": 37,
                    "time": 239.11739200000275,
                    "velocity": 0.29133858267716534,
                    "duration": 0.055147000000005164
                },
                {
                    "name": "A2",
                    "midi": 45,
                    "time": 239.22768600000276,
                    "velocity": 0.29133858267716534,
                    "duration": 0.055147000000005164
                },
                {
                    "name": "A3",
                    "midi": 57,
                    "time": 239.33798000000277,
                    "velocity": 0.31496062992125984,
                    "duration": 0.22058799999999223
                },
                {
                    "name": "C#3",
                    "midi": 49,
                    "time": 239.33798000000277,
                    "velocity": 0.2677165354330709,
                    "duration": 0.22058799999999223
                },
                {
                    "name": "C#2",
                    "midi": 37,
                    "time": 239.55856800000277,
                    "velocity": 0.2992125984251969,
                    "duration": 0.055147000000005164
                },
                {
                    "name": "A2",
                    "midi": 45,
                    "time": 239.66886200000278,
                    "velocity": 0.2992125984251969,
                    "duration": 0.055147000000005164
                },
                {
                    "name": "A3",
                    "midi": 57,
                    "time": 239.77915600000279,
                    "velocity": 0.31496062992125984,
                    "duration": 0.22058799999999223
                },
                {
                    "name": "C#3",
                    "midi": 49,
                    "time": 239.77915600000279,
                    "velocity": 0.2677165354330709,
                    "duration": 0.22058799999999223
                },
                {
                    "name": "C#2",
                    "midi": 37,
                    "time": 239.99974400000278,
                    "velocity": 0.29133858267716534,
                    "duration": 0.055147000000005164
                },
                {
                    "name": "A2",
                    "midi": 45,
                    "time": 240.1100380000028,
                    "velocity": 0.29133858267716534,
                    "duration": 0.055147000000005164
                },
                {
                    "name": "A3",
                    "midi": 57,
                    "time": 240.2203320000028,
                    "velocity": 0.31496062992125984,
                    "duration": 0.22058799999999223
                },
                {
                    "name": "C#3",
                    "midi": 49,
                    "time": 240.2203320000028,
                    "velocity": 0.2677165354330709,
                    "duration": 0.22058799999999223
                },
                {
                    "name": "C#2",
                    "midi": 37,
                    "time": 240.4409200000028,
                    "velocity": 0.2992125984251969,
                    "duration": 0.055147000000005164
                },
                {
                    "name": "A2",
                    "midi": 45,
                    "time": 240.5512140000028,
                    "velocity": 0.2992125984251969,
                    "duration": 0.055147000000005164
                },
                {
                    "name": "A3",
                    "midi": 57,
                    "time": 240.6615080000028,
                    "velocity": 0.31496062992125984,
                    "duration": 0.22058799999999223
                },
                {
                    "name": "C#3",
                    "midi": 49,
                    "time": 240.6615080000028,
                    "velocity": 0.2677165354330709,
                    "duration": 0.22058799999999223
                },
                {
                    "name": "C#2",
                    "midi": 37,
                    "time": 240.8820960000028,
                    "velocity": 0.29133858267716534,
                    "duration": 0.055147000000005164
                },
                {
                    "name": "A2",
                    "midi": 45,
                    "time": 240.9923900000028,
                    "velocity": 0.29133858267716534,
                    "duration": 0.055147000000005164
                },
                {
                    "name": "A3",
                    "midi": 57,
                    "time": 241.10268400000282,
                    "velocity": 0.31496062992125984,
                    "duration": 0.22058799999999223
                },
                {
                    "name": "C#3",
                    "midi": 49,
                    "time": 241.10268400000282,
                    "velocity": 0.2677165354330709,
                    "duration": 0.22058799999999223
                },
                {
                    "name": "C#2",
                    "midi": 37,
                    "time": 241.32327200000282,
                    "velocity": 0.2992125984251969,
                    "duration": 0.055147000000005164
                },
                {
                    "name": "A2",
                    "midi": 45,
                    "time": 241.43356600000283,
                    "velocity": 0.2992125984251969,
                    "duration": 0.055147000000005164
                },
                {
                    "name": "A3",
                    "midi": 57,
                    "time": 241.54386000000284,
                    "velocity": 0.31496062992125984,
                    "duration": 0.22058799999999223
                },
                {
                    "name": "C#3",
                    "midi": 49,
                    "time": 241.54386000000284,
                    "velocity": 0.2677165354330709,
                    "duration": 0.22058799999999223
                },
                {
                    "name": "C#2",
                    "midi": 37,
                    "time": 241.76444800000283,
                    "velocity": 0.29133858267716534,
                    "duration": 0.055147000000005164
                },
                {
                    "name": "C#3",
                    "midi": 49,
                    "time": 241.87474200000284,
                    "velocity": 0.29133858267716534,
                    "duration": 0.055147000000005164
                },
                {
                    "name": "D4",
                    "midi": 62,
                    "time": 241.98503600000285,
                    "velocity": 0.31496062992125984,
                    "duration": 0.22058799999999223
                },
                {
                    "name": "F#3",
                    "midi": 54,
                    "time": 241.98503600000285,
                    "velocity": 0.2677165354330709,
                    "duration": 0.22058799999999223
                },
                {
                    "name": "C#2",
                    "midi": 37,
                    "time": 242.20562400000284,
                    "velocity": 0.2992125984251969,
                    "duration": 0.055147000000005164
                },
                {
                    "name": "C#3",
                    "midi": 49,
                    "time": 242.31591800000285,
                    "velocity": 0.2992125984251969,
                    "duration": 0.055147000000005164
                },
                {
                    "name": "D4",
                    "midi": 62,
                    "time": 242.42621200000286,
                    "velocity": 0.31496062992125984,
                    "duration": 0.22058799999999223
                },
                {
                    "name": "F#3",
                    "midi": 54,
                    "time": 242.42621200000286,
                    "velocity": 0.2677165354330709,
                    "duration": 0.22058799999999223
                },
                {
                    "name": "C#2",
                    "midi": 37,
                    "time": 242.64680000000286,
                    "velocity": 0.29133858267716534,
                    "duration": 0.055147000000005164
                },
                {
                    "name": "C#3",
                    "midi": 49,
                    "time": 242.75709400000287,
                    "velocity": 0.29133858267716534,
                    "duration": 0.055147000000005164
                },
                {
                    "name": "D4",
                    "midi": 62,
                    "time": 242.86738800000288,
                    "velocity": 0.31496062992125984,
                    "duration": 0.22058799999999223
                },
                {
                    "name": "F#3",
                    "midi": 54,
                    "time": 242.86738800000288,
                    "velocity": 0.2677165354330709,
                    "duration": 0.22058799999999223
                },
                {
                    "name": "C#2",
                    "midi": 37,
                    "time": 243.08797600000287,
                    "velocity": 0.2992125984251969,
                    "duration": 0.055147000000005164
                },
                {
                    "name": "C#3",
                    "midi": 49,
                    "time": 243.19827000000288,
                    "velocity": 0.2992125984251969,
                    "duration": 0.055147000000005164
                },
                {
                    "name": "D4",
                    "midi": 62,
                    "time": 243.3085640000029,
                    "velocity": 0.31496062992125984,
                    "duration": 0.22058799999999223
                },
                {
                    "name": "F#3",
                    "midi": 54,
                    "time": 243.3085640000029,
                    "velocity": 0.2677165354330709,
                    "duration": 0.22058799999999223
                },
                {
                    "name": "C#2",
                    "midi": 37,
                    "time": 243.52915200000288,
                    "velocity": 0.29133858267716534,
                    "duration": 0.055147000000005164
                },
                {
                    "name": "C#3",
                    "midi": 49,
                    "time": 243.6394460000029,
                    "velocity": 0.29133858267716534,
                    "duration": 0.055147000000005164
                },
                {
                    "name": "D4",
                    "midi": 62,
                    "time": 243.7497400000029,
                    "velocity": 0.31496062992125984,
                    "duration": 0.22058799999999223
                },
                {
                    "name": "F#3",
                    "midi": 54,
                    "time": 243.7497400000029,
                    "velocity": 0.2677165354330709,
                    "duration": 0.22058799999999223
                },
                {
                    "name": "F4",
                    "midi": 65,
                    "time": 243.9703280000029,
                    "velocity": 0.3543307086614173,
                    "duration": 0.055147000000005164
                },
                {
                    "name": "B4",
                    "midi": 71,
                    "time": 244.0806220000029,
                    "velocity": 0.3228346456692913,
                    "duration": 0.055147000000005164
                },
                {
                    "name": "D5",
                    "midi": 74,
                    "time": 244.19091600000291,
                    "velocity": 0.3700787401574803,
                    "duration": 0.22058799999999223
                },
                {
                    "name": "C#4",
                    "midi": 61,
                    "time": 244.4115040000029,
                    "velocity": 0.3543307086614173,
                    "duration": 0.055147000000005164
                },
                {
                    "name": "F#4",
                    "midi": 66,
                    "time": 244.52179800000292,
                    "velocity": 0.33070866141732286,
                    "duration": 0.055147000000005164
                },
                {
                    "name": "A4",
                    "midi": 69,
                    "time": 244.63209200000293,
                    "velocity": 0.36220472440944884,
                    "duration": 0.055147000000005164
                },
                {
                    "name": "F4",
                    "midi": 65,
                    "time": 244.85268000000292,
                    "velocity": 0.36220472440944884,
                    "duration": 0.055147000000005164
                },
                {
                    "name": "B4",
                    "midi": 71,
                    "time": 244.96297400000293,
                    "velocity": 0.3228346456692913,
                    "duration": 0.055147000000005164
                },
                {
                    "name": "D5",
                    "midi": 74,
                    "time": 245.07326800000294,
                    "velocity": 0.3779527559055118,
                    "duration": 0.055147000000005164
                },
                {
                    "name": "C#4",
                    "midi": 61,
                    "time": 245.29385600000293,
                    "velocity": 0.3700787401574803,
                    "duration": 0.055147000000005164
                },
                {
                    "name": "F#4",
                    "midi": 66,
                    "time": 245.40415000000294,
                    "velocity": 0.3228346456692913,
                    "duration": 0.055147000000005164
                },
                {
                    "name": "A4",
                    "midi": 69,
                    "time": 245.51444400000295,
                    "velocity": 0.36220472440944884,
                    "duration": 0.055147000000005164
                },
                {
                    "name": "G#4",
                    "midi": 68,
                    "time": 245.73503200000295,
                    "velocity": 0.3464566929133858,
                    "duration": 0.055147000000005164
                },
                {
                    "name": "D#5",
                    "midi": 75,
                    "time": 245.84532600000296,
                    "velocity": 0.2992125984251969,
                    "duration": 0.055147000000005164
                },
                {
                    "name": "F#5",
                    "midi": 78,
                    "time": 245.95562000000297,
                    "velocity": 0.3543307086614173,
                    "duration": 0.055147000000005164
                },
                {
                    "name": "C#4",
                    "midi": 61,
                    "time": 246.17620800000296,
                    "velocity": 0.36220472440944884,
                    "duration": 0.055147000000005164
                },
                {
                    "name": "G#4",
                    "midi": 68,
                    "time": 246.28650200000297,
                    "velocity": 0.33070866141732286,
                    "duration": 0.055147000000005164
                },
                {
                    "name": "C5",
                    "midi": 72,
                    "time": 246.39679600000298,
                    "velocity": 0.3543307086614173,
                    "duration": 0.055147000000005164
                },
                {
                    "name": "G#3",
                    "midi": 56,
                    "time": 246.61738400000297,
                    "velocity": 0.3543307086614173,
                    "duration": 0.055147000000005164
                },
                {
                    "name": "D#4",
                    "midi": 63,
                    "time": 246.72767800000298,
                    "velocity": 0.33070866141732286,
                    "duration": 0.055147000000005164
                },
                {
                    "name": "F#4",
                    "midi": 66,
                    "time": 246.837972000003,
                    "velocity": 0.36220472440944884,
                    "duration": 0.055147000000005164
                },
                {
                    "name": "C#2",
                    "midi": 37,
                    "time": 247.05856000000298,
                    "velocity": 0.3779527559055118,
                    "duration": 0.055147000000005164
                },
                {
                    "name": "G#2",
                    "midi": 44,
                    "time": 247.168854000003,
                    "velocity": 0.3779527559055118,
                    "duration": 0.055147000000005164
                },
                {
                    "name": "G#3",
                    "midi": 56,
                    "time": 247.279148000003,
                    "velocity": 0.4094488188976378,
                    "duration": 0.22058799999999223
                },
                {
                    "name": "C#3",
                    "midi": 49,
                    "time": 247.279148000003,
                    "velocity": 0.3464566929133858,
                    "duration": 0.22058799999999223
                },
                {
                    "name": "C#3",
                    "midi": 49,
                    "time": 247.499736000003,
                    "velocity": 0.3858267716535433,
                    "duration": 0.055147000000005164
                },
                {
                    "name": "G#3",
                    "midi": 56,
                    "time": 247.610030000003,
                    "velocity": 0.3858267716535433,
                    "duration": 0.055147000000005164
                },
                {
                    "name": "C#4",
                    "midi": 61,
                    "time": 247.72032400000302,
                    "velocity": 0.4094488188976378,
                    "duration": 0.22058799999999223
                },
                {
                    "name": "C#2",
                    "midi": 37,
                    "time": 247.940912000003,
                    "velocity": 0.3779527559055118,
                    "duration": 0.055147000000005164
                },
                {
                    "name": "G#2",
                    "midi": 44,
                    "time": 248.05120600000302,
                    "velocity": 0.3779527559055118,
                    "duration": 0.055147000000005164
                },
                {
                    "name": "G#3",
                    "midi": 56,
                    "time": 248.16150000000303,
                    "velocity": 0.4094488188976378,
                    "duration": 0.22058799999999223
                },
                {
                    "name": "C#3",
                    "midi": 49,
                    "time": 248.16150000000303,
                    "velocity": 0.3464566929133858,
                    "duration": 0.22058799999999223
                },
                {
                    "name": "C#3",
                    "midi": 49,
                    "time": 248.38208800000302,
                    "velocity": 0.3858267716535433,
                    "duration": 0.055147000000005164
                },
                {
                    "name": "G#3",
                    "midi": 56,
                    "time": 248.49238200000303,
                    "velocity": 0.3858267716535433,
                    "duration": 0.055147000000005164
                },
                {
                    "name": "C#4",
                    "midi": 61,
                    "time": 248.60267600000304,
                    "velocity": 0.4094488188976378,
                    "duration": 0.22058799999999223
                },
                {
                    "name": "C#2",
                    "midi": 37,
                    "time": 248.82326400000304,
                    "velocity": 0.3779527559055118,
                    "duration": 0.055147000000005164
                },
                {
                    "name": "G#2",
                    "midi": 44,
                    "time": 248.93355800000305,
                    "velocity": 0.3779527559055118,
                    "duration": 0.055147000000005164
                },
                {
                    "name": "G#3",
                    "midi": 56,
                    "time": 249.04385200000306,
                    "velocity": 0.4094488188976378,
                    "duration": 0.22058799999999223
                },
                {
                    "name": "C#3",
                    "midi": 49,
                    "time": 249.04385200000306,
                    "velocity": 0.3464566929133858,
                    "duration": 0.22058799999999223
                },
                {
                    "name": "C#2",
                    "midi": 37,
                    "time": 249.26444000000305,
                    "velocity": 0.3779527559055118,
                    "duration": 0.055147000000005164
                },
                {
                    "name": "A2",
                    "midi": 45,
                    "time": 249.37473400000306,
                    "velocity": 0.3779527559055118,
                    "duration": 0.055147000000005164
                },
                {
                    "name": "A3",
                    "midi": 57,
                    "time": 249.48502800000307,
                    "velocity": 0.4094488188976378,
                    "duration": 0.22058799999999223
                },
                {
                    "name": "C#3",
                    "midi": 49,
                    "time": 249.48502800000307,
                    "velocity": 0.3464566929133858,
                    "duration": 0.22058799999999223
                },
                {
                    "name": "C#3",
                    "midi": 49,
                    "time": 249.70561600000306,
                    "velocity": 0.3858267716535433,
                    "duration": 0.055147000000005164
                },
                {
                    "name": "A3",
                    "midi": 57,
                    "time": 249.81591000000307,
                    "velocity": 0.3858267716535433,
                    "duration": 0.055147000000005164
                },
                {
                    "name": "E4",
                    "midi": 64,
                    "time": 249.92620400000308,
                    "velocity": 0.4094488188976378,
                    "duration": 0.22058799999999223
                },
                {
                    "name": "C#2",
                    "midi": 37,
                    "time": 250.14679200000307,
                    "velocity": 0.3779527559055118,
                    "duration": 0.055147000000005164
                },
                {
                    "name": "A2",
                    "midi": 45,
                    "time": 250.25708600000308,
                    "velocity": 0.3779527559055118,
                    "duration": 0.055147000000005164
                },
                {
                    "name": "A3",
                    "midi": 57,
                    "time": 250.3673800000031,
                    "velocity": 0.4094488188976378,
                    "duration": 0.22058799999999223
                },
                {
                    "name": "C#3",
                    "midi": 49,
                    "time": 250.3673800000031,
                    "velocity": 0.3464566929133858,
                    "duration": 0.22058799999999223
                },
                {
                    "name": "C#3",
                    "midi": 49,
                    "time": 250.5879680000031,
                    "velocity": 0.3858267716535433,
                    "duration": 0.055147000000005164
                },
                {
                    "name": "A3",
                    "midi": 57,
                    "time": 250.6982620000031,
                    "velocity": 0.3858267716535433,
                    "duration": 0.055147000000005164
                },
                {
                    "name": "E4",
                    "midi": 64,
                    "time": 250.8085560000031,
                    "velocity": 0.4094488188976378,
                    "duration": 0.22058799999999223
                },
                {
                    "name": "C#2",
                    "midi": 37,
                    "time": 251.0291440000031,
                    "velocity": 0.3779527559055118,
                    "duration": 0.055147000000005164
                },
                {
                    "name": "A2",
                    "midi": 45,
                    "time": 251.1394380000031,
                    "velocity": 0.3779527559055118,
                    "duration": 0.055147000000005164
                },
                {
                    "name": "A3",
                    "midi": 57,
                    "time": 251.24973200000312,
                    "velocity": 0.4094488188976378,
                    "duration": 0.22058799999999223
                },
                {
                    "name": "C#3",
                    "midi": 49,
                    "time": 251.24973200000312,
                    "velocity": 0.3464566929133858,
                    "duration": 0.22058799999999223
                },
                {
                    "name": "C#2",
                    "midi": 37,
                    "time": 251.4703200000031,
                    "velocity": 0.3779527559055118,
                    "duration": 0.055147000000005164
                },
                {
                    "name": "A2",
                    "midi": 45,
                    "time": 251.58061400000312,
                    "velocity": 0.3779527559055118,
                    "duration": 0.055147000000005164
                },
                {
                    "name": "A3",
                    "midi": 57,
                    "time": 251.69090800000313,
                    "velocity": 0.4094488188976378,
                    "duration": 0.22058799999999223
                },
                {
                    "name": "C#3",
                    "midi": 49,
                    "time": 251.69090800000313,
                    "velocity": 0.3464566929133858,
                    "duration": 0.22058799999999223
                },
                {
                    "name": "C#3",
                    "midi": 49,
                    "time": 251.91149600000313,
                    "velocity": 0.3858267716535433,
                    "duration": 0.055147000000005164
                },
                {
                    "name": "F#3",
                    "midi": 54,
                    "time": 252.02179000000314,
                    "velocity": 0.3858267716535433,
                    "duration": 0.055147000000005164
                },
                {
                    "name": "D4",
                    "midi": 62,
                    "time": 252.13208400000315,
                    "velocity": 0.4094488188976378,
                    "duration": 0.22058799999999223
                },
                {
                    "name": "A3",
                    "midi": 57,
                    "time": 252.13208400000315,
                    "velocity": 0.3464566929133858,
                    "duration": 0.22058799999999223
                },
                {
                    "name": "C#2",
                    "midi": 37,
                    "time": 252.35267200000314,
                    "velocity": 0.3779527559055118,
                    "duration": 0.055147000000005164
                },
                {
                    "name": "A2",
                    "midi": 45,
                    "time": 252.46296600000315,
                    "velocity": 0.3779527559055118,
                    "duration": 0.055147000000005164
                },
                {
                    "name": "A3",
                    "midi": 57,
                    "time": 252.57326000000316,
                    "velocity": 0.4094488188976378,
                    "duration": 0.22058799999999223
                },
                {
                    "name": "C#3",
                    "midi": 49,
                    "time": 252.57326000000316,
                    "velocity": 0.3464566929133858,
                    "duration": 0.22058799999999223
                },
                {
                    "name": "C#3",
                    "midi": 49,
                    "time": 252.79384800000315,
                    "velocity": 0.3858267716535433,
                    "duration": 0.055147000000005164
                },
                {
                    "name": "F#3",
                    "midi": 54,
                    "time": 252.90414200000316,
                    "velocity": 0.3858267716535433,
                    "duration": 0.055147000000005164
                },
                {
                    "name": "D4",
                    "midi": 62,
                    "time": 253.01443600000317,
                    "velocity": 0.4094488188976378,
                    "duration": 0.22058799999999223
                },
                {
                    "name": "A3",
                    "midi": 57,
                    "time": 253.01443600000317,
                    "velocity": 0.3464566929133858,
                    "duration": 0.22058799999999223
                },
                {
                    "name": "C#2",
                    "midi": 37,
                    "time": 253.23502400000316,
                    "velocity": 0.3779527559055118,
                    "duration": 0.055147000000005164
                },
                {
                    "name": "A2",
                    "midi": 45,
                    "time": 253.34531800000318,
                    "velocity": 0.3779527559055118,
                    "duration": 0.055147000000005164
                },
                {
                    "name": "A3",
                    "midi": 57,
                    "time": 253.45561200000319,
                    "velocity": 0.4094488188976378,
                    "duration": 0.22058799999999223
                },
                {
                    "name": "C#3",
                    "midi": 49,
                    "time": 253.45561200000319,
                    "velocity": 0.3464566929133858,
                    "duration": 0.22058799999999223
                },
                {
                    "name": "F4",
                    "midi": 65,
                    "time": 253.67620000000318,
                    "velocity": 0.4566929133858268,
                    "duration": 0.055147000000005164
                },
                {
                    "name": "B4",
                    "midi": 71,
                    "time": 253.7864940000032,
                    "velocity": 0.41732283464566927,
                    "duration": 0.055147000000005164
                },
                {
                    "name": "D5",
                    "midi": 74,
                    "time": 253.8967880000032,
                    "velocity": 0.48031496062992124,
                    "duration": 0.22058799999999223
                },
                {
                    "name": "C#4",
                    "midi": 61,
                    "time": 254.1173760000032,
                    "velocity": 0.4566929133858268,
                    "duration": 0.055147000000005164
                },
                {
                    "name": "F#4",
                    "midi": 66,
                    "time": 254.2276700000032,
                    "velocity": 0.4251968503937008,
                    "duration": 0.055147000000005164
                },
                {
                    "name": "A4",
                    "midi": 69,
                    "time": 254.3379640000032,
                    "velocity": 0.4645669291338583,
                    "duration": 0.055147000000005164
                },
                {
                    "name": "F4",
                    "midi": 65,
                    "time": 254.5585520000032,
                    "velocity": 0.4645669291338583,
                    "duration": 0.055147000000005164
                },
                {
                    "name": "B4",
                    "midi": 71,
                    "time": 254.6688460000032,
                    "velocity": 0.41732283464566927,
                    "duration": 0.055147000000005164
                },
                {
                    "name": "D5",
                    "midi": 74,
                    "time": 254.77914000000322,
                    "velocity": 0.4881889763779528,
                    "duration": 0.055147000000005164
                },
                {
                    "name": "C#4",
                    "midi": 61,
                    "time": 254.99972800000322,
                    "velocity": 0.48031496062992124,
                    "duration": 0.055147000000005164
                },
                {
                    "name": "F#4",
                    "midi": 66,
                    "time": 255.11002200000323,
                    "velocity": 0.41732283464566927,
                    "duration": 0.055147000000005164
                },
                {
                    "name": "A4",
                    "midi": 69,
                    "time": 255.22031600000324,
                    "velocity": 0.4645669291338583,
                    "duration": 0.055147000000005164
                },
                {
                    "name": "G#4",
                    "midi": 68,
                    "time": 255.44090400000323,
                    "velocity": 0.44881889763779526,
                    "duration": 0.055147000000005164
                },
                {
                    "name": "D#5",
                    "midi": 75,
                    "time": 255.55119800000324,
                    "velocity": 0.3858267716535433,
                    "duration": 0.055147000000005164
                },
                {
                    "name": "F#5",
                    "midi": 78,
                    "time": 255.66149200000325,
                    "velocity": 0.4566929133858268,
                    "duration": 0.055147000000005164
                },
                {
                    "name": "C#4",
                    "midi": 61,
                    "time": 255.88208000000324,
                    "velocity": 0.4645669291338583,
                    "duration": 0.055147000000005164
                },
                {
                    "name": "G#4",
                    "midi": 68,
                    "time": 255.99237400000325,
                    "velocity": 0.4251968503937008,
                    "duration": 0.055147000000005164
                },
                {
                    "name": "C5",
                    "midi": 72,
                    "time": 256.10266800000323,
                    "velocity": 0.4566929133858268,
                    "duration": 0.05514699999997674
                },
                {
                    "name": "G#3",
                    "midi": 56,
                    "time": 256.3232560000032,
                    "velocity": 0.4566929133858268,
                    "duration": 0.05514699999997674
                },
                {
                    "name": "D#4",
                    "midi": 63,
                    "time": 256.43355000000315,
                    "velocity": 0.4251968503937008,
                    "duration": 0.05514699999997674
                },
                {
                    "name": "F#4",
                    "midi": 66,
                    "time": 256.5438440000031,
                    "velocity": 0.4645669291338583,
                    "duration": 0.05514699999997674
                },
                {
                    "name": "C#3",
                    "midi": 49,
                    "time": 256.76443200000307,
                    "velocity": 0.31496062992125984,
                    "duration": 0.05514699999997674
                },
                {
                    "name": "G#3",
                    "midi": 56,
                    "time": 256.874726000003,
                    "velocity": 0.2755905511811024,
                    "duration": 0.05514699999997674
                },
                {
                    "name": "G#4",
                    "midi": 68,
                    "time": 256.985020000003,
                    "velocity": 0.2755905511811024,
                    "duration": 0.05514699999997674
                },
                {
                    "name": "C#4",
                    "midi": 61,
                    "time": 256.985020000003,
                    "velocity": 0.2755905511811024,
                    "duration": 0.05514699999997674
                },
                {
                    "name": "G#3",
                    "midi": 56,
                    "time": 257.09531400000293,
                    "velocity": 0.2755905511811024,
                    "duration": 0.05514699999997674
                },
                {
                    "name": "C#3",
                    "midi": 49,
                    "time": 257.2056080000029,
                    "velocity": 0.31496062992125984,
                    "duration": 0.05514699999997674
                },
                {
                    "name": "G#3",
                    "midi": 56,
                    "time": 257.31590200000284,
                    "velocity": 0.28346456692913385,
                    "duration": 0.05514699999997674
                },
                {
                    "name": "G#4",
                    "midi": 68,
                    "time": 257.4261960000028,
                    "velocity": 0.28346456692913385,
                    "duration": 0.05514699999997674
                },
                {
                    "name": "C#4",
                    "midi": 61,
                    "time": 257.4261960000028,
                    "velocity": 0.28346456692913385,
                    "duration": 0.05514699999997674
                },
                {
                    "name": "G#3",
                    "midi": 56,
                    "time": 257.53649000000274,
                    "velocity": 0.29133858267716534,
                    "duration": 0.05514699999997674
                },
                {
                    "name": "C#3",
                    "midi": 49,
                    "time": 257.6467840000027,
                    "velocity": 0.31496062992125984,
                    "duration": 0.05514699999997674
                },
                {
                    "name": "G#3",
                    "midi": 56,
                    "time": 257.75707800000265,
                    "velocity": 0.2755905511811024,
                    "duration": 0.05514699999997674
                },
                {
                    "name": "G#4",
                    "midi": 68,
                    "time": 257.8673720000026,
                    "velocity": 0.2755905511811024,
                    "duration": 0.05514699999997674
                },
                {
                    "name": "C#4",
                    "midi": 61,
                    "time": 257.8673720000026,
                    "velocity": 0.2755905511811024,
                    "duration": 0.05514699999997674
                },
                {
                    "name": "G#3",
                    "midi": 56,
                    "time": 257.97766600000256,
                    "velocity": 0.2755905511811024,
                    "duration": 0.05514699999997674
                },
                {
                    "name": "C#3",
                    "midi": 49,
                    "time": 258.0879600000025,
                    "velocity": 0.31496062992125984,
                    "duration": 0.05514699999997674
                },
                {
                    "name": "G#3",
                    "midi": 56,
                    "time": 258.19825400000246,
                    "velocity": 0.28346456692913385,
                    "duration": 0.05514699999997674
                },
                {
                    "name": "G#4",
                    "midi": 68,
                    "time": 258.3085480000024,
                    "velocity": 0.28346456692913385,
                    "duration": 0.05514699999997674
                },
                {
                    "name": "C4",
                    "midi": 60,
                    "time": 258.3085480000024,
                    "velocity": 0.28346456692913385,
                    "duration": 0.05514699999997674
                },
                {
                    "name": "G#3",
                    "midi": 56,
                    "time": 258.41884200000237,
                    "velocity": 0.29133858267716534,
                    "duration": 0.05514699999997674
                },
                {
                    "name": "C#3",
                    "midi": 49,
                    "time": 258.5291360000023,
                    "velocity": 0.31496062992125984,
                    "duration": 0.05514699999997674
                },
                {
                    "name": "G#3",
                    "midi": 56,
                    "time": 258.6394300000023,
                    "velocity": 0.2755905511811024,
                    "duration": 0.05514699999997674
                },
                {
                    "name": "G#4",
                    "midi": 68,
                    "time": 258.74972400000223,
                    "velocity": 0.2755905511811024,
                    "duration": 0.05514699999997674
                },
                {
                    "name": "C#4",
                    "midi": 61,
                    "time": 258.74972400000223,
                    "velocity": 0.2755905511811024,
                    "duration": 0.05514699999997674
                },
                {
                    "name": "G#3",
                    "midi": 56,
                    "time": 258.8600180000022,
                    "velocity": 0.2755905511811024,
                    "duration": 0.05514699999997674
                },
                {
                    "name": "C#3",
                    "midi": 49,
                    "time": 258.97031200000214,
                    "velocity": 0.31496062992125984,
                    "duration": 0.05514699999997674
                },
                {
                    "name": "G#3",
                    "midi": 56,
                    "time": 259.0806060000021,
                    "velocity": 0.28346456692913385,
                    "duration": 0.05514699999997674
                },
                {
                    "name": "G#4",
                    "midi": 68,
                    "time": 259.19090000000205,
                    "velocity": 0.28346456692913385,
                    "duration": 0.05514699999997674
                },
                {
                    "name": "C#4",
                    "midi": 61,
                    "time": 259.19090000000205,
                    "velocity": 0.28346456692913385,
                    "duration": 0.05514699999997674
                },
                {
                    "name": "G#3",
                    "midi": 56,
                    "time": 259.301194000002,
                    "velocity": 0.29133858267716534,
                    "duration": 0.05514699999997674
                },
                {
                    "name": "C#3",
                    "midi": 49,
                    "time": 259.41148800000195,
                    "velocity": 0.3543307086614173,
                    "duration": 0.05514699999997674
                },
                {
                    "name": "G#3",
                    "midi": 56,
                    "time": 259.5217820000019,
                    "velocity": 0.31496062992125984,
                    "duration": 0.05514699999997674
                },
                {
                    "name": "G#4",
                    "midi": 68,
                    "time": 259.63207600000186,
                    "velocity": 0.31496062992125984,
                    "duration": 0.05514699999997674
                },
                {
                    "name": "C#4",
                    "midi": 61,
                    "time": 259.63207600000186,
                    "velocity": 0.31496062992125984,
                    "duration": 0.05514699999997674
                },
                {
                    "name": "G#3",
                    "midi": 56,
                    "time": 259.7423700000018,
                    "velocity": 0.31496062992125984,
                    "duration": 0.05514699999997674
                },
                {
                    "name": "C#3",
                    "midi": 49,
                    "time": 259.85266400000177,
                    "velocity": 0.36220472440944884,
                    "duration": 0.05514699999997674
                },
                {
                    "name": "G#3",
                    "midi": 56,
                    "time": 259.9629580000017,
                    "velocity": 0.30708661417322836,
                    "duration": 0.05514699999997674
                },
                {
                    "name": "G#4",
                    "midi": 68,
                    "time": 260.0732520000017,
                    "velocity": 0.30708661417322836,
                    "duration": 0.05514699999997674
                },
                {
                    "name": "C4",
                    "midi": 60,
                    "time": 260.0732520000017,
                    "velocity": 0.30708661417322836,
                    "duration": 0.05514699999997674
                },
                {
                    "name": "G#3",
                    "midi": 56,
                    "time": 260.1835460000016,
                    "velocity": 0.29133858267716534,
                    "duration": 0.05514699999997674
                },
                {
                    "name": "C#3",
                    "midi": 49,
                    "time": 260.2938400000016,
                    "velocity": 0.31496062992125984,
                    "duration": 0.05514699999997674
                },
                {
                    "name": "G#3",
                    "midi": 56,
                    "time": 260.40413400000153,
                    "velocity": 0.2755905511811024,
                    "duration": 0.05514699999997674
                },
                {
                    "name": "G#4",
                    "midi": 68,
                    "time": 260.5144280000015,
                    "velocity": 0.2755905511811024,
                    "duration": 0.05514699999997674
                },
                {
                    "name": "C#4",
                    "midi": 61,
                    "time": 260.5144280000015,
                    "velocity": 0.2755905511811024,
                    "duration": 0.05514699999997674
                },
                {
                    "name": "G#3",
                    "midi": 56,
                    "time": 260.62472200000144,
                    "velocity": 0.2755905511811024,
                    "duration": 0.05514699999997674
                },
                {
                    "name": "C#3",
                    "midi": 49,
                    "time": 260.7350160000014,
                    "velocity": 0.31496062992125984,
                    "duration": 0.05514699999997674
                },
                {
                    "name": "G#3",
                    "midi": 56,
                    "time": 260.84531000000135,
                    "velocity": 0.28346456692913385,
                    "duration": 0.05514699999997674
                },
                {
                    "name": "G#4",
                    "midi": 68,
                    "time": 260.9556040000013,
                    "velocity": 0.28346456692913385,
                    "duration": 0.05514699999997674
                },
                {
                    "name": "C#4",
                    "midi": 61,
                    "time": 260.9556040000013,
                    "velocity": 0.28346456692913385,
                    "duration": 0.05514699999997674
                },
                {
                    "name": "G#3",
                    "midi": 56,
                    "time": 261.06589800000125,
                    "velocity": 0.29133858267716534,
                    "duration": 0.05514699999997674
                },
                {
                    "name": "C#3",
                    "midi": 49,
                    "time": 261.1761920000012,
                    "velocity": 0.31496062992125984,
                    "duration": 0.05514699999997674
                },
                {
                    "name": "G#3",
                    "midi": 56,
                    "time": 261.28648600000116,
                    "velocity": 0.2755905511811024,
                    "duration": 0.05514699999997674
                },
                {
                    "name": "G#4",
                    "midi": 68,
                    "time": 261.3967800000011,
                    "velocity": 0.2755905511811024,
                    "duration": 0.05514699999997674
                },
                {
                    "name": "C#4",
                    "midi": 61,
                    "time": 261.3967800000011,
                    "velocity": 0.2755905511811024,
                    "duration": 0.05514699999997674
                },
                {
                    "name": "G#3",
                    "midi": 56,
                    "time": 261.50707400000107,
                    "velocity": 0.2755905511811024,
                    "duration": 0.05514699999997674
                },
                {
                    "name": "C#3",
                    "midi": 49,
                    "time": 261.617368000001,
                    "velocity": 0.31496062992125984,
                    "duration": 0.05514699999997674
                },
                {
                    "name": "G#3",
                    "midi": 56,
                    "time": 261.727662000001,
                    "velocity": 0.28346456692913385,
                    "duration": 0.05514699999997674
                },
                {
                    "name": "G#4",
                    "midi": 68,
                    "time": 261.83795600000093,
                    "velocity": 0.28346456692913385,
                    "duration": 0.05514699999997674
                },
                {
                    "name": "C4",
                    "midi": 60,
                    "time": 261.83795600000093,
                    "velocity": 0.28346456692913385,
                    "duration": 0.05514699999997674
                },
                {
                    "name": "G#3",
                    "midi": 56,
                    "time": 261.9482500000009,
                    "velocity": 0.29133858267716534,
                    "duration": 0.05514699999997674
                },
                {
                    "name": "C#3",
                    "midi": 49,
                    "time": 262.05854400000084,
                    "velocity": 0.31496062992125984,
                    "duration": 0.05514699999997674
                },
                {
                    "name": "G#3",
                    "midi": 56,
                    "time": 262.1688380000008,
                    "velocity": 0.2755905511811024,
                    "duration": 0.05514699999997674
                },
                {
                    "name": "G#4",
                    "midi": 68,
                    "time": 262.27913200000074,
                    "velocity": 0.2755905511811024,
                    "duration": 0.05514699999997674
                },
                {
                    "name": "C#4",
                    "midi": 61,
                    "time": 262.27913200000074,
                    "velocity": 0.2755905511811024,
                    "duration": 0.05514699999997674
                },
                {
                    "name": "G#3",
                    "midi": 56,
                    "time": 262.3894260000007,
                    "velocity": 0.2755905511811024,
                    "duration": 0.05514699999997674
                },
                {
                    "name": "C#3",
                    "midi": 49,
                    "time": 262.49972000000065,
                    "velocity": 0.31496062992125984,
                    "duration": 0.05514699999997674
                },
                {
                    "name": "G#3",
                    "midi": 56,
                    "time": 262.6100140000006,
                    "velocity": 0.28346456692913385,
                    "duration": 0.05514699999997674
                },
                {
                    "name": "G#4",
                    "midi": 68,
                    "time": 262.72030800000056,
                    "velocity": 0.28346456692913385,
                    "duration": 0.05514699999997674
                },
                {
                    "name": "C#4",
                    "midi": 61,
                    "time": 262.72030800000056,
                    "velocity": 0.28346456692913385,
                    "duration": 0.05514699999997674
                },
                {
                    "name": "G#3",
                    "midi": 56,
                    "time": 262.8306020000005,
                    "velocity": 0.29133858267716534,
                    "duration": 0.05514699999997674
                },
                {
                    "name": "C#3",
                    "midi": 49,
                    "time": 262.94089600000046,
                    "velocity": 0.3464566929133858,
                    "duration": 0.05514699999997674
                },
                {
                    "name": "G#3",
                    "midi": 56,
                    "time": 263.0511900000004,
                    "velocity": 0.30708661417322836,
                    "duration": 0.05514699999997674
                },
                {
                    "name": "G#4",
                    "midi": 68,
                    "time": 263.16148400000037,
                    "velocity": 0.30708661417322836,
                    "duration": 0.05514699999997674
                },
                {
                    "name": "C#4",
                    "midi": 61,
                    "time": 263.16148400000037,
                    "velocity": 0.30708661417322836,
                    "duration": 0.05514699999997674
                },
                {
                    "name": "G#3",
                    "midi": 56,
                    "time": 263.2717780000003,
                    "velocity": 0.30708661417322836,
                    "duration": 0.05514699999997674
                },
                {
                    "name": "C#3",
                    "midi": 49,
                    "time": 263.3820720000003,
                    "velocity": 0.3464566929133858,
                    "duration": 0.05514699999997674
                },
                {
                    "name": "G#3",
                    "midi": 56,
                    "time": 263.49236600000023,
                    "velocity": 0.28346456692913385,
                    "duration": 0.05514699999997674
                },
                {
                    "name": "G#4",
                    "midi": 68,
                    "time": 263.6026600000002,
                    "velocity": 0.28346456692913385,
                    "duration": 0.05514699999997674
                },
                {
                    "name": "C4",
                    "midi": 60,
                    "time": 263.6026600000002,
                    "velocity": 0.28346456692913385,
                    "duration": 0.05514699999997674
                },
                {
                    "name": "G#3",
                    "midi": 56,
                    "time": 263.71295400000014,
                    "velocity": 0.29133858267716534,
                    "duration": 0.05514699999997674
                },
                {
                    "name": "C#3",
                    "midi": 49,
                    "time": 263.8232480000001,
                    "velocity": 0.31496062992125984,
                    "duration": 0.05514699999997674
                },
                {
                    "name": "G#3",
                    "midi": 56,
                    "time": 263.93354200000005,
                    "velocity": 0.2755905511811024,
                    "duration": 0.05514699999997674
                },
                {
                    "name": "F4",
                    "midi": 65,
                    "time": 264.043836,
                    "velocity": 0.2755905511811024,
                    "duration": 0.05514699999997674
                },
                {
                    "name": "C#4",
                    "midi": 61,
                    "time": 264.043836,
                    "velocity": 0.2755905511811024,
                    "duration": 0.05514699999997674
                },
                {
                    "name": "G#3",
                    "midi": 56,
                    "time": 264.15412999999995,
                    "velocity": 0.2755905511811024,
                    "duration": 0.05514699999997674
                },
                {
                    "name": "C#3",
                    "midi": 49,
                    "time": 264.2644239999999,
                    "velocity": 0.31496062992125984,
                    "duration": 0.05514699999997674
                },
                {
                    "name": "G#3",
                    "midi": 56,
                    "time": 264.37471799999986,
                    "velocity": 0.28346456692913385,
                    "duration": 0.05514699999997674
                },
                {
                    "name": "F#4",
                    "midi": 66,
                    "time": 264.4850119999998,
                    "velocity": 0.28346456692913385,
                    "duration": 0.05514699999997674
                },
                {
                    "name": "C4",
                    "midi": 60,
                    "time": 264.4850119999998,
                    "velocity": 0.28346456692913385,
                    "duration": 0.05514699999997674
                },
                {
                    "name": "G#3",
                    "midi": 56,
                    "time": 264.59530599999977,
                    "velocity": 0.29133858267716534,
                    "duration": 0.05514699999997674
                },
                {
                    "name": "C#3",
                    "midi": 49,
                    "time": 264.7055999999997,
                    "velocity": 0.31496062992125984,
                    "duration": 0.05514699999997674
                },
                {
                    "name": "G#3",
                    "midi": 56,
                    "time": 264.8158939999997,
                    "velocity": 0.2755905511811024,
                    "duration": 0.05514699999997674
                },
                {
                    "name": "F4",
                    "midi": 65,
                    "time": 264.9261879999996,
                    "velocity": 0.2755905511811024,
                    "duration": 0.05514699999997674
                },
                {
                    "name": "C#4",
                    "midi": 61,
                    "time": 264.9261879999996,
                    "velocity": 0.2755905511811024,
                    "duration": 0.05514699999997674
                },
                {
                    "name": "G#3",
                    "midi": 56,
                    "time": 265.0364819999996,
                    "velocity": 0.2755905511811024,
                    "duration": 0.05514699999997674
                },
                {
                    "name": "C#3",
                    "midi": 49,
                    "time": 265.14677599999953,
                    "velocity": 0.31496062992125984,
                    "duration": 0.05514699999997674
                },
                {
                    "name": "G#3",
                    "midi": 56,
                    "time": 265.2570699999995,
                    "velocity": 0.28346456692913385,
                    "duration": 0.05514699999997674
                },
                {
                    "name": "F#4",
                    "midi": 66,
                    "time": 265.36736399999944,
                    "velocity": 0.28346456692913385,
                    "duration": 0.05514699999997674
                },
                {
                    "name": "C4",
                    "midi": 60,
                    "time": 265.36736399999944,
                    "velocity": 0.28346456692913385,
                    "duration": 0.05514699999997674
                },
                {
                    "name": "G#3",
                    "midi": 56,
                    "time": 265.4776579999994,
                    "velocity": 0.29133858267716534,
                    "duration": 0.05514699999997674
                },
                {
                    "name": "C#3",
                    "midi": 49,
                    "time": 265.58795199999935,
                    "velocity": 0.31496062992125984,
                    "duration": 0.05514699999997674
                },
                {
                    "name": "G#3",
                    "midi": 56,
                    "time": 265.6982459999993,
                    "velocity": 0.2755905511811024,
                    "duration": 0.05514699999997674
                },
                {
                    "name": "F4",
                    "midi": 65,
                    "time": 265.80853999999925,
                    "velocity": 0.2755905511811024,
                    "duration": 0.05514699999997674
                },
                {
                    "name": "C#4",
                    "midi": 61,
                    "time": 265.80853999999925,
                    "velocity": 0.2755905511811024,
                    "duration": 0.05514699999997674
                },
                {
                    "name": "G#3",
                    "midi": 56,
                    "time": 265.9188339999992,
                    "velocity": 0.2755905511811024,
                    "duration": 0.05514699999997674
                },
                {
                    "name": "C#3",
                    "midi": 49,
                    "time": 266.02912799999916,
                    "velocity": 0.31496062992125984,
                    "duration": 0.05514699999997674
                },
                {
                    "name": "G#3",
                    "midi": 56,
                    "time": 266.1394219999991,
                    "velocity": 0.28346456692913385,
                    "duration": 0.05514699999997674
                },
                {
                    "name": "F#4",
                    "midi": 66,
                    "time": 266.24971599999907,
                    "velocity": 0.28346456692913385,
                    "duration": 0.05514699999997674
                },
                {
                    "name": "C4",
                    "midi": 60,
                    "time": 266.24971599999907,
                    "velocity": 0.28346456692913385,
                    "duration": 0.05514699999997674
                },
                {
                    "name": "G#3",
                    "midi": 56,
                    "time": 266.360009999999,
                    "velocity": 0.29133858267716534,
                    "duration": 0.05514699999997674
                },
                {
                    "name": "C#3",
                    "midi": 49,
                    "time": 266.470303999999,
                    "velocity": 0.31496062992125984,
                    "duration": 0.05514699999997674
                },
                {
                    "name": "G#3",
                    "midi": 56,
                    "time": 266.58059799999893,
                    "velocity": 0.2755905511811024,
                    "duration": 0.05514699999997674
                },
                {
                    "name": "F4",
                    "midi": 65,
                    "time": 266.6908919999989,
                    "velocity": 0.2755905511811024,
                    "duration": 0.05514699999997674
                },
                {
                    "name": "C#4",
                    "midi": 61,
                    "time": 266.6908919999989,
                    "velocity": 0.2755905511811024,
                    "duration": 0.05514699999997674
                },
                {
                    "name": "G#3",
                    "midi": 56,
                    "time": 266.80118599999884,
                    "velocity": 0.2755905511811024,
                    "duration": 0.05514699999997674
                },
                {
                    "name": "C#3",
                    "midi": 49,
                    "time": 266.9114799999988,
                    "velocity": 0.31496062992125984,
                    "duration": 0.05514699999997674
                },
                {
                    "name": "G#3",
                    "midi": 56,
                    "time": 267.02177399999874,
                    "velocity": 0.28346456692913385,
                    "duration": 0.05514699999997674
                },
                {
                    "name": "F#4",
                    "midi": 66,
                    "time": 267.1320679999987,
                    "velocity": 0.28346456692913385,
                    "duration": 0.05514699999997674
                },
                {
                    "name": "C4",
                    "midi": 60,
                    "time": 267.1320679999987,
                    "velocity": 0.28346456692913385,
                    "duration": 0.05514699999997674
                },
                {
                    "name": "G#3",
                    "midi": 56,
                    "time": 267.24236199999865,
                    "velocity": 0.29133858267716534,
                    "duration": 0.05514699999997674
                },
                {
                    "name": "C#3",
                    "midi": 49,
                    "time": 267.3526559999986,
                    "velocity": 0.31496062992125984,
                    "duration": 0.05514699999997674
                },
                {
                    "name": "G#3",
                    "midi": 56,
                    "time": 267.46294999999856,
                    "velocity": 0.2755905511811024,
                    "duration": 0.05514699999997674
                },
                {
                    "name": "F4",
                    "midi": 65,
                    "time": 267.5732439999985,
                    "velocity": 0.2755905511811024,
                    "duration": 0.05514699999997674
                },
                {
                    "name": "C#4",
                    "midi": 61,
                    "time": 267.5732439999985,
                    "velocity": 0.2755905511811024,
                    "duration": 0.05514699999997674
                },
                {
                    "name": "G#3",
                    "midi": 56,
                    "time": 267.68353799999846,
                    "velocity": 0.2755905511811024,
                    "duration": 0.05514699999997674
                },
                {
                    "name": "C#3",
                    "midi": 49,
                    "time": 267.7938319999984,
                    "velocity": 0.31496062992125984,
                    "duration": 0.05514699999997674
                },
                {
                    "name": "G#3",
                    "midi": 56,
                    "time": 267.90412599999837,
                    "velocity": 0.28346456692913385,
                    "duration": 0.05514699999997674
                },
                {
                    "name": "F#4",
                    "midi": 66,
                    "time": 268.0144199999983,
                    "velocity": 0.28346456692913385,
                    "duration": 0.05514699999997674
                },
                {
                    "name": "C4",
                    "midi": 60,
                    "time": 268.0144199999983,
                    "velocity": 0.28346456692913385,
                    "duration": 0.05514699999997674
                },
                {
                    "name": "G#3",
                    "midi": 56,
                    "time": 268.1247139999983,
                    "velocity": 0.29133858267716534,
                    "duration": 0.05514699999997674
                },
                {
                    "name": "C#3",
                    "midi": 49,
                    "time": 268.23500799999823,
                    "velocity": 0.31496062992125984,
                    "duration": 0.05514699999997674
                },
                {
                    "name": "G#3",
                    "midi": 56,
                    "time": 268.3453019999982,
                    "velocity": 0.2755905511811024,
                    "duration": 0.05514699999997674
                },
                {
                    "name": "F4",
                    "midi": 65,
                    "time": 268.45559599999814,
                    "velocity": 0.2755905511811024,
                    "duration": 0.05514699999997674
                },
                {
                    "name": "C#4",
                    "midi": 61,
                    "time": 268.45559599999814,
                    "velocity": 0.2755905511811024,
                    "duration": 0.05514699999997674
                },
                {
                    "name": "G#3",
                    "midi": 56,
                    "time": 268.5658899999981,
                    "velocity": 0.2755905511811024,
                    "duration": 0.05514699999997674
                },
                {
                    "name": "C#3",
                    "midi": 49,
                    "time": 268.67618399999805,
                    "velocity": 0.31496062992125984,
                    "duration": 0.05514699999997674
                },
                {
                    "name": "G#3",
                    "midi": 56,
                    "time": 268.786477999998,
                    "velocity": 0.28346456692913385,
                    "duration": 0.05514699999997674
                },
                {
                    "name": "F#4",
                    "midi": 66,
                    "time": 268.89677199999795,
                    "velocity": 0.28346456692913385,
                    "duration": 0.05514699999997674
                },
                {
                    "name": "C4",
                    "midi": 60,
                    "time": 268.89677199999795,
                    "velocity": 0.28346456692913385,
                    "duration": 0.05514699999997674
                },
                {
                    "name": "G#3",
                    "midi": 56,
                    "time": 269.0070659999979,
                    "velocity": 0.29133858267716534,
                    "duration": 0.05514699999997674
                },
                {
                    "name": "C#3",
                    "midi": 49,
                    "time": 269.11735999999786,
                    "velocity": 0.31496062992125984,
                    "duration": 0.05514699999997674
                },
                {
                    "name": "G#3",
                    "midi": 56,
                    "time": 269.2276539999978,
                    "velocity": 0.2755905511811024,
                    "duration": 0.05514699999997674
                },
                {
                    "name": "F4",
                    "midi": 65,
                    "time": 269.33794799999777,
                    "velocity": 0.2755905511811024,
                    "duration": 0.05514699999997674
                },
                {
                    "name": "C#4",
                    "midi": 61,
                    "time": 269.33794799999777,
                    "velocity": 0.2755905511811024,
                    "duration": 0.05514699999997674
                },
                {
                    "name": "G#3",
                    "midi": 56,
                    "time": 269.4482419999977,
                    "velocity": 0.2755905511811024,
                    "duration": 0.05514699999997674
                },
                {
                    "name": "C#3",
                    "midi": 49,
                    "time": 269.55945511666437,
                    "velocity": 0.31496062992125984,
                    "duration": 0.05514699999997674
                },
                {
                    "name": "G#3",
                    "midi": 56,
                    "time": 269.6688299999977,
                    "velocity": 0.28346456692913385,
                    "duration": 0.05514699999997674
                },
                {
                    "name": "F#4",
                    "midi": 66,
                    "time": 269.77912399999764,
                    "velocity": 0.28346456692913385,
                    "duration": 0.05514699999997674
                },
                {
                    "name": "C4",
                    "midi": 60,
                    "time": 269.77912399999764,
                    "velocity": 0.28346456692913385,
                    "duration": 0.05514699999997674
                },
                {
                    "name": "G#3",
                    "midi": 56,
                    "time": 269.8894179999976,
                    "velocity": 0.29133858267716534,
                    "duration": 0.05514699999997674
                },
                {
                    "name": "C#3",
                    "midi": 49,
                    "time": 270.00063111666424,
                    "velocity": 0.31496062992125984,
                    "duration": 0.05514699999997674
                },
                {
                    "name": "G#3",
                    "midi": 56,
                    "time": 270.1109251166642,
                    "velocity": 0.2755905511811024,
                    "duration": 0.05514699999997674
                },
                {
                    "name": "F4",
                    "midi": 65,
                    "time": 270.22121911666414,
                    "velocity": 0.2755905511811024,
                    "duration": 0.05514699999997674
                },
                {
                    "name": "C#4",
                    "midi": 61,
                    "time": 270.22121911666414,
                    "velocity": 0.2755905511811024,
                    "duration": 0.05514699999997674
                },
                {
                    "name": "G#3",
                    "midi": 56,
                    "time": 270.3315131166641,
                    "velocity": 0.2755905511811024,
                    "duration": 0.05514699999997674
                },
                {
                    "name": "C#3",
                    "midi": 49,
                    "time": 270.44180711666405,
                    "velocity": 0.31496062992125984,
                    "duration": 0.05514699999997674
                },
                {
                    "name": "G#3",
                    "midi": 56,
                    "time": 270.552101116664,
                    "velocity": 0.28346456692913385,
                    "duration": 0.05514699999997674
                },
                {
                    "name": "F#4",
                    "midi": 66,
                    "time": 270.66239511666396,
                    "velocity": 0.28346456692913385,
                    "duration": 0.05514699999997674
                },
                {
                    "name": "C4",
                    "midi": 60,
                    "time": 270.66239511666396,
                    "velocity": 0.28346456692913385,
                    "duration": 0.05514699999997674
                },
                {
                    "name": "G#3",
                    "midi": 56,
                    "time": 270.7726891166639,
                    "velocity": 0.29133858267716534,
                    "duration": 0.05514699999997674
                },
                {
                    "name": "C#3",
                    "midi": 49,
                    "time": 270.88298311666387,
                    "velocity": 0.31496062992125984,
                    "duration": 0.05514699999997674
                },
                {
                    "name": "G#3",
                    "midi": 56,
                    "time": 270.9932771166638,
                    "velocity": 0.2755905511811024,
                    "duration": 0.05514699999997674
                },
                {
                    "name": "F4",
                    "midi": 65,
                    "time": 271.1035711166638,
                    "velocity": 0.2755905511811024,
                    "duration": 0.05514699999997674
                },
                {
                    "name": "C#4",
                    "midi": 61,
                    "time": 271.1035711166638,
                    "velocity": 0.2755905511811024,
                    "duration": 0.05514699999997674
                },
                {
                    "name": "G#3",
                    "midi": 56,
                    "time": 271.2129459999971,
                    "velocity": 0.2755905511811024,
                    "duration": 0.05514699999997674
                },
                {
                    "name": "C#3",
                    "midi": 49,
                    "time": 271.32415911666374,
                    "velocity": 0.33070866141732286,
                    "duration": 0.05514699999997674
                },
                {
                    "name": "G#3",
                    "midi": 56,
                    "time": 271.4344531166637,
                    "velocity": 0.29133858267716534,
                    "duration": 0.05514699999997674
                },
                {
                    "name": "F#4",
                    "midi": 66,
                    "time": 271.54474711666364,
                    "velocity": 0.29133858267716534,
                    "duration": 0.05514699999997674
                },
                {
                    "name": "C4",
                    "midi": 60,
                    "time": 271.54474711666364,
                    "velocity": 0.29133858267716534,
                    "duration": 0.05514699999997674
                },
                {
                    "name": "G#3",
                    "midi": 56,
                    "time": 271.6550411166636,
                    "velocity": 0.2992125984251969,
                    "duration": 0.05514699999997674
                },
                {
                    "name": "C#3",
                    "midi": 49,
                    "time": 271.76533511666355,
                    "velocity": 0.33070866141732286,
                    "duration": 0.05514699999997674
                },
                {
                    "name": "G#3",
                    "midi": 56,
                    "time": 271.8756291166635,
                    "velocity": 0.28346456692913385,
                    "duration": 0.05514699999997674
                },
                {
                    "name": "F4",
                    "midi": 65,
                    "time": 271.98592311666346,
                    "velocity": 0.28346456692913385,
                    "duration": 0.05514699999997674
                },
                {
                    "name": "C#4",
                    "midi": 61,
                    "time": 271.98592311666346,
                    "velocity": 0.28346456692913385,
                    "duration": 0.05514699999997674
                },
                {
                    "name": "G#3",
                    "midi": 56,
                    "time": 272.0962171166634,
                    "velocity": 0.28346456692913385,
                    "duration": 0.05514699999997674
                },
                {
                    "name": "C#3",
                    "midi": 49,
                    "time": 272.2055919999967,
                    "velocity": 0.33070866141732286,
                    "duration": 0.05514699999997674
                },
                {
                    "name": "G#3",
                    "midi": 56,
                    "time": 272.3158859999967,
                    "velocity": 0.29133858267716534,
                    "duration": 0.05514699999997674
                },
                {
                    "name": "F#4",
                    "midi": 66,
                    "time": 272.42617999999663,
                    "velocity": 0.29133858267716534,
                    "duration": 0.05514699999997674
                },
                {
                    "name": "C4",
                    "midi": 60,
                    "time": 272.42617999999663,
                    "velocity": 0.29133858267716534,
                    "duration": 0.05514699999997674
                },
                {
                    "name": "G#3",
                    "midi": 56,
                    "time": 272.5364739999966,
                    "velocity": 0.2992125984251969,
                    "duration": 0.05514699999997674
                },
                {
                    "name": "C#3",
                    "midi": 49,
                    "time": 272.64768711666323,
                    "velocity": 0.33070866141732286,
                    "duration": 0.05514699999997674
                },
                {
                    "name": "G#3",
                    "midi": 56,
                    "time": 272.7579811166632,
                    "velocity": 0.28346456692913385,
                    "duration": 0.05514699999997674
                },
                {
                    "name": "F4",
                    "midi": 65,
                    "time": 272.86827511666314,
                    "velocity": 0.28346456692913385,
                    "duration": 0.05514699999997674
                },
                {
                    "name": "C#4",
                    "midi": 61,
                    "time": 272.86827511666314,
                    "velocity": 0.28346456692913385,
                    "duration": 0.05514699999997674
                },
                {
                    "name": "G#3",
                    "midi": 56,
                    "time": 272.9785691166631,
                    "velocity": 0.28346456692913385,
                    "duration": 0.05514699999997674
                },
                {
                    "name": "C#3",
                    "midi": 49,
                    "time": 273.0879439999964,
                    "velocity": 0.33070866141732286,
                    "duration": 0.05514699999997674
                },
                {
                    "name": "G#3",
                    "midi": 56,
                    "time": 273.19823799999637,
                    "velocity": 0.29133858267716534,
                    "duration": 0.05514699999997674
                },
                {
                    "name": "F#4",
                    "midi": 66,
                    "time": 273.3085319999963,
                    "velocity": 0.29133858267716534,
                    "duration": 0.05514699999997674
                },
                {
                    "name": "C4",
                    "midi": 60,
                    "time": 273.3085319999963,
                    "velocity": 0.29133858267716534,
                    "duration": 0.05514699999997674
                },
                {
                    "name": "G#3",
                    "midi": 56,
                    "time": 273.4188259999963,
                    "velocity": 0.2992125984251969,
                    "duration": 0.05514699999997674
                },
                {
                    "name": "C#3",
                    "midi": 49,
                    "time": 273.5300391166629,
                    "velocity": 0.33070866141732286,
                    "duration": 0.05514699999997674
                },
                {
                    "name": "G#3",
                    "midi": 56,
                    "time": 273.6403331166629,
                    "velocity": 0.28346456692913385,
                    "duration": 0.05514699999997674
                },
                {
                    "name": "F4",
                    "midi": 65,
                    "time": 273.7506271166628,
                    "velocity": 0.28346456692913385,
                    "duration": 0.05514699999997674
                },
                {
                    "name": "C#4",
                    "midi": 61,
                    "time": 273.7506271166628,
                    "velocity": 0.28346456692913385,
                    "duration": 0.05514699999997674
                },
                {
                    "name": "G#3",
                    "midi": 56,
                    "time": 273.8609211166628,
                    "velocity": 0.28346456692913385,
                    "duration": 0.05514699999997674
                },
                {
                    "name": "C#3",
                    "midi": 49,
                    "time": 273.9702959999961,
                    "velocity": 0.33070866141732286,
                    "duration": 0.05514699999997674
                },
                {
                    "name": "G#3",
                    "midi": 56,
                    "time": 274.08058999999605,
                    "velocity": 0.29133858267716534,
                    "duration": 0.05514699999997674
                },
                {
                    "name": "F#4",
                    "midi": 66,
                    "time": 274.190883999996,
                    "velocity": 0.29133858267716534,
                    "duration": 0.05514699999997674
                },
                {
                    "name": "C4",
                    "midi": 60,
                    "time": 274.190883999996,
                    "velocity": 0.29133858267716534,
                    "duration": 0.05514699999997674
                },
                {
                    "name": "G#3",
                    "midi": 56,
                    "time": 274.30117799999596,
                    "velocity": 0.2992125984251969,
                    "duration": 0.05514699999997674
                },
                {
                    "name": "C#3",
                    "midi": 49,
                    "time": 274.4123911166626,
                    "velocity": 0.33858267716535434,
                    "duration": 0.05514699999997674
                },
                {
                    "name": "G#3",
                    "midi": 56,
                    "time": 274.52268511666256,
                    "velocity": 0.29133858267716534,
                    "duration": 0.05514699999997674
                },
                {
                    "name": "F4",
                    "midi": 65,
                    "time": 274.6329791166625,
                    "velocity": 0.29133858267716534,
                    "duration": 0.05514699999997674
                },
                {
                    "name": "C#4",
                    "midi": 61,
                    "time": 274.6329791166625,
                    "velocity": 0.29133858267716534,
                    "duration": 0.05514699999997674
                },
                {
                    "name": "G#3",
                    "midi": 56,
                    "time": 274.74327311666246,
                    "velocity": 0.2992125984251969,
                    "duration": 0.05514699999997674
                },
                {
                    "name": "C#3",
                    "midi": 49,
                    "time": 274.8526479999958,
                    "velocity": 0.3464566929133858,
                    "duration": 0.05514699999997674
                },
                {
                    "name": "G#3",
                    "midi": 56,
                    "time": 274.96294199999573,
                    "velocity": 0.30708661417322836,
                    "duration": 0.05514699999997674
                },
                {
                    "name": "F#4",
                    "midi": 66,
                    "time": 275.0732359999957,
                    "velocity": 0.31496062992125984,
                    "duration": 0.05514699999997674
                },
                {
                    "name": "C4",
                    "midi": 60,
                    "time": 275.0732359999957,
                    "velocity": 0.31496062992125984,
                    "duration": 0.05514699999997674
                },
                {
                    "name": "G#3",
                    "midi": 56,
                    "time": 275.18352999999564,
                    "velocity": 0.3228346456692913,
                    "duration": 0.05514699999997674
                },
                {
                    "name": "C#3",
                    "midi": 49,
                    "time": 275.26625049999564,
                    "velocity": 0.3228346456692913,
                    "duration": 0.24816150000003745
                },
                {
                    "name": "F4",
                    "midi": 65,
                    "time": 275.29382399999565,
                    "velocity": 0.4251968503937008,
                    "duration": 0.22058800000002066
                },
                {
                    "name": "G#5",
                    "midi": 80,
                    "time": 275.5144119999957,
                    "velocity": 0.47244094488188976,
                    "duration": 0.2757349999999974
                },
                {
                    "name": "F5",
                    "midi": 77,
                    "time": 275.5144119999957,
                    "velocity": 0.47244094488188976,
                    "duration": 0.2757349999999974
                },
                {
                    "name": "C#6",
                    "midi": 85,
                    "time": 275.84529399999565,
                    "velocity": 0.4330708661417323,
                    "duration": 0.05514699999997674
                },
                {
                    "name": "A#5",
                    "midi": 82,
                    "time": 275.84529399999565,
                    "velocity": 0.4330708661417323,
                    "duration": 0.05514699999997674
                },
                {
                    "name": "C6",
                    "midi": 84,
                    "time": 275.9555879999956,
                    "velocity": 0.4330708661417323,
                    "duration": 0.05514699999997674
                },
                {
                    "name": "G#5",
                    "midi": 80,
                    "time": 275.9555879999956,
                    "velocity": 0.4330708661417323,
                    "duration": 0.05514699999997674
                },
                {
                    "name": "A#5",
                    "midi": 82,
                    "time": 276.06588199999555,
                    "velocity": 0.4330708661417323,
                    "duration": 0.05514699999997674
                },
                {
                    "name": "F#5",
                    "midi": 78,
                    "time": 276.06588199999555,
                    "velocity": 0.4330708661417323,
                    "duration": 0.05514699999997674
                },
                {
                    "name": "F5",
                    "midi": 77,
                    "time": 276.1761759999955,
                    "velocity": 0.47244094488188976,
                    "duration": 0.11029400000001033
                },
                {
                    "name": "G#5",
                    "midi": 80,
                    "time": 276.1761759999955,
                    "velocity": 0.47244094488188976,
                    "duration": 0.11029400000001033
                },
                {
                    "name": "A#5",
                    "midi": 82,
                    "time": 276.50705799999554,
                    "velocity": 0.4015748031496063,
                    "duration": 0.03676466666667011
                },
                {
                    "name": "F#5",
                    "midi": 78,
                    "time": 276.50705799999554,
                    "velocity": 0.4015748031496063,
                    "duration": 0.11029400000001033
                },
                {
                    "name": "C6",
                    "midi": 84,
                    "time": 276.5438226666622,
                    "velocity": 0.4015748031496063,
                    "duration": 0.03676466666667011
                },
                {
                    "name": "A#5",
                    "midi": 82,
                    "time": 276.5805873333289,
                    "velocity": 0.4015748031496063,
                    "duration": 0.03676466666667011
                },
                {
                    "name": "G#5",
                    "midi": 80,
                    "time": 276.61735199999555,
                    "velocity": 0.47244094488188976,
                    "duration": 0.05514699999997674
                },
                {
                    "name": "F5",
                    "midi": 77,
                    "time": 276.61735199999555,
                    "velocity": 0.47244094488188976,
                    "duration": 0.05514699999997674
                },
                {
                    "name": "F#5",
                    "midi": 78,
                    "time": 276.7276459999955,
                    "velocity": 0.4251968503937008,
                    "duration": 0.05514699999997674
                },
                {
                    "name": "D#5",
                    "midi": 75,
                    "time": 276.7276459999955,
                    "velocity": 0.4251968503937008,
                    "duration": 0.05514699999997674
                },
                {
                    "name": "F5",
                    "midi": 77,
                    "time": 276.83793999999546,
                    "velocity": 0.4251968503937008,
                    "duration": 0.05514699999997674
                },
                {
                    "name": "C#5",
                    "midi": 73,
                    "time": 276.83793999999546,
                    "velocity": 0.4251968503937008,
                    "duration": 0.05514699999997674
                },
                {
                    "name": "G#4",
                    "midi": 68,
                    "time": 276.9482339999954,
                    "velocity": 0.4251968503937008,
                    "duration": 0.05514699999997674
                },
                {
                    "name": "D#5",
                    "midi": 75,
                    "time": 276.9482339999954,
                    "velocity": 0.4251968503937008,
                    "duration": 0.05514699999997674
                },
                {
                    "name": "F4",
                    "midi": 65,
                    "time": 277.05852799999536,
                    "velocity": 0.4251968503937008,
                    "duration": 0.11029400000001033
                },
                {
                    "name": "C#5",
                    "midi": 73,
                    "time": 277.05852799999536,
                    "velocity": 0.4251968503937008,
                    "duration": 0.11029400000001033
                },
                {
                    "name": "G#4",
                    "midi": 68,
                    "time": 277.2791159999954,
                    "velocity": 0.47244094488188976,
                    "duration": 0.2757349999999974
                },
                {
                    "name": "F4",
                    "midi": 65,
                    "time": 277.2791159999954,
                    "velocity": 0.47244094488188976,
                    "duration": 0.2757349999999974
                },
                {
                    "name": "C#5",
                    "midi": 73,
                    "time": 277.60999799999536,
                    "velocity": 0.4330708661417323,
                    "duration": 0.05514699999997674
                },
                {
                    "name": "A#4",
                    "midi": 70,
                    "time": 277.60999799999536,
                    "velocity": 0.4330708661417323,
                    "duration": 0.05514699999997674
                },
                {
                    "name": "C5",
                    "midi": 72,
                    "time": 277.7202919999953,
                    "velocity": 0.4330708661417323,
                    "duration": 0.05514699999997674
                },
                {
                    "name": "G#4",
                    "midi": 68,
                    "time": 277.7202919999953,
                    "velocity": 0.4330708661417323,
                    "duration": 0.05514699999997674
                },
                {
                    "name": "A#4",
                    "midi": 70,
                    "time": 277.83058599999526,
                    "velocity": 0.4330708661417323,
                    "duration": 0.05514699999997674
                },
                {
                    "name": "F#4",
                    "midi": 66,
                    "time": 277.83058599999526,
                    "velocity": 0.4330708661417323,
                    "duration": 0.05514699999997674
                },
                {
                    "name": "F4",
                    "midi": 65,
                    "time": 277.9408799999952,
                    "velocity": 0.47244094488188976,
                    "duration": 0.11029400000001033
                },
                {
                    "name": "G#4",
                    "midi": 68,
                    "time": 277.9408799999952,
                    "velocity": 0.47244094488188976,
                    "duration": 0.11029400000001033
                },
                {
                    "name": "F4",
                    "midi": 65,
                    "time": 278.16146799999524,
                    "velocity": 0.47244094488188976,
                    "duration": 0.2757349999999974
                },
                {
                    "name": "G#4",
                    "midi": 68,
                    "time": 278.16146799999524,
                    "velocity": 0.47244094488188976,
                    "duration": 0.2757349999999974
                },
                {
                    "name": "F#4",
                    "midi": 66,
                    "time": 278.4923499999952,
                    "velocity": 0.4251968503937008,
                    "duration": 0.05514699999997674
                },
                {
                    "name": "D#4",
                    "midi": 63,
                    "time": 278.4923499999952,
                    "velocity": 0.4251968503937008,
                    "duration": 0.05514699999997674
                },
                {
                    "name": "F4",
                    "midi": 65,
                    "time": 278.60264399999517,
                    "velocity": 0.4251968503937008,
                    "duration": 0.05514699999997674
                },
                {
                    "name": "C#4",
                    "midi": 61,
                    "time": 278.60264399999517,
                    "velocity": 0.4251968503937008,
                    "duration": 0.05514699999997674
                },
                {
                    "name": "G#3",
                    "midi": 56,
                    "time": 278.7129379999951,
                    "velocity": 0.4251968503937008,
                    "duration": 0.05514699999997674
                },
                {
                    "name": "D#4",
                    "midi": 63,
                    "time": 278.7129379999951,
                    "velocity": 0.4251968503937008,
                    "duration": 0.05514699999997674
                },
                {
                    "name": "F3",
                    "midi": 53,
                    "time": 278.8232319999951,
                    "velocity": 0.4881889763779528,
                    "duration": 0.05514699999997674
                },
                {
                    "name": "C#4",
                    "midi": 61,
                    "time": 278.8232319999951,
                    "velocity": 0.4881889763779528,
                    "duration": 0.05514699999997674
                },
                {
                    "name": "G#3",
                    "midi": 56,
                    "time": 279.26440799999506,
                    "velocity": 0.4566929133858268,
                    "duration": 0.4411759999999276
                },
                {
                    "name": "D#4",
                    "midi": 63,
                    "time": 279.26440799999506,
                    "velocity": 0.4566929133858268,
                    "duration": 0.33088199999997414
                },
                {
                    "name": "F#4",
                    "midi": 66,
                    "time": 279.59528999999503,
                    "velocity": 0.41732283464566927,
                    "duration": 0.05514699999997674
                },
                {
                    "name": "C#4",
                    "midi": 61,
                    "time": 279.705583999995,
                    "velocity": 0.4566929133858268,
                    "duration": 0.22058799999990697
                },
                {
                    "name": "F4",
                    "midi": 65,
                    "time": 279.705583999995,
                    "velocity": 0.48031496062992124,
                    "duration": 0.05514699999997674
                },
                {
                    "name": "G#4",
                    "midi": 68,
                    "time": 279.81587799999494,
                    "velocity": 0.4330708661417323,
                    "duration": 0.05514699999997674
                },
                {
                    "name": "C#4",
                    "midi": 61,
                    "time": 279.9261719999949,
                    "velocity": 0.4330708661417323,
                    "duration": 0.11029400000001033
                },
                {
                    "name": "G#3",
                    "midi": 56,
                    "time": 280.1467599999949,
                    "velocity": 0.4566929133858268,
                    "duration": 0.4411759999999276
                },
                {
                    "name": "D#4",
                    "midi": 63,
                    "time": 280.1467599999949,
                    "velocity": 0.4566929133858268,
                    "duration": 0.33088199999997414
                },
                {
                    "name": "F#4",
                    "midi": 66,
                    "time": 280.4776419999949,
                    "velocity": 0.41732283464566927,
                    "duration": 0.05514699999997674
                },
                {
                    "name": "C#4",
                    "midi": 61,
                    "time": 280.58793599999484,
                    "velocity": 0.4566929133858268,
                    "duration": 0.22058799999990697
                },
                {
                    "name": "F4",
                    "midi": 65,
                    "time": 280.58793599999484,
                    "velocity": 0.48031496062992124,
                    "duration": 0.05514699999997674
                },
                {
                    "name": "G#4",
                    "midi": 68,
                    "time": 280.6982299999948,
                    "velocity": 0.4330708661417323,
                    "duration": 0.05514699999997674
                },
                {
                    "name": "C#4",
                    "midi": 61,
                    "time": 280.80852399999475,
                    "velocity": 0.4330708661417323,
                    "duration": 0.11029400000001033
                },
                {
                    "name": "G#3",
                    "midi": 56,
                    "time": 281.02911199999477,
                    "velocity": 0.49606299212598426,
                    "duration": 0.4411759999999276
                },
                {
                    "name": "D#4",
                    "midi": 63,
                    "time": 281.02911199999477,
                    "velocity": 0.49606299212598426,
                    "duration": 0.33088199999997414
                },
                {
                    "name": "F#4",
                    "midi": 66,
                    "time": 281.35999399999474,
                    "velocity": 0.4566929133858268,
                    "duration": 0.05514699999997674
                },
                {
                    "name": "C#4",
                    "midi": 61,
                    "time": 281.4702879999947,
                    "velocity": 0.49606299212598426,
                    "duration": 0.22058799999990697
                },
                {
                    "name": "F4",
                    "midi": 65,
                    "time": 281.4702879999947,
                    "velocity": 0.5275590551181102,
                    "duration": 0.05514699999997674
                },
                {
                    "name": "G#4",
                    "midi": 68,
                    "time": 281.58058199999465,
                    "velocity": 0.47244094488188976,
                    "duration": 0.05514699999997674
                },
                {
                    "name": "C#4",
                    "midi": 61,
                    "time": 281.6908759999946,
                    "velocity": 0.47244094488188976,
                    "duration": 0.11029400000001033
                },
                {
                    "name": "C3",
                    "midi": 48,
                    "time": 281.9114639999946,
                    "velocity": 0.3937007874015748,
                    "duration": 0.05514699999997674
                },
                {
                    "name": "C#3",
                    "midi": 49,
                    "time": 281.9666109999946,
                    "velocity": 0.4015748031496063,
                    "duration": 0.05514699999997674
                },
                {
                    "name": "D#3",
                    "midi": 51,
                    "time": 282.0217579999946,
                    "velocity": 0.4094488188976378,
                    "duration": 0.05514699999997674
                },
                {
                    "name": "F3",
                    "midi": 53,
                    "time": 282.07690499999455,
                    "velocity": 0.41732283464566927,
                    "duration": 0.05514699999997674
                },
                {
                    "name": "F#3",
                    "midi": 54,
                    "time": 282.13205199999453,
                    "velocity": 0.4251968503937008,
                    "duration": 0.05514699999997674
                },
                {
                    "name": "G#3",
                    "midi": 56,
                    "time": 282.1871989999945,
                    "velocity": 0.4330708661417323,
                    "duration": 0.05514699999997674
                },
                {
                    "name": "A#3",
                    "midi": 58,
                    "time": 282.2423459999945,
                    "velocity": 0.44881889763779526,
                    "duration": 0.05514699999997674
                },
                {
                    "name": "C4",
                    "midi": 60,
                    "time": 282.29749299999446,
                    "velocity": 0.4566929133858268,
                    "duration": 0.05514699999997674
                },
                {
                    "name": "C#4",
                    "midi": 61,
                    "time": 282.35263999999444,
                    "velocity": 0.4645669291338583,
                    "duration": 0.05514699999997674
                },
                {
                    "name": "D#4",
                    "midi": 63,
                    "time": 282.4077869999944,
                    "velocity": 0.47244094488188976,
                    "duration": 0.05514699999997674
                },
                {
                    "name": "F4",
                    "midi": 65,
                    "time": 282.4629339999944,
                    "velocity": 0.48031496062992124,
                    "duration": 0.05514699999997674
                },
                {
                    "name": "F#4",
                    "midi": 66,
                    "time": 282.51808099999437,
                    "velocity": 0.4881889763779528,
                    "duration": 0.05514699999997674
                },
                {
                    "name": "G#4",
                    "midi": 68,
                    "time": 282.57322799999434,
                    "velocity": 0.49606299212598426,
                    "duration": 0.11029400000001033
                },
                {
                    "name": "C4",
                    "midi": 60,
                    "time": 282.79381599999437,
                    "velocity": 0.4409448818897638,
                    "duration": 0.05514699999997674
                },
                {
                    "name": "C#4",
                    "midi": 61,
                    "time": 282.84896299999434,
                    "velocity": 0.44881889763779526,
                    "duration": 0.05514699999997674
                },
                {
                    "name": "D#4",
                    "midi": 63,
                    "time": 282.9041099999943,
                    "velocity": 0.4645669291338583,
                    "duration": 0.05514699999997674
                },
                {
                    "name": "F4",
                    "midi": 65,
                    "time": 282.9592569999943,
                    "velocity": 0.47244094488188976,
                    "duration": 0.05514699999997674
                },
                {
                    "name": "F#4",
                    "midi": 66,
                    "time": 283.0144039999943,
                    "velocity": 0.48031496062992124,
                    "duration": 0.05514699999997674
                },
                {
                    "name": "G#4",
                    "midi": 68,
                    "time": 283.06955099999425,
                    "velocity": 0.49606299212598426,
                    "duration": 0.05514699999997674
                },
                {
                    "name": "A#4",
                    "midi": 70,
                    "time": 283.1246979999942,
                    "velocity": 0.5039370078740157,
                    "duration": 0.05514699999997674
                },
                {
                    "name": "C5",
                    "midi": 72,
                    "time": 283.1798449999942,
                    "velocity": 0.5118110236220472,
                    "duration": 0.05514699999997674
                },
                {
                    "name": "C#5",
                    "midi": 73,
                    "time": 283.2349919999942,
                    "velocity": 0.5275590551181102,
                    "duration": 0.05514699999997674
                },
                {
                    "name": "D#5",
                    "midi": 75,
                    "time": 283.29013899999416,
                    "velocity": 0.5354330708661418,
                    "duration": 0.05514699999997674
                },
                {
                    "name": "F5",
                    "midi": 77,
                    "time": 283.34528599999413,
                    "velocity": 0.5433070866141733,
                    "duration": 0.05514699999997674
                },
                {
                    "name": "F#5",
                    "midi": 78,
                    "time": 283.4004329999941,
                    "velocity": 0.5590551181102362,
                    "duration": 0.05514699999997674
                },
                {
                    "name": "G#5",
                    "midi": 80,
                    "time": 283.4555799999941,
                    "velocity": 0.5669291338582677,
                    "duration": 0.11029400000001033
                },
                {
                    "name": "F3",
                    "midi": 53,
                    "time": 283.6761679999941,
                    "velocity": 0.48031496062992124,
                    "duration": 0.05514699999997674
                },
                {
                    "name": "F#3",
                    "midi": 54,
                    "time": 283.7313149999941,
                    "velocity": 0.4881889763779528,
                    "duration": 0.05514699999997674
                },
                {
                    "name": "G#3",
                    "midi": 56,
                    "time": 283.78646199999406,
                    "velocity": 0.5039370078740157,
                    "duration": 0.05514699999997674
                },
                {
                    "name": "A#3",
                    "midi": 58,
                    "time": 283.84160899999404,
                    "velocity": 0.5118110236220472,
                    "duration": 0.05514699999997674
                },
                {
                    "name": "B3",
                    "midi": 59,
                    "time": 283.896755999994,
                    "velocity": 0.5196850393700787,
                    "duration": 0.05514699999997674
                },
                {
                    "name": "C#4",
                    "midi": 61,
                    "time": 283.951902999994,
                    "velocity": 0.5275590551181102,
                    "duration": 0.05514699999997674
                },
                {
                    "name": "D#4",
                    "midi": 63,
                    "time": 284.00704999999397,
                    "velocity": 0.5433070866141733,
                    "duration": 0.05514699999997674
                },
                {
                    "name": "F4",
                    "midi": 65,
                    "time": 284.06219699999394,
                    "velocity": 0.5511811023622047,
                    "duration": 0.05514699999997674
                },
                {
                    "name": "F#4",
                    "midi": 66,
                    "time": 284.1173439999939,
                    "velocity": 0.5669291338582677,
                    "duration": 0.05514699999997674
                },
                {
                    "name": "G#4",
                    "midi": 68,
                    "time": 284.1724909999939,
                    "velocity": 0.5748031496062992,
                    "duration": 0.05514699999997674
                },
                {
                    "name": "A#4",
                    "midi": 70,
                    "time": 284.2276379999939,
                    "velocity": 0.5826771653543307,
                    "duration": 0.05514699999997674
                },
                {
                    "name": "B4",
                    "midi": 71,
                    "time": 284.28278499999385,
                    "velocity": 0.5984251968503937,
                    "duration": 0.05514699999997674
                },
                {
                    "name": "C#5",
                    "midi": 73,
                    "time": 284.3379319999938,
                    "velocity": 0.6062992125984252,
                    "duration": 0.11029400000001033
                },
                {
                    "name": "F4",
                    "midi": 65,
                    "time": 284.55851999999385,
                    "velocity": 0.5275590551181102,
                    "duration": 0.05514699999997674
                },
                {
                    "name": "F#4",
                    "midi": 66,
                    "time": 284.6136669999938,
                    "velocity": 0.5433070866141733,
                    "duration": 0.05514699999997674
                },
                {
                    "name": "G#4",
                    "midi": 68,
                    "time": 284.6688139999938,
                    "velocity": 0.5511811023622047,
                    "duration": 0.05514699999997674
                },
                {
                    "name": "A#4",
                    "midi": 70,
                    "time": 284.7239609999938,
                    "velocity": 0.5669291338582677,
                    "duration": 0.05514699999997674
                },
                {
                    "name": "B4",
                    "midi": 71,
                    "time": 284.77910799999376,
                    "velocity": 0.5748031496062992,
                    "duration": 0.05514699999997674
                },
                {
                    "name": "C#5",
                    "midi": 73,
                    "time": 284.83425499999373,
                    "velocity": 0.5905511811023622,
                    "duration": 0.05514699999997674
                },
                {
                    "name": "D#5",
                    "midi": 75,
                    "time": 284.8894019999937,
                    "velocity": 0.6062992125984252,
                    "duration": 0.05514699999997674
                },
                {
                    "name": "F5",
                    "midi": 77,
                    "time": 284.9445489999937,
                    "velocity": 0.6141732283464567,
                    "duration": 0.05514699999997674
                },
                {
                    "name": "F#5",
                    "midi": 78,
                    "time": 284.99969599999366,
                    "velocity": 0.6299212598425197,
                    "duration": 0.05514699999997674
                },
                {
                    "name": "G#5",
                    "midi": 80,
                    "time": 285.05484299999364,
                    "velocity": 0.6377952755905512,
                    "duration": 0.05514699999997674
                },
                {
                    "name": "A#5",
                    "midi": 82,
                    "time": 285.1099899999936,
                    "velocity": 0.6535433070866141,
                    "duration": 0.05514699999997674
                },
                {
                    "name": "C6",
                    "midi": 84,
                    "time": 285.1651369999936,
                    "velocity": 0.6692913385826772,
                    "duration": 0.05514699999997674
                },
                {
                    "name": "C#6",
                    "midi": 85,
                    "time": 285.22028399999357,
                    "velocity": 0.6771653543307087,
                    "duration": 0.11029400000001033
                },
                {
                    "name": "C3",
                    "midi": 48,
                    "time": 285.4408719999936,
                    "velocity": 0.6929133858267716,
                    "duration": 0.22058800000002066
                },
                {
                    "name": "C2",
                    "midi": 36,
                    "time": 285.4408719999936,
                    "velocity": 0.5039370078740157,
                    "duration": 0.22058800000002066
                },
                {
                    "name": "G#2",
                    "midi": 44,
                    "time": 285.4408719999936,
                    "velocity": 0.5039370078740157,
                    "duration": 0.22058800000002066
                },
                {
                    "name": "F#2",
                    "midi": 42,
                    "time": 285.4408719999936,
                    "velocity": 0.5039370078740157,
                    "duration": 0.22058800000002066
                },
                {
                    "name": "D#3",
                    "midi": 51,
                    "time": 285.6614599999936,
                    "velocity": 0.6141732283464567,
                    "duration": 0.22058800000002066
                },
                {
                    "name": "D#2",
                    "midi": 39,
                    "time": 285.6614599999936,
                    "velocity": 0.44881889763779526,
                    "duration": 0.22058800000002066
                },
                {
                    "name": "G#2",
                    "midi": 44,
                    "time": 285.6614599999936,
                    "velocity": 0.44881889763779526,
                    "duration": 0.22058800000002066
                },
                {
                    "name": "F#2",
                    "midi": 42,
                    "time": 285.6614599999936,
                    "velocity": 0.44881889763779526,
                    "duration": 0.22058800000002066
                },
                {
                    "name": "D#3",
                    "midi": 51,
                    "time": 285.88204799999363,
                    "velocity": 0.6692913385826772,
                    "duration": 0.22058800000002066
                },
                {
                    "name": "D#2",
                    "midi": 39,
                    "time": 285.88204799999363,
                    "velocity": 0.49606299212598426,
                    "duration": 0.22058800000002066
                },
                {
                    "name": "F2",
                    "midi": 41,
                    "time": 285.88204799999363,
                    "velocity": 0.49606299212598426,
                    "duration": 0.22058800000002066
                },
                {
                    "name": "G#2",
                    "midi": 44,
                    "time": 285.88204799999363,
                    "velocity": 0.49606299212598426,
                    "duration": 0.22058800000002066
                },
                {
                    "name": "C#3",
                    "midi": 49,
                    "time": 286.10263599999365,
                    "velocity": 0.6141732283464567,
                    "duration": 0.22058800000002066
                },
                {
                    "name": "C#2",
                    "midi": 37,
                    "time": 286.10263599999365,
                    "velocity": 0.44881889763779526,
                    "duration": 0.22058800000002066
                },
                {
                    "name": "F2",
                    "midi": 41,
                    "time": 286.10263599999365,
                    "velocity": 0.44881889763779526,
                    "duration": 0.22058800000002066
                },
                {
                    "name": "G#2",
                    "midi": 44,
                    "time": 286.10263599999365,
                    "velocity": 0.44881889763779526,
                    "duration": 0.22058800000002066
                },
                {
                    "name": "F3",
                    "midi": 53,
                    "time": 286.3232239999937,
                    "velocity": 0.6771653543307087,
                    "duration": 0.22058800000002066
                },
                {
                    "name": "F2",
                    "midi": 41,
                    "time": 286.3232239999937,
                    "velocity": 0.5039370078740157,
                    "duration": 0.22058800000002066
                },
                {
                    "name": "B2",
                    "midi": 47,
                    "time": 286.3232239999937,
                    "velocity": 0.5039370078740157,
                    "duration": 0.22058800000002066
                },
                {
                    "name": "C#3",
                    "midi": 49,
                    "time": 286.3232239999937,
                    "velocity": 0.5039370078740157,
                    "duration": 0.22058800000002066
                },
                {
                    "name": "G#3",
                    "midi": 56,
                    "time": 286.5438119999937,
                    "velocity": 0.6141732283464567,
                    "duration": 0.22058800000002066
                },
                {
                    "name": "G#2",
                    "midi": 44,
                    "time": 286.5438119999937,
                    "velocity": 0.44881889763779526,
                    "duration": 0.22058800000002066
                },
                {
                    "name": "B2",
                    "midi": 47,
                    "time": 286.5438119999937,
                    "velocity": 0.44881889763779526,
                    "duration": 0.22058800000002066
                },
                {
                    "name": "C#3",
                    "midi": 49,
                    "time": 286.5438119999937,
                    "velocity": 0.44881889763779526,
                    "duration": 0.22058800000002066
                },
                {
                    "name": "G#3",
                    "midi": 56,
                    "time": 286.7643999999937,
                    "velocity": 0.6771653543307087,
                    "duration": 0.22058800000002066
                },
                {
                    "name": "G#2",
                    "midi": 44,
                    "time": 286.7643999999937,
                    "velocity": 0.5039370078740157,
                    "duration": 0.22058800000002066
                },
                {
                    "name": "A#2",
                    "midi": 46,
                    "time": 286.7643999999937,
                    "velocity": 0.5039370078740157,
                    "duration": 0.22058800000002066
                },
                {
                    "name": "C#3",
                    "midi": 49,
                    "time": 286.7643999999937,
                    "velocity": 0.5039370078740157,
                    "duration": 0.22058800000002066
                },
                {
                    "name": "F#3",
                    "midi": 54,
                    "time": 286.98498799999373,
                    "velocity": 0.6377952755905512,
                    "duration": 0.22058800000002066
                },
                {
                    "name": "F#2",
                    "midi": 42,
                    "time": 286.98498799999373,
                    "velocity": 0.4645669291338583,
                    "duration": 0.22058800000002066
                },
                {
                    "name": "A#2",
                    "midi": 46,
                    "time": 286.98498799999373,
                    "velocity": 0.4645669291338583,
                    "duration": 0.22058800000002066
                },
                {
                    "name": "C#3",
                    "midi": 49,
                    "time": 286.98498799999373,
                    "velocity": 0.4645669291338583,
                    "duration": 0.22058800000002066
                },
                {
                    "name": "F#1",
                    "midi": 30,
                    "time": 287.20557599999375,
                    "velocity": 0.5590551181102362,
                    "duration": 0.22058800000002066
                },
                {
                    "name": "F#2",
                    "midi": 42,
                    "time": 287.20557599999375,
                    "velocity": 0.7716535433070866,
                    "duration": 0.22058800000002066
                },
                {
                    "name": "A#4",
                    "midi": 70,
                    "time": 287.4261639999938,
                    "velocity": 0.7322834645669292,
                    "duration": 0.05514699999997674
                },
                {
                    "name": "A#3",
                    "midi": 58,
                    "time": 287.4261639999938,
                    "velocity": 0.5433070866141733,
                    "duration": 0.05514699999997674
                },
                {
                    "name": "C#4",
                    "midi": 61,
                    "time": 287.4261639999938,
                    "velocity": 0.5433070866141733,
                    "duration": 0.05514699999997674
                },
                {
                    "name": "F#4",
                    "midi": 66,
                    "time": 287.4261639999938,
                    "velocity": 0.5433070866141733,
                    "duration": 0.05514699999997674
                },
                {
                    "name": "A#4",
                    "midi": 70,
                    "time": 287.53645799999373,
                    "velocity": 0.6929133858267716,
                    "duration": 0.05514699999997674
                },
                {
                    "name": "A#3",
                    "midi": 58,
                    "time": 287.53645799999373,
                    "velocity": 0.5196850393700787,
                    "duration": 0.05514699999997674
                },
                {
                    "name": "C#4",
                    "midi": 61,
                    "time": 287.53645799999373,
                    "velocity": 0.5196850393700787,
                    "duration": 0.05514699999997674
                },
                {
                    "name": "F#4",
                    "midi": 66,
                    "time": 287.53645799999373,
                    "velocity": 0.5196850393700787,
                    "duration": 0.05514699999997674
                },
                {
                    "name": "A#4",
                    "midi": 70,
                    "time": 287.6467519999937,
                    "velocity": 0.7480314960629921,
                    "duration": 0.11029400000001033
                },
                {
                    "name": "A#3",
                    "midi": 58,
                    "time": 287.6467519999937,
                    "velocity": 0.5590551181102362,
                    "duration": 0.11029400000001033
                },
                {
                    "name": "C#4",
                    "midi": 61,
                    "time": 287.6467519999937,
                    "velocity": 0.5590551181102362,
                    "duration": 0.11029400000001033
                },
                {
                    "name": "F#4",
                    "midi": 66,
                    "time": 287.6467519999937,
                    "velocity": 0.5590551181102362,
                    "duration": 0.11029400000001033
                },
                {
                    "name": "F#3",
                    "midi": 54,
                    "time": 287.8673399999937,
                    "velocity": 0.6377952755905512,
                    "duration": 0.05514699999997674
                },
                {
                    "name": "F#2",
                    "midi": 42,
                    "time": 287.8673399999937,
                    "velocity": 0.5433070866141733,
                    "duration": 0.05514699999997674
                },
                {
                    "name": "C#3",
                    "midi": 49,
                    "time": 287.8673399999937,
                    "velocity": 0.5433070866141733,
                    "duration": 0.05514699999997674
                },
                {
                    "name": "F3",
                    "midi": 53,
                    "time": 287.97763399999366,
                    "velocity": 0.5748031496062992,
                    "duration": 0.05514699999997674
                },
                {
                    "name": "F2",
                    "midi": 41,
                    "time": 287.97763399999366,
                    "velocity": 0.48031496062992124,
                    "duration": 0.05514699999997674
                },
                {
                    "name": "C#3",
                    "midi": 49,
                    "time": 287.97763399999366,
                    "velocity": 0.48031496062992124,
                    "duration": 0.05514699999997674
                },
                {
                    "name": "F3",
                    "midi": 53,
                    "time": 288.0879279999936,
                    "velocity": 0.6299212598425197,
                    "duration": 0.33088199999997414
                },
                {
                    "name": "F2",
                    "midi": 41,
                    "time": 288.0879279999936,
                    "velocity": 0.5275590551181102,
                    "duration": 0.33088199999997414
                },
                {
                    "name": "C#3",
                    "midi": 49,
                    "time": 288.0879279999936,
                    "velocity": 0.5275590551181102,
                    "duration": 0.33088199999997414
                },
                {
                    "name": "D#2",
                    "midi": 39,
                    "time": 288.5291039999936,
                    "velocity": 0.5354330708661418,
                    "duration": 0.22058800000002066
                },
                {
                    "name": "D#3",
                    "midi": 51,
                    "time": 288.5291039999936,
                    "velocity": 0.7401574803149606,
                    "duration": 0.22058800000002066
                },
                {
                    "name": "F#4",
                    "midi": 66,
                    "time": 288.7496919999936,
                    "velocity": 0.7007874015748031,
                    "duration": 0.05514699999997674
                },
                {
                    "name": "F#3",
                    "midi": 54,
                    "time": 288.7496919999936,
                    "velocity": 0.5196850393700787,
                    "duration": 0.05514699999997674
                },
                {
                    "name": "A#3",
                    "midi": 58,
                    "time": 288.7496919999936,
                    "velocity": 0.5196850393700787,
                    "duration": 0.05514699999997674
                },
                {
                    "name": "D#4",
                    "midi": 63,
                    "time": 288.7496919999936,
                    "velocity": 0.5196850393700787,
                    "duration": 0.05514699999997674
                },
                {
                    "name": "F#4",
                    "midi": 66,
                    "time": 288.85998599999357,
                    "velocity": 0.6614173228346457,
                    "duration": 0.05514699999997674
                },
                {
                    "name": "F#3",
                    "midi": 54,
                    "time": 288.85998599999357,
                    "velocity": 0.49606299212598426,
                    "duration": 0.05514699999997674
                },
                {
                    "name": "A#3",
                    "midi": 58,
                    "time": 288.85998599999357,
                    "velocity": 0.49606299212598426,
                    "duration": 0.05514699999997674
                },
                {
                    "name": "D#4",
                    "midi": 63,
                    "time": 288.85998599999357,
                    "velocity": 0.49606299212598426,
                    "duration": 0.05514699999997674
                },
                {
                    "name": "F#4",
                    "midi": 66,
                    "time": 288.9702799999935,
                    "velocity": 0.7165354330708661,
                    "duration": 0.11029400000001033
                },
                {
                    "name": "F#3",
                    "midi": 54,
                    "time": 288.9702799999935,
                    "velocity": 0.5354330708661418,
                    "duration": 0.11029400000001033
                },
                {
                    "name": "A#3",
                    "midi": 58,
                    "time": 288.9702799999935,
                    "velocity": 0.5354330708661418,
                    "duration": 0.11029400000001033
                },
                {
                    "name": "D#4",
                    "midi": 63,
                    "time": 288.9702799999935,
                    "velocity": 0.5354330708661418,
                    "duration": 0.11029400000001033
                },
                {
                    "name": "F#3",
                    "midi": 54,
                    "time": 289.30116199999355,
                    "velocity": 0.4409448818897638,
                    "duration": 0.11029400000001033
                },
                {
                    "name": "F#2",
                    "midi": 42,
                    "time": 289.30116199999355,
                    "velocity": 0.3700787401574803,
                    "duration": 0.11029400000001033
                },
                {
                    "name": "F#3",
                    "midi": 54,
                    "time": 289.41145599999356,
                    "velocity": 0.4409448818897638,
                    "duration": 0.05514699999997674
                },
                {
                    "name": "B2",
                    "midi": 47,
                    "time": 289.41145599999356,
                    "velocity": 0.3700787401574803,
                    "duration": 0.05514699999997674
                },
                {
                    "name": "G#3",
                    "midi": 56,
                    "time": 289.5217499999935,
                    "velocity": 0.4645669291338583,
                    "duration": 0.05514699999997674
                },
                {
                    "name": "G#2",
                    "midi": 44,
                    "time": 289.5217499999935,
                    "velocity": 0.3937007874015748,
                    "duration": 0.05514699999997674
                },
                {
                    "name": "G#3",
                    "midi": 56,
                    "time": 289.63204399999347,
                    "velocity": 0.49606299212598426,
                    "duration": 0.11029400000001033
                },
                {
                    "name": "C#3",
                    "midi": 49,
                    "time": 289.63204399999347,
                    "velocity": 0.41732283464566927,
                    "duration": 0.11029400000001033
                },
                {
                    "name": "C2",
                    "midi": 36,
                    "time": 289.8526319999935,
                    "velocity": 0.4015748031496063,
                    "duration": 0.05514699999997674
                },
                {
                    "name": "C#2",
                    "midi": 37,
                    "time": 289.90777899999347,
                    "velocity": 0.41732283464566927,
                    "duration": 0.05514699999997674
                },
                {
                    "name": "D#2",
                    "midi": 39,
                    "time": 289.96292599999344,
                    "velocity": 0.4251968503937008,
                    "duration": 0.05514699999997674
                },
                {
                    "name": "F2",
                    "midi": 41,
                    "time": 290.0180729999934,
                    "velocity": 0.4330708661417323,
                    "duration": 0.05514699999997674
                },
                {
                    "name": "F#2",
                    "midi": 42,
                    "time": 290.0732199999934,
                    "velocity": 0.44881889763779526,
                    "duration": 0.05514699999997674
                },
                {
                    "name": "G#2",
                    "midi": 44,
                    "time": 290.1283669999934,
                    "velocity": 0.4566929133858268,
                    "duration": 0.05514699999997674
                },
                {
                    "name": "A#2",
                    "midi": 46,
                    "time": 290.18351399999335,
                    "velocity": 0.4645669291338583,
                    "duration": 0.05514699999997674
                },
                {
                    "name": "B2",
                    "midi": 47,
                    "time": 290.23866099999333,
                    "velocity": 0.47244094488188976,
                    "duration": 0.05514699999997674
                },
                {
                    "name": "C#3",
                    "midi": 49,
                    "time": 290.2938079999933,
                    "velocity": 0.4881889763779528,
                    "duration": 0.05514699999997674
                },
                {
                    "name": "D#3",
                    "midi": 51,
                    "time": 290.3489549999933,
                    "velocity": 0.49606299212598426,
                    "duration": 0.05514699999997674
                },
                {
                    "name": "F3",
                    "midi": 53,
                    "time": 290.40410199999326,
                    "velocity": 0.5118110236220472,
                    "duration": 0.05514699999997674
                },
                {
                    "name": "F#3",
                    "midi": 54,
                    "time": 290.45924899999324,
                    "velocity": 0.5196850393700787,
                    "duration": 0.05514699999997674
                },
                {
                    "name": "G#3",
                    "midi": 56,
                    "time": 290.5143959999932,
                    "velocity": 0.5275590551181102,
                    "duration": 0.11029400000001033
                },
                {
                    "name": "F2",
                    "midi": 41,
                    "time": 290.73498399999323,
                    "velocity": 0.4566929133858268,
                    "duration": 0.05514699999997674
                },
                {
                    "name": "F#2",
                    "midi": 42,
                    "time": 290.7901309999932,
                    "velocity": 0.47244094488188976,
                    "duration": 0.05514699999997674
                },
                {
                    "name": "G#2",
                    "midi": 44,
                    "time": 290.8452779999932,
                    "velocity": 0.48031496062992124,
                    "duration": 0.05514699999997674
                },
                {
                    "name": "A#2",
                    "midi": 46,
                    "time": 290.90042499999316,
                    "velocity": 0.4881889763779528,
                    "duration": 0.05514699999997674
                },
                {
                    "name": "B2",
                    "midi": 47,
                    "time": 290.95557199999314,
                    "velocity": 0.49606299212598426,
                    "duration": 0.05514699999997674
                },
                {
                    "name": "C#3",
                    "midi": 49,
                    "time": 291.0107189999931,
                    "velocity": 0.5118110236220472,
                    "duration": 0.05514699999997674
                },
                {
                    "name": "D#3",
                    "midi": 51,
                    "time": 291.0658659999931,
                    "velocity": 0.5196850393700787,
                    "duration": 0.05514699999997674
                },
                {
                    "name": "F3",
                    "midi": 53,
                    "time": 291.12101299999307,
                    "velocity": 0.5275590551181102,
                    "duration": 0.05514699999997674
                },
                {
                    "name": "F#3",
                    "midi": 54,
                    "time": 291.17615999999305,
                    "velocity": 0.5354330708661418,
                    "duration": 0.05514699999997674
                },
                {
                    "name": "G#3",
                    "midi": 56,
                    "time": 291.231306999993,
                    "velocity": 0.5511811023622047,
                    "duration": 0.05514699999997674
                },
                {
                    "name": "A#3",
                    "midi": 58,
                    "time": 291.286453999993,
                    "velocity": 0.5590551181102362,
                    "duration": 0.05514699999997674
                },
                {
                    "name": "B3",
                    "midi": 59,
                    "time": 291.341600999993,
                    "velocity": 0.5669291338582677,
                    "duration": 0.05514699999997674
                },
                {
                    "name": "C#4",
                    "midi": 61,
                    "time": 291.39674799999295,
                    "velocity": 0.5748031496062992,
                    "duration": 0.11029400000001033
                },
                {
                    "name": "F#1",
                    "midi": 30,
                    "time": 291.617335999993,
                    "velocity": 0.5590551181102362,
                    "duration": 0.22058800000002066
                },
                {
                    "name": "F#2",
                    "midi": 42,
                    "time": 291.617335999993,
                    "velocity": 0.7716535433070866,
                    "duration": 0.22058800000002066
                },
                {
                    "name": "C#4",
                    "midi": 61,
                    "time": 291.837923999993,
                    "velocity": 0.7322834645669292,
                    "duration": 0.05514699999997674
                },
                {
                    "name": "C#3",
                    "midi": 49,
                    "time": 291.837923999993,
                    "velocity": 0.5433070866141733,
                    "duration": 0.05514699999997674
                },
                {
                    "name": "F#3",
                    "midi": 54,
                    "time": 291.837923999993,
                    "velocity": 0.5433070866141733,
                    "duration": 0.05514699999997674
                },
                {
                    "name": "A#3",
                    "midi": 58,
                    "time": 291.837923999993,
                    "velocity": 0.5433070866141733,
                    "duration": 0.05514699999997674
                },
                {
                    "name": "C#4",
                    "midi": 61,
                    "time": 291.94821799999295,
                    "velocity": 0.6929133858267716,
                    "duration": 0.05514699999997674
                },
                {
                    "name": "C#3",
                    "midi": 49,
                    "time": 291.94821799999295,
                    "velocity": 0.5196850393700787,
                    "duration": 0.05514699999997674
                },
                {
                    "name": "F#3",
                    "midi": 54,
                    "time": 291.94821799999295,
                    "velocity": 0.5196850393700787,
                    "duration": 0.05514699999997674
                },
                {
                    "name": "A#3",
                    "midi": 58,
                    "time": 291.94821799999295,
                    "velocity": 0.5196850393700787,
                    "duration": 0.05514699999997674
                },
                {
                    "name": "C#4",
                    "midi": 61,
                    "time": 292.0585119999929,
                    "velocity": 0.7480314960629921,
                    "duration": 0.11029400000001033
                },
                {
                    "name": "C#3",
                    "midi": 49,
                    "time": 292.0585119999929,
                    "velocity": 0.5590551181102362,
                    "duration": 0.11029400000001033
                },
                {
                    "name": "F#3",
                    "midi": 54,
                    "time": 292.0585119999929,
                    "velocity": 0.5590551181102362,
                    "duration": 0.11029400000001033
                },
                {
                    "name": "A#3",
                    "midi": 58,
                    "time": 292.0585119999929,
                    "velocity": 0.5590551181102362,
                    "duration": 0.11029400000001033
                },
                {
                    "name": "F#3",
                    "midi": 54,
                    "time": 292.2790999999929,
                    "velocity": 0.6377952755905512,
                    "duration": 0.05514699999997674
                },
                {
                    "name": "A#2",
                    "midi": 46,
                    "time": 292.2790999999929,
                    "velocity": 0.5433070866141733,
                    "duration": 0.05514699999997674
                },
                {
                    "name": "C#3",
                    "midi": 49,
                    "time": 292.2790999999929,
                    "velocity": 0.5433070866141733,
                    "duration": 0.05514699999997674
                },
                {
                    "name": "F3",
                    "midi": 53,
                    "time": 292.3893939999929,
                    "velocity": 0.5748031496062992,
                    "duration": 0.05514699999997674
                },
                {
                    "name": "A2",
                    "midi": 45,
                    "time": 292.3893939999929,
                    "velocity": 0.48031496062992124,
                    "duration": 0.05514699999997674
                },
                {
                    "name": "C3",
                    "midi": 48,
                    "time": 292.3893939999929,
                    "velocity": 0.48031496062992124,
                    "duration": 0.05514699999997674
                },
                {
                    "name": "F3",
                    "midi": 53,
                    "time": 292.49968799999283,
                    "velocity": 0.6299212598425197,
                    "duration": 0.33088199999997414
                },
                {
                    "name": "A2",
                    "midi": 45,
                    "time": 292.49968799999283,
                    "velocity": 0.5275590551181102,
                    "duration": 0.33088199999997414
                },
                {
                    "name": "C3",
                    "midi": 48,
                    "time": 292.49968799999283,
                    "velocity": 0.5275590551181102,
                    "duration": 0.33088199999997414
                },
                {
                    "name": "D#1",
                    "midi": 27,
                    "time": 292.9408639999928,
                    "velocity": 0.5984251968503937,
                    "duration": 0.22058800000002066
                },
                {
                    "name": "D#2",
                    "midi": 39,
                    "time": 292.9408639999928,
                    "velocity": 0.7401574803149606,
                    "duration": 0.22058800000002066
                },
                {
                    "name": "A#3",
                    "midi": 58,
                    "time": 293.16145199999283,
                    "velocity": 0.7007874015748031,
                    "duration": 0.05514699999997674
                },
                {
                    "name": "A#2",
                    "midi": 46,
                    "time": 293.16145199999283,
                    "velocity": 0.5196850393700787,
                    "duration": 0.05514699999997674
                },
                {
                    "name": "D#3",
                    "midi": 51,
                    "time": 293.16145199999283,
                    "velocity": 0.5196850393700787,
                    "duration": 0.05514699999997674
                },
                {
                    "name": "F#3",
                    "midi": 54,
                    "time": 293.16145199999283,
                    "velocity": 0.5196850393700787,
                    "duration": 0.05514699999997674
                },
                {
                    "name": "A#3",
                    "midi": 58,
                    "time": 293.2717459999928,
                    "velocity": 0.6614173228346457,
                    "duration": 0.05514699999997674
                },
                {
                    "name": "A#2",
                    "midi": 46,
                    "time": 293.2717459999928,
                    "velocity": 0.49606299212598426,
                    "duration": 0.05514699999997674
                },
                {
                    "name": "D#3",
                    "midi": 51,
                    "time": 293.2717459999928,
                    "velocity": 0.49606299212598426,
                    "duration": 0.05514699999997674
                },
                {
                    "name": "F#3",
                    "midi": 54,
                    "time": 293.2717459999928,
                    "velocity": 0.49606299212598426,
                    "duration": 0.05514699999997674
                },
                {
                    "name": "A#3",
                    "midi": 58,
                    "time": 293.38203999999274,
                    "velocity": 0.7165354330708661,
                    "duration": 0.11029400000001033
                },
                {
                    "name": "A#2",
                    "midi": 46,
                    "time": 293.38203999999274,
                    "velocity": 0.5354330708661418,
                    "duration": 0.11029400000001033
                },
                {
                    "name": "D#3",
                    "midi": 51,
                    "time": 293.38203999999274,
                    "velocity": 0.5354330708661418,
                    "duration": 0.11029400000001033
                },
                {
                    "name": "F#3",
                    "midi": 54,
                    "time": 293.38203999999274,
                    "velocity": 0.5354330708661418,
                    "duration": 0.11029400000001033
                },
                {
                    "name": "F#2",
                    "midi": 42,
                    "time": 293.93350999999274,
                    "velocity": 0.3779527559055118,
                    "duration": 0.05514699999997674
                },
                {
                    "name": "F#1",
                    "midi": 30,
                    "time": 293.93350999999274,
                    "velocity": 0.31496062992125984,
                    "duration": 0.05514699999997674
                },
                {
                    "name": "B2",
                    "midi": 47,
                    "time": 294.0438039999927,
                    "velocity": 0.4015748031496063,
                    "duration": 0.05514699999997674
                },
                {
                    "name": "B1",
                    "midi": 35,
                    "time": 294.0438039999927,
                    "velocity": 0.33858267716535434,
                    "duration": 0.05514699999997674
                },
                {
                    "name": "G#2",
                    "midi": 44,
                    "time": 294.15409799999264,
                    "velocity": 0.4251968503937008,
                    "duration": 0.05514699999997674
                },
                {
                    "name": "G#1",
                    "midi": 32,
                    "time": 294.15409799999264,
                    "velocity": 0.3543307086614173,
                    "duration": 0.05514699999997674
                },
                {
                    "name": "C#3",
                    "midi": 49,
                    "time": 294.2643919999926,
                    "velocity": 0.4409448818897638,
                    "duration": 0.05514699999997674
                },
                {
                    "name": "C#2",
                    "midi": 37,
                    "time": 294.2643919999926,
                    "velocity": 0.3700787401574803,
                    "duration": 0.05514699999997674
                },
                {
                    "name": "F#2",
                    "midi": 42,
                    "time": 294.37468599999255,
                    "velocity": 0.4094488188976378,
                    "duration": 0.05514699999997674
                },
                {
                    "name": "F#1",
                    "midi": 30,
                    "time": 294.37468599999255,
                    "velocity": 0.3464566929133858,
                    "duration": 0.05514699999997674
                },
                {
                    "name": "B2",
                    "midi": 47,
                    "time": 294.4849799999925,
                    "velocity": 0.4330708661417323,
                    "duration": 0.05514699999997674
                },
                {
                    "name": "B1",
                    "midi": 35,
                    "time": 294.4849799999925,
                    "velocity": 0.36220472440944884,
                    "duration": 0.05514699999997674
                },
                {
                    "name": "G#2",
                    "midi": 44,
                    "time": 294.59527399999246,
                    "velocity": 0.4566929133858268,
                    "duration": 0.05514699999997674
                },
                {
                    "name": "G#1",
                    "midi": 32,
                    "time": 294.59527399999246,
                    "velocity": 0.3858267716535433,
                    "duration": 0.05514699999997674
                },
                {
                    "name": "C#3",
                    "midi": 49,
                    "time": 294.7055679999924,
                    "velocity": 0.48031496062992124,
                    "duration": 0.05514699999997674
                },
                {
                    "name": "C#2",
                    "midi": 37,
                    "time": 294.7055679999924,
                    "velocity": 0.4015748031496063,
                    "duration": 0.05514699999997674
                },
                {
                    "name": "F#2",
                    "midi": 42,
                    "time": 294.81586199999236,
                    "velocity": 0.4094488188976378,
                    "duration": 0.05514699999997674
                },
                {
                    "name": "F#1",
                    "midi": 30,
                    "time": 294.81586199999236,
                    "velocity": 0.3464566929133858,
                    "duration": 0.05514699999997674
                },
                {
                    "name": "B2",
                    "midi": 47,
                    "time": 294.9261559999923,
                    "velocity": 0.4409448818897638,
                    "duration": 0.05514699999997674
                },
                {
                    "name": "B1",
                    "midi": 35,
                    "time": 294.9261559999923,
                    "velocity": 0.3700787401574803,
                    "duration": 0.05514699999997674
                },
                {
                    "name": "G#2",
                    "midi": 44,
                    "time": 295.03644999999227,
                    "velocity": 0.4645669291338583,
                    "duration": 0.05514699999997674
                },
                {
                    "name": "G#1",
                    "midi": 32,
                    "time": 295.03644999999227,
                    "velocity": 0.3858267716535433,
                    "duration": 0.05514699999997674
                },
                {
                    "name": "C#3",
                    "midi": 49,
                    "time": 295.1467439999922,
                    "velocity": 0.48031496062992124,
                    "duration": 0.05514699999997674
                },
                {
                    "name": "C#2",
                    "midi": 37,
                    "time": 295.1467439999922,
                    "velocity": 0.4015748031496063,
                    "duration": 0.05514699999997674
                },
                {
                    "name": "F#2",
                    "midi": 42,
                    "time": 295.2570379999922,
                    "velocity": 0.44881889763779526,
                    "duration": 0.05514699999997674
                },
                {
                    "name": "F#1",
                    "midi": 30,
                    "time": 295.2570379999922,
                    "velocity": 0.3779527559055118,
                    "duration": 0.05514699999997674
                },
                {
                    "name": "B2",
                    "midi": 47,
                    "time": 295.36733199999213,
                    "velocity": 0.47244094488188976,
                    "duration": 0.05514699999997674
                },
                {
                    "name": "B1",
                    "midi": 35,
                    "time": 295.36733199999213,
                    "velocity": 0.3937007874015748,
                    "duration": 0.05514699999997674
                },
                {
                    "name": "G#2",
                    "midi": 44,
                    "time": 295.4776259999921,
                    "velocity": 0.49606299212598426,
                    "duration": 0.05514699999997674
                },
                {
                    "name": "G#1",
                    "midi": 32,
                    "time": 295.4776259999921,
                    "velocity": 0.41732283464566927,
                    "duration": 0.05514699999997674
                },
                {
                    "name": "C#3",
                    "midi": 49,
                    "time": 295.58791999999204,
                    "velocity": 0.5433070866141733,
                    "duration": 0.05514699999997674
                },
                {
                    "name": "C#2",
                    "midi": 37,
                    "time": 295.58791999999204,
                    "velocity": 0.5433070866141733,
                    "duration": 0.05514699999997674
                },
                {
                    "name": "F#2",
                    "midi": 42,
                    "time": 295.698213999992,
                    "velocity": 0.5118110236220472,
                    "duration": 0.05514699999997674
                },
                {
                    "name": "F#1",
                    "midi": 30,
                    "time": 295.698213999992,
                    "velocity": 0.4330708661417323,
                    "duration": 0.05514699999997674
                },
                {
                    "name": "B2",
                    "midi": 47,
                    "time": 295.80850799999195,
                    "velocity": 0.5118110236220472,
                    "duration": 0.05514699999997674
                },
                {
                    "name": "B1",
                    "midi": 35,
                    "time": 295.80850799999195,
                    "velocity": 0.4330708661417323,
                    "duration": 0.05514699999997674
                },
                {
                    "name": "G#2",
                    "midi": 44,
                    "time": 295.9188019999919,
                    "velocity": 0.5118110236220472,
                    "duration": 0.05514699999997674
                },
                {
                    "name": "G#1",
                    "midi": 32,
                    "time": 295.9188019999919,
                    "velocity": 0.4330708661417323,
                    "duration": 0.05514699999997674
                },
                {
                    "name": "C#3",
                    "midi": 49,
                    "time": 296.02909599999185,
                    "velocity": 0.5511811023622047,
                    "duration": 0.05514699999997674
                },
                {
                    "name": "C#2",
                    "midi": 37,
                    "time": 296.02909599999185,
                    "velocity": 0.4645669291338583,
                    "duration": 0.05514699999997674
                },
                {
                    "name": "G#2",
                    "midi": 44,
                    "time": 296.1393899999918,
                    "velocity": 0.49606299212598426,
                    "duration": 0.05514699999997674
                },
                {
                    "name": "G#1",
                    "midi": 32,
                    "time": 296.1393899999918,
                    "velocity": 0.41732283464566927,
                    "duration": 0.05514699999997674
                },
                {
                    "name": "C#3",
                    "midi": 49,
                    "time": 296.24968399999176,
                    "velocity": 0.49606299212598426,
                    "duration": 0.05514699999997674
                },
                {
                    "name": "C#2",
                    "midi": 37,
                    "time": 296.24968399999176,
                    "velocity": 0.41732283464566927,
                    "duration": 0.05514699999997674
                },
                {
                    "name": "G#2",
                    "midi": 44,
                    "time": 296.3599779999917,
                    "velocity": 0.49606299212598426,
                    "duration": 0.05514699999997674
                },
                {
                    "name": "G#1",
                    "midi": 32,
                    "time": 296.3599779999917,
                    "velocity": 0.41732283464566927,
                    "duration": 0.05514699999997674
                },
                {
                    "name": "C#3",
                    "midi": 49,
                    "time": 296.47027199999167,
                    "velocity": 0.5669291338582677,
                    "duration": 0.05514699999997674
                },
                {
                    "name": "C#2",
                    "midi": 37,
                    "time": 296.47027199999167,
                    "velocity": 0.48031496062992124,
                    "duration": 0.05514699999997674
                },
                {
                    "name": "G#2",
                    "midi": 44,
                    "time": 296.5805659999916,
                    "velocity": 0.5433070866141733,
                    "duration": 0.05514699999997674
                },
                {
                    "name": "G#1",
                    "midi": 32,
                    "time": 296.5805659999916,
                    "velocity": 0.4566929133858268,
                    "duration": 0.05514699999997674
                },
                {
                    "name": "C#3",
                    "midi": 49,
                    "time": 296.6908599999916,
                    "velocity": 0.5590551181102362,
                    "duration": 0.05514699999997674
                },
                {
                    "name": "C#2",
                    "midi": 37,
                    "time": 296.6908599999916,
                    "velocity": 0.4645669291338583,
                    "duration": 0.05514699999997674
                },
                {
                    "name": "G#2",
                    "midi": 44,
                    "time": 296.8011539999915,
                    "velocity": 0.5669291338582677,
                    "duration": 0.05514699999997674
                },
                {
                    "name": "G#1",
                    "midi": 32,
                    "time": 296.8011539999915,
                    "velocity": 0.47244094488188976,
                    "duration": 0.05514699999997674
                },
                {
                    "name": "C#3",
                    "midi": 49,
                    "time": 296.9114479999915,
                    "velocity": 0.6141732283464567,
                    "duration": 0.05514699999997674
                },
                {
                    "name": "C#2",
                    "midi": 37,
                    "time": 296.9114479999915,
                    "velocity": 0.5196850393700787,
                    "duration": 0.05514699999997674
                },
                {
                    "name": "G#2",
                    "midi": 44,
                    "time": 297.02174199999143,
                    "velocity": 0.5984251968503937,
                    "duration": 0.05514699999997674
                },
                {
                    "name": "G#1",
                    "midi": 32,
                    "time": 297.02174199999143,
                    "velocity": 0.5039370078740157,
                    "duration": 0.05514699999997674
                },
                {
                    "name": "C#3",
                    "midi": 49,
                    "time": 297.1320359999914,
                    "velocity": 0.6062992125984252,
                    "duration": 0.05514699999997674
                },
                {
                    "name": "C#2",
                    "midi": 37,
                    "time": 297.1320359999914,
                    "velocity": 0.5118110236220472,
                    "duration": 0.05514699999997674
                },
                {
                    "name": "G#2",
                    "midi": 44,
                    "time": 297.24232999999134,
                    "velocity": 0.6220472440944882,
                    "duration": 0.05514699999997674
                },
                {
                    "name": "G#1",
                    "midi": 32,
                    "time": 297.24232999999134,
                    "velocity": 0.5196850393700787,
                    "duration": 0.05514699999997674
                },
                {
                    "name": "C#3",
                    "midi": 49,
                    "time": 297.3526239999913,
                    "velocity": 0.6692913385826772,
                    "duration": 0.05514699999997674
                },
                {
                    "name": "C#2",
                    "midi": 37,
                    "time": 297.3526239999913,
                    "velocity": 0.5590551181102362,
                    "duration": 0.05514699999997674
                },
                {
                    "name": "A#2",
                    "midi": 46,
                    "time": 299.1173279999913,
                    "velocity": 0.49606299212598426,
                    "duration": 0.07352933333334022
                },
                {
                    "name": "D#3",
                    "midi": 51,
                    "time": 299.19085733332463,
                    "velocity": 0.4330708661417323,
                    "duration": 0.07352933333334022
                },
                {
                    "name": "G3",
                    "midi": 55,
                    "time": 299.26438666665797,
                    "velocity": 0.4330708661417323,
                    "duration": 0.07352933333334022
                },
                {
                    "name": "C#4",
                    "midi": 61,
                    "time": 299.3379159999913,
                    "velocity": 0.4881889763779528,
                    "duration": 0.11029400000001033
                },
                {
                    "name": "A#2",
                    "midi": 46,
                    "time": 299.55850399999133,
                    "velocity": 0.49606299212598426,
                    "duration": 0.07352933333334022
                },
                {
                    "name": "D#3",
                    "midi": 51,
                    "time": 299.63203333332467,
                    "velocity": 0.4330708661417323,
                    "duration": 0.07352933333334022
                },
                {
                    "name": "G3",
                    "midi": 55,
                    "time": 299.705562666658,
                    "velocity": 0.4330708661417323,
                    "duration": 0.07352933333334022
                },
                {
                    "name": "C#4",
                    "midi": 61,
                    "time": 299.77909199999135,
                    "velocity": 0.4881889763779528,
                    "duration": 0.11029400000001033
                },
                {
                    "name": "G#2",
                    "midi": 44,
                    "time": 299.9996799999914,
                    "velocity": 0.49606299212598426,
                    "duration": 0.07352933333328338
                },
                {
                    "name": "D#3",
                    "midi": 51,
                    "time": 300.05482699999135,
                    "velocity": 0.4645669291338583,
                    "duration": 0.05514699999997674
                },
                {
                    "name": "F#3",
                    "midi": 54,
                    "time": 300.1099739999913,
                    "velocity": 0.4645669291338583,
                    "duration": 0.05514699999997674
                },
                {
                    "name": "C4",
                    "midi": 60,
                    "time": 300.1651209999913,
                    "velocity": 0.4645669291338583,
                    "duration": 0.05514699999997674
                },
                {
                    "name": "F#4",
                    "midi": 66,
                    "time": 300.2202679999913,
                    "velocity": 0.4881889763779528,
                    "duration": 0.11029400000001033
                },
                {
                    "name": "G#2",
                    "midi": 44,
                    "time": 300.4408559999913,
                    "velocity": 0.4881889763779528,
                    "duration": 0.05514699999997674
                },
                {
                    "name": "D#3",
                    "midi": 51,
                    "time": 300.4960029999913,
                    "velocity": 0.4566929133858268,
                    "duration": 0.05514699999997674
                },
                {
                    "name": "F#3",
                    "midi": 54,
                    "time": 300.55114999999125,
                    "velocity": 0.4566929133858268,
                    "duration": 0.05514699999997674
                },
                {
                    "name": "C4",
                    "midi": 60,
                    "time": 300.60629699999123,
                    "velocity": 0.4566929133858268,
                    "duration": 0.05514699999997674
                },
                {
                    "name": "F#4",
                    "midi": 66,
                    "time": 300.6614439999912,
                    "velocity": 0.4881889763779528,
                    "duration": 0.11029400000001033
                },
                {
                    "name": "C#3",
                    "midi": 49,
                    "time": 300.8820319999912,
                    "velocity": 0.4881889763779528,
                    "duration": 0.05514699999997674
                },
                {
                    "name": "F4",
                    "midi": 65,
                    "time": 300.8820319999912,
                    "velocity": 0.4881889763779528,
                    "duration": 0.05514699999997674
                },
                {
                    "name": "A#2",
                    "midi": 46,
                    "time": 302.6467359999912,
                    "velocity": 0.49606299212598426,
                    "duration": 0.05514699999997674
                },
                {
                    "name": "D#3",
                    "midi": 51,
                    "time": 302.7018829999912,
                    "velocity": 0.4566929133858268,
                    "duration": 0.05514699999997674
                },
                {
                    "name": "G3",
                    "midi": 55,
                    "time": 302.7570299999912,
                    "velocity": 0.4566929133858268,
                    "duration": 0.05514699999997674
                },
                {
                    "name": "C#4",
                    "midi": 61,
                    "time": 302.81217699999115,
                    "velocity": 0.4566929133858268,
                    "duration": 0.05514699999997674
                },
                {
                    "name": "G4",
                    "midi": 67,
                    "time": 302.86732399999113,
                    "velocity": 0.4881889763779528,
                    "duration": 0.11029400000001033
                },
                {
                    "name": "A#2",
                    "midi": 46,
                    "time": 303.08791199999115,
                    "velocity": 0.49606299212598426,
                    "duration": 0.07352933333334022
                },
                {
                    "name": "D#3",
                    "midi": 51,
                    "time": 303.1614413333245,
                    "velocity": 0.4330708661417323,
                    "duration": 0.07352933333334022
                },
                {
                    "name": "G3",
                    "midi": 55,
                    "time": 303.23497066665783,
                    "velocity": 0.4330708661417323,
                    "duration": 0.07352933333334022
                },
                {
                    "name": "C#4",
                    "midi": 61,
                    "time": 303.30849999999117,
                    "velocity": 0.4881889763779528,
                    "duration": 0.11029400000001033
                },
                {
                    "name": "G#2",
                    "midi": 44,
                    "time": 303.5290879999912,
                    "velocity": 0.49606299212598426,
                    "duration": 0.07352933333328338
                },
                {
                    "name": "D#3",
                    "midi": 51,
                    "time": 303.58423499999117,
                    "velocity": 0.4645669291338583,
                    "duration": 0.05514699999997674
                },
                {
                    "name": "F#3",
                    "midi": 54,
                    "time": 303.63938199999114,
                    "velocity": 0.4645669291338583,
                    "duration": 0.05514699999997674
                },
                {
                    "name": "C4",
                    "midi": 60,
                    "time": 303.6945289999911,
                    "velocity": 0.4645669291338583,
                    "duration": 0.05514699999997674
                },
                {
                    "name": "F#4",
                    "midi": 66,
                    "time": 303.7496759999911,
                    "velocity": 0.4881889763779528,
                    "duration": 0.11029400000001033
                },
                {
                    "name": "G#2",
                    "midi": 44,
                    "time": 303.9702639999911,
                    "velocity": 0.4881889763779528,
                    "duration": 0.07352933333334022
                },
                {
                    "name": "D#3",
                    "midi": 51,
                    "time": 304.04379333332446,
                    "velocity": 0.44881889763779526,
                    "duration": 0.07352933333334022
                },
                {
                    "name": "F#3",
                    "midi": 54,
                    "time": 304.1173226666578,
                    "velocity": 0.44881889763779526,
                    "duration": 0.07352933333334022
                },
                {
                    "name": "C4",
                    "midi": 60,
                    "time": 304.19085199999114,
                    "velocity": 0.4881889763779528,
                    "duration": 0.11029400000001033
                },
                {
                    "name": "C#4",
                    "midi": 61,
                    "time": 304.41143999999116,
                    "velocity": 0.47244094488188976,
                    "duration": 0.05514699999997674
                },
                {
                    "name": "C#3",
                    "midi": 49,
                    "time": 304.41143999999116,
                    "velocity": 0.4015748031496063,
                    "duration": 0.05514699999997674
                },
                {
                    "name": "C4",
                    "midi": 60,
                    "time": 304.5217339999911,
                    "velocity": 0.47244094488188976,
                    "duration": 0.05514699999997674
                },
                {
                    "name": "C3",
                    "midi": 48,
                    "time": 304.5217339999911,
                    "velocity": 0.4015748031496063,
                    "duration": 0.05514699999997674
                },
                {
                    "name": "B3",
                    "midi": 59,
                    "time": 304.63202799999107,
                    "velocity": 0.48031496062992124,
                    "duration": 0.05514699999997674
                },
                {
                    "name": "B2",
                    "midi": 47,
                    "time": 304.63202799999107,
                    "velocity": 0.4015748031496063,
                    "duration": 0.05514699999997674
                },
                {
                    "name": "A#3",
                    "midi": 58,
                    "time": 304.742321999991,
                    "velocity": 0.4881889763779528,
                    "duration": 0.05514699999997674
                },
                {
                    "name": "A#2",
                    "midi": 46,
                    "time": 304.742321999991,
                    "velocity": 0.4094488188976378,
                    "duration": 0.05514699999997674
                },
                {
                    "name": "A3",
                    "midi": 57,
                    "time": 304.852615999991,
                    "velocity": 0.49606299212598426,
                    "duration": 0.05514699999997674
                },
                {
                    "name": "A2",
                    "midi": 45,
                    "time": 304.852615999991,
                    "velocity": 0.41732283464566927,
                    "duration": 0.05514699999997674
                },
                {
                    "name": "G#3",
                    "midi": 56,
                    "time": 304.9629099999909,
                    "velocity": 0.5039370078740157,
                    "duration": 0.05514699999997674
                },
                {
                    "name": "G#2",
                    "midi": 44,
                    "time": 304.9629099999909,
                    "velocity": 0.4251968503937008,
                    "duration": 0.05514699999997674
                },
                {
                    "name": "G3",
                    "midi": 55,
                    "time": 305.0732039999909,
                    "velocity": 0.5039370078740157,
                    "duration": 0.05514699999997674
                },
                {
                    "name": "G2",
                    "midi": 43,
                    "time": 305.0732039999909,
                    "velocity": 0.4251968503937008,
                    "duration": 0.05514699999997674
                },
                {
                    "name": "F#3",
                    "midi": 54,
                    "time": 305.18349799999083,
                    "velocity": 0.5118110236220472,
                    "duration": 0.05514699999997674
                },
                {
                    "name": "F#2",
                    "midi": 42,
                    "time": 305.18349799999083,
                    "velocity": 0.4330708661417323,
                    "duration": 0.05514699999997674
                },
                {
                    "name": "F3",
                    "midi": 53,
                    "time": 305.2937919999908,
                    "velocity": 0.5511811023622047,
                    "duration": 0.11029400000001033
                },
                {
                    "name": "F2",
                    "midi": 41,
                    "time": 305.2937919999908,
                    "velocity": 0.5039370078740157,
                    "duration": 0.11029400000001033
                },
                {
                    "name": "E3",
                    "midi": 52,
                    "time": 305.4040859999908,
                    "velocity": 0.5275590551181102,
                    "duration": 0.11029400000001033
                },
                {
                    "name": "E2",
                    "midi": 40,
                    "time": 305.4040859999908,
                    "velocity": 0.4409448818897638,
                    "duration": 0.11029400000001033
                },
                {
                    "name": "D#3",
                    "midi": 51,
                    "time": 305.5143799999908,
                    "velocity": 0.5433070866141733,
                    "duration": 0.22058800000002066
                },
                {
                    "name": "D#2",
                    "midi": 39,
                    "time": 305.5143799999908,
                    "velocity": 0.4566929133858268,
                    "duration": 0.22058800000002066
                },
                {
                    "name": "D3",
                    "midi": 50,
                    "time": 305.73496799999083,
                    "velocity": 0.5984251968503937,
                    "duration": 0.11029400000001033
                },
                {
                    "name": "D2",
                    "midi": 38,
                    "time": 305.73496799999083,
                    "velocity": 0.5275590551181102,
                    "duration": 0.11029400000001033
                },
                {
                    "name": "C#3",
                    "midi": 49,
                    "time": 305.84526199999084,
                    "velocity": 0.5748031496062992,
                    "duration": 0.11029400000001033
                },
                {
                    "name": "C#2",
                    "midi": 37,
                    "time": 305.84526199999084,
                    "velocity": 0.4881889763779528,
                    "duration": 0.11029400000001033
                },
                {
                    "name": "C3",
                    "midi": 48,
                    "time": 305.95555599999085,
                    "velocity": 0.5826771653543307,
                    "duration": 0.22058800000002066
                },
                {
                    "name": "C2",
                    "midi": 36,
                    "time": 305.95555599999085,
                    "velocity": 0.4881889763779528,
                    "duration": 0.22058800000002066
                },
                {
                    "name": "C#4",
                    "midi": 61,
                    "time": 306.17614399999087,
                    "velocity": 0.5669291338582677,
                    "duration": 0.05514699999997674
                },
                {
                    "name": "C#3",
                    "midi": 49,
                    "time": 306.17614399999087,
                    "velocity": 0.48031496062992124,
                    "duration": 0.05514699999997674
                },
                {
                    "name": "C4",
                    "midi": 60,
                    "time": 306.2864379999908,
                    "velocity": 0.5669291338582677,
                    "duration": 0.05514699999997674
                },
                {
                    "name": "C3",
                    "midi": 48,
                    "time": 306.2864379999908,
                    "velocity": 0.48031496062992124,
                    "duration": 0.05514699999997674
                },
                {
                    "name": "B3",
                    "midi": 59,
                    "time": 306.3967319999908,
                    "velocity": 0.5748031496062992,
                    "duration": 0.05514699999997674
                },
                {
                    "name": "B2",
                    "midi": 47,
                    "time": 306.3967319999908,
                    "velocity": 0.48031496062992124,
                    "duration": 0.05514699999997674
                },
                {
                    "name": "A#3",
                    "midi": 58,
                    "time": 306.50702599999073,
                    "velocity": 0.5826771653543307,
                    "duration": 0.05514699999997674
                },
                {
                    "name": "A#2",
                    "midi": 46,
                    "time": 306.50702599999073,
                    "velocity": 0.4881889763779528,
                    "duration": 0.05514699999997674
                },
                {
                    "name": "A3",
                    "midi": 57,
                    "time": 306.6173199999907,
                    "velocity": 0.5905511811023622,
                    "duration": 0.05514699999997674
                },
                {
                    "name": "A2",
                    "midi": 45,
                    "time": 306.6173199999907,
                    "velocity": 0.49606299212598426,
                    "duration": 0.05514699999997674
                },
                {
                    "name": "G#3",
                    "midi": 56,
                    "time": 306.72761399999064,
                    "velocity": 0.5984251968503937,
                    "duration": 0.05514699999997674
                },
                {
                    "name": "G#2",
                    "midi": 44,
                    "time": 306.72761399999064,
                    "velocity": 0.5039370078740157,
                    "duration": 0.05514699999997674
                },
                {
                    "name": "G3",
                    "midi": 55,
                    "time": 306.8379079999906,
                    "velocity": 0.5984251968503937,
                    "duration": 0.05514699999997674
                },
                {
                    "name": "G2",
                    "midi": 43,
                    "time": 306.8379079999906,
                    "velocity": 0.5039370078740157,
                    "duration": 0.05514699999997674
                },
                {
                    "name": "F#3",
                    "midi": 54,
                    "time": 306.94820199999054,
                    "velocity": 0.6141732283464567,
                    "duration": 0.05514699999997674
                },
                {
                    "name": "F#2",
                    "midi": 42,
                    "time": 306.94820199999054,
                    "velocity": 0.5196850393700787,
                    "duration": 0.05514699999997674
                },
                {
                    "name": "F3",
                    "midi": 53,
                    "time": 307.0584959999905,
                    "velocity": 0.6535433070866141,
                    "duration": 0.05514699999997674
                },
                {
                    "name": "F2",
                    "midi": 41,
                    "time": 307.0584959999905,
                    "velocity": 0.6062992125984252,
                    "duration": 0.05514699999997674
                },
                {
                    "name": "E3",
                    "midi": 52,
                    "time": 307.16878999999045,
                    "velocity": 0.6299212598425197,
                    "duration": 0.05514699999997674
                },
                {
                    "name": "E2",
                    "midi": 40,
                    "time": 307.16878999999045,
                    "velocity": 0.5275590551181102,
                    "duration": 0.05514699999997674
                },
                {
                    "name": "D#3",
                    "midi": 51,
                    "time": 307.2790839999904,
                    "velocity": 0.6456692913385826,
                    "duration": 0.22058800000002066
                },
                {
                    "name": "D#2",
                    "midi": 39,
                    "time": 307.2790839999904,
                    "velocity": 0.5433070866141733,
                    "duration": 0.22058800000002066
                },
                {
                    "name": "D3",
                    "midi": 50,
                    "time": 307.4996719999904,
                    "velocity": 0.7086614173228346,
                    "duration": 0.05514699999997674
                },
                {
                    "name": "D2",
                    "midi": 38,
                    "time": 307.4996719999904,
                    "velocity": 0.6377952755905512,
                    "duration": 0.05514699999997674
                },
                {
                    "name": "C#3",
                    "midi": 49,
                    "time": 307.6099659999904,
                    "velocity": 0.6850393700787402,
                    "duration": 0.05514699999997674
                },
                {
                    "name": "C#2",
                    "midi": 37,
                    "time": 307.6099659999904,
                    "velocity": 0.5826771653543307,
                    "duration": 0.05514699999997674
                },
                {
                    "name": "C3",
                    "midi": 48,
                    "time": 307.72025999999033,
                    "velocity": 0.6929133858267716,
                    "duration": 0.22058800000002066
                },
                {
                    "name": "C2",
                    "midi": 36,
                    "time": 307.72025999999033,
                    "velocity": 0.5826771653543307,
                    "duration": 0.22058800000002066
                },
                {
                    "name": "C#4",
                    "midi": 61,
                    "time": 307.94084799999035,
                    "velocity": 0.5669291338582677,
                    "duration": 0.05514699999997674
                },
                {
                    "name": "C#3",
                    "midi": 49,
                    "time": 307.94084799999035,
                    "velocity": 0.48031496062992124,
                    "duration": 0.05514699999997674
                },
                {
                    "name": "C4",
                    "midi": 60,
                    "time": 308.0511419999903,
                    "velocity": 0.5669291338582677,
                    "duration": 0.05514699999997674
                },
                {
                    "name": "C3",
                    "midi": 48,
                    "time": 308.0511419999903,
                    "velocity": 0.48031496062992124,
                    "duration": 0.05514699999997674
                },
                {
                    "name": "B3",
                    "midi": 59,
                    "time": 308.16143599999026,
                    "velocity": 0.5748031496062992,
                    "duration": 0.05514699999997674
                },
                {
                    "name": "B2",
                    "midi": 47,
                    "time": 308.16143599999026,
                    "velocity": 0.48031496062992124,
                    "duration": 0.05514699999997674
                },
                {
                    "name": "A#3",
                    "midi": 58,
                    "time": 308.2717299999902,
                    "velocity": 0.5826771653543307,
                    "duration": 0.05514699999997674
                },
                {
                    "name": "A#2",
                    "midi": 46,
                    "time": 308.2717299999902,
                    "velocity": 0.4881889763779528,
                    "duration": 0.05514699999997674
                },
                {
                    "name": "A3",
                    "midi": 57,
                    "time": 308.38202399999017,
                    "velocity": 0.5905511811023622,
                    "duration": 0.05514699999997674
                },
                {
                    "name": "A2",
                    "midi": 45,
                    "time": 308.38202399999017,
                    "velocity": 0.49606299212598426,
                    "duration": 0.05514699999997674
                },
                {
                    "name": "G#3",
                    "midi": 56,
                    "time": 308.4923179999901,
                    "velocity": 0.5984251968503937,
                    "duration": 0.05514699999997674
                },
                {
                    "name": "G#2",
                    "midi": 44,
                    "time": 308.4923179999901,
                    "velocity": 0.5039370078740157,
                    "duration": 0.05514699999997674
                },
                {
                    "name": "G3",
                    "midi": 55,
                    "time": 308.6026119999901,
                    "velocity": 0.5984251968503937,
                    "duration": 0.05514699999997674
                },
                {
                    "name": "G2",
                    "midi": 43,
                    "time": 308.6026119999901,
                    "velocity": 0.5039370078740157,
                    "duration": 0.05514699999997674
                },
                {
                    "name": "F#3",
                    "midi": 54,
                    "time": 308.71290599999,
                    "velocity": 0.6141732283464567,
                    "duration": 0.05514699999997674
                },
                {
                    "name": "F#2",
                    "midi": 42,
                    "time": 308.71290599999,
                    "velocity": 0.5196850393700787,
                    "duration": 0.05514699999997674
                },
                {
                    "name": "F3",
                    "midi": 53,
                    "time": 308.82319999999,
                    "velocity": 0.6535433070866141,
                    "duration": 0.05514699999997674
                },
                {
                    "name": "F2",
                    "midi": 41,
                    "time": 308.82319999999,
                    "velocity": 0.6141732283464567,
                    "duration": 0.05514699999997674
                },
                {
                    "name": "E3",
                    "midi": 52,
                    "time": 308.93349399998993,
                    "velocity": 0.6299212598425197,
                    "duration": 0.05514699999997674
                },
                {
                    "name": "E2",
                    "midi": 40,
                    "time": 308.93349399998993,
                    "velocity": 0.5275590551181102,
                    "duration": 0.05514699999997674
                },
                {
                    "name": "D#3",
                    "midi": 51,
                    "time": 309.0437879999899,
                    "velocity": 0.6456692913385826,
                    "duration": 0.22058800000002066
                },
                {
                    "name": "D#2",
                    "midi": 39,
                    "time": 309.0437879999899,
                    "velocity": 0.5433070866141733,
                    "duration": 0.22058800000002066
                },
                {
                    "name": "D3",
                    "midi": 50,
                    "time": 309.2643759999899,
                    "velocity": 0.6929133858267716,
                    "duration": 0.05514699999997674
                },
                {
                    "name": "D2",
                    "midi": 38,
                    "time": 309.2643759999899,
                    "velocity": 0.6456692913385826,
                    "duration": 0.05514699999997674
                },
                {
                    "name": "C#3",
                    "midi": 49,
                    "time": 309.37466999998986,
                    "velocity": 0.6850393700787402,
                    "duration": 0.05514699999997674
                },
                {
                    "name": "C#2",
                    "midi": 37,
                    "time": 309.37466999998986,
                    "velocity": 0.5826771653543307,
                    "duration": 0.05514699999997674
                },
                {
                    "name": "C3",
                    "midi": 48,
                    "time": 309.4849639999898,
                    "velocity": 0.6929133858267716,
                    "duration": 0.22058800000002066
                },
                {
                    "name": "C2",
                    "midi": 36,
                    "time": 309.4849639999898,
                    "velocity": 0.5826771653543307,
                    "duration": 0.22058800000002066
                },
                {
                    "name": "B2",
                    "midi": 47,
                    "time": 309.70555199998984,
                    "velocity": 0.6850393700787402,
                    "duration": 0.05514699999997674
                },
                {
                    "name": "B1",
                    "midi": 35,
                    "time": 309.70555199998984,
                    "velocity": 0.5748031496062992,
                    "duration": 0.05514699999997674
                },
                {
                    "name": "A#2",
                    "midi": 46,
                    "time": 309.8158459999898,
                    "velocity": 0.6929133858267716,
                    "duration": 0.05514699999997674
                },
                {
                    "name": "A#1",
                    "midi": 34,
                    "time": 309.8158459999898,
                    "velocity": 0.5826771653543307,
                    "duration": 0.05514699999997674
                },
                {
                    "name": "A2",
                    "midi": 45,
                    "time": 309.92613999998974,
                    "velocity": 0.7086614173228346,
                    "duration": 0.05514699999997674
                },
                {
                    "name": "A1",
                    "midi": 33,
                    "time": 309.92613999998974,
                    "velocity": 0.5984251968503937,
                    "duration": 0.05514699999997674
                },
                {
                    "name": "G#2",
                    "midi": 44,
                    "time": 310.0364339999897,
                    "velocity": 0.7165354330708661,
                    "duration": 0.05514699999997674
                },
                {
                    "name": "G#1",
                    "midi": 32,
                    "time": 310.0364339999897,
                    "velocity": 0.6062992125984252,
                    "duration": 0.05514699999997674
                },
                {
                    "name": "G2",
                    "midi": 43,
                    "time": 310.14672799998965,
                    "velocity": 0.7322834645669292,
                    "duration": 0.05514699999997674
                },
                {
                    "name": "G1",
                    "midi": 31,
                    "time": 310.14672799998965,
                    "velocity": 0.6220472440944882,
                    "duration": 0.05514699999997674
                },
                {
                    "name": "F#2",
                    "midi": 42,
                    "time": 310.2570219999896,
                    "velocity": 0.7401574803149606,
                    "duration": 0.05514699999997674
                },
                {
                    "name": "F#1",
                    "midi": 30,
                    "time": 310.2570219999896,
                    "velocity": 0.6220472440944882,
                    "duration": 0.05514699999997674
                },
                {
                    "name": "F2",
                    "midi": 41,
                    "time": 310.36731599998956,
                    "velocity": 0.7559055118110236,
                    "duration": 0.22058800000002066
                },
                {
                    "name": "F1",
                    "midi": 29,
                    "time": 310.36731599998956,
                    "velocity": 0.6377952755905512,
                    "duration": 0.22058800000002066
                },
                {
                    "name": "E2",
                    "midi": 40,
                    "time": 310.5879039999896,
                    "velocity": 0.8031496062992126,
                    "duration": 0.11029400000001033
                },
                {
                    "name": "E1",
                    "midi": 28,
                    "time": 310.5879039999896,
                    "velocity": 0.6771653543307087,
                    "duration": 0.11029400000001033
                },
                {
                    "name": "B3",
                    "midi": 59,
                    "time": 310.8084919999896,
                    "velocity": 0.7559055118110236,
                    "duration": 0.11029400000001033
                },
                {
                    "name": "B2",
                    "midi": 47,
                    "time": 310.8084919999896,
                    "velocity": 0.6377952755905512,
                    "duration": 0.11029400000001033
                },
                {
                    "name": "E3",
                    "midi": 52,
                    "time": 311.0290799999896,
                    "velocity": 0.7637795275590551,
                    "duration": 0.11029400000001033
                },
                {
                    "name": "E2",
                    "midi": 40,
                    "time": 311.0290799999896,
                    "velocity": 0.6456692913385826,
                    "duration": 0.11029400000001033
                },
                {
                    "name": "B4",
                    "midi": 71,
                    "time": 311.24966799998964,
                    "velocity": 0.7401574803149606,
                    "duration": 0.11029400000001033
                },
                {
                    "name": "B3",
                    "midi": 59,
                    "time": 311.24966799998964,
                    "velocity": 0.6220472440944882,
                    "duration": 0.11029400000001033
                },
                {
                    "name": "E2",
                    "midi": 40,
                    "time": 311.47025599998966,
                    "velocity": 0.8031496062992126,
                    "duration": 0.11029400000001033
                },
                {
                    "name": "E1",
                    "midi": 28,
                    "time": 311.47025599998966,
                    "velocity": 0.6771653543307087,
                    "duration": 0.11029400000001033
                },
                {
                    "name": "B3",
                    "midi": 59,
                    "time": 311.6908439999897,
                    "velocity": 0.7559055118110236,
                    "duration": 0.11029400000001033
                },
                {
                    "name": "B2",
                    "midi": 47,
                    "time": 311.6908439999897,
                    "velocity": 0.6377952755905512,
                    "duration": 0.11029400000001033
                },
                {
                    "name": "E3",
                    "midi": 52,
                    "time": 311.9114319999897,
                    "velocity": 0.7637795275590551,
                    "duration": 0.11029400000001033
                },
                {
                    "name": "E2",
                    "midi": 40,
                    "time": 311.9114319999897,
                    "velocity": 0.6456692913385826,
                    "duration": 0.11029400000001033
                },
                {
                    "name": "B4",
                    "midi": 71,
                    "time": 312.1320199999897,
                    "velocity": 0.7401574803149606,
                    "duration": 0.11029400000001033
                },
                {
                    "name": "B3",
                    "midi": 59,
                    "time": 312.1320199999897,
                    "velocity": 0.6220472440944882,
                    "duration": 0.11029400000001033
                },
                {
                    "name": "E2",
                    "midi": 40,
                    "time": 312.35260799998974,
                    "velocity": 0.8031496062992126,
                    "duration": 0.11029400000001033
                },
                {
                    "name": "E1",
                    "midi": 28,
                    "time": 312.35260799998974,
                    "velocity": 0.6771653543307087,
                    "duration": 0.11029400000001033
                },
                {
                    "name": "B3",
                    "midi": 59,
                    "time": 312.57319599998976,
                    "velocity": 0.7559055118110236,
                    "duration": 0.11029400000001033
                },
                {
                    "name": "B2",
                    "midi": 47,
                    "time": 312.57319599998976,
                    "velocity": 0.6377952755905512,
                    "duration": 0.11029400000001033
                },
                {
                    "name": "E3",
                    "midi": 52,
                    "time": 312.7937839999898,
                    "velocity": 0.7637795275590551,
                    "duration": 0.11029400000001033
                },
                {
                    "name": "E2",
                    "midi": 40,
                    "time": 312.7937839999898,
                    "velocity": 0.6456692913385826,
                    "duration": 0.11029400000001033
                },
                {
                    "name": "B4",
                    "midi": 71,
                    "time": 313.0143719999898,
                    "velocity": 0.7401574803149606,
                    "duration": 0.11029400000001033
                },
                {
                    "name": "B3",
                    "midi": 59,
                    "time": 313.0143719999898,
                    "velocity": 0.6220472440944882,
                    "duration": 0.11029400000001033
                },
                {
                    "name": "B2",
                    "midi": 47,
                    "time": 313.2349599999898,
                    "velocity": 0.8031496062992126,
                    "duration": 0.11029400000001033
                },
                {
                    "name": "B1",
                    "midi": 35,
                    "time": 313.2349599999898,
                    "velocity": 0.6771653543307087,
                    "duration": 0.11029400000001033
                },
                {
                    "name": "F#4",
                    "midi": 66,
                    "time": 313.45554799998985,
                    "velocity": 0.7559055118110236,
                    "duration": 0.11029400000001033
                },
                {
                    "name": "F#3",
                    "midi": 54,
                    "time": 313.45554799998985,
                    "velocity": 0.6377952755905512,
                    "duration": 0.11029400000001033
                },
                {
                    "name": "A2",
                    "midi": 45,
                    "time": 313.67613599998987,
                    "velocity": 0.7637795275590551,
                    "duration": 0.11029400000001033
                },
                {
                    "name": "A1",
                    "midi": 33,
                    "time": 313.67613599998987,
                    "velocity": 0.6456692913385826,
                    "duration": 0.11029400000001033
                },
                {
                    "name": "F#4",
                    "midi": 66,
                    "time": 313.8967239999899,
                    "velocity": 0.7401574803149606,
                    "duration": 0.11029400000001033
                },
                {
                    "name": "F#3",
                    "midi": 54,
                    "time": 313.8967239999899,
                    "velocity": 0.6220472440944882,
                    "duration": 0.11029400000001033
                },
                {
                    "name": "G#2",
                    "midi": 44,
                    "time": 314.1173119999899,
                    "velocity": 0.8188976377952756,
                    "duration": 0.11029400000001033
                },
                {
                    "name": "G#1",
                    "midi": 32,
                    "time": 314.1173119999899,
                    "velocity": 0.6929133858267716,
                    "duration": 0.11029400000001033
                },
                {
                    "name": "G3",
                    "midi": 55,
                    "time": 314.2276059999899,
                    "velocity": 0.6929133858267716,
                    "duration": 0.11029400000001033
                },
                {
                    "name": "G2",
                    "midi": 43,
                    "time": 314.2276059999899,
                    "velocity": 0.5826771653543307,
                    "duration": 0.11029400000001033
                },
                {
                    "name": "G#3",
                    "midi": 56,
                    "time": 314.33789999998993,
                    "velocity": 0.7401574803149606,
                    "duration": 0.11029400000001033
                },
                {
                    "name": "G#2",
                    "midi": 44,
                    "time": 314.33789999998993,
                    "velocity": 0.6220472440944882,
                    "duration": 0.11029400000001033
                },
                {
                    "name": "G4",
                    "midi": 67,
                    "time": 314.44819399998994,
                    "velocity": 0.7401574803149606,
                    "duration": 0.11029400000001033
                },
                {
                    "name": "G3",
                    "midi": 55,
                    "time": 314.44819399998994,
                    "velocity": 0.6220472440944882,
                    "duration": 0.11029400000001033
                },
                {
                    "name": "G#4",
                    "midi": 68,
                    "time": 314.55848799998995,
                    "velocity": 0.7795275590551181,
                    "duration": 0.11029400000001033
                },
                {
                    "name": "G#3",
                    "midi": 56,
                    "time": 314.55848799998995,
                    "velocity": 0.6614173228346457,
                    "duration": 0.11029400000001033
                },
                {
                    "name": "G3",
                    "midi": 55,
                    "time": 314.66878199998996,
                    "velocity": 0.7007874015748031,
                    "duration": 0.11029400000001033
                },
                {
                    "name": "G2",
                    "midi": 43,
                    "time": 314.66878199998996,
                    "velocity": 0.5905511811023622,
                    "duration": 0.11029400000001033
                },
                {
                    "name": "G#3",
                    "midi": 56,
                    "time": 314.77907599998997,
                    "velocity": 0.7322834645669292,
                    "duration": 0.22058800000002066
                },
                {
                    "name": "G#2",
                    "midi": 44,
                    "time": 314.77907599998997,
                    "velocity": 0.6220472440944882,
                    "duration": 0.22058800000002066
                },
                {
                    "name": "G#2",
                    "midi": 44,
                    "time": 314.99966399999,
                    "velocity": 0.7952755905511811,
                    "duration": 0.11029400000001033
                },
                {
                    "name": "G#1",
                    "midi": 32,
                    "time": 314.99966399999,
                    "velocity": 0.6692913385826772,
                    "duration": 0.11029400000001033
                },
                {
                    "name": "G3",
                    "midi": 55,
                    "time": 315.10995799999,
                    "velocity": 0.6929133858267716,
                    "duration": 0.11029400000001033
                },
                {
                    "name": "G2",
                    "midi": 43,
                    "time": 315.10995799999,
                    "velocity": 0.5826771653543307,
                    "duration": 0.11029400000001033
                },
                {
                    "name": "G#3",
                    "midi": 56,
                    "time": 315.22025199999,
                    "velocity": 0.7401574803149606,
                    "duration": 0.11029400000001033
                },
                {
                    "name": "G#2",
                    "midi": 44,
                    "time": 315.22025199999,
                    "velocity": 0.6220472440944882,
                    "duration": 0.11029400000001033
                },
                {
                    "name": "G4",
                    "midi": 67,
                    "time": 315.33054599999,
                    "velocity": 0.7401574803149606,
                    "duration": 0.11029400000001033
                },
                {
                    "name": "G3",
                    "midi": 55,
                    "time": 315.33054599999,
                    "velocity": 0.6220472440944882,
                    "duration": 0.11029400000001033
                },
                {
                    "name": "G#4",
                    "midi": 68,
                    "time": 315.44083999999003,
                    "velocity": 0.7795275590551181,
                    "duration": 0.11029400000001033
                },
                {
                    "name": "G#3",
                    "midi": 56,
                    "time": 315.44083999999003,
                    "velocity": 0.6614173228346457,
                    "duration": 0.11029400000001033
                },
                {
                    "name": "G3",
                    "midi": 55,
                    "time": 315.55113399999004,
                    "velocity": 0.7007874015748031,
                    "duration": 0.11029400000001033
                },
                {
                    "name": "G2",
                    "midi": 43,
                    "time": 315.55113399999004,
                    "velocity": 0.5905511811023622,
                    "duration": 0.11029400000001033
                },
                {
                    "name": "G#3",
                    "midi": 56,
                    "time": 315.66142799999005,
                    "velocity": 0.7322834645669292,
                    "duration": 0.22058800000002066
                },
                {
                    "name": "G#2",
                    "midi": 44,
                    "time": 315.66142799999005,
                    "velocity": 0.6220472440944882,
                    "duration": 0.22058800000002066
                },
                {
                    "name": "F#2",
                    "midi": 42,
                    "time": 315.8820159999901,
                    "velocity": 0.84251968503937,
                    "duration": 0.11029400000001033
                },
                {
                    "name": "F#1",
                    "midi": 30,
                    "time": 315.8820159999901,
                    "velocity": 0.7086614173228346,
                    "duration": 0.11029400000001033
                },
                {
                    "name": "A3",
                    "midi": 57,
                    "time": 315.9923099999901,
                    "velocity": 0.6929133858267716,
                    "duration": 0.11029400000001033
                },
                {
                    "name": "A2",
                    "midi": 45,
                    "time": 315.9923099999901,
                    "velocity": 0.5826771653543307,
                    "duration": 0.11029400000001033
                },
                {
                    "name": "A#3",
                    "midi": 58,
                    "time": 316.1026039999901,
                    "velocity": 0.7401574803149606,
                    "duration": 0.22058800000002066
                },
                {
                    "name": "A#2",
                    "midi": 46,
                    "time": 316.1026039999901,
                    "velocity": 0.6220472440944882,
                    "duration": 0.22058800000002066
                },
                {
                    "name": "F2",
                    "midi": 41,
                    "time": 316.3231919999901,
                    "velocity": 0.8346456692913385,
                    "duration": 0.11029400000001033
                },
                {
                    "name": "F1",
                    "midi": 29,
                    "time": 316.3231919999901,
                    "velocity": 0.7086614173228346,
                    "duration": 0.11029400000001033
                },
                {
                    "name": "C#4",
                    "midi": 61,
                    "time": 316.4334859999901,
                    "velocity": 0.7007874015748031,
                    "duration": 0.11029400000001033
                },
                {
                    "name": "C#3",
                    "midi": 49,
                    "time": 316.4334859999901,
                    "velocity": 0.5905511811023622,
                    "duration": 0.11029400000001033
                },
                {
                    "name": "D4",
                    "midi": 62,
                    "time": 316.54377999999014,
                    "velocity": 0.7322834645669292,
                    "duration": 0.22058800000002066
                },
                {
                    "name": "D3",
                    "midi": 50,
                    "time": 316.54377999999014,
                    "velocity": 0.6220472440944882,
                    "duration": 0.22058800000002066
                },
                {
                    "name": "D#2",
                    "midi": 39,
                    "time": 316.76436799999016,
                    "velocity": 0.905511811023622,
                    "duration": 0.11029400000001033
                },
                {
                    "name": "D#1",
                    "midi": 27,
                    "time": 316.76436799999016,
                    "velocity": 0.7637795275590551,
                    "duration": 0.11029400000001033
                },
                {
                    "name": "A3",
                    "midi": 57,
                    "time": 316.87466199999017,
                    "velocity": 0.6929133858267716,
                    "duration": 0.11029400000001033
                },
                {
                    "name": "A2",
                    "midi": 45,
                    "time": 316.87466199999017,
                    "velocity": 0.5826771653543307,
                    "duration": 0.11029400000001033
                },
                {
                    "name": "A#3",
                    "midi": 58,
                    "time": 316.9849559999902,
                    "velocity": 0.7401574803149606,
                    "duration": 0.11029400000001033
                },
                {
                    "name": "A#2",
                    "midi": 46,
                    "time": 316.9849559999902,
                    "velocity": 0.6220472440944882,
                    "duration": 0.11029400000001033
                },
                {
                    "name": "A4",
                    "midi": 69,
                    "time": 317.0952499999902,
                    "velocity": 0.7401574803149606,
                    "duration": 0.11029400000001033
                },
                {
                    "name": "A3",
                    "midi": 57,
                    "time": 317.0952499999902,
                    "velocity": 0.6220472440944882,
                    "duration": 0.11029400000001033
                },
                {
                    "name": "A#4",
                    "midi": 70,
                    "time": 317.2055439999902,
                    "velocity": 0.7795275590551181,
                    "duration": 0.11029400000001033
                },
                {
                    "name": "A#3",
                    "midi": 58,
                    "time": 317.2055439999902,
                    "velocity": 0.6614173228346457,
                    "duration": 0.11029400000001033
                },
                {
                    "name": "A3",
                    "midi": 57,
                    "time": 317.3158379999902,
                    "velocity": 0.7007874015748031,
                    "duration": 0.11029400000001033
                },
                {
                    "name": "A2",
                    "midi": 45,
                    "time": 317.3158379999902,
                    "velocity": 0.5905511811023622,
                    "duration": 0.11029400000001033
                },
                {
                    "name": "A#3",
                    "midi": 58,
                    "time": 317.4261319999902,
                    "velocity": 0.7322834645669292,
                    "duration": 0.22058800000002066
                },
                {
                    "name": "A#2",
                    "midi": 46,
                    "time": 317.4261319999902,
                    "velocity": 0.6220472440944882,
                    "duration": 0.22058800000002066
                },
                {
                    "name": "F#2",
                    "midi": 42,
                    "time": 317.64671999999024,
                    "velocity": 0.8503937007874016,
                    "duration": 0.11029400000001033
                },
                {
                    "name": "F#1",
                    "midi": 30,
                    "time": 317.64671999999024,
                    "velocity": 0.7165354330708661,
                    "duration": 0.11029400000001033
                },
                {
                    "name": "C4",
                    "midi": 60,
                    "time": 317.75701399999025,
                    "velocity": 0.6929133858267716,
                    "duration": 0.11029400000001033
                },
                {
                    "name": "C3",
                    "midi": 48,
                    "time": 317.75701399999025,
                    "velocity": 0.5826771653543307,
                    "duration": 0.11029400000001033
                },
                {
                    "name": "C#4",
                    "midi": 61,
                    "time": 317.86730799999026,
                    "velocity": 0.7401574803149606,
                    "duration": 0.11029400000001033
                },
                {
                    "name": "C#3",
                    "midi": 49,
                    "time": 317.86730799999026,
                    "velocity": 0.6220472440944882,
                    "duration": 0.11029400000001033
                },
                {
                    "name": "C5",
                    "midi": 72,
                    "time": 317.97760199999027,
                    "velocity": 0.7401574803149606,
                    "duration": 0.11029400000001033
                },
                {
                    "name": "C4",
                    "midi": 60,
                    "time": 317.97760199999027,
                    "velocity": 0.6220472440944882,
                    "duration": 0.11029400000001033
                },
                {
                    "name": "C#5",
                    "midi": 73,
                    "time": 318.0878959999903,
                    "velocity": 0.7795275590551181,
                    "duration": 0.11029400000001033
                },
                {
                    "name": "C#4",
                    "midi": 61,
                    "time": 318.0878959999903,
                    "velocity": 0.6614173228346457,
                    "duration": 0.11029400000001033
                },
                {
                    "name": "C4",
                    "midi": 60,
                    "time": 318.1981899999903,
                    "velocity": 0.7007874015748031,
                    "duration": 0.11029400000001033
                },
                {
                    "name": "C3",
                    "midi": 48,
                    "time": 318.1981899999903,
                    "velocity": 0.5905511811023622,
                    "duration": 0.11029400000001033
                },
                {
                    "name": "C#4",
                    "midi": 61,
                    "time": 318.3084839999903,
                    "velocity": 0.7322834645669292,
                    "duration": 0.22058800000002066
                },
                {
                    "name": "C#3",
                    "midi": 49,
                    "time": 318.3084839999903,
                    "velocity": 0.6220472440944882,
                    "duration": 0.22058800000002066
                },
                {
                    "name": "G#2",
                    "midi": 44,
                    "time": 318.5290719999903,
                    "velocity": 0.8267716535433071,
                    "duration": 0.11029400000001033
                },
                {
                    "name": "G#1",
                    "midi": 32,
                    "time": 318.5290719999903,
                    "velocity": 0.7007874015748031,
                    "duration": 0.11029400000001033
                },
                {
                    "name": "G3",
                    "midi": 55,
                    "time": 318.63936599999033,
                    "velocity": 0.6929133858267716,
                    "duration": 0.11029400000001033
                },
                {
                    "name": "G2",
                    "midi": 43,
                    "time": 318.63936599999033,
                    "velocity": 0.5826771653543307,
                    "duration": 0.11029400000001033
                },
                {
                    "name": "G#3",
                    "midi": 56,
                    "time": 318.74965999999034,
                    "velocity": 0.7401574803149606,
                    "duration": 0.11029400000001033
                },
                {
                    "name": "G#2",
                    "midi": 44,
                    "time": 318.74965999999034,
                    "velocity": 0.6220472440944882,
                    "duration": 0.11029400000001033
                },
                {
                    "name": "G4",
                    "midi": 67,
                    "time": 318.85995399999035,
                    "velocity": 0.7401574803149606,
                    "duration": 0.11029400000001033
                },
                {
                    "name": "G3",
                    "midi": 55,
                    "time": 318.85995399999035,
                    "velocity": 0.6220472440944882,
                    "duration": 0.11029400000001033
                },
                {
                    "name": "G#4",
                    "midi": 68,
                    "time": 318.97024799999036,
                    "velocity": 0.7795275590551181,
                    "duration": 0.11029400000001033
                },
                {
                    "name": "G#3",
                    "midi": 56,
                    "time": 318.97024799999036,
                    "velocity": 0.6614173228346457,
                    "duration": 0.11029400000001033
                },
                {
                    "name": "F4",
                    "midi": 65,
                    "time": 319.3011299999904,
                    "velocity": 0.6220472440944882,
                    "duration": 0.11029400000001033
                },
                {
                    "name": "F5",
                    "midi": 77,
                    "time": 319.3011299999904,
                    "velocity": 0.6220472440944882,
                    "duration": 0.11029400000001033
                },
                {
                    "name": "F#5",
                    "midi": 78,
                    "time": 319.4114239999904,
                    "velocity": 0.7874015748031497,
                    "duration": 0.11029400000001033
                },
                {
                    "name": "F#4",
                    "midi": 66,
                    "time": 319.4114239999904,
                    "velocity": 0.6692913385826772,
                    "duration": 0.11029400000001033
                },
                {
                    "name": "D5",
                    "midi": 74,
                    "time": 319.74230599999044,
                    "velocity": 0.5669291338582677,
                    "duration": 0.11029400000001033
                },
                {
                    "name": "D4",
                    "midi": 62,
                    "time": 319.74230599999044,
                    "velocity": 0.47244094488188976,
                    "duration": 0.11029400000001033
                },
                {
                    "name": "D#5",
                    "midi": 75,
                    "time": 319.85259999999045,
                    "velocity": 0.5984251968503937,
                    "duration": 0.11029400000001033
                },
                {
                    "name": "D#4",
                    "midi": 63,
                    "time": 319.85259999999045,
                    "velocity": 0.5039370078740157,
                    "duration": 0.11029400000001033
                },
                {
                    "name": "B4",
                    "midi": 71,
                    "time": 319.96289399999046,
                    "velocity": 0.5433070866141733,
                    "duration": 0.11029400000001033
                },
                {
                    "name": "B3",
                    "midi": 59,
                    "time": 319.96289399999046,
                    "velocity": 0.4645669291338583,
                    "duration": 0.11029400000001033
                },
                {
                    "name": "C5",
                    "midi": 72,
                    "time": 320.07318799999047,
                    "velocity": 0.5905511811023622,
                    "duration": 0.11029400000001033
                },
                {
                    "name": "C4",
                    "midi": 60,
                    "time": 320.07318799999047,
                    "velocity": 0.49606299212598426,
                    "duration": 0.11029400000001033
                },
                {
                    "name": "G4",
                    "midi": 67,
                    "time": 320.1834819999905,
                    "velocity": 0.5433070866141733,
                    "duration": 0.11029400000001033
                },
                {
                    "name": "G3",
                    "midi": 55,
                    "time": 320.1834819999905,
                    "velocity": 0.4645669291338583,
                    "duration": 0.11029400000001033
                },
                {
                    "name": "G#4",
                    "midi": 68,
                    "time": 320.2937759999905,
                    "velocity": 0.5905511811023622,
                    "duration": 0.11029400000001033
                },
                {
                    "name": "G#3",
                    "midi": 56,
                    "time": 320.2937759999905,
                    "velocity": 0.49606299212598426,
                    "duration": 0.11029400000001033
                },
                {
                    "name": "F4",
                    "midi": 65,
                    "time": 320.4040699999905,
                    "velocity": 0.5354330708661418,
                    "duration": 0.11029400000001033
                },
                {
                    "name": "F3",
                    "midi": 53,
                    "time": 320.4040699999905,
                    "velocity": 0.44881889763779526,
                    "duration": 0.11029400000001033
                },
                {
                    "name": "F#4",
                    "midi": 66,
                    "time": 320.5143639999905,
                    "velocity": 0.5669291338582677,
                    "duration": 0.11029400000001033
                },
                {
                    "name": "F#3",
                    "midi": 54,
                    "time": 320.5143639999905,
                    "velocity": 0.48031496062992124,
                    "duration": 0.11029400000001033
                },
                {
                    "name": "D4",
                    "midi": 62,
                    "time": 320.6246579999905,
                    "velocity": 0.5275590551181102,
                    "duration": 0.11029400000001033
                },
                {
                    "name": "D3",
                    "midi": 50,
                    "time": 320.6246579999905,
                    "velocity": 0.44881889763779526,
                    "duration": 0.11029400000001033
                },
                {
                    "name": "D#4",
                    "midi": 63,
                    "time": 320.7349519999905,
                    "velocity": 0.5748031496062992,
                    "duration": 0.11029400000001033
                },
                {
                    "name": "D#3",
                    "midi": 51,
                    "time": 320.7349519999905,
                    "velocity": 0.4881889763779528,
                    "duration": 0.11029400000001033
                },
                {
                    "name": "B3",
                    "midi": 59,
                    "time": 320.84524599999054,
                    "velocity": 0.5196850393700787,
                    "duration": 0.11029400000001033
                },
                {
                    "name": "B2",
                    "midi": 47,
                    "time": 320.84524599999054,
                    "velocity": 0.4330708661417323,
                    "duration": 0.11029400000001033
                },
                {
                    "name": "C4",
                    "midi": 60,
                    "time": 320.95553999999055,
                    "velocity": 0.5669291338582677,
                    "duration": 0.11029400000001033
                },
                {
                    "name": "C3",
                    "midi": 48,
                    "time": 320.95553999999055,
                    "velocity": 0.47244094488188976,
                    "duration": 0.11029400000001033
                },
                {
                    "name": "G3",
                    "midi": 55,
                    "time": 321.06583399999056,
                    "velocity": 0.5354330708661418,
                    "duration": 0.11029400000001033
                },
                {
                    "name": "G2",
                    "midi": 43,
                    "time": 321.06583399999056,
                    "velocity": 0.4409448818897638,
                    "duration": 0.11029400000001033
                },
                {
                    "name": "G#3",
                    "midi": 56,
                    "time": 321.17612799999057,
                    "velocity": 0.5590551181102362,
                    "duration": 0.11029400000001033
                },
                {
                    "name": "G#2",
                    "midi": 44,
                    "time": 321.17612799999057,
                    "velocity": 0.47244094488188976,
                    "duration": 0.11029400000001033
                },
                {
                    "name": "F3",
                    "midi": 53,
                    "time": 321.2864219999906,
                    "velocity": 0.5433070866141733,
                    "duration": 0.11029400000001033
                },
                {
                    "name": "F2",
                    "midi": 41,
                    "time": 321.2864219999906,
                    "velocity": 0.4566929133858268,
                    "duration": 0.11029400000001033
                },
                {
                    "name": "F#3",
                    "midi": 54,
                    "time": 321.3967159999906,
                    "velocity": 0.5826771653543307,
                    "duration": 0.11029400000001033
                },
                {
                    "name": "F#2",
                    "midi": 42,
                    "time": 321.3967159999906,
                    "velocity": 0.4881889763779528,
                    "duration": 0.11029400000001033
                },
                {
                    "name": "D3",
                    "midi": 50,
                    "time": 321.5070099999906,
                    "velocity": 0.5511811023622047,
                    "duration": 0.11029400000001033
                },
                {
                    "name": "D2",
                    "midi": 38,
                    "time": 321.5070099999906,
                    "velocity": 0.47244094488188976,
                    "duration": 0.11029400000001033
                },
                {
                    "name": "D#3",
                    "midi": 51,
                    "time": 321.6173039999906,
                    "velocity": 0.6062992125984252,
                    "duration": 0.11029400000001033
                },
                {
                    "name": "D#2",
                    "midi": 39,
                    "time": 321.6173039999906,
                    "velocity": 0.5039370078740157,
                    "duration": 0.11029400000001033
                },
                {
                    "name": "B2",
                    "midi": 47,
                    "time": 321.7275979999906,
                    "velocity": 0.5826771653543307,
                    "duration": 0.11029400000001033
                },
                {
                    "name": "B1",
                    "midi": 35,
                    "time": 321.7275979999906,
                    "velocity": 0.4881889763779528,
                    "duration": 0.11029400000001033
                },
                {
                    "name": "C3",
                    "midi": 48,
                    "time": 321.83789199999063,
                    "velocity": 0.6299212598425197,
                    "duration": 0.11029400000001033
                },
                {
                    "name": "C2",
                    "midi": 36,
                    "time": 321.83789199999063,
                    "velocity": 0.5275590551181102,
                    "duration": 0.11029400000001033
                },
                {
                    "name": "G#2",
                    "midi": 44,
                    "time": 321.94818599999064,
                    "velocity": 0.5905511811023622,
                    "duration": 0.11029400000001033
                },
                {
                    "name": "G#1",
                    "midi": 32,
                    "time": 321.94818599999064,
                    "velocity": 0.5039370078740157,
                    "duration": 0.11029400000001033
                },
                {
                    "name": "D#2",
                    "midi": 39,
                    "time": 321.94818599999064,
                    "velocity": 0.5039370078740157,
                    "duration": 0.11029400000001033
                },
                {
                    "name": "F#2",
                    "midi": 42,
                    "time": 322.05847999999065,
                    "velocity": 0.6299212598425197,
                    "duration": 0.05514699999997674
                },
                {
                    "name": "A1",
                    "midi": 33,
                    "time": 322.05847999999065,
                    "velocity": 0.5354330708661418,
                    "duration": 0.05514699999997674
                },
                {
                    "name": "A2",
                    "midi": 45,
                    "time": 322.11362699999063,
                    "velocity": 0.5905511811023622,
                    "duration": 0.05514699999997674
                },
                {
                    "name": "F#2",
                    "midi": 42,
                    "time": 322.1687739999906,
                    "velocity": 0.6299212598425197,
                    "duration": 0.05514699999997674
                },
                {
                    "name": "A1",
                    "midi": 33,
                    "time": 322.1687739999906,
                    "velocity": 0.5354330708661418,
                    "duration": 0.05514699999997674
                },
                {
                    "name": "A2",
                    "midi": 45,
                    "time": 322.2239209999906,
                    "velocity": 0.5826771653543307,
                    "duration": 0.05514699999997674
                },
                {
                    "name": "F#2",
                    "midi": 42,
                    "time": 322.27906799999056,
                    "velocity": 0.5826771653543307,
                    "duration": 0.05514699999997674
                },
                {
                    "name": "A1",
                    "midi": 33,
                    "time": 322.27906799999056,
                    "velocity": 0.4881889763779528,
                    "duration": 0.05514699999997674
                },
                {
                    "name": "A2",
                    "midi": 45,
                    "time": 322.33421499999054,
                    "velocity": 0.6299212598425197,
                    "duration": 0.05514699999997674
                },
                {
                    "name": "F#2",
                    "midi": 42,
                    "time": 322.3893619999905,
                    "velocity": 0.5826771653543307,
                    "duration": 0.05514699999997674
                },
                {
                    "name": "A1",
                    "midi": 33,
                    "time": 322.3893619999905,
                    "velocity": 0.4881889763779528,
                    "duration": 0.05514699999997674
                },
                {
                    "name": "A2",
                    "midi": 45,
                    "time": 322.4445089999905,
                    "velocity": 0.6299212598425197,
                    "duration": 0.027573500000016793
                },
                {
                    "name": "A1",
                    "midi": 33,
                    "time": 322.4720824999905,
                    "velocity": 0.5748031496062992,
                    "duration": 0.24816150000003745
                },
                {
                    "name": "F#2",
                    "midi": 42,
                    "time": 322.4858692499905,
                    "velocity": 0.5748031496062992,
                    "duration": 0.23437475000002905
                },
                {
                    "name": "A2",
                    "midi": 45,
                    "time": 322.4996559999905,
                    "velocity": 0.5748031496062992,
                    "duration": 0.22058800000002066
                },
                {
                    "name": "C#2",
                    "midi": 37,
                    "time": 322.94083199999056,
                    "velocity": 0.6299212598425197,
                    "duration": 0.05514699999997674
                },
                {
                    "name": "F#1",
                    "midi": 30,
                    "time": 322.94083199999056,
                    "velocity": 0.5354330708661418,
                    "duration": 0.05514699999997674
                },
                {
                    "name": "F#2",
                    "midi": 42,
                    "time": 322.99597899999054,
                    "velocity": 0.5905511811023622,
                    "duration": 0.05514699999997674
                },
                {
                    "name": "C#2",
                    "midi": 37,
                    "time": 323.0511259999905,
                    "velocity": 0.6299212598425197,
                    "duration": 0.05514699999997674
                },
                {
                    "name": "F#1",
                    "midi": 30,
                    "time": 323.0511259999905,
                    "velocity": 0.5354330708661418,
                    "duration": 0.05514699999997674
                },
                {
                    "name": "F#2",
                    "midi": 42,
                    "time": 323.1062729999905,
                    "velocity": 0.5826771653543307,
                    "duration": 0.05514699999997674
                },
                {
                    "name": "C#2",
                    "midi": 37,
                    "time": 323.16141999999047,
                    "velocity": 0.5826771653543307,
                    "duration": 0.05514699999997674
                },
                {
                    "name": "F#1",
                    "midi": 30,
                    "time": 323.16141999999047,
                    "velocity": 0.4881889763779528,
                    "duration": 0.05514699999997674
                },
                {
                    "name": "F#2",
                    "midi": 42,
                    "time": 323.21656699999045,
                    "velocity": 0.6299212598425197,
                    "duration": 0.05514699999997674
                },
                {
                    "name": "C#2",
                    "midi": 37,
                    "time": 323.2717139999904,
                    "velocity": 0.5826771653543307,
                    "duration": 0.05514699999997674
                },
                {
                    "name": "F#1",
                    "midi": 30,
                    "time": 323.2717139999904,
                    "velocity": 0.4881889763779528,
                    "duration": 0.05514699999997674
                },
                {
                    "name": "F#2",
                    "midi": 42,
                    "time": 323.3268609999904,
                    "velocity": 0.6299212598425197,
                    "duration": 0.027573500000016793
                },
                {
                    "name": "F#1",
                    "midi": 30,
                    "time": 323.3544344999904,
                    "velocity": 0.5748031496062992,
                    "duration": 0.24816150000003745
                },
                {
                    "name": "C#2",
                    "midi": 37,
                    "time": 323.3682212499904,
                    "velocity": 0.5748031496062992,
                    "duration": 0.23437475000002905
                },
                {
                    "name": "F#2",
                    "midi": 42,
                    "time": 323.38200799999044,
                    "velocity": 0.5748031496062992,
                    "duration": 0.22058800000002066
                },
                {
                    "name": "C#1",
                    "midi": 25,
                    "time": 323.8231839999905,
                    "velocity": 0.5354330708661418,
                    "duration": 0.22058800000002066
                },
                {
                    "name": "C#2",
                    "midi": 37,
                    "time": 323.8231839999905,
                    "velocity": 0.5748031496062992,
                    "duration": 0.22058800000002066
                },
                {
                    "name": "F#4",
                    "midi": 66,
                    "time": 324.2643599999905,
                    "velocity": 0.6220472440944882,
                    "duration": 0.22058800000002066
                },
                {
                    "name": "C#4",
                    "midi": 61,
                    "time": 324.2643599999905,
                    "velocity": 0.5275590551181102,
                    "duration": 0.22058800000002066
                },
                {
                    "name": "A3",
                    "midi": 57,
                    "time": 324.2643599999905,
                    "velocity": 0.5275590551181102,
                    "duration": 0.22058800000002066
                },
                {
                    "name": "F#3",
                    "midi": 54,
                    "time": 324.2643599999905,
                    "velocity": 0.5275590551181102,
                    "duration": 0.22058800000002066
                },
                {
                    "name": "C#4",
                    "midi": 61,
                    "time": 324.70553599999056,
                    "velocity": 0.6220472440944882,
                    "duration": 0.22058800000002066
                },
                {
                    "name": "C#3",
                    "midi": 49,
                    "time": 324.70553599999056,
                    "velocity": 0.5275590551181102,
                    "duration": 0.22058800000002066
                },
                {
                    "name": "F3",
                    "midi": 53,
                    "time": 324.70553599999056,
                    "velocity": 0.5275590551181102,
                    "duration": 0.22058800000002066
                },
                {
                    "name": "G#3",
                    "midi": 56,
                    "time": 324.70553599999056,
                    "velocity": 0.5275590551181102,
                    "duration": 0.22058800000002066
                },
                {
                    "name": "G#3",
                    "midi": 56,
                    "time": 324.9261239999906,
                    "velocity": 0.6220472440944882,
                    "duration": 0.22058800000002066
                },
                {
                    "name": "G#2",
                    "midi": 44,
                    "time": 324.9261239999906,
                    "velocity": 0.5275590551181102,
                    "duration": 0.22058800000002066
                },
                {
                    "name": "C3",
                    "midi": 48,
                    "time": 324.9261239999906,
                    "velocity": 0.5275590551181102,
                    "duration": 0.22058800000002066
                },
                {
                    "name": "D#3",
                    "midi": 51,
                    "time": 324.9261239999906,
                    "velocity": 0.5275590551181102,
                    "duration": 0.22058800000002066
                },
                {
                    "name": "C#3",
                    "midi": 49,
                    "time": 325.1467119999906,
                    "velocity": 0.6220472440944882,
                    "duration": 0.22058800000002066
                },
                {
                    "name": "C#2",
                    "midi": 37,
                    "time": 325.1467119999906,
                    "velocity": 0.5275590551181102,
                    "duration": 0.22058800000002066
                },
                {
                    "name": "F2",
                    "midi": 41,
                    "time": 325.1467119999906,
                    "velocity": 0.5275590551181102,
                    "duration": 0.22058800000002066
                },
                {
                    "name": "G#2",
                    "midi": 44,
                    "time": 325.1467119999906,
                    "velocity": 0.5275590551181102,
                    "duration": 0.22058800000002066
                },
                {
                    "name": "G#2",
                    "midi": 44,
                    "time": 325.3672999999906,
                    "velocity": 0.6220472440944882,
                    "duration": 0.22058800000002066
                },
                {
                    "name": "G#1",
                    "midi": 32,
                    "time": 325.3672999999906,
                    "velocity": 0.5275590551181102,
                    "duration": 0.22058800000002066
                },
                {
                    "name": "C2",
                    "midi": 36,
                    "time": 325.3672999999906,
                    "velocity": 0.5275590551181102,
                    "duration": 0.22058800000002066
                },
                {
                    "name": "D#2",
                    "midi": 39,
                    "time": 325.3672999999906,
                    "velocity": 0.5275590551181102,
                    "duration": 0.22058800000002066
                },
                {
                    "name": "C#3",
                    "midi": 49,
                    "time": 325.58788799999064,
                    "velocity": 0.6220472440944882,
                    "duration": 0.22058800000002066
                },
                {
                    "name": "C#2",
                    "midi": 37,
                    "time": 325.58788799999064,
                    "velocity": 0.5275590551181102,
                    "duration": 0.22058800000002066
                },
                {
                    "name": "F2",
                    "midi": 41,
                    "time": 325.58788799999064,
                    "velocity": 0.5275590551181102,
                    "duration": 0.22058800000002066
                },
                {
                    "name": "G#2",
                    "midi": 44,
                    "time": 325.58788799999064,
                    "velocity": 0.5275590551181102,
                    "duration": 0.22058800000002066
                },
                {
                    "name": "F#4",
                    "midi": 66,
                    "time": 326.47023999999067,
                    "velocity": 0.6456692913385826,
                    "duration": 0.22058800000002066
                },
                {
                    "name": "C#4",
                    "midi": 61,
                    "time": 326.47023999999067,
                    "velocity": 0.5511811023622047,
                    "duration": 0.22058800000002066
                },
                {
                    "name": "A#3",
                    "midi": 58,
                    "time": 326.47023999999067,
                    "velocity": 0.5511811023622047,
                    "duration": 0.22058800000002066
                },
                {
                    "name": "F#3",
                    "midi": 54,
                    "time": 326.47023999999067,
                    "velocity": 0.5511811023622047,
                    "duration": 0.22058800000002066
                },
                {
                    "name": "C#3",
                    "midi": 49,
                    "time": 327.3525919999907,
                    "velocity": 0.6771653543307087,
                    "duration": 0.22058800000002066
                },
                {
                    "name": "C#2",
                    "midi": 37,
                    "time": 327.3525919999907,
                    "velocity": 0.5748031496062992,
                    "duration": 0.22058800000002066
                },
                {
                    "name": "F2",
                    "midi": 41,
                    "time": 327.3525919999907,
                    "velocity": 0.5748031496062992,
                    "duration": 0.22058800000002066
                },
                {
                    "name": "G#2",
                    "midi": 44,
                    "time": 327.3525919999907,
                    "velocity": 0.6062992125984252,
                    "duration": 0.22058800000002066
                }
            ],
            "controlChanges": {
                "7": [
                    {
                        "number": 7,
                        "time": 0,
                        "value": 0.7874015748031497
                    }
                ],
                "10": [
                    {
                        "number": 10,
                        "time": 0,
                        "value": 0.5039370078740157
                    }
                ]
            },
            "id": 2,
            "name": "Piano left",
            "instrumentNumber": 0,
            "instrument": "acoustic grand piano",
            "instrumentFamily": "piano",
            "channelNumber": 0,
            "isPercussion": false
        },
        {
            "startTime": 12.697596750000002,
            "duration": 275.29382399999946,
            "length": 372,
            "notes": [
                {
                    "name": "E2",
                    "midi": 40,
                    "time": 12.697596750000002,
                    "velocity": 0.30708661417322836,
                    "duration": 0.3170952499999977
                },
                {
                    "name": "B2",
                    "midi": 47,
                    "time": 12.711383500000002,
                    "velocity": 0.3464566929133858,
                    "duration": 0.3033084999999982
                },
                {
                    "name": "D3",
                    "midi": 50,
                    "time": 12.725170250000001,
                    "velocity": 0.3700787401574803,
                    "duration": 0.2895217499999987
                },
                {
                    "name": "G#3",
                    "midi": 56,
                    "time": 12.738957000000001,
                    "velocity": 0.4015748031496063,
                    "duration": 0.2757349999999992
                },
                {
                    "name": "E2",
                    "midi": 40,
                    "time": 13.57994875,
                    "velocity": 0.30708661417322836,
                    "duration": 0.3170952499999977
                },
                {
                    "name": "B2",
                    "midi": 47,
                    "time": 13.5937355,
                    "velocity": 0.3464566929133858,
                    "duration": 0.3033084999999982
                },
                {
                    "name": "D3",
                    "midi": 50,
                    "time": 13.607522249999999,
                    "velocity": 0.3700787401574803,
                    "duration": 0.2895217499999987
                },
                {
                    "name": "G#3",
                    "midi": 56,
                    "time": 13.621308999999998,
                    "velocity": 0.4015748031496063,
                    "duration": 0.2757349999999992
                },
                {
                    "name": "E2",
                    "midi": 40,
                    "time": 14.462300749999997,
                    "velocity": 0.30708661417322836,
                    "duration": 0.3170952499999977
                },
                {
                    "name": "B2",
                    "midi": 47,
                    "time": 14.476087499999997,
                    "velocity": 0.3464566929133858,
                    "duration": 0.3033084999999982
                },
                {
                    "name": "D3",
                    "midi": 50,
                    "time": 14.489874249999996,
                    "velocity": 0.3700787401574803,
                    "duration": 0.2895217499999987
                },
                {
                    "name": "F#3",
                    "midi": 54,
                    "time": 14.503660999999996,
                    "velocity": 0.4015748031496063,
                    "duration": 0.2757349999999992
                },
                {
                    "name": "E2",
                    "midi": 40,
                    "time": 15.344652749999996,
                    "velocity": 0.30708661417322836,
                    "duration": 0.3170952499999977
                },
                {
                    "name": "B2",
                    "midi": 47,
                    "time": 15.358439499999996,
                    "velocity": 0.3464566929133858,
                    "duration": 0.3033084999999982
                },
                {
                    "name": "D3",
                    "midi": 50,
                    "time": 15.372226249999995,
                    "velocity": 0.3700787401574803,
                    "duration": 0.2895217499999987
                },
                {
                    "name": "G#3",
                    "midi": 56,
                    "time": 15.386012999999995,
                    "velocity": 0.4015748031496063,
                    "duration": 0.2757349999999992
                },
                {
                    "name": "E2",
                    "midi": 40,
                    "time": 16.227004749999992,
                    "velocity": 0.33858267716535434,
                    "duration": 0.3170952500000048
                },
                {
                    "name": "C#3",
                    "midi": 49,
                    "time": 16.240791499999993,
                    "velocity": 0.3700787401574803,
                    "duration": 0.30330850000000353
                },
                {
                    "name": "E3",
                    "midi": 52,
                    "time": 16.254578249999994,
                    "velocity": 0.3937007874015748,
                    "duration": 0.28952175000000224
                },
                {
                    "name": "A3",
                    "midi": 57,
                    "time": 16.268364999999996,
                    "velocity": 0.4251968503937008,
                    "duration": 0.27573500000000095
                },
                {
                    "name": "E2",
                    "midi": 40,
                    "time": 17.109356749999996,
                    "velocity": 0.33858267716535434,
                    "duration": 0.3170952500000048
                },
                {
                    "name": "C#3",
                    "midi": 49,
                    "time": 17.123143499999998,
                    "velocity": 0.3700787401574803,
                    "duration": 0.30330850000000353
                },
                {
                    "name": "E3",
                    "midi": 52,
                    "time": 17.13693025,
                    "velocity": 0.3937007874015748,
                    "duration": 0.28952175000000224
                },
                {
                    "name": "A3",
                    "midi": 57,
                    "time": 17.150717,
                    "velocity": 0.4251968503937008,
                    "duration": 0.27573500000000095
                },
                {
                    "name": "E2",
                    "midi": 40,
                    "time": 17.99170875,
                    "velocity": 0.33858267716535434,
                    "duration": 0.3170952500000048
                },
                {
                    "name": "C3",
                    "midi": 48,
                    "time": 18.005495500000002,
                    "velocity": 0.3700787401574803,
                    "duration": 0.30330850000000353
                },
                {
                    "name": "D#3",
                    "midi": 51,
                    "time": 18.019282250000003,
                    "velocity": 0.3937007874015748,
                    "duration": 0.28952175000000224
                },
                {
                    "name": "A3",
                    "midi": 57,
                    "time": 18.033069000000005,
                    "velocity": 0.4251968503937008,
                    "duration": 0.27573500000000095
                },
                {
                    "name": "E2",
                    "midi": 40,
                    "time": 18.874060750000005,
                    "velocity": 0.33858267716535434,
                    "duration": 0.3170952500000048
                },
                {
                    "name": "C#3",
                    "midi": 49,
                    "time": 18.887847500000007,
                    "velocity": 0.3700787401574803,
                    "duration": 0.30330850000000353
                },
                {
                    "name": "E3",
                    "midi": 52,
                    "time": 18.901634250000008,
                    "velocity": 0.3937007874015748,
                    "duration": 0.28952175000000224
                },
                {
                    "name": "A3",
                    "midi": 57,
                    "time": 18.91542100000001,
                    "velocity": 0.4251968503937008,
                    "duration": 0.27573500000000095
                },
                {
                    "name": "D#2",
                    "midi": 39,
                    "time": 19.32902350000001,
                    "velocity": 0.3779527559055118,
                    "duration": 1.847424499999999
                },
                {
                    "name": "C#3",
                    "midi": 49,
                    "time": 19.34281025000001,
                    "velocity": 0.3858267716535433,
                    "duration": 1.8336377499999976
                },
                {
                    "name": "F#3",
                    "midi": 54,
                    "time": 19.35659700000001,
                    "velocity": 0.4015748031496063,
                    "duration": 1.8198509999999963
                },
                {
                    "name": "G6",
                    "midi": 91,
                    "time": 178.6762800000002,
                    "velocity": 0.3700787401574803,
                    "duration": 0.0533087666666745
                },
                {
                    "name": "G#6",
                    "midi": 92,
                    "time": 178.72958876666686,
                    "velocity": 0.3700787401574803,
                    "duration": 0.0533087666666745
                },
                {
                    "name": "A#6",
                    "midi": 94,
                    "time": 178.78289753333354,
                    "velocity": 0.3700787401574803,
                    "duration": 0.05330876666664608
                },
                {
                    "name": "G#6",
                    "midi": 92,
                    "time": 178.83528718333352,
                    "velocity": 0.3700787401574803,
                    "duration": 0.039522016666666104
                },
                {
                    "name": "A#6",
                    "midi": 94,
                    "time": 178.8748092000002,
                    "velocity": 0.33070866141732286,
                    "duration": 0.039522016666666104
                },
                {
                    "name": "G#6",
                    "midi": 92,
                    "time": 178.91433121666685,
                    "velocity": 0.3700787401574803,
                    "duration": 0.039522016666666104
                },
                {
                    "name": "A#6",
                    "midi": 94,
                    "time": 178.95477235000018,
                    "velocity": 0.31496062992125984,
                    "duration": 0.039522016666666104
                },
                {
                    "name": "G#6",
                    "midi": 92,
                    "time": 178.99429436666685,
                    "velocity": 0.3700787401574803,
                    "duration": 0.039522016666666104
                },
                {
                    "name": "A#6",
                    "midi": 94,
                    "time": 179.03381638333352,
                    "velocity": 0.3228346456692913,
                    "duration": 0.039522016666666104
                },
                {
                    "name": "G#6",
                    "midi": 92,
                    "time": 179.07333840000018,
                    "velocity": 0.3700787401574803,
                    "duration": 0.039522016666666104
                },
                {
                    "name": "A#6",
                    "midi": 94,
                    "time": 179.11286041666685,
                    "velocity": 0.3228346456692913,
                    "duration": 0.039522016666666104
                },
                {
                    "name": "G#6",
                    "midi": 92,
                    "time": 179.15330155000018,
                    "velocity": 0.3700787401574803,
                    "duration": 0.039522016666666104
                },
                {
                    "name": "A#6",
                    "midi": 94,
                    "time": 179.19282356666685,
                    "velocity": 0.3228346456692913,
                    "duration": 0.039522016666666104
                },
                {
                    "name": "G#6",
                    "midi": 92,
                    "time": 179.2323455833335,
                    "velocity": 0.3700787401574803,
                    "duration": 0.039522016666666104
                },
                {
                    "name": "A#6",
                    "midi": 94,
                    "time": 179.27186760000018,
                    "velocity": 0.33070866141732286,
                    "duration": 0.039522016666666104
                },
                {
                    "name": "G#6",
                    "midi": 92,
                    "time": 179.31138961666684,
                    "velocity": 0.3700787401574803,
                    "duration": 0.039522016666666104
                },
                {
                    "name": "A#6",
                    "midi": 94,
                    "time": 179.35183075000018,
                    "velocity": 0.3228346456692913,
                    "duration": 0.039522016666666104
                },
                {
                    "name": "G#6",
                    "midi": 92,
                    "time": 179.39135276666684,
                    "velocity": 0.3700787401574803,
                    "duration": 0.039522016666666104
                },
                {
                    "name": "A#6",
                    "midi": 94,
                    "time": 179.4308747833335,
                    "velocity": 0.3228346456692913,
                    "duration": 0.039522016666666104
                },
                {
                    "name": "G#6",
                    "midi": 92,
                    "time": 179.47039680000017,
                    "velocity": 0.3700787401574803,
                    "duration": 0.039522016666666104
                },
                {
                    "name": "A#6",
                    "midi": 94,
                    "time": 179.50991881666684,
                    "velocity": 0.33070866141732286,
                    "duration": 0.039522016666666104
                },
                {
                    "name": "G#6",
                    "midi": 92,
                    "time": 179.55863200000016,
                    "velocity": 0.3700787401574803,
                    "duration": 0.039522016666666104
                },
                {
                    "name": "A#6",
                    "midi": 94,
                    "time": 179.59815401666683,
                    "velocity": 0.3228346456692913,
                    "duration": 0.039522016666666104
                },
                {
                    "name": "G#6",
                    "midi": 92,
                    "time": 179.63859515000016,
                    "velocity": 0.3700787401574803,
                    "duration": 0.039522016666666104
                },
                {
                    "name": "A#6",
                    "midi": 94,
                    "time": 179.67811716666682,
                    "velocity": 0.3228346456692913,
                    "duration": 0.039522016666666104
                },
                {
                    "name": "G#6",
                    "midi": 92,
                    "time": 179.7176391833335,
                    "velocity": 0.3700787401574803,
                    "duration": 0.039522016666666104
                },
                {
                    "name": "A#6",
                    "midi": 94,
                    "time": 179.75716120000016,
                    "velocity": 0.33070866141732286,
                    "duration": 0.039522016666666104
                },
                {
                    "name": "G#6",
                    "midi": 92,
                    "time": 179.79668321666682,
                    "velocity": 0.3700787401574803,
                    "duration": 0.039522016666666104
                },
                {
                    "name": "A#6",
                    "midi": 94,
                    "time": 179.83712435000015,
                    "velocity": 0.31496062992125984,
                    "duration": 0.039522016666666104
                },
                {
                    "name": "G#6",
                    "midi": 92,
                    "time": 179.87664636666682,
                    "velocity": 0.3700787401574803,
                    "duration": 0.039522016666666104
                },
                {
                    "name": "A#6",
                    "midi": 94,
                    "time": 179.91616838333348,
                    "velocity": 0.3228346456692913,
                    "duration": 0.039522016666666104
                },
                {
                    "name": "G#6",
                    "midi": 92,
                    "time": 179.95569040000015,
                    "velocity": 0.3700787401574803,
                    "duration": 0.039522016666666104
                },
                {
                    "name": "A#6",
                    "midi": 94,
                    "time": 179.99521241666682,
                    "velocity": 0.3228346456692913,
                    "duration": 0.039522016666666104
                },
                {
                    "name": "G#6",
                    "midi": 92,
                    "time": 180.03565355000015,
                    "velocity": 0.3700787401574803,
                    "duration": 0.039522016666666104
                },
                {
                    "name": "A#6",
                    "midi": 94,
                    "time": 180.07517556666681,
                    "velocity": 0.3228346456692913,
                    "duration": 0.039522016666666104
                },
                {
                    "name": "G#6",
                    "midi": 92,
                    "time": 180.11469758333348,
                    "velocity": 0.3700787401574803,
                    "duration": 0.039522016666666104
                },
                {
                    "name": "A#6",
                    "midi": 94,
                    "time": 180.15421960000015,
                    "velocity": 0.33070866141732286,
                    "duration": 0.039522016666666104
                },
                {
                    "name": "G#6",
                    "midi": 92,
                    "time": 180.1937416166668,
                    "velocity": 0.3700787401574803,
                    "duration": 0.039522016666666104
                },
                {
                    "name": "A#6",
                    "midi": 94,
                    "time": 180.23418275000014,
                    "velocity": 0.3228346456692913,
                    "duration": 0.039522016666666104
                },
                {
                    "name": "G#6",
                    "midi": 92,
                    "time": 180.2737047666668,
                    "velocity": 0.3700787401574803,
                    "duration": 0.039522016666666104
                },
                {
                    "name": "A#6",
                    "midi": 94,
                    "time": 180.31322678333348,
                    "velocity": 0.3228346456692913,
                    "duration": 0.039522016666666104
                },
                {
                    "name": "G#6",
                    "midi": 92,
                    "time": 180.35274880000014,
                    "velocity": 0.3700787401574803,
                    "duration": 0.039522016666666104
                },
                {
                    "name": "A#6",
                    "midi": 94,
                    "time": 180.3922708166668,
                    "velocity": 0.33070866141732286,
                    "duration": 0.039522016666666104
                },
                {
                    "name": "G#6",
                    "midi": 92,
                    "time": 180.44098400000013,
                    "velocity": 0.3700787401574803,
                    "duration": 0.039522016666666104
                },
                {
                    "name": "A#6",
                    "midi": 94,
                    "time": 180.4805060166668,
                    "velocity": 0.3228346456692913,
                    "duration": 0.039522016666666104
                },
                {
                    "name": "G#6",
                    "midi": 92,
                    "time": 180.52094715000013,
                    "velocity": 0.3700787401574803,
                    "duration": 0.039522016666666104
                },
                {
                    "name": "A#6",
                    "midi": 94,
                    "time": 180.5604691666668,
                    "velocity": 0.3228346456692913,
                    "duration": 0.039522016666666104
                },
                {
                    "name": "G#6",
                    "midi": 92,
                    "time": 180.59999118333346,
                    "velocity": 0.3700787401574803,
                    "duration": 0.039522016666666104
                },
                {
                    "name": "A#6",
                    "midi": 94,
                    "time": 180.63951320000012,
                    "velocity": 0.33070866141732286,
                    "duration": 0.039522016666666104
                },
                {
                    "name": "G#6",
                    "midi": 92,
                    "time": 180.6790352166668,
                    "velocity": 0.3700787401574803,
                    "duration": 0.039522016666666104
                },
                {
                    "name": "A#6",
                    "midi": 94,
                    "time": 180.71947635000012,
                    "velocity": 0.31496062992125984,
                    "duration": 0.039522016666666104
                },
                {
                    "name": "G#6",
                    "midi": 92,
                    "time": 180.7589983666668,
                    "velocity": 0.3700787401574803,
                    "duration": 0.039522016666666104
                },
                {
                    "name": "A#6",
                    "midi": 94,
                    "time": 180.79852038333345,
                    "velocity": 0.3228346456692913,
                    "duration": 0.039522016666666104
                },
                {
                    "name": "G#6",
                    "midi": 92,
                    "time": 180.83804240000012,
                    "velocity": 0.3700787401574803,
                    "duration": 0.039522016666666104
                },
                {
                    "name": "A#6",
                    "midi": 94,
                    "time": 180.8775644166668,
                    "velocity": 0.3228346456692913,
                    "duration": 0.039522016666694526
                },
                {
                    "name": "G#6",
                    "midi": 92,
                    "time": 180.91800555000015,
                    "velocity": 0.3700787401574803,
                    "duration": 0.039522016666666104
                },
                {
                    "name": "A#6",
                    "midi": 94,
                    "time": 180.9575275666668,
                    "velocity": 0.3228346456692913,
                    "duration": 0.039522016666666104
                },
                {
                    "name": "G#6",
                    "midi": 92,
                    "time": 180.99704958333348,
                    "velocity": 0.3700787401574803,
                    "duration": 0.039522016666666104
                },
                {
                    "name": "A#6",
                    "midi": 94,
                    "time": 181.03657160000014,
                    "velocity": 0.33070866141732286,
                    "duration": 0.039522016666666104
                },
                {
                    "name": "G#6",
                    "midi": 92,
                    "time": 181.0760936166668,
                    "velocity": 0.3700787401574803,
                    "duration": 0.039522016666666104
                },
                {
                    "name": "A#6",
                    "midi": 94,
                    "time": 181.11653475000014,
                    "velocity": 0.3228346456692913,
                    "duration": 0.039522016666666104
                },
                {
                    "name": "G#6",
                    "midi": 92,
                    "time": 181.1560567666668,
                    "velocity": 0.3700787401574803,
                    "duration": 0.039522016666666104
                },
                {
                    "name": "A#6",
                    "midi": 94,
                    "time": 181.19557878333347,
                    "velocity": 0.3228346456692913,
                    "duration": 0.039522016666666104
                },
                {
                    "name": "G#6",
                    "midi": 92,
                    "time": 181.23510080000014,
                    "velocity": 0.3700787401574803,
                    "duration": 0.039522016666666104
                },
                {
                    "name": "A#6",
                    "midi": 94,
                    "time": 181.2746228166668,
                    "velocity": 0.33070866141732286,
                    "duration": 0.039522016666666104
                },
                {
                    "name": "G#6",
                    "midi": 92,
                    "time": 181.32333600000013,
                    "velocity": 0.3700787401574803,
                    "duration": 0.039522016666666104
                },
                {
                    "name": "A#6",
                    "midi": 94,
                    "time": 181.3628580166668,
                    "velocity": 0.3228346456692913,
                    "duration": 0.039522016666666104
                },
                {
                    "name": "G#6",
                    "midi": 92,
                    "time": 181.40329915000012,
                    "velocity": 0.3700787401574803,
                    "duration": 0.039522016666666104
                },
                {
                    "name": "A#6",
                    "midi": 94,
                    "time": 181.4428211666668,
                    "velocity": 0.3228346456692913,
                    "duration": 0.039522016666666104
                },
                {
                    "name": "G#6",
                    "midi": 92,
                    "time": 181.48234318333346,
                    "velocity": 0.3700787401574803,
                    "duration": 0.039522016666666104
                },
                {
                    "name": "A#6",
                    "midi": 94,
                    "time": 181.52186520000012,
                    "velocity": 0.33070866141732286,
                    "duration": 0.039522016666666104
                },
                {
                    "name": "G#6",
                    "midi": 92,
                    "time": 181.5613872166668,
                    "velocity": 0.3700787401574803,
                    "duration": 0.039522016666666104
                },
                {
                    "name": "A#6",
                    "midi": 94,
                    "time": 181.60182835000012,
                    "velocity": 0.31496062992125984,
                    "duration": 0.039522016666666104
                },
                {
                    "name": "G#6",
                    "midi": 92,
                    "time": 181.64135036666679,
                    "velocity": 0.3700787401574803,
                    "duration": 0.039522016666666104
                },
                {
                    "name": "A#6",
                    "midi": 94,
                    "time": 181.68087238333345,
                    "velocity": 0.3228346456692913,
                    "duration": 0.039522016666666104
                },
                {
                    "name": "G#6",
                    "midi": 92,
                    "time": 181.72039440000012,
                    "velocity": 0.3700787401574803,
                    "duration": 0.039522016666666104
                },
                {
                    "name": "A#6",
                    "midi": 94,
                    "time": 181.75991641666678,
                    "velocity": 0.3228346456692913,
                    "duration": 0.039522016666666104
                },
                {
                    "name": "G#6",
                    "midi": 92,
                    "time": 181.80035755000011,
                    "velocity": 0.3700787401574803,
                    "duration": 0.039522016666666104
                },
                {
                    "name": "A#6",
                    "midi": 94,
                    "time": 181.83987956666678,
                    "velocity": 0.3228346456692913,
                    "duration": 0.039522016666666104
                },
                {
                    "name": "G#6",
                    "midi": 92,
                    "time": 181.87940158333345,
                    "velocity": 0.3700787401574803,
                    "duration": 0.050551416666678506
                },
                {
                    "name": "A#6",
                    "midi": 94,
                    "time": 181.92995300000013,
                    "velocity": 0.33070866141732286,
                    "duration": 0.055147000000005164
                },
                {
                    "name": "G#6",
                    "midi": 92,
                    "time": 181.98510000000013,
                    "velocity": 0.3700787401574803,
                    "duration": 0.055147000000005164
                },
                {
                    "name": "A#6",
                    "midi": 94,
                    "time": 182.04024700000014,
                    "velocity": 0.33070866141732286,
                    "duration": 0.055147000000005164
                },
                {
                    "name": "A#6",
                    "midi": 94,
                    "time": 182.20568800000015,
                    "velocity": 0.5039370078740157,
                    "duration": 0.039522016666666104
                },
                {
                    "name": "C7",
                    "midi": 96,
                    "time": 182.24521001666682,
                    "velocity": 0.3228346456692913,
                    "duration": 0.039522016666666104
                },
                {
                    "name": "A#6",
                    "midi": 94,
                    "time": 182.28565115000015,
                    "velocity": 0.3700787401574803,
                    "duration": 0.039522016666666104
                },
                {
                    "name": "C7",
                    "midi": 96,
                    "time": 182.32517316666681,
                    "velocity": 0.3228346456692913,
                    "duration": 0.039522016666666104
                },
                {
                    "name": "A#6",
                    "midi": 94,
                    "time": 182.36469518333348,
                    "velocity": 0.3700787401574803,
                    "duration": 0.039522016666666104
                },
                {
                    "name": "C7",
                    "midi": 96,
                    "time": 182.40421720000015,
                    "velocity": 0.33070866141732286,
                    "duration": 0.039522016666666104
                },
                {
                    "name": "A#6",
                    "midi": 94,
                    "time": 182.4437392166668,
                    "velocity": 0.48031496062992124,
                    "duration": 0.039522016666666104
                },
                {
                    "name": "C7",
                    "midi": 96,
                    "time": 182.48418035000014,
                    "velocity": 0.31496062992125984,
                    "duration": 0.039522016666666104
                },
                {
                    "name": "A#6",
                    "midi": 94,
                    "time": 182.5237023666668,
                    "velocity": 0.3700787401574803,
                    "duration": 0.039522016666666104
                },
                {
                    "name": "C7",
                    "midi": 96,
                    "time": 182.56322438333348,
                    "velocity": 0.3228346456692913,
                    "duration": 0.039522016666666104
                },
                {
                    "name": "A#6",
                    "midi": 94,
                    "time": 182.60274640000014,
                    "velocity": 0.3700787401574803,
                    "duration": 0.039522016666666104
                },
                {
                    "name": "C7",
                    "midi": 96,
                    "time": 182.6422684166668,
                    "velocity": 0.3228346456692913,
                    "duration": 0.039522016666666104
                },
                {
                    "name": "A#6",
                    "midi": 94,
                    "time": 182.68270955000014,
                    "velocity": 0.3700787401574803,
                    "duration": 0.039522016666666104
                },
                {
                    "name": "C7",
                    "midi": 96,
                    "time": 182.7222315666668,
                    "velocity": 0.3228346456692913,
                    "duration": 0.039522016666666104
                },
                {
                    "name": "A#6",
                    "midi": 94,
                    "time": 182.76175358333347,
                    "velocity": 0.3700787401574803,
                    "duration": 0.039522016666666104
                },
                {
                    "name": "C7",
                    "midi": 96,
                    "time": 182.80127560000014,
                    "velocity": 0.33070866141732286,
                    "duration": 0.039522016666666104
                },
                {
                    "name": "A#6",
                    "midi": 94,
                    "time": 182.8407976166668,
                    "velocity": 0.3700787401574803,
                    "duration": 0.039522016666666104
                },
                {
                    "name": "C7",
                    "midi": 96,
                    "time": 182.88123875000014,
                    "velocity": 0.3228346456692913,
                    "duration": 0.039522016666666104
                },
                {
                    "name": "A#6",
                    "midi": 94,
                    "time": 182.9207607666668,
                    "velocity": 0.3700787401574803,
                    "duration": 0.039522016666666104
                },
                {
                    "name": "C7",
                    "midi": 96,
                    "time": 182.96028278333347,
                    "velocity": 0.3228346456692913,
                    "duration": 0.039522016666666104
                },
                {
                    "name": "A#6",
                    "midi": 94,
                    "time": 182.99980480000013,
                    "velocity": 0.3700787401574803,
                    "duration": 0.039522016666666104
                },
                {
                    "name": "C7",
                    "midi": 96,
                    "time": 183.0393268166668,
                    "velocity": 0.33070866141732286,
                    "duration": 0.039522016666666104
                },
                {
                    "name": "A#6",
                    "midi": 94,
                    "time": 183.08804000000012,
                    "velocity": 0.3700787401574803,
                    "duration": 0.03952201666663768
                },
                {
                    "name": "C7",
                    "midi": 96,
                    "time": 183.12756201666676,
                    "velocity": 0.3228346456692913,
                    "duration": 0.039522016666666104
                },
                {
                    "name": "A#6",
                    "midi": 94,
                    "time": 183.1680031500001,
                    "velocity": 0.3700787401574803,
                    "duration": 0.039522016666666104
                },
                {
                    "name": "C7",
                    "midi": 96,
                    "time": 183.20752516666676,
                    "velocity": 0.3228346456692913,
                    "duration": 0.039522016666666104
                },
                {
                    "name": "A#6",
                    "midi": 94,
                    "time": 183.24704718333342,
                    "velocity": 0.3700787401574803,
                    "duration": 0.039522016666666104
                },
                {
                    "name": "C7",
                    "midi": 96,
                    "time": 183.2865692000001,
                    "velocity": 0.33070866141732286,
                    "duration": 0.039522016666666104
                },
                {
                    "name": "A#6",
                    "midi": 94,
                    "time": 183.32609121666675,
                    "velocity": 0.3700787401574803,
                    "duration": 0.039522016666666104
                },
                {
                    "name": "C7",
                    "midi": 96,
                    "time": 183.36653235000009,
                    "velocity": 0.31496062992125984,
                    "duration": 0.039522016666666104
                },
                {
                    "name": "A#6",
                    "midi": 94,
                    "time": 183.40605436666675,
                    "velocity": 0.3700787401574803,
                    "duration": 0.039522016666666104
                },
                {
                    "name": "C7",
                    "midi": 96,
                    "time": 183.44557638333342,
                    "velocity": 0.3228346456692913,
                    "duration": 0.039522016666666104
                },
                {
                    "name": "A#6",
                    "midi": 94,
                    "time": 183.48509840000008,
                    "velocity": 0.3700787401574803,
                    "duration": 0.039522016666666104
                },
                {
                    "name": "C7",
                    "midi": 96,
                    "time": 183.52462041666675,
                    "velocity": 0.3228346456692913,
                    "duration": 0.039522016666666104
                },
                {
                    "name": "A#6",
                    "midi": 94,
                    "time": 183.56506155000008,
                    "velocity": 0.3700787401574803,
                    "duration": 0.039522016666666104
                },
                {
                    "name": "C7",
                    "midi": 96,
                    "time": 183.60458356666675,
                    "velocity": 0.3228346456692913,
                    "duration": 0.039522016666666104
                },
                {
                    "name": "A#6",
                    "midi": 94,
                    "time": 183.6441055833334,
                    "velocity": 0.3700787401574803,
                    "duration": 0.039522016666666104
                },
                {
                    "name": "C7",
                    "midi": 96,
                    "time": 183.68362760000008,
                    "velocity": 0.33070866141732286,
                    "duration": 0.039522016666666104
                },
                {
                    "name": "A#6",
                    "midi": 94,
                    "time": 183.72314961666675,
                    "velocity": 0.3700787401574803,
                    "duration": 0.039522016666666104
                },
                {
                    "name": "C7",
                    "midi": 96,
                    "time": 183.76359075000008,
                    "velocity": 0.3228346456692913,
                    "duration": 0.039522016666666104
                },
                {
                    "name": "C#7",
                    "midi": 97,
                    "time": 183.9703920000001,
                    "velocity": 0.5511811023622047,
                    "duration": 0.039522016666666104
                },
                {
                    "name": "D#7",
                    "midi": 99,
                    "time": 184.00991401666676,
                    "velocity": 0.3228346456692913,
                    "duration": 0.039522016666666104
                },
                {
                    "name": "C#7",
                    "midi": 97,
                    "time": 184.0503551500001,
                    "velocity": 0.3700787401574803,
                    "duration": 0.039522016666666104
                },
                {
                    "name": "D#7",
                    "midi": 99,
                    "time": 184.08987716666675,
                    "velocity": 0.3228346456692913,
                    "duration": 0.039522016666666104
                },
                {
                    "name": "C#7",
                    "midi": 97,
                    "time": 184.12939918333342,
                    "velocity": 0.3700787401574803,
                    "duration": 0.039522016666666104
                },
                {
                    "name": "D#7",
                    "midi": 99,
                    "time": 184.16892120000009,
                    "velocity": 0.33070866141732286,
                    "duration": 0.039522016666666104
                },
                {
                    "name": "C#7",
                    "midi": 97,
                    "time": 184.20844321666675,
                    "velocity": 0.5196850393700787,
                    "duration": 0.039522016666666104
                },
                {
                    "name": "D#7",
                    "midi": 99,
                    "time": 184.24888435000008,
                    "velocity": 0.31496062992125984,
                    "duration": 0.039522016666666104
                },
                {
                    "name": "C#7",
                    "midi": 97,
                    "time": 184.28840636666675,
                    "velocity": 0.3700787401574803,
                    "duration": 0.039522016666666104
                },
                {
                    "name": "D#7",
                    "midi": 99,
                    "time": 184.32792838333341,
                    "velocity": 0.3228346456692913,
                    "duration": 0.039522016666666104
                },
                {
                    "name": "C#7",
                    "midi": 97,
                    "time": 184.36745040000008,
                    "velocity": 0.3700787401574803,
                    "duration": 0.039522016666666104
                },
                {
                    "name": "D#7",
                    "midi": 99,
                    "time": 184.40697241666675,
                    "velocity": 0.3228346456692913,
                    "duration": 0.039522016666666104
                },
                {
                    "name": "C#7",
                    "midi": 97,
                    "time": 184.44741355000008,
                    "velocity": 0.3700787401574803,
                    "duration": 0.039522016666666104
                },
                {
                    "name": "D#7",
                    "midi": 99,
                    "time": 184.48693556666674,
                    "velocity": 0.3228346456692913,
                    "duration": 0.039522016666666104
                },
                {
                    "name": "C#7",
                    "midi": 97,
                    "time": 184.5264575833334,
                    "velocity": 0.3700787401574803,
                    "duration": 0.039522016666666104
                },
                {
                    "name": "D#7",
                    "midi": 99,
                    "time": 184.56597960000008,
                    "velocity": 0.33070866141732286,
                    "duration": 0.039522016666666104
                },
                {
                    "name": "C#7",
                    "midi": 97,
                    "time": 184.60550161666674,
                    "velocity": 0.3700787401574803,
                    "duration": 0.039522016666666104
                },
                {
                    "name": "D#7",
                    "midi": 99,
                    "time": 184.64594275000007,
                    "velocity": 0.3228346456692913,
                    "duration": 0.039522016666666104
                },
                {
                    "name": "C#7",
                    "midi": 97,
                    "time": 184.68546476666674,
                    "velocity": 0.3700787401574803,
                    "duration": 0.039522016666666104
                },
                {
                    "name": "D#7",
                    "midi": 99,
                    "time": 184.7249867833334,
                    "velocity": 0.3228346456692913,
                    "duration": 0.039522016666666104
                },
                {
                    "name": "C#7",
                    "midi": 97,
                    "time": 184.76450880000007,
                    "velocity": 0.3700787401574803,
                    "duration": 0.039522016666666104
                },
                {
                    "name": "D#7",
                    "midi": 99,
                    "time": 184.80403081666674,
                    "velocity": 0.33070866141732286,
                    "duration": 0.039522016666666104
                },
                {
                    "name": "C#7",
                    "midi": 97,
                    "time": 184.85274400000006,
                    "velocity": 0.3700787401574803,
                    "duration": 0.03952201666663768
                },
                {
                    "name": "D#7",
                    "midi": 99,
                    "time": 184.8922660166667,
                    "velocity": 0.3228346456692913,
                    "duration": 0.039522016666666104
                },
                {
                    "name": "C#7",
                    "midi": 97,
                    "time": 184.93270715000003,
                    "velocity": 0.3700787401574803,
                    "duration": 0.039522016666666104
                },
                {
                    "name": "D#7",
                    "midi": 99,
                    "time": 184.9722291666667,
                    "velocity": 0.3228346456692913,
                    "duration": 0.039522016666666104
                },
                {
                    "name": "C#7",
                    "midi": 97,
                    "time": 185.01175118333336,
                    "velocity": 0.3700787401574803,
                    "duration": 0.039522016666666104
                },
                {
                    "name": "D#7",
                    "midi": 99,
                    "time": 185.05127320000003,
                    "velocity": 0.33070866141732286,
                    "duration": 0.039522016666666104
                },
                {
                    "name": "C#7",
                    "midi": 97,
                    "time": 185.0907952166667,
                    "velocity": 0.3700787401574803,
                    "duration": 0.039522016666666104
                },
                {
                    "name": "D#7",
                    "midi": 99,
                    "time": 185.13123635000002,
                    "velocity": 0.31496062992125984,
                    "duration": 0.039522016666666104
                },
                {
                    "name": "C#7",
                    "midi": 97,
                    "time": 185.1707583666667,
                    "velocity": 0.3700787401574803,
                    "duration": 0.039522016666666104
                },
                {
                    "name": "D#7",
                    "midi": 99,
                    "time": 185.21028038333336,
                    "velocity": 0.3228346456692913,
                    "duration": 0.039522016666666104
                },
                {
                    "name": "C#7",
                    "midi": 97,
                    "time": 185.24980240000002,
                    "velocity": 0.3700787401574803,
                    "duration": 0.039522016666666104
                },
                {
                    "name": "D#7",
                    "midi": 99,
                    "time": 185.2893244166667,
                    "velocity": 0.3228346456692913,
                    "duration": 0.039522016666666104
                },
                {
                    "name": "C#7",
                    "midi": 97,
                    "time": 185.32976555000002,
                    "velocity": 0.3700787401574803,
                    "duration": 0.039522016666666104
                },
                {
                    "name": "D#7",
                    "midi": 99,
                    "time": 185.36928756666669,
                    "velocity": 0.3228346456692913,
                    "duration": 0.039522016666666104
                },
                {
                    "name": "C#7",
                    "midi": 97,
                    "time": 185.40880958333335,
                    "velocity": 0.3700787401574803,
                    "duration": 0.039522016666666104
                },
                {
                    "name": "D#7",
                    "midi": 99,
                    "time": 185.44833160000002,
                    "velocity": 0.33070866141732286,
                    "duration": 0.039522016666666104
                },
                {
                    "name": "C#7",
                    "midi": 97,
                    "time": 185.48785361666668,
                    "velocity": 0.3700787401574803,
                    "duration": 0.039522016666666104
                },
                {
                    "name": "D#7",
                    "midi": 99,
                    "time": 185.52737563333335,
                    "velocity": 0.3228346456692913,
                    "duration": 0.03308820000000878
                },
                {
                    "name": "A#6",
                    "midi": 94,
                    "time": 209.55859999999993,
                    "velocity": 0.3700787401574803,
                    "duration": 0.055147000000005164
                },
                {
                    "name": "C7",
                    "midi": 96,
                    "time": 209.61374699999993,
                    "velocity": 0.3228346456692913,
                    "duration": 0.06617640000001757
                },
                {
                    "name": "A#6",
                    "midi": 94,
                    "time": 209.66889399999994,
                    "velocity": 0.3700787401574803,
                    "duration": 0.06617640000001757
                },
                {
                    "name": "C7",
                    "midi": 96,
                    "time": 209.72404099999994,
                    "velocity": 0.3228346456692913,
                    "duration": 0.06617640000001757
                },
                {
                    "name": "A#6",
                    "midi": 94,
                    "time": 209.77918799999995,
                    "velocity": 0.3700787401574803,
                    "duration": 0.055147000000005164
                },
                {
                    "name": "C7",
                    "midi": 96,
                    "time": 209.83433499999995,
                    "velocity": 0.3228346456692913,
                    "duration": 0.06617640000001757
                },
                {
                    "name": "A#6",
                    "midi": 94,
                    "time": 209.88948199999996,
                    "velocity": 0.3700787401574803,
                    "duration": 0.06617640000001757
                },
                {
                    "name": "C7",
                    "midi": 96,
                    "time": 209.94462899999996,
                    "velocity": 0.3228346456692913,
                    "duration": 0.06617640000001757
                },
                {
                    "name": "A#6",
                    "midi": 94,
                    "time": 209.99977599999997,
                    "velocity": 0.3700787401574803,
                    "duration": 0.055147000000005164
                },
                {
                    "name": "C7",
                    "midi": 96,
                    "time": 210.05492299999997,
                    "velocity": 0.3228346456692913,
                    "duration": 0.06617640000001757
                },
                {
                    "name": "A#6",
                    "midi": 94,
                    "time": 210.11006999999998,
                    "velocity": 0.3700787401574803,
                    "duration": 0.06617640000001757
                },
                {
                    "name": "C7",
                    "midi": 96,
                    "time": 210.16521699999998,
                    "velocity": 0.3228346456692913,
                    "duration": 0.06617640000001757
                },
                {
                    "name": "A#6",
                    "midi": 94,
                    "time": 210.220364,
                    "velocity": 0.3700787401574803,
                    "duration": 0.055147000000005164
                },
                {
                    "name": "C7",
                    "midi": 96,
                    "time": 210.275511,
                    "velocity": 0.3228346456692913,
                    "duration": 0.06617640000001757
                },
                {
                    "name": "A#6",
                    "midi": 94,
                    "time": 210.330658,
                    "velocity": 0.3700787401574803,
                    "duration": 0.06617640000001757
                },
                {
                    "name": "C7",
                    "midi": 96,
                    "time": 210.385805,
                    "velocity": 0.3228346456692913,
                    "duration": 0.06617640000001757
                },
                {
                    "name": "A#6",
                    "midi": 94,
                    "time": 210.440952,
                    "velocity": 0.3700787401574803,
                    "duration": 0.055147000000005164
                },
                {
                    "name": "C7",
                    "midi": 96,
                    "time": 210.49609900000002,
                    "velocity": 0.3228346456692913,
                    "duration": 0.06617640000001757
                },
                {
                    "name": "A#6",
                    "midi": 94,
                    "time": 210.55124600000002,
                    "velocity": 0.3700787401574803,
                    "duration": 0.06617640000001757
                },
                {
                    "name": "C7",
                    "midi": 96,
                    "time": 210.60639300000003,
                    "velocity": 0.3228346456692913,
                    "duration": 0.06617640000001757
                },
                {
                    "name": "A#6",
                    "midi": 94,
                    "time": 210.66154000000003,
                    "velocity": 0.3700787401574803,
                    "duration": 0.055147000000005164
                },
                {
                    "name": "C7",
                    "midi": 96,
                    "time": 210.71668700000004,
                    "velocity": 0.3228346456692913,
                    "duration": 0.06617640000001757
                },
                {
                    "name": "A#6",
                    "midi": 94,
                    "time": 210.77183400000004,
                    "velocity": 0.3700787401574803,
                    "duration": 0.06617640000001757
                },
                {
                    "name": "C7",
                    "midi": 96,
                    "time": 210.82698100000005,
                    "velocity": 0.3228346456692913,
                    "duration": 0.06617640000001757
                },
                {
                    "name": "A#6",
                    "midi": 94,
                    "time": 210.88212800000005,
                    "velocity": 0.3700787401574803,
                    "duration": 0.055147000000005164
                },
                {
                    "name": "C7",
                    "midi": 96,
                    "time": 210.93727500000006,
                    "velocity": 0.3228346456692913,
                    "duration": 0.06617640000001757
                },
                {
                    "name": "A#6",
                    "midi": 94,
                    "time": 210.99242200000006,
                    "velocity": 0.3700787401574803,
                    "duration": 0.06617640000001757
                },
                {
                    "name": "C7",
                    "midi": 96,
                    "time": 211.04756900000007,
                    "velocity": 0.3228346456692913,
                    "duration": 0.06617640000001757
                },
                {
                    "name": "A6",
                    "midi": 93,
                    "time": 211.10271600000007,
                    "velocity": 0.3779527559055118,
                    "duration": 0.055147000000005164
                },
                {
                    "name": "A#6",
                    "midi": 94,
                    "time": 211.15786300000008,
                    "velocity": 0.3858267716535433,
                    "duration": 0.06617640000001757
                },
                {
                    "name": "B6",
                    "midi": 95,
                    "time": 211.21301000000008,
                    "velocity": 0.4015748031496063,
                    "duration": 0.06525728333335223
                },
                {
                    "name": "C7",
                    "midi": 96,
                    "time": 211.2681570000001,
                    "velocity": 0.4094488188976378,
                    "duration": 0.06617640000001757
                },
                {
                    "name": "C#7",
                    "midi": 97,
                    "time": 211.3233040000001,
                    "velocity": 0.5196850393700787,
                    "duration": 0.055147000000005164
                },
                {
                    "name": "D#7",
                    "midi": 99,
                    "time": 211.3784510000001,
                    "velocity": 0.3700787401574803,
                    "duration": 0.06617640000001757
                },
                {
                    "name": "C#7",
                    "midi": 97,
                    "time": 211.4335980000001,
                    "velocity": 0.4251968503937008,
                    "duration": 0.06617640000001757
                },
                {
                    "name": "D#7",
                    "midi": 99,
                    "time": 211.4887450000001,
                    "velocity": 0.3779527559055118,
                    "duration": 0.06617640000001757
                },
                {
                    "name": "C#7",
                    "midi": 97,
                    "time": 211.5438920000001,
                    "velocity": 0.4251968503937008,
                    "duration": 0.055147000000005164
                },
                {
                    "name": "D#7",
                    "midi": 99,
                    "time": 211.59903900000012,
                    "velocity": 0.3700787401574803,
                    "duration": 0.06617640000001757
                },
                {
                    "name": "C#7",
                    "midi": 97,
                    "time": 211.65418600000012,
                    "velocity": 0.4094488188976378,
                    "duration": 0.06617640000001757
                },
                {
                    "name": "D#7",
                    "midi": 99,
                    "time": 211.70933300000013,
                    "velocity": 0.3700787401574803,
                    "duration": 0.06617640000001757
                },
                {
                    "name": "C#7",
                    "midi": 97,
                    "time": 211.76448000000013,
                    "velocity": 0.4645669291338583,
                    "duration": 0.055147000000005164
                },
                {
                    "name": "D#7",
                    "midi": 99,
                    "time": 211.81962700000014,
                    "velocity": 0.3700787401574803,
                    "duration": 0.06617640000001757
                },
                {
                    "name": "C#7",
                    "midi": 97,
                    "time": 211.87477400000014,
                    "velocity": 0.4251968503937008,
                    "duration": 0.06617640000001757
                },
                {
                    "name": "D#7",
                    "midi": 99,
                    "time": 211.92992100000015,
                    "velocity": 0.3779527559055118,
                    "duration": 0.06617640000001757
                },
                {
                    "name": "C#7",
                    "midi": 97,
                    "time": 211.98506800000015,
                    "velocity": 0.4094488188976378,
                    "duration": 0.055147000000005164
                },
                {
                    "name": "D#7",
                    "midi": 99,
                    "time": 212.04021500000016,
                    "velocity": 0.3700787401574803,
                    "duration": 0.06617640000001757
                },
                {
                    "name": "C#7",
                    "midi": 97,
                    "time": 212.09536200000016,
                    "velocity": 0.4015748031496063,
                    "duration": 0.06617640000001757
                },
                {
                    "name": "D#7",
                    "midi": 99,
                    "time": 212.15050900000017,
                    "velocity": 0.3779527559055118,
                    "duration": 0.06617640000001757
                },
                {
                    "name": "C#7",
                    "midi": 97,
                    "time": 212.20565600000018,
                    "velocity": 0.4251968503937008,
                    "duration": 0.055147000000005164
                },
                {
                    "name": "D#7",
                    "midi": 99,
                    "time": 212.26080300000018,
                    "velocity": 0.36220472440944884,
                    "duration": 0.06617640000001757
                },
                {
                    "name": "C#7",
                    "midi": 97,
                    "time": 212.31595000000019,
                    "velocity": 0.4094488188976378,
                    "duration": 0.06617640000001757
                },
                {
                    "name": "D#7",
                    "midi": 99,
                    "time": 212.3710970000002,
                    "velocity": 0.36220472440944884,
                    "duration": 0.06617640000001757
                },
                {
                    "name": "C#7",
                    "midi": 97,
                    "time": 212.4262440000002,
                    "velocity": 0.4094488188976378,
                    "duration": 0.055147000000005164
                },
                {
                    "name": "D#7",
                    "midi": 99,
                    "time": 212.4813910000002,
                    "velocity": 0.3464566929133858,
                    "duration": 0.06617640000001757
                },
                {
                    "name": "C#7",
                    "midi": 97,
                    "time": 212.5365380000002,
                    "velocity": 0.4094488188976378,
                    "duration": 0.06617640000001757
                },
                {
                    "name": "D#7",
                    "midi": 99,
                    "time": 212.5916850000002,
                    "velocity": 0.36220472440944884,
                    "duration": 0.06617640000001757
                },
                {
                    "name": "C#7",
                    "midi": 97,
                    "time": 212.64683200000022,
                    "velocity": 0.4094488188976378,
                    "duration": 0.055147000000005164
                },
                {
                    "name": "D#7",
                    "midi": 99,
                    "time": 212.70197900000022,
                    "velocity": 0.3464566929133858,
                    "duration": 0.06617640000001757
                },
                {
                    "name": "C#7",
                    "midi": 97,
                    "time": 212.75712600000023,
                    "velocity": 0.4015748031496063,
                    "duration": 0.06617640000001757
                },
                {
                    "name": "D#7",
                    "midi": 99,
                    "time": 212.81227300000023,
                    "velocity": 0.3464566929133858,
                    "duration": 0.06617640000001757
                },
                {
                    "name": "C#7",
                    "midi": 97,
                    "time": 212.86742000000024,
                    "velocity": 0.3937007874015748,
                    "duration": 0.055147000000005164
                },
                {
                    "name": "D#7",
                    "midi": 99,
                    "time": 212.92256700000024,
                    "velocity": 0.36220472440944884,
                    "duration": 0.06617640000001757
                },
                {
                    "name": "C#7",
                    "midi": 97,
                    "time": 212.97771400000025,
                    "velocity": 0.4015748031496063,
                    "duration": 0.06617640000001757
                },
                {
                    "name": "D#7",
                    "midi": 99,
                    "time": 213.03286100000025,
                    "velocity": 0.36220472440944884,
                    "duration": 0.06617640000001757
                },
                {
                    "name": "C#7",
                    "midi": 97,
                    "time": 213.08800800000026,
                    "velocity": 0.4094488188976378,
                    "duration": 0.055147000000033586
                },
                {
                    "name": "D#7",
                    "midi": 99,
                    "time": 213.1431550000003,
                    "velocity": 0.3464566929133858,
                    "duration": 0.06617640000001757
                },
                {
                    "name": "C#7",
                    "midi": 97,
                    "time": 213.1983020000003,
                    "velocity": 0.4015748031496063,
                    "duration": 0.06617640000001757
                },
                {
                    "name": "D#7",
                    "midi": 99,
                    "time": 213.2534490000003,
                    "velocity": 0.33858267716535434,
                    "duration": 0.06617640000001757
                },
                {
                    "name": "C#7",
                    "midi": 97,
                    "time": 213.3085960000003,
                    "velocity": 0.3937007874015748,
                    "duration": 0.055147000000005164
                },
                {
                    "name": "D#7",
                    "midi": 99,
                    "time": 213.3637430000003,
                    "velocity": 0.33858267716535434,
                    "duration": 0.06617640000001757
                },
                {
                    "name": "C#7",
                    "midi": 97,
                    "time": 213.41889000000032,
                    "velocity": 0.3937007874015748,
                    "duration": 0.06617640000001757
                },
                {
                    "name": "D#7",
                    "midi": 99,
                    "time": 213.47403700000032,
                    "velocity": 0.33858267716535434,
                    "duration": 0.06617640000001757
                },
                {
                    "name": "C#7",
                    "midi": 97,
                    "time": 213.52918400000033,
                    "velocity": 0.3858267716535433,
                    "duration": 0.055147000000005164
                },
                {
                    "name": "D#7",
                    "midi": 99,
                    "time": 213.58433100000033,
                    "velocity": 0.33858267716535434,
                    "duration": 0.06617640000001757
                },
                {
                    "name": "C#7",
                    "midi": 97,
                    "time": 213.63947800000034,
                    "velocity": 0.3937007874015748,
                    "duration": 0.06617640000001757
                },
                {
                    "name": "D#7",
                    "midi": 99,
                    "time": 213.69462500000034,
                    "velocity": 0.33858267716535434,
                    "duration": 0.06617640000001757
                },
                {
                    "name": "C#7",
                    "midi": 97,
                    "time": 213.74977200000035,
                    "velocity": 0.3937007874015748,
                    "duration": 0.055147000000005164
                },
                {
                    "name": "D#7",
                    "midi": 99,
                    "time": 213.80491900000035,
                    "velocity": 0.3464566929133858,
                    "duration": 0.06617640000001757
                },
                {
                    "name": "C#7",
                    "midi": 97,
                    "time": 213.86006600000036,
                    "velocity": 0.3858267716535433,
                    "duration": 0.06617640000001757
                },
                {
                    "name": "D#7",
                    "midi": 99,
                    "time": 213.91521300000036,
                    "velocity": 0.33070866141732286,
                    "duration": 0.06617640000001757
                },
                {
                    "name": "C#7",
                    "midi": 97,
                    "time": 213.97036000000037,
                    "velocity": 0.3937007874015748,
                    "duration": 0.055147000000005164
                },
                {
                    "name": "D#7",
                    "midi": 99,
                    "time": 214.02550700000037,
                    "velocity": 0.36220472440944884,
                    "duration": 0.06617640000001757
                },
                {
                    "name": "C#7",
                    "midi": 97,
                    "time": 214.08065400000038,
                    "velocity": 0.3937007874015748,
                    "duration": 0.06617640000001757
                },
                {
                    "name": "D#7",
                    "midi": 99,
                    "time": 214.13580100000038,
                    "velocity": 0.3464566929133858,
                    "duration": 0.06617640000001757
                },
                {
                    "name": "C#7",
                    "midi": 97,
                    "time": 214.1909480000004,
                    "velocity": 0.3700787401574803,
                    "duration": 0.055147000000005164
                },
                {
                    "name": "D#7",
                    "midi": 99,
                    "time": 214.2460950000004,
                    "velocity": 0.3228346456692913,
                    "duration": 0.06617640000001757
                },
                {
                    "name": "C#7",
                    "midi": 97,
                    "time": 214.3012420000004,
                    "velocity": 0.3700787401574803,
                    "duration": 0.06617640000001757
                },
                {
                    "name": "D#7",
                    "midi": 99,
                    "time": 214.3563890000004,
                    "velocity": 0.3228346456692913,
                    "duration": 0.06617640000001757
                },
                {
                    "name": "C#7",
                    "midi": 97,
                    "time": 214.4115360000004,
                    "velocity": 0.3700787401574803,
                    "duration": 0.07352933333334022
                },
                {
                    "name": "D#7",
                    "midi": 99,
                    "time": 214.48506533333375,
                    "velocity": 0.3228346456692913,
                    "duration": 0.07352933333334022
                },
                {
                    "name": "C#7",
                    "midi": 97,
                    "time": 214.5585946666671,
                    "velocity": 0.3858267716535433,
                    "duration": 0.07352933333334022
                },
                {
                    "name": "C7",
                    "midi": 96,
                    "time": 214.63212400000043,
                    "velocity": 0.41732283464566927,
                    "duration": 0.0735293333333118
                },
                {
                    "name": "C#7",
                    "midi": 97,
                    "time": 214.70565333333374,
                    "velocity": 0.4566929133858268,
                    "duration": 0.07352933333334022
                },
                {
                    "name": "D7",
                    "midi": 98,
                    "time": 214.77918266666708,
                    "velocity": 0.4881889763779528,
                    "duration": 0.07352933333334022
                },
                {
                    "name": "A#5",
                    "midi": 82,
                    "time": 224.55858400000042,
                    "velocity": 0.28346456692913385,
                    "duration": 0.055147000000005164
                },
                {
                    "name": "C6",
                    "midi": 84,
                    "time": 224.61373100000043,
                    "velocity": 0.25196850393700787,
                    "duration": 0.06617640000001757
                },
                {
                    "name": "A#5",
                    "midi": 82,
                    "time": 224.66887800000043,
                    "velocity": 0.28346456692913385,
                    "duration": 0.06617640000001757
                },
                {
                    "name": "C6",
                    "midi": 84,
                    "time": 224.72402500000044,
                    "velocity": 0.25196850393700787,
                    "duration": 0.06617640000001757
                },
                {
                    "name": "A#5",
                    "midi": 82,
                    "time": 224.77917200000044,
                    "velocity": 0.28346456692913385,
                    "duration": 0.055147000000005164
                },
                {
                    "name": "C6",
                    "midi": 84,
                    "time": 224.83431900000045,
                    "velocity": 0.25196850393700787,
                    "duration": 0.06617640000001757
                },
                {
                    "name": "A#5",
                    "midi": 82,
                    "time": 224.88946600000045,
                    "velocity": 0.28346456692913385,
                    "duration": 0.06617640000001757
                },
                {
                    "name": "C6",
                    "midi": 84,
                    "time": 224.94461300000046,
                    "velocity": 0.25196850393700787,
                    "duration": 0.06617640000001757
                },
                {
                    "name": "A#5",
                    "midi": 82,
                    "time": 224.99976000000046,
                    "velocity": 0.28346456692913385,
                    "duration": 0.055147000000005164
                },
                {
                    "name": "C6",
                    "midi": 84,
                    "time": 225.05490700000047,
                    "velocity": 0.25196850393700787,
                    "duration": 0.06617640000001757
                },
                {
                    "name": "A#5",
                    "midi": 82,
                    "time": 225.11005400000047,
                    "velocity": 0.28346456692913385,
                    "duration": 0.06617640000001757
                },
                {
                    "name": "C6",
                    "midi": 84,
                    "time": 225.16520100000048,
                    "velocity": 0.25196850393700787,
                    "duration": 0.06617640000001757
                },
                {
                    "name": "A#5",
                    "midi": 82,
                    "time": 225.22034800000048,
                    "velocity": 0.28346456692913385,
                    "duration": 0.055147000000005164
                },
                {
                    "name": "C6",
                    "midi": 84,
                    "time": 225.2754950000005,
                    "velocity": 0.25196850393700787,
                    "duration": 0.06617640000001757
                },
                {
                    "name": "A#5",
                    "midi": 82,
                    "time": 225.3306420000005,
                    "velocity": 0.28346456692913385,
                    "duration": 0.06617640000001757
                },
                {
                    "name": "C6",
                    "midi": 84,
                    "time": 225.3857890000005,
                    "velocity": 0.25196850393700787,
                    "duration": 0.06617640000001757
                },
                {
                    "name": "G#6",
                    "midi": 92,
                    "time": 271.76441600000067,
                    "velocity": 0.47244094488188976,
                    "duration": 0.055147000000033586
                },
                {
                    "name": "A#6",
                    "midi": 94,
                    "time": 271.8195630000007,
                    "velocity": 0.4251968503937008,
                    "duration": 0.05514699999997674
                },
                {
                    "name": "G#6",
                    "midi": 92,
                    "time": 271.8747100000007,
                    "velocity": 0.47244094488188976,
                    "duration": 0.05514699999997674
                },
                {
                    "name": "A#6",
                    "midi": 94,
                    "time": 271.92985700000065,
                    "velocity": 0.4251968503937008,
                    "duration": 0.05514699999997674
                },
                {
                    "name": "G#6",
                    "midi": 92,
                    "time": 271.98500400000063,
                    "velocity": 0.47244094488188976,
                    "duration": 0.05514699999997674
                },
                {
                    "name": "A#6",
                    "midi": 94,
                    "time": 272.0401510000006,
                    "velocity": 0.4251968503937008,
                    "duration": 0.05514699999997674
                },
                {
                    "name": "G#6",
                    "midi": 92,
                    "time": 272.0952980000006,
                    "velocity": 0.4251968503937008,
                    "duration": 0.05514699999997674
                },
                {
                    "name": "A#6",
                    "midi": 94,
                    "time": 272.15044500000056,
                    "velocity": 0.4251968503937008,
                    "duration": 0.05514699999997674
                },
                {
                    "name": "G#6",
                    "midi": 92,
                    "time": 272.20559200000054,
                    "velocity": 0.47244094488188976,
                    "duration": 0.055147000000033586
                },
                {
                    "name": "A#6",
                    "midi": 94,
                    "time": 272.26073900000057,
                    "velocity": 0.4251968503937008,
                    "duration": 0.05514699999997674
                },
                {
                    "name": "G#6",
                    "midi": 92,
                    "time": 272.31588600000055,
                    "velocity": 0.47244094488188976,
                    "duration": 0.05514699999997674
                },
                {
                    "name": "A#6",
                    "midi": 94,
                    "time": 272.3710330000005,
                    "velocity": 0.4251968503937008,
                    "duration": 0.05514699999997674
                },
                {
                    "name": "G#6",
                    "midi": 92,
                    "time": 272.4270991166672,
                    "velocity": 0.47244094488188976,
                    "duration": 0.055147000000033586
                },
                {
                    "name": "A#6",
                    "midi": 94,
                    "time": 272.48132700000053,
                    "velocity": 0.4251968503937008,
                    "duration": 0.055147000000033586
                },
                {
                    "name": "G#6",
                    "midi": 92,
                    "time": 272.53647400000057,
                    "velocity": 0.4251968503937008,
                    "duration": 0.05514699999997674
                },
                {
                    "name": "A#6",
                    "midi": 94,
                    "time": 272.59162100000054,
                    "velocity": 0.4251968503937008,
                    "duration": 0.05514699999997674
                },
                {
                    "name": "G#6",
                    "midi": 92,
                    "time": 272.6467680000005,
                    "velocity": 0.47244094488188976,
                    "duration": 0.05514699999997674
                },
                {
                    "name": "A#6",
                    "midi": 94,
                    "time": 272.7019150000005,
                    "velocity": 0.4251968503937008,
                    "duration": 0.05514699999997674
                },
                {
                    "name": "G#6",
                    "midi": 92,
                    "time": 272.7570620000005,
                    "velocity": 0.47244094488188976,
                    "duration": 0.05514699999997674
                },
                {
                    "name": "A#6",
                    "midi": 94,
                    "time": 272.81220900000045,
                    "velocity": 0.4251968503937008,
                    "duration": 0.05514699999997674
                },
                {
                    "name": "G#6",
                    "midi": 92,
                    "time": 272.8673560000004,
                    "velocity": 0.47244094488188976,
                    "duration": 0.05514699999997674
                },
                {
                    "name": "A#6",
                    "midi": 94,
                    "time": 272.9225030000004,
                    "velocity": 0.4251968503937008,
                    "duration": 0.05514699999997674
                },
                {
                    "name": "G#6",
                    "midi": 92,
                    "time": 272.9776500000004,
                    "velocity": 0.4251968503937008,
                    "duration": 0.05514699999997674
                },
                {
                    "name": "A#6",
                    "midi": 94,
                    "time": 273.03279700000036,
                    "velocity": 0.4251968503937008,
                    "duration": 0.05514699999997674
                },
                {
                    "name": "G#6",
                    "midi": 92,
                    "time": 273.08794400000033,
                    "velocity": 0.47244094488188976,
                    "duration": 0.05514699999997674
                },
                {
                    "name": "A#6",
                    "midi": 94,
                    "time": 273.1430910000003,
                    "velocity": 0.4251968503937008,
                    "duration": 0.05514699999997674
                },
                {
                    "name": "G#6",
                    "midi": 92,
                    "time": 273.1982380000003,
                    "velocity": 0.47244094488188976,
                    "duration": 0.05514699999997674
                },
                {
                    "name": "A#6",
                    "midi": 94,
                    "time": 273.25338500000026,
                    "velocity": 0.4251968503937008,
                    "duration": 0.05514699999997674
                },
                {
                    "name": "G#6",
                    "midi": 92,
                    "time": 273.30853200000024,
                    "velocity": 0.47244094488188976,
                    "duration": 0.05514699999997674
                },
                {
                    "name": "A#6",
                    "midi": 94,
                    "time": 273.3636790000002,
                    "velocity": 0.4251968503937008,
                    "duration": 0.05514699999997674
                },
                {
                    "name": "G#6",
                    "midi": 92,
                    "time": 273.4188260000002,
                    "velocity": 0.4251968503937008,
                    "duration": 0.05514699999997674
                },
                {
                    "name": "A#6",
                    "midi": 94,
                    "time": 273.47397300000017,
                    "velocity": 0.4251968503937008,
                    "duration": 0.05514699999997674
                },
                {
                    "name": "G#6",
                    "midi": 92,
                    "time": 273.52912000000015,
                    "velocity": 0.47244094488188976,
                    "duration": 0.055147000000033586
                },
                {
                    "name": "A#6",
                    "midi": 94,
                    "time": 273.5842670000002,
                    "velocity": 0.4251968503937008,
                    "duration": 0.05514699999997674
                },
                {
                    "name": "G#6",
                    "midi": 92,
                    "time": 273.63941400000016,
                    "velocity": 0.47244094488188976,
                    "duration": 0.05514699999997674
                },
                {
                    "name": "A#6",
                    "midi": 94,
                    "time": 273.69456100000014,
                    "velocity": 0.4251968503937008,
                    "duration": 0.05514699999997674
                },
                {
                    "name": "G#6",
                    "midi": 92,
                    "time": 273.7497080000001,
                    "velocity": 0.47244094488188976,
                    "duration": 0.05514699999997674
                },
                {
                    "name": "A#6",
                    "midi": 94,
                    "time": 273.8048550000001,
                    "velocity": 0.4251968503937008,
                    "duration": 0.05514699999997674
                },
                {
                    "name": "G#6",
                    "midi": 92,
                    "time": 273.86000200000007,
                    "velocity": 0.4251968503937008,
                    "duration": 0.05514699999997674
                },
                {
                    "name": "A#6",
                    "midi": 94,
                    "time": 273.91514900000004,
                    "velocity": 0.4251968503937008,
                    "duration": 0.05514699999997674
                },
                {
                    "name": "G#6",
                    "midi": 92,
                    "time": 273.970296,
                    "velocity": 0.47244094488188976,
                    "duration": 0.05514699999997674
                },
                {
                    "name": "A#6",
                    "midi": 94,
                    "time": 274.025443,
                    "velocity": 0.4251968503937008,
                    "duration": 0.05514699999997674
                },
                {
                    "name": "G#6",
                    "midi": 92,
                    "time": 274.08059,
                    "velocity": 0.47244094488188976,
                    "duration": 0.05514699999997674
                },
                {
                    "name": "A#6",
                    "midi": 94,
                    "time": 274.13573699999995,
                    "velocity": 0.4251968503937008,
                    "duration": 0.05514699999997674
                },
                {
                    "name": "G#6",
                    "midi": 92,
                    "time": 274.1908839999999,
                    "velocity": 0.47244094488188976,
                    "duration": 0.05514699999997674
                },
                {
                    "name": "A#6",
                    "midi": 94,
                    "time": 274.2460309999999,
                    "velocity": 0.4330708661417323,
                    "duration": 0.05514699999997674
                },
                {
                    "name": "G#6",
                    "midi": 92,
                    "time": 274.3011779999999,
                    "velocity": 0.4330708661417323,
                    "duration": 0.05514699999997674
                },
                {
                    "name": "A#6",
                    "midi": 94,
                    "time": 274.35632499999986,
                    "velocity": 0.4330708661417323,
                    "duration": 0.05514699999997674
                },
                {
                    "name": "G#6",
                    "midi": 92,
                    "time": 274.41147199999983,
                    "velocity": 0.48031496062992124,
                    "duration": 0.05514699999997674
                },
                {
                    "name": "A#6",
                    "midi": 94,
                    "time": 274.4666189999998,
                    "velocity": 0.4409448818897638,
                    "duration": 0.05514699999997674
                },
                {
                    "name": "G#6",
                    "midi": 92,
                    "time": 274.5217659999998,
                    "velocity": 0.4881889763779528,
                    "duration": 0.05514699999997674
                },
                {
                    "name": "A#6",
                    "midi": 94,
                    "time": 274.57691299999976,
                    "velocity": 0.4409448818897638,
                    "duration": 0.05514699999997674
                },
                {
                    "name": "G#6",
                    "midi": 92,
                    "time": 274.63205999999974,
                    "velocity": 0.49606299212598426,
                    "duration": 0.05514699999997674
                },
                {
                    "name": "A#6",
                    "midi": 94,
                    "time": 274.6872069999997,
                    "velocity": 0.44881889763779526,
                    "duration": 0.05514699999997674
                },
                {
                    "name": "G#6",
                    "midi": 92,
                    "time": 274.7423539999997,
                    "velocity": 0.44881889763779526,
                    "duration": 0.05514699999997674
                },
                {
                    "name": "A#6",
                    "midi": 94,
                    "time": 274.79750099999967,
                    "velocity": 0.44881889763779526,
                    "duration": 0.05514699999997674
                },
                {
                    "name": "G#6",
                    "midi": 92,
                    "time": 274.85264799999965,
                    "velocity": 0.5039370078740157,
                    "duration": 0.05514699999997674
                },
                {
                    "name": "A#6",
                    "midi": 94,
                    "time": 274.9077949999996,
                    "velocity": 0.4566929133858268,
                    "duration": 0.05514699999997674
                },
                {
                    "name": "G#6",
                    "midi": 92,
                    "time": 274.9629419999996,
                    "velocity": 0.5039370078740157,
                    "duration": 0.05514699999997674
                },
                {
                    "name": "A#6",
                    "midi": 94,
                    "time": 275.0180889999996,
                    "velocity": 0.4566929133858268,
                    "duration": 0.05514699999997674
                },
                {
                    "name": "G#6",
                    "midi": 92,
                    "time": 275.07323599999955,
                    "velocity": 0.5118110236220472,
                    "duration": 0.05514699999997674
                },
                {
                    "name": "A#6",
                    "midi": 94,
                    "time": 275.12838299999953,
                    "velocity": 0.4645669291338583,
                    "duration": 0.05514699999997674
                },
                {
                    "name": "G#6",
                    "midi": 92,
                    "time": 275.1835299999995,
                    "velocity": 0.4645669291338583,
                    "duration": 0.05514699999997674
                },
                {
                    "name": "A#6",
                    "midi": 94,
                    "time": 275.2386769999995,
                    "velocity": 0.4645669291338583,
                    "duration": 0.05514699999997674
                }
            ],
            "controlChanges": {
                "64": [
                    {
                        "number": 64,
                        "time": 1.709557,
                        "value": 1
                    },
                    {
                        "number": 64,
                        "time": 2.1783065,
                        "value": 0
                    },
                    {
                        "number": 64,
                        "time": 2.20312265,
                        "value": 1
                    },
                    {
                        "number": 64,
                        "time": 2.6194825,
                        "value": 0
                    },
                    {
                        "number": 64,
                        "time": 2.6369457166666668,
                        "value": 1
                    },
                    {
                        "number": 64,
                        "time": 2.8400705,
                        "value": 0
                    },
                    {
                        "number": 64,
                        "time": 2.8630484166666665,
                        "value": 1
                    },
                    {
                        "number": 64,
                        "time": 3.0606584999999997,
                        "value": 0
                    },
                    {
                        "number": 64,
                        "time": 3.0772025999999997,
                        "value": 1
                    },
                    {
                        "number": 64,
                        "time": 3.2812464999999995,
                        "value": 0
                    },
                    {
                        "number": 64,
                        "time": 3.3005479499999995,
                        "value": 1
                    },
                    {
                        "number": 64,
                        "time": 3.5018344999999993,
                        "value": 0
                    },
                    {
                        "number": 64,
                        "time": 3.5689300166666658,
                        "value": 1
                    },
                    {
                        "number": 64,
                        "time": 3.595584399999999,
                        "value": 0
                    },
                    {
                        "number": 64,
                        "time": 3.763782749999999,
                        "value": 1
                    },
                    {
                        "number": 64,
                        "time": 5.299626699999999,
                        "value": 0
                    },
                    {
                        "number": 64,
                        "time": 7.0036689999999995,
                        "value": 1
                    },
                    {
                        "number": 64,
                        "time": 7.4779332,
                        "value": 0
                    },
                    {
                        "number": 64,
                        "time": 7.489881716666667,
                        "value": 1
                    },
                    {
                        "number": 64,
                        "time": 7.909918033333334,
                        "value": 0
                    },
                    {
                        "number": 64,
                        "time": 7.936572416666667,
                        "value": 1
                    },
                    {
                        "number": 64,
                        "time": 8.134182500000001,
                        "value": 0
                    },
                    {
                        "number": 64,
                        "time": 8.157160416666668,
                        "value": 1
                    },
                    {
                        "number": 64,
                        "time": 8.354770500000003,
                        "value": 0
                    },
                    {
                        "number": 64,
                        "time": 8.375910183333335,
                        "value": 1
                    },
                    {
                        "number": 64,
                        "time": 8.575358500000002,
                        "value": 0
                    },
                    {
                        "number": 64,
                        "time": 8.597417300000002,
                        "value": 1
                    },
                    {
                        "number": 64,
                        "time": 8.795946500000001,
                        "value": 0
                    },
                    {
                        "number": 64,
                        "time": 8.863042016666668,
                        "value": 1
                    },
                    {
                        "number": 64,
                        "time": 8.889696400000002,
                        "value": 0
                    },
                    {
                        "number": 64,
                        "time": 9.057894750000003,
                        "value": 1
                    },
                    {
                        "number": 64,
                        "time": 10.592819583333336,
                        "value": 0
                    },
                    {
                        "number": 64,
                        "time": 12.371310333333335,
                        "value": 1
                    },
                    {
                        "number": 64,
                        "time": 13.249985866666666,
                        "value": 0
                    },
                    {
                        "number": 64,
                        "time": 13.335463716666666,
                        "value": 1
                    },
                    {
                        "number": 64,
                        "time": 14.13325698333333,
                        "value": 0
                    },
                    {
                        "number": 64,
                        "time": 14.159911366666664,
                        "value": 1
                    },
                    {
                        "number": 64,
                        "time": 15.016528099999995,
                        "value": 0
                    },
                    {
                        "number": 64,
                        "time": 15.128660333333329,
                        "value": 1
                    },
                    {
                        "number": 64,
                        "time": 15.89704186666666,
                        "value": 0
                    },
                    {
                        "number": 64,
                        "time": 15.964137383333327,
                        "value": 1
                    },
                    {
                        "number": 64,
                        "time": 16.781232099999997,
                        "value": 0
                    },
                    {
                        "number": 64,
                        "time": 16.864871716666663,
                        "value": 1
                    },
                    {
                        "number": 64,
                        "time": 17.662664983333336,
                        "value": 0
                    },
                    {
                        "number": 64,
                        "time": 17.73895166666667,
                        "value": 1
                    },
                    {
                        "number": 64,
                        "time": 18.54501698333334,
                        "value": 0
                    },
                    {
                        "number": 64,
                        "time": 18.65806833333334,
                        "value": 1
                    },
                    {
                        "number": 64,
                        "time": 19.427368983333345,
                        "value": 0
                    },
                    {
                        "number": 64,
                        "time": 19.509170366666677,
                        "value": 1
                    },
                    {
                        "number": 64,
                        "time": 20.95586000000001,
                        "value": 0
                    },
                    {
                        "number": 64,
                        "time": 21.899792816666675,
                        "value": 1
                    },
                    {
                        "number": 64,
                        "time": 22.07810145000001,
                        "value": 0
                    },
                    {
                        "number": 64,
                        "time": 22.415417266666676,
                        "value": 1
                    },
                    {
                        "number": 64,
                        "time": 22.520196566666677,
                        "value": 0
                    },
                    {
                        "number": 64,
                        "time": 22.840049166666677,
                        "value": 1
                    },
                    {
                        "number": 64,
                        "time": 22.95769610000001,
                        "value": 0
                    },
                    {
                        "number": 64,
                        "time": 23.287658983333344,
                        "value": 1
                    },
                    {
                        "number": 64,
                        "time": 23.401629450000012,
                        "value": 0
                    },
                    {
                        "number": 64,
                        "time": 23.717805583333345,
                        "value": 1
                    },
                    {
                        "number": 64,
                        "time": 23.844643683333345,
                        "value": 0
                    },
                    {
                        "number": 64,
                        "time": 24.16633451666668,
                        "value": 1
                    },
                    {
                        "number": 64,
                        "time": 24.283062333333348,
                        "value": 0
                    },
                    {
                        "number": 64,
                        "time": 24.608429633333348,
                        "value": 1
                    },
                    {
                        "number": 64,
                        "time": 24.718723633333347,
                        "value": 0
                    },
                    {
                        "number": 64,
                        "time": 24.76743681666668,
                        "value": 1
                    },
                    {
                        "number": 64,
                        "time": 26.48894233333335,
                        "value": 0
                    },
                    {
                        "number": 64,
                        "time": 28.676440000000014,
                        "value": 0
                    },
                    {
                        "number": 64,
                        "time": 28.75456491666668,
                        "value": 1
                    },
                    {
                        "number": 64,
                        "time": 29.247211450000012,
                        "value": 0
                    },
                    {
                        "number": 64,
                        "time": 29.488020016666677,
                        "value": 1
                    },
                    {
                        "number": 64,
                        "time": 30.78121716666668,
                        "value": 0
                    },
                    {
                        "number": 64,
                        "time": 30.90162145000001,
                        "value": 1
                    },
                    {
                        "number": 64,
                        "time": 31.222393166666677,
                        "value": 0
                    },
                    {
                        "number": 64,
                        "time": 31.349231266666678,
                        "value": 1
                    },
                    {
                        "number": 64,
                        "time": 31.667245633333344,
                        "value": 0
                    },
                    {
                        "number": 64,
                        "time": 31.790407266666676,
                        "value": 1
                    },
                    {
                        "number": 64,
                        "time": 32.10842163333334,
                        "value": 0
                    },
                    {
                        "number": 64,
                        "time": 32.20584800000001,
                        "value": 1
                    },
                    {
                        "number": 64,
                        "time": 32.54500205000001,
                        "value": 0
                    },
                    {
                        "number": 64,
                        "time": 32.65253870000001,
                        "value": 1
                    },
                    {
                        "number": 64,
                        "time": 32.99077363333334,
                        "value": 0
                    },
                    {
                        "number": 64,
                        "time": 33.090957350000004,
                        "value": 1
                    },
                    {
                        "number": 64,
                        "time": 33.42643493333334,
                        "value": 0
                    },
                    {
                        "number": 64,
                        "time": 33.53580981666667,
                        "value": 1
                    },
                    {
                        "number": 64,
                        "time": 33.870368283333335,
                        "value": 0
                    },
                    {
                        "number": 64,
                        "time": 34.0036402,
                        "value": 1
                    },
                    {
                        "number": 64,
                        "time": 34.313382516666664,
                        "value": 0
                    },
                    {
                        "number": 64,
                        "time": 34.42183828333333,
                        "value": 1
                    },
                    {
                        "number": 64,
                        "time": 34.7536394,
                        "value": 0
                    },
                    {
                        "number": 64,
                        "time": 34.85933781666667,
                        "value": 1
                    },
                    {
                        "number": 64,
                        "time": 35.192977166666665,
                        "value": 0
                    },
                    {
                        "number": 64,
                        "time": 35.30694763333333,
                        "value": 1
                    },
                    {
                        "number": 64,
                        "time": 35.635991399999995,
                        "value": 0
                    },
                    {
                        "number": 64,
                        "time": 35.72974129999999,
                        "value": 1
                    },
                    {
                        "number": 64,
                        "time": 36.630475633333326,
                        "value": 0
                    },
                    {
                        "number": 64,
                        "time": 36.79683574999999,
                        "value": 1
                    },
                    {
                        "number": 64,
                        "time": 37.51466586666666,
                        "value": 0
                    },
                    {
                        "number": 64,
                        "time": 37.62587898333333,
                        "value": 1
                    },
                    {
                        "number": 64,
                        "time": 38.39517963333333,
                        "value": 0
                    },
                    {
                        "number": 64,
                        "time": 38.44756928333333,
                        "value": 1
                    },
                    {
                        "number": 64,
                        "time": 38.61484851666666,
                        "value": 0
                    },
                    {
                        "number": 64,
                        "time": 38.6911352,
                        "value": 1
                    },
                    {
                        "number": 64,
                        "time": 39.05602451666667,
                        "value": 0
                    },
                    {
                        "number": 64,
                        "time": 39.209517,
                        "value": 1
                    },
                    {
                        "number": 64,
                        "time": 39.673670916666666,
                        "value": 0
                    },
                    {
                        "number": 64,
                        "time": 39.72973703333333,
                        "value": 1
                    },
                    {
                        "number": 64,
                        "time": 40.11576603333333,
                        "value": 0
                    },
                    {
                        "number": 64,
                        "time": 40.17918508333333,
                        "value": 1
                    },
                    {
                        "number": 64,
                        "time": 40.3400305,
                        "value": 0
                    },
                    {
                        "number": 64,
                        "time": 40.39701573333333,
                        "value": 1
                    },
                    {
                        "number": 64,
                        "time": 40.5606185,
                        "value": 0
                    },
                    {
                        "number": 64,
                        "time": 40.62495666666666,
                        "value": 1
                    },
                    {
                        "number": 64,
                        "time": 40.78947855,
                        "value": 0
                    },
                    {
                        "number": 64,
                        "time": 40.84554466666666,
                        "value": 1
                    },
                    {
                        "number": 64,
                        "time": 41.001794499999995,
                        "value": 0
                    },
                    {
                        "number": 64,
                        "time": 41.068890016666664,
                        "value": 1
                    },
                    {
                        "number": 64,
                        "time": 41.095544399999994,
                        "value": 0
                    },
                    {
                        "number": 64,
                        "time": 41.2554707,
                        "value": 1
                    },
                    {
                        "number": 64,
                        "time": 41.93010233333333,
                        "value": 0
                    },
                    {
                        "number": 64,
                        "time": 41.96410965,
                        "value": 1
                    },
                    {
                        "number": 64,
                        "time": 42.1433374,
                        "value": 0
                    },
                    {
                        "number": 64,
                        "time": 42.17183001666667,
                        "value": 1
                    },
                    {
                        "number": 64,
                        "time": 42.22421966666667,
                        "value": 0
                    },
                    {
                        "number": 64,
                        "time": 42.738925,
                        "value": 1
                    },
                    {
                        "number": 64,
                        "time": 43.20307891666667,
                        "value": 0
                    },
                    {
                        "number": 64,
                        "time": 43.25914503333333,
                        "value": 1
                    },
                    {
                        "number": 64,
                        "time": 43.64517403333333,
                        "value": 0
                    },
                    {
                        "number": 64,
                        "time": 43.708593083333334,
                        "value": 1
                    },
                    {
                        "number": 64,
                        "time": 43.8694385,
                        "value": 0
                    },
                    {
                        "number": 64,
                        "time": 43.92642373333334,
                        "value": 1
                    },
                    {
                        "number": 64,
                        "time": 44.0900265,
                        "value": 0
                    },
                    {
                        "number": 64,
                        "time": 44.154364666666666,
                        "value": 1
                    },
                    {
                        "number": 64,
                        "time": 44.31888655,
                        "value": 0
                    },
                    {
                        "number": 64,
                        "time": 44.374952666666665,
                        "value": 1
                    },
                    {
                        "number": 64,
                        "time": 44.5312025,
                        "value": 0
                    },
                    {
                        "number": 64,
                        "time": 44.59829801666667,
                        "value": 1
                    },
                    {
                        "number": 64,
                        "time": 44.6249524,
                        "value": 0
                    },
                    {
                        "number": 64,
                        "time": 44.7848787,
                        "value": 1
                    },
                    {
                        "number": 64,
                        "time": 45.459510333333334,
                        "value": 0
                    },
                    {
                        "number": 64,
                        "time": 45.49351765,
                        "value": 1
                    },
                    {
                        "number": 64,
                        "time": 45.672745400000004,
                        "value": 0
                    },
                    {
                        "number": 64,
                        "time": 45.70123801666667,
                        "value": 1
                    },
                    {
                        "number": 64,
                        "time": 45.767414416666675,
                        "value": 0
                    },
                    {
                        "number": 64,
                        "time": 46.24443596666668,
                        "value": 1
                    },
                    {
                        "number": 64,
                        "time": 47.990757633333345,
                        "value": 0
                    },
                    {
                        "number": 64,
                        "time": 48.08818400000001,
                        "value": 1
                    },
                    {
                        "number": 64,
                        "time": 49.006381550000015,
                        "value": 0
                    },
                    {
                        "number": 64,
                        "time": 49.13597700000001,
                        "value": 1
                    },
                    {
                        "number": 64,
                        "time": 49.749027816666676,
                        "value": 0
                    },
                    {
                        "number": 64,
                        "time": 49.80141746666668,
                        "value": 1
                    },
                    {
                        "number": 64,
                        "time": 50.75821791666668,
                        "value": 0
                    },
                    {
                        "number": 64,
                        "time": 50.80968845000002,
                        "value": 1
                    },
                    {
                        "number": 64,
                        "time": 51.617592000000016,
                        "value": 0
                    },
                    {
                        "number": 64,
                        "time": 51.72788600000002,
                        "value": 1
                    },
                    {
                        "number": 64,
                        "time": 52.06704005000002,
                        "value": 0
                    },
                    {
                        "number": 64,
                        "time": 52.10748118333335,
                        "value": 1
                    },
                    {
                        "number": 64,
                        "time": 52.513730750000015,
                        "value": 0
                    },
                    {
                        "number": 64,
                        "time": 52.584502733333345,
                        "value": 1
                    },
                    {
                        "number": 64,
                        "time": 52.95214940000001,
                        "value": 0
                    },
                    {
                        "number": 64,
                        "time": 52.98707583333334,
                        "value": 1
                    },
                    {
                        "number": 64,
                        "time": 53.392406283333344,
                        "value": 0
                    },
                    {
                        "number": 64,
                        "time": 53.65251630000001,
                        "value": 1
                    },
                    {
                        "number": 64,
                        "time": 54.215934816666675,
                        "value": 0
                    },
                    {
                        "number": 64,
                        "time": 55.06795596666667,
                        "value": 1
                    },
                    {
                        "number": 64,
                        "time": 56.062440200000005,
                        "value": 0
                    },
                    {
                        "number": 64,
                        "time": 56.120344550000006,
                        "value": 1
                    },
                    {
                        "number": 64,
                        "time": 56.81427763333334,
                        "value": 0
                    },
                    {
                        "number": 64,
                        "time": 56.926409866666674,
                        "value": 1
                    },
                    {
                        "number": 64,
                        "time": 57.807842750000006,
                        "value": 0
                    },
                    {
                        "number": 64,
                        "time": 57.87218091666667,
                        "value": 1
                    },
                    {
                        "number": 64,
                        "time": 58.57254781666667,
                        "value": 0
                    },
                    {
                        "number": 64,
                        "time": 58.896996,
                        "value": 1
                    },
                    {
                        "number": 64,
                        "time": 59.790377400000004,
                        "value": 0
                    },
                    {
                        "number": 64,
                        "time": 60.55140600000001,
                        "value": 1
                    },
                    {
                        "number": 64,
                        "time": 60.89883210000001,
                        "value": 0
                    },
                    {
                        "number": 64,
                        "time": 61.34460368333334,
                        "value": 1
                    },
                    {
                        "number": 64,
                        "time": 61.76464000000001,
                        "value": 0
                    },
                    {
                        "number": 64,
                        "time": 62.253610066666674,
                        "value": 1
                    },
                    {
                        "number": 64,
                        "time": 62.65710228333334,
                        "value": 0
                    },
                    {
                        "number": 64,
                        "time": 62.69938165000001,
                        "value": 1
                    },
                    {
                        "number": 64,
                        "time": 63.09827828333334,
                        "value": 0
                    },
                    {
                        "number": 64,
                        "time": 63.13044736666668,
                        "value": 1
                    },
                    {
                        "number": 64,
                        "time": 63.54313075000001,
                        "value": 0
                    },
                    {
                        "number": 64,
                        "time": 63.91537300000001,
                        "value": 1
                    },
                    {
                        "number": 64,
                        "time": 64.41996805000001,
                        "value": 0
                    },
                    {
                        "number": 64,
                        "time": 64.45949006666667,
                        "value": 1
                    },
                    {
                        "number": 64,
                        "time": 64.85562935,
                        "value": 0
                    },
                    {
                        "number": 64,
                        "time": 64.88504108333333,
                        "value": 1
                    },
                    {
                        "number": 64,
                        "time": 65.09459968333333,
                        "value": 0
                    },
                    {
                        "number": 64,
                        "time": 65.1341217,
                        "value": 1
                    },
                    {
                        "number": 64,
                        "time": 65.31794503333333,
                        "value": 0
                    },
                    {
                        "number": 64,
                        "time": 65.349195,
                        "value": 1
                    },
                    {
                        "number": 64,
                        "time": 65.54864331666666,
                        "value": 0
                    },
                    {
                        "number": 64,
                        "time": 65.56978299999999,
                        "value": 1
                    },
                    {
                        "number": 64,
                        "time": 65.70765049999999,
                        "value": 0
                    },
                    {
                        "number": 64,
                        "time": 65.77474601666665,
                        "value": 1
                    },
                    {
                        "number": 64,
                        "time": 65.80140039999999,
                        "value": 0
                    },
                    {
                        "number": 64,
                        "time": 65.96132669999999,
                        "value": 1
                    },
                    {
                        "number": 64,
                        "time": 66.19386321666666,
                        "value": 0
                    },
                    {
                        "number": 64,
                        "time": 66.20489261666665,
                        "value": 1
                    },
                    {
                        "number": 64,
                        "time": 66.85286986666665,
                        "value": 0
                    },
                    {
                        "number": 64,
                        "time": 66.87768601666666,
                        "value": 1
                    },
                    {
                        "number": 64,
                        "time": 67.10195048333333,
                        "value": 0
                    },
                    {
                        "number": 64,
                        "time": 67.44478099999999,
                        "value": 1
                    },
                    {
                        "number": 64,
                        "time": 67.94569958333332,
                        "value": 0
                    },
                    {
                        "number": 64,
                        "time": 67.96500103333332,
                        "value": 1
                    },
                    {
                        "number": 64,
                        "time": 68.39330939999999,
                        "value": 0
                    },
                    {
                        "number": 64,
                        "time": 68.43283141666666,
                        "value": 1
                    },
                    {
                        "number": 64,
                        "time": 68.61481651666666,
                        "value": 0
                    },
                    {
                        "number": 64,
                        "time": 68.66077235,
                        "value": 1
                    },
                    {
                        "number": 64,
                        "time": 68.83816186666667,
                        "value": 0
                    },
                    {
                        "number": 64,
                        "time": 68.88136035,
                        "value": 1
                    },
                    {
                        "number": 64,
                        "time": 69.05691163333333,
                        "value": 0
                    },
                    {
                        "number": 64,
                        "time": 69.11022039999999,
                        "value": 1
                    },
                    {
                        "number": 64,
                        "time": 69.23705849999999,
                        "value": 0
                    },
                    {
                        "number": 64,
                        "time": 69.30415401666666,
                        "value": 1
                    },
                    {
                        "number": 64,
                        "time": 69.49073469999999,
                        "value": 1
                    },
                    {
                        "number": 64,
                        "time": 69.72694768333332,
                        "value": 0
                    },
                    {
                        "number": 64,
                        "time": 69.73889619999999,
                        "value": 1
                    },
                    {
                        "number": 64,
                        "time": 70.38227786666666,
                        "value": 0
                    },
                    {
                        "number": 64,
                        "time": 70.40709401666666,
                        "value": 1
                    },
                    {
                        "number": 64,
                        "time": 70.60286586666666,
                        "value": 0
                    },
                    {
                        "number": 64,
                        "time": 71.96683499999999,
                        "value": 1
                    },
                    {
                        "number": 64,
                        "time": 72.36940809999999,
                        "value": 0
                    },
                    {
                        "number": 64,
                        "time": 73.27106154999998,
                        "value": 1
                    },
                    {
                        "number": 64,
                        "time": 73.67639199999998,
                        "value": 0
                    },
                    {
                        "number": 64,
                        "time": 73.73153899999998,
                        "value": 1
                    },
                    {
                        "number": 64,
                        "time": 74.17271499999998,
                        "value": 0
                    },
                    {
                        "number": 64,
                        "time": 74.99348618333332,
                        "value": 1
                    },
                    {
                        "number": 64,
                        "time": 75.44109599999999,
                        "value": 0
                    },
                    {
                        "number": 64,
                        "time": 75.51278709999998,
                        "value": 1
                    },
                    {
                        "number": 64,
                        "time": 75.89881609999998,
                        "value": 0
                    },
                    {
                        "number": 64,
                        "time": 76.79771219999998,
                        "value": 1
                    },
                    {
                        "number": 64,
                        "time": 77.20579999999998,
                        "value": 0
                    },
                    {
                        "number": 64,
                        "time": 77.23521173333332,
                        "value": 1
                    },
                    {
                        "number": 64,
                        "time": 77.88043163333332,
                        "value": 0
                    },
                    {
                        "number": 64,
                        "time": 78.10653433333331,
                        "value": 1
                    },
                    {
                        "number": 64,
                        "time": 78.54311474999999,
                        "value": 0
                    },
                    {
                        "number": 64,
                        "time": 79.47050346666666,
                        "value": 1
                    },
                    {
                        "number": 64,
                        "time": 79.85285599999999,
                        "value": 0
                    },
                    {
                        "number": 64,
                        "time": 79.89513536666665,
                        "value": 1
                    },
                    {
                        "number": 64,
                        "time": 80.31517168333332,
                        "value": 0
                    },
                    {
                        "number": 64,
                        "time": 81.19568544999998,
                        "value": 1
                    },
                    {
                        "number": 64,
                        "time": 81.63594233333332,
                        "value": 0
                    },
                    {
                        "number": 64,
                        "time": 81.65983936666665,
                        "value": 1
                    },
                    {
                        "number": 64,
                        "time": 82.09550066666665,
                        "value": 0
                    },
                    {
                        "number": 64,
                        "time": 82.97049973333331,
                        "value": 1
                    },
                    {
                        "number": 64,
                        "time": 83.38226399999998,
                        "value": 0
                    },
                    {
                        "number": 64,
                        "time": 83.43097718333331,
                        "value": 1
                    },
                    {
                        "number": 64,
                        "time": 83.87215318333331,
                        "value": 0
                    },
                    {
                        "number": 64,
                        "time": 84.7159022833333,
                        "value": 1
                    },
                    {
                        "number": 64,
                        "time": 85.14696799999997,
                        "value": 0
                    },
                    {
                        "number": 64,
                        "time": 85.18924736666663,
                        "value": 1
                    },
                    {
                        "number": 64,
                        "time": 85.60468809999996,
                        "value": 0
                    },
                    {
                        "number": 64,
                        "time": 85.64053364999997,
                        "value": 1
                    },
                    {
                        "number": 64,
                        "time": 86.02931999999997,
                        "value": 0
                    },
                    {
                        "number": 64,
                        "time": 86.06332731666663,
                        "value": 1
                    },
                    {
                        "number": 64,
                        "time": 86.91167199999997,
                        "value": 0
                    },
                    {
                        "number": 64,
                        "time": 86.91994404999997,
                        "value": 0
                    },
                    {
                        "number": 64,
                        "time": 86.94843666666664,
                        "value": 1
                    },
                    {
                        "number": 64,
                        "time": 87.35284799999997,
                        "value": 0
                    },
                    {
                        "number": 64,
                        "time": 88.29034699999997,
                        "value": 1
                    },
                    {
                        "number": 64,
                        "time": 88.69292009999997,
                        "value": 0
                    },
                    {
                        "number": 64,
                        "time": 89.59457354999996,
                        "value": 1
                    },
                    {
                        "number": 64,
                        "time": 90.03299219999997,
                        "value": 0
                    },
                    {
                        "number": 64,
                        "time": 90.07435244999996,
                        "value": 1
                    },
                    {
                        "number": 64,
                        "time": 90.45762409999996,
                        "value": 0
                    },
                    {
                        "number": 64,
                        "time": 91.35927754999996,
                        "value": 1
                    },
                    {
                        "number": 64,
                        "time": 91.79769619999996,
                        "value": 0
                    },
                    {
                        "number": 64,
                        "time": 91.87490199999996,
                        "value": 1
                    },
                    {
                        "number": 64,
                        "time": 92.22232809999997,
                        "value": 0
                    },
                    {
                        "number": 64,
                        "time": 92.6653423333333,
                        "value": 0
                    },
                    {
                        "number": 64,
                        "time": 92.68923936666663,
                        "value": 1
                    },
                    {
                        "number": 64,
                        "time": 93.1175477333333,
                        "value": 0
                    },
                    {
                        "number": 64,
                        "time": 93.98978944999996,
                        "value": 1
                    },
                    {
                        "number": 64,
                        "time": 94.4300463333333,
                        "value": 0
                    },
                    {
                        "number": 64,
                        "time": 94.45394336666662,
                        "value": 1
                    },
                    {
                        "number": 64,
                        "time": 94.88960466666663,
                        "value": 0
                    },
                    {
                        "number": 64,
                        "time": 95.76460373333329,
                        "value": 1
                    },
                    {
                        "number": 64,
                        "time": 96.17636799999995,
                        "value": 0
                    },
                    {
                        "number": 64,
                        "time": 96.22508118333329,
                        "value": 1
                    },
                    {
                        "number": 64,
                        "time": 96.66625718333329,
                        "value": 0
                    },
                    {
                        "number": 64,
                        "time": 97.51000628333328,
                        "value": 1
                    },
                    {
                        "number": 64,
                        "time": 97.94107199999995,
                        "value": 0
                    },
                    {
                        "number": 64,
                        "time": 97.98335136666661,
                        "value": 1
                    },
                    {
                        "number": 64,
                        "time": 98.39879209999994,
                        "value": 0
                    },
                    {
                        "number": 64,
                        "time": 98.43463764999994,
                        "value": 1
                    },
                    {
                        "number": 64,
                        "time": 98.85651219999994,
                        "value": 0
                    },
                    {
                        "number": 64,
                        "time": 98.94015181666661,
                        "value": 1
                    },
                    {
                        "number": 64,
                        "time": 102.35283199999995,
                        "value": 0
                    },
                    {
                        "number": 64,
                        "time": 103.29033099999995,
                        "value": 1
                    },
                    {
                        "number": 64,
                        "time": 103.69290409999995,
                        "value": 0
                    },
                    {
                        "number": 64,
                        "time": 104.59455754999995,
                        "value": 1
                    },
                    {
                        "number": 64,
                        "time": 105.03297619999995,
                        "value": 0
                    },
                    {
                        "number": 64,
                        "time": 105.07433644999995,
                        "value": 1
                    },
                    {
                        "number": 64,
                        "time": 105.45760809999994,
                        "value": 0
                    },
                    {
                        "number": 64,
                        "time": 106.35926154999994,
                        "value": 1
                    },
                    {
                        "number": 64,
                        "time": 106.79768019999995,
                        "value": 0
                    },
                    {
                        "number": 64,
                        "time": 106.83904044999994,
                        "value": 1
                    },
                    {
                        "number": 64,
                        "time": 107.22231209999994,
                        "value": 0
                    },
                    {
                        "number": 64,
                        "time": 107.66532633333327,
                        "value": 0
                    },
                    {
                        "number": 64,
                        "time": 107.6892233666666,
                        "value": 1
                    },
                    {
                        "number": 64,
                        "time": 108.11753173333327,
                        "value": 0
                    },
                    {
                        "number": 64,
                        "time": 108.98977344999993,
                        "value": 1
                    },
                    {
                        "number": 64,
                        "time": 109.43003033333326,
                        "value": 0
                    },
                    {
                        "number": 64,
                        "time": 109.45392736666659,
                        "value": 1
                    },
                    {
                        "number": 64,
                        "time": 109.8895886666666,
                        "value": 0
                    },
                    {
                        "number": 64,
                        "time": 110.76458773333326,
                        "value": 1
                    },
                    {
                        "number": 64,
                        "time": 111.17635199999992,
                        "value": 0
                    },
                    {
                        "number": 64,
                        "time": 111.22506518333326,
                        "value": 1
                    },
                    {
                        "number": 64,
                        "time": 111.66624118333326,
                        "value": 0
                    },
                    {
                        "number": 64,
                        "time": 112.50999028333325,
                        "value": 1
                    },
                    {
                        "number": 64,
                        "time": 112.94105599999992,
                        "value": 0
                    },
                    {
                        "number": 64,
                        "time": 112.98333536666658,
                        "value": 1
                    },
                    {
                        "number": 64,
                        "time": 113.3987760999999,
                        "value": 0
                    },
                    {
                        "number": 64,
                        "time": 113.43462164999991,
                        "value": 1
                    },
                    {
                        "number": 64,
                        "time": 113.85649619999991,
                        "value": 0
                    },
                    {
                        "number": 64,
                        "time": 113.94013581666658,
                        "value": 1
                    },
                    {
                        "number": 64,
                        "time": 120.89233428333326,
                        "value": 0
                    },
                    {
                        "number": 64,
                        "time": 121.76457599999992,
                        "value": 1
                    },
                    {
                        "number": 64,
                        "time": 122.64692799999992,
                        "value": 0
                    },
                    {
                        "number": 64,
                        "time": 122.70207499999992,
                        "value": 1
                    },
                    {
                        "number": 64,
                        "time": 123.52927999999993,
                        "value": 0
                    },
                    {
                        "number": 64,
                        "time": 123.58442699999993,
                        "value": 1
                    },
                    {
                        "number": 64,
                        "time": 124.41163199999994,
                        "value": 0
                    },
                    {
                        "number": 64,
                        "time": 124.46677899999995,
                        "value": 1
                    },
                    {
                        "number": 64,
                        "time": 125.29398399999995,
                        "value": 0
                    },
                    {
                        "number": 64,
                        "time": 125.38497654999995,
                        "value": 1
                    },
                    {
                        "number": 64,
                        "time": 126.17633599999995,
                        "value": 0
                    },
                    {
                        "number": 64,
                        "time": 126.23148299999995,
                        "value": 1
                    },
                    {
                        "number": 64,
                        "time": 127.05868799999996,
                        "value": 0
                    },
                    {
                        "number": 64,
                        "time": 127.11383499999997,
                        "value": 1
                    },
                    {
                        "number": 64,
                        "time": 127.5044595833333,
                        "value": 0
                    },
                    {
                        "number": 64,
                        "time": 127.55776834999996,
                        "value": 1
                    },
                    {
                        "number": 64,
                        "time": 127.94103999999996,
                        "value": 0
                    },
                    {
                        "number": 64,
                        "time": 127.99618699999996,
                        "value": 1
                    },
                    {
                        "number": 64,
                        "time": 128.39140716666662,
                        "value": 0
                    },
                    {
                        "number": 64,
                        "time": 128.87853899999996,
                        "value": 1
                    },
                    {
                        "number": 64,
                        "time": 129.70574399999995,
                        "value": 0
                    },
                    {
                        "number": 64,
                        "time": 129.76089099999996,
                        "value": 1
                    },
                    {
                        "number": 64,
                        "time": 130.58809599999995,
                        "value": 0
                    },
                    {
                        "number": 64,
                        "time": 130.64324299999996,
                        "value": 1
                    },
                    {
                        "number": 64,
                        "time": 131.47044799999995,
                        "value": 0
                    },
                    {
                        "number": 64,
                        "time": 131.52559499999995,
                        "value": 1
                    },
                    {
                        "number": 64,
                        "time": 132.40518964999995,
                        "value": 0
                    },
                    {
                        "number": 64,
                        "time": 132.49618219999996,
                        "value": 1
                    },
                    {
                        "number": 64,
                        "time": 133.23515199999997,
                        "value": 0
                    },
                    {
                        "number": 64,
                        "time": 133.29029899999998,
                        "value": 1
                    },
                    {
                        "number": 64,
                        "time": 134.11750399999997,
                        "value": 0
                    },
                    {
                        "number": 64,
                        "time": 134.17265099999997,
                        "value": 1
                    },
                    {
                        "number": 64,
                        "time": 134.5632755833333,
                        "value": 0
                    },
                    {
                        "number": 64,
                        "time": 134.61658434999998,
                        "value": 1
                    },
                    {
                        "number": 64,
                        "time": 134.999856,
                        "value": 0
                    },
                    {
                        "number": 64,
                        "time": 135.055003,
                        "value": 1
                    },
                    {
                        "number": 64,
                        "time": 135.4630908,
                        "value": 0
                    },
                    {
                        "number": 64,
                        "time": 135.9152962,
                        "value": 1
                    },
                    {
                        "number": 64,
                        "time": 136.32062665,
                        "value": 0
                    },
                    {
                        "number": 64,
                        "time": 136.36566336666667,
                        "value": 1
                    },
                    {
                        "number": 64,
                        "time": 136.78845703333334,
                        "value": 0
                    },
                    {
                        "number": 64,
                        "time": 136.82981728333334,
                        "value": 1
                    },
                    {
                        "number": 64,
                        "time": 137.64691200000001,
                        "value": 0
                    },
                    {
                        "number": 64,
                        "time": 137.71584575000003,
                        "value": 1
                    },
                    {
                        "number": 64,
                        "time": 138.09911740000004,
                        "value": 0
                    },
                    {
                        "number": 64,
                        "time": 138.1220953166667,
                        "value": 1
                    },
                    {
                        "number": 64,
                        "time": 138.54856545000004,
                        "value": 0
                    },
                    {
                        "number": 64,
                        "time": 138.60555068333338,
                        "value": 1
                    },
                    {
                        "number": 64,
                        "time": 138.98330763333337,
                        "value": 0
                    },
                    {
                        "number": 64,
                        "time": 139.02558700000003,
                        "value": 1
                    },
                    {
                        "number": 64,
                        "time": 139.43367480000003,
                        "value": 0
                    },
                    {
                        "number": 64,
                        "time": 139.52191000000005,
                        "value": 1
                    },
                    {
                        "number": 64,
                        "time": 140.30499740000005,
                        "value": 0
                    },
                    {
                        "number": 64,
                        "time": 140.3950708333334,
                        "value": 1
                    },
                    {
                        "number": 64,
                        "time": 140.67356318333339,
                        "value": 0
                    },
                    {
                        "number": 64,
                        "time": 141.17632000000006,
                        "value": 0
                    },
                    {
                        "number": 64,
                        "time": 141.20940820000007,
                        "value": 1
                    },
                    {
                        "number": 64,
                        "time": 141.61473865000008,
                        "value": 0
                    },
                    {
                        "number": 64,
                        "time": 141.65977536666674,
                        "value": 1
                    },
                    {
                        "number": 64,
                        "time": 142.0825690333334,
                        "value": 0
                    },
                    {
                        "number": 64,
                        "time": 142.1266866333334,
                        "value": 1
                    },
                    {
                        "number": 64,
                        "time": 142.94102400000008,
                        "value": 0
                    },
                    {
                        "number": 64,
                        "time": 143.0099577500001,
                        "value": 1
                    },
                    {
                        "number": 64,
                        "time": 143.3932294000001,
                        "value": 0
                    },
                    {
                        "number": 64,
                        "time": 143.41620731666677,
                        "value": 1
                    },
                    {
                        "number": 64,
                        "time": 143.8426774500001,
                        "value": 0
                    },
                    {
                        "number": 64,
                        "time": 143.89966268333345,
                        "value": 1
                    },
                    {
                        "number": 64,
                        "time": 144.27741963333344,
                        "value": 0
                    },
                    {
                        "number": 64,
                        "time": 144.3196990000001,
                        "value": 1
                    },
                    {
                        "number": 64,
                        "time": 144.7277868000001,
                        "value": 0
                    },
                    {
                        "number": 64,
                        "time": 144.81602200000012,
                        "value": 1
                    },
                    {
                        "number": 64,
                        "time": 145.59910940000012,
                        "value": 0
                    },
                    {
                        "number": 64,
                        "time": 145.68918283333346,
                        "value": 1
                    },
                    {
                        "number": 64,
                        "time": 145.96767518333345,
                        "value": 0
                    },
                    {
                        "number": 64,
                        "time": 146.4934099166668,
                        "value": 1
                    },
                    {
                        "number": 64,
                        "time": 147.3702472166668,
                        "value": 0
                    },
                    {
                        "number": 64,
                        "time": 147.4667544666668,
                        "value": 1
                    },
                    {
                        "number": 64,
                        "time": 148.24065070000015,
                        "value": 0
                    },
                    {
                        "number": 64,
                        "time": 148.32337120000014,
                        "value": 1
                    },
                    {
                        "number": 64,
                        "time": 149.08899538333347,
                        "value": 0
                    },
                    {
                        "number": 64,
                        "time": 149.19193645000013,
                        "value": 1
                    },
                    {
                        "number": 64,
                        "time": 149.99984000000012,
                        "value": 0
                    },
                    {
                        "number": 64,
                        "time": 150.0724502166668,
                        "value": 1
                    },
                    {
                        "number": 64,
                        "time": 150.4474498166668,
                        "value": 0
                    },
                    {
                        "number": 64,
                        "time": 150.93917723333345,
                        "value": 1
                    },
                    {
                        "number": 64,
                        "time": 151.3270444666668,
                        "value": 0
                    },
                    {
                        "number": 64,
                        "time": 151.76454400000011,
                        "value": 0
                    },
                    {
                        "number": 64,
                        "time": 152.64597688333345,
                        "value": 0
                    },
                    {
                        "number": 64,
                        "time": 152.72869738333344,
                        "value": 1
                    },
                    {
                        "number": 64,
                        "time": 153.4741010000001,
                        "value": 0
                    },
                    {
                        "number": 64,
                        "time": 153.6202405500001,
                        "value": 1
                    },
                    {
                        "number": 64,
                        "time": 154.4143573500001,
                        "value": 0
                    },
                    {
                        "number": 64,
                        "time": 155.31692991666677,
                        "value": 1
                    },
                    {
                        "number": 64,
                        "time": 156.19376721666677,
                        "value": 0
                    },
                    {
                        "number": 64,
                        "time": 156.29027446666677,
                        "value": 1
                    },
                    {
                        "number": 64,
                        "time": 157.06417070000012,
                        "value": 0
                    },
                    {
                        "number": 64,
                        "time": 157.1468912000001,
                        "value": 1
                    },
                    {
                        "number": 64,
                        "time": 157.9189492000001,
                        "value": 0
                    },
                    {
                        "number": 64,
                        "time": 158.0154564500001,
                        "value": 1
                    },
                    {
                        "number": 64,
                        "time": 158.71030865000012,
                        "value": 0
                    },
                    {
                        "number": 64,
                        "time": 158.90424226666678,
                        "value": 1
                    },
                    {
                        "number": 64,
                        "time": 160.1864100166668,
                        "value": 0
                    },
                    {
                        "number": 64,
                        "time": 160.6689462666668,
                        "value": 1
                    },
                    {
                        "number": 64,
                        "time": 161.95111401666682,
                        "value": 0
                    },
                    {
                        "number": 64,
                        "time": 162.46306200000015,
                        "value": 1
                    },
                    {
                        "number": 64,
                        "time": 163.2369582333335,
                        "value": 0
                    },
                    {
                        "number": 64,
                        "time": 163.28750965000017,
                        "value": 1
                    },
                    {
                        "number": 64,
                        "time": 164.11931023333352,
                        "value": 0
                    },
                    {
                        "number": 64,
                        "time": 164.2277660000002,
                        "value": 1
                    },
                    {
                        "number": 64,
                        "time": 167.70110788333355,
                        "value": 0
                    },
                    {
                        "number": 64,
                        "time": 168.08805600000022,
                        "value": 1
                    },
                    {
                        "number": 64,
                        "time": 168.99338591666688,
                        "value": 0
                    },
                    {
                        "number": 64,
                        "time": 169.03566528333354,
                        "value": 1
                    },
                    {
                        "number": 64,
                        "time": 169.6321720000002,
                        "value": 0
                    },
                    {
                        "number": 64,
                        "time": 169.8527600000002,
                        "value": 1
                    },
                    {
                        "number": 64,
                        "time": 170.7590090333335,
                        "value": 0
                    },
                    {
                        "number": 64,
                        "time": 170.81047956666686,
                        "value": 1
                    },
                    {
                        "number": 64,
                        "time": 171.36194956666685,
                        "value": 0
                    },
                    {
                        "number": 64,
                        "time": 171.66158160000018,
                        "value": 1
                    },
                    {
                        "number": 64,
                        "time": 172.51911745000018,
                        "value": 0
                    },
                    {
                        "number": 64,
                        "time": 172.57518356666685,
                        "value": 1
                    },
                    {
                        "number": 64,
                        "time": 173.39963121666685,
                        "value": 0
                    },
                    {
                        "number": 64,
                        "time": 173.47775613333351,
                        "value": 1
                    },
                    {
                        "number": 64,
                        "time": 174.28474056666684,
                        "value": 0
                    },
                    {
                        "number": 64,
                        "time": 174.33988756666685,
                        "value": 1
                    },
                    {
                        "number": 64,
                        "time": 178.6762800000002,
                        "value": 0
                    },
                    {
                        "number": 64,
                        "time": 178.81047103333353,
                        "value": 1
                    },
                    {
                        "number": 64,
                        "time": 180.4612045666668,
                        "value": 0
                    },
                    {
                        "number": 64,
                        "time": 180.49613100000013,
                        "value": 1
                    },
                    {
                        "number": 64,
                        "time": 180.88767470000013,
                        "value": 0
                    },
                    {
                        "number": 64,
                        "time": 180.91708643333348,
                        "value": 1
                    },
                    {
                        "number": 64,
                        "time": 181.3316080500001,
                        "value": 0
                    },
                    {
                        "number": 64,
                        "time": 181.3628580166668,
                        "value": 1
                    },
                    {
                        "number": 64,
                        "time": 182.10642340000015,
                        "value": 0
                    },
                    {
                        "number": 64,
                        "time": 182.2378570833335,
                        "value": 1
                    },
                    {
                        "number": 64,
                        "time": 182.65605516666682,
                        "value": 0
                    },
                    {
                        "number": 64,
                        "time": 182.67903308333348,
                        "value": 1
                    },
                    {
                        "number": 64,
                        "time": 183.09723116666677,
                        "value": 0
                    },
                    {
                        "number": 64,
                        "time": 183.12204731666677,
                        "value": 1
                    },
                    {
                        "number": 64,
                        "time": 183.8205759833334,
                        "value": 0
                    },
                    {
                        "number": 64,
                        "time": 183.9703920000001,
                        "value": 1
                    },
                    {
                        "number": 64,
                        "time": 184.4198400500001,
                        "value": 0
                    },
                    {
                        "number": 64,
                        "time": 184.45568560000007,
                        "value": 1
                    },
                    {
                        "number": 64,
                        "time": 184.86101605000005,
                        "value": 0
                    },
                    {
                        "number": 64,
                        "time": 184.8839939666667,
                        "value": 1
                    },
                    {
                        "number": 64,
                        "time": 185.5567873666667,
                        "value": 0
                    },
                    {
                        "number": 64,
                        "time": 185.73509600000003,
                        "value": 1
                    },
                    {
                        "number": 64,
                        "time": 187.5062338166667,
                        "value": 0
                    },
                    {
                        "number": 64,
                        "time": 187.5448367166667,
                        "value": 1
                    },
                    {
                        "number": 64,
                        "time": 188.43729900000005,
                        "value": 0
                    },
                    {
                        "number": 64,
                        "time": 189.28840103333337,
                        "value": 1
                    },
                    {
                        "number": 64,
                        "time": 189.72406233333336,
                        "value": 0
                    },
                    {
                        "number": 64,
                        "time": 189.79299608333338,
                        "value": 1
                    },
                    {
                        "number": 64,
                        "time": 190.14685600000004,
                        "value": 0
                    },
                    {
                        "number": 64,
                        "time": 190.34814255000003,
                        "value": 1
                    },
                    {
                        "number": 64,
                        "time": 191.02920800000004,
                        "value": 0
                    },
                    {
                        "number": 64,
                        "time": 191.2286563166667,
                        "value": 1
                    },
                    {
                        "number": 64,
                        "time": 191.4906045666667,
                        "value": 0
                    },
                    {
                        "number": 64,
                        "time": 191.5705677166667,
                        "value": 1
                    },
                    {
                        "number": 64,
                        "time": 191.91156,
                        "value": 0
                    },
                    {
                        "number": 64,
                        "time": 192.10641273333334,
                        "value": 1
                    },
                    {
                        "number": 64,
                        "time": 192.84630165000002,
                        "value": 0
                    },
                    {
                        "number": 64,
                        "time": 192.90420600000002,
                        "value": 1
                    },
                    {
                        "number": 64,
                        "time": 193.25438945000002,
                        "value": 0
                    },
                    {
                        "number": 64,
                        "time": 193.3784702,
                        "value": 1
                    },
                    {
                        "number": 64,
                        "time": 193.676264,
                        "value": 0
                    },
                    {
                        "number": 64,
                        "time": 193.87755055,
                        "value": 1
                    },
                    {
                        "number": 64,
                        "time": 194.31229273333332,
                        "value": 0
                    },
                    {
                        "number": 64,
                        "time": 196.34721703333332,
                        "value": 1
                    },
                    {
                        "number": 64,
                        "time": 196.78287833333331,
                        "value": 0
                    },
                    {
                        "number": 64,
                        "time": 196.85181208333333,
                        "value": 1
                    },
                    {
                        "number": 64,
                        "time": 197.205672,
                        "value": 0
                    },
                    {
                        "number": 64,
                        "time": 197.40695854999998,
                        "value": 1
                    },
                    {
                        "number": 64,
                        "time": 198.088024,
                        "value": 0
                    },
                    {
                        "number": 64,
                        "time": 198.28747231666665,
                        "value": 1
                    },
                    {
                        "number": 64,
                        "time": 198.54666321666664,
                        "value": 0
                    },
                    {
                        "number": 64,
                        "time": 198.59537639999996,
                        "value": 1
                    },
                    {
                        "number": 64,
                        "time": 198.97037599999996,
                        "value": 0
                    },
                    {
                        "number": 64,
                        "time": 199.1652287333333,
                        "value": 1
                    },
                    {
                        "number": 64,
                        "time": 199.90511764999997,
                        "value": 0
                    },
                    {
                        "number": 64,
                        "time": 199.96302199999997,
                        "value": 1
                    },
                    {
                        "number": 64,
                        "time": 200.31136721666664,
                        "value": 0
                    },
                    {
                        "number": 64,
                        "time": 200.3784627333333,
                        "value": 1
                    },
                    {
                        "number": 64,
                        "time": 200.73507999999995,
                        "value": 0
                    },
                    {
                        "number": 64,
                        "time": 200.93636654999995,
                        "value": 1
                    },
                    {
                        "number": 64,
                        "time": 201.37110873333327,
                        "value": 0
                    },
                    {
                        "number": 64,
                        "time": 202.99610699999994,
                        "value": 1
                    },
                    {
                        "number": 64,
                        "time": 203.40603303333327,
                        "value": 0
                    },
                    {
                        "number": 64,
                        "time": 203.43452564999993,
                        "value": 1
                    },
                    {
                        "number": 64,
                        "time": 204.2709218166666,
                        "value": 0
                    },
                    {
                        "number": 64,
                        "time": 204.31963499999992,
                        "value": 1
                    },
                    {
                        "number": 64,
                        "time": 205.15235469999993,
                        "value": 0
                    },
                    {
                        "number": 64,
                        "time": 205.20198699999995,
                        "value": 1
                    },
                    {
                        "number": 64,
                        "time": 206.02919199999994,
                        "value": 0
                    },
                    {
                        "number": 64,
                        "time": 206.09261104999993,
                        "value": 1
                    },
                    {
                        "number": 64,
                        "time": 206.47496358333328,
                        "value": 0
                    },
                    {
                        "number": 64,
                        "time": 206.53378704999994,
                        "value": 1
                    },
                    {
                        "number": 64,
                        "time": 206.91981604999995,
                        "value": 0
                    },
                    {
                        "number": 64,
                        "time": 206.9455513166666,
                        "value": 1
                    },
                    {
                        "number": 64,
                        "time": 207.82146949999995,
                        "value": 0
                    },
                    {
                        "number": 64,
                        "time": 207.86742533333327,
                        "value": 1
                    },
                    {
                        "number": 64,
                        "time": 208.68452004999995,
                        "value": 0
                    },
                    {
                        "number": 64,
                        "time": 208.7130126666666,
                        "value": 1
                    },
                    {
                        "number": 64,
                        "time": 209.5953646666666,
                        "value": 0
                    },
                    {
                        "number": 64,
                        "time": 209.63304844999993,
                        "value": 1
                    },
                    {
                        "number": 64,
                        "time": 211.1210983333334,
                        "value": 0
                    },
                    {
                        "number": 64,
                        "time": 211.37201718333344,
                        "value": 1
                    },
                    {
                        "number": 64,
                        "time": 212.21852363333352,
                        "value": 0
                    },
                    {
                        "number": 64,
                        "time": 212.25804565000018,
                        "value": 1
                    },
                    {
                        "number": 64,
                        "time": 213.11098591666695,
                        "value": 0
                    },
                    {
                        "number": 64,
                        "time": 213.13028736666695,
                        "value": 1
                    },
                    {
                        "number": 64,
                        "time": 213.97036000000037,
                        "value": 0
                    },
                    {
                        "number": 64,
                        "time": 214.00712466666704,
                        "value": 1
                    },
                    {
                        "number": 64,
                        "time": 214.64039605000042,
                        "value": 0
                    },
                    {
                        "number": 64,
                        "time": 214.85271200000042,
                        "value": 1
                    },
                    {
                        "number": 64,
                        "time": 215.75068898333376,
                        "value": 0
                    },
                    {
                        "number": 64,
                        "time": 215.76263750000044,
                        "value": 1
                    },
                    {
                        "number": 64,
                        "time": 216.63579833333378,
                        "value": 0
                    },
                    {
                        "number": 64,
                        "time": 216.6569380166671,
                        "value": 1
                    },
                    {
                        "number": 64,
                        "time": 217.5392900166671,
                        "value": 0
                    },
                    {
                        "number": 64,
                        "time": 218.07237768333377,
                        "value": 1
                    },
                    {
                        "number": 64,
                        "time": 218.40601703333377,
                        "value": 0
                    },
                    {
                        "number": 64,
                        "time": 218.43450965000042,
                        "value": 1
                    },
                    {
                        "number": 64,
                        "time": 219.2709058166671,
                        "value": 0
                    },
                    {
                        "number": 64,
                        "time": 219.31961900000042,
                        "value": 1
                    },
                    {
                        "number": 64,
                        "time": 220.15233870000043,
                        "value": 0
                    },
                    {
                        "number": 64,
                        "time": 220.20197100000044,
                        "value": 1
                    },
                    {
                        "number": 64,
                        "time": 221.02917600000043,
                        "value": 0
                    },
                    {
                        "number": 64,
                        "time": 221.09259505000043,
                        "value": 1
                    },
                    {
                        "number": 64,
                        "time": 221.47494758333377,
                        "value": 0
                    },
                    {
                        "number": 64,
                        "time": 221.53377105000044,
                        "value": 1
                    },
                    {
                        "number": 64,
                        "time": 221.91980005000045,
                        "value": 0
                    },
                    {
                        "number": 64,
                        "time": 221.9455353166671,
                        "value": 1
                    },
                    {
                        "number": 64,
                        "time": 222.82145350000044,
                        "value": 0
                    },
                    {
                        "number": 64,
                        "time": 222.86740933333377,
                        "value": 1
                    },
                    {
                        "number": 64,
                        "time": 223.68450405000044,
                        "value": 0
                    },
                    {
                        "number": 64,
                        "time": 223.7129966666671,
                        "value": 1
                    },
                    {
                        "number": 64,
                        "time": 224.57696633333376,
                        "value": 0
                    },
                    {
                        "number": 64,
                        "time": 224.63303245000043,
                        "value": 1
                    },
                    {
                        "number": 64,
                        "time": 225.4409360000005,
                        "value": 0
                    },
                    {
                        "number": 64,
                        "time": 225.4960830000005,
                        "value": 1
                    },
                    {
                        "number": 64,
                        "time": 226.76446400000052,
                        "value": 0
                    },
                    {
                        "number": 64,
                        "time": 226.8113389500005,
                        "value": 1
                    },
                    {
                        "number": 64,
                        "time": 229.29479218333384,
                        "value": 0
                    },
                    {
                        "number": 64,
                        "time": 229.85269600000052,
                        "value": 1
                    },
                    {
                        "number": 64,
                        "time": 233.26721441666717,
                        "value": 0
                    },
                    {
                        "number": 64,
                        "time": 245.77179666666717,
                        "value": 1
                    },
                    {
                        "number": 64,
                        "time": 245.94550971666717,
                        "value": 0
                    },
                    {
                        "number": 64,
                        "time": 246.21573001666718,
                        "value": 1
                    },
                    {
                        "number": 64,
                        "time": 246.43631801666717,
                        "value": 0
                    },
                    {
                        "number": 64,
                        "time": 246.6532295500005,
                        "value": 1
                    },
                    {
                        "number": 64,
                        "time": 246.8710602000005,
                        "value": 0
                    },
                    {
                        "number": 64,
                        "time": 247.08797173333383,
                        "value": 1
                    },
                    {
                        "number": 64,
                        "time": 247.59716236666716,
                        "value": 0
                    },
                    {
                        "number": 64,
                        "time": 247.9933016500005,
                        "value": 1
                    },
                    {
                        "number": 64,
                        "time": 248.4537791000005,
                        "value": 0
                    },
                    {
                        "number": 64,
                        "time": 248.83705075000051,
                        "value": 1
                    },
                    {
                        "number": 64,
                        "time": 249.18080038333386,
                        "value": 0
                    },
                    {
                        "number": 64,
                        "time": 249.29385173333387,
                        "value": 1
                    },
                    {
                        "number": 64,
                        "time": 249.9629686666672,
                        "value": 0
                    },
                    {
                        "number": 64,
                        "time": 250.1807993166672,
                        "value": 1
                    },
                    {
                        "number": 64,
                        "time": 250.70653405000053,
                        "value": 0
                    },
                    {
                        "number": 64,
                        "time": 251.03190135000054,
                        "value": 1
                    },
                    {
                        "number": 64,
                        "time": 251.42620240000053,
                        "value": 0
                    },
                    {
                        "number": 64,
                        "time": 251.5043273166672,
                        "value": 1
                    },
                    {
                        "number": 64,
                        "time": 252.02454735000055,
                        "value": 0
                    },
                    {
                        "number": 64,
                        "time": 252.3682969833339,
                        "value": 1
                    },
                    {
                        "number": 64,
                        "time": 252.91241405000056,
                        "value": 0
                    },
                    {
                        "number": 64,
                        "time": 253.23502400000055,
                        "value": 1
                    },
                    {
                        "number": 64,
                        "time": 253.53741338333387,
                        "value": 0
                    },
                    {
                        "number": 64,
                        "time": 255.4776686666672,
                        "value": 1
                    },
                    {
                        "number": 64,
                        "time": 255.6513817166672,
                        "value": 0
                    },
                    {
                        "number": 64,
                        "time": 255.9216020166672,
                        "value": 1
                    },
                    {
                        "number": 64,
                        "time": 256.1421900166672,
                        "value": 0
                    },
                    {
                        "number": 64,
                        "time": 256.35910155000056,
                        "value": 1
                    },
                    {
                        "number": 64,
                        "time": 256.57693220000056,
                        "value": 0
                    },
                    {
                        "number": 64,
                        "time": 256.9914538166672,
                        "value": 1
                    },
                    {
                        "number": 64,
                        "time": 257.3195784666672,
                        "value": 0
                    },
                    {
                        "number": 64,
                        "time": 257.90689401666725,
                        "value": 1
                    },
                    {
                        "number": 64,
                        "time": 258.23409955000056,
                        "value": 0
                    },
                    {
                        "number": 64,
                        "time": 258.7690254500006,
                        "value": 1
                    },
                    {
                        "number": 64,
                        "time": 259.0649810166673,
                        "value": 0
                    },
                    {
                        "number": 64,
                        "time": 259.63575246666727,
                        "value": 1
                    },
                    {
                        "number": 64,
                        "time": 259.8499066500006,
                        "value": 0
                    },
                    {
                        "number": 64,
                        "time": 260.5631411833339,
                        "value": 1
                    },
                    {
                        "number": 64,
                        "time": 260.8976996500006,
                        "value": 0
                    },
                    {
                        "number": 64,
                        "time": 261.43262555000064,
                        "value": 1
                    },
                    {
                        "number": 64,
                        "time": 261.66975765000063,
                        "value": 0
                    },
                    {
                        "number": 64,
                        "time": 262.29199963333394,
                        "value": 1
                    },
                    {
                        "number": 64,
                        "time": 262.6228816333339,
                        "value": 0
                    },
                    {
                        "number": 64,
                        "time": 263.1780281000006,
                        "value": 1
                    },
                    {
                        "number": 64,
                        "time": 263.4114837333339,
                        "value": 0
                    },
                    {
                        "number": 64,
                        "time": 264.30026955000056,
                        "value": 1
                    },
                    {
                        "number": 64,
                        "time": 264.7056000000006,
                        "value": 0
                    },
                    {
                        "number": 64,
                        "time": 264.76442346666727,
                        "value": 1
                    },
                    {
                        "number": 64,
                        "time": 264.9427321000006,
                        "value": 0
                    },
                    {
                        "number": 64,
                        "time": 265.15688628333396,
                        "value": 1
                    },
                    {
                        "number": 64,
                        "time": 265.58795200000066,
                        "value": 0
                    },
                    {
                        "number": 64,
                        "time": 265.628393133334,
                        "value": 1
                    },
                    {
                        "number": 64,
                        "time": 265.840709083334,
                        "value": 0
                    },
                    {
                        "number": 64,
                        "time": 266.07324560000063,
                        "value": 1
                    },
                    {
                        "number": 64,
                        "time": 266.4703040000006,
                        "value": 0
                    },
                    {
                        "number": 64,
                        "time": 266.50798778333393,
                        "value": 1
                    },
                    {
                        "number": 64,
                        "time": 266.72857578333395,
                        "value": 0
                    },
                    {
                        "number": 64,
                        "time": 266.9436490833339,
                        "value": 1
                    },
                    {
                        "number": 64,
                        "time": 267.3526560000006,
                        "value": 0
                    },
                    {
                        "number": 64,
                        "time": 267.39493536666726,
                        "value": 1
                    },
                    {
                        "number": 64,
                        "time": 267.80669963333395,
                        "value": 0
                    },
                    {
                        "number": 64,
                        "time": 267.86552310000064,
                        "value": 1
                    },
                    {
                        "number": 64,
                        "time": 268.6826178166673,
                        "value": 0
                    },
                    {
                        "number": 64,
                        "time": 268.702838383334,
                        "value": 1
                    },
                    {
                        "number": 64,
                        "time": 269.11736000000064,
                        "value": 0
                    },
                    {
                        "number": 64,
                        "time": 269.17618346666734,
                        "value": 1
                    },
                    {
                        "number": 64,
                        "time": 269.5723227500007,
                        "value": 0
                    },
                    {
                        "number": 64,
                        "time": 269.6302271000007,
                        "value": 1
                    },
                    {
                        "number": 64,
                        "time": 270.44732181666734,
                        "value": 0
                    },
                    {
                        "number": 64,
                        "time": 270.46846150000067,
                        "value": 1
                    },
                    {
                        "number": 64,
                        "time": 270.88298311666733,
                        "value": 0
                    },
                    {
                        "number": 64,
                        "time": 270.94088746666733,
                        "value": 1
                    },
                    {
                        "number": 64,
                        "time": 271.3296738166673,
                        "value": 0
                    },
                    {
                        "number": 64,
                        "time": 271.35081350000064,
                        "value": 1
                    },
                    {
                        "number": 64,
                        "time": 271.76533511666736,
                        "value": 0
                    },
                    {
                        "number": 64,
                        "time": 271.793827733334,
                        "value": 1
                    },
                    {
                        "number": 64,
                        "time": 272.2157022833339,
                        "value": 0
                    },
                    {
                        "number": 64,
                        "time": 272.24511401666723,
                        "value": 1
                    },
                    {
                        "number": 64,
                        "time": 272.6467680000005,
                        "value": 0
                    },
                    {
                        "number": 64,
                        "time": 272.67893708333384,
                        "value": 1
                    },
                    {
                        "number": 64,
                        "time": 273.53003911666684,
                        "value": 0
                    },
                    {
                        "number": 64,
                        "time": 273.5612890833335,
                        "value": 1
                    },
                    {
                        "number": 64,
                        "time": 273.9813254,
                        "value": 0
                    },
                    {
                        "number": 64,
                        "time": 274.00430331666666,
                        "value": 1
                    },
                    {
                        "number": 64,
                        "time": 274.41147199999983,
                        "value": 0
                    },
                    {
                        "number": 64,
                        "time": 274.44364108333315,
                        "value": 1
                    },
                    {
                        "number": 64,
                        "time": 275.3066916333328,
                        "value": 0
                    },
                    {
                        "number": 64,
                        "time": 275.3333460166661,
                        "value": 1
                    },
                    {
                        "number": 64,
                        "time": 276.17617599999943,
                        "value": 0
                    },
                    {
                        "number": 64,
                        "time": 276.21110243333277,
                        "value": 1
                    },
                    {
                        "number": 64,
                        "time": 277.07139563333277,
                        "value": 0
                    },
                    {
                        "number": 64,
                        "time": 277.0980500166661,
                        "value": 1
                    },
                    {
                        "number": 64,
                        "time": 277.9408799999994,
                        "value": 0
                    },
                    {
                        "number": 64,
                        "time": 277.97580643333276,
                        "value": 1
                    },
                    {
                        "number": 64,
                        "time": 278.82323199999945,
                        "value": 0
                    },
                    {
                        "number": 64,
                        "time": 278.8572393166661,
                        "value": 1
                    },
                    {
                        "number": 64,
                        "time": 279.26440799999943,
                        "value": 0
                    },
                    {
                        "number": 64,
                        "time": 279.29657708333275,
                        "value": 1
                    },
                    {
                        "number": 64,
                        "time": 279.7055839999994,
                        "value": 0
                    },
                    {
                        "number": 64,
                        "time": 280.16238498333274,
                        "value": 1
                    },
                    {
                        "number": 64,
                        "time": 280.60539921666606,
                        "value": 0
                    },
                    {
                        "number": 64,
                        "time": 281.04749433333274,
                        "value": 1
                    },
                    {
                        "number": 64,
                        "time": 281.4748835833327,
                        "value": 0
                    },
                    {
                        "number": 64,
                        "time": 281.9298463333327,
                        "value": 0
                    },
                    {
                        "number": 64,
                        "time": 281.95374336666606,
                        "value": 1
                    },
                    {
                        "number": 64,
                        "time": 282.80668363333274,
                        "value": 0
                    },
                    {
                        "number": 64,
                        "time": 282.84620564999943,
                        "value": 1
                    },
                    {
                        "number": 64,
                        "time": 283.6835209333328,
                        "value": 0
                    },
                    {
                        "number": 64,
                        "time": 283.7129326666661,
                        "value": 1
                    },
                    {
                        "number": 64,
                        "time": 284.5824170333328,
                        "value": 0
                    },
                    {
                        "number": 64,
                        "time": 284.61918169999944,
                        "value": 1
                    },
                    {
                        "number": 64,
                        "time": 285.4564969833328,
                        "value": 0
                    },
                    {
                        "number": 64,
                        "time": 285.5024528166661,
                        "value": 1
                    },
                    {
                        "number": 64,
                        "time": 285.8866435833328,
                        "value": 0
                    },
                    {
                        "number": 64,
                        "time": 285.91605531666613,
                        "value": 1
                    },
                    {
                        "number": 64,
                        "time": 286.33517251666615,
                        "value": 0
                    },
                    {
                        "number": 64,
                        "time": 286.36274601666616,
                        "value": 1
                    },
                    {
                        "number": 64,
                        "time": 286.7689955833328,
                        "value": 0
                    },
                    {
                        "number": 64,
                        "time": 286.8066793666661,
                        "value": 1
                    },
                    {
                        "number": 64,
                        "time": 287.2092524666661,
                        "value": 0
                    },
                    {
                        "number": 64,
                        "time": 287.2542891833328,
                        "value": 1
                    },
                    {
                        "number": 64,
                        "time": 287.8765311666661,
                        "value": 0
                    },
                    {
                        "number": 64,
                        "time": 288.11733973333276,
                        "value": 1
                    },
                    {
                        "number": 64,
                        "time": 288.41880999999944,
                        "value": 0
                    },
                    {
                        "number": 64,
                        "time": 288.5778171833328,
                        "value": 1
                    },
                    {
                        "number": 64,
                        "time": 289.2175223833328,
                        "value": 0
                    },
                    {
                        "number": 64,
                        "time": 289.86274228333275,
                        "value": 0
                    },
                    {
                        "number": 64,
                        "time": 289.89491136666607,
                        "value": 1
                    },
                    {
                        "number": 64,
                        "time": 290.2938079999994,
                        "value": 0
                    },
                    {
                        "number": 64,
                        "time": 290.32781531666603,
                        "value": 1
                    },
                    {
                        "number": 64,
                        "time": 290.7478516333327,
                        "value": 0
                    },
                    {
                        "number": 64,
                        "time": 290.7873736499994,
                        "value": 1
                    },
                    {
                        "number": 64,
                        "time": 291.18994674999936,
                        "value": 0
                    },
                    {
                        "number": 64,
                        "time": 291.21568201666605,
                        "value": 1
                    },
                    {
                        "number": 64,
                        "time": 291.6357183333327,
                        "value": 0
                    },
                    {
                        "number": 64,
                        "time": 291.6660491833327,
                        "value": 1
                    },
                    {
                        "number": 64,
                        "time": 292.288291166666,
                        "value": 0
                    },
                    {
                        "number": 64,
                        "time": 292.52909973333266,
                        "value": 1
                    },
                    {
                        "number": 64,
                        "time": 292.83056999999934,
                        "value": 0
                    },
                    {
                        "number": 64,
                        "time": 292.9895771833327,
                        "value": 1
                    },
                    {
                        "number": 64,
                        "time": 293.6292823833327,
                        "value": 0
                    },
                    {
                        "number": 64,
                        "time": 296.47027199999934,
                        "value": 1
                    },
                    {
                        "number": 64,
                        "time": 297.35262399999937,
                        "value": 0
                    },
                    {
                        "number": 64,
                        "time": 297.48038121666605,
                        "value": 1
                    },
                    {
                        "number": 64,
                        "time": 299.1274382833327,
                        "value": 0
                    },
                    {
                        "number": 64,
                        "time": 299.16236471666605,
                        "value": 1
                    },
                    {
                        "number": 64,
                        "time": 300.00979028333273,
                        "value": 0
                    },
                    {
                        "number": 64,
                        "time": 300.0447167166661,
                        "value": 1
                    },
                    {
                        "number": 64,
                        "time": 300.8820319999994,
                        "value": 0
                    },
                    {
                        "number": 64,
                        "time": 301.0097892166661,
                        "value": 1
                    },
                    {
                        "number": 64,
                        "time": 302.65684628333275,
                        "value": 0
                    },
                    {
                        "number": 64,
                        "time": 302.6917727166661,
                        "value": 1
                    },
                    {
                        "number": 64,
                        "time": 303.5391982833328,
                        "value": 0
                    },
                    {
                        "number": 64,
                        "time": 303.5741247166661,
                        "value": 1
                    },
                    {
                        "number": 64,
                        "time": 304.41143999999946,
                        "value": 0
                    },
                    {
                        "number": 64,
                        "time": 309.06400856666613,
                        "value": 1
                    },
                    {
                        "number": 64,
                        "time": 309.2294495666661,
                        "value": 0
                    },
                    {
                        "number": 64,
                        "time": 309.52724336666614,
                        "value": 1
                    },
                    {
                        "number": 64,
                        "time": 309.7110666999995,
                        "value": 0
                    },
                    {
                        "number": 64,
                        "time": 309.7377210833328,
                        "value": 1
                    },
                    {
                        "number": 64,
                        "time": 310.0520589833328,
                        "value": 0
                    },
                    {
                        "number": 64,
                        "time": 310.08698541666615,
                        "value": 1
                    },
                    {
                        "number": 64,
                        "time": 310.58790399999947,
                        "value": 0
                    },
                    {
                        "number": 64,
                        "time": 310.6366171833328,
                        "value": 1
                    },
                    {
                        "number": 64,
                        "time": 311.4702559999995,
                        "value": 0
                    },
                    {
                        "number": 64,
                        "time": 311.5162118333328,
                        "value": 1
                    },
                    {
                        "number": 64,
                        "time": 312.35260799999946,
                        "value": 0
                    },
                    {
                        "number": 64,
                        "time": 312.3948873666661,
                        "value": 1
                    },
                    {
                        "number": 64,
                        "time": 313.23495999999943,
                        "value": 0
                    },
                    {
                        "number": 64,
                        "time": 313.2965408166661,
                        "value": 1
                    },
                    {
                        "number": 64,
                        "time": 314.1430472666661,
                        "value": 0
                    },
                    {
                        "number": 64,
                        "time": 314.17245899999944,
                        "value": 1
                    },
                    {
                        "number": 64,
                        "time": 314.5557306499994,
                        "value": 0
                    },
                    {
                        "number": 64,
                        "time": 314.5915761999994,
                        "value": 1
                    },
                    {
                        "number": 64,
                        "time": 314.99966399999937,
                        "value": 0
                    },
                    {
                        "number": 64,
                        "time": 315.05481099999935,
                        "value": 1
                    },
                    {
                        "number": 64,
                        "time": 315.667861816666,
                        "value": 0
                    },
                    {
                        "number": 64,
                        "time": 315.71014118333267,
                        "value": 1
                    },
                    {
                        "number": 64,
                        "time": 315.88201599999934,
                        "value": 0
                    },
                    {
                        "number": 64,
                        "time": 315.9509497499993,
                        "value": 1
                    },
                    {
                        "number": 64,
                        "time": 316.14488336666597,
                        "value": 0
                    },
                    {
                        "number": 64,
                        "time": 316.191758316666,
                        "value": 1
                    },
                    {
                        "number": 64,
                        "time": 316.370986066666,
                        "value": 0
                    },
                    {
                        "number": 64,
                        "time": 316.417861016666,
                        "value": 1
                    },
                    {
                        "number": 64,
                        "time": 316.586059366666,
                        "value": 0
                    },
                    {
                        "number": 64,
                        "time": 316.6228240333327,
                        "value": 1
                    },
                    {
                        "number": 64,
                        "time": 316.76436799999937,
                        "value": 0
                    },
                    {
                        "number": 64,
                        "time": 316.83330174999935,
                        "value": 1
                    },
                    {
                        "number": 64,
                        "time": 317.4472716833327,
                        "value": 0
                    },
                    {
                        "number": 64,
                        "time": 317.49506574999936,
                        "value": 1
                    },
                    {
                        "number": 64,
                        "time": 317.64671999999933,
                        "value": 0
                    },
                    {
                        "number": 64,
                        "time": 317.71197728333266,
                        "value": 1
                    },
                    {
                        "number": 64,
                        "time": 318.5290719999993,
                        "value": 0
                    },
                    {
                        "number": 64,
                        "time": 318.5869763499993,
                        "value": 1
                    },
                    {
                        "number": 64,
                        "time": 319.09616698333264,
                        "value": 0
                    },
                    {
                        "number": 64,
                        "time": 319.7423059999993,
                        "value": 1
                    },
                    {
                        "number": 64,
                        "time": 319.972085166666,
                        "value": 0
                    },
                    {
                        "number": 64,
                        "time": 320.01528364999933,
                        "value": 1
                    },
                    {
                        "number": 64,
                        "time": 320.18807758333264,
                        "value": 0
                    },
                    {
                        "number": 64,
                        "time": 320.2358716499993,
                        "value": 1
                    },
                    {
                        "number": 64,
                        "time": 320.41418028333266,
                        "value": 0
                    },
                    {
                        "number": 64,
                        "time": 320.4564596499993,
                        "value": 1
                    },
                    {
                        "number": 64,
                        "time": 320.628334466666,
                        "value": 0
                    },
                    {
                        "number": 64,
                        "time": 320.65682708333264,
                        "value": 1
                    },
                    {
                        "number": 64,
                        "time": 320.8507606999993,
                        "value": 0
                    },
                    {
                        "number": 64,
                        "time": 320.8976356499993,
                        "value": 1
                    },
                    {
                        "number": 64,
                        "time": 321.0713486999993,
                        "value": 0
                    },
                    {
                        "number": 64,
                        "time": 321.1016795499993,
                        "value": 1
                    },
                    {
                        "number": 64,
                        "time": 321.29837051666595,
                        "value": 0
                    },
                    {
                        "number": 64,
                        "time": 321.3599513333326,
                        "value": 1
                    },
                    {
                        "number": 64,
                        "time": 321.5198776333326,
                        "value": 0
                    },
                    {
                        "number": 64,
                        "time": 321.5915687333326,
                        "value": 1
                    },
                    {
                        "number": 64,
                        "time": 321.736789166666,
                        "value": 0
                    },
                    {
                        "number": 64,
                        "time": 321.775392066666,
                        "value": 1
                    },
                    {
                        "number": 64,
                        "time": 321.95829628333263,
                        "value": 0
                    },
                    {
                        "number": 64,
                        "time": 322.0060903499993,
                        "value": 1
                    },
                    {
                        "number": 64,
                        "time": 322.0832961499993,
                        "value": 0
                    },
                    {
                        "number": 64,
                        "time": 322.0906490833326,
                        "value": 1
                    },
                    {
                        "number": 64,
                        "time": 322.5180383333326,
                        "value": 0
                    },
                    {
                        "number": 64,
                        "time": 322.95186139999925,
                        "value": 1
                    },
                    {
                        "number": 64,
                        "time": 323.3976329833326,
                        "value": 0
                    },
                    {
                        "number": 64,
                        "time": 323.42153001666594,
                        "value": 1
                    },
                    {
                        "number": 64,
                        "time": 323.8231839999993,
                        "value": 0
                    },
                    {
                        "number": 64,
                        "time": 323.8866030499993,
                        "value": 1
                    },
                    {
                        "number": 64,
                        "time": 324.7082933499993,
                        "value": 0
                    },
                    {
                        "number": 64,
                        "time": 324.75884476666596,
                        "value": 1
                    },
                    {
                        "number": 64,
                        "time": 324.935315166666,
                        "value": 0
                    },
                    {
                        "number": 64,
                        "time": 325.018035666666,
                        "value": 1
                    },
                    {
                        "number": 64,
                        "time": 325.158660516666,
                        "value": 0
                    },
                    {
                        "number": 64,
                        "time": 325.22299868333266,
                        "value": 1
                    },
                    {
                        "number": 64,
                        "time": 325.37649116666597,
                        "value": 0
                    },
                    {
                        "number": 64,
                        "time": 325.4435866833326,
                        "value": 1
                    },
                    {
                        "number": 64,
                        "time": 325.59156446666594,
                        "value": 0
                    },
                    {
                        "number": 64,
                        "time": 325.7174834499993,
                        "value": 1
                    },
                    {
                        "number": 64,
                        "time": 326.41876946666594,
                        "value": 0
                    },
                    {
                        "number": 64,
                        "time": 326.5741001833326,
                        "value": 1
                    },
                    {
                        "number": 64,
                        "time": 327.25792298333255,
                        "value": 0
                    },
                    {
                        "number": 64,
                        "time": 327.36545963333253,
                        "value": 1
                    },
                    {
                        "number": 64,
                        "time": 328.0143559999992,
                        "value": 0
                    }
                ]
            },
            "id": 3,
            "name": "Pedal",
            "instrumentNumber": 0,
            "instrument": "acoustic grand piano",
            "instrumentFamily": "piano",
            "channelNumber": 0,
            "isPercussion": false
        },
        {
            "startTime": 0,
            "duration": 0,
            "length": 0,
            "notes": [],
            "controlChanges": {
                "64": [
                    {
                        "number": 64,
                        "time": 4.2794072,
                        "value": 0
                    },
                    {
                        "number": 64,
                        "time": 113.8564962,
                        "value": 0
                    },
                    {
                        "number": 64,
                        "time": 113.94013581666667,
                        "value": 1
                    }
                ]
            },
            "id": 4,
            "name": "Liszt: Rhapsodie No. 12"
        },
        {
            "startTime": 0,
            "duration": 0,
            "length": 0,
            "notes": [],
            "controlChanges": {},
            "id": 5,
            "name": "Copyright  2004 by Bernd Krger"
        },
        {
            "startTime": 0,
            "duration": 0,
            "length": 0,
            "notes": [],
            "controlChanges": {},
            "id": 6,
            "name": "http://www.piano-midi.de"
        },
        {
            "startTime": 0,
            "duration": 0,
            "length": 0,
            "notes": [],
            "controlChanges": {},
            "id": 7,
            "name": "Edition: 2014-03-09"
        },
        {
            "startTime": 0,
            "duration": 0,
            "length": 0,
            "notes": [],
            "controlChanges": {},
            "id": 8,
            "name": "Spur 8"
        },
        {
            "startTime": 0,
            "duration": 0,
            "length": 0,
            "notes": [],
            "controlChanges": {},
            "id": 9,
            "name": "Spur 9"
        }
    ]
}