{
    "header": {
        "PPQ": 480,
        "timeSignature": [
            6,
            8
        ],
        "bpm": 91.20994553246086,
        "name": "Promenade - Il vecchio Castello (2)"
    },
    "startTime": 0,
    "duration": 253.24815035416745,
    "tracks": [
        {
            "startTime": 0,
            "duration": 0,
            "length": 0,
            "notes": [],
            "controlChanges": {},
            "id": 0,
            "name": "Promenade - Il vecchio Castello (2)"
        },
        {
            "startTime": 7.236052999999999,
            "duration": 252.60403200000056,
            "length": 719,
            "notes": [
                {
                    "name": "G#4",
                    "midi": 68,
                    "time": 7.236052999999999,
                    "velocity": 0.31496062992125984,
                    "duration": 0.6578229999999996
                },
                {
                    "name": "F4",
                    "midi": 65,
                    "time": 7.236052999999999,
                    "velocity": 0.2677165354330709,
                    "duration": 0.6578229999999996
                },
                {
                    "name": "C#4",
                    "midi": 61,
                    "time": 7.236052999999999,
                    "velocity": 0.2677165354330709,
                    "duration": 0.6578229999999996
                },
                {
                    "name": "A#4",
                    "midi": 70,
                    "time": 7.893875999999999,
                    "velocity": 0.28346456692913385,
                    "duration": 0.6578230000000005
                },
                {
                    "name": "G4",
                    "midi": 67,
                    "time": 7.893875999999999,
                    "velocity": 0.23622047244094488,
                    "duration": 0.6578230000000005
                },
                {
                    "name": "A#3",
                    "midi": 58,
                    "time": 7.893875999999999,
                    "velocity": 0.23622047244094488,
                    "duration": 0.6578230000000005
                },
                {
                    "name": "D#4",
                    "midi": 63,
                    "time": 8.551699,
                    "velocity": 0.2755905511811024,
                    "duration": 0.6578230000000005
                },
                {
                    "name": "C5",
                    "midi": 72,
                    "time": 8.551699,
                    "velocity": 0.33070866141732286,
                    "duration": 0.6578230000000005
                },
                {
                    "name": "G#4",
                    "midi": 68,
                    "time": 8.551699,
                    "velocity": 0.2755905511811024,
                    "duration": 0.6578230000000005
                },
                {
                    "name": "D#5",
                    "midi": 75,
                    "time": 9.209522,
                    "velocity": 0.3700787401574803,
                    "duration": 0.6578230000000005
                },
                {
                    "name": "A#4",
                    "midi": 70,
                    "time": 9.209522,
                    "velocity": 0.30708661417322836,
                    "duration": 0.6578230000000005
                },
                {
                    "name": "G4",
                    "midi": 67,
                    "time": 9.209522,
                    "velocity": 0.30708661417322836,
                    "duration": 0.6578230000000005
                },
                {
                    "name": "G#5",
                    "midi": 80,
                    "time": 9.867345,
                    "velocity": 0.36220472440944884,
                    "duration": 0.6578230000000005
                },
                {
                    "name": "D#5",
                    "midi": 75,
                    "time": 9.867345,
                    "velocity": 0.30708661417322836,
                    "duration": 0.6578230000000005
                },
                {
                    "name": "C5",
                    "midi": 72,
                    "time": 9.867345,
                    "velocity": 0.30708661417322836,
                    "duration": 0.6578230000000005
                },
                {
                    "name": "A#4",
                    "midi": 70,
                    "time": 10.525168,
                    "velocity": 0.30708661417322836,
                    "duration": 0.6578230000000005
                },
                {
                    "name": "G5",
                    "midi": 79,
                    "time": 10.525168,
                    "velocity": 0.3700787401574803,
                    "duration": 0.6578230000000005
                },
                {
                    "name": "D#5",
                    "midi": 75,
                    "time": 10.525168,
                    "velocity": 0.30708661417322836,
                    "duration": 0.6578230000000005
                },
                {
                    "name": "D#5",
                    "midi": 75,
                    "time": 11.182991000000001,
                    "velocity": 0.3543307086614173,
                    "duration": 0.6578230000000005
                },
                {
                    "name": "C5",
                    "midi": 72,
                    "time": 11.182991000000001,
                    "velocity": 0.2992125984251969,
                    "duration": 0.6578230000000005
                },
                {
                    "name": "G4",
                    "midi": 67,
                    "time": 11.182991000000001,
                    "velocity": 0.2992125984251969,
                    "duration": 0.6578230000000005
                },
                {
                    "name": "F5",
                    "midi": 77,
                    "time": 11.840814000000002,
                    "velocity": 0.30708661417322836,
                    "duration": 0.6578230000000005
                },
                {
                    "name": "C5",
                    "midi": 72,
                    "time": 11.840814000000002,
                    "velocity": 0.25984251968503935,
                    "duration": 0.6578230000000005
                },
                {
                    "name": "G#4",
                    "midi": 68,
                    "time": 11.840814000000002,
                    "velocity": 0.25984251968503935,
                    "duration": 0.6578230000000005
                },
                {
                    "name": "C#5",
                    "midi": 73,
                    "time": 12.498637000000002,
                    "velocity": 0.25196850393700787,
                    "duration": 0.6578230000000005
                },
                {
                    "name": "A#5",
                    "midi": 82,
                    "time": 12.498637000000002,
                    "velocity": 0.2992125984251969,
                    "duration": 0.6578230000000005
                },
                {
                    "name": "F5",
                    "midi": 77,
                    "time": 12.498637000000002,
                    "velocity": 0.25196850393700787,
                    "duration": 0.6578230000000005
                },
                {
                    "name": "C6",
                    "midi": 84,
                    "time": 13.156460000000003,
                    "velocity": 0.25984251968503935,
                    "duration": 0.6578230000000005
                },
                {
                    "name": "G#5",
                    "midi": 80,
                    "time": 13.156460000000003,
                    "velocity": 0.2204724409448819,
                    "duration": 0.6578230000000005
                },
                {
                    "name": "F5",
                    "midi": 77,
                    "time": 13.156460000000003,
                    "velocity": 0.2204724409448819,
                    "duration": 0.6578230000000005
                },
                {
                    "name": "G5",
                    "midi": 79,
                    "time": 13.814283000000003,
                    "velocity": 0.2204724409448819,
                    "duration": 0.32891150000000025
                },
                {
                    "name": "A#5",
                    "midi": 82,
                    "time": 13.814283000000003,
                    "velocity": 0.2204724409448819,
                    "duration": 0.32891150000000025
                },
                {
                    "name": "D#6",
                    "midi": 87,
                    "time": 13.814283000000003,
                    "velocity": 0.25984251968503935,
                    "duration": 0.32891150000000025
                },
                {
                    "name": "G5",
                    "midi": 79,
                    "time": 21.708159000000002,
                    "velocity": 0.31496062992125984,
                    "duration": 0.6578230000000005
                },
                {
                    "name": "G4",
                    "midi": 67,
                    "time": 21.708159000000002,
                    "velocity": 0.2677165354330709,
                    "duration": 0.6578230000000005
                },
                {
                    "name": "D#5",
                    "midi": 75,
                    "time": 21.708159000000002,
                    "velocity": 0.2677165354330709,
                    "duration": 0.6578230000000005
                },
                {
                    "name": "A#4",
                    "midi": 70,
                    "time": 21.708159000000002,
                    "velocity": 0.2677165354330709,
                    "duration": 0.6578230000000005
                },
                {
                    "name": "F4",
                    "midi": 65,
                    "time": 22.365982000000002,
                    "velocity": 0.2677165354330709,
                    "duration": 0.6578230000000005
                },
                {
                    "name": "G#4",
                    "midi": 68,
                    "time": 22.365982000000002,
                    "velocity": 0.2677165354330709,
                    "duration": 0.6578230000000005
                },
                {
                    "name": "C#5",
                    "midi": 73,
                    "time": 22.365982000000002,
                    "velocity": 0.2677165354330709,
                    "duration": 0.6578230000000005
                },
                {
                    "name": "F5",
                    "midi": 77,
                    "time": 22.365982000000002,
                    "velocity": 0.31496062992125984,
                    "duration": 0.6578230000000005
                },
                {
                    "name": "G#5",
                    "midi": 80,
                    "time": 23.023805000000003,
                    "velocity": 0.31496062992125984,
                    "duration": 0.6578230000000005
                },
                {
                    "name": "D#5",
                    "midi": 75,
                    "time": 23.023805000000003,
                    "velocity": 0.2677165354330709,
                    "duration": 0.6578230000000005
                },
                {
                    "name": "G#4",
                    "midi": 68,
                    "time": 23.023805000000003,
                    "velocity": 0.2677165354330709,
                    "duration": 0.6578230000000005
                },
                {
                    "name": "C5",
                    "midi": 72,
                    "time": 23.023805000000003,
                    "velocity": 0.2677165354330709,
                    "duration": 0.6578230000000005
                },
                {
                    "name": "D#5",
                    "midi": 75,
                    "time": 23.681628000000003,
                    "velocity": 0.2677165354330709,
                    "duration": 0.6578230000000005
                },
                {
                    "name": "G5",
                    "midi": 79,
                    "time": 23.681628000000003,
                    "velocity": 0.2677165354330709,
                    "duration": 0.6578230000000005
                },
                {
                    "name": "A#5",
                    "midi": 82,
                    "time": 23.681628000000003,
                    "velocity": 0.31496062992125984,
                    "duration": 0.6578230000000005
                },
                {
                    "name": "A#4",
                    "midi": 70,
                    "time": 23.681628000000003,
                    "velocity": 0.2677165354330709,
                    "duration": 0.6578230000000005
                },
                {
                    "name": "F5",
                    "midi": 77,
                    "time": 24.339451000000004,
                    "velocity": 0.2755905511811024,
                    "duration": 0.6578230000000005
                },
                {
                    "name": "A#5",
                    "midi": 82,
                    "time": 24.339451000000004,
                    "velocity": 0.2755905511811024,
                    "duration": 0.6578230000000005
                },
                {
                    "name": "C#6",
                    "midi": 85,
                    "time": 24.339451000000004,
                    "velocity": 0.33070866141732286,
                    "duration": 0.6578230000000005
                },
                {
                    "name": "C#5",
                    "midi": 73,
                    "time": 24.339451000000004,
                    "velocity": 0.2755905511811024,
                    "duration": 0.6578230000000005
                },
                {
                    "name": "C#6",
                    "midi": 85,
                    "time": 24.997274000000004,
                    "velocity": 0.30708661417322836,
                    "duration": 0.6578230000000005
                },
                {
                    "name": "F5",
                    "midi": 77,
                    "time": 24.997274000000004,
                    "velocity": 0.30708661417322836,
                    "duration": 0.6578230000000005
                },
                {
                    "name": "A#5",
                    "midi": 82,
                    "time": 24.997274000000004,
                    "velocity": 0.30708661417322836,
                    "duration": 0.6578230000000005
                },
                {
                    "name": "F6",
                    "midi": 89,
                    "time": 24.997274000000004,
                    "velocity": 0.36220472440944884,
                    "duration": 0.6578230000000005
                },
                {
                    "name": "A#5",
                    "midi": 82,
                    "time": 25.655097000000005,
                    "velocity": 0.29133858267716534,
                    "duration": 0.6167090625
                },
                {
                    "name": "G5",
                    "midi": 79,
                    "time": 25.655097000000005,
                    "velocity": 0.29133858267716534,
                    "duration": 0.6167090625
                },
                {
                    "name": "G6",
                    "midi": 91,
                    "time": 25.655097000000005,
                    "velocity": 0.3464566929133858,
                    "duration": 0.6167090625
                },
                {
                    "name": "D#6",
                    "midi": 87,
                    "time": 25.655097000000005,
                    "velocity": 0.29133858267716534,
                    "duration": 0.6167090625
                },
                {
                    "name": "G5",
                    "midi": 79,
                    "time": 26.312920000000005,
                    "velocity": 0.31496062992125984,
                    "duration": 0.6578230000000005
                },
                {
                    "name": "C6",
                    "midi": 84,
                    "time": 26.312920000000005,
                    "velocity": 0.3779527559055118,
                    "duration": 0.6578230000000005
                },
                {
                    "name": "D#5",
                    "midi": 75,
                    "time": 26.312920000000005,
                    "velocity": 0.31496062992125984,
                    "duration": 0.6578230000000005
                },
                {
                    "name": "C5",
                    "midi": 72,
                    "time": 26.312920000000005,
                    "velocity": 0.31496062992125984,
                    "duration": 0.6578230000000005
                },
                {
                    "name": "G#5",
                    "midi": 80,
                    "time": 26.970743000000006,
                    "velocity": 0.36220472440944884,
                    "duration": 0.6578230000000005
                },
                {
                    "name": "G#4",
                    "midi": 68,
                    "time": 26.970743000000006,
                    "velocity": 0.30708661417322836,
                    "duration": 0.6578230000000005
                },
                {
                    "name": "C5",
                    "midi": 72,
                    "time": 26.970743000000006,
                    "velocity": 0.30708661417322836,
                    "duration": 0.6578230000000005
                },
                {
                    "name": "D#5",
                    "midi": 75,
                    "time": 26.970743000000006,
                    "velocity": 0.30708661417322836,
                    "duration": 0.6578230000000005
                },
                {
                    "name": "A#4",
                    "midi": 70,
                    "time": 27.628566000000006,
                    "velocity": 0.2992125984251969,
                    "duration": 0.6578230000000005
                },
                {
                    "name": "A#5",
                    "midi": 82,
                    "time": 27.628566000000006,
                    "velocity": 0.3543307086614173,
                    "duration": 0.6578230000000005
                },
                {
                    "name": "F5",
                    "midi": 77,
                    "time": 27.628566000000006,
                    "velocity": 0.2992125984251969,
                    "duration": 0.6578230000000005
                },
                {
                    "name": "C#5",
                    "midi": 73,
                    "time": 27.628566000000006,
                    "velocity": 0.2992125984251969,
                    "duration": 0.6578230000000005
                },
                {
                    "name": "D#5",
                    "midi": 75,
                    "time": 28.286389000000007,
                    "velocity": 0.2677165354330709,
                    "duration": 0.32891150000000025
                },
                {
                    "name": "A#4",
                    "midi": 70,
                    "time": 28.286389000000007,
                    "velocity": 0.2677165354330709,
                    "duration": 0.32891150000000025
                },
                {
                    "name": "G4",
                    "midi": 67,
                    "time": 28.286389000000007,
                    "velocity": 0.2677165354330709,
                    "duration": 0.32891150000000025
                },
                {
                    "name": "G5",
                    "midi": 79,
                    "time": 28.286389000000007,
                    "velocity": 0.31496062992125984,
                    "duration": 0.32891150000000025
                },
                {
                    "name": "C#4",
                    "midi": 61,
                    "time": 28.944212000000007,
                    "velocity": 0.30708661417322836,
                    "duration": 0.6578230000000005
                },
                {
                    "name": "G#3",
                    "midi": 56,
                    "time": 28.944212000000007,
                    "velocity": 0.30708661417322836,
                    "duration": 0.6578230000000005
                },
                {
                    "name": "F4",
                    "midi": 65,
                    "time": 28.944212000000007,
                    "velocity": 0.3700787401574803,
                    "duration": 0.6578230000000005
                },
                {
                    "name": "D#4",
                    "midi": 63,
                    "time": 29.602035000000008,
                    "velocity": 0.3543307086614173,
                    "duration": 0.6578230000000005
                },
                {
                    "name": "A#3",
                    "midi": 58,
                    "time": 29.602035000000008,
                    "velocity": 0.2992125984251969,
                    "duration": 0.6578230000000005
                },
                {
                    "name": "G3",
                    "midi": 55,
                    "time": 29.602035000000008,
                    "velocity": 0.2992125984251969,
                    "duration": 0.6578230000000005
                },
                {
                    "name": "C4",
                    "midi": 60,
                    "time": 30.25985800000001,
                    "velocity": 0.2992125984251969,
                    "duration": 0.6578230000000005
                },
                {
                    "name": "D#4",
                    "midi": 63,
                    "time": 30.25985800000001,
                    "velocity": 0.2992125984251969,
                    "duration": 0.6578230000000005
                },
                {
                    "name": "G#4",
                    "midi": 68,
                    "time": 30.25985800000001,
                    "velocity": 0.3464566929133858,
                    "duration": 0.6578230000000005
                },
                {
                    "name": "D#4",
                    "midi": 63,
                    "time": 30.91768100000001,
                    "velocity": 0.25984251968503935,
                    "duration": 0.9867345000000007
                },
                {
                    "name": "G4",
                    "midi": 67,
                    "time": 30.91768100000001,
                    "velocity": 0.25984251968503935,
                    "duration": 0.6578230000000005
                },
                {
                    "name": "A#4",
                    "midi": 70,
                    "time": 30.91768100000001,
                    "velocity": 0.30708661417322836,
                    "duration": 0.32891150000000025
                },
                {
                    "name": "D#5",
                    "midi": 75,
                    "time": 31.24659250000001,
                    "velocity": 0.25984251968503935,
                    "duration": 0.32891150000000025
                },
                {
                    "name": "C5",
                    "midi": 72,
                    "time": 31.57550400000001,
                    "velocity": 0.33070866141732286,
                    "duration": 0.32891150000000025
                },
                {
                    "name": "G#4",
                    "midi": 68,
                    "time": 31.57550400000001,
                    "velocity": 0.2755905511811024,
                    "duration": 0.32891150000000025
                },
                {
                    "name": "C#4",
                    "midi": 61,
                    "time": 32.23332700000001,
                    "velocity": 0.25984251968503935,
                    "duration": 0.6578229999999934
                },
                {
                    "name": "F4",
                    "midi": 65,
                    "time": 32.23332700000001,
                    "velocity": 0.25984251968503935,
                    "duration": 0.6578229999999934
                },
                {
                    "name": "A#4",
                    "midi": 70,
                    "time": 32.23332700000001,
                    "velocity": 0.30708661417322836,
                    "duration": 0.3289114999999967
                },
                {
                    "name": "D#5",
                    "midi": 75,
                    "time": 32.56223850000001,
                    "velocity": 0.2677165354330709,
                    "duration": 0.3289114999999967
                },
                {
                    "name": "G4",
                    "midi": 67,
                    "time": 32.89115,
                    "velocity": 0.25196850393700787,
                    "duration": 0.6578230000000005
                },
                {
                    "name": "D#4",
                    "midi": 63,
                    "time": 32.89115,
                    "velocity": 0.25196850393700787,
                    "duration": 0.6578230000000005
                },
                {
                    "name": "C5",
                    "midi": 72,
                    "time": 32.89115,
                    "velocity": 0.2992125984251969,
                    "duration": 0.6578230000000005
                },
                {
                    "name": "G#4",
                    "midi": 68,
                    "time": 33.548973000000004,
                    "velocity": 0.2755905511811024,
                    "duration": 0.6578230000000005
                },
                {
                    "name": "D#4",
                    "midi": 63,
                    "time": 33.548973000000004,
                    "velocity": 0.2755905511811024,
                    "duration": 0.6578230000000005
                },
                {
                    "name": "C4",
                    "midi": 60,
                    "time": 33.548973000000004,
                    "velocity": 0.2755905511811024,
                    "duration": 0.6578230000000005
                },
                {
                    "name": "A#4",
                    "midi": 70,
                    "time": 34.206796000000004,
                    "velocity": 0.33070866141732286,
                    "duration": 0.6578230000000005
                },
                {
                    "name": "F4",
                    "midi": 65,
                    "time": 34.206796000000004,
                    "velocity": 0.2755905511811024,
                    "duration": 0.6578230000000005
                },
                {
                    "name": "D4",
                    "midi": 62,
                    "time": 34.206796000000004,
                    "velocity": 0.2755905511811024,
                    "duration": 0.6578230000000005
                },
                {
                    "name": "A#3",
                    "midi": 58,
                    "time": 34.864619000000005,
                    "velocity": 0.2677165354330709,
                    "duration": 0.6578230000000005
                },
                {
                    "name": "D4",
                    "midi": 62,
                    "time": 34.864619000000005,
                    "velocity": 0.2677165354330709,
                    "duration": 0.6578230000000005
                },
                {
                    "name": "F4",
                    "midi": 65,
                    "time": 34.864619000000005,
                    "velocity": 0.31496062992125984,
                    "duration": 0.6578230000000005
                },
                {
                    "name": "G3",
                    "midi": 55,
                    "time": 35.522442000000005,
                    "velocity": 0.2440944881889764,
                    "duration": 0.6167090625
                },
                {
                    "name": "A#3",
                    "midi": 58,
                    "time": 35.522442000000005,
                    "velocity": 0.2440944881889764,
                    "duration": 0.6167090625
                },
                {
                    "name": "D#4",
                    "midi": 63,
                    "time": 35.522442000000005,
                    "velocity": 0.29133858267716534,
                    "duration": 0.6167090625
                },
                {
                    "name": "A#5",
                    "midi": 82,
                    "time": 36.180265000000006,
                    "velocity": 0.3700787401574803,
                    "duration": 1.315646000000001
                },
                {
                    "name": "A#4",
                    "midi": 70,
                    "time": 36.180265000000006,
                    "velocity": 0.30708661417322836,
                    "duration": 1.315646000000001
                },
                {
                    "name": "D#5",
                    "midi": 75,
                    "time": 37.49591100000001,
                    "velocity": 0.3464566929133858,
                    "duration": 1.9734690000000015
                },
                {
                    "name": "D#6",
                    "midi": 87,
                    "time": 37.49591100000001,
                    "velocity": 0.4094488188976378,
                    "duration": 1.9734690000000015
                },
                {
                    "name": "G6",
                    "midi": 91,
                    "time": 39.46938000000001,
                    "velocity": 0.30708661417322836,
                    "duration": 1.315646000000001
                },
                {
                    "name": "G5",
                    "midi": 79,
                    "time": 39.46938000000001,
                    "velocity": 0.25984251968503935,
                    "duration": 1.315646000000001
                },
                {
                    "name": "G#6",
                    "midi": 92,
                    "time": 40.78502600000001,
                    "velocity": 0.2992125984251969,
                    "duration": 0.6578230000000005
                },
                {
                    "name": "G#5",
                    "midi": 80,
                    "time": 40.78502600000001,
                    "velocity": 0.25196850393700787,
                    "duration": 0.6578230000000005
                },
                {
                    "name": "A#6",
                    "midi": 94,
                    "time": 41.44284900000001,
                    "velocity": 0.29133858267716534,
                    "duration": 1.6445574999999977
                },
                {
                    "name": "A#5",
                    "midi": 82,
                    "time": 41.44284900000001,
                    "velocity": 0.2440944881889764,
                    "duration": 1.6445574999999977
                },
                {
                    "name": "D#3",
                    "midi": 51,
                    "time": 43.416318000000004,
                    "velocity": 0.3543307086614173,
                    "duration": 2.631292000000002
                },
                {
                    "name": "D#3",
                    "midi": 51,
                    "time": 46.047610000000006,
                    "velocity": 0.3228346456692913,
                    "duration": 0.3289114999999967
                },
                {
                    "name": "D#3",
                    "midi": 51,
                    "time": 46.3765215,
                    "velocity": 0.3543307086614173,
                    "duration": 0.3124659249999979
                },
                {
                    "name": "D#3",
                    "midi": 51,
                    "time": 46.705433,
                    "velocity": 0.3228346456692913,
                    "duration": 0.3124659249999979
                },
                {
                    "name": "D#3",
                    "midi": 51,
                    "time": 47.034344499999996,
                    "velocity": 0.2992125984251969,
                    "duration": 0.3124659249999979
                },
                {
                    "name": "D#3",
                    "midi": 51,
                    "time": 47.36325599999999,
                    "velocity": 0.3543307086614173,
                    "duration": 0.4933672499999986
                },
                {
                    "name": "E3",
                    "midi": 52,
                    "time": 47.85662324999999,
                    "velocity": 0.3228346456692913,
                    "duration": 0.1644557500000019
                },
                {
                    "name": "D#3",
                    "midi": 51,
                    "time": 48.02107899999999,
                    "velocity": 0.3543307086614173,
                    "duration": 0.24668362500000285
                },
                {
                    "name": "F#3",
                    "midi": 54,
                    "time": 48.3499905,
                    "velocity": 0.3700787401574803,
                    "duration": 0.3124659249999979
                },
                {
                    "name": "E3",
                    "midi": 52,
                    "time": 48.678901999999994,
                    "velocity": 0.3543307086614173,
                    "duration": 0.3124659249999979
                },
                {
                    "name": "D#3",
                    "midi": 51,
                    "time": 49.00781349999999,
                    "velocity": 0.31496062992125984,
                    "duration": 0.3124659249999979
                },
                {
                    "name": "C#3",
                    "midi": 49,
                    "time": 49.33672499999999,
                    "velocity": 0.3543307086614173,
                    "duration": 0.4686988874999969
                },
                {
                    "name": "D#3",
                    "midi": 51,
                    "time": 49.830092249999986,
                    "velocity": 0.31496062992125984,
                    "duration": 0.1644557500000019
                },
                {
                    "name": "C#3",
                    "midi": 49,
                    "time": 49.99454799999999,
                    "velocity": 0.33070866141732286,
                    "duration": 0.24668362500000285
                },
                {
                    "name": "E3",
                    "midi": 52,
                    "time": 50.32345949999999,
                    "velocity": 0.3779527559055118,
                    "duration": 0.3124659249999979
                },
                {
                    "name": "D#3",
                    "midi": 51,
                    "time": 50.65237099999999,
                    "velocity": 0.33070866141732286,
                    "duration": 0.3124659249999979
                },
                {
                    "name": "C#3",
                    "midi": 49,
                    "time": 50.981282499999985,
                    "velocity": 0.3228346456692913,
                    "duration": 0.3124659249999979
                },
                {
                    "name": "B2",
                    "midi": 47,
                    "time": 51.31019399999998,
                    "velocity": 0.3543307086614173,
                    "duration": 0.6578230000000005
                },
                {
                    "name": "C#3",
                    "midi": 49,
                    "time": 51.96801699999998,
                    "velocity": 0.3779527559055118,
                    "duration": 0.3289114999999967
                },
                {
                    "name": "D#3",
                    "midi": 51,
                    "time": 52.29692849999998,
                    "velocity": 0.4094488188976378,
                    "duration": 0.3289114999999967
                },
                {
                    "name": "C#3",
                    "midi": 49,
                    "time": 52.625839999999975,
                    "velocity": 0.4015748031496063,
                    "duration": 0.3289114999999967
                },
                {
                    "name": "B2",
                    "midi": 47,
                    "time": 52.95475149999997,
                    "velocity": 0.3228346456692913,
                    "duration": 0.3289114999999967
                },
                {
                    "name": "A#2",
                    "midi": 46,
                    "time": 53.28366299999997,
                    "velocity": 0.3543307086614173,
                    "duration": 0.4933672499999986
                },
                {
                    "name": "B2",
                    "midi": 47,
                    "time": 53.77703024999997,
                    "velocity": 0.3228346456692913,
                    "duration": 0.1644557500000019
                },
                {
                    "name": "A#2",
                    "midi": 46,
                    "time": 53.94148599999997,
                    "velocity": 0.3543307086614173,
                    "duration": 0.24668362500000285
                },
                {
                    "name": "C#3",
                    "midi": 49,
                    "time": 54.27039749999997,
                    "velocity": 0.3779527559055118,
                    "duration": 0.3124659249999979
                },
                {
                    "name": "B2",
                    "midi": 47,
                    "time": 54.59930899999997,
                    "velocity": 0.3228346456692913,
                    "duration": 0.3124659249999979
                },
                {
                    "name": "A#2",
                    "midi": 46,
                    "time": 54.928220499999966,
                    "velocity": 0.31496062992125984,
                    "duration": 0.3124659249999979
                },
                {
                    "name": "B2",
                    "midi": 47,
                    "time": 55.25713199999996,
                    "velocity": 0.3543307086614173,
                    "duration": 0.9867344999999972
                },
                {
                    "name": "G#2",
                    "midi": 44,
                    "time": 56.24386649999996,
                    "velocity": 0.30708661417322836,
                    "duration": 0.6578230000000005
                },
                {
                    "name": "D#4",
                    "midi": 63,
                    "time": 56.90168949999996,
                    "velocity": 0.41732283464566927,
                    "duration": 0.3563207916666613
                },
                {
                    "name": "G#4",
                    "midi": 68,
                    "time": 57.23060099999996,
                    "velocity": 0.4566929133858268,
                    "duration": 2.329789791666663
                },
                {
                    "name": "B4",
                    "midi": 71,
                    "time": 59.532981499999956,
                    "velocity": 0.44881889763779526,
                    "duration": 0.3563207916666613
                },
                {
                    "name": "A#4",
                    "midi": 70,
                    "time": 59.86189299999995,
                    "velocity": 0.41732283464566927,
                    "duration": 0.24668362499999574
                },
                {
                    "name": "G#4",
                    "midi": 68,
                    "time": 60.08116733333328,
                    "velocity": 0.3700787401574803,
                    "duration": 0.08222787499999384
                },
                {
                    "name": "A#4",
                    "midi": 70,
                    "time": 60.13598591666661,
                    "velocity": 0.3543307086614173,
                    "duration": 0.08222787499999384
                },
                {
                    "name": "G#4",
                    "midi": 68,
                    "time": 60.19080449999994,
                    "velocity": 0.48031496062992124,
                    "duration": 0.3563207916666613
                },
                {
                    "name": "E4",
                    "midi": 64,
                    "time": 60.51971599999994,
                    "velocity": 0.4015748031496063,
                    "duration": 0.3563207916666613
                },
                {
                    "name": "G#4",
                    "midi": 68,
                    "time": 60.848627499999935,
                    "velocity": 0.3700787401574803,
                    "duration": 0.3289114999999967
                },
                {
                    "name": "G#4",
                    "midi": 68,
                    "time": 61.17753899999993,
                    "velocity": 0.41732283464566927,
                    "duration": 0.6852322916666651
                },
                {
                    "name": "D#4",
                    "midi": 63,
                    "time": 61.83536199999993,
                    "velocity": 0.4015748031496063,
                    "duration": 0.3563207916666613
                },
                {
                    "name": "F#4",
                    "midi": 66,
                    "time": 62.16427349999993,
                    "velocity": 0.4409448818897638,
                    "duration": 1.3430552916666656
                },
                {
                    "name": "E4",
                    "midi": 64,
                    "time": 63.47991949999993,
                    "velocity": 0.4015748031496063,
                    "duration": 0.3563207916666613
                },
                {
                    "name": "D#4",
                    "midi": 63,
                    "time": 63.80883099999993,
                    "velocity": 0.3700787401574803,
                    "duration": 0.27409291666666036
                },
                {
                    "name": "D#4",
                    "midi": 63,
                    "time": 64.08292391666659,
                    "velocity": 0.33858267716535434,
                    "duration": 0.08222787500000095
                },
                {
                    "name": "E4",
                    "midi": 64,
                    "time": 64.13774249999992,
                    "velocity": 0.4409448818897638,
                    "duration": 0.3563207916666755
                },
                {
                    "name": "D#4",
                    "midi": 63,
                    "time": 64.46665399999992,
                    "velocity": 0.36220472440944884,
                    "duration": 0.3563207916666755
                },
                {
                    "name": "C#4",
                    "midi": 61,
                    "time": 64.79556549999992,
                    "velocity": 0.33858267716535434,
                    "duration": 0.3563207916666755
                },
                {
                    "name": "D#4",
                    "midi": 63,
                    "time": 65.12447699999993,
                    "velocity": 0.41732283464566927,
                    "duration": 0.3289115000000038
                },
                {
                    "name": "G#3",
                    "midi": 56,
                    "time": 65.45338849999993,
                    "velocity": 0.3779527559055118,
                    "duration": 2.000878291666666
                },
                {
                    "name": "A#3",
                    "midi": 58,
                    "time": 67.42685749999993,
                    "velocity": 0.4015748031496063,
                    "duration": 0.3563207916666755
                },
                {
                    "name": "B3",
                    "midi": 59,
                    "time": 67.75576899999993,
                    "velocity": 0.4015748031496063,
                    "duration": 0.24668362500001706
                },
                {
                    "name": "C#4",
                    "midi": 61,
                    "time": 67.97504333333328,
                    "velocity": 0.36220472440944884,
                    "duration": 0.08222787500001516
                },
                {
                    "name": "D#4",
                    "midi": 63,
                    "time": 68.02986191666662,
                    "velocity": 0.3228346456692913,
                    "duration": 0.08222787500001516
                },
                {
                    "name": "C#4",
                    "midi": 61,
                    "time": 68.08468049999996,
                    "velocity": 0.4409448818897638,
                    "duration": 0.3563207916666755
                },
                {
                    "name": "B3",
                    "midi": 59,
                    "time": 68.41359199999997,
                    "velocity": 0.36220472440944884,
                    "duration": 0.3563207916666755
                },
                {
                    "name": "A#3",
                    "midi": 58,
                    "time": 68.74250349999997,
                    "velocity": 0.33858267716535434,
                    "duration": 0.3563207916666755
                },
                {
                    "name": "B3",
                    "midi": 59,
                    "time": 69.07141499999997,
                    "velocity": 0.4409448818897638,
                    "duration": 0.9867345000000114
                },
                {
                    "name": "G#3",
                    "midi": 56,
                    "time": 70.05814949999998,
                    "velocity": 0.3700787401574803,
                    "duration": 1.6445575000000048
                },
                {
                    "name": "G#4",
                    "midi": 68,
                    "time": 72.68944149999999,
                    "velocity": 0.4015748031496063,
                    "duration": 0.3289115000000038
                },
                {
                    "name": "D#5",
                    "midi": 75,
                    "time": 73.01835299999999,
                    "velocity": 0.49606299212598426,
                    "duration": 3.946938000000003
                },
                {
                    "name": "G#5",
                    "midi": 80,
                    "time": 76.965291,
                    "velocity": 0.4409448818897638,
                    "duration": 0.3289115000000038
                },
                {
                    "name": "D#4",
                    "midi": 63,
                    "time": 78.6098485,
                    "velocity": 0.41732283464566927,
                    "duration": 0.3563207916666755
                },
                {
                    "name": "G#4",
                    "midi": 68,
                    "time": 78.93876,
                    "velocity": 0.44881889763779526,
                    "duration": 2.32978979166667
                },
                {
                    "name": "B4",
                    "midi": 71,
                    "time": 81.2411405,
                    "velocity": 0.44881889763779526,
                    "duration": 0.3563207916666755
                },
                {
                    "name": "A#4",
                    "midi": 70,
                    "time": 81.570052,
                    "velocity": 0.41732283464566927,
                    "duration": 0.24668362500001706
                },
                {
                    "name": "G#4",
                    "midi": 68,
                    "time": 81.78932633333335,
                    "velocity": 0.3700787401574803,
                    "duration": 0.08222787500001516
                },
                {
                    "name": "A#4",
                    "midi": 70,
                    "time": 81.84414491666669,
                    "velocity": 0.3543307086614173,
                    "duration": 0.08222787500001516
                },
                {
                    "name": "G#4",
                    "midi": 68,
                    "time": 81.89896350000004,
                    "velocity": 0.48031496062992124,
                    "duration": 0.3563207916666755
                },
                {
                    "name": "E4",
                    "midi": 64,
                    "time": 82.22787500000004,
                    "velocity": 0.4015748031496063,
                    "duration": 0.3563207916666755
                },
                {
                    "name": "G#4",
                    "midi": 68,
                    "time": 82.55678650000004,
                    "velocity": 0.3700787401574803,
                    "duration": 0.3289115000000038
                },
                {
                    "name": "G#4",
                    "midi": 68,
                    "time": 82.88569800000005,
                    "velocity": 0.41732283464566927,
                    "duration": 0.6852322916666651
                },
                {
                    "name": "D#4",
                    "midi": 63,
                    "time": 83.54352100000004,
                    "velocity": 0.4015748031496063,
                    "duration": 0.3563207916666755
                },
                {
                    "name": "B3",
                    "midi": 59,
                    "time": 83.87243250000004,
                    "velocity": 0.33070866141732286,
                    "duration": 1.9734690000000086
                },
                {
                    "name": "E4",
                    "midi": 64,
                    "time": 83.87243250000004,
                    "velocity": 0.4409448818897638,
                    "duration": 1.3430552916666727
                },
                {
                    "name": "F#4",
                    "midi": 66,
                    "time": 85.18807850000005,
                    "velocity": 0.44881889763779526,
                    "duration": 0.3563207916666755
                },
                {
                    "name": "G#4",
                    "midi": 68,
                    "time": 85.51699000000005,
                    "velocity": 0.4645669291338583,
                    "duration": 0.3563207916666755
                },
                {
                    "name": "C#4",
                    "midi": 61,
                    "time": 85.84590150000005,
                    "velocity": 0.33070866141732286,
                    "duration": 0.9867345000000114
                },
                {
                    "name": "E4",
                    "midi": 64,
                    "time": 85.84590150000005,
                    "velocity": 0.33070866141732286,
                    "duration": 0.9867345000000114
                },
                {
                    "name": "A4",
                    "midi": 69,
                    "time": 85.84590150000005,
                    "velocity": 0.4881889763779528,
                    "duration": 0.3563207916666755
                },
                {
                    "name": "B4",
                    "midi": 71,
                    "time": 86.17481300000006,
                    "velocity": 0.4566929133858268,
                    "duration": 0.3563207916666755
                },
                {
                    "name": "C#5",
                    "midi": 73,
                    "time": 86.50372450000006,
                    "velocity": 0.4566929133858268,
                    "duration": 0.3289115000000038
                },
                {
                    "name": "A3",
                    "midi": 57,
                    "time": 86.83263600000006,
                    "velocity": 0.29133858267716534,
                    "duration": 1.9734690000000086
                },
                {
                    "name": "C#4",
                    "midi": 61,
                    "time": 86.83263600000006,
                    "velocity": 0.29133858267716534,
                    "duration": 1.9734690000000086
                },
                {
                    "name": "F#4",
                    "midi": 66,
                    "time": 86.83263600000006,
                    "velocity": 0.4881889763779528,
                    "duration": 1.315646000000001
                },
                {
                    "name": "G#4",
                    "midi": 68,
                    "time": 88.14828200000007,
                    "velocity": 0.47244094488188976,
                    "duration": 0.3563207916666755
                },
                {
                    "name": "A4",
                    "midi": 69,
                    "time": 88.47719350000007,
                    "velocity": 0.4566929133858268,
                    "duration": 0.3289115000000038
                },
                {
                    "name": "G#3",
                    "midi": 56,
                    "time": 88.80610500000007,
                    "velocity": 0.33070866141732286,
                    "duration": 1.9734689999999944
                },
                {
                    "name": "D#4",
                    "midi": 63,
                    "time": 88.80610500000007,
                    "velocity": 0.33070866141732286,
                    "duration": 0.9867344999999972
                },
                {
                    "name": "G#4",
                    "midi": 68,
                    "time": 88.80610500000007,
                    "velocity": 0.4881889763779528,
                    "duration": 0.6578229999999934
                },
                {
                    "name": "D#4",
                    "midi": 63,
                    "time": 89.46392800000007,
                    "velocity": 0.4409448818897638,
                    "duration": 1.315646000000001
                },
                {
                    "name": "G#4",
                    "midi": 68,
                    "time": 89.79283950000007,
                    "velocity": 0.48031496062992124,
                    "duration": 0.6578229999999934
                },
                {
                    "name": "F#4",
                    "midi": 66,
                    "time": 90.45066250000006,
                    "velocity": 0.4409448818897638,
                    "duration": 0.3289115000000038
                },
                {
                    "name": "G#3",
                    "midi": 56,
                    "time": 90.77957400000007,
                    "velocity": 0.33070866141732286,
                    "duration": 1.9734690000000086
                },
                {
                    "name": "E4",
                    "midi": 64,
                    "time": 90.77957400000007,
                    "velocity": 0.4566929133858268,
                    "duration": 0.9867344999999972
                },
                {
                    "name": "D#4",
                    "midi": 63,
                    "time": 91.76630850000006,
                    "velocity": 0.4409448818897638,
                    "duration": 0.3289115000000038
                },
                {
                    "name": "C#4",
                    "midi": 61,
                    "time": 92.09522000000007,
                    "velocity": 0.41732283464566927,
                    "duration": 0.3289115000000038
                },
                {
                    "name": "B3",
                    "midi": 59,
                    "time": 92.42413150000007,
                    "velocity": 0.3779527559055118,
                    "duration": 0.3289115000000038
                },
                {
                    "name": "G#3",
                    "midi": 56,
                    "time": 92.75304300000008,
                    "velocity": 0.33070866141732286,
                    "duration": 0.9867345000000114
                },
                {
                    "name": "A#3",
                    "midi": 58,
                    "time": 92.75304300000008,
                    "velocity": 0.4015748031496063,
                    "duration": 0.4933672500000057
                },
                {
                    "name": "B3",
                    "midi": 59,
                    "time": 93.24641025000008,
                    "velocity": 0.36220472440944884,
                    "duration": 0.1644557500000019
                },
                {
                    "name": "A#3",
                    "midi": 58,
                    "time": 93.41086600000008,
                    "velocity": 0.4015748031496063,
                    "duration": 0.3289115000000038
                },
                {
                    "name": "G3",
                    "midi": 55,
                    "time": 93.73977750000009,
                    "velocity": 0.33070866141732286,
                    "duration": 0.9867345000000114
                },
                {
                    "name": "C#4",
                    "midi": 61,
                    "time": 93.73977750000009,
                    "velocity": 0.3779527559055118,
                    "duration": 0.3289115000000038
                },
                {
                    "name": "B3",
                    "midi": 59,
                    "time": 94.06868900000009,
                    "velocity": 0.36220472440944884,
                    "duration": 0.3289115000000038
                },
                {
                    "name": "A#3",
                    "midi": 58,
                    "time": 94.3976005000001,
                    "velocity": 0.3543307086614173,
                    "duration": 0.3289115000000038
                },
                {
                    "name": "G#3",
                    "midi": 56,
                    "time": 94.7265120000001,
                    "velocity": 0.33070866141732286,
                    "duration": 0.9867344999999972
                },
                {
                    "name": "B3",
                    "midi": 59,
                    "time": 94.7265120000001,
                    "velocity": 0.36220472440944884,
                    "duration": 0.9867344999999972
                },
                {
                    "name": "G#3",
                    "midi": 56,
                    "time": 95.7132465000001,
                    "velocity": 0.33858267716535434,
                    "duration": 1.6445575000000048
                },
                {
                    "name": "A4",
                    "midi": 69,
                    "time": 98.6734500000001,
                    "velocity": 0.31496062992125984,
                    "duration": 0.9867344999999972
                },
                {
                    "name": "C#5",
                    "midi": 73,
                    "time": 98.6734500000001,
                    "velocity": 0.31496062992125984,
                    "duration": 0.9867344999999972
                },
                {
                    "name": "E4",
                    "midi": 64,
                    "time": 98.6734500000001,
                    "velocity": 0.3543307086614173,
                    "duration": 0.6578229999999934
                },
                {
                    "name": "E5",
                    "midi": 76,
                    "time": 98.6734500000001,
                    "velocity": 0.3543307086614173,
                    "duration": 0.6578229999999934
                },
                {
                    "name": "E4",
                    "midi": 64,
                    "time": 99.3312730000001,
                    "velocity": 0.33858267716535434,
                    "duration": 0.3289115000000038
                },
                {
                    "name": "E5",
                    "midi": 76,
                    "time": 99.3312730000001,
                    "velocity": 0.33858267716535434,
                    "duration": 0.3289115000000038
                },
                {
                    "name": "A4",
                    "midi": 69,
                    "time": 99.6601845000001,
                    "velocity": 0.33858267716535434,
                    "duration": 0.9867345000000114
                },
                {
                    "name": "C#5",
                    "midi": 73,
                    "time": 99.6601845000001,
                    "velocity": 0.33858267716535434,
                    "duration": 0.9867345000000114
                },
                {
                    "name": "F#4",
                    "midi": 66,
                    "time": 99.6601845000001,
                    "velocity": 0.3779527559055118,
                    "duration": 0.4933672500000057
                },
                {
                    "name": "F#5",
                    "midi": 78,
                    "time": 99.6601845000001,
                    "velocity": 0.3779527559055118,
                    "duration": 0.4933672500000057
                },
                {
                    "name": "E4",
                    "midi": 64,
                    "time": 100.1535517500001,
                    "velocity": 0.36220472440944884,
                    "duration": 0.1644557500000019
                },
                {
                    "name": "E5",
                    "midi": 76,
                    "time": 100.1535517500001,
                    "velocity": 0.36220472440944884,
                    "duration": 0.1644557500000019
                },
                {
                    "name": "D#4",
                    "midi": 63,
                    "time": 100.3180075000001,
                    "velocity": 0.33070866141732286,
                    "duration": 0.3289115000000038
                },
                {
                    "name": "D#5",
                    "midi": 75,
                    "time": 100.3180075000001,
                    "velocity": 0.33070866141732286,
                    "duration": 0.3289115000000038
                },
                {
                    "name": "A4",
                    "midi": 69,
                    "time": 100.64691900000011,
                    "velocity": 0.33858267716535434,
                    "duration": 0.9867344999999972
                },
                {
                    "name": "C#5",
                    "midi": 73,
                    "time": 100.64691900000011,
                    "velocity": 0.33858267716535434,
                    "duration": 0.9867344999999972
                },
                {
                    "name": "E4",
                    "midi": 64,
                    "time": 100.64691900000011,
                    "velocity": 0.3779527559055118,
                    "duration": 0.6578229999999934
                },
                {
                    "name": "E5",
                    "midi": 76,
                    "time": 100.64691900000011,
                    "velocity": 0.3779527559055118,
                    "duration": 0.6578229999999934
                },
                {
                    "name": "E4",
                    "midi": 64,
                    "time": 101.3047420000001,
                    "velocity": 0.3543307086614173,
                    "duration": 0.3289115000000038
                },
                {
                    "name": "E5",
                    "midi": 76,
                    "time": 101.3047420000001,
                    "velocity": 0.3543307086614173,
                    "duration": 0.3289115000000038
                },
                {
                    "name": "A4",
                    "midi": 69,
                    "time": 101.63365350000011,
                    "velocity": 0.3228346456692913,
                    "duration": 0.9867345000000114
                },
                {
                    "name": "C#5",
                    "midi": 73,
                    "time": 101.63365350000011,
                    "velocity": 0.3228346456692913,
                    "duration": 0.9867345000000114
                },
                {
                    "name": "F#4",
                    "midi": 66,
                    "time": 101.63365350000011,
                    "velocity": 0.36220472440944884,
                    "duration": 0.4933672500000057
                },
                {
                    "name": "F#5",
                    "midi": 78,
                    "time": 101.63365350000011,
                    "velocity": 0.36220472440944884,
                    "duration": 0.4933672500000057
                },
                {
                    "name": "E4",
                    "midi": 64,
                    "time": 102.12702075000011,
                    "velocity": 0.31496062992125984,
                    "duration": 0.1644557500000019
                },
                {
                    "name": "E5",
                    "midi": 76,
                    "time": 102.12702075000011,
                    "velocity": 0.31496062992125984,
                    "duration": 0.1644557500000019
                },
                {
                    "name": "D#4",
                    "midi": 63,
                    "time": 102.29147650000012,
                    "velocity": 0.31496062992125984,
                    "duration": 0.3289115000000038
                },
                {
                    "name": "D#5",
                    "midi": 75,
                    "time": 102.29147650000012,
                    "velocity": 0.31496062992125984,
                    "duration": 0.3289115000000038
                },
                {
                    "name": "E4",
                    "midi": 64,
                    "time": 102.62038800000012,
                    "velocity": 0.3543307086614173,
                    "duration": 0.9867344999999972
                },
                {
                    "name": "A4",
                    "midi": 69,
                    "time": 102.62038800000012,
                    "velocity": 0.3543307086614173,
                    "duration": 0.9867344999999972
                },
                {
                    "name": "C#5",
                    "midi": 73,
                    "time": 102.62038800000012,
                    "velocity": 0.3543307086614173,
                    "duration": 0.9867344999999972
                },
                {
                    "name": "E5",
                    "midi": 76,
                    "time": 102.62038800000012,
                    "velocity": 0.3543307086614173,
                    "duration": 0.9867344999999972
                },
                {
                    "name": "D4",
                    "midi": 62,
                    "time": 103.60712250000012,
                    "velocity": 0.36220472440944884,
                    "duration": 0.9867344999999972
                },
                {
                    "name": "F#4",
                    "midi": 66,
                    "time": 103.60712250000012,
                    "velocity": 0.36220472440944884,
                    "duration": 0.9867344999999972
                },
                {
                    "name": "A4",
                    "midi": 69,
                    "time": 103.60712250000012,
                    "velocity": 0.36220472440944884,
                    "duration": 0.9867344999999972
                },
                {
                    "name": "D5",
                    "midi": 74,
                    "time": 103.60712250000012,
                    "velocity": 0.36220472440944884,
                    "duration": 0.9867344999999972
                },
                {
                    "name": "D5",
                    "midi": 74,
                    "time": 104.59385700000011,
                    "velocity": 0.4015748031496063,
                    "duration": 1.9734690000000086
                },
                {
                    "name": "F#5",
                    "midi": 78,
                    "time": 104.59385700000011,
                    "velocity": 0.4015748031496063,
                    "duration": 1.9734690000000086
                },
                {
                    "name": "A4",
                    "midi": 69,
                    "time": 104.59385700000011,
                    "velocity": 0.4015748031496063,
                    "duration": 1.315646000000001
                },
                {
                    "name": "A5",
                    "midi": 81,
                    "time": 104.59385700000011,
                    "velocity": 0.4015748031496063,
                    "duration": 1.315646000000001
                },
                {
                    "name": "G#4",
                    "midi": 68,
                    "time": 105.90950300000011,
                    "velocity": 0.4015748031496063,
                    "duration": 0.3289115000000038
                },
                {
                    "name": "G#5",
                    "midi": 80,
                    "time": 105.90950300000011,
                    "velocity": 0.4015748031496063,
                    "duration": 0.3289115000000038
                },
                {
                    "name": "F#4",
                    "midi": 66,
                    "time": 106.23841450000012,
                    "velocity": 0.3700787401574803,
                    "duration": 0.3289115000000038
                },
                {
                    "name": "F#5",
                    "midi": 78,
                    "time": 106.23841450000012,
                    "velocity": 0.3700787401574803,
                    "duration": 0.3289115000000038
                },
                {
                    "name": "E4",
                    "midi": 64,
                    "time": 106.56732600000012,
                    "velocity": 0.4015748031496063,
                    "duration": 0.9867344999999972
                },
                {
                    "name": "G#4",
                    "midi": 68,
                    "time": 106.56732600000012,
                    "velocity": 0.4015748031496063,
                    "duration": 0.9867344999999972
                },
                {
                    "name": "C#5",
                    "midi": 73,
                    "time": 106.56732600000012,
                    "velocity": 0.4015748031496063,
                    "duration": 0.9867344999999972
                },
                {
                    "name": "E5",
                    "midi": 76,
                    "time": 106.56732600000012,
                    "velocity": 0.4015748031496063,
                    "duration": 0.9867344999999972
                },
                {
                    "name": "G#4",
                    "midi": 68,
                    "time": 107.55406050000012,
                    "velocity": 0.4251968503937008,
                    "duration": 0.9867344999999972
                },
                {
                    "name": "C#5",
                    "midi": 73,
                    "time": 107.55406050000012,
                    "velocity": 0.4251968503937008,
                    "duration": 0.9867344999999972
                },
                {
                    "name": "E5",
                    "midi": 76,
                    "time": 107.55406050000012,
                    "velocity": 0.4251968503937008,
                    "duration": 0.9867344999999972
                },
                {
                    "name": "G#5",
                    "midi": 80,
                    "time": 107.55406050000012,
                    "velocity": 0.4251968503937008,
                    "duration": 0.9867344999999972
                },
                {
                    "name": "F#4",
                    "midi": 66,
                    "time": 108.54079500000012,
                    "velocity": 0.41732283464566927,
                    "duration": 0.9867344999999972
                },
                {
                    "name": "G#4",
                    "midi": 68,
                    "time": 108.54079500000012,
                    "velocity": 0.41732283464566927,
                    "duration": 0.9867344999999972
                },
                {
                    "name": "D#5",
                    "midi": 75,
                    "time": 108.54079500000012,
                    "velocity": 0.41732283464566927,
                    "duration": 0.9867344999999972
                },
                {
                    "name": "F#5",
                    "midi": 78,
                    "time": 108.54079500000012,
                    "velocity": 0.41732283464566927,
                    "duration": 0.9867344999999972
                },
                {
                    "name": "E4",
                    "midi": 64,
                    "time": 109.52752950000011,
                    "velocity": 0.3700787401574803,
                    "duration": 0.9867344999999972
                },
                {
                    "name": "G#4",
                    "midi": 68,
                    "time": 109.52752950000011,
                    "velocity": 0.3700787401574803,
                    "duration": 0.9867344999999972
                },
                {
                    "name": "C#5",
                    "midi": 73,
                    "time": 109.52752950000011,
                    "velocity": 0.3700787401574803,
                    "duration": 0.9867344999999972
                },
                {
                    "name": "E5",
                    "midi": 76,
                    "time": 109.52752950000011,
                    "velocity": 0.3700787401574803,
                    "duration": 0.9867344999999972
                },
                {
                    "name": "G4",
                    "midi": 67,
                    "time": 110.51426400000011,
                    "velocity": 0.3543307086614173,
                    "duration": 1.9734689999999944
                },
                {
                    "name": "A#4",
                    "midi": 70,
                    "time": 110.51426400000011,
                    "velocity": 0.3543307086614173,
                    "duration": 1.9734689999999944
                },
                {
                    "name": "D#4",
                    "midi": 63,
                    "time": 110.51426400000011,
                    "velocity": 0.4015748031496063,
                    "duration": 0.9867344999999972
                },
                {
                    "name": "D#5",
                    "midi": 75,
                    "time": 110.51426400000011,
                    "velocity": 0.4015748031496063,
                    "duration": 0.9867344999999972
                },
                {
                    "name": "C#4",
                    "midi": 61,
                    "time": 111.50099850000011,
                    "velocity": 0.3779527559055118,
                    "duration": 0.6578229999999934
                },
                {
                    "name": "C#5",
                    "midi": 73,
                    "time": 111.50099850000011,
                    "velocity": 0.3779527559055118,
                    "duration": 0.6578229999999934
                },
                {
                    "name": "B3",
                    "midi": 59,
                    "time": 112.1588215000001,
                    "velocity": 0.36220472440944884,
                    "duration": 0.3289115000000038
                },
                {
                    "name": "B4",
                    "midi": 71,
                    "time": 112.1588215000001,
                    "velocity": 0.36220472440944884,
                    "duration": 0.3289115000000038
                },
                {
                    "name": "D#4",
                    "midi": 63,
                    "time": 112.4877330000001,
                    "velocity": 0.3543307086614173,
                    "duration": 1.9734690000000228
                },
                {
                    "name": "G4",
                    "midi": 67,
                    "time": 112.4877330000001,
                    "velocity": 0.3543307086614173,
                    "duration": 1.9734690000000228
                },
                {
                    "name": "A#3",
                    "midi": 58,
                    "time": 112.4877330000001,
                    "velocity": 0.4015748031496063,
                    "duration": 0.4933672500000057
                },
                {
                    "name": "A#4",
                    "midi": 70,
                    "time": 112.4877330000001,
                    "velocity": 0.4015748031496063,
                    "duration": 0.4933672500000057
                },
                {
                    "name": "B3",
                    "midi": 59,
                    "time": 112.98110025000011,
                    "velocity": 0.3228346456692913,
                    "duration": 0.1644557500000019
                },
                {
                    "name": "B4",
                    "midi": 71,
                    "time": 112.98110025000011,
                    "velocity": 0.3228346456692913,
                    "duration": 0.1644557500000019
                },
                {
                    "name": "A#3",
                    "midi": 58,
                    "time": 113.14555600000011,
                    "velocity": 0.2755905511811024,
                    "duration": 0.3289115000000038
                },
                {
                    "name": "A#4",
                    "midi": 70,
                    "time": 113.14555600000011,
                    "velocity": 0.2755905511811024,
                    "duration": 0.3289115000000038
                },
                {
                    "name": "C#4",
                    "midi": 61,
                    "time": 113.47446750000012,
                    "velocity": 0.33858267716535434,
                    "duration": 0.3289115000000038
                },
                {
                    "name": "C#5",
                    "midi": 73,
                    "time": 113.47446750000012,
                    "velocity": 0.33858267716535434,
                    "duration": 0.3289115000000038
                },
                {
                    "name": "B3",
                    "midi": 59,
                    "time": 113.80337900000012,
                    "velocity": 0.2992125984251969,
                    "duration": 0.3289115000000038
                },
                {
                    "name": "B4",
                    "midi": 71,
                    "time": 113.80337900000012,
                    "velocity": 0.2992125984251969,
                    "duration": 0.3289115000000038
                },
                {
                    "name": "A#3",
                    "midi": 58,
                    "time": 114.13229050000012,
                    "velocity": 0.2755905511811024,
                    "duration": 0.3289115000000038
                },
                {
                    "name": "A#4",
                    "midi": 70,
                    "time": 114.13229050000012,
                    "velocity": 0.2755905511811024,
                    "duration": 0.3289115000000038
                },
                {
                    "name": "B3",
                    "midi": 59,
                    "time": 114.46120200000013,
                    "velocity": 0.3543307086614173,
                    "duration": 1.6445574999999906
                },
                {
                    "name": "D#4",
                    "midi": 63,
                    "time": 114.46120200000013,
                    "velocity": 0.3543307086614173,
                    "duration": 1.6445574999999906
                },
                {
                    "name": "G#4",
                    "midi": 68,
                    "time": 114.46120200000013,
                    "velocity": 0.3543307086614173,
                    "duration": 0.9867344999999972
                },
                {
                    "name": "B4",
                    "midi": 71,
                    "time": 114.46120200000013,
                    "velocity": 0.3543307086614173,
                    "duration": 0.9867344999999972
                },
                {
                    "name": "G#4",
                    "midi": 68,
                    "time": 115.44793650000013,
                    "velocity": 0.3228346456692913,
                    "duration": 0.6578229999999934
                },
                {
                    "name": "A4",
                    "midi": 69,
                    "time": 116.43467100000012,
                    "velocity": 0.31496062992125984,
                    "duration": 0.9867344999999972
                },
                {
                    "name": "C#5",
                    "midi": 73,
                    "time": 116.43467100000012,
                    "velocity": 0.31496062992125984,
                    "duration": 0.9867344999999972
                },
                {
                    "name": "E4",
                    "midi": 64,
                    "time": 116.43467100000012,
                    "velocity": 0.3543307086614173,
                    "duration": 0.6578229999999934
                },
                {
                    "name": "E5",
                    "midi": 76,
                    "time": 116.43467100000012,
                    "velocity": 0.3543307086614173,
                    "duration": 0.6578229999999934
                },
                {
                    "name": "E4",
                    "midi": 64,
                    "time": 117.09249400000012,
                    "velocity": 0.33858267716535434,
                    "duration": 0.3289115000000038
                },
                {
                    "name": "E5",
                    "midi": 76,
                    "time": 117.09249400000012,
                    "velocity": 0.33858267716535434,
                    "duration": 0.3289115000000038
                },
                {
                    "name": "A4",
                    "midi": 69,
                    "time": 117.42140550000012,
                    "velocity": 0.33858267716535434,
                    "duration": 0.9867345000000114
                },
                {
                    "name": "C#5",
                    "midi": 73,
                    "time": 117.42140550000012,
                    "velocity": 0.33858267716535434,
                    "duration": 0.9867345000000114
                },
                {
                    "name": "F#4",
                    "midi": 66,
                    "time": 117.42140550000012,
                    "velocity": 0.3779527559055118,
                    "duration": 0.4933672500000057
                },
                {
                    "name": "F#5",
                    "midi": 78,
                    "time": 117.42140550000012,
                    "velocity": 0.3779527559055118,
                    "duration": 0.4933672500000057
                },
                {
                    "name": "E4",
                    "midi": 64,
                    "time": 117.91477275000013,
                    "velocity": 0.36220472440944884,
                    "duration": 0.1644557500000019
                },
                {
                    "name": "E5",
                    "midi": 76,
                    "time": 117.91477275000013,
                    "velocity": 0.36220472440944884,
                    "duration": 0.1644557500000019
                },
                {
                    "name": "D#4",
                    "midi": 63,
                    "time": 118.07922850000013,
                    "velocity": 0.33070866141732286,
                    "duration": 0.24668362500000285
                },
                {
                    "name": "D#5",
                    "midi": 75,
                    "time": 118.07922850000013,
                    "velocity": 0.33070866141732286,
                    "duration": 0.24668362500000285
                },
                {
                    "name": "A4",
                    "midi": 69,
                    "time": 118.40814000000013,
                    "velocity": 0.33858267716535434,
                    "duration": 0.9867344999999972
                },
                {
                    "name": "C#5",
                    "midi": 73,
                    "time": 118.40814000000013,
                    "velocity": 0.33858267716535434,
                    "duration": 0.9867344999999972
                },
                {
                    "name": "E4",
                    "midi": 64,
                    "time": 118.40814000000013,
                    "velocity": 0.3779527559055118,
                    "duration": 0.6578229999999934
                },
                {
                    "name": "E5",
                    "midi": 76,
                    "time": 118.40814000000013,
                    "velocity": 0.3779527559055118,
                    "duration": 0.6578229999999934
                },
                {
                    "name": "E4",
                    "midi": 64,
                    "time": 119.06596300000012,
                    "velocity": 0.3543307086614173,
                    "duration": 0.3289115000000038
                },
                {
                    "name": "E5",
                    "midi": 76,
                    "time": 119.06596300000012,
                    "velocity": 0.3543307086614173,
                    "duration": 0.3289115000000038
                },
                {
                    "name": "A4",
                    "midi": 69,
                    "time": 119.39487450000013,
                    "velocity": 0.3228346456692913,
                    "duration": 0.9867345000000114
                },
                {
                    "name": "C#5",
                    "midi": 73,
                    "time": 119.39487450000013,
                    "velocity": 0.3228346456692913,
                    "duration": 0.9867345000000114
                },
                {
                    "name": "F#4",
                    "midi": 66,
                    "time": 119.39487450000013,
                    "velocity": 0.36220472440944884,
                    "duration": 0.4933672500000057
                },
                {
                    "name": "F#5",
                    "midi": 78,
                    "time": 119.39487450000013,
                    "velocity": 0.36220472440944884,
                    "duration": 0.4933672500000057
                },
                {
                    "name": "E4",
                    "midi": 64,
                    "time": 119.88824175000013,
                    "velocity": 0.31496062992125984,
                    "duration": 0.1644557500000019
                },
                {
                    "name": "E5",
                    "midi": 76,
                    "time": 119.88824175000013,
                    "velocity": 0.31496062992125984,
                    "duration": 0.1644557500000019
                },
                {
                    "name": "D#4",
                    "midi": 63,
                    "time": 120.05269750000014,
                    "velocity": 0.31496062992125984,
                    "duration": 0.24668362500000285
                },
                {
                    "name": "D#5",
                    "midi": 75,
                    "time": 120.05269750000014,
                    "velocity": 0.31496062992125984,
                    "duration": 0.24668362500000285
                },
                {
                    "name": "E4",
                    "midi": 64,
                    "time": 120.38160900000014,
                    "velocity": 0.3543307086614173,
                    "duration": 0.9867344999999972
                },
                {
                    "name": "A4",
                    "midi": 69,
                    "time": 120.38160900000014,
                    "velocity": 0.3543307086614173,
                    "duration": 0.9867344999999972
                },
                {
                    "name": "C#5",
                    "midi": 73,
                    "time": 120.38160900000014,
                    "velocity": 0.3543307086614173,
                    "duration": 0.9867344999999972
                },
                {
                    "name": "E5",
                    "midi": 76,
                    "time": 120.38160900000014,
                    "velocity": 0.3543307086614173,
                    "duration": 0.9867344999999972
                },
                {
                    "name": "D4",
                    "midi": 62,
                    "time": 121.36834350000014,
                    "velocity": 0.36220472440944884,
                    "duration": 0.9867344999999972
                },
                {
                    "name": "F#4",
                    "midi": 66,
                    "time": 121.36834350000014,
                    "velocity": 0.36220472440944884,
                    "duration": 0.9867344999999972
                },
                {
                    "name": "A4",
                    "midi": 69,
                    "time": 121.36834350000014,
                    "velocity": 0.36220472440944884,
                    "duration": 0.9867344999999972
                },
                {
                    "name": "D5",
                    "midi": 74,
                    "time": 121.36834350000014,
                    "velocity": 0.36220472440944884,
                    "duration": 0.9867344999999972
                },
                {
                    "name": "D5",
                    "midi": 74,
                    "time": 122.35507800000013,
                    "velocity": 0.4015748031496063,
                    "duration": 1.9734690000000086
                },
                {
                    "name": "F#5",
                    "midi": 78,
                    "time": 122.35507800000013,
                    "velocity": 0.4015748031496063,
                    "duration": 1.9734690000000086
                },
                {
                    "name": "A4",
                    "midi": 69,
                    "time": 122.35507800000013,
                    "velocity": 0.4015748031496063,
                    "duration": 0.9867344999999972
                },
                {
                    "name": "A5",
                    "midi": 81,
                    "time": 122.35507800000013,
                    "velocity": 0.4015748031496063,
                    "duration": 0.9867344999999972
                },
                {
                    "name": "G#4",
                    "midi": 68,
                    "time": 123.34181250000013,
                    "velocity": 0.4015748031496063,
                    "duration": 0.3289115000000038
                },
                {
                    "name": "G#5",
                    "midi": 80,
                    "time": 123.34181250000013,
                    "velocity": 0.4015748031496063,
                    "duration": 0.3289115000000038
                },
                {
                    "name": "A5",
                    "midi": 81,
                    "time": 123.67072400000013,
                    "velocity": 0.3543307086614173,
                    "duration": 0.3289115000000038
                },
                {
                    "name": "A4",
                    "midi": 69,
                    "time": 123.67072400000013,
                    "velocity": 0.3543307086614173,
                    "duration": 0.3289115000000038
                },
                {
                    "name": "F#4",
                    "midi": 66,
                    "time": 123.99963550000014,
                    "velocity": 0.36220472440944884,
                    "duration": 0.3289115000000038
                },
                {
                    "name": "F#5",
                    "midi": 78,
                    "time": 123.99963550000014,
                    "velocity": 0.36220472440944884,
                    "duration": 0.3289115000000038
                },
                {
                    "name": "E4",
                    "midi": 64,
                    "time": 124.32854700000014,
                    "velocity": 0.4015748031496063,
                    "duration": 0.9867344999999972
                },
                {
                    "name": "G#4",
                    "midi": 68,
                    "time": 124.32854700000014,
                    "velocity": 0.4015748031496063,
                    "duration": 0.9867344999999972
                },
                {
                    "name": "C#5",
                    "midi": 73,
                    "time": 124.32854700000014,
                    "velocity": 0.4015748031496063,
                    "duration": 0.9867344999999972
                },
                {
                    "name": "E5",
                    "midi": 76,
                    "time": 124.32854700000014,
                    "velocity": 0.4015748031496063,
                    "duration": 0.9867344999999972
                },
                {
                    "name": "G#4",
                    "midi": 68,
                    "time": 125.31528150000014,
                    "velocity": 0.3700787401574803,
                    "duration": 0.9867344999999972
                },
                {
                    "name": "C#5",
                    "midi": 73,
                    "time": 125.31528150000014,
                    "velocity": 0.3700787401574803,
                    "duration": 0.9867344999999972
                },
                {
                    "name": "E5",
                    "midi": 76,
                    "time": 125.31528150000014,
                    "velocity": 0.3700787401574803,
                    "duration": 0.9867344999999972
                },
                {
                    "name": "G#5",
                    "midi": 80,
                    "time": 125.31528150000014,
                    "velocity": 0.3700787401574803,
                    "duration": 0.9867344999999972
                },
                {
                    "name": "F#4",
                    "midi": 66,
                    "time": 126.30201600000014,
                    "velocity": 0.3779527559055118,
                    "duration": 0.3289115000000038
                },
                {
                    "name": "G#4",
                    "midi": 68,
                    "time": 126.30201600000014,
                    "velocity": 0.3779527559055118,
                    "duration": 0.3289115000000038
                },
                {
                    "name": "D#5",
                    "midi": 75,
                    "time": 126.30201600000014,
                    "velocity": 0.3779527559055118,
                    "duration": 0.9867345000000114
                },
                {
                    "name": "F#5",
                    "midi": 78,
                    "time": 126.30201600000014,
                    "velocity": 0.3779527559055118,
                    "duration": 0.3289115000000038
                },
                {
                    "name": "G#4",
                    "midi": 68,
                    "time": 126.63092750000014,
                    "velocity": 0.3543307086614173,
                    "duration": 0.6578230000000076
                },
                {
                    "name": "G#5",
                    "midi": 80,
                    "time": 126.63092750000014,
                    "velocity": 0.3543307086614173,
                    "duration": 0.3289115000000038
                },
                {
                    "name": "D#4",
                    "midi": 63,
                    "time": 126.95983900000014,
                    "velocity": 0.3543307086614173,
                    "duration": 0.3289115000000038
                },
                {
                    "name": "D#5",
                    "midi": 75,
                    "time": 126.95983900000014,
                    "velocity": 0.3543307086614173,
                    "duration": 0.3289115000000038
                },
                {
                    "name": "E4",
                    "midi": 64,
                    "time": 127.28875050000015,
                    "velocity": 0.3700787401574803,
                    "duration": 0.3289115000000038
                },
                {
                    "name": "G#4",
                    "midi": 68,
                    "time": 127.28875050000015,
                    "velocity": 0.3700787401574803,
                    "duration": 0.9867344999999972
                },
                {
                    "name": "C#5",
                    "midi": 73,
                    "time": 127.28875050000015,
                    "velocity": 0.3700787401574803,
                    "duration": 0.9867344999999972
                },
                {
                    "name": "E5",
                    "midi": 76,
                    "time": 127.28875050000015,
                    "velocity": 0.3700787401574803,
                    "duration": 0.3289115000000038
                },
                {
                    "name": "D#4",
                    "midi": 63,
                    "time": 127.61766200000015,
                    "velocity": 0.33858267716535434,
                    "duration": 0.3289115000000038
                },
                {
                    "name": "D#5",
                    "midi": 75,
                    "time": 127.61766200000015,
                    "velocity": 0.33858267716535434,
                    "duration": 0.3289115000000038
                },
                {
                    "name": "E4",
                    "midi": 64,
                    "time": 127.94657350000016,
                    "velocity": 0.33070866141732286,
                    "duration": 0.3289114999999896
                },
                {
                    "name": "E5",
                    "midi": 76,
                    "time": 127.94657350000016,
                    "velocity": 0.33070866141732286,
                    "duration": 0.3289114999999896
                },
                {
                    "name": "G4",
                    "midi": 67,
                    "time": 128.27548500000015,
                    "velocity": 0.3543307086614173,
                    "duration": 1.9734690000000228
                },
                {
                    "name": "A#4",
                    "midi": 70,
                    "time": 128.27548500000015,
                    "velocity": 0.3543307086614173,
                    "duration": 1.9734690000000228
                },
                {
                    "name": "D#4",
                    "midi": 63,
                    "time": 128.27548500000015,
                    "velocity": 0.4015748031496063,
                    "duration": 0.9867345000000114
                },
                {
                    "name": "D#5",
                    "midi": 75,
                    "time": 128.27548500000015,
                    "velocity": 0.4015748031496063,
                    "duration": 0.9867345000000114
                },
                {
                    "name": "C#4",
                    "midi": 61,
                    "time": 129.26221950000016,
                    "velocity": 0.3779527559055118,
                    "duration": 0.6578230000000076
                },
                {
                    "name": "C#5",
                    "midi": 73,
                    "time": 129.26221950000016,
                    "velocity": 0.3779527559055118,
                    "duration": 0.6578230000000076
                },
                {
                    "name": "B3",
                    "midi": 59,
                    "time": 129.92004250000016,
                    "velocity": 0.36220472440944884,
                    "duration": 0.3289115000000038
                },
                {
                    "name": "B4",
                    "midi": 71,
                    "time": 129.92004250000016,
                    "velocity": 0.36220472440944884,
                    "duration": 0.3289115000000038
                },
                {
                    "name": "D#4",
                    "midi": 63,
                    "time": 130.24895400000017,
                    "velocity": 0.3543307086614173,
                    "duration": 1.9734690000000228
                },
                {
                    "name": "G4",
                    "midi": 67,
                    "time": 130.24895400000017,
                    "velocity": 0.3543307086614173,
                    "duration": 1.9734690000000228
                },
                {
                    "name": "A#3",
                    "midi": 58,
                    "time": 130.24895400000017,
                    "velocity": 0.4015748031496063,
                    "duration": 0.4933672500000057
                },
                {
                    "name": "A#4",
                    "midi": 70,
                    "time": 130.24895400000017,
                    "velocity": 0.4015748031496063,
                    "duration": 0.4933672500000057
                },
                {
                    "name": "B3",
                    "midi": 59,
                    "time": 130.74232125000017,
                    "velocity": 0.3228346456692913,
                    "duration": 0.1644557500000019
                },
                {
                    "name": "B4",
                    "midi": 71,
                    "time": 130.74232125000017,
                    "velocity": 0.3228346456692913,
                    "duration": 0.1644557500000019
                },
                {
                    "name": "A#3",
                    "midi": 58,
                    "time": 130.90677700000018,
                    "velocity": 0.2755905511811024,
                    "duration": 0.24668362500000285
                },
                {
                    "name": "A#4",
                    "midi": 70,
                    "time": 130.90677700000018,
                    "velocity": 0.2755905511811024,
                    "duration": 0.24668362500000285
                },
                {
                    "name": "C#4",
                    "midi": 61,
                    "time": 131.23568850000018,
                    "velocity": 0.33858267716535434,
                    "duration": 0.3289115000000038
                },
                {
                    "name": "C#5",
                    "midi": 73,
                    "time": 131.23568850000018,
                    "velocity": 0.33858267716535434,
                    "duration": 0.3289115000000038
                },
                {
                    "name": "B3",
                    "midi": 59,
                    "time": 131.56460000000018,
                    "velocity": 0.2992125984251969,
                    "duration": 0.3289115000000038
                },
                {
                    "name": "B4",
                    "midi": 71,
                    "time": 131.56460000000018,
                    "velocity": 0.2992125984251969,
                    "duration": 0.3289115000000038
                },
                {
                    "name": "A#3",
                    "midi": 58,
                    "time": 131.8935115000002,
                    "velocity": 0.2755905511811024,
                    "duration": 0.24668362500000285
                },
                {
                    "name": "A#4",
                    "midi": 70,
                    "time": 131.8935115000002,
                    "velocity": 0.2755905511811024,
                    "duration": 0.24668362500000285
                },
                {
                    "name": "B3",
                    "midi": 59,
                    "time": 132.2224230000002,
                    "velocity": 0.31496062992125984,
                    "duration": 1.644557500000019
                },
                {
                    "name": "D#4",
                    "midi": 63,
                    "time": 132.2224230000002,
                    "velocity": 0.31496062992125984,
                    "duration": 1.644557500000019
                },
                {
                    "name": "G#4",
                    "midi": 68,
                    "time": 132.2224230000002,
                    "velocity": 0.3543307086614173,
                    "duration": 0.9867345000000114
                },
                {
                    "name": "B4",
                    "midi": 71,
                    "time": 132.2224230000002,
                    "velocity": 0.3543307086614173,
                    "duration": 0.9867345000000114
                },
                {
                    "name": "G#4",
                    "midi": 68,
                    "time": 133.2091575000002,
                    "velocity": 0.3228346456692913,
                    "duration": 0.6578230000000076
                },
                {
                    "name": "G#4",
                    "midi": 68,
                    "time": 135.1826265000002,
                    "velocity": 0.4015748031496063,
                    "duration": 0.9867345000000114
                },
                {
                    "name": "D#5",
                    "midi": 75,
                    "time": 136.1693610000002,
                    "velocity": 0.49606299212598426,
                    "duration": 3.9469379999999887
                },
                {
                    "name": "G#5",
                    "midi": 80,
                    "time": 140.1162990000002,
                    "velocity": 0.4409448818897638,
                    "duration": 0.6578230000000076
                },
                {
                    "name": "D#4",
                    "midi": 63,
                    "time": 141.76085650000022,
                    "velocity": 0.4015748031496063,
                    "duration": 0.3563207916666613
                },
                {
                    "name": "G#4",
                    "midi": 68,
                    "time": 142.08976800000022,
                    "velocity": 0.4409448818897638,
                    "duration": 2.3297897916666557
                },
                {
                    "name": "B4",
                    "midi": 71,
                    "time": 144.39214850000022,
                    "velocity": 0.41732283464566927,
                    "duration": 0.3563207916666613
                },
                {
                    "name": "A#4",
                    "midi": 70,
                    "time": 144.72106000000022,
                    "velocity": 0.4015748031496063,
                    "duration": 0.24668362499997443
                },
                {
                    "name": "G#4",
                    "midi": 68,
                    "time": 144.94033433333354,
                    "velocity": 0.3543307086614173,
                    "duration": 0.08222787499997253
                },
                {
                    "name": "A#4",
                    "midi": 70,
                    "time": 144.99515291666685,
                    "velocity": 0.33070866141732286,
                    "duration": 0.08222787499997253
                },
                {
                    "name": "G#4",
                    "midi": 68,
                    "time": 145.04997150000017,
                    "velocity": 0.4409448818897638,
                    "duration": 0.3563207916666613
                },
                {
                    "name": "E4",
                    "midi": 64,
                    "time": 145.37888300000017,
                    "velocity": 0.3700787401574803,
                    "duration": 0.3563207916666613
                },
                {
                    "name": "G#4",
                    "midi": 68,
                    "time": 145.70779450000018,
                    "velocity": 0.3543307086614173,
                    "duration": 0.3289115000000038
                },
                {
                    "name": "G#4",
                    "midi": 68,
                    "time": 146.03670600000018,
                    "velocity": 0.41732283464566927,
                    "duration": 0.6852322916666651
                },
                {
                    "name": "D#5",
                    "midi": 75,
                    "time": 146.6945290000002,
                    "velocity": 0.3779527559055118,
                    "duration": 0.3563207916666613
                },
                {
                    "name": "G#4",
                    "midi": 68,
                    "time": 147.0234405000002,
                    "velocity": 0.3937007874015748,
                    "duration": 1.9734689999999944
                },
                {
                    "name": "D#4",
                    "midi": 63,
                    "time": 149.9836440000002,
                    "velocity": 0.28346456692913385,
                    "duration": 1.6445574999999906
                },
                {
                    "name": "F#4",
                    "midi": 66,
                    "time": 149.9836440000002,
                    "velocity": 0.28346456692913385,
                    "duration": 1.6445574999999906
                },
                {
                    "name": "A4",
                    "midi": 69,
                    "time": 149.9836440000002,
                    "velocity": 0.4015748031496063,
                    "duration": 1.3156459999999868
                },
                {
                    "name": "G#4",
                    "midi": 68,
                    "time": 151.29929000000018,
                    "velocity": 0.3700787401574803,
                    "duration": 0.3289115000000038
                },
                {
                    "name": "A4",
                    "midi": 69,
                    "time": 151.6282015000002,
                    "velocity": 0.3464566929133858,
                    "duration": 0.3289115000000038
                },
                {
                    "name": "D4",
                    "midi": 62,
                    "time": 151.9571130000002,
                    "velocity": 0.28346456692913385,
                    "duration": 1.6445574999999906
                },
                {
                    "name": "F4",
                    "midi": 65,
                    "time": 151.9571130000002,
                    "velocity": 0.28346456692913385,
                    "duration": 1.6445574999999906
                },
                {
                    "name": "A#4",
                    "midi": 70,
                    "time": 151.9571130000002,
                    "velocity": 0.44881889763779526,
                    "duration": 0.6852322916666651
                },
                {
                    "name": "F5",
                    "midi": 77,
                    "time": 152.6149360000002,
                    "velocity": 0.3779527559055118,
                    "duration": 0.3563207916666613
                },
                {
                    "name": "A#4",
                    "midi": 70,
                    "time": 152.9438475000002,
                    "velocity": 0.3937007874015748,
                    "duration": 0.6578229999999792
                },
                {
                    "name": "D#4",
                    "midi": 63,
                    "time": 153.9305820000002,
                    "velocity": 0.28346456692913385,
                    "duration": 1.6445574999999906
                },
                {
                    "name": "F#4",
                    "midi": 66,
                    "time": 153.9305820000002,
                    "velocity": 0.28346456692913385,
                    "duration": 1.6445574999999906
                },
                {
                    "name": "C5",
                    "midi": 72,
                    "time": 153.9305820000002,
                    "velocity": 0.4015748031496063,
                    "duration": 1.3156459999999868
                },
                {
                    "name": "B4",
                    "midi": 71,
                    "time": 155.24622800000017,
                    "velocity": 0.3700787401574803,
                    "duration": 0.3289115000000038
                },
                {
                    "name": "C5",
                    "midi": 72,
                    "time": 155.57513950000018,
                    "velocity": 0.3543307086614173,
                    "duration": 0.3289115000000038
                },
                {
                    "name": "G#4",
                    "midi": 68,
                    "time": 155.90405100000018,
                    "velocity": 0.28346456692913385,
                    "duration": 1.6445574999999906
                },
                {
                    "name": "F4",
                    "midi": 65,
                    "time": 155.90405100000018,
                    "velocity": 0.28346456692913385,
                    "duration": 1.6445574999999906
                },
                {
                    "name": "C#5",
                    "midi": 73,
                    "time": 155.90405100000018,
                    "velocity": 0.44881889763779526,
                    "duration": 0.6852322916666651
                },
                {
                    "name": "G#5",
                    "midi": 80,
                    "time": 156.5618740000002,
                    "velocity": 0.3937007874015748,
                    "duration": 0.3563207916666613
                },
                {
                    "name": "C#5",
                    "midi": 73,
                    "time": 156.8907855000002,
                    "velocity": 0.3937007874015748,
                    "duration": 0.6578229999999792
                },
                {
                    "name": "D#4",
                    "midi": 63,
                    "time": 157.87752000000017,
                    "velocity": 0.4015748031496063,
                    "duration": 3.9469379999999887
                },
                {
                    "name": "A#4",
                    "midi": 70,
                    "time": 157.87752000000017,
                    "velocity": 0.4015748031496063,
                    "duration": 3.9469379999999887
                },
                {
                    "name": "D5",
                    "midi": 74,
                    "time": 157.87752000000017,
                    "velocity": 0.4015748031496063,
                    "duration": 3.9469379999999887
                },
                {
                    "name": "G#4",
                    "midi": 68,
                    "time": 161.82445800000016,
                    "velocity": 0.28346456692913385,
                    "duration": 0.9867345000000114
                },
                {
                    "name": "D#4",
                    "midi": 63,
                    "time": 161.82445800000016,
                    "velocity": 0.4409448818897638,
                    "duration": 0.9867345000000114
                },
                {
                    "name": "D#5",
                    "midi": 75,
                    "time": 161.82445800000016,
                    "velocity": 0.4409448818897638,
                    "duration": 0.9867345000000114
                },
                {
                    "name": "G#4",
                    "midi": 68,
                    "time": 162.81119250000017,
                    "velocity": 0.28346456692913385,
                    "duration": 0.9867345000000114
                },
                {
                    "name": "D4",
                    "midi": 62,
                    "time": 162.81119250000017,
                    "velocity": 0.3779527559055118,
                    "duration": 0.3289115000000038
                },
                {
                    "name": "D5",
                    "midi": 74,
                    "time": 162.81119250000017,
                    "velocity": 0.3779527559055118,
                    "duration": 0.3289115000000038
                },
                {
                    "name": "C#4",
                    "midi": 61,
                    "time": 163.14010400000018,
                    "velocity": 0.36220472440944884,
                    "duration": 0.3289115000000038
                },
                {
                    "name": "C#5",
                    "midi": 73,
                    "time": 163.14010400000018,
                    "velocity": 0.36220472440944884,
                    "duration": 0.3289115000000038
                },
                {
                    "name": "D4",
                    "midi": 62,
                    "time": 163.46901550000018,
                    "velocity": 0.3543307086614173,
                    "duration": 0.3289115000000038
                },
                {
                    "name": "D5",
                    "midi": 74,
                    "time": 163.46901550000018,
                    "velocity": 0.3543307086614173,
                    "duration": 0.3289115000000038
                },
                {
                    "name": "G#4",
                    "midi": 68,
                    "time": 163.7979270000002,
                    "velocity": 0.28346456692913385,
                    "duration": 0.9867345000000114
                },
                {
                    "name": "D#4",
                    "midi": 63,
                    "time": 163.7979270000002,
                    "velocity": 0.41732283464566927,
                    "duration": 0.9867345000000114
                },
                {
                    "name": "D#5",
                    "midi": 75,
                    "time": 163.7979270000002,
                    "velocity": 0.41732283464566927,
                    "duration": 0.9867345000000114
                },
                {
                    "name": "G#4",
                    "midi": 68,
                    "time": 164.7846615000002,
                    "velocity": 0.28346456692913385,
                    "duration": 0.9867345000000114
                },
                {
                    "name": "D4",
                    "midi": 62,
                    "time": 164.7846615000002,
                    "velocity": 0.3700787401574803,
                    "duration": 0.3289115000000038
                },
                {
                    "name": "D5",
                    "midi": 74,
                    "time": 164.7846615000002,
                    "velocity": 0.3700787401574803,
                    "duration": 0.3289115000000038
                },
                {
                    "name": "C#4",
                    "midi": 61,
                    "time": 165.1135730000002,
                    "velocity": 0.36220472440944884,
                    "duration": 0.3289115000000038
                },
                {
                    "name": "C#5",
                    "midi": 73,
                    "time": 165.1135730000002,
                    "velocity": 0.36220472440944884,
                    "duration": 0.3289115000000038
                },
                {
                    "name": "D4",
                    "midi": 62,
                    "time": 165.4424845000002,
                    "velocity": 0.3543307086614173,
                    "duration": 0.3289115000000038
                },
                {
                    "name": "D5",
                    "midi": 74,
                    "time": 165.4424845000002,
                    "velocity": 0.3543307086614173,
                    "duration": 0.3289115000000038
                },
                {
                    "name": "G#4",
                    "midi": 68,
                    "time": 165.7713960000002,
                    "velocity": 0.28346456692913385,
                    "duration": 1.9734690000000228
                },
                {
                    "name": "D#4",
                    "midi": 63,
                    "time": 165.7713960000002,
                    "velocity": 0.4094488188976378,
                    "duration": 0.9867345000000114
                },
                {
                    "name": "D#5",
                    "midi": 75,
                    "time": 165.7713960000002,
                    "velocity": 0.4094488188976378,
                    "duration": 0.9867345000000114
                },
                {
                    "name": "D4",
                    "midi": 62,
                    "time": 166.75813050000022,
                    "velocity": 0.3700787401574803,
                    "duration": 0.9867345000000114
                },
                {
                    "name": "D5",
                    "midi": 74,
                    "time": 166.75813050000022,
                    "velocity": 0.3700787401574803,
                    "duration": 0.9867345000000114
                },
                {
                    "name": "C#4",
                    "midi": 61,
                    "time": 167.74486500000023,
                    "velocity": 0.36220472440944884,
                    "duration": 0.9867345000000114
                },
                {
                    "name": "G#4",
                    "midi": 68,
                    "time": 167.74486500000023,
                    "velocity": 0.36220472440944884,
                    "duration": 0.9867345000000114
                },
                {
                    "name": "C#5",
                    "midi": 73,
                    "time": 167.74486500000023,
                    "velocity": 0.36220472440944884,
                    "duration": 0.9867345000000114
                },
                {
                    "name": "G#4",
                    "midi": 68,
                    "time": 168.73159950000024,
                    "velocity": 0.44881889763779526,
                    "duration": 0.9867345000000114
                },
                {
                    "name": "E5",
                    "midi": 76,
                    "time": 168.73159950000024,
                    "velocity": 0.44881889763779526,
                    "duration": 0.9867345000000114
                },
                {
                    "name": "G#5",
                    "midi": 80,
                    "time": 168.73159950000024,
                    "velocity": 0.44881889763779526,
                    "duration": 0.9867345000000114
                },
                {
                    "name": "F#4",
                    "midi": 66,
                    "time": 169.71833400000025,
                    "velocity": 0.4409448818897638,
                    "duration": 0.9867345000000114
                },
                {
                    "name": "D#5",
                    "midi": 75,
                    "time": 169.71833400000025,
                    "velocity": 0.4409448818897638,
                    "duration": 0.9867345000000114
                },
                {
                    "name": "F#5",
                    "midi": 78,
                    "time": 169.71833400000025,
                    "velocity": 0.4409448818897638,
                    "duration": 0.9867345000000114
                },
                {
                    "name": "E4",
                    "midi": 64,
                    "time": 170.70506850000027,
                    "velocity": 0.4330708661417323,
                    "duration": 0.9867345000000114
                },
                {
                    "name": "C#5",
                    "midi": 73,
                    "time": 170.70506850000027,
                    "velocity": 0.4330708661417323,
                    "duration": 0.9867345000000114
                },
                {
                    "name": "E5",
                    "midi": 76,
                    "time": 170.70506850000027,
                    "velocity": 0.4330708661417323,
                    "duration": 0.9867345000000114
                },
                {
                    "name": "G4",
                    "midi": 67,
                    "time": 171.69180300000028,
                    "velocity": 0.3543307086614173,
                    "duration": 1.9734690000000228
                },
                {
                    "name": "A#4",
                    "midi": 70,
                    "time": 171.69180300000028,
                    "velocity": 0.3543307086614173,
                    "duration": 1.9734690000000228
                },
                {
                    "name": "D#4",
                    "midi": 63,
                    "time": 171.69180300000028,
                    "velocity": 0.4015748031496063,
                    "duration": 0.9867345000000114
                },
                {
                    "name": "D#5",
                    "midi": 75,
                    "time": 171.69180300000028,
                    "velocity": 0.4015748031496063,
                    "duration": 0.9867345000000114
                },
                {
                    "name": "C#4",
                    "midi": 61,
                    "time": 172.6785375000003,
                    "velocity": 0.3779527559055118,
                    "duration": 0.6578230000000076
                },
                {
                    "name": "C#5",
                    "midi": 73,
                    "time": 172.6785375000003,
                    "velocity": 0.3779527559055118,
                    "duration": 0.6578230000000076
                },
                {
                    "name": "B3",
                    "midi": 59,
                    "time": 173.3363605000003,
                    "velocity": 0.36220472440944884,
                    "duration": 0.3289115000000038
                },
                {
                    "name": "B4",
                    "midi": 71,
                    "time": 173.3363605000003,
                    "velocity": 0.36220472440944884,
                    "duration": 0.3289115000000038
                },
                {
                    "name": "D#4",
                    "midi": 63,
                    "time": 173.6652720000003,
                    "velocity": 0.2992125984251969,
                    "duration": 1.9734690000000228
                },
                {
                    "name": "G4",
                    "midi": 67,
                    "time": 173.6652720000003,
                    "velocity": 0.2992125984251969,
                    "duration": 1.9734690000000228
                },
                {
                    "name": "A#3",
                    "midi": 58,
                    "time": 173.6652720000003,
                    "velocity": 0.4015748031496063,
                    "duration": 0.4933672500000057
                },
                {
                    "name": "A#4",
                    "midi": 70,
                    "time": 173.6652720000003,
                    "velocity": 0.4015748031496063,
                    "duration": 0.4933672500000057
                },
                {
                    "name": "B3",
                    "midi": 59,
                    "time": 174.1586392500003,
                    "velocity": 0.3228346456692913,
                    "duration": 0.1644557500000019
                },
                {
                    "name": "B4",
                    "midi": 71,
                    "time": 174.1586392500003,
                    "velocity": 0.3228346456692913,
                    "duration": 0.1644557500000019
                },
                {
                    "name": "A#3",
                    "midi": 58,
                    "time": 174.3230950000003,
                    "velocity": 0.2755905511811024,
                    "duration": 0.24668362500000285
                },
                {
                    "name": "A#4",
                    "midi": 70,
                    "time": 174.3230950000003,
                    "velocity": 0.2755905511811024,
                    "duration": 0.24668362500000285
                },
                {
                    "name": "C#4",
                    "midi": 61,
                    "time": 174.6520065000003,
                    "velocity": 0.33858267716535434,
                    "duration": 0.3289115000000038
                },
                {
                    "name": "C#5",
                    "midi": 73,
                    "time": 174.6520065000003,
                    "velocity": 0.33858267716535434,
                    "duration": 0.3289115000000038
                },
                {
                    "name": "B3",
                    "midi": 59,
                    "time": 174.98091800000032,
                    "velocity": 0.2992125984251969,
                    "duration": 0.3289115000000038
                },
                {
                    "name": "B4",
                    "midi": 71,
                    "time": 174.98091800000032,
                    "velocity": 0.2992125984251969,
                    "duration": 0.3289115000000038
                },
                {
                    "name": "A#3",
                    "midi": 58,
                    "time": 175.30982950000032,
                    "velocity": 0.2755905511811024,
                    "duration": 0.3289115000000038
                },
                {
                    "name": "A#4",
                    "midi": 70,
                    "time": 175.30982950000032,
                    "velocity": 0.2755905511811024,
                    "duration": 0.3289115000000038
                },
                {
                    "name": "B3",
                    "midi": 59,
                    "time": 175.63874100000032,
                    "velocity": 0.29133858267716534,
                    "duration": 1.644557500000019
                },
                {
                    "name": "D#4",
                    "midi": 63,
                    "time": 175.63874100000032,
                    "velocity": 0.28346456692913385,
                    "duration": 1.644557500000019
                },
                {
                    "name": "G#4",
                    "midi": 68,
                    "time": 175.63874100000032,
                    "velocity": 0.29133858267716534,
                    "duration": 0.9867345000000114
                },
                {
                    "name": "B4",
                    "midi": 71,
                    "time": 175.63874100000032,
                    "velocity": 0.3543307086614173,
                    "duration": 0.9867345000000114
                },
                {
                    "name": "G#4",
                    "midi": 68,
                    "time": 176.62547550000033,
                    "velocity": 0.3228346456692913,
                    "duration": 0.6578230000000076
                },
                {
                    "name": "D#4",
                    "midi": 63,
                    "time": 179.25676750000034,
                    "velocity": 0.4015748031496063,
                    "duration": 0.3563207916666613
                },
                {
                    "name": "G#4",
                    "midi": 68,
                    "time": 179.58567900000034,
                    "velocity": 0.4409448818897638,
                    "duration": 2.3297897916666557
                },
                {
                    "name": "B4",
                    "midi": 71,
                    "time": 181.88805950000034,
                    "velocity": 0.41732283464566927,
                    "duration": 0.3563207916666613
                },
                {
                    "name": "A#4",
                    "midi": 70,
                    "time": 182.21697100000034,
                    "velocity": 0.4015748031496063,
                    "duration": 0.24668362499997443
                },
                {
                    "name": "G#4",
                    "midi": 68,
                    "time": 182.43624533333366,
                    "velocity": 0.3543307086614173,
                    "duration": 0.08222787499997253
                },
                {
                    "name": "A#4",
                    "midi": 70,
                    "time": 182.49106391666697,
                    "velocity": 0.33070866141732286,
                    "duration": 0.08222787499997253
                },
                {
                    "name": "G#4",
                    "midi": 68,
                    "time": 182.5458825000003,
                    "velocity": 0.4409448818897638,
                    "duration": 0.3563207916666613
                },
                {
                    "name": "E4",
                    "midi": 64,
                    "time": 182.8747940000003,
                    "velocity": 0.3700787401574803,
                    "duration": 0.3563207916666613
                },
                {
                    "name": "G#4",
                    "midi": 68,
                    "time": 183.2037055000003,
                    "velocity": 0.3543307086614173,
                    "duration": 0.3289115000000038
                },
                {
                    "name": "G#4",
                    "midi": 68,
                    "time": 183.5326170000003,
                    "velocity": 0.41732283464566927,
                    "duration": 0.4933672500000057
                },
                {
                    "name": "E5",
                    "midi": 76,
                    "time": 184.0259842500003,
                    "velocity": 0.3779527559055118,
                    "duration": 0.1644557500000019
                },
                {
                    "name": "G#4",
                    "midi": 68,
                    "time": 184.1904400000003,
                    "velocity": 0.3543307086614173,
                    "duration": 0.3289115000000038
                },
                {
                    "name": "G#4",
                    "midi": 68,
                    "time": 184.5193515000003,
                    "velocity": 0.3858267716535433,
                    "duration": 1.6445574999999906
                },
                {
                    "name": "D#4",
                    "midi": 63,
                    "time": 187.4795550000003,
                    "velocity": 0.28346456692913385,
                    "duration": 1.6445574999999906
                },
                {
                    "name": "F#4",
                    "midi": 66,
                    "time": 187.4795550000003,
                    "velocity": 0.28346456692913385,
                    "duration": 1.6445574999999906
                },
                {
                    "name": "A4",
                    "midi": 69,
                    "time": 187.4795550000003,
                    "velocity": 0.4015748031496063,
                    "duration": 1.3156459999999868
                },
                {
                    "name": "G#4",
                    "midi": 68,
                    "time": 188.79520100000028,
                    "velocity": 0.3700787401574803,
                    "duration": 0.3289115000000038
                },
                {
                    "name": "A4",
                    "midi": 69,
                    "time": 189.12411250000028,
                    "velocity": 0.3779527559055118,
                    "duration": 0.3289115000000038
                },
                {
                    "name": "D4",
                    "midi": 62,
                    "time": 189.45302400000028,
                    "velocity": 0.28346456692913385,
                    "duration": 1.644557500000019
                },
                {
                    "name": "F4",
                    "midi": 65,
                    "time": 189.45302400000028,
                    "velocity": 0.28346456692913385,
                    "duration": 1.644557500000019
                },
                {
                    "name": "A#4",
                    "midi": 70,
                    "time": 189.45302400000028,
                    "velocity": 0.44881889763779526,
                    "duration": 0.4933672500000057
                },
                {
                    "name": "F5",
                    "midi": 77,
                    "time": 189.9463912500003,
                    "velocity": 0.4015748031496063,
                    "duration": 0.1644557500000019
                },
                {
                    "name": "A#4",
                    "midi": 70,
                    "time": 190.1108470000003,
                    "velocity": 0.4015748031496063,
                    "duration": 0.3289115000000038
                },
                {
                    "name": "A#4",
                    "midi": 70,
                    "time": 190.4397585000003,
                    "velocity": 0.3700787401574803,
                    "duration": 0.6578230000000076
                },
                {
                    "name": "D#4",
                    "midi": 63,
                    "time": 191.4264930000003,
                    "velocity": 0.28346456692913385,
                    "duration": 1.6445574999999906
                },
                {
                    "name": "F#4",
                    "midi": 66,
                    "time": 191.4264930000003,
                    "velocity": 0.28346456692913385,
                    "duration": 1.6445574999999906
                },
                {
                    "name": "C5",
                    "midi": 72,
                    "time": 191.4264930000003,
                    "velocity": 0.4015748031496063,
                    "duration": 1.3156459999999868
                },
                {
                    "name": "B4",
                    "midi": 71,
                    "time": 192.7421390000003,
                    "velocity": 0.3700787401574803,
                    "duration": 0.3289115000000038
                },
                {
                    "name": "C5",
                    "midi": 72,
                    "time": 193.0710505000003,
                    "velocity": 0.36220472440944884,
                    "duration": 0.3289115000000038
                },
                {
                    "name": "G#4",
                    "midi": 68,
                    "time": 193.3999620000003,
                    "velocity": 0.28346456692913385,
                    "duration": 1.644557500000019
                },
                {
                    "name": "F4",
                    "midi": 65,
                    "time": 193.3999620000003,
                    "velocity": 0.28346456692913385,
                    "duration": 1.644557500000019
                },
                {
                    "name": "C#5",
                    "midi": 73,
                    "time": 193.3999620000003,
                    "velocity": 0.44881889763779526,
                    "duration": 0.4933672500000057
                },
                {
                    "name": "G#5",
                    "midi": 80,
                    "time": 193.8933292500003,
                    "velocity": 0.4015748031496063,
                    "duration": 0.1644557500000019
                },
                {
                    "name": "C#5",
                    "midi": 73,
                    "time": 194.0577850000003,
                    "velocity": 0.4015748031496063,
                    "duration": 0.3289115000000038
                },
                {
                    "name": "C#5",
                    "midi": 73,
                    "time": 194.3866965000003,
                    "velocity": 0.3779527559055118,
                    "duration": 0.6578230000000076
                },
                {
                    "name": "D#4",
                    "midi": 63,
                    "time": 195.37343100000032,
                    "velocity": 0.4015748031496063,
                    "duration": 3.9469379999999887
                },
                {
                    "name": "A#4",
                    "midi": 70,
                    "time": 195.37343100000032,
                    "velocity": 0.4015748031496063,
                    "duration": 3.9469379999999887
                },
                {
                    "name": "D5",
                    "midi": 74,
                    "time": 195.37343100000032,
                    "velocity": 0.4015748031496063,
                    "duration": 3.9469379999999887
                },
                {
                    "name": "G#4",
                    "midi": 68,
                    "time": 199.3203690000003,
                    "velocity": 0.28346456692913385,
                    "duration": 0.9867345000000114
                },
                {
                    "name": "D#4",
                    "midi": 63,
                    "time": 199.3203690000003,
                    "velocity": 0.4409448818897638,
                    "duration": 0.9867345000000114
                },
                {
                    "name": "D#5",
                    "midi": 75,
                    "time": 199.3203690000003,
                    "velocity": 0.4409448818897638,
                    "duration": 0.9867345000000114
                },
                {
                    "name": "G#4",
                    "midi": 68,
                    "time": 200.30710350000032,
                    "velocity": 0.28346456692913385,
                    "duration": 0.9867345000000114
                },
                {
                    "name": "D4",
                    "midi": 62,
                    "time": 200.30710350000032,
                    "velocity": 0.3779527559055118,
                    "duration": 0.3289115000000038
                },
                {
                    "name": "D5",
                    "midi": 74,
                    "time": 200.30710350000032,
                    "velocity": 0.3779527559055118,
                    "duration": 0.3289115000000038
                },
                {
                    "name": "C#4",
                    "midi": 61,
                    "time": 200.63601500000033,
                    "velocity": 0.36220472440944884,
                    "duration": 0.3289115000000038
                },
                {
                    "name": "C#5",
                    "midi": 73,
                    "time": 200.63601500000033,
                    "velocity": 0.36220472440944884,
                    "duration": 0.3289115000000038
                },
                {
                    "name": "D4",
                    "midi": 62,
                    "time": 200.96492650000033,
                    "velocity": 0.3464566929133858,
                    "duration": 0.3289115000000038
                },
                {
                    "name": "D5",
                    "midi": 74,
                    "time": 200.96492650000033,
                    "velocity": 0.3464566929133858,
                    "duration": 0.3289115000000038
                },
                {
                    "name": "G#4",
                    "midi": 68,
                    "time": 201.29383800000033,
                    "velocity": 0.28346456692913385,
                    "duration": 0.9867345000000114
                },
                {
                    "name": "D#4",
                    "midi": 63,
                    "time": 201.29383800000033,
                    "velocity": 0.41732283464566927,
                    "duration": 0.9867345000000114
                },
                {
                    "name": "D#5",
                    "midi": 75,
                    "time": 201.29383800000033,
                    "velocity": 0.41732283464566927,
                    "duration": 0.9867345000000114
                },
                {
                    "name": "G#4",
                    "midi": 68,
                    "time": 202.28057250000035,
                    "velocity": 0.28346456692913385,
                    "duration": 0.9867345000000114
                },
                {
                    "name": "D4",
                    "midi": 62,
                    "time": 202.28057250000035,
                    "velocity": 0.3700787401574803,
                    "duration": 0.3289115000000038
                },
                {
                    "name": "D5",
                    "midi": 74,
                    "time": 202.28057250000035,
                    "velocity": 0.3700787401574803,
                    "duration": 0.3289115000000038
                },
                {
                    "name": "C#4",
                    "midi": 61,
                    "time": 202.60948400000035,
                    "velocity": 0.36220472440944884,
                    "duration": 0.3289115000000038
                },
                {
                    "name": "C#5",
                    "midi": 73,
                    "time": 202.60948400000035,
                    "velocity": 0.36220472440944884,
                    "duration": 0.3289115000000038
                },
                {
                    "name": "D4",
                    "midi": 62,
                    "time": 202.93839550000035,
                    "velocity": 0.3543307086614173,
                    "duration": 0.3289115000000038
                },
                {
                    "name": "D5",
                    "midi": 74,
                    "time": 202.93839550000035,
                    "velocity": 0.3543307086614173,
                    "duration": 0.3289115000000038
                },
                {
                    "name": "G#4",
                    "midi": 68,
                    "time": 203.26730700000036,
                    "velocity": 0.28346456692913385,
                    "duration": 1.9734690000000228
                },
                {
                    "name": "D#4",
                    "midi": 63,
                    "time": 203.26730700000036,
                    "velocity": 0.4094488188976378,
                    "duration": 0.9867345000000114
                },
                {
                    "name": "D#5",
                    "midi": 75,
                    "time": 203.26730700000036,
                    "velocity": 0.4094488188976378,
                    "duration": 0.9867345000000114
                },
                {
                    "name": "D4",
                    "midi": 62,
                    "time": 204.25404150000037,
                    "velocity": 0.3700787401574803,
                    "duration": 0.9867345000000114
                },
                {
                    "name": "D5",
                    "midi": 74,
                    "time": 204.25404150000037,
                    "velocity": 0.3700787401574803,
                    "duration": 0.9867345000000114
                },
                {
                    "name": "C#4",
                    "midi": 61,
                    "time": 205.24077600000038,
                    "velocity": 0.36220472440944884,
                    "duration": 0.9867345000000114
                },
                {
                    "name": "G#4",
                    "midi": 68,
                    "time": 205.24077600000038,
                    "velocity": 0.36220472440944884,
                    "duration": 0.9867345000000114
                },
                {
                    "name": "C#5",
                    "midi": 73,
                    "time": 205.24077600000038,
                    "velocity": 0.36220472440944884,
                    "duration": 0.9867345000000114
                },
                {
                    "name": "G#4",
                    "midi": 68,
                    "time": 206.2275105000004,
                    "velocity": 0.44881889763779526,
                    "duration": 0.9867345000000114
                },
                {
                    "name": "E5",
                    "midi": 76,
                    "time": 206.2275105000004,
                    "velocity": 0.44881889763779526,
                    "duration": 0.9867345000000114
                },
                {
                    "name": "G#5",
                    "midi": 80,
                    "time": 206.2275105000004,
                    "velocity": 0.44881889763779526,
                    "duration": 0.9867345000000114
                },
                {
                    "name": "F#4",
                    "midi": 66,
                    "time": 207.2142450000004,
                    "velocity": 0.4409448818897638,
                    "duration": 0.9867345000000114
                },
                {
                    "name": "D#5",
                    "midi": 75,
                    "time": 207.2142450000004,
                    "velocity": 0.4409448818897638,
                    "duration": 0.9867345000000114
                },
                {
                    "name": "F#5",
                    "midi": 78,
                    "time": 207.2142450000004,
                    "velocity": 0.4409448818897638,
                    "duration": 0.9867345000000114
                },
                {
                    "name": "E4",
                    "midi": 64,
                    "time": 208.20097950000041,
                    "velocity": 0.4094488188976378,
                    "duration": 0.3289115000000038
                },
                {
                    "name": "C#5",
                    "midi": 73,
                    "time": 208.20097950000041,
                    "velocity": 0.4094488188976378,
                    "duration": 0.9867345000000114
                },
                {
                    "name": "E5",
                    "midi": 76,
                    "time": 208.20097950000041,
                    "velocity": 0.4094488188976378,
                    "duration": 0.3289115000000038
                },
                {
                    "name": "G#4",
                    "midi": 68,
                    "time": 208.52989100000042,
                    "velocity": 0.33858267716535434,
                    "duration": 0.3289115000000038
                },
                {
                    "name": "G#5",
                    "midi": 80,
                    "time": 208.52989100000042,
                    "velocity": 0.33858267716535434,
                    "duration": 0.3289115000000038
                },
                {
                    "name": "E4",
                    "midi": 64,
                    "time": 208.85880250000042,
                    "velocity": 0.3700787401574803,
                    "duration": 0.3289115000000038
                },
                {
                    "name": "E5",
                    "midi": 76,
                    "time": 208.85880250000042,
                    "velocity": 0.3700787401574803,
                    "duration": 0.3289115000000038
                },
                {
                    "name": "G4",
                    "midi": 67,
                    "time": 209.18771400000043,
                    "velocity": 0.3700787401574803,
                    "duration": 1.9734690000000228
                },
                {
                    "name": "A#4",
                    "midi": 70,
                    "time": 209.18771400000043,
                    "velocity": 0.3700787401574803,
                    "duration": 1.9734690000000228
                },
                {
                    "name": "D#4",
                    "midi": 63,
                    "time": 209.18771400000043,
                    "velocity": 0.3700787401574803,
                    "duration": 0.9867345000000114
                },
                {
                    "name": "D#5",
                    "midi": 75,
                    "time": 209.18771400000043,
                    "velocity": 0.3700787401574803,
                    "duration": 0.9867345000000114
                },
                {
                    "name": "C#4",
                    "midi": 61,
                    "time": 210.17444850000044,
                    "velocity": 0.3779527559055118,
                    "duration": 0.3289115000000038
                },
                {
                    "name": "C#5",
                    "midi": 73,
                    "time": 210.17444850000044,
                    "velocity": 0.3779527559055118,
                    "duration": 0.3289115000000038
                },
                {
                    "name": "D#4",
                    "midi": 63,
                    "time": 210.50336000000044,
                    "velocity": 0.3543307086614173,
                    "duration": 0.3289115000000038
                },
                {
                    "name": "D#5",
                    "midi": 75,
                    "time": 210.50336000000044,
                    "velocity": 0.3543307086614173,
                    "duration": 0.3289115000000038
                },
                {
                    "name": "B3",
                    "midi": 59,
                    "time": 210.83227150000045,
                    "velocity": 0.33070866141732286,
                    "duration": 0.3289115000000038
                },
                {
                    "name": "B4",
                    "midi": 71,
                    "time": 210.83227150000045,
                    "velocity": 0.33070866141732286,
                    "duration": 0.3289115000000038
                },
                {
                    "name": "D#4",
                    "midi": 63,
                    "time": 211.16118300000045,
                    "velocity": 0.2440944881889764,
                    "duration": 1.9734690000000228
                },
                {
                    "name": "G4",
                    "midi": 67,
                    "time": 211.16118300000045,
                    "velocity": 0.2440944881889764,
                    "duration": 1.9734690000000228
                },
                {
                    "name": "A#3",
                    "midi": 58,
                    "time": 211.16118300000045,
                    "velocity": 0.3700787401574803,
                    "duration": 0.4933672500000057
                },
                {
                    "name": "A#4",
                    "midi": 70,
                    "time": 211.16118300000045,
                    "velocity": 0.3700787401574803,
                    "duration": 0.4933672500000057
                },
                {
                    "name": "B3",
                    "midi": 59,
                    "time": 211.65455025000045,
                    "velocity": 0.29133858267716534,
                    "duration": 0.1644557500000019
                },
                {
                    "name": "B4",
                    "midi": 71,
                    "time": 211.65455025000045,
                    "velocity": 0.29133858267716534,
                    "duration": 0.1644557500000019
                },
                {
                    "name": "A#3",
                    "midi": 58,
                    "time": 211.81900600000046,
                    "velocity": 0.25196850393700787,
                    "duration": 0.3289115000000038
                },
                {
                    "name": "A#4",
                    "midi": 70,
                    "time": 211.81900600000046,
                    "velocity": 0.25196850393700787,
                    "duration": 0.3289115000000038
                },
                {
                    "name": "C#4",
                    "midi": 61,
                    "time": 212.14791750000046,
                    "velocity": 0.31496062992125984,
                    "duration": 0.3289115000000038
                },
                {
                    "name": "C#5",
                    "midi": 73,
                    "time": 212.14791750000046,
                    "velocity": 0.31496062992125984,
                    "duration": 0.3289115000000038
                },
                {
                    "name": "B3",
                    "midi": 59,
                    "time": 212.47682900000046,
                    "velocity": 0.25984251968503935,
                    "duration": 0.3289115000000038
                },
                {
                    "name": "B4",
                    "midi": 71,
                    "time": 212.47682900000046,
                    "velocity": 0.25984251968503935,
                    "duration": 0.3289115000000038
                },
                {
                    "name": "A#3",
                    "midi": 58,
                    "time": 212.80574050000047,
                    "velocity": 0.23622047244094488,
                    "duration": 0.1644557500000019
                },
                {
                    "name": "A#4",
                    "midi": 70,
                    "time": 212.80574050000047,
                    "velocity": 0.23622047244094488,
                    "duration": 0.1644557500000019
                },
                {
                    "name": "A4",
                    "midi": 69,
                    "time": 215.10812100000047,
                    "velocity": 0.25984251968503935,
                    "duration": 0.9867345000000114
                },
                {
                    "name": "C#5",
                    "midi": 73,
                    "time": 215.10812100000047,
                    "velocity": 0.25984251968503935,
                    "duration": 0.9867345000000114
                },
                {
                    "name": "E4",
                    "midi": 64,
                    "time": 215.10812100000047,
                    "velocity": 0.29133858267716534,
                    "duration": 0.6578230000000076
                },
                {
                    "name": "E5",
                    "midi": 76,
                    "time": 215.10812100000047,
                    "velocity": 0.29133858267716534,
                    "duration": 0.6578230000000076
                },
                {
                    "name": "E4",
                    "midi": 64,
                    "time": 215.76594400000047,
                    "velocity": 0.28346456692913385,
                    "duration": 0.3289115000000038
                },
                {
                    "name": "E5",
                    "midi": 76,
                    "time": 215.76594400000047,
                    "velocity": 0.28346456692913385,
                    "duration": 0.3289115000000038
                },
                {
                    "name": "A4",
                    "midi": 69,
                    "time": 216.09485550000048,
                    "velocity": 0.28346456692913385,
                    "duration": 0.9867345000000114
                },
                {
                    "name": "C#5",
                    "midi": 73,
                    "time": 216.09485550000048,
                    "velocity": 0.28346456692913385,
                    "duration": 0.9867345000000114
                },
                {
                    "name": "F#4",
                    "midi": 66,
                    "time": 216.09485550000048,
                    "velocity": 0.3228346456692913,
                    "duration": 0.4933672500000057
                },
                {
                    "name": "F#5",
                    "midi": 78,
                    "time": 216.09485550000048,
                    "velocity": 0.3228346456692913,
                    "duration": 0.4933672500000057
                },
                {
                    "name": "E4",
                    "midi": 64,
                    "time": 216.58822275000048,
                    "velocity": 0.2992125984251969,
                    "duration": 0.1644557500000019
                },
                {
                    "name": "E5",
                    "midi": 76,
                    "time": 216.58822275000048,
                    "velocity": 0.2992125984251969,
                    "duration": 0.1644557500000019
                },
                {
                    "name": "D#4",
                    "midi": 63,
                    "time": 216.75267850000048,
                    "velocity": 0.2755905511811024,
                    "duration": 0.1644557500000019
                },
                {
                    "name": "D#5",
                    "midi": 75,
                    "time": 216.75267850000048,
                    "velocity": 0.2755905511811024,
                    "duration": 0.1644557500000019
                },
                {
                    "name": "A4",
                    "midi": 69,
                    "time": 217.0815900000005,
                    "velocity": 0.28346456692913385,
                    "duration": 0.9867345000000114
                },
                {
                    "name": "C#5",
                    "midi": 73,
                    "time": 217.0815900000005,
                    "velocity": 0.28346456692913385,
                    "duration": 0.9867345000000114
                },
                {
                    "name": "E4",
                    "midi": 64,
                    "time": 217.0815900000005,
                    "velocity": 0.3228346456692913,
                    "duration": 0.6578230000000076
                },
                {
                    "name": "E5",
                    "midi": 76,
                    "time": 217.0815900000005,
                    "velocity": 0.3228346456692913,
                    "duration": 0.6578230000000076
                },
                {
                    "name": "E4",
                    "midi": 64,
                    "time": 217.7394130000005,
                    "velocity": 0.29133858267716534,
                    "duration": 0.3289115000000038
                },
                {
                    "name": "E5",
                    "midi": 76,
                    "time": 217.7394130000005,
                    "velocity": 0.29133858267716534,
                    "duration": 0.3289115000000038
                },
                {
                    "name": "A4",
                    "midi": 69,
                    "time": 218.0683245000005,
                    "velocity": 0.2755905511811024,
                    "duration": 0.9867345000000114
                },
                {
                    "name": "C#5",
                    "midi": 73,
                    "time": 218.0683245000005,
                    "velocity": 0.2755905511811024,
                    "duration": 0.9867345000000114
                },
                {
                    "name": "F#4",
                    "midi": 66,
                    "time": 218.0683245000005,
                    "velocity": 0.2992125984251969,
                    "duration": 0.4933672500000057
                },
                {
                    "name": "F#5",
                    "midi": 78,
                    "time": 218.0683245000005,
                    "velocity": 0.2992125984251969,
                    "duration": 0.4933672500000057
                },
                {
                    "name": "E4",
                    "midi": 64,
                    "time": 218.5616917500005,
                    "velocity": 0.25984251968503935,
                    "duration": 0.1644557500000019
                },
                {
                    "name": "E5",
                    "midi": 76,
                    "time": 218.5616917500005,
                    "velocity": 0.25984251968503935,
                    "duration": 0.1644557500000019
                },
                {
                    "name": "D#4",
                    "midi": 63,
                    "time": 218.7261475000005,
                    "velocity": 0.25984251968503935,
                    "duration": 0.1644557500000019
                },
                {
                    "name": "D#5",
                    "midi": 75,
                    "time": 218.7261475000005,
                    "velocity": 0.25984251968503935,
                    "duration": 0.1644557500000019
                },
                {
                    "name": "E4",
                    "midi": 64,
                    "time": 221.0285280000005,
                    "velocity": 0.3700787401574803,
                    "duration": 0.9867345000000114
                },
                {
                    "name": "G#4",
                    "midi": 68,
                    "time": 221.0285280000005,
                    "velocity": 0.3700787401574803,
                    "duration": 0.9867345000000114
                },
                {
                    "name": "C#5",
                    "midi": 73,
                    "time": 221.0285280000005,
                    "velocity": 0.3700787401574803,
                    "duration": 0.9867345000000114
                },
                {
                    "name": "C#4",
                    "midi": 61,
                    "time": 221.0285280000005,
                    "velocity": 0.3700787401574803,
                    "duration": 0.9867345000000114
                },
                {
                    "name": "G#4",
                    "midi": 68,
                    "time": 222.01526250000052,
                    "velocity": 0.4409448818897638,
                    "duration": 0.9867345000000114
                },
                {
                    "name": "C#5",
                    "midi": 73,
                    "time": 222.01526250000052,
                    "velocity": 0.4409448818897638,
                    "duration": 0.9867345000000114
                },
                {
                    "name": "E5",
                    "midi": 76,
                    "time": 222.01526250000052,
                    "velocity": 0.4409448818897638,
                    "duration": 0.9867345000000114
                },
                {
                    "name": "G#5",
                    "midi": 80,
                    "time": 222.01526250000052,
                    "velocity": 0.4409448818897638,
                    "duration": 0.9867345000000114
                },
                {
                    "name": "F#4",
                    "midi": 66,
                    "time": 223.00199700000053,
                    "velocity": 0.4094488188976378,
                    "duration": 0.9867345000000114
                },
                {
                    "name": "G#4",
                    "midi": 68,
                    "time": 223.00199700000053,
                    "velocity": 0.4094488188976378,
                    "duration": 0.9867345000000114
                },
                {
                    "name": "D#5",
                    "midi": 75,
                    "time": 223.00199700000053,
                    "velocity": 0.4094488188976378,
                    "duration": 0.9867345000000114
                },
                {
                    "name": "F#5",
                    "midi": 78,
                    "time": 223.00199700000053,
                    "velocity": 0.4094488188976378,
                    "duration": 0.9867345000000114
                },
                {
                    "name": "E4",
                    "midi": 64,
                    "time": 223.98873150000054,
                    "velocity": 0.3700787401574803,
                    "duration": 0.9867345000000114
                },
                {
                    "name": "G#4",
                    "midi": 68,
                    "time": 223.98873150000054,
                    "velocity": 0.3700787401574803,
                    "duration": 0.9867345000000114
                },
                {
                    "name": "C#5",
                    "midi": 73,
                    "time": 223.98873150000054,
                    "velocity": 0.3700787401574803,
                    "duration": 0.9867345000000114
                },
                {
                    "name": "E5",
                    "midi": 76,
                    "time": 223.98873150000054,
                    "velocity": 0.3700787401574803,
                    "duration": 0.9867345000000114
                },
                {
                    "name": "D#4",
                    "midi": 63,
                    "time": 226.94893500000055,
                    "velocity": 0.29133858267716534,
                    "duration": 0.9867345000000114
                },
                {
                    "name": "G4",
                    "midi": 67,
                    "time": 226.94893500000055,
                    "velocity": 0.29133858267716534,
                    "duration": 0.9867345000000114
                },
                {
                    "name": "A#3",
                    "midi": 58,
                    "time": 226.94893500000055,
                    "velocity": 0.33070866141732286,
                    "duration": 0.4933672500000057
                },
                {
                    "name": "A#4",
                    "midi": 70,
                    "time": 226.94893500000055,
                    "velocity": 0.33070866141732286,
                    "duration": 0.4933672500000057
                },
                {
                    "name": "B3",
                    "midi": 59,
                    "time": 227.44230225000055,
                    "velocity": 0.2755905511811024,
                    "duration": 0.1644557500000019
                },
                {
                    "name": "B4",
                    "midi": 71,
                    "time": 227.44230225000055,
                    "velocity": 0.2755905511811024,
                    "duration": 0.1644557500000019
                },
                {
                    "name": "A#3",
                    "midi": 58,
                    "time": 227.60675800000055,
                    "velocity": 0.2204724409448819,
                    "duration": 0.3289115000000038
                },
                {
                    "name": "A#4",
                    "midi": 70,
                    "time": 227.60675800000055,
                    "velocity": 0.2204724409448819,
                    "duration": 0.3289115000000038
                },
                {
                    "name": "D#4",
                    "midi": 63,
                    "time": 227.93566950000056,
                    "velocity": 0.29133858267716534,
                    "duration": 0.9867345000000114
                },
                {
                    "name": "G4",
                    "midi": 67,
                    "time": 227.93566950000056,
                    "velocity": 0.29133858267716534,
                    "duration": 0.9867345000000114
                },
                {
                    "name": "C#4",
                    "midi": 61,
                    "time": 227.93566950000056,
                    "velocity": 0.28346456692913385,
                    "duration": 0.3289115000000038
                },
                {
                    "name": "C#5",
                    "midi": 73,
                    "time": 227.93566950000056,
                    "velocity": 0.28346456692913385,
                    "duration": 0.3289115000000038
                },
                {
                    "name": "B3",
                    "midi": 59,
                    "time": 228.26458100000056,
                    "velocity": 0.25196850393700787,
                    "duration": 0.3289115000000038
                },
                {
                    "name": "B4",
                    "midi": 71,
                    "time": 228.26458100000056,
                    "velocity": 0.25196850393700787,
                    "duration": 0.3289115000000038
                },
                {
                    "name": "A#3",
                    "midi": 58,
                    "time": 228.59349250000056,
                    "velocity": 0.2204724409448819,
                    "duration": 0.3289115000000038
                },
                {
                    "name": "A#4",
                    "midi": 70,
                    "time": 228.59349250000056,
                    "velocity": 0.2204724409448819,
                    "duration": 0.3289115000000038
                },
                {
                    "name": "D#4",
                    "midi": 63,
                    "time": 230.56696150000056,
                    "velocity": 0.4015748031496063,
                    "duration": 0.3563207916666613
                },
                {
                    "name": "G#4",
                    "midi": 68,
                    "time": 230.89587300000056,
                    "velocity": 0.4330708661417323,
                    "duration": 2.3297897916666557
                },
                {
                    "name": "B4",
                    "midi": 71,
                    "time": 233.19825350000056,
                    "velocity": 0.4409448818897638,
                    "duration": 0.3563207916666613
                },
                {
                    "name": "A#4",
                    "midi": 70,
                    "time": 233.52716500000056,
                    "velocity": 0.4015748031496063,
                    "duration": 0.24668362499997443
                },
                {
                    "name": "G#4",
                    "midi": 68,
                    "time": 233.74643933333388,
                    "velocity": 0.3543307086614173,
                    "duration": 0.08222787499997253
                },
                {
                    "name": "A#4",
                    "midi": 70,
                    "time": 233.8012579166672,
                    "velocity": 0.33070866141732286,
                    "duration": 0.08222787499997253
                },
                {
                    "name": "G#4",
                    "midi": 68,
                    "time": 233.8560765000005,
                    "velocity": 0.44881889763779526,
                    "duration": 0.3563207916666613
                },
                {
                    "name": "E4",
                    "midi": 64,
                    "time": 234.18498800000052,
                    "velocity": 0.3779527559055118,
                    "duration": 0.3563207916666613
                },
                {
                    "name": "G#4",
                    "midi": 68,
                    "time": 234.51389950000052,
                    "velocity": 0.3543307086614173,
                    "duration": 0.3289115000000038
                },
                {
                    "name": "G#4",
                    "midi": 68,
                    "time": 234.84281100000052,
                    "velocity": 0.4015748031496063,
                    "duration": 0.6852322916666651
                },
                {
                    "name": "D#4",
                    "midi": 63,
                    "time": 235.50063400000053,
                    "velocity": 0.3779527559055118,
                    "duration": 0.3563207916666613
                },
                {
                    "name": "F#4",
                    "midi": 66,
                    "time": 235.82954550000053,
                    "velocity": 0.4094488188976378,
                    "duration": 1.3430552916666443
                },
                {
                    "name": "E4",
                    "midi": 64,
                    "time": 237.14519150000052,
                    "velocity": 0.3779527559055118,
                    "duration": 0.3563207916666613
                },
                {
                    "name": "D#4",
                    "midi": 63,
                    "time": 237.47410300000053,
                    "velocity": 0.3543307086614173,
                    "duration": 0.27409291666666036
                },
                {
                    "name": "D#4",
                    "midi": 63,
                    "time": 237.74819591666719,
                    "velocity": 0.3228346456692913,
                    "duration": 0.08222787500000095
                },
                {
                    "name": "E4",
                    "midi": 64,
                    "time": 237.80301450000053,
                    "velocity": 0.4094488188976378,
                    "duration": 0.3563207916666613
                },
                {
                    "name": "D#4",
                    "midi": 63,
                    "time": 238.13192600000053,
                    "velocity": 0.33858267716535434,
                    "duration": 0.3563207916666613
                },
                {
                    "name": "C#4",
                    "midi": 61,
                    "time": 238.46083750000054,
                    "velocity": 0.3228346456692913,
                    "duration": 0.3563207916666613
                },
                {
                    "name": "D#4",
                    "midi": 63,
                    "time": 238.78974900000054,
                    "velocity": 0.4015748031496063,
                    "duration": 0.3289115000000038
                },
                {
                    "name": "G#3",
                    "midi": 56,
                    "time": 239.11866050000054,
                    "velocity": 0.36220472440944884,
                    "duration": 1.3156459999999868
                },
                {
                    "name": "G#3",
                    "midi": 56,
                    "time": 242.73668700000053,
                    "velocity": 0.2677165354330709,
                    "duration": 0.6578230000000076
                },
                {
                    "name": "A#3",
                    "midi": 58,
                    "time": 242.73668700000053,
                    "velocity": 0.2677165354330709,
                    "duration": 0.6578230000000076
                },
                {
                    "name": "C#4",
                    "midi": 61,
                    "time": 242.73668700000053,
                    "velocity": 0.2677165354330709,
                    "duration": 0.6578230000000076
                },
                {
                    "name": "E4",
                    "midi": 64,
                    "time": 242.73668700000053,
                    "velocity": 0.2992125984251969,
                    "duration": 0.6578230000000076
                },
                {
                    "name": "G3",
                    "midi": 55,
                    "time": 243.72342150000054,
                    "velocity": 0.2677165354330709,
                    "duration": 0.6578230000000076
                },
                {
                    "name": "A#3",
                    "midi": 58,
                    "time": 243.72342150000054,
                    "velocity": 0.2677165354330709,
                    "duration": 0.6578230000000076
                },
                {
                    "name": "C#4",
                    "midi": 61,
                    "time": 243.72342150000054,
                    "velocity": 0.2677165354330709,
                    "duration": 0.6578230000000076
                },
                {
                    "name": "D#4",
                    "midi": 63,
                    "time": 243.72342150000054,
                    "velocity": 0.2992125984251969,
                    "duration": 0.6578230000000076
                },
                {
                    "name": "F#3",
                    "midi": 54,
                    "time": 246.68362500000055,
                    "velocity": 0.2677165354330709,
                    "duration": 0.6578230000000076
                },
                {
                    "name": "A3",
                    "midi": 57,
                    "time": 246.68362500000055,
                    "velocity": 0.2677165354330709,
                    "duration": 0.6578230000000076
                },
                {
                    "name": "D4",
                    "midi": 62,
                    "time": 246.68362500000055,
                    "velocity": 0.2992125984251969,
                    "duration": 0.6578230000000076
                },
                {
                    "name": "E3",
                    "midi": 52,
                    "time": 247.67035950000056,
                    "velocity": 0.2677165354330709,
                    "duration": 0.6578230000000076
                },
                {
                    "name": "G#3",
                    "midi": 56,
                    "time": 247.67035950000056,
                    "velocity": 0.2677165354330709,
                    "duration": 0.6578230000000076
                },
                {
                    "name": "C#4",
                    "midi": 61,
                    "time": 247.67035950000056,
                    "velocity": 0.2992125984251969,
                    "duration": 0.6578230000000076
                },
                {
                    "name": "G3",
                    "midi": 55,
                    "time": 248.65709400000057,
                    "velocity": 0.2992125984251969,
                    "duration": 0.3289115000000038
                },
                {
                    "name": "A#3",
                    "midi": 58,
                    "time": 248.65709400000057,
                    "velocity": 0.2992125984251969,
                    "duration": 0.3289115000000038
                },
                {
                    "name": "D#4",
                    "midi": 63,
                    "time": 250.30165150000056,
                    "velocity": 0.5354330708661418,
                    "duration": 0.3289115000000038
                },
                {
                    "name": "D#5",
                    "midi": 75,
                    "time": 250.30165150000056,
                    "velocity": 0.5354330708661418,
                    "duration": 0.3289115000000038
                },
                {
                    "name": "G#4",
                    "midi": 68,
                    "time": 250.63056300000056,
                    "velocity": 0.5748031496062992,
                    "duration": 1.9734689999999944
                },
                {
                    "name": "G#5",
                    "midi": 80,
                    "time": 250.63056300000056,
                    "velocity": 0.5748031496062992,
                    "duration": 1.9734689999999944
                }
            ],
            "controlChanges": {
                "7": [
                    {
                        "number": 7,
                        "time": 0,
                        "value": 1
                    }
                ],
                "10": [
                    {
                        "number": 10,
                        "time": 0,
                        "value": 0.5039370078740157
                    }
                ],
                "91": [
                    {
                        "number": 91,
                        "time": 0,
                        "value": 1
                    },
                    {
                        "number": 91,
                        "time": 0.001370464583333333,
                        "value": 1
                    }
                ]
            },
            "id": 1,
            "name": "Piano right",
            "instrumentNumber": 0,
            "instrument": "acoustic grand piano",
            "instrumentFamily": "piano",
            "channelNumber": 0,
            "isPercussion": false
        },
        {
            "startTime": 0.001370464583333333,
            "duration": 251.28838600000051,
            "length": 281,
            "notes": [
                {
                    "name": "F3",
                    "midi": 53,
                    "time": 0.001370464583333333,
                    "velocity": 0.4094488188976378,
                    "duration": 0.6578229999999999
                },
                {
                    "name": "D#3",
                    "midi": 51,
                    "time": 0.6578229999999999,
                    "velocity": 0.4015748031496063,
                    "duration": 0.6578229999999999
                },
                {
                    "name": "G#3",
                    "midi": 56,
                    "time": 1.3156459999999999,
                    "velocity": 0.3858267716535433,
                    "duration": 0.6578229999999998
                },
                {
                    "name": "A#3",
                    "midi": 58,
                    "time": 1.9734689999999997,
                    "velocity": 0.3543307086614173,
                    "duration": 0.3289114999999998
                },
                {
                    "name": "D#4",
                    "midi": 63,
                    "time": 2.3023804999999995,
                    "velocity": 0.3543307086614173,
                    "duration": 0.3289114999999998
                },
                {
                    "name": "C4",
                    "midi": 60,
                    "time": 2.6312919999999993,
                    "velocity": 0.3779527559055118,
                    "duration": 0.657823
                },
                {
                    "name": "A#3",
                    "midi": 58,
                    "time": 3.2891149999999993,
                    "velocity": 0.3464566929133858,
                    "duration": 0.3289114999999998
                },
                {
                    "name": "D#4",
                    "midi": 63,
                    "time": 3.618026499999999,
                    "velocity": 0.36220472440944884,
                    "duration": 0.3289114999999998
                },
                {
                    "name": "C4",
                    "midi": 60,
                    "time": 3.946937999999999,
                    "velocity": 0.33070866141732286,
                    "duration": 0.657823
                },
                {
                    "name": "G#3",
                    "midi": 56,
                    "time": 4.604760999999999,
                    "velocity": 0.3779527559055118,
                    "duration": 0.6578229999999996
                },
                {
                    "name": "A#3",
                    "midi": 58,
                    "time": 5.262583999999999,
                    "velocity": 0.36220472440944884,
                    "duration": 0.6578229999999996
                },
                {
                    "name": "F3",
                    "midi": 53,
                    "time": 5.920406999999998,
                    "velocity": 0.3779527559055118,
                    "duration": 0.6578229999999996
                },
                {
                    "name": "D#3",
                    "midi": 51,
                    "time": 6.578229999999998,
                    "velocity": 0.3779527559055118,
                    "duration": 0.6167090625
                },
                {
                    "name": "F3",
                    "midi": 53,
                    "time": 7.236052999999997,
                    "velocity": 0.4015748031496063,
                    "duration": 0.6578229999999996
                },
                {
                    "name": "D#3",
                    "midi": 51,
                    "time": 7.893875999999997,
                    "velocity": 0.4015748031496063,
                    "duration": 0.6578230000000005
                },
                {
                    "name": "G#3",
                    "midi": 56,
                    "time": 8.551698999999997,
                    "velocity": 0.4015748031496063,
                    "duration": 0.6578230000000005
                },
                {
                    "name": "A#3",
                    "midi": 58,
                    "time": 9.209521999999998,
                    "velocity": 0.4409448818897638,
                    "duration": 0.32891150000000025
                },
                {
                    "name": "D#4",
                    "midi": 63,
                    "time": 9.538433499999998,
                    "velocity": 0.4409448818897638,
                    "duration": 0.32891150000000025
                },
                {
                    "name": "C4",
                    "midi": 60,
                    "time": 9.867344999999998,
                    "velocity": 0.4330708661417323,
                    "duration": 0.6578230000000005
                },
                {
                    "name": "A#3",
                    "midi": 58,
                    "time": 10.525167999999999,
                    "velocity": 0.4645669291338583,
                    "duration": 0.32891150000000025
                },
                {
                    "name": "D#4",
                    "midi": 63,
                    "time": 10.8540795,
                    "velocity": 0.4409448818897638,
                    "duration": 0.32891150000000025
                },
                {
                    "name": "C4",
                    "midi": 60,
                    "time": 11.182991,
                    "velocity": 0.4566929133858268,
                    "duration": 0.6578230000000005
                },
                {
                    "name": "G#3",
                    "midi": 56,
                    "time": 11.840814,
                    "velocity": 0.3464566929133858,
                    "duration": 0.6578230000000005
                },
                {
                    "name": "A#3",
                    "midi": 58,
                    "time": 12.498637,
                    "velocity": 0.3543307086614173,
                    "duration": 0.6578230000000005
                },
                {
                    "name": "F3",
                    "midi": 53,
                    "time": 13.156460000000001,
                    "velocity": 0.3228346456692913,
                    "duration": 0.6578230000000005
                },
                {
                    "name": "D#3",
                    "midi": 51,
                    "time": 13.814283000000001,
                    "velocity": 0.2992125984251969,
                    "duration": 0.32891150000000025
                },
                {
                    "name": "D#3",
                    "midi": 51,
                    "time": 14.472106000000002,
                    "velocity": 0.4094488188976378,
                    "duration": 0.6578230000000005
                },
                {
                    "name": "F3",
                    "midi": 53,
                    "time": 15.129929000000002,
                    "velocity": 0.4015748031496063,
                    "duration": 0.6578230000000005
                },
                {
                    "name": "C3",
                    "midi": 48,
                    "time": 15.787752000000003,
                    "velocity": 0.3858267716535433,
                    "duration": 0.6578229999999987
                },
                {
                    "name": "D#3",
                    "midi": 51,
                    "time": 16.445575,
                    "velocity": 0.3779527559055118,
                    "duration": 0.36180265000000134
                },
                {
                    "name": "F3",
                    "midi": 53,
                    "time": 16.774486500000002,
                    "velocity": 0.33070866141732286,
                    "duration": 0.32891150000000025
                },
                {
                    "name": "A#2",
                    "midi": 46,
                    "time": 17.103398000000002,
                    "velocity": 0.3700787401574803,
                    "duration": 0.6578230000000005
                },
                {
                    "name": "F3",
                    "midi": 53,
                    "time": 17.761221000000003,
                    "velocity": 0.3464566929133858,
                    "duration": 0.36180265000000134
                },
                {
                    "name": "G3",
                    "midi": 55,
                    "time": 18.090132500000003,
                    "velocity": 0.3228346456692913,
                    "duration": 0.32891150000000025
                },
                {
                    "name": "D#3",
                    "midi": 51,
                    "time": 18.419044000000003,
                    "velocity": 0.33070866141732286,
                    "duration": 0.6167090625
                },
                {
                    "name": "D#4",
                    "midi": 63,
                    "time": 19.076867000000004,
                    "velocity": 0.44881889763779526,
                    "duration": 0.6578230000000005
                },
                {
                    "name": "C4",
                    "midi": 60,
                    "time": 19.734690000000004,
                    "velocity": 0.4094488188976378,
                    "duration": 0.6578230000000005
                },
                {
                    "name": "A#3",
                    "midi": 58,
                    "time": 20.392513000000005,
                    "velocity": 0.41732283464566927,
                    "duration": 0.36180265000000134
                },
                {
                    "name": "G#3",
                    "midi": 56,
                    "time": 20.721424500000005,
                    "velocity": 0.3779527559055118,
                    "duration": 0.32891150000000025
                },
                {
                    "name": "D#3",
                    "midi": 51,
                    "time": 21.050336000000005,
                    "velocity": 0.3779527559055118,
                    "duration": 0.6167090625
                },
                {
                    "name": "D#3",
                    "midi": 51,
                    "time": 21.708159000000006,
                    "velocity": 0.4409448818897638,
                    "duration": 0.6578230000000005
                },
                {
                    "name": "F3",
                    "midi": 53,
                    "time": 22.365982000000006,
                    "velocity": 0.41732283464566927,
                    "duration": 0.6578230000000005
                },
                {
                    "name": "C3",
                    "midi": 48,
                    "time": 23.023805000000007,
                    "velocity": 0.4015748031496063,
                    "duration": 0.6578230000000005
                },
                {
                    "name": "D#3",
                    "midi": 51,
                    "time": 23.681628000000007,
                    "velocity": 0.4015748031496063,
                    "duration": 0.36180265000000134
                },
                {
                    "name": "F3",
                    "midi": 53,
                    "time": 24.010539500000007,
                    "velocity": 0.3700787401574803,
                    "duration": 0.32891150000000025
                },
                {
                    "name": "A#2",
                    "midi": 46,
                    "time": 24.339451000000007,
                    "velocity": 0.41732283464566927,
                    "duration": 0.6578230000000005
                },
                {
                    "name": "F3",
                    "midi": 53,
                    "time": 24.997274000000008,
                    "velocity": 0.4015748031496063,
                    "duration": 0.36180265000000134
                },
                {
                    "name": "G3",
                    "midi": 55,
                    "time": 25.32618550000001,
                    "velocity": 0.3700787401574803,
                    "duration": 0.32891150000000025
                },
                {
                    "name": "D#3",
                    "midi": 51,
                    "time": 25.65509700000001,
                    "velocity": 0.4015748031496063,
                    "duration": 0.6167090625
                },
                {
                    "name": "D#4",
                    "midi": 63,
                    "time": 26.31292000000001,
                    "velocity": 0.4409448818897638,
                    "duration": 0.6578230000000005
                },
                {
                    "name": "C4",
                    "midi": 60,
                    "time": 26.97074300000001,
                    "velocity": 0.3937007874015748,
                    "duration": 0.6578230000000005
                },
                {
                    "name": "A#3",
                    "midi": 58,
                    "time": 27.62856600000001,
                    "velocity": 0.3858267716535433,
                    "duration": 0.36180265000000134
                },
                {
                    "name": "G#3",
                    "midi": 56,
                    "time": 27.95747750000001,
                    "velocity": 0.33070866141732286,
                    "duration": 0.32891150000000025
                },
                {
                    "name": "D#3",
                    "midi": 51,
                    "time": 28.28638900000001,
                    "velocity": 0.3779527559055118,
                    "duration": 0.32891150000000025
                },
                {
                    "name": "D#3",
                    "midi": 51,
                    "time": 28.94421200000001,
                    "velocity": 0.41732283464566927,
                    "duration": 1.973468999999998
                },
                {
                    "name": "G#2",
                    "midi": 44,
                    "time": 30.91768100000001,
                    "velocity": 0.4409448818897638,
                    "duration": 1.315646000000001
                },
                {
                    "name": "D#2",
                    "midi": 39,
                    "time": 32.23332700000001,
                    "velocity": 0.4409448818897638,
                    "duration": 1.9734690000000015
                },
                {
                    "name": "G#1",
                    "midi": 32,
                    "time": 34.20679600000001,
                    "velocity": 0.4015748031496063,
                    "duration": 1.315646000000001
                },
                {
                    "name": "G#3",
                    "midi": 56,
                    "time": 36.18026500000001,
                    "velocity": 0.2755905511811024,
                    "duration": 0.6578230000000005
                },
                {
                    "name": "C#4",
                    "midi": 61,
                    "time": 36.18026500000001,
                    "velocity": 0.2755905511811024,
                    "duration": 0.6578230000000005
                },
                {
                    "name": "F4",
                    "midi": 65,
                    "time": 36.18026500000001,
                    "velocity": 0.33070866141732286,
                    "duration": 0.6578230000000005
                },
                {
                    "name": "A#3",
                    "midi": 58,
                    "time": 36.83808800000001,
                    "velocity": 0.2992125984251969,
                    "duration": 0.6578230000000005
                },
                {
                    "name": "D#4",
                    "midi": 63,
                    "time": 36.83808800000001,
                    "velocity": 0.3543307086614173,
                    "duration": 0.6578230000000005
                },
                {
                    "name": "G3",
                    "midi": 55,
                    "time": 36.83808800000001,
                    "velocity": 0.2992125984251969,
                    "duration": 0.6578230000000005
                },
                {
                    "name": "D#4",
                    "midi": 63,
                    "time": 37.495911000000014,
                    "velocity": 0.2677165354330709,
                    "duration": 0.6578230000000005
                },
                {
                    "name": "G#4",
                    "midi": 68,
                    "time": 37.495911000000014,
                    "velocity": 0.31496062992125984,
                    "duration": 0.6578230000000005
                },
                {
                    "name": "C4",
                    "midi": 60,
                    "time": 37.495911000000014,
                    "velocity": 0.2677165354330709,
                    "duration": 0.6578230000000005
                },
                {
                    "name": "D#4",
                    "midi": 63,
                    "time": 38.153734000000014,
                    "velocity": 0.2677165354330709,
                    "duration": 0.9867344999999901
                },
                {
                    "name": "A#4",
                    "midi": 70,
                    "time": 38.153734000000014,
                    "velocity": 0.31496062992125984,
                    "duration": 0.3289114999999967
                },
                {
                    "name": "G4",
                    "midi": 67,
                    "time": 38.153734000000014,
                    "velocity": 0.2677165354330709,
                    "duration": 0.6578229999999934
                },
                {
                    "name": "D#5",
                    "midi": 75,
                    "time": 38.48264550000001,
                    "velocity": 0.2677165354330709,
                    "duration": 0.3289114999999967
                },
                {
                    "name": "G#4",
                    "midi": 68,
                    "time": 38.81155700000001,
                    "velocity": 0.2755905511811024,
                    "duration": 0.3289114999999967
                },
                {
                    "name": "C5",
                    "midi": 72,
                    "time": 38.81155700000001,
                    "velocity": 0.33070866141732286,
                    "duration": 0.3289114999999967
                },
                {
                    "name": "F4",
                    "midi": 65,
                    "time": 39.46938,
                    "velocity": 0.25984251968503935,
                    "duration": 0.6578229999999934
                },
                {
                    "name": "A#4",
                    "midi": 70,
                    "time": 39.46938,
                    "velocity": 0.30708661417322836,
                    "duration": 0.3289114999999967
                },
                {
                    "name": "C#4",
                    "midi": 61,
                    "time": 39.46938,
                    "velocity": 0.25984251968503935,
                    "duration": 0.6578229999999934
                },
                {
                    "name": "D#5",
                    "midi": 75,
                    "time": 39.7982915,
                    "velocity": 0.2677165354330709,
                    "duration": 0.3289114999999967
                },
                {
                    "name": "G4",
                    "midi": 67,
                    "time": 40.127202999999994,
                    "velocity": 0.25196850393700787,
                    "duration": 0.6578230000000005
                },
                {
                    "name": "C5",
                    "midi": 72,
                    "time": 40.127202999999994,
                    "velocity": 0.2992125984251969,
                    "duration": 0.6578230000000005
                },
                {
                    "name": "D#4",
                    "midi": 63,
                    "time": 40.127202999999994,
                    "velocity": 0.25196850393700787,
                    "duration": 0.6578230000000005
                },
                {
                    "name": "C4",
                    "midi": 60,
                    "time": 40.785025999999995,
                    "velocity": 0.2204724409448819,
                    "duration": 0.6578230000000005
                },
                {
                    "name": "D#4",
                    "midi": 63,
                    "time": 40.785025999999995,
                    "velocity": 0.2204724409448819,
                    "duration": 0.6578230000000005
                },
                {
                    "name": "G#4",
                    "midi": 68,
                    "time": 40.785025999999995,
                    "velocity": 0.2677165354330709,
                    "duration": 0.6578230000000005
                },
                {
                    "name": "F4",
                    "midi": 65,
                    "time": 41.442848999999995,
                    "velocity": 0.2283464566929134,
                    "duration": 0.6578230000000005
                },
                {
                    "name": "A#4",
                    "midi": 70,
                    "time": 41.442848999999995,
                    "velocity": 0.2755905511811024,
                    "duration": 0.6578230000000005
                },
                {
                    "name": "D4",
                    "midi": 62,
                    "time": 41.442848999999995,
                    "velocity": 0.2283464566929134,
                    "duration": 0.6578230000000005
                },
                {
                    "name": "A#3",
                    "midi": 58,
                    "time": 42.100671999999996,
                    "velocity": 0.2125984251968504,
                    "duration": 0.6578230000000005
                },
                {
                    "name": "F4",
                    "midi": 65,
                    "time": 42.100671999999996,
                    "velocity": 0.25196850393700787,
                    "duration": 0.6578230000000005
                },
                {
                    "name": "D4",
                    "midi": 62,
                    "time": 42.100671999999996,
                    "velocity": 0.2125984251968504,
                    "duration": 0.6578230000000005
                },
                {
                    "name": "G3",
                    "midi": 55,
                    "time": 42.758494999999996,
                    "velocity": 0.2047244094488189,
                    "duration": 0.3289114999999967
                },
                {
                    "name": "A#3",
                    "midi": 58,
                    "time": 42.758494999999996,
                    "velocity": 0.2047244094488189,
                    "duration": 0.3289114999999967
                },
                {
                    "name": "D#4",
                    "midi": 63,
                    "time": 42.758494999999996,
                    "velocity": 0.2440944881889764,
                    "duration": 0.3289114999999967
                },
                {
                    "name": "D#3",
                    "midi": 51,
                    "time": 57.23060099999999,
                    "velocity": 0.3228346456692913,
                    "duration": 2.9602034999999987
                },
                {
                    "name": "E3",
                    "midi": 52,
                    "time": 60.19080449999999,
                    "velocity": 0.3228346456692913,
                    "duration": 0.9867344999999972
                },
                {
                    "name": "D#3",
                    "midi": 51,
                    "time": 61.17753899999999,
                    "velocity": 0.3228346456692913,
                    "duration": 2.9602034999999987
                },
                {
                    "name": "E3",
                    "midi": 52,
                    "time": 64.13774249999999,
                    "velocity": 0.3228346456692913,
                    "duration": 0.9867344999999972
                },
                {
                    "name": "D#3",
                    "midi": 51,
                    "time": 65.12447699999998,
                    "velocity": 0.3228346456692913,
                    "duration": 1.9734689999999944
                },
                {
                    "name": "E3",
                    "midi": 52,
                    "time": 67.09794599999998,
                    "velocity": 0.3228346456692913,
                    "duration": 1.9734689999999944
                },
                {
                    "name": "D#3",
                    "midi": 51,
                    "time": 69.07141499999997,
                    "velocity": 0.3543307086614173,
                    "duration": 0.5207765416666774
                },
                {
                    "name": "E3",
                    "midi": 52,
                    "time": 69.56478224999998,
                    "velocity": 0.2992125984251969,
                    "duration": 0.19186504166667362
                },
                {
                    "name": "D#3",
                    "midi": 51,
                    "time": 69.72923799999998,
                    "velocity": 0.33858267716535434,
                    "duration": 0.3289115000000038
                },
                {
                    "name": "F#3",
                    "midi": 54,
                    "time": 70.05814949999998,
                    "velocity": 0.3543307086614173,
                    "duration": 0.3563207916666755
                },
                {
                    "name": "E3",
                    "midi": 52,
                    "time": 70.38706099999999,
                    "velocity": 0.33858267716535434,
                    "duration": 0.3563207916666755
                },
                {
                    "name": "D#3",
                    "midi": 51,
                    "time": 70.71597249999999,
                    "velocity": 0.3543307086614173,
                    "duration": 0.3289115000000038
                },
                {
                    "name": "C#3",
                    "midi": 49,
                    "time": 71.044884,
                    "velocity": 0.3543307086614173,
                    "duration": 0.5207765416666774
                },
                {
                    "name": "D#3",
                    "midi": 51,
                    "time": 71.53825125,
                    "velocity": 0.33858267716535434,
                    "duration": 0.19186504166667362
                },
                {
                    "name": "C#3",
                    "midi": 49,
                    "time": 71.702707,
                    "velocity": 0.33858267716535434,
                    "duration": 0.3289115000000038
                },
                {
                    "name": "E3",
                    "midi": 52,
                    "time": 72.03161850000001,
                    "velocity": 0.3700787401574803,
                    "duration": 0.3563207916666755
                },
                {
                    "name": "D#3",
                    "midi": 51,
                    "time": 72.36053000000001,
                    "velocity": 0.33858267716535434,
                    "duration": 0.3563207916666755
                },
                {
                    "name": "C#3",
                    "midi": 49,
                    "time": 72.68944150000002,
                    "velocity": 0.30708661417322836,
                    "duration": 0.3289115000000038
                },
                {
                    "name": "B2",
                    "midi": 47,
                    "time": 73.01835300000002,
                    "velocity": 0.3543307086614173,
                    "duration": 0.6852322916666651
                },
                {
                    "name": "C#3",
                    "midi": 49,
                    "time": 73.67617600000001,
                    "velocity": 0.33070866141732286,
                    "duration": 0.3563207916666755
                },
                {
                    "name": "D#3",
                    "midi": 51,
                    "time": 74.00508750000002,
                    "velocity": 0.3700787401574803,
                    "duration": 0.3563207916666755
                },
                {
                    "name": "C#3",
                    "midi": 49,
                    "time": 74.33399900000002,
                    "velocity": 0.33070866141732286,
                    "duration": 0.3563207916666755
                },
                {
                    "name": "B2",
                    "midi": 47,
                    "time": 74.66291050000002,
                    "velocity": 0.31496062992125984,
                    "duration": 0.3289115000000038
                },
                {
                    "name": "A#2",
                    "midi": 46,
                    "time": 74.99182200000003,
                    "velocity": 0.33858267716535434,
                    "duration": 0.5207765416666774
                },
                {
                    "name": "B2",
                    "midi": 47,
                    "time": 75.48518925000003,
                    "velocity": 0.2992125984251969,
                    "duration": 0.19186504166667362
                },
                {
                    "name": "A#2",
                    "midi": 46,
                    "time": 75.64964500000004,
                    "velocity": 0.3543307086614173,
                    "duration": 0.3289115000000038
                },
                {
                    "name": "C#3",
                    "midi": 49,
                    "time": 75.97855650000004,
                    "velocity": 0.36220472440944884,
                    "duration": 0.3563207916666755
                },
                {
                    "name": "B2",
                    "midi": 47,
                    "time": 76.30746800000004,
                    "velocity": 0.33070866141732286,
                    "duration": 0.3563207916666755
                },
                {
                    "name": "A#2",
                    "midi": 46,
                    "time": 76.63637950000005,
                    "velocity": 0.31496062992125984,
                    "duration": 0.3289115000000038
                },
                {
                    "name": "B2",
                    "midi": 47,
                    "time": 76.96529100000005,
                    "velocity": 0.33070866141732286,
                    "duration": 0.9867344999999972
                },
                {
                    "name": "D#3",
                    "midi": 51,
                    "time": 78.93876000000004,
                    "velocity": 0.3228346456692913,
                    "duration": 2.9602035000000058
                },
                {
                    "name": "E3",
                    "midi": 52,
                    "time": 81.89896350000005,
                    "velocity": 0.3228346456692913,
                    "duration": 0.9867344999999972
                },
                {
                    "name": "D#3",
                    "midi": 51,
                    "time": 82.88569800000005,
                    "velocity": 0.3228346456692913,
                    "duration": 0.9867344999999972
                },
                {
                    "name": "G#3",
                    "midi": 56,
                    "time": 83.87243250000004,
                    "velocity": 0.3228346456692913,
                    "duration": 1.9734689999999944
                },
                {
                    "name": "E3",
                    "midi": 52,
                    "time": 85.84590150000004,
                    "velocity": 0.3228346456692913,
                    "duration": 0.9867344999999972
                },
                {
                    "name": "D#3",
                    "midi": 51,
                    "time": 86.83263600000004,
                    "velocity": 0.3228346456692913,
                    "duration": 1.9734689999999944
                },
                {
                    "name": "C3",
                    "midi": 48,
                    "time": 88.80610500000003,
                    "velocity": 0.3228346456692913,
                    "duration": 1.9734689999999944
                },
                {
                    "name": "C#3",
                    "midi": 49,
                    "time": 90.77957400000003,
                    "velocity": 0.2992125984251969,
                    "duration": 0.9867344999999972
                },
                {
                    "name": "D#3",
                    "midi": 51,
                    "time": 91.76630850000002,
                    "velocity": 0.31496062992125984,
                    "duration": 0.9867344999999972
                },
                {
                    "name": "E3",
                    "midi": 52,
                    "time": 92.75304300000002,
                    "velocity": 0.31496062992125984,
                    "duration": 0.9867344999999972
                },
                {
                    "name": "D#3",
                    "midi": 51,
                    "time": 93.73977750000002,
                    "velocity": 0.2992125984251969,
                    "duration": 4.604760999999996
                },
                {
                    "name": "C#3",
                    "midi": 49,
                    "time": 98.67345000000002,
                    "velocity": 0.2755905511811024,
                    "duration": 0.9867344999999972
                },
                {
                    "name": "E3",
                    "midi": 52,
                    "time": 98.67345000000002,
                    "velocity": 0.2755905511811024,
                    "duration": 0.9867344999999972
                },
                {
                    "name": "D#3",
                    "midi": 51,
                    "time": 99.66018450000001,
                    "velocity": 0.25984251968503935,
                    "duration": 0.9867344999999972
                },
                {
                    "name": "F#3",
                    "midi": 54,
                    "time": 99.66018450000001,
                    "velocity": 0.25984251968503935,
                    "duration": 0.9867344999999972
                },
                {
                    "name": "C#3",
                    "midi": 49,
                    "time": 100.64691900000001,
                    "velocity": 0.2755905511811024,
                    "duration": 0.9867344999999972
                },
                {
                    "name": "E3",
                    "midi": 52,
                    "time": 100.64691900000001,
                    "velocity": 0.2755905511811024,
                    "duration": 0.9867344999999972
                },
                {
                    "name": "D#3",
                    "midi": 51,
                    "time": 101.63365350000001,
                    "velocity": 0.25196850393700787,
                    "duration": 0.9867344999999972
                },
                {
                    "name": "F#3",
                    "midi": 54,
                    "time": 101.63365350000001,
                    "velocity": 0.25196850393700787,
                    "duration": 0.9867344999999972
                },
                {
                    "name": "C#3",
                    "midi": 49,
                    "time": 102.620388,
                    "velocity": 0.2755905511811024,
                    "duration": 0.9867344999999972
                },
                {
                    "name": "E3",
                    "midi": 52,
                    "time": 102.620388,
                    "velocity": 0.2755905511811024,
                    "duration": 0.9867344999999972
                },
                {
                    "name": "D3",
                    "midi": 50,
                    "time": 103.6071225,
                    "velocity": 0.2755905511811024,
                    "duration": 2.9602035000000058
                },
                {
                    "name": "F#3",
                    "midi": 54,
                    "time": 103.6071225,
                    "velocity": 0.2755905511811024,
                    "duration": 2.9602035000000058
                },
                {
                    "name": "E3",
                    "midi": 52,
                    "time": 106.56732600000001,
                    "velocity": 0.29133858267716534,
                    "duration": 0.9867344999999972
                },
                {
                    "name": "G#3",
                    "midi": 56,
                    "time": 106.56732600000001,
                    "velocity": 0.29133858267716534,
                    "duration": 0.9867344999999972
                },
                {
                    "name": "C#3",
                    "midi": 49,
                    "time": 107.5540605,
                    "velocity": 0.30708661417322836,
                    "duration": 0.9867344999999972
                },
                {
                    "name": "E3",
                    "midi": 52,
                    "time": 107.5540605,
                    "velocity": 0.30708661417322836,
                    "duration": 0.9867344999999972
                },
                {
                    "name": "D#3",
                    "midi": 51,
                    "time": 108.540795,
                    "velocity": 0.28346456692913385,
                    "duration": 0.9867344999999972
                },
                {
                    "name": "F#3",
                    "midi": 54,
                    "time": 108.540795,
                    "velocity": 0.28346456692913385,
                    "duration": 0.9867344999999972
                },
                {
                    "name": "E3",
                    "midi": 52,
                    "time": 109.5275295,
                    "velocity": 0.25984251968503935,
                    "duration": 0.9867344999999972
                },
                {
                    "name": "G#3",
                    "midi": 56,
                    "time": 109.5275295,
                    "velocity": 0.25984251968503935,
                    "duration": 0.9867344999999972
                },
                {
                    "name": "D#3",
                    "midi": 51,
                    "time": 110.514264,
                    "velocity": 0.31496062992125984,
                    "duration": 1.9734689999999944
                },
                {
                    "name": "G3",
                    "midi": 55,
                    "time": 112.48773299999999,
                    "velocity": 0.25984251968503935,
                    "duration": 1.9734689999999944
                },
                {
                    "name": "G#3",
                    "midi": 56,
                    "time": 114.46120199999999,
                    "velocity": 0.25984251968503935,
                    "duration": 1.6445575000000048
                },
                {
                    "name": "C#3",
                    "midi": 49,
                    "time": 116.434671,
                    "velocity": 0.2755905511811024,
                    "duration": 0.9867344999999972
                },
                {
                    "name": "E3",
                    "midi": 52,
                    "time": 116.434671,
                    "velocity": 0.2755905511811024,
                    "duration": 0.9867344999999972
                },
                {
                    "name": "D#3",
                    "midi": 51,
                    "time": 117.42140549999999,
                    "velocity": 0.25984251968503935,
                    "duration": 0.9867344999999972
                },
                {
                    "name": "F#3",
                    "midi": 54,
                    "time": 117.42140549999999,
                    "velocity": 0.25984251968503935,
                    "duration": 0.9867344999999972
                },
                {
                    "name": "C#3",
                    "midi": 49,
                    "time": 118.40813999999999,
                    "velocity": 0.2755905511811024,
                    "duration": 0.9867344999999972
                },
                {
                    "name": "E3",
                    "midi": 52,
                    "time": 118.40813999999999,
                    "velocity": 0.2755905511811024,
                    "duration": 0.9867344999999972
                },
                {
                    "name": "D#3",
                    "midi": 51,
                    "time": 119.39487449999999,
                    "velocity": 0.25196850393700787,
                    "duration": 0.9867344999999972
                },
                {
                    "name": "F#3",
                    "midi": 54,
                    "time": 119.39487449999999,
                    "velocity": 0.25196850393700787,
                    "duration": 0.9867344999999972
                },
                {
                    "name": "C#3",
                    "midi": 49,
                    "time": 120.38160899999998,
                    "velocity": 0.2755905511811024,
                    "duration": 0.9867344999999972
                },
                {
                    "name": "E3",
                    "midi": 52,
                    "time": 120.38160899999998,
                    "velocity": 0.2755905511811024,
                    "duration": 0.9867344999999972
                },
                {
                    "name": "D3",
                    "midi": 50,
                    "time": 121.36834349999998,
                    "velocity": 0.2755905511811024,
                    "duration": 2.9602035000000058
                },
                {
                    "name": "F#3",
                    "midi": 54,
                    "time": 121.36834349999998,
                    "velocity": 0.2755905511811024,
                    "duration": 2.9602035000000058
                },
                {
                    "name": "E3",
                    "midi": 52,
                    "time": 124.32854699999999,
                    "velocity": 0.29133858267716534,
                    "duration": 0.9867344999999972
                },
                {
                    "name": "G#3",
                    "midi": 56,
                    "time": 124.32854699999999,
                    "velocity": 0.29133858267716534,
                    "duration": 0.9867344999999972
                },
                {
                    "name": "C#3",
                    "midi": 49,
                    "time": 125.31528149999998,
                    "velocity": 0.2755905511811024,
                    "duration": 0.9867344999999972
                },
                {
                    "name": "E3",
                    "midi": 52,
                    "time": 125.31528149999998,
                    "velocity": 0.2755905511811024,
                    "duration": 0.9867344999999972
                },
                {
                    "name": "D#3",
                    "midi": 51,
                    "time": 126.30201599999998,
                    "velocity": 0.2755905511811024,
                    "duration": 0.9867344999999972
                },
                {
                    "name": "F#3",
                    "midi": 54,
                    "time": 126.30201599999998,
                    "velocity": 0.2755905511811024,
                    "duration": 0.9867344999999972
                },
                {
                    "name": "E3",
                    "midi": 52,
                    "time": 127.28875049999998,
                    "velocity": 0.25984251968503935,
                    "duration": 0.9867344999999972
                },
                {
                    "name": "G#3",
                    "midi": 56,
                    "time": 127.28875049999998,
                    "velocity": 0.25984251968503935,
                    "duration": 0.9867344999999972
                },
                {
                    "name": "G3",
                    "midi": 55,
                    "time": 128.27548499999997,
                    "velocity": 0.31496062992125984,
                    "duration": 1.9734689999999944
                },
                {
                    "name": "D#3",
                    "midi": 51,
                    "time": 130.24895399999997,
                    "velocity": 0.25984251968503935,
                    "duration": 1.9734689999999944
                },
                {
                    "name": "D#3",
                    "midi": 51,
                    "time": 132.22242299999996,
                    "velocity": 0.3543307086614173,
                    "duration": 0.5207765416666632
                },
                {
                    "name": "E3",
                    "midi": 52,
                    "time": 132.71579024999997,
                    "velocity": 0.2992125984251969,
                    "duration": 0.1918650416666594
                },
                {
                    "name": "D#3",
                    "midi": 51,
                    "time": 132.88024599999997,
                    "velocity": 0.33858267716535434,
                    "duration": 0.3289115000000038
                },
                {
                    "name": "F#3",
                    "midi": 54,
                    "time": 133.20915749999998,
                    "velocity": 0.3543307086614173,
                    "duration": 0.3563207916666613
                },
                {
                    "name": "E3",
                    "midi": 52,
                    "time": 133.53806899999998,
                    "velocity": 0.33858267716535434,
                    "duration": 0.3563207916666613
                },
                {
                    "name": "D#3",
                    "midi": 51,
                    "time": 133.86698049999998,
                    "velocity": 0.3543307086614173,
                    "duration": 0.3289115000000038
                },
                {
                    "name": "C#3",
                    "midi": 49,
                    "time": 134.195892,
                    "velocity": 0.3543307086614173,
                    "duration": 0.5207765416666632
                },
                {
                    "name": "D#3",
                    "midi": 51,
                    "time": 134.68925925,
                    "velocity": 0.33858267716535434,
                    "duration": 0.1918650416666594
                },
                {
                    "name": "C#3",
                    "midi": 49,
                    "time": 134.853715,
                    "velocity": 0.33858267716535434,
                    "duration": 0.3289115000000038
                },
                {
                    "name": "E3",
                    "midi": 52,
                    "time": 135.1826265,
                    "velocity": 0.3700787401574803,
                    "duration": 0.3563207916666613
                },
                {
                    "name": "D#3",
                    "midi": 51,
                    "time": 135.511538,
                    "velocity": 0.33858267716535434,
                    "duration": 0.3563207916666613
                },
                {
                    "name": "C#3",
                    "midi": 49,
                    "time": 135.8404495,
                    "velocity": 0.30708661417322836,
                    "duration": 0.3289115000000038
                },
                {
                    "name": "B2",
                    "midi": 47,
                    "time": 136.169361,
                    "velocity": 0.3543307086614173,
                    "duration": 0.6852322916666651
                },
                {
                    "name": "C#3",
                    "midi": 49,
                    "time": 136.82718400000002,
                    "velocity": 0.33070866141732286,
                    "duration": 0.3563207916666613
                },
                {
                    "name": "D#3",
                    "midi": 51,
                    "time": 137.15609550000002,
                    "velocity": 0.3700787401574803,
                    "duration": 0.3563207916666613
                },
                {
                    "name": "C#3",
                    "midi": 49,
                    "time": 137.48500700000002,
                    "velocity": 0.33070866141732286,
                    "duration": 0.3563207916666613
                },
                {
                    "name": "B2",
                    "midi": 47,
                    "time": 137.81391850000003,
                    "velocity": 0.31496062992125984,
                    "duration": 0.3289115000000038
                },
                {
                    "name": "A#2",
                    "midi": 46,
                    "time": 138.14283000000003,
                    "velocity": 0.33858267716535434,
                    "duration": 0.5207765416666632
                },
                {
                    "name": "B2",
                    "midi": 47,
                    "time": 138.63619725000004,
                    "velocity": 0.2992125984251969,
                    "duration": 0.1918650416666594
                },
                {
                    "name": "A#2",
                    "midi": 46,
                    "time": 138.80065300000004,
                    "velocity": 0.3543307086614173,
                    "duration": 0.3289115000000038
                },
                {
                    "name": "C#3",
                    "midi": 49,
                    "time": 139.12956450000004,
                    "velocity": 0.36220472440944884,
                    "duration": 0.3563207916666613
                },
                {
                    "name": "B2",
                    "midi": 47,
                    "time": 139.45847600000005,
                    "velocity": 0.33070866141732286,
                    "duration": 0.3563207916666613
                },
                {
                    "name": "A#2",
                    "midi": 46,
                    "time": 139.78738750000005,
                    "velocity": 0.31496062992125984,
                    "duration": 0.3289115000000038
                },
                {
                    "name": "B2",
                    "midi": 47,
                    "time": 140.11629900000005,
                    "velocity": 0.33070866141732286,
                    "duration": 0.9867345000000114
                },
                {
                    "name": "D#3",
                    "midi": 51,
                    "time": 142.08976800000008,
                    "velocity": 0.3228346456692913,
                    "duration": 2.9602035000000058
                },
                {
                    "name": "E3",
                    "midi": 52,
                    "time": 145.04997150000008,
                    "velocity": 0.3228346456692913,
                    "duration": 0.9867345000000114
                },
                {
                    "name": "D#3",
                    "midi": 51,
                    "time": 146.0367060000001,
                    "velocity": 0.3228346456692913,
                    "duration": 0.9867345000000114
                },
                {
                    "name": "G#3",
                    "midi": 56,
                    "time": 147.0234405000001,
                    "velocity": 0.31496062992125984,
                    "duration": 1.9734689999999944
                },
                {
                    "name": "C4",
                    "midi": 60,
                    "time": 149.9836440000001,
                    "velocity": 0.3228346456692913,
                    "duration": 1.9734689999999944
                },
                {
                    "name": "A#3",
                    "midi": 58,
                    "time": 151.9571130000001,
                    "velocity": 0.3228346456692913,
                    "duration": 1.9734689999999944
                },
                {
                    "name": "A3",
                    "midi": 57,
                    "time": 153.9305820000001,
                    "velocity": 0.3228346456692913,
                    "duration": 1.9734689999999944
                },
                {
                    "name": "G#3",
                    "midi": 56,
                    "time": 155.9040510000001,
                    "velocity": 0.3228346456692913,
                    "duration": 1.9734689999999944
                },
                {
                    "name": "F#3",
                    "midi": 54,
                    "time": 157.8775200000001,
                    "velocity": 0.3228346456692913,
                    "duration": 3.9469379999999887
                },
                {
                    "name": "F3",
                    "midi": 53,
                    "time": 161.82445800000008,
                    "velocity": 0.28346456692913385,
                    "duration": 0.9867345000000114
                },
                {
                    "name": "E3",
                    "midi": 52,
                    "time": 162.8111925000001,
                    "velocity": 0.28346456692913385,
                    "duration": 0.9867345000000114
                },
                {
                    "name": "F3",
                    "midi": 53,
                    "time": 163.7979270000001,
                    "velocity": 0.28346456692913385,
                    "duration": 0.9867345000000114
                },
                {
                    "name": "E3",
                    "midi": 52,
                    "time": 164.7846615000001,
                    "velocity": 0.28346456692913385,
                    "duration": 0.9867345000000114
                },
                {
                    "name": "F3",
                    "midi": 53,
                    "time": 165.77139600000012,
                    "velocity": 0.28346456692913385,
                    "duration": 1.9734689999999944
                },
                {
                    "name": "E3",
                    "midi": 52,
                    "time": 167.74486500000012,
                    "velocity": 0.28346456692913385,
                    "duration": 0.9867345000000114
                },
                {
                    "name": "C#3",
                    "midi": 49,
                    "time": 168.73159950000013,
                    "velocity": 0.33858267716535434,
                    "duration": 0.9867345000000114
                },
                {
                    "name": "D#3",
                    "midi": 51,
                    "time": 169.71833400000014,
                    "velocity": 0.33070866141732286,
                    "duration": 0.9867345000000114
                },
                {
                    "name": "G#3",
                    "midi": 56,
                    "time": 170.70506850000015,
                    "velocity": 0.31496062992125984,
                    "duration": 0.9867345000000114
                },
                {
                    "name": "D#3",
                    "midi": 51,
                    "time": 171.69180300000016,
                    "velocity": 0.31496062992125984,
                    "duration": 0.9867345000000114
                },
                {
                    "name": "G3",
                    "midi": 55,
                    "time": 172.67853750000017,
                    "velocity": 0.31496062992125984,
                    "duration": 0.9867345000000114
                },
                {
                    "name": "D#3",
                    "midi": 51,
                    "time": 173.6652720000002,
                    "velocity": 0.25984251968503935,
                    "duration": 0.9867345000000114
                },
                {
                    "name": "G3",
                    "midi": 55,
                    "time": 174.6520065000002,
                    "velocity": 0.25984251968503935,
                    "duration": 0.9867345000000114
                },
                {
                    "name": "D#3",
                    "midi": 51,
                    "time": 175.6387410000002,
                    "velocity": 0.25984251968503935,
                    "duration": 0.9867345000000114
                },
                {
                    "name": "G#3",
                    "midi": 56,
                    "time": 176.62547550000022,
                    "velocity": 0.25984251968503935,
                    "duration": 2.631292000000002
                },
                {
                    "name": "D#3",
                    "midi": 51,
                    "time": 179.58567900000023,
                    "velocity": 0.2992125984251969,
                    "duration": 2.9602035000000058
                },
                {
                    "name": "E3",
                    "midi": 52,
                    "time": 182.54588250000023,
                    "velocity": 0.3228346456692913,
                    "duration": 0.9867345000000114
                },
                {
                    "name": "B3",
                    "midi": 59,
                    "time": 183.53261700000024,
                    "velocity": 0.2992125984251969,
                    "duration": 2.631292000000002
                },
                {
                    "name": "C4",
                    "midi": 60,
                    "time": 187.47955500000023,
                    "velocity": 0.3228346456692913,
                    "duration": 1.9734689999999944
                },
                {
                    "name": "A#3",
                    "midi": 58,
                    "time": 189.45302400000023,
                    "velocity": 0.3228346456692913,
                    "duration": 1.9734689999999944
                },
                {
                    "name": "A3",
                    "midi": 57,
                    "time": 191.42649300000022,
                    "velocity": 0.3228346456692913,
                    "duration": 1.9734689999999944
                },
                {
                    "name": "G#3",
                    "midi": 56,
                    "time": 193.39996200000022,
                    "velocity": 0.3228346456692913,
                    "duration": 1.9734689999999944
                },
                {
                    "name": "F#3",
                    "midi": 54,
                    "time": 195.3734310000002,
                    "velocity": 0.3228346456692913,
                    "duration": 3.9469379999999887
                },
                {
                    "name": "F3",
                    "midi": 53,
                    "time": 199.3203690000002,
                    "velocity": 0.28346456692913385,
                    "duration": 0.9867345000000114
                },
                {
                    "name": "E3",
                    "midi": 52,
                    "time": 200.3071035000002,
                    "velocity": 0.28346456692913385,
                    "duration": 0.9867345000000114
                },
                {
                    "name": "F3",
                    "midi": 53,
                    "time": 201.29383800000022,
                    "velocity": 0.28346456692913385,
                    "duration": 0.9867345000000114
                },
                {
                    "name": "E3",
                    "midi": 52,
                    "time": 202.28057250000023,
                    "velocity": 0.28346456692913385,
                    "duration": 0.9867345000000114
                },
                {
                    "name": "F3",
                    "midi": 53,
                    "time": 203.26730700000024,
                    "velocity": 0.28346456692913385,
                    "duration": 1.9734689999999944
                },
                {
                    "name": "E3",
                    "midi": 52,
                    "time": 205.24077600000024,
                    "velocity": 0.28346456692913385,
                    "duration": 0.9867345000000114
                },
                {
                    "name": "C#3",
                    "midi": 49,
                    "time": 206.22751050000025,
                    "velocity": 0.2755905511811024,
                    "duration": 0.9867345000000114
                },
                {
                    "name": "D#3",
                    "midi": 51,
                    "time": 207.21424500000026,
                    "velocity": 0.2755905511811024,
                    "duration": 0.9867345000000114
                },
                {
                    "name": "G#3",
                    "midi": 56,
                    "time": 208.20097950000027,
                    "velocity": 0.25984251968503935,
                    "duration": 0.9867345000000114
                },
                {
                    "name": "D#3",
                    "midi": 51,
                    "time": 209.18771400000028,
                    "velocity": 0.31496062992125984,
                    "duration": 0.9867345000000114
                },
                {
                    "name": "G3",
                    "midi": 55,
                    "time": 210.1744485000003,
                    "velocity": 0.31496062992125984,
                    "duration": 0.9867345000000114
                },
                {
                    "name": "D#3",
                    "midi": 51,
                    "time": 211.1611830000003,
                    "velocity": 0.25984251968503935,
                    "duration": 0.9867345000000114
                },
                {
                    "name": "G3",
                    "midi": 55,
                    "time": 212.14791750000032,
                    "velocity": 0.2440944881889764,
                    "duration": 0.8222787500000095
                },
                {
                    "name": "C#3",
                    "midi": 49,
                    "time": 215.10812100000032,
                    "velocity": 0.2204724409448819,
                    "duration": 0.9867345000000114
                },
                {
                    "name": "E3",
                    "midi": 52,
                    "time": 215.10812100000032,
                    "velocity": 0.2204724409448819,
                    "duration": 0.9867345000000114
                },
                {
                    "name": "D#3",
                    "midi": 51,
                    "time": 216.09485550000034,
                    "velocity": 0.2125984251968504,
                    "duration": 0.9867345000000114
                },
                {
                    "name": "F#3",
                    "midi": 54,
                    "time": 216.09485550000034,
                    "velocity": 0.2125984251968504,
                    "duration": 0.9867345000000114
                },
                {
                    "name": "C#3",
                    "midi": 49,
                    "time": 217.08159000000035,
                    "velocity": 0.2204724409448819,
                    "duration": 0.9867345000000114
                },
                {
                    "name": "E3",
                    "midi": 52,
                    "time": 217.08159000000035,
                    "velocity": 0.2204724409448819,
                    "duration": 0.9867345000000114
                },
                {
                    "name": "D#3",
                    "midi": 51,
                    "time": 218.06832450000036,
                    "velocity": 0.2125984251968504,
                    "duration": 0.8222787500000095
                },
                {
                    "name": "F#3",
                    "midi": 54,
                    "time": 218.06832450000036,
                    "velocity": 0.2125984251968504,
                    "duration": 0.8222787500000095
                },
                {
                    "name": "E3",
                    "midi": 52,
                    "time": 221.02852800000036,
                    "velocity": 0.2755905511811024,
                    "duration": 0.9867345000000114
                },
                {
                    "name": "G#3",
                    "midi": 56,
                    "time": 221.02852800000036,
                    "velocity": 0.2755905511811024,
                    "duration": 0.9867345000000114
                },
                {
                    "name": "C#3",
                    "midi": 49,
                    "time": 222.01526250000038,
                    "velocity": 0.33070866141732286,
                    "duration": 0.9867345000000114
                },
                {
                    "name": "E3",
                    "midi": 52,
                    "time": 222.01526250000038,
                    "velocity": 0.33070866141732286,
                    "duration": 0.9867345000000114
                },
                {
                    "name": "D#3",
                    "midi": 51,
                    "time": 223.0019970000004,
                    "velocity": 0.2992125984251969,
                    "duration": 0.9867345000000114
                },
                {
                    "name": "F#3",
                    "midi": 54,
                    "time": 223.0019970000004,
                    "velocity": 0.2992125984251969,
                    "duration": 0.9867345000000114
                },
                {
                    "name": "E3",
                    "midi": 52,
                    "time": 223.9887315000004,
                    "velocity": 0.28346456692913385,
                    "duration": 0.9867345000000114
                },
                {
                    "name": "G#3",
                    "midi": 56,
                    "time": 223.9887315000004,
                    "velocity": 0.28346456692913385,
                    "duration": 0.9867345000000114
                },
                {
                    "name": "D#3",
                    "midi": 51,
                    "time": 226.9489350000004,
                    "velocity": 0.2125984251968504,
                    "duration": 0.9867345000000114
                },
                {
                    "name": "G3",
                    "midi": 55,
                    "time": 227.93566950000042,
                    "velocity": 0.2125984251968504,
                    "duration": 0.9867345000000114
                },
                {
                    "name": "D#3",
                    "midi": 51,
                    "time": 230.89587300000042,
                    "velocity": 0.31496062992125984,
                    "duration": 2.9602035000000058
                },
                {
                    "name": "E3",
                    "midi": 52,
                    "time": 233.85607650000043,
                    "velocity": 0.31496062992125984,
                    "duration": 0.9867345000000114
                },
                {
                    "name": "B3",
                    "midi": 59,
                    "time": 234.84281100000044,
                    "velocity": 0.33070866141732286,
                    "duration": 0.6578230000000076
                },
                {
                    "name": "A#3",
                    "midi": 58,
                    "time": 235.82954550000045,
                    "velocity": 0.31496062992125984,
                    "duration": 0.6578230000000076
                },
                {
                    "name": "A3",
                    "midi": 57,
                    "time": 236.48736850000046,
                    "velocity": 0.2992125984251969,
                    "duration": 0.3289115000000038
                },
                {
                    "name": "G#3",
                    "midi": 56,
                    "time": 236.81628000000046,
                    "velocity": 0.36220472440944884,
                    "duration": 0.3289115000000038
                },
                {
                    "name": "G3",
                    "midi": 55,
                    "time": 237.14519150000046,
                    "velocity": 0.33858267716535434,
                    "duration": 0.6578230000000076
                },
                {
                    "name": "C3",
                    "midi": 48,
                    "time": 237.80301450000047,
                    "velocity": 0.3779527559055118,
                    "duration": 0.6578230000000076
                },
                {
                    "name": "C#3",
                    "midi": 49,
                    "time": 238.46083750000048,
                    "velocity": 0.3228346456692913,
                    "duration": 0.3289115000000038
                },
                {
                    "name": "C#3",
                    "midi": 49,
                    "time": 242.73668700000047,
                    "velocity": 0.2992125984251969,
                    "duration": 0.6578230000000076
                },
                {
                    "name": "D#3",
                    "midi": 51,
                    "time": 243.72342150000048,
                    "velocity": 0.2992125984251969,
                    "duration": 0.6578230000000076
                },
                {
                    "name": "C3",
                    "midi": 48,
                    "time": 246.6836250000005,
                    "velocity": 0.2992125984251969,
                    "duration": 0.6578230000000076
                },
                {
                    "name": "C#3",
                    "midi": 49,
                    "time": 247.6703595000005,
                    "velocity": 0.2992125984251969,
                    "duration": 0.6578230000000076
                },
                {
                    "name": "G#2",
                    "midi": 44,
                    "time": 250.4661072500005,
                    "velocity": 0.4015748031496063,
                    "duration": 0.8222787500000095
                },
                {
                    "name": "D#3",
                    "midi": 51,
                    "time": 250.5483351250005,
                    "velocity": 0.4015748031496063,
                    "duration": 0.7400508750000085
                },
                {
                    "name": "B3",
                    "midi": 59,
                    "time": 250.6305630000005,
                    "velocity": 0.4015748031496063,
                    "duration": 0.6578230000000076
                }
            ],
            "controlChanges": {
                "7": [
                    {
                        "number": 7,
                        "time": 0,
                        "value": 1
                    }
                ],
                "10": [
                    {
                        "number": 10,
                        "time": 0,
                        "value": 0.5039370078740157
                    }
                ],
                "91": [
                    {
                        "number": 91,
                        "time": 0.001370464583333333,
                        "value": 1
                    }
                ]
            },
            "id": 2,
            "name": "Piano left",
            "instrumentNumber": 0,
            "instrument": "acoustic grand piano",
            "instrumentFamily": "piano",
            "channelNumber": 0,
            "isPercussion": false
        },
        {
            "startTime": 43.41631799999999,
            "duration": 253.24815035416745,
            "length": 371,
            "notes": [
                {
                    "name": "G#2",
                    "midi": 44,
                    "time": 43.41631799999999,
                    "velocity": 0.25984251968503935,
                    "duration": 2.9602034999999987
                },
                {
                    "name": "G#2",
                    "midi": 44,
                    "time": 46.37652149999999,
                    "velocity": 0.2440944881889764,
                    "duration": 0.9730298541666684
                },
                {
                    "name": "G#2",
                    "midi": 44,
                    "time": 47.36325599999999,
                    "velocity": 0.2677165354330709,
                    "duration": 0.9730298541666613
                },
                {
                    "name": "G#2",
                    "midi": 44,
                    "time": 48.34999049999999,
                    "velocity": 0.25984251968503935,
                    "duration": 0.9730298541666613
                },
                {
                    "name": "G#2",
                    "midi": 44,
                    "time": 49.33672499999999,
                    "velocity": 0.2677165354330709,
                    "duration": 0.9730298541666613
                },
                {
                    "name": "G#2",
                    "midi": 44,
                    "time": 50.323459499999984,
                    "velocity": 0.2677165354330709,
                    "duration": 0.9730298541666613
                },
                {
                    "name": "G#2",
                    "midi": 44,
                    "time": 51.31019399999998,
                    "velocity": 0.2677165354330709,
                    "duration": 1.6445574999999977
                },
                {
                    "name": "G#2",
                    "midi": 44,
                    "time": 53.283662999999976,
                    "velocity": 0.2677165354330709,
                    "duration": 1.6445574999999977
                },
                {
                    "name": "G#2",
                    "midi": 44,
                    "time": 55.25713199999997,
                    "velocity": 0.2677165354330709,
                    "duration": 0.6441183541666646
                },
                {
                    "name": "G#2",
                    "midi": 44,
                    "time": 55.91495499999997,
                    "velocity": 0.2204724409448819,
                    "duration": 0.3193182479166694
                },
                {
                    "name": "G#2",
                    "midi": 44,
                    "time": 56.901689499999975,
                    "velocity": 0.2440944881889764,
                    "duration": 0.31520685416666794
                },
                {
                    "name": "G#2",
                    "midi": 44,
                    "time": 57.23060099999998,
                    "velocity": 0.28346456692913385,
                    "duration": 0.6441183541666646
                },
                {
                    "name": "G#2",
                    "midi": 44,
                    "time": 57.88842399999998,
                    "velocity": 0.2283464566929134,
                    "duration": 0.31520685416666794
                },
                {
                    "name": "G#2",
                    "midi": 44,
                    "time": 58.21733549999998,
                    "velocity": 0.25984251968503935,
                    "duration": 0.6441183541666646
                },
                {
                    "name": "G#2",
                    "midi": 44,
                    "time": 58.87515849999998,
                    "velocity": 0.2283464566929134,
                    "duration": 0.31520685416666794
                },
                {
                    "name": "G#2",
                    "midi": 44,
                    "time": 59.20406999999999,
                    "velocity": 0.25196850393700787,
                    "duration": 0.6441183541666646
                },
                {
                    "name": "G#2",
                    "midi": 44,
                    "time": 59.86189299999999,
                    "velocity": 0.25984251968503935,
                    "duration": 0.31520685416666794
                },
                {
                    "name": "G#2",
                    "midi": 44,
                    "time": 60.19080449999999,
                    "velocity": 0.28346456692913385,
                    "duration": 0.6441183541666717
                },
                {
                    "name": "G#2",
                    "midi": 44,
                    "time": 60.8486275,
                    "velocity": 0.2677165354330709,
                    "duration": 0.31520685416666794
                },
                {
                    "name": "G#2",
                    "midi": 44,
                    "time": 61.177539,
                    "velocity": 0.28346456692913385,
                    "duration": 0.6441183541666717
                },
                {
                    "name": "G#2",
                    "midi": 44,
                    "time": 61.83536200000001,
                    "velocity": 0.25984251968503935,
                    "duration": 0.31520685416666794
                },
                {
                    "name": "G#2",
                    "midi": 44,
                    "time": 62.164273500000014,
                    "velocity": 0.28346456692913385,
                    "duration": 0.6441183541666717
                },
                {
                    "name": "G#2",
                    "midi": 44,
                    "time": 62.82209650000002,
                    "velocity": 0.25984251968503935,
                    "duration": 0.31520685416666794
                },
                {
                    "name": "G#2",
                    "midi": 44,
                    "time": 63.151008000000026,
                    "velocity": 0.28346456692913385,
                    "duration": 0.6441183541666717
                },
                {
                    "name": "G#2",
                    "midi": 44,
                    "time": 63.80883100000003,
                    "velocity": 0.25984251968503935,
                    "duration": 0.31520685416666794
                },
                {
                    "name": "G#2",
                    "midi": 44,
                    "time": 64.13774250000003,
                    "velocity": 0.28346456692913385,
                    "duration": 0.6441183541666646
                },
                {
                    "name": "G#2",
                    "midi": 44,
                    "time": 64.79556550000002,
                    "velocity": 0.25984251968503935,
                    "duration": 0.31520685416666083
                },
                {
                    "name": "G#2",
                    "midi": 44,
                    "time": 65.12447700000001,
                    "velocity": 0.28346456692913385,
                    "duration": 0.6441183541666646
                },
                {
                    "name": "G#2",
                    "midi": 44,
                    "time": 65.7823,
                    "velocity": 0.23622047244094488,
                    "duration": 0.31520685416666083
                },
                {
                    "name": "G#2",
                    "midi": 44,
                    "time": 66.1112115,
                    "velocity": 0.25984251968503935,
                    "duration": 0.6441183541666646
                },
                {
                    "name": "G#2",
                    "midi": 44,
                    "time": 66.76903449999999,
                    "velocity": 0.23622047244094488,
                    "duration": 0.31520685416666083
                },
                {
                    "name": "G#2",
                    "midi": 44,
                    "time": 67.09794599999998,
                    "velocity": 0.2677165354330709,
                    "duration": 0.6441183541666646
                },
                {
                    "name": "G#2",
                    "midi": 44,
                    "time": 67.75576899999997,
                    "velocity": 0.25984251968503935,
                    "duration": 0.31520685416666083
                },
                {
                    "name": "G#2",
                    "midi": 44,
                    "time": 68.08468049999996,
                    "velocity": 0.28346456692913385,
                    "duration": 0.6441183541666646
                },
                {
                    "name": "G#2",
                    "midi": 44,
                    "time": 68.74250349999996,
                    "velocity": 0.25984251968503935,
                    "duration": 0.31520685416666083
                },
                {
                    "name": "G#2",
                    "midi": 44,
                    "time": 69.07141499999994,
                    "velocity": 0.28346456692913385,
                    "duration": 0.9730298541666684
                },
                {
                    "name": "G#2",
                    "midi": 44,
                    "time": 70.05814949999994,
                    "velocity": 0.2677165354330709,
                    "duration": 0.9730298541666684
                },
                {
                    "name": "G#2",
                    "midi": 44,
                    "time": 71.04488399999994,
                    "velocity": 0.28346456692913385,
                    "duration": 1.9734689999999802
                },
                {
                    "name": "G#2",
                    "midi": 44,
                    "time": 73.01835299999992,
                    "velocity": 0.29133858267716534,
                    "duration": 1.9734690000000086
                },
                {
                    "name": "G#2",
                    "midi": 44,
                    "time": 74.99182199999993,
                    "velocity": 0.2992125984251969,
                    "duration": 1.9734689999999802
                },
                {
                    "name": "G#2",
                    "midi": 44,
                    "time": 76.96529099999991,
                    "velocity": 0.2992125984251969,
                    "duration": 0.6441183541666646
                },
                {
                    "name": "G#2",
                    "midi": 44,
                    "time": 77.6231139999999,
                    "velocity": 0.28346456692913385,
                    "duration": 0.31520685416666083
                },
                {
                    "name": "G#2",
                    "midi": 44,
                    "time": 77.95202549999989,
                    "velocity": 0.28346456692913385,
                    "duration": 0.6441183541666646
                },
                {
                    "name": "G#2",
                    "midi": 44,
                    "time": 78.60984849999988,
                    "velocity": 0.2440944881889764,
                    "duration": 0.31520685416666083
                },
                {
                    "name": "G#2",
                    "midi": 44,
                    "time": 78.93875999999987,
                    "velocity": 0.28346456692913385,
                    "duration": 0.6441183541666646
                },
                {
                    "name": "G#2",
                    "midi": 44,
                    "time": 79.59658299999987,
                    "velocity": 0.23622047244094488,
                    "duration": 0.31520685416666083
                },
                {
                    "name": "G#2",
                    "midi": 44,
                    "time": 79.92549449999986,
                    "velocity": 0.25196850393700787,
                    "duration": 0.6441183541666646
                },
                {
                    "name": "G#2",
                    "midi": 44,
                    "time": 80.58331749999985,
                    "velocity": 0.2283464566929134,
                    "duration": 0.31520685416666083
                },
                {
                    "name": "G#2",
                    "midi": 44,
                    "time": 80.91222899999984,
                    "velocity": 0.2677165354330709,
                    "duration": 0.6441183541666646
                },
                {
                    "name": "G#2",
                    "midi": 44,
                    "time": 81.57005199999983,
                    "velocity": 0.25984251968503935,
                    "duration": 0.31520685416666083
                },
                {
                    "name": "G#2",
                    "midi": 44,
                    "time": 81.89896349999982,
                    "velocity": 0.28346456692913385,
                    "duration": 0.6441183541666646
                },
                {
                    "name": "G#2",
                    "midi": 44,
                    "time": 82.55678649999982,
                    "velocity": 0.2677165354330709,
                    "duration": 0.31520685416666083
                },
                {
                    "name": "G#2",
                    "midi": 44,
                    "time": 82.8856979999998,
                    "velocity": 0.28346456692913385,
                    "duration": 0.6441183541666646
                },
                {
                    "name": "G#2",
                    "midi": 44,
                    "time": 83.5435209999998,
                    "velocity": 0.25984251968503935,
                    "duration": 0.31520685416666083
                },
                {
                    "name": "G#2",
                    "midi": 44,
                    "time": 83.87243249999979,
                    "velocity": 0.28346456692913385,
                    "duration": 0.6441183541666788
                },
                {
                    "name": "G#2",
                    "midi": 44,
                    "time": 84.5302554999998,
                    "velocity": 0.2283464566929134,
                    "duration": 0.31520685416666083
                },
                {
                    "name": "G#2",
                    "midi": 44,
                    "time": 84.85916699999979,
                    "velocity": 0.25984251968503935,
                    "duration": 0.6441183541666788
                },
                {
                    "name": "G#2",
                    "midi": 44,
                    "time": 85.5169899999998,
                    "velocity": 0.25984251968503935,
                    "duration": 0.31520685416667504
                },
                {
                    "name": "G#2",
                    "midi": 44,
                    "time": 85.8459014999998,
                    "velocity": 0.28346456692913385,
                    "duration": 0.6441183541666646
                },
                {
                    "name": "G#2",
                    "midi": 44,
                    "time": 86.50372449999979,
                    "velocity": 0.25984251968503935,
                    "duration": 0.31520685416666083
                },
                {
                    "name": "G#2",
                    "midi": 44,
                    "time": 86.83263599999978,
                    "velocity": 0.28346456692913385,
                    "duration": 0.6441183541666646
                },
                {
                    "name": "G#2",
                    "midi": 44,
                    "time": 87.49045899999977,
                    "velocity": 0.25984251968503935,
                    "duration": 0.31520685416666083
                },
                {
                    "name": "G#2",
                    "midi": 44,
                    "time": 87.81937049999976,
                    "velocity": 0.28346456692913385,
                    "duration": 0.6441183541666788
                },
                {
                    "name": "G#2",
                    "midi": 44,
                    "time": 88.47719349999977,
                    "velocity": 0.25984251968503935,
                    "duration": 0.31520685416666083
                },
                {
                    "name": "G#2",
                    "midi": 44,
                    "time": 88.80610499999976,
                    "velocity": 0.2755905511811024,
                    "duration": 0.6441183541666646
                },
                {
                    "name": "G#2",
                    "midi": 44,
                    "time": 89.46392799999975,
                    "velocity": 0.25984251968503935,
                    "duration": 0.31520685416666083
                },
                {
                    "name": "G#2",
                    "midi": 44,
                    "time": 89.79283949999974,
                    "velocity": 0.28346456692913385,
                    "duration": 0.6441183541666646
                },
                {
                    "name": "G#2",
                    "midi": 44,
                    "time": 90.45066249999974,
                    "velocity": 0.25984251968503935,
                    "duration": 0.31520685416666083
                },
                {
                    "name": "G#2",
                    "midi": 44,
                    "time": 90.77957399999973,
                    "velocity": 0.2677165354330709,
                    "duration": 0.6441183541666788
                },
                {
                    "name": "G#2",
                    "midi": 44,
                    "time": 91.43739699999973,
                    "velocity": 0.25984251968503935,
                    "duration": 0.31520685416666083
                },
                {
                    "name": "G#2",
                    "midi": 44,
                    "time": 91.76630849999972,
                    "velocity": 0.2755905511811024,
                    "duration": 0.6441183541666646
                },
                {
                    "name": "G#2",
                    "midi": 44,
                    "time": 92.42413149999972,
                    "velocity": 0.23622047244094488,
                    "duration": 0.31520685416667504
                },
                {
                    "name": "G#2",
                    "midi": 44,
                    "time": 92.75304299999972,
                    "velocity": 0.2755905511811024,
                    "duration": 0.6441183541666646
                },
                {
                    "name": "G#2",
                    "midi": 44,
                    "time": 93.41086599999971,
                    "velocity": 0.25984251968503935,
                    "duration": 0.31520685416666083
                },
                {
                    "name": "G#2",
                    "midi": 44,
                    "time": 93.7397774999997,
                    "velocity": 0.2677165354330709,
                    "duration": 0.6441183541666646
                },
                {
                    "name": "G#2",
                    "midi": 44,
                    "time": 94.3976004999997,
                    "velocity": 0.2204724409448819,
                    "duration": 0.31520685416667504
                },
                {
                    "name": "G#2",
                    "midi": 44,
                    "time": 94.7265119999997,
                    "velocity": 0.2755905511811024,
                    "duration": 0.6441183541666646
                },
                {
                    "name": "G#2",
                    "midi": 44,
                    "time": 95.3843349999997,
                    "velocity": 0.2204724409448819,
                    "duration": 0.31520685416666083
                },
                {
                    "name": "G#2",
                    "midi": 44,
                    "time": 95.71324649999968,
                    "velocity": 0.2440944881889764,
                    "duration": 0.6441183541666646
                },
                {
                    "name": "G#2",
                    "midi": 44,
                    "time": 96.37106949999968,
                    "velocity": 0.2204724409448819,
                    "duration": 0.31520685416666083
                },
                {
                    "name": "G#2",
                    "midi": 44,
                    "time": 96.69998099999967,
                    "velocity": 0.2440944881889764,
                    "duration": 0.6441183541666646
                },
                {
                    "name": "G#2",
                    "midi": 44,
                    "time": 97.35780399999966,
                    "velocity": 0.2204724409448819,
                    "duration": 0.31520685416666083
                },
                {
                    "name": "G#2",
                    "midi": 44,
                    "time": 97.68671549999965,
                    "velocity": 0.23622047244094488,
                    "duration": 0.6441183541666646
                },
                {
                    "name": "G#2",
                    "midi": 44,
                    "time": 98.34453849999964,
                    "velocity": 0.2125984251968504,
                    "duration": 0.31520685416666083
                },
                {
                    "name": "G#2",
                    "midi": 44,
                    "time": 98.67344999999963,
                    "velocity": 0.2440944881889764,
                    "duration": 0.6441183541666646
                },
                {
                    "name": "G#2",
                    "midi": 44,
                    "time": 99.33127299999963,
                    "velocity": 0.2204724409448819,
                    "duration": 0.31520685416666083
                },
                {
                    "name": "G#2",
                    "midi": 44,
                    "time": 99.66018449999962,
                    "velocity": 0.23622047244094488,
                    "duration": 0.6441183541666646
                },
                {
                    "name": "G#2",
                    "midi": 44,
                    "time": 100.31800749999961,
                    "velocity": 0.2204724409448819,
                    "duration": 0.31520685416666083
                },
                {
                    "name": "G#2",
                    "midi": 44,
                    "time": 100.6469189999996,
                    "velocity": 0.23622047244094488,
                    "duration": 0.6441183541666646
                },
                {
                    "name": "G#2",
                    "midi": 44,
                    "time": 101.30474199999959,
                    "velocity": 0.2204724409448819,
                    "duration": 0.31520685416666083
                },
                {
                    "name": "G#2",
                    "midi": 44,
                    "time": 101.63365349999958,
                    "velocity": 0.23622047244094488,
                    "duration": 0.6441183541666788
                },
                {
                    "name": "G#2",
                    "midi": 44,
                    "time": 102.29147649999959,
                    "velocity": 0.2125984251968504,
                    "duration": 0.31520685416666083
                },
                {
                    "name": "G#2",
                    "midi": 44,
                    "time": 102.62038799999958,
                    "velocity": 0.25984251968503935,
                    "duration": 0.6441183541666646
                },
                {
                    "name": "G#2",
                    "midi": 44,
                    "time": 103.27821099999957,
                    "velocity": 0.2440944881889764,
                    "duration": 0.31520685416666083
                },
                {
                    "name": "G#2",
                    "midi": 44,
                    "time": 103.60712249999956,
                    "velocity": 0.2755905511811024,
                    "duration": 0.6441183541666646
                },
                {
                    "name": "G#2",
                    "midi": 44,
                    "time": 104.26494549999956,
                    "velocity": 0.2440944881889764,
                    "duration": 0.9730298541666684
                },
                {
                    "name": "G#2",
                    "midi": 44,
                    "time": 105.25167999999955,
                    "velocity": 0.2204724409448819,
                    "duration": 0.31520685416666083
                },
                {
                    "name": "G#2",
                    "midi": 44,
                    "time": 105.58059149999954,
                    "velocity": 0.2677165354330709,
                    "duration": 0.6441183541666646
                },
                {
                    "name": "G#2",
                    "midi": 44,
                    "time": 106.23841449999954,
                    "velocity": 0.2204724409448819,
                    "duration": 0.31520685416666083
                },
                {
                    "name": "G#2",
                    "midi": 44,
                    "time": 106.56732599999953,
                    "velocity": 0.2440944881889764,
                    "duration": 0.6441183541666646
                },
                {
                    "name": "G#2",
                    "midi": 44,
                    "time": 107.22514899999952,
                    "velocity": 0.2204724409448819,
                    "duration": 0.31520685416666083
                },
                {
                    "name": "G#2",
                    "midi": 44,
                    "time": 107.55406049999951,
                    "velocity": 0.2440944881889764,
                    "duration": 0.6441183541666646
                },
                {
                    "name": "G#2",
                    "midi": 44,
                    "time": 108.2118834999995,
                    "velocity": 0.2204724409448819,
                    "duration": 0.31520685416666083
                },
                {
                    "name": "G#2",
                    "midi": 44,
                    "time": 108.54079499999949,
                    "velocity": 0.2440944881889764,
                    "duration": 0.6441183541666504
                },
                {
                    "name": "G#2",
                    "midi": 44,
                    "time": 109.19861799999947,
                    "velocity": 0.2204724409448819,
                    "duration": 0.31520685416666083
                },
                {
                    "name": "G#2",
                    "midi": 44,
                    "time": 109.52752949999946,
                    "velocity": 0.23622047244094488,
                    "duration": 0.6441183541666646
                },
                {
                    "name": "G#2",
                    "midi": 44,
                    "time": 110.18535249999945,
                    "velocity": 0.2204724409448819,
                    "duration": 0.31520685416666083
                },
                {
                    "name": "G#2",
                    "midi": 44,
                    "time": 110.51426399999944,
                    "velocity": 0.25196850393700787,
                    "duration": 0.6441183541666646
                },
                {
                    "name": "G#2",
                    "midi": 44,
                    "time": 111.17208699999944,
                    "velocity": 0.18110236220472442,
                    "duration": 0.31520685416666083
                },
                {
                    "name": "G#2",
                    "midi": 44,
                    "time": 111.50099849999943,
                    "velocity": 0.23622047244094488,
                    "duration": 0.6441183541666646
                },
                {
                    "name": "G#2",
                    "midi": 44,
                    "time": 112.15882149999942,
                    "velocity": 0.2204724409448819,
                    "duration": 0.31520685416667504
                },
                {
                    "name": "G#2",
                    "midi": 44,
                    "time": 112.48773299999942,
                    "velocity": 0.23622047244094488,
                    "duration": 0.6441183541666646
                },
                {
                    "name": "G#2",
                    "midi": 44,
                    "time": 113.14555599999942,
                    "velocity": 0.2125984251968504,
                    "duration": 0.31520685416666083
                },
                {
                    "name": "G#2",
                    "midi": 44,
                    "time": 113.4744674999994,
                    "velocity": 0.2204724409448819,
                    "duration": 0.6441183541666646
                },
                {
                    "name": "G#2",
                    "midi": 44,
                    "time": 114.1322904999994,
                    "velocity": 0.18110236220472442,
                    "duration": 0.31520685416666083
                },
                {
                    "name": "G#2",
                    "midi": 44,
                    "time": 114.46120199999939,
                    "velocity": 0.2204724409448819,
                    "duration": 0.6441183541666646
                },
                {
                    "name": "G#2",
                    "midi": 44,
                    "time": 115.11902499999938,
                    "velocity": 0.2204724409448819,
                    "duration": 0.31520685416666083
                },
                {
                    "name": "G#2",
                    "midi": 44,
                    "time": 115.44793649999937,
                    "velocity": 0.25196850393700787,
                    "duration": 0.6441183541666646
                },
                {
                    "name": "G#2",
                    "midi": 44,
                    "time": 116.10575949999937,
                    "velocity": 0.2283464566929134,
                    "duration": 0.31520685416667504
                },
                {
                    "name": "G#2",
                    "midi": 44,
                    "time": 116.43467099999937,
                    "velocity": 0.25196850393700787,
                    "duration": 0.6441183541666646
                },
                {
                    "name": "G#2",
                    "midi": 44,
                    "time": 117.09249399999936,
                    "velocity": 0.2047244094488189,
                    "duration": 0.31520685416666083
                },
                {
                    "name": "G#2",
                    "midi": 44,
                    "time": 117.42140549999935,
                    "velocity": 0.23622047244094488,
                    "duration": 0.6441183541666646
                },
                {
                    "name": "G#2",
                    "midi": 44,
                    "time": 118.07922849999935,
                    "velocity": 0.2204724409448819,
                    "duration": 0.31520685416666083
                },
                {
                    "name": "G#2",
                    "midi": 44,
                    "time": 118.40813999999934,
                    "velocity": 0.2440944881889764,
                    "duration": 0.6441183541666646
                },
                {
                    "name": "G#2",
                    "midi": 44,
                    "time": 119.06596299999933,
                    "velocity": 0.2204724409448819,
                    "duration": 0.31520685416666083
                },
                {
                    "name": "G#2",
                    "midi": 44,
                    "time": 119.39487449999932,
                    "velocity": 0.23622047244094488,
                    "duration": 0.6441183541666788
                },
                {
                    "name": "G#2",
                    "midi": 44,
                    "time": 120.05269749999933,
                    "velocity": 0.2204724409448819,
                    "duration": 0.31520685416667504
                },
                {
                    "name": "G#2",
                    "midi": 44,
                    "time": 120.38160899999933,
                    "velocity": 0.2677165354330709,
                    "duration": 0.6441183541666646
                },
                {
                    "name": "G#2",
                    "midi": 44,
                    "time": 121.03943199999932,
                    "velocity": 0.2204724409448819,
                    "duration": 0.31520685416666083
                },
                {
                    "name": "G#2",
                    "midi": 44,
                    "time": 121.36834349999931,
                    "velocity": 0.25196850393700787,
                    "duration": 0.6441183541666788
                },
                {
                    "name": "G#2",
                    "midi": 44,
                    "time": 122.02616649999932,
                    "velocity": 0.25984251968503935,
                    "duration": 0.9730298541666684
                },
                {
                    "name": "G#2",
                    "midi": 44,
                    "time": 123.01290099999932,
                    "velocity": 0.2440944881889764,
                    "duration": 0.31520685416666083
                },
                {
                    "name": "G#2",
                    "midi": 44,
                    "time": 123.3418124999993,
                    "velocity": 0.2677165354330709,
                    "duration": 0.6441183541666646
                },
                {
                    "name": "G#2",
                    "midi": 44,
                    "time": 123.9996354999993,
                    "velocity": 0.2204724409448819,
                    "duration": 0.31520685416667504
                },
                {
                    "name": "G#2",
                    "midi": 44,
                    "time": 124.3285469999993,
                    "velocity": 0.2755905511811024,
                    "duration": 0.6441183541666646
                },
                {
                    "name": "G#2",
                    "midi": 44,
                    "time": 124.9863699999993,
                    "velocity": 0.2204724409448819,
                    "duration": 0.31520685416666083
                },
                {
                    "name": "G#2",
                    "midi": 44,
                    "time": 125.31528149999929,
                    "velocity": 0.28346456692913385,
                    "duration": 0.6441183541666646
                },
                {
                    "name": "G#2",
                    "midi": 44,
                    "time": 125.97310449999928,
                    "velocity": 0.2204724409448819,
                    "duration": 0.31520685416666083
                },
                {
                    "name": "G#2",
                    "midi": 44,
                    "time": 126.30201599999927,
                    "velocity": 0.25196850393700787,
                    "duration": 0.6441183541666646
                },
                {
                    "name": "G#2",
                    "midi": 44,
                    "time": 126.95983899999926,
                    "velocity": 0.2204724409448819,
                    "duration": 0.31520685416666083
                },
                {
                    "name": "G#2",
                    "midi": 44,
                    "time": 127.28875049999925,
                    "velocity": 0.23622047244094488,
                    "duration": 0.6441183541666788
                },
                {
                    "name": "G#2",
                    "midi": 44,
                    "time": 127.94657349999926,
                    "velocity": 0.2204724409448819,
                    "duration": 0.31520685416666083
                },
                {
                    "name": "G#2",
                    "midi": 44,
                    "time": 128.27548499999926,
                    "velocity": 0.25196850393700787,
                    "duration": 0.644118354166693
                },
                {
                    "name": "G#2",
                    "midi": 44,
                    "time": 128.9333079999993,
                    "velocity": 0.2125984251968504,
                    "duration": 0.31520685416666083
                },
                {
                    "name": "G#2",
                    "midi": 44,
                    "time": 129.2622194999993,
                    "velocity": 0.23622047244094488,
                    "duration": 0.6441183541666646
                },
                {
                    "name": "G#2",
                    "midi": 44,
                    "time": 129.9200424999993,
                    "velocity": 0.2125984251968504,
                    "duration": 0.31520685416666083
                },
                {
                    "name": "G#2",
                    "midi": 44,
                    "time": 130.24895399999932,
                    "velocity": 0.2440944881889764,
                    "duration": 0.6441183541666646
                },
                {
                    "name": "G#2",
                    "midi": 44,
                    "time": 130.90677699999932,
                    "velocity": 0.2204724409448819,
                    "duration": 0.31520685416666083
                },
                {
                    "name": "G#2",
                    "midi": 44,
                    "time": 131.23568849999933,
                    "velocity": 0.2440944881889764,
                    "duration": 0.6441183541666646
                },
                {
                    "name": "G#2",
                    "midi": 44,
                    "time": 131.89351149999933,
                    "velocity": 0.18110236220472442,
                    "duration": 0.31520685416666083
                },
                {
                    "name": "G#2",
                    "midi": 44,
                    "time": 132.22242299999934,
                    "velocity": 0.25196850393700787,
                    "duration": 3.946938000000017
                },
                {
                    "name": "G#2",
                    "midi": 44,
                    "time": 136.16936099999936,
                    "velocity": 0.25984251968503935,
                    "duration": 1.9734690000000228
                },
                {
                    "name": "G#2",
                    "midi": 44,
                    "time": 138.14282999999938,
                    "velocity": 0.2755905511811024,
                    "duration": 1.9734690000000228
                },
                {
                    "name": "G#2",
                    "midi": 44,
                    "time": 140.1162989999994,
                    "velocity": 0.2677165354330709,
                    "duration": 0.6441183541666646
                },
                {
                    "name": "G#2",
                    "midi": 44,
                    "time": 140.7741219999994,
                    "velocity": 0.2125984251968504,
                    "duration": 0.31520685416666083
                },
                {
                    "name": "G#2",
                    "midi": 44,
                    "time": 141.1030334999994,
                    "velocity": 0.25196850393700787,
                    "duration": 0.6441183541666646
                },
                {
                    "name": "G#2",
                    "midi": 44,
                    "time": 141.76085649999942,
                    "velocity": 0.2283464566929134,
                    "duration": 0.31520685416666083
                },
                {
                    "name": "G#2",
                    "midi": 44,
                    "time": 142.08976799999942,
                    "velocity": 0.2204724409448819,
                    "duration": 0.6441183541666646
                },
                {
                    "name": "G#2",
                    "midi": 44,
                    "time": 142.74759099999943,
                    "velocity": 0.1732283464566929,
                    "duration": 0.31520685416666083
                },
                {
                    "name": "G#2",
                    "midi": 44,
                    "time": 143.07650249999944,
                    "velocity": 0.2047244094488189,
                    "duration": 0.6441183541666646
                },
                {
                    "name": "G#2",
                    "midi": 44,
                    "time": 143.73432549999944,
                    "velocity": 0.15748031496062992,
                    "duration": 0.31520685416666083
                },
                {
                    "name": "G#2",
                    "midi": 44,
                    "time": 144.06323699999945,
                    "velocity": 0.2047244094488189,
                    "duration": 0.6441183541666646
                },
                {
                    "name": "G#2",
                    "midi": 44,
                    "time": 144.72105999999945,
                    "velocity": 0.15748031496062992,
                    "duration": 0.31520685416666083
                },
                {
                    "name": "G#2",
                    "midi": 44,
                    "time": 145.04997149999946,
                    "velocity": 0.2047244094488189,
                    "duration": 0.6441183541666646
                },
                {
                    "name": "G#2",
                    "midi": 44,
                    "time": 145.70779449999947,
                    "velocity": 0.15748031496062992,
                    "duration": 0.31520685416666083
                },
                {
                    "name": "G#2",
                    "midi": 44,
                    "time": 146.03670599999947,
                    "velocity": 0.1968503937007874,
                    "duration": 0.644118354166693
                },
                {
                    "name": "G#2",
                    "midi": 44,
                    "time": 146.6945289999995,
                    "velocity": 0.1732283464566929,
                    "duration": 0.31520685416666083
                },
                {
                    "name": "G#2",
                    "midi": 44,
                    "time": 147.0234404999995,
                    "velocity": 0.2047244094488189,
                    "duration": 0.6441183541666646
                },
                {
                    "name": "G#2",
                    "midi": 44,
                    "time": 147.68126349999952,
                    "velocity": 0.1732283464566929,
                    "duration": 0.31520685416666083
                },
                {
                    "name": "G#2",
                    "midi": 44,
                    "time": 148.01017499999952,
                    "velocity": 0.2047244094488189,
                    "duration": 0.6441183541666646
                },
                {
                    "name": "G#2",
                    "midi": 44,
                    "time": 148.66799799999953,
                    "velocity": 0.1732283464566929,
                    "duration": 0.31520685416666083
                },
                {
                    "name": "G#2",
                    "midi": 44,
                    "time": 148.99690949999953,
                    "velocity": 0.2204724409448819,
                    "duration": 0.6441183541666646
                },
                {
                    "name": "G#2",
                    "midi": 44,
                    "time": 149.65473249999954,
                    "velocity": 0.1732283464566929,
                    "duration": 0.31520685416666083
                },
                {
                    "name": "G#2",
                    "midi": 44,
                    "time": 149.98364399999954,
                    "velocity": 0.2125984251968504,
                    "duration": 0.6441183541666646
                },
                {
                    "name": "G#2",
                    "midi": 44,
                    "time": 150.64146699999955,
                    "velocity": 0.2204724409448819,
                    "duration": 0.31520685416666083
                },
                {
                    "name": "G#2",
                    "midi": 44,
                    "time": 150.97037849999955,
                    "velocity": 0.23622047244094488,
                    "duration": 0.6441183541666646
                },
                {
                    "name": "G#2",
                    "midi": 44,
                    "time": 151.62820149999956,
                    "velocity": 0.2204724409448819,
                    "duration": 0.31520685416666083
                },
                {
                    "name": "G#2",
                    "midi": 44,
                    "time": 151.95711299999957,
                    "velocity": 0.25196850393700787,
                    "duration": 0.644118354166693
                },
                {
                    "name": "G#2",
                    "midi": 44,
                    "time": 152.6149359999996,
                    "velocity": 0.2440944881889764,
                    "duration": 0.31520685416666083
                },
                {
                    "name": "G#2",
                    "midi": 44,
                    "time": 152.9438474999996,
                    "velocity": 0.2755905511811024,
                    "duration": 0.6441183541666646
                },
                {
                    "name": "G#2",
                    "midi": 44,
                    "time": 153.6016704999996,
                    "velocity": 0.18110236220472442,
                    "duration": 0.31520685416666083
                },
                {
                    "name": "G#2",
                    "midi": 44,
                    "time": 153.93058199999962,
                    "velocity": 0.2047244094488189,
                    "duration": 0.6441183541666362
                },
                {
                    "name": "G#2",
                    "midi": 44,
                    "time": 154.5884049999996,
                    "velocity": 0.2125984251968504,
                    "duration": 0.31520685416666083
                },
                {
                    "name": "G#2",
                    "midi": 44,
                    "time": 154.9173164999996,
                    "velocity": 0.2283464566929134,
                    "duration": 0.6441183541666646
                },
                {
                    "name": "G#2",
                    "midi": 44,
                    "time": 155.5751394999996,
                    "velocity": 0.23622047244094488,
                    "duration": 0.31520685416666083
                },
                {
                    "name": "G#2",
                    "midi": 44,
                    "time": 155.9040509999996,
                    "velocity": 0.25196850393700787,
                    "duration": 0.6441183541666362
                },
                {
                    "name": "G#2",
                    "midi": 44,
                    "time": 156.5618739999996,
                    "velocity": 0.2440944881889764,
                    "duration": 0.31520685416666083
                },
                {
                    "name": "G#2",
                    "midi": 44,
                    "time": 156.8907854999996,
                    "velocity": 0.2677165354330709,
                    "duration": 0.6441183541666646
                },
                {
                    "name": "G#2",
                    "midi": 44,
                    "time": 157.5486084999996,
                    "velocity": 0.1732283464566929,
                    "duration": 0.31520685416666083
                },
                {
                    "name": "G#2",
                    "midi": 44,
                    "time": 157.8775199999996,
                    "velocity": 0.25196850393700787,
                    "duration": 0.6441183541666362
                },
                {
                    "name": "G#2",
                    "midi": 44,
                    "time": 158.53534299999959,
                    "velocity": 0.2125984251968504,
                    "duration": 0.31520685416666083
                },
                {
                    "name": "G#2",
                    "midi": 44,
                    "time": 158.8642544999996,
                    "velocity": 0.2204724409448819,
                    "duration": 0.6441183541666646
                },
                {
                    "name": "G#2",
                    "midi": 44,
                    "time": 159.5220774999996,
                    "velocity": 0.1968503937007874,
                    "duration": 0.31520685416666083
                },
                {
                    "name": "G#2",
                    "midi": 44,
                    "time": 159.8509889999996,
                    "velocity": 0.2204724409448819,
                    "duration": 0.6441183541666646
                },
                {
                    "name": "G#2",
                    "midi": 44,
                    "time": 160.5088119999996,
                    "velocity": 0.1968503937007874,
                    "duration": 0.31520685416666083
                },
                {
                    "name": "G#2",
                    "midi": 44,
                    "time": 160.8377234999996,
                    "velocity": 0.2204724409448819,
                    "duration": 0.6441183541666646
                },
                {
                    "name": "G#2",
                    "midi": 44,
                    "time": 161.49554649999962,
                    "velocity": 0.1968503937007874,
                    "duration": 0.31520685416666083
                },
                {
                    "name": "G#2",
                    "midi": 44,
                    "time": 161.82445799999962,
                    "velocity": 0.25196850393700787,
                    "duration": 0.644118354166693
                },
                {
                    "name": "G#2",
                    "midi": 44,
                    "time": 162.48228099999966,
                    "velocity": 0.2047244094488189,
                    "duration": 0.31520685416666083
                },
                {
                    "name": "G#2",
                    "midi": 44,
                    "time": 162.81119249999966,
                    "velocity": 0.2440944881889764,
                    "duration": 0.6441183541666646
                },
                {
                    "name": "G#2",
                    "midi": 44,
                    "time": 163.46901549999967,
                    "velocity": 0.18110236220472442,
                    "duration": 0.31520685416666083
                },
                {
                    "name": "G#2",
                    "midi": 44,
                    "time": 163.79792699999967,
                    "velocity": 0.23622047244094488,
                    "duration": 0.644118354166693
                },
                {
                    "name": "G#2",
                    "midi": 44,
                    "time": 164.4557499999997,
                    "velocity": 0.2047244094488189,
                    "duration": 0.31520685416666083
                },
                {
                    "name": "G#2",
                    "midi": 44,
                    "time": 164.78466149999971,
                    "velocity": 0.2204724409448819,
                    "duration": 0.6441183541666646
                },
                {
                    "name": "G#2",
                    "midi": 44,
                    "time": 165.44248449999972,
                    "velocity": 0.2047244094488189,
                    "duration": 0.31520685416666083
                },
                {
                    "name": "G#2",
                    "midi": 44,
                    "time": 165.77139599999973,
                    "velocity": 0.2283464566929134,
                    "duration": 0.644118354166693
                },
                {
                    "name": "G#2",
                    "midi": 44,
                    "time": 166.42921899999976,
                    "velocity": 0.18110236220472442,
                    "duration": 0.31520685416666083
                },
                {
                    "name": "G#2",
                    "midi": 44,
                    "time": 166.75813049999977,
                    "velocity": 0.2125984251968504,
                    "duration": 0.6441183541666646
                },
                {
                    "name": "G#2",
                    "midi": 44,
                    "time": 167.41595349999977,
                    "velocity": 0.1968503937007874,
                    "duration": 0.31520685416666083
                },
                {
                    "name": "G#2",
                    "midi": 44,
                    "time": 167.74486499999978,
                    "velocity": 0.2125984251968504,
                    "duration": 0.6441183541666646
                },
                {
                    "name": "G#2",
                    "midi": 44,
                    "time": 168.40268799999978,
                    "velocity": 0.18110236220472442,
                    "duration": 0.31520685416666083
                },
                {
                    "name": "G#2",
                    "midi": 44,
                    "time": 168.7315994999998,
                    "velocity": 0.25984251968503935,
                    "duration": 0.6441183541666646
                },
                {
                    "name": "G#2",
                    "midi": 44,
                    "time": 169.3894224999998,
                    "velocity": 0.2204724409448819,
                    "duration": 0.31520685416666083
                },
                {
                    "name": "G#2",
                    "midi": 44,
                    "time": 169.7183339999998,
                    "velocity": 0.2755905511811024,
                    "duration": 0.6441183541666646
                },
                {
                    "name": "G#2",
                    "midi": 44,
                    "time": 170.3761569999998,
                    "velocity": 0.2440944881889764,
                    "duration": 0.31520685416666083
                },
                {
                    "name": "G#2",
                    "midi": 44,
                    "time": 170.7050684999998,
                    "velocity": 0.2755905511811024,
                    "duration": 0.6441183541666646
                },
                {
                    "name": "G#2",
                    "midi": 44,
                    "time": 171.36289149999982,
                    "velocity": 0.2440944881889764,
                    "duration": 0.31520685416666083
                },
                {
                    "name": "G#2",
                    "midi": 44,
                    "time": 171.69180299999982,
                    "velocity": 0.2440944881889764,
                    "duration": 0.6441183541666646
                },
                {
                    "name": "G#2",
                    "midi": 44,
                    "time": 172.34962599999983,
                    "velocity": 0.18110236220472442,
                    "duration": 0.31520685416666083
                },
                {
                    "name": "G#2",
                    "midi": 44,
                    "time": 172.67853749999983,
                    "velocity": 0.2125984251968504,
                    "duration": 0.6441183541666646
                },
                {
                    "name": "G#2",
                    "midi": 44,
                    "time": 173.33636049999984,
                    "velocity": 0.18110236220472442,
                    "duration": 0.31520685416666083
                },
                {
                    "name": "G#2",
                    "midi": 44,
                    "time": 173.66527199999985,
                    "velocity": 0.2204724409448819,
                    "duration": 0.6441183541666646
                },
                {
                    "name": "G#2",
                    "midi": 44,
                    "time": 174.32309499999985,
                    "velocity": 0.18110236220472442,
                    "duration": 0.31520685416666083
                },
                {
                    "name": "G#2",
                    "midi": 44,
                    "time": 174.65200649999986,
                    "velocity": 0.2125984251968504,
                    "duration": 0.6441183541666646
                },
                {
                    "name": "G#2",
                    "midi": 44,
                    "time": 175.30982949999986,
                    "velocity": 0.18110236220472442,
                    "duration": 0.31520685416666083
                },
                {
                    "name": "G#2",
                    "midi": 44,
                    "time": 175.63874099999987,
                    "velocity": 0.2204724409448819,
                    "duration": 0.644118354166693
                },
                {
                    "name": "G#2",
                    "midi": 44,
                    "time": 176.2965639999999,
                    "velocity": 0.18110236220472442,
                    "duration": 0.31520685416666083
                },
                {
                    "name": "G#2",
                    "midi": 44,
                    "time": 176.6254754999999,
                    "velocity": 0.2125984251968504,
                    "duration": 0.6441183541666646
                },
                {
                    "name": "G#2",
                    "midi": 44,
                    "time": 177.28329849999992,
                    "velocity": 0.1732283464566929,
                    "duration": 0.31520685416666083
                },
                {
                    "name": "G#2",
                    "midi": 44,
                    "time": 177.61220999999992,
                    "velocity": 0.2204724409448819,
                    "duration": 0.6441183541666646
                },
                {
                    "name": "G#2",
                    "midi": 44,
                    "time": 178.27003299999993,
                    "velocity": 0.2047244094488189,
                    "duration": 0.31520685416666083
                },
                {
                    "name": "G#2",
                    "midi": 44,
                    "time": 178.59894449999993,
                    "velocity": 0.2283464566929134,
                    "duration": 0.644118354166693
                },
                {
                    "name": "G#2",
                    "midi": 44,
                    "time": 179.25676749999997,
                    "velocity": 0.1732283464566929,
                    "duration": 0.31520685416668925
                },
                {
                    "name": "G#2",
                    "midi": 44,
                    "time": 179.585679,
                    "velocity": 0.2047244094488189,
                    "duration": 0.6441183541666646
                },
                {
                    "name": "G#2",
                    "midi": 44,
                    "time": 180.243502,
                    "velocity": 0.2125984251968504,
                    "duration": 0.31520685416666083
                },
                {
                    "name": "G#2",
                    "midi": 44,
                    "time": 180.5724135,
                    "velocity": 0.23622047244094488,
                    "duration": 0.6441183541666646
                },
                {
                    "name": "G#2",
                    "midi": 44,
                    "time": 181.23023650000002,
                    "velocity": 0.18110236220472442,
                    "duration": 0.31520685416666083
                },
                {
                    "name": "G#2",
                    "midi": 44,
                    "time": 181.55914800000002,
                    "velocity": 0.2125984251968504,
                    "duration": 0.6441183541666646
                },
                {
                    "name": "G#2",
                    "midi": 44,
                    "time": 182.21697100000003,
                    "velocity": 0.1732283464566929,
                    "duration": 0.31520685416666083
                },
                {
                    "name": "G#2",
                    "midi": 44,
                    "time": 182.54588250000003,
                    "velocity": 0.2125984251968504,
                    "duration": 0.6441183541666646
                },
                {
                    "name": "G#2",
                    "midi": 44,
                    "time": 183.20370550000004,
                    "velocity": 0.15748031496062992,
                    "duration": 0.31520685416666083
                },
                {
                    "name": "G#2",
                    "midi": 44,
                    "time": 183.53261700000004,
                    "velocity": 0.2047244094488189,
                    "duration": 0.6441183541666646
                },
                {
                    "name": "G#2",
                    "midi": 44,
                    "time": 184.19044000000005,
                    "velocity": 0.2125984251968504,
                    "duration": 0.31520685416666083
                },
                {
                    "name": "G#2",
                    "midi": 44,
                    "time": 184.51935150000006,
                    "velocity": 0.2283464566929134,
                    "duration": 0.6441183541666646
                },
                {
                    "name": "G#2",
                    "midi": 44,
                    "time": 185.17717450000006,
                    "velocity": 0.2125984251968504,
                    "duration": 0.31520685416666083
                },
                {
                    "name": "G#2",
                    "midi": 44,
                    "time": 185.50608600000007,
                    "velocity": 0.2283464566929134,
                    "duration": 0.6441183541666646
                },
                {
                    "name": "G#2",
                    "midi": 44,
                    "time": 186.16390900000007,
                    "velocity": 0.2125984251968504,
                    "duration": 0.31520685416666083
                },
                {
                    "name": "G#2",
                    "midi": 44,
                    "time": 186.49282050000008,
                    "velocity": 0.2283464566929134,
                    "duration": 0.6441183541666646
                },
                {
                    "name": "G#2",
                    "midi": 44,
                    "time": 187.1506435000001,
                    "velocity": 0.1732283464566929,
                    "duration": 0.31520685416668925
                },
                {
                    "name": "G#2",
                    "midi": 44,
                    "time": 187.47955500000012,
                    "velocity": 0.2204724409448819,
                    "duration": 0.6441183541666646
                },
                {
                    "name": "G#2",
                    "midi": 44,
                    "time": 188.13737800000013,
                    "velocity": 0.1732283464566929,
                    "duration": 0.31520685416666083
                },
                {
                    "name": "G#2",
                    "midi": 44,
                    "time": 188.46628950000013,
                    "velocity": 0.1968503937007874,
                    "duration": 0.6441183541666646
                },
                {
                    "name": "G#2",
                    "midi": 44,
                    "time": 189.12411250000014,
                    "velocity": 0.1732283464566929,
                    "duration": 0.31520685416666083
                },
                {
                    "name": "G#2",
                    "midi": 44,
                    "time": 189.45302400000014,
                    "velocity": 0.2204724409448819,
                    "duration": 0.6441183541666646
                },
                {
                    "name": "G#2",
                    "midi": 44,
                    "time": 190.11084700000015,
                    "velocity": 0.2125984251968504,
                    "duration": 0.31520685416666083
                },
                {
                    "name": "G#2",
                    "midi": 44,
                    "time": 190.43975850000015,
                    "velocity": 0.2283464566929134,
                    "duration": 0.6441183541666646
                },
                {
                    "name": "G#2",
                    "midi": 44,
                    "time": 191.09758150000016,
                    "velocity": 0.2204724409448819,
                    "duration": 0.31520685416666083
                },
                {
                    "name": "G#2",
                    "midi": 44,
                    "time": 191.42649300000016,
                    "velocity": 0.2440944881889764,
                    "duration": 0.6441183541666646
                },
                {
                    "name": "G#2",
                    "midi": 44,
                    "time": 192.08431600000017,
                    "velocity": 0.1732283464566929,
                    "duration": 0.31520685416666083
                },
                {
                    "name": "G#2",
                    "midi": 44,
                    "time": 192.41322750000018,
                    "velocity": 0.2125984251968504,
                    "duration": 0.6441183541666646
                },
                {
                    "name": "G#2",
                    "midi": 44,
                    "time": 193.07105050000018,
                    "velocity": 0.1732283464566929,
                    "duration": 0.31520685416666083
                },
                {
                    "name": "G#2",
                    "midi": 44,
                    "time": 193.3999620000002,
                    "velocity": 0.2204724409448819,
                    "duration": 0.6441183541666646
                },
                {
                    "name": "G#2",
                    "midi": 44,
                    "time": 194.0577850000002,
                    "velocity": 0.2125984251968504,
                    "duration": 0.31520685416666083
                },
                {
                    "name": "G#2",
                    "midi": 44,
                    "time": 194.3866965000002,
                    "velocity": 0.2283464566929134,
                    "duration": 0.6441183541666646
                },
                {
                    "name": "G#2",
                    "midi": 44,
                    "time": 195.0445195000002,
                    "velocity": 0.1732283464566929,
                    "duration": 0.31520685416666083
                },
                {
                    "name": "G#2",
                    "midi": 44,
                    "time": 195.3734310000002,
                    "velocity": 0.2204724409448819,
                    "duration": 0.6441183541666646
                },
                {
                    "name": "G#2",
                    "midi": 44,
                    "time": 196.03125400000022,
                    "velocity": 0.2125984251968504,
                    "duration": 0.31520685416666083
                },
                {
                    "name": "G#2",
                    "midi": 44,
                    "time": 196.36016550000022,
                    "velocity": 0.2283464566929134,
                    "duration": 0.6441183541666646
                },
                {
                    "name": "G#2",
                    "midi": 44,
                    "time": 197.01798850000023,
                    "velocity": 0.1968503937007874,
                    "duration": 0.31520685416666083
                },
                {
                    "name": "G#2",
                    "midi": 44,
                    "time": 197.34690000000023,
                    "velocity": 0.2283464566929134,
                    "duration": 0.6441183541666646
                },
                {
                    "name": "G#2",
                    "midi": 44,
                    "time": 198.00472300000024,
                    "velocity": 0.1968503937007874,
                    "duration": 0.31520685416666083
                },
                {
                    "name": "G#2",
                    "midi": 44,
                    "time": 198.33363450000024,
                    "velocity": 0.2125984251968504,
                    "duration": 0.6441183541666646
                },
                {
                    "name": "G#2",
                    "midi": 44,
                    "time": 198.99145750000025,
                    "velocity": 0.1968503937007874,
                    "duration": 0.31520685416666083
                },
                {
                    "name": "G#2",
                    "midi": 44,
                    "time": 199.32036900000026,
                    "velocity": 0.2204724409448819,
                    "duration": 0.6441183541666646
                },
                {
                    "name": "G#2",
                    "midi": 44,
                    "time": 199.97819200000026,
                    "velocity": 0.1968503937007874,
                    "duration": 0.31520685416666083
                },
                {
                    "name": "G#2",
                    "midi": 44,
                    "time": 200.30710350000027,
                    "velocity": 0.18110236220472442,
                    "duration": 0.6441183541666646
                },
                {
                    "name": "G#2",
                    "midi": 44,
                    "time": 200.96492650000027,
                    "velocity": 0.1732283464566929,
                    "duration": 0.31520685416666083
                },
                {
                    "name": "G#2",
                    "midi": 44,
                    "time": 201.29383800000028,
                    "velocity": 0.2047244094488189,
                    "duration": 0.6441183541666362
                },
                {
                    "name": "G#2",
                    "midi": 44,
                    "time": 201.95166100000026,
                    "velocity": 0.1732283464566929,
                    "duration": 0.31520685416666083
                },
                {
                    "name": "G#2",
                    "midi": 44,
                    "time": 202.28057250000026,
                    "velocity": 0.2204724409448819,
                    "duration": 0.6441183541666646
                },
                {
                    "name": "G#2",
                    "midi": 44,
                    "time": 202.93839550000027,
                    "velocity": 0.1732283464566929,
                    "duration": 0.31520685416666083
                },
                {
                    "name": "G#2",
                    "midi": 44,
                    "time": 203.26730700000027,
                    "velocity": 0.2125984251968504,
                    "duration": 0.6441183541666646
                },
                {
                    "name": "G#2",
                    "midi": 44,
                    "time": 203.92513000000028,
                    "velocity": 0.2125984251968504,
                    "duration": 0.31520685416666083
                },
                {
                    "name": "G#2",
                    "midi": 44,
                    "time": 204.25404150000028,
                    "velocity": 0.23622047244094488,
                    "duration": 0.6441183541666646
                },
                {
                    "name": "G#2",
                    "midi": 44,
                    "time": 204.9118645000003,
                    "velocity": 0.1968503937007874,
                    "duration": 0.31520685416666083
                },
                {
                    "name": "G#2",
                    "midi": 44,
                    "time": 205.2407760000003,
                    "velocity": 0.2283464566929134,
                    "duration": 0.6441183541666646
                },
                {
                    "name": "G#2",
                    "midi": 44,
                    "time": 205.8985990000003,
                    "velocity": 0.18110236220472442,
                    "duration": 0.31520685416666083
                },
                {
                    "name": "G#2",
                    "midi": 44,
                    "time": 206.2275105000003,
                    "velocity": 0.2440944881889764,
                    "duration": 0.6441183541666646
                },
                {
                    "name": "G#2",
                    "midi": 44,
                    "time": 206.8853335000003,
                    "velocity": 0.2204724409448819,
                    "duration": 0.31520685416666083
                },
                {
                    "name": "G#2",
                    "midi": 44,
                    "time": 207.21424500000032,
                    "velocity": 0.25984251968503935,
                    "duration": 0.644118354166693
                },
                {
                    "name": "G#2",
                    "midi": 44,
                    "time": 207.87206800000035,
                    "velocity": 0.2204724409448819,
                    "duration": 0.31520685416666083
                },
                {
                    "name": "G#2",
                    "midi": 44,
                    "time": 208.20097950000036,
                    "velocity": 0.2440944881889764,
                    "duration": 0.6441183541666646
                },
                {
                    "name": "G#2",
                    "midi": 44,
                    "time": 208.85880250000037,
                    "velocity": 0.2204724409448819,
                    "duration": 0.31520685416666083
                },
                {
                    "name": "G#2",
                    "midi": 44,
                    "time": 209.18771400000037,
                    "velocity": 0.25984251968503935,
                    "duration": 0.6441183541666362
                },
                {
                    "name": "G#2",
                    "midi": 44,
                    "time": 209.84553700000035,
                    "velocity": 0.18110236220472442,
                    "duration": 0.31520685416666083
                },
                {
                    "name": "G#2",
                    "midi": 44,
                    "time": 210.17444850000035,
                    "velocity": 0.2125984251968504,
                    "duration": 0.644118354166693
                },
                {
                    "name": "G#2",
                    "midi": 44,
                    "time": 210.8322715000004,
                    "velocity": 0.18110236220472442,
                    "duration": 0.31520685416666083
                },
                {
                    "name": "G#2",
                    "midi": 44,
                    "time": 211.1611830000004,
                    "velocity": 0.2204724409448819,
                    "duration": 0.6441183541666646
                },
                {
                    "name": "G#2",
                    "midi": 44,
                    "time": 211.8190060000004,
                    "velocity": 0.1732283464566929,
                    "duration": 0.31520685416666083
                },
                {
                    "name": "G#2",
                    "midi": 44,
                    "time": 212.1479175000004,
                    "velocity": 0.1968503937007874,
                    "duration": 0.644118354166693
                },
                {
                    "name": "G#2",
                    "midi": 44,
                    "time": 212.80574050000044,
                    "velocity": 0.18110236220472442,
                    "duration": 0.31520685416666083
                },
                {
                    "name": "G#2",
                    "midi": 44,
                    "time": 213.13465200000044,
                    "velocity": 0.2204724409448819,
                    "duration": 0.6441183541666646
                },
                {
                    "name": "G#2",
                    "midi": 44,
                    "time": 213.79247500000045,
                    "velocity": 0.1889763779527559,
                    "duration": 0.31520685416666083
                },
                {
                    "name": "G#2",
                    "midi": 44,
                    "time": 214.12138650000045,
                    "velocity": 0.2204724409448819,
                    "duration": 0.6441183541666646
                },
                {
                    "name": "G#2",
                    "midi": 44,
                    "time": 214.77920950000046,
                    "velocity": 0.1968503937007874,
                    "duration": 0.31520685416666083
                },
                {
                    "name": "G#2",
                    "midi": 44,
                    "time": 215.10812100000047,
                    "velocity": 0.2204724409448819,
                    "duration": 0.6441183541666646
                },
                {
                    "name": "G#2",
                    "midi": 44,
                    "time": 215.76594400000047,
                    "velocity": 0.18110236220472442,
                    "duration": 0.31520685416666083
                },
                {
                    "name": "G#2",
                    "midi": 44,
                    "time": 216.09485550000048,
                    "velocity": 0.1732283464566929,
                    "duration": 0.6441183541666646
                },
                {
                    "name": "G#2",
                    "midi": 44,
                    "time": 216.75267850000048,
                    "velocity": 0.2047244094488189,
                    "duration": 0.31520685416666083
                },
                {
                    "name": "G#2",
                    "midi": 44,
                    "time": 217.0815900000005,
                    "velocity": 0.1732283464566929,
                    "duration": 0.6441183541666646
                },
                {
                    "name": "G#2",
                    "midi": 44,
                    "time": 217.7394130000005,
                    "velocity": 0.18110236220472442,
                    "duration": 0.31520685416666083
                },
                {
                    "name": "G#2",
                    "midi": 44,
                    "time": 218.0683245000005,
                    "velocity": 0.1732283464566929,
                    "duration": 0.6441183541666646
                },
                {
                    "name": "G#2",
                    "midi": 44,
                    "time": 218.7261475000005,
                    "velocity": 0.1968503937007874,
                    "duration": 0.31520685416666083
                },
                {
                    "name": "G#2",
                    "midi": 44,
                    "time": 219.0550590000005,
                    "velocity": 0.2204724409448819,
                    "duration": 0.6441183541666646
                },
                {
                    "name": "G#2",
                    "midi": 44,
                    "time": 219.71288200000052,
                    "velocity": 0.1968503937007874,
                    "duration": 0.31520685416666083
                },
                {
                    "name": "G#2",
                    "midi": 44,
                    "time": 220.04179350000052,
                    "velocity": 0.2204724409448819,
                    "duration": 0.6441183541666646
                },
                {
                    "name": "G#2",
                    "midi": 44,
                    "time": 220.69961650000053,
                    "velocity": 0.1968503937007874,
                    "duration": 0.31520685416666083
                },
                {
                    "name": "G#2",
                    "midi": 44,
                    "time": 221.02852800000053,
                    "velocity": 0.2440944881889764,
                    "duration": 0.6441183541666646
                },
                {
                    "name": "G#2",
                    "midi": 44,
                    "time": 221.68635100000054,
                    "velocity": 0.2204724409448819,
                    "duration": 0.31520685416666083
                },
                {
                    "name": "G#2",
                    "midi": 44,
                    "time": 222.01526250000055,
                    "velocity": 0.25984251968503935,
                    "duration": 0.6441183541666646
                },
                {
                    "name": "G#2",
                    "midi": 44,
                    "time": 222.67308550000055,
                    "velocity": 0.2204724409448819,
                    "duration": 0.31520685416666083
                },
                {
                    "name": "G#2",
                    "midi": 44,
                    "time": 223.00199700000056,
                    "velocity": 0.25984251968503935,
                    "duration": 0.6441183541666362
                },
                {
                    "name": "G#2",
                    "midi": 44,
                    "time": 223.65982000000054,
                    "velocity": 0.2047244094488189,
                    "duration": 0.31520685416666083
                },
                {
                    "name": "G#2",
                    "midi": 44,
                    "time": 223.98873150000054,
                    "velocity": 0.1968503937007874,
                    "duration": 0.6441183541666362
                },
                {
                    "name": "G#2",
                    "midi": 44,
                    "time": 224.64655450000052,
                    "velocity": 0.18110236220472442,
                    "duration": 0.31520685416666083
                },
                {
                    "name": "G#2",
                    "midi": 44,
                    "time": 224.97546600000052,
                    "velocity": 0.2204724409448819,
                    "duration": 0.6441183541666646
                },
                {
                    "name": "G#2",
                    "midi": 44,
                    "time": 225.63328900000053,
                    "velocity": 0.1889763779527559,
                    "duration": 0.31520685416666083
                },
                {
                    "name": "G#2",
                    "midi": 44,
                    "time": 225.96220050000053,
                    "velocity": 0.2125984251968504,
                    "duration": 0.6441183541666646
                },
                {
                    "name": "G#2",
                    "midi": 44,
                    "time": 226.62002350000054,
                    "velocity": 0.1889763779527559,
                    "duration": 0.31520685416666083
                },
                {
                    "name": "G#2",
                    "midi": 44,
                    "time": 226.94893500000055,
                    "velocity": 0.2047244094488189,
                    "duration": 0.6441183541666646
                },
                {
                    "name": "G#2",
                    "midi": 44,
                    "time": 227.60675800000055,
                    "velocity": 0.14173228346456693,
                    "duration": 0.31520685416666083
                },
                {
                    "name": "G#2",
                    "midi": 44,
                    "time": 227.93566950000056,
                    "velocity": 0.1732283464566929,
                    "duration": 0.6441183541666646
                },
                {
                    "name": "G#2",
                    "midi": 44,
                    "time": 228.59349250000056,
                    "velocity": 0.14173228346456693,
                    "duration": 0.31520685416666083
                },
                {
                    "name": "G#2",
                    "midi": 44,
                    "time": 228.92240400000057,
                    "velocity": 0.1968503937007874,
                    "duration": 0.6441183541666646
                },
                {
                    "name": "G#2",
                    "midi": 44,
                    "time": 229.58022700000058,
                    "velocity": 0.15748031496062992,
                    "duration": 0.31520685416666083
                },
                {
                    "name": "G#2",
                    "midi": 44,
                    "time": 229.90913850000058,
                    "velocity": 0.1732283464566929,
                    "duration": 0.6441183541666646
                },
                {
                    "name": "G#2",
                    "midi": 44,
                    "time": 230.5669615000006,
                    "velocity": 0.1968503937007874,
                    "duration": 0.31520685416666083
                },
                {
                    "name": "G#2",
                    "midi": 44,
                    "time": 230.8958730000006,
                    "velocity": 0.23622047244094488,
                    "duration": 0.6441183541666646
                },
                {
                    "name": "G#2",
                    "midi": 44,
                    "time": 231.5536960000006,
                    "velocity": 0.1968503937007874,
                    "duration": 0.31520685416666083
                },
                {
                    "name": "G#2",
                    "midi": 44,
                    "time": 231.8826075000006,
                    "velocity": 0.2204724409448819,
                    "duration": 0.6441183541666646
                },
                {
                    "name": "G#2",
                    "midi": 44,
                    "time": 232.5404305000006,
                    "velocity": 0.1968503937007874,
                    "duration": 0.31520685416666083
                },
                {
                    "name": "G#2",
                    "midi": 44,
                    "time": 232.86934200000061,
                    "velocity": 0.2204724409448819,
                    "duration": 0.6441183541666646
                },
                {
                    "name": "G#2",
                    "midi": 44,
                    "time": 233.52716500000062,
                    "velocity": 0.1968503937007874,
                    "duration": 0.31520685416666083
                },
                {
                    "name": "G#2",
                    "midi": 44,
                    "time": 233.85607650000063,
                    "velocity": 0.2204724409448819,
                    "duration": 0.6441183541666646
                },
                {
                    "name": "G#2",
                    "midi": 44,
                    "time": 234.51389950000063,
                    "velocity": 0.1732283464566929,
                    "duration": 0.31520685416666083
                },
                {
                    "name": "G#2",
                    "midi": 44,
                    "time": 234.84281100000064,
                    "velocity": 0.2204724409448819,
                    "duration": 0.6441183541666646
                },
                {
                    "name": "G#2",
                    "midi": 44,
                    "time": 235.50063400000064,
                    "velocity": 0.1968503937007874,
                    "duration": 0.31520685416666083
                },
                {
                    "name": "G#2",
                    "midi": 44,
                    "time": 235.82954550000065,
                    "velocity": 0.2204724409448819,
                    "duration": 2.9602035000000058
                },
                {
                    "name": "G#2",
                    "midi": 44,
                    "time": 238.78974900000065,
                    "velocity": 0.2204724409448819,
                    "duration": 0.644118354166693
                },
                {
                    "name": "G#2",
                    "midi": 44,
                    "time": 239.4475720000007,
                    "velocity": 0.18110236220472442,
                    "duration": 0.31520685416666083
                },
                {
                    "name": "G#2",
                    "midi": 44,
                    "time": 239.7764835000007,
                    "velocity": 0.2204724409448819,
                    "duration": 0.6441183541666646
                },
                {
                    "name": "G#2",
                    "midi": 44,
                    "time": 240.4343065000007,
                    "velocity": 0.18110236220472442,
                    "duration": 0.31520685416666083
                },
                {
                    "name": "G#2",
                    "midi": 44,
                    "time": 240.7632180000007,
                    "velocity": 0.2204724409448819,
                    "duration": 0.6441183541666646
                },
                {
                    "name": "G#2",
                    "midi": 44,
                    "time": 241.4210410000007,
                    "velocity": 0.18110236220472442,
                    "duration": 0.31520685416666083
                },
                {
                    "name": "G#2",
                    "midi": 44,
                    "time": 241.74995250000072,
                    "velocity": 0.2204724409448819,
                    "duration": 0.6441183541666646
                },
                {
                    "name": "G#2",
                    "midi": 44,
                    "time": 242.40777550000072,
                    "velocity": 0.18110236220472442,
                    "duration": 0.31520685416666083
                },
                {
                    "name": "G#2",
                    "midi": 44,
                    "time": 242.73668700000073,
                    "velocity": 0.2204724409448819,
                    "duration": 0.6441183541666646
                },
                {
                    "name": "G#2",
                    "midi": 44,
                    "time": 243.39451000000074,
                    "velocity": 0.18110236220472442,
                    "duration": 0.31520685416666083
                },
                {
                    "name": "G#2",
                    "midi": 44,
                    "time": 243.72342150000074,
                    "velocity": 0.2204724409448819,
                    "duration": 0.6441183541666646
                },
                {
                    "name": "G#2",
                    "midi": 44,
                    "time": 244.38124450000075,
                    "velocity": 0.18110236220472442,
                    "duration": 0.31520685416666083
                },
                {
                    "name": "G#2",
                    "midi": 44,
                    "time": 244.71015600000075,
                    "velocity": 0.2204724409448819,
                    "duration": 0.6441183541666362
                },
                {
                    "name": "G#2",
                    "midi": 44,
                    "time": 245.36797900000073,
                    "velocity": 0.18110236220472442,
                    "duration": 0.31520685416666083
                },
                {
                    "name": "G#2",
                    "midi": 44,
                    "time": 245.69689050000073,
                    "velocity": 0.2204724409448819,
                    "duration": 0.6441183541666646
                },
                {
                    "name": "G#2",
                    "midi": 44,
                    "time": 246.35471350000074,
                    "velocity": 0.18110236220472442,
                    "duration": 0.31520685416666083
                },
                {
                    "name": "G#2",
                    "midi": 44,
                    "time": 246.68362500000075,
                    "velocity": 0.2204724409448819,
                    "duration": 0.6441183541666646
                },
                {
                    "name": "G#2",
                    "midi": 44,
                    "time": 247.34144800000075,
                    "velocity": 0.18110236220472442,
                    "duration": 0.31520685416666083
                },
                {
                    "name": "G#2",
                    "midi": 44,
                    "time": 247.67035950000076,
                    "velocity": 0.2204724409448819,
                    "duration": 0.6441183541666362
                },
                {
                    "name": "G#2",
                    "midi": 44,
                    "time": 248.32818250000074,
                    "velocity": 0.18110236220472442,
                    "duration": 0.31520685416666083
                },
                {
                    "name": "G#2",
                    "midi": 44,
                    "time": 248.65709400000074,
                    "velocity": 0.2204724409448819,
                    "duration": 1.9734690000000228
                },
                {
                    "name": "G#2",
                    "midi": 44,
                    "time": 251.28838600000077,
                    "velocity": 0.2204724409448819,
                    "duration": 0.9730298541666684
                },
                {
                    "name": "G#2",
                    "midi": 44,
                    "time": 252.27512050000078,
                    "velocity": 0.2204724409448819,
                    "duration": 0.9730298541666684
                }
            ],
            "controlChanges": {
                "7": [
                    {
                        "number": 7,
                        "time": 0,
                        "value": 1
                    }
                ],
                "10": [
                    {
                        "number": 10,
                        "time": 0,
                        "value": 0.5039370078740157
                    }
                ],
                "64": [
                    {
                        "number": 64,
                        "time": 0.001370464583333333,
                        "value": 1
                    },
                    {
                        "number": 64,
                        "time": 0.62904324375,
                        "value": 0
                    },
                    {
                        "number": 64,
                        "time": 0.7674601666666666,
                        "value": 1
                    },
                    {
                        "number": 64,
                        "time": 1.3252392520833332,
                        "value": 0
                    },
                    {
                        "number": 64,
                        "time": 1.5033996479166665,
                        "value": 1
                    },
                    {
                        "number": 64,
                        "time": 1.9885441104166666,
                        "value": 0
                    },
                    {
                        "number": 64,
                        "time": 2.0680310562499997,
                        "value": 1
                    },
                    {
                        "number": 64,
                        "time": 2.646367110416666,
                        "value": 0
                    },
                    {
                        "number": 64,
                        "time": 2.7724498520833327,
                        "value": 1
                    },
                    {
                        "number": 64,
                        "time": 3.2891149999999993,
                        "value": 0
                    },
                    {
                        "number": 64,
                        "time": 3.391899843749999,
                        "value": 1
                    },
                    {
                        "number": 64,
                        "time": 3.962013110416666,
                        "value": 0
                    },
                    {
                        "number": 64,
                        "time": 4.071650277083332,
                        "value": 1
                    },
                    {
                        "number": 64,
                        "time": 4.569128920833332,
                        "value": 0
                    },
                    {
                        "number": 64,
                        "time": 4.777439537499999,
                        "value": 1
                    },
                    {
                        "number": 64,
                        "time": 5.277659110416666,
                        "value": 0
                    },
                    {
                        "number": 64,
                        "time": 5.435262537499999,
                        "value": 1
                    },
                    {
                        "number": 64,
                        "time": 5.930000252083333,
                        "value": 0
                    },
                    {
                        "number": 64,
                        "time": 6.0930855374999995,
                        "value": 1
                    },
                    {
                        "number": 64,
                        "time": 6.593305110416666,
                        "value": 0
                    },
                    {
                        "number": 64,
                        "time": 6.813949908333333,
                        "value": 1
                    },
                    {
                        "number": 64,
                        "time": 7.109970258333333,
                        "value": 0
                    },
                    {
                        "number": 64,
                        "time": 7.2826487958333335,
                        "value": 1
                    },
                    {
                        "number": 64,
                        "time": 7.900728322916667,
                        "value": 0
                    },
                    {
                        "number": 64,
                        "time": 8.0665545375,
                        "value": 1
                    },
                    {
                        "number": 64,
                        "time": 8.568144575,
                        "value": 0
                    },
                    {
                        "number": 64,
                        "time": 8.78604844375,
                        "value": 1
                    },
                    {
                        "number": 64,
                        "time": 9.221856181249999,
                        "value": 0
                    },
                    {
                        "number": 64,
                        "time": 9.3822005375,
                        "value": 1
                    },
                    {
                        "number": 64,
                        "time": 9.87967918125,
                        "value": 0
                    },
                    {
                        "number": 64,
                        "time": 10.086619333333333,
                        "value": 1
                    },
                    {
                        "number": 64,
                        "time": 10.525167999999999,
                        "value": 0
                    },
                    {
                        "number": 64,
                        "time": 10.744442333333332,
                        "value": 1
                    },
                    {
                        "number": 64,
                        "time": 11.203547968749998,
                        "value": 0
                    },
                    {
                        "number": 64,
                        "time": 11.370744647916665,
                        "value": 1
                    },
                    {
                        "number": 64,
                        "time": 11.847666322916664,
                        "value": 0
                    },
                    {
                        "number": 64,
                        "time": 12.028567647916665,
                        "value": 1
                    },
                    {
                        "number": 64,
                        "time": 12.516453039583332,
                        "value": 0
                    },
                    {
                        "number": 64,
                        "time": 12.6713155375,
                        "value": 1
                    },
                    {
                        "number": 64,
                        "time": 13.175646504166666,
                        "value": 0
                    },
                    {
                        "number": 64,
                        "time": 13.375734333333332,
                        "value": 1
                    },
                    {
                        "number": 64,
                        "time": 13.823876252083332,
                        "value": 0
                    },
                    {
                        "number": 64,
                        "time": 13.970515962499999,
                        "value": 1
                    },
                    {
                        "number": 64,
                        "time": 14.284352352083332,
                        "value": 0
                    },
                    {
                        "number": 64,
                        "time": 14.646155002083331,
                        "value": 1
                    },
                    {
                        "number": 64,
                        "time": 15.135410858333332,
                        "value": 0
                    },
                    {
                        "number": 64,
                        "time": 15.239566166666664,
                        "value": 1
                    },
                    {
                        "number": 64,
                        "time": 15.805568039583331,
                        "value": 0
                    },
                    {
                        "number": 64,
                        "time": 16.03991748333333,
                        "value": 1
                    },
                    {
                        "number": 64,
                        "time": 16.453797787499997,
                        "value": 0
                    },
                    {
                        "number": 64,
                        "time": 17.374749987499996,
                        "value": 1
                    },
                    {
                        "number": 64,
                        "time": 17.761220999999995,
                        "value": 0
                    },
                    {
                        "number": 64,
                        "time": 18.575276962499995,
                        "value": 1
                    },
                    {
                        "number": 64,
                        "time": 18.905558927083327,
                        "value": 0
                    },
                    {
                        "number": 64,
                        "time": 19.234470427083327,
                        "value": 1
                    },
                    {
                        "number": 64,
                        "time": 19.742912787499993,
                        "value": 0
                    },
                    {
                        "number": 64,
                        "time": 19.985485018749994,
                        "value": 1
                    },
                    {
                        "number": 64,
                        "time": 20.40210625208333,
                        "value": 0
                    },
                    {
                        "number": 64,
                        "time": 21.301131018749995,
                        "value": 1
                    },
                    {
                        "number": 64,
                        "time": 21.52040535208333,
                        "value": 0
                    },
                    {
                        "number": 64,
                        "time": 21.82464848958333,
                        "value": 1
                    },
                    {
                        "number": 64,
                        "time": 22.37557525208333,
                        "value": 0
                    },
                    {
                        "number": 64,
                        "time": 22.598960979166662,
                        "value": 1
                    },
                    {
                        "number": 64,
                        "time": 23.040250574999995,
                        "value": 0
                    },
                    {
                        "number": 64,
                        "time": 23.275970483333328,
                        "value": 1
                    },
                    {
                        "number": 64,
                        "time": 23.689850787499996,
                        "value": 0
                    },
                    {
                        "number": 64,
                        "time": 24.59161648333333,
                        "value": 1
                    },
                    {
                        "number": 64,
                        "time": 24.997273999999997,
                        "value": 0
                    },
                    {
                        "number": 64,
                        "time": 25.812700427083332,
                        "value": 1
                    },
                    {
                        "number": 64,
                        "time": 26.141611927083332,
                        "value": 0
                    },
                    {
                        "number": 64,
                        "time": 26.454077852083334,
                        "value": 1
                    },
                    {
                        "number": 64,
                        "time": 26.98307718125,
                        "value": 0
                    },
                    {
                        "number": 64,
                        "time": 27.1434215375,
                        "value": 1
                    },
                    {
                        "number": 64,
                        "time": 27.638159252083334,
                        "value": 0
                    },
                    {
                        "number": 64,
                        "time": 28.443992427083334,
                        "value": 1
                    },
                    {
                        "number": 64,
                        "time": 28.709862556250002,
                        "value": 0
                    },
                    {
                        "number": 64,
                        "time": 29.101815427083334,
                        "value": 1
                    },
                    {
                        "number": 64,
                        "time": 29.611628252083335,
                        "value": 0
                    },
                    {
                        "number": 64,
                        "time": 29.85283001875,
                        "value": 1
                    },
                    {
                        "number": 64,
                        "time": 30.277674039583335,
                        "value": 0
                    },
                    {
                        "number": 64,
                        "time": 30.557248814583335,
                        "value": 1
                    },
                    {
                        "number": 64,
                        "time": 30.934126575,
                        "value": 0
                    },
                    {
                        "number": 64,
                        "time": 31.136955333333333,
                        "value": 1
                    },
                    {
                        "number": 64,
                        "time": 31.58098585833333,
                        "value": 0
                    },
                    {
                        "number": 64,
                        "time": 31.71666185208333,
                        "value": 1
                    },
                    {
                        "number": 64,
                        "time": 32.12368983333333,
                        "value": 0
                    },
                    {
                        "number": 64,
                        "time": 32.29636837083333,
                        "value": 1
                    },
                    {
                        "number": 64,
                        "time": 32.908966039583326,
                        "value": 0
                    },
                    {
                        "number": 64,
                        "time": 33.17346570416666,
                        "value": 1
                    },
                    {
                        "number": 64,
                        "time": 33.56678903958333,
                        "value": 0
                    },
                    {
                        "number": 64,
                        "time": 33.83128870416666,
                        "value": 1
                    },
                    {
                        "number": 64,
                        "time": 34.22461203958333,
                        "value": 0
                    },
                    {
                        "number": 64,
                        "time": 34.47403659374999,
                        "value": 1
                    },
                    {
                        "number": 64,
                        "time": 35.53751711041666,
                        "value": 0
                    },
                    {
                        "number": 64,
                        "time": 35.80475770416666,
                        "value": 1
                    },
                    {
                        "number": 64,
                        "time": 36.05555272291666,
                        "value": 0
                    },
                    {
                        "number": 64,
                        "time": 36.384464222916655,
                        "value": 1
                    },
                    {
                        "number": 64,
                        "time": 36.84905171666666,
                        "value": 0
                    },
                    {
                        "number": 64,
                        "time": 37.02584164791666,
                        "value": 1
                    },
                    {
                        "number": 64,
                        "time": 37.501392858333325,
                        "value": 0
                    },
                    {
                        "number": 64,
                        "time": 37.700110222916656,
                        "value": 1
                    },
                    {
                        "number": 64,
                        "time": 38.16332725208332,
                        "value": 0
                    },
                    {
                        "number": 64,
                        "time": 38.326412537499984,
                        "value": 1
                    },
                    {
                        "number": 64,
                        "time": 38.81977978749998,
                        "value": 0
                    },
                    {
                        "number": 64,
                        "time": 38.95271485208332,
                        "value": 1
                    },
                    {
                        "number": 64,
                        "time": 39.344667722916654,
                        "value": 0
                    },
                    {
                        "number": 64,
                        "time": 39.51597579583332,
                        "value": 1
                    },
                    {
                        "number": 64,
                        "time": 40.142278110416655,
                        "value": 0
                    },
                    {
                        "number": 64,
                        "time": 40.284806427083325,
                        "value": 1
                    },
                    {
                        "number": 64,
                        "time": 40.79736018124999,
                        "value": 0
                    },
                    {
                        "number": 64,
                        "time": 40.97277964791666,
                        "value": 1
                    },
                    {
                        "number": 64,
                        "time": 41.45792411041666,
                        "value": 0
                    },
                    {
                        "number": 64,
                        "time": 41.66212333333333,
                        "value": 1
                    },
                    {
                        "number": 64,
                        "time": 42.76945871666666,
                        "value": 0
                    },
                    {
                        "number": 64,
                        "time": 42.94624864791666,
                        "value": 1
                    },
                    {
                        "number": 64,
                        "time": 43.150447870833325,
                        "value": 0
                    },
                    {
                        "number": 64,
                        "time": 43.525955166666655,
                        "value": 1
                    },
                    {
                        "number": 64,
                        "time": 47.38244250416666,
                        "value": 0
                    },
                    {
                        "number": 64,
                        "time": 47.43589062291666,
                        "value": 1
                    },
                    {
                        "number": 64,
                        "time": 48.06493386666666,
                        "value": 0
                    },
                    {
                        "number": 64,
                        "time": 48.13208663124999,
                        "value": 1
                    },
                    {
                        "number": 64,
                        "time": 48.36232468124999,
                        "value": 0
                    },
                    {
                        "number": 64,
                        "time": 48.432218374999984,
                        "value": 1
                    },
                    {
                        "number": 64,
                        "time": 49.033852327083316,
                        "value": 0
                    },
                    {
                        "number": 64,
                        "time": 49.090041374999984,
                        "value": 1
                    },
                    {
                        "number": 64,
                        "time": 49.34631825208332,
                        "value": 0
                    },
                    {
                        "number": 64,
                        "time": 49.40524822916665,
                        "value": 1
                    },
                    {
                        "number": 64,
                        "time": 50.008252645833316,
                        "value": 0
                    },
                    {
                        "number": 64,
                        "time": 50.086369127083316,
                        "value": 1
                    },
                    {
                        "number": 64,
                        "time": 50.32894135833332,
                        "value": 0
                    },
                    {
                        "number": 64,
                        "time": 50.44954224166665,
                        "value": 1
                    },
                    {
                        "number": 64,
                        "time": 51.000469004166646,
                        "value": 0
                    },
                    {
                        "number": 64,
                        "time": 51.06899223333331,
                        "value": 1
                    },
                    {
                        "number": 64,
                        "time": 51.36501258333332,
                        "value": 0
                    },
                    {
                        "number": 64,
                        "time": 51.58428691666665,
                        "value": 1
                    },
                    {
                        "number": 64,
                        "time": 52.31748546874998,
                        "value": 0
                    },
                    {
                        "number": 64,
                        "time": 52.46138424999998,
                        "value": 1
                    },
                    {
                        "number": 64,
                        "time": 52.649137897916646,
                        "value": 0
                    },
                    {
                        "number": 64,
                        "time": 52.827298293749976,
                        "value": 1
                    },
                    {
                        "number": 64,
                        "time": 53.29188578749998,
                        "value": 0
                    },
                    {
                        "number": 64,
                        "time": 53.361779481249975,
                        "value": 1
                    },
                    {
                        "number": 64,
                        "time": 53.960672504166645,
                        "value": 0
                    },
                    {
                        "number": 64,
                        "time": 54.01412062291664,
                        "value": 1
                    },
                    {
                        "number": 64,
                        "time": 54.27587935833331,
                        "value": 0
                    },
                    {
                        "number": 64,
                        "time": 54.34851398124998,
                        "value": 1
                    },
                    {
                        "number": 64,
                        "time": 54.61986596874998,
                        "value": 0
                    },
                    {
                        "number": 64,
                        "time": 54.677425481249976,
                        "value": 1
                    },
                    {
                        "number": 64,
                        "time": 54.950147933333305,
                        "value": 0
                    },
                    {
                        "number": 64,
                        "time": 55.00085512291664,
                        "value": 1
                    },
                    {
                        "number": 64,
                        "time": 55.270836645833306,
                        "value": 0
                    },
                    {
                        "number": 64,
                        "time": 55.49559283749997,
                        "value": 1
                    },
                    {
                        "number": 64,
                        "time": 56.922246468749975,
                        "value": 0
                    },
                    {
                        "number": 64,
                        "time": 57.103147793749976,
                        "value": 1
                    },
                    {
                        "number": 64,
                        "time": 59.20406999999999,
                        "value": 0
                    },
                    {
                        "number": 64,
                        "time": 59.276704622916654,
                        "value": 1
                    },
                    {
                        "number": 64,
                        "time": 59.87011578749999,
                        "value": 0
                    },
                    {
                        "number": 64,
                        "time": 60.219584256249995,
                        "value": 1
                    },
                    {
                        "number": 64,
                        "time": 61.19672550416667,
                        "value": 0
                    },
                    {
                        "number": 64,
                        "time": 61.341994750000005,
                        "value": 1
                    },
                    {
                        "number": 64,
                        "time": 62.17934861041668,
                        "value": 0
                    },
                    {
                        "number": 64,
                        "time": 62.42055037708335,
                        "value": 1
                    },
                    {
                        "number": 64,
                        "time": 63.50184693333336,
                        "value": 0
                    },
                    {
                        "number": 64,
                        "time": 64.27341849375003,
                        "value": 1
                    },
                    {
                        "number": 64,
                        "time": 64.81064061041668,
                        "value": 0
                    },
                    {
                        "number": 64,
                        "time": 64.90657313125001,
                        "value": 1
                    },
                    {
                        "number": 64,
                        "time": 65.14503396875001,
                        "value": 0
                    },
                    {
                        "number": 64,
                        "time": 65.34375133333334,
                        "value": 1
                    },
                    {
                        "number": 64,
                        "time": 67.11165064583331,
                        "value": 0
                    },
                    {
                        "number": 64,
                        "time": 67.18976712708331,
                        "value": 1
                    },
                    {
                        "number": 64,
                        "time": 67.7653622520833,
                        "value": 0
                    },
                    {
                        "number": 64,
                        "time": 68.25461810833329,
                        "value": 1
                    },
                    {
                        "number": 64,
                        "time": 68.75757861041662,
                        "value": 0
                    },
                    {
                        "number": 64,
                        "time": 68.81102672916661,
                        "value": 1
                    },
                    {
                        "number": 64,
                        "time": 69.09471289791661,
                        "value": 0
                    },
                    {
                        "number": 64,
                        "time": 69.20709099374994,
                        "value": 1
                    },
                    {
                        "number": 64,
                        "time": 69.73197892916662,
                        "value": 0
                    },
                    {
                        "number": 64,
                        "time": 69.81694773333328,
                        "value": 1
                    },
                    {
                        "number": 64,
                        "time": 70.06774275208328,
                        "value": 0
                    },
                    {
                        "number": 64,
                        "time": 70.21301199791661,
                        "value": 1
                    },
                    {
                        "number": 64,
                        "time": 70.39254285833327,
                        "value": 0
                    },
                    {
                        "number": 64,
                        "time": 70.4638070166666,
                        "value": 1
                    },
                    {
                        "number": 64,
                        "time": 70.72830668124995,
                        "value": 0
                    },
                    {
                        "number": 64,
                        "time": 70.80368223333328,
                        "value": 1
                    },
                    {
                        "number": 64,
                        "time": 71.04488399999994,
                        "value": 0
                    },
                    {
                        "number": 64,
                        "time": 71.16137348958327,
                        "value": 1
                    },
                    {
                        "number": 64,
                        "time": 71.7218935041666,
                        "value": 0
                    },
                    {
                        "number": 64,
                        "time": 71.80960323749993,
                        "value": 1
                    },
                    {
                        "number": 64,
                        "time": 72.03984128749993,
                        "value": 0
                    },
                    {
                        "number": 64,
                        "time": 72.16729449374992,
                        "value": 1
                    },
                    {
                        "number": 64,
                        "time": 72.36875278749991,
                        "value": 0
                    },
                    {
                        "number": 64,
                        "time": 72.44823973333325,
                        "value": 1
                    },
                    {
                        "number": 64,
                        "time": 72.69355289374992,
                        "value": 0
                    },
                    {
                        "number": 64,
                        "time": 72.79633773749993,
                        "value": 1
                    },
                    {
                        "number": 64,
                        "time": 73.01835299999992,
                        "value": 0
                    },
                    {
                        "number": 64,
                        "time": 73.23762733333325,
                        "value": 1
                    },
                    {
                        "number": 64,
                        "time": 74.02427400416659,
                        "value": 0
                    },
                    {
                        "number": 64,
                        "time": 74.22436183333325,
                        "value": 1
                    },
                    {
                        "number": 64,
                        "time": 74.34770364583325,
                        "value": 0
                    },
                    {
                        "number": 64,
                        "time": 74.49845474999992,
                        "value": 1
                    },
                    {
                        "number": 64,
                        "time": 74.68072653958326,
                        "value": 0
                    },
                    {
                        "number": 64,
                        "time": 74.80955021041659,
                        "value": 1
                    },
                    {
                        "number": 64,
                        "time": 74.99182199999993,
                        "value": 0
                    },
                    {
                        "number": 64,
                        "time": 75.15627774999993,
                        "value": 1
                    },
                    {
                        "number": 64,
                        "time": 75.65923825208327,
                        "value": 0
                    },
                    {
                        "number": 64,
                        "time": 75.75654123749993,
                        "value": 1
                    },
                    {
                        "number": 64,
                        "time": 75.99089068124994,
                        "value": 0
                    },
                    {
                        "number": 64,
                        "time": 76.08545273749993,
                        "value": 1
                    },
                    {
                        "number": 64,
                        "time": 76.3266545041666,
                        "value": 0
                    },
                    {
                        "number": 64,
                        "time": 76.42395748958326,
                        "value": 1
                    },
                    {
                        "number": 64,
                        "time": 76.64597275208325,
                        "value": 0
                    },
                    {
                        "number": 64,
                        "time": 76.73368248541658,
                        "value": 1
                    },
                    {
                        "number": 64,
                        "time": 76.96529099999991,
                        "value": 0
                    },
                    {
                        "number": 64,
                        "time": 77.20375183749991,
                        "value": 1
                    },
                    {
                        "number": 64,
                        "time": 78.63314639791655,
                        "value": 0
                    },
                    {
                        "number": 64,
                        "time": 78.79349075416654,
                        "value": 1
                    },
                    {
                        "number": 64,
                        "time": 81.59197943333317,
                        "value": 0
                    },
                    {
                        "number": 64,
                        "time": 82.03463949374982,
                        "value": 1
                    },
                    {
                        "number": 64,
                        "time": 82.8856979999998,
                        "value": 0
                    },
                    {
                        "number": 64,
                        "time": 83.05015374999981,
                        "value": 1
                    },
                    {
                        "number": 64,
                        "time": 83.89024853958313,
                        "value": 0
                    },
                    {
                        "number": 64,
                        "time": 84.2383465437498,
                        "value": 1
                    },
                    {
                        "number": 64,
                        "time": 85.00032485208312,
                        "value": 0
                    },
                    {
                        "number": 64,
                        "time": 85.23467429583313,
                        "value": 1
                    },
                    {
                        "number": 64,
                        "time": 85.53617650416646,
                        "value": 0
                    },
                    {
                        "number": 64,
                        "time": 85.65814785208313,
                        "value": 1
                    },
                    {
                        "number": 64,
                        "time": 85.85686521666646,
                        "value": 0
                    },
                    {
                        "number": 64,
                        "time": 86.0966965187498,
                        "value": 1
                    },
                    {
                        "number": 64,
                        "time": 86.83948832291645,
                        "value": 0
                    },
                    {
                        "number": 64,
                        "time": 87.05191033333311,
                        "value": 1
                    },
                    {
                        "number": 64,
                        "time": 88.16746850416644,
                        "value": 0
                    },
                    {
                        "number": 64,
                        "time": 88.4456728145831,
                        "value": 1
                    },
                    {
                        "number": 64,
                        "time": 88.80610499999976,
                        "value": 0
                    },
                    {
                        "number": 64,
                        "time": 88.97056074999976,
                        "value": 1
                    },
                    {
                        "number": 64,
                        "time": 89.81065553958308,
                        "value": 0
                    },
                    {
                        "number": 64,
                        "time": 90.96184578958307,
                        "value": 1
                    },
                    {
                        "number": 64,
                        "time": 91.77041989374972,
                        "value": 0
                    },
                    {
                        "number": 64,
                        "time": 91.96776679374972,
                        "value": 1
                    },
                    {
                        "number": 64,
                        "time": 92.44057707499972,
                        "value": 0
                    },
                    {
                        "number": 64,
                        "time": 92.58858724999972,
                        "value": 1
                    },
                    {
                        "number": 64,
                        "time": 92.75715439374972,
                        "value": 0
                    },
                    {
                        "number": 64,
                        "time": 92.87912574166639,
                        "value": 1
                    },
                    {
                        "number": 64,
                        "time": 93.43553436249971,
                        "value": 0
                    },
                    {
                        "number": 64,
                        "time": 93.56572849791638,
                        "value": 1
                    },
                    {
                        "number": 64,
                        "time": 93.74937075208304,
                        "value": 0
                    },
                    {
                        "number": 64,
                        "time": 93.89463999791637,
                        "value": 1
                    },
                    {
                        "number": 64,
                        "time": 94.41678700416637,
                        "value": 0
                    },
                    {
                        "number": 64,
                        "time": 94.63057947916637,
                        "value": 1
                    },
                    {
                        "number": 64,
                        "time": 94.7511803624997,
                        "value": 0
                    },
                    {
                        "number": 64,
                        "time": 95.23906575416636,
                        "value": 1
                    },
                    {
                        "number": 64,
                        "time": 98.67344999999963,
                        "value": 0
                    },
                    {
                        "number": 64,
                        "time": 98.8570922541663,
                        "value": 1
                    },
                    {
                        "number": 64,
                        "time": 99.66977775208295,
                        "value": 0
                    },
                    {
                        "number": 64,
                        "time": 99.85342000624962,
                        "value": 1
                    },
                    {
                        "number": 64,
                        "time": 100.3303416812496,
                        "value": 0
                    },
                    {
                        "number": 64,
                        "time": 100.45368349374961,
                        "value": 1
                    },
                    {
                        "number": 64,
                        "time": 100.64965992916626,
                        "value": 0
                    },
                    {
                        "number": 64,
                        "time": 100.8113747499996,
                        "value": 1
                    },
                    {
                        "number": 64,
                        "time": 101.64187628749958,
                        "value": 0
                    },
                    {
                        "number": 64,
                        "time": 101.83648225833292,
                        "value": 1
                    },
                    {
                        "number": 64,
                        "time": 102.31066300416626,
                        "value": 0
                    },
                    {
                        "number": 64,
                        "time": 102.44633899791626,
                        "value": 1
                    },
                    {
                        "number": 64,
                        "time": 102.62038799999958,
                        "value": 0
                    },
                    {
                        "number": 64,
                        "time": 102.89448091666624,
                        "value": 1
                    },
                    {
                        "number": 64,
                        "time": 103.6167157520829,
                        "value": 0
                    },
                    {
                        "number": 64,
                        "time": 103.93603399999957,
                        "value": 1
                    },
                    {
                        "number": 64,
                        "time": 104.59385699999956,
                        "value": 0
                    },
                    {
                        "number": 64,
                        "time": 104.83231783749956,
                        "value": 1
                    },
                    {
                        "number": 64,
                        "time": 105.59840753958288,
                        "value": 0
                    },
                    {
                        "number": 64,
                        "time": 105.79986583333287,
                        "value": 1
                    },
                    {
                        "number": 64,
                        "time": 106.24252589374953,
                        "value": 0
                    },
                    {
                        "number": 64,
                        "time": 106.3850542104162,
                        "value": 1
                    },
                    {
                        "number": 64,
                        "time": 106.57006692916619,
                        "value": 0
                    },
                    {
                        "number": 64,
                        "time": 106.80578683749953,
                        "value": 1
                    },
                    {
                        "number": 64,
                        "time": 107.57187653958285,
                        "value": 0
                    },
                    {
                        "number": 64,
                        "time": 107.79252133749951,
                        "value": 1
                    },
                    {
                        "number": 64,
                        "time": 108.54490639374949,
                        "value": 0
                    },
                    {
                        "number": 64,
                        "time": 108.79707187708281,
                        "value": 1
                    },
                    {
                        "number": 64,
                        "time": 109.5453455395828,
                        "value": 0
                    },
                    {
                        "number": 64,
                        "time": 109.74680383333279,
                        "value": 1
                    },
                    {
                        "number": 64,
                        "time": 110.51837539374944,
                        "value": 0
                    },
                    {
                        "number": 64,
                        "time": 110.80754342083277,
                        "value": 1
                    },
                    {
                        "number": 64,
                        "time": 112.16704428749942,
                        "value": 0
                    },
                    {
                        "number": 64,
                        "time": 112.34246375416609,
                        "value": 1
                    },
                    {
                        "number": 64,
                        "time": 112.54666297708276,
                        "value": 0
                    },
                    {
                        "number": 64,
                        "time": 112.68096850624943,
                        "value": 1
                    },
                    {
                        "number": 64,
                        "time": 113.14966739374941,
                        "value": 0
                    },
                    {
                        "number": 64,
                        "time": 113.28123199374942,
                        "value": 1
                    },
                    {
                        "number": 64,
                        "time": 113.49091307499941,
                        "value": 0
                    },
                    {
                        "number": 64,
                        "time": 113.65810975416608,
                        "value": 1
                    },
                    {
                        "number": 64,
                        "time": 113.82256550416608,
                        "value": 0
                    },
                    {
                        "number": 64,
                        "time": 113.93905499374941,
                        "value": 1
                    },
                    {
                        "number": 64,
                        "time": 114.13777235833274,
                        "value": 0
                    },
                    {
                        "number": 64,
                        "time": 114.28715299791607,
                        "value": 1
                    },
                    {
                        "number": 64,
                        "time": 114.48038850416606,
                        "value": 0
                    },
                    {
                        "number": 64,
                        "time": 114.75448142083272,
                        "value": 1
                    },
                    {
                        "number": 64,
                        "time": 116.1235755395827,
                        "value": 0
                    },
                    {
                        "number": 64,
                        "time": 116.51141701666603,
                        "value": 1
                    },
                    {
                        "number": 64,
                        "time": 117.43785107499936,
                        "value": 0
                    },
                    {
                        "number": 64,
                        "time": 117.61464100624936,
                        "value": 1
                    },
                    {
                        "number": 64,
                        "time": 118.09978546874935,
                        "value": 0
                    },
                    {
                        "number": 64,
                        "time": 118.22449774583268,
                        "value": 1
                    },
                    {
                        "number": 64,
                        "time": 118.40813999999934,
                        "value": 0
                    },
                    {
                        "number": 64,
                        "time": 118.563002497916,
                        "value": 1
                    },
                    {
                        "number": 64,
                        "time": 119.40446775208265,
                        "value": 0
                    },
                    {
                        "number": 64,
                        "time": 119.53603235208266,
                        "value": 1
                    },
                    {
                        "number": 64,
                        "time": 120.06229075208266,
                        "value": 0
                    },
                    {
                        "number": 64,
                        "time": 120.154111879166,
                        "value": 1
                    },
                    {
                        "number": 64,
                        "time": 120.38160899999933,
                        "value": 0
                    },
                    {
                        "number": 64,
                        "time": 120.60088333333266,
                        "value": 1
                    },
                    {
                        "number": 64,
                        "time": 121.37656628749932,
                        "value": 0
                    },
                    {
                        "number": 64,
                        "time": 121.64243641666599,
                        "value": 1
                    },
                    {
                        "number": 64,
                        "time": 122.35507799999932,
                        "value": 0
                    },
                    {
                        "number": 64,
                        "time": 122.61135487708266,
                        "value": 1
                    },
                    {
                        "number": 64,
                        "time": 123.35277621666597,
                        "value": 0
                    },
                    {
                        "number": 64,
                        "time": 123.56108683333264,
                        "value": 1
                    },
                    {
                        "number": 64,
                        "time": 124.01882200416597,
                        "value": 0
                    },
                    {
                        "number": 64,
                        "time": 124.1640912499993,
                        "value": 1
                    },
                    {
                        "number": 64,
                        "time": 124.3326583937493,
                        "value": 0
                    },
                    {
                        "number": 64,
                        "time": 124.62182642083263,
                        "value": 1
                    },
                    {
                        "number": 64,
                        "time": 125.29746546041596,
                        "value": 0
                    },
                    {
                        "number": 64,
                        "time": 125.57155837708262,
                        "value": 1
                    },
                    {
                        "number": 64,
                        "time": 126.30612739374926,
                        "value": 0
                    },
                    {
                        "number": 64,
                        "time": 126.57610891666593,
                        "value": 1
                    },
                    {
                        "number": 64,
                        "time": 127.30793700416592,
                        "value": 0
                    },
                    {
                        "number": 64,
                        "time": 127.56284341666593,
                        "value": 1
                    },
                    {
                        "number": 64,
                        "time": 128.2850782520826,
                        "value": 0
                    },
                    {
                        "number": 64,
                        "time": 128.58658046041595,
                        "value": 1
                    },
                    {
                        "number": 64,
                        "time": 129.33622458749932,
                        "value": 0
                    },
                    {
                        "number": 64,
                        "time": 129.61031750416598,
                        "value": 1
                    },
                    {
                        "number": 64,
                        "time": 129.93922900416598,
                        "value": 0
                    },
                    {
                        "number": 64,
                        "time": 130.33118187499932,
                        "value": 1
                    },
                    {
                        "number": 64,
                        "time": 130.91911118124932,
                        "value": 0
                    },
                    {
                        "number": 64,
                        "time": 130.98900487499932,
                        "value": 1
                    },
                    {
                        "number": 64,
                        "time": 131.090419254166,
                        "value": 0
                    },
                    {
                        "number": 64,
                        "time": 131.27406150833266,
                        "value": 1
                    },
                    {
                        "number": 64,
                        "time": 131.587897897916,
                        "value": 0
                    },
                    {
                        "number": 64,
                        "time": 131.67560763124933,
                        "value": 1
                    },
                    {
                        "number": 64,
                        "time": 131.90173428749932,
                        "value": 0
                    },
                    {
                        "number": 64,
                        "time": 131.97162798124933,
                        "value": 1
                    },
                    {
                        "number": 64,
                        "time": 132.08674700624934,
                        "value": 0
                    },
                    {
                        "number": 64,
                        "time": 132.28957576458268,
                        "value": 1
                    },
                    {
                        "number": 64,
                        "time": 132.882986929166,
                        "value": 0
                    },
                    {
                        "number": 64,
                        "time": 133.01592199374934,
                        "value": 1
                    },
                    {
                        "number": 64,
                        "time": 133.21326889374936,
                        "value": 0
                    },
                    {
                        "number": 64,
                        "time": 133.34483349374935,
                        "value": 1
                    },
                    {
                        "number": 64,
                        "time": 133.54355085833268,
                        "value": 0
                    },
                    {
                        "number": 64,
                        "time": 133.614815016666,
                        "value": 1
                    },
                    {
                        "number": 64,
                        "time": 133.87109189374934,
                        "value": 0
                    },
                    {
                        "number": 64,
                        "time": 133.964283485416,
                        "value": 1
                    },
                    {
                        "number": 64,
                        "time": 134.19589199999933,
                        "value": 0
                    },
                    {
                        "number": 64,
                        "time": 134.379534254166,
                        "value": 1
                    },
                    {
                        "number": 64,
                        "time": 134.87153103958266,
                        "value": 0
                    },
                    {
                        "number": 64,
                        "time": 134.99898424583267,
                        "value": 1
                    },
                    {
                        "number": 64,
                        "time": 135.19084928749933,
                        "value": 0
                    },
                    {
                        "number": 64,
                        "time": 135.31830249374934,
                        "value": 1
                    },
                    {
                        "number": 64,
                        "time": 135.51976078749934,
                        "value": 0
                    },
                    {
                        "number": 64,
                        "time": 135.64721399374935,
                        "value": 1
                    },
                    {
                        "number": 64,
                        "time": 135.84456089374936,
                        "value": 0
                    },
                    {
                        "number": 64,
                        "time": 135.95693898958268,
                        "value": 1
                    },
                    {
                        "number": 64,
                        "time": 136.16936099999936,
                        "value": 0
                    },
                    {
                        "number": 64,
                        "time": 136.3886353333327,
                        "value": 1
                    },
                    {
                        "number": 64,
                        "time": 137.1615773583327,
                        "value": 0
                    },
                    {
                        "number": 64,
                        "time": 137.26573266666603,
                        "value": 1
                    },
                    {
                        "number": 64,
                        "time": 137.5028230395827,
                        "value": 0
                    },
                    {
                        "number": 64,
                        "time": 137.63164671041602,
                        "value": 1
                    },
                    {
                        "number": 64,
                        "time": 137.8317345395827,
                        "value": 0
                    },
                    {
                        "number": 64,
                        "time": 137.97837424999938,
                        "value": 1
                    },
                    {
                        "number": 64,
                        "time": 138.1606460395827,
                        "value": 0
                    },
                    {
                        "number": 64,
                        "time": 138.30728574999938,
                        "value": 1
                    },
                    {
                        "number": 64,
                        "time": 138.81983950416605,
                        "value": 0
                    },
                    {
                        "number": 64,
                        "time": 138.95551549791605,
                        "value": 1
                    },
                    {
                        "number": 64,
                        "time": 139.13915775208272,
                        "value": 0
                    },
                    {
                        "number": 64,
                        "time": 139.22686748541605,
                        "value": 1
                    },
                    {
                        "number": 64,
                        "time": 139.47629203958272,
                        "value": 0
                    },
                    {
                        "number": 64,
                        "time": 139.58455874166606,
                        "value": 1
                    },
                    {
                        "number": 64,
                        "time": 139.79698075208273,
                        "value": 0
                    },
                    {
                        "number": 64,
                        "time": 139.8942837374994,
                        "value": 1
                    },
                    {
                        "number": 64,
                        "time": 140.1162989999994,
                        "value": 0
                    },
                    {
                        "number": 64,
                        "time": 140.4452104999994,
                        "value": 1
                    },
                    {
                        "number": 64,
                        "time": 141.51417287499942,
                        "value": 0
                    },
                    {
                        "number": 64,
                        "time": 141.9623147937494,
                        "value": 1
                    },
                    {
                        "number": 64,
                        "time": 141.9623147937494,
                        "value": 1
                    },
                    {
                        "number": 64,
                        "time": 144.06871885833277,
                        "value": 0
                    },
                    {
                        "number": 64,
                        "time": 144.19891299374945,
                        "value": 1
                    },
                    {
                        "number": 64,
                        "time": 144.7429874333328,
                        "value": 0
                    },
                    {
                        "number": 64,
                        "time": 145.18153609999945,
                        "value": 1
                    },
                    {
                        "number": 64,
                        "time": 146.03670599999947,
                        "value": 0
                    },
                    {
                        "number": 64,
                        "time": 146.27516683749948,
                        "value": 1
                    },
                    {
                        "number": 64,
                        "time": 147.04125653958283,
                        "value": 0
                    },
                    {
                        "number": 64,
                        "time": 147.3523519999995,
                        "value": 1
                    },
                    {
                        "number": 64,
                        "time": 149.98912585833287,
                        "value": 0
                    },
                    {
                        "number": 64,
                        "time": 150.1713976479162,
                        "value": 1
                    },
                    {
                        "number": 64,
                        "time": 151.3102537166662,
                        "value": 0
                    },
                    {
                        "number": 64,
                        "time": 151.4870436479162,
                        "value": 1
                    },
                    {
                        "number": 64,
                        "time": 151.64601753958289,
                        "value": 0
                    },
                    {
                        "number": 64,
                        "time": 151.84747583333288,
                        "value": 1
                    },
                    {
                        "number": 64,
                        "time": 151.95711299999957,
                        "value": 0
                    },
                    {
                        "number": 64,
                        "time": 152.14486664791625,
                        "value": 1
                    },
                    {
                        "number": 64,
                        "time": 153.9388047874996,
                        "value": 0
                    },
                    {
                        "number": 64,
                        "time": 154.14985633333293,
                        "value": 1
                    },
                    {
                        "number": 64,
                        "time": 155.26404403958293,
                        "value": 0
                    },
                    {
                        "number": 64,
                        "time": 155.40383142708293,
                        "value": 1
                    },
                    {
                        "number": 64,
                        "time": 155.59295553958293,
                        "value": 0
                    },
                    {
                        "number": 64,
                        "time": 155.77933872291626,
                        "value": 1
                    },
                    {
                        "number": 64,
                        "time": 155.90953285833294,
                        "value": 0
                    },
                    {
                        "number": 64,
                        "time": 156.12332533333293,
                        "value": 1
                    },
                    {
                        "number": 64,
                        "time": 157.8857427874996,
                        "value": 0
                    },
                    {
                        "number": 64,
                        "time": 158.22561800416625,
                        "value": 1
                    },
                    {
                        "number": 64,
                        "time": 161.82856939374963,
                        "value": 0
                    },
                    {
                        "number": 64,
                        "time": 162.0286572229163,
                        "value": 1
                    },
                    {
                        "number": 64,
                        "time": 162.820785752083,
                        "value": 0
                    },
                    {
                        "number": 64,
                        "time": 162.952350352083,
                        "value": 1
                    },
                    {
                        "number": 64,
                        "time": 163.15517911041633,
                        "value": 0
                    },
                    {
                        "number": 64,
                        "time": 163.31278253749966,
                        "value": 1
                    },
                    {
                        "number": 64,
                        "time": 163.48546107499968,
                        "value": 0
                    },
                    {
                        "number": 64,
                        "time": 163.59509824166634,
                        "value": 1
                    },
                    {
                        "number": 64,
                        "time": 163.79792699999967,
                        "value": 0
                    },
                    {
                        "number": 64,
                        "time": 163.92263927708302,
                        "value": 1
                    },
                    {
                        "number": 64,
                        "time": 164.7956252166664,
                        "value": 0
                    },
                    {
                        "number": 64,
                        "time": 164.95734003749973,
                        "value": 1
                    },
                    {
                        "number": 64,
                        "time": 165.12316625208305,
                        "value": 0
                    },
                    {
                        "number": 64,
                        "time": 165.25473085208304,
                        "value": 1
                    },
                    {
                        "number": 64,
                        "time": 165.45755961041638,
                        "value": 0
                    },
                    {
                        "number": 64,
                        "time": 165.60008792708305,
                        "value": 1
                    },
                    {
                        "number": 64,
                        "time": 165.77550739374973,
                        "value": 0
                    },
                    {
                        "number": 64,
                        "time": 166.00985683749974,
                        "value": 1
                    },
                    {
                        "number": 64,
                        "time": 166.7800579333331,
                        "value": 0
                    },
                    {
                        "number": 64,
                        "time": 167.08704199999977,
                        "value": 1
                    },
                    {
                        "number": 64,
                        "time": 167.74897639374979,
                        "value": 0
                    },
                    {
                        "number": 64,
                        "time": 167.96413933333312,
                        "value": 1
                    },
                    {
                        "number": 64,
                        "time": 169.72518632291647,
                        "value": 0
                    },
                    {
                        "number": 64,
                        "time": 169.93760833333315,
                        "value": 1
                    },
                    {
                        "number": 64,
                        "time": 170.72288453958313,
                        "value": 0
                    },
                    {
                        "number": 64,
                        "time": 170.96134537708315,
                        "value": 1
                    },
                    {
                        "number": 64,
                        "time": 171.69591439374983,
                        "value": 0
                    },
                    {
                        "number": 64,
                        "time": 171.91107733333317,
                        "value": 1
                    },
                    {
                        "number": 64,
                        "time": 172.69909446874982,
                        "value": 0
                    },
                    {
                        "number": 64,
                        "time": 172.91699833749982,
                        "value": 1
                    },
                    {
                        "number": 64,
                        "time": 173.66527199999985,
                        "value": 0
                    },
                    {
                        "number": 64,
                        "time": 173.75709312708318,
                        "value": 1
                    },
                    {
                        "number": 64,
                        "time": 174.33131778749984,
                        "value": 0
                    },
                    {
                        "number": 64,
                        "time": 174.37243172499984,
                        "value": 1
                    },
                    {
                        "number": 64,
                        "time": 174.60404023958318,
                        "value": 0
                    },
                    {
                        "number": 64,
                        "time": 174.6903795083332,
                        "value": 1
                    },
                    {
                        "number": 64,
                        "time": 174.9946226458332,
                        "value": 0
                    },
                    {
                        "number": 64,
                        "time": 175.08781423749986,
                        "value": 1
                    },
                    {
                        "number": 64,
                        "time": 175.32627507499987,
                        "value": 0
                    },
                    {
                        "number": 64,
                        "time": 175.4016506270832,
                        "value": 1
                    },
                    {
                        "number": 64,
                        "time": 175.64285239374988,
                        "value": 0
                    },
                    {
                        "number": 64,
                        "time": 176.02247108333322,
                        "value": 1
                    },
                    {
                        "number": 64,
                        "time": 178.9100399604166,
                        "value": 0
                    },
                    {
                        "number": 64,
                        "time": 179.40340721041665,
                        "value": 1
                    },
                    {
                        "number": 64,
                        "time": 181.57422311041668,
                        "value": 0
                    },
                    {
                        "number": 64,
                        "time": 181.62767122916668,
                        "value": 1
                    },
                    {
                        "number": 64,
                        "time": 182.23889843333336,
                        "value": 0
                    },
                    {
                        "number": 64,
                        "time": 182.7254133604167,
                        "value": 1
                    },
                    {
                        "number": 64,
                        "time": 183.55591489791672,
                        "value": 0
                    },
                    {
                        "number": 64,
                        "time": 183.73544575833338,
                        "value": 1
                    },
                    {
                        "number": 64,
                        "time": 187.17394139791676,
                        "value": 0
                    },
                    {
                        "number": 64,
                        "time": 187.52615079583344,
                        "value": 1
                    },
                    {
                        "number": 64,
                        "time": 188.8143875041668,
                        "value": 0
                    },
                    {
                        "number": 64,
                        "time": 188.96787953750012,
                        "value": 1
                    },
                    {
                        "number": 64,
                        "time": 189.14192853958346,
                        "value": 0
                    },
                    {
                        "number": 64,
                        "time": 189.3118661479168,
                        "value": 1
                    },
                    {
                        "number": 64,
                        "time": 189.45302400000014,
                        "value": 0
                    },
                    {
                        "number": 64,
                        "time": 189.54758605625014,
                        "value": 1
                    },
                    {
                        "number": 64,
                        "time": 191.17569798125015,
                        "value": 0
                    },
                    {
                        "number": 64,
                        "time": 191.4730887958335,
                        "value": 1
                    },
                    {
                        "number": 64,
                        "time": 192.7599550395835,
                        "value": 0
                    },
                    {
                        "number": 64,
                        "time": 192.91481753750017,
                        "value": 1
                    },
                    {
                        "number": 64,
                        "time": 193.0888665395835,
                        "value": 0
                    },
                    {
                        "number": 64,
                        "time": 193.24372903750017,
                        "value": 1
                    },
                    {
                        "number": 64,
                        "time": 193.3999620000002,
                        "value": 0
                    },
                    {
                        "number": 64,
                        "time": 193.5644177500002,
                        "value": 1
                    },
                    {
                        "number": 64,
                        "time": 195.1226359812502,
                        "value": 0
                    },
                    {
                        "number": 64,
                        "time": 195.44606562291688,
                        "value": 1
                    },
                    {
                        "number": 64,
                        "time": 199.32036900000026,
                        "value": 0
                    },
                    {
                        "number": 64,
                        "time": 199.49304753750025,
                        "value": 1
                    },
                    {
                        "number": 64,
                        "time": 200.3166967520836,
                        "value": 0
                    },
                    {
                        "number": 64,
                        "time": 200.47978203750026,
                        "value": 1
                    },
                    {
                        "number": 64,
                        "time": 200.6538310395836,
                        "value": 0
                    },
                    {
                        "number": 64,
                        "time": 200.80869353750026,
                        "value": 1
                    },
                    {
                        "number": 64,
                        "time": 200.98411300416694,
                        "value": 0
                    },
                    {
                        "number": 64,
                        "time": 201.09100924166694,
                        "value": 1
                    },
                    {
                        "number": 64,
                        "time": 201.30206078750027,
                        "value": 0
                    },
                    {
                        "number": 64,
                        "time": 201.5131123333336,
                        "value": 1
                    },
                    {
                        "number": 64,
                        "time": 202.29290668125026,
                        "value": 0
                    },
                    {
                        "number": 64,
                        "time": 202.40665524166693,
                        "value": 1
                    },
                    {
                        "number": 64,
                        "time": 202.62455911041693,
                        "value": 0
                    },
                    {
                        "number": 64,
                        "time": 202.71912116666692,
                        "value": 1
                    },
                    {
                        "number": 64,
                        "time": 202.94524782291694,
                        "value": 0
                    },
                    {
                        "number": 64,
                        "time": 203.06447824166693,
                        "value": 1
                    },
                    {
                        "number": 64,
                        "time": 203.26730700000027,
                        "value": 0
                    },
                    {
                        "number": 64,
                        "time": 203.48658133333362,
                        "value": 1
                    },
                    {
                        "number": 64,
                        "time": 204.26637568125028,
                        "value": 0
                    },
                    {
                        "number": 64,
                        "time": 204.45549979375028,
                        "value": 1
                    },
                    {
                        "number": 64,
                        "time": 205.2407760000003,
                        "value": 0
                    },
                    {
                        "number": 64,
                        "time": 205.58887400416697,
                        "value": 1
                    },
                    {
                        "number": 64,
                        "time": 207.21835639375033,
                        "value": 0
                    },
                    {
                        "number": 64,
                        "time": 207.525340460417,
                        "value": 1
                    },
                    {
                        "number": 64,
                        "time": 208.21879553958368,
                        "value": 0
                    },
                    {
                        "number": 64,
                        "time": 208.47507241666702,
                        "value": 1
                    },
                    {
                        "number": 64,
                        "time": 209.1931958583337,
                        "value": 0
                    },
                    {
                        "number": 64,
                        "time": 209.4069883333337,
                        "value": 1
                    },
                    {
                        "number": 64,
                        "time": 210.19363500416702,
                        "value": 0
                    },
                    {
                        "number": 64,
                        "time": 210.48554396041703,
                        "value": 1
                    },
                    {
                        "number": 64,
                        "time": 211.1611830000004,
                        "value": 0
                    },
                    {
                        "number": 64,
                        "time": 211.3256387500004,
                        "value": 1
                    },
                    {
                        "number": 64,
                        "time": 211.82859925208373,
                        "value": 0
                    },
                    {
                        "number": 64,
                        "time": 211.91630898541706,
                        "value": 1
                    },
                    {
                        "number": 64,
                        "time": 212.15888121666708,
                        "value": 0
                    },
                    {
                        "number": 64,
                        "time": 212.26440698958376,
                        "value": 1
                    },
                    {
                        "number": 64,
                        "time": 212.49464503958376,
                        "value": 0
                    },
                    {
                        "number": 64,
                        "time": 212.64128475000044,
                        "value": 1
                    },
                    {
                        "number": 64,
                        "time": 212.81122235833377,
                        "value": 0
                    },
                    {
                        "number": 64,
                        "time": 212.92222998958377,
                        "value": 1
                    },
                    {
                        "number": 64,
                        "time": 213.13465200000044,
                        "value": 0
                    },
                    {
                        "number": 64,
                        "time": 213.29910775000045,
                        "value": 1
                    },
                    {
                        "number": 64,
                        "time": 215.11908471666715,
                        "value": 0
                    },
                    {
                        "number": 64,
                        "time": 215.3109497583338,
                        "value": 1
                    },
                    {
                        "number": 64,
                        "time": 216.10993061041714,
                        "value": 0
                    },
                    {
                        "number": 64,
                        "time": 216.25931125000048,
                        "value": 1
                    },
                    {
                        "number": 64,
                        "time": 216.77186500416715,
                        "value": 0
                    },
                    {
                        "number": 64,
                        "time": 216.88835449375048,
                        "value": 1
                    },
                    {
                        "number": 64,
                        "time": 217.0815900000005,
                        "value": 0
                    },
                    {
                        "number": 64,
                        "time": 217.19807948958382,
                        "value": 1
                    },
                    {
                        "number": 64,
                        "time": 218.08751100416717,
                        "value": 0
                    },
                    {
                        "number": 64,
                        "time": 218.22318699791717,
                        "value": 1
                    },
                    {
                        "number": 64,
                        "time": 218.7343702875005,
                        "value": 0
                    },
                    {
                        "number": 64,
                        "time": 218.8330437375005,
                        "value": 1
                    },
                    {
                        "number": 64,
                        "time": 219.0550590000005,
                        "value": 0
                    },
                    {
                        "number": 64,
                        "time": 219.32915191666717,
                        "value": 1
                    },
                    {
                        "number": 64,
                        "time": 221.02852800000053,
                        "value": 0
                    },
                    {
                        "number": 64,
                        "time": 221.28480487708387,
                        "value": 1
                    },
                    {
                        "number": 64,
                        "time": 223.00747885833388,
                        "value": 0
                    },
                    {
                        "number": 64,
                        "time": 223.22127133333387,
                        "value": 1
                    },
                    {
                        "number": 64,
                        "time": 224.00106568125054,
                        "value": 0
                    },
                    {
                        "number": 64,
                        "time": 224.20800583333386,
                        "value": 1
                    },
                    {
                        "number": 64,
                        "time": 224.99191157500053,
                        "value": 0
                    },
                    {
                        "number": 64,
                        "time": 225.24955891666718,
                        "value": 1
                    },
                    {
                        "number": 64,
                        "time": 226.95715778750053,
                        "value": 0
                    },
                    {
                        "number": 64,
                        "time": 227.11339075000055,
                        "value": 1
                    },
                    {
                        "number": 64,
                        "time": 227.62594450416722,
                        "value": 0
                    },
                    {
                        "number": 64,
                        "time": 227.73284074166722,
                        "value": 1
                    },
                    {
                        "number": 64,
                        "time": 227.95485600416723,
                        "value": 0
                    },
                    {
                        "number": 64,
                        "time": 228.0521589895839,
                        "value": 1
                    },
                    {
                        "number": 64,
                        "time": 228.28102657500057,
                        "value": 0
                    },
                    {
                        "number": 64,
                        "time": 228.40025699375056,
                        "value": 1
                    },
                    {
                        "number": 64,
                        "time": 228.60856761041723,
                        "value": 0
                    },
                    {
                        "number": 64,
                        "time": 228.7099819895839,
                        "value": 1
                    },
                    {
                        "number": 64,
                        "time": 228.92240400000057,
                        "value": 0
                    },
                    {
                        "number": 64,
                        "time": 229.19649691666723,
                        "value": 1
                    },
                    {
                        "number": 64,
                        "time": 230.65878262708392,
                        "value": 0
                    },
                    {
                        "number": 64,
                        "time": 230.76841979375058,
                        "value": 1
                    },
                    {
                        "number": 64,
                        "time": 232.87619432291729,
                        "value": 0
                    },
                    {
                        "number": 64,
                        "time": 232.95156987500062,
                        "value": 1
                    },
                    {
                        "number": 64,
                        "time": 233.54909243333395,
                        "value": 0
                    },
                    {
                        "number": 64,
                        "time": 233.93419298125062,
                        "value": 1
                    },
                    {
                        "number": 64,
                        "time": 234.84829285833396,
                        "value": 0
                    },
                    {
                        "number": 64,
                        "time": 235.0305646479173,
                        "value": 1
                    },
                    {
                        "number": 64,
                        "time": 235.84050921666733,
                        "value": 0
                    },
                    {
                        "number": 64,
                        "time": 236.065265408334,
                        "value": 1
                    },
                    {
                        "number": 64,
                        "time": 236.84094836250065,
                        "value": 0
                    },
                    {
                        "number": 64,
                        "time": 237.24660587916733,
                        "value": 1
                    },
                    {
                        "number": 64,
                        "time": 237.81808961041733,
                        "value": 0
                    },
                    {
                        "number": 64,
                        "time": 237.890724233334,
                        "value": 1
                    },
                    {
                        "number": 64,
                        "time": 238.47728307500066,
                        "value": 0
                    },
                    {
                        "number": 64,
                        "time": 238.57184513125065,
                        "value": 1
                    },
                    {
                        "number": 64,
                        "time": 238.844567583334,
                        "value": 0
                    },
                    {
                        "number": 64,
                        "time": 239.10084446041733,
                        "value": 1
                    },
                    {
                        "number": 64,
                        "time": 242.73668700000073,
                        "value": 0
                    },
                    {
                        "number": 64,
                        "time": 242.93814529375072,
                        "value": 1
                    },
                    {
                        "number": 64,
                        "time": 243.7426080041674,
                        "value": 0
                    },
                    {
                        "number": 64,
                        "time": 243.9975144166674,
                        "value": 1
                    },
                    {
                        "number": 64,
                        "time": 244.71837878750074,
                        "value": 0
                    },
                    {
                        "number": 64,
                        "time": 244.92943033333407,
                        "value": 1
                    },
                    {
                        "number": 64,
                        "time": 246.68910685833407,
                        "value": 0
                    },
                    {
                        "number": 64,
                        "time": 246.88508329375074,
                        "value": 1
                    },
                    {
                        "number": 64,
                        "time": 247.68817553958408,
                        "value": 0
                    },
                    {
                        "number": 64,
                        "time": 247.88963383333407,
                        "value": 1
                    },
                    {
                        "number": 64,
                        "time": 248.66120539375075,
                        "value": 0
                    },
                    {
                        "number": 64,
                        "time": 250.33043125625076,
                        "value": 1
                    },
                    {
                        "number": 64,
                        "time": 254.57750100000078,
                        "value": 0
                    }
                ]
            },
            "id": 3,
            "name": "Piano left 2",
            "instrumentNumber": 0,
            "instrument": "acoustic grand piano",
            "instrumentFamily": "piano",
            "channelNumber": 0,
            "isPercussion": false
        },
        {
            "startTime": 0,
            "duration": 0,
            "length": 0,
            "notes": [],
            "controlChanges": {},
            "id": 4,
            "name": "Spur 4"
        },
        {
            "startTime": 0,
            "duration": 0,
            "length": 0,
            "notes": [],
            "controlChanges": {},
            "id": 5,
            "name": "Modest Mussorgski: Bilder einer Ausstellung (2)"
        },
        {
            "startTime": 0,
            "duration": 0,
            "length": 0,
            "notes": [],
            "controlChanges": {},
            "id": 6,
            "name": "Copyright  2000 by Bernd Krger"
        },
        {
            "startTime": 0,
            "duration": 0,
            "length": 0,
            "notes": [],
            "controlChanges": {},
            "id": 7,
            "name": "http://www.piano-midi.de"
        },
        {
            "startTime": 0,
            "duration": 0,
            "length": 0,
            "notes": [],
            "controlChanges": {},
            "id": 8,
            "name": "Edition: 2013-11-12"
        }
    ]
}